<svg xmlns="http://www.w3.org/2000/svg" xmlns:xlink="http://www.w3.org/1999/xlink" width="128" zoomAndPan="magnify" viewBox="0 0 96 95.999999" height="128" preserveAspectRatio="xMidYMid meet" version="1.2"><defs><clipPath id="c7412a412c"><path d="M 6 0 L 90 0 L 90 96 L 6 96 Z M 6 0 "/></clipPath><clipPath id="f1c8504cb1"><path d="M -14.304688 36.578125 L 68.691406 -11.898438 L 110.335938 59.402344 L 27.339844 107.878906 Z M -14.304688 36.578125 "/></clipPath><clipPath id="7bca5b2e44"><path d="M 89.484375 23.769531 L 89.5625 71.535156 L 48.082031 95.765625 L 6.515625 72.226562 L 6.4375 24.464844 L 47.921875 0.234375 Z M 89.484375 23.769531 "/></clipPath><clipPath id="fa2567acf3"><path d="M 14.140625 9.121094 L 81.851562 9.121094 L 81.851562 86.839844 L 14.140625 86.839844 Z M 14.140625 9.121094 "/></clipPath></defs><g id="d6ab4a8052"><g clip-rule="nonzero" clip-path="url(#c7412a412c)"><g clip-rule="nonzero" clip-path="url(#f1c8504cb1)"><g clip-rule="nonzero" clip-path="url(#7bca5b2e44)"><path style=" stroke:none;fill-rule:nonzero;fill:#65b30e;fill-opacity:1;" d="M -14.304688 36.578125 L 68.691406 -11.898438 L 110.335938 59.402344 L 27.339844 107.878906 Z M -14.304688 36.578125 "/></g></g></g><path style=" stroke:none;fill-rule:nonzero;fill:#87ff00;fill-opacity:1;" d="M 34.453125 34.738281 L 34.410156 34.695312 L 24.839844 44.265625 L 48.074219 67.457031 L 57.644531 57.933594 L 71.308594 44.265625 L 61.738281 34.695312 L 61.738281 34.652344 L 34.410156 34.652344 Z M 34.453125 34.738281 "/><g clip-rule="nonzero" clip-path="url(#fa2567acf3)"><path style=" stroke:none;fill-rule:nonzero;fill:#87ff00;fill-opacity:1;" d="M 47.988281 9.179688 L 14.148438 28.574219 L 14.148438 67.371094 L 47.988281 86.769531 L 81.828125 67.371094 L 81.828125 28.574219 Z M 75.359375 63.664062 L 47.988281 79.4375 L 20.613281 63.664062 L 20.617188 32.195312 L 47.988281 16.417969 L 75.363281 32.195312 L 75.363281 63.664062 Z M 75.359375 63.664062 "/></g><g style="fill:#b21a22;fill-opacity:1;"><g transform="translate(11.943741, 56.209705)"><path style="stroke:none" d="M 4.554688 -3.886719 L 4.554688 -20.136719 C 4.554688 -20.117188 4.5625 -20.085938 4.574219 -20.050781 C 4.601562 -19.972656 4.644531 -19.902344 4.707031 -19.839844 C 4.769531 -19.777344 4.839844 -19.730469 4.921875 -19.707031 C 4.957031 -19.695312 4.984375 -19.6875 5.003906 -19.6875 L 1.941406 -19.6875 C 1.964844 -19.6875 1.992188 -19.695312 2.027344 -19.707031 C 2.105469 -19.730469 2.175781 -19.777344 2.242188 -19.839844 C 2.304688 -19.902344 2.347656 -19.972656 2.375 -20.050781 C 2.386719 -20.085938 2.390625 -20.117188 2.390625 -20.136719 L 2.390625 -0.472656 C 2.390625 -0.492188 2.386719 -0.519531 2.375 -0.554688 C 2.347656 -0.632812 2.304688 -0.707031 2.242188 -0.769531 C 2.175781 -0.832031 2.105469 -0.875 2.027344 -0.902344 C 1.992188 -0.914062 1.964844 -0.921875 1.941406 -0.921875 L 11.304688 -0.921875 C 11.285156 -0.921875 11.253906 -0.914062 11.21875 -0.902344 C 11.140625 -0.875 11.070312 -0.832031 11.007812 -0.769531 C 10.945312 -0.707031 10.898438 -0.632812 10.875 -0.554688 C 10.863281 -0.519531 10.855469 -0.492188 10.855469 -0.472656 L 10.855469 -3.414062 C 10.855469 -3.394531 10.863281 -3.367188 10.875 -3.332031 C 10.898438 -3.25 10.945312 -3.179688 11.007812 -3.117188 C 11.070312 -3.054688 11.140625 -3.011719 11.21875 -2.984375 C 11.253906 -2.972656 11.285156 -2.964844 11.304688 -2.964844 L 4.554688 -2.964844 Z M 6.394531 -3.886719 L 5.476562 -3.886719 L 5.476562 -4.804688 L 11.304688 -4.804688 C 11.714844 -4.804688 12.050781 -4.675781 12.308594 -4.417969 C 12.566406 -4.160156 12.695312 -3.824219 12.695312 -3.414062 L 12.695312 -0.472656 C 12.695312 -0.0585938 12.566406 0.273438 12.308594 0.53125 C 12.050781 0.789062 11.714844 0.921875 11.304688 0.921875 L 1.941406 0.921875 C 1.53125 0.921875 1.199219 0.789062 0.9375 0.53125 C 0.679688 0.273438 0.550781 -0.0585938 0.550781 -0.472656 L 0.550781 -20.136719 C 0.550781 -20.546875 0.679688 -20.882812 0.9375 -21.140625 C 1.199219 -21.398438 1.53125 -21.527344 1.941406 -21.527344 L 5.003906 -21.527344 C 5.414062 -21.527344 5.75 -21.398438 6.007812 -21.140625 C 6.265625 -20.882812 6.394531 -20.546875 6.394531 -20.136719 Z M 6.394531 -3.886719 "/></g></g><g style="fill:#b21a22;fill-opacity:1;"><g transform="translate(25.187636, 56.209705)"><path style="stroke:none" d="M 0.550781 -4.238281 L 0.550781 -16.367188 C 0.550781 -18.019531 1.007812 -19.292969 1.914062 -20.1875 C 2.820312 -21.082031 4.085938 -21.527344 5.710938 -21.527344 L 9.007812 -21.527344 C 10.65625 -21.527344 11.929688 -21.082031 12.824219 -20.183594 C 13.71875 -19.289062 14.167969 -18.015625 14.167969 -16.367188 L 14.167969 -4.238281 C 14.167969 -2.613281 13.722656 -1.347656 12.828125 -0.441406 C 11.933594 0.464844 10.660156 0.921875 9.007812 0.921875 L 5.710938 0.921875 C 4.082031 0.921875 2.816406 0.46875 1.910156 -0.4375 C 1.003906 -1.34375 0.550781 -2.613281 0.550781 -4.238281 Z M 2.390625 -4.238281 C 2.390625 -3.121094 2.664062 -2.285156 3.210938 -1.738281 C 3.757812 -1.191406 4.589844 -0.921875 5.710938 -0.921875 L 9.007812 -0.921875 C 10.144531 -0.921875 10.980469 -1.191406 11.519531 -1.734375 C 12.058594 -2.28125 12.328125 -3.117188 12.328125 -4.238281 L 12.328125 -16.367188 C 12.328125 -17.507812 12.058594 -18.347656 11.523438 -18.882812 C 10.984375 -19.417969 10.148438 -19.6875 9.007812 -19.6875 L 5.710938 -19.6875 C 4.589844 -19.6875 3.753906 -19.417969 3.207031 -18.878906 C 2.664062 -18.34375 2.390625 -17.503906 2.390625 -16.367188 Z M 6.476562 -4.71875 L 8.359375 -4.71875 C 8.457031 -4.71875 8.53125 -4.726562 8.585938 -4.746094 C 8.59375 -4.746094 8.601562 -4.75 8.605469 -4.753906 C 8.601562 -4.75 8.597656 -4.746094 8.59375 -4.742188 C 8.589844 -4.738281 8.585938 -4.734375 8.585938 -4.730469 C 8.585938 -4.734375 8.589844 -4.742188 8.59375 -4.75 C 8.609375 -4.804688 8.617188 -4.878906 8.617188 -4.976562 L 8.617188 -15.632812 C 8.617188 -15.730469 8.609375 -15.804688 8.59375 -15.855469 C 8.589844 -15.867188 8.585938 -15.875 8.585938 -15.878906 C 8.585938 -15.875 8.589844 -15.871094 8.59375 -15.867188 C 8.597656 -15.859375 8.601562 -15.859375 8.605469 -15.855469 C 8.601562 -15.859375 8.59375 -15.859375 8.585938 -15.863281 C 8.53125 -15.882812 8.457031 -15.890625 8.359375 -15.890625 L 6.476562 -15.890625 C 6.378906 -15.890625 6.304688 -15.882812 6.253906 -15.863281 C 6.242188 -15.859375 6.234375 -15.859375 6.234375 -15.855469 C 6.234375 -15.859375 6.238281 -15.859375 6.246094 -15.867188 C 6.25 -15.871094 6.25 -15.875 6.253906 -15.878906 C 6.25 -15.875 6.25 -15.867188 6.246094 -15.855469 C 6.226562 -15.804688 6.21875 -15.730469 6.21875 -15.632812 L 6.21875 -4.976562 C 6.21875 -4.878906 6.226562 -4.804688 6.246094 -4.75 C 6.25 -4.742188 6.25 -4.734375 6.253906 -4.730469 C 6.25 -4.734375 6.25 -4.738281 6.246094 -4.742188 C 6.238281 -4.746094 6.234375 -4.75 6.234375 -4.753906 C 6.234375 -4.75 6.242188 -4.746094 6.253906 -4.746094 C 6.304688 -4.726562 6.378906 -4.71875 6.476562 -4.71875 Z M 6.476562 -2.878906 C 5.832031 -2.878906 5.320312 -3.066406 4.941406 -3.441406 C 4.566406 -3.816406 4.378906 -4.328125 4.378906 -4.976562 L 4.378906 -15.632812 C 4.378906 -16.28125 4.566406 -16.789062 4.941406 -17.167969 C 5.320312 -17.542969 5.832031 -17.730469 6.476562 -17.730469 L 8.359375 -17.730469 C 9.007812 -17.730469 9.519531 -17.542969 9.894531 -17.167969 C 10.269531 -16.789062 10.457031 -16.28125 10.457031 -15.632812 L 10.457031 -4.976562 C 10.457031 -4.328125 10.269531 -3.816406 9.894531 -3.441406 C 9.519531 -3.066406 9.007812 -2.878906 8.359375 -2.878906 Z M 6.476562 -2.878906 "/></g></g><g style="fill:#b21a22;fill-opacity:1;"><g transform="translate(39.903076, 56.209705)"><path style="stroke:none" d="M 0.550781 -4.238281 L 0.550781 -16.367188 C 0.550781 -18.019531 1.007812 -19.292969 1.914062 -20.1875 C 2.820312 -21.082031 4.085938 -21.527344 5.710938 -21.527344 L 9.007812 -21.527344 C 10.632812 -21.527344 11.898438 -21.082031 12.804688 -20.1875 C 13.714844 -19.292969 14.167969 -18.019531 14.167969 -16.367188 L 14.167969 -14.191406 C 14.167969 -13.777344 14.039062 -13.445312 13.78125 -13.1875 C 13.523438 -12.929688 13.1875 -12.800781 12.777344 -12.800781 L 10.007812 -12.800781 C 9.597656 -12.800781 9.265625 -12.929688 9.003906 -13.1875 C 8.746094 -13.445312 8.617188 -13.777344 8.617188 -14.191406 L 8.617188 -15.632812 C 8.617188 -15.730469 8.609375 -15.804688 8.59375 -15.855469 C 8.589844 -15.867188 8.585938 -15.875 8.585938 -15.878906 C 8.585938 -15.875 8.589844 -15.871094 8.59375 -15.867188 C 8.597656 -15.859375 8.601562 -15.859375 8.605469 -15.855469 C 8.601562 -15.859375 8.59375 -15.859375 8.585938 -15.863281 C 8.53125 -15.882812 8.457031 -15.890625 8.359375 -15.890625 L 6.476562 -15.890625 C 6.378906 -15.890625 6.304688 -15.882812 6.253906 -15.863281 C 6.242188 -15.859375 6.234375 -15.859375 6.234375 -15.855469 C 6.234375 -15.859375 6.238281 -15.859375 6.246094 -15.867188 C 6.25 -15.871094 6.25 -15.875 6.253906 -15.878906 C 6.25 -15.875 6.25 -15.867188 6.246094 -15.855469 C 6.226562 -15.804688 6.21875 -15.730469 6.21875 -15.632812 L 6.21875 -4.976562 C 6.21875 -4.878906 6.226562 -4.804688 6.246094 -4.75 C 6.25 -4.742188 6.25 -4.734375 6.253906 -4.730469 C 6.25 -4.734375 6.25 -4.738281 6.246094 -4.742188 C 6.238281 -4.746094 6.234375 -4.75 6.234375 -4.753906 C 6.234375 -4.75 6.242188 -4.746094 6.253906 -4.746094 C 6.304688 -4.726562 6.378906 -4.71875 6.476562 -4.71875 L 8.359375 -4.71875 C 8.457031 -4.71875 8.53125 -4.726562 8.585938 -4.746094 C 8.59375 -4.746094 8.601562 -4.75 8.605469 -4.753906 C 8.601562 -4.75 8.597656 -4.746094 8.59375 -4.742188 C 8.589844 -4.738281 8.585938 -4.734375 8.585938 -4.730469 C 8.585938 -4.734375 8.589844 -4.742188 8.59375 -4.75 C 8.609375 -4.804688 8.617188 -4.878906 8.617188 -4.976562 L 8.617188 -7.535156 L 9.539062 -7.535156 L 9.539062 -6.617188 L 8.007812 -6.617188 C 7.597656 -6.617188 7.261719 -6.746094 7.003906 -7.003906 C 6.746094 -7.261719 6.617188 -7.597656 6.617188 -8.007812 L 6.617188 -10.953125 C 6.617188 -11.363281 6.746094 -11.699219 7.003906 -11.957031 C 7.261719 -12.214844 7.597656 -12.34375 8.007812 -12.34375 L 12.777344 -12.34375 C 13.1875 -12.34375 13.523438 -12.214844 13.78125 -11.957031 C 14.039062 -11.699219 14.167969 -11.363281 14.167969 -10.953125 L 14.167969 -4.238281 C 14.167969 -2.613281 13.714844 -1.34375 12.808594 -0.4375 C 11.902344 0.46875 10.636719 0.921875 9.007812 0.921875 L 5.710938 0.921875 C 4.082031 0.921875 2.816406 0.46875 1.910156 -0.4375 C 1.003906 -1.34375 0.550781 -2.613281 0.550781 -4.238281 Z M 2.390625 -4.238281 C 2.390625 -3.121094 2.664062 -2.285156 3.210938 -1.738281 C 3.757812 -1.191406 4.589844 -0.921875 5.710938 -0.921875 L 9.007812 -0.921875 C 10.128906 -0.921875 10.960938 -1.191406 11.507812 -1.738281 C 12.054688 -2.285156 12.328125 -3.121094 12.328125 -4.238281 L 12.328125 -10.953125 C 12.328125 -10.929688 12.332031 -10.902344 12.347656 -10.867188 C 12.371094 -10.789062 12.417969 -10.71875 12.480469 -10.65625 C 12.542969 -10.589844 12.613281 -10.546875 12.691406 -10.519531 C 12.726562 -10.507812 12.757812 -10.503906 12.777344 -10.503906 L 8.007812 -10.503906 C 8.027344 -10.503906 8.058594 -10.507812 8.09375 -10.519531 C 8.171875 -10.546875 8.242188 -10.589844 8.304688 -10.65625 C 8.367188 -10.71875 8.414062 -10.789062 8.4375 -10.867188 C 8.449219 -10.902344 8.457031 -10.929688 8.457031 -10.953125 L 8.457031 -8.007812 C 8.457031 -8.027344 8.449219 -8.058594 8.4375 -8.09375 C 8.414062 -8.171875 8.367188 -8.242188 8.304688 -8.304688 C 8.242188 -8.367188 8.171875 -8.414062 8.09375 -8.4375 C 8.058594 -8.449219 8.027344 -8.457031 8.007812 -8.457031 L 10.457031 -8.457031 L 10.457031 -4.976562 C 10.457031 -4.328125 10.269531 -3.816406 9.894531 -3.441406 C 9.519531 -3.066406 9.007812 -2.878906 8.359375 -2.878906 L 6.476562 -2.878906 C 5.832031 -2.878906 5.320312 -3.066406 4.941406 -3.441406 C 4.566406 -3.816406 4.378906 -4.328125 4.378906 -4.976562 L 4.378906 -15.632812 C 4.378906 -16.28125 4.566406 -16.789062 4.941406 -17.167969 C 5.320312 -17.542969 5.832031 -17.730469 6.476562 -17.730469 L 8.359375 -17.730469 C 9.007812 -17.730469 9.519531 -17.542969 9.894531 -17.167969 C 10.269531 -16.789062 10.457031 -16.28125 10.457031 -15.632812 L 10.457031 -14.191406 C 10.457031 -14.210938 10.453125 -14.238281 10.441406 -14.273438 C 10.414062 -14.355469 10.371094 -14.425781 10.308594 -14.488281 C 10.242188 -14.550781 10.171875 -14.59375 10.09375 -14.621094 C 10.058594 -14.632812 10.03125 -14.640625 10.007812 -14.640625 L 12.777344 -14.640625 C 12.757812 -14.640625 12.726562 -14.632812 12.691406 -14.621094 C 12.613281 -14.59375 12.542969 -14.550781 12.480469 -14.488281 C 12.417969 -14.425781 12.371094 -14.355469 12.347656 -14.273438 C 12.332031 -14.238281 12.328125 -14.210938 12.328125 -14.191406 L 12.328125 -16.367188 C 12.328125 -17.503906 12.054688 -18.34375 11.511719 -18.878906 C 10.964844 -19.417969 10.132812 -19.6875 9.007812 -19.6875 L 5.710938 -19.6875 C 4.589844 -19.6875 3.753906 -19.417969 3.207031 -18.878906 C 2.664062 -18.34375 2.390625 -17.503906 2.390625 -16.367188 Z M 2.390625 -4.238281 "/></g></g><g style="fill:#b21a22;fill-opacity:1;"><g transform="translate(54.618516, 56.209705)"><path style="stroke:none" d="M 0.550781 -4.238281 L 0.550781 -16.367188 C 0.550781 -18.019531 1.007812 -19.292969 1.914062 -20.1875 C 2.820312 -21.082031 4.085938 -21.527344 5.710938 -21.527344 L 9.007812 -21.527344 C 10.65625 -21.527344 11.929688 -21.082031 12.824219 -20.183594 C 13.71875 -19.289062 14.167969 -18.015625 14.167969 -16.367188 L 14.167969 -4.238281 C 14.167969 -2.613281 13.722656 -1.347656 12.828125 -0.441406 C 11.933594 0.464844 10.660156 0.921875 9.007812 0.921875 L 5.710938 0.921875 C 4.082031 0.921875 2.816406 0.46875 1.910156 -0.4375 C 1.003906 -1.34375 0.550781 -2.613281 0.550781 -4.238281 Z M 2.390625 -4.238281 C 2.390625 -3.121094 2.664062 -2.285156 3.210938 -1.738281 C 3.757812 -1.191406 4.589844 -0.921875 5.710938 -0.921875 L 9.007812 -0.921875 C 10.144531 -0.921875 10.980469 -1.191406 11.519531 -1.734375 C 12.058594 -2.28125 12.328125 -3.117188 12.328125 -4.238281 L 12.328125 -16.367188 C 12.328125 -17.507812 12.058594 -18.347656 11.523438 -18.882812 C 10.984375 -19.417969 10.148438 -19.6875 9.007812 -19.6875 L 5.710938 -19.6875 C 4.589844 -19.6875 3.753906 -19.417969 3.207031 -18.878906 C 2.664062 -18.34375 2.390625 -17.503906 2.390625 -16.367188 Z M 6.476562 -4.71875 L 8.359375 -4.71875 C 8.457031 -4.71875 8.53125 -4.726562 8.585938 -4.746094 C 8.59375 -4.746094 8.601562 -4.75 8.605469 -4.753906 C 8.601562 -4.75 8.597656 -4.746094 8.59375 -4.742188 C 8.589844 -4.738281 8.585938 -4.734375 8.585938 -4.730469 C 8.585938 -4.734375 8.589844 -4.742188 8.59375 -4.75 C 8.609375 -4.804688 8.617188 -4.878906 8.617188 -4.976562 L 8.617188 -15.632812 C 8.617188 -15.730469 8.609375 -15.804688 8.59375 -15.855469 C 8.589844 -15.867188 8.585938 -15.875 8.585938 -15.878906 C 8.585938 -15.875 8.589844 -15.871094 8.59375 -15.867188 C 8.597656 -15.859375 8.601562 -15.859375 8.605469 -15.855469 C 8.601562 -15.859375 8.59375 -15.859375 8.585938 -15.863281 C 8.53125 -15.882812 8.457031 -15.890625 8.359375 -15.890625 L 6.476562 -15.890625 C 6.378906 -15.890625 6.304688 -15.882812 6.253906 -15.863281 C 6.242188 -15.859375 6.234375 -15.859375 6.234375 -15.855469 C 6.234375 -15.859375 6.238281 -15.859375 6.246094 -15.867188 C 6.25 -15.871094 6.25 -15.875 6.253906 -15.878906 C 6.25 -15.875 6.25 -15.867188 6.246094 -15.855469 C 6.226562 -15.804688 6.21875 -15.730469 6.21875 -15.632812 L 6.21875 -4.976562 C 6.21875 -4.878906 6.226562 -4.804688 6.246094 -4.75 C 6.25 -4.742188 6.25 -4.734375 6.253906 -4.730469 C 6.25 -4.734375 6.25 -4.738281 6.246094 -4.742188 C 6.238281 -4.746094 6.234375 -4.75 6.234375 -4.753906 C 6.234375 -4.75 6.242188 -4.746094 6.253906 -4.746094 C 6.304688 -4.726562 6.378906 -4.71875 6.476562 -4.71875 Z M 6.476562 -2.878906 C 5.832031 -2.878906 5.320312 -3.066406 4.941406 -3.441406 C 4.566406 -3.816406 4.378906 -4.328125 4.378906 -4.976562 L 4.378906 -15.632812 C 4.378906 -16.28125 4.566406 -16.789062 4.941406 -17.167969 C 5.320312 -17.542969 5.832031 -17.730469 6.476562 -17.730469 L 8.359375 -17.730469 C 9.007812 -17.730469 9.519531 -17.542969 9.894531 -17.167969 C 10.269531 -16.789062 10.457031 -16.28125 10.457031 -15.632812 L 10.457031 -4.976562 C 10.457031 -4.328125 10.269531 -3.816406 9.894531 -3.441406 C 9.519531 -3.066406 9.007812 -2.878906 8.359375 -2.878906 Z M 6.476562 -2.878906 "/></g></g><g style="fill:#b21a22;fill-opacity:1;"><g transform="translate(69.333956, 56.209705)"><path style="stroke:none" d="M 5.710938 -21.527344 L 9.007812 -21.527344 C 10.65625 -21.527344 11.929688 -21.082031 12.824219 -20.183594 C 13.71875 -19.289062 14.167969 -18.015625 14.167969 -16.367188 L 14.167969 -14.425781 C 14.167969 -14.015625 14.039062 -13.679688 13.78125 -13.421875 C 13.523438 -13.164062 13.1875 -13.035156 12.777344 -13.035156 L 9.804688 -13.035156 C 9.390625 -13.035156 9.058594 -13.164062 8.800781 -13.421875 C 8.542969 -13.679688 8.414062 -14.015625 8.414062 -14.425781 L 8.414062 -15.664062 C 8.414062 -15.757812 8.402344 -15.832031 8.386719 -15.886719 C 8.382812 -15.894531 8.378906 -15.902344 8.378906 -15.90625 C 8.378906 -15.902344 8.382812 -15.898438 8.386719 -15.894531 C 8.390625 -15.890625 8.394531 -15.886719 8.398438 -15.886719 C 8.394531 -15.886719 8.390625 -15.890625 8.378906 -15.894531 C 8.328125 -15.910156 8.25 -15.917969 8.15625 -15.917969 L 6.535156 -15.917969 C 6.4375 -15.917969 6.363281 -15.910156 6.3125 -15.894531 C 6.300781 -15.890625 6.296875 -15.886719 6.292969 -15.886719 C 6.292969 -15.886719 6.296875 -15.890625 6.304688 -15.894531 C 6.308594 -15.898438 6.3125 -15.902344 6.3125 -15.90625 C 6.308594 -15.902344 6.308594 -15.894531 6.304688 -15.886719 C 6.285156 -15.832031 6.277344 -15.757812 6.277344 -15.664062 L 6.277344 -13.160156 L 5.359375 -13.160156 L 5.640625 -14.035156 L 12.765625 -11.738281 C 13.21875 -11.582031 13.566406 -11.332031 13.808594 -10.988281 C 14.046875 -10.648438 14.167969 -10.242188 14.167969 -9.773438 L 14.167969 -4.238281 C 14.167969 -2.613281 13.722656 -1.347656 12.828125 -0.441406 C 11.933594 0.464844 10.660156 0.921875 9.007812 0.921875 L 5.710938 0.921875 C 4.082031 0.921875 2.816406 0.46875 1.910156 -0.4375 C 1.003906 -1.34375 0.550781 -2.613281 0.550781 -4.238281 L 0.550781 -6.152344 C 0.550781 -6.5625 0.679688 -6.898438 0.9375 -7.15625 C 1.199219 -7.414062 1.53125 -7.542969 1.941406 -7.542969 L 4.917969 -7.542969 C 5.328125 -7.542969 5.664062 -7.414062 5.921875 -7.15625 C 6.179688 -6.898438 6.308594 -6.5625 6.308594 -6.152344 L 6.308594 -4.917969 C 6.308594 -4.820312 6.316406 -4.746094 6.335938 -4.691406 C 6.335938 -4.683594 6.339844 -4.675781 6.34375 -4.671875 C 6.339844 -4.675781 6.335938 -4.679688 6.332031 -4.683594 C 6.328125 -4.6875 6.324219 -4.691406 6.320312 -4.695312 C 6.324219 -4.691406 6.332031 -4.6875 6.339844 -4.683594 C 6.394531 -4.667969 6.46875 -4.660156 6.566406 -4.660156 L 8.15625 -4.660156 C 8.25 -4.660156 8.328125 -4.667969 8.378906 -4.683594 C 8.390625 -4.6875 8.394531 -4.691406 8.398438 -4.695312 C 8.394531 -4.691406 8.390625 -4.6875 8.386719 -4.683594 C 8.382812 -4.679688 8.378906 -4.675781 8.378906 -4.671875 C 8.378906 -4.675781 8.382812 -4.683594 8.386719 -4.691406 C 8.402344 -4.746094 8.414062 -4.820312 8.414062 -4.917969 L 8.414062 -7.890625 L 9.332031 -7.890625 L 9.046875 -7.015625 L 1.984375 -9.3125 C 1.527344 -9.464844 1.175781 -9.707031 0.925781 -10.046875 C 0.675781 -10.390625 0.550781 -10.800781 0.550781 -11.277344 L 0.550781 -16.367188 C 0.550781 -18.019531 1.007812 -19.292969 1.914062 -20.1875 C 2.820312 -21.082031 4.085938 -21.527344 5.710938 -21.527344 Z M 5.710938 -19.6875 C 4.589844 -19.6875 3.753906 -19.417969 3.207031 -18.878906 C 2.664062 -18.34375 2.390625 -17.503906 2.390625 -16.367188 L 2.390625 -11.277344 C 2.390625 -11.199219 2.398438 -11.152344 2.414062 -11.132812 C 2.429688 -11.109375 2.476562 -11.085938 2.550781 -11.0625 L 10.253906 -8.558594 L 10.253906 -4.917969 C 10.253906 -4.269531 10.066406 -3.757812 9.6875 -3.382812 C 9.3125 -3.007812 8.800781 -2.820312 8.15625 -2.820312 L 6.566406 -2.820312 C 5.917969 -2.820312 5.40625 -3.007812 5.03125 -3.382812 C 4.65625 -3.757812 4.46875 -4.269531 4.46875 -4.917969 L 4.46875 -6.152344 C 4.46875 -6.132812 4.472656 -6.105469 4.484375 -6.066406 C 4.511719 -5.988281 4.554688 -5.917969 4.621094 -5.855469 C 4.683594 -5.792969 4.753906 -5.746094 4.832031 -5.722656 C 4.867188 -5.710938 4.894531 -5.703125 4.917969 -5.703125 L 1.941406 -5.703125 C 1.964844 -5.703125 1.992188 -5.710938 2.027344 -5.722656 C 2.105469 -5.746094 2.175781 -5.792969 2.242188 -5.855469 C 2.304688 -5.917969 2.347656 -5.988281 2.375 -6.066406 C 2.386719 -6.105469 2.390625 -6.132812 2.390625 -6.152344 L 2.390625 -4.238281 C 2.390625 -3.121094 2.664062 -2.285156 3.210938 -1.738281 C 3.757812 -1.191406 4.589844 -0.921875 5.710938 -0.921875 L 9.007812 -0.921875 C 10.144531 -0.921875 10.980469 -1.191406 11.519531 -1.734375 C 12.058594 -2.28125 12.328125 -3.117188 12.328125 -4.238281 L 12.328125 -9.773438 C 12.328125 -9.855469 12.320312 -9.90625 12.304688 -9.929688 C 12.289062 -9.949219 12.253906 -9.96875 12.199219 -9.988281 L 4.4375 -12.488281 L 4.4375 -15.664062 C 4.4375 -16.308594 4.625 -16.820312 5 -17.195312 C 5.378906 -17.570312 5.890625 -17.761719 6.535156 -17.761719 L 8.15625 -17.761719 C 8.800781 -17.761719 9.3125 -17.570312 9.6875 -17.195312 C 10.066406 -16.820312 10.253906 -16.308594 10.253906 -15.664062 L 10.253906 -14.425781 C 10.253906 -14.445312 10.246094 -14.476562 10.234375 -14.511719 C 10.207031 -14.589844 10.164062 -14.660156 10.101562 -14.722656 C 10.039062 -14.785156 9.96875 -14.832031 9.886719 -14.855469 C 9.851562 -14.867188 9.824219 -14.875 9.804688 -14.875 L 12.777344 -14.875 C 12.757812 -14.875 12.726562 -14.867188 12.691406 -14.855469 C 12.613281 -14.832031 12.542969 -14.785156 12.480469 -14.722656 C 12.417969 -14.660156 12.371094 -14.589844 12.347656 -14.511719 C 12.332031 -14.476562 12.328125 -14.445312 12.328125 -14.425781 L 12.328125 -16.367188 C 12.328125 -17.507812 12.058594 -18.347656 11.523438 -18.882812 C 10.984375 -19.417969 10.148438 -19.6875 9.007812 -19.6875 Z M 5.710938 -19.6875 "/></g></g><g style="fill:#060705;fill-opacity:1;"><g transform="translate(11.943741, 56.209705)"><path style="stroke:none" d="M 5.46875 -3.890625 L 5.46875 -20.140625 C 5.46875 -20.453125 5.3125 -20.609375 5 -20.609375 L 1.9375 -20.609375 C 1.625 -20.609375 1.46875 -20.453125 1.46875 -20.140625 L 1.46875 -0.46875 C 1.46875 -0.15625 1.625 0 1.9375 0 L 11.296875 0 C 11.617188 0 11.78125 -0.15625 11.78125 -0.46875 L 11.78125 -3.421875 C 11.78125 -3.734375 11.617188 -3.890625 11.296875 -3.890625 Z M 5.46875 -3.890625 "/></g></g><g style="fill:#060705;fill-opacity:1;"><g transform="translate(25.187636, 56.209705)"><path style="stroke:none" d="M 1.46875 -4.234375 L 1.46875 -16.375 C 1.46875 -17.757812 1.832031 -18.8125 2.5625 -19.53125 C 3.289062 -20.25 4.335938 -20.609375 5.703125 -20.609375 L 9.015625 -20.609375 C 10.398438 -20.609375 11.453125 -20.25 12.171875 -19.53125 C 12.890625 -18.8125 13.25 -17.757812 13.25 -16.375 L 13.25 -4.234375 C 13.25 -2.859375 12.890625 -1.804688 12.171875 -1.078125 C 11.453125 -0.359375 10.398438 0 9.015625 0 L 5.703125 0 C 4.335938 0 3.289062 -0.359375 2.5625 -1.078125 C 1.832031 -1.804688 1.46875 -2.859375 1.46875 -4.234375 Z M 6.46875 -3.796875 L 8.359375 -3.796875 C 9.140625 -3.796875 9.53125 -4.1875 9.53125 -4.96875 L 9.53125 -15.625 C 9.53125 -16.414062 9.140625 -16.8125 8.359375 -16.8125 L 6.46875 -16.8125 C 5.6875 -16.8125 5.296875 -16.414062 5.296875 -15.625 L 5.296875 -4.96875 C 5.296875 -4.1875 5.6875 -3.796875 6.46875 -3.796875 Z M 6.46875 -3.796875 "/></g></g><g style="fill:#060705;fill-opacity:1;"><g transform="translate(39.903076, 56.209705)"><path style="stroke:none" d="M 1.46875 -4.234375 L 1.46875 -16.375 C 1.46875 -17.757812 1.832031 -18.8125 2.5625 -19.53125 C 3.289062 -20.25 4.335938 -20.609375 5.703125 -20.609375 L 9.015625 -20.609375 C 10.378906 -20.609375 11.425781 -20.25 12.15625 -19.53125 C 12.882812 -18.8125 13.25 -17.757812 13.25 -16.375 L 13.25 -14.1875 C 13.25 -13.875 13.09375 -13.71875 12.78125 -13.71875 L 10.015625 -13.71875 C 9.691406 -13.71875 9.53125 -13.875 9.53125 -14.1875 L 9.53125 -15.625 C 9.53125 -16.414062 9.140625 -16.8125 8.359375 -16.8125 L 6.46875 -16.8125 C 5.6875 -16.8125 5.296875 -16.414062 5.296875 -15.625 L 5.296875 -4.96875 C 5.296875 -4.1875 5.6875 -3.796875 6.46875 -3.796875 L 8.359375 -3.796875 C 9.140625 -3.796875 9.53125 -4.1875 9.53125 -4.96875 L 9.53125 -7.53125 L 8 -7.53125 C 7.6875 -7.53125 7.53125 -7.6875 7.53125 -8 L 7.53125 -10.953125 C 7.53125 -11.265625 7.6875 -11.421875 8 -11.421875 L 12.78125 -11.421875 C 13.09375 -11.421875 13.25 -11.265625 13.25 -10.953125 L 13.25 -4.234375 C 13.25 -2.859375 12.882812 -1.804688 12.15625 -1.078125 C 11.425781 -0.359375 10.378906 0 9.015625 0 L 5.703125 0 C 4.335938 0 3.289062 -0.359375 2.5625 -1.078125 C 1.832031 -1.804688 1.46875 -2.859375 1.46875 -4.234375 Z M 1.46875 -4.234375 "/></g></g><g style="fill:#060705;fill-opacity:1;"><g transform="translate(54.618516, 56.209705)"><path style="stroke:none" d="M 1.46875 -4.234375 L 1.46875 -16.375 C 1.46875 -17.757812 1.832031 -18.8125 2.5625 -19.53125 C 3.289062 -20.25 4.335938 -20.609375 5.703125 -20.609375 L 9.015625 -20.609375 C 10.398438 -20.609375 11.453125 -20.25 12.171875 -19.53125 C 12.890625 -18.8125 13.25 -17.757812 13.25 -16.375 L 13.25 -4.234375 C 13.25 -2.859375 12.890625 -1.804688 12.171875 -1.078125 C 11.453125 -0.359375 10.398438 0 9.015625 0 L 5.703125 0 C 4.335938 0 3.289062 -0.359375 2.5625 -1.078125 C 1.832031 -1.804688 1.46875 -2.859375 1.46875 -4.234375 Z M 6.46875 -3.796875 L 8.359375 -3.796875 C 9.140625 -3.796875 9.53125 -4.1875 9.53125 -4.96875 L 9.53125 -15.625 C 9.53125 -16.414062 9.140625 -16.8125 8.359375 -16.8125 L 6.46875 -16.8125 C 5.6875 -16.8125 5.296875 -16.414062 5.296875 -15.625 L 5.296875 -4.96875 C 5.296875 -4.1875 5.6875 -3.796875 6.46875 -3.796875 Z M 6.46875 -3.796875 "/></g></g><g style="fill:#060705;fill-opacity:1;"><g transform="translate(69.333956, 56.209705)"><path style="stroke:none" d="M 5.703125 -20.609375 L 9.015625 -20.609375 C 10.398438 -20.609375 11.453125 -20.25 12.171875 -19.53125 C 12.890625 -18.8125 13.25 -17.757812 13.25 -16.375 L 13.25 -14.421875 C 13.25 -14.109375 13.09375 -13.953125 12.78125 -13.953125 L 9.796875 -13.953125 C 9.484375 -13.953125 9.328125 -14.109375 9.328125 -14.421875 L 9.328125 -15.65625 C 9.328125 -16.445312 8.9375 -16.84375 8.15625 -16.84375 L 6.53125 -16.84375 C 5.75 -16.84375 5.359375 -16.445312 5.359375 -15.65625 L 5.359375 -13.15625 L 12.484375 -10.859375 C 12.992188 -10.679688 13.25 -10.316406 13.25 -9.765625 L 13.25 -4.234375 C 13.25 -2.859375 12.890625 -1.804688 12.171875 -1.078125 C 11.453125 -0.359375 10.398438 0 9.015625 0 L 5.703125 0 C 4.335938 0 3.289062 -0.359375 2.5625 -1.078125 C 1.832031 -1.804688 1.46875 -2.859375 1.46875 -4.234375 L 1.46875 -6.15625 C 1.46875 -6.46875 1.625 -6.625 1.9375 -6.625 L 4.921875 -6.625 C 5.234375 -6.625 5.390625 -6.46875 5.390625 -6.15625 L 5.390625 -4.921875 C 5.390625 -4.128906 5.78125 -3.734375 6.5625 -3.734375 L 8.15625 -3.734375 C 8.9375 -3.734375 9.328125 -4.128906 9.328125 -4.921875 L 9.328125 -7.890625 L 2.265625 -10.1875 C 1.734375 -10.363281 1.46875 -10.726562 1.46875 -11.28125 L 1.46875 -16.375 C 1.46875 -17.757812 1.832031 -18.8125 2.5625 -19.53125 C 3.289062 -20.25 4.335938 -20.609375 5.703125 -20.609375 Z M 5.703125 -20.609375 "/></g></g></g></svg>