<svg xmlns="http://www.w3.org/2000/svg" xmlns:xlink="http://www.w3.org/1999/xlink" width="192" zoomAndPan="magnify" viewBox="0 0 144 143.999998" height="192" preserveAspectRatio="xMidYMid meet" version="1.2"><defs><clipPath id="0062dd334e"><path d="M 9 0 L 135 0 L 135 144 L 9 144 Z M 9 0 "/></clipPath><clipPath id="57ca9e1940"><path d="M -21.457031 54.867188 L 103.039062 -17.847656 L 165.503906 89.105469 L 41.007812 161.816406 Z M -21.457031 54.867188 "/></clipPath><clipPath id="601700dce6"><path d="M 134.226562 35.65625 L 134.347656 107.300781 L 72.121094 143.644531 L 9.773438 108.34375 L 9.65625 36.695312 L 71.878906 0.351562 Z M 134.226562 35.65625 "/></clipPath><clipPath id="4b105bd403"><path d="M 21.210938 13.683594 L 122.773438 13.683594 L 122.773438 130.261719 L 21.210938 130.261719 Z M 21.210938 13.683594 "/></clipPath></defs><g id="37ea62a115"><g clip-rule="nonzero" clip-path="url(#0062dd334e)"><g clip-rule="nonzero" clip-path="url(#57ca9e1940)"><g clip-rule="nonzero" clip-path="url(#601700dce6)"><path style=" stroke:none;fill-rule:nonzero;fill:#65b30e;fill-opacity:1;" d="M -21.457031 54.867188 L 103.039062 -17.847656 L 165.503906 89.105469 L 41.007812 161.816406 Z M -21.457031 54.867188 "/></g></g></g><path style=" stroke:none;fill-rule:nonzero;fill:#87ff00;fill-opacity:1;" d="M 51.679688 52.109375 L 51.613281 52.046875 L 37.261719 66.398438 L 72.113281 101.183594 L 86.46875 86.898438 L 106.960938 66.398438 L 92.609375 52.046875 L 92.609375 51.980469 L 51.617188 51.980469 Z M 51.679688 52.109375 "/><g clip-rule="nonzero" clip-path="url(#4b105bd403)"><path style=" stroke:none;fill-rule:nonzero;fill:#87ff00;fill-opacity:1;" d="M 71.980469 13.765625 L 21.222656 42.863281 L 21.226562 101.058594 L 71.984375 130.15625 L 122.742188 101.058594 L 122.742188 42.863281 L 71.984375 13.769531 Z M 113.039062 95.496094 L 71.980469 119.160156 L 30.921875 95.496094 L 30.925781 48.292969 L 71.984375 24.628906 L 113.042969 48.292969 L 113.042969 95.492188 Z M 113.039062 95.496094 "/></g><g style="fill:#b21a22;fill-opacity:1;"><g transform="translate(17.915613, 84.314556)"><path style="stroke:none" d="M 6.832031 -5.828125 L 6.832031 -30.207031 C 6.832031 -30.175781 6.84375 -30.132812 6.859375 -30.078125 C 6.898438 -29.960938 6.964844 -29.855469 7.0625 -29.757812 C 7.15625 -29.664062 7.261719 -29.597656 7.378906 -29.558594 C 7.433594 -29.539062 7.476562 -29.53125 7.507812 -29.53125 L 2.914062 -29.53125 C 2.945312 -29.53125 2.988281 -29.539062 3.042969 -29.558594 C 3.160156 -29.597656 3.265625 -29.664062 3.359375 -29.757812 C 3.457031 -29.855469 3.523438 -29.960938 3.5625 -30.078125 C 3.578125 -30.132812 3.589844 -30.175781 3.589844 -30.207031 L 3.589844 -0.707031 C 3.589844 -0.738281 3.578125 -0.78125 3.5625 -0.832031 C 3.523438 -0.953125 3.457031 -1.058594 3.359375 -1.152344 C 3.265625 -1.246094 3.160156 -1.3125 3.042969 -1.351562 C 2.988281 -1.371094 2.945312 -1.378906 2.914062 -1.378906 L 16.957031 -1.378906 C 16.925781 -1.378906 16.882812 -1.371094 16.832031 -1.351562 C 16.710938 -1.3125 16.605469 -1.246094 16.511719 -1.152344 C 16.417969 -1.058594 16.351562 -0.953125 16.3125 -0.832031 C 16.292969 -0.78125 16.285156 -0.738281 16.285156 -0.707031 L 16.285156 -5.121094 C 16.285156 -5.089844 16.292969 -5.046875 16.3125 -4.996094 C 16.351562 -4.878906 16.417969 -4.769531 16.511719 -4.675781 C 16.605469 -4.582031 16.710938 -4.515625 16.832031 -4.476562 C 16.882812 -4.457031 16.925781 -4.449219 16.957031 -4.449219 L 6.832031 -4.449219 Z M 9.59375 -5.828125 L 8.214844 -5.828125 L 8.214844 -7.210938 L 16.957031 -7.210938 C 17.574219 -7.210938 18.074219 -7.015625 18.464844 -6.628906 C 18.851562 -6.242188 19.042969 -5.738281 19.042969 -5.121094 L 19.042969 -0.707031 C 19.042969 -0.0898438 18.851562 0.410156 18.464844 0.800781 C 18.074219 1.1875 17.574219 1.378906 16.957031 1.378906 L 2.914062 1.378906 C 2.296875 1.378906 1.796875 1.1875 1.410156 0.800781 C 1.023438 0.410156 0.828125 -0.0898438 0.828125 -0.707031 L 0.828125 -30.207031 C 0.828125 -30.820312 1.023438 -31.324219 1.410156 -31.710938 C 1.796875 -32.097656 2.296875 -32.292969 2.914062 -32.292969 L 7.507812 -32.292969 C 8.125 -32.292969 8.625 -32.097656 9.011719 -31.710938 C 9.398438 -31.324219 9.59375 -30.820312 9.59375 -30.207031 Z M 9.59375 -5.828125 "/></g></g><g style="fill:#b21a22;fill-opacity:1;"><g transform="translate(37.781456, 84.314556)"><path style="stroke:none" d="M 0.828125 -6.359375 L 0.828125 -24.554688 C 0.828125 -27.027344 1.507812 -28.9375 2.871094 -30.28125 C 4.230469 -31.621094 6.128906 -32.292969 8.566406 -32.292969 L 13.511719 -32.292969 C 15.984375 -32.292969 17.890625 -31.621094 19.234375 -30.277344 C 20.582031 -28.933594 21.253906 -27.023438 21.253906 -24.554688 L 21.253906 -6.359375 C 21.253906 -3.921875 20.582031 -2.023438 19.242188 -0.664062 C 17.898438 0.699219 15.988281 1.378906 13.511719 1.378906 L 8.566406 1.378906 C 6.125 1.378906 4.226562 0.699219 2.867188 -0.65625 C 1.507812 -2.015625 0.828125 -3.917969 0.828125 -6.359375 Z M 3.589844 -6.359375 C 3.589844 -4.679688 3.996094 -3.429688 4.816406 -2.609375 C 5.636719 -1.789062 6.886719 -1.378906 8.566406 -1.378906 L 13.511719 -1.378906 C 15.21875 -1.378906 16.472656 -1.789062 17.277344 -2.601562 C 18.085938 -3.421875 18.492188 -4.675781 18.492188 -6.359375 L 18.492188 -24.554688 C 18.492188 -26.261719 18.089844 -27.519531 17.285156 -28.324219 C 16.480469 -29.128906 15.222656 -29.53125 13.511719 -29.53125 L 8.566406 -29.53125 C 6.882812 -29.53125 5.632812 -29.128906 4.8125 -28.316406 C 3.996094 -27.511719 3.589844 -26.257812 3.589844 -24.554688 Z M 9.714844 -7.078125 L 12.542969 -7.078125 C 12.6875 -7.078125 12.796875 -7.089844 12.878906 -7.117188 C 12.890625 -7.121094 12.902344 -7.125 12.90625 -7.128906 C 12.902344 -7.125 12.898438 -7.121094 12.890625 -7.113281 C 12.882812 -7.109375 12.878906 -7.101562 12.875 -7.097656 C 12.878906 -7.101562 12.882812 -7.113281 12.886719 -7.125 C 12.914062 -7.207031 12.929688 -7.316406 12.929688 -7.464844 L 12.929688 -23.449219 C 12.929688 -23.59375 12.914062 -23.707031 12.886719 -23.785156 C 12.882812 -23.800781 12.878906 -23.808594 12.875 -23.816406 C 12.878906 -23.808594 12.882812 -23.804688 12.890625 -23.796875 C 12.898438 -23.792969 12.902344 -23.785156 12.90625 -23.785156 C 12.902344 -23.785156 12.890625 -23.789062 12.878906 -23.796875 C 12.796875 -23.820312 12.6875 -23.835938 12.542969 -23.835938 L 9.714844 -23.835938 C 9.570312 -23.835938 9.457031 -23.820312 9.378906 -23.796875 C 9.363281 -23.789062 9.355469 -23.785156 9.347656 -23.785156 C 9.355469 -23.785156 9.359375 -23.792969 9.367188 -23.796875 C 9.371094 -23.804688 9.378906 -23.808594 9.378906 -23.816406 C 9.378906 -23.808594 9.375 -23.800781 9.367188 -23.785156 C 9.34375 -23.707031 9.328125 -23.59375 9.328125 -23.449219 L 9.328125 -7.464844 C 9.328125 -7.316406 9.34375 -7.207031 9.367188 -7.125 C 9.375 -7.113281 9.378906 -7.101562 9.378906 -7.097656 C 9.378906 -7.101562 9.371094 -7.109375 9.367188 -7.113281 C 9.359375 -7.121094 9.355469 -7.125 9.347656 -7.128906 C 9.355469 -7.125 9.363281 -7.121094 9.378906 -7.117188 C 9.457031 -7.089844 9.570312 -7.078125 9.714844 -7.078125 Z M 9.714844 -4.316406 C 8.746094 -4.316406 7.976562 -4.597656 7.414062 -5.164062 C 6.851562 -5.726562 6.570312 -6.492188 6.570312 -7.464844 L 6.570312 -23.449219 C 6.570312 -24.417969 6.851562 -25.1875 7.414062 -25.75 C 7.976562 -26.3125 8.746094 -26.59375 9.714844 -26.59375 L 12.542969 -26.59375 C 13.511719 -26.59375 14.277344 -26.3125 14.84375 -25.75 C 15.40625 -25.1875 15.6875 -24.417969 15.6875 -23.449219 L 15.6875 -7.464844 C 15.6875 -6.492188 15.40625 -5.726562 14.84375 -5.164062 C 14.277344 -4.597656 13.511719 -4.316406 12.542969 -4.316406 Z M 9.714844 -4.316406 "/></g></g><g style="fill:#b21a22;fill-opacity:1;"><g transform="translate(59.854617, 84.314556)"><path style="stroke:none" d="M 0.828125 -6.359375 L 0.828125 -24.554688 C 0.828125 -27.027344 1.507812 -28.9375 2.871094 -30.28125 C 4.230469 -31.621094 6.128906 -32.292969 8.566406 -32.292969 L 13.511719 -32.292969 C 15.953125 -32.292969 17.847656 -31.621094 19.207031 -30.28125 C 20.570312 -28.9375 21.253906 -27.027344 21.253906 -24.554688 L 21.253906 -21.285156 C 21.253906 -20.667969 21.058594 -20.167969 20.671875 -19.78125 C 20.285156 -19.390625 19.78125 -19.199219 19.164062 -19.199219 L 15.015625 -19.199219 C 14.398438 -19.199219 13.894531 -19.390625 13.507812 -19.78125 C 13.121094 -20.167969 12.929688 -20.667969 12.929688 -21.285156 L 12.929688 -23.449219 C 12.929688 -23.59375 12.914062 -23.707031 12.886719 -23.785156 C 12.882812 -23.800781 12.878906 -23.808594 12.875 -23.816406 C 12.878906 -23.808594 12.882812 -23.804688 12.890625 -23.796875 C 12.898438 -23.792969 12.902344 -23.785156 12.90625 -23.785156 C 12.902344 -23.785156 12.890625 -23.789062 12.878906 -23.796875 C 12.796875 -23.820312 12.6875 -23.835938 12.542969 -23.835938 L 9.714844 -23.835938 C 9.570312 -23.835938 9.457031 -23.820312 9.378906 -23.796875 C 9.363281 -23.789062 9.355469 -23.785156 9.347656 -23.785156 C 9.355469 -23.785156 9.359375 -23.792969 9.367188 -23.796875 C 9.371094 -23.804688 9.378906 -23.808594 9.378906 -23.816406 C 9.378906 -23.808594 9.375 -23.800781 9.367188 -23.785156 C 9.34375 -23.707031 9.328125 -23.59375 9.328125 -23.449219 L 9.328125 -7.464844 C 9.328125 -7.316406 9.34375 -7.207031 9.367188 -7.125 C 9.375 -7.113281 9.378906 -7.101562 9.378906 -7.097656 C 9.378906 -7.101562 9.371094 -7.109375 9.367188 -7.113281 C 9.359375 -7.121094 9.355469 -7.125 9.347656 -7.128906 C 9.355469 -7.125 9.363281 -7.121094 9.378906 -7.117188 C 9.457031 -7.089844 9.570312 -7.078125 9.714844 -7.078125 L 12.542969 -7.078125 C 12.6875 -7.078125 12.796875 -7.089844 12.878906 -7.117188 C 12.890625 -7.121094 12.902344 -7.125 12.90625 -7.128906 C 12.902344 -7.125 12.898438 -7.121094 12.890625 -7.113281 C 12.882812 -7.109375 12.878906 -7.101562 12.875 -7.097656 C 12.878906 -7.101562 12.882812 -7.113281 12.886719 -7.125 C 12.914062 -7.207031 12.929688 -7.316406 12.929688 -7.464844 L 12.929688 -11.304688 L 14.308594 -11.304688 L 14.308594 -9.925781 L 12.011719 -9.925781 C 11.394531 -9.925781 10.894531 -10.117188 10.503906 -10.503906 C 10.117188 -10.894531 9.925781 -11.394531 9.925781 -12.011719 L 9.925781 -16.425781 C 9.925781 -17.042969 10.117188 -17.546875 10.503906 -17.933594 C 10.894531 -18.320312 11.394531 -18.515625 12.011719 -18.515625 L 19.164062 -18.515625 C 19.78125 -18.515625 20.285156 -18.320312 20.671875 -17.933594 C 21.058594 -17.546875 21.253906 -17.042969 21.253906 -16.425781 L 21.253906 -6.359375 C 21.253906 -3.917969 20.574219 -2.015625 19.214844 -0.65625 C 17.855469 0.699219 15.953125 1.378906 13.511719 1.378906 L 8.566406 1.378906 C 6.125 1.378906 4.226562 0.699219 2.867188 -0.65625 C 1.507812 -2.015625 0.828125 -3.917969 0.828125 -6.359375 Z M 3.589844 -6.359375 C 3.589844 -4.679688 3.996094 -3.429688 4.816406 -2.609375 C 5.636719 -1.789062 6.886719 -1.378906 8.566406 -1.378906 L 13.511719 -1.378906 C 15.191406 -1.378906 16.441406 -1.789062 17.261719 -2.609375 C 18.082031 -3.429688 18.492188 -4.679688 18.492188 -6.359375 L 18.492188 -16.425781 C 18.492188 -16.394531 18.5 -16.355469 18.519531 -16.300781 C 18.558594 -16.183594 18.625 -16.078125 18.71875 -15.980469 C 18.8125 -15.886719 18.921875 -15.820312 19.039062 -15.78125 C 19.089844 -15.761719 19.132812 -15.753906 19.164062 -15.753906 L 12.011719 -15.753906 C 12.042969 -15.753906 12.085938 -15.761719 12.140625 -15.78125 C 12.257812 -15.820312 12.363281 -15.886719 12.457031 -15.980469 C 12.550781 -16.078125 12.621094 -16.183594 12.660156 -16.300781 C 12.675781 -16.355469 12.683594 -16.394531 12.683594 -16.425781 L 12.683594 -12.011719 C 12.683594 -12.042969 12.675781 -12.085938 12.660156 -12.140625 C 12.621094 -12.257812 12.550781 -12.363281 12.457031 -12.457031 C 12.363281 -12.550781 12.257812 -12.621094 12.140625 -12.660156 C 12.085938 -12.675781 12.042969 -12.683594 12.011719 -12.683594 L 15.6875 -12.683594 L 15.6875 -7.464844 C 15.6875 -6.492188 15.40625 -5.726562 14.84375 -5.164062 C 14.277344 -4.597656 13.511719 -4.316406 12.542969 -4.316406 L 9.714844 -4.316406 C 8.746094 -4.316406 7.976562 -4.597656 7.414062 -5.164062 C 6.851562 -5.726562 6.570312 -6.492188 6.570312 -7.464844 L 6.570312 -23.449219 C 6.570312 -24.417969 6.851562 -25.1875 7.414062 -25.75 C 7.976562 -26.3125 8.746094 -26.59375 9.714844 -26.59375 L 12.542969 -26.59375 C 13.511719 -26.59375 14.277344 -26.3125 14.84375 -25.75 C 15.40625 -25.1875 15.6875 -24.417969 15.6875 -23.449219 L 15.6875 -21.285156 C 15.6875 -21.316406 15.679688 -21.359375 15.660156 -21.414062 C 15.621094 -21.53125 15.554688 -21.636719 15.460938 -21.730469 C 15.367188 -21.824219 15.257812 -21.894531 15.140625 -21.933594 C 15.089844 -21.949219 15.046875 -21.957031 15.015625 -21.957031 L 19.164062 -21.957031 C 19.132812 -21.957031 19.089844 -21.949219 19.039062 -21.933594 C 18.921875 -21.894531 18.8125 -21.824219 18.71875 -21.730469 C 18.625 -21.636719 18.558594 -21.53125 18.519531 -21.414062 C 18.5 -21.359375 18.492188 -21.316406 18.492188 -21.285156 L 18.492188 -24.554688 C 18.492188 -26.257812 18.085938 -27.511719 17.269531 -28.316406 C 16.449219 -29.128906 15.195312 -29.53125 13.511719 -29.53125 L 8.566406 -29.53125 C 6.882812 -29.53125 5.632812 -29.128906 4.8125 -28.316406 C 3.996094 -27.511719 3.589844 -26.257812 3.589844 -24.554688 Z M 3.589844 -6.359375 "/></g></g><g style="fill:#b21a22;fill-opacity:1;"><g transform="translate(81.927777, 84.314556)"><path style="stroke:none" d="M 0.828125 -6.359375 L 0.828125 -24.554688 C 0.828125 -27.027344 1.507812 -28.9375 2.871094 -30.28125 C 4.230469 -31.621094 6.128906 -32.292969 8.566406 -32.292969 L 13.511719 -32.292969 C 15.984375 -32.292969 17.890625 -31.621094 19.234375 -30.277344 C 20.582031 -28.933594 21.253906 -27.023438 21.253906 -24.554688 L 21.253906 -6.359375 C 21.253906 -3.921875 20.582031 -2.023438 19.242188 -0.664062 C 17.898438 0.699219 15.988281 1.378906 13.511719 1.378906 L 8.566406 1.378906 C 6.125 1.378906 4.226562 0.699219 2.867188 -0.65625 C 1.507812 -2.015625 0.828125 -3.917969 0.828125 -6.359375 Z M 3.589844 -6.359375 C 3.589844 -4.679688 3.996094 -3.429688 4.816406 -2.609375 C 5.636719 -1.789062 6.886719 -1.378906 8.566406 -1.378906 L 13.511719 -1.378906 C 15.21875 -1.378906 16.472656 -1.789062 17.277344 -2.601562 C 18.085938 -3.421875 18.492188 -4.675781 18.492188 -6.359375 L 18.492188 -24.554688 C 18.492188 -26.261719 18.089844 -27.519531 17.285156 -28.324219 C 16.480469 -29.128906 15.222656 -29.53125 13.511719 -29.53125 L 8.566406 -29.53125 C 6.882812 -29.53125 5.632812 -29.128906 4.8125 -28.316406 C 3.996094 -27.511719 3.589844 -26.257812 3.589844 -24.554688 Z M 9.714844 -7.078125 L 12.542969 -7.078125 C 12.6875 -7.078125 12.796875 -7.089844 12.878906 -7.117188 C 12.890625 -7.121094 12.902344 -7.125 12.90625 -7.128906 C 12.902344 -7.125 12.898438 -7.121094 12.890625 -7.113281 C 12.882812 -7.109375 12.878906 -7.101562 12.875 -7.097656 C 12.878906 -7.101562 12.882812 -7.113281 12.886719 -7.125 C 12.914062 -7.207031 12.929688 -7.316406 12.929688 -7.464844 L 12.929688 -23.449219 C 12.929688 -23.59375 12.914062 -23.707031 12.886719 -23.785156 C 12.882812 -23.800781 12.878906 -23.808594 12.875 -23.816406 C 12.878906 -23.808594 12.882812 -23.804688 12.890625 -23.796875 C 12.898438 -23.792969 12.902344 -23.785156 12.90625 -23.785156 C 12.902344 -23.785156 12.890625 -23.789062 12.878906 -23.796875 C 12.796875 -23.820312 12.6875 -23.835938 12.542969 -23.835938 L 9.714844 -23.835938 C 9.570312 -23.835938 9.457031 -23.820312 9.378906 -23.796875 C 9.363281 -23.789062 9.355469 -23.785156 9.347656 -23.785156 C 9.355469 -23.785156 9.359375 -23.792969 9.367188 -23.796875 C 9.371094 -23.804688 9.378906 -23.808594 9.378906 -23.816406 C 9.378906 -23.808594 9.375 -23.800781 9.367188 -23.785156 C 9.34375 -23.707031 9.328125 -23.59375 9.328125 -23.449219 L 9.328125 -7.464844 C 9.328125 -7.316406 9.34375 -7.207031 9.367188 -7.125 C 9.375 -7.113281 9.378906 -7.101562 9.378906 -7.097656 C 9.378906 -7.101562 9.371094 -7.109375 9.367188 -7.113281 C 9.359375 -7.121094 9.355469 -7.125 9.347656 -7.128906 C 9.355469 -7.125 9.363281 -7.121094 9.378906 -7.117188 C 9.457031 -7.089844 9.570312 -7.078125 9.714844 -7.078125 Z M 9.714844 -4.316406 C 8.746094 -4.316406 7.976562 -4.597656 7.414062 -5.164062 C 6.851562 -5.726562 6.570312 -6.492188 6.570312 -7.464844 L 6.570312 -23.449219 C 6.570312 -24.417969 6.851562 -25.1875 7.414062 -25.75 C 7.976562 -26.3125 8.746094 -26.59375 9.714844 -26.59375 L 12.542969 -26.59375 C 13.511719 -26.59375 14.277344 -26.3125 14.84375 -25.75 C 15.40625 -25.1875 15.6875 -24.417969 15.6875 -23.449219 L 15.6875 -7.464844 C 15.6875 -6.492188 15.40625 -5.726562 14.84375 -5.164062 C 14.277344 -4.597656 13.511719 -4.316406 12.542969 -4.316406 Z M 9.714844 -4.316406 "/></g></g><g style="fill:#b21a22;fill-opacity:1;"><g transform="translate(104.000938, 84.314556)"><path style="stroke:none" d="M 8.566406 -32.292969 L 13.511719 -32.292969 C 15.984375 -32.292969 17.890625 -31.621094 19.234375 -30.277344 C 20.582031 -28.933594 21.253906 -27.023438 21.253906 -24.554688 L 21.253906 -21.636719 C 21.253906 -21.023438 21.058594 -20.519531 20.671875 -20.132812 C 20.285156 -19.746094 19.78125 -19.550781 19.164062 -19.550781 L 14.707031 -19.550781 C 14.089844 -19.550781 13.585938 -19.746094 13.199219 -20.132812 C 12.8125 -20.519531 12.617188 -21.023438 12.617188 -21.636719 L 12.617188 -23.492188 C 12.617188 -23.636719 12.605469 -23.75 12.578125 -23.828125 C 12.574219 -23.84375 12.570312 -23.855469 12.566406 -23.859375 C 12.570312 -23.855469 12.574219 -23.847656 12.582031 -23.84375 C 12.585938 -23.835938 12.59375 -23.832031 12.597656 -23.828125 C 12.59375 -23.832031 12.582031 -23.835938 12.570312 -23.839844 C 12.488281 -23.867188 12.378906 -23.878906 12.230469 -23.878906 L 9.804688 -23.878906 C 9.660156 -23.878906 9.546875 -23.867188 9.46875 -23.839844 C 9.453125 -23.835938 9.441406 -23.832031 9.4375 -23.828125 C 9.441406 -23.832031 9.449219 -23.835938 9.453125 -23.84375 C 9.460938 -23.847656 9.464844 -23.855469 9.46875 -23.859375 C 9.464844 -23.855469 9.460938 -23.84375 9.457031 -23.828125 C 9.429688 -23.75 9.417969 -23.636719 9.417969 -23.492188 L 9.417969 -19.738281 L 8.039062 -19.738281 L 8.460938 -21.054688 L 19.148438 -17.609375 C 19.828125 -17.371094 20.351562 -16.996094 20.714844 -16.480469 C 21.074219 -15.972656 21.253906 -15.363281 21.253906 -14.660156 L 21.253906 -6.359375 C 21.253906 -3.921875 20.582031 -2.023438 19.242188 -0.664062 C 17.898438 0.699219 15.988281 1.378906 13.511719 1.378906 L 8.566406 1.378906 C 6.125 1.378906 4.226562 0.699219 2.867188 -0.65625 C 1.507812 -2.015625 0.828125 -3.917969 0.828125 -6.359375 L 0.828125 -9.230469 C 0.828125 -9.847656 1.023438 -10.347656 1.410156 -10.734375 C 1.796875 -11.121094 2.296875 -11.316406 2.914062 -11.316406 L 7.375 -11.316406 C 7.992188 -11.316406 8.492188 -11.121094 8.878906 -10.734375 C 9.269531 -10.347656 9.460938 -9.847656 9.460938 -9.230469 L 9.460938 -7.375 C 9.460938 -7.230469 9.476562 -7.117188 9.5 -7.039062 C 9.507812 -7.023438 9.511719 -7.015625 9.511719 -7.007812 C 9.511719 -7.011719 9.503906 -7.019531 9.5 -7.027344 C 9.492188 -7.03125 9.488281 -7.039062 9.480469 -7.039062 C 9.488281 -7.035156 9.496094 -7.03125 9.511719 -7.027344 C 9.589844 -7 9.703125 -6.988281 9.847656 -6.988281 L 12.230469 -6.988281 C 12.378906 -6.988281 12.488281 -7 12.570312 -7.027344 C 12.582031 -7.03125 12.59375 -7.035156 12.597656 -7.039062 C 12.59375 -7.039062 12.585938 -7.03125 12.582031 -7.027344 C 12.574219 -7.019531 12.570312 -7.011719 12.566406 -7.007812 C 12.570312 -7.015625 12.574219 -7.023438 12.578125 -7.039062 C 12.605469 -7.117188 12.617188 -7.230469 12.617188 -7.375 L 12.617188 -11.835938 L 14 -11.835938 L 13.570312 -10.523438 L 2.972656 -13.96875 C 2.289062 -14.195312 1.761719 -14.5625 1.390625 -15.074219 C 1.015625 -15.585938 0.828125 -16.203125 0.828125 -16.914062 L 0.828125 -24.554688 C 0.828125 -27.027344 1.507812 -28.9375 2.871094 -30.28125 C 4.230469 -31.621094 6.128906 -32.292969 8.566406 -32.292969 Z M 8.566406 -29.53125 C 6.882812 -29.53125 5.632812 -29.128906 4.8125 -28.316406 C 3.996094 -27.511719 3.589844 -26.257812 3.589844 -24.554688 L 3.589844 -16.914062 C 3.589844 -16.800781 3.597656 -16.730469 3.621094 -16.699219 C 3.644531 -16.664062 3.714844 -16.628906 3.828125 -16.59375 L 15.378906 -12.835938 L 15.378906 -7.375 C 15.378906 -6.40625 15.097656 -5.636719 14.53125 -5.074219 C 13.96875 -4.511719 13.203125 -4.226562 12.230469 -4.226562 L 9.847656 -4.226562 C 8.878906 -4.226562 8.109375 -4.511719 7.546875 -5.074219 C 6.984375 -5.636719 6.703125 -6.40625 6.703125 -7.375 L 6.703125 -9.230469 C 6.703125 -9.199219 6.710938 -9.15625 6.726562 -9.101562 C 6.765625 -8.984375 6.835938 -8.878906 6.929688 -8.785156 C 7.023438 -8.6875 7.128906 -8.621094 7.246094 -8.582031 C 7.300781 -8.566406 7.34375 -8.554688 7.375 -8.554688 L 2.914062 -8.554688 C 2.945312 -8.554688 2.988281 -8.566406 3.042969 -8.582031 C 3.160156 -8.621094 3.265625 -8.6875 3.359375 -8.785156 C 3.457031 -8.878906 3.523438 -8.984375 3.5625 -9.101562 C 3.578125 -9.15625 3.589844 -9.199219 3.589844 -9.230469 L 3.589844 -6.359375 C 3.589844 -4.679688 3.996094 -3.429688 4.816406 -2.609375 C 5.636719 -1.789062 6.886719 -1.378906 8.566406 -1.378906 L 13.511719 -1.378906 C 15.21875 -1.378906 16.472656 -1.789062 17.277344 -2.601562 C 18.085938 -3.421875 18.492188 -4.675781 18.492188 -6.359375 L 18.492188 -14.660156 C 18.492188 -14.78125 18.480469 -14.859375 18.457031 -14.894531 C 18.433594 -14.921875 18.382812 -14.953125 18.300781 -14.980469 L 6.65625 -18.734375 L 6.65625 -23.492188 C 6.65625 -24.464844 6.9375 -25.230469 7.503906 -25.792969 C 8.066406 -26.359375 8.832031 -26.640625 9.804688 -26.640625 L 12.230469 -26.640625 C 13.203125 -26.640625 13.96875 -26.359375 14.53125 -25.792969 C 15.097656 -25.230469 15.378906 -24.464844 15.378906 -23.492188 L 15.378906 -21.636719 C 15.378906 -21.671875 15.371094 -21.710938 15.351562 -21.765625 C 15.3125 -21.882812 15.246094 -21.988281 15.152344 -22.085938 C 15.054688 -22.179688 14.949219 -22.246094 14.832031 -22.285156 C 14.78125 -22.304688 14.738281 -22.3125 14.707031 -22.3125 L 19.164062 -22.3125 C 19.132812 -22.3125 19.089844 -22.304688 19.039062 -22.285156 C 18.921875 -22.246094 18.8125 -22.179688 18.71875 -22.085938 C 18.625 -21.988281 18.558594 -21.882812 18.519531 -21.765625 C 18.5 -21.710938 18.492188 -21.671875 18.492188 -21.636719 L 18.492188 -24.554688 C 18.492188 -26.261719 18.089844 -27.519531 17.285156 -28.324219 C 16.480469 -29.128906 15.222656 -29.53125 13.511719 -29.53125 Z M 8.566406 -29.53125 "/></g></g><g style="fill:#060705;fill-opacity:1;"><g transform="translate(17.915613, 84.314556)"><path style="stroke:none" d="M 8.21875 -5.828125 L 8.21875 -30.203125 C 8.21875 -30.671875 7.976562 -30.90625 7.5 -30.90625 L 2.921875 -30.90625 C 2.441406 -30.90625 2.203125 -30.671875 2.203125 -30.203125 L 2.203125 -0.703125 C 2.203125 -0.234375 2.441406 0 2.921875 0 L 16.953125 0 C 17.421875 0 17.65625 -0.234375 17.65625 -0.703125 L 17.65625 -5.125 C 17.65625 -5.59375 17.421875 -5.828125 16.953125 -5.828125 Z M 8.21875 -5.828125 "/></g></g><g style="fill:#060705;fill-opacity:1;"><g transform="translate(37.781456, 84.314556)"><path style="stroke:none" d="M 2.203125 -6.359375 L 2.203125 -24.546875 C 2.203125 -26.640625 2.742188 -28.222656 3.828125 -29.296875 C 4.921875 -30.367188 6.5 -30.90625 8.5625 -30.90625 L 13.515625 -30.90625 C 15.597656 -30.90625 17.175781 -30.367188 18.25 -29.296875 C 19.332031 -28.222656 19.875 -26.640625 19.875 -24.546875 L 19.875 -6.359375 C 19.875 -4.296875 19.332031 -2.71875 18.25 -1.625 C 17.175781 -0.539062 15.597656 0 13.515625 0 L 8.5625 0 C 6.5 0 4.921875 -0.539062 3.828125 -1.625 C 2.742188 -2.71875 2.203125 -4.296875 2.203125 -6.359375 Z M 9.71875 -5.703125 L 12.546875 -5.703125 C 13.722656 -5.703125 14.3125 -6.289062 14.3125 -7.46875 L 14.3125 -23.453125 C 14.3125 -24.628906 13.722656 -25.21875 12.546875 -25.21875 L 9.71875 -25.21875 C 8.539062 -25.21875 7.953125 -24.628906 7.953125 -23.453125 L 7.953125 -7.46875 C 7.953125 -6.289062 8.539062 -5.703125 9.71875 -5.703125 Z M 9.71875 -5.703125 "/></g></g><g style="fill:#060705;fill-opacity:1;"><g transform="translate(59.854617, 84.314556)"><path style="stroke:none" d="M 2.203125 -6.359375 L 2.203125 -24.546875 C 2.203125 -26.640625 2.742188 -28.222656 3.828125 -29.296875 C 4.921875 -30.367188 6.5 -30.90625 8.5625 -30.90625 L 13.515625 -30.90625 C 15.578125 -30.90625 17.148438 -30.367188 18.234375 -29.296875 C 19.328125 -28.222656 19.875 -26.640625 19.875 -24.546875 L 19.875 -21.28125 C 19.875 -20.8125 19.632812 -20.578125 19.15625 -20.578125 L 15.015625 -20.578125 C 14.546875 -20.578125 14.3125 -20.8125 14.3125 -21.28125 L 14.3125 -23.453125 C 14.3125 -24.628906 13.722656 -25.21875 12.546875 -25.21875 L 9.71875 -25.21875 C 8.539062 -25.21875 7.953125 -24.628906 7.953125 -23.453125 L 7.953125 -7.46875 C 7.953125 -6.289062 8.539062 -5.703125 9.71875 -5.703125 L 12.546875 -5.703125 C 13.722656 -5.703125 14.3125 -6.289062 14.3125 -7.46875 L 14.3125 -11.296875 L 12.015625 -11.296875 C 11.535156 -11.296875 11.296875 -11.535156 11.296875 -12.015625 L 11.296875 -16.421875 C 11.296875 -16.890625 11.535156 -17.125 12.015625 -17.125 L 19.15625 -17.125 C 19.632812 -17.125 19.875 -16.890625 19.875 -16.421875 L 19.875 -6.359375 C 19.875 -4.296875 19.328125 -2.71875 18.234375 -1.625 C 17.148438 -0.539062 15.578125 0 13.515625 0 L 8.5625 0 C 6.5 0 4.921875 -0.539062 3.828125 -1.625 C 2.742188 -2.71875 2.203125 -4.296875 2.203125 -6.359375 Z M 2.203125 -6.359375 "/></g></g><g style="fill:#060705;fill-opacity:1;"><g transform="translate(81.927777, 84.314556)"><path style="stroke:none" d="M 2.203125 -6.359375 L 2.203125 -24.546875 C 2.203125 -26.640625 2.742188 -28.222656 3.828125 -29.296875 C 4.921875 -30.367188 6.5 -30.90625 8.5625 -30.90625 L 13.515625 -30.90625 C 15.597656 -30.90625 17.175781 -30.367188 18.25 -29.296875 C 19.332031 -28.222656 19.875 -26.640625 19.875 -24.546875 L 19.875 -6.359375 C 19.875 -4.296875 19.332031 -2.71875 18.25 -1.625 C 17.175781 -0.539062 15.597656 0 13.515625 0 L 8.5625 0 C 6.5 0 4.921875 -0.539062 3.828125 -1.625 C 2.742188 -2.71875 2.203125 -4.296875 2.203125 -6.359375 Z M 9.71875 -5.703125 L 12.546875 -5.703125 C 13.722656 -5.703125 14.3125 -6.289062 14.3125 -7.46875 L 14.3125 -23.453125 C 14.3125 -24.628906 13.722656 -25.21875 12.546875 -25.21875 L 9.71875 -25.21875 C 8.539062 -25.21875 7.953125 -24.628906 7.953125 -23.453125 L 7.953125 -7.46875 C 7.953125 -6.289062 8.539062 -5.703125 9.71875 -5.703125 Z M 9.71875 -5.703125 "/></g></g><g style="fill:#060705;fill-opacity:1;"><g transform="translate(104.000938, 84.314556)"><path style="stroke:none" d="M 8.5625 -30.90625 L 13.515625 -30.90625 C 15.597656 -30.90625 17.175781 -30.367188 18.25 -29.296875 C 19.332031 -28.222656 19.875 -26.640625 19.875 -24.546875 L 19.875 -21.640625 C 19.875 -21.171875 19.632812 -20.9375 19.15625 -20.9375 L 14.703125 -20.9375 C 14.234375 -20.9375 14 -21.171875 14 -21.640625 L 14 -23.484375 C 14 -24.660156 13.410156 -25.25 12.234375 -25.25 L 9.796875 -25.25 C 8.617188 -25.25 8.03125 -24.660156 8.03125 -23.484375 L 8.03125 -19.734375 L 18.71875 -16.296875 C 19.488281 -16.023438 19.875 -15.476562 19.875 -14.65625 L 19.875 -6.359375 C 19.875 -4.296875 19.332031 -2.71875 18.25 -1.625 C 17.175781 -0.539062 15.597656 0 13.515625 0 L 8.5625 0 C 6.5 0 4.921875 -0.539062 3.828125 -1.625 C 2.742188 -2.71875 2.203125 -4.296875 2.203125 -6.359375 L 2.203125 -9.234375 C 2.203125 -9.703125 2.441406 -9.9375 2.921875 -9.9375 L 7.375 -9.9375 C 7.84375 -9.9375 8.078125 -9.703125 8.078125 -9.234375 L 8.078125 -7.375 C 8.078125 -6.195312 8.664062 -5.609375 9.84375 -5.609375 L 12.234375 -5.609375 C 13.410156 -5.609375 14 -6.195312 14 -7.375 L 14 -11.828125 L 3.40625 -15.28125 C 2.601562 -15.539062 2.203125 -16.082031 2.203125 -16.90625 L 2.203125 -24.546875 C 2.203125 -26.640625 2.742188 -28.222656 3.828125 -29.296875 C 4.921875 -30.367188 6.5 -30.90625 8.5625 -30.90625 Z M 8.5625 -30.90625 "/></g></g></g></svg>