<svg xmlns="http://www.w3.org/2000/svg" xmlns:xlink="http://www.w3.org/1999/xlink" width="192" zoomAndPan="magnify" viewBox="0 0 144 143.999998" height="192" preserveAspectRatio="xMidYMid meet" version="1.2"><defs><clipPath id="f3f3f52202"><path d="M 9 0 L 135 0 L 135 144 L 9 144 Z M 9 0 "/></clipPath><clipPath id="39c25d0857"><path d="M -21.457031 54.867188 L 103.039062 -17.847656 L 165.503906 89.105469 L 41.007812 161.816406 Z M -21.457031 54.867188 "/></clipPath><clipPath id="d43b603a67"><path d="M 134.226562 35.65625 L 134.347656 107.300781 L 72.121094 143.644531 L 9.773438 108.34375 L 9.65625 36.695312 L 71.878906 0.351562 Z M 134.226562 35.65625 "/></clipPath><clipPath id="7701fecacd"><path d="M 21.210938 13.683594 L 122.773438 13.683594 L 122.773438 130.261719 L 21.210938 130.261719 Z M 21.210938 13.683594 "/></clipPath></defs><g id="e17334df43"><g clip-rule="nonzero" clip-path="url(#f3f3f52202)"><g clip-rule="nonzero" clip-path="url(#39c25d0857)"><g clip-rule="nonzero" clip-path="url(#d43b603a67)"><path style=" stroke:none;fill-rule:nonzero;fill:#65b30e;fill-opacity:1;" d="M -21.457031 54.867188 L 103.039062 -17.847656 L 165.503906 89.105469 L 41.007812 161.816406 Z M -21.457031 54.867188 "/></g></g></g><path style=" stroke:none;fill-rule:nonzero;fill:#87ff00;fill-opacity:1;" d="M 51.679688 52.109375 L 51.613281 52.046875 L 37.261719 66.398438 L 72.113281 101.183594 L 86.46875 86.898438 L 106.960938 66.398438 L 92.609375 52.046875 L 92.609375 51.980469 L 51.617188 51.980469 Z M 51.679688 52.109375 "/><g clip-rule="nonzero" clip-path="url(#7701fecacd)"><path style=" stroke:none;fill-rule:nonzero;fill:#87ff00;fill-opacity:1;" d="M 71.980469 13.765625 L 21.222656 42.863281 L 21.226562 101.058594 L 71.984375 130.15625 L 122.742188 101.058594 L 122.742188 42.863281 L 71.984375 13.769531 Z M 113.039062 95.496094 L 71.980469 119.160156 L 30.921875 95.496094 L 30.925781 48.292969 L 71.984375 24.628906 L 113.042969 48.292969 L 113.042969 95.492188 Z M 113.039062 95.496094 "/></g><g style="fill:#b21a22;fill-opacity:1;"><g transform="translate(33.670342, 44.565522)"><path style="stroke:none" d="M 13.1875 -15.234375 L 13.1875 -9.726562 C 13.1875 -7.820312 12.539062 -6.464844 11.25 -5.65625 L 10.796875 -6.382812 L 11.628906 -6.585938 L 13.050781 -0.695312 L 12.21875 -0.492188 L 13.046875 -0.722656 C 13.167969 -0.28125 13.109375 0.09375 12.867188 0.402344 C 12.632812 0.703125 12.289062 0.855469 11.835938 0.855469 L 9.152344 0.855469 C 8.820312 0.855469 8.535156 0.757812 8.300781 0.566406 C 8.066406 0.375 7.917969 0.117188 7.847656 -0.203125 L 8.6875 -0.382812 L 7.855469 -0.179688 L 6.539062 -5.578125 L 7.371094 -5.78125 L 7.371094 -4.925781 L 4.933594 -4.925781 L 4.933594 -5.78125 L 5.789062 -5.78125 L 5.789062 -0.4375 C 5.789062 -0.0546875 5.667969 0.253906 5.429688 0.496094 C 5.1875 0.734375 4.875 0.855469 4.492188 0.855469 L 1.808594 0.855469 C 1.425781 0.855469 1.113281 0.734375 0.875 0.496094 C 0.632812 0.253906 0.515625 -0.0546875 0.515625 -0.4375 L 0.515625 -18.742188 C 0.515625 -19.125 0.632812 -19.433594 0.875 -19.675781 C 1.113281 -19.914062 1.425781 -20.035156 1.808594 -20.035156 L 8.382812 -20.035156 C 9.917969 -20.035156 11.101562 -19.621094 11.933594 -18.785156 C 12.769531 -17.953125 13.1875 -16.769531 13.1875 -15.234375 Z M 11.472656 -15.234375 C 11.472656 -16.292969 11.222656 -17.074219 10.722656 -17.574219 C 10.226562 -18.074219 9.445312 -18.324219 8.382812 -18.324219 L 1.808594 -18.324219 C 1.828125 -18.324219 1.855469 -18.328125 1.886719 -18.339844 C 1.960938 -18.363281 2.027344 -18.40625 2.085938 -18.464844 C 2.144531 -18.523438 2.183594 -18.589844 2.210938 -18.664062 C 2.222656 -18.695312 2.226562 -18.722656 2.226562 -18.742188 L 2.226562 -0.4375 C 2.226562 -0.457031 2.222656 -0.484375 2.210938 -0.515625 C 2.183594 -0.589844 2.144531 -0.65625 2.085938 -0.714844 C 2.027344 -0.773438 1.960938 -0.816406 1.886719 -0.839844 C 1.855469 -0.851562 1.828125 -0.855469 1.808594 -0.855469 L 4.492188 -0.855469 C 4.472656 -0.855469 4.449219 -0.851562 4.414062 -0.839844 C 4.339844 -0.816406 4.277344 -0.773438 4.21875 -0.714844 C 4.15625 -0.65625 4.117188 -0.589844 4.09375 -0.515625 C 4.082031 -0.484375 4.074219 -0.457031 4.074219 -0.4375 L 4.074219 -6.636719 L 8.042969 -6.636719 L 9.519531 -0.574219 L 9.523438 -0.5625 C 9.507812 -0.628906 9.464844 -0.695312 9.386719 -0.757812 C 9.308594 -0.824219 9.226562 -0.855469 9.152344 -0.855469 L 11.835938 -0.855469 C 11.820312 -0.851562 11.796875 -0.847656 11.777344 -0.839844 C 11.675781 -0.804688 11.589844 -0.742188 11.515625 -0.648438 C 11.441406 -0.554688 11.402344 -0.449219 11.394531 -0.339844 C 11.390625 -0.304688 11.390625 -0.277344 11.394531 -0.265625 L 11.390625 -0.277344 L 9.816406 -6.78125 L 10.339844 -7.109375 C 11.097656 -7.582031 11.472656 -8.453125 11.472656 -9.726562 Z M 4.933594 -10.171875 L 7.671875 -10.171875 C 7.761719 -10.171875 7.832031 -10.179688 7.878906 -10.195312 C 7.890625 -10.199219 7.894531 -10.203125 7.898438 -10.203125 C 7.894531 -10.203125 7.890625 -10.199219 7.886719 -10.195312 C 7.882812 -10.191406 7.882812 -10.1875 7.878906 -10.183594 C 7.882812 -10.1875 7.882812 -10.195312 7.886719 -10.203125 C 7.902344 -10.253906 7.910156 -10.320312 7.910156 -10.410156 L 7.910156 -14.550781 C 7.910156 -14.640625 7.902344 -14.707031 7.886719 -14.757812 C 7.882812 -14.765625 7.882812 -14.773438 7.878906 -14.777344 C 7.882812 -14.773438 7.882812 -14.769531 7.886719 -14.765625 C 7.890625 -14.761719 7.894531 -14.757812 7.898438 -14.757812 C 7.894531 -14.757812 7.890625 -14.761719 7.878906 -14.765625 C 7.832031 -14.78125 7.761719 -14.789062 7.671875 -14.789062 L 4.933594 -14.789062 L 4.933594 -15.644531 L 5.789062 -15.644531 L 5.789062 -9.316406 L 4.933594 -9.316406 Z M 4.074219 -8.460938 L 4.074219 -16.5 L 7.671875 -16.5 C 8.273438 -16.5 8.75 -16.328125 9.097656 -15.976562 C 9.449219 -15.625 9.625 -15.152344 9.625 -14.550781 L 9.625 -10.410156 C 9.625 -9.808594 9.449219 -9.335938 9.097656 -8.984375 C 8.75 -8.632812 8.273438 -8.460938 7.671875 -8.460938 Z M 4.074219 -8.460938 "/></g></g><g style="fill:#b21a22;fill-opacity:1;"><g transform="translate(47.365886, 44.565522)"><path style="stroke:none" d="M 5.316406 -20.035156 L 8.382812 -20.035156 C 9.917969 -20.035156 11.101562 -19.621094 11.933594 -18.785156 C 12.769531 -17.953125 13.1875 -16.769531 13.1875 -15.234375 L 13.1875 -13.425781 C 13.1875 -13.042969 13.066406 -12.730469 12.824219 -12.492188 C 12.585938 -12.25 12.273438 -12.132812 11.890625 -12.132812 L 9.125 -12.132812 C 8.742188 -12.132812 8.429688 -12.25 8.191406 -12.492188 C 7.949219 -12.730469 7.828125 -13.042969 7.828125 -13.425781 L 7.828125 -14.578125 C 7.828125 -14.667969 7.820312 -14.734375 7.804688 -14.785156 C 7.800781 -14.792969 7.800781 -14.800781 7.796875 -14.804688 C 7.800781 -14.800781 7.800781 -14.796875 7.804688 -14.792969 C 7.808594 -14.789062 7.8125 -14.785156 7.816406 -14.785156 C 7.8125 -14.785156 7.808594 -14.789062 7.796875 -14.792969 C 7.75 -14.808594 7.679688 -14.816406 7.589844 -14.816406 L 6.082031 -14.816406 C 5.992188 -14.816406 5.921875 -14.808594 5.875 -14.792969 C 5.863281 -14.789062 5.859375 -14.785156 5.855469 -14.785156 C 5.859375 -14.785156 5.863281 -14.789062 5.867188 -14.792969 C 5.871094 -14.796875 5.875 -14.800781 5.875 -14.804688 C 5.875 -14.800781 5.871094 -14.792969 5.867188 -14.785156 C 5.851562 -14.734375 5.84375 -14.667969 5.84375 -14.578125 L 5.84375 -12.246094 L 4.988281 -12.246094 L 5.25 -13.0625 L 11.878906 -10.925781 C 12.304688 -10.777344 12.628906 -10.546875 12.851562 -10.226562 C 13.074219 -9.910156 13.1875 -9.53125 13.1875 -9.097656 L 13.1875 -3.945312 C 13.1875 -2.433594 12.769531 -1.253906 11.9375 -0.414062 C 11.105469 0.433594 9.921875 0.855469 8.382812 0.855469 L 5.316406 0.855469 C 3.800781 0.855469 2.621094 0.433594 1.777344 -0.410156 C 0.933594 -1.25 0.515625 -2.429688 0.515625 -3.945312 L 0.515625 -5.726562 C 0.515625 -6.109375 0.632812 -6.421875 0.875 -6.660156 C 1.113281 -6.902344 1.425781 -7.019531 1.808594 -7.019531 L 4.574219 -7.019531 C 4.957031 -7.019531 5.269531 -6.902344 5.511719 -6.660156 C 5.75 -6.421875 5.871094 -6.109375 5.871094 -5.726562 L 5.871094 -4.574219 C 5.871094 -4.484375 5.878906 -4.417969 5.894531 -4.367188 C 5.898438 -4.359375 5.902344 -4.351562 5.902344 -4.347656 C 5.902344 -4.351562 5.898438 -4.355469 5.894531 -4.359375 C 5.890625 -4.363281 5.886719 -4.367188 5.882812 -4.367188 C 5.886719 -4.367188 5.890625 -4.363281 5.902344 -4.359375 C 5.949219 -4.34375 6.019531 -4.335938 6.109375 -4.335938 L 7.589844 -4.335938 C 7.679688 -4.335938 7.75 -4.34375 7.796875 -4.359375 C 7.808594 -4.363281 7.8125 -4.367188 7.816406 -4.367188 C 7.8125 -4.367188 7.808594 -4.363281 7.804688 -4.359375 C 7.800781 -4.355469 7.800781 -4.351562 7.796875 -4.347656 C 7.800781 -4.351562 7.800781 -4.359375 7.804688 -4.367188 C 7.820312 -4.417969 7.828125 -4.484375 7.828125 -4.574219 L 7.828125 -7.34375 L 8.6875 -7.34375 L 8.421875 -6.527344 L 1.84375 -8.664062 C 1.421875 -8.808594 1.09375 -9.035156 0.863281 -9.351562 C 0.628906 -9.671875 0.515625 -10.050781 0.515625 -10.492188 L 0.515625 -15.234375 C 0.515625 -16.769531 0.9375 -17.953125 1.78125 -18.789062 C 2.625 -19.621094 3.800781 -20.035156 5.316406 -20.035156 Z M 5.316406 -18.324219 C 4.269531 -18.324219 3.496094 -18.074219 2.984375 -17.570312 C 2.480469 -17.070312 2.226562 -16.292969 2.226562 -15.234375 L 2.226562 -10.492188 C 2.226562 -10.425781 2.234375 -10.378906 2.246094 -10.363281 C 2.261719 -10.339844 2.304688 -10.316406 2.375 -10.292969 L 9.542969 -7.964844 L 9.542969 -4.574219 C 9.542969 -3.972656 9.367188 -3.5 9.015625 -3.148438 C 8.667969 -2.796875 8.191406 -2.625 7.589844 -2.625 L 6.109375 -2.625 C 5.507812 -2.625 5.03125 -2.796875 4.683594 -3.148438 C 4.332031 -3.5 4.15625 -3.972656 4.15625 -4.574219 L 4.15625 -5.726562 C 4.15625 -5.707031 4.164062 -5.679688 4.175781 -5.648438 C 4.199219 -5.574219 4.242188 -5.507812 4.300781 -5.449219 C 4.359375 -5.390625 4.421875 -5.347656 4.496094 -5.324219 C 4.53125 -5.3125 4.554688 -5.308594 4.574219 -5.308594 L 1.808594 -5.308594 C 1.828125 -5.308594 1.855469 -5.3125 1.886719 -5.324219 C 1.960938 -5.347656 2.027344 -5.390625 2.085938 -5.449219 C 2.144531 -5.507812 2.183594 -5.574219 2.210938 -5.648438 C 2.222656 -5.679688 2.226562 -5.707031 2.226562 -5.726562 L 2.226562 -3.945312 C 2.226562 -2.902344 2.480469 -2.128906 2.988281 -1.621094 C 3.496094 -1.109375 4.273438 -0.855469 5.316406 -0.855469 L 8.382812 -0.855469 C 9.441406 -0.855469 10.222656 -1.109375 10.71875 -1.613281 C 11.222656 -2.125 11.472656 -2.902344 11.472656 -3.945312 L 11.472656 -9.097656 C 11.472656 -9.171875 11.464844 -9.21875 11.449219 -9.242188 C 11.4375 -9.257812 11.40625 -9.277344 11.355469 -9.296875 L 4.128906 -11.625 L 4.128906 -14.578125 C 4.128906 -15.179688 4.304688 -15.652344 4.65625 -16.003906 C 5.003906 -16.355469 5.480469 -16.527344 6.082031 -16.527344 L 7.589844 -16.527344 C 8.191406 -16.527344 8.667969 -16.355469 9.015625 -16.003906 C 9.367188 -15.652344 9.542969 -15.179688 9.542969 -14.578125 L 9.542969 -13.425781 C 9.542969 -13.445312 9.535156 -13.472656 9.527344 -13.503906 C 9.5 -13.578125 9.460938 -13.644531 9.402344 -13.703125 C 9.34375 -13.761719 9.277344 -13.804688 9.203125 -13.828125 C 9.171875 -13.839844 9.144531 -13.84375 9.125 -13.84375 L 11.890625 -13.84375 C 11.871094 -13.84375 11.84375 -13.839844 11.8125 -13.828125 C 11.738281 -13.804688 11.671875 -13.761719 11.613281 -13.703125 C 11.554688 -13.644531 11.515625 -13.578125 11.488281 -13.503906 C 11.480469 -13.472656 11.472656 -13.445312 11.472656 -13.425781 L 11.472656 -15.234375 C 11.472656 -16.292969 11.222656 -17.074219 10.722656 -17.574219 C 10.226562 -18.074219 9.445312 -18.324219 8.382812 -18.324219 Z M 5.316406 -18.324219 "/></g></g><g style="fill:#b21a22;fill-opacity:1;"><g transform="translate(61.061429, 44.565522)"><path style="stroke:none" d="M 0.515625 -0.4375 L 0.515625 -18.742188 C 0.515625 -19.125 0.632812 -19.433594 0.875 -19.675781 C 1.113281 -19.914062 1.425781 -20.035156 1.808594 -20.035156 L 8.382812 -20.035156 C 9.917969 -20.035156 11.101562 -19.621094 11.933594 -18.785156 C 12.769531 -17.953125 13.1875 -16.769531 13.1875 -15.234375 L 13.1875 -9.863281 C 13.1875 -8.347656 12.769531 -7.175781 11.933594 -6.339844 C 11.105469 -5.507812 9.925781 -5.082031 8.394531 -5.0625 L 4.9375 -5.035156 L 4.933594 -5.890625 L 5.789062 -5.890625 L 5.789062 -0.410156 C 5.789062 -0.0273438 5.667969 0.28125 5.429688 0.523438 C 5.1875 0.761719 4.875 0.882812 4.492188 0.882812 L 1.800781 0.855469 C 1.421875 0.855469 1.113281 0.734375 0.875 0.496094 C 0.632812 0.253906 0.515625 -0.0546875 0.515625 -0.4375 Z M 2.226562 -0.4375 C 2.226562 -0.457031 2.222656 -0.484375 2.210938 -0.515625 C 2.183594 -0.589844 2.144531 -0.65625 2.085938 -0.714844 C 2.027344 -0.773438 1.960938 -0.816406 1.886719 -0.839844 C 1.855469 -0.851562 1.832031 -0.855469 1.816406 -0.855469 L 4.492188 -0.828125 C 4.472656 -0.828125 4.449219 -0.824219 4.414062 -0.8125 C 4.339844 -0.789062 4.277344 -0.746094 4.21875 -0.6875 C 4.15625 -0.628906 4.117188 -0.5625 4.09375 -0.488281 C 4.082031 -0.457031 4.074219 -0.429688 4.074219 -0.410156 L 4.074219 -6.742188 L 8.371094 -6.773438 C 9.4375 -6.789062 10.222656 -7.046875 10.722656 -7.550781 C 11.222656 -8.050781 11.472656 -8.820312 11.472656 -9.863281 L 11.472656 -15.234375 C 11.472656 -16.292969 11.222656 -17.074219 10.722656 -17.574219 C 10.226562 -18.074219 9.445312 -18.324219 8.382812 -18.324219 L 1.808594 -18.324219 C 1.828125 -18.324219 1.855469 -18.328125 1.886719 -18.339844 C 1.960938 -18.363281 2.027344 -18.40625 2.085938 -18.464844 C 2.144531 -18.523438 2.183594 -18.589844 2.210938 -18.664062 C 2.222656 -18.695312 2.226562 -18.722656 2.226562 -18.742188 Z M 4.921875 -10.28125 L 7.664062 -10.308594 C 7.757812 -10.308594 7.832031 -10.316406 7.878906 -10.332031 C 7.890625 -10.335938 7.894531 -10.339844 7.898438 -10.339844 C 7.894531 -10.339844 7.890625 -10.335938 7.886719 -10.332031 C 7.882812 -10.328125 7.882812 -10.324219 7.878906 -10.320312 C 7.882812 -10.324219 7.882812 -10.332031 7.886719 -10.339844 C 7.902344 -10.390625 7.910156 -10.457031 7.910156 -10.550781 L 7.910156 -14.550781 C 7.910156 -14.640625 7.902344 -14.707031 7.886719 -14.757812 C 7.882812 -14.765625 7.882812 -14.773438 7.878906 -14.777344 C 7.882812 -14.773438 7.882812 -14.769531 7.886719 -14.765625 C 7.890625 -14.761719 7.894531 -14.757812 7.898438 -14.757812 C 7.894531 -14.757812 7.890625 -14.761719 7.878906 -14.765625 C 7.832031 -14.78125 7.761719 -14.789062 7.671875 -14.789062 L 4.941406 -14.761719 L 4.933594 -15.617188 L 5.789062 -15.617188 L 5.789062 -9.425781 L 4.933594 -9.425781 Z M 4.074219 -8.5625 L 4.074219 -16.464844 L 7.671875 -16.5 C 8.273438 -16.5 8.75 -16.328125 9.097656 -15.976562 C 9.449219 -15.625 9.625 -15.152344 9.625 -14.550781 L 9.625 -10.550781 C 9.625 -9.945312 9.449219 -9.472656 9.097656 -9.121094 C 8.75 -8.773438 8.277344 -8.597656 7.679688 -8.597656 L 4.941406 -8.570312 Z M 4.074219 -8.5625 "/></g></g><g style="fill:#b21a22;fill-opacity:1;"><g transform="translate(74.756972, 44.565522)"><path style="stroke:none" d="M 13.160156 -18.742188 L 13.160156 -16 C 13.160156 -15.621094 13.042969 -15.308594 12.816406 -15.066406 C 12.574219 -14.808594 12.257812 -14.679688 11.863281 -14.679688 L 5.097656 -14.679688 L 5.097656 -15.535156 L 5.953125 -15.535156 L 5.953125 -11.316406 L 5.097656 -11.316406 L 5.097656 -12.171875 L 10.246094 -12.171875 C 10.640625 -12.171875 10.957031 -12.042969 11.199219 -11.785156 C 11.429688 -11.542969 11.542969 -11.230469 11.542969 -10.851562 L 11.542969 -8.136719 C 11.542969 -7.757812 11.429688 -7.445312 11.199219 -7.203125 C 10.957031 -6.945312 10.640625 -6.816406 10.246094 -6.816406 L 5.097656 -6.816406 L 5.097656 -7.671875 L 5.953125 -7.671875 L 5.953125 -3.617188 L 5.097656 -3.617188 L 5.097656 -4.472656 L 11.863281 -4.472656 C 12.246094 -4.472656 12.558594 -4.351562 12.796875 -4.113281 C 13.039062 -3.871094 13.160156 -3.5625 13.160156 -3.179688 L 13.160156 -0.4375 C 13.160156 -0.0546875 13.039062 0.253906 12.796875 0.496094 C 12.558594 0.734375 12.246094 0.855469 11.863281 0.855469 L 1.78125 0.855469 C 1.398438 0.855469 1.085938 0.730469 0.847656 0.476562 C 0.625 0.238281 0.515625 -0.0664062 0.515625 -0.4375 L 0.515625 -18.742188 C 0.515625 -19.113281 0.625 -19.417969 0.847656 -19.65625 C 1.085938 -19.910156 1.398438 -20.035156 1.78125 -20.035156 L 11.863281 -20.035156 C 12.246094 -20.035156 12.558594 -19.914062 12.796875 -19.675781 C 13.039062 -19.433594 13.160156 -19.125 13.160156 -18.742188 Z M 11.445312 -18.742188 C 11.445312 -18.722656 11.453125 -18.695312 11.460938 -18.664062 C 11.488281 -18.589844 11.527344 -18.523438 11.585938 -18.464844 C 11.644531 -18.40625 11.710938 -18.363281 11.785156 -18.339844 C 11.816406 -18.328125 11.84375 -18.324219 11.863281 -18.324219 L 1.78125 -18.324219 C 1.890625 -18.324219 1.996094 -18.378906 2.097656 -18.484375 C 2.152344 -18.542969 2.191406 -18.609375 2.214844 -18.679688 C 2.222656 -18.707031 2.226562 -18.726562 2.226562 -18.742188 L 2.226562 -0.4375 C 2.226562 -0.453125 2.222656 -0.472656 2.214844 -0.503906 C 2.191406 -0.570312 2.152344 -0.636719 2.097656 -0.695312 C 1.996094 -0.800781 1.890625 -0.855469 1.78125 -0.855469 L 11.863281 -0.855469 C 11.84375 -0.855469 11.816406 -0.851562 11.785156 -0.839844 C 11.710938 -0.816406 11.644531 -0.773438 11.585938 -0.714844 C 11.527344 -0.65625 11.488281 -0.589844 11.460938 -0.515625 C 11.453125 -0.484375 11.445312 -0.457031 11.445312 -0.4375 L 11.445312 -3.179688 C 11.445312 -3.160156 11.453125 -3.132812 11.460938 -3.097656 C 11.488281 -3.027344 11.527344 -2.960938 11.585938 -2.902344 C 11.644531 -2.84375 11.710938 -2.800781 11.785156 -2.777344 C 11.816406 -2.765625 11.84375 -2.761719 11.863281 -2.761719 L 4.238281 -2.761719 L 4.238281 -8.527344 L 10.246094 -8.527344 C 10.222656 -8.527344 10.191406 -8.523438 10.152344 -8.507812 C 10.078125 -8.480469 10.011719 -8.4375 9.953125 -8.375 C 9.898438 -8.320312 9.863281 -8.257812 9.839844 -8.191406 C 9.832031 -8.164062 9.828125 -8.148438 9.828125 -8.136719 L 9.828125 -10.851562 C 9.828125 -10.839844 9.832031 -10.824219 9.839844 -10.796875 C 9.863281 -10.730469 9.898438 -10.667969 9.953125 -10.613281 C 10.011719 -10.550781 10.078125 -10.507812 10.152344 -10.480469 C 10.191406 -10.464844 10.222656 -10.460938 10.246094 -10.460938 L 4.238281 -10.460938 L 4.238281 -16.390625 L 11.863281 -16.390625 C 11.839844 -16.390625 11.808594 -16.386719 11.769531 -16.371094 C 11.695312 -16.34375 11.628906 -16.300781 11.570312 -16.238281 C 11.515625 -16.183594 11.480469 -16.121094 11.457031 -16.054688 C 11.449219 -16.027344 11.445312 -16.011719 11.445312 -16 Z M 11.445312 -18.742188 "/></g></g><g style="fill:#b21a22;fill-opacity:1;"><g transform="translate(88.42512, 44.565522)"><path style="stroke:none" d="M 13.214844 -15.234375 L 13.214844 -12.273438 C 13.214844 -11.890625 13.09375 -11.582031 12.851562 -11.339844 C 12.613281 -11.101562 12.300781 -10.980469 11.917969 -10.980469 L 9.34375 -10.980469 C 8.960938 -10.980469 8.648438 -11.101562 8.410156 -11.339844 C 8.167969 -11.582031 8.046875 -11.890625 8.046875 -12.273438 L 8.046875 -14.523438 C 8.046875 -14.613281 8.039062 -14.679688 8.023438 -14.730469 C 8.019531 -14.738281 8.019531 -14.746094 8.015625 -14.75 C 8.019531 -14.746094 8.019531 -14.742188 8.027344 -14.738281 C 8.03125 -14.734375 8.03125 -14.730469 8.035156 -14.730469 C 8.03125 -14.730469 8.027344 -14.734375 8.019531 -14.738281 C 7.96875 -14.753906 7.898438 -14.761719 7.808594 -14.761719 L 6.054688 -14.761719 C 5.964844 -14.761719 5.894531 -14.753906 5.847656 -14.738281 C 5.835938 -14.734375 5.832031 -14.730469 5.828125 -14.730469 C 5.832031 -14.730469 5.835938 -14.734375 5.839844 -14.738281 C 5.84375 -14.742188 5.847656 -14.746094 5.847656 -14.75 C 5.847656 -14.746094 5.84375 -14.738281 5.839844 -14.730469 C 5.824219 -14.679688 5.816406 -14.613281 5.816406 -14.523438 L 5.816406 -4.574219 C 5.816406 -4.484375 5.824219 -4.417969 5.839844 -4.367188 C 5.84375 -4.359375 5.847656 -4.351562 5.847656 -4.347656 C 5.847656 -4.351562 5.84375 -4.355469 5.839844 -4.359375 C 5.835938 -4.363281 5.832031 -4.367188 5.828125 -4.367188 C 5.832031 -4.367188 5.835938 -4.363281 5.847656 -4.359375 C 5.894531 -4.34375 5.964844 -4.335938 6.054688 -4.335938 L 7.808594 -4.335938 C 7.898438 -4.335938 7.96875 -4.34375 8.019531 -4.359375 C 8.027344 -4.363281 8.03125 -4.367188 8.035156 -4.367188 C 8.03125 -4.367188 8.03125 -4.363281 8.027344 -4.359375 C 8.019531 -4.355469 8.019531 -4.351562 8.015625 -4.347656 C 8.019531 -4.351562 8.019531 -4.359375 8.023438 -4.367188 C 8.039062 -4.417969 8.046875 -4.484375 8.046875 -4.574219 L 8.046875 -6.90625 C 8.046875 -7.289062 8.167969 -7.597656 8.410156 -7.839844 C 8.648438 -8.078125 8.960938 -8.199219 9.34375 -8.199219 L 11.917969 -8.199219 C 12.300781 -8.199219 12.613281 -8.078125 12.851562 -7.839844 C 13.09375 -7.597656 13.214844 -7.289062 13.214844 -6.90625 L 13.214844 -3.945312 C 13.214844 -2.429688 12.792969 -1.25 11.949219 -0.410156 C 11.105469 0.433594 9.925781 0.855469 8.410156 0.855469 L 5.34375 0.855469 C 3.828125 0.855469 2.648438 0.4375 1.796875 -0.402344 C 0.941406 -1.246094 0.515625 -2.429688 0.515625 -3.945312 L 0.515625 -15.234375 C 0.515625 -16.773438 0.941406 -17.957031 1.800781 -18.792969 C 2.652344 -19.621094 3.832031 -20.035156 5.34375 -20.035156 L 8.410156 -20.035156 C 9.925781 -20.035156 11.101562 -19.621094 11.945312 -18.789062 C 12.789062 -17.953125 13.214844 -16.769531 13.214844 -15.234375 Z M 11.5 -15.234375 C 11.5 -16.292969 11.246094 -17.070312 10.742188 -17.570312 C 10.234375 -18.074219 9.457031 -18.324219 8.410156 -18.324219 L 5.34375 -18.324219 C 4.296875 -18.324219 3.511719 -18.070312 2.996094 -17.566406 C 2.484375 -17.066406 2.226562 -16.289062 2.226562 -15.234375 L 2.226562 -3.945312 C 2.226562 -2.90625 2.484375 -2.132812 3 -1.625 C 3.515625 -1.113281 4.296875 -0.855469 5.34375 -0.855469 L 8.410156 -0.855469 C 9.453125 -0.855469 10.230469 -1.109375 10.738281 -1.621094 C 11.246094 -2.128906 11.5 -2.902344 11.5 -3.945312 L 11.5 -6.90625 C 11.5 -6.886719 11.507812 -6.859375 11.515625 -6.824219 C 11.542969 -6.753906 11.582031 -6.6875 11.640625 -6.628906 C 11.699219 -6.570312 11.765625 -6.527344 11.839844 -6.503906 C 11.871094 -6.492188 11.898438 -6.488281 11.917969 -6.488281 L 9.34375 -6.488281 C 9.363281 -6.488281 9.390625 -6.492188 9.421875 -6.503906 C 9.496094 -6.527344 9.5625 -6.570312 9.621094 -6.628906 C 9.679688 -6.6875 9.71875 -6.753906 9.746094 -6.824219 C 9.753906 -6.859375 9.761719 -6.886719 9.761719 -6.90625 L 9.761719 -4.574219 C 9.761719 -3.972656 9.585938 -3.5 9.238281 -3.148438 C 8.886719 -2.796875 8.410156 -2.625 7.808594 -2.625 L 6.054688 -2.625 C 5.453125 -2.625 4.976562 -2.796875 4.628906 -3.148438 C 4.277344 -3.5 4.101562 -3.972656 4.101562 -4.574219 L 4.101562 -14.523438 C 4.101562 -15.125 4.277344 -15.597656 4.628906 -15.949219 C 4.976562 -16.300781 5.453125 -16.472656 6.054688 -16.472656 L 7.808594 -16.472656 C 8.410156 -16.472656 8.886719 -16.300781 9.238281 -15.949219 C 9.585938 -15.597656 9.761719 -15.125 9.761719 -14.523438 L 9.761719 -12.273438 C 9.761719 -12.292969 9.753906 -12.320312 9.746094 -12.355469 C 9.71875 -12.425781 9.679688 -12.492188 9.621094 -12.550781 C 9.5625 -12.609375 9.496094 -12.652344 9.421875 -12.675781 C 9.390625 -12.6875 9.363281 -12.691406 9.34375 -12.691406 L 11.917969 -12.691406 C 11.898438 -12.691406 11.871094 -12.6875 11.839844 -12.675781 C 11.765625 -12.652344 11.699219 -12.609375 11.640625 -12.550781 C 11.582031 -12.492188 11.542969 -12.425781 11.515625 -12.355469 C 11.507812 -12.320312 11.5 -12.292969 11.5 -12.273438 Z M 11.5 -15.234375 "/></g></g><g style="fill:#b21a22;fill-opacity:1;"><g transform="translate(102.148059, 44.565522)"><path style="stroke:none" d="M 0.515625 -8.605469 L 0.515625 -11.125 C 0.515625 -11.542969 0.644531 -11.882812 0.902344 -12.140625 C 1.160156 -12.398438 1.5 -12.527344 1.917969 -12.527344 L 6.246094 -12.527344 C 6.667969 -12.527344 7.003906 -12.398438 7.261719 -12.140625 C 7.523438 -11.882812 7.652344 -11.542969 7.652344 -11.125 L 7.652344 -8.605469 C 7.652344 -8.183594 7.523438 -7.84375 7.261719 -7.585938 C 7.003906 -7.328125 6.667969 -7.199219 6.246094 -7.199219 L 1.917969 -7.199219 C 1.5 -7.199219 1.160156 -7.328125 0.902344 -7.585938 C 0.644531 -7.84375 0.515625 -8.183594 0.515625 -8.605469 Z M 2.226562 -8.605469 C 2.226562 -8.601562 2.226562 -8.597656 2.226562 -8.59375 C 2.226562 -8.59375 2.226562 -8.59375 2.226562 -8.597656 C 2.226562 -8.605469 2.222656 -8.621094 2.214844 -8.632812 C 2.195312 -8.695312 2.164062 -8.75 2.113281 -8.796875 C 2.0625 -8.847656 2.007812 -8.882812 1.949219 -8.902344 C 1.933594 -8.90625 1.921875 -8.910156 1.910156 -8.910156 C 1.910156 -8.910156 1.914062 -8.910156 1.917969 -8.910156 L 6.246094 -8.910156 C 6.25 -8.910156 6.253906 -8.910156 6.257812 -8.910156 C 6.257812 -8.910156 6.253906 -8.910156 6.253906 -8.910156 C 6.242188 -8.910156 6.230469 -8.90625 6.214844 -8.902344 C 6.15625 -8.882812 6.101562 -8.847656 6.050781 -8.796875 C 6.003906 -8.75 5.96875 -8.695312 5.949219 -8.632812 C 5.945312 -8.621094 5.941406 -8.605469 5.9375 -8.597656 C 5.9375 -8.59375 5.9375 -8.59375 5.9375 -8.59375 C 5.9375 -8.597656 5.9375 -8.601562 5.9375 -8.605469 L 5.9375 -11.125 C 5.9375 -11.128906 5.9375 -11.132812 5.9375 -11.132812 C 5.941406 -11.121094 5.945312 -11.109375 5.949219 -11.09375 C 5.96875 -11.035156 6.003906 -10.980469 6.050781 -10.929688 C 6.101562 -10.878906 6.15625 -10.84375 6.214844 -10.824219 C 6.230469 -10.820312 6.242188 -10.816406 6.253906 -10.816406 C 6.253906 -10.816406 6.257812 -10.816406 6.257812 -10.816406 C 6.253906 -10.816406 6.25 -10.816406 6.246094 -10.816406 L 1.917969 -10.816406 C 1.914062 -10.816406 1.910156 -10.816406 1.910156 -10.816406 C 1.921875 -10.816406 1.933594 -10.820312 1.949219 -10.824219 C 2.007812 -10.84375 2.0625 -10.878906 2.113281 -10.929688 C 2.164062 -10.980469 2.195312 -11.035156 2.214844 -11.09375 C 2.222656 -11.109375 2.226562 -11.121094 2.226562 -11.132812 C 2.226562 -11.132812 2.226562 -11.128906 2.226562 -11.125 Z M 2.226562 -8.605469 "/></g></g><g style="fill:#b21a22;fill-opacity:1;"><g transform="translate(15.785843, 82.765424)"><path style="stroke:none" d="M 5.316406 -20.035156 L 8.382812 -20.035156 C 9.917969 -20.035156 11.101562 -19.621094 11.933594 -18.785156 C 12.769531 -17.953125 13.1875 -16.769531 13.1875 -15.234375 L 13.1875 -13.425781 C 13.1875 -13.042969 13.066406 -12.730469 12.824219 -12.492188 C 12.585938 -12.25 12.273438 -12.132812 11.890625 -12.132812 L 9.125 -12.132812 C 8.742188 -12.132812 8.429688 -12.25 8.191406 -12.492188 C 7.949219 -12.730469 7.828125 -13.042969 7.828125 -13.425781 L 7.828125 -14.578125 C 7.828125 -14.667969 7.820312 -14.734375 7.804688 -14.785156 C 7.800781 -14.792969 7.800781 -14.800781 7.796875 -14.804688 C 7.800781 -14.800781 7.800781 -14.796875 7.804688 -14.792969 C 7.808594 -14.789062 7.8125 -14.785156 7.816406 -14.785156 C 7.8125 -14.785156 7.808594 -14.789062 7.796875 -14.792969 C 7.75 -14.808594 7.679688 -14.816406 7.589844 -14.816406 L 6.082031 -14.816406 C 5.992188 -14.816406 5.921875 -14.808594 5.875 -14.792969 C 5.863281 -14.789062 5.859375 -14.785156 5.855469 -14.785156 C 5.859375 -14.785156 5.863281 -14.789062 5.867188 -14.792969 C 5.871094 -14.796875 5.875 -14.800781 5.875 -14.804688 C 5.875 -14.800781 5.871094 -14.792969 5.867188 -14.785156 C 5.851562 -14.734375 5.84375 -14.667969 5.84375 -14.578125 L 5.84375 -12.246094 L 4.988281 -12.246094 L 5.25 -13.0625 L 11.878906 -10.925781 C 12.304688 -10.777344 12.628906 -10.546875 12.851562 -10.226562 C 13.074219 -9.910156 13.1875 -9.53125 13.1875 -9.097656 L 13.1875 -3.945312 C 13.1875 -2.433594 12.769531 -1.253906 11.9375 -0.414062 C 11.105469 0.433594 9.921875 0.855469 8.382812 0.855469 L 5.316406 0.855469 C 3.800781 0.855469 2.621094 0.433594 1.777344 -0.410156 C 0.933594 -1.25 0.515625 -2.429688 0.515625 -3.945312 L 0.515625 -5.726562 C 0.515625 -6.109375 0.632812 -6.421875 0.875 -6.660156 C 1.113281 -6.902344 1.425781 -7.019531 1.808594 -7.019531 L 4.574219 -7.019531 C 4.957031 -7.019531 5.269531 -6.902344 5.511719 -6.660156 C 5.75 -6.421875 5.871094 -6.109375 5.871094 -5.726562 L 5.871094 -4.574219 C 5.871094 -4.484375 5.878906 -4.417969 5.894531 -4.367188 C 5.898438 -4.359375 5.902344 -4.351562 5.902344 -4.347656 C 5.902344 -4.351562 5.898438 -4.355469 5.894531 -4.359375 C 5.890625 -4.363281 5.886719 -4.367188 5.882812 -4.367188 C 5.886719 -4.367188 5.890625 -4.363281 5.902344 -4.359375 C 5.949219 -4.34375 6.019531 -4.335938 6.109375 -4.335938 L 7.589844 -4.335938 C 7.679688 -4.335938 7.75 -4.34375 7.796875 -4.359375 C 7.808594 -4.363281 7.8125 -4.367188 7.816406 -4.367188 C 7.8125 -4.367188 7.808594 -4.363281 7.804688 -4.359375 C 7.800781 -4.355469 7.800781 -4.351562 7.796875 -4.347656 C 7.800781 -4.351562 7.800781 -4.359375 7.804688 -4.367188 C 7.820312 -4.417969 7.828125 -4.484375 7.828125 -4.574219 L 7.828125 -7.34375 L 8.6875 -7.34375 L 8.421875 -6.527344 L 1.84375 -8.664062 C 1.421875 -8.808594 1.09375 -9.035156 0.863281 -9.351562 C 0.628906 -9.671875 0.515625 -10.050781 0.515625 -10.492188 L 0.515625 -15.234375 C 0.515625 -16.769531 0.9375 -17.953125 1.78125 -18.789062 C 2.625 -19.621094 3.800781 -20.035156 5.316406 -20.035156 Z M 5.316406 -18.324219 C 4.269531 -18.324219 3.496094 -18.074219 2.984375 -17.570312 C 2.480469 -17.070312 2.226562 -16.292969 2.226562 -15.234375 L 2.226562 -10.492188 C 2.226562 -10.425781 2.234375 -10.378906 2.246094 -10.363281 C 2.261719 -10.339844 2.304688 -10.316406 2.375 -10.292969 L 9.542969 -7.964844 L 9.542969 -4.574219 C 9.542969 -3.972656 9.367188 -3.5 9.015625 -3.148438 C 8.667969 -2.796875 8.191406 -2.625 7.589844 -2.625 L 6.109375 -2.625 C 5.507812 -2.625 5.03125 -2.796875 4.683594 -3.148438 C 4.332031 -3.5 4.15625 -3.972656 4.15625 -4.574219 L 4.15625 -5.726562 C 4.15625 -5.707031 4.164062 -5.679688 4.175781 -5.648438 C 4.199219 -5.574219 4.242188 -5.507812 4.300781 -5.449219 C 4.359375 -5.390625 4.421875 -5.347656 4.496094 -5.324219 C 4.53125 -5.3125 4.554688 -5.308594 4.574219 -5.308594 L 1.808594 -5.308594 C 1.828125 -5.308594 1.855469 -5.3125 1.886719 -5.324219 C 1.960938 -5.347656 2.027344 -5.390625 2.085938 -5.449219 C 2.144531 -5.507812 2.183594 -5.574219 2.210938 -5.648438 C 2.222656 -5.679688 2.226562 -5.707031 2.226562 -5.726562 L 2.226562 -3.945312 C 2.226562 -2.902344 2.480469 -2.128906 2.988281 -1.621094 C 3.496094 -1.109375 4.273438 -0.855469 5.316406 -0.855469 L 8.382812 -0.855469 C 9.441406 -0.855469 10.222656 -1.109375 10.71875 -1.613281 C 11.222656 -2.125 11.472656 -2.902344 11.472656 -3.945312 L 11.472656 -9.097656 C 11.472656 -9.171875 11.464844 -9.21875 11.449219 -9.242188 C 11.4375 -9.257812 11.40625 -9.277344 11.355469 -9.296875 L 4.128906 -11.625 L 4.128906 -14.578125 C 4.128906 -15.179688 4.304688 -15.652344 4.65625 -16.003906 C 5.003906 -16.355469 5.480469 -16.527344 6.082031 -16.527344 L 7.589844 -16.527344 C 8.191406 -16.527344 8.667969 -16.355469 9.015625 -16.003906 C 9.367188 -15.652344 9.542969 -15.179688 9.542969 -14.578125 L 9.542969 -13.425781 C 9.542969 -13.445312 9.535156 -13.472656 9.527344 -13.503906 C 9.5 -13.578125 9.460938 -13.644531 9.402344 -13.703125 C 9.34375 -13.761719 9.277344 -13.804688 9.203125 -13.828125 C 9.171875 -13.839844 9.144531 -13.84375 9.125 -13.84375 L 11.890625 -13.84375 C 11.871094 -13.84375 11.84375 -13.839844 11.8125 -13.828125 C 11.738281 -13.804688 11.671875 -13.761719 11.613281 -13.703125 C 11.554688 -13.644531 11.515625 -13.578125 11.488281 -13.503906 C 11.480469 -13.472656 11.472656 -13.445312 11.472656 -13.425781 L 11.472656 -15.234375 C 11.472656 -16.292969 11.222656 -17.074219 10.722656 -17.574219 C 10.226562 -18.074219 9.445312 -18.324219 8.382812 -18.324219 Z M 5.316406 -18.324219 "/></g></g><g style="fill:#b21a22;fill-opacity:1;"><g transform="translate(29.481386, 82.765424)"><path style="stroke:none" d="M 11.34375 -18.324219 L 1.261719 -18.324219 C 1.28125 -18.324219 1.304688 -18.328125 1.339844 -18.339844 C 1.414062 -18.363281 1.476562 -18.40625 1.535156 -18.464844 C 1.597656 -18.523438 1.636719 -18.589844 1.660156 -18.664062 C 1.671875 -18.695312 1.679688 -18.722656 1.679688 -18.742188 L 1.679688 -16 C 1.679688 -16.019531 1.671875 -16.046875 1.660156 -16.082031 C 1.636719 -16.152344 1.597656 -16.21875 1.535156 -16.277344 C 1.476562 -16.335938 1.414062 -16.378906 1.339844 -16.402344 C 1.304688 -16.414062 1.28125 -16.417969 1.261719 -16.417969 L 5.296875 -16.417969 L 5.296875 -0.4375 C 5.296875 -0.457031 5.289062 -0.484375 5.277344 -0.515625 C 5.253906 -0.589844 5.210938 -0.65625 5.152344 -0.714844 C 5.09375 -0.773438 5.027344 -0.816406 4.957031 -0.839844 C 4.921875 -0.851562 4.898438 -0.855469 4.878906 -0.855469 L 7.726562 -0.855469 C 7.707031 -0.855469 7.679688 -0.851562 7.648438 -0.839844 C 7.574219 -0.816406 7.507812 -0.773438 7.449219 -0.714844 C 7.390625 -0.65625 7.351562 -0.589844 7.324219 -0.515625 C 7.3125 -0.484375 7.308594 -0.457031 7.308594 -0.4375 L 7.308594 -16.417969 L 11.34375 -16.417969 C 11.324219 -16.417969 11.296875 -16.414062 11.265625 -16.402344 C 11.191406 -16.378906 11.125 -16.335938 11.066406 -16.277344 C 11.007812 -16.21875 10.964844 -16.152344 10.941406 -16.082031 C 10.929688 -16.046875 10.925781 -16.019531 10.925781 -16 L 10.925781 -18.742188 C 10.925781 -18.722656 10.929688 -18.695312 10.941406 -18.664062 C 10.964844 -18.589844 11.007812 -18.523438 11.066406 -18.464844 C 11.125 -18.40625 11.191406 -18.363281 11.265625 -18.339844 C 11.296875 -18.328125 11.324219 -18.324219 11.34375 -18.324219 Z M 11.34375 -20.035156 C 11.726562 -20.035156 12.039062 -19.914062 12.277344 -19.675781 C 12.519531 -19.433594 12.636719 -19.125 12.636719 -18.742188 L 12.636719 -16 C 12.636719 -15.617188 12.519531 -15.308594 12.277344 -15.066406 C 12.039062 -14.828125 11.726562 -14.707031 11.34375 -14.707031 L 8.164062 -14.707031 L 8.164062 -15.5625 L 9.019531 -15.5625 L 9.019531 -0.4375 C 9.019531 -0.0546875 8.902344 0.253906 8.660156 0.496094 C 8.421875 0.734375 8.109375 0.855469 7.726562 0.855469 L 4.878906 0.855469 C 4.496094 0.855469 4.183594 0.734375 3.941406 0.496094 C 3.703125 0.253906 3.582031 -0.0546875 3.582031 -0.4375 L 3.582031 -15.5625 L 4.4375 -15.5625 L 4.4375 -14.707031 L 1.261719 -14.707031 C 0.878906 -14.707031 0.566406 -14.828125 0.324219 -15.066406 C 0.0859375 -15.308594 -0.0351562 -15.617188 -0.0351562 -16 L -0.0351562 -18.742188 C -0.0351562 -19.125 0.0859375 -19.433594 0.324219 -19.675781 C 0.566406 -19.914062 0.878906 -20.035156 1.261719 -20.035156 Z M 11.34375 -20.035156 "/></g></g><g style="fill:#b21a22;fill-opacity:1;"><g transform="translate(42.081288, 82.765424)"><path style="stroke:none" d="M 9.261719 -20.035156 L 11.78125 -20.035156 C 12.164062 -20.035156 12.496094 -19.898438 12.769531 -19.621094 C 13.046875 -19.34375 13.1875 -19.015625 13.1875 -18.632812 L 13.1875 -3.945312 C 13.1875 -2.433594 12.769531 -1.253906 11.9375 -0.414062 C 11.105469 0.433594 9.921875 0.855469 8.382812 0.855469 L 5.316406 0.855469 C 3.800781 0.855469 2.621094 0.433594 1.777344 -0.410156 C 0.933594 -1.25 0.515625 -2.429688 0.515625 -3.945312 L 0.515625 -18.632812 C 0.515625 -19.015625 0.652344 -19.34375 0.929688 -19.621094 C 1.207031 -19.898438 1.535156 -20.035156 1.917969 -20.035156 L 4.546875 -20.035156 C 4.929688 -20.035156 5.261719 -19.898438 5.539062 -19.621094 C 5.8125 -19.34375 5.953125 -19.015625 5.953125 -18.632812 L 5.953125 -4.710938 C 5.953125 -4.621094 5.960938 -4.554688 5.976562 -4.503906 C 5.980469 -4.496094 5.984375 -4.488281 5.984375 -4.484375 C 5.984375 -4.488281 5.980469 -4.492188 5.976562 -4.496094 C 5.972656 -4.5 5.96875 -4.503906 5.964844 -4.503906 C 5.96875 -4.503906 5.972656 -4.5 5.984375 -4.496094 C 6.03125 -4.480469 6.101562 -4.472656 6.191406 -4.472656 L 7.617188 -4.472656 C 7.707031 -4.472656 7.777344 -4.480469 7.824219 -4.496094 C 7.835938 -4.5 7.839844 -4.503906 7.84375 -4.503906 C 7.839844 -4.503906 7.835938 -4.5 7.832031 -4.496094 C 7.828125 -4.492188 7.828125 -4.488281 7.824219 -4.484375 C 7.828125 -4.488281 7.828125 -4.496094 7.832031 -4.503906 C 7.847656 -4.554688 7.855469 -4.621094 7.855469 -4.710938 L 7.855469 -18.632812 C 7.855469 -19.015625 7.996094 -19.34375 8.273438 -19.621094 C 8.546875 -19.898438 8.878906 -20.035156 9.261719 -20.035156 Z M 9.261719 -18.324219 C 9.351562 -18.324219 9.425781 -18.351562 9.484375 -18.410156 C 9.539062 -18.46875 9.570312 -18.542969 9.570312 -18.632812 L 9.570312 -4.710938 C 9.570312 -4.109375 9.394531 -3.636719 9.042969 -3.285156 C 8.695312 -2.933594 8.21875 -2.761719 7.617188 -2.761719 L 6.191406 -2.761719 C 5.589844 -2.761719 5.113281 -2.933594 4.765625 -3.285156 C 4.414062 -3.636719 4.238281 -4.109375 4.238281 -4.710938 L 4.238281 -18.632812 C 4.238281 -18.542969 4.269531 -18.46875 4.328125 -18.410156 C 4.382812 -18.351562 4.457031 -18.324219 4.546875 -18.324219 L 1.917969 -18.324219 C 2.007812 -18.324219 2.082031 -18.351562 2.140625 -18.410156 C 2.199219 -18.46875 2.226562 -18.542969 2.226562 -18.632812 L 2.226562 -3.945312 C 2.226562 -2.902344 2.480469 -2.128906 2.988281 -1.621094 C 3.496094 -1.109375 4.273438 -0.855469 5.316406 -0.855469 L 8.382812 -0.855469 C 9.441406 -0.855469 10.222656 -1.109375 10.71875 -1.613281 C 11.222656 -2.125 11.472656 -2.902344 11.472656 -3.945312 L 11.472656 -18.632812 C 11.472656 -18.542969 11.503906 -18.46875 11.558594 -18.410156 C 11.617188 -18.351562 11.691406 -18.324219 11.78125 -18.324219 Z M 9.261719 -18.324219 "/></g></g><g style="fill:#b21a22;fill-opacity:1;"><g transform="translate(55.776831, 82.765424)"><path style="stroke:none" d="M 13.214844 -15.234375 L 13.214844 -11.535156 C 13.214844 -10.796875 12.972656 -10.171875 12.484375 -9.660156 C 12.027344 -9.175781 11.464844 -8.875 10.785156 -8.746094 L 10.632812 -9.589844 L 11.488281 -9.589844 L 11.488281 -9.535156 L 10.632812 -9.535156 L 10.757812 -10.382812 C 11.449219 -10.28125 12.027344 -9.976562 12.492188 -9.472656 C 12.972656 -8.953125 13.214844 -8.324219 13.214844 -7.589844 L 13.214844 -3.945312 C 13.214844 -2.429688 12.792969 -1.25 11.949219 -0.410156 C 11.105469 0.433594 9.917969 0.855469 8.382812 0.855469 L 1.808594 0.855469 C 1.425781 0.855469 1.113281 0.734375 0.875 0.496094 C 0.632812 0.253906 0.515625 -0.0546875 0.515625 -0.4375 L 0.515625 -18.742188 C 0.515625 -19.125 0.632812 -19.433594 0.875 -19.675781 C 1.113281 -19.914062 1.425781 -20.035156 1.808594 -20.035156 L 8.382812 -20.035156 C 9.914062 -20.035156 11.101562 -19.621094 11.945312 -18.789062 C 12.789062 -17.953125 13.214844 -16.769531 13.214844 -15.234375 Z M 11.5 -15.234375 C 11.5 -16.292969 11.246094 -17.070312 10.742188 -17.570312 C 10.234375 -18.074219 9.445312 -18.324219 8.382812 -18.324219 L 1.808594 -18.324219 C 1.828125 -18.324219 1.855469 -18.328125 1.886719 -18.339844 C 1.960938 -18.363281 2.027344 -18.40625 2.085938 -18.464844 C 2.144531 -18.523438 2.183594 -18.589844 2.210938 -18.664062 C 2.222656 -18.695312 2.226562 -18.722656 2.226562 -18.742188 L 2.226562 -0.4375 C 2.226562 -0.457031 2.222656 -0.484375 2.210938 -0.515625 C 2.183594 -0.589844 2.144531 -0.65625 2.085938 -0.714844 C 2.027344 -0.773438 1.960938 -0.816406 1.886719 -0.839844 C 1.855469 -0.851562 1.828125 -0.855469 1.808594 -0.855469 L 8.382812 -0.855469 C 9.445312 -0.855469 10.230469 -1.109375 10.738281 -1.621094 C 11.246094 -2.128906 11.5 -2.902344 11.5 -3.945312 L 11.5 -7.589844 C 11.5 -7.878906 11.414062 -8.117188 11.234375 -8.308594 C 11.042969 -8.519531 10.800781 -8.644531 10.503906 -8.6875 L 9.773438 -8.796875 L 9.773438 -10.300781 L 10.476562 -10.433594 C 10.785156 -10.488281 11.042969 -10.625 11.242188 -10.835938 C 11.414062 -11.019531 11.5 -11.25 11.5 -11.535156 Z M 8.019531 -12.441406 L 8.019531 -14.632812 C 8.019531 -14.722656 8.011719 -14.792969 7.996094 -14.839844 C 7.992188 -14.847656 7.992188 -14.855469 7.988281 -14.859375 C 7.992188 -14.855469 7.992188 -14.851562 7.996094 -14.847656 C 8.003906 -14.84375 8.003906 -14.839844 8.007812 -14.839844 C 8.003906 -14.839844 8 -14.84375 7.992188 -14.847656 C 7.941406 -14.863281 7.871094 -14.871094 7.78125 -14.871094 L 4.765625 -14.871094 L 4.765625 -15.726562 L 5.625 -15.726562 L 5.625 -11.371094 L 4.765625 -11.371094 L 4.765625 -12.226562 L 7.78125 -12.226562 C 7.875 -12.226562 7.945312 -12.234375 7.996094 -12.253906 C 8.007812 -12.253906 8.011719 -12.257812 8.015625 -12.261719 C 8.015625 -12.257812 8.011719 -12.253906 8.003906 -12.25 C 8 -12.246094 7.996094 -12.242188 7.992188 -12.238281 C 7.996094 -12.238281 7.996094 -12.242188 8 -12.25 C 8.015625 -12.292969 8.019531 -12.355469 8.019531 -12.441406 Z M 9.734375 -12.441406 C 9.734375 -11.84375 9.554688 -11.371094 9.203125 -11.023438 C 8.851562 -10.683594 8.378906 -10.515625 7.78125 -10.515625 L 3.910156 -10.515625 L 3.910156 -16.582031 L 7.78125 -16.582031 C 8.382812 -16.582031 8.859375 -16.410156 9.210938 -16.058594 C 9.558594 -15.710938 9.734375 -15.234375 9.734375 -14.632812 Z M 8.019531 -4.546875 L 8.019531 -6.65625 C 8.019531 -6.75 8.011719 -6.816406 7.996094 -6.867188 C 7.992188 -6.875 7.992188 -6.882812 7.988281 -6.886719 C 7.992188 -6.882812 7.992188 -6.878906 7.996094 -6.875 C 8.003906 -6.871094 8.003906 -6.867188 8.007812 -6.867188 C 8.003906 -6.867188 8 -6.871094 7.992188 -6.875 C 7.941406 -6.890625 7.871094 -6.898438 7.78125 -6.898438 L 4.765625 -6.898438 L 4.765625 -7.753906 L 5.625 -7.753906 L 5.625 -3.453125 L 4.765625 -3.453125 L 4.765625 -4.308594 L 7.78125 -4.308594 C 7.871094 -4.308594 7.941406 -4.316406 7.992188 -4.332031 C 8 -4.335938 8.003906 -4.339844 8.007812 -4.339844 C 8.003906 -4.339844 8.003906 -4.335938 7.996094 -4.332031 C 7.992188 -4.328125 7.992188 -4.324219 7.988281 -4.320312 C 7.992188 -4.324219 7.992188 -4.332031 7.996094 -4.339844 C 8.011719 -4.390625 8.019531 -4.457031 8.019531 -4.546875 Z M 9.734375 -4.546875 C 9.734375 -3.945312 9.558594 -3.472656 9.210938 -3.121094 C 8.859375 -2.769531 8.382812 -2.597656 7.78125 -2.597656 L 3.910156 -2.597656 L 3.910156 -8.609375 L 7.78125 -8.609375 C 8.382812 -8.609375 8.859375 -8.433594 9.210938 -8.085938 C 9.558594 -7.734375 9.734375 -7.261719 9.734375 -6.65625 Z M 9.734375 -4.546875 "/></g></g><g style="fill:#b21a22;fill-opacity:1;"><g transform="translate(69.49977, 82.765424)"><path style="stroke:none" d="M 13.214844 -15.234375 L 13.214844 -11.535156 C 13.214844 -10.796875 12.972656 -10.171875 12.484375 -9.660156 C 12.027344 -9.175781 11.464844 -8.875 10.785156 -8.746094 L 10.632812 -9.589844 L 11.488281 -9.589844 L 11.488281 -9.535156 L 10.632812 -9.535156 L 10.757812 -10.382812 C 11.449219 -10.28125 12.027344 -9.976562 12.492188 -9.472656 C 12.972656 -8.953125 13.214844 -8.324219 13.214844 -7.589844 L 13.214844 -3.945312 C 13.214844 -2.429688 12.792969 -1.25 11.949219 -0.410156 C 11.105469 0.433594 9.917969 0.855469 8.382812 0.855469 L 1.808594 0.855469 C 1.425781 0.855469 1.113281 0.734375 0.875 0.496094 C 0.632812 0.253906 0.515625 -0.0546875 0.515625 -0.4375 L 0.515625 -18.742188 C 0.515625 -19.125 0.632812 -19.433594 0.875 -19.675781 C 1.113281 -19.914062 1.425781 -20.035156 1.808594 -20.035156 L 8.382812 -20.035156 C 9.914062 -20.035156 11.101562 -19.621094 11.945312 -18.789062 C 12.789062 -17.953125 13.214844 -16.769531 13.214844 -15.234375 Z M 11.5 -15.234375 C 11.5 -16.292969 11.246094 -17.070312 10.742188 -17.570312 C 10.234375 -18.074219 9.445312 -18.324219 8.382812 -18.324219 L 1.808594 -18.324219 C 1.828125 -18.324219 1.855469 -18.328125 1.886719 -18.339844 C 1.960938 -18.363281 2.027344 -18.40625 2.085938 -18.464844 C 2.144531 -18.523438 2.183594 -18.589844 2.210938 -18.664062 C 2.222656 -18.695312 2.226562 -18.722656 2.226562 -18.742188 L 2.226562 -0.4375 C 2.226562 -0.457031 2.222656 -0.484375 2.210938 -0.515625 C 2.183594 -0.589844 2.144531 -0.65625 2.085938 -0.714844 C 2.027344 -0.773438 1.960938 -0.816406 1.886719 -0.839844 C 1.855469 -0.851562 1.828125 -0.855469 1.808594 -0.855469 L 8.382812 -0.855469 C 9.445312 -0.855469 10.230469 -1.109375 10.738281 -1.621094 C 11.246094 -2.128906 11.5 -2.902344 11.5 -3.945312 L 11.5 -7.589844 C 11.5 -7.878906 11.414062 -8.117188 11.234375 -8.308594 C 11.042969 -8.519531 10.800781 -8.644531 10.503906 -8.6875 L 9.773438 -8.796875 L 9.773438 -10.300781 L 10.476562 -10.433594 C 10.785156 -10.488281 11.042969 -10.625 11.242188 -10.835938 C 11.414062 -11.019531 11.5 -11.25 11.5 -11.535156 Z M 8.019531 -12.441406 L 8.019531 -14.632812 C 8.019531 -14.722656 8.011719 -14.792969 7.996094 -14.839844 C 7.992188 -14.847656 7.992188 -14.855469 7.988281 -14.859375 C 7.992188 -14.855469 7.992188 -14.851562 7.996094 -14.847656 C 8.003906 -14.84375 8.003906 -14.839844 8.007812 -14.839844 C 8.003906 -14.839844 8 -14.84375 7.992188 -14.847656 C 7.941406 -14.863281 7.871094 -14.871094 7.78125 -14.871094 L 4.765625 -14.871094 L 4.765625 -15.726562 L 5.625 -15.726562 L 5.625 -11.371094 L 4.765625 -11.371094 L 4.765625 -12.226562 L 7.78125 -12.226562 C 7.875 -12.226562 7.945312 -12.234375 7.996094 -12.253906 C 8.007812 -12.253906 8.011719 -12.257812 8.015625 -12.261719 C 8.015625 -12.257812 8.011719 -12.253906 8.003906 -12.25 C 8 -12.246094 7.996094 -12.242188 7.992188 -12.238281 C 7.996094 -12.238281 7.996094 -12.242188 8 -12.25 C 8.015625 -12.292969 8.019531 -12.355469 8.019531 -12.441406 Z M 9.734375 -12.441406 C 9.734375 -11.84375 9.554688 -11.371094 9.203125 -11.023438 C 8.851562 -10.683594 8.378906 -10.515625 7.78125 -10.515625 L 3.910156 -10.515625 L 3.910156 -16.582031 L 7.78125 -16.582031 C 8.382812 -16.582031 8.859375 -16.410156 9.210938 -16.058594 C 9.558594 -15.710938 9.734375 -15.234375 9.734375 -14.632812 Z M 8.019531 -4.546875 L 8.019531 -6.65625 C 8.019531 -6.75 8.011719 -6.816406 7.996094 -6.867188 C 7.992188 -6.875 7.992188 -6.882812 7.988281 -6.886719 C 7.992188 -6.882812 7.992188 -6.878906 7.996094 -6.875 C 8.003906 -6.871094 8.003906 -6.867188 8.007812 -6.867188 C 8.003906 -6.867188 8 -6.871094 7.992188 -6.875 C 7.941406 -6.890625 7.871094 -6.898438 7.78125 -6.898438 L 4.765625 -6.898438 L 4.765625 -7.753906 L 5.625 -7.753906 L 5.625 -3.453125 L 4.765625 -3.453125 L 4.765625 -4.308594 L 7.78125 -4.308594 C 7.871094 -4.308594 7.941406 -4.316406 7.992188 -4.332031 C 8 -4.335938 8.003906 -4.339844 8.007812 -4.339844 C 8.003906 -4.339844 8.003906 -4.335938 7.996094 -4.332031 C 7.992188 -4.328125 7.992188 -4.324219 7.988281 -4.320312 C 7.992188 -4.324219 7.992188 -4.332031 7.996094 -4.339844 C 8.011719 -4.390625 8.019531 -4.457031 8.019531 -4.546875 Z M 9.734375 -4.546875 C 9.734375 -3.945312 9.558594 -3.472656 9.210938 -3.121094 C 8.859375 -2.769531 8.382812 -2.597656 7.78125 -2.597656 L 3.910156 -2.597656 L 3.910156 -8.609375 L 7.78125 -8.609375 C 8.382812 -8.609375 8.859375 -8.433594 9.210938 -8.085938 C 9.558594 -7.734375 9.734375 -7.261719 9.734375 -6.65625 Z M 9.734375 -4.546875 "/></g></g><g style="fill:#b21a22;fill-opacity:1;"><g transform="translate(83.222709, 82.765424)"><path style="stroke:none" d="M 13.160156 -18.742188 L 13.160156 -16 C 13.160156 -15.621094 13.042969 -15.308594 12.816406 -15.066406 C 12.574219 -14.808594 12.257812 -14.679688 11.863281 -14.679688 L 5.097656 -14.679688 L 5.097656 -15.535156 L 5.953125 -15.535156 L 5.953125 -11.316406 L 5.097656 -11.316406 L 5.097656 -12.171875 L 10.246094 -12.171875 C 10.640625 -12.171875 10.957031 -12.042969 11.199219 -11.785156 C 11.429688 -11.542969 11.542969 -11.230469 11.542969 -10.851562 L 11.542969 -8.136719 C 11.542969 -7.757812 11.429688 -7.445312 11.199219 -7.203125 C 10.957031 -6.945312 10.640625 -6.816406 10.246094 -6.816406 L 5.097656 -6.816406 L 5.097656 -7.671875 L 5.953125 -7.671875 L 5.953125 -3.617188 L 5.097656 -3.617188 L 5.097656 -4.472656 L 11.863281 -4.472656 C 12.246094 -4.472656 12.558594 -4.351562 12.796875 -4.113281 C 13.039062 -3.871094 13.160156 -3.5625 13.160156 -3.179688 L 13.160156 -0.4375 C 13.160156 -0.0546875 13.039062 0.253906 12.796875 0.496094 C 12.558594 0.734375 12.246094 0.855469 11.863281 0.855469 L 1.78125 0.855469 C 1.398438 0.855469 1.085938 0.730469 0.847656 0.476562 C 0.625 0.238281 0.515625 -0.0664062 0.515625 -0.4375 L 0.515625 -18.742188 C 0.515625 -19.113281 0.625 -19.417969 0.847656 -19.65625 C 1.085938 -19.910156 1.398438 -20.035156 1.78125 -20.035156 L 11.863281 -20.035156 C 12.246094 -20.035156 12.558594 -19.914062 12.796875 -19.675781 C 13.039062 -19.433594 13.160156 -19.125 13.160156 -18.742188 Z M 11.445312 -18.742188 C 11.445312 -18.722656 11.453125 -18.695312 11.460938 -18.664062 C 11.488281 -18.589844 11.527344 -18.523438 11.585938 -18.464844 C 11.644531 -18.40625 11.710938 -18.363281 11.785156 -18.339844 C 11.816406 -18.328125 11.84375 -18.324219 11.863281 -18.324219 L 1.78125 -18.324219 C 1.890625 -18.324219 1.996094 -18.378906 2.097656 -18.484375 C 2.152344 -18.542969 2.191406 -18.609375 2.214844 -18.679688 C 2.222656 -18.707031 2.226562 -18.726562 2.226562 -18.742188 L 2.226562 -0.4375 C 2.226562 -0.453125 2.222656 -0.472656 2.214844 -0.503906 C 2.191406 -0.570312 2.152344 -0.636719 2.097656 -0.695312 C 1.996094 -0.800781 1.890625 -0.855469 1.78125 -0.855469 L 11.863281 -0.855469 C 11.84375 -0.855469 11.816406 -0.851562 11.785156 -0.839844 C 11.710938 -0.816406 11.644531 -0.773438 11.585938 -0.714844 C 11.527344 -0.65625 11.488281 -0.589844 11.460938 -0.515625 C 11.453125 -0.484375 11.445312 -0.457031 11.445312 -0.4375 L 11.445312 -3.179688 C 11.445312 -3.160156 11.453125 -3.132812 11.460938 -3.097656 C 11.488281 -3.027344 11.527344 -2.960938 11.585938 -2.902344 C 11.644531 -2.84375 11.710938 -2.800781 11.785156 -2.777344 C 11.816406 -2.765625 11.84375 -2.761719 11.863281 -2.761719 L 4.238281 -2.761719 L 4.238281 -8.527344 L 10.246094 -8.527344 C 10.222656 -8.527344 10.191406 -8.523438 10.152344 -8.507812 C 10.078125 -8.480469 10.011719 -8.4375 9.953125 -8.375 C 9.898438 -8.320312 9.863281 -8.257812 9.839844 -8.191406 C 9.832031 -8.164062 9.828125 -8.148438 9.828125 -8.136719 L 9.828125 -10.851562 C 9.828125 -10.839844 9.832031 -10.824219 9.839844 -10.796875 C 9.863281 -10.730469 9.898438 -10.667969 9.953125 -10.613281 C 10.011719 -10.550781 10.078125 -10.507812 10.152344 -10.480469 C 10.191406 -10.464844 10.222656 -10.460938 10.246094 -10.460938 L 4.238281 -10.460938 L 4.238281 -16.390625 L 11.863281 -16.390625 C 11.839844 -16.390625 11.808594 -16.386719 11.769531 -16.371094 C 11.695312 -16.34375 11.628906 -16.300781 11.570312 -16.238281 C 11.515625 -16.183594 11.480469 -16.121094 11.457031 -16.054688 C 11.449219 -16.027344 11.445312 -16.011719 11.445312 -16 Z M 11.445312 -18.742188 "/></g></g><g style="fill:#b21a22;fill-opacity:1;"><g transform="translate(96.890856, 82.765424)"><path style="stroke:none" d="M 0.515625 -0.4375 L 0.515625 -18.742188 C 0.515625 -19.125 0.632812 -19.433594 0.875 -19.675781 C 1.113281 -19.914062 1.425781 -20.035156 1.808594 -20.035156 L 8.382812 -20.035156 C 9.921875 -20.035156 11.105469 -19.613281 11.9375 -18.765625 C 12.769531 -17.925781 13.1875 -16.738281 13.1875 -15.207031 L 13.1875 -3.945312 C 13.1875 -2.433594 12.769531 -1.253906 11.9375 -0.414062 C 11.105469 0.433594 9.921875 0.855469 8.382812 0.855469 L 1.808594 0.855469 C 1.425781 0.855469 1.113281 0.734375 0.875 0.496094 C 0.632812 0.253906 0.515625 -0.0546875 0.515625 -0.4375 Z M 2.226562 -0.4375 C 2.226562 -0.457031 2.222656 -0.484375 2.210938 -0.515625 C 2.183594 -0.589844 2.144531 -0.65625 2.085938 -0.714844 C 2.027344 -0.773438 1.960938 -0.816406 1.886719 -0.839844 C 1.855469 -0.851562 1.828125 -0.855469 1.808594 -0.855469 L 8.382812 -0.855469 C 9.441406 -0.855469 10.222656 -1.109375 10.71875 -1.613281 C 11.222656 -2.125 11.472656 -2.902344 11.472656 -3.945312 L 11.472656 -15.207031 C 11.472656 -16.269531 11.222656 -17.054688 10.71875 -17.566406 C 10.222656 -18.070312 9.441406 -18.324219 8.382812 -18.324219 L 1.808594 -18.324219 C 1.828125 -18.324219 1.855469 -18.328125 1.886719 -18.339844 C 1.960938 -18.363281 2.027344 -18.40625 2.085938 -18.464844 C 2.144531 -18.523438 2.183594 -18.589844 2.210938 -18.664062 C 2.222656 -18.695312 2.226562 -18.722656 2.226562 -18.742188 Z M 5.097656 -4.472656 L 7.617188 -4.472656 C 7.707031 -4.472656 7.777344 -4.480469 7.824219 -4.496094 C 7.835938 -4.5 7.839844 -4.503906 7.84375 -4.503906 C 7.839844 -4.503906 7.835938 -4.5 7.832031 -4.496094 C 7.828125 -4.492188 7.828125 -4.488281 7.824219 -4.484375 C 7.828125 -4.488281 7.828125 -4.496094 7.832031 -4.503906 C 7.847656 -4.554688 7.855469 -4.621094 7.855469 -4.710938 L 7.855469 -14.441406 C 7.855469 -14.535156 7.847656 -14.613281 7.832031 -14.667969 C 7.828125 -14.679688 7.824219 -14.6875 7.820312 -14.691406 C 7.820312 -14.691406 7.824219 -14.6875 7.828125 -14.683594 L 7.820312 -14.683594 C 7.773438 -14.699219 7.703125 -14.707031 7.617188 -14.707031 L 5.097656 -14.707031 L 5.097656 -15.5625 L 5.953125 -15.5625 L 5.953125 -3.617188 L 5.097656 -3.617188 Z M 4.238281 -2.761719 L 4.238281 -16.417969 L 7.617188 -16.417969 C 8.222656 -16.417969 8.703125 -16.238281 9.050781 -15.878906 C 9.398438 -15.527344 9.570312 -15.046875 9.570312 -14.441406 L 9.570312 -4.710938 C 9.570312 -4.109375 9.394531 -3.636719 9.042969 -3.285156 C 8.695312 -2.933594 8.21875 -2.761719 7.617188 -2.761719 Z M 4.238281 -2.761719 "/></g></g><g style="fill:#b21a22;fill-opacity:1;"><g transform="translate(110.5864, 82.765424)"><path style="stroke:none" d="M -0.855469 3.671875 L -0.855469 1.152344 C -0.855469 0.730469 -0.726562 0.394531 -0.46875 0.132812 C -0.210938 -0.125 0.128906 -0.253906 0.546875 -0.253906 L 17.070312 -0.253906 C 17.488281 -0.253906 17.828125 -0.125 18.085938 0.132812 C 18.34375 0.394531 18.472656 0.730469 18.472656 1.152344 L 18.472656 3.671875 C 18.472656 4.089844 18.34375 4.429688 18.085938 4.6875 C 17.828125 4.945312 17.488281 5.074219 17.070312 5.074219 L 0.546875 5.074219 C 0.128906 5.074219 -0.210938 4.945312 -0.46875 4.6875 C -0.726562 4.429688 -0.855469 4.089844 -0.855469 3.671875 Z M 0.855469 3.671875 C 0.855469 3.675781 0.855469 3.679688 0.855469 3.679688 C 0.855469 3.667969 0.851562 3.65625 0.847656 3.640625 C 0.828125 3.582031 0.792969 3.527344 0.742188 3.476562 C 0.691406 3.425781 0.636719 3.394531 0.578125 3.371094 C 0.5625 3.367188 0.550781 3.363281 0.539062 3.363281 C 0.542969 3.363281 0.542969 3.363281 0.546875 3.363281 L 17.070312 3.363281 C 17.074219 3.363281 17.078125 3.363281 17.078125 3.363281 C 17.066406 3.363281 17.054688 3.367188 17.039062 3.371094 C 16.980469 3.394531 16.925781 3.425781 16.875 3.476562 C 16.824219 3.527344 16.792969 3.582031 16.769531 3.640625 C 16.765625 3.65625 16.761719 3.667969 16.761719 3.679688 C 16.761719 3.679688 16.761719 3.675781 16.761719 3.671875 L 16.761719 1.152344 C 16.761719 1.148438 16.761719 1.144531 16.761719 1.140625 C 16.761719 1.140625 16.761719 1.140625 16.761719 1.144531 C 16.761719 1.15625 16.765625 1.167969 16.769531 1.183594 C 16.792969 1.242188 16.824219 1.296875 16.875 1.34375 C 16.925781 1.394531 16.980469 1.429688 17.039062 1.449219 C 17.054688 1.453125 17.066406 1.457031 17.078125 1.460938 C 17.078125 1.460938 17.074219 1.460938 17.070312 1.460938 L 0.546875 1.460938 C 0.542969 1.460938 0.542969 1.460938 0.539062 1.460938 C 0.550781 1.457031 0.5625 1.453125 0.578125 1.449219 C 0.636719 1.429688 0.691406 1.394531 0.742188 1.34375 C 0.792969 1.296875 0.828125 1.242188 0.847656 1.183594 C 0.851562 1.167969 0.855469 1.15625 0.855469 1.144531 C 0.855469 1.140625 0.855469 1.140625 0.855469 1.140625 C 0.855469 1.144531 0.855469 1.148438 0.855469 1.152344 Z M 0.855469 3.671875 "/></g></g><g style="fill:#b21a22;fill-opacity:1;"><g transform="translate(50.77348, 120.965325)"><path style="stroke:none" d="M 13.160156 -18.742188 L 13.160156 -16 C 13.160156 -15.621094 13.042969 -15.308594 12.816406 -15.066406 C 12.574219 -14.808594 12.257812 -14.679688 11.863281 -14.679688 L 5.097656 -14.679688 L 5.097656 -15.535156 L 5.953125 -15.535156 L 5.953125 -11.316406 L 5.097656 -11.316406 L 5.097656 -12.171875 L 10.246094 -12.171875 C 10.640625 -12.171875 10.957031 -12.042969 11.199219 -11.785156 C 11.429688 -11.542969 11.542969 -11.230469 11.542969 -10.851562 L 11.542969 -8.136719 C 11.542969 -7.757812 11.429688 -7.445312 11.199219 -7.203125 C 10.957031 -6.945312 10.640625 -6.816406 10.246094 -6.816406 L 5.097656 -6.816406 L 5.097656 -7.671875 L 5.953125 -7.671875 L 5.953125 -3.617188 L 5.097656 -3.617188 L 5.097656 -4.472656 L 11.863281 -4.472656 C 12.246094 -4.472656 12.558594 -4.351562 12.796875 -4.113281 C 13.039062 -3.871094 13.160156 -3.5625 13.160156 -3.179688 L 13.160156 -0.4375 C 13.160156 -0.0546875 13.039062 0.253906 12.796875 0.496094 C 12.558594 0.734375 12.246094 0.855469 11.863281 0.855469 L 1.78125 0.855469 C 1.398438 0.855469 1.085938 0.730469 0.847656 0.476562 C 0.625 0.238281 0.515625 -0.0664062 0.515625 -0.4375 L 0.515625 -18.742188 C 0.515625 -19.113281 0.625 -19.417969 0.847656 -19.65625 C 1.085938 -19.910156 1.398438 -20.035156 1.78125 -20.035156 L 11.863281 -20.035156 C 12.246094 -20.035156 12.558594 -19.914062 12.796875 -19.675781 C 13.039062 -19.433594 13.160156 -19.125 13.160156 -18.742188 Z M 11.445312 -18.742188 C 11.445312 -18.722656 11.453125 -18.695312 11.460938 -18.664062 C 11.488281 -18.589844 11.527344 -18.523438 11.585938 -18.464844 C 11.644531 -18.40625 11.710938 -18.363281 11.785156 -18.339844 C 11.816406 -18.328125 11.84375 -18.324219 11.863281 -18.324219 L 1.78125 -18.324219 C 1.890625 -18.324219 1.996094 -18.378906 2.097656 -18.484375 C 2.152344 -18.542969 2.191406 -18.609375 2.214844 -18.679688 C 2.222656 -18.707031 2.226562 -18.726562 2.226562 -18.742188 L 2.226562 -0.4375 C 2.226562 -0.453125 2.222656 -0.472656 2.214844 -0.503906 C 2.191406 -0.570312 2.152344 -0.636719 2.097656 -0.695312 C 1.996094 -0.800781 1.890625 -0.855469 1.78125 -0.855469 L 11.863281 -0.855469 C 11.84375 -0.855469 11.816406 -0.851562 11.785156 -0.839844 C 11.710938 -0.816406 11.644531 -0.773438 11.585938 -0.714844 C 11.527344 -0.65625 11.488281 -0.589844 11.460938 -0.515625 C 11.453125 -0.484375 11.445312 -0.457031 11.445312 -0.4375 L 11.445312 -3.179688 C 11.445312 -3.160156 11.453125 -3.132812 11.460938 -3.097656 C 11.488281 -3.027344 11.527344 -2.960938 11.585938 -2.902344 C 11.644531 -2.84375 11.710938 -2.800781 11.785156 -2.777344 C 11.816406 -2.765625 11.84375 -2.761719 11.863281 -2.761719 L 4.238281 -2.761719 L 4.238281 -8.527344 L 10.246094 -8.527344 C 10.222656 -8.527344 10.191406 -8.523438 10.152344 -8.507812 C 10.078125 -8.480469 10.011719 -8.4375 9.953125 -8.375 C 9.898438 -8.320312 9.863281 -8.257812 9.839844 -8.191406 C 9.832031 -8.164062 9.828125 -8.148438 9.828125 -8.136719 L 9.828125 -10.851562 C 9.828125 -10.839844 9.832031 -10.824219 9.839844 -10.796875 C 9.863281 -10.730469 9.898438 -10.667969 9.953125 -10.613281 C 10.011719 -10.550781 10.078125 -10.507812 10.152344 -10.480469 C 10.191406 -10.464844 10.222656 -10.460938 10.246094 -10.460938 L 4.238281 -10.460938 L 4.238281 -16.390625 L 11.863281 -16.390625 C 11.839844 -16.390625 11.808594 -16.386719 11.769531 -16.371094 C 11.695312 -16.34375 11.628906 -16.300781 11.570312 -16.238281 C 11.515625 -16.183594 11.480469 -16.121094 11.457031 -16.054688 C 11.449219 -16.027344 11.445312 -16.011719 11.445312 -16 Z M 11.445312 -18.742188 "/></g></g><g style="fill:#b21a22;fill-opacity:1;"><g transform="translate(64.441628, 120.965325)"><path style="stroke:none" d="M 10.054688 -20.035156 L 12.632812 -20.035156 C 13.015625 -20.035156 13.324219 -19.914062 13.566406 -19.675781 C 13.804688 -19.433594 13.925781 -19.125 13.925781 -18.742188 L 13.925781 -0.4375 C 13.925781 -0.0546875 13.804688 0.253906 13.566406 0.496094 C 13.324219 0.734375 13.015625 0.855469 12.632812 0.855469 L 10.464844 0.855469 C 10.171875 0.855469 9.910156 0.773438 9.675781 0.605469 C 9.472656 0.457031 9.3125 0.257812 9.195312 0.00390625 L 9.972656 -0.355469 L 9.207031 0.0234375 L 4.054688 -10.445312 L 4.824219 -10.824219 L 5.679688 -10.824219 L 5.679688 -0.4375 C 5.679688 -0.0546875 5.558594 0.253906 5.316406 0.496094 C 5.078125 0.734375 4.765625 0.855469 4.382812 0.855469 L 1.808594 0.855469 C 1.425781 0.855469 1.113281 0.734375 0.875 0.496094 C 0.632812 0.253906 0.515625 -0.0546875 0.515625 -0.4375 L 0.515625 -18.742188 C 0.515625 -19.125 0.632812 -19.433594 0.875 -19.675781 C 1.113281 -19.914062 1.425781 -20.035156 1.808594 -20.035156 L 3.972656 -20.035156 C 4.265625 -20.035156 4.53125 -19.953125 4.761719 -19.785156 C 4.964844 -19.636719 5.125 -19.4375 5.242188 -19.183594 L 4.464844 -18.824219 L 5.234375 -19.203125 L 10.386719 -8.734375 L 9.617188 -8.355469 L 8.761719 -8.355469 L 8.761719 -18.742188 C 8.761719 -19.125 8.882812 -19.433594 9.121094 -19.675781 C 9.363281 -19.914062 9.671875 -20.035156 10.054688 -20.035156 Z M 10.054688 -18.324219 C 10.074219 -18.324219 10.101562 -18.328125 10.132812 -18.339844 C 10.207031 -18.363281 10.273438 -18.40625 10.332031 -18.464844 C 10.390625 -18.523438 10.433594 -18.589844 10.457031 -18.664062 C 10.46875 -18.695312 10.472656 -18.722656 10.472656 -18.742188 L 10.472656 -8.355469 L 8.847656 -7.980469 L 3.691406 -18.457031 L 3.6875 -18.464844 C 3.695312 -18.449219 3.71875 -18.425781 3.757812 -18.398438 C 3.828125 -18.347656 3.898438 -18.324219 3.972656 -18.324219 L 1.808594 -18.324219 C 1.828125 -18.324219 1.855469 -18.328125 1.886719 -18.339844 C 1.960938 -18.363281 2.027344 -18.40625 2.085938 -18.464844 C 2.144531 -18.523438 2.183594 -18.589844 2.210938 -18.664062 C 2.222656 -18.695312 2.226562 -18.722656 2.226562 -18.742188 L 2.226562 -0.4375 C 2.226562 -0.457031 2.222656 -0.484375 2.210938 -0.515625 C 2.183594 -0.589844 2.144531 -0.65625 2.085938 -0.714844 C 2.027344 -0.773438 1.960938 -0.816406 1.886719 -0.839844 C 1.855469 -0.851562 1.828125 -0.855469 1.808594 -0.855469 L 4.382812 -0.855469 C 4.363281 -0.855469 4.339844 -0.851562 4.304688 -0.839844 C 4.230469 -0.816406 4.167969 -0.773438 4.105469 -0.714844 C 4.046875 -0.65625 4.007812 -0.589844 3.984375 -0.515625 C 3.972656 -0.484375 3.964844 -0.457031 3.964844 -0.4375 L 3.964844 -10.824219 L 5.589844 -11.199219 L 10.746094 -0.726562 L 10.75 -0.714844 C 10.742188 -0.730469 10.71875 -0.753906 10.679688 -0.785156 C 10.613281 -0.832031 10.542969 -0.855469 10.464844 -0.855469 L 12.632812 -0.855469 C 12.613281 -0.855469 12.585938 -0.851562 12.550781 -0.839844 C 12.480469 -0.816406 12.414062 -0.773438 12.355469 -0.714844 C 12.296875 -0.65625 12.253906 -0.589844 12.230469 -0.515625 C 12.21875 -0.484375 12.214844 -0.457031 12.214844 -0.4375 L 12.214844 -18.742188 C 12.214844 -18.722656 12.21875 -18.695312 12.230469 -18.664062 C 12.253906 -18.589844 12.296875 -18.523438 12.355469 -18.464844 C 12.414062 -18.40625 12.480469 -18.363281 12.550781 -18.339844 C 12.585938 -18.328125 12.613281 -18.324219 12.632812 -18.324219 Z M 10.054688 -18.324219 "/></g></g><g style="fill:#b21a22;fill-opacity:1;"><g transform="translate(78.876735, 120.965325)"><path style="stroke:none" d="M 10.492188 -20.035156 L 12.988281 -20.035156 C 13.46875 -20.035156 13.835938 -19.882812 14.089844 -19.570312 C 14.347656 -19.253906 14.421875 -18.859375 14.316406 -18.386719 L 9.957031 -0.292969 C 9.878906 0.0546875 9.714844 0.332031 9.460938 0.539062 C 9.203125 0.75 8.890625 0.855469 8.519531 0.855469 L 5.78125 0.855469 C 5.421875 0.855469 5.113281 0.75 4.855469 0.539062 C 4.613281 0.34375 4.449219 0.0742188 4.351562 -0.265625 L 4.347656 -0.277344 L 0.015625 -18.378906 C -0.09375 -18.855469 -0.015625 -19.253906 0.242188 -19.570312 C 0.496094 -19.882812 0.863281 -20.035156 1.34375 -20.035156 L 3.835938 -20.035156 C 4.203125 -20.035156 4.515625 -19.929688 4.777344 -19.71875 C 5.027344 -19.511719 5.195312 -19.230469 5.273438 -18.871094 L 7.988281 -6.484375 L 7.152344 -6.300781 L 6.316406 -6.488281 L 9.058594 -18.894531 L 9.066406 -18.914062 C 9.160156 -19.253906 9.328125 -19.523438 9.566406 -19.71875 C 9.828125 -19.929688 10.136719 -20.035156 10.492188 -20.035156 Z M 10.492188 -18.324219 C 10.542969 -18.324219 10.59375 -18.347656 10.652344 -18.394531 C 10.679688 -18.417969 10.703125 -18.441406 10.71875 -18.464844 C 10.71875 -18.46875 10.722656 -18.472656 10.722656 -18.476562 C 10.71875 -18.472656 10.71875 -18.464844 10.714844 -18.457031 L 9.890625 -18.6875 L 10.726562 -18.5 L 7.988281 -6.117188 L 6.316406 -6.117188 L 3.601562 -18.5 C 3.601562 -18.503906 3.601562 -18.507812 3.601562 -18.507812 C 3.601562 -18.503906 3.605469 -18.496094 3.613281 -18.488281 C 3.628906 -18.453125 3.65625 -18.421875 3.691406 -18.394531 C 3.75 -18.347656 3.796875 -18.324219 3.835938 -18.324219 L 1.34375 -18.324219 C 1.332031 -18.324219 1.320312 -18.324219 1.316406 -18.324219 C 1.328125 -18.324219 1.339844 -18.328125 1.355469 -18.332031 C 1.433594 -18.359375 1.503906 -18.410156 1.566406 -18.488281 C 1.628906 -18.566406 1.667969 -18.648438 1.679688 -18.738281 C 1.679688 -18.757812 1.683594 -18.773438 1.679688 -18.785156 C 1.679688 -18.78125 1.679688 -18.78125 1.683594 -18.777344 L 6.011719 -0.691406 L 5.179688 -0.492188 L 6.003906 -0.722656 C 6.003906 -0.714844 6.007812 -0.707031 6.007812 -0.703125 C 6.007812 -0.707031 6.007812 -0.710938 6.003906 -0.714844 C 5.988281 -0.738281 5.96875 -0.761719 5.941406 -0.785156 C 5.882812 -0.832031 5.828125 -0.855469 5.78125 -0.855469 L 8.519531 -0.855469 C 8.480469 -0.855469 8.433594 -0.832031 8.375 -0.785156 C 8.34375 -0.757812 8.316406 -0.726562 8.296875 -0.691406 C 8.292969 -0.683594 8.289062 -0.675781 8.285156 -0.671875 C 8.285156 -0.671875 8.289062 -0.679688 8.292969 -0.695312 L 12.644531 -18.765625 C 12.648438 -18.777344 12.648438 -18.78125 12.648438 -18.785156 C 12.648438 -18.773438 12.648438 -18.757812 12.652344 -18.738281 C 12.660156 -18.648438 12.699219 -18.566406 12.761719 -18.488281 C 12.824219 -18.410156 12.894531 -18.359375 12.976562 -18.332031 C 12.992188 -18.328125 13.003906 -18.324219 13.011719 -18.324219 C 13.007812 -18.324219 13 -18.324219 12.988281 -18.324219 Z M 10.492188 -18.324219 "/></g></g><g style="fill:#060705;fill-opacity:1;"><g transform="translate(33.670342, 44.565522)"><path style="stroke:none" d="M 12.328125 -15.234375 L 12.328125 -9.734375 C 12.328125 -8.140625 11.816406 -7.023438 10.796875 -6.390625 L 12.21875 -0.5 C 12.3125 -0.164062 12.1875 0 11.84375 0 L 9.15625 0 C 8.894531 0 8.738281 -0.128906 8.6875 -0.390625 L 7.375 -5.78125 L 4.9375 -5.78125 L 4.9375 -0.4375 C 4.9375 -0.144531 4.789062 0 4.5 0 L 1.8125 0 C 1.519531 0 1.375 -0.144531 1.375 -0.4375 L 1.375 -18.75 C 1.375 -19.039062 1.519531 -19.1875 1.8125 -19.1875 L 8.390625 -19.1875 C 9.679688 -19.1875 10.660156 -18.851562 11.328125 -18.1875 C 11.992188 -17.519531 12.328125 -16.535156 12.328125 -15.234375 Z M 4.9375 -9.3125 L 7.671875 -9.3125 C 8.398438 -9.3125 8.765625 -9.679688 8.765625 -10.421875 L 8.765625 -14.546875 C 8.765625 -15.285156 8.398438 -15.65625 7.671875 -15.65625 L 4.9375 -15.65625 Z M 4.9375 -9.3125 "/></g></g><g style="fill:#060705;fill-opacity:1;"><g transform="translate(47.365886, 44.565522)"><path style="stroke:none" d="M 5.3125 -19.1875 L 8.390625 -19.1875 C 9.679688 -19.1875 10.660156 -18.851562 11.328125 -18.1875 C 11.992188 -17.519531 12.328125 -16.535156 12.328125 -15.234375 L 12.328125 -13.421875 C 12.328125 -13.128906 12.179688 -12.984375 11.890625 -12.984375 L 9.125 -12.984375 C 8.832031 -12.984375 8.6875 -13.128906 8.6875 -13.421875 L 8.6875 -14.578125 C 8.6875 -15.304688 8.320312 -15.671875 7.59375 -15.671875 L 6.078125 -15.671875 C 5.347656 -15.671875 4.984375 -15.304688 4.984375 -14.578125 L 4.984375 -12.25 L 11.625 -10.109375 C 12.09375 -9.941406 12.328125 -9.601562 12.328125 -9.09375 L 12.328125 -3.953125 C 12.328125 -2.671875 11.992188 -1.691406 11.328125 -1.015625 C 10.660156 -0.335938 9.679688 0 8.390625 0 L 5.3125 0 C 4.03125 0 3.050781 -0.335938 2.375 -1.015625 C 1.707031 -1.691406 1.375 -2.671875 1.375 -3.953125 L 1.375 -5.734375 C 1.375 -6.023438 1.519531 -6.171875 1.8125 -6.171875 L 4.578125 -6.171875 C 4.867188 -6.171875 5.015625 -6.023438 5.015625 -5.734375 L 5.015625 -4.578125 C 5.015625 -3.847656 5.378906 -3.484375 6.109375 -3.484375 L 7.59375 -3.484375 C 8.320312 -3.484375 8.6875 -3.847656 8.6875 -4.578125 L 8.6875 -7.34375 L 2.109375 -9.484375 C 1.617188 -9.648438 1.375 -9.988281 1.375 -10.5 L 1.375 -15.234375 C 1.375 -16.535156 1.707031 -17.519531 2.375 -18.1875 C 3.050781 -18.851562 4.03125 -19.1875 5.3125 -19.1875 Z M 5.3125 -19.1875 "/></g></g><g style="fill:#060705;fill-opacity:1;"><g transform="translate(61.061429, 44.565522)"><path style="stroke:none" d="M 1.375 -0.4375 L 1.375 -18.75 C 1.375 -19.039062 1.519531 -19.1875 1.8125 -19.1875 L 8.390625 -19.1875 C 9.679688 -19.1875 10.660156 -18.851562 11.328125 -18.1875 C 11.992188 -17.519531 12.328125 -16.535156 12.328125 -15.234375 L 12.328125 -9.859375 C 12.328125 -8.585938 11.992188 -7.617188 11.328125 -6.953125 C 10.660156 -6.285156 9.679688 -5.941406 8.390625 -5.921875 L 4.9375 -5.890625 L 4.9375 -0.40625 C 4.9375 -0.113281 4.789062 0.03125 4.5 0.03125 L 1.8125 0 C 1.519531 0 1.375 -0.144531 1.375 -0.4375 Z M 4.9375 -9.421875 L 7.671875 -9.453125 C 8.398438 -9.453125 8.765625 -9.816406 8.765625 -10.546875 L 8.765625 -14.546875 C 8.765625 -15.285156 8.398438 -15.65625 7.671875 -15.65625 L 4.9375 -15.625 Z M 4.9375 -9.421875 "/></g></g><g style="fill:#060705;fill-opacity:1;"><g transform="translate(74.756972, 44.565522)"><path style="stroke:none" d="M 12.3125 -18.75 L 12.3125 -16 C 12.3125 -15.695312 12.160156 -15.546875 11.859375 -15.546875 L 5.09375 -15.546875 L 5.09375 -11.3125 L 10.25 -11.3125 C 10.539062 -11.3125 10.6875 -11.160156 10.6875 -10.859375 L 10.6875 -8.140625 C 10.6875 -7.828125 10.539062 -7.671875 10.25 -7.671875 L 5.09375 -7.671875 L 5.09375 -3.625 L 11.859375 -3.625 C 12.160156 -3.625 12.3125 -3.472656 12.3125 -3.171875 L 12.3125 -0.4375 C 12.3125 -0.144531 12.160156 0 11.859375 0 L 1.78125 0 C 1.507812 0 1.375 -0.144531 1.375 -0.4375 L 1.375 -18.75 C 1.375 -19.039062 1.507812 -19.1875 1.78125 -19.1875 L 11.859375 -19.1875 C 12.160156 -19.1875 12.3125 -19.039062 12.3125 -18.75 Z M 12.3125 -18.75 "/></g></g><g style="fill:#060705;fill-opacity:1;"><g transform="translate(88.42512, 44.565522)"><path style="stroke:none" d="M 12.359375 -15.234375 L 12.359375 -12.28125 C 12.359375 -11.988281 12.210938 -11.84375 11.921875 -11.84375 L 9.34375 -11.84375 C 9.050781 -11.84375 8.90625 -11.988281 8.90625 -12.28125 L 8.90625 -14.53125 C 8.90625 -15.257812 8.539062 -15.625 7.8125 -15.625 L 6.0625 -15.625 C 5.320312 -15.625 4.953125 -15.257812 4.953125 -14.53125 L 4.953125 -4.578125 C 4.953125 -3.847656 5.320312 -3.484375 6.0625 -3.484375 L 7.8125 -3.484375 C 8.539062 -3.484375 8.90625 -3.847656 8.90625 -4.578125 L 8.90625 -6.90625 C 8.90625 -7.195312 9.050781 -7.34375 9.34375 -7.34375 L 11.921875 -7.34375 C 12.210938 -7.34375 12.359375 -7.195312 12.359375 -6.90625 L 12.359375 -3.953125 C 12.359375 -2.671875 12.019531 -1.691406 11.34375 -1.015625 C 10.664062 -0.335938 9.6875 0 8.40625 0 L 5.34375 0 C 4.0625 0 3.078125 -0.335938 2.390625 -1.015625 C 1.710938 -1.691406 1.375 -2.671875 1.375 -3.953125 L 1.375 -15.234375 C 1.375 -16.535156 1.710938 -17.519531 2.390625 -18.1875 C 3.078125 -18.851562 4.0625 -19.1875 5.34375 -19.1875 L 8.40625 -19.1875 C 9.6875 -19.1875 10.664062 -18.851562 11.34375 -18.1875 C 12.019531 -17.519531 12.359375 -16.535156 12.359375 -15.234375 Z M 12.359375 -15.234375 "/></g></g><g style="fill:#060705;fill-opacity:1;"><g transform="translate(102.148059, 44.565522)"><path style="stroke:none" d="M 1.375 -8.609375 L 1.375 -11.125 C 1.375 -11.488281 1.554688 -11.671875 1.921875 -11.671875 L 6.25 -11.671875 C 6.613281 -11.671875 6.796875 -11.488281 6.796875 -11.125 L 6.796875 -8.609375 C 6.796875 -8.242188 6.613281 -8.0625 6.25 -8.0625 L 1.921875 -8.0625 C 1.554688 -8.0625 1.375 -8.242188 1.375 -8.609375 Z M 1.375 -8.609375 "/></g></g><g style="fill:#060705;fill-opacity:1;"><g transform="translate(15.785843, 82.765424)"><path style="stroke:none" d="M 5.3125 -19.1875 L 8.390625 -19.1875 C 9.679688 -19.1875 10.660156 -18.851562 11.328125 -18.1875 C 11.992188 -17.519531 12.328125 -16.535156 12.328125 -15.234375 L 12.328125 -13.421875 C 12.328125 -13.128906 12.179688 -12.984375 11.890625 -12.984375 L 9.125 -12.984375 C 8.832031 -12.984375 8.6875 -13.128906 8.6875 -13.421875 L 8.6875 -14.578125 C 8.6875 -15.304688 8.320312 -15.671875 7.59375 -15.671875 L 6.078125 -15.671875 C 5.347656 -15.671875 4.984375 -15.304688 4.984375 -14.578125 L 4.984375 -12.25 L 11.625 -10.109375 C 12.09375 -9.941406 12.328125 -9.601562 12.328125 -9.09375 L 12.328125 -3.953125 C 12.328125 -2.671875 11.992188 -1.691406 11.328125 -1.015625 C 10.660156 -0.335938 9.679688 0 8.390625 0 L 5.3125 0 C 4.03125 0 3.050781 -0.335938 2.375 -1.015625 C 1.707031 -1.691406 1.375 -2.671875 1.375 -3.953125 L 1.375 -5.734375 C 1.375 -6.023438 1.519531 -6.171875 1.8125 -6.171875 L 4.578125 -6.171875 C 4.867188 -6.171875 5.015625 -6.023438 5.015625 -5.734375 L 5.015625 -4.578125 C 5.015625 -3.847656 5.378906 -3.484375 6.109375 -3.484375 L 7.59375 -3.484375 C 8.320312 -3.484375 8.6875 -3.847656 8.6875 -4.578125 L 8.6875 -7.34375 L 2.109375 -9.484375 C 1.617188 -9.648438 1.375 -9.988281 1.375 -10.5 L 1.375 -15.234375 C 1.375 -16.535156 1.707031 -17.519531 2.375 -18.1875 C 3.050781 -18.851562 4.03125 -19.1875 5.3125 -19.1875 Z M 5.3125 -19.1875 "/></g></g><g style="fill:#060705;fill-opacity:1;"><g transform="translate(29.481386, 82.765424)"><path style="stroke:none" d="M 11.34375 -19.1875 L 1.265625 -19.1875 C 0.972656 -19.1875 0.828125 -19.039062 0.828125 -18.75 L 0.828125 -16 C 0.828125 -15.707031 0.972656 -15.5625 1.265625 -15.5625 L 4.4375 -15.5625 L 4.4375 -0.4375 C 4.4375 -0.144531 4.582031 0 4.875 0 L 7.734375 0 C 8.023438 0 8.171875 -0.144531 8.171875 -0.4375 L 8.171875 -15.5625 L 11.34375 -15.5625 C 11.632812 -15.5625 11.78125 -15.707031 11.78125 -16 L 11.78125 -18.75 C 11.78125 -19.039062 11.632812 -19.1875 11.34375 -19.1875 Z M 11.34375 -19.1875 "/></g></g><g style="fill:#060705;fill-opacity:1;"><g transform="translate(42.081288, 82.765424)"><path style="stroke:none" d="M 9.265625 -19.1875 L 11.78125 -19.1875 C 11.925781 -19.1875 12.050781 -19.128906 12.15625 -19.015625 C 12.269531 -18.910156 12.328125 -18.785156 12.328125 -18.640625 L 12.328125 -3.953125 C 12.328125 -2.671875 11.992188 -1.691406 11.328125 -1.015625 C 10.660156 -0.335938 9.679688 0 8.390625 0 L 5.3125 0 C 4.03125 0 3.050781 -0.335938 2.375 -1.015625 C 1.707031 -1.691406 1.375 -2.671875 1.375 -3.953125 L 1.375 -18.640625 C 1.375 -18.785156 1.425781 -18.910156 1.53125 -19.015625 C 1.644531 -19.128906 1.773438 -19.1875 1.921875 -19.1875 L 4.546875 -19.1875 C 4.691406 -19.1875 4.816406 -19.128906 4.921875 -19.015625 C 5.035156 -18.910156 5.09375 -18.785156 5.09375 -18.640625 L 5.09375 -4.71875 C 5.09375 -3.988281 5.457031 -3.625 6.1875 -3.625 L 7.625 -3.625 C 8.351562 -3.625 8.71875 -3.988281 8.71875 -4.71875 L 8.71875 -18.640625 C 8.71875 -18.785156 8.769531 -18.910156 8.875 -19.015625 C 8.988281 -19.128906 9.117188 -19.1875 9.265625 -19.1875 Z M 9.265625 -19.1875 "/></g></g><g style="fill:#060705;fill-opacity:1;"><g transform="translate(55.776831, 82.765424)"><path style="stroke:none" d="M 12.359375 -15.234375 L 12.359375 -11.53125 C 12.359375 -11.019531 12.191406 -10.59375 11.859375 -10.25 C 11.535156 -9.90625 11.128906 -9.6875 10.640625 -9.59375 L 10.640625 -9.53125 C 11.128906 -9.457031 11.535156 -9.242188 11.859375 -8.890625 C 12.191406 -8.535156 12.359375 -8.101562 12.359375 -7.59375 L 12.359375 -3.953125 C 12.359375 -2.671875 12.019531 -1.691406 11.34375 -1.015625 C 10.664062 -0.335938 9.679688 0 8.390625 0 L 1.8125 0 C 1.519531 0 1.375 -0.144531 1.375 -0.4375 L 1.375 -18.75 C 1.375 -19.039062 1.519531 -19.1875 1.8125 -19.1875 L 8.390625 -19.1875 C 9.679688 -19.1875 10.664062 -18.851562 11.34375 -18.1875 C 12.019531 -17.519531 12.359375 -16.535156 12.359375 -15.234375 Z M 8.875 -12.4375 L 8.875 -14.640625 C 8.875 -15.367188 8.507812 -15.734375 7.78125 -15.734375 L 4.765625 -15.734375 L 4.765625 -11.375 L 7.78125 -11.375 C 8.507812 -11.375 8.875 -11.726562 8.875 -12.4375 Z M 8.875 -4.546875 L 8.875 -6.65625 C 8.875 -7.382812 8.507812 -7.75 7.78125 -7.75 L 4.765625 -7.75 L 4.765625 -3.453125 L 7.78125 -3.453125 C 8.507812 -3.453125 8.875 -3.816406 8.875 -4.546875 Z M 8.875 -4.546875 "/></g></g><g style="fill:#060705;fill-opacity:1;"><g transform="translate(69.49977, 82.765424)"><path style="stroke:none" d="M 12.359375 -15.234375 L 12.359375 -11.53125 C 12.359375 -11.019531 12.191406 -10.59375 11.859375 -10.25 C 11.535156 -9.90625 11.128906 -9.6875 10.640625 -9.59375 L 10.640625 -9.53125 C 11.128906 -9.457031 11.535156 -9.242188 11.859375 -8.890625 C 12.191406 -8.535156 12.359375 -8.101562 12.359375 -7.59375 L 12.359375 -3.953125 C 12.359375 -2.671875 12.019531 -1.691406 11.34375 -1.015625 C 10.664062 -0.335938 9.679688 0 8.390625 0 L 1.8125 0 C 1.519531 0 1.375 -0.144531 1.375 -0.4375 L 1.375 -18.75 C 1.375 -19.039062 1.519531 -19.1875 1.8125 -19.1875 L 8.390625 -19.1875 C 9.679688 -19.1875 10.664062 -18.851562 11.34375 -18.1875 C 12.019531 -17.519531 12.359375 -16.535156 12.359375 -15.234375 Z M 8.875 -12.4375 L 8.875 -14.640625 C 8.875 -15.367188 8.507812 -15.734375 7.78125 -15.734375 L 4.765625 -15.734375 L 4.765625 -11.375 L 7.78125 -11.375 C 8.507812 -11.375 8.875 -11.726562 8.875 -12.4375 Z M 8.875 -4.546875 L 8.875 -6.65625 C 8.875 -7.382812 8.507812 -7.75 7.78125 -7.75 L 4.765625 -7.75 L 4.765625 -3.453125 L 7.78125 -3.453125 C 8.507812 -3.453125 8.875 -3.816406 8.875 -4.546875 Z M 8.875 -4.546875 "/></g></g><g style="fill:#060705;fill-opacity:1;"><g transform="translate(83.222709, 82.765424)"><path style="stroke:none" d="M 12.3125 -18.75 L 12.3125 -16 C 12.3125 -15.695312 12.160156 -15.546875 11.859375 -15.546875 L 5.09375 -15.546875 L 5.09375 -11.3125 L 10.25 -11.3125 C 10.539062 -11.3125 10.6875 -11.160156 10.6875 -10.859375 L 10.6875 -8.140625 C 10.6875 -7.828125 10.539062 -7.671875 10.25 -7.671875 L 5.09375 -7.671875 L 5.09375 -3.625 L 11.859375 -3.625 C 12.160156 -3.625 12.3125 -3.472656 12.3125 -3.171875 L 12.3125 -0.4375 C 12.3125 -0.144531 12.160156 0 11.859375 0 L 1.78125 0 C 1.507812 0 1.375 -0.144531 1.375 -0.4375 L 1.375 -18.75 C 1.375 -19.039062 1.507812 -19.1875 1.78125 -19.1875 L 11.859375 -19.1875 C 12.160156 -19.1875 12.3125 -19.039062 12.3125 -18.75 Z M 12.3125 -18.75 "/></g></g><g style="fill:#060705;fill-opacity:1;"><g transform="translate(96.890856, 82.765424)"><path style="stroke:none" d="M 1.375 -0.4375 L 1.375 -18.75 C 1.375 -19.039062 1.519531 -19.1875 1.8125 -19.1875 L 8.390625 -19.1875 C 9.679688 -19.1875 10.660156 -18.847656 11.328125 -18.171875 C 11.992188 -17.492188 12.328125 -16.503906 12.328125 -15.203125 L 12.328125 -3.953125 C 12.328125 -2.671875 11.992188 -1.691406 11.328125 -1.015625 C 10.660156 -0.335938 9.679688 0 8.390625 0 L 1.8125 0 C 1.519531 0 1.375 -0.144531 1.375 -0.4375 Z M 5.09375 -3.625 L 7.625 -3.625 C 8.351562 -3.625 8.71875 -3.988281 8.71875 -4.71875 L 8.71875 -14.4375 C 8.71875 -15.1875 8.351562 -15.5625 7.625 -15.5625 L 5.09375 -15.5625 Z M 5.09375 -3.625 "/></g></g><g style="fill:#060705;fill-opacity:1;"><g transform="translate(110.5864, 82.765424)"><path style="stroke:none" d="M 0 3.671875 L 0 1.15625 C 0 0.789062 0.179688 0.609375 0.546875 0.609375 L 17.078125 0.609375 C 17.441406 0.609375 17.625 0.789062 17.625 1.15625 L 17.625 3.671875 C 17.625 4.035156 17.441406 4.21875 17.078125 4.21875 L 0.546875 4.21875 C 0.179688 4.21875 0 4.035156 0 3.671875 Z M 0 3.671875 "/></g></g><g style="fill:#060705;fill-opacity:1;"><g transform="translate(50.77348, 120.965325)"><path style="stroke:none" d="M 12.3125 -18.75 L 12.3125 -16 C 12.3125 -15.695312 12.160156 -15.546875 11.859375 -15.546875 L 5.09375 -15.546875 L 5.09375 -11.3125 L 10.25 -11.3125 C 10.539062 -11.3125 10.6875 -11.160156 10.6875 -10.859375 L 10.6875 -8.140625 C 10.6875 -7.828125 10.539062 -7.671875 10.25 -7.671875 L 5.09375 -7.671875 L 5.09375 -3.625 L 11.859375 -3.625 C 12.160156 -3.625 12.3125 -3.472656 12.3125 -3.171875 L 12.3125 -0.4375 C 12.3125 -0.144531 12.160156 0 11.859375 0 L 1.78125 0 C 1.507812 0 1.375 -0.144531 1.375 -0.4375 L 1.375 -18.75 C 1.375 -19.039062 1.507812 -19.1875 1.78125 -19.1875 L 11.859375 -19.1875 C 12.160156 -19.1875 12.3125 -19.039062 12.3125 -18.75 Z M 12.3125 -18.75 "/></g></g><g style="fill:#060705;fill-opacity:1;"><g transform="translate(64.441628, 120.965325)"><path style="stroke:none" d="M 10.0625 -19.1875 L 12.640625 -19.1875 C 12.929688 -19.1875 13.078125 -19.039062 13.078125 -18.75 L 13.078125 -0.4375 C 13.078125 -0.144531 12.929688 0 12.640625 0 L 10.46875 0 C 10.25 0 10.082031 -0.117188 9.96875 -0.359375 L 4.828125 -10.828125 L 4.828125 -0.4375 C 4.828125 -0.144531 4.679688 0 4.390625 0 L 1.8125 0 C 1.519531 0 1.375 -0.144531 1.375 -0.4375 L 1.375 -18.75 C 1.375 -19.039062 1.519531 -19.1875 1.8125 -19.1875 L 3.96875 -19.1875 C 4.1875 -19.1875 4.351562 -19.066406 4.46875 -18.828125 L 9.625 -8.359375 L 9.625 -18.75 C 9.625 -19.039062 9.769531 -19.1875 10.0625 -19.1875 Z M 10.0625 -19.1875 "/></g></g><g style="fill:#060705;fill-opacity:1;"><g transform="translate(78.876735, 120.965325)"><path style="stroke:none" d="M 10.5 -19.1875 L 12.984375 -19.1875 C 13.410156 -19.1875 13.578125 -18.984375 13.484375 -18.578125 L 9.125 -0.5 C 9.050781 -0.164062 8.847656 0 8.515625 0 L 5.78125 0 C 5.46875 0 5.269531 -0.164062 5.1875 -0.5 L 0.84375 -18.578125 C 0.757812 -18.984375 0.925781 -19.1875 1.34375 -19.1875 L 3.84375 -19.1875 C 4.164062 -19.1875 4.363281 -19.019531 4.4375 -18.6875 L 7.15625 -6.296875 L 9.890625 -18.6875 C 9.984375 -19.019531 10.1875 -19.1875 10.5 -19.1875 Z M 10.5 -19.1875 "/></g></g></g></svg>