<svg xmlns="http://www.w3.org/2000/svg" xmlns:xlink="http://www.w3.org/1999/xlink" width="128" zoomAndPan="magnify" viewBox="0 0 96 95.999999" height="128" preserveAspectRatio="xMidYMid meet" version="1.2"><defs><clipPath id="39d17a7128"><path d="M 6 0 L 90 0 L 90 96 L 6 96 Z M 6 0 "/></clipPath><clipPath id="820d5d6890"><path d="M -14.304688 36.578125 L 68.691406 -11.898438 L 110.335938 59.402344 L 27.339844 107.878906 Z M -14.304688 36.578125 "/></clipPath><clipPath id="8db302a77f"><path d="M 89.484375 23.769531 L 89.5625 71.535156 L 48.082031 95.765625 L 6.515625 72.226562 L 6.4375 24.464844 L 47.921875 0.234375 Z M 89.484375 23.769531 "/></clipPath><clipPath id="172501d2af"><path d="M 14.140625 9.121094 L 81.851562 9.121094 L 81.851562 86.839844 L 14.140625 86.839844 Z M 14.140625 9.121094 "/></clipPath></defs><g id="181313c056"><g clip-rule="nonzero" clip-path="url(#39d17a7128)"><g clip-rule="nonzero" clip-path="url(#820d5d6890)"><g clip-rule="nonzero" clip-path="url(#8db302a77f)"><path style=" stroke:none;fill-rule:nonzero;fill:#65b30e;fill-opacity:1;" d="M -14.304688 36.578125 L 68.691406 -11.898438 L 110.335938 59.402344 L 27.339844 107.878906 Z M -14.304688 36.578125 "/></g></g></g><path style=" stroke:none;fill-rule:nonzero;fill:#87ff00;fill-opacity:1;" d="M 34.453125 34.738281 L 34.410156 34.695312 L 24.839844 44.265625 L 48.074219 67.457031 L 57.644531 57.933594 L 71.308594 44.265625 L 61.738281 34.695312 L 61.738281 34.652344 L 34.410156 34.652344 Z M 34.453125 34.738281 "/><g clip-rule="nonzero" clip-path="url(#172501d2af)"><path style=" stroke:none;fill-rule:nonzero;fill:#87ff00;fill-opacity:1;" d="M 47.988281 9.179688 L 14.148438 28.574219 L 14.148438 67.371094 L 47.988281 86.769531 L 81.828125 67.371094 L 81.828125 28.574219 Z M 75.359375 63.664062 L 47.988281 79.4375 L 20.613281 63.664062 L 20.617188 32.195312 L 47.988281 16.417969 L 75.363281 32.195312 L 75.363281 63.664062 Z M 75.359375 63.664062 "/></g><g style="fill:#b21a22;fill-opacity:1;"><g transform="translate(16.759742, 41.545281)"><path style="stroke:none" d="M 0.398438 -0.339844 L 0.398438 -14.515625 C 0.398438 -14.8125 0.492188 -15.050781 0.675781 -15.238281 C 0.863281 -15.425781 1.105469 -15.515625 1.402344 -15.515625 L 6.492188 -15.515625 C 7.679688 -15.515625 8.597656 -15.195312 9.242188 -14.546875 C 9.890625 -13.902344 10.210938 -12.984375 10.210938 -11.796875 L 10.210938 -7.640625 C 10.210938 -6.464844 9.890625 -5.554688 9.242188 -4.910156 C 8.601562 -4.265625 7.6875 -3.9375 6.503906 -3.921875 L 3.824219 -3.898438 L 3.820312 -4.5625 L 4.484375 -4.5625 L 4.484375 -0.316406 C 4.484375 -0.0234375 4.390625 0.21875 4.203125 0.40625 C 4.015625 0.589844 3.777344 0.683594 3.480469 0.683594 L 1.394531 0.664062 C 1.101562 0.664062 0.863281 0.570312 0.675781 0.382812 C 0.492188 0.199219 0.398438 -0.0429688 0.398438 -0.339844 Z M 1.722656 -0.339844 C 1.722656 -0.355469 1.71875 -0.375 1.710938 -0.402344 C 1.691406 -0.457031 1.660156 -0.507812 1.613281 -0.554688 C 1.570312 -0.597656 1.519531 -0.632812 1.460938 -0.648438 C 1.4375 -0.660156 1.417969 -0.664062 1.40625 -0.664062 L 3.480469 -0.640625 C 3.464844 -0.640625 3.445312 -0.636719 3.417969 -0.628906 C 3.363281 -0.609375 3.3125 -0.578125 3.265625 -0.53125 C 3.21875 -0.488281 3.1875 -0.4375 3.167969 -0.378906 C 3.160156 -0.355469 3.15625 -0.332031 3.15625 -0.316406 L 3.15625 -5.21875 L 6.484375 -5.246094 C 7.308594 -5.257812 7.917969 -5.457031 8.304688 -5.847656 C 8.691406 -6.234375 8.886719 -6.832031 8.886719 -7.640625 L 8.886719 -11.796875 C 8.886719 -12.621094 8.691406 -13.222656 8.304688 -13.609375 C 7.917969 -13.996094 7.316406 -14.191406 6.492188 -14.191406 L 1.402344 -14.191406 C 1.414062 -14.191406 1.4375 -14.195312 1.460938 -14.203125 C 1.519531 -14.222656 1.570312 -14.253906 1.613281 -14.300781 C 1.660156 -14.34375 1.691406 -14.398438 1.710938 -14.453125 C 1.71875 -14.480469 1.722656 -14.5 1.722656 -14.515625 Z M 3.8125 -7.960938 L 5.933594 -7.984375 C 6.007812 -7.984375 6.066406 -7.992188 6.101562 -8.003906 C 6.109375 -8.003906 6.113281 -8.007812 6.117188 -8.007812 C 6.113281 -8.007812 6.113281 -8.003906 6.109375 -8.003906 C 6.105469 -8 6.105469 -7.996094 6.101562 -7.992188 C 6.105469 -7.996094 6.105469 -8 6.109375 -8.007812 C 6.121094 -8.046875 6.128906 -8.101562 6.128906 -8.167969 L 6.128906 -11.269531 C 6.128906 -11.335938 6.121094 -11.390625 6.109375 -11.429688 C 6.105469 -11.4375 6.105469 -11.441406 6.101562 -11.445312 C 6.105469 -11.441406 6.105469 -11.4375 6.109375 -11.433594 C 6.113281 -11.433594 6.113281 -11.429688 6.117188 -11.429688 C 6.113281 -11.429688 6.109375 -11.433594 6.101562 -11.433594 C 6.066406 -11.445312 6.011719 -11.453125 5.941406 -11.453125 L 3.828125 -11.433594 L 3.820312 -12.09375 L 4.484375 -12.09375 L 4.484375 -7.300781 L 3.820312 -7.300781 Z M 3.15625 -6.628906 L 3.15625 -12.75 L 5.941406 -12.78125 C 6.40625 -12.78125 6.777344 -12.644531 7.046875 -12.375 C 7.316406 -12.101562 7.453125 -11.734375 7.453125 -11.269531 L 7.453125 -8.167969 C 7.453125 -7.703125 7.316406 -7.335938 7.046875 -7.0625 C 6.777344 -6.792969 6.410156 -6.65625 5.949219 -6.65625 L 3.828125 -6.636719 Z M 3.15625 -6.628906 "/></g></g><g style="fill:#b21a22;fill-opacity:1;"><g transform="translate(27.366329, 41.545281)"><path style="stroke:none" d="M 10.210938 -11.796875 L 10.210938 -7.53125 C 10.210938 -6.058594 9.710938 -5.007812 8.710938 -4.382812 L 8.359375 -4.945312 L 9.003906 -5.101562 L 10.109375 -0.539062 L 9.464844 -0.382812 L 10.101562 -0.558594 C 10.199219 -0.21875 10.152344 0.0742188 9.964844 0.3125 C 9.785156 0.546875 9.519531 0.664062 9.167969 0.664062 L 7.085938 0.664062 C 6.828125 0.664062 6.609375 0.589844 6.425781 0.4375 C 6.25 0.289062 6.132812 0.0898438 6.078125 -0.15625 L 6.726562 -0.296875 L 6.082031 -0.140625 L 5.0625 -4.320312 L 5.707031 -4.476562 L 5.707031 -3.8125 L 3.820312 -3.8125 L 3.820312 -4.476562 L 4.484375 -4.476562 L 4.484375 -0.339844 C 4.484375 -0.0429688 4.390625 0.199219 4.203125 0.382812 C 4.015625 0.570312 3.777344 0.664062 3.480469 0.664062 L 1.402344 0.664062 C 1.105469 0.664062 0.863281 0.570312 0.675781 0.382812 C 0.492188 0.199219 0.398438 -0.0429688 0.398438 -0.339844 L 0.398438 -14.515625 C 0.398438 -14.8125 0.492188 -15.050781 0.675781 -15.238281 C 0.863281 -15.425781 1.105469 -15.515625 1.402344 -15.515625 L 6.492188 -15.515625 C 7.679688 -15.515625 8.597656 -15.195312 9.242188 -14.546875 C 9.890625 -13.902344 10.210938 -12.984375 10.210938 -11.796875 Z M 8.886719 -11.796875 C 8.886719 -12.621094 8.691406 -13.222656 8.304688 -13.609375 C 7.917969 -13.996094 7.316406 -14.191406 6.492188 -14.191406 L 1.402344 -14.191406 C 1.414062 -14.191406 1.4375 -14.195312 1.460938 -14.203125 C 1.519531 -14.222656 1.570312 -14.253906 1.613281 -14.300781 C 1.660156 -14.34375 1.691406 -14.398438 1.710938 -14.453125 C 1.71875 -14.480469 1.722656 -14.5 1.722656 -14.515625 L 1.722656 -0.339844 C 1.722656 -0.355469 1.71875 -0.375 1.710938 -0.402344 C 1.691406 -0.457031 1.660156 -0.507812 1.613281 -0.554688 C 1.570312 -0.597656 1.519531 -0.632812 1.460938 -0.648438 C 1.4375 -0.660156 1.414062 -0.664062 1.402344 -0.664062 L 3.480469 -0.664062 C 3.464844 -0.664062 3.445312 -0.660156 3.417969 -0.648438 C 3.363281 -0.632812 3.3125 -0.597656 3.265625 -0.554688 C 3.21875 -0.507812 3.1875 -0.457031 3.167969 -0.402344 C 3.160156 -0.375 3.15625 -0.355469 3.15625 -0.339844 L 3.15625 -5.140625 L 6.230469 -5.140625 L 7.375 -0.445312 L 7.375 -0.4375 C 7.363281 -0.488281 7.328125 -0.539062 7.269531 -0.585938 C 7.207031 -0.636719 7.148438 -0.664062 7.085938 -0.664062 L 9.167969 -0.664062 C 9.152344 -0.660156 9.136719 -0.65625 9.121094 -0.652344 C 9.042969 -0.625 8.976562 -0.574219 8.917969 -0.503906 C 8.863281 -0.429688 8.832031 -0.347656 8.824219 -0.265625 C 8.820312 -0.234375 8.820312 -0.214844 8.824219 -0.203125 L 8.820312 -0.214844 L 7.605469 -5.253906 L 8.007812 -5.507812 C 8.59375 -5.871094 8.886719 -6.546875 8.886719 -7.53125 Z M 3.820312 -7.878906 L 5.941406 -7.878906 C 6.011719 -7.878906 6.066406 -7.882812 6.101562 -7.898438 C 6.109375 -7.898438 6.113281 -7.902344 6.117188 -7.902344 C 6.113281 -7.902344 6.113281 -7.898438 6.109375 -7.894531 C 6.105469 -7.894531 6.105469 -7.890625 6.101562 -7.886719 C 6.105469 -7.890625 6.105469 -7.894531 6.109375 -7.902344 C 6.121094 -7.941406 6.128906 -7.992188 6.128906 -8.0625 L 6.128906 -11.269531 C 6.128906 -11.335938 6.121094 -11.390625 6.109375 -11.429688 C 6.105469 -11.4375 6.105469 -11.441406 6.101562 -11.445312 C 6.105469 -11.441406 6.105469 -11.4375 6.109375 -11.433594 C 6.113281 -11.433594 6.113281 -11.429688 6.117188 -11.429688 C 6.113281 -11.429688 6.109375 -11.433594 6.101562 -11.433594 C 6.066406 -11.445312 6.011719 -11.453125 5.941406 -11.453125 L 3.820312 -11.453125 L 3.820312 -12.117188 L 4.484375 -12.117188 L 4.484375 -7.214844 L 3.820312 -7.214844 Z M 3.15625 -6.550781 L 3.15625 -12.78125 L 5.941406 -12.78125 C 6.40625 -12.78125 6.777344 -12.644531 7.046875 -12.375 C 7.316406 -12.101562 7.453125 -11.734375 7.453125 -11.269531 L 7.453125 -8.0625 C 7.453125 -7.597656 7.316406 -7.230469 7.046875 -6.957031 C 6.777344 -6.6875 6.40625 -6.550781 5.941406 -6.550781 Z M 3.15625 -6.550781 "/></g></g><g style="fill:#b21a22;fill-opacity:1;"><g transform="translate(37.972916, 41.545281)"><path style="stroke:none" d="M 10.191406 -14.515625 L 10.191406 -12.390625 C 10.191406 -12.097656 10.101562 -11.855469 9.925781 -11.667969 C 9.738281 -11.46875 9.492188 -11.367188 9.1875 -11.367188 L 3.945312 -11.367188 L 3.945312 -12.03125 L 4.609375 -12.03125 L 4.609375 -8.765625 L 3.945312 -8.765625 L 3.945312 -9.425781 L 7.9375 -9.425781 C 8.242188 -9.425781 8.484375 -9.328125 8.671875 -9.128906 C 8.851562 -8.941406 8.9375 -8.699219 8.9375 -8.402344 L 8.9375 -6.300781 C 8.9375 -6.007812 8.851562 -5.765625 8.671875 -5.578125 C 8.484375 -5.378906 8.242188 -5.277344 7.9375 -5.277344 L 3.945312 -5.277344 L 3.945312 -5.941406 L 4.609375 -5.941406 L 4.609375 -2.800781 L 3.945312 -2.800781 L 3.945312 -3.464844 L 9.1875 -3.464844 C 9.484375 -3.464844 9.726562 -3.371094 9.910156 -3.183594 C 10.097656 -3 10.191406 -2.757812 10.191406 -2.460938 L 10.191406 -0.339844 C 10.191406 -0.0429688 10.097656 0.199219 9.910156 0.382812 C 9.726562 0.570312 9.484375 0.664062 9.1875 0.664062 L 1.378906 0.664062 C 1.082031 0.664062 0.839844 0.566406 0.65625 0.367188 C 0.484375 0.183594 0.398438 -0.0507812 0.398438 -0.339844 L 0.398438 -14.515625 C 0.398438 -14.800781 0.484375 -15.039062 0.65625 -15.222656 C 0.839844 -15.417969 1.082031 -15.515625 1.378906 -15.515625 L 9.1875 -15.515625 C 9.484375 -15.515625 9.726562 -15.425781 9.910156 -15.238281 C 10.097656 -15.050781 10.191406 -14.8125 10.191406 -14.515625 Z M 8.863281 -14.515625 C 8.863281 -14.5 8.867188 -14.480469 8.878906 -14.453125 C 8.894531 -14.398438 8.929688 -14.34375 8.972656 -14.300781 C 9.019531 -14.253906 9.070312 -14.222656 9.128906 -14.203125 C 9.152344 -14.195312 9.171875 -14.191406 9.1875 -14.191406 L 1.378906 -14.191406 C 1.464844 -14.191406 1.546875 -14.230469 1.625 -14.316406 C 1.667969 -14.359375 1.695312 -14.410156 1.714844 -14.464844 C 1.722656 -14.488281 1.722656 -14.503906 1.722656 -14.515625 L 1.722656 -0.339844 C 1.722656 -0.351562 1.722656 -0.367188 1.714844 -0.390625 C 1.695312 -0.441406 1.667969 -0.492188 1.625 -0.539062 C 1.546875 -0.621094 1.464844 -0.664062 1.378906 -0.664062 L 9.1875 -0.664062 C 9.171875 -0.664062 9.152344 -0.660156 9.128906 -0.648438 C 9.070312 -0.632812 9.019531 -0.597656 8.972656 -0.554688 C 8.929688 -0.507812 8.894531 -0.457031 8.878906 -0.402344 C 8.867188 -0.375 8.863281 -0.355469 8.863281 -0.339844 L 8.863281 -2.460938 C 8.863281 -2.445312 8.867188 -2.425781 8.878906 -2.398438 C 8.894531 -2.34375 8.929688 -2.292969 8.972656 -2.246094 C 9.019531 -2.203125 9.070312 -2.167969 9.128906 -2.152344 C 9.152344 -2.140625 9.171875 -2.136719 9.1875 -2.136719 L 3.285156 -2.136719 L 3.285156 -6.605469 L 7.9375 -6.605469 C 7.917969 -6.605469 7.890625 -6.597656 7.863281 -6.589844 C 7.804688 -6.570312 7.753906 -6.535156 7.707031 -6.484375 C 7.667969 -6.441406 7.636719 -6.394531 7.621094 -6.34375 C 7.617188 -6.324219 7.613281 -6.308594 7.613281 -6.300781 L 7.613281 -8.402344 C 7.613281 -8.394531 7.617188 -8.382812 7.621094 -8.363281 C 7.636719 -8.3125 7.667969 -8.261719 7.707031 -8.21875 C 7.753906 -8.171875 7.804688 -8.136719 7.863281 -8.117188 C 7.890625 -8.105469 7.917969 -8.101562 7.9375 -8.101562 L 3.285156 -8.101562 L 3.285156 -12.695312 L 9.1875 -12.695312 C 9.167969 -12.695312 9.144531 -12.691406 9.117188 -12.679688 C 9.058594 -12.660156 9.003906 -12.625 8.960938 -12.578125 C 8.917969 -12.53125 8.890625 -12.484375 8.875 -12.433594 C 8.867188 -12.414062 8.863281 -12.398438 8.863281 -12.390625 Z M 8.863281 -14.515625 "/></g></g><g style="fill:#b21a22;fill-opacity:1;"><g transform="translate(48.558286, 41.545281)"><path style="stroke:none" d="M 8.785156 -14.191406 L 0.976562 -14.191406 C 0.992188 -14.191406 1.011719 -14.195312 1.039062 -14.203125 C 1.09375 -14.222656 1.144531 -14.253906 1.191406 -14.300781 C 1.234375 -14.34375 1.269531 -14.398438 1.285156 -14.453125 C 1.296875 -14.480469 1.300781 -14.5 1.300781 -14.515625 L 1.300781 -12.390625 C 1.300781 -12.40625 1.296875 -12.429688 1.285156 -12.453125 C 1.269531 -12.511719 1.234375 -12.5625 1.191406 -12.605469 C 1.144531 -12.652344 1.09375 -12.683594 1.039062 -12.703125 C 1.011719 -12.710938 0.992188 -12.714844 0.976562 -12.714844 L 4.101562 -12.714844 L 4.101562 -0.339844 C 4.101562 -0.355469 4.097656 -0.375 4.089844 -0.402344 C 4.070312 -0.457031 4.035156 -0.507812 3.992188 -0.554688 C 3.945312 -0.597656 3.894531 -0.632812 3.839844 -0.648438 C 3.8125 -0.660156 3.792969 -0.664062 3.777344 -0.664062 L 5.984375 -0.664062 C 5.96875 -0.664062 5.949219 -0.660156 5.921875 -0.648438 C 5.867188 -0.632812 5.816406 -0.597656 5.769531 -0.554688 C 5.722656 -0.507812 5.691406 -0.457031 5.671875 -0.402344 C 5.664062 -0.375 5.660156 -0.355469 5.660156 -0.339844 L 5.660156 -12.714844 L 8.785156 -12.714844 C 8.769531 -12.714844 8.75 -12.710938 8.722656 -12.703125 C 8.667969 -12.683594 8.617188 -12.652344 8.570312 -12.605469 C 8.523438 -12.5625 8.492188 -12.511719 8.472656 -12.453125 C 8.464844 -12.429688 8.460938 -12.40625 8.460938 -12.390625 L 8.460938 -14.515625 C 8.460938 -14.5 8.464844 -14.480469 8.472656 -14.453125 C 8.492188 -14.398438 8.523438 -14.34375 8.570312 -14.300781 C 8.617188 -14.253906 8.667969 -14.222656 8.722656 -14.203125 C 8.75 -14.195312 8.769531 -14.191406 8.785156 -14.191406 Z M 8.785156 -15.515625 C 9.082031 -15.515625 9.324219 -15.425781 9.507812 -15.238281 C 9.695312 -15.050781 9.789062 -14.8125 9.789062 -14.515625 L 9.789062 -12.390625 C 9.789062 -12.097656 9.695312 -11.855469 9.507812 -11.667969 C 9.324219 -11.484375 9.082031 -11.390625 8.785156 -11.390625 L 6.324219 -11.390625 L 6.324219 -12.054688 L 6.988281 -12.054688 L 6.988281 -0.339844 C 6.988281 -0.0429688 6.894531 0.199219 6.707031 0.382812 C 6.523438 0.570312 6.28125 0.664062 5.984375 0.664062 L 3.777344 0.664062 C 3.480469 0.664062 3.238281 0.570312 3.054688 0.382812 C 2.867188 0.199219 2.773438 -0.0429688 2.773438 -0.339844 L 2.773438 -12.054688 L 3.4375 -12.054688 L 3.4375 -11.390625 L 0.976562 -11.390625 C 0.679688 -11.390625 0.4375 -11.484375 0.253906 -11.667969 C 0.0664062 -11.855469 -0.0273438 -12.097656 -0.0273438 -12.390625 L -0.0273438 -14.515625 C -0.0273438 -14.8125 0.0664062 -15.050781 0.253906 -15.238281 C 0.4375 -15.425781 0.679688 -15.515625 0.976562 -15.515625 Z M 8.785156 -15.515625 "/></g></g><g style="fill:#b21a22;fill-opacity:1;"><g transform="translate(58.316347, 41.545281)"><path style="stroke:none" d="M 8.785156 -14.191406 L 0.976562 -14.191406 C 0.992188 -14.191406 1.011719 -14.195312 1.039062 -14.203125 C 1.09375 -14.222656 1.144531 -14.253906 1.191406 -14.300781 C 1.234375 -14.34375 1.269531 -14.398438 1.285156 -14.453125 C 1.296875 -14.480469 1.300781 -14.5 1.300781 -14.515625 L 1.300781 -12.390625 C 1.300781 -12.40625 1.296875 -12.429688 1.285156 -12.453125 C 1.269531 -12.511719 1.234375 -12.5625 1.191406 -12.605469 C 1.144531 -12.652344 1.09375 -12.683594 1.039062 -12.703125 C 1.011719 -12.710938 0.992188 -12.714844 0.976562 -12.714844 L 4.101562 -12.714844 L 4.101562 -0.339844 C 4.101562 -0.355469 4.097656 -0.375 4.089844 -0.402344 C 4.070312 -0.457031 4.035156 -0.507812 3.992188 -0.554688 C 3.945312 -0.597656 3.894531 -0.632812 3.839844 -0.648438 C 3.8125 -0.660156 3.792969 -0.664062 3.777344 -0.664062 L 5.984375 -0.664062 C 5.96875 -0.664062 5.949219 -0.660156 5.921875 -0.648438 C 5.867188 -0.632812 5.816406 -0.597656 5.769531 -0.554688 C 5.722656 -0.507812 5.691406 -0.457031 5.671875 -0.402344 C 5.664062 -0.375 5.660156 -0.355469 5.660156 -0.339844 L 5.660156 -12.714844 L 8.785156 -12.714844 C 8.769531 -12.714844 8.75 -12.710938 8.722656 -12.703125 C 8.667969 -12.683594 8.617188 -12.652344 8.570312 -12.605469 C 8.523438 -12.5625 8.492188 -12.511719 8.472656 -12.453125 C 8.464844 -12.429688 8.460938 -12.40625 8.460938 -12.390625 L 8.460938 -14.515625 C 8.460938 -14.5 8.464844 -14.480469 8.472656 -14.453125 C 8.492188 -14.398438 8.523438 -14.34375 8.570312 -14.300781 C 8.617188 -14.253906 8.667969 -14.222656 8.722656 -14.203125 C 8.75 -14.195312 8.769531 -14.191406 8.785156 -14.191406 Z M 8.785156 -15.515625 C 9.082031 -15.515625 9.324219 -15.425781 9.507812 -15.238281 C 9.695312 -15.050781 9.789062 -14.8125 9.789062 -14.515625 L 9.789062 -12.390625 C 9.789062 -12.097656 9.695312 -11.855469 9.507812 -11.667969 C 9.324219 -11.484375 9.082031 -11.390625 8.785156 -11.390625 L 6.324219 -11.390625 L 6.324219 -12.054688 L 6.988281 -12.054688 L 6.988281 -0.339844 C 6.988281 -0.0429688 6.894531 0.199219 6.707031 0.382812 C 6.523438 0.570312 6.28125 0.664062 5.984375 0.664062 L 3.777344 0.664062 C 3.480469 0.664062 3.238281 0.570312 3.054688 0.382812 C 2.867188 0.199219 2.773438 -0.0429688 2.773438 -0.339844 L 2.773438 -12.054688 L 3.4375 -12.054688 L 3.4375 -11.390625 L 0.976562 -11.390625 C 0.679688 -11.390625 0.4375 -11.484375 0.253906 -11.667969 C 0.0664062 -11.855469 -0.0273438 -12.097656 -0.0273438 -12.390625 L -0.0273438 -14.515625 C -0.0273438 -14.8125 0.0664062 -15.050781 0.253906 -15.238281 C 0.4375 -15.425781 0.679688 -15.515625 0.976562 -15.515625 Z M 8.785156 -15.515625 "/></g></g><g style="fill:#b21a22;fill-opacity:1;"><g transform="translate(68.074408, 41.545281)"><path style="stroke:none" d="M 8.445312 -15.515625 L 10.566406 -15.515625 C 10.941406 -15.515625 11.230469 -15.386719 11.433594 -15.121094 C 11.558594 -14.957031 11.625 -14.769531 11.625 -14.558594 C 11.625 -14.398438 11.582031 -14.234375 11.5 -14.070312 L 10.90625 -14.367188 L 11.515625 -14.097656 L 7.628906 -5.292969 L 7.023438 -5.558594 L 7.6875 -5.558594 L 7.6875 -0.425781 C 7.6875 -0.101562 7.585938 0.164062 7.386719 0.363281 C 7.1875 0.5625 6.925781 0.664062 6.597656 0.664062 L 4.5625 0.664062 C 4.238281 0.664062 3.976562 0.5625 3.773438 0.363281 C 3.574219 0.164062 3.476562 -0.101562 3.476562 -0.425781 L 3.476562 -5.558594 L 4.136719 -5.558594 L 3.53125 -5.292969 L -0.355469 -14.109375 L -0.359375 -14.121094 C -0.507812 -14.480469 -0.480469 -14.804688 -0.28125 -15.09375 C -0.0859375 -15.375 0.207031 -15.515625 0.59375 -15.515625 L 2.714844 -15.515625 C 2.976562 -15.515625 3.203125 -15.449219 3.398438 -15.3125 C 3.589844 -15.179688 3.734375 -14.988281 3.824219 -14.746094 L 3.203125 -14.515625 L 3.8125 -14.78125 L 6.1875 -9.324219 L 5.582031 -9.0625 L 4.972656 -9.324219 L 7.347656 -14.78125 L 7.957031 -14.515625 L 7.335938 -14.746094 C 7.425781 -14.988281 7.570312 -15.179688 7.765625 -15.3125 C 7.960938 -15.449219 8.1875 -15.515625 8.445312 -15.515625 Z M 8.445312 -14.191406 C 8.464844 -14.191406 8.488281 -14.203125 8.523438 -14.226562 C 8.554688 -14.246094 8.574219 -14.265625 8.578125 -14.28125 L 8.574219 -14.265625 L 5.582031 -7.402344 L 2.589844 -14.265625 L 2.582031 -14.28125 C 2.589844 -14.265625 2.609375 -14.246094 2.640625 -14.226562 C 2.671875 -14.203125 2.699219 -14.191406 2.714844 -14.191406 L 0.59375 -14.191406 C 0.605469 -14.191406 0.625 -14.195312 0.652344 -14.207031 C 0.714844 -14.234375 0.769531 -14.277344 0.808594 -14.339844 C 0.851562 -14.398438 0.875 -14.46875 0.878906 -14.539062 C 0.878906 -14.574219 0.875 -14.597656 0.871094 -14.613281 L 0.253906 -14.367188 L 0.863281 -14.632812 L 4.800781 -5.699219 L 4.800781 -0.425781 C 4.800781 -0.421875 4.800781 -0.417969 4.800781 -0.417969 C 4.800781 -0.425781 4.796875 -0.4375 4.792969 -0.449219 C 4.777344 -0.496094 4.75 -0.535156 4.714844 -0.574219 C 4.675781 -0.613281 4.632812 -0.640625 4.585938 -0.65625 C 4.574219 -0.660156 4.566406 -0.660156 4.554688 -0.664062 C 4.558594 -0.664062 4.558594 -0.664062 4.5625 -0.664062 L 6.597656 -0.664062 C 6.601562 -0.664062 6.605469 -0.664062 6.605469 -0.664062 C 6.597656 -0.660156 6.585938 -0.660156 6.574219 -0.65625 C 6.53125 -0.640625 6.488281 -0.613281 6.449219 -0.574219 C 6.410156 -0.535156 6.382812 -0.496094 6.367188 -0.449219 C 6.363281 -0.4375 6.363281 -0.425781 6.359375 -0.417969 C 6.359375 -0.417969 6.359375 -0.421875 6.359375 -0.425781 L 6.359375 -5.699219 L 10.308594 -14.648438 L 10.3125 -14.664062 C 10.300781 -14.640625 10.296875 -14.605469 10.296875 -14.558594 C 10.296875 -14.46875 10.324219 -14.386719 10.382812 -14.3125 C 10.417969 -14.261719 10.464844 -14.226562 10.519531 -14.203125 C 10.542969 -14.195312 10.558594 -14.191406 10.566406 -14.191406 Z M 8.445312 -14.191406 "/></g></g><g style="fill:#b21a22;fill-opacity:1;"><g transform="translate(19.987101, 71.129399)"><path style="stroke:none" d="M -0.664062 2.84375 L -0.664062 0.890625 C -0.664062 0.566406 -0.5625 0.304688 -0.363281 0.105469 C -0.164062 -0.0976562 0.101562 -0.195312 0.425781 -0.195312 L 13.21875 -0.195312 C 13.542969 -0.195312 13.808594 -0.0976562 14.007812 0.105469 C 14.207031 0.304688 14.308594 0.566406 14.308594 0.890625 L 14.308594 2.84375 C 14.308594 3.167969 14.207031 3.429688 14.007812 3.628906 C 13.808594 3.832031 13.542969 3.929688 13.21875 3.929688 L 0.425781 3.929688 C 0.101562 3.929688 -0.164062 3.832031 -0.363281 3.628906 C -0.5625 3.429688 -0.664062 3.167969 -0.664062 2.84375 Z M 0.664062 2.84375 C 0.664062 2.847656 0.664062 2.847656 0.664062 2.851562 C 0.664062 2.851562 0.664062 2.851562 0.664062 2.847656 C 0.660156 2.839844 0.660156 2.832031 0.65625 2.820312 C 0.640625 2.773438 0.613281 2.730469 0.574219 2.691406 C 0.535156 2.65625 0.496094 2.628906 0.449219 2.613281 C 0.4375 2.609375 0.425781 2.605469 0.417969 2.605469 C 0.417969 2.605469 0.421875 2.605469 0.425781 2.605469 L 13.21875 2.605469 C 13.222656 2.605469 13.226562 2.605469 13.226562 2.605469 C 13.21875 2.605469 13.207031 2.609375 13.195312 2.613281 C 13.148438 2.628906 13.109375 2.65625 13.070312 2.691406 C 13.03125 2.730469 13.003906 2.773438 12.988281 2.820312 C 12.984375 2.832031 12.984375 2.839844 12.980469 2.847656 C 12.980469 2.851562 12.980469 2.851562 12.980469 2.851562 C 12.980469 2.847656 12.980469 2.847656 12.980469 2.84375 L 12.980469 0.890625 C 12.980469 0.886719 12.980469 0.886719 12.980469 0.882812 C 12.980469 0.882812 12.980469 0.882812 12.980469 0.886719 C 12.984375 0.894531 12.984375 0.902344 12.988281 0.914062 C 13.003906 0.960938 13.03125 1.003906 13.070312 1.042969 C 13.109375 1.082031 13.148438 1.105469 13.195312 1.121094 C 13.207031 1.125 13.21875 1.128906 13.226562 1.128906 C 13.226562 1.128906 13.222656 1.128906 13.21875 1.128906 L 0.425781 1.128906 C 0.421875 1.128906 0.417969 1.128906 0.417969 1.128906 C 0.425781 1.128906 0.4375 1.125 0.449219 1.121094 C 0.496094 1.105469 0.535156 1.082031 0.574219 1.042969 C 0.613281 1.003906 0.640625 0.960938 0.65625 0.914062 C 0.660156 0.902344 0.660156 0.894531 0.664062 0.886719 C 0.664062 0.882812 0.664062 0.882812 0.664062 0.882812 C 0.664062 0.886719 0.664062 0.886719 0.664062 0.890625 Z M 0.664062 2.84375 "/></g></g><g style="fill:#b21a22;fill-opacity:1;"><g transform="translate(33.627174, 71.129399)"><path style="stroke:none" d="M 10.210938 -14.515625 L 10.210938 -12.390625 C 10.210938 -12.097656 10.117188 -11.855469 9.933594 -11.667969 C 9.746094 -11.484375 9.503906 -11.390625 9.210938 -11.390625 L 3.945312 -11.390625 L 3.945312 -12.054688 L 4.609375 -12.054688 L 4.609375 -8.425781 L 3.945312 -8.425781 L 3.945312 -9.085938 L 7.9375 -9.085938 C 8.234375 -9.085938 8.472656 -8.996094 8.660156 -8.808594 C 8.847656 -8.621094 8.9375 -8.382812 8.9375 -8.085938 L 8.9375 -5.960938 C 8.9375 -5.667969 8.847656 -5.425781 8.660156 -5.238281 C 8.472656 -5.054688 8.234375 -4.960938 7.9375 -4.960938 L 3.945312 -4.960938 L 3.945312 -5.625 L 4.609375 -5.625 L 4.609375 -0.339844 C 4.609375 -0.0429688 4.515625 0.199219 4.332031 0.382812 C 4.144531 0.570312 3.902344 0.664062 3.605469 0.664062 L 1.402344 0.664062 C 1.105469 0.664062 0.863281 0.570312 0.675781 0.382812 C 0.492188 0.199219 0.398438 -0.0429688 0.398438 -0.339844 L 0.398438 -14.515625 C 0.398438 -14.8125 0.492188 -15.050781 0.675781 -15.238281 C 0.863281 -15.425781 1.105469 -15.515625 1.402344 -15.515625 L 9.210938 -15.515625 C 9.503906 -15.515625 9.746094 -15.425781 9.933594 -15.238281 C 10.117188 -15.050781 10.210938 -14.8125 10.210938 -14.515625 Z M 8.886719 -14.515625 C 8.886719 -14.5 8.890625 -14.480469 8.898438 -14.453125 C 8.917969 -14.398438 8.949219 -14.34375 8.996094 -14.300781 C 9.039062 -14.253906 9.089844 -14.222656 9.148438 -14.203125 C 9.175781 -14.195312 9.195312 -14.191406 9.210938 -14.191406 L 1.402344 -14.191406 C 1.414062 -14.191406 1.4375 -14.195312 1.460938 -14.203125 C 1.519531 -14.222656 1.570312 -14.253906 1.613281 -14.300781 C 1.660156 -14.34375 1.691406 -14.398438 1.710938 -14.453125 C 1.71875 -14.480469 1.722656 -14.5 1.722656 -14.515625 L 1.722656 -0.339844 C 1.722656 -0.355469 1.71875 -0.375 1.710938 -0.402344 C 1.691406 -0.457031 1.660156 -0.507812 1.613281 -0.554688 C 1.570312 -0.597656 1.519531 -0.632812 1.460938 -0.648438 C 1.4375 -0.660156 1.414062 -0.664062 1.402344 -0.664062 L 3.605469 -0.664062 C 3.59375 -0.664062 3.570312 -0.660156 3.546875 -0.648438 C 3.488281 -0.632812 3.4375 -0.597656 3.394531 -0.554688 C 3.347656 -0.507812 3.316406 -0.457031 3.296875 -0.402344 C 3.289062 -0.375 3.285156 -0.355469 3.285156 -0.339844 L 3.285156 -6.285156 L 7.9375 -6.285156 C 7.921875 -6.285156 7.902344 -6.28125 7.875 -6.273438 C 7.820312 -6.253906 7.765625 -6.222656 7.722656 -6.175781 C 7.675781 -6.132812 7.644531 -6.082031 7.625 -6.023438 C 7.617188 -6 7.613281 -5.976562 7.613281 -5.960938 L 7.613281 -8.085938 C 7.613281 -8.070312 7.617188 -8.050781 7.625 -8.023438 C 7.644531 -7.96875 7.675781 -7.914062 7.722656 -7.871094 C 7.765625 -7.824219 7.820312 -7.792969 7.875 -7.773438 C 7.902344 -7.765625 7.921875 -7.761719 7.9375 -7.761719 L 3.285156 -7.761719 L 3.285156 -12.714844 L 9.210938 -12.714844 C 9.195312 -12.714844 9.175781 -12.710938 9.148438 -12.703125 C 9.089844 -12.683594 9.039062 -12.652344 8.996094 -12.605469 C 8.949219 -12.5625 8.917969 -12.511719 8.898438 -12.453125 C 8.890625 -12.429688 8.886719 -12.40625 8.886719 -12.390625 Z M 8.886719 -14.515625 "/></g></g><g style="fill:#b21a22;fill-opacity:1;"><g transform="translate(44.233761, 71.129399)"><path style="stroke:none" d="M 10.191406 -14.515625 L 10.191406 -12.390625 C 10.191406 -12.097656 10.101562 -11.855469 9.925781 -11.667969 C 9.738281 -11.46875 9.492188 -11.367188 9.1875 -11.367188 L 3.945312 -11.367188 L 3.945312 -12.03125 L 4.609375 -12.03125 L 4.609375 -8.765625 L 3.945312 -8.765625 L 3.945312 -9.425781 L 7.9375 -9.425781 C 8.242188 -9.425781 8.484375 -9.328125 8.671875 -9.128906 C 8.851562 -8.941406 8.9375 -8.699219 8.9375 -8.402344 L 8.9375 -6.300781 C 8.9375 -6.007812 8.851562 -5.765625 8.671875 -5.578125 C 8.484375 -5.378906 8.242188 -5.277344 7.9375 -5.277344 L 3.945312 -5.277344 L 3.945312 -5.941406 L 4.609375 -5.941406 L 4.609375 -2.800781 L 3.945312 -2.800781 L 3.945312 -3.464844 L 9.1875 -3.464844 C 9.484375 -3.464844 9.726562 -3.371094 9.910156 -3.183594 C 10.097656 -3 10.191406 -2.757812 10.191406 -2.460938 L 10.191406 -0.339844 C 10.191406 -0.0429688 10.097656 0.199219 9.910156 0.382812 C 9.726562 0.570312 9.484375 0.664062 9.1875 0.664062 L 1.378906 0.664062 C 1.082031 0.664062 0.839844 0.566406 0.65625 0.367188 C 0.484375 0.183594 0.398438 -0.0507812 0.398438 -0.339844 L 0.398438 -14.515625 C 0.398438 -14.800781 0.484375 -15.039062 0.65625 -15.222656 C 0.839844 -15.417969 1.082031 -15.515625 1.378906 -15.515625 L 9.1875 -15.515625 C 9.484375 -15.515625 9.726562 -15.425781 9.910156 -15.238281 C 10.097656 -15.050781 10.191406 -14.8125 10.191406 -14.515625 Z M 8.863281 -14.515625 C 8.863281 -14.5 8.867188 -14.480469 8.878906 -14.453125 C 8.894531 -14.398438 8.929688 -14.34375 8.972656 -14.300781 C 9.019531 -14.253906 9.070312 -14.222656 9.128906 -14.203125 C 9.152344 -14.195312 9.171875 -14.191406 9.1875 -14.191406 L 1.378906 -14.191406 C 1.464844 -14.191406 1.546875 -14.230469 1.625 -14.316406 C 1.667969 -14.359375 1.695312 -14.410156 1.714844 -14.464844 C 1.722656 -14.488281 1.722656 -14.503906 1.722656 -14.515625 L 1.722656 -0.339844 C 1.722656 -0.351562 1.722656 -0.367188 1.714844 -0.390625 C 1.695312 -0.441406 1.667969 -0.492188 1.625 -0.539062 C 1.546875 -0.621094 1.464844 -0.664062 1.378906 -0.664062 L 9.1875 -0.664062 C 9.171875 -0.664062 9.152344 -0.660156 9.128906 -0.648438 C 9.070312 -0.632812 9.019531 -0.597656 8.972656 -0.554688 C 8.929688 -0.507812 8.894531 -0.457031 8.878906 -0.402344 C 8.867188 -0.375 8.863281 -0.355469 8.863281 -0.339844 L 8.863281 -2.460938 C 8.863281 -2.445312 8.867188 -2.425781 8.878906 -2.398438 C 8.894531 -2.34375 8.929688 -2.292969 8.972656 -2.246094 C 9.019531 -2.203125 9.070312 -2.167969 9.128906 -2.152344 C 9.152344 -2.140625 9.171875 -2.136719 9.1875 -2.136719 L 3.285156 -2.136719 L 3.285156 -6.605469 L 7.9375 -6.605469 C 7.917969 -6.605469 7.890625 -6.597656 7.863281 -6.589844 C 7.804688 -6.570312 7.753906 -6.535156 7.707031 -6.484375 C 7.667969 -6.441406 7.636719 -6.394531 7.621094 -6.34375 C 7.617188 -6.324219 7.613281 -6.308594 7.613281 -6.300781 L 7.613281 -8.402344 C 7.613281 -8.394531 7.617188 -8.382812 7.621094 -8.363281 C 7.636719 -8.3125 7.667969 -8.261719 7.707031 -8.21875 C 7.753906 -8.171875 7.804688 -8.136719 7.863281 -8.117188 C 7.890625 -8.105469 7.917969 -8.101562 7.9375 -8.101562 L 3.285156 -8.101562 L 3.285156 -12.695312 L 9.1875 -12.695312 C 9.167969 -12.695312 9.144531 -12.691406 9.117188 -12.679688 C 9.058594 -12.660156 9.003906 -12.625 8.960938 -12.578125 C 8.917969 -12.53125 8.890625 -12.484375 8.875 -12.433594 C 8.867188 -12.414062 8.863281 -12.398438 8.863281 -12.390625 Z M 8.863281 -14.515625 "/></g></g><g style="fill:#b21a22;fill-opacity:1;"><g transform="translate(54.819131, 71.129399)"><path style="stroke:none" d="M 10.191406 -14.515625 L 10.191406 -12.390625 C 10.191406 -12.097656 10.101562 -11.855469 9.925781 -11.667969 C 9.738281 -11.46875 9.492188 -11.367188 9.1875 -11.367188 L 3.945312 -11.367188 L 3.945312 -12.03125 L 4.609375 -12.03125 L 4.609375 -8.765625 L 3.945312 -8.765625 L 3.945312 -9.425781 L 7.9375 -9.425781 C 8.242188 -9.425781 8.484375 -9.328125 8.671875 -9.128906 C 8.851562 -8.941406 8.9375 -8.699219 8.9375 -8.402344 L 8.9375 -6.300781 C 8.9375 -6.007812 8.851562 -5.765625 8.671875 -5.578125 C 8.484375 -5.378906 8.242188 -5.277344 7.9375 -5.277344 L 3.945312 -5.277344 L 3.945312 -5.941406 L 4.609375 -5.941406 L 4.609375 -2.800781 L 3.945312 -2.800781 L 3.945312 -3.464844 L 9.1875 -3.464844 C 9.484375 -3.464844 9.726562 -3.371094 9.910156 -3.183594 C 10.097656 -3 10.191406 -2.757812 10.191406 -2.460938 L 10.191406 -0.339844 C 10.191406 -0.0429688 10.097656 0.199219 9.910156 0.382812 C 9.726562 0.570312 9.484375 0.664062 9.1875 0.664062 L 1.378906 0.664062 C 1.082031 0.664062 0.839844 0.566406 0.65625 0.367188 C 0.484375 0.183594 0.398438 -0.0507812 0.398438 -0.339844 L 0.398438 -14.515625 C 0.398438 -14.800781 0.484375 -15.039062 0.65625 -15.222656 C 0.839844 -15.417969 1.082031 -15.515625 1.378906 -15.515625 L 9.1875 -15.515625 C 9.484375 -15.515625 9.726562 -15.425781 9.910156 -15.238281 C 10.097656 -15.050781 10.191406 -14.8125 10.191406 -14.515625 Z M 8.863281 -14.515625 C 8.863281 -14.5 8.867188 -14.480469 8.878906 -14.453125 C 8.894531 -14.398438 8.929688 -14.34375 8.972656 -14.300781 C 9.019531 -14.253906 9.070312 -14.222656 9.128906 -14.203125 C 9.152344 -14.195312 9.171875 -14.191406 9.1875 -14.191406 L 1.378906 -14.191406 C 1.464844 -14.191406 1.546875 -14.230469 1.625 -14.316406 C 1.667969 -14.359375 1.695312 -14.410156 1.714844 -14.464844 C 1.722656 -14.488281 1.722656 -14.503906 1.722656 -14.515625 L 1.722656 -0.339844 C 1.722656 -0.351562 1.722656 -0.367188 1.714844 -0.390625 C 1.695312 -0.441406 1.667969 -0.492188 1.625 -0.539062 C 1.546875 -0.621094 1.464844 -0.664062 1.378906 -0.664062 L 9.1875 -0.664062 C 9.171875 -0.664062 9.152344 -0.660156 9.128906 -0.648438 C 9.070312 -0.632812 9.019531 -0.597656 8.972656 -0.554688 C 8.929688 -0.507812 8.894531 -0.457031 8.878906 -0.402344 C 8.867188 -0.375 8.863281 -0.355469 8.863281 -0.339844 L 8.863281 -2.460938 C 8.863281 -2.445312 8.867188 -2.425781 8.878906 -2.398438 C 8.894531 -2.34375 8.929688 -2.292969 8.972656 -2.246094 C 9.019531 -2.203125 9.070312 -2.167969 9.128906 -2.152344 C 9.152344 -2.140625 9.171875 -2.136719 9.1875 -2.136719 L 3.285156 -2.136719 L 3.285156 -6.605469 L 7.9375 -6.605469 C 7.917969 -6.605469 7.890625 -6.597656 7.863281 -6.589844 C 7.804688 -6.570312 7.753906 -6.535156 7.707031 -6.484375 C 7.667969 -6.441406 7.636719 -6.394531 7.621094 -6.34375 C 7.617188 -6.324219 7.613281 -6.308594 7.613281 -6.300781 L 7.613281 -8.402344 C 7.613281 -8.394531 7.617188 -8.382812 7.621094 -8.363281 C 7.636719 -8.3125 7.667969 -8.261719 7.707031 -8.21875 C 7.753906 -8.171875 7.804688 -8.136719 7.863281 -8.117188 C 7.890625 -8.105469 7.917969 -8.101562 7.9375 -8.101562 L 3.285156 -8.101562 L 3.285156 -12.695312 L 9.1875 -12.695312 C 9.167969 -12.695312 9.144531 -12.691406 9.117188 -12.679688 C 9.058594 -12.660156 9.003906 -12.625 8.960938 -12.578125 C 8.917969 -12.53125 8.890625 -12.484375 8.875 -12.433594 C 8.867188 -12.414062 8.863281 -12.398438 8.863281 -12.390625 Z M 8.863281 -14.515625 "/></g></g><g style="fill:#b21a22;fill-opacity:1;"><g transform="translate(65.404501, 71.129399)"><path style="stroke:none" d="M 0.398438 -0.339844 L 0.398438 -14.515625 C 0.398438 -14.8125 0.492188 -15.050781 0.675781 -15.238281 C 0.863281 -15.425781 1.105469 -15.515625 1.402344 -15.515625 L 6.492188 -15.515625 C 7.683594 -15.515625 8.601562 -15.191406 9.246094 -14.535156 C 9.890625 -13.882812 10.210938 -12.960938 10.210938 -11.777344 L 10.210938 -3.054688 C 10.210938 -1.882812 9.890625 -0.972656 9.246094 -0.320312 C 8.601562 0.335938 7.683594 0.664062 6.492188 0.664062 L 1.402344 0.664062 C 1.105469 0.664062 0.863281 0.570312 0.675781 0.382812 C 0.492188 0.199219 0.398438 -0.0429688 0.398438 -0.339844 Z M 1.722656 -0.339844 C 1.722656 -0.355469 1.71875 -0.375 1.710938 -0.402344 C 1.691406 -0.457031 1.660156 -0.507812 1.613281 -0.554688 C 1.570312 -0.597656 1.519531 -0.632812 1.460938 -0.648438 C 1.4375 -0.660156 1.414062 -0.664062 1.402344 -0.664062 L 6.492188 -0.664062 C 7.3125 -0.664062 7.914062 -0.859375 8.300781 -1.25 C 8.691406 -1.644531 8.886719 -2.246094 8.886719 -3.054688 L 8.886719 -11.777344 C 8.886719 -12.601562 8.691406 -13.207031 8.300781 -13.601562 C 7.914062 -13.996094 7.3125 -14.191406 6.492188 -14.191406 L 1.402344 -14.191406 C 1.414062 -14.191406 1.4375 -14.195312 1.460938 -14.203125 C 1.519531 -14.222656 1.570312 -14.253906 1.613281 -14.300781 C 1.660156 -14.34375 1.691406 -14.398438 1.710938 -14.453125 C 1.71875 -14.480469 1.722656 -14.5 1.722656 -14.515625 Z M 3.945312 -3.464844 L 5.898438 -3.464844 C 5.96875 -3.464844 6.023438 -3.46875 6.0625 -3.484375 C 6.066406 -3.484375 6.074219 -3.488281 6.074219 -3.488281 C 6.074219 -3.488281 6.070312 -3.484375 6.066406 -3.480469 C 6.0625 -3.480469 6.0625 -3.476562 6.058594 -3.472656 C 6.0625 -3.476562 6.0625 -3.480469 6.066406 -3.488281 C 6.078125 -3.527344 6.085938 -3.582031 6.085938 -3.648438 L 6.085938 -11.183594 C 6.085938 -11.257812 6.078125 -11.316406 6.0625 -11.359375 C 6.0625 -11.367188 6.058594 -11.375 6.054688 -11.378906 C 6.058594 -11.375 6.058594 -11.375 6.0625 -11.371094 L 6.054688 -11.371094 C 6.019531 -11.382812 5.96875 -11.390625 5.898438 -11.390625 L 3.945312 -11.390625 L 3.945312 -12.054688 L 4.609375 -12.054688 L 4.609375 -2.800781 L 3.945312 -2.800781 Z M 3.285156 -2.136719 L 3.285156 -12.714844 L 5.898438 -12.714844 C 6.367188 -12.714844 6.738281 -12.578125 7.011719 -12.296875 C 7.277344 -12.023438 7.410156 -11.652344 7.410156 -11.183594 L 7.410156 -3.648438 C 7.410156 -3.183594 7.277344 -2.816406 7.003906 -2.542969 C 6.734375 -2.273438 6.363281 -2.136719 5.898438 -2.136719 Z M 3.285156 -2.136719 "/></g></g><g style="fill:#060705;fill-opacity:1;"><g transform="translate(16.759742, 41.545281)"><path style="stroke:none" d="M 1.0625 -0.34375 L 1.0625 -14.515625 C 1.0625 -14.742188 1.175781 -14.859375 1.40625 -14.859375 L 6.5 -14.859375 C 7.5 -14.859375 8.253906 -14.597656 8.765625 -14.078125 C 9.285156 -13.554688 9.546875 -12.796875 9.546875 -11.796875 L 9.546875 -7.640625 C 9.546875 -6.648438 9.285156 -5.894531 8.765625 -5.375 C 8.253906 -4.863281 7.5 -4.597656 6.5 -4.578125 L 3.8125 -4.5625 L 3.8125 -0.3125 C 3.8125 -0.09375 3.703125 0.015625 3.484375 0.015625 L 1.40625 0 C 1.175781 0 1.0625 -0.113281 1.0625 -0.34375 Z M 3.8125 -7.296875 L 5.9375 -7.328125 C 6.507812 -7.328125 6.796875 -7.609375 6.796875 -8.171875 L 6.796875 -11.265625 C 6.796875 -11.828125 6.507812 -12.109375 5.9375 -12.109375 L 3.8125 -12.09375 Z M 3.8125 -7.296875 "/></g></g><g style="fill:#060705;fill-opacity:1;"><g transform="translate(27.366329, 41.545281)"><path style="stroke:none" d="M 9.546875 -11.796875 L 9.546875 -7.53125 C 9.546875 -6.300781 9.148438 -5.4375 8.359375 -4.9375 L 9.46875 -0.375 C 9.53125 -0.125 9.429688 0 9.171875 0 L 7.09375 0 C 6.894531 0 6.769531 -0.0976562 6.71875 -0.296875 L 5.703125 -4.484375 L 3.8125 -4.484375 L 3.8125 -0.34375 C 3.8125 -0.113281 3.703125 0 3.484375 0 L 1.40625 0 C 1.175781 0 1.0625 -0.113281 1.0625 -0.34375 L 1.0625 -14.515625 C 1.0625 -14.742188 1.175781 -14.859375 1.40625 -14.859375 L 6.5 -14.859375 C 7.5 -14.859375 8.253906 -14.597656 8.765625 -14.078125 C 9.285156 -13.554688 9.546875 -12.796875 9.546875 -11.796875 Z M 3.8125 -7.21875 L 5.9375 -7.21875 C 6.507812 -7.21875 6.796875 -7.5 6.796875 -8.0625 L 6.796875 -11.265625 C 6.796875 -11.828125 6.507812 -12.109375 5.9375 -12.109375 L 3.8125 -12.109375 Z M 3.8125 -7.21875 "/></g></g><g style="fill:#060705;fill-opacity:1;"><g transform="translate(37.972916, 41.545281)"><path style="stroke:none" d="M 9.53125 -14.515625 L 9.53125 -12.390625 C 9.53125 -12.148438 9.414062 -12.03125 9.1875 -12.03125 L 3.953125 -12.03125 L 3.953125 -8.765625 L 7.9375 -8.765625 C 8.164062 -8.765625 8.28125 -8.644531 8.28125 -8.40625 L 8.28125 -6.296875 C 8.28125 -6.054688 8.164062 -5.9375 7.9375 -5.9375 L 3.953125 -5.9375 L 3.953125 -2.796875 L 9.1875 -2.796875 C 9.414062 -2.796875 9.53125 -2.6875 9.53125 -2.46875 L 9.53125 -0.34375 C 9.53125 -0.113281 9.414062 0 9.1875 0 L 1.375 0 C 1.164062 0 1.0625 -0.113281 1.0625 -0.34375 L 1.0625 -14.515625 C 1.0625 -14.742188 1.164062 -14.859375 1.375 -14.859375 L 9.1875 -14.859375 C 9.414062 -14.859375 9.53125 -14.742188 9.53125 -14.515625 Z M 9.53125 -14.515625 "/></g></g><g style="fill:#060705;fill-opacity:1;"><g transform="translate(48.558286, 41.545281)"><path style="stroke:none" d="M 8.78125 -14.859375 L 0.96875 -14.859375 C 0.75 -14.859375 0.640625 -14.742188 0.640625 -14.515625 L 0.640625 -12.390625 C 0.640625 -12.160156 0.75 -12.046875 0.96875 -12.046875 L 3.4375 -12.046875 L 3.4375 -0.34375 C 3.4375 -0.113281 3.550781 0 3.78125 0 L 5.984375 0 C 6.210938 0 6.328125 -0.113281 6.328125 -0.34375 L 6.328125 -12.046875 L 8.78125 -12.046875 C 9.007812 -12.046875 9.125 -12.160156 9.125 -12.390625 L 9.125 -14.515625 C 9.125 -14.742188 9.007812 -14.859375 8.78125 -14.859375 Z M 8.78125 -14.859375 "/></g></g><g style="fill:#060705;fill-opacity:1;"><g transform="translate(58.316347, 41.545281)"><path style="stroke:none" d="M 8.78125 -14.859375 L 0.96875 -14.859375 C 0.75 -14.859375 0.640625 -14.742188 0.640625 -14.515625 L 0.640625 -12.390625 C 0.640625 -12.160156 0.75 -12.046875 0.96875 -12.046875 L 3.4375 -12.046875 L 3.4375 -0.34375 C 3.4375 -0.113281 3.550781 0 3.78125 0 L 5.984375 0 C 6.210938 0 6.328125 -0.113281 6.328125 -0.34375 L 6.328125 -12.046875 L 8.78125 -12.046875 C 9.007812 -12.046875 9.125 -12.160156 9.125 -12.390625 L 9.125 -14.515625 C 9.125 -14.742188 9.007812 -14.859375 8.78125 -14.859375 Z M 8.78125 -14.859375 "/></g></g><g style="fill:#060705;fill-opacity:1;"><g transform="translate(68.074408, 41.545281)"><path style="stroke:none" d="M 8.4375 -14.859375 L 10.5625 -14.859375 C 10.71875 -14.859375 10.832031 -14.8125 10.90625 -14.71875 C 10.976562 -14.625 10.976562 -14.503906 10.90625 -14.359375 L 7.015625 -5.5625 L 7.015625 -0.421875 C 7.015625 -0.140625 6.875 0 6.59375 0 L 4.5625 0 C 4.28125 0 4.140625 -0.140625 4.140625 -0.421875 L 4.140625 -5.5625 L 0.25 -14.359375 C 0.195312 -14.503906 0.203125 -14.625 0.265625 -14.71875 C 0.328125 -14.8125 0.4375 -14.859375 0.59375 -14.859375 L 2.71875 -14.859375 C 2.957031 -14.859375 3.117188 -14.742188 3.203125 -14.515625 L 5.578125 -9.0625 L 7.953125 -14.515625 C 8.035156 -14.742188 8.195312 -14.859375 8.4375 -14.859375 Z M 8.4375 -14.859375 "/></g></g><g style="fill:#060705;fill-opacity:1;"><g transform="translate(19.987101, 71.129399)"><path style="stroke:none" d="M 0 2.84375 L 0 0.890625 C 0 0.609375 0.140625 0.46875 0.421875 0.46875 L 13.21875 0.46875 C 13.5 0.46875 13.640625 0.609375 13.640625 0.890625 L 13.640625 2.84375 C 13.640625 3.125 13.5 3.265625 13.21875 3.265625 L 0.421875 3.265625 C 0.140625 3.265625 0 3.125 0 2.84375 Z M 0 2.84375 "/></g></g><g style="fill:#060705;fill-opacity:1;"><g transform="translate(33.627174, 71.129399)"><path style="stroke:none" d="M 9.546875 -14.515625 L 9.546875 -12.390625 C 9.546875 -12.160156 9.429688 -12.046875 9.203125 -12.046875 L 3.953125 -12.046875 L 3.953125 -8.421875 L 7.9375 -8.421875 C 8.164062 -8.421875 8.28125 -8.304688 8.28125 -8.078125 L 8.28125 -5.96875 C 8.28125 -5.738281 8.164062 -5.625 7.9375 -5.625 L 3.953125 -5.625 L 3.953125 -0.34375 C 3.953125 -0.113281 3.835938 0 3.609375 0 L 1.40625 0 C 1.175781 0 1.0625 -0.113281 1.0625 -0.34375 L 1.0625 -14.515625 C 1.0625 -14.742188 1.175781 -14.859375 1.40625 -14.859375 L 9.203125 -14.859375 C 9.429688 -14.859375 9.546875 -14.742188 9.546875 -14.515625 Z M 9.546875 -14.515625 "/></g></g><g style="fill:#060705;fill-opacity:1;"><g transform="translate(44.233761, 71.129399)"><path style="stroke:none" d="M 9.53125 -14.515625 L 9.53125 -12.390625 C 9.53125 -12.148438 9.414062 -12.03125 9.1875 -12.03125 L 3.953125 -12.03125 L 3.953125 -8.765625 L 7.9375 -8.765625 C 8.164062 -8.765625 8.28125 -8.644531 8.28125 -8.40625 L 8.28125 -6.296875 C 8.28125 -6.054688 8.164062 -5.9375 7.9375 -5.9375 L 3.953125 -5.9375 L 3.953125 -2.796875 L 9.1875 -2.796875 C 9.414062 -2.796875 9.53125 -2.6875 9.53125 -2.46875 L 9.53125 -0.34375 C 9.53125 -0.113281 9.414062 0 9.1875 0 L 1.375 0 C 1.164062 0 1.0625 -0.113281 1.0625 -0.34375 L 1.0625 -14.515625 C 1.0625 -14.742188 1.164062 -14.859375 1.375 -14.859375 L 9.1875 -14.859375 C 9.414062 -14.859375 9.53125 -14.742188 9.53125 -14.515625 Z M 9.53125 -14.515625 "/></g></g><g style="fill:#060705;fill-opacity:1;"><g transform="translate(54.819131, 71.129399)"><path style="stroke:none" d="M 9.53125 -14.515625 L 9.53125 -12.390625 C 9.53125 -12.148438 9.414062 -12.03125 9.1875 -12.03125 L 3.953125 -12.03125 L 3.953125 -8.765625 L 7.9375 -8.765625 C 8.164062 -8.765625 8.28125 -8.644531 8.28125 -8.40625 L 8.28125 -6.296875 C 8.28125 -6.054688 8.164062 -5.9375 7.9375 -5.9375 L 3.953125 -5.9375 L 3.953125 -2.796875 L 9.1875 -2.796875 C 9.414062 -2.796875 9.53125 -2.6875 9.53125 -2.46875 L 9.53125 -0.34375 C 9.53125 -0.113281 9.414062 0 9.1875 0 L 1.375 0 C 1.164062 0 1.0625 -0.113281 1.0625 -0.34375 L 1.0625 -14.515625 C 1.0625 -14.742188 1.164062 -14.859375 1.375 -14.859375 L 9.1875 -14.859375 C 9.414062 -14.859375 9.53125 -14.742188 9.53125 -14.515625 Z M 9.53125 -14.515625 "/></g></g><g style="fill:#060705;fill-opacity:1;"><g transform="translate(65.404501, 71.129399)"><path style="stroke:none" d="M 1.0625 -0.34375 L 1.0625 -14.515625 C 1.0625 -14.742188 1.175781 -14.859375 1.40625 -14.859375 L 6.5 -14.859375 C 7.5 -14.859375 8.253906 -14.59375 8.765625 -14.0625 C 9.285156 -13.539062 9.546875 -12.78125 9.546875 -11.78125 L 9.546875 -3.0625 C 9.546875 -2.0625 9.285156 -1.300781 8.765625 -0.78125 C 8.253906 -0.257812 7.5 0 6.5 0 L 1.40625 0 C 1.175781 0 1.0625 -0.113281 1.0625 -0.34375 Z M 3.953125 -2.796875 L 5.90625 -2.796875 C 6.46875 -2.796875 6.75 -3.082031 6.75 -3.65625 L 6.75 -11.1875 C 6.75 -11.757812 6.46875 -12.046875 5.90625 -12.046875 L 3.953125 -12.046875 Z M 3.953125 -2.796875 "/></g></g></g></svg>