<svg xmlns="http://www.w3.org/2000/svg" xmlns:xlink="http://www.w3.org/1999/xlink" width="128" zoomAndPan="magnify" viewBox="0 0 96 95.999999" height="128" preserveAspectRatio="xMidYMid meet" version="1.2"><defs><clipPath id="e160634866"><path d="M 6 0 L 90 0 L 90 96 L 6 96 Z M 6 0 "/></clipPath><clipPath id="db626a7b1e"><path d="M -14.304688 36.578125 L 68.691406 -11.898438 L 110.335938 59.402344 L 27.339844 107.878906 Z M -14.304688 36.578125 "/></clipPath><clipPath id="cfb5ae362f"><path d="M 89.484375 23.769531 L 89.5625 71.535156 L 48.082031 95.765625 L 6.515625 72.226562 L 6.4375 24.464844 L 47.921875 0.234375 Z M 89.484375 23.769531 "/></clipPath><clipPath id="1d48effcda"><path d="M 14.140625 9.121094 L 81.851562 9.121094 L 81.851562 86.839844 L 14.140625 86.839844 Z M 14.140625 9.121094 "/></clipPath></defs><g id="df1c1c4f48"><g clip-rule="nonzero" clip-path="url(#e160634866)"><g clip-rule="nonzero" clip-path="url(#db626a7b1e)"><g clip-rule="nonzero" clip-path="url(#cfb5ae362f)"><path style=" stroke:none;fill-rule:nonzero;fill:#65b30e;fill-opacity:1;" d="M -14.304688 36.578125 L 68.691406 -11.898438 L 110.335938 59.402344 L 27.339844 107.878906 Z M -14.304688 36.578125 "/></g></g></g><path style=" stroke:none;fill-rule:nonzero;fill:#87ff00;fill-opacity:1;" d="M 34.453125 34.738281 L 34.410156 34.695312 L 24.839844 44.265625 L 48.074219 67.457031 L 57.644531 57.933594 L 71.308594 44.265625 L 61.738281 34.695312 L 61.738281 34.652344 L 34.410156 34.652344 Z M 34.453125 34.738281 "/><g clip-rule="nonzero" clip-path="url(#1d48effcda)"><path style=" stroke:none;fill-rule:nonzero;fill:#87ff00;fill-opacity:1;" d="M 47.988281 9.179688 L 14.148438 28.574219 L 14.148438 67.371094 L 47.988281 86.769531 L 81.828125 67.371094 L 81.828125 28.574219 Z M 75.359375 63.664062 L 47.988281 79.4375 L 20.613281 63.664062 L 20.617188 32.195312 L 47.988281 16.417969 L 75.363281 32.195312 L 75.363281 63.664062 Z M 75.359375 63.664062 "/></g><g style="fill:#b21a22;fill-opacity:1;"><g transform="translate(11.46971, 41.462447)"><path style="stroke:none" d="M 0.402344 -3.09375 L 0.402344 -11.949219 C 0.402344 -13.152344 0.734375 -14.082031 1.398438 -14.738281 C 2.058594 -15.390625 2.984375 -15.714844 4.167969 -15.714844 L 6.578125 -15.714844 C 7.761719 -15.714844 8.6875 -15.390625 9.347656 -14.738281 C 10.011719 -14.082031 10.34375 -13.152344 10.34375 -11.949219 L 10.34375 -10.359375 C 10.34375 -10.058594 10.25 -9.816406 10.058594 -9.625 C 9.871094 -9.4375 9.628906 -9.34375 9.328125 -9.34375 L 7.308594 -9.34375 C 7.007812 -9.34375 6.761719 -9.4375 6.574219 -9.625 C 6.386719 -9.816406 6.292969 -10.058594 6.292969 -10.359375 L 6.292969 -11.414062 C 6.292969 -11.484375 6.285156 -11.539062 6.273438 -11.574219 C 6.269531 -11.582031 6.269531 -11.589844 6.265625 -11.589844 C 6.269531 -11.589844 6.269531 -11.585938 6.273438 -11.582031 C 6.277344 -11.578125 6.28125 -11.578125 6.28125 -11.574219 C 6.28125 -11.578125 6.273438 -11.578125 6.265625 -11.582031 C 6.230469 -11.59375 6.175781 -11.601562 6.105469 -11.601562 L 4.726562 -11.601562 C 4.65625 -11.601562 4.601562 -11.59375 4.566406 -11.582031 C 4.558594 -11.578125 4.550781 -11.578125 4.550781 -11.574219 C 4.550781 -11.578125 4.554688 -11.578125 4.558594 -11.582031 C 4.5625 -11.585938 4.5625 -11.589844 4.566406 -11.589844 C 4.5625 -11.589844 4.5625 -11.582031 4.558594 -11.574219 C 4.546875 -11.539062 4.539062 -11.484375 4.539062 -11.414062 L 4.539062 -3.632812 C 4.539062 -3.5625 4.546875 -3.507812 4.558594 -3.46875 C 4.5625 -3.460938 4.5625 -3.457031 4.566406 -3.453125 C 4.5625 -3.457031 4.5625 -3.460938 4.558594 -3.460938 C 4.554688 -3.464844 4.550781 -3.46875 4.550781 -3.46875 C 4.550781 -3.46875 4.558594 -3.464844 4.566406 -3.464844 C 4.601562 -3.449219 4.65625 -3.445312 4.726562 -3.445312 L 6.105469 -3.445312 C 6.175781 -3.445312 6.230469 -3.449219 6.265625 -3.464844 C 6.273438 -3.464844 6.28125 -3.46875 6.28125 -3.46875 C 6.28125 -3.46875 6.277344 -3.464844 6.273438 -3.460938 C 6.269531 -3.460938 6.269531 -3.457031 6.265625 -3.453125 C 6.269531 -3.457031 6.269531 -3.460938 6.273438 -3.46875 C 6.285156 -3.507812 6.292969 -3.5625 6.292969 -3.632812 L 6.292969 -5.503906 L 6.964844 -5.503906 L 6.964844 -4.832031 L 5.847656 -4.832031 C 5.546875 -4.832031 5.300781 -4.925781 5.113281 -5.113281 C 4.925781 -5.300781 4.832031 -5.546875 4.832031 -5.847656 L 4.832031 -7.996094 C 4.832031 -8.296875 4.925781 -8.539062 5.113281 -8.726562 C 5.300781 -8.917969 5.546875 -9.011719 5.847656 -9.011719 L 9.328125 -9.011719 C 9.628906 -9.011719 9.871094 -8.917969 10.058594 -8.726562 C 10.25 -8.539062 10.34375 -8.296875 10.34375 -7.996094 L 10.34375 -3.09375 C 10.34375 -1.90625 10.011719 -0.980469 9.351562 -0.320312 C 8.691406 0.339844 7.765625 0.671875 6.578125 0.671875 L 4.167969 0.671875 C 2.980469 0.671875 2.054688 0.339844 1.394531 -0.320312 C 0.734375 -0.980469 0.402344 -1.90625 0.402344 -3.09375 Z M 1.746094 -3.09375 C 1.746094 -2.277344 1.945312 -1.667969 2.34375 -1.269531 C 2.742188 -0.871094 3.351562 -0.671875 4.167969 -0.671875 L 6.578125 -0.671875 C 7.394531 -0.671875 8.003906 -0.871094 8.402344 -1.269531 C 8.800781 -1.667969 9 -2.277344 9 -3.09375 L 9 -7.996094 C 9 -7.980469 9.003906 -7.960938 9.011719 -7.933594 C 9.03125 -7.875 9.066406 -7.824219 9.109375 -7.777344 C 9.15625 -7.730469 9.207031 -7.699219 9.265625 -7.679688 C 9.292969 -7.671875 9.3125 -7.667969 9.328125 -7.667969 L 5.847656 -7.667969 C 5.859375 -7.667969 5.882812 -7.671875 5.90625 -7.679688 C 5.964844 -7.699219 6.015625 -7.730469 6.0625 -7.777344 C 6.109375 -7.824219 6.140625 -7.875 6.160156 -7.933594 C 6.167969 -7.960938 6.171875 -7.980469 6.171875 -7.996094 L 6.171875 -5.847656 C 6.171875 -5.859375 6.167969 -5.882812 6.160156 -5.90625 C 6.140625 -5.964844 6.109375 -6.015625 6.0625 -6.0625 C 6.015625 -6.109375 5.964844 -6.140625 5.90625 -6.160156 C 5.882812 -6.167969 5.859375 -6.171875 5.847656 -6.171875 L 7.636719 -6.171875 L 7.636719 -3.632812 C 7.636719 -3.160156 7.496094 -2.785156 7.222656 -2.511719 C 6.949219 -2.238281 6.574219 -2.101562 6.105469 -2.101562 L 4.726562 -2.101562 C 4.257812 -2.101562 3.882812 -2.238281 3.609375 -2.511719 C 3.335938 -2.785156 3.195312 -3.160156 3.195312 -3.632812 L 3.195312 -11.414062 C 3.195312 -11.882812 3.335938 -12.257812 3.609375 -12.53125 C 3.882812 -12.804688 4.257812 -12.945312 4.726562 -12.945312 L 6.105469 -12.945312 C 6.574219 -12.945312 6.949219 -12.804688 7.222656 -12.53125 C 7.496094 -12.257812 7.636719 -11.882812 7.636719 -11.414062 L 7.636719 -10.359375 C 7.636719 -10.375 7.628906 -10.394531 7.621094 -10.421875 C 7.601562 -10.476562 7.570312 -10.53125 7.523438 -10.578125 C 7.476562 -10.621094 7.425781 -10.65625 7.371094 -10.675781 C 7.34375 -10.683594 7.324219 -10.6875 7.308594 -10.6875 L 9.328125 -10.6875 C 9.3125 -10.6875 9.292969 -10.683594 9.265625 -10.675781 C 9.207031 -10.65625 9.15625 -10.621094 9.109375 -10.578125 C 9.066406 -10.53125 9.03125 -10.476562 9.011719 -10.421875 C 9.003906 -10.394531 9 -10.375 9 -10.359375 L 9 -11.949219 C 9 -12.78125 8.800781 -13.390625 8.40625 -13.78125 C 8.003906 -14.175781 7.394531 -14.371094 6.578125 -14.371094 L 4.167969 -14.371094 C 3.351562 -14.371094 2.742188 -14.175781 2.339844 -13.78125 C 1.945312 -13.390625 1.746094 -12.78125 1.746094 -11.949219 Z M 1.746094 -3.09375 "/></g></g><g style="fill:#b21a22;fill-opacity:1;"><g transform="translate(22.212416, 41.462447)"><path style="stroke:none" d="M 1.417969 -0.671875 L 3.652344 -0.671875 C 3.636719 -0.671875 3.617188 -0.667969 3.589844 -0.660156 C 3.535156 -0.640625 3.484375 -0.605469 3.4375 -0.5625 C 3.390625 -0.515625 3.359375 -0.464844 3.339844 -0.40625 C 3.332031 -0.378906 3.324219 -0.359375 3.324219 -0.34375 L 3.324219 -14.699219 C 3.324219 -14.683594 3.332031 -14.664062 3.339844 -14.640625 C 3.359375 -14.582031 3.390625 -14.53125 3.4375 -14.484375 C 3.484375 -14.4375 3.535156 -14.40625 3.589844 -14.386719 C 3.617188 -14.378906 3.636719 -14.371094 3.652344 -14.371094 L 1.417969 -14.371094 C 1.433594 -14.371094 1.453125 -14.378906 1.480469 -14.386719 C 1.539062 -14.40625 1.589844 -14.4375 1.636719 -14.484375 C 1.679688 -14.53125 1.714844 -14.582031 1.734375 -14.640625 C 1.742188 -14.664062 1.746094 -14.683594 1.746094 -14.699219 L 1.746094 -0.34375 C 1.746094 -0.359375 1.742188 -0.378906 1.734375 -0.40625 C 1.714844 -0.464844 1.679688 -0.515625 1.636719 -0.5625 C 1.589844 -0.605469 1.539062 -0.640625 1.480469 -0.660156 C 1.453125 -0.667969 1.433594 -0.671875 1.417969 -0.671875 Z M 1.417969 0.671875 C 1.117188 0.671875 0.875 0.578125 0.6875 0.390625 C 0.496094 0.199219 0.402344 -0.0429688 0.402344 -0.34375 L 0.402344 -14.699219 C 0.402344 -15 0.496094 -15.246094 0.6875 -15.433594 C 0.875 -15.621094 1.117188 -15.714844 1.417969 -15.714844 L 3.652344 -15.714844 C 3.953125 -15.714844 4.199219 -15.621094 4.386719 -15.433594 C 4.574219 -15.246094 4.667969 -15 4.667969 -14.699219 L 4.667969 -0.34375 C 4.667969 -0.0429688 4.574219 0.199219 4.386719 0.390625 C 4.199219 0.578125 3.953125 0.671875 3.652344 0.671875 Z M 1.417969 0.671875 "/></g></g><g style="fill:#b21a22;fill-opacity:1;"><g transform="translate(27.28297, 41.462447)"><path style="stroke:none" d="M 8.898438 -14.371094 L 0.988281 -14.371094 C 1.003906 -14.371094 1.023438 -14.378906 1.050781 -14.386719 C 1.109375 -14.40625 1.160156 -14.4375 1.207031 -14.484375 C 1.25 -14.53125 1.285156 -14.582031 1.304688 -14.640625 C 1.3125 -14.664062 1.316406 -14.683594 1.316406 -14.699219 L 1.316406 -12.550781 C 1.316406 -12.566406 1.3125 -12.585938 1.304688 -12.613281 C 1.285156 -12.671875 1.25 -12.722656 1.207031 -12.769531 C 1.160156 -12.816406 1.109375 -12.847656 1.050781 -12.867188 C 1.023438 -12.875 1.003906 -12.878906 0.988281 -12.878906 L 4.152344 -12.878906 L 4.152344 -0.34375 C 4.152344 -0.359375 4.148438 -0.378906 4.140625 -0.40625 C 4.121094 -0.464844 4.089844 -0.515625 4.042969 -0.5625 C 3.996094 -0.605469 3.945312 -0.640625 3.886719 -0.660156 C 3.863281 -0.667969 3.839844 -0.671875 3.824219 -0.671875 L 6.0625 -0.671875 C 6.046875 -0.671875 6.023438 -0.667969 6 -0.660156 C 5.941406 -0.640625 5.890625 -0.605469 5.84375 -0.5625 C 5.796875 -0.515625 5.765625 -0.464844 5.746094 -0.40625 C 5.738281 -0.378906 5.734375 -0.359375 5.734375 -0.34375 L 5.734375 -12.878906 L 8.898438 -12.878906 C 8.882812 -12.878906 8.863281 -12.875 8.835938 -12.867188 C 8.777344 -12.847656 8.726562 -12.816406 8.679688 -12.769531 C 8.632812 -12.722656 8.601562 -12.671875 8.582031 -12.613281 C 8.574219 -12.585938 8.570312 -12.566406 8.570312 -12.550781 L 8.570312 -14.699219 C 8.570312 -14.683594 8.574219 -14.664062 8.582031 -14.640625 C 8.601562 -14.582031 8.632812 -14.53125 8.679688 -14.484375 C 8.726562 -14.4375 8.777344 -14.40625 8.835938 -14.386719 C 8.863281 -14.378906 8.882812 -14.371094 8.898438 -14.371094 Z M 8.898438 -15.714844 C 9.199219 -15.714844 9.441406 -15.621094 9.628906 -15.433594 C 9.820312 -15.246094 9.914062 -15 9.914062 -14.699219 L 9.914062 -12.550781 C 9.914062 -12.25 9.820312 -12.007812 9.628906 -11.820312 C 9.441406 -11.628906 9.199219 -11.535156 8.898438 -11.535156 L 6.40625 -11.535156 L 6.40625 -12.207031 L 7.078125 -12.207031 L 7.078125 -0.34375 C 7.078125 -0.0429688 6.980469 0.199219 6.792969 0.390625 C 6.605469 0.578125 6.359375 0.671875 6.0625 0.671875 L 3.824219 0.671875 C 3.527344 0.671875 3.28125 0.578125 3.09375 0.390625 C 2.902344 0.199219 2.808594 -0.0429688 2.808594 -0.34375 L 2.808594 -12.207031 L 3.480469 -12.207031 L 3.480469 -11.535156 L 0.988281 -11.535156 C 0.6875 -11.535156 0.445312 -11.628906 0.253906 -11.820312 C 0.0664062 -12.007812 -0.0273438 -12.25 -0.0273438 -12.550781 L -0.0273438 -14.699219 C -0.0273438 -15 0.0664062 -15.246094 0.253906 -15.433594 C 0.445312 -15.621094 0.6875 -15.714844 0.988281 -15.714844 Z M 8.898438 -15.714844 "/></g></g><g style="fill:#b21a22;fill-opacity:1;"><g transform="translate(37.16626, 41.462447)"><path style="stroke:none" d="M 10.058594 -15.714844 L 12.894531 -15.714844 C 13.222656 -15.714844 13.488281 -15.613281 13.691406 -15.410156 C 13.894531 -15.210938 13.996094 -14.945312 13.996094 -14.613281 L 13.996094 -0.429688 C 13.996094 -0.101562 13.894531 0.164062 13.691406 0.367188 C 13.488281 0.570312 13.222656 0.671875 12.894531 0.671875 L 10.898438 0.671875 C 10.566406 0.671875 10.300781 0.570312 10.097656 0.367188 C 9.894531 0.164062 9.796875 -0.101562 9.796875 -0.429688 L 9.796875 -8.875 L 10.464844 -8.875 L 10.464844 -8.203125 L 10.316406 -8.203125 L 10.316406 -8.875 L 10.96875 -8.722656 L 8.945312 -0.191406 L 8.941406 -0.175781 C 8.863281 0.0859375 8.726562 0.289062 8.535156 0.441406 C 8.335938 0.59375 8.097656 0.671875 7.824219 0.671875 L 6.554688 0.671875 C 6.28125 0.671875 6.042969 0.59375 5.84375 0.441406 C 5.648438 0.289062 5.515625 0.0859375 5.4375 -0.175781 L 5.433594 -0.191406 L 3.410156 -8.722656 L 4.0625 -8.875 L 4.0625 -8.203125 L 3.910156 -8.203125 L 3.910156 -8.875 L 4.582031 -8.875 L 4.582031 -0.429688 C 4.582031 -0.101562 4.480469 0.164062 4.277344 0.367188 C 4.078125 0.570312 3.808594 0.671875 3.480469 0.671875 L 1.503906 0.671875 C 1.175781 0.671875 0.910156 0.570312 0.707031 0.367188 C 0.503906 0.164062 0.402344 -0.101562 0.402344 -0.429688 L 0.402344 -14.613281 C 0.402344 -14.945312 0.503906 -15.210938 0.707031 -15.410156 C 0.910156 -15.613281 1.175781 -15.714844 1.503906 -15.714844 L 4.339844 -15.714844 C 4.617188 -15.714844 4.851562 -15.640625 5.054688 -15.484375 C 5.246094 -15.335938 5.382812 -15.128906 5.457031 -14.867188 L 5.460938 -14.855469 L 7.851562 -5.257812 L 7.199219 -5.09375 L 6.546875 -5.257812 L 8.9375 -14.855469 L 8.941406 -14.867188 C 9.019531 -15.128906 9.152344 -15.335938 9.347656 -15.484375 C 9.546875 -15.640625 9.785156 -15.714844 10.058594 -15.714844 Z M 10.058594 -14.371094 C 10.089844 -14.371094 10.125 -14.390625 10.167969 -14.421875 C 10.191406 -14.441406 10.210938 -14.460938 10.222656 -14.480469 C 10.226562 -14.488281 10.230469 -14.492188 10.230469 -14.496094 C 10.230469 -14.496094 10.230469 -14.492188 10.230469 -14.488281 L 9.585938 -14.679688 L 10.238281 -14.515625 L 7.851562 -4.929688 L 6.546875 -4.929688 L 4.164062 -14.515625 L 4.8125 -14.679688 L 4.167969 -14.488281 C 4.167969 -14.492188 4.167969 -14.496094 4.167969 -14.496094 C 4.167969 -14.492188 4.171875 -14.488281 4.175781 -14.480469 C 4.1875 -14.460938 4.207031 -14.441406 4.230469 -14.421875 C 4.273438 -14.390625 4.308594 -14.371094 4.339844 -14.371094 L 1.503906 -14.371094 C 1.5 -14.371094 1.5 -14.371094 1.496094 -14.371094 C 1.496094 -14.371094 1.496094 -14.371094 1.5 -14.371094 C 1.507812 -14.375 1.515625 -14.375 1.527344 -14.378906 C 1.574219 -14.394531 1.617188 -14.421875 1.65625 -14.460938 C 1.695312 -14.5 1.722656 -14.542969 1.738281 -14.589844 C 1.742188 -14.601562 1.746094 -14.613281 1.746094 -14.621094 C 1.746094 -14.621094 1.746094 -14.617188 1.746094 -14.613281 L 1.746094 -0.429688 C 1.746094 -0.425781 1.746094 -0.425781 1.746094 -0.421875 C 1.746094 -0.421875 1.746094 -0.421875 1.746094 -0.425781 C 1.746094 -0.433594 1.742188 -0.441406 1.738281 -0.453125 C 1.722656 -0.5 1.695312 -0.542969 1.65625 -0.582031 C 1.617188 -0.621094 1.574219 -0.648438 1.527344 -0.664062 C 1.515625 -0.667969 1.507812 -0.671875 1.5 -0.671875 C 1.496094 -0.671875 1.496094 -0.671875 1.496094 -0.671875 C 1.5 -0.671875 1.5 -0.671875 1.503906 -0.671875 L 3.480469 -0.671875 C 3.484375 -0.671875 3.488281 -0.671875 3.488281 -0.671875 C 3.480469 -0.671875 3.46875 -0.667969 3.457031 -0.664062 C 3.410156 -0.648438 3.367188 -0.621094 3.328125 -0.582031 C 3.289062 -0.542969 3.261719 -0.5 3.246094 -0.453125 C 3.242188 -0.441406 3.242188 -0.433594 3.238281 -0.425781 C 3.238281 -0.421875 3.238281 -0.421875 3.238281 -0.421875 C 3.238281 -0.425781 3.238281 -0.425781 3.238281 -0.429688 L 3.238281 -9.546875 L 4.59375 -9.546875 L 6.734375 -0.519531 L 6.082031 -0.367188 L 6.726562 -0.554688 C 6.726562 -0.550781 6.726562 -0.550781 6.730469 -0.546875 C 6.726562 -0.550781 6.722656 -0.558594 6.722656 -0.5625 C 6.707031 -0.585938 6.6875 -0.605469 6.664062 -0.621094 C 6.621094 -0.65625 6.585938 -0.671875 6.554688 -0.671875 L 7.824219 -0.671875 C 7.792969 -0.671875 7.753906 -0.65625 7.714844 -0.621094 C 7.691406 -0.605469 7.671875 -0.585938 7.65625 -0.5625 C 7.652344 -0.558594 7.652344 -0.550781 7.648438 -0.546875 C 7.648438 -0.550781 7.652344 -0.550781 7.652344 -0.554688 L 8.296875 -0.367188 L 7.640625 -0.519531 L 9.785156 -9.546875 L 11.136719 -9.546875 L 11.136719 -0.429688 C 11.136719 -0.425781 11.136719 -0.425781 11.136719 -0.421875 C 11.136719 -0.421875 11.136719 -0.421875 11.136719 -0.425781 C 11.136719 -0.433594 11.132812 -0.441406 11.128906 -0.453125 C 11.117188 -0.5 11.089844 -0.542969 11.050781 -0.582031 C 11.011719 -0.621094 10.96875 -0.648438 10.921875 -0.664062 C 10.910156 -0.667969 10.898438 -0.671875 10.890625 -0.671875 C 10.890625 -0.671875 10.894531 -0.671875 10.898438 -0.671875 L 12.894531 -0.671875 C 12.898438 -0.671875 12.902344 -0.671875 12.902344 -0.671875 C 12.890625 -0.671875 12.882812 -0.667969 12.871094 -0.664062 C 12.824219 -0.648438 12.78125 -0.621094 12.742188 -0.582031 C 12.703125 -0.542969 12.675781 -0.5 12.660156 -0.453125 C 12.65625 -0.441406 12.65625 -0.433594 12.652344 -0.425781 C 12.652344 -0.421875 12.652344 -0.421875 12.652344 -0.421875 C 12.652344 -0.425781 12.652344 -0.425781 12.652344 -0.429688 L 12.652344 -14.613281 C 12.652344 -14.617188 12.652344 -14.621094 12.652344 -14.621094 C 12.65625 -14.613281 12.65625 -14.601562 12.660156 -14.589844 C 12.675781 -14.542969 12.703125 -14.5 12.742188 -14.460938 C 12.78125 -14.421875 12.824219 -14.394531 12.871094 -14.378906 C 12.882812 -14.375 12.890625 -14.375 12.902344 -14.371094 C 12.902344 -14.371094 12.898438 -14.371094 12.894531 -14.371094 Z M 10.058594 -14.371094 "/></g></g><g style="fill:#b21a22;fill-opacity:1;"><g transform="translate(51.561484, 41.462447)"><path style="stroke:none" d="M 0.402344 -3.09375 L 0.402344 -11.949219 C 0.402344 -13.152344 0.734375 -14.082031 1.398438 -14.738281 C 2.058594 -15.390625 2.984375 -15.714844 4.167969 -15.714844 L 6.578125 -15.714844 C 7.78125 -15.714844 8.707031 -15.390625 9.363281 -14.734375 C 10.015625 -14.082031 10.34375 -13.152344 10.34375 -11.949219 L 10.34375 -3.09375 C 10.34375 -1.910156 10.015625 -0.984375 9.363281 -0.324219 C 8.710938 0.339844 7.78125 0.671875 6.578125 0.671875 L 4.167969 0.671875 C 2.980469 0.671875 2.054688 0.339844 1.394531 -0.320312 C 0.734375 -0.980469 0.402344 -1.90625 0.402344 -3.09375 Z M 1.746094 -3.09375 C 1.746094 -2.277344 1.945312 -1.667969 2.34375 -1.269531 C 2.742188 -0.871094 3.351562 -0.671875 4.167969 -0.671875 L 6.578125 -0.671875 C 7.40625 -0.671875 8.015625 -0.871094 8.410156 -1.265625 C 8.804688 -1.667969 9 -2.277344 9 -3.09375 L 9 -11.949219 C 9 -12.78125 8.804688 -13.394531 8.410156 -13.785156 C 8.019531 -14.175781 7.410156 -14.371094 6.578125 -14.371094 L 4.167969 -14.371094 C 3.351562 -14.371094 2.742188 -14.175781 2.339844 -13.78125 C 1.945312 -13.390625 1.746094 -12.78125 1.746094 -11.949219 Z M 4.726562 -3.445312 L 6.105469 -3.445312 C 6.175781 -3.445312 6.230469 -3.449219 6.265625 -3.464844 C 6.273438 -3.464844 6.28125 -3.46875 6.28125 -3.46875 C 6.28125 -3.46875 6.277344 -3.464844 6.273438 -3.460938 C 6.269531 -3.460938 6.269531 -3.457031 6.265625 -3.453125 C 6.269531 -3.457031 6.269531 -3.460938 6.273438 -3.46875 C 6.285156 -3.507812 6.292969 -3.5625 6.292969 -3.632812 L 6.292969 -11.414062 C 6.292969 -11.484375 6.285156 -11.539062 6.273438 -11.574219 C 6.269531 -11.582031 6.269531 -11.589844 6.265625 -11.589844 C 6.269531 -11.589844 6.269531 -11.585938 6.273438 -11.582031 C 6.277344 -11.578125 6.28125 -11.578125 6.28125 -11.574219 C 6.28125 -11.578125 6.273438 -11.578125 6.265625 -11.582031 C 6.230469 -11.59375 6.175781 -11.601562 6.105469 -11.601562 L 4.726562 -11.601562 C 4.65625 -11.601562 4.601562 -11.59375 4.566406 -11.582031 C 4.558594 -11.578125 4.550781 -11.578125 4.550781 -11.574219 C 4.550781 -11.578125 4.554688 -11.578125 4.558594 -11.582031 C 4.5625 -11.585938 4.5625 -11.589844 4.566406 -11.589844 C 4.5625 -11.589844 4.5625 -11.582031 4.558594 -11.574219 C 4.546875 -11.539062 4.539062 -11.484375 4.539062 -11.414062 L 4.539062 -3.632812 C 4.539062 -3.5625 4.546875 -3.507812 4.558594 -3.46875 C 4.5625 -3.460938 4.5625 -3.457031 4.566406 -3.453125 C 4.5625 -3.457031 4.5625 -3.460938 4.558594 -3.460938 C 4.554688 -3.464844 4.550781 -3.46875 4.550781 -3.46875 C 4.550781 -3.46875 4.558594 -3.464844 4.566406 -3.464844 C 4.601562 -3.449219 4.65625 -3.445312 4.726562 -3.445312 Z M 4.726562 -2.101562 C 4.257812 -2.101562 3.882812 -2.238281 3.609375 -2.511719 C 3.335938 -2.785156 3.195312 -3.160156 3.195312 -3.632812 L 3.195312 -11.414062 C 3.195312 -11.882812 3.335938 -12.257812 3.609375 -12.53125 C 3.882812 -12.804688 4.257812 -12.945312 4.726562 -12.945312 L 6.105469 -12.945312 C 6.574219 -12.945312 6.949219 -12.804688 7.222656 -12.53125 C 7.496094 -12.257812 7.636719 -11.882812 7.636719 -11.414062 L 7.636719 -3.632812 C 7.636719 -3.160156 7.496094 -2.785156 7.222656 -2.511719 C 6.949219 -2.238281 6.574219 -2.101562 6.105469 -2.101562 Z M 4.726562 -2.101562 "/></g></g><g style="fill:#b21a22;fill-opacity:1;"><g transform="translate(62.30419, 41.462447)"><path style="stroke:none" d="M 6.078125 -3.695312 L 6.078125 -14.699219 C 6.078125 -15 6.171875 -15.246094 6.359375 -15.433594 C 6.546875 -15.621094 6.792969 -15.714844 7.09375 -15.714844 L 9.328125 -15.714844 C 9.628906 -15.714844 9.871094 -15.621094 10.058594 -15.433594 C 10.25 -15.246094 10.34375 -15 10.34375 -14.699219 L 10.34375 -3.09375 C 10.34375 -1.90625 10.011719 -0.980469 9.351562 -0.320312 C 8.691406 0.339844 7.765625 0.671875 6.578125 0.671875 L 4.167969 0.671875 C 2.980469 0.671875 2.054688 0.339844 1.394531 -0.320312 C 0.734375 -0.980469 0.402344 -1.90625 0.402344 -3.09375 L 0.402344 -5.328125 C 0.402344 -5.628906 0.496094 -5.875 0.6875 -6.0625 C 0.875 -6.25 1.117188 -6.34375 1.417969 -6.34375 L 3.566406 -6.34375 C 3.867188 -6.34375 4.113281 -6.25 4.300781 -6.0625 C 4.488281 -5.875 4.582031 -5.628906 4.582031 -5.328125 L 4.582031 -3.695312 C 4.582031 -3.625 4.589844 -3.570312 4.601562 -3.53125 C 4.605469 -3.527344 4.605469 -3.519531 4.609375 -3.519531 C 4.605469 -3.519531 4.605469 -3.523438 4.601562 -3.527344 C 4.597656 -3.53125 4.59375 -3.53125 4.59375 -3.535156 C 4.59375 -3.53125 4.601562 -3.53125 4.609375 -3.527344 C 4.644531 -3.515625 4.699219 -3.507812 4.769531 -3.507812 L 5.890625 -3.507812 C 5.960938 -3.507812 6.015625 -3.515625 6.050781 -3.527344 C 6.058594 -3.53125 6.066406 -3.53125 6.066406 -3.535156 C 6.066406 -3.53125 6.0625 -3.53125 6.058594 -3.527344 C 6.054688 -3.523438 6.054688 -3.519531 6.050781 -3.519531 C 6.054688 -3.519531 6.054688 -3.527344 6.058594 -3.53125 C 6.070312 -3.570312 6.078125 -3.625 6.078125 -3.695312 Z M 7.421875 -3.695312 C 7.421875 -3.226562 7.28125 -2.851562 7.007812 -2.578125 C 6.734375 -2.300781 6.359375 -2.164062 5.890625 -2.164062 L 4.769531 -2.164062 C 4.300781 -2.164062 3.925781 -2.300781 3.652344 -2.578125 C 3.378906 -2.851562 3.238281 -3.226562 3.238281 -3.695312 L 3.238281 -5.328125 C 3.238281 -5.316406 3.246094 -5.292969 3.253906 -5.269531 C 3.273438 -5.210938 3.304688 -5.160156 3.351562 -5.113281 C 3.398438 -5.066406 3.449219 -5.035156 3.503906 -5.015625 C 3.53125 -5.007812 3.550781 -5.003906 3.566406 -5.003906 L 1.417969 -5.003906 C 1.433594 -5.003906 1.453125 -5.007812 1.480469 -5.015625 C 1.539062 -5.035156 1.589844 -5.066406 1.636719 -5.113281 C 1.679688 -5.160156 1.714844 -5.210938 1.734375 -5.269531 C 1.742188 -5.292969 1.746094 -5.316406 1.746094 -5.328125 L 1.746094 -3.09375 C 1.746094 -2.277344 1.945312 -1.667969 2.34375 -1.269531 C 2.742188 -0.871094 3.351562 -0.671875 4.167969 -0.671875 L 6.578125 -0.671875 C 7.394531 -0.671875 8.003906 -0.871094 8.402344 -1.269531 C 8.800781 -1.667969 9 -2.277344 9 -3.09375 L 9 -14.699219 C 9 -14.683594 9.003906 -14.664062 9.011719 -14.640625 C 9.03125 -14.582031 9.066406 -14.53125 9.109375 -14.484375 C 9.15625 -14.4375 9.207031 -14.40625 9.265625 -14.386719 C 9.292969 -14.378906 9.3125 -14.371094 9.328125 -14.371094 L 7.09375 -14.371094 C 7.109375 -14.371094 7.128906 -14.378906 7.15625 -14.386719 C 7.210938 -14.40625 7.261719 -14.4375 7.308594 -14.484375 C 7.355469 -14.53125 7.386719 -14.582031 7.40625 -14.640625 C 7.414062 -14.664062 7.421875 -14.683594 7.421875 -14.699219 Z M 7.421875 -3.695312 "/></g></g><g style="fill:#b21a22;fill-opacity:1;"><g transform="translate(73.046896, 41.462447)"><path style="stroke:none" d="M 1.417969 -0.671875 L 3.652344 -0.671875 C 3.636719 -0.671875 3.617188 -0.667969 3.589844 -0.660156 C 3.535156 -0.640625 3.484375 -0.605469 3.4375 -0.5625 C 3.390625 -0.515625 3.359375 -0.464844 3.339844 -0.40625 C 3.332031 -0.378906 3.324219 -0.359375 3.324219 -0.34375 L 3.324219 -14.699219 C 3.324219 -14.683594 3.332031 -14.664062 3.339844 -14.640625 C 3.359375 -14.582031 3.390625 -14.53125 3.4375 -14.484375 C 3.484375 -14.4375 3.535156 -14.40625 3.589844 -14.386719 C 3.617188 -14.378906 3.636719 -14.371094 3.652344 -14.371094 L 1.417969 -14.371094 C 1.433594 -14.371094 1.453125 -14.378906 1.480469 -14.386719 C 1.539062 -14.40625 1.589844 -14.4375 1.636719 -14.484375 C 1.679688 -14.53125 1.714844 -14.582031 1.734375 -14.640625 C 1.742188 -14.664062 1.746094 -14.683594 1.746094 -14.699219 L 1.746094 -0.34375 C 1.746094 -0.359375 1.742188 -0.378906 1.734375 -0.40625 C 1.714844 -0.464844 1.679688 -0.515625 1.636719 -0.5625 C 1.589844 -0.605469 1.539062 -0.640625 1.480469 -0.660156 C 1.453125 -0.667969 1.433594 -0.671875 1.417969 -0.671875 Z M 1.417969 0.671875 C 1.117188 0.671875 0.875 0.578125 0.6875 0.390625 C 0.496094 0.199219 0.402344 -0.0429688 0.402344 -0.34375 L 0.402344 -14.699219 C 0.402344 -15 0.496094 -15.246094 0.6875 -15.433594 C 0.875 -15.621094 1.117188 -15.714844 1.417969 -15.714844 L 3.652344 -15.714844 C 3.953125 -15.714844 4.199219 -15.621094 4.386719 -15.433594 C 4.574219 -15.246094 4.667969 -15 4.667969 -14.699219 L 4.667969 -0.34375 C 4.667969 -0.0429688 4.574219 0.199219 4.386719 0.390625 C 4.199219 0.578125 3.953125 0.671875 3.652344 0.671875 Z M 1.417969 0.671875 "/></g></g><g style="fill:#b21a22;fill-opacity:1;"><g transform="translate(78.11745, 41.462447)"><path style="stroke:none" d="M 0.402344 -6.75 L 0.402344 -8.726562 C 0.402344 -9.054688 0.503906 -9.320312 0.707031 -9.523438 C 0.910156 -9.726562 1.175781 -9.828125 1.503906 -9.828125 L 4.898438 -9.828125 C 5.230469 -9.828125 5.496094 -9.726562 5.699219 -9.523438 C 5.898438 -9.320312 6 -9.054688 6 -8.726562 L 6 -6.75 C 6 -6.417969 5.898438 -6.152344 5.699219 -5.953125 C 5.496094 -5.75 5.230469 -5.648438 4.898438 -5.648438 L 1.503906 -5.648438 C 1.175781 -5.648438 0.910156 -5.75 0.707031 -5.953125 C 0.503906 -6.152344 0.402344 -6.417969 0.402344 -6.75 Z M 1.746094 -6.75 C 1.746094 -6.746094 1.746094 -6.742188 1.746094 -6.742188 C 1.746094 -6.75 1.742188 -6.761719 1.738281 -6.773438 C 1.722656 -6.820312 1.695312 -6.863281 1.65625 -6.902344 C 1.617188 -6.941406 1.574219 -6.96875 1.527344 -6.984375 C 1.515625 -6.988281 1.507812 -6.988281 1.5 -6.992188 C 1.496094 -6.992188 1.496094 -6.992188 1.496094 -6.992188 C 1.5 -6.992188 1.5 -6.992188 1.503906 -6.992188 L 4.898438 -6.992188 C 4.902344 -6.992188 4.90625 -6.992188 4.90625 -6.992188 C 4.898438 -6.988281 4.886719 -6.988281 4.875 -6.984375 C 4.828125 -6.96875 4.785156 -6.941406 4.746094 -6.902344 C 4.707031 -6.863281 4.679688 -6.820312 4.664062 -6.773438 C 4.664062 -6.761719 4.660156 -6.75 4.660156 -6.742188 C 4.660156 -6.742188 4.65625 -6.742188 4.65625 -6.742188 C 4.660156 -6.742188 4.660156 -6.746094 4.660156 -6.75 L 4.660156 -8.726562 C 4.660156 -8.730469 4.660156 -8.730469 4.65625 -8.734375 C 4.65625 -8.734375 4.660156 -8.734375 4.660156 -8.730469 C 4.660156 -8.722656 4.664062 -8.714844 4.664062 -8.703125 C 4.679688 -8.65625 4.707031 -8.613281 4.746094 -8.574219 C 4.785156 -8.535156 4.828125 -8.507812 4.875 -8.492188 C 4.886719 -8.488281 4.898438 -8.484375 4.90625 -8.484375 C 4.90625 -8.484375 4.902344 -8.484375 4.898438 -8.484375 L 1.503906 -8.484375 C 1.5 -8.484375 1.5 -8.484375 1.496094 -8.484375 C 1.496094 -8.484375 1.496094 -8.484375 1.5 -8.484375 C 1.507812 -8.484375 1.515625 -8.488281 1.527344 -8.492188 C 1.574219 -8.507812 1.617188 -8.535156 1.65625 -8.574219 C 1.695312 -8.613281 1.722656 -8.65625 1.738281 -8.703125 C 1.742188 -8.714844 1.746094 -8.722656 1.746094 -8.730469 C 1.746094 -8.734375 1.746094 -8.734375 1.746094 -8.734375 C 1.746094 -8.730469 1.746094 -8.730469 1.746094 -8.726562 Z M 1.746094 -6.75 "/></g></g><g style="fill:#b21a22;fill-opacity:1;"><g transform="translate(20.407771, 71.426232)"><path style="stroke:none" d="M 10.34375 -11.949219 L 10.34375 -7.628906 C 10.34375 -6.136719 9.835938 -5.070312 8.824219 -4.4375 L 8.46875 -5.007812 L 9.121094 -5.164062 L 10.238281 -0.542969 L 9.585938 -0.386719 L 10.234375 -0.566406 C 10.328125 -0.21875 10.28125 0.0742188 10.09375 0.316406 C 9.910156 0.554688 9.640625 0.671875 9.285156 0.671875 L 7.179688 0.671875 C 6.917969 0.671875 6.695312 0.59375 6.507812 0.441406 C 6.328125 0.292969 6.210938 0.09375 6.15625 -0.160156 L 6.8125 -0.300781 L 6.160156 -0.140625 L 5.128906 -4.375 L 5.78125 -4.535156 L 5.78125 -3.863281 L 3.867188 -3.863281 L 3.867188 -4.535156 L 4.539062 -4.535156 L 4.539062 -0.34375 C 4.539062 -0.0429688 4.445312 0.199219 4.257812 0.390625 C 4.070312 0.578125 3.824219 0.671875 3.523438 0.671875 L 1.417969 0.671875 C 1.117188 0.671875 0.875 0.578125 0.6875 0.390625 C 0.496094 0.199219 0.402344 -0.0429688 0.402344 -0.34375 L 0.402344 -14.699219 C 0.402344 -15 0.496094 -15.246094 0.6875 -15.433594 C 0.875 -15.621094 1.117188 -15.714844 1.417969 -15.714844 L 6.578125 -15.714844 C 7.78125 -15.714844 8.707031 -15.390625 9.363281 -14.734375 C 10.015625 -14.082031 10.34375 -13.152344 10.34375 -11.949219 Z M 9 -11.949219 C 9 -12.78125 8.804688 -13.394531 8.410156 -13.785156 C 8.019531 -14.175781 7.410156 -14.371094 6.578125 -14.371094 L 1.417969 -14.371094 C 1.433594 -14.371094 1.453125 -14.378906 1.480469 -14.386719 C 1.539062 -14.40625 1.589844 -14.4375 1.636719 -14.484375 C 1.679688 -14.53125 1.714844 -14.582031 1.734375 -14.640625 C 1.742188 -14.664062 1.746094 -14.683594 1.746094 -14.699219 L 1.746094 -0.34375 C 1.746094 -0.359375 1.742188 -0.378906 1.734375 -0.40625 C 1.714844 -0.464844 1.679688 -0.515625 1.636719 -0.5625 C 1.589844 -0.605469 1.539062 -0.640625 1.480469 -0.660156 C 1.453125 -0.667969 1.433594 -0.671875 1.417969 -0.671875 L 3.523438 -0.671875 C 3.507812 -0.671875 3.488281 -0.667969 3.460938 -0.660156 C 3.40625 -0.640625 3.355469 -0.605469 3.308594 -0.5625 C 3.261719 -0.515625 3.230469 -0.464844 3.210938 -0.40625 C 3.203125 -0.378906 3.195312 -0.359375 3.195312 -0.34375 L 3.195312 -5.207031 L 6.308594 -5.207031 L 7.46875 -0.449219 L 7.46875 -0.441406 C 7.457031 -0.492188 7.421875 -0.542969 7.363281 -0.59375 C 7.300781 -0.644531 7.238281 -0.671875 7.179688 -0.671875 L 9.285156 -0.671875 C 9.269531 -0.667969 9.253906 -0.664062 9.238281 -0.660156 C 9.15625 -0.632812 9.089844 -0.582031 9.035156 -0.507812 C 8.976562 -0.433594 8.945312 -0.355469 8.9375 -0.265625 C 8.933594 -0.238281 8.933594 -0.21875 8.9375 -0.207031 L 8.933594 -0.21875 L 7.703125 -5.320312 L 8.113281 -5.578125 C 8.703125 -5.945312 9 -6.632812 9 -7.628906 Z M 3.867188 -7.980469 L 6.019531 -7.980469 C 6.089844 -7.980469 6.144531 -7.984375 6.179688 -8 C 6.1875 -8 6.195312 -8.003906 6.195312 -8.003906 C 6.195312 -8.003906 6.191406 -8 6.1875 -7.996094 C 6.183594 -7.992188 6.183594 -7.992188 6.179688 -7.988281 C 6.183594 -7.992188 6.183594 -7.996094 6.1875 -8.003906 C 6.199219 -8.042969 6.207031 -8.097656 6.207031 -8.167969 L 6.207031 -11.414062 C 6.207031 -11.484375 6.199219 -11.539062 6.1875 -11.574219 C 6.183594 -11.582031 6.183594 -11.589844 6.179688 -11.589844 C 6.183594 -11.589844 6.183594 -11.585938 6.1875 -11.582031 C 6.191406 -11.578125 6.195312 -11.578125 6.195312 -11.574219 C 6.195312 -11.578125 6.1875 -11.578125 6.179688 -11.582031 C 6.144531 -11.59375 6.089844 -11.601562 6.019531 -11.601562 L 3.867188 -11.601562 L 3.867188 -12.273438 L 4.539062 -12.273438 L 4.539062 -7.308594 L 3.867188 -7.308594 Z M 3.195312 -6.636719 L 3.195312 -12.945312 L 6.019531 -12.945312 C 6.488281 -12.945312 6.863281 -12.804688 7.136719 -12.53125 C 7.410156 -12.257812 7.550781 -11.882812 7.550781 -11.414062 L 7.550781 -8.167969 C 7.550781 -7.695312 7.410156 -7.320312 7.136719 -7.046875 C 6.863281 -6.773438 6.488281 -6.636719 6.019531 -6.636719 Z M 3.195312 -6.636719 "/></g></g><g style="fill:#b21a22;fill-opacity:1;"><g transform="translate(31.150477, 71.426232)"><path style="stroke:none" d="M 10.320312 -14.699219 L 10.320312 -12.550781 C 10.320312 -12.253906 10.230469 -12.007812 10.054688 -11.816406 C 9.863281 -11.617188 9.613281 -11.515625 9.304688 -11.515625 L 3.996094 -11.515625 L 3.996094 -12.1875 L 4.667969 -12.1875 L 4.667969 -8.875 L 3.996094 -8.875 L 3.996094 -9.546875 L 8.039062 -9.546875 C 8.347656 -9.546875 8.59375 -9.445312 8.785156 -9.246094 C 8.964844 -9.054688 9.054688 -8.808594 9.054688 -8.511719 L 9.054688 -6.382812 C 9.054688 -6.082031 8.964844 -5.839844 8.785156 -5.648438 C 8.59375 -5.445312 8.347656 -5.347656 8.039062 -5.347656 L 3.996094 -5.347656 L 3.996094 -6.019531 L 4.667969 -6.019531 L 4.667969 -2.835938 L 3.996094 -2.835938 L 3.996094 -3.507812 L 9.304688 -3.507812 C 9.605469 -3.507812 9.851562 -3.414062 10.039062 -3.226562 C 10.226562 -3.039062 10.320312 -2.792969 10.320312 -2.492188 L 10.320312 -0.34375 C 10.320312 -0.0429688 10.226562 0.199219 10.039062 0.390625 C 9.851562 0.578125 9.605469 0.671875 9.304688 0.671875 L 1.398438 0.671875 C 1.09375 0.671875 0.851562 0.570312 0.664062 0.375 C 0.492188 0.1875 0.402344 -0.0507812 0.402344 -0.34375 L 0.402344 -14.699219 C 0.402344 -14.992188 0.492188 -15.230469 0.664062 -15.417969 C 0.851562 -15.617188 1.09375 -15.714844 1.398438 -15.714844 L 9.304688 -15.714844 C 9.605469 -15.714844 9.851562 -15.621094 10.039062 -15.433594 C 10.226562 -15.246094 10.320312 -15 10.320312 -14.699219 Z M 8.976562 -14.699219 C 8.976562 -14.683594 8.984375 -14.664062 8.992188 -14.640625 C 9.011719 -14.582031 9.042969 -14.53125 9.089844 -14.484375 C 9.136719 -14.4375 9.1875 -14.40625 9.246094 -14.386719 C 9.269531 -14.378906 9.289062 -14.371094 9.304688 -14.371094 L 1.398438 -14.371094 C 1.484375 -14.371094 1.566406 -14.414062 1.644531 -14.5 C 1.6875 -14.546875 1.71875 -14.597656 1.734375 -14.652344 C 1.742188 -14.671875 1.746094 -14.691406 1.746094 -14.699219 L 1.746094 -0.34375 C 1.746094 -0.355469 1.742188 -0.371094 1.734375 -0.394531 C 1.71875 -0.449219 1.6875 -0.5 1.644531 -0.546875 C 1.566406 -0.628906 1.484375 -0.671875 1.398438 -0.671875 L 9.304688 -0.671875 C 9.289062 -0.671875 9.269531 -0.667969 9.246094 -0.660156 C 9.1875 -0.640625 9.136719 -0.605469 9.089844 -0.5625 C 9.042969 -0.515625 9.011719 -0.464844 8.992188 -0.40625 C 8.984375 -0.378906 8.976562 -0.359375 8.976562 -0.34375 L 8.976562 -2.492188 C 8.976562 -2.476562 8.984375 -2.457031 8.992188 -2.429688 C 9.011719 -2.375 9.042969 -2.320312 9.089844 -2.277344 C 9.136719 -2.230469 9.1875 -2.199219 9.246094 -2.179688 C 9.269531 -2.167969 9.289062 -2.164062 9.304688 -2.164062 L 3.324219 -2.164062 L 3.324219 -6.691406 L 8.039062 -6.691406 C 8.019531 -6.691406 7.992188 -6.683594 7.964844 -6.671875 C 7.90625 -6.652344 7.851562 -6.617188 7.808594 -6.570312 C 7.765625 -6.523438 7.734375 -6.476562 7.71875 -6.425781 C 7.714844 -6.40625 7.710938 -6.390625 7.710938 -6.382812 L 7.710938 -8.511719 C 7.710938 -8.503906 7.714844 -8.488281 7.71875 -8.46875 C 7.734375 -8.417969 7.765625 -8.367188 7.808594 -8.324219 C 7.851562 -8.277344 7.90625 -8.242188 7.964844 -8.21875 C 7.992188 -8.210938 8.019531 -8.203125 8.039062 -8.203125 L 3.324219 -8.203125 L 3.324219 -12.859375 L 9.304688 -12.859375 C 9.285156 -12.859375 9.261719 -12.851562 9.230469 -12.84375 C 9.171875 -12.820312 9.121094 -12.785156 9.074219 -12.738281 C 9.03125 -12.695312 9.003906 -12.644531 8.988281 -12.59375 C 8.980469 -12.574219 8.976562 -12.558594 8.976562 -12.550781 Z M 8.976562 -14.699219 "/></g></g><g style="fill:#b21a22;fill-opacity:1;"><g transform="translate(41.871694, 71.426232)"><path style="stroke:none" d="M 0.402344 -3.09375 L 0.402344 -11.949219 C 0.402344 -13.152344 0.734375 -14.082031 1.398438 -14.738281 C 2.058594 -15.390625 2.984375 -15.714844 4.167969 -15.714844 L 6.578125 -15.714844 C 7.761719 -15.714844 8.6875 -15.390625 9.347656 -14.738281 C 10.011719 -14.082031 10.34375 -13.152344 10.34375 -11.949219 L 10.34375 -10.359375 C 10.34375 -10.058594 10.25 -9.816406 10.058594 -9.625 C 9.871094 -9.4375 9.628906 -9.34375 9.328125 -9.34375 L 7.308594 -9.34375 C 7.007812 -9.34375 6.761719 -9.4375 6.574219 -9.625 C 6.386719 -9.816406 6.292969 -10.058594 6.292969 -10.359375 L 6.292969 -11.414062 C 6.292969 -11.484375 6.285156 -11.539062 6.273438 -11.574219 C 6.269531 -11.582031 6.269531 -11.589844 6.265625 -11.589844 C 6.269531 -11.589844 6.269531 -11.585938 6.273438 -11.582031 C 6.277344 -11.578125 6.28125 -11.578125 6.28125 -11.574219 C 6.28125 -11.578125 6.273438 -11.578125 6.265625 -11.582031 C 6.230469 -11.59375 6.175781 -11.601562 6.105469 -11.601562 L 4.726562 -11.601562 C 4.65625 -11.601562 4.601562 -11.59375 4.566406 -11.582031 C 4.558594 -11.578125 4.550781 -11.578125 4.550781 -11.574219 C 4.550781 -11.578125 4.554688 -11.578125 4.558594 -11.582031 C 4.5625 -11.585938 4.5625 -11.589844 4.566406 -11.589844 C 4.5625 -11.589844 4.5625 -11.582031 4.558594 -11.574219 C 4.546875 -11.539062 4.539062 -11.484375 4.539062 -11.414062 L 4.539062 -3.632812 C 4.539062 -3.5625 4.546875 -3.507812 4.558594 -3.46875 C 4.5625 -3.460938 4.5625 -3.457031 4.566406 -3.453125 C 4.5625 -3.457031 4.5625 -3.460938 4.558594 -3.460938 C 4.554688 -3.464844 4.550781 -3.46875 4.550781 -3.46875 C 4.550781 -3.46875 4.558594 -3.464844 4.566406 -3.464844 C 4.601562 -3.449219 4.65625 -3.445312 4.726562 -3.445312 L 6.105469 -3.445312 C 6.175781 -3.445312 6.230469 -3.449219 6.265625 -3.464844 C 6.273438 -3.464844 6.28125 -3.46875 6.28125 -3.46875 C 6.28125 -3.46875 6.277344 -3.464844 6.273438 -3.460938 C 6.269531 -3.460938 6.269531 -3.457031 6.265625 -3.453125 C 6.269531 -3.457031 6.269531 -3.460938 6.273438 -3.46875 C 6.285156 -3.507812 6.292969 -3.5625 6.292969 -3.632812 L 6.292969 -5.503906 L 6.964844 -5.503906 L 6.964844 -4.832031 L 5.847656 -4.832031 C 5.546875 -4.832031 5.300781 -4.925781 5.113281 -5.113281 C 4.925781 -5.300781 4.832031 -5.546875 4.832031 -5.847656 L 4.832031 -7.996094 C 4.832031 -8.296875 4.925781 -8.539062 5.113281 -8.726562 C 5.300781 -8.917969 5.546875 -9.011719 5.847656 -9.011719 L 9.328125 -9.011719 C 9.628906 -9.011719 9.871094 -8.917969 10.058594 -8.726562 C 10.25 -8.539062 10.34375 -8.296875 10.34375 -7.996094 L 10.34375 -3.09375 C 10.34375 -1.90625 10.011719 -0.980469 9.351562 -0.320312 C 8.691406 0.339844 7.765625 0.671875 6.578125 0.671875 L 4.167969 0.671875 C 2.980469 0.671875 2.054688 0.339844 1.394531 -0.320312 C 0.734375 -0.980469 0.402344 -1.90625 0.402344 -3.09375 Z M 1.746094 -3.09375 C 1.746094 -2.277344 1.945312 -1.667969 2.34375 -1.269531 C 2.742188 -0.871094 3.351562 -0.671875 4.167969 -0.671875 L 6.578125 -0.671875 C 7.394531 -0.671875 8.003906 -0.871094 8.402344 -1.269531 C 8.800781 -1.667969 9 -2.277344 9 -3.09375 L 9 -7.996094 C 9 -7.980469 9.003906 -7.960938 9.011719 -7.933594 C 9.03125 -7.875 9.066406 -7.824219 9.109375 -7.777344 C 9.15625 -7.730469 9.207031 -7.699219 9.265625 -7.679688 C 9.292969 -7.671875 9.3125 -7.667969 9.328125 -7.667969 L 5.847656 -7.667969 C 5.859375 -7.667969 5.882812 -7.671875 5.90625 -7.679688 C 5.964844 -7.699219 6.015625 -7.730469 6.0625 -7.777344 C 6.109375 -7.824219 6.140625 -7.875 6.160156 -7.933594 C 6.167969 -7.960938 6.171875 -7.980469 6.171875 -7.996094 L 6.171875 -5.847656 C 6.171875 -5.859375 6.167969 -5.882812 6.160156 -5.90625 C 6.140625 -5.964844 6.109375 -6.015625 6.0625 -6.0625 C 6.015625 -6.109375 5.964844 -6.140625 5.90625 -6.160156 C 5.882812 -6.167969 5.859375 -6.171875 5.847656 -6.171875 L 7.636719 -6.171875 L 7.636719 -3.632812 C 7.636719 -3.160156 7.496094 -2.785156 7.222656 -2.511719 C 6.949219 -2.238281 6.574219 -2.101562 6.105469 -2.101562 L 4.726562 -2.101562 C 4.257812 -2.101562 3.882812 -2.238281 3.609375 -2.511719 C 3.335938 -2.785156 3.195312 -3.160156 3.195312 -3.632812 L 3.195312 -11.414062 C 3.195312 -11.882812 3.335938 -12.257812 3.609375 -12.53125 C 3.882812 -12.804688 4.257812 -12.945312 4.726562 -12.945312 L 6.105469 -12.945312 C 6.574219 -12.945312 6.949219 -12.804688 7.222656 -12.53125 C 7.496094 -12.257812 7.636719 -11.882812 7.636719 -11.414062 L 7.636719 -10.359375 C 7.636719 -10.375 7.628906 -10.394531 7.621094 -10.421875 C 7.601562 -10.476562 7.570312 -10.53125 7.523438 -10.578125 C 7.476562 -10.621094 7.425781 -10.65625 7.371094 -10.675781 C 7.34375 -10.683594 7.324219 -10.6875 7.308594 -10.6875 L 9.328125 -10.6875 C 9.3125 -10.6875 9.292969 -10.683594 9.265625 -10.675781 C 9.207031 -10.65625 9.15625 -10.621094 9.109375 -10.578125 C 9.066406 -10.53125 9.03125 -10.476562 9.011719 -10.421875 C 9.003906 -10.394531 9 -10.375 9 -10.359375 L 9 -11.949219 C 9 -12.78125 8.800781 -13.390625 8.40625 -13.78125 C 8.003906 -14.175781 7.394531 -14.371094 6.578125 -14.371094 L 4.167969 -14.371094 C 3.351562 -14.371094 2.742188 -14.175781 2.339844 -13.78125 C 1.945312 -13.390625 1.746094 -12.78125 1.746094 -11.949219 Z M 1.746094 -3.09375 "/></g></g><g style="fill:#b21a22;fill-opacity:1;"><g transform="translate(52.6144, 71.426232)"><path style="stroke:none" d="M 10.320312 -14.699219 L 10.320312 -12.550781 C 10.320312 -12.253906 10.230469 -12.007812 10.054688 -11.816406 C 9.863281 -11.617188 9.613281 -11.515625 9.304688 -11.515625 L 3.996094 -11.515625 L 3.996094 -12.1875 L 4.667969 -12.1875 L 4.667969 -8.875 L 3.996094 -8.875 L 3.996094 -9.546875 L 8.039062 -9.546875 C 8.347656 -9.546875 8.59375 -9.445312 8.785156 -9.246094 C 8.964844 -9.054688 9.054688 -8.808594 9.054688 -8.511719 L 9.054688 -6.382812 C 9.054688 -6.082031 8.964844 -5.839844 8.785156 -5.648438 C 8.59375 -5.445312 8.347656 -5.347656 8.039062 -5.347656 L 3.996094 -5.347656 L 3.996094 -6.019531 L 4.667969 -6.019531 L 4.667969 -2.835938 L 3.996094 -2.835938 L 3.996094 -3.507812 L 9.304688 -3.507812 C 9.605469 -3.507812 9.851562 -3.414062 10.039062 -3.226562 C 10.226562 -3.039062 10.320312 -2.792969 10.320312 -2.492188 L 10.320312 -0.34375 C 10.320312 -0.0429688 10.226562 0.199219 10.039062 0.390625 C 9.851562 0.578125 9.605469 0.671875 9.304688 0.671875 L 1.398438 0.671875 C 1.09375 0.671875 0.851562 0.570312 0.664062 0.375 C 0.492188 0.1875 0.402344 -0.0507812 0.402344 -0.34375 L 0.402344 -14.699219 C 0.402344 -14.992188 0.492188 -15.230469 0.664062 -15.417969 C 0.851562 -15.617188 1.09375 -15.714844 1.398438 -15.714844 L 9.304688 -15.714844 C 9.605469 -15.714844 9.851562 -15.621094 10.039062 -15.433594 C 10.226562 -15.246094 10.320312 -15 10.320312 -14.699219 Z M 8.976562 -14.699219 C 8.976562 -14.683594 8.984375 -14.664062 8.992188 -14.640625 C 9.011719 -14.582031 9.042969 -14.53125 9.089844 -14.484375 C 9.136719 -14.4375 9.1875 -14.40625 9.246094 -14.386719 C 9.269531 -14.378906 9.289062 -14.371094 9.304688 -14.371094 L 1.398438 -14.371094 C 1.484375 -14.371094 1.566406 -14.414062 1.644531 -14.5 C 1.6875 -14.546875 1.71875 -14.597656 1.734375 -14.652344 C 1.742188 -14.671875 1.746094 -14.691406 1.746094 -14.699219 L 1.746094 -0.34375 C 1.746094 -0.355469 1.742188 -0.371094 1.734375 -0.394531 C 1.71875 -0.449219 1.6875 -0.5 1.644531 -0.546875 C 1.566406 -0.628906 1.484375 -0.671875 1.398438 -0.671875 L 9.304688 -0.671875 C 9.289062 -0.671875 9.269531 -0.667969 9.246094 -0.660156 C 9.1875 -0.640625 9.136719 -0.605469 9.089844 -0.5625 C 9.042969 -0.515625 9.011719 -0.464844 8.992188 -0.40625 C 8.984375 -0.378906 8.976562 -0.359375 8.976562 -0.34375 L 8.976562 -2.492188 C 8.976562 -2.476562 8.984375 -2.457031 8.992188 -2.429688 C 9.011719 -2.375 9.042969 -2.320312 9.089844 -2.277344 C 9.136719 -2.230469 9.1875 -2.199219 9.246094 -2.179688 C 9.269531 -2.167969 9.289062 -2.164062 9.304688 -2.164062 L 3.324219 -2.164062 L 3.324219 -6.691406 L 8.039062 -6.691406 C 8.019531 -6.691406 7.992188 -6.683594 7.964844 -6.671875 C 7.90625 -6.652344 7.851562 -6.617188 7.808594 -6.570312 C 7.765625 -6.523438 7.734375 -6.476562 7.71875 -6.425781 C 7.714844 -6.40625 7.710938 -6.390625 7.710938 -6.382812 L 7.710938 -8.511719 C 7.710938 -8.503906 7.714844 -8.488281 7.71875 -8.46875 C 7.734375 -8.417969 7.765625 -8.367188 7.808594 -8.324219 C 7.851562 -8.277344 7.90625 -8.242188 7.964844 -8.21875 C 7.992188 -8.210938 8.019531 -8.203125 8.039062 -8.203125 L 3.324219 -8.203125 L 3.324219 -12.859375 L 9.304688 -12.859375 C 9.285156 -12.859375 9.261719 -12.851562 9.230469 -12.84375 C 9.171875 -12.820312 9.121094 -12.785156 9.074219 -12.738281 C 9.03125 -12.695312 9.003906 -12.644531 8.988281 -12.59375 C 8.980469 -12.574219 8.976562 -12.558594 8.976562 -12.550781 Z M 8.976562 -14.699219 "/></g></g><g style="fill:#b21a22;fill-opacity:1;"><g transform="translate(63.335617, 71.426232)"><path style="stroke:none" d="M 8.316406 -7.996094 L 11.925781 -0.816406 C 12.105469 -0.460938 12.105469 -0.125 11.929688 0.183594 C 11.828125 0.363281 11.679688 0.492188 11.488281 0.578125 C 11.34375 0.640625 11.183594 0.671875 11.003906 0.671875 L 8.789062 0.671875 C 8.550781 0.671875 8.335938 0.613281 8.144531 0.5 C 7.953125 0.382812 7.804688 0.214844 7.695312 0 L 5.414062 -4.667969 L 6.019531 -4.964844 L 6.621094 -4.667969 L 4.34375 -0.0078125 C 4.234375 0.214844 4.082031 0.382812 3.890625 0.5 C 3.699219 0.613281 3.484375 0.671875 3.246094 0.671875 L 1.03125 0.671875 C 0.851562 0.671875 0.691406 0.640625 0.546875 0.578125 C 0.355469 0.492188 0.207031 0.363281 0.105469 0.183594 C -0.0703125 -0.125 -0.0703125 -0.457031 0.109375 -0.816406 L 3.742188 -7.996094 L 4.339844 -7.695312 L 3.742188 -7.394531 L 0.324219 -14.226562 C 0.144531 -14.585938 0.144531 -14.917969 0.320312 -15.226562 C 0.421875 -15.40625 0.570312 -15.539062 0.761719 -15.621094 C 0.90625 -15.683594 1.066406 -15.714844 1.246094 -15.714844 L 3.460938 -15.714844 C 3.699219 -15.714844 3.914062 -15.660156 4.105469 -15.542969 C 4.296875 -15.425781 4.449219 -15.257812 4.554688 -15.042969 L 6.625 -10.691406 L 6.019531 -10.402344 L 5.410156 -10.691406 L 7.472656 -15.03125 C 7.585938 -15.253906 7.738281 -15.425781 7.929688 -15.542969 C 8.121094 -15.660156 8.335938 -15.714844 8.574219 -15.714844 L 10.789062 -15.714844 C 10.96875 -15.714844 11.128906 -15.683594 11.273438 -15.621094 C 11.464844 -15.539062 11.613281 -15.40625 11.714844 -15.226562 C 11.890625 -14.917969 11.890625 -14.585938 11.710938 -14.226562 L 8.316406 -7.394531 L 7.714844 -7.695312 Z M 6.964844 -7.691406 L 10.511719 -14.828125 C 10.503906 -14.820312 10.5 -14.796875 10.5 -14.765625 C 10.496094 -14.695312 10.511719 -14.625 10.550781 -14.5625 C 10.59375 -14.480469 10.65625 -14.425781 10.734375 -14.390625 C 10.753906 -14.382812 10.773438 -14.375 10.792969 -14.375 L 10.789062 -14.371094 L 8.574219 -14.371094 C 8.585938 -14.371094 8.605469 -14.378906 8.628906 -14.394531 C 8.65625 -14.414062 8.675781 -14.433594 8.6875 -14.457031 L 6.019531 -8.835938 L 3.355469 -14.441406 C 3.359375 -14.429688 3.378906 -14.414062 3.40625 -14.394531 C 3.429688 -14.378906 3.449219 -14.371094 3.460938 -14.371094 L 1.246094 -14.371094 L 1.242188 -14.375 C 1.261719 -14.375 1.28125 -14.382812 1.300781 -14.390625 C 1.378906 -14.425781 1.441406 -14.480469 1.484375 -14.5625 C 1.523438 -14.625 1.539062 -14.695312 1.535156 -14.765625 C 1.535156 -14.796875 1.53125 -14.820312 1.523438 -14.828125 L 5.09375 -7.691406 L 1.308594 -0.214844 C 1.316406 -0.226562 1.320312 -0.246094 1.320312 -0.277344 C 1.324219 -0.347656 1.308594 -0.417969 1.269531 -0.484375 C 1.226562 -0.5625 1.164062 -0.617188 1.085938 -0.652344 C 1.066406 -0.660156 1.046875 -0.667969 1.027344 -0.671875 L 3.246094 -0.671875 C 3.234375 -0.671875 3.214844 -0.664062 3.191406 -0.648438 C 3.164062 -0.632812 3.144531 -0.613281 3.136719 -0.59375 L 6.019531 -6.496094 L 8.898438 -0.601562 C 8.890625 -0.617188 8.871094 -0.632812 8.84375 -0.648438 C 8.820312 -0.664062 8.800781 -0.671875 8.789062 -0.671875 L 11.007812 -0.671875 C 10.988281 -0.667969 10.96875 -0.660156 10.949219 -0.652344 C 10.871094 -0.617188 10.808594 -0.5625 10.765625 -0.484375 C 10.726562 -0.417969 10.710938 -0.347656 10.714844 -0.277344 C 10.714844 -0.246094 10.71875 -0.226562 10.726562 -0.214844 L 7.117188 -7.390625 Z M 6.964844 -7.691406 "/></g></g><g style="fill:#060705;fill-opacity:1;"><g transform="translate(11.46971, 41.462447)"><path style="stroke:none" d="M 1.078125 -3.09375 L 1.078125 -11.953125 C 1.078125 -12.972656 1.34375 -13.742188 1.875 -14.265625 C 2.40625 -14.785156 3.171875 -15.046875 4.171875 -15.046875 L 6.578125 -15.046875 C 7.578125 -15.046875 8.34375 -14.785156 8.875 -14.265625 C 9.40625 -13.742188 9.671875 -12.972656 9.671875 -11.953125 L 9.671875 -10.359375 C 9.671875 -10.128906 9.554688 -10.015625 9.328125 -10.015625 L 7.3125 -10.015625 C 7.082031 -10.015625 6.96875 -10.128906 6.96875 -10.359375 L 6.96875 -11.421875 C 6.96875 -11.992188 6.679688 -12.28125 6.109375 -12.28125 L 4.734375 -12.28125 C 4.160156 -12.28125 3.875 -11.992188 3.875 -11.421875 L 3.875 -3.640625 C 3.875 -3.066406 4.160156 -2.78125 4.734375 -2.78125 L 6.109375 -2.78125 C 6.679688 -2.78125 6.96875 -3.066406 6.96875 -3.640625 L 6.96875 -5.5 L 5.84375 -5.5 C 5.613281 -5.5 5.5 -5.613281 5.5 -5.84375 L 5.5 -8 C 5.5 -8.226562 5.613281 -8.34375 5.84375 -8.34375 L 9.328125 -8.34375 C 9.554688 -8.34375 9.671875 -8.226562 9.671875 -8 L 9.671875 -3.09375 C 9.671875 -2.09375 9.40625 -1.328125 8.875 -0.796875 C 8.34375 -0.265625 7.578125 0 6.578125 0 L 4.171875 0 C 3.171875 0 2.40625 -0.265625 1.875 -0.796875 C 1.34375 -1.328125 1.078125 -2.09375 1.078125 -3.09375 Z M 1.078125 -3.09375 "/></g></g><g style="fill:#060705;fill-opacity:1;"><g transform="translate(22.212416, 41.462447)"><path style="stroke:none" d="M 1.421875 0 L 3.65625 0 C 3.882812 0 4 -0.113281 4 -0.34375 L 4 -14.703125 C 4 -14.929688 3.882812 -15.046875 3.65625 -15.046875 L 1.421875 -15.046875 C 1.191406 -15.046875 1.078125 -14.929688 1.078125 -14.703125 L 1.078125 -0.34375 C 1.078125 -0.113281 1.191406 0 1.421875 0 Z M 1.421875 0 "/></g></g><g style="fill:#060705;fill-opacity:1;"><g transform="translate(27.28297, 41.462447)"><path style="stroke:none" d="M 8.90625 -15.046875 L 0.984375 -15.046875 C 0.753906 -15.046875 0.640625 -14.929688 0.640625 -14.703125 L 0.640625 -12.5625 C 0.640625 -12.332031 0.753906 -12.21875 0.984375 -12.21875 L 3.484375 -12.21875 L 3.484375 -0.34375 C 3.484375 -0.113281 3.597656 0 3.828125 0 L 6.0625 0 C 6.289062 0 6.40625 -0.113281 6.40625 -0.34375 L 6.40625 -12.21875 L 8.90625 -12.21875 C 9.132812 -12.21875 9.25 -12.332031 9.25 -12.5625 L 9.25 -14.703125 C 9.25 -14.929688 9.132812 -15.046875 8.90625 -15.046875 Z M 8.90625 -15.046875 "/></g></g><g style="fill:#060705;fill-opacity:1;"><g transform="translate(37.16626, 41.462447)"><path style="stroke:none" d="M 10.0625 -15.046875 L 12.90625 -15.046875 C 13.1875 -15.046875 13.328125 -14.90625 13.328125 -14.625 L 13.328125 -0.4375 C 13.328125 -0.144531 13.1875 0 12.90625 0 L 10.90625 0 C 10.613281 0 10.46875 -0.144531 10.46875 -0.4375 L 10.46875 -8.875 L 10.3125 -8.875 L 8.296875 -0.359375 C 8.222656 -0.117188 8.066406 0 7.828125 0 L 6.5625 0 C 6.3125 0 6.148438 -0.117188 6.078125 -0.359375 L 4.0625 -8.875 L 3.90625 -8.875 L 3.90625 -0.4375 C 3.90625 -0.144531 3.765625 0 3.484375 0 L 1.5 0 C 1.21875 0 1.078125 -0.144531 1.078125 -0.4375 L 1.078125 -14.625 C 1.078125 -14.90625 1.21875 -15.046875 1.5 -15.046875 L 4.34375 -15.046875 C 4.582031 -15.046875 4.738281 -14.925781 4.8125 -14.6875 L 7.203125 -5.09375 L 9.59375 -14.6875 C 9.664062 -14.925781 9.820312 -15.046875 10.0625 -15.046875 Z M 10.0625 -15.046875 "/></g></g><g style="fill:#060705;fill-opacity:1;"><g transform="translate(51.561484, 41.462447)"><path style="stroke:none" d="M 1.078125 -3.09375 L 1.078125 -11.953125 C 1.078125 -12.972656 1.34375 -13.742188 1.875 -14.265625 C 2.40625 -14.785156 3.171875 -15.046875 4.171875 -15.046875 L 6.578125 -15.046875 C 7.597656 -15.046875 8.367188 -14.785156 8.890625 -14.265625 C 9.410156 -13.742188 9.671875 -12.972656 9.671875 -11.953125 L 9.671875 -3.09375 C 9.671875 -2.09375 9.410156 -1.328125 8.890625 -0.796875 C 8.367188 -0.265625 7.597656 0 6.578125 0 L 4.171875 0 C 3.171875 0 2.40625 -0.265625 1.875 -0.796875 C 1.34375 -1.328125 1.078125 -2.09375 1.078125 -3.09375 Z M 4.734375 -2.78125 L 6.109375 -2.78125 C 6.679688 -2.78125 6.96875 -3.066406 6.96875 -3.640625 L 6.96875 -11.421875 C 6.96875 -11.992188 6.679688 -12.28125 6.109375 -12.28125 L 4.734375 -12.28125 C 4.160156 -12.28125 3.875 -11.992188 3.875 -11.421875 L 3.875 -3.640625 C 3.875 -3.066406 4.160156 -2.78125 4.734375 -2.78125 Z M 4.734375 -2.78125 "/></g></g><g style="fill:#060705;fill-opacity:1;"><g transform="translate(62.30419, 41.462447)"><path style="stroke:none" d="M 6.75 -3.703125 L 6.75 -14.703125 C 6.75 -14.929688 6.863281 -15.046875 7.09375 -15.046875 L 9.328125 -15.046875 C 9.554688 -15.046875 9.671875 -14.929688 9.671875 -14.703125 L 9.671875 -3.09375 C 9.671875 -2.09375 9.40625 -1.328125 8.875 -0.796875 C 8.34375 -0.265625 7.578125 0 6.578125 0 L 4.171875 0 C 3.171875 0 2.40625 -0.265625 1.875 -0.796875 C 1.34375 -1.328125 1.078125 -2.09375 1.078125 -3.09375 L 1.078125 -5.328125 C 1.078125 -5.554688 1.191406 -5.671875 1.421875 -5.671875 L 3.5625 -5.671875 C 3.789062 -5.671875 3.90625 -5.554688 3.90625 -5.328125 L 3.90625 -3.703125 C 3.90625 -3.128906 4.191406 -2.84375 4.765625 -2.84375 L 5.890625 -2.84375 C 6.460938 -2.84375 6.75 -3.128906 6.75 -3.703125 Z M 6.75 -3.703125 "/></g></g><g style="fill:#060705;fill-opacity:1;"><g transform="translate(73.046896, 41.462447)"><path style="stroke:none" d="M 1.421875 0 L 3.65625 0 C 3.882812 0 4 -0.113281 4 -0.34375 L 4 -14.703125 C 4 -14.929688 3.882812 -15.046875 3.65625 -15.046875 L 1.421875 -15.046875 C 1.191406 -15.046875 1.078125 -14.929688 1.078125 -14.703125 L 1.078125 -0.34375 C 1.078125 -0.113281 1.191406 0 1.421875 0 Z M 1.421875 0 "/></g></g><g style="fill:#060705;fill-opacity:1;"><g transform="translate(78.11745, 41.462447)"><path style="stroke:none" d="M 1.078125 -6.75 L 1.078125 -8.734375 C 1.078125 -9.015625 1.21875 -9.15625 1.5 -9.15625 L 4.90625 -9.15625 C 5.1875 -9.15625 5.328125 -9.015625 5.328125 -8.734375 L 5.328125 -6.75 C 5.328125 -6.46875 5.1875 -6.328125 4.90625 -6.328125 L 1.5 -6.328125 C 1.21875 -6.328125 1.078125 -6.46875 1.078125 -6.75 Z M 1.078125 -6.75 "/></g></g><g style="fill:#060705;fill-opacity:1;"><g transform="translate(20.407771, 71.426232)"><path style="stroke:none" d="M 9.671875 -11.953125 L 9.671875 -7.625 C 9.671875 -6.382812 9.269531 -5.515625 8.46875 -5.015625 L 9.59375 -0.390625 C 9.664062 -0.128906 9.5625 0 9.28125 0 L 7.1875 0 C 6.976562 0 6.851562 -0.0976562 6.8125 -0.296875 L 5.78125 -4.53125 L 3.875 -4.53125 L 3.875 -0.34375 C 3.875 -0.113281 3.757812 0 3.53125 0 L 1.421875 0 C 1.191406 0 1.078125 -0.113281 1.078125 -0.34375 L 1.078125 -14.703125 C 1.078125 -14.929688 1.191406 -15.046875 1.421875 -15.046875 L 6.578125 -15.046875 C 7.597656 -15.046875 8.367188 -14.785156 8.890625 -14.265625 C 9.410156 -13.742188 9.671875 -12.972656 9.671875 -11.953125 Z M 3.875 -7.3125 L 6.015625 -7.3125 C 6.585938 -7.3125 6.875 -7.597656 6.875 -8.171875 L 6.875 -11.421875 C 6.875 -11.992188 6.585938 -12.28125 6.015625 -12.28125 L 3.875 -12.28125 Z M 3.875 -7.3125 "/></g></g><g style="fill:#060705;fill-opacity:1;"><g transform="translate(31.150477, 71.426232)"><path style="stroke:none" d="M 9.65625 -14.703125 L 9.65625 -12.5625 C 9.65625 -12.3125 9.539062 -12.1875 9.3125 -12.1875 L 4 -12.1875 L 4 -8.875 L 8.046875 -8.875 C 8.273438 -8.875 8.390625 -8.753906 8.390625 -8.515625 L 8.390625 -6.390625 C 8.390625 -6.140625 8.273438 -6.015625 8.046875 -6.015625 L 4 -6.015625 L 4 -2.84375 L 9.3125 -2.84375 C 9.539062 -2.84375 9.65625 -2.726562 9.65625 -2.5 L 9.65625 -0.34375 C 9.65625 -0.113281 9.539062 0 9.3125 0 L 1.390625 0 C 1.179688 0 1.078125 -0.113281 1.078125 -0.34375 L 1.078125 -14.703125 C 1.078125 -14.929688 1.179688 -15.046875 1.390625 -15.046875 L 9.3125 -15.046875 C 9.539062 -15.046875 9.65625 -14.929688 9.65625 -14.703125 Z M 9.65625 -14.703125 "/></g></g><g style="fill:#060705;fill-opacity:1;"><g transform="translate(41.871694, 71.426232)"><path style="stroke:none" d="M 1.078125 -3.09375 L 1.078125 -11.953125 C 1.078125 -12.972656 1.34375 -13.742188 1.875 -14.265625 C 2.40625 -14.785156 3.171875 -15.046875 4.171875 -15.046875 L 6.578125 -15.046875 C 7.578125 -15.046875 8.34375 -14.785156 8.875 -14.265625 C 9.40625 -13.742188 9.671875 -12.972656 9.671875 -11.953125 L 9.671875 -10.359375 C 9.671875 -10.128906 9.554688 -10.015625 9.328125 -10.015625 L 7.3125 -10.015625 C 7.082031 -10.015625 6.96875 -10.128906 6.96875 -10.359375 L 6.96875 -11.421875 C 6.96875 -11.992188 6.679688 -12.28125 6.109375 -12.28125 L 4.734375 -12.28125 C 4.160156 -12.28125 3.875 -11.992188 3.875 -11.421875 L 3.875 -3.640625 C 3.875 -3.066406 4.160156 -2.78125 4.734375 -2.78125 L 6.109375 -2.78125 C 6.679688 -2.78125 6.96875 -3.066406 6.96875 -3.640625 L 6.96875 -5.5 L 5.84375 -5.5 C 5.613281 -5.5 5.5 -5.613281 5.5 -5.84375 L 5.5 -8 C 5.5 -8.226562 5.613281 -8.34375 5.84375 -8.34375 L 9.328125 -8.34375 C 9.554688 -8.34375 9.671875 -8.226562 9.671875 -8 L 9.671875 -3.09375 C 9.671875 -2.09375 9.40625 -1.328125 8.875 -0.796875 C 8.34375 -0.265625 7.578125 0 6.578125 0 L 4.171875 0 C 3.171875 0 2.40625 -0.265625 1.875 -0.796875 C 1.34375 -1.328125 1.078125 -2.09375 1.078125 -3.09375 Z M 1.078125 -3.09375 "/></g></g><g style="fill:#060705;fill-opacity:1;"><g transform="translate(52.6144, 71.426232)"><path style="stroke:none" d="M 9.65625 -14.703125 L 9.65625 -12.5625 C 9.65625 -12.3125 9.539062 -12.1875 9.3125 -12.1875 L 4 -12.1875 L 4 -8.875 L 8.046875 -8.875 C 8.273438 -8.875 8.390625 -8.753906 8.390625 -8.515625 L 8.390625 -6.390625 C 8.390625 -6.140625 8.273438 -6.015625 8.046875 -6.015625 L 4 -6.015625 L 4 -2.84375 L 9.3125 -2.84375 C 9.539062 -2.84375 9.65625 -2.726562 9.65625 -2.5 L 9.65625 -0.34375 C 9.65625 -0.113281 9.539062 0 9.3125 0 L 1.390625 0 C 1.179688 0 1.078125 -0.113281 1.078125 -0.34375 L 1.078125 -14.703125 C 1.078125 -14.929688 1.179688 -15.046875 1.390625 -15.046875 L 9.3125 -15.046875 C 9.539062 -15.046875 9.65625 -14.929688 9.65625 -14.703125 Z M 9.65625 -14.703125 "/></g></g><g style="fill:#060705;fill-opacity:1;"><g transform="translate(63.335617, 71.426232)"><path style="stroke:none" d="M 7.71875 -7.703125 L 11.328125 -0.515625 C 11.398438 -0.367188 11.40625 -0.242188 11.34375 -0.140625 C 11.289062 -0.046875 11.179688 0 11.015625 0 L 8.796875 0 C 8.566406 0 8.398438 -0.0976562 8.296875 -0.296875 L 6.015625 -4.96875 L 3.734375 -0.296875 C 3.640625 -0.0976562 3.476562 0 3.25 0 L 1.03125 0 C 0.863281 0 0.75 -0.046875 0.6875 -0.140625 C 0.632812 -0.242188 0.640625 -0.367188 0.703125 -0.515625 L 4.34375 -7.703125 L 0.921875 -14.53125 C 0.847656 -14.675781 0.835938 -14.796875 0.890625 -14.890625 C 0.953125 -14.992188 1.070312 -15.046875 1.25 -15.046875 L 3.46875 -15.046875 C 3.695312 -15.046875 3.859375 -14.945312 3.953125 -14.75 L 6.015625 -10.40625 L 8.078125 -14.75 C 8.179688 -14.945312 8.347656 -15.046875 8.578125 -15.046875 L 10.796875 -15.046875 C 10.960938 -15.046875 11.070312 -14.992188 11.125 -14.890625 C 11.1875 -14.796875 11.179688 -14.675781 11.109375 -14.53125 Z M 7.71875 -7.703125 "/></g></g></g></svg>