<svg xmlns="http://www.w3.org/2000/svg" xmlns:xlink="http://www.w3.org/1999/xlink" width="128" zoomAndPan="magnify" viewBox="0 0 96 95.999999" height="128" preserveAspectRatio="xMidYMid meet" version="1.2"><defs><clipPath id="4c2a5ad9e2"><path d="M 6 0 L 90 0 L 90 96 L 6 96 Z M 6 0 "/></clipPath><clipPath id="82c4ba6a74"><path d="M -14.304688 36.578125 L 68.691406 -11.898438 L 110.335938 59.402344 L 27.339844 107.878906 Z M -14.304688 36.578125 "/></clipPath><clipPath id="26eaa7f6cc"><path d="M 89.484375 23.769531 L 89.5625 71.535156 L 48.082031 95.765625 L 6.515625 72.226562 L 6.4375 24.464844 L 47.921875 0.234375 Z M 89.484375 23.769531 "/></clipPath><clipPath id="8fbfcae5bd"><path d="M 14.140625 9.121094 L 81.851562 9.121094 L 81.851562 86.839844 L 14.140625 86.839844 Z M 14.140625 9.121094 "/></clipPath></defs><g id="31ee628a8c"><g clip-rule="nonzero" clip-path="url(#4c2a5ad9e2)"><g clip-rule="nonzero" clip-path="url(#82c4ba6a74)"><g clip-rule="nonzero" clip-path="url(#26eaa7f6cc)"><path style=" stroke:none;fill-rule:nonzero;fill:#65b30e;fill-opacity:1;" d="M -14.304688 36.578125 L 68.691406 -11.898438 L 110.335938 59.402344 L 27.339844 107.878906 Z M -14.304688 36.578125 "/></g></g></g><path style=" stroke:none;fill-rule:nonzero;fill:#87ff00;fill-opacity:1;" d="M 34.453125 34.738281 L 34.410156 34.695312 L 24.839844 44.265625 L 48.074219 67.457031 L 57.644531 57.933594 L 71.308594 44.265625 L 61.738281 34.695312 L 61.738281 34.652344 L 34.410156 34.652344 Z M 34.453125 34.738281 "/><g clip-rule="nonzero" clip-path="url(#8fbfcae5bd)"><path style=" stroke:none;fill-rule:nonzero;fill:#87ff00;fill-opacity:1;" d="M 47.988281 9.179688 L 14.148438 28.574219 L 14.148438 67.371094 L 47.988281 86.769531 L 81.828125 67.371094 L 81.828125 28.574219 Z M 75.359375 63.664062 L 47.988281 79.4375 L 20.613281 63.664062 L 20.617188 32.195312 L 47.988281 16.417969 L 75.363281 32.195312 L 75.363281 63.664062 Z M 75.359375 63.664062 "/></g><g style="fill:#b21a22;fill-opacity:1;"><g transform="translate(22.446894, 29.710349)"><path style="stroke:none" d="M 8.789062 -10.15625 L 8.789062 -6.484375 C 8.789062 -5.214844 8.359375 -4.308594 7.5 -3.773438 L 7.195312 -4.257812 L 7.75 -4.390625 L 8.703125 -0.464844 L 8.148438 -0.328125 L 8.695312 -0.480469 C 8.777344 -0.1875 8.738281 0.0625 8.578125 0.269531 C 8.421875 0.46875 8.191406 0.570312 7.890625 0.570312 L 6.101562 0.570312 C 5.878906 0.570312 5.691406 0.507812 5.53125 0.375 C 5.378906 0.25 5.277344 0.078125 5.230469 -0.136719 L 5.789062 -0.253906 L 5.234375 -0.121094 L 4.359375 -3.71875 L 4.914062 -3.855469 L 4.914062 -3.285156 L 3.289062 -3.285156 L 3.289062 -3.855469 L 3.859375 -3.855469 L 3.859375 -0.292969 C 3.859375 -0.0390625 3.777344 0.171875 3.617188 0.332031 C 3.457031 0.492188 3.25 0.570312 2.996094 0.570312 L 1.207031 0.570312 C 0.949219 0.570312 0.742188 0.492188 0.582031 0.332031 C 0.421875 0.171875 0.34375 -0.0390625 0.34375 -0.292969 L 0.34375 -12.496094 C 0.34375 -12.75 0.421875 -12.957031 0.582031 -13.117188 C 0.742188 -13.277344 0.949219 -13.355469 1.207031 -13.355469 L 5.589844 -13.355469 C 6.613281 -13.355469 7.402344 -13.078125 7.957031 -12.523438 C 8.511719 -11.96875 8.789062 -11.179688 8.789062 -10.15625 Z M 7.648438 -10.15625 C 7.648438 -10.863281 7.484375 -11.382812 7.148438 -11.714844 C 6.816406 -12.050781 6.296875 -12.214844 5.589844 -12.214844 L 1.207031 -12.214844 C 1.21875 -12.214844 1.234375 -12.21875 1.257812 -12.226562 C 1.308594 -12.242188 1.351562 -12.269531 1.390625 -12.308594 C 1.429688 -12.347656 1.457031 -12.394531 1.472656 -12.441406 C 1.480469 -12.464844 1.484375 -12.480469 1.484375 -12.496094 L 1.484375 -0.292969 C 1.484375 -0.304688 1.480469 -0.324219 1.472656 -0.34375 C 1.457031 -0.394531 1.429688 -0.4375 1.390625 -0.476562 C 1.351562 -0.515625 1.308594 -0.542969 1.257812 -0.558594 C 1.234375 -0.566406 1.21875 -0.570312 1.207031 -0.570312 L 2.996094 -0.570312 C 2.984375 -0.570312 2.964844 -0.566406 2.941406 -0.558594 C 2.894531 -0.542969 2.851562 -0.515625 2.8125 -0.476562 C 2.773438 -0.4375 2.746094 -0.394531 2.726562 -0.34375 C 2.722656 -0.324219 2.71875 -0.304688 2.71875 -0.292969 L 2.71875 -4.425781 L 5.363281 -4.425781 L 6.347656 -0.382812 L 6.347656 -0.375 C 6.339844 -0.417969 6.308594 -0.464844 6.257812 -0.503906 C 6.203125 -0.546875 6.152344 -0.570312 6.101562 -0.570312 L 7.890625 -0.570312 C 7.878906 -0.570312 7.867188 -0.566406 7.851562 -0.558594 C 7.785156 -0.535156 7.726562 -0.496094 7.679688 -0.433594 C 7.628906 -0.371094 7.601562 -0.300781 7.597656 -0.226562 C 7.59375 -0.203125 7.59375 -0.183594 7.597656 -0.175781 L 7.59375 -0.183594 L 6.546875 -4.523438 L 6.894531 -4.738281 C 7.398438 -5.054688 7.648438 -5.636719 7.648438 -6.484375 Z M 3.289062 -6.78125 L 5.113281 -6.78125 C 5.175781 -6.78125 5.222656 -6.785156 5.253906 -6.796875 C 5.261719 -6.800781 5.265625 -6.800781 5.265625 -6.804688 C 5.265625 -6.800781 5.261719 -6.800781 5.257812 -6.796875 C 5.257812 -6.792969 5.253906 -6.792969 5.253906 -6.789062 C 5.253906 -6.792969 5.257812 -6.796875 5.257812 -6.800781 C 5.269531 -6.835938 5.273438 -6.882812 5.273438 -6.941406 L 5.273438 -9.699219 C 5.273438 -9.757812 5.269531 -9.804688 5.257812 -9.839844 C 5.257812 -9.84375 5.253906 -9.847656 5.253906 -9.851562 C 5.253906 -9.847656 5.257812 -9.847656 5.257812 -9.84375 C 5.261719 -9.839844 5.265625 -9.839844 5.265625 -9.839844 C 5.265625 -9.839844 5.261719 -9.839844 5.253906 -9.84375 C 5.222656 -9.855469 5.175781 -9.859375 5.113281 -9.859375 L 3.289062 -9.859375 L 3.289062 -10.429688 L 3.859375 -10.429688 L 3.859375 -6.210938 L 3.289062 -6.210938 Z M 2.71875 -5.640625 L 2.71875 -11 L 5.113281 -11 C 5.515625 -11 5.832031 -10.882812 6.066406 -10.652344 C 6.300781 -10.417969 6.417969 -10.101562 6.417969 -9.699219 L 6.417969 -6.941406 C 6.417969 -6.539062 6.300781 -6.222656 6.066406 -5.988281 C 5.832031 -5.757812 5.515625 -5.640625 5.113281 -5.640625 Z M 2.71875 -5.640625 "/></g></g><g style="fill:#b21a22;fill-opacity:1;"><g transform="translate(31.577257, 29.710349)"><path style="stroke:none" d="M 3.542969 -13.355469 L 5.589844 -13.355469 C 6.613281 -13.355469 7.402344 -13.078125 7.957031 -12.523438 C 8.511719 -11.96875 8.789062 -11.179688 8.789062 -10.15625 L 8.789062 -8.949219 C 8.789062 -8.695312 8.710938 -8.488281 8.550781 -8.328125 C 8.390625 -8.167969 8.183594 -8.085938 7.925781 -8.085938 L 6.082031 -8.085938 C 5.828125 -8.085938 5.621094 -8.167969 5.460938 -8.328125 C 5.300781 -8.488281 5.21875 -8.695312 5.21875 -8.949219 L 5.21875 -9.71875 C 5.21875 -9.777344 5.214844 -9.824219 5.203125 -9.855469 C 5.203125 -9.863281 5.199219 -9.867188 5.199219 -9.871094 C 5.199219 -9.867188 5.203125 -9.863281 5.203125 -9.863281 C 5.207031 -9.859375 5.210938 -9.859375 5.210938 -9.855469 C 5.210938 -9.859375 5.203125 -9.859375 5.199219 -9.859375 C 5.167969 -9.871094 5.121094 -9.878906 5.058594 -9.878906 L 4.054688 -9.878906 C 3.996094 -9.878906 3.949219 -9.871094 3.917969 -9.859375 C 3.910156 -9.859375 3.90625 -9.859375 3.902344 -9.855469 C 3.90625 -9.859375 3.90625 -9.859375 3.910156 -9.863281 C 3.914062 -9.863281 3.914062 -9.867188 3.917969 -9.871094 C 3.914062 -9.867188 3.914062 -9.863281 3.910156 -9.855469 C 3.902344 -9.824219 3.894531 -9.777344 3.894531 -9.71875 L 3.894531 -8.164062 L 3.324219 -8.164062 L 3.5 -8.707031 L 7.921875 -7.285156 C 8.203125 -7.1875 8.417969 -7.03125 8.566406 -6.816406 C 8.714844 -6.605469 8.789062 -6.355469 8.789062 -6.066406 L 8.789062 -2.628906 C 8.789062 -1.621094 8.515625 -0.835938 7.960938 -0.273438 C 7.402344 0.289062 6.613281 0.570312 5.589844 0.570312 L 3.542969 0.570312 C 2.535156 0.570312 1.746094 0.289062 1.183594 -0.273438 C 0.625 -0.835938 0.34375 -1.621094 0.34375 -2.628906 L 0.34375 -3.816406 C 0.34375 -4.074219 0.421875 -4.28125 0.582031 -4.441406 C 0.742188 -4.601562 0.949219 -4.679688 1.207031 -4.679688 L 3.050781 -4.679688 C 3.304688 -4.679688 3.511719 -4.601562 3.671875 -4.441406 C 3.832031 -4.28125 3.914062 -4.074219 3.914062 -3.816406 L 3.914062 -3.050781 C 3.914062 -2.992188 3.917969 -2.945312 3.929688 -2.910156 C 3.933594 -2.90625 3.933594 -2.902344 3.933594 -2.898438 C 3.933594 -2.902344 3.933594 -2.902344 3.929688 -2.90625 C 3.925781 -2.910156 3.925781 -2.910156 3.921875 -2.914062 C 3.925781 -2.910156 3.929688 -2.910156 3.933594 -2.90625 C 3.96875 -2.894531 4.011719 -2.890625 4.074219 -2.890625 L 5.058594 -2.890625 C 5.121094 -2.890625 5.167969 -2.894531 5.199219 -2.90625 C 5.203125 -2.910156 5.210938 -2.910156 5.210938 -2.914062 C 5.210938 -2.910156 5.207031 -2.910156 5.203125 -2.90625 C 5.203125 -2.902344 5.199219 -2.902344 5.199219 -2.898438 C 5.199219 -2.902344 5.203125 -2.90625 5.203125 -2.910156 C 5.214844 -2.945312 5.21875 -2.992188 5.21875 -3.050781 L 5.21875 -4.894531 L 5.789062 -4.894531 L 5.613281 -4.351562 L 1.230469 -5.777344 C 0.949219 -5.871094 0.730469 -6.023438 0.574219 -6.234375 C 0.421875 -6.449219 0.34375 -6.703125 0.34375 -6.996094 L 0.34375 -10.15625 C 0.34375 -11.179688 0.625 -11.96875 1.1875 -12.527344 C 1.75 -13.082031 2.535156 -13.355469 3.542969 -13.355469 Z M 3.542969 -12.214844 C 2.847656 -12.214844 2.328125 -12.046875 1.988281 -11.714844 C 1.652344 -11.378906 1.484375 -10.863281 1.484375 -10.15625 L 1.484375 -6.996094 C 1.484375 -6.949219 1.488281 -6.921875 1.496094 -6.90625 C 1.507812 -6.894531 1.535156 -6.878906 1.582031 -6.863281 L 6.363281 -5.308594 L 6.363281 -3.050781 C 6.363281 -2.648438 6.246094 -2.332031 6.011719 -2.097656 C 5.777344 -1.867188 5.460938 -1.75 5.058594 -1.75 L 4.074219 -1.75 C 3.671875 -1.75 3.355469 -1.867188 3.121094 -2.097656 C 2.886719 -2.332031 2.773438 -2.648438 2.773438 -3.050781 L 2.773438 -3.816406 C 2.773438 -3.804688 2.777344 -3.785156 2.78125 -3.765625 C 2.800781 -3.714844 2.828125 -3.671875 2.867188 -3.632812 C 2.90625 -3.59375 2.949219 -3.566406 2.996094 -3.550781 C 3.019531 -3.542969 3.039062 -3.539062 3.050781 -3.539062 L 1.207031 -3.539062 C 1.21875 -3.539062 1.234375 -3.542969 1.257812 -3.550781 C 1.308594 -3.566406 1.351562 -3.59375 1.390625 -3.632812 C 1.429688 -3.671875 1.457031 -3.714844 1.472656 -3.765625 C 1.480469 -3.785156 1.484375 -3.804688 1.484375 -3.816406 L 1.484375 -2.628906 C 1.484375 -1.9375 1.652344 -1.417969 1.992188 -1.078125 C 2.332031 -0.742188 2.847656 -0.570312 3.542969 -0.570312 L 5.589844 -0.570312 C 6.296875 -0.570312 6.8125 -0.738281 7.148438 -1.078125 C 7.480469 -1.417969 7.648438 -1.933594 7.648438 -2.628906 L 7.648438 -6.066406 C 7.648438 -6.113281 7.644531 -6.148438 7.632812 -6.160156 C 7.625 -6.171875 7.605469 -6.183594 7.570312 -6.195312 L 2.753906 -7.75 L 2.753906 -9.71875 C 2.753906 -10.117188 2.871094 -10.4375 3.101562 -10.667969 C 3.335938 -10.902344 3.652344 -11.019531 4.054688 -11.019531 L 5.058594 -11.019531 C 5.460938 -11.019531 5.777344 -10.902344 6.011719 -10.667969 C 6.246094 -10.4375 6.363281 -10.117188 6.363281 -9.71875 L 6.363281 -8.949219 C 6.363281 -8.964844 6.359375 -8.980469 6.351562 -9.003906 C 6.335938 -9.050781 6.304688 -9.097656 6.265625 -9.136719 C 6.226562 -9.175781 6.183594 -9.203125 6.136719 -9.21875 C 6.113281 -9.226562 6.097656 -9.230469 6.082031 -9.230469 L 7.925781 -9.230469 C 7.914062 -9.230469 7.898438 -9.226562 7.875 -9.21875 C 7.828125 -9.203125 7.78125 -9.175781 7.742188 -9.136719 C 7.703125 -9.097656 7.675781 -9.050781 7.660156 -9.003906 C 7.652344 -8.980469 7.648438 -8.964844 7.648438 -8.949219 L 7.648438 -10.15625 C 7.648438 -10.863281 7.484375 -11.382812 7.148438 -11.714844 C 6.816406 -12.050781 6.296875 -12.214844 5.589844 -12.214844 Z M 3.542969 -12.214844 "/></g></g><g style="fill:#b21a22;fill-opacity:1;"><g transform="translate(40.707619, 29.710349)"><path style="stroke:none" d="M 0.34375 -0.292969 L 0.34375 -12.496094 C 0.34375 -12.75 0.421875 -12.957031 0.582031 -13.117188 C 0.742188 -13.277344 0.949219 -13.355469 1.207031 -13.355469 L 5.589844 -13.355469 C 6.613281 -13.355469 7.402344 -13.078125 7.957031 -12.523438 C 8.511719 -11.96875 8.789062 -11.179688 8.789062 -10.15625 L 8.789062 -6.574219 C 8.789062 -5.566406 8.511719 -4.78125 7.957031 -4.226562 C 7.402344 -3.671875 6.617188 -3.390625 5.597656 -3.375 L 3.292969 -3.355469 L 3.289062 -3.925781 L 3.859375 -3.925781 L 3.859375 -0.273438 C 3.859375 -0.0195312 3.777344 0.1875 3.617188 0.347656 C 3.457031 0.507812 3.25 0.589844 2.996094 0.589844 L 1.199219 0.570312 C 0.949219 0.570312 0.742188 0.492188 0.582031 0.332031 C 0.421875 0.171875 0.34375 -0.0390625 0.34375 -0.292969 Z M 1.484375 -0.292969 C 1.484375 -0.304688 1.480469 -0.324219 1.472656 -0.34375 C 1.457031 -0.394531 1.429688 -0.4375 1.390625 -0.476562 C 1.351562 -0.515625 1.308594 -0.542969 1.257812 -0.558594 C 1.234375 -0.566406 1.21875 -0.570312 1.210938 -0.570312 L 2.996094 -0.550781 C 2.984375 -0.550781 2.964844 -0.550781 2.941406 -0.542969 C 2.894531 -0.523438 2.851562 -0.496094 2.8125 -0.457031 C 2.773438 -0.417969 2.746094 -0.375 2.726562 -0.328125 C 2.722656 -0.304688 2.71875 -0.285156 2.71875 -0.273438 L 2.71875 -4.492188 L 5.582031 -4.515625 C 6.292969 -4.527344 6.8125 -4.699219 7.148438 -5.035156 C 7.484375 -5.367188 7.648438 -5.882812 7.648438 -6.574219 L 7.648438 -10.15625 C 7.648438 -10.863281 7.484375 -11.382812 7.148438 -11.714844 C 6.816406 -12.050781 6.296875 -12.214844 5.589844 -12.214844 L 1.207031 -12.214844 C 1.21875 -12.214844 1.234375 -12.21875 1.257812 -12.226562 C 1.308594 -12.242188 1.351562 -12.269531 1.390625 -12.308594 C 1.429688 -12.347656 1.457031 -12.394531 1.472656 -12.441406 C 1.480469 -12.464844 1.484375 -12.480469 1.484375 -12.496094 Z M 3.28125 -6.855469 L 5.109375 -6.871094 C 5.171875 -6.871094 5.222656 -6.878906 5.253906 -6.890625 C 5.261719 -6.890625 5.265625 -6.894531 5.265625 -6.894531 C 5.265625 -6.894531 5.261719 -6.890625 5.257812 -6.886719 C 5.257812 -6.886719 5.253906 -6.882812 5.253906 -6.882812 C 5.253906 -6.882812 5.257812 -6.886719 5.257812 -6.894531 C 5.269531 -6.925781 5.273438 -6.972656 5.273438 -7.03125 L 5.273438 -9.699219 C 5.273438 -9.757812 5.269531 -9.804688 5.257812 -9.839844 C 5.257812 -9.84375 5.253906 -9.847656 5.253906 -9.851562 C 5.253906 -9.847656 5.257812 -9.847656 5.257812 -9.84375 C 5.261719 -9.839844 5.265625 -9.839844 5.265625 -9.839844 C 5.265625 -9.839844 5.261719 -9.839844 5.253906 -9.84375 C 5.222656 -9.855469 5.175781 -9.859375 5.113281 -9.859375 L 3.292969 -9.839844 L 3.289062 -10.410156 L 3.859375 -10.410156 L 3.859375 -6.285156 L 3.289062 -6.285156 Z M 2.71875 -5.707031 L 2.71875 -10.976562 L 5.113281 -11 C 5.515625 -11 5.832031 -10.882812 6.066406 -10.652344 C 6.300781 -10.417969 6.417969 -10.101562 6.417969 -9.699219 L 6.417969 -7.03125 C 6.417969 -6.632812 6.300781 -6.3125 6.066406 -6.082031 C 5.832031 -5.847656 5.519531 -5.730469 5.121094 -5.730469 L 3.292969 -5.710938 Z M 2.71875 -5.707031 "/></g></g><g style="fill:#b21a22;fill-opacity:1;"><g transform="translate(49.837982, 29.710349)"><path style="stroke:none" d="M 8.773438 -12.496094 L 8.773438 -10.667969 C 8.773438 -10.414062 8.695312 -10.207031 8.542969 -10.042969 C 8.382812 -9.871094 8.171875 -9.785156 7.910156 -9.785156 L 3.398438 -9.785156 L 3.398438 -10.355469 L 3.96875 -10.355469 L 3.96875 -7.542969 L 3.398438 -7.542969 L 3.398438 -8.113281 L 6.832031 -8.113281 C 7.09375 -8.113281 7.304688 -8.027344 7.464844 -7.859375 C 7.617188 -7.695312 7.695312 -7.488281 7.695312 -7.234375 L 7.695312 -5.425781 C 7.695312 -5.171875 7.617188 -4.960938 7.464844 -4.800781 C 7.304688 -4.628906 7.09375 -4.542969 6.832031 -4.542969 L 3.398438 -4.542969 L 3.398438 -5.113281 L 3.96875 -5.113281 L 3.96875 -2.410156 L 3.398438 -2.410156 L 3.398438 -2.980469 L 7.910156 -2.980469 C 8.164062 -2.980469 8.371094 -2.902344 8.53125 -2.742188 C 8.691406 -2.582031 8.773438 -2.375 8.773438 -2.117188 L 8.773438 -0.292969 C 8.773438 -0.0390625 8.691406 0.171875 8.53125 0.332031 C 8.371094 0.492188 8.164062 0.570312 7.910156 0.570312 L 1.1875 0.570312 C 0.929688 0.570312 0.722656 0.488281 0.566406 0.316406 C 0.417969 0.160156 0.34375 -0.0429688 0.34375 -0.292969 L 0.34375 -12.496094 C 0.34375 -12.742188 0.417969 -12.945312 0.566406 -13.105469 C 0.722656 -13.273438 0.929688 -13.355469 1.1875 -13.355469 L 7.910156 -13.355469 C 8.164062 -13.355469 8.371094 -13.277344 8.53125 -13.117188 C 8.691406 -12.957031 8.773438 -12.75 8.773438 -12.496094 Z M 7.628906 -12.496094 C 7.628906 -12.480469 7.632812 -12.464844 7.640625 -12.441406 C 7.65625 -12.394531 7.6875 -12.347656 7.726562 -12.308594 C 7.765625 -12.269531 7.808594 -12.242188 7.855469 -12.226562 C 7.878906 -12.21875 7.894531 -12.214844 7.910156 -12.214844 L 1.1875 -12.214844 C 1.261719 -12.214844 1.332031 -12.25 1.398438 -12.324219 C 1.433594 -12.363281 1.460938 -12.40625 1.476562 -12.453125 C 1.480469 -12.472656 1.484375 -12.484375 1.484375 -12.496094 L 1.484375 -0.292969 C 1.484375 -0.300781 1.480469 -0.316406 1.476562 -0.335938 C 1.460938 -0.382812 1.433594 -0.425781 1.398438 -0.464844 C 1.332031 -0.535156 1.261719 -0.570312 1.1875 -0.570312 L 7.910156 -0.570312 C 7.894531 -0.570312 7.878906 -0.566406 7.855469 -0.558594 C 7.808594 -0.542969 7.765625 -0.515625 7.726562 -0.476562 C 7.6875 -0.4375 7.65625 -0.394531 7.640625 -0.34375 C 7.632812 -0.324219 7.628906 -0.304688 7.628906 -0.292969 L 7.628906 -2.117188 C 7.628906 -2.105469 7.632812 -2.089844 7.640625 -2.066406 C 7.65625 -2.015625 7.6875 -1.972656 7.726562 -1.933594 C 7.765625 -1.894531 7.808594 -1.867188 7.855469 -1.851562 C 7.878906 -1.84375 7.894531 -1.839844 7.910156 -1.839844 L 2.828125 -1.839844 L 2.828125 -5.683594 L 6.832031 -5.683594 C 6.816406 -5.683594 6.792969 -5.679688 6.769531 -5.671875 C 6.71875 -5.65625 6.675781 -5.625 6.636719 -5.582031 C 6.601562 -5.546875 6.574219 -5.503906 6.5625 -5.460938 C 6.554688 -5.445312 6.554688 -5.433594 6.554688 -5.425781 L 6.554688 -7.234375 C 6.554688 -7.226562 6.554688 -7.214844 6.5625 -7.199219 C 6.574219 -7.152344 6.601562 -7.113281 6.636719 -7.074219 C 6.675781 -7.035156 6.71875 -7.003906 6.769531 -6.988281 C 6.792969 -6.976562 6.816406 -6.972656 6.832031 -6.972656 L 2.828125 -6.972656 L 2.828125 -10.929688 L 7.910156 -10.929688 C 7.894531 -10.929688 7.871094 -10.921875 7.847656 -10.914062 C 7.796875 -10.898438 7.75 -10.867188 7.710938 -10.824219 C 7.675781 -10.789062 7.652344 -10.746094 7.640625 -10.703125 C 7.632812 -10.6875 7.628906 -10.675781 7.628906 -10.667969 Z M 7.628906 -12.496094 "/></g></g><g style="fill:#b21a22;fill-opacity:1;"><g transform="translate(58.95008, 29.710349)"><path style="stroke:none" d="M 8.808594 -10.15625 L 8.808594 -8.183594 C 8.808594 -7.929688 8.730469 -7.722656 8.570312 -7.558594 C 8.410156 -7.398438 8.199219 -7.320312 7.945312 -7.320312 L 6.230469 -7.320312 C 5.972656 -7.320312 5.765625 -7.398438 5.605469 -7.558594 C 5.445312 -7.722656 5.367188 -7.929688 5.367188 -8.183594 L 5.367188 -9.679688 C 5.367188 -9.742188 5.359375 -9.789062 5.347656 -9.820312 C 5.347656 -9.828125 5.34375 -9.832031 5.34375 -9.832031 C 5.34375 -9.832031 5.347656 -9.828125 5.351562 -9.824219 C 5.351562 -9.824219 5.355469 -9.820312 5.359375 -9.820312 C 5.355469 -9.820312 5.351562 -9.824219 5.34375 -9.824219 C 5.3125 -9.835938 5.265625 -9.839844 5.207031 -9.839844 L 4.035156 -9.839844 C 3.976562 -9.839844 3.929688 -9.835938 3.898438 -9.824219 C 3.890625 -9.824219 3.886719 -9.820312 3.886719 -9.820312 C 3.886719 -9.820312 3.890625 -9.824219 3.890625 -9.824219 C 3.894531 -9.828125 3.898438 -9.832031 3.898438 -9.832031 C 3.898438 -9.832031 3.894531 -9.828125 3.894531 -9.820312 C 3.882812 -9.789062 3.878906 -9.742188 3.878906 -9.679688 L 3.878906 -3.050781 C 3.878906 -2.992188 3.882812 -2.945312 3.894531 -2.910156 C 3.894531 -2.90625 3.898438 -2.902344 3.898438 -2.898438 C 3.898438 -2.902344 3.894531 -2.902344 3.890625 -2.90625 C 3.890625 -2.910156 3.886719 -2.910156 3.886719 -2.914062 C 3.886719 -2.910156 3.890625 -2.910156 3.898438 -2.90625 C 3.929688 -2.894531 3.976562 -2.890625 4.035156 -2.890625 L 5.207031 -2.890625 C 5.265625 -2.890625 5.3125 -2.894531 5.34375 -2.90625 C 5.351562 -2.910156 5.355469 -2.910156 5.359375 -2.914062 C 5.355469 -2.910156 5.351562 -2.910156 5.351562 -2.90625 C 5.347656 -2.902344 5.34375 -2.902344 5.34375 -2.898438 C 5.34375 -2.902344 5.347656 -2.90625 5.347656 -2.910156 C 5.359375 -2.945312 5.367188 -2.992188 5.367188 -3.050781 L 5.367188 -4.601562 C 5.367188 -4.859375 5.445312 -5.066406 5.605469 -5.226562 C 5.765625 -5.386719 5.972656 -5.464844 6.230469 -5.464844 L 7.945312 -5.464844 C 8.199219 -5.464844 8.410156 -5.386719 8.570312 -5.226562 C 8.730469 -5.066406 8.808594 -4.859375 8.808594 -4.601562 L 8.808594 -2.628906 C 8.808594 -1.621094 8.527344 -0.835938 7.964844 -0.273438 C 7.402344 0.289062 6.617188 0.570312 5.609375 0.570312 L 3.5625 0.570312 C 2.554688 0.570312 1.765625 0.289062 1.199219 -0.269531 C 0.628906 -0.832031 0.34375 -1.617188 0.34375 -2.628906 L 0.34375 -10.15625 C 0.34375 -11.179688 0.628906 -11.972656 1.199219 -12.527344 C 1.769531 -13.082031 2.554688 -13.355469 3.5625 -13.355469 L 5.609375 -13.355469 C 6.617188 -13.355469 7.402344 -13.082031 7.964844 -12.527344 C 8.527344 -11.96875 8.808594 -11.179688 8.808594 -10.15625 Z M 7.667969 -10.15625 C 7.667969 -10.863281 7.5 -11.378906 7.160156 -11.714844 C 6.820312 -12.046875 6.304688 -12.214844 5.609375 -12.214844 L 3.5625 -12.214844 C 2.863281 -12.214844 2.34375 -12.046875 1.996094 -11.710938 C 1.65625 -11.378906 1.484375 -10.859375 1.484375 -10.15625 L 1.484375 -2.628906 C 1.484375 -1.9375 1.65625 -1.421875 2 -1.082031 C 2.34375 -0.742188 2.867188 -0.570312 3.5625 -0.570312 L 5.609375 -0.570312 C 6.300781 -0.570312 6.820312 -0.742188 7.160156 -1.078125 C 7.496094 -1.417969 7.667969 -1.9375 7.667969 -2.628906 L 7.667969 -4.601562 C 7.667969 -4.589844 7.671875 -4.574219 7.679688 -4.550781 C 7.695312 -4.5 7.722656 -4.457031 7.761719 -4.417969 C 7.800781 -4.378906 7.84375 -4.351562 7.894531 -4.335938 C 7.914062 -4.328125 7.933594 -4.324219 7.945312 -4.324219 L 6.230469 -4.324219 C 6.242188 -4.324219 6.257812 -4.328125 6.28125 -4.335938 C 6.332031 -4.351562 6.375 -4.378906 6.414062 -4.417969 C 6.453125 -4.457031 6.480469 -4.5 6.496094 -4.550781 C 6.503906 -4.574219 6.507812 -4.589844 6.507812 -4.601562 L 6.507812 -3.050781 C 6.507812 -2.648438 6.390625 -2.332031 6.15625 -2.097656 C 5.925781 -1.867188 5.605469 -1.75 5.207031 -1.75 L 4.035156 -1.75 C 3.636719 -1.75 3.320312 -1.867188 3.085938 -2.097656 C 2.851562 -2.332031 2.734375 -2.648438 2.734375 -3.050781 L 2.734375 -9.679688 C 2.734375 -10.082031 2.851562 -10.398438 3.085938 -10.632812 C 3.320312 -10.867188 3.636719 -10.984375 4.035156 -10.984375 L 5.207031 -10.984375 C 5.605469 -10.984375 5.925781 -10.867188 6.15625 -10.632812 C 6.390625 -10.398438 6.507812 -10.082031 6.507812 -9.679688 L 6.507812 -8.183594 C 6.507812 -8.195312 6.503906 -8.214844 6.496094 -8.234375 C 6.480469 -8.285156 6.453125 -8.328125 6.414062 -8.367188 C 6.375 -8.40625 6.332031 -8.433594 6.28125 -8.449219 C 6.257812 -8.457031 6.242188 -8.460938 6.230469 -8.460938 L 7.945312 -8.460938 C 7.933594 -8.460938 7.914062 -8.457031 7.894531 -8.449219 C 7.84375 -8.433594 7.800781 -8.40625 7.761719 -8.367188 C 7.722656 -8.328125 7.695312 -8.285156 7.679688 -8.234375 C 7.671875 -8.214844 7.667969 -8.195312 7.667969 -8.183594 Z M 7.667969 -10.15625 "/></g></g><g style="fill:#b21a22;fill-opacity:1;"><g transform="translate(68.098706, 29.710349)"><path style="stroke:none" d="M 0.34375 -5.734375 L 0.34375 -7.417969 C 0.34375 -7.695312 0.429688 -7.921875 0.601562 -8.09375 C 0.773438 -8.265625 1 -8.351562 1.277344 -8.351562 L 4.164062 -8.351562 C 4.445312 -8.351562 4.671875 -8.265625 4.84375 -8.09375 C 5.015625 -7.921875 5.101562 -7.695312 5.101562 -7.417969 L 5.101562 -5.734375 C 5.101562 -5.457031 5.015625 -5.230469 4.84375 -5.058594 C 4.671875 -4.886719 4.445312 -4.800781 4.164062 -4.800781 L 1.277344 -4.800781 C 1 -4.800781 0.773438 -4.886719 0.601562 -5.058594 C 0.429688 -5.230469 0.34375 -5.457031 0.34375 -5.734375 Z M 1.484375 -5.734375 C 1.484375 -5.734375 1.484375 -5.730469 1.484375 -5.730469 C 1.484375 -5.738281 1.480469 -5.746094 1.476562 -5.757812 C 1.464844 -5.796875 1.441406 -5.832031 1.410156 -5.867188 C 1.375 -5.898438 1.339844 -5.921875 1.300781 -5.933594 C 1.289062 -5.9375 1.28125 -5.941406 1.273438 -5.941406 C 1.273438 -5.941406 1.277344 -5.941406 1.277344 -5.941406 L 4.164062 -5.941406 C 4.167969 -5.941406 4.167969 -5.941406 4.171875 -5.941406 C 4.171875 -5.941406 4.171875 -5.941406 4.167969 -5.941406 C 4.164062 -5.941406 4.152344 -5.9375 4.144531 -5.933594 C 4.105469 -5.921875 4.066406 -5.898438 4.035156 -5.867188 C 4.003906 -5.832031 3.980469 -5.796875 3.964844 -5.757812 C 3.960938 -5.746094 3.960938 -5.738281 3.960938 -5.730469 C 3.960938 -5.730469 3.960938 -5.734375 3.960938 -5.734375 L 3.960938 -7.417969 C 3.960938 -7.417969 3.960938 -7.421875 3.960938 -7.421875 C 3.960938 -7.414062 3.960938 -7.40625 3.964844 -7.394531 C 3.980469 -7.355469 4.003906 -7.320312 4.035156 -7.285156 C 4.066406 -7.253906 4.105469 -7.230469 4.144531 -7.21875 C 4.152344 -7.214844 4.164062 -7.210938 4.167969 -7.210938 C 4.171875 -7.210938 4.171875 -7.210938 4.171875 -7.210938 C 4.167969 -7.210938 4.167969 -7.210938 4.164062 -7.210938 L 1.277344 -7.210938 C 1.277344 -7.210938 1.273438 -7.210938 1.273438 -7.210938 C 1.28125 -7.210938 1.289062 -7.214844 1.300781 -7.21875 C 1.339844 -7.230469 1.375 -7.253906 1.410156 -7.285156 C 1.441406 -7.320312 1.464844 -7.355469 1.476562 -7.394531 C 1.480469 -7.40625 1.484375 -7.414062 1.484375 -7.421875 C 1.484375 -7.421875 1.484375 -7.417969 1.484375 -7.417969 Z M 1.484375 -5.734375 "/></g></g><g style="fill:#b21a22;fill-opacity:1;"><g transform="translate(10.523894, 55.17695)"><path style="stroke:none" d="M 3.542969 -13.355469 L 5.589844 -13.355469 C 6.613281 -13.355469 7.402344 -13.078125 7.957031 -12.523438 C 8.511719 -11.96875 8.789062 -11.179688 8.789062 -10.15625 L 8.789062 -8.949219 C 8.789062 -8.695312 8.710938 -8.488281 8.550781 -8.328125 C 8.390625 -8.167969 8.183594 -8.085938 7.925781 -8.085938 L 6.082031 -8.085938 C 5.828125 -8.085938 5.621094 -8.167969 5.460938 -8.328125 C 5.300781 -8.488281 5.21875 -8.695312 5.21875 -8.949219 L 5.21875 -9.71875 C 5.21875 -9.777344 5.214844 -9.824219 5.203125 -9.855469 C 5.203125 -9.863281 5.199219 -9.867188 5.199219 -9.871094 C 5.199219 -9.867188 5.203125 -9.863281 5.203125 -9.863281 C 5.207031 -9.859375 5.210938 -9.859375 5.210938 -9.855469 C 5.210938 -9.859375 5.203125 -9.859375 5.199219 -9.859375 C 5.167969 -9.871094 5.121094 -9.878906 5.058594 -9.878906 L 4.054688 -9.878906 C 3.996094 -9.878906 3.949219 -9.871094 3.917969 -9.859375 C 3.910156 -9.859375 3.90625 -9.859375 3.902344 -9.855469 C 3.90625 -9.859375 3.90625 -9.859375 3.910156 -9.863281 C 3.914062 -9.863281 3.914062 -9.867188 3.917969 -9.871094 C 3.914062 -9.867188 3.914062 -9.863281 3.910156 -9.855469 C 3.902344 -9.824219 3.894531 -9.777344 3.894531 -9.71875 L 3.894531 -8.164062 L 3.324219 -8.164062 L 3.5 -8.707031 L 7.921875 -7.285156 C 8.203125 -7.1875 8.417969 -7.03125 8.566406 -6.816406 C 8.714844 -6.605469 8.789062 -6.355469 8.789062 -6.066406 L 8.789062 -2.628906 C 8.789062 -1.621094 8.515625 -0.835938 7.960938 -0.273438 C 7.402344 0.289062 6.613281 0.570312 5.589844 0.570312 L 3.542969 0.570312 C 2.535156 0.570312 1.746094 0.289062 1.183594 -0.273438 C 0.625 -0.835938 0.34375 -1.621094 0.34375 -2.628906 L 0.34375 -3.816406 C 0.34375 -4.074219 0.421875 -4.28125 0.582031 -4.441406 C 0.742188 -4.601562 0.949219 -4.679688 1.207031 -4.679688 L 3.050781 -4.679688 C 3.304688 -4.679688 3.511719 -4.601562 3.671875 -4.441406 C 3.832031 -4.28125 3.914062 -4.074219 3.914062 -3.816406 L 3.914062 -3.050781 C 3.914062 -2.992188 3.917969 -2.945312 3.929688 -2.910156 C 3.933594 -2.90625 3.933594 -2.902344 3.933594 -2.898438 C 3.933594 -2.902344 3.933594 -2.902344 3.929688 -2.90625 C 3.925781 -2.910156 3.925781 -2.910156 3.921875 -2.914062 C 3.925781 -2.910156 3.929688 -2.910156 3.933594 -2.90625 C 3.96875 -2.894531 4.011719 -2.890625 4.074219 -2.890625 L 5.058594 -2.890625 C 5.121094 -2.890625 5.167969 -2.894531 5.199219 -2.90625 C 5.203125 -2.910156 5.210938 -2.910156 5.210938 -2.914062 C 5.210938 -2.910156 5.207031 -2.910156 5.203125 -2.90625 C 5.203125 -2.902344 5.199219 -2.902344 5.199219 -2.898438 C 5.199219 -2.902344 5.203125 -2.90625 5.203125 -2.910156 C 5.214844 -2.945312 5.21875 -2.992188 5.21875 -3.050781 L 5.21875 -4.894531 L 5.789062 -4.894531 L 5.613281 -4.351562 L 1.230469 -5.777344 C 0.949219 -5.871094 0.730469 -6.023438 0.574219 -6.234375 C 0.421875 -6.449219 0.34375 -6.703125 0.34375 -6.996094 L 0.34375 -10.15625 C 0.34375 -11.179688 0.625 -11.96875 1.1875 -12.527344 C 1.75 -13.082031 2.535156 -13.355469 3.542969 -13.355469 Z M 3.542969 -12.214844 C 2.847656 -12.214844 2.328125 -12.046875 1.988281 -11.714844 C 1.652344 -11.378906 1.484375 -10.863281 1.484375 -10.15625 L 1.484375 -6.996094 C 1.484375 -6.949219 1.488281 -6.921875 1.496094 -6.90625 C 1.507812 -6.894531 1.535156 -6.878906 1.582031 -6.863281 L 6.363281 -5.308594 L 6.363281 -3.050781 C 6.363281 -2.648438 6.246094 -2.332031 6.011719 -2.097656 C 5.777344 -1.867188 5.460938 -1.75 5.058594 -1.75 L 4.074219 -1.75 C 3.671875 -1.75 3.355469 -1.867188 3.121094 -2.097656 C 2.886719 -2.332031 2.773438 -2.648438 2.773438 -3.050781 L 2.773438 -3.816406 C 2.773438 -3.804688 2.777344 -3.785156 2.78125 -3.765625 C 2.800781 -3.714844 2.828125 -3.671875 2.867188 -3.632812 C 2.90625 -3.59375 2.949219 -3.566406 2.996094 -3.550781 C 3.019531 -3.542969 3.039062 -3.539062 3.050781 -3.539062 L 1.207031 -3.539062 C 1.21875 -3.539062 1.234375 -3.542969 1.257812 -3.550781 C 1.308594 -3.566406 1.351562 -3.59375 1.390625 -3.632812 C 1.429688 -3.671875 1.457031 -3.714844 1.472656 -3.765625 C 1.480469 -3.785156 1.484375 -3.804688 1.484375 -3.816406 L 1.484375 -2.628906 C 1.484375 -1.9375 1.652344 -1.417969 1.992188 -1.078125 C 2.332031 -0.742188 2.847656 -0.570312 3.542969 -0.570312 L 5.589844 -0.570312 C 6.296875 -0.570312 6.8125 -0.738281 7.148438 -1.078125 C 7.480469 -1.417969 7.648438 -1.933594 7.648438 -2.628906 L 7.648438 -6.066406 C 7.648438 -6.113281 7.644531 -6.148438 7.632812 -6.160156 C 7.625 -6.171875 7.605469 -6.183594 7.570312 -6.195312 L 2.753906 -7.75 L 2.753906 -9.71875 C 2.753906 -10.117188 2.871094 -10.4375 3.101562 -10.667969 C 3.335938 -10.902344 3.652344 -11.019531 4.054688 -11.019531 L 5.058594 -11.019531 C 5.460938 -11.019531 5.777344 -10.902344 6.011719 -10.667969 C 6.246094 -10.4375 6.363281 -10.117188 6.363281 -9.71875 L 6.363281 -8.949219 C 6.363281 -8.964844 6.359375 -8.980469 6.351562 -9.003906 C 6.335938 -9.050781 6.304688 -9.097656 6.265625 -9.136719 C 6.226562 -9.175781 6.183594 -9.203125 6.136719 -9.21875 C 6.113281 -9.226562 6.097656 -9.230469 6.082031 -9.230469 L 7.925781 -9.230469 C 7.914062 -9.230469 7.898438 -9.226562 7.875 -9.21875 C 7.828125 -9.203125 7.78125 -9.175781 7.742188 -9.136719 C 7.703125 -9.097656 7.675781 -9.050781 7.660156 -9.003906 C 7.652344 -8.980469 7.648438 -8.964844 7.648438 -8.949219 L 7.648438 -10.15625 C 7.648438 -10.863281 7.484375 -11.382812 7.148438 -11.714844 C 6.816406 -12.050781 6.296875 -12.214844 5.589844 -12.214844 Z M 3.542969 -12.214844 "/></g></g><g style="fill:#b21a22;fill-opacity:1;"><g transform="translate(19.654257, 55.17695)"><path style="stroke:none" d="M 7.5625 -12.214844 L 0.839844 -12.214844 C 0.851562 -12.214844 0.871094 -12.21875 0.894531 -12.226562 C 0.941406 -12.242188 0.984375 -12.269531 1.023438 -12.308594 C 1.0625 -12.347656 1.089844 -12.394531 1.109375 -12.441406 C 1.113281 -12.464844 1.117188 -12.480469 1.117188 -12.496094 L 1.117188 -10.667969 C 1.117188 -10.679688 1.113281 -10.699219 1.109375 -10.71875 C 1.089844 -10.769531 1.0625 -10.8125 1.023438 -10.851562 C 0.984375 -10.890625 0.941406 -10.917969 0.894531 -10.933594 C 0.871094 -10.941406 0.851562 -10.945312 0.839844 -10.945312 L 3.53125 -10.945312 L 3.53125 -0.292969 C 3.53125 -0.304688 3.527344 -0.324219 3.519531 -0.34375 C 3.503906 -0.394531 3.476562 -0.4375 3.4375 -0.476562 C 3.398438 -0.515625 3.351562 -0.542969 3.304688 -0.558594 C 3.28125 -0.566406 3.265625 -0.570312 3.25 -0.570312 L 5.152344 -0.570312 C 5.136719 -0.570312 5.121094 -0.566406 5.097656 -0.558594 C 5.050781 -0.542969 5.003906 -0.515625 4.964844 -0.476562 C 4.925781 -0.4375 4.898438 -0.394531 4.882812 -0.34375 C 4.875 -0.324219 4.871094 -0.304688 4.871094 -0.292969 L 4.871094 -10.945312 L 7.5625 -10.945312 C 7.550781 -10.945312 7.53125 -10.941406 7.507812 -10.933594 C 7.460938 -10.917969 7.417969 -10.890625 7.378906 -10.851562 C 7.339844 -10.8125 7.3125 -10.769531 7.292969 -10.71875 C 7.289062 -10.699219 7.285156 -10.679688 7.285156 -10.667969 L 7.285156 -12.496094 C 7.285156 -12.480469 7.289062 -12.464844 7.292969 -12.441406 C 7.3125 -12.394531 7.339844 -12.347656 7.378906 -12.308594 C 7.417969 -12.269531 7.460938 -12.242188 7.507812 -12.226562 C 7.53125 -12.21875 7.550781 -12.214844 7.5625 -12.214844 Z M 7.5625 -13.355469 C 7.816406 -13.355469 8.023438 -13.277344 8.183594 -13.117188 C 8.34375 -12.957031 8.425781 -12.75 8.425781 -12.496094 L 8.425781 -10.667969 C 8.425781 -10.414062 8.34375 -10.203125 8.183594 -10.042969 C 8.023438 -9.882812 7.816406 -9.804688 7.5625 -9.804688 L 5.445312 -9.804688 L 5.445312 -10.375 L 6.015625 -10.375 L 6.015625 -0.292969 C 6.015625 -0.0390625 5.933594 0.171875 5.773438 0.332031 C 5.613281 0.492188 5.40625 0.570312 5.152344 0.570312 L 3.25 0.570312 C 2.996094 0.570312 2.789062 0.492188 2.628906 0.332031 C 2.46875 0.171875 2.386719 -0.0390625 2.386719 -0.292969 L 2.386719 -10.375 L 2.960938 -10.375 L 2.960938 -9.804688 L 0.839844 -9.804688 C 0.585938 -9.804688 0.378906 -9.882812 0.21875 -10.042969 C 0.0585938 -10.203125 -0.0234375 -10.414062 -0.0234375 -10.667969 L -0.0234375 -12.496094 C -0.0234375 -12.75 0.0585938 -12.957031 0.21875 -13.117188 C 0.378906 -13.277344 0.585938 -13.355469 0.839844 -13.355469 Z M 7.5625 -13.355469 "/></g></g><g style="fill:#b21a22;fill-opacity:1;"><g transform="translate(28.054191, 55.17695)"><path style="stroke:none" d="M 6.175781 -13.355469 L 7.855469 -13.355469 C 8.109375 -13.355469 8.328125 -13.265625 8.515625 -13.082031 C 8.699219 -12.894531 8.789062 -12.675781 8.789062 -12.421875 L 8.789062 -2.628906 C 8.789062 -1.621094 8.515625 -0.835938 7.960938 -0.273438 C 7.402344 0.289062 6.613281 0.570312 5.589844 0.570312 L 3.542969 0.570312 C 2.535156 0.570312 1.746094 0.289062 1.183594 -0.273438 C 0.625 -0.835938 0.34375 -1.621094 0.34375 -2.628906 L 0.34375 -12.421875 C 0.34375 -12.675781 0.433594 -12.894531 0.621094 -13.082031 C 0.804688 -13.265625 1.023438 -13.355469 1.277344 -13.355469 L 3.03125 -13.355469 C 3.289062 -13.355469 3.507812 -13.265625 3.691406 -13.082031 C 3.875 -12.894531 3.96875 -12.675781 3.96875 -12.421875 L 3.96875 -3.140625 C 3.96875 -3.082031 3.972656 -3.035156 3.984375 -3.003906 C 3.988281 -2.996094 3.988281 -2.992188 3.988281 -2.992188 C 3.988281 -2.992188 3.988281 -2.996094 3.984375 -2.996094 C 3.980469 -3 3.980469 -3.003906 3.976562 -3.003906 C 3.980469 -3.003906 3.984375 -3 3.988281 -3 C 4.023438 -2.988281 4.066406 -2.980469 4.128906 -2.980469 L 5.078125 -2.980469 C 5.136719 -2.980469 5.183594 -2.988281 5.21875 -3 C 5.222656 -3 5.226562 -3.003906 5.230469 -3.003906 C 5.226562 -3.003906 5.226562 -3 5.222656 -2.996094 C 5.21875 -2.996094 5.21875 -2.992188 5.214844 -2.992188 C 5.21875 -2.992188 5.21875 -2.996094 5.222656 -3.003906 C 5.230469 -3.035156 5.238281 -3.082031 5.238281 -3.140625 L 5.238281 -12.421875 C 5.238281 -12.675781 5.332031 -12.894531 5.515625 -13.082031 C 5.699219 -13.265625 5.917969 -13.355469 6.175781 -13.355469 Z M 6.175781 -12.214844 C 6.234375 -12.214844 6.285156 -12.234375 6.320312 -12.273438 C 6.359375 -12.3125 6.378906 -12.359375 6.378906 -12.421875 L 6.378906 -3.140625 C 6.378906 -2.742188 6.261719 -2.421875 6.03125 -2.191406 C 5.796875 -1.957031 5.480469 -1.839844 5.078125 -1.839844 L 4.128906 -1.839844 C 3.726562 -1.839844 3.410156 -1.957031 3.175781 -2.191406 C 2.941406 -2.421875 2.828125 -2.742188 2.828125 -3.140625 L 2.828125 -12.421875 C 2.828125 -12.359375 2.847656 -12.3125 2.882812 -12.273438 C 2.921875 -12.234375 2.972656 -12.214844 3.03125 -12.214844 L 1.277344 -12.214844 C 1.339844 -12.214844 1.386719 -12.234375 1.425781 -12.273438 C 1.464844 -12.3125 1.484375 -12.359375 1.484375 -12.421875 L 1.484375 -2.628906 C 1.484375 -1.9375 1.652344 -1.417969 1.992188 -1.078125 C 2.332031 -0.742188 2.847656 -0.570312 3.542969 -0.570312 L 5.589844 -0.570312 C 6.296875 -0.570312 6.8125 -0.738281 7.148438 -1.078125 C 7.480469 -1.417969 7.648438 -1.933594 7.648438 -2.628906 L 7.648438 -12.421875 C 7.648438 -12.359375 7.667969 -12.3125 7.707031 -12.273438 C 7.746094 -12.234375 7.792969 -12.214844 7.855469 -12.214844 Z M 6.175781 -12.214844 "/></g></g><g style="fill:#b21a22;fill-opacity:1;"><g transform="translate(37.184554, 55.17695)"><path style="stroke:none" d="M 8.808594 -10.15625 L 8.808594 -7.691406 C 8.808594 -7.199219 8.648438 -6.78125 8.324219 -6.4375 C 8.019531 -6.117188 7.640625 -5.914062 7.191406 -5.832031 L 7.085938 -6.394531 L 7.660156 -6.394531 L 7.660156 -6.355469 L 7.085938 -6.355469 L 7.171875 -6.921875 C 7.632812 -6.851562 8.019531 -6.652344 8.328125 -6.316406 C 8.648438 -5.96875 8.808594 -5.550781 8.808594 -5.058594 L 8.808594 -2.628906 C 8.808594 -1.621094 8.527344 -0.835938 7.964844 -0.273438 C 7.402344 0.289062 6.613281 0.570312 5.589844 0.570312 L 1.207031 0.570312 C 0.949219 0.570312 0.742188 0.492188 0.582031 0.332031 C 0.421875 0.171875 0.34375 -0.0390625 0.34375 -0.292969 L 0.34375 -12.496094 C 0.34375 -12.75 0.421875 -12.957031 0.582031 -13.117188 C 0.742188 -13.277344 0.949219 -13.355469 1.207031 -13.355469 L 5.589844 -13.355469 C 6.609375 -13.355469 7.402344 -13.082031 7.964844 -12.527344 C 8.527344 -11.96875 8.808594 -11.179688 8.808594 -10.15625 Z M 7.667969 -10.15625 C 7.667969 -10.863281 7.5 -11.378906 7.160156 -11.714844 C 6.820312 -12.046875 6.296875 -12.214844 5.589844 -12.214844 L 1.207031 -12.214844 C 1.21875 -12.214844 1.234375 -12.21875 1.257812 -12.226562 C 1.308594 -12.242188 1.351562 -12.269531 1.390625 -12.308594 C 1.429688 -12.347656 1.457031 -12.394531 1.472656 -12.441406 C 1.480469 -12.464844 1.484375 -12.480469 1.484375 -12.496094 L 1.484375 -0.292969 C 1.484375 -0.304688 1.480469 -0.324219 1.472656 -0.34375 C 1.457031 -0.394531 1.429688 -0.4375 1.390625 -0.476562 C 1.351562 -0.515625 1.308594 -0.542969 1.257812 -0.558594 C 1.234375 -0.566406 1.21875 -0.570312 1.207031 -0.570312 L 5.589844 -0.570312 C 6.296875 -0.570312 6.820312 -0.742188 7.160156 -1.078125 C 7.496094 -1.417969 7.667969 -1.9375 7.667969 -2.628906 L 7.667969 -5.058594 C 7.667969 -5.253906 7.609375 -5.414062 7.488281 -5.539062 C 7.363281 -5.679688 7.199219 -5.761719 7.003906 -5.792969 L 6.515625 -5.863281 L 6.515625 -6.867188 L 6.984375 -6.953125 C 7.191406 -6.992188 7.359375 -7.082031 7.496094 -7.222656 C 7.609375 -7.34375 7.667969 -7.5 7.667969 -7.691406 Z M 5.347656 -8.292969 L 5.347656 -9.753906 C 5.347656 -9.8125 5.34375 -9.859375 5.332031 -9.894531 C 5.328125 -9.898438 5.328125 -9.902344 5.324219 -9.90625 C 5.328125 -9.902344 5.328125 -9.902344 5.332031 -9.898438 C 5.335938 -9.894531 5.335938 -9.894531 5.339844 -9.894531 C 5.335938 -9.894531 5.332031 -9.894531 5.328125 -9.898438 C 5.292969 -9.910156 5.246094 -9.914062 5.1875 -9.914062 L 3.179688 -9.914062 L 3.179688 -10.484375 L 3.75 -10.484375 L 3.75 -7.582031 L 3.179688 -7.582031 L 3.179688 -8.152344 L 5.1875 -8.152344 C 5.25 -8.152344 5.296875 -8.15625 5.332031 -8.167969 C 5.335938 -8.171875 5.34375 -8.171875 5.34375 -8.171875 C 5.34375 -8.171875 5.339844 -8.171875 5.335938 -8.167969 C 5.332031 -8.164062 5.332031 -8.160156 5.328125 -8.15625 C 5.328125 -8.160156 5.332031 -8.160156 5.332031 -8.164062 C 5.34375 -8.195312 5.347656 -8.238281 5.347656 -8.292969 Z M 6.488281 -8.292969 C 6.488281 -7.894531 6.371094 -7.582031 6.132812 -7.351562 C 5.902344 -7.125 5.585938 -7.007812 5.1875 -7.007812 L 2.609375 -7.007812 L 2.609375 -11.054688 L 5.1875 -11.054688 C 5.589844 -11.054688 5.90625 -10.9375 6.140625 -10.707031 C 6.371094 -10.472656 6.488281 -10.15625 6.488281 -9.753906 Z M 5.347656 -3.03125 L 5.347656 -4.4375 C 5.347656 -4.5 5.34375 -4.546875 5.332031 -4.578125 C 5.328125 -4.582031 5.328125 -4.589844 5.324219 -4.589844 C 5.328125 -4.589844 5.328125 -4.585938 5.332031 -4.582031 C 5.335938 -4.582031 5.335938 -4.578125 5.339844 -4.578125 C 5.335938 -4.578125 5.332031 -4.582031 5.328125 -4.582031 C 5.292969 -4.59375 5.246094 -4.597656 5.1875 -4.597656 L 3.179688 -4.597656 L 3.179688 -5.167969 L 3.75 -5.167969 L 3.75 -2.300781 L 3.179688 -2.300781 L 3.179688 -2.871094 L 5.1875 -2.871094 C 5.246094 -2.871094 5.292969 -2.878906 5.328125 -2.890625 C 5.332031 -2.890625 5.335938 -2.890625 5.339844 -2.894531 C 5.335938 -2.890625 5.335938 -2.890625 5.332031 -2.886719 C 5.328125 -2.886719 5.328125 -2.882812 5.324219 -2.878906 C 5.328125 -2.882812 5.328125 -2.886719 5.332031 -2.894531 C 5.34375 -2.925781 5.347656 -2.972656 5.347656 -3.03125 Z M 6.488281 -3.03125 C 6.488281 -2.632812 6.371094 -2.3125 6.140625 -2.082031 C 5.90625 -1.847656 5.589844 -1.730469 5.1875 -1.730469 L 2.609375 -1.730469 L 2.609375 -5.742188 L 5.1875 -5.742188 C 5.589844 -5.742188 5.90625 -5.625 6.140625 -5.390625 C 6.371094 -5.15625 6.488281 -4.839844 6.488281 -4.4375 Z M 6.488281 -3.03125 "/></g></g><g style="fill:#b21a22;fill-opacity:1;"><g transform="translate(46.33318, 55.17695)"><path style="stroke:none" d="M 8.808594 -10.15625 L 8.808594 -7.691406 C 8.808594 -7.199219 8.648438 -6.78125 8.324219 -6.4375 C 8.019531 -6.117188 7.640625 -5.914062 7.191406 -5.832031 L 7.085938 -6.394531 L 7.660156 -6.394531 L 7.660156 -6.355469 L 7.085938 -6.355469 L 7.171875 -6.921875 C 7.632812 -6.851562 8.019531 -6.652344 8.328125 -6.316406 C 8.648438 -5.96875 8.808594 -5.550781 8.808594 -5.058594 L 8.808594 -2.628906 C 8.808594 -1.621094 8.527344 -0.835938 7.964844 -0.273438 C 7.402344 0.289062 6.613281 0.570312 5.589844 0.570312 L 1.207031 0.570312 C 0.949219 0.570312 0.742188 0.492188 0.582031 0.332031 C 0.421875 0.171875 0.34375 -0.0390625 0.34375 -0.292969 L 0.34375 -12.496094 C 0.34375 -12.75 0.421875 -12.957031 0.582031 -13.117188 C 0.742188 -13.277344 0.949219 -13.355469 1.207031 -13.355469 L 5.589844 -13.355469 C 6.609375 -13.355469 7.402344 -13.082031 7.964844 -12.527344 C 8.527344 -11.96875 8.808594 -11.179688 8.808594 -10.15625 Z M 7.667969 -10.15625 C 7.667969 -10.863281 7.5 -11.378906 7.160156 -11.714844 C 6.820312 -12.046875 6.296875 -12.214844 5.589844 -12.214844 L 1.207031 -12.214844 C 1.21875 -12.214844 1.234375 -12.21875 1.257812 -12.226562 C 1.308594 -12.242188 1.351562 -12.269531 1.390625 -12.308594 C 1.429688 -12.347656 1.457031 -12.394531 1.472656 -12.441406 C 1.480469 -12.464844 1.484375 -12.480469 1.484375 -12.496094 L 1.484375 -0.292969 C 1.484375 -0.304688 1.480469 -0.324219 1.472656 -0.34375 C 1.457031 -0.394531 1.429688 -0.4375 1.390625 -0.476562 C 1.351562 -0.515625 1.308594 -0.542969 1.257812 -0.558594 C 1.234375 -0.566406 1.21875 -0.570312 1.207031 -0.570312 L 5.589844 -0.570312 C 6.296875 -0.570312 6.820312 -0.742188 7.160156 -1.078125 C 7.496094 -1.417969 7.667969 -1.9375 7.667969 -2.628906 L 7.667969 -5.058594 C 7.667969 -5.253906 7.609375 -5.414062 7.488281 -5.539062 C 7.363281 -5.679688 7.199219 -5.761719 7.003906 -5.792969 L 6.515625 -5.863281 L 6.515625 -6.867188 L 6.984375 -6.953125 C 7.191406 -6.992188 7.359375 -7.082031 7.496094 -7.222656 C 7.609375 -7.34375 7.667969 -7.5 7.667969 -7.691406 Z M 5.347656 -8.292969 L 5.347656 -9.753906 C 5.347656 -9.8125 5.34375 -9.859375 5.332031 -9.894531 C 5.328125 -9.898438 5.328125 -9.902344 5.324219 -9.90625 C 5.328125 -9.902344 5.328125 -9.902344 5.332031 -9.898438 C 5.335938 -9.894531 5.335938 -9.894531 5.339844 -9.894531 C 5.335938 -9.894531 5.332031 -9.894531 5.328125 -9.898438 C 5.292969 -9.910156 5.246094 -9.914062 5.1875 -9.914062 L 3.179688 -9.914062 L 3.179688 -10.484375 L 3.75 -10.484375 L 3.75 -7.582031 L 3.179688 -7.582031 L 3.179688 -8.152344 L 5.1875 -8.152344 C 5.25 -8.152344 5.296875 -8.15625 5.332031 -8.167969 C 5.335938 -8.171875 5.34375 -8.171875 5.34375 -8.171875 C 5.34375 -8.171875 5.339844 -8.171875 5.335938 -8.167969 C 5.332031 -8.164062 5.332031 -8.160156 5.328125 -8.15625 C 5.328125 -8.160156 5.332031 -8.160156 5.332031 -8.164062 C 5.34375 -8.195312 5.347656 -8.238281 5.347656 -8.292969 Z M 6.488281 -8.292969 C 6.488281 -7.894531 6.371094 -7.582031 6.132812 -7.351562 C 5.902344 -7.125 5.585938 -7.007812 5.1875 -7.007812 L 2.609375 -7.007812 L 2.609375 -11.054688 L 5.1875 -11.054688 C 5.589844 -11.054688 5.90625 -10.9375 6.140625 -10.707031 C 6.371094 -10.472656 6.488281 -10.15625 6.488281 -9.753906 Z M 5.347656 -3.03125 L 5.347656 -4.4375 C 5.347656 -4.5 5.34375 -4.546875 5.332031 -4.578125 C 5.328125 -4.582031 5.328125 -4.589844 5.324219 -4.589844 C 5.328125 -4.589844 5.328125 -4.585938 5.332031 -4.582031 C 5.335938 -4.582031 5.335938 -4.578125 5.339844 -4.578125 C 5.335938 -4.578125 5.332031 -4.582031 5.328125 -4.582031 C 5.292969 -4.59375 5.246094 -4.597656 5.1875 -4.597656 L 3.179688 -4.597656 L 3.179688 -5.167969 L 3.75 -5.167969 L 3.75 -2.300781 L 3.179688 -2.300781 L 3.179688 -2.871094 L 5.1875 -2.871094 C 5.246094 -2.871094 5.292969 -2.878906 5.328125 -2.890625 C 5.332031 -2.890625 5.335938 -2.890625 5.339844 -2.894531 C 5.335938 -2.890625 5.335938 -2.890625 5.332031 -2.886719 C 5.328125 -2.886719 5.328125 -2.882812 5.324219 -2.878906 C 5.328125 -2.882812 5.328125 -2.886719 5.332031 -2.894531 C 5.34375 -2.925781 5.347656 -2.972656 5.347656 -3.03125 Z M 6.488281 -3.03125 C 6.488281 -2.632812 6.371094 -2.3125 6.140625 -2.082031 C 5.90625 -1.847656 5.589844 -1.730469 5.1875 -1.730469 L 2.609375 -1.730469 L 2.609375 -5.742188 L 5.1875 -5.742188 C 5.589844 -5.742188 5.90625 -5.625 6.140625 -5.390625 C 6.371094 -5.15625 6.488281 -4.839844 6.488281 -4.4375 Z M 6.488281 -3.03125 "/></g></g><g style="fill:#b21a22;fill-opacity:1;"><g transform="translate(55.481806, 55.17695)"><path style="stroke:none" d="M 8.773438 -12.496094 L 8.773438 -10.667969 C 8.773438 -10.414062 8.695312 -10.207031 8.542969 -10.042969 C 8.382812 -9.871094 8.171875 -9.785156 7.910156 -9.785156 L 3.398438 -9.785156 L 3.398438 -10.355469 L 3.96875 -10.355469 L 3.96875 -7.542969 L 3.398438 -7.542969 L 3.398438 -8.113281 L 6.832031 -8.113281 C 7.09375 -8.113281 7.304688 -8.027344 7.464844 -7.859375 C 7.617188 -7.695312 7.695312 -7.488281 7.695312 -7.234375 L 7.695312 -5.425781 C 7.695312 -5.171875 7.617188 -4.960938 7.464844 -4.800781 C 7.304688 -4.628906 7.09375 -4.542969 6.832031 -4.542969 L 3.398438 -4.542969 L 3.398438 -5.113281 L 3.96875 -5.113281 L 3.96875 -2.410156 L 3.398438 -2.410156 L 3.398438 -2.980469 L 7.910156 -2.980469 C 8.164062 -2.980469 8.371094 -2.902344 8.53125 -2.742188 C 8.691406 -2.582031 8.773438 -2.375 8.773438 -2.117188 L 8.773438 -0.292969 C 8.773438 -0.0390625 8.691406 0.171875 8.53125 0.332031 C 8.371094 0.492188 8.164062 0.570312 7.910156 0.570312 L 1.1875 0.570312 C 0.929688 0.570312 0.722656 0.488281 0.566406 0.316406 C 0.417969 0.160156 0.34375 -0.0429688 0.34375 -0.292969 L 0.34375 -12.496094 C 0.34375 -12.742188 0.417969 -12.945312 0.566406 -13.105469 C 0.722656 -13.273438 0.929688 -13.355469 1.1875 -13.355469 L 7.910156 -13.355469 C 8.164062 -13.355469 8.371094 -13.277344 8.53125 -13.117188 C 8.691406 -12.957031 8.773438 -12.75 8.773438 -12.496094 Z M 7.628906 -12.496094 C 7.628906 -12.480469 7.632812 -12.464844 7.640625 -12.441406 C 7.65625 -12.394531 7.6875 -12.347656 7.726562 -12.308594 C 7.765625 -12.269531 7.808594 -12.242188 7.855469 -12.226562 C 7.878906 -12.21875 7.894531 -12.214844 7.910156 -12.214844 L 1.1875 -12.214844 C 1.261719 -12.214844 1.332031 -12.25 1.398438 -12.324219 C 1.433594 -12.363281 1.460938 -12.40625 1.476562 -12.453125 C 1.480469 -12.472656 1.484375 -12.484375 1.484375 -12.496094 L 1.484375 -0.292969 C 1.484375 -0.300781 1.480469 -0.316406 1.476562 -0.335938 C 1.460938 -0.382812 1.433594 -0.425781 1.398438 -0.464844 C 1.332031 -0.535156 1.261719 -0.570312 1.1875 -0.570312 L 7.910156 -0.570312 C 7.894531 -0.570312 7.878906 -0.566406 7.855469 -0.558594 C 7.808594 -0.542969 7.765625 -0.515625 7.726562 -0.476562 C 7.6875 -0.4375 7.65625 -0.394531 7.640625 -0.34375 C 7.632812 -0.324219 7.628906 -0.304688 7.628906 -0.292969 L 7.628906 -2.117188 C 7.628906 -2.105469 7.632812 -2.089844 7.640625 -2.066406 C 7.65625 -2.015625 7.6875 -1.972656 7.726562 -1.933594 C 7.765625 -1.894531 7.808594 -1.867188 7.855469 -1.851562 C 7.878906 -1.84375 7.894531 -1.839844 7.910156 -1.839844 L 2.828125 -1.839844 L 2.828125 -5.683594 L 6.832031 -5.683594 C 6.816406 -5.683594 6.792969 -5.679688 6.769531 -5.671875 C 6.71875 -5.65625 6.675781 -5.625 6.636719 -5.582031 C 6.601562 -5.546875 6.574219 -5.503906 6.5625 -5.460938 C 6.554688 -5.445312 6.554688 -5.433594 6.554688 -5.425781 L 6.554688 -7.234375 C 6.554688 -7.226562 6.554688 -7.214844 6.5625 -7.199219 C 6.574219 -7.152344 6.601562 -7.113281 6.636719 -7.074219 C 6.675781 -7.035156 6.71875 -7.003906 6.769531 -6.988281 C 6.792969 -6.976562 6.816406 -6.972656 6.832031 -6.972656 L 2.828125 -6.972656 L 2.828125 -10.929688 L 7.910156 -10.929688 C 7.894531 -10.929688 7.871094 -10.921875 7.847656 -10.914062 C 7.796875 -10.898438 7.75 -10.867188 7.710938 -10.824219 C 7.675781 -10.789062 7.652344 -10.746094 7.640625 -10.703125 C 7.632812 -10.6875 7.628906 -10.675781 7.628906 -10.667969 Z M 7.628906 -12.496094 "/></g></g><g style="fill:#b21a22;fill-opacity:1;"><g transform="translate(64.593905, 55.17695)"><path style="stroke:none" d="M 0.34375 -0.292969 L 0.34375 -12.496094 C 0.34375 -12.75 0.421875 -12.957031 0.582031 -13.117188 C 0.742188 -13.277344 0.949219 -13.355469 1.207031 -13.355469 L 5.589844 -13.355469 C 6.613281 -13.355469 7.402344 -13.074219 7.960938 -12.511719 C 8.515625 -11.949219 8.789062 -11.160156 8.789062 -10.136719 L 8.789062 -2.628906 C 8.789062 -1.621094 8.515625 -0.835938 7.960938 -0.273438 C 7.402344 0.289062 6.613281 0.570312 5.589844 0.570312 L 1.207031 0.570312 C 0.949219 0.570312 0.742188 0.492188 0.582031 0.332031 C 0.421875 0.171875 0.34375 -0.0390625 0.34375 -0.292969 Z M 1.484375 -0.292969 C 1.484375 -0.304688 1.480469 -0.324219 1.472656 -0.34375 C 1.457031 -0.394531 1.429688 -0.4375 1.390625 -0.476562 C 1.351562 -0.515625 1.308594 -0.542969 1.257812 -0.558594 C 1.234375 -0.566406 1.21875 -0.570312 1.207031 -0.570312 L 5.589844 -0.570312 C 6.296875 -0.570312 6.8125 -0.738281 7.148438 -1.078125 C 7.480469 -1.417969 7.648438 -1.933594 7.648438 -2.628906 L 7.648438 -10.136719 C 7.648438 -10.847656 7.480469 -11.371094 7.148438 -11.710938 C 6.8125 -12.046875 6.296875 -12.214844 5.589844 -12.214844 L 1.207031 -12.214844 C 1.21875 -12.214844 1.234375 -12.21875 1.257812 -12.226562 C 1.308594 -12.242188 1.351562 -12.269531 1.390625 -12.308594 C 1.429688 -12.347656 1.457031 -12.394531 1.472656 -12.441406 C 1.480469 -12.464844 1.484375 -12.480469 1.484375 -12.496094 Z M 3.398438 -2.980469 L 5.078125 -2.980469 C 5.136719 -2.980469 5.183594 -2.988281 5.21875 -3 C 5.222656 -3 5.226562 -3.003906 5.230469 -3.003906 C 5.226562 -3.003906 5.226562 -3 5.222656 -2.996094 C 5.21875 -2.996094 5.21875 -2.992188 5.214844 -2.992188 C 5.21875 -2.992188 5.21875 -2.996094 5.222656 -3.003906 C 5.230469 -3.035156 5.238281 -3.082031 5.238281 -3.140625 L 5.238281 -9.625 C 5.238281 -9.691406 5.230469 -9.742188 5.21875 -9.777344 C 5.21875 -9.785156 5.214844 -9.789062 5.214844 -9.792969 C 5.214844 -9.792969 5.214844 -9.792969 5.21875 -9.789062 L 5.214844 -9.789062 C 5.183594 -9.800781 5.136719 -9.804688 5.078125 -9.804688 L 3.398438 -9.804688 L 3.398438 -10.375 L 3.96875 -10.375 L 3.96875 -2.410156 L 3.398438 -2.410156 Z M 2.828125 -1.839844 L 2.828125 -10.945312 L 5.078125 -10.945312 C 5.480469 -10.945312 5.800781 -10.828125 6.035156 -10.585938 C 6.265625 -10.351562 6.378906 -10.03125 6.378906 -9.625 L 6.378906 -3.140625 C 6.378906 -2.742188 6.261719 -2.421875 6.03125 -2.191406 C 5.796875 -1.957031 5.480469 -1.839844 5.078125 -1.839844 Z M 2.828125 -1.839844 "/></g></g><g style="fill:#b21a22;fill-opacity:1;"><g transform="translate(73.724267, 55.17695)"><path style="stroke:none" d="M -0.570312 2.449219 L -0.570312 0.765625 C -0.570312 0.488281 -0.484375 0.261719 -0.3125 0.0898438 C -0.140625 -0.0820312 0.0859375 -0.167969 0.367188 -0.167969 L 11.378906 -0.167969 C 11.660156 -0.167969 11.886719 -0.0820312 12.058594 0.0898438 C 12.230469 0.261719 12.316406 0.488281 12.316406 0.765625 L 12.316406 2.449219 C 12.316406 2.726562 12.230469 2.953125 12.058594 3.125 C 11.886719 3.296875 11.660156 3.382812 11.378906 3.382812 L 0.367188 3.382812 C 0.0859375 3.382812 -0.140625 3.296875 -0.3125 3.125 C -0.484375 2.953125 -0.570312 2.726562 -0.570312 2.449219 Z M 0.570312 2.449219 C 0.570312 2.449219 0.570312 2.453125 0.570312 2.453125 C 0.570312 2.445312 0.566406 2.4375 0.5625 2.425781 C 0.550781 2.386719 0.527344 2.351562 0.496094 2.316406 C 0.460938 2.285156 0.425781 2.261719 0.386719 2.25 C 0.375 2.246094 0.367188 2.242188 0.359375 2.242188 C 0.359375 2.242188 0.363281 2.242188 0.367188 2.242188 L 11.378906 2.242188 C 11.382812 2.242188 11.382812 2.242188 11.386719 2.242188 C 11.378906 2.242188 11.367188 2.246094 11.359375 2.25 C 11.320312 2.261719 11.285156 2.285156 11.25 2.316406 C 11.21875 2.351562 11.195312 2.386719 11.179688 2.425781 C 11.175781 2.4375 11.175781 2.445312 11.175781 2.453125 C 11.175781 2.453125 11.175781 2.449219 11.175781 2.449219 L 11.175781 0.765625 C 11.175781 0.765625 11.175781 0.761719 11.175781 0.761719 C 11.175781 0.769531 11.175781 0.777344 11.179688 0.789062 C 11.195312 0.828125 11.21875 0.863281 11.25 0.898438 C 11.285156 0.929688 11.320312 0.953125 11.359375 0.964844 C 11.367188 0.96875 11.378906 0.972656 11.386719 0.972656 C 11.382812 0.972656 11.382812 0.972656 11.378906 0.972656 L 0.367188 0.972656 C 0.363281 0.972656 0.359375 0.972656 0.359375 0.972656 C 0.367188 0.972656 0.375 0.96875 0.386719 0.964844 C 0.425781 0.953125 0.460938 0.929688 0.496094 0.898438 C 0.527344 0.863281 0.550781 0.828125 0.5625 0.789062 C 0.566406 0.777344 0.570312 0.769531 0.570312 0.761719 C 0.570312 0.761719 0.570312 0.765625 0.570312 0.765625 Z M 0.570312 2.449219 "/></g></g><g style="fill:#b21a22;fill-opacity:1;"><g transform="translate(33.848986, 80.643552)"><path style="stroke:none" d="M 8.773438 -12.496094 L 8.773438 -10.667969 C 8.773438 -10.414062 8.695312 -10.207031 8.542969 -10.042969 C 8.382812 -9.871094 8.171875 -9.785156 7.910156 -9.785156 L 3.398438 -9.785156 L 3.398438 -10.355469 L 3.96875 -10.355469 L 3.96875 -7.542969 L 3.398438 -7.542969 L 3.398438 -8.113281 L 6.832031 -8.113281 C 7.09375 -8.113281 7.304688 -8.027344 7.464844 -7.859375 C 7.617188 -7.695312 7.695312 -7.488281 7.695312 -7.234375 L 7.695312 -5.425781 C 7.695312 -5.171875 7.617188 -4.960938 7.464844 -4.800781 C 7.304688 -4.628906 7.09375 -4.542969 6.832031 -4.542969 L 3.398438 -4.542969 L 3.398438 -5.113281 L 3.96875 -5.113281 L 3.96875 -2.410156 L 3.398438 -2.410156 L 3.398438 -2.980469 L 7.910156 -2.980469 C 8.164062 -2.980469 8.371094 -2.902344 8.53125 -2.742188 C 8.691406 -2.582031 8.773438 -2.375 8.773438 -2.117188 L 8.773438 -0.292969 C 8.773438 -0.0390625 8.691406 0.171875 8.53125 0.332031 C 8.371094 0.492188 8.164062 0.570312 7.910156 0.570312 L 1.1875 0.570312 C 0.929688 0.570312 0.722656 0.488281 0.566406 0.316406 C 0.417969 0.160156 0.34375 -0.0429688 0.34375 -0.292969 L 0.34375 -12.496094 C 0.34375 -12.742188 0.417969 -12.945312 0.566406 -13.105469 C 0.722656 -13.273438 0.929688 -13.355469 1.1875 -13.355469 L 7.910156 -13.355469 C 8.164062 -13.355469 8.371094 -13.277344 8.53125 -13.117188 C 8.691406 -12.957031 8.773438 -12.75 8.773438 -12.496094 Z M 7.628906 -12.496094 C 7.628906 -12.480469 7.632812 -12.464844 7.640625 -12.441406 C 7.65625 -12.394531 7.6875 -12.347656 7.726562 -12.308594 C 7.765625 -12.269531 7.808594 -12.242188 7.855469 -12.226562 C 7.878906 -12.21875 7.894531 -12.214844 7.910156 -12.214844 L 1.1875 -12.214844 C 1.261719 -12.214844 1.332031 -12.25 1.398438 -12.324219 C 1.433594 -12.363281 1.460938 -12.40625 1.476562 -12.453125 C 1.480469 -12.472656 1.484375 -12.484375 1.484375 -12.496094 L 1.484375 -0.292969 C 1.484375 -0.300781 1.480469 -0.316406 1.476562 -0.335938 C 1.460938 -0.382812 1.433594 -0.425781 1.398438 -0.464844 C 1.332031 -0.535156 1.261719 -0.570312 1.1875 -0.570312 L 7.910156 -0.570312 C 7.894531 -0.570312 7.878906 -0.566406 7.855469 -0.558594 C 7.808594 -0.542969 7.765625 -0.515625 7.726562 -0.476562 C 7.6875 -0.4375 7.65625 -0.394531 7.640625 -0.34375 C 7.632812 -0.324219 7.628906 -0.304688 7.628906 -0.292969 L 7.628906 -2.117188 C 7.628906 -2.105469 7.632812 -2.089844 7.640625 -2.066406 C 7.65625 -2.015625 7.6875 -1.972656 7.726562 -1.933594 C 7.765625 -1.894531 7.808594 -1.867188 7.855469 -1.851562 C 7.878906 -1.84375 7.894531 -1.839844 7.910156 -1.839844 L 2.828125 -1.839844 L 2.828125 -5.683594 L 6.832031 -5.683594 C 6.816406 -5.683594 6.792969 -5.679688 6.769531 -5.671875 C 6.71875 -5.65625 6.675781 -5.625 6.636719 -5.582031 C 6.601562 -5.546875 6.574219 -5.503906 6.5625 -5.460938 C 6.554688 -5.445312 6.554688 -5.433594 6.554688 -5.425781 L 6.554688 -7.234375 C 6.554688 -7.226562 6.554688 -7.214844 6.5625 -7.199219 C 6.574219 -7.152344 6.601562 -7.113281 6.636719 -7.074219 C 6.675781 -7.035156 6.71875 -7.003906 6.769531 -6.988281 C 6.792969 -6.976562 6.816406 -6.972656 6.832031 -6.972656 L 2.828125 -6.972656 L 2.828125 -10.929688 L 7.910156 -10.929688 C 7.894531 -10.929688 7.871094 -10.921875 7.847656 -10.914062 C 7.796875 -10.898438 7.75 -10.867188 7.710938 -10.824219 C 7.675781 -10.789062 7.652344 -10.746094 7.640625 -10.703125 C 7.632812 -10.6875 7.628906 -10.675781 7.628906 -10.667969 Z M 7.628906 -12.496094 "/></g></g><g style="fill:#b21a22;fill-opacity:1;"><g transform="translate(42.961085, 80.643552)"><path style="stroke:none" d="M 6.703125 -13.355469 L 8.421875 -13.355469 C 8.675781 -13.355469 8.882812 -13.277344 9.042969 -13.117188 C 9.203125 -12.957031 9.285156 -12.75 9.285156 -12.496094 L 9.285156 -0.292969 C 9.285156 -0.0390625 9.203125 0.171875 9.042969 0.332031 C 8.882812 0.492188 8.675781 0.570312 8.421875 0.570312 L 6.976562 0.570312 C 6.78125 0.570312 6.605469 0.515625 6.453125 0.402344 C 6.316406 0.304688 6.210938 0.171875 6.128906 0 L 6.648438 -0.238281 L 6.136719 0.015625 L 2.703125 -6.964844 L 3.214844 -7.214844 L 3.785156 -7.214844 L 3.785156 -0.292969 C 3.785156 -0.0390625 3.707031 0.171875 3.546875 0.332031 C 3.386719 0.492188 3.175781 0.570312 2.921875 0.570312 L 1.207031 0.570312 C 0.949219 0.570312 0.742188 0.492188 0.582031 0.332031 C 0.421875 0.171875 0.34375 -0.0390625 0.34375 -0.292969 L 0.34375 -12.496094 C 0.34375 -12.75 0.421875 -12.957031 0.582031 -13.117188 C 0.742188 -13.277344 0.949219 -13.355469 1.207031 -13.355469 L 2.648438 -13.355469 C 2.84375 -13.355469 3.019531 -13.300781 3.175781 -13.191406 C 3.308594 -13.09375 3.417969 -12.957031 3.496094 -12.789062 L 2.976562 -12.550781 L 3.488281 -12.800781 L 6.921875 -5.824219 L 6.410156 -5.570312 L 5.839844 -5.570312 L 5.839844 -12.496094 C 5.839844 -12.75 5.921875 -12.957031 6.082031 -13.117188 C 6.242188 -13.277344 6.449219 -13.355469 6.703125 -13.355469 Z M 6.703125 -12.214844 C 6.71875 -12.214844 6.734375 -12.21875 6.757812 -12.226562 C 6.804688 -12.242188 6.847656 -12.269531 6.886719 -12.308594 C 6.925781 -12.347656 6.957031 -12.394531 6.972656 -12.441406 C 6.980469 -12.464844 6.980469 -12.480469 6.980469 -12.496094 L 6.980469 -5.570312 L 5.898438 -5.320312 L 2.460938 -12.304688 L 2.460938 -12.308594 C 2.464844 -12.296875 2.480469 -12.285156 2.507812 -12.265625 C 2.550781 -12.230469 2.597656 -12.214844 2.648438 -12.214844 L 1.207031 -12.214844 C 1.21875 -12.214844 1.234375 -12.21875 1.257812 -12.226562 C 1.308594 -12.242188 1.351562 -12.269531 1.390625 -12.308594 C 1.429688 -12.347656 1.457031 -12.394531 1.472656 -12.441406 C 1.480469 -12.464844 1.484375 -12.480469 1.484375 -12.496094 L 1.484375 -0.292969 C 1.484375 -0.304688 1.480469 -0.324219 1.472656 -0.34375 C 1.457031 -0.394531 1.429688 -0.4375 1.390625 -0.476562 C 1.351562 -0.515625 1.308594 -0.542969 1.257812 -0.558594 C 1.234375 -0.566406 1.21875 -0.570312 1.207031 -0.570312 L 2.921875 -0.570312 C 2.910156 -0.570312 2.890625 -0.566406 2.871094 -0.558594 C 2.820312 -0.542969 2.777344 -0.515625 2.738281 -0.476562 C 2.699219 -0.4375 2.671875 -0.394531 2.65625 -0.34375 C 2.648438 -0.324219 2.644531 -0.304688 2.644531 -0.292969 L 2.644531 -7.214844 L 3.726562 -7.46875 L 7.164062 -0.484375 L 7.167969 -0.476562 C 7.160156 -0.488281 7.144531 -0.503906 7.121094 -0.523438 C 7.074219 -0.554688 7.027344 -0.570312 6.976562 -0.570312 L 8.421875 -0.570312 C 8.40625 -0.570312 8.390625 -0.566406 8.367188 -0.558594 C 8.320312 -0.542969 8.277344 -0.515625 8.238281 -0.476562 C 8.195312 -0.4375 8.167969 -0.394531 8.152344 -0.34375 C 8.144531 -0.324219 8.140625 -0.304688 8.140625 -0.292969 L 8.140625 -12.496094 C 8.140625 -12.480469 8.144531 -12.464844 8.152344 -12.441406 C 8.167969 -12.394531 8.195312 -12.347656 8.238281 -12.308594 C 8.277344 -12.269531 8.320312 -12.242188 8.367188 -12.226562 C 8.390625 -12.21875 8.40625 -12.214844 8.421875 -12.214844 Z M 6.703125 -12.214844 "/></g></g><g style="fill:#b21a22;fill-opacity:1;"><g transform="translate(52.58449, 80.643552)"><path style="stroke:none" d="M 6.996094 -13.355469 L 8.660156 -13.355469 C 8.980469 -13.355469 9.222656 -13.253906 9.390625 -13.046875 C 9.566406 -12.835938 9.617188 -12.574219 9.542969 -12.257812 L 6.636719 -0.195312 C 6.585938 0.0351562 6.476562 0.222656 6.308594 0.359375 C 6.136719 0.5 5.925781 0.570312 5.679688 0.570312 L 3.855469 0.570312 C 3.613281 0.570312 3.410156 0.5 3.238281 0.359375 C 3.078125 0.226562 2.964844 0.0507812 2.902344 -0.175781 L 2.898438 -0.1875 L 0.0117188 -12.25 C -0.0625 -12.570312 -0.0117188 -12.835938 0.160156 -13.046875 C 0.328125 -13.253906 0.574219 -13.355469 0.894531 -13.355469 L 2.558594 -13.355469 C 2.804688 -13.355469 3.011719 -13.285156 3.183594 -13.144531 C 3.351562 -13.007812 3.464844 -12.820312 3.515625 -12.582031 L 5.324219 -4.324219 L 4.765625 -4.203125 L 4.210938 -4.324219 L 6.039062 -12.597656 L 6.042969 -12.609375 C 6.105469 -12.835938 6.21875 -13.015625 6.378906 -13.144531 C 6.550781 -13.285156 6.757812 -13.355469 6.996094 -13.355469 Z M 6.996094 -12.214844 C 7.027344 -12.214844 7.0625 -12.230469 7.101562 -12.261719 C 7.121094 -12.277344 7.132812 -12.292969 7.144531 -12.3125 C 7.144531 -12.3125 7.148438 -12.316406 7.148438 -12.316406 C 7.148438 -12.3125 7.144531 -12.308594 7.144531 -12.304688 L 6.59375 -12.457031 L 7.152344 -12.335938 L 5.324219 -4.078125 L 4.210938 -4.078125 L 2.402344 -12.332031 C 2.402344 -12.335938 2.402344 -12.339844 2.402344 -12.339844 C 2.402344 -12.335938 2.40625 -12.328125 2.40625 -12.324219 C 2.421875 -12.300781 2.4375 -12.28125 2.460938 -12.261719 C 2.5 -12.230469 2.53125 -12.214844 2.558594 -12.214844 L 0.894531 -12.214844 C 0.886719 -12.214844 0.882812 -12.214844 0.878906 -12.214844 C 0.882812 -12.214844 0.890625 -12.21875 0.902344 -12.222656 C 0.957031 -12.238281 1.003906 -12.273438 1.042969 -12.324219 C 1.085938 -12.375 1.113281 -12.433594 1.121094 -12.492188 C 1.121094 -12.503906 1.121094 -12.515625 1.121094 -12.523438 C 1.121094 -12.523438 1.121094 -12.519531 1.121094 -12.519531 L 4.007812 -0.460938 L 3.453125 -0.328125 L 4.003906 -0.480469 C 4.003906 -0.476562 4.003906 -0.472656 4.007812 -0.46875 C 4.003906 -0.472656 4.003906 -0.472656 4.003906 -0.476562 C 3.992188 -0.492188 3.980469 -0.507812 3.960938 -0.523438 C 3.921875 -0.554688 3.886719 -0.570312 3.855469 -0.570312 L 5.679688 -0.570312 C 5.65625 -0.570312 5.621094 -0.554688 5.585938 -0.523438 C 5.5625 -0.503906 5.542969 -0.484375 5.53125 -0.460938 C 5.527344 -0.457031 5.527344 -0.453125 5.523438 -0.449219 C 5.523438 -0.449219 5.527344 -0.453125 5.527344 -0.460938 L 8.429688 -12.511719 C 8.433594 -12.519531 8.433594 -12.523438 8.433594 -12.523438 C 8.433594 -12.515625 8.433594 -12.503906 8.433594 -12.492188 C 8.441406 -12.433594 8.464844 -12.375 8.507812 -12.324219 C 8.550781 -12.273438 8.597656 -12.238281 8.652344 -12.222656 C 8.660156 -12.21875 8.667969 -12.214844 8.675781 -12.214844 C 8.671875 -12.214844 8.667969 -12.214844 8.660156 -12.214844 Z M 6.996094 -12.214844 "/></g></g><g style="fill:#060705;fill-opacity:1;"><g transform="translate(22.446894, 29.710349)"><path style="stroke:none" d="M 8.21875 -10.15625 L 8.21875 -6.484375 C 8.21875 -5.421875 7.878906 -4.675781 7.203125 -4.25 L 8.140625 -0.328125 C 8.203125 -0.109375 8.117188 0 7.890625 0 L 6.09375 0 C 5.925781 0 5.828125 -0.0820312 5.796875 -0.25 L 4.90625 -3.859375 L 3.28125 -3.859375 L 3.28125 -0.296875 C 3.28125 -0.0976562 3.1875 0 3 0 L 1.203125 0 C 1.003906 0 0.90625 -0.0976562 0.90625 -0.296875 L 0.90625 -12.5 C 0.90625 -12.6875 1.003906 -12.78125 1.203125 -12.78125 L 5.59375 -12.78125 C 6.457031 -12.78125 7.109375 -12.554688 7.546875 -12.109375 C 7.992188 -11.671875 8.21875 -11.019531 8.21875 -10.15625 Z M 3.28125 -6.203125 L 5.109375 -6.203125 C 5.597656 -6.203125 5.84375 -6.445312 5.84375 -6.9375 L 5.84375 -9.703125 C 5.84375 -10.191406 5.597656 -10.4375 5.109375 -10.4375 L 3.28125 -10.4375 Z M 3.28125 -6.203125 "/></g></g><g style="fill:#060705;fill-opacity:1;"><g transform="translate(31.577257, 29.710349)"><path style="stroke:none" d="M 3.546875 -12.78125 L 5.59375 -12.78125 C 6.457031 -12.78125 7.109375 -12.554688 7.546875 -12.109375 C 7.992188 -11.671875 8.21875 -11.019531 8.21875 -10.15625 L 8.21875 -8.953125 C 8.21875 -8.753906 8.117188 -8.65625 7.921875 -8.65625 L 6.078125 -8.65625 C 5.890625 -8.65625 5.796875 -8.753906 5.796875 -8.953125 L 5.796875 -9.71875 C 5.796875 -10.207031 5.550781 -10.453125 5.0625 -10.453125 L 4.0625 -10.453125 C 3.570312 -10.453125 3.328125 -10.207031 3.328125 -9.71875 L 3.328125 -8.171875 L 7.75 -6.734375 C 8.0625 -6.628906 8.21875 -6.40625 8.21875 -6.0625 L 8.21875 -2.625 C 8.21875 -1.78125 7.992188 -1.128906 7.546875 -0.671875 C 7.109375 -0.222656 6.457031 0 5.59375 0 L 3.546875 0 C 2.691406 0 2.035156 -0.222656 1.578125 -0.671875 C 1.128906 -1.128906 0.90625 -1.78125 0.90625 -2.625 L 0.90625 -3.8125 C 0.90625 -4.007812 1.003906 -4.109375 1.203125 -4.109375 L 3.046875 -4.109375 C 3.242188 -4.109375 3.34375 -4.007812 3.34375 -3.8125 L 3.34375 -3.046875 C 3.34375 -2.554688 3.585938 -2.3125 4.078125 -2.3125 L 5.0625 -2.3125 C 5.550781 -2.3125 5.796875 -2.554688 5.796875 -3.046875 L 5.796875 -4.890625 L 1.40625 -6.3125 C 1.070312 -6.425781 0.90625 -6.65625 0.90625 -7 L 0.90625 -10.15625 C 0.90625 -11.019531 1.128906 -11.671875 1.578125 -12.109375 C 2.035156 -12.554688 2.691406 -12.78125 3.546875 -12.78125 Z M 3.546875 -12.78125 "/></g></g><g style="fill:#060705;fill-opacity:1;"><g transform="translate(40.707619, 29.710349)"><path style="stroke:none" d="M 0.90625 -0.296875 L 0.90625 -12.5 C 0.90625 -12.6875 1.003906 -12.78125 1.203125 -12.78125 L 5.59375 -12.78125 C 6.457031 -12.78125 7.109375 -12.554688 7.546875 -12.109375 C 7.992188 -11.671875 8.21875 -11.019531 8.21875 -10.15625 L 8.21875 -6.578125 C 8.21875 -5.722656 7.992188 -5.070312 7.546875 -4.625 C 7.109375 -4.1875 6.457031 -3.960938 5.59375 -3.953125 L 3.28125 -3.921875 L 3.28125 -0.28125 C 3.28125 -0.0820312 3.1875 0.015625 3 0.015625 L 1.203125 0 C 1.003906 0 0.90625 -0.0976562 0.90625 -0.296875 Z M 3.28125 -6.28125 L 5.109375 -6.296875 C 5.597656 -6.296875 5.84375 -6.539062 5.84375 -7.03125 L 5.84375 -9.703125 C 5.84375 -10.191406 5.597656 -10.4375 5.109375 -10.4375 L 3.28125 -10.40625 Z M 3.28125 -6.28125 "/></g></g><g style="fill:#060705;fill-opacity:1;"><g transform="translate(49.837982, 29.710349)"><path style="stroke:none" d="M 8.203125 -12.5 L 8.203125 -10.671875 C 8.203125 -10.460938 8.101562 -10.359375 7.90625 -10.359375 L 3.390625 -10.359375 L 3.390625 -7.546875 L 6.828125 -7.546875 C 7.023438 -7.546875 7.125 -7.441406 7.125 -7.234375 L 7.125 -5.421875 C 7.125 -5.210938 7.023438 -5.109375 6.828125 -5.109375 L 3.390625 -5.109375 L 3.390625 -2.40625 L 7.90625 -2.40625 C 8.101562 -2.40625 8.203125 -2.3125 8.203125 -2.125 L 8.203125 -0.296875 C 8.203125 -0.0976562 8.101562 0 7.90625 0 L 1.1875 0 C 1 0 0.90625 -0.0976562 0.90625 -0.296875 L 0.90625 -12.5 C 0.90625 -12.6875 1 -12.78125 1.1875 -12.78125 L 7.90625 -12.78125 C 8.101562 -12.78125 8.203125 -12.6875 8.203125 -12.5 Z M 8.203125 -12.5 "/></g></g><g style="fill:#060705;fill-opacity:1;"><g transform="translate(58.95008, 29.710349)"><path style="stroke:none" d="M 8.234375 -10.15625 L 8.234375 -8.1875 C 8.234375 -7.988281 8.140625 -7.890625 7.953125 -7.890625 L 6.234375 -7.890625 C 6.035156 -7.890625 5.9375 -7.988281 5.9375 -8.1875 L 5.9375 -9.6875 C 5.9375 -10.164062 5.691406 -10.40625 5.203125 -10.40625 L 4.03125 -10.40625 C 3.550781 -10.40625 3.3125 -10.164062 3.3125 -9.6875 L 3.3125 -3.046875 C 3.3125 -2.554688 3.550781 -2.3125 4.03125 -2.3125 L 5.203125 -2.3125 C 5.691406 -2.3125 5.9375 -2.554688 5.9375 -3.046875 L 5.9375 -4.609375 C 5.9375 -4.796875 6.035156 -4.890625 6.234375 -4.890625 L 7.953125 -4.890625 C 8.140625 -4.890625 8.234375 -4.796875 8.234375 -4.609375 L 8.234375 -2.625 C 8.234375 -1.78125 8.007812 -1.128906 7.5625 -0.671875 C 7.113281 -0.222656 6.460938 0 5.609375 0 L 3.5625 0 C 2.707031 0 2.050781 -0.222656 1.59375 -0.671875 C 1.132812 -1.128906 0.90625 -1.78125 0.90625 -2.625 L 0.90625 -10.15625 C 0.90625 -11.019531 1.132812 -11.671875 1.59375 -12.109375 C 2.050781 -12.554688 2.707031 -12.78125 3.5625 -12.78125 L 5.609375 -12.78125 C 6.460938 -12.78125 7.113281 -12.554688 7.5625 -12.109375 C 8.007812 -11.671875 8.234375 -11.019531 8.234375 -10.15625 Z M 8.234375 -10.15625 "/></g></g><g style="fill:#060705;fill-opacity:1;"><g transform="translate(68.098706, 29.710349)"><path style="stroke:none" d="M 0.90625 -5.734375 L 0.90625 -7.421875 C 0.90625 -7.660156 1.03125 -7.78125 1.28125 -7.78125 L 4.171875 -7.78125 C 4.410156 -7.78125 4.53125 -7.660156 4.53125 -7.421875 L 4.53125 -5.734375 C 4.53125 -5.492188 4.410156 -5.375 4.171875 -5.375 L 1.28125 -5.375 C 1.03125 -5.375 0.90625 -5.492188 0.90625 -5.734375 Z M 0.90625 -5.734375 "/></g></g><g style="fill:#060705;fill-opacity:1;"><g transform="translate(10.523894, 55.17695)"><path style="stroke:none" d="M 3.546875 -12.78125 L 5.59375 -12.78125 C 6.457031 -12.78125 7.109375 -12.554688 7.546875 -12.109375 C 7.992188 -11.671875 8.21875 -11.019531 8.21875 -10.15625 L 8.21875 -8.953125 C 8.21875 -8.753906 8.117188 -8.65625 7.921875 -8.65625 L 6.078125 -8.65625 C 5.890625 -8.65625 5.796875 -8.753906 5.796875 -8.953125 L 5.796875 -9.71875 C 5.796875 -10.207031 5.550781 -10.453125 5.0625 -10.453125 L 4.0625 -10.453125 C 3.570312 -10.453125 3.328125 -10.207031 3.328125 -9.71875 L 3.328125 -8.171875 L 7.75 -6.734375 C 8.0625 -6.628906 8.21875 -6.40625 8.21875 -6.0625 L 8.21875 -2.625 C 8.21875 -1.78125 7.992188 -1.128906 7.546875 -0.671875 C 7.109375 -0.222656 6.457031 0 5.59375 0 L 3.546875 0 C 2.691406 0 2.035156 -0.222656 1.578125 -0.671875 C 1.128906 -1.128906 0.90625 -1.78125 0.90625 -2.625 L 0.90625 -3.8125 C 0.90625 -4.007812 1.003906 -4.109375 1.203125 -4.109375 L 3.046875 -4.109375 C 3.242188 -4.109375 3.34375 -4.007812 3.34375 -3.8125 L 3.34375 -3.046875 C 3.34375 -2.554688 3.585938 -2.3125 4.078125 -2.3125 L 5.0625 -2.3125 C 5.550781 -2.3125 5.796875 -2.554688 5.796875 -3.046875 L 5.796875 -4.890625 L 1.40625 -6.3125 C 1.070312 -6.425781 0.90625 -6.65625 0.90625 -7 L 0.90625 -10.15625 C 0.90625 -11.019531 1.128906 -11.671875 1.578125 -12.109375 C 2.035156 -12.554688 2.691406 -12.78125 3.546875 -12.78125 Z M 3.546875 -12.78125 "/></g></g><g style="fill:#060705;fill-opacity:1;"><g transform="translate(19.654257, 55.17695)"><path style="stroke:none" d="M 7.5625 -12.78125 L 0.84375 -12.78125 C 0.644531 -12.78125 0.546875 -12.6875 0.546875 -12.5 L 0.546875 -10.671875 C 0.546875 -10.472656 0.644531 -10.375 0.84375 -10.375 L 2.953125 -10.375 L 2.953125 -0.296875 C 2.953125 -0.0976562 3.050781 0 3.25 0 L 5.15625 0 C 5.34375 0 5.4375 -0.0976562 5.4375 -0.296875 L 5.4375 -10.375 L 7.5625 -10.375 C 7.757812 -10.375 7.859375 -10.472656 7.859375 -10.671875 L 7.859375 -12.5 C 7.859375 -12.6875 7.757812 -12.78125 7.5625 -12.78125 Z M 7.5625 -12.78125 "/></g></g><g style="fill:#060705;fill-opacity:1;"><g transform="translate(28.054191, 55.17695)"><path style="stroke:none" d="M 6.171875 -12.78125 L 7.859375 -12.78125 C 7.953125 -12.78125 8.035156 -12.742188 8.109375 -12.671875 C 8.179688 -12.597656 8.21875 -12.515625 8.21875 -12.421875 L 8.21875 -2.625 C 8.21875 -1.78125 7.992188 -1.128906 7.546875 -0.671875 C 7.109375 -0.222656 6.457031 0 5.59375 0 L 3.546875 0 C 2.691406 0 2.035156 -0.222656 1.578125 -0.671875 C 1.128906 -1.128906 0.90625 -1.78125 0.90625 -2.625 L 0.90625 -12.421875 C 0.90625 -12.515625 0.941406 -12.597656 1.015625 -12.671875 C 1.085938 -12.742188 1.175781 -12.78125 1.28125 -12.78125 L 3.03125 -12.78125 C 3.125 -12.78125 3.207031 -12.742188 3.28125 -12.671875 C 3.351562 -12.597656 3.390625 -12.515625 3.390625 -12.421875 L 3.390625 -3.140625 C 3.390625 -2.648438 3.632812 -2.40625 4.125 -2.40625 L 5.078125 -2.40625 C 5.566406 -2.40625 5.8125 -2.648438 5.8125 -3.140625 L 5.8125 -12.421875 C 5.8125 -12.515625 5.847656 -12.597656 5.921875 -12.671875 C 5.992188 -12.742188 6.078125 -12.78125 6.171875 -12.78125 Z M 6.171875 -12.78125 "/></g></g><g style="fill:#060705;fill-opacity:1;"><g transform="translate(37.184554, 55.17695)"><path style="stroke:none" d="M 8.234375 -10.15625 L 8.234375 -7.6875 C 8.234375 -7.34375 8.125 -7.054688 7.90625 -6.828125 C 7.6875 -6.597656 7.414062 -6.453125 7.09375 -6.390625 L 7.09375 -6.359375 C 7.414062 -6.304688 7.6875 -6.160156 7.90625 -5.921875 C 8.125 -5.691406 8.234375 -5.40625 8.234375 -5.0625 L 8.234375 -2.625 C 8.234375 -1.78125 8.007812 -1.128906 7.5625 -0.671875 C 7.113281 -0.222656 6.457031 0 5.59375 0 L 1.203125 0 C 1.003906 0 0.90625 -0.0976562 0.90625 -0.296875 L 0.90625 -12.5 C 0.90625 -12.6875 1.003906 -12.78125 1.203125 -12.78125 L 5.59375 -12.78125 C 6.457031 -12.78125 7.113281 -12.554688 7.5625 -12.109375 C 8.007812 -11.671875 8.234375 -11.019531 8.234375 -10.15625 Z M 5.921875 -8.296875 L 5.921875 -9.75 C 5.921875 -10.238281 5.675781 -10.484375 5.1875 -10.484375 L 3.171875 -10.484375 L 3.171875 -7.578125 L 5.1875 -7.578125 C 5.675781 -7.578125 5.921875 -7.816406 5.921875 -8.296875 Z M 5.921875 -3.03125 L 5.921875 -4.4375 C 5.921875 -4.925781 5.675781 -5.171875 5.1875 -5.171875 L 3.171875 -5.171875 L 3.171875 -2.296875 L 5.1875 -2.296875 C 5.675781 -2.296875 5.921875 -2.539062 5.921875 -3.03125 Z M 5.921875 -3.03125 "/></g></g><g style="fill:#060705;fill-opacity:1;"><g transform="translate(46.33318, 55.17695)"><path style="stroke:none" d="M 8.234375 -10.15625 L 8.234375 -7.6875 C 8.234375 -7.34375 8.125 -7.054688 7.90625 -6.828125 C 7.6875 -6.597656 7.414062 -6.453125 7.09375 -6.390625 L 7.09375 -6.359375 C 7.414062 -6.304688 7.6875 -6.160156 7.90625 -5.921875 C 8.125 -5.691406 8.234375 -5.40625 8.234375 -5.0625 L 8.234375 -2.625 C 8.234375 -1.78125 8.007812 -1.128906 7.5625 -0.671875 C 7.113281 -0.222656 6.457031 0 5.59375 0 L 1.203125 0 C 1.003906 0 0.90625 -0.0976562 0.90625 -0.296875 L 0.90625 -12.5 C 0.90625 -12.6875 1.003906 -12.78125 1.203125 -12.78125 L 5.59375 -12.78125 C 6.457031 -12.78125 7.113281 -12.554688 7.5625 -12.109375 C 8.007812 -11.671875 8.234375 -11.019531 8.234375 -10.15625 Z M 5.921875 -8.296875 L 5.921875 -9.75 C 5.921875 -10.238281 5.675781 -10.484375 5.1875 -10.484375 L 3.171875 -10.484375 L 3.171875 -7.578125 L 5.1875 -7.578125 C 5.675781 -7.578125 5.921875 -7.816406 5.921875 -8.296875 Z M 5.921875 -3.03125 L 5.921875 -4.4375 C 5.921875 -4.925781 5.675781 -5.171875 5.1875 -5.171875 L 3.171875 -5.171875 L 3.171875 -2.296875 L 5.1875 -2.296875 C 5.675781 -2.296875 5.921875 -2.539062 5.921875 -3.03125 Z M 5.921875 -3.03125 "/></g></g><g style="fill:#060705;fill-opacity:1;"><g transform="translate(55.481806, 55.17695)"><path style="stroke:none" d="M 8.203125 -12.5 L 8.203125 -10.671875 C 8.203125 -10.460938 8.101562 -10.359375 7.90625 -10.359375 L 3.390625 -10.359375 L 3.390625 -7.546875 L 6.828125 -7.546875 C 7.023438 -7.546875 7.125 -7.441406 7.125 -7.234375 L 7.125 -5.421875 C 7.125 -5.210938 7.023438 -5.109375 6.828125 -5.109375 L 3.390625 -5.109375 L 3.390625 -2.40625 L 7.90625 -2.40625 C 8.101562 -2.40625 8.203125 -2.3125 8.203125 -2.125 L 8.203125 -0.296875 C 8.203125 -0.0976562 8.101562 0 7.90625 0 L 1.1875 0 C 1 0 0.90625 -0.0976562 0.90625 -0.296875 L 0.90625 -12.5 C 0.90625 -12.6875 1 -12.78125 1.1875 -12.78125 L 7.90625 -12.78125 C 8.101562 -12.78125 8.203125 -12.6875 8.203125 -12.5 Z M 8.203125 -12.5 "/></g></g><g style="fill:#060705;fill-opacity:1;"><g transform="translate(64.593905, 55.17695)"><path style="stroke:none" d="M 0.90625 -0.296875 L 0.90625 -12.5 C 0.90625 -12.6875 1.003906 -12.78125 1.203125 -12.78125 L 5.59375 -12.78125 C 6.457031 -12.78125 7.109375 -12.554688 7.546875 -12.109375 C 7.992188 -11.660156 8.21875 -11.003906 8.21875 -10.140625 L 8.21875 -2.625 C 8.21875 -1.78125 7.992188 -1.128906 7.546875 -0.671875 C 7.109375 -0.222656 6.457031 0 5.59375 0 L 1.203125 0 C 1.003906 0 0.90625 -0.0976562 0.90625 -0.296875 Z M 3.390625 -2.40625 L 5.078125 -2.40625 C 5.566406 -2.40625 5.8125 -2.648438 5.8125 -3.140625 L 5.8125 -9.625 C 5.8125 -10.125 5.566406 -10.375 5.078125 -10.375 L 3.390625 -10.375 Z M 3.390625 -2.40625 "/></g></g><g style="fill:#060705;fill-opacity:1;"><g transform="translate(73.724267, 55.17695)"><path style="stroke:none" d="M 0 2.453125 L 0 0.765625 C 0 0.523438 0.117188 0.40625 0.359375 0.40625 L 11.375 0.40625 C 11.625 0.40625 11.75 0.523438 11.75 0.765625 L 11.75 2.453125 C 11.75 2.691406 11.625 2.8125 11.375 2.8125 L 0.359375 2.8125 C 0.117188 2.8125 0 2.691406 0 2.453125 Z M 0 2.453125 "/></g></g><g style="fill:#060705;fill-opacity:1;"><g transform="translate(33.848986, 80.643552)"><path style="stroke:none" d="M 8.203125 -12.5 L 8.203125 -10.671875 C 8.203125 -10.460938 8.101562 -10.359375 7.90625 -10.359375 L 3.390625 -10.359375 L 3.390625 -7.546875 L 6.828125 -7.546875 C 7.023438 -7.546875 7.125 -7.441406 7.125 -7.234375 L 7.125 -5.421875 C 7.125 -5.210938 7.023438 -5.109375 6.828125 -5.109375 L 3.390625 -5.109375 L 3.390625 -2.40625 L 7.90625 -2.40625 C 8.101562 -2.40625 8.203125 -2.3125 8.203125 -2.125 L 8.203125 -0.296875 C 8.203125 -0.0976562 8.101562 0 7.90625 0 L 1.1875 0 C 1 0 0.90625 -0.0976562 0.90625 -0.296875 L 0.90625 -12.5 C 0.90625 -12.6875 1 -12.78125 1.1875 -12.78125 L 7.90625 -12.78125 C 8.101562 -12.78125 8.203125 -12.6875 8.203125 -12.5 Z M 8.203125 -12.5 "/></g></g><g style="fill:#060705;fill-opacity:1;"><g transform="translate(42.961085, 80.643552)"><path style="stroke:none" d="M 6.703125 -12.78125 L 8.421875 -12.78125 C 8.617188 -12.78125 8.71875 -12.6875 8.71875 -12.5 L 8.71875 -0.296875 C 8.71875 -0.0976562 8.617188 0 8.421875 0 L 6.984375 0 C 6.835938 0 6.726562 -0.078125 6.65625 -0.234375 L 3.21875 -7.21875 L 3.21875 -0.296875 C 3.21875 -0.0976562 3.117188 0 2.921875 0 L 1.203125 0 C 1.003906 0 0.90625 -0.0976562 0.90625 -0.296875 L 0.90625 -12.5 C 0.90625 -12.6875 1.003906 -12.78125 1.203125 -12.78125 L 2.65625 -12.78125 C 2.800781 -12.78125 2.910156 -12.703125 2.984375 -12.546875 L 6.40625 -5.578125 L 6.40625 -12.5 C 6.40625 -12.6875 6.503906 -12.78125 6.703125 -12.78125 Z M 6.703125 -12.78125 "/></g></g><g style="fill:#060705;fill-opacity:1;"><g transform="translate(52.58449, 80.643552)"><path style="stroke:none" d="M 7 -12.78125 L 8.65625 -12.78125 C 8.9375 -12.78125 9.046875 -12.648438 8.984375 -12.390625 L 6.078125 -0.328125 C 6.035156 -0.109375 5.90625 0 5.6875 0 L 3.859375 0 C 3.648438 0 3.515625 -0.109375 3.453125 -0.328125 L 0.5625 -12.390625 C 0.5 -12.648438 0.609375 -12.78125 0.890625 -12.78125 L 2.5625 -12.78125 C 2.78125 -12.78125 2.910156 -12.671875 2.953125 -12.453125 L 4.765625 -4.203125 L 6.59375 -12.453125 C 6.65625 -12.671875 6.789062 -12.78125 7 -12.78125 Z M 7 -12.78125 "/></g></g></g></svg>