<svg xmlns="http://www.w3.org/2000/svg" xmlns:xlink="http://www.w3.org/1999/xlink" width="128" zoomAndPan="magnify" viewBox="0 0 96 95.999999" height="128" preserveAspectRatio="xMidYMid meet" version="1.2"><defs><clipPath id="ae9e009247"><path d="M 6 0 L 90 0 L 90 96 L 6 96 Z M 6 0 "/></clipPath><clipPath id="2a58170cd1"><path d="M -14.304688 36.578125 L 68.691406 -11.898438 L 110.335938 59.402344 L 27.339844 107.878906 Z M -14.304688 36.578125 "/></clipPath><clipPath id="18cf904186"><path d="M 89.484375 23.769531 L 89.5625 71.535156 L 48.082031 95.765625 L 6.515625 72.226562 L 6.4375 24.464844 L 47.921875 0.234375 Z M 89.484375 23.769531 "/></clipPath><clipPath id="85960a40ce"><path d="M 14.140625 9.121094 L 81.851562 9.121094 L 81.851562 86.839844 L 14.140625 86.839844 Z M 14.140625 9.121094 "/></clipPath></defs><g id="4883b5c606"><g clip-rule="nonzero" clip-path="url(#ae9e009247)"><g clip-rule="nonzero" clip-path="url(#2a58170cd1)"><g clip-rule="nonzero" clip-path="url(#18cf904186)"><path style=" stroke:none;fill-rule:nonzero;fill:#65b30e;fill-opacity:1;" d="M -14.304688 36.578125 L 68.691406 -11.898438 L 110.335938 59.402344 L 27.339844 107.878906 Z M -14.304688 36.578125 "/></g></g></g><path style=" stroke:none;fill-rule:nonzero;fill:#87ff00;fill-opacity:1;" d="M 34.453125 34.738281 L 34.410156 34.695312 L 24.839844 44.265625 L 48.074219 67.457031 L 57.644531 57.933594 L 71.308594 44.265625 L 61.738281 34.695312 L 61.738281 34.652344 L 34.410156 34.652344 Z M 34.453125 34.738281 "/><g clip-rule="nonzero" clip-path="url(#85960a40ce)"><path style=" stroke:none;fill-rule:nonzero;fill:#87ff00;fill-opacity:1;" d="M 47.988281 9.179688 L 14.148438 28.574219 L 14.148438 67.371094 L 47.988281 86.769531 L 81.828125 67.371094 L 81.828125 28.574219 Z M 75.359375 63.664062 L 47.988281 79.4375 L 20.613281 63.664062 L 20.617188 32.195312 L 47.988281 16.417969 L 75.363281 32.195312 L 75.363281 63.664062 Z M 75.359375 63.664062 "/></g><g style="fill:#b21a22;fill-opacity:1;"><g transform="translate(25.638026, 30.534914)"><path style="stroke:none" d="M 3.382812 -12.753906 L 5.335938 -12.753906 C 6.3125 -12.753906 7.066406 -12.488281 7.597656 -11.957031 C 8.128906 -11.429688 8.394531 -10.675781 8.394531 -9.699219 L 8.394531 -8.546875 C 8.394531 -8.304688 8.316406 -8.105469 8.164062 -7.953125 C 8.011719 -7.800781 7.8125 -7.722656 7.570312 -7.722656 L 5.808594 -7.722656 C 5.566406 -7.722656 5.367188 -7.800781 5.214844 -7.953125 C 5.0625 -8.105469 4.984375 -8.304688 4.984375 -8.546875 L 4.984375 -9.28125 C 4.984375 -9.335938 4.980469 -9.382812 4.96875 -9.414062 C 4.964844 -9.417969 4.964844 -9.421875 4.964844 -9.425781 C 4.964844 -9.421875 4.96875 -9.421875 4.96875 -9.417969 C 4.972656 -9.414062 4.972656 -9.414062 4.976562 -9.410156 C 4.972656 -9.414062 4.96875 -9.414062 4.964844 -9.417969 C 4.933594 -9.425781 4.890625 -9.433594 4.832031 -9.433594 L 3.871094 -9.433594 C 3.816406 -9.433594 3.769531 -9.425781 3.738281 -9.417969 C 3.734375 -9.414062 3.730469 -9.414062 3.726562 -9.410156 C 3.730469 -9.414062 3.730469 -9.414062 3.734375 -9.417969 C 3.738281 -9.421875 3.738281 -9.421875 3.738281 -9.425781 C 3.738281 -9.421875 3.738281 -9.417969 3.734375 -9.414062 C 3.726562 -9.382812 3.71875 -9.335938 3.71875 -9.28125 L 3.71875 -7.796875 L 3.175781 -7.796875 L 3.34375 -8.316406 L 7.5625 -6.957031 C 7.832031 -6.863281 8.039062 -6.714844 8.183594 -6.511719 C 8.324219 -6.308594 8.394531 -6.070312 8.394531 -5.792969 L 8.394531 -2.511719 C 8.394531 -1.546875 8.128906 -0.800781 7.601562 -0.261719 C 7.070312 0.277344 6.316406 0.546875 5.335938 0.546875 L 3.382812 0.546875 C 2.417969 0.546875 1.667969 0.277344 1.132812 -0.261719 C 0.59375 -0.796875 0.328125 -1.546875 0.328125 -2.511719 L 0.328125 -3.644531 C 0.328125 -3.890625 0.402344 -4.085938 0.554688 -4.242188 C 0.710938 -4.394531 0.90625 -4.46875 1.152344 -4.46875 L 2.914062 -4.46875 C 3.15625 -4.46875 3.355469 -4.394531 3.507812 -4.242188 C 3.660156 -4.085938 3.738281 -3.890625 3.738281 -3.644531 L 3.738281 -2.914062 C 3.738281 -2.855469 3.742188 -2.8125 3.753906 -2.78125 C 3.753906 -2.773438 3.757812 -2.769531 3.757812 -2.769531 C 3.757812 -2.769531 3.753906 -2.773438 3.753906 -2.773438 C 3.75 -2.777344 3.746094 -2.78125 3.746094 -2.78125 C 3.746094 -2.78125 3.75 -2.777344 3.757812 -2.777344 C 3.789062 -2.765625 3.832031 -2.761719 3.890625 -2.761719 L 4.832031 -2.761719 C 4.890625 -2.761719 4.933594 -2.765625 4.964844 -2.777344 C 4.96875 -2.777344 4.972656 -2.78125 4.976562 -2.78125 C 4.972656 -2.78125 4.972656 -2.777344 4.96875 -2.773438 C 4.96875 -2.773438 4.964844 -2.769531 4.964844 -2.769531 C 4.964844 -2.769531 4.964844 -2.773438 4.96875 -2.78125 C 4.980469 -2.8125 4.984375 -2.855469 4.984375 -2.914062 L 4.984375 -4.675781 L 5.53125 -4.675781 L 5.359375 -4.15625 L 1.175781 -5.515625 C 0.90625 -5.605469 0.695312 -5.753906 0.550781 -5.953125 C 0.402344 -6.15625 0.328125 -6.398438 0.328125 -6.679688 L 0.328125 -9.699219 C 0.328125 -10.675781 0.597656 -11.429688 1.132812 -11.960938 C 1.671875 -12.492188 2.421875 -12.753906 3.382812 -12.753906 Z M 3.382812 -11.664062 C 2.71875 -11.664062 2.222656 -11.503906 1.898438 -11.183594 C 1.578125 -10.867188 1.417969 -10.371094 1.417969 -9.699219 L 1.417969 -6.679688 C 1.417969 -6.636719 1.421875 -6.609375 1.429688 -6.597656 C 1.441406 -6.582031 1.46875 -6.570312 1.511719 -6.554688 L 6.074219 -5.070312 L 6.074219 -2.914062 C 6.074219 -2.53125 5.964844 -2.226562 5.742188 -2.003906 C 5.519531 -1.78125 5.214844 -1.671875 4.832031 -1.671875 L 3.890625 -1.671875 C 3.507812 -1.671875 3.203125 -1.78125 2.980469 -2.003906 C 2.757812 -2.226562 2.648438 -2.53125 2.648438 -2.914062 L 2.648438 -3.644531 C 2.648438 -3.632812 2.652344 -3.617188 2.65625 -3.59375 C 2.671875 -3.546875 2.699219 -3.507812 2.738281 -3.46875 C 2.773438 -3.433594 2.816406 -3.40625 2.863281 -3.390625 C 2.882812 -3.382812 2.902344 -3.378906 2.914062 -3.378906 L 1.152344 -3.378906 C 1.164062 -3.378906 1.179688 -3.382812 1.203125 -3.390625 C 1.246094 -3.40625 1.289062 -3.433594 1.328125 -3.46875 C 1.363281 -3.507812 1.390625 -3.546875 1.40625 -3.59375 C 1.414062 -3.617188 1.417969 -3.632812 1.417969 -3.644531 L 1.417969 -2.511719 C 1.417969 -1.847656 1.578125 -1.355469 1.902344 -1.03125 C 2.226562 -0.707031 2.71875 -0.546875 3.382812 -0.546875 L 5.335938 -0.546875 C 6.011719 -0.546875 6.507812 -0.707031 6.824219 -1.027344 C 7.144531 -1.351562 7.304688 -1.847656 7.304688 -2.511719 L 7.304688 -5.792969 C 7.304688 -5.839844 7.300781 -5.871094 7.289062 -5.882812 C 7.28125 -5.894531 7.261719 -5.90625 7.230469 -5.917969 L 2.628906 -7.398438 L 2.628906 -9.28125 C 2.628906 -9.664062 2.742188 -9.964844 2.964844 -10.1875 C 3.1875 -10.410156 3.488281 -10.523438 3.871094 -10.523438 L 4.832031 -10.523438 C 5.214844 -10.523438 5.519531 -10.410156 5.742188 -10.1875 C 5.964844 -9.964844 6.074219 -9.664062 6.074219 -9.28125 L 6.074219 -8.546875 C 6.074219 -8.558594 6.070312 -8.578125 6.0625 -8.597656 C 6.046875 -8.644531 6.023438 -8.6875 5.984375 -8.722656 C 5.945312 -8.761719 5.90625 -8.785156 5.859375 -8.800781 C 5.835938 -8.808594 5.820312 -8.8125 5.808594 -8.8125 L 7.570312 -8.8125 C 7.558594 -8.8125 7.542969 -8.808594 7.519531 -8.800781 C 7.472656 -8.785156 7.429688 -8.761719 7.394531 -8.722656 C 7.355469 -8.6875 7.332031 -8.644531 7.316406 -8.597656 C 7.308594 -8.578125 7.304688 -8.558594 7.304688 -8.546875 L 7.304688 -9.699219 C 7.304688 -10.375 7.144531 -10.871094 6.828125 -11.1875 C 6.507812 -11.507812 6.011719 -11.664062 5.335938 -11.664062 Z M 3.382812 -11.664062 "/></g></g><g style="fill:#b21a22;fill-opacity:1;"><g transform="translate(34.356758, 30.534914)"><path style="stroke:none" d="M 7.222656 -11.664062 L 0.800781 -11.664062 C 0.816406 -11.664062 0.832031 -11.667969 0.851562 -11.675781 C 0.898438 -11.691406 0.941406 -11.71875 0.980469 -11.753906 C 1.015625 -11.792969 1.042969 -11.835938 1.058594 -11.878906 C 1.066406 -11.902344 1.070312 -11.917969 1.070312 -11.929688 L 1.070312 -10.1875 C 1.070312 -10.199219 1.066406 -10.214844 1.058594 -10.238281 C 1.042969 -10.285156 1.015625 -10.324219 0.980469 -10.363281 C 0.941406 -10.398438 0.898438 -10.425781 0.851562 -10.441406 C 0.832031 -10.449219 0.816406 -10.453125 0.800781 -10.453125 L 3.371094 -10.453125 L 3.371094 -0.277344 C 3.371094 -0.292969 3.367188 -0.308594 3.359375 -0.328125 C 3.34375 -0.375 3.320312 -0.417969 3.28125 -0.457031 C 3.242188 -0.492188 3.203125 -0.519531 3.15625 -0.535156 C 3.132812 -0.542969 3.117188 -0.546875 3.105469 -0.546875 L 4.917969 -0.546875 C 4.90625 -0.546875 4.890625 -0.542969 4.867188 -0.535156 C 4.820312 -0.519531 4.78125 -0.492188 4.742188 -0.457031 C 4.707031 -0.417969 4.679688 -0.375 4.664062 -0.328125 C 4.65625 -0.308594 4.652344 -0.292969 4.652344 -0.277344 L 4.652344 -10.453125 L 7.222656 -10.453125 C 7.207031 -10.453125 7.191406 -10.449219 7.171875 -10.441406 C 7.125 -10.425781 7.082031 -10.398438 7.046875 -10.363281 C 7.007812 -10.324219 6.980469 -10.285156 6.964844 -10.238281 C 6.957031 -10.214844 6.957031 -10.199219 6.957031 -10.1875 L 6.957031 -11.929688 C 6.957031 -11.917969 6.957031 -11.902344 6.964844 -11.878906 C 6.980469 -11.835938 7.007812 -11.792969 7.046875 -11.753906 C 7.082031 -11.71875 7.125 -11.691406 7.171875 -11.675781 C 7.191406 -11.667969 7.207031 -11.664062 7.222656 -11.664062 Z M 7.222656 -12.753906 C 7.464844 -12.753906 7.664062 -12.679688 7.816406 -12.527344 C 7.96875 -12.371094 8.046875 -12.175781 8.046875 -11.929688 L 8.046875 -10.1875 C 8.046875 -9.941406 7.96875 -9.746094 7.816406 -9.59375 C 7.664062 -9.4375 7.464844 -9.363281 7.222656 -9.363281 L 5.199219 -9.363281 L 5.199219 -9.90625 L 5.742188 -9.90625 L 5.742188 -0.277344 C 5.742188 -0.0351562 5.667969 0.164062 5.515625 0.316406 C 5.359375 0.46875 5.164062 0.546875 4.917969 0.546875 L 3.105469 0.546875 C 2.859375 0.546875 2.664062 0.46875 2.511719 0.316406 C 2.355469 0.164062 2.28125 -0.0351562 2.28125 -0.277344 L 2.28125 -9.90625 L 2.824219 -9.90625 L 2.824219 -9.363281 L 0.800781 -9.363281 C 0.558594 -9.363281 0.359375 -9.4375 0.207031 -9.59375 C 0.0546875 -9.746094 -0.0234375 -9.941406 -0.0234375 -10.1875 L -0.0234375 -11.929688 C -0.0234375 -12.175781 0.0546875 -12.371094 0.207031 -12.527344 C 0.359375 -12.679688 0.558594 -12.753906 0.800781 -12.753906 Z M 7.222656 -12.753906 "/></g></g><g style="fill:#b21a22;fill-opacity:1;"><g transform="translate(42.377992, 30.534914)"><path style="stroke:none" d="M 9.105469 0.546875 L 7.414062 0.546875 C 7.199219 0.546875 7.019531 0.480469 6.871094 0.347656 C 6.734375 0.230469 6.644531 0.0703125 6.601562 -0.128906 L 7.132812 -0.246094 L 6.605469 -0.109375 L 6.046875 -2.308594 L 6.574219 -2.441406 L 6.574219 -1.898438 L 3.296875 -1.898438 L 3.296875 -2.441406 L 3.824219 -2.3125 L 3.285156 -0.113281 L 2.757812 -0.246094 L 3.289062 -0.128906 C 3.246094 0.0703125 3.15625 0.230469 3.019531 0.347656 C 2.871094 0.480469 2.6875 0.546875 2.476562 0.546875 L 0.765625 0.546875 C 0.484375 0.546875 0.269531 0.449219 0.121094 0.257812 C -0.0273438 0.0625 -0.0625 -0.175781 0.0195312 -0.449219 L 0.539062 -0.296875 L 0.0117188 -0.429688 L 2.90625 -12.097656 L 3.4375 -11.964844 L 2.902344 -12.082031 C 2.945312 -12.285156 3.042969 -12.449219 3.191406 -12.570312 C 3.339844 -12.695312 3.519531 -12.753906 3.734375 -12.753906 L 6.15625 -12.753906 C 6.371094 -12.753906 6.550781 -12.695312 6.699219 -12.570312 C 6.847656 -12.449219 6.941406 -12.285156 6.988281 -12.082031 L 6.453125 -11.964844 L 6.984375 -12.097656 L 9.878906 -0.429688 L 9.347656 -0.296875 L 9.871094 -0.449219 C 9.957031 -0.167969 9.914062 0.0742188 9.753906 0.273438 C 9.601562 0.453125 9.386719 0.546875 9.105469 0.546875 Z M 9.105469 -0.546875 C 9.109375 -0.546875 9.109375 -0.546875 9.113281 -0.546875 C 9.113281 -0.546875 9.109375 -0.546875 9.109375 -0.546875 C 9.101562 -0.542969 9.089844 -0.539062 9.074219 -0.535156 C 9.011719 -0.515625 8.957031 -0.476562 8.910156 -0.421875 C 8.859375 -0.355469 8.828125 -0.285156 8.824219 -0.210938 C 8.820312 -0.179688 8.820312 -0.15625 8.828125 -0.144531 L 8.824219 -0.152344 L 5.921875 -11.84375 L 5.921875 -11.851562 C 5.929688 -11.808594 5.957031 -11.769531 6.007812 -11.726562 C 6.058594 -11.6875 6.109375 -11.664062 6.15625 -11.664062 L 3.734375 -11.664062 C 3.78125 -11.664062 3.832031 -11.6875 3.882812 -11.726562 C 3.929688 -11.769531 3.960938 -11.808594 3.96875 -11.851562 L 3.96875 -11.84375 L 1.066406 -0.152344 L 1.0625 -0.144531 C 1.066406 -0.152344 1.066406 -0.171875 1.066406 -0.199219 C 1.0625 -0.273438 1.035156 -0.339844 0.988281 -0.40625 C 0.9375 -0.46875 0.882812 -0.511719 0.8125 -0.535156 C 0.792969 -0.542969 0.777344 -0.546875 0.765625 -0.546875 L 2.476562 -0.546875 C 2.414062 -0.546875 2.355469 -0.519531 2.300781 -0.472656 C 2.257812 -0.433594 2.230469 -0.394531 2.222656 -0.359375 L 2.226562 -0.367188 L 2.871094 -2.988281 L 7 -2.988281 L 7.664062 -0.367188 L 7.667969 -0.359375 C 7.660156 -0.394531 7.632812 -0.433594 7.589844 -0.472656 C 7.53125 -0.519531 7.472656 -0.546875 7.414062 -0.546875 Z M 5.503906 -4.34375 L 4.40625 -9.085938 L 4.9375 -9.210938 L 5.46875 -9.085938 L 4.367188 -4.34375 L 3.835938 -4.464844 L 3.835938 -5.011719 L 6.035156 -5.011719 L 6.035156 -4.464844 Z M 6.722656 -3.921875 L 3.152344 -3.921875 L 4.40625 -9.332031 L 5.46875 -9.332031 L 6.566406 -4.589844 Z M 6.722656 -3.921875 "/></g></g><g style="fill:#b21a22;fill-opacity:1;"><g transform="translate(52.265036, 30.534914)"><path style="stroke:none" d="M 8.410156 -9.699219 L 8.410156 -7.816406 C 8.410156 -7.570312 8.335938 -7.371094 8.183594 -7.21875 C 8.03125 -7.066406 7.832031 -6.992188 7.585938 -6.992188 L 5.949219 -6.992188 C 5.703125 -6.992188 5.507812 -7.066406 5.351562 -7.21875 C 5.199219 -7.371094 5.125 -7.570312 5.125 -7.816406 L 5.125 -9.246094 C 5.125 -9.300781 5.117188 -9.347656 5.109375 -9.378906 C 5.105469 -9.382812 5.105469 -9.386719 5.101562 -9.390625 C 5.105469 -9.386719 5.105469 -9.386719 5.109375 -9.382812 C 5.113281 -9.378906 5.113281 -9.378906 5.117188 -9.375 C 5.113281 -9.378906 5.109375 -9.378906 5.105469 -9.382812 C 5.074219 -9.390625 5.027344 -9.398438 4.972656 -9.398438 L 3.855469 -9.398438 C 3.796875 -9.398438 3.753906 -9.390625 3.722656 -9.382812 C 3.714844 -9.378906 3.710938 -9.378906 3.710938 -9.375 C 3.710938 -9.378906 3.714844 -9.378906 3.71875 -9.382812 C 3.71875 -9.386719 3.722656 -9.386719 3.722656 -9.390625 C 3.722656 -9.386719 3.71875 -9.382812 3.71875 -9.378906 C 3.707031 -9.347656 3.703125 -9.300781 3.703125 -9.246094 L 3.703125 -2.914062 C 3.703125 -2.855469 3.707031 -2.8125 3.71875 -2.78125 C 3.71875 -2.773438 3.722656 -2.769531 3.722656 -2.769531 C 3.722656 -2.769531 3.71875 -2.773438 3.71875 -2.773438 C 3.714844 -2.777344 3.710938 -2.78125 3.710938 -2.78125 C 3.710938 -2.78125 3.714844 -2.777344 3.722656 -2.777344 C 3.753906 -2.765625 3.796875 -2.761719 3.855469 -2.761719 L 4.972656 -2.761719 C 5.027344 -2.761719 5.074219 -2.765625 5.105469 -2.777344 C 5.109375 -2.777344 5.113281 -2.78125 5.117188 -2.78125 C 5.113281 -2.78125 5.113281 -2.777344 5.109375 -2.773438 C 5.105469 -2.773438 5.105469 -2.769531 5.101562 -2.769531 C 5.105469 -2.769531 5.105469 -2.773438 5.109375 -2.78125 C 5.117188 -2.8125 5.125 -2.855469 5.125 -2.914062 L 5.125 -4.394531 C 5.125 -4.640625 5.199219 -4.835938 5.351562 -4.992188 C 5.507812 -5.144531 5.703125 -5.21875 5.949219 -5.21875 L 7.585938 -5.21875 C 7.832031 -5.21875 8.03125 -5.144531 8.183594 -4.992188 C 8.335938 -4.835938 8.410156 -4.640625 8.410156 -4.394531 L 8.410156 -2.511719 C 8.410156 -1.546875 8.144531 -0.796875 7.605469 -0.261719 C 7.070312 0.277344 6.320312 0.546875 5.355469 0.546875 L 3.402344 0.546875 C 2.4375 0.546875 1.6875 0.277344 1.144531 -0.257812 C 0.597656 -0.792969 0.328125 -1.546875 0.328125 -2.511719 L 0.328125 -9.699219 C 0.328125 -10.675781 0.601562 -11.433594 1.144531 -11.964844 C 1.6875 -12.492188 2.441406 -12.753906 3.402344 -12.753906 L 5.355469 -12.753906 C 6.316406 -12.753906 7.066406 -12.492188 7.605469 -11.960938 C 8.144531 -11.429688 8.410156 -10.675781 8.410156 -9.699219 Z M 7.320312 -9.699219 C 7.320312 -10.371094 7.160156 -10.867188 6.839844 -11.183594 C 6.515625 -11.503906 6.019531 -11.664062 5.355469 -11.664062 L 3.402344 -11.664062 C 2.734375 -11.664062 2.238281 -11.503906 1.90625 -11.183594 C 1.582031 -10.867188 1.417969 -10.371094 1.417969 -9.699219 L 1.417969 -2.511719 C 1.417969 -1.851562 1.582031 -1.355469 1.910156 -1.035156 C 2.238281 -0.707031 2.738281 -0.546875 3.402344 -0.546875 L 5.355469 -0.546875 C 6.019531 -0.546875 6.511719 -0.707031 6.835938 -1.03125 C 7.160156 -1.355469 7.320312 -1.847656 7.320312 -2.511719 L 7.320312 -4.394531 C 7.320312 -4.382812 7.324219 -4.367188 7.332031 -4.34375 C 7.347656 -4.300781 7.375 -4.257812 7.410156 -4.21875 C 7.449219 -4.183594 7.492188 -4.15625 7.539062 -4.140625 C 7.558594 -4.132812 7.574219 -4.128906 7.585938 -4.128906 L 5.949219 -4.128906 C 5.960938 -4.128906 5.976562 -4.132812 6 -4.140625 C 6.042969 -4.15625 6.085938 -4.183594 6.125 -4.21875 C 6.160156 -4.257812 6.1875 -4.300781 6.203125 -4.34375 C 6.210938 -4.367188 6.214844 -4.382812 6.214844 -4.394531 L 6.214844 -2.914062 C 6.214844 -2.53125 6.101562 -2.226562 5.878906 -2.003906 C 5.65625 -1.78125 5.355469 -1.671875 4.972656 -1.671875 L 3.855469 -1.671875 C 3.472656 -1.671875 3.167969 -1.78125 2.945312 -2.003906 C 2.722656 -2.226562 2.613281 -2.53125 2.613281 -2.914062 L 2.613281 -9.246094 C 2.613281 -9.628906 2.722656 -9.929688 2.945312 -10.152344 C 3.167969 -10.375 3.472656 -10.488281 3.855469 -10.488281 L 4.972656 -10.488281 C 5.355469 -10.488281 5.65625 -10.375 5.878906 -10.152344 C 6.101562 -9.929688 6.214844 -9.628906 6.214844 -9.246094 L 6.214844 -7.816406 C 6.214844 -7.828125 6.210938 -7.84375 6.203125 -7.863281 C 6.1875 -7.910156 6.160156 -7.953125 6.125 -7.992188 C 6.085938 -8.027344 6.042969 -8.054688 6 -8.070312 C 5.976562 -8.078125 5.960938 -8.082031 5.949219 -8.082031 L 7.585938 -8.082031 C 7.574219 -8.082031 7.558594 -8.078125 7.539062 -8.070312 C 7.492188 -8.054688 7.449219 -8.027344 7.410156 -7.992188 C 7.375 -7.953125 7.347656 -7.910156 7.332031 -7.863281 C 7.324219 -7.84375 7.320312 -7.828125 7.320312 -7.816406 Z M 7.320312 -9.699219 "/></g></g><g style="fill:#b21a22;fill-opacity:1;"><g transform="translate(61.001208, 30.534914)"><path style="stroke:none" d="M 8.335938 0.546875 L 6.488281 0.546875 C 6.292969 0.546875 6.117188 0.492188 5.960938 0.390625 C 5.816406 0.296875 5.695312 0.164062 5.605469 -0.00390625 L 3.402344 -4.324219 L 3.890625 -4.570312 L 4.375 -4.316406 L 3.726562 -3.078125 L 3.246094 -3.332031 L 3.789062 -3.332031 L 3.789062 -0.347656 C 3.789062 -0.0820312 3.707031 0.132812 3.542969 0.296875 C 3.378906 0.460938 3.164062 0.546875 2.894531 0.546875 L 1.222656 0.546875 C 0.953125 0.546875 0.738281 0.460938 0.574219 0.296875 C 0.410156 0.132812 0.328125 -0.0820312 0.328125 -0.347656 L 0.328125 -11.859375 C 0.328125 -12.128906 0.410156 -12.34375 0.574219 -12.507812 C 0.738281 -12.671875 0.953125 -12.753906 1.222656 -12.753906 L 2.894531 -12.753906 C 3.164062 -12.753906 3.378906 -12.671875 3.542969 -12.507812 C 3.707031 -12.34375 3.789062 -12.128906 3.789062 -11.859375 L 3.789062 -7.324219 L 3.246094 -7.324219 L 2.773438 -7.601562 L 5.460938 -12.222656 L 5.929688 -11.949219 L 5.449219 -12.203125 C 5.539062 -12.375 5.65625 -12.507812 5.804688 -12.601562 C 5.960938 -12.703125 6.136719 -12.753906 6.332031 -12.753906 L 8.164062 -12.753906 C 8.304688 -12.753906 8.433594 -12.730469 8.550781 -12.675781 C 8.695312 -12.613281 8.808594 -12.515625 8.890625 -12.382812 C 8.984375 -12.238281 9.023438 -12.078125 9.007812 -11.90625 C 8.996094 -11.773438 8.953125 -11.640625 8.875 -11.511719 L 8.40625 -11.792969 L 8.882812 -11.523438 L 5.917969 -6.304688 L 5.441406 -6.574219 L 5.925781 -6.824219 L 9.085938 -0.648438 C 9.234375 -0.347656 9.234375 -0.0742188 9.082031 0.171875 C 8.929688 0.421875 8.679688 0.546875 8.335938 0.546875 Z M 8.335938 -0.546875 C 8.34375 -0.546875 8.347656 -0.546875 8.347656 -0.546875 C 8.335938 -0.542969 8.320312 -0.539062 8.308594 -0.535156 C 8.242188 -0.507812 8.191406 -0.460938 8.152344 -0.398438 C 8.117188 -0.339844 8.097656 -0.277344 8.101562 -0.210938 C 8.105469 -0.183594 8.109375 -0.164062 8.113281 -0.152344 L 4.824219 -6.589844 L 7.9375 -12.066406 L 7.941406 -12.070312 C 7.933594 -12.058594 7.925781 -12.035156 7.921875 -12 C 7.917969 -11.925781 7.933594 -11.855469 7.976562 -11.792969 C 8.007812 -11.742188 8.050781 -11.707031 8.101562 -11.683594 C 8.128906 -11.671875 8.148438 -11.664062 8.164062 -11.664062 L 6.332031 -11.664062 C 6.351562 -11.664062 6.375 -11.671875 6.398438 -11.6875 C 6.40625 -11.695312 6.414062 -11.699219 6.421875 -11.707031 C 6.417969 -11.703125 6.414062 -11.699219 6.410156 -11.691406 L 6.40625 -11.683594 L 2.699219 -5.304688 L 2.699219 -11.859375 C 2.699219 -11.863281 2.699219 -11.867188 2.699219 -11.867188 C 2.699219 -11.859375 2.703125 -11.851562 2.707031 -11.839844 C 2.71875 -11.804688 2.738281 -11.769531 2.773438 -11.738281 C 2.804688 -11.707031 2.839844 -11.683594 2.875 -11.671875 C 2.886719 -11.667969 2.894531 -11.664062 2.898438 -11.664062 C 2.902344 -11.664062 2.902344 -11.664062 2.902344 -11.664062 C 2.898438 -11.664062 2.898438 -11.664062 2.894531 -11.664062 L 1.222656 -11.664062 C 1.21875 -11.664062 1.214844 -11.664062 1.214844 -11.664062 C 1.222656 -11.664062 1.230469 -11.667969 1.242188 -11.671875 C 1.277344 -11.683594 1.3125 -11.707031 1.34375 -11.738281 C 1.375 -11.769531 1.398438 -11.804688 1.410156 -11.839844 C 1.414062 -11.851562 1.417969 -11.859375 1.417969 -11.867188 C 1.417969 -11.867188 1.417969 -11.863281 1.417969 -11.859375 L 1.417969 -0.347656 C 1.417969 -0.347656 1.417969 -0.34375 1.417969 -0.34375 C 1.417969 -0.351562 1.414062 -0.359375 1.410156 -0.367188 C 1.398438 -0.40625 1.375 -0.441406 1.34375 -0.472656 C 1.3125 -0.503906 1.277344 -0.527344 1.242188 -0.539062 C 1.230469 -0.542969 1.222656 -0.542969 1.214844 -0.546875 C 1.214844 -0.546875 1.21875 -0.546875 1.222656 -0.546875 L 2.894531 -0.546875 C 2.898438 -0.546875 2.898438 -0.546875 2.902344 -0.546875 C 2.902344 -0.546875 2.902344 -0.546875 2.898438 -0.546875 C 2.894531 -0.542969 2.886719 -0.542969 2.875 -0.539062 C 2.839844 -0.527344 2.804688 -0.503906 2.773438 -0.472656 C 2.738281 -0.441406 2.71875 -0.40625 2.707031 -0.367188 C 2.703125 -0.359375 2.699219 -0.351562 2.699219 -0.34375 C 2.699219 -0.34375 2.699219 -0.347656 2.699219 -0.347656 L 2.699219 -3.464844 L 3.894531 -5.757812 L 6.570312 -0.519531 C 6.574219 -0.511719 6.574219 -0.507812 6.578125 -0.503906 C 6.570312 -0.511719 6.566406 -0.515625 6.554688 -0.523438 C 6.53125 -0.539062 6.507812 -0.546875 6.488281 -0.546875 Z M 8.335938 -0.546875 "/></g></g><g style="fill:#b21a22;fill-opacity:1;"><g transform="translate(24.802079, 54.853386)"><path style="stroke:none" d="M 9.105469 0.546875 L 7.414062 0.546875 C 7.199219 0.546875 7.019531 0.480469 6.871094 0.347656 C 6.734375 0.230469 6.644531 0.0703125 6.601562 -0.128906 L 7.132812 -0.246094 L 6.605469 -0.109375 L 6.046875 -2.308594 L 6.574219 -2.441406 L 6.574219 -1.898438 L 3.296875 -1.898438 L 3.296875 -2.441406 L 3.824219 -2.3125 L 3.285156 -0.113281 L 2.757812 -0.246094 L 3.289062 -0.128906 C 3.246094 0.0703125 3.15625 0.230469 3.019531 0.347656 C 2.871094 0.480469 2.6875 0.546875 2.476562 0.546875 L 0.765625 0.546875 C 0.484375 0.546875 0.269531 0.449219 0.121094 0.257812 C -0.0273438 0.0625 -0.0625 -0.175781 0.0195312 -0.449219 L 0.539062 -0.296875 L 0.0117188 -0.429688 L 2.90625 -12.097656 L 3.4375 -11.964844 L 2.902344 -12.082031 C 2.945312 -12.285156 3.042969 -12.449219 3.191406 -12.570312 C 3.339844 -12.695312 3.519531 -12.753906 3.734375 -12.753906 L 6.15625 -12.753906 C 6.371094 -12.753906 6.550781 -12.695312 6.699219 -12.570312 C 6.847656 -12.449219 6.941406 -12.285156 6.988281 -12.082031 L 6.453125 -11.964844 L 6.984375 -12.097656 L 9.878906 -0.429688 L 9.347656 -0.296875 L 9.871094 -0.449219 C 9.957031 -0.167969 9.914062 0.0742188 9.753906 0.273438 C 9.601562 0.453125 9.386719 0.546875 9.105469 0.546875 Z M 9.105469 -0.546875 C 9.109375 -0.546875 9.109375 -0.546875 9.113281 -0.546875 C 9.113281 -0.546875 9.109375 -0.546875 9.109375 -0.546875 C 9.101562 -0.542969 9.089844 -0.539062 9.074219 -0.535156 C 9.011719 -0.515625 8.957031 -0.476562 8.910156 -0.421875 C 8.859375 -0.355469 8.828125 -0.285156 8.824219 -0.210938 C 8.820312 -0.179688 8.820312 -0.15625 8.828125 -0.144531 L 8.824219 -0.152344 L 5.921875 -11.84375 L 5.921875 -11.851562 C 5.929688 -11.808594 5.957031 -11.769531 6.007812 -11.726562 C 6.058594 -11.6875 6.109375 -11.664062 6.15625 -11.664062 L 3.734375 -11.664062 C 3.78125 -11.664062 3.832031 -11.6875 3.882812 -11.726562 C 3.929688 -11.769531 3.960938 -11.808594 3.96875 -11.851562 L 3.96875 -11.84375 L 1.066406 -0.152344 L 1.0625 -0.144531 C 1.066406 -0.152344 1.066406 -0.171875 1.066406 -0.199219 C 1.0625 -0.273438 1.035156 -0.339844 0.988281 -0.40625 C 0.9375 -0.46875 0.882812 -0.511719 0.8125 -0.535156 C 0.792969 -0.542969 0.777344 -0.546875 0.765625 -0.546875 L 2.476562 -0.546875 C 2.414062 -0.546875 2.355469 -0.519531 2.300781 -0.472656 C 2.257812 -0.433594 2.230469 -0.394531 2.222656 -0.359375 L 2.226562 -0.367188 L 2.871094 -2.988281 L 7 -2.988281 L 7.664062 -0.367188 L 7.667969 -0.359375 C 7.660156 -0.394531 7.632812 -0.433594 7.589844 -0.472656 C 7.53125 -0.519531 7.472656 -0.546875 7.414062 -0.546875 Z M 5.503906 -4.34375 L 4.40625 -9.085938 L 4.9375 -9.210938 L 5.46875 -9.085938 L 4.367188 -4.34375 L 3.835938 -4.464844 L 3.835938 -5.011719 L 6.035156 -5.011719 L 6.035156 -4.464844 Z M 6.722656 -3.921875 L 3.152344 -3.921875 L 4.40625 -9.332031 L 5.46875 -9.332031 L 6.566406 -4.589844 Z M 6.722656 -3.921875 "/></g></g><g style="fill:#b21a22;fill-opacity:1;"><g transform="translate(34.689122, 54.853386)"><path style="stroke:none" d="M 8.410156 -9.699219 L 8.410156 -7.34375 C 8.410156 -6.875 8.257812 -6.476562 7.949219 -6.148438 C 7.65625 -5.84375 7.296875 -5.648438 6.867188 -5.570312 L 6.769531 -6.105469 L 7.3125 -6.105469 L 7.3125 -6.070312 L 6.769531 -6.070312 L 6.847656 -6.609375 C 7.289062 -6.542969 7.65625 -6.351562 7.953125 -6.03125 C 8.257812 -5.699219 8.410156 -5.300781 8.410156 -4.832031 L 8.410156 -2.511719 C 8.410156 -1.546875 8.144531 -0.796875 7.605469 -0.261719 C 7.070312 0.277344 6.3125 0.546875 5.335938 0.546875 L 1.152344 0.546875 C 0.90625 0.546875 0.710938 0.46875 0.554688 0.316406 C 0.402344 0.164062 0.328125 -0.0351562 0.328125 -0.277344 L 0.328125 -11.929688 C 0.328125 -12.175781 0.402344 -12.371094 0.554688 -12.527344 C 0.710938 -12.679688 0.90625 -12.753906 1.152344 -12.753906 L 5.335938 -12.753906 C 6.3125 -12.753906 7.066406 -12.492188 7.605469 -11.960938 C 8.144531 -11.429688 8.410156 -10.675781 8.410156 -9.699219 Z M 7.320312 -9.699219 C 7.320312 -10.371094 7.160156 -10.867188 6.839844 -11.183594 C 6.515625 -11.503906 6.015625 -11.664062 5.335938 -11.664062 L 1.152344 -11.664062 C 1.164062 -11.664062 1.179688 -11.667969 1.203125 -11.675781 C 1.246094 -11.691406 1.289062 -11.71875 1.328125 -11.753906 C 1.363281 -11.792969 1.390625 -11.835938 1.40625 -11.878906 C 1.414062 -11.902344 1.417969 -11.917969 1.417969 -11.929688 L 1.417969 -0.277344 C 1.417969 -0.292969 1.414062 -0.308594 1.40625 -0.328125 C 1.390625 -0.375 1.363281 -0.417969 1.328125 -0.457031 C 1.289062 -0.492188 1.246094 -0.519531 1.203125 -0.535156 C 1.179688 -0.542969 1.164062 -0.546875 1.152344 -0.546875 L 5.335938 -0.546875 C 6.011719 -0.546875 6.511719 -0.707031 6.835938 -1.03125 C 7.160156 -1.355469 7.320312 -1.847656 7.320312 -2.511719 L 7.320312 -4.832031 C 7.320312 -5.015625 7.265625 -5.167969 7.152344 -5.289062 C 7.03125 -5.421875 6.875 -5.503906 6.6875 -5.53125 L 6.222656 -5.601562 L 6.222656 -6.558594 L 6.667969 -6.640625 C 6.867188 -6.675781 7.027344 -6.761719 7.15625 -6.898438 C 7.265625 -7.015625 7.320312 -7.164062 7.320312 -7.34375 Z M 5.105469 -7.917969 L 5.105469 -9.316406 C 5.105469 -9.371094 5.101562 -9.417969 5.089844 -9.449219 C 5.089844 -9.453125 5.085938 -9.457031 5.085938 -9.460938 C 5.085938 -9.457031 5.089844 -9.453125 5.089844 -9.453125 C 5.09375 -9.449219 5.097656 -9.449219 5.097656 -9.445312 C 5.097656 -9.449219 5.09375 -9.449219 5.085938 -9.453125 C 5.054688 -9.460938 5.011719 -9.46875 4.953125 -9.46875 L 3.035156 -9.46875 L 3.035156 -10.011719 L 3.582031 -10.011719 L 3.582031 -7.238281 L 3.035156 -7.238281 L 3.035156 -7.785156 L 4.953125 -7.785156 C 5.011719 -7.785156 5.058594 -7.789062 5.089844 -7.800781 C 5.097656 -7.800781 5.101562 -7.804688 5.105469 -7.804688 C 5.101562 -7.804688 5.097656 -7.800781 5.097656 -7.800781 C 5.09375 -7.796875 5.089844 -7.792969 5.089844 -7.789062 C 5.089844 -7.792969 5.089844 -7.792969 5.09375 -7.796875 C 5.101562 -7.824219 5.105469 -7.867188 5.105469 -7.917969 Z M 6.195312 -7.917969 C 6.195312 -7.539062 6.082031 -7.238281 5.859375 -7.019531 C 5.636719 -6.800781 5.335938 -6.695312 4.953125 -6.695312 L 2.488281 -6.695312 L 2.488281 -10.558594 L 4.953125 -10.558594 C 5.335938 -10.558594 5.640625 -10.445312 5.863281 -10.222656 C 6.085938 -10 6.195312 -9.699219 6.195312 -9.316406 Z M 5.105469 -2.894531 L 5.105469 -4.238281 C 5.105469 -4.296875 5.101562 -4.339844 5.089844 -4.371094 C 5.089844 -4.378906 5.085938 -4.382812 5.085938 -4.382812 C 5.085938 -4.382812 5.089844 -4.378906 5.089844 -4.375 C 5.09375 -4.375 5.097656 -4.371094 5.097656 -4.371094 C 5.097656 -4.371094 5.09375 -4.375 5.085938 -4.375 C 5.054688 -4.386719 5.011719 -4.390625 4.953125 -4.390625 L 3.035156 -4.390625 L 3.035156 -4.9375 L 3.582031 -4.9375 L 3.582031 -2.199219 L 3.035156 -2.199219 L 3.035156 -2.742188 L 4.953125 -2.742188 C 5.011719 -2.742188 5.054688 -2.75 5.085938 -2.757812 C 5.09375 -2.761719 5.097656 -2.761719 5.097656 -2.761719 C 5.097656 -2.761719 5.09375 -2.761719 5.089844 -2.757812 C 5.089844 -2.753906 5.085938 -2.753906 5.085938 -2.75 C 5.085938 -2.753906 5.089844 -2.757812 5.089844 -2.761719 C 5.101562 -2.792969 5.105469 -2.839844 5.105469 -2.894531 Z M 6.195312 -2.894531 C 6.195312 -2.511719 6.085938 -2.210938 5.863281 -1.988281 C 5.640625 -1.765625 5.335938 -1.652344 4.953125 -1.652344 L 2.488281 -1.652344 L 2.488281 -5.480469 L 4.953125 -5.480469 C 5.335938 -5.480469 5.640625 -5.371094 5.863281 -5.148438 C 6.085938 -4.925781 6.195312 -4.621094 6.195312 -4.238281 Z M 6.195312 -2.894531 "/></g></g><g style="fill:#b21a22;fill-opacity:1;"><g transform="translate(43.425294, 54.853386)"><path style="stroke:none" d="M 2.699219 -2.300781 L 2.699219 -11.929688 C 2.699219 -11.917969 2.703125 -11.902344 2.710938 -11.878906 C 2.726562 -11.835938 2.75 -11.792969 2.789062 -11.753906 C 2.828125 -11.71875 2.867188 -11.691406 2.914062 -11.675781 C 2.9375 -11.667969 2.953125 -11.664062 2.964844 -11.664062 L 1.152344 -11.664062 C 1.164062 -11.664062 1.179688 -11.667969 1.203125 -11.675781 C 1.246094 -11.691406 1.289062 -11.71875 1.328125 -11.753906 C 1.363281 -11.792969 1.390625 -11.835938 1.40625 -11.878906 C 1.414062 -11.902344 1.417969 -11.917969 1.417969 -11.929688 L 1.417969 -0.277344 C 1.417969 -0.292969 1.414062 -0.308594 1.40625 -0.328125 C 1.390625 -0.375 1.363281 -0.417969 1.328125 -0.457031 C 1.289062 -0.492188 1.246094 -0.519531 1.203125 -0.535156 C 1.179688 -0.542969 1.164062 -0.546875 1.152344 -0.546875 L 6.699219 -0.546875 C 6.6875 -0.546875 6.667969 -0.542969 6.648438 -0.535156 C 6.601562 -0.519531 6.558594 -0.492188 6.523438 -0.457031 C 6.484375 -0.417969 6.457031 -0.375 6.441406 -0.328125 C 6.4375 -0.308594 6.433594 -0.292969 6.433594 -0.277344 L 6.433594 -2.023438 C 6.433594 -2.011719 6.4375 -1.996094 6.441406 -1.972656 C 6.457031 -1.925781 6.484375 -1.882812 6.523438 -1.847656 C 6.558594 -1.808594 6.601562 -1.785156 6.648438 -1.769531 C 6.667969 -1.761719 6.6875 -1.757812 6.699219 -1.757812 L 2.699219 -1.757812 Z M 3.789062 -2.300781 L 3.246094 -2.300781 L 3.246094 -2.847656 L 6.699219 -2.847656 C 6.941406 -2.847656 7.140625 -2.769531 7.292969 -2.617188 C 7.445312 -2.464844 7.523438 -2.265625 7.523438 -2.023438 L 7.523438 -0.277344 C 7.523438 -0.0351562 7.445312 0.164062 7.292969 0.316406 C 7.140625 0.46875 6.941406 0.546875 6.699219 0.546875 L 1.152344 0.546875 C 0.90625 0.546875 0.710938 0.46875 0.554688 0.316406 C 0.402344 0.164062 0.328125 -0.0351562 0.328125 -0.277344 L 0.328125 -11.929688 C 0.328125 -12.175781 0.402344 -12.371094 0.554688 -12.527344 C 0.710938 -12.679688 0.90625 -12.753906 1.152344 -12.753906 L 2.964844 -12.753906 C 3.207031 -12.753906 3.40625 -12.679688 3.558594 -12.527344 C 3.714844 -12.371094 3.789062 -12.175781 3.789062 -11.929688 Z M 3.789062 -2.300781 "/></g></g><g style="fill:#b21a22;fill-opacity:1;"><g transform="translate(51.272152, 54.853386)"><path style="stroke:none" d="M 8.378906 -11.929688 L 8.378906 -10.1875 C 8.378906 -9.945312 8.304688 -9.746094 8.160156 -9.589844 C 8.003906 -9.425781 7.804688 -9.34375 7.554688 -9.34375 L 3.246094 -9.34375 L 3.246094 -9.890625 L 3.789062 -9.890625 L 3.789062 -7.203125 L 3.246094 -7.203125 L 3.246094 -7.75 L 6.523438 -7.75 C 6.773438 -7.75 6.976562 -7.667969 7.128906 -7.503906 C 7.273438 -7.347656 7.347656 -7.148438 7.347656 -6.90625 L 7.347656 -5.179688 C 7.347656 -4.9375 7.273438 -4.738281 7.128906 -4.585938 C 6.976562 -4.421875 6.773438 -4.339844 6.523438 -4.339844 L 3.246094 -4.339844 L 3.246094 -4.882812 L 3.789062 -4.882812 L 3.789062 -2.300781 L 3.246094 -2.300781 L 3.246094 -2.847656 L 7.554688 -2.847656 C 7.796875 -2.847656 7.996094 -2.769531 8.148438 -2.617188 C 8.300781 -2.464844 8.378906 -2.265625 8.378906 -2.023438 L 8.378906 -0.277344 C 8.378906 -0.0351562 8.300781 0.164062 8.148438 0.316406 C 7.996094 0.46875 7.796875 0.546875 7.554688 0.546875 L 1.132812 0.546875 C 0.890625 0.546875 0.691406 0.464844 0.539062 0.304688 C 0.398438 0.152344 0.328125 -0.0429688 0.328125 -0.277344 L 0.328125 -11.929688 C 0.328125 -12.167969 0.398438 -12.363281 0.539062 -12.511719 C 0.691406 -12.675781 0.890625 -12.753906 1.132812 -12.753906 L 7.554688 -12.753906 C 7.796875 -12.753906 7.996094 -12.679688 8.148438 -12.527344 C 8.300781 -12.371094 8.378906 -12.175781 8.378906 -11.929688 Z M 7.285156 -11.929688 C 7.285156 -11.917969 7.289062 -11.902344 7.296875 -11.878906 C 7.3125 -11.835938 7.339844 -11.792969 7.375 -11.753906 C 7.414062 -11.71875 7.457031 -11.691406 7.503906 -11.675781 C 7.523438 -11.667969 7.539062 -11.664062 7.554688 -11.664062 L 1.132812 -11.664062 C 1.203125 -11.664062 1.269531 -11.699219 1.335938 -11.765625 C 1.371094 -11.804688 1.394531 -11.847656 1.410156 -11.890625 C 1.414062 -11.910156 1.417969 -11.921875 1.417969 -11.929688 L 1.417969 -0.277344 C 1.417969 -0.289062 1.414062 -0.300781 1.410156 -0.320312 C 1.394531 -0.363281 1.371094 -0.40625 1.335938 -0.441406 C 1.269531 -0.511719 1.203125 -0.546875 1.132812 -0.546875 L 7.554688 -0.546875 C 7.539062 -0.546875 7.523438 -0.542969 7.503906 -0.535156 C 7.457031 -0.519531 7.414062 -0.492188 7.375 -0.457031 C 7.339844 -0.417969 7.3125 -0.375 7.296875 -0.328125 C 7.289062 -0.308594 7.285156 -0.292969 7.285156 -0.277344 L 7.285156 -2.023438 C 7.285156 -2.011719 7.289062 -1.996094 7.296875 -1.972656 C 7.3125 -1.925781 7.339844 -1.882812 7.375 -1.847656 C 7.414062 -1.808594 7.457031 -1.785156 7.503906 -1.769531 C 7.523438 -1.761719 7.539062 -1.757812 7.554688 -1.757812 L 2.699219 -1.757812 L 2.699219 -5.429688 L 6.523438 -5.429688 C 6.507812 -5.429688 6.488281 -5.425781 6.464844 -5.417969 C 6.414062 -5.398438 6.375 -5.371094 6.335938 -5.332031 C 6.300781 -5.296875 6.277344 -5.257812 6.265625 -5.214844 C 6.261719 -5.199219 6.257812 -5.1875 6.257812 -5.179688 L 6.257812 -6.90625 C 6.257812 -6.902344 6.261719 -6.890625 6.265625 -6.875 C 6.277344 -6.832031 6.300781 -6.792969 6.335938 -6.757812 C 6.375 -6.71875 6.414062 -6.6875 6.464844 -6.671875 C 6.488281 -6.664062 6.507812 -6.660156 6.523438 -6.660156 L 2.699219 -6.660156 L 2.699219 -10.433594 L 7.554688 -10.433594 C 7.535156 -10.433594 7.515625 -10.429688 7.492188 -10.421875 C 7.445312 -10.40625 7.402344 -10.378906 7.363281 -10.339844 C 7.332031 -10.300781 7.308594 -10.261719 7.292969 -10.21875 C 7.289062 -10.203125 7.285156 -10.191406 7.285156 -10.1875 Z M 7.285156 -11.929688 "/></g></g><g style="fill:#b21a22;fill-opacity:1;"><g transform="translate(59.973443, 54.853386)"><path style="stroke:none" d="M -0.546875 2.335938 L -0.546875 0.734375 C -0.546875 0.464844 -0.460938 0.25 -0.296875 0.0859375 C -0.132812 -0.078125 0.0820312 -0.160156 0.347656 -0.160156 L 10.867188 -0.160156 C 11.132812 -0.160156 11.347656 -0.078125 11.515625 0.0859375 C 11.679688 0.25 11.761719 0.464844 11.761719 0.734375 L 11.761719 2.335938 C 11.761719 2.605469 11.679688 2.820312 11.515625 2.984375 C 11.347656 3.148438 11.132812 3.230469 10.867188 3.230469 L 0.347656 3.230469 C 0.0820312 3.230469 -0.132812 3.148438 -0.296875 2.984375 C -0.460938 2.820312 -0.546875 2.605469 -0.546875 2.335938 Z M 0.546875 2.335938 C 0.546875 2.339844 0.546875 2.339844 0.546875 2.34375 C 0.542969 2.335938 0.542969 2.328125 0.539062 2.316406 C 0.527344 2.28125 0.503906 2.246094 0.472656 2.214844 C 0.441406 2.183594 0.40625 2.160156 0.367188 2.148438 C 0.359375 2.144531 0.351562 2.140625 0.34375 2.140625 C 0.34375 2.140625 0.347656 2.140625 0.347656 2.140625 L 10.867188 2.140625 C 10.871094 2.140625 10.871094 2.140625 10.871094 2.140625 C 10.863281 2.140625 10.855469 2.144531 10.847656 2.148438 C 10.808594 2.160156 10.773438 2.183594 10.742188 2.214844 C 10.710938 2.246094 10.691406 2.28125 10.675781 2.316406 C 10.671875 2.328125 10.671875 2.335938 10.671875 2.34375 C 10.671875 2.339844 10.671875 2.339844 10.671875 2.335938 L 10.671875 0.734375 C 10.671875 0.730469 10.671875 0.726562 10.671875 0.726562 C 10.671875 0.734375 10.671875 0.742188 10.675781 0.753906 C 10.691406 0.789062 10.710938 0.824219 10.742188 0.855469 C 10.773438 0.886719 10.808594 0.910156 10.847656 0.921875 C 10.855469 0.925781 10.863281 0.929688 10.871094 0.929688 C 10.871094 0.929688 10.871094 0.929688 10.867188 0.929688 L 0.347656 0.929688 C 0.347656 0.929688 0.34375 0.929688 0.34375 0.929688 C 0.351562 0.929688 0.359375 0.925781 0.367188 0.921875 C 0.40625 0.910156 0.441406 0.886719 0.472656 0.855469 C 0.503906 0.824219 0.527344 0.789062 0.539062 0.753906 C 0.542969 0.742188 0.542969 0.734375 0.546875 0.726562 C 0.546875 0.726562 0.546875 0.730469 0.546875 0.734375 Z M 0.546875 2.335938 "/></g></g><g style="fill:#b21a22;fill-opacity:1;"><g transform="translate(26.052546, 79.171859)"><path style="stroke:none" d="M 8.394531 -11.929688 L 8.394531 -10.1875 C 8.394531 -9.941406 8.316406 -9.746094 8.164062 -9.59375 C 8.011719 -9.4375 7.8125 -9.363281 7.570312 -9.363281 L 3.246094 -9.363281 L 3.246094 -9.90625 L 3.789062 -9.90625 L 3.789062 -6.925781 L 3.246094 -6.925781 L 3.246094 -7.46875 L 6.523438 -7.46875 C 6.765625 -7.46875 6.964844 -7.394531 7.117188 -7.242188 C 7.269531 -7.085938 7.347656 -6.890625 7.347656 -6.644531 L 7.347656 -4.902344 C 7.347656 -4.65625 7.269531 -4.460938 7.117188 -4.308594 C 6.964844 -4.152344 6.765625 -4.078125 6.523438 -4.078125 L 3.246094 -4.078125 L 3.246094 -4.621094 L 3.789062 -4.621094 L 3.789062 -0.277344 C 3.789062 -0.0351562 3.714844 0.164062 3.558594 0.316406 C 3.40625 0.46875 3.207031 0.546875 2.964844 0.546875 L 1.152344 0.546875 C 0.90625 0.546875 0.710938 0.46875 0.554688 0.316406 C 0.402344 0.164062 0.328125 -0.0351562 0.328125 -0.277344 L 0.328125 -11.929688 C 0.328125 -12.175781 0.402344 -12.371094 0.554688 -12.527344 C 0.710938 -12.679688 0.90625 -12.753906 1.152344 -12.753906 L 7.570312 -12.753906 C 7.8125 -12.753906 8.011719 -12.679688 8.164062 -12.527344 C 8.316406 -12.371094 8.394531 -12.175781 8.394531 -11.929688 Z M 7.304688 -11.929688 C 7.304688 -11.917969 7.308594 -11.902344 7.316406 -11.878906 C 7.332031 -11.835938 7.355469 -11.792969 7.394531 -11.753906 C 7.429688 -11.71875 7.472656 -11.691406 7.519531 -11.675781 C 7.542969 -11.667969 7.558594 -11.664062 7.570312 -11.664062 L 1.152344 -11.664062 C 1.164062 -11.664062 1.179688 -11.667969 1.203125 -11.675781 C 1.246094 -11.691406 1.289062 -11.71875 1.328125 -11.753906 C 1.363281 -11.792969 1.390625 -11.835938 1.40625 -11.878906 C 1.414062 -11.902344 1.417969 -11.917969 1.417969 -11.929688 L 1.417969 -0.277344 C 1.417969 -0.292969 1.414062 -0.308594 1.40625 -0.328125 C 1.390625 -0.375 1.363281 -0.417969 1.328125 -0.457031 C 1.289062 -0.492188 1.246094 -0.519531 1.203125 -0.535156 C 1.179688 -0.542969 1.164062 -0.546875 1.152344 -0.546875 L 2.964844 -0.546875 C 2.953125 -0.546875 2.9375 -0.542969 2.914062 -0.535156 C 2.867188 -0.519531 2.828125 -0.492188 2.789062 -0.457031 C 2.75 -0.417969 2.726562 -0.375 2.710938 -0.328125 C 2.703125 -0.308594 2.699219 -0.292969 2.699219 -0.277344 L 2.699219 -5.167969 L 6.523438 -5.167969 C 6.511719 -5.167969 6.496094 -5.164062 6.472656 -5.15625 C 6.425781 -5.140625 6.386719 -5.113281 6.347656 -5.078125 C 6.308594 -5.039062 6.285156 -5 6.269531 -4.953125 C 6.261719 -4.929688 6.257812 -4.914062 6.257812 -4.902344 L 6.257812 -6.644531 C 6.257812 -6.632812 6.261719 -6.617188 6.269531 -6.59375 C 6.285156 -6.550781 6.308594 -6.507812 6.347656 -6.46875 C 6.386719 -6.433594 6.425781 -6.40625 6.472656 -6.390625 C 6.496094 -6.382812 6.511719 -6.378906 6.523438 -6.378906 L 2.699219 -6.378906 L 2.699219 -10.453125 L 7.570312 -10.453125 C 7.558594 -10.453125 7.542969 -10.449219 7.519531 -10.441406 C 7.472656 -10.425781 7.429688 -10.398438 7.394531 -10.363281 C 7.355469 -10.324219 7.332031 -10.285156 7.316406 -10.238281 C 7.308594 -10.214844 7.304688 -10.199219 7.304688 -10.1875 Z M 7.304688 -11.929688 "/></g></g><g style="fill:#b21a22;fill-opacity:1;"><g transform="translate(34.771277, 79.171859)"><path style="stroke:none" d="M 2.699219 -2.300781 L 2.699219 -11.929688 C 2.699219 -11.917969 2.703125 -11.902344 2.710938 -11.878906 C 2.726562 -11.835938 2.75 -11.792969 2.789062 -11.753906 C 2.828125 -11.71875 2.867188 -11.691406 2.914062 -11.675781 C 2.9375 -11.667969 2.953125 -11.664062 2.964844 -11.664062 L 1.152344 -11.664062 C 1.164062 -11.664062 1.179688 -11.667969 1.203125 -11.675781 C 1.246094 -11.691406 1.289062 -11.71875 1.328125 -11.753906 C 1.363281 -11.792969 1.390625 -11.835938 1.40625 -11.878906 C 1.414062 -11.902344 1.417969 -11.917969 1.417969 -11.929688 L 1.417969 -0.277344 C 1.417969 -0.292969 1.414062 -0.308594 1.40625 -0.328125 C 1.390625 -0.375 1.363281 -0.417969 1.328125 -0.457031 C 1.289062 -0.492188 1.246094 -0.519531 1.203125 -0.535156 C 1.179688 -0.542969 1.164062 -0.546875 1.152344 -0.546875 L 6.699219 -0.546875 C 6.6875 -0.546875 6.667969 -0.542969 6.648438 -0.535156 C 6.601562 -0.519531 6.558594 -0.492188 6.523438 -0.457031 C 6.484375 -0.417969 6.457031 -0.375 6.441406 -0.328125 C 6.4375 -0.308594 6.433594 -0.292969 6.433594 -0.277344 L 6.433594 -2.023438 C 6.433594 -2.011719 6.4375 -1.996094 6.441406 -1.972656 C 6.457031 -1.925781 6.484375 -1.882812 6.523438 -1.847656 C 6.558594 -1.808594 6.601562 -1.785156 6.648438 -1.769531 C 6.667969 -1.761719 6.6875 -1.757812 6.699219 -1.757812 L 2.699219 -1.757812 Z M 3.789062 -2.300781 L 3.246094 -2.300781 L 3.246094 -2.847656 L 6.699219 -2.847656 C 6.941406 -2.847656 7.140625 -2.769531 7.292969 -2.617188 C 7.445312 -2.464844 7.523438 -2.265625 7.523438 -2.023438 L 7.523438 -0.277344 C 7.523438 -0.0351562 7.445312 0.164062 7.292969 0.316406 C 7.140625 0.46875 6.941406 0.546875 6.699219 0.546875 L 1.152344 0.546875 C 0.90625 0.546875 0.710938 0.46875 0.554688 0.316406 C 0.402344 0.164062 0.328125 -0.0351562 0.328125 -0.277344 L 0.328125 -11.929688 C 0.328125 -12.175781 0.402344 -12.371094 0.554688 -12.527344 C 0.710938 -12.679688 0.90625 -12.753906 1.152344 -12.753906 L 2.964844 -12.753906 C 3.207031 -12.753906 3.40625 -12.679688 3.558594 -12.527344 C 3.714844 -12.371094 3.789062 -12.175781 3.789062 -11.929688 Z M 3.789062 -2.300781 "/></g></g><g style="fill:#b21a22;fill-opacity:1;"><g transform="translate(42.618135, 79.171859)"><path style="stroke:none" d="M 9.105469 0.546875 L 7.414062 0.546875 C 7.199219 0.546875 7.019531 0.480469 6.871094 0.347656 C 6.734375 0.230469 6.644531 0.0703125 6.601562 -0.128906 L 7.132812 -0.246094 L 6.605469 -0.109375 L 6.046875 -2.308594 L 6.574219 -2.441406 L 6.574219 -1.898438 L 3.296875 -1.898438 L 3.296875 -2.441406 L 3.824219 -2.3125 L 3.285156 -0.113281 L 2.757812 -0.246094 L 3.289062 -0.128906 C 3.246094 0.0703125 3.15625 0.230469 3.019531 0.347656 C 2.871094 0.480469 2.6875 0.546875 2.476562 0.546875 L 0.765625 0.546875 C 0.484375 0.546875 0.269531 0.449219 0.121094 0.257812 C -0.0273438 0.0625 -0.0625 -0.175781 0.0195312 -0.449219 L 0.539062 -0.296875 L 0.0117188 -0.429688 L 2.90625 -12.097656 L 3.4375 -11.964844 L 2.902344 -12.082031 C 2.945312 -12.285156 3.042969 -12.449219 3.191406 -12.570312 C 3.339844 -12.695312 3.519531 -12.753906 3.734375 -12.753906 L 6.15625 -12.753906 C 6.371094 -12.753906 6.550781 -12.695312 6.699219 -12.570312 C 6.847656 -12.449219 6.941406 -12.285156 6.988281 -12.082031 L 6.453125 -11.964844 L 6.984375 -12.097656 L 9.878906 -0.429688 L 9.347656 -0.296875 L 9.871094 -0.449219 C 9.957031 -0.167969 9.914062 0.0742188 9.753906 0.273438 C 9.601562 0.453125 9.386719 0.546875 9.105469 0.546875 Z M 9.105469 -0.546875 C 9.109375 -0.546875 9.109375 -0.546875 9.113281 -0.546875 C 9.113281 -0.546875 9.109375 -0.546875 9.109375 -0.546875 C 9.101562 -0.542969 9.089844 -0.539062 9.074219 -0.535156 C 9.011719 -0.515625 8.957031 -0.476562 8.910156 -0.421875 C 8.859375 -0.355469 8.828125 -0.285156 8.824219 -0.210938 C 8.820312 -0.179688 8.820312 -0.15625 8.828125 -0.144531 L 8.824219 -0.152344 L 5.921875 -11.84375 L 5.921875 -11.851562 C 5.929688 -11.808594 5.957031 -11.769531 6.007812 -11.726562 C 6.058594 -11.6875 6.109375 -11.664062 6.15625 -11.664062 L 3.734375 -11.664062 C 3.78125 -11.664062 3.832031 -11.6875 3.882812 -11.726562 C 3.929688 -11.769531 3.960938 -11.808594 3.96875 -11.851562 L 3.96875 -11.84375 L 1.066406 -0.152344 L 1.0625 -0.144531 C 1.066406 -0.152344 1.066406 -0.171875 1.066406 -0.199219 C 1.0625 -0.273438 1.035156 -0.339844 0.988281 -0.40625 C 0.9375 -0.46875 0.882812 -0.511719 0.8125 -0.535156 C 0.792969 -0.542969 0.777344 -0.546875 0.765625 -0.546875 L 2.476562 -0.546875 C 2.414062 -0.546875 2.355469 -0.519531 2.300781 -0.472656 C 2.257812 -0.433594 2.230469 -0.394531 2.222656 -0.359375 L 2.226562 -0.367188 L 2.871094 -2.988281 L 7 -2.988281 L 7.664062 -0.367188 L 7.667969 -0.359375 C 7.660156 -0.394531 7.632812 -0.433594 7.589844 -0.472656 C 7.53125 -0.519531 7.472656 -0.546875 7.414062 -0.546875 Z M 5.503906 -4.34375 L 4.40625 -9.085938 L 4.9375 -9.210938 L 5.46875 -9.085938 L 4.367188 -4.34375 L 3.835938 -4.464844 L 3.835938 -5.011719 L 6.035156 -5.011719 L 6.035156 -4.464844 Z M 6.722656 -3.921875 L 3.152344 -3.921875 L 4.40625 -9.332031 L 5.46875 -9.332031 L 6.566406 -4.589844 Z M 6.722656 -3.921875 "/></g></g><g style="fill:#b21a22;fill-opacity:1;"><g transform="translate(52.505179, 79.171859)"><path style="stroke:none" d="M 3.382812 -12.753906 L 5.335938 -12.753906 C 6.3125 -12.753906 7.066406 -12.488281 7.597656 -11.957031 C 8.128906 -11.429688 8.394531 -10.675781 8.394531 -9.699219 L 8.394531 -8.546875 C 8.394531 -8.304688 8.316406 -8.105469 8.164062 -7.953125 C 8.011719 -7.800781 7.8125 -7.722656 7.570312 -7.722656 L 5.808594 -7.722656 C 5.566406 -7.722656 5.367188 -7.800781 5.214844 -7.953125 C 5.0625 -8.105469 4.984375 -8.304688 4.984375 -8.546875 L 4.984375 -9.28125 C 4.984375 -9.335938 4.980469 -9.382812 4.96875 -9.414062 C 4.964844 -9.417969 4.964844 -9.421875 4.964844 -9.425781 C 4.964844 -9.421875 4.96875 -9.421875 4.96875 -9.417969 C 4.972656 -9.414062 4.972656 -9.414062 4.976562 -9.410156 C 4.972656 -9.414062 4.96875 -9.414062 4.964844 -9.417969 C 4.933594 -9.425781 4.890625 -9.433594 4.832031 -9.433594 L 3.871094 -9.433594 C 3.816406 -9.433594 3.769531 -9.425781 3.738281 -9.417969 C 3.734375 -9.414062 3.730469 -9.414062 3.726562 -9.410156 C 3.730469 -9.414062 3.730469 -9.414062 3.734375 -9.417969 C 3.738281 -9.421875 3.738281 -9.421875 3.738281 -9.425781 C 3.738281 -9.421875 3.738281 -9.417969 3.734375 -9.414062 C 3.726562 -9.382812 3.71875 -9.335938 3.71875 -9.28125 L 3.71875 -7.796875 L 3.175781 -7.796875 L 3.34375 -8.316406 L 7.5625 -6.957031 C 7.832031 -6.863281 8.039062 -6.714844 8.183594 -6.511719 C 8.324219 -6.308594 8.394531 -6.070312 8.394531 -5.792969 L 8.394531 -2.511719 C 8.394531 -1.546875 8.128906 -0.800781 7.601562 -0.261719 C 7.070312 0.277344 6.316406 0.546875 5.335938 0.546875 L 3.382812 0.546875 C 2.417969 0.546875 1.667969 0.277344 1.132812 -0.261719 C 0.59375 -0.796875 0.328125 -1.546875 0.328125 -2.511719 L 0.328125 -3.644531 C 0.328125 -3.890625 0.402344 -4.085938 0.554688 -4.242188 C 0.710938 -4.394531 0.90625 -4.46875 1.152344 -4.46875 L 2.914062 -4.46875 C 3.15625 -4.46875 3.355469 -4.394531 3.507812 -4.242188 C 3.660156 -4.085938 3.738281 -3.890625 3.738281 -3.644531 L 3.738281 -2.914062 C 3.738281 -2.855469 3.742188 -2.8125 3.753906 -2.78125 C 3.753906 -2.773438 3.757812 -2.769531 3.757812 -2.769531 C 3.757812 -2.769531 3.753906 -2.773438 3.753906 -2.773438 C 3.75 -2.777344 3.746094 -2.78125 3.746094 -2.78125 C 3.746094 -2.78125 3.75 -2.777344 3.757812 -2.777344 C 3.789062 -2.765625 3.832031 -2.761719 3.890625 -2.761719 L 4.832031 -2.761719 C 4.890625 -2.761719 4.933594 -2.765625 4.964844 -2.777344 C 4.96875 -2.777344 4.972656 -2.78125 4.976562 -2.78125 C 4.972656 -2.78125 4.972656 -2.777344 4.96875 -2.773438 C 4.96875 -2.773438 4.964844 -2.769531 4.964844 -2.769531 C 4.964844 -2.769531 4.964844 -2.773438 4.96875 -2.78125 C 4.980469 -2.8125 4.984375 -2.855469 4.984375 -2.914062 L 4.984375 -4.675781 L 5.53125 -4.675781 L 5.359375 -4.15625 L 1.175781 -5.515625 C 0.90625 -5.605469 0.695312 -5.753906 0.550781 -5.953125 C 0.402344 -6.15625 0.328125 -6.398438 0.328125 -6.679688 L 0.328125 -9.699219 C 0.328125 -10.675781 0.597656 -11.429688 1.132812 -11.960938 C 1.671875 -12.492188 2.421875 -12.753906 3.382812 -12.753906 Z M 3.382812 -11.664062 C 2.71875 -11.664062 2.222656 -11.503906 1.898438 -11.183594 C 1.578125 -10.867188 1.417969 -10.371094 1.417969 -9.699219 L 1.417969 -6.679688 C 1.417969 -6.636719 1.421875 -6.609375 1.429688 -6.597656 C 1.441406 -6.582031 1.46875 -6.570312 1.511719 -6.554688 L 6.074219 -5.070312 L 6.074219 -2.914062 C 6.074219 -2.53125 5.964844 -2.226562 5.742188 -2.003906 C 5.519531 -1.78125 5.214844 -1.671875 4.832031 -1.671875 L 3.890625 -1.671875 C 3.507812 -1.671875 3.203125 -1.78125 2.980469 -2.003906 C 2.757812 -2.226562 2.648438 -2.53125 2.648438 -2.914062 L 2.648438 -3.644531 C 2.648438 -3.632812 2.652344 -3.617188 2.65625 -3.59375 C 2.671875 -3.546875 2.699219 -3.507812 2.738281 -3.46875 C 2.773438 -3.433594 2.816406 -3.40625 2.863281 -3.390625 C 2.882812 -3.382812 2.902344 -3.378906 2.914062 -3.378906 L 1.152344 -3.378906 C 1.164062 -3.378906 1.179688 -3.382812 1.203125 -3.390625 C 1.246094 -3.40625 1.289062 -3.433594 1.328125 -3.46875 C 1.363281 -3.507812 1.390625 -3.546875 1.40625 -3.59375 C 1.414062 -3.617188 1.417969 -3.632812 1.417969 -3.644531 L 1.417969 -2.511719 C 1.417969 -1.847656 1.578125 -1.355469 1.902344 -1.03125 C 2.226562 -0.707031 2.71875 -0.546875 3.382812 -0.546875 L 5.335938 -0.546875 C 6.011719 -0.546875 6.507812 -0.707031 6.824219 -1.027344 C 7.144531 -1.351562 7.304688 -1.847656 7.304688 -2.511719 L 7.304688 -5.792969 C 7.304688 -5.839844 7.300781 -5.871094 7.289062 -5.882812 C 7.28125 -5.894531 7.261719 -5.90625 7.230469 -5.917969 L 2.628906 -7.398438 L 2.628906 -9.28125 C 2.628906 -9.664062 2.742188 -9.964844 2.964844 -10.1875 C 3.1875 -10.410156 3.488281 -10.523438 3.871094 -10.523438 L 4.832031 -10.523438 C 5.214844 -10.523438 5.519531 -10.410156 5.742188 -10.1875 C 5.964844 -9.964844 6.074219 -9.664062 6.074219 -9.28125 L 6.074219 -8.546875 C 6.074219 -8.558594 6.070312 -8.578125 6.0625 -8.597656 C 6.046875 -8.644531 6.023438 -8.6875 5.984375 -8.722656 C 5.945312 -8.761719 5.90625 -8.785156 5.859375 -8.800781 C 5.835938 -8.808594 5.820312 -8.8125 5.808594 -8.8125 L 7.570312 -8.8125 C 7.558594 -8.8125 7.542969 -8.808594 7.519531 -8.800781 C 7.472656 -8.785156 7.429688 -8.761719 7.394531 -8.722656 C 7.355469 -8.6875 7.332031 -8.644531 7.316406 -8.597656 C 7.308594 -8.578125 7.304688 -8.558594 7.304688 -8.546875 L 7.304688 -9.699219 C 7.304688 -10.375 7.144531 -10.871094 6.828125 -11.1875 C 6.507812 -11.507812 6.011719 -11.664062 5.335938 -11.664062 Z M 3.382812 -11.664062 "/></g></g><g style="fill:#b21a22;fill-opacity:1;"><g transform="translate(61.22391, 79.171859)"><path style="stroke:none" d="M 4.933594 -7.222656 L 4.933594 -11.929688 C 4.933594 -12.175781 5.007812 -12.371094 5.160156 -12.527344 C 5.3125 -12.679688 5.511719 -12.753906 5.757812 -12.753906 L 7.554688 -12.753906 C 7.796875 -12.753906 7.996094 -12.683594 8.148438 -12.539062 C 8.3125 -12.382812 8.394531 -12.179688 8.394531 -11.929688 L 8.394531 -0.277344 C 8.394531 -0.0273438 8.3125 0.171875 8.148438 0.328125 C 7.996094 0.472656 7.796875 0.546875 7.554688 0.546875 L 5.757812 0.546875 C 5.511719 0.546875 5.3125 0.46875 5.160156 0.316406 C 5.007812 0.164062 4.933594 -0.0351562 4.933594 -0.277344 L 4.933594 -4.917969 L 5.476562 -4.917969 L 5.476562 -4.375 L 3.246094 -4.375 L 3.246094 -4.917969 L 3.789062 -4.917969 L 3.789062 -0.277344 C 3.789062 -0.0351562 3.714844 0.164062 3.558594 0.316406 C 3.40625 0.46875 3.207031 0.546875 2.964844 0.546875 L 1.167969 0.546875 C 0.925781 0.546875 0.726562 0.472656 0.574219 0.328125 C 0.410156 0.171875 0.328125 -0.0273438 0.328125 -0.277344 L 0.328125 -11.929688 C 0.328125 -12.179688 0.410156 -12.382812 0.574219 -12.539062 C 0.726562 -12.683594 0.925781 -12.753906 1.167969 -12.753906 L 2.964844 -12.753906 C 3.207031 -12.753906 3.40625 -12.679688 3.558594 -12.527344 C 3.714844 -12.371094 3.789062 -12.175781 3.789062 -11.929688 L 3.789062 -7.222656 L 3.246094 -7.222656 L 3.246094 -7.765625 L 5.476562 -7.765625 L 5.476562 -7.222656 Z M 6.023438 -6.675781 L 2.699219 -6.675781 L 2.699219 -11.929688 C 2.699219 -11.917969 2.703125 -11.902344 2.710938 -11.878906 C 2.726562 -11.835938 2.75 -11.792969 2.789062 -11.753906 C 2.828125 -11.71875 2.867188 -11.691406 2.914062 -11.675781 C 2.9375 -11.667969 2.953125 -11.664062 2.964844 -11.664062 L 1.167969 -11.664062 C 1.175781 -11.664062 1.1875 -11.667969 1.203125 -11.671875 C 1.246094 -11.6875 1.285156 -11.710938 1.320312 -11.742188 C 1.359375 -11.78125 1.386719 -11.824219 1.40625 -11.871094 C 1.414062 -11.894531 1.417969 -11.914062 1.417969 -11.929688 L 1.417969 -0.277344 C 1.417969 -0.296875 1.414062 -0.316406 1.40625 -0.339844 C 1.386719 -0.386719 1.359375 -0.429688 1.320312 -0.464844 C 1.285156 -0.5 1.246094 -0.523438 1.203125 -0.539062 C 1.1875 -0.542969 1.175781 -0.546875 1.167969 -0.546875 L 2.964844 -0.546875 C 2.953125 -0.546875 2.9375 -0.542969 2.914062 -0.535156 C 2.867188 -0.519531 2.828125 -0.492188 2.789062 -0.457031 C 2.75 -0.417969 2.726562 -0.375 2.710938 -0.328125 C 2.703125 -0.308594 2.699219 -0.292969 2.699219 -0.277344 L 2.699219 -5.464844 L 6.023438 -5.464844 L 6.023438 -0.277344 C 6.023438 -0.292969 6.019531 -0.308594 6.011719 -0.328125 C 5.996094 -0.375 5.96875 -0.417969 5.933594 -0.457031 C 5.894531 -0.492188 5.851562 -0.519531 5.804688 -0.535156 C 5.785156 -0.542969 5.769531 -0.546875 5.757812 -0.546875 L 7.554688 -0.546875 C 7.546875 -0.546875 7.535156 -0.542969 7.519531 -0.539062 C 7.476562 -0.523438 7.4375 -0.5 7.402344 -0.464844 C 7.363281 -0.429688 7.335938 -0.386719 7.316406 -0.339844 C 7.308594 -0.316406 7.304688 -0.296875 7.304688 -0.277344 L 7.304688 -11.929688 C 7.304688 -11.914062 7.308594 -11.894531 7.316406 -11.871094 C 7.335938 -11.824219 7.363281 -11.78125 7.402344 -11.742188 C 7.4375 -11.710938 7.476562 -11.6875 7.519531 -11.671875 C 7.535156 -11.667969 7.546875 -11.664062 7.554688 -11.664062 L 5.757812 -11.664062 C 5.769531 -11.664062 5.785156 -11.667969 5.804688 -11.675781 C 5.851562 -11.691406 5.894531 -11.71875 5.933594 -11.753906 C 5.96875 -11.792969 5.996094 -11.835938 6.011719 -11.878906 C 6.019531 -11.902344 6.023438 -11.917969 6.023438 -11.929688 Z M 6.023438 -6.675781 "/></g></g><g style="fill:#060705;fill-opacity:1;"><g transform="translate(25.638026, 30.534914)"><path style="stroke:none" d="M 3.390625 -12.203125 L 5.328125 -12.203125 C 6.160156 -12.203125 6.785156 -11.988281 7.203125 -11.5625 C 7.628906 -11.144531 7.84375 -10.519531 7.84375 -9.6875 L 7.84375 -8.546875 C 7.84375 -8.359375 7.75 -8.265625 7.5625 -8.265625 L 5.8125 -8.265625 C 5.625 -8.265625 5.53125 -8.359375 5.53125 -8.546875 L 5.53125 -9.28125 C 5.53125 -9.738281 5.296875 -9.96875 4.828125 -9.96875 L 3.875 -9.96875 C 3.40625 -9.96875 3.171875 -9.738281 3.171875 -9.28125 L 3.171875 -7.796875 L 7.390625 -6.4375 C 7.691406 -6.332031 7.84375 -6.117188 7.84375 -5.796875 L 7.84375 -2.515625 C 7.84375 -1.703125 7.628906 -1.078125 7.203125 -0.640625 C 6.785156 -0.210938 6.160156 0 5.328125 0 L 3.390625 0 C 2.566406 0 1.941406 -0.210938 1.515625 -0.640625 C 1.085938 -1.078125 0.875 -1.703125 0.875 -2.515625 L 0.875 -3.640625 C 0.875 -3.828125 0.96875 -3.921875 1.15625 -3.921875 L 2.90625 -3.921875 C 3.09375 -3.921875 3.1875 -3.828125 3.1875 -3.640625 L 3.1875 -2.90625 C 3.1875 -2.445312 3.421875 -2.21875 3.890625 -2.21875 L 4.828125 -2.21875 C 5.296875 -2.21875 5.53125 -2.445312 5.53125 -2.90625 L 5.53125 -4.671875 L 1.34375 -6.03125 C 1.03125 -6.132812 0.875 -6.347656 0.875 -6.671875 L 0.875 -9.6875 C 0.875 -10.519531 1.085938 -11.144531 1.515625 -11.5625 C 1.941406 -11.988281 2.566406 -12.203125 3.390625 -12.203125 Z M 3.390625 -12.203125 "/></g></g><g style="fill:#060705;fill-opacity:1;"><g transform="translate(34.356758, 30.534914)"><path style="stroke:none" d="M 7.21875 -12.203125 L 0.796875 -12.203125 C 0.609375 -12.203125 0.515625 -12.109375 0.515625 -11.921875 L 0.515625 -10.1875 C 0.515625 -10 0.609375 -9.90625 0.796875 -9.90625 L 2.828125 -9.90625 L 2.828125 -0.28125 C 2.828125 -0.09375 2.921875 0 3.109375 0 L 4.921875 0 C 5.109375 0 5.203125 -0.09375 5.203125 -0.28125 L 5.203125 -9.90625 L 7.21875 -9.90625 C 7.40625 -9.90625 7.5 -10 7.5 -10.1875 L 7.5 -11.921875 C 7.5 -12.109375 7.40625 -12.203125 7.21875 -12.203125 Z M 7.21875 -12.203125 "/></g></g><g style="fill:#060705;fill-opacity:1;"><g transform="translate(42.377992, 30.534914)"><path style="stroke:none" d="M 9.109375 0 L 7.40625 0 C 7.257812 0 7.164062 -0.0820312 7.125 -0.25 L 6.578125 -2.4375 L 3.296875 -2.4375 L 2.75 -0.25 C 2.71875 -0.0820312 2.625 0 2.46875 0 L 0.765625 0 C 0.554688 0 0.484375 -0.0976562 0.546875 -0.296875 L 3.4375 -11.96875 C 3.46875 -12.125 3.566406 -12.203125 3.734375 -12.203125 L 6.15625 -12.203125 C 6.320312 -12.203125 6.421875 -12.125 6.453125 -11.96875 L 9.34375 -0.296875 C 9.40625 -0.0976562 9.328125 0 9.109375 0 Z M 6.03125 -4.46875 L 4.9375 -9.203125 L 3.84375 -4.46875 Z M 6.03125 -4.46875 "/></g></g><g style="fill:#060705;fill-opacity:1;"><g transform="translate(52.265036, 30.534914)"><path style="stroke:none" d="M 7.859375 -9.6875 L 7.859375 -7.8125 C 7.859375 -7.625 7.765625 -7.53125 7.578125 -7.53125 L 5.953125 -7.53125 C 5.765625 -7.53125 5.671875 -7.625 5.671875 -7.8125 L 5.671875 -9.234375 C 5.671875 -9.703125 5.4375 -9.9375 4.96875 -9.9375 L 3.859375 -9.9375 C 3.390625 -9.9375 3.15625 -9.703125 3.15625 -9.234375 L 3.15625 -2.90625 C 3.15625 -2.445312 3.390625 -2.21875 3.859375 -2.21875 L 4.96875 -2.21875 C 5.4375 -2.21875 5.671875 -2.445312 5.671875 -2.90625 L 5.671875 -4.390625 C 5.671875 -4.578125 5.765625 -4.671875 5.953125 -4.671875 L 7.578125 -4.671875 C 7.765625 -4.671875 7.859375 -4.578125 7.859375 -4.390625 L 7.859375 -2.515625 C 7.859375 -1.703125 7.644531 -1.078125 7.21875 -0.640625 C 6.789062 -0.210938 6.171875 0 5.359375 0 L 3.40625 0 C 2.582031 0 1.953125 -0.210938 1.515625 -0.640625 C 1.085938 -1.078125 0.875 -1.703125 0.875 -2.515625 L 0.875 -9.6875 C 0.875 -10.519531 1.085938 -11.144531 1.515625 -11.5625 C 1.953125 -11.988281 2.582031 -12.203125 3.40625 -12.203125 L 5.359375 -12.203125 C 6.171875 -12.203125 6.789062 -11.988281 7.21875 -11.5625 C 7.644531 -11.144531 7.859375 -10.519531 7.859375 -9.6875 Z M 7.859375 -9.6875 "/></g></g><g style="fill:#060705;fill-opacity:1;"><g transform="translate(61.001208, 30.534914)"><path style="stroke:none" d="M 8.328125 0 L 6.484375 0 C 6.304688 0 6.171875 -0.0859375 6.078125 -0.265625 L 3.890625 -4.5625 L 3.25 -3.328125 L 3.25 -0.34375 C 3.25 -0.113281 3.128906 0 2.890625 0 L 1.21875 0 C 0.988281 0 0.875 -0.113281 0.875 -0.34375 L 0.875 -11.859375 C 0.875 -12.085938 0.988281 -12.203125 1.21875 -12.203125 L 2.890625 -12.203125 C 3.128906 -12.203125 3.25 -12.085938 3.25 -11.859375 L 3.25 -7.328125 L 5.921875 -11.9375 C 6.015625 -12.113281 6.148438 -12.203125 6.328125 -12.203125 L 8.15625 -12.203125 C 8.289062 -12.203125 8.382812 -12.160156 8.4375 -12.078125 C 8.488281 -12.003906 8.476562 -11.90625 8.40625 -11.78125 L 5.4375 -6.578125 L 8.59375 -0.40625 C 8.65625 -0.289062 8.660156 -0.191406 8.609375 -0.109375 C 8.566406 -0.0351562 8.472656 0 8.328125 0 Z M 8.328125 0 "/></g></g><g style="fill:#060705;fill-opacity:1;"><g transform="translate(24.802079, 54.853386)"><path style="stroke:none" d="M 9.109375 0 L 7.40625 0 C 7.257812 0 7.164062 -0.0820312 7.125 -0.25 L 6.578125 -2.4375 L 3.296875 -2.4375 L 2.75 -0.25 C 2.71875 -0.0820312 2.625 0 2.46875 0 L 0.765625 0 C 0.554688 0 0.484375 -0.0976562 0.546875 -0.296875 L 3.4375 -11.96875 C 3.46875 -12.125 3.566406 -12.203125 3.734375 -12.203125 L 6.15625 -12.203125 C 6.320312 -12.203125 6.421875 -12.125 6.453125 -11.96875 L 9.34375 -0.296875 C 9.40625 -0.0976562 9.328125 0 9.109375 0 Z M 6.03125 -4.46875 L 4.9375 -9.203125 L 3.84375 -4.46875 Z M 6.03125 -4.46875 "/></g></g><g style="fill:#060705;fill-opacity:1;"><g transform="translate(34.689122, 54.853386)"><path style="stroke:none" d="M 7.859375 -9.6875 L 7.859375 -7.34375 C 7.859375 -7.019531 7.753906 -6.742188 7.546875 -6.515625 C 7.335938 -6.296875 7.078125 -6.160156 6.765625 -6.109375 L 6.765625 -6.0625 C 7.078125 -6.019531 7.335938 -5.882812 7.546875 -5.65625 C 7.753906 -5.425781 7.859375 -5.148438 7.859375 -4.828125 L 7.859375 -2.515625 C 7.859375 -1.703125 7.644531 -1.078125 7.21875 -0.640625 C 6.789062 -0.210938 6.160156 0 5.328125 0 L 1.15625 0 C 0.96875 0 0.875 -0.09375 0.875 -0.28125 L 0.875 -11.921875 C 0.875 -12.109375 0.96875 -12.203125 1.15625 -12.203125 L 5.328125 -12.203125 C 6.160156 -12.203125 6.789062 -11.988281 7.21875 -11.5625 C 7.644531 -11.144531 7.859375 -10.519531 7.859375 -9.6875 Z M 5.65625 -7.921875 L 5.65625 -9.3125 C 5.65625 -9.78125 5.421875 -10.015625 4.953125 -10.015625 L 3.03125 -10.015625 L 3.03125 -7.234375 L 4.953125 -7.234375 C 5.421875 -7.234375 5.65625 -7.460938 5.65625 -7.921875 Z M 5.65625 -2.890625 L 5.65625 -4.234375 C 5.65625 -4.703125 5.421875 -4.9375 4.953125 -4.9375 L 3.03125 -4.9375 L 3.03125 -2.203125 L 4.953125 -2.203125 C 5.421875 -2.203125 5.65625 -2.429688 5.65625 -2.890625 Z M 5.65625 -2.890625 "/></g></g><g style="fill:#060705;fill-opacity:1;"><g transform="translate(43.425294, 54.853386)"><path style="stroke:none" d="M 3.25 -2.296875 L 3.25 -11.921875 C 3.25 -12.109375 3.15625 -12.203125 2.96875 -12.203125 L 1.15625 -12.203125 C 0.96875 -12.203125 0.875 -12.109375 0.875 -11.921875 L 0.875 -0.28125 C 0.875 -0.09375 0.96875 0 1.15625 0 L 6.703125 0 C 6.878906 0 6.96875 -0.09375 6.96875 -0.28125 L 6.96875 -2.015625 C 6.96875 -2.203125 6.878906 -2.296875 6.703125 -2.296875 Z M 3.25 -2.296875 "/></g></g><g style="fill:#060705;fill-opacity:1;"><g transform="translate(51.272152, 54.853386)"><path style="stroke:none" d="M 7.828125 -11.921875 L 7.828125 -10.1875 C 7.828125 -9.988281 7.734375 -9.890625 7.546875 -9.890625 L 3.25 -9.890625 L 3.25 -7.203125 L 6.515625 -7.203125 C 6.703125 -7.203125 6.796875 -7.101562 6.796875 -6.90625 L 6.796875 -5.171875 C 6.796875 -4.972656 6.703125 -4.875 6.515625 -4.875 L 3.25 -4.875 L 3.25 -2.296875 L 7.546875 -2.296875 C 7.734375 -2.296875 7.828125 -2.203125 7.828125 -2.015625 L 7.828125 -0.28125 C 7.828125 -0.09375 7.734375 0 7.546875 0 L 1.140625 0 C 0.960938 0 0.875 -0.09375 0.875 -0.28125 L 0.875 -11.921875 C 0.875 -12.109375 0.960938 -12.203125 1.140625 -12.203125 L 7.546875 -12.203125 C 7.734375 -12.203125 7.828125 -12.109375 7.828125 -11.921875 Z M 7.828125 -11.921875 "/></g></g><g style="fill:#060705;fill-opacity:1;"><g transform="translate(59.973443, 54.853386)"><path style="stroke:none" d="M 0 2.34375 L 0 0.734375 C 0 0.503906 0.113281 0.390625 0.34375 0.390625 L 10.859375 0.390625 C 11.097656 0.390625 11.21875 0.503906 11.21875 0.734375 L 11.21875 2.34375 C 11.21875 2.570312 11.097656 2.6875 10.859375 2.6875 L 0.34375 2.6875 C 0.113281 2.6875 0 2.570312 0 2.34375 Z M 0 2.34375 "/></g></g><g style="fill:#060705;fill-opacity:1;"><g transform="translate(26.052546, 79.171859)"><path style="stroke:none" d="M 7.84375 -11.921875 L 7.84375 -10.1875 C 7.84375 -10 7.75 -9.90625 7.5625 -9.90625 L 3.25 -9.90625 L 3.25 -6.921875 L 6.515625 -6.921875 C 6.703125 -6.921875 6.796875 -6.828125 6.796875 -6.640625 L 6.796875 -4.90625 C 6.796875 -4.71875 6.703125 -4.625 6.515625 -4.625 L 3.25 -4.625 L 3.25 -0.28125 C 3.25 -0.09375 3.15625 0 2.96875 0 L 1.15625 0 C 0.96875 0 0.875 -0.09375 0.875 -0.28125 L 0.875 -11.921875 C 0.875 -12.109375 0.96875 -12.203125 1.15625 -12.203125 L 7.5625 -12.203125 C 7.75 -12.203125 7.84375 -12.109375 7.84375 -11.921875 Z M 7.84375 -11.921875 "/></g></g><g style="fill:#060705;fill-opacity:1;"><g transform="translate(34.771277, 79.171859)"><path style="stroke:none" d="M 3.25 -2.296875 L 3.25 -11.921875 C 3.25 -12.109375 3.15625 -12.203125 2.96875 -12.203125 L 1.15625 -12.203125 C 0.96875 -12.203125 0.875 -12.109375 0.875 -11.921875 L 0.875 -0.28125 C 0.875 -0.09375 0.96875 0 1.15625 0 L 6.703125 0 C 6.878906 0 6.96875 -0.09375 6.96875 -0.28125 L 6.96875 -2.015625 C 6.96875 -2.203125 6.878906 -2.296875 6.703125 -2.296875 Z M 3.25 -2.296875 "/></g></g><g style="fill:#060705;fill-opacity:1;"><g transform="translate(42.618135, 79.171859)"><path style="stroke:none" d="M 9.109375 0 L 7.40625 0 C 7.257812 0 7.164062 -0.0820312 7.125 -0.25 L 6.578125 -2.4375 L 3.296875 -2.4375 L 2.75 -0.25 C 2.71875 -0.0820312 2.625 0 2.46875 0 L 0.765625 0 C 0.554688 0 0.484375 -0.0976562 0.546875 -0.296875 L 3.4375 -11.96875 C 3.46875 -12.125 3.566406 -12.203125 3.734375 -12.203125 L 6.15625 -12.203125 C 6.320312 -12.203125 6.421875 -12.125 6.453125 -11.96875 L 9.34375 -0.296875 C 9.40625 -0.0976562 9.328125 0 9.109375 0 Z M 6.03125 -4.46875 L 4.9375 -9.203125 L 3.84375 -4.46875 Z M 6.03125 -4.46875 "/></g></g><g style="fill:#060705;fill-opacity:1;"><g transform="translate(52.505179, 79.171859)"><path style="stroke:none" d="M 3.390625 -12.203125 L 5.328125 -12.203125 C 6.160156 -12.203125 6.785156 -11.988281 7.203125 -11.5625 C 7.628906 -11.144531 7.84375 -10.519531 7.84375 -9.6875 L 7.84375 -8.546875 C 7.84375 -8.359375 7.75 -8.265625 7.5625 -8.265625 L 5.8125 -8.265625 C 5.625 -8.265625 5.53125 -8.359375 5.53125 -8.546875 L 5.53125 -9.28125 C 5.53125 -9.738281 5.296875 -9.96875 4.828125 -9.96875 L 3.875 -9.96875 C 3.40625 -9.96875 3.171875 -9.738281 3.171875 -9.28125 L 3.171875 -7.796875 L 7.390625 -6.4375 C 7.691406 -6.332031 7.84375 -6.117188 7.84375 -5.796875 L 7.84375 -2.515625 C 7.84375 -1.703125 7.628906 -1.078125 7.203125 -0.640625 C 6.785156 -0.210938 6.160156 0 5.328125 0 L 3.390625 0 C 2.566406 0 1.941406 -0.210938 1.515625 -0.640625 C 1.085938 -1.078125 0.875 -1.703125 0.875 -2.515625 L 0.875 -3.640625 C 0.875 -3.828125 0.96875 -3.921875 1.15625 -3.921875 L 2.90625 -3.921875 C 3.09375 -3.921875 3.1875 -3.828125 3.1875 -3.640625 L 3.1875 -2.90625 C 3.1875 -2.445312 3.421875 -2.21875 3.890625 -2.21875 L 4.828125 -2.21875 C 5.296875 -2.21875 5.53125 -2.445312 5.53125 -2.90625 L 5.53125 -4.671875 L 1.34375 -6.03125 C 1.03125 -6.132812 0.875 -6.347656 0.875 -6.671875 L 0.875 -9.6875 C 0.875 -10.519531 1.085938 -11.144531 1.515625 -11.5625 C 1.941406 -11.988281 2.566406 -12.203125 3.390625 -12.203125 Z M 3.390625 -12.203125 "/></g></g><g style="fill:#060705;fill-opacity:1;"><g transform="translate(61.22391, 79.171859)"><path style="stroke:none" d="M 5.46875 -7.21875 L 5.46875 -11.921875 C 5.46875 -12.109375 5.5625 -12.203125 5.75 -12.203125 L 7.546875 -12.203125 C 7.742188 -12.203125 7.84375 -12.109375 7.84375 -11.921875 L 7.84375 -0.28125 C 7.84375 -0.09375 7.742188 0 7.546875 0 L 5.75 0 C 5.5625 0 5.46875 -0.09375 5.46875 -0.28125 L 5.46875 -4.921875 L 3.25 -4.921875 L 3.25 -0.28125 C 3.25 -0.09375 3.15625 0 2.96875 0 L 1.171875 0 C 0.972656 0 0.875 -0.09375 0.875 -0.28125 L 0.875 -11.921875 C 0.875 -12.109375 0.972656 -12.203125 1.171875 -12.203125 L 2.96875 -12.203125 C 3.15625 -12.203125 3.25 -12.109375 3.25 -11.921875 L 3.25 -7.21875 Z M 5.46875 -7.21875 "/></g></g></g></svg>