<svg xmlns="http://www.w3.org/2000/svg" xmlns:xlink="http://www.w3.org/1999/xlink" width="192" zoomAndPan="magnify" viewBox="0 0 144 143.999998" height="192" preserveAspectRatio="xMidYMid meet" version="1.2"><defs><clipPath id="48019632f7"><path d="M 9 0 L 135 0 L 135 144 L 9 144 Z M 9 0 "/></clipPath><clipPath id="cf4b06420a"><path d="M -21.457031 54.867188 L 103.039062 -17.847656 L 165.503906 89.105469 L 41.007812 161.816406 Z M -21.457031 54.867188 "/></clipPath><clipPath id="13f38ec47b"><path d="M 134.226562 35.65625 L 134.347656 107.300781 L 72.121094 143.644531 L 9.773438 108.34375 L 9.65625 36.695312 L 71.878906 0.351562 Z M 134.226562 35.65625 "/></clipPath><clipPath id="a3aa68795b"><path d="M 21.210938 13.683594 L 122.773438 13.683594 L 122.773438 130.261719 L 21.210938 130.261719 Z M 21.210938 13.683594 "/></clipPath></defs><g id="e060c60d8d"><g clip-rule="nonzero" clip-path="url(#48019632f7)"><g clip-rule="nonzero" clip-path="url(#cf4b06420a)"><g clip-rule="nonzero" clip-path="url(#13f38ec47b)"><path style=" stroke:none;fill-rule:nonzero;fill:#65b30e;fill-opacity:1;" d="M -21.457031 54.867188 L 103.039062 -17.847656 L 165.503906 89.105469 L 41.007812 161.816406 Z M -21.457031 54.867188 "/></g></g></g><path style=" stroke:none;fill-rule:nonzero;fill:#87ff00;fill-opacity:1;" d="M 51.679688 52.109375 L 51.613281 52.046875 L 37.261719 66.398438 L 72.113281 101.183594 L 86.46875 86.898438 L 106.960938 66.398438 L 92.609375 52.046875 L 92.609375 51.980469 L 51.617188 51.980469 Z M 51.679688 52.109375 "/><g clip-rule="nonzero" clip-path="url(#a3aa68795b)"><path style=" stroke:none;fill-rule:nonzero;fill:#87ff00;fill-opacity:1;" d="M 71.980469 13.765625 L 21.222656 42.863281 L 21.226562 101.058594 L 71.984375 130.15625 L 122.742188 101.058594 L 122.742188 42.863281 L 71.984375 13.769531 Z M 113.039062 95.496094 L 71.980469 119.160156 L 30.921875 95.496094 L 30.925781 48.292969 L 71.984375 24.628906 L 113.042969 48.292969 L 113.042969 95.492188 Z M 113.039062 95.496094 "/></g><g style="fill:#b21a22;fill-opacity:1;"><g transform="translate(16.321767, 64.849304)"><path style="stroke:none" d="M 4.558594 -17.191406 L 7.195312 -17.191406 C 8.507812 -17.191406 9.523438 -16.832031 10.238281 -16.117188 C 10.957031 -15.402344 11.3125 -14.386719 11.3125 -13.070312 L 11.3125 -11.519531 C 11.3125 -11.191406 11.210938 -10.921875 11.003906 -10.71875 C 10.796875 -10.511719 10.53125 -10.40625 10.203125 -10.40625 L 7.828125 -10.40625 C 7.5 -10.40625 7.234375 -10.511719 7.027344 -10.71875 C 6.820312 -10.921875 6.71875 -11.191406 6.71875 -11.519531 L 6.71875 -12.507812 C 6.71875 -12.582031 6.710938 -12.644531 6.695312 -12.683594 C 6.695312 -12.691406 6.691406 -12.699219 6.691406 -12.703125 C 6.691406 -12.699219 6.695312 -12.695312 6.699219 -12.691406 C 6.699219 -12.6875 6.703125 -12.6875 6.707031 -12.683594 C 6.703125 -12.6875 6.699219 -12.6875 6.691406 -12.691406 C 6.648438 -12.703125 6.589844 -12.710938 6.511719 -12.710938 L 5.21875 -12.710938 C 5.140625 -12.710938 5.082031 -12.703125 5.039062 -12.691406 C 5.03125 -12.6875 5.027344 -12.6875 5.023438 -12.683594 C 5.027344 -12.6875 5.03125 -12.6875 5.03125 -12.691406 C 5.035156 -12.695312 5.039062 -12.699219 5.039062 -12.703125 C 5.039062 -12.699219 5.035156 -12.691406 5.035156 -12.683594 C 5.019531 -12.644531 5.011719 -12.582031 5.011719 -12.507812 L 5.011719 -10.507812 L 4.277344 -10.507812 L 4.503906 -11.207031 L 10.191406 -9.375 C 10.554688 -9.25 10.835938 -9.046875 11.027344 -8.773438 C 11.21875 -8.5 11.3125 -8.179688 11.3125 -7.804688 L 11.3125 -3.386719 C 11.3125 -2.085938 10.957031 -1.078125 10.242188 -0.355469 C 9.527344 0.371094 8.511719 0.734375 7.195312 0.734375 L 4.558594 0.734375 C 3.261719 0.734375 2.25 0.371094 1.527344 -0.351562 C 0.800781 -1.074219 0.441406 -2.085938 0.441406 -3.386719 L 0.441406 -4.914062 C 0.441406 -5.242188 0.542969 -5.507812 0.75 -5.714844 C 0.957031 -5.921875 1.222656 -6.023438 1.550781 -6.023438 L 3.925781 -6.023438 C 4.253906 -6.023438 4.519531 -5.921875 4.726562 -5.714844 C 4.933594 -5.507812 5.035156 -5.242188 5.035156 -4.914062 L 5.035156 -3.925781 C 5.035156 -3.847656 5.042969 -3.789062 5.058594 -3.746094 C 5.058594 -3.738281 5.0625 -3.734375 5.0625 -3.730469 C 5.0625 -3.734375 5.058594 -3.738281 5.054688 -3.738281 C 5.054688 -3.742188 5.050781 -3.746094 5.046875 -3.746094 C 5.050781 -3.746094 5.054688 -3.742188 5.0625 -3.742188 C 5.105469 -3.726562 5.164062 -3.71875 5.242188 -3.71875 L 6.511719 -3.71875 C 6.589844 -3.71875 6.648438 -3.726562 6.691406 -3.742188 C 6.699219 -3.742188 6.703125 -3.746094 6.707031 -3.746094 C 6.703125 -3.746094 6.699219 -3.742188 6.699219 -3.738281 C 6.695312 -3.738281 6.691406 -3.734375 6.691406 -3.730469 C 6.691406 -3.734375 6.695312 -3.738281 6.695312 -3.746094 C 6.710938 -3.789062 6.71875 -3.847656 6.71875 -3.925781 L 6.71875 -6.300781 L 7.453125 -6.300781 L 7.226562 -5.601562 L 1.582031 -7.433594 C 1.21875 -7.554688 0.9375 -7.753906 0.742188 -8.023438 C 0.539062 -8.296875 0.441406 -8.625 0.441406 -9.003906 L 0.441406 -13.070312 C 0.441406 -14.386719 0.804688 -15.40625 1.527344 -16.121094 C 2.253906 -16.832031 3.261719 -17.191406 4.558594 -17.191406 Z M 4.558594 -15.722656 C 3.664062 -15.722656 2.996094 -15.503906 2.5625 -15.074219 C 2.128906 -14.644531 1.910156 -13.976562 1.910156 -13.070312 L 1.910156 -9.003906 C 1.910156 -8.945312 1.914062 -8.90625 1.925781 -8.890625 C 1.941406 -8.871094 1.976562 -8.851562 2.039062 -8.832031 L 8.1875 -6.832031 L 8.1875 -3.925781 C 8.1875 -3.410156 8.035156 -3 7.738281 -2.699219 C 7.4375 -2.402344 7.027344 -2.25 6.511719 -2.25 L 5.242188 -2.25 C 4.726562 -2.25 4.316406 -2.402344 4.015625 -2.699219 C 3.71875 -3 3.566406 -3.410156 3.566406 -3.925781 L 3.566406 -4.914062 C 3.566406 -4.894531 3.570312 -4.875 3.582031 -4.84375 C 3.601562 -4.78125 3.636719 -4.726562 3.6875 -4.675781 C 3.738281 -4.625 3.796875 -4.589844 3.859375 -4.570312 C 3.886719 -4.558594 3.910156 -4.554688 3.925781 -4.554688 L 1.550781 -4.554688 C 1.566406 -4.554688 1.589844 -4.558594 1.621094 -4.570312 C 1.683594 -4.589844 1.738281 -4.625 1.789062 -4.675781 C 1.839844 -4.726562 1.875 -4.78125 1.894531 -4.84375 C 1.90625 -4.875 1.910156 -4.894531 1.910156 -4.914062 L 1.910156 -3.386719 C 1.910156 -2.492188 2.128906 -1.824219 2.566406 -1.390625 C 3 -0.953125 3.667969 -0.734375 4.558594 -0.734375 L 7.195312 -0.734375 C 8.101562 -0.734375 8.769531 -0.953125 9.199219 -1.386719 C 9.628906 -1.824219 9.84375 -2.488281 9.84375 -3.386719 L 9.84375 -7.804688 C 9.84375 -7.871094 9.835938 -7.910156 9.824219 -7.929688 C 9.8125 -7.945312 9.785156 -7.960938 9.742188 -7.976562 L 3.542969 -9.972656 L 3.542969 -12.507812 C 3.542969 -13.023438 3.695312 -13.429688 3.992188 -13.730469 C 4.292969 -14.03125 4.703125 -14.179688 5.21875 -14.179688 L 6.511719 -14.179688 C 7.027344 -14.179688 7.4375 -14.03125 7.738281 -13.730469 C 8.035156 -13.429688 8.1875 -13.023438 8.1875 -12.507812 L 8.1875 -11.519531 C 8.1875 -11.535156 8.183594 -11.558594 8.171875 -11.585938 C 8.152344 -11.648438 8.117188 -11.707031 8.066406 -11.757812 C 8.015625 -11.808594 7.957031 -11.84375 7.894531 -11.863281 C 7.867188 -11.871094 7.84375 -11.878906 7.828125 -11.878906 L 10.203125 -11.878906 C 10.1875 -11.878906 10.164062 -11.871094 10.132812 -11.863281 C 10.070312 -11.84375 10.015625 -11.808594 9.964844 -11.757812 C 9.914062 -11.707031 9.878906 -11.648438 9.859375 -11.585938 C 9.847656 -11.558594 9.84375 -11.535156 9.84375 -11.519531 L 9.84375 -13.070312 C 9.84375 -13.980469 9.628906 -14.648438 9.199219 -15.078125 C 8.773438 -15.507812 8.101562 -15.722656 7.195312 -15.722656 Z M 4.558594 -15.722656 "/></g></g><g style="fill:#b21a22;fill-opacity:1;"><g transform="translate(28.072003, 64.849304)"><path style="stroke:none" d="M 11.289062 -16.078125 L 11.289062 -13.730469 C 11.289062 -13.402344 11.191406 -13.132812 10.996094 -12.925781 C 10.789062 -12.703125 10.515625 -12.59375 10.179688 -12.59375 L 4.371094 -12.59375 L 4.371094 -13.328125 L 5.105469 -13.328125 L 5.105469 -9.707031 L 4.371094 -9.707031 L 4.371094 -10.445312 L 8.792969 -10.445312 C 9.128906 -10.445312 9.402344 -10.332031 9.609375 -10.113281 C 9.804688 -9.90625 9.902344 -9.636719 9.902344 -9.308594 L 9.902344 -6.980469 C 9.902344 -6.65625 9.804688 -6.386719 9.609375 -6.179688 C 9.402344 -5.957031 9.128906 -5.847656 8.792969 -5.847656 L 4.371094 -5.847656 L 4.371094 -6.582031 L 5.105469 -6.582031 L 5.105469 -3.101562 L 4.371094 -3.101562 L 4.371094 -3.835938 L 10.179688 -3.835938 C 10.507812 -3.835938 10.773438 -3.734375 10.980469 -3.527344 C 11.1875 -3.324219 11.289062 -3.054688 11.289062 -2.726562 L 11.289062 -0.375 C 11.289062 -0.046875 11.1875 0.21875 10.980469 0.425781 C 10.773438 0.632812 10.507812 0.734375 10.179688 0.734375 L 1.527344 0.734375 C 1.199219 0.734375 0.929688 0.625 0.726562 0.410156 C 0.535156 0.203125 0.441406 -0.0585938 0.441406 -0.375 L 0.441406 -16.078125 C 0.441406 -16.398438 0.535156 -16.660156 0.726562 -16.863281 C 0.929688 -17.082031 1.199219 -17.191406 1.527344 -17.191406 L 10.179688 -17.191406 C 10.507812 -17.191406 10.773438 -17.085938 10.980469 -16.882812 C 11.1875 -16.675781 11.289062 -16.40625 11.289062 -16.078125 Z M 9.820312 -16.078125 C 9.820312 -16.0625 9.824219 -16.039062 9.835938 -16.011719 C 9.855469 -15.949219 9.890625 -15.890625 9.941406 -15.84375 C 9.992188 -15.792969 10.046875 -15.757812 10.109375 -15.734375 C 10.140625 -15.726562 10.164062 -15.722656 10.179688 -15.722656 L 1.527344 -15.722656 C 1.621094 -15.722656 1.714844 -15.765625 1.800781 -15.859375 C 1.847656 -15.910156 1.878906 -15.964844 1.898438 -16.023438 C 1.90625 -16.050781 1.910156 -16.066406 1.910156 -16.078125 L 1.910156 -0.375 C 1.910156 -0.386719 1.90625 -0.40625 1.898438 -0.429688 C 1.878906 -0.492188 1.847656 -0.546875 1.800781 -0.597656 C 1.714844 -0.6875 1.621094 -0.734375 1.527344 -0.734375 L 10.179688 -0.734375 C 10.164062 -0.734375 10.140625 -0.730469 10.109375 -0.71875 C 10.046875 -0.699219 9.992188 -0.664062 9.941406 -0.613281 C 9.890625 -0.5625 9.855469 -0.507812 9.835938 -0.445312 C 9.824219 -0.414062 9.820312 -0.394531 9.820312 -0.375 L 9.820312 -2.726562 C 9.820312 -2.710938 9.824219 -2.6875 9.835938 -2.660156 C 9.855469 -2.597656 9.890625 -2.539062 9.941406 -2.488281 C 9.992188 -2.4375 10.046875 -2.402344 10.109375 -2.382812 C 10.140625 -2.375 10.164062 -2.367188 10.179688 -2.367188 L 3.636719 -2.367188 L 3.636719 -7.316406 L 8.792969 -7.316406 C 8.769531 -7.316406 8.742188 -7.3125 8.710938 -7.300781 C 8.644531 -7.277344 8.589844 -7.238281 8.539062 -7.1875 C 8.492188 -7.136719 8.460938 -7.085938 8.445312 -7.027344 C 8.4375 -7.003906 8.433594 -6.992188 8.433594 -6.980469 L 8.433594 -9.308594 C 8.433594 -9.300781 8.4375 -9.285156 8.445312 -9.265625 C 8.460938 -9.207031 8.492188 -9.152344 8.539062 -9.105469 C 8.589844 -9.050781 8.644531 -9.015625 8.710938 -8.992188 C 8.742188 -8.980469 8.769531 -8.972656 8.792969 -8.972656 L 3.636719 -8.972656 L 3.636719 -14.0625 L 10.179688 -14.0625 C 10.15625 -14.0625 10.128906 -14.058594 10.097656 -14.046875 C 10.035156 -14.023438 9.976562 -13.984375 9.925781 -13.933594 C 9.878906 -13.882812 9.847656 -13.832031 9.832031 -13.773438 C 9.824219 -13.753906 9.820312 -13.738281 9.820312 -13.730469 Z M 9.820312 -16.078125 "/></g></g><g style="fill:#b21a22;fill-opacity:1;"><g transform="translate(39.798734, 64.849304)"><path style="stroke:none" d="M 11.3125 -13.070312 L 11.3125 -3.386719 C 11.3125 -2.523438 11.160156 -1.789062 10.851562 -1.183594 C 10.523438 -0.539062 10.035156 -0.0507812 9.382812 0.277344 L 9.050781 -0.375 L 9.714844 -0.6875 L 10.65625 1.335938 L 9.992188 1.644531 L 10.648438 1.316406 C 10.738281 1.5 10.777344 1.6875 10.765625 1.871094 C 10.746094 2.105469 10.652344 2.304688 10.488281 2.46875 C 10.265625 2.691406 9.988281 2.804688 9.660156 2.804688 L 7.21875 2.804688 C 6.886719 2.804688 6.617188 2.6875 6.417969 2.457031 C 6.320312 2.347656 6.234375 2.21875 6.160156 2.066406 L 6.15625 2.058594 L 5.351562 0.308594 L 6.019531 0 L 6.019531 0.734375 L 4.558594 0.734375 C 3.261719 0.734375 2.25 0.371094 1.527344 -0.351562 C 0.800781 -1.074219 0.441406 -2.085938 0.441406 -3.386719 L 0.441406 -13.070312 C 0.441406 -14.386719 0.804688 -15.40625 1.527344 -16.121094 C 2.253906 -16.832031 3.261719 -17.191406 4.558594 -17.191406 L 7.195312 -17.191406 C 8.507812 -17.191406 9.523438 -16.832031 10.238281 -16.117188 C 10.957031 -15.402344 11.3125 -14.386719 11.3125 -13.070312 Z M 9.84375 -13.070312 C 9.84375 -13.980469 9.628906 -14.648438 9.199219 -15.078125 C 8.773438 -15.507812 8.101562 -15.722656 7.195312 -15.722656 L 4.558594 -15.722656 C 3.664062 -15.722656 2.996094 -15.503906 2.5625 -15.074219 C 2.128906 -14.644531 1.910156 -13.976562 1.910156 -13.070312 L 1.910156 -3.386719 C 1.910156 -2.492188 2.128906 -1.824219 2.566406 -1.390625 C 3 -0.953125 3.667969 -0.734375 4.558594 -0.734375 L 6.488281 -0.734375 L 7.484375 1.433594 L 6.816406 1.738281 L 7.472656 1.410156 C 7.492188 1.449219 7.507812 1.476562 7.523438 1.492188 C 7.429688 1.386719 7.328125 1.335938 7.21875 1.335938 L 9.660156 1.335938 C 9.585938 1.335938 9.511719 1.367188 9.449219 1.433594 C 9.359375 1.519531 9.308594 1.628906 9.300781 1.757812 C 9.292969 1.84375 9.304688 1.914062 9.332031 1.972656 L 9.328125 1.964844 L 8.085938 -0.710938 L 8.71875 -1.03125 C 9.085938 -1.21875 9.359375 -1.488281 9.542969 -1.847656 C 9.742188 -2.246094 9.84375 -2.757812 9.84375 -3.386719 Z M 4.964844 -12.484375 L 4.964844 -3.972656 C 4.964844 -3.894531 4.972656 -3.835938 4.988281 -3.792969 C 4.988281 -3.785156 4.992188 -3.78125 4.992188 -3.777344 C 4.992188 -3.78125 4.988281 -3.785156 4.984375 -3.785156 C 4.984375 -3.789062 4.980469 -3.792969 4.976562 -3.792969 C 4.980469 -3.792969 4.984375 -3.789062 4.992188 -3.789062 C 5.035156 -3.773438 5.09375 -3.765625 5.171875 -3.765625 L 6.675781 -3.765625 C 6.753906 -3.765625 6.8125 -3.773438 6.855469 -3.789062 C 6.863281 -3.789062 6.867188 -3.792969 6.871094 -3.792969 C 6.867188 -3.792969 6.867188 -3.789062 6.863281 -3.785156 C 6.859375 -3.785156 6.855469 -3.78125 6.855469 -3.777344 C 6.855469 -3.78125 6.859375 -3.785156 6.859375 -3.792969 C 6.875 -3.835938 6.882812 -3.894531 6.882812 -3.972656 L 6.882812 -12.484375 C 6.882812 -12.558594 6.875 -12.621094 6.859375 -12.660156 C 6.859375 -12.667969 6.855469 -12.675781 6.855469 -12.675781 C 6.855469 -12.675781 6.859375 -12.671875 6.863281 -12.667969 C 6.867188 -12.664062 6.867188 -12.664062 6.871094 -12.660156 C 6.867188 -12.664062 6.863281 -12.664062 6.855469 -12.667969 C 6.8125 -12.679688 6.753906 -12.6875 6.675781 -12.6875 L 5.171875 -12.6875 C 5.09375 -12.6875 5.035156 -12.679688 4.992188 -12.667969 C 4.984375 -12.664062 4.980469 -12.664062 4.976562 -12.660156 C 4.980469 -12.664062 4.984375 -12.664062 4.984375 -12.667969 C 4.988281 -12.671875 4.992188 -12.675781 4.992188 -12.675781 C 4.992188 -12.675781 4.988281 -12.667969 4.988281 -12.660156 C 4.972656 -12.621094 4.964844 -12.558594 4.964844 -12.484375 Z M 3.496094 -12.484375 C 3.496094 -13 3.648438 -13.40625 3.945312 -13.707031 C 4.246094 -14.007812 4.65625 -14.15625 5.171875 -14.15625 L 6.675781 -14.15625 C 7.191406 -14.15625 7.601562 -14.007812 7.902344 -13.707031 C 8.199219 -13.40625 8.351562 -13 8.351562 -12.484375 L 8.351562 -3.972656 C 8.351562 -3.457031 8.199219 -3.046875 7.902344 -2.75 C 7.601562 -2.449219 7.191406 -2.296875 6.675781 -2.296875 L 5.171875 -2.296875 C 4.65625 -2.296875 4.246094 -2.449219 3.945312 -2.75 C 3.648438 -3.046875 3.496094 -3.457031 3.496094 -3.972656 Z M 3.496094 -12.484375 "/></g></g><g style="fill:#b21a22;fill-opacity:1;"><g transform="translate(51.54897, 64.849304)"><path style="stroke:none" d="M 7.945312 -17.191406 L 10.109375 -17.191406 C 10.4375 -17.191406 10.71875 -17.070312 10.957031 -16.832031 C 11.195312 -16.597656 11.3125 -16.3125 11.3125 -15.984375 L 11.3125 -3.386719 C 11.3125 -2.085938 10.957031 -1.078125 10.242188 -0.355469 C 9.527344 0.371094 8.511719 0.734375 7.195312 0.734375 L 4.558594 0.734375 C 3.261719 0.734375 2.25 0.371094 1.527344 -0.351562 C 0.800781 -1.074219 0.441406 -2.085938 0.441406 -3.386719 L 0.441406 -15.984375 C 0.441406 -16.3125 0.558594 -16.597656 0.796875 -16.832031 C 1.035156 -17.070312 1.316406 -17.191406 1.644531 -17.191406 L 3.902344 -17.191406 C 4.230469 -17.191406 4.511719 -17.070312 4.75 -16.832031 C 4.988281 -16.597656 5.105469 -16.3125 5.105469 -15.984375 L 5.105469 -4.042969 C 5.105469 -3.964844 5.113281 -3.90625 5.128906 -3.863281 C 5.128906 -3.855469 5.132812 -3.851562 5.132812 -3.847656 C 5.132812 -3.851562 5.128906 -3.855469 5.128906 -3.859375 C 5.125 -3.859375 5.121094 -3.863281 5.117188 -3.867188 C 5.121094 -3.863281 5.125 -3.863281 5.132812 -3.859375 C 5.175781 -3.84375 5.234375 -3.835938 5.3125 -3.835938 L 6.535156 -3.835938 C 6.613281 -3.835938 6.671875 -3.84375 6.714844 -3.859375 C 6.722656 -3.863281 6.726562 -3.863281 6.730469 -3.867188 C 6.726562 -3.863281 6.722656 -3.859375 6.722656 -3.859375 C 6.71875 -3.855469 6.714844 -3.851562 6.714844 -3.847656 C 6.714844 -3.851562 6.71875 -3.855469 6.71875 -3.863281 C 6.734375 -3.90625 6.742188 -3.964844 6.742188 -4.042969 L 6.742188 -15.984375 C 6.742188 -16.3125 6.859375 -16.597656 7.097656 -16.832031 C 7.335938 -17.070312 7.617188 -17.191406 7.945312 -17.191406 Z M 7.945312 -15.722656 C 8.023438 -15.722656 8.085938 -15.746094 8.136719 -15.796875 C 8.183594 -15.84375 8.210938 -15.90625 8.210938 -15.984375 L 8.210938 -4.042969 C 8.210938 -3.527344 8.058594 -3.117188 7.761719 -2.820312 C 7.460938 -2.519531 7.050781 -2.367188 6.535156 -2.367188 L 5.3125 -2.367188 C 4.796875 -2.367188 4.386719 -2.519531 4.089844 -2.820312 C 3.789062 -3.117188 3.636719 -3.527344 3.636719 -4.042969 L 3.636719 -15.984375 C 3.636719 -15.90625 3.664062 -15.84375 3.710938 -15.796875 C 3.761719 -15.746094 3.824219 -15.722656 3.902344 -15.722656 L 1.644531 -15.722656 C 1.722656 -15.722656 1.785156 -15.746094 1.835938 -15.796875 C 1.886719 -15.84375 1.910156 -15.90625 1.910156 -15.984375 L 1.910156 -3.386719 C 1.910156 -2.492188 2.128906 -1.824219 2.566406 -1.390625 C 3 -0.953125 3.667969 -0.734375 4.558594 -0.734375 L 7.195312 -0.734375 C 8.101562 -0.734375 8.769531 -0.953125 9.199219 -1.386719 C 9.628906 -1.824219 9.84375 -2.488281 9.84375 -3.386719 L 9.84375 -15.984375 C 9.84375 -15.90625 9.867188 -15.84375 9.917969 -15.796875 C 9.96875 -15.746094 10.03125 -15.722656 10.109375 -15.722656 Z M 7.945312 -15.722656 "/></g></g><g style="fill:#b21a22;fill-opacity:1;"><g transform="translate(63.299206, 64.849304)"><path style="stroke:none" d="M 11.289062 -16.078125 L 11.289062 -13.730469 C 11.289062 -13.402344 11.191406 -13.132812 10.996094 -12.925781 C 10.789062 -12.703125 10.515625 -12.59375 10.179688 -12.59375 L 4.371094 -12.59375 L 4.371094 -13.328125 L 5.105469 -13.328125 L 5.105469 -9.707031 L 4.371094 -9.707031 L 4.371094 -10.445312 L 8.792969 -10.445312 C 9.128906 -10.445312 9.402344 -10.332031 9.609375 -10.113281 C 9.804688 -9.90625 9.902344 -9.636719 9.902344 -9.308594 L 9.902344 -6.980469 C 9.902344 -6.65625 9.804688 -6.386719 9.609375 -6.179688 C 9.402344 -5.957031 9.128906 -5.847656 8.792969 -5.847656 L 4.371094 -5.847656 L 4.371094 -6.582031 L 5.105469 -6.582031 L 5.105469 -3.101562 L 4.371094 -3.101562 L 4.371094 -3.835938 L 10.179688 -3.835938 C 10.507812 -3.835938 10.773438 -3.734375 10.980469 -3.527344 C 11.1875 -3.324219 11.289062 -3.054688 11.289062 -2.726562 L 11.289062 -0.375 C 11.289062 -0.046875 11.1875 0.21875 10.980469 0.425781 C 10.773438 0.632812 10.507812 0.734375 10.179688 0.734375 L 1.527344 0.734375 C 1.199219 0.734375 0.929688 0.625 0.726562 0.410156 C 0.535156 0.203125 0.441406 -0.0585938 0.441406 -0.375 L 0.441406 -16.078125 C 0.441406 -16.398438 0.535156 -16.660156 0.726562 -16.863281 C 0.929688 -17.082031 1.199219 -17.191406 1.527344 -17.191406 L 10.179688 -17.191406 C 10.507812 -17.191406 10.773438 -17.085938 10.980469 -16.882812 C 11.1875 -16.675781 11.289062 -16.40625 11.289062 -16.078125 Z M 9.820312 -16.078125 C 9.820312 -16.0625 9.824219 -16.039062 9.835938 -16.011719 C 9.855469 -15.949219 9.890625 -15.890625 9.941406 -15.84375 C 9.992188 -15.792969 10.046875 -15.757812 10.109375 -15.734375 C 10.140625 -15.726562 10.164062 -15.722656 10.179688 -15.722656 L 1.527344 -15.722656 C 1.621094 -15.722656 1.714844 -15.765625 1.800781 -15.859375 C 1.847656 -15.910156 1.878906 -15.964844 1.898438 -16.023438 C 1.90625 -16.050781 1.910156 -16.066406 1.910156 -16.078125 L 1.910156 -0.375 C 1.910156 -0.386719 1.90625 -0.40625 1.898438 -0.429688 C 1.878906 -0.492188 1.847656 -0.546875 1.800781 -0.597656 C 1.714844 -0.6875 1.621094 -0.734375 1.527344 -0.734375 L 10.179688 -0.734375 C 10.164062 -0.734375 10.140625 -0.730469 10.109375 -0.71875 C 10.046875 -0.699219 9.992188 -0.664062 9.941406 -0.613281 C 9.890625 -0.5625 9.855469 -0.507812 9.835938 -0.445312 C 9.824219 -0.414062 9.820312 -0.394531 9.820312 -0.375 L 9.820312 -2.726562 C 9.820312 -2.710938 9.824219 -2.6875 9.835938 -2.660156 C 9.855469 -2.597656 9.890625 -2.539062 9.941406 -2.488281 C 9.992188 -2.4375 10.046875 -2.402344 10.109375 -2.382812 C 10.140625 -2.375 10.164062 -2.367188 10.179688 -2.367188 L 3.636719 -2.367188 L 3.636719 -7.316406 L 8.792969 -7.316406 C 8.769531 -7.316406 8.742188 -7.3125 8.710938 -7.300781 C 8.644531 -7.277344 8.589844 -7.238281 8.539062 -7.1875 C 8.492188 -7.136719 8.460938 -7.085938 8.445312 -7.027344 C 8.4375 -7.003906 8.433594 -6.992188 8.433594 -6.980469 L 8.433594 -9.308594 C 8.433594 -9.300781 8.4375 -9.285156 8.445312 -9.265625 C 8.460938 -9.207031 8.492188 -9.152344 8.539062 -9.105469 C 8.589844 -9.050781 8.644531 -9.015625 8.710938 -8.992188 C 8.742188 -8.980469 8.769531 -8.972656 8.792969 -8.972656 L 3.636719 -8.972656 L 3.636719 -14.0625 L 10.179688 -14.0625 C 10.15625 -14.0625 10.128906 -14.058594 10.097656 -14.046875 C 10.035156 -14.023438 9.976562 -13.984375 9.925781 -13.933594 C 9.878906 -13.882812 9.847656 -13.832031 9.832031 -13.773438 C 9.824219 -13.753906 9.820312 -13.738281 9.820312 -13.730469 Z M 9.820312 -16.078125 "/></g></g><g style="fill:#b21a22;fill-opacity:1;"><g transform="translate(75.025938, 64.849304)"><path style="stroke:none" d="M 8.628906 -17.191406 L 10.835938 -17.191406 C 11.164062 -17.191406 11.433594 -17.085938 11.640625 -16.882812 C 11.84375 -16.675781 11.949219 -16.40625 11.949219 -16.078125 L 11.949219 -0.375 C 11.949219 -0.046875 11.84375 0.21875 11.640625 0.425781 C 11.433594 0.632812 11.164062 0.734375 10.835938 0.734375 L 8.980469 0.734375 C 8.726562 0.734375 8.503906 0.664062 8.304688 0.519531 C 8.128906 0.394531 7.992188 0.222656 7.890625 0.00390625 L 8.558594 -0.304688 L 7.898438 0.0195312 L 3.476562 -8.960938 L 4.136719 -9.285156 L 4.871094 -9.285156 L 4.871094 -0.375 C 4.871094 -0.046875 4.769531 0.21875 4.5625 0.425781 C 4.355469 0.632812 4.089844 0.734375 3.761719 0.734375 L 1.550781 0.734375 C 1.222656 0.734375 0.957031 0.632812 0.75 0.425781 C 0.542969 0.21875 0.441406 -0.046875 0.441406 -0.375 L 0.441406 -16.078125 C 0.441406 -16.40625 0.542969 -16.675781 0.75 -16.882812 C 0.957031 -17.085938 1.222656 -17.191406 1.550781 -17.191406 L 3.410156 -17.191406 C 3.660156 -17.191406 3.886719 -17.117188 4.085938 -16.976562 C 4.261719 -16.847656 4.398438 -16.675781 4.5 -16.457031 L 3.832031 -16.148438 L 4.492188 -16.472656 L 8.910156 -7.496094 L 8.25 -7.167969 L 7.515625 -7.167969 L 7.515625 -16.078125 C 7.515625 -16.40625 7.621094 -16.675781 7.824219 -16.882812 C 8.03125 -17.085938 8.300781 -17.191406 8.628906 -17.191406 Z M 8.628906 -15.722656 C 8.644531 -15.722656 8.667969 -15.726562 8.695312 -15.734375 C 8.757812 -15.757812 8.8125 -15.792969 8.863281 -15.84375 C 8.914062 -15.890625 8.949219 -15.949219 8.972656 -16.011719 C 8.980469 -16.039062 8.984375 -16.0625 8.984375 -16.078125 L 8.984375 -7.167969 L 7.59375 -6.84375 L 3.167969 -15.832031 L 3.164062 -15.84375 C 3.171875 -15.828125 3.191406 -15.808594 3.226562 -15.785156 C 3.28125 -15.742188 3.34375 -15.722656 3.410156 -15.722656 L 1.550781 -15.722656 C 1.566406 -15.722656 1.589844 -15.726562 1.621094 -15.734375 C 1.683594 -15.757812 1.738281 -15.792969 1.789062 -15.84375 C 1.839844 -15.890625 1.875 -15.949219 1.894531 -16.011719 C 1.90625 -16.039062 1.910156 -16.0625 1.910156 -16.078125 L 1.910156 -0.375 C 1.910156 -0.394531 1.90625 -0.414062 1.894531 -0.445312 C 1.875 -0.507812 1.839844 -0.5625 1.789062 -0.613281 C 1.738281 -0.664062 1.683594 -0.699219 1.621094 -0.71875 C 1.589844 -0.730469 1.566406 -0.734375 1.550781 -0.734375 L 3.761719 -0.734375 C 3.746094 -0.734375 3.722656 -0.730469 3.695312 -0.71875 C 3.628906 -0.699219 3.574219 -0.664062 3.523438 -0.613281 C 3.472656 -0.5625 3.4375 -0.507812 3.417969 -0.445312 C 3.40625 -0.414062 3.402344 -0.394531 3.402344 -0.375 L 3.402344 -9.285156 L 4.796875 -9.609375 L 9.21875 -0.621094 L 9.222656 -0.613281 C 9.21875 -0.628906 9.195312 -0.648438 9.164062 -0.671875 C 9.105469 -0.714844 9.042969 -0.734375 8.980469 -0.734375 L 10.835938 -0.734375 C 10.820312 -0.734375 10.796875 -0.730469 10.769531 -0.71875 C 10.707031 -0.699219 10.648438 -0.664062 10.601562 -0.613281 C 10.550781 -0.5625 10.515625 -0.507812 10.492188 -0.445312 C 10.484375 -0.414062 10.480469 -0.394531 10.480469 -0.375 L 10.480469 -16.078125 C 10.480469 -16.0625 10.484375 -16.039062 10.492188 -16.011719 C 10.515625 -15.949219 10.550781 -15.890625 10.601562 -15.84375 C 10.648438 -15.792969 10.707031 -15.757812 10.769531 -15.734375 C 10.796875 -15.726562 10.820312 -15.722656 10.835938 -15.722656 Z M 8.628906 -15.722656 "/></g></g><g style="fill:#b21a22;fill-opacity:1;"><g transform="translate(87.410691, 64.849304)"><path style="stroke:none" d="M 9.730469 -15.722656 L 1.082031 -15.722656 C 1.097656 -15.722656 1.121094 -15.726562 1.148438 -15.734375 C 1.210938 -15.757812 1.269531 -15.792969 1.320312 -15.84375 C 1.371094 -15.890625 1.40625 -15.949219 1.425781 -16.011719 C 1.433594 -16.039062 1.441406 -16.0625 1.441406 -16.078125 L 1.441406 -13.730469 C 1.441406 -13.746094 1.433594 -13.769531 1.425781 -13.796875 C 1.40625 -13.859375 1.371094 -13.914062 1.320312 -13.964844 C 1.269531 -14.015625 1.210938 -14.050781 1.148438 -14.074219 C 1.121094 -14.082031 1.097656 -14.085938 1.082031 -14.085938 L 4.542969 -14.085938 L 4.542969 -0.375 C 4.542969 -0.394531 4.539062 -0.414062 4.527344 -0.445312 C 4.507812 -0.507812 4.472656 -0.5625 4.421875 -0.613281 C 4.371094 -0.664062 4.316406 -0.699219 4.253906 -0.71875 C 4.222656 -0.730469 4.203125 -0.734375 4.183594 -0.734375 L 6.628906 -0.734375 C 6.613281 -0.734375 6.589844 -0.730469 6.5625 -0.71875 C 6.5 -0.699219 6.441406 -0.664062 6.390625 -0.613281 C 6.339844 -0.5625 6.304688 -0.507812 6.285156 -0.445312 C 6.277344 -0.414062 6.269531 -0.394531 6.269531 -0.375 L 6.269531 -14.085938 L 9.730469 -14.085938 C 9.714844 -14.085938 9.691406 -14.082031 9.664062 -14.074219 C 9.601562 -14.050781 9.546875 -14.015625 9.496094 -13.964844 C 9.445312 -13.914062 9.410156 -13.859375 9.386719 -13.796875 C 9.378906 -13.769531 9.375 -13.746094 9.375 -13.730469 L 9.375 -16.078125 C 9.375 -16.0625 9.378906 -16.039062 9.386719 -16.011719 C 9.410156 -15.949219 9.445312 -15.890625 9.496094 -15.84375 C 9.546875 -15.792969 9.601562 -15.757812 9.664062 -15.734375 C 9.691406 -15.726562 9.714844 -15.722656 9.730469 -15.722656 Z M 9.730469 -17.191406 C 10.058594 -17.191406 10.328125 -17.085938 10.535156 -16.882812 C 10.738281 -16.675781 10.84375 -16.40625 10.84375 -16.078125 L 10.84375 -13.730469 C 10.84375 -13.398438 10.738281 -13.132812 10.535156 -12.925781 C 10.328125 -12.722656 10.058594 -12.617188 9.730469 -12.617188 L 7.003906 -12.617188 L 7.003906 -13.351562 L 7.738281 -13.351562 L 7.738281 -0.375 C 7.738281 -0.046875 7.636719 0.21875 7.429688 0.425781 C 7.226562 0.632812 6.957031 0.734375 6.628906 0.734375 L 4.183594 0.734375 C 3.855469 0.734375 3.589844 0.632812 3.382812 0.425781 C 3.175781 0.21875 3.074219 -0.046875 3.074219 -0.375 L 3.074219 -13.351562 L 3.808594 -13.351562 L 3.808594 -12.617188 L 1.082031 -12.617188 C 0.753906 -12.617188 0.484375 -12.722656 0.28125 -12.925781 C 0.0742188 -13.132812 -0.03125 -13.398438 -0.03125 -13.730469 L -0.03125 -16.078125 C -0.03125 -16.40625 0.0742188 -16.675781 0.28125 -16.882812 C 0.484375 -17.085938 0.753906 -17.191406 1.082031 -17.191406 Z M 9.730469 -17.191406 "/></g></g><g style="fill:#b21a22;fill-opacity:1;"><g transform="translate(98.220909, 64.849304)"><path style="stroke:none" d="M 1.550781 -0.734375 L 3.996094 -0.734375 C 3.980469 -0.734375 3.957031 -0.730469 3.929688 -0.71875 C 3.867188 -0.699219 3.808594 -0.664062 3.757812 -0.613281 C 3.707031 -0.5625 3.671875 -0.507812 3.652344 -0.445312 C 3.640625 -0.414062 3.636719 -0.394531 3.636719 -0.375 L 3.636719 -16.078125 C 3.636719 -16.0625 3.640625 -16.039062 3.652344 -16.011719 C 3.671875 -15.949219 3.707031 -15.890625 3.757812 -15.84375 C 3.808594 -15.792969 3.867188 -15.757812 3.929688 -15.734375 C 3.957031 -15.726562 3.980469 -15.722656 3.996094 -15.722656 L 1.550781 -15.722656 C 1.566406 -15.722656 1.589844 -15.726562 1.621094 -15.734375 C 1.683594 -15.757812 1.738281 -15.792969 1.789062 -15.84375 C 1.839844 -15.890625 1.875 -15.949219 1.894531 -16.011719 C 1.90625 -16.039062 1.910156 -16.0625 1.910156 -16.078125 L 1.910156 -0.375 C 1.910156 -0.394531 1.90625 -0.414062 1.894531 -0.445312 C 1.875 -0.507812 1.839844 -0.5625 1.789062 -0.613281 C 1.738281 -0.664062 1.683594 -0.699219 1.621094 -0.71875 C 1.589844 -0.730469 1.566406 -0.734375 1.550781 -0.734375 Z M 1.550781 0.734375 C 1.222656 0.734375 0.957031 0.632812 0.75 0.425781 C 0.542969 0.21875 0.441406 -0.046875 0.441406 -0.375 L 0.441406 -16.078125 C 0.441406 -16.40625 0.542969 -16.675781 0.75 -16.882812 C 0.957031 -17.085938 1.222656 -17.191406 1.550781 -17.191406 L 3.996094 -17.191406 C 4.324219 -17.191406 4.589844 -17.085938 4.796875 -16.882812 C 5.003906 -16.675781 5.105469 -16.40625 5.105469 -16.078125 L 5.105469 -0.375 C 5.105469 -0.046875 5.003906 0.21875 4.796875 0.425781 C 4.589844 0.632812 4.324219 0.734375 3.996094 0.734375 Z M 1.550781 0.734375 "/></g></g><g style="fill:#b21a22;fill-opacity:1;"><g transform="translate(103.767017, 64.849304)"><path style="stroke:none" d="M 12.269531 0.734375 L 9.992188 0.734375 C 9.703125 0.734375 9.460938 0.648438 9.261719 0.46875 C 9.074219 0.308594 8.953125 0.09375 8.894531 -0.175781 L 9.613281 -0.328125 L 8.902344 -0.148438 L 8.152344 -3.109375 L 8.863281 -3.292969 L 8.863281 -2.554688 L 4.441406 -2.554688 L 4.441406 -3.292969 L 5.15625 -3.117188 L 4.425781 -0.152344 L 3.714844 -0.328125 L 4.433594 -0.175781 C 4.375 0.09375 4.253906 0.308594 4.070312 0.46875 C 3.867188 0.648438 3.625 0.734375 3.339844 0.734375 L 1.035156 0.734375 C 0.652344 0.734375 0.359375 0.605469 0.164062 0.347656 C -0.0390625 0.0820312 -0.0859375 -0.234375 0.0234375 -0.605469 L 0.730469 -0.398438 L 0.015625 -0.578125 L 3.917969 -16.304688 L 4.632812 -16.125 L 3.914062 -16.28125 C 3.972656 -16.558594 4.101562 -16.777344 4.300781 -16.941406 C 4.5 -17.105469 4.746094 -17.191406 5.03125 -17.191406 L 8.296875 -17.191406 C 8.582031 -17.191406 8.828125 -17.105469 9.03125 -16.941406 C 9.226562 -16.777344 9.355469 -16.558594 9.417969 -16.28125 L 8.699219 -16.125 L 9.410156 -16.304688 L 13.3125 -0.578125 L 12.601562 -0.398438 L 13.304688 -0.605469 C 13.417969 -0.222656 13.363281 0.101562 13.144531 0.367188 C 12.941406 0.613281 12.652344 0.734375 12.269531 0.734375 Z M 12.269531 -0.734375 C 12.273438 -0.734375 12.277344 -0.734375 12.28125 -0.734375 C 12.28125 -0.734375 12.277344 -0.734375 12.277344 -0.734375 C 12.265625 -0.734375 12.25 -0.730469 12.230469 -0.722656 C 12.144531 -0.695312 12.074219 -0.644531 12.007812 -0.566406 C 11.9375 -0.480469 11.898438 -0.386719 11.890625 -0.28125 C 11.886719 -0.242188 11.890625 -0.210938 11.894531 -0.191406 L 11.890625 -0.207031 L 7.980469 -15.960938 L 7.980469 -15.972656 C 7.992188 -15.914062 8.03125 -15.859375 8.097656 -15.804688 C 8.164062 -15.75 8.230469 -15.722656 8.296875 -15.722656 L 5.03125 -15.722656 C 5.097656 -15.722656 5.164062 -15.75 5.234375 -15.804688 C 5.296875 -15.859375 5.335938 -15.914062 5.347656 -15.972656 L 5.347656 -15.960938 L 1.4375 -0.207031 L 1.433594 -0.191406 C 1.4375 -0.207031 1.4375 -0.234375 1.4375 -0.269531 C 1.429688 -0.367188 1.394531 -0.460938 1.328125 -0.546875 C 1.265625 -0.628906 1.1875 -0.6875 1.097656 -0.71875 C 1.066406 -0.730469 1.046875 -0.734375 1.035156 -0.734375 L 3.339844 -0.734375 C 3.257812 -0.734375 3.175781 -0.703125 3.101562 -0.636719 C 3.042969 -0.582031 3.007812 -0.53125 2.996094 -0.484375 L 3 -0.492188 L 3.867188 -4.027344 L 9.433594 -4.027344 L 10.332031 -0.496094 L 10.332031 -0.484375 C 10.324219 -0.53125 10.289062 -0.582031 10.226562 -0.636719 C 10.152344 -0.703125 10.074219 -0.734375 9.992188 -0.734375 Z M 7.417969 -5.851562 L 5.9375 -12.246094 L 6.652344 -12.414062 L 7.367188 -12.246094 L 5.886719 -5.851562 L 5.171875 -6.019531 L 5.171875 -6.753906 L 8.132812 -6.753906 L 8.132812 -6.019531 Z M 9.058594 -5.285156 L 4.246094 -5.285156 L 5.9375 -12.578125 L 7.367188 -12.578125 L 8.847656 -6.183594 Z M 9.058594 -5.285156 "/></g></g><g style="fill:#b21a22;fill-opacity:1;"><g transform="translate(117.091787, 64.849304)"><path style="stroke:none" d="M 3.636719 -3.101562 L 3.636719 -16.078125 C 3.636719 -16.0625 3.640625 -16.039062 3.652344 -16.011719 C 3.671875 -15.949219 3.707031 -15.890625 3.757812 -15.84375 C 3.808594 -15.792969 3.867188 -15.757812 3.929688 -15.734375 C 3.957031 -15.726562 3.980469 -15.722656 3.996094 -15.722656 L 1.550781 -15.722656 C 1.566406 -15.722656 1.589844 -15.726562 1.621094 -15.734375 C 1.683594 -15.757812 1.738281 -15.792969 1.789062 -15.84375 C 1.839844 -15.890625 1.875 -15.949219 1.894531 -16.011719 C 1.90625 -16.039062 1.910156 -16.0625 1.910156 -16.078125 L 1.910156 -0.375 C 1.910156 -0.394531 1.90625 -0.414062 1.894531 -0.445312 C 1.875 -0.507812 1.839844 -0.5625 1.789062 -0.613281 C 1.738281 -0.664062 1.683594 -0.699219 1.621094 -0.71875 C 1.589844 -0.730469 1.566406 -0.734375 1.550781 -0.734375 L 9.027344 -0.734375 C 9.011719 -0.734375 8.988281 -0.730469 8.960938 -0.71875 C 8.898438 -0.699219 8.839844 -0.664062 8.789062 -0.613281 C 8.738281 -0.5625 8.703125 -0.507812 8.683594 -0.445312 C 8.671875 -0.414062 8.667969 -0.394531 8.667969 -0.375 L 8.667969 -2.726562 C 8.667969 -2.710938 8.671875 -2.6875 8.683594 -2.660156 C 8.703125 -2.597656 8.738281 -2.539062 8.789062 -2.488281 C 8.839844 -2.4375 8.898438 -2.402344 8.960938 -2.382812 C 8.988281 -2.375 9.011719 -2.367188 9.027344 -2.367188 L 3.636719 -2.367188 Z M 5.105469 -3.101562 L 4.371094 -3.101562 L 4.371094 -3.835938 L 9.027344 -3.835938 C 9.355469 -3.835938 9.621094 -3.734375 9.828125 -3.527344 C 10.035156 -3.324219 10.136719 -3.054688 10.136719 -2.726562 L 10.136719 -0.375 C 10.136719 -0.046875 10.035156 0.21875 9.828125 0.425781 C 9.621094 0.632812 9.355469 0.734375 9.027344 0.734375 L 1.550781 0.734375 C 1.222656 0.734375 0.957031 0.632812 0.75 0.425781 C 0.542969 0.21875 0.441406 -0.046875 0.441406 -0.375 L 0.441406 -16.078125 C 0.441406 -16.40625 0.542969 -16.675781 0.75 -16.882812 C 0.957031 -17.085938 1.222656 -17.191406 1.550781 -17.191406 L 3.996094 -17.191406 C 4.324219 -17.191406 4.589844 -17.085938 4.796875 -16.882812 C 5.003906 -16.675781 5.105469 -16.40625 5.105469 -16.078125 Z M 5.105469 -3.101562 "/></g></g><g style="fill:#b21a22;fill-opacity:1;"><g transform="translate(44.635903, 97.623313)"><path style="stroke:none" d="M -0.734375 3.148438 L -0.734375 0.988281 C -0.734375 0.628906 -0.625 0.335938 -0.402344 0.113281 C -0.179688 -0.105469 0.109375 -0.21875 0.46875 -0.21875 L 14.644531 -0.21875 C 15.003906 -0.21875 15.296875 -0.105469 15.515625 0.113281 C 15.738281 0.335938 15.851562 0.628906 15.851562 0.988281 L 15.851562 3.148438 C 15.851562 3.507812 15.738281 3.800781 15.515625 4.023438 C 15.296875 4.242188 15.003906 4.355469 14.644531 4.355469 L 0.46875 4.355469 C 0.109375 4.355469 -0.179688 4.242188 -0.402344 4.023438 C -0.625 3.800781 -0.734375 3.507812 -0.734375 3.148438 Z M 0.734375 3.148438 C 0.734375 3.152344 0.734375 3.15625 0.734375 3.15625 C 0.734375 3.148438 0.730469 3.136719 0.726562 3.125 C 0.710938 3.074219 0.679688 3.027344 0.636719 2.984375 C 0.59375 2.941406 0.546875 2.910156 0.496094 2.894531 C 0.484375 2.890625 0.472656 2.886719 0.464844 2.886719 C 0.460938 2.886719 0.460938 2.886719 0.460938 2.886719 C 0.464844 2.886719 0.46875 2.886719 0.46875 2.886719 L 14.644531 2.886719 C 14.648438 2.886719 14.652344 2.886719 14.652344 2.886719 C 14.640625 2.886719 14.632812 2.890625 14.617188 2.894531 C 14.566406 2.910156 14.519531 2.941406 14.480469 2.984375 C 14.4375 3.027344 14.40625 3.074219 14.390625 3.125 C 14.386719 3.136719 14.382812 3.148438 14.382812 3.15625 C 14.378906 3.15625 14.378906 3.15625 14.378906 3.15625 C 14.378906 3.15625 14.382812 3.152344 14.382812 3.148438 L 14.382812 0.988281 C 14.382812 0.984375 14.378906 0.980469 14.378906 0.980469 C 14.378906 0.980469 14.378906 0.980469 14.382812 0.980469 C 14.382812 0.992188 14.386719 1 14.390625 1.015625 C 14.40625 1.066406 14.4375 1.113281 14.480469 1.152344 C 14.519531 1.195312 14.566406 1.226562 14.617188 1.242188 C 14.632812 1.246094 14.640625 1.25 14.652344 1.25 C 14.652344 1.253906 14.652344 1.253906 14.652344 1.253906 C 14.652344 1.25 14.648438 1.25 14.644531 1.25 L 0.46875 1.25 C 0.46875 1.25 0.464844 1.25 0.460938 1.253906 C 0.460938 1.253906 0.460938 1.253906 0.464844 1.25 C 0.472656 1.25 0.484375 1.246094 0.496094 1.242188 C 0.546875 1.226562 0.59375 1.195312 0.636719 1.152344 C 0.679688 1.113281 0.710938 1.066406 0.726562 1.015625 C 0.730469 1 0.734375 0.992188 0.734375 0.980469 C 0.734375 0.980469 0.734375 0.984375 0.734375 0.988281 Z M 0.734375 3.148438 "/></g></g><g style="fill:#b21a22;fill-opacity:1;"><g transform="translate(59.74671, 97.623313)"><path style="stroke:none" d="M 11.3125 -16.078125 L 11.3125 -13.730469 C 11.3125 -13.398438 11.210938 -13.132812 11.003906 -12.925781 C 10.796875 -12.722656 10.53125 -12.617188 10.203125 -12.617188 L 4.371094 -12.617188 L 4.371094 -13.351562 L 5.105469 -13.351562 L 5.105469 -9.332031 L 4.371094 -9.332031 L 4.371094 -10.066406 L 8.792969 -10.066406 C 9.121094 -10.066406 9.386719 -9.964844 9.59375 -9.757812 C 9.800781 -9.550781 9.902344 -9.285156 9.902344 -8.957031 L 9.902344 -6.605469 C 9.902344 -6.277344 9.800781 -6.011719 9.59375 -5.804688 C 9.386719 -5.597656 9.121094 -5.496094 8.792969 -5.496094 L 4.371094 -5.496094 L 4.371094 -6.230469 L 5.105469 -6.230469 L 5.105469 -0.375 C 5.105469 -0.046875 5.003906 0.21875 4.796875 0.425781 C 4.589844 0.632812 4.324219 0.734375 3.996094 0.734375 L 1.550781 0.734375 C 1.222656 0.734375 0.957031 0.632812 0.75 0.425781 C 0.542969 0.21875 0.441406 -0.046875 0.441406 -0.375 L 0.441406 -16.078125 C 0.441406 -16.40625 0.542969 -16.675781 0.75 -16.882812 C 0.957031 -17.085938 1.222656 -17.191406 1.550781 -17.191406 L 10.203125 -17.191406 C 10.53125 -17.191406 10.796875 -17.085938 11.003906 -16.882812 C 11.210938 -16.675781 11.3125 -16.40625 11.3125 -16.078125 Z M 9.84375 -16.078125 C 9.84375 -16.0625 9.847656 -16.039062 9.859375 -16.011719 C 9.878906 -15.949219 9.914062 -15.890625 9.964844 -15.84375 C 10.015625 -15.792969 10.070312 -15.757812 10.132812 -15.734375 C 10.164062 -15.726562 10.1875 -15.722656 10.203125 -15.722656 L 1.550781 -15.722656 C 1.566406 -15.722656 1.589844 -15.726562 1.621094 -15.734375 C 1.683594 -15.757812 1.738281 -15.792969 1.789062 -15.84375 C 1.839844 -15.890625 1.875 -15.949219 1.894531 -16.011719 C 1.90625 -16.039062 1.910156 -16.0625 1.910156 -16.078125 L 1.910156 -0.375 C 1.910156 -0.394531 1.90625 -0.414062 1.894531 -0.445312 C 1.875 -0.507812 1.839844 -0.5625 1.789062 -0.613281 C 1.738281 -0.664062 1.683594 -0.699219 1.621094 -0.71875 C 1.589844 -0.730469 1.566406 -0.734375 1.550781 -0.734375 L 3.996094 -0.734375 C 3.980469 -0.734375 3.957031 -0.730469 3.929688 -0.71875 C 3.867188 -0.699219 3.808594 -0.664062 3.757812 -0.613281 C 3.707031 -0.5625 3.671875 -0.507812 3.652344 -0.445312 C 3.640625 -0.414062 3.636719 -0.394531 3.636719 -0.375 L 3.636719 -6.964844 L 8.792969 -6.964844 C 8.773438 -6.964844 8.753906 -6.960938 8.722656 -6.949219 C 8.660156 -6.929688 8.605469 -6.894531 8.554688 -6.84375 C 8.503906 -6.792969 8.46875 -6.734375 8.449219 -6.671875 C 8.4375 -6.644531 8.433594 -6.621094 8.433594 -6.605469 L 8.433594 -8.957031 C 8.433594 -8.941406 8.4375 -8.917969 8.449219 -8.890625 C 8.46875 -8.824219 8.503906 -8.769531 8.554688 -8.71875 C 8.605469 -8.667969 8.660156 -8.632812 8.722656 -8.613281 C 8.753906 -8.601562 8.773438 -8.597656 8.792969 -8.597656 L 3.636719 -8.597656 L 3.636719 -14.085938 L 10.203125 -14.085938 C 10.1875 -14.085938 10.164062 -14.082031 10.132812 -14.074219 C 10.070312 -14.050781 10.015625 -14.015625 9.964844 -13.964844 C 9.914062 -13.914062 9.878906 -13.859375 9.859375 -13.796875 C 9.847656 -13.769531 9.84375 -13.746094 9.84375 -13.730469 Z M 9.84375 -16.078125 "/></g></g><g style="fill:#b21a22;fill-opacity:1;"><g transform="translate(71.496946, 97.623313)"><path style="stroke:none" d="M 1.550781 -0.734375 L 3.996094 -0.734375 C 3.980469 -0.734375 3.957031 -0.730469 3.929688 -0.71875 C 3.867188 -0.699219 3.808594 -0.664062 3.757812 -0.613281 C 3.707031 -0.5625 3.671875 -0.507812 3.652344 -0.445312 C 3.640625 -0.414062 3.636719 -0.394531 3.636719 -0.375 L 3.636719 -16.078125 C 3.636719 -16.0625 3.640625 -16.039062 3.652344 -16.011719 C 3.671875 -15.949219 3.707031 -15.890625 3.757812 -15.84375 C 3.808594 -15.792969 3.867188 -15.757812 3.929688 -15.734375 C 3.957031 -15.726562 3.980469 -15.722656 3.996094 -15.722656 L 1.550781 -15.722656 C 1.566406 -15.722656 1.589844 -15.726562 1.621094 -15.734375 C 1.683594 -15.757812 1.738281 -15.792969 1.789062 -15.84375 C 1.839844 -15.890625 1.875 -15.949219 1.894531 -16.011719 C 1.90625 -16.039062 1.910156 -16.0625 1.910156 -16.078125 L 1.910156 -0.375 C 1.910156 -0.394531 1.90625 -0.414062 1.894531 -0.445312 C 1.875 -0.507812 1.839844 -0.5625 1.789062 -0.613281 C 1.738281 -0.664062 1.683594 -0.699219 1.621094 -0.71875 C 1.589844 -0.730469 1.566406 -0.734375 1.550781 -0.734375 Z M 1.550781 0.734375 C 1.222656 0.734375 0.957031 0.632812 0.75 0.425781 C 0.542969 0.21875 0.441406 -0.046875 0.441406 -0.375 L 0.441406 -16.078125 C 0.441406 -16.40625 0.542969 -16.675781 0.75 -16.882812 C 0.957031 -17.085938 1.222656 -17.191406 1.550781 -17.191406 L 3.996094 -17.191406 C 4.324219 -17.191406 4.589844 -17.085938 4.796875 -16.882812 C 5.003906 -16.675781 5.105469 -16.40625 5.105469 -16.078125 L 5.105469 -0.375 C 5.105469 -0.046875 5.003906 0.21875 4.796875 0.425781 C 4.589844 0.632812 4.324219 0.734375 3.996094 0.734375 Z M 1.550781 0.734375 "/></g></g><g style="fill:#b21a22;fill-opacity:1;"><g transform="translate(77.043054, 97.623313)"><path style="stroke:none" d="M 3.636719 -3.101562 L 3.636719 -16.078125 C 3.636719 -16.0625 3.640625 -16.039062 3.652344 -16.011719 C 3.671875 -15.949219 3.707031 -15.890625 3.757812 -15.84375 C 3.808594 -15.792969 3.867188 -15.757812 3.929688 -15.734375 C 3.957031 -15.726562 3.980469 -15.722656 3.996094 -15.722656 L 1.550781 -15.722656 C 1.566406 -15.722656 1.589844 -15.726562 1.621094 -15.734375 C 1.683594 -15.757812 1.738281 -15.792969 1.789062 -15.84375 C 1.839844 -15.890625 1.875 -15.949219 1.894531 -16.011719 C 1.90625 -16.039062 1.910156 -16.0625 1.910156 -16.078125 L 1.910156 -0.375 C 1.910156 -0.394531 1.90625 -0.414062 1.894531 -0.445312 C 1.875 -0.507812 1.839844 -0.5625 1.789062 -0.613281 C 1.738281 -0.664062 1.683594 -0.699219 1.621094 -0.71875 C 1.589844 -0.730469 1.566406 -0.734375 1.550781 -0.734375 L 9.027344 -0.734375 C 9.011719 -0.734375 8.988281 -0.730469 8.960938 -0.71875 C 8.898438 -0.699219 8.839844 -0.664062 8.789062 -0.613281 C 8.738281 -0.5625 8.703125 -0.507812 8.683594 -0.445312 C 8.671875 -0.414062 8.667969 -0.394531 8.667969 -0.375 L 8.667969 -2.726562 C 8.667969 -2.710938 8.671875 -2.6875 8.683594 -2.660156 C 8.703125 -2.597656 8.738281 -2.539062 8.789062 -2.488281 C 8.839844 -2.4375 8.898438 -2.402344 8.960938 -2.382812 C 8.988281 -2.375 9.011719 -2.367188 9.027344 -2.367188 L 3.636719 -2.367188 Z M 5.105469 -3.101562 L 4.371094 -3.101562 L 4.371094 -3.835938 L 9.027344 -3.835938 C 9.355469 -3.835938 9.621094 -3.734375 9.828125 -3.527344 C 10.035156 -3.324219 10.136719 -3.054688 10.136719 -2.726562 L 10.136719 -0.375 C 10.136719 -0.046875 10.035156 0.21875 9.828125 0.425781 C 9.621094 0.632812 9.355469 0.734375 9.027344 0.734375 L 1.550781 0.734375 C 1.222656 0.734375 0.957031 0.632812 0.75 0.425781 C 0.542969 0.21875 0.441406 -0.046875 0.441406 -0.375 L 0.441406 -16.078125 C 0.441406 -16.40625 0.542969 -16.675781 0.75 -16.882812 C 0.957031 -17.085938 1.222656 -17.191406 1.550781 -17.191406 L 3.996094 -17.191406 C 4.324219 -17.191406 4.589844 -17.085938 4.796875 -16.882812 C 5.003906 -16.675781 5.105469 -16.40625 5.105469 -16.078125 Z M 5.105469 -3.101562 "/></g></g><g style="fill:#b21a22;fill-opacity:1;"><g transform="translate(87.618265, 97.623313)"><path style="stroke:none" d="M 11.289062 -16.078125 L 11.289062 -13.730469 C 11.289062 -13.402344 11.191406 -13.132812 10.996094 -12.925781 C 10.789062 -12.703125 10.515625 -12.59375 10.179688 -12.59375 L 4.371094 -12.59375 L 4.371094 -13.328125 L 5.105469 -13.328125 L 5.105469 -9.707031 L 4.371094 -9.707031 L 4.371094 -10.445312 L 8.792969 -10.445312 C 9.128906 -10.445312 9.402344 -10.332031 9.609375 -10.113281 C 9.804688 -9.90625 9.902344 -9.636719 9.902344 -9.308594 L 9.902344 -6.980469 C 9.902344 -6.65625 9.804688 -6.386719 9.609375 -6.179688 C 9.402344 -5.957031 9.128906 -5.847656 8.792969 -5.847656 L 4.371094 -5.847656 L 4.371094 -6.582031 L 5.105469 -6.582031 L 5.105469 -3.101562 L 4.371094 -3.101562 L 4.371094 -3.835938 L 10.179688 -3.835938 C 10.507812 -3.835938 10.773438 -3.734375 10.980469 -3.527344 C 11.1875 -3.324219 11.289062 -3.054688 11.289062 -2.726562 L 11.289062 -0.375 C 11.289062 -0.046875 11.1875 0.21875 10.980469 0.425781 C 10.773438 0.632812 10.507812 0.734375 10.179688 0.734375 L 1.527344 0.734375 C 1.199219 0.734375 0.929688 0.625 0.726562 0.410156 C 0.535156 0.203125 0.441406 -0.0585938 0.441406 -0.375 L 0.441406 -16.078125 C 0.441406 -16.398438 0.535156 -16.660156 0.726562 -16.863281 C 0.929688 -17.082031 1.199219 -17.191406 1.527344 -17.191406 L 10.179688 -17.191406 C 10.507812 -17.191406 10.773438 -17.085938 10.980469 -16.882812 C 11.1875 -16.675781 11.289062 -16.40625 11.289062 -16.078125 Z M 9.820312 -16.078125 C 9.820312 -16.0625 9.824219 -16.039062 9.835938 -16.011719 C 9.855469 -15.949219 9.890625 -15.890625 9.941406 -15.84375 C 9.992188 -15.792969 10.046875 -15.757812 10.109375 -15.734375 C 10.140625 -15.726562 10.164062 -15.722656 10.179688 -15.722656 L 1.527344 -15.722656 C 1.621094 -15.722656 1.714844 -15.765625 1.800781 -15.859375 C 1.847656 -15.910156 1.878906 -15.964844 1.898438 -16.023438 C 1.90625 -16.050781 1.910156 -16.066406 1.910156 -16.078125 L 1.910156 -0.375 C 1.910156 -0.386719 1.90625 -0.40625 1.898438 -0.429688 C 1.878906 -0.492188 1.847656 -0.546875 1.800781 -0.597656 C 1.714844 -0.6875 1.621094 -0.734375 1.527344 -0.734375 L 10.179688 -0.734375 C 10.164062 -0.734375 10.140625 -0.730469 10.109375 -0.71875 C 10.046875 -0.699219 9.992188 -0.664062 9.941406 -0.613281 C 9.890625 -0.5625 9.855469 -0.507812 9.835938 -0.445312 C 9.824219 -0.414062 9.820312 -0.394531 9.820312 -0.375 L 9.820312 -2.726562 C 9.820312 -2.710938 9.824219 -2.6875 9.835938 -2.660156 C 9.855469 -2.597656 9.890625 -2.539062 9.941406 -2.488281 C 9.992188 -2.4375 10.046875 -2.402344 10.109375 -2.382812 C 10.140625 -2.375 10.164062 -2.367188 10.179688 -2.367188 L 3.636719 -2.367188 L 3.636719 -7.316406 L 8.792969 -7.316406 C 8.769531 -7.316406 8.742188 -7.3125 8.710938 -7.300781 C 8.644531 -7.277344 8.589844 -7.238281 8.539062 -7.1875 C 8.492188 -7.136719 8.460938 -7.085938 8.445312 -7.027344 C 8.4375 -7.003906 8.433594 -6.992188 8.433594 -6.980469 L 8.433594 -9.308594 C 8.433594 -9.300781 8.4375 -9.285156 8.445312 -9.265625 C 8.460938 -9.207031 8.492188 -9.152344 8.539062 -9.105469 C 8.589844 -9.050781 8.644531 -9.015625 8.710938 -8.992188 C 8.742188 -8.980469 8.769531 -8.972656 8.792969 -8.972656 L 3.636719 -8.972656 L 3.636719 -14.0625 L 10.179688 -14.0625 C 10.15625 -14.0625 10.128906 -14.058594 10.097656 -14.046875 C 10.035156 -14.023438 9.976562 -13.984375 9.925781 -13.933594 C 9.878906 -13.882812 9.847656 -13.832031 9.832031 -13.773438 C 9.824219 -13.753906 9.820312 -13.738281 9.820312 -13.730469 Z M 9.820312 -16.078125 "/></g></g><g style="fill:#060705;fill-opacity:1;"><g transform="translate(16.321767, 64.849304)"><path style="stroke:none" d="M 4.5625 -16.46875 L 7.203125 -16.46875 C 8.304688 -16.46875 9.144531 -16.179688 9.71875 -15.609375 C 10.289062 -15.035156 10.578125 -14.191406 10.578125 -13.078125 L 10.578125 -11.515625 C 10.578125 -11.265625 10.453125 -11.140625 10.203125 -11.140625 L 7.828125 -11.140625 C 7.578125 -11.140625 7.453125 -11.265625 7.453125 -11.515625 L 7.453125 -12.515625 C 7.453125 -13.140625 7.140625 -13.453125 6.515625 -13.453125 L 5.21875 -13.453125 C 4.59375 -13.453125 4.28125 -13.140625 4.28125 -12.515625 L 4.28125 -10.515625 L 9.96875 -8.671875 C 10.375 -8.535156 10.578125 -8.25 10.578125 -7.8125 L 10.578125 -3.390625 C 10.578125 -2.285156 10.289062 -1.441406 9.71875 -0.859375 C 9.144531 -0.285156 8.304688 0 7.203125 0 L 4.5625 0 C 3.46875 0 2.628906 -0.285156 2.046875 -0.859375 C 1.460938 -1.441406 1.171875 -2.285156 1.171875 -3.390625 L 1.171875 -4.921875 C 1.171875 -5.171875 1.296875 -5.296875 1.546875 -5.296875 L 3.921875 -5.296875 C 4.171875 -5.296875 4.296875 -5.171875 4.296875 -4.921875 L 4.296875 -3.921875 C 4.296875 -3.296875 4.613281 -2.984375 5.25 -2.984375 L 6.515625 -2.984375 C 7.140625 -2.984375 7.453125 -3.296875 7.453125 -3.921875 L 7.453125 -6.296875 L 1.8125 -8.140625 C 1.382812 -8.273438 1.171875 -8.5625 1.171875 -9 L 1.171875 -13.078125 C 1.171875 -14.191406 1.460938 -15.035156 2.046875 -15.609375 C 2.628906 -16.179688 3.46875 -16.46875 4.5625 -16.46875 Z M 4.5625 -16.46875 "/></g></g><g style="fill:#060705;fill-opacity:1;"><g transform="translate(28.072003, 64.849304)"><path style="stroke:none" d="M 10.5625 -16.078125 L 10.5625 -13.734375 C 10.5625 -13.460938 10.4375 -13.328125 10.1875 -13.328125 L 4.375 -13.328125 L 4.375 -9.71875 L 8.796875 -9.71875 C 9.046875 -9.71875 9.171875 -9.582031 9.171875 -9.3125 L 9.171875 -6.984375 C 9.171875 -6.710938 9.046875 -6.578125 8.796875 -6.578125 L 4.375 -6.578125 L 4.375 -3.109375 L 10.1875 -3.109375 C 10.4375 -3.109375 10.5625 -2.984375 10.5625 -2.734375 L 10.5625 -0.375 C 10.5625 -0.125 10.4375 0 10.1875 0 L 1.53125 0 C 1.289062 0 1.171875 -0.125 1.171875 -0.375 L 1.171875 -16.078125 C 1.171875 -16.335938 1.289062 -16.46875 1.53125 -16.46875 L 10.1875 -16.46875 C 10.4375 -16.46875 10.5625 -16.335938 10.5625 -16.078125 Z M 10.5625 -16.078125 "/></g></g><g style="fill:#060705;fill-opacity:1;"><g transform="translate(39.798734, 64.849304)"><path style="stroke:none" d="M 10.578125 -13.078125 L 10.578125 -3.390625 C 10.578125 -1.898438 10.066406 -0.894531 9.046875 -0.375 L 10 1.640625 C 10.0625 1.765625 10.050781 1.863281 9.96875 1.9375 C 9.894531 2.019531 9.796875 2.0625 9.671875 2.0625 L 7.21875 2.0625 C 7.113281 2.0625 7.03125 2.03125 6.96875 1.96875 C 6.914062 1.90625 6.863281 1.828125 6.8125 1.734375 L 6.015625 0 L 4.5625 0 C 3.46875 0 2.628906 -0.285156 2.046875 -0.859375 C 1.460938 -1.441406 1.171875 -2.285156 1.171875 -3.390625 L 1.171875 -13.078125 C 1.171875 -14.191406 1.460938 -15.035156 2.046875 -15.609375 C 2.628906 -16.179688 3.46875 -16.46875 4.5625 -16.46875 L 7.203125 -16.46875 C 8.304688 -16.46875 9.144531 -16.179688 9.71875 -15.609375 C 10.289062 -15.035156 10.578125 -14.191406 10.578125 -13.078125 Z M 4.234375 -12.484375 L 4.234375 -3.96875 C 4.234375 -3.34375 4.546875 -3.03125 5.171875 -3.03125 L 6.671875 -3.03125 C 7.304688 -3.03125 7.625 -3.34375 7.625 -3.96875 L 7.625 -12.484375 C 7.625 -13.109375 7.304688 -13.421875 6.671875 -13.421875 L 5.171875 -13.421875 C 4.546875 -13.421875 4.234375 -13.109375 4.234375 -12.484375 Z M 4.234375 -12.484375 "/></g></g><g style="fill:#060705;fill-opacity:1;"><g transform="translate(51.54897, 64.849304)"><path style="stroke:none" d="M 7.953125 -16.46875 L 10.109375 -16.46875 C 10.234375 -16.46875 10.34375 -16.414062 10.4375 -16.3125 C 10.53125 -16.21875 10.578125 -16.109375 10.578125 -15.984375 L 10.578125 -3.390625 C 10.578125 -2.285156 10.289062 -1.441406 9.71875 -0.859375 C 9.144531 -0.285156 8.304688 0 7.203125 0 L 4.5625 0 C 3.46875 0 2.628906 -0.285156 2.046875 -0.859375 C 1.460938 -1.441406 1.171875 -2.285156 1.171875 -3.390625 L 1.171875 -15.984375 C 1.171875 -16.109375 1.21875 -16.21875 1.3125 -16.3125 C 1.40625 -16.414062 1.515625 -16.46875 1.640625 -16.46875 L 3.90625 -16.46875 C 4.03125 -16.46875 4.140625 -16.414062 4.234375 -16.3125 C 4.328125 -16.21875 4.375 -16.109375 4.375 -15.984375 L 4.375 -4.046875 C 4.375 -3.421875 4.6875 -3.109375 5.3125 -3.109375 L 6.53125 -3.109375 C 7.164062 -3.109375 7.484375 -3.421875 7.484375 -4.046875 L 7.484375 -15.984375 C 7.484375 -16.109375 7.53125 -16.21875 7.625 -16.3125 C 7.71875 -16.414062 7.828125 -16.46875 7.953125 -16.46875 Z M 7.953125 -16.46875 "/></g></g><g style="fill:#060705;fill-opacity:1;"><g transform="translate(63.299206, 64.849304)"><path style="stroke:none" d="M 10.5625 -16.078125 L 10.5625 -13.734375 C 10.5625 -13.460938 10.4375 -13.328125 10.1875 -13.328125 L 4.375 -13.328125 L 4.375 -9.71875 L 8.796875 -9.71875 C 9.046875 -9.71875 9.171875 -9.582031 9.171875 -9.3125 L 9.171875 -6.984375 C 9.171875 -6.710938 9.046875 -6.578125 8.796875 -6.578125 L 4.375 -6.578125 L 4.375 -3.109375 L 10.1875 -3.109375 C 10.4375 -3.109375 10.5625 -2.984375 10.5625 -2.734375 L 10.5625 -0.375 C 10.5625 -0.125 10.4375 0 10.1875 0 L 1.53125 0 C 1.289062 0 1.171875 -0.125 1.171875 -0.375 L 1.171875 -16.078125 C 1.171875 -16.335938 1.289062 -16.46875 1.53125 -16.46875 L 10.1875 -16.46875 C 10.4375 -16.46875 10.5625 -16.335938 10.5625 -16.078125 Z M 10.5625 -16.078125 "/></g></g><g style="fill:#060705;fill-opacity:1;"><g transform="translate(75.025938, 64.849304)"><path style="stroke:none" d="M 8.625 -16.46875 L 10.84375 -16.46875 C 11.09375 -16.46875 11.21875 -16.335938 11.21875 -16.078125 L 11.21875 -0.375 C 11.21875 -0.125 11.09375 0 10.84375 0 L 8.984375 0 C 8.796875 0 8.65625 -0.101562 8.5625 -0.3125 L 4.140625 -9.28125 L 4.140625 -0.375 C 4.140625 -0.125 4.015625 0 3.765625 0 L 1.546875 0 C 1.296875 0 1.171875 -0.125 1.171875 -0.375 L 1.171875 -16.078125 C 1.171875 -16.335938 1.296875 -16.46875 1.546875 -16.46875 L 3.40625 -16.46875 C 3.59375 -16.46875 3.734375 -16.363281 3.828125 -16.15625 L 8.25 -7.171875 L 8.25 -16.078125 C 8.25 -16.335938 8.375 -16.46875 8.625 -16.46875 Z M 8.625 -16.46875 "/></g></g><g style="fill:#060705;fill-opacity:1;"><g transform="translate(87.410691, 64.849304)"><path style="stroke:none" d="M 9.734375 -16.46875 L 1.078125 -16.46875 C 0.828125 -16.46875 0.703125 -16.335938 0.703125 -16.078125 L 0.703125 -13.734375 C 0.703125 -13.484375 0.828125 -13.359375 1.078125 -13.359375 L 3.8125 -13.359375 L 3.8125 -0.375 C 3.8125 -0.125 3.9375 0 4.1875 0 L 6.625 0 C 6.875 0 7 -0.125 7 -0.375 L 7 -13.359375 L 9.734375 -13.359375 C 9.984375 -13.359375 10.109375 -13.484375 10.109375 -13.734375 L 10.109375 -16.078125 C 10.109375 -16.335938 9.984375 -16.46875 9.734375 -16.46875 Z M 9.734375 -16.46875 "/></g></g><g style="fill:#060705;fill-opacity:1;"><g transform="translate(98.220909, 64.849304)"><path style="stroke:none" d="M 1.546875 0 L 4 0 C 4.25 0 4.375 -0.125 4.375 -0.375 L 4.375 -16.078125 C 4.375 -16.335938 4.25 -16.46875 4 -16.46875 L 1.546875 -16.46875 C 1.296875 -16.46875 1.171875 -16.335938 1.171875 -16.078125 L 1.171875 -0.375 C 1.171875 -0.125 1.296875 0 1.546875 0 Z M 1.546875 0 "/></g></g><g style="fill:#060705;fill-opacity:1;"><g transform="translate(103.767017, 64.849304)"><path style="stroke:none" d="M 12.28125 0 L 10 0 C 9.789062 0 9.664062 -0.109375 9.625 -0.328125 L 8.859375 -3.296875 L 4.4375 -3.296875 L 3.71875 -0.328125 C 3.664062 -0.109375 3.539062 0 3.34375 0 L 1.03125 0 C 0.75 0 0.648438 -0.132812 0.734375 -0.40625 L 4.625 -16.125 C 4.675781 -16.351562 4.8125 -16.46875 5.03125 -16.46875 L 8.296875 -16.46875 C 8.515625 -16.46875 8.648438 -16.351562 8.703125 -16.125 L 12.609375 -0.40625 C 12.679688 -0.132812 12.570312 0 12.28125 0 Z M 8.140625 -6.015625 L 6.65625 -12.421875 L 5.171875 -6.015625 Z M 8.140625 -6.015625 "/></g></g><g style="fill:#060705;fill-opacity:1;"><g transform="translate(117.091787, 64.849304)"><path style="stroke:none" d="M 4.375 -3.109375 L 4.375 -16.078125 C 4.375 -16.335938 4.25 -16.46875 4 -16.46875 L 1.546875 -16.46875 C 1.296875 -16.46875 1.171875 -16.335938 1.171875 -16.078125 L 1.171875 -0.375 C 1.171875 -0.125 1.296875 0 1.546875 0 L 9.03125 0 C 9.28125 0 9.40625 -0.125 9.40625 -0.375 L 9.40625 -2.734375 C 9.40625 -2.984375 9.28125 -3.109375 9.03125 -3.109375 Z M 4.375 -3.109375 "/></g></g><g style="fill:#060705;fill-opacity:1;"><g transform="translate(44.635903, 97.623313)"><path style="stroke:none" d="M 0 3.15625 L 0 0.984375 C 0 0.671875 0.15625 0.515625 0.46875 0.515625 L 14.65625 0.515625 C 14.96875 0.515625 15.125 0.671875 15.125 0.984375 L 15.125 3.15625 C 15.125 3.46875 14.96875 3.625 14.65625 3.625 L 0.46875 3.625 C 0.15625 3.625 0 3.46875 0 3.15625 Z M 0 3.15625 "/></g></g><g style="fill:#060705;fill-opacity:1;"><g transform="translate(59.74671, 97.623313)"><path style="stroke:none" d="M 10.578125 -16.078125 L 10.578125 -13.734375 C 10.578125 -13.484375 10.453125 -13.359375 10.203125 -13.359375 L 4.375 -13.359375 L 4.375 -9.328125 L 8.796875 -9.328125 C 9.046875 -9.328125 9.171875 -9.203125 9.171875 -8.953125 L 9.171875 -6.609375 C 9.171875 -6.359375 9.046875 -6.234375 8.796875 -6.234375 L 4.375 -6.234375 L 4.375 -0.375 C 4.375 -0.125 4.25 0 4 0 L 1.546875 0 C 1.296875 0 1.171875 -0.125 1.171875 -0.375 L 1.171875 -16.078125 C 1.171875 -16.335938 1.296875 -16.46875 1.546875 -16.46875 L 10.203125 -16.46875 C 10.453125 -16.46875 10.578125 -16.335938 10.578125 -16.078125 Z M 10.578125 -16.078125 "/></g></g><g style="fill:#060705;fill-opacity:1;"><g transform="translate(71.496946, 97.623313)"><path style="stroke:none" d="M 1.546875 0 L 4 0 C 4.25 0 4.375 -0.125 4.375 -0.375 L 4.375 -16.078125 C 4.375 -16.335938 4.25 -16.46875 4 -16.46875 L 1.546875 -16.46875 C 1.296875 -16.46875 1.171875 -16.335938 1.171875 -16.078125 L 1.171875 -0.375 C 1.171875 -0.125 1.296875 0 1.546875 0 Z M 1.546875 0 "/></g></g><g style="fill:#060705;fill-opacity:1;"><g transform="translate(77.043054, 97.623313)"><path style="stroke:none" d="M 4.375 -3.109375 L 4.375 -16.078125 C 4.375 -16.335938 4.25 -16.46875 4 -16.46875 L 1.546875 -16.46875 C 1.296875 -16.46875 1.171875 -16.335938 1.171875 -16.078125 L 1.171875 -0.375 C 1.171875 -0.125 1.296875 0 1.546875 0 L 9.03125 0 C 9.28125 0 9.40625 -0.125 9.40625 -0.375 L 9.40625 -2.734375 C 9.40625 -2.984375 9.28125 -3.109375 9.03125 -3.109375 Z M 4.375 -3.109375 "/></g></g><g style="fill:#060705;fill-opacity:1;"><g transform="translate(87.618265, 97.623313)"><path style="stroke:none" d="M 10.5625 -16.078125 L 10.5625 -13.734375 C 10.5625 -13.460938 10.4375 -13.328125 10.1875 -13.328125 L 4.375 -13.328125 L 4.375 -9.71875 L 8.796875 -9.71875 C 9.046875 -9.71875 9.171875 -9.582031 9.171875 -9.3125 L 9.171875 -6.984375 C 9.171875 -6.710938 9.046875 -6.578125 8.796875 -6.578125 L 4.375 -6.578125 L 4.375 -3.109375 L 10.1875 -3.109375 C 10.4375 -3.109375 10.5625 -2.984375 10.5625 -2.734375 L 10.5625 -0.375 C 10.5625 -0.125 10.4375 0 10.1875 0 L 1.53125 0 C 1.289062 0 1.171875 -0.125 1.171875 -0.375 L 1.171875 -16.078125 C 1.171875 -16.335938 1.289062 -16.46875 1.53125 -16.46875 L 10.1875 -16.46875 C 10.4375 -16.46875 10.5625 -16.335938 10.5625 -16.078125 Z M 10.5625 -16.078125 "/></g></g></g></svg>