<svg xmlns="http://www.w3.org/2000/svg" xmlns:xlink="http://www.w3.org/1999/xlink" width="128" zoomAndPan="magnify" viewBox="0 0 96 95.999999" height="128" preserveAspectRatio="xMidYMid meet" version="1.2"><defs><clipPath id="bae55bd508"><path d="M 6 0 L 90 0 L 90 96 L 6 96 Z M 6 0 "/></clipPath><clipPath id="bf25c0676f"><path d="M -14.304688 36.578125 L 68.691406 -11.898438 L 110.335938 59.402344 L 27.339844 107.878906 Z M -14.304688 36.578125 "/></clipPath><clipPath id="8b6ff9d634"><path d="M 89.484375 23.769531 L 89.5625 71.535156 L 48.082031 95.765625 L 6.515625 72.226562 L 6.4375 24.464844 L 47.921875 0.234375 Z M 89.484375 23.769531 "/></clipPath><clipPath id="6cd736b8c1"><path d="M 14.140625 9.121094 L 81.851562 9.121094 L 81.851562 86.839844 L 14.140625 86.839844 Z M 14.140625 9.121094 "/></clipPath></defs><g id="6649ca171a"><g clip-rule="nonzero" clip-path="url(#bae55bd508)"><g clip-rule="nonzero" clip-path="url(#bf25c0676f)"><g clip-rule="nonzero" clip-path="url(#8b6ff9d634)"><path style=" stroke:none;fill-rule:nonzero;fill:#65b30e;fill-opacity:1;" d="M -14.304688 36.578125 L 68.691406 -11.898438 L 110.335938 59.402344 L 27.339844 107.878906 Z M -14.304688 36.578125 "/></g></g></g><path style=" stroke:none;fill-rule:nonzero;fill:#87ff00;fill-opacity:1;" d="M 34.453125 34.738281 L 34.410156 34.695312 L 24.839844 44.265625 L 48.074219 67.457031 L 57.644531 57.933594 L 71.308594 44.265625 L 61.738281 34.695312 L 61.738281 34.652344 L 34.410156 34.652344 Z M 34.453125 34.738281 "/><g clip-rule="nonzero" clip-path="url(#6cd736b8c1)"><path style=" stroke:none;fill-rule:nonzero;fill:#87ff00;fill-opacity:1;" d="M 47.988281 9.179688 L 14.148438 28.574219 L 14.148438 67.371094 L 47.988281 86.769531 L 81.828125 67.371094 L 81.828125 28.574219 Z M 75.359375 63.664062 L 47.988281 79.4375 L 20.613281 63.664062 L 20.617188 32.195312 L 47.988281 16.417969 L 75.363281 32.195312 L 75.363281 63.664062 Z M 75.359375 63.664062 "/></g><g style="fill:#b21a22;fill-opacity:1;"><g transform="translate(10.881177, 43.232871)"><path style="stroke:none" d="M 3.039062 -11.460938 L 4.796875 -11.460938 C 5.671875 -11.460938 6.351562 -11.222656 6.828125 -10.746094 C 7.304688 -10.269531 7.542969 -9.589844 7.542969 -8.714844 L 7.542969 -7.679688 C 7.542969 -7.460938 7.472656 -7.28125 7.335938 -7.144531 C 7.199219 -7.007812 7.019531 -6.9375 6.800781 -6.9375 L 5.21875 -6.9375 C 5 -6.9375 4.820312 -7.007812 4.683594 -7.144531 C 4.546875 -7.28125 4.476562 -7.460938 4.476562 -7.679688 L 4.476562 -8.335938 C 4.476562 -8.390625 4.472656 -8.429688 4.464844 -8.457031 C 4.460938 -8.460938 4.460938 -8.464844 4.460938 -8.46875 C 4.460938 -8.464844 4.460938 -8.464844 4.464844 -8.460938 C 4.46875 -8.460938 4.46875 -8.457031 4.472656 -8.457031 C 4.46875 -8.457031 4.464844 -8.457031 4.460938 -8.460938 C 4.433594 -8.46875 4.394531 -8.472656 4.339844 -8.472656 L 3.480469 -8.472656 C 3.425781 -8.472656 3.386719 -8.46875 3.359375 -8.460938 C 3.355469 -8.457031 3.351562 -8.457031 3.347656 -8.457031 C 3.351562 -8.457031 3.351562 -8.460938 3.355469 -8.460938 C 3.359375 -8.464844 3.359375 -8.464844 3.359375 -8.46875 C 3.359375 -8.464844 3.359375 -8.460938 3.355469 -8.457031 C 3.347656 -8.429688 3.34375 -8.390625 3.34375 -8.335938 L 3.34375 -7.003906 L 2.851562 -7.003906 L 3.003906 -7.472656 L 6.796875 -6.25 C 7.039062 -6.164062 7.222656 -6.03125 7.351562 -5.847656 C 7.480469 -5.667969 7.542969 -5.453125 7.542969 -5.203125 L 7.542969 -2.257812 C 7.542969 -1.390625 7.304688 -0.71875 6.828125 -0.234375 C 6.351562 0.246094 5.675781 0.488281 4.796875 0.488281 L 3.039062 0.488281 C 2.171875 0.488281 1.5 0.25 1.015625 -0.234375 C 0.535156 -0.714844 0.292969 -1.390625 0.292969 -2.257812 L 0.292969 -3.277344 C 0.292969 -3.496094 0.363281 -3.671875 0.5 -3.808594 C 0.636719 -3.945312 0.816406 -4.015625 1.035156 -4.015625 L 2.617188 -4.015625 C 2.835938 -4.015625 3.015625 -3.945312 3.152344 -3.808594 C 3.289062 -3.671875 3.359375 -3.496094 3.359375 -3.277344 L 3.359375 -2.617188 C 3.359375 -2.566406 3.363281 -2.527344 3.371094 -2.496094 C 3.375 -2.492188 3.375 -2.488281 3.375 -2.488281 C 3.375 -2.488281 3.375 -2.492188 3.371094 -2.492188 C 3.367188 -2.496094 3.367188 -2.496094 3.363281 -2.5 C 3.367188 -2.496094 3.371094 -2.496094 3.375 -2.496094 C 3.402344 -2.484375 3.441406 -2.480469 3.496094 -2.480469 L 4.339844 -2.480469 C 4.394531 -2.480469 4.433594 -2.484375 4.460938 -2.496094 C 4.464844 -2.496094 4.46875 -2.496094 4.472656 -2.5 C 4.46875 -2.496094 4.46875 -2.496094 4.464844 -2.492188 C 4.460938 -2.492188 4.460938 -2.488281 4.460938 -2.488281 C 4.460938 -2.488281 4.460938 -2.492188 4.464844 -2.496094 C 4.472656 -2.527344 4.476562 -2.566406 4.476562 -2.617188 L 4.476562 -4.199219 L 4.96875 -4.199219 L 4.816406 -3.734375 L 1.054688 -4.957031 C 0.8125 -5.039062 0.625 -5.167969 0.492188 -5.347656 C 0.359375 -5.53125 0.292969 -5.75 0.292969 -6.003906 L 0.292969 -8.714844 C 0.292969 -9.59375 0.535156 -10.269531 1.019531 -10.746094 C 1.5 -11.222656 2.175781 -11.460938 3.039062 -11.460938 Z M 3.039062 -10.480469 C 2.441406 -10.480469 2 -10.335938 1.707031 -10.050781 C 1.417969 -9.765625 1.273438 -9.320312 1.273438 -8.714844 L 1.273438 -6.003906 C 1.273438 -5.960938 1.277344 -5.9375 1.285156 -5.925781 C 1.292969 -5.914062 1.320312 -5.902344 1.359375 -5.886719 L 5.457031 -4.554688 L 5.457031 -2.617188 C 5.457031 -2.273438 5.359375 -2 5.15625 -1.800781 C 4.957031 -1.601562 4.683594 -1.5 4.339844 -1.5 L 3.496094 -1.5 C 3.152344 -1.5 2.878906 -1.601562 2.679688 -1.800781 C 2.476562 -2 2.378906 -2.273438 2.378906 -2.617188 L 2.378906 -3.277344 C 2.378906 -3.265625 2.382812 -3.25 2.386719 -3.230469 C 2.402344 -3.1875 2.425781 -3.152344 2.457031 -3.117188 C 2.492188 -3.082031 2.53125 -3.058594 2.570312 -3.046875 C 2.589844 -3.039062 2.605469 -3.035156 2.617188 -3.035156 L 1.035156 -3.035156 C 1.046875 -3.035156 1.0625 -3.039062 1.078125 -3.046875 C 1.121094 -3.058594 1.160156 -3.082031 1.191406 -3.117188 C 1.226562 -3.152344 1.25 -3.1875 1.265625 -3.230469 C 1.269531 -3.25 1.273438 -3.265625 1.273438 -3.277344 L 1.273438 -2.257812 C 1.273438 -1.660156 1.417969 -1.21875 1.710938 -0.925781 C 2 -0.636719 2.445312 -0.488281 3.039062 -0.488281 L 4.796875 -0.488281 C 5.402344 -0.488281 5.847656 -0.632812 6.132812 -0.921875 C 6.417969 -1.214844 6.5625 -1.660156 6.5625 -2.257812 L 6.5625 -5.203125 C 6.5625 -5.246094 6.558594 -5.273438 6.550781 -5.285156 C 6.542969 -5.296875 6.523438 -5.304688 6.496094 -5.316406 L 2.363281 -6.648438 L 2.363281 -8.335938 C 2.363281 -8.683594 2.460938 -8.953125 2.664062 -9.152344 C 2.863281 -9.355469 3.136719 -9.453125 3.480469 -9.453125 L 4.339844 -9.453125 C 4.683594 -9.453125 4.957031 -9.355469 5.15625 -9.152344 C 5.359375 -8.953125 5.457031 -8.683594 5.457031 -8.335938 L 5.457031 -7.679688 C 5.457031 -7.691406 5.453125 -7.707031 5.449219 -7.722656 C 5.433594 -7.765625 5.410156 -7.804688 5.378906 -7.835938 C 5.34375 -7.871094 5.304688 -7.894531 5.265625 -7.910156 C 5.246094 -7.914062 5.230469 -7.917969 5.21875 -7.917969 L 6.800781 -7.917969 C 6.789062 -7.917969 6.773438 -7.914062 6.757812 -7.910156 C 6.714844 -7.894531 6.675781 -7.871094 6.644531 -7.835938 C 6.609375 -7.804688 6.585938 -7.765625 6.570312 -7.722656 C 6.566406 -7.707031 6.5625 -7.691406 6.5625 -7.679688 L 6.5625 -8.714844 C 6.5625 -9.320312 6.417969 -9.765625 6.132812 -10.050781 C 5.847656 -10.335938 5.402344 -10.480469 4.796875 -10.480469 Z M 3.039062 -10.480469 "/></g></g><g style="fill:#b21a22;fill-opacity:1;"><g transform="translate(18.714668, 43.232871)"><path style="stroke:none" d="M 7.527344 -10.71875 L 7.527344 -9.152344 C 7.527344 -8.933594 7.460938 -8.753906 7.332031 -8.617188 C 7.191406 -8.46875 7.011719 -8.394531 6.785156 -8.394531 L 2.914062 -8.394531 L 2.914062 -8.886719 L 3.40625 -8.886719 L 3.40625 -6.472656 L 2.914062 -6.472656 L 2.914062 -6.960938 L 5.859375 -6.960938 C 6.085938 -6.960938 6.265625 -6.890625 6.40625 -6.742188 C 6.535156 -6.601562 6.601562 -6.425781 6.601562 -6.207031 L 6.601562 -4.65625 C 6.601562 -4.4375 6.535156 -4.257812 6.40625 -4.117188 C 6.265625 -3.972656 6.085938 -3.898438 5.859375 -3.898438 L 2.914062 -3.898438 L 2.914062 -4.386719 L 3.40625 -4.386719 L 3.40625 -2.070312 L 2.914062 -2.070312 L 2.914062 -2.558594 L 6.785156 -2.558594 C 7.003906 -2.558594 7.183594 -2.488281 7.320312 -2.351562 C 7.457031 -2.214844 7.527344 -2.035156 7.527344 -1.816406 L 7.527344 -0.25 C 7.527344 -0.03125 7.457031 0.144531 7.320312 0.285156 C 7.183594 0.421875 7.003906 0.488281 6.785156 0.488281 L 1.019531 0.488281 C 0.800781 0.488281 0.621094 0.417969 0.484375 0.273438 C 0.359375 0.136719 0.292969 -0.0390625 0.292969 -0.25 L 0.292969 -10.71875 C 0.292969 -10.933594 0.359375 -11.105469 0.484375 -11.242188 C 0.621094 -11.386719 0.800781 -11.460938 1.019531 -11.460938 L 6.785156 -11.460938 C 7.003906 -11.460938 7.183594 -11.390625 7.320312 -11.253906 C 7.457031 -11.117188 7.527344 -10.9375 7.527344 -10.71875 Z M 6.546875 -10.71875 C 6.546875 -10.707031 6.550781 -10.691406 6.554688 -10.675781 C 6.570312 -10.632812 6.59375 -10.59375 6.628906 -10.5625 C 6.660156 -10.527344 6.699219 -10.503906 6.742188 -10.488281 C 6.757812 -10.484375 6.773438 -10.480469 6.785156 -10.480469 L 1.019531 -10.480469 C 1.082031 -10.480469 1.140625 -10.511719 1.199219 -10.574219 C 1.230469 -10.605469 1.253906 -10.644531 1.265625 -10.683594 C 1.269531 -10.699219 1.273438 -10.710938 1.273438 -10.71875 L 1.273438 -0.25 C 1.273438 -0.257812 1.269531 -0.269531 1.265625 -0.289062 C 1.253906 -0.328125 1.230469 -0.363281 1.199219 -0.398438 C 1.140625 -0.460938 1.082031 -0.488281 1.019531 -0.488281 L 6.785156 -0.488281 C 6.773438 -0.488281 6.757812 -0.488281 6.742188 -0.480469 C 6.699219 -0.464844 6.660156 -0.441406 6.628906 -0.410156 C 6.59375 -0.375 6.570312 -0.335938 6.554688 -0.296875 C 6.550781 -0.277344 6.546875 -0.261719 6.546875 -0.25 L 6.546875 -1.816406 C 6.546875 -1.808594 6.550781 -1.792969 6.554688 -1.773438 C 6.570312 -1.730469 6.59375 -1.691406 6.628906 -1.660156 C 6.660156 -1.625 6.699219 -1.601562 6.742188 -1.589844 C 6.757812 -1.582031 6.773438 -1.578125 6.785156 -1.578125 L 2.425781 -1.578125 L 2.425781 -4.878906 L 5.859375 -4.878906 C 5.847656 -4.878906 5.828125 -4.875 5.808594 -4.867188 C 5.765625 -4.851562 5.726562 -4.824219 5.691406 -4.789062 C 5.664062 -4.757812 5.640625 -4.722656 5.628906 -4.683594 C 5.625 -4.671875 5.621094 -4.660156 5.621094 -4.65625 L 5.621094 -6.207031 C 5.621094 -6.199219 5.625 -6.191406 5.628906 -6.175781 C 5.640625 -6.136719 5.664062 -6.101562 5.691406 -6.070312 C 5.726562 -6.035156 5.765625 -6.007812 5.808594 -5.996094 C 5.828125 -5.988281 5.847656 -5.984375 5.859375 -5.984375 L 2.425781 -5.984375 L 2.425781 -9.375 L 6.785156 -9.375 C 6.773438 -9.375 6.753906 -9.371094 6.730469 -9.363281 C 6.6875 -9.347656 6.652344 -9.324219 6.617188 -9.289062 C 6.585938 -9.257812 6.566406 -9.21875 6.554688 -9.183594 C 6.550781 -9.167969 6.546875 -9.15625 6.546875 -9.152344 Z M 6.546875 -10.71875 "/></g></g><g style="fill:#b21a22;fill-opacity:1;"><g transform="translate(26.532489, 43.232871)"><path style="stroke:none" d="M 7.542969 -8.714844 L 7.542969 -2.257812 C 7.542969 -1.683594 7.441406 -1.191406 7.234375 -0.789062 C 7.015625 -0.359375 6.691406 -0.0351562 6.253906 0.1875 L 6.035156 -0.25 L 6.476562 -0.457031 L 7.105469 0.890625 L 6.660156 1.097656 L 7.097656 0.878906 C 7.160156 1 7.1875 1.125 7.175781 1.25 C 7.164062 1.402344 7.101562 1.535156 6.992188 1.648438 C 6.84375 1.796875 6.660156 1.867188 6.441406 1.867188 L 4.8125 1.867188 C 4.589844 1.867188 4.414062 1.792969 4.277344 1.640625 C 4.214844 1.566406 4.15625 1.480469 4.105469 1.378906 L 4.101562 1.371094 L 3.566406 0.203125 L 4.011719 0 L 4.011719 0.488281 L 3.039062 0.488281 C 2.171875 0.488281 1.5 0.25 1.015625 -0.234375 C 0.535156 -0.714844 0.292969 -1.390625 0.292969 -2.257812 L 0.292969 -8.714844 C 0.292969 -9.59375 0.535156 -10.269531 1.019531 -10.746094 C 1.5 -11.222656 2.175781 -11.460938 3.039062 -11.460938 L 4.796875 -11.460938 C 5.671875 -11.460938 6.351562 -11.222656 6.828125 -10.746094 C 7.304688 -10.269531 7.542969 -9.589844 7.542969 -8.714844 Z M 6.5625 -8.714844 C 6.5625 -9.320312 6.417969 -9.765625 6.132812 -10.050781 C 5.847656 -10.335938 5.402344 -10.480469 4.796875 -10.480469 L 3.039062 -10.480469 C 2.441406 -10.480469 2 -10.335938 1.707031 -10.050781 C 1.417969 -9.765625 1.273438 -9.320312 1.273438 -8.714844 L 1.273438 -2.257812 C 1.273438 -1.660156 1.417969 -1.21875 1.710938 -0.925781 C 2 -0.636719 2.445312 -0.488281 3.039062 -0.488281 L 4.324219 -0.488281 L 4.988281 0.957031 L 4.542969 1.160156 L 4.984375 0.941406 C 4.996094 0.964844 5.007812 0.984375 5.015625 0.992188 C 4.953125 0.925781 4.886719 0.890625 4.8125 0.890625 L 6.441406 0.890625 C 6.390625 0.890625 6.34375 0.910156 6.296875 0.953125 C 6.238281 1.015625 6.207031 1.085938 6.199219 1.171875 C 6.195312 1.230469 6.203125 1.277344 6.222656 1.316406 L 6.21875 1.308594 L 5.390625 -0.472656 L 5.8125 -0.6875 C 6.054688 -0.8125 6.238281 -0.992188 6.359375 -1.234375 C 6.496094 -1.496094 6.5625 -1.839844 6.5625 -2.257812 Z M 3.3125 -8.320312 L 3.3125 -2.648438 C 3.3125 -2.597656 3.316406 -2.558594 3.324219 -2.527344 C 3.328125 -2.523438 3.328125 -2.519531 3.328125 -2.519531 C 3.328125 -2.519531 3.328125 -2.523438 3.324219 -2.523438 C 3.320312 -2.527344 3.320312 -2.527344 3.316406 -2.53125 C 3.320312 -2.527344 3.324219 -2.527344 3.328125 -2.527344 C 3.355469 -2.515625 3.394531 -2.511719 3.449219 -2.511719 L 4.449219 -2.511719 C 4.503906 -2.511719 4.542969 -2.515625 4.570312 -2.527344 C 4.574219 -2.527344 4.578125 -2.527344 4.582031 -2.53125 C 4.578125 -2.527344 4.578125 -2.527344 4.574219 -2.523438 C 4.574219 -2.523438 4.570312 -2.519531 4.570312 -2.519531 C 4.570312 -2.519531 4.570312 -2.523438 4.574219 -2.527344 C 4.582031 -2.558594 4.589844 -2.597656 4.589844 -2.648438 L 4.589844 -8.320312 C 4.589844 -8.375 4.582031 -8.414062 4.574219 -8.441406 C 4.570312 -8.445312 4.570312 -8.449219 4.570312 -8.453125 C 4.570312 -8.449219 4.574219 -8.449219 4.574219 -8.445312 C 4.578125 -8.441406 4.578125 -8.441406 4.582031 -8.441406 C 4.578125 -8.441406 4.574219 -8.441406 4.570312 -8.445312 C 4.542969 -8.453125 4.503906 -8.457031 4.449219 -8.457031 L 3.449219 -8.457031 C 3.394531 -8.457031 3.355469 -8.453125 3.328125 -8.445312 C 3.324219 -8.441406 3.320312 -8.441406 3.316406 -8.441406 C 3.320312 -8.441406 3.320312 -8.441406 3.324219 -8.445312 C 3.328125 -8.449219 3.328125 -8.449219 3.328125 -8.453125 C 3.328125 -8.449219 3.328125 -8.445312 3.324219 -8.441406 C 3.316406 -8.414062 3.3125 -8.375 3.3125 -8.320312 Z M 2.332031 -8.320312 C 2.332031 -8.664062 2.429688 -8.9375 2.632812 -9.136719 C 2.832031 -9.339844 3.105469 -9.4375 3.449219 -9.4375 L 4.449219 -9.4375 C 4.796875 -9.4375 5.066406 -9.339844 5.265625 -9.136719 C 5.46875 -8.9375 5.566406 -8.664062 5.566406 -8.320312 L 5.566406 -2.648438 C 5.566406 -2.304688 5.46875 -2.03125 5.265625 -1.832031 C 5.066406 -1.632812 4.796875 -1.53125 4.449219 -1.53125 L 3.449219 -1.53125 C 3.105469 -1.53125 2.832031 -1.632812 2.632812 -1.832031 C 2.429688 -2.03125 2.332031 -2.304688 2.332031 -2.648438 Z M 2.332031 -8.320312 "/></g></g><g style="fill:#b21a22;fill-opacity:1;"><g transform="translate(34.36598, 43.232871)"><path style="stroke:none" d="M 5.296875 -11.460938 L 6.738281 -11.460938 C 6.957031 -11.460938 7.144531 -11.382812 7.304688 -11.222656 C 7.464844 -11.0625 7.542969 -10.875 7.542969 -10.65625 L 7.542969 -2.257812 C 7.542969 -1.390625 7.304688 -0.71875 6.828125 -0.234375 C 6.351562 0.246094 5.675781 0.488281 4.796875 0.488281 L 3.039062 0.488281 C 2.171875 0.488281 1.5 0.25 1.015625 -0.234375 C 0.535156 -0.714844 0.292969 -1.390625 0.292969 -2.257812 L 0.292969 -10.65625 C 0.292969 -10.875 0.371094 -11.0625 0.53125 -11.222656 C 0.691406 -11.382812 0.878906 -11.460938 1.097656 -11.460938 L 2.601562 -11.460938 C 2.820312 -11.460938 3.007812 -11.382812 3.167969 -11.222656 C 3.324219 -11.0625 3.40625 -10.875 3.40625 -10.65625 L 3.40625 -2.695312 C 3.40625 -2.644531 3.410156 -2.605469 3.417969 -2.578125 C 3.421875 -2.570312 3.421875 -2.566406 3.421875 -2.566406 C 3.421875 -2.566406 3.421875 -2.570312 3.417969 -2.570312 C 3.414062 -2.574219 3.414062 -2.574219 3.410156 -2.578125 C 3.414062 -2.574219 3.417969 -2.574219 3.421875 -2.574219 C 3.449219 -2.5625 3.492188 -2.558594 3.542969 -2.558594 L 4.355469 -2.558594 C 4.410156 -2.558594 4.449219 -2.5625 4.476562 -2.574219 C 4.480469 -2.574219 4.484375 -2.574219 4.488281 -2.578125 C 4.484375 -2.574219 4.484375 -2.574219 4.480469 -2.570312 C 4.476562 -2.570312 4.476562 -2.566406 4.476562 -2.566406 C 4.476562 -2.566406 4.476562 -2.570312 4.480469 -2.578125 C 4.488281 -2.605469 4.492188 -2.644531 4.492188 -2.695312 L 4.492188 -10.65625 C 4.492188 -10.875 4.574219 -11.0625 4.730469 -11.222656 C 4.890625 -11.382812 5.078125 -11.460938 5.296875 -11.460938 Z M 5.296875 -10.480469 C 5.347656 -10.480469 5.390625 -10.496094 5.425781 -10.53125 C 5.457031 -10.5625 5.472656 -10.605469 5.472656 -10.65625 L 5.472656 -2.695312 C 5.472656 -2.351562 5.375 -2.078125 5.171875 -1.878906 C 4.972656 -1.679688 4.699219 -1.578125 4.355469 -1.578125 L 3.542969 -1.578125 C 3.199219 -1.578125 2.925781 -1.679688 2.726562 -1.878906 C 2.523438 -2.078125 2.425781 -2.351562 2.425781 -2.695312 L 2.425781 -10.65625 C 2.425781 -10.605469 2.441406 -10.5625 2.476562 -10.53125 C 2.507812 -10.496094 2.550781 -10.480469 2.601562 -10.480469 L 1.097656 -10.480469 C 1.148438 -10.480469 1.191406 -10.496094 1.222656 -10.53125 C 1.257812 -10.5625 1.273438 -10.605469 1.273438 -10.65625 L 1.273438 -2.257812 C 1.273438 -1.660156 1.417969 -1.21875 1.710938 -0.925781 C 2 -0.636719 2.445312 -0.488281 3.039062 -0.488281 L 4.796875 -0.488281 C 5.402344 -0.488281 5.847656 -0.632812 6.132812 -0.921875 C 6.417969 -1.214844 6.5625 -1.660156 6.5625 -2.257812 L 6.5625 -10.65625 C 6.5625 -10.605469 6.578125 -10.5625 6.613281 -10.53125 C 6.644531 -10.496094 6.6875 -10.480469 6.738281 -10.480469 Z M 5.296875 -10.480469 "/></g></g><g style="fill:#b21a22;fill-opacity:1;"><g transform="translate(42.19947, 43.232871)"><path style="stroke:none" d="M 7.527344 -10.71875 L 7.527344 -9.152344 C 7.527344 -8.933594 7.460938 -8.753906 7.332031 -8.617188 C 7.191406 -8.46875 7.011719 -8.394531 6.785156 -8.394531 L 2.914062 -8.394531 L 2.914062 -8.886719 L 3.40625 -8.886719 L 3.40625 -6.472656 L 2.914062 -6.472656 L 2.914062 -6.960938 L 5.859375 -6.960938 C 6.085938 -6.960938 6.265625 -6.890625 6.40625 -6.742188 C 6.535156 -6.601562 6.601562 -6.425781 6.601562 -6.207031 L 6.601562 -4.65625 C 6.601562 -4.4375 6.535156 -4.257812 6.40625 -4.117188 C 6.265625 -3.972656 6.085938 -3.898438 5.859375 -3.898438 L 2.914062 -3.898438 L 2.914062 -4.386719 L 3.40625 -4.386719 L 3.40625 -2.070312 L 2.914062 -2.070312 L 2.914062 -2.558594 L 6.785156 -2.558594 C 7.003906 -2.558594 7.183594 -2.488281 7.320312 -2.351562 C 7.457031 -2.214844 7.527344 -2.035156 7.527344 -1.816406 L 7.527344 -0.25 C 7.527344 -0.03125 7.457031 0.144531 7.320312 0.285156 C 7.183594 0.421875 7.003906 0.488281 6.785156 0.488281 L 1.019531 0.488281 C 0.800781 0.488281 0.621094 0.417969 0.484375 0.273438 C 0.359375 0.136719 0.292969 -0.0390625 0.292969 -0.25 L 0.292969 -10.71875 C 0.292969 -10.933594 0.359375 -11.105469 0.484375 -11.242188 C 0.621094 -11.386719 0.800781 -11.460938 1.019531 -11.460938 L 6.785156 -11.460938 C 7.003906 -11.460938 7.183594 -11.390625 7.320312 -11.253906 C 7.457031 -11.117188 7.527344 -10.9375 7.527344 -10.71875 Z M 6.546875 -10.71875 C 6.546875 -10.707031 6.550781 -10.691406 6.554688 -10.675781 C 6.570312 -10.632812 6.59375 -10.59375 6.628906 -10.5625 C 6.660156 -10.527344 6.699219 -10.503906 6.742188 -10.488281 C 6.757812 -10.484375 6.773438 -10.480469 6.785156 -10.480469 L 1.019531 -10.480469 C 1.082031 -10.480469 1.140625 -10.511719 1.199219 -10.574219 C 1.230469 -10.605469 1.253906 -10.644531 1.265625 -10.683594 C 1.269531 -10.699219 1.273438 -10.710938 1.273438 -10.71875 L 1.273438 -0.25 C 1.273438 -0.257812 1.269531 -0.269531 1.265625 -0.289062 C 1.253906 -0.328125 1.230469 -0.363281 1.199219 -0.398438 C 1.140625 -0.460938 1.082031 -0.488281 1.019531 -0.488281 L 6.785156 -0.488281 C 6.773438 -0.488281 6.757812 -0.488281 6.742188 -0.480469 C 6.699219 -0.464844 6.660156 -0.441406 6.628906 -0.410156 C 6.59375 -0.375 6.570312 -0.335938 6.554688 -0.296875 C 6.550781 -0.277344 6.546875 -0.261719 6.546875 -0.25 L 6.546875 -1.816406 C 6.546875 -1.808594 6.550781 -1.792969 6.554688 -1.773438 C 6.570312 -1.730469 6.59375 -1.691406 6.628906 -1.660156 C 6.660156 -1.625 6.699219 -1.601562 6.742188 -1.589844 C 6.757812 -1.582031 6.773438 -1.578125 6.785156 -1.578125 L 2.425781 -1.578125 L 2.425781 -4.878906 L 5.859375 -4.878906 C 5.847656 -4.878906 5.828125 -4.875 5.808594 -4.867188 C 5.765625 -4.851562 5.726562 -4.824219 5.691406 -4.789062 C 5.664062 -4.757812 5.640625 -4.722656 5.628906 -4.683594 C 5.625 -4.671875 5.621094 -4.660156 5.621094 -4.65625 L 5.621094 -6.207031 C 5.621094 -6.199219 5.625 -6.191406 5.628906 -6.175781 C 5.640625 -6.136719 5.664062 -6.101562 5.691406 -6.070312 C 5.726562 -6.035156 5.765625 -6.007812 5.808594 -5.996094 C 5.828125 -5.988281 5.847656 -5.984375 5.859375 -5.984375 L 2.425781 -5.984375 L 2.425781 -9.375 L 6.785156 -9.375 C 6.773438 -9.375 6.753906 -9.371094 6.730469 -9.363281 C 6.6875 -9.347656 6.652344 -9.324219 6.617188 -9.289062 C 6.585938 -9.257812 6.566406 -9.21875 6.554688 -9.183594 C 6.550781 -9.167969 6.546875 -9.15625 6.546875 -9.152344 Z M 6.546875 -10.71875 "/></g></g><g style="fill:#b21a22;fill-opacity:1;"><g transform="translate(50.017291, 43.232871)"><path style="stroke:none" d="M 5.75 -11.460938 L 7.226562 -11.460938 C 7.445312 -11.460938 7.621094 -11.390625 7.757812 -11.253906 C 7.898438 -11.117188 7.964844 -10.9375 7.964844 -10.71875 L 7.964844 -0.25 C 7.964844 -0.03125 7.898438 0.144531 7.757812 0.285156 C 7.621094 0.421875 7.445312 0.488281 7.226562 0.488281 L 5.988281 0.488281 C 5.820312 0.488281 5.667969 0.441406 5.535156 0.347656 C 5.417969 0.261719 5.328125 0.148438 5.261719 0 L 5.703125 -0.203125 L 5.265625 0.0117188 L 2.320312 -5.972656 L 2.757812 -6.191406 L 3.246094 -6.191406 L 3.246094 -0.25 C 3.246094 -0.03125 3.179688 0.144531 3.042969 0.285156 C 2.90625 0.421875 2.726562 0.488281 2.507812 0.488281 L 1.035156 0.488281 C 0.816406 0.488281 0.636719 0.421875 0.5 0.285156 C 0.363281 0.144531 0.292969 -0.03125 0.292969 -0.25 L 0.292969 -10.71875 C 0.292969 -10.9375 0.363281 -11.117188 0.5 -11.253906 C 0.636719 -11.390625 0.816406 -11.460938 1.035156 -11.460938 L 2.273438 -11.460938 C 2.441406 -11.460938 2.589844 -11.414062 2.722656 -11.316406 C 2.839844 -11.230469 2.933594 -11.117188 3 -10.972656 L 2.554688 -10.765625 L 2.992188 -10.984375 L 5.941406 -4.996094 L 5.5 -4.78125 L 5.011719 -4.78125 L 5.011719 -10.71875 C 5.011719 -10.9375 5.078125 -11.117188 5.21875 -11.253906 C 5.355469 -11.390625 5.53125 -11.460938 5.75 -11.460938 Z M 5.75 -10.480469 C 5.761719 -10.480469 5.777344 -10.484375 5.796875 -10.488281 C 5.839844 -10.503906 5.875 -10.527344 5.910156 -10.5625 C 5.945312 -10.59375 5.96875 -10.632812 5.980469 -10.675781 C 5.988281 -10.691406 5.992188 -10.707031 5.992188 -10.71875 L 5.992188 -4.78125 L 5.0625 -4.5625 L 2.113281 -10.554688 L 2.109375 -10.5625 C 2.113281 -10.550781 2.128906 -10.539062 2.148438 -10.523438 C 2.1875 -10.496094 2.230469 -10.480469 2.273438 -10.480469 L 1.035156 -10.480469 C 1.046875 -10.480469 1.0625 -10.484375 1.078125 -10.488281 C 1.121094 -10.503906 1.160156 -10.527344 1.191406 -10.5625 C 1.226562 -10.59375 1.25 -10.632812 1.265625 -10.675781 C 1.269531 -10.691406 1.273438 -10.707031 1.273438 -10.71875 L 1.273438 -0.25 C 1.273438 -0.261719 1.269531 -0.277344 1.265625 -0.296875 C 1.25 -0.335938 1.226562 -0.375 1.191406 -0.410156 C 1.160156 -0.441406 1.121094 -0.464844 1.078125 -0.480469 C 1.0625 -0.488281 1.046875 -0.488281 1.035156 -0.488281 L 2.507812 -0.488281 C 2.496094 -0.488281 2.480469 -0.488281 2.460938 -0.480469 C 2.421875 -0.464844 2.382812 -0.441406 2.347656 -0.410156 C 2.316406 -0.375 2.292969 -0.335938 2.277344 -0.296875 C 2.273438 -0.277344 2.269531 -0.261719 2.269531 -0.25 L 2.269531 -6.191406 L 3.199219 -6.40625 L 6.148438 -0.414062 L 6.148438 -0.410156 C 6.144531 -0.417969 6.132812 -0.433594 6.109375 -0.449219 C 6.070312 -0.476562 6.03125 -0.488281 5.988281 -0.488281 L 7.226562 -0.488281 C 7.214844 -0.488281 7.199219 -0.488281 7.179688 -0.480469 C 7.136719 -0.464844 7.101562 -0.441406 7.066406 -0.410156 C 7.03125 -0.375 7.007812 -0.335938 6.996094 -0.296875 C 6.988281 -0.277344 6.984375 -0.261719 6.984375 -0.25 L 6.984375 -10.71875 C 6.984375 -10.707031 6.988281 -10.691406 6.996094 -10.675781 C 7.007812 -10.632812 7.03125 -10.59375 7.066406 -10.5625 C 7.101562 -10.527344 7.136719 -10.503906 7.179688 -10.488281 C 7.199219 -10.484375 7.214844 -10.480469 7.226562 -10.480469 Z M 5.75 -10.480469 "/></g></g><g style="fill:#b21a22;fill-opacity:1;"><g transform="translate(58.273793, 43.232871)"><path style="stroke:none" d="M 6.488281 -10.480469 L 0.722656 -10.480469 C 0.730469 -10.480469 0.746094 -10.484375 0.765625 -10.488281 C 0.808594 -10.503906 0.84375 -10.527344 0.878906 -10.5625 C 0.914062 -10.59375 0.9375 -10.632812 0.949219 -10.675781 C 0.957031 -10.691406 0.960938 -10.707031 0.960938 -10.71875 L 0.960938 -9.152344 C 0.960938 -9.164062 0.957031 -9.179688 0.949219 -9.199219 C 0.9375 -9.238281 0.914062 -9.277344 0.878906 -9.3125 C 0.84375 -9.34375 0.808594 -9.367188 0.765625 -9.382812 C 0.746094 -9.386719 0.730469 -9.390625 0.722656 -9.390625 L 3.027344 -9.390625 L 3.027344 -0.25 C 3.027344 -0.261719 3.027344 -0.277344 3.019531 -0.296875 C 3.003906 -0.335938 2.980469 -0.375 2.949219 -0.410156 C 2.914062 -0.441406 2.875 -0.464844 2.835938 -0.480469 C 2.816406 -0.488281 2.800781 -0.488281 2.789062 -0.488281 L 4.417969 -0.488281 C 4.410156 -0.488281 4.394531 -0.488281 4.375 -0.480469 C 4.332031 -0.464844 4.292969 -0.441406 4.261719 -0.410156 C 4.226562 -0.375 4.203125 -0.335938 4.191406 -0.296875 C 4.183594 -0.277344 4.179688 -0.261719 4.179688 -0.25 L 4.179688 -9.390625 L 6.488281 -9.390625 C 6.476562 -9.390625 6.460938 -9.386719 6.441406 -9.382812 C 6.402344 -9.367188 6.363281 -9.34375 6.328125 -9.3125 C 6.296875 -9.277344 6.273438 -9.238281 6.257812 -9.199219 C 6.253906 -9.179688 6.25 -9.164062 6.25 -9.152344 L 6.25 -10.71875 C 6.25 -10.707031 6.253906 -10.691406 6.257812 -10.675781 C 6.273438 -10.632812 6.296875 -10.59375 6.328125 -10.5625 C 6.363281 -10.527344 6.402344 -10.503906 6.441406 -10.488281 C 6.460938 -10.484375 6.476562 -10.480469 6.488281 -10.480469 Z M 6.488281 -11.460938 C 6.707031 -11.460938 6.886719 -11.390625 7.023438 -11.253906 C 7.160156 -11.117188 7.230469 -10.9375 7.230469 -10.71875 L 7.230469 -9.152344 C 7.230469 -8.933594 7.160156 -8.753906 7.023438 -8.617188 C 6.886719 -8.480469 6.707031 -8.410156 6.488281 -8.410156 L 4.671875 -8.410156 L 4.671875 -8.902344 L 5.160156 -8.902344 L 5.160156 -0.25 C 5.160156 -0.03125 5.089844 0.144531 4.953125 0.285156 C 4.816406 0.421875 4.636719 0.488281 4.417969 0.488281 L 2.789062 0.488281 C 2.570312 0.488281 2.394531 0.421875 2.253906 0.285156 C 2.117188 0.144531 2.050781 -0.03125 2.050781 -0.25 L 2.050781 -8.902344 L 2.539062 -8.902344 L 2.539062 -8.410156 L 0.722656 -8.410156 C 0.503906 -8.410156 0.324219 -8.480469 0.1875 -8.617188 C 0.0507812 -8.753906 -0.0195312 -8.933594 -0.0195312 -9.152344 L -0.0195312 -10.71875 C -0.0195312 -10.9375 0.0507812 -11.117188 0.1875 -11.253906 C 0.324219 -11.390625 0.503906 -11.460938 0.722656 -11.460938 Z M 6.488281 -11.460938 "/></g></g><g style="fill:#b21a22;fill-opacity:1;"><g transform="translate(65.480605, 43.232871)"><path style="stroke:none" d="M 1.035156 -0.488281 L 2.664062 -0.488281 C 2.652344 -0.488281 2.636719 -0.488281 2.617188 -0.480469 C 2.578125 -0.464844 2.539062 -0.441406 2.507812 -0.410156 C 2.472656 -0.375 2.449219 -0.335938 2.433594 -0.296875 C 2.429688 -0.277344 2.425781 -0.261719 2.425781 -0.25 L 2.425781 -10.71875 C 2.425781 -10.707031 2.429688 -10.691406 2.433594 -10.675781 C 2.449219 -10.632812 2.472656 -10.59375 2.507812 -10.5625 C 2.539062 -10.527344 2.578125 -10.503906 2.617188 -10.488281 C 2.636719 -10.484375 2.652344 -10.480469 2.664062 -10.480469 L 1.035156 -10.480469 C 1.046875 -10.480469 1.0625 -10.484375 1.078125 -10.488281 C 1.121094 -10.503906 1.160156 -10.527344 1.191406 -10.5625 C 1.226562 -10.59375 1.25 -10.632812 1.265625 -10.675781 C 1.269531 -10.691406 1.273438 -10.707031 1.273438 -10.71875 L 1.273438 -0.25 C 1.273438 -0.261719 1.269531 -0.277344 1.265625 -0.296875 C 1.25 -0.335938 1.226562 -0.375 1.191406 -0.410156 C 1.160156 -0.441406 1.121094 -0.464844 1.078125 -0.480469 C 1.0625 -0.488281 1.046875 -0.488281 1.035156 -0.488281 Z M 1.035156 0.488281 C 0.816406 0.488281 0.636719 0.421875 0.5 0.285156 C 0.363281 0.144531 0.292969 -0.03125 0.292969 -0.25 L 0.292969 -10.71875 C 0.292969 -10.9375 0.363281 -11.117188 0.5 -11.253906 C 0.636719 -11.390625 0.816406 -11.460938 1.035156 -11.460938 L 2.664062 -11.460938 C 2.882812 -11.460938 3.0625 -11.390625 3.199219 -11.253906 C 3.335938 -11.117188 3.40625 -10.9375 3.40625 -10.71875 L 3.40625 -0.25 C 3.40625 -0.03125 3.335938 0.144531 3.199219 0.285156 C 3.0625 0.421875 2.882812 0.488281 2.664062 0.488281 Z M 1.035156 0.488281 "/></g></g><g style="fill:#b21a22;fill-opacity:1;"><g transform="translate(69.178011, 43.232871)"><path style="stroke:none" d="M 8.179688 0.488281 L 6.660156 0.488281 C 6.46875 0.488281 6.308594 0.429688 6.171875 0.3125 C 6.050781 0.207031 5.96875 0.0625 5.929688 -0.117188 L 6.410156 -0.21875 L 5.933594 -0.0976562 L 5.433594 -2.074219 L 5.910156 -2.195312 L 5.910156 -1.703125 L 2.960938 -1.703125 L 2.960938 -2.195312 L 3.4375 -2.078125 L 2.953125 -0.101562 L 2.476562 -0.21875 L 2.953125 -0.117188 C 2.917969 0.0625 2.835938 0.207031 2.710938 0.3125 C 2.578125 0.429688 2.414062 0.488281 2.226562 0.488281 L 0.691406 0.488281 C 0.433594 0.488281 0.242188 0.402344 0.109375 0.230469 C -0.0273438 0.0546875 -0.0585938 -0.15625 0.015625 -0.40625 L 0.484375 -0.265625 L 0.0117188 -0.382812 L 2.613281 -10.867188 L 3.085938 -10.75 L 2.609375 -10.855469 C 2.648438 -11.039062 2.734375 -11.183594 2.867188 -11.292969 C 3 -11.40625 3.164062 -11.460938 3.355469 -11.460938 L 5.53125 -11.460938 C 5.722656 -11.460938 5.886719 -11.40625 6.019531 -11.292969 C 6.152344 -11.183594 6.238281 -11.039062 6.277344 -10.855469 L 5.796875 -10.75 L 6.273438 -10.867188 L 8.875 -0.382812 L 8.398438 -0.265625 L 8.871094 -0.40625 C 8.945312 -0.148438 8.910156 0.0664062 8.761719 0.246094 C 8.628906 0.40625 8.433594 0.488281 8.179688 0.488281 Z M 8.179688 -0.488281 C 8.183594 -0.488281 8.183594 -0.488281 8.1875 -0.488281 C 8.1875 -0.488281 8.1875 -0.488281 8.183594 -0.488281 C 8.175781 -0.488281 8.164062 -0.484375 8.152344 -0.480469 C 8.097656 -0.464844 8.046875 -0.429688 8.007812 -0.378906 C 7.960938 -0.320312 7.933594 -0.257812 7.925781 -0.1875 C 7.925781 -0.160156 7.925781 -0.140625 7.929688 -0.128906 L 7.925781 -0.136719 L 5.320312 -10.640625 L 5.320312 -10.648438 C 5.328125 -10.609375 5.355469 -10.574219 5.398438 -10.539062 C 5.441406 -10.5 5.488281 -10.480469 5.53125 -10.480469 L 3.355469 -10.480469 C 3.398438 -10.480469 3.441406 -10.5 3.488281 -10.539062 C 3.53125 -10.574219 3.558594 -10.609375 3.566406 -10.648438 L 3.566406 -10.640625 L 0.957031 -0.136719 L 0.957031 -0.128906 C 0.957031 -0.136719 0.960938 -0.15625 0.957031 -0.179688 C 0.953125 -0.246094 0.929688 -0.308594 0.886719 -0.363281 C 0.84375 -0.417969 0.792969 -0.457031 0.730469 -0.480469 C 0.710938 -0.484375 0.699219 -0.488281 0.691406 -0.488281 L 2.226562 -0.488281 C 2.171875 -0.488281 2.117188 -0.46875 2.066406 -0.421875 C 2.027344 -0.386719 2.003906 -0.355469 1.996094 -0.320312 L 2 -0.328125 L 2.578125 -2.683594 L 6.289062 -2.683594 L 6.886719 -0.332031 L 6.890625 -0.320312 C 6.882812 -0.355469 6.859375 -0.386719 6.820312 -0.421875 C 6.769531 -0.46875 6.714844 -0.488281 6.660156 -0.488281 Z M 4.945312 -3.902344 L 3.957031 -8.164062 L 4.433594 -8.273438 L 4.914062 -8.164062 L 3.925781 -3.902344 L 3.449219 -4.011719 L 3.449219 -4.5 L 5.421875 -4.5 L 5.421875 -4.011719 Z M 6.039062 -3.523438 L 2.832031 -3.523438 L 3.957031 -8.386719 L 4.914062 -8.386719 L 5.898438 -4.121094 Z M 6.039062 -3.523438 "/></g></g><g style="fill:#b21a22;fill-opacity:1;"><g transform="translate(78.061191, 43.232871)"><path style="stroke:none" d="M 2.425781 -2.070312 L 2.425781 -10.71875 C 2.425781 -10.707031 2.429688 -10.691406 2.433594 -10.675781 C 2.449219 -10.632812 2.472656 -10.59375 2.507812 -10.5625 C 2.539062 -10.527344 2.578125 -10.503906 2.617188 -10.488281 C 2.636719 -10.484375 2.652344 -10.480469 2.664062 -10.480469 L 1.035156 -10.480469 C 1.046875 -10.480469 1.0625 -10.484375 1.078125 -10.488281 C 1.121094 -10.503906 1.160156 -10.527344 1.191406 -10.5625 C 1.226562 -10.59375 1.25 -10.632812 1.265625 -10.675781 C 1.269531 -10.691406 1.273438 -10.707031 1.273438 -10.71875 L 1.273438 -0.25 C 1.273438 -0.261719 1.269531 -0.277344 1.265625 -0.296875 C 1.25 -0.335938 1.226562 -0.375 1.191406 -0.410156 C 1.160156 -0.441406 1.121094 -0.464844 1.078125 -0.480469 C 1.0625 -0.488281 1.046875 -0.488281 1.035156 -0.488281 L 6.019531 -0.488281 C 6.007812 -0.488281 5.992188 -0.488281 5.972656 -0.480469 C 5.929688 -0.464844 5.894531 -0.441406 5.859375 -0.410156 C 5.824219 -0.375 5.800781 -0.335938 5.789062 -0.296875 C 5.78125 -0.277344 5.777344 -0.261719 5.777344 -0.25 L 5.777344 -1.816406 C 5.777344 -1.808594 5.78125 -1.792969 5.789062 -1.773438 C 5.800781 -1.730469 5.824219 -1.691406 5.859375 -1.660156 C 5.894531 -1.625 5.929688 -1.601562 5.972656 -1.589844 C 5.992188 -1.582031 6.007812 -1.578125 6.019531 -1.578125 L 2.425781 -1.578125 Z M 3.40625 -2.070312 L 2.914062 -2.070312 L 2.914062 -2.558594 L 6.019531 -2.558594 C 6.238281 -2.558594 6.414062 -2.488281 6.550781 -2.351562 C 6.691406 -2.214844 6.757812 -2.035156 6.757812 -1.816406 L 6.757812 -0.25 C 6.757812 -0.03125 6.691406 0.144531 6.550781 0.285156 C 6.414062 0.421875 6.238281 0.488281 6.019531 0.488281 L 1.035156 0.488281 C 0.816406 0.488281 0.636719 0.421875 0.5 0.285156 C 0.363281 0.144531 0.292969 -0.03125 0.292969 -0.25 L 0.292969 -10.71875 C 0.292969 -10.9375 0.363281 -11.117188 0.5 -11.253906 C 0.636719 -11.390625 0.816406 -11.460938 1.035156 -11.460938 L 2.664062 -11.460938 C 2.882812 -11.460938 3.0625 -11.390625 3.199219 -11.253906 C 3.335938 -11.117188 3.40625 -10.9375 3.40625 -10.71875 Z M 3.40625 -2.070312 "/></g></g><g style="fill:#b21a22;fill-opacity:1;"><g transform="translate(29.757268, 65.08221)"><path style="stroke:none" d="M -0.488281 2.101562 L -0.488281 0.660156 C -0.488281 0.417969 -0.414062 0.226562 -0.269531 0.078125 C -0.121094 -0.0703125 0.0742188 -0.144531 0.3125 -0.144531 L 9.761719 -0.144531 C 10.003906 -0.144531 10.195312 -0.0703125 10.34375 0.078125 C 10.492188 0.226562 10.566406 0.417969 10.566406 0.660156 L 10.566406 2.101562 C 10.566406 2.339844 10.492188 2.535156 10.34375 2.679688 C 10.195312 2.828125 10.003906 2.902344 9.761719 2.902344 L 0.3125 2.902344 C 0.0742188 2.902344 -0.121094 2.828125 -0.269531 2.679688 C -0.414062 2.535156 -0.488281 2.339844 -0.488281 2.101562 Z M 0.488281 2.101562 C 0.488281 2.101562 0.488281 2.105469 0.488281 2.105469 C 0.488281 2.097656 0.488281 2.089844 0.484375 2.082031 C 0.472656 2.046875 0.453125 2.015625 0.425781 1.988281 C 0.394531 1.960938 0.363281 1.941406 0.332031 1.929688 C 0.324219 1.925781 0.316406 1.925781 0.308594 1.921875 C 0.308594 1.921875 0.3125 1.921875 0.3125 1.921875 L 9.761719 1.921875 C 9.765625 1.921875 9.769531 1.921875 9.769531 1.921875 C 9.761719 1.925781 9.753906 1.925781 9.746094 1.929688 C 9.710938 1.941406 9.679688 1.960938 9.652344 1.988281 C 9.625 2.015625 9.605469 2.046875 9.59375 2.082031 C 9.589844 2.089844 9.589844 2.097656 9.585938 2.105469 C 9.585938 2.105469 9.585938 2.101562 9.585938 2.101562 L 9.585938 0.660156 C 9.585938 0.65625 9.585938 0.652344 9.585938 0.652344 C 9.589844 0.660156 9.589844 0.667969 9.59375 0.675781 C 9.605469 0.710938 9.625 0.742188 9.652344 0.769531 C 9.679688 0.796875 9.710938 0.816406 9.746094 0.828125 C 9.753906 0.832031 9.761719 0.832031 9.769531 0.835938 C 9.769531 0.835938 9.765625 0.835938 9.761719 0.835938 L 0.3125 0.835938 C 0.3125 0.835938 0.308594 0.835938 0.308594 0.835938 C 0.316406 0.832031 0.324219 0.832031 0.332031 0.828125 C 0.363281 0.816406 0.394531 0.796875 0.425781 0.769531 C 0.453125 0.742188 0.472656 0.710938 0.484375 0.675781 C 0.488281 0.667969 0.488281 0.660156 0.488281 0.652344 C 0.488281 0.652344 0.488281 0.65625 0.488281 0.660156 Z M 0.488281 2.101562 "/></g></g><g style="fill:#b21a22;fill-opacity:1;"><g transform="translate(39.831139, 65.08221)"><path style="stroke:none" d="M 7.542969 -10.71875 L 7.542969 -9.152344 C 7.542969 -8.933594 7.472656 -8.753906 7.335938 -8.617188 C 7.199219 -8.480469 7.019531 -8.410156 6.800781 -8.410156 L 2.914062 -8.410156 L 2.914062 -8.902344 L 3.40625 -8.902344 L 3.40625 -6.222656 L 2.914062 -6.222656 L 2.914062 -6.710938 L 5.859375 -6.710938 C 6.082031 -6.710938 6.257812 -6.644531 6.394531 -6.503906 C 6.53125 -6.367188 6.601562 -6.191406 6.601562 -5.972656 L 6.601562 -4.402344 C 6.601562 -4.183594 6.53125 -4.007812 6.394531 -3.871094 C 6.257812 -3.730469 6.082031 -3.664062 5.859375 -3.664062 L 2.914062 -3.664062 L 2.914062 -4.152344 L 3.40625 -4.152344 L 3.40625 -0.25 C 3.40625 -0.03125 3.335938 0.144531 3.199219 0.285156 C 3.0625 0.421875 2.882812 0.488281 2.664062 0.488281 L 1.035156 0.488281 C 0.816406 0.488281 0.636719 0.421875 0.5 0.285156 C 0.363281 0.144531 0.292969 -0.03125 0.292969 -0.25 L 0.292969 -10.71875 C 0.292969 -10.9375 0.363281 -11.117188 0.5 -11.253906 C 0.636719 -11.390625 0.816406 -11.460938 1.035156 -11.460938 L 6.800781 -11.460938 C 7.019531 -11.460938 7.199219 -11.390625 7.335938 -11.253906 C 7.472656 -11.117188 7.542969 -10.9375 7.542969 -10.71875 Z M 6.5625 -10.71875 C 6.5625 -10.707031 6.566406 -10.691406 6.570312 -10.675781 C 6.585938 -10.632812 6.609375 -10.59375 6.644531 -10.5625 C 6.675781 -10.527344 6.714844 -10.503906 6.757812 -10.488281 C 6.773438 -10.484375 6.789062 -10.480469 6.800781 -10.480469 L 1.035156 -10.480469 C 1.046875 -10.480469 1.0625 -10.484375 1.078125 -10.488281 C 1.121094 -10.503906 1.160156 -10.527344 1.191406 -10.5625 C 1.226562 -10.59375 1.25 -10.632812 1.265625 -10.675781 C 1.269531 -10.691406 1.273438 -10.707031 1.273438 -10.71875 L 1.273438 -0.25 C 1.273438 -0.261719 1.269531 -0.277344 1.265625 -0.296875 C 1.25 -0.335938 1.226562 -0.375 1.191406 -0.410156 C 1.160156 -0.441406 1.121094 -0.464844 1.078125 -0.480469 C 1.0625 -0.488281 1.046875 -0.488281 1.035156 -0.488281 L 2.664062 -0.488281 C 2.652344 -0.488281 2.636719 -0.488281 2.617188 -0.480469 C 2.578125 -0.464844 2.539062 -0.441406 2.507812 -0.410156 C 2.472656 -0.375 2.449219 -0.335938 2.433594 -0.296875 C 2.429688 -0.277344 2.425781 -0.261719 2.425781 -0.25 L 2.425781 -4.644531 L 5.859375 -4.644531 C 5.851562 -4.644531 5.835938 -4.640625 5.816406 -4.632812 C 5.773438 -4.621094 5.738281 -4.59375 5.703125 -4.5625 C 5.667969 -4.527344 5.644531 -4.492188 5.632812 -4.449219 C 5.625 -4.429688 5.621094 -4.414062 5.621094 -4.402344 L 5.621094 -5.972656 C 5.621094 -5.960938 5.625 -5.945312 5.632812 -5.925781 C 5.644531 -5.882812 5.667969 -5.847656 5.703125 -5.8125 C 5.738281 -5.777344 5.773438 -5.753906 5.816406 -5.742188 C 5.835938 -5.734375 5.851562 -5.730469 5.859375 -5.730469 L 2.425781 -5.730469 L 2.425781 -9.390625 L 6.800781 -9.390625 C 6.789062 -9.390625 6.773438 -9.386719 6.757812 -9.382812 C 6.714844 -9.367188 6.675781 -9.34375 6.644531 -9.3125 C 6.609375 -9.277344 6.585938 -9.238281 6.570312 -9.199219 C 6.566406 -9.179688 6.5625 -9.164062 6.5625 -9.152344 Z M 6.5625 -10.71875 "/></g></g><g style="fill:#b21a22;fill-opacity:1;"><g transform="translate(47.66463, 65.08221)"><path style="stroke:none" d="M 1.035156 -0.488281 L 2.664062 -0.488281 C 2.652344 -0.488281 2.636719 -0.488281 2.617188 -0.480469 C 2.578125 -0.464844 2.539062 -0.441406 2.507812 -0.410156 C 2.472656 -0.375 2.449219 -0.335938 2.433594 -0.296875 C 2.429688 -0.277344 2.425781 -0.261719 2.425781 -0.25 L 2.425781 -10.71875 C 2.425781 -10.707031 2.429688 -10.691406 2.433594 -10.675781 C 2.449219 -10.632812 2.472656 -10.59375 2.507812 -10.5625 C 2.539062 -10.527344 2.578125 -10.503906 2.617188 -10.488281 C 2.636719 -10.484375 2.652344 -10.480469 2.664062 -10.480469 L 1.035156 -10.480469 C 1.046875 -10.480469 1.0625 -10.484375 1.078125 -10.488281 C 1.121094 -10.503906 1.160156 -10.527344 1.191406 -10.5625 C 1.226562 -10.59375 1.25 -10.632812 1.265625 -10.675781 C 1.269531 -10.691406 1.273438 -10.707031 1.273438 -10.71875 L 1.273438 -0.25 C 1.273438 -0.261719 1.269531 -0.277344 1.265625 -0.296875 C 1.25 -0.335938 1.226562 -0.375 1.191406 -0.410156 C 1.160156 -0.441406 1.121094 -0.464844 1.078125 -0.480469 C 1.0625 -0.488281 1.046875 -0.488281 1.035156 -0.488281 Z M 1.035156 0.488281 C 0.816406 0.488281 0.636719 0.421875 0.5 0.285156 C 0.363281 0.144531 0.292969 -0.03125 0.292969 -0.25 L 0.292969 -10.71875 C 0.292969 -10.9375 0.363281 -11.117188 0.5 -11.253906 C 0.636719 -11.390625 0.816406 -11.460938 1.035156 -11.460938 L 2.664062 -11.460938 C 2.882812 -11.460938 3.0625 -11.390625 3.199219 -11.253906 C 3.335938 -11.117188 3.40625 -10.9375 3.40625 -10.71875 L 3.40625 -0.25 C 3.40625 -0.03125 3.335938 0.144531 3.199219 0.285156 C 3.0625 0.421875 2.882812 0.488281 2.664062 0.488281 Z M 1.035156 0.488281 "/></g></g><g style="fill:#b21a22;fill-opacity:1;"><g transform="translate(51.362035, 65.08221)"><path style="stroke:none" d="M 2.425781 -2.070312 L 2.425781 -10.71875 C 2.425781 -10.707031 2.429688 -10.691406 2.433594 -10.675781 C 2.449219 -10.632812 2.472656 -10.59375 2.507812 -10.5625 C 2.539062 -10.527344 2.578125 -10.503906 2.617188 -10.488281 C 2.636719 -10.484375 2.652344 -10.480469 2.664062 -10.480469 L 1.035156 -10.480469 C 1.046875 -10.480469 1.0625 -10.484375 1.078125 -10.488281 C 1.121094 -10.503906 1.160156 -10.527344 1.191406 -10.5625 C 1.226562 -10.59375 1.25 -10.632812 1.265625 -10.675781 C 1.269531 -10.691406 1.273438 -10.707031 1.273438 -10.71875 L 1.273438 -0.25 C 1.273438 -0.261719 1.269531 -0.277344 1.265625 -0.296875 C 1.25 -0.335938 1.226562 -0.375 1.191406 -0.410156 C 1.160156 -0.441406 1.121094 -0.464844 1.078125 -0.480469 C 1.0625 -0.488281 1.046875 -0.488281 1.035156 -0.488281 L 6.019531 -0.488281 C 6.007812 -0.488281 5.992188 -0.488281 5.972656 -0.480469 C 5.929688 -0.464844 5.894531 -0.441406 5.859375 -0.410156 C 5.824219 -0.375 5.800781 -0.335938 5.789062 -0.296875 C 5.78125 -0.277344 5.777344 -0.261719 5.777344 -0.25 L 5.777344 -1.816406 C 5.777344 -1.808594 5.78125 -1.792969 5.789062 -1.773438 C 5.800781 -1.730469 5.824219 -1.691406 5.859375 -1.660156 C 5.894531 -1.625 5.929688 -1.601562 5.972656 -1.589844 C 5.992188 -1.582031 6.007812 -1.578125 6.019531 -1.578125 L 2.425781 -1.578125 Z M 3.40625 -2.070312 L 2.914062 -2.070312 L 2.914062 -2.558594 L 6.019531 -2.558594 C 6.238281 -2.558594 6.414062 -2.488281 6.550781 -2.351562 C 6.691406 -2.214844 6.757812 -2.035156 6.757812 -1.816406 L 6.757812 -0.25 C 6.757812 -0.03125 6.691406 0.144531 6.550781 0.285156 C 6.414062 0.421875 6.238281 0.488281 6.019531 0.488281 L 1.035156 0.488281 C 0.816406 0.488281 0.636719 0.421875 0.5 0.285156 C 0.363281 0.144531 0.292969 -0.03125 0.292969 -0.25 L 0.292969 -10.71875 C 0.292969 -10.9375 0.363281 -11.117188 0.5 -11.253906 C 0.636719 -11.390625 0.816406 -11.460938 1.035156 -11.460938 L 2.664062 -11.460938 C 2.882812 -11.460938 3.0625 -11.390625 3.199219 -11.253906 C 3.335938 -11.117188 3.40625 -10.9375 3.40625 -10.71875 Z M 3.40625 -2.070312 "/></g></g><g style="fill:#b21a22;fill-opacity:1;"><g transform="translate(58.412176, 65.08221)"><path style="stroke:none" d="M 7.527344 -10.71875 L 7.527344 -9.152344 C 7.527344 -8.933594 7.460938 -8.753906 7.332031 -8.617188 C 7.191406 -8.46875 7.011719 -8.394531 6.785156 -8.394531 L 2.914062 -8.394531 L 2.914062 -8.886719 L 3.40625 -8.886719 L 3.40625 -6.472656 L 2.914062 -6.472656 L 2.914062 -6.960938 L 5.859375 -6.960938 C 6.085938 -6.960938 6.265625 -6.890625 6.40625 -6.742188 C 6.535156 -6.601562 6.601562 -6.425781 6.601562 -6.207031 L 6.601562 -4.65625 C 6.601562 -4.4375 6.535156 -4.257812 6.40625 -4.117188 C 6.265625 -3.972656 6.085938 -3.898438 5.859375 -3.898438 L 2.914062 -3.898438 L 2.914062 -4.386719 L 3.40625 -4.386719 L 3.40625 -2.070312 L 2.914062 -2.070312 L 2.914062 -2.558594 L 6.785156 -2.558594 C 7.003906 -2.558594 7.183594 -2.488281 7.320312 -2.351562 C 7.457031 -2.214844 7.527344 -2.035156 7.527344 -1.816406 L 7.527344 -0.25 C 7.527344 -0.03125 7.457031 0.144531 7.320312 0.285156 C 7.183594 0.421875 7.003906 0.488281 6.785156 0.488281 L 1.019531 0.488281 C 0.800781 0.488281 0.621094 0.417969 0.484375 0.273438 C 0.359375 0.136719 0.292969 -0.0390625 0.292969 -0.25 L 0.292969 -10.71875 C 0.292969 -10.933594 0.359375 -11.105469 0.484375 -11.242188 C 0.621094 -11.386719 0.800781 -11.460938 1.019531 -11.460938 L 6.785156 -11.460938 C 7.003906 -11.460938 7.183594 -11.390625 7.320312 -11.253906 C 7.457031 -11.117188 7.527344 -10.9375 7.527344 -10.71875 Z M 6.546875 -10.71875 C 6.546875 -10.707031 6.550781 -10.691406 6.554688 -10.675781 C 6.570312 -10.632812 6.59375 -10.59375 6.628906 -10.5625 C 6.660156 -10.527344 6.699219 -10.503906 6.742188 -10.488281 C 6.757812 -10.484375 6.773438 -10.480469 6.785156 -10.480469 L 1.019531 -10.480469 C 1.082031 -10.480469 1.140625 -10.511719 1.199219 -10.574219 C 1.230469 -10.605469 1.253906 -10.644531 1.265625 -10.683594 C 1.269531 -10.699219 1.273438 -10.710938 1.273438 -10.71875 L 1.273438 -0.25 C 1.273438 -0.257812 1.269531 -0.269531 1.265625 -0.289062 C 1.253906 -0.328125 1.230469 -0.363281 1.199219 -0.398438 C 1.140625 -0.460938 1.082031 -0.488281 1.019531 -0.488281 L 6.785156 -0.488281 C 6.773438 -0.488281 6.757812 -0.488281 6.742188 -0.480469 C 6.699219 -0.464844 6.660156 -0.441406 6.628906 -0.410156 C 6.59375 -0.375 6.570312 -0.335938 6.554688 -0.296875 C 6.550781 -0.277344 6.546875 -0.261719 6.546875 -0.25 L 6.546875 -1.816406 C 6.546875 -1.808594 6.550781 -1.792969 6.554688 -1.773438 C 6.570312 -1.730469 6.59375 -1.691406 6.628906 -1.660156 C 6.660156 -1.625 6.699219 -1.601562 6.742188 -1.589844 C 6.757812 -1.582031 6.773438 -1.578125 6.785156 -1.578125 L 2.425781 -1.578125 L 2.425781 -4.878906 L 5.859375 -4.878906 C 5.847656 -4.878906 5.828125 -4.875 5.808594 -4.867188 C 5.765625 -4.851562 5.726562 -4.824219 5.691406 -4.789062 C 5.664062 -4.757812 5.640625 -4.722656 5.628906 -4.683594 C 5.625 -4.671875 5.621094 -4.660156 5.621094 -4.65625 L 5.621094 -6.207031 C 5.621094 -6.199219 5.625 -6.191406 5.628906 -6.175781 C 5.640625 -6.136719 5.664062 -6.101562 5.691406 -6.070312 C 5.726562 -6.035156 5.765625 -6.007812 5.808594 -5.996094 C 5.828125 -5.988281 5.847656 -5.984375 5.859375 -5.984375 L 2.425781 -5.984375 L 2.425781 -9.375 L 6.785156 -9.375 C 6.773438 -9.375 6.753906 -9.371094 6.730469 -9.363281 C 6.6875 -9.347656 6.652344 -9.324219 6.617188 -9.289062 C 6.585938 -9.257812 6.566406 -9.21875 6.554688 -9.183594 C 6.550781 -9.167969 6.546875 -9.15625 6.546875 -9.152344 Z M 6.546875 -10.71875 "/></g></g><g style="fill:#060705;fill-opacity:1;"><g transform="translate(10.881177, 43.232871)"><path style="stroke:none" d="M 3.046875 -10.96875 L 4.796875 -10.96875 C 5.535156 -10.96875 6.09375 -10.773438 6.46875 -10.390625 C 6.851562 -10.015625 7.046875 -9.457031 7.046875 -8.71875 L 7.046875 -7.671875 C 7.046875 -7.503906 6.960938 -7.421875 6.796875 -7.421875 L 5.21875 -7.421875 C 5.050781 -7.421875 4.96875 -7.503906 4.96875 -7.671875 L 4.96875 -8.34375 C 4.96875 -8.757812 4.757812 -8.96875 4.34375 -8.96875 L 3.484375 -8.96875 C 3.066406 -8.96875 2.859375 -8.757812 2.859375 -8.34375 L 2.859375 -7 L 6.640625 -5.78125 C 6.910156 -5.6875 7.046875 -5.492188 7.046875 -5.203125 L 7.046875 -2.25 C 7.046875 -1.519531 6.851562 -0.960938 6.46875 -0.578125 C 6.09375 -0.191406 5.535156 0 4.796875 0 L 3.046875 0 C 2.304688 0 1.742188 -0.191406 1.359375 -0.578125 C 0.972656 -0.960938 0.78125 -1.519531 0.78125 -2.25 L 0.78125 -3.28125 C 0.78125 -3.445312 0.863281 -3.53125 1.03125 -3.53125 L 2.625 -3.53125 C 2.789062 -3.53125 2.875 -3.445312 2.875 -3.28125 L 2.875 -2.625 C 2.875 -2.195312 3.082031 -1.984375 3.5 -1.984375 L 4.34375 -1.984375 C 4.757812 -1.984375 4.96875 -2.195312 4.96875 -2.625 L 4.96875 -4.203125 L 1.203125 -5.421875 C 0.921875 -5.515625 0.78125 -5.707031 0.78125 -6 L 0.78125 -8.71875 C 0.78125 -9.457031 0.972656 -10.015625 1.359375 -10.390625 C 1.742188 -10.773438 2.304688 -10.96875 3.046875 -10.96875 Z M 3.046875 -10.96875 "/></g></g><g style="fill:#060705;fill-opacity:1;"><g transform="translate(18.714668, 43.232871)"><path style="stroke:none" d="M 7.03125 -10.71875 L 7.03125 -9.15625 C 7.03125 -8.976562 6.945312 -8.890625 6.78125 -8.890625 L 2.921875 -8.890625 L 2.921875 -6.46875 L 5.859375 -6.46875 C 6.023438 -6.46875 6.109375 -6.378906 6.109375 -6.203125 L 6.109375 -4.65625 C 6.109375 -4.476562 6.023438 -4.390625 5.859375 -4.390625 L 2.921875 -4.390625 L 2.921875 -2.0625 L 6.78125 -2.0625 C 6.945312 -2.0625 7.03125 -1.976562 7.03125 -1.8125 L 7.03125 -0.25 C 7.03125 -0.0820312 6.945312 0 6.78125 0 L 1.015625 0 C 0.859375 0 0.78125 -0.0820312 0.78125 -0.25 L 0.78125 -10.71875 C 0.78125 -10.882812 0.859375 -10.96875 1.015625 -10.96875 L 6.78125 -10.96875 C 6.945312 -10.96875 7.03125 -10.882812 7.03125 -10.71875 Z M 7.03125 -10.71875 "/></g></g><g style="fill:#060705;fill-opacity:1;"><g transform="translate(26.532489, 43.232871)"><path style="stroke:none" d="M 7.046875 -8.71875 L 7.046875 -2.25 C 7.046875 -1.257812 6.707031 -0.59375 6.03125 -0.25 L 6.65625 1.09375 C 6.695312 1.175781 6.691406 1.242188 6.640625 1.296875 C 6.585938 1.347656 6.519531 1.375 6.4375 1.375 L 4.8125 1.375 C 4.738281 1.375 4.679688 1.351562 4.640625 1.3125 C 4.609375 1.269531 4.578125 1.21875 4.546875 1.15625 L 4.015625 0 L 3.046875 0 C 2.304688 0 1.742188 -0.191406 1.359375 -0.578125 C 0.972656 -0.960938 0.78125 -1.519531 0.78125 -2.25 L 0.78125 -8.71875 C 0.78125 -9.457031 0.972656 -10.015625 1.359375 -10.390625 C 1.742188 -10.773438 2.304688 -10.96875 3.046875 -10.96875 L 4.796875 -10.96875 C 5.535156 -10.96875 6.09375 -10.773438 6.46875 -10.390625 C 6.851562 -10.015625 7.046875 -9.457031 7.046875 -8.71875 Z M 2.828125 -8.328125 L 2.828125 -2.65625 C 2.828125 -2.226562 3.035156 -2.015625 3.453125 -2.015625 L 4.453125 -2.015625 C 4.867188 -2.015625 5.078125 -2.226562 5.078125 -2.65625 L 5.078125 -8.328125 C 5.078125 -8.742188 4.867188 -8.953125 4.453125 -8.953125 L 3.453125 -8.953125 C 3.035156 -8.953125 2.828125 -8.742188 2.828125 -8.328125 Z M 2.828125 -8.328125 "/></g></g><g style="fill:#060705;fill-opacity:1;"><g transform="translate(34.36598, 43.232871)"><path style="stroke:none" d="M 5.296875 -10.96875 L 6.734375 -10.96875 C 6.816406 -10.96875 6.890625 -10.9375 6.953125 -10.875 C 7.015625 -10.8125 7.046875 -10.738281 7.046875 -10.65625 L 7.046875 -2.25 C 7.046875 -1.519531 6.851562 -0.960938 6.46875 -0.578125 C 6.09375 -0.191406 5.535156 0 4.796875 0 L 3.046875 0 C 2.304688 0 1.742188 -0.191406 1.359375 -0.578125 C 0.972656 -0.960938 0.78125 -1.519531 0.78125 -2.25 L 0.78125 -10.65625 C 0.78125 -10.738281 0.8125 -10.8125 0.875 -10.875 C 0.9375 -10.9375 1.007812 -10.96875 1.09375 -10.96875 L 2.59375 -10.96875 C 2.6875 -10.96875 2.765625 -10.9375 2.828125 -10.875 C 2.890625 -10.8125 2.921875 -10.738281 2.921875 -10.65625 L 2.921875 -2.703125 C 2.921875 -2.273438 3.128906 -2.0625 3.546875 -2.0625 L 4.359375 -2.0625 C 4.773438 -2.0625 4.984375 -2.273438 4.984375 -2.703125 L 4.984375 -10.65625 C 4.984375 -10.738281 5.015625 -10.8125 5.078125 -10.875 C 5.140625 -10.9375 5.210938 -10.96875 5.296875 -10.96875 Z M 5.296875 -10.96875 "/></g></g><g style="fill:#060705;fill-opacity:1;"><g transform="translate(42.19947, 43.232871)"><path style="stroke:none" d="M 7.03125 -10.71875 L 7.03125 -9.15625 C 7.03125 -8.976562 6.945312 -8.890625 6.78125 -8.890625 L 2.921875 -8.890625 L 2.921875 -6.46875 L 5.859375 -6.46875 C 6.023438 -6.46875 6.109375 -6.378906 6.109375 -6.203125 L 6.109375 -4.65625 C 6.109375 -4.476562 6.023438 -4.390625 5.859375 -4.390625 L 2.921875 -4.390625 L 2.921875 -2.0625 L 6.78125 -2.0625 C 6.945312 -2.0625 7.03125 -1.976562 7.03125 -1.8125 L 7.03125 -0.25 C 7.03125 -0.0820312 6.945312 0 6.78125 0 L 1.015625 0 C 0.859375 0 0.78125 -0.0820312 0.78125 -0.25 L 0.78125 -10.71875 C 0.78125 -10.882812 0.859375 -10.96875 1.015625 -10.96875 L 6.78125 -10.96875 C 6.945312 -10.96875 7.03125 -10.882812 7.03125 -10.71875 Z M 7.03125 -10.71875 "/></g></g><g style="fill:#060705;fill-opacity:1;"><g transform="translate(50.017291, 43.232871)"><path style="stroke:none" d="M 5.75 -10.96875 L 7.21875 -10.96875 C 7.382812 -10.96875 7.46875 -10.882812 7.46875 -10.71875 L 7.46875 -0.25 C 7.46875 -0.0820312 7.382812 0 7.21875 0 L 5.984375 0 C 5.859375 0 5.765625 -0.0664062 5.703125 -0.203125 L 2.765625 -6.1875 L 2.765625 -0.25 C 2.765625 -0.0820312 2.675781 0 2.5 0 L 1.03125 0 C 0.863281 0 0.78125 -0.0820312 0.78125 -0.25 L 0.78125 -10.71875 C 0.78125 -10.882812 0.863281 -10.96875 1.03125 -10.96875 L 2.265625 -10.96875 C 2.390625 -10.96875 2.484375 -10.898438 2.546875 -10.765625 L 5.5 -4.78125 L 5.5 -10.71875 C 5.5 -10.882812 5.582031 -10.96875 5.75 -10.96875 Z M 5.75 -10.96875 "/></g></g><g style="fill:#060705;fill-opacity:1;"><g transform="translate(58.273793, 43.232871)"><path style="stroke:none" d="M 6.484375 -10.96875 L 0.71875 -10.96875 C 0.550781 -10.96875 0.46875 -10.882812 0.46875 -10.71875 L 0.46875 -9.15625 C 0.46875 -8.988281 0.550781 -8.90625 0.71875 -8.90625 L 2.53125 -8.90625 L 2.53125 -0.25 C 2.53125 -0.0820312 2.617188 0 2.796875 0 L 4.421875 0 C 4.585938 0 4.671875 -0.0820312 4.671875 -0.25 L 4.671875 -8.90625 L 6.484375 -8.90625 C 6.648438 -8.90625 6.734375 -8.988281 6.734375 -9.15625 L 6.734375 -10.71875 C 6.734375 -10.882812 6.648438 -10.96875 6.484375 -10.96875 Z M 6.484375 -10.96875 "/></g></g><g style="fill:#060705;fill-opacity:1;"><g transform="translate(65.480605, 43.232871)"><path style="stroke:none" d="M 1.03125 0 L 2.671875 0 C 2.835938 0 2.921875 -0.0820312 2.921875 -0.25 L 2.921875 -10.71875 C 2.921875 -10.882812 2.835938 -10.96875 2.671875 -10.96875 L 1.03125 -10.96875 C 0.863281 -10.96875 0.78125 -10.882812 0.78125 -10.71875 L 0.78125 -0.25 C 0.78125 -0.0820312 0.863281 0 1.03125 0 Z M 1.03125 0 "/></g></g><g style="fill:#060705;fill-opacity:1;"><g transform="translate(69.178011, 43.232871)"><path style="stroke:none" d="M 8.1875 0 L 6.65625 0 C 6.519531 0 6.4375 -0.0703125 6.40625 -0.21875 L 5.90625 -2.1875 L 2.96875 -2.1875 L 2.46875 -0.21875 C 2.4375 -0.0703125 2.351562 0 2.21875 0 L 0.6875 0 C 0.5 0 0.429688 -0.0859375 0.484375 -0.265625 L 3.09375 -10.75 C 3.125 -10.894531 3.210938 -10.96875 3.359375 -10.96875 L 5.53125 -10.96875 C 5.675781 -10.96875 5.765625 -10.894531 5.796875 -10.75 L 8.40625 -0.265625 C 8.457031 -0.0859375 8.382812 0 8.1875 0 Z M 5.421875 -4.015625 L 4.4375 -8.28125 L 3.453125 -4.015625 Z M 5.421875 -4.015625 "/></g></g><g style="fill:#060705;fill-opacity:1;"><g transform="translate(78.061191, 43.232871)"><path style="stroke:none" d="M 2.921875 -2.0625 L 2.921875 -10.71875 C 2.921875 -10.882812 2.835938 -10.96875 2.671875 -10.96875 L 1.03125 -10.96875 C 0.863281 -10.96875 0.78125 -10.882812 0.78125 -10.71875 L 0.78125 -0.25 C 0.78125 -0.0820312 0.863281 0 1.03125 0 L 6.015625 0 C 6.179688 0 6.265625 -0.0820312 6.265625 -0.25 L 6.265625 -1.8125 C 6.265625 -1.976562 6.179688 -2.0625 6.015625 -2.0625 Z M 2.921875 -2.0625 "/></g></g><g style="fill:#060705;fill-opacity:1;"><g transform="translate(29.757268, 65.08221)"><path style="stroke:none" d="M 0 2.09375 L 0 0.65625 C 0 0.445312 0.101562 0.34375 0.3125 0.34375 L 9.765625 0.34375 C 9.972656 0.34375 10.078125 0.445312 10.078125 0.65625 L 10.078125 2.09375 C 10.078125 2.300781 9.972656 2.40625 9.765625 2.40625 L 0.3125 2.40625 C 0.101562 2.40625 0 2.300781 0 2.09375 Z M 0 2.09375 "/></g></g><g style="fill:#060705;fill-opacity:1;"><g transform="translate(39.831139, 65.08221)"><path style="stroke:none" d="M 7.046875 -10.71875 L 7.046875 -9.15625 C 7.046875 -8.988281 6.960938 -8.90625 6.796875 -8.90625 L 2.921875 -8.90625 L 2.921875 -6.21875 L 5.859375 -6.21875 C 6.023438 -6.21875 6.109375 -6.132812 6.109375 -5.96875 L 6.109375 -4.40625 C 6.109375 -4.238281 6.023438 -4.15625 5.859375 -4.15625 L 2.921875 -4.15625 L 2.921875 -0.25 C 2.921875 -0.0820312 2.835938 0 2.671875 0 L 1.03125 0 C 0.863281 0 0.78125 -0.0820312 0.78125 -0.25 L 0.78125 -10.71875 C 0.78125 -10.882812 0.863281 -10.96875 1.03125 -10.96875 L 6.796875 -10.96875 C 6.960938 -10.96875 7.046875 -10.882812 7.046875 -10.71875 Z M 7.046875 -10.71875 "/></g></g><g style="fill:#060705;fill-opacity:1;"><g transform="translate(47.66463, 65.08221)"><path style="stroke:none" d="M 1.03125 0 L 2.671875 0 C 2.835938 0 2.921875 -0.0820312 2.921875 -0.25 L 2.921875 -10.71875 C 2.921875 -10.882812 2.835938 -10.96875 2.671875 -10.96875 L 1.03125 -10.96875 C 0.863281 -10.96875 0.78125 -10.882812 0.78125 -10.71875 L 0.78125 -0.25 C 0.78125 -0.0820312 0.863281 0 1.03125 0 Z M 1.03125 0 "/></g></g><g style="fill:#060705;fill-opacity:1;"><g transform="translate(51.362035, 65.08221)"><path style="stroke:none" d="M 2.921875 -2.0625 L 2.921875 -10.71875 C 2.921875 -10.882812 2.835938 -10.96875 2.671875 -10.96875 L 1.03125 -10.96875 C 0.863281 -10.96875 0.78125 -10.882812 0.78125 -10.71875 L 0.78125 -0.25 C 0.78125 -0.0820312 0.863281 0 1.03125 0 L 6.015625 0 C 6.179688 0 6.265625 -0.0820312 6.265625 -0.25 L 6.265625 -1.8125 C 6.265625 -1.976562 6.179688 -2.0625 6.015625 -2.0625 Z M 2.921875 -2.0625 "/></g></g><g style="fill:#060705;fill-opacity:1;"><g transform="translate(58.412176, 65.08221)"><path style="stroke:none" d="M 7.03125 -10.71875 L 7.03125 -9.15625 C 7.03125 -8.976562 6.945312 -8.890625 6.78125 -8.890625 L 2.921875 -8.890625 L 2.921875 -6.46875 L 5.859375 -6.46875 C 6.023438 -6.46875 6.109375 -6.378906 6.109375 -6.203125 L 6.109375 -4.65625 C 6.109375 -4.476562 6.023438 -4.390625 5.859375 -4.390625 L 2.921875 -4.390625 L 2.921875 -2.0625 L 6.78125 -2.0625 C 6.945312 -2.0625 7.03125 -1.976562 7.03125 -1.8125 L 7.03125 -0.25 C 7.03125 -0.0820312 6.945312 0 6.78125 0 L 1.015625 0 C 0.859375 0 0.78125 -0.0820312 0.78125 -0.25 L 0.78125 -10.71875 C 0.78125 -10.882812 0.859375 -10.96875 1.015625 -10.96875 L 6.78125 -10.96875 C 6.945312 -10.96875 7.03125 -10.882812 7.03125 -10.71875 Z M 7.03125 -10.71875 "/></g></g></g></svg>