<svg xmlns="http://www.w3.org/2000/svg" xmlns:xlink="http://www.w3.org/1999/xlink" width="192" zoomAndPan="magnify" viewBox="0 0 144 143.999998" height="192" preserveAspectRatio="xMidYMid meet" version="1.2"><defs><clipPath id="4c477f3bc7"><path d="M 9 0 L 135 0 L 135 144 L 9 144 Z M 9 0 "/></clipPath><clipPath id="a5c4cc9415"><path d="M -21.457031 54.867188 L 103.039062 -17.847656 L 165.503906 89.105469 L 41.007812 161.816406 Z M -21.457031 54.867188 "/></clipPath><clipPath id="732ff6278f"><path d="M 134.226562 35.65625 L 134.347656 107.300781 L 72.121094 143.644531 L 9.773438 108.34375 L 9.65625 36.695312 L 71.878906 0.351562 Z M 134.226562 35.65625 "/></clipPath><clipPath id="276df30ef3"><path d="M 21.210938 13.683594 L 122.773438 13.683594 L 122.773438 130.261719 L 21.210938 130.261719 Z M 21.210938 13.683594 "/></clipPath></defs><g id="d92d14c201"><g clip-rule="nonzero" clip-path="url(#4c477f3bc7)"><g clip-rule="nonzero" clip-path="url(#a5c4cc9415)"><g clip-rule="nonzero" clip-path="url(#732ff6278f)"><path style=" stroke:none;fill-rule:nonzero;fill:#65b30e;fill-opacity:1;" d="M -21.457031 54.867188 L 103.039062 -17.847656 L 165.503906 89.105469 L 41.007812 161.816406 Z M -21.457031 54.867188 "/></g></g></g><path style=" stroke:none;fill-rule:nonzero;fill:#87ff00;fill-opacity:1;" d="M 51.679688 52.109375 L 51.613281 52.046875 L 37.261719 66.398438 L 72.113281 101.183594 L 86.46875 86.898438 L 106.960938 66.398438 L 92.609375 52.046875 L 92.609375 51.980469 L 51.617188 51.980469 Z M 51.679688 52.109375 "/><g clip-rule="nonzero" clip-path="url(#276df30ef3)"><path style=" stroke:none;fill-rule:nonzero;fill:#87ff00;fill-opacity:1;" d="M 71.980469 13.765625 L 21.222656 42.863281 L 21.226562 101.058594 L 71.984375 130.15625 L 122.742188 101.058594 L 122.742188 42.863281 L 71.984375 13.769531 Z M 113.039062 95.496094 L 71.980469 119.160156 L 30.921875 95.496094 L 30.925781 48.292969 L 71.984375 24.628906 L 113.042969 48.292969 L 113.042969 95.492188 Z M 113.039062 95.496094 "/></g><g style="fill:#b21a22;fill-opacity:1;"><g transform="translate(35.440759, 62.740433)"><path style="stroke:none" d="M 14.648438 -16.925781 L 14.648438 -10.804688 C 14.648438 -8.6875 13.933594 -7.183594 12.496094 -6.285156 L 11.992188 -7.09375 L 12.917969 -7.316406 L 14.5 -0.773438 L 13.578125 -0.546875 L 14.492188 -0.800781 C 14.628906 -0.3125 14.5625 0.105469 14.296875 0.445312 C 14.035156 0.785156 13.652344 0.953125 13.152344 0.953125 L 10.167969 0.953125 C 9.796875 0.953125 9.480469 0.84375 9.21875 0.628906 C 8.964844 0.417969 8.796875 0.132812 8.71875 -0.226562 L 9.648438 -0.425781 L 8.726562 -0.199219 L 7.265625 -6.199219 L 8.1875 -6.421875 L 8.1875 -5.472656 L 5.480469 -5.472656 L 5.480469 -6.421875 L 6.429688 -6.421875 L 6.429688 -0.488281 C 6.429688 -0.0625 6.296875 0.285156 6.03125 0.550781 C 5.761719 0.816406 5.417969 0.953125 4.992188 0.953125 L 2.007812 0.953125 C 1.585938 0.953125 1.238281 0.816406 0.972656 0.550781 C 0.703125 0.285156 0.570312 -0.0625 0.570312 -0.488281 L 0.570312 -20.820312 C 0.570312 -21.246094 0.703125 -21.59375 0.972656 -21.859375 C 1.238281 -22.125 1.585938 -22.261719 2.007812 -22.261719 L 9.316406 -22.261719 C 11.019531 -22.261719 12.332031 -21.796875 13.261719 -20.871094 C 14.1875 -19.945312 14.648438 -18.628906 14.648438 -16.925781 Z M 12.746094 -16.925781 C 12.746094 -18.101562 12.46875 -18.96875 11.914062 -19.523438 C 11.359375 -20.078125 10.492188 -20.355469 9.316406 -20.355469 L 2.007812 -20.355469 C 2.03125 -20.355469 2.058594 -20.363281 2.097656 -20.375 C 2.179688 -20.402344 2.25 -20.449219 2.316406 -20.515625 C 2.382812 -20.578125 2.429688 -20.652344 2.453125 -20.734375 C 2.46875 -20.769531 2.472656 -20.800781 2.472656 -20.820312 L 2.472656 -0.488281 C 2.472656 -0.507812 2.46875 -0.539062 2.453125 -0.574219 C 2.429688 -0.65625 2.382812 -0.730469 2.316406 -0.792969 C 2.25 -0.859375 2.179688 -0.90625 2.097656 -0.933594 C 2.058594 -0.945312 2.03125 -0.953125 2.007812 -0.953125 L 4.992188 -0.953125 C 4.96875 -0.953125 4.941406 -0.945312 4.90625 -0.933594 C 4.824219 -0.90625 4.75 -0.859375 4.683594 -0.792969 C 4.621094 -0.730469 4.574219 -0.65625 4.546875 -0.574219 C 4.535156 -0.539062 4.527344 -0.507812 4.527344 -0.488281 L 4.527344 -7.375 L 8.9375 -7.375 L 10.578125 -0.636719 L 10.578125 -0.625 C 10.5625 -0.699219 10.515625 -0.769531 10.429688 -0.839844 C 10.339844 -0.914062 10.253906 -0.953125 10.167969 -0.953125 L 13.152344 -0.953125 L 13.152344 -0.949219 C 13.128906 -0.949219 13.109375 -0.941406 13.082031 -0.933594 C 12.972656 -0.894531 12.875 -0.824219 12.796875 -0.722656 C 12.714844 -0.617188 12.667969 -0.5 12.660156 -0.378906 C 12.65625 -0.335938 12.65625 -0.308594 12.660156 -0.292969 L 12.65625 -0.308594 L 10.90625 -7.535156 L 11.488281 -7.898438 C 12.328125 -8.421875 12.746094 -9.390625 12.746094 -10.804688 Z M 5.480469 -11.300781 L 8.523438 -11.300781 C 8.625 -11.300781 8.699219 -11.308594 8.753906 -11.328125 C 8.765625 -11.332031 8.773438 -11.335938 8.777344 -11.335938 C 8.773438 -11.335938 8.769531 -11.332031 8.765625 -11.328125 C 8.757812 -11.324219 8.757812 -11.320312 8.753906 -11.316406 C 8.757812 -11.320312 8.757812 -11.324219 8.761719 -11.335938 C 8.78125 -11.390625 8.789062 -11.46875 8.789062 -11.566406 L 8.789062 -16.164062 C 8.789062 -16.265625 8.78125 -16.339844 8.761719 -16.394531 C 8.757812 -16.40625 8.757812 -16.414062 8.753906 -16.417969 C 8.757812 -16.414062 8.757812 -16.410156 8.765625 -16.40625 C 8.769531 -16.398438 8.773438 -16.398438 8.777344 -16.394531 C 8.773438 -16.398438 8.765625 -16.398438 8.753906 -16.402344 C 8.699219 -16.421875 8.625 -16.429688 8.523438 -16.429688 L 5.480469 -16.429688 L 5.480469 -17.382812 L 6.429688 -17.382812 L 6.429688 -10.351562 L 5.480469 -10.351562 Z M 4.527344 -9.398438 L 4.527344 -18.332031 L 8.523438 -18.332031 C 9.191406 -18.332031 9.71875 -18.140625 10.109375 -17.75 C 10.5 -17.359375 10.691406 -16.832031 10.691406 -16.164062 L 10.691406 -11.566406 C 10.691406 -10.898438 10.5 -10.371094 10.109375 -9.980469 C 9.71875 -9.59375 9.191406 -9.398438 8.523438 -9.398438 Z M 4.527344 -9.398438 "/></g></g><g style="fill:#b21a22;fill-opacity:1;"><g transform="translate(50.656349, 62.740433)"><path style="stroke:none" d="M 15.890625 0.953125 L 12.9375 0.953125 C 12.566406 0.953125 12.25 0.835938 11.992188 0.609375 C 11.75 0.398438 11.59375 0.121094 11.519531 -0.226562 L 12.449219 -0.425781 L 11.527344 -0.191406 L 10.554688 -4.027344 L 11.476562 -4.261719 L 11.476562 -3.308594 L 5.753906 -3.308594 L 5.753906 -4.261719 L 6.675781 -4.035156 L 5.734375 -0.199219 L 4.808594 -0.425781 L 5.738281 -0.226562 C 5.664062 0.121094 5.507812 0.398438 5.269531 0.609375 C 5.007812 0.835938 4.691406 0.953125 4.324219 0.953125 L 1.339844 0.953125 C 0.84375 0.953125 0.46875 0.785156 0.210938 0.449219 C -0.0507812 0.105469 -0.109375 -0.304688 0.03125 -0.785156 L 0.945312 -0.515625 L 0.0195312 -0.746094 L 5.074219 -21.113281 L 5.996094 -20.882812 L 5.066406 -21.082031 C 5.144531 -21.441406 5.308594 -21.726562 5.566406 -21.9375 C 5.828125 -22.152344 6.144531 -22.261719 6.515625 -22.261719 L 10.746094 -22.261719 C 11.113281 -22.261719 11.429688 -22.152344 11.691406 -21.9375 C 11.949219 -21.726562 12.117188 -21.441406 12.191406 -21.082031 L 11.261719 -20.882812 L 12.1875 -21.113281 L 17.238281 -0.746094 L 16.316406 -0.515625 L 17.230469 -0.785156 C 17.375 -0.289062 17.304688 0.128906 17.019531 0.476562 C 16.757812 0.792969 16.382812 0.953125 15.890625 0.953125 Z M 15.890625 -0.953125 C 15.894531 -0.953125 15.898438 -0.953125 15.902344 -0.953125 C 15.902344 -0.953125 15.898438 -0.953125 15.898438 -0.949219 C 15.878906 -0.949219 15.859375 -0.945312 15.839844 -0.9375 C 15.730469 -0.902344 15.632812 -0.832031 15.550781 -0.734375 C 15.460938 -0.621094 15.410156 -0.5 15.398438 -0.367188 C 15.394531 -0.3125 15.394531 -0.273438 15.402344 -0.25 L 15.398438 -0.269531 L 10.335938 -20.667969 L 10.332031 -20.683594 C 10.347656 -20.609375 10.398438 -20.539062 10.484375 -20.46875 C 10.574219 -20.394531 10.660156 -20.355469 10.746094 -20.355469 L 6.515625 -20.355469 C 6.601562 -20.355469 6.6875 -20.394531 6.777344 -20.46875 C 6.859375 -20.539062 6.910156 -20.609375 6.925781 -20.683594 L 6.925781 -20.667969 L 1.863281 -0.269531 L 1.855469 -0.25 C 1.863281 -0.269531 1.863281 -0.300781 1.859375 -0.347656 C 1.851562 -0.476562 1.808594 -0.597656 1.722656 -0.707031 C 1.640625 -0.816406 1.539062 -0.890625 1.421875 -0.929688 C 1.382812 -0.945312 1.355469 -0.953125 1.339844 -0.953125 L 4.324219 -0.953125 C 4.214844 -0.953125 4.113281 -0.910156 4.015625 -0.824219 C 3.9375 -0.753906 3.894531 -0.6875 3.878906 -0.625 L 3.882812 -0.640625 L 5.007812 -5.214844 L 12.214844 -5.214844 L 13.375 -0.644531 L 13.378906 -0.625 C 13.367188 -0.6875 13.320312 -0.753906 13.246094 -0.824219 C 13.144531 -0.910156 13.042969 -0.953125 12.9375 -0.953125 Z M 9.605469 -7.578125 L 7.6875 -15.859375 L 8.613281 -16.074219 L 9.542969 -15.859375 L 7.625 -7.578125 L 6.695312 -7.792969 L 6.695312 -8.746094 L 10.53125 -8.746094 L 10.53125 -7.792969 Z M 11.730469 -6.839844 L 5.5 -6.839844 L 7.6875 -16.289062 L 9.542969 -16.289062 L 11.460938 -8.007812 Z M 11.730469 -6.839844 "/></g></g><g style="fill:#b21a22;fill-opacity:1;"><g transform="translate(67.910832, 62.740433)"><path style="stroke:none" d="M 14.679688 -16.925781 L 14.679688 -13.636719 C 14.679688 -13.210938 14.546875 -12.867188 14.28125 -12.597656 C 14.011719 -12.332031 13.667969 -12.199219 13.242188 -12.199219 L 10.378906 -12.199219 C 9.957031 -12.199219 9.609375 -12.332031 9.34375 -12.597656 C 9.074219 -12.867188 8.941406 -13.210938 8.941406 -13.636719 L 8.941406 -16.132812 C 8.941406 -16.234375 8.933594 -16.3125 8.914062 -16.367188 C 8.910156 -16.375 8.910156 -16.382812 8.90625 -16.386719 C 8.910156 -16.382812 8.910156 -16.378906 8.917969 -16.375 C 8.921875 -16.371094 8.925781 -16.367188 8.929688 -16.363281 C 8.925781 -16.367188 8.917969 -16.371094 8.90625 -16.371094 C 8.851562 -16.390625 8.777344 -16.398438 8.675781 -16.398438 L 6.726562 -16.398438 C 6.628906 -16.398438 6.550781 -16.390625 6.496094 -16.371094 C 6.484375 -16.371094 6.480469 -16.367188 6.476562 -16.363281 C 6.476562 -16.367188 6.480469 -16.371094 6.488281 -16.375 C 6.492188 -16.378906 6.496094 -16.382812 6.496094 -16.386719 C 6.496094 -16.382812 6.492188 -16.375 6.488281 -16.367188 C 6.46875 -16.3125 6.460938 -16.234375 6.460938 -16.132812 L 6.460938 -5.082031 C 6.460938 -4.984375 6.46875 -4.90625 6.488281 -4.851562 C 6.492188 -4.839844 6.496094 -4.835938 6.496094 -4.832031 C 6.496094 -4.835938 6.492188 -4.839844 6.488281 -4.84375 C 6.480469 -4.847656 6.476562 -4.851562 6.476562 -4.851562 C 6.480469 -4.851562 6.484375 -4.847656 6.496094 -4.84375 C 6.550781 -4.828125 6.628906 -4.816406 6.726562 -4.816406 L 8.675781 -4.816406 C 8.777344 -4.816406 8.851562 -4.828125 8.90625 -4.84375 C 8.917969 -4.847656 8.925781 -4.851562 8.929688 -4.851562 C 8.925781 -4.851562 8.921875 -4.847656 8.917969 -4.84375 C 8.910156 -4.839844 8.910156 -4.835938 8.90625 -4.832031 C 8.910156 -4.835938 8.910156 -4.839844 8.914062 -4.851562 C 8.933594 -4.90625 8.941406 -4.984375 8.941406 -5.082031 L 8.941406 -7.671875 C 8.941406 -8.097656 9.074219 -8.441406 9.34375 -8.710938 C 9.609375 -8.976562 9.957031 -9.109375 10.378906 -9.109375 L 13.242188 -9.109375 C 13.667969 -9.109375 14.011719 -8.976562 14.28125 -8.710938 C 14.546875 -8.441406 14.679688 -8.097656 14.679688 -7.671875 L 14.679688 -4.382812 C 14.679688 -2.699219 14.210938 -1.390625 13.273438 -0.453125 C 12.339844 0.484375 11.027344 0.953125 9.34375 0.953125 L 5.9375 0.953125 C 4.253906 0.953125 2.941406 0.484375 1.996094 -0.449219 C 1.046875 -1.386719 0.570312 -2.699219 0.570312 -4.382812 L 0.570312 -16.925781 C 0.570312 -18.632812 1.046875 -19.953125 2 -20.878906 C 2.945312 -21.800781 4.257812 -22.261719 5.9375 -22.261719 L 9.34375 -22.261719 C 11.027344 -22.261719 12.335938 -21.796875 13.269531 -20.875 C 14.210938 -19.949219 14.679688 -18.632812 14.679688 -16.925781 Z M 12.777344 -16.925781 C 12.777344 -18.101562 12.496094 -18.964844 11.933594 -19.519531 C 11.367188 -20.078125 10.503906 -20.355469 9.34375 -20.355469 L 5.9375 -20.355469 C 4.773438 -20.355469 3.902344 -20.078125 3.328125 -19.515625 C 2.757812 -18.960938 2.472656 -18.097656 2.472656 -16.925781 L 2.472656 -4.382812 C 2.472656 -3.226562 2.757812 -2.367188 3.332031 -1.804688 C 3.90625 -1.234375 4.777344 -0.953125 5.9375 -0.953125 L 9.34375 -0.953125 C 10.503906 -0.953125 11.363281 -1.234375 11.929688 -1.800781 C 12.496094 -2.363281 12.777344 -3.226562 12.777344 -4.382812 L 12.777344 -7.671875 C 12.777344 -7.648438 12.785156 -7.621094 12.796875 -7.582031 C 12.824219 -7.503906 12.867188 -7.429688 12.933594 -7.363281 C 13 -7.296875 13.074219 -7.253906 13.152344 -7.226562 C 13.191406 -7.214844 13.21875 -7.207031 13.242188 -7.207031 L 10.378906 -7.207031 C 10.402344 -7.207031 10.429688 -7.214844 10.46875 -7.226562 C 10.550781 -7.253906 10.621094 -7.296875 10.6875 -7.363281 C 10.753906 -7.429688 10.800781 -7.503906 10.828125 -7.582031 C 10.839844 -7.621094 10.84375 -7.648438 10.84375 -7.671875 L 10.84375 -5.082031 C 10.84375 -4.414062 10.648438 -3.886719 10.261719 -3.496094 C 9.871094 -3.109375 9.34375 -2.914062 8.675781 -2.914062 L 6.726562 -2.914062 C 6.058594 -2.914062 5.53125 -3.109375 5.140625 -3.496094 C 4.753906 -3.886719 4.558594 -4.414062 4.558594 -5.082031 L 4.558594 -16.132812 C 4.558594 -16.800781 4.753906 -17.332031 5.140625 -17.71875 C 5.53125 -18.109375 6.058594 -18.300781 6.726562 -18.300781 L 8.675781 -18.300781 C 9.34375 -18.300781 9.871094 -18.109375 10.261719 -17.71875 C 10.648438 -17.332031 10.84375 -16.800781 10.84375 -16.132812 L 10.84375 -13.636719 C 10.84375 -13.660156 10.839844 -13.6875 10.828125 -13.726562 C 10.800781 -13.804688 10.753906 -13.878906 10.6875 -13.945312 C 10.621094 -14.011719 10.550781 -14.054688 10.46875 -14.082031 C 10.429688 -14.09375 10.402344 -14.101562 10.378906 -14.101562 L 13.242188 -14.101562 C 13.21875 -14.101562 13.191406 -14.09375 13.152344 -14.082031 C 13.074219 -14.054688 13 -14.011719 12.933594 -13.945312 C 12.867188 -13.878906 12.824219 -13.804688 12.796875 -13.726562 C 12.785156 -13.6875 12.777344 -13.660156 12.777344 -13.636719 Z M 12.777344 -16.925781 "/></g></g><g style="fill:#b21a22;fill-opacity:1;"><g transform="translate(83.156859, 62.740433)"><path style="stroke:none" d="M 14.550781 0.953125 L 11.324219 0.953125 C 10.984375 0.953125 10.675781 0.863281 10.402344 0.683594 C 10.148438 0.519531 9.941406 0.285156 9.785156 -0.0078125 L 5.941406 -7.542969 L 6.789062 -7.976562 L 7.632812 -7.535156 L 6.503906 -5.375 L 5.660156 -5.8125 L 6.613281 -5.8125 L 6.613281 -0.609375 C 6.613281 -0.144531 6.46875 0.234375 6.183594 0.519531 C 5.894531 0.808594 5.519531 0.953125 5.054688 0.953125 L 2.128906 0.953125 C 1.664062 0.953125 1.289062 0.808594 1 0.519531 C 0.714844 0.234375 0.570312 -0.144531 0.570312 -0.609375 L 0.570312 -20.699219 C 0.570312 -21.164062 0.714844 -21.542969 1 -21.828125 C 1.289062 -22.117188 1.664062 -22.261719 2.128906 -22.261719 L 5.054688 -22.261719 C 5.519531 -22.261719 5.894531 -22.117188 6.183594 -21.828125 C 6.46875 -21.542969 6.613281 -21.164062 6.613281 -20.699219 L 6.613281 -12.785156 L 5.660156 -12.785156 L 4.839844 -13.261719 L 9.527344 -21.328125 L 10.351562 -20.851562 L 9.511719 -21.300781 C 9.667969 -21.59375 9.875 -21.824219 10.128906 -21.992188 C 10.402344 -22.171875 10.710938 -22.261719 11.050781 -22.261719 L 14.246094 -22.261719 C 14.496094 -22.261719 14.71875 -22.214844 14.921875 -22.121094 C 15.171875 -22.007812 15.371094 -21.839844 15.519531 -21.609375 C 15.679688 -21.355469 15.75 -21.078125 15.722656 -20.777344 C 15.703125 -20.542969 15.625 -20.316406 15.488281 -20.089844 L 14.671875 -20.578125 L 15.5 -20.109375 L 10.324219 -11.007812 L 9.496094 -11.476562 L 10.34375 -11.910156 L 15.855469 -1.132812 C 16.117188 -0.609375 16.113281 -0.132812 15.847656 0.300781 C 15.582031 0.734375 15.148438 0.953125 14.550781 0.953125 Z M 14.550781 -0.953125 C 14.558594 -0.953125 14.566406 -0.953125 14.566406 -0.953125 C 14.546875 -0.949219 14.523438 -0.941406 14.496094 -0.929688 C 14.386719 -0.886719 14.296875 -0.808594 14.226562 -0.695312 C 14.164062 -0.589844 14.132812 -0.480469 14.140625 -0.363281 C 14.144531 -0.320312 14.152344 -0.285156 14.160156 -0.265625 L 8.417969 -11.5 L 13.851562 -21.058594 L 13.855469 -21.066406 C 13.84375 -21.042969 13.832031 -21.003906 13.828125 -20.941406 C 13.816406 -20.8125 13.847656 -20.691406 13.917969 -20.582031 C 13.972656 -20.496094 14.046875 -20.429688 14.140625 -20.386719 C 14.1875 -20.367188 14.222656 -20.355469 14.246094 -20.355469 L 11.050781 -20.355469 C 11.085938 -20.355469 11.125 -20.371094 11.167969 -20.398438 C 11.183594 -20.40625 11.195312 -20.417969 11.203125 -20.429688 C 11.199219 -20.425781 11.195312 -20.417969 11.1875 -20.402344 L 11.179688 -20.390625 L 4.710938 -9.253906 L 4.710938 -20.699219 C 4.710938 -20.703125 4.710938 -20.707031 4.710938 -20.710938 C 4.710938 -20.710938 4.710938 -20.710938 4.710938 -20.707031 C 4.710938 -20.695312 4.714844 -20.679688 4.722656 -20.664062 C 4.742188 -20.597656 4.78125 -20.539062 4.835938 -20.484375 C 4.890625 -20.429688 4.953125 -20.390625 5.019531 -20.367188 C 5.035156 -20.363281 5.050781 -20.359375 5.0625 -20.355469 C 5.0625 -20.355469 5.058594 -20.355469 5.054688 -20.355469 L 2.128906 -20.355469 C 2.125 -20.355469 2.125 -20.355469 2.121094 -20.355469 C 2.136719 -20.359375 2.148438 -20.363281 2.164062 -20.367188 C 2.230469 -20.390625 2.292969 -20.429688 2.347656 -20.484375 C 2.402344 -20.539062 2.441406 -20.597656 2.460938 -20.664062 C 2.46875 -20.679688 2.472656 -20.695312 2.472656 -20.707031 C 2.472656 -20.710938 2.472656 -20.710938 2.472656 -20.710938 C 2.472656 -20.707031 2.472656 -20.703125 2.472656 -20.699219 L 2.472656 -0.609375 C 2.472656 -0.605469 2.472656 -0.601562 2.472656 -0.597656 C 2.472656 -0.597656 2.472656 -0.597656 2.472656 -0.601562 C 2.472656 -0.613281 2.46875 -0.628906 2.460938 -0.644531 C 2.441406 -0.710938 2.402344 -0.769531 2.347656 -0.824219 C 2.292969 -0.878906 2.230469 -0.917969 2.164062 -0.941406 C 2.148438 -0.945312 2.136719 -0.949219 2.121094 -0.953125 C 2.125 -0.953125 2.125 -0.953125 2.128906 -0.953125 L 5.054688 -0.953125 C 5.058594 -0.953125 5.0625 -0.953125 5.0625 -0.953125 C 5.050781 -0.949219 5.035156 -0.945312 5.019531 -0.941406 C 4.953125 -0.917969 4.890625 -0.878906 4.835938 -0.824219 C 4.78125 -0.769531 4.742188 -0.710938 4.722656 -0.644531 C 4.714844 -0.628906 4.710938 -0.613281 4.710938 -0.601562 C 4.710938 -0.597656 4.710938 -0.597656 4.710938 -0.597656 C 4.710938 -0.601562 4.710938 -0.605469 4.710938 -0.609375 L 4.710938 -6.046875 L 6.796875 -10.050781 L 11.464844 -0.90625 C 11.46875 -0.890625 11.476562 -0.882812 11.476562 -0.878906 C 11.46875 -0.890625 11.457031 -0.902344 11.441406 -0.910156 C 11.398438 -0.9375 11.359375 -0.953125 11.324219 -0.953125 Z M 14.550781 -0.953125 "/></g></g><g style="fill:#b21a22;fill-opacity:1;"><g transform="translate(99.467974, 62.740433)"><path style="stroke:none" d="M 0.570312 -9.558594 L 0.570312 -12.359375 C 0.570312 -12.824219 0.714844 -13.199219 1 -13.488281 C 1.289062 -13.777344 1.664062 -13.917969 2.128906 -13.917969 L 6.941406 -13.917969 C 7.40625 -13.917969 7.78125 -13.777344 8.070312 -13.488281 C 8.355469 -13.199219 8.5 -12.824219 8.5 -12.359375 L 8.5 -9.558594 C 8.5 -9.09375 8.355469 -8.714844 8.070312 -8.429688 C 7.78125 -8.140625 7.40625 -8 6.941406 -8 L 2.128906 -8 C 1.664062 -8 1.289062 -8.140625 1 -8.429688 C 0.714844 -8.714844 0.570312 -9.09375 0.570312 -9.558594 Z M 2.472656 -9.558594 C 2.472656 -9.554688 2.472656 -9.550781 2.472656 -9.546875 C 2.472656 -9.546875 2.472656 -9.546875 2.472656 -9.550781 C 2.472656 -9.5625 2.46875 -9.578125 2.460938 -9.59375 C 2.441406 -9.660156 2.402344 -9.71875 2.347656 -9.773438 C 2.292969 -9.828125 2.230469 -9.867188 2.164062 -9.890625 C 2.148438 -9.894531 2.136719 -9.898438 2.121094 -9.902344 C 2.125 -9.902344 2.125 -9.902344 2.128906 -9.902344 L 6.941406 -9.902344 C 6.945312 -9.902344 6.949219 -9.902344 6.949219 -9.902344 C 6.9375 -9.898438 6.921875 -9.894531 6.90625 -9.890625 C 6.839844 -9.867188 6.78125 -9.828125 6.722656 -9.773438 C 6.667969 -9.71875 6.628906 -9.660156 6.609375 -9.59375 C 6.601562 -9.578125 6.601562 -9.5625 6.597656 -9.550781 C 6.597656 -9.546875 6.597656 -9.546875 6.597656 -9.546875 C 6.597656 -9.550781 6.597656 -9.554688 6.597656 -9.558594 L 6.597656 -12.359375 C 6.597656 -12.363281 6.597656 -12.367188 6.597656 -12.371094 C 6.597656 -12.371094 6.597656 -12.367188 6.597656 -12.367188 C 6.601562 -12.355469 6.601562 -12.339844 6.609375 -12.324219 C 6.628906 -12.257812 6.667969 -12.199219 6.722656 -12.144531 C 6.78125 -12.085938 6.839844 -12.050781 6.90625 -12.027344 C 6.921875 -12.023438 6.9375 -12.019531 6.949219 -12.015625 C 6.949219 -12.015625 6.945312 -12.015625 6.941406 -12.015625 L 2.128906 -12.015625 C 2.125 -12.015625 2.125 -12.015625 2.121094 -12.015625 C 2.136719 -12.019531 2.148438 -12.023438 2.164062 -12.027344 C 2.230469 -12.050781 2.292969 -12.085938 2.347656 -12.144531 C 2.402344 -12.199219 2.441406 -12.257812 2.460938 -12.324219 C 2.46875 -12.339844 2.472656 -12.355469 2.472656 -12.367188 C 2.472656 -12.367188 2.472656 -12.371094 2.472656 -12.371094 C 2.472656 -12.367188 2.472656 -12.363281 2.472656 -12.359375 Z M 2.472656 -9.558594 "/></g></g><g style="fill:#b21a22;fill-opacity:1;"><g transform="translate(19.067736, 105.180082)"><path style="stroke:none" d="M 12.601562 -20.355469 L 1.398438 -20.355469 C 1.421875 -20.355469 1.453125 -20.363281 1.488281 -20.375 C 1.570312 -20.402344 1.640625 -20.449219 1.707031 -20.515625 C 1.773438 -20.578125 1.820312 -20.652344 1.847656 -20.734375 C 1.859375 -20.769531 1.863281 -20.800781 1.863281 -20.820312 L 1.863281 -17.777344 C 1.863281 -17.800781 1.859375 -17.828125 1.847656 -17.863281 C 1.820312 -17.945312 1.773438 -18.019531 1.707031 -18.085938 C 1.640625 -18.148438 1.570312 -18.195312 1.488281 -18.222656 C 1.453125 -18.234375 1.421875 -18.242188 1.398438 -18.242188 L 5.882812 -18.242188 L 5.882812 -0.488281 C 5.882812 -0.507812 5.875 -0.539062 5.863281 -0.574219 C 5.835938 -0.65625 5.792969 -0.730469 5.726562 -0.792969 C 5.660156 -0.859375 5.585938 -0.90625 5.507812 -0.933594 C 5.46875 -0.945312 5.441406 -0.953125 5.417969 -0.953125 L 8.585938 -0.953125 C 8.5625 -0.953125 8.535156 -0.945312 8.496094 -0.933594 C 8.414062 -0.90625 8.34375 -0.859375 8.277344 -0.792969 C 8.210938 -0.730469 8.164062 -0.65625 8.136719 -0.574219 C 8.125 -0.539062 8.121094 -0.507812 8.121094 -0.488281 L 8.121094 -18.242188 L 12.601562 -18.242188 C 12.582031 -18.242188 12.550781 -18.234375 12.515625 -18.222656 C 12.433594 -18.195312 12.359375 -18.148438 12.296875 -18.085938 C 12.230469 -18.019531 12.183594 -17.945312 12.15625 -17.863281 C 12.144531 -17.828125 12.136719 -17.800781 12.136719 -17.777344 L 12.136719 -20.820312 C 12.136719 -20.800781 12.144531 -20.769531 12.15625 -20.734375 C 12.183594 -20.652344 12.230469 -20.578125 12.296875 -20.515625 C 12.359375 -20.449219 12.433594 -20.402344 12.515625 -20.375 C 12.550781 -20.363281 12.582031 -20.355469 12.601562 -20.355469 Z M 12.601562 -22.261719 C 13.027344 -22.261719 13.375 -22.125 13.640625 -21.859375 C 13.90625 -21.59375 14.039062 -21.246094 14.039062 -20.820312 L 14.039062 -17.777344 C 14.039062 -17.351562 13.90625 -17.007812 13.640625 -16.738281 C 13.375 -16.472656 13.027344 -16.339844 12.601562 -16.339844 L 9.070312 -16.339844 L 9.070312 -17.289062 L 10.023438 -17.289062 L 10.023438 -0.488281 C 10.023438 -0.0625 9.890625 0.285156 9.621094 0.550781 C 9.355469 0.816406 9.007812 0.953125 8.585938 0.953125 L 5.417969 0.953125 C 4.992188 0.953125 4.648438 0.816406 4.378906 0.550781 C 4.113281 0.285156 3.980469 -0.0625 3.980469 -0.488281 L 3.980469 -17.289062 L 4.929688 -17.289062 L 4.929688 -16.339844 L 1.398438 -16.339844 C 0.976562 -16.339844 0.628906 -16.472656 0.363281 -16.738281 C 0.09375 -17.007812 -0.0390625 -17.351562 -0.0390625 -17.777344 L -0.0390625 -20.820312 C -0.0390625 -21.246094 0.09375 -21.59375 0.363281 -21.859375 C 0.628906 -22.125 0.976562 -22.261719 1.398438 -22.261719 Z M 12.601562 -22.261719 "/></g></g><g style="fill:#b21a22;fill-opacity:1;"><g transform="translate(33.06608, 105.180082)"><path style="stroke:none" d="M 0.570312 -4.382812 L 0.570312 -16.925781 C 0.570312 -18.632812 1.039062 -19.949219 1.980469 -20.875 C 2.917969 -21.796875 4.226562 -22.261719 5.90625 -22.261719 L 9.316406 -22.261719 C 11.019531 -22.261719 12.332031 -21.796875 13.261719 -20.871094 C 14.1875 -19.945312 14.648438 -18.628906 14.648438 -16.925781 L 14.648438 -4.382812 C 14.648438 -2.703125 14.1875 -1.394531 13.265625 -0.457031 C 12.335938 0.480469 11.019531 0.953125 9.316406 0.953125 L 5.90625 0.953125 C 4.222656 0.953125 2.914062 0.484375 1.976562 -0.453125 C 1.039062 -1.390625 0.570312 -2.699219 0.570312 -4.382812 Z M 2.472656 -4.382812 C 2.472656 -3.226562 2.757812 -2.363281 3.320312 -1.800781 C 3.886719 -1.234375 4.746094 -0.953125 5.90625 -0.953125 L 9.316406 -0.953125 C 10.492188 -0.953125 11.355469 -1.230469 11.910156 -1.792969 C 12.46875 -2.359375 12.746094 -3.222656 12.746094 -4.382812 L 12.746094 -16.925781 C 12.746094 -18.101562 12.46875 -18.96875 11.914062 -19.523438 C 11.359375 -20.078125 10.492188 -20.355469 9.316406 -20.355469 L 5.90625 -20.355469 C 4.746094 -20.355469 3.882812 -20.078125 3.316406 -19.519531 C 2.753906 -18.964844 2.472656 -18.101562 2.472656 -16.925781 Z M 6.695312 -4.878906 L 8.644531 -4.878906 C 8.746094 -4.878906 8.824219 -4.886719 8.878906 -4.90625 C 8.886719 -4.910156 8.894531 -4.910156 8.898438 -4.914062 C 8.894531 -4.910156 8.890625 -4.910156 8.886719 -4.902344 C 8.882812 -4.898438 8.878906 -4.894531 8.875 -4.890625 C 8.878906 -4.894531 8.878906 -4.902344 8.882812 -4.914062 C 8.902344 -4.96875 8.910156 -5.042969 8.910156 -5.144531 L 8.910156 -16.164062 C 8.910156 -16.265625 8.902344 -16.339844 8.882812 -16.394531 C 8.878906 -16.40625 8.878906 -16.414062 8.875 -16.417969 C 8.878906 -16.414062 8.882812 -16.410156 8.886719 -16.40625 C 8.890625 -16.398438 8.894531 -16.398438 8.898438 -16.394531 C 8.894531 -16.398438 8.886719 -16.398438 8.878906 -16.402344 C 8.824219 -16.421875 8.746094 -16.429688 8.644531 -16.429688 L 6.695312 -16.429688 C 6.597656 -16.429688 6.519531 -16.421875 6.464844 -16.402344 C 6.453125 -16.398438 6.449219 -16.398438 6.445312 -16.394531 C 6.449219 -16.398438 6.453125 -16.398438 6.457031 -16.40625 C 6.460938 -16.410156 6.464844 -16.414062 6.464844 -16.417969 C 6.464844 -16.414062 6.460938 -16.40625 6.457031 -16.394531 C 6.441406 -16.339844 6.429688 -16.265625 6.429688 -16.164062 L 6.429688 -5.144531 C 6.429688 -5.042969 6.441406 -4.96875 6.457031 -4.914062 C 6.460938 -4.902344 6.464844 -4.894531 6.464844 -4.890625 C 6.464844 -4.894531 6.460938 -4.898438 6.457031 -4.902344 C 6.453125 -4.910156 6.449219 -4.910156 6.445312 -4.914062 C 6.449219 -4.910156 6.453125 -4.910156 6.464844 -4.90625 C 6.519531 -4.886719 6.597656 -4.878906 6.695312 -4.878906 Z M 6.695312 -2.976562 C 6.027344 -2.976562 5.5 -3.167969 5.109375 -3.558594 C 4.722656 -3.949219 4.527344 -4.476562 4.527344 -5.144531 L 4.527344 -16.164062 C 4.527344 -16.832031 4.722656 -17.359375 5.109375 -17.75 C 5.5 -18.140625 6.027344 -18.332031 6.695312 -18.332031 L 8.644531 -18.332031 C 9.3125 -18.332031 9.84375 -18.140625 10.230469 -17.75 C 10.621094 -17.359375 10.8125 -16.832031 10.8125 -16.164062 L 10.8125 -5.144531 C 10.8125 -4.476562 10.621094 -3.949219 10.230469 -3.558594 C 9.84375 -3.167969 9.3125 -2.976562 8.644531 -2.976562 Z M 6.695312 -2.976562 "/></g></g><g style="fill:#b21a22;fill-opacity:1;"><g transform="translate(48.281671, 105.180082)"><path style="stroke:none" d="M 0.570312 -4.382812 L 0.570312 -16.925781 C 0.570312 -18.632812 1.039062 -19.949219 1.980469 -20.875 C 2.917969 -21.796875 4.226562 -22.261719 5.90625 -22.261719 L 9.316406 -22.261719 C 11.019531 -22.261719 12.332031 -21.796875 13.261719 -20.871094 C 14.1875 -19.945312 14.648438 -18.628906 14.648438 -16.925781 L 14.648438 -4.382812 C 14.648438 -2.703125 14.1875 -1.394531 13.265625 -0.457031 C 12.335938 0.480469 11.019531 0.953125 9.316406 0.953125 L 5.90625 0.953125 C 4.222656 0.953125 2.914062 0.484375 1.976562 -0.453125 C 1.039062 -1.390625 0.570312 -2.699219 0.570312 -4.382812 Z M 2.472656 -4.382812 C 2.472656 -3.226562 2.757812 -2.363281 3.320312 -1.800781 C 3.886719 -1.234375 4.746094 -0.953125 5.90625 -0.953125 L 9.316406 -0.953125 C 10.492188 -0.953125 11.355469 -1.230469 11.910156 -1.792969 C 12.46875 -2.359375 12.746094 -3.222656 12.746094 -4.382812 L 12.746094 -16.925781 C 12.746094 -18.101562 12.46875 -18.96875 11.914062 -19.523438 C 11.359375 -20.078125 10.492188 -20.355469 9.316406 -20.355469 L 5.90625 -20.355469 C 4.746094 -20.355469 3.882812 -20.078125 3.316406 -19.519531 C 2.753906 -18.964844 2.472656 -18.101562 2.472656 -16.925781 Z M 6.695312 -4.878906 L 8.644531 -4.878906 C 8.746094 -4.878906 8.824219 -4.886719 8.878906 -4.90625 C 8.886719 -4.910156 8.894531 -4.910156 8.898438 -4.914062 C 8.894531 -4.910156 8.890625 -4.910156 8.886719 -4.902344 C 8.882812 -4.898438 8.878906 -4.894531 8.875 -4.890625 C 8.878906 -4.894531 8.878906 -4.902344 8.882812 -4.914062 C 8.902344 -4.96875 8.910156 -5.042969 8.910156 -5.144531 L 8.910156 -16.164062 C 8.910156 -16.265625 8.902344 -16.339844 8.882812 -16.394531 C 8.878906 -16.40625 8.878906 -16.414062 8.875 -16.417969 C 8.878906 -16.414062 8.882812 -16.410156 8.886719 -16.40625 C 8.890625 -16.398438 8.894531 -16.398438 8.898438 -16.394531 C 8.894531 -16.398438 8.886719 -16.398438 8.878906 -16.402344 C 8.824219 -16.421875 8.746094 -16.429688 8.644531 -16.429688 L 6.695312 -16.429688 C 6.597656 -16.429688 6.519531 -16.421875 6.464844 -16.402344 C 6.453125 -16.398438 6.449219 -16.398438 6.445312 -16.394531 C 6.449219 -16.398438 6.453125 -16.398438 6.457031 -16.40625 C 6.460938 -16.410156 6.464844 -16.414062 6.464844 -16.417969 C 6.464844 -16.414062 6.460938 -16.40625 6.457031 -16.394531 C 6.441406 -16.339844 6.429688 -16.265625 6.429688 -16.164062 L 6.429688 -5.144531 C 6.429688 -5.042969 6.441406 -4.96875 6.457031 -4.914062 C 6.460938 -4.902344 6.464844 -4.894531 6.464844 -4.890625 C 6.464844 -4.894531 6.460938 -4.898438 6.457031 -4.902344 C 6.453125 -4.910156 6.449219 -4.910156 6.445312 -4.914062 C 6.449219 -4.910156 6.453125 -4.910156 6.464844 -4.90625 C 6.519531 -4.886719 6.597656 -4.878906 6.695312 -4.878906 Z M 6.695312 -2.976562 C 6.027344 -2.976562 5.5 -3.167969 5.109375 -3.558594 C 4.722656 -3.949219 4.527344 -4.476562 4.527344 -5.144531 L 4.527344 -16.164062 C 4.527344 -16.832031 4.722656 -17.359375 5.109375 -17.75 C 5.5 -18.140625 6.027344 -18.332031 6.695312 -18.332031 L 8.644531 -18.332031 C 9.3125 -18.332031 9.84375 -18.140625 10.230469 -17.75 C 10.621094 -17.359375 10.8125 -16.832031 10.8125 -16.164062 L 10.8125 -5.144531 C 10.8125 -4.476562 10.621094 -3.949219 10.230469 -3.558594 C 9.84375 -3.167969 9.3125 -2.976562 8.644531 -2.976562 Z M 6.695312 -2.976562 "/></g></g><g style="fill:#b21a22;fill-opacity:1;"><g transform="translate(63.497261, 105.180082)"><path style="stroke:none" d="M 4.710938 -4.019531 L 4.710938 -20.820312 C 4.710938 -20.800781 4.714844 -20.769531 4.730469 -20.734375 C 4.757812 -20.652344 4.800781 -20.578125 4.867188 -20.515625 C 4.933594 -20.449219 5.007812 -20.402344 5.085938 -20.375 C 5.125 -20.363281 5.152344 -20.355469 5.175781 -20.355469 L 2.007812 -20.355469 C 2.03125 -20.355469 2.058594 -20.363281 2.097656 -20.375 C 2.179688 -20.402344 2.25 -20.449219 2.316406 -20.515625 C 2.382812 -20.578125 2.429688 -20.652344 2.453125 -20.734375 C 2.46875 -20.769531 2.472656 -20.800781 2.472656 -20.820312 L 2.472656 -0.488281 C 2.472656 -0.507812 2.46875 -0.539062 2.453125 -0.574219 C 2.429688 -0.65625 2.382812 -0.730469 2.316406 -0.792969 C 2.25 -0.859375 2.179688 -0.90625 2.097656 -0.933594 C 2.058594 -0.945312 2.03125 -0.953125 2.007812 -0.953125 L 11.6875 -0.953125 C 11.667969 -0.953125 11.636719 -0.945312 11.601562 -0.933594 C 11.519531 -0.90625 11.445312 -0.859375 11.382812 -0.792969 C 11.316406 -0.730469 11.269531 -0.65625 11.242188 -0.574219 C 11.230469 -0.539062 11.226562 -0.507812 11.226562 -0.488281 L 11.226562 -3.53125 C 11.226562 -3.507812 11.230469 -3.480469 11.242188 -3.445312 C 11.269531 -3.363281 11.316406 -3.289062 11.382812 -3.222656 C 11.445312 -3.160156 11.519531 -3.113281 11.601562 -3.085938 C 11.636719 -3.074219 11.667969 -3.066406 11.6875 -3.066406 L 4.710938 -3.066406 Z M 6.613281 -4.019531 L 5.660156 -4.019531 L 5.660156 -4.96875 L 11.6875 -4.96875 C 12.113281 -4.96875 12.460938 -4.835938 12.726562 -4.570312 C 12.996094 -4.300781 13.128906 -3.957031 13.128906 -3.53125 L 13.128906 -0.488281 C 13.128906 -0.0625 12.996094 0.285156 12.726562 0.550781 C 12.460938 0.816406 12.113281 0.953125 11.6875 0.953125 L 2.007812 0.953125 C 1.585938 0.953125 1.238281 0.816406 0.972656 0.550781 C 0.703125 0.285156 0.570312 -0.0625 0.570312 -0.488281 L 0.570312 -20.820312 C 0.570312 -21.246094 0.703125 -21.59375 0.972656 -21.859375 C 1.238281 -22.125 1.585938 -22.261719 2.007812 -22.261719 L 5.175781 -22.261719 C 5.601562 -22.261719 5.945312 -22.125 6.214844 -21.859375 C 6.480469 -21.59375 6.613281 -21.246094 6.613281 -20.820312 Z M 6.613281 -4.019531 "/></g></g><g style="fill:#b21a22;fill-opacity:1;"><g transform="translate(77.191291, 105.180082)"><path style="stroke:none" d="M 14.679688 -16.925781 L 14.679688 -12.816406 C 14.679688 -11.996094 14.410156 -11.300781 13.871094 -10.730469 C 13.363281 -10.195312 12.734375 -9.859375 11.984375 -9.71875 L 11.8125 -10.652344 L 12.761719 -10.652344 L 12.761719 -10.59375 L 11.8125 -10.59375 L 11.949219 -11.535156 C 12.71875 -11.421875 13.363281 -11.082031 13.878906 -10.523438 C 14.414062 -9.945312 14.679688 -9.25 14.679688 -8.433594 L 14.679688 -4.382812 C 14.679688 -2.699219 14.210938 -1.390625 13.273438 -0.453125 C 12.339844 0.484375 11.019531 0.953125 9.316406 0.953125 L 2.007812 0.953125 C 1.585938 0.953125 1.238281 0.816406 0.972656 0.550781 C 0.703125 0.285156 0.570312 -0.0625 0.570312 -0.488281 L 0.570312 -20.820312 C 0.570312 -21.246094 0.703125 -21.59375 0.972656 -21.859375 C 1.238281 -22.125 1.585938 -22.261719 2.007812 -22.261719 L 9.316406 -22.261719 C 11.015625 -22.261719 12.335938 -21.796875 13.269531 -20.875 C 14.210938 -19.949219 14.679688 -18.632812 14.679688 -16.925781 Z M 12.777344 -16.925781 C 12.777344 -18.101562 12.496094 -18.964844 11.933594 -19.519531 C 11.367188 -20.078125 10.496094 -20.355469 9.316406 -20.355469 L 2.007812 -20.355469 C 2.03125 -20.355469 2.058594 -20.363281 2.097656 -20.375 C 2.179688 -20.402344 2.25 -20.449219 2.316406 -20.515625 C 2.382812 -20.578125 2.429688 -20.652344 2.453125 -20.734375 C 2.46875 -20.769531 2.472656 -20.800781 2.472656 -20.820312 L 2.472656 -0.488281 C 2.472656 -0.507812 2.46875 -0.539062 2.453125 -0.574219 C 2.429688 -0.65625 2.382812 -0.730469 2.316406 -0.792969 C 2.25 -0.859375 2.179688 -0.90625 2.097656 -0.933594 C 2.058594 -0.945312 2.03125 -0.953125 2.007812 -0.953125 L 9.316406 -0.953125 C 10.492188 -0.953125 11.363281 -1.234375 11.929688 -1.800781 C 12.496094 -2.363281 12.777344 -3.226562 12.777344 -4.382812 L 12.777344 -8.433594 C 12.777344 -8.753906 12.679688 -9.019531 12.480469 -9.234375 C 12.269531 -9.464844 12 -9.605469 11.671875 -9.652344 L 10.859375 -9.773438 L 10.859375 -11.445312 L 11.636719 -11.589844 C 11.984375 -11.652344 12.265625 -11.804688 12.492188 -12.039062 C 12.683594 -12.242188 12.777344 -12.5 12.777344 -12.816406 Z M 8.910156 -13.820312 L 8.910156 -16.253906 C 8.910156 -16.355469 8.902344 -16.433594 8.882812 -16.488281 C 8.878906 -16.496094 8.878906 -16.503906 8.875 -16.507812 C 8.878906 -16.503906 8.882812 -16.5 8.886719 -16.496094 C 8.890625 -16.492188 8.894531 -16.488281 8.898438 -16.484375 C 8.894531 -16.488281 8.886719 -16.492188 8.878906 -16.496094 C 8.824219 -16.511719 8.746094 -16.523438 8.644531 -16.523438 L 5.296875 -16.523438 L 5.296875 -17.472656 L 6.246094 -17.472656 L 6.246094 -12.632812 L 5.296875 -12.632812 L 5.296875 -13.585938 L 8.644531 -13.585938 C 8.746094 -13.585938 8.828125 -13.59375 8.882812 -13.613281 C 8.894531 -13.617188 8.902344 -13.617188 8.90625 -13.621094 C 8.902344 -13.617188 8.898438 -13.617188 8.894531 -13.609375 C 8.890625 -13.605469 8.882812 -13.601562 8.882812 -13.59375 C 8.882812 -13.597656 8.882812 -13.601562 8.886719 -13.609375 C 8.902344 -13.65625 8.910156 -13.726562 8.910156 -13.820312 Z M 10.8125 -13.820312 C 10.8125 -13.15625 10.617188 -12.632812 10.222656 -12.25 C 9.835938 -11.871094 9.308594 -11.679688 8.644531 -11.679688 L 4.34375 -11.679688 L 4.34375 -18.425781 L 8.644531 -18.425781 C 9.3125 -18.425781 9.84375 -18.230469 10.230469 -17.839844 C 10.621094 -17.453125 10.8125 -16.925781 10.8125 -16.253906 Z M 8.910156 -5.054688 L 8.910156 -7.398438 C 8.910156 -7.496094 8.902344 -7.574219 8.882812 -7.628906 C 8.878906 -7.640625 8.878906 -7.644531 8.875 -7.648438 C 8.878906 -7.644531 8.882812 -7.640625 8.886719 -7.636719 C 8.890625 -7.632812 8.894531 -7.628906 8.898438 -7.628906 C 8.894531 -7.628906 8.886719 -7.632812 8.878906 -7.636719 C 8.824219 -7.65625 8.746094 -7.664062 8.644531 -7.664062 L 5.296875 -7.664062 L 5.296875 -8.613281 L 6.246094 -8.613281 L 6.246094 -3.835938 L 5.296875 -3.835938 L 5.296875 -4.785156 L 8.644531 -4.785156 C 8.746094 -4.785156 8.824219 -4.796875 8.878906 -4.8125 C 8.886719 -4.816406 8.894531 -4.820312 8.898438 -4.824219 C 8.894531 -4.820312 8.890625 -4.816406 8.886719 -4.8125 C 8.882812 -4.808594 8.878906 -4.804688 8.875 -4.800781 C 8.878906 -4.804688 8.878906 -4.8125 8.882812 -4.820312 C 8.902344 -4.875 8.910156 -4.953125 8.910156 -5.054688 Z M 10.8125 -5.054688 C 10.8125 -4.382812 10.621094 -3.855469 10.230469 -3.46875 C 9.84375 -3.078125 9.3125 -2.882812 8.644531 -2.882812 L 4.34375 -2.882812 L 4.34375 -9.566406 L 8.644531 -9.566406 C 9.3125 -9.566406 9.84375 -9.371094 10.230469 -8.984375 C 10.621094 -8.59375 10.8125 -8.066406 10.8125 -7.398438 Z M 10.8125 -5.054688 "/></g></g><g style="fill:#b21a22;fill-opacity:1;"><g transform="translate(92.437317, 105.180082)"><path style="stroke:none" d="M 15.890625 0.953125 L 12.9375 0.953125 C 12.566406 0.953125 12.25 0.835938 11.992188 0.609375 C 11.75 0.398438 11.59375 0.121094 11.519531 -0.226562 L 12.449219 -0.425781 L 11.527344 -0.191406 L 10.554688 -4.027344 L 11.476562 -4.261719 L 11.476562 -3.308594 L 5.753906 -3.308594 L 5.753906 -4.261719 L 6.675781 -4.035156 L 5.734375 -0.199219 L 4.808594 -0.425781 L 5.738281 -0.226562 C 5.664062 0.121094 5.507812 0.398438 5.269531 0.609375 C 5.007812 0.835938 4.691406 0.953125 4.324219 0.953125 L 1.339844 0.953125 C 0.84375 0.953125 0.46875 0.785156 0.210938 0.449219 C -0.0507812 0.105469 -0.109375 -0.304688 0.03125 -0.785156 L 0.945312 -0.515625 L 0.0195312 -0.746094 L 5.074219 -21.113281 L 5.996094 -20.882812 L 5.066406 -21.082031 C 5.144531 -21.441406 5.308594 -21.726562 5.566406 -21.9375 C 5.828125 -22.152344 6.144531 -22.261719 6.515625 -22.261719 L 10.746094 -22.261719 C 11.113281 -22.261719 11.429688 -22.152344 11.691406 -21.9375 C 11.949219 -21.726562 12.117188 -21.441406 12.191406 -21.082031 L 11.261719 -20.882812 L 12.1875 -21.113281 L 17.238281 -0.746094 L 16.316406 -0.515625 L 17.230469 -0.785156 C 17.375 -0.289062 17.304688 0.128906 17.019531 0.476562 C 16.757812 0.792969 16.382812 0.953125 15.890625 0.953125 Z M 15.890625 -0.953125 C 15.894531 -0.953125 15.898438 -0.953125 15.902344 -0.953125 C 15.902344 -0.953125 15.898438 -0.953125 15.898438 -0.949219 C 15.878906 -0.949219 15.859375 -0.945312 15.839844 -0.9375 C 15.730469 -0.902344 15.632812 -0.832031 15.550781 -0.734375 C 15.460938 -0.621094 15.410156 -0.5 15.398438 -0.367188 C 15.394531 -0.3125 15.394531 -0.273438 15.402344 -0.25 L 15.398438 -0.269531 L 10.335938 -20.667969 L 10.332031 -20.683594 C 10.347656 -20.609375 10.398438 -20.539062 10.484375 -20.46875 C 10.574219 -20.394531 10.660156 -20.355469 10.746094 -20.355469 L 6.515625 -20.355469 C 6.601562 -20.355469 6.6875 -20.394531 6.777344 -20.46875 C 6.859375 -20.539062 6.910156 -20.609375 6.925781 -20.683594 L 6.925781 -20.667969 L 1.863281 -0.269531 L 1.855469 -0.25 C 1.863281 -0.269531 1.863281 -0.300781 1.859375 -0.347656 C 1.851562 -0.476562 1.808594 -0.597656 1.722656 -0.707031 C 1.640625 -0.816406 1.539062 -0.890625 1.421875 -0.929688 C 1.382812 -0.945312 1.355469 -0.953125 1.339844 -0.953125 L 4.324219 -0.953125 C 4.214844 -0.953125 4.113281 -0.910156 4.015625 -0.824219 C 3.9375 -0.753906 3.894531 -0.6875 3.878906 -0.625 L 3.882812 -0.640625 L 5.007812 -5.214844 L 12.214844 -5.214844 L 13.375 -0.644531 L 13.378906 -0.625 C 13.367188 -0.6875 13.320312 -0.753906 13.246094 -0.824219 C 13.144531 -0.910156 13.042969 -0.953125 12.9375 -0.953125 Z M 9.605469 -7.578125 L 7.6875 -15.859375 L 8.613281 -16.074219 L 9.542969 -15.859375 L 7.625 -7.578125 L 6.695312 -7.792969 L 6.695312 -8.746094 L 10.53125 -8.746094 L 10.53125 -7.792969 Z M 11.730469 -6.839844 L 5.5 -6.839844 L 7.6875 -16.289062 L 9.542969 -16.289062 L 11.460938 -8.007812 Z M 11.730469 -6.839844 "/></g></g><g style="fill:#b21a22;fill-opacity:1;"><g transform="translate(109.6918, 105.180082)"><path style="stroke:none" d="M 14.648438 -16.925781 L 14.648438 -10.804688 C 14.648438 -8.6875 13.933594 -7.183594 12.496094 -6.285156 L 11.992188 -7.09375 L 12.917969 -7.316406 L 14.5 -0.773438 L 13.578125 -0.546875 L 14.492188 -0.800781 C 14.628906 -0.3125 14.5625 0.105469 14.296875 0.445312 C 14.035156 0.785156 13.652344 0.953125 13.152344 0.953125 L 10.167969 0.953125 C 9.796875 0.953125 9.480469 0.84375 9.21875 0.628906 C 8.964844 0.417969 8.796875 0.132812 8.71875 -0.226562 L 9.648438 -0.425781 L 8.726562 -0.199219 L 7.265625 -6.199219 L 8.1875 -6.421875 L 8.1875 -5.472656 L 5.480469 -5.472656 L 5.480469 -6.421875 L 6.429688 -6.421875 L 6.429688 -0.488281 C 6.429688 -0.0625 6.296875 0.285156 6.03125 0.550781 C 5.761719 0.816406 5.417969 0.953125 4.992188 0.953125 L 2.007812 0.953125 C 1.585938 0.953125 1.238281 0.816406 0.972656 0.550781 C 0.703125 0.285156 0.570312 -0.0625 0.570312 -0.488281 L 0.570312 -20.820312 C 0.570312 -21.246094 0.703125 -21.59375 0.972656 -21.859375 C 1.238281 -22.125 1.585938 -22.261719 2.007812 -22.261719 L 9.316406 -22.261719 C 11.019531 -22.261719 12.332031 -21.796875 13.261719 -20.871094 C 14.1875 -19.945312 14.648438 -18.628906 14.648438 -16.925781 Z M 12.746094 -16.925781 C 12.746094 -18.101562 12.46875 -18.96875 11.914062 -19.523438 C 11.359375 -20.078125 10.492188 -20.355469 9.316406 -20.355469 L 2.007812 -20.355469 C 2.03125 -20.355469 2.058594 -20.363281 2.097656 -20.375 C 2.179688 -20.402344 2.25 -20.449219 2.316406 -20.515625 C 2.382812 -20.578125 2.429688 -20.652344 2.453125 -20.734375 C 2.46875 -20.769531 2.472656 -20.800781 2.472656 -20.820312 L 2.472656 -0.488281 C 2.472656 -0.507812 2.46875 -0.539062 2.453125 -0.574219 C 2.429688 -0.65625 2.382812 -0.730469 2.316406 -0.792969 C 2.25 -0.859375 2.179688 -0.90625 2.097656 -0.933594 C 2.058594 -0.945312 2.03125 -0.953125 2.007812 -0.953125 L 4.992188 -0.953125 C 4.96875 -0.953125 4.941406 -0.945312 4.90625 -0.933594 C 4.824219 -0.90625 4.75 -0.859375 4.683594 -0.792969 C 4.621094 -0.730469 4.574219 -0.65625 4.546875 -0.574219 C 4.535156 -0.539062 4.527344 -0.507812 4.527344 -0.488281 L 4.527344 -7.375 L 8.9375 -7.375 L 10.578125 -0.636719 L 10.578125 -0.625 C 10.5625 -0.699219 10.515625 -0.769531 10.429688 -0.839844 C 10.339844 -0.914062 10.253906 -0.953125 10.167969 -0.953125 L 13.152344 -0.953125 L 13.152344 -0.949219 C 13.128906 -0.949219 13.109375 -0.941406 13.082031 -0.933594 C 12.972656 -0.894531 12.875 -0.824219 12.796875 -0.722656 C 12.714844 -0.617188 12.667969 -0.5 12.660156 -0.378906 C 12.65625 -0.335938 12.65625 -0.308594 12.660156 -0.292969 L 12.65625 -0.308594 L 10.90625 -7.535156 L 11.488281 -7.898438 C 12.328125 -8.421875 12.746094 -9.390625 12.746094 -10.804688 Z M 5.480469 -11.300781 L 8.523438 -11.300781 C 8.625 -11.300781 8.699219 -11.308594 8.753906 -11.328125 C 8.765625 -11.332031 8.773438 -11.335938 8.777344 -11.335938 C 8.773438 -11.335938 8.769531 -11.332031 8.765625 -11.328125 C 8.757812 -11.324219 8.757812 -11.320312 8.753906 -11.316406 C 8.757812 -11.320312 8.757812 -11.324219 8.761719 -11.335938 C 8.78125 -11.390625 8.789062 -11.46875 8.789062 -11.566406 L 8.789062 -16.164062 C 8.789062 -16.265625 8.78125 -16.339844 8.761719 -16.394531 C 8.757812 -16.40625 8.757812 -16.414062 8.753906 -16.417969 C 8.757812 -16.414062 8.757812 -16.410156 8.765625 -16.40625 C 8.769531 -16.398438 8.773438 -16.398438 8.777344 -16.394531 C 8.773438 -16.398438 8.765625 -16.398438 8.753906 -16.402344 C 8.699219 -16.421875 8.625 -16.429688 8.523438 -16.429688 L 5.480469 -16.429688 L 5.480469 -17.382812 L 6.429688 -17.382812 L 6.429688 -10.351562 L 5.480469 -10.351562 Z M 4.527344 -9.398438 L 4.527344 -18.332031 L 8.523438 -18.332031 C 9.191406 -18.332031 9.71875 -18.140625 10.109375 -17.75 C 10.5 -17.359375 10.691406 -16.832031 10.691406 -16.164062 L 10.691406 -11.566406 C 10.691406 -10.898438 10.5 -10.371094 10.109375 -9.980469 C 9.71875 -9.59375 9.191406 -9.398438 8.523438 -9.398438 Z M 4.527344 -9.398438 "/></g></g><g style="fill:#060705;fill-opacity:1;"><g transform="translate(35.440759, 62.740433)"><path style="stroke:none" d="M 13.703125 -16.921875 L 13.703125 -10.8125 C 13.703125 -9.039062 13.132812 -7.800781 12 -7.09375 L 13.578125 -0.546875 C 13.679688 -0.179688 13.539062 0 13.15625 0 L 10.171875 0 C 9.878906 0 9.707031 -0.140625 9.65625 -0.421875 L 8.1875 -6.421875 L 5.484375 -6.421875 L 5.484375 -0.484375 C 5.484375 -0.160156 5.316406 0 4.984375 0 L 2.015625 0 C 1.679688 0 1.515625 -0.160156 1.515625 -0.484375 L 1.515625 -20.8125 C 1.515625 -21.144531 1.679688 -21.3125 2.015625 -21.3125 L 9.3125 -21.3125 C 10.75 -21.3125 11.835938 -20.9375 12.578125 -20.1875 C 13.328125 -19.445312 13.703125 -18.359375 13.703125 -16.921875 Z M 5.484375 -10.34375 L 8.515625 -10.34375 C 9.328125 -10.34375 9.734375 -10.75 9.734375 -11.5625 L 9.734375 -16.15625 C 9.734375 -16.96875 9.328125 -17.375 8.515625 -17.375 L 5.484375 -17.375 Z M 5.484375 -10.34375 "/></g></g><g style="fill:#060705;fill-opacity:1;"><g transform="translate(50.656349, 62.740433)"><path style="stroke:none" d="M 15.890625 0 L 12.9375 0 C 12.675781 0 12.515625 -0.140625 12.453125 -0.421875 L 11.46875 -4.265625 L 5.75 -4.265625 L 4.8125 -0.421875 C 4.75 -0.140625 4.585938 0 4.328125 0 L 1.34375 0 C 0.976562 0 0.84375 -0.171875 0.9375 -0.515625 L 6 -20.875 C 6.0625 -21.164062 6.234375 -21.3125 6.515625 -21.3125 L 10.75 -21.3125 C 11.03125 -21.3125 11.203125 -21.164062 11.265625 -20.875 L 16.3125 -0.515625 C 16.414062 -0.171875 16.273438 0 15.890625 0 Z M 10.53125 -7.796875 L 8.609375 -16.078125 L 6.703125 -7.796875 Z M 10.53125 -7.796875 "/></g></g><g style="fill:#060705;fill-opacity:1;"><g transform="translate(67.910832, 62.740433)"><path style="stroke:none" d="M 13.734375 -16.921875 L 13.734375 -13.640625 C 13.734375 -13.316406 13.566406 -13.15625 13.234375 -13.15625 L 10.375 -13.15625 C 10.050781 -13.15625 9.890625 -13.316406 9.890625 -13.640625 L 9.890625 -16.125 C 9.890625 -16.9375 9.484375 -17.34375 8.671875 -17.34375 L 6.734375 -17.34375 C 5.921875 -17.34375 5.515625 -16.9375 5.515625 -16.125 L 5.515625 -5.078125 C 5.515625 -4.265625 5.921875 -3.859375 6.734375 -3.859375 L 8.671875 -3.859375 C 9.484375 -3.859375 9.890625 -4.265625 9.890625 -5.078125 L 9.890625 -7.671875 C 9.890625 -7.992188 10.050781 -8.15625 10.375 -8.15625 L 13.234375 -8.15625 C 13.566406 -8.15625 13.734375 -7.992188 13.734375 -7.671875 L 13.734375 -4.390625 C 13.734375 -2.960938 13.351562 -1.875 12.59375 -1.125 C 11.84375 -0.375 10.757812 0 9.34375 0 L 5.9375 0 C 4.507812 0 3.414062 -0.375 2.65625 -1.125 C 1.894531 -1.875 1.515625 -2.960938 1.515625 -4.390625 L 1.515625 -16.921875 C 1.515625 -18.359375 1.894531 -19.445312 2.65625 -20.1875 C 3.414062 -20.9375 4.507812 -21.3125 5.9375 -21.3125 L 9.34375 -21.3125 C 10.757812 -21.3125 11.84375 -20.9375 12.59375 -20.1875 C 13.351562 -19.445312 13.734375 -18.359375 13.734375 -16.921875 Z M 13.734375 -16.921875 "/></g></g><g style="fill:#060705;fill-opacity:1;"><g transform="translate(83.156859, 62.740433)"><path style="stroke:none" d="M 14.546875 0 L 11.328125 0 C 11.015625 0 10.78125 -0.148438 10.625 -0.453125 L 6.78125 -7.96875 L 5.65625 -5.8125 L 5.65625 -0.609375 C 5.65625 -0.203125 5.453125 0 5.046875 0 L 2.125 0 C 1.71875 0 1.515625 -0.203125 1.515625 -0.609375 L 1.515625 -20.703125 C 1.515625 -21.109375 1.71875 -21.3125 2.125 -21.3125 L 5.046875 -21.3125 C 5.453125 -21.3125 5.65625 -21.109375 5.65625 -20.703125 L 5.65625 -12.78125 L 10.34375 -20.84375 C 10.507812 -21.15625 10.742188 -21.3125 11.046875 -21.3125 L 14.25 -21.3125 C 14.46875 -21.3125 14.625 -21.238281 14.71875 -21.09375 C 14.8125 -20.945312 14.796875 -20.773438 14.671875 -20.578125 L 9.5 -11.46875 L 15 -0.703125 C 15.101562 -0.492188 15.113281 -0.320312 15.03125 -0.1875 C 14.957031 -0.0625 14.796875 0 14.546875 0 Z M 14.546875 0 "/></g></g><g style="fill:#060705;fill-opacity:1;"><g transform="translate(99.467974, 62.740433)"><path style="stroke:none" d="M 1.515625 -9.5625 L 1.515625 -12.359375 C 1.515625 -12.765625 1.71875 -12.96875 2.125 -12.96875 L 6.9375 -12.96875 C 7.34375 -12.96875 7.546875 -12.765625 7.546875 -12.359375 L 7.546875 -9.5625 C 7.546875 -9.15625 7.34375 -8.953125 6.9375 -8.953125 L 2.125 -8.953125 C 1.71875 -8.953125 1.515625 -9.15625 1.515625 -9.5625 Z M 1.515625 -9.5625 "/></g></g><g style="fill:#060705;fill-opacity:1;"><g transform="translate(19.067736, 105.180082)"><path style="stroke:none" d="M 12.59375 -21.3125 L 1.40625 -21.3125 C 1.070312 -21.3125 0.90625 -21.144531 0.90625 -20.8125 L 0.90625 -17.78125 C 0.90625 -17.445312 1.070312 -17.28125 1.40625 -17.28125 L 4.9375 -17.28125 L 4.9375 -0.484375 C 4.9375 -0.160156 5.097656 0 5.421875 0 L 8.578125 0 C 8.910156 0 9.078125 -0.160156 9.078125 -0.484375 L 9.078125 -17.28125 L 12.59375 -17.28125 C 12.925781 -17.28125 13.09375 -17.445312 13.09375 -17.78125 L 13.09375 -20.8125 C 13.09375 -21.144531 12.925781 -21.3125 12.59375 -21.3125 Z M 12.59375 -21.3125 "/></g></g><g style="fill:#060705;fill-opacity:1;"><g transform="translate(33.06608, 105.180082)"><path style="stroke:none" d="M 1.515625 -4.390625 L 1.515625 -16.921875 C 1.515625 -18.359375 1.890625 -19.445312 2.640625 -20.1875 C 3.398438 -20.9375 4.488281 -21.3125 5.90625 -21.3125 L 9.3125 -21.3125 C 10.75 -21.3125 11.835938 -20.9375 12.578125 -20.1875 C 13.328125 -19.445312 13.703125 -18.359375 13.703125 -16.921875 L 13.703125 -4.390625 C 13.703125 -2.960938 13.328125 -1.875 12.578125 -1.125 C 11.835938 -0.375 10.75 0 9.3125 0 L 5.90625 0 C 4.488281 0 3.398438 -0.375 2.640625 -1.125 C 1.890625 -1.875 1.515625 -2.960938 1.515625 -4.390625 Z M 6.703125 -3.921875 L 8.640625 -3.921875 C 9.453125 -3.921875 9.859375 -4.328125 9.859375 -5.140625 L 9.859375 -16.15625 C 9.859375 -16.96875 9.453125 -17.375 8.640625 -17.375 L 6.703125 -17.375 C 5.890625 -17.375 5.484375 -16.96875 5.484375 -16.15625 L 5.484375 -5.140625 C 5.484375 -4.328125 5.890625 -3.921875 6.703125 -3.921875 Z M 6.703125 -3.921875 "/></g></g><g style="fill:#060705;fill-opacity:1;"><g transform="translate(48.281671, 105.180082)"><path style="stroke:none" d="M 1.515625 -4.390625 L 1.515625 -16.921875 C 1.515625 -18.359375 1.890625 -19.445312 2.640625 -20.1875 C 3.398438 -20.9375 4.488281 -21.3125 5.90625 -21.3125 L 9.3125 -21.3125 C 10.75 -21.3125 11.835938 -20.9375 12.578125 -20.1875 C 13.328125 -19.445312 13.703125 -18.359375 13.703125 -16.921875 L 13.703125 -4.390625 C 13.703125 -2.960938 13.328125 -1.875 12.578125 -1.125 C 11.835938 -0.375 10.75 0 9.3125 0 L 5.90625 0 C 4.488281 0 3.398438 -0.375 2.640625 -1.125 C 1.890625 -1.875 1.515625 -2.960938 1.515625 -4.390625 Z M 6.703125 -3.921875 L 8.640625 -3.921875 C 9.453125 -3.921875 9.859375 -4.328125 9.859375 -5.140625 L 9.859375 -16.15625 C 9.859375 -16.96875 9.453125 -17.375 8.640625 -17.375 L 6.703125 -17.375 C 5.890625 -17.375 5.484375 -16.96875 5.484375 -16.15625 L 5.484375 -5.140625 C 5.484375 -4.328125 5.890625 -3.921875 6.703125 -3.921875 Z M 6.703125 -3.921875 "/></g></g><g style="fill:#060705;fill-opacity:1;"><g transform="translate(63.497261, 105.180082)"><path style="stroke:none" d="M 5.65625 -4.015625 L 5.65625 -20.8125 C 5.65625 -21.144531 5.492188 -21.3125 5.171875 -21.3125 L 2.015625 -21.3125 C 1.679688 -21.3125 1.515625 -21.144531 1.515625 -20.8125 L 1.515625 -0.484375 C 1.515625 -0.160156 1.679688 0 2.015625 0 L 11.6875 0 C 12.007812 0 12.171875 -0.160156 12.171875 -0.484375 L 12.171875 -3.53125 C 12.171875 -3.851562 12.007812 -4.015625 11.6875 -4.015625 Z M 5.65625 -4.015625 "/></g></g><g style="fill:#060705;fill-opacity:1;"><g transform="translate(77.191291, 105.180082)"><path style="stroke:none" d="M 13.734375 -16.921875 L 13.734375 -12.8125 C 13.734375 -12.25 13.546875 -11.773438 13.171875 -11.390625 C 12.804688 -11.003906 12.351562 -10.757812 11.8125 -10.65625 L 11.8125 -10.59375 C 12.351562 -10.507812 12.804688 -10.269531 13.171875 -9.875 C 13.546875 -9.476562 13.734375 -9 13.734375 -8.4375 L 13.734375 -4.390625 C 13.734375 -2.960938 13.351562 -1.875 12.59375 -1.125 C 11.84375 -0.375 10.75 0 9.3125 0 L 2.015625 0 C 1.679688 0 1.515625 -0.160156 1.515625 -0.484375 L 1.515625 -20.8125 C 1.515625 -21.144531 1.679688 -21.3125 2.015625 -21.3125 L 9.3125 -21.3125 C 10.75 -21.3125 11.84375 -20.9375 12.59375 -20.1875 C 13.351562 -19.445312 13.734375 -18.359375 13.734375 -16.921875 Z M 9.859375 -13.8125 L 9.859375 -16.25 C 9.859375 -17.0625 9.453125 -17.46875 8.640625 -17.46875 L 5.296875 -17.46875 L 5.296875 -12.625 L 8.640625 -12.625 C 9.453125 -12.625 9.859375 -13.019531 9.859375 -13.8125 Z M 9.859375 -5.046875 L 9.859375 -7.390625 C 9.859375 -8.203125 9.453125 -8.609375 8.640625 -8.609375 L 5.296875 -8.609375 L 5.296875 -3.828125 L 8.640625 -3.828125 C 9.453125 -3.828125 9.859375 -4.234375 9.859375 -5.046875 Z M 9.859375 -5.046875 "/></g></g><g style="fill:#060705;fill-opacity:1;"><g transform="translate(92.437317, 105.180082)"><path style="stroke:none" d="M 15.890625 0 L 12.9375 0 C 12.675781 0 12.515625 -0.140625 12.453125 -0.421875 L 11.46875 -4.265625 L 5.75 -4.265625 L 4.8125 -0.421875 C 4.75 -0.140625 4.585938 0 4.328125 0 L 1.34375 0 C 0.976562 0 0.84375 -0.171875 0.9375 -0.515625 L 6 -20.875 C 6.0625 -21.164062 6.234375 -21.3125 6.515625 -21.3125 L 10.75 -21.3125 C 11.03125 -21.3125 11.203125 -21.164062 11.265625 -20.875 L 16.3125 -0.515625 C 16.414062 -0.171875 16.273438 0 15.890625 0 Z M 10.53125 -7.796875 L 8.609375 -16.078125 L 6.703125 -7.796875 Z M 10.53125 -7.796875 "/></g></g><g style="fill:#060705;fill-opacity:1;"><g transform="translate(109.6918, 105.180082)"><path style="stroke:none" d="M 13.703125 -16.921875 L 13.703125 -10.8125 C 13.703125 -9.039062 13.132812 -7.800781 12 -7.09375 L 13.578125 -0.546875 C 13.679688 -0.179688 13.539062 0 13.15625 0 L 10.171875 0 C 9.878906 0 9.707031 -0.140625 9.65625 -0.421875 L 8.1875 -6.421875 L 5.484375 -6.421875 L 5.484375 -0.484375 C 5.484375 -0.160156 5.316406 0 4.984375 0 L 2.015625 0 C 1.679688 0 1.515625 -0.160156 1.515625 -0.484375 L 1.515625 -20.8125 C 1.515625 -21.144531 1.679688 -21.3125 2.015625 -21.3125 L 9.3125 -21.3125 C 10.75 -21.3125 11.835938 -20.9375 12.578125 -20.1875 C 13.328125 -19.445312 13.703125 -18.359375 13.703125 -16.921875 Z M 5.484375 -10.34375 L 8.515625 -10.34375 C 9.328125 -10.34375 9.734375 -10.75 9.734375 -11.5625 L 9.734375 -16.15625 C 9.734375 -16.96875 9.328125 -17.375 8.515625 -17.375 L 5.484375 -17.375 Z M 5.484375 -10.34375 "/></g></g></g></svg>