<svg xmlns="http://www.w3.org/2000/svg" xmlns:xlink="http://www.w3.org/1999/xlink" width="500" zoomAndPan="magnify" viewBox="0 0 375 374.999991" height="500" preserveAspectRatio="xMidYMid meet" version="1.2"><defs><clipPath id="25ed0090bb"><path d="M 25 0 L 350 0 L 350 375 L 25 375 Z M 25 0 "/></clipPath><clipPath id="3e1d0ecb7d"><path d="M -55.878906 142.882812 L 268.328125 -46.476562 L 431 232.042969 L 106.789062 421.402344 Z M -55.878906 142.882812 "/></clipPath><clipPath id="2ce22f0934"><path d="M 349.546875 92.851562 L 349.859375 279.433594 L 187.8125 374.078125 L 25.453125 282.140625 L 25.140625 95.5625 L 187.1875 0.917969 Z M 349.546875 92.851562 "/></clipPath><clipPath id="461e726134"><path d="M 55.238281 35.632812 L 319.726562 35.632812 L 319.726562 339 L 55.238281 339 Z M 55.238281 35.632812 "/></clipPath></defs><g id="a5aa4401b4"><g clip-rule="nonzero" clip-path="url(#25ed0090bb)"><g clip-rule="nonzero" clip-path="url(#3e1d0ecb7d)"><g clip-rule="nonzero" clip-path="url(#2ce22f0934)"><path style=" stroke:none;fill-rule:nonzero;fill:#65b30e;fill-opacity:1;" d="M -55.878906 142.882812 L 268.332031 -46.476562 L 431 232.042969 L 106.789062 421.402344 Z M -55.878906 142.882812 "/></g></g></g><path style=" stroke:none;fill-rule:nonzero;fill:#87ff00;fill-opacity:1;" d="M 134.582031 135.703125 L 134.414062 135.535156 L 97.035156 172.914062 L 187.792969 263.503906 L 225.175781 226.296875 L 278.546875 172.914062 L 241.167969 135.535156 L 241.167969 135.363281 L 134.417969 135.363281 Z M 134.582031 135.703125 "/><g clip-rule="nonzero" clip-path="url(#461e726134)"><path style=" stroke:none;fill-rule:nonzero;fill:#87ff00;fill-opacity:1;" d="M 187.453125 35.851562 L 55.269531 111.625 L 55.273438 263.175781 L 187.457031 338.949219 L 319.640625 263.175781 L 319.640625 111.625 L 187.457031 35.855469 Z M 294.375 248.683594 L 187.453125 310.308594 L 80.527344 248.683594 L 80.53125 125.765625 L 187.457031 64.136719 L 294.378906 125.765625 L 294.378906 248.683594 Z M 294.375 248.683594 "/></g><g style="fill:#b21a22;fill-opacity:1;"><g transform="translate(92.293658, 163.386551)"><path style="stroke:none" d="M 38.148438 -44.074219 L 38.148438 -28.140625 C 38.148438 -22.628906 36.28125 -18.703125 32.546875 -16.371094 L 31.234375 -18.46875 L 33.640625 -19.054688 L 37.765625 -2.007812 L 35.355469 -1.425781 L 37.742188 -2.089844 C 38.097656 -0.8125 37.925781 0.269531 37.230469 1.164062 C 36.550781 2.039062 35.554688 2.476562 34.246094 2.476562 L 26.476562 2.476562 C 25.515625 2.476562 24.691406 2.195312 24.011719 1.636719 C 23.339844 1.085938 22.90625 0.34375 22.707031 -0.589844 L 25.128906 -1.109375 L 22.722656 -0.523438 L 18.917969 -16.140625 L 21.324219 -16.726562 L 21.324219 -14.25 L 14.269531 -14.25 L 14.269531 -16.726562 L 16.746094 -16.726562 L 16.746094 -1.269531 C 16.746094 -0.160156 16.398438 0.738281 15.703125 1.433594 C 15.007812 2.128906 14.109375 2.476562 13 2.476562 L 5.230469 2.476562 C 4.125 2.476562 3.222656 2.128906 2.527344 1.433594 C 1.832031 0.738281 1.484375 -0.160156 1.484375 -1.269531 L 1.484375 -54.222656 C 1.484375 -55.328125 1.832031 -56.230469 2.527344 -56.925781 C 3.222656 -57.621094 4.125 -57.96875 5.230469 -57.96875 L 24.257812 -57.96875 C 28.695312 -57.96875 32.117188 -56.761719 34.53125 -54.347656 C 36.945312 -51.9375 38.148438 -48.511719 38.148438 -44.074219 Z M 33.195312 -44.074219 C 33.195312 -47.144531 32.472656 -49.402344 31.027344 -50.847656 C 29.582031 -52.289062 27.324219 -53.011719 24.257812 -53.011719 L 5.230469 -53.011719 C 5.289062 -53.011719 5.363281 -53.03125 5.460938 -53.0625 C 5.671875 -53.132812 5.863281 -53.253906 6.03125 -53.421875 C 6.203125 -53.59375 6.324219 -53.78125 6.394531 -53.996094 C 6.425781 -54.089844 6.441406 -54.167969 6.441406 -54.222656 L 6.441406 -1.269531 C 6.441406 -1.324219 6.425781 -1.402344 6.394531 -1.496094 C 6.324219 -1.707031 6.203125 -1.898438 6.03125 -2.070312 C 5.863281 -2.238281 5.671875 -2.359375 5.460938 -2.429688 C 5.363281 -2.460938 5.289062 -2.476562 5.230469 -2.476562 L 13 -2.476562 C 12.945312 -2.476562 12.867188 -2.460938 12.773438 -2.429688 C 12.5625 -2.359375 12.371094 -2.238281 12.199219 -2.070312 C 12.03125 -1.898438 11.910156 -1.707031 11.839844 -1.496094 C 11.808594 -1.402344 11.792969 -1.324219 11.792969 -1.269531 L 11.792969 -19.203125 L 23.269531 -19.203125 L 27.542969 -1.664062 L 27.550781 -1.628906 C 27.511719 -1.820312 27.378906 -2.007812 27.160156 -2.191406 C 26.925781 -2.382812 26.699219 -2.476562 26.476562 -2.476562 L 34.246094 -2.476562 C 34.195312 -2.46875 34.136719 -2.453125 34.070312 -2.429688 C 33.777344 -2.328125 33.527344 -2.144531 33.320312 -1.878906 C 33.105469 -1.601562 32.988281 -1.304688 32.964844 -0.984375 C 32.957031 -0.878906 32.957031 -0.804688 32.96875 -0.765625 L 32.957031 -0.804688 L 28.40625 -19.625 L 29.921875 -20.570312 C 32.105469 -21.9375 33.195312 -24.460938 33.195312 -28.140625 Z M 14.269531 -29.429688 L 22.195312 -29.429688 C 22.457031 -29.429688 22.65625 -29.453125 22.800781 -29.5 C 22.828125 -29.511719 22.84375 -29.515625 22.855469 -29.523438 C 22.84375 -29.519531 22.835938 -29.507812 22.824219 -29.496094 C 22.8125 -29.484375 22.800781 -29.476562 22.796875 -29.464844 C 22.804688 -29.476562 22.808594 -29.492188 22.820312 -29.519531 C 22.867188 -29.660156 22.890625 -29.863281 22.890625 -30.125 L 22.890625 -42.09375 C 22.890625 -42.355469 22.867188 -42.554688 22.820312 -42.699219 C 22.808594 -42.722656 22.804688 -42.742188 22.796875 -42.75 C 22.800781 -42.742188 22.8125 -42.730469 22.824219 -42.71875 C 22.835938 -42.707031 22.84375 -42.699219 22.855469 -42.695312 C 22.84375 -42.699219 22.828125 -42.707031 22.800781 -42.714844 C 22.65625 -42.765625 22.457031 -42.789062 22.195312 -42.789062 L 14.269531 -42.789062 L 14.269531 -45.265625 L 16.746094 -45.265625 L 16.746094 -26.953125 L 14.269531 -26.953125 Z M 11.792969 -24.476562 L 11.792969 -47.742188 L 22.195312 -47.742188 C 23.9375 -47.742188 25.3125 -47.234375 26.328125 -46.222656 C 27.339844 -45.210938 27.84375 -43.835938 27.84375 -42.09375 L 27.84375 -30.125 C 27.84375 -28.382812 27.339844 -27.007812 26.328125 -25.992188 C 25.3125 -24.980469 23.9375 -24.476562 22.195312 -24.476562 Z M 11.792969 -24.476562 "/></g></g><g style="fill:#b21a22;fill-opacity:1;"><g transform="translate(131.917595, 163.386551)"><path style="stroke:none" d="M 41.378906 2.476562 L 33.691406 2.476562 C 32.726562 2.476562 31.90625 2.179688 31.226562 1.585938 C 30.601562 1.042969 30.195312 0.316406 30 -0.589844 L 32.421875 -1.109375 L 30.019531 -0.5 L 27.484375 -10.488281 L 29.886719 -11.097656 L 29.886719 -8.621094 L 14.984375 -8.621094 L 14.984375 -11.097656 L 17.386719 -10.507812 L 14.929688 -0.519531 L 12.523438 -1.109375 L 14.949219 -0.589844 C 14.753906 0.316406 14.34375 1.042969 13.71875 1.585938 C 13.042969 2.179688 12.222656 2.476562 11.257812 2.476562 L 3.488281 2.476562 C 2.195312 2.476562 1.214844 2.039062 0.550781 1.167969 C -0.132812 0.277344 -0.289062 -0.792969 0.0820312 -2.046875 L 2.457031 -1.347656 L 0.0546875 -1.945312 L 13.210938 -54.976562 L 15.617188 -54.382812 L 13.195312 -54.898438 C 13.394531 -55.832031 13.828125 -56.574219 14.496094 -57.125 C 15.179688 -57.6875 16 -57.96875 16.964844 -57.96875 L 27.984375 -57.96875 C 28.945312 -57.96875 29.769531 -57.6875 30.449219 -57.125 C 31.117188 -56.574219 31.554688 -55.832031 31.753906 -54.898438 L 29.332031 -54.382812 L 31.734375 -54.976562 L 44.894531 -1.945312 L 42.492188 -1.347656 L 44.867188 -2.046875 C 45.246094 -0.757812 45.066406 0.335938 44.324219 1.238281 C 43.644531 2.0625 42.660156 2.476562 41.378906 2.476562 Z M 41.378906 -2.476562 C 41.394531 -2.476562 41.402344 -2.476562 41.410156 -2.476562 C 41.410156 -2.476562 41.40625 -2.476562 41.402344 -2.476562 C 41.355469 -2.472656 41.304688 -2.457031 41.246094 -2.4375 C 40.960938 -2.347656 40.710938 -2.171875 40.5 -1.910156 C 40.261719 -1.621094 40.128906 -1.300781 40.101562 -0.953125 C 40.089844 -0.816406 40.09375 -0.714844 40.113281 -0.648438 L 40.097656 -0.699219 L 26.917969 -53.824219 L 26.910156 -53.863281 C 26.949219 -53.667969 27.082031 -53.480469 27.300781 -53.300781 C 27.53125 -53.109375 27.761719 -53.011719 27.984375 -53.011719 L 16.964844 -53.011719 C 17.1875 -53.011719 17.414062 -53.109375 17.648438 -53.300781 C 17.867188 -53.480469 17.996094 -53.667969 18.039062 -53.863281 L 18.03125 -53.824219 L 4.847656 -0.699219 L 4.835938 -0.648438 C 4.847656 -0.699219 4.851562 -0.785156 4.847656 -0.902344 C 4.828125 -1.238281 4.707031 -1.550781 4.484375 -1.84375 C 4.269531 -2.125 4.007812 -2.316406 3.699219 -2.425781 C 3.597656 -2.460938 3.527344 -2.476562 3.488281 -2.476562 L 11.257812 -2.476562 C 10.980469 -2.476562 10.714844 -2.367188 10.457031 -2.140625 C 10.257812 -1.964844 10.136719 -1.796875 10.101562 -1.628906 L 10.109375 -1.664062 L 13.039062 -13.574219 L 31.8125 -13.574219 L 34.835938 -1.675781 L 34.84375 -1.628906 C 34.808594 -1.796875 34.691406 -1.964844 34.488281 -2.140625 C 34.234375 -2.367188 33.96875 -2.476562 33.691406 -2.476562 Z M 25.015625 -19.734375 L 20.019531 -41.296875 L 22.433594 -41.855469 L 24.847656 -41.296875 L 19.855469 -19.734375 L 17.441406 -20.292969 L 17.441406 -22.769531 L 27.429688 -22.769531 L 27.429688 -20.292969 Z M 30.546875 -17.816406 L 14.324219 -17.816406 L 20.019531 -42.414062 L 24.847656 -42.414062 L 29.84375 -20.851562 Z M 30.546875 -17.816406 "/></g></g><g style="fill:#b21a22;fill-opacity:1;"><g transform="translate(176.851149, 163.386551)"><path style="stroke:none" d="M 38.230469 -44.074219 L 38.230469 -35.515625 C 38.230469 -34.40625 37.882812 -33.507812 37.1875 -32.8125 C 36.492188 -32.117188 35.589844 -31.769531 34.484375 -31.769531 L 27.03125 -31.769531 C 25.925781 -31.769531 25.023438 -32.117188 24.328125 -32.8125 C 23.632812 -33.507812 23.285156 -34.40625 23.285156 -35.515625 L 23.285156 -42.015625 C 23.285156 -42.273438 23.261719 -42.476562 23.214844 -42.617188 C 23.207031 -42.644531 23.199219 -42.664062 23.195312 -42.671875 C 23.199219 -42.664062 23.207031 -42.652344 23.21875 -42.640625 C 23.230469 -42.628906 23.242188 -42.621094 23.25 -42.617188 C 23.242188 -42.621094 23.222656 -42.628906 23.195312 -42.636719 C 23.054688 -42.683594 22.851562 -42.707031 22.59375 -42.707031 L 17.519531 -42.707031 C 17.257812 -42.707031 17.058594 -42.683594 16.914062 -42.636719 C 16.890625 -42.628906 16.871094 -42.621094 16.863281 -42.617188 C 16.871094 -42.621094 16.882812 -42.628906 16.894531 -42.640625 C 16.90625 -42.652344 16.914062 -42.664062 16.917969 -42.671875 C 16.914062 -42.664062 16.90625 -42.644531 16.898438 -42.617188 C 16.847656 -42.476562 16.824219 -42.273438 16.824219 -42.015625 L 16.824219 -13.238281 C 16.824219 -12.976562 16.847656 -12.777344 16.898438 -12.632812 C 16.90625 -12.609375 16.914062 -12.589844 16.917969 -12.582031 C 16.914062 -12.589844 16.90625 -12.601562 16.894531 -12.613281 C 16.882812 -12.625 16.871094 -12.632812 16.863281 -12.636719 C 16.871094 -12.632812 16.890625 -12.625 16.914062 -12.617188 C 17.058594 -12.570312 17.257812 -12.546875 17.519531 -12.546875 L 22.59375 -12.546875 C 22.851562 -12.546875 23.054688 -12.570312 23.195312 -12.617188 C 23.222656 -12.625 23.242188 -12.632812 23.25 -12.636719 C 23.242188 -12.632812 23.230469 -12.625 23.21875 -12.613281 C 23.207031 -12.601562 23.199219 -12.589844 23.195312 -12.582031 C 23.199219 -12.589844 23.207031 -12.609375 23.214844 -12.632812 C 23.261719 -12.777344 23.285156 -12.976562 23.285156 -13.238281 L 23.285156 -19.976562 C 23.285156 -21.082031 23.632812 -21.984375 24.328125 -22.679688 C 25.023438 -23.375 25.925781 -23.722656 27.03125 -23.722656 L 34.484375 -23.722656 C 35.589844 -23.722656 36.492188 -23.375 37.1875 -22.679688 C 37.882812 -21.984375 38.230469 -21.082031 38.230469 -19.976562 L 38.230469 -11.414062 C 38.230469 -7.03125 37.011719 -3.621094 34.570312 -1.179688 C 32.132812 1.257812 28.71875 2.476562 24.335938 2.476562 L 15.457031 2.476562 C 11.082031 2.476562 7.660156 1.261719 5.195312 -1.167969 C 2.722656 -3.609375 1.484375 -7.023438 1.484375 -11.414062 L 1.484375 -44.074219 C 1.484375 -48.523438 2.726562 -51.957031 5.207031 -54.371094 C 7.671875 -56.769531 11.085938 -57.96875 15.457031 -57.96875 L 24.335938 -57.96875 C 28.714844 -57.96875 32.121094 -56.765625 34.558594 -54.359375 C 37.007812 -51.945312 38.230469 -48.519531 38.230469 -44.074219 Z M 33.273438 -44.074219 C 33.273438 -47.136719 32.542969 -49.390625 31.078125 -50.832031 C 29.605469 -52.285156 27.359375 -53.011719 24.335938 -53.011719 L 15.457031 -53.011719 C 12.429688 -53.011719 10.164062 -52.28125 8.664062 -50.820312 C 7.183594 -49.378906 6.441406 -47.128906 6.441406 -44.074219 L 6.441406 -11.414062 C 6.441406 -8.40625 7.1875 -6.167969 8.675781 -4.695312 C 10.175781 -3.21875 12.4375 -2.476562 15.457031 -2.476562 L 24.335938 -2.476562 C 27.351562 -2.476562 29.59375 -3.214844 31.066406 -4.683594 C 32.539062 -6.15625 33.273438 -8.398438 33.273438 -11.414062 L 33.273438 -19.976562 C 33.273438 -19.921875 33.289062 -19.84375 33.324219 -19.75 C 33.394531 -19.535156 33.511719 -19.347656 33.683594 -19.175781 C 33.851562 -19.007812 34.042969 -18.886719 34.253906 -18.816406 C 34.351562 -18.785156 34.425781 -18.769531 34.484375 -18.769531 L 27.03125 -18.769531 C 27.089844 -18.769531 27.164062 -18.785156 27.261719 -18.816406 C 27.472656 -18.886719 27.664062 -19.007812 27.832031 -19.175781 C 28.003906 -19.347656 28.121094 -19.535156 28.191406 -19.75 C 28.226562 -19.84375 28.242188 -19.921875 28.242188 -19.976562 L 28.242188 -13.238281 C 28.242188 -11.496094 27.734375 -10.121094 26.722656 -9.109375 C 25.710938 -8.097656 24.332031 -7.589844 22.59375 -7.589844 L 17.519531 -7.589844 C 15.777344 -7.589844 14.402344 -8.097656 13.390625 -9.109375 C 12.378906 -10.121094 11.871094 -11.496094 11.871094 -13.238281 L 11.871094 -42.015625 C 11.871094 -43.753906 12.378906 -45.132812 13.390625 -46.144531 C 14.402344 -47.15625 15.777344 -47.664062 17.519531 -47.664062 L 22.59375 -47.664062 C 24.332031 -47.664062 25.710938 -47.15625 26.722656 -46.144531 C 27.734375 -45.132812 28.242188 -43.753906 28.242188 -42.015625 L 28.242188 -35.515625 C 28.242188 -35.570312 28.226562 -35.648438 28.191406 -35.742188 C 28.121094 -35.953125 28.003906 -36.144531 27.832031 -36.316406 C 27.664062 -36.484375 27.472656 -36.605469 27.261719 -36.675781 C 27.164062 -36.707031 27.089844 -36.722656 27.03125 -36.722656 L 34.484375 -36.722656 C 34.425781 -36.722656 34.351562 -36.707031 34.253906 -36.675781 C 34.042969 -36.605469 33.851562 -36.484375 33.683594 -36.316406 C 33.511719 -36.144531 33.394531 -35.953125 33.324219 -35.742188 C 33.289062 -35.648438 33.273438 -35.570312 33.273438 -35.515625 Z M 33.273438 -44.074219 "/></g></g><g style="fill:#b21a22;fill-opacity:1;"><g transform="translate(216.554347, 163.386551)"><path style="stroke:none" d="M 37.890625 2.476562 L 29.488281 2.476562 C 28.601562 2.476562 27.800781 2.246094 27.085938 1.777344 C 26.425781 1.347656 25.890625 0.746094 25.480469 -0.0234375 L 15.472656 -19.644531 L 17.679688 -20.769531 L 19.875 -19.625 L 16.941406 -13.996094 L 14.746094 -15.140625 L 17.222656 -15.140625 L 17.222656 -1.585938 C 17.222656 -0.371094 16.847656 0.609375 16.101562 1.355469 C 15.351562 2.101562 14.371094 2.476562 13.160156 2.476562 L 5.550781 2.476562 C 4.335938 2.476562 3.355469 2.101562 2.609375 1.355469 C 1.859375 0.609375 1.484375 -0.371094 1.484375 -1.585938 L 1.484375 -53.90625 C 1.484375 -55.117188 1.859375 -56.097656 2.609375 -56.847656 C 3.355469 -57.59375 4.335938 -57.96875 5.550781 -57.96875 L 13.160156 -57.96875 C 14.371094 -57.96875 15.351562 -57.59375 16.101562 -56.847656 C 16.847656 -56.097656 17.222656 -55.117188 17.222656 -53.90625 L 17.222656 -33.292969 L 14.746094 -33.292969 L 12.601562 -34.539062 L 24.8125 -55.546875 L 26.953125 -54.300781 L 24.765625 -55.46875 C 25.179688 -56.238281 25.714844 -56.839844 26.371094 -57.269531 C 27.085938 -57.734375 27.890625 -57.96875 28.777344 -57.96875 L 37.101562 -57.96875 C 37.746094 -57.96875 38.332031 -57.847656 38.863281 -57.609375 C 39.511719 -57.316406 40.03125 -56.871094 40.414062 -56.277344 C 40.835938 -55.617188 41.015625 -54.890625 40.945312 -54.105469 C 40.890625 -53.5 40.6875 -52.902344 40.332031 -52.3125 L 38.210938 -53.589844 L 40.363281 -52.363281 L 26.886719 -28.660156 L 24.734375 -29.886719 L 26.9375 -31.015625 L 41.289062 -2.949219 C 41.96875 -1.585938 41.964844 -0.34375 41.269531 0.78125 C 40.574219 1.914062 39.449219 2.476562 37.890625 2.476562 Z M 37.890625 -2.476562 C 37.917969 -2.476562 37.929688 -2.476562 37.929688 -2.476562 C 37.878906 -2.46875 37.820312 -2.453125 37.753906 -2.425781 C 37.460938 -2.304688 37.230469 -2.101562 37.050781 -1.8125 C 36.882812 -1.539062 36.808594 -1.253906 36.828125 -0.949219 C 36.832031 -0.832031 36.851562 -0.746094 36.875 -0.695312 L 21.917969 -29.949219 L 36.070312 -54.839844 L 36.085938 -54.863281 C 36.046875 -54.800781 36.023438 -54.695312 36.007812 -54.539062 C 35.980469 -54.203125 36.058594 -53.886719 36.246094 -53.597656 C 36.390625 -53.371094 36.582031 -53.203125 36.824219 -53.09375 C 36.941406 -53.039062 37.035156 -53.011719 37.101562 -53.011719 L 28.777344 -53.011719 C 28.871094 -53.011719 28.972656 -53.046875 29.078125 -53.117188 C 29.121094 -53.144531 29.152344 -53.171875 29.175781 -53.199219 C 29.167969 -53.191406 29.15625 -53.171875 29.140625 -53.136719 L 29.117188 -53.097656 L 12.265625 -24.101562 L 12.265625 -53.90625 C 12.265625 -53.917969 12.265625 -53.925781 12.265625 -53.933594 C 12.265625 -53.933594 12.265625 -53.929688 12.265625 -53.925781 C 12.273438 -53.894531 12.28125 -53.859375 12.296875 -53.816406 C 12.351562 -53.644531 12.453125 -53.488281 12.597656 -53.34375 C 12.738281 -53.199219 12.898438 -53.097656 13.070312 -53.042969 C 13.113281 -53.027344 13.148438 -53.019531 13.179688 -53.015625 C 13.183594 -53.011719 13.1875 -53.011719 13.1875 -53.011719 C 13.179688 -53.011719 13.171875 -53.011719 13.160156 -53.011719 L 5.550781 -53.011719 C 5.539062 -53.011719 5.527344 -53.011719 5.523438 -53.011719 C 5.523438 -53.011719 5.523438 -53.011719 5.527344 -53.015625 C 5.558594 -53.019531 5.597656 -53.027344 5.640625 -53.042969 C 5.8125 -53.097656 5.96875 -53.199219 6.113281 -53.34375 C 6.253906 -53.488281 6.355469 -53.644531 6.414062 -53.816406 C 6.425781 -53.859375 6.4375 -53.894531 6.441406 -53.925781 C 6.441406 -53.929688 6.441406 -53.933594 6.441406 -53.933594 C 6.441406 -53.925781 6.441406 -53.917969 6.441406 -53.90625 L 6.441406 -1.585938 C 6.441406 -1.574219 6.441406 -1.566406 6.441406 -1.558594 C 6.441406 -1.558594 6.441406 -1.558594 6.441406 -1.5625 C 6.4375 -1.597656 6.425781 -1.632812 6.414062 -1.675781 C 6.355469 -1.847656 6.253906 -2.003906 6.113281 -2.148438 C 5.96875 -2.292969 5.8125 -2.390625 5.640625 -2.449219 C 5.597656 -2.464844 5.558594 -2.472656 5.527344 -2.476562 C 5.523438 -2.476562 5.523438 -2.476562 5.523438 -2.476562 C 5.527344 -2.476562 5.539062 -2.476562 5.550781 -2.476562 L 13.160156 -2.476562 C 13.171875 -2.476562 13.179688 -2.476562 13.1875 -2.476562 C 13.1875 -2.476562 13.183594 -2.476562 13.179688 -2.476562 C 13.148438 -2.472656 13.113281 -2.464844 13.070312 -2.449219 C 12.898438 -2.390625 12.738281 -2.292969 12.597656 -2.148438 C 12.453125 -2.003906 12.351562 -1.847656 12.296875 -1.675781 C 12.28125 -1.632812 12.273438 -1.597656 12.265625 -1.5625 C 12.265625 -1.558594 12.265625 -1.558594 12.265625 -1.558594 C 12.265625 -1.566406 12.265625 -1.574219 12.265625 -1.585938 L 12.265625 -15.746094 L 17.703125 -26.175781 L 29.851562 -2.355469 C 29.871094 -2.320312 29.882812 -2.300781 29.890625 -2.292969 C 29.867188 -2.316406 29.835938 -2.34375 29.792969 -2.371094 C 29.683594 -2.441406 29.585938 -2.476562 29.488281 -2.476562 Z M 37.890625 -2.476562 "/></g></g><g style="fill:#b21a22;fill-opacity:1;"><g transform="translate(259.031214, 163.386551)"><path style="stroke:none" d="M 1.484375 -24.890625 L 1.484375 -32.183594 C 1.484375 -33.398438 1.859375 -34.378906 2.609375 -35.125 C 3.355469 -35.875 4.335938 -36.246094 5.550781 -36.246094 L 18.074219 -36.246094 C 19.285156 -36.246094 20.265625 -35.875 21.015625 -35.125 C 21.761719 -34.378906 22.136719 -33.398438 22.136719 -32.183594 L 22.136719 -24.890625 C 22.136719 -23.679688 21.761719 -22.699219 21.015625 -21.949219 C 20.265625 -21.203125 19.285156 -20.828125 18.074219 -20.828125 L 5.550781 -20.828125 C 4.335938 -20.828125 3.355469 -21.203125 2.609375 -21.949219 C 1.859375 -22.699219 1.484375 -23.679688 1.484375 -24.890625 Z M 6.441406 -24.890625 C 6.441406 -24.878906 6.441406 -24.871094 6.441406 -24.863281 C 6.441406 -24.863281 6.441406 -24.867188 6.441406 -24.871094 C 6.4375 -24.902344 6.425781 -24.9375 6.414062 -24.980469 C 6.355469 -25.152344 6.253906 -25.3125 6.113281 -25.453125 C 5.96875 -25.597656 5.8125 -25.699219 5.640625 -25.753906 C 5.597656 -25.769531 5.558594 -25.777344 5.527344 -25.785156 C 5.523438 -25.785156 5.523438 -25.785156 5.523438 -25.785156 C 5.527344 -25.785156 5.539062 -25.785156 5.550781 -25.785156 L 18.074219 -25.785156 C 18.085938 -25.785156 18.09375 -25.785156 18.101562 -25.785156 C 18.101562 -25.785156 18.097656 -25.785156 18.09375 -25.785156 C 18.0625 -25.777344 18.027344 -25.769531 17.984375 -25.753906 C 17.8125 -25.699219 17.65625 -25.597656 17.511719 -25.453125 C 17.367188 -25.3125 17.265625 -25.152344 17.210938 -24.980469 C 17.195312 -24.9375 17.1875 -24.902344 17.183594 -24.871094 C 17.183594 -24.867188 17.179688 -24.863281 17.179688 -24.863281 C 17.183594 -24.871094 17.183594 -24.878906 17.183594 -24.890625 L 17.183594 -32.183594 C 17.183594 -32.195312 17.183594 -32.203125 17.179688 -32.210938 C 17.179688 -32.210938 17.183594 -32.210938 17.183594 -32.207031 C 17.1875 -32.175781 17.195312 -32.136719 17.210938 -32.09375 C 17.265625 -31.921875 17.367188 -31.765625 17.511719 -31.621094 C 17.65625 -31.476562 17.8125 -31.378906 17.984375 -31.320312 C 18.027344 -31.308594 18.0625 -31.296875 18.09375 -31.292969 C 18.097656 -31.292969 18.101562 -31.292969 18.101562 -31.292969 C 18.09375 -31.292969 18.085938 -31.292969 18.074219 -31.292969 L 5.550781 -31.292969 C 5.539062 -31.292969 5.527344 -31.292969 5.523438 -31.292969 C 5.523438 -31.292969 5.523438 -31.292969 5.527344 -31.292969 C 5.558594 -31.296875 5.597656 -31.308594 5.640625 -31.320312 C 5.8125 -31.378906 5.96875 -31.476562 6.113281 -31.621094 C 6.253906 -31.765625 6.355469 -31.921875 6.414062 -32.09375 C 6.425781 -32.136719 6.4375 -32.175781 6.441406 -32.207031 C 6.441406 -32.210938 6.441406 -32.210938 6.441406 -32.210938 C 6.441406 -32.203125 6.441406 -32.195312 6.441406 -32.183594 Z M 6.441406 -24.890625 "/></g></g><g style="fill:#b21a22;fill-opacity:1;"><g transform="translate(49.655571, 273.906482)"><path style="stroke:none" d="M 32.820312 -53.011719 L 3.648438 -53.011719 C 3.703125 -53.011719 3.78125 -53.03125 3.875 -53.0625 C 4.085938 -53.132812 4.277344 -53.253906 4.445312 -53.421875 C 4.617188 -53.59375 4.738281 -53.78125 4.808594 -53.996094 C 4.839844 -54.089844 4.855469 -54.167969 4.855469 -54.222656 L 4.855469 -46.296875 C 4.855469 -46.351562 4.839844 -46.429688 4.808594 -46.523438 C 4.738281 -46.734375 4.617188 -46.925781 4.445312 -47.097656 C 4.277344 -47.265625 4.085938 -47.386719 3.875 -47.457031 C 3.78125 -47.488281 3.703125 -47.503906 3.648438 -47.503906 L 15.320312 -47.503906 L 15.320312 -1.269531 C 15.320312 -1.324219 15.304688 -1.402344 15.273438 -1.496094 C 15.203125 -1.707031 15.082031 -1.898438 14.910156 -2.070312 C 14.742188 -2.238281 14.550781 -2.359375 14.339844 -2.429688 C 14.242188 -2.460938 14.167969 -2.476562 14.109375 -2.476562 L 22.355469 -2.476562 C 22.296875 -2.476562 22.222656 -2.460938 22.125 -2.429688 C 21.914062 -2.359375 21.722656 -2.238281 21.554688 -2.070312 C 21.382812 -1.898438 21.265625 -1.707031 21.195312 -1.496094 C 21.160156 -1.402344 21.144531 -1.324219 21.144531 -1.269531 L 21.144531 -47.503906 L 32.820312 -47.503906 C 32.761719 -47.503906 32.6875 -47.488281 32.589844 -47.457031 C 32.378906 -47.386719 32.1875 -47.265625 32.019531 -47.097656 C 31.847656 -46.925781 31.726562 -46.734375 31.65625 -46.523438 C 31.625 -46.429688 31.609375 -46.351562 31.609375 -46.296875 L 31.609375 -54.222656 C 31.609375 -54.167969 31.625 -54.089844 31.65625 -53.996094 C 31.726562 -53.78125 31.847656 -53.59375 32.019531 -53.421875 C 32.1875 -53.253906 32.378906 -53.132812 32.589844 -53.0625 C 32.6875 -53.03125 32.761719 -53.011719 32.820312 -53.011719 Z M 32.820312 -57.96875 C 33.925781 -57.96875 34.828125 -57.621094 35.523438 -56.925781 C 36.21875 -56.230469 36.566406 -55.328125 36.566406 -54.222656 L 36.566406 -46.296875 C 36.566406 -45.1875 36.21875 -44.289062 35.523438 -43.59375 C 34.828125 -42.898438 33.925781 -42.550781 32.820312 -42.550781 L 23.625 -42.550781 L 23.625 -45.027344 L 26.101562 -45.027344 L 26.101562 -1.269531 C 26.101562 -0.160156 25.753906 0.738281 25.058594 1.433594 C 24.363281 2.128906 23.460938 2.476562 22.355469 2.476562 L 14.109375 2.476562 C 13.003906 2.476562 12.101562 2.128906 11.40625 1.433594 C 10.710938 0.738281 10.363281 -0.160156 10.363281 -1.269531 L 10.363281 -45.027344 L 12.84375 -45.027344 L 12.84375 -42.550781 L 3.648438 -42.550781 C 2.539062 -42.550781 1.636719 -42.898438 0.945312 -43.59375 C 0.25 -44.289062 -0.0976562 -45.1875 -0.0976562 -46.296875 L -0.0976562 -54.222656 C -0.0976562 -55.328125 0.25 -56.230469 0.945312 -56.925781 C 1.636719 -57.621094 2.539062 -57.96875 3.648438 -57.96875 Z M 32.820312 -57.96875 "/></g></g><g style="fill:#b21a22;fill-opacity:1;"><g transform="translate(86.109597, 273.906482)"><path style="stroke:none" d="M 1.484375 -11.414062 L 1.484375 -44.074219 C 1.484375 -48.519531 2.710938 -51.945312 5.15625 -54.359375 C 7.59375 -56.765625 11.003906 -57.96875 15.378906 -57.96875 L 24.257812 -57.96875 C 28.695312 -57.96875 32.117188 -56.761719 34.53125 -54.347656 C 36.945312 -51.9375 38.148438 -48.511719 38.148438 -44.074219 L 38.148438 -11.414062 C 38.148438 -7.039062 36.949219 -3.632812 34.542969 -1.191406 C 32.128906 1.253906 28.699219 2.476562 24.257812 2.476562 L 15.378906 2.476562 C 10.996094 2.476562 7.585938 1.257812 5.144531 -1.179688 C 2.707031 -3.621094 1.484375 -7.03125 1.484375 -11.414062 Z M 6.441406 -11.414062 C 6.441406 -8.398438 7.175781 -6.15625 8.648438 -4.683594 C 10.121094 -3.214844 12.363281 -2.476562 15.378906 -2.476562 L 24.257812 -2.476562 C 27.320312 -2.476562 29.570312 -3.210938 31.015625 -4.671875 C 32.46875 -6.144531 33.195312 -8.394531 33.195312 -11.414062 L 33.195312 -44.074219 C 33.195312 -47.144531 32.472656 -49.402344 31.027344 -50.847656 C 29.582031 -52.289062 27.324219 -53.011719 24.257812 -53.011719 L 15.378906 -53.011719 C 12.355469 -53.011719 10.109375 -52.285156 8.636719 -50.832031 C 7.171875 -49.390625 6.441406 -47.136719 6.441406 -44.074219 Z M 17.441406 -12.703125 L 22.511719 -12.703125 C 22.773438 -12.703125 22.976562 -12.726562 23.117188 -12.773438 C 23.144531 -12.785156 23.160156 -12.789062 23.171875 -12.796875 C 23.160156 -12.789062 23.152344 -12.78125 23.140625 -12.769531 C 23.128906 -12.757812 23.121094 -12.75 23.113281 -12.738281 C 23.121094 -12.75 23.128906 -12.765625 23.136719 -12.792969 C 23.183594 -12.933594 23.207031 -13.136719 23.207031 -13.398438 L 23.207031 -42.09375 C 23.207031 -42.355469 23.183594 -42.554688 23.136719 -42.699219 C 23.128906 -42.722656 23.121094 -42.742188 23.113281 -42.75 C 23.121094 -42.742188 23.128906 -42.730469 23.140625 -42.71875 C 23.152344 -42.707031 23.160156 -42.699219 23.171875 -42.695312 C 23.160156 -42.699219 23.144531 -42.707031 23.117188 -42.714844 C 22.976562 -42.765625 22.773438 -42.789062 22.511719 -42.789062 L 17.441406 -42.789062 C 17.179688 -42.789062 16.976562 -42.765625 16.835938 -42.714844 C 16.808594 -42.707031 16.792969 -42.699219 16.78125 -42.695312 C 16.792969 -42.699219 16.800781 -42.707031 16.8125 -42.71875 C 16.824219 -42.730469 16.832031 -42.742188 16.839844 -42.75 C 16.832031 -42.742188 16.828125 -42.722656 16.816406 -42.699219 C 16.769531 -42.554688 16.746094 -42.355469 16.746094 -42.09375 L 16.746094 -13.398438 C 16.746094 -13.136719 16.769531 -12.933594 16.816406 -12.792969 C 16.828125 -12.765625 16.832031 -12.75 16.839844 -12.738281 C 16.832031 -12.75 16.824219 -12.757812 16.8125 -12.769531 C 16.800781 -12.78125 16.792969 -12.789062 16.78125 -12.796875 C 16.792969 -12.789062 16.808594 -12.785156 16.835938 -12.773438 C 16.976562 -12.726562 17.179688 -12.703125 17.441406 -12.703125 Z M 17.441406 -7.75 C 15.699219 -7.75 14.324219 -8.253906 13.308594 -9.265625 C 12.296875 -10.28125 11.792969 -11.65625 11.792969 -13.398438 L 11.792969 -42.09375 C 11.792969 -43.835938 12.296875 -45.210938 13.308594 -46.222656 C 14.324219 -47.234375 15.699219 -47.742188 17.441406 -47.742188 L 22.511719 -47.742188 C 24.253906 -47.742188 25.632812 -47.234375 26.644531 -46.222656 C 27.65625 -45.210938 28.160156 -43.835938 28.160156 -42.09375 L 28.160156 -13.398438 C 28.160156 -11.65625 27.65625 -10.28125 26.644531 -9.265625 C 25.632812 -8.253906 24.253906 -7.75 22.511719 -7.75 Z M 17.441406 -7.75 "/></g></g><g style="fill:#b21a22;fill-opacity:1;"><g transform="translate(125.733535, 273.906482)"><path style="stroke:none" d="M 1.484375 -11.414062 L 1.484375 -44.074219 C 1.484375 -48.519531 2.710938 -51.945312 5.15625 -54.359375 C 7.59375 -56.765625 11.003906 -57.96875 15.378906 -57.96875 L 24.257812 -57.96875 C 28.695312 -57.96875 32.117188 -56.761719 34.53125 -54.347656 C 36.945312 -51.9375 38.148438 -48.511719 38.148438 -44.074219 L 38.148438 -11.414062 C 38.148438 -7.039062 36.949219 -3.632812 34.542969 -1.191406 C 32.128906 1.253906 28.699219 2.476562 24.257812 2.476562 L 15.378906 2.476562 C 10.996094 2.476562 7.585938 1.257812 5.144531 -1.179688 C 2.707031 -3.621094 1.484375 -7.03125 1.484375 -11.414062 Z M 6.441406 -11.414062 C 6.441406 -8.398438 7.175781 -6.15625 8.648438 -4.683594 C 10.121094 -3.214844 12.363281 -2.476562 15.378906 -2.476562 L 24.257812 -2.476562 C 27.320312 -2.476562 29.570312 -3.210938 31.015625 -4.671875 C 32.46875 -6.144531 33.195312 -8.394531 33.195312 -11.414062 L 33.195312 -44.074219 C 33.195312 -47.144531 32.472656 -49.402344 31.027344 -50.847656 C 29.582031 -52.289062 27.324219 -53.011719 24.257812 -53.011719 L 15.378906 -53.011719 C 12.355469 -53.011719 10.109375 -52.285156 8.636719 -50.832031 C 7.171875 -49.390625 6.441406 -47.136719 6.441406 -44.074219 Z M 17.441406 -12.703125 L 22.511719 -12.703125 C 22.773438 -12.703125 22.976562 -12.726562 23.117188 -12.773438 C 23.144531 -12.785156 23.160156 -12.789062 23.171875 -12.796875 C 23.160156 -12.789062 23.152344 -12.78125 23.140625 -12.769531 C 23.128906 -12.757812 23.121094 -12.75 23.113281 -12.738281 C 23.121094 -12.75 23.128906 -12.765625 23.136719 -12.792969 C 23.183594 -12.933594 23.207031 -13.136719 23.207031 -13.398438 L 23.207031 -42.09375 C 23.207031 -42.355469 23.183594 -42.554688 23.136719 -42.699219 C 23.128906 -42.722656 23.121094 -42.742188 23.113281 -42.75 C 23.121094 -42.742188 23.128906 -42.730469 23.140625 -42.71875 C 23.152344 -42.707031 23.160156 -42.699219 23.171875 -42.695312 C 23.160156 -42.699219 23.144531 -42.707031 23.117188 -42.714844 C 22.976562 -42.765625 22.773438 -42.789062 22.511719 -42.789062 L 17.441406 -42.789062 C 17.179688 -42.789062 16.976562 -42.765625 16.835938 -42.714844 C 16.808594 -42.707031 16.792969 -42.699219 16.78125 -42.695312 C 16.792969 -42.699219 16.800781 -42.707031 16.8125 -42.71875 C 16.824219 -42.730469 16.832031 -42.742188 16.839844 -42.75 C 16.832031 -42.742188 16.828125 -42.722656 16.816406 -42.699219 C 16.769531 -42.554688 16.746094 -42.355469 16.746094 -42.09375 L 16.746094 -13.398438 C 16.746094 -13.136719 16.769531 -12.933594 16.816406 -12.792969 C 16.828125 -12.765625 16.832031 -12.75 16.839844 -12.738281 C 16.832031 -12.75 16.824219 -12.757812 16.8125 -12.769531 C 16.800781 -12.78125 16.792969 -12.789062 16.78125 -12.796875 C 16.792969 -12.789062 16.808594 -12.785156 16.835938 -12.773438 C 16.976562 -12.726562 17.179688 -12.703125 17.441406 -12.703125 Z M 17.441406 -7.75 C 15.699219 -7.75 14.324219 -8.253906 13.308594 -9.265625 C 12.296875 -10.28125 11.792969 -11.65625 11.792969 -13.398438 L 11.792969 -42.09375 C 11.792969 -43.835938 12.296875 -45.210938 13.308594 -46.222656 C 14.324219 -47.234375 15.699219 -47.742188 17.441406 -47.742188 L 22.511719 -47.742188 C 24.253906 -47.742188 25.632812 -47.234375 26.644531 -46.222656 C 27.65625 -45.210938 28.160156 -43.835938 28.160156 -42.09375 L 28.160156 -13.398438 C 28.160156 -11.65625 27.65625 -10.28125 26.644531 -9.265625 C 25.632812 -8.253906 24.253906 -7.75 22.511719 -7.75 Z M 17.441406 -7.75 "/></g></g><g style="fill:#b21a22;fill-opacity:1;"><g transform="translate(165.357472, 273.906482)"><path style="stroke:none" d="M 12.265625 -10.464844 L 12.265625 -54.222656 C 12.265625 -54.167969 12.285156 -54.089844 12.316406 -53.996094 C 12.386719 -53.78125 12.503906 -53.59375 12.675781 -53.421875 C 12.847656 -53.253906 13.035156 -53.132812 13.246094 -53.0625 C 13.34375 -53.03125 13.417969 -53.011719 13.476562 -53.011719 L 5.230469 -53.011719 C 5.289062 -53.011719 5.363281 -53.03125 5.460938 -53.0625 C 5.671875 -53.132812 5.863281 -53.253906 6.03125 -53.421875 C 6.203125 -53.59375 6.324219 -53.78125 6.394531 -53.996094 C 6.425781 -54.089844 6.441406 -54.167969 6.441406 -54.222656 L 6.441406 -1.269531 C 6.441406 -1.324219 6.425781 -1.402344 6.394531 -1.496094 C 6.324219 -1.707031 6.203125 -1.898438 6.03125 -2.070312 C 5.863281 -2.238281 5.671875 -2.359375 5.460938 -2.429688 C 5.363281 -2.460938 5.289062 -2.476562 5.230469 -2.476562 L 30.441406 -2.476562 C 30.382812 -2.476562 30.308594 -2.460938 30.210938 -2.429688 C 30 -2.359375 29.808594 -2.238281 29.640625 -2.070312 C 29.46875 -1.898438 29.351562 -1.707031 29.28125 -1.496094 C 29.246094 -1.402344 29.230469 -1.324219 29.230469 -1.269531 L 29.230469 -9.195312 C 29.230469 -9.140625 29.246094 -9.0625 29.28125 -8.96875 C 29.351562 -8.753906 29.46875 -8.566406 29.640625 -8.394531 C 29.808594 -8.226562 30 -8.105469 30.210938 -8.035156 C 30.308594 -8.003906 30.382812 -7.988281 30.441406 -7.988281 L 12.265625 -7.988281 Z M 17.222656 -10.464844 L 14.746094 -10.464844 L 14.746094 -12.941406 L 30.441406 -12.941406 C 31.546875 -12.941406 32.449219 -12.59375 33.144531 -11.898438 C 33.839844 -11.203125 34.1875 -10.300781 34.1875 -9.195312 L 34.1875 -1.269531 C 34.1875 -0.160156 33.839844 0.738281 33.144531 1.433594 C 32.449219 2.128906 31.546875 2.476562 30.441406 2.476562 L 5.230469 2.476562 C 4.125 2.476562 3.222656 2.128906 2.527344 1.433594 C 1.832031 0.738281 1.484375 -0.160156 1.484375 -1.269531 L 1.484375 -54.222656 C 1.484375 -55.328125 1.832031 -56.230469 2.527344 -56.925781 C 3.222656 -57.621094 4.125 -57.96875 5.230469 -57.96875 L 13.476562 -57.96875 C 14.582031 -57.96875 15.484375 -57.621094 16.179688 -56.925781 C 16.875 -56.230469 17.222656 -55.328125 17.222656 -54.222656 Z M 17.222656 -10.464844 "/></g></g><g style="fill:#b21a22;fill-opacity:1;"><g transform="translate(201.019012, 273.906482)"><path style="stroke:none" d="M 38.230469 -44.074219 L 38.230469 -33.375 C 38.230469 -31.234375 37.527344 -29.425781 36.125 -27.945312 C 34.800781 -26.550781 33.164062 -25.671875 31.210938 -25.308594 L 30.757812 -27.746094 L 33.234375 -27.746094 L 33.234375 -27.585938 L 30.757812 -27.585938 L 31.121094 -30.039062 C 33.125 -29.742188 34.800781 -28.863281 36.144531 -27.40625 C 37.535156 -25.898438 38.230469 -24.085938 38.230469 -21.957031 L 38.230469 -11.414062 C 38.230469 -7.03125 37.011719 -3.621094 34.570312 -1.179688 C 32.132812 1.257812 28.695312 2.476562 24.257812 2.476562 L 5.230469 2.476562 C 4.125 2.476562 3.222656 2.128906 2.527344 1.433594 C 1.832031 0.738281 1.484375 -0.160156 1.484375 -1.269531 L 1.484375 -54.222656 C 1.484375 -55.328125 1.832031 -56.230469 2.527344 -56.925781 C 3.222656 -57.621094 4.125 -57.96875 5.230469 -57.96875 L 24.257812 -57.96875 C 28.6875 -57.96875 32.121094 -56.765625 34.558594 -54.359375 C 37.007812 -51.945312 38.230469 -48.519531 38.230469 -44.074219 Z M 33.273438 -44.074219 C 33.273438 -47.136719 32.542969 -49.390625 31.078125 -50.832031 C 29.605469 -52.285156 27.332031 -53.011719 24.257812 -53.011719 L 5.230469 -53.011719 C 5.289062 -53.011719 5.363281 -53.03125 5.460938 -53.0625 C 5.671875 -53.132812 5.863281 -53.253906 6.03125 -53.421875 C 6.203125 -53.59375 6.324219 -53.78125 6.394531 -53.996094 C 6.425781 -54.089844 6.441406 -54.167969 6.441406 -54.222656 L 6.441406 -1.269531 C 6.441406 -1.324219 6.425781 -1.402344 6.394531 -1.496094 C 6.324219 -1.707031 6.203125 -1.898438 6.03125 -2.070312 C 5.863281 -2.238281 5.671875 -2.359375 5.460938 -2.429688 C 5.363281 -2.460938 5.289062 -2.476562 5.230469 -2.476562 L 24.257812 -2.476562 C 27.324219 -2.476562 29.59375 -3.214844 31.066406 -4.683594 C 32.539062 -6.15625 33.273438 -8.398438 33.273438 -11.414062 L 33.273438 -21.957031 C 33.273438 -22.792969 33.019531 -23.488281 32.503906 -24.042969 C 31.949219 -24.644531 31.246094 -25.011719 30.394531 -25.136719 L 28.28125 -25.449219 L 28.28125 -29.804688 L 30.308594 -30.179688 C 31.207031 -30.347656 31.945312 -30.738281 32.527344 -31.351562 C 33.023438 -31.878906 33.273438 -32.550781 33.273438 -33.375 Z M 23.207031 -35.988281 L 23.207031 -42.332031 C 23.207031 -42.59375 23.183594 -42.792969 23.136719 -42.9375 C 23.128906 -42.960938 23.121094 -42.980469 23.113281 -42.988281 C 23.121094 -42.980469 23.128906 -42.96875 23.140625 -42.957031 C 23.152344 -42.945312 23.160156 -42.9375 23.171875 -42.933594 C 23.160156 -42.9375 23.144531 -42.945312 23.117188 -42.953125 C 22.976562 -43 22.773438 -43.023438 22.511719 -43.023438 L 13.792969 -43.023438 L 13.792969 -45.503906 L 16.269531 -45.503906 L 16.269531 -32.898438 L 13.792969 -32.898438 L 13.792969 -35.375 L 22.511719 -35.375 C 22.78125 -35.375 22.988281 -35.398438 23.136719 -35.449219 C 23.164062 -35.457031 23.183594 -35.464844 23.195312 -35.472656 C 23.1875 -35.464844 23.175781 -35.457031 23.164062 -35.445312 C 23.148438 -35.429688 23.136719 -35.417969 23.128906 -35.40625 C 23.132812 -35.410156 23.136719 -35.417969 23.140625 -35.4375 C 23.183594 -35.566406 23.207031 -35.75 23.207031 -35.988281 Z M 28.160156 -35.988281 C 28.160156 -34.261719 27.648438 -32.898438 26.621094 -31.898438 C 25.613281 -30.914062 24.242188 -30.421875 22.511719 -30.421875 L 11.316406 -30.421875 L 11.316406 -47.980469 L 22.511719 -47.980469 C 24.253906 -47.980469 25.632812 -47.472656 26.644531 -46.460938 C 27.65625 -45.449219 28.160156 -44.074219 28.160156 -42.332031 Z M 23.207031 -13.160156 L 23.207031 -19.261719 C 23.207031 -19.523438 23.183594 -19.726562 23.136719 -19.867188 C 23.128906 -19.894531 23.121094 -19.910156 23.113281 -19.921875 C 23.121094 -19.910156 23.128906 -19.902344 23.140625 -19.890625 C 23.152344 -19.878906 23.160156 -19.871094 23.171875 -19.863281 C 23.160156 -19.871094 23.144531 -19.878906 23.117188 -19.886719 C 22.976562 -19.933594 22.773438 -19.957031 22.511719 -19.957031 L 13.792969 -19.957031 L 13.792969 -22.433594 L 16.269531 -22.433594 L 16.269531 -9.988281 L 13.792969 -9.988281 L 13.792969 -12.464844 L 22.511719 -12.464844 C 22.773438 -12.464844 22.976562 -12.488281 23.117188 -12.535156 C 23.144531 -12.546875 23.160156 -12.554688 23.171875 -12.558594 C 23.160156 -12.554688 23.152344 -12.542969 23.140625 -12.53125 C 23.128906 -12.519531 23.121094 -12.511719 23.113281 -12.5 C 23.121094 -12.511719 23.128906 -12.527344 23.136719 -12.554688 C 23.183594 -12.699219 23.207031 -12.898438 23.207031 -13.160156 Z M 28.160156 -13.160156 C 28.160156 -11.417969 27.65625 -10.042969 26.644531 -9.027344 C 25.632812 -8.015625 24.253906 -7.511719 22.511719 -7.511719 L 11.316406 -7.511719 L 11.316406 -24.910156 L 22.511719 -24.910156 C 24.253906 -24.910156 25.632812 -24.40625 26.644531 -23.394531 C 27.65625 -22.382812 28.160156 -21.003906 28.160156 -19.261719 Z M 28.160156 -13.160156 "/></g></g><g style="fill:#b21a22;fill-opacity:1;"><g transform="translate(240.72221, 273.906482)"><path style="stroke:none" d="M 41.378906 2.476562 L 33.691406 2.476562 C 32.726562 2.476562 31.90625 2.179688 31.226562 1.585938 C 30.601562 1.042969 30.195312 0.316406 30 -0.589844 L 32.421875 -1.109375 L 30.019531 -0.5 L 27.484375 -10.488281 L 29.886719 -11.097656 L 29.886719 -8.621094 L 14.984375 -8.621094 L 14.984375 -11.097656 L 17.386719 -10.507812 L 14.929688 -0.519531 L 12.523438 -1.109375 L 14.949219 -0.589844 C 14.753906 0.316406 14.34375 1.042969 13.71875 1.585938 C 13.042969 2.179688 12.222656 2.476562 11.257812 2.476562 L 3.488281 2.476562 C 2.195312 2.476562 1.214844 2.039062 0.550781 1.167969 C -0.132812 0.277344 -0.289062 -0.792969 0.0820312 -2.046875 L 2.457031 -1.347656 L 0.0546875 -1.945312 L 13.210938 -54.976562 L 15.617188 -54.382812 L 13.195312 -54.898438 C 13.394531 -55.832031 13.828125 -56.574219 14.496094 -57.125 C 15.179688 -57.6875 16 -57.96875 16.964844 -57.96875 L 27.984375 -57.96875 C 28.945312 -57.96875 29.769531 -57.6875 30.449219 -57.125 C 31.117188 -56.574219 31.554688 -55.832031 31.753906 -54.898438 L 29.332031 -54.382812 L 31.734375 -54.976562 L 44.894531 -1.945312 L 42.492188 -1.347656 L 44.867188 -2.046875 C 45.246094 -0.757812 45.066406 0.335938 44.324219 1.238281 C 43.644531 2.0625 42.660156 2.476562 41.378906 2.476562 Z M 41.378906 -2.476562 C 41.394531 -2.476562 41.402344 -2.476562 41.410156 -2.476562 C 41.410156 -2.476562 41.40625 -2.476562 41.402344 -2.476562 C 41.355469 -2.472656 41.304688 -2.457031 41.246094 -2.4375 C 40.960938 -2.347656 40.710938 -2.171875 40.5 -1.910156 C 40.261719 -1.621094 40.128906 -1.300781 40.101562 -0.953125 C 40.089844 -0.816406 40.09375 -0.714844 40.113281 -0.648438 L 40.097656 -0.699219 L 26.917969 -53.824219 L 26.910156 -53.863281 C 26.949219 -53.667969 27.082031 -53.480469 27.300781 -53.300781 C 27.53125 -53.109375 27.761719 -53.011719 27.984375 -53.011719 L 16.964844 -53.011719 C 17.1875 -53.011719 17.414062 -53.109375 17.648438 -53.300781 C 17.867188 -53.480469 17.996094 -53.667969 18.039062 -53.863281 L 18.03125 -53.824219 L 4.847656 -0.699219 L 4.835938 -0.648438 C 4.847656 -0.699219 4.851562 -0.785156 4.847656 -0.902344 C 4.828125 -1.238281 4.707031 -1.550781 4.484375 -1.84375 C 4.269531 -2.125 4.007812 -2.316406 3.699219 -2.425781 C 3.597656 -2.460938 3.527344 -2.476562 3.488281 -2.476562 L 11.257812 -2.476562 C 10.980469 -2.476562 10.714844 -2.367188 10.457031 -2.140625 C 10.257812 -1.964844 10.136719 -1.796875 10.101562 -1.628906 L 10.109375 -1.664062 L 13.039062 -13.574219 L 31.8125 -13.574219 L 34.835938 -1.675781 L 34.84375 -1.628906 C 34.808594 -1.796875 34.691406 -1.964844 34.488281 -2.140625 C 34.234375 -2.367188 33.96875 -2.476562 33.691406 -2.476562 Z M 25.015625 -19.734375 L 20.019531 -41.296875 L 22.433594 -41.855469 L 24.847656 -41.296875 L 19.855469 -19.734375 L 17.441406 -20.292969 L 17.441406 -22.769531 L 27.429688 -22.769531 L 27.429688 -20.292969 Z M 30.546875 -17.816406 L 14.324219 -17.816406 L 20.019531 -42.414062 L 24.847656 -42.414062 L 29.84375 -20.851562 Z M 30.546875 -17.816406 "/></g></g><g style="fill:#b21a22;fill-opacity:1;"><g transform="translate(285.655764, 273.906482)"><path style="stroke:none" d="M 38.148438 -44.074219 L 38.148438 -28.140625 C 38.148438 -22.628906 36.28125 -18.703125 32.546875 -16.371094 L 31.234375 -18.46875 L 33.640625 -19.054688 L 37.765625 -2.007812 L 35.355469 -1.425781 L 37.742188 -2.089844 C 38.097656 -0.8125 37.925781 0.269531 37.230469 1.164062 C 36.550781 2.039062 35.554688 2.476562 34.246094 2.476562 L 26.476562 2.476562 C 25.515625 2.476562 24.691406 2.195312 24.011719 1.636719 C 23.339844 1.085938 22.90625 0.34375 22.707031 -0.589844 L 25.128906 -1.109375 L 22.722656 -0.523438 L 18.917969 -16.140625 L 21.324219 -16.726562 L 21.324219 -14.25 L 14.269531 -14.25 L 14.269531 -16.726562 L 16.746094 -16.726562 L 16.746094 -1.269531 C 16.746094 -0.160156 16.398438 0.738281 15.703125 1.433594 C 15.007812 2.128906 14.109375 2.476562 13 2.476562 L 5.230469 2.476562 C 4.125 2.476562 3.222656 2.128906 2.527344 1.433594 C 1.832031 0.738281 1.484375 -0.160156 1.484375 -1.269531 L 1.484375 -54.222656 C 1.484375 -55.328125 1.832031 -56.230469 2.527344 -56.925781 C 3.222656 -57.621094 4.125 -57.96875 5.230469 -57.96875 L 24.257812 -57.96875 C 28.695312 -57.96875 32.117188 -56.761719 34.53125 -54.347656 C 36.945312 -51.9375 38.148438 -48.511719 38.148438 -44.074219 Z M 33.195312 -44.074219 C 33.195312 -47.144531 32.472656 -49.402344 31.027344 -50.847656 C 29.582031 -52.289062 27.324219 -53.011719 24.257812 -53.011719 L 5.230469 -53.011719 C 5.289062 -53.011719 5.363281 -53.03125 5.460938 -53.0625 C 5.671875 -53.132812 5.863281 -53.253906 6.03125 -53.421875 C 6.203125 -53.59375 6.324219 -53.78125 6.394531 -53.996094 C 6.425781 -54.089844 6.441406 -54.167969 6.441406 -54.222656 L 6.441406 -1.269531 C 6.441406 -1.324219 6.425781 -1.402344 6.394531 -1.496094 C 6.324219 -1.707031 6.203125 -1.898438 6.03125 -2.070312 C 5.863281 -2.238281 5.671875 -2.359375 5.460938 -2.429688 C 5.363281 -2.460938 5.289062 -2.476562 5.230469 -2.476562 L 13 -2.476562 C 12.945312 -2.476562 12.867188 -2.460938 12.773438 -2.429688 C 12.5625 -2.359375 12.371094 -2.238281 12.199219 -2.070312 C 12.03125 -1.898438 11.910156 -1.707031 11.839844 -1.496094 C 11.808594 -1.402344 11.792969 -1.324219 11.792969 -1.269531 L 11.792969 -19.203125 L 23.269531 -19.203125 L 27.542969 -1.664062 L 27.550781 -1.628906 C 27.511719 -1.820312 27.378906 -2.007812 27.160156 -2.191406 C 26.925781 -2.382812 26.699219 -2.476562 26.476562 -2.476562 L 34.246094 -2.476562 C 34.195312 -2.46875 34.136719 -2.453125 34.070312 -2.429688 C 33.777344 -2.328125 33.527344 -2.144531 33.320312 -1.878906 C 33.105469 -1.601562 32.988281 -1.304688 32.964844 -0.984375 C 32.957031 -0.878906 32.957031 -0.804688 32.96875 -0.765625 L 32.957031 -0.804688 L 28.40625 -19.625 L 29.921875 -20.570312 C 32.105469 -21.9375 33.195312 -24.460938 33.195312 -28.140625 Z M 14.269531 -29.429688 L 22.195312 -29.429688 C 22.457031 -29.429688 22.65625 -29.453125 22.800781 -29.5 C 22.828125 -29.511719 22.84375 -29.515625 22.855469 -29.523438 C 22.84375 -29.519531 22.835938 -29.507812 22.824219 -29.496094 C 22.8125 -29.484375 22.800781 -29.476562 22.796875 -29.464844 C 22.804688 -29.476562 22.808594 -29.492188 22.820312 -29.519531 C 22.867188 -29.660156 22.890625 -29.863281 22.890625 -30.125 L 22.890625 -42.09375 C 22.890625 -42.355469 22.867188 -42.554688 22.820312 -42.699219 C 22.808594 -42.722656 22.804688 -42.742188 22.796875 -42.75 C 22.800781 -42.742188 22.8125 -42.730469 22.824219 -42.71875 C 22.835938 -42.707031 22.84375 -42.699219 22.855469 -42.695312 C 22.84375 -42.699219 22.828125 -42.707031 22.800781 -42.714844 C 22.65625 -42.765625 22.457031 -42.789062 22.195312 -42.789062 L 14.269531 -42.789062 L 14.269531 -45.265625 L 16.746094 -45.265625 L 16.746094 -26.953125 L 14.269531 -26.953125 Z M 11.792969 -24.476562 L 11.792969 -47.742188 L 22.195312 -47.742188 C 23.9375 -47.742188 25.3125 -47.234375 26.328125 -46.222656 C 27.339844 -45.210938 27.84375 -43.835938 27.84375 -42.09375 L 27.84375 -30.125 C 27.84375 -28.382812 27.339844 -27.007812 26.328125 -25.992188 C 25.3125 -24.980469 23.9375 -24.476562 22.195312 -24.476562 Z M 11.792969 -24.476562 "/></g></g><g style="fill:#060705;fill-opacity:1;"><g transform="translate(92.293658, 163.386551)"><path style="stroke:none" d="M 35.671875 -44.078125 L 35.671875 -28.140625 C 35.671875 -23.546875 34.191406 -20.320312 31.234375 -18.46875 L 35.359375 -1.421875 C 35.617188 -0.472656 35.25 0 34.25 0 L 26.46875 0 C 25.726562 0 25.28125 -0.367188 25.125 -1.109375 L 21.328125 -16.71875 L 14.265625 -16.71875 L 14.265625 -1.265625 C 14.265625 -0.421875 13.84375 0 13 0 L 5.234375 0 C 4.390625 0 3.96875 -0.421875 3.96875 -1.265625 L 3.96875 -54.21875 C 3.96875 -55.0625 4.390625 -55.484375 5.234375 -55.484375 L 24.25 -55.484375 C 28.007812 -55.484375 30.851562 -54.519531 32.78125 -52.59375 C 34.707031 -50.664062 35.671875 -47.828125 35.671875 -44.078125 Z M 14.265625 -26.953125 L 22.1875 -26.953125 C 24.300781 -26.953125 25.359375 -28.007812 25.359375 -30.125 L 25.359375 -42.09375 C 25.359375 -44.207031 24.300781 -45.265625 22.1875 -45.265625 L 14.265625 -45.265625 Z M 14.265625 -26.953125 "/></g></g><g style="fill:#060705;fill-opacity:1;"><g transform="translate(131.917595, 163.386551)"><path style="stroke:none" d="M 41.375 0 L 33.6875 0 C 33 0 32.578125 -0.367188 32.421875 -1.109375 L 29.890625 -11.09375 L 14.984375 -11.09375 L 12.53125 -1.109375 C 12.363281 -0.367188 11.9375 0 11.25 0 L 3.484375 0 C 2.535156 0 2.191406 -0.445312 2.453125 -1.34375 L 15.609375 -54.375 C 15.773438 -55.113281 16.226562 -55.484375 16.96875 -55.484375 L 27.984375 -55.484375 C 28.722656 -55.484375 29.171875 -55.113281 29.328125 -54.375 L 42.484375 -1.34375 C 42.742188 -0.445312 42.375 0 41.375 0 Z M 27.421875 -20.296875 L 22.4375 -41.859375 L 17.4375 -20.296875 Z M 27.421875 -20.296875 "/></g></g><g style="fill:#060705;fill-opacity:1;"><g transform="translate(176.851149, 163.386551)"><path style="stroke:none" d="M 35.75 -44.078125 L 35.75 -35.515625 C 35.75 -34.671875 35.328125 -34.25 34.484375 -34.25 L 27.03125 -34.25 C 26.1875 -34.25 25.765625 -34.671875 25.765625 -35.515625 L 25.765625 -42.015625 C 25.765625 -44.128906 24.707031 -45.1875 22.59375 -45.1875 L 17.515625 -45.1875 C 15.398438 -45.1875 14.34375 -44.128906 14.34375 -42.015625 L 14.34375 -13.234375 C 14.34375 -11.117188 15.398438 -10.0625 17.515625 -10.0625 L 22.59375 -10.0625 C 24.707031 -10.0625 25.765625 -11.117188 25.765625 -13.234375 L 25.765625 -19.96875 C 25.765625 -20.820312 26.1875 -21.25 27.03125 -21.25 L 34.484375 -21.25 C 35.328125 -21.25 35.75 -20.820312 35.75 -19.96875 L 35.75 -11.421875 C 35.75 -7.710938 34.769531 -4.878906 32.8125 -2.921875 C 30.863281 -0.972656 28.035156 0 24.328125 0 L 15.453125 0 C 11.753906 0 8.914062 -0.972656 6.9375 -2.921875 C 4.957031 -4.878906 3.96875 -7.710938 3.96875 -11.421875 L 3.96875 -44.078125 C 3.96875 -47.828125 4.957031 -50.664062 6.9375 -52.59375 C 8.914062 -54.519531 11.753906 -55.484375 15.453125 -55.484375 L 24.328125 -55.484375 C 28.035156 -55.484375 30.863281 -54.519531 32.8125 -52.59375 C 34.769531 -50.664062 35.75 -47.828125 35.75 -44.078125 Z M 35.75 -44.078125 "/></g></g><g style="fill:#060705;fill-opacity:1;"><g transform="translate(216.554347, 163.386551)"><path style="stroke:none" d="M 37.890625 0 L 29.484375 0 C 28.691406 0 28.082031 -0.394531 27.65625 -1.1875 L 17.671875 -20.765625 L 14.75 -15.140625 L 14.75 -1.578125 C 14.75 -0.523438 14.21875 0 13.15625 0 L 5.546875 0 C 4.492188 0 3.96875 -0.523438 3.96875 -1.578125 L 3.96875 -53.90625 C 3.96875 -54.957031 4.492188 -55.484375 5.546875 -55.484375 L 13.15625 -55.484375 C 14.21875 -55.484375 14.75 -54.957031 14.75 -53.90625 L 14.75 -33.296875 L 26.953125 -54.296875 C 27.367188 -55.085938 27.972656 -55.484375 28.765625 -55.484375 L 37.09375 -55.484375 C 37.675781 -55.484375 38.085938 -55.296875 38.328125 -54.921875 C 38.566406 -54.554688 38.523438 -54.109375 38.203125 -53.578125 L 24.734375 -29.890625 L 39.078125 -1.828125 C 39.335938 -1.296875 39.363281 -0.859375 39.15625 -0.515625 C 38.945312 -0.171875 38.523438 0 37.890625 0 Z M 37.890625 0 "/></g></g><g style="fill:#060705;fill-opacity:1;"><g transform="translate(259.031214, 163.386551)"><path style="stroke:none" d="M 3.96875 -24.890625 L 3.96875 -32.1875 C 3.96875 -33.238281 4.492188 -33.765625 5.546875 -33.765625 L 18.078125 -33.765625 C 19.128906 -33.765625 19.65625 -33.238281 19.65625 -32.1875 L 19.65625 -24.890625 C 19.65625 -23.828125 19.128906 -23.296875 18.078125 -23.296875 L 5.546875 -23.296875 C 4.492188 -23.296875 3.96875 -23.828125 3.96875 -24.890625 Z M 3.96875 -24.890625 "/></g></g><g style="fill:#060705;fill-opacity:1;"><g transform="translate(49.655571, 273.906482)"><path style="stroke:none" d="M 32.8125 -55.484375 L 3.640625 -55.484375 C 2.796875 -55.484375 2.375 -55.0625 2.375 -54.21875 L 2.375 -46.296875 C 2.375 -45.441406 2.796875 -45.015625 3.640625 -45.015625 L 12.84375 -45.015625 L 12.84375 -1.265625 C 12.84375 -0.421875 13.265625 0 14.109375 0 L 22.359375 0 C 23.203125 0 23.625 -0.421875 23.625 -1.265625 L 23.625 -45.015625 L 32.8125 -45.015625 C 33.65625 -45.015625 34.078125 -45.441406 34.078125 -46.296875 L 34.078125 -54.21875 C 34.078125 -55.0625 33.65625 -55.484375 32.8125 -55.484375 Z M 32.8125 -55.484375 "/></g></g><g style="fill:#060705;fill-opacity:1;"><g transform="translate(86.109597, 273.906482)"><path style="stroke:none" d="M 3.96875 -11.421875 L 3.96875 -44.078125 C 3.96875 -47.828125 4.941406 -50.664062 6.890625 -52.59375 C 8.847656 -54.519531 11.675781 -55.484375 15.375 -55.484375 L 24.25 -55.484375 C 28.007812 -55.484375 30.851562 -54.519531 32.78125 -52.59375 C 34.707031 -50.664062 35.671875 -47.828125 35.671875 -44.078125 L 35.671875 -11.421875 C 35.671875 -7.710938 34.707031 -4.878906 32.78125 -2.921875 C 30.851562 -0.972656 28.007812 0 24.25 0 L 15.375 0 C 11.675781 0 8.847656 -0.972656 6.890625 -2.921875 C 4.941406 -4.878906 3.96875 -7.710938 3.96875 -11.421875 Z M 17.4375 -10.21875 L 22.515625 -10.21875 C 24.628906 -10.21875 25.6875 -11.273438 25.6875 -13.390625 L 25.6875 -42.09375 C 25.6875 -44.207031 24.628906 -45.265625 22.515625 -45.265625 L 17.4375 -45.265625 C 15.320312 -45.265625 14.265625 -44.207031 14.265625 -42.09375 L 14.265625 -13.390625 C 14.265625 -11.273438 15.320312 -10.21875 17.4375 -10.21875 Z M 17.4375 -10.21875 "/></g></g><g style="fill:#060705;fill-opacity:1;"><g transform="translate(125.733535, 273.906482)"><path style="stroke:none" d="M 3.96875 -11.421875 L 3.96875 -44.078125 C 3.96875 -47.828125 4.941406 -50.664062 6.890625 -52.59375 C 8.847656 -54.519531 11.675781 -55.484375 15.375 -55.484375 L 24.25 -55.484375 C 28.007812 -55.484375 30.851562 -54.519531 32.78125 -52.59375 C 34.707031 -50.664062 35.671875 -47.828125 35.671875 -44.078125 L 35.671875 -11.421875 C 35.671875 -7.710938 34.707031 -4.878906 32.78125 -2.921875 C 30.851562 -0.972656 28.007812 0 24.25 0 L 15.375 0 C 11.675781 0 8.847656 -0.972656 6.890625 -2.921875 C 4.941406 -4.878906 3.96875 -7.710938 3.96875 -11.421875 Z M 17.4375 -10.21875 L 22.515625 -10.21875 C 24.628906 -10.21875 25.6875 -11.273438 25.6875 -13.390625 L 25.6875 -42.09375 C 25.6875 -44.207031 24.628906 -45.265625 22.515625 -45.265625 L 17.4375 -45.265625 C 15.320312 -45.265625 14.265625 -44.207031 14.265625 -42.09375 L 14.265625 -13.390625 C 14.265625 -11.273438 15.320312 -10.21875 17.4375 -10.21875 Z M 17.4375 -10.21875 "/></g></g><g style="fill:#060705;fill-opacity:1;"><g transform="translate(165.357472, 273.906482)"><path style="stroke:none" d="M 14.75 -10.46875 L 14.75 -54.21875 C 14.75 -55.0625 14.320312 -55.484375 13.46875 -55.484375 L 5.234375 -55.484375 C 4.390625 -55.484375 3.96875 -55.0625 3.96875 -54.21875 L 3.96875 -1.265625 C 3.96875 -0.421875 4.390625 0 5.234375 0 L 30.4375 0 C 31.28125 0 31.703125 -0.421875 31.703125 -1.265625 L 31.703125 -9.1875 C 31.703125 -10.039062 31.28125 -10.46875 30.4375 -10.46875 Z M 14.75 -10.46875 "/></g></g><g style="fill:#060705;fill-opacity:1;"><g transform="translate(201.019012, 273.906482)"><path style="stroke:none" d="M 35.75 -44.078125 L 35.75 -33.375 C 35.75 -31.894531 35.269531 -30.648438 34.3125 -29.640625 C 33.363281 -28.640625 32.175781 -28.007812 30.75 -27.75 L 30.75 -27.578125 C 32.175781 -27.367188 33.363281 -26.75 34.3125 -25.71875 C 35.269531 -24.6875 35.75 -23.429688 35.75 -21.953125 L 35.75 -11.421875 C 35.75 -7.710938 34.769531 -4.878906 32.8125 -2.921875 C 30.863281 -0.972656 28.007812 0 24.25 0 L 5.234375 0 C 4.390625 0 3.96875 -0.421875 3.96875 -1.265625 L 3.96875 -54.21875 C 3.96875 -55.0625 4.390625 -55.484375 5.234375 -55.484375 L 24.25 -55.484375 C 28.007812 -55.484375 30.863281 -54.519531 32.8125 -52.59375 C 34.769531 -50.664062 35.75 -47.828125 35.75 -44.078125 Z M 25.6875 -35.984375 L 25.6875 -42.328125 C 25.6875 -44.441406 24.628906 -45.5 22.515625 -45.5 L 13.796875 -45.5 L 13.796875 -32.890625 L 22.515625 -32.890625 C 24.628906 -32.890625 25.6875 -33.921875 25.6875 -35.984375 Z M 25.6875 -13.15625 L 25.6875 -19.265625 C 25.6875 -21.378906 24.628906 -22.4375 22.515625 -22.4375 L 13.796875 -22.4375 L 13.796875 -9.984375 L 22.515625 -9.984375 C 24.628906 -9.984375 25.6875 -11.039062 25.6875 -13.15625 Z M 25.6875 -13.15625 "/></g></g><g style="fill:#060705;fill-opacity:1;"><g transform="translate(240.72221, 273.906482)"><path style="stroke:none" d="M 41.375 0 L 33.6875 0 C 33 0 32.578125 -0.367188 32.421875 -1.109375 L 29.890625 -11.09375 L 14.984375 -11.09375 L 12.53125 -1.109375 C 12.363281 -0.367188 11.9375 0 11.25 0 L 3.484375 0 C 2.535156 0 2.191406 -0.445312 2.453125 -1.34375 L 15.609375 -54.375 C 15.773438 -55.113281 16.226562 -55.484375 16.96875 -55.484375 L 27.984375 -55.484375 C 28.722656 -55.484375 29.171875 -55.113281 29.328125 -54.375 L 42.484375 -1.34375 C 42.742188 -0.445312 42.375 0 41.375 0 Z M 27.421875 -20.296875 L 22.4375 -41.859375 L 17.4375 -20.296875 Z M 27.421875 -20.296875 "/></g></g><g style="fill:#060705;fill-opacity:1;"><g transform="translate(285.655764, 273.906482)"><path style="stroke:none" d="M 35.671875 -44.078125 L 35.671875 -28.140625 C 35.671875 -23.546875 34.191406 -20.320312 31.234375 -18.46875 L 35.359375 -1.421875 C 35.617188 -0.472656 35.25 0 34.25 0 L 26.46875 0 C 25.726562 0 25.28125 -0.367188 25.125 -1.109375 L 21.328125 -16.71875 L 14.265625 -16.71875 L 14.265625 -1.265625 C 14.265625 -0.421875 13.84375 0 13 0 L 5.234375 0 C 4.390625 0 3.96875 -0.421875 3.96875 -1.265625 L 3.96875 -54.21875 C 3.96875 -55.0625 4.390625 -55.484375 5.234375 -55.484375 L 24.25 -55.484375 C 28.007812 -55.484375 30.851562 -54.519531 32.78125 -52.59375 C 34.707031 -50.664062 35.671875 -47.828125 35.671875 -44.078125 Z M 14.265625 -26.953125 L 22.1875 -26.953125 C 24.300781 -26.953125 25.359375 -28.007812 25.359375 -30.125 L 25.359375 -42.09375 C 25.359375 -44.207031 24.300781 -45.265625 22.1875 -45.265625 L 14.265625 -45.265625 Z M 14.265625 -26.953125 "/></g></g></g></svg>