<svg xmlns="http://www.w3.org/2000/svg" xmlns:xlink="http://www.w3.org/1999/xlink" width="192" zoomAndPan="magnify" viewBox="0 0 144 143.999998" height="192" preserveAspectRatio="xMidYMid meet" version="1.2"><defs><clipPath id="b660376247"><path d="M 9 0 L 135 0 L 135 144 L 9 144 Z M 9 0 "/></clipPath><clipPath id="ae08c92bd2"><path d="M -21.457031 54.867188 L 103.039062 -17.847656 L 165.503906 89.105469 L 41.007812 161.816406 Z M -21.457031 54.867188 "/></clipPath><clipPath id="ebe92e37e3"><path d="M 134.226562 35.65625 L 134.347656 107.300781 L 72.121094 143.644531 L 9.773438 108.34375 L 9.65625 36.695312 L 71.878906 0.351562 Z M 134.226562 35.65625 "/></clipPath><clipPath id="95c79465d4"><path d="M 21.210938 13.683594 L 122.773438 13.683594 L 122.773438 130.261719 L 21.210938 130.261719 Z M 21.210938 13.683594 "/></clipPath></defs><g id="a2ac630272"><g clip-rule="nonzero" clip-path="url(#b660376247)"><g clip-rule="nonzero" clip-path="url(#ae08c92bd2)"><g clip-rule="nonzero" clip-path="url(#ebe92e37e3)"><path style=" stroke:none;fill-rule:nonzero;fill:#65b30e;fill-opacity:1;" d="M -21.457031 54.867188 L 103.039062 -17.847656 L 165.503906 89.105469 L 41.007812 161.816406 Z M -21.457031 54.867188 "/></g></g></g><path style=" stroke:none;fill-rule:nonzero;fill:#87ff00;fill-opacity:1;" d="M 51.679688 52.109375 L 51.613281 52.046875 L 37.261719 66.398438 L 72.113281 101.183594 L 86.46875 86.898438 L 106.960938 66.398438 L 92.609375 52.046875 L 92.609375 51.980469 L 51.617188 51.980469 Z M 51.679688 52.109375 "/><g clip-rule="nonzero" clip-path="url(#95c79465d4)"><path style=" stroke:none;fill-rule:nonzero;fill:#87ff00;fill-opacity:1;" d="M 71.980469 13.765625 L 21.222656 42.863281 L 21.226562 101.058594 L 71.984375 130.15625 L 122.742188 101.058594 L 122.742188 42.863281 L 71.984375 13.769531 Z M 113.039062 95.496094 L 71.980469 119.160156 L 30.921875 95.496094 L 30.925781 48.292969 L 71.984375 24.628906 L 113.042969 48.292969 L 113.042969 95.492188 Z M 113.039062 95.496094 "/></g><g style="fill:#b21a22;fill-opacity:1;"><g transform="translate(22.356537, 62.284965)"><path style="stroke:none" d="M 15.449219 -21.957031 L 15.449219 -18.746094 C 15.449219 -18.296875 15.308594 -17.933594 15.027344 -17.652344 C 14.746094 -17.371094 14.378906 -17.230469 13.929688 -17.230469 L 5.96875 -17.230469 L 5.96875 -18.234375 L 6.972656 -18.234375 L 6.972656 -12.742188 L 5.96875 -12.742188 L 5.96875 -13.746094 L 12.003906 -13.746094 C 12.453125 -13.746094 12.816406 -13.605469 13.101562 -13.324219 C 13.382812 -13.042969 13.523438 -12.679688 13.523438 -12.230469 L 13.523438 -9.019531 C 13.523438 -8.570312 13.382812 -8.207031 13.101562 -7.925781 C 12.816406 -7.644531 12.453125 -7.503906 12.003906 -7.503906 L 5.96875 -7.503906 L 5.96875 -8.507812 L 6.972656 -8.507812 L 6.972656 -0.511719 C 6.972656 -0.0664062 6.832031 0.300781 6.550781 0.582031 C 6.269531 0.863281 5.90625 1.003906 5.457031 1.003906 L 2.117188 1.003906 C 1.671875 1.003906 1.304688 0.863281 1.023438 0.582031 C 0.742188 0.300781 0.601562 -0.0664062 0.601562 -0.511719 L 0.601562 -21.957031 C 0.601562 -22.402344 0.742188 -22.769531 1.023438 -23.050781 C 1.304688 -23.332031 1.671875 -23.472656 2.117188 -23.472656 L 13.929688 -23.472656 C 14.378906 -23.472656 14.746094 -23.332031 15.027344 -23.050781 C 15.308594 -22.769531 15.449219 -22.402344 15.449219 -21.957031 Z M 13.441406 -21.957031 C 13.441406 -21.933594 13.449219 -21.902344 13.460938 -21.863281 C 13.488281 -21.777344 13.539062 -21.699219 13.605469 -21.632812 C 13.675781 -21.5625 13.753906 -21.515625 13.839844 -21.484375 C 13.878906 -21.472656 13.90625 -21.464844 13.929688 -21.464844 L 2.117188 -21.464844 C 2.140625 -21.464844 2.171875 -21.472656 2.210938 -21.484375 C 2.296875 -21.515625 2.375 -21.5625 2.441406 -21.632812 C 2.511719 -21.699219 2.558594 -21.777344 2.589844 -21.863281 C 2.601562 -21.902344 2.609375 -21.933594 2.609375 -21.957031 L 2.609375 -0.511719 C 2.609375 -0.535156 2.601562 -0.566406 2.589844 -0.605469 C 2.558594 -0.691406 2.511719 -0.769531 2.441406 -0.835938 C 2.375 -0.90625 2.296875 -0.957031 2.210938 -0.984375 C 2.171875 -0.996094 2.140625 -1.003906 2.117188 -1.003906 L 5.457031 -1.003906 C 5.433594 -1.003906 5.402344 -0.996094 5.363281 -0.984375 C 5.277344 -0.957031 5.203125 -0.90625 5.132812 -0.835938 C 5.0625 -0.769531 5.015625 -0.691406 4.988281 -0.605469 C 4.972656 -0.566406 4.96875 -0.535156 4.96875 -0.511719 L 4.96875 -9.507812 L 12.003906 -9.507812 C 11.980469 -9.507812 11.953125 -9.503906 11.914062 -9.488281 C 11.828125 -9.460938 11.75 -9.414062 11.679688 -9.34375 C 11.613281 -9.273438 11.5625 -9.199219 11.535156 -9.113281 C 11.523438 -9.074219 11.515625 -9.042969 11.515625 -9.019531 L 11.515625 -12.230469 C 11.515625 -12.207031 11.523438 -12.175781 11.535156 -12.136719 C 11.5625 -12.050781 11.613281 -11.972656 11.679688 -11.90625 C 11.75 -11.835938 11.828125 -11.789062 11.914062 -11.757812 C 11.953125 -11.746094 11.980469 -11.738281 12.003906 -11.738281 L 4.96875 -11.738281 L 4.96875 -19.234375 L 13.929688 -19.234375 C 13.90625 -19.234375 13.878906 -19.230469 13.839844 -19.214844 C 13.753906 -19.1875 13.675781 -19.140625 13.605469 -19.070312 C 13.539062 -19 13.488281 -18.925781 13.460938 -18.839844 C 13.449219 -18.800781 13.441406 -18.769531 13.441406 -18.746094 Z M 13.441406 -21.957031 "/></g></g><g style="fill:#b21a22;fill-opacity:1;"><g transform="translate(38.40563, 62.284965)"><path style="stroke:none" d="M 4.96875 -4.238281 L 4.96875 -21.957031 C 4.96875 -21.933594 4.972656 -21.902344 4.988281 -21.863281 C 5.015625 -21.777344 5.0625 -21.699219 5.132812 -21.632812 C 5.203125 -21.5625 5.277344 -21.515625 5.363281 -21.484375 C 5.402344 -21.472656 5.433594 -21.464844 5.457031 -21.464844 L 2.117188 -21.464844 C 2.140625 -21.464844 2.171875 -21.472656 2.210938 -21.484375 C 2.296875 -21.515625 2.375 -21.5625 2.441406 -21.632812 C 2.511719 -21.699219 2.558594 -21.777344 2.589844 -21.863281 C 2.601562 -21.902344 2.609375 -21.933594 2.609375 -21.957031 L 2.609375 -0.511719 C 2.609375 -0.535156 2.601562 -0.566406 2.589844 -0.605469 C 2.558594 -0.691406 2.511719 -0.769531 2.441406 -0.835938 C 2.375 -0.90625 2.296875 -0.957031 2.210938 -0.984375 C 2.171875 -0.996094 2.140625 -1.003906 2.117188 -1.003906 L 12.324219 -1.003906 C 12.304688 -1.003906 12.273438 -0.996094 12.234375 -0.984375 C 12.148438 -0.957031 12.070312 -0.90625 12 -0.835938 C 11.933594 -0.769531 11.882812 -0.691406 11.855469 -0.605469 C 11.84375 -0.566406 11.835938 -0.535156 11.835938 -0.511719 L 11.835938 -3.722656 C 11.835938 -3.699219 11.84375 -3.667969 11.855469 -3.632812 C 11.882812 -3.546875 11.933594 -3.46875 12 -3.398438 C 12.070312 -3.332031 12.148438 -3.28125 12.234375 -3.253906 C 12.273438 -3.242188 12.304688 -3.234375 12.324219 -3.234375 L 4.96875 -3.234375 Z M 6.972656 -4.238281 L 5.96875 -4.238281 L 5.96875 -5.242188 L 12.324219 -5.242188 C 12.773438 -5.242188 13.140625 -5.101562 13.421875 -4.816406 C 13.703125 -4.535156 13.84375 -4.171875 13.84375 -3.722656 L 13.84375 -0.511719 C 13.84375 -0.0664062 13.703125 0.300781 13.421875 0.582031 C 13.140625 0.863281 12.773438 1.003906 12.324219 1.003906 L 2.117188 1.003906 C 1.671875 1.003906 1.304688 0.863281 1.023438 0.582031 C 0.742188 0.300781 0.601562 -0.0664062 0.601562 -0.511719 L 0.601562 -21.957031 C 0.601562 -22.402344 0.742188 -22.769531 1.023438 -23.050781 C 1.304688 -23.332031 1.671875 -23.472656 2.117188 -23.472656 L 5.457031 -23.472656 C 5.90625 -23.472656 6.269531 -23.332031 6.550781 -23.050781 C 6.832031 -22.769531 6.972656 -22.402344 6.972656 -21.957031 Z M 6.972656 -4.238281 "/></g></g><g style="fill:#b21a22;fill-opacity:1;"><g transform="translate(52.849814, 62.284965)"><path style="stroke:none" d="M 0.601562 -4.621094 L 0.601562 -17.847656 C 0.601562 -19.644531 1.097656 -21.035156 2.089844 -22.011719 C 3.074219 -22.984375 4.453125 -23.472656 6.226562 -23.472656 L 9.824219 -23.472656 C 11.617188 -23.472656 13.003906 -22.984375 13.984375 -22.007812 C 14.960938 -21.03125 15.449219 -19.644531 15.449219 -17.847656 L 15.449219 -4.621094 C 15.449219 -2.851562 14.960938 -1.46875 13.988281 -0.484375 C 13.011719 0.507812 11.621094 1.003906 9.824219 1.003906 L 6.226562 1.003906 C 4.453125 1.003906 3.070312 0.507812 2.082031 -0.476562 C 1.09375 -1.464844 0.601562 -2.847656 0.601562 -4.621094 Z M 2.609375 -4.621094 C 2.609375 -3.402344 2.90625 -2.492188 3.503906 -1.898438 C 4.097656 -1.300781 5.007812 -1.003906 6.226562 -1.003906 L 9.824219 -1.003906 C 11.0625 -1.003906 11.972656 -1.300781 12.558594 -1.890625 C 13.148438 -2.488281 13.441406 -3.398438 13.441406 -4.621094 L 13.441406 -17.847656 C 13.441406 -19.089844 13.148438 -20.003906 12.5625 -20.589844 C 11.976562 -21.171875 11.066406 -21.464844 9.824219 -21.464844 L 6.226562 -21.464844 C 5.003906 -21.464844 4.09375 -21.171875 3.496094 -20.582031 C 2.90625 -20 2.609375 -19.085938 2.609375 -17.847656 Z M 7.0625 -5.144531 L 9.117188 -5.144531 C 9.222656 -5.144531 9.304688 -5.152344 9.359375 -5.171875 C 9.371094 -5.175781 9.378906 -5.179688 9.382812 -5.183594 C 9.378906 -5.179688 9.375 -5.175781 9.371094 -5.171875 C 9.363281 -5.167969 9.363281 -5.164062 9.359375 -5.160156 C 9.363281 -5.164062 9.363281 -5.167969 9.367188 -5.179688 C 9.386719 -5.238281 9.398438 -5.320312 9.398438 -5.425781 L 9.398438 -17.042969 C 9.398438 -17.148438 9.386719 -17.230469 9.367188 -17.289062 C 9.363281 -17.300781 9.363281 -17.308594 9.359375 -17.3125 C 9.363281 -17.308594 9.363281 -17.304688 9.371094 -17.296875 C 9.375 -17.292969 9.378906 -17.289062 9.382812 -17.289062 C 9.378906 -17.289062 9.371094 -17.292969 9.359375 -17.296875 C 9.304688 -17.316406 9.222656 -17.324219 9.117188 -17.324219 L 7.0625 -17.324219 C 6.957031 -17.324219 6.875 -17.316406 6.816406 -17.296875 C 6.808594 -17.292969 6.800781 -17.289062 6.796875 -17.289062 C 6.800781 -17.289062 6.804688 -17.292969 6.808594 -17.296875 C 6.8125 -17.304688 6.816406 -17.308594 6.820312 -17.3125 C 6.816406 -17.308594 6.8125 -17.300781 6.808594 -17.289062 C 6.789062 -17.230469 6.78125 -17.148438 6.78125 -17.042969 L 6.78125 -5.425781 C 6.78125 -5.320312 6.789062 -5.238281 6.808594 -5.179688 C 6.8125 -5.167969 6.816406 -5.164062 6.820312 -5.160156 C 6.816406 -5.164062 6.8125 -5.167969 6.808594 -5.171875 C 6.804688 -5.175781 6.800781 -5.179688 6.796875 -5.183594 C 6.800781 -5.179688 6.808594 -5.175781 6.816406 -5.171875 C 6.875 -5.152344 6.957031 -5.144531 7.0625 -5.144531 Z M 7.0625 -3.136719 C 6.355469 -3.136719 5.800781 -3.34375 5.390625 -3.753906 C 4.980469 -4.164062 4.773438 -4.71875 4.773438 -5.425781 L 4.773438 -17.042969 C 4.773438 -17.75 4.980469 -18.308594 5.390625 -18.71875 C 5.800781 -19.128906 6.355469 -19.332031 7.0625 -19.332031 L 9.117188 -19.332031 C 9.820312 -19.332031 10.378906 -19.128906 10.789062 -18.71875 C 11.199219 -18.308594 11.402344 -17.75 11.402344 -17.042969 L 11.402344 -5.425781 C 11.402344 -4.71875 11.199219 -4.164062 10.789062 -3.753906 C 10.378906 -3.34375 9.820312 -3.136719 9.117188 -3.136719 Z M 7.0625 -3.136719 "/></g></g><g style="fill:#b21a22;fill-opacity:1;"><g transform="translate(68.898907, 62.284965)"><path style="stroke:none" d="M 6.226562 -23.472656 L 9.824219 -23.472656 C 11.617188 -23.472656 13.003906 -22.984375 13.984375 -22.007812 C 14.960938 -21.03125 15.449219 -19.644531 15.449219 -17.847656 L 15.449219 -15.730469 C 15.449219 -15.28125 15.308594 -14.914062 15.027344 -14.632812 C 14.746094 -14.351562 14.378906 -14.210938 13.929688 -14.210938 L 10.6875 -14.210938 C 10.242188 -14.210938 9.875 -14.351562 9.59375 -14.632812 C 9.3125 -14.914062 9.171875 -15.28125 9.171875 -15.730469 L 9.171875 -17.078125 C 9.171875 -17.183594 9.164062 -17.265625 9.144531 -17.320312 C 9.140625 -17.332031 9.136719 -17.339844 9.132812 -17.34375 C 9.136719 -17.339844 9.140625 -17.335938 9.144531 -17.332031 C 9.148438 -17.324219 9.152344 -17.320312 9.15625 -17.320312 C 9.152344 -17.324219 9.148438 -17.324219 9.136719 -17.328125 C 9.078125 -17.347656 8.996094 -17.359375 8.890625 -17.359375 L 7.125 -17.359375 C 7.019531 -17.359375 6.9375 -17.347656 6.882812 -17.328125 C 6.871094 -17.324219 6.863281 -17.324219 6.859375 -17.320312 C 6.863281 -17.320312 6.867188 -17.324219 6.871094 -17.332031 C 6.878906 -17.335938 6.878906 -17.339844 6.882812 -17.34375 C 6.878906 -17.339844 6.878906 -17.332031 6.875 -17.320312 C 6.855469 -17.265625 6.84375 -17.183594 6.84375 -17.078125 L 6.84375 -14.347656 L 5.84375 -14.347656 L 6.148438 -15.304688 L 13.917969 -12.800781 C 14.414062 -12.628906 14.792969 -12.355469 15.058594 -11.980469 C 15.316406 -11.609375 15.449219 -11.167969 15.449219 -10.65625 L 15.449219 -4.621094 C 15.449219 -2.851562 14.960938 -1.46875 13.988281 -0.484375 C 13.011719 0.507812 11.621094 1.003906 9.824219 1.003906 L 6.226562 1.003906 C 4.453125 1.003906 3.070312 0.507812 2.082031 -0.476562 C 1.09375 -1.464844 0.601562 -2.847656 0.601562 -4.621094 L 0.601562 -6.707031 C 0.601562 -7.15625 0.742188 -7.523438 1.023438 -7.804688 C 1.304688 -8.085938 1.671875 -8.226562 2.117188 -8.226562 L 5.359375 -8.226562 C 5.808594 -8.226562 6.171875 -8.085938 6.457031 -7.804688 C 6.738281 -7.523438 6.878906 -7.15625 6.878906 -6.707031 L 6.878906 -5.359375 C 6.878906 -5.253906 6.886719 -5.171875 6.90625 -5.117188 C 6.910156 -5.105469 6.914062 -5.097656 6.914062 -5.09375 C 6.914062 -5.097656 6.910156 -5.101562 6.90625 -5.105469 C 6.898438 -5.113281 6.894531 -5.113281 6.890625 -5.117188 C 6.894531 -5.113281 6.902344 -5.113281 6.914062 -5.109375 C 6.972656 -5.089844 7.050781 -5.078125 7.15625 -5.078125 L 8.890625 -5.078125 C 8.996094 -5.078125 9.078125 -5.089844 9.136719 -5.109375 C 9.148438 -5.113281 9.152344 -5.113281 9.15625 -5.117188 C 9.152344 -5.113281 9.148438 -5.113281 9.144531 -5.105469 C 9.140625 -5.101562 9.136719 -5.097656 9.132812 -5.09375 C 9.136719 -5.097656 9.140625 -5.105469 9.144531 -5.117188 C 9.164062 -5.171875 9.171875 -5.253906 9.171875 -5.359375 L 9.171875 -8.601562 L 10.175781 -8.601562 L 9.867188 -7.648438 L 2.160156 -10.152344 C 1.664062 -10.316406 1.28125 -10.585938 1.011719 -10.957031 C 0.738281 -11.332031 0.601562 -11.777344 0.601562 -12.292969 L 0.601562 -17.847656 C 0.601562 -19.644531 1.097656 -21.035156 2.089844 -22.011719 C 3.074219 -22.984375 4.453125 -23.472656 6.226562 -23.472656 Z M 6.226562 -21.464844 C 5.003906 -21.464844 4.09375 -21.171875 3.496094 -20.582031 C 2.90625 -20 2.609375 -19.085938 2.609375 -17.847656 L 2.609375 -12.292969 C 2.609375 -12.210938 2.617188 -12.160156 2.632812 -12.140625 C 2.652344 -12.113281 2.699219 -12.085938 2.78125 -12.058594 L 11.179688 -9.332031 L 11.179688 -5.359375 C 11.179688 -4.65625 10.972656 -4.097656 10.5625 -3.6875 C 10.152344 -3.277344 9.597656 -3.074219 8.890625 -3.074219 L 7.15625 -3.074219 C 6.453125 -3.074219 5.894531 -3.277344 5.484375 -3.6875 C 5.074219 -4.097656 4.871094 -4.65625 4.871094 -5.359375 L 4.871094 -6.707031 C 4.871094 -6.6875 4.878906 -6.65625 4.890625 -6.617188 C 4.917969 -6.53125 4.96875 -6.453125 5.035156 -6.382812 C 5.105469 -6.316406 5.183594 -6.265625 5.269531 -6.238281 C 5.308594 -6.226562 5.335938 -6.21875 5.359375 -6.21875 L 2.117188 -6.21875 C 2.140625 -6.21875 2.171875 -6.226562 2.210938 -6.238281 C 2.296875 -6.265625 2.375 -6.316406 2.441406 -6.382812 C 2.511719 -6.453125 2.558594 -6.53125 2.589844 -6.617188 C 2.601562 -6.65625 2.609375 -6.6875 2.609375 -6.707031 L 2.609375 -4.621094 C 2.609375 -3.402344 2.90625 -2.492188 3.503906 -1.898438 C 4.097656 -1.300781 5.007812 -1.003906 6.226562 -1.003906 L 9.824219 -1.003906 C 11.0625 -1.003906 11.972656 -1.300781 12.558594 -1.890625 C 13.148438 -2.488281 13.441406 -3.398438 13.441406 -4.621094 L 13.441406 -10.65625 C 13.441406 -10.746094 13.433594 -10.800781 13.414062 -10.828125 C 13.398438 -10.847656 13.363281 -10.867188 13.300781 -10.890625 L 4.839844 -13.617188 L 4.839844 -17.078125 C 4.839844 -17.78125 5.042969 -18.339844 5.453125 -18.75 C 5.863281 -19.160156 6.421875 -19.363281 7.125 -19.363281 L 8.890625 -19.363281 C 9.597656 -19.363281 10.152344 -19.160156 10.5625 -18.75 C 10.972656 -18.339844 11.179688 -17.78125 11.179688 -17.078125 L 11.179688 -15.730469 C 11.179688 -15.75 11.171875 -15.78125 11.160156 -15.820312 C 11.128906 -15.90625 11.082031 -15.984375 11.011719 -16.054688 C 10.945312 -16.121094 10.867188 -16.171875 10.78125 -16.199219 C 10.742188 -16.210938 10.710938 -16.21875 10.6875 -16.21875 L 13.929688 -16.21875 C 13.90625 -16.21875 13.878906 -16.210938 13.839844 -16.199219 C 13.753906 -16.171875 13.675781 -16.121094 13.605469 -16.054688 C 13.539062 -15.984375 13.488281 -15.90625 13.460938 -15.820312 C 13.449219 -15.78125 13.441406 -15.75 13.441406 -15.730469 L 13.441406 -17.847656 C 13.441406 -19.089844 13.148438 -20.003906 12.5625 -20.589844 C 11.976562 -21.171875 11.066406 -21.464844 9.824219 -21.464844 Z M 6.226562 -21.464844 "/></g></g><g style="fill:#b21a22;fill-opacity:1;"><g transform="translate(84.948, 62.284965)"><path style="stroke:none" d="M 6.226562 -23.472656 L 9.824219 -23.472656 C 11.617188 -23.472656 13.003906 -22.984375 13.984375 -22.007812 C 14.960938 -21.03125 15.449219 -19.644531 15.449219 -17.847656 L 15.449219 -15.730469 C 15.449219 -15.28125 15.308594 -14.914062 15.027344 -14.632812 C 14.746094 -14.351562 14.378906 -14.210938 13.929688 -14.210938 L 10.6875 -14.210938 C 10.242188 -14.210938 9.875 -14.351562 9.59375 -14.632812 C 9.3125 -14.914062 9.171875 -15.28125 9.171875 -15.730469 L 9.171875 -17.078125 C 9.171875 -17.183594 9.164062 -17.265625 9.144531 -17.320312 C 9.140625 -17.332031 9.136719 -17.339844 9.132812 -17.34375 C 9.136719 -17.339844 9.140625 -17.335938 9.144531 -17.332031 C 9.148438 -17.324219 9.152344 -17.320312 9.15625 -17.320312 C 9.152344 -17.324219 9.148438 -17.324219 9.136719 -17.328125 C 9.078125 -17.347656 8.996094 -17.359375 8.890625 -17.359375 L 7.125 -17.359375 C 7.019531 -17.359375 6.9375 -17.347656 6.882812 -17.328125 C 6.871094 -17.324219 6.863281 -17.324219 6.859375 -17.320312 C 6.863281 -17.320312 6.867188 -17.324219 6.871094 -17.332031 C 6.878906 -17.335938 6.878906 -17.339844 6.882812 -17.34375 C 6.878906 -17.339844 6.878906 -17.332031 6.875 -17.320312 C 6.855469 -17.265625 6.84375 -17.183594 6.84375 -17.078125 L 6.84375 -14.347656 L 5.84375 -14.347656 L 6.148438 -15.304688 L 13.917969 -12.800781 C 14.414062 -12.628906 14.792969 -12.355469 15.058594 -11.980469 C 15.316406 -11.609375 15.449219 -11.167969 15.449219 -10.65625 L 15.449219 -4.621094 C 15.449219 -2.851562 14.960938 -1.46875 13.988281 -0.484375 C 13.011719 0.507812 11.621094 1.003906 9.824219 1.003906 L 6.226562 1.003906 C 4.453125 1.003906 3.070312 0.507812 2.082031 -0.476562 C 1.09375 -1.464844 0.601562 -2.847656 0.601562 -4.621094 L 0.601562 -6.707031 C 0.601562 -7.15625 0.742188 -7.523438 1.023438 -7.804688 C 1.304688 -8.085938 1.671875 -8.226562 2.117188 -8.226562 L 5.359375 -8.226562 C 5.808594 -8.226562 6.171875 -8.085938 6.457031 -7.804688 C 6.738281 -7.523438 6.878906 -7.15625 6.878906 -6.707031 L 6.878906 -5.359375 C 6.878906 -5.253906 6.886719 -5.171875 6.90625 -5.117188 C 6.910156 -5.105469 6.914062 -5.097656 6.914062 -5.09375 C 6.914062 -5.097656 6.910156 -5.101562 6.90625 -5.105469 C 6.898438 -5.113281 6.894531 -5.113281 6.890625 -5.117188 C 6.894531 -5.113281 6.902344 -5.113281 6.914062 -5.109375 C 6.972656 -5.089844 7.050781 -5.078125 7.15625 -5.078125 L 8.890625 -5.078125 C 8.996094 -5.078125 9.078125 -5.089844 9.136719 -5.109375 C 9.148438 -5.113281 9.152344 -5.113281 9.15625 -5.117188 C 9.152344 -5.113281 9.148438 -5.113281 9.144531 -5.105469 C 9.140625 -5.101562 9.136719 -5.097656 9.132812 -5.09375 C 9.136719 -5.097656 9.140625 -5.105469 9.144531 -5.117188 C 9.164062 -5.171875 9.171875 -5.253906 9.171875 -5.359375 L 9.171875 -8.601562 L 10.175781 -8.601562 L 9.867188 -7.648438 L 2.160156 -10.152344 C 1.664062 -10.316406 1.28125 -10.585938 1.011719 -10.957031 C 0.738281 -11.332031 0.601562 -11.777344 0.601562 -12.292969 L 0.601562 -17.847656 C 0.601562 -19.644531 1.097656 -21.035156 2.089844 -22.011719 C 3.074219 -22.984375 4.453125 -23.472656 6.226562 -23.472656 Z M 6.226562 -21.464844 C 5.003906 -21.464844 4.09375 -21.171875 3.496094 -20.582031 C 2.90625 -20 2.609375 -19.085938 2.609375 -17.847656 L 2.609375 -12.292969 C 2.609375 -12.210938 2.617188 -12.160156 2.632812 -12.140625 C 2.652344 -12.113281 2.699219 -12.085938 2.78125 -12.058594 L 11.179688 -9.332031 L 11.179688 -5.359375 C 11.179688 -4.65625 10.972656 -4.097656 10.5625 -3.6875 C 10.152344 -3.277344 9.597656 -3.074219 8.890625 -3.074219 L 7.15625 -3.074219 C 6.453125 -3.074219 5.894531 -3.277344 5.484375 -3.6875 C 5.074219 -4.097656 4.871094 -4.65625 4.871094 -5.359375 L 4.871094 -6.707031 C 4.871094 -6.6875 4.878906 -6.65625 4.890625 -6.617188 C 4.917969 -6.53125 4.96875 -6.453125 5.035156 -6.382812 C 5.105469 -6.316406 5.183594 -6.265625 5.269531 -6.238281 C 5.308594 -6.226562 5.335938 -6.21875 5.359375 -6.21875 L 2.117188 -6.21875 C 2.140625 -6.21875 2.171875 -6.226562 2.210938 -6.238281 C 2.296875 -6.265625 2.375 -6.316406 2.441406 -6.382812 C 2.511719 -6.453125 2.558594 -6.53125 2.589844 -6.617188 C 2.601562 -6.65625 2.609375 -6.6875 2.609375 -6.707031 L 2.609375 -4.621094 C 2.609375 -3.402344 2.90625 -2.492188 3.503906 -1.898438 C 4.097656 -1.300781 5.007812 -1.003906 6.226562 -1.003906 L 9.824219 -1.003906 C 11.0625 -1.003906 11.972656 -1.300781 12.558594 -1.890625 C 13.148438 -2.488281 13.441406 -3.398438 13.441406 -4.621094 L 13.441406 -10.65625 C 13.441406 -10.746094 13.433594 -10.800781 13.414062 -10.828125 C 13.398438 -10.847656 13.363281 -10.867188 13.300781 -10.890625 L 4.839844 -13.617188 L 4.839844 -17.078125 C 4.839844 -17.78125 5.042969 -18.339844 5.453125 -18.75 C 5.863281 -19.160156 6.421875 -19.363281 7.125 -19.363281 L 8.890625 -19.363281 C 9.597656 -19.363281 10.152344 -19.160156 10.5625 -18.75 C 10.972656 -18.339844 11.179688 -17.78125 11.179688 -17.078125 L 11.179688 -15.730469 C 11.179688 -15.75 11.171875 -15.78125 11.160156 -15.820312 C 11.128906 -15.90625 11.082031 -15.984375 11.011719 -16.054688 C 10.945312 -16.121094 10.867188 -16.171875 10.78125 -16.199219 C 10.742188 -16.210938 10.710938 -16.21875 10.6875 -16.21875 L 13.929688 -16.21875 C 13.90625 -16.21875 13.878906 -16.210938 13.839844 -16.199219 C 13.753906 -16.171875 13.675781 -16.121094 13.605469 -16.054688 C 13.539062 -15.984375 13.488281 -15.90625 13.460938 -15.820312 C 13.449219 -15.78125 13.441406 -15.75 13.441406 -15.730469 L 13.441406 -17.847656 C 13.441406 -19.089844 13.148438 -20.003906 12.5625 -20.589844 C 11.976562 -21.171875 11.066406 -21.464844 9.824219 -21.464844 Z M 6.226562 -21.464844 "/></g></g><g style="fill:#b21a22;fill-opacity:1;"><g transform="translate(100.997093, 62.284965)"><path style="stroke:none" d="M -1.003906 4.300781 L -1.003906 1.347656 C -1.003906 0.855469 -0.851562 0.460938 -0.550781 0.15625 C -0.246094 -0.144531 0.152344 -0.296875 0.640625 -0.296875 L 19.996094 -0.296875 C 20.488281 -0.296875 20.886719 -0.144531 21.1875 0.15625 C 21.492188 0.460938 21.644531 0.855469 21.644531 1.347656 L 21.644531 4.300781 C 21.644531 4.792969 21.492188 5.1875 21.1875 5.492188 C 20.886719 5.796875 20.488281 5.945312 19.996094 5.945312 L 0.640625 5.945312 C 0.152344 5.945312 -0.246094 5.796875 -0.550781 5.492188 C -0.851562 5.1875 -1.003906 4.792969 -1.003906 4.300781 Z M 1.003906 4.300781 C 1.003906 4.304688 1.003906 4.308594 1.003906 4.3125 C 1.003906 4.3125 1.003906 4.3125 1.003906 4.308594 C 1 4.296875 0.996094 4.28125 0.992188 4.265625 C 0.96875 4.195312 0.929688 4.132812 0.871094 4.074219 C 0.8125 4.015625 0.746094 3.972656 0.679688 3.953125 C 0.660156 3.945312 0.644531 3.941406 0.632812 3.941406 C 0.632812 3.941406 0.636719 3.941406 0.640625 3.941406 L 19.996094 3.941406 C 20.003906 3.941406 20.007812 3.941406 20.007812 3.941406 C 19.992188 3.941406 19.980469 3.945312 19.960938 3.953125 C 19.890625 3.972656 19.828125 4.015625 19.769531 4.074219 C 19.710938 4.132812 19.671875 4.195312 19.648438 4.265625 C 19.640625 4.28125 19.636719 4.296875 19.636719 4.308594 C 19.636719 4.3125 19.636719 4.3125 19.636719 4.3125 C 19.636719 4.308594 19.636719 4.304688 19.636719 4.300781 L 19.636719 1.347656 C 19.636719 1.34375 19.636719 1.339844 19.636719 1.335938 C 19.636719 1.335938 19.636719 1.339844 19.636719 1.339844 C 19.636719 1.351562 19.640625 1.367188 19.648438 1.382812 C 19.671875 1.453125 19.710938 1.519531 19.769531 1.574219 C 19.828125 1.632812 19.890625 1.675781 19.960938 1.699219 C 19.980469 1.703125 19.992188 1.707031 20.007812 1.710938 C 20.007812 1.710938 20.003906 1.710938 19.996094 1.710938 L 0.640625 1.710938 C 0.636719 1.710938 0.632812 1.710938 0.632812 1.710938 C 0.644531 1.707031 0.660156 1.703125 0.679688 1.699219 C 0.746094 1.675781 0.8125 1.632812 0.871094 1.574219 C 0.929688 1.519531 0.96875 1.453125 0.992188 1.382812 C 0.996094 1.367188 1 1.351562 1.003906 1.339844 C 1.003906 1.339844 1.003906 1.335938 1.003906 1.335938 C 1.003906 1.339844 1.003906 1.34375 1.003906 1.347656 Z M 1.003906 4.300781 "/></g></g><g style="fill:#b21a22;fill-opacity:1;"><g transform="translate(19.189492, 106.885787)"><path style="stroke:none" d="M 15.449219 -21.957031 L 15.449219 -18.746094 C 15.449219 -18.296875 15.308594 -17.933594 15.027344 -17.652344 C 14.746094 -17.371094 14.378906 -17.230469 13.929688 -17.230469 L 5.96875 -17.230469 L 5.96875 -18.234375 L 6.972656 -18.234375 L 6.972656 -12.742188 L 5.96875 -12.742188 L 5.96875 -13.746094 L 12.003906 -13.746094 C 12.453125 -13.746094 12.816406 -13.605469 13.101562 -13.324219 C 13.382812 -13.042969 13.523438 -12.679688 13.523438 -12.230469 L 13.523438 -9.019531 C 13.523438 -8.570312 13.382812 -8.207031 13.101562 -7.925781 C 12.816406 -7.644531 12.453125 -7.503906 12.003906 -7.503906 L 5.96875 -7.503906 L 5.96875 -8.507812 L 6.972656 -8.507812 L 6.972656 -0.511719 C 6.972656 -0.0664062 6.832031 0.300781 6.550781 0.582031 C 6.269531 0.863281 5.90625 1.003906 5.457031 1.003906 L 2.117188 1.003906 C 1.671875 1.003906 1.304688 0.863281 1.023438 0.582031 C 0.742188 0.300781 0.601562 -0.0664062 0.601562 -0.511719 L 0.601562 -21.957031 C 0.601562 -22.402344 0.742188 -22.769531 1.023438 -23.050781 C 1.304688 -23.332031 1.671875 -23.472656 2.117188 -23.472656 L 13.929688 -23.472656 C 14.378906 -23.472656 14.746094 -23.332031 15.027344 -23.050781 C 15.308594 -22.769531 15.449219 -22.402344 15.449219 -21.957031 Z M 13.441406 -21.957031 C 13.441406 -21.933594 13.449219 -21.902344 13.460938 -21.863281 C 13.488281 -21.777344 13.539062 -21.699219 13.605469 -21.632812 C 13.675781 -21.5625 13.753906 -21.515625 13.839844 -21.484375 C 13.878906 -21.472656 13.90625 -21.464844 13.929688 -21.464844 L 2.117188 -21.464844 C 2.140625 -21.464844 2.171875 -21.472656 2.210938 -21.484375 C 2.296875 -21.515625 2.375 -21.5625 2.441406 -21.632812 C 2.511719 -21.699219 2.558594 -21.777344 2.589844 -21.863281 C 2.601562 -21.902344 2.609375 -21.933594 2.609375 -21.957031 L 2.609375 -0.511719 C 2.609375 -0.535156 2.601562 -0.566406 2.589844 -0.605469 C 2.558594 -0.691406 2.511719 -0.769531 2.441406 -0.835938 C 2.375 -0.90625 2.296875 -0.957031 2.210938 -0.984375 C 2.171875 -0.996094 2.140625 -1.003906 2.117188 -1.003906 L 5.457031 -1.003906 C 5.433594 -1.003906 5.402344 -0.996094 5.363281 -0.984375 C 5.277344 -0.957031 5.203125 -0.90625 5.132812 -0.835938 C 5.0625 -0.769531 5.015625 -0.691406 4.988281 -0.605469 C 4.972656 -0.566406 4.96875 -0.535156 4.96875 -0.511719 L 4.96875 -9.507812 L 12.003906 -9.507812 C 11.980469 -9.507812 11.953125 -9.503906 11.914062 -9.488281 C 11.828125 -9.460938 11.75 -9.414062 11.679688 -9.34375 C 11.613281 -9.273438 11.5625 -9.199219 11.535156 -9.113281 C 11.523438 -9.074219 11.515625 -9.042969 11.515625 -9.019531 L 11.515625 -12.230469 C 11.515625 -12.207031 11.523438 -12.175781 11.535156 -12.136719 C 11.5625 -12.050781 11.613281 -11.972656 11.679688 -11.90625 C 11.75 -11.835938 11.828125 -11.789062 11.914062 -11.757812 C 11.953125 -11.746094 11.980469 -11.738281 12.003906 -11.738281 L 4.96875 -11.738281 L 4.96875 -19.234375 L 13.929688 -19.234375 C 13.90625 -19.234375 13.878906 -19.230469 13.839844 -19.214844 C 13.753906 -19.1875 13.675781 -19.140625 13.605469 -19.070312 C 13.539062 -19 13.488281 -18.925781 13.460938 -18.839844 C 13.449219 -18.800781 13.441406 -18.769531 13.441406 -18.746094 Z M 13.441406 -21.957031 "/></g></g><g style="fill:#b21a22;fill-opacity:1;"><g transform="translate(35.238585, 106.885787)"><path style="stroke:none" d="M 10.847656 -23.472656 L 13.800781 -23.472656 C 14.25 -23.472656 14.636719 -23.3125 14.960938 -22.988281 C 15.285156 -22.660156 15.449219 -22.277344 15.449219 -21.828125 L 15.449219 -4.621094 C 15.449219 -2.851562 14.960938 -1.46875 13.988281 -0.484375 C 13.011719 0.507812 11.621094 1.003906 9.824219 1.003906 L 6.226562 1.003906 C 4.453125 1.003906 3.070312 0.507812 2.082031 -0.476562 C 1.09375 -1.464844 0.601562 -2.847656 0.601562 -4.621094 L 0.601562 -21.828125 C 0.601562 -22.277344 0.765625 -22.660156 1.089844 -22.988281 C 1.414062 -23.3125 1.796875 -23.472656 2.246094 -23.472656 L 5.328125 -23.472656 C 5.777344 -23.472656 6.164062 -23.3125 6.488281 -22.988281 C 6.8125 -22.660156 6.972656 -22.277344 6.972656 -21.828125 L 6.972656 -5.519531 C 6.972656 -5.414062 6.984375 -5.335938 7.003906 -5.277344 C 7.007812 -5.265625 7.007812 -5.257812 7.011719 -5.253906 C 7.007812 -5.257812 7.003906 -5.261719 7 -5.265625 C 6.996094 -5.273438 6.992188 -5.277344 6.988281 -5.277344 C 6.992188 -5.277344 7 -5.273438 7.011719 -5.269531 C 7.066406 -5.25 7.148438 -5.242188 7.253906 -5.242188 L 8.921875 -5.242188 C 9.027344 -5.242188 9.109375 -5.25 9.167969 -5.269531 C 9.179688 -5.273438 9.1875 -5.277344 9.191406 -5.277344 C 9.1875 -5.277344 9.183594 -5.273438 9.175781 -5.265625 C 9.171875 -5.261719 9.167969 -5.257812 9.167969 -5.253906 C 9.167969 -5.257812 9.171875 -5.265625 9.175781 -5.277344 C 9.195312 -5.335938 9.203125 -5.414062 9.203125 -5.519531 L 9.203125 -21.828125 C 9.203125 -22.277344 9.367188 -22.660156 9.691406 -22.988281 C 10.015625 -23.3125 10.402344 -23.472656 10.847656 -23.472656 Z M 10.847656 -21.464844 C 10.957031 -21.464844 11.042969 -21.5 11.109375 -21.566406 C 11.175781 -21.636719 11.210938 -21.722656 11.210938 -21.828125 L 11.210938 -5.519531 C 11.210938 -4.816406 11.007812 -4.257812 10.597656 -3.847656 C 10.1875 -3.4375 9.628906 -3.234375 8.921875 -3.234375 L 7.253906 -3.234375 C 6.550781 -3.234375 5.992188 -3.4375 5.582031 -3.847656 C 5.171875 -4.257812 4.96875 -4.816406 4.96875 -5.519531 L 4.96875 -21.828125 C 4.96875 -21.722656 5 -21.636719 5.070312 -21.566406 C 5.136719 -21.5 5.222656 -21.464844 5.328125 -21.464844 L 2.246094 -21.464844 C 2.351562 -21.464844 2.441406 -21.5 2.507812 -21.566406 C 2.574219 -21.636719 2.609375 -21.722656 2.609375 -21.828125 L 2.609375 -4.621094 C 2.609375 -3.402344 2.90625 -2.492188 3.503906 -1.898438 C 4.097656 -1.300781 5.007812 -1.003906 6.226562 -1.003906 L 9.824219 -1.003906 C 11.0625 -1.003906 11.972656 -1.300781 12.558594 -1.890625 C 13.148438 -2.488281 13.441406 -3.398438 13.441406 -4.621094 L 13.441406 -21.828125 C 13.441406 -21.722656 13.476562 -21.636719 13.542969 -21.566406 C 13.609375 -21.5 13.695312 -21.464844 13.800781 -21.464844 Z M 10.847656 -21.464844 "/></g></g><g style="fill:#b21a22;fill-opacity:1;"><g transform="translate(51.287678, 106.885787)"><path style="stroke:none" d="M 11.78125 -23.472656 L 14.796875 -23.472656 C 15.246094 -23.472656 15.609375 -23.332031 15.890625 -23.050781 C 16.175781 -22.769531 16.316406 -22.402344 16.316406 -21.957031 L 16.316406 -0.511719 C 16.316406 -0.0664062 16.175781 0.300781 15.890625 0.582031 C 15.609375 0.863281 15.246094 1.003906 14.796875 1.003906 L 12.261719 1.003906 C 11.917969 1.003906 11.609375 0.90625 11.335938 0.710938 C 11.097656 0.535156 10.910156 0.300781 10.773438 0.00390625 L 11.683594 -0.417969 L 10.785156 0.0273438 L 4.75 -12.234375 L 5.648438 -12.679688 L 6.652344 -12.679688 L 6.652344 -0.511719 C 6.652344 -0.0664062 6.511719 0.300781 6.230469 0.582031 C 5.949219 0.863281 5.585938 1.003906 5.136719 1.003906 L 2.117188 1.003906 C 1.671875 1.003906 1.304688 0.863281 1.023438 0.582031 C 0.742188 0.300781 0.601562 -0.0664062 0.601562 -0.511719 L 0.601562 -21.957031 C 0.601562 -22.402344 0.742188 -22.769531 1.023438 -23.050781 C 1.304688 -23.332031 1.671875 -23.472656 2.117188 -23.472656 L 4.65625 -23.472656 C 5 -23.472656 5.308594 -23.375 5.578125 -23.179688 C 5.816406 -23.007812 6.003906 -22.769531 6.144531 -22.472656 L 5.230469 -22.050781 L 6.132812 -22.496094 L 12.167969 -10.234375 L 11.265625 -9.789062 L 10.261719 -9.789062 L 10.261719 -21.957031 C 10.261719 -22.402344 10.40625 -22.769531 10.6875 -23.050781 C 10.96875 -23.332031 11.332031 -23.472656 11.78125 -23.472656 Z M 11.78125 -21.464844 C 11.804688 -21.464844 11.835938 -21.472656 11.871094 -21.484375 C 11.957031 -21.515625 12.035156 -21.5625 12.105469 -21.632812 C 12.171875 -21.699219 12.222656 -21.777344 12.25 -21.863281 C 12.261719 -21.902344 12.269531 -21.933594 12.269531 -21.957031 L 12.269531 -9.789062 L 10.367188 -9.347656 L 4.328125 -21.621094 L 4.320312 -21.632812 C 4.332031 -21.613281 4.359375 -21.585938 4.402344 -21.550781 C 4.484375 -21.496094 4.566406 -21.464844 4.65625 -21.464844 L 2.117188 -21.464844 C 2.140625 -21.464844 2.171875 -21.472656 2.210938 -21.484375 C 2.296875 -21.515625 2.375 -21.5625 2.441406 -21.632812 C 2.511719 -21.699219 2.558594 -21.777344 2.589844 -21.863281 C 2.601562 -21.902344 2.609375 -21.933594 2.609375 -21.957031 L 2.609375 -0.511719 C 2.609375 -0.535156 2.601562 -0.566406 2.589844 -0.605469 C 2.558594 -0.691406 2.511719 -0.769531 2.441406 -0.835938 C 2.375 -0.90625 2.296875 -0.957031 2.210938 -0.984375 C 2.171875 -0.996094 2.140625 -1.003906 2.117188 -1.003906 L 5.136719 -1.003906 C 5.113281 -1.003906 5.082031 -0.996094 5.042969 -0.984375 C 4.957031 -0.957031 4.878906 -0.90625 4.8125 -0.835938 C 4.742188 -0.769531 4.695312 -0.691406 4.664062 -0.605469 C 4.652344 -0.566406 4.644531 -0.535156 4.644531 -0.511719 L 4.644531 -12.679688 L 6.550781 -13.121094 L 12.589844 -0.847656 L 12.59375 -0.835938 C 12.585938 -0.859375 12.558594 -0.882812 12.511719 -0.917969 C 12.433594 -0.976562 12.351562 -1.003906 12.261719 -1.003906 L 14.796875 -1.003906 C 14.773438 -1.003906 14.742188 -0.996094 14.707031 -0.984375 C 14.621094 -0.957031 14.542969 -0.90625 14.472656 -0.835938 C 14.40625 -0.769531 14.355469 -0.691406 14.328125 -0.605469 C 14.316406 -0.566406 14.308594 -0.535156 14.308594 -0.511719 L 14.308594 -21.957031 C 14.308594 -21.933594 14.316406 -21.902344 14.328125 -21.863281 C 14.355469 -21.777344 14.40625 -21.699219 14.472656 -21.632812 C 14.542969 -21.5625 14.621094 -21.515625 14.707031 -21.484375 C 14.742188 -21.472656 14.773438 -21.464844 14.796875 -21.464844 Z M 11.78125 -21.464844 "/></g></g><g style="fill:#b21a22;fill-opacity:1;"><g transform="translate(68.203427, 106.885787)"><path style="stroke:none" d="M 0.601562 -0.511719 L 0.601562 -21.957031 C 0.601562 -22.402344 0.742188 -22.769531 1.023438 -23.050781 C 1.304688 -23.332031 1.671875 -23.472656 2.117188 -23.472656 L 9.824219 -23.472656 C 11.621094 -23.472656 13.011719 -22.976562 13.988281 -21.988281 C 14.960938 -21 15.449219 -19.609375 15.449219 -17.816406 L 15.449219 -4.621094 C 15.449219 -2.851562 14.960938 -1.46875 13.988281 -0.484375 C 13.011719 0.507812 11.621094 1.003906 9.824219 1.003906 L 2.117188 1.003906 C 1.671875 1.003906 1.304688 0.863281 1.023438 0.582031 C 0.742188 0.300781 0.601562 -0.0664062 0.601562 -0.511719 Z M 2.609375 -0.511719 C 2.609375 -0.535156 2.601562 -0.566406 2.589844 -0.605469 C 2.558594 -0.691406 2.511719 -0.769531 2.441406 -0.835938 C 2.375 -0.90625 2.296875 -0.957031 2.210938 -0.984375 C 2.171875 -0.996094 2.140625 -1.003906 2.117188 -1.003906 L 9.824219 -1.003906 C 11.0625 -1.003906 11.972656 -1.300781 12.558594 -1.890625 C 13.148438 -2.488281 13.441406 -3.398438 13.441406 -4.621094 L 13.441406 -17.816406 C 13.441406 -19.058594 13.148438 -19.980469 12.558594 -20.578125 C 11.972656 -21.171875 11.0625 -21.464844 9.824219 -21.464844 L 2.117188 -21.464844 C 2.140625 -21.464844 2.171875 -21.472656 2.210938 -21.484375 C 2.296875 -21.515625 2.375 -21.5625 2.441406 -21.632812 C 2.511719 -21.699219 2.558594 -21.777344 2.589844 -21.863281 C 2.601562 -21.902344 2.609375 -21.933594 2.609375 -21.957031 Z M 5.96875 -5.242188 L 8.921875 -5.242188 C 9.027344 -5.242188 9.109375 -5.25 9.167969 -5.269531 C 9.179688 -5.273438 9.1875 -5.277344 9.191406 -5.277344 C 9.1875 -5.277344 9.183594 -5.273438 9.175781 -5.265625 C 9.171875 -5.261719 9.167969 -5.257812 9.167969 -5.253906 C 9.167969 -5.257812 9.171875 -5.265625 9.175781 -5.277344 C 9.195312 -5.335938 9.203125 -5.414062 9.203125 -5.519531 L 9.203125 -16.917969 C 9.203125 -17.03125 9.195312 -17.117188 9.171875 -17.183594 C 9.167969 -17.195312 9.164062 -17.207031 9.160156 -17.210938 C 9.164062 -17.210938 9.164062 -17.207031 9.167969 -17.203125 L 9.160156 -17.199219 C 9.105469 -17.21875 9.027344 -17.230469 8.921875 -17.230469 L 5.96875 -17.230469 L 5.96875 -18.234375 L 6.972656 -18.234375 L 6.972656 -4.238281 L 5.96875 -4.238281 Z M 4.96875 -3.234375 L 4.96875 -19.234375 L 8.921875 -19.234375 C 9.632812 -19.234375 10.195312 -19.023438 10.605469 -18.605469 C 11.007812 -18.191406 11.210938 -17.628906 11.210938 -16.917969 L 11.210938 -5.519531 C 11.210938 -4.816406 11.007812 -4.257812 10.597656 -3.847656 C 10.1875 -3.4375 9.628906 -3.234375 8.921875 -3.234375 Z M 4.96875 -3.234375 "/></g></g><g style="fill:#b21a22;fill-opacity:1;"><g transform="translate(84.25252, 106.885787)"><path style="stroke:none" d="M 2.117188 -1.003906 L 5.457031 -1.003906 C 5.433594 -1.003906 5.402344 -0.996094 5.363281 -0.984375 C 5.277344 -0.957031 5.203125 -0.90625 5.132812 -0.835938 C 5.0625 -0.769531 5.015625 -0.691406 4.988281 -0.605469 C 4.972656 -0.566406 4.96875 -0.535156 4.96875 -0.511719 L 4.96875 -21.957031 C 4.96875 -21.933594 4.972656 -21.902344 4.988281 -21.863281 C 5.015625 -21.777344 5.0625 -21.699219 5.132812 -21.632812 C 5.203125 -21.5625 5.277344 -21.515625 5.363281 -21.484375 C 5.402344 -21.472656 5.433594 -21.464844 5.457031 -21.464844 L 2.117188 -21.464844 C 2.140625 -21.464844 2.171875 -21.472656 2.210938 -21.484375 C 2.296875 -21.515625 2.375 -21.5625 2.441406 -21.632812 C 2.511719 -21.699219 2.558594 -21.777344 2.589844 -21.863281 C 2.601562 -21.902344 2.609375 -21.933594 2.609375 -21.957031 L 2.609375 -0.511719 C 2.609375 -0.535156 2.601562 -0.566406 2.589844 -0.605469 C 2.558594 -0.691406 2.511719 -0.769531 2.441406 -0.835938 C 2.375 -0.90625 2.296875 -0.957031 2.210938 -0.984375 C 2.171875 -0.996094 2.140625 -1.003906 2.117188 -1.003906 Z M 2.117188 1.003906 C 1.671875 1.003906 1.304688 0.863281 1.023438 0.582031 C 0.742188 0.300781 0.601562 -0.0664062 0.601562 -0.511719 L 0.601562 -21.957031 C 0.601562 -22.402344 0.742188 -22.769531 1.023438 -23.050781 C 1.304688 -23.332031 1.671875 -23.472656 2.117188 -23.472656 L 5.457031 -23.472656 C 5.90625 -23.472656 6.269531 -23.332031 6.550781 -23.050781 C 6.832031 -22.769531 6.972656 -22.402344 6.972656 -21.957031 L 6.972656 -0.511719 C 6.972656 -0.0664062 6.832031 0.300781 6.550781 0.582031 C 6.269531 0.863281 5.90625 1.003906 5.457031 1.003906 Z M 2.117188 1.003906 "/></g></g><g style="fill:#b21a22;fill-opacity:1;"><g transform="translate(91.827692, 106.885787)"><path style="stroke:none" d="M 11.78125 -23.472656 L 14.796875 -23.472656 C 15.246094 -23.472656 15.609375 -23.332031 15.890625 -23.050781 C 16.175781 -22.769531 16.316406 -22.402344 16.316406 -21.957031 L 16.316406 -0.511719 C 16.316406 -0.0664062 16.175781 0.300781 15.890625 0.582031 C 15.609375 0.863281 15.246094 1.003906 14.796875 1.003906 L 12.261719 1.003906 C 11.917969 1.003906 11.609375 0.90625 11.335938 0.710938 C 11.097656 0.535156 10.910156 0.300781 10.773438 0.00390625 L 11.683594 -0.417969 L 10.785156 0.0273438 L 4.75 -12.234375 L 5.648438 -12.679688 L 6.652344 -12.679688 L 6.652344 -0.511719 C 6.652344 -0.0664062 6.511719 0.300781 6.230469 0.582031 C 5.949219 0.863281 5.585938 1.003906 5.136719 1.003906 L 2.117188 1.003906 C 1.671875 1.003906 1.304688 0.863281 1.023438 0.582031 C 0.742188 0.300781 0.601562 -0.0664062 0.601562 -0.511719 L 0.601562 -21.957031 C 0.601562 -22.402344 0.742188 -22.769531 1.023438 -23.050781 C 1.304688 -23.332031 1.671875 -23.472656 2.117188 -23.472656 L 4.65625 -23.472656 C 5 -23.472656 5.308594 -23.375 5.578125 -23.179688 C 5.816406 -23.007812 6.003906 -22.769531 6.144531 -22.472656 L 5.230469 -22.050781 L 6.132812 -22.496094 L 12.167969 -10.234375 L 11.265625 -9.789062 L 10.261719 -9.789062 L 10.261719 -21.957031 C 10.261719 -22.402344 10.40625 -22.769531 10.6875 -23.050781 C 10.96875 -23.332031 11.332031 -23.472656 11.78125 -23.472656 Z M 11.78125 -21.464844 C 11.804688 -21.464844 11.835938 -21.472656 11.871094 -21.484375 C 11.957031 -21.515625 12.035156 -21.5625 12.105469 -21.632812 C 12.171875 -21.699219 12.222656 -21.777344 12.25 -21.863281 C 12.261719 -21.902344 12.269531 -21.933594 12.269531 -21.957031 L 12.269531 -9.789062 L 10.367188 -9.347656 L 4.328125 -21.621094 L 4.320312 -21.632812 C 4.332031 -21.613281 4.359375 -21.585938 4.402344 -21.550781 C 4.484375 -21.496094 4.566406 -21.464844 4.65625 -21.464844 L 2.117188 -21.464844 C 2.140625 -21.464844 2.171875 -21.472656 2.210938 -21.484375 C 2.296875 -21.515625 2.375 -21.5625 2.441406 -21.632812 C 2.511719 -21.699219 2.558594 -21.777344 2.589844 -21.863281 C 2.601562 -21.902344 2.609375 -21.933594 2.609375 -21.957031 L 2.609375 -0.511719 C 2.609375 -0.535156 2.601562 -0.566406 2.589844 -0.605469 C 2.558594 -0.691406 2.511719 -0.769531 2.441406 -0.835938 C 2.375 -0.90625 2.296875 -0.957031 2.210938 -0.984375 C 2.171875 -0.996094 2.140625 -1.003906 2.117188 -1.003906 L 5.136719 -1.003906 C 5.113281 -1.003906 5.082031 -0.996094 5.042969 -0.984375 C 4.957031 -0.957031 4.878906 -0.90625 4.8125 -0.835938 C 4.742188 -0.769531 4.695312 -0.691406 4.664062 -0.605469 C 4.652344 -0.566406 4.644531 -0.535156 4.644531 -0.511719 L 4.644531 -12.679688 L 6.550781 -13.121094 L 12.589844 -0.847656 L 12.59375 -0.835938 C 12.585938 -0.859375 12.558594 -0.882812 12.511719 -0.917969 C 12.433594 -0.976562 12.351562 -1.003906 12.261719 -1.003906 L 14.796875 -1.003906 C 14.773438 -1.003906 14.742188 -0.996094 14.707031 -0.984375 C 14.621094 -0.957031 14.542969 -0.90625 14.472656 -0.835938 C 14.40625 -0.769531 14.355469 -0.691406 14.328125 -0.605469 C 14.316406 -0.566406 14.308594 -0.535156 14.308594 -0.511719 L 14.308594 -21.957031 C 14.308594 -21.933594 14.316406 -21.902344 14.328125 -21.863281 C 14.355469 -21.777344 14.40625 -21.699219 14.472656 -21.632812 C 14.542969 -21.5625 14.621094 -21.515625 14.707031 -21.484375 C 14.742188 -21.472656 14.773438 -21.464844 14.796875 -21.464844 Z M 11.78125 -21.464844 "/></g></g><g style="fill:#b21a22;fill-opacity:1;"><g transform="translate(108.743441, 106.885787)"><path style="stroke:none" d="M 0.601562 -4.621094 L 0.601562 -17.847656 C 0.601562 -19.644531 1.097656 -21.035156 2.089844 -22.011719 C 3.074219 -22.984375 4.453125 -23.472656 6.226562 -23.472656 L 9.824219 -23.472656 C 11.59375 -23.472656 12.972656 -22.984375 13.960938 -22.011719 C 14.953125 -21.035156 15.449219 -19.644531 15.449219 -17.847656 L 15.449219 -15.472656 C 15.449219 -15.023438 15.308594 -14.660156 15.027344 -14.378906 C 14.746094 -14.097656 14.378906 -13.953125 13.929688 -13.953125 L 10.914062 -13.953125 C 10.464844 -13.953125 10.101562 -14.097656 9.820312 -14.378906 C 9.539062 -14.660156 9.398438 -15.023438 9.398438 -15.472656 L 9.398438 -17.042969 C 9.398438 -17.148438 9.386719 -17.230469 9.367188 -17.289062 C 9.363281 -17.300781 9.363281 -17.308594 9.359375 -17.3125 C 9.363281 -17.308594 9.363281 -17.304688 9.371094 -17.296875 C 9.375 -17.292969 9.378906 -17.289062 9.382812 -17.289062 C 9.378906 -17.289062 9.371094 -17.292969 9.359375 -17.296875 C 9.304688 -17.316406 9.222656 -17.324219 9.117188 -17.324219 L 7.0625 -17.324219 C 6.957031 -17.324219 6.875 -17.316406 6.816406 -17.296875 C 6.808594 -17.292969 6.800781 -17.289062 6.796875 -17.289062 C 6.800781 -17.289062 6.804688 -17.292969 6.808594 -17.296875 C 6.8125 -17.304688 6.816406 -17.308594 6.820312 -17.3125 C 6.816406 -17.308594 6.8125 -17.300781 6.808594 -17.289062 C 6.789062 -17.230469 6.78125 -17.148438 6.78125 -17.042969 L 6.78125 -5.425781 C 6.78125 -5.320312 6.789062 -5.238281 6.808594 -5.179688 C 6.8125 -5.167969 6.816406 -5.164062 6.820312 -5.160156 C 6.816406 -5.164062 6.8125 -5.167969 6.808594 -5.171875 C 6.804688 -5.175781 6.800781 -5.179688 6.796875 -5.183594 C 6.800781 -5.179688 6.808594 -5.175781 6.816406 -5.171875 C 6.875 -5.152344 6.957031 -5.144531 7.0625 -5.144531 L 9.117188 -5.144531 C 9.222656 -5.144531 9.304688 -5.152344 9.359375 -5.171875 C 9.371094 -5.175781 9.378906 -5.179688 9.382812 -5.183594 C 9.378906 -5.179688 9.375 -5.175781 9.371094 -5.171875 C 9.363281 -5.167969 9.363281 -5.164062 9.359375 -5.160156 C 9.363281 -5.164062 9.363281 -5.167969 9.367188 -5.179688 C 9.386719 -5.238281 9.398438 -5.320312 9.398438 -5.425781 L 9.398438 -8.21875 L 10.398438 -8.21875 L 10.398438 -7.214844 L 8.730469 -7.214844 C 8.28125 -7.214844 7.917969 -7.355469 7.636719 -7.636719 C 7.355469 -7.917969 7.214844 -8.28125 7.214844 -8.730469 L 7.214844 -11.941406 C 7.214844 -12.390625 7.355469 -12.753906 7.636719 -13.035156 C 7.917969 -13.316406 8.28125 -13.457031 8.730469 -13.457031 L 13.929688 -13.457031 C 14.378906 -13.457031 14.746094 -13.316406 15.027344 -13.035156 C 15.308594 -12.753906 15.449219 -12.390625 15.449219 -11.941406 L 15.449219 -4.621094 C 15.449219 -2.847656 14.953125 -1.464844 13.964844 -0.476562 C 12.980469 0.507812 11.597656 1.003906 9.824219 1.003906 L 6.226562 1.003906 C 4.453125 1.003906 3.070312 0.507812 2.082031 -0.476562 C 1.09375 -1.464844 0.601562 -2.847656 0.601562 -4.621094 Z M 2.609375 -4.621094 C 2.609375 -3.402344 2.90625 -2.492188 3.503906 -1.898438 C 4.097656 -1.300781 5.007812 -1.003906 6.226562 -1.003906 L 9.824219 -1.003906 C 11.042969 -1.003906 11.953125 -1.300781 12.546875 -1.898438 C 13.144531 -2.492188 13.441406 -3.402344 13.441406 -4.621094 L 13.441406 -11.941406 C 13.441406 -11.917969 13.449219 -11.886719 13.460938 -11.847656 C 13.488281 -11.761719 13.539062 -11.6875 13.605469 -11.617188 C 13.675781 -11.546875 13.753906 -11.5 13.839844 -11.46875 C 13.878906 -11.457031 13.90625 -11.453125 13.929688 -11.453125 L 8.730469 -11.453125 C 8.753906 -11.453125 8.785156 -11.457031 8.824219 -11.46875 C 8.910156 -11.5 8.988281 -11.546875 9.054688 -11.617188 C 9.125 -11.6875 9.171875 -11.761719 9.203125 -11.847656 C 9.214844 -11.886719 9.21875 -11.917969 9.21875 -11.941406 L 9.21875 -8.730469 C 9.21875 -8.753906 9.214844 -8.785156 9.203125 -8.824219 C 9.171875 -8.910156 9.125 -8.988281 9.054688 -9.054688 C 8.988281 -9.125 8.910156 -9.171875 8.824219 -9.203125 C 8.785156 -9.214844 8.753906 -9.21875 8.730469 -9.21875 L 11.402344 -9.21875 L 11.402344 -5.425781 C 11.402344 -4.71875 11.199219 -4.164062 10.789062 -3.753906 C 10.378906 -3.34375 9.820312 -3.136719 9.117188 -3.136719 L 7.0625 -3.136719 C 6.355469 -3.136719 5.800781 -3.34375 5.390625 -3.753906 C 4.980469 -4.164062 4.773438 -4.71875 4.773438 -5.425781 L 4.773438 -17.042969 C 4.773438 -17.75 4.980469 -18.308594 5.390625 -18.71875 C 5.800781 -19.128906 6.355469 -19.332031 7.0625 -19.332031 L 9.117188 -19.332031 C 9.820312 -19.332031 10.378906 -19.128906 10.789062 -18.71875 C 11.199219 -18.308594 11.402344 -17.75 11.402344 -17.042969 L 11.402344 -15.472656 C 11.402344 -15.496094 11.398438 -15.527344 11.382812 -15.5625 C 11.355469 -15.648438 11.308594 -15.726562 11.238281 -15.796875 C 11.167969 -15.863281 11.09375 -15.914062 11.007812 -15.941406 C 10.96875 -15.953125 10.9375 -15.960938 10.914062 -15.960938 L 13.929688 -15.960938 C 13.90625 -15.960938 13.878906 -15.953125 13.839844 -15.941406 C 13.753906 -15.914062 13.675781 -15.863281 13.605469 -15.796875 C 13.539062 -15.726562 13.488281 -15.648438 13.460938 -15.5625 C 13.449219 -15.527344 13.441406 -15.496094 13.441406 -15.472656 L 13.441406 -17.847656 C 13.441406 -19.085938 13.144531 -20 12.550781 -20.582031 C 11.957031 -21.171875 11.046875 -21.464844 9.824219 -21.464844 L 6.226562 -21.464844 C 5.003906 -21.464844 4.09375 -21.171875 3.496094 -20.582031 C 2.90625 -20 2.609375 -19.085938 2.609375 -17.847656 Z M 2.609375 -4.621094 "/></g></g><g style="fill:#060705;fill-opacity:1;"><g transform="translate(22.356537, 62.284965)"><path style="stroke:none" d="M 14.4375 -21.953125 L 14.4375 -18.75 C 14.4375 -18.40625 14.265625 -18.234375 13.921875 -18.234375 L 5.96875 -18.234375 L 5.96875 -12.734375 L 12 -12.734375 C 12.34375 -12.734375 12.515625 -12.566406 12.515625 -12.234375 L 12.515625 -9.015625 C 12.515625 -8.671875 12.34375 -8.5 12 -8.5 L 5.96875 -8.5 L 5.96875 -0.515625 C 5.96875 -0.171875 5.796875 0 5.453125 0 L 2.125 0 C 1.78125 0 1.609375 -0.171875 1.609375 -0.515625 L 1.609375 -21.953125 C 1.609375 -22.296875 1.78125 -22.46875 2.125 -22.46875 L 13.921875 -22.46875 C 14.265625 -22.46875 14.4375 -22.296875 14.4375 -21.953125 Z M 14.4375 -21.953125 "/></g></g><g style="fill:#060705;fill-opacity:1;"><g transform="translate(38.40563, 62.284965)"><path style="stroke:none" d="M 5.96875 -4.234375 L 5.96875 -21.953125 C 5.96875 -22.296875 5.796875 -22.46875 5.453125 -22.46875 L 2.125 -22.46875 C 1.78125 -22.46875 1.609375 -22.296875 1.609375 -21.953125 L 1.609375 -0.515625 C 1.609375 -0.171875 1.78125 0 2.125 0 L 12.328125 0 C 12.671875 0 12.84375 -0.171875 12.84375 -0.515625 L 12.84375 -3.71875 C 12.84375 -4.0625 12.671875 -4.234375 12.328125 -4.234375 Z M 5.96875 -4.234375 "/></g></g><g style="fill:#060705;fill-opacity:1;"><g transform="translate(52.849814, 62.284965)"><path style="stroke:none" d="M 1.609375 -4.625 L 1.609375 -17.84375 C 1.609375 -19.363281 2.003906 -20.515625 2.796875 -21.296875 C 3.585938 -22.078125 4.726562 -22.46875 6.21875 -22.46875 L 9.828125 -22.46875 C 11.335938 -22.46875 12.484375 -22.078125 13.265625 -21.296875 C 14.046875 -20.515625 14.4375 -19.363281 14.4375 -17.84375 L 14.4375 -4.625 C 14.4375 -3.125 14.046875 -1.976562 13.265625 -1.1875 C 12.484375 -0.394531 11.335938 0 9.828125 0 L 6.21875 0 C 4.726562 0 3.585938 -0.394531 2.796875 -1.1875 C 2.003906 -1.976562 1.609375 -3.125 1.609375 -4.625 Z M 7.0625 -4.140625 L 9.109375 -4.140625 C 9.960938 -4.140625 10.390625 -4.566406 10.390625 -5.421875 L 10.390625 -17.046875 C 10.390625 -17.898438 9.960938 -18.328125 9.109375 -18.328125 L 7.0625 -18.328125 C 6.207031 -18.328125 5.78125 -17.898438 5.78125 -17.046875 L 5.78125 -5.421875 C 5.78125 -4.566406 6.207031 -4.140625 7.0625 -4.140625 Z M 7.0625 -4.140625 "/></g></g><g style="fill:#060705;fill-opacity:1;"><g transform="translate(68.898907, 62.284965)"><path style="stroke:none" d="M 6.21875 -22.46875 L 9.828125 -22.46875 C 11.335938 -22.46875 12.484375 -22.078125 13.265625 -21.296875 C 14.046875 -20.515625 14.4375 -19.363281 14.4375 -17.84375 L 14.4375 -15.71875 C 14.4375 -15.382812 14.265625 -15.21875 13.921875 -15.21875 L 10.6875 -15.21875 C 10.34375 -15.21875 10.171875 -15.382812 10.171875 -15.71875 L 10.171875 -17.078125 C 10.171875 -17.929688 9.742188 -18.359375 8.890625 -18.359375 L 7.125 -18.359375 C 6.269531 -18.359375 5.84375 -17.929688 5.84375 -17.078125 L 5.84375 -14.34375 L 13.609375 -11.84375 C 14.160156 -11.644531 14.4375 -11.25 14.4375 -10.65625 L 14.4375 -4.625 C 14.4375 -3.125 14.046875 -1.976562 13.265625 -1.1875 C 12.484375 -0.394531 11.335938 0 9.828125 0 L 6.21875 0 C 4.726562 0 3.585938 -0.394531 2.796875 -1.1875 C 2.003906 -1.976562 1.609375 -3.125 1.609375 -4.625 L 1.609375 -6.703125 C 1.609375 -7.046875 1.78125 -7.21875 2.125 -7.21875 L 5.359375 -7.21875 C 5.703125 -7.21875 5.875 -7.046875 5.875 -6.703125 L 5.875 -5.359375 C 5.875 -4.503906 6.300781 -4.078125 7.15625 -4.078125 L 8.890625 -4.078125 C 9.742188 -4.078125 10.171875 -4.503906 10.171875 -5.359375 L 10.171875 -8.59375 L 2.46875 -11.109375 C 1.894531 -11.296875 1.609375 -11.691406 1.609375 -12.296875 L 1.609375 -17.84375 C 1.609375 -19.363281 2.003906 -20.515625 2.796875 -21.296875 C 3.585938 -22.078125 4.726562 -22.46875 6.21875 -22.46875 Z M 6.21875 -22.46875 "/></g></g><g style="fill:#060705;fill-opacity:1;"><g transform="translate(84.948, 62.284965)"><path style="stroke:none" d="M 6.21875 -22.46875 L 9.828125 -22.46875 C 11.335938 -22.46875 12.484375 -22.078125 13.265625 -21.296875 C 14.046875 -20.515625 14.4375 -19.363281 14.4375 -17.84375 L 14.4375 -15.71875 C 14.4375 -15.382812 14.265625 -15.21875 13.921875 -15.21875 L 10.6875 -15.21875 C 10.34375 -15.21875 10.171875 -15.382812 10.171875 -15.71875 L 10.171875 -17.078125 C 10.171875 -17.929688 9.742188 -18.359375 8.890625 -18.359375 L 7.125 -18.359375 C 6.269531 -18.359375 5.84375 -17.929688 5.84375 -17.078125 L 5.84375 -14.34375 L 13.609375 -11.84375 C 14.160156 -11.644531 14.4375 -11.25 14.4375 -10.65625 L 14.4375 -4.625 C 14.4375 -3.125 14.046875 -1.976562 13.265625 -1.1875 C 12.484375 -0.394531 11.335938 0 9.828125 0 L 6.21875 0 C 4.726562 0 3.585938 -0.394531 2.796875 -1.1875 C 2.003906 -1.976562 1.609375 -3.125 1.609375 -4.625 L 1.609375 -6.703125 C 1.609375 -7.046875 1.78125 -7.21875 2.125 -7.21875 L 5.359375 -7.21875 C 5.703125 -7.21875 5.875 -7.046875 5.875 -6.703125 L 5.875 -5.359375 C 5.875 -4.503906 6.300781 -4.078125 7.15625 -4.078125 L 8.890625 -4.078125 C 9.742188 -4.078125 10.171875 -4.503906 10.171875 -5.359375 L 10.171875 -8.59375 L 2.46875 -11.109375 C 1.894531 -11.296875 1.609375 -11.691406 1.609375 -12.296875 L 1.609375 -17.84375 C 1.609375 -19.363281 2.003906 -20.515625 2.796875 -21.296875 C 3.585938 -22.078125 4.726562 -22.46875 6.21875 -22.46875 Z M 6.21875 -22.46875 "/></g></g><g style="fill:#060705;fill-opacity:1;"><g transform="translate(100.997093, 62.284965)"><path style="stroke:none" d="M 0 4.296875 L 0 1.34375 C 0 0.914062 0.210938 0.703125 0.640625 0.703125 L 20 0.703125 C 20.425781 0.703125 20.640625 0.914062 20.640625 1.34375 L 20.640625 4.296875 C 20.640625 4.722656 20.425781 4.9375 20 4.9375 L 0.640625 4.9375 C 0.210938 4.9375 0 4.722656 0 4.296875 Z M 0 4.296875 "/></g></g><g style="fill:#060705;fill-opacity:1;"><g transform="translate(19.189492, 106.885787)"><path style="stroke:none" d="M 14.4375 -21.953125 L 14.4375 -18.75 C 14.4375 -18.40625 14.265625 -18.234375 13.921875 -18.234375 L 5.96875 -18.234375 L 5.96875 -12.734375 L 12 -12.734375 C 12.34375 -12.734375 12.515625 -12.566406 12.515625 -12.234375 L 12.515625 -9.015625 C 12.515625 -8.671875 12.34375 -8.5 12 -8.5 L 5.96875 -8.5 L 5.96875 -0.515625 C 5.96875 -0.171875 5.796875 0 5.453125 0 L 2.125 0 C 1.78125 0 1.609375 -0.171875 1.609375 -0.515625 L 1.609375 -21.953125 C 1.609375 -22.296875 1.78125 -22.46875 2.125 -22.46875 L 13.921875 -22.46875 C 14.265625 -22.46875 14.4375 -22.296875 14.4375 -21.953125 Z M 14.4375 -21.953125 "/></g></g><g style="fill:#060705;fill-opacity:1;"><g transform="translate(35.238585, 106.885787)"><path style="stroke:none" d="M 10.84375 -22.46875 L 13.796875 -22.46875 C 13.972656 -22.46875 14.125 -22.398438 14.25 -22.265625 C 14.375 -22.140625 14.4375 -21.992188 14.4375 -21.828125 L 14.4375 -4.625 C 14.4375 -3.125 14.046875 -1.976562 13.265625 -1.1875 C 12.484375 -0.394531 11.335938 0 9.828125 0 L 6.21875 0 C 4.726562 0 3.585938 -0.394531 2.796875 -1.1875 C 2.003906 -1.976562 1.609375 -3.125 1.609375 -4.625 L 1.609375 -21.828125 C 1.609375 -21.992188 1.671875 -22.140625 1.796875 -22.265625 C 1.921875 -22.398438 2.070312 -22.46875 2.25 -22.46875 L 5.328125 -22.46875 C 5.492188 -22.46875 5.640625 -22.398438 5.765625 -22.265625 C 5.898438 -22.140625 5.96875 -21.992188 5.96875 -21.828125 L 5.96875 -5.515625 C 5.96875 -4.660156 6.394531 -4.234375 7.25 -4.234375 L 8.921875 -4.234375 C 9.773438 -4.234375 10.203125 -4.660156 10.203125 -5.515625 L 10.203125 -21.828125 C 10.203125 -21.992188 10.265625 -22.140625 10.390625 -22.265625 C 10.523438 -22.398438 10.675781 -22.46875 10.84375 -22.46875 Z M 10.84375 -22.46875 "/></g></g><g style="fill:#060705;fill-opacity:1;"><g transform="translate(51.287678, 106.885787)"><path style="stroke:none" d="M 11.78125 -22.46875 L 14.796875 -22.46875 C 15.140625 -22.46875 15.3125 -22.296875 15.3125 -21.953125 L 15.3125 -0.515625 C 15.3125 -0.171875 15.140625 0 14.796875 0 L 12.265625 0 C 12.003906 0 11.8125 -0.140625 11.6875 -0.421875 L 5.65625 -12.671875 L 5.65625 -0.515625 C 5.65625 -0.171875 5.484375 0 5.140625 0 L 2.125 0 C 1.78125 0 1.609375 -0.171875 1.609375 -0.515625 L 1.609375 -21.953125 C 1.609375 -22.296875 1.78125 -22.46875 2.125 -22.46875 L 4.65625 -22.46875 C 4.90625 -22.46875 5.097656 -22.328125 5.234375 -22.046875 L 11.265625 -9.78125 L 11.265625 -21.953125 C 11.265625 -22.296875 11.4375 -22.46875 11.78125 -22.46875 Z M 11.78125 -22.46875 "/></g></g><g style="fill:#060705;fill-opacity:1;"><g transform="translate(68.203427, 106.885787)"><path style="stroke:none" d="M 1.609375 -0.515625 L 1.609375 -21.953125 C 1.609375 -22.296875 1.78125 -22.46875 2.125 -22.46875 L 9.828125 -22.46875 C 11.335938 -22.46875 12.484375 -22.070312 13.265625 -21.28125 C 14.046875 -20.488281 14.4375 -19.332031 14.4375 -17.8125 L 14.4375 -4.625 C 14.4375 -3.125 14.046875 -1.976562 13.265625 -1.1875 C 12.484375 -0.394531 11.335938 0 9.828125 0 L 2.125 0 C 1.78125 0 1.609375 -0.171875 1.609375 -0.515625 Z M 5.96875 -4.234375 L 8.921875 -4.234375 C 9.773438 -4.234375 10.203125 -4.660156 10.203125 -5.515625 L 10.203125 -16.90625 C 10.203125 -17.789062 9.773438 -18.234375 8.921875 -18.234375 L 5.96875 -18.234375 Z M 5.96875 -4.234375 "/></g></g><g style="fill:#060705;fill-opacity:1;"><g transform="translate(84.25252, 106.885787)"><path style="stroke:none" d="M 2.125 0 L 5.453125 0 C 5.796875 0 5.96875 -0.171875 5.96875 -0.515625 L 5.96875 -21.953125 C 5.96875 -22.296875 5.796875 -22.46875 5.453125 -22.46875 L 2.125 -22.46875 C 1.78125 -22.46875 1.609375 -22.296875 1.609375 -21.953125 L 1.609375 -0.515625 C 1.609375 -0.171875 1.78125 0 2.125 0 Z M 2.125 0 "/></g></g><g style="fill:#060705;fill-opacity:1;"><g transform="translate(91.827692, 106.885787)"><path style="stroke:none" d="M 11.78125 -22.46875 L 14.796875 -22.46875 C 15.140625 -22.46875 15.3125 -22.296875 15.3125 -21.953125 L 15.3125 -0.515625 C 15.3125 -0.171875 15.140625 0 14.796875 0 L 12.265625 0 C 12.003906 0 11.8125 -0.140625 11.6875 -0.421875 L 5.65625 -12.671875 L 5.65625 -0.515625 C 5.65625 -0.171875 5.484375 0 5.140625 0 L 2.125 0 C 1.78125 0 1.609375 -0.171875 1.609375 -0.515625 L 1.609375 -21.953125 C 1.609375 -22.296875 1.78125 -22.46875 2.125 -22.46875 L 4.65625 -22.46875 C 4.90625 -22.46875 5.097656 -22.328125 5.234375 -22.046875 L 11.265625 -9.78125 L 11.265625 -21.953125 C 11.265625 -22.296875 11.4375 -22.46875 11.78125 -22.46875 Z M 11.78125 -22.46875 "/></g></g><g style="fill:#060705;fill-opacity:1;"><g transform="translate(108.743441, 106.885787)"><path style="stroke:none" d="M 1.609375 -4.625 L 1.609375 -17.84375 C 1.609375 -19.363281 2.003906 -20.515625 2.796875 -21.296875 C 3.585938 -22.078125 4.726562 -22.46875 6.21875 -22.46875 L 9.828125 -22.46875 C 11.316406 -22.46875 12.457031 -22.078125 13.25 -21.296875 C 14.039062 -20.515625 14.4375 -19.363281 14.4375 -17.84375 L 14.4375 -15.46875 C 14.4375 -15.125 14.265625 -14.953125 13.921875 -14.953125 L 10.90625 -14.953125 C 10.5625 -14.953125 10.390625 -15.125 10.390625 -15.46875 L 10.390625 -17.046875 C 10.390625 -17.898438 9.960938 -18.328125 9.109375 -18.328125 L 7.0625 -18.328125 C 6.207031 -18.328125 5.78125 -17.898438 5.78125 -17.046875 L 5.78125 -5.421875 C 5.78125 -4.566406 6.207031 -4.140625 7.0625 -4.140625 L 9.109375 -4.140625 C 9.960938 -4.140625 10.390625 -4.566406 10.390625 -5.421875 L 10.390625 -8.21875 L 8.734375 -8.21875 C 8.390625 -8.21875 8.21875 -8.390625 8.21875 -8.734375 L 8.21875 -11.9375 C 8.21875 -12.28125 8.390625 -12.453125 8.734375 -12.453125 L 13.921875 -12.453125 C 14.265625 -12.453125 14.4375 -12.28125 14.4375 -11.9375 L 14.4375 -4.625 C 14.4375 -3.125 14.039062 -1.976562 13.25 -1.1875 C 12.457031 -0.394531 11.316406 0 9.828125 0 L 6.21875 0 C 4.726562 0 3.585938 -0.394531 2.796875 -1.1875 C 2.003906 -1.976562 1.609375 -3.125 1.609375 -4.625 Z M 1.609375 -4.625 "/></g></g></g></svg>