<svg xmlns="http://www.w3.org/2000/svg" xmlns:xlink="http://www.w3.org/1999/xlink" width="500" zoomAndPan="magnify" viewBox="0 0 375 374.999991" height="500" preserveAspectRatio="xMidYMid meet" version="1.2"><defs><clipPath id="93608196e8"><path d="M 25 0 L 350 0 L 350 375 L 25 375 Z M 25 0 "/></clipPath><clipPath id="9615a7c905"><path d="M -55.878906 142.882812 L 268.328125 -46.476562 L 431 232.042969 L 106.789062 421.402344 Z M -55.878906 142.882812 "/></clipPath><clipPath id="323e2cce61"><path d="M 349.546875 92.851562 L 349.859375 279.433594 L 187.8125 374.078125 L 25.453125 282.140625 L 25.140625 95.5625 L 187.1875 0.917969 Z M 349.546875 92.851562 "/></clipPath><clipPath id="32139a93de"><path d="M 55.238281 35.632812 L 319.726562 35.632812 L 319.726562 339 L 55.238281 339 Z M 55.238281 35.632812 "/></clipPath></defs><g id="6d76f2a07f"><g clip-rule="nonzero" clip-path="url(#93608196e8)"><g clip-rule="nonzero" clip-path="url(#9615a7c905)"><g clip-rule="nonzero" clip-path="url(#323e2cce61)"><path style=" stroke:none;fill-rule:nonzero;fill:#65b30e;fill-opacity:1;" d="M -55.878906 142.882812 L 268.332031 -46.476562 L 431 232.042969 L 106.789062 421.402344 Z M -55.878906 142.882812 "/></g></g></g><path style=" stroke:none;fill-rule:nonzero;fill:#87ff00;fill-opacity:1;" d="M 134.582031 135.703125 L 134.414062 135.535156 L 97.035156 172.914062 L 187.792969 263.503906 L 225.175781 226.296875 L 278.546875 172.914062 L 241.167969 135.535156 L 241.167969 135.363281 L 134.417969 135.363281 Z M 134.582031 135.703125 "/><g clip-rule="nonzero" clip-path="url(#32139a93de)"><path style=" stroke:none;fill-rule:nonzero;fill:#87ff00;fill-opacity:1;" d="M 187.453125 35.851562 L 55.269531 111.625 L 55.273438 263.175781 L 187.457031 338.949219 L 319.640625 263.175781 L 319.640625 111.625 L 187.457031 35.855469 Z M 294.375 248.683594 L 187.453125 310.308594 L 80.527344 248.683594 L 80.53125 125.765625 L 187.457031 64.136719 L 294.378906 125.765625 L 294.378906 248.683594 Z M 294.375 248.683594 "/></g><g style="fill:#b21a22;fill-opacity:1;"><g transform="translate(58.220156, 162.200432)"><path style="stroke:none" d="M 40.230469 -57.175781 L 40.230469 -48.816406 C 40.230469 -47.652344 39.863281 -46.699219 39.128906 -45.96875 C 38.394531 -45.234375 37.445312 -44.867188 36.277344 -44.867188 L 15.546875 -44.867188 L 15.546875 -47.480469 L 18.160156 -47.480469 L 18.160156 -33.1875 L 15.546875 -33.1875 L 15.546875 -35.796875 L 31.261719 -35.796875 C 32.429688 -35.796875 33.382812 -35.433594 34.113281 -34.699219 C 34.847656 -33.964844 35.214844 -33.015625 35.214844 -31.847656 L 35.214844 -23.488281 C 35.214844 -22.320312 34.847656 -21.371094 34.113281 -20.640625 C 33.382812 -19.90625 32.429688 -19.539062 31.261719 -19.539062 L 15.546875 -19.539062 L 15.546875 -22.152344 L 18.160156 -22.152344 L 18.160156 -1.335938 C 18.160156 -0.171875 17.792969 0.78125 17.0625 1.511719 C 16.328125 2.246094 15.378906 2.613281 14.210938 2.613281 L 5.515625 2.613281 C 4.351562 2.613281 3.398438 2.246094 2.667969 1.511719 C 1.933594 0.78125 1.566406 -0.171875 1.566406 -1.335938 L 1.566406 -57.175781 C 1.566406 -58.34375 1.933594 -59.292969 2.667969 -60.027344 C 3.398438 -60.761719 4.351562 -61.128906 5.515625 -61.128906 L 36.277344 -61.128906 C 37.445312 -61.128906 38.394531 -60.761719 39.128906 -60.027344 C 39.863281 -59.292969 40.230469 -58.34375 40.230469 -57.175781 Z M 35.003906 -57.175781 C 35.003906 -57.117188 35.019531 -57.035156 35.054688 -56.9375 C 35.128906 -56.714844 35.253906 -56.511719 35.433594 -56.332031 C 35.613281 -56.152344 35.816406 -56.027344 36.039062 -55.953125 C 36.140625 -55.917969 36.21875 -55.902344 36.277344 -55.902344 L 5.515625 -55.902344 C 5.578125 -55.902344 5.65625 -55.917969 5.757812 -55.953125 C 5.980469 -56.027344 6.183594 -56.152344 6.363281 -56.332031 C 6.539062 -56.511719 6.667969 -56.714844 6.742188 -56.9375 C 6.773438 -57.035156 6.792969 -57.117188 6.792969 -57.175781 L 6.792969 -1.335938 C 6.792969 -1.398438 6.773438 -1.476562 6.742188 -1.578125 C 6.667969 -1.800781 6.539062 -2.003906 6.363281 -2.183594 C 6.183594 -2.359375 5.980469 -2.488281 5.757812 -2.5625 C 5.65625 -2.597656 5.578125 -2.613281 5.515625 -2.613281 L 14.210938 -2.613281 C 14.152344 -2.613281 14.070312 -2.597656 13.96875 -2.5625 C 13.746094 -2.488281 13.546875 -2.359375 13.367188 -2.183594 C 13.1875 -2.003906 13.058594 -1.800781 12.984375 -1.578125 C 12.953125 -1.476562 12.933594 -1.398438 12.933594 -1.335938 L 12.933594 -24.765625 L 31.261719 -24.765625 C 31.203125 -24.765625 31.125 -24.746094 31.023438 -24.714844 C 30.800781 -24.640625 30.597656 -24.511719 30.417969 -24.332031 C 30.238281 -24.15625 30.113281 -23.953125 30.039062 -23.730469 C 30.003906 -23.628906 29.988281 -23.550781 29.988281 -23.488281 L 29.988281 -31.847656 C 29.988281 -31.789062 30.003906 -31.707031 30.039062 -31.609375 C 30.113281 -31.382812 30.238281 -31.183594 30.417969 -31.003906 C 30.597656 -30.824219 30.800781 -30.699219 31.023438 -30.625 C 31.125 -30.589844 31.203125 -30.574219 31.261719 -30.574219 L 12.933594 -30.574219 L 12.933594 -50.09375 L 36.277344 -50.09375 C 36.21875 -50.09375 36.140625 -50.074219 36.039062 -50.042969 C 35.816406 -49.96875 35.613281 -49.839844 35.433594 -49.660156 C 35.253906 -49.484375 35.128906 -49.28125 35.054688 -49.058594 C 35.019531 -48.957031 35.003906 -48.878906 35.003906 -48.816406 Z M 35.003906 -57.175781 "/></g></g><g style="fill:#b21a22;fill-opacity:1;"><g transform="translate(100.01467, 162.200432)"><path style="stroke:none" d="M 12.933594 -11.035156 L 12.933594 -57.175781 C 12.933594 -57.117188 12.953125 -57.035156 12.984375 -56.9375 C 13.058594 -56.714844 13.1875 -56.511719 13.367188 -56.332031 C 13.546875 -56.152344 13.746094 -56.027344 13.96875 -55.953125 C 14.070312 -55.917969 14.152344 -55.902344 14.210938 -55.902344 L 5.515625 -55.902344 C 5.578125 -55.902344 5.65625 -55.917969 5.757812 -55.953125 C 5.980469 -56.027344 6.183594 -56.152344 6.363281 -56.332031 C 6.539062 -56.511719 6.667969 -56.714844 6.742188 -56.9375 C 6.773438 -57.035156 6.792969 -57.117188 6.792969 -57.175781 L 6.792969 -1.335938 C 6.792969 -1.398438 6.773438 -1.476562 6.742188 -1.578125 C 6.667969 -1.800781 6.539062 -2.003906 6.363281 -2.183594 C 6.183594 -2.359375 5.980469 -2.488281 5.757812 -2.5625 C 5.65625 -2.597656 5.578125 -2.613281 5.515625 -2.613281 L 32.097656 -2.613281 C 32.039062 -2.613281 31.960938 -2.597656 31.859375 -2.5625 C 31.636719 -2.488281 31.433594 -2.359375 31.253906 -2.183594 C 31.074219 -2.003906 30.949219 -1.800781 30.875 -1.578125 C 30.839844 -1.476562 30.824219 -1.398438 30.824219 -1.335938 L 30.824219 -9.695312 C 30.824219 -9.636719 30.839844 -9.554688 30.875 -9.457031 C 30.949219 -9.234375 31.074219 -9.03125 31.253906 -8.851562 C 31.433594 -8.671875 31.636719 -8.546875 31.859375 -8.472656 C 31.960938 -8.4375 32.039062 -8.421875 32.097656 -8.421875 L 12.933594 -8.421875 Z M 18.160156 -11.035156 L 15.546875 -11.035156 L 15.546875 -13.648438 L 32.097656 -13.648438 C 33.265625 -13.648438 34.214844 -13.28125 34.949219 -12.546875 C 35.683594 -11.8125 36.050781 -10.863281 36.050781 -9.695312 L 36.050781 -1.335938 C 36.050781 -0.171875 35.683594 0.78125 34.949219 1.511719 C 34.214844 2.246094 33.265625 2.613281 32.097656 2.613281 L 5.515625 2.613281 C 4.351562 2.613281 3.398438 2.246094 2.667969 1.511719 C 1.933594 0.78125 1.566406 -0.171875 1.566406 -1.335938 L 1.566406 -57.175781 C 1.566406 -58.34375 1.933594 -59.292969 2.667969 -60.027344 C 3.398438 -60.761719 4.351562 -61.128906 5.515625 -61.128906 L 14.210938 -61.128906 C 15.378906 -61.128906 16.328125 -60.761719 17.0625 -60.027344 C 17.792969 -59.292969 18.160156 -58.34375 18.160156 -57.175781 Z M 18.160156 -11.035156 "/></g></g><g style="fill:#b21a22;fill-opacity:1;"><g transform="translate(137.629732, 162.200432)"><path style="stroke:none" d="M 1.566406 -12.039062 L 1.566406 -46.476562 C 1.566406 -51.164062 2.855469 -54.777344 5.4375 -57.324219 C 8.007812 -59.859375 11.601562 -61.128906 16.21875 -61.128906 L 25.578125 -61.128906 C 30.257812 -61.128906 33.867188 -59.855469 36.414062 -57.3125 C 38.957031 -54.765625 40.230469 -51.15625 40.230469 -46.476562 L 40.230469 -12.039062 C 40.230469 -7.421875 38.960938 -3.828125 36.425781 -1.257812 C 33.878906 1.324219 30.265625 2.613281 25.578125 2.613281 L 16.21875 2.613281 C 11.59375 2.613281 7.996094 1.328125 5.425781 -1.246094 C 2.851562 -3.816406 1.566406 -7.414062 1.566406 -12.039062 Z M 6.792969 -12.039062 C 6.792969 -8.859375 7.566406 -6.492188 9.121094 -4.941406 C 10.671875 -3.386719 13.039062 -2.613281 16.21875 -2.613281 L 25.578125 -2.613281 C 28.808594 -2.613281 31.183594 -3.382812 32.707031 -4.925781 C 34.238281 -6.480469 35.003906 -8.851562 35.003906 -12.039062 L 35.003906 -46.476562 C 35.003906 -49.710938 34.242188 -52.09375 32.71875 -53.617188 C 31.195312 -55.140625 28.8125 -55.902344 25.578125 -55.902344 L 16.21875 -55.902344 C 13.03125 -55.902344 10.660156 -55.136719 9.105469 -53.601562 C 7.5625 -52.082031 6.792969 -49.707031 6.792969 -46.476562 Z M 18.390625 -13.394531 L 23.738281 -13.394531 C 24.015625 -13.394531 24.226562 -13.421875 24.375 -13.472656 C 24.40625 -13.480469 24.421875 -13.488281 24.433594 -13.492188 C 24.421875 -13.488281 24.414062 -13.480469 24.402344 -13.464844 C 24.386719 -13.453125 24.378906 -13.445312 24.375 -13.433594 C 24.378906 -13.445312 24.386719 -13.460938 24.394531 -13.492188 C 24.445312 -13.640625 24.472656 -13.851562 24.472656 -14.128906 L 24.472656 -44.386719 C 24.472656 -44.660156 24.445312 -44.875 24.394531 -45.023438 C 24.386719 -45.050781 24.378906 -45.070312 24.375 -45.082031 C 24.378906 -45.070312 24.386719 -45.058594 24.402344 -45.046875 C 24.414062 -45.035156 24.421875 -45.027344 24.433594 -45.019531 C 24.421875 -45.027344 24.40625 -45.035156 24.375 -45.042969 C 24.226562 -45.09375 24.015625 -45.117188 23.738281 -45.117188 L 18.390625 -45.117188 C 18.117188 -45.117188 17.902344 -45.09375 17.753906 -45.042969 C 17.726562 -45.035156 17.707031 -45.027344 17.695312 -45.019531 C 17.707031 -45.027344 17.71875 -45.035156 17.730469 -45.046875 C 17.742188 -45.058594 17.75 -45.070312 17.757812 -45.082031 C 17.75 -45.070312 17.742188 -45.050781 17.734375 -45.023438 C 17.683594 -44.875 17.660156 -44.660156 17.660156 -44.386719 L 17.660156 -14.128906 C 17.660156 -13.851562 17.683594 -13.640625 17.734375 -13.492188 C 17.742188 -13.460938 17.75 -13.445312 17.757812 -13.433594 C 17.75 -13.445312 17.742188 -13.453125 17.730469 -13.464844 C 17.71875 -13.480469 17.707031 -13.488281 17.695312 -13.492188 C 17.707031 -13.488281 17.726562 -13.480469 17.753906 -13.472656 C 17.902344 -13.421875 18.117188 -13.394531 18.390625 -13.394531 Z M 18.390625 -8.171875 C 16.554688 -8.171875 15.101562 -8.703125 14.035156 -9.773438 C 12.96875 -10.839844 12.433594 -12.292969 12.433594 -14.128906 L 12.433594 -44.386719 C 12.433594 -46.222656 12.96875 -47.675781 14.035156 -48.742188 C 15.101562 -49.808594 16.554688 -50.34375 18.390625 -50.34375 L 23.738281 -50.34375 C 25.574219 -50.34375 27.027344 -49.808594 28.09375 -48.742188 C 29.164062 -47.675781 29.695312 -46.222656 29.695312 -44.386719 L 29.695312 -14.128906 C 29.695312 -12.292969 29.164062 -10.839844 28.09375 -9.773438 C 27.027344 -8.703125 25.574219 -8.171875 23.738281 -8.171875 Z M 18.390625 -8.171875 "/></g></g><g style="fill:#b21a22;fill-opacity:1;"><g transform="translate(179.424247, 162.200432)"><path style="stroke:none" d="M 16.21875 -61.128906 L 25.578125 -61.128906 C 30.257812 -61.128906 33.867188 -59.855469 36.414062 -57.3125 C 38.957031 -54.765625 40.230469 -51.15625 40.230469 -46.476562 L 40.230469 -40.960938 C 40.230469 -39.792969 39.863281 -38.84375 39.128906 -38.109375 C 38.394531 -37.375 37.445312 -37.011719 36.277344 -37.011719 L 27.835938 -37.011719 C 26.667969 -37.011719 25.71875 -37.375 24.984375 -38.109375 C 24.253906 -38.84375 23.886719 -39.792969 23.886719 -40.960938 L 23.886719 -44.472656 C 23.886719 -44.746094 23.859375 -44.957031 23.8125 -45.109375 C 23.800781 -45.136719 23.792969 -45.152344 23.789062 -45.164062 C 23.792969 -45.15625 23.804688 -45.144531 23.816406 -45.132812 C 23.828125 -45.117188 23.839844 -45.109375 23.847656 -45.105469 C 23.839844 -45.109375 23.820312 -45.117188 23.792969 -45.128906 C 23.640625 -45.175781 23.429688 -45.203125 23.15625 -45.203125 L 18.558594 -45.203125 C 18.28125 -45.203125 18.070312 -45.175781 17.921875 -45.128906 C 17.894531 -45.117188 17.875 -45.109375 17.863281 -45.105469 C 17.875 -45.109375 17.886719 -45.117188 17.898438 -45.132812 C 17.910156 -45.144531 17.917969 -45.15625 17.925781 -45.164062 C 17.917969 -45.152344 17.910156 -45.136719 17.902344 -45.109375 C 17.851562 -44.957031 17.828125 -44.746094 17.828125 -44.472656 L 17.828125 -37.367188 L 15.214844 -37.367188 L 16.015625 -39.851562 L 36.246094 -33.332031 C 37.535156 -32.886719 38.523438 -32.175781 39.210938 -31.199219 C 39.890625 -30.230469 40.230469 -29.082031 40.230469 -27.753906 L 40.230469 -12.039062 C 40.230469 -7.421875 38.960938 -3.828125 36.425781 -1.257812 C 33.878906 1.324219 30.265625 2.613281 25.578125 2.613281 L 16.21875 2.613281 C 11.59375 2.613281 7.996094 1.328125 5.425781 -1.246094 C 2.851562 -3.816406 1.566406 -7.414062 1.566406 -12.039062 L 1.566406 -17.472656 C 1.566406 -18.636719 1.933594 -19.589844 2.667969 -20.320312 C 3.398438 -21.054688 4.351562 -21.421875 5.515625 -21.421875 L 13.960938 -21.421875 C 15.128906 -21.421875 16.078125 -21.054688 16.808594 -20.320312 C 17.542969 -19.589844 17.910156 -18.636719 17.910156 -17.472656 L 17.910156 -13.960938 C 17.910156 -13.683594 17.933594 -13.472656 17.984375 -13.324219 C 17.992188 -13.296875 18 -13.277344 18.007812 -13.265625 C 18.003906 -13.277344 17.992188 -13.289062 17.980469 -13.300781 C 17.96875 -13.3125 17.957031 -13.320312 17.949219 -13.328125 C 17.957031 -13.320312 17.976562 -13.3125 18.003906 -13.304688 C 18.152344 -13.253906 18.367188 -13.230469 18.640625 -13.230469 L 23.15625 -13.230469 C 23.429688 -13.230469 23.640625 -13.253906 23.792969 -13.304688 C 23.820312 -13.3125 23.839844 -13.320312 23.847656 -13.328125 C 23.839844 -13.320312 23.828125 -13.3125 23.816406 -13.300781 C 23.804688 -13.289062 23.792969 -13.277344 23.789062 -13.265625 C 23.792969 -13.277344 23.800781 -13.296875 23.8125 -13.324219 C 23.859375 -13.472656 23.886719 -13.683594 23.886719 -13.960938 L 23.886719 -22.402344 L 26.5 -22.402344 L 25.691406 -19.917969 L 5.628906 -26.4375 C 4.335938 -26.867188 3.335938 -27.566406 2.632812 -28.53125 C 1.921875 -29.507812 1.566406 -30.667969 1.566406 -32.015625 L 1.566406 -46.476562 C 1.566406 -51.164062 2.855469 -54.777344 5.4375 -57.324219 C 8.007812 -59.859375 11.601562 -61.128906 16.21875 -61.128906 Z M 16.21875 -55.902344 C 13.03125 -55.902344 10.660156 -55.136719 9.105469 -53.601562 C 7.5625 -52.082031 6.792969 -49.707031 6.792969 -46.476562 L 6.792969 -32.015625 C 6.792969 -31.804688 6.8125 -31.667969 6.855469 -31.613281 C 6.902344 -31.546875 7.03125 -31.476562 7.242188 -31.40625 L 29.109375 -24.300781 L 29.109375 -13.960938 C 29.109375 -12.125 28.578125 -10.671875 27.511719 -9.605469 C 26.441406 -8.539062 24.992188 -8.003906 23.15625 -8.003906 L 18.640625 -8.003906 C 16.804688 -8.003906 15.351562 -8.539062 14.285156 -9.605469 C 13.21875 -10.671875 12.683594 -12.125 12.683594 -13.960938 L 12.683594 -17.472656 C 12.683594 -17.410156 12.703125 -17.332031 12.734375 -17.230469 C 12.808594 -17.007812 12.9375 -16.804688 13.117188 -16.625 C 13.292969 -16.445312 13.496094 -16.320312 13.71875 -16.246094 C 13.820312 -16.210938 13.898438 -16.195312 13.960938 -16.195312 L 5.515625 -16.195312 C 5.578125 -16.195312 5.65625 -16.210938 5.757812 -16.246094 C 5.980469 -16.320312 6.183594 -16.445312 6.363281 -16.625 C 6.539062 -16.804688 6.667969 -17.007812 6.742188 -17.230469 C 6.773438 -17.332031 6.792969 -17.410156 6.792969 -17.472656 L 6.792969 -12.039062 C 6.792969 -8.859375 7.566406 -6.492188 9.121094 -4.941406 C 10.671875 -3.386719 13.039062 -2.613281 16.21875 -2.613281 L 25.578125 -2.613281 C 28.808594 -2.613281 31.183594 -3.382812 32.707031 -4.925781 C 34.238281 -6.480469 35.003906 -8.851562 35.003906 -12.039062 L 35.003906 -27.753906 C 35.003906 -27.980469 34.980469 -28.128906 34.933594 -28.195312 C 34.898438 -28.25 34.796875 -28.304688 34.640625 -28.359375 L 12.601562 -35.460938 L 12.601562 -44.472656 C 12.601562 -46.308594 13.136719 -47.757812 14.203125 -48.824219 C 15.269531 -49.894531 16.722656 -50.425781 18.558594 -50.425781 L 23.15625 -50.425781 C 24.992188 -50.425781 26.441406 -49.894531 27.511719 -48.824219 C 28.578125 -47.757812 29.109375 -46.308594 29.109375 -44.472656 L 29.109375 -40.960938 C 29.109375 -41.019531 29.09375 -41.101562 29.0625 -41.199219 C 28.988281 -41.425781 28.859375 -41.625 28.679688 -41.804688 C 28.5 -41.984375 28.300781 -42.109375 28.078125 -42.183594 C 27.976562 -42.21875 27.894531 -42.234375 27.835938 -42.234375 L 36.277344 -42.234375 C 36.21875 -42.234375 36.140625 -42.21875 36.039062 -42.183594 C 35.816406 -42.109375 35.613281 -41.984375 35.433594 -41.804688 C 35.253906 -41.625 35.128906 -41.425781 35.054688 -41.199219 C 35.019531 -41.101562 35.003906 -41.019531 35.003906 -40.960938 L 35.003906 -46.476562 C 35.003906 -49.710938 34.242188 -52.09375 32.71875 -53.617188 C 31.195312 -55.140625 28.8125 -55.902344 25.578125 -55.902344 Z M 16.21875 -55.902344 "/></g></g><g style="fill:#b21a22;fill-opacity:1;"><g transform="translate(221.218761, 162.200432)"><path style="stroke:none" d="M 16.21875 -61.128906 L 25.578125 -61.128906 C 30.257812 -61.128906 33.867188 -59.855469 36.414062 -57.3125 C 38.957031 -54.765625 40.230469 -51.15625 40.230469 -46.476562 L 40.230469 -40.960938 C 40.230469 -39.792969 39.863281 -38.84375 39.128906 -38.109375 C 38.394531 -37.375 37.445312 -37.011719 36.277344 -37.011719 L 27.835938 -37.011719 C 26.667969 -37.011719 25.71875 -37.375 24.984375 -38.109375 C 24.253906 -38.84375 23.886719 -39.792969 23.886719 -40.960938 L 23.886719 -44.472656 C 23.886719 -44.746094 23.859375 -44.957031 23.8125 -45.109375 C 23.800781 -45.136719 23.792969 -45.152344 23.789062 -45.164062 C 23.792969 -45.15625 23.804688 -45.144531 23.816406 -45.132812 C 23.828125 -45.117188 23.839844 -45.109375 23.847656 -45.105469 C 23.839844 -45.109375 23.820312 -45.117188 23.792969 -45.128906 C 23.640625 -45.175781 23.429688 -45.203125 23.15625 -45.203125 L 18.558594 -45.203125 C 18.28125 -45.203125 18.070312 -45.175781 17.921875 -45.128906 C 17.894531 -45.117188 17.875 -45.109375 17.863281 -45.105469 C 17.875 -45.109375 17.886719 -45.117188 17.898438 -45.132812 C 17.910156 -45.144531 17.917969 -45.15625 17.925781 -45.164062 C 17.917969 -45.152344 17.910156 -45.136719 17.902344 -45.109375 C 17.851562 -44.957031 17.828125 -44.746094 17.828125 -44.472656 L 17.828125 -37.367188 L 15.214844 -37.367188 L 16.015625 -39.851562 L 36.246094 -33.332031 C 37.535156 -32.886719 38.523438 -32.175781 39.210938 -31.199219 C 39.890625 -30.230469 40.230469 -29.082031 40.230469 -27.753906 L 40.230469 -12.039062 C 40.230469 -7.421875 38.960938 -3.828125 36.425781 -1.257812 C 33.878906 1.324219 30.265625 2.613281 25.578125 2.613281 L 16.21875 2.613281 C 11.59375 2.613281 7.996094 1.328125 5.425781 -1.246094 C 2.851562 -3.816406 1.566406 -7.414062 1.566406 -12.039062 L 1.566406 -17.472656 C 1.566406 -18.636719 1.933594 -19.589844 2.667969 -20.320312 C 3.398438 -21.054688 4.351562 -21.421875 5.515625 -21.421875 L 13.960938 -21.421875 C 15.128906 -21.421875 16.078125 -21.054688 16.808594 -20.320312 C 17.542969 -19.589844 17.910156 -18.636719 17.910156 -17.472656 L 17.910156 -13.960938 C 17.910156 -13.683594 17.933594 -13.472656 17.984375 -13.324219 C 17.992188 -13.296875 18 -13.277344 18.007812 -13.265625 C 18.003906 -13.277344 17.992188 -13.289062 17.980469 -13.300781 C 17.96875 -13.3125 17.957031 -13.320312 17.949219 -13.328125 C 17.957031 -13.320312 17.976562 -13.3125 18.003906 -13.304688 C 18.152344 -13.253906 18.367188 -13.230469 18.640625 -13.230469 L 23.15625 -13.230469 C 23.429688 -13.230469 23.640625 -13.253906 23.792969 -13.304688 C 23.820312 -13.3125 23.839844 -13.320312 23.847656 -13.328125 C 23.839844 -13.320312 23.828125 -13.3125 23.816406 -13.300781 C 23.804688 -13.289062 23.792969 -13.277344 23.789062 -13.265625 C 23.792969 -13.277344 23.800781 -13.296875 23.8125 -13.324219 C 23.859375 -13.472656 23.886719 -13.683594 23.886719 -13.960938 L 23.886719 -22.402344 L 26.5 -22.402344 L 25.691406 -19.917969 L 5.628906 -26.4375 C 4.335938 -26.867188 3.335938 -27.566406 2.632812 -28.53125 C 1.921875 -29.507812 1.566406 -30.667969 1.566406 -32.015625 L 1.566406 -46.476562 C 1.566406 -51.164062 2.855469 -54.777344 5.4375 -57.324219 C 8.007812 -59.859375 11.601562 -61.128906 16.21875 -61.128906 Z M 16.21875 -55.902344 C 13.03125 -55.902344 10.660156 -55.136719 9.105469 -53.601562 C 7.5625 -52.082031 6.792969 -49.707031 6.792969 -46.476562 L 6.792969 -32.015625 C 6.792969 -31.804688 6.8125 -31.667969 6.855469 -31.613281 C 6.902344 -31.546875 7.03125 -31.476562 7.242188 -31.40625 L 29.109375 -24.300781 L 29.109375 -13.960938 C 29.109375 -12.125 28.578125 -10.671875 27.511719 -9.605469 C 26.441406 -8.539062 24.992188 -8.003906 23.15625 -8.003906 L 18.640625 -8.003906 C 16.804688 -8.003906 15.351562 -8.539062 14.285156 -9.605469 C 13.21875 -10.671875 12.683594 -12.125 12.683594 -13.960938 L 12.683594 -17.472656 C 12.683594 -17.410156 12.703125 -17.332031 12.734375 -17.230469 C 12.808594 -17.007812 12.9375 -16.804688 13.117188 -16.625 C 13.292969 -16.445312 13.496094 -16.320312 13.71875 -16.246094 C 13.820312 -16.210938 13.898438 -16.195312 13.960938 -16.195312 L 5.515625 -16.195312 C 5.578125 -16.195312 5.65625 -16.210938 5.757812 -16.246094 C 5.980469 -16.320312 6.183594 -16.445312 6.363281 -16.625 C 6.539062 -16.804688 6.667969 -17.007812 6.742188 -17.230469 C 6.773438 -17.332031 6.792969 -17.410156 6.792969 -17.472656 L 6.792969 -12.039062 C 6.792969 -8.859375 7.566406 -6.492188 9.121094 -4.941406 C 10.671875 -3.386719 13.039062 -2.613281 16.21875 -2.613281 L 25.578125 -2.613281 C 28.808594 -2.613281 31.183594 -3.382812 32.707031 -4.925781 C 34.238281 -6.480469 35.003906 -8.851562 35.003906 -12.039062 L 35.003906 -27.753906 C 35.003906 -27.980469 34.980469 -28.128906 34.933594 -28.195312 C 34.898438 -28.25 34.796875 -28.304688 34.640625 -28.359375 L 12.601562 -35.460938 L 12.601562 -44.472656 C 12.601562 -46.308594 13.136719 -47.757812 14.203125 -48.824219 C 15.269531 -49.894531 16.722656 -50.425781 18.558594 -50.425781 L 23.15625 -50.425781 C 24.992188 -50.425781 26.441406 -49.894531 27.511719 -48.824219 C 28.578125 -47.757812 29.109375 -46.308594 29.109375 -44.472656 L 29.109375 -40.960938 C 29.109375 -41.019531 29.09375 -41.101562 29.0625 -41.199219 C 28.988281 -41.425781 28.859375 -41.625 28.679688 -41.804688 C 28.5 -41.984375 28.300781 -42.109375 28.078125 -42.183594 C 27.976562 -42.21875 27.894531 -42.234375 27.835938 -42.234375 L 36.277344 -42.234375 C 36.21875 -42.234375 36.140625 -42.21875 36.039062 -42.183594 C 35.816406 -42.109375 35.613281 -41.984375 35.433594 -41.804688 C 35.253906 -41.625 35.128906 -41.425781 35.054688 -41.199219 C 35.019531 -41.101562 35.003906 -41.019531 35.003906 -40.960938 L 35.003906 -46.476562 C 35.003906 -49.710938 34.242188 -52.09375 32.71875 -53.617188 C 31.195312 -55.140625 28.8125 -55.902344 25.578125 -55.902344 Z M 16.21875 -55.902344 "/></g></g><g style="fill:#b21a22;fill-opacity:1;"><g transform="translate(263.013275, 162.200432)"><path style="stroke:none" d="M -2.613281 11.203125 L -2.613281 3.511719 C -2.613281 2.230469 -2.21875 1.199219 -1.429688 0.410156 C -0.640625 -0.378906 0.394531 -0.773438 1.671875 -0.773438 L 52.078125 -0.773438 C 53.355469 -0.773438 54.390625 -0.378906 55.179688 0.410156 C 55.96875 1.199219 56.363281 2.230469 56.363281 3.511719 L 56.363281 11.203125 C 56.363281 12.480469 55.96875 13.515625 55.179688 14.300781 C 54.390625 15.089844 53.355469 15.484375 52.078125 15.484375 L 1.671875 15.484375 C 0.394531 15.484375 -0.640625 15.089844 -1.429688 14.300781 C -2.21875 13.515625 -2.613281 12.480469 -2.613281 11.203125 Z M 2.613281 11.203125 C 2.613281 11.214844 2.613281 11.222656 2.613281 11.230469 C 2.613281 11.230469 2.613281 11.226562 2.613281 11.222656 C 2.609375 11.191406 2.597656 11.152344 2.582031 11.105469 C 2.523438 10.925781 2.417969 10.757812 2.265625 10.609375 C 2.113281 10.457031 1.949219 10.351562 1.765625 10.289062 C 1.722656 10.273438 1.683594 10.265625 1.648438 10.261719 C 1.644531 10.261719 1.644531 10.261719 1.644531 10.261719 C 1.652344 10.261719 1.660156 10.261719 1.671875 10.261719 L 52.078125 10.261719 C 52.089844 10.261719 52.097656 10.261719 52.105469 10.261719 C 52.105469 10.261719 52.105469 10.261719 52.101562 10.261719 C 52.066406 10.265625 52.027344 10.273438 51.984375 10.289062 C 51.800781 10.351562 51.636719 10.457031 51.484375 10.609375 C 51.332031 10.757812 51.226562 10.925781 51.167969 11.105469 C 51.152344 11.152344 51.140625 11.191406 51.136719 11.222656 C 51.136719 11.226562 51.136719 11.230469 51.136719 11.230469 C 51.136719 11.222656 51.136719 11.214844 51.136719 11.203125 L 51.136719 3.511719 C 51.136719 3.5 51.136719 3.488281 51.136719 3.480469 C 51.136719 3.480469 51.136719 3.484375 51.136719 3.488281 C 51.140625 3.523438 51.152344 3.5625 51.167969 3.605469 C 51.226562 3.785156 51.332031 3.953125 51.484375 4.105469 C 51.636719 4.253906 51.800781 4.363281 51.984375 4.421875 C 52.027344 4.4375 52.066406 4.445312 52.101562 4.453125 C 52.105469 4.453125 52.105469 4.453125 52.105469 4.453125 C 52.097656 4.453125 52.089844 4.453125 52.078125 4.453125 L 1.671875 4.453125 C 1.660156 4.453125 1.652344 4.453125 1.644531 4.453125 C 1.644531 4.453125 1.644531 4.453125 1.648438 4.453125 C 1.683594 4.445312 1.722656 4.4375 1.765625 4.421875 C 1.949219 4.363281 2.113281 4.253906 2.265625 4.105469 C 2.417969 3.953125 2.523438 3.785156 2.582031 3.605469 C 2.597656 3.5625 2.609375 3.523438 2.613281 3.488281 C 2.613281 3.484375 2.613281 3.480469 2.613281 3.480469 C 2.613281 3.488281 2.613281 3.5 2.613281 3.511719 Z M 2.613281 11.203125 "/></g></g><g style="fill:#b21a22;fill-opacity:1;"><g transform="translate(49.972643, 278.348408)"><path style="stroke:none" d="M 40.230469 -57.175781 L 40.230469 -48.816406 C 40.230469 -47.652344 39.863281 -46.699219 39.128906 -45.96875 C 38.394531 -45.234375 37.445312 -44.867188 36.277344 -44.867188 L 15.546875 -44.867188 L 15.546875 -47.480469 L 18.160156 -47.480469 L 18.160156 -33.1875 L 15.546875 -33.1875 L 15.546875 -35.796875 L 31.261719 -35.796875 C 32.429688 -35.796875 33.382812 -35.433594 34.113281 -34.699219 C 34.847656 -33.964844 35.214844 -33.015625 35.214844 -31.847656 L 35.214844 -23.488281 C 35.214844 -22.320312 34.847656 -21.371094 34.113281 -20.640625 C 33.382812 -19.90625 32.429688 -19.539062 31.261719 -19.539062 L 15.546875 -19.539062 L 15.546875 -22.152344 L 18.160156 -22.152344 L 18.160156 -1.335938 C 18.160156 -0.171875 17.792969 0.78125 17.0625 1.511719 C 16.328125 2.246094 15.378906 2.613281 14.210938 2.613281 L 5.515625 2.613281 C 4.351562 2.613281 3.398438 2.246094 2.667969 1.511719 C 1.933594 0.78125 1.566406 -0.171875 1.566406 -1.335938 L 1.566406 -57.175781 C 1.566406 -58.34375 1.933594 -59.292969 2.667969 -60.027344 C 3.398438 -60.761719 4.351562 -61.128906 5.515625 -61.128906 L 36.277344 -61.128906 C 37.445312 -61.128906 38.394531 -60.761719 39.128906 -60.027344 C 39.863281 -59.292969 40.230469 -58.34375 40.230469 -57.175781 Z M 35.003906 -57.175781 C 35.003906 -57.117188 35.019531 -57.035156 35.054688 -56.9375 C 35.128906 -56.714844 35.253906 -56.511719 35.433594 -56.332031 C 35.613281 -56.152344 35.816406 -56.027344 36.039062 -55.953125 C 36.140625 -55.917969 36.21875 -55.902344 36.277344 -55.902344 L 5.515625 -55.902344 C 5.578125 -55.902344 5.65625 -55.917969 5.757812 -55.953125 C 5.980469 -56.027344 6.183594 -56.152344 6.363281 -56.332031 C 6.539062 -56.511719 6.667969 -56.714844 6.742188 -56.9375 C 6.773438 -57.035156 6.792969 -57.117188 6.792969 -57.175781 L 6.792969 -1.335938 C 6.792969 -1.398438 6.773438 -1.476562 6.742188 -1.578125 C 6.667969 -1.800781 6.539062 -2.003906 6.363281 -2.183594 C 6.183594 -2.359375 5.980469 -2.488281 5.757812 -2.5625 C 5.65625 -2.597656 5.578125 -2.613281 5.515625 -2.613281 L 14.210938 -2.613281 C 14.152344 -2.613281 14.070312 -2.597656 13.96875 -2.5625 C 13.746094 -2.488281 13.546875 -2.359375 13.367188 -2.183594 C 13.1875 -2.003906 13.058594 -1.800781 12.984375 -1.578125 C 12.953125 -1.476562 12.933594 -1.398438 12.933594 -1.335938 L 12.933594 -24.765625 L 31.261719 -24.765625 C 31.203125 -24.765625 31.125 -24.746094 31.023438 -24.714844 C 30.800781 -24.640625 30.597656 -24.511719 30.417969 -24.332031 C 30.238281 -24.15625 30.113281 -23.953125 30.039062 -23.730469 C 30.003906 -23.628906 29.988281 -23.550781 29.988281 -23.488281 L 29.988281 -31.847656 C 29.988281 -31.789062 30.003906 -31.707031 30.039062 -31.609375 C 30.113281 -31.382812 30.238281 -31.183594 30.417969 -31.003906 C 30.597656 -30.824219 30.800781 -30.699219 31.023438 -30.625 C 31.125 -30.589844 31.203125 -30.574219 31.261719 -30.574219 L 12.933594 -30.574219 L 12.933594 -50.09375 L 36.277344 -50.09375 C 36.21875 -50.09375 36.140625 -50.074219 36.039062 -50.042969 C 35.816406 -49.96875 35.613281 -49.839844 35.433594 -49.660156 C 35.253906 -49.484375 35.128906 -49.28125 35.054688 -49.058594 C 35.019531 -48.957031 35.003906 -48.878906 35.003906 -48.816406 Z M 35.003906 -57.175781 "/></g></g><g style="fill:#b21a22;fill-opacity:1;"><g transform="translate(91.767157, 278.348408)"><path style="stroke:none" d="M 28.253906 -61.128906 L 35.945312 -61.128906 C 37.113281 -61.128906 38.117188 -60.703125 38.960938 -59.859375 C 39.808594 -59.015625 40.230469 -58.011719 40.230469 -56.84375 L 40.230469 -12.039062 C 40.230469 -7.421875 38.960938 -3.828125 36.425781 -1.257812 C 33.878906 1.324219 30.265625 2.613281 25.578125 2.613281 L 16.21875 2.613281 C 11.59375 2.613281 7.996094 1.328125 5.425781 -1.246094 C 2.851562 -3.816406 1.566406 -7.414062 1.566406 -12.039062 L 1.566406 -56.84375 C 1.566406 -58.011719 1.988281 -59.015625 2.832031 -59.859375 C 3.679688 -60.703125 4.683594 -61.128906 5.851562 -61.128906 L 13.875 -61.128906 C 15.042969 -61.128906 16.050781 -60.703125 16.894531 -59.859375 C 17.738281 -59.015625 18.160156 -58.011719 18.160156 -56.84375 L 18.160156 -14.378906 C 18.160156 -14.101562 18.1875 -13.890625 18.234375 -13.742188 C 18.246094 -13.714844 18.253906 -13.695312 18.257812 -13.683594 C 18.253906 -13.695312 18.242188 -13.707031 18.230469 -13.71875 C 18.21875 -13.730469 18.207031 -13.738281 18.199219 -13.746094 C 18.207031 -13.738281 18.226562 -13.730469 18.253906 -13.722656 C 18.40625 -13.671875 18.617188 -13.648438 18.890625 -13.648438 L 23.238281 -13.648438 C 23.511719 -13.648438 23.726562 -13.671875 23.875 -13.722656 C 23.902344 -13.730469 23.921875 -13.738281 23.933594 -13.746094 C 23.921875 -13.738281 23.910156 -13.730469 23.898438 -13.71875 C 23.886719 -13.707031 23.878906 -13.695312 23.871094 -13.683594 C 23.878906 -13.695312 23.886719 -13.714844 23.894531 -13.742188 C 23.945312 -13.890625 23.96875 -14.101562 23.96875 -14.378906 L 23.96875 -56.84375 C 23.96875 -58.011719 24.390625 -59.015625 25.238281 -59.859375 C 26.082031 -60.703125 27.085938 -61.128906 28.253906 -61.128906 Z M 28.253906 -55.902344 C 28.53125 -55.902344 28.753906 -55.988281 28.929688 -56.164062 C 29.105469 -56.339844 29.195312 -56.566406 29.195312 -56.84375 L 29.195312 -14.378906 C 29.195312 -12.542969 28.660156 -11.089844 27.59375 -10.023438 C 26.527344 -8.957031 25.074219 -8.421875 23.238281 -8.421875 L 18.890625 -8.421875 C 17.054688 -8.421875 15.605469 -8.957031 14.535156 -10.023438 C 13.46875 -11.089844 12.933594 -12.542969 12.933594 -14.378906 L 12.933594 -56.84375 C 12.933594 -56.566406 13.023438 -56.339844 13.199219 -56.164062 C 13.375 -55.988281 13.601562 -55.902344 13.875 -55.902344 L 5.851562 -55.902344 C 6.128906 -55.902344 6.351562 -55.988281 6.527344 -56.164062 C 6.703125 -56.339844 6.792969 -56.566406 6.792969 -56.84375 L 6.792969 -12.039062 C 6.792969 -8.859375 7.566406 -6.492188 9.121094 -4.941406 C 10.671875 -3.386719 13.039062 -2.613281 16.21875 -2.613281 L 25.578125 -2.613281 C 28.808594 -2.613281 31.183594 -3.382812 32.707031 -4.925781 C 34.238281 -6.480469 35.003906 -8.851562 35.003906 -12.039062 L 35.003906 -56.84375 C 35.003906 -56.566406 35.089844 -56.339844 35.265625 -56.164062 C 35.441406 -55.988281 35.667969 -55.902344 35.945312 -55.902344 Z M 28.253906 -55.902344 "/></g></g><g style="fill:#b21a22;fill-opacity:1;"><g transform="translate(133.561671, 278.348408)"><path style="stroke:none" d="M 30.679688 -61.128906 L 38.535156 -61.128906 C 39.703125 -61.128906 40.652344 -60.761719 41.386719 -60.027344 C 42.121094 -59.292969 42.484375 -58.34375 42.484375 -57.175781 L 42.484375 -1.335938 C 42.484375 -0.171875 42.121094 0.78125 41.386719 1.511719 C 40.652344 2.246094 39.703125 2.613281 38.535156 2.613281 L 31.933594 2.613281 C 31.035156 2.613281 30.230469 2.355469 29.523438 1.847656 C 28.902344 1.398438 28.414062 0.785156 28.054688 0.0078125 L 30.425781 -1.085938 L 28.082031 0.0664062 L 12.367188 -31.863281 L 14.710938 -33.019531 L 17.324219 -33.019531 L 17.324219 -1.335938 C 17.324219 -0.171875 16.957031 0.78125 16.226562 1.511719 C 15.492188 2.246094 14.542969 2.613281 13.375 2.613281 L 5.515625 2.613281 C 4.351562 2.613281 3.398438 2.246094 2.667969 1.511719 C 1.933594 0.78125 1.566406 -0.171875 1.566406 -1.335938 L 1.566406 -57.175781 C 1.566406 -58.34375 1.933594 -59.292969 2.667969 -60.027344 C 3.398438 -60.761719 4.351562 -61.128906 5.515625 -61.128906 L 12.121094 -61.128906 C 13.019531 -61.128906 13.820312 -60.871094 14.527344 -60.359375 C 15.148438 -59.914062 15.640625 -59.300781 15.996094 -58.523438 L 13.625 -57.429688 L 15.96875 -58.582031 L 31.683594 -26.648438 L 29.339844 -25.496094 L 26.726562 -25.496094 L 26.726562 -57.175781 C 26.726562 -58.34375 27.09375 -59.292969 27.828125 -60.027344 C 28.5625 -60.761719 29.511719 -61.128906 30.679688 -61.128906 Z M 30.679688 -55.902344 C 30.738281 -55.902344 30.820312 -55.917969 30.917969 -55.953125 C 31.140625 -56.027344 31.34375 -56.152344 31.523438 -56.332031 C 31.703125 -56.511719 31.828125 -56.714844 31.902344 -56.9375 C 31.9375 -57.035156 31.953125 -57.117188 31.953125 -57.175781 L 31.953125 -25.496094 L 26.996094 -24.34375 L 11.265625 -56.304688 L 11.253906 -56.332031 C 11.277344 -56.28125 11.347656 -56.210938 11.46875 -56.125 C 11.675781 -55.976562 11.890625 -55.902344 12.121094 -55.902344 L 5.515625 -55.902344 C 5.578125 -55.902344 5.65625 -55.917969 5.757812 -55.953125 C 5.980469 -56.027344 6.183594 -56.152344 6.363281 -56.332031 C 6.539062 -56.511719 6.667969 -56.714844 6.742188 -56.9375 C 6.773438 -57.035156 6.792969 -57.117188 6.792969 -57.175781 L 6.792969 -1.335938 C 6.792969 -1.398438 6.773438 -1.476562 6.742188 -1.578125 C 6.667969 -1.800781 6.539062 -2.003906 6.363281 -2.183594 C 6.183594 -2.359375 5.980469 -2.488281 5.757812 -2.5625 C 5.65625 -2.597656 5.578125 -2.613281 5.515625 -2.613281 L 13.375 -2.613281 C 13.316406 -2.613281 13.234375 -2.597656 13.132812 -2.5625 C 12.910156 -2.488281 12.710938 -2.359375 12.53125 -2.183594 C 12.351562 -2.003906 12.222656 -1.800781 12.148438 -1.578125 C 12.117188 -1.476562 12.097656 -1.398438 12.097656 -1.335938 L 12.097656 -33.019531 L 17.054688 -34.171875 L 32.785156 -2.210938 L 32.800781 -2.179688 C 32.777344 -2.234375 32.703125 -2.304688 32.585938 -2.390625 C 32.378906 -2.539062 32.160156 -2.613281 31.933594 -2.613281 L 38.535156 -2.613281 C 38.476562 -2.613281 38.394531 -2.597656 38.292969 -2.5625 C 38.070312 -2.488281 37.871094 -2.359375 37.691406 -2.183594 C 37.511719 -2.003906 37.386719 -1.800781 37.3125 -1.578125 C 37.277344 -1.476562 37.261719 -1.398438 37.261719 -1.335938 L 37.261719 -57.175781 C 37.261719 -57.117188 37.277344 -57.035156 37.3125 -56.9375 C 37.386719 -56.714844 37.511719 -56.511719 37.691406 -56.332031 C 37.871094 -56.152344 38.070312 -56.027344 38.292969 -55.953125 C 38.394531 -55.917969 38.476562 -55.902344 38.535156 -55.902344 Z M 30.679688 -55.902344 "/></g></g><g style="fill:#b21a22;fill-opacity:1;"><g transform="translate(177.613102, 278.348408)"><path style="stroke:none" d="M 1.566406 -1.335938 L 1.566406 -57.175781 C 1.566406 -58.34375 1.933594 -59.292969 2.667969 -60.027344 C 3.398438 -60.761719 4.351562 -61.128906 5.515625 -61.128906 L 25.578125 -61.128906 C 30.265625 -61.128906 33.878906 -59.835938 36.425781 -57.257812 C 38.960938 -54.6875 40.230469 -51.066406 40.230469 -46.394531 L 40.230469 -12.039062 C 40.230469 -7.421875 38.960938 -3.828125 36.425781 -1.257812 C 33.878906 1.324219 30.265625 2.613281 25.578125 2.613281 L 5.515625 2.613281 C 4.351562 2.613281 3.398438 2.246094 2.667969 1.511719 C 1.933594 0.78125 1.566406 -0.171875 1.566406 -1.335938 Z M 6.792969 -1.335938 C 6.792969 -1.398438 6.773438 -1.476562 6.742188 -1.578125 C 6.667969 -1.800781 6.539062 -2.003906 6.363281 -2.183594 C 6.183594 -2.359375 5.980469 -2.488281 5.757812 -2.5625 C 5.65625 -2.597656 5.578125 -2.613281 5.515625 -2.613281 L 25.578125 -2.613281 C 28.808594 -2.613281 31.183594 -3.382812 32.707031 -4.925781 C 34.238281 -6.480469 35.003906 -8.851562 35.003906 -12.039062 L 35.003906 -46.394531 C 35.003906 -49.636719 34.238281 -52.035156 32.707031 -53.585938 C 31.183594 -55.128906 28.808594 -55.902344 25.578125 -55.902344 L 5.515625 -55.902344 C 5.578125 -55.902344 5.65625 -55.917969 5.757812 -55.953125 C 5.980469 -56.027344 6.183594 -56.152344 6.363281 -56.332031 C 6.539062 -56.511719 6.667969 -56.714844 6.742188 -56.9375 C 6.773438 -57.035156 6.792969 -57.117188 6.792969 -57.175781 Z M 15.546875 -13.648438 L 23.238281 -13.648438 C 23.511719 -13.648438 23.726562 -13.671875 23.875 -13.722656 C 23.902344 -13.730469 23.921875 -13.738281 23.933594 -13.746094 C 23.921875 -13.738281 23.910156 -13.730469 23.898438 -13.71875 C 23.886719 -13.707031 23.878906 -13.695312 23.871094 -13.683594 C 23.878906 -13.695312 23.886719 -13.714844 23.894531 -13.742188 C 23.945312 -13.890625 23.96875 -14.101562 23.96875 -14.378906 L 23.96875 -44.054688 C 23.96875 -44.347656 23.941406 -44.578125 23.890625 -44.746094 C 23.878906 -44.78125 23.867188 -44.804688 23.855469 -44.820312 C 23.859375 -44.816406 23.867188 -44.808594 23.875 -44.800781 L 23.855469 -44.792969 C 23.710938 -44.84375 23.507812 -44.867188 23.238281 -44.867188 L 15.546875 -44.867188 L 15.546875 -47.480469 L 18.160156 -47.480469 L 18.160156 -11.035156 L 15.546875 -11.035156 Z M 12.933594 -8.421875 L 12.933594 -50.09375 L 23.238281 -50.09375 C 25.085938 -50.09375 26.546875 -49.542969 27.617188 -48.449219 C 28.667969 -47.371094 29.195312 -45.90625 29.195312 -44.054688 L 29.195312 -14.378906 C 29.195312 -12.542969 28.660156 -11.089844 27.59375 -10.023438 C 26.527344 -8.957031 25.074219 -8.421875 23.238281 -8.421875 Z M 12.933594 -8.421875 "/></g></g><g style="fill:#b21a22;fill-opacity:1;"><g transform="translate(219.407616, 278.348408)"><path style="stroke:none" d="M 5.515625 -2.613281 L 14.210938 -2.613281 C 14.152344 -2.613281 14.070312 -2.597656 13.96875 -2.5625 C 13.746094 -2.488281 13.546875 -2.359375 13.367188 -2.183594 C 13.1875 -2.003906 13.058594 -1.800781 12.984375 -1.578125 C 12.953125 -1.476562 12.933594 -1.398438 12.933594 -1.335938 L 12.933594 -57.175781 C 12.933594 -57.117188 12.953125 -57.035156 12.984375 -56.9375 C 13.058594 -56.714844 13.1875 -56.511719 13.367188 -56.332031 C 13.546875 -56.152344 13.746094 -56.027344 13.96875 -55.953125 C 14.070312 -55.917969 14.152344 -55.902344 14.210938 -55.902344 L 5.515625 -55.902344 C 5.578125 -55.902344 5.65625 -55.917969 5.757812 -55.953125 C 5.980469 -56.027344 6.183594 -56.152344 6.363281 -56.332031 C 6.539062 -56.511719 6.667969 -56.714844 6.742188 -56.9375 C 6.773438 -57.035156 6.792969 -57.117188 6.792969 -57.175781 L 6.792969 -1.335938 C 6.792969 -1.398438 6.773438 -1.476562 6.742188 -1.578125 C 6.667969 -1.800781 6.539062 -2.003906 6.363281 -2.183594 C 6.183594 -2.359375 5.980469 -2.488281 5.757812 -2.5625 C 5.65625 -2.597656 5.578125 -2.613281 5.515625 -2.613281 Z M 5.515625 2.613281 C 4.351562 2.613281 3.398438 2.246094 2.667969 1.511719 C 1.933594 0.78125 1.566406 -0.171875 1.566406 -1.335938 L 1.566406 -57.175781 C 1.566406 -58.34375 1.933594 -59.292969 2.667969 -60.027344 C 3.398438 -60.761719 4.351562 -61.128906 5.515625 -61.128906 L 14.210938 -61.128906 C 15.378906 -61.128906 16.328125 -60.761719 17.0625 -60.027344 C 17.792969 -59.292969 18.160156 -58.34375 18.160156 -57.175781 L 18.160156 -1.335938 C 18.160156 -0.171875 17.792969 0.78125 17.0625 1.511719 C 16.328125 2.246094 15.378906 2.613281 14.210938 2.613281 Z M 5.515625 2.613281 "/></g></g><g style="fill:#b21a22;fill-opacity:1;"><g transform="translate(239.134626, 278.348408)"><path style="stroke:none" d="M 30.679688 -61.128906 L 38.535156 -61.128906 C 39.703125 -61.128906 40.652344 -60.761719 41.386719 -60.027344 C 42.121094 -59.292969 42.484375 -58.34375 42.484375 -57.175781 L 42.484375 -1.335938 C 42.484375 -0.171875 42.121094 0.78125 41.386719 1.511719 C 40.652344 2.246094 39.703125 2.613281 38.535156 2.613281 L 31.933594 2.613281 C 31.035156 2.613281 30.230469 2.355469 29.523438 1.847656 C 28.902344 1.398438 28.414062 0.785156 28.054688 0.0078125 L 30.425781 -1.085938 L 28.082031 0.0664062 L 12.367188 -31.863281 L 14.710938 -33.019531 L 17.324219 -33.019531 L 17.324219 -1.335938 C 17.324219 -0.171875 16.957031 0.78125 16.226562 1.511719 C 15.492188 2.246094 14.542969 2.613281 13.375 2.613281 L 5.515625 2.613281 C 4.351562 2.613281 3.398438 2.246094 2.667969 1.511719 C 1.933594 0.78125 1.566406 -0.171875 1.566406 -1.335938 L 1.566406 -57.175781 C 1.566406 -58.34375 1.933594 -59.292969 2.667969 -60.027344 C 3.398438 -60.761719 4.351562 -61.128906 5.515625 -61.128906 L 12.121094 -61.128906 C 13.019531 -61.128906 13.820312 -60.871094 14.527344 -60.359375 C 15.148438 -59.914062 15.640625 -59.300781 15.996094 -58.523438 L 13.625 -57.429688 L 15.96875 -58.582031 L 31.683594 -26.648438 L 29.339844 -25.496094 L 26.726562 -25.496094 L 26.726562 -57.175781 C 26.726562 -58.34375 27.09375 -59.292969 27.828125 -60.027344 C 28.5625 -60.761719 29.511719 -61.128906 30.679688 -61.128906 Z M 30.679688 -55.902344 C 30.738281 -55.902344 30.820312 -55.917969 30.917969 -55.953125 C 31.140625 -56.027344 31.34375 -56.152344 31.523438 -56.332031 C 31.703125 -56.511719 31.828125 -56.714844 31.902344 -56.9375 C 31.9375 -57.035156 31.953125 -57.117188 31.953125 -57.175781 L 31.953125 -25.496094 L 26.996094 -24.34375 L 11.265625 -56.304688 L 11.253906 -56.332031 C 11.277344 -56.28125 11.347656 -56.210938 11.46875 -56.125 C 11.675781 -55.976562 11.890625 -55.902344 12.121094 -55.902344 L 5.515625 -55.902344 C 5.578125 -55.902344 5.65625 -55.917969 5.757812 -55.953125 C 5.980469 -56.027344 6.183594 -56.152344 6.363281 -56.332031 C 6.539062 -56.511719 6.667969 -56.714844 6.742188 -56.9375 C 6.773438 -57.035156 6.792969 -57.117188 6.792969 -57.175781 L 6.792969 -1.335938 C 6.792969 -1.398438 6.773438 -1.476562 6.742188 -1.578125 C 6.667969 -1.800781 6.539062 -2.003906 6.363281 -2.183594 C 6.183594 -2.359375 5.980469 -2.488281 5.757812 -2.5625 C 5.65625 -2.597656 5.578125 -2.613281 5.515625 -2.613281 L 13.375 -2.613281 C 13.316406 -2.613281 13.234375 -2.597656 13.132812 -2.5625 C 12.910156 -2.488281 12.710938 -2.359375 12.53125 -2.183594 C 12.351562 -2.003906 12.222656 -1.800781 12.148438 -1.578125 C 12.117188 -1.476562 12.097656 -1.398438 12.097656 -1.335938 L 12.097656 -33.019531 L 17.054688 -34.171875 L 32.785156 -2.210938 L 32.800781 -2.179688 C 32.777344 -2.234375 32.703125 -2.304688 32.585938 -2.390625 C 32.378906 -2.539062 32.160156 -2.613281 31.933594 -2.613281 L 38.535156 -2.613281 C 38.476562 -2.613281 38.394531 -2.597656 38.292969 -2.5625 C 38.070312 -2.488281 37.871094 -2.359375 37.691406 -2.183594 C 37.511719 -2.003906 37.386719 -1.800781 37.3125 -1.578125 C 37.277344 -1.476562 37.261719 -1.398438 37.261719 -1.335938 L 37.261719 -57.175781 C 37.261719 -57.117188 37.277344 -57.035156 37.3125 -56.9375 C 37.386719 -56.714844 37.511719 -56.511719 37.691406 -56.332031 C 37.871094 -56.152344 38.070312 -56.027344 38.292969 -55.953125 C 38.394531 -55.917969 38.476562 -55.902344 38.535156 -55.902344 Z M 30.679688 -55.902344 "/></g></g><g style="fill:#b21a22;fill-opacity:1;"><g transform="translate(283.186057, 278.348408)"><path style="stroke:none" d="M 1.566406 -12.039062 L 1.566406 -46.476562 C 1.566406 -51.164062 2.855469 -54.777344 5.4375 -57.324219 C 8.007812 -59.859375 11.601562 -61.128906 16.21875 -61.128906 L 25.578125 -61.128906 C 30.195312 -61.128906 33.789062 -59.859375 36.359375 -57.324219 C 38.9375 -54.777344 40.230469 -51.164062 40.230469 -46.476562 L 40.230469 -40.292969 C 40.230469 -39.125 39.863281 -38.175781 39.128906 -37.441406 C 38.394531 -36.707031 37.445312 -36.339844 36.277344 -36.339844 L 28.421875 -36.339844 C 27.253906 -36.339844 26.304688 -36.707031 25.570312 -37.441406 C 24.835938 -38.175781 24.472656 -39.125 24.472656 -40.292969 L 24.472656 -44.386719 C 24.472656 -44.660156 24.445312 -44.875 24.394531 -45.023438 C 24.386719 -45.050781 24.378906 -45.070312 24.375 -45.082031 C 24.378906 -45.070312 24.386719 -45.058594 24.402344 -45.046875 C 24.414062 -45.035156 24.421875 -45.027344 24.433594 -45.019531 C 24.421875 -45.027344 24.40625 -45.035156 24.375 -45.042969 C 24.226562 -45.09375 24.015625 -45.117188 23.738281 -45.117188 L 18.390625 -45.117188 C 18.117188 -45.117188 17.902344 -45.09375 17.753906 -45.042969 C 17.726562 -45.035156 17.707031 -45.027344 17.695312 -45.019531 C 17.707031 -45.027344 17.71875 -45.035156 17.730469 -45.046875 C 17.742188 -45.058594 17.75 -45.070312 17.757812 -45.082031 C 17.75 -45.070312 17.742188 -45.050781 17.734375 -45.023438 C 17.683594 -44.875 17.660156 -44.660156 17.660156 -44.386719 L 17.660156 -14.128906 C 17.660156 -13.851562 17.683594 -13.640625 17.734375 -13.492188 C 17.742188 -13.460938 17.75 -13.445312 17.757812 -13.433594 C 17.75 -13.445312 17.742188 -13.453125 17.730469 -13.464844 C 17.71875 -13.480469 17.707031 -13.488281 17.695312 -13.492188 C 17.707031 -13.488281 17.726562 -13.480469 17.753906 -13.472656 C 17.902344 -13.421875 18.117188 -13.394531 18.390625 -13.394531 L 23.738281 -13.394531 C 24.015625 -13.394531 24.226562 -13.421875 24.375 -13.472656 C 24.40625 -13.480469 24.421875 -13.488281 24.433594 -13.492188 C 24.421875 -13.488281 24.414062 -13.480469 24.402344 -13.464844 C 24.386719 -13.453125 24.378906 -13.445312 24.375 -13.433594 C 24.378906 -13.445312 24.386719 -13.460938 24.394531 -13.492188 C 24.445312 -13.640625 24.472656 -13.851562 24.472656 -14.128906 L 24.472656 -21.398438 L 27.082031 -21.398438 L 27.082031 -18.785156 L 22.738281 -18.785156 C 21.570312 -18.785156 20.621094 -19.152344 19.886719 -19.886719 C 19.152344 -20.621094 18.785156 -21.570312 18.785156 -22.738281 L 18.785156 -31.097656 C 18.785156 -32.261719 19.152344 -33.214844 19.886719 -33.945312 C 20.621094 -34.679688 21.570312 -35.046875 22.738281 -35.046875 L 36.277344 -35.046875 C 37.445312 -35.046875 38.394531 -34.679688 39.128906 -33.945312 C 39.863281 -33.214844 40.230469 -32.261719 40.230469 -31.097656 L 40.230469 -12.039062 C 40.230469 -7.414062 38.941406 -3.816406 36.371094 -1.246094 C 33.800781 1.328125 30.203125 2.613281 25.578125 2.613281 L 16.21875 2.613281 C 11.59375 2.613281 7.996094 1.328125 5.425781 -1.246094 C 2.851562 -3.816406 1.566406 -7.414062 1.566406 -12.039062 Z M 6.792969 -12.039062 C 6.792969 -8.859375 7.566406 -6.492188 9.121094 -4.941406 C 10.671875 -3.386719 13.039062 -2.613281 16.21875 -2.613281 L 25.578125 -2.613281 C 28.757812 -2.613281 31.125 -3.386719 32.675781 -4.941406 C 34.226562 -6.492188 35.003906 -8.859375 35.003906 -12.039062 L 35.003906 -31.097656 C 35.003906 -31.035156 35.019531 -30.957031 35.054688 -30.855469 C 35.128906 -30.632812 35.253906 -30.429688 35.433594 -30.25 C 35.613281 -30.074219 35.816406 -29.945312 36.039062 -29.871094 C 36.140625 -29.839844 36.21875 -29.820312 36.277344 -29.820312 L 22.738281 -29.820312 C 22.796875 -29.820312 22.878906 -29.839844 22.976562 -29.871094 C 23.199219 -29.945312 23.402344 -30.074219 23.582031 -30.25 C 23.761719 -30.429688 23.886719 -30.632812 23.960938 -30.855469 C 23.996094 -30.957031 24.011719 -31.035156 24.011719 -31.097656 L 24.011719 -22.738281 C 24.011719 -22.796875 23.996094 -22.878906 23.960938 -22.976562 C 23.886719 -23.199219 23.761719 -23.402344 23.582031 -23.582031 C 23.402344 -23.761719 23.199219 -23.886719 22.976562 -23.960938 C 22.878906 -23.996094 22.796875 -24.011719 22.738281 -24.011719 L 29.695312 -24.011719 L 29.695312 -14.128906 C 29.695312 -12.292969 29.164062 -10.839844 28.09375 -9.773438 C 27.027344 -8.703125 25.574219 -8.171875 23.738281 -8.171875 L 18.390625 -8.171875 C 16.554688 -8.171875 15.101562 -8.703125 14.035156 -9.773438 C 12.96875 -10.839844 12.433594 -12.292969 12.433594 -14.128906 L 12.433594 -44.386719 C 12.433594 -46.222656 12.96875 -47.675781 14.035156 -48.742188 C 15.101562 -49.808594 16.554688 -50.34375 18.390625 -50.34375 L 23.738281 -50.34375 C 25.574219 -50.34375 27.027344 -49.808594 28.09375 -48.742188 C 29.164062 -47.675781 29.695312 -46.222656 29.695312 -44.386719 L 29.695312 -40.292969 C 29.695312 -40.351562 29.679688 -40.429688 29.644531 -40.53125 C 29.570312 -40.753906 29.445312 -40.957031 29.265625 -41.136719 C 29.085938 -41.316406 28.886719 -41.441406 28.664062 -41.515625 C 28.5625 -41.550781 28.480469 -41.566406 28.421875 -41.566406 L 36.277344 -41.566406 C 36.21875 -41.566406 36.140625 -41.550781 36.039062 -41.515625 C 35.816406 -41.441406 35.613281 -41.316406 35.433594 -41.136719 C 35.253906 -40.957031 35.128906 -40.753906 35.054688 -40.53125 C 35.019531 -40.429688 35.003906 -40.351562 35.003906 -40.292969 L 35.003906 -46.476562 C 35.003906 -49.707031 34.230469 -52.082031 32.6875 -53.601562 C 31.136719 -55.136719 28.765625 -55.902344 25.578125 -55.902344 L 16.21875 -55.902344 C 13.03125 -55.902344 10.660156 -55.136719 9.105469 -53.601562 C 7.5625 -52.082031 6.792969 -49.707031 6.792969 -46.476562 Z M 6.792969 -12.039062 "/></g></g><g style="fill:#060705;fill-opacity:1;"><g transform="translate(58.220156, 162.200432)"><path style="stroke:none" d="M 37.625 -57.171875 L 37.625 -48.8125 C 37.625 -47.925781 37.175781 -47.484375 36.28125 -47.484375 L 15.546875 -47.484375 L 15.546875 -33.1875 L 31.265625 -33.1875 C 32.160156 -33.1875 32.609375 -32.738281 32.609375 -31.84375 L 32.609375 -23.484375 C 32.609375 -22.597656 32.160156 -22.15625 31.265625 -22.15625 L 15.546875 -22.15625 L 15.546875 -1.34375 C 15.546875 -0.445312 15.101562 0 14.21875 0 L 5.515625 0 C 4.628906 0 4.1875 -0.445312 4.1875 -1.34375 L 4.1875 -57.171875 C 4.1875 -58.066406 4.628906 -58.515625 5.515625 -58.515625 L 36.28125 -58.515625 C 37.175781 -58.515625 37.625 -58.066406 37.625 -57.171875 Z M 37.625 -57.171875 "/></g></g><g style="fill:#060705;fill-opacity:1;"><g transform="translate(100.01467, 162.200432)"><path style="stroke:none" d="M 15.546875 -11.03125 L 15.546875 -57.171875 C 15.546875 -58.066406 15.101562 -58.515625 14.21875 -58.515625 L 5.515625 -58.515625 C 4.628906 -58.515625 4.1875 -58.066406 4.1875 -57.171875 L 4.1875 -1.34375 C 4.1875 -0.445312 4.628906 0 5.515625 0 L 32.09375 0 C 32.988281 0 33.4375 -0.445312 33.4375 -1.34375 L 33.4375 -9.703125 C 33.4375 -10.585938 32.988281 -11.03125 32.09375 -11.03125 Z M 15.546875 -11.03125 "/></g></g><g style="fill:#060705;fill-opacity:1;"><g transform="translate(137.629732, 162.200432)"><path style="stroke:none" d="M 4.1875 -12.03125 L 4.1875 -46.484375 C 4.1875 -50.429688 5.210938 -53.421875 7.265625 -55.453125 C 9.328125 -57.492188 12.3125 -58.515625 16.21875 -58.515625 L 25.578125 -58.515625 C 29.535156 -58.515625 32.53125 -57.492188 34.5625 -55.453125 C 36.601562 -53.421875 37.625 -50.429688 37.625 -46.484375 L 37.625 -12.03125 C 37.625 -8.132812 36.601562 -5.15625 34.5625 -3.09375 C 32.53125 -1.03125 29.535156 0 25.578125 0 L 16.21875 0 C 12.3125 0 9.328125 -1.03125 7.265625 -3.09375 C 5.210938 -5.15625 4.1875 -8.132812 4.1875 -12.03125 Z M 18.390625 -10.78125 L 23.734375 -10.78125 C 25.960938 -10.78125 27.078125 -11.894531 27.078125 -14.125 L 27.078125 -44.390625 C 27.078125 -46.617188 25.960938 -47.734375 23.734375 -47.734375 L 18.390625 -47.734375 C 16.160156 -47.734375 15.046875 -46.617188 15.046875 -44.390625 L 15.046875 -14.125 C 15.046875 -11.894531 16.160156 -10.78125 18.390625 -10.78125 Z M 18.390625 -10.78125 "/></g></g><g style="fill:#060705;fill-opacity:1;"><g transform="translate(179.424247, 162.200432)"><path style="stroke:none" d="M 16.21875 -58.515625 L 25.578125 -58.515625 C 29.535156 -58.515625 32.53125 -57.492188 34.5625 -55.453125 C 36.601562 -53.421875 37.625 -50.429688 37.625 -46.484375 L 37.625 -40.96875 C 37.625 -40.070312 37.175781 -39.625 36.28125 -39.625 L 27.84375 -39.625 C 26.945312 -39.625 26.5 -40.070312 26.5 -40.96875 L 26.5 -44.46875 C 26.5 -46.695312 25.382812 -47.8125 23.15625 -47.8125 L 18.5625 -47.8125 C 16.332031 -47.8125 15.21875 -46.695312 15.21875 -44.46875 L 15.21875 -37.359375 L 35.4375 -30.84375 C 36.894531 -30.34375 37.625 -29.3125 37.625 -27.75 L 37.625 -12.03125 C 37.625 -8.132812 36.601562 -5.15625 34.5625 -3.09375 C 32.53125 -1.03125 29.535156 0 25.578125 0 L 16.21875 0 C 12.3125 0 9.328125 -1.03125 7.265625 -3.09375 C 5.210938 -5.15625 4.1875 -8.132812 4.1875 -12.03125 L 4.1875 -17.46875 C 4.1875 -18.363281 4.628906 -18.8125 5.515625 -18.8125 L 13.953125 -18.8125 C 14.847656 -18.8125 15.296875 -18.363281 15.296875 -17.46875 L 15.296875 -13.953125 C 15.296875 -11.722656 16.410156 -10.609375 18.640625 -10.609375 L 23.15625 -10.609375 C 25.382812 -10.609375 26.5 -11.722656 26.5 -13.953125 L 26.5 -22.40625 L 6.4375 -28.921875 C 4.9375 -29.421875 4.1875 -30.453125 4.1875 -32.015625 L 4.1875 -46.484375 C 4.1875 -50.429688 5.210938 -53.421875 7.265625 -55.453125 C 9.328125 -57.492188 12.3125 -58.515625 16.21875 -58.515625 Z M 16.21875 -58.515625 "/></g></g><g style="fill:#060705;fill-opacity:1;"><g transform="translate(221.218761, 162.200432)"><path style="stroke:none" d="M 16.21875 -58.515625 L 25.578125 -58.515625 C 29.535156 -58.515625 32.53125 -57.492188 34.5625 -55.453125 C 36.601562 -53.421875 37.625 -50.429688 37.625 -46.484375 L 37.625 -40.96875 C 37.625 -40.070312 37.175781 -39.625 36.28125 -39.625 L 27.84375 -39.625 C 26.945312 -39.625 26.5 -40.070312 26.5 -40.96875 L 26.5 -44.46875 C 26.5 -46.695312 25.382812 -47.8125 23.15625 -47.8125 L 18.5625 -47.8125 C 16.332031 -47.8125 15.21875 -46.695312 15.21875 -44.46875 L 15.21875 -37.359375 L 35.4375 -30.84375 C 36.894531 -30.34375 37.625 -29.3125 37.625 -27.75 L 37.625 -12.03125 C 37.625 -8.132812 36.601562 -5.15625 34.5625 -3.09375 C 32.53125 -1.03125 29.535156 0 25.578125 0 L 16.21875 0 C 12.3125 0 9.328125 -1.03125 7.265625 -3.09375 C 5.210938 -5.15625 4.1875 -8.132812 4.1875 -12.03125 L 4.1875 -17.46875 C 4.1875 -18.363281 4.628906 -18.8125 5.515625 -18.8125 L 13.953125 -18.8125 C 14.847656 -18.8125 15.296875 -18.363281 15.296875 -17.46875 L 15.296875 -13.953125 C 15.296875 -11.722656 16.410156 -10.609375 18.640625 -10.609375 L 23.15625 -10.609375 C 25.382812 -10.609375 26.5 -11.722656 26.5 -13.953125 L 26.5 -22.40625 L 6.4375 -28.921875 C 4.9375 -29.421875 4.1875 -30.453125 4.1875 -32.015625 L 4.1875 -46.484375 C 4.1875 -50.429688 5.210938 -53.421875 7.265625 -55.453125 C 9.328125 -57.492188 12.3125 -58.515625 16.21875 -58.515625 Z M 16.21875 -58.515625 "/></g></g><g style="fill:#060705;fill-opacity:1;"><g transform="translate(263.013275, 162.200432)"><path style="stroke:none" d="M 0 11.203125 L 0 3.515625 C 0 2.398438 0.554688 1.84375 1.671875 1.84375 L 52.078125 1.84375 C 53.191406 1.84375 53.75 2.398438 53.75 3.515625 L 53.75 11.203125 C 53.75 12.316406 53.191406 12.875 52.078125 12.875 L 1.671875 12.875 C 0.554688 12.875 0 12.316406 0 11.203125 Z M 0 11.203125 "/></g></g><g style="fill:#060705;fill-opacity:1;"><g transform="translate(49.972643, 278.348408)"><path style="stroke:none" d="M 37.625 -57.171875 L 37.625 -48.8125 C 37.625 -47.925781 37.175781 -47.484375 36.28125 -47.484375 L 15.546875 -47.484375 L 15.546875 -33.1875 L 31.265625 -33.1875 C 32.160156 -33.1875 32.609375 -32.738281 32.609375 -31.84375 L 32.609375 -23.484375 C 32.609375 -22.597656 32.160156 -22.15625 31.265625 -22.15625 L 15.546875 -22.15625 L 15.546875 -1.34375 C 15.546875 -0.445312 15.101562 0 14.21875 0 L 5.515625 0 C 4.628906 0 4.1875 -0.445312 4.1875 -1.34375 L 4.1875 -57.171875 C 4.1875 -58.066406 4.628906 -58.515625 5.515625 -58.515625 L 36.28125 -58.515625 C 37.175781 -58.515625 37.625 -58.066406 37.625 -57.171875 Z M 37.625 -57.171875 "/></g></g><g style="fill:#060705;fill-opacity:1;"><g transform="translate(91.767157, 278.348408)"><path style="stroke:none" d="M 28.25 -58.515625 L 35.953125 -58.515625 C 36.390625 -58.515625 36.773438 -58.347656 37.109375 -58.015625 C 37.453125 -57.679688 37.625 -57.289062 37.625 -56.84375 L 37.625 -12.03125 C 37.625 -8.132812 36.601562 -5.15625 34.5625 -3.09375 C 32.53125 -1.03125 29.535156 0 25.578125 0 L 16.21875 0 C 12.3125 0 9.328125 -1.03125 7.265625 -3.09375 C 5.210938 -5.15625 4.1875 -8.132812 4.1875 -12.03125 L 4.1875 -56.84375 C 4.1875 -57.289062 4.351562 -57.679688 4.6875 -58.015625 C 5.019531 -58.347656 5.410156 -58.515625 5.859375 -58.515625 L 13.875 -58.515625 C 14.320312 -58.515625 14.710938 -58.347656 15.046875 -58.015625 C 15.378906 -57.679688 15.546875 -57.289062 15.546875 -56.84375 L 15.546875 -14.375 C 15.546875 -12.144531 16.660156 -11.03125 18.890625 -11.03125 L 23.234375 -11.03125 C 25.460938 -11.03125 26.578125 -12.144531 26.578125 -14.375 L 26.578125 -56.84375 C 26.578125 -57.289062 26.742188 -57.679688 27.078125 -58.015625 C 27.421875 -58.347656 27.8125 -58.515625 28.25 -58.515625 Z M 28.25 -58.515625 "/></g></g><g style="fill:#060705;fill-opacity:1;"><g transform="translate(133.561671, 278.348408)"><path style="stroke:none" d="M 30.671875 -58.515625 L 38.53125 -58.515625 C 39.425781 -58.515625 39.875 -58.066406 39.875 -57.171875 L 39.875 -1.34375 C 39.875 -0.445312 39.425781 0 38.53125 0 L 31.9375 0 C 31.269531 0 30.765625 -0.363281 30.421875 -1.09375 L 14.71875 -33.015625 L 14.71875 -1.34375 C 14.71875 -0.445312 14.269531 0 13.375 0 L 5.515625 0 C 4.628906 0 4.1875 -0.445312 4.1875 -1.34375 L 4.1875 -57.171875 C 4.1875 -58.066406 4.628906 -58.515625 5.515625 -58.515625 L 12.125 -58.515625 C 12.789062 -58.515625 13.289062 -58.148438 13.625 -57.421875 L 29.34375 -25.5 L 29.34375 -57.171875 C 29.34375 -58.066406 29.785156 -58.515625 30.671875 -58.515625 Z M 30.671875 -58.515625 "/></g></g><g style="fill:#060705;fill-opacity:1;"><g transform="translate(177.613102, 278.348408)"><path style="stroke:none" d="M 4.1875 -1.34375 L 4.1875 -57.171875 C 4.1875 -58.066406 4.628906 -58.515625 5.515625 -58.515625 L 25.578125 -58.515625 C 29.535156 -58.515625 32.53125 -57.484375 34.5625 -55.421875 C 36.601562 -53.359375 37.625 -50.347656 37.625 -46.390625 L 37.625 -12.03125 C 37.625 -8.132812 36.601562 -5.15625 34.5625 -3.09375 C 32.53125 -1.03125 29.535156 0 25.578125 0 L 5.515625 0 C 4.628906 0 4.1875 -0.445312 4.1875 -1.34375 Z M 15.546875 -11.03125 L 23.234375 -11.03125 C 25.460938 -11.03125 26.578125 -12.144531 26.578125 -14.375 L 26.578125 -44.046875 C 26.578125 -46.335938 25.460938 -47.484375 23.234375 -47.484375 L 15.546875 -47.484375 Z M 15.546875 -11.03125 "/></g></g><g style="fill:#060705;fill-opacity:1;"><g transform="translate(219.407616, 278.348408)"><path style="stroke:none" d="M 5.515625 0 L 14.21875 0 C 15.101562 0 15.546875 -0.445312 15.546875 -1.34375 L 15.546875 -57.171875 C 15.546875 -58.066406 15.101562 -58.515625 14.21875 -58.515625 L 5.515625 -58.515625 C 4.628906 -58.515625 4.1875 -58.066406 4.1875 -57.171875 L 4.1875 -1.34375 C 4.1875 -0.445312 4.628906 0 5.515625 0 Z M 5.515625 0 "/></g></g><g style="fill:#060705;fill-opacity:1;"><g transform="translate(239.134626, 278.348408)"><path style="stroke:none" d="M 30.671875 -58.515625 L 38.53125 -58.515625 C 39.425781 -58.515625 39.875 -58.066406 39.875 -57.171875 L 39.875 -1.34375 C 39.875 -0.445312 39.425781 0 38.53125 0 L 31.9375 0 C 31.269531 0 30.765625 -0.363281 30.421875 -1.09375 L 14.71875 -33.015625 L 14.71875 -1.34375 C 14.71875 -0.445312 14.269531 0 13.375 0 L 5.515625 0 C 4.628906 0 4.1875 -0.445312 4.1875 -1.34375 L 4.1875 -57.171875 C 4.1875 -58.066406 4.628906 -58.515625 5.515625 -58.515625 L 12.125 -58.515625 C 12.789062 -58.515625 13.289062 -58.148438 13.625 -57.421875 L 29.34375 -25.5 L 29.34375 -57.171875 C 29.34375 -58.066406 29.785156 -58.515625 30.671875 -58.515625 Z M 30.671875 -58.515625 "/></g></g><g style="fill:#060705;fill-opacity:1;"><g transform="translate(283.186057, 278.348408)"><path style="stroke:none" d="M 4.1875 -12.03125 L 4.1875 -46.484375 C 4.1875 -50.429688 5.210938 -53.421875 7.265625 -55.453125 C 9.328125 -57.492188 12.3125 -58.515625 16.21875 -58.515625 L 25.578125 -58.515625 C 29.484375 -58.515625 32.46875 -57.492188 34.53125 -55.453125 C 36.59375 -53.421875 37.625 -50.429688 37.625 -46.484375 L 37.625 -40.296875 C 37.625 -39.398438 37.175781 -38.953125 36.28125 -38.953125 L 28.421875 -38.953125 C 27.523438 -38.953125 27.078125 -39.398438 27.078125 -40.296875 L 27.078125 -44.390625 C 27.078125 -46.617188 25.960938 -47.734375 23.734375 -47.734375 L 18.390625 -47.734375 C 16.160156 -47.734375 15.046875 -46.617188 15.046875 -44.390625 L 15.046875 -14.125 C 15.046875 -11.894531 16.160156 -10.78125 18.390625 -10.78125 L 23.734375 -10.78125 C 25.960938 -10.78125 27.078125 -11.894531 27.078125 -14.125 L 27.078125 -21.40625 L 22.734375 -21.40625 C 21.847656 -21.40625 21.40625 -21.847656 21.40625 -22.734375 L 21.40625 -31.09375 C 21.40625 -31.988281 21.847656 -32.4375 22.734375 -32.4375 L 36.28125 -32.4375 C 37.175781 -32.4375 37.625 -31.988281 37.625 -31.09375 L 37.625 -12.03125 C 37.625 -8.132812 36.59375 -5.15625 34.53125 -3.09375 C 32.46875 -1.03125 29.484375 0 25.578125 0 L 16.21875 0 C 12.3125 0 9.328125 -1.03125 7.265625 -3.09375 C 5.210938 -5.15625 4.1875 -8.132812 4.1875 -12.03125 Z M 4.1875 -12.03125 "/></g></g></g></svg>