<svg xmlns="http://www.w3.org/2000/svg" xmlns:xlink="http://www.w3.org/1999/xlink" width="192" zoomAndPan="magnify" viewBox="0 0 144 143.999998" height="192" preserveAspectRatio="xMidYMid meet" version="1.2"><defs><clipPath id="c7124c7311"><path d="M 9 0 L 135 0 L 135 144 L 9 144 Z M 9 0 "/></clipPath><clipPath id="788372e841"><path d="M -21.457031 54.867188 L 103.039062 -17.847656 L 165.503906 89.105469 L 41.007812 161.816406 Z M -21.457031 54.867188 "/></clipPath><clipPath id="af4aba86a1"><path d="M 134.226562 35.65625 L 134.347656 107.300781 L 72.121094 143.644531 L 9.773438 108.34375 L 9.65625 36.695312 L 71.878906 0.351562 Z M 134.226562 35.65625 "/></clipPath><clipPath id="9adca3b7fc"><path d="M 21.210938 13.683594 L 122.773438 13.683594 L 122.773438 130.261719 L 21.210938 130.261719 Z M 21.210938 13.683594 "/></clipPath></defs><g id="ac824c89d9"><g clip-rule="nonzero" clip-path="url(#c7124c7311)"><g clip-rule="nonzero" clip-path="url(#788372e841)"><g clip-rule="nonzero" clip-path="url(#af4aba86a1)"><path style=" stroke:none;fill-rule:nonzero;fill:#65b30e;fill-opacity:1;" d="M -21.457031 54.867188 L 103.039062 -17.847656 L 165.503906 89.105469 L 41.007812 161.816406 Z M -21.457031 54.867188 "/></g></g></g><path style=" stroke:none;fill-rule:nonzero;fill:#87ff00;fill-opacity:1;" d="M 51.679688 52.109375 L 51.613281 52.046875 L 37.261719 66.398438 L 72.113281 101.183594 L 86.46875 86.898438 L 106.960938 66.398438 L 92.609375 52.046875 L 92.609375 51.980469 L 51.617188 51.980469 Z M 51.679688 52.109375 "/><g clip-rule="nonzero" clip-path="url(#9adca3b7fc)"><path style=" stroke:none;fill-rule:nonzero;fill:#87ff00;fill-opacity:1;" d="M 71.980469 13.765625 L 21.222656 42.863281 L 21.226562 101.058594 L 71.984375 130.15625 L 122.742188 101.058594 L 122.742188 42.863281 L 71.984375 13.769531 Z M 113.039062 95.496094 L 71.980469 119.160156 L 30.921875 95.496094 L 30.925781 48.292969 L 71.984375 24.628906 L 113.042969 48.292969 L 113.042969 95.492188 Z M 113.039062 95.496094 "/></g><g style="fill:#b21a22;fill-opacity:1;"><g transform="translate(21.157784, 61.64496)"><path style="stroke:none" d="M 6.605469 -24.894531 L 10.417969 -24.894531 C 12.320312 -24.894531 13.792969 -24.375 14.828125 -23.339844 C 15.863281 -22.304688 16.382812 -20.832031 16.382812 -18.925781 L 16.382812 -16.679688 C 16.382812 -16.207031 16.234375 -15.820312 15.933594 -15.519531 C 15.636719 -15.222656 15.25 -15.070312 14.773438 -15.070312 L 11.335938 -15.070312 C 10.859375 -15.070312 10.472656 -15.222656 10.175781 -15.519531 C 9.875 -15.820312 9.726562 -16.207031 9.726562 -16.679688 L 9.726562 -18.109375 C 9.726562 -18.222656 9.71875 -18.308594 9.695312 -18.371094 C 9.691406 -18.382812 9.691406 -18.390625 9.6875 -18.394531 C 9.691406 -18.390625 9.695312 -18.382812 9.699219 -18.378906 C 9.703125 -18.375 9.707031 -18.371094 9.710938 -18.367188 C 9.707031 -18.371094 9.699219 -18.375 9.6875 -18.378906 C 9.628906 -18.398438 9.542969 -18.410156 9.429688 -18.410156 L 7.558594 -18.410156 C 7.445312 -18.410156 7.359375 -18.398438 7.296875 -18.378906 C 7.285156 -18.375 7.277344 -18.371094 7.273438 -18.367188 C 7.277344 -18.371094 7.285156 -18.375 7.289062 -18.378906 C 7.292969 -18.382812 7.296875 -18.390625 7.300781 -18.394531 C 7.296875 -18.390625 7.292969 -18.382812 7.289062 -18.371094 C 7.269531 -18.308594 7.257812 -18.222656 7.257812 -18.109375 L 7.257812 -15.21875 L 6.195312 -15.21875 L 6.523438 -16.230469 L 14.761719 -13.574219 C 15.285156 -13.390625 15.6875 -13.101562 15.96875 -12.707031 C 16.246094 -12.3125 16.382812 -11.84375 16.382812 -11.300781 L 16.382812 -4.902344 C 16.382812 -3.023438 15.867188 -1.558594 14.832031 -0.511719 C 13.796875 0.539062 12.324219 1.0625 10.417969 1.0625 L 6.605469 1.0625 C 4.722656 1.0625 3.257812 0.539062 2.210938 -0.507812 C 1.160156 -1.554688 0.636719 -3.019531 0.636719 -4.902344 L 0.636719 -7.113281 C 0.636719 -7.589844 0.789062 -7.976562 1.085938 -8.277344 C 1.382812 -8.574219 1.769531 -8.722656 2.246094 -8.722656 L 5.683594 -8.722656 C 6.160156 -8.722656 6.546875 -8.574219 6.847656 -8.277344 C 7.144531 -7.976562 7.292969 -7.589844 7.292969 -7.113281 L 7.292969 -5.683594 C 7.292969 -5.574219 7.304688 -5.488281 7.324219 -5.425781 C 7.328125 -5.414062 7.332031 -5.40625 7.332031 -5.402344 C 7.332031 -5.40625 7.328125 -5.410156 7.324219 -5.417969 C 7.316406 -5.421875 7.3125 -5.425781 7.308594 -5.425781 C 7.3125 -5.425781 7.320312 -5.421875 7.332031 -5.417969 C 7.394531 -5.398438 7.480469 -5.386719 7.589844 -5.386719 L 9.429688 -5.386719 C 9.542969 -5.386719 9.628906 -5.398438 9.6875 -5.417969 C 9.699219 -5.421875 9.707031 -5.425781 9.710938 -5.425781 C 9.707031 -5.425781 9.703125 -5.421875 9.699219 -5.417969 C 9.695312 -5.410156 9.691406 -5.40625 9.6875 -5.402344 C 9.691406 -5.40625 9.691406 -5.414062 9.695312 -5.425781 C 9.71875 -5.488281 9.726562 -5.574219 9.726562 -5.683594 L 9.726562 -9.125 L 10.792969 -9.125 L 10.460938 -8.113281 L 2.292969 -10.765625 C 1.765625 -10.941406 1.359375 -11.226562 1.074219 -11.621094 C 0.78125 -12.015625 0.636719 -12.488281 0.636719 -13.039062 L 0.636719 -18.925781 C 0.636719 -20.835938 1.164062 -22.308594 2.214844 -23.34375 C 3.261719 -24.378906 4.722656 -24.894531 6.605469 -24.894531 Z M 6.605469 -22.765625 C 5.304688 -22.765625 4.339844 -22.453125 3.707031 -21.828125 C 3.082031 -21.210938 2.765625 -20.242188 2.765625 -18.925781 L 2.765625 -13.039062 C 2.765625 -12.953125 2.773438 -12.898438 2.792969 -12.875 C 2.8125 -12.847656 2.863281 -12.820312 2.949219 -12.789062 L 11.855469 -9.894531 L 11.855469 -5.683594 C 11.855469 -4.9375 11.636719 -4.347656 11.203125 -3.910156 C 10.769531 -3.476562 10.175781 -3.257812 9.429688 -3.257812 L 7.589844 -3.257812 C 6.84375 -3.257812 6.253906 -3.476562 5.816406 -3.910156 C 5.382812 -4.347656 5.164062 -4.9375 5.164062 -5.683594 L 5.164062 -7.113281 C 5.164062 -7.089844 5.171875 -7.058594 5.1875 -7.015625 C 5.214844 -6.925781 5.269531 -6.84375 5.339844 -6.769531 C 5.414062 -6.699219 5.496094 -6.644531 5.585938 -6.617188 C 5.628906 -6.601562 5.660156 -6.59375 5.683594 -6.59375 L 2.246094 -6.59375 C 2.269531 -6.59375 2.304688 -6.601562 2.34375 -6.617188 C 2.4375 -6.644531 2.515625 -6.699219 2.589844 -6.769531 C 2.664062 -6.84375 2.714844 -6.925781 2.746094 -7.015625 C 2.757812 -7.058594 2.765625 -7.089844 2.765625 -7.113281 L 2.765625 -4.902344 C 2.765625 -3.605469 3.082031 -2.644531 3.714844 -2.011719 C 4.347656 -1.378906 5.308594 -1.0625 6.605469 -1.0625 L 10.417969 -1.0625 C 11.730469 -1.0625 12.699219 -1.378906 13.320312 -2.007812 C 13.941406 -2.640625 14.253906 -3.605469 14.253906 -4.902344 L 14.253906 -11.300781 C 14.253906 -11.394531 14.246094 -11.457031 14.226562 -11.480469 C 14.210938 -11.503906 14.171875 -11.527344 14.109375 -11.550781 L 5.132812 -14.441406 L 5.132812 -18.109375 C 5.132812 -18.859375 5.347656 -19.449219 5.785156 -19.882812 C 6.21875 -20.320312 6.808594 -20.535156 7.558594 -20.535156 L 9.429688 -20.535156 C 10.175781 -20.535156 10.769531 -20.320312 11.203125 -19.882812 C 11.636719 -19.449219 11.855469 -18.859375 11.855469 -18.109375 L 11.855469 -16.679688 C 11.855469 -16.703125 11.847656 -16.738281 11.835938 -16.777344 C 11.804688 -16.871094 11.753906 -16.953125 11.679688 -17.023438 C 11.605469 -17.097656 11.523438 -17.148438 11.433594 -17.179688 C 11.394531 -17.191406 11.359375 -17.199219 11.335938 -17.199219 L 14.773438 -17.199219 C 14.75 -17.199219 14.71875 -17.191406 14.675781 -17.179688 C 14.585938 -17.148438 14.503906 -17.097656 14.429688 -17.023438 C 14.359375 -16.953125 14.304688 -16.871094 14.277344 -16.777344 C 14.261719 -16.738281 14.253906 -16.703125 14.253906 -16.679688 L 14.253906 -18.925781 C 14.253906 -20.246094 13.945312 -21.214844 13.324219 -21.835938 C 12.703125 -22.457031 11.734375 -22.765625 10.417969 -22.765625 Z M 6.605469 -22.765625 "/></g></g><g style="fill:#b21a22;fill-opacity:1;"><g transform="translate(38.173496, 61.64496)"><path style="stroke:none" d="M 14.09375 -22.765625 L 1.566406 -22.765625 C 1.589844 -22.765625 1.621094 -22.773438 1.664062 -22.785156 C 1.753906 -22.816406 1.835938 -22.867188 1.910156 -22.941406 C 1.984375 -23.015625 2.035156 -23.097656 2.066406 -23.1875 C 2.078125 -23.226562 2.085938 -23.261719 2.085938 -23.285156 L 2.085938 -19.878906 C 2.085938 -19.90625 2.078125 -19.9375 2.066406 -19.980469 C 2.035156 -20.070312 1.984375 -20.152344 1.910156 -20.222656 C 1.835938 -20.296875 1.753906 -20.347656 1.664062 -20.378906 C 1.621094 -20.394531 1.589844 -20.398438 1.566406 -20.398438 L 6.578125 -20.398438 L 6.578125 -0.542969 C 6.578125 -0.570312 6.570312 -0.601562 6.558594 -0.644531 C 6.527344 -0.734375 6.476562 -0.816406 6.402344 -0.886719 C 6.332031 -0.960938 6.25 -1.011719 6.15625 -1.042969 C 6.117188 -1.058594 6.082031 -1.0625 6.058594 -1.0625 L 9.601562 -1.0625 C 9.574219 -1.0625 9.542969 -1.058594 9.5 -1.042969 C 9.410156 -1.011719 9.328125 -0.960938 9.257812 -0.886719 C 9.183594 -0.816406 9.132812 -0.734375 9.101562 -0.644531 C 9.085938 -0.601562 9.082031 -0.570312 9.082031 -0.542969 L 9.082031 -20.398438 L 14.09375 -20.398438 C 14.070312 -20.398438 14.035156 -20.394531 13.996094 -20.378906 C 13.90625 -20.347656 13.824219 -20.296875 13.75 -20.222656 C 13.675781 -20.152344 13.625 -20.070312 13.59375 -19.980469 C 13.582031 -19.9375 13.574219 -19.90625 13.574219 -19.878906 L 13.574219 -23.285156 C 13.574219 -23.261719 13.582031 -23.226562 13.59375 -23.1875 C 13.625 -23.097656 13.675781 -23.015625 13.75 -22.941406 C 13.824219 -22.867188 13.90625 -22.816406 13.996094 -22.785156 C 14.035156 -22.773438 14.070312 -22.765625 14.09375 -22.765625 Z M 14.09375 -24.894531 C 14.570312 -24.894531 14.957031 -24.746094 15.253906 -24.445312 C 15.554688 -24.148438 15.703125 -23.761719 15.703125 -23.285156 L 15.703125 -19.878906 C 15.703125 -19.40625 15.554688 -19.019531 15.253906 -18.71875 C 14.957031 -18.421875 14.570312 -18.273438 14.09375 -18.273438 L 10.144531 -18.273438 L 10.144531 -19.335938 L 11.207031 -19.335938 L 11.207031 -0.542969 C 11.207031 -0.0703125 11.058594 0.316406 10.761719 0.617188 C 10.460938 0.914062 10.074219 1.0625 9.601562 1.0625 L 6.058594 1.0625 C 5.585938 1.0625 5.195312 0.914062 4.898438 0.617188 C 4.601562 0.316406 4.449219 -0.0703125 4.449219 -0.542969 L 4.449219 -19.335938 L 5.515625 -19.335938 L 5.515625 -18.273438 L 1.566406 -18.273438 C 1.089844 -18.273438 0.703125 -18.421875 0.40625 -18.71875 C 0.105469 -19.019531 -0.0429688 -19.40625 -0.0429688 -19.878906 L -0.0429688 -23.285156 C -0.0429688 -23.761719 0.105469 -24.148438 0.40625 -24.445312 C 0.703125 -24.746094 1.089844 -24.894531 1.566406 -24.894531 Z M 14.09375 -24.894531 "/></g></g><g style="fill:#b21a22;fill-opacity:1;"><g transform="translate(53.827953, 61.64496)"><path style="stroke:none" d="M 17.769531 1.0625 L 14.46875 1.0625 C 14.054688 1.0625 13.703125 0.9375 13.410156 0.679688 C 13.140625 0.445312 12.964844 0.136719 12.882812 -0.253906 L 13.921875 -0.476562 L 12.890625 -0.214844 L 11.804688 -4.503906 L 12.832031 -4.765625 L 12.832031 -3.703125 L 6.433594 -3.703125 L 6.433594 -4.765625 L 7.46875 -4.511719 L 6.410156 -0.222656 L 5.378906 -0.476562 L 6.417969 -0.253906 C 6.335938 0.136719 6.160156 0.445312 5.890625 0.679688 C 5.601562 0.9375 5.246094 1.0625 4.835938 1.0625 L 1.496094 1.0625 C 0.941406 1.0625 0.523438 0.875 0.234375 0.5 C -0.0546875 0.121094 -0.125 -0.339844 0.0351562 -0.878906 L 1.054688 -0.578125 L 0.0234375 -0.835938 L 5.671875 -23.609375 L 6.707031 -23.351562 L 5.667969 -23.574219 C 5.75 -23.976562 5.9375 -24.296875 6.226562 -24.53125 C 6.519531 -24.773438 6.871094 -24.894531 7.285156 -24.894531 L 12.015625 -24.894531 C 12.429688 -24.894531 12.785156 -24.773438 13.078125 -24.53125 C 13.363281 -24.296875 13.550781 -23.976562 13.636719 -23.574219 L 12.59375 -23.351562 L 13.628906 -23.609375 L 19.277344 -0.835938 L 18.246094 -0.578125 L 19.265625 -0.878906 C 19.429688 -0.324219 19.351562 0.144531 19.035156 0.53125 C 18.742188 0.886719 18.320312 1.0625 17.769531 1.0625 Z M 17.769531 -1.0625 C 17.777344 -1.0625 17.78125 -1.0625 17.785156 -1.0625 C 17.78125 -1.0625 17.78125 -1.0625 17.777344 -1.0625 C 17.757812 -1.0625 17.738281 -1.054688 17.710938 -1.046875 C 17.589844 -1.007812 17.484375 -0.933594 17.390625 -0.820312 C 17.289062 -0.695312 17.230469 -0.558594 17.21875 -0.410156 C 17.214844 -0.351562 17.21875 -0.308594 17.226562 -0.277344 L 17.21875 -0.300781 L 11.558594 -23.113281 L 11.554688 -23.128906 C 11.574219 -23.046875 11.628906 -22.96875 11.722656 -22.890625 C 11.824219 -22.808594 11.921875 -22.765625 12.015625 -22.765625 L 7.285156 -22.765625 C 7.378906 -22.765625 7.476562 -22.808594 7.578125 -22.890625 C 7.671875 -22.96875 7.730469 -23.046875 7.746094 -23.128906 L 7.742188 -23.113281 L 2.082031 -0.300781 L 2.074219 -0.277344 C 2.082031 -0.300781 2.085938 -0.335938 2.082031 -0.386719 C 2.074219 -0.53125 2.019531 -0.667969 1.925781 -0.789062 C 1.832031 -0.910156 1.722656 -0.996094 1.589844 -1.042969 C 1.546875 -1.054688 1.515625 -1.0625 1.496094 -1.0625 L 4.835938 -1.0625 C 4.714844 -1.0625 4.601562 -1.015625 4.492188 -0.917969 C 4.40625 -0.84375 4.355469 -0.769531 4.339844 -0.699219 L 4.339844 -0.714844 L 5.601562 -5.828125 L 13.660156 -5.828125 L 14.960938 -0.71875 L 14.964844 -0.699219 C 14.949219 -0.769531 14.898438 -0.84375 14.8125 -0.917969 C 14.703125 -1.015625 14.585938 -1.0625 14.46875 -1.0625 Z M 10.742188 -8.476562 L 8.597656 -17.734375 L 9.632812 -17.972656 L 10.671875 -17.734375 L 8.527344 -8.476562 L 7.488281 -8.714844 L 7.488281 -9.777344 L 11.777344 -9.777344 L 11.777344 -8.714844 Z M 13.117188 -7.652344 L 6.152344 -7.652344 L 8.597656 -18.214844 L 10.671875 -18.214844 L 12.816406 -8.953125 Z M 13.117188 -7.652344 "/></g></g><g style="fill:#b21a22;fill-opacity:1;"><g transform="translate(73.123775, 61.64496)"><path style="stroke:none" d="M 14.09375 -22.765625 L 1.566406 -22.765625 C 1.589844 -22.765625 1.621094 -22.773438 1.664062 -22.785156 C 1.753906 -22.816406 1.835938 -22.867188 1.910156 -22.941406 C 1.984375 -23.015625 2.035156 -23.097656 2.066406 -23.1875 C 2.078125 -23.226562 2.085938 -23.261719 2.085938 -23.285156 L 2.085938 -19.878906 C 2.085938 -19.90625 2.078125 -19.9375 2.066406 -19.980469 C 2.035156 -20.070312 1.984375 -20.152344 1.910156 -20.222656 C 1.835938 -20.296875 1.753906 -20.347656 1.664062 -20.378906 C 1.621094 -20.394531 1.589844 -20.398438 1.566406 -20.398438 L 6.578125 -20.398438 L 6.578125 -0.542969 C 6.578125 -0.570312 6.570312 -0.601562 6.558594 -0.644531 C 6.527344 -0.734375 6.476562 -0.816406 6.402344 -0.886719 C 6.332031 -0.960938 6.25 -1.011719 6.15625 -1.042969 C 6.117188 -1.058594 6.082031 -1.0625 6.058594 -1.0625 L 9.601562 -1.0625 C 9.574219 -1.0625 9.542969 -1.058594 9.5 -1.042969 C 9.410156 -1.011719 9.328125 -0.960938 9.257812 -0.886719 C 9.183594 -0.816406 9.132812 -0.734375 9.101562 -0.644531 C 9.085938 -0.601562 9.082031 -0.570312 9.082031 -0.542969 L 9.082031 -20.398438 L 14.09375 -20.398438 C 14.070312 -20.398438 14.035156 -20.394531 13.996094 -20.378906 C 13.90625 -20.347656 13.824219 -20.296875 13.75 -20.222656 C 13.675781 -20.152344 13.625 -20.070312 13.59375 -19.980469 C 13.582031 -19.9375 13.574219 -19.90625 13.574219 -19.878906 L 13.574219 -23.285156 C 13.574219 -23.261719 13.582031 -23.226562 13.59375 -23.1875 C 13.625 -23.097656 13.675781 -23.015625 13.75 -22.941406 C 13.824219 -22.867188 13.90625 -22.816406 13.996094 -22.785156 C 14.035156 -22.773438 14.070312 -22.765625 14.09375 -22.765625 Z M 14.09375 -24.894531 C 14.570312 -24.894531 14.957031 -24.746094 15.253906 -24.445312 C 15.554688 -24.148438 15.703125 -23.761719 15.703125 -23.285156 L 15.703125 -19.878906 C 15.703125 -19.40625 15.554688 -19.019531 15.253906 -18.71875 C 14.957031 -18.421875 14.570312 -18.273438 14.09375 -18.273438 L 10.144531 -18.273438 L 10.144531 -19.335938 L 11.207031 -19.335938 L 11.207031 -0.542969 C 11.207031 -0.0703125 11.058594 0.316406 10.761719 0.617188 C 10.460938 0.914062 10.074219 1.0625 9.601562 1.0625 L 6.058594 1.0625 C 5.585938 1.0625 5.195312 0.914062 4.898438 0.617188 C 4.601562 0.316406 4.449219 -0.0703125 4.449219 -0.542969 L 4.449219 -19.335938 L 5.515625 -19.335938 L 5.515625 -18.273438 L 1.566406 -18.273438 C 1.089844 -18.273438 0.703125 -18.421875 0.40625 -18.71875 C 0.105469 -19.019531 -0.0429688 -19.40625 -0.0429688 -19.878906 L -0.0429688 -23.285156 C -0.0429688 -23.761719 0.105469 -24.148438 0.40625 -24.445312 C 0.703125 -24.746094 1.089844 -24.894531 1.566406 -24.894531 Z M 14.09375 -24.894531 "/></g></g><g style="fill:#b21a22;fill-opacity:1;"><g transform="translate(88.778232, 61.64496)"><path style="stroke:none" d="M 11.507812 -24.894531 L 14.636719 -24.894531 C 15.113281 -24.894531 15.523438 -24.722656 15.867188 -24.378906 C 16.210938 -24.035156 16.382812 -23.625 16.382812 -23.148438 L 16.382812 -4.902344 C 16.382812 -3.023438 15.867188 -1.558594 14.832031 -0.511719 C 13.796875 0.539062 12.324219 1.0625 10.417969 1.0625 L 6.605469 1.0625 C 4.722656 1.0625 3.257812 0.539062 2.210938 -0.507812 C 1.160156 -1.554688 0.636719 -3.019531 0.636719 -4.902344 L 0.636719 -23.148438 C 0.636719 -23.625 0.808594 -24.035156 1.152344 -24.378906 C 1.496094 -24.722656 1.90625 -24.894531 2.382812 -24.894531 L 5.652344 -24.894531 C 6.125 -24.894531 6.535156 -24.722656 6.878906 -24.378906 C 7.222656 -24.035156 7.394531 -23.625 7.394531 -23.148438 L 7.394531 -5.855469 C 7.394531 -5.742188 7.40625 -5.65625 7.425781 -5.597656 C 7.429688 -5.585938 7.433594 -5.578125 7.4375 -5.574219 C 7.433594 -5.578125 7.429688 -5.582031 7.425781 -5.585938 C 7.417969 -5.589844 7.414062 -5.59375 7.410156 -5.597656 C 7.414062 -5.59375 7.421875 -5.589844 7.433594 -5.589844 C 7.496094 -5.566406 7.582031 -5.558594 7.695312 -5.558594 L 9.464844 -5.558594 C 9.574219 -5.558594 9.660156 -5.566406 9.722656 -5.589844 C 9.734375 -5.589844 9.742188 -5.59375 9.746094 -5.597656 C 9.742188 -5.59375 9.738281 -5.589844 9.734375 -5.585938 C 9.726562 -5.582031 9.722656 -5.578125 9.722656 -5.574219 C 9.722656 -5.578125 9.726562 -5.585938 9.730469 -5.597656 C 9.75 -5.65625 9.761719 -5.742188 9.761719 -5.855469 L 9.761719 -23.148438 C 9.761719 -23.625 9.933594 -24.035156 10.277344 -24.378906 C 10.621094 -24.722656 11.03125 -24.894531 11.507812 -24.894531 Z M 11.507812 -22.765625 C 11.617188 -22.765625 11.710938 -22.800781 11.78125 -22.871094 C 11.855469 -22.945312 11.890625 -23.035156 11.890625 -23.148438 L 11.890625 -5.855469 C 11.890625 -5.109375 11.671875 -4.515625 11.238281 -4.082031 C 10.800781 -3.648438 10.210938 -3.429688 9.464844 -3.429688 L 7.695312 -3.429688 C 6.945312 -3.429688 6.355469 -3.648438 5.921875 -4.082031 C 5.484375 -4.515625 5.269531 -5.109375 5.269531 -5.855469 L 5.269531 -23.148438 C 5.269531 -23.035156 5.304688 -22.945312 5.375 -22.871094 C 5.445312 -22.800781 5.539062 -22.765625 5.652344 -22.765625 L 2.382812 -22.765625 C 2.496094 -22.765625 2.585938 -22.800781 2.660156 -22.871094 C 2.730469 -22.945312 2.765625 -23.035156 2.765625 -23.148438 L 2.765625 -4.902344 C 2.765625 -3.605469 3.082031 -2.644531 3.714844 -2.011719 C 4.347656 -1.378906 5.308594 -1.0625 6.605469 -1.0625 L 10.417969 -1.0625 C 11.730469 -1.0625 12.699219 -1.378906 13.320312 -2.007812 C 13.941406 -2.640625 14.253906 -3.605469 14.253906 -4.902344 L 14.253906 -23.148438 C 14.253906 -23.035156 14.289062 -22.945312 14.363281 -22.871094 C 14.433594 -22.800781 14.527344 -22.765625 14.636719 -22.765625 Z M 11.507812 -22.765625 "/></g></g><g style="fill:#b21a22;fill-opacity:1;"><g transform="translate(105.793945, 61.64496)"><path style="stroke:none" d="M 6.605469 -24.894531 L 10.417969 -24.894531 C 12.320312 -24.894531 13.792969 -24.375 14.828125 -23.339844 C 15.863281 -22.304688 16.382812 -20.832031 16.382812 -18.925781 L 16.382812 -16.679688 C 16.382812 -16.207031 16.234375 -15.820312 15.933594 -15.519531 C 15.636719 -15.222656 15.25 -15.070312 14.773438 -15.070312 L 11.335938 -15.070312 C 10.859375 -15.070312 10.472656 -15.222656 10.175781 -15.519531 C 9.875 -15.820312 9.726562 -16.207031 9.726562 -16.679688 L 9.726562 -18.109375 C 9.726562 -18.222656 9.71875 -18.308594 9.695312 -18.371094 C 9.691406 -18.382812 9.691406 -18.390625 9.6875 -18.394531 C 9.691406 -18.390625 9.695312 -18.382812 9.699219 -18.378906 C 9.703125 -18.375 9.707031 -18.371094 9.710938 -18.367188 C 9.707031 -18.371094 9.699219 -18.375 9.6875 -18.378906 C 9.628906 -18.398438 9.542969 -18.410156 9.429688 -18.410156 L 7.558594 -18.410156 C 7.445312 -18.410156 7.359375 -18.398438 7.296875 -18.378906 C 7.285156 -18.375 7.277344 -18.371094 7.273438 -18.367188 C 7.277344 -18.371094 7.285156 -18.375 7.289062 -18.378906 C 7.292969 -18.382812 7.296875 -18.390625 7.300781 -18.394531 C 7.296875 -18.390625 7.292969 -18.382812 7.289062 -18.371094 C 7.269531 -18.308594 7.257812 -18.222656 7.257812 -18.109375 L 7.257812 -15.21875 L 6.195312 -15.21875 L 6.523438 -16.230469 L 14.761719 -13.574219 C 15.285156 -13.390625 15.6875 -13.101562 15.96875 -12.707031 C 16.246094 -12.3125 16.382812 -11.84375 16.382812 -11.300781 L 16.382812 -4.902344 C 16.382812 -3.023438 15.867188 -1.558594 14.832031 -0.511719 C 13.796875 0.539062 12.324219 1.0625 10.417969 1.0625 L 6.605469 1.0625 C 4.722656 1.0625 3.257812 0.539062 2.210938 -0.507812 C 1.160156 -1.554688 0.636719 -3.019531 0.636719 -4.902344 L 0.636719 -7.113281 C 0.636719 -7.589844 0.789062 -7.976562 1.085938 -8.277344 C 1.382812 -8.574219 1.769531 -8.722656 2.246094 -8.722656 L 5.683594 -8.722656 C 6.160156 -8.722656 6.546875 -8.574219 6.847656 -8.277344 C 7.144531 -7.976562 7.292969 -7.589844 7.292969 -7.113281 L 7.292969 -5.683594 C 7.292969 -5.574219 7.304688 -5.488281 7.324219 -5.425781 C 7.328125 -5.414062 7.332031 -5.40625 7.332031 -5.402344 C 7.332031 -5.40625 7.328125 -5.410156 7.324219 -5.417969 C 7.316406 -5.421875 7.3125 -5.425781 7.308594 -5.425781 C 7.3125 -5.425781 7.320312 -5.421875 7.332031 -5.417969 C 7.394531 -5.398438 7.480469 -5.386719 7.589844 -5.386719 L 9.429688 -5.386719 C 9.542969 -5.386719 9.628906 -5.398438 9.6875 -5.417969 C 9.699219 -5.421875 9.707031 -5.425781 9.710938 -5.425781 C 9.707031 -5.425781 9.703125 -5.421875 9.699219 -5.417969 C 9.695312 -5.410156 9.691406 -5.40625 9.6875 -5.402344 C 9.691406 -5.40625 9.691406 -5.414062 9.695312 -5.425781 C 9.71875 -5.488281 9.726562 -5.574219 9.726562 -5.683594 L 9.726562 -9.125 L 10.792969 -9.125 L 10.460938 -8.113281 L 2.292969 -10.765625 C 1.765625 -10.941406 1.359375 -11.226562 1.074219 -11.621094 C 0.78125 -12.015625 0.636719 -12.488281 0.636719 -13.039062 L 0.636719 -18.925781 C 0.636719 -20.835938 1.164062 -22.308594 2.214844 -23.34375 C 3.261719 -24.378906 4.722656 -24.894531 6.605469 -24.894531 Z M 6.605469 -22.765625 C 5.304688 -22.765625 4.339844 -22.453125 3.707031 -21.828125 C 3.082031 -21.210938 2.765625 -20.242188 2.765625 -18.925781 L 2.765625 -13.039062 C 2.765625 -12.953125 2.773438 -12.898438 2.792969 -12.875 C 2.8125 -12.847656 2.863281 -12.820312 2.949219 -12.789062 L 11.855469 -9.894531 L 11.855469 -5.683594 C 11.855469 -4.9375 11.636719 -4.347656 11.203125 -3.910156 C 10.769531 -3.476562 10.175781 -3.257812 9.429688 -3.257812 L 7.589844 -3.257812 C 6.84375 -3.257812 6.253906 -3.476562 5.816406 -3.910156 C 5.382812 -4.347656 5.164062 -4.9375 5.164062 -5.683594 L 5.164062 -7.113281 C 5.164062 -7.089844 5.171875 -7.058594 5.1875 -7.015625 C 5.214844 -6.925781 5.269531 -6.84375 5.339844 -6.769531 C 5.414062 -6.699219 5.496094 -6.644531 5.585938 -6.617188 C 5.628906 -6.601562 5.660156 -6.59375 5.683594 -6.59375 L 2.246094 -6.59375 C 2.269531 -6.59375 2.304688 -6.601562 2.34375 -6.617188 C 2.4375 -6.644531 2.515625 -6.699219 2.589844 -6.769531 C 2.664062 -6.84375 2.714844 -6.925781 2.746094 -7.015625 C 2.757812 -7.058594 2.765625 -7.089844 2.765625 -7.113281 L 2.765625 -4.902344 C 2.765625 -3.605469 3.082031 -2.644531 3.714844 -2.011719 C 4.347656 -1.378906 5.308594 -1.0625 6.605469 -1.0625 L 10.417969 -1.0625 C 11.730469 -1.0625 12.699219 -1.378906 13.320312 -2.007812 C 13.941406 -2.640625 14.253906 -3.605469 14.253906 -4.902344 L 14.253906 -11.300781 C 14.253906 -11.394531 14.246094 -11.457031 14.226562 -11.480469 C 14.210938 -11.503906 14.171875 -11.527344 14.109375 -11.550781 L 5.132812 -14.441406 L 5.132812 -18.109375 C 5.132812 -18.859375 5.347656 -19.449219 5.785156 -19.882812 C 6.21875 -20.320312 6.808594 -20.535156 7.558594 -20.535156 L 9.429688 -20.535156 C 10.175781 -20.535156 10.769531 -20.320312 11.203125 -19.882812 C 11.636719 -19.449219 11.855469 -18.859375 11.855469 -18.109375 L 11.855469 -16.679688 C 11.855469 -16.703125 11.847656 -16.738281 11.835938 -16.777344 C 11.804688 -16.871094 11.753906 -16.953125 11.679688 -17.023438 C 11.605469 -17.097656 11.523438 -17.148438 11.433594 -17.179688 C 11.394531 -17.191406 11.359375 -17.199219 11.335938 -17.199219 L 14.773438 -17.199219 C 14.75 -17.199219 14.71875 -17.191406 14.675781 -17.179688 C 14.585938 -17.148438 14.503906 -17.097656 14.429688 -17.023438 C 14.359375 -16.953125 14.304688 -16.871094 14.277344 -16.777344 C 14.261719 -16.738281 14.253906 -16.703125 14.253906 -16.679688 L 14.253906 -18.925781 C 14.253906 -20.246094 13.945312 -21.214844 13.324219 -21.835938 C 12.703125 -22.457031 11.734375 -22.765625 10.417969 -22.765625 Z M 6.605469 -22.765625 "/></g></g><g style="fill:#b21a22;fill-opacity:1;"><g transform="translate(35.058882, 109.105548)"><path style="stroke:none" d="M -1.0625 4.5625 L -1.0625 1.429688 C -1.0625 0.910156 -0.902344 0.488281 -0.582031 0.167969 C -0.261719 -0.15625 0.160156 -0.316406 0.679688 -0.316406 L 21.207031 -0.316406 C 21.730469 -0.316406 22.148438 -0.15625 22.472656 0.167969 C 22.792969 0.488281 22.953125 0.910156 22.953125 1.429688 L 22.953125 4.5625 C 22.953125 5.082031 22.792969 5.503906 22.472656 5.824219 C 22.148438 6.144531 21.730469 6.304688 21.207031 6.304688 L 0.679688 6.304688 C 0.160156 6.304688 -0.261719 6.144531 -0.582031 5.824219 C -0.902344 5.503906 -1.0625 5.082031 -1.0625 4.5625 Z M 1.0625 4.5625 C 1.0625 4.566406 1.0625 4.570312 1.0625 4.574219 C 1.0625 4.574219 1.0625 4.574219 1.0625 4.570312 C 1.0625 4.558594 1.058594 4.542969 1.050781 4.523438 C 1.027344 4.449219 0.984375 4.382812 0.921875 4.320312 C 0.859375 4.257812 0.792969 4.214844 0.71875 4.191406 C 0.703125 4.183594 0.683594 4.179688 0.671875 4.179688 C 0.671875 4.179688 0.667969 4.179688 0.667969 4.179688 C 0.671875 4.179688 0.675781 4.179688 0.679688 4.179688 L 21.207031 4.179688 C 21.214844 4.179688 21.21875 4.179688 21.21875 4.179688 C 21.203125 4.179688 21.1875 4.183594 21.167969 4.191406 C 21.097656 4.214844 21.027344 4.257812 20.964844 4.320312 C 20.90625 4.382812 20.863281 4.449219 20.835938 4.523438 C 20.832031 4.542969 20.828125 4.558594 20.824219 4.570312 C 20.824219 4.574219 20.824219 4.574219 20.824219 4.574219 C 20.824219 4.570312 20.824219 4.566406 20.824219 4.5625 L 20.824219 1.429688 C 20.824219 1.425781 20.824219 1.421875 20.824219 1.417969 C 20.824219 1.417969 20.824219 1.417969 20.824219 1.421875 C 20.828125 1.433594 20.832031 1.449219 20.835938 1.46875 C 20.863281 1.542969 20.90625 1.609375 20.964844 1.671875 C 21.027344 1.734375 21.097656 1.777344 21.167969 1.800781 C 21.1875 1.808594 21.203125 1.8125 21.21875 1.8125 C 21.21875 1.8125 21.214844 1.8125 21.207031 1.8125 L 0.679688 1.8125 C 0.675781 1.8125 0.671875 1.8125 0.667969 1.8125 C 0.667969 1.8125 0.671875 1.8125 0.671875 1.8125 C 0.683594 1.8125 0.703125 1.808594 0.71875 1.800781 C 0.792969 1.777344 0.859375 1.734375 0.921875 1.671875 C 0.984375 1.609375 1.027344 1.542969 1.050781 1.46875 C 1.058594 1.449219 1.0625 1.433594 1.0625 1.421875 C 1.0625 1.417969 1.0625 1.417969 1.0625 1.417969 C 1.0625 1.421875 1.0625 1.425781 1.0625 1.429688 Z M 1.0625 4.5625 "/></g></g><g style="fill:#b21a22;fill-opacity:1;"><g transform="translate(56.941093, 109.105548)"><path style="stroke:none" d="M 14.09375 -22.765625 L 1.566406 -22.765625 C 1.589844 -22.765625 1.621094 -22.773438 1.664062 -22.785156 C 1.753906 -22.816406 1.835938 -22.867188 1.910156 -22.941406 C 1.984375 -23.015625 2.035156 -23.097656 2.066406 -23.1875 C 2.078125 -23.226562 2.085938 -23.261719 2.085938 -23.285156 L 2.085938 -19.878906 C 2.085938 -19.90625 2.078125 -19.9375 2.066406 -19.980469 C 2.035156 -20.070312 1.984375 -20.152344 1.910156 -20.222656 C 1.835938 -20.296875 1.753906 -20.347656 1.664062 -20.378906 C 1.621094 -20.394531 1.589844 -20.398438 1.566406 -20.398438 L 6.578125 -20.398438 L 6.578125 -0.542969 C 6.578125 -0.570312 6.570312 -0.601562 6.558594 -0.644531 C 6.527344 -0.734375 6.476562 -0.816406 6.402344 -0.886719 C 6.332031 -0.960938 6.25 -1.011719 6.15625 -1.042969 C 6.117188 -1.058594 6.082031 -1.0625 6.058594 -1.0625 L 9.601562 -1.0625 C 9.574219 -1.0625 9.542969 -1.058594 9.5 -1.042969 C 9.410156 -1.011719 9.328125 -0.960938 9.257812 -0.886719 C 9.183594 -0.816406 9.132812 -0.734375 9.101562 -0.644531 C 9.085938 -0.601562 9.082031 -0.570312 9.082031 -0.542969 L 9.082031 -20.398438 L 14.09375 -20.398438 C 14.070312 -20.398438 14.035156 -20.394531 13.996094 -20.378906 C 13.90625 -20.347656 13.824219 -20.296875 13.75 -20.222656 C 13.675781 -20.152344 13.625 -20.070312 13.59375 -19.980469 C 13.582031 -19.9375 13.574219 -19.90625 13.574219 -19.878906 L 13.574219 -23.285156 C 13.574219 -23.261719 13.582031 -23.226562 13.59375 -23.1875 C 13.625 -23.097656 13.675781 -23.015625 13.75 -22.941406 C 13.824219 -22.867188 13.90625 -22.816406 13.996094 -22.785156 C 14.035156 -22.773438 14.070312 -22.765625 14.09375 -22.765625 Z M 14.09375 -24.894531 C 14.570312 -24.894531 14.957031 -24.746094 15.253906 -24.445312 C 15.554688 -24.148438 15.703125 -23.761719 15.703125 -23.285156 L 15.703125 -19.878906 C 15.703125 -19.40625 15.554688 -19.019531 15.253906 -18.71875 C 14.957031 -18.421875 14.570312 -18.273438 14.09375 -18.273438 L 10.144531 -18.273438 L 10.144531 -19.335938 L 11.207031 -19.335938 L 11.207031 -0.542969 C 11.207031 -0.0703125 11.058594 0.316406 10.761719 0.617188 C 10.460938 0.914062 10.074219 1.0625 9.601562 1.0625 L 6.058594 1.0625 C 5.585938 1.0625 5.195312 0.914062 4.898438 0.617188 C 4.601562 0.316406 4.449219 -0.0703125 4.449219 -0.542969 L 4.449219 -19.335938 L 5.515625 -19.335938 L 5.515625 -18.273438 L 1.566406 -18.273438 C 1.089844 -18.273438 0.703125 -18.421875 0.40625 -18.71875 C 0.105469 -19.019531 -0.0429688 -19.40625 -0.0429688 -19.878906 L -0.0429688 -23.285156 C -0.0429688 -23.761719 0.105469 -24.148438 0.40625 -24.445312 C 0.703125 -24.746094 1.089844 -24.894531 1.566406 -24.894531 Z M 14.09375 -24.894531 "/></g></g><g style="fill:#b21a22;fill-opacity:1;"><g transform="translate(72.59555, 109.105548)"><path style="stroke:none" d="M 17.769531 1.0625 L 14.46875 1.0625 C 14.054688 1.0625 13.703125 0.9375 13.410156 0.679688 C 13.140625 0.445312 12.964844 0.136719 12.882812 -0.253906 L 13.921875 -0.476562 L 12.890625 -0.214844 L 11.804688 -4.503906 L 12.832031 -4.765625 L 12.832031 -3.703125 L 6.433594 -3.703125 L 6.433594 -4.765625 L 7.46875 -4.511719 L 6.410156 -0.222656 L 5.378906 -0.476562 L 6.417969 -0.253906 C 6.335938 0.136719 6.160156 0.445312 5.890625 0.679688 C 5.601562 0.9375 5.246094 1.0625 4.835938 1.0625 L 1.496094 1.0625 C 0.941406 1.0625 0.523438 0.875 0.234375 0.5 C -0.0546875 0.121094 -0.125 -0.339844 0.0351562 -0.878906 L 1.054688 -0.578125 L 0.0234375 -0.835938 L 5.671875 -23.609375 L 6.707031 -23.351562 L 5.667969 -23.574219 C 5.75 -23.976562 5.9375 -24.296875 6.226562 -24.53125 C 6.519531 -24.773438 6.871094 -24.894531 7.285156 -24.894531 L 12.015625 -24.894531 C 12.429688 -24.894531 12.785156 -24.773438 13.078125 -24.53125 C 13.363281 -24.296875 13.550781 -23.976562 13.636719 -23.574219 L 12.59375 -23.351562 L 13.628906 -23.609375 L 19.277344 -0.835938 L 18.246094 -0.578125 L 19.265625 -0.878906 C 19.429688 -0.324219 19.351562 0.144531 19.035156 0.53125 C 18.742188 0.886719 18.320312 1.0625 17.769531 1.0625 Z M 17.769531 -1.0625 C 17.777344 -1.0625 17.78125 -1.0625 17.785156 -1.0625 C 17.78125 -1.0625 17.78125 -1.0625 17.777344 -1.0625 C 17.757812 -1.0625 17.738281 -1.054688 17.710938 -1.046875 C 17.589844 -1.007812 17.484375 -0.933594 17.390625 -0.820312 C 17.289062 -0.695312 17.230469 -0.558594 17.21875 -0.410156 C 17.214844 -0.351562 17.21875 -0.308594 17.226562 -0.277344 L 17.21875 -0.300781 L 11.558594 -23.113281 L 11.554688 -23.128906 C 11.574219 -23.046875 11.628906 -22.96875 11.722656 -22.890625 C 11.824219 -22.808594 11.921875 -22.765625 12.015625 -22.765625 L 7.285156 -22.765625 C 7.378906 -22.765625 7.476562 -22.808594 7.578125 -22.890625 C 7.671875 -22.96875 7.730469 -23.046875 7.746094 -23.128906 L 7.742188 -23.113281 L 2.082031 -0.300781 L 2.074219 -0.277344 C 2.082031 -0.300781 2.085938 -0.335938 2.082031 -0.386719 C 2.074219 -0.53125 2.019531 -0.667969 1.925781 -0.789062 C 1.832031 -0.910156 1.722656 -0.996094 1.589844 -1.042969 C 1.546875 -1.054688 1.515625 -1.0625 1.496094 -1.0625 L 4.835938 -1.0625 C 4.714844 -1.0625 4.601562 -1.015625 4.492188 -0.917969 C 4.40625 -0.84375 4.355469 -0.769531 4.339844 -0.699219 L 4.339844 -0.714844 L 5.601562 -5.828125 L 13.660156 -5.828125 L 14.960938 -0.71875 L 14.964844 -0.699219 C 14.949219 -0.769531 14.898438 -0.84375 14.8125 -0.917969 C 14.703125 -1.015625 14.585938 -1.0625 14.46875 -1.0625 Z M 10.742188 -8.476562 L 8.597656 -17.734375 L 9.632812 -17.972656 L 10.671875 -17.734375 L 8.527344 -8.476562 L 7.488281 -8.714844 L 7.488281 -9.777344 L 11.777344 -9.777344 L 11.777344 -8.714844 Z M 13.117188 -7.652344 L 6.152344 -7.652344 L 8.597656 -18.214844 L 10.671875 -18.214844 L 12.816406 -8.953125 Z M 13.117188 -7.652344 "/></g></g><g style="fill:#b21a22;fill-opacity:1;"><g transform="translate(91.891372, 109.105548)"><path style="stroke:none" d="M 0.636719 -4.902344 L 0.636719 -18.925781 C 0.636719 -20.835938 1.164062 -22.308594 2.214844 -23.34375 C 3.261719 -24.378906 4.722656 -24.894531 6.605469 -24.894531 L 10.417969 -24.894531 C 12.296875 -24.894531 13.757812 -24.378906 14.804688 -23.34375 C 15.859375 -22.308594 16.382812 -20.835938 16.382812 -18.925781 L 16.382812 -16.410156 C 16.382812 -15.933594 16.234375 -15.546875 15.933594 -15.246094 C 15.636719 -14.949219 15.25 -14.800781 14.773438 -14.800781 L 11.574219 -14.800781 C 11.097656 -14.800781 10.710938 -14.949219 10.414062 -15.246094 C 10.113281 -15.546875 9.964844 -15.933594 9.964844 -16.410156 L 9.964844 -18.078125 C 9.964844 -18.1875 9.957031 -18.273438 9.933594 -18.335938 C 9.929688 -18.347656 9.929688 -18.355469 9.925781 -18.359375 C 9.929688 -18.355469 9.933594 -18.351562 9.9375 -18.34375 C 9.941406 -18.339844 9.945312 -18.335938 9.949219 -18.335938 C 9.945312 -18.335938 9.9375 -18.339844 9.925781 -18.34375 C 9.867188 -18.363281 9.78125 -18.375 9.667969 -18.375 L 7.488281 -18.375 C 7.378906 -18.375 7.289062 -18.363281 7.230469 -18.34375 C 7.21875 -18.339844 7.210938 -18.335938 7.207031 -18.335938 C 7.210938 -18.335938 7.214844 -18.339844 7.21875 -18.34375 C 7.226562 -18.351562 7.230469 -18.355469 7.230469 -18.359375 C 7.230469 -18.355469 7.226562 -18.347656 7.222656 -18.335938 C 7.203125 -18.273438 7.191406 -18.1875 7.191406 -18.078125 L 7.191406 -5.753906 C 7.191406 -5.640625 7.203125 -5.554688 7.222656 -5.492188 C 7.226562 -5.484375 7.230469 -5.476562 7.230469 -5.472656 C 7.230469 -5.476562 7.226562 -5.480469 7.21875 -5.484375 C 7.214844 -5.488281 7.210938 -5.492188 7.207031 -5.496094 C 7.210938 -5.492188 7.21875 -5.488281 7.230469 -5.484375 C 7.289062 -5.464844 7.378906 -5.457031 7.488281 -5.457031 L 9.667969 -5.457031 C 9.78125 -5.457031 9.867188 -5.464844 9.925781 -5.484375 C 9.9375 -5.488281 9.945312 -5.492188 9.949219 -5.496094 C 9.945312 -5.492188 9.941406 -5.488281 9.9375 -5.484375 C 9.933594 -5.480469 9.929688 -5.476562 9.925781 -5.472656 C 9.929688 -5.476562 9.929688 -5.484375 9.933594 -5.492188 C 9.957031 -5.554688 9.964844 -5.640625 9.964844 -5.753906 L 9.964844 -8.714844 L 11.03125 -8.714844 L 11.03125 -7.652344 L 9.257812 -7.652344 C 8.785156 -7.652344 8.398438 -7.800781 8.097656 -8.097656 C 7.800781 -8.398438 7.652344 -8.785156 7.652344 -9.257812 L 7.652344 -12.664062 C 7.652344 -13.140625 7.800781 -13.527344 8.097656 -13.824219 C 8.398438 -14.121094 8.785156 -14.273438 9.257812 -14.273438 L 14.773438 -14.273438 C 15.25 -14.273438 15.636719 -14.121094 15.933594 -13.824219 C 16.234375 -13.527344 16.382812 -13.140625 16.382812 -12.664062 L 16.382812 -4.902344 C 16.382812 -3.019531 15.859375 -1.554688 14.8125 -0.507812 C 13.765625 0.539062 12.300781 1.0625 10.417969 1.0625 L 6.605469 1.0625 C 4.722656 1.0625 3.257812 0.539062 2.210938 -0.507812 C 1.160156 -1.554688 0.636719 -3.019531 0.636719 -4.902344 Z M 2.765625 -4.902344 C 2.765625 -3.605469 3.082031 -2.644531 3.714844 -2.011719 C 4.347656 -1.378906 5.308594 -1.0625 6.605469 -1.0625 L 10.417969 -1.0625 C 11.710938 -1.0625 12.675781 -1.378906 13.308594 -2.011719 C 13.9375 -2.644531 14.253906 -3.605469 14.253906 -4.902344 L 14.253906 -12.664062 C 14.253906 -12.640625 14.261719 -12.605469 14.277344 -12.566406 C 14.304688 -12.476562 14.359375 -12.394531 14.429688 -12.320312 C 14.503906 -12.246094 14.585938 -12.195312 14.675781 -12.164062 C 14.71875 -12.152344 14.75 -12.144531 14.773438 -12.144531 L 9.257812 -12.144531 C 9.285156 -12.144531 9.316406 -12.152344 9.359375 -12.164062 C 9.449219 -12.195312 9.53125 -12.246094 9.601562 -12.320312 C 9.675781 -12.394531 9.726562 -12.476562 9.757812 -12.566406 C 9.773438 -12.605469 9.777344 -12.640625 9.777344 -12.664062 L 9.777344 -9.257812 C 9.777344 -9.285156 9.773438 -9.316406 9.757812 -9.359375 C 9.726562 -9.449219 9.675781 -9.53125 9.601562 -9.601562 C 9.53125 -9.675781 9.449219 -9.726562 9.359375 -9.757812 C 9.316406 -9.773438 9.285156 -9.777344 9.257812 -9.777344 L 12.09375 -9.777344 L 12.09375 -5.753906 C 12.09375 -5.003906 11.875 -4.414062 11.441406 -3.980469 C 11.007812 -3.542969 10.414062 -3.328125 9.667969 -3.328125 L 7.488281 -3.328125 C 6.742188 -3.328125 6.152344 -3.542969 5.714844 -3.980469 C 5.28125 -4.414062 5.0625 -5.003906 5.0625 -5.753906 L 5.0625 -18.078125 C 5.0625 -18.824219 5.28125 -19.414062 5.714844 -19.851562 C 6.152344 -20.285156 6.742188 -20.503906 7.488281 -20.503906 L 9.667969 -20.503906 C 10.414062 -20.503906 11.007812 -20.285156 11.441406 -19.851562 C 11.875 -19.414062 12.09375 -18.824219 12.09375 -18.078125 L 12.09375 -16.410156 C 12.09375 -16.433594 12.085938 -16.464844 12.074219 -16.507812 C 12.042969 -16.597656 11.992188 -16.679688 11.917969 -16.753906 C 11.84375 -16.824219 11.761719 -16.875 11.671875 -16.90625 C 11.632812 -16.921875 11.597656 -16.925781 11.574219 -16.925781 L 14.773438 -16.925781 C 14.75 -16.925781 14.71875 -16.921875 14.675781 -16.90625 C 14.585938 -16.875 14.503906 -16.824219 14.429688 -16.753906 C 14.359375 -16.679688 14.304688 -16.597656 14.277344 -16.507812 C 14.261719 -16.464844 14.253906 -16.433594 14.253906 -16.410156 L 14.253906 -18.925781 C 14.253906 -20.242188 13.941406 -21.210938 13.3125 -21.828125 C 12.679688 -22.453125 11.714844 -22.765625 10.417969 -22.765625 L 6.605469 -22.765625 C 5.304688 -22.765625 4.339844 -22.453125 3.707031 -21.828125 C 3.082031 -21.210938 2.765625 -20.242188 2.765625 -18.925781 Z M 2.765625 -4.902344 "/></g></g><g style="fill:#060705;fill-opacity:1;"><g transform="translate(21.157784, 61.64496)"><path style="stroke:none" d="M 6.609375 -23.828125 L 10.421875 -23.828125 C 12.023438 -23.828125 13.242188 -23.410156 14.078125 -22.578125 C 14.910156 -21.753906 15.328125 -20.539062 15.328125 -18.9375 L 15.328125 -16.6875 C 15.328125 -16.320312 15.144531 -16.140625 14.78125 -16.140625 L 11.34375 -16.140625 C 10.976562 -16.140625 10.796875 -16.320312 10.796875 -16.6875 L 10.796875 -18.109375 C 10.796875 -19.015625 10.34375 -19.46875 9.4375 -19.46875 L 7.5625 -19.46875 C 6.65625 -19.46875 6.203125 -19.015625 6.203125 -18.109375 L 6.203125 -15.21875 L 14.4375 -12.5625 C 15.03125 -12.351562 15.328125 -11.929688 15.328125 -11.296875 L 15.328125 -4.90625 C 15.328125 -3.3125 14.910156 -2.09375 14.078125 -1.25 C 13.242188 -0.414062 12.023438 0 10.421875 0 L 6.609375 0 C 5.015625 0 3.796875 -0.414062 2.953125 -1.25 C 2.117188 -2.09375 1.703125 -3.3125 1.703125 -4.90625 L 1.703125 -7.109375 C 1.703125 -7.472656 1.882812 -7.65625 2.25 -7.65625 L 5.6875 -7.65625 C 6.050781 -7.65625 6.234375 -7.472656 6.234375 -7.109375 L 6.234375 -5.6875 C 6.234375 -4.78125 6.6875 -4.328125 7.59375 -4.328125 L 9.4375 -4.328125 C 10.34375 -4.328125 10.796875 -4.78125 10.796875 -5.6875 L 10.796875 -9.125 L 2.625 -11.78125 C 2.007812 -11.988281 1.703125 -12.410156 1.703125 -13.046875 L 1.703125 -18.9375 C 1.703125 -20.539062 2.117188 -21.753906 2.953125 -22.578125 C 3.796875 -23.410156 5.015625 -23.828125 6.609375 -23.828125 Z M 6.609375 -23.828125 "/></g></g><g style="fill:#060705;fill-opacity:1;"><g transform="translate(38.173496, 61.64496)"><path style="stroke:none" d="M 14.09375 -23.828125 L 1.5625 -23.828125 C 1.195312 -23.828125 1.015625 -23.644531 1.015625 -23.28125 L 1.015625 -19.890625 C 1.015625 -19.523438 1.195312 -19.34375 1.5625 -19.34375 L 5.515625 -19.34375 L 5.515625 -0.546875 C 5.515625 -0.179688 5.695312 0 6.0625 0 L 9.59375 0 C 9.957031 0 10.140625 -0.179688 10.140625 -0.546875 L 10.140625 -19.34375 L 14.09375 -19.34375 C 14.457031 -19.34375 14.640625 -19.523438 14.640625 -19.890625 L 14.640625 -23.28125 C 14.640625 -23.644531 14.457031 -23.828125 14.09375 -23.828125 Z M 14.09375 -23.828125 "/></g></g><g style="fill:#060705;fill-opacity:1;"><g transform="translate(53.827953, 61.64496)"><path style="stroke:none" d="M 17.765625 0 L 14.46875 0 C 14.175781 0 13.992188 -0.160156 13.921875 -0.484375 L 12.828125 -4.765625 L 6.4375 -4.765625 L 5.375 -0.484375 C 5.3125 -0.160156 5.128906 0 4.828125 0 L 1.5 0 C 1.09375 0 0.945312 -0.191406 1.0625 -0.578125 L 6.703125 -23.359375 C 6.773438 -23.671875 6.96875 -23.828125 7.28125 -23.828125 L 12.015625 -23.828125 C 12.335938 -23.828125 12.53125 -23.671875 12.59375 -23.359375 L 18.25 -0.578125 C 18.363281 -0.191406 18.203125 0 17.765625 0 Z M 11.78125 -8.71875 L 9.640625 -17.984375 L 7.484375 -8.71875 Z M 11.78125 -8.71875 "/></g></g><g style="fill:#060705;fill-opacity:1;"><g transform="translate(73.123775, 61.64496)"><path style="stroke:none" d="M 14.09375 -23.828125 L 1.5625 -23.828125 C 1.195312 -23.828125 1.015625 -23.644531 1.015625 -23.28125 L 1.015625 -19.890625 C 1.015625 -19.523438 1.195312 -19.34375 1.5625 -19.34375 L 5.515625 -19.34375 L 5.515625 -0.546875 C 5.515625 -0.179688 5.695312 0 6.0625 0 L 9.59375 0 C 9.957031 0 10.140625 -0.179688 10.140625 -0.546875 L 10.140625 -19.34375 L 14.09375 -19.34375 C 14.457031 -19.34375 14.640625 -19.523438 14.640625 -19.890625 L 14.640625 -23.28125 C 14.640625 -23.644531 14.457031 -23.828125 14.09375 -23.828125 Z M 14.09375 -23.828125 "/></g></g><g style="fill:#060705;fill-opacity:1;"><g transform="translate(88.778232, 61.64496)"><path style="stroke:none" d="M 11.515625 -23.828125 L 14.640625 -23.828125 C 14.816406 -23.828125 14.972656 -23.757812 15.109375 -23.625 C 15.253906 -23.488281 15.328125 -23.332031 15.328125 -23.15625 L 15.328125 -4.90625 C 15.328125 -3.3125 14.910156 -2.09375 14.078125 -1.25 C 13.242188 -0.414062 12.023438 0 10.421875 0 L 6.609375 0 C 5.015625 0 3.796875 -0.414062 2.953125 -1.25 C 2.117188 -2.09375 1.703125 -3.3125 1.703125 -4.90625 L 1.703125 -23.15625 C 1.703125 -23.332031 1.769531 -23.488281 1.90625 -23.625 C 2.039062 -23.757812 2.203125 -23.828125 2.390625 -23.828125 L 5.65625 -23.828125 C 5.832031 -23.828125 5.988281 -23.757812 6.125 -23.625 C 6.257812 -23.488281 6.328125 -23.332031 6.328125 -23.15625 L 6.328125 -5.859375 C 6.328125 -4.953125 6.78125 -4.5 7.6875 -4.5 L 9.46875 -4.5 C 10.375 -4.5 10.828125 -4.953125 10.828125 -5.859375 L 10.828125 -23.15625 C 10.828125 -23.332031 10.894531 -23.488281 11.03125 -23.625 C 11.164062 -23.757812 11.328125 -23.828125 11.515625 -23.828125 Z M 11.515625 -23.828125 "/></g></g><g style="fill:#060705;fill-opacity:1;"><g transform="translate(105.793945, 61.64496)"><path style="stroke:none" d="M 6.609375 -23.828125 L 10.421875 -23.828125 C 12.023438 -23.828125 13.242188 -23.410156 14.078125 -22.578125 C 14.910156 -21.753906 15.328125 -20.539062 15.328125 -18.9375 L 15.328125 -16.6875 C 15.328125 -16.320312 15.144531 -16.140625 14.78125 -16.140625 L 11.34375 -16.140625 C 10.976562 -16.140625 10.796875 -16.320312 10.796875 -16.6875 L 10.796875 -18.109375 C 10.796875 -19.015625 10.34375 -19.46875 9.4375 -19.46875 L 7.5625 -19.46875 C 6.65625 -19.46875 6.203125 -19.015625 6.203125 -18.109375 L 6.203125 -15.21875 L 14.4375 -12.5625 C 15.03125 -12.351562 15.328125 -11.929688 15.328125 -11.296875 L 15.328125 -4.90625 C 15.328125 -3.3125 14.910156 -2.09375 14.078125 -1.25 C 13.242188 -0.414062 12.023438 0 10.421875 0 L 6.609375 0 C 5.015625 0 3.796875 -0.414062 2.953125 -1.25 C 2.117188 -2.09375 1.703125 -3.3125 1.703125 -4.90625 L 1.703125 -7.109375 C 1.703125 -7.472656 1.882812 -7.65625 2.25 -7.65625 L 5.6875 -7.65625 C 6.050781 -7.65625 6.234375 -7.472656 6.234375 -7.109375 L 6.234375 -5.6875 C 6.234375 -4.78125 6.6875 -4.328125 7.59375 -4.328125 L 9.4375 -4.328125 C 10.34375 -4.328125 10.796875 -4.78125 10.796875 -5.6875 L 10.796875 -9.125 L 2.625 -11.78125 C 2.007812 -11.988281 1.703125 -12.410156 1.703125 -13.046875 L 1.703125 -18.9375 C 1.703125 -20.539062 2.117188 -21.753906 2.953125 -22.578125 C 3.796875 -23.410156 5.015625 -23.828125 6.609375 -23.828125 Z M 6.609375 -23.828125 "/></g></g><g style="fill:#060705;fill-opacity:1;"><g transform="translate(35.058882, 109.105548)"><path style="stroke:none" d="M 0 4.5625 L 0 1.4375 C 0 0.976562 0.226562 0.75 0.6875 0.75 L 21.21875 0.75 C 21.664062 0.75 21.890625 0.976562 21.890625 1.4375 L 21.890625 4.5625 C 21.890625 5.019531 21.664062 5.25 21.21875 5.25 L 0.6875 5.25 C 0.226562 5.25 0 5.019531 0 4.5625 Z M 0 4.5625 "/></g></g><g style="fill:#060705;fill-opacity:1;"><g transform="translate(56.941093, 109.105548)"><path style="stroke:none" d="M 14.09375 -23.828125 L 1.5625 -23.828125 C 1.195312 -23.828125 1.015625 -23.644531 1.015625 -23.28125 L 1.015625 -19.890625 C 1.015625 -19.523438 1.195312 -19.34375 1.5625 -19.34375 L 5.515625 -19.34375 L 5.515625 -0.546875 C 5.515625 -0.179688 5.695312 0 6.0625 0 L 9.59375 0 C 9.957031 0 10.140625 -0.179688 10.140625 -0.546875 L 10.140625 -19.34375 L 14.09375 -19.34375 C 14.457031 -19.34375 14.640625 -19.523438 14.640625 -19.890625 L 14.640625 -23.28125 C 14.640625 -23.644531 14.457031 -23.828125 14.09375 -23.828125 Z M 14.09375 -23.828125 "/></g></g><g style="fill:#060705;fill-opacity:1;"><g transform="translate(72.59555, 109.105548)"><path style="stroke:none" d="M 17.765625 0 L 14.46875 0 C 14.175781 0 13.992188 -0.160156 13.921875 -0.484375 L 12.828125 -4.765625 L 6.4375 -4.765625 L 5.375 -0.484375 C 5.3125 -0.160156 5.128906 0 4.828125 0 L 1.5 0 C 1.09375 0 0.945312 -0.191406 1.0625 -0.578125 L 6.703125 -23.359375 C 6.773438 -23.671875 6.96875 -23.828125 7.28125 -23.828125 L 12.015625 -23.828125 C 12.335938 -23.828125 12.53125 -23.671875 12.59375 -23.359375 L 18.25 -0.578125 C 18.363281 -0.191406 18.203125 0 17.765625 0 Z M 11.78125 -8.71875 L 9.640625 -17.984375 L 7.484375 -8.71875 Z M 11.78125 -8.71875 "/></g></g><g style="fill:#060705;fill-opacity:1;"><g transform="translate(91.891372, 109.105548)"><path style="stroke:none" d="M 1.703125 -4.90625 L 1.703125 -18.9375 C 1.703125 -20.539062 2.117188 -21.753906 2.953125 -22.578125 C 3.796875 -23.410156 5.015625 -23.828125 6.609375 -23.828125 L 10.421875 -23.828125 C 12.003906 -23.828125 13.21875 -23.410156 14.0625 -22.578125 C 14.90625 -21.753906 15.328125 -20.539062 15.328125 -18.9375 L 15.328125 -16.40625 C 15.328125 -16.039062 15.144531 -15.859375 14.78125 -15.859375 L 11.578125 -15.859375 C 11.210938 -15.859375 11.03125 -16.039062 11.03125 -16.40625 L 11.03125 -18.078125 C 11.03125 -18.984375 10.578125 -19.4375 9.671875 -19.4375 L 7.484375 -19.4375 C 6.578125 -19.4375 6.125 -18.984375 6.125 -18.078125 L 6.125 -5.75 C 6.125 -4.84375 6.578125 -4.390625 7.484375 -4.390625 L 9.671875 -4.390625 C 10.578125 -4.390625 11.03125 -4.84375 11.03125 -5.75 L 11.03125 -8.71875 L 9.265625 -8.71875 C 8.898438 -8.71875 8.71875 -8.898438 8.71875 -9.265625 L 8.71875 -12.671875 C 8.71875 -13.023438 8.898438 -13.203125 9.265625 -13.203125 L 14.78125 -13.203125 C 15.144531 -13.203125 15.328125 -13.023438 15.328125 -12.671875 L 15.328125 -4.90625 C 15.328125 -3.3125 14.90625 -2.09375 14.0625 -1.25 C 13.21875 -0.414062 12.003906 0 10.421875 0 L 6.609375 0 C 5.015625 0 3.796875 -0.414062 2.953125 -1.25 C 2.117188 -2.09375 1.703125 -3.3125 1.703125 -4.90625 Z M 1.703125 -4.90625 "/></g></g></g></svg>