<svg xmlns="http://www.w3.org/2000/svg" xmlns:xlink="http://www.w3.org/1999/xlink" width="192" zoomAndPan="magnify" viewBox="0 0 144 143.999998" height="192" preserveAspectRatio="xMidYMid meet" version="1.2"><defs><clipPath id="a815610b8e"><path d="M 9 0 L 135 0 L 135 144 L 9 144 Z M 9 0 "/></clipPath><clipPath id="6f51fe7141"><path d="M -21.457031 54.867188 L 103.039062 -17.847656 L 165.503906 89.105469 L 41.007812 161.816406 Z M -21.457031 54.867188 "/></clipPath><clipPath id="8e26baaa7f"><path d="M 134.226562 35.65625 L 134.347656 107.300781 L 72.121094 143.644531 L 9.773438 108.34375 L 9.65625 36.695312 L 71.878906 0.351562 Z M 134.226562 35.65625 "/></clipPath><clipPath id="128ad6032a"><path d="M 21.210938 13.683594 L 122.773438 13.683594 L 122.773438 130.261719 L 21.210938 130.261719 Z M 21.210938 13.683594 "/></clipPath></defs><g id="50135f3824"><g clip-rule="nonzero" clip-path="url(#a815610b8e)"><g clip-rule="nonzero" clip-path="url(#6f51fe7141)"><g clip-rule="nonzero" clip-path="url(#8e26baaa7f)"><path style=" stroke:none;fill-rule:nonzero;fill:#65b30e;fill-opacity:1;" d="M -21.457031 54.867188 L 103.039062 -17.847656 L 165.503906 89.105469 L 41.007812 161.816406 Z M -21.457031 54.867188 "/></g></g></g><path style=" stroke:none;fill-rule:nonzero;fill:#87ff00;fill-opacity:1;" d="M 51.679688 52.109375 L 51.613281 52.046875 L 37.261719 66.398438 L 72.113281 101.183594 L 86.46875 86.898438 L 106.960938 66.398438 L 92.609375 52.046875 L 92.609375 51.980469 L 51.617188 51.980469 Z M 51.679688 52.109375 "/><g clip-rule="nonzero" clip-path="url(#128ad6032a)"><path style=" stroke:none;fill-rule:nonzero;fill:#87ff00;fill-opacity:1;" d="M 71.980469 13.765625 L 21.222656 42.863281 L 21.226562 101.058594 L 71.984375 130.15625 L 122.742188 101.058594 L 122.742188 42.863281 L 71.984375 13.769531 Z M 113.039062 95.496094 L 71.980469 119.160156 L 30.921875 95.496094 L 30.925781 48.292969 L 71.984375 24.628906 L 113.042969 48.292969 L 113.042969 95.492188 Z M 113.039062 95.496094 "/></g><g style="fill:#000000;fill-opacity:1;"><g transform="translate(41.419277, 79.025012)"><path style="stroke:none" d="M 8.40625 -5.046875 C 8.40625 -3.984375 8.253906 -3.054688 7.953125 -2.265625 C 7.648438 -1.472656 7.195312 -0.851562 6.59375 -0.40625 C 5.988281 0.03125 5.25 0.25 4.375 0.25 C 3.488281 0.25 2.742188 0.0351562 2.140625 -0.390625 C 1.546875 -0.828125 1.09375 -1.441406 0.78125 -2.234375 C 0.476562 -3.023438 0.328125 -3.960938 0.328125 -5.046875 C 0.328125 -6.117188 0.476562 -7.050781 0.78125 -7.84375 C 1.09375 -8.632812 1.546875 -9.25 2.140625 -9.6875 C 2.742188 -10.125 3.488281 -10.34375 4.375 -10.34375 C 5.25 -10.34375 5.988281 -10.128906 6.59375 -9.703125 C 7.195312 -9.273438 7.648438 -8.664062 7.953125 -7.875 C 8.253906 -7.082031 8.40625 -6.140625 8.40625 -5.046875 Z M 5.96875 -5.046875 C 5.96875 -6.296875 5.84375 -7.203125 5.59375 -7.765625 C 5.34375 -8.328125 4.9375 -8.609375 4.375 -8.609375 C 3.800781 -8.609375 3.390625 -8.320312 3.140625 -7.75 C 2.898438 -7.1875 2.78125 -6.285156 2.78125 -5.046875 C 2.78125 -3.804688 2.90625 -2.90625 3.15625 -2.34375 C 3.40625 -1.78125 3.8125 -1.5 4.375 -1.5 C 4.957031 -1.5 5.367188 -1.785156 5.609375 -2.359375 C 5.847656 -2.929688 5.96875 -3.828125 5.96875 -5.046875 Z M 5.96875 -5.046875 "/></g></g><g style="fill:#000000;fill-opacity:1;"><g transform="translate(50.155578, 79.025012)"><path style="stroke:none" d=""/></g></g><g style="fill:#000000;fill-opacity:1;"><g transform="translate(58.89188, 79.025012)"><path style="stroke:none" d="M 5.9375 -6.796875 C 5.9375 -7.160156 5.867188 -7.457031 5.734375 -7.6875 C 5.597656 -7.925781 5.394531 -8.101562 5.125 -8.21875 C 4.851562 -8.332031 4.515625 -8.390625 4.109375 -8.390625 L 3.296875 -8.390625 L 3.296875 -5.09375 L 4.234375 -5.09375 C 4.585938 -5.09375 4.890625 -5.148438 5.140625 -5.265625 C 5.398438 -5.390625 5.597656 -5.578125 5.734375 -5.828125 C 5.867188 -6.085938 5.9375 -6.410156 5.9375 -6.796875 Z M 8.390625 -6.8125 C 8.390625 -6.03125 8.222656 -5.382812 7.890625 -4.875 C 7.554688 -4.363281 7.085938 -3.984375 6.484375 -3.734375 C 5.878906 -3.484375 5.179688 -3.359375 4.390625 -3.359375 L 3.296875 -3.359375 L 3.296875 0 L 0.90625 0 L 0.90625 -10.09375 L 4.078125 -10.09375 C 5.453125 -10.09375 6.515625 -9.816406 7.265625 -9.265625 C 8.015625 -8.722656 8.390625 -7.90625 8.390625 -6.8125 Z M 8.390625 -6.8125 "/></g></g><g style="fill:#000000;fill-opacity:1;"><g transform="translate(67.628181, 79.025012)"><path style="stroke:none" d=""/></g></g><g style="fill:#000000;fill-opacity:1;"><g transform="translate(76.364483, 79.025012)"><path style="stroke:none" d="M 3.75 -8.390625 L 3.75 -5.96875 L 7.234375 -5.96875 L 7.234375 -4.28125 L 3.75 -4.28125 L 3.75 -1.71875 L 7.953125 -1.71875 L 7.953125 0 L 1.359375 0 L 1.359375 -10.09375 L 7.953125 -10.09375 L 7.703125 -8.390625 Z M 3.75 -8.390625 "/></g></g><g style="fill:#000000;fill-opacity:1;"><g transform="translate(85.100784, 79.025012)"><path style="stroke:none" d=""/></g></g><g style="fill:#000000;fill-opacity:1;"><g transform="translate(93.837086, 79.025012)"><path style="stroke:none" d="M 5.078125 0 L 2.421875 -8.125 C 2.453125 -7.90625 2.488281 -7.640625 2.53125 -7.328125 C 2.570312 -7.015625 2.613281 -6.671875 2.65625 -6.296875 C 2.695312 -5.921875 2.726562 -5.519531 2.75 -5.09375 C 2.769531 -4.675781 2.78125 -4.25 2.78125 -3.8125 L 2.78125 0 L 0.75 0 L 0.75 -10.09375 L 3.734375 -10.09375 L 6.3125 -2.015625 C 6.257812 -2.316406 6.203125 -2.679688 6.140625 -3.109375 C 6.085938 -3.535156 6.039062 -4.007812 6 -4.53125 C 5.96875 -5.0625 5.953125 -5.625 5.953125 -6.21875 L 5.953125 -10.09375 L 7.984375 -10.09375 L 7.984375 0 Z M 5.078125 0 "/></g></g><g style="fill:#000000;fill-opacity:1;"><g transform="translate(23.945719, 99.248717)"><path style="stroke:none" d="M 8.265625 -2.953125 C 8.265625 -2.328125 8.097656 -1.769531 7.765625 -1.28125 C 7.441406 -0.800781 6.972656 -0.425781 6.359375 -0.15625 C 5.753906 0.113281 5.023438 0.25 4.171875 0.25 C 3.210938 0.25 2.410156 0.109375 1.765625 -0.171875 C 1.128906 -0.453125 0.597656 -0.796875 0.171875 -1.203125 L 1.390625 -2.546875 C 1.753906 -2.222656 2.160156 -1.972656 2.609375 -1.796875 C 3.066406 -1.617188 3.566406 -1.53125 4.109375 -1.53125 C 4.441406 -1.53125 4.734375 -1.578125 4.984375 -1.671875 C 5.234375 -1.773438 5.425781 -1.914062 5.5625 -2.09375 C 5.707031 -2.28125 5.78125 -2.503906 5.78125 -2.765625 C 5.78125 -3.015625 5.722656 -3.222656 5.609375 -3.390625 C 5.503906 -3.554688 5.316406 -3.707031 5.046875 -3.84375 C 4.785156 -3.988281 4.421875 -4.128906 3.953125 -4.265625 C 3.171875 -4.503906 2.539062 -4.769531 2.0625 -5.0625 C 1.582031 -5.351562 1.234375 -5.691406 1.015625 -6.078125 C 0.796875 -6.460938 0.6875 -6.910156 0.6875 -7.421875 C 0.6875 -8.035156 0.859375 -8.5625 1.203125 -9 C 1.546875 -9.4375 2.003906 -9.769531 2.578125 -10 C 3.160156 -10.226562 3.800781 -10.34375 4.5 -10.34375 C 5.28125 -10.34375 5.96875 -10.226562 6.5625 -10 C 7.15625 -9.78125 7.671875 -9.460938 8.109375 -9.046875 L 6.984375 -7.75 C 6.640625 -8.03125 6.269531 -8.238281 5.875 -8.375 C 5.488281 -8.519531 5.09375 -8.59375 4.6875 -8.59375 C 4.382812 -8.59375 4.117188 -8.550781 3.890625 -8.46875 C 3.660156 -8.394531 3.484375 -8.285156 3.359375 -8.140625 C 3.234375 -7.992188 3.171875 -7.816406 3.171875 -7.609375 C 3.171875 -7.390625 3.226562 -7.207031 3.34375 -7.0625 C 3.46875 -6.914062 3.679688 -6.773438 3.984375 -6.640625 C 4.285156 -6.515625 4.703125 -6.367188 5.234375 -6.203125 C 5.867188 -6.003906 6.410156 -5.769531 6.859375 -5.5 C 7.316406 -5.238281 7.664062 -4.898438 7.90625 -4.484375 C 8.144531 -4.078125 8.265625 -3.566406 8.265625 -2.953125 Z M 8.265625 -2.953125 "/></g></g><g style="fill:#000000;fill-opacity:1;"><g transform="translate(32.682021, 99.248717)"><path style="stroke:none" d=""/></g></g><g style="fill:#000000;fill-opacity:1;"><g transform="translate(41.418322, 99.248717)"><path style="stroke:none" d="M 8.40625 -5.046875 C 8.40625 -3.984375 8.253906 -3.054688 7.953125 -2.265625 C 7.648438 -1.472656 7.195312 -0.851562 6.59375 -0.40625 C 5.988281 0.03125 5.25 0.25 4.375 0.25 C 3.488281 0.25 2.742188 0.0351562 2.140625 -0.390625 C 1.546875 -0.828125 1.09375 -1.441406 0.78125 -2.234375 C 0.476562 -3.023438 0.328125 -3.960938 0.328125 -5.046875 C 0.328125 -6.117188 0.476562 -7.050781 0.78125 -7.84375 C 1.09375 -8.632812 1.546875 -9.25 2.140625 -9.6875 C 2.742188 -10.125 3.488281 -10.34375 4.375 -10.34375 C 5.25 -10.34375 5.988281 -10.128906 6.59375 -9.703125 C 7.195312 -9.273438 7.648438 -8.664062 7.953125 -7.875 C 8.253906 -7.082031 8.40625 -6.140625 8.40625 -5.046875 Z M 5.96875 -5.046875 C 5.96875 -6.296875 5.84375 -7.203125 5.59375 -7.765625 C 5.34375 -8.328125 4.9375 -8.609375 4.375 -8.609375 C 3.800781 -8.609375 3.390625 -8.320312 3.140625 -7.75 C 2.898438 -7.1875 2.78125 -6.285156 2.78125 -5.046875 C 2.78125 -3.804688 2.90625 -2.90625 3.15625 -2.34375 C 3.40625 -1.78125 3.8125 -1.5 4.375 -1.5 C 4.957031 -1.5 5.367188 -1.785156 5.609375 -2.359375 C 5.847656 -2.929688 5.96875 -3.828125 5.96875 -5.046875 Z M 5.96875 -5.046875 "/></g></g><g style="fill:#000000;fill-opacity:1;"><g transform="translate(50.154624, 99.248717)"><path style="stroke:none" d=""/></g></g><g style="fill:#000000;fill-opacity:1;"><g transform="translate(58.890925, 99.248717)"><path style="stroke:none" d="M 8.125 -10.09375 L 8.125 -3.375 C 8.125 -2.6875 7.984375 -2.066406 7.703125 -1.515625 C 7.421875 -0.972656 7.003906 -0.539062 6.453125 -0.21875 C 5.898438 0.09375 5.207031 0.25 4.375 0.25 C 3.53125 0.25 2.828125 0.0976562 2.265625 -0.203125 C 1.710938 -0.515625 1.296875 -0.941406 1.015625 -1.484375 C 0.742188 -2.023438 0.609375 -2.65625 0.609375 -3.375 L 0.609375 -10.09375 L 3 -10.09375 L 3 -4.265625 C 3 -3.359375 3.082031 -2.675781 3.25 -2.21875 C 3.414062 -1.757812 3.789062 -1.53125 4.375 -1.53125 C 4.945312 -1.53125 5.316406 -1.757812 5.484375 -2.21875 C 5.648438 -2.675781 5.734375 -3.359375 5.734375 -4.265625 L 5.734375 -10.09375 Z M 8.125 -10.09375 "/></g></g><g style="fill:#000000;fill-opacity:1;"><g transform="translate(67.627227, 99.248717)"><path style="stroke:none" d=""/></g></g><g style="fill:#000000;fill-opacity:1;"><g transform="translate(76.363528, 99.248717)"><path style="stroke:none" d="M 8.171875 -7.03125 C 8.171875 -6.550781 8.082031 -6.128906 7.90625 -5.765625 C 7.726562 -5.410156 7.484375 -5.109375 7.171875 -4.859375 C 6.867188 -4.609375 6.53125 -4.410156 6.15625 -4.265625 L 8.796875 0 L 6.09375 0 L 3.90625 -3.859375 L 3.234375 -3.859375 L 3.234375 0 L 0.84375 0 L 0.84375 -10.09375 L 4.015625 -10.09375 C 5.390625 -10.09375 6.425781 -9.84375 7.125 -9.34375 C 7.820312 -8.84375 8.171875 -8.070312 8.171875 -7.03125 Z M 5.71875 -7.03125 C 5.71875 -7.507812 5.570312 -7.859375 5.28125 -8.078125 C 5 -8.304688 4.582031 -8.421875 4.03125 -8.421875 L 3.234375 -8.421875 L 3.234375 -5.5 L 4.125 -5.5 C 4.644531 -5.5 5.039062 -5.617188 5.3125 -5.859375 C 5.582031 -6.097656 5.71875 -6.488281 5.71875 -7.03125 Z M 5.71875 -7.03125 "/></g></g><g style="fill:#000000;fill-opacity:1;"><g transform="translate(85.09983, 99.248717)"><path style="stroke:none" d=""/></g></g><g style="fill:#000000;fill-opacity:1;"><g transform="translate(93.836131, 99.248717)"><path style="stroke:none" d="M 5.21875 -10.34375 C 5.9375 -10.34375 6.546875 -10.242188 7.046875 -10.046875 C 7.554688 -9.859375 8.023438 -9.59375 8.453125 -9.25 L 7.28125 -7.828125 C 7 -8.054688 6.691406 -8.238281 6.359375 -8.375 C 6.023438 -8.507812 5.660156 -8.578125 5.265625 -8.578125 C 4.847656 -8.578125 4.460938 -8.457031 4.109375 -8.21875 C 3.765625 -7.976562 3.488281 -7.597656 3.28125 -7.078125 C 3.070312 -6.566406 2.96875 -5.894531 2.96875 -5.0625 C 2.96875 -4.257812 3.066406 -3.597656 3.265625 -3.078125 C 3.460938 -2.566406 3.738281 -2.191406 4.09375 -1.953125 C 4.445312 -1.710938 4.851562 -1.59375 5.3125 -1.59375 C 5.820312 -1.59375 6.242188 -1.6875 6.578125 -1.875 C 6.910156 -2.0625 7.21875 -2.269531 7.5 -2.5 L 8.578125 -1.109375 C 8.203125 -0.734375 7.738281 -0.410156 7.1875 -0.140625 C 6.632812 0.117188 5.96875 0.25 5.1875 0.25 C 4.269531 0.25 3.457031 0.046875 2.75 -0.359375 C 2.050781 -0.765625 1.5 -1.359375 1.09375 -2.140625 C 0.695312 -2.929688 0.5 -3.90625 0.5 -5.0625 C 0.5 -6.1875 0.703125 -7.140625 1.109375 -7.921875 C 1.523438 -8.710938 2.085938 -9.3125 2.796875 -9.71875 C 3.515625 -10.132812 4.320312 -10.34375 5.21875 -10.34375 Z M 5.21875 -10.34375 "/></g></g><g style="fill:#000000;fill-opacity:1;"><g transform="translate(102.572432, 99.248717)"><path style="stroke:none" d=""/></g></g><g style="fill:#000000;fill-opacity:1;"><g transform="translate(111.308734, 99.248717)"><path style="stroke:none" d="M 3.75 -8.390625 L 3.75 -5.96875 L 7.234375 -5.96875 L 7.234375 -4.28125 L 3.75 -4.28125 L 3.75 -1.71875 L 7.953125 -1.71875 L 7.953125 0 L 1.359375 0 L 1.359375 -10.09375 L 7.953125 -10.09375 L 7.703125 -8.390625 Z M 3.75 -8.390625 "/></g></g><g style="fill:#000000;fill-opacity:1;"><g transform="translate(23.213154, 61.647806)"><path style="stroke:none" d="M 6.453125 -10.6875 L 7.625 -8.578125 C 8.007812 -7.296875 7.941406 -6.125 7.421875 -5.0625 C 6.898438 -4 6.125 -3.179688 5.09375 -2.609375 C 3.78125 -1.878906 2.390625 -1.75 0.921875 -2.21875 C -0.535156 -2.6875 -1.648438 -3.609375 -2.421875 -4.984375 C -3.203125 -6.398438 -3.410156 -7.84375 -3.046875 -9.3125 C -2.691406 -10.78125 -1.835938 -11.890625 -0.484375 -12.640625 C 1.078125 -13.515625 2.625 -13.65625 4.15625 -13.0625 L 3.59375 -10.671875 C 2.613281 -11.203125 1.664062 -11.210938 0.75 -10.703125 C 0.0625 -10.328125 -0.351562 -9.707031 -0.5 -8.84375 C -0.65625 -7.988281 -0.5 -7.140625 -0.03125 -6.296875 C 0.425781 -5.484375 1.054688 -4.921875 1.859375 -4.609375 C 2.660156 -4.296875 3.40625 -4.328125 4.09375 -4.703125 C 4.65625 -5.015625 5.046875 -5.457031 5.265625 -6.03125 C 5.492188 -6.601562 5.453125 -7.175781 5.140625 -7.75 L 2.921875 -6.515625 L 1.984375 -8.203125 Z M 6.453125 -10.6875 "/></g></g><g style="fill:#000000;fill-opacity:1;"><g transform="translate(40.961593, 52.879136)"><path style="stroke:none" d="M 2.984375 -12.484375 L 10.4375 -3.140625 L 7.859375 -2.359375 L 6.421875 -4.25 L 2.375 -3.03125 L 2.25 -0.671875 L -0.359375 0.109375 L 0.734375 -11.796875 Z M 4.953125 -6.125 L 2.859375 -8.84375 L 2.828125 -8.84375 L 2.5625 -5.40625 Z M 4.953125 -6.125 "/></g></g><g style="fill:#000000;fill-opacity:1;"><g transform="translate(59.657394, 48.30576)"><path style="stroke:none" d="M 2.265625 -11.359375 L 3.109375 -2.515625 L 6.921875 -2.890625 L 7.125 -0.6875 L 0.8125 -0.078125 L -0.234375 -11.125 Z M 2.265625 -11.359375 "/></g></g><g style="fill:#000000;fill-opacity:1;"><g transform="translate(75.998536, 47.5345)"><path style="stroke:none" d="M 0.890625 -8.828125 L 1.09375 -11.03125 L 8.859375 -10.34375 L 8.65625 -8.140625 L 6.03125 -8.375 L 5.25 0.46875 L 2.71875 0.234375 L 3.5 -8.609375 Z M 0.890625 -8.828125 "/></g></g><g style="fill:#000000;fill-opacity:1;"><g transform="translate(92.583933, 49.7535)"><path style="stroke:none" d="M 12.84375 -7.78125 L 5.0625 -0.8125 L 9.984375 0.625 L 9.359375 2.75 L 0.203125 0.0625 L 7.96875 -6.90625 L 3.453125 -8.234375 L 4.078125 -10.359375 Z M 12.84375 -7.78125 "/></g></g><g style="fill:#000000;fill-opacity:1;"><g transform="translate(110.538421, 55.940844)"><path style="stroke:none" d="M 2.96875 -4.703125 C 3.738281 -6.109375 4.867188 -7.03125 6.359375 -7.46875 C 7.847656 -7.914062 9.269531 -7.765625 10.625 -7.015625 C 11.976562 -6.273438 12.859375 -5.15625 13.265625 -3.65625 C 13.679688 -2.164062 13.503906 -0.71875 12.734375 0.6875 C 11.953125 2.101562 10.828125 3.035156 9.359375 3.484375 C 7.890625 3.941406 6.460938 3.789062 5.078125 3.03125 C 3.648438 2.238281 2.742188 1.113281 2.359375 -0.34375 C 1.972656 -1.8125 2.175781 -3.265625 2.96875 -4.703125 Z M 5.34375 -3.390625 C 5.050781 -2.878906 4.867188 -2.367188 4.796875 -1.859375 C 4.722656 -1.347656 4.804688 -0.84375 5.046875 -0.34375 C 5.285156 0.15625 5.691406 0.566406 6.265625 0.890625 C 7.085938 1.335938 7.859375 1.394531 8.578125 1.0625 C 9.304688 0.738281 9.894531 0.175781 10.34375 -0.625 C 10.78125 -1.414062 10.941406 -2.210938 10.828125 -3.015625 C 10.710938 -3.828125 10.253906 -4.453125 9.453125 -4.890625 C 8.648438 -5.335938 7.875 -5.394531 7.125 -5.0625 C 6.375 -4.738281 5.78125 -4.179688 5.34375 -3.390625 Z M 5.34375 -3.390625 "/></g></g></g></svg>