<svg xmlns="http://www.w3.org/2000/svg" xmlns:xlink="http://www.w3.org/1999/xlink" width="192" zoomAndPan="magnify" viewBox="0 0 144 143.999998" height="192" preserveAspectRatio="xMidYMid meet" version="1.2"><defs><clipPath id="5abb127f9e"><path d="M 9.292969 0 L 134.542969 0 L 134.542969 144 L 9.292969 144 Z M 9.292969 0 "/></clipPath></defs><g id="d1a4f78392"><path style=" stroke:none;fill-rule:nonzero;fill:#65b30e;fill-opacity:1;" d="M 46.882812 47.410156 L 46.804688 47.328125 L 29.09375 65.035156 L 72.089844 107.953125 L 89.800781 90.328125 L 115.085938 65.035156 L 97.375 47.328125 L 97.375 47.25 L 46.804688 47.25 Z M 46.882812 47.410156 "/><g clip-rule="nonzero" clip-path="url(#5abb127f9e)"><path style=" stroke:none;fill-rule:nonzero;fill:#65b30e;fill-opacity:1;" d="M 71.929688 0.105469 L 9.308594 36 L 9.3125 107.796875 L 71.933594 143.695312 L 134.550781 107.796875 L 134.550781 36 L 71.933594 0.105469 Z M 122.582031 100.933594 L 71.929688 130.125 L 21.273438 100.933594 L 21.277344 42.703125 L 71.929688 13.503906 L 122.585938 42.699219 L 122.585938 100.929688 Z M 122.582031 100.933594 "/></g></g></svg>