<svg xmlns="http://www.w3.org/2000/svg" xmlns:xlink="http://www.w3.org/1999/xlink" width="128" zoomAndPan="magnify" viewBox="0 0 96 95.999999" height="128" preserveAspectRatio="xMidYMid meet" version="1.2"><defs><clipPath id="47124e9c59"><path d="M 6 0 L 90 0 L 90 96 L 6 96 Z M 6 0 "/></clipPath><clipPath id="3ec7f84442"><path d="M -14.304688 36.578125 L 68.691406 -11.898438 L 110.335938 59.402344 L 27.339844 107.878906 Z M -14.304688 36.578125 "/></clipPath><clipPath id="2aaee041da"><path d="M 89.484375 23.769531 L 89.5625 71.535156 L 48.082031 95.765625 L 6.515625 72.226562 L 6.4375 24.464844 L 47.921875 0.234375 Z M 89.484375 23.769531 "/></clipPath><clipPath id="7501bda70f"><path d="M 14.140625 9.121094 L 81.851562 9.121094 L 81.851562 86.839844 L 14.140625 86.839844 Z M 14.140625 9.121094 "/></clipPath></defs><g id="0466667614"><g clip-rule="nonzero" clip-path="url(#47124e9c59)"><g clip-rule="nonzero" clip-path="url(#3ec7f84442)"><g clip-rule="nonzero" clip-path="url(#2aaee041da)"><path style=" stroke:none;fill-rule:nonzero;fill:#65b30e;fill-opacity:1;" d="M -14.304688 36.578125 L 68.691406 -11.898438 L 110.335938 59.402344 L 27.339844 107.878906 Z M -14.304688 36.578125 "/></g></g></g><path style=" stroke:none;fill-rule:nonzero;fill:#87ff00;fill-opacity:1;" d="M 34.453125 34.738281 L 34.410156 34.695312 L 24.839844 44.265625 L 48.074219 67.457031 L 57.644531 57.933594 L 71.308594 44.265625 L 61.738281 34.695312 L 61.738281 34.652344 L 34.410156 34.652344 Z M 34.453125 34.738281 "/><g clip-rule="nonzero" clip-path="url(#7501bda70f)"><path style=" stroke:none;fill-rule:nonzero;fill:#87ff00;fill-opacity:1;" d="M 47.988281 9.179688 L 14.148438 28.574219 L 14.148438 67.371094 L 47.988281 86.769531 L 81.828125 67.371094 L 81.828125 28.574219 Z M 75.359375 63.664062 L 47.988281 79.4375 L 20.613281 63.664062 L 20.617188 32.195312 L 47.988281 16.417969 L 75.363281 32.195312 L 75.363281 63.664062 Z M 75.359375 63.664062 "/></g><g style="fill:#b21a22;fill-opacity:1;"><g transform="translate(15.262546, 33.042536)"><path style="stroke:none" d="M 7.203125 -8.304688 L 7.203125 -6.691406 C 7.203125 -6.484375 7.136719 -6.3125 7.007812 -6.183594 C 6.875 -6.050781 6.707031 -5.988281 6.5 -5.988281 L 5.09375 -5.988281 C 4.886719 -5.988281 4.714844 -6.050781 4.585938 -6.183594 C 4.453125 -6.3125 4.386719 -6.484375 4.386719 -6.691406 L 4.386719 -7.917969 C 4.386719 -7.964844 4.382812 -8.003906 4.375 -8.03125 C 4.375 -8.035156 4.371094 -8.039062 4.371094 -8.042969 C 4.371094 -8.039062 4.375 -8.039062 4.375 -8.035156 C 4.378906 -8.035156 4.378906 -8.03125 4.382812 -8.03125 C 4.378906 -8.03125 4.375 -8.03125 4.371094 -8.035156 C 4.34375 -8.042969 4.304688 -8.046875 4.257812 -8.046875 L 3.300781 -8.046875 C 3.253906 -8.046875 3.214844 -8.042969 3.1875 -8.035156 C 3.183594 -8.03125 3.179688 -8.03125 3.175781 -8.03125 C 3.179688 -8.03125 3.179688 -8.035156 3.183594 -8.035156 C 3.1875 -8.039062 3.1875 -8.039062 3.1875 -8.042969 C 3.1875 -8.039062 3.1875 -8.035156 3.183594 -8.03125 C 3.175781 -8.003906 3.171875 -7.964844 3.171875 -7.917969 L 3.171875 -2.496094 C 3.171875 -2.445312 3.175781 -2.40625 3.183594 -2.382812 C 3.1875 -2.375 3.1875 -2.371094 3.1875 -2.371094 C 3.1875 -2.371094 3.1875 -2.375 3.183594 -2.375 C 3.179688 -2.378906 3.179688 -2.378906 3.175781 -2.382812 C 3.179688 -2.378906 3.183594 -2.378906 3.1875 -2.378906 C 3.214844 -2.367188 3.253906 -2.363281 3.300781 -2.363281 L 4.257812 -2.363281 C 4.304688 -2.363281 4.34375 -2.367188 4.371094 -2.378906 C 4.375 -2.378906 4.378906 -2.378906 4.382812 -2.382812 C 4.378906 -2.378906 4.378906 -2.378906 4.375 -2.375 C 4.375 -2.375 4.371094 -2.371094 4.371094 -2.371094 C 4.371094 -2.371094 4.375 -2.375 4.375 -2.382812 C 4.382812 -2.40625 4.386719 -2.445312 4.386719 -2.496094 L 4.386719 -3.765625 C 4.386719 -3.972656 4.453125 -4.144531 4.585938 -4.273438 C 4.714844 -4.40625 4.886719 -4.46875 5.09375 -4.46875 L 6.5 -4.46875 C 6.707031 -4.46875 6.875 -4.40625 7.007812 -4.273438 C 7.136719 -4.144531 7.203125 -3.972656 7.203125 -3.765625 L 7.203125 -2.152344 C 7.203125 -1.324219 6.972656 -0.683594 6.515625 -0.222656 C 6.054688 0.238281 5.414062 0.46875 4.585938 0.46875 L 2.914062 0.46875 C 2.089844 0.46875 1.445312 0.238281 0.980469 -0.21875 C 0.511719 -0.679688 0.28125 -1.324219 0.28125 -2.152344 L 0.28125 -8.304688 C 0.28125 -9.144531 0.515625 -9.792969 0.980469 -10.246094 C 1.445312 -10.699219 2.089844 -10.925781 2.914062 -10.925781 L 4.585938 -10.925781 C 5.410156 -10.925781 6.054688 -10.695312 6.511719 -10.242188 C 6.972656 -9.789062 7.203125 -9.144531 7.203125 -8.304688 Z M 6.269531 -8.304688 C 6.269531 -8.882812 6.132812 -9.308594 5.855469 -9.578125 C 5.578125 -9.851562 5.15625 -9.988281 4.585938 -9.988281 L 2.914062 -9.988281 C 2.34375 -9.988281 1.914062 -9.851562 1.632812 -9.578125 C 1.351562 -9.304688 1.214844 -8.882812 1.214844 -8.304688 L 1.214844 -2.152344 C 1.214844 -1.585938 1.355469 -1.164062 1.636719 -0.886719 C 1.917969 -0.605469 2.34375 -0.46875 2.914062 -0.46875 L 4.585938 -0.46875 C 5.15625 -0.46875 5.578125 -0.605469 5.855469 -0.882812 C 6.132812 -1.160156 6.269531 -1.582031 6.269531 -2.152344 L 6.269531 -3.765625 C 6.269531 -3.753906 6.273438 -3.738281 6.28125 -3.722656 C 6.292969 -3.679688 6.316406 -3.644531 6.347656 -3.613281 C 6.378906 -3.582031 6.414062 -3.558594 6.457031 -3.546875 C 6.472656 -3.539062 6.488281 -3.535156 6.5 -3.535156 L 5.09375 -3.535156 C 5.105469 -3.535156 5.117188 -3.539062 5.136719 -3.546875 C 5.175781 -3.558594 5.210938 -3.582031 5.246094 -3.613281 C 5.277344 -3.644531 5.300781 -3.679688 5.3125 -3.722656 C 5.320312 -3.738281 5.320312 -3.753906 5.320312 -3.765625 L 5.320312 -2.496094 C 5.320312 -2.167969 5.226562 -1.90625 5.035156 -1.714844 C 4.84375 -1.527344 4.585938 -1.429688 4.257812 -1.429688 L 3.300781 -1.429688 C 2.972656 -1.429688 2.714844 -1.527344 2.523438 -1.714844 C 2.332031 -1.90625 2.238281 -2.167969 2.238281 -2.496094 L 2.238281 -7.917969 C 2.238281 -8.246094 2.332031 -8.503906 2.523438 -8.695312 C 2.714844 -8.886719 2.972656 -8.980469 3.300781 -8.980469 L 4.257812 -8.980469 C 4.585938 -8.980469 4.84375 -8.886719 5.035156 -8.695312 C 5.226562 -8.503906 5.320312 -8.246094 5.320312 -7.917969 L 5.320312 -6.691406 C 5.320312 -6.703125 5.320312 -6.71875 5.3125 -6.734375 C 5.300781 -6.773438 5.277344 -6.8125 5.246094 -6.84375 C 5.210938 -6.875 5.175781 -6.898438 5.136719 -6.910156 C 5.117188 -6.917969 5.105469 -6.921875 5.09375 -6.921875 L 6.5 -6.921875 C 6.488281 -6.921875 6.472656 -6.917969 6.457031 -6.910156 C 6.414062 -6.898438 6.378906 -6.875 6.347656 -6.84375 C 6.316406 -6.8125 6.292969 -6.773438 6.28125 -6.734375 C 6.273438 -6.71875 6.269531 -6.703125 6.269531 -6.691406 Z M 6.269531 -8.304688 "/></g></g><g style="fill:#b21a22;fill-opacity:1;"><g transform="translate(22.744388, 33.042536)"><path style="stroke:none" d="M 7.175781 -10.21875 L 7.175781 -8.722656 C 7.175781 -8.515625 7.113281 -8.347656 6.988281 -8.214844 C 6.855469 -8.074219 6.683594 -8.003906 6.46875 -8.003906 L 2.777344 -8.003906 L 2.777344 -8.46875 L 3.246094 -8.46875 L 3.246094 -6.167969 L 2.777344 -6.167969 L 2.777344 -6.636719 L 5.585938 -6.636719 C 5.800781 -6.636719 5.972656 -6.566406 6.105469 -6.425781 C 6.230469 -6.292969 6.292969 -6.125 6.292969 -5.914062 L 6.292969 -4.4375 C 6.292969 -4.230469 6.230469 -4.058594 6.105469 -3.925781 C 5.972656 -3.785156 5.800781 -3.714844 5.585938 -3.714844 L 2.777344 -3.714844 L 2.777344 -4.183594 L 3.246094 -4.183594 L 3.246094 -1.972656 L 2.777344 -1.972656 L 2.777344 -2.4375 L 6.46875 -2.4375 C 6.675781 -2.4375 6.847656 -2.375 6.976562 -2.242188 C 7.109375 -2.109375 7.175781 -1.941406 7.175781 -1.734375 L 7.175781 -0.238281 C 7.175781 -0.03125 7.109375 0.140625 6.976562 0.269531 C 6.847656 0.402344 6.675781 0.46875 6.46875 0.46875 L 0.972656 0.46875 C 0.761719 0.46875 0.59375 0.398438 0.460938 0.257812 C 0.339844 0.128906 0.28125 -0.0351562 0.28125 -0.238281 L 0.28125 -10.21875 C 0.28125 -10.421875 0.339844 -10.585938 0.460938 -10.714844 C 0.59375 -10.855469 0.761719 -10.925781 0.972656 -10.925781 L 6.46875 -10.925781 C 6.675781 -10.925781 6.847656 -10.859375 6.976562 -10.726562 C 7.109375 -10.597656 7.175781 -10.425781 7.175781 -10.21875 Z M 6.242188 -10.21875 C 6.242188 -10.207031 6.242188 -10.191406 6.25 -10.175781 C 6.261719 -10.136719 6.285156 -10.097656 6.316406 -10.066406 C 6.347656 -10.035156 6.386719 -10.011719 6.425781 -10 C 6.441406 -9.992188 6.457031 -9.988281 6.46875 -9.988281 L 0.972656 -9.988281 C 1.03125 -9.988281 1.089844 -10.019531 1.144531 -10.078125 C 1.171875 -10.109375 1.195312 -10.144531 1.207031 -10.183594 C 1.210938 -10.199219 1.214844 -10.210938 1.214844 -10.21875 L 1.214844 -0.238281 C 1.214844 -0.246094 1.210938 -0.257812 1.207031 -0.273438 C 1.195312 -0.3125 1.171875 -0.347656 1.144531 -0.378906 C 1.089844 -0.4375 1.03125 -0.46875 0.972656 -0.46875 L 6.46875 -0.46875 C 6.457031 -0.46875 6.441406 -0.464844 6.425781 -0.457031 C 6.386719 -0.445312 6.347656 -0.421875 6.316406 -0.390625 C 6.285156 -0.359375 6.261719 -0.320312 6.25 -0.28125 C 6.242188 -0.265625 6.242188 -0.25 6.242188 -0.238281 L 6.242188 -1.734375 C 6.242188 -1.722656 6.242188 -1.707031 6.25 -1.691406 C 6.261719 -1.648438 6.285156 -1.613281 6.316406 -1.582031 C 6.347656 -1.550781 6.386719 -1.527344 6.425781 -1.515625 C 6.441406 -1.507812 6.457031 -1.503906 6.46875 -1.503906 L 2.3125 -1.503906 L 2.3125 -4.648438 L 5.585938 -4.648438 C 5.574219 -4.648438 5.554688 -4.644531 5.535156 -4.640625 C 5.496094 -4.625 5.457031 -4.601562 5.425781 -4.566406 C 5.398438 -4.535156 5.378906 -4.5 5.367188 -4.464844 C 5.359375 -4.453125 5.359375 -4.441406 5.359375 -4.4375 L 5.359375 -5.914062 C 5.359375 -5.910156 5.359375 -5.902344 5.367188 -5.886719 C 5.378906 -5.851562 5.398438 -5.816406 5.425781 -5.785156 C 5.457031 -5.753906 5.496094 -5.726562 5.535156 -5.714844 C 5.554688 -5.707031 5.574219 -5.703125 5.585938 -5.703125 L 2.3125 -5.703125 L 2.3125 -8.9375 L 6.46875 -8.9375 C 6.453125 -8.9375 6.4375 -8.933594 6.417969 -8.925781 C 6.375 -8.910156 6.339844 -8.886719 6.308594 -8.855469 C 6.277344 -8.824219 6.257812 -8.789062 6.246094 -8.753906 C 6.242188 -8.738281 6.242188 -8.730469 6.242188 -8.722656 Z M 6.242188 -10.21875 "/></g></g><g style="fill:#b21a22;fill-opacity:1;"><g transform="translate(30.196356, 33.042536)"><path style="stroke:none" d="M 2.3125 -1.972656 L 2.3125 -10.21875 C 2.3125 -10.207031 2.316406 -10.191406 2.320312 -10.175781 C 2.335938 -10.136719 2.355469 -10.097656 2.390625 -10.066406 C 2.421875 -10.035156 2.457031 -10.011719 2.496094 -10 C 2.515625 -9.992188 2.527344 -9.988281 2.539062 -9.988281 L 0.984375 -9.988281 C 0.996094 -9.988281 1.011719 -9.992188 1.027344 -10 C 1.070312 -10.011719 1.105469 -10.035156 1.136719 -10.066406 C 1.167969 -10.097656 1.191406 -10.136719 1.203125 -10.175781 C 1.210938 -10.191406 1.214844 -10.207031 1.214844 -10.21875 L 1.214844 -0.238281 C 1.214844 -0.25 1.210938 -0.265625 1.203125 -0.28125 C 1.191406 -0.320312 1.167969 -0.359375 1.136719 -0.390625 C 1.105469 -0.421875 1.070312 -0.445312 1.027344 -0.457031 C 1.011719 -0.464844 0.996094 -0.46875 0.984375 -0.46875 L 5.738281 -0.46875 C 5.726562 -0.46875 5.710938 -0.464844 5.691406 -0.457031 C 5.652344 -0.445312 5.617188 -0.421875 5.585938 -0.390625 C 5.554688 -0.359375 5.53125 -0.320312 5.515625 -0.28125 C 5.511719 -0.265625 5.507812 -0.25 5.507812 -0.238281 L 5.507812 -1.734375 C 5.507812 -1.722656 5.511719 -1.707031 5.515625 -1.691406 C 5.53125 -1.648438 5.554688 -1.613281 5.585938 -1.582031 C 5.617188 -1.550781 5.652344 -1.527344 5.691406 -1.515625 C 5.710938 -1.507812 5.726562 -1.503906 5.738281 -1.503906 L 2.3125 -1.503906 Z M 3.246094 -1.972656 L 2.777344 -1.972656 L 2.777344 -2.4375 L 5.738281 -2.4375 C 5.945312 -2.4375 6.113281 -2.375 6.246094 -2.242188 C 6.375 -2.109375 6.441406 -1.941406 6.441406 -1.734375 L 6.441406 -0.238281 C 6.441406 -0.03125 6.375 0.140625 6.246094 0.269531 C 6.113281 0.402344 5.945312 0.46875 5.738281 0.46875 L 0.984375 0.46875 C 0.777344 0.46875 0.609375 0.402344 0.476562 0.269531 C 0.34375 0.140625 0.28125 -0.03125 0.28125 -0.238281 L 0.28125 -10.21875 C 0.28125 -10.425781 0.34375 -10.597656 0.476562 -10.726562 C 0.609375 -10.859375 0.777344 -10.925781 0.984375 -10.925781 L 2.539062 -10.925781 C 2.75 -10.925781 2.917969 -10.859375 3.050781 -10.726562 C 3.179688 -10.597656 3.246094 -10.425781 3.246094 -10.21875 Z M 3.246094 -1.972656 "/></g></g><g style="fill:#b21a22;fill-opacity:1;"><g transform="translate(36.91657, 33.042536)"><path style="stroke:none" d="M 2.3125 -1.972656 L 2.3125 -10.21875 C 2.3125 -10.207031 2.316406 -10.191406 2.320312 -10.175781 C 2.335938 -10.136719 2.355469 -10.097656 2.390625 -10.066406 C 2.421875 -10.035156 2.457031 -10.011719 2.496094 -10 C 2.515625 -9.992188 2.527344 -9.988281 2.539062 -9.988281 L 0.984375 -9.988281 C 0.996094 -9.988281 1.011719 -9.992188 1.027344 -10 C 1.070312 -10.011719 1.105469 -10.035156 1.136719 -10.066406 C 1.167969 -10.097656 1.191406 -10.136719 1.203125 -10.175781 C 1.210938 -10.191406 1.214844 -10.207031 1.214844 -10.21875 L 1.214844 -0.238281 C 1.214844 -0.25 1.210938 -0.265625 1.203125 -0.28125 C 1.191406 -0.320312 1.167969 -0.359375 1.136719 -0.390625 C 1.105469 -0.421875 1.070312 -0.445312 1.027344 -0.457031 C 1.011719 -0.464844 0.996094 -0.46875 0.984375 -0.46875 L 5.738281 -0.46875 C 5.726562 -0.46875 5.710938 -0.464844 5.691406 -0.457031 C 5.652344 -0.445312 5.617188 -0.421875 5.585938 -0.390625 C 5.554688 -0.359375 5.53125 -0.320312 5.515625 -0.28125 C 5.511719 -0.265625 5.507812 -0.25 5.507812 -0.238281 L 5.507812 -1.734375 C 5.507812 -1.722656 5.511719 -1.707031 5.515625 -1.691406 C 5.53125 -1.648438 5.554688 -1.613281 5.585938 -1.582031 C 5.617188 -1.550781 5.652344 -1.527344 5.691406 -1.515625 C 5.710938 -1.507812 5.726562 -1.503906 5.738281 -1.503906 L 2.3125 -1.503906 Z M 3.246094 -1.972656 L 2.777344 -1.972656 L 2.777344 -2.4375 L 5.738281 -2.4375 C 5.945312 -2.4375 6.113281 -2.375 6.246094 -2.242188 C 6.375 -2.109375 6.441406 -1.941406 6.441406 -1.734375 L 6.441406 -0.238281 C 6.441406 -0.03125 6.375 0.140625 6.246094 0.269531 C 6.113281 0.402344 5.945312 0.46875 5.738281 0.46875 L 0.984375 0.46875 C 0.777344 0.46875 0.609375 0.402344 0.476562 0.269531 C 0.34375 0.140625 0.28125 -0.03125 0.28125 -0.238281 L 0.28125 -10.21875 C 0.28125 -10.425781 0.34375 -10.597656 0.476562 -10.726562 C 0.609375 -10.859375 0.777344 -10.925781 0.984375 -10.925781 L 2.539062 -10.925781 C 2.75 -10.925781 2.917969 -10.859375 3.050781 -10.726562 C 3.179688 -10.597656 3.246094 -10.425781 3.246094 -10.21875 Z M 3.246094 -1.972656 "/></g></g><g style="fill:#b21a22;fill-opacity:1;"><g transform="translate(43.636784, 33.042536)"><path style="stroke:none" d="M 5.050781 -10.925781 L 6.421875 -10.925781 C 6.632812 -10.925781 6.8125 -10.847656 6.960938 -10.699219 C 7.113281 -10.546875 7.1875 -10.367188 7.1875 -10.15625 L 7.1875 -2.152344 C 7.1875 -1.328125 6.960938 -0.683594 6.507812 -0.226562 C 6.054688 0.234375 5.410156 0.46875 4.570312 0.46875 L 2.898438 0.46875 C 2.070312 0.46875 1.429688 0.238281 0.96875 -0.222656 C 0.511719 -0.683594 0.28125 -1.324219 0.28125 -2.152344 L 0.28125 -10.15625 C 0.28125 -10.367188 0.355469 -10.546875 0.507812 -10.699219 C 0.65625 -10.847656 0.835938 -10.925781 1.046875 -10.925781 L 2.480469 -10.925781 C 2.6875 -10.925781 2.867188 -10.847656 3.019531 -10.699219 C 3.171875 -10.546875 3.246094 -10.367188 3.246094 -10.15625 L 3.246094 -2.570312 C 3.246094 -2.519531 3.25 -2.480469 3.257812 -2.457031 C 3.261719 -2.449219 3.261719 -2.449219 3.261719 -2.445312 C 3.261719 -2.445312 3.261719 -2.449219 3.257812 -2.453125 C 3.257812 -2.453125 3.253906 -2.457031 3.253906 -2.457031 C 3.253906 -2.457031 3.257812 -2.453125 3.261719 -2.453125 C 3.289062 -2.441406 3.328125 -2.4375 3.375 -2.4375 L 4.152344 -2.4375 C 4.203125 -2.4375 4.238281 -2.441406 4.265625 -2.453125 C 4.273438 -2.453125 4.273438 -2.457031 4.277344 -2.457031 C 4.273438 -2.457031 4.273438 -2.453125 4.269531 -2.453125 C 4.269531 -2.449219 4.265625 -2.445312 4.265625 -2.445312 C 4.265625 -2.449219 4.269531 -2.449219 4.269531 -2.457031 C 4.277344 -2.480469 4.285156 -2.519531 4.285156 -2.570312 L 4.285156 -10.15625 C 4.285156 -10.367188 4.359375 -10.546875 4.511719 -10.699219 C 4.660156 -10.847656 4.839844 -10.925781 5.050781 -10.925781 Z M 5.050781 -9.988281 C 5.097656 -9.988281 5.140625 -10.003906 5.171875 -10.039062 C 5.203125 -10.070312 5.21875 -10.109375 5.21875 -10.15625 L 5.21875 -2.570312 C 5.21875 -2.242188 5.121094 -1.980469 4.929688 -1.792969 C 4.742188 -1.601562 4.480469 -1.503906 4.152344 -1.503906 L 3.375 -1.503906 C 3.046875 -1.503906 2.789062 -1.601562 2.597656 -1.792969 C 2.40625 -1.980469 2.3125 -2.242188 2.3125 -2.570312 L 2.3125 -10.15625 C 2.3125 -10.109375 2.328125 -10.070312 2.359375 -10.039062 C 2.390625 -10.003906 2.429688 -9.988281 2.480469 -9.988281 L 1.046875 -9.988281 C 1.09375 -9.988281 1.136719 -10.003906 1.167969 -10.039062 C 1.199219 -10.070312 1.214844 -10.109375 1.214844 -10.15625 L 1.214844 -2.152344 C 1.214844 -1.582031 1.351562 -1.160156 1.628906 -0.882812 C 1.90625 -0.605469 2.328125 -0.46875 2.898438 -0.46875 L 4.570312 -0.46875 C 5.148438 -0.46875 5.574219 -0.605469 5.84375 -0.878906 C 6.117188 -1.15625 6.253906 -1.582031 6.253906 -2.152344 L 6.253906 -10.15625 C 6.253906 -10.109375 6.269531 -10.070312 6.300781 -10.039062 C 6.335938 -10.003906 6.375 -9.988281 6.421875 -9.988281 Z M 5.050781 -9.988281 "/></g></g><g style="fill:#b21a22;fill-opacity:1;"><g transform="translate(51.103689, 33.042536)"><path style="stroke:none" d="M 2.3125 -1.972656 L 2.3125 -10.21875 C 2.3125 -10.207031 2.316406 -10.191406 2.320312 -10.175781 C 2.335938 -10.136719 2.355469 -10.097656 2.390625 -10.066406 C 2.421875 -10.035156 2.457031 -10.011719 2.496094 -10 C 2.515625 -9.992188 2.527344 -9.988281 2.539062 -9.988281 L 0.984375 -9.988281 C 0.996094 -9.988281 1.011719 -9.992188 1.027344 -10 C 1.070312 -10.011719 1.105469 -10.035156 1.136719 -10.066406 C 1.167969 -10.097656 1.191406 -10.136719 1.203125 -10.175781 C 1.210938 -10.191406 1.214844 -10.207031 1.214844 -10.21875 L 1.214844 -0.238281 C 1.214844 -0.25 1.210938 -0.265625 1.203125 -0.28125 C 1.191406 -0.320312 1.167969 -0.359375 1.136719 -0.390625 C 1.105469 -0.421875 1.070312 -0.445312 1.027344 -0.457031 C 1.011719 -0.464844 0.996094 -0.46875 0.984375 -0.46875 L 5.738281 -0.46875 C 5.726562 -0.46875 5.710938 -0.464844 5.691406 -0.457031 C 5.652344 -0.445312 5.617188 -0.421875 5.585938 -0.390625 C 5.554688 -0.359375 5.53125 -0.320312 5.515625 -0.28125 C 5.511719 -0.265625 5.507812 -0.25 5.507812 -0.238281 L 5.507812 -1.734375 C 5.507812 -1.722656 5.511719 -1.707031 5.515625 -1.691406 C 5.53125 -1.648438 5.554688 -1.613281 5.585938 -1.582031 C 5.617188 -1.550781 5.652344 -1.527344 5.691406 -1.515625 C 5.710938 -1.507812 5.726562 -1.503906 5.738281 -1.503906 L 2.3125 -1.503906 Z M 3.246094 -1.972656 L 2.777344 -1.972656 L 2.777344 -2.4375 L 5.738281 -2.4375 C 5.945312 -2.4375 6.113281 -2.375 6.246094 -2.242188 C 6.375 -2.109375 6.441406 -1.941406 6.441406 -1.734375 L 6.441406 -0.238281 C 6.441406 -0.03125 6.375 0.140625 6.246094 0.269531 C 6.113281 0.402344 5.945312 0.46875 5.738281 0.46875 L 0.984375 0.46875 C 0.777344 0.46875 0.609375 0.402344 0.476562 0.269531 C 0.34375 0.140625 0.28125 -0.03125 0.28125 -0.238281 L 0.28125 -10.21875 C 0.28125 -10.425781 0.34375 -10.597656 0.476562 -10.726562 C 0.609375 -10.859375 0.777344 -10.925781 0.984375 -10.925781 L 2.539062 -10.925781 C 2.75 -10.925781 2.917969 -10.859375 3.050781 -10.726562 C 3.179688 -10.597656 3.246094 -10.425781 3.246094 -10.21875 Z M 3.246094 -1.972656 "/></g></g><g style="fill:#b21a22;fill-opacity:1;"><g transform="translate(57.823903, 33.042536)"><path style="stroke:none" d="M 0.28125 -2.152344 L 0.28125 -8.304688 C 0.28125 -9.144531 0.511719 -9.789062 0.972656 -10.242188 C 1.429688 -10.695312 2.074219 -10.925781 2.898438 -10.925781 L 4.570312 -10.925781 C 5.40625 -10.925781 6.050781 -10.695312 6.507812 -10.242188 C 6.960938 -9.789062 7.1875 -9.140625 7.1875 -8.304688 L 7.1875 -2.152344 C 7.1875 -1.328125 6.960938 -0.683594 6.507812 -0.226562 C 6.054688 0.234375 5.410156 0.46875 4.570312 0.46875 L 2.898438 0.46875 C 2.070312 0.46875 1.429688 0.238281 0.96875 -0.222656 C 0.511719 -0.683594 0.28125 -1.324219 0.28125 -2.152344 Z M 1.214844 -2.152344 C 1.214844 -1.582031 1.351562 -1.160156 1.628906 -0.882812 C 1.90625 -0.605469 2.328125 -0.46875 2.898438 -0.46875 L 4.570312 -0.46875 C 5.148438 -0.46875 5.574219 -0.605469 5.84375 -0.878906 C 6.117188 -1.15625 6.253906 -1.582031 6.253906 -2.152344 L 6.253906 -8.304688 C 6.253906 -8.882812 6.121094 -9.308594 5.847656 -9.582031 C 5.574219 -9.855469 5.148438 -9.988281 4.570312 -9.988281 L 2.898438 -9.988281 C 2.328125 -9.988281 1.90625 -9.851562 1.628906 -9.578125 C 1.351562 -9.308594 1.214844 -8.882812 1.214844 -8.304688 Z M 3.285156 -2.394531 L 4.242188 -2.394531 C 4.292969 -2.394531 4.328125 -2.398438 4.355469 -2.40625 C 4.359375 -2.410156 4.363281 -2.410156 4.367188 -2.410156 C 4.363281 -2.410156 4.363281 -2.410156 4.359375 -2.40625 C 4.359375 -2.40625 4.355469 -2.402344 4.355469 -2.402344 C 4.355469 -2.402344 4.359375 -2.40625 4.359375 -2.410156 C 4.367188 -2.4375 4.375 -2.476562 4.375 -2.523438 L 4.375 -7.933594 C 4.375 -7.980469 4.367188 -8.019531 4.359375 -8.046875 C 4.359375 -8.050781 4.355469 -8.054688 4.355469 -8.054688 C 4.355469 -8.054688 4.359375 -8.050781 4.359375 -8.050781 C 4.363281 -8.046875 4.363281 -8.046875 4.367188 -8.046875 C 4.363281 -8.046875 4.359375 -8.046875 4.355469 -8.050781 C 4.328125 -8.058594 4.292969 -8.0625 4.242188 -8.0625 L 3.285156 -8.0625 C 3.238281 -8.0625 3.199219 -8.058594 3.171875 -8.050781 C 3.167969 -8.046875 3.164062 -8.046875 3.164062 -8.046875 C 3.164062 -8.046875 3.167969 -8.046875 3.167969 -8.050781 C 3.171875 -8.050781 3.171875 -8.054688 3.171875 -8.054688 C 3.171875 -8.054688 3.171875 -8.050781 3.167969 -8.046875 C 3.160156 -8.019531 3.15625 -7.980469 3.15625 -7.933594 L 3.15625 -2.523438 C 3.15625 -2.476562 3.160156 -2.4375 3.167969 -2.410156 C 3.171875 -2.40625 3.171875 -2.402344 3.171875 -2.402344 C 3.171875 -2.402344 3.171875 -2.40625 3.167969 -2.40625 C 3.167969 -2.410156 3.164062 -2.410156 3.164062 -2.410156 C 3.164062 -2.410156 3.167969 -2.410156 3.171875 -2.40625 C 3.199219 -2.398438 3.238281 -2.394531 3.285156 -2.394531 Z M 3.285156 -1.460938 C 2.957031 -1.460938 2.699219 -1.554688 2.507812 -1.746094 C 2.316406 -1.9375 2.222656 -2.195312 2.222656 -2.523438 L 2.222656 -7.933594 C 2.222656 -8.261719 2.316406 -8.519531 2.507812 -8.710938 C 2.699219 -8.902344 2.957031 -8.996094 3.285156 -8.996094 L 4.242188 -8.996094 C 4.570312 -8.996094 4.828125 -8.902344 5.019531 -8.710938 C 5.210938 -8.519531 5.308594 -8.261719 5.308594 -7.933594 L 5.308594 -2.523438 C 5.308594 -2.195312 5.210938 -1.9375 5.019531 -1.746094 C 4.828125 -1.554688 4.570312 -1.460938 4.242188 -1.460938 Z M 3.285156 -1.460938 "/></g></g><g style="fill:#b21a22;fill-opacity:1;"><g transform="translate(65.290808, 33.042536)"><path style="stroke:none" d="M 0.984375 -0.46875 L 2.539062 -0.46875 C 2.527344 -0.46875 2.515625 -0.464844 2.496094 -0.457031 C 2.457031 -0.445312 2.421875 -0.421875 2.390625 -0.390625 C 2.355469 -0.359375 2.335938 -0.320312 2.320312 -0.28125 C 2.316406 -0.265625 2.3125 -0.25 2.3125 -0.238281 L 2.3125 -10.21875 C 2.3125 -10.207031 2.316406 -10.191406 2.320312 -10.175781 C 2.335938 -10.136719 2.355469 -10.097656 2.390625 -10.066406 C 2.421875 -10.035156 2.457031 -10.011719 2.496094 -10 C 2.515625 -9.992188 2.527344 -9.988281 2.539062 -9.988281 L 0.984375 -9.988281 C 0.996094 -9.988281 1.011719 -9.992188 1.027344 -10 C 1.070312 -10.011719 1.105469 -10.035156 1.136719 -10.066406 C 1.167969 -10.097656 1.191406 -10.136719 1.203125 -10.175781 C 1.210938 -10.191406 1.214844 -10.207031 1.214844 -10.21875 L 1.214844 -0.238281 C 1.214844 -0.25 1.210938 -0.265625 1.203125 -0.28125 C 1.191406 -0.320312 1.167969 -0.359375 1.136719 -0.390625 C 1.105469 -0.421875 1.070312 -0.445312 1.027344 -0.457031 C 1.011719 -0.464844 0.996094 -0.46875 0.984375 -0.46875 Z M 0.984375 0.46875 C 0.777344 0.46875 0.609375 0.402344 0.476562 0.269531 C 0.34375 0.140625 0.28125 -0.03125 0.28125 -0.238281 L 0.28125 -10.21875 C 0.28125 -10.425781 0.34375 -10.597656 0.476562 -10.726562 C 0.609375 -10.859375 0.777344 -10.925781 0.984375 -10.925781 L 2.539062 -10.925781 C 2.75 -10.925781 2.917969 -10.859375 3.050781 -10.726562 C 3.179688 -10.597656 3.246094 -10.425781 3.246094 -10.21875 L 3.246094 -0.238281 C 3.246094 -0.03125 3.179688 0.140625 3.050781 0.269531 C 2.917969 0.402344 2.75 0.46875 2.539062 0.46875 Z M 0.984375 0.46875 "/></g></g><g style="fill:#b21a22;fill-opacity:1;"><g transform="translate(68.815185, 33.042536)"><path style="stroke:none" d="M 0.28125 -0.238281 L 0.28125 -10.21875 C 0.28125 -10.425781 0.34375 -10.597656 0.476562 -10.726562 C 0.609375 -10.859375 0.777344 -10.925781 0.984375 -10.925781 L 4.570312 -10.925781 C 5.410156 -10.925781 6.054688 -10.691406 6.507812 -10.230469 C 6.960938 -9.773438 7.1875 -9.125 7.1875 -8.289062 L 7.1875 -2.152344 C 7.1875 -1.328125 6.960938 -0.683594 6.507812 -0.226562 C 6.054688 0.234375 5.410156 0.46875 4.570312 0.46875 L 0.984375 0.46875 C 0.777344 0.46875 0.609375 0.402344 0.476562 0.269531 C 0.34375 0.140625 0.28125 -0.03125 0.28125 -0.238281 Z M 1.214844 -0.238281 C 1.214844 -0.25 1.210938 -0.265625 1.203125 -0.28125 C 1.191406 -0.320312 1.167969 -0.359375 1.136719 -0.390625 C 1.105469 -0.421875 1.070312 -0.445312 1.027344 -0.457031 C 1.011719 -0.464844 0.996094 -0.46875 0.984375 -0.46875 L 4.570312 -0.46875 C 5.148438 -0.46875 5.574219 -0.605469 5.84375 -0.878906 C 6.117188 -1.15625 6.253906 -1.582031 6.253906 -2.152344 L 6.253906 -8.289062 C 6.253906 -8.871094 6.117188 -9.296875 5.84375 -9.578125 C 5.574219 -9.851562 5.148438 -9.988281 4.570312 -9.988281 L 0.984375 -9.988281 C 0.996094 -9.988281 1.011719 -9.992188 1.027344 -10 C 1.070312 -10.011719 1.105469 -10.035156 1.136719 -10.066406 C 1.167969 -10.097656 1.191406 -10.136719 1.203125 -10.175781 C 1.210938 -10.191406 1.214844 -10.207031 1.214844 -10.21875 Z M 2.777344 -2.4375 L 4.152344 -2.4375 C 4.203125 -2.4375 4.238281 -2.441406 4.265625 -2.453125 C 4.273438 -2.453125 4.273438 -2.457031 4.277344 -2.457031 C 4.273438 -2.457031 4.273438 -2.453125 4.269531 -2.453125 C 4.269531 -2.449219 4.265625 -2.445312 4.265625 -2.445312 C 4.265625 -2.449219 4.269531 -2.449219 4.269531 -2.457031 C 4.277344 -2.480469 4.285156 -2.519531 4.285156 -2.570312 L 4.285156 -7.871094 C 4.285156 -7.925781 4.277344 -7.964844 4.269531 -7.996094 C 4.265625 -8.003906 4.265625 -8.007812 4.261719 -8.011719 C 4.265625 -8.007812 4.265625 -8.007812 4.265625 -8.007812 L 4.261719 -8.003906 C 4.238281 -8.015625 4.199219 -8.019531 4.152344 -8.019531 L 2.777344 -8.019531 L 2.777344 -8.484375 L 3.246094 -8.484375 L 3.246094 -1.972656 L 2.777344 -1.972656 Z M 2.3125 -1.503906 L 2.3125 -8.953125 L 4.152344 -8.953125 C 4.484375 -8.953125 4.742188 -8.855469 4.933594 -8.65625 C 5.125 -8.464844 5.21875 -8.203125 5.21875 -7.871094 L 5.21875 -2.570312 C 5.21875 -2.242188 5.121094 -1.980469 4.929688 -1.792969 C 4.742188 -1.601562 4.480469 -1.503906 4.152344 -1.503906 Z M 2.3125 -1.503906 "/></g></g><g style="fill:#b21a22;fill-opacity:1;"><g transform="translate(76.28209, 33.042536)"><path style="stroke:none" d="M 0.28125 -4.691406 L 0.28125 -6.066406 C 0.28125 -6.292969 0.351562 -6.476562 0.492188 -6.621094 C 0.632812 -6.761719 0.816406 -6.832031 1.046875 -6.832031 L 3.40625 -6.832031 C 3.632812 -6.832031 3.820312 -6.761719 3.960938 -6.621094 C 4.101562 -6.476562 4.171875 -6.292969 4.171875 -6.066406 L 4.171875 -4.691406 C 4.171875 -4.460938 4.101562 -4.277344 3.960938 -4.136719 C 3.820312 -3.996094 3.632812 -3.925781 3.40625 -3.925781 L 1.046875 -3.925781 C 0.816406 -3.925781 0.632812 -3.996094 0.492188 -4.136719 C 0.351562 -4.277344 0.28125 -4.460938 0.28125 -4.691406 Z M 1.214844 -4.691406 C 1.214844 -4.6875 1.214844 -4.6875 1.214844 -4.6875 C 1.214844 -4.691406 1.210938 -4.699219 1.207031 -4.707031 C 1.199219 -4.738281 1.179688 -4.769531 1.152344 -4.796875 C 1.125 -4.824219 1.09375 -4.84375 1.0625 -4.851562 C 1.054688 -4.855469 1.046875 -4.859375 1.042969 -4.859375 C 1.039062 -4.859375 1.039062 -4.859375 1.039062 -4.859375 C 1.042969 -4.859375 1.042969 -4.859375 1.046875 -4.859375 L 3.40625 -4.859375 C 3.40625 -4.859375 3.410156 -4.859375 3.410156 -4.859375 C 3.402344 -4.859375 3.398438 -4.855469 3.390625 -4.851562 C 3.355469 -4.84375 3.328125 -4.824219 3.300781 -4.796875 C 3.273438 -4.769531 3.253906 -4.738281 3.242188 -4.707031 C 3.242188 -4.699219 3.238281 -4.691406 3.238281 -4.6875 C 3.238281 -4.6875 3.238281 -4.6875 3.238281 -4.691406 L 3.238281 -6.066406 C 3.238281 -6.066406 3.238281 -6.070312 3.238281 -6.070312 C 3.238281 -6.0625 3.242188 -6.054688 3.242188 -6.046875 C 3.253906 -6.015625 3.273438 -5.984375 3.300781 -5.960938 C 3.328125 -5.933594 3.355469 -5.914062 3.390625 -5.902344 C 3.398438 -5.898438 3.402344 -5.898438 3.410156 -5.898438 C 3.410156 -5.898438 3.40625 -5.898438 3.40625 -5.898438 L 1.046875 -5.898438 C 1.042969 -5.898438 1.042969 -5.898438 1.039062 -5.898438 C 1.039062 -5.898438 1.039062 -5.898438 1.042969 -5.898438 C 1.046875 -5.898438 1.054688 -5.898438 1.0625 -5.902344 C 1.09375 -5.914062 1.125 -5.933594 1.152344 -5.960938 C 1.179688 -5.984375 1.199219 -6.015625 1.207031 -6.046875 C 1.210938 -6.054688 1.214844 -6.0625 1.214844 -6.070312 C 1.214844 -6.070312 1.214844 -6.066406 1.214844 -6.066406 Z M 1.214844 -4.691406 "/></g></g><g style="fill:#b21a22;fill-opacity:1;"><g transform="translate(30.586848, 53.869387)"><path style="stroke:none" d="M 0.984375 -0.46875 L 2.539062 -0.46875 C 2.527344 -0.46875 2.515625 -0.464844 2.496094 -0.457031 C 2.457031 -0.445312 2.421875 -0.421875 2.390625 -0.390625 C 2.355469 -0.359375 2.335938 -0.320312 2.320312 -0.28125 C 2.316406 -0.265625 2.3125 -0.25 2.3125 -0.238281 L 2.3125 -10.21875 C 2.3125 -10.207031 2.316406 -10.191406 2.320312 -10.175781 C 2.335938 -10.136719 2.355469 -10.097656 2.390625 -10.066406 C 2.421875 -10.035156 2.457031 -10.011719 2.496094 -10 C 2.515625 -9.992188 2.527344 -9.988281 2.539062 -9.988281 L 0.984375 -9.988281 C 0.996094 -9.988281 1.011719 -9.992188 1.027344 -10 C 1.070312 -10.011719 1.105469 -10.035156 1.136719 -10.066406 C 1.167969 -10.097656 1.191406 -10.136719 1.203125 -10.175781 C 1.210938 -10.191406 1.214844 -10.207031 1.214844 -10.21875 L 1.214844 -0.238281 C 1.214844 -0.25 1.210938 -0.265625 1.203125 -0.28125 C 1.191406 -0.320312 1.167969 -0.359375 1.136719 -0.390625 C 1.105469 -0.421875 1.070312 -0.445312 1.027344 -0.457031 C 1.011719 -0.464844 0.996094 -0.46875 0.984375 -0.46875 Z M 0.984375 0.46875 C 0.777344 0.46875 0.609375 0.402344 0.476562 0.269531 C 0.34375 0.140625 0.28125 -0.03125 0.28125 -0.238281 L 0.28125 -10.21875 C 0.28125 -10.425781 0.34375 -10.597656 0.476562 -10.726562 C 0.609375 -10.859375 0.777344 -10.925781 0.984375 -10.925781 L 2.539062 -10.925781 C 2.75 -10.925781 2.917969 -10.859375 3.050781 -10.726562 C 3.179688 -10.597656 3.246094 -10.425781 3.246094 -10.21875 L 3.246094 -0.238281 C 3.246094 -0.03125 3.179688 0.140625 3.050781 0.269531 C 2.917969 0.402344 2.75 0.46875 2.539062 0.46875 Z M 0.984375 0.46875 "/></g></g><g style="fill:#b21a22;fill-opacity:1;"><g transform="translate(34.111225, 53.869387)"><path style="stroke:none" d="M 0.28125 -2.152344 L 0.28125 -8.304688 C 0.28125 -9.144531 0.511719 -9.789062 0.972656 -10.242188 C 1.429688 -10.695312 2.074219 -10.925781 2.898438 -10.925781 L 4.570312 -10.925781 C 5.40625 -10.925781 6.050781 -10.695312 6.507812 -10.242188 C 6.960938 -9.789062 7.1875 -9.140625 7.1875 -8.304688 L 7.1875 -2.152344 C 7.1875 -1.328125 6.960938 -0.683594 6.507812 -0.226562 C 6.054688 0.234375 5.410156 0.46875 4.570312 0.46875 L 2.898438 0.46875 C 2.070312 0.46875 1.429688 0.238281 0.96875 -0.222656 C 0.511719 -0.683594 0.28125 -1.324219 0.28125 -2.152344 Z M 1.214844 -2.152344 C 1.214844 -1.582031 1.351562 -1.160156 1.628906 -0.882812 C 1.90625 -0.605469 2.328125 -0.46875 2.898438 -0.46875 L 4.570312 -0.46875 C 5.148438 -0.46875 5.574219 -0.605469 5.84375 -0.878906 C 6.117188 -1.15625 6.253906 -1.582031 6.253906 -2.152344 L 6.253906 -8.304688 C 6.253906 -8.882812 6.121094 -9.308594 5.847656 -9.582031 C 5.574219 -9.855469 5.148438 -9.988281 4.570312 -9.988281 L 2.898438 -9.988281 C 2.328125 -9.988281 1.90625 -9.851562 1.628906 -9.578125 C 1.351562 -9.308594 1.214844 -8.882812 1.214844 -8.304688 Z M 3.285156 -2.394531 L 4.242188 -2.394531 C 4.292969 -2.394531 4.328125 -2.398438 4.355469 -2.40625 C 4.359375 -2.410156 4.363281 -2.410156 4.367188 -2.410156 C 4.363281 -2.410156 4.363281 -2.410156 4.359375 -2.40625 C 4.359375 -2.40625 4.355469 -2.402344 4.355469 -2.402344 C 4.355469 -2.402344 4.359375 -2.40625 4.359375 -2.410156 C 4.367188 -2.4375 4.375 -2.476562 4.375 -2.523438 L 4.375 -7.933594 C 4.375 -7.980469 4.367188 -8.019531 4.359375 -8.046875 C 4.359375 -8.050781 4.355469 -8.054688 4.355469 -8.054688 C 4.355469 -8.054688 4.359375 -8.050781 4.359375 -8.050781 C 4.363281 -8.046875 4.363281 -8.046875 4.367188 -8.046875 C 4.363281 -8.046875 4.359375 -8.046875 4.355469 -8.050781 C 4.328125 -8.058594 4.292969 -8.0625 4.242188 -8.0625 L 3.285156 -8.0625 C 3.238281 -8.0625 3.199219 -8.058594 3.171875 -8.050781 C 3.167969 -8.046875 3.164062 -8.046875 3.164062 -8.046875 C 3.164062 -8.046875 3.167969 -8.046875 3.167969 -8.050781 C 3.171875 -8.050781 3.171875 -8.054688 3.171875 -8.054688 C 3.171875 -8.054688 3.171875 -8.050781 3.167969 -8.046875 C 3.160156 -8.019531 3.15625 -7.980469 3.15625 -7.933594 L 3.15625 -2.523438 C 3.15625 -2.476562 3.160156 -2.4375 3.167969 -2.410156 C 3.171875 -2.40625 3.171875 -2.402344 3.171875 -2.402344 C 3.171875 -2.402344 3.171875 -2.40625 3.167969 -2.40625 C 3.167969 -2.410156 3.164062 -2.410156 3.164062 -2.410156 C 3.164062 -2.410156 3.167969 -2.410156 3.171875 -2.40625 C 3.199219 -2.398438 3.238281 -2.394531 3.285156 -2.394531 Z M 3.285156 -1.460938 C 2.957031 -1.460938 2.699219 -1.554688 2.507812 -1.746094 C 2.316406 -1.9375 2.222656 -2.195312 2.222656 -2.523438 L 2.222656 -7.933594 C 2.222656 -8.261719 2.316406 -8.519531 2.507812 -8.710938 C 2.699219 -8.902344 2.957031 -8.996094 3.285156 -8.996094 L 4.242188 -8.996094 C 4.570312 -8.996094 4.828125 -8.902344 5.019531 -8.710938 C 5.210938 -8.519531 5.308594 -8.261719 5.308594 -7.933594 L 5.308594 -2.523438 C 5.308594 -2.195312 5.210938 -1.9375 5.019531 -1.746094 C 4.828125 -1.554688 4.570312 -1.460938 4.242188 -1.460938 Z M 3.285156 -1.460938 "/></g></g><g style="fill:#b21a22;fill-opacity:1;"><g transform="translate(41.57813, 53.869387)"><path style="stroke:none" d="M 0.28125 -4.691406 L 0.28125 -6.066406 C 0.28125 -6.292969 0.351562 -6.476562 0.492188 -6.621094 C 0.632812 -6.761719 0.816406 -6.832031 1.046875 -6.832031 L 3.40625 -6.832031 C 3.632812 -6.832031 3.820312 -6.761719 3.960938 -6.621094 C 4.101562 -6.476562 4.171875 -6.292969 4.171875 -6.066406 L 4.171875 -4.691406 C 4.171875 -4.460938 4.101562 -4.277344 3.960938 -4.136719 C 3.820312 -3.996094 3.632812 -3.925781 3.40625 -3.925781 L 1.046875 -3.925781 C 0.816406 -3.925781 0.632812 -3.996094 0.492188 -4.136719 C 0.351562 -4.277344 0.28125 -4.460938 0.28125 -4.691406 Z M 1.214844 -4.691406 C 1.214844 -4.6875 1.214844 -4.6875 1.214844 -4.6875 C 1.214844 -4.691406 1.210938 -4.699219 1.207031 -4.707031 C 1.199219 -4.738281 1.179688 -4.769531 1.152344 -4.796875 C 1.125 -4.824219 1.09375 -4.84375 1.0625 -4.851562 C 1.054688 -4.855469 1.046875 -4.859375 1.042969 -4.859375 C 1.039062 -4.859375 1.039062 -4.859375 1.039062 -4.859375 C 1.042969 -4.859375 1.042969 -4.859375 1.046875 -4.859375 L 3.40625 -4.859375 C 3.40625 -4.859375 3.410156 -4.859375 3.410156 -4.859375 C 3.402344 -4.859375 3.398438 -4.855469 3.390625 -4.851562 C 3.355469 -4.84375 3.328125 -4.824219 3.300781 -4.796875 C 3.273438 -4.769531 3.253906 -4.738281 3.242188 -4.707031 C 3.242188 -4.699219 3.238281 -4.691406 3.238281 -4.6875 C 3.238281 -4.6875 3.238281 -4.6875 3.238281 -4.691406 L 3.238281 -6.066406 C 3.238281 -6.066406 3.238281 -6.070312 3.238281 -6.070312 C 3.238281 -6.0625 3.242188 -6.054688 3.242188 -6.046875 C 3.253906 -6.015625 3.273438 -5.984375 3.300781 -5.960938 C 3.328125 -5.933594 3.355469 -5.914062 3.390625 -5.902344 C 3.398438 -5.898438 3.402344 -5.898438 3.410156 -5.898438 C 3.410156 -5.898438 3.40625 -5.898438 3.40625 -5.898438 L 1.046875 -5.898438 C 1.042969 -5.898438 1.042969 -5.898438 1.039062 -5.898438 C 1.039062 -5.898438 1.039062 -5.898438 1.042969 -5.898438 C 1.046875 -5.898438 1.054688 -5.898438 1.0625 -5.902344 C 1.09375 -5.914062 1.125 -5.933594 1.152344 -5.960938 C 1.179688 -5.984375 1.199219 -6.015625 1.207031 -6.046875 C 1.210938 -6.054688 1.214844 -6.0625 1.214844 -6.070312 C 1.214844 -6.070312 1.214844 -6.066406 1.214844 -6.066406 Z M 1.214844 -4.691406 "/></g></g><g style="fill:#b21a22;fill-opacity:1;"><g transform="translate(46.028404, 53.869387)"><path style="stroke:none" d="M 0.28125 -0.238281 L 0.28125 -10.21875 C 0.28125 -10.425781 0.34375 -10.597656 0.476562 -10.726562 C 0.609375 -10.859375 0.777344 -10.925781 0.984375 -10.925781 L 4.570312 -10.925781 C 5.40625 -10.925781 6.050781 -10.695312 6.507812 -10.242188 C 6.960938 -9.789062 7.1875 -9.140625 7.1875 -8.304688 L 7.1875 -5.378906 C 7.1875 -4.550781 6.960938 -3.910156 6.507812 -3.457031 C 6.054688 -3.003906 5.410156 -2.773438 4.578125 -2.761719 L 2.691406 -2.746094 L 2.6875 -3.210938 L 3.15625 -3.210938 L 3.15625 -0.222656 C 3.15625 -0.015625 3.089844 0.15625 2.960938 0.285156 C 2.828125 0.417969 2.660156 0.480469 2.449219 0.480469 L 0.980469 0.46875 C 0.777344 0.46875 0.609375 0.402344 0.476562 0.269531 C 0.34375 0.140625 0.28125 -0.03125 0.28125 -0.238281 Z M 1.214844 -0.238281 C 1.214844 -0.25 1.210938 -0.265625 1.203125 -0.28125 C 1.191406 -0.320312 1.167969 -0.359375 1.136719 -0.390625 C 1.105469 -0.421875 1.070312 -0.445312 1.027344 -0.457031 C 1.011719 -0.464844 1 -0.46875 0.992188 -0.46875 L 2.449219 -0.453125 C 2.4375 -0.453125 2.425781 -0.449219 2.40625 -0.441406 C 2.367188 -0.429688 2.332031 -0.40625 2.300781 -0.375 C 2.265625 -0.34375 2.246094 -0.308594 2.230469 -0.265625 C 2.226562 -0.25 2.222656 -0.234375 2.222656 -0.222656 L 2.222656 -3.675781 L 4.566406 -3.695312 C 5.144531 -3.703125 5.574219 -3.84375 5.847656 -4.117188 C 6.121094 -4.390625 6.253906 -4.808594 6.253906 -5.378906 L 6.253906 -8.304688 C 6.253906 -8.882812 6.121094 -9.308594 5.847656 -9.582031 C 5.574219 -9.855469 5.148438 -9.988281 4.570312 -9.988281 L 0.984375 -9.988281 C 0.996094 -9.988281 1.011719 -9.992188 1.027344 -10 C 1.070312 -10.011719 1.105469 -10.035156 1.136719 -10.066406 C 1.167969 -10.097656 1.191406 -10.136719 1.203125 -10.175781 C 1.210938 -10.191406 1.214844 -10.207031 1.214844 -10.21875 Z M 2.683594 -5.605469 L 4.179688 -5.621094 C 4.230469 -5.621094 4.269531 -5.625 4.296875 -5.632812 C 4.300781 -5.636719 4.304688 -5.636719 4.308594 -5.636719 C 4.304688 -5.636719 4.304688 -5.636719 4.300781 -5.632812 C 4.296875 -5.632812 4.296875 -5.628906 4.296875 -5.628906 C 4.296875 -5.628906 4.296875 -5.632812 4.300781 -5.636719 C 4.308594 -5.664062 4.3125 -5.703125 4.3125 -5.75 L 4.3125 -7.933594 C 4.3125 -7.980469 4.308594 -8.019531 4.300781 -8.046875 C 4.296875 -8.050781 4.296875 -8.054688 4.296875 -8.054688 C 4.296875 -8.054688 4.296875 -8.050781 4.300781 -8.050781 C 4.304688 -8.046875 4.304688 -8.046875 4.308594 -8.046875 C 4.304688 -8.046875 4.300781 -8.046875 4.296875 -8.050781 C 4.269531 -8.058594 4.230469 -8.0625 4.183594 -8.0625 L 2.695312 -8.046875 L 2.6875 -8.515625 L 3.15625 -8.515625 L 3.15625 -5.140625 L 2.6875 -5.140625 Z M 2.222656 -4.667969 L 2.222656 -8.976562 L 4.183594 -8.996094 C 4.511719 -8.996094 4.769531 -8.902344 4.960938 -8.710938 C 5.152344 -8.519531 5.246094 -8.261719 5.246094 -7.933594 L 5.246094 -5.75 C 5.246094 -5.421875 5.152344 -5.164062 4.960938 -4.972656 C 4.769531 -4.78125 4.511719 -4.6875 4.1875 -4.6875 L 2.695312 -4.671875 Z M 2.222656 -4.667969 "/></g></g><g style="fill:#b21a22;fill-opacity:1;"><g transform="translate(53.495309, 53.869387)"><path style="stroke:none" d="M 0.28125 -2.152344 L 0.28125 -8.304688 C 0.28125 -9.144531 0.511719 -9.789062 0.972656 -10.242188 C 1.429688 -10.695312 2.074219 -10.925781 2.898438 -10.925781 L 4.570312 -10.925781 C 5.394531 -10.925781 6.039062 -10.695312 6.496094 -10.242188 C 6.957031 -9.789062 7.1875 -9.144531 7.1875 -8.304688 L 7.1875 -7.199219 C 7.1875 -6.992188 7.125 -6.820312 6.992188 -6.691406 C 6.863281 -6.558594 6.691406 -6.496094 6.484375 -6.496094 L 5.078125 -6.496094 C 4.871094 -6.496094 4.699219 -6.558594 4.570312 -6.691406 C 4.4375 -6.820312 4.375 -6.992188 4.375 -7.199219 L 4.375 -7.933594 C 4.375 -7.980469 4.367188 -8.019531 4.359375 -8.046875 C 4.359375 -8.050781 4.355469 -8.054688 4.355469 -8.054688 C 4.355469 -8.054688 4.359375 -8.050781 4.359375 -8.050781 C 4.363281 -8.046875 4.363281 -8.046875 4.367188 -8.046875 C 4.363281 -8.046875 4.359375 -8.046875 4.355469 -8.050781 C 4.328125 -8.058594 4.292969 -8.0625 4.242188 -8.0625 L 3.285156 -8.0625 C 3.238281 -8.0625 3.199219 -8.058594 3.171875 -8.050781 C 3.167969 -8.046875 3.164062 -8.046875 3.164062 -8.046875 C 3.164062 -8.046875 3.167969 -8.046875 3.167969 -8.050781 C 3.171875 -8.050781 3.171875 -8.054688 3.171875 -8.054688 C 3.171875 -8.054688 3.171875 -8.050781 3.167969 -8.046875 C 3.160156 -8.019531 3.15625 -7.980469 3.15625 -7.933594 L 3.15625 -2.523438 C 3.15625 -2.476562 3.160156 -2.4375 3.167969 -2.410156 C 3.171875 -2.40625 3.171875 -2.402344 3.171875 -2.402344 C 3.171875 -2.402344 3.171875 -2.40625 3.167969 -2.40625 C 3.167969 -2.410156 3.164062 -2.410156 3.164062 -2.410156 C 3.164062 -2.410156 3.167969 -2.410156 3.171875 -2.40625 C 3.199219 -2.398438 3.238281 -2.394531 3.285156 -2.394531 L 4.242188 -2.394531 C 4.292969 -2.394531 4.328125 -2.398438 4.355469 -2.40625 C 4.359375 -2.410156 4.363281 -2.410156 4.367188 -2.410156 C 4.363281 -2.410156 4.363281 -2.410156 4.359375 -2.40625 C 4.359375 -2.40625 4.355469 -2.402344 4.355469 -2.402344 C 4.355469 -2.402344 4.359375 -2.40625 4.359375 -2.410156 C 4.367188 -2.4375 4.375 -2.476562 4.375 -2.523438 L 4.375 -3.824219 L 4.839844 -3.824219 L 4.839844 -3.355469 L 4.0625 -3.355469 C 3.855469 -3.355469 3.683594 -3.421875 3.554688 -3.554688 C 3.421875 -3.683594 3.355469 -3.855469 3.355469 -4.0625 L 3.355469 -5.558594 C 3.355469 -5.765625 3.421875 -5.933594 3.554688 -6.066406 C 3.683594 -6.199219 3.855469 -6.261719 4.0625 -6.261719 L 6.484375 -6.261719 C 6.691406 -6.261719 6.863281 -6.199219 6.992188 -6.066406 C 7.125 -5.933594 7.1875 -5.765625 7.1875 -5.558594 L 7.1875 -2.152344 C 7.1875 -1.324219 6.960938 -0.683594 6.5 -0.222656 C 6.039062 0.238281 5.398438 0.46875 4.570312 0.46875 L 2.898438 0.46875 C 2.070312 0.46875 1.429688 0.238281 0.96875 -0.222656 C 0.511719 -0.683594 0.28125 -1.324219 0.28125 -2.152344 Z M 1.214844 -2.152344 C 1.214844 -1.582031 1.351562 -1.160156 1.628906 -0.882812 C 1.90625 -0.605469 2.328125 -0.46875 2.898438 -0.46875 L 4.570312 -0.46875 C 5.140625 -0.46875 5.5625 -0.605469 5.839844 -0.882812 C 6.117188 -1.160156 6.253906 -1.582031 6.253906 -2.152344 L 6.253906 -5.558594 C 6.253906 -5.546875 6.257812 -5.53125 6.265625 -5.515625 C 6.277344 -5.472656 6.300781 -5.4375 6.332031 -5.40625 C 6.363281 -5.375 6.402344 -5.351562 6.441406 -5.339844 C 6.457031 -5.332031 6.472656 -5.328125 6.484375 -5.328125 L 4.0625 -5.328125 C 4.074219 -5.328125 4.089844 -5.332031 4.105469 -5.339844 C 4.144531 -5.351562 4.183594 -5.375 4.214844 -5.40625 C 4.246094 -5.4375 4.269531 -5.472656 4.28125 -5.515625 C 4.289062 -5.53125 4.292969 -5.546875 4.292969 -5.558594 L 4.292969 -4.0625 C 4.292969 -4.074219 4.289062 -4.089844 4.28125 -4.105469 C 4.269531 -4.144531 4.246094 -4.183594 4.214844 -4.214844 C 4.183594 -4.246094 4.144531 -4.269531 4.105469 -4.28125 C 4.089844 -4.289062 4.074219 -4.292969 4.0625 -4.292969 L 5.308594 -4.292969 L 5.308594 -2.523438 C 5.308594 -2.195312 5.210938 -1.9375 5.019531 -1.746094 C 4.828125 -1.554688 4.570312 -1.460938 4.242188 -1.460938 L 3.285156 -1.460938 C 2.957031 -1.460938 2.699219 -1.554688 2.507812 -1.746094 C 2.316406 -1.9375 2.222656 -2.195312 2.222656 -2.523438 L 2.222656 -7.933594 C 2.222656 -8.261719 2.316406 -8.519531 2.507812 -8.710938 C 2.699219 -8.902344 2.957031 -8.996094 3.285156 -8.996094 L 4.242188 -8.996094 C 4.570312 -8.996094 4.828125 -8.902344 5.019531 -8.710938 C 5.210938 -8.519531 5.308594 -8.261719 5.308594 -7.933594 L 5.308594 -7.199219 C 5.308594 -7.210938 5.304688 -7.226562 5.296875 -7.242188 C 5.285156 -7.285156 5.261719 -7.320312 5.230469 -7.351562 C 5.199219 -7.382812 5.160156 -7.40625 5.121094 -7.417969 C 5.105469 -7.425781 5.089844 -7.429688 5.078125 -7.429688 L 6.484375 -7.429688 C 6.472656 -7.429688 6.457031 -7.425781 6.441406 -7.417969 C 6.402344 -7.40625 6.363281 -7.382812 6.332031 -7.351562 C 6.300781 -7.320312 6.277344 -7.285156 6.265625 -7.242188 C 6.257812 -7.226562 6.253906 -7.210938 6.253906 -7.199219 L 6.253906 -8.304688 C 6.253906 -8.882812 6.117188 -9.308594 5.839844 -9.578125 C 5.5625 -9.851562 5.140625 -9.988281 4.570312 -9.988281 L 2.898438 -9.988281 C 2.328125 -9.988281 1.90625 -9.851562 1.628906 -9.578125 C 1.351562 -9.308594 1.214844 -8.882812 1.214844 -8.304688 Z M 1.214844 -2.152344 "/></g></g><g style="fill:#b21a22;fill-opacity:1;"><g transform="translate(60.962214, 53.869387)"><path style="stroke:none" d="M 0.28125 -4.691406 L 0.28125 -6.066406 C 0.28125 -6.292969 0.351562 -6.476562 0.492188 -6.621094 C 0.632812 -6.761719 0.816406 -6.832031 1.046875 -6.832031 L 3.40625 -6.832031 C 3.632812 -6.832031 3.820312 -6.761719 3.960938 -6.621094 C 4.101562 -6.476562 4.171875 -6.292969 4.171875 -6.066406 L 4.171875 -4.691406 C 4.171875 -4.460938 4.101562 -4.277344 3.960938 -4.136719 C 3.820312 -3.996094 3.632812 -3.925781 3.40625 -3.925781 L 1.046875 -3.925781 C 0.816406 -3.925781 0.632812 -3.996094 0.492188 -4.136719 C 0.351562 -4.277344 0.28125 -4.460938 0.28125 -4.691406 Z M 1.214844 -4.691406 C 1.214844 -4.6875 1.214844 -4.6875 1.214844 -4.6875 C 1.214844 -4.691406 1.210938 -4.699219 1.207031 -4.707031 C 1.199219 -4.738281 1.179688 -4.769531 1.152344 -4.796875 C 1.125 -4.824219 1.09375 -4.84375 1.0625 -4.851562 C 1.054688 -4.855469 1.046875 -4.859375 1.042969 -4.859375 C 1.039062 -4.859375 1.039062 -4.859375 1.039062 -4.859375 C 1.042969 -4.859375 1.042969 -4.859375 1.046875 -4.859375 L 3.40625 -4.859375 C 3.40625 -4.859375 3.410156 -4.859375 3.410156 -4.859375 C 3.402344 -4.859375 3.398438 -4.855469 3.390625 -4.851562 C 3.355469 -4.84375 3.328125 -4.824219 3.300781 -4.796875 C 3.273438 -4.769531 3.253906 -4.738281 3.242188 -4.707031 C 3.242188 -4.699219 3.238281 -4.691406 3.238281 -4.6875 C 3.238281 -4.6875 3.238281 -4.6875 3.238281 -4.691406 L 3.238281 -6.066406 C 3.238281 -6.066406 3.238281 -6.070312 3.238281 -6.070312 C 3.238281 -6.0625 3.242188 -6.054688 3.242188 -6.046875 C 3.253906 -6.015625 3.273438 -5.984375 3.300781 -5.960938 C 3.328125 -5.933594 3.355469 -5.914062 3.390625 -5.902344 C 3.398438 -5.898438 3.402344 -5.898438 3.410156 -5.898438 C 3.410156 -5.898438 3.40625 -5.898438 3.40625 -5.898438 L 1.046875 -5.898438 C 1.042969 -5.898438 1.042969 -5.898438 1.039062 -5.898438 C 1.039062 -5.898438 1.039062 -5.898438 1.042969 -5.898438 C 1.046875 -5.898438 1.054688 -5.898438 1.0625 -5.902344 C 1.09375 -5.914062 1.125 -5.933594 1.152344 -5.960938 C 1.179688 -5.984375 1.199219 -6.015625 1.207031 -6.046875 C 1.210938 -6.054688 1.214844 -6.0625 1.214844 -6.070312 C 1.214844 -6.070312 1.214844 -6.066406 1.214844 -6.066406 Z M 1.214844 -4.691406 "/></g></g><g style="fill:#b21a22;fill-opacity:1;"><g transform="translate(20.587593, 74.696238)"><path style="stroke:none" d="M 2.3125 -1.972656 L 2.3125 -10.21875 C 2.3125 -10.207031 2.316406 -10.191406 2.320312 -10.175781 C 2.335938 -10.136719 2.355469 -10.097656 2.390625 -10.066406 C 2.421875 -10.035156 2.457031 -10.011719 2.496094 -10 C 2.515625 -9.992188 2.527344 -9.988281 2.539062 -9.988281 L 0.984375 -9.988281 C 0.996094 -9.988281 1.011719 -9.992188 1.027344 -10 C 1.070312 -10.011719 1.105469 -10.035156 1.136719 -10.066406 C 1.167969 -10.097656 1.191406 -10.136719 1.203125 -10.175781 C 1.210938 -10.191406 1.214844 -10.207031 1.214844 -10.21875 L 1.214844 -0.238281 C 1.214844 -0.25 1.210938 -0.265625 1.203125 -0.28125 C 1.191406 -0.320312 1.167969 -0.359375 1.136719 -0.390625 C 1.105469 -0.421875 1.070312 -0.445312 1.027344 -0.457031 C 1.011719 -0.464844 0.996094 -0.46875 0.984375 -0.46875 L 5.738281 -0.46875 C 5.726562 -0.46875 5.710938 -0.464844 5.691406 -0.457031 C 5.652344 -0.445312 5.617188 -0.421875 5.585938 -0.390625 C 5.554688 -0.359375 5.53125 -0.320312 5.515625 -0.28125 C 5.511719 -0.265625 5.507812 -0.25 5.507812 -0.238281 L 5.507812 -1.734375 C 5.507812 -1.722656 5.511719 -1.707031 5.515625 -1.691406 C 5.53125 -1.648438 5.554688 -1.613281 5.585938 -1.582031 C 5.617188 -1.550781 5.652344 -1.527344 5.691406 -1.515625 C 5.710938 -1.507812 5.726562 -1.503906 5.738281 -1.503906 L 2.3125 -1.503906 Z M 3.246094 -1.972656 L 2.777344 -1.972656 L 2.777344 -2.4375 L 5.738281 -2.4375 C 5.945312 -2.4375 6.113281 -2.375 6.246094 -2.242188 C 6.375 -2.109375 6.441406 -1.941406 6.441406 -1.734375 L 6.441406 -0.238281 C 6.441406 -0.03125 6.375 0.140625 6.246094 0.269531 C 6.113281 0.402344 5.945312 0.46875 5.738281 0.46875 L 0.984375 0.46875 C 0.777344 0.46875 0.609375 0.402344 0.476562 0.269531 C 0.34375 0.140625 0.28125 -0.03125 0.28125 -0.238281 L 0.28125 -10.21875 C 0.28125 -10.425781 0.34375 -10.597656 0.476562 -10.726562 C 0.609375 -10.859375 0.777344 -10.925781 0.984375 -10.925781 L 2.539062 -10.925781 C 2.75 -10.925781 2.917969 -10.859375 3.050781 -10.726562 C 3.179688 -10.597656 3.246094 -10.425781 3.246094 -10.21875 Z M 3.246094 -1.972656 "/></g></g><g style="fill:#b21a22;fill-opacity:1;"><g transform="translate(27.307807, 74.696238)"><path style="stroke:none" d="M 0.984375 -0.46875 L 2.539062 -0.46875 C 2.527344 -0.46875 2.515625 -0.464844 2.496094 -0.457031 C 2.457031 -0.445312 2.421875 -0.421875 2.390625 -0.390625 C 2.355469 -0.359375 2.335938 -0.320312 2.320312 -0.28125 C 2.316406 -0.265625 2.3125 -0.25 2.3125 -0.238281 L 2.3125 -10.21875 C 2.3125 -10.207031 2.316406 -10.191406 2.320312 -10.175781 C 2.335938 -10.136719 2.355469 -10.097656 2.390625 -10.066406 C 2.421875 -10.035156 2.457031 -10.011719 2.496094 -10 C 2.515625 -9.992188 2.527344 -9.988281 2.539062 -9.988281 L 0.984375 -9.988281 C 0.996094 -9.988281 1.011719 -9.992188 1.027344 -10 C 1.070312 -10.011719 1.105469 -10.035156 1.136719 -10.066406 C 1.167969 -10.097656 1.191406 -10.136719 1.203125 -10.175781 C 1.210938 -10.191406 1.214844 -10.207031 1.214844 -10.21875 L 1.214844 -0.238281 C 1.214844 -0.25 1.210938 -0.265625 1.203125 -0.28125 C 1.191406 -0.320312 1.167969 -0.359375 1.136719 -0.390625 C 1.105469 -0.421875 1.070312 -0.445312 1.027344 -0.457031 C 1.011719 -0.464844 0.996094 -0.46875 0.984375 -0.46875 Z M 0.984375 0.46875 C 0.777344 0.46875 0.609375 0.402344 0.476562 0.269531 C 0.34375 0.140625 0.28125 -0.03125 0.28125 -0.238281 L 0.28125 -10.21875 C 0.28125 -10.425781 0.34375 -10.597656 0.476562 -10.726562 C 0.609375 -10.859375 0.777344 -10.925781 0.984375 -10.925781 L 2.539062 -10.925781 C 2.75 -10.925781 2.917969 -10.859375 3.050781 -10.726562 C 3.179688 -10.597656 3.246094 -10.425781 3.246094 -10.21875 L 3.246094 -0.238281 C 3.246094 -0.03125 3.179688 0.140625 3.050781 0.269531 C 2.917969 0.402344 2.75 0.46875 2.539062 0.46875 Z M 0.984375 0.46875 "/></g></g><g style="fill:#b21a22;fill-opacity:1;"><g transform="translate(30.832184, 74.696238)"><path style="stroke:none" d="M 2.898438 -10.925781 L 4.570312 -10.925781 C 5.40625 -10.925781 6.050781 -10.695312 6.507812 -10.242188 C 6.960938 -9.789062 7.1875 -9.140625 7.1875 -8.304688 L 7.1875 -7.320312 C 7.1875 -7.109375 7.125 -6.941406 6.992188 -6.808594 C 6.863281 -6.679688 6.691406 -6.613281 6.484375 -6.613281 L 4.972656 -6.613281 C 4.765625 -6.613281 4.597656 -6.679688 4.464844 -6.808594 C 4.335938 -6.941406 4.269531 -7.109375 4.269531 -7.320312 L 4.269531 -7.949219 C 4.269531 -7.996094 4.265625 -8.035156 4.253906 -8.0625 C 4.253906 -8.066406 4.253906 -8.070312 4.25 -8.070312 C 4.253906 -8.070312 4.253906 -8.066406 4.257812 -8.066406 C 4.257812 -8.0625 4.261719 -8.0625 4.261719 -8.058594 C 4.261719 -8.0625 4.257812 -8.0625 4.25 -8.066406 C 4.226562 -8.074219 4.1875 -8.078125 4.136719 -8.078125 L 3.316406 -8.078125 C 3.265625 -8.078125 3.230469 -8.074219 3.203125 -8.066406 C 3.199219 -8.0625 3.195312 -8.0625 3.191406 -8.058594 C 3.195312 -8.0625 3.195312 -8.0625 3.199219 -8.066406 C 3.199219 -8.066406 3.203125 -8.070312 3.203125 -8.070312 C 3.203125 -8.070312 3.199219 -8.066406 3.199219 -8.0625 C 3.191406 -8.035156 3.1875 -7.996094 3.1875 -7.949219 L 3.1875 -6.675781 L 2.71875 -6.675781 L 2.863281 -7.121094 L 6.476562 -5.957031 C 6.707031 -5.875 6.882812 -5.75 7.007812 -5.574219 C 7.128906 -5.402344 7.1875 -5.199219 7.1875 -4.960938 L 7.1875 -2.152344 C 7.1875 -1.328125 6.960938 -0.683594 6.507812 -0.226562 C 6.054688 0.234375 5.410156 0.46875 4.570312 0.46875 L 2.898438 0.46875 C 2.070312 0.46875 1.429688 0.238281 0.96875 -0.222656 C 0.511719 -0.683594 0.28125 -1.324219 0.28125 -2.152344 L 0.28125 -3.121094 C 0.28125 -3.332031 0.34375 -3.5 0.476562 -3.632812 C 0.609375 -3.761719 0.777344 -3.828125 0.984375 -3.828125 L 2.496094 -3.828125 C 2.703125 -3.828125 2.875 -3.761719 3.003906 -3.632812 C 3.136719 -3.5 3.199219 -3.332031 3.199219 -3.121094 L 3.199219 -2.496094 C 3.199219 -2.445312 3.203125 -2.40625 3.214844 -2.382812 C 3.214844 -2.375 3.21875 -2.371094 3.21875 -2.371094 C 3.21875 -2.371094 3.214844 -2.375 3.214844 -2.375 C 3.210938 -2.378906 3.210938 -2.378906 3.207031 -2.382812 C 3.210938 -2.378906 3.210938 -2.378906 3.21875 -2.378906 C 3.246094 -2.367188 3.28125 -2.363281 3.332031 -2.363281 L 4.136719 -2.363281 C 4.1875 -2.363281 4.226562 -2.367188 4.25 -2.378906 C 4.257812 -2.378906 4.261719 -2.378906 4.261719 -2.382812 C 4.261719 -2.378906 4.257812 -2.378906 4.257812 -2.375 C 4.253906 -2.375 4.253906 -2.371094 4.25 -2.371094 C 4.253906 -2.371094 4.253906 -2.375 4.253906 -2.382812 C 4.265625 -2.40625 4.269531 -2.445312 4.269531 -2.496094 L 4.269531 -4.003906 L 4.734375 -4.003906 L 4.589844 -3.558594 L 1.007812 -4.726562 C 0.773438 -4.800781 0.597656 -4.925781 0.46875 -5.097656 C 0.34375 -5.273438 0.28125 -5.480469 0.28125 -5.722656 L 0.28125 -8.304688 C 0.28125 -9.144531 0.511719 -9.789062 0.972656 -10.242188 C 1.429688 -10.695312 2.074219 -10.925781 2.898438 -10.925781 Z M 2.898438 -9.988281 C 2.328125 -9.988281 1.90625 -9.851562 1.628906 -9.578125 C 1.351562 -9.308594 1.214844 -8.882812 1.214844 -8.304688 L 1.214844 -5.722656 C 1.214844 -5.683594 1.21875 -5.660156 1.226562 -5.648438 C 1.234375 -5.636719 1.257812 -5.625 1.292969 -5.613281 L 5.203125 -4.34375 L 5.203125 -2.496094 C 5.203125 -2.167969 5.105469 -1.90625 4.917969 -1.714844 C 4.726562 -1.527344 4.464844 -1.429688 4.136719 -1.429688 L 3.332031 -1.429688 C 3.003906 -1.429688 2.742188 -1.527344 2.554688 -1.714844 C 2.363281 -1.90625 2.265625 -2.167969 2.265625 -2.496094 L 2.265625 -3.121094 C 2.265625 -3.113281 2.269531 -3.097656 2.277344 -3.078125 C 2.289062 -3.039062 2.3125 -3.003906 2.34375 -2.972656 C 2.375 -2.9375 2.410156 -2.917969 2.453125 -2.902344 C 2.46875 -2.898438 2.484375 -2.894531 2.496094 -2.894531 L 0.984375 -2.894531 C 0.996094 -2.894531 1.011719 -2.898438 1.027344 -2.902344 C 1.070312 -2.917969 1.105469 -2.9375 1.136719 -2.972656 C 1.167969 -3.003906 1.191406 -3.039062 1.203125 -3.078125 C 1.210938 -3.097656 1.214844 -3.113281 1.214844 -3.121094 L 1.214844 -2.152344 C 1.214844 -1.582031 1.351562 -1.160156 1.628906 -0.882812 C 1.90625 -0.605469 2.328125 -0.46875 2.898438 -0.46875 L 4.570312 -0.46875 C 5.148438 -0.46875 5.574219 -0.605469 5.84375 -0.878906 C 6.117188 -1.15625 6.253906 -1.582031 6.253906 -2.152344 L 6.253906 -4.960938 C 6.253906 -5 6.25 -5.027344 6.242188 -5.039062 C 6.238281 -5.046875 6.21875 -5.058594 6.191406 -5.066406 L 2.25 -6.335938 L 2.25 -7.949219 C 2.25 -8.277344 2.347656 -8.535156 2.539062 -8.726562 C 2.730469 -8.917969 2.988281 -9.011719 3.316406 -9.011719 L 4.136719 -9.011719 C 4.464844 -9.011719 4.726562 -8.917969 4.917969 -8.726562 C 5.105469 -8.535156 5.203125 -8.277344 5.203125 -7.949219 L 5.203125 -7.320312 C 5.203125 -7.332031 5.199219 -7.34375 5.191406 -7.363281 C 5.179688 -7.402344 5.15625 -7.4375 5.125 -7.472656 C 5.09375 -7.503906 5.058594 -7.527344 5.019531 -7.539062 C 5 -7.542969 4.984375 -7.546875 4.972656 -7.546875 L 6.484375 -7.546875 C 6.472656 -7.546875 6.457031 -7.542969 6.441406 -7.539062 C 6.402344 -7.527344 6.363281 -7.503906 6.332031 -7.472656 C 6.300781 -7.4375 6.277344 -7.402344 6.265625 -7.363281 C 6.257812 -7.34375 6.253906 -7.332031 6.253906 -7.320312 L 6.253906 -8.304688 C 6.253906 -8.882812 6.121094 -9.308594 5.847656 -9.582031 C 5.574219 -9.855469 5.148438 -9.988281 4.570312 -9.988281 Z M 2.898438 -9.988281 "/></g></g><g style="fill:#b21a22;fill-opacity:1;"><g transform="translate(38.299089, 74.696238)"><path style="stroke:none" d="M 6.183594 -9.988281 L 0.6875 -9.988281 C 0.699219 -9.988281 0.710938 -9.992188 0.730469 -10 C 0.769531 -10.011719 0.804688 -10.035156 0.839844 -10.066406 C 0.871094 -10.097656 0.894531 -10.136719 0.90625 -10.175781 C 0.910156 -10.191406 0.914062 -10.207031 0.914062 -10.21875 L 0.914062 -8.722656 C 0.914062 -8.734375 0.910156 -8.75 0.90625 -8.765625 C 0.894531 -8.808594 0.871094 -8.84375 0.839844 -8.875 C 0.804688 -8.90625 0.769531 -8.929688 0.730469 -8.941406 C 0.710938 -8.949219 0.699219 -8.953125 0.6875 -8.953125 L 2.886719 -8.953125 L 2.886719 -0.238281 C 2.886719 -0.25 2.882812 -0.265625 2.878906 -0.28125 C 2.863281 -0.320312 2.84375 -0.359375 2.808594 -0.390625 C 2.777344 -0.421875 2.742188 -0.445312 2.703125 -0.457031 C 2.683594 -0.464844 2.667969 -0.46875 2.660156 -0.46875 L 4.210938 -0.46875 C 4.203125 -0.46875 4.1875 -0.464844 4.167969 -0.457031 C 4.128906 -0.445312 4.09375 -0.421875 4.0625 -0.390625 C 4.03125 -0.359375 4.007812 -0.320312 3.992188 -0.28125 C 3.988281 -0.265625 3.984375 -0.25 3.984375 -0.238281 L 3.984375 -8.953125 L 6.183594 -8.953125 C 6.175781 -8.953125 6.160156 -8.949219 6.140625 -8.941406 C 6.101562 -8.929688 6.066406 -8.90625 6.035156 -8.875 C 6 -8.84375 5.980469 -8.808594 5.964844 -8.765625 C 5.960938 -8.75 5.957031 -8.734375 5.957031 -8.722656 L 5.957031 -10.21875 C 5.957031 -10.207031 5.960938 -10.191406 5.964844 -10.175781 C 5.980469 -10.136719 6 -10.097656 6.035156 -10.066406 C 6.066406 -10.035156 6.101562 -10.011719 6.140625 -10 C 6.160156 -9.992188 6.175781 -9.988281 6.183594 -9.988281 Z M 6.183594 -10.925781 C 6.394531 -10.925781 6.5625 -10.859375 6.695312 -10.726562 C 6.824219 -10.597656 6.890625 -10.425781 6.890625 -10.21875 L 6.890625 -8.722656 C 6.890625 -8.515625 6.824219 -8.347656 6.695312 -8.214844 C 6.5625 -8.082031 6.394531 -8.019531 6.183594 -8.019531 L 4.453125 -8.019531 L 4.453125 -8.484375 L 4.917969 -8.484375 L 4.917969 -0.238281 C 4.917969 -0.03125 4.851562 0.140625 4.722656 0.269531 C 4.589844 0.402344 4.421875 0.46875 4.210938 0.46875 L 2.660156 0.46875 C 2.449219 0.46875 2.28125 0.402344 2.148438 0.269531 C 2.019531 0.140625 1.953125 -0.03125 1.953125 -0.238281 L 1.953125 -8.484375 L 2.421875 -8.484375 L 2.421875 -8.019531 L 0.6875 -8.019531 C 0.480469 -8.019531 0.308594 -8.082031 0.179688 -8.214844 C 0.046875 -8.347656 -0.0195312 -8.515625 -0.0195312 -8.722656 L -0.0195312 -10.21875 C -0.0195312 -10.425781 0.046875 -10.597656 0.179688 -10.726562 C 0.308594 -10.859375 0.480469 -10.925781 0.6875 -10.925781 Z M 6.183594 -10.925781 "/></g></g><g style="fill:#b21a22;fill-opacity:1;"><g transform="translate(45.168643, 74.696238)"><path style="stroke:none" d="M 7.175781 -10.21875 L 7.175781 -8.722656 C 7.175781 -8.515625 7.113281 -8.347656 6.988281 -8.214844 C 6.855469 -8.074219 6.683594 -8.003906 6.46875 -8.003906 L 2.777344 -8.003906 L 2.777344 -8.46875 L 3.246094 -8.46875 L 3.246094 -6.167969 L 2.777344 -6.167969 L 2.777344 -6.636719 L 5.585938 -6.636719 C 5.800781 -6.636719 5.972656 -6.566406 6.105469 -6.425781 C 6.230469 -6.292969 6.292969 -6.125 6.292969 -5.914062 L 6.292969 -4.4375 C 6.292969 -4.230469 6.230469 -4.058594 6.105469 -3.925781 C 5.972656 -3.785156 5.800781 -3.714844 5.585938 -3.714844 L 2.777344 -3.714844 L 2.777344 -4.183594 L 3.246094 -4.183594 L 3.246094 -1.972656 L 2.777344 -1.972656 L 2.777344 -2.4375 L 6.46875 -2.4375 C 6.675781 -2.4375 6.847656 -2.375 6.976562 -2.242188 C 7.109375 -2.109375 7.175781 -1.941406 7.175781 -1.734375 L 7.175781 -0.238281 C 7.175781 -0.03125 7.109375 0.140625 6.976562 0.269531 C 6.847656 0.402344 6.675781 0.46875 6.46875 0.46875 L 0.972656 0.46875 C 0.761719 0.46875 0.59375 0.398438 0.460938 0.257812 C 0.339844 0.128906 0.28125 -0.0351562 0.28125 -0.238281 L 0.28125 -10.21875 C 0.28125 -10.421875 0.339844 -10.585938 0.460938 -10.714844 C 0.59375 -10.855469 0.761719 -10.925781 0.972656 -10.925781 L 6.46875 -10.925781 C 6.675781 -10.925781 6.847656 -10.859375 6.976562 -10.726562 C 7.109375 -10.597656 7.175781 -10.425781 7.175781 -10.21875 Z M 6.242188 -10.21875 C 6.242188 -10.207031 6.242188 -10.191406 6.25 -10.175781 C 6.261719 -10.136719 6.285156 -10.097656 6.316406 -10.066406 C 6.347656 -10.035156 6.386719 -10.011719 6.425781 -10 C 6.441406 -9.992188 6.457031 -9.988281 6.46875 -9.988281 L 0.972656 -9.988281 C 1.03125 -9.988281 1.089844 -10.019531 1.144531 -10.078125 C 1.171875 -10.109375 1.195312 -10.144531 1.207031 -10.183594 C 1.210938 -10.199219 1.214844 -10.210938 1.214844 -10.21875 L 1.214844 -0.238281 C 1.214844 -0.246094 1.210938 -0.257812 1.207031 -0.273438 C 1.195312 -0.3125 1.171875 -0.347656 1.144531 -0.378906 C 1.089844 -0.4375 1.03125 -0.46875 0.972656 -0.46875 L 6.46875 -0.46875 C 6.457031 -0.46875 6.441406 -0.464844 6.425781 -0.457031 C 6.386719 -0.445312 6.347656 -0.421875 6.316406 -0.390625 C 6.285156 -0.359375 6.261719 -0.320312 6.25 -0.28125 C 6.242188 -0.265625 6.242188 -0.25 6.242188 -0.238281 L 6.242188 -1.734375 C 6.242188 -1.722656 6.242188 -1.707031 6.25 -1.691406 C 6.261719 -1.648438 6.285156 -1.613281 6.316406 -1.582031 C 6.347656 -1.550781 6.386719 -1.527344 6.425781 -1.515625 C 6.441406 -1.507812 6.457031 -1.503906 6.46875 -1.503906 L 2.3125 -1.503906 L 2.3125 -4.648438 L 5.585938 -4.648438 C 5.574219 -4.648438 5.554688 -4.644531 5.535156 -4.640625 C 5.496094 -4.625 5.457031 -4.601562 5.425781 -4.566406 C 5.398438 -4.535156 5.378906 -4.5 5.367188 -4.464844 C 5.359375 -4.453125 5.359375 -4.441406 5.359375 -4.4375 L 5.359375 -5.914062 C 5.359375 -5.910156 5.359375 -5.902344 5.367188 -5.886719 C 5.378906 -5.851562 5.398438 -5.816406 5.425781 -5.785156 C 5.457031 -5.753906 5.496094 -5.726562 5.535156 -5.714844 C 5.554688 -5.707031 5.574219 -5.703125 5.585938 -5.703125 L 2.3125 -5.703125 L 2.3125 -8.9375 L 6.46875 -8.9375 C 6.453125 -8.9375 6.4375 -8.933594 6.417969 -8.925781 C 6.375 -8.910156 6.339844 -8.886719 6.308594 -8.855469 C 6.277344 -8.824219 6.257812 -8.789062 6.246094 -8.753906 C 6.242188 -8.738281 6.242188 -8.730469 6.242188 -8.722656 Z M 6.242188 -10.21875 "/></g></g><g style="fill:#b21a22;fill-opacity:1;"><g transform="translate(52.620611, 74.696238)"><path style="stroke:none" d="M 5.484375 -10.925781 L 6.886719 -10.925781 C 7.09375 -10.925781 7.265625 -10.859375 7.394531 -10.726562 C 7.527344 -10.597656 7.59375 -10.425781 7.59375 -10.21875 L 7.59375 -0.238281 C 7.59375 -0.03125 7.527344 0.140625 7.394531 0.269531 C 7.265625 0.402344 7.09375 0.46875 6.886719 0.46875 L 5.707031 0.46875 C 5.546875 0.46875 5.402344 0.421875 5.277344 0.328125 C 5.164062 0.25 5.078125 0.140625 5.015625 0 L 5.4375 -0.195312 L 5.019531 0.0117188 L 2.210938 -5.695312 L 2.628906 -5.902344 L 3.097656 -5.902344 L 3.097656 -0.238281 C 3.097656 -0.03125 3.03125 0.140625 2.898438 0.269531 C 2.769531 0.402344 2.597656 0.46875 2.390625 0.46875 L 0.984375 0.46875 C 0.777344 0.46875 0.609375 0.402344 0.476562 0.269531 C 0.34375 0.140625 0.28125 -0.03125 0.28125 -0.238281 L 0.28125 -10.21875 C 0.28125 -10.425781 0.34375 -10.597656 0.476562 -10.726562 C 0.609375 -10.859375 0.777344 -10.925781 0.984375 -10.925781 L 2.167969 -10.925781 C 2.328125 -10.925781 2.46875 -10.878906 2.597656 -10.785156 C 2.707031 -10.707031 2.792969 -10.597656 2.859375 -10.457031 L 2.433594 -10.261719 L 2.855469 -10.46875 L 5.664062 -4.761719 L 5.242188 -4.554688 L 4.777344 -4.554688 L 4.777344 -10.21875 C 4.777344 -10.425781 4.84375 -10.597656 4.972656 -10.726562 C 5.105469 -10.859375 5.273438 -10.925781 5.484375 -10.925781 Z M 5.484375 -9.988281 C 5.492188 -9.988281 5.507812 -9.992188 5.527344 -10 C 5.566406 -10.011719 5.601562 -10.035156 5.632812 -10.066406 C 5.664062 -10.097656 5.6875 -10.136719 5.703125 -10.175781 C 5.707031 -10.191406 5.710938 -10.207031 5.710938 -10.21875 L 5.710938 -4.554688 L 4.824219 -4.351562 L 2.011719 -10.0625 L 2.011719 -10.066406 C 2.015625 -10.058594 2.027344 -10.046875 2.050781 -10.03125 C 2.085938 -10.003906 2.125 -9.988281 2.167969 -9.988281 L 0.984375 -9.988281 C 0.996094 -9.988281 1.011719 -9.992188 1.027344 -10 C 1.070312 -10.011719 1.105469 -10.035156 1.136719 -10.066406 C 1.167969 -10.097656 1.191406 -10.136719 1.203125 -10.175781 C 1.210938 -10.191406 1.214844 -10.207031 1.214844 -10.21875 L 1.214844 -0.238281 C 1.214844 -0.25 1.210938 -0.265625 1.203125 -0.28125 C 1.191406 -0.320312 1.167969 -0.359375 1.136719 -0.390625 C 1.105469 -0.421875 1.070312 -0.445312 1.027344 -0.457031 C 1.011719 -0.464844 0.996094 -0.46875 0.984375 -0.46875 L 2.390625 -0.46875 C 2.378906 -0.46875 2.363281 -0.464844 2.347656 -0.457031 C 2.308594 -0.445312 2.269531 -0.421875 2.238281 -0.390625 C 2.207031 -0.359375 2.183594 -0.320312 2.171875 -0.28125 C 2.164062 -0.265625 2.164062 -0.25 2.164062 -0.238281 L 2.164062 -5.902344 L 3.046875 -6.105469 L 5.859375 -0.394531 L 5.863281 -0.390625 C 5.855469 -0.398438 5.84375 -0.410156 5.824219 -0.425781 C 5.785156 -0.453125 5.746094 -0.46875 5.707031 -0.46875 L 6.886719 -0.46875 C 6.875 -0.46875 6.863281 -0.464844 6.84375 -0.457031 C 6.804688 -0.445312 6.769531 -0.421875 6.734375 -0.390625 C 6.703125 -0.359375 6.679688 -0.320312 6.667969 -0.28125 C 6.660156 -0.265625 6.660156 -0.25 6.660156 -0.238281 L 6.660156 -10.21875 C 6.660156 -10.207031 6.660156 -10.191406 6.667969 -10.175781 C 6.679688 -10.136719 6.703125 -10.097656 6.734375 -10.066406 C 6.769531 -10.035156 6.804688 -10.011719 6.84375 -10 C 6.863281 -9.992188 6.875 -9.988281 6.886719 -9.988281 Z M 5.484375 -9.988281 "/></g></g><g style="fill:#b21a22;fill-opacity:1;"><g transform="translate(60.490732, 74.696238)"><path style="stroke:none" d="M 7.175781 -10.21875 L 7.175781 -8.722656 C 7.175781 -8.515625 7.113281 -8.347656 6.988281 -8.214844 C 6.855469 -8.074219 6.683594 -8.003906 6.46875 -8.003906 L 2.777344 -8.003906 L 2.777344 -8.46875 L 3.246094 -8.46875 L 3.246094 -6.167969 L 2.777344 -6.167969 L 2.777344 -6.636719 L 5.585938 -6.636719 C 5.800781 -6.636719 5.972656 -6.566406 6.105469 -6.425781 C 6.230469 -6.292969 6.292969 -6.125 6.292969 -5.914062 L 6.292969 -4.4375 C 6.292969 -4.230469 6.230469 -4.058594 6.105469 -3.925781 C 5.972656 -3.785156 5.800781 -3.714844 5.585938 -3.714844 L 2.777344 -3.714844 L 2.777344 -4.183594 L 3.246094 -4.183594 L 3.246094 -1.972656 L 2.777344 -1.972656 L 2.777344 -2.4375 L 6.46875 -2.4375 C 6.675781 -2.4375 6.847656 -2.375 6.976562 -2.242188 C 7.109375 -2.109375 7.175781 -1.941406 7.175781 -1.734375 L 7.175781 -0.238281 C 7.175781 -0.03125 7.109375 0.140625 6.976562 0.269531 C 6.847656 0.402344 6.675781 0.46875 6.46875 0.46875 L 0.972656 0.46875 C 0.761719 0.46875 0.59375 0.398438 0.460938 0.257812 C 0.339844 0.128906 0.28125 -0.0351562 0.28125 -0.238281 L 0.28125 -10.21875 C 0.28125 -10.421875 0.339844 -10.585938 0.460938 -10.714844 C 0.59375 -10.855469 0.761719 -10.925781 0.972656 -10.925781 L 6.46875 -10.925781 C 6.675781 -10.925781 6.847656 -10.859375 6.976562 -10.726562 C 7.109375 -10.597656 7.175781 -10.425781 7.175781 -10.21875 Z M 6.242188 -10.21875 C 6.242188 -10.207031 6.242188 -10.191406 6.25 -10.175781 C 6.261719 -10.136719 6.285156 -10.097656 6.316406 -10.066406 C 6.347656 -10.035156 6.386719 -10.011719 6.425781 -10 C 6.441406 -9.992188 6.457031 -9.988281 6.46875 -9.988281 L 0.972656 -9.988281 C 1.03125 -9.988281 1.089844 -10.019531 1.144531 -10.078125 C 1.171875 -10.109375 1.195312 -10.144531 1.207031 -10.183594 C 1.210938 -10.199219 1.214844 -10.210938 1.214844 -10.21875 L 1.214844 -0.238281 C 1.214844 -0.246094 1.210938 -0.257812 1.207031 -0.273438 C 1.195312 -0.3125 1.171875 -0.347656 1.144531 -0.378906 C 1.089844 -0.4375 1.03125 -0.46875 0.972656 -0.46875 L 6.46875 -0.46875 C 6.457031 -0.46875 6.441406 -0.464844 6.425781 -0.457031 C 6.386719 -0.445312 6.347656 -0.421875 6.316406 -0.390625 C 6.285156 -0.359375 6.261719 -0.320312 6.25 -0.28125 C 6.242188 -0.265625 6.242188 -0.25 6.242188 -0.238281 L 6.242188 -1.734375 C 6.242188 -1.722656 6.242188 -1.707031 6.25 -1.691406 C 6.261719 -1.648438 6.285156 -1.613281 6.316406 -1.582031 C 6.347656 -1.550781 6.386719 -1.527344 6.425781 -1.515625 C 6.441406 -1.507812 6.457031 -1.503906 6.46875 -1.503906 L 2.3125 -1.503906 L 2.3125 -4.648438 L 5.585938 -4.648438 C 5.574219 -4.648438 5.554688 -4.644531 5.535156 -4.640625 C 5.496094 -4.625 5.457031 -4.601562 5.425781 -4.566406 C 5.398438 -4.535156 5.378906 -4.5 5.367188 -4.464844 C 5.359375 -4.453125 5.359375 -4.441406 5.359375 -4.4375 L 5.359375 -5.914062 C 5.359375 -5.910156 5.359375 -5.902344 5.367188 -5.886719 C 5.378906 -5.851562 5.398438 -5.816406 5.425781 -5.785156 C 5.457031 -5.753906 5.496094 -5.726562 5.535156 -5.714844 C 5.554688 -5.707031 5.574219 -5.703125 5.585938 -5.703125 L 2.3125 -5.703125 L 2.3125 -8.9375 L 6.46875 -8.9375 C 6.453125 -8.9375 6.4375 -8.933594 6.417969 -8.925781 C 6.375 -8.910156 6.339844 -8.886719 6.308594 -8.855469 C 6.277344 -8.824219 6.257812 -8.789062 6.246094 -8.753906 C 6.242188 -8.738281 6.242188 -8.730469 6.242188 -8.722656 Z M 6.242188 -10.21875 "/></g></g><g style="fill:#b21a22;fill-opacity:1;"><g transform="translate(67.942701, 74.696238)"><path style="stroke:none" d="M 7.1875 -8.304688 L 7.1875 -5.304688 C 7.1875 -4.265625 6.835938 -3.523438 6.132812 -3.085938 L 5.886719 -3.480469 L 6.339844 -3.589844 L 7.117188 -0.378906 L 6.664062 -0.269531 L 7.113281 -0.394531 C 7.179688 -0.152344 7.148438 0.0507812 7.015625 0.21875 C 6.886719 0.382812 6.699219 0.46875 6.453125 0.46875 L 4.988281 0.46875 C 4.808594 0.46875 4.652344 0.414062 4.523438 0.308594 C 4.398438 0.203125 4.316406 0.0664062 4.277344 -0.109375 L 4.734375 -0.210938 L 4.28125 -0.0976562 L 3.566406 -3.042969 L 4.019531 -3.152344 L 4.019531 -2.683594 L 2.6875 -2.683594 L 2.6875 -3.152344 L 3.15625 -3.152344 L 3.15625 -0.238281 C 3.15625 -0.03125 3.089844 0.140625 2.960938 0.269531 C 2.828125 0.402344 2.660156 0.46875 2.449219 0.46875 L 0.984375 0.46875 C 0.777344 0.46875 0.609375 0.402344 0.476562 0.269531 C 0.34375 0.140625 0.28125 -0.03125 0.28125 -0.238281 L 0.28125 -10.21875 C 0.28125 -10.425781 0.34375 -10.597656 0.476562 -10.726562 C 0.609375 -10.859375 0.777344 -10.925781 0.984375 -10.925781 L 4.570312 -10.925781 C 5.40625 -10.925781 6.050781 -10.695312 6.507812 -10.242188 C 6.960938 -9.789062 7.1875 -9.140625 7.1875 -8.304688 Z M 6.253906 -8.304688 C 6.253906 -8.882812 6.121094 -9.308594 5.847656 -9.582031 C 5.574219 -9.855469 5.148438 -9.988281 4.570312 -9.988281 L 0.984375 -9.988281 C 0.996094 -9.988281 1.011719 -9.992188 1.027344 -10 C 1.070312 -10.011719 1.105469 -10.035156 1.136719 -10.066406 C 1.167969 -10.097656 1.191406 -10.136719 1.203125 -10.175781 C 1.210938 -10.191406 1.214844 -10.207031 1.214844 -10.21875 L 1.214844 -0.238281 C 1.214844 -0.25 1.210938 -0.265625 1.203125 -0.28125 C 1.191406 -0.320312 1.167969 -0.359375 1.136719 -0.390625 C 1.105469 -0.421875 1.070312 -0.445312 1.027344 -0.457031 C 1.011719 -0.464844 0.996094 -0.46875 0.984375 -0.46875 L 2.449219 -0.46875 C 2.4375 -0.46875 2.425781 -0.464844 2.40625 -0.457031 C 2.367188 -0.445312 2.332031 -0.421875 2.300781 -0.390625 C 2.265625 -0.359375 2.246094 -0.320312 2.230469 -0.28125 C 2.226562 -0.265625 2.222656 -0.25 2.222656 -0.238281 L 2.222656 -3.617188 L 4.386719 -3.617188 L 5.191406 -0.3125 L 5.191406 -0.308594 C 5.183594 -0.34375 5.160156 -0.378906 5.117188 -0.414062 C 5.074219 -0.449219 5.03125 -0.46875 4.988281 -0.46875 L 6.453125 -0.46875 L 6.453125 -0.464844 C 6.445312 -0.464844 6.433594 -0.460938 6.421875 -0.457031 C 6.367188 -0.4375 6.316406 -0.402344 6.277344 -0.355469 C 6.238281 -0.300781 6.214844 -0.246094 6.210938 -0.1875 C 6.210938 -0.164062 6.210938 -0.152344 6.210938 -0.144531 L 6.210938 -0.152344 L 5.351562 -3.699219 L 5.636719 -3.875 C 6.050781 -4.132812 6.253906 -4.609375 6.253906 -5.304688 Z M 2.6875 -5.546875 L 4.183594 -5.546875 C 4.230469 -5.546875 4.269531 -5.550781 4.296875 -5.558594 C 4.300781 -5.5625 4.304688 -5.5625 4.308594 -5.5625 C 4.304688 -5.5625 4.304688 -5.5625 4.300781 -5.558594 C 4.296875 -5.554688 4.296875 -5.554688 4.296875 -5.550781 C 4.296875 -5.554688 4.296875 -5.558594 4.300781 -5.5625 C 4.308594 -5.589844 4.3125 -5.628906 4.3125 -5.675781 L 4.3125 -7.933594 C 4.3125 -7.980469 4.308594 -8.019531 4.300781 -8.046875 C 4.296875 -8.050781 4.296875 -8.054688 4.296875 -8.054688 C 4.296875 -8.054688 4.296875 -8.050781 4.300781 -8.050781 C 4.304688 -8.046875 4.304688 -8.046875 4.308594 -8.046875 C 4.304688 -8.046875 4.300781 -8.046875 4.296875 -8.050781 C 4.269531 -8.058594 4.230469 -8.0625 4.183594 -8.0625 L 2.6875 -8.0625 L 2.6875 -8.53125 L 3.15625 -8.53125 L 3.15625 -5.078125 L 2.6875 -5.078125 Z M 2.222656 -4.613281 L 2.222656 -8.996094 L 4.183594 -8.996094 C 4.511719 -8.996094 4.769531 -8.902344 4.960938 -8.710938 C 5.152344 -8.519531 5.246094 -8.261719 5.246094 -7.933594 L 5.246094 -5.675781 C 5.246094 -5.347656 5.152344 -5.089844 4.960938 -4.898438 C 4.769531 -4.707031 4.511719 -4.613281 4.183594 -4.613281 Z M 2.222656 -4.613281 "/></g></g><g style="fill:#060705;fill-opacity:1;"><g transform="translate(15.262546, 33.042536)"><path style="stroke:none" d="M 6.734375 -8.3125 L 6.734375 -6.6875 C 6.734375 -6.53125 6.65625 -6.453125 6.5 -6.453125 L 5.09375 -6.453125 C 4.9375 -6.453125 4.859375 -6.53125 4.859375 -6.6875 L 4.859375 -7.921875 C 4.859375 -8.316406 4.65625 -8.515625 4.25 -8.515625 L 3.296875 -8.515625 C 2.898438 -8.515625 2.703125 -8.316406 2.703125 -7.921875 L 2.703125 -2.5 C 2.703125 -2.09375 2.898438 -1.890625 3.296875 -1.890625 L 4.25 -1.890625 C 4.65625 -1.890625 4.859375 -2.09375 4.859375 -2.5 L 4.859375 -3.765625 C 4.859375 -3.921875 4.9375 -4 5.09375 -4 L 6.5 -4 C 6.65625 -4 6.734375 -3.921875 6.734375 -3.765625 L 6.734375 -2.15625 C 6.734375 -1.457031 6.546875 -0.921875 6.171875 -0.546875 C 5.804688 -0.179688 5.273438 0 4.578125 0 L 2.90625 0 C 2.207031 0 1.671875 -0.179688 1.296875 -0.546875 C 0.929688 -0.921875 0.75 -1.457031 0.75 -2.15625 L 0.75 -8.3125 C 0.75 -9.007812 0.929688 -9.539062 1.296875 -9.90625 C 1.671875 -10.269531 2.207031 -10.453125 2.90625 -10.453125 L 4.578125 -10.453125 C 5.273438 -10.453125 5.804688 -10.269531 6.171875 -9.90625 C 6.546875 -9.539062 6.734375 -9.007812 6.734375 -8.3125 Z M 6.734375 -8.3125 "/></g></g><g style="fill:#060705;fill-opacity:1;"><g transform="translate(22.744388, 33.042536)"><path style="stroke:none" d="M 6.703125 -10.21875 L 6.703125 -8.71875 C 6.703125 -8.550781 6.625 -8.46875 6.46875 -8.46875 L 2.78125 -8.46875 L 2.78125 -6.171875 L 5.59375 -6.171875 C 5.75 -6.171875 5.828125 -6.085938 5.828125 -5.921875 L 5.828125 -4.4375 C 5.828125 -4.269531 5.75 -4.1875 5.59375 -4.1875 L 2.78125 -4.1875 L 2.78125 -1.96875 L 6.46875 -1.96875 C 6.625 -1.96875 6.703125 -1.890625 6.703125 -1.734375 L 6.703125 -0.234375 C 6.703125 -0.078125 6.625 0 6.46875 0 L 0.96875 0 C 0.820312 0 0.75 -0.078125 0.75 -0.234375 L 0.75 -10.21875 C 0.75 -10.375 0.820312 -10.453125 0.96875 -10.453125 L 6.46875 -10.453125 C 6.625 -10.453125 6.703125 -10.375 6.703125 -10.21875 Z M 6.703125 -10.21875 "/></g></g><g style="fill:#060705;fill-opacity:1;"><g transform="translate(30.196356, 33.042536)"><path style="stroke:none" d="M 2.78125 -1.96875 L 2.78125 -10.21875 C 2.78125 -10.375 2.703125 -10.453125 2.546875 -10.453125 L 0.984375 -10.453125 C 0.828125 -10.453125 0.75 -10.375 0.75 -10.21875 L 0.75 -0.234375 C 0.75 -0.078125 0.828125 0 0.984375 0 L 5.734375 0 C 5.890625 0 5.96875 -0.078125 5.96875 -0.234375 L 5.96875 -1.734375 C 5.96875 -1.890625 5.890625 -1.96875 5.734375 -1.96875 Z M 2.78125 -1.96875 "/></g></g><g style="fill:#060705;fill-opacity:1;"><g transform="translate(36.91657, 33.042536)"><path style="stroke:none" d="M 2.78125 -1.96875 L 2.78125 -10.21875 C 2.78125 -10.375 2.703125 -10.453125 2.546875 -10.453125 L 0.984375 -10.453125 C 0.828125 -10.453125 0.75 -10.375 0.75 -10.21875 L 0.75 -0.234375 C 0.75 -0.078125 0.828125 0 0.984375 0 L 5.734375 0 C 5.890625 0 5.96875 -0.078125 5.96875 -0.234375 L 5.96875 -1.734375 C 5.96875 -1.890625 5.890625 -1.96875 5.734375 -1.96875 Z M 2.78125 -1.96875 "/></g></g><g style="fill:#060705;fill-opacity:1;"><g transform="translate(43.636784, 33.042536)"><path style="stroke:none" d="M 5.046875 -10.453125 L 6.421875 -10.453125 C 6.503906 -10.453125 6.570312 -10.421875 6.625 -10.359375 C 6.6875 -10.304688 6.71875 -10.238281 6.71875 -10.15625 L 6.71875 -2.15625 C 6.71875 -1.457031 6.535156 -0.921875 6.171875 -0.546875 C 5.804688 -0.179688 5.273438 0 4.578125 0 L 2.890625 0 C 2.203125 0 1.671875 -0.179688 1.296875 -0.546875 C 0.929688 -0.921875 0.75 -1.457031 0.75 -2.15625 L 0.75 -10.15625 C 0.75 -10.238281 0.773438 -10.304688 0.828125 -10.359375 C 0.890625 -10.421875 0.960938 -10.453125 1.046875 -10.453125 L 2.484375 -10.453125 C 2.554688 -10.453125 2.625 -10.421875 2.6875 -10.359375 C 2.75 -10.304688 2.78125 -10.238281 2.78125 -10.15625 L 2.78125 -2.5625 C 2.78125 -2.164062 2.976562 -1.96875 3.375 -1.96875 L 4.15625 -1.96875 C 4.550781 -1.96875 4.75 -2.164062 4.75 -2.5625 L 4.75 -10.15625 C 4.75 -10.238281 4.773438 -10.304688 4.828125 -10.359375 C 4.890625 -10.421875 4.960938 -10.453125 5.046875 -10.453125 Z M 5.046875 -10.453125 "/></g></g><g style="fill:#060705;fill-opacity:1;"><g transform="translate(51.103689, 33.042536)"><path style="stroke:none" d="M 2.78125 -1.96875 L 2.78125 -10.21875 C 2.78125 -10.375 2.703125 -10.453125 2.546875 -10.453125 L 0.984375 -10.453125 C 0.828125 -10.453125 0.75 -10.375 0.75 -10.21875 L 0.75 -0.234375 C 0.75 -0.078125 0.828125 0 0.984375 0 L 5.734375 0 C 5.890625 0 5.96875 -0.078125 5.96875 -0.234375 L 5.96875 -1.734375 C 5.96875 -1.890625 5.890625 -1.96875 5.734375 -1.96875 Z M 2.78125 -1.96875 "/></g></g><g style="fill:#060705;fill-opacity:1;"><g transform="translate(57.823903, 33.042536)"><path style="stroke:none" d="M 0.75 -2.15625 L 0.75 -8.3125 C 0.75 -9.007812 0.929688 -9.539062 1.296875 -9.90625 C 1.671875 -10.269531 2.203125 -10.453125 2.890625 -10.453125 L 4.578125 -10.453125 C 5.273438 -10.453125 5.804688 -10.269531 6.171875 -9.90625 C 6.535156 -9.539062 6.71875 -9.007812 6.71875 -8.3125 L 6.71875 -2.15625 C 6.71875 -1.457031 6.535156 -0.921875 6.171875 -0.546875 C 5.804688 -0.179688 5.273438 0 4.578125 0 L 2.890625 0 C 2.203125 0 1.671875 -0.179688 1.296875 -0.546875 C 0.929688 -0.921875 0.75 -1.457031 0.75 -2.15625 Z M 3.28125 -1.921875 L 4.25 -1.921875 C 4.644531 -1.921875 4.84375 -2.125 4.84375 -2.53125 L 4.84375 -7.9375 C 4.84375 -8.332031 4.644531 -8.53125 4.25 -8.53125 L 3.28125 -8.53125 C 2.882812 -8.53125 2.6875 -8.332031 2.6875 -7.9375 L 2.6875 -2.53125 C 2.6875 -2.125 2.882812 -1.921875 3.28125 -1.921875 Z M 3.28125 -1.921875 "/></g></g><g style="fill:#060705;fill-opacity:1;"><g transform="translate(65.290808, 33.042536)"><path style="stroke:none" d="M 0.984375 0 L 2.546875 0 C 2.703125 0 2.78125 -0.078125 2.78125 -0.234375 L 2.78125 -10.21875 C 2.78125 -10.375 2.703125 -10.453125 2.546875 -10.453125 L 0.984375 -10.453125 C 0.828125 -10.453125 0.75 -10.375 0.75 -10.21875 L 0.75 -0.234375 C 0.75 -0.078125 0.828125 0 0.984375 0 Z M 0.984375 0 "/></g></g><g style="fill:#060705;fill-opacity:1;"><g transform="translate(68.815185, 33.042536)"><path style="stroke:none" d="M 0.75 -0.234375 L 0.75 -10.21875 C 0.75 -10.375 0.828125 -10.453125 0.984375 -10.453125 L 4.578125 -10.453125 C 5.273438 -10.453125 5.804688 -10.265625 6.171875 -9.890625 C 6.535156 -9.523438 6.71875 -8.992188 6.71875 -8.296875 L 6.71875 -2.15625 C 6.71875 -1.457031 6.535156 -0.921875 6.171875 -0.546875 C 5.804688 -0.179688 5.273438 0 4.578125 0 L 0.984375 0 C 0.828125 0 0.75 -0.078125 0.75 -0.234375 Z M 2.78125 -1.96875 L 4.15625 -1.96875 C 4.550781 -1.96875 4.75 -2.164062 4.75 -2.5625 L 4.75 -7.875 C 4.75 -8.28125 4.550781 -8.484375 4.15625 -8.484375 L 2.78125 -8.484375 Z M 2.78125 -1.96875 "/></g></g><g style="fill:#060705;fill-opacity:1;"><g transform="translate(76.28209, 33.042536)"><path style="stroke:none" d="M 0.75 -4.6875 L 0.75 -6.0625 C 0.75 -6.257812 0.847656 -6.359375 1.046875 -6.359375 L 3.40625 -6.359375 C 3.601562 -6.359375 3.703125 -6.257812 3.703125 -6.0625 L 3.703125 -4.6875 C 3.703125 -4.488281 3.601562 -4.390625 3.40625 -4.390625 L 1.046875 -4.390625 C 0.847656 -4.390625 0.75 -4.488281 0.75 -4.6875 Z M 0.75 -4.6875 "/></g></g><g style="fill:#060705;fill-opacity:1;"><g transform="translate(30.586848, 53.869387)"><path style="stroke:none" d="M 0.984375 0 L 2.546875 0 C 2.703125 0 2.78125 -0.078125 2.78125 -0.234375 L 2.78125 -10.21875 C 2.78125 -10.375 2.703125 -10.453125 2.546875 -10.453125 L 0.984375 -10.453125 C 0.828125 -10.453125 0.75 -10.375 0.75 -10.21875 L 0.75 -0.234375 C 0.75 -0.078125 0.828125 0 0.984375 0 Z M 0.984375 0 "/></g></g><g style="fill:#060705;fill-opacity:1;"><g transform="translate(34.111225, 53.869387)"><path style="stroke:none" d="M 0.75 -2.15625 L 0.75 -8.3125 C 0.75 -9.007812 0.929688 -9.539062 1.296875 -9.90625 C 1.671875 -10.269531 2.203125 -10.453125 2.890625 -10.453125 L 4.578125 -10.453125 C 5.273438 -10.453125 5.804688 -10.269531 6.171875 -9.90625 C 6.535156 -9.539062 6.71875 -9.007812 6.71875 -8.3125 L 6.71875 -2.15625 C 6.71875 -1.457031 6.535156 -0.921875 6.171875 -0.546875 C 5.804688 -0.179688 5.273438 0 4.578125 0 L 2.890625 0 C 2.203125 0 1.671875 -0.179688 1.296875 -0.546875 C 0.929688 -0.921875 0.75 -1.457031 0.75 -2.15625 Z M 3.28125 -1.921875 L 4.25 -1.921875 C 4.644531 -1.921875 4.84375 -2.125 4.84375 -2.53125 L 4.84375 -7.9375 C 4.84375 -8.332031 4.644531 -8.53125 4.25 -8.53125 L 3.28125 -8.53125 C 2.882812 -8.53125 2.6875 -8.332031 2.6875 -7.9375 L 2.6875 -2.53125 C 2.6875 -2.125 2.882812 -1.921875 3.28125 -1.921875 Z M 3.28125 -1.921875 "/></g></g><g style="fill:#060705;fill-opacity:1;"><g transform="translate(41.57813, 53.869387)"><path style="stroke:none" d="M 0.75 -4.6875 L 0.75 -6.0625 C 0.75 -6.257812 0.847656 -6.359375 1.046875 -6.359375 L 3.40625 -6.359375 C 3.601562 -6.359375 3.703125 -6.257812 3.703125 -6.0625 L 3.703125 -4.6875 C 3.703125 -4.488281 3.601562 -4.390625 3.40625 -4.390625 L 1.046875 -4.390625 C 0.847656 -4.390625 0.75 -4.488281 0.75 -4.6875 Z M 0.75 -4.6875 "/></g></g><g style="fill:#060705;fill-opacity:1;"><g transform="translate(46.028404, 53.869387)"><path style="stroke:none" d="M 0.75 -0.234375 L 0.75 -10.21875 C 0.75 -10.375 0.828125 -10.453125 0.984375 -10.453125 L 4.578125 -10.453125 C 5.273438 -10.453125 5.804688 -10.269531 6.171875 -9.90625 C 6.535156 -9.539062 6.71875 -9.007812 6.71875 -8.3125 L 6.71875 -5.375 C 6.71875 -4.675781 6.535156 -4.144531 6.171875 -3.78125 C 5.804688 -3.414062 5.273438 -3.226562 4.578125 -3.21875 L 2.6875 -3.21875 L 2.6875 -0.21875 C 2.6875 -0.0625 2.609375 0.015625 2.453125 0.015625 L 0.984375 0 C 0.828125 0 0.75 -0.078125 0.75 -0.234375 Z M 2.6875 -5.140625 L 4.1875 -5.15625 C 4.582031 -5.15625 4.78125 -5.351562 4.78125 -5.75 L 4.78125 -7.9375 C 4.78125 -8.332031 4.582031 -8.53125 4.1875 -8.53125 L 2.6875 -8.515625 Z M 2.6875 -5.140625 "/></g></g><g style="fill:#060705;fill-opacity:1;"><g transform="translate(53.495309, 53.869387)"><path style="stroke:none" d="M 0.75 -2.15625 L 0.75 -8.3125 C 0.75 -9.007812 0.929688 -9.539062 1.296875 -9.90625 C 1.671875 -10.269531 2.203125 -10.453125 2.890625 -10.453125 L 4.578125 -10.453125 C 5.265625 -10.453125 5.789062 -10.269531 6.15625 -9.90625 C 6.53125 -9.539062 6.71875 -9.007812 6.71875 -8.3125 L 6.71875 -7.203125 C 6.71875 -7.035156 6.640625 -6.953125 6.484375 -6.953125 L 5.078125 -6.953125 C 4.921875 -6.953125 4.84375 -7.035156 4.84375 -7.203125 L 4.84375 -7.9375 C 4.84375 -8.332031 4.644531 -8.53125 4.25 -8.53125 L 3.28125 -8.53125 C 2.882812 -8.53125 2.6875 -8.332031 2.6875 -7.9375 L 2.6875 -2.53125 C 2.6875 -2.125 2.882812 -1.921875 3.28125 -1.921875 L 4.25 -1.921875 C 4.644531 -1.921875 4.84375 -2.125 4.84375 -2.53125 L 4.84375 -3.828125 L 4.0625 -3.828125 C 3.90625 -3.828125 3.828125 -3.90625 3.828125 -4.0625 L 3.828125 -5.5625 C 3.828125 -5.71875 3.90625 -5.796875 4.0625 -5.796875 L 6.484375 -5.796875 C 6.640625 -5.796875 6.71875 -5.71875 6.71875 -5.5625 L 6.71875 -2.15625 C 6.71875 -1.457031 6.53125 -0.921875 6.15625 -0.546875 C 5.789062 -0.179688 5.265625 0 4.578125 0 L 2.890625 0 C 2.203125 0 1.671875 -0.179688 1.296875 -0.546875 C 0.929688 -0.921875 0.75 -1.457031 0.75 -2.15625 Z M 0.75 -2.15625 "/></g></g><g style="fill:#060705;fill-opacity:1;"><g transform="translate(60.962214, 53.869387)"><path style="stroke:none" d="M 0.75 -4.6875 L 0.75 -6.0625 C 0.75 -6.257812 0.847656 -6.359375 1.046875 -6.359375 L 3.40625 -6.359375 C 3.601562 -6.359375 3.703125 -6.257812 3.703125 -6.0625 L 3.703125 -4.6875 C 3.703125 -4.488281 3.601562 -4.390625 3.40625 -4.390625 L 1.046875 -4.390625 C 0.847656 -4.390625 0.75 -4.488281 0.75 -4.6875 Z M 0.75 -4.6875 "/></g></g><g style="fill:#060705;fill-opacity:1;"><g transform="translate(20.587593, 74.696238)"><path style="stroke:none" d="M 2.78125 -1.96875 L 2.78125 -10.21875 C 2.78125 -10.375 2.703125 -10.453125 2.546875 -10.453125 L 0.984375 -10.453125 C 0.828125 -10.453125 0.75 -10.375 0.75 -10.21875 L 0.75 -0.234375 C 0.75 -0.078125 0.828125 0 0.984375 0 L 5.734375 0 C 5.890625 0 5.96875 -0.078125 5.96875 -0.234375 L 5.96875 -1.734375 C 5.96875 -1.890625 5.890625 -1.96875 5.734375 -1.96875 Z M 2.78125 -1.96875 "/></g></g><g style="fill:#060705;fill-opacity:1;"><g transform="translate(27.307807, 74.696238)"><path style="stroke:none" d="M 0.984375 0 L 2.546875 0 C 2.703125 0 2.78125 -0.078125 2.78125 -0.234375 L 2.78125 -10.21875 C 2.78125 -10.375 2.703125 -10.453125 2.546875 -10.453125 L 0.984375 -10.453125 C 0.828125 -10.453125 0.75 -10.375 0.75 -10.21875 L 0.75 -0.234375 C 0.75 -0.078125 0.828125 0 0.984375 0 Z M 0.984375 0 "/></g></g><g style="fill:#060705;fill-opacity:1;"><g transform="translate(30.832184, 74.696238)"><path style="stroke:none" d="M 2.890625 -10.453125 L 4.578125 -10.453125 C 5.273438 -10.453125 5.804688 -10.269531 6.171875 -9.90625 C 6.535156 -9.539062 6.71875 -9.007812 6.71875 -8.3125 L 6.71875 -7.3125 C 6.71875 -7.15625 6.640625 -7.078125 6.484375 -7.078125 L 4.96875 -7.078125 C 4.8125 -7.078125 4.734375 -7.15625 4.734375 -7.3125 L 4.734375 -7.953125 C 4.734375 -8.347656 4.535156 -8.546875 4.140625 -8.546875 L 3.3125 -8.546875 C 2.914062 -8.546875 2.71875 -8.347656 2.71875 -7.953125 L 2.71875 -6.671875 L 6.328125 -5.515625 C 6.585938 -5.421875 6.71875 -5.234375 6.71875 -4.953125 L 6.71875 -2.15625 C 6.71875 -1.457031 6.535156 -0.921875 6.171875 -0.546875 C 5.804688 -0.179688 5.273438 0 4.578125 0 L 2.890625 0 C 2.203125 0 1.671875 -0.179688 1.296875 -0.546875 C 0.929688 -0.921875 0.75 -1.457031 0.75 -2.15625 L 0.75 -3.125 C 0.75 -3.28125 0.828125 -3.359375 0.984375 -3.359375 L 2.5 -3.359375 C 2.65625 -3.359375 2.734375 -3.28125 2.734375 -3.125 L 2.734375 -2.5 C 2.734375 -2.09375 2.929688 -1.890625 3.328125 -1.890625 L 4.140625 -1.890625 C 4.535156 -1.890625 4.734375 -2.09375 4.734375 -2.5 L 4.734375 -4 L 1.15625 -5.171875 C 0.882812 -5.253906 0.75 -5.4375 0.75 -5.71875 L 0.75 -8.3125 C 0.75 -9.007812 0.929688 -9.539062 1.296875 -9.90625 C 1.671875 -10.269531 2.203125 -10.453125 2.890625 -10.453125 Z M 2.890625 -10.453125 "/></g></g><g style="fill:#060705;fill-opacity:1;"><g transform="translate(38.299089, 74.696238)"><path style="stroke:none" d="M 6.1875 -10.453125 L 0.6875 -10.453125 C 0.53125 -10.453125 0.453125 -10.375 0.453125 -10.21875 L 0.453125 -8.71875 C 0.453125 -8.5625 0.53125 -8.484375 0.6875 -8.484375 L 2.421875 -8.484375 L 2.421875 -0.234375 C 2.421875 -0.078125 2.5 0 2.65625 0 L 4.21875 0 C 4.375 0 4.453125 -0.078125 4.453125 -0.234375 L 4.453125 -8.484375 L 6.1875 -8.484375 C 6.34375 -8.484375 6.421875 -8.5625 6.421875 -8.71875 L 6.421875 -10.21875 C 6.421875 -10.375 6.34375 -10.453125 6.1875 -10.453125 Z M 6.1875 -10.453125 "/></g></g><g style="fill:#060705;fill-opacity:1;"><g transform="translate(45.168643, 74.696238)"><path style="stroke:none" d="M 6.703125 -10.21875 L 6.703125 -8.71875 C 6.703125 -8.550781 6.625 -8.46875 6.46875 -8.46875 L 2.78125 -8.46875 L 2.78125 -6.171875 L 5.59375 -6.171875 C 5.75 -6.171875 5.828125 -6.085938 5.828125 -5.921875 L 5.828125 -4.4375 C 5.828125 -4.269531 5.75 -4.1875 5.59375 -4.1875 L 2.78125 -4.1875 L 2.78125 -1.96875 L 6.46875 -1.96875 C 6.625 -1.96875 6.703125 -1.890625 6.703125 -1.734375 L 6.703125 -0.234375 C 6.703125 -0.078125 6.625 0 6.46875 0 L 0.96875 0 C 0.820312 0 0.75 -0.078125 0.75 -0.234375 L 0.75 -10.21875 C 0.75 -10.375 0.820312 -10.453125 0.96875 -10.453125 L 6.46875 -10.453125 C 6.625 -10.453125 6.703125 -10.375 6.703125 -10.21875 Z M 6.703125 -10.21875 "/></g></g><g style="fill:#060705;fill-opacity:1;"><g transform="translate(52.620611, 74.696238)"><path style="stroke:none" d="M 5.484375 -10.453125 L 6.890625 -10.453125 C 7.046875 -10.453125 7.125 -10.375 7.125 -10.21875 L 7.125 -0.234375 C 7.125 -0.078125 7.046875 0 6.890625 0 L 5.703125 0 C 5.585938 0 5.5 -0.0625 5.4375 -0.1875 L 2.625 -5.90625 L 2.625 -0.234375 C 2.625 -0.078125 2.546875 0 2.390625 0 L 0.984375 0 C 0.828125 0 0.75 -0.078125 0.75 -0.234375 L 0.75 -10.21875 C 0.75 -10.375 0.828125 -10.453125 0.984375 -10.453125 L 2.171875 -10.453125 C 2.285156 -10.453125 2.375 -10.390625 2.4375 -10.265625 L 5.25 -4.5625 L 5.25 -10.21875 C 5.25 -10.375 5.328125 -10.453125 5.484375 -10.453125 Z M 5.484375 -10.453125 "/></g></g><g style="fill:#060705;fill-opacity:1;"><g transform="translate(60.490732, 74.696238)"><path style="stroke:none" d="M 6.703125 -10.21875 L 6.703125 -8.71875 C 6.703125 -8.550781 6.625 -8.46875 6.46875 -8.46875 L 2.78125 -8.46875 L 2.78125 -6.171875 L 5.59375 -6.171875 C 5.75 -6.171875 5.828125 -6.085938 5.828125 -5.921875 L 5.828125 -4.4375 C 5.828125 -4.269531 5.75 -4.1875 5.59375 -4.1875 L 2.78125 -4.1875 L 2.78125 -1.96875 L 6.46875 -1.96875 C 6.625 -1.96875 6.703125 -1.890625 6.703125 -1.734375 L 6.703125 -0.234375 C 6.703125 -0.078125 6.625 0 6.46875 0 L 0.96875 0 C 0.820312 0 0.75 -0.078125 0.75 -0.234375 L 0.75 -10.21875 C 0.75 -10.375 0.820312 -10.453125 0.96875 -10.453125 L 6.46875 -10.453125 C 6.625 -10.453125 6.703125 -10.375 6.703125 -10.21875 Z M 6.703125 -10.21875 "/></g></g><g style="fill:#060705;fill-opacity:1;"><g transform="translate(67.942701, 74.696238)"><path style="stroke:none" d="M 6.71875 -8.3125 L 6.71875 -5.296875 C 6.71875 -4.429688 6.441406 -3.828125 5.890625 -3.484375 L 6.65625 -0.265625 C 6.707031 -0.0859375 6.640625 0 6.453125 0 L 4.984375 0 C 4.847656 0 4.765625 -0.0664062 4.734375 -0.203125 L 4.015625 -3.15625 L 2.6875 -3.15625 L 2.6875 -0.234375 C 2.6875 -0.078125 2.609375 0 2.453125 0 L 0.984375 0 C 0.828125 0 0.75 -0.078125 0.75 -0.234375 L 0.75 -10.21875 C 0.75 -10.375 0.828125 -10.453125 0.984375 -10.453125 L 4.578125 -10.453125 C 5.273438 -10.453125 5.804688 -10.269531 6.171875 -9.90625 C 6.535156 -9.539062 6.71875 -9.007812 6.71875 -8.3125 Z M 2.6875 -5.078125 L 4.1875 -5.078125 C 4.582031 -5.078125 4.78125 -5.273438 4.78125 -5.671875 L 4.78125 -7.9375 C 4.78125 -8.332031 4.582031 -8.53125 4.1875 -8.53125 L 2.6875 -8.53125 Z M 2.6875 -5.078125 "/></g></g></g></svg>