<svg xmlns="http://www.w3.org/2000/svg" xmlns:xlink="http://www.w3.org/1999/xlink" width="128" zoomAndPan="magnify" viewBox="0 0 96 95.999999" height="128" preserveAspectRatio="xMidYMid meet" version="1.2"><defs><clipPath id="fd0b166d7b"><path d="M 6 0 L 90 0 L 90 96 L 6 96 Z M 6 0 "/></clipPath><clipPath id="de2913994c"><path d="M -14.304688 36.578125 L 68.691406 -11.898438 L 110.335938 59.402344 L 27.339844 107.878906 Z M -14.304688 36.578125 "/></clipPath><clipPath id="f5dded4904"><path d="M 89.484375 23.769531 L 89.5625 71.535156 L 48.082031 95.765625 L 6.515625 72.226562 L 6.4375 24.464844 L 47.921875 0.234375 Z M 89.484375 23.769531 "/></clipPath><clipPath id="33656506b1"><path d="M 14.140625 9.121094 L 81.851562 9.121094 L 81.851562 86.839844 L 14.140625 86.839844 Z M 14.140625 9.121094 "/></clipPath></defs><g id="a9ec2ea2ac"><g clip-rule="nonzero" clip-path="url(#fd0b166d7b)"><g clip-rule="nonzero" clip-path="url(#de2913994c)"><g clip-rule="nonzero" clip-path="url(#f5dded4904)"><path style=" stroke:none;fill-rule:nonzero;fill:#65b30e;fill-opacity:1;" d="M -14.304688 36.578125 L 68.691406 -11.898438 L 110.335938 59.402344 L 27.339844 107.878906 Z M -14.304688 36.578125 "/></g></g></g><path style=" stroke:none;fill-rule:nonzero;fill:#87ff00;fill-opacity:1;" d="M 34.453125 34.738281 L 34.410156 34.695312 L 24.839844 44.265625 L 48.074219 67.457031 L 57.644531 57.933594 L 71.308594 44.265625 L 61.738281 34.695312 L 61.738281 34.652344 L 34.410156 34.652344 Z M 34.453125 34.738281 "/><g clip-rule="nonzero" clip-path="url(#33656506b1)"><path style=" stroke:none;fill-rule:nonzero;fill:#87ff00;fill-opacity:1;" d="M 47.988281 9.179688 L 14.148438 28.574219 L 14.148438 67.371094 L 47.988281 86.769531 L 81.828125 67.371094 L 81.828125 28.574219 Z M 75.359375 63.664062 L 47.988281 79.4375 L 20.613281 63.664062 L 20.617188 32.195312 L 47.988281 16.417969 L 75.363281 32.195312 L 75.363281 63.664062 Z M 75.359375 63.664062 "/></g><g style="fill:#b21a22;fill-opacity:1;"><g transform="translate(18.482454, 31.099687)"><path style="stroke:none" d="M 3.273438 -12.34375 L 5.164062 -12.34375 C 6.109375 -12.34375 6.839844 -12.085938 7.351562 -11.570312 C 7.867188 -11.058594 8.121094 -10.328125 8.121094 -9.382812 L 8.121094 -8.269531 C 8.121094 -8.035156 8.050781 -7.84375 7.902344 -7.695312 C 7.753906 -7.546875 7.5625 -7.472656 7.324219 -7.472656 L 5.621094 -7.472656 C 5.386719 -7.472656 5.191406 -7.546875 5.046875 -7.695312 C 4.898438 -7.84375 4.824219 -8.035156 4.824219 -8.269531 L 4.824219 -8.980469 C 4.824219 -9.035156 4.816406 -9.078125 4.808594 -9.109375 C 4.804688 -9.113281 4.804688 -9.117188 4.804688 -9.121094 C 4.804688 -9.117188 4.804688 -9.117188 4.808594 -9.113281 C 4.8125 -9.109375 4.8125 -9.109375 4.816406 -9.109375 C 4.8125 -9.109375 4.808594 -9.109375 4.804688 -9.113281 C 4.773438 -9.121094 4.730469 -9.128906 4.675781 -9.128906 L 3.746094 -9.128906 C 3.691406 -9.128906 3.648438 -9.121094 3.617188 -9.113281 C 3.613281 -9.109375 3.609375 -9.109375 3.605469 -9.109375 C 3.609375 -9.109375 3.609375 -9.109375 3.613281 -9.113281 C 3.617188 -9.117188 3.617188 -9.117188 3.621094 -9.121094 C 3.617188 -9.117188 3.617188 -9.113281 3.613281 -9.109375 C 3.605469 -9.078125 3.597656 -9.035156 3.597656 -8.980469 L 3.597656 -7.542969 L 3.070312 -7.542969 L 3.234375 -8.046875 L 7.320312 -6.730469 C 7.578125 -6.640625 7.777344 -6.496094 7.917969 -6.300781 C 8.054688 -6.105469 8.121094 -5.871094 8.121094 -5.605469 L 8.121094 -2.429688 C 8.121094 -1.5 7.867188 -0.773438 7.355469 -0.253906 C 6.839844 0.265625 6.109375 0.527344 5.164062 0.527344 L 3.273438 0.527344 C 2.339844 0.527344 1.613281 0.269531 1.09375 -0.25 C 0.574219 -0.769531 0.316406 -1.496094 0.316406 -2.429688 L 0.316406 -3.527344 C 0.316406 -3.761719 0.390625 -3.957031 0.539062 -4.101562 C 0.6875 -4.25 0.878906 -4.324219 1.113281 -4.324219 L 2.820312 -4.324219 C 3.054688 -4.324219 3.246094 -4.25 3.394531 -4.101562 C 3.542969 -3.957031 3.617188 -3.761719 3.617188 -3.527344 L 3.617188 -2.820312 C 3.617188 -2.761719 3.621094 -2.71875 3.632812 -2.691406 C 3.632812 -2.683594 3.636719 -2.679688 3.636719 -2.679688 C 3.636719 -2.679688 3.632812 -2.683594 3.628906 -2.683594 C 3.628906 -2.6875 3.625 -2.691406 3.625 -2.691406 C 3.625 -2.691406 3.628906 -2.6875 3.636719 -2.6875 C 3.664062 -2.675781 3.707031 -2.671875 3.765625 -2.671875 L 4.675781 -2.671875 C 4.730469 -2.671875 4.773438 -2.675781 4.804688 -2.6875 C 4.808594 -2.6875 4.8125 -2.691406 4.816406 -2.691406 C 4.8125 -2.691406 4.8125 -2.6875 4.808594 -2.683594 C 4.804688 -2.683594 4.804688 -2.679688 4.804688 -2.679688 C 4.804688 -2.679688 4.804688 -2.683594 4.808594 -2.691406 C 4.816406 -2.71875 4.824219 -2.761719 4.824219 -2.820312 L 4.824219 -4.523438 L 5.351562 -4.523438 L 5.1875 -4.023438 L 1.136719 -5.339844 C 0.875 -5.425781 0.675781 -5.566406 0.53125 -5.761719 C 0.386719 -5.957031 0.316406 -6.191406 0.316406 -6.464844 L 0.316406 -9.382812 C 0.316406 -10.332031 0.578125 -11.0625 1.097656 -11.574219 C 1.617188 -12.085938 2.34375 -12.34375 3.273438 -12.34375 Z M 3.273438 -11.289062 C 2.632812 -11.289062 2.152344 -11.132812 1.839844 -10.824219 C 1.527344 -10.515625 1.371094 -10.035156 1.371094 -9.382812 L 1.371094 -6.464844 C 1.371094 -6.421875 1.375 -6.394531 1.382812 -6.382812 C 1.394531 -6.371094 1.421875 -6.355469 1.460938 -6.339844 L 5.878906 -4.90625 L 5.878906 -2.820312 C 5.878906 -2.449219 5.769531 -2.15625 5.554688 -1.9375 C 5.339844 -1.722656 5.046875 -1.617188 4.675781 -1.617188 L 3.765625 -1.617188 C 3.394531 -1.617188 3.101562 -1.722656 2.882812 -1.9375 C 2.667969 -2.15625 2.5625 -2.449219 2.5625 -2.820312 L 2.5625 -3.527344 C 2.5625 -3.515625 2.566406 -3.5 2.570312 -3.480469 C 2.585938 -3.433594 2.613281 -3.394531 2.648438 -3.355469 C 2.683594 -3.320312 2.726562 -3.296875 2.769531 -3.28125 C 2.789062 -3.273438 2.808594 -3.269531 2.820312 -3.269531 L 1.113281 -3.269531 C 1.125 -3.269531 1.140625 -3.273438 1.164062 -3.28125 C 1.207031 -3.296875 1.25 -3.320312 1.285156 -3.355469 C 1.320312 -3.394531 1.347656 -3.433594 1.359375 -3.480469 C 1.367188 -3.5 1.371094 -3.515625 1.371094 -3.527344 L 1.371094 -2.429688 C 1.371094 -1.789062 1.527344 -1.3125 1.839844 -0.996094 C 2.15625 -0.683594 2.632812 -0.527344 3.273438 -0.527344 L 5.164062 -0.527344 C 5.816406 -0.527344 6.296875 -0.683594 6.605469 -0.996094 C 6.914062 -1.308594 7.066406 -1.789062 7.066406 -2.429688 L 7.066406 -5.605469 C 7.066406 -5.648438 7.0625 -5.679688 7.054688 -5.691406 C 7.046875 -5.703125 7.027344 -5.714844 6.996094 -5.726562 L 2.542969 -7.160156 L 2.542969 -8.980469 C 2.542969 -9.351562 2.652344 -9.644531 2.867188 -9.859375 C 3.082031 -10.074219 3.375 -10.183594 3.746094 -10.183594 L 4.675781 -10.183594 C 5.046875 -10.183594 5.339844 -10.074219 5.554688 -9.859375 C 5.769531 -9.644531 5.878906 -9.351562 5.878906 -8.980469 L 5.878906 -8.269531 C 5.878906 -8.28125 5.875 -8.300781 5.867188 -8.320312 C 5.851562 -8.363281 5.828125 -8.40625 5.792969 -8.441406 C 5.753906 -8.476562 5.714844 -8.503906 5.667969 -8.519531 C 5.648438 -8.523438 5.632812 -8.527344 5.621094 -8.527344 L 7.324219 -8.527344 C 7.3125 -8.527344 7.296875 -8.523438 7.277344 -8.519531 C 7.230469 -8.503906 7.191406 -8.476562 7.15625 -8.441406 C 7.117188 -8.40625 7.09375 -8.363281 7.078125 -8.320312 C 7.070312 -8.300781 7.066406 -8.28125 7.066406 -8.269531 L 7.066406 -9.382812 C 7.066406 -10.039062 6.914062 -10.519531 6.605469 -10.824219 C 6.296875 -11.132812 5.816406 -11.289062 5.164062 -11.289062 Z M 3.273438 -11.289062 "/></g></g><g style="fill:#b21a22;fill-opacity:1;"><g transform="translate(26.919246, 31.099687)"><path style="stroke:none" d="M 1.113281 -0.527344 L 2.871094 -0.527344 C 2.855469 -0.527344 2.839844 -0.523438 2.820312 -0.515625 C 2.777344 -0.503906 2.734375 -0.476562 2.699219 -0.441406 C 2.664062 -0.40625 2.636719 -0.363281 2.621094 -0.320312 C 2.617188 -0.296875 2.613281 -0.28125 2.613281 -0.269531 L 2.613281 -11.546875 C 2.613281 -11.53125 2.617188 -11.515625 2.621094 -11.496094 C 2.636719 -11.453125 2.664062 -11.410156 2.699219 -11.375 C 2.734375 -11.339844 2.777344 -11.3125 2.820312 -11.296875 C 2.839844 -11.292969 2.855469 -11.289062 2.871094 -11.289062 L 1.113281 -11.289062 C 1.125 -11.289062 1.140625 -11.292969 1.164062 -11.296875 C 1.207031 -11.3125 1.25 -11.339844 1.285156 -11.375 C 1.320312 -11.410156 1.347656 -11.453125 1.359375 -11.496094 C 1.367188 -11.515625 1.371094 -11.53125 1.371094 -11.546875 L 1.371094 -0.269531 C 1.371094 -0.28125 1.367188 -0.296875 1.359375 -0.320312 C 1.347656 -0.363281 1.320312 -0.40625 1.285156 -0.441406 C 1.25 -0.476562 1.207031 -0.503906 1.164062 -0.515625 C 1.140625 -0.523438 1.125 -0.527344 1.113281 -0.527344 Z M 1.113281 0.527344 C 0.878906 0.527344 0.6875 0.453125 0.539062 0.304688 C 0.390625 0.15625 0.316406 -0.0351562 0.316406 -0.269531 L 0.316406 -11.546875 C 0.316406 -11.78125 0.390625 -11.972656 0.539062 -12.121094 C 0.6875 -12.269531 0.878906 -12.34375 1.113281 -12.34375 L 2.871094 -12.34375 C 3.105469 -12.34375 3.296875 -12.269531 3.445312 -12.121094 C 3.59375 -11.972656 3.667969 -11.78125 3.667969 -11.546875 L 3.667969 -0.269531 C 3.667969 -0.0351562 3.59375 0.15625 3.445312 0.304688 C 3.296875 0.453125 3.105469 0.527344 2.871094 0.527344 Z M 1.113281 0.527344 "/></g></g><g style="fill:#b21a22;fill-opacity:1;"><g transform="translate(30.90141, 31.099687)"><path style="stroke:none" d="M 7.898438 -12.34375 L 10.128906 -12.34375 C 10.386719 -12.34375 10.59375 -12.261719 10.753906 -12.105469 C 10.914062 -11.945312 10.992188 -11.734375 10.992188 -11.476562 L 10.992188 -0.335938 C 10.992188 -0.078125 10.914062 0.128906 10.753906 0.289062 C 10.59375 0.449219 10.386719 0.527344 10.128906 0.527344 L 8.558594 0.527344 C 8.300781 0.527344 8.089844 0.449219 7.929688 0.289062 C 7.773438 0.128906 7.691406 -0.078125 7.691406 -0.335938 L 7.691406 -6.972656 L 8.21875 -6.972656 L 8.21875 -6.445312 L 8.101562 -6.445312 L 8.101562 -6.972656 L 8.613281 -6.847656 L 7.023438 -0.152344 L 7.019531 -0.136719 C 6.960938 0.0664062 6.855469 0.226562 6.703125 0.34375 C 6.546875 0.46875 6.359375 0.527344 6.144531 0.527344 L 5.148438 0.527344 C 4.933594 0.527344 4.746094 0.46875 4.589844 0.34375 C 4.4375 0.226562 4.332031 0.0664062 4.269531 -0.136719 L 4.265625 -0.152344 L 2.675781 -6.847656 L 3.191406 -6.972656 L 3.191406 -6.445312 L 3.070312 -6.445312 L 3.070312 -6.972656 L 3.597656 -6.972656 L 3.597656 -0.335938 C 3.597656 -0.078125 3.519531 0.128906 3.359375 0.289062 C 3.203125 0.449219 2.992188 0.527344 2.734375 0.527344 L 1.179688 0.527344 C 0.921875 0.527344 0.714844 0.449219 0.554688 0.289062 C 0.394531 0.128906 0.316406 -0.078125 0.316406 -0.335938 L 0.316406 -11.476562 C 0.316406 -11.734375 0.394531 -11.945312 0.554688 -12.105469 C 0.714844 -12.261719 0.921875 -12.34375 1.179688 -12.34375 L 3.410156 -12.34375 C 3.625 -12.34375 3.8125 -12.28125 3.96875 -12.160156 C 4.121094 -12.042969 4.226562 -11.882812 4.285156 -11.675781 L 4.289062 -11.667969 L 6.167969 -4.128906 L 5.65625 -4 L 5.140625 -4.128906 L 7.019531 -11.667969 L 7.023438 -11.675781 C 7.082031 -11.882812 7.1875 -12.042969 7.339844 -12.160156 C 7.496094 -12.28125 7.683594 -12.34375 7.898438 -12.34375 Z M 7.898438 -11.289062 C 7.921875 -11.289062 7.953125 -11.300781 7.984375 -11.324219 C 8.003906 -11.339844 8.019531 -11.355469 8.03125 -11.375 C 8.03125 -11.378906 8.035156 -11.382812 8.035156 -11.382812 C 8.035156 -11.382812 8.035156 -11.382812 8.035156 -11.378906 L 7.527344 -11.527344 L 8.039062 -11.402344 L 6.167969 -3.871094 L 5.140625 -3.871094 L 3.269531 -11.402344 L 3.78125 -11.527344 L 3.273438 -11.378906 C 3.273438 -11.382812 3.273438 -11.382812 3.273438 -11.382812 C 3.273438 -11.382812 3.277344 -11.378906 3.277344 -11.375 C 3.289062 -11.355469 3.304688 -11.339844 3.324219 -11.324219 C 3.355469 -11.300781 3.386719 -11.289062 3.410156 -11.289062 L 1.179688 -11.289062 C 1.179688 -11.289062 1.175781 -11.289062 1.175781 -11.289062 C 1.183594 -11.289062 1.191406 -11.289062 1.199219 -11.292969 C 1.238281 -11.304688 1.269531 -11.328125 1.300781 -11.359375 C 1.332031 -11.386719 1.351562 -11.421875 1.367188 -11.457031 C 1.367188 -11.46875 1.371094 -11.476562 1.371094 -11.480469 C 1.371094 -11.484375 1.371094 -11.484375 1.371094 -11.484375 C 1.371094 -11.480469 1.371094 -11.480469 1.371094 -11.476562 L 1.371094 -0.335938 C 1.371094 -0.335938 1.371094 -0.332031 1.371094 -0.332031 C 1.371094 -0.339844 1.367188 -0.347656 1.367188 -0.355469 C 1.351562 -0.394531 1.332031 -0.425781 1.300781 -0.457031 C 1.269531 -0.488281 1.238281 -0.507812 1.199219 -0.523438 C 1.191406 -0.523438 1.183594 -0.527344 1.175781 -0.527344 C 1.175781 -0.527344 1.179688 -0.527344 1.179688 -0.527344 L 2.734375 -0.527344 C 2.738281 -0.527344 2.738281 -0.527344 2.738281 -0.527344 C 2.730469 -0.527344 2.722656 -0.523438 2.714844 -0.523438 C 2.679688 -0.507812 2.644531 -0.488281 2.613281 -0.457031 C 2.585938 -0.425781 2.5625 -0.394531 2.550781 -0.355469 C 2.546875 -0.347656 2.546875 -0.339844 2.542969 -0.332031 C 2.542969 -0.332031 2.542969 -0.335938 2.542969 -0.335938 L 2.542969 -7.5 L 3.605469 -7.5 L 5.289062 -0.410156 L 4.777344 -0.285156 L 5.28125 -0.4375 C 5.285156 -0.433594 5.285156 -0.429688 5.285156 -0.429688 C 5.28125 -0.433594 5.28125 -0.4375 5.277344 -0.441406 C 5.269531 -0.457031 5.253906 -0.476562 5.234375 -0.488281 C 5.203125 -0.515625 5.171875 -0.527344 5.148438 -0.527344 L 6.144531 -0.527344 C 6.121094 -0.527344 6.089844 -0.515625 6.058594 -0.488281 C 6.039062 -0.476562 6.023438 -0.457031 6.011719 -0.441406 C 6.011719 -0.4375 6.007812 -0.433594 6.007812 -0.429688 C 6.007812 -0.429688 6.007812 -0.433594 6.007812 -0.4375 L 6.515625 -0.285156 L 6.003906 -0.410156 L 7.683594 -7.5 L 8.746094 -7.5 L 8.746094 -0.335938 C 8.746094 -0.335938 8.746094 -0.332031 8.746094 -0.332031 C 8.746094 -0.339844 8.746094 -0.347656 8.742188 -0.355469 C 8.730469 -0.394531 8.707031 -0.425781 8.675781 -0.457031 C 8.648438 -0.488281 8.613281 -0.507812 8.578125 -0.523438 C 8.566406 -0.523438 8.558594 -0.527344 8.554688 -0.527344 C 8.550781 -0.527344 8.550781 -0.527344 8.550781 -0.527344 C 8.554688 -0.527344 8.554688 -0.527344 8.558594 -0.527344 L 10.128906 -0.527344 C 10.128906 -0.527344 10.132812 -0.527344 10.132812 -0.527344 C 10.125 -0.527344 10.117188 -0.523438 10.109375 -0.523438 C 10.070312 -0.507812 10.039062 -0.488281 10.007812 -0.457031 C 9.976562 -0.425781 9.957031 -0.394531 9.945312 -0.355469 C 9.941406 -0.347656 9.9375 -0.339844 9.9375 -0.332031 C 9.9375 -0.332031 9.9375 -0.335938 9.9375 -0.335938 L 9.9375 -11.476562 C 9.9375 -11.480469 9.9375 -11.480469 9.9375 -11.484375 C 9.9375 -11.484375 9.9375 -11.484375 9.9375 -11.480469 C 9.9375 -11.476562 9.941406 -11.46875 9.945312 -11.457031 C 9.957031 -11.421875 9.976562 -11.386719 10.007812 -11.359375 C 10.039062 -11.328125 10.070312 -11.304688 10.109375 -11.292969 C 10.117188 -11.289062 10.125 -11.289062 10.132812 -11.289062 C 10.132812 -11.289062 10.128906 -11.289062 10.128906 -11.289062 Z M 7.898438 -11.289062 "/></g></g><g style="fill:#b21a22;fill-opacity:1;"><g transform="translate(42.20671, 31.099687)"><path style="stroke:none" d="M 0.316406 -0.269531 L 0.316406 -11.546875 C 0.316406 -11.78125 0.390625 -11.972656 0.539062 -12.121094 C 0.6875 -12.269531 0.878906 -12.34375 1.113281 -12.34375 L 5.164062 -12.34375 C 6.109375 -12.34375 6.839844 -12.085938 7.351562 -11.570312 C 7.867188 -11.058594 8.121094 -10.328125 8.121094 -9.382812 L 8.121094 -6.078125 C 8.121094 -5.144531 7.867188 -4.417969 7.351562 -3.90625 C 6.839844 -3.394531 6.113281 -3.132812 5.171875 -3.117188 L 3.042969 -3.101562 L 3.039062 -3.628906 L 3.566406 -3.628906 L 3.566406 -0.253906 C 3.566406 -0.015625 3.492188 0.175781 3.34375 0.324219 C 3.195312 0.46875 3.003906 0.542969 2.769531 0.542969 L 1.109375 0.527344 C 0.875 0.527344 0.6875 0.453125 0.539062 0.304688 C 0.390625 0.15625 0.316406 -0.0351562 0.316406 -0.269531 Z M 1.371094 -0.269531 C 1.371094 -0.28125 1.367188 -0.296875 1.359375 -0.320312 C 1.347656 -0.363281 1.320312 -0.40625 1.285156 -0.441406 C 1.25 -0.476562 1.207031 -0.503906 1.164062 -0.515625 C 1.140625 -0.523438 1.128906 -0.527344 1.121094 -0.527344 L 2.769531 -0.511719 C 2.757812 -0.511719 2.738281 -0.507812 2.71875 -0.5 C 2.675781 -0.484375 2.632812 -0.460938 2.597656 -0.421875 C 2.5625 -0.386719 2.535156 -0.347656 2.519531 -0.300781 C 2.515625 -0.28125 2.511719 -0.265625 2.511719 -0.253906 L 2.511719 -4.152344 L 5.15625 -4.171875 C 5.8125 -4.183594 6.296875 -4.34375 6.605469 -4.652344 C 6.914062 -4.960938 7.066406 -5.433594 7.066406 -6.078125 L 7.066406 -9.382812 C 7.066406 -10.039062 6.914062 -10.519531 6.605469 -10.824219 C 6.296875 -11.132812 5.816406 -11.289062 5.164062 -11.289062 L 1.113281 -11.289062 C 1.125 -11.289062 1.140625 -11.292969 1.164062 -11.296875 C 1.207031 -11.3125 1.25 -11.339844 1.285156 -11.375 C 1.320312 -11.410156 1.347656 -11.453125 1.359375 -11.496094 C 1.367188 -11.515625 1.371094 -11.53125 1.371094 -11.546875 Z M 3.03125 -6.332031 L 4.722656 -6.351562 C 4.78125 -6.351562 4.824219 -6.355469 4.855469 -6.367188 C 4.859375 -6.367188 4.863281 -6.371094 4.867188 -6.371094 C 4.863281 -6.371094 4.863281 -6.367188 4.859375 -6.363281 C 4.855469 -6.363281 4.855469 -6.359375 4.855469 -6.359375 C 4.855469 -6.359375 4.855469 -6.363281 4.859375 -6.371094 C 4.867188 -6.398438 4.875 -6.441406 4.875 -6.5 L 4.875 -8.960938 C 4.875 -9.019531 4.867188 -9.0625 4.859375 -9.089844 C 4.855469 -9.097656 4.855469 -9.101562 4.855469 -9.101562 C 4.855469 -9.101562 4.855469 -9.097656 4.859375 -9.097656 C 4.863281 -9.09375 4.863281 -9.089844 4.867188 -9.089844 C 4.863281 -9.09375 4.859375 -9.09375 4.855469 -9.09375 C 4.824219 -9.105469 4.78125 -9.109375 4.726562 -9.109375 L 3.042969 -9.09375 L 3.039062 -9.621094 L 3.566406 -9.621094 L 3.566406 -5.804688 L 3.039062 -5.804688 Z M 2.511719 -5.273438 L 2.511719 -10.144531 L 4.726562 -10.164062 C 5.097656 -10.164062 5.390625 -10.058594 5.605469 -9.84375 C 5.820312 -9.625 5.929688 -9.332031 5.929688 -8.960938 L 5.929688 -6.5 C 5.929688 -6.128906 5.820312 -5.835938 5.605469 -5.617188 C 5.390625 -5.402344 5.097656 -5.296875 4.730469 -5.296875 L 3.042969 -5.277344 Z M 2.511719 -5.273438 "/></g></g><g style="fill:#b21a22;fill-opacity:1;"><g transform="translate(50.643503, 31.099687)"><path style="stroke:none" d="M 2.613281 -2.226562 L 2.613281 -11.546875 C 2.613281 -11.53125 2.617188 -11.515625 2.621094 -11.496094 C 2.636719 -11.453125 2.664062 -11.410156 2.699219 -11.375 C 2.734375 -11.339844 2.777344 -11.3125 2.820312 -11.296875 C 2.839844 -11.292969 2.855469 -11.289062 2.871094 -11.289062 L 1.113281 -11.289062 C 1.125 -11.289062 1.140625 -11.292969 1.164062 -11.296875 C 1.207031 -11.3125 1.25 -11.339844 1.285156 -11.375 C 1.320312 -11.410156 1.347656 -11.453125 1.359375 -11.496094 C 1.367188 -11.515625 1.371094 -11.53125 1.371094 -11.546875 L 1.371094 -0.269531 C 1.371094 -0.28125 1.367188 -0.296875 1.359375 -0.320312 C 1.347656 -0.363281 1.320312 -0.40625 1.285156 -0.441406 C 1.25 -0.476562 1.207031 -0.503906 1.164062 -0.515625 C 1.140625 -0.523438 1.125 -0.527344 1.113281 -0.527344 L 6.480469 -0.527344 C 6.46875 -0.527344 6.453125 -0.523438 6.433594 -0.515625 C 6.386719 -0.503906 6.347656 -0.476562 6.3125 -0.441406 C 6.273438 -0.40625 6.25 -0.363281 6.234375 -0.320312 C 6.226562 -0.296875 6.222656 -0.28125 6.222656 -0.269531 L 6.222656 -1.957031 C 6.222656 -1.945312 6.226562 -1.929688 6.234375 -1.910156 C 6.25 -1.863281 6.273438 -1.824219 6.3125 -1.789062 C 6.347656 -1.75 6.386719 -1.726562 6.433594 -1.710938 C 6.453125 -1.703125 6.46875 -1.699219 6.480469 -1.699219 L 2.613281 -1.699219 Z M 3.667969 -2.226562 L 3.140625 -2.226562 L 3.140625 -2.753906 L 6.480469 -2.753906 C 6.71875 -2.753906 6.910156 -2.679688 7.058594 -2.535156 C 7.203125 -2.386719 7.277344 -2.195312 7.277344 -1.957031 L 7.277344 -0.269531 C 7.277344 -0.0351562 7.203125 0.15625 7.058594 0.304688 C 6.910156 0.453125 6.71875 0.527344 6.480469 0.527344 L 1.113281 0.527344 C 0.878906 0.527344 0.6875 0.453125 0.539062 0.304688 C 0.390625 0.15625 0.316406 -0.0351562 0.316406 -0.269531 L 0.316406 -11.546875 C 0.316406 -11.78125 0.390625 -11.972656 0.539062 -12.121094 C 0.6875 -12.269531 0.878906 -12.34375 1.113281 -12.34375 L 2.871094 -12.34375 C 3.105469 -12.34375 3.296875 -12.269531 3.445312 -12.121094 C 3.59375 -11.972656 3.667969 -11.78125 3.667969 -11.546875 Z M 3.667969 -2.226562 "/></g></g><g style="fill:#b21a22;fill-opacity:1;"><g transform="translate(58.236616, 31.099687)"><path style="stroke:none" d="M 8.105469 -11.546875 L 8.105469 -9.855469 C 8.105469 -9.621094 8.035156 -9.429688 7.894531 -9.28125 C 7.746094 -9.121094 7.550781 -9.042969 7.308594 -9.042969 L 3.140625 -9.042969 L 3.140625 -9.570312 L 3.667969 -9.570312 L 3.667969 -6.972656 L 3.140625 -6.972656 L 3.140625 -7.5 L 6.3125 -7.5 C 6.554688 -7.5 6.75 -7.417969 6.898438 -7.261719 C 7.039062 -7.113281 7.109375 -6.917969 7.109375 -6.683594 L 7.109375 -5.011719 C 7.109375 -4.777344 7.039062 -4.585938 6.898438 -4.4375 C 6.75 -4.277344 6.554688 -4.199219 6.3125 -4.199219 L 3.140625 -4.199219 L 3.140625 -4.726562 L 3.667969 -4.726562 L 3.667969 -2.226562 L 3.140625 -2.226562 L 3.140625 -2.753906 L 7.308594 -2.753906 C 7.542969 -2.753906 7.734375 -2.679688 7.882812 -2.535156 C 8.03125 -2.386719 8.105469 -2.195312 8.105469 -1.957031 L 8.105469 -0.269531 C 8.105469 -0.0351562 8.03125 0.15625 7.882812 0.304688 C 7.734375 0.453125 7.542969 0.527344 7.308594 0.527344 L 1.097656 0.527344 C 0.859375 0.527344 0.667969 0.449219 0.523438 0.292969 C 0.386719 0.148438 0.316406 -0.0390625 0.316406 -0.269531 L 0.316406 -11.546875 C 0.316406 -11.773438 0.386719 -11.960938 0.523438 -12.109375 C 0.667969 -12.265625 0.859375 -12.34375 1.097656 -12.34375 L 7.308594 -12.34375 C 7.542969 -12.34375 7.734375 -12.269531 7.882812 -12.121094 C 8.03125 -11.972656 8.105469 -11.78125 8.105469 -11.546875 Z M 7.050781 -11.546875 C 7.050781 -11.53125 7.054688 -11.515625 7.0625 -11.496094 C 7.078125 -11.453125 7.101562 -11.410156 7.136719 -11.375 C 7.175781 -11.339844 7.214844 -11.3125 7.261719 -11.296875 C 7.28125 -11.292969 7.296875 -11.289062 7.308594 -11.289062 L 1.097656 -11.289062 C 1.164062 -11.289062 1.230469 -11.320312 1.292969 -11.386719 C 1.324219 -11.421875 1.351562 -11.460938 1.363281 -11.507812 C 1.367188 -11.523438 1.371094 -11.535156 1.371094 -11.546875 L 1.371094 -0.269531 C 1.371094 -0.277344 1.367188 -0.292969 1.363281 -0.308594 C 1.351562 -0.351562 1.324219 -0.390625 1.292969 -0.429688 C 1.230469 -0.496094 1.164062 -0.527344 1.097656 -0.527344 L 7.308594 -0.527344 C 7.296875 -0.527344 7.28125 -0.523438 7.261719 -0.515625 C 7.214844 -0.503906 7.175781 -0.476562 7.136719 -0.441406 C 7.101562 -0.40625 7.078125 -0.363281 7.0625 -0.320312 C 7.054688 -0.296875 7.050781 -0.28125 7.050781 -0.269531 L 7.050781 -1.957031 C 7.050781 -1.945312 7.054688 -1.929688 7.0625 -1.910156 C 7.078125 -1.863281 7.101562 -1.824219 7.136719 -1.789062 C 7.175781 -1.75 7.214844 -1.726562 7.261719 -1.710938 C 7.28125 -1.703125 7.296875 -1.699219 7.308594 -1.699219 L 2.613281 -1.699219 L 2.613281 -5.253906 L 6.3125 -5.253906 C 6.296875 -5.253906 6.277344 -5.25 6.253906 -5.242188 C 6.207031 -5.226562 6.167969 -5.199219 6.132812 -5.160156 C 6.097656 -5.125 6.074219 -5.085938 6.0625 -5.046875 C 6.058594 -5.03125 6.054688 -5.019531 6.054688 -5.011719 L 6.054688 -6.683594 C 6.054688 -6.679688 6.058594 -6.667969 6.0625 -6.652344 C 6.074219 -6.609375 6.097656 -6.574219 6.132812 -6.539062 C 6.167969 -6.5 6.207031 -6.472656 6.253906 -6.457031 C 6.277344 -6.449219 6.296875 -6.445312 6.3125 -6.445312 L 2.613281 -6.445312 L 2.613281 -10.097656 L 7.308594 -10.097656 C 7.292969 -10.097656 7.273438 -10.09375 7.25 -10.085938 C 7.203125 -10.070312 7.164062 -10.042969 7.128906 -10.003906 C 7.09375 -9.96875 7.070312 -9.929688 7.058594 -9.890625 C 7.054688 -9.875 7.050781 -9.863281 7.050781 -9.855469 Z M 7.050781 -11.546875 "/></g></g><g style="fill:#b21a22;fill-opacity:1;"><g transform="translate(66.656532, 31.099687)"><path style="stroke:none" d="M -0.527344 2.261719 L -0.527344 0.707031 C -0.527344 0.449219 -0.449219 0.242188 -0.289062 0.0820312 C -0.128906 -0.078125 0.078125 -0.15625 0.335938 -0.15625 L 10.515625 -0.15625 C 10.773438 -0.15625 10.984375 -0.078125 11.140625 0.0820312 C 11.300781 0.242188 11.378906 0.449219 11.378906 0.707031 L 11.378906 2.261719 C 11.378906 2.519531 11.300781 2.730469 11.140625 2.886719 C 10.984375 3.046875 10.773438 3.125 10.515625 3.125 L 0.335938 3.125 C 0.078125 3.125 -0.128906 3.046875 -0.289062 2.886719 C -0.449219 2.730469 -0.527344 2.519531 -0.527344 2.261719 Z M 0.527344 2.261719 C 0.527344 2.265625 0.527344 2.265625 0.527344 2.265625 C 0.527344 2.257812 0.523438 2.25 0.523438 2.242188 C 0.507812 2.207031 0.488281 2.171875 0.457031 2.140625 C 0.425781 2.113281 0.394531 2.089844 0.355469 2.078125 C 0.347656 2.074219 0.339844 2.074219 0.332031 2.070312 C 0.332031 2.070312 0.335938 2.070312 0.335938 2.070312 L 10.515625 2.070312 C 10.519531 2.070312 10.519531 2.070312 10.519531 2.070312 C 10.511719 2.074219 10.503906 2.074219 10.496094 2.078125 C 10.460938 2.089844 10.425781 2.113281 10.394531 2.140625 C 10.363281 2.171875 10.34375 2.207031 10.332031 2.242188 C 10.328125 2.25 10.328125 2.257812 10.324219 2.265625 C 10.324219 2.265625 10.324219 2.265625 10.324219 2.261719 L 10.324219 0.707031 C 10.324219 0.707031 10.324219 0.703125 10.324219 0.703125 C 10.328125 0.710938 10.328125 0.71875 10.332031 0.726562 C 10.34375 0.765625 10.363281 0.796875 10.394531 0.828125 C 10.425781 0.859375 10.460938 0.878906 10.496094 0.894531 C 10.503906 0.894531 10.511719 0.898438 10.519531 0.898438 C 10.519531 0.898438 10.519531 0.898438 10.515625 0.898438 L 0.335938 0.898438 C 0.335938 0.898438 0.332031 0.898438 0.332031 0.898438 C 0.339844 0.898438 0.347656 0.894531 0.355469 0.894531 C 0.394531 0.878906 0.425781 0.859375 0.457031 0.828125 C 0.488281 0.796875 0.507812 0.765625 0.523438 0.726562 C 0.523438 0.71875 0.527344 0.710938 0.527344 0.703125 C 0.527344 0.703125 0.527344 0.707031 0.527344 0.707031 Z M 0.527344 2.261719 "/></g></g><g style="fill:#b21a22;fill-opacity:1;"><g transform="translate(18.92368, 54.63177)"><path style="stroke:none" d="M 8.140625 -9.382812 L 8.140625 -7.5625 C 8.140625 -7.324219 8.066406 -7.132812 7.917969 -6.984375 C 7.769531 -6.839844 7.578125 -6.765625 7.34375 -6.765625 L 5.753906 -6.765625 C 5.519531 -6.765625 5.328125 -6.839844 5.179688 -6.984375 C 5.03125 -7.132812 4.957031 -7.324219 4.957031 -7.5625 L 4.957031 -8.945312 C 4.957031 -9 4.953125 -9.042969 4.941406 -9.074219 C 4.941406 -9.078125 4.941406 -9.082031 4.9375 -9.085938 C 4.941406 -9.082031 4.941406 -9.082031 4.945312 -9.078125 C 4.945312 -9.078125 4.949219 -9.074219 4.949219 -9.074219 C 4.949219 -9.074219 4.945312 -9.078125 4.9375 -9.078125 C 4.910156 -9.089844 4.867188 -9.09375 4.808594 -9.09375 L 3.730469 -9.09375 C 3.675781 -9.09375 3.632812 -9.089844 3.601562 -9.078125 C 3.597656 -9.078125 3.59375 -9.074219 3.589844 -9.074219 C 3.59375 -9.074219 3.59375 -9.078125 3.597656 -9.078125 C 3.597656 -9.082031 3.601562 -9.082031 3.601562 -9.085938 C 3.601562 -9.082031 3.597656 -9.078125 3.597656 -9.074219 C 3.585938 -9.042969 3.582031 -9 3.582031 -8.945312 L 3.582031 -2.820312 C 3.582031 -2.761719 3.585938 -2.71875 3.597656 -2.691406 C 3.597656 -2.683594 3.601562 -2.679688 3.601562 -2.679688 C 3.601562 -2.679688 3.597656 -2.683594 3.597656 -2.683594 C 3.59375 -2.6875 3.59375 -2.691406 3.589844 -2.691406 C 3.59375 -2.691406 3.597656 -2.6875 3.601562 -2.6875 C 3.632812 -2.675781 3.675781 -2.671875 3.730469 -2.671875 L 4.808594 -2.671875 C 4.867188 -2.671875 4.910156 -2.675781 4.9375 -2.6875 C 4.945312 -2.6875 4.949219 -2.691406 4.949219 -2.691406 C 4.949219 -2.691406 4.945312 -2.6875 4.945312 -2.683594 C 4.941406 -2.683594 4.941406 -2.679688 4.9375 -2.679688 C 4.941406 -2.679688 4.941406 -2.683594 4.941406 -2.691406 C 4.953125 -2.71875 4.957031 -2.761719 4.957031 -2.820312 L 4.957031 -4.253906 C 4.957031 -4.488281 5.03125 -4.679688 5.179688 -4.828125 C 5.328125 -4.976562 5.519531 -5.050781 5.753906 -5.050781 L 7.34375 -5.050781 C 7.578125 -5.050781 7.769531 -4.976562 7.917969 -4.828125 C 8.066406 -4.679688 8.140625 -4.488281 8.140625 -4.253906 L 8.140625 -2.429688 C 8.140625 -1.496094 7.878906 -0.769531 7.359375 -0.25 C 6.839844 0.269531 6.113281 0.527344 5.183594 0.527344 L 3.292969 0.527344 C 2.359375 0.527344 1.632812 0.269531 1.105469 -0.25 C 0.578125 -0.769531 0.316406 -1.496094 0.316406 -2.429688 L 0.316406 -9.382812 C 0.316406 -10.332031 0.582031 -11.0625 1.109375 -11.578125 C 1.632812 -12.085938 2.359375 -12.34375 3.292969 -12.34375 L 5.183594 -12.34375 C 6.113281 -12.34375 6.839844 -12.085938 7.359375 -11.574219 C 7.878906 -11.0625 8.140625 -10.332031 8.140625 -9.382812 Z M 7.085938 -9.382812 C 7.085938 -10.035156 6.929688 -10.515625 6.617188 -10.824219 C 6.304688 -11.132812 5.824219 -11.289062 5.183594 -11.289062 L 3.292969 -11.289062 C 2.648438 -11.289062 2.164062 -11.132812 1.84375 -10.820312 C 1.527344 -10.515625 1.371094 -10.035156 1.371094 -9.382812 L 1.371094 -2.429688 C 1.371094 -1.789062 1.53125 -1.3125 1.847656 -1 C 2.167969 -0.683594 2.648438 -0.527344 3.292969 -0.527344 L 5.183594 -0.527344 C 5.824219 -0.527344 6.300781 -0.683594 6.613281 -0.996094 C 6.929688 -1.3125 7.085938 -1.789062 7.085938 -2.429688 L 7.085938 -4.253906 C 7.085938 -4.242188 7.089844 -4.226562 7.09375 -4.203125 C 7.109375 -4.160156 7.136719 -4.121094 7.171875 -4.082031 C 7.207031 -4.046875 7.25 -4.019531 7.292969 -4.007812 C 7.3125 -4 7.332031 -3.996094 7.34375 -3.996094 L 5.753906 -3.996094 C 5.769531 -3.996094 5.785156 -4 5.804688 -4.007812 C 5.847656 -4.019531 5.890625 -4.046875 5.925781 -4.082031 C 5.960938 -4.121094 5.988281 -4.160156 6.003906 -4.203125 C 6.007812 -4.226562 6.011719 -4.242188 6.011719 -4.253906 L 6.011719 -2.820312 C 6.011719 -2.449219 5.90625 -2.15625 5.691406 -1.9375 C 5.472656 -1.722656 5.179688 -1.617188 4.808594 -1.617188 L 3.730469 -1.617188 C 3.359375 -1.617188 3.066406 -1.722656 2.851562 -1.9375 C 2.636719 -2.15625 2.527344 -2.449219 2.527344 -2.820312 L 2.527344 -8.945312 C 2.527344 -9.316406 2.636719 -9.609375 2.851562 -9.824219 C 3.066406 -10.039062 3.359375 -10.148438 3.730469 -10.148438 L 4.808594 -10.148438 C 5.179688 -10.148438 5.472656 -10.039062 5.691406 -9.824219 C 5.90625 -9.609375 6.011719 -9.316406 6.011719 -8.945312 L 6.011719 -7.5625 C 6.011719 -7.574219 6.007812 -7.589844 6.003906 -7.609375 C 5.988281 -7.65625 5.960938 -7.695312 5.925781 -7.730469 C 5.890625 -7.769531 5.847656 -7.792969 5.804688 -7.808594 C 5.785156 -7.816406 5.769531 -7.820312 5.753906 -7.820312 L 7.34375 -7.820312 C 7.332031 -7.820312 7.3125 -7.816406 7.292969 -7.808594 C 7.25 -7.792969 7.207031 -7.769531 7.171875 -7.730469 C 7.136719 -7.695312 7.109375 -7.65625 7.09375 -7.609375 C 7.089844 -7.589844 7.085938 -7.574219 7.085938 -7.5625 Z M 7.085938 -9.382812 "/></g></g><g style="fill:#b21a22;fill-opacity:1;"><g transform="translate(27.377349, 54.63177)"><path style="stroke:none" d="M 0.316406 -2.429688 L 0.316406 -9.382812 C 0.316406 -10.332031 0.578125 -11.0625 1.097656 -11.574219 C 1.617188 -12.085938 2.34375 -12.34375 3.273438 -12.34375 L 5.164062 -12.34375 C 6.109375 -12.34375 6.839844 -12.085938 7.351562 -11.570312 C 7.867188 -11.058594 8.121094 -10.328125 8.121094 -9.382812 L 8.121094 -2.429688 C 8.121094 -1.5 7.867188 -0.773438 7.355469 -0.253906 C 6.839844 0.265625 6.109375 0.527344 5.164062 0.527344 L 3.273438 0.527344 C 2.339844 0.527344 1.613281 0.269531 1.09375 -0.25 C 0.574219 -0.769531 0.316406 -1.496094 0.316406 -2.429688 Z M 1.371094 -2.429688 C 1.371094 -1.789062 1.527344 -1.3125 1.839844 -0.996094 C 2.15625 -0.683594 2.632812 -0.527344 3.273438 -0.527344 L 5.164062 -0.527344 C 5.816406 -0.527344 6.296875 -0.683594 6.605469 -0.996094 C 6.914062 -1.308594 7.066406 -1.789062 7.066406 -2.429688 L 7.066406 -9.382812 C 7.066406 -10.039062 6.914062 -10.519531 6.605469 -10.824219 C 6.296875 -11.132812 5.816406 -11.289062 5.164062 -11.289062 L 3.273438 -11.289062 C 2.632812 -11.289062 2.152344 -11.132812 1.839844 -10.824219 C 1.527344 -10.515625 1.371094 -10.035156 1.371094 -9.382812 Z M 3.714844 -2.703125 L 4.792969 -2.703125 C 4.847656 -2.703125 4.890625 -2.710938 4.921875 -2.71875 C 4.929688 -2.722656 4.929688 -2.722656 4.933594 -2.726562 C 4.933594 -2.722656 4.929688 -2.722656 4.925781 -2.71875 C 4.925781 -2.714844 4.921875 -2.714844 4.921875 -2.710938 C 4.921875 -2.714844 4.925781 -2.71875 4.925781 -2.722656 C 4.9375 -2.753906 4.941406 -2.796875 4.941406 -2.851562 L 4.941406 -8.960938 C 4.941406 -9.019531 4.9375 -9.0625 4.925781 -9.089844 C 4.925781 -9.097656 4.921875 -9.101562 4.921875 -9.101562 C 4.921875 -9.101562 4.925781 -9.097656 4.925781 -9.097656 C 4.929688 -9.09375 4.933594 -9.089844 4.933594 -9.089844 C 4.929688 -9.09375 4.929688 -9.09375 4.921875 -9.09375 C 4.890625 -9.105469 4.847656 -9.109375 4.792969 -9.109375 L 3.714844 -9.109375 C 3.65625 -9.109375 3.613281 -9.105469 3.585938 -9.09375 C 3.578125 -9.09375 3.574219 -9.09375 3.574219 -9.089844 C 3.574219 -9.089844 3.578125 -9.09375 3.578125 -9.097656 C 3.582031 -9.097656 3.585938 -9.101562 3.585938 -9.101562 C 3.585938 -9.101562 3.582031 -9.097656 3.582031 -9.089844 C 3.570312 -9.0625 3.566406 -9.019531 3.566406 -8.960938 L 3.566406 -2.851562 C 3.566406 -2.796875 3.570312 -2.753906 3.582031 -2.722656 C 3.582031 -2.71875 3.585938 -2.714844 3.585938 -2.710938 C 3.585938 -2.714844 3.582031 -2.714844 3.578125 -2.71875 C 3.578125 -2.722656 3.574219 -2.722656 3.574219 -2.726562 C 3.574219 -2.722656 3.578125 -2.722656 3.585938 -2.71875 C 3.613281 -2.710938 3.65625 -2.703125 3.714844 -2.703125 Z M 3.714844 -1.648438 C 3.34375 -1.648438 3.050781 -1.757812 2.835938 -1.972656 C 2.617188 -2.1875 2.511719 -2.480469 2.511719 -2.851562 L 2.511719 -8.960938 C 2.511719 -9.332031 2.617188 -9.625 2.835938 -9.84375 C 3.050781 -10.058594 3.34375 -10.164062 3.714844 -10.164062 L 4.792969 -10.164062 C 5.164062 -10.164062 5.457031 -10.058594 5.671875 -9.84375 C 5.886719 -9.625 5.996094 -9.332031 5.996094 -8.960938 L 5.996094 -2.851562 C 5.996094 -2.480469 5.886719 -2.1875 5.671875 -1.972656 C 5.457031 -1.757812 5.164062 -1.648438 4.792969 -1.648438 Z M 3.714844 -1.648438 "/></g></g><g style="fill:#b21a22;fill-opacity:1;"><g transform="translate(35.814142, 54.63177)"><path style="stroke:none" d="M 2.613281 -2.226562 L 2.613281 -11.546875 C 2.613281 -11.53125 2.617188 -11.515625 2.621094 -11.496094 C 2.636719 -11.453125 2.664062 -11.410156 2.699219 -11.375 C 2.734375 -11.339844 2.777344 -11.3125 2.820312 -11.296875 C 2.839844 -11.292969 2.855469 -11.289062 2.871094 -11.289062 L 1.113281 -11.289062 C 1.125 -11.289062 1.140625 -11.292969 1.164062 -11.296875 C 1.207031 -11.3125 1.25 -11.339844 1.285156 -11.375 C 1.320312 -11.410156 1.347656 -11.453125 1.359375 -11.496094 C 1.367188 -11.515625 1.371094 -11.53125 1.371094 -11.546875 L 1.371094 -0.269531 C 1.371094 -0.28125 1.367188 -0.296875 1.359375 -0.320312 C 1.347656 -0.363281 1.320312 -0.40625 1.285156 -0.441406 C 1.25 -0.476562 1.207031 -0.503906 1.164062 -0.515625 C 1.140625 -0.523438 1.125 -0.527344 1.113281 -0.527344 L 6.480469 -0.527344 C 6.46875 -0.527344 6.453125 -0.523438 6.433594 -0.515625 C 6.386719 -0.503906 6.347656 -0.476562 6.3125 -0.441406 C 6.273438 -0.40625 6.25 -0.363281 6.234375 -0.320312 C 6.226562 -0.296875 6.222656 -0.28125 6.222656 -0.269531 L 6.222656 -1.957031 C 6.222656 -1.945312 6.226562 -1.929688 6.234375 -1.910156 C 6.25 -1.863281 6.273438 -1.824219 6.3125 -1.789062 C 6.347656 -1.75 6.386719 -1.726562 6.433594 -1.710938 C 6.453125 -1.703125 6.46875 -1.699219 6.480469 -1.699219 L 2.613281 -1.699219 Z M 3.667969 -2.226562 L 3.140625 -2.226562 L 3.140625 -2.753906 L 6.480469 -2.753906 C 6.71875 -2.753906 6.910156 -2.679688 7.058594 -2.535156 C 7.203125 -2.386719 7.277344 -2.195312 7.277344 -1.957031 L 7.277344 -0.269531 C 7.277344 -0.0351562 7.203125 0.15625 7.058594 0.304688 C 6.910156 0.453125 6.71875 0.527344 6.480469 0.527344 L 1.113281 0.527344 C 0.878906 0.527344 0.6875 0.453125 0.539062 0.304688 C 0.390625 0.15625 0.316406 -0.0351562 0.316406 -0.269531 L 0.316406 -11.546875 C 0.316406 -11.78125 0.390625 -11.972656 0.539062 -12.121094 C 0.6875 -12.269531 0.878906 -12.34375 1.113281 -12.34375 L 2.871094 -12.34375 C 3.105469 -12.34375 3.296875 -12.269531 3.445312 -12.121094 C 3.59375 -11.972656 3.667969 -11.78125 3.667969 -11.546875 Z M 3.667969 -2.226562 "/></g></g><g style="fill:#b21a22;fill-opacity:1;"><g transform="translate(43.407255, 54.63177)"><path style="stroke:none" d="M 5.703125 -12.34375 L 7.257812 -12.34375 C 7.492188 -12.34375 7.695312 -12.257812 7.867188 -12.085938 C 8.039062 -11.917969 8.121094 -11.714844 8.121094 -11.476562 L 8.121094 -2.429688 C 8.121094 -1.5 7.867188 -0.773438 7.355469 -0.253906 C 6.839844 0.265625 6.109375 0.527344 5.164062 0.527344 L 3.273438 0.527344 C 2.339844 0.527344 1.613281 0.269531 1.09375 -0.25 C 0.574219 -0.769531 0.316406 -1.496094 0.316406 -2.429688 L 0.316406 -11.476562 C 0.316406 -11.714844 0.402344 -11.917969 0.570312 -12.085938 C 0.742188 -12.257812 0.945312 -12.34375 1.179688 -12.34375 L 2.800781 -12.34375 C 3.039062 -12.34375 3.242188 -12.257812 3.410156 -12.085938 C 3.582031 -11.917969 3.667969 -11.714844 3.667969 -11.476562 L 3.667969 -2.902344 C 3.667969 -2.847656 3.671875 -2.804688 3.683594 -2.773438 C 3.683594 -2.769531 3.683594 -2.765625 3.6875 -2.761719 C 3.6875 -2.765625 3.683594 -2.765625 3.679688 -2.769531 C 3.679688 -2.773438 3.675781 -2.773438 3.675781 -2.773438 C 3.675781 -2.773438 3.679688 -2.773438 3.6875 -2.769531 C 3.714844 -2.761719 3.757812 -2.753906 3.816406 -2.753906 L 4.691406 -2.753906 C 4.746094 -2.753906 4.789062 -2.761719 4.820312 -2.769531 C 4.828125 -2.773438 4.832031 -2.773438 4.832031 -2.773438 C 4.832031 -2.773438 4.828125 -2.773438 4.824219 -2.769531 C 4.824219 -2.765625 4.820312 -2.765625 4.820312 -2.761719 C 4.820312 -2.765625 4.824219 -2.769531 4.824219 -2.773438 C 4.835938 -2.804688 4.839844 -2.847656 4.839844 -2.902344 L 4.839844 -11.476562 C 4.839844 -11.714844 4.925781 -11.917969 5.097656 -12.085938 C 5.265625 -12.257812 5.46875 -12.34375 5.703125 -12.34375 Z M 5.703125 -11.289062 C 5.761719 -11.289062 5.804688 -11.304688 5.839844 -11.339844 C 5.878906 -11.375 5.894531 -11.421875 5.894531 -11.476562 L 5.894531 -2.902344 C 5.894531 -2.53125 5.789062 -2.238281 5.570312 -2.023438 C 5.355469 -1.808594 5.0625 -1.699219 4.691406 -1.699219 L 3.816406 -1.699219 C 3.445312 -1.699219 3.152344 -1.808594 2.933594 -2.023438 C 2.71875 -2.238281 2.613281 -2.53125 2.613281 -2.902344 L 2.613281 -11.476562 C 2.613281 -11.421875 2.628906 -11.375 2.664062 -11.339844 C 2.699219 -11.304688 2.746094 -11.289062 2.800781 -11.289062 L 1.179688 -11.289062 C 1.238281 -11.289062 1.28125 -11.304688 1.316406 -11.339844 C 1.355469 -11.375 1.371094 -11.421875 1.371094 -11.476562 L 1.371094 -2.429688 C 1.371094 -1.789062 1.527344 -1.3125 1.839844 -0.996094 C 2.15625 -0.683594 2.632812 -0.527344 3.273438 -0.527344 L 5.164062 -0.527344 C 5.816406 -0.527344 6.296875 -0.683594 6.605469 -0.996094 C 6.914062 -1.308594 7.066406 -1.789062 7.066406 -2.429688 L 7.066406 -11.476562 C 7.066406 -11.421875 7.085938 -11.375 7.121094 -11.339844 C 7.15625 -11.304688 7.203125 -11.289062 7.257812 -11.289062 Z M 5.703125 -11.289062 "/></g></g><g style="fill:#b21a22;fill-opacity:1;"><g transform="translate(51.844048, 54.63177)"><path style="stroke:none" d="M 7.898438 -12.34375 L 10.128906 -12.34375 C 10.386719 -12.34375 10.59375 -12.261719 10.753906 -12.105469 C 10.914062 -11.945312 10.992188 -11.734375 10.992188 -11.476562 L 10.992188 -0.335938 C 10.992188 -0.078125 10.914062 0.128906 10.753906 0.289062 C 10.59375 0.449219 10.386719 0.527344 10.128906 0.527344 L 8.558594 0.527344 C 8.300781 0.527344 8.089844 0.449219 7.929688 0.289062 C 7.773438 0.128906 7.691406 -0.078125 7.691406 -0.335938 L 7.691406 -6.972656 L 8.21875 -6.972656 L 8.21875 -6.445312 L 8.101562 -6.445312 L 8.101562 -6.972656 L 8.613281 -6.847656 L 7.023438 -0.152344 L 7.019531 -0.136719 C 6.960938 0.0664062 6.855469 0.226562 6.703125 0.34375 C 6.546875 0.46875 6.359375 0.527344 6.144531 0.527344 L 5.148438 0.527344 C 4.933594 0.527344 4.746094 0.46875 4.589844 0.34375 C 4.4375 0.226562 4.332031 0.0664062 4.269531 -0.136719 L 4.265625 -0.152344 L 2.675781 -6.847656 L 3.191406 -6.972656 L 3.191406 -6.445312 L 3.070312 -6.445312 L 3.070312 -6.972656 L 3.597656 -6.972656 L 3.597656 -0.335938 C 3.597656 -0.078125 3.519531 0.128906 3.359375 0.289062 C 3.203125 0.449219 2.992188 0.527344 2.734375 0.527344 L 1.179688 0.527344 C 0.921875 0.527344 0.714844 0.449219 0.554688 0.289062 C 0.394531 0.128906 0.316406 -0.078125 0.316406 -0.335938 L 0.316406 -11.476562 C 0.316406 -11.734375 0.394531 -11.945312 0.554688 -12.105469 C 0.714844 -12.261719 0.921875 -12.34375 1.179688 -12.34375 L 3.410156 -12.34375 C 3.625 -12.34375 3.8125 -12.28125 3.96875 -12.160156 C 4.121094 -12.042969 4.226562 -11.882812 4.285156 -11.675781 L 4.289062 -11.667969 L 6.167969 -4.128906 L 5.65625 -4 L 5.140625 -4.128906 L 7.019531 -11.667969 L 7.023438 -11.675781 C 7.082031 -11.882812 7.1875 -12.042969 7.339844 -12.160156 C 7.496094 -12.28125 7.683594 -12.34375 7.898438 -12.34375 Z M 7.898438 -11.289062 C 7.921875 -11.289062 7.953125 -11.300781 7.984375 -11.324219 C 8.003906 -11.339844 8.019531 -11.355469 8.03125 -11.375 C 8.03125 -11.378906 8.035156 -11.382812 8.035156 -11.382812 C 8.035156 -11.382812 8.035156 -11.382812 8.035156 -11.378906 L 7.527344 -11.527344 L 8.039062 -11.402344 L 6.167969 -3.871094 L 5.140625 -3.871094 L 3.269531 -11.402344 L 3.78125 -11.527344 L 3.273438 -11.378906 C 3.273438 -11.382812 3.273438 -11.382812 3.273438 -11.382812 C 3.273438 -11.382812 3.277344 -11.378906 3.277344 -11.375 C 3.289062 -11.355469 3.304688 -11.339844 3.324219 -11.324219 C 3.355469 -11.300781 3.386719 -11.289062 3.410156 -11.289062 L 1.179688 -11.289062 C 1.179688 -11.289062 1.175781 -11.289062 1.175781 -11.289062 C 1.183594 -11.289062 1.191406 -11.289062 1.199219 -11.292969 C 1.238281 -11.304688 1.269531 -11.328125 1.300781 -11.359375 C 1.332031 -11.386719 1.351562 -11.421875 1.367188 -11.457031 C 1.367188 -11.46875 1.371094 -11.476562 1.371094 -11.480469 C 1.371094 -11.484375 1.371094 -11.484375 1.371094 -11.484375 C 1.371094 -11.480469 1.371094 -11.480469 1.371094 -11.476562 L 1.371094 -0.335938 C 1.371094 -0.335938 1.371094 -0.332031 1.371094 -0.332031 C 1.371094 -0.339844 1.367188 -0.347656 1.367188 -0.355469 C 1.351562 -0.394531 1.332031 -0.425781 1.300781 -0.457031 C 1.269531 -0.488281 1.238281 -0.507812 1.199219 -0.523438 C 1.191406 -0.523438 1.183594 -0.527344 1.175781 -0.527344 C 1.175781 -0.527344 1.179688 -0.527344 1.179688 -0.527344 L 2.734375 -0.527344 C 2.738281 -0.527344 2.738281 -0.527344 2.738281 -0.527344 C 2.730469 -0.527344 2.722656 -0.523438 2.714844 -0.523438 C 2.679688 -0.507812 2.644531 -0.488281 2.613281 -0.457031 C 2.585938 -0.425781 2.5625 -0.394531 2.550781 -0.355469 C 2.546875 -0.347656 2.546875 -0.339844 2.542969 -0.332031 C 2.542969 -0.332031 2.542969 -0.335938 2.542969 -0.335938 L 2.542969 -7.5 L 3.605469 -7.5 L 5.289062 -0.410156 L 4.777344 -0.285156 L 5.28125 -0.4375 C 5.285156 -0.433594 5.285156 -0.429688 5.285156 -0.429688 C 5.28125 -0.433594 5.28125 -0.4375 5.277344 -0.441406 C 5.269531 -0.457031 5.253906 -0.476562 5.234375 -0.488281 C 5.203125 -0.515625 5.171875 -0.527344 5.148438 -0.527344 L 6.144531 -0.527344 C 6.121094 -0.527344 6.089844 -0.515625 6.058594 -0.488281 C 6.039062 -0.476562 6.023438 -0.457031 6.011719 -0.441406 C 6.011719 -0.4375 6.007812 -0.433594 6.007812 -0.429688 C 6.007812 -0.429688 6.007812 -0.433594 6.007812 -0.4375 L 6.515625 -0.285156 L 6.003906 -0.410156 L 7.683594 -7.5 L 8.746094 -7.5 L 8.746094 -0.335938 C 8.746094 -0.335938 8.746094 -0.332031 8.746094 -0.332031 C 8.746094 -0.339844 8.746094 -0.347656 8.742188 -0.355469 C 8.730469 -0.394531 8.707031 -0.425781 8.675781 -0.457031 C 8.648438 -0.488281 8.613281 -0.507812 8.578125 -0.523438 C 8.566406 -0.523438 8.558594 -0.527344 8.554688 -0.527344 C 8.550781 -0.527344 8.550781 -0.527344 8.550781 -0.527344 C 8.554688 -0.527344 8.554688 -0.527344 8.558594 -0.527344 L 10.128906 -0.527344 C 10.128906 -0.527344 10.132812 -0.527344 10.132812 -0.527344 C 10.125 -0.527344 10.117188 -0.523438 10.109375 -0.523438 C 10.070312 -0.507812 10.039062 -0.488281 10.007812 -0.457031 C 9.976562 -0.425781 9.957031 -0.394531 9.945312 -0.355469 C 9.941406 -0.347656 9.9375 -0.339844 9.9375 -0.332031 C 9.9375 -0.332031 9.9375 -0.335938 9.9375 -0.335938 L 9.9375 -11.476562 C 9.9375 -11.480469 9.9375 -11.480469 9.9375 -11.484375 C 9.9375 -11.484375 9.9375 -11.484375 9.9375 -11.480469 C 9.9375 -11.476562 9.941406 -11.46875 9.945312 -11.457031 C 9.957031 -11.421875 9.976562 -11.386719 10.007812 -11.359375 C 10.039062 -11.328125 10.070312 -11.304688 10.109375 -11.292969 C 10.117188 -11.289062 10.125 -11.289062 10.132812 -11.289062 C 10.132812 -11.289062 10.128906 -11.289062 10.128906 -11.289062 Z M 7.898438 -11.289062 "/></g></g><g style="fill:#b21a22;fill-opacity:1;"><g transform="translate(63.149348, 54.63177)"><path style="stroke:none" d="M 6.195312 -12.34375 L 7.78125 -12.34375 C 8.015625 -12.34375 8.207031 -12.269531 8.355469 -12.121094 C 8.503906 -11.972656 8.578125 -11.78125 8.578125 -11.546875 L 8.578125 -0.269531 C 8.578125 -0.0351562 8.503906 0.15625 8.355469 0.304688 C 8.207031 0.453125 8.015625 0.527344 7.78125 0.527344 L 6.449219 0.527344 C 6.265625 0.527344 6.105469 0.476562 5.960938 0.371094 C 5.835938 0.28125 5.738281 0.160156 5.664062 0 L 6.144531 -0.21875 L 5.671875 0.0117188 L 2.496094 -6.433594 L 2.96875 -6.667969 L 3.5 -6.667969 L 3.5 -0.269531 C 3.5 -0.0351562 3.425781 0.15625 3.277344 0.304688 C 3.128906 0.453125 2.9375 0.527344 2.699219 0.527344 L 1.113281 0.527344 C 0.878906 0.527344 0.6875 0.453125 0.539062 0.304688 C 0.390625 0.15625 0.316406 -0.0351562 0.316406 -0.269531 L 0.316406 -11.546875 C 0.316406 -11.78125 0.390625 -11.972656 0.539062 -12.121094 C 0.6875 -12.269531 0.878906 -12.34375 1.113281 -12.34375 L 2.449219 -12.34375 C 2.628906 -12.34375 2.789062 -12.292969 2.933594 -12.1875 C 3.058594 -12.097656 3.15625 -11.972656 3.230469 -11.816406 L 2.75 -11.597656 L 3.222656 -11.828125 L 6.398438 -5.382812 L 5.925781 -5.148438 L 5.398438 -5.148438 L 5.398438 -11.546875 C 5.398438 -11.78125 5.472656 -11.972656 5.617188 -12.121094 C 5.765625 -12.269531 5.957031 -12.34375 6.195312 -12.34375 Z M 6.195312 -11.289062 C 6.207031 -11.289062 6.222656 -11.292969 6.242188 -11.296875 C 6.289062 -11.3125 6.328125 -11.339844 6.363281 -11.375 C 6.402344 -11.410156 6.425781 -11.453125 6.441406 -11.496094 C 6.449219 -11.515625 6.453125 -11.53125 6.453125 -11.546875 L 6.453125 -5.148438 L 5.453125 -4.914062 L 2.273438 -11.367188 L 2.273438 -11.375 C 2.277344 -11.363281 2.292969 -11.351562 2.316406 -11.332031 C 2.355469 -11.304688 2.402344 -11.289062 2.449219 -11.289062 L 1.113281 -11.289062 C 1.125 -11.289062 1.140625 -11.292969 1.164062 -11.296875 C 1.207031 -11.3125 1.25 -11.339844 1.285156 -11.375 C 1.320312 -11.410156 1.347656 -11.453125 1.359375 -11.496094 C 1.367188 -11.515625 1.371094 -11.53125 1.371094 -11.546875 L 1.371094 -0.269531 C 1.371094 -0.28125 1.367188 -0.296875 1.359375 -0.320312 C 1.347656 -0.363281 1.320312 -0.40625 1.285156 -0.441406 C 1.25 -0.476562 1.207031 -0.503906 1.164062 -0.515625 C 1.140625 -0.523438 1.125 -0.527344 1.113281 -0.527344 L 2.699219 -0.527344 C 2.6875 -0.527344 2.671875 -0.523438 2.652344 -0.515625 C 2.605469 -0.503906 2.566406 -0.476562 2.53125 -0.441406 C 2.492188 -0.40625 2.46875 -0.363281 2.453125 -0.320312 C 2.445312 -0.296875 2.441406 -0.28125 2.441406 -0.269531 L 2.441406 -6.667969 L 3.445312 -6.898438 L 6.621094 -0.445312 L 6.621094 -0.441406 C 6.617188 -0.449219 6.601562 -0.464844 6.578125 -0.484375 C 6.539062 -0.511719 6.492188 -0.527344 6.449219 -0.527344 L 7.78125 -0.527344 C 7.769531 -0.527344 7.753906 -0.523438 7.734375 -0.515625 C 7.6875 -0.503906 7.648438 -0.476562 7.609375 -0.441406 C 7.574219 -0.40625 7.550781 -0.363281 7.535156 -0.320312 C 7.527344 -0.296875 7.523438 -0.28125 7.523438 -0.269531 L 7.523438 -11.546875 C 7.523438 -11.53125 7.527344 -11.515625 7.535156 -11.496094 C 7.550781 -11.453125 7.574219 -11.410156 7.609375 -11.375 C 7.648438 -11.339844 7.6875 -11.3125 7.734375 -11.296875 C 7.753906 -11.292969 7.769531 -11.289062 7.78125 -11.289062 Z M 6.195312 -11.289062 "/></g></g><g style="fill:#b21a22;fill-opacity:1;"><g transform="translate(72.041731, 54.63177)"><path style="stroke:none" d="M 0.316406 -5.300781 L 0.316406 -6.851562 C 0.316406 -7.109375 0.394531 -7.320312 0.554688 -7.480469 C 0.714844 -7.636719 0.921875 -7.71875 1.179688 -7.71875 L 3.847656 -7.71875 C 4.105469 -7.71875 4.316406 -7.636719 4.472656 -7.480469 C 4.632812 -7.320312 4.714844 -7.109375 4.714844 -6.851562 L 4.714844 -5.300781 C 4.714844 -5.042969 4.632812 -4.832031 4.472656 -4.671875 C 4.316406 -4.515625 4.105469 -4.433594 3.847656 -4.433594 L 1.179688 -4.433594 C 0.921875 -4.433594 0.714844 -4.515625 0.554688 -4.671875 C 0.394531 -4.832031 0.316406 -5.042969 0.316406 -5.300781 Z M 1.371094 -5.300781 C 1.371094 -5.296875 1.371094 -5.296875 1.371094 -5.292969 C 1.371094 -5.292969 1.371094 -5.292969 1.371094 -5.296875 C 1.371094 -5.300781 1.367188 -5.308594 1.367188 -5.320312 C 1.351562 -5.355469 1.332031 -5.390625 1.300781 -5.417969 C 1.269531 -5.449219 1.238281 -5.472656 1.199219 -5.484375 C 1.191406 -5.488281 1.183594 -5.488281 1.175781 -5.488281 C 1.175781 -5.488281 1.179688 -5.488281 1.179688 -5.488281 L 3.847656 -5.488281 C 3.851562 -5.488281 3.851562 -5.488281 3.855469 -5.488281 C 3.855469 -5.488281 3.855469 -5.488281 3.851562 -5.488281 C 3.847656 -5.488281 3.839844 -5.488281 3.828125 -5.484375 C 3.792969 -5.472656 3.757812 -5.449219 3.730469 -5.417969 C 3.699219 -5.390625 3.675781 -5.355469 3.664062 -5.320312 C 3.660156 -5.308594 3.660156 -5.300781 3.660156 -5.296875 C 3.660156 -5.292969 3.660156 -5.292969 3.660156 -5.292969 C 3.660156 -5.296875 3.660156 -5.296875 3.660156 -5.300781 L 3.660156 -6.851562 C 3.660156 -6.855469 3.660156 -6.855469 3.660156 -6.859375 C 3.660156 -6.859375 3.660156 -6.859375 3.660156 -6.855469 C 3.660156 -6.851562 3.660156 -6.84375 3.664062 -6.832031 C 3.675781 -6.796875 3.699219 -6.761719 3.730469 -6.734375 C 3.757812 -6.703125 3.792969 -6.679688 3.828125 -6.667969 C 3.839844 -6.664062 3.847656 -6.664062 3.851562 -6.664062 C 3.855469 -6.664062 3.855469 -6.664062 3.855469 -6.664062 C 3.851562 -6.664062 3.851562 -6.664062 3.847656 -6.664062 L 1.179688 -6.664062 C 1.179688 -6.664062 1.175781 -6.664062 1.175781 -6.664062 C 1.183594 -6.664062 1.191406 -6.664062 1.199219 -6.667969 C 1.238281 -6.679688 1.269531 -6.703125 1.300781 -6.734375 C 1.332031 -6.761719 1.351562 -6.796875 1.367188 -6.832031 C 1.367188 -6.84375 1.371094 -6.851562 1.371094 -6.855469 C 1.371094 -6.859375 1.371094 -6.859375 1.371094 -6.859375 C 1.371094 -6.855469 1.371094 -6.855469 1.371094 -6.851562 Z M 1.371094 -5.300781 "/></g></g><g style="fill:#b21a22;fill-opacity:1;"><g transform="translate(22.680791, 78.163852)"><path style="stroke:none" d="M 3.273438 -12.34375 L 5.164062 -12.34375 C 6.109375 -12.34375 6.839844 -12.085938 7.351562 -11.570312 C 7.867188 -11.058594 8.121094 -10.328125 8.121094 -9.382812 L 8.121094 -8.269531 C 8.121094 -8.035156 8.050781 -7.84375 7.902344 -7.695312 C 7.753906 -7.546875 7.5625 -7.472656 7.324219 -7.472656 L 5.621094 -7.472656 C 5.386719 -7.472656 5.191406 -7.546875 5.046875 -7.695312 C 4.898438 -7.84375 4.824219 -8.035156 4.824219 -8.269531 L 4.824219 -8.980469 C 4.824219 -9.035156 4.816406 -9.078125 4.808594 -9.109375 C 4.804688 -9.113281 4.804688 -9.117188 4.804688 -9.121094 C 4.804688 -9.117188 4.804688 -9.117188 4.808594 -9.113281 C 4.8125 -9.109375 4.8125 -9.109375 4.816406 -9.109375 C 4.8125 -9.109375 4.808594 -9.109375 4.804688 -9.113281 C 4.773438 -9.121094 4.730469 -9.128906 4.675781 -9.128906 L 3.746094 -9.128906 C 3.691406 -9.128906 3.648438 -9.121094 3.617188 -9.113281 C 3.613281 -9.109375 3.609375 -9.109375 3.605469 -9.109375 C 3.609375 -9.109375 3.609375 -9.109375 3.613281 -9.113281 C 3.617188 -9.117188 3.617188 -9.117188 3.621094 -9.121094 C 3.617188 -9.117188 3.617188 -9.113281 3.613281 -9.109375 C 3.605469 -9.078125 3.597656 -9.035156 3.597656 -8.980469 L 3.597656 -7.542969 L 3.070312 -7.542969 L 3.234375 -8.046875 L 7.320312 -6.730469 C 7.578125 -6.640625 7.777344 -6.496094 7.917969 -6.300781 C 8.054688 -6.105469 8.121094 -5.871094 8.121094 -5.605469 L 8.121094 -2.429688 C 8.121094 -1.5 7.867188 -0.773438 7.355469 -0.253906 C 6.839844 0.265625 6.109375 0.527344 5.164062 0.527344 L 3.273438 0.527344 C 2.339844 0.527344 1.613281 0.269531 1.09375 -0.25 C 0.574219 -0.769531 0.316406 -1.496094 0.316406 -2.429688 L 0.316406 -3.527344 C 0.316406 -3.761719 0.390625 -3.957031 0.539062 -4.101562 C 0.6875 -4.25 0.878906 -4.324219 1.113281 -4.324219 L 2.820312 -4.324219 C 3.054688 -4.324219 3.246094 -4.25 3.394531 -4.101562 C 3.542969 -3.957031 3.617188 -3.761719 3.617188 -3.527344 L 3.617188 -2.820312 C 3.617188 -2.761719 3.621094 -2.71875 3.632812 -2.691406 C 3.632812 -2.683594 3.636719 -2.679688 3.636719 -2.679688 C 3.636719 -2.679688 3.632812 -2.683594 3.628906 -2.683594 C 3.628906 -2.6875 3.625 -2.691406 3.625 -2.691406 C 3.625 -2.691406 3.628906 -2.6875 3.636719 -2.6875 C 3.664062 -2.675781 3.707031 -2.671875 3.765625 -2.671875 L 4.675781 -2.671875 C 4.730469 -2.671875 4.773438 -2.675781 4.804688 -2.6875 C 4.808594 -2.6875 4.8125 -2.691406 4.816406 -2.691406 C 4.8125 -2.691406 4.8125 -2.6875 4.808594 -2.683594 C 4.804688 -2.683594 4.804688 -2.679688 4.804688 -2.679688 C 4.804688 -2.679688 4.804688 -2.683594 4.808594 -2.691406 C 4.816406 -2.71875 4.824219 -2.761719 4.824219 -2.820312 L 4.824219 -4.523438 L 5.351562 -4.523438 L 5.1875 -4.023438 L 1.136719 -5.339844 C 0.875 -5.425781 0.675781 -5.566406 0.53125 -5.761719 C 0.386719 -5.957031 0.316406 -6.191406 0.316406 -6.464844 L 0.316406 -9.382812 C 0.316406 -10.332031 0.578125 -11.0625 1.097656 -11.574219 C 1.617188 -12.085938 2.34375 -12.34375 3.273438 -12.34375 Z M 3.273438 -11.289062 C 2.632812 -11.289062 2.152344 -11.132812 1.839844 -10.824219 C 1.527344 -10.515625 1.371094 -10.035156 1.371094 -9.382812 L 1.371094 -6.464844 C 1.371094 -6.421875 1.375 -6.394531 1.382812 -6.382812 C 1.394531 -6.371094 1.421875 -6.355469 1.460938 -6.339844 L 5.878906 -4.90625 L 5.878906 -2.820312 C 5.878906 -2.449219 5.769531 -2.15625 5.554688 -1.9375 C 5.339844 -1.722656 5.046875 -1.617188 4.675781 -1.617188 L 3.765625 -1.617188 C 3.394531 -1.617188 3.101562 -1.722656 2.882812 -1.9375 C 2.667969 -2.15625 2.5625 -2.449219 2.5625 -2.820312 L 2.5625 -3.527344 C 2.5625 -3.515625 2.566406 -3.5 2.570312 -3.480469 C 2.585938 -3.433594 2.613281 -3.394531 2.648438 -3.355469 C 2.683594 -3.320312 2.726562 -3.296875 2.769531 -3.28125 C 2.789062 -3.273438 2.808594 -3.269531 2.820312 -3.269531 L 1.113281 -3.269531 C 1.125 -3.269531 1.140625 -3.273438 1.164062 -3.28125 C 1.207031 -3.296875 1.25 -3.320312 1.285156 -3.355469 C 1.320312 -3.394531 1.347656 -3.433594 1.359375 -3.480469 C 1.367188 -3.5 1.371094 -3.515625 1.371094 -3.527344 L 1.371094 -2.429688 C 1.371094 -1.789062 1.527344 -1.3125 1.839844 -0.996094 C 2.15625 -0.683594 2.632812 -0.527344 3.273438 -0.527344 L 5.164062 -0.527344 C 5.816406 -0.527344 6.296875 -0.683594 6.605469 -0.996094 C 6.914062 -1.308594 7.066406 -1.789062 7.066406 -2.429688 L 7.066406 -5.605469 C 7.066406 -5.648438 7.0625 -5.679688 7.054688 -5.691406 C 7.046875 -5.703125 7.027344 -5.714844 6.996094 -5.726562 L 2.542969 -7.160156 L 2.542969 -8.980469 C 2.542969 -9.351562 2.652344 -9.644531 2.867188 -9.859375 C 3.082031 -10.074219 3.375 -10.183594 3.746094 -10.183594 L 4.675781 -10.183594 C 5.046875 -10.183594 5.339844 -10.074219 5.554688 -9.859375 C 5.769531 -9.644531 5.878906 -9.351562 5.878906 -8.980469 L 5.878906 -8.269531 C 5.878906 -8.28125 5.875 -8.300781 5.867188 -8.320312 C 5.851562 -8.363281 5.828125 -8.40625 5.792969 -8.441406 C 5.753906 -8.476562 5.714844 -8.503906 5.667969 -8.519531 C 5.648438 -8.523438 5.632812 -8.527344 5.621094 -8.527344 L 7.324219 -8.527344 C 7.3125 -8.527344 7.296875 -8.523438 7.277344 -8.519531 C 7.230469 -8.503906 7.191406 -8.476562 7.15625 -8.441406 C 7.117188 -8.40625 7.09375 -8.363281 7.078125 -8.320312 C 7.070312 -8.300781 7.066406 -8.28125 7.066406 -8.269531 L 7.066406 -9.382812 C 7.066406 -10.039062 6.914062 -10.519531 6.605469 -10.824219 C 6.296875 -11.132812 5.816406 -11.289062 5.164062 -11.289062 Z M 3.273438 -11.289062 "/></g></g><g style="fill:#b21a22;fill-opacity:1;"><g transform="translate(31.117584, 78.163852)"><path style="stroke:none" d="M 8.140625 -9.382812 L 8.140625 -7.5625 C 8.140625 -7.324219 8.066406 -7.132812 7.917969 -6.984375 C 7.769531 -6.839844 7.578125 -6.765625 7.34375 -6.765625 L 5.753906 -6.765625 C 5.519531 -6.765625 5.328125 -6.839844 5.179688 -6.984375 C 5.03125 -7.132812 4.957031 -7.324219 4.957031 -7.5625 L 4.957031 -8.945312 C 4.957031 -9 4.953125 -9.042969 4.941406 -9.074219 C 4.941406 -9.078125 4.941406 -9.082031 4.9375 -9.085938 C 4.941406 -9.082031 4.941406 -9.082031 4.945312 -9.078125 C 4.945312 -9.078125 4.949219 -9.074219 4.949219 -9.074219 C 4.949219 -9.074219 4.945312 -9.078125 4.9375 -9.078125 C 4.910156 -9.089844 4.867188 -9.09375 4.808594 -9.09375 L 3.730469 -9.09375 C 3.675781 -9.09375 3.632812 -9.089844 3.601562 -9.078125 C 3.597656 -9.078125 3.59375 -9.074219 3.589844 -9.074219 C 3.59375 -9.074219 3.59375 -9.078125 3.597656 -9.078125 C 3.597656 -9.082031 3.601562 -9.082031 3.601562 -9.085938 C 3.601562 -9.082031 3.597656 -9.078125 3.597656 -9.074219 C 3.585938 -9.042969 3.582031 -9 3.582031 -8.945312 L 3.582031 -2.820312 C 3.582031 -2.761719 3.585938 -2.71875 3.597656 -2.691406 C 3.597656 -2.683594 3.601562 -2.679688 3.601562 -2.679688 C 3.601562 -2.679688 3.597656 -2.683594 3.597656 -2.683594 C 3.59375 -2.6875 3.59375 -2.691406 3.589844 -2.691406 C 3.59375 -2.691406 3.597656 -2.6875 3.601562 -2.6875 C 3.632812 -2.675781 3.675781 -2.671875 3.730469 -2.671875 L 4.808594 -2.671875 C 4.867188 -2.671875 4.910156 -2.675781 4.9375 -2.6875 C 4.945312 -2.6875 4.949219 -2.691406 4.949219 -2.691406 C 4.949219 -2.691406 4.945312 -2.6875 4.945312 -2.683594 C 4.941406 -2.683594 4.941406 -2.679688 4.9375 -2.679688 C 4.941406 -2.679688 4.941406 -2.683594 4.941406 -2.691406 C 4.953125 -2.71875 4.957031 -2.761719 4.957031 -2.820312 L 4.957031 -4.253906 C 4.957031 -4.488281 5.03125 -4.679688 5.179688 -4.828125 C 5.328125 -4.976562 5.519531 -5.050781 5.753906 -5.050781 L 7.34375 -5.050781 C 7.578125 -5.050781 7.769531 -4.976562 7.917969 -4.828125 C 8.066406 -4.679688 8.140625 -4.488281 8.140625 -4.253906 L 8.140625 -2.429688 C 8.140625 -1.496094 7.878906 -0.769531 7.359375 -0.25 C 6.839844 0.269531 6.113281 0.527344 5.183594 0.527344 L 3.292969 0.527344 C 2.359375 0.527344 1.632812 0.269531 1.105469 -0.25 C 0.578125 -0.769531 0.316406 -1.496094 0.316406 -2.429688 L 0.316406 -9.382812 C 0.316406 -10.332031 0.582031 -11.0625 1.109375 -11.578125 C 1.632812 -12.085938 2.359375 -12.34375 3.292969 -12.34375 L 5.183594 -12.34375 C 6.113281 -12.34375 6.839844 -12.085938 7.359375 -11.574219 C 7.878906 -11.0625 8.140625 -10.332031 8.140625 -9.382812 Z M 7.085938 -9.382812 C 7.085938 -10.035156 6.929688 -10.515625 6.617188 -10.824219 C 6.304688 -11.132812 5.824219 -11.289062 5.183594 -11.289062 L 3.292969 -11.289062 C 2.648438 -11.289062 2.164062 -11.132812 1.84375 -10.820312 C 1.527344 -10.515625 1.371094 -10.035156 1.371094 -9.382812 L 1.371094 -2.429688 C 1.371094 -1.789062 1.53125 -1.3125 1.847656 -1 C 2.167969 -0.683594 2.648438 -0.527344 3.292969 -0.527344 L 5.183594 -0.527344 C 5.824219 -0.527344 6.300781 -0.683594 6.613281 -0.996094 C 6.929688 -1.3125 7.085938 -1.789062 7.085938 -2.429688 L 7.085938 -4.253906 C 7.085938 -4.242188 7.089844 -4.226562 7.09375 -4.203125 C 7.109375 -4.160156 7.136719 -4.121094 7.171875 -4.082031 C 7.207031 -4.046875 7.25 -4.019531 7.292969 -4.007812 C 7.3125 -4 7.332031 -3.996094 7.34375 -3.996094 L 5.753906 -3.996094 C 5.769531 -3.996094 5.785156 -4 5.804688 -4.007812 C 5.847656 -4.019531 5.890625 -4.046875 5.925781 -4.082031 C 5.960938 -4.121094 5.988281 -4.160156 6.003906 -4.203125 C 6.007812 -4.226562 6.011719 -4.242188 6.011719 -4.253906 L 6.011719 -2.820312 C 6.011719 -2.449219 5.90625 -2.15625 5.691406 -1.9375 C 5.472656 -1.722656 5.179688 -1.617188 4.808594 -1.617188 L 3.730469 -1.617188 C 3.359375 -1.617188 3.066406 -1.722656 2.851562 -1.9375 C 2.636719 -2.15625 2.527344 -2.449219 2.527344 -2.820312 L 2.527344 -8.945312 C 2.527344 -9.316406 2.636719 -9.609375 2.851562 -9.824219 C 3.066406 -10.039062 3.359375 -10.148438 3.730469 -10.148438 L 4.808594 -10.148438 C 5.179688 -10.148438 5.472656 -10.039062 5.691406 -9.824219 C 5.90625 -9.609375 6.011719 -9.316406 6.011719 -8.945312 L 6.011719 -7.5625 C 6.011719 -7.574219 6.007812 -7.589844 6.003906 -7.609375 C 5.988281 -7.65625 5.960938 -7.695312 5.925781 -7.730469 C 5.890625 -7.769531 5.847656 -7.792969 5.804688 -7.808594 C 5.785156 -7.816406 5.769531 -7.820312 5.753906 -7.820312 L 7.34375 -7.820312 C 7.332031 -7.820312 7.3125 -7.816406 7.292969 -7.808594 C 7.25 -7.792969 7.207031 -7.769531 7.171875 -7.730469 C 7.136719 -7.695312 7.109375 -7.65625 7.09375 -7.609375 C 7.089844 -7.589844 7.085938 -7.574219 7.085938 -7.5625 Z M 7.085938 -9.382812 "/></g></g><g style="fill:#b21a22;fill-opacity:1;"><g transform="translate(39.571253, 78.163852)"><path style="stroke:none" d="M 0.316406 -2.429688 L 0.316406 -9.382812 C 0.316406 -10.332031 0.578125 -11.0625 1.097656 -11.574219 C 1.617188 -12.085938 2.34375 -12.34375 3.273438 -12.34375 L 5.164062 -12.34375 C 6.109375 -12.34375 6.839844 -12.085938 7.351562 -11.570312 C 7.867188 -11.058594 8.121094 -10.328125 8.121094 -9.382812 L 8.121094 -2.429688 C 8.121094 -1.5 7.867188 -0.773438 7.355469 -0.253906 C 6.839844 0.265625 6.109375 0.527344 5.164062 0.527344 L 3.273438 0.527344 C 2.339844 0.527344 1.613281 0.269531 1.09375 -0.25 C 0.574219 -0.769531 0.316406 -1.496094 0.316406 -2.429688 Z M 1.371094 -2.429688 C 1.371094 -1.789062 1.527344 -1.3125 1.839844 -0.996094 C 2.15625 -0.683594 2.632812 -0.527344 3.273438 -0.527344 L 5.164062 -0.527344 C 5.816406 -0.527344 6.296875 -0.683594 6.605469 -0.996094 C 6.914062 -1.308594 7.066406 -1.789062 7.066406 -2.429688 L 7.066406 -9.382812 C 7.066406 -10.039062 6.914062 -10.519531 6.605469 -10.824219 C 6.296875 -11.132812 5.816406 -11.289062 5.164062 -11.289062 L 3.273438 -11.289062 C 2.632812 -11.289062 2.152344 -11.132812 1.839844 -10.824219 C 1.527344 -10.515625 1.371094 -10.035156 1.371094 -9.382812 Z M 3.714844 -2.703125 L 4.792969 -2.703125 C 4.847656 -2.703125 4.890625 -2.710938 4.921875 -2.71875 C 4.929688 -2.722656 4.929688 -2.722656 4.933594 -2.726562 C 4.933594 -2.722656 4.929688 -2.722656 4.925781 -2.71875 C 4.925781 -2.714844 4.921875 -2.714844 4.921875 -2.710938 C 4.921875 -2.714844 4.925781 -2.71875 4.925781 -2.722656 C 4.9375 -2.753906 4.941406 -2.796875 4.941406 -2.851562 L 4.941406 -8.960938 C 4.941406 -9.019531 4.9375 -9.0625 4.925781 -9.089844 C 4.925781 -9.097656 4.921875 -9.101562 4.921875 -9.101562 C 4.921875 -9.101562 4.925781 -9.097656 4.925781 -9.097656 C 4.929688 -9.09375 4.933594 -9.089844 4.933594 -9.089844 C 4.929688 -9.09375 4.929688 -9.09375 4.921875 -9.09375 C 4.890625 -9.105469 4.847656 -9.109375 4.792969 -9.109375 L 3.714844 -9.109375 C 3.65625 -9.109375 3.613281 -9.105469 3.585938 -9.09375 C 3.578125 -9.09375 3.574219 -9.09375 3.574219 -9.089844 C 3.574219 -9.089844 3.578125 -9.09375 3.578125 -9.097656 C 3.582031 -9.097656 3.585938 -9.101562 3.585938 -9.101562 C 3.585938 -9.101562 3.582031 -9.097656 3.582031 -9.089844 C 3.570312 -9.0625 3.566406 -9.019531 3.566406 -8.960938 L 3.566406 -2.851562 C 3.566406 -2.796875 3.570312 -2.753906 3.582031 -2.722656 C 3.582031 -2.71875 3.585938 -2.714844 3.585938 -2.710938 C 3.585938 -2.714844 3.582031 -2.714844 3.578125 -2.71875 C 3.578125 -2.722656 3.574219 -2.722656 3.574219 -2.726562 C 3.574219 -2.722656 3.578125 -2.722656 3.585938 -2.71875 C 3.613281 -2.710938 3.65625 -2.703125 3.714844 -2.703125 Z M 3.714844 -1.648438 C 3.34375 -1.648438 3.050781 -1.757812 2.835938 -1.972656 C 2.617188 -2.1875 2.511719 -2.480469 2.511719 -2.851562 L 2.511719 -8.960938 C 2.511719 -9.332031 2.617188 -9.625 2.835938 -9.84375 C 3.050781 -10.058594 3.34375 -10.164062 3.714844 -10.164062 L 4.792969 -10.164062 C 5.164062 -10.164062 5.457031 -10.058594 5.671875 -9.84375 C 5.886719 -9.625 5.996094 -9.332031 5.996094 -8.960938 L 5.996094 -2.851562 C 5.996094 -2.480469 5.886719 -2.1875 5.671875 -1.972656 C 5.457031 -1.757812 5.164062 -1.648438 4.792969 -1.648438 Z M 3.714844 -1.648438 "/></g></g><g style="fill:#b21a22;fill-opacity:1;"><g transform="translate(48.008046, 78.163852)"><path style="stroke:none" d="M 0.316406 -0.269531 L 0.316406 -11.546875 C 0.316406 -11.78125 0.390625 -11.972656 0.539062 -12.121094 C 0.6875 -12.269531 0.878906 -12.34375 1.113281 -12.34375 L 5.164062 -12.34375 C 6.109375 -12.34375 6.839844 -12.085938 7.351562 -11.570312 C 7.867188 -11.058594 8.121094 -10.328125 8.121094 -9.382812 L 8.121094 -6.078125 C 8.121094 -5.144531 7.867188 -4.417969 7.351562 -3.90625 C 6.839844 -3.394531 6.113281 -3.132812 5.171875 -3.117188 L 3.042969 -3.101562 L 3.039062 -3.628906 L 3.566406 -3.628906 L 3.566406 -0.253906 C 3.566406 -0.015625 3.492188 0.175781 3.34375 0.324219 C 3.195312 0.46875 3.003906 0.542969 2.769531 0.542969 L 1.109375 0.527344 C 0.875 0.527344 0.6875 0.453125 0.539062 0.304688 C 0.390625 0.15625 0.316406 -0.0351562 0.316406 -0.269531 Z M 1.371094 -0.269531 C 1.371094 -0.28125 1.367188 -0.296875 1.359375 -0.320312 C 1.347656 -0.363281 1.320312 -0.40625 1.285156 -0.441406 C 1.25 -0.476562 1.207031 -0.503906 1.164062 -0.515625 C 1.140625 -0.523438 1.128906 -0.527344 1.121094 -0.527344 L 2.769531 -0.511719 C 2.757812 -0.511719 2.738281 -0.507812 2.71875 -0.5 C 2.675781 -0.484375 2.632812 -0.460938 2.597656 -0.421875 C 2.5625 -0.386719 2.535156 -0.347656 2.519531 -0.300781 C 2.515625 -0.28125 2.511719 -0.265625 2.511719 -0.253906 L 2.511719 -4.152344 L 5.15625 -4.171875 C 5.8125 -4.183594 6.296875 -4.34375 6.605469 -4.652344 C 6.914062 -4.960938 7.066406 -5.433594 7.066406 -6.078125 L 7.066406 -9.382812 C 7.066406 -10.039062 6.914062 -10.519531 6.605469 -10.824219 C 6.296875 -11.132812 5.816406 -11.289062 5.164062 -11.289062 L 1.113281 -11.289062 C 1.125 -11.289062 1.140625 -11.292969 1.164062 -11.296875 C 1.207031 -11.3125 1.25 -11.339844 1.285156 -11.375 C 1.320312 -11.410156 1.347656 -11.453125 1.359375 -11.496094 C 1.367188 -11.515625 1.371094 -11.53125 1.371094 -11.546875 Z M 3.03125 -6.332031 L 4.722656 -6.351562 C 4.78125 -6.351562 4.824219 -6.355469 4.855469 -6.367188 C 4.859375 -6.367188 4.863281 -6.371094 4.867188 -6.371094 C 4.863281 -6.371094 4.863281 -6.367188 4.859375 -6.363281 C 4.855469 -6.363281 4.855469 -6.359375 4.855469 -6.359375 C 4.855469 -6.359375 4.855469 -6.363281 4.859375 -6.371094 C 4.867188 -6.398438 4.875 -6.441406 4.875 -6.5 L 4.875 -8.960938 C 4.875 -9.019531 4.867188 -9.0625 4.859375 -9.089844 C 4.855469 -9.097656 4.855469 -9.101562 4.855469 -9.101562 C 4.855469 -9.101562 4.855469 -9.097656 4.859375 -9.097656 C 4.863281 -9.09375 4.863281 -9.089844 4.867188 -9.089844 C 4.863281 -9.09375 4.859375 -9.09375 4.855469 -9.09375 C 4.824219 -9.105469 4.78125 -9.109375 4.726562 -9.109375 L 3.042969 -9.09375 L 3.039062 -9.621094 L 3.566406 -9.621094 L 3.566406 -5.804688 L 3.039062 -5.804688 Z M 2.511719 -5.273438 L 2.511719 -10.144531 L 4.726562 -10.164062 C 5.097656 -10.164062 5.390625 -10.058594 5.605469 -9.84375 C 5.820312 -9.625 5.929688 -9.332031 5.929688 -8.960938 L 5.929688 -6.5 C 5.929688 -6.128906 5.820312 -5.835938 5.605469 -5.617188 C 5.390625 -5.402344 5.097656 -5.296875 4.730469 -5.296875 L 3.042969 -5.277344 Z M 2.511719 -5.273438 "/></g></g><g style="fill:#b21a22;fill-opacity:1;"><g transform="translate(56.444838, 78.163852)"><path style="stroke:none" d="M 8.105469 -11.546875 L 8.105469 -9.855469 C 8.105469 -9.621094 8.035156 -9.429688 7.894531 -9.28125 C 7.746094 -9.121094 7.550781 -9.042969 7.308594 -9.042969 L 3.140625 -9.042969 L 3.140625 -9.570312 L 3.667969 -9.570312 L 3.667969 -6.972656 L 3.140625 -6.972656 L 3.140625 -7.5 L 6.3125 -7.5 C 6.554688 -7.5 6.75 -7.417969 6.898438 -7.261719 C 7.039062 -7.113281 7.109375 -6.917969 7.109375 -6.683594 L 7.109375 -5.011719 C 7.109375 -4.777344 7.039062 -4.585938 6.898438 -4.4375 C 6.75 -4.277344 6.554688 -4.199219 6.3125 -4.199219 L 3.140625 -4.199219 L 3.140625 -4.726562 L 3.667969 -4.726562 L 3.667969 -2.226562 L 3.140625 -2.226562 L 3.140625 -2.753906 L 7.308594 -2.753906 C 7.542969 -2.753906 7.734375 -2.679688 7.882812 -2.535156 C 8.03125 -2.386719 8.105469 -2.195312 8.105469 -1.957031 L 8.105469 -0.269531 C 8.105469 -0.0351562 8.03125 0.15625 7.882812 0.304688 C 7.734375 0.453125 7.542969 0.527344 7.308594 0.527344 L 1.097656 0.527344 C 0.859375 0.527344 0.667969 0.449219 0.523438 0.292969 C 0.386719 0.148438 0.316406 -0.0390625 0.316406 -0.269531 L 0.316406 -11.546875 C 0.316406 -11.773438 0.386719 -11.960938 0.523438 -12.109375 C 0.667969 -12.265625 0.859375 -12.34375 1.097656 -12.34375 L 7.308594 -12.34375 C 7.542969 -12.34375 7.734375 -12.269531 7.882812 -12.121094 C 8.03125 -11.972656 8.105469 -11.78125 8.105469 -11.546875 Z M 7.050781 -11.546875 C 7.050781 -11.53125 7.054688 -11.515625 7.0625 -11.496094 C 7.078125 -11.453125 7.101562 -11.410156 7.136719 -11.375 C 7.175781 -11.339844 7.214844 -11.3125 7.261719 -11.296875 C 7.28125 -11.292969 7.296875 -11.289062 7.308594 -11.289062 L 1.097656 -11.289062 C 1.164062 -11.289062 1.230469 -11.320312 1.292969 -11.386719 C 1.324219 -11.421875 1.351562 -11.460938 1.363281 -11.507812 C 1.367188 -11.523438 1.371094 -11.535156 1.371094 -11.546875 L 1.371094 -0.269531 C 1.371094 -0.277344 1.367188 -0.292969 1.363281 -0.308594 C 1.351562 -0.351562 1.324219 -0.390625 1.292969 -0.429688 C 1.230469 -0.496094 1.164062 -0.527344 1.097656 -0.527344 L 7.308594 -0.527344 C 7.296875 -0.527344 7.28125 -0.523438 7.261719 -0.515625 C 7.214844 -0.503906 7.175781 -0.476562 7.136719 -0.441406 C 7.101562 -0.40625 7.078125 -0.363281 7.0625 -0.320312 C 7.054688 -0.296875 7.050781 -0.28125 7.050781 -0.269531 L 7.050781 -1.957031 C 7.050781 -1.945312 7.054688 -1.929688 7.0625 -1.910156 C 7.078125 -1.863281 7.101562 -1.824219 7.136719 -1.789062 C 7.175781 -1.75 7.214844 -1.726562 7.261719 -1.710938 C 7.28125 -1.703125 7.296875 -1.699219 7.308594 -1.699219 L 2.613281 -1.699219 L 2.613281 -5.253906 L 6.3125 -5.253906 C 6.296875 -5.253906 6.277344 -5.25 6.253906 -5.242188 C 6.207031 -5.226562 6.167969 -5.199219 6.132812 -5.160156 C 6.097656 -5.125 6.074219 -5.085938 6.0625 -5.046875 C 6.058594 -5.03125 6.054688 -5.019531 6.054688 -5.011719 L 6.054688 -6.683594 C 6.054688 -6.679688 6.058594 -6.667969 6.0625 -6.652344 C 6.074219 -6.609375 6.097656 -6.574219 6.132812 -6.539062 C 6.167969 -6.5 6.207031 -6.472656 6.253906 -6.457031 C 6.277344 -6.449219 6.296875 -6.445312 6.3125 -6.445312 L 2.613281 -6.445312 L 2.613281 -10.097656 L 7.308594 -10.097656 C 7.292969 -10.097656 7.273438 -10.09375 7.25 -10.085938 C 7.203125 -10.070312 7.164062 -10.042969 7.128906 -10.003906 C 7.09375 -9.96875 7.070312 -9.929688 7.058594 -9.890625 C 7.054688 -9.875 7.050781 -9.863281 7.050781 -9.855469 Z M 7.050781 -11.546875 "/></g></g><g style="fill:#b21a22;fill-opacity:1;"><g transform="translate(64.864755, 78.163852)"><path style="stroke:none" d="M 3.273438 -12.34375 L 5.164062 -12.34375 C 6.109375 -12.34375 6.839844 -12.085938 7.351562 -11.570312 C 7.867188 -11.058594 8.121094 -10.328125 8.121094 -9.382812 L 8.121094 -8.269531 C 8.121094 -8.035156 8.050781 -7.84375 7.902344 -7.695312 C 7.753906 -7.546875 7.5625 -7.472656 7.324219 -7.472656 L 5.621094 -7.472656 C 5.386719 -7.472656 5.191406 -7.546875 5.046875 -7.695312 C 4.898438 -7.84375 4.824219 -8.035156 4.824219 -8.269531 L 4.824219 -8.980469 C 4.824219 -9.035156 4.816406 -9.078125 4.808594 -9.109375 C 4.804688 -9.113281 4.804688 -9.117188 4.804688 -9.121094 C 4.804688 -9.117188 4.804688 -9.117188 4.808594 -9.113281 C 4.8125 -9.109375 4.8125 -9.109375 4.816406 -9.109375 C 4.8125 -9.109375 4.808594 -9.109375 4.804688 -9.113281 C 4.773438 -9.121094 4.730469 -9.128906 4.675781 -9.128906 L 3.746094 -9.128906 C 3.691406 -9.128906 3.648438 -9.121094 3.617188 -9.113281 C 3.613281 -9.109375 3.609375 -9.109375 3.605469 -9.109375 C 3.609375 -9.109375 3.609375 -9.109375 3.613281 -9.113281 C 3.617188 -9.117188 3.617188 -9.117188 3.621094 -9.121094 C 3.617188 -9.117188 3.617188 -9.113281 3.613281 -9.109375 C 3.605469 -9.078125 3.597656 -9.035156 3.597656 -8.980469 L 3.597656 -7.542969 L 3.070312 -7.542969 L 3.234375 -8.046875 L 7.320312 -6.730469 C 7.578125 -6.640625 7.777344 -6.496094 7.917969 -6.300781 C 8.054688 -6.105469 8.121094 -5.871094 8.121094 -5.605469 L 8.121094 -2.429688 C 8.121094 -1.5 7.867188 -0.773438 7.355469 -0.253906 C 6.839844 0.265625 6.109375 0.527344 5.164062 0.527344 L 3.273438 0.527344 C 2.339844 0.527344 1.613281 0.269531 1.09375 -0.25 C 0.574219 -0.769531 0.316406 -1.496094 0.316406 -2.429688 L 0.316406 -3.527344 C 0.316406 -3.761719 0.390625 -3.957031 0.539062 -4.101562 C 0.6875 -4.25 0.878906 -4.324219 1.113281 -4.324219 L 2.820312 -4.324219 C 3.054688 -4.324219 3.246094 -4.25 3.394531 -4.101562 C 3.542969 -3.957031 3.617188 -3.761719 3.617188 -3.527344 L 3.617188 -2.820312 C 3.617188 -2.761719 3.621094 -2.71875 3.632812 -2.691406 C 3.632812 -2.683594 3.636719 -2.679688 3.636719 -2.679688 C 3.636719 -2.679688 3.632812 -2.683594 3.628906 -2.683594 C 3.628906 -2.6875 3.625 -2.691406 3.625 -2.691406 C 3.625 -2.691406 3.628906 -2.6875 3.636719 -2.6875 C 3.664062 -2.675781 3.707031 -2.671875 3.765625 -2.671875 L 4.675781 -2.671875 C 4.730469 -2.671875 4.773438 -2.675781 4.804688 -2.6875 C 4.808594 -2.6875 4.8125 -2.691406 4.816406 -2.691406 C 4.8125 -2.691406 4.8125 -2.6875 4.808594 -2.683594 C 4.804688 -2.683594 4.804688 -2.679688 4.804688 -2.679688 C 4.804688 -2.679688 4.804688 -2.683594 4.808594 -2.691406 C 4.816406 -2.71875 4.824219 -2.761719 4.824219 -2.820312 L 4.824219 -4.523438 L 5.351562 -4.523438 L 5.1875 -4.023438 L 1.136719 -5.339844 C 0.875 -5.425781 0.675781 -5.566406 0.53125 -5.761719 C 0.386719 -5.957031 0.316406 -6.191406 0.316406 -6.464844 L 0.316406 -9.382812 C 0.316406 -10.332031 0.578125 -11.0625 1.097656 -11.574219 C 1.617188 -12.085938 2.34375 -12.34375 3.273438 -12.34375 Z M 3.273438 -11.289062 C 2.632812 -11.289062 2.152344 -11.132812 1.839844 -10.824219 C 1.527344 -10.515625 1.371094 -10.035156 1.371094 -9.382812 L 1.371094 -6.464844 C 1.371094 -6.421875 1.375 -6.394531 1.382812 -6.382812 C 1.394531 -6.371094 1.421875 -6.355469 1.460938 -6.339844 L 5.878906 -4.90625 L 5.878906 -2.820312 C 5.878906 -2.449219 5.769531 -2.15625 5.554688 -1.9375 C 5.339844 -1.722656 5.046875 -1.617188 4.675781 -1.617188 L 3.765625 -1.617188 C 3.394531 -1.617188 3.101562 -1.722656 2.882812 -1.9375 C 2.667969 -2.15625 2.5625 -2.449219 2.5625 -2.820312 L 2.5625 -3.527344 C 2.5625 -3.515625 2.566406 -3.5 2.570312 -3.480469 C 2.585938 -3.433594 2.613281 -3.394531 2.648438 -3.355469 C 2.683594 -3.320312 2.726562 -3.296875 2.769531 -3.28125 C 2.789062 -3.273438 2.808594 -3.269531 2.820312 -3.269531 L 1.113281 -3.269531 C 1.125 -3.269531 1.140625 -3.273438 1.164062 -3.28125 C 1.207031 -3.296875 1.25 -3.320312 1.285156 -3.355469 C 1.320312 -3.394531 1.347656 -3.433594 1.359375 -3.480469 C 1.367188 -3.5 1.371094 -3.515625 1.371094 -3.527344 L 1.371094 -2.429688 C 1.371094 -1.789062 1.527344 -1.3125 1.839844 -0.996094 C 2.15625 -0.683594 2.632812 -0.527344 3.273438 -0.527344 L 5.164062 -0.527344 C 5.816406 -0.527344 6.296875 -0.683594 6.605469 -0.996094 C 6.914062 -1.308594 7.066406 -1.789062 7.066406 -2.429688 L 7.066406 -5.605469 C 7.066406 -5.648438 7.0625 -5.679688 7.054688 -5.691406 C 7.046875 -5.703125 7.027344 -5.714844 6.996094 -5.726562 L 2.542969 -7.160156 L 2.542969 -8.980469 C 2.542969 -9.351562 2.652344 -9.644531 2.867188 -9.859375 C 3.082031 -10.074219 3.375 -10.183594 3.746094 -10.183594 L 4.675781 -10.183594 C 5.046875 -10.183594 5.339844 -10.074219 5.554688 -9.859375 C 5.769531 -9.644531 5.878906 -9.351562 5.878906 -8.980469 L 5.878906 -8.269531 C 5.878906 -8.28125 5.875 -8.300781 5.867188 -8.320312 C 5.851562 -8.363281 5.828125 -8.40625 5.792969 -8.441406 C 5.753906 -8.476562 5.714844 -8.503906 5.667969 -8.519531 C 5.648438 -8.523438 5.632812 -8.527344 5.621094 -8.527344 L 7.324219 -8.527344 C 7.3125 -8.527344 7.296875 -8.523438 7.277344 -8.519531 C 7.230469 -8.503906 7.191406 -8.476562 7.15625 -8.441406 C 7.117188 -8.40625 7.09375 -8.363281 7.078125 -8.320312 C 7.070312 -8.300781 7.066406 -8.28125 7.066406 -8.269531 L 7.066406 -9.382812 C 7.066406 -10.039062 6.914062 -10.519531 6.605469 -10.824219 C 6.296875 -11.132812 5.816406 -11.289062 5.164062 -11.289062 Z M 3.273438 -11.289062 "/></g></g><g style="fill:#060705;fill-opacity:1;"><g transform="translate(18.482454, 31.099687)"><path style="stroke:none" d="M 3.28125 -11.8125 L 5.15625 -11.8125 C 5.957031 -11.8125 6.5625 -11.601562 6.96875 -11.1875 C 7.382812 -10.78125 7.59375 -10.175781 7.59375 -9.375 L 7.59375 -8.265625 C 7.59375 -8.085938 7.503906 -8 7.328125 -8 L 5.625 -8 C 5.4375 -8 5.34375 -8.085938 5.34375 -8.265625 L 5.34375 -8.984375 C 5.34375 -9.429688 5.117188 -9.65625 4.671875 -9.65625 L 3.75 -9.65625 C 3.300781 -9.65625 3.078125 -9.429688 3.078125 -8.984375 L 3.078125 -7.546875 L 7.15625 -6.234375 C 7.445312 -6.128906 7.59375 -5.921875 7.59375 -5.609375 L 7.59375 -2.4375 C 7.59375 -1.644531 7.382812 -1.039062 6.96875 -0.625 C 6.5625 -0.207031 5.957031 0 5.15625 0 L 3.28125 0 C 2.488281 0 1.882812 -0.207031 1.46875 -0.625 C 1.050781 -1.039062 0.84375 -1.644531 0.84375 -2.4375 L 0.84375 -3.53125 C 0.84375 -3.707031 0.929688 -3.796875 1.109375 -3.796875 L 2.8125 -3.796875 C 3 -3.796875 3.09375 -3.707031 3.09375 -3.53125 L 3.09375 -2.8125 C 3.09375 -2.363281 3.316406 -2.140625 3.765625 -2.140625 L 4.671875 -2.140625 C 5.117188 -2.140625 5.34375 -2.363281 5.34375 -2.8125 L 5.34375 -4.515625 L 1.296875 -5.84375 C 0.992188 -5.9375 0.84375 -6.144531 0.84375 -6.46875 L 0.84375 -9.375 C 0.84375 -10.175781 1.050781 -10.78125 1.46875 -11.1875 C 1.882812 -11.601562 2.488281 -11.8125 3.28125 -11.8125 Z M 3.28125 -11.8125 "/></g></g><g style="fill:#060705;fill-opacity:1;"><g transform="translate(26.919246, 31.099687)"><path style="stroke:none" d="M 1.109375 0 L 2.875 0 C 3.050781 0 3.140625 -0.0859375 3.140625 -0.265625 L 3.140625 -11.546875 C 3.140625 -11.722656 3.050781 -11.8125 2.875 -11.8125 L 1.109375 -11.8125 C 0.929688 -11.8125 0.84375 -11.722656 0.84375 -11.546875 L 0.84375 -0.265625 C 0.84375 -0.0859375 0.929688 0 1.109375 0 Z M 1.109375 0 "/></g></g><g style="fill:#060705;fill-opacity:1;"><g transform="translate(30.90141, 31.099687)"><path style="stroke:none" d="M 7.890625 -11.8125 L 10.125 -11.8125 C 10.351562 -11.8125 10.46875 -11.695312 10.46875 -11.46875 L 10.46875 -0.34375 C 10.46875 -0.113281 10.351562 0 10.125 0 L 8.5625 0 C 8.332031 0 8.21875 -0.113281 8.21875 -0.34375 L 8.21875 -6.96875 L 8.09375 -6.96875 L 6.515625 -0.28125 C 6.453125 -0.09375 6.328125 0 6.140625 0 L 5.140625 0 C 4.953125 0 4.832031 -0.09375 4.78125 -0.28125 L 3.1875 -6.96875 L 3.078125 -6.96875 L 3.078125 -0.34375 C 3.078125 -0.113281 2.960938 0 2.734375 0 L 1.1875 0 C 0.957031 0 0.84375 -0.113281 0.84375 -0.34375 L 0.84375 -11.46875 C 0.84375 -11.695312 0.957031 -11.8125 1.1875 -11.8125 L 3.40625 -11.8125 C 3.601562 -11.8125 3.726562 -11.71875 3.78125 -11.53125 L 5.65625 -4 L 7.53125 -11.53125 C 7.582031 -11.71875 7.703125 -11.8125 7.890625 -11.8125 Z M 7.890625 -11.8125 "/></g></g><g style="fill:#060705;fill-opacity:1;"><g transform="translate(42.20671, 31.099687)"><path style="stroke:none" d="M 0.84375 -0.265625 L 0.84375 -11.546875 C 0.84375 -11.722656 0.929688 -11.8125 1.109375 -11.8125 L 5.15625 -11.8125 C 5.957031 -11.8125 6.5625 -11.601562 6.96875 -11.1875 C 7.382812 -10.78125 7.59375 -10.175781 7.59375 -9.375 L 7.59375 -6.078125 C 7.59375 -5.285156 7.382812 -4.679688 6.96875 -4.265625 C 6.5625 -3.859375 5.957031 -3.648438 5.15625 -3.640625 L 3.03125 -3.625 L 3.03125 -0.25 C 3.03125 -0.0703125 2.941406 0.015625 2.765625 0.015625 L 1.109375 0 C 0.929688 0 0.84375 -0.0859375 0.84375 -0.265625 Z M 3.03125 -5.8125 L 4.71875 -5.828125 C 5.175781 -5.828125 5.40625 -6.050781 5.40625 -6.5 L 5.40625 -8.953125 C 5.40625 -9.410156 5.175781 -9.640625 4.71875 -9.640625 L 3.03125 -9.625 Z M 3.03125 -5.8125 "/></g></g><g style="fill:#060705;fill-opacity:1;"><g transform="translate(50.643503, 31.099687)"><path style="stroke:none" d="M 3.140625 -2.234375 L 3.140625 -11.546875 C 3.140625 -11.722656 3.050781 -11.8125 2.875 -11.8125 L 1.109375 -11.8125 C 0.929688 -11.8125 0.84375 -11.722656 0.84375 -11.546875 L 0.84375 -0.265625 C 0.84375 -0.0859375 0.929688 0 1.109375 0 L 6.484375 0 C 6.660156 0 6.75 -0.0859375 6.75 -0.265625 L 6.75 -1.953125 C 6.75 -2.140625 6.660156 -2.234375 6.484375 -2.234375 Z M 3.140625 -2.234375 "/></g></g><g style="fill:#060705;fill-opacity:1;"><g transform="translate(58.236616, 31.099687)"><path style="stroke:none" d="M 7.578125 -11.546875 L 7.578125 -9.859375 C 7.578125 -9.660156 7.488281 -9.5625 7.3125 -9.5625 L 3.140625 -9.5625 L 3.140625 -6.96875 L 6.3125 -6.96875 C 6.488281 -6.96875 6.578125 -6.875 6.578125 -6.6875 L 6.578125 -5.015625 C 6.578125 -4.816406 6.488281 -4.71875 6.3125 -4.71875 L 3.140625 -4.71875 L 3.140625 -2.234375 L 7.3125 -2.234375 C 7.488281 -2.234375 7.578125 -2.140625 7.578125 -1.953125 L 7.578125 -0.265625 C 7.578125 -0.0859375 7.488281 0 7.3125 0 L 1.09375 0 C 0.925781 0 0.84375 -0.0859375 0.84375 -0.265625 L 0.84375 -11.546875 C 0.84375 -11.722656 0.925781 -11.8125 1.09375 -11.8125 L 7.3125 -11.8125 C 7.488281 -11.8125 7.578125 -11.722656 7.578125 -11.546875 Z M 7.578125 -11.546875 "/></g></g><g style="fill:#060705;fill-opacity:1;"><g transform="translate(66.656532, 31.099687)"><path style="stroke:none" d="M 0 2.265625 L 0 0.703125 C 0 0.484375 0.113281 0.375 0.34375 0.375 L 10.515625 0.375 C 10.734375 0.375 10.84375 0.484375 10.84375 0.703125 L 10.84375 2.265625 C 10.84375 2.484375 10.734375 2.59375 10.515625 2.59375 L 0.34375 2.59375 C 0.113281 2.59375 0 2.484375 0 2.265625 Z M 0 2.265625 "/></g></g><g style="fill:#060705;fill-opacity:1;"><g transform="translate(18.92368, 54.63177)"><path style="stroke:none" d="M 7.609375 -9.375 L 7.609375 -7.5625 C 7.609375 -7.382812 7.519531 -7.296875 7.34375 -7.296875 L 5.75 -7.296875 C 5.570312 -7.296875 5.484375 -7.382812 5.484375 -7.5625 L 5.484375 -8.9375 C 5.484375 -9.394531 5.257812 -9.625 4.8125 -9.625 L 3.734375 -9.625 C 3.273438 -9.625 3.046875 -9.394531 3.046875 -8.9375 L 3.046875 -2.8125 C 3.046875 -2.363281 3.273438 -2.140625 3.734375 -2.140625 L 4.8125 -2.140625 C 5.257812 -2.140625 5.484375 -2.363281 5.484375 -2.8125 L 5.484375 -4.25 C 5.484375 -4.425781 5.570312 -4.515625 5.75 -4.515625 L 7.34375 -4.515625 C 7.519531 -4.515625 7.609375 -4.425781 7.609375 -4.25 L 7.609375 -2.4375 C 7.609375 -1.644531 7.398438 -1.039062 6.984375 -0.625 C 6.566406 -0.207031 5.96875 0 5.1875 0 L 3.296875 0 C 2.503906 0 1.894531 -0.207031 1.46875 -0.625 C 1.050781 -1.039062 0.84375 -1.644531 0.84375 -2.4375 L 0.84375 -9.375 C 0.84375 -10.175781 1.050781 -10.78125 1.46875 -11.1875 C 1.894531 -11.601562 2.503906 -11.8125 3.296875 -11.8125 L 5.1875 -11.8125 C 5.96875 -11.8125 6.566406 -11.601562 6.984375 -11.1875 C 7.398438 -10.78125 7.609375 -10.175781 7.609375 -9.375 Z M 7.609375 -9.375 "/></g></g><g style="fill:#060705;fill-opacity:1;"><g transform="translate(27.377349, 54.63177)"><path style="stroke:none" d="M 0.84375 -2.4375 L 0.84375 -9.375 C 0.84375 -10.175781 1.050781 -10.78125 1.46875 -11.1875 C 1.882812 -11.601562 2.488281 -11.8125 3.28125 -11.8125 L 5.15625 -11.8125 C 5.957031 -11.8125 6.5625 -11.601562 6.96875 -11.1875 C 7.382812 -10.78125 7.59375 -10.175781 7.59375 -9.375 L 7.59375 -2.4375 C 7.59375 -1.644531 7.382812 -1.039062 6.96875 -0.625 C 6.5625 -0.207031 5.957031 0 5.15625 0 L 3.28125 0 C 2.488281 0 1.882812 -0.207031 1.46875 -0.625 C 1.050781 -1.039062 0.84375 -1.644531 0.84375 -2.4375 Z M 3.71875 -2.171875 L 4.796875 -2.171875 C 5.242188 -2.171875 5.46875 -2.398438 5.46875 -2.859375 L 5.46875 -8.953125 C 5.46875 -9.410156 5.242188 -9.640625 4.796875 -9.640625 L 3.71875 -9.640625 C 3.257812 -9.640625 3.03125 -9.410156 3.03125 -8.953125 L 3.03125 -2.859375 C 3.03125 -2.398438 3.257812 -2.171875 3.71875 -2.171875 Z M 3.71875 -2.171875 "/></g></g><g style="fill:#060705;fill-opacity:1;"><g transform="translate(35.814142, 54.63177)"><path style="stroke:none" d="M 3.140625 -2.234375 L 3.140625 -11.546875 C 3.140625 -11.722656 3.050781 -11.8125 2.875 -11.8125 L 1.109375 -11.8125 C 0.929688 -11.8125 0.84375 -11.722656 0.84375 -11.546875 L 0.84375 -0.265625 C 0.84375 -0.0859375 0.929688 0 1.109375 0 L 6.484375 0 C 6.660156 0 6.75 -0.0859375 6.75 -0.265625 L 6.75 -1.953125 C 6.75 -2.140625 6.660156 -2.234375 6.484375 -2.234375 Z M 3.140625 -2.234375 "/></g></g><g style="fill:#060705;fill-opacity:1;"><g transform="translate(43.407255, 54.63177)"><path style="stroke:none" d="M 5.703125 -11.8125 L 7.25 -11.8125 C 7.34375 -11.8125 7.421875 -11.773438 7.484375 -11.703125 C 7.554688 -11.640625 7.59375 -11.5625 7.59375 -11.46875 L 7.59375 -2.4375 C 7.59375 -1.644531 7.382812 -1.039062 6.96875 -0.625 C 6.5625 -0.207031 5.957031 0 5.15625 0 L 3.28125 0 C 2.488281 0 1.882812 -0.207031 1.46875 -0.625 C 1.050781 -1.039062 0.84375 -1.644531 0.84375 -2.4375 L 0.84375 -11.46875 C 0.84375 -11.5625 0.875 -11.640625 0.9375 -11.703125 C 1.007812 -11.773438 1.09375 -11.8125 1.1875 -11.8125 L 2.796875 -11.8125 C 2.890625 -11.8125 2.96875 -11.773438 3.03125 -11.703125 C 3.101562 -11.640625 3.140625 -11.5625 3.140625 -11.46875 L 3.140625 -2.90625 C 3.140625 -2.457031 3.363281 -2.234375 3.8125 -2.234375 L 4.6875 -2.234375 C 5.132812 -2.234375 5.359375 -2.457031 5.359375 -2.90625 L 5.359375 -11.46875 C 5.359375 -11.5625 5.390625 -11.640625 5.453125 -11.703125 C 5.523438 -11.773438 5.609375 -11.8125 5.703125 -11.8125 Z M 5.703125 -11.8125 "/></g></g><g style="fill:#060705;fill-opacity:1;"><g transform="translate(51.844048, 54.63177)"><path style="stroke:none" d="M 7.890625 -11.8125 L 10.125 -11.8125 C 10.351562 -11.8125 10.46875 -11.695312 10.46875 -11.46875 L 10.46875 -0.34375 C 10.46875 -0.113281 10.351562 0 10.125 0 L 8.5625 0 C 8.332031 0 8.21875 -0.113281 8.21875 -0.34375 L 8.21875 -6.96875 L 8.09375 -6.96875 L 6.515625 -0.28125 C 6.453125 -0.09375 6.328125 0 6.140625 0 L 5.140625 0 C 4.953125 0 4.832031 -0.09375 4.78125 -0.28125 L 3.1875 -6.96875 L 3.078125 -6.96875 L 3.078125 -0.34375 C 3.078125 -0.113281 2.960938 0 2.734375 0 L 1.1875 0 C 0.957031 0 0.84375 -0.113281 0.84375 -0.34375 L 0.84375 -11.46875 C 0.84375 -11.695312 0.957031 -11.8125 1.1875 -11.8125 L 3.40625 -11.8125 C 3.601562 -11.8125 3.726562 -11.71875 3.78125 -11.53125 L 5.65625 -4 L 7.53125 -11.53125 C 7.582031 -11.71875 7.703125 -11.8125 7.890625 -11.8125 Z M 7.890625 -11.8125 "/></g></g><g style="fill:#060705;fill-opacity:1;"><g transform="translate(63.149348, 54.63177)"><path style="stroke:none" d="M 6.1875 -11.8125 L 7.78125 -11.8125 C 7.957031 -11.8125 8.046875 -11.722656 8.046875 -11.546875 L 8.046875 -0.265625 C 8.046875 -0.0859375 7.957031 0 7.78125 0 L 6.453125 0 C 6.316406 0 6.210938 -0.0703125 6.140625 -0.21875 L 2.96875 -6.671875 L 2.96875 -0.265625 C 2.96875 -0.0859375 2.878906 0 2.703125 0 L 1.109375 0 C 0.929688 0 0.84375 -0.0859375 0.84375 -0.265625 L 0.84375 -11.546875 C 0.84375 -11.722656 0.929688 -11.8125 1.109375 -11.8125 L 2.453125 -11.8125 C 2.585938 -11.8125 2.6875 -11.738281 2.75 -11.59375 L 5.921875 -5.140625 L 5.921875 -11.546875 C 5.921875 -11.722656 6.007812 -11.8125 6.1875 -11.8125 Z M 6.1875 -11.8125 "/></g></g><g style="fill:#060705;fill-opacity:1;"><g transform="translate(72.041731, 54.63177)"><path style="stroke:none" d="M 0.84375 -5.296875 L 0.84375 -6.84375 C 0.84375 -7.070312 0.957031 -7.1875 1.1875 -7.1875 L 3.84375 -7.1875 C 4.070312 -7.1875 4.1875 -7.070312 4.1875 -6.84375 L 4.1875 -5.296875 C 4.1875 -5.078125 4.070312 -4.96875 3.84375 -4.96875 L 1.1875 -4.96875 C 0.957031 -4.96875 0.84375 -5.078125 0.84375 -5.296875 Z M 0.84375 -5.296875 "/></g></g><g style="fill:#060705;fill-opacity:1;"><g transform="translate(22.680791, 78.163852)"><path style="stroke:none" d="M 3.28125 -11.8125 L 5.15625 -11.8125 C 5.957031 -11.8125 6.5625 -11.601562 6.96875 -11.1875 C 7.382812 -10.78125 7.59375 -10.175781 7.59375 -9.375 L 7.59375 -8.265625 C 7.59375 -8.085938 7.503906 -8 7.328125 -8 L 5.625 -8 C 5.4375 -8 5.34375 -8.085938 5.34375 -8.265625 L 5.34375 -8.984375 C 5.34375 -9.429688 5.117188 -9.65625 4.671875 -9.65625 L 3.75 -9.65625 C 3.300781 -9.65625 3.078125 -9.429688 3.078125 -8.984375 L 3.078125 -7.546875 L 7.15625 -6.234375 C 7.445312 -6.128906 7.59375 -5.921875 7.59375 -5.609375 L 7.59375 -2.4375 C 7.59375 -1.644531 7.382812 -1.039062 6.96875 -0.625 C 6.5625 -0.207031 5.957031 0 5.15625 0 L 3.28125 0 C 2.488281 0 1.882812 -0.207031 1.46875 -0.625 C 1.050781 -1.039062 0.84375 -1.644531 0.84375 -2.4375 L 0.84375 -3.53125 C 0.84375 -3.707031 0.929688 -3.796875 1.109375 -3.796875 L 2.8125 -3.796875 C 3 -3.796875 3.09375 -3.707031 3.09375 -3.53125 L 3.09375 -2.8125 C 3.09375 -2.363281 3.316406 -2.140625 3.765625 -2.140625 L 4.671875 -2.140625 C 5.117188 -2.140625 5.34375 -2.363281 5.34375 -2.8125 L 5.34375 -4.515625 L 1.296875 -5.84375 C 0.992188 -5.9375 0.84375 -6.144531 0.84375 -6.46875 L 0.84375 -9.375 C 0.84375 -10.175781 1.050781 -10.78125 1.46875 -11.1875 C 1.882812 -11.601562 2.488281 -11.8125 3.28125 -11.8125 Z M 3.28125 -11.8125 "/></g></g><g style="fill:#060705;fill-opacity:1;"><g transform="translate(31.117584, 78.163852)"><path style="stroke:none" d="M 7.609375 -9.375 L 7.609375 -7.5625 C 7.609375 -7.382812 7.519531 -7.296875 7.34375 -7.296875 L 5.75 -7.296875 C 5.570312 -7.296875 5.484375 -7.382812 5.484375 -7.5625 L 5.484375 -8.9375 C 5.484375 -9.394531 5.257812 -9.625 4.8125 -9.625 L 3.734375 -9.625 C 3.273438 -9.625 3.046875 -9.394531 3.046875 -8.9375 L 3.046875 -2.8125 C 3.046875 -2.363281 3.273438 -2.140625 3.734375 -2.140625 L 4.8125 -2.140625 C 5.257812 -2.140625 5.484375 -2.363281 5.484375 -2.8125 L 5.484375 -4.25 C 5.484375 -4.425781 5.570312 -4.515625 5.75 -4.515625 L 7.34375 -4.515625 C 7.519531 -4.515625 7.609375 -4.425781 7.609375 -4.25 L 7.609375 -2.4375 C 7.609375 -1.644531 7.398438 -1.039062 6.984375 -0.625 C 6.566406 -0.207031 5.96875 0 5.1875 0 L 3.296875 0 C 2.503906 0 1.894531 -0.207031 1.46875 -0.625 C 1.050781 -1.039062 0.84375 -1.644531 0.84375 -2.4375 L 0.84375 -9.375 C 0.84375 -10.175781 1.050781 -10.78125 1.46875 -11.1875 C 1.894531 -11.601562 2.503906 -11.8125 3.296875 -11.8125 L 5.1875 -11.8125 C 5.96875 -11.8125 6.566406 -11.601562 6.984375 -11.1875 C 7.398438 -10.78125 7.609375 -10.175781 7.609375 -9.375 Z M 7.609375 -9.375 "/></g></g><g style="fill:#060705;fill-opacity:1;"><g transform="translate(39.571253, 78.163852)"><path style="stroke:none" d="M 0.84375 -2.4375 L 0.84375 -9.375 C 0.84375 -10.175781 1.050781 -10.78125 1.46875 -11.1875 C 1.882812 -11.601562 2.488281 -11.8125 3.28125 -11.8125 L 5.15625 -11.8125 C 5.957031 -11.8125 6.5625 -11.601562 6.96875 -11.1875 C 7.382812 -10.78125 7.59375 -10.175781 7.59375 -9.375 L 7.59375 -2.4375 C 7.59375 -1.644531 7.382812 -1.039062 6.96875 -0.625 C 6.5625 -0.207031 5.957031 0 5.15625 0 L 3.28125 0 C 2.488281 0 1.882812 -0.207031 1.46875 -0.625 C 1.050781 -1.039062 0.84375 -1.644531 0.84375 -2.4375 Z M 3.71875 -2.171875 L 4.796875 -2.171875 C 5.242188 -2.171875 5.46875 -2.398438 5.46875 -2.859375 L 5.46875 -8.953125 C 5.46875 -9.410156 5.242188 -9.640625 4.796875 -9.640625 L 3.71875 -9.640625 C 3.257812 -9.640625 3.03125 -9.410156 3.03125 -8.953125 L 3.03125 -2.859375 C 3.03125 -2.398438 3.257812 -2.171875 3.71875 -2.171875 Z M 3.71875 -2.171875 "/></g></g><g style="fill:#060705;fill-opacity:1;"><g transform="translate(48.008046, 78.163852)"><path style="stroke:none" d="M 0.84375 -0.265625 L 0.84375 -11.546875 C 0.84375 -11.722656 0.929688 -11.8125 1.109375 -11.8125 L 5.15625 -11.8125 C 5.957031 -11.8125 6.5625 -11.601562 6.96875 -11.1875 C 7.382812 -10.78125 7.59375 -10.175781 7.59375 -9.375 L 7.59375 -6.078125 C 7.59375 -5.285156 7.382812 -4.679688 6.96875 -4.265625 C 6.5625 -3.859375 5.957031 -3.648438 5.15625 -3.640625 L 3.03125 -3.625 L 3.03125 -0.25 C 3.03125 -0.0703125 2.941406 0.015625 2.765625 0.015625 L 1.109375 0 C 0.929688 0 0.84375 -0.0859375 0.84375 -0.265625 Z M 3.03125 -5.8125 L 4.71875 -5.828125 C 5.175781 -5.828125 5.40625 -6.050781 5.40625 -6.5 L 5.40625 -8.953125 C 5.40625 -9.410156 5.175781 -9.640625 4.71875 -9.640625 L 3.03125 -9.625 Z M 3.03125 -5.8125 "/></g></g><g style="fill:#060705;fill-opacity:1;"><g transform="translate(56.444838, 78.163852)"><path style="stroke:none" d="M 7.578125 -11.546875 L 7.578125 -9.859375 C 7.578125 -9.660156 7.488281 -9.5625 7.3125 -9.5625 L 3.140625 -9.5625 L 3.140625 -6.96875 L 6.3125 -6.96875 C 6.488281 -6.96875 6.578125 -6.875 6.578125 -6.6875 L 6.578125 -5.015625 C 6.578125 -4.816406 6.488281 -4.71875 6.3125 -4.71875 L 3.140625 -4.71875 L 3.140625 -2.234375 L 7.3125 -2.234375 C 7.488281 -2.234375 7.578125 -2.140625 7.578125 -1.953125 L 7.578125 -0.265625 C 7.578125 -0.0859375 7.488281 0 7.3125 0 L 1.09375 0 C 0.925781 0 0.84375 -0.0859375 0.84375 -0.265625 L 0.84375 -11.546875 C 0.84375 -11.722656 0.925781 -11.8125 1.09375 -11.8125 L 7.3125 -11.8125 C 7.488281 -11.8125 7.578125 -11.722656 7.578125 -11.546875 Z M 7.578125 -11.546875 "/></g></g><g style="fill:#060705;fill-opacity:1;"><g transform="translate(64.864755, 78.163852)"><path style="stroke:none" d="M 3.28125 -11.8125 L 5.15625 -11.8125 C 5.957031 -11.8125 6.5625 -11.601562 6.96875 -11.1875 C 7.382812 -10.78125 7.59375 -10.175781 7.59375 -9.375 L 7.59375 -8.265625 C 7.59375 -8.085938 7.503906 -8 7.328125 -8 L 5.625 -8 C 5.4375 -8 5.34375 -8.085938 5.34375 -8.265625 L 5.34375 -8.984375 C 5.34375 -9.429688 5.117188 -9.65625 4.671875 -9.65625 L 3.75 -9.65625 C 3.300781 -9.65625 3.078125 -9.429688 3.078125 -8.984375 L 3.078125 -7.546875 L 7.15625 -6.234375 C 7.445312 -6.128906 7.59375 -5.921875 7.59375 -5.609375 L 7.59375 -2.4375 C 7.59375 -1.644531 7.382812 -1.039062 6.96875 -0.625 C 6.5625 -0.207031 5.957031 0 5.15625 0 L 3.28125 0 C 2.488281 0 1.882812 -0.207031 1.46875 -0.625 C 1.050781 -1.039062 0.84375 -1.644531 0.84375 -2.4375 L 0.84375 -3.53125 C 0.84375 -3.707031 0.929688 -3.796875 1.109375 -3.796875 L 2.8125 -3.796875 C 3 -3.796875 3.09375 -3.707031 3.09375 -3.53125 L 3.09375 -2.8125 C 3.09375 -2.363281 3.316406 -2.140625 3.765625 -2.140625 L 4.671875 -2.140625 C 5.117188 -2.140625 5.34375 -2.363281 5.34375 -2.8125 L 5.34375 -4.515625 L 1.296875 -5.84375 C 0.992188 -5.9375 0.84375 -6.144531 0.84375 -6.46875 L 0.84375 -9.375 C 0.84375 -10.175781 1.050781 -10.78125 1.46875 -11.1875 C 1.882812 -11.601562 2.488281 -11.8125 3.28125 -11.8125 Z M 3.28125 -11.8125 "/></g></g></g></svg>