<svg xmlns="http://www.w3.org/2000/svg" xmlns:xlink="http://www.w3.org/1999/xlink" width="192" zoomAndPan="magnify" viewBox="0 0 144 143.999998" height="192" preserveAspectRatio="xMidYMid meet" version="1.2"><defs><clipPath id="09c847b7b6"><path d="M 9 0 L 135 0 L 135 144 L 9 144 Z M 9 0 "/></clipPath><clipPath id="062ad92817"><path d="M -21.457031 54.867188 L 103.039062 -17.847656 L 165.503906 89.105469 L 41.007812 161.816406 Z M -21.457031 54.867188 "/></clipPath><clipPath id="09bd9039aa"><path d="M 134.226562 35.65625 L 134.347656 107.300781 L 72.121094 143.644531 L 9.773438 108.34375 L 9.65625 36.695312 L 71.878906 0.351562 Z M 134.226562 35.65625 "/></clipPath><clipPath id="de2c0d0ba8"><path d="M 21.210938 13.683594 L 122.773438 13.683594 L 122.773438 130.261719 L 21.210938 130.261719 Z M 21.210938 13.683594 "/></clipPath></defs><g id="b7a0e60163"><g clip-rule="nonzero" clip-path="url(#09c847b7b6)"><g clip-rule="nonzero" clip-path="url(#062ad92817)"><g clip-rule="nonzero" clip-path="url(#09bd9039aa)"><path style=" stroke:none;fill-rule:nonzero;fill:#65b30e;fill-opacity:1;" d="M -21.457031 54.867188 L 103.039062 -17.847656 L 165.503906 89.105469 L 41.007812 161.816406 Z M -21.457031 54.867188 "/></g></g></g><path style=" stroke:none;fill-rule:nonzero;fill:#87ff00;fill-opacity:1;" d="M 51.679688 52.109375 L 51.613281 52.046875 L 37.261719 66.398438 L 72.113281 101.183594 L 86.46875 86.898438 L 106.960938 66.398438 L 92.609375 52.046875 L 92.609375 51.980469 L 51.617188 51.980469 Z M 51.679688 52.109375 "/><g clip-rule="nonzero" clip-path="url(#de2c0d0ba8)"><path style=" stroke:none;fill-rule:nonzero;fill:#87ff00;fill-opacity:1;" d="M 71.980469 13.765625 L 21.222656 42.863281 L 21.226562 101.058594 L 71.984375 130.15625 L 122.742188 101.058594 L 122.742188 42.863281 L 71.984375 13.769531 Z M 113.039062 95.496094 L 71.980469 119.160156 L 30.921875 95.496094 L 30.925781 48.292969 L 71.984375 24.628906 L 113.042969 48.292969 L 113.042969 95.492188 Z M 113.039062 95.496094 "/></g><g style="fill:#b21a22;fill-opacity:1;"><g transform="translate(16.689576, 63.823343)"><path style="stroke:none" d="M 12.910156 -18.386719 L 12.910156 -15.699219 C 12.910156 -15.324219 12.796875 -15.019531 12.574219 -14.78125 C 12.335938 -14.527344 12.023438 -14.402344 11.640625 -14.402344 L 5 -14.402344 L 5 -15.242188 L 5.839844 -15.242188 L 5.839844 -11.101562 L 5 -11.101562 L 5 -11.941406 L 10.054688 -11.941406 C 10.4375 -11.941406 10.75 -11.816406 10.988281 -11.5625 C 11.210938 -11.324219 11.324219 -11.019531 11.324219 -10.644531 L 11.324219 -7.984375 C 11.324219 -7.609375 11.210938 -7.304688 10.988281 -7.066406 C 10.75 -6.8125 10.4375 -6.6875 10.054688 -6.6875 L 5 -6.6875 L 5 -7.527344 L 5.839844 -7.527344 L 5.839844 -3.546875 L 5 -3.546875 L 5 -4.386719 L 11.640625 -4.386719 C 12.015625 -4.386719 12.320312 -4.269531 12.554688 -4.035156 C 12.792969 -3.800781 12.910156 -3.492188 12.910156 -3.117188 L 12.910156 -0.429688 C 12.910156 -0.0546875 12.792969 0.25 12.554688 0.488281 C 12.320312 0.722656 12.015625 0.839844 11.640625 0.839844 L 1.746094 0.839844 C 1.371094 0.839844 1.066406 0.714844 0.832031 0.46875 C 0.613281 0.234375 0.503906 -0.0664062 0.503906 -0.429688 L 0.503906 -18.386719 C 0.503906 -18.75 0.613281 -19.050781 0.832031 -19.285156 C 1.066406 -19.53125 1.371094 -19.65625 1.746094 -19.65625 L 11.640625 -19.65625 C 12.015625 -19.65625 12.320312 -19.539062 12.554688 -19.304688 C 12.792969 -19.066406 12.910156 -18.761719 12.910156 -18.386719 Z M 11.230469 -18.386719 C 11.230469 -18.367188 11.234375 -18.339844 11.246094 -18.308594 C 11.269531 -18.238281 11.308594 -18.171875 11.367188 -18.113281 C 11.425781 -18.058594 11.488281 -18.015625 11.5625 -17.992188 C 11.59375 -17.980469 11.621094 -17.976562 11.640625 -17.976562 L 1.746094 -17.976562 C 1.855469 -17.976562 1.957031 -18.027344 2.058594 -18.132812 C 2.113281 -18.191406 2.148438 -18.253906 2.171875 -18.324219 C 2.179688 -18.351562 2.183594 -18.371094 2.183594 -18.386719 L 2.183594 -0.429688 C 2.183594 -0.445312 2.179688 -0.464844 2.171875 -0.492188 C 2.148438 -0.5625 2.113281 -0.625 2.058594 -0.683594 C 1.957031 -0.789062 1.855469 -0.839844 1.746094 -0.839844 L 11.640625 -0.839844 C 11.621094 -0.839844 11.59375 -0.835938 11.5625 -0.824219 C 11.488281 -0.800781 11.425781 -0.757812 11.367188 -0.703125 C 11.308594 -0.644531 11.269531 -0.578125 11.246094 -0.507812 C 11.234375 -0.476562 11.230469 -0.449219 11.230469 -0.429688 L 11.230469 -3.117188 C 11.230469 -3.097656 11.234375 -3.074219 11.246094 -3.039062 C 11.269531 -2.96875 11.308594 -2.90625 11.367188 -2.847656 C 11.425781 -2.789062 11.488281 -2.75 11.5625 -2.722656 C 11.59375 -2.714844 11.621094 -2.707031 11.640625 -2.707031 L 4.160156 -2.707031 L 4.160156 -8.367188 L 10.054688 -8.367188 C 10.027344 -8.367188 10 -8.359375 9.960938 -8.347656 C 9.886719 -8.320312 9.820312 -8.277344 9.765625 -8.214844 C 9.710938 -8.160156 9.675781 -8.101562 9.65625 -8.035156 C 9.648438 -8.011719 9.644531 -7.992188 9.644531 -7.984375 L 9.644531 -10.644531 C 9.644531 -10.636719 9.648438 -10.617188 9.65625 -10.59375 C 9.675781 -10.527344 9.710938 -10.46875 9.765625 -10.410156 C 9.820312 -10.351562 9.886719 -10.308594 9.960938 -10.28125 C 10 -10.269531 10.027344 -10.261719 10.054688 -10.261719 L 4.160156 -10.261719 L 4.160156 -16.082031 L 11.640625 -16.082031 C 11.613281 -16.082031 11.585938 -16.074219 11.546875 -16.0625 C 11.472656 -16.035156 11.40625 -15.992188 11.351562 -15.929688 C 11.296875 -15.875 11.261719 -15.816406 11.242188 -15.75 C 11.234375 -15.726562 11.230469 -15.707031 11.230469 -15.699219 Z M 11.230469 -18.386719 "/></g></g><g style="fill:#b21a22;fill-opacity:1;"><g transform="translate(30.098826, 63.823343)"><path style="stroke:none" d="M 14.03125 0.839844 L 11.425781 0.839844 C 11.097656 0.839844 10.820312 0.738281 10.589844 0.539062 C 10.378906 0.351562 10.238281 0.105469 10.171875 -0.199219 L 10.996094 -0.375 L 10.179688 -0.167969 L 9.320312 -3.554688 L 10.132812 -3.761719 L 10.132812 -2.921875 L 5.082031 -2.921875 L 5.082031 -3.761719 L 5.894531 -3.5625 L 5.0625 -0.175781 L 4.246094 -0.375 L 5.070312 -0.199219 C 5.003906 0.105469 4.863281 0.351562 4.652344 0.539062 C 4.421875 0.738281 4.144531 0.839844 3.816406 0.839844 L 1.183594 0.839844 C 0.746094 0.839844 0.414062 0.691406 0.1875 0.394531 C -0.0429688 0.09375 -0.0976562 -0.269531 0.0273438 -0.695312 L 0.832031 -0.457031 L 0.0195312 -0.660156 L 4.480469 -18.640625 L 5.296875 -18.441406 L 4.472656 -18.617188 C 4.542969 -18.933594 4.6875 -19.183594 4.917969 -19.371094 C 5.148438 -19.5625 5.425781 -19.65625 5.753906 -19.65625 L 9.488281 -19.65625 C 9.816406 -19.65625 10.09375 -19.5625 10.324219 -19.371094 C 10.550781 -19.183594 10.699219 -18.933594 10.765625 -18.617188 L 9.945312 -18.441406 L 10.761719 -18.640625 L 15.222656 -0.660156 L 14.40625 -0.457031 L 15.214844 -0.695312 C 15.34375 -0.257812 15.28125 0.113281 15.03125 0.417969 C 14.800781 0.699219 14.464844 0.839844 14.03125 0.839844 Z M 14.03125 -0.839844 C 14.035156 -0.839844 14.039062 -0.839844 14.042969 -0.839844 C 14.042969 -0.839844 14.039062 -0.839844 14.039062 -0.839844 C 14.023438 -0.835938 14.003906 -0.832031 13.984375 -0.828125 C 13.890625 -0.796875 13.804688 -0.734375 13.734375 -0.648438 C 13.652344 -0.550781 13.605469 -0.441406 13.597656 -0.324219 C 13.59375 -0.277344 13.59375 -0.242188 13.601562 -0.21875 L 13.597656 -0.238281 L 9.128906 -18.25 L 9.125 -18.265625 C 9.136719 -18.199219 9.183594 -18.136719 9.257812 -18.074219 C 9.335938 -18.007812 9.414062 -17.976562 9.488281 -17.976562 L 5.753906 -17.976562 C 5.828125 -17.976562 5.90625 -18.007812 5.984375 -18.074219 C 6.058594 -18.136719 6.101562 -18.199219 6.117188 -18.265625 L 6.113281 -18.25 L 1.644531 -0.238281 L 1.640625 -0.21875 C 1.644531 -0.238281 1.644531 -0.265625 1.644531 -0.304688 C 1.636719 -0.421875 1.597656 -0.527344 1.519531 -0.625 C 1.449219 -0.71875 1.359375 -0.785156 1.253906 -0.820312 C 1.21875 -0.835938 1.195312 -0.839844 1.183594 -0.839844 L 3.816406 -0.839844 C 3.722656 -0.839844 3.632812 -0.800781 3.546875 -0.726562 C 3.476562 -0.667969 3.4375 -0.609375 3.425781 -0.550781 L 3.429688 -0.566406 L 4.421875 -4.601562 L 10.789062 -4.601562 L 11.8125 -0.566406 L 11.816406 -0.550781 C 11.804688 -0.609375 11.761719 -0.667969 11.695312 -0.726562 C 11.609375 -0.800781 11.519531 -0.839844 11.425781 -0.839844 Z M 8.480469 -6.691406 L 6.789062 -14.003906 L 7.605469 -14.191406 L 8.425781 -14.003906 L 6.730469 -6.691406 L 5.914062 -6.882812 L 5.914062 -7.722656 L 9.300781 -7.722656 L 9.300781 -6.882812 Z M 10.359375 -6.042969 L 4.855469 -6.042969 L 6.789062 -14.382812 L 8.425781 -14.382812 L 10.121094 -7.070312 Z M 10.359375 -6.042969 "/></g></g><g style="fill:#b21a22;fill-opacity:1;"><g transform="translate(45.335398, 63.823343)"><path style="stroke:none" d="M 12.964844 -14.945312 L 12.964844 -12.042969 C 12.964844 -11.667969 12.84375 -11.363281 12.609375 -11.125 C 12.375 -10.890625 12.070312 -10.773438 11.691406 -10.773438 L 9.167969 -10.773438 C 8.789062 -10.773438 8.484375 -10.890625 8.25 -11.125 C 8.015625 -11.363281 7.894531 -11.667969 7.894531 -12.042969 L 7.894531 -14.246094 C 7.894531 -14.335938 7.886719 -14.402344 7.871094 -14.453125 C 7.867188 -14.460938 7.867188 -14.464844 7.863281 -14.46875 C 7.867188 -14.464844 7.871094 -14.464844 7.875 -14.460938 C 7.878906 -14.457031 7.882812 -14.453125 7.882812 -14.449219 C 7.878906 -14.453125 7.875 -14.453125 7.867188 -14.457031 C 7.816406 -14.472656 7.75 -14.480469 7.660156 -14.480469 L 5.941406 -14.480469 C 5.851562 -14.480469 5.785156 -14.472656 5.734375 -14.457031 C 5.726562 -14.453125 5.722656 -14.453125 5.71875 -14.449219 C 5.722656 -14.453125 5.722656 -14.457031 5.726562 -14.460938 C 5.730469 -14.464844 5.734375 -14.464844 5.738281 -14.46875 C 5.734375 -14.464844 5.734375 -14.460938 5.730469 -14.453125 C 5.714844 -14.402344 5.707031 -14.335938 5.707031 -14.246094 L 5.707031 -4.488281 C 5.707031 -4.402344 5.714844 -4.332031 5.730469 -4.285156 C 5.734375 -4.277344 5.734375 -4.269531 5.738281 -4.265625 C 5.734375 -4.269531 5.730469 -4.273438 5.726562 -4.277344 C 5.722656 -4.28125 5.722656 -4.285156 5.71875 -4.285156 C 5.722656 -4.285156 5.726562 -4.28125 5.734375 -4.277344 C 5.785156 -4.261719 5.851562 -4.253906 5.941406 -4.253906 L 7.660156 -4.253906 C 7.75 -4.253906 7.816406 -4.261719 7.867188 -4.277344 C 7.875 -4.28125 7.878906 -4.285156 7.882812 -4.285156 C 7.882812 -4.285156 7.878906 -4.28125 7.875 -4.277344 C 7.871094 -4.273438 7.867188 -4.269531 7.863281 -4.265625 C 7.867188 -4.269531 7.867188 -4.277344 7.871094 -4.285156 C 7.886719 -4.332031 7.894531 -4.402344 7.894531 -4.488281 L 7.894531 -6.773438 C 7.894531 -7.148438 8.015625 -7.453125 8.25 -7.691406 C 8.484375 -7.925781 8.789062 -8.042969 9.167969 -8.042969 L 11.691406 -8.042969 C 12.070312 -8.042969 12.375 -7.925781 12.609375 -7.691406 C 12.84375 -7.453125 12.964844 -7.148438 12.964844 -6.773438 L 12.964844 -3.871094 C 12.964844 -2.382812 12.550781 -1.226562 11.722656 -0.402344 C 10.894531 0.425781 9.738281 0.839844 8.253906 0.839844 L 5.242188 0.839844 C 3.757812 0.839844 2.597656 0.429688 1.761719 -0.398438 C 0.921875 -1.222656 0.503906 -2.382812 0.503906 -3.871094 L 0.503906 -14.945312 C 0.503906 -16.453125 0.925781 -17.617188 1.765625 -18.4375 C 2.601562 -19.25 3.757812 -19.65625 5.242188 -19.65625 L 8.253906 -19.65625 C 9.738281 -19.65625 10.890625 -19.25 11.71875 -18.433594 C 12.546875 -17.613281 12.964844 -16.453125 12.964844 -14.945312 Z M 11.28125 -14.945312 C 11.28125 -15.984375 11.035156 -16.746094 10.539062 -17.238281 C 10.039062 -17.730469 9.277344 -17.976562 8.253906 -17.976562 L 5.242188 -17.976562 C 4.214844 -17.976562 3.445312 -17.730469 2.9375 -17.234375 C 2.433594 -16.746094 2.183594 -15.980469 2.183594 -14.945312 L 2.183594 -3.871094 C 2.183594 -2.851562 2.4375 -2.089844 2.941406 -1.59375 C 3.449219 -1.089844 4.21875 -0.839844 5.242188 -0.839844 L 8.253906 -0.839844 C 9.273438 -0.839844 10.035156 -1.089844 10.535156 -1.589844 C 11.035156 -2.085938 11.28125 -2.847656 11.28125 -3.871094 L 11.28125 -6.773438 C 11.28125 -6.753906 11.289062 -6.730469 11.300781 -6.695312 C 11.324219 -6.625 11.363281 -6.558594 11.421875 -6.503906 C 11.480469 -6.445312 11.542969 -6.402344 11.617188 -6.378906 C 11.648438 -6.371094 11.675781 -6.363281 11.691406 -6.363281 L 9.167969 -6.363281 C 9.183594 -6.363281 9.210938 -6.371094 9.242188 -6.378906 C 9.316406 -6.402344 9.378906 -6.445312 9.4375 -6.503906 C 9.496094 -6.558594 9.535156 -6.625 9.558594 -6.695312 C 9.570312 -6.730469 9.578125 -6.753906 9.578125 -6.773438 L 9.578125 -4.488281 C 9.578125 -3.898438 9.40625 -3.433594 9.0625 -3.089844 C 8.71875 -2.746094 8.25 -2.574219 7.660156 -2.574219 L 5.941406 -2.574219 C 5.351562 -2.574219 4.882812 -2.746094 4.539062 -3.089844 C 4.195312 -3.433594 4.023438 -3.898438 4.023438 -4.488281 L 4.023438 -14.246094 C 4.023438 -14.835938 4.195312 -15.304688 4.539062 -15.648438 C 4.882812 -15.992188 5.351562 -16.164062 5.941406 -16.164062 L 7.660156 -16.164062 C 8.25 -16.164062 8.71875 -15.992188 9.0625 -15.648438 C 9.40625 -15.304688 9.578125 -14.835938 9.578125 -14.246094 L 9.578125 -12.042969 C 9.578125 -12.0625 9.570312 -12.085938 9.558594 -12.121094 C 9.535156 -12.191406 9.496094 -12.257812 9.4375 -12.3125 C 9.378906 -12.371094 9.316406 -12.414062 9.242188 -12.4375 C 9.210938 -12.445312 9.183594 -12.453125 9.167969 -12.453125 L 11.691406 -12.453125 C 11.675781 -12.453125 11.648438 -12.445312 11.617188 -12.4375 C 11.542969 -12.414062 11.480469 -12.371094 11.421875 -12.3125 C 11.363281 -12.257812 11.324219 -12.191406 11.300781 -12.121094 C 11.289062 -12.085938 11.28125 -12.0625 11.28125 -12.042969 Z M 11.28125 -14.945312 "/></g></g><g style="fill:#b21a22;fill-opacity:1;"><g transform="translate(58.798402, 63.823343)"><path style="stroke:none" d="M 7.601562 -11.128906 L 7.601562 -18.386719 C 7.601562 -18.761719 7.71875 -19.066406 7.953125 -19.304688 C 8.191406 -19.539062 8.496094 -19.65625 8.871094 -19.65625 L 11.640625 -19.65625 C 12.015625 -19.65625 12.320312 -19.542969 12.558594 -19.320312 C 12.808594 -19.082031 12.9375 -18.773438 12.9375 -18.386719 L 12.9375 -0.429688 C 12.9375 -0.0429688 12.808594 0.265625 12.558594 0.503906 C 12.320312 0.726562 12.015625 0.839844 11.640625 0.839844 L 8.871094 0.839844 C 8.496094 0.839844 8.191406 0.722656 7.953125 0.488281 C 7.71875 0.25 7.601562 -0.0546875 7.601562 -0.429688 L 7.601562 -7.582031 L 8.441406 -7.582031 L 8.441406 -6.742188 L 5 -6.742188 L 5 -7.582031 L 5.839844 -7.582031 L 5.839844 -0.429688 C 5.839844 -0.0546875 5.722656 0.25 5.484375 0.488281 C 5.25 0.722656 4.945312 0.839844 4.570312 0.839844 L 1.800781 0.839844 C 1.425781 0.839844 1.121094 0.726562 0.882812 0.503906 C 0.628906 0.265625 0.503906 -0.0429688 0.503906 -0.429688 L 0.503906 -18.386719 C 0.503906 -18.773438 0.628906 -19.082031 0.882812 -19.320312 C 1.121094 -19.542969 1.425781 -19.65625 1.800781 -19.65625 L 4.570312 -19.65625 C 4.945312 -19.65625 5.25 -19.539062 5.484375 -19.304688 C 5.722656 -19.066406 5.839844 -18.761719 5.839844 -18.386719 L 5.839844 -11.128906 L 5 -11.128906 L 5 -11.96875 L 8.441406 -11.96875 L 8.441406 -11.128906 Z M 9.28125 -10.289062 L 4.160156 -10.289062 L 4.160156 -18.386719 C 4.160156 -18.367188 4.164062 -18.339844 4.175781 -18.308594 C 4.199219 -18.238281 4.242188 -18.171875 4.296875 -18.113281 C 4.355469 -18.058594 4.421875 -18.015625 4.492188 -17.992188 C 4.523438 -17.980469 4.550781 -17.976562 4.570312 -17.976562 L 1.800781 -17.976562 C 1.8125 -17.976562 1.828125 -17.980469 1.851562 -17.988281 C 1.917969 -18.007812 1.980469 -18.046875 2.035156 -18.097656 C 2.09375 -18.15625 2.136719 -18.21875 2.164062 -18.292969 C 2.175781 -18.332031 2.183594 -18.363281 2.183594 -18.386719 L 2.183594 -0.429688 C 2.183594 -0.453125 2.175781 -0.484375 2.164062 -0.523438 C 2.136719 -0.597656 2.09375 -0.664062 2.035156 -0.71875 C 1.980469 -0.773438 1.917969 -0.808594 1.851562 -0.828125 C 1.828125 -0.835938 1.8125 -0.839844 1.800781 -0.839844 L 4.570312 -0.839844 C 4.550781 -0.839844 4.523438 -0.835938 4.492188 -0.824219 C 4.421875 -0.800781 4.355469 -0.757812 4.296875 -0.703125 C 4.242188 -0.644531 4.199219 -0.578125 4.175781 -0.507812 C 4.164062 -0.476562 4.160156 -0.449219 4.160156 -0.429688 L 4.160156 -8.421875 L 9.28125 -8.421875 L 9.28125 -0.429688 C 9.28125 -0.449219 9.273438 -0.476562 9.265625 -0.507812 C 9.242188 -0.578125 9.199219 -0.644531 9.140625 -0.703125 C 9.085938 -0.757812 9.019531 -0.800781 8.949219 -0.824219 C 8.914062 -0.835938 8.890625 -0.839844 8.871094 -0.839844 L 11.640625 -0.839844 C 11.628906 -0.839844 11.613281 -0.835938 11.585938 -0.828125 C 11.523438 -0.808594 11.460938 -0.773438 11.40625 -0.71875 C 11.34375 -0.664062 11.300781 -0.597656 11.277344 -0.523438 C 11.261719 -0.484375 11.257812 -0.453125 11.257812 -0.429688 L 11.257812 -18.386719 C 11.257812 -18.363281 11.261719 -18.332031 11.277344 -18.292969 C 11.300781 -18.21875 11.34375 -18.15625 11.40625 -18.097656 C 11.460938 -18.046875 11.523438 -18.007812 11.585938 -17.988281 C 11.613281 -17.980469 11.628906 -17.976562 11.640625 -17.976562 L 8.871094 -17.976562 C 8.890625 -17.976562 8.914062 -17.980469 8.949219 -17.992188 C 9.019531 -18.015625 9.085938 -18.058594 9.140625 -18.113281 C 9.199219 -18.171875 9.242188 -18.238281 9.265625 -18.308594 C 9.273438 -18.339844 9.28125 -18.367188 9.28125 -18.386719 Z M 9.28125 -10.289062 "/></g></g><g style="fill:#b21a22;fill-opacity:1;"><g transform="translate(72.234529, 63.823343)"><path style="stroke:none" d="M -0.839844 3.601562 L -0.839844 1.128906 C -0.839844 0.71875 -0.714844 0.386719 -0.460938 0.132812 C -0.207031 -0.121094 0.125 -0.25 0.539062 -0.25 L 16.746094 -0.25 C 17.15625 -0.25 17.492188 -0.121094 17.742188 0.132812 C 17.996094 0.386719 18.125 0.71875 18.125 1.128906 L 18.125 3.601562 C 18.125 4.011719 17.996094 4.34375 17.742188 4.597656 C 17.492188 4.851562 17.15625 4.980469 16.746094 4.980469 L 0.539062 4.980469 C 0.125 4.980469 -0.207031 4.851562 -0.460938 4.597656 C -0.714844 4.34375 -0.839844 4.011719 -0.839844 3.601562 Z M 0.839844 3.601562 C 0.839844 3.605469 0.839844 3.609375 0.839844 3.609375 C 0.839844 3.597656 0.835938 3.585938 0.832031 3.570312 C 0.8125 3.511719 0.777344 3.460938 0.726562 3.410156 C 0.679688 3.363281 0.625 3.328125 0.566406 3.308594 C 0.554688 3.304688 0.542969 3.300781 0.53125 3.300781 C 0.527344 3.300781 0.527344 3.300781 0.527344 3.300781 C 0.53125 3.300781 0.535156 3.300781 0.539062 3.300781 L 16.746094 3.300781 C 16.75 3.300781 16.753906 3.300781 16.757812 3.300781 C 16.757812 3.300781 16.753906 3.300781 16.753906 3.300781 C 16.742188 3.300781 16.730469 3.304688 16.714844 3.308594 C 16.65625 3.328125 16.605469 3.363281 16.554688 3.410156 C 16.507812 3.460938 16.472656 3.511719 16.453125 3.570312 C 16.449219 3.585938 16.445312 3.597656 16.445312 3.609375 C 16.445312 3.609375 16.445312 3.605469 16.445312 3.601562 L 16.445312 1.128906 C 16.445312 1.125 16.445312 1.121094 16.445312 1.121094 C 16.445312 1.132812 16.449219 1.144531 16.453125 1.160156 C 16.472656 1.21875 16.507812 1.269531 16.554688 1.320312 C 16.605469 1.367188 16.65625 1.402344 16.714844 1.421875 C 16.730469 1.425781 16.742188 1.429688 16.753906 1.429688 C 16.753906 1.429688 16.757812 1.433594 16.757812 1.433594 C 16.753906 1.429688 16.75 1.429688 16.746094 1.429688 L 0.539062 1.429688 C 0.535156 1.429688 0.53125 1.429688 0.527344 1.433594 C 0.527344 1.433594 0.527344 1.429688 0.53125 1.429688 C 0.542969 1.429688 0.554688 1.425781 0.566406 1.421875 C 0.625 1.402344 0.679688 1.367188 0.726562 1.320312 C 0.777344 1.269531 0.8125 1.21875 0.832031 1.160156 C 0.835938 1.144531 0.839844 1.132812 0.839844 1.121094 C 0.839844 1.121094 0.839844 1.125 0.839844 1.128906 Z M 0.839844 3.601562 "/></g></g><g style="fill:#b21a22;fill-opacity:1;"><g transform="translate(89.513392, 63.823343)"><path style="stroke:none" d="M 1.773438 -0.839844 L 4.570312 -0.839844 C 4.550781 -0.839844 4.523438 -0.835938 4.492188 -0.824219 C 4.421875 -0.800781 4.355469 -0.757812 4.296875 -0.703125 C 4.242188 -0.644531 4.199219 -0.578125 4.175781 -0.507812 C 4.164062 -0.476562 4.160156 -0.449219 4.160156 -0.429688 L 4.160156 -18.386719 C 4.160156 -18.367188 4.164062 -18.339844 4.175781 -18.308594 C 4.199219 -18.238281 4.242188 -18.171875 4.296875 -18.113281 C 4.355469 -18.058594 4.421875 -18.015625 4.492188 -17.992188 C 4.523438 -17.980469 4.550781 -17.976562 4.570312 -17.976562 L 1.773438 -17.976562 C 1.792969 -17.976562 1.820312 -17.980469 1.851562 -17.992188 C 1.921875 -18.015625 1.988281 -18.058594 2.046875 -18.113281 C 2.101562 -18.171875 2.144531 -18.238281 2.167969 -18.308594 C 2.179688 -18.339844 2.183594 -18.367188 2.183594 -18.386719 L 2.183594 -0.429688 C 2.183594 -0.449219 2.179688 -0.476562 2.167969 -0.507812 C 2.144531 -0.578125 2.101562 -0.644531 2.046875 -0.703125 C 1.988281 -0.757812 1.921875 -0.800781 1.851562 -0.824219 C 1.820312 -0.835938 1.792969 -0.839844 1.773438 -0.839844 Z M 1.773438 0.839844 C 1.398438 0.839844 1.09375 0.722656 0.859375 0.488281 C 0.621094 0.25 0.503906 -0.0546875 0.503906 -0.429688 L 0.503906 -18.386719 C 0.503906 -18.761719 0.621094 -19.066406 0.859375 -19.304688 C 1.09375 -19.539062 1.398438 -19.65625 1.773438 -19.65625 L 4.570312 -19.65625 C 4.945312 -19.65625 5.25 -19.539062 5.484375 -19.304688 C 5.722656 -19.066406 5.839844 -18.761719 5.839844 -18.386719 L 5.839844 -0.429688 C 5.839844 -0.0546875 5.722656 0.25 5.484375 0.488281 C 5.25 0.722656 4.945312 0.839844 4.570312 0.839844 Z M 1.773438 0.839844 "/></g></g><g style="fill:#b21a22;fill-opacity:1;"><g transform="translate(95.85524, 63.823343)"><path style="stroke:none" d="M 9.867188 -19.65625 L 12.390625 -19.65625 C 12.765625 -19.65625 13.074219 -19.539062 13.308594 -19.304688 C 13.542969 -19.066406 13.664062 -18.761719 13.664062 -18.386719 L 13.664062 -0.429688 C 13.664062 -0.0546875 13.542969 0.25 13.308594 0.488281 C 13.074219 0.722656 12.765625 0.839844 12.390625 0.839844 L 10.269531 0.839844 C 9.980469 0.839844 9.722656 0.757812 9.496094 0.59375 C 9.292969 0.449219 9.136719 0.253906 9.023438 0.00390625 L 9.785156 -0.347656 L 9.03125 0.0234375 L 3.976562 -10.246094 L 4.730469 -10.617188 L 5.570312 -10.617188 L 5.570312 -0.429688 C 5.570312 -0.0546875 5.453125 0.25 5.21875 0.488281 C 4.980469 0.722656 4.675781 0.839844 4.300781 0.839844 L 1.773438 0.839844 C 1.398438 0.839844 1.09375 0.722656 0.859375 0.488281 C 0.621094 0.25 0.503906 -0.0546875 0.503906 -0.429688 L 0.503906 -18.386719 C 0.503906 -18.761719 0.621094 -19.066406 0.859375 -19.304688 C 1.09375 -19.539062 1.398438 -19.65625 1.773438 -19.65625 L 3.898438 -19.65625 C 4.1875 -19.65625 4.445312 -19.574219 4.671875 -19.410156 C 4.871094 -19.265625 5.027344 -19.070312 5.144531 -18.820312 L 4.382812 -18.46875 L 5.136719 -18.839844 L 10.1875 -8.570312 L 9.433594 -8.199219 L 8.59375 -8.199219 L 8.59375 -18.386719 C 8.59375 -18.761719 8.714844 -19.066406 8.949219 -19.304688 C 9.183594 -19.539062 9.488281 -19.65625 9.867188 -19.65625 Z M 9.867188 -17.976562 C 9.882812 -17.976562 9.910156 -17.980469 9.941406 -17.992188 C 10.015625 -18.015625 10.078125 -18.058594 10.136719 -18.113281 C 10.195312 -18.171875 10.234375 -18.238281 10.257812 -18.308594 C 10.269531 -18.339844 10.273438 -18.367188 10.273438 -18.386719 L 10.273438 -8.199219 L 8.679688 -7.828125 L 3.625 -18.105469 L 3.617188 -18.113281 C 3.625 -18.097656 3.648438 -18.074219 3.6875 -18.046875 C 3.753906 -18 3.824219 -17.976562 3.898438 -17.976562 L 1.773438 -17.976562 C 1.792969 -17.976562 1.820312 -17.980469 1.851562 -17.992188 C 1.921875 -18.015625 1.988281 -18.058594 2.046875 -18.113281 C 2.101562 -18.171875 2.144531 -18.238281 2.167969 -18.308594 C 2.179688 -18.339844 2.183594 -18.367188 2.183594 -18.386719 L 2.183594 -0.429688 C 2.183594 -0.449219 2.179688 -0.476562 2.167969 -0.507812 C 2.144531 -0.578125 2.101562 -0.644531 2.046875 -0.703125 C 1.988281 -0.757812 1.921875 -0.800781 1.851562 -0.824219 C 1.820312 -0.835938 1.792969 -0.839844 1.773438 -0.839844 L 4.300781 -0.839844 C 4.28125 -0.839844 4.257812 -0.835938 4.222656 -0.824219 C 4.152344 -0.800781 4.085938 -0.757812 4.03125 -0.703125 C 3.972656 -0.644531 3.929688 -0.578125 3.90625 -0.507812 C 3.894531 -0.476562 3.890625 -0.449219 3.890625 -0.429688 L 3.890625 -10.617188 L 5.484375 -10.988281 L 10.542969 -0.710938 L 10.546875 -0.703125 C 10.539062 -0.71875 10.515625 -0.742188 10.476562 -0.769531 C 10.410156 -0.816406 10.34375 -0.839844 10.269531 -0.839844 L 12.390625 -0.839844 C 12.371094 -0.839844 12.347656 -0.835938 12.316406 -0.824219 C 12.242188 -0.800781 12.179688 -0.757812 12.121094 -0.703125 C 12.0625 -0.644531 12.023438 -0.578125 12 -0.507812 C 11.988281 -0.476562 11.980469 -0.449219 11.980469 -0.429688 L 11.980469 -18.386719 C 11.980469 -18.367188 11.988281 -18.339844 12 -18.308594 C 12.023438 -18.238281 12.0625 -18.171875 12.121094 -18.113281 C 12.179688 -18.058594 12.242188 -18.015625 12.316406 -17.992188 C 12.347656 -17.980469 12.371094 -17.976562 12.390625 -17.976562 Z M 9.867188 -17.976562 "/></g></g><g style="fill:#b21a22;fill-opacity:1;"><g transform="translate(110.016923, 63.823343)"><path style="stroke:none" d="M -0.839844 3.601562 L -0.839844 1.128906 C -0.839844 0.71875 -0.714844 0.386719 -0.460938 0.132812 C -0.207031 -0.121094 0.125 -0.25 0.539062 -0.25 L 16.746094 -0.25 C 17.15625 -0.25 17.492188 -0.121094 17.742188 0.132812 C 17.996094 0.386719 18.125 0.71875 18.125 1.128906 L 18.125 3.601562 C 18.125 4.011719 17.996094 4.34375 17.742188 4.597656 C 17.492188 4.851562 17.15625 4.980469 16.746094 4.980469 L 0.539062 4.980469 C 0.125 4.980469 -0.207031 4.851562 -0.460938 4.597656 C -0.714844 4.34375 -0.839844 4.011719 -0.839844 3.601562 Z M 0.839844 3.601562 C 0.839844 3.605469 0.839844 3.609375 0.839844 3.609375 C 0.839844 3.597656 0.835938 3.585938 0.832031 3.570312 C 0.8125 3.511719 0.777344 3.460938 0.726562 3.410156 C 0.679688 3.363281 0.625 3.328125 0.566406 3.308594 C 0.554688 3.304688 0.542969 3.300781 0.53125 3.300781 C 0.527344 3.300781 0.527344 3.300781 0.527344 3.300781 C 0.53125 3.300781 0.535156 3.300781 0.539062 3.300781 L 16.746094 3.300781 C 16.75 3.300781 16.753906 3.300781 16.757812 3.300781 C 16.757812 3.300781 16.753906 3.300781 16.753906 3.300781 C 16.742188 3.300781 16.730469 3.304688 16.714844 3.308594 C 16.65625 3.328125 16.605469 3.363281 16.554688 3.410156 C 16.507812 3.460938 16.472656 3.511719 16.453125 3.570312 C 16.449219 3.585938 16.445312 3.597656 16.445312 3.609375 C 16.445312 3.609375 16.445312 3.605469 16.445312 3.601562 L 16.445312 1.128906 C 16.445312 1.125 16.445312 1.121094 16.445312 1.121094 C 16.445312 1.132812 16.449219 1.144531 16.453125 1.160156 C 16.472656 1.21875 16.507812 1.269531 16.554688 1.320312 C 16.605469 1.367188 16.65625 1.402344 16.714844 1.421875 C 16.730469 1.425781 16.742188 1.429688 16.753906 1.429688 C 16.753906 1.429688 16.757812 1.433594 16.757812 1.433594 C 16.753906 1.429688 16.75 1.429688 16.746094 1.429688 L 0.539062 1.429688 C 0.535156 1.429688 0.53125 1.429688 0.527344 1.433594 C 0.527344 1.433594 0.527344 1.429688 0.53125 1.429688 C 0.542969 1.429688 0.554688 1.425781 0.566406 1.421875 C 0.625 1.402344 0.679688 1.367188 0.726562 1.320312 C 0.777344 1.269531 0.8125 1.21875 0.832031 1.160156 C 0.835938 1.144531 0.839844 1.132812 0.839844 1.121094 C 0.839844 1.121094 0.839844 1.125 0.839844 1.128906 Z M 0.839844 3.601562 "/></g></g><g style="fill:#b21a22;fill-opacity:1;"><g transform="translate(24.589416, 101.299676)"><path style="stroke:none" d="M 12.964844 -14.945312 L 12.964844 -11.316406 C 12.964844 -10.59375 12.726562 -9.976562 12.25 -9.476562 C 11.800781 -9.003906 11.246094 -8.703125 10.582031 -8.582031 L 10.429688 -9.410156 L 11.269531 -9.410156 L 11.269531 -9.355469 L 10.429688 -9.355469 L 10.554688 -10.183594 C 11.230469 -10.085938 11.800781 -9.789062 12.257812 -9.292969 C 12.726562 -8.78125 12.964844 -8.167969 12.964844 -7.445312 L 12.964844 -3.871094 C 12.964844 -2.382812 12.550781 -1.226562 11.722656 -0.402344 C 10.894531 0.425781 9.730469 0.839844 8.226562 0.839844 L 1.773438 0.839844 C 1.398438 0.839844 1.09375 0.722656 0.859375 0.488281 C 0.621094 0.25 0.503906 -0.0546875 0.503906 -0.429688 L 0.503906 -18.386719 C 0.503906 -18.761719 0.621094 -19.066406 0.859375 -19.304688 C 1.09375 -19.539062 1.398438 -19.65625 1.773438 -19.65625 L 8.226562 -19.65625 C 9.726562 -19.65625 10.890625 -19.25 11.71875 -18.433594 C 12.546875 -17.613281 12.964844 -16.453125 12.964844 -14.945312 Z M 11.28125 -14.945312 C 11.28125 -15.984375 11.035156 -16.746094 10.539062 -17.238281 C 10.039062 -17.730469 9.269531 -17.976562 8.226562 -17.976562 L 1.773438 -17.976562 C 1.792969 -17.976562 1.820312 -17.980469 1.851562 -17.992188 C 1.921875 -18.015625 1.988281 -18.058594 2.046875 -18.113281 C 2.101562 -18.171875 2.144531 -18.238281 2.167969 -18.308594 C 2.179688 -18.339844 2.183594 -18.367188 2.183594 -18.386719 L 2.183594 -0.429688 C 2.183594 -0.449219 2.179688 -0.476562 2.167969 -0.507812 C 2.144531 -0.578125 2.101562 -0.644531 2.046875 -0.703125 C 1.988281 -0.757812 1.921875 -0.800781 1.851562 -0.824219 C 1.820312 -0.835938 1.792969 -0.839844 1.773438 -0.839844 L 8.226562 -0.839844 C 9.265625 -0.839844 10.035156 -1.089844 10.535156 -1.589844 C 11.035156 -2.085938 11.28125 -2.847656 11.28125 -3.871094 L 11.28125 -7.445312 C 11.28125 -7.730469 11.195312 -7.964844 11.023438 -8.152344 C 10.832031 -8.355469 10.59375 -8.480469 10.304688 -8.523438 L 9.589844 -8.628906 L 9.589844 -10.105469 L 10.277344 -10.234375 C 10.582031 -10.289062 10.832031 -10.421875 11.03125 -10.632812 C 11.199219 -10.808594 11.28125 -11.039062 11.28125 -11.316406 Z M 7.871094 -12.203125 L 7.871094 -14.355469 C 7.871094 -14.441406 7.859375 -14.511719 7.84375 -14.558594 C 7.84375 -14.566406 7.839844 -14.574219 7.835938 -14.578125 C 7.839844 -14.574219 7.84375 -14.570312 7.847656 -14.566406 C 7.851562 -14.5625 7.855469 -14.558594 7.855469 -14.558594 C 7.855469 -14.558594 7.847656 -14.5625 7.839844 -14.566406 C 7.789062 -14.582031 7.722656 -14.589844 7.632812 -14.589844 L 4.675781 -14.589844 L 4.675781 -15.429688 L 5.515625 -15.429688 L 5.515625 -11.15625 L 4.675781 -11.15625 L 4.675781 -11.996094 L 7.632812 -11.996094 C 7.726562 -11.996094 7.792969 -12.003906 7.84375 -12.019531 C 7.855469 -12.023438 7.863281 -12.027344 7.863281 -12.027344 C 7.863281 -12.027344 7.859375 -12.023438 7.855469 -12.019531 C 7.847656 -12.015625 7.84375 -12.011719 7.84375 -12.003906 C 7.84375 -12.007812 7.84375 -12.011719 7.847656 -12.015625 C 7.863281 -12.058594 7.871094 -12.121094 7.871094 -12.203125 Z M 9.550781 -12.203125 C 9.550781 -11.617188 9.375 -11.15625 9.027344 -10.816406 C 8.683594 -10.480469 8.21875 -10.316406 7.632812 -10.316406 L 3.835938 -10.316406 L 3.835938 -16.269531 L 7.632812 -16.269531 C 8.222656 -16.269531 8.691406 -16.097656 9.035156 -15.753906 C 9.378906 -15.410156 9.550781 -14.945312 9.550781 -14.355469 Z M 7.871094 -4.460938 L 7.871094 -6.53125 C 7.871094 -6.621094 7.859375 -6.6875 7.84375 -6.738281 C 7.84375 -6.746094 7.839844 -6.75 7.835938 -6.753906 C 7.839844 -6.75 7.84375 -6.75 7.847656 -6.746094 C 7.851562 -6.742188 7.855469 -6.738281 7.855469 -6.734375 C 7.855469 -6.738281 7.847656 -6.738281 7.839844 -6.742188 C 7.789062 -6.757812 7.722656 -6.765625 7.632812 -6.765625 L 4.675781 -6.765625 L 4.675781 -7.605469 L 5.515625 -7.605469 L 5.515625 -3.386719 L 4.675781 -3.386719 L 4.675781 -4.226562 L 7.632812 -4.226562 C 7.722656 -4.226562 7.789062 -4.234375 7.839844 -4.25 C 7.847656 -4.253906 7.855469 -4.257812 7.855469 -4.257812 C 7.855469 -4.257812 7.851562 -4.253906 7.847656 -4.25 C 7.84375 -4.246094 7.839844 -4.242188 7.835938 -4.238281 C 7.839844 -4.242188 7.84375 -4.25 7.84375 -4.257812 C 7.859375 -4.304688 7.871094 -4.375 7.871094 -4.460938 Z M 9.550781 -4.460938 C 9.550781 -3.871094 9.378906 -3.40625 9.035156 -3.0625 C 8.691406 -2.71875 8.222656 -2.546875 7.632812 -2.546875 L 3.835938 -2.546875 L 3.835938 -8.449219 L 7.632812 -8.449219 C 8.222656 -8.449219 8.691406 -8.277344 9.035156 -7.933594 C 9.378906 -7.589844 9.550781 -7.121094 9.550781 -6.53125 Z M 9.550781 -4.460938 "/></g></g><g style="fill:#b21a22;fill-opacity:1;"><g transform="translate(38.05242, 101.299676)"><path style="stroke:none" d="M 14.03125 0.839844 L 11.425781 0.839844 C 11.097656 0.839844 10.820312 0.738281 10.589844 0.539062 C 10.378906 0.351562 10.238281 0.105469 10.171875 -0.199219 L 10.996094 -0.375 L 10.179688 -0.167969 L 9.320312 -3.554688 L 10.132812 -3.761719 L 10.132812 -2.921875 L 5.082031 -2.921875 L 5.082031 -3.761719 L 5.894531 -3.5625 L 5.0625 -0.175781 L 4.246094 -0.375 L 5.070312 -0.199219 C 5.003906 0.105469 4.863281 0.351562 4.652344 0.539062 C 4.421875 0.738281 4.144531 0.839844 3.816406 0.839844 L 1.183594 0.839844 C 0.746094 0.839844 0.414062 0.691406 0.1875 0.394531 C -0.0429688 0.09375 -0.0976562 -0.269531 0.0273438 -0.695312 L 0.832031 -0.457031 L 0.0195312 -0.660156 L 4.480469 -18.640625 L 5.296875 -18.441406 L 4.472656 -18.617188 C 4.542969 -18.933594 4.6875 -19.183594 4.917969 -19.371094 C 5.148438 -19.5625 5.425781 -19.65625 5.753906 -19.65625 L 9.488281 -19.65625 C 9.816406 -19.65625 10.09375 -19.5625 10.324219 -19.371094 C 10.550781 -19.183594 10.699219 -18.933594 10.765625 -18.617188 L 9.945312 -18.441406 L 10.761719 -18.640625 L 15.222656 -0.660156 L 14.40625 -0.457031 L 15.214844 -0.695312 C 15.34375 -0.257812 15.28125 0.113281 15.03125 0.417969 C 14.800781 0.699219 14.464844 0.839844 14.03125 0.839844 Z M 14.03125 -0.839844 C 14.035156 -0.839844 14.039062 -0.839844 14.042969 -0.839844 C 14.042969 -0.839844 14.039062 -0.839844 14.039062 -0.839844 C 14.023438 -0.835938 14.003906 -0.832031 13.984375 -0.828125 C 13.890625 -0.796875 13.804688 -0.734375 13.734375 -0.648438 C 13.652344 -0.550781 13.605469 -0.441406 13.597656 -0.324219 C 13.59375 -0.277344 13.59375 -0.242188 13.601562 -0.21875 L 13.597656 -0.238281 L 9.128906 -18.25 L 9.125 -18.265625 C 9.136719 -18.199219 9.183594 -18.136719 9.257812 -18.074219 C 9.335938 -18.007812 9.414062 -17.976562 9.488281 -17.976562 L 5.753906 -17.976562 C 5.828125 -17.976562 5.90625 -18.007812 5.984375 -18.074219 C 6.058594 -18.136719 6.101562 -18.199219 6.117188 -18.265625 L 6.113281 -18.25 L 1.644531 -0.238281 L 1.640625 -0.21875 C 1.644531 -0.238281 1.644531 -0.265625 1.644531 -0.304688 C 1.636719 -0.421875 1.597656 -0.527344 1.519531 -0.625 C 1.449219 -0.71875 1.359375 -0.785156 1.253906 -0.820312 C 1.21875 -0.835938 1.195312 -0.839844 1.183594 -0.839844 L 3.816406 -0.839844 C 3.722656 -0.839844 3.632812 -0.800781 3.546875 -0.726562 C 3.476562 -0.667969 3.4375 -0.609375 3.425781 -0.550781 L 3.429688 -0.566406 L 4.421875 -4.601562 L 10.789062 -4.601562 L 11.8125 -0.566406 L 11.816406 -0.550781 C 11.804688 -0.609375 11.761719 -0.667969 11.695312 -0.726562 C 11.609375 -0.800781 11.519531 -0.839844 11.425781 -0.839844 Z M 8.480469 -6.691406 L 6.789062 -14.003906 L 7.605469 -14.191406 L 8.425781 -14.003906 L 6.730469 -6.691406 L 5.914062 -6.882812 L 5.914062 -7.722656 L 9.300781 -7.722656 L 9.300781 -6.882812 Z M 10.359375 -6.042969 L 4.855469 -6.042969 L 6.789062 -14.382812 L 8.425781 -14.382812 L 10.121094 -7.070312 Z M 10.359375 -6.042969 "/></g></g><g style="fill:#b21a22;fill-opacity:1;"><g transform="translate(53.288992, 101.299676)"><path style="stroke:none" d="M 11.128906 -17.976562 L 1.238281 -17.976562 C 1.253906 -17.976562 1.28125 -17.980469 1.3125 -17.992188 C 1.386719 -18.015625 1.449219 -18.058594 1.507812 -18.113281 C 1.566406 -18.171875 1.605469 -18.238281 1.628906 -18.308594 C 1.640625 -18.339844 1.648438 -18.367188 1.648438 -18.386719 L 1.648438 -15.699219 C 1.648438 -15.71875 1.640625 -15.742188 1.628906 -15.777344 C 1.605469 -15.847656 1.566406 -15.914062 1.507812 -15.96875 C 1.449219 -16.027344 1.386719 -16.066406 1.3125 -16.09375 C 1.28125 -16.101562 1.253906 -16.109375 1.238281 -16.109375 L 5.195312 -16.109375 L 5.195312 -0.429688 C 5.195312 -0.449219 5.1875 -0.476562 5.179688 -0.507812 C 5.15625 -0.578125 5.113281 -0.644531 5.054688 -0.703125 C 5 -0.757812 4.933594 -0.800781 4.863281 -0.824219 C 4.828125 -0.835938 4.804688 -0.839844 4.785156 -0.839844 L 7.582031 -0.839844 C 7.5625 -0.839844 7.535156 -0.835938 7.503906 -0.824219 C 7.429688 -0.800781 7.367188 -0.757812 7.308594 -0.703125 C 7.25 -0.644531 7.210938 -0.578125 7.1875 -0.507812 C 7.175781 -0.476562 7.171875 -0.449219 7.171875 -0.429688 L 7.171875 -16.109375 L 11.128906 -16.109375 C 11.109375 -16.109375 11.082031 -16.101562 11.050781 -16.09375 C 10.980469 -16.066406 10.914062 -16.027344 10.855469 -15.96875 C 10.800781 -15.914062 10.757812 -15.847656 10.734375 -15.777344 C 10.722656 -15.742188 10.71875 -15.71875 10.71875 -15.699219 L 10.71875 -18.386719 C 10.71875 -18.367188 10.722656 -18.339844 10.734375 -18.308594 C 10.757812 -18.238281 10.800781 -18.171875 10.855469 -18.113281 C 10.914062 -18.058594 10.980469 -18.015625 11.050781 -17.992188 C 11.082031 -17.980469 11.109375 -17.976562 11.128906 -17.976562 Z M 11.128906 -19.65625 C 11.503906 -19.65625 11.808594 -19.539062 12.046875 -19.304688 C 12.28125 -19.066406 12.398438 -18.761719 12.398438 -18.386719 L 12.398438 -15.699219 C 12.398438 -15.324219 12.28125 -15.015625 12.046875 -14.78125 C 11.808594 -14.546875 11.503906 -14.429688 11.128906 -14.429688 L 8.011719 -14.429688 L 8.011719 -15.269531 L 8.851562 -15.269531 L 8.851562 -0.429688 C 8.851562 -0.0546875 8.734375 0.25 8.496094 0.488281 C 8.261719 0.722656 7.957031 0.839844 7.582031 0.839844 L 4.785156 0.839844 C 4.410156 0.839844 4.105469 0.722656 3.867188 0.488281 C 3.632812 0.25 3.515625 -0.0546875 3.515625 -0.429688 L 3.515625 -15.269531 L 4.355469 -15.269531 L 4.355469 -14.429688 L 1.238281 -14.429688 C 0.859375 -14.429688 0.554688 -14.546875 0.320312 -14.78125 C 0.0859375 -15.015625 -0.0351562 -15.324219 -0.0351562 -15.699219 L -0.0351562 -18.386719 C -0.0351562 -18.761719 0.0859375 -19.066406 0.320312 -19.304688 C 0.554688 -19.539062 0.859375 -19.65625 1.238281 -19.65625 Z M 11.128906 -19.65625 "/></g></g><g style="fill:#b21a22;fill-opacity:1;"><g transform="translate(65.65023, 101.299676)"><path style="stroke:none" d="M 12.964844 -14.945312 L 12.964844 -12.042969 C 12.964844 -11.667969 12.84375 -11.363281 12.609375 -11.125 C 12.375 -10.890625 12.070312 -10.773438 11.691406 -10.773438 L 9.167969 -10.773438 C 8.789062 -10.773438 8.484375 -10.890625 8.25 -11.125 C 8.015625 -11.363281 7.894531 -11.667969 7.894531 -12.042969 L 7.894531 -14.246094 C 7.894531 -14.335938 7.886719 -14.402344 7.871094 -14.453125 C 7.867188 -14.460938 7.867188 -14.464844 7.863281 -14.46875 C 7.867188 -14.464844 7.871094 -14.464844 7.875 -14.460938 C 7.878906 -14.457031 7.882812 -14.453125 7.882812 -14.449219 C 7.878906 -14.453125 7.875 -14.453125 7.867188 -14.457031 C 7.816406 -14.472656 7.75 -14.480469 7.660156 -14.480469 L 5.941406 -14.480469 C 5.851562 -14.480469 5.785156 -14.472656 5.734375 -14.457031 C 5.726562 -14.453125 5.722656 -14.453125 5.71875 -14.449219 C 5.722656 -14.453125 5.722656 -14.457031 5.726562 -14.460938 C 5.730469 -14.464844 5.734375 -14.464844 5.738281 -14.46875 C 5.734375 -14.464844 5.734375 -14.460938 5.730469 -14.453125 C 5.714844 -14.402344 5.707031 -14.335938 5.707031 -14.246094 L 5.707031 -4.488281 C 5.707031 -4.402344 5.714844 -4.332031 5.730469 -4.285156 C 5.734375 -4.277344 5.734375 -4.269531 5.738281 -4.265625 C 5.734375 -4.269531 5.730469 -4.273438 5.726562 -4.277344 C 5.722656 -4.28125 5.722656 -4.285156 5.71875 -4.285156 C 5.722656 -4.285156 5.726562 -4.28125 5.734375 -4.277344 C 5.785156 -4.261719 5.851562 -4.253906 5.941406 -4.253906 L 7.660156 -4.253906 C 7.75 -4.253906 7.816406 -4.261719 7.867188 -4.277344 C 7.875 -4.28125 7.878906 -4.285156 7.882812 -4.285156 C 7.882812 -4.285156 7.878906 -4.28125 7.875 -4.277344 C 7.871094 -4.273438 7.867188 -4.269531 7.863281 -4.265625 C 7.867188 -4.269531 7.867188 -4.277344 7.871094 -4.285156 C 7.886719 -4.332031 7.894531 -4.402344 7.894531 -4.488281 L 7.894531 -6.773438 C 7.894531 -7.148438 8.015625 -7.453125 8.25 -7.691406 C 8.484375 -7.925781 8.789062 -8.042969 9.167969 -8.042969 L 11.691406 -8.042969 C 12.070312 -8.042969 12.375 -7.925781 12.609375 -7.691406 C 12.84375 -7.453125 12.964844 -7.148438 12.964844 -6.773438 L 12.964844 -3.871094 C 12.964844 -2.382812 12.550781 -1.226562 11.722656 -0.402344 C 10.894531 0.425781 9.738281 0.839844 8.253906 0.839844 L 5.242188 0.839844 C 3.757812 0.839844 2.597656 0.429688 1.761719 -0.398438 C 0.921875 -1.222656 0.503906 -2.382812 0.503906 -3.871094 L 0.503906 -14.945312 C 0.503906 -16.453125 0.925781 -17.617188 1.765625 -18.4375 C 2.601562 -19.25 3.757812 -19.65625 5.242188 -19.65625 L 8.253906 -19.65625 C 9.738281 -19.65625 10.890625 -19.25 11.71875 -18.433594 C 12.546875 -17.613281 12.964844 -16.453125 12.964844 -14.945312 Z M 11.28125 -14.945312 C 11.28125 -15.984375 11.035156 -16.746094 10.539062 -17.238281 C 10.039062 -17.730469 9.277344 -17.976562 8.253906 -17.976562 L 5.242188 -17.976562 C 4.214844 -17.976562 3.445312 -17.730469 2.9375 -17.234375 C 2.433594 -16.746094 2.183594 -15.980469 2.183594 -14.945312 L 2.183594 -3.871094 C 2.183594 -2.851562 2.4375 -2.089844 2.941406 -1.59375 C 3.449219 -1.089844 4.21875 -0.839844 5.242188 -0.839844 L 8.253906 -0.839844 C 9.273438 -0.839844 10.035156 -1.089844 10.535156 -1.589844 C 11.035156 -2.085938 11.28125 -2.847656 11.28125 -3.871094 L 11.28125 -6.773438 C 11.28125 -6.753906 11.289062 -6.730469 11.300781 -6.695312 C 11.324219 -6.625 11.363281 -6.558594 11.421875 -6.503906 C 11.480469 -6.445312 11.542969 -6.402344 11.617188 -6.378906 C 11.648438 -6.371094 11.675781 -6.363281 11.691406 -6.363281 L 9.167969 -6.363281 C 9.183594 -6.363281 9.210938 -6.371094 9.242188 -6.378906 C 9.316406 -6.402344 9.378906 -6.445312 9.4375 -6.503906 C 9.496094 -6.558594 9.535156 -6.625 9.558594 -6.695312 C 9.570312 -6.730469 9.578125 -6.753906 9.578125 -6.773438 L 9.578125 -4.488281 C 9.578125 -3.898438 9.40625 -3.433594 9.0625 -3.089844 C 8.71875 -2.746094 8.25 -2.574219 7.660156 -2.574219 L 5.941406 -2.574219 C 5.351562 -2.574219 4.882812 -2.746094 4.539062 -3.089844 C 4.195312 -3.433594 4.023438 -3.898438 4.023438 -4.488281 L 4.023438 -14.246094 C 4.023438 -14.835938 4.195312 -15.304688 4.539062 -15.648438 C 4.882812 -15.992188 5.351562 -16.164062 5.941406 -16.164062 L 7.660156 -16.164062 C 8.25 -16.164062 8.71875 -15.992188 9.0625 -15.648438 C 9.40625 -15.304688 9.578125 -14.835938 9.578125 -14.246094 L 9.578125 -12.042969 C 9.578125 -12.0625 9.570312 -12.085938 9.558594 -12.121094 C 9.535156 -12.191406 9.496094 -12.257812 9.4375 -12.3125 C 9.378906 -12.371094 9.316406 -12.414062 9.242188 -12.4375 C 9.210938 -12.445312 9.183594 -12.453125 9.167969 -12.453125 L 11.691406 -12.453125 C 11.675781 -12.453125 11.648438 -12.445312 11.617188 -12.4375 C 11.542969 -12.414062 11.480469 -12.371094 11.421875 -12.3125 C 11.363281 -12.257812 11.324219 -12.191406 11.300781 -12.121094 C 11.289062 -12.085938 11.28125 -12.0625 11.28125 -12.042969 Z M 11.28125 -14.945312 "/></g></g><g style="fill:#b21a22;fill-opacity:1;"><g transform="translate(79.113234, 101.299676)"><path style="stroke:none" d="M 7.601562 -11.128906 L 7.601562 -18.386719 C 7.601562 -18.761719 7.71875 -19.066406 7.953125 -19.304688 C 8.191406 -19.539062 8.496094 -19.65625 8.871094 -19.65625 L 11.640625 -19.65625 C 12.015625 -19.65625 12.320312 -19.542969 12.558594 -19.320312 C 12.808594 -19.082031 12.9375 -18.773438 12.9375 -18.386719 L 12.9375 -0.429688 C 12.9375 -0.0429688 12.808594 0.265625 12.558594 0.503906 C 12.320312 0.726562 12.015625 0.839844 11.640625 0.839844 L 8.871094 0.839844 C 8.496094 0.839844 8.191406 0.722656 7.953125 0.488281 C 7.71875 0.25 7.601562 -0.0546875 7.601562 -0.429688 L 7.601562 -7.582031 L 8.441406 -7.582031 L 8.441406 -6.742188 L 5 -6.742188 L 5 -7.582031 L 5.839844 -7.582031 L 5.839844 -0.429688 C 5.839844 -0.0546875 5.722656 0.25 5.484375 0.488281 C 5.25 0.722656 4.945312 0.839844 4.570312 0.839844 L 1.800781 0.839844 C 1.425781 0.839844 1.121094 0.726562 0.882812 0.503906 C 0.628906 0.265625 0.503906 -0.0429688 0.503906 -0.429688 L 0.503906 -18.386719 C 0.503906 -18.773438 0.628906 -19.082031 0.882812 -19.320312 C 1.121094 -19.542969 1.425781 -19.65625 1.800781 -19.65625 L 4.570312 -19.65625 C 4.945312 -19.65625 5.25 -19.539062 5.484375 -19.304688 C 5.722656 -19.066406 5.839844 -18.761719 5.839844 -18.386719 L 5.839844 -11.128906 L 5 -11.128906 L 5 -11.96875 L 8.441406 -11.96875 L 8.441406 -11.128906 Z M 9.28125 -10.289062 L 4.160156 -10.289062 L 4.160156 -18.386719 C 4.160156 -18.367188 4.164062 -18.339844 4.175781 -18.308594 C 4.199219 -18.238281 4.242188 -18.171875 4.296875 -18.113281 C 4.355469 -18.058594 4.421875 -18.015625 4.492188 -17.992188 C 4.523438 -17.980469 4.550781 -17.976562 4.570312 -17.976562 L 1.800781 -17.976562 C 1.8125 -17.976562 1.828125 -17.980469 1.851562 -17.988281 C 1.917969 -18.007812 1.980469 -18.046875 2.035156 -18.097656 C 2.09375 -18.15625 2.136719 -18.21875 2.164062 -18.292969 C 2.175781 -18.332031 2.183594 -18.363281 2.183594 -18.386719 L 2.183594 -0.429688 C 2.183594 -0.453125 2.175781 -0.484375 2.164062 -0.523438 C 2.136719 -0.597656 2.09375 -0.664062 2.035156 -0.71875 C 1.980469 -0.773438 1.917969 -0.808594 1.851562 -0.828125 C 1.828125 -0.835938 1.8125 -0.839844 1.800781 -0.839844 L 4.570312 -0.839844 C 4.550781 -0.839844 4.523438 -0.835938 4.492188 -0.824219 C 4.421875 -0.800781 4.355469 -0.757812 4.296875 -0.703125 C 4.242188 -0.644531 4.199219 -0.578125 4.175781 -0.507812 C 4.164062 -0.476562 4.160156 -0.449219 4.160156 -0.429688 L 4.160156 -8.421875 L 9.28125 -8.421875 L 9.28125 -0.429688 C 9.28125 -0.449219 9.273438 -0.476562 9.265625 -0.507812 C 9.242188 -0.578125 9.199219 -0.644531 9.140625 -0.703125 C 9.085938 -0.757812 9.019531 -0.800781 8.949219 -0.824219 C 8.914062 -0.835938 8.890625 -0.839844 8.871094 -0.839844 L 11.640625 -0.839844 C 11.628906 -0.839844 11.613281 -0.835938 11.585938 -0.828125 C 11.523438 -0.808594 11.460938 -0.773438 11.40625 -0.71875 C 11.34375 -0.664062 11.300781 -0.597656 11.277344 -0.523438 C 11.261719 -0.484375 11.257812 -0.453125 11.257812 -0.429688 L 11.257812 -18.386719 C 11.257812 -18.363281 11.261719 -18.332031 11.277344 -18.292969 C 11.300781 -18.21875 11.34375 -18.15625 11.40625 -18.097656 C 11.460938 -18.046875 11.523438 -18.007812 11.585938 -17.988281 C 11.613281 -17.980469 11.628906 -17.976562 11.640625 -17.976562 L 8.871094 -17.976562 C 8.890625 -17.976562 8.914062 -17.980469 8.949219 -17.992188 C 9.019531 -18.015625 9.085938 -18.058594 9.140625 -18.113281 C 9.199219 -18.171875 9.242188 -18.238281 9.265625 -18.308594 C 9.273438 -18.339844 9.28125 -18.367188 9.28125 -18.386719 Z M 9.28125 -10.289062 "/></g></g><g style="fill:#b21a22;fill-opacity:1;"><g transform="translate(92.549362, 101.299676)"><path style="stroke:none" d="M 12.910156 -18.386719 L 12.910156 -15.699219 C 12.910156 -15.324219 12.796875 -15.019531 12.574219 -14.78125 C 12.335938 -14.527344 12.023438 -14.402344 11.640625 -14.402344 L 5 -14.402344 L 5 -15.242188 L 5.839844 -15.242188 L 5.839844 -11.101562 L 5 -11.101562 L 5 -11.941406 L 10.054688 -11.941406 C 10.4375 -11.941406 10.75 -11.816406 10.988281 -11.5625 C 11.210938 -11.324219 11.324219 -11.019531 11.324219 -10.644531 L 11.324219 -7.984375 C 11.324219 -7.609375 11.210938 -7.304688 10.988281 -7.066406 C 10.75 -6.8125 10.4375 -6.6875 10.054688 -6.6875 L 5 -6.6875 L 5 -7.527344 L 5.839844 -7.527344 L 5.839844 -3.546875 L 5 -3.546875 L 5 -4.386719 L 11.640625 -4.386719 C 12.015625 -4.386719 12.320312 -4.269531 12.554688 -4.035156 C 12.792969 -3.800781 12.910156 -3.492188 12.910156 -3.117188 L 12.910156 -0.429688 C 12.910156 -0.0546875 12.792969 0.25 12.554688 0.488281 C 12.320312 0.722656 12.015625 0.839844 11.640625 0.839844 L 1.746094 0.839844 C 1.371094 0.839844 1.066406 0.714844 0.832031 0.46875 C 0.613281 0.234375 0.503906 -0.0664062 0.503906 -0.429688 L 0.503906 -18.386719 C 0.503906 -18.75 0.613281 -19.050781 0.832031 -19.285156 C 1.066406 -19.53125 1.371094 -19.65625 1.746094 -19.65625 L 11.640625 -19.65625 C 12.015625 -19.65625 12.320312 -19.539062 12.554688 -19.304688 C 12.792969 -19.066406 12.910156 -18.761719 12.910156 -18.386719 Z M 11.230469 -18.386719 C 11.230469 -18.367188 11.234375 -18.339844 11.246094 -18.308594 C 11.269531 -18.238281 11.308594 -18.171875 11.367188 -18.113281 C 11.425781 -18.058594 11.488281 -18.015625 11.5625 -17.992188 C 11.59375 -17.980469 11.621094 -17.976562 11.640625 -17.976562 L 1.746094 -17.976562 C 1.855469 -17.976562 1.957031 -18.027344 2.058594 -18.132812 C 2.113281 -18.191406 2.148438 -18.253906 2.171875 -18.324219 C 2.179688 -18.351562 2.183594 -18.371094 2.183594 -18.386719 L 2.183594 -0.429688 C 2.183594 -0.445312 2.179688 -0.464844 2.171875 -0.492188 C 2.148438 -0.5625 2.113281 -0.625 2.058594 -0.683594 C 1.957031 -0.789062 1.855469 -0.839844 1.746094 -0.839844 L 11.640625 -0.839844 C 11.621094 -0.839844 11.59375 -0.835938 11.5625 -0.824219 C 11.488281 -0.800781 11.425781 -0.757812 11.367188 -0.703125 C 11.308594 -0.644531 11.269531 -0.578125 11.246094 -0.507812 C 11.234375 -0.476562 11.230469 -0.449219 11.230469 -0.429688 L 11.230469 -3.117188 C 11.230469 -3.097656 11.234375 -3.074219 11.246094 -3.039062 C 11.269531 -2.96875 11.308594 -2.90625 11.367188 -2.847656 C 11.425781 -2.789062 11.488281 -2.75 11.5625 -2.722656 C 11.59375 -2.714844 11.621094 -2.707031 11.640625 -2.707031 L 4.160156 -2.707031 L 4.160156 -8.367188 L 10.054688 -8.367188 C 10.027344 -8.367188 10 -8.359375 9.960938 -8.347656 C 9.886719 -8.320312 9.820312 -8.277344 9.765625 -8.214844 C 9.710938 -8.160156 9.675781 -8.101562 9.65625 -8.035156 C 9.648438 -8.011719 9.644531 -7.992188 9.644531 -7.984375 L 9.644531 -10.644531 C 9.644531 -10.636719 9.648438 -10.617188 9.65625 -10.59375 C 9.675781 -10.527344 9.710938 -10.46875 9.765625 -10.410156 C 9.820312 -10.351562 9.886719 -10.308594 9.960938 -10.28125 C 10 -10.269531 10.027344 -10.261719 10.054688 -10.261719 L 4.160156 -10.261719 L 4.160156 -16.082031 L 11.640625 -16.082031 C 11.613281 -16.082031 11.585938 -16.074219 11.546875 -16.0625 C 11.472656 -16.035156 11.40625 -15.992188 11.351562 -15.929688 C 11.296875 -15.875 11.261719 -15.816406 11.242188 -15.75 C 11.234375 -15.726562 11.230469 -15.707031 11.230469 -15.699219 Z M 11.230469 -18.386719 "/></g></g><g style="fill:#b21a22;fill-opacity:1;"><g transform="translate(105.958612, 101.299676)"><path style="stroke:none" d="M 5.214844 -19.65625 L 8.226562 -19.65625 C 9.730469 -19.65625 10.890625 -19.246094 11.710938 -18.429688 C 12.527344 -17.609375 12.9375 -16.449219 12.9375 -14.945312 L 12.9375 -13.171875 C 12.9375 -12.796875 12.820312 -12.492188 12.582031 -12.253906 C 12.347656 -12.019531 12.042969 -11.902344 11.667969 -11.902344 L 8.953125 -11.902344 C 8.574219 -11.902344 8.269531 -12.019531 8.035156 -12.253906 C 7.800781 -12.492188 7.679688 -12.796875 7.679688 -13.171875 L 7.679688 -14.300781 C 7.679688 -14.390625 7.671875 -14.457031 7.65625 -14.503906 C 7.652344 -14.515625 7.652344 -14.519531 7.648438 -14.523438 C 7.652344 -14.519531 7.65625 -14.515625 7.660156 -14.511719 C 7.664062 -14.507812 7.664062 -14.507812 7.667969 -14.503906 C 7.664062 -14.507812 7.660156 -14.507812 7.652344 -14.511719 C 7.601562 -14.527344 7.535156 -14.535156 7.445312 -14.535156 L 5.96875 -14.535156 C 5.878906 -14.535156 5.8125 -14.527344 5.761719 -14.511719 C 5.753906 -14.507812 5.746094 -14.507812 5.746094 -14.503906 C 5.746094 -14.507812 5.75 -14.507812 5.753906 -14.511719 C 5.757812 -14.515625 5.761719 -14.519531 5.765625 -14.523438 C 5.761719 -14.519531 5.757812 -14.515625 5.757812 -14.503906 C 5.742188 -14.457031 5.730469 -14.390625 5.730469 -14.300781 L 5.730469 -12.015625 L 4.890625 -12.015625 L 5.148438 -12.816406 L 11.65625 -10.71875 C 12.070312 -10.574219 12.386719 -10.347656 12.609375 -10.03125 C 12.828125 -9.722656 12.9375 -9.351562 12.9375 -8.925781 L 12.9375 -3.871094 C 12.9375 -2.386719 12.527344 -1.230469 11.714844 -0.40625 C 10.894531 0.425781 9.730469 0.839844 8.226562 0.839844 L 5.214844 0.839844 C 3.726562 0.839844 2.570312 0.425781 1.746094 -0.402344 C 0.917969 -1.226562 0.503906 -2.382812 0.503906 -3.871094 L 0.503906 -5.617188 C 0.503906 -5.992188 0.621094 -6.300781 0.859375 -6.535156 C 1.09375 -6.769531 1.398438 -6.886719 1.773438 -6.886719 L 4.488281 -6.886719 C 4.863281 -6.886719 5.171875 -6.769531 5.40625 -6.535156 C 5.640625 -6.300781 5.757812 -5.992188 5.757812 -5.617188 L 5.757812 -4.488281 C 5.757812 -4.402344 5.765625 -4.332031 5.785156 -4.285156 C 5.785156 -4.277344 5.789062 -4.269531 5.789062 -4.265625 C 5.789062 -4.269531 5.785156 -4.273438 5.78125 -4.277344 C 5.777344 -4.28125 5.773438 -4.285156 5.769531 -4.285156 C 5.773438 -4.285156 5.78125 -4.28125 5.789062 -4.277344 C 5.835938 -4.261719 5.90625 -4.253906 5.996094 -4.253906 L 7.445312 -4.253906 C 7.535156 -4.253906 7.601562 -4.261719 7.652344 -4.277344 C 7.660156 -4.28125 7.664062 -4.285156 7.667969 -4.285156 C 7.664062 -4.285156 7.664062 -4.28125 7.660156 -4.277344 C 7.65625 -4.273438 7.652344 -4.269531 7.648438 -4.265625 C 7.652344 -4.269531 7.652344 -4.277344 7.65625 -4.285156 C 7.671875 -4.332031 7.679688 -4.402344 7.679688 -4.488281 L 7.679688 -7.203125 L 8.519531 -7.203125 L 8.261719 -6.40625 L 1.808594 -8.5 C 1.394531 -8.640625 1.074219 -8.863281 0.847656 -9.175781 C 0.617188 -9.488281 0.503906 -9.863281 0.503906 -10.296875 L 0.503906 -14.945312 C 0.503906 -16.453125 0.917969 -17.613281 1.75 -18.433594 C 2.574219 -19.25 3.730469 -19.65625 5.214844 -19.65625 Z M 5.214844 -17.976562 C 4.191406 -17.976562 3.429688 -17.730469 2.929688 -17.238281 C 2.433594 -16.746094 2.183594 -15.984375 2.183594 -14.945312 L 2.183594 -10.296875 C 2.183594 -10.226562 2.191406 -10.183594 2.203125 -10.164062 C 2.21875 -10.144531 2.261719 -10.121094 2.328125 -10.101562 L 9.359375 -7.8125 L 9.359375 -4.488281 C 9.359375 -3.898438 9.191406 -3.433594 8.847656 -3.089844 C 8.503906 -2.746094 8.035156 -2.574219 7.445312 -2.574219 L 5.996094 -2.574219 C 5.402344 -2.574219 4.9375 -2.746094 4.59375 -3.089844 C 4.25 -3.433594 4.078125 -3.898438 4.078125 -4.488281 L 4.078125 -5.617188 C 4.078125 -5.597656 4.085938 -5.574219 4.09375 -5.539062 C 4.121094 -5.46875 4.160156 -5.402344 4.21875 -5.347656 C 4.273438 -5.289062 4.339844 -5.25 4.410156 -5.222656 C 4.445312 -5.214844 4.46875 -5.207031 4.488281 -5.207031 L 1.773438 -5.207031 C 1.792969 -5.207031 1.820312 -5.214844 1.851562 -5.222656 C 1.921875 -5.25 1.988281 -5.289062 2.046875 -5.347656 C 2.101562 -5.402344 2.144531 -5.46875 2.167969 -5.539062 C 2.179688 -5.574219 2.183594 -5.597656 2.183594 -5.617188 L 2.183594 -3.871094 C 2.183594 -2.847656 2.433594 -2.085938 2.933594 -1.589844 C 3.433594 -1.089844 4.191406 -0.839844 5.214844 -0.839844 L 8.226562 -0.839844 C 9.261719 -0.839844 10.027344 -1.089844 10.515625 -1.585938 C 11.011719 -2.085938 11.257812 -2.847656 11.257812 -3.871094 L 11.257812 -8.925781 C 11.257812 -9 11.25 -9.046875 11.234375 -9.066406 C 11.222656 -9.085938 11.191406 -9.101562 11.140625 -9.121094 L 4.050781 -11.402344 L 4.050781 -14.300781 C 4.050781 -14.890625 4.222656 -15.359375 4.566406 -15.699219 C 4.910156 -16.042969 5.378906 -16.214844 5.96875 -16.214844 L 7.445312 -16.214844 C 8.035156 -16.214844 8.503906 -16.042969 8.847656 -15.699219 C 9.191406 -15.359375 9.359375 -14.890625 9.359375 -14.300781 L 9.359375 -13.171875 C 9.359375 -13.191406 9.355469 -13.214844 9.34375 -13.25 C 9.320312 -13.320312 9.28125 -13.386719 9.222656 -13.441406 C 9.164062 -13.5 9.101562 -13.542969 9.027344 -13.566406 C 8.996094 -13.574219 8.96875 -13.582031 8.953125 -13.582031 L 11.667969 -13.582031 C 11.648438 -13.582031 11.621094 -13.574219 11.589844 -13.566406 C 11.515625 -13.542969 11.453125 -13.5 11.394531 -13.441406 C 11.335938 -13.386719 11.296875 -13.320312 11.273438 -13.25 C 11.261719 -13.214844 11.257812 -13.191406 11.257812 -13.171875 L 11.257812 -14.945312 C 11.257812 -15.984375 11.011719 -16.75 10.519531 -17.242188 C 10.03125 -17.730469 9.265625 -17.976562 8.226562 -17.976562 Z M 5.214844 -17.976562 "/></g></g><g style="fill:#060705;fill-opacity:1;"><g transform="translate(16.689576, 63.823343)"><path style="stroke:none" d="M 12.0625 -18.375 L 12.0625 -15.6875 C 12.0625 -15.382812 11.921875 -15.234375 11.640625 -15.234375 L 5 -15.234375 L 5 -11.09375 L 10.046875 -11.09375 C 10.335938 -11.09375 10.484375 -10.941406 10.484375 -10.640625 L 10.484375 -7.984375 C 10.484375 -7.679688 10.335938 -7.53125 10.046875 -7.53125 L 5 -7.53125 L 5 -3.546875 L 11.640625 -3.546875 C 11.921875 -3.546875 12.0625 -3.40625 12.0625 -3.125 L 12.0625 -0.4375 C 12.0625 -0.144531 11.921875 0 11.640625 0 L 1.75 0 C 1.476562 0 1.34375 -0.144531 1.34375 -0.4375 L 1.34375 -18.375 C 1.34375 -18.664062 1.476562 -18.8125 1.75 -18.8125 L 11.640625 -18.8125 C 11.921875 -18.8125 12.0625 -18.664062 12.0625 -18.375 Z M 12.0625 -18.375 "/></g></g><g style="fill:#060705;fill-opacity:1;"><g transform="translate(30.098826, 63.823343)"><path style="stroke:none" d="M 14.03125 0 L 11.421875 0 C 11.191406 0 11.046875 -0.125 10.984375 -0.375 L 10.125 -3.765625 L 5.078125 -3.765625 L 4.25 -0.375 C 4.195312 -0.125 4.050781 0 3.8125 0 L 1.1875 0 C 0.863281 0 0.742188 -0.148438 0.828125 -0.453125 L 5.296875 -18.4375 C 5.347656 -18.6875 5.5 -18.8125 5.75 -18.8125 L 9.484375 -18.8125 C 9.734375 -18.8125 9.882812 -18.6875 9.9375 -18.4375 L 14.40625 -0.453125 C 14.5 -0.148438 14.375 0 14.03125 0 Z M 9.296875 -6.875 L 7.609375 -14.1875 L 5.90625 -6.875 Z M 9.296875 -6.875 "/></g></g><g style="fill:#060705;fill-opacity:1;"><g transform="translate(45.335398, 63.823343)"><path style="stroke:none" d="M 12.125 -14.9375 L 12.125 -12.046875 C 12.125 -11.753906 11.976562 -11.609375 11.6875 -11.609375 L 9.171875 -11.609375 C 8.878906 -11.609375 8.734375 -11.753906 8.734375 -12.046875 L 8.734375 -14.25 C 8.734375 -14.957031 8.375 -15.3125 7.65625 -15.3125 L 5.9375 -15.3125 C 5.21875 -15.3125 4.859375 -14.957031 4.859375 -14.25 L 4.859375 -4.484375 C 4.859375 -3.765625 5.21875 -3.40625 5.9375 -3.40625 L 7.65625 -3.40625 C 8.375 -3.40625 8.734375 -3.765625 8.734375 -4.484375 L 8.734375 -6.765625 C 8.734375 -7.054688 8.878906 -7.203125 9.171875 -7.203125 L 11.6875 -7.203125 C 11.976562 -7.203125 12.125 -7.054688 12.125 -6.765625 L 12.125 -3.875 C 12.125 -2.613281 11.789062 -1.648438 11.125 -0.984375 C 10.457031 -0.328125 9.5 0 8.25 0 L 5.234375 0 C 3.984375 0 3.019531 -0.328125 2.34375 -0.984375 C 1.675781 -1.648438 1.34375 -2.613281 1.34375 -3.875 L 1.34375 -14.9375 C 1.34375 -16.207031 1.675781 -17.171875 2.34375 -17.828125 C 3.019531 -18.484375 3.984375 -18.8125 5.234375 -18.8125 L 8.25 -18.8125 C 9.5 -18.8125 10.457031 -18.484375 11.125 -17.828125 C 11.789062 -17.171875 12.125 -16.207031 12.125 -14.9375 Z M 12.125 -14.9375 "/></g></g><g style="fill:#060705;fill-opacity:1;"><g transform="translate(58.798402, 63.823343)"><path style="stroke:none" d="M 8.4375 -11.125 L 8.4375 -18.375 C 8.4375 -18.664062 8.582031 -18.8125 8.875 -18.8125 L 11.640625 -18.8125 C 11.941406 -18.8125 12.09375 -18.664062 12.09375 -18.375 L 12.09375 -0.4375 C 12.09375 -0.144531 11.941406 0 11.640625 0 L 8.875 0 C 8.582031 0 8.4375 -0.144531 8.4375 -0.4375 L 8.4375 -7.578125 L 5 -7.578125 L 5 -0.4375 C 5 -0.144531 4.851562 0 4.5625 0 L 1.796875 0 C 1.492188 0 1.34375 -0.144531 1.34375 -0.4375 L 1.34375 -18.375 C 1.34375 -18.664062 1.492188 -18.8125 1.796875 -18.8125 L 4.5625 -18.8125 C 4.851562 -18.8125 5 -18.664062 5 -18.375 L 5 -11.125 Z M 8.4375 -11.125 "/></g></g><g style="fill:#060705;fill-opacity:1;"><g transform="translate(72.234529, 63.823343)"><path style="stroke:none" d="M 0 3.59375 L 0 1.125 C 0 0.769531 0.175781 0.59375 0.53125 0.59375 L 16.75 0.59375 C 17.101562 0.59375 17.28125 0.769531 17.28125 1.125 L 17.28125 3.59375 C 17.28125 3.957031 17.101562 4.140625 16.75 4.140625 L 0.53125 4.140625 C 0.175781 4.140625 0 3.957031 0 3.59375 Z M 0 3.59375 "/></g></g><g style="fill:#060705;fill-opacity:1;"><g transform="translate(89.513392, 63.823343)"><path style="stroke:none" d="M 1.78125 0 L 4.5625 0 C 4.851562 0 5 -0.144531 5 -0.4375 L 5 -18.375 C 5 -18.664062 4.851562 -18.8125 4.5625 -18.8125 L 1.78125 -18.8125 C 1.488281 -18.8125 1.34375 -18.664062 1.34375 -18.375 L 1.34375 -0.4375 C 1.34375 -0.144531 1.488281 0 1.78125 0 Z M 1.78125 0 "/></g></g><g style="fill:#060705;fill-opacity:1;"><g transform="translate(95.85524, 63.823343)"><path style="stroke:none" d="M 9.859375 -18.8125 L 12.390625 -18.8125 C 12.671875 -18.8125 12.8125 -18.664062 12.8125 -18.375 L 12.8125 -0.4375 C 12.8125 -0.144531 12.671875 0 12.390625 0 L 10.265625 0 C 10.046875 0 9.882812 -0.113281 9.78125 -0.34375 L 4.734375 -10.609375 L 4.734375 -0.4375 C 4.734375 -0.144531 4.585938 0 4.296875 0 L 1.78125 0 C 1.488281 0 1.34375 -0.144531 1.34375 -0.4375 L 1.34375 -18.375 C 1.34375 -18.664062 1.488281 -18.8125 1.78125 -18.8125 L 3.890625 -18.8125 C 4.109375 -18.8125 4.269531 -18.695312 4.375 -18.46875 L 9.4375 -8.203125 L 9.4375 -18.375 C 9.4375 -18.664062 9.578125 -18.8125 9.859375 -18.8125 Z M 9.859375 -18.8125 "/></g></g><g style="fill:#060705;fill-opacity:1;"><g transform="translate(110.016923, 63.823343)"><path style="stroke:none" d="M 0 3.59375 L 0 1.125 C 0 0.769531 0.175781 0.59375 0.53125 0.59375 L 16.75 0.59375 C 17.101562 0.59375 17.28125 0.769531 17.28125 1.125 L 17.28125 3.59375 C 17.28125 3.957031 17.101562 4.140625 16.75 4.140625 L 0.53125 4.140625 C 0.175781 4.140625 0 3.957031 0 3.59375 Z M 0 3.59375 "/></g></g><g style="fill:#060705;fill-opacity:1;"><g transform="translate(24.589416, 101.299676)"><path style="stroke:none" d="M 12.125 -14.9375 L 12.125 -11.3125 C 12.125 -10.8125 11.960938 -10.390625 11.640625 -10.046875 C 11.316406 -9.710938 10.910156 -9.5 10.421875 -9.40625 L 10.421875 -9.359375 C 10.910156 -9.285156 11.316406 -9.070312 11.640625 -8.71875 C 11.960938 -8.375 12.125 -7.945312 12.125 -7.4375 L 12.125 -3.875 C 12.125 -2.613281 11.789062 -1.648438 11.125 -0.984375 C 10.457031 -0.328125 9.488281 0 8.21875 0 L 1.78125 0 C 1.488281 0 1.34375 -0.144531 1.34375 -0.4375 L 1.34375 -18.375 C 1.34375 -18.664062 1.488281 -18.8125 1.78125 -18.8125 L 8.21875 -18.8125 C 9.488281 -18.8125 10.457031 -18.484375 11.125 -17.828125 C 11.789062 -17.171875 12.125 -16.207031 12.125 -14.9375 Z M 8.703125 -12.203125 L 8.703125 -14.34375 C 8.703125 -15.0625 8.34375 -15.421875 7.625 -15.421875 L 4.671875 -15.421875 L 4.671875 -11.15625 L 7.625 -11.15625 C 8.34375 -11.15625 8.703125 -11.503906 8.703125 -12.203125 Z M 8.703125 -4.46875 L 8.703125 -6.53125 C 8.703125 -7.25 8.34375 -7.609375 7.625 -7.609375 L 4.671875 -7.609375 L 4.671875 -3.390625 L 7.625 -3.390625 C 8.34375 -3.390625 8.703125 -3.75 8.703125 -4.46875 Z M 8.703125 -4.46875 "/></g></g><g style="fill:#060705;fill-opacity:1;"><g transform="translate(38.05242, 101.299676)"><path style="stroke:none" d="M 14.03125 0 L 11.421875 0 C 11.191406 0 11.046875 -0.125 10.984375 -0.375 L 10.125 -3.765625 L 5.078125 -3.765625 L 4.25 -0.375 C 4.195312 -0.125 4.050781 0 3.8125 0 L 1.1875 0 C 0.863281 0 0.742188 -0.148438 0.828125 -0.453125 L 5.296875 -18.4375 C 5.347656 -18.6875 5.5 -18.8125 5.75 -18.8125 L 9.484375 -18.8125 C 9.734375 -18.8125 9.882812 -18.6875 9.9375 -18.4375 L 14.40625 -0.453125 C 14.5 -0.148438 14.375 0 14.03125 0 Z M 9.296875 -6.875 L 7.609375 -14.1875 L 5.90625 -6.875 Z M 9.296875 -6.875 "/></g></g><g style="fill:#060705;fill-opacity:1;"><g transform="translate(53.288992, 101.299676)"><path style="stroke:none" d="M 11.125 -18.8125 L 1.234375 -18.8125 C 0.953125 -18.8125 0.8125 -18.664062 0.8125 -18.375 L 0.8125 -15.6875 C 0.8125 -15.40625 0.953125 -15.265625 1.234375 -15.265625 L 4.359375 -15.265625 L 4.359375 -0.4375 C 4.359375 -0.144531 4.5 0 4.78125 0 L 7.578125 0 C 7.867188 0 8.015625 -0.144531 8.015625 -0.4375 L 8.015625 -15.265625 L 11.125 -15.265625 C 11.414062 -15.265625 11.5625 -15.40625 11.5625 -15.6875 L 11.5625 -18.375 C 11.5625 -18.664062 11.414062 -18.8125 11.125 -18.8125 Z M 11.125 -18.8125 "/></g></g><g style="fill:#060705;fill-opacity:1;"><g transform="translate(65.65023, 101.299676)"><path style="stroke:none" d="M 12.125 -14.9375 L 12.125 -12.046875 C 12.125 -11.753906 11.976562 -11.609375 11.6875 -11.609375 L 9.171875 -11.609375 C 8.878906 -11.609375 8.734375 -11.753906 8.734375 -12.046875 L 8.734375 -14.25 C 8.734375 -14.957031 8.375 -15.3125 7.65625 -15.3125 L 5.9375 -15.3125 C 5.21875 -15.3125 4.859375 -14.957031 4.859375 -14.25 L 4.859375 -4.484375 C 4.859375 -3.765625 5.21875 -3.40625 5.9375 -3.40625 L 7.65625 -3.40625 C 8.375 -3.40625 8.734375 -3.765625 8.734375 -4.484375 L 8.734375 -6.765625 C 8.734375 -7.054688 8.878906 -7.203125 9.171875 -7.203125 L 11.6875 -7.203125 C 11.976562 -7.203125 12.125 -7.054688 12.125 -6.765625 L 12.125 -3.875 C 12.125 -2.613281 11.789062 -1.648438 11.125 -0.984375 C 10.457031 -0.328125 9.5 0 8.25 0 L 5.234375 0 C 3.984375 0 3.019531 -0.328125 2.34375 -0.984375 C 1.675781 -1.648438 1.34375 -2.613281 1.34375 -3.875 L 1.34375 -14.9375 C 1.34375 -16.207031 1.675781 -17.171875 2.34375 -17.828125 C 3.019531 -18.484375 3.984375 -18.8125 5.234375 -18.8125 L 8.25 -18.8125 C 9.5 -18.8125 10.457031 -18.484375 11.125 -17.828125 C 11.789062 -17.171875 12.125 -16.207031 12.125 -14.9375 Z M 12.125 -14.9375 "/></g></g><g style="fill:#060705;fill-opacity:1;"><g transform="translate(79.113234, 101.299676)"><path style="stroke:none" d="M 8.4375 -11.125 L 8.4375 -18.375 C 8.4375 -18.664062 8.582031 -18.8125 8.875 -18.8125 L 11.640625 -18.8125 C 11.941406 -18.8125 12.09375 -18.664062 12.09375 -18.375 L 12.09375 -0.4375 C 12.09375 -0.144531 11.941406 0 11.640625 0 L 8.875 0 C 8.582031 0 8.4375 -0.144531 8.4375 -0.4375 L 8.4375 -7.578125 L 5 -7.578125 L 5 -0.4375 C 5 -0.144531 4.851562 0 4.5625 0 L 1.796875 0 C 1.492188 0 1.34375 -0.144531 1.34375 -0.4375 L 1.34375 -18.375 C 1.34375 -18.664062 1.492188 -18.8125 1.796875 -18.8125 L 4.5625 -18.8125 C 4.851562 -18.8125 5 -18.664062 5 -18.375 L 5 -11.125 Z M 8.4375 -11.125 "/></g></g><g style="fill:#060705;fill-opacity:1;"><g transform="translate(92.549362, 101.299676)"><path style="stroke:none" d="M 12.0625 -18.375 L 12.0625 -15.6875 C 12.0625 -15.382812 11.921875 -15.234375 11.640625 -15.234375 L 5 -15.234375 L 5 -11.09375 L 10.046875 -11.09375 C 10.335938 -11.09375 10.484375 -10.941406 10.484375 -10.640625 L 10.484375 -7.984375 C 10.484375 -7.679688 10.335938 -7.53125 10.046875 -7.53125 L 5 -7.53125 L 5 -3.546875 L 11.640625 -3.546875 C 11.921875 -3.546875 12.0625 -3.40625 12.0625 -3.125 L 12.0625 -0.4375 C 12.0625 -0.144531 11.921875 0 11.640625 0 L 1.75 0 C 1.476562 0 1.34375 -0.144531 1.34375 -0.4375 L 1.34375 -18.375 C 1.34375 -18.664062 1.476562 -18.8125 1.75 -18.8125 L 11.640625 -18.8125 C 11.921875 -18.8125 12.0625 -18.664062 12.0625 -18.375 Z M 12.0625 -18.375 "/></g></g><g style="fill:#060705;fill-opacity:1;"><g transform="translate(105.958612, 101.299676)"><path style="stroke:none" d="M 5.21875 -18.8125 L 8.21875 -18.8125 C 9.488281 -18.8125 10.453125 -18.484375 11.109375 -17.828125 C 11.765625 -17.171875 12.09375 -16.207031 12.09375 -14.9375 L 12.09375 -13.171875 C 12.09375 -12.878906 11.945312 -12.734375 11.65625 -12.734375 L 8.953125 -12.734375 C 8.660156 -12.734375 8.515625 -12.878906 8.515625 -13.171875 L 8.515625 -14.296875 C 8.515625 -15.015625 8.15625 -15.375 7.4375 -15.375 L 5.96875 -15.375 C 5.25 -15.375 4.890625 -15.015625 4.890625 -14.296875 L 4.890625 -12.015625 L 11.390625 -9.921875 C 11.859375 -9.753906 12.09375 -9.421875 12.09375 -8.921875 L 12.09375 -3.875 C 12.09375 -2.613281 11.765625 -1.648438 11.109375 -0.984375 C 10.453125 -0.328125 9.488281 0 8.21875 0 L 5.21875 0 C 3.957031 0 2.992188 -0.328125 2.328125 -0.984375 C 1.671875 -1.648438 1.34375 -2.613281 1.34375 -3.875 L 1.34375 -5.609375 C 1.34375 -5.898438 1.488281 -6.046875 1.78125 -6.046875 L 4.484375 -6.046875 C 4.773438 -6.046875 4.921875 -5.898438 4.921875 -5.609375 L 4.921875 -4.484375 C 4.921875 -3.765625 5.28125 -3.40625 6 -3.40625 L 7.4375 -3.40625 C 8.15625 -3.40625 8.515625 -3.765625 8.515625 -4.484375 L 8.515625 -7.203125 L 2.0625 -9.296875 C 1.582031 -9.460938 1.34375 -9.796875 1.34375 -10.296875 L 1.34375 -14.9375 C 1.34375 -16.207031 1.671875 -17.171875 2.328125 -17.828125 C 2.992188 -18.484375 3.957031 -18.8125 5.21875 -18.8125 Z M 5.21875 -18.8125 "/></g></g></g></svg>