<svg xmlns="http://www.w3.org/2000/svg" xmlns:xlink="http://www.w3.org/1999/xlink" width="128" zoomAndPan="magnify" viewBox="0 0 96 95.999999" height="128" preserveAspectRatio="xMidYMid meet" version="1.2"><defs><clipPath id="024d512b60"><path d="M 6 0 L 90 0 L 90 96 L 6 96 Z M 6 0 "/></clipPath><clipPath id="2443fbe89d"><path d="M -14.304688 36.578125 L 68.691406 -11.898438 L 110.335938 59.402344 L 27.339844 107.878906 Z M -14.304688 36.578125 "/></clipPath><clipPath id="b3ab834cc6"><path d="M 89.484375 23.769531 L 89.5625 71.535156 L 48.082031 95.765625 L 6.515625 72.226562 L 6.4375 24.464844 L 47.921875 0.234375 Z M 89.484375 23.769531 "/></clipPath><clipPath id="0dcdc03194"><path d="M 14.140625 9.121094 L 81.851562 9.121094 L 81.851562 86.839844 L 14.140625 86.839844 Z M 14.140625 9.121094 "/></clipPath></defs><g id="c2e2596688"><g clip-rule="nonzero" clip-path="url(#024d512b60)"><g clip-rule="nonzero" clip-path="url(#2443fbe89d)"><g clip-rule="nonzero" clip-path="url(#b3ab834cc6)"><path style=" stroke:none;fill-rule:nonzero;fill:#65b30e;fill-opacity:1;" d="M -14.304688 36.578125 L 68.691406 -11.898438 L 110.335938 59.402344 L 27.339844 107.878906 Z M -14.304688 36.578125 "/></g></g></g><path style=" stroke:none;fill-rule:nonzero;fill:#87ff00;fill-opacity:1;" d="M 34.453125 34.738281 L 34.410156 34.695312 L 24.839844 44.265625 L 48.074219 67.457031 L 57.644531 57.933594 L 71.308594 44.265625 L 61.738281 34.695312 L 61.738281 34.652344 L 34.410156 34.652344 Z M 34.453125 34.738281 "/><g clip-rule="nonzero" clip-path="url(#0dcdc03194)"><path style=" stroke:none;fill-rule:nonzero;fill:#87ff00;fill-opacity:1;" d="M 47.988281 9.179688 L 14.148438 28.574219 L 14.148438 67.371094 L 47.988281 86.769531 L 81.828125 67.371094 L 81.828125 28.574219 Z M 75.359375 63.664062 L 47.988281 79.4375 L 20.613281 63.664062 L 20.617188 32.195312 L 47.988281 16.417969 L 75.363281 32.195312 L 75.363281 63.664062 Z M 75.359375 63.664062 "/></g><g style="fill:#b21a22;fill-opacity:1;"><g transform="translate(11.126383, 42.548895)"><path style="stroke:none" d="M 8.605469 -12.257812 L 8.605469 -10.464844 C 8.605469 -10.214844 8.53125 -10.011719 8.382812 -9.851562 C 8.222656 -9.683594 8.015625 -9.601562 7.757812 -9.601562 L 3.332031 -9.601562 L 3.332031 -10.160156 L 3.894531 -10.160156 L 3.894531 -7.402344 L 3.332031 -7.402344 L 3.332031 -7.960938 L 6.703125 -7.960938 C 6.960938 -7.960938 7.167969 -7.878906 7.324219 -7.707031 C 7.472656 -7.550781 7.550781 -7.347656 7.550781 -7.097656 L 7.550781 -5.324219 C 7.550781 -5.074219 7.472656 -4.867188 7.324219 -4.710938 C 7.167969 -4.542969 6.960938 -4.457031 6.703125 -4.457031 L 3.332031 -4.457031 L 3.332031 -5.019531 L 3.894531 -5.019531 L 3.894531 -2.367188 L 3.332031 -2.367188 L 3.332031 -2.925781 L 7.757812 -2.925781 C 8.011719 -2.925781 8.214844 -2.847656 8.371094 -2.691406 C 8.527344 -2.53125 8.605469 -2.328125 8.605469 -2.078125 L 8.605469 -0.285156 C 8.605469 -0.0351562 8.527344 0.167969 8.371094 0.324219 C 8.214844 0.480469 8.011719 0.558594 7.757812 0.558594 L 1.164062 0.558594 C 0.914062 0.558594 0.710938 0.476562 0.554688 0.3125 C 0.410156 0.15625 0.335938 -0.0429688 0.335938 -0.285156 L 0.335938 -12.257812 C 0.335938 -12.5 0.410156 -12.699219 0.554688 -12.855469 C 0.710938 -13.023438 0.914062 -13.105469 1.164062 -13.105469 L 7.757812 -13.105469 C 8.011719 -13.105469 8.214844 -13.027344 8.371094 -12.867188 C 8.527344 -12.710938 8.605469 -12.507812 8.605469 -12.257812 Z M 7.484375 -12.257812 C 7.484375 -12.246094 7.488281 -12.226562 7.496094 -12.207031 C 7.511719 -12.15625 7.539062 -12.113281 7.578125 -12.078125 C 7.617188 -12.039062 7.660156 -12.011719 7.707031 -11.996094 C 7.730469 -11.988281 7.746094 -11.984375 7.757812 -11.984375 L 1.164062 -11.984375 C 1.238281 -11.984375 1.304688 -12.019531 1.371094 -12.089844 C 1.40625 -12.128906 1.433594 -12.171875 1.449219 -12.214844 C 1.453125 -12.234375 1.457031 -12.25 1.457031 -12.257812 L 1.457031 -0.285156 C 1.457031 -0.296875 1.453125 -0.308594 1.449219 -0.328125 C 1.433594 -0.375 1.40625 -0.417969 1.371094 -0.453125 C 1.304688 -0.523438 1.238281 -0.558594 1.164062 -0.558594 L 7.757812 -0.558594 C 7.746094 -0.558594 7.730469 -0.554688 7.707031 -0.550781 C 7.660156 -0.535156 7.617188 -0.507812 7.578125 -0.46875 C 7.539062 -0.429688 7.511719 -0.386719 7.496094 -0.339844 C 7.488281 -0.316406 7.484375 -0.300781 7.484375 -0.285156 L 7.484375 -2.078125 C 7.484375 -2.066406 7.488281 -2.046875 7.496094 -2.027344 C 7.511719 -1.980469 7.539062 -1.9375 7.578125 -1.898438 C 7.617188 -1.859375 7.660156 -1.832031 7.707031 -1.816406 C 7.730469 -1.808594 7.746094 -1.804688 7.757812 -1.804688 L 2.773438 -1.804688 L 2.773438 -5.578125 L 6.703125 -5.578125 C 6.6875 -5.578125 6.664062 -5.574219 6.640625 -5.566406 C 6.589844 -5.546875 6.546875 -5.519531 6.507812 -5.476562 C 6.476562 -5.441406 6.449219 -5.402344 6.4375 -5.355469 C 6.429688 -5.339844 6.429688 -5.328125 6.429688 -5.324219 L 6.429688 -7.097656 C 6.429688 -7.089844 6.429688 -7.078125 6.4375 -7.0625 C 6.449219 -7.019531 6.476562 -6.976562 6.507812 -6.941406 C 6.546875 -6.902344 6.589844 -6.871094 6.640625 -6.855469 C 6.664062 -6.84375 6.6875 -6.839844 6.703125 -6.839844 L 2.773438 -6.839844 L 2.773438 -10.722656 L 7.757812 -10.722656 C 7.742188 -10.722656 7.722656 -10.714844 7.699219 -10.707031 C 7.648438 -10.691406 7.605469 -10.660156 7.566406 -10.621094 C 7.53125 -10.582031 7.507812 -10.542969 7.492188 -10.5 C 7.488281 -10.484375 7.484375 -10.472656 7.484375 -10.464844 Z M 7.484375 -12.257812 "/></g></g><g style="fill:#b21a22;fill-opacity:1;"><g transform="translate(20.065884, 42.548895)"><path style="stroke:none" d="M 9.355469 0.558594 L 7.617188 0.558594 C 7.398438 0.558594 7.210938 0.492188 7.058594 0.359375 C 6.917969 0.234375 6.824219 0.0703125 6.78125 -0.132812 L 7.328125 -0.25 L 6.785156 -0.113281 L 6.214844 -2.371094 L 6.757812 -2.507812 L 6.757812 -1.949219 L 3.386719 -1.949219 L 3.386719 -2.507812 L 3.929688 -2.375 L 3.375 -0.117188 L 2.832031 -0.25 L 3.378906 -0.132812 C 3.335938 0.0703125 3.242188 0.234375 3.101562 0.359375 C 2.949219 0.492188 2.761719 0.558594 2.542969 0.558594 L 0.789062 0.558594 C 0.496094 0.558594 0.273438 0.460938 0.125 0.265625 C -0.03125 0.0625 -0.0664062 -0.179688 0.0195312 -0.460938 L 0.554688 -0.304688 L 0.0117188 -0.441406 L 2.988281 -12.429688 L 3.53125 -12.292969 L 2.984375 -12.410156 C 3.027344 -12.621094 3.125 -12.789062 3.277344 -12.914062 C 3.429688 -13.039062 3.617188 -13.105469 3.835938 -13.105469 L 6.324219 -13.105469 C 6.542969 -13.105469 6.730469 -13.039062 6.882812 -12.914062 C 7.035156 -12.789062 7.132812 -12.621094 7.179688 -12.410156 L 6.628906 -12.292969 L 7.175781 -12.429688 L 10.148438 -0.441406 L 9.605469 -0.304688 L 10.144531 -0.460938 C 10.226562 -0.171875 10.1875 0.078125 10.019531 0.28125 C 9.867188 0.464844 9.644531 0.558594 9.355469 0.558594 Z M 9.355469 -0.558594 C 9.355469 -0.558594 9.359375 -0.558594 9.363281 -0.558594 C 9.359375 -0.558594 9.359375 -0.558594 9.359375 -0.558594 C 9.347656 -0.558594 9.335938 -0.554688 9.324219 -0.550781 C 9.257812 -0.53125 9.203125 -0.492188 9.15625 -0.433594 C 9.101562 -0.367188 9.070312 -0.292969 9.066406 -0.214844 C 9.0625 -0.183594 9.0625 -0.160156 9.066406 -0.148438 L 9.066406 -0.15625 L 6.085938 -12.167969 L 6.082031 -12.175781 C 6.09375 -12.132812 6.121094 -12.089844 6.171875 -12.050781 C 6.222656 -12.007812 6.277344 -11.984375 6.324219 -11.984375 L 3.835938 -11.984375 C 3.886719 -11.984375 3.9375 -12.007812 3.988281 -12.050781 C 4.039062 -12.089844 4.070312 -12.132812 4.078125 -12.175781 L 4.074219 -12.167969 L 1.097656 -0.15625 L 1.09375 -0.148438 C 1.097656 -0.160156 1.097656 -0.175781 1.09375 -0.203125 C 1.089844 -0.28125 1.0625 -0.351562 1.015625 -0.417969 C 0.964844 -0.480469 0.90625 -0.523438 0.835938 -0.546875 C 0.8125 -0.554688 0.796875 -0.558594 0.789062 -0.558594 L 2.542969 -0.558594 C 2.480469 -0.558594 2.421875 -0.535156 2.363281 -0.484375 C 2.320312 -0.445312 2.292969 -0.40625 2.285156 -0.367188 L 2.285156 -0.375 L 2.949219 -3.070312 L 7.191406 -3.070312 L 7.875 -0.378906 L 7.878906 -0.367188 C 7.867188 -0.40625 7.84375 -0.445312 7.796875 -0.484375 C 7.738281 -0.535156 7.679688 -0.558594 7.617188 -0.558594 Z M 5.65625 -4.460938 L 4.527344 -9.335938 L 5.070312 -9.460938 L 5.617188 -9.335938 L 4.488281 -4.460938 L 3.941406 -4.585938 L 3.941406 -5.148438 L 6.199219 -5.148438 L 6.199219 -4.585938 Z M 6.90625 -4.027344 L 3.238281 -4.027344 L 4.527344 -9.589844 L 5.617188 -9.589844 L 6.746094 -4.714844 Z M 6.90625 -4.027344 "/></g></g><g style="fill:#b21a22;fill-opacity:1;"><g transform="translate(30.223598, 42.548895)"><path style="stroke:none" d="M 8.640625 -9.964844 L 8.640625 -8.027344 C 8.640625 -7.777344 8.5625 -7.574219 8.40625 -7.417969 C 8.25 -7.261719 8.046875 -7.179688 7.796875 -7.179688 L 6.109375 -7.179688 C 5.859375 -7.179688 5.65625 -7.261719 5.5 -7.417969 C 5.34375 -7.574219 5.265625 -7.777344 5.265625 -8.027344 L 5.265625 -9.496094 C 5.265625 -9.558594 5.257812 -9.601562 5.246094 -9.632812 C 5.246094 -9.640625 5.246094 -9.644531 5.242188 -9.648438 C 5.246094 -9.644531 5.246094 -9.640625 5.25 -9.640625 C 5.25 -9.636719 5.253906 -9.636719 5.257812 -9.632812 C 5.253906 -9.636719 5.25 -9.636719 5.242188 -9.636719 C 5.210938 -9.648438 5.167969 -9.65625 5.105469 -9.65625 L 3.960938 -9.65625 C 3.902344 -9.65625 3.855469 -9.648438 3.824219 -9.636719 C 3.816406 -9.636719 3.8125 -9.636719 3.8125 -9.632812 C 3.8125 -9.636719 3.816406 -9.636719 3.820312 -9.640625 C 3.820312 -9.640625 3.824219 -9.644531 3.824219 -9.648438 C 3.824219 -9.644531 3.820312 -9.640625 3.820312 -9.632812 C 3.808594 -9.601562 3.804688 -9.558594 3.804688 -9.496094 L 3.804688 -2.992188 C 3.804688 -2.933594 3.808594 -2.886719 3.820312 -2.855469 C 3.820312 -2.851562 3.824219 -2.847656 3.824219 -2.84375 C 3.824219 -2.847656 3.820312 -2.847656 3.820312 -2.851562 C 3.816406 -2.855469 3.8125 -2.855469 3.8125 -2.855469 C 3.8125 -2.855469 3.816406 -2.855469 3.824219 -2.851562 C 3.855469 -2.839844 3.902344 -2.835938 3.960938 -2.835938 L 5.105469 -2.835938 C 5.167969 -2.835938 5.210938 -2.839844 5.242188 -2.851562 C 5.25 -2.855469 5.253906 -2.855469 5.257812 -2.855469 C 5.253906 -2.855469 5.25 -2.855469 5.25 -2.851562 C 5.246094 -2.847656 5.246094 -2.847656 5.242188 -2.84375 C 5.246094 -2.847656 5.246094 -2.851562 5.246094 -2.855469 C 5.257812 -2.886719 5.265625 -2.933594 5.265625 -2.992188 L 5.265625 -4.515625 C 5.265625 -4.765625 5.34375 -4.96875 5.5 -5.128906 C 5.65625 -5.285156 5.859375 -5.363281 6.109375 -5.363281 L 7.796875 -5.363281 C 8.046875 -5.363281 8.25 -5.285156 8.40625 -5.128906 C 8.5625 -4.96875 8.640625 -4.765625 8.640625 -4.515625 L 8.640625 -2.582031 C 8.640625 -1.589844 8.367188 -0.820312 7.816406 -0.265625 C 7.265625 0.285156 6.492188 0.558594 5.5 0.558594 L 3.496094 0.558594 C 2.503906 0.558594 1.730469 0.285156 1.175781 -0.265625 C 0.617188 -0.816406 0.335938 -1.589844 0.335938 -2.582031 L 0.335938 -9.964844 C 0.335938 -10.96875 0.617188 -11.746094 1.175781 -12.292969 C 1.734375 -12.832031 2.507812 -13.105469 3.496094 -13.105469 L 5.5 -13.105469 C 6.492188 -13.105469 7.261719 -12.832031 7.8125 -12.289062 C 8.367188 -11.742188 8.640625 -10.96875 8.640625 -9.964844 Z M 7.523438 -9.964844 C 7.523438 -10.65625 7.355469 -11.164062 7.027344 -11.492188 C 6.691406 -11.820312 6.183594 -11.984375 5.5 -11.984375 L 3.496094 -11.984375 C 2.808594 -11.984375 2.296875 -11.820312 1.957031 -11.488281 C 1.625 -11.164062 1.457031 -10.65625 1.457031 -9.964844 L 1.457031 -2.582031 C 1.457031 -1.898438 1.625 -1.394531 1.960938 -1.0625 C 2.300781 -0.726562 2.8125 -0.558594 3.496094 -0.558594 L 5.5 -0.558594 C 6.183594 -0.558594 6.691406 -0.726562 7.023438 -1.058594 C 7.355469 -1.390625 7.523438 -1.898438 7.523438 -2.582031 L 7.523438 -4.515625 C 7.523438 -4.503906 7.527344 -4.484375 7.53125 -4.464844 C 7.550781 -4.417969 7.574219 -4.375 7.613281 -4.335938 C 7.652344 -4.296875 7.695312 -4.269531 7.742188 -4.253906 C 7.765625 -4.246094 7.78125 -4.242188 7.796875 -4.242188 L 6.109375 -4.242188 C 6.125 -4.242188 6.140625 -4.246094 6.164062 -4.253906 C 6.210938 -4.269531 6.253906 -4.296875 6.292969 -4.335938 C 6.332031 -4.375 6.359375 -4.417969 6.375 -4.464844 C 6.378906 -4.484375 6.382812 -4.503906 6.382812 -4.515625 L 6.382812 -2.992188 C 6.382812 -2.597656 6.269531 -2.289062 6.039062 -2.058594 C 5.8125 -1.832031 5.5 -1.714844 5.105469 -1.714844 L 3.960938 -1.714844 C 3.566406 -1.714844 3.253906 -1.832031 3.027344 -2.058594 C 2.796875 -2.289062 2.683594 -2.597656 2.683594 -2.992188 L 2.683594 -9.496094 C 2.683594 -9.890625 2.796875 -10.203125 3.027344 -10.429688 C 3.253906 -10.660156 3.566406 -10.773438 3.960938 -10.773438 L 5.105469 -10.773438 C 5.5 -10.773438 5.8125 -10.660156 6.039062 -10.429688 C 6.269531 -10.203125 6.382812 -9.890625 6.382812 -9.496094 L 6.382812 -8.027344 C 6.382812 -8.042969 6.378906 -8.058594 6.375 -8.078125 C 6.359375 -8.128906 6.332031 -8.171875 6.292969 -8.210938 C 6.253906 -8.246094 6.210938 -8.273438 6.164062 -8.289062 C 6.140625 -8.296875 6.125 -8.300781 6.109375 -8.300781 L 7.796875 -8.300781 C 7.78125 -8.300781 7.765625 -8.296875 7.742188 -8.289062 C 7.695312 -8.273438 7.652344 -8.246094 7.613281 -8.210938 C 7.574219 -8.171875 7.550781 -8.128906 7.53125 -8.078125 C 7.527344 -8.058594 7.523438 -8.042969 7.523438 -8.027344 Z M 7.523438 -9.964844 "/></g></g><g style="fill:#b21a22;fill-opacity:1;"><g transform="translate(39.198934, 42.548895)"><path style="stroke:none" d="M 5.066406 -7.417969 L 5.066406 -12.257812 C 5.066406 -12.507812 5.144531 -12.710938 5.300781 -12.867188 C 5.460938 -13.027344 5.664062 -13.105469 5.914062 -13.105469 L 7.757812 -13.105469 C 8.007812 -13.105469 8.214844 -13.03125 8.371094 -12.878906 C 8.539062 -12.722656 8.625 -12.515625 8.625 -12.257812 L 8.625 -0.285156 C 8.625 -0.03125 8.539062 0.179688 8.371094 0.335938 C 8.214844 0.484375 8.007812 0.558594 7.757812 0.558594 L 5.914062 0.558594 C 5.664062 0.558594 5.460938 0.480469 5.300781 0.324219 C 5.144531 0.167969 5.066406 -0.0351562 5.066406 -0.285156 L 5.066406 -5.054688 L 5.628906 -5.054688 L 5.628906 -4.492188 L 3.332031 -4.492188 L 3.332031 -5.054688 L 3.894531 -5.054688 L 3.894531 -0.285156 C 3.894531 -0.0351562 3.816406 0.167969 3.65625 0.324219 C 3.5 0.480469 3.296875 0.558594 3.046875 0.558594 L 1.199219 0.558594 C 0.949219 0.558594 0.746094 0.484375 0.589844 0.335938 C 0.421875 0.179688 0.335938 -0.03125 0.335938 -0.285156 L 0.335938 -12.257812 C 0.335938 -12.515625 0.421875 -12.722656 0.589844 -12.878906 C 0.746094 -13.03125 0.949219 -13.105469 1.199219 -13.105469 L 3.046875 -13.105469 C 3.296875 -13.105469 3.5 -13.027344 3.65625 -12.867188 C 3.816406 -12.710938 3.894531 -12.507812 3.894531 -12.257812 L 3.894531 -7.417969 L 3.332031 -7.417969 L 3.332031 -7.980469 L 5.628906 -7.980469 L 5.628906 -7.417969 Z M 6.1875 -6.859375 L 2.773438 -6.859375 L 2.773438 -12.257812 C 2.773438 -12.246094 2.777344 -12.226562 2.785156 -12.207031 C 2.800781 -12.15625 2.828125 -12.113281 2.867188 -12.078125 C 2.902344 -12.039062 2.945312 -12.011719 2.996094 -11.996094 C 3.015625 -11.988281 3.035156 -11.984375 3.046875 -11.984375 L 1.199219 -11.984375 C 1.207031 -11.984375 1.21875 -11.988281 1.234375 -11.992188 C 1.277344 -12.003906 1.320312 -12.03125 1.355469 -12.066406 C 1.398438 -12.101562 1.425781 -12.148438 1.441406 -12.195312 C 1.453125 -12.222656 1.457031 -12.242188 1.457031 -12.257812 L 1.457031 -0.285156 C 1.457031 -0.304688 1.453125 -0.324219 1.441406 -0.347656 C 1.425781 -0.398438 1.398438 -0.441406 1.355469 -0.480469 C 1.320312 -0.515625 1.277344 -0.539062 1.234375 -0.550781 C 1.21875 -0.558594 1.207031 -0.558594 1.199219 -0.558594 L 3.046875 -0.558594 C 3.035156 -0.558594 3.015625 -0.554688 2.996094 -0.550781 C 2.945312 -0.535156 2.902344 -0.507812 2.867188 -0.46875 C 2.828125 -0.429688 2.800781 -0.386719 2.785156 -0.339844 C 2.777344 -0.316406 2.773438 -0.300781 2.773438 -0.285156 L 2.773438 -5.613281 L 6.1875 -5.613281 L 6.1875 -0.285156 C 6.1875 -0.300781 6.183594 -0.316406 6.175781 -0.339844 C 6.160156 -0.386719 6.132812 -0.429688 6.09375 -0.46875 C 6.054688 -0.507812 6.011719 -0.535156 5.964844 -0.550781 C 5.945312 -0.554688 5.925781 -0.558594 5.914062 -0.558594 L 7.757812 -0.558594 C 7.753906 -0.558594 7.742188 -0.558594 7.726562 -0.550781 C 7.679688 -0.539062 7.640625 -0.515625 7.605469 -0.480469 C 7.5625 -0.441406 7.535156 -0.398438 7.515625 -0.347656 C 7.507812 -0.324219 7.503906 -0.304688 7.503906 -0.285156 L 7.503906 -12.257812 C 7.503906 -12.242188 7.507812 -12.222656 7.515625 -12.195312 C 7.535156 -12.148438 7.5625 -12.101562 7.605469 -12.066406 C 7.640625 -12.03125 7.679688 -12.003906 7.726562 -11.992188 C 7.742188 -11.988281 7.753906 -11.984375 7.757812 -11.984375 L 5.914062 -11.984375 C 5.925781 -11.984375 5.945312 -11.988281 5.964844 -11.996094 C 6.011719 -12.011719 6.054688 -12.039062 6.09375 -12.078125 C 6.132812 -12.113281 6.160156 -12.15625 6.175781 -12.207031 C 6.183594 -12.226562 6.1875 -12.246094 6.1875 -12.257812 Z M 6.1875 -6.859375 "/></g></g><g style="fill:#b21a22;fill-opacity:1;"><g transform="translate(48.156352, 42.548895)"><path style="stroke:none" d="M -0.558594 2.402344 L -0.558594 0.753906 C -0.558594 0.480469 -0.476562 0.257812 -0.304688 0.0859375 C -0.136719 -0.0820312 0.0859375 -0.164062 0.359375 -0.164062 L 11.164062 -0.164062 C 11.4375 -0.164062 11.660156 -0.0820312 11.828125 0.0859375 C 12 0.257812 12.082031 0.480469 12.082031 0.753906 L 12.082031 2.402344 C 12.082031 2.675781 12 2.898438 11.828125 3.066406 C 11.660156 3.234375 11.4375 3.320312 11.164062 3.320312 L 0.359375 3.320312 C 0.0859375 3.320312 -0.136719 3.234375 -0.304688 3.066406 C -0.476562 2.898438 -0.558594 2.675781 -0.558594 2.402344 Z M 0.558594 2.402344 C 0.558594 2.402344 0.558594 2.40625 0.558594 2.40625 C 0.558594 2.398438 0.558594 2.390625 0.554688 2.382812 C 0.539062 2.34375 0.519531 2.304688 0.484375 2.273438 C 0.453125 2.242188 0.417969 2.21875 0.378906 2.207031 C 0.371094 2.203125 0.359375 2.199219 0.355469 2.199219 C 0.351562 2.199219 0.351562 2.199219 0.351562 2.199219 C 0.355469 2.199219 0.355469 2.199219 0.359375 2.199219 L 11.164062 2.199219 C 11.167969 2.199219 11.167969 2.199219 11.171875 2.199219 C 11.171875 2.199219 11.171875 2.199219 11.167969 2.199219 C 11.160156 2.199219 11.152344 2.203125 11.144531 2.207031 C 11.105469 2.21875 11.070312 2.242188 11.039062 2.273438 C 11.003906 2.304688 10.980469 2.34375 10.96875 2.382812 C 10.964844 2.390625 10.964844 2.398438 10.960938 2.40625 C 10.960938 2.40625 10.960938 2.402344 10.960938 2.402344 L 10.960938 0.753906 C 10.960938 0.75 10.960938 0.75 10.960938 0.746094 C 10.964844 0.753906 10.964844 0.761719 10.96875 0.773438 C 10.980469 0.8125 11.003906 0.847656 11.039062 0.878906 C 11.070312 0.914062 11.105469 0.933594 11.144531 0.949219 C 11.152344 0.949219 11.160156 0.953125 11.167969 0.953125 C 11.171875 0.953125 11.171875 0.953125 11.171875 0.953125 C 11.167969 0.953125 11.167969 0.953125 11.164062 0.953125 L 0.359375 0.953125 C 0.355469 0.953125 0.355469 0.953125 0.351562 0.953125 C 0.351562 0.953125 0.351562 0.953125 0.355469 0.953125 C 0.359375 0.953125 0.371094 0.949219 0.378906 0.949219 C 0.417969 0.933594 0.453125 0.914062 0.484375 0.878906 C 0.519531 0.847656 0.539062 0.8125 0.554688 0.773438 C 0.558594 0.761719 0.558594 0.753906 0.558594 0.746094 C 0.558594 0.75 0.558594 0.75 0.558594 0.753906 Z M 0.558594 2.402344 "/></g></g><g style="fill:#b21a22;fill-opacity:1;"><g transform="translate(59.675595, 42.548895)"><path style="stroke:none" d="M 1.183594 -0.558594 L 3.046875 -0.558594 C 3.035156 -0.558594 3.015625 -0.554688 2.996094 -0.550781 C 2.945312 -0.535156 2.902344 -0.507812 2.867188 -0.46875 C 2.828125 -0.429688 2.800781 -0.386719 2.785156 -0.339844 C 2.777344 -0.316406 2.773438 -0.300781 2.773438 -0.285156 L 2.773438 -12.257812 C 2.773438 -12.246094 2.777344 -12.226562 2.785156 -12.207031 C 2.800781 -12.15625 2.828125 -12.113281 2.867188 -12.078125 C 2.902344 -12.039062 2.945312 -12.011719 2.996094 -11.996094 C 3.015625 -11.988281 3.035156 -11.984375 3.046875 -11.984375 L 1.183594 -11.984375 C 1.195312 -11.984375 1.210938 -11.988281 1.234375 -11.996094 C 1.28125 -12.011719 1.324219 -12.039062 1.363281 -12.078125 C 1.402344 -12.113281 1.429688 -12.15625 1.445312 -12.207031 C 1.453125 -12.226562 1.457031 -12.246094 1.457031 -12.257812 L 1.457031 -0.285156 C 1.457031 -0.300781 1.453125 -0.316406 1.445312 -0.339844 C 1.429688 -0.386719 1.402344 -0.429688 1.363281 -0.46875 C 1.324219 -0.507812 1.28125 -0.535156 1.234375 -0.550781 C 1.210938 -0.554688 1.195312 -0.558594 1.183594 -0.558594 Z M 1.183594 0.558594 C 0.933594 0.558594 0.730469 0.480469 0.570312 0.324219 C 0.414062 0.167969 0.335938 -0.0351562 0.335938 -0.285156 L 0.335938 -12.257812 C 0.335938 -12.507812 0.414062 -12.710938 0.570312 -12.867188 C 0.730469 -13.027344 0.933594 -13.105469 1.183594 -13.105469 L 3.046875 -13.105469 C 3.296875 -13.105469 3.5 -13.027344 3.65625 -12.867188 C 3.816406 -12.710938 3.894531 -12.507812 3.894531 -12.257812 L 3.894531 -0.285156 C 3.894531 -0.0351562 3.816406 0.167969 3.65625 0.324219 C 3.5 0.480469 3.296875 0.558594 3.046875 0.558594 Z M 1.183594 0.558594 "/></g></g><g style="fill:#b21a22;fill-opacity:1;"><g transform="translate(63.903493, 42.548895)"><path style="stroke:none" d="M 6.578125 -13.105469 L 8.261719 -13.105469 C 8.511719 -13.105469 8.714844 -13.027344 8.871094 -12.867188 C 9.03125 -12.710938 9.109375 -12.507812 9.109375 -12.257812 L 9.109375 -0.285156 C 9.109375 -0.0351562 9.03125 0.167969 8.871094 0.324219 C 8.714844 0.480469 8.511719 0.558594 8.261719 0.558594 L 6.84375 0.558594 C 6.652344 0.558594 6.480469 0.503906 6.328125 0.394531 C 6.195312 0.300781 6.089844 0.167969 6.015625 0 L 6.523438 -0.234375 L 6.019531 0.015625 L 2.652344 -6.832031 L 3.152344 -7.078125 L 3.714844 -7.078125 L 3.714844 -0.285156 C 3.714844 -0.0351562 3.636719 0.167969 3.476562 0.324219 C 3.320312 0.480469 3.117188 0.558594 2.867188 0.558594 L 1.183594 0.558594 C 0.933594 0.558594 0.730469 0.480469 0.570312 0.324219 C 0.414062 0.167969 0.335938 -0.0351562 0.335938 -0.285156 L 0.335938 -12.257812 C 0.335938 -12.507812 0.414062 -12.710938 0.570312 -12.867188 C 0.730469 -13.027344 0.933594 -13.105469 1.183594 -13.105469 L 2.597656 -13.105469 C 2.789062 -13.105469 2.964844 -13.050781 3.113281 -12.941406 C 3.246094 -12.84375 3.351562 -12.710938 3.429688 -12.546875 L 2.921875 -12.3125 L 3.421875 -12.558594 L 6.792969 -5.714844 L 6.289062 -5.464844 L 5.730469 -5.464844 L 5.730469 -12.257812 C 5.730469 -12.507812 5.808594 -12.710938 5.964844 -12.867188 C 6.121094 -13.027344 6.328125 -13.105469 6.578125 -13.105469 Z M 6.578125 -11.984375 C 6.589844 -11.984375 6.605469 -11.988281 6.628906 -11.996094 C 6.675781 -12.011719 6.71875 -12.039062 6.757812 -12.078125 C 6.796875 -12.113281 6.824219 -12.15625 6.839844 -12.207031 C 6.847656 -12.226562 6.851562 -12.246094 6.851562 -12.257812 L 6.851562 -5.464844 L 5.789062 -5.21875 L 2.414062 -12.070312 L 2.414062 -12.078125 C 2.417969 -12.066406 2.433594 -12.050781 2.457031 -12.03125 C 2.503906 -12 2.550781 -11.984375 2.597656 -11.984375 L 1.183594 -11.984375 C 1.195312 -11.984375 1.210938 -11.988281 1.234375 -11.996094 C 1.28125 -12.011719 1.324219 -12.039062 1.363281 -12.078125 C 1.402344 -12.113281 1.429688 -12.15625 1.445312 -12.207031 C 1.453125 -12.226562 1.457031 -12.246094 1.457031 -12.257812 L 1.457031 -0.285156 C 1.457031 -0.300781 1.453125 -0.316406 1.445312 -0.339844 C 1.429688 -0.386719 1.402344 -0.429688 1.363281 -0.46875 C 1.324219 -0.507812 1.28125 -0.535156 1.234375 -0.550781 C 1.210938 -0.554688 1.195312 -0.558594 1.183594 -0.558594 L 2.867188 -0.558594 C 2.855469 -0.558594 2.835938 -0.554688 2.816406 -0.550781 C 2.769531 -0.535156 2.726562 -0.507812 2.6875 -0.46875 C 2.648438 -0.429688 2.621094 -0.386719 2.605469 -0.339844 C 2.597656 -0.316406 2.59375 -0.300781 2.59375 -0.285156 L 2.59375 -7.078125 L 3.65625 -7.324219 L 7.027344 -0.472656 L 7.03125 -0.46875 C 7.027344 -0.480469 7.011719 -0.492188 6.984375 -0.511719 C 6.941406 -0.542969 6.894531 -0.558594 6.84375 -0.558594 L 8.261719 -0.558594 C 8.25 -0.558594 8.230469 -0.554688 8.210938 -0.550781 C 8.160156 -0.535156 8.117188 -0.507812 8.082031 -0.46875 C 8.042969 -0.429688 8.015625 -0.386719 8 -0.339844 C 7.992188 -0.316406 7.988281 -0.300781 7.988281 -0.285156 L 7.988281 -12.257812 C 7.988281 -12.246094 7.992188 -12.226562 8 -12.207031 C 8.015625 -12.15625 8.042969 -12.113281 8.082031 -12.078125 C 8.117188 -12.039062 8.160156 -12.011719 8.210938 -11.996094 C 8.230469 -11.988281 8.25 -11.984375 8.261719 -11.984375 Z M 6.578125 -11.984375 "/></g></g><g style="fill:#b21a22;fill-opacity:1;"><g transform="translate(73.344615, 42.548895)"><path style="stroke:none" d="M -0.558594 2.402344 L -0.558594 0.753906 C -0.558594 0.480469 -0.476562 0.257812 -0.304688 0.0859375 C -0.136719 -0.0820312 0.0859375 -0.164062 0.359375 -0.164062 L 11.164062 -0.164062 C 11.4375 -0.164062 11.660156 -0.0820312 11.828125 0.0859375 C 12 0.257812 12.082031 0.480469 12.082031 0.753906 L 12.082031 2.402344 C 12.082031 2.675781 12 2.898438 11.828125 3.066406 C 11.660156 3.234375 11.4375 3.320312 11.164062 3.320312 L 0.359375 3.320312 C 0.0859375 3.320312 -0.136719 3.234375 -0.304688 3.066406 C -0.476562 2.898438 -0.558594 2.675781 -0.558594 2.402344 Z M 0.558594 2.402344 C 0.558594 2.402344 0.558594 2.40625 0.558594 2.40625 C 0.558594 2.398438 0.558594 2.390625 0.554688 2.382812 C 0.539062 2.34375 0.519531 2.304688 0.484375 2.273438 C 0.453125 2.242188 0.417969 2.21875 0.378906 2.207031 C 0.371094 2.203125 0.359375 2.199219 0.355469 2.199219 C 0.351562 2.199219 0.351562 2.199219 0.351562 2.199219 C 0.355469 2.199219 0.355469 2.199219 0.359375 2.199219 L 11.164062 2.199219 C 11.167969 2.199219 11.167969 2.199219 11.171875 2.199219 C 11.171875 2.199219 11.171875 2.199219 11.167969 2.199219 C 11.160156 2.199219 11.152344 2.203125 11.144531 2.207031 C 11.105469 2.21875 11.070312 2.242188 11.039062 2.273438 C 11.003906 2.304688 10.980469 2.34375 10.96875 2.382812 C 10.964844 2.390625 10.964844 2.398438 10.960938 2.40625 C 10.960938 2.40625 10.960938 2.402344 10.960938 2.402344 L 10.960938 0.753906 C 10.960938 0.75 10.960938 0.75 10.960938 0.746094 C 10.964844 0.753906 10.964844 0.761719 10.96875 0.773438 C 10.980469 0.8125 11.003906 0.847656 11.039062 0.878906 C 11.070312 0.914062 11.105469 0.933594 11.144531 0.949219 C 11.152344 0.949219 11.160156 0.953125 11.167969 0.953125 C 11.171875 0.953125 11.171875 0.953125 11.171875 0.953125 C 11.167969 0.953125 11.167969 0.953125 11.164062 0.953125 L 0.359375 0.953125 C 0.355469 0.953125 0.355469 0.953125 0.351562 0.953125 C 0.351562 0.953125 0.351562 0.953125 0.355469 0.953125 C 0.359375 0.953125 0.371094 0.949219 0.378906 0.949219 C 0.417969 0.933594 0.453125 0.914062 0.484375 0.878906 C 0.519531 0.847656 0.539062 0.8125 0.554688 0.773438 C 0.558594 0.761719 0.558594 0.753906 0.558594 0.746094 C 0.558594 0.75 0.558594 0.75 0.558594 0.753906 Z M 0.558594 2.402344 "/></g></g><g style="fill:#b21a22;fill-opacity:1;"><g transform="translate(16.392944, 67.533117)"><path style="stroke:none" d="M 8.640625 -9.964844 L 8.640625 -7.542969 C 8.640625 -7.0625 8.484375 -6.652344 8.167969 -6.316406 C 7.867188 -6 7.496094 -5.804688 7.054688 -5.722656 L 6.953125 -6.273438 L 7.511719 -6.273438 L 7.511719 -6.238281 L 6.953125 -6.238281 L 7.035156 -6.789062 C 7.488281 -6.722656 7.867188 -6.523438 8.171875 -6.195312 C 8.484375 -5.855469 8.640625 -5.445312 8.640625 -4.964844 L 8.640625 -2.582031 C 8.640625 -1.589844 8.367188 -0.820312 7.816406 -0.265625 C 7.265625 0.285156 6.488281 0.558594 5.484375 0.558594 L 1.183594 0.558594 C 0.933594 0.558594 0.730469 0.480469 0.570312 0.324219 C 0.414062 0.167969 0.335938 -0.0351562 0.335938 -0.285156 L 0.335938 -12.257812 C 0.335938 -12.507812 0.414062 -12.710938 0.570312 -12.867188 C 0.730469 -13.027344 0.933594 -13.105469 1.183594 -13.105469 L 5.484375 -13.105469 C 6.484375 -13.105469 7.261719 -12.832031 7.8125 -12.289062 C 8.367188 -11.742188 8.640625 -10.96875 8.640625 -9.964844 Z M 7.523438 -9.964844 C 7.523438 -10.65625 7.355469 -11.164062 7.027344 -11.492188 C 6.691406 -11.820312 6.179688 -11.984375 5.484375 -11.984375 L 1.183594 -11.984375 C 1.195312 -11.984375 1.210938 -11.988281 1.234375 -11.996094 C 1.28125 -12.011719 1.324219 -12.039062 1.363281 -12.078125 C 1.402344 -12.113281 1.429688 -12.15625 1.445312 -12.207031 C 1.453125 -12.226562 1.457031 -12.246094 1.457031 -12.257812 L 1.457031 -0.285156 C 1.457031 -0.300781 1.453125 -0.316406 1.445312 -0.339844 C 1.429688 -0.386719 1.402344 -0.429688 1.363281 -0.46875 C 1.324219 -0.507812 1.28125 -0.535156 1.234375 -0.550781 C 1.210938 -0.554688 1.195312 -0.558594 1.183594 -0.558594 L 5.484375 -0.558594 C 6.175781 -0.558594 6.691406 -0.726562 7.023438 -1.058594 C 7.355469 -1.390625 7.523438 -1.898438 7.523438 -2.582031 L 7.523438 -4.964844 C 7.523438 -5.152344 7.464844 -5.308594 7.347656 -5.433594 C 7.222656 -5.570312 7.0625 -5.652344 6.871094 -5.683594 L 6.394531 -5.753906 L 6.394531 -6.738281 L 6.851562 -6.824219 C 7.054688 -6.859375 7.222656 -6.949219 7.351562 -7.085938 C 7.464844 -7.207031 7.523438 -7.359375 7.523438 -7.542969 Z M 5.246094 -8.136719 L 5.246094 -9.570312 C 5.246094 -9.628906 5.242188 -9.675781 5.230469 -9.707031 C 5.226562 -9.710938 5.226562 -9.714844 5.226562 -9.71875 C 5.226562 -9.714844 5.226562 -9.714844 5.230469 -9.710938 C 5.234375 -9.707031 5.234375 -9.707031 5.238281 -9.707031 C 5.234375 -9.707031 5.230469 -9.707031 5.226562 -9.710938 C 5.195312 -9.722656 5.148438 -9.726562 5.089844 -9.726562 L 3.117188 -9.726562 L 3.117188 -10.285156 L 3.679688 -10.285156 L 3.679688 -7.4375 L 3.117188 -7.4375 L 3.117188 -7.996094 L 5.089844 -7.996094 C 5.148438 -7.996094 5.195312 -8.003906 5.230469 -8.011719 C 5.238281 -8.015625 5.242188 -8.015625 5.242188 -8.019531 C 5.242188 -8.015625 5.238281 -8.015625 5.234375 -8.011719 C 5.234375 -8.007812 5.230469 -8.007812 5.226562 -8.003906 C 5.230469 -8.003906 5.230469 -8.007812 5.230469 -8.011719 C 5.242188 -8.039062 5.246094 -8.082031 5.246094 -8.136719 Z M 6.367188 -8.136719 C 6.367188 -7.746094 6.25 -7.4375 6.019531 -7.210938 C 5.789062 -6.988281 5.480469 -6.875 5.089844 -6.875 L 2.558594 -6.875 L 2.558594 -10.847656 L 5.089844 -10.847656 C 5.484375 -10.847656 5.792969 -10.730469 6.023438 -10.503906 C 6.25 -10.273438 6.367188 -9.964844 6.367188 -9.570312 Z M 5.246094 -2.976562 L 5.246094 -4.355469 C 5.246094 -4.414062 5.242188 -4.460938 5.230469 -4.492188 C 5.226562 -4.496094 5.226562 -4.5 5.226562 -4.503906 C 5.226562 -4.5 5.226562 -4.5 5.230469 -4.496094 C 5.234375 -4.492188 5.234375 -4.492188 5.238281 -4.492188 C 5.234375 -4.492188 5.230469 -4.492188 5.226562 -4.496094 C 5.195312 -4.507812 5.148438 -4.511719 5.089844 -4.511719 L 3.117188 -4.511719 L 3.117188 -5.070312 L 3.679688 -5.070312 L 3.679688 -2.257812 L 3.117188 -2.257812 L 3.117188 -2.816406 L 5.089844 -2.816406 C 5.148438 -2.816406 5.195312 -2.824219 5.226562 -2.835938 C 5.230469 -2.835938 5.234375 -2.835938 5.238281 -2.839844 C 5.234375 -2.835938 5.234375 -2.835938 5.230469 -2.832031 C 5.226562 -2.832031 5.226562 -2.828125 5.226562 -2.824219 C 5.226562 -2.828125 5.226562 -2.832031 5.230469 -2.839844 C 5.242188 -2.871094 5.246094 -2.914062 5.246094 -2.976562 Z M 6.367188 -2.976562 C 6.367188 -2.582031 6.25 -2.269531 6.023438 -2.042969 C 5.792969 -1.8125 5.484375 -1.699219 5.089844 -1.699219 L 2.558594 -1.699219 L 2.558594 -5.632812 L 5.089844 -5.632812 C 5.484375 -5.632812 5.792969 -5.515625 6.023438 -5.289062 C 6.25 -5.058594 6.367188 -4.75 6.367188 -4.355469 Z M 6.367188 -2.976562 "/></g></g><g style="fill:#b21a22;fill-opacity:1;"><g transform="translate(25.36828, 67.533117)"><path style="stroke:none" d="M 9.355469 0.558594 L 7.617188 0.558594 C 7.398438 0.558594 7.210938 0.492188 7.058594 0.359375 C 6.917969 0.234375 6.824219 0.0703125 6.78125 -0.132812 L 7.328125 -0.25 L 6.785156 -0.113281 L 6.214844 -2.371094 L 6.757812 -2.507812 L 6.757812 -1.949219 L 3.386719 -1.949219 L 3.386719 -2.507812 L 3.929688 -2.375 L 3.375 -0.117188 L 2.832031 -0.25 L 3.378906 -0.132812 C 3.335938 0.0703125 3.242188 0.234375 3.101562 0.359375 C 2.949219 0.492188 2.761719 0.558594 2.542969 0.558594 L 0.789062 0.558594 C 0.496094 0.558594 0.273438 0.460938 0.125 0.265625 C -0.03125 0.0625 -0.0664062 -0.179688 0.0195312 -0.460938 L 0.554688 -0.304688 L 0.0117188 -0.441406 L 2.988281 -12.429688 L 3.53125 -12.292969 L 2.984375 -12.410156 C 3.027344 -12.621094 3.125 -12.789062 3.277344 -12.914062 C 3.429688 -13.039062 3.617188 -13.105469 3.835938 -13.105469 L 6.324219 -13.105469 C 6.542969 -13.105469 6.730469 -13.039062 6.882812 -12.914062 C 7.035156 -12.789062 7.132812 -12.621094 7.179688 -12.410156 L 6.628906 -12.292969 L 7.175781 -12.429688 L 10.148438 -0.441406 L 9.605469 -0.304688 L 10.144531 -0.460938 C 10.226562 -0.171875 10.1875 0.078125 10.019531 0.28125 C 9.867188 0.464844 9.644531 0.558594 9.355469 0.558594 Z M 9.355469 -0.558594 C 9.355469 -0.558594 9.359375 -0.558594 9.363281 -0.558594 C 9.359375 -0.558594 9.359375 -0.558594 9.359375 -0.558594 C 9.347656 -0.558594 9.335938 -0.554688 9.324219 -0.550781 C 9.257812 -0.53125 9.203125 -0.492188 9.15625 -0.433594 C 9.101562 -0.367188 9.070312 -0.292969 9.066406 -0.214844 C 9.0625 -0.183594 9.0625 -0.160156 9.066406 -0.148438 L 9.066406 -0.15625 L 6.085938 -12.167969 L 6.082031 -12.175781 C 6.09375 -12.132812 6.121094 -12.089844 6.171875 -12.050781 C 6.222656 -12.007812 6.277344 -11.984375 6.324219 -11.984375 L 3.835938 -11.984375 C 3.886719 -11.984375 3.9375 -12.007812 3.988281 -12.050781 C 4.039062 -12.089844 4.070312 -12.132812 4.078125 -12.175781 L 4.074219 -12.167969 L 1.097656 -0.15625 L 1.09375 -0.148438 C 1.097656 -0.160156 1.097656 -0.175781 1.09375 -0.203125 C 1.089844 -0.28125 1.0625 -0.351562 1.015625 -0.417969 C 0.964844 -0.480469 0.90625 -0.523438 0.835938 -0.546875 C 0.8125 -0.554688 0.796875 -0.558594 0.789062 -0.558594 L 2.542969 -0.558594 C 2.480469 -0.558594 2.421875 -0.535156 2.363281 -0.484375 C 2.320312 -0.445312 2.292969 -0.40625 2.285156 -0.367188 L 2.285156 -0.375 L 2.949219 -3.070312 L 7.191406 -3.070312 L 7.875 -0.378906 L 7.878906 -0.367188 C 7.867188 -0.40625 7.84375 -0.445312 7.796875 -0.484375 C 7.738281 -0.535156 7.679688 -0.558594 7.617188 -0.558594 Z M 5.65625 -4.460938 L 4.527344 -9.335938 L 5.070312 -9.460938 L 5.617188 -9.335938 L 4.488281 -4.460938 L 3.941406 -4.585938 L 3.941406 -5.148438 L 6.199219 -5.148438 L 6.199219 -4.585938 Z M 6.90625 -4.027344 L 3.238281 -4.027344 L 4.527344 -9.589844 L 5.617188 -9.589844 L 6.746094 -4.714844 Z M 6.90625 -4.027344 "/></g></g><g style="fill:#b21a22;fill-opacity:1;"><g transform="translate(35.525994, 67.533117)"><path style="stroke:none" d="M 7.417969 -11.984375 L 0.824219 -11.984375 C 0.835938 -11.984375 0.855469 -11.988281 0.875 -11.996094 C 0.921875 -12.011719 0.96875 -12.039062 1.003906 -12.078125 C 1.042969 -12.113281 1.070312 -12.15625 1.085938 -12.207031 C 1.09375 -12.226562 1.097656 -12.246094 1.097656 -12.257812 L 1.097656 -10.464844 C 1.097656 -10.476562 1.09375 -10.496094 1.085938 -10.515625 C 1.070312 -10.566406 1.042969 -10.609375 1.003906 -10.648438 C 0.96875 -10.683594 0.921875 -10.710938 0.875 -10.726562 C 0.855469 -10.734375 0.835938 -10.738281 0.824219 -10.738281 L 3.464844 -10.738281 L 3.464844 -0.285156 C 3.464844 -0.300781 3.460938 -0.316406 3.453125 -0.339844 C 3.4375 -0.386719 3.410156 -0.429688 3.371094 -0.46875 C 3.332031 -0.507812 3.289062 -0.535156 3.242188 -0.550781 C 3.21875 -0.554688 3.203125 -0.558594 3.191406 -0.558594 L 5.054688 -0.558594 C 5.039062 -0.558594 5.023438 -0.554688 5 -0.550781 C 4.953125 -0.535156 4.910156 -0.507812 4.871094 -0.46875 C 4.835938 -0.429688 4.808594 -0.386719 4.792969 -0.339844 C 4.785156 -0.316406 4.78125 -0.300781 4.78125 -0.285156 L 4.78125 -10.738281 L 7.417969 -10.738281 C 7.40625 -10.738281 7.390625 -10.734375 7.367188 -10.726562 C 7.320312 -10.710938 7.277344 -10.683594 7.238281 -10.648438 C 7.199219 -10.609375 7.171875 -10.566406 7.15625 -10.515625 C 7.148438 -10.496094 7.144531 -10.476562 7.144531 -10.464844 L 7.144531 -12.257812 C 7.144531 -12.246094 7.148438 -12.226562 7.15625 -12.207031 C 7.171875 -12.15625 7.199219 -12.113281 7.238281 -12.078125 C 7.277344 -12.039062 7.320312 -12.011719 7.367188 -11.996094 C 7.390625 -11.988281 7.40625 -11.984375 7.417969 -11.984375 Z M 7.417969 -13.105469 C 7.667969 -13.105469 7.871094 -13.027344 8.03125 -12.867188 C 8.1875 -12.710938 8.265625 -12.507812 8.265625 -12.257812 L 8.265625 -10.464844 C 8.265625 -10.214844 8.1875 -10.011719 8.03125 -9.855469 C 7.871094 -9.699219 7.667969 -9.617188 7.417969 -9.617188 L 5.339844 -9.617188 L 5.339844 -10.179688 L 5.898438 -10.179688 L 5.898438 -0.285156 C 5.898438 -0.0351562 5.820312 0.167969 5.664062 0.324219 C 5.507812 0.480469 5.304688 0.558594 5.054688 0.558594 L 3.191406 0.558594 C 2.941406 0.558594 2.734375 0.480469 2.578125 0.324219 C 2.421875 0.167969 2.34375 -0.0351562 2.34375 -0.285156 L 2.34375 -10.179688 L 2.902344 -10.179688 L 2.902344 -9.617188 L 0.824219 -9.617188 C 0.574219 -9.617188 0.371094 -9.699219 0.214844 -9.855469 C 0.0546875 -10.011719 -0.0234375 -10.214844 -0.0234375 -10.464844 L -0.0234375 -12.257812 C -0.0234375 -12.507812 0.0546875 -12.710938 0.214844 -12.867188 C 0.371094 -13.027344 0.574219 -13.105469 0.824219 -13.105469 Z M 7.417969 -13.105469 "/></g></g><g style="fill:#b21a22;fill-opacity:1;"><g transform="translate(43.76682, 67.533117)"><path style="stroke:none" d="M 8.640625 -9.964844 L 8.640625 -8.027344 C 8.640625 -7.777344 8.5625 -7.574219 8.40625 -7.417969 C 8.25 -7.261719 8.046875 -7.179688 7.796875 -7.179688 L 6.109375 -7.179688 C 5.859375 -7.179688 5.65625 -7.261719 5.5 -7.417969 C 5.34375 -7.574219 5.265625 -7.777344 5.265625 -8.027344 L 5.265625 -9.496094 C 5.265625 -9.558594 5.257812 -9.601562 5.246094 -9.632812 C 5.246094 -9.640625 5.246094 -9.644531 5.242188 -9.648438 C 5.246094 -9.644531 5.246094 -9.640625 5.25 -9.640625 C 5.25 -9.636719 5.253906 -9.636719 5.257812 -9.632812 C 5.253906 -9.636719 5.25 -9.636719 5.242188 -9.636719 C 5.210938 -9.648438 5.167969 -9.65625 5.105469 -9.65625 L 3.960938 -9.65625 C 3.902344 -9.65625 3.855469 -9.648438 3.824219 -9.636719 C 3.816406 -9.636719 3.8125 -9.636719 3.8125 -9.632812 C 3.8125 -9.636719 3.816406 -9.636719 3.820312 -9.640625 C 3.820312 -9.640625 3.824219 -9.644531 3.824219 -9.648438 C 3.824219 -9.644531 3.820312 -9.640625 3.820312 -9.632812 C 3.808594 -9.601562 3.804688 -9.558594 3.804688 -9.496094 L 3.804688 -2.992188 C 3.804688 -2.933594 3.808594 -2.886719 3.820312 -2.855469 C 3.820312 -2.851562 3.824219 -2.847656 3.824219 -2.84375 C 3.824219 -2.847656 3.820312 -2.847656 3.820312 -2.851562 C 3.816406 -2.855469 3.8125 -2.855469 3.8125 -2.855469 C 3.8125 -2.855469 3.816406 -2.855469 3.824219 -2.851562 C 3.855469 -2.839844 3.902344 -2.835938 3.960938 -2.835938 L 5.105469 -2.835938 C 5.167969 -2.835938 5.210938 -2.839844 5.242188 -2.851562 C 5.25 -2.855469 5.253906 -2.855469 5.257812 -2.855469 C 5.253906 -2.855469 5.25 -2.855469 5.25 -2.851562 C 5.246094 -2.847656 5.246094 -2.847656 5.242188 -2.84375 C 5.246094 -2.847656 5.246094 -2.851562 5.246094 -2.855469 C 5.257812 -2.886719 5.265625 -2.933594 5.265625 -2.992188 L 5.265625 -4.515625 C 5.265625 -4.765625 5.34375 -4.96875 5.5 -5.128906 C 5.65625 -5.285156 5.859375 -5.363281 6.109375 -5.363281 L 7.796875 -5.363281 C 8.046875 -5.363281 8.25 -5.285156 8.40625 -5.128906 C 8.5625 -4.96875 8.640625 -4.765625 8.640625 -4.515625 L 8.640625 -2.582031 C 8.640625 -1.589844 8.367188 -0.820312 7.816406 -0.265625 C 7.265625 0.285156 6.492188 0.558594 5.5 0.558594 L 3.496094 0.558594 C 2.503906 0.558594 1.730469 0.285156 1.175781 -0.265625 C 0.617188 -0.816406 0.335938 -1.589844 0.335938 -2.582031 L 0.335938 -9.964844 C 0.335938 -10.96875 0.617188 -11.746094 1.175781 -12.292969 C 1.734375 -12.832031 2.507812 -13.105469 3.496094 -13.105469 L 5.5 -13.105469 C 6.492188 -13.105469 7.261719 -12.832031 7.8125 -12.289062 C 8.367188 -11.742188 8.640625 -10.96875 8.640625 -9.964844 Z M 7.523438 -9.964844 C 7.523438 -10.65625 7.355469 -11.164062 7.027344 -11.492188 C 6.691406 -11.820312 6.183594 -11.984375 5.5 -11.984375 L 3.496094 -11.984375 C 2.808594 -11.984375 2.296875 -11.820312 1.957031 -11.488281 C 1.625 -11.164062 1.457031 -10.65625 1.457031 -9.964844 L 1.457031 -2.582031 C 1.457031 -1.898438 1.625 -1.394531 1.960938 -1.0625 C 2.300781 -0.726562 2.8125 -0.558594 3.496094 -0.558594 L 5.5 -0.558594 C 6.183594 -0.558594 6.691406 -0.726562 7.023438 -1.058594 C 7.355469 -1.390625 7.523438 -1.898438 7.523438 -2.582031 L 7.523438 -4.515625 C 7.523438 -4.503906 7.527344 -4.484375 7.53125 -4.464844 C 7.550781 -4.417969 7.574219 -4.375 7.613281 -4.335938 C 7.652344 -4.296875 7.695312 -4.269531 7.742188 -4.253906 C 7.765625 -4.246094 7.78125 -4.242188 7.796875 -4.242188 L 6.109375 -4.242188 C 6.125 -4.242188 6.140625 -4.246094 6.164062 -4.253906 C 6.210938 -4.269531 6.253906 -4.296875 6.292969 -4.335938 C 6.332031 -4.375 6.359375 -4.417969 6.375 -4.464844 C 6.378906 -4.484375 6.382812 -4.503906 6.382812 -4.515625 L 6.382812 -2.992188 C 6.382812 -2.597656 6.269531 -2.289062 6.039062 -2.058594 C 5.8125 -1.832031 5.5 -1.714844 5.105469 -1.714844 L 3.960938 -1.714844 C 3.566406 -1.714844 3.253906 -1.832031 3.027344 -2.058594 C 2.796875 -2.289062 2.683594 -2.597656 2.683594 -2.992188 L 2.683594 -9.496094 C 2.683594 -9.890625 2.796875 -10.203125 3.027344 -10.429688 C 3.253906 -10.660156 3.566406 -10.773438 3.960938 -10.773438 L 5.105469 -10.773438 C 5.5 -10.773438 5.8125 -10.660156 6.039062 -10.429688 C 6.269531 -10.203125 6.382812 -9.890625 6.382812 -9.496094 L 6.382812 -8.027344 C 6.382812 -8.042969 6.378906 -8.058594 6.375 -8.078125 C 6.359375 -8.128906 6.332031 -8.171875 6.292969 -8.210938 C 6.253906 -8.246094 6.210938 -8.273438 6.164062 -8.289062 C 6.140625 -8.296875 6.125 -8.300781 6.109375 -8.300781 L 7.796875 -8.300781 C 7.78125 -8.300781 7.765625 -8.296875 7.742188 -8.289062 C 7.695312 -8.273438 7.652344 -8.246094 7.613281 -8.210938 C 7.574219 -8.171875 7.550781 -8.128906 7.53125 -8.078125 C 7.527344 -8.058594 7.523438 -8.042969 7.523438 -8.027344 Z M 7.523438 -9.964844 "/></g></g><g style="fill:#b21a22;fill-opacity:1;"><g transform="translate(52.742156, 67.533117)"><path style="stroke:none" d="M 5.066406 -7.417969 L 5.066406 -12.257812 C 5.066406 -12.507812 5.144531 -12.710938 5.300781 -12.867188 C 5.460938 -13.027344 5.664062 -13.105469 5.914062 -13.105469 L 7.757812 -13.105469 C 8.007812 -13.105469 8.214844 -13.03125 8.371094 -12.878906 C 8.539062 -12.722656 8.625 -12.515625 8.625 -12.257812 L 8.625 -0.285156 C 8.625 -0.03125 8.539062 0.179688 8.371094 0.335938 C 8.214844 0.484375 8.007812 0.558594 7.757812 0.558594 L 5.914062 0.558594 C 5.664062 0.558594 5.460938 0.480469 5.300781 0.324219 C 5.144531 0.167969 5.066406 -0.0351562 5.066406 -0.285156 L 5.066406 -5.054688 L 5.628906 -5.054688 L 5.628906 -4.492188 L 3.332031 -4.492188 L 3.332031 -5.054688 L 3.894531 -5.054688 L 3.894531 -0.285156 C 3.894531 -0.0351562 3.816406 0.167969 3.65625 0.324219 C 3.5 0.480469 3.296875 0.558594 3.046875 0.558594 L 1.199219 0.558594 C 0.949219 0.558594 0.746094 0.484375 0.589844 0.335938 C 0.421875 0.179688 0.335938 -0.03125 0.335938 -0.285156 L 0.335938 -12.257812 C 0.335938 -12.515625 0.421875 -12.722656 0.589844 -12.878906 C 0.746094 -13.03125 0.949219 -13.105469 1.199219 -13.105469 L 3.046875 -13.105469 C 3.296875 -13.105469 3.5 -13.027344 3.65625 -12.867188 C 3.816406 -12.710938 3.894531 -12.507812 3.894531 -12.257812 L 3.894531 -7.417969 L 3.332031 -7.417969 L 3.332031 -7.980469 L 5.628906 -7.980469 L 5.628906 -7.417969 Z M 6.1875 -6.859375 L 2.773438 -6.859375 L 2.773438 -12.257812 C 2.773438 -12.246094 2.777344 -12.226562 2.785156 -12.207031 C 2.800781 -12.15625 2.828125 -12.113281 2.867188 -12.078125 C 2.902344 -12.039062 2.945312 -12.011719 2.996094 -11.996094 C 3.015625 -11.988281 3.035156 -11.984375 3.046875 -11.984375 L 1.199219 -11.984375 C 1.207031 -11.984375 1.21875 -11.988281 1.234375 -11.992188 C 1.277344 -12.003906 1.320312 -12.03125 1.355469 -12.066406 C 1.398438 -12.101562 1.425781 -12.148438 1.441406 -12.195312 C 1.453125 -12.222656 1.457031 -12.242188 1.457031 -12.257812 L 1.457031 -0.285156 C 1.457031 -0.304688 1.453125 -0.324219 1.441406 -0.347656 C 1.425781 -0.398438 1.398438 -0.441406 1.355469 -0.480469 C 1.320312 -0.515625 1.277344 -0.539062 1.234375 -0.550781 C 1.21875 -0.558594 1.207031 -0.558594 1.199219 -0.558594 L 3.046875 -0.558594 C 3.035156 -0.558594 3.015625 -0.554688 2.996094 -0.550781 C 2.945312 -0.535156 2.902344 -0.507812 2.867188 -0.46875 C 2.828125 -0.429688 2.800781 -0.386719 2.785156 -0.339844 C 2.777344 -0.316406 2.773438 -0.300781 2.773438 -0.285156 L 2.773438 -5.613281 L 6.1875 -5.613281 L 6.1875 -0.285156 C 6.1875 -0.300781 6.183594 -0.316406 6.175781 -0.339844 C 6.160156 -0.386719 6.132812 -0.429688 6.09375 -0.46875 C 6.054688 -0.507812 6.011719 -0.535156 5.964844 -0.550781 C 5.945312 -0.554688 5.925781 -0.558594 5.914062 -0.558594 L 7.757812 -0.558594 C 7.753906 -0.558594 7.742188 -0.558594 7.726562 -0.550781 C 7.679688 -0.539062 7.640625 -0.515625 7.605469 -0.480469 C 7.5625 -0.441406 7.535156 -0.398438 7.515625 -0.347656 C 7.507812 -0.324219 7.503906 -0.304688 7.503906 -0.285156 L 7.503906 -12.257812 C 7.503906 -12.242188 7.507812 -12.222656 7.515625 -12.195312 C 7.535156 -12.148438 7.5625 -12.101562 7.605469 -12.066406 C 7.640625 -12.03125 7.679688 -12.003906 7.726562 -11.992188 C 7.742188 -11.988281 7.753906 -11.984375 7.757812 -11.984375 L 5.914062 -11.984375 C 5.925781 -11.984375 5.945312 -11.988281 5.964844 -11.996094 C 6.011719 -12.011719 6.054688 -12.039062 6.09375 -12.078125 C 6.132812 -12.113281 6.160156 -12.15625 6.175781 -12.207031 C 6.183594 -12.226562 6.1875 -12.246094 6.1875 -12.257812 Z M 6.1875 -6.859375 "/></g></g><g style="fill:#b21a22;fill-opacity:1;"><g transform="translate(61.699574, 67.533117)"><path style="stroke:none" d="M 8.605469 -12.257812 L 8.605469 -10.464844 C 8.605469 -10.214844 8.53125 -10.011719 8.382812 -9.851562 C 8.222656 -9.683594 8.015625 -9.601562 7.757812 -9.601562 L 3.332031 -9.601562 L 3.332031 -10.160156 L 3.894531 -10.160156 L 3.894531 -7.402344 L 3.332031 -7.402344 L 3.332031 -7.960938 L 6.703125 -7.960938 C 6.960938 -7.960938 7.167969 -7.878906 7.324219 -7.707031 C 7.472656 -7.550781 7.550781 -7.347656 7.550781 -7.097656 L 7.550781 -5.324219 C 7.550781 -5.074219 7.472656 -4.867188 7.324219 -4.710938 C 7.167969 -4.542969 6.960938 -4.457031 6.703125 -4.457031 L 3.332031 -4.457031 L 3.332031 -5.019531 L 3.894531 -5.019531 L 3.894531 -2.367188 L 3.332031 -2.367188 L 3.332031 -2.925781 L 7.757812 -2.925781 C 8.011719 -2.925781 8.214844 -2.847656 8.371094 -2.691406 C 8.527344 -2.53125 8.605469 -2.328125 8.605469 -2.078125 L 8.605469 -0.285156 C 8.605469 -0.0351562 8.527344 0.167969 8.371094 0.324219 C 8.214844 0.480469 8.011719 0.558594 7.757812 0.558594 L 1.164062 0.558594 C 0.914062 0.558594 0.710938 0.476562 0.554688 0.3125 C 0.410156 0.15625 0.335938 -0.0429688 0.335938 -0.285156 L 0.335938 -12.257812 C 0.335938 -12.5 0.410156 -12.699219 0.554688 -12.855469 C 0.710938 -13.023438 0.914062 -13.105469 1.164062 -13.105469 L 7.757812 -13.105469 C 8.011719 -13.105469 8.214844 -13.027344 8.371094 -12.867188 C 8.527344 -12.710938 8.605469 -12.507812 8.605469 -12.257812 Z M 7.484375 -12.257812 C 7.484375 -12.246094 7.488281 -12.226562 7.496094 -12.207031 C 7.511719 -12.15625 7.539062 -12.113281 7.578125 -12.078125 C 7.617188 -12.039062 7.660156 -12.011719 7.707031 -11.996094 C 7.730469 -11.988281 7.746094 -11.984375 7.757812 -11.984375 L 1.164062 -11.984375 C 1.238281 -11.984375 1.304688 -12.019531 1.371094 -12.089844 C 1.40625 -12.128906 1.433594 -12.171875 1.449219 -12.214844 C 1.453125 -12.234375 1.457031 -12.25 1.457031 -12.257812 L 1.457031 -0.285156 C 1.457031 -0.296875 1.453125 -0.308594 1.449219 -0.328125 C 1.433594 -0.375 1.40625 -0.417969 1.371094 -0.453125 C 1.304688 -0.523438 1.238281 -0.558594 1.164062 -0.558594 L 7.757812 -0.558594 C 7.746094 -0.558594 7.730469 -0.554688 7.707031 -0.550781 C 7.660156 -0.535156 7.617188 -0.507812 7.578125 -0.46875 C 7.539062 -0.429688 7.511719 -0.386719 7.496094 -0.339844 C 7.488281 -0.316406 7.484375 -0.300781 7.484375 -0.285156 L 7.484375 -2.078125 C 7.484375 -2.066406 7.488281 -2.046875 7.496094 -2.027344 C 7.511719 -1.980469 7.539062 -1.9375 7.578125 -1.898438 C 7.617188 -1.859375 7.660156 -1.832031 7.707031 -1.816406 C 7.730469 -1.808594 7.746094 -1.804688 7.757812 -1.804688 L 2.773438 -1.804688 L 2.773438 -5.578125 L 6.703125 -5.578125 C 6.6875 -5.578125 6.664062 -5.574219 6.640625 -5.566406 C 6.589844 -5.546875 6.546875 -5.519531 6.507812 -5.476562 C 6.476562 -5.441406 6.449219 -5.402344 6.4375 -5.355469 C 6.429688 -5.339844 6.429688 -5.328125 6.429688 -5.324219 L 6.429688 -7.097656 C 6.429688 -7.089844 6.429688 -7.078125 6.4375 -7.0625 C 6.449219 -7.019531 6.476562 -6.976562 6.507812 -6.941406 C 6.546875 -6.902344 6.589844 -6.871094 6.640625 -6.855469 C 6.664062 -6.84375 6.6875 -6.839844 6.703125 -6.839844 L 2.773438 -6.839844 L 2.773438 -10.722656 L 7.757812 -10.722656 C 7.742188 -10.722656 7.722656 -10.714844 7.699219 -10.707031 C 7.648438 -10.691406 7.605469 -10.660156 7.566406 -10.621094 C 7.53125 -10.582031 7.507812 -10.542969 7.492188 -10.5 C 7.488281 -10.484375 7.484375 -10.472656 7.484375 -10.464844 Z M 7.484375 -12.257812 "/></g></g><g style="fill:#b21a22;fill-opacity:1;"><g transform="translate(70.639075, 67.533117)"><path style="stroke:none" d="M 3.476562 -13.105469 L 5.484375 -13.105469 C 6.488281 -13.105469 7.261719 -12.832031 7.804688 -12.285156 C 8.351562 -11.742188 8.625 -10.964844 8.625 -9.964844 L 8.625 -8.78125 C 8.625 -8.53125 8.546875 -8.328125 8.386719 -8.171875 C 8.230469 -8.011719 8.027344 -7.933594 7.777344 -7.933594 L 5.96875 -7.933594 C 5.71875 -7.933594 5.511719 -8.011719 5.355469 -8.171875 C 5.199219 -8.328125 5.121094 -8.53125 5.121094 -8.78125 L 5.121094 -9.535156 C 5.121094 -9.59375 5.117188 -9.636719 5.105469 -9.671875 C 5.101562 -9.675781 5.101562 -9.679688 5.101562 -9.683594 C 5.101562 -9.679688 5.101562 -9.679688 5.105469 -9.675781 C 5.109375 -9.671875 5.109375 -9.671875 5.113281 -9.667969 C 5.109375 -9.671875 5.105469 -9.671875 5.101562 -9.675781 C 5.070312 -9.683594 5.023438 -9.691406 4.964844 -9.691406 L 3.976562 -9.691406 C 3.917969 -9.691406 3.875 -9.683594 3.84375 -9.675781 C 3.835938 -9.671875 3.832031 -9.671875 3.828125 -9.667969 C 3.832031 -9.671875 3.835938 -9.671875 3.835938 -9.675781 C 3.839844 -9.679688 3.839844 -9.679688 3.84375 -9.683594 C 3.839844 -9.679688 3.839844 -9.675781 3.835938 -9.671875 C 3.828125 -9.636719 3.820312 -9.59375 3.820312 -9.535156 L 3.820312 -8.011719 L 3.261719 -8.011719 L 3.433594 -8.542969 L 7.769531 -7.144531 C 8.046875 -7.050781 8.257812 -6.898438 8.40625 -6.6875 C 8.550781 -6.480469 8.625 -6.234375 8.625 -5.949219 L 8.625 -2.582031 C 8.625 -1.589844 8.351562 -0.820312 7.808594 -0.269531 C 7.261719 0.285156 6.488281 0.558594 5.484375 0.558594 L 3.476562 0.558594 C 2.484375 0.558594 1.714844 0.285156 1.164062 -0.265625 C 0.613281 -0.820312 0.335938 -1.589844 0.335938 -2.582031 L 0.335938 -3.746094 C 0.335938 -3.996094 0.414062 -4.199219 0.570312 -4.355469 C 0.730469 -4.511719 0.933594 -4.59375 1.183594 -4.59375 L 2.992188 -4.59375 C 3.242188 -4.59375 3.445312 -4.511719 3.605469 -4.355469 C 3.761719 -4.199219 3.839844 -3.996094 3.839844 -3.746094 L 3.839844 -2.992188 C 3.839844 -2.933594 3.84375 -2.886719 3.855469 -2.855469 C 3.859375 -2.851562 3.859375 -2.847656 3.859375 -2.84375 C 3.859375 -2.847656 3.855469 -2.847656 3.855469 -2.851562 C 3.851562 -2.855469 3.851562 -2.855469 3.847656 -2.855469 C 3.851562 -2.855469 3.855469 -2.855469 3.859375 -2.851562 C 3.890625 -2.839844 3.9375 -2.835938 3.996094 -2.835938 L 4.964844 -2.835938 C 5.023438 -2.835938 5.070312 -2.839844 5.101562 -2.851562 C 5.105469 -2.855469 5.109375 -2.855469 5.113281 -2.855469 C 5.109375 -2.855469 5.109375 -2.855469 5.105469 -2.851562 C 5.101562 -2.847656 5.101562 -2.847656 5.101562 -2.84375 C 5.101562 -2.847656 5.101562 -2.851562 5.105469 -2.855469 C 5.117188 -2.886719 5.121094 -2.933594 5.121094 -2.992188 L 5.121094 -4.800781 L 5.679688 -4.800781 L 5.507812 -4.269531 L 1.207031 -5.667969 C 0.929688 -5.761719 0.714844 -5.910156 0.566406 -6.117188 C 0.414062 -6.324219 0.335938 -6.574219 0.335938 -6.863281 L 0.335938 -9.964844 C 0.335938 -10.96875 0.613281 -11.742188 1.164062 -12.289062 C 1.71875 -12.832031 2.488281 -13.105469 3.476562 -13.105469 Z M 3.476562 -11.984375 C 2.792969 -11.984375 2.285156 -11.820312 1.953125 -11.492188 C 1.621094 -11.164062 1.457031 -10.65625 1.457031 -9.964844 L 1.457031 -6.863281 C 1.457031 -6.816406 1.460938 -6.789062 1.46875 -6.777344 C 1.480469 -6.761719 1.507812 -6.75 1.554688 -6.734375 L 6.242188 -5.210938 L 6.242188 -2.992188 C 6.242188 -2.597656 6.125 -2.289062 5.898438 -2.058594 C 5.667969 -1.832031 5.359375 -1.714844 4.964844 -1.714844 L 3.996094 -1.714844 C 3.601562 -1.714844 3.292969 -1.832031 3.0625 -2.058594 C 2.832031 -2.289062 2.71875 -2.597656 2.71875 -2.992188 L 2.71875 -3.746094 C 2.71875 -3.734375 2.722656 -3.714844 2.730469 -3.695312 C 2.746094 -3.644531 2.773438 -3.601562 2.8125 -3.5625 C 2.851562 -3.527344 2.894531 -3.5 2.941406 -3.484375 C 2.960938 -3.476562 2.980469 -3.472656 2.992188 -3.472656 L 1.183594 -3.472656 C 1.195312 -3.472656 1.210938 -3.476562 1.234375 -3.484375 C 1.28125 -3.5 1.324219 -3.527344 1.363281 -3.5625 C 1.402344 -3.601562 1.429688 -3.644531 1.445312 -3.695312 C 1.453125 -3.714844 1.457031 -3.734375 1.457031 -3.746094 L 1.457031 -2.582031 C 1.457031 -1.898438 1.621094 -1.390625 1.957031 -1.058594 C 2.289062 -0.726562 2.796875 -0.558594 3.476562 -0.558594 L 5.484375 -0.558594 C 6.175781 -0.558594 6.683594 -0.726562 7.011719 -1.054688 C 7.339844 -1.390625 7.503906 -1.898438 7.503906 -2.582031 L 7.503906 -5.949219 C 7.503906 -6 7.5 -6.03125 7.488281 -6.042969 C 7.480469 -6.054688 7.460938 -6.066406 7.425781 -6.078125 L 2.703125 -7.601562 L 2.703125 -9.535156 C 2.703125 -9.925781 2.816406 -10.238281 3.042969 -10.46875 C 3.273438 -10.695312 3.585938 -10.8125 3.976562 -10.8125 L 4.964844 -10.8125 C 5.359375 -10.8125 5.667969 -10.695312 5.898438 -10.46875 C 6.125 -10.238281 6.242188 -9.925781 6.242188 -9.535156 L 6.242188 -8.78125 C 6.242188 -8.792969 6.238281 -8.8125 6.230469 -8.832031 C 6.214844 -8.878906 6.1875 -8.921875 6.148438 -8.960938 C 6.109375 -9 6.066406 -9.027344 6.019531 -9.042969 C 5.996094 -9.050781 5.980469 -9.054688 5.96875 -9.054688 L 7.777344 -9.054688 C 7.765625 -9.054688 7.746094 -9.050781 7.726562 -9.042969 C 7.679688 -9.027344 7.636719 -9 7.597656 -8.960938 C 7.558594 -8.921875 7.53125 -8.878906 7.515625 -8.832031 C 7.507812 -8.8125 7.503906 -8.792969 7.503906 -8.78125 L 7.503906 -9.964844 C 7.503906 -10.65625 7.339844 -11.167969 7.015625 -11.496094 C 6.6875 -11.820312 6.175781 -11.984375 5.484375 -11.984375 Z M 3.476562 -11.984375 "/></g></g><g style="fill:#060705;fill-opacity:1;"><g transform="translate(11.126383, 42.548895)"><path style="stroke:none" d="M 8.046875 -12.265625 L 8.046875 -10.46875 C 8.046875 -10.257812 7.953125 -10.15625 7.765625 -10.15625 L 3.328125 -10.15625 L 3.328125 -7.40625 L 6.703125 -7.40625 C 6.890625 -7.40625 6.984375 -7.300781 6.984375 -7.09375 L 6.984375 -5.328125 C 6.984375 -5.117188 6.890625 -5.015625 6.703125 -5.015625 L 3.328125 -5.015625 L 3.328125 -2.359375 L 7.765625 -2.359375 C 7.953125 -2.359375 8.046875 -2.265625 8.046875 -2.078125 L 8.046875 -0.28125 C 8.046875 -0.09375 7.953125 0 7.765625 0 L 1.171875 0 C 0.984375 0 0.890625 -0.09375 0.890625 -0.28125 L 0.890625 -12.265625 C 0.890625 -12.453125 0.984375 -12.546875 1.171875 -12.546875 L 7.765625 -12.546875 C 7.953125 -12.546875 8.046875 -12.453125 8.046875 -12.265625 Z M 8.046875 -12.265625 "/></g></g><g style="fill:#060705;fill-opacity:1;"><g transform="translate(20.065884, 42.548895)"><path style="stroke:none" d="M 9.359375 0 L 7.609375 0 C 7.460938 0 7.367188 -0.0820312 7.328125 -0.25 L 6.75 -2.515625 L 3.390625 -2.515625 L 2.828125 -0.25 C 2.796875 -0.0820312 2.703125 0 2.546875 0 L 0.78125 0 C 0.570312 0 0.5 -0.0976562 0.5625 -0.296875 L 3.53125 -12.296875 C 3.5625 -12.460938 3.660156 -12.546875 3.828125 -12.546875 L 6.328125 -12.546875 C 6.492188 -12.546875 6.59375 -12.460938 6.625 -12.296875 L 9.609375 -0.296875 C 9.671875 -0.0976562 9.585938 0 9.359375 0 Z M 6.203125 -4.59375 L 5.078125 -9.46875 L 3.9375 -4.59375 Z M 6.203125 -4.59375 "/></g></g><g style="fill:#060705;fill-opacity:1;"><g transform="translate(30.223598, 42.548895)"><path style="stroke:none" d="M 8.078125 -9.96875 L 8.078125 -8.03125 C 8.078125 -7.84375 7.984375 -7.75 7.796875 -7.75 L 6.109375 -7.75 C 5.921875 -7.75 5.828125 -7.84375 5.828125 -8.03125 L 5.828125 -9.5 C 5.828125 -9.976562 5.585938 -10.21875 5.109375 -10.21875 L 3.953125 -10.21875 C 3.484375 -10.21875 3.25 -9.976562 3.25 -9.5 L 3.25 -3 C 3.25 -2.519531 3.484375 -2.28125 3.953125 -2.28125 L 5.109375 -2.28125 C 5.585938 -2.28125 5.828125 -2.519531 5.828125 -3 L 5.828125 -4.515625 C 5.828125 -4.703125 5.921875 -4.796875 6.109375 -4.796875 L 7.796875 -4.796875 C 7.984375 -4.796875 8.078125 -4.703125 8.078125 -4.515625 L 8.078125 -2.578125 C 8.078125 -1.742188 7.851562 -1.101562 7.40625 -0.65625 C 6.96875 -0.21875 6.332031 0 5.5 0 L 3.5 0 C 2.65625 0 2.007812 -0.21875 1.5625 -0.65625 C 1.113281 -1.101562 0.890625 -1.742188 0.890625 -2.578125 L 0.890625 -9.96875 C 0.890625 -10.8125 1.113281 -11.453125 1.5625 -11.890625 C 2.007812 -12.328125 2.65625 -12.546875 3.5 -12.546875 L 5.5 -12.546875 C 6.332031 -12.546875 6.96875 -12.328125 7.40625 -11.890625 C 7.851562 -11.453125 8.078125 -10.8125 8.078125 -9.96875 Z M 8.078125 -9.96875 "/></g></g><g style="fill:#060705;fill-opacity:1;"><g transform="translate(39.198934, 42.548895)"><path style="stroke:none" d="M 5.625 -7.421875 L 5.625 -12.265625 C 5.625 -12.453125 5.722656 -12.546875 5.921875 -12.546875 L 7.765625 -12.546875 C 7.960938 -12.546875 8.0625 -12.453125 8.0625 -12.265625 L 8.0625 -0.28125 C 8.0625 -0.09375 7.960938 0 7.765625 0 L 5.921875 0 C 5.722656 0 5.625 -0.09375 5.625 -0.28125 L 5.625 -5.046875 L 3.328125 -5.046875 L 3.328125 -0.28125 C 3.328125 -0.09375 3.234375 0 3.046875 0 L 1.203125 0 C 0.992188 0 0.890625 -0.09375 0.890625 -0.28125 L 0.890625 -12.265625 C 0.890625 -12.453125 0.992188 -12.546875 1.203125 -12.546875 L 3.046875 -12.546875 C 3.234375 -12.546875 3.328125 -12.453125 3.328125 -12.265625 L 3.328125 -7.421875 Z M 5.625 -7.421875 "/></g></g><g style="fill:#060705;fill-opacity:1;"><g transform="translate(48.156352, 42.548895)"><path style="stroke:none" d="M 0 2.40625 L 0 0.75 C 0 0.507812 0.117188 0.390625 0.359375 0.390625 L 11.171875 0.390625 C 11.410156 0.390625 11.53125 0.507812 11.53125 0.75 L 11.53125 2.40625 C 11.53125 2.644531 11.410156 2.765625 11.171875 2.765625 L 0.359375 2.765625 C 0.117188 2.765625 0 2.644531 0 2.40625 Z M 0 2.40625 "/></g></g><g style="fill:#060705;fill-opacity:1;"><g transform="translate(59.675595, 42.548895)"><path style="stroke:none" d="M 1.1875 0 L 3.046875 0 C 3.234375 0 3.328125 -0.09375 3.328125 -0.28125 L 3.328125 -12.265625 C 3.328125 -12.453125 3.234375 -12.546875 3.046875 -12.546875 L 1.1875 -12.546875 C 0.988281 -12.546875 0.890625 -12.453125 0.890625 -12.265625 L 0.890625 -0.28125 C 0.890625 -0.09375 0.988281 0 1.1875 0 Z M 1.1875 0 "/></g></g><g style="fill:#060705;fill-opacity:1;"><g transform="translate(63.903493, 42.548895)"><path style="stroke:none" d="M 6.578125 -12.546875 L 8.265625 -12.546875 C 8.453125 -12.546875 8.546875 -12.453125 8.546875 -12.265625 L 8.546875 -0.28125 C 8.546875 -0.09375 8.453125 0 8.265625 0 L 6.84375 0 C 6.695312 0 6.59375 -0.078125 6.53125 -0.234375 L 3.15625 -7.078125 L 3.15625 -0.28125 C 3.15625 -0.09375 3.0625 0 2.875 0 L 1.1875 0 C 0.988281 0 0.890625 -0.09375 0.890625 -0.28125 L 0.890625 -12.265625 C 0.890625 -12.453125 0.988281 -12.546875 1.1875 -12.546875 L 2.59375 -12.546875 C 2.738281 -12.546875 2.847656 -12.46875 2.921875 -12.3125 L 6.296875 -5.46875 L 6.296875 -12.265625 C 6.296875 -12.453125 6.390625 -12.546875 6.578125 -12.546875 Z M 6.578125 -12.546875 "/></g></g><g style="fill:#060705;fill-opacity:1;"><g transform="translate(73.344615, 42.548895)"><path style="stroke:none" d="M 0 2.40625 L 0 0.75 C 0 0.507812 0.117188 0.390625 0.359375 0.390625 L 11.171875 0.390625 C 11.410156 0.390625 11.53125 0.507812 11.53125 0.75 L 11.53125 2.40625 C 11.53125 2.644531 11.410156 2.765625 11.171875 2.765625 L 0.359375 2.765625 C 0.117188 2.765625 0 2.644531 0 2.40625 Z M 0 2.40625 "/></g></g><g style="fill:#060705;fill-opacity:1;"><g transform="translate(16.392944, 67.533117)"><path style="stroke:none" d="M 8.078125 -9.96875 L 8.078125 -7.546875 C 8.078125 -7.210938 7.96875 -6.929688 7.75 -6.703125 C 7.539062 -6.472656 7.273438 -6.328125 6.953125 -6.265625 L 6.953125 -6.234375 C 7.273438 -6.191406 7.539062 -6.050781 7.75 -5.8125 C 7.96875 -5.582031 8.078125 -5.300781 8.078125 -4.96875 L 8.078125 -2.578125 C 8.078125 -1.742188 7.851562 -1.101562 7.40625 -0.65625 C 6.96875 -0.21875 6.328125 0 5.484375 0 L 1.1875 0 C 0.988281 0 0.890625 -0.09375 0.890625 -0.28125 L 0.890625 -12.265625 C 0.890625 -12.453125 0.988281 -12.546875 1.1875 -12.546875 L 5.484375 -12.546875 C 6.328125 -12.546875 6.96875 -12.328125 7.40625 -11.890625 C 7.851562 -11.453125 8.078125 -10.8125 8.078125 -9.96875 Z M 5.8125 -8.140625 L 5.8125 -9.5625 C 5.8125 -10.039062 5.570312 -10.28125 5.09375 -10.28125 L 3.125 -10.28125 L 3.125 -7.4375 L 5.09375 -7.4375 C 5.570312 -7.4375 5.8125 -7.671875 5.8125 -8.140625 Z M 5.8125 -2.96875 L 5.8125 -4.359375 C 5.8125 -4.835938 5.570312 -5.078125 5.09375 -5.078125 L 3.125 -5.078125 L 3.125 -2.265625 L 5.09375 -2.265625 C 5.570312 -2.265625 5.8125 -2.5 5.8125 -2.96875 Z M 5.8125 -2.96875 "/></g></g><g style="fill:#060705;fill-opacity:1;"><g transform="translate(25.36828, 67.533117)"><path style="stroke:none" d="M 9.359375 0 L 7.609375 0 C 7.460938 0 7.367188 -0.0820312 7.328125 -0.25 L 6.75 -2.515625 L 3.390625 -2.515625 L 2.828125 -0.25 C 2.796875 -0.0820312 2.703125 0 2.546875 0 L 0.78125 0 C 0.570312 0 0.5 -0.0976562 0.5625 -0.296875 L 3.53125 -12.296875 C 3.5625 -12.460938 3.660156 -12.546875 3.828125 -12.546875 L 6.328125 -12.546875 C 6.492188 -12.546875 6.59375 -12.460938 6.625 -12.296875 L 9.609375 -0.296875 C 9.671875 -0.0976562 9.585938 0 9.359375 0 Z M 6.203125 -4.59375 L 5.078125 -9.46875 L 3.9375 -4.59375 Z M 6.203125 -4.59375 "/></g></g><g style="fill:#060705;fill-opacity:1;"><g transform="translate(35.525994, 67.533117)"><path style="stroke:none" d="M 7.421875 -12.546875 L 0.828125 -12.546875 C 0.628906 -12.546875 0.53125 -12.453125 0.53125 -12.265625 L 0.53125 -10.46875 C 0.53125 -10.269531 0.628906 -10.171875 0.828125 -10.171875 L 2.90625 -10.171875 L 2.90625 -0.28125 C 2.90625 -0.09375 3 0 3.1875 0 L 5.046875 0 C 5.242188 0 5.34375 -0.09375 5.34375 -0.28125 L 5.34375 -10.171875 L 7.421875 -10.171875 C 7.609375 -10.171875 7.703125 -10.269531 7.703125 -10.46875 L 7.703125 -12.265625 C 7.703125 -12.453125 7.609375 -12.546875 7.421875 -12.546875 Z M 7.421875 -12.546875 "/></g></g><g style="fill:#060705;fill-opacity:1;"><g transform="translate(43.76682, 67.533117)"><path style="stroke:none" d="M 8.078125 -9.96875 L 8.078125 -8.03125 C 8.078125 -7.84375 7.984375 -7.75 7.796875 -7.75 L 6.109375 -7.75 C 5.921875 -7.75 5.828125 -7.84375 5.828125 -8.03125 L 5.828125 -9.5 C 5.828125 -9.976562 5.585938 -10.21875 5.109375 -10.21875 L 3.953125 -10.21875 C 3.484375 -10.21875 3.25 -9.976562 3.25 -9.5 L 3.25 -3 C 3.25 -2.519531 3.484375 -2.28125 3.953125 -2.28125 L 5.109375 -2.28125 C 5.585938 -2.28125 5.828125 -2.519531 5.828125 -3 L 5.828125 -4.515625 C 5.828125 -4.703125 5.921875 -4.796875 6.109375 -4.796875 L 7.796875 -4.796875 C 7.984375 -4.796875 8.078125 -4.703125 8.078125 -4.515625 L 8.078125 -2.578125 C 8.078125 -1.742188 7.851562 -1.101562 7.40625 -0.65625 C 6.96875 -0.21875 6.332031 0 5.5 0 L 3.5 0 C 2.65625 0 2.007812 -0.21875 1.5625 -0.65625 C 1.113281 -1.101562 0.890625 -1.742188 0.890625 -2.578125 L 0.890625 -9.96875 C 0.890625 -10.8125 1.113281 -11.453125 1.5625 -11.890625 C 2.007812 -12.328125 2.65625 -12.546875 3.5 -12.546875 L 5.5 -12.546875 C 6.332031 -12.546875 6.96875 -12.328125 7.40625 -11.890625 C 7.851562 -11.453125 8.078125 -10.8125 8.078125 -9.96875 Z M 8.078125 -9.96875 "/></g></g><g style="fill:#060705;fill-opacity:1;"><g transform="translate(52.742156, 67.533117)"><path style="stroke:none" d="M 5.625 -7.421875 L 5.625 -12.265625 C 5.625 -12.453125 5.722656 -12.546875 5.921875 -12.546875 L 7.765625 -12.546875 C 7.960938 -12.546875 8.0625 -12.453125 8.0625 -12.265625 L 8.0625 -0.28125 C 8.0625 -0.09375 7.960938 0 7.765625 0 L 5.921875 0 C 5.722656 0 5.625 -0.09375 5.625 -0.28125 L 5.625 -5.046875 L 3.328125 -5.046875 L 3.328125 -0.28125 C 3.328125 -0.09375 3.234375 0 3.046875 0 L 1.203125 0 C 0.992188 0 0.890625 -0.09375 0.890625 -0.28125 L 0.890625 -12.265625 C 0.890625 -12.453125 0.992188 -12.546875 1.203125 -12.546875 L 3.046875 -12.546875 C 3.234375 -12.546875 3.328125 -12.453125 3.328125 -12.265625 L 3.328125 -7.421875 Z M 5.625 -7.421875 "/></g></g><g style="fill:#060705;fill-opacity:1;"><g transform="translate(61.699574, 67.533117)"><path style="stroke:none" d="M 8.046875 -12.265625 L 8.046875 -10.46875 C 8.046875 -10.257812 7.953125 -10.15625 7.765625 -10.15625 L 3.328125 -10.15625 L 3.328125 -7.40625 L 6.703125 -7.40625 C 6.890625 -7.40625 6.984375 -7.300781 6.984375 -7.09375 L 6.984375 -5.328125 C 6.984375 -5.117188 6.890625 -5.015625 6.703125 -5.015625 L 3.328125 -5.015625 L 3.328125 -2.359375 L 7.765625 -2.359375 C 7.953125 -2.359375 8.046875 -2.265625 8.046875 -2.078125 L 8.046875 -0.28125 C 8.046875 -0.09375 7.953125 0 7.765625 0 L 1.171875 0 C 0.984375 0 0.890625 -0.09375 0.890625 -0.28125 L 0.890625 -12.265625 C 0.890625 -12.453125 0.984375 -12.546875 1.171875 -12.546875 L 7.765625 -12.546875 C 7.953125 -12.546875 8.046875 -12.453125 8.046875 -12.265625 Z M 8.046875 -12.265625 "/></g></g><g style="fill:#060705;fill-opacity:1;"><g transform="translate(70.639075, 67.533117)"><path style="stroke:none" d="M 3.484375 -12.546875 L 5.484375 -12.546875 C 6.328125 -12.546875 6.96875 -12.328125 7.40625 -11.890625 C 7.84375 -11.453125 8.0625 -10.8125 8.0625 -9.96875 L 8.0625 -8.78125 C 8.0625 -8.59375 7.96875 -8.5 7.78125 -8.5 L 5.96875 -8.5 C 5.78125 -8.5 5.6875 -8.59375 5.6875 -8.78125 L 5.6875 -9.53125 C 5.6875 -10.007812 5.445312 -10.25 4.96875 -10.25 L 3.984375 -10.25 C 3.503906 -10.25 3.265625 -10.007812 3.265625 -9.53125 L 3.265625 -8.015625 L 7.59375 -6.609375 C 7.90625 -6.503906 8.0625 -6.285156 8.0625 -5.953125 L 8.0625 -2.578125 C 8.0625 -1.742188 7.84375 -1.101562 7.40625 -0.65625 C 6.96875 -0.21875 6.328125 0 5.484375 0 L 3.484375 0 C 2.640625 0 1.992188 -0.21875 1.546875 -0.65625 C 1.109375 -1.101562 0.890625 -1.742188 0.890625 -2.578125 L 0.890625 -3.75 C 0.890625 -3.9375 0.988281 -4.03125 1.1875 -4.03125 L 3 -4.03125 C 3.1875 -4.03125 3.28125 -3.9375 3.28125 -3.75 L 3.28125 -3 C 3.28125 -2.519531 3.519531 -2.28125 4 -2.28125 L 4.96875 -2.28125 C 5.445312 -2.28125 5.6875 -2.519531 5.6875 -3 L 5.6875 -4.796875 L 1.375 -6.203125 C 1.050781 -6.304688 0.890625 -6.523438 0.890625 -6.859375 L 0.890625 -9.96875 C 0.890625 -10.8125 1.109375 -11.453125 1.546875 -11.890625 C 1.992188 -12.328125 2.640625 -12.546875 3.484375 -12.546875 Z M 3.484375 -12.546875 "/></g></g></g></svg>