<svg xmlns="http://www.w3.org/2000/svg" xmlns:xlink="http://www.w3.org/1999/xlink" width="192" zoomAndPan="magnify" viewBox="0 0 144 143.999998" height="192" preserveAspectRatio="xMidYMid meet" version="1.2"><defs><clipPath id="80240b40e9"><path d="M 9 0 L 135 0 L 135 144 L 9 144 Z M 9 0 "/></clipPath><clipPath id="570729e2a9"><path d="M -21.457031 54.867188 L 103.039062 -17.847656 L 165.503906 89.105469 L 41.007812 161.816406 Z M -21.457031 54.867188 "/></clipPath><clipPath id="4a21a7e09a"><path d="M 134.226562 35.65625 L 134.347656 107.300781 L 72.121094 143.644531 L 9.773438 108.34375 L 9.65625 36.695312 L 71.878906 0.351562 Z M 134.226562 35.65625 "/></clipPath><clipPath id="a81ba9259f"><path d="M 21.210938 13.683594 L 122.773438 13.683594 L 122.773438 130.261719 L 21.210938 130.261719 Z M 21.210938 13.683594 "/></clipPath></defs><g id="d60ed8243e"><g clip-rule="nonzero" clip-path="url(#80240b40e9)"><g clip-rule="nonzero" clip-path="url(#570729e2a9)"><g clip-rule="nonzero" clip-path="url(#4a21a7e09a)"><path style=" stroke:none;fill-rule:nonzero;fill:#65b30e;fill-opacity:1;" d="M -21.457031 54.867188 L 103.039062 -17.847656 L 165.503906 89.105469 L 41.007812 161.816406 Z M -21.457031 54.867188 "/></g></g></g><path style=" stroke:none;fill-rule:nonzero;fill:#87ff00;fill-opacity:1;" d="M 51.679688 52.109375 L 51.613281 52.046875 L 37.261719 66.398438 L 72.113281 101.183594 L 86.46875 86.898438 L 106.960938 66.398438 L 92.609375 52.046875 L 92.609375 51.980469 L 51.617188 51.980469 Z M 51.679688 52.109375 "/><g clip-rule="nonzero" clip-path="url(#a81ba9259f)"><path style=" stroke:none;fill-rule:nonzero;fill:#87ff00;fill-opacity:1;" d="M 71.980469 13.765625 L 21.222656 42.863281 L 21.226562 101.058594 L 71.984375 130.15625 L 122.742188 101.058594 L 122.742188 42.863281 L 71.984375 13.769531 Z M 113.039062 95.496094 L 71.980469 119.160156 L 30.921875 95.496094 L 30.925781 48.292969 L 71.984375 24.628906 L 113.042969 48.292969 L 113.042969 95.492188 Z M 113.039062 95.496094 "/></g><g style="fill:#b21a22;fill-opacity:1;"><g transform="translate(38.457041, 45.802371)"><path style="stroke:none" d="M 5.074219 -19.132812 L 8.007812 -19.132812 C 9.46875 -19.132812 10.601562 -18.734375 11.398438 -17.9375 C 12.195312 -17.140625 12.589844 -16.011719 12.589844 -14.546875 L 12.589844 -12.820312 C 12.589844 -12.457031 12.476562 -12.15625 12.246094 -11.929688 C 12.019531 -11.699219 11.722656 -11.585938 11.355469 -11.585938 L 8.710938 -11.585938 C 8.347656 -11.585938 8.050781 -11.699219 7.820312 -11.929688 C 7.589844 -12.15625 7.476562 -12.457031 7.476562 -12.820312 L 7.476562 -13.917969 C 7.476562 -14.003906 7.46875 -14.070312 7.453125 -14.117188 C 7.449219 -14.128906 7.449219 -14.132812 7.445312 -14.136719 C 7.449219 -14.132812 7.449219 -14.128906 7.453125 -14.125 C 7.457031 -14.121094 7.460938 -14.121094 7.464844 -14.117188 C 7.460938 -14.121094 7.457031 -14.121094 7.445312 -14.125 C 7.398438 -14.140625 7.332031 -14.148438 7.246094 -14.148438 L 5.808594 -14.148438 C 5.722656 -14.148438 5.65625 -14.140625 5.609375 -14.125 C 5.601562 -14.121094 5.59375 -14.121094 5.589844 -14.117188 C 5.59375 -14.121094 5.597656 -14.121094 5.601562 -14.125 C 5.605469 -14.128906 5.609375 -14.132812 5.609375 -14.136719 C 5.609375 -14.132812 5.605469 -14.128906 5.601562 -14.117188 C 5.585938 -14.070312 5.578125 -14.003906 5.578125 -13.917969 L 5.578125 -11.695312 L 4.761719 -11.695312 L 5.011719 -12.472656 L 11.34375 -10.433594 C 11.75 -10.292969 12.058594 -10.070312 12.273438 -9.765625 C 12.484375 -9.460938 12.589844 -9.101562 12.589844 -8.6875 L 12.589844 -3.769531 C 12.589844 -2.324219 12.195312 -1.199219 11.402344 -0.394531 C 10.605469 0.414062 9.472656 0.816406 8.007812 0.816406 L 5.074219 0.816406 C 3.628906 0.816406 2.503906 0.414062 1.699219 -0.390625 C 0.894531 -1.195312 0.492188 -2.320312 0.492188 -3.769531 L 0.492188 -5.46875 C 0.492188 -5.832031 0.605469 -6.132812 0.835938 -6.359375 C 1.0625 -6.589844 1.363281 -6.703125 1.726562 -6.703125 L 4.371094 -6.703125 C 4.734375 -6.703125 5.03125 -6.589844 5.261719 -6.359375 C 5.492188 -6.132812 5.605469 -5.832031 5.605469 -5.46875 L 5.605469 -4.371094 C 5.605469 -4.285156 5.613281 -4.21875 5.628906 -4.171875 C 5.632812 -4.160156 5.632812 -4.15625 5.636719 -4.152344 C 5.632812 -4.15625 5.632812 -4.160156 5.628906 -4.164062 C 5.625 -4.167969 5.621094 -4.167969 5.617188 -4.171875 C 5.621094 -4.167969 5.625 -4.167969 5.636719 -4.164062 C 5.683594 -4.148438 5.75 -4.140625 5.835938 -4.140625 L 7.246094 -4.140625 C 7.332031 -4.140625 7.398438 -4.148438 7.445312 -4.164062 C 7.457031 -4.167969 7.460938 -4.167969 7.464844 -4.171875 C 7.460938 -4.167969 7.457031 -4.167969 7.453125 -4.164062 C 7.449219 -4.160156 7.449219 -4.15625 7.445312 -4.152344 C 7.449219 -4.15625 7.449219 -4.160156 7.453125 -4.171875 C 7.46875 -4.21875 7.476562 -4.285156 7.476562 -4.371094 L 7.476562 -7.011719 L 8.292969 -7.011719 L 8.042969 -6.234375 L 1.761719 -8.273438 C 1.355469 -8.410156 1.042969 -8.628906 0.824219 -8.929688 C 0.601562 -9.234375 0.492188 -9.597656 0.492188 -10.019531 L 0.492188 -14.546875 C 0.492188 -16.015625 0.894531 -17.144531 1.703125 -17.941406 C 2.507812 -18.734375 3.632812 -19.132812 5.074219 -19.132812 Z M 5.074219 -17.496094 C 4.078125 -17.496094 3.335938 -17.257812 2.851562 -16.777344 C 2.367188 -16.300781 2.125 -15.558594 2.125 -14.546875 L 2.125 -10.019531 C 2.125 -9.953125 2.132812 -9.914062 2.144531 -9.894531 C 2.160156 -9.875 2.199219 -9.851562 2.265625 -9.832031 L 9.113281 -7.605469 L 9.113281 -4.371094 C 9.113281 -3.792969 8.945312 -3.339844 8.609375 -3.007812 C 8.277344 -2.671875 7.820312 -2.503906 7.246094 -2.503906 L 5.835938 -2.503906 C 5.261719 -2.503906 4.804688 -2.671875 4.472656 -3.007812 C 4.136719 -3.339844 3.96875 -3.792969 3.96875 -4.371094 L 3.96875 -5.46875 C 3.96875 -5.449219 3.976562 -5.425781 3.984375 -5.394531 C 4.007812 -5.324219 4.050781 -5.261719 4.105469 -5.203125 C 4.160156 -5.148438 4.222656 -5.109375 4.292969 -5.085938 C 4.324219 -5.074219 4.351562 -5.070312 4.371094 -5.070312 L 1.726562 -5.070312 C 1.746094 -5.070312 1.769531 -5.074219 1.800781 -5.085938 C 1.871094 -5.109375 1.933594 -5.148438 1.992188 -5.203125 C 2.046875 -5.261719 2.085938 -5.324219 2.109375 -5.394531 C 2.121094 -5.425781 2.125 -5.449219 2.125 -5.46875 L 2.125 -3.769531 C 2.125 -2.773438 2.367188 -2.03125 2.855469 -1.546875 C 3.339844 -1.0625 4.082031 -0.816406 5.074219 -0.816406 L 8.007812 -0.816406 C 9.015625 -0.816406 9.761719 -1.058594 10.238281 -1.542969 C 10.714844 -2.027344 10.957031 -2.769531 10.957031 -3.769531 L 10.957031 -8.6875 C 10.957031 -8.757812 10.949219 -8.804688 10.933594 -8.824219 C 10.921875 -8.84375 10.890625 -8.859375 10.84375 -8.875 L 3.945312 -11.101562 L 3.945312 -13.917969 C 3.945312 -14.496094 4.109375 -14.949219 4.445312 -15.28125 C 4.78125 -15.617188 5.234375 -15.785156 5.808594 -15.785156 L 7.246094 -15.785156 C 7.820312 -15.785156 8.277344 -15.617188 8.609375 -15.28125 C 8.945312 -14.949219 9.113281 -14.496094 9.113281 -13.917969 L 9.113281 -12.820312 C 9.113281 -12.839844 9.105469 -12.863281 9.097656 -12.894531 C 9.074219 -12.964844 9.03125 -13.027344 8.976562 -13.085938 C 8.921875 -13.140625 8.859375 -13.179688 8.789062 -13.203125 C 8.757812 -13.214844 8.730469 -13.21875 8.710938 -13.21875 L 11.355469 -13.21875 C 11.335938 -13.21875 11.3125 -13.214844 11.28125 -13.203125 C 11.210938 -13.179688 11.148438 -13.140625 11.089844 -13.085938 C 11.035156 -13.027344 10.996094 -12.964844 10.972656 -12.894531 C 10.960938 -12.863281 10.957031 -12.839844 10.957031 -12.820312 L 10.957031 -14.546875 C 10.957031 -15.558594 10.71875 -16.304688 10.242188 -16.78125 C 9.765625 -17.257812 9.019531 -17.496094 8.007812 -17.496094 Z M 5.074219 -17.496094 "/></g></g><g style="fill:#b21a22;fill-opacity:1;"><g transform="translate(51.535139, 45.802371)"><path style="stroke:none" d="M 10.832031 -17.496094 L 1.203125 -17.496094 C 1.222656 -17.496094 1.246094 -17.503906 1.277344 -17.511719 C 1.347656 -17.535156 1.410156 -17.574219 1.46875 -17.632812 C 1.523438 -17.6875 1.5625 -17.75 1.585938 -17.820312 C 1.597656 -17.851562 1.601562 -17.878906 1.601562 -17.898438 L 1.601562 -15.28125 C 1.601562 -15.296875 1.597656 -15.324219 1.585938 -15.355469 C 1.5625 -15.425781 1.523438 -15.488281 1.46875 -15.542969 C 1.410156 -15.601562 1.347656 -15.640625 1.277344 -15.664062 C 1.246094 -15.675781 1.222656 -15.679688 1.203125 -15.679688 L 5.054688 -15.679688 L 5.054688 -0.417969 C 5.054688 -0.4375 5.050781 -0.460938 5.039062 -0.492188 C 5.015625 -0.5625 4.976562 -0.625 4.921875 -0.683594 C 4.867188 -0.738281 4.800781 -0.777344 4.734375 -0.800781 C 4.699219 -0.8125 4.675781 -0.816406 4.65625 -0.816406 L 7.378906 -0.816406 C 7.359375 -0.816406 7.335938 -0.8125 7.304688 -0.800781 C 7.234375 -0.777344 7.171875 -0.738281 7.113281 -0.683594 C 7.058594 -0.625 7.019531 -0.5625 6.996094 -0.492188 C 6.984375 -0.460938 6.980469 -0.4375 6.980469 -0.417969 L 6.980469 -15.679688 L 10.832031 -15.679688 C 10.8125 -15.679688 10.789062 -15.675781 10.757812 -15.664062 C 10.6875 -15.640625 10.625 -15.601562 10.566406 -15.542969 C 10.511719 -15.488281 10.472656 -15.425781 10.449219 -15.355469 C 10.4375 -15.324219 10.433594 -15.296875 10.433594 -15.28125 L 10.433594 -17.898438 C 10.433594 -17.878906 10.4375 -17.851562 10.449219 -17.820312 C 10.472656 -17.75 10.511719 -17.6875 10.566406 -17.632812 C 10.625 -17.574219 10.6875 -17.535156 10.757812 -17.511719 C 10.789062 -17.503906 10.8125 -17.496094 10.832031 -17.496094 Z M 10.832031 -19.132812 C 11.199219 -19.132812 11.496094 -19.019531 11.722656 -18.789062 C 11.953125 -18.558594 12.070312 -18.261719 12.070312 -17.898438 L 12.070312 -15.28125 C 12.070312 -14.914062 11.953125 -14.617188 11.722656 -14.386719 C 11.496094 -14.160156 11.199219 -14.042969 10.832031 -14.042969 L 7.796875 -14.042969 L 7.796875 -14.863281 L 8.613281 -14.863281 L 8.613281 -0.417969 C 8.613281 -0.0546875 8.5 0.242188 8.269531 0.472656 C 8.042969 0.703125 7.742188 0.816406 7.378906 0.816406 L 4.65625 0.816406 C 4.292969 0.816406 3.996094 0.703125 3.765625 0.472656 C 3.535156 0.242188 3.421875 -0.0546875 3.421875 -0.417969 L 3.421875 -14.863281 L 4.238281 -14.863281 L 4.238281 -14.042969 L 1.203125 -14.042969 C 0.839844 -14.042969 0.539062 -14.160156 0.3125 -14.386719 C 0.0820312 -14.617188 -0.03125 -14.914062 -0.03125 -15.28125 L -0.03125 -17.898438 C -0.03125 -18.261719 0.0820312 -18.558594 0.3125 -18.789062 C 0.539062 -19.019531 0.839844 -19.132812 1.203125 -19.132812 Z M 10.832031 -19.132812 "/></g></g><g style="fill:#b21a22;fill-opacity:1;"><g transform="translate(63.56699, 45.802371)"><path style="stroke:none" d="M 13.65625 0.816406 L 11.121094 0.816406 C 10.800781 0.816406 10.53125 0.71875 10.308594 0.523438 C 10.101562 0.34375 9.964844 0.105469 9.902344 -0.195312 L 10.703125 -0.367188 L 9.910156 -0.164062 L 9.070312 -3.460938 L 9.863281 -3.664062 L 9.863281 -2.84375 L 4.945312 -2.84375 L 4.945312 -3.664062 L 5.738281 -3.46875 L 4.929688 -0.171875 L 4.132812 -0.367188 L 4.933594 -0.195312 C 4.871094 0.105469 4.734375 0.34375 4.527344 0.523438 C 4.304688 0.71875 4.035156 0.816406 3.714844 0.816406 L 1.152344 0.816406 C 0.726562 0.816406 0.402344 0.671875 0.179688 0.386719 C -0.0429688 0.0898438 -0.09375 -0.261719 0.0273438 -0.675781 L 0.8125 -0.445312 L 0.015625 -0.640625 L 4.359375 -18.144531 L 5.15625 -17.949219 L 4.355469 -18.121094 C 4.421875 -18.429688 4.5625 -18.671875 4.785156 -18.855469 C 5.011719 -19.039062 5.28125 -19.132812 5.597656 -19.132812 L 9.234375 -19.132812 C 9.554688 -19.132812 9.824219 -19.039062 10.050781 -18.855469 C 10.269531 -18.671875 10.414062 -18.429688 10.480469 -18.121094 L 9.679688 -17.949219 L 10.472656 -18.144531 L 14.816406 -0.640625 L 14.023438 -0.445312 L 14.808594 -0.675781 C 14.933594 -0.25 14.875 0.113281 14.628906 0.410156 C 14.40625 0.679688 14.082031 0.816406 13.65625 0.816406 Z M 13.65625 -0.816406 C 13.660156 -0.816406 13.664062 -0.816406 13.667969 -0.816406 C 13.667969 -0.816406 13.667969 -0.816406 13.664062 -0.816406 C 13.648438 -0.816406 13.632812 -0.8125 13.613281 -0.804688 C 13.519531 -0.773438 13.4375 -0.714844 13.367188 -0.632812 C 13.289062 -0.535156 13.246094 -0.429688 13.234375 -0.3125 C 13.230469 -0.269531 13.234375 -0.234375 13.238281 -0.214844 L 13.234375 -0.230469 L 8.882812 -17.765625 L 8.882812 -17.777344 C 8.894531 -17.714844 8.9375 -17.652344 9.011719 -17.59375 C 9.085938 -17.527344 9.164062 -17.496094 9.234375 -17.496094 L 5.597656 -17.496094 C 5.671875 -17.496094 5.746094 -17.527344 5.824219 -17.59375 C 5.898438 -17.652344 5.941406 -17.714844 5.953125 -17.777344 L 5.953125 -17.765625 L 1.601562 -0.230469 L 1.59375 -0.214844 C 1.601562 -0.230469 1.601562 -0.257812 1.597656 -0.296875 C 1.59375 -0.410156 1.554688 -0.511719 1.480469 -0.609375 C 1.410156 -0.699219 1.324219 -0.765625 1.222656 -0.800781 C 1.1875 -0.8125 1.164062 -0.816406 1.152344 -0.816406 L 3.714844 -0.816406 C 3.625 -0.816406 3.535156 -0.78125 3.453125 -0.707031 C 3.386719 -0.648438 3.347656 -0.59375 3.335938 -0.539062 L 3.335938 -0.550781 L 4.304688 -4.480469 L 10.5 -4.480469 L 11.496094 -0.550781 L 11.5 -0.539062 C 11.488281 -0.59375 11.449219 -0.648438 11.382812 -0.707031 C 11.300781 -0.78125 11.210938 -0.816406 11.121094 -0.816406 Z M 8.257812 -6.511719 L 6.609375 -13.628906 L 7.40625 -13.816406 L 8.199219 -13.628906 L 6.554688 -6.511719 L 5.757812 -6.699219 L 5.757812 -7.515625 L 9.054688 -7.515625 L 9.054688 -6.699219 Z M 10.082031 -5.878906 L 4.726562 -5.878906 L 6.609375 -14 L 8.199219 -14 L 9.847656 -6.882812 Z M 10.082031 -5.878906 "/></g></g><g style="fill:#b21a22;fill-opacity:1;"><g transform="translate(78.397556, 45.802371)"><path style="stroke:none" d="M 12.617188 -14.546875 L 12.617188 -11.722656 C 12.617188 -11.355469 12.503906 -11.058594 12.273438 -10.828125 C 12.042969 -10.601562 11.746094 -10.484375 11.382812 -10.484375 L 8.921875 -10.484375 C 8.558594 -10.484375 8.257812 -10.601562 8.03125 -10.828125 C 7.800781 -11.058594 7.6875 -11.355469 7.6875 -11.722656 L 7.6875 -13.867188 C 7.6875 -13.953125 7.679688 -14.019531 7.664062 -14.066406 C 7.660156 -14.074219 7.65625 -14.082031 7.65625 -14.085938 C 7.65625 -14.082031 7.660156 -14.078125 7.664062 -14.074219 C 7.667969 -14.070312 7.671875 -14.066406 7.675781 -14.066406 C 7.671875 -14.066406 7.664062 -14.070312 7.65625 -14.074219 C 7.609375 -14.089844 7.542969 -14.097656 7.457031 -14.097656 L 5.78125 -14.097656 C 5.695312 -14.097656 5.628906 -14.089844 5.582031 -14.074219 C 5.574219 -14.070312 5.570312 -14.066406 5.566406 -14.066406 C 5.566406 -14.066406 5.570312 -14.070312 5.574219 -14.074219 C 5.578125 -14.078125 5.582031 -14.082031 5.585938 -14.085938 C 5.582031 -14.082031 5.578125 -14.074219 5.578125 -14.066406 C 5.5625 -14.019531 5.554688 -13.953125 5.554688 -13.867188 L 5.554688 -4.371094 C 5.554688 -4.285156 5.5625 -4.21875 5.578125 -4.171875 C 5.578125 -4.160156 5.582031 -4.15625 5.585938 -4.152344 C 5.582031 -4.15625 5.578125 -4.160156 5.574219 -4.164062 C 5.570312 -4.167969 5.566406 -4.167969 5.566406 -4.171875 C 5.570312 -4.167969 5.574219 -4.167969 5.582031 -4.164062 C 5.628906 -4.148438 5.695312 -4.140625 5.78125 -4.140625 L 7.457031 -4.140625 C 7.542969 -4.140625 7.609375 -4.148438 7.65625 -4.164062 C 7.664062 -4.167969 7.671875 -4.167969 7.675781 -4.171875 C 7.671875 -4.167969 7.667969 -4.167969 7.664062 -4.164062 C 7.660156 -4.160156 7.65625 -4.15625 7.65625 -4.152344 C 7.65625 -4.15625 7.660156 -4.160156 7.664062 -4.171875 C 7.679688 -4.21875 7.6875 -4.285156 7.6875 -4.371094 L 7.6875 -6.59375 C 7.6875 -6.957031 7.800781 -7.257812 8.03125 -7.484375 C 8.257812 -7.714844 8.558594 -7.828125 8.921875 -7.828125 L 11.382812 -7.828125 C 11.746094 -7.828125 12.042969 -7.714844 12.273438 -7.484375 C 12.503906 -7.257812 12.617188 -6.957031 12.617188 -6.59375 L 12.617188 -3.769531 C 12.617188 -2.320312 12.214844 -1.195312 11.410156 -0.390625 C 10.605469 0.414062 9.480469 0.816406 8.03125 0.816406 L 5.101562 0.816406 C 3.65625 0.816406 2.527344 0.417969 1.714844 -0.386719 C 0.898438 -1.191406 0.492188 -2.320312 0.492188 -3.769531 L 0.492188 -14.546875 C 0.492188 -16.015625 0.898438 -17.148438 1.71875 -17.945312 C 2.53125 -18.738281 3.660156 -19.132812 5.101562 -19.132812 L 8.03125 -19.132812 C 9.476562 -19.132812 10.601562 -18.734375 11.40625 -17.941406 C 12.214844 -17.144531 12.617188 -16.015625 12.617188 -14.546875 Z M 10.984375 -14.546875 C 10.984375 -15.558594 10.742188 -16.300781 10.257812 -16.777344 C 9.773438 -17.257812 9.03125 -17.496094 8.03125 -17.496094 L 5.101562 -17.496094 C 4.101562 -17.496094 3.355469 -17.257812 2.859375 -16.773438 C 2.371094 -16.296875 2.125 -15.554688 2.125 -14.546875 L 2.125 -3.769531 C 2.125 -2.773438 2.371094 -2.035156 2.863281 -1.550781 C 3.359375 -1.0625 4.105469 -0.816406 5.101562 -0.816406 L 8.03125 -0.816406 C 9.027344 -0.816406 9.769531 -1.0625 10.253906 -1.546875 C 10.738281 -2.03125 10.984375 -2.773438 10.984375 -3.769531 L 10.984375 -6.59375 C 10.984375 -6.574219 10.988281 -6.550781 11 -6.519531 C 11.023438 -6.449219 11.0625 -6.386719 11.117188 -6.328125 C 11.171875 -6.273438 11.238281 -6.234375 11.304688 -6.210938 C 11.335938 -6.199219 11.363281 -6.195312 11.382812 -6.195312 L 8.921875 -6.195312 C 8.941406 -6.195312 8.964844 -6.199219 8.996094 -6.210938 C 9.066406 -6.234375 9.128906 -6.273438 9.1875 -6.328125 C 9.242188 -6.386719 9.28125 -6.449219 9.304688 -6.519531 C 9.316406 -6.550781 9.320312 -6.574219 9.320312 -6.59375 L 9.320312 -4.371094 C 9.320312 -3.792969 9.152344 -3.339844 8.820312 -3.007812 C 8.484375 -2.671875 8.03125 -2.503906 7.457031 -2.503906 L 5.78125 -2.503906 C 5.207031 -2.503906 4.753906 -2.671875 4.417969 -3.007812 C 4.085938 -3.339844 3.917969 -3.792969 3.917969 -4.371094 L 3.917969 -13.867188 C 3.917969 -14.441406 4.085938 -14.894531 4.417969 -15.230469 C 4.753906 -15.5625 5.207031 -15.730469 5.78125 -15.730469 L 7.457031 -15.730469 C 8.03125 -15.730469 8.484375 -15.5625 8.820312 -15.230469 C 9.152344 -14.894531 9.320312 -14.441406 9.320312 -13.867188 L 9.320312 -11.722656 C 9.320312 -11.742188 9.316406 -11.765625 9.304688 -11.796875 C 9.28125 -11.867188 9.242188 -11.929688 9.1875 -11.984375 C 9.128906 -12.042969 9.066406 -12.082031 8.996094 -12.105469 C 8.964844 -12.117188 8.941406 -12.121094 8.921875 -12.121094 L 11.382812 -12.121094 C 11.363281 -12.121094 11.335938 -12.117188 11.304688 -12.105469 C 11.238281 -12.082031 11.171875 -12.042969 11.117188 -11.984375 C 11.0625 -11.929688 11.023438 -11.867188 11 -11.796875 C 10.988281 -11.765625 10.984375 -11.742188 10.984375 -11.722656 Z M 10.984375 -14.546875 "/></g></g><g style="fill:#b21a22;fill-opacity:1;"><g transform="translate(91.501814, 45.802371)"><path style="stroke:none" d="M 12.507812 0.816406 L 9.734375 0.816406 C 9.441406 0.816406 9.175781 0.742188 8.941406 0.585938 C 8.722656 0.445312 8.546875 0.246094 8.410156 -0.0078125 L 5.105469 -6.484375 L 5.835938 -6.855469 L 6.558594 -6.476562 L 5.589844 -4.621094 L 4.867188 -4.996094 L 5.683594 -4.996094 L 5.683594 -0.523438 C 5.683594 -0.125 5.5625 0.199219 5.3125 0.449219 C 5.066406 0.695312 4.742188 0.816406 4.34375 0.816406 L 1.832031 0.816406 C 1.429688 0.816406 1.109375 0.695312 0.859375 0.449219 C 0.613281 0.199219 0.492188 -0.125 0.492188 -0.523438 L 0.492188 -17.792969 C 0.492188 -18.191406 0.613281 -18.515625 0.859375 -18.761719 C 1.109375 -19.007812 1.429688 -19.132812 1.832031 -19.132812 L 4.34375 -19.132812 C 4.742188 -19.132812 5.066406 -19.007812 5.3125 -18.761719 C 5.5625 -18.515625 5.683594 -18.191406 5.683594 -17.792969 L 5.683594 -10.988281 L 4.867188 -10.988281 L 4.160156 -11.398438 L 8.1875 -18.332031 L 8.894531 -17.921875 L 8.175781 -18.308594 C 8.308594 -18.5625 8.488281 -18.761719 8.703125 -18.902344 C 8.941406 -19.054688 9.203125 -19.132812 9.496094 -19.132812 L 12.246094 -19.132812 C 12.457031 -19.132812 12.652344 -19.09375 12.828125 -19.015625 C 13.042969 -18.917969 13.210938 -18.769531 13.339844 -18.574219 C 13.476562 -18.355469 13.535156 -18.117188 13.515625 -17.855469 C 13.496094 -17.660156 13.429688 -17.460938 13.3125 -17.265625 L 12.609375 -17.6875 L 13.320312 -17.28125 L 8.875 -9.460938 L 8.164062 -9.863281 L 8.890625 -10.234375 L 13.628906 -0.972656 C 13.851562 -0.523438 13.851562 -0.113281 13.621094 0.257812 C 13.390625 0.632812 13.019531 0.816406 12.507812 0.816406 Z M 12.507812 -0.816406 C 12.515625 -0.816406 12.519531 -0.816406 12.519531 -0.816406 C 12.503906 -0.816406 12.484375 -0.808594 12.460938 -0.800781 C 12.363281 -0.761719 12.289062 -0.695312 12.230469 -0.597656 C 12.171875 -0.507812 12.148438 -0.414062 12.15625 -0.3125 C 12.15625 -0.273438 12.164062 -0.246094 12.171875 -0.230469 L 7.234375 -9.882812 L 11.90625 -18.101562 L 11.910156 -18.109375 C 11.898438 -18.085938 11.890625 -18.050781 11.886719 -18 C 11.875 -17.890625 11.902344 -17.785156 11.960938 -17.691406 C 12.011719 -17.613281 12.074219 -17.558594 12.152344 -17.523438 C 12.191406 -17.507812 12.222656 -17.496094 12.246094 -17.496094 L 9.496094 -17.496094 C 9.527344 -17.496094 9.5625 -17.507812 9.597656 -17.53125 C 9.613281 -17.542969 9.621094 -17.550781 9.628906 -17.558594 C 9.628906 -17.554688 9.625 -17.550781 9.617188 -17.539062 L 9.609375 -17.523438 L 4.050781 -7.953125 L 4.050781 -17.792969 C 4.050781 -17.796875 4.046875 -17.796875 4.046875 -17.800781 C 4.046875 -17.800781 4.046875 -17.800781 4.050781 -17.800781 C 4.050781 -17.789062 4.054688 -17.777344 4.058594 -17.761719 C 4.078125 -17.707031 4.109375 -17.652344 4.15625 -17.605469 C 4.203125 -17.558594 4.257812 -17.527344 4.3125 -17.507812 C 4.328125 -17.503906 4.339844 -17.5 4.351562 -17.496094 C 4.351562 -17.496094 4.347656 -17.496094 4.34375 -17.496094 L 1.832031 -17.496094 C 1.828125 -17.496094 1.824219 -17.496094 1.824219 -17.496094 C 1.835938 -17.5 1.847656 -17.503906 1.859375 -17.507812 C 1.917969 -17.527344 1.96875 -17.558594 2.015625 -17.605469 C 2.066406 -17.652344 2.097656 -17.707031 2.117188 -17.761719 C 2.121094 -17.777344 2.125 -17.789062 2.125 -17.800781 C 2.125 -17.796875 2.125 -17.796875 2.125 -17.792969 L 2.125 -0.523438 C 2.125 -0.519531 2.125 -0.515625 2.125 -0.515625 C 2.125 -0.527344 2.121094 -0.539062 2.117188 -0.554688 C 2.097656 -0.609375 2.066406 -0.660156 2.015625 -0.710938 C 1.96875 -0.757812 1.917969 -0.789062 1.859375 -0.808594 C 1.847656 -0.8125 1.835938 -0.816406 1.824219 -0.816406 C 1.824219 -0.816406 1.828125 -0.816406 1.832031 -0.816406 L 4.34375 -0.816406 C 4.347656 -0.816406 4.351562 -0.816406 4.351562 -0.816406 C 4.339844 -0.816406 4.328125 -0.8125 4.3125 -0.808594 C 4.257812 -0.789062 4.203125 -0.757812 4.15625 -0.710938 C 4.109375 -0.660156 4.078125 -0.609375 4.058594 -0.554688 C 4.054688 -0.539062 4.050781 -0.527344 4.050781 -0.515625 C 4.046875 -0.515625 4.046875 -0.515625 4.046875 -0.515625 C 4.046875 -0.515625 4.050781 -0.519531 4.050781 -0.523438 L 4.050781 -5.199219 L 5.84375 -8.640625 L 9.851562 -0.777344 C 9.859375 -0.765625 9.863281 -0.757812 9.867188 -0.757812 C 9.859375 -0.765625 9.847656 -0.773438 9.832031 -0.78125 C 9.796875 -0.804688 9.765625 -0.816406 9.734375 -0.816406 Z M 12.507812 -0.816406 "/></g></g><g style="fill:#b21a22;fill-opacity:1;"><g transform="translate(37.20312, 82.28008)"><path style="stroke:none" d="M 13.65625 0.816406 L 11.121094 0.816406 C 10.800781 0.816406 10.53125 0.71875 10.308594 0.523438 C 10.101562 0.34375 9.964844 0.105469 9.902344 -0.195312 L 10.703125 -0.367188 L 9.910156 -0.164062 L 9.070312 -3.460938 L 9.863281 -3.664062 L 9.863281 -2.84375 L 4.945312 -2.84375 L 4.945312 -3.664062 L 5.738281 -3.46875 L 4.929688 -0.171875 L 4.132812 -0.367188 L 4.933594 -0.195312 C 4.871094 0.105469 4.734375 0.34375 4.527344 0.523438 C 4.304688 0.71875 4.035156 0.816406 3.714844 0.816406 L 1.152344 0.816406 C 0.726562 0.816406 0.402344 0.671875 0.179688 0.386719 C -0.0429688 0.0898438 -0.09375 -0.261719 0.0273438 -0.675781 L 0.8125 -0.445312 L 0.015625 -0.640625 L 4.359375 -18.144531 L 5.15625 -17.949219 L 4.355469 -18.121094 C 4.421875 -18.429688 4.5625 -18.671875 4.785156 -18.855469 C 5.011719 -19.039062 5.28125 -19.132812 5.597656 -19.132812 L 9.234375 -19.132812 C 9.554688 -19.132812 9.824219 -19.039062 10.050781 -18.855469 C 10.269531 -18.671875 10.414062 -18.429688 10.480469 -18.121094 L 9.679688 -17.949219 L 10.472656 -18.144531 L 14.816406 -0.640625 L 14.023438 -0.445312 L 14.808594 -0.675781 C 14.933594 -0.25 14.875 0.113281 14.628906 0.410156 C 14.40625 0.679688 14.082031 0.816406 13.65625 0.816406 Z M 13.65625 -0.816406 C 13.660156 -0.816406 13.664062 -0.816406 13.667969 -0.816406 C 13.667969 -0.816406 13.667969 -0.816406 13.664062 -0.816406 C 13.648438 -0.816406 13.632812 -0.8125 13.613281 -0.804688 C 13.519531 -0.773438 13.4375 -0.714844 13.367188 -0.632812 C 13.289062 -0.535156 13.246094 -0.429688 13.234375 -0.3125 C 13.230469 -0.269531 13.234375 -0.234375 13.238281 -0.214844 L 13.234375 -0.230469 L 8.882812 -17.765625 L 8.882812 -17.777344 C 8.894531 -17.714844 8.9375 -17.652344 9.011719 -17.59375 C 9.085938 -17.527344 9.164062 -17.496094 9.234375 -17.496094 L 5.597656 -17.496094 C 5.671875 -17.496094 5.746094 -17.527344 5.824219 -17.59375 C 5.898438 -17.652344 5.941406 -17.714844 5.953125 -17.777344 L 5.953125 -17.765625 L 1.601562 -0.230469 L 1.59375 -0.214844 C 1.601562 -0.230469 1.601562 -0.257812 1.597656 -0.296875 C 1.59375 -0.410156 1.554688 -0.511719 1.480469 -0.609375 C 1.410156 -0.699219 1.324219 -0.765625 1.222656 -0.800781 C 1.1875 -0.8125 1.164062 -0.816406 1.152344 -0.816406 L 3.714844 -0.816406 C 3.625 -0.816406 3.535156 -0.78125 3.453125 -0.707031 C 3.386719 -0.648438 3.347656 -0.59375 3.335938 -0.539062 L 3.335938 -0.550781 L 4.304688 -4.480469 L 10.5 -4.480469 L 11.496094 -0.550781 L 11.5 -0.539062 C 11.488281 -0.59375 11.449219 -0.648438 11.382812 -0.707031 C 11.300781 -0.78125 11.210938 -0.816406 11.121094 -0.816406 Z M 8.257812 -6.511719 L 6.609375 -13.628906 L 7.40625 -13.816406 L 8.199219 -13.628906 L 6.554688 -6.511719 L 5.757812 -6.699219 L 5.757812 -7.515625 L 9.054688 -7.515625 L 9.054688 -6.699219 Z M 10.082031 -5.878906 L 4.726562 -5.878906 L 6.609375 -14 L 8.199219 -14 L 9.847656 -6.882812 Z M 10.082031 -5.878906 "/></g></g><g style="fill:#b21a22;fill-opacity:1;"><g transform="translate(52.033686, 82.28008)"><path style="stroke:none" d="M 12.617188 -14.546875 L 12.617188 -11.015625 C 12.617188 -10.308594 12.386719 -9.710938 11.921875 -9.222656 C 11.488281 -8.761719 10.945312 -8.472656 10.300781 -8.355469 L 10.152344 -9.15625 L 10.96875 -9.15625 L 10.96875 -9.105469 L 10.152344 -9.105469 L 10.273438 -9.914062 C 10.933594 -9.816406 11.484375 -9.527344 11.929688 -9.046875 C 12.386719 -8.546875 12.617188 -7.949219 12.617188 -7.246094 L 12.617188 -3.769531 C 12.617188 -2.320312 12.214844 -1.195312 11.410156 -0.390625 C 10.605469 0.414062 9.46875 0.816406 8.007812 0.816406 L 1.726562 0.816406 C 1.363281 0.816406 1.0625 0.703125 0.835938 0.472656 C 0.605469 0.242188 0.492188 -0.0546875 0.492188 -0.417969 L 0.492188 -17.898438 C 0.492188 -18.261719 0.605469 -18.558594 0.835938 -18.789062 C 1.0625 -19.019531 1.363281 -19.132812 1.726562 -19.132812 L 8.007812 -19.132812 C 9.46875 -19.132812 10.601562 -18.734375 11.40625 -17.941406 C 12.214844 -17.144531 12.617188 -16.015625 12.617188 -14.546875 Z M 10.984375 -14.546875 C 10.984375 -15.558594 10.742188 -16.300781 10.257812 -16.777344 C 9.773438 -17.257812 9.019531 -17.496094 8.007812 -17.496094 L 1.726562 -17.496094 C 1.746094 -17.496094 1.769531 -17.503906 1.800781 -17.511719 C 1.871094 -17.535156 1.933594 -17.574219 1.992188 -17.632812 C 2.046875 -17.6875 2.085938 -17.75 2.109375 -17.820312 C 2.121094 -17.851562 2.125 -17.878906 2.125 -17.898438 L 2.125 -0.417969 C 2.125 -0.4375 2.121094 -0.460938 2.109375 -0.492188 C 2.085938 -0.5625 2.046875 -0.625 1.992188 -0.683594 C 1.933594 -0.738281 1.871094 -0.777344 1.800781 -0.800781 C 1.769531 -0.8125 1.746094 -0.816406 1.726562 -0.816406 L 8.007812 -0.816406 C 9.019531 -0.816406 9.769531 -1.0625 10.253906 -1.546875 C 10.738281 -2.03125 10.984375 -2.773438 10.984375 -3.769531 L 10.984375 -7.246094 C 10.984375 -7.523438 10.898438 -7.753906 10.726562 -7.9375 C 10.542969 -8.132812 10.3125 -8.253906 10.03125 -8.296875 L 9.335938 -8.398438 L 9.335938 -9.835938 L 10.003906 -9.960938 C 10.300781 -10.015625 10.542969 -10.144531 10.734375 -10.347656 C 10.898438 -10.523438 10.984375 -10.742188 10.984375 -11.015625 Z M 7.660156 -11.878906 L 7.660156 -13.972656 C 7.660156 -14.058594 7.652344 -14.125 7.636719 -14.171875 C 7.632812 -14.179688 7.632812 -14.1875 7.628906 -14.1875 C 7.628906 -14.1875 7.632812 -14.183594 7.636719 -14.179688 C 7.640625 -14.175781 7.644531 -14.171875 7.648438 -14.171875 C 7.644531 -14.171875 7.636719 -14.175781 7.628906 -14.175781 C 7.582031 -14.191406 7.515625 -14.199219 7.429688 -14.199219 L 4.550781 -14.199219 L 4.550781 -15.019531 L 5.371094 -15.019531 L 5.371094 -10.859375 L 4.550781 -10.859375 L 4.550781 -11.675781 L 7.429688 -11.675781 C 7.519531 -11.675781 7.585938 -11.683594 7.636719 -11.699219 C 7.644531 -11.703125 7.652344 -11.707031 7.65625 -11.707031 C 7.652344 -11.707031 7.648438 -11.703125 7.644531 -11.699219 C 7.640625 -11.695312 7.636719 -11.691406 7.632812 -11.683594 C 7.632812 -11.6875 7.636719 -11.691406 7.636719 -11.695312 C 7.652344 -11.738281 7.660156 -11.800781 7.660156 -11.878906 Z M 9.296875 -11.878906 C 9.296875 -11.308594 9.125 -10.859375 8.785156 -10.527344 C 8.453125 -10.203125 8 -10.039062 7.429688 -10.039062 L 3.734375 -10.039062 L 3.734375 -15.835938 L 7.429688 -15.835938 C 8.003906 -15.835938 8.460938 -15.667969 8.792969 -15.335938 C 9.128906 -15 9.296875 -14.546875 9.296875 -13.972656 Z M 7.660156 -4.34375 L 7.660156 -6.359375 C 7.660156 -6.445312 7.652344 -6.511719 7.636719 -6.558594 C 7.632812 -6.566406 7.632812 -6.570312 7.628906 -6.574219 C 7.628906 -6.570312 7.632812 -6.570312 7.636719 -6.566406 C 7.640625 -6.5625 7.644531 -6.558594 7.648438 -6.554688 C 7.644531 -6.558594 7.636719 -6.558594 7.628906 -6.5625 C 7.582031 -6.578125 7.515625 -6.585938 7.429688 -6.585938 L 4.550781 -6.585938 L 4.550781 -7.40625 L 5.371094 -7.40625 L 5.371094 -3.296875 L 4.550781 -3.296875 L 4.550781 -4.113281 L 7.429688 -4.113281 C 7.515625 -4.113281 7.582031 -4.121094 7.628906 -4.136719 C 7.636719 -4.140625 7.644531 -4.144531 7.648438 -4.144531 C 7.644531 -4.144531 7.640625 -4.140625 7.636719 -4.136719 C 7.632812 -4.132812 7.628906 -4.128906 7.628906 -4.125 C 7.632812 -4.128906 7.632812 -4.136719 7.636719 -4.144531 C 7.652344 -4.191406 7.660156 -4.257812 7.660156 -4.34375 Z M 9.296875 -4.34375 C 9.296875 -3.769531 9.128906 -3.3125 8.792969 -2.980469 C 8.460938 -2.644531 8.003906 -2.480469 7.429688 -2.480469 L 3.734375 -2.480469 L 3.734375 -8.222656 L 7.429688 -8.222656 C 8.003906 -8.222656 8.460938 -8.054688 8.792969 -7.722656 C 9.128906 -7.386719 9.296875 -6.933594 9.296875 -6.359375 Z M 9.296875 -4.34375 "/></g></g><g style="fill:#b21a22;fill-opacity:1;"><g transform="translate(65.137944, 82.28008)"><path style="stroke:none" d="M 4.050781 -3.453125 L 4.050781 -17.898438 C 4.050781 -17.878906 4.054688 -17.851562 4.066406 -17.820312 C 4.089844 -17.75 4.128906 -17.6875 4.183594 -17.632812 C 4.238281 -17.574219 4.304688 -17.535156 4.371094 -17.511719 C 4.402344 -17.503906 4.429688 -17.496094 4.449219 -17.496094 L 1.726562 -17.496094 C 1.746094 -17.496094 1.769531 -17.503906 1.800781 -17.511719 C 1.871094 -17.535156 1.933594 -17.574219 1.992188 -17.632812 C 2.046875 -17.6875 2.085938 -17.75 2.109375 -17.820312 C 2.121094 -17.851562 2.125 -17.878906 2.125 -17.898438 L 2.125 -0.417969 C 2.125 -0.4375 2.121094 -0.460938 2.109375 -0.492188 C 2.085938 -0.5625 2.046875 -0.625 1.992188 -0.683594 C 1.933594 -0.738281 1.871094 -0.777344 1.800781 -0.800781 C 1.769531 -0.8125 1.746094 -0.816406 1.726562 -0.816406 L 10.046875 -0.816406 C 10.027344 -0.816406 10.003906 -0.8125 9.972656 -0.800781 C 9.902344 -0.777344 9.839844 -0.738281 9.78125 -0.683594 C 9.726562 -0.625 9.6875 -0.5625 9.664062 -0.492188 C 9.652344 -0.460938 9.648438 -0.4375 9.648438 -0.417969 L 9.648438 -3.035156 C 9.648438 -3.015625 9.652344 -2.992188 9.664062 -2.960938 C 9.6875 -2.890625 9.726562 -2.828125 9.78125 -2.769531 C 9.839844 -2.714844 9.902344 -2.675781 9.972656 -2.652344 C 10.003906 -2.640625 10.027344 -2.636719 10.046875 -2.636719 L 4.050781 -2.636719 Z M 5.683594 -3.453125 L 4.867188 -3.453125 L 4.867188 -4.269531 L 10.046875 -4.269531 C 10.414062 -4.269531 10.710938 -4.15625 10.9375 -3.925781 C 11.167969 -3.699219 11.285156 -3.402344 11.285156 -3.035156 L 11.285156 -0.417969 C 11.285156 -0.0546875 11.167969 0.242188 10.9375 0.472656 C 10.710938 0.703125 10.414062 0.816406 10.046875 0.816406 L 1.726562 0.816406 C 1.363281 0.816406 1.0625 0.703125 0.835938 0.472656 C 0.605469 0.242188 0.492188 -0.0546875 0.492188 -0.417969 L 0.492188 -17.898438 C 0.492188 -18.261719 0.605469 -18.558594 0.835938 -18.789062 C 1.0625 -19.019531 1.363281 -19.132812 1.726562 -19.132812 L 4.449219 -19.132812 C 4.8125 -19.132812 5.109375 -19.019531 5.339844 -18.789062 C 5.570312 -18.558594 5.683594 -18.261719 5.683594 -17.898438 Z M 5.683594 -3.453125 "/></g></g><g style="fill:#b21a22;fill-opacity:1;"><g transform="translate(76.908231, 82.28008)"><path style="stroke:none" d="M 12.566406 -17.898438 L 12.566406 -15.28125 C 12.566406 -14.914062 12.457031 -14.617188 12.238281 -14.386719 C 12.007812 -14.140625 11.703125 -14.015625 11.328125 -14.015625 L 4.867188 -14.015625 L 4.867188 -14.835938 L 5.683594 -14.835938 L 5.683594 -10.804688 L 4.867188 -10.804688 L 4.867188 -11.625 L 9.785156 -11.625 C 10.160156 -11.625 10.464844 -11.5 10.695312 -11.253906 C 10.914062 -11.023438 11.023438 -10.726562 11.023438 -10.359375 L 11.023438 -7.769531 C 11.023438 -7.40625 10.914062 -7.109375 10.695312 -6.875 C 10.464844 -6.632812 10.160156 -6.507812 9.785156 -6.507812 L 4.867188 -6.507812 L 4.867188 -7.324219 L 5.683594 -7.324219 L 5.683594 -3.453125 L 4.867188 -3.453125 L 4.867188 -4.269531 L 11.328125 -4.269531 C 11.695312 -4.269531 11.992188 -4.15625 12.222656 -3.925781 C 12.449219 -3.699219 12.566406 -3.402344 12.566406 -3.035156 L 12.566406 -0.417969 C 12.566406 -0.0546875 12.449219 0.242188 12.222656 0.472656 C 11.992188 0.703125 11.695312 0.816406 11.328125 0.816406 L 1.699219 0.816406 C 1.332031 0.816406 1.035156 0.695312 0.808594 0.453125 C 0.597656 0.226562 0.492188 -0.0625 0.492188 -0.417969 L 0.492188 -17.898438 C 0.492188 -18.25 0.597656 -18.542969 0.808594 -18.769531 C 1.035156 -19.011719 1.332031 -19.132812 1.699219 -19.132812 L 11.328125 -19.132812 C 11.695312 -19.132812 11.992188 -19.019531 12.222656 -18.789062 C 12.449219 -18.558594 12.566406 -18.261719 12.566406 -17.898438 Z M 10.929688 -17.898438 C 10.929688 -17.878906 10.933594 -17.851562 10.945312 -17.820312 C 10.96875 -17.75 11.007812 -17.6875 11.066406 -17.632812 C 11.121094 -17.574219 11.183594 -17.535156 11.253906 -17.511719 C 11.285156 -17.503906 11.308594 -17.496094 11.328125 -17.496094 L 1.699219 -17.496094 C 1.804688 -17.496094 1.90625 -17.546875 2.003906 -17.652344 C 2.054688 -17.707031 2.09375 -17.769531 2.113281 -17.835938 C 2.121094 -17.863281 2.125 -17.882812 2.125 -17.898438 L 2.125 -0.417969 C 2.125 -0.433594 2.121094 -0.453125 2.113281 -0.480469 C 2.09375 -0.546875 2.054688 -0.609375 2.003906 -0.664062 C 1.90625 -0.765625 1.804688 -0.816406 1.699219 -0.816406 L 11.328125 -0.816406 C 11.308594 -0.816406 11.285156 -0.8125 11.253906 -0.800781 C 11.183594 -0.777344 11.121094 -0.738281 11.066406 -0.683594 C 11.007812 -0.625 10.96875 -0.5625 10.945312 -0.492188 C 10.933594 -0.460938 10.929688 -0.4375 10.929688 -0.417969 L 10.929688 -3.035156 C 10.929688 -3.015625 10.933594 -2.992188 10.945312 -2.960938 C 10.96875 -2.890625 11.007812 -2.828125 11.066406 -2.769531 C 11.121094 -2.714844 11.183594 -2.675781 11.253906 -2.652344 C 11.285156 -2.640625 11.308594 -2.636719 11.328125 -2.636719 L 4.050781 -2.636719 L 4.050781 -8.144531 L 9.785156 -8.144531 C 9.761719 -8.144531 9.730469 -8.136719 9.695312 -8.125 C 9.625 -8.097656 9.558594 -8.058594 9.503906 -7.996094 C 9.453125 -7.945312 9.417969 -7.886719 9.398438 -7.820312 C 9.390625 -7.796875 9.386719 -7.78125 9.386719 -7.769531 L 9.386719 -10.359375 C 9.386719 -10.351562 9.390625 -10.335938 9.398438 -10.3125 C 9.417969 -10.246094 9.453125 -10.1875 9.503906 -10.132812 C 9.558594 -10.074219 9.625 -10.03125 9.695312 -10.007812 C 9.730469 -9.996094 9.761719 -9.988281 9.785156 -9.988281 L 4.050781 -9.988281 L 4.050781 -15.652344 L 11.328125 -15.652344 C 11.304688 -15.652344 11.273438 -15.648438 11.238281 -15.632812 C 11.167969 -15.609375 11.101562 -15.566406 11.046875 -15.507812 C 10.996094 -15.453125 10.960938 -15.394531 10.941406 -15.332031 C 10.933594 -15.304688 10.929688 -15.289062 10.929688 -15.28125 Z M 10.929688 -17.898438 "/></g></g><g style="fill:#b21a22;fill-opacity:1;"><g transform="translate(89.960168, 82.28008)"><path style="stroke:none" d="M -0.816406 3.507812 L -0.816406 1.097656 C -0.816406 0.699219 -0.695312 0.375 -0.449219 0.128906 C -0.199219 -0.117188 0.125 -0.242188 0.523438 -0.242188 L 16.300781 -0.242188 C 16.699219 -0.242188 17.023438 -0.117188 17.269531 0.128906 C 17.519531 0.375 17.640625 0.699219 17.640625 1.097656 L 17.640625 3.507812 C 17.640625 3.90625 17.519531 4.230469 17.269531 4.476562 C 17.023438 4.722656 16.699219 4.847656 16.300781 4.847656 L 0.523438 4.847656 C 0.125 4.847656 -0.199219 4.722656 -0.449219 4.476562 C -0.695312 4.230469 -0.816406 3.90625 -0.816406 3.507812 Z M 0.816406 3.507812 C 0.816406 3.507812 0.816406 3.511719 0.816406 3.515625 C 0.816406 3.515625 0.816406 3.515625 0.816406 3.511719 C 0.816406 3.503906 0.8125 3.492188 0.808594 3.476562 C 0.789062 3.417969 0.757812 3.367188 0.710938 3.320312 C 0.660156 3.273438 0.609375 3.238281 0.554688 3.222656 C 0.539062 3.214844 0.527344 3.214844 0.515625 3.210938 C 0.515625 3.210938 0.519531 3.210938 0.523438 3.210938 L 16.300781 3.210938 C 16.304688 3.210938 16.308594 3.210938 16.308594 3.210938 C 16.296875 3.214844 16.285156 3.214844 16.269531 3.222656 C 16.214844 3.238281 16.164062 3.273438 16.113281 3.320312 C 16.066406 3.367188 16.035156 3.417969 16.015625 3.476562 C 16.011719 3.492188 16.007812 3.503906 16.007812 3.511719 C 16.007812 3.515625 16.003906 3.515625 16.003906 3.515625 C 16.007812 3.511719 16.007812 3.507812 16.007812 3.507812 L 16.007812 1.097656 C 16.007812 1.09375 16.007812 1.09375 16.003906 1.089844 C 16.003906 1.089844 16.007812 1.089844 16.007812 1.09375 C 16.007812 1.101562 16.011719 1.113281 16.015625 1.128906 C 16.035156 1.183594 16.066406 1.238281 16.113281 1.285156 C 16.164062 1.332031 16.214844 1.363281 16.269531 1.382812 C 16.285156 1.390625 16.296875 1.390625 16.308594 1.394531 C 16.308594 1.394531 16.304688 1.394531 16.300781 1.394531 L 0.523438 1.394531 C 0.519531 1.394531 0.515625 1.394531 0.515625 1.394531 C 0.527344 1.390625 0.539062 1.390625 0.554688 1.382812 C 0.609375 1.363281 0.660156 1.332031 0.710938 1.285156 C 0.757812 1.238281 0.789062 1.183594 0.808594 1.128906 C 0.8125 1.113281 0.816406 1.101562 0.816406 1.09375 C 0.816406 1.089844 0.816406 1.089844 0.816406 1.089844 C 0.816406 1.09375 0.816406 1.09375 0.816406 1.097656 Z M 0.816406 3.507812 "/></g></g><g style="fill:#b21a22;fill-opacity:1;"><g transform="translate(39.07882, 118.75779)"><path style="stroke:none" d="M 12.589844 -17.898438 L 12.589844 -15.28125 C 12.589844 -14.914062 12.476562 -14.617188 12.246094 -14.386719 C 12.019531 -14.160156 11.722656 -14.042969 11.355469 -14.042969 L 4.867188 -14.042969 L 4.867188 -14.863281 L 5.683594 -14.863281 L 5.683594 -10.386719 L 4.867188 -10.386719 L 4.867188 -11.203125 L 9.785156 -11.203125 C 10.152344 -11.203125 10.449219 -11.089844 10.675781 -10.859375 C 10.90625 -10.632812 11.023438 -10.335938 11.023438 -9.96875 L 11.023438 -7.351562 C 11.023438 -6.988281 10.90625 -6.691406 10.675781 -6.460938 C 10.449219 -6.230469 10.152344 -6.117188 9.785156 -6.117188 L 4.867188 -6.117188 L 4.867188 -6.933594 L 5.683594 -6.933594 L 5.683594 -0.417969 C 5.683594 -0.0546875 5.570312 0.242188 5.339844 0.472656 C 5.109375 0.703125 4.8125 0.816406 4.449219 0.816406 L 1.726562 0.816406 C 1.363281 0.816406 1.0625 0.703125 0.835938 0.472656 C 0.605469 0.242188 0.492188 -0.0546875 0.492188 -0.417969 L 0.492188 -17.898438 C 0.492188 -18.261719 0.605469 -18.558594 0.835938 -18.789062 C 1.0625 -19.019531 1.363281 -19.132812 1.726562 -19.132812 L 11.355469 -19.132812 C 11.722656 -19.132812 12.019531 -19.019531 12.246094 -18.789062 C 12.476562 -18.558594 12.589844 -18.261719 12.589844 -17.898438 Z M 10.957031 -17.898438 C 10.957031 -17.878906 10.960938 -17.851562 10.972656 -17.820312 C 10.996094 -17.75 11.035156 -17.6875 11.089844 -17.632812 C 11.148438 -17.574219 11.210938 -17.535156 11.28125 -17.511719 C 11.3125 -17.503906 11.335938 -17.496094 11.355469 -17.496094 L 1.726562 -17.496094 C 1.746094 -17.496094 1.769531 -17.503906 1.800781 -17.511719 C 1.871094 -17.535156 1.933594 -17.574219 1.992188 -17.632812 C 2.046875 -17.6875 2.085938 -17.75 2.109375 -17.820312 C 2.121094 -17.851562 2.125 -17.878906 2.125 -17.898438 L 2.125 -0.417969 C 2.125 -0.4375 2.121094 -0.460938 2.109375 -0.492188 C 2.085938 -0.5625 2.046875 -0.625 1.992188 -0.683594 C 1.933594 -0.738281 1.871094 -0.777344 1.800781 -0.800781 C 1.769531 -0.8125 1.746094 -0.816406 1.726562 -0.816406 L 4.449219 -0.816406 C 4.429688 -0.816406 4.402344 -0.8125 4.371094 -0.800781 C 4.304688 -0.777344 4.238281 -0.738281 4.183594 -0.683594 C 4.128906 -0.625 4.089844 -0.5625 4.066406 -0.492188 C 4.054688 -0.460938 4.050781 -0.4375 4.050781 -0.417969 L 4.050781 -7.75 L 9.785156 -7.75 C 9.765625 -7.75 9.742188 -7.746094 9.710938 -7.734375 C 9.640625 -7.710938 9.578125 -7.671875 9.519531 -7.617188 C 9.464844 -7.558594 9.425781 -7.496094 9.402344 -7.425781 C 9.390625 -7.394531 9.386719 -7.371094 9.386719 -7.351562 L 9.386719 -9.96875 C 9.386719 -9.949219 9.390625 -9.925781 9.402344 -9.894531 C 9.425781 -9.824219 9.464844 -9.761719 9.519531 -9.703125 C 9.578125 -9.648438 9.640625 -9.609375 9.710938 -9.585938 C 9.742188 -9.574219 9.765625 -9.570312 9.785156 -9.570312 L 4.050781 -9.570312 L 4.050781 -15.679688 L 11.355469 -15.679688 C 11.335938 -15.679688 11.3125 -15.675781 11.28125 -15.664062 C 11.210938 -15.640625 11.148438 -15.601562 11.089844 -15.542969 C 11.035156 -15.488281 10.996094 -15.425781 10.972656 -15.355469 C 10.960938 -15.324219 10.957031 -15.296875 10.957031 -15.28125 Z M 10.957031 -17.898438 "/></g></g><g style="fill:#b21a22;fill-opacity:1;"><g transform="translate(52.156918, 118.75779)"><path style="stroke:none" d="M 4.050781 -3.453125 L 4.050781 -17.898438 C 4.050781 -17.878906 4.054688 -17.851562 4.066406 -17.820312 C 4.089844 -17.75 4.128906 -17.6875 4.183594 -17.632812 C 4.238281 -17.574219 4.304688 -17.535156 4.371094 -17.511719 C 4.402344 -17.503906 4.429688 -17.496094 4.449219 -17.496094 L 1.726562 -17.496094 C 1.746094 -17.496094 1.769531 -17.503906 1.800781 -17.511719 C 1.871094 -17.535156 1.933594 -17.574219 1.992188 -17.632812 C 2.046875 -17.6875 2.085938 -17.75 2.109375 -17.820312 C 2.121094 -17.851562 2.125 -17.878906 2.125 -17.898438 L 2.125 -0.417969 C 2.125 -0.4375 2.121094 -0.460938 2.109375 -0.492188 C 2.085938 -0.5625 2.046875 -0.625 1.992188 -0.683594 C 1.933594 -0.738281 1.871094 -0.777344 1.800781 -0.800781 C 1.769531 -0.8125 1.746094 -0.816406 1.726562 -0.816406 L 10.046875 -0.816406 C 10.027344 -0.816406 10.003906 -0.8125 9.972656 -0.800781 C 9.902344 -0.777344 9.839844 -0.738281 9.78125 -0.683594 C 9.726562 -0.625 9.6875 -0.5625 9.664062 -0.492188 C 9.652344 -0.460938 9.648438 -0.4375 9.648438 -0.417969 L 9.648438 -3.035156 C 9.648438 -3.015625 9.652344 -2.992188 9.664062 -2.960938 C 9.6875 -2.890625 9.726562 -2.828125 9.78125 -2.769531 C 9.839844 -2.714844 9.902344 -2.675781 9.972656 -2.652344 C 10.003906 -2.640625 10.027344 -2.636719 10.046875 -2.636719 L 4.050781 -2.636719 Z M 5.683594 -3.453125 L 4.867188 -3.453125 L 4.867188 -4.269531 L 10.046875 -4.269531 C 10.414062 -4.269531 10.710938 -4.15625 10.9375 -3.925781 C 11.167969 -3.699219 11.285156 -3.402344 11.285156 -3.035156 L 11.285156 -0.417969 C 11.285156 -0.0546875 11.167969 0.242188 10.9375 0.472656 C 10.710938 0.703125 10.414062 0.816406 10.046875 0.816406 L 1.726562 0.816406 C 1.363281 0.816406 1.0625 0.703125 0.835938 0.472656 C 0.605469 0.242188 0.492188 -0.0546875 0.492188 -0.417969 L 0.492188 -17.898438 C 0.492188 -18.261719 0.605469 -18.558594 0.835938 -18.789062 C 1.0625 -19.019531 1.363281 -19.132812 1.726562 -19.132812 L 4.449219 -19.132812 C 4.8125 -19.132812 5.109375 -19.019531 5.339844 -18.789062 C 5.570312 -18.558594 5.683594 -18.261719 5.683594 -17.898438 Z M 5.683594 -3.453125 "/></g></g><g style="fill:#b21a22;fill-opacity:1;"><g transform="translate(63.927205, 118.75779)"><path style="stroke:none" d="M 13.65625 0.816406 L 11.121094 0.816406 C 10.800781 0.816406 10.53125 0.71875 10.308594 0.523438 C 10.101562 0.34375 9.964844 0.105469 9.902344 -0.195312 L 10.703125 -0.367188 L 9.910156 -0.164062 L 9.070312 -3.460938 L 9.863281 -3.664062 L 9.863281 -2.84375 L 4.945312 -2.84375 L 4.945312 -3.664062 L 5.738281 -3.46875 L 4.929688 -0.171875 L 4.132812 -0.367188 L 4.933594 -0.195312 C 4.871094 0.105469 4.734375 0.34375 4.527344 0.523438 C 4.304688 0.71875 4.035156 0.816406 3.714844 0.816406 L 1.152344 0.816406 C 0.726562 0.816406 0.402344 0.671875 0.179688 0.386719 C -0.0429688 0.0898438 -0.09375 -0.261719 0.0273438 -0.675781 L 0.8125 -0.445312 L 0.015625 -0.640625 L 4.359375 -18.144531 L 5.15625 -17.949219 L 4.355469 -18.121094 C 4.421875 -18.429688 4.5625 -18.671875 4.785156 -18.855469 C 5.011719 -19.039062 5.28125 -19.132812 5.597656 -19.132812 L 9.234375 -19.132812 C 9.554688 -19.132812 9.824219 -19.039062 10.050781 -18.855469 C 10.269531 -18.671875 10.414062 -18.429688 10.480469 -18.121094 L 9.679688 -17.949219 L 10.472656 -18.144531 L 14.816406 -0.640625 L 14.023438 -0.445312 L 14.808594 -0.675781 C 14.933594 -0.25 14.875 0.113281 14.628906 0.410156 C 14.40625 0.679688 14.082031 0.816406 13.65625 0.816406 Z M 13.65625 -0.816406 C 13.660156 -0.816406 13.664062 -0.816406 13.667969 -0.816406 C 13.667969 -0.816406 13.667969 -0.816406 13.664062 -0.816406 C 13.648438 -0.816406 13.632812 -0.8125 13.613281 -0.804688 C 13.519531 -0.773438 13.4375 -0.714844 13.367188 -0.632812 C 13.289062 -0.535156 13.246094 -0.429688 13.234375 -0.3125 C 13.230469 -0.269531 13.234375 -0.234375 13.238281 -0.214844 L 13.234375 -0.230469 L 8.882812 -17.765625 L 8.882812 -17.777344 C 8.894531 -17.714844 8.9375 -17.652344 9.011719 -17.59375 C 9.085938 -17.527344 9.164062 -17.496094 9.234375 -17.496094 L 5.597656 -17.496094 C 5.671875 -17.496094 5.746094 -17.527344 5.824219 -17.59375 C 5.898438 -17.652344 5.941406 -17.714844 5.953125 -17.777344 L 5.953125 -17.765625 L 1.601562 -0.230469 L 1.59375 -0.214844 C 1.601562 -0.230469 1.601562 -0.257812 1.597656 -0.296875 C 1.59375 -0.410156 1.554688 -0.511719 1.480469 -0.609375 C 1.410156 -0.699219 1.324219 -0.765625 1.222656 -0.800781 C 1.1875 -0.8125 1.164062 -0.816406 1.152344 -0.816406 L 3.714844 -0.816406 C 3.625 -0.816406 3.535156 -0.78125 3.453125 -0.707031 C 3.386719 -0.648438 3.347656 -0.59375 3.335938 -0.539062 L 3.335938 -0.550781 L 4.304688 -4.480469 L 10.5 -4.480469 L 11.496094 -0.550781 L 11.5 -0.539062 C 11.488281 -0.59375 11.449219 -0.648438 11.382812 -0.707031 C 11.300781 -0.78125 11.210938 -0.816406 11.121094 -0.816406 Z M 8.257812 -6.511719 L 6.609375 -13.628906 L 7.40625 -13.816406 L 8.199219 -13.628906 L 6.554688 -6.511719 L 5.757812 -6.699219 L 5.757812 -7.515625 L 9.054688 -7.515625 L 9.054688 -6.699219 Z M 10.082031 -5.878906 L 4.726562 -5.878906 L 6.609375 -14 L 8.199219 -14 L 9.847656 -6.882812 Z M 10.082031 -5.878906 "/></g></g><g style="fill:#b21a22;fill-opacity:1;"><g transform="translate(78.757771, 118.75779)"><path style="stroke:none" d="M 5.074219 -19.132812 L 8.007812 -19.132812 C 9.46875 -19.132812 10.601562 -18.734375 11.398438 -17.9375 C 12.195312 -17.140625 12.589844 -16.011719 12.589844 -14.546875 L 12.589844 -12.820312 C 12.589844 -12.457031 12.476562 -12.15625 12.246094 -11.929688 C 12.019531 -11.699219 11.722656 -11.585938 11.355469 -11.585938 L 8.710938 -11.585938 C 8.347656 -11.585938 8.050781 -11.699219 7.820312 -11.929688 C 7.589844 -12.15625 7.476562 -12.457031 7.476562 -12.820312 L 7.476562 -13.917969 C 7.476562 -14.003906 7.46875 -14.070312 7.453125 -14.117188 C 7.449219 -14.128906 7.449219 -14.132812 7.445312 -14.136719 C 7.449219 -14.132812 7.449219 -14.128906 7.453125 -14.125 C 7.457031 -14.121094 7.460938 -14.121094 7.464844 -14.117188 C 7.460938 -14.121094 7.457031 -14.121094 7.445312 -14.125 C 7.398438 -14.140625 7.332031 -14.148438 7.246094 -14.148438 L 5.808594 -14.148438 C 5.722656 -14.148438 5.65625 -14.140625 5.609375 -14.125 C 5.601562 -14.121094 5.59375 -14.121094 5.589844 -14.117188 C 5.59375 -14.121094 5.597656 -14.121094 5.601562 -14.125 C 5.605469 -14.128906 5.609375 -14.132812 5.609375 -14.136719 C 5.609375 -14.132812 5.605469 -14.128906 5.601562 -14.117188 C 5.585938 -14.070312 5.578125 -14.003906 5.578125 -13.917969 L 5.578125 -11.695312 L 4.761719 -11.695312 L 5.011719 -12.472656 L 11.34375 -10.433594 C 11.75 -10.292969 12.058594 -10.070312 12.273438 -9.765625 C 12.484375 -9.460938 12.589844 -9.101562 12.589844 -8.6875 L 12.589844 -3.769531 C 12.589844 -2.324219 12.195312 -1.199219 11.402344 -0.394531 C 10.605469 0.414062 9.472656 0.816406 8.007812 0.816406 L 5.074219 0.816406 C 3.628906 0.816406 2.503906 0.414062 1.699219 -0.390625 C 0.894531 -1.195312 0.492188 -2.320312 0.492188 -3.769531 L 0.492188 -5.46875 C 0.492188 -5.832031 0.605469 -6.132812 0.835938 -6.359375 C 1.0625 -6.589844 1.363281 -6.703125 1.726562 -6.703125 L 4.371094 -6.703125 C 4.734375 -6.703125 5.03125 -6.589844 5.261719 -6.359375 C 5.492188 -6.132812 5.605469 -5.832031 5.605469 -5.46875 L 5.605469 -4.371094 C 5.605469 -4.285156 5.613281 -4.21875 5.628906 -4.171875 C 5.632812 -4.160156 5.632812 -4.15625 5.636719 -4.152344 C 5.632812 -4.15625 5.632812 -4.160156 5.628906 -4.164062 C 5.625 -4.167969 5.621094 -4.167969 5.617188 -4.171875 C 5.621094 -4.167969 5.625 -4.167969 5.636719 -4.164062 C 5.683594 -4.148438 5.75 -4.140625 5.835938 -4.140625 L 7.246094 -4.140625 C 7.332031 -4.140625 7.398438 -4.148438 7.445312 -4.164062 C 7.457031 -4.167969 7.460938 -4.167969 7.464844 -4.171875 C 7.460938 -4.167969 7.457031 -4.167969 7.453125 -4.164062 C 7.449219 -4.160156 7.449219 -4.15625 7.445312 -4.152344 C 7.449219 -4.15625 7.449219 -4.160156 7.453125 -4.171875 C 7.46875 -4.21875 7.476562 -4.285156 7.476562 -4.371094 L 7.476562 -7.011719 L 8.292969 -7.011719 L 8.042969 -6.234375 L 1.761719 -8.273438 C 1.355469 -8.410156 1.042969 -8.628906 0.824219 -8.929688 C 0.601562 -9.234375 0.492188 -9.597656 0.492188 -10.019531 L 0.492188 -14.546875 C 0.492188 -16.015625 0.894531 -17.144531 1.703125 -17.941406 C 2.507812 -18.734375 3.632812 -19.132812 5.074219 -19.132812 Z M 5.074219 -17.496094 C 4.078125 -17.496094 3.335938 -17.257812 2.851562 -16.777344 C 2.367188 -16.300781 2.125 -15.558594 2.125 -14.546875 L 2.125 -10.019531 C 2.125 -9.953125 2.132812 -9.914062 2.144531 -9.894531 C 2.160156 -9.875 2.199219 -9.851562 2.265625 -9.832031 L 9.113281 -7.605469 L 9.113281 -4.371094 C 9.113281 -3.792969 8.945312 -3.339844 8.609375 -3.007812 C 8.277344 -2.671875 7.820312 -2.503906 7.246094 -2.503906 L 5.835938 -2.503906 C 5.261719 -2.503906 4.804688 -2.671875 4.472656 -3.007812 C 4.136719 -3.339844 3.96875 -3.792969 3.96875 -4.371094 L 3.96875 -5.46875 C 3.96875 -5.449219 3.976562 -5.425781 3.984375 -5.394531 C 4.007812 -5.324219 4.050781 -5.261719 4.105469 -5.203125 C 4.160156 -5.148438 4.222656 -5.109375 4.292969 -5.085938 C 4.324219 -5.074219 4.351562 -5.070312 4.371094 -5.070312 L 1.726562 -5.070312 C 1.746094 -5.070312 1.769531 -5.074219 1.800781 -5.085938 C 1.871094 -5.109375 1.933594 -5.148438 1.992188 -5.203125 C 2.046875 -5.261719 2.085938 -5.324219 2.109375 -5.394531 C 2.121094 -5.425781 2.125 -5.449219 2.125 -5.46875 L 2.125 -3.769531 C 2.125 -2.773438 2.367188 -2.03125 2.855469 -1.546875 C 3.339844 -1.0625 4.082031 -0.816406 5.074219 -0.816406 L 8.007812 -0.816406 C 9.015625 -0.816406 9.761719 -1.058594 10.238281 -1.542969 C 10.714844 -2.027344 10.957031 -2.769531 10.957031 -3.769531 L 10.957031 -8.6875 C 10.957031 -8.757812 10.949219 -8.804688 10.933594 -8.824219 C 10.921875 -8.84375 10.890625 -8.859375 10.84375 -8.875 L 3.945312 -11.101562 L 3.945312 -13.917969 C 3.945312 -14.496094 4.109375 -14.949219 4.445312 -15.28125 C 4.78125 -15.617188 5.234375 -15.785156 5.808594 -15.785156 L 7.246094 -15.785156 C 7.820312 -15.785156 8.277344 -15.617188 8.609375 -15.28125 C 8.945312 -14.949219 9.113281 -14.496094 9.113281 -13.917969 L 9.113281 -12.820312 C 9.113281 -12.839844 9.105469 -12.863281 9.097656 -12.894531 C 9.074219 -12.964844 9.03125 -13.027344 8.976562 -13.085938 C 8.921875 -13.140625 8.859375 -13.179688 8.789062 -13.203125 C 8.757812 -13.214844 8.730469 -13.21875 8.710938 -13.21875 L 11.355469 -13.21875 C 11.335938 -13.21875 11.3125 -13.214844 11.28125 -13.203125 C 11.210938 -13.179688 11.148438 -13.140625 11.089844 -13.085938 C 11.035156 -13.027344 10.996094 -12.964844 10.972656 -12.894531 C 10.960938 -12.863281 10.957031 -12.839844 10.957031 -12.820312 L 10.957031 -14.546875 C 10.957031 -15.558594 10.71875 -16.304688 10.242188 -16.78125 C 9.765625 -17.257812 9.019531 -17.496094 8.007812 -17.496094 Z M 5.074219 -17.496094 "/></g></g><g style="fill:#b21a22;fill-opacity:1;"><g transform="translate(91.835869, 118.75779)"><path style="stroke:none" d="M 7.398438 -10.832031 L 7.398438 -17.898438 C 7.398438 -18.261719 7.511719 -18.558594 7.742188 -18.789062 C 7.972656 -19.019531 8.269531 -19.132812 8.632812 -19.132812 L 11.328125 -19.132812 C 11.695312 -19.132812 11.992188 -19.023438 12.222656 -18.804688 C 12.46875 -18.574219 12.589844 -18.273438 12.589844 -17.898438 L 12.589844 -0.417969 C 12.589844 -0.0429688 12.46875 0.257812 12.222656 0.492188 C 11.992188 0.707031 11.695312 0.816406 11.328125 0.816406 L 8.632812 0.816406 C 8.269531 0.816406 7.972656 0.703125 7.742188 0.472656 C 7.511719 0.242188 7.398438 -0.0546875 7.398438 -0.417969 L 7.398438 -7.378906 L 8.214844 -7.378906 L 8.214844 -6.5625 L 4.867188 -6.5625 L 4.867188 -7.378906 L 5.683594 -7.378906 L 5.683594 -0.417969 C 5.683594 -0.0546875 5.570312 0.242188 5.339844 0.472656 C 5.109375 0.703125 4.8125 0.816406 4.449219 0.816406 L 1.753906 0.816406 C 1.386719 0.816406 1.089844 0.707031 0.859375 0.492188 C 0.613281 0.257812 0.492188 -0.0429688 0.492188 -0.417969 L 0.492188 -17.898438 C 0.492188 -18.273438 0.613281 -18.574219 0.859375 -18.804688 C 1.089844 -19.023438 1.386719 -19.132812 1.753906 -19.132812 L 4.449219 -19.132812 C 4.8125 -19.132812 5.109375 -19.019531 5.339844 -18.789062 C 5.570312 -18.558594 5.683594 -18.261719 5.683594 -17.898438 L 5.683594 -10.832031 L 4.867188 -10.832031 L 4.867188 -11.648438 L 8.214844 -11.648438 L 8.214844 -10.832031 Z M 9.035156 -10.015625 L 4.050781 -10.015625 L 4.050781 -17.898438 C 4.050781 -17.878906 4.054688 -17.851562 4.066406 -17.820312 C 4.089844 -17.75 4.128906 -17.6875 4.183594 -17.632812 C 4.238281 -17.574219 4.304688 -17.535156 4.371094 -17.511719 C 4.402344 -17.503906 4.429688 -17.496094 4.449219 -17.496094 L 1.753906 -17.496094 C 1.761719 -17.496094 1.777344 -17.5 1.804688 -17.507812 C 1.867188 -17.527344 1.925781 -17.5625 1.980469 -17.613281 C 2.039062 -17.671875 2.082031 -17.734375 2.105469 -17.808594 C 2.121094 -17.84375 2.125 -17.871094 2.125 -17.898438 L 2.125 -0.417969 C 2.125 -0.441406 2.121094 -0.472656 2.105469 -0.507812 C 2.082031 -0.582031 2.039062 -0.644531 1.980469 -0.699219 C 1.925781 -0.75 1.867188 -0.785156 1.804688 -0.804688 C 1.777344 -0.8125 1.761719 -0.816406 1.753906 -0.816406 L 4.449219 -0.816406 C 4.429688 -0.816406 4.402344 -0.8125 4.371094 -0.800781 C 4.304688 -0.777344 4.238281 -0.738281 4.183594 -0.683594 C 4.128906 -0.625 4.089844 -0.5625 4.066406 -0.492188 C 4.054688 -0.460938 4.050781 -0.4375 4.050781 -0.417969 L 4.050781 -8.195312 L 9.035156 -8.195312 L 9.035156 -0.417969 C 9.035156 -0.4375 9.027344 -0.460938 9.015625 -0.492188 C 8.996094 -0.5625 8.953125 -0.625 8.898438 -0.683594 C 8.84375 -0.738281 8.78125 -0.777344 8.710938 -0.800781 C 8.679688 -0.8125 8.652344 -0.816406 8.632812 -0.816406 L 11.328125 -0.816406 C 11.320312 -0.816406 11.304688 -0.8125 11.277344 -0.804688 C 11.214844 -0.785156 11.15625 -0.75 11.101562 -0.699219 C 11.042969 -0.644531 11 -0.582031 10.976562 -0.507812 C 10.960938 -0.472656 10.957031 -0.441406 10.957031 -0.417969 L 10.957031 -17.898438 C 10.957031 -17.871094 10.960938 -17.84375 10.976562 -17.808594 C 11 -17.734375 11.042969 -17.671875 11.101562 -17.613281 C 11.15625 -17.5625 11.214844 -17.527344 11.277344 -17.507812 C 11.304688 -17.5 11.320312 -17.496094 11.328125 -17.496094 L 8.632812 -17.496094 C 8.652344 -17.496094 8.679688 -17.503906 8.710938 -17.511719 C 8.78125 -17.535156 8.84375 -17.574219 8.898438 -17.632812 C 8.953125 -17.6875 8.996094 -17.75 9.015625 -17.820312 C 9.027344 -17.851562 9.035156 -17.878906 9.035156 -17.898438 Z M 9.035156 -10.015625 "/></g></g><g style="fill:#060705;fill-opacity:1;"><g transform="translate(38.457041, 45.802371)"><path style="stroke:none" d="M 5.078125 -18.328125 L 8.015625 -18.328125 C 9.242188 -18.328125 10.175781 -18.003906 10.8125 -17.359375 C 11.457031 -16.722656 11.78125 -15.785156 11.78125 -14.546875 L 11.78125 -12.828125 C 11.78125 -12.546875 11.640625 -12.40625 11.359375 -12.40625 L 8.71875 -12.40625 C 8.4375 -12.40625 8.296875 -12.546875 8.296875 -12.828125 L 8.296875 -13.921875 C 8.296875 -14.617188 7.945312 -14.96875 7.25 -14.96875 L 5.8125 -14.96875 C 5.113281 -14.96875 4.765625 -14.617188 4.765625 -13.921875 L 4.765625 -11.703125 L 11.09375 -9.65625 C 11.550781 -9.5 11.78125 -9.175781 11.78125 -8.6875 L 11.78125 -3.765625 C 11.78125 -2.546875 11.457031 -1.613281 10.8125 -0.96875 C 10.175781 -0.320312 9.242188 0 8.015625 0 L 5.078125 0 C 3.859375 0 2.925781 -0.320312 2.28125 -0.96875 C 1.632812 -1.613281 1.3125 -2.546875 1.3125 -3.765625 L 1.3125 -5.46875 C 1.3125 -5.75 1.453125 -5.890625 1.734375 -5.890625 L 4.375 -5.890625 C 4.65625 -5.890625 4.796875 -5.75 4.796875 -5.46875 L 4.796875 -4.375 C 4.796875 -3.675781 5.144531 -3.328125 5.84375 -3.328125 L 7.25 -3.328125 C 7.945312 -3.328125 8.296875 -3.675781 8.296875 -4.375 L 8.296875 -7.015625 L 2.015625 -9.0625 C 1.546875 -9.21875 1.3125 -9.539062 1.3125 -10.03125 L 1.3125 -14.546875 C 1.3125 -15.785156 1.632812 -16.722656 2.28125 -17.359375 C 2.925781 -18.003906 3.859375 -18.328125 5.078125 -18.328125 Z M 5.078125 -18.328125 "/></g></g><g style="fill:#060705;fill-opacity:1;"><g transform="translate(51.535139, 45.802371)"><path style="stroke:none" d="M 10.828125 -18.328125 L 1.203125 -18.328125 C 0.921875 -18.328125 0.78125 -18.1875 0.78125 -17.90625 L 0.78125 -15.28125 C 0.78125 -15 0.921875 -14.859375 1.203125 -14.859375 L 4.234375 -14.859375 L 4.234375 -0.421875 C 4.234375 -0.140625 4.375 0 4.65625 0 L 7.375 0 C 7.65625 0 7.796875 -0.140625 7.796875 -0.421875 L 7.796875 -14.859375 L 10.828125 -14.859375 C 11.109375 -14.859375 11.25 -15 11.25 -15.28125 L 11.25 -17.90625 C 11.25 -18.1875 11.109375 -18.328125 10.828125 -18.328125 Z M 10.828125 -18.328125 "/></g></g><g style="fill:#060705;fill-opacity:1;"><g transform="translate(63.56699, 45.802371)"><path style="stroke:none" d="M 13.65625 0 L 11.125 0 C 10.894531 0 10.753906 -0.117188 10.703125 -0.359375 L 9.859375 -3.671875 L 4.953125 -3.671875 L 4.140625 -0.359375 C 4.085938 -0.117188 3.945312 0 3.71875 0 L 1.15625 0 C 0.84375 0 0.726562 -0.144531 0.8125 -0.4375 L 5.15625 -17.953125 C 5.207031 -18.203125 5.351562 -18.328125 5.59375 -18.328125 L 9.234375 -18.328125 C 9.484375 -18.328125 9.632812 -18.203125 9.6875 -17.953125 L 14.03125 -0.4375 C 14.113281 -0.144531 13.988281 0 13.65625 0 Z M 9.0625 -6.703125 L 7.40625 -13.8125 L 5.765625 -6.703125 Z M 9.0625 -6.703125 "/></g></g><g style="fill:#060705;fill-opacity:1;"><g transform="translate(78.397556, 45.802371)"><path style="stroke:none" d="M 11.796875 -14.546875 L 11.796875 -11.71875 C 11.796875 -11.445312 11.660156 -11.3125 11.390625 -11.3125 L 8.921875 -11.3125 C 8.640625 -11.3125 8.5 -11.445312 8.5 -11.71875 L 8.5 -13.875 C 8.5 -14.570312 8.148438 -14.921875 7.453125 -14.921875 L 5.78125 -14.921875 C 5.082031 -14.921875 4.734375 -14.570312 4.734375 -13.875 L 4.734375 -4.375 C 4.734375 -3.675781 5.082031 -3.328125 5.78125 -3.328125 L 7.453125 -3.328125 C 8.148438 -3.328125 8.5 -3.675781 8.5 -4.375 L 8.5 -6.59375 C 8.5 -6.875 8.640625 -7.015625 8.921875 -7.015625 L 11.390625 -7.015625 C 11.660156 -7.015625 11.796875 -6.875 11.796875 -6.59375 L 11.796875 -3.765625 C 11.796875 -2.546875 11.472656 -1.613281 10.828125 -0.96875 C 10.179688 -0.320312 9.25 0 8.03125 0 L 5.109375 0 C 3.878906 0 2.9375 -0.320312 2.28125 -0.96875 C 1.632812 -1.613281 1.3125 -2.546875 1.3125 -3.765625 L 1.3125 -14.546875 C 1.3125 -15.785156 1.632812 -16.722656 2.28125 -17.359375 C 2.9375 -18.003906 3.878906 -18.328125 5.109375 -18.328125 L 8.03125 -18.328125 C 9.25 -18.328125 10.179688 -18.003906 10.828125 -17.359375 C 11.472656 -16.722656 11.796875 -15.785156 11.796875 -14.546875 Z M 11.796875 -14.546875 "/></g></g><g style="fill:#060705;fill-opacity:1;"><g transform="translate(91.501814, 45.802371)"><path style="stroke:none" d="M 12.515625 0 L 9.734375 0 C 9.472656 0 9.273438 -0.128906 9.140625 -0.390625 L 5.84375 -6.859375 L 4.875 -5 L 4.875 -0.53125 C 4.875 -0.175781 4.695312 0 4.34375 0 L 1.828125 0 C 1.484375 0 1.3125 -0.175781 1.3125 -0.53125 L 1.3125 -17.796875 C 1.3125 -18.148438 1.484375 -18.328125 1.828125 -18.328125 L 4.34375 -18.328125 C 4.695312 -18.328125 4.875 -18.148438 4.875 -17.796875 L 4.875 -11 L 8.90625 -17.921875 C 9.039062 -18.191406 9.238281 -18.328125 9.5 -18.328125 L 12.25 -18.328125 C 12.4375 -18.328125 12.566406 -18.265625 12.640625 -18.140625 C 12.722656 -18.015625 12.710938 -17.863281 12.609375 -17.6875 L 8.171875 -9.859375 L 12.90625 -0.609375 C 12.988281 -0.429688 12.992188 -0.285156 12.921875 -0.171875 C 12.859375 -0.0546875 12.722656 0 12.515625 0 Z M 12.515625 0 "/></g></g><g style="fill:#060705;fill-opacity:1;"><g transform="translate(37.20312, 82.28008)"><path style="stroke:none" d="M 13.65625 0 L 11.125 0 C 10.894531 0 10.753906 -0.117188 10.703125 -0.359375 L 9.859375 -3.671875 L 4.953125 -3.671875 L 4.140625 -0.359375 C 4.085938 -0.117188 3.945312 0 3.71875 0 L 1.15625 0 C 0.84375 0 0.726562 -0.144531 0.8125 -0.4375 L 5.15625 -17.953125 C 5.207031 -18.203125 5.351562 -18.328125 5.59375 -18.328125 L 9.234375 -18.328125 C 9.484375 -18.328125 9.632812 -18.203125 9.6875 -17.953125 L 14.03125 -0.4375 C 14.113281 -0.144531 13.988281 0 13.65625 0 Z M 9.0625 -6.703125 L 7.40625 -13.8125 L 5.765625 -6.703125 Z M 9.0625 -6.703125 "/></g></g><g style="fill:#060705;fill-opacity:1;"><g transform="translate(52.033686, 82.28008)"><path style="stroke:none" d="M 11.796875 -14.546875 L 11.796875 -11.015625 C 11.796875 -10.523438 11.640625 -10.113281 11.328125 -9.78125 C 11.015625 -9.457031 10.625 -9.25 10.15625 -9.15625 L 10.15625 -9.109375 C 10.625 -9.035156 11.015625 -8.828125 11.328125 -8.484375 C 11.640625 -8.148438 11.796875 -7.738281 11.796875 -7.25 L 11.796875 -3.765625 C 11.796875 -2.546875 11.472656 -1.613281 10.828125 -0.96875 C 10.179688 -0.320312 9.242188 0 8.015625 0 L 1.734375 0 C 1.453125 0 1.3125 -0.140625 1.3125 -0.421875 L 1.3125 -17.90625 C 1.3125 -18.1875 1.453125 -18.328125 1.734375 -18.328125 L 8.015625 -18.328125 C 9.242188 -18.328125 10.179688 -18.003906 10.828125 -17.359375 C 11.472656 -16.722656 11.796875 -15.785156 11.796875 -14.546875 Z M 8.484375 -11.875 L 8.484375 -13.96875 C 8.484375 -14.664062 8.132812 -15.015625 7.4375 -15.015625 L 4.546875 -15.015625 L 4.546875 -10.859375 L 7.4375 -10.859375 C 8.132812 -10.859375 8.484375 -11.195312 8.484375 -11.875 Z M 8.484375 -4.34375 L 8.484375 -6.359375 C 8.484375 -7.054688 8.132812 -7.40625 7.4375 -7.40625 L 4.546875 -7.40625 L 4.546875 -3.296875 L 7.4375 -3.296875 C 8.132812 -3.296875 8.484375 -3.644531 8.484375 -4.34375 Z M 8.484375 -4.34375 "/></g></g><g style="fill:#060705;fill-opacity:1;"><g transform="translate(65.137944, 82.28008)"><path style="stroke:none" d="M 4.875 -3.453125 L 4.875 -17.90625 C 4.875 -18.1875 4.734375 -18.328125 4.453125 -18.328125 L 1.734375 -18.328125 C 1.453125 -18.328125 1.3125 -18.1875 1.3125 -17.90625 L 1.3125 -0.421875 C 1.3125 -0.140625 1.453125 0 1.734375 0 L 10.046875 0 C 10.328125 0 10.46875 -0.140625 10.46875 -0.421875 L 10.46875 -3.03125 C 10.46875 -3.3125 10.328125 -3.453125 10.046875 -3.453125 Z M 4.875 -3.453125 "/></g></g><g style="fill:#060705;fill-opacity:1;"><g transform="translate(76.908231, 82.28008)"><path style="stroke:none" d="M 11.75 -17.90625 L 11.75 -15.28125 C 11.75 -14.988281 11.609375 -14.84375 11.328125 -14.84375 L 4.875 -14.84375 L 4.875 -10.8125 L 9.78125 -10.8125 C 10.0625 -10.8125 10.203125 -10.660156 10.203125 -10.359375 L 10.203125 -7.765625 C 10.203125 -7.472656 10.0625 -7.328125 9.78125 -7.328125 L 4.875 -7.328125 L 4.875 -3.453125 L 11.328125 -3.453125 C 11.609375 -3.453125 11.75 -3.3125 11.75 -3.03125 L 11.75 -0.421875 C 11.75 -0.140625 11.609375 0 11.328125 0 L 1.703125 0 C 1.441406 0 1.3125 -0.140625 1.3125 -0.421875 L 1.3125 -17.90625 C 1.3125 -18.1875 1.441406 -18.328125 1.703125 -18.328125 L 11.328125 -18.328125 C 11.609375 -18.328125 11.75 -18.1875 11.75 -17.90625 Z M 11.75 -17.90625 "/></g></g><g style="fill:#060705;fill-opacity:1;"><g transform="translate(89.960168, 82.28008)"><path style="stroke:none" d="M 0 3.5 L 0 1.09375 C 0 0.75 0.175781 0.578125 0.53125 0.578125 L 16.3125 0.578125 C 16.65625 0.578125 16.828125 0.75 16.828125 1.09375 L 16.828125 3.5 C 16.828125 3.851562 16.65625 4.03125 16.3125 4.03125 L 0.53125 4.03125 C 0.175781 4.03125 0 3.851562 0 3.5 Z M 0 3.5 "/></g></g><g style="fill:#060705;fill-opacity:1;"><g transform="translate(39.07882, 118.75779)"><path style="stroke:none" d="M 11.78125 -17.90625 L 11.78125 -15.28125 C 11.78125 -15 11.640625 -14.859375 11.359375 -14.859375 L 4.875 -14.859375 L 4.875 -10.390625 L 9.78125 -10.390625 C 10.0625 -10.390625 10.203125 -10.25 10.203125 -9.96875 L 10.203125 -7.359375 C 10.203125 -7.078125 10.0625 -6.9375 9.78125 -6.9375 L 4.875 -6.9375 L 4.875 -0.421875 C 4.875 -0.140625 4.734375 0 4.453125 0 L 1.734375 0 C 1.453125 0 1.3125 -0.140625 1.3125 -0.421875 L 1.3125 -17.90625 C 1.3125 -18.1875 1.453125 -18.328125 1.734375 -18.328125 L 11.359375 -18.328125 C 11.640625 -18.328125 11.78125 -18.1875 11.78125 -17.90625 Z M 11.78125 -17.90625 "/></g></g><g style="fill:#060705;fill-opacity:1;"><g transform="translate(52.156918, 118.75779)"><path style="stroke:none" d="M 4.875 -3.453125 L 4.875 -17.90625 C 4.875 -18.1875 4.734375 -18.328125 4.453125 -18.328125 L 1.734375 -18.328125 C 1.453125 -18.328125 1.3125 -18.1875 1.3125 -17.90625 L 1.3125 -0.421875 C 1.3125 -0.140625 1.453125 0 1.734375 0 L 10.046875 0 C 10.328125 0 10.46875 -0.140625 10.46875 -0.421875 L 10.46875 -3.03125 C 10.46875 -3.3125 10.328125 -3.453125 10.046875 -3.453125 Z M 4.875 -3.453125 "/></g></g><g style="fill:#060705;fill-opacity:1;"><g transform="translate(63.927205, 118.75779)"><path style="stroke:none" d="M 13.65625 0 L 11.125 0 C 10.894531 0 10.753906 -0.117188 10.703125 -0.359375 L 9.859375 -3.671875 L 4.953125 -3.671875 L 4.140625 -0.359375 C 4.085938 -0.117188 3.945312 0 3.71875 0 L 1.15625 0 C 0.84375 0 0.726562 -0.144531 0.8125 -0.4375 L 5.15625 -17.953125 C 5.207031 -18.203125 5.351562 -18.328125 5.59375 -18.328125 L 9.234375 -18.328125 C 9.484375 -18.328125 9.632812 -18.203125 9.6875 -17.953125 L 14.03125 -0.4375 C 14.113281 -0.144531 13.988281 0 13.65625 0 Z M 9.0625 -6.703125 L 7.40625 -13.8125 L 5.765625 -6.703125 Z M 9.0625 -6.703125 "/></g></g><g style="fill:#060705;fill-opacity:1;"><g transform="translate(78.757771, 118.75779)"><path style="stroke:none" d="M 5.078125 -18.328125 L 8.015625 -18.328125 C 9.242188 -18.328125 10.175781 -18.003906 10.8125 -17.359375 C 11.457031 -16.722656 11.78125 -15.785156 11.78125 -14.546875 L 11.78125 -12.828125 C 11.78125 -12.546875 11.640625 -12.40625 11.359375 -12.40625 L 8.71875 -12.40625 C 8.4375 -12.40625 8.296875 -12.546875 8.296875 -12.828125 L 8.296875 -13.921875 C 8.296875 -14.617188 7.945312 -14.96875 7.25 -14.96875 L 5.8125 -14.96875 C 5.113281 -14.96875 4.765625 -14.617188 4.765625 -13.921875 L 4.765625 -11.703125 L 11.09375 -9.65625 C 11.550781 -9.5 11.78125 -9.175781 11.78125 -8.6875 L 11.78125 -3.765625 C 11.78125 -2.546875 11.457031 -1.613281 10.8125 -0.96875 C 10.175781 -0.320312 9.242188 0 8.015625 0 L 5.078125 0 C 3.859375 0 2.925781 -0.320312 2.28125 -0.96875 C 1.632812 -1.613281 1.3125 -2.546875 1.3125 -3.765625 L 1.3125 -5.46875 C 1.3125 -5.75 1.453125 -5.890625 1.734375 -5.890625 L 4.375 -5.890625 C 4.65625 -5.890625 4.796875 -5.75 4.796875 -5.46875 L 4.796875 -4.375 C 4.796875 -3.675781 5.144531 -3.328125 5.84375 -3.328125 L 7.25 -3.328125 C 7.945312 -3.328125 8.296875 -3.675781 8.296875 -4.375 L 8.296875 -7.015625 L 2.015625 -9.0625 C 1.546875 -9.21875 1.3125 -9.539062 1.3125 -10.03125 L 1.3125 -14.546875 C 1.3125 -15.785156 1.632812 -16.722656 2.28125 -17.359375 C 2.925781 -18.003906 3.859375 -18.328125 5.078125 -18.328125 Z M 5.078125 -18.328125 "/></g></g><g style="fill:#060705;fill-opacity:1;"><g transform="translate(91.835869, 118.75779)"><path style="stroke:none" d="M 8.21875 -10.828125 L 8.21875 -17.90625 C 8.21875 -18.1875 8.359375 -18.328125 8.640625 -18.328125 L 11.328125 -18.328125 C 11.628906 -18.328125 11.78125 -18.1875 11.78125 -17.90625 L 11.78125 -0.421875 C 11.78125 -0.140625 11.628906 0 11.328125 0 L 8.640625 0 C 8.359375 0 8.21875 -0.140625 8.21875 -0.421875 L 8.21875 -7.375 L 4.875 -7.375 L 4.875 -0.421875 C 4.875 -0.140625 4.734375 0 4.453125 0 L 1.75 0 C 1.457031 0 1.3125 -0.140625 1.3125 -0.421875 L 1.3125 -17.90625 C 1.3125 -18.1875 1.457031 -18.328125 1.75 -18.328125 L 4.453125 -18.328125 C 4.734375 -18.328125 4.875 -18.1875 4.875 -17.90625 L 4.875 -10.828125 Z M 8.21875 -10.828125 "/></g></g></g></svg>