<svg xmlns="http://www.w3.org/2000/svg" xmlns:xlink="http://www.w3.org/1999/xlink" width="192" zoomAndPan="magnify" viewBox="0 0 144 143.999998" height="192" preserveAspectRatio="xMidYMid meet" version="1.2"><defs><clipPath id="0af276281b"><path d="M 9 0 L 135 0 L 135 144 L 9 144 Z M 9 0 "/></clipPath><clipPath id="b7e14b2b5c"><path d="M -21.457031 54.867188 L 103.039062 -17.847656 L 165.503906 89.105469 L 41.007812 161.816406 Z M -21.457031 54.867188 "/></clipPath><clipPath id="1aaa6b4511"><path d="M 134.226562 35.65625 L 134.347656 107.300781 L 72.121094 143.644531 L 9.773438 108.34375 L 9.65625 36.695312 L 71.878906 0.351562 Z M 134.226562 35.65625 "/></clipPath><clipPath id="7c51ac6ac5"><path d="M 21.210938 13.683594 L 122.773438 13.683594 L 122.773438 130.261719 L 21.210938 130.261719 Z M 21.210938 13.683594 "/></clipPath></defs><g id="0adf5e8ed1"><g clip-rule="nonzero" clip-path="url(#0af276281b)"><g clip-rule="nonzero" clip-path="url(#b7e14b2b5c)"><g clip-rule="nonzero" clip-path="url(#1aaa6b4511)"><path style=" stroke:none;fill-rule:nonzero;fill:#65b30e;fill-opacity:1;" d="M -21.457031 54.867188 L 103.039062 -17.847656 L 165.503906 89.105469 L 41.007812 161.816406 Z M -21.457031 54.867188 "/></g></g></g><path style=" stroke:none;fill-rule:nonzero;fill:#87ff00;fill-opacity:1;" d="M 51.679688 52.109375 L 51.613281 52.046875 L 37.261719 66.398438 L 72.113281 101.183594 L 86.46875 86.898438 L 106.960938 66.398438 L 92.609375 52.046875 L 92.609375 51.980469 L 51.617188 51.980469 Z M 51.679688 52.109375 "/><g clip-rule="nonzero" clip-path="url(#7c51ac6ac5)"><path style=" stroke:none;fill-rule:nonzero;fill:#87ff00;fill-opacity:1;" d="M 71.980469 13.765625 L 21.222656 42.863281 L 21.226562 101.058594 L 71.984375 130.15625 L 122.742188 101.058594 L 122.742188 42.863281 L 71.984375 13.769531 Z M 113.039062 95.496094 L 71.980469 119.160156 L 30.921875 95.496094 L 30.925781 48.292969 L 71.984375 24.628906 L 113.042969 48.292969 L 113.042969 95.492188 Z M 113.039062 95.496094 "/></g><g style="fill:#b21a22;fill-opacity:1;"><g transform="translate(14.965721, 63.04921)"><path style="stroke:none" d="M 14.160156 -16.359375 L 14.160156 -10.445312 C 14.160156 -8.398438 13.46875 -6.941406 12.082031 -6.078125 L 11.59375 -6.855469 L 12.488281 -7.074219 L 14.019531 -0.746094 L 13.125 -0.53125 L 14.011719 -0.777344 C 14.140625 -0.300781 14.078125 0.101562 13.820312 0.433594 C 13.566406 0.757812 13.199219 0.917969 12.710938 0.917969 L 9.828125 0.917969 C 9.472656 0.917969 9.164062 0.816406 8.914062 0.605469 C 8.664062 0.402344 8.503906 0.128906 8.429688 -0.21875 L 9.328125 -0.410156 L 8.433594 -0.195312 L 7.023438 -5.992188 L 7.914062 -6.207031 L 7.914062 -5.289062 L 5.296875 -5.289062 L 5.296875 -6.207031 L 6.214844 -6.207031 L 6.214844 -0.472656 C 6.214844 -0.0585938 6.085938 0.273438 5.828125 0.53125 C 5.570312 0.789062 5.238281 0.917969 4.824219 0.917969 L 1.941406 0.917969 C 1.53125 0.917969 1.195312 0.789062 0.9375 0.53125 C 0.679688 0.273438 0.550781 -0.0585938 0.550781 -0.472656 L 0.550781 -20.128906 C 0.550781 -20.539062 0.679688 -20.871094 0.9375 -21.128906 C 1.195312 -21.386719 1.53125 -21.519531 1.941406 -21.519531 L 9.003906 -21.519531 C 10.652344 -21.519531 11.921875 -21.070312 12.816406 -20.175781 C 13.714844 -19.277344 14.160156 -18.007812 14.160156 -16.359375 Z M 12.320312 -16.359375 C 12.320312 -17.5 12.054688 -18.335938 11.515625 -18.875 C 10.980469 -19.410156 10.144531 -19.679688 9.003906 -19.679688 L 1.941406 -19.679688 C 1.964844 -19.679688 1.992188 -19.683594 2.027344 -19.695312 C 2.105469 -19.722656 2.175781 -19.765625 2.238281 -19.828125 C 2.300781 -19.894531 2.347656 -19.964844 2.375 -20.042969 C 2.386719 -20.078125 2.390625 -20.105469 2.390625 -20.128906 L 2.390625 -0.472656 C 2.390625 -0.492188 2.386719 -0.519531 2.375 -0.554688 C 2.347656 -0.632812 2.300781 -0.703125 2.238281 -0.769531 C 2.175781 -0.832031 2.105469 -0.875 2.027344 -0.902344 C 1.992188 -0.914062 1.964844 -0.917969 1.941406 -0.917969 L 4.824219 -0.917969 C 4.804688 -0.917969 4.777344 -0.914062 4.742188 -0.902344 C 4.664062 -0.875 4.589844 -0.832031 4.527344 -0.769531 C 4.464844 -0.703125 4.421875 -0.632812 4.394531 -0.554688 C 4.382812 -0.519531 4.378906 -0.492188 4.378906 -0.472656 L 4.378906 -7.128906 L 8.636719 -7.128906 L 10.222656 -0.617188 L 10.226562 -0.605469 C 10.210938 -0.675781 10.164062 -0.746094 10.082031 -0.8125 C 9.996094 -0.882812 9.910156 -0.917969 9.828125 -0.917969 L 12.710938 -0.917969 C 12.691406 -0.917969 12.671875 -0.910156 12.648438 -0.902344 C 12.539062 -0.863281 12.445312 -0.796875 12.367188 -0.695312 C 12.289062 -0.59375 12.246094 -0.484375 12.234375 -0.367188 C 12.234375 -0.324219 12.234375 -0.296875 12.238281 -0.285156 L 12.234375 -0.296875 L 10.542969 -7.285156 L 11.105469 -7.636719 C 11.917969 -8.140625 12.320312 -9.078125 12.320312 -10.445312 Z M 5.296875 -10.925781 L 8.238281 -10.925781 C 8.335938 -10.925781 8.410156 -10.933594 8.464844 -10.949219 C 8.472656 -10.953125 8.480469 -10.957031 8.484375 -10.957031 C 8.480469 -10.957031 8.476562 -10.953125 8.472656 -10.949219 C 8.46875 -10.945312 8.464844 -10.941406 8.460938 -10.9375 C 8.464844 -10.941406 8.46875 -10.949219 8.46875 -10.957031 C 8.488281 -11.011719 8.496094 -11.085938 8.496094 -11.183594 L 8.496094 -15.625 C 8.496094 -15.722656 8.488281 -15.796875 8.46875 -15.847656 C 8.46875 -15.859375 8.464844 -15.867188 8.460938 -15.871094 C 8.464844 -15.867188 8.46875 -15.863281 8.472656 -15.859375 C 8.476562 -15.851562 8.480469 -15.851562 8.484375 -15.847656 C 8.480469 -15.851562 8.472656 -15.851562 8.464844 -15.855469 C 8.410156 -15.875 8.335938 -15.882812 8.238281 -15.882812 L 5.296875 -15.882812 L 5.296875 -16.800781 L 6.214844 -16.800781 L 6.214844 -10.003906 L 5.296875 -10.003906 Z M 4.378906 -9.085938 L 4.378906 -17.722656 L 8.238281 -17.722656 C 8.886719 -17.722656 9.398438 -17.535156 9.773438 -17.15625 C 10.148438 -16.78125 10.335938 -16.269531 10.335938 -15.625 L 10.335938 -11.183594 C 10.335938 -10.535156 10.148438 -10.023438 9.773438 -9.648438 C 9.398438 -9.273438 8.886719 -9.085938 8.238281 -9.085938 Z M 4.378906 -9.085938 "/></g></g><g style="fill:#b21a22;fill-opacity:1;"><g transform="translate(29.673921, 63.04921)"><path style="stroke:none" d="M 14.132812 -20.128906 L 14.132812 -17.183594 C 14.132812 -16.773438 14.007812 -16.441406 13.765625 -16.179688 C 13.503906 -15.902344 13.164062 -15.765625 12.742188 -15.765625 L 5.472656 -15.765625 L 5.472656 -16.683594 L 6.394531 -16.683594 L 6.394531 -12.152344 L 5.472656 -12.152344 L 5.472656 -13.074219 L 11.003906 -13.074219 C 11.425781 -13.074219 11.769531 -12.933594 12.027344 -12.65625 C 12.273438 -12.398438 12.394531 -12.0625 12.394531 -11.652344 L 12.394531 -8.738281 C 12.394531 -8.328125 12.273438 -7.996094 12.027344 -7.734375 C 11.769531 -7.457031 11.425781 -7.320312 11.003906 -7.320312 L 5.472656 -7.320312 L 5.472656 -8.238281 L 6.394531 -8.238281 L 6.394531 -3.882812 L 5.472656 -3.882812 L 5.472656 -4.804688 L 12.742188 -4.804688 C 13.152344 -4.804688 13.488281 -4.675781 13.746094 -4.417969 C 14.003906 -4.160156 14.132812 -3.824219 14.132812 -3.414062 L 14.132812 -0.472656 C 14.132812 -0.0585938 14.003906 0.273438 13.746094 0.53125 C 13.488281 0.789062 13.152344 0.917969 12.742188 0.917969 L 1.914062 0.917969 C 1.5 0.917969 1.164062 0.785156 0.910156 0.511719 C 0.671875 0.257812 0.550781 -0.0703125 0.550781 -0.472656 L 0.550781 -20.128906 C 0.550781 -20.527344 0.671875 -20.855469 0.910156 -21.109375 C 1.164062 -21.382812 1.5 -21.519531 1.914062 -21.519531 L 12.742188 -21.519531 C 13.152344 -21.519531 13.488281 -21.386719 13.746094 -21.128906 C 14.003906 -20.871094 14.132812 -20.539062 14.132812 -20.128906 Z M 12.292969 -20.128906 C 12.292969 -20.105469 12.296875 -20.078125 12.308594 -20.042969 C 12.335938 -19.964844 12.382812 -19.894531 12.445312 -19.828125 C 12.507812 -19.765625 12.578125 -19.722656 12.65625 -19.695312 C 12.691406 -19.683594 12.71875 -19.679688 12.742188 -19.679688 L 1.914062 -19.679688 C 2.03125 -19.679688 2.144531 -19.734375 2.253906 -19.851562 C 2.3125 -19.914062 2.351562 -19.984375 2.375 -20.058594 C 2.386719 -20.089844 2.390625 -20.113281 2.390625 -20.128906 L 2.390625 -0.472656 C 2.390625 -0.484375 2.386719 -0.507812 2.375 -0.539062 C 2.351562 -0.613281 2.3125 -0.683594 2.253906 -0.746094 C 2.144531 -0.863281 2.03125 -0.917969 1.914062 -0.917969 L 12.742188 -0.917969 C 12.71875 -0.917969 12.691406 -0.914062 12.65625 -0.902344 C 12.578125 -0.875 12.507812 -0.832031 12.445312 -0.769531 C 12.382812 -0.703125 12.335938 -0.632812 12.308594 -0.554688 C 12.296875 -0.519531 12.292969 -0.492188 12.292969 -0.472656 L 12.292969 -3.414062 C 12.292969 -3.390625 12.296875 -3.363281 12.308594 -3.328125 C 12.335938 -3.25 12.382812 -3.179688 12.445312 -3.117188 C 12.507812 -3.054688 12.578125 -3.007812 12.65625 -2.980469 C 12.691406 -2.96875 12.71875 -2.964844 12.742188 -2.964844 L 4.554688 -2.964844 L 4.554688 -9.160156 L 11.003906 -9.160156 C 10.976562 -9.160156 10.945312 -9.152344 10.902344 -9.136719 C 10.824219 -9.109375 10.75 -9.0625 10.6875 -8.996094 C 10.632812 -8.933594 10.589844 -8.867188 10.570312 -8.796875 C 10.5625 -8.769531 10.554688 -8.75 10.554688 -8.738281 L 10.554688 -11.652344 C 10.554688 -11.640625 10.5625 -11.625 10.570312 -11.597656 C 10.589844 -11.523438 10.632812 -11.457031 10.6875 -11.398438 C 10.75 -11.332031 10.824219 -11.285156 10.902344 -11.253906 C 10.945312 -11.242188 10.976562 -11.234375 11.003906 -11.234375 L 4.554688 -11.234375 L 4.554688 -17.605469 L 12.742188 -17.605469 C 12.714844 -17.605469 12.679688 -17.597656 12.640625 -17.582031 C 12.558594 -17.554688 12.488281 -17.507812 12.425781 -17.441406 C 12.367188 -17.378906 12.328125 -17.3125 12.304688 -17.242188 C 12.296875 -17.214844 12.292969 -17.195312 12.292969 -17.183594 Z M 12.292969 -20.128906 "/></g></g><g style="fill:#b21a22;fill-opacity:1;"><g transform="translate(44.352701, 63.04921)"><path style="stroke:none" d="M 14.160156 -16.359375 L 14.160156 -4.238281 C 14.160156 -3.160156 13.96875 -2.238281 13.582031 -1.480469 C 13.175781 -0.675781 12.5625 -0.0664062 11.746094 0.347656 L 11.328125 -0.472656 L 12.164062 -0.859375 L 13.339844 1.671875 L 12.507812 2.058594 L 13.328125 1.648438 C 13.445312 1.878906 13.492188 2.109375 13.472656 2.34375 C 13.453125 2.632812 13.335938 2.882812 13.125 3.09375 C 12.847656 3.371094 12.503906 3.507812 12.09375 3.507812 L 9.035156 3.507812 C 8.617188 3.507812 8.285156 3.363281 8.03125 3.078125 C 7.914062 2.941406 7.804688 2.777344 7.710938 2.589844 L 7.703125 2.574219 L 6.699219 0.382812 L 7.53125 0 L 7.53125 0.917969 L 5.707031 0.917969 C 4.082031 0.917969 2.816406 0.46875 1.910156 -0.4375 C 1.003906 -1.34375 0.550781 -2.609375 0.550781 -4.238281 L 0.550781 -16.359375 C 0.550781 -18.011719 1.003906 -19.28125 1.914062 -20.179688 C 2.820312 -21.070312 4.082031 -21.519531 5.707031 -21.519531 L 9.003906 -21.519531 C 10.652344 -21.519531 11.921875 -21.070312 12.816406 -20.175781 C 13.714844 -19.277344 14.160156 -18.007812 14.160156 -16.359375 Z M 12.320312 -16.359375 C 12.320312 -17.5 12.054688 -18.335938 11.515625 -18.875 C 10.980469 -19.410156 10.144531 -19.679688 9.003906 -19.679688 L 5.707031 -19.679688 C 4.585938 -19.679688 3.753906 -19.410156 3.207031 -18.871094 C 2.664062 -18.332031 2.390625 -17.496094 2.390625 -16.359375 L 2.390625 -4.238281 C 2.390625 -3.117188 2.664062 -2.285156 3.210938 -1.738281 C 3.757812 -1.191406 4.589844 -0.917969 5.707031 -0.917969 L 8.121094 -0.917969 L 9.367188 1.792969 L 8.535156 2.175781 L 9.355469 1.765625 C 9.378906 1.8125 9.398438 1.847656 9.417969 1.867188 C 9.300781 1.734375 9.175781 1.667969 9.035156 1.667969 L 12.09375 1.667969 C 11.996094 1.667969 11.90625 1.710938 11.828125 1.792969 C 11.714844 1.902344 11.652344 2.039062 11.640625 2.203125 C 11.632812 2.308594 11.648438 2.398438 11.683594 2.472656 L 11.675781 2.460938 L 10.121094 -0.886719 L 10.914062 -1.289062 C 11.371094 -1.523438 11.714844 -1.863281 11.945312 -2.3125 C 12.195312 -2.8125 12.320312 -3.453125 12.320312 -4.238281 Z M 6.214844 -15.625 L 6.214844 -4.972656 C 6.214844 -4.875 6.226562 -4.800781 6.242188 -4.75 C 6.246094 -4.738281 6.25 -4.734375 6.25 -4.730469 C 6.25 -4.730469 6.246094 -4.734375 6.242188 -4.742188 C 6.238281 -4.746094 6.234375 -4.746094 6.230469 -4.75 C 6.234375 -4.746094 6.238281 -4.746094 6.25 -4.742188 C 6.300781 -4.722656 6.378906 -4.714844 6.472656 -4.714844 L 8.355469 -4.714844 C 8.453125 -4.714844 8.527344 -4.722656 8.582031 -4.742188 C 8.589844 -4.746094 8.597656 -4.746094 8.601562 -4.75 C 8.597656 -4.746094 8.59375 -4.746094 8.589844 -4.742188 C 8.585938 -4.734375 8.582031 -4.730469 8.578125 -4.730469 C 8.582031 -4.734375 8.585938 -4.738281 8.589844 -4.75 C 8.605469 -4.800781 8.613281 -4.875 8.613281 -4.972656 L 8.613281 -15.625 C 8.613281 -15.722656 8.605469 -15.796875 8.589844 -15.847656 C 8.585938 -15.859375 8.582031 -15.867188 8.578125 -15.871094 C 8.582031 -15.867188 8.585938 -15.863281 8.589844 -15.859375 C 8.59375 -15.851562 8.597656 -15.851562 8.601562 -15.847656 C 8.597656 -15.851562 8.589844 -15.851562 8.582031 -15.855469 C 8.527344 -15.875 8.453125 -15.882812 8.355469 -15.882812 L 6.472656 -15.882812 C 6.378906 -15.882812 6.300781 -15.875 6.25 -15.855469 C 6.238281 -15.851562 6.234375 -15.851562 6.230469 -15.847656 C 6.234375 -15.851562 6.238281 -15.851562 6.242188 -15.859375 C 6.246094 -15.863281 6.25 -15.867188 6.25 -15.871094 C 6.25 -15.867188 6.246094 -15.859375 6.242188 -15.847656 C 6.226562 -15.796875 6.214844 -15.722656 6.214844 -15.625 Z M 4.378906 -15.625 C 4.378906 -16.269531 4.566406 -16.78125 4.941406 -17.15625 C 5.316406 -17.535156 5.828125 -17.722656 6.472656 -17.722656 L 8.355469 -17.722656 C 9.003906 -17.722656 9.515625 -17.535156 9.890625 -17.15625 C 10.265625 -16.78125 10.453125 -16.269531 10.453125 -15.625 L 10.453125 -4.972656 C 10.453125 -4.328125 10.265625 -3.816406 9.890625 -3.441406 C 9.515625 -3.0625 9.003906 -2.875 8.355469 -2.875 L 6.472656 -2.875 C 5.828125 -2.875 5.316406 -3.0625 4.941406 -3.441406 C 4.566406 -3.816406 4.378906 -4.328125 4.378906 -4.972656 Z M 4.378906 -15.625 "/></g></g><g style="fill:#b21a22;fill-opacity:1;"><g transform="translate(59.060901, 63.04921)"><path style="stroke:none" d="M 9.945312 -21.519531 L 12.652344 -21.519531 C 13.0625 -21.519531 13.417969 -21.367188 13.714844 -21.070312 C 14.011719 -20.773438 14.160156 -20.421875 14.160156 -20.007812 L 14.160156 -4.238281 C 14.160156 -2.613281 13.714844 -1.347656 12.820312 -0.441406 C 11.925781 0.464844 10.652344 0.917969 9.003906 0.917969 L 5.707031 0.917969 C 4.082031 0.917969 2.816406 0.46875 1.910156 -0.4375 C 1.003906 -1.34375 0.550781 -2.609375 0.550781 -4.238281 L 0.550781 -20.007812 C 0.550781 -20.421875 0.699219 -20.773438 0.996094 -21.070312 C 1.292969 -21.367188 1.648438 -21.519531 2.058594 -21.519531 L 4.882812 -21.519531 C 5.296875 -21.519531 5.648438 -21.367188 5.945312 -21.070312 C 6.246094 -20.773438 6.394531 -20.421875 6.394531 -20.007812 L 6.394531 -5.0625 C 6.394531 -4.964844 6.402344 -4.890625 6.417969 -4.835938 C 6.421875 -4.828125 6.425781 -4.820312 6.425781 -4.816406 C 6.425781 -4.820312 6.421875 -4.824219 6.417969 -4.828125 C 6.414062 -4.832031 6.410156 -4.835938 6.40625 -4.839844 C 6.410156 -4.835938 6.417969 -4.832031 6.425781 -4.832031 C 6.480469 -4.8125 6.554688 -4.804688 6.648438 -4.804688 L 8.179688 -4.804688 C 8.277344 -4.804688 8.351562 -4.8125 8.40625 -4.832031 C 8.414062 -4.832031 8.421875 -4.835938 8.425781 -4.839844 C 8.421875 -4.835938 8.417969 -4.832031 8.414062 -4.828125 C 8.410156 -4.824219 8.40625 -4.820312 8.402344 -4.816406 C 8.40625 -4.820312 8.40625 -4.828125 8.410156 -4.835938 C 8.429688 -4.890625 8.4375 -4.964844 8.4375 -5.0625 L 8.4375 -20.007812 C 8.4375 -20.421875 8.585938 -20.773438 8.882812 -21.070312 C 9.179688 -21.367188 9.535156 -21.519531 9.945312 -21.519531 Z M 9.945312 -19.679688 C 10.042969 -19.679688 10.121094 -19.710938 10.183594 -19.769531 C 10.246094 -19.832031 10.277344 -19.914062 10.277344 -20.007812 L 10.277344 -5.0625 C 10.277344 -4.414062 10.089844 -3.902344 9.714844 -3.527344 C 9.335938 -3.152344 8.828125 -2.964844 8.179688 -2.964844 L 6.648438 -2.964844 C 6.003906 -2.964844 5.492188 -3.152344 5.117188 -3.527344 C 4.742188 -3.902344 4.554688 -4.414062 4.554688 -5.0625 L 4.554688 -20.007812 C 4.554688 -19.914062 4.585938 -19.832031 4.644531 -19.769531 C 4.707031 -19.710938 4.789062 -19.679688 4.882812 -19.679688 L 2.058594 -19.679688 C 2.15625 -19.679688 2.234375 -19.710938 2.296875 -19.769531 C 2.359375 -19.832031 2.390625 -19.914062 2.390625 -20.007812 L 2.390625 -4.238281 C 2.390625 -3.117188 2.664062 -2.285156 3.210938 -1.738281 C 3.757812 -1.191406 4.589844 -0.917969 5.707031 -0.917969 L 9.003906 -0.917969 C 10.140625 -0.917969 10.976562 -1.191406 11.511719 -1.734375 C 12.050781 -2.28125 12.320312 -3.117188 12.320312 -4.238281 L 12.320312 -20.007812 C 12.320312 -19.914062 12.351562 -19.832031 12.414062 -19.769531 C 12.476562 -19.710938 12.554688 -19.679688 12.652344 -19.679688 Z M 9.945312 -19.679688 "/></g></g><g style="fill:#b21a22;fill-opacity:1;"><g transform="translate(73.769102, 63.04921)"><path style="stroke:none" d="M 1.941406 -0.917969 L 5.003906 -0.917969 C 4.980469 -0.917969 4.953125 -0.914062 4.917969 -0.902344 C 4.839844 -0.875 4.769531 -0.832031 4.707031 -0.769531 C 4.640625 -0.703125 4.597656 -0.632812 4.570312 -0.554688 C 4.558594 -0.519531 4.554688 -0.492188 4.554688 -0.472656 L 4.554688 -20.128906 C 4.554688 -20.105469 4.558594 -20.078125 4.570312 -20.042969 C 4.597656 -19.964844 4.640625 -19.894531 4.707031 -19.828125 C 4.769531 -19.765625 4.839844 -19.722656 4.917969 -19.695312 C 4.953125 -19.683594 4.980469 -19.679688 5.003906 -19.679688 L 1.941406 -19.679688 C 1.964844 -19.679688 1.992188 -19.683594 2.027344 -19.695312 C 2.105469 -19.722656 2.175781 -19.765625 2.238281 -19.828125 C 2.300781 -19.894531 2.347656 -19.964844 2.375 -20.042969 C 2.386719 -20.078125 2.390625 -20.105469 2.390625 -20.128906 L 2.390625 -0.472656 C 2.390625 -0.492188 2.386719 -0.519531 2.375 -0.554688 C 2.347656 -0.632812 2.300781 -0.703125 2.238281 -0.769531 C 2.175781 -0.832031 2.105469 -0.875 2.027344 -0.902344 C 1.992188 -0.914062 1.964844 -0.917969 1.941406 -0.917969 Z M 1.941406 0.917969 C 1.53125 0.917969 1.195312 0.789062 0.9375 0.53125 C 0.679688 0.273438 0.550781 -0.0585938 0.550781 -0.472656 L 0.550781 -20.128906 C 0.550781 -20.539062 0.679688 -20.871094 0.9375 -21.128906 C 1.195312 -21.386719 1.53125 -21.519531 1.941406 -21.519531 L 5.003906 -21.519531 C 5.414062 -21.519531 5.746094 -21.386719 6.003906 -21.128906 C 6.265625 -20.871094 6.394531 -20.539062 6.394531 -20.128906 L 6.394531 -0.472656 C 6.394531 -0.0585938 6.265625 0.273438 6.003906 0.53125 C 5.746094 0.789062 5.414062 0.917969 5.003906 0.917969 Z M 1.941406 0.917969 "/></g></g><g style="fill:#b21a22;fill-opacity:1;"><g transform="translate(80.711368, 63.04921)"><path style="stroke:none" d="M 14.160156 -16.359375 L 14.160156 -10.445312 C 14.160156 -8.398438 13.46875 -6.941406 12.082031 -6.078125 L 11.59375 -6.855469 L 12.488281 -7.074219 L 14.019531 -0.746094 L 13.125 -0.53125 L 14.011719 -0.777344 C 14.140625 -0.300781 14.078125 0.101562 13.820312 0.433594 C 13.566406 0.757812 13.199219 0.917969 12.710938 0.917969 L 9.828125 0.917969 C 9.472656 0.917969 9.164062 0.816406 8.914062 0.605469 C 8.664062 0.402344 8.503906 0.128906 8.429688 -0.21875 L 9.328125 -0.410156 L 8.433594 -0.195312 L 7.023438 -5.992188 L 7.914062 -6.207031 L 7.914062 -5.289062 L 5.296875 -5.289062 L 5.296875 -6.207031 L 6.214844 -6.207031 L 6.214844 -0.472656 C 6.214844 -0.0585938 6.085938 0.273438 5.828125 0.53125 C 5.570312 0.789062 5.238281 0.917969 4.824219 0.917969 L 1.941406 0.917969 C 1.53125 0.917969 1.195312 0.789062 0.9375 0.53125 C 0.679688 0.273438 0.550781 -0.0585938 0.550781 -0.472656 L 0.550781 -20.128906 C 0.550781 -20.539062 0.679688 -20.871094 0.9375 -21.128906 C 1.195312 -21.386719 1.53125 -21.519531 1.941406 -21.519531 L 9.003906 -21.519531 C 10.652344 -21.519531 11.921875 -21.070312 12.816406 -20.175781 C 13.714844 -19.277344 14.160156 -18.007812 14.160156 -16.359375 Z M 12.320312 -16.359375 C 12.320312 -17.5 12.054688 -18.335938 11.515625 -18.875 C 10.980469 -19.410156 10.144531 -19.679688 9.003906 -19.679688 L 1.941406 -19.679688 C 1.964844 -19.679688 1.992188 -19.683594 2.027344 -19.695312 C 2.105469 -19.722656 2.175781 -19.765625 2.238281 -19.828125 C 2.300781 -19.894531 2.347656 -19.964844 2.375 -20.042969 C 2.386719 -20.078125 2.390625 -20.105469 2.390625 -20.128906 L 2.390625 -0.472656 C 2.390625 -0.492188 2.386719 -0.519531 2.375 -0.554688 C 2.347656 -0.632812 2.300781 -0.703125 2.238281 -0.769531 C 2.175781 -0.832031 2.105469 -0.875 2.027344 -0.902344 C 1.992188 -0.914062 1.964844 -0.917969 1.941406 -0.917969 L 4.824219 -0.917969 C 4.804688 -0.917969 4.777344 -0.914062 4.742188 -0.902344 C 4.664062 -0.875 4.589844 -0.832031 4.527344 -0.769531 C 4.464844 -0.703125 4.421875 -0.632812 4.394531 -0.554688 C 4.382812 -0.519531 4.378906 -0.492188 4.378906 -0.472656 L 4.378906 -7.128906 L 8.636719 -7.128906 L 10.222656 -0.617188 L 10.226562 -0.605469 C 10.210938 -0.675781 10.164062 -0.746094 10.082031 -0.8125 C 9.996094 -0.882812 9.910156 -0.917969 9.828125 -0.917969 L 12.710938 -0.917969 C 12.691406 -0.917969 12.671875 -0.910156 12.648438 -0.902344 C 12.539062 -0.863281 12.445312 -0.796875 12.367188 -0.695312 C 12.289062 -0.59375 12.246094 -0.484375 12.234375 -0.367188 C 12.234375 -0.324219 12.234375 -0.296875 12.238281 -0.285156 L 12.234375 -0.296875 L 10.542969 -7.285156 L 11.105469 -7.636719 C 11.917969 -8.140625 12.320312 -9.078125 12.320312 -10.445312 Z M 5.296875 -10.925781 L 8.238281 -10.925781 C 8.335938 -10.925781 8.410156 -10.933594 8.464844 -10.949219 C 8.472656 -10.953125 8.480469 -10.957031 8.484375 -10.957031 C 8.480469 -10.957031 8.476562 -10.953125 8.472656 -10.949219 C 8.46875 -10.945312 8.464844 -10.941406 8.460938 -10.9375 C 8.464844 -10.941406 8.46875 -10.949219 8.46875 -10.957031 C 8.488281 -11.011719 8.496094 -11.085938 8.496094 -11.183594 L 8.496094 -15.625 C 8.496094 -15.722656 8.488281 -15.796875 8.46875 -15.847656 C 8.46875 -15.859375 8.464844 -15.867188 8.460938 -15.871094 C 8.464844 -15.867188 8.46875 -15.863281 8.472656 -15.859375 C 8.476562 -15.851562 8.480469 -15.851562 8.484375 -15.847656 C 8.480469 -15.851562 8.472656 -15.851562 8.464844 -15.855469 C 8.410156 -15.875 8.335938 -15.882812 8.238281 -15.882812 L 5.296875 -15.882812 L 5.296875 -16.800781 L 6.214844 -16.800781 L 6.214844 -10.003906 L 5.296875 -10.003906 Z M 4.378906 -9.085938 L 4.378906 -17.722656 L 8.238281 -17.722656 C 8.886719 -17.722656 9.398438 -17.535156 9.773438 -17.15625 C 10.148438 -16.78125 10.335938 -16.269531 10.335938 -15.625 L 10.335938 -11.183594 C 10.335938 -10.535156 10.148438 -10.023438 9.773438 -9.648438 C 9.398438 -9.273438 8.886719 -9.085938 8.238281 -9.085938 Z M 4.378906 -9.085938 "/></g></g><g style="fill:#b21a22;fill-opacity:1;"><g transform="translate(95.419569, 63.04921)"><path style="stroke:none" d="M 14.132812 -20.128906 L 14.132812 -17.183594 C 14.132812 -16.773438 14.007812 -16.441406 13.765625 -16.179688 C 13.503906 -15.902344 13.164062 -15.765625 12.742188 -15.765625 L 5.472656 -15.765625 L 5.472656 -16.683594 L 6.394531 -16.683594 L 6.394531 -12.152344 L 5.472656 -12.152344 L 5.472656 -13.074219 L 11.003906 -13.074219 C 11.425781 -13.074219 11.769531 -12.933594 12.027344 -12.65625 C 12.273438 -12.398438 12.394531 -12.0625 12.394531 -11.652344 L 12.394531 -8.738281 C 12.394531 -8.328125 12.273438 -7.996094 12.027344 -7.734375 C 11.769531 -7.457031 11.425781 -7.320312 11.003906 -7.320312 L 5.472656 -7.320312 L 5.472656 -8.238281 L 6.394531 -8.238281 L 6.394531 -3.882812 L 5.472656 -3.882812 L 5.472656 -4.804688 L 12.742188 -4.804688 C 13.152344 -4.804688 13.488281 -4.675781 13.746094 -4.417969 C 14.003906 -4.160156 14.132812 -3.824219 14.132812 -3.414062 L 14.132812 -0.472656 C 14.132812 -0.0585938 14.003906 0.273438 13.746094 0.53125 C 13.488281 0.789062 13.152344 0.917969 12.742188 0.917969 L 1.914062 0.917969 C 1.5 0.917969 1.164062 0.785156 0.910156 0.511719 C 0.671875 0.257812 0.550781 -0.0703125 0.550781 -0.472656 L 0.550781 -20.128906 C 0.550781 -20.527344 0.671875 -20.855469 0.910156 -21.109375 C 1.164062 -21.382812 1.5 -21.519531 1.914062 -21.519531 L 12.742188 -21.519531 C 13.152344 -21.519531 13.488281 -21.386719 13.746094 -21.128906 C 14.003906 -20.871094 14.132812 -20.539062 14.132812 -20.128906 Z M 12.292969 -20.128906 C 12.292969 -20.105469 12.296875 -20.078125 12.308594 -20.042969 C 12.335938 -19.964844 12.382812 -19.894531 12.445312 -19.828125 C 12.507812 -19.765625 12.578125 -19.722656 12.65625 -19.695312 C 12.691406 -19.683594 12.71875 -19.679688 12.742188 -19.679688 L 1.914062 -19.679688 C 2.03125 -19.679688 2.144531 -19.734375 2.253906 -19.851562 C 2.3125 -19.914062 2.351562 -19.984375 2.375 -20.058594 C 2.386719 -20.089844 2.390625 -20.113281 2.390625 -20.128906 L 2.390625 -0.472656 C 2.390625 -0.484375 2.386719 -0.507812 2.375 -0.539062 C 2.351562 -0.613281 2.3125 -0.683594 2.253906 -0.746094 C 2.144531 -0.863281 2.03125 -0.917969 1.914062 -0.917969 L 12.742188 -0.917969 C 12.71875 -0.917969 12.691406 -0.914062 12.65625 -0.902344 C 12.578125 -0.875 12.507812 -0.832031 12.445312 -0.769531 C 12.382812 -0.703125 12.335938 -0.632812 12.308594 -0.554688 C 12.296875 -0.519531 12.292969 -0.492188 12.292969 -0.472656 L 12.292969 -3.414062 C 12.292969 -3.390625 12.296875 -3.363281 12.308594 -3.328125 C 12.335938 -3.25 12.382812 -3.179688 12.445312 -3.117188 C 12.507812 -3.054688 12.578125 -3.007812 12.65625 -2.980469 C 12.691406 -2.96875 12.71875 -2.964844 12.742188 -2.964844 L 4.554688 -2.964844 L 4.554688 -9.160156 L 11.003906 -9.160156 C 10.976562 -9.160156 10.945312 -9.152344 10.902344 -9.136719 C 10.824219 -9.109375 10.75 -9.0625 10.6875 -8.996094 C 10.632812 -8.933594 10.589844 -8.867188 10.570312 -8.796875 C 10.5625 -8.769531 10.554688 -8.75 10.554688 -8.738281 L 10.554688 -11.652344 C 10.554688 -11.640625 10.5625 -11.625 10.570312 -11.597656 C 10.589844 -11.523438 10.632812 -11.457031 10.6875 -11.398438 C 10.75 -11.332031 10.824219 -11.285156 10.902344 -11.253906 C 10.945312 -11.242188 10.976562 -11.234375 11.003906 -11.234375 L 4.554688 -11.234375 L 4.554688 -17.605469 L 12.742188 -17.605469 C 12.714844 -17.605469 12.679688 -17.597656 12.640625 -17.582031 C 12.558594 -17.554688 12.488281 -17.507812 12.425781 -17.441406 C 12.367188 -17.378906 12.328125 -17.3125 12.304688 -17.242188 C 12.296875 -17.214844 12.292969 -17.195312 12.292969 -17.183594 Z M 12.292969 -20.128906 "/></g></g><g style="fill:#b21a22;fill-opacity:1;"><g transform="translate(110.098348, 63.04921)"><path style="stroke:none" d="M -0.917969 3.941406 L -0.917969 1.234375 C -0.917969 0.785156 -0.78125 0.421875 -0.503906 0.144531 C -0.226562 -0.132812 0.136719 -0.273438 0.589844 -0.273438 L 18.332031 -0.273438 C 18.78125 -0.273438 19.144531 -0.132812 19.425781 0.144531 C 19.703125 0.421875 19.839844 0.785156 19.839844 1.234375 L 19.839844 3.941406 C 19.839844 4.394531 19.703125 4.757812 19.425781 5.035156 C 19.144531 5.3125 18.78125 5.453125 18.332031 5.453125 L 0.589844 5.453125 C 0.136719 5.453125 -0.226562 5.3125 -0.503906 5.035156 C -0.78125 4.757812 -0.917969 4.394531 -0.917969 3.941406 Z M 0.917969 3.941406 C 0.917969 3.945312 0.917969 3.949219 0.917969 3.953125 C 0.917969 3.953125 0.917969 3.953125 0.917969 3.949219 C 0.917969 3.9375 0.914062 3.925781 0.910156 3.910156 C 0.886719 3.847656 0.851562 3.789062 0.796875 3.734375 C 0.742188 3.679688 0.6875 3.644531 0.621094 3.621094 C 0.605469 3.617188 0.59375 3.613281 0.582031 3.613281 C 0.578125 3.613281 0.578125 3.613281 0.578125 3.613281 C 0.582031 3.613281 0.585938 3.613281 0.589844 3.613281 L 18.332031 3.613281 C 18.335938 3.613281 18.339844 3.613281 18.34375 3.613281 C 18.34375 3.613281 18.339844 3.613281 18.339844 3.613281 C 18.328125 3.613281 18.316406 3.617188 18.300781 3.621094 C 18.234375 3.644531 18.175781 3.679688 18.125 3.734375 C 18.070312 3.789062 18.03125 3.847656 18.011719 3.910156 C 18.007812 3.925781 18.003906 3.9375 18 3.949219 C 18 3.953125 18 3.953125 18 3.953125 C 18 3.949219 18 3.945312 18 3.941406 L 18 1.234375 C 18 1.230469 18 1.226562 18 1.226562 C 18.003906 1.238281 18.007812 1.253906 18.011719 1.269531 C 18.03125 1.332031 18.070312 1.390625 18.125 1.445312 C 18.175781 1.5 18.234375 1.535156 18.300781 1.554688 C 18.316406 1.5625 18.328125 1.566406 18.339844 1.566406 C 18.339844 1.566406 18.34375 1.566406 18.34375 1.566406 C 18.339844 1.566406 18.335938 1.566406 18.332031 1.566406 L 0.589844 1.566406 C 0.585938 1.566406 0.582031 1.566406 0.578125 1.566406 C 0.578125 1.566406 0.578125 1.566406 0.582031 1.566406 C 0.59375 1.566406 0.605469 1.5625 0.621094 1.554688 C 0.6875 1.535156 0.742188 1.5 0.796875 1.445312 C 0.851562 1.390625 0.886719 1.332031 0.910156 1.269531 C 0.914062 1.253906 0.917969 1.238281 0.917969 1.226562 C 0.917969 1.226562 0.917969 1.230469 0.917969 1.234375 Z M 0.917969 3.941406 "/></g></g><g style="fill:#b21a22;fill-opacity:1;"><g transform="translate(34.813618, 104.073637)"><path style="stroke:none" d="M 14.191406 -16.359375 L 14.191406 -12.386719 C 14.191406 -11.59375 13.929688 -10.921875 13.410156 -10.371094 C 12.917969 -9.855469 12.308594 -9.527344 11.585938 -9.394531 L 11.417969 -10.300781 L 12.335938 -10.300781 L 12.335938 -10.238281 L 11.417969 -10.238281 L 11.550781 -11.148438 C 12.296875 -11.039062 12.917969 -10.714844 13.417969 -10.171875 C 13.933594 -9.613281 14.191406 -8.941406 14.191406 -8.152344 L 14.191406 -4.238281 C 14.191406 -2.609375 13.738281 -1.34375 12.832031 -0.4375 C 11.925781 0.46875 10.652344 0.917969 9.003906 0.917969 L 1.941406 0.917969 C 1.53125 0.917969 1.195312 0.789062 0.9375 0.53125 C 0.679688 0.273438 0.550781 -0.0585938 0.550781 -0.472656 L 0.550781 -20.128906 C 0.550781 -20.539062 0.679688 -20.871094 0.9375 -21.128906 C 1.195312 -21.386719 1.53125 -21.519531 1.941406 -21.519531 L 9.003906 -21.519531 C 10.648438 -21.519531 11.921875 -21.070312 12.828125 -20.179688 C 13.738281 -19.28125 14.191406 -18.011719 14.191406 -16.359375 Z M 12.351562 -16.359375 C 12.351562 -17.496094 12.078125 -18.332031 11.535156 -18.871094 C 10.988281 -19.410156 10.144531 -19.679688 9.003906 -19.679688 L 1.941406 -19.679688 C 1.964844 -19.679688 1.992188 -19.683594 2.027344 -19.695312 C 2.105469 -19.722656 2.175781 -19.765625 2.238281 -19.828125 C 2.300781 -19.894531 2.347656 -19.964844 2.375 -20.042969 C 2.386719 -20.078125 2.390625 -20.105469 2.390625 -20.128906 L 2.390625 -0.472656 C 2.390625 -0.492188 2.386719 -0.519531 2.375 -0.554688 C 2.347656 -0.632812 2.300781 -0.703125 2.238281 -0.769531 C 2.175781 -0.832031 2.105469 -0.875 2.027344 -0.902344 C 1.992188 -0.914062 1.964844 -0.917969 1.941406 -0.917969 L 9.003906 -0.917969 C 10.144531 -0.917969 10.984375 -1.191406 11.53125 -1.738281 C 12.078125 -2.285156 12.351562 -3.117188 12.351562 -4.238281 L 12.351562 -8.152344 C 12.351562 -8.460938 12.257812 -8.71875 12.066406 -8.925781 C 11.859375 -9.148438 11.597656 -9.285156 11.28125 -9.332031 L 10.496094 -9.445312 L 10.496094 -11.0625 L 11.25 -11.203125 C 11.582031 -11.265625 11.859375 -11.410156 12.074219 -11.636719 C 12.257812 -11.832031 12.351562 -12.082031 12.351562 -12.386719 Z M 8.613281 -13.359375 L 8.613281 -15.714844 C 8.613281 -15.808594 8.605469 -15.882812 8.589844 -15.9375 C 8.585938 -15.945312 8.582031 -15.953125 8.578125 -15.957031 C 8.582031 -15.953125 8.585938 -15.949219 8.589844 -15.945312 C 8.59375 -15.941406 8.597656 -15.9375 8.601562 -15.9375 C 8.597656 -15.9375 8.589844 -15.941406 8.582031 -15.945312 C 8.527344 -15.960938 8.453125 -15.972656 8.355469 -15.972656 L 5.121094 -15.972656 L 5.121094 -16.890625 L 6.039062 -16.890625 L 6.039062 -12.210938 L 5.121094 -12.210938 L 5.121094 -13.132812 L 8.355469 -13.132812 C 8.457031 -13.132812 8.53125 -13.140625 8.585938 -13.15625 C 8.597656 -13.160156 8.605469 -13.164062 8.609375 -13.167969 C 8.605469 -13.164062 8.601562 -13.160156 8.597656 -13.15625 C 8.59375 -13.152344 8.589844 -13.148438 8.585938 -13.140625 C 8.585938 -13.144531 8.585938 -13.148438 8.589844 -13.15625 C 8.605469 -13.203125 8.613281 -13.269531 8.613281 -13.359375 Z M 10.453125 -13.359375 C 10.453125 -12.71875 10.261719 -12.210938 9.882812 -11.839844 C 9.507812 -11.476562 9 -11.292969 8.355469 -11.292969 L 4.199219 -11.292969 L 4.199219 -17.808594 L 8.355469 -17.808594 C 9.003906 -17.808594 9.515625 -17.621094 9.890625 -17.246094 C 10.265625 -16.871094 10.453125 -16.359375 10.453125 -15.714844 Z M 8.613281 -4.882812 L 8.613281 -7.152344 C 8.613281 -7.246094 8.605469 -7.320312 8.589844 -7.375 C 8.585938 -7.382812 8.582031 -7.390625 8.578125 -7.394531 C 8.582031 -7.390625 8.585938 -7.386719 8.589844 -7.382812 C 8.59375 -7.378906 8.597656 -7.375 8.601562 -7.375 C 8.597656 -7.375 8.589844 -7.378906 8.582031 -7.382812 C 8.527344 -7.398438 8.453125 -7.40625 8.355469 -7.40625 L 5.121094 -7.40625 L 5.121094 -8.328125 L 6.039062 -8.328125 L 6.039062 -3.707031 L 5.121094 -3.707031 L 5.121094 -4.628906 L 8.355469 -4.628906 C 8.453125 -4.628906 8.527344 -4.636719 8.582031 -4.652344 C 8.589844 -4.65625 8.597656 -4.660156 8.601562 -4.660156 C 8.597656 -4.660156 8.59375 -4.65625 8.589844 -4.652344 C 8.585938 -4.648438 8.582031 -4.644531 8.578125 -4.640625 C 8.582031 -4.644531 8.585938 -4.652344 8.589844 -4.660156 C 8.605469 -4.714844 8.613281 -4.789062 8.613281 -4.882812 Z M 10.453125 -4.882812 C 10.453125 -4.238281 10.265625 -3.726562 9.890625 -3.351562 C 9.515625 -2.976562 9.003906 -2.789062 8.355469 -2.789062 L 4.199219 -2.789062 L 4.199219 -9.246094 L 8.355469 -9.246094 C 9.003906 -9.246094 9.515625 -9.058594 9.890625 -8.683594 C 10.265625 -8.308594 10.453125 -7.796875 10.453125 -7.152344 Z M 10.453125 -4.882812 "/></g></g><g style="fill:#b21a22;fill-opacity:1;"><g transform="translate(49.55124, 104.073637)"><path style="stroke:none" d="M 14.132812 -20.128906 L 14.132812 -17.183594 C 14.132812 -16.773438 14.007812 -16.441406 13.765625 -16.179688 C 13.503906 -15.902344 13.164062 -15.765625 12.742188 -15.765625 L 5.472656 -15.765625 L 5.472656 -16.683594 L 6.394531 -16.683594 L 6.394531 -12.152344 L 5.472656 -12.152344 L 5.472656 -13.074219 L 11.003906 -13.074219 C 11.425781 -13.074219 11.769531 -12.933594 12.027344 -12.65625 C 12.273438 -12.398438 12.394531 -12.0625 12.394531 -11.652344 L 12.394531 -8.738281 C 12.394531 -8.328125 12.273438 -7.996094 12.027344 -7.734375 C 11.769531 -7.457031 11.425781 -7.320312 11.003906 -7.320312 L 5.472656 -7.320312 L 5.472656 -8.238281 L 6.394531 -8.238281 L 6.394531 -3.882812 L 5.472656 -3.882812 L 5.472656 -4.804688 L 12.742188 -4.804688 C 13.152344 -4.804688 13.488281 -4.675781 13.746094 -4.417969 C 14.003906 -4.160156 14.132812 -3.824219 14.132812 -3.414062 L 14.132812 -0.472656 C 14.132812 -0.0585938 14.003906 0.273438 13.746094 0.53125 C 13.488281 0.789062 13.152344 0.917969 12.742188 0.917969 L 1.914062 0.917969 C 1.5 0.917969 1.164062 0.785156 0.910156 0.511719 C 0.671875 0.257812 0.550781 -0.0703125 0.550781 -0.472656 L 0.550781 -20.128906 C 0.550781 -20.527344 0.671875 -20.855469 0.910156 -21.109375 C 1.164062 -21.382812 1.5 -21.519531 1.914062 -21.519531 L 12.742188 -21.519531 C 13.152344 -21.519531 13.488281 -21.386719 13.746094 -21.128906 C 14.003906 -20.871094 14.132812 -20.539062 14.132812 -20.128906 Z M 12.292969 -20.128906 C 12.292969 -20.105469 12.296875 -20.078125 12.308594 -20.042969 C 12.335938 -19.964844 12.382812 -19.894531 12.445312 -19.828125 C 12.507812 -19.765625 12.578125 -19.722656 12.65625 -19.695312 C 12.691406 -19.683594 12.71875 -19.679688 12.742188 -19.679688 L 1.914062 -19.679688 C 2.03125 -19.679688 2.144531 -19.734375 2.253906 -19.851562 C 2.3125 -19.914062 2.351562 -19.984375 2.375 -20.058594 C 2.386719 -20.089844 2.390625 -20.113281 2.390625 -20.128906 L 2.390625 -0.472656 C 2.390625 -0.484375 2.386719 -0.507812 2.375 -0.539062 C 2.351562 -0.613281 2.3125 -0.683594 2.253906 -0.746094 C 2.144531 -0.863281 2.03125 -0.917969 1.914062 -0.917969 L 12.742188 -0.917969 C 12.71875 -0.917969 12.691406 -0.914062 12.65625 -0.902344 C 12.578125 -0.875 12.507812 -0.832031 12.445312 -0.769531 C 12.382812 -0.703125 12.335938 -0.632812 12.308594 -0.554688 C 12.296875 -0.519531 12.292969 -0.492188 12.292969 -0.472656 L 12.292969 -3.414062 C 12.292969 -3.390625 12.296875 -3.363281 12.308594 -3.328125 C 12.335938 -3.25 12.382812 -3.179688 12.445312 -3.117188 C 12.507812 -3.054688 12.578125 -3.007812 12.65625 -2.980469 C 12.691406 -2.96875 12.71875 -2.964844 12.742188 -2.964844 L 4.554688 -2.964844 L 4.554688 -9.160156 L 11.003906 -9.160156 C 10.976562 -9.160156 10.945312 -9.152344 10.902344 -9.136719 C 10.824219 -9.109375 10.75 -9.0625 10.6875 -8.996094 C 10.632812 -8.933594 10.589844 -8.867188 10.570312 -8.796875 C 10.5625 -8.769531 10.554688 -8.75 10.554688 -8.738281 L 10.554688 -11.652344 C 10.554688 -11.640625 10.5625 -11.625 10.570312 -11.597656 C 10.589844 -11.523438 10.632812 -11.457031 10.6875 -11.398438 C 10.75 -11.332031 10.824219 -11.285156 10.902344 -11.253906 C 10.945312 -11.242188 10.976562 -11.234375 11.003906 -11.234375 L 4.554688 -11.234375 L 4.554688 -17.605469 L 12.742188 -17.605469 C 12.714844 -17.605469 12.679688 -17.597656 12.640625 -17.582031 C 12.558594 -17.554688 12.488281 -17.507812 12.425781 -17.441406 C 12.367188 -17.378906 12.328125 -17.3125 12.304688 -17.242188 C 12.296875 -17.214844 12.292969 -17.195312 12.292969 -17.183594 Z M 12.292969 -20.128906 "/></g></g><g style="fill:#b21a22;fill-opacity:1;"><g transform="translate(64.230019, 104.073637)"><path style="stroke:none" d="M 10.800781 -21.519531 L 13.566406 -21.519531 C 13.976562 -21.519531 14.3125 -21.386719 14.570312 -21.128906 C 14.828125 -20.871094 14.957031 -20.539062 14.957031 -20.128906 L 14.957031 -0.472656 C 14.957031 -0.0585938 14.828125 0.273438 14.570312 0.53125 C 14.3125 0.789062 13.976562 0.917969 13.566406 0.917969 L 11.242188 0.917969 C 10.925781 0.917969 10.640625 0.828125 10.394531 0.648438 C 10.175781 0.492188 10.003906 0.277344 9.875 0.00390625 L 10.710938 -0.382812 L 9.886719 0.0234375 L 4.355469 -11.21875 L 5.179688 -11.625 L 6.097656 -11.625 L 6.097656 -0.472656 C 6.097656 -0.0585938 5.96875 0.273438 5.710938 0.53125 C 5.453125 0.789062 5.117188 0.917969 4.707031 0.917969 L 1.941406 0.917969 C 1.53125 0.917969 1.195312 0.789062 0.9375 0.53125 C 0.679688 0.273438 0.550781 -0.0585938 0.550781 -0.472656 L 0.550781 -20.128906 C 0.550781 -20.539062 0.679688 -20.871094 0.9375 -21.128906 C 1.195312 -21.386719 1.53125 -21.519531 1.941406 -21.519531 L 4.265625 -21.519531 C 4.582031 -21.519531 4.863281 -21.425781 5.113281 -21.246094 C 5.332031 -21.089844 5.503906 -20.875 5.632812 -20.601562 L 4.796875 -20.214844 L 5.621094 -20.621094 L 11.152344 -9.382812 L 10.328125 -8.976562 L 9.410156 -8.976562 L 9.410156 -20.128906 C 9.410156 -20.539062 9.539062 -20.871094 9.796875 -21.128906 C 10.054688 -21.386719 10.386719 -21.519531 10.800781 -21.519531 Z M 10.800781 -19.679688 C 10.820312 -19.679688 10.847656 -19.683594 10.882812 -19.695312 C 10.960938 -19.722656 11.035156 -19.765625 11.097656 -19.828125 C 11.160156 -19.894531 11.203125 -19.964844 11.230469 -20.042969 C 11.242188 -20.078125 11.246094 -20.105469 11.246094 -20.128906 L 11.246094 -8.976562 L 9.503906 -8.570312 L 3.964844 -19.820312 L 3.960938 -19.832031 C 3.96875 -19.8125 3.996094 -19.789062 4.039062 -19.757812 C 4.109375 -19.703125 4.1875 -19.679688 4.265625 -19.679688 L 1.941406 -19.679688 C 1.964844 -19.679688 1.992188 -19.683594 2.027344 -19.695312 C 2.105469 -19.722656 2.175781 -19.765625 2.238281 -19.828125 C 2.300781 -19.894531 2.347656 -19.964844 2.375 -20.042969 C 2.386719 -20.078125 2.390625 -20.105469 2.390625 -20.128906 L 2.390625 -0.472656 C 2.390625 -0.492188 2.386719 -0.519531 2.375 -0.554688 C 2.347656 -0.632812 2.300781 -0.703125 2.238281 -0.769531 C 2.175781 -0.832031 2.105469 -0.875 2.027344 -0.902344 C 1.992188 -0.914062 1.964844 -0.917969 1.941406 -0.917969 L 4.707031 -0.917969 C 4.6875 -0.917969 4.660156 -0.914062 4.625 -0.902344 C 4.542969 -0.875 4.472656 -0.832031 4.410156 -0.769531 C 4.347656 -0.703125 4.304688 -0.632812 4.277344 -0.554688 C 4.265625 -0.519531 4.257812 -0.492188 4.257812 -0.472656 L 4.257812 -11.625 L 6.003906 -12.027344 L 11.542969 -0.777344 L 11.546875 -0.769531 C 11.539062 -0.785156 11.511719 -0.8125 11.46875 -0.839844 C 11.398438 -0.894531 11.320312 -0.917969 11.242188 -0.917969 L 13.566406 -0.917969 C 13.542969 -0.917969 13.515625 -0.914062 13.480469 -0.902344 C 13.402344 -0.875 13.332031 -0.832031 13.269531 -0.769531 C 13.203125 -0.703125 13.160156 -0.632812 13.132812 -0.554688 C 13.121094 -0.519531 13.117188 -0.492188 13.117188 -0.472656 L 13.117188 -20.128906 C 13.117188 -20.105469 13.121094 -20.078125 13.132812 -20.042969 C 13.160156 -19.964844 13.203125 -19.894531 13.269531 -19.828125 C 13.332031 -19.765625 13.402344 -19.722656 13.480469 -19.695312 C 13.515625 -19.683594 13.542969 -19.679688 13.566406 -19.679688 Z M 10.800781 -19.679688 "/></g></g><g style="fill:#b21a22;fill-opacity:1;"><g transform="translate(79.732468, 104.073637)"><path style="stroke:none" d="M 14.191406 -16.359375 L 14.191406 -13.183594 C 14.191406 -12.773438 14.0625 -12.4375 13.804688 -12.179688 C 13.546875 -11.921875 13.210938 -11.792969 12.800781 -11.792969 L 10.035156 -11.792969 C 9.625 -11.792969 9.289062 -11.921875 9.03125 -12.179688 C 8.773438 -12.4375 8.644531 -12.773438 8.644531 -13.183594 L 8.644531 -15.59375 C 8.644531 -15.691406 8.636719 -15.765625 8.617188 -15.820312 C 8.613281 -15.828125 8.613281 -15.835938 8.609375 -15.839844 C 8.609375 -15.835938 8.613281 -15.832031 8.617188 -15.828125 C 8.625 -15.824219 8.628906 -15.820312 8.628906 -15.820312 C 8.625 -15.820312 8.621094 -15.824219 8.609375 -15.828125 C 8.558594 -15.84375 8.484375 -15.851562 8.386719 -15.851562 L 6.503906 -15.851562 C 6.40625 -15.851562 6.332031 -15.84375 6.277344 -15.828125 C 6.269531 -15.824219 6.261719 -15.820312 6.257812 -15.820312 C 6.261719 -15.820312 6.265625 -15.824219 6.269531 -15.828125 C 6.273438 -15.832031 6.277344 -15.835938 6.28125 -15.839844 C 6.277344 -15.835938 6.273438 -15.828125 6.273438 -15.820312 C 6.253906 -15.765625 6.246094 -15.691406 6.246094 -15.59375 L 6.246094 -4.914062 C 6.246094 -4.816406 6.253906 -4.742188 6.273438 -4.691406 C 6.273438 -4.679688 6.277344 -4.671875 6.28125 -4.671875 C 6.277344 -4.671875 6.273438 -4.675781 6.269531 -4.679688 C 6.265625 -4.6875 6.261719 -4.6875 6.257812 -4.691406 C 6.261719 -4.6875 6.269531 -4.6875 6.277344 -4.683594 C 6.332031 -4.664062 6.40625 -4.65625 6.503906 -4.65625 L 8.386719 -4.65625 C 8.484375 -4.65625 8.558594 -4.664062 8.609375 -4.683594 C 8.621094 -4.6875 8.625 -4.6875 8.628906 -4.691406 C 8.628906 -4.6875 8.625 -4.6875 8.617188 -4.679688 C 8.613281 -4.675781 8.609375 -4.671875 8.609375 -4.671875 C 8.613281 -4.671875 8.613281 -4.679688 8.617188 -4.691406 C 8.636719 -4.742188 8.644531 -4.816406 8.644531 -4.914062 L 8.644531 -7.414062 C 8.644531 -7.824219 8.773438 -8.160156 9.03125 -8.417969 C 9.289062 -8.675781 9.625 -8.804688 10.035156 -8.804688 L 12.800781 -8.804688 C 13.210938 -8.804688 13.546875 -8.675781 13.804688 -8.417969 C 14.0625 -8.160156 14.191406 -7.824219 14.191406 -7.414062 L 14.191406 -4.238281 C 14.191406 -2.609375 13.738281 -1.34375 12.832031 -0.4375 C 11.925781 0.46875 10.660156 0.917969 9.035156 0.917969 L 5.738281 0.917969 C 4.113281 0.917969 2.84375 0.46875 1.929688 -0.433594 C 1.011719 -1.339844 0.550781 -2.609375 0.550781 -4.238281 L 0.550781 -16.359375 C 0.550781 -18.011719 1.011719 -19.285156 1.933594 -20.183594 C 2.847656 -21.074219 4.117188 -21.519531 5.738281 -21.519531 L 9.035156 -21.519531 C 10.660156 -21.519531 11.921875 -21.070312 12.828125 -20.179688 C 13.738281 -19.28125 14.191406 -18.011719 14.191406 -16.359375 Z M 12.351562 -16.359375 C 12.351562 -17.496094 12.078125 -18.332031 11.535156 -18.871094 C 10.988281 -19.410156 10.15625 -19.679688 9.035156 -19.679688 L 5.738281 -19.679688 C 4.613281 -19.679688 3.773438 -19.40625 3.214844 -18.863281 C 2.664062 -18.328125 2.390625 -17.496094 2.390625 -16.359375 L 2.390625 -4.238281 C 2.390625 -3.121094 2.667969 -2.289062 3.21875 -1.742188 C 3.777344 -1.195312 4.617188 -0.917969 5.738281 -0.917969 L 9.035156 -0.917969 C 10.152344 -0.917969 10.984375 -1.191406 11.53125 -1.738281 C 12.078125 -2.285156 12.351562 -3.117188 12.351562 -4.238281 L 12.351562 -7.414062 C 12.351562 -7.394531 12.355469 -7.367188 12.367188 -7.332031 C 12.394531 -7.253906 12.441406 -7.179688 12.503906 -7.117188 C 12.566406 -7.054688 12.636719 -7.011719 12.714844 -6.984375 C 12.75 -6.972656 12.777344 -6.964844 12.800781 -6.964844 L 10.035156 -6.964844 C 10.054688 -6.964844 10.082031 -6.972656 10.117188 -6.984375 C 10.199219 -7.011719 10.269531 -7.054688 10.332031 -7.117188 C 10.394531 -7.179688 10.4375 -7.253906 10.464844 -7.332031 C 10.476562 -7.367188 10.484375 -7.394531 10.484375 -7.414062 L 10.484375 -4.914062 C 10.484375 -4.269531 10.296875 -3.757812 9.917969 -3.382812 C 9.542969 -3.003906 9.03125 -2.816406 8.386719 -2.816406 L 6.503906 -2.816406 C 5.855469 -2.816406 5.347656 -3.003906 4.96875 -3.382812 C 4.59375 -3.757812 4.40625 -4.269531 4.40625 -4.914062 L 4.40625 -15.59375 C 4.40625 -16.242188 4.59375 -16.753906 4.96875 -17.128906 C 5.347656 -17.503906 5.855469 -17.691406 6.503906 -17.691406 L 8.386719 -17.691406 C 9.03125 -17.691406 9.542969 -17.503906 9.917969 -17.128906 C 10.296875 -16.753906 10.484375 -16.242188 10.484375 -15.59375 L 10.484375 -13.183594 C 10.484375 -13.203125 10.476562 -13.230469 10.464844 -13.265625 C 10.4375 -13.347656 10.394531 -13.417969 10.332031 -13.480469 C 10.269531 -13.542969 10.199219 -13.585938 10.117188 -13.613281 C 10.082031 -13.625 10.054688 -13.632812 10.035156 -13.632812 L 12.800781 -13.632812 C 12.777344 -13.632812 12.75 -13.625 12.714844 -13.613281 C 12.636719 -13.585938 12.566406 -13.542969 12.503906 -13.480469 C 12.441406 -13.417969 12.394531 -13.347656 12.367188 -13.265625 C 12.355469 -13.230469 12.351562 -13.203125 12.351562 -13.183594 Z M 12.351562 -16.359375 "/></g></g><g style="fill:#b21a22;fill-opacity:1;"><g transform="translate(94.470089, 104.073637)"><path style="stroke:none" d="M 8.320312 -12.183594 L 8.320312 -20.128906 C 8.320312 -20.539062 8.449219 -20.871094 8.707031 -21.128906 C 8.964844 -21.386719 9.300781 -21.519531 9.710938 -21.519531 L 12.742188 -21.519531 C 13.152344 -21.519531 13.488281 -21.394531 13.746094 -21.148438 C 14.023438 -20.890625 14.160156 -20.550781 14.160156 -20.128906 L 14.160156 -0.472656 C 14.160156 -0.0507812 14.023438 0.292969 13.746094 0.550781 C 13.488281 0.796875 13.152344 0.917969 12.742188 0.917969 L 9.710938 0.917969 C 9.300781 0.917969 8.964844 0.789062 8.707031 0.53125 C 8.449219 0.273438 8.320312 -0.0585938 8.320312 -0.472656 L 8.320312 -8.296875 L 9.238281 -8.296875 L 9.238281 -7.378906 L 5.472656 -7.378906 L 5.472656 -8.296875 L 6.394531 -8.296875 L 6.394531 -0.472656 C 6.394531 -0.0585938 6.265625 0.273438 6.003906 0.53125 C 5.746094 0.789062 5.414062 0.917969 5.003906 0.917969 L 1.972656 0.917969 C 1.5625 0.917969 1.226562 0.796875 0.964844 0.550781 C 0.691406 0.292969 0.550781 -0.0507812 0.550781 -0.472656 L 0.550781 -20.128906 C 0.550781 -20.550781 0.691406 -20.890625 0.964844 -21.148438 C 1.226562 -21.394531 1.5625 -21.519531 1.972656 -21.519531 L 5.003906 -21.519531 C 5.414062 -21.519531 5.746094 -21.386719 6.003906 -21.128906 C 6.265625 -20.871094 6.394531 -20.539062 6.394531 -20.128906 L 6.394531 -12.183594 L 5.472656 -12.183594 L 5.472656 -13.101562 L 9.238281 -13.101562 L 9.238281 -12.183594 Z M 10.160156 -11.261719 L 4.554688 -11.261719 L 4.554688 -20.128906 C 4.554688 -20.105469 4.558594 -20.078125 4.570312 -20.042969 C 4.597656 -19.964844 4.640625 -19.894531 4.707031 -19.828125 C 4.769531 -19.765625 4.839844 -19.722656 4.917969 -19.695312 C 4.953125 -19.683594 4.980469 -19.679688 5.003906 -19.679688 L 1.972656 -19.679688 C 1.980469 -19.679688 2 -19.683594 2.027344 -19.691406 C 2.101562 -19.714844 2.164062 -19.753906 2.226562 -19.8125 C 2.292969 -19.875 2.339844 -19.945312 2.371094 -20.027344 C 2.382812 -20.066406 2.390625 -20.101562 2.390625 -20.128906 L 2.390625 -0.472656 C 2.390625 -0.496094 2.382812 -0.53125 2.371094 -0.570312 C 2.339844 -0.652344 2.292969 -0.726562 2.226562 -0.789062 C 2.164062 -0.84375 2.101562 -0.882812 2.027344 -0.90625 C 2 -0.914062 1.980469 -0.917969 1.972656 -0.917969 L 5.003906 -0.917969 C 4.980469 -0.917969 4.953125 -0.914062 4.917969 -0.902344 C 4.839844 -0.875 4.769531 -0.832031 4.707031 -0.769531 C 4.640625 -0.703125 4.597656 -0.632812 4.570312 -0.554688 C 4.558594 -0.519531 4.554688 -0.492188 4.554688 -0.472656 L 4.554688 -9.21875 L 10.160156 -9.21875 L 10.160156 -0.472656 C 10.160156 -0.492188 10.152344 -0.519531 10.140625 -0.554688 C 10.117188 -0.632812 10.070312 -0.703125 10.007812 -0.769531 C 9.945312 -0.832031 9.875 -0.875 9.796875 -0.902344 C 9.761719 -0.914062 9.730469 -0.917969 9.710938 -0.917969 L 12.742188 -0.917969 C 12.730469 -0.917969 12.710938 -0.914062 12.683594 -0.90625 C 12.613281 -0.882812 12.546875 -0.84375 12.484375 -0.789062 C 12.417969 -0.726562 12.371094 -0.652344 12.34375 -0.570312 C 12.328125 -0.53125 12.320312 -0.496094 12.320312 -0.472656 L 12.320312 -20.128906 C 12.320312 -20.101562 12.328125 -20.066406 12.34375 -20.027344 C 12.371094 -19.945312 12.417969 -19.875 12.484375 -19.8125 C 12.546875 -19.753906 12.613281 -19.714844 12.683594 -19.691406 C 12.710938 -19.683594 12.730469 -19.679688 12.742188 -19.679688 L 9.710938 -19.679688 C 9.730469 -19.679688 9.761719 -19.683594 9.796875 -19.695312 C 9.875 -19.722656 9.945312 -19.765625 10.007812 -19.828125 C 10.070312 -19.894531 10.117188 -19.964844 10.140625 -20.042969 C 10.152344 -20.078125 10.160156 -20.105469 10.160156 -20.128906 Z M 10.160156 -11.261719 "/></g></g><g style="fill:#060705;fill-opacity:1;"><g transform="translate(14.965721, 63.04921)"><path style="stroke:none" d="M 13.234375 -16.359375 L 13.234375 -10.4375 C 13.234375 -8.738281 12.6875 -7.546875 11.59375 -6.859375 L 13.125 -0.53125 C 13.21875 -0.175781 13.078125 0 12.703125 0 L 9.828125 0 C 9.554688 0 9.390625 -0.132812 9.328125 -0.40625 L 7.921875 -6.203125 L 5.296875 -6.203125 L 5.296875 -0.46875 C 5.296875 -0.15625 5.140625 0 4.828125 0 L 1.9375 0 C 1.625 0 1.46875 -0.15625 1.46875 -0.46875 L 1.46875 -20.125 C 1.46875 -20.4375 1.625 -20.59375 1.9375 -20.59375 L 9 -20.59375 C 10.394531 -20.59375 11.445312 -20.234375 12.15625 -19.515625 C 12.875 -18.804688 13.234375 -17.753906 13.234375 -16.359375 Z M 5.296875 -10 L 8.234375 -10 C 9.023438 -10 9.421875 -10.394531 9.421875 -11.1875 L 9.421875 -15.625 C 9.421875 -16.40625 9.023438 -16.796875 8.234375 -16.796875 L 5.296875 -16.796875 Z M 5.296875 -10 "/></g></g><g style="fill:#060705;fill-opacity:1;"><g transform="translate(29.673921, 63.04921)"><path style="stroke:none" d="M 13.203125 -20.125 L 13.203125 -17.1875 C 13.203125 -16.851562 13.046875 -16.6875 12.734375 -16.6875 L 5.46875 -16.6875 L 5.46875 -12.15625 L 11 -12.15625 C 11.3125 -12.15625 11.46875 -11.988281 11.46875 -11.65625 L 11.46875 -8.734375 C 11.46875 -8.398438 11.3125 -8.234375 11 -8.234375 L 5.46875 -8.234375 L 5.46875 -3.890625 L 12.734375 -3.890625 C 13.046875 -3.890625 13.203125 -3.726562 13.203125 -3.40625 L 13.203125 -0.46875 C 13.203125 -0.15625 13.046875 0 12.734375 0 L 1.90625 0 C 1.613281 0 1.46875 -0.15625 1.46875 -0.46875 L 1.46875 -20.125 C 1.46875 -20.4375 1.613281 -20.59375 1.90625 -20.59375 L 12.734375 -20.59375 C 13.046875 -20.59375 13.203125 -20.4375 13.203125 -20.125 Z M 13.203125 -20.125 "/></g></g><g style="fill:#060705;fill-opacity:1;"><g transform="translate(44.352701, 63.04921)"><path style="stroke:none" d="M 13.234375 -16.359375 L 13.234375 -4.234375 C 13.234375 -2.367188 12.597656 -1.113281 11.328125 -0.46875 L 12.5 2.0625 C 12.582031 2.21875 12.570312 2.34375 12.46875 2.4375 C 12.375 2.539062 12.25 2.59375 12.09375 2.59375 L 9.03125 2.59375 C 8.894531 2.59375 8.789062 2.550781 8.71875 2.46875 C 8.65625 2.394531 8.59375 2.296875 8.53125 2.171875 L 7.53125 0 L 5.703125 0 C 4.328125 0 3.273438 -0.359375 2.546875 -1.078125 C 1.828125 -1.804688 1.46875 -2.859375 1.46875 -4.234375 L 1.46875 -16.359375 C 1.46875 -17.753906 1.828125 -18.804688 2.546875 -19.515625 C 3.273438 -20.234375 4.328125 -20.59375 5.703125 -20.59375 L 9 -20.59375 C 10.394531 -20.59375 11.445312 -20.234375 12.15625 -19.515625 C 12.875 -18.804688 13.234375 -17.753906 13.234375 -16.359375 Z M 5.296875 -15.625 L 5.296875 -4.96875 C 5.296875 -4.1875 5.6875 -3.796875 6.46875 -3.796875 L 8.359375 -3.796875 C 9.140625 -3.796875 9.53125 -4.1875 9.53125 -4.96875 L 9.53125 -15.625 C 9.53125 -16.40625 9.140625 -16.796875 8.359375 -16.796875 L 6.46875 -16.796875 C 5.6875 -16.796875 5.296875 -16.40625 5.296875 -15.625 Z M 5.296875 -15.625 "/></g></g><g style="fill:#060705;fill-opacity:1;"><g transform="translate(59.060901, 63.04921)"><path style="stroke:none" d="M 9.9375 -20.59375 L 12.65625 -20.59375 C 12.8125 -20.59375 12.945312 -20.535156 13.0625 -20.421875 C 13.175781 -20.304688 13.234375 -20.164062 13.234375 -20 L 13.234375 -4.234375 C 13.234375 -2.859375 12.875 -1.804688 12.15625 -1.078125 C 11.445312 -0.359375 10.394531 0 9 0 L 5.703125 0 C 4.328125 0 3.273438 -0.359375 2.546875 -1.078125 C 1.828125 -1.804688 1.46875 -2.859375 1.46875 -4.234375 L 1.46875 -20 C 1.46875 -20.164062 1.523438 -20.304688 1.640625 -20.421875 C 1.765625 -20.535156 1.90625 -20.59375 2.0625 -20.59375 L 4.890625 -20.59375 C 5.046875 -20.59375 5.179688 -20.535156 5.296875 -20.421875 C 5.410156 -20.304688 5.46875 -20.164062 5.46875 -20 L 5.46875 -5.0625 C 5.46875 -4.28125 5.863281 -3.890625 6.65625 -3.890625 L 8.171875 -3.890625 C 8.960938 -3.890625 9.359375 -4.28125 9.359375 -5.0625 L 9.359375 -20 C 9.359375 -20.164062 9.414062 -20.304688 9.53125 -20.421875 C 9.644531 -20.535156 9.78125 -20.59375 9.9375 -20.59375 Z M 9.9375 -20.59375 "/></g></g><g style="fill:#060705;fill-opacity:1;"><g transform="translate(73.769102, 63.04921)"><path style="stroke:none" d="M 1.9375 0 L 5 0 C 5.3125 0 5.46875 -0.15625 5.46875 -0.46875 L 5.46875 -20.125 C 5.46875 -20.4375 5.3125 -20.59375 5 -20.59375 L 1.9375 -20.59375 C 1.625 -20.59375 1.46875 -20.4375 1.46875 -20.125 L 1.46875 -0.46875 C 1.46875 -0.15625 1.625 0 1.9375 0 Z M 1.9375 0 "/></g></g><g style="fill:#060705;fill-opacity:1;"><g transform="translate(80.711368, 63.04921)"><path style="stroke:none" d="M 13.234375 -16.359375 L 13.234375 -10.4375 C 13.234375 -8.738281 12.6875 -7.546875 11.59375 -6.859375 L 13.125 -0.53125 C 13.21875 -0.175781 13.078125 0 12.703125 0 L 9.828125 0 C 9.554688 0 9.390625 -0.132812 9.328125 -0.40625 L 7.921875 -6.203125 L 5.296875 -6.203125 L 5.296875 -0.46875 C 5.296875 -0.15625 5.140625 0 4.828125 0 L 1.9375 0 C 1.625 0 1.46875 -0.15625 1.46875 -0.46875 L 1.46875 -20.125 C 1.46875 -20.4375 1.625 -20.59375 1.9375 -20.59375 L 9 -20.59375 C 10.394531 -20.59375 11.445312 -20.234375 12.15625 -19.515625 C 12.875 -18.804688 13.234375 -17.753906 13.234375 -16.359375 Z M 5.296875 -10 L 8.234375 -10 C 9.023438 -10 9.421875 -10.394531 9.421875 -11.1875 L 9.421875 -15.625 C 9.421875 -16.40625 9.023438 -16.796875 8.234375 -16.796875 L 5.296875 -16.796875 Z M 5.296875 -10 "/></g></g><g style="fill:#060705;fill-opacity:1;"><g transform="translate(95.419569, 63.04921)"><path style="stroke:none" d="M 13.203125 -20.125 L 13.203125 -17.1875 C 13.203125 -16.851562 13.046875 -16.6875 12.734375 -16.6875 L 5.46875 -16.6875 L 5.46875 -12.15625 L 11 -12.15625 C 11.3125 -12.15625 11.46875 -11.988281 11.46875 -11.65625 L 11.46875 -8.734375 C 11.46875 -8.398438 11.3125 -8.234375 11 -8.234375 L 5.46875 -8.234375 L 5.46875 -3.890625 L 12.734375 -3.890625 C 13.046875 -3.890625 13.203125 -3.726562 13.203125 -3.40625 L 13.203125 -0.46875 C 13.203125 -0.15625 13.046875 0 12.734375 0 L 1.90625 0 C 1.613281 0 1.46875 -0.15625 1.46875 -0.46875 L 1.46875 -20.125 C 1.46875 -20.4375 1.613281 -20.59375 1.90625 -20.59375 L 12.734375 -20.59375 C 13.046875 -20.59375 13.203125 -20.4375 13.203125 -20.125 Z M 13.203125 -20.125 "/></g></g><g style="fill:#060705;fill-opacity:1;"><g transform="translate(110.098348, 63.04921)"><path style="stroke:none" d="M 0 3.9375 L 0 1.234375 C 0 0.835938 0.195312 0.640625 0.59375 0.640625 L 18.328125 0.640625 C 18.722656 0.640625 18.921875 0.835938 18.921875 1.234375 L 18.921875 3.9375 C 18.921875 4.332031 18.722656 4.53125 18.328125 4.53125 L 0.59375 4.53125 C 0.195312 4.53125 0 4.332031 0 3.9375 Z M 0 3.9375 "/></g></g><g style="fill:#060705;fill-opacity:1;"><g transform="translate(34.813618, 104.073637)"><path style="stroke:none" d="M 13.265625 -16.359375 L 13.265625 -12.390625 C 13.265625 -11.835938 13.085938 -11.375 12.734375 -11 C 12.378906 -10.625 11.941406 -10.390625 11.421875 -10.296875 L 11.421875 -10.234375 C 11.941406 -10.160156 12.378906 -9.929688 12.734375 -9.546875 C 13.085938 -9.160156 13.265625 -8.695312 13.265625 -8.15625 L 13.265625 -4.234375 C 13.265625 -2.859375 12.898438 -1.804688 12.171875 -1.078125 C 11.453125 -0.359375 10.394531 0 9 0 L 1.9375 0 C 1.625 0 1.46875 -0.15625 1.46875 -0.46875 L 1.46875 -20.125 C 1.46875 -20.4375 1.625 -20.59375 1.9375 -20.59375 L 9 -20.59375 C 10.394531 -20.59375 11.453125 -20.234375 12.171875 -19.515625 C 12.898438 -18.804688 13.265625 -17.753906 13.265625 -16.359375 Z M 9.53125 -13.359375 L 9.53125 -15.71875 C 9.53125 -16.5 9.140625 -16.890625 8.359375 -16.890625 L 5.125 -16.890625 L 5.125 -12.203125 L 8.359375 -12.203125 C 9.140625 -12.203125 9.53125 -12.585938 9.53125 -13.359375 Z M 9.53125 -4.890625 L 9.53125 -7.15625 C 9.53125 -7.9375 9.140625 -8.328125 8.359375 -8.328125 L 5.125 -8.328125 L 5.125 -3.703125 L 8.359375 -3.703125 C 9.140625 -3.703125 9.53125 -4.097656 9.53125 -4.890625 Z M 9.53125 -4.890625 "/></g></g><g style="fill:#060705;fill-opacity:1;"><g transform="translate(49.55124, 104.073637)"><path style="stroke:none" d="M 13.203125 -20.125 L 13.203125 -17.1875 C 13.203125 -16.851562 13.046875 -16.6875 12.734375 -16.6875 L 5.46875 -16.6875 L 5.46875 -12.15625 L 11 -12.15625 C 11.3125 -12.15625 11.46875 -11.988281 11.46875 -11.65625 L 11.46875 -8.734375 C 11.46875 -8.398438 11.3125 -8.234375 11 -8.234375 L 5.46875 -8.234375 L 5.46875 -3.890625 L 12.734375 -3.890625 C 13.046875 -3.890625 13.203125 -3.726562 13.203125 -3.40625 L 13.203125 -0.46875 C 13.203125 -0.15625 13.046875 0 12.734375 0 L 1.90625 0 C 1.613281 0 1.46875 -0.15625 1.46875 -0.46875 L 1.46875 -20.125 C 1.46875 -20.4375 1.613281 -20.59375 1.90625 -20.59375 L 12.734375 -20.59375 C 13.046875 -20.59375 13.203125 -20.4375 13.203125 -20.125 Z M 13.203125 -20.125 "/></g></g><g style="fill:#060705;fill-opacity:1;"><g transform="translate(64.230019, 104.073637)"><path style="stroke:none" d="M 10.796875 -20.59375 L 13.5625 -20.59375 C 13.875 -20.59375 14.03125 -20.4375 14.03125 -20.125 L 14.03125 -0.46875 C 14.03125 -0.15625 13.875 0 13.5625 0 L 11.234375 0 C 11.003906 0 10.828125 -0.125 10.703125 -0.375 L 5.171875 -11.625 L 5.171875 -0.46875 C 5.171875 -0.15625 5.015625 0 4.703125 0 L 1.9375 0 C 1.625 0 1.46875 -0.15625 1.46875 -0.46875 L 1.46875 -20.125 C 1.46875 -20.4375 1.625 -20.59375 1.9375 -20.59375 L 4.265625 -20.59375 C 4.503906 -20.59375 4.679688 -20.46875 4.796875 -20.21875 L 10.328125 -8.96875 L 10.328125 -20.125 C 10.328125 -20.4375 10.484375 -20.59375 10.796875 -20.59375 Z M 10.796875 -20.59375 "/></g></g><g style="fill:#060705;fill-opacity:1;"><g transform="translate(79.732468, 104.073637)"><path style="stroke:none" d="M 13.265625 -16.359375 L 13.265625 -13.1875 C 13.265625 -12.863281 13.109375 -12.703125 12.796875 -12.703125 L 10.03125 -12.703125 C 9.71875 -12.703125 9.5625 -12.863281 9.5625 -13.1875 L 9.5625 -15.59375 C 9.5625 -16.375 9.171875 -16.765625 8.390625 -16.765625 L 6.5 -16.765625 C 5.71875 -16.765625 5.328125 -16.375 5.328125 -15.59375 L 5.328125 -4.90625 C 5.328125 -4.125 5.71875 -3.734375 6.5 -3.734375 L 8.390625 -3.734375 C 9.171875 -3.734375 9.5625 -4.125 9.5625 -4.90625 L 9.5625 -7.421875 C 9.5625 -7.734375 9.71875 -7.890625 10.03125 -7.890625 L 12.796875 -7.890625 C 13.109375 -7.890625 13.265625 -7.734375 13.265625 -7.421875 L 13.265625 -4.234375 C 13.265625 -2.859375 12.898438 -1.804688 12.171875 -1.078125 C 11.453125 -0.359375 10.40625 0 9.03125 0 L 5.734375 0 C 4.359375 0 3.300781 -0.359375 2.5625 -1.078125 C 1.832031 -1.804688 1.46875 -2.859375 1.46875 -4.234375 L 1.46875 -16.359375 C 1.46875 -17.753906 1.832031 -18.804688 2.5625 -19.515625 C 3.300781 -20.234375 4.359375 -20.59375 5.734375 -20.59375 L 9.03125 -20.59375 C 10.40625 -20.59375 11.453125 -20.234375 12.171875 -19.515625 C 12.898438 -18.804688 13.265625 -17.753906 13.265625 -16.359375 Z M 13.265625 -16.359375 "/></g></g><g style="fill:#060705;fill-opacity:1;"><g transform="translate(94.470089, 104.073637)"><path style="stroke:none" d="M 9.234375 -12.1875 L 9.234375 -20.125 C 9.234375 -20.4375 9.390625 -20.59375 9.703125 -20.59375 L 12.734375 -20.59375 C 13.066406 -20.59375 13.234375 -20.4375 13.234375 -20.125 L 13.234375 -0.46875 C 13.234375 -0.15625 13.066406 0 12.734375 0 L 9.703125 0 C 9.390625 0 9.234375 -0.15625 9.234375 -0.46875 L 9.234375 -8.296875 L 5.46875 -8.296875 L 5.46875 -0.46875 C 5.46875 -0.15625 5.3125 0 5 0 L 1.96875 0 C 1.632812 0 1.46875 -0.15625 1.46875 -0.46875 L 1.46875 -20.125 C 1.46875 -20.4375 1.632812 -20.59375 1.96875 -20.59375 L 5 -20.59375 C 5.3125 -20.59375 5.46875 -20.4375 5.46875 -20.125 L 5.46875 -12.1875 Z M 9.234375 -12.1875 "/></g></g></g></svg>