<svg xmlns="http://www.w3.org/2000/svg" xmlns:xlink="http://www.w3.org/1999/xlink" width="192" zoomAndPan="magnify" viewBox="0 0 144 143.999998" height="192" preserveAspectRatio="xMidYMid meet" version="1.2"><defs><clipPath id="178b2ea2da"><path d="M 9 0 L 135 0 L 135 144 L 9 144 Z M 9 0 "/></clipPath><clipPath id="e7e0674c32"><path d="M -21.457031 54.867188 L 103.039062 -17.847656 L 165.503906 89.105469 L 41.007812 161.816406 Z M -21.457031 54.867188 "/></clipPath><clipPath id="fc68eea188"><path d="M 134.226562 35.65625 L 134.347656 107.300781 L 72.121094 143.644531 L 9.773438 108.34375 L 9.65625 36.695312 L 71.878906 0.351562 Z M 134.226562 35.65625 "/></clipPath><clipPath id="cd28bfff91"><path d="M 21.210938 13.683594 L 122.773438 13.683594 L 122.773438 130.261719 L 21.210938 130.261719 Z M 21.210938 13.683594 "/></clipPath></defs><g id="7260a9a3dc"><g clip-rule="nonzero" clip-path="url(#178b2ea2da)"><g clip-rule="nonzero" clip-path="url(#e7e0674c32)"><g clip-rule="nonzero" clip-path="url(#fc68eea188)"><path style=" stroke:none;fill-rule:nonzero;fill:#65b30e;fill-opacity:1;" d="M -21.457031 54.867188 L 103.039062 -17.847656 L 165.503906 89.105469 L 41.007812 161.816406 Z M -21.457031 54.867188 "/></g></g></g><path style=" stroke:none;fill-rule:nonzero;fill:#87ff00;fill-opacity:1;" d="M 51.679688 52.109375 L 51.613281 52.046875 L 37.261719 66.398438 L 72.113281 101.183594 L 86.46875 86.898438 L 106.960938 66.398438 L 92.609375 52.046875 L 92.609375 51.980469 L 51.617188 51.980469 Z M 51.679688 52.109375 "/><g clip-rule="nonzero" clip-path="url(#cd28bfff91)"><path style=" stroke:none;fill-rule:nonzero;fill:#87ff00;fill-opacity:1;" d="M 71.980469 13.765625 L 21.222656 42.863281 L 21.226562 101.058594 L 71.984375 130.15625 L 122.742188 101.058594 L 122.742188 42.863281 L 71.984375 13.769531 Z M 113.039062 95.496094 L 71.980469 119.160156 L 30.921875 95.496094 L 30.925781 48.292969 L 71.984375 24.628906 L 113.042969 48.292969 L 113.042969 95.492188 Z M 113.039062 95.496094 "/></g><g style="fill:#b21a22;fill-opacity:1;"><g transform="translate(27.550132, 48.913117)"><path style="stroke:none" d="M 1.523438 -0.71875 L 3.917969 -0.71875 C 3.902344 -0.71875 3.882812 -0.714844 3.851562 -0.707031 C 3.792969 -0.6875 3.738281 -0.652344 3.6875 -0.601562 C 3.636719 -0.550781 3.601562 -0.496094 3.582031 -0.433594 C 3.574219 -0.40625 3.566406 -0.386719 3.566406 -0.367188 L 3.566406 -15.769531 C 3.566406 -15.753906 3.574219 -15.734375 3.582031 -15.703125 C 3.601562 -15.644531 3.636719 -15.589844 3.6875 -15.539062 C 3.738281 -15.488281 3.792969 -15.453125 3.851562 -15.433594 C 3.882812 -15.425781 3.902344 -15.417969 3.917969 -15.417969 L 1.523438 -15.417969 C 1.539062 -15.417969 1.558594 -15.425781 1.589844 -15.433594 C 1.648438 -15.453125 1.707031 -15.488281 1.753906 -15.539062 C 1.804688 -15.589844 1.839844 -15.644531 1.859375 -15.703125 C 1.867188 -15.734375 1.875 -15.753906 1.875 -15.769531 L 1.875 -0.367188 C 1.875 -0.386719 1.867188 -0.40625 1.859375 -0.433594 C 1.839844 -0.496094 1.804688 -0.550781 1.753906 -0.601562 C 1.707031 -0.652344 1.648438 -0.6875 1.589844 -0.707031 C 1.558594 -0.714844 1.539062 -0.71875 1.523438 -0.71875 Z M 1.523438 0.71875 C 1.199219 0.71875 0.9375 0.621094 0.734375 0.417969 C 0.535156 0.214844 0.433594 -0.046875 0.433594 -0.367188 L 0.433594 -15.769531 C 0.433594 -16.09375 0.535156 -16.355469 0.734375 -16.558594 C 0.9375 -16.761719 1.199219 -16.859375 1.523438 -16.859375 L 3.917969 -16.859375 C 4.242188 -16.859375 4.503906 -16.761719 4.707031 -16.558594 C 4.910156 -16.355469 5.007812 -16.09375 5.007812 -15.769531 L 5.007812 -0.367188 C 5.007812 -0.046875 4.910156 0.214844 4.707031 0.417969 C 4.503906 0.621094 4.242188 0.71875 3.917969 0.71875 Z M 1.523438 0.71875 "/></g></g><g style="fill:#b21a22;fill-opacity:1;"><g transform="translate(32.990016, 48.913117)"><path style="stroke:none" d="M 8.460938 -16.859375 L 10.628906 -16.859375 C 10.953125 -16.859375 11.214844 -16.761719 11.414062 -16.558594 C 11.617188 -16.355469 11.71875 -16.09375 11.71875 -15.769531 L 11.71875 -0.367188 C 11.71875 -0.046875 11.617188 0.214844 11.414062 0.417969 C 11.214844 0.621094 10.953125 0.71875 10.628906 0.71875 L 8.808594 0.71875 C 8.558594 0.71875 8.339844 0.648438 8.144531 0.507812 C 7.972656 0.386719 7.835938 0.214844 7.738281 0.00390625 L 8.394531 -0.300781 L 7.746094 0.0195312 L 3.410156 -8.789062 L 4.058594 -9.109375 L 4.777344 -9.109375 L 4.777344 -0.367188 C 4.777344 -0.046875 4.675781 0.214844 4.476562 0.417969 C 4.273438 0.621094 4.011719 0.71875 3.6875 0.71875 L 1.523438 0.71875 C 1.199219 0.71875 0.9375 0.621094 0.734375 0.417969 C 0.535156 0.214844 0.433594 -0.046875 0.433594 -0.367188 L 0.433594 -15.769531 C 0.433594 -16.09375 0.535156 -16.355469 0.734375 -16.558594 C 0.9375 -16.761719 1.199219 -16.859375 1.523438 -16.859375 L 3.34375 -16.859375 C 3.589844 -16.859375 3.8125 -16.789062 4.007812 -16.648438 C 4.179688 -16.527344 4.3125 -16.355469 4.414062 -16.144531 L 3.757812 -15.839844 L 4.40625 -16.160156 L 8.738281 -7.351562 L 8.09375 -7.03125 L 7.371094 -7.03125 L 7.371094 -15.769531 C 7.371094 -16.09375 7.472656 -16.355469 7.675781 -16.558594 C 7.878906 -16.761719 8.140625 -16.859375 8.460938 -16.859375 Z M 8.460938 -15.417969 C 8.480469 -15.417969 8.5 -15.425781 8.527344 -15.433594 C 8.589844 -15.453125 8.644531 -15.488281 8.695312 -15.539062 C 8.746094 -15.589844 8.78125 -15.644531 8.800781 -15.703125 C 8.808594 -15.734375 8.8125 -15.753906 8.8125 -15.769531 L 8.8125 -7.03125 L 7.445312 -6.714844 L 3.109375 -15.53125 L 3.105469 -15.539062 C 3.109375 -15.523438 3.128906 -15.503906 3.164062 -15.480469 C 3.21875 -15.441406 3.28125 -15.417969 3.34375 -15.417969 L 1.523438 -15.417969 C 1.539062 -15.417969 1.558594 -15.425781 1.589844 -15.433594 C 1.648438 -15.453125 1.707031 -15.488281 1.753906 -15.539062 C 1.804688 -15.589844 1.839844 -15.644531 1.859375 -15.703125 C 1.867188 -15.734375 1.875 -15.753906 1.875 -15.769531 L 1.875 -0.367188 C 1.875 -0.386719 1.867188 -0.40625 1.859375 -0.433594 C 1.839844 -0.496094 1.804688 -0.550781 1.753906 -0.601562 C 1.707031 -0.652344 1.648438 -0.6875 1.589844 -0.707031 C 1.558594 -0.714844 1.539062 -0.71875 1.523438 -0.71875 L 3.6875 -0.71875 C 3.671875 -0.71875 3.652344 -0.714844 3.621094 -0.707031 C 3.5625 -0.6875 3.503906 -0.652344 3.457031 -0.601562 C 3.40625 -0.550781 3.371094 -0.496094 3.351562 -0.433594 C 3.34375 -0.40625 3.335938 -0.386719 3.335938 -0.367188 L 3.335938 -9.109375 L 4.703125 -9.425781 L 9.042969 -0.609375 L 9.046875 -0.601562 C 9.039062 -0.617188 9.019531 -0.636719 8.988281 -0.660156 C 8.929688 -0.699219 8.871094 -0.71875 8.808594 -0.71875 L 10.628906 -0.71875 C 10.613281 -0.71875 10.589844 -0.714844 10.5625 -0.707031 C 10.5 -0.6875 10.445312 -0.652344 10.398438 -0.601562 C 10.347656 -0.550781 10.3125 -0.496094 10.292969 -0.433594 C 10.28125 -0.40625 10.277344 -0.386719 10.277344 -0.367188 L 10.277344 -15.769531 C 10.277344 -15.753906 10.28125 -15.734375 10.292969 -15.703125 C 10.3125 -15.644531 10.347656 -15.589844 10.398438 -15.539062 C 10.445312 -15.488281 10.5 -15.453125 10.5625 -15.433594 C 10.589844 -15.425781 10.613281 -15.417969 10.628906 -15.417969 Z M 8.460938 -15.417969 "/></g></g><g style="fill:#b21a22;fill-opacity:1;"><g transform="translate(45.137564, 48.913117)"><path style="stroke:none" d="M 11.121094 -12.820312 L 11.121094 -10.328125 C 11.121094 -10.007812 11.019531 -9.746094 10.816406 -9.542969 C 10.613281 -9.339844 10.351562 -9.242188 10.03125 -9.242188 L 7.863281 -9.242188 C 7.539062 -9.242188 7.277344 -9.339844 7.078125 -9.542969 C 6.875 -9.746094 6.773438 -10.007812 6.773438 -10.328125 L 6.773438 -12.21875 C 6.773438 -12.296875 6.765625 -12.355469 6.753906 -12.394531 C 6.75 -12.402344 6.746094 -12.410156 6.746094 -12.410156 C 6.746094 -12.410156 6.75 -12.40625 6.753906 -12.402344 C 6.757812 -12.398438 6.761719 -12.398438 6.761719 -12.394531 C 6.761719 -12.398438 6.753906 -12.398438 6.746094 -12.402344 C 6.707031 -12.414062 6.648438 -12.421875 6.570312 -12.421875 L 5.097656 -12.421875 C 5.019531 -12.421875 4.960938 -12.414062 4.921875 -12.402344 C 4.914062 -12.398438 4.90625 -12.398438 4.90625 -12.394531 C 4.90625 -12.398438 4.910156 -12.398438 4.914062 -12.402344 C 4.917969 -12.40625 4.917969 -12.410156 4.921875 -12.410156 C 4.917969 -12.410156 4.917969 -12.402344 4.914062 -12.394531 C 4.902344 -12.355469 4.894531 -12.296875 4.894531 -12.21875 L 4.894531 -3.851562 C 4.894531 -3.773438 4.902344 -3.714844 4.914062 -3.675781 C 4.917969 -3.667969 4.917969 -3.664062 4.921875 -3.660156 C 4.917969 -3.660156 4.917969 -3.664062 4.914062 -3.667969 C 4.910156 -3.671875 4.90625 -3.675781 4.90625 -3.675781 C 4.90625 -3.675781 4.914062 -3.671875 4.921875 -3.667969 C 4.960938 -3.65625 5.019531 -3.648438 5.097656 -3.648438 L 6.570312 -3.648438 C 6.648438 -3.648438 6.707031 -3.65625 6.746094 -3.667969 C 6.753906 -3.671875 6.761719 -3.675781 6.761719 -3.675781 C 6.761719 -3.675781 6.757812 -3.671875 6.753906 -3.667969 C 6.75 -3.664062 6.746094 -3.660156 6.746094 -3.660156 C 6.746094 -3.664062 6.75 -3.667969 6.753906 -3.675781 C 6.765625 -3.714844 6.773438 -3.773438 6.773438 -3.851562 L 6.773438 -5.808594 C 6.773438 -6.132812 6.875 -6.394531 7.078125 -6.597656 C 7.277344 -6.800781 7.539062 -6.898438 7.863281 -6.898438 L 10.03125 -6.898438 C 10.351562 -6.898438 10.613281 -6.800781 10.816406 -6.597656 C 11.019531 -6.394531 11.121094 -6.132812 11.121094 -5.808594 L 11.121094 -3.320312 C 11.121094 -2.046875 10.765625 -1.054688 10.054688 -0.34375 C 9.347656 0.367188 8.355469 0.71875 7.078125 0.71875 L 4.496094 0.71875 C 3.222656 0.71875 2.226562 0.367188 1.511719 -0.339844 C 0.792969 -1.050781 0.433594 -2.042969 0.433594 -3.320312 L 0.433594 -12.820312 C 0.433594 -14.113281 0.792969 -15.113281 1.515625 -15.816406 C 2.230469 -16.511719 3.226562 -16.859375 4.496094 -16.859375 L 7.078125 -16.859375 C 8.351562 -16.859375 9.34375 -16.511719 10.050781 -15.8125 C 10.765625 -15.109375 11.121094 -14.113281 11.121094 -12.820312 Z M 9.679688 -12.820312 C 9.679688 -13.710938 9.464844 -14.367188 9.039062 -14.785156 C 8.613281 -15.207031 7.957031 -15.417969 7.078125 -15.417969 L 4.496094 -15.417969 C 3.617188 -15.417969 2.957031 -15.207031 2.519531 -14.78125 C 2.089844 -14.363281 1.875 -13.707031 1.875 -12.820312 L 1.875 -3.320312 C 1.875 -2.445312 2.089844 -1.792969 2.523438 -1.367188 C 2.960938 -0.9375 3.617188 -0.71875 4.496094 -0.71875 L 7.078125 -0.71875 C 7.957031 -0.71875 8.609375 -0.933594 9.035156 -1.363281 C 9.464844 -1.789062 9.679688 -2.441406 9.679688 -3.320312 L 9.679688 -5.808594 C 9.679688 -5.792969 9.683594 -5.773438 9.691406 -5.742188 C 9.710938 -5.683594 9.746094 -5.628906 9.796875 -5.578125 C 9.847656 -5.527344 9.902344 -5.492188 9.964844 -5.472656 C 9.992188 -5.464844 10.011719 -5.457031 10.03125 -5.457031 L 7.863281 -5.457031 C 7.878906 -5.457031 7.902344 -5.464844 7.929688 -5.472656 C 7.992188 -5.492188 8.046875 -5.527344 8.09375 -5.578125 C 8.144531 -5.628906 8.179688 -5.683594 8.199219 -5.742188 C 8.210938 -5.773438 8.214844 -5.792969 8.214844 -5.808594 L 8.214844 -3.851562 C 8.214844 -3.34375 8.066406 -2.945312 7.773438 -2.648438 C 7.476562 -2.355469 7.078125 -2.207031 6.570312 -2.207031 L 5.097656 -2.207031 C 4.589844 -2.207031 4.1875 -2.355469 3.894531 -2.648438 C 3.601562 -2.945312 3.453125 -3.34375 3.453125 -3.851562 L 3.453125 -12.21875 C 3.453125 -12.726562 3.601562 -13.128906 3.894531 -13.421875 C 4.1875 -13.714844 4.589844 -13.863281 5.097656 -13.863281 L 6.570312 -13.863281 C 7.078125 -13.863281 7.476562 -13.714844 7.773438 -13.421875 C 8.066406 -13.128906 8.214844 -12.726562 8.214844 -12.21875 L 8.214844 -10.328125 C 8.214844 -10.347656 8.210938 -10.367188 8.199219 -10.394531 C 8.179688 -10.457031 8.144531 -10.511719 8.09375 -10.5625 C 8.046875 -10.613281 7.992188 -10.648438 7.929688 -10.667969 C 7.902344 -10.675781 7.878906 -10.679688 7.863281 -10.679688 L 10.03125 -10.679688 C 10.011719 -10.679688 9.992188 -10.675781 9.964844 -10.667969 C 9.902344 -10.648438 9.847656 -10.613281 9.796875 -10.5625 C 9.746094 -10.511719 9.710938 -10.457031 9.691406 -10.394531 C 9.683594 -10.367188 9.679688 -10.347656 9.679688 -10.328125 Z M 9.679688 -12.820312 "/></g></g><g style="fill:#b21a22;fill-opacity:1;"><g transform="translate(56.685802, 48.913117)"><path style="stroke:none" d="M 3.566406 -3.042969 L 3.566406 -15.769531 C 3.566406 -15.753906 3.574219 -15.734375 3.582031 -15.703125 C 3.601562 -15.644531 3.636719 -15.589844 3.6875 -15.539062 C 3.738281 -15.488281 3.792969 -15.453125 3.851562 -15.433594 C 3.882812 -15.425781 3.902344 -15.417969 3.917969 -15.417969 L 1.523438 -15.417969 C 1.539062 -15.417969 1.558594 -15.425781 1.589844 -15.433594 C 1.648438 -15.453125 1.707031 -15.488281 1.753906 -15.539062 C 1.804688 -15.589844 1.839844 -15.644531 1.859375 -15.703125 C 1.867188 -15.734375 1.875 -15.753906 1.875 -15.769531 L 1.875 -0.367188 C 1.875 -0.386719 1.867188 -0.40625 1.859375 -0.433594 C 1.839844 -0.496094 1.804688 -0.550781 1.753906 -0.601562 C 1.707031 -0.652344 1.648438 -0.6875 1.589844 -0.707031 C 1.558594 -0.714844 1.539062 -0.71875 1.523438 -0.71875 L 8.855469 -0.71875 C 8.835938 -0.71875 8.816406 -0.714844 8.789062 -0.707031 C 8.726562 -0.6875 8.671875 -0.652344 8.621094 -0.601562 C 8.570312 -0.550781 8.535156 -0.496094 8.515625 -0.433594 C 8.507812 -0.40625 8.503906 -0.386719 8.503906 -0.367188 L 8.503906 -2.675781 C 8.503906 -2.660156 8.507812 -2.636719 8.515625 -2.609375 C 8.535156 -2.546875 8.570312 -2.492188 8.621094 -2.441406 C 8.671875 -2.390625 8.726562 -2.355469 8.789062 -2.335938 C 8.816406 -2.328125 8.835938 -2.324219 8.855469 -2.324219 L 3.566406 -2.324219 Z M 5.007812 -3.042969 L 4.289062 -3.042969 L 4.289062 -3.765625 L 8.855469 -3.765625 C 9.175781 -3.765625 9.4375 -3.664062 9.640625 -3.460938 C 9.84375 -3.257812 9.945312 -2.996094 9.945312 -2.675781 L 9.945312 -0.367188 C 9.945312 -0.046875 9.84375 0.214844 9.640625 0.417969 C 9.4375 0.621094 9.175781 0.71875 8.855469 0.71875 L 1.523438 0.71875 C 1.199219 0.71875 0.9375 0.621094 0.734375 0.417969 C 0.535156 0.214844 0.433594 -0.046875 0.433594 -0.367188 L 0.433594 -15.769531 C 0.433594 -16.09375 0.535156 -16.355469 0.734375 -16.558594 C 0.9375 -16.761719 1.199219 -16.859375 1.523438 -16.859375 L 3.917969 -16.859375 C 4.242188 -16.859375 4.503906 -16.761719 4.707031 -16.558594 C 4.910156 -16.355469 5.007812 -16.09375 5.007812 -15.769531 Z M 5.007812 -3.042969 "/></g></g><g style="fill:#b21a22;fill-opacity:1;"><g transform="translate(67.058467, 48.913117)"><path style="stroke:none" d="M 7.792969 -16.859375 L 9.914062 -16.859375 C 10.238281 -16.859375 10.515625 -16.746094 10.746094 -16.511719 C 10.980469 -16.277344 11.097656 -16 11.097656 -15.679688 L 11.097656 -3.320312 C 11.097656 -2.046875 10.746094 -1.054688 10.046875 -0.347656 C 9.34375 0.363281 8.347656 0.71875 7.054688 0.71875 L 4.472656 0.71875 C 3.199219 0.71875 2.207031 0.367188 1.496094 -0.34375 C 0.785156 -1.054688 0.433594 -2.046875 0.433594 -3.320312 L 0.433594 -15.679688 C 0.433594 -16 0.546875 -16.277344 0.78125 -16.511719 C 1.015625 -16.746094 1.292969 -16.859375 1.613281 -16.859375 L 3.828125 -16.859375 C 4.148438 -16.859375 4.425781 -16.746094 4.660156 -16.511719 C 4.894531 -16.277344 5.007812 -16 5.007812 -15.679688 L 5.007812 -3.964844 C 5.007812 -3.890625 5.015625 -3.832031 5.03125 -3.789062 C 5.03125 -3.78125 5.035156 -3.777344 5.035156 -3.773438 C 5.035156 -3.777344 5.03125 -3.78125 5.027344 -3.785156 C 5.027344 -3.789062 5.023438 -3.789062 5.019531 -3.792969 C 5.023438 -3.789062 5.027344 -3.789062 5.035156 -3.785156 C 5.078125 -3.769531 5.136719 -3.765625 5.210938 -3.765625 L 6.410156 -3.765625 C 6.484375 -3.765625 6.542969 -3.769531 6.585938 -3.785156 C 6.59375 -3.789062 6.597656 -3.789062 6.601562 -3.792969 C 6.597656 -3.789062 6.59375 -3.789062 6.59375 -3.785156 C 6.589844 -3.78125 6.585938 -3.777344 6.585938 -3.773438 C 6.585938 -3.777344 6.589844 -3.78125 6.589844 -3.789062 C 6.605469 -3.832031 6.613281 -3.890625 6.613281 -3.964844 L 6.613281 -15.679688 C 6.613281 -16 6.726562 -16.277344 6.960938 -16.511719 C 7.195312 -16.746094 7.472656 -16.859375 7.792969 -16.859375 Z M 7.792969 -15.417969 C 7.871094 -15.417969 7.933594 -15.445312 7.980469 -15.492188 C 8.027344 -15.539062 8.054688 -15.601562 8.054688 -15.679688 L 8.054688 -3.964844 C 8.054688 -3.460938 7.90625 -3.058594 7.609375 -2.765625 C 7.316406 -2.46875 6.917969 -2.324219 6.410156 -2.324219 L 5.210938 -2.324219 C 4.703125 -2.324219 4.304688 -2.46875 4.007812 -2.765625 C 3.714844 -3.058594 3.566406 -3.460938 3.566406 -3.964844 L 3.566406 -15.679688 C 3.566406 -15.601562 3.59375 -15.539062 3.640625 -15.492188 C 3.6875 -15.445312 3.75 -15.417969 3.828125 -15.417969 L 1.613281 -15.417969 C 1.691406 -15.417969 1.753906 -15.445312 1.800781 -15.492188 C 1.847656 -15.539062 1.875 -15.601562 1.875 -15.679688 L 1.875 -3.320312 C 1.875 -2.441406 2.085938 -1.789062 2.515625 -1.363281 C 2.945312 -0.933594 3.597656 -0.71875 4.472656 -0.71875 L 7.054688 -0.71875 C 7.945312 -0.71875 8.601562 -0.933594 9.019531 -1.359375 C 9.445312 -1.789062 9.65625 -2.441406 9.65625 -3.320312 L 9.65625 -15.679688 C 9.65625 -15.601562 9.679688 -15.539062 9.726562 -15.492188 C 9.777344 -15.445312 9.839844 -15.417969 9.914062 -15.417969 Z M 7.792969 -15.417969 "/></g></g><g style="fill:#b21a22;fill-opacity:1;"><g transform="translate(78.583651, 48.913117)"><path style="stroke:none" d="M 0.433594 -0.367188 L 0.433594 -15.769531 C 0.433594 -16.09375 0.535156 -16.355469 0.734375 -16.558594 C 0.9375 -16.761719 1.199219 -16.859375 1.523438 -16.859375 L 7.054688 -16.859375 C 8.347656 -16.859375 9.34375 -16.503906 10.046875 -15.792969 C 10.746094 -15.085938 11.097656 -14.085938 11.097656 -12.796875 L 11.097656 -3.320312 C 11.097656 -2.046875 10.746094 -1.054688 10.046875 -0.347656 C 9.34375 0.363281 8.347656 0.71875 7.054688 0.71875 L 1.523438 0.71875 C 1.199219 0.71875 0.9375 0.621094 0.734375 0.417969 C 0.535156 0.214844 0.433594 -0.046875 0.433594 -0.367188 Z M 1.875 -0.367188 C 1.875 -0.386719 1.867188 -0.40625 1.859375 -0.433594 C 1.839844 -0.496094 1.804688 -0.550781 1.753906 -0.601562 C 1.707031 -0.652344 1.648438 -0.6875 1.589844 -0.707031 C 1.558594 -0.714844 1.539062 -0.71875 1.523438 -0.71875 L 7.054688 -0.71875 C 7.945312 -0.71875 8.601562 -0.933594 9.019531 -1.359375 C 9.445312 -1.789062 9.65625 -2.441406 9.65625 -3.320312 L 9.65625 -12.796875 C 9.65625 -13.691406 9.445312 -14.351562 9.019531 -14.78125 C 8.601562 -15.207031 7.945312 -15.417969 7.054688 -15.417969 L 1.523438 -15.417969 C 1.539062 -15.417969 1.558594 -15.425781 1.589844 -15.433594 C 1.648438 -15.453125 1.707031 -15.488281 1.753906 -15.539062 C 1.804688 -15.589844 1.839844 -15.644531 1.859375 -15.703125 C 1.867188 -15.734375 1.875 -15.753906 1.875 -15.769531 Z M 4.289062 -3.765625 L 6.410156 -3.765625 C 6.484375 -3.765625 6.542969 -3.769531 6.585938 -3.785156 C 6.59375 -3.789062 6.597656 -3.789062 6.601562 -3.792969 C 6.597656 -3.789062 6.59375 -3.789062 6.59375 -3.785156 C 6.589844 -3.78125 6.585938 -3.777344 6.585938 -3.773438 C 6.585938 -3.777344 6.589844 -3.78125 6.589844 -3.789062 C 6.605469 -3.832031 6.613281 -3.890625 6.613281 -3.964844 L 6.613281 -12.152344 C 6.613281 -12.234375 6.605469 -12.296875 6.589844 -12.34375 C 6.585938 -12.351562 6.582031 -12.359375 6.582031 -12.363281 C 6.582031 -12.363281 6.582031 -12.359375 6.585938 -12.355469 L 6.582031 -12.355469 C 6.539062 -12.371094 6.484375 -12.375 6.410156 -12.375 L 4.289062 -12.375 L 4.289062 -13.097656 L 5.007812 -13.097656 L 5.007812 -3.042969 L 4.289062 -3.042969 Z M 3.566406 -2.324219 L 3.566406 -13.816406 L 6.410156 -13.816406 C 6.921875 -13.816406 7.324219 -13.667969 7.617188 -13.363281 C 7.90625 -13.066406 8.054688 -12.660156 8.054688 -12.152344 L 8.054688 -3.964844 C 8.054688 -3.460938 7.90625 -3.058594 7.609375 -2.765625 C 7.316406 -2.46875 6.917969 -2.324219 6.410156 -2.324219 Z M 3.566406 -2.324219 "/></g></g><g style="fill:#b21a22;fill-opacity:1;"><g transform="translate(90.108835, 48.913117)"><path style="stroke:none" d="M 11.074219 -15.769531 L 11.074219 -13.464844 C 11.074219 -13.144531 10.976562 -12.882812 10.785156 -12.679688 C 10.582031 -12.460938 10.316406 -12.351562 9.984375 -12.351562 L 4.289062 -12.351562 L 4.289062 -13.074219 L 5.007812 -13.074219 L 5.007812 -9.523438 L 4.289062 -9.523438 L 4.289062 -10.242188 L 8.625 -10.242188 C 8.953125 -10.242188 9.222656 -10.136719 9.425781 -9.917969 C 9.617188 -9.714844 9.714844 -9.453125 9.714844 -9.128906 L 9.714844 -6.847656 C 9.714844 -6.527344 9.617188 -6.265625 9.425781 -6.058594 C 9.222656 -5.84375 8.953125 -5.734375 8.625 -5.734375 L 4.289062 -5.734375 L 4.289062 -6.457031 L 5.007812 -6.457031 L 5.007812 -3.042969 L 4.289062 -3.042969 L 4.289062 -3.765625 L 9.984375 -3.765625 C 10.304688 -3.765625 10.566406 -3.664062 10.769531 -3.460938 C 10.972656 -3.257812 11.074219 -2.996094 11.074219 -2.675781 L 11.074219 -0.367188 C 11.074219 -0.046875 10.972656 0.214844 10.769531 0.417969 C 10.566406 0.621094 10.304688 0.71875 9.984375 0.71875 L 1.5 0.71875 C 1.175781 0.71875 0.914062 0.613281 0.714844 0.402344 C 0.527344 0.199219 0.433594 -0.0546875 0.433594 -0.367188 L 0.433594 -15.769531 C 0.433594 -16.085938 0.527344 -16.339844 0.714844 -16.539062 C 0.914062 -16.753906 1.175781 -16.859375 1.5 -16.859375 L 9.984375 -16.859375 C 10.304688 -16.859375 10.566406 -16.761719 10.769531 -16.558594 C 10.972656 -16.355469 11.074219 -16.09375 11.074219 -15.769531 Z M 9.632812 -15.769531 C 9.632812 -15.753906 9.636719 -15.734375 9.644531 -15.703125 C 9.667969 -15.644531 9.703125 -15.589844 9.75 -15.539062 C 9.800781 -15.488281 9.855469 -15.453125 9.917969 -15.433594 C 9.945312 -15.425781 9.96875 -15.417969 9.984375 -15.417969 L 1.5 -15.417969 C 1.589844 -15.417969 1.679688 -15.464844 1.765625 -15.554688 C 1.8125 -15.605469 1.84375 -15.660156 1.863281 -15.71875 C 1.871094 -15.742188 1.875 -15.757812 1.875 -15.769531 L 1.875 -0.367188 C 1.875 -0.378906 1.871094 -0.398438 1.863281 -0.421875 C 1.84375 -0.480469 1.8125 -0.535156 1.765625 -0.585938 C 1.679688 -0.675781 1.589844 -0.71875 1.5 -0.71875 L 9.984375 -0.71875 C 9.96875 -0.71875 9.945312 -0.714844 9.917969 -0.707031 C 9.855469 -0.6875 9.800781 -0.652344 9.75 -0.601562 C 9.703125 -0.550781 9.667969 -0.496094 9.644531 -0.433594 C 9.636719 -0.40625 9.632812 -0.386719 9.632812 -0.367188 L 9.632812 -2.675781 C 9.632812 -2.660156 9.636719 -2.636719 9.644531 -2.609375 C 9.667969 -2.546875 9.703125 -2.492188 9.75 -2.441406 C 9.800781 -2.390625 9.855469 -2.355469 9.917969 -2.335938 C 9.945312 -2.328125 9.96875 -2.324219 9.984375 -2.324219 L 3.566406 -2.324219 L 3.566406 -7.175781 L 8.625 -7.175781 C 8.601562 -7.175781 8.574219 -7.171875 8.542969 -7.160156 C 8.480469 -7.136719 8.425781 -7.101562 8.375 -7.046875 C 8.332031 -7 8.300781 -6.949219 8.28125 -6.890625 C 8.273438 -6.871094 8.273438 -6.855469 8.273438 -6.847656 L 8.273438 -9.128906 C 8.273438 -9.121094 8.273438 -9.109375 8.28125 -9.085938 C 8.300781 -9.03125 8.332031 -8.980469 8.375 -8.929688 C 8.425781 -8.878906 8.480469 -8.839844 8.542969 -8.820312 C 8.574219 -8.808594 8.601562 -8.800781 8.625 -8.800781 L 3.566406 -8.800781 L 3.566406 -13.792969 L 9.984375 -13.792969 C 9.964844 -13.792969 9.9375 -13.789062 9.90625 -13.777344 C 9.839844 -13.753906 9.785156 -13.71875 9.734375 -13.664062 C 9.691406 -13.617188 9.660156 -13.566406 9.640625 -13.511719 C 9.636719 -13.488281 9.632812 -13.472656 9.632812 -13.464844 Z M 9.632812 -15.769531 "/></g></g><g style="fill:#b21a22;fill-opacity:1;"><g transform="translate(101.610965, 48.913117)"><path style="stroke:none" d="M -0.71875 3.089844 L -0.71875 0.96875 C -0.71875 0.617188 -0.613281 0.332031 -0.394531 0.113281 C -0.175781 -0.105469 0.109375 -0.214844 0.460938 -0.214844 L 14.363281 -0.214844 C 14.71875 -0.214844 15.003906 -0.105469 15.21875 0.113281 C 15.4375 0.332031 15.546875 0.617188 15.546875 0.96875 L 15.546875 3.089844 C 15.546875 3.441406 15.4375 3.726562 15.21875 3.945312 C 15.003906 4.164062 14.71875 4.269531 14.363281 4.269531 L 0.460938 4.269531 C 0.109375 4.269531 -0.175781 4.164062 -0.394531 3.945312 C -0.613281 3.726562 -0.71875 3.441406 -0.71875 3.089844 Z M 0.71875 3.089844 C 0.71875 3.09375 0.71875 3.09375 0.722656 3.097656 C 0.722656 3.097656 0.722656 3.097656 0.71875 3.097656 C 0.71875 3.085938 0.714844 3.074219 0.710938 3.0625 C 0.695312 3.011719 0.667969 2.96875 0.625 2.925781 C 0.582031 2.882812 0.539062 2.855469 0.488281 2.839844 C 0.476562 2.835938 0.464844 2.832031 0.453125 2.832031 C 0.453125 2.832031 0.453125 2.828125 0.453125 2.828125 C 0.457031 2.832031 0.457031 2.832031 0.460938 2.832031 L 14.363281 2.832031 C 14.367188 2.832031 14.371094 2.832031 14.371094 2.828125 C 14.371094 2.828125 14.371094 2.832031 14.371094 2.832031 C 14.363281 2.832031 14.351562 2.835938 14.339844 2.839844 C 14.289062 2.855469 14.242188 2.882812 14.203125 2.925781 C 14.160156 2.96875 14.128906 3.011719 14.113281 3.0625 C 14.109375 3.074219 14.105469 3.085938 14.105469 3.097656 C 14.105469 3.09375 14.105469 3.09375 14.105469 3.089844 L 14.105469 0.96875 C 14.105469 0.964844 14.105469 0.960938 14.105469 0.960938 C 14.105469 0.972656 14.109375 0.980469 14.113281 0.996094 C 14.128906 1.042969 14.160156 1.089844 14.203125 1.132812 C 14.242188 1.175781 14.289062 1.203125 14.339844 1.21875 C 14.351562 1.222656 14.363281 1.226562 14.371094 1.226562 C 14.371094 1.226562 14.367188 1.226562 14.363281 1.226562 L 0.460938 1.226562 C 0.457031 1.226562 0.457031 1.226562 0.453125 1.226562 C 0.464844 1.226562 0.476562 1.222656 0.488281 1.21875 C 0.539062 1.203125 0.582031 1.175781 0.625 1.132812 C 0.667969 1.089844 0.695312 1.042969 0.710938 0.996094 C 0.714844 0.980469 0.71875 0.972656 0.71875 0.960938 C 0.722656 0.960938 0.722656 0.960938 0.722656 0.960938 C 0.71875 0.960938 0.71875 0.964844 0.71875 0.96875 Z M 0.71875 3.089844 "/></g></g><g style="fill:#b21a22;fill-opacity:1;"><g transform="translate(41.961168, 81.059406)"><path style="stroke:none" d="M 14.203125 -16.859375 L 16.371094 -16.859375 C 16.753906 -16.859375 17.050781 -16.742188 17.269531 -16.503906 C 17.492188 -16.253906 17.578125 -15.9375 17.523438 -15.554688 L 15.308594 -0.3125 C 15.253906 0.015625 15.113281 0.269531 14.890625 0.453125 C 14.671875 0.632812 14.40625 0.71875 14.089844 0.71875 L 11.597656 0.71875 C 11.296875 0.71875 11.035156 0.632812 10.820312 0.453125 C 10.617188 0.289062 10.476562 0.0625 10.394531 -0.222656 L 10.390625 -0.238281 L 8.265625 -9.710938 L 8.96875 -9.867188 L 9.671875 -9.710938 L 7.527344 -0.253906 C 7.460938 0.0429688 7.320312 0.28125 7.109375 0.453125 C 6.890625 0.632812 6.628906 0.71875 6.316406 0.71875 L 3.78125 0.71875 C 3.457031 0.71875 3.183594 0.625 2.964844 0.4375 C 2.746094 0.246094 2.613281 -0.0078125 2.5625 -0.324219 L 0.4375 -15.558594 C 0.382812 -15.941406 0.46875 -16.253906 0.695312 -16.503906 C 0.910156 -16.742188 1.207031 -16.859375 1.589844 -16.859375 L 3.757812 -16.859375 C 4.082031 -16.859375 4.351562 -16.761719 4.570312 -16.566406 C 4.777344 -16.378906 4.90625 -16.128906 4.953125 -15.816406 L 4.957031 -15.800781 L 6.089844 -6.148438 L 5.371094 -6.0625 L 5.371094 -6.785156 L 5.488281 -6.785156 L 5.488281 -6.0625 L 4.785156 -6.226562 L 7.050781 -15.933594 L 7.054688 -15.953125 C 7.136719 -16.230469 7.285156 -16.453125 7.492188 -16.613281 C 7.707031 -16.777344 7.960938 -16.859375 8.253906 -16.859375 L 9.660156 -16.859375 C 9.957031 -16.859375 10.210938 -16.777344 10.425781 -16.613281 C 10.632812 -16.453125 10.777344 -16.230469 10.859375 -15.953125 L 10.867188 -15.933594 L 13.128906 -6.226562 L 12.429688 -6.0625 L 12.429688 -6.785156 L 12.542969 -6.785156 L 12.542969 -6.0625 L 11.828125 -6.152344 L 13.003906 -15.800781 L 13.007812 -15.816406 C 13.058594 -16.128906 13.183594 -16.378906 13.390625 -16.566406 C 13.609375 -16.761719 13.878906 -16.859375 14.203125 -16.859375 Z M 14.203125 -15.417969 C 14.25 -15.417969 14.300781 -15.445312 14.359375 -15.496094 C 14.390625 -15.523438 14.410156 -15.554688 14.425781 -15.585938 C 14.429688 -15.59375 14.433594 -15.597656 14.433594 -15.601562 C 14.433594 -15.601562 14.433594 -15.597656 14.429688 -15.589844 L 13.71875 -15.703125 L 14.433594 -15.613281 L 13.179688 -5.34375 L 11.855469 -5.34375 L 9.464844 -15.585938 L 10.167969 -15.75 L 9.476562 -15.546875 C 9.476562 -15.546875 9.476562 -15.550781 9.476562 -15.550781 C 9.476562 -15.546875 9.480469 -15.542969 9.484375 -15.535156 C 9.496094 -15.511719 9.519531 -15.492188 9.542969 -15.472656 C 9.589844 -15.4375 9.628906 -15.417969 9.660156 -15.417969 L 8.253906 -15.417969 C 8.289062 -15.417969 8.328125 -15.4375 8.371094 -15.472656 C 8.398438 -15.492188 8.417969 -15.511719 8.433594 -15.535156 C 8.4375 -15.542969 8.4375 -15.546875 8.441406 -15.550781 C 8.441406 -15.550781 8.441406 -15.546875 8.4375 -15.546875 L 7.746094 -15.75 L 8.449219 -15.585938 L 6.058594 -5.34375 L 4.730469 -5.34375 L 3.527344 -15.617188 L 4.242188 -15.703125 L 3.53125 -15.589844 C 3.53125 -15.597656 3.527344 -15.601562 3.527344 -15.601562 C 3.53125 -15.597656 3.53125 -15.59375 3.535156 -15.585938 C 3.550781 -15.554688 3.574219 -15.523438 3.601562 -15.496094 C 3.660156 -15.445312 3.710938 -15.417969 3.757812 -15.417969 L 1.589844 -15.417969 C 1.582031 -15.417969 1.574219 -15.417969 1.574219 -15.417969 C 1.578125 -15.421875 1.589844 -15.421875 1.601562 -15.425781 C 1.660156 -15.445312 1.714844 -15.484375 1.761719 -15.535156 C 1.8125 -15.59375 1.847656 -15.65625 1.859375 -15.722656 C 1.863281 -15.738281 1.863281 -15.753906 1.863281 -15.765625 C 1.867188 -15.765625 1.867188 -15.761719 1.867188 -15.753906 L 3.984375 -0.550781 C 3.988281 -0.546875 3.988281 -0.542969 3.988281 -0.542969 C 3.984375 -0.550781 3.984375 -0.554688 3.980469 -0.5625 C 3.960938 -0.597656 3.9375 -0.628906 3.90625 -0.65625 C 3.875 -0.683594 3.839844 -0.703125 3.804688 -0.714844 C 3.792969 -0.71875 3.785156 -0.71875 3.777344 -0.71875 L 6.316406 -0.71875 C 6.285156 -0.71875 6.242188 -0.699219 6.195312 -0.660156 C 6.167969 -0.636719 6.144531 -0.613281 6.128906 -0.582031 C 6.125 -0.578125 6.121094 -0.570312 6.121094 -0.566406 C 6.121094 -0.566406 6.121094 -0.570312 6.121094 -0.574219 L 8.265625 -10.027344 L 9.671875 -10.027344 L 11.792969 -0.574219 L 11.089844 -0.414062 L 11.785156 -0.609375 C 11.785156 -0.601562 11.789062 -0.597656 11.789062 -0.59375 C 11.789062 -0.59375 11.789062 -0.597656 11.785156 -0.601562 C 11.773438 -0.621094 11.753906 -0.640625 11.730469 -0.660156 C 11.683594 -0.699219 11.640625 -0.71875 11.597656 -0.71875 L 14.089844 -0.71875 C 14.09375 -0.71875 14.097656 -0.71875 14.097656 -0.722656 C 14.09375 -0.71875 14.085938 -0.71875 14.078125 -0.714844 C 14.042969 -0.707031 14.011719 -0.6875 13.976562 -0.660156 C 13.921875 -0.617188 13.890625 -0.570312 13.882812 -0.519531 L 16.09375 -15.757812 C 16.097656 -15.761719 16.097656 -15.765625 16.097656 -15.765625 C 16.097656 -15.753906 16.097656 -15.738281 16.101562 -15.722656 C 16.117188 -15.65625 16.148438 -15.59375 16.199219 -15.535156 C 16.246094 -15.484375 16.300781 -15.445312 16.359375 -15.425781 C 16.371094 -15.421875 16.382812 -15.421875 16.390625 -15.417969 C 16.386719 -15.417969 16.378906 -15.417969 16.371094 -15.417969 Z M 14.203125 -15.417969 "/></g></g><g style="fill:#b21a22;fill-opacity:1;"><g transform="translate(59.640798, 81.059406)"><path style="stroke:none" d="M 1.523438 -0.71875 L 3.917969 -0.71875 C 3.902344 -0.71875 3.882812 -0.714844 3.851562 -0.707031 C 3.792969 -0.6875 3.738281 -0.652344 3.6875 -0.601562 C 3.636719 -0.550781 3.601562 -0.496094 3.582031 -0.433594 C 3.574219 -0.40625 3.566406 -0.386719 3.566406 -0.367188 L 3.566406 -15.769531 C 3.566406 -15.753906 3.574219 -15.734375 3.582031 -15.703125 C 3.601562 -15.644531 3.636719 -15.589844 3.6875 -15.539062 C 3.738281 -15.488281 3.792969 -15.453125 3.851562 -15.433594 C 3.882812 -15.425781 3.902344 -15.417969 3.917969 -15.417969 L 1.523438 -15.417969 C 1.539062 -15.417969 1.558594 -15.425781 1.589844 -15.433594 C 1.648438 -15.453125 1.707031 -15.488281 1.753906 -15.539062 C 1.804688 -15.589844 1.839844 -15.644531 1.859375 -15.703125 C 1.867188 -15.734375 1.875 -15.753906 1.875 -15.769531 L 1.875 -0.367188 C 1.875 -0.386719 1.867188 -0.40625 1.859375 -0.433594 C 1.839844 -0.496094 1.804688 -0.550781 1.753906 -0.601562 C 1.707031 -0.652344 1.648438 -0.6875 1.589844 -0.707031 C 1.558594 -0.714844 1.539062 -0.71875 1.523438 -0.71875 Z M 1.523438 0.71875 C 1.199219 0.71875 0.9375 0.621094 0.734375 0.417969 C 0.535156 0.214844 0.433594 -0.046875 0.433594 -0.367188 L 0.433594 -15.769531 C 0.433594 -16.09375 0.535156 -16.355469 0.734375 -16.558594 C 0.9375 -16.761719 1.199219 -16.859375 1.523438 -16.859375 L 3.917969 -16.859375 C 4.242188 -16.859375 4.503906 -16.761719 4.707031 -16.558594 C 4.910156 -16.355469 5.007812 -16.09375 5.007812 -15.769531 L 5.007812 -0.367188 C 5.007812 -0.046875 4.910156 0.214844 4.707031 0.417969 C 4.503906 0.621094 4.242188 0.71875 3.917969 0.71875 Z M 1.523438 0.71875 "/></g></g><g style="fill:#b21a22;fill-opacity:1;"><g transform="translate(65.080681, 81.059406)"><path style="stroke:none" d="M 9.546875 -15.417969 L 1.0625 -15.417969 C 1.078125 -15.417969 1.097656 -15.425781 1.128906 -15.433594 C 1.1875 -15.453125 1.242188 -15.488281 1.292969 -15.539062 C 1.34375 -15.589844 1.378906 -15.644531 1.398438 -15.703125 C 1.40625 -15.734375 1.414062 -15.753906 1.414062 -15.769531 L 1.414062 -13.464844 C 1.414062 -13.480469 1.40625 -13.503906 1.398438 -13.53125 C 1.378906 -13.59375 1.34375 -13.648438 1.292969 -13.699219 C 1.242188 -13.746094 1.1875 -13.78125 1.128906 -13.804688 C 1.097656 -13.8125 1.078125 -13.816406 1.0625 -13.816406 L 4.457031 -13.816406 L 4.457031 -0.367188 C 4.457031 -0.386719 4.453125 -0.40625 4.441406 -0.433594 C 4.421875 -0.496094 4.386719 -0.550781 4.335938 -0.601562 C 4.289062 -0.652344 4.230469 -0.6875 4.171875 -0.707031 C 4.144531 -0.714844 4.121094 -0.71875 4.105469 -0.71875 L 6.503906 -0.71875 C 6.484375 -0.71875 6.464844 -0.714844 6.4375 -0.707031 C 6.375 -0.6875 6.320312 -0.652344 6.269531 -0.601562 C 6.21875 -0.550781 6.183594 -0.496094 6.164062 -0.433594 C 6.15625 -0.40625 6.152344 -0.386719 6.152344 -0.367188 L 6.152344 -13.816406 L 9.546875 -13.816406 C 9.53125 -13.816406 9.507812 -13.8125 9.480469 -13.804688 C 9.417969 -13.78125 9.363281 -13.746094 9.3125 -13.699219 C 9.261719 -13.648438 9.230469 -13.59375 9.207031 -13.53125 C 9.199219 -13.503906 9.195312 -13.480469 9.195312 -13.464844 L 9.195312 -15.769531 C 9.195312 -15.753906 9.199219 -15.734375 9.207031 -15.703125 C 9.230469 -15.644531 9.261719 -15.589844 9.3125 -15.539062 C 9.363281 -15.488281 9.417969 -15.453125 9.480469 -15.433594 C 9.507812 -15.425781 9.53125 -15.417969 9.546875 -15.417969 Z M 9.546875 -16.859375 C 9.867188 -16.859375 10.128906 -16.761719 10.332031 -16.558594 C 10.535156 -16.355469 10.636719 -16.09375 10.636719 -15.769531 L 10.636719 -13.464844 C 10.636719 -13.144531 10.535156 -12.882812 10.332031 -12.679688 C 10.128906 -12.476562 9.867188 -12.375 9.546875 -12.375 L 6.871094 -12.375 L 6.871094 -13.097656 L 7.589844 -13.097656 L 7.589844 -0.367188 C 7.589844 -0.046875 7.492188 0.214844 7.289062 0.417969 C 7.085938 0.621094 6.824219 0.71875 6.503906 0.71875 L 4.105469 0.71875 C 3.78125 0.71875 3.519531 0.621094 3.316406 0.417969 C 3.117188 0.214844 3.015625 -0.046875 3.015625 -0.367188 L 3.015625 -13.097656 L 3.734375 -13.097656 L 3.734375 -12.375 L 1.0625 -12.375 C 0.738281 -12.375 0.476562 -12.476562 0.273438 -12.679688 C 0.0703125 -12.882812 -0.0273438 -13.144531 -0.0273438 -13.464844 L -0.0273438 -15.769531 C -0.0273438 -16.09375 0.0703125 -16.355469 0.273438 -16.558594 C 0.476562 -16.761719 0.738281 -16.859375 1.0625 -16.859375 Z M 9.546875 -16.859375 "/></g></g><g style="fill:#b21a22;fill-opacity:1;"><g transform="translate(75.683852, 81.059406)"><path style="stroke:none" d="M 6.519531 -9.546875 L 6.519531 -15.769531 C 6.519531 -16.09375 6.621094 -16.355469 6.824219 -16.558594 C 7.023438 -16.761719 7.285156 -16.859375 7.609375 -16.859375 L 9.984375 -16.859375 C 10.304688 -16.859375 10.566406 -16.765625 10.773438 -16.574219 C 10.988281 -16.367188 11.097656 -16.101562 11.097656 -15.769531 L 11.097656 -0.367188 C 11.097656 -0.0390625 10.988281 0.230469 10.773438 0.433594 C 10.566406 0.625 10.304688 0.71875 9.984375 0.71875 L 7.609375 0.71875 C 7.285156 0.71875 7.023438 0.621094 6.824219 0.417969 C 6.621094 0.214844 6.519531 -0.046875 6.519531 -0.367188 L 6.519531 -6.503906 L 7.238281 -6.503906 L 7.238281 -5.78125 L 4.289062 -5.78125 L 4.289062 -6.503906 L 5.007812 -6.503906 L 5.007812 -0.367188 C 5.007812 -0.046875 4.910156 0.214844 4.707031 0.417969 C 4.503906 0.621094 4.242188 0.71875 3.917969 0.71875 L 1.542969 0.71875 C 1.222656 0.71875 0.960938 0.625 0.757812 0.433594 C 0.539062 0.230469 0.433594 -0.0390625 0.433594 -0.367188 L 0.433594 -15.769531 C 0.433594 -16.101562 0.539062 -16.367188 0.757812 -16.574219 C 0.960938 -16.765625 1.222656 -16.859375 1.542969 -16.859375 L 3.917969 -16.859375 C 4.242188 -16.859375 4.503906 -16.761719 4.707031 -16.558594 C 4.910156 -16.355469 5.007812 -16.09375 5.007812 -15.769531 L 5.007812 -9.546875 L 4.289062 -9.546875 L 4.289062 -10.265625 L 7.238281 -10.265625 L 7.238281 -9.546875 Z M 7.960938 -8.824219 L 3.566406 -8.824219 L 3.566406 -15.769531 C 3.566406 -15.753906 3.574219 -15.734375 3.582031 -15.703125 C 3.601562 -15.644531 3.636719 -15.589844 3.6875 -15.539062 C 3.738281 -15.488281 3.792969 -15.453125 3.851562 -15.433594 C 3.882812 -15.425781 3.902344 -15.417969 3.917969 -15.417969 L 1.542969 -15.417969 C 1.554688 -15.417969 1.566406 -15.421875 1.589844 -15.429688 C 1.644531 -15.449219 1.695312 -15.480469 1.746094 -15.523438 C 1.796875 -15.574219 1.835938 -15.628906 1.855469 -15.691406 C 1.867188 -15.722656 1.875 -15.75 1.875 -15.769531 L 1.875 -0.367188 C 1.875 -0.390625 1.867188 -0.417969 1.855469 -0.449219 C 1.835938 -0.511719 1.796875 -0.566406 1.746094 -0.617188 C 1.695312 -0.660156 1.644531 -0.691406 1.589844 -0.710938 C 1.566406 -0.71875 1.554688 -0.71875 1.542969 -0.71875 L 3.917969 -0.71875 C 3.902344 -0.71875 3.882812 -0.714844 3.851562 -0.707031 C 3.792969 -0.6875 3.738281 -0.652344 3.6875 -0.601562 C 3.636719 -0.550781 3.601562 -0.496094 3.582031 -0.433594 C 3.574219 -0.40625 3.566406 -0.386719 3.566406 -0.367188 L 3.566406 -7.222656 L 7.960938 -7.222656 L 7.960938 -0.367188 C 7.960938 -0.386719 7.957031 -0.40625 7.945312 -0.433594 C 7.925781 -0.496094 7.890625 -0.550781 7.84375 -0.601562 C 7.792969 -0.652344 7.738281 -0.6875 7.675781 -0.707031 C 7.648438 -0.714844 7.625 -0.71875 7.609375 -0.71875 L 9.984375 -0.71875 C 9.976562 -0.71875 9.960938 -0.71875 9.941406 -0.710938 C 9.882812 -0.691406 9.832031 -0.660156 9.785156 -0.617188 C 9.730469 -0.566406 9.695312 -0.511719 9.671875 -0.449219 C 9.660156 -0.417969 9.65625 -0.390625 9.65625 -0.367188 L 9.65625 -15.769531 C 9.65625 -15.75 9.660156 -15.722656 9.671875 -15.691406 C 9.695312 -15.628906 9.730469 -15.574219 9.785156 -15.523438 C 9.832031 -15.480469 9.882812 -15.449219 9.941406 -15.429688 C 9.960938 -15.421875 9.976562 -15.417969 9.984375 -15.417969 L 7.609375 -15.417969 C 7.625 -15.417969 7.648438 -15.425781 7.675781 -15.433594 C 7.738281 -15.453125 7.792969 -15.488281 7.84375 -15.539062 C 7.890625 -15.589844 7.925781 -15.644531 7.945312 -15.703125 C 7.957031 -15.734375 7.960938 -15.753906 7.960938 -15.769531 Z M 7.960938 -8.824219 "/></g></g><g style="fill:#b21a22;fill-opacity:1;"><g transform="translate(87.209036, 81.059406)"><path style="stroke:none" d="M -0.71875 3.089844 L -0.71875 0.96875 C -0.71875 0.617188 -0.613281 0.332031 -0.394531 0.113281 C -0.175781 -0.105469 0.109375 -0.214844 0.460938 -0.214844 L 14.363281 -0.214844 C 14.71875 -0.214844 15.003906 -0.105469 15.21875 0.113281 C 15.4375 0.332031 15.546875 0.617188 15.546875 0.96875 L 15.546875 3.089844 C 15.546875 3.441406 15.4375 3.726562 15.21875 3.945312 C 15.003906 4.164062 14.71875 4.269531 14.363281 4.269531 L 0.460938 4.269531 C 0.109375 4.269531 -0.175781 4.164062 -0.394531 3.945312 C -0.613281 3.726562 -0.71875 3.441406 -0.71875 3.089844 Z M 0.71875 3.089844 C 0.71875 3.09375 0.71875 3.09375 0.722656 3.097656 C 0.722656 3.097656 0.722656 3.097656 0.71875 3.097656 C 0.71875 3.085938 0.714844 3.074219 0.710938 3.0625 C 0.695312 3.011719 0.667969 2.96875 0.625 2.925781 C 0.582031 2.882812 0.539062 2.855469 0.488281 2.839844 C 0.476562 2.835938 0.464844 2.832031 0.453125 2.832031 C 0.453125 2.832031 0.453125 2.828125 0.453125 2.828125 C 0.457031 2.832031 0.457031 2.832031 0.460938 2.832031 L 14.363281 2.832031 C 14.367188 2.832031 14.371094 2.832031 14.371094 2.828125 C 14.371094 2.828125 14.371094 2.832031 14.371094 2.832031 C 14.363281 2.832031 14.351562 2.835938 14.339844 2.839844 C 14.289062 2.855469 14.242188 2.882812 14.203125 2.925781 C 14.160156 2.96875 14.128906 3.011719 14.113281 3.0625 C 14.109375 3.074219 14.105469 3.085938 14.105469 3.097656 C 14.105469 3.09375 14.105469 3.09375 14.105469 3.089844 L 14.105469 0.96875 C 14.105469 0.964844 14.105469 0.960938 14.105469 0.960938 C 14.105469 0.972656 14.109375 0.980469 14.113281 0.996094 C 14.128906 1.042969 14.160156 1.089844 14.203125 1.132812 C 14.242188 1.175781 14.289062 1.203125 14.339844 1.21875 C 14.351562 1.222656 14.363281 1.226562 14.371094 1.226562 C 14.371094 1.226562 14.367188 1.226562 14.363281 1.226562 L 0.460938 1.226562 C 0.457031 1.226562 0.457031 1.226562 0.453125 1.226562 C 0.464844 1.226562 0.476562 1.222656 0.488281 1.21875 C 0.539062 1.203125 0.582031 1.175781 0.625 1.132812 C 0.667969 1.089844 0.695312 1.042969 0.710938 0.996094 C 0.714844 0.980469 0.71875 0.972656 0.71875 0.960938 C 0.722656 0.960938 0.722656 0.960938 0.722656 0.960938 C 0.71875 0.960938 0.71875 0.964844 0.71875 0.96875 Z M 0.71875 3.089844 "/></g></g><g style="fill:#b21a22;fill-opacity:1;"><g transform="translate(32.125499, 113.205696)"><path style="stroke:none" d="M 11.097656 -12.820312 L 11.097656 -8.183594 C 11.097656 -6.582031 10.554688 -5.441406 9.464844 -4.761719 L 9.085938 -5.371094 L 9.785156 -5.542969 L 10.984375 -0.585938 L 10.285156 -0.414062 L 10.976562 -0.609375 C 11.082031 -0.238281 11.03125 0.078125 10.828125 0.339844 C 10.632812 0.59375 10.34375 0.71875 9.960938 0.71875 L 7.703125 0.71875 C 7.421875 0.71875 7.183594 0.640625 6.984375 0.476562 C 6.789062 0.316406 6.664062 0.0976562 6.605469 -0.171875 L 7.308594 -0.324219 L 6.609375 -0.152344 L 5.503906 -4.695312 L 6.203125 -4.863281 L 6.203125 -4.144531 L 4.148438 -4.144531 L 4.148438 -4.863281 L 4.871094 -4.863281 L 4.871094 -0.367188 C 4.871094 -0.046875 4.769531 0.214844 4.566406 0.417969 C 4.367188 0.621094 4.101562 0.71875 3.78125 0.71875 L 1.523438 0.71875 C 1.199219 0.71875 0.9375 0.621094 0.734375 0.417969 C 0.535156 0.214844 0.433594 -0.046875 0.433594 -0.367188 L 0.433594 -15.769531 C 0.433594 -16.09375 0.535156 -16.355469 0.734375 -16.558594 C 0.9375 -16.761719 1.199219 -16.859375 1.523438 -16.859375 L 7.054688 -16.859375 C 8.347656 -16.859375 9.34375 -16.511719 10.042969 -15.808594 C 10.746094 -15.105469 11.097656 -14.109375 11.097656 -12.820312 Z M 9.65625 -12.820312 C 9.65625 -13.710938 9.445312 -14.367188 9.023438 -14.789062 C 8.605469 -15.210938 7.949219 -15.417969 7.054688 -15.417969 L 1.523438 -15.417969 C 1.539062 -15.417969 1.558594 -15.425781 1.589844 -15.433594 C 1.648438 -15.453125 1.707031 -15.488281 1.753906 -15.539062 C 1.804688 -15.589844 1.839844 -15.644531 1.859375 -15.703125 C 1.867188 -15.734375 1.875 -15.753906 1.875 -15.769531 L 1.875 -0.367188 C 1.875 -0.386719 1.867188 -0.40625 1.859375 -0.433594 C 1.839844 -0.496094 1.804688 -0.550781 1.753906 -0.601562 C 1.707031 -0.652344 1.648438 -0.6875 1.589844 -0.707031 C 1.558594 -0.714844 1.539062 -0.71875 1.523438 -0.71875 L 3.78125 -0.71875 C 3.765625 -0.71875 3.742188 -0.714844 3.714844 -0.707031 C 3.652344 -0.6875 3.597656 -0.652344 3.546875 -0.601562 C 3.5 -0.550781 3.464844 -0.496094 3.445312 -0.433594 C 3.433594 -0.40625 3.429688 -0.386719 3.429688 -0.367188 L 3.429688 -5.585938 L 6.769531 -5.585938 L 8.011719 -0.484375 L 8.015625 -0.472656 C 8 -0.53125 7.964844 -0.585938 7.898438 -0.636719 C 7.832031 -0.691406 7.765625 -0.71875 7.703125 -0.71875 L 9.960938 -0.71875 C 9.945312 -0.71875 9.929688 -0.714844 9.910156 -0.707031 C 9.824219 -0.675781 9.753906 -0.625 9.691406 -0.546875 C 9.628906 -0.464844 9.59375 -0.378906 9.589844 -0.285156 C 9.585938 -0.253906 9.585938 -0.234375 9.589844 -0.222656 L 9.585938 -0.234375 L 8.261719 -5.707031 L 8.703125 -5.984375 C 9.335938 -6.378906 9.65625 -7.113281 9.65625 -8.183594 Z M 4.148438 -8.558594 L 6.457031 -8.558594 C 6.53125 -8.558594 6.589844 -8.566406 6.632812 -8.582031 C 6.640625 -8.582031 6.644531 -8.585938 6.648438 -8.585938 C 6.644531 -8.585938 6.640625 -8.582031 6.636719 -8.578125 C 6.636719 -8.578125 6.632812 -8.574219 6.628906 -8.570312 C 6.632812 -8.574219 6.632812 -8.578125 6.636719 -8.585938 C 6.652344 -8.628906 6.65625 -8.6875 6.65625 -8.761719 L 6.65625 -12.242188 C 6.65625 -12.320312 6.652344 -12.378906 6.636719 -12.417969 C 6.632812 -12.425781 6.632812 -12.433594 6.628906 -12.433594 C 6.632812 -12.433594 6.636719 -12.429688 6.636719 -12.425781 C 6.640625 -12.421875 6.644531 -12.417969 6.648438 -12.417969 C 6.644531 -12.421875 6.640625 -12.421875 6.632812 -12.425781 C 6.589844 -12.4375 6.53125 -12.445312 6.457031 -12.445312 L 4.148438 -12.445312 L 4.148438 -13.164062 L 4.871094 -13.164062 L 4.871094 -7.839844 L 4.148438 -7.839844 Z M 3.429688 -7.117188 L 3.429688 -13.886719 L 6.457031 -13.886719 C 6.960938 -13.886719 7.363281 -13.738281 7.65625 -13.445312 C 7.953125 -13.152344 8.097656 -12.75 8.097656 -12.242188 L 8.097656 -8.761719 C 8.097656 -8.253906 7.953125 -7.855469 7.65625 -7.5625 C 7.363281 -7.265625 6.960938 -7.117188 6.457031 -7.117188 Z M 3.429688 -7.117188 "/></g></g><g style="fill:#b21a22;fill-opacity:1;"><g transform="translate(43.650683, 113.205696)"><path style="stroke:none" d="M 11.074219 -15.769531 L 11.074219 -13.464844 C 11.074219 -13.144531 10.976562 -12.882812 10.785156 -12.679688 C 10.582031 -12.460938 10.316406 -12.351562 9.984375 -12.351562 L 4.289062 -12.351562 L 4.289062 -13.074219 L 5.007812 -13.074219 L 5.007812 -9.523438 L 4.289062 -9.523438 L 4.289062 -10.242188 L 8.625 -10.242188 C 8.953125 -10.242188 9.222656 -10.136719 9.425781 -9.917969 C 9.617188 -9.714844 9.714844 -9.453125 9.714844 -9.128906 L 9.714844 -6.847656 C 9.714844 -6.527344 9.617188 -6.265625 9.425781 -6.058594 C 9.222656 -5.84375 8.953125 -5.734375 8.625 -5.734375 L 4.289062 -5.734375 L 4.289062 -6.457031 L 5.007812 -6.457031 L 5.007812 -3.042969 L 4.289062 -3.042969 L 4.289062 -3.765625 L 9.984375 -3.765625 C 10.304688 -3.765625 10.566406 -3.664062 10.769531 -3.460938 C 10.972656 -3.257812 11.074219 -2.996094 11.074219 -2.675781 L 11.074219 -0.367188 C 11.074219 -0.046875 10.972656 0.214844 10.769531 0.417969 C 10.566406 0.621094 10.304688 0.71875 9.984375 0.71875 L 1.5 0.71875 C 1.175781 0.71875 0.914062 0.613281 0.714844 0.402344 C 0.527344 0.199219 0.433594 -0.0546875 0.433594 -0.367188 L 0.433594 -15.769531 C 0.433594 -16.085938 0.527344 -16.339844 0.714844 -16.539062 C 0.914062 -16.753906 1.175781 -16.859375 1.5 -16.859375 L 9.984375 -16.859375 C 10.304688 -16.859375 10.566406 -16.761719 10.769531 -16.558594 C 10.972656 -16.355469 11.074219 -16.09375 11.074219 -15.769531 Z M 9.632812 -15.769531 C 9.632812 -15.753906 9.636719 -15.734375 9.644531 -15.703125 C 9.667969 -15.644531 9.703125 -15.589844 9.75 -15.539062 C 9.800781 -15.488281 9.855469 -15.453125 9.917969 -15.433594 C 9.945312 -15.425781 9.96875 -15.417969 9.984375 -15.417969 L 1.5 -15.417969 C 1.589844 -15.417969 1.679688 -15.464844 1.765625 -15.554688 C 1.8125 -15.605469 1.84375 -15.660156 1.863281 -15.71875 C 1.871094 -15.742188 1.875 -15.757812 1.875 -15.769531 L 1.875 -0.367188 C 1.875 -0.378906 1.871094 -0.398438 1.863281 -0.421875 C 1.84375 -0.480469 1.8125 -0.535156 1.765625 -0.585938 C 1.679688 -0.675781 1.589844 -0.71875 1.5 -0.71875 L 9.984375 -0.71875 C 9.96875 -0.71875 9.945312 -0.714844 9.917969 -0.707031 C 9.855469 -0.6875 9.800781 -0.652344 9.75 -0.601562 C 9.703125 -0.550781 9.667969 -0.496094 9.644531 -0.433594 C 9.636719 -0.40625 9.632812 -0.386719 9.632812 -0.367188 L 9.632812 -2.675781 C 9.632812 -2.660156 9.636719 -2.636719 9.644531 -2.609375 C 9.667969 -2.546875 9.703125 -2.492188 9.75 -2.441406 C 9.800781 -2.390625 9.855469 -2.355469 9.917969 -2.335938 C 9.945312 -2.328125 9.96875 -2.324219 9.984375 -2.324219 L 3.566406 -2.324219 L 3.566406 -7.175781 L 8.625 -7.175781 C 8.601562 -7.175781 8.574219 -7.171875 8.542969 -7.160156 C 8.480469 -7.136719 8.425781 -7.101562 8.375 -7.046875 C 8.332031 -7 8.300781 -6.949219 8.28125 -6.890625 C 8.273438 -6.871094 8.273438 -6.855469 8.273438 -6.847656 L 8.273438 -9.128906 C 8.273438 -9.121094 8.273438 -9.109375 8.28125 -9.085938 C 8.300781 -9.03125 8.332031 -8.980469 8.375 -8.929688 C 8.425781 -8.878906 8.480469 -8.839844 8.542969 -8.820312 C 8.574219 -8.808594 8.601562 -8.800781 8.625 -8.800781 L 3.566406 -8.800781 L 3.566406 -13.792969 L 9.984375 -13.792969 C 9.964844 -13.792969 9.9375 -13.789062 9.90625 -13.777344 C 9.839844 -13.753906 9.785156 -13.71875 9.734375 -13.664062 C 9.691406 -13.617188 9.660156 -13.566406 9.640625 -13.511719 C 9.636719 -13.488281 9.632812 -13.472656 9.632812 -13.464844 Z M 9.632812 -15.769531 "/></g></g><g style="fill:#b21a22;fill-opacity:1;"><g transform="translate(55.152813, 113.205696)"><path style="stroke:none" d="M 4.472656 -16.859375 L 7.054688 -16.859375 C 8.347656 -16.859375 9.34375 -16.511719 10.042969 -15.808594 C 10.746094 -15.105469 11.097656 -14.109375 11.097656 -12.820312 L 11.097656 -11.296875 C 11.097656 -10.976562 10.996094 -10.714844 10.792969 -10.511719 C 10.589844 -10.308594 10.328125 -10.207031 10.007812 -10.207031 L 7.679688 -10.207031 C 7.355469 -10.207031 7.09375 -10.308594 6.890625 -10.511719 C 6.691406 -10.714844 6.589844 -10.976562 6.589844 -11.296875 L 6.589844 -12.265625 C 6.589844 -12.34375 6.582031 -12.402344 6.566406 -12.441406 C 6.566406 -12.449219 6.5625 -12.457031 6.5625 -12.457031 C 6.5625 -12.457031 6.566406 -12.453125 6.570312 -12.449219 C 6.574219 -12.445312 6.574219 -12.441406 6.578125 -12.441406 C 6.574219 -12.441406 6.570312 -12.445312 6.5625 -12.449219 C 6.519531 -12.460938 6.460938 -12.46875 6.386719 -12.46875 L 5.117188 -12.46875 C 5.042969 -12.46875 4.984375 -12.460938 4.941406 -12.449219 C 4.9375 -12.445312 4.929688 -12.441406 4.925781 -12.441406 C 4.929688 -12.441406 4.933594 -12.445312 4.9375 -12.449219 C 4.941406 -12.453125 4.941406 -12.457031 4.945312 -12.457031 C 4.941406 -12.457031 4.941406 -12.449219 4.9375 -12.441406 C 4.925781 -12.402344 4.917969 -12.34375 4.917969 -12.265625 L 4.917969 -10.308594 L 4.195312 -10.308594 L 4.417969 -10.992188 L 9.996094 -9.195312 C 10.355469 -9.070312 10.625 -8.875 10.816406 -8.605469 C 11.003906 -8.339844 11.097656 -8.023438 11.097656 -7.65625 L 11.097656 -3.320312 C 11.097656 -2.046875 10.746094 -1.054688 10.046875 -0.347656 C 9.34375 0.363281 8.347656 0.71875 7.054688 0.71875 L 4.472656 0.71875 C 3.199219 0.71875 2.207031 0.367188 1.496094 -0.34375 C 0.785156 -1.054688 0.433594 -2.046875 0.433594 -3.320312 L 0.433594 -4.820312 C 0.433594 -5.140625 0.535156 -5.402344 0.734375 -5.605469 C 0.9375 -5.808594 1.199219 -5.910156 1.523438 -5.910156 L 3.851562 -5.910156 C 4.171875 -5.910156 4.433594 -5.808594 4.636719 -5.605469 C 4.839844 -5.402344 4.941406 -5.140625 4.941406 -4.820312 L 4.941406 -3.851562 C 4.941406 -3.773438 4.945312 -3.714844 4.960938 -3.675781 C 4.964844 -3.667969 4.964844 -3.664062 4.96875 -3.660156 C 4.964844 -3.660156 4.964844 -3.664062 4.960938 -3.667969 C 4.957031 -3.671875 4.953125 -3.675781 4.949219 -3.675781 C 4.953125 -3.675781 4.957031 -3.671875 4.964844 -3.667969 C 5.007812 -3.65625 5.066406 -3.648438 5.140625 -3.648438 L 6.386719 -3.648438 C 6.460938 -3.648438 6.519531 -3.65625 6.5625 -3.667969 C 6.570312 -3.671875 6.574219 -3.675781 6.578125 -3.675781 C 6.574219 -3.675781 6.574219 -3.671875 6.570312 -3.667969 C 6.566406 -3.664062 6.5625 -3.660156 6.5625 -3.660156 C 6.5625 -3.664062 6.566406 -3.667969 6.566406 -3.675781 C 6.582031 -3.714844 6.589844 -3.773438 6.589844 -3.851562 L 6.589844 -6.179688 L 7.308594 -6.179688 L 7.085938 -5.492188 L 1.550781 -7.292969 C 1.195312 -7.410156 0.921875 -7.605469 0.726562 -7.871094 C 0.53125 -8.140625 0.433594 -8.460938 0.433594 -8.832031 L 0.433594 -12.820312 C 0.433594 -14.113281 0.789062 -15.109375 1.5 -15.8125 C 2.210938 -16.511719 3.199219 -16.859375 4.472656 -16.859375 Z M 4.472656 -15.417969 C 3.59375 -15.417969 2.941406 -15.207031 2.511719 -14.785156 C 2.085938 -14.367188 1.875 -13.710938 1.875 -12.820312 L 1.875 -8.832031 C 1.875 -8.773438 1.878906 -8.734375 1.890625 -8.71875 C 1.902344 -8.703125 1.941406 -8.683594 2 -8.664062 L 8.03125 -6.703125 L 8.03125 -3.851562 C 8.03125 -3.34375 7.882812 -2.945312 7.589844 -2.648438 C 7.292969 -2.355469 6.894531 -2.207031 6.386719 -2.207031 L 5.140625 -2.207031 C 4.636719 -2.207031 4.234375 -2.355469 3.941406 -2.648438 C 3.644531 -2.945312 3.5 -3.34375 3.5 -3.851562 L 3.5 -4.820312 C 3.5 -4.800781 3.503906 -4.78125 3.511719 -4.753906 C 3.535156 -4.691406 3.566406 -4.636719 3.617188 -4.585938 C 3.667969 -4.535156 3.722656 -4.5 3.785156 -4.480469 C 3.8125 -4.472656 3.835938 -4.46875 3.851562 -4.46875 L 1.523438 -4.46875 C 1.539062 -4.46875 1.558594 -4.472656 1.589844 -4.480469 C 1.648438 -4.5 1.707031 -4.535156 1.753906 -4.585938 C 1.804688 -4.636719 1.839844 -4.691406 1.859375 -4.753906 C 1.867188 -4.78125 1.875 -4.800781 1.875 -4.820312 L 1.875 -3.320312 C 1.875 -2.441406 2.085938 -1.789062 2.515625 -1.363281 C 2.945312 -0.933594 3.597656 -0.71875 4.472656 -0.71875 L 7.054688 -0.71875 C 7.945312 -0.71875 8.601562 -0.933594 9.019531 -1.359375 C 9.445312 -1.789062 9.65625 -2.441406 9.65625 -3.320312 L 9.65625 -7.65625 C 9.65625 -7.71875 9.648438 -7.757812 9.636719 -7.777344 C 9.625 -7.792969 9.597656 -7.808594 9.554688 -7.824219 L 3.476562 -9.78125 L 3.476562 -12.265625 C 3.476562 -12.773438 3.625 -13.171875 3.917969 -13.46875 C 4.210938 -13.761719 4.613281 -13.910156 5.117188 -13.910156 L 6.386719 -13.910156 C 6.894531 -13.910156 7.292969 -13.761719 7.589844 -13.46875 C 7.882812 -13.171875 8.03125 -12.773438 8.03125 -12.265625 L 8.03125 -11.296875 C 8.03125 -11.316406 8.023438 -11.335938 8.015625 -11.363281 C 7.996094 -11.425781 7.960938 -11.480469 7.910156 -11.53125 C 7.863281 -11.582031 7.804688 -11.617188 7.746094 -11.636719 C 7.71875 -11.644531 7.695312 -11.648438 7.679688 -11.648438 L 10.007812 -11.648438 C 9.992188 -11.648438 9.96875 -11.644531 9.941406 -11.636719 C 9.878906 -11.617188 9.824219 -11.582031 9.773438 -11.53125 C 9.726562 -11.480469 9.691406 -11.425781 9.667969 -11.363281 C 9.660156 -11.335938 9.65625 -11.316406 9.65625 -11.296875 L 9.65625 -12.820312 C 9.65625 -13.710938 9.445312 -14.367188 9.023438 -14.789062 C 8.605469 -15.210938 7.949219 -15.417969 7.054688 -15.417969 Z M 4.472656 -15.417969 "/></g></g><g style="fill:#b21a22;fill-opacity:1;"><g transform="translate(66.677997, 113.205696)"><path style="stroke:none" d="M 0.433594 -0.367188 L 0.433594 -15.769531 C 0.433594 -16.09375 0.535156 -16.355469 0.734375 -16.558594 C 0.9375 -16.761719 1.199219 -16.859375 1.523438 -16.859375 L 7.054688 -16.859375 C 8.347656 -16.859375 9.34375 -16.511719 10.042969 -15.808594 C 10.746094 -15.105469 11.097656 -14.109375 11.097656 -12.820312 L 11.097656 -8.300781 C 11.097656 -7.027344 10.746094 -6.039062 10.042969 -5.335938 C 9.34375 -4.636719 8.351562 -4.277344 7.066406 -4.261719 L 4.15625 -4.238281 L 4.148438 -4.957031 L 4.871094 -4.957031 L 4.871094 -0.347656 C 4.871094 -0.0234375 4.769531 0.238281 4.566406 0.441406 C 4.367188 0.640625 4.101562 0.742188 3.78125 0.742188 L 1.515625 0.71875 C 1.199219 0.71875 0.9375 0.621094 0.734375 0.417969 C 0.535156 0.214844 0.433594 -0.046875 0.433594 -0.367188 Z M 1.875 -0.367188 C 1.875 -0.386719 1.867188 -0.40625 1.859375 -0.433594 C 1.839844 -0.496094 1.804688 -0.550781 1.753906 -0.601562 C 1.707031 -0.652344 1.648438 -0.6875 1.589844 -0.707031 C 1.558594 -0.714844 1.539062 -0.71875 1.527344 -0.71875 L 3.78125 -0.699219 C 3.765625 -0.699219 3.742188 -0.691406 3.714844 -0.683594 C 3.652344 -0.664062 3.597656 -0.628906 3.546875 -0.578125 C 3.5 -0.527344 3.464844 -0.472656 3.445312 -0.414062 C 3.433594 -0.382812 3.429688 -0.363281 3.429688 -0.347656 L 3.429688 -5.671875 L 7.046875 -5.699219 C 7.941406 -5.714844 8.601562 -5.929688 9.023438 -6.355469 C 9.445312 -6.773438 9.65625 -7.421875 9.65625 -8.300781 L 9.65625 -12.820312 C 9.65625 -13.710938 9.445312 -14.367188 9.023438 -14.789062 C 8.605469 -15.210938 7.949219 -15.417969 7.054688 -15.417969 L 1.523438 -15.417969 C 1.539062 -15.417969 1.558594 -15.425781 1.589844 -15.433594 C 1.648438 -15.453125 1.707031 -15.488281 1.753906 -15.539062 C 1.804688 -15.589844 1.839844 -15.644531 1.859375 -15.703125 C 1.867188 -15.734375 1.875 -15.753906 1.875 -15.769531 Z M 4.144531 -8.652344 L 6.449219 -8.675781 C 6.53125 -8.675781 6.589844 -8.683594 6.632812 -8.695312 C 6.640625 -8.699219 6.644531 -8.699219 6.648438 -8.703125 C 6.644531 -8.699219 6.640625 -8.699219 6.636719 -8.695312 C 6.636719 -8.691406 6.632812 -8.6875 6.628906 -8.6875 C 6.632812 -8.6875 6.632812 -8.695312 6.636719 -8.703125 C 6.652344 -8.742188 6.65625 -8.800781 6.65625 -8.878906 L 6.65625 -12.242188 C 6.65625 -12.320312 6.652344 -12.378906 6.636719 -12.417969 C 6.632812 -12.425781 6.632812 -12.433594 6.628906 -12.433594 C 6.632812 -12.433594 6.636719 -12.429688 6.636719 -12.425781 C 6.640625 -12.421875 6.644531 -12.417969 6.648438 -12.417969 C 6.644531 -12.421875 6.640625 -12.421875 6.632812 -12.425781 C 6.589844 -12.4375 6.53125 -12.445312 6.457031 -12.445312 L 4.15625 -12.421875 L 4.148438 -13.144531 L 4.871094 -13.144531 L 4.871094 -7.933594 L 4.148438 -7.933594 Z M 3.429688 -7.203125 L 3.429688 -13.855469 L 6.457031 -13.886719 C 6.960938 -13.886719 7.363281 -13.738281 7.65625 -13.445312 C 7.953125 -13.152344 8.097656 -12.75 8.097656 -12.242188 L 8.097656 -8.878906 C 8.097656 -8.371094 7.953125 -7.96875 7.65625 -7.675781 C 7.363281 -7.382812 6.964844 -7.234375 6.464844 -7.234375 L 4.15625 -7.210938 Z M 3.429688 -7.203125 "/></g></g><g style="fill:#b21a22;fill-opacity:1;"><g transform="translate(78.203182, 113.205696)"><path style="stroke:none" d="M 11.074219 -15.769531 L 11.074219 -13.464844 C 11.074219 -13.144531 10.976562 -12.882812 10.785156 -12.679688 C 10.582031 -12.460938 10.316406 -12.351562 9.984375 -12.351562 L 4.289062 -12.351562 L 4.289062 -13.074219 L 5.007812 -13.074219 L 5.007812 -9.523438 L 4.289062 -9.523438 L 4.289062 -10.242188 L 8.625 -10.242188 C 8.953125 -10.242188 9.222656 -10.136719 9.425781 -9.917969 C 9.617188 -9.714844 9.714844 -9.453125 9.714844 -9.128906 L 9.714844 -6.847656 C 9.714844 -6.527344 9.617188 -6.265625 9.425781 -6.058594 C 9.222656 -5.84375 8.953125 -5.734375 8.625 -5.734375 L 4.289062 -5.734375 L 4.289062 -6.457031 L 5.007812 -6.457031 L 5.007812 -3.042969 L 4.289062 -3.042969 L 4.289062 -3.765625 L 9.984375 -3.765625 C 10.304688 -3.765625 10.566406 -3.664062 10.769531 -3.460938 C 10.972656 -3.257812 11.074219 -2.996094 11.074219 -2.675781 L 11.074219 -0.367188 C 11.074219 -0.046875 10.972656 0.214844 10.769531 0.417969 C 10.566406 0.621094 10.304688 0.71875 9.984375 0.71875 L 1.5 0.71875 C 1.175781 0.71875 0.914062 0.613281 0.714844 0.402344 C 0.527344 0.199219 0.433594 -0.0546875 0.433594 -0.367188 L 0.433594 -15.769531 C 0.433594 -16.085938 0.527344 -16.339844 0.714844 -16.539062 C 0.914062 -16.753906 1.175781 -16.859375 1.5 -16.859375 L 9.984375 -16.859375 C 10.304688 -16.859375 10.566406 -16.761719 10.769531 -16.558594 C 10.972656 -16.355469 11.074219 -16.09375 11.074219 -15.769531 Z M 9.632812 -15.769531 C 9.632812 -15.753906 9.636719 -15.734375 9.644531 -15.703125 C 9.667969 -15.644531 9.703125 -15.589844 9.75 -15.539062 C 9.800781 -15.488281 9.855469 -15.453125 9.917969 -15.433594 C 9.945312 -15.425781 9.96875 -15.417969 9.984375 -15.417969 L 1.5 -15.417969 C 1.589844 -15.417969 1.679688 -15.464844 1.765625 -15.554688 C 1.8125 -15.605469 1.84375 -15.660156 1.863281 -15.71875 C 1.871094 -15.742188 1.875 -15.757812 1.875 -15.769531 L 1.875 -0.367188 C 1.875 -0.378906 1.871094 -0.398438 1.863281 -0.421875 C 1.84375 -0.480469 1.8125 -0.535156 1.765625 -0.585938 C 1.679688 -0.675781 1.589844 -0.71875 1.5 -0.71875 L 9.984375 -0.71875 C 9.96875 -0.71875 9.945312 -0.714844 9.917969 -0.707031 C 9.855469 -0.6875 9.800781 -0.652344 9.75 -0.601562 C 9.703125 -0.550781 9.667969 -0.496094 9.644531 -0.433594 C 9.636719 -0.40625 9.632812 -0.386719 9.632812 -0.367188 L 9.632812 -2.675781 C 9.632812 -2.660156 9.636719 -2.636719 9.644531 -2.609375 C 9.667969 -2.546875 9.703125 -2.492188 9.75 -2.441406 C 9.800781 -2.390625 9.855469 -2.355469 9.917969 -2.335938 C 9.945312 -2.328125 9.96875 -2.324219 9.984375 -2.324219 L 3.566406 -2.324219 L 3.566406 -7.175781 L 8.625 -7.175781 C 8.601562 -7.175781 8.574219 -7.171875 8.542969 -7.160156 C 8.480469 -7.136719 8.425781 -7.101562 8.375 -7.046875 C 8.332031 -7 8.300781 -6.949219 8.28125 -6.890625 C 8.273438 -6.871094 8.273438 -6.855469 8.273438 -6.847656 L 8.273438 -9.128906 C 8.273438 -9.121094 8.273438 -9.109375 8.28125 -9.085938 C 8.300781 -9.03125 8.332031 -8.980469 8.375 -8.929688 C 8.425781 -8.878906 8.480469 -8.839844 8.542969 -8.820312 C 8.574219 -8.808594 8.601562 -8.800781 8.625 -8.800781 L 3.566406 -8.800781 L 3.566406 -13.792969 L 9.984375 -13.792969 C 9.964844 -13.792969 9.9375 -13.789062 9.90625 -13.777344 C 9.839844 -13.753906 9.785156 -13.71875 9.734375 -13.664062 C 9.691406 -13.617188 9.660156 -13.566406 9.640625 -13.511719 C 9.636719 -13.488281 9.632812 -13.472656 9.632812 -13.464844 Z M 9.632812 -15.769531 "/></g></g><g style="fill:#b21a22;fill-opacity:1;"><g transform="translate(89.705311, 113.205696)"><path style="stroke:none" d="M 11.121094 -12.820312 L 11.121094 -10.328125 C 11.121094 -10.007812 11.019531 -9.746094 10.816406 -9.542969 C 10.613281 -9.339844 10.351562 -9.242188 10.03125 -9.242188 L 7.863281 -9.242188 C 7.539062 -9.242188 7.277344 -9.339844 7.078125 -9.542969 C 6.875 -9.746094 6.773438 -10.007812 6.773438 -10.328125 L 6.773438 -12.21875 C 6.773438 -12.296875 6.765625 -12.355469 6.753906 -12.394531 C 6.75 -12.402344 6.746094 -12.410156 6.746094 -12.410156 C 6.746094 -12.410156 6.75 -12.40625 6.753906 -12.402344 C 6.757812 -12.398438 6.761719 -12.398438 6.761719 -12.394531 C 6.761719 -12.398438 6.753906 -12.398438 6.746094 -12.402344 C 6.707031 -12.414062 6.648438 -12.421875 6.570312 -12.421875 L 5.097656 -12.421875 C 5.019531 -12.421875 4.960938 -12.414062 4.921875 -12.402344 C 4.914062 -12.398438 4.90625 -12.398438 4.90625 -12.394531 C 4.90625 -12.398438 4.910156 -12.398438 4.914062 -12.402344 C 4.917969 -12.40625 4.917969 -12.410156 4.921875 -12.410156 C 4.917969 -12.410156 4.917969 -12.402344 4.914062 -12.394531 C 4.902344 -12.355469 4.894531 -12.296875 4.894531 -12.21875 L 4.894531 -3.851562 C 4.894531 -3.773438 4.902344 -3.714844 4.914062 -3.675781 C 4.917969 -3.667969 4.917969 -3.664062 4.921875 -3.660156 C 4.917969 -3.660156 4.917969 -3.664062 4.914062 -3.667969 C 4.910156 -3.671875 4.90625 -3.675781 4.90625 -3.675781 C 4.90625 -3.675781 4.914062 -3.671875 4.921875 -3.667969 C 4.960938 -3.65625 5.019531 -3.648438 5.097656 -3.648438 L 6.570312 -3.648438 C 6.648438 -3.648438 6.707031 -3.65625 6.746094 -3.667969 C 6.753906 -3.671875 6.761719 -3.675781 6.761719 -3.675781 C 6.761719 -3.675781 6.757812 -3.671875 6.753906 -3.667969 C 6.75 -3.664062 6.746094 -3.660156 6.746094 -3.660156 C 6.746094 -3.664062 6.75 -3.667969 6.753906 -3.675781 C 6.765625 -3.714844 6.773438 -3.773438 6.773438 -3.851562 L 6.773438 -5.808594 C 6.773438 -6.132812 6.875 -6.394531 7.078125 -6.597656 C 7.277344 -6.800781 7.539062 -6.898438 7.863281 -6.898438 L 10.03125 -6.898438 C 10.351562 -6.898438 10.613281 -6.800781 10.816406 -6.597656 C 11.019531 -6.394531 11.121094 -6.132812 11.121094 -5.808594 L 11.121094 -3.320312 C 11.121094 -2.046875 10.765625 -1.054688 10.054688 -0.34375 C 9.347656 0.367188 8.355469 0.71875 7.078125 0.71875 L 4.496094 0.71875 C 3.222656 0.71875 2.226562 0.367188 1.511719 -0.339844 C 0.792969 -1.050781 0.433594 -2.042969 0.433594 -3.320312 L 0.433594 -12.820312 C 0.433594 -14.113281 0.792969 -15.113281 1.515625 -15.816406 C 2.230469 -16.511719 3.226562 -16.859375 4.496094 -16.859375 L 7.078125 -16.859375 C 8.351562 -16.859375 9.34375 -16.511719 10.050781 -15.8125 C 10.765625 -15.109375 11.121094 -14.113281 11.121094 -12.820312 Z M 9.679688 -12.820312 C 9.679688 -13.710938 9.464844 -14.367188 9.039062 -14.785156 C 8.613281 -15.207031 7.957031 -15.417969 7.078125 -15.417969 L 4.496094 -15.417969 C 3.617188 -15.417969 2.957031 -15.207031 2.519531 -14.78125 C 2.089844 -14.363281 1.875 -13.707031 1.875 -12.820312 L 1.875 -3.320312 C 1.875 -2.445312 2.089844 -1.792969 2.523438 -1.367188 C 2.960938 -0.9375 3.617188 -0.71875 4.496094 -0.71875 L 7.078125 -0.71875 C 7.957031 -0.71875 8.609375 -0.933594 9.035156 -1.363281 C 9.464844 -1.789062 9.679688 -2.441406 9.679688 -3.320312 L 9.679688 -5.808594 C 9.679688 -5.792969 9.683594 -5.773438 9.691406 -5.742188 C 9.710938 -5.683594 9.746094 -5.628906 9.796875 -5.578125 C 9.847656 -5.527344 9.902344 -5.492188 9.964844 -5.472656 C 9.992188 -5.464844 10.011719 -5.457031 10.03125 -5.457031 L 7.863281 -5.457031 C 7.878906 -5.457031 7.902344 -5.464844 7.929688 -5.472656 C 7.992188 -5.492188 8.046875 -5.527344 8.09375 -5.578125 C 8.144531 -5.628906 8.179688 -5.683594 8.199219 -5.742188 C 8.210938 -5.773438 8.214844 -5.792969 8.214844 -5.808594 L 8.214844 -3.851562 C 8.214844 -3.34375 8.066406 -2.945312 7.773438 -2.648438 C 7.476562 -2.355469 7.078125 -2.207031 6.570312 -2.207031 L 5.097656 -2.207031 C 4.589844 -2.207031 4.1875 -2.355469 3.894531 -2.648438 C 3.601562 -2.945312 3.453125 -3.34375 3.453125 -3.851562 L 3.453125 -12.21875 C 3.453125 -12.726562 3.601562 -13.128906 3.894531 -13.421875 C 4.1875 -13.714844 4.589844 -13.863281 5.097656 -13.863281 L 6.570312 -13.863281 C 7.078125 -13.863281 7.476562 -13.714844 7.773438 -13.421875 C 8.066406 -13.128906 8.214844 -12.726562 8.214844 -12.21875 L 8.214844 -10.328125 C 8.214844 -10.347656 8.210938 -10.367188 8.199219 -10.394531 C 8.179688 -10.457031 8.144531 -10.511719 8.09375 -10.5625 C 8.046875 -10.613281 7.992188 -10.648438 7.929688 -10.667969 C 7.902344 -10.675781 7.878906 -10.679688 7.863281 -10.679688 L 10.03125 -10.679688 C 10.011719 -10.679688 9.992188 -10.675781 9.964844 -10.667969 C 9.902344 -10.648438 9.847656 -10.613281 9.796875 -10.5625 C 9.746094 -10.511719 9.710938 -10.457031 9.691406 -10.394531 C 9.683594 -10.367188 9.679688 -10.347656 9.679688 -10.328125 Z M 9.679688 -12.820312 "/></g></g><g style="fill:#b21a22;fill-opacity:1;"><g transform="translate(101.25355, 113.205696)"><path style="stroke:none" d="M 9.546875 -15.417969 L 1.0625 -15.417969 C 1.078125 -15.417969 1.097656 -15.425781 1.128906 -15.433594 C 1.1875 -15.453125 1.242188 -15.488281 1.292969 -15.539062 C 1.34375 -15.589844 1.378906 -15.644531 1.398438 -15.703125 C 1.40625 -15.734375 1.414062 -15.753906 1.414062 -15.769531 L 1.414062 -13.464844 C 1.414062 -13.480469 1.40625 -13.503906 1.398438 -13.53125 C 1.378906 -13.59375 1.34375 -13.648438 1.292969 -13.699219 C 1.242188 -13.746094 1.1875 -13.78125 1.128906 -13.804688 C 1.097656 -13.8125 1.078125 -13.816406 1.0625 -13.816406 L 4.457031 -13.816406 L 4.457031 -0.367188 C 4.457031 -0.386719 4.453125 -0.40625 4.441406 -0.433594 C 4.421875 -0.496094 4.386719 -0.550781 4.335938 -0.601562 C 4.289062 -0.652344 4.230469 -0.6875 4.171875 -0.707031 C 4.144531 -0.714844 4.121094 -0.71875 4.105469 -0.71875 L 6.503906 -0.71875 C 6.484375 -0.71875 6.464844 -0.714844 6.4375 -0.707031 C 6.375 -0.6875 6.320312 -0.652344 6.269531 -0.601562 C 6.21875 -0.550781 6.183594 -0.496094 6.164062 -0.433594 C 6.15625 -0.40625 6.152344 -0.386719 6.152344 -0.367188 L 6.152344 -13.816406 L 9.546875 -13.816406 C 9.53125 -13.816406 9.507812 -13.8125 9.480469 -13.804688 C 9.417969 -13.78125 9.363281 -13.746094 9.3125 -13.699219 C 9.261719 -13.648438 9.230469 -13.59375 9.207031 -13.53125 C 9.199219 -13.503906 9.195312 -13.480469 9.195312 -13.464844 L 9.195312 -15.769531 C 9.195312 -15.753906 9.199219 -15.734375 9.207031 -15.703125 C 9.230469 -15.644531 9.261719 -15.589844 9.3125 -15.539062 C 9.363281 -15.488281 9.417969 -15.453125 9.480469 -15.433594 C 9.507812 -15.425781 9.53125 -15.417969 9.546875 -15.417969 Z M 9.546875 -16.859375 C 9.867188 -16.859375 10.128906 -16.761719 10.332031 -16.558594 C 10.535156 -16.355469 10.636719 -16.09375 10.636719 -15.769531 L 10.636719 -13.464844 C 10.636719 -13.144531 10.535156 -12.882812 10.332031 -12.679688 C 10.128906 -12.476562 9.867188 -12.375 9.546875 -12.375 L 6.871094 -12.375 L 6.871094 -13.097656 L 7.589844 -13.097656 L 7.589844 -0.367188 C 7.589844 -0.046875 7.492188 0.214844 7.289062 0.417969 C 7.085938 0.621094 6.824219 0.71875 6.503906 0.71875 L 4.105469 0.71875 C 3.78125 0.71875 3.519531 0.621094 3.316406 0.417969 C 3.117188 0.214844 3.015625 -0.046875 3.015625 -0.367188 L 3.015625 -13.097656 L 3.734375 -13.097656 L 3.734375 -12.375 L 1.0625 -12.375 C 0.738281 -12.375 0.476562 -12.476562 0.273438 -12.679688 C 0.0703125 -12.882812 -0.0273438 -13.144531 -0.0273438 -13.464844 L -0.0273438 -15.769531 C -0.0273438 -16.09375 0.0703125 -16.355469 0.273438 -16.558594 C 0.476562 -16.761719 0.738281 -16.859375 1.0625 -16.859375 Z M 9.546875 -16.859375 "/></g></g><g style="fill:#060705;fill-opacity:1;"><g transform="translate(27.550132, 48.913117)"><path style="stroke:none" d="M 1.515625 0 L 3.921875 0 C 4.171875 0 4.296875 -0.125 4.296875 -0.375 L 4.296875 -15.78125 C 4.296875 -16.019531 4.171875 -16.140625 3.921875 -16.140625 L 1.515625 -16.140625 C 1.273438 -16.140625 1.15625 -16.019531 1.15625 -15.78125 L 1.15625 -0.375 C 1.15625 -0.125 1.273438 0 1.515625 0 Z M 1.515625 0 "/></g></g><g style="fill:#060705;fill-opacity:1;"><g transform="translate(32.990016, 48.913117)"><path style="stroke:none" d="M 8.46875 -16.140625 L 10.625 -16.140625 C 10.875 -16.140625 11 -16.019531 11 -15.78125 L 11 -0.375 C 11 -0.125 10.875 0 10.625 0 L 8.8125 0 C 8.625 0 8.484375 -0.0976562 8.390625 -0.296875 L 4.0625 -9.109375 L 4.0625 -0.375 C 4.0625 -0.125 3.9375 0 3.6875 0 L 1.515625 0 C 1.273438 0 1.15625 -0.125 1.15625 -0.375 L 1.15625 -15.78125 C 1.15625 -16.019531 1.273438 -16.140625 1.515625 -16.140625 L 3.34375 -16.140625 C 3.53125 -16.140625 3.671875 -16.039062 3.765625 -15.84375 L 8.09375 -7.03125 L 8.09375 -15.78125 C 8.09375 -16.019531 8.21875 -16.140625 8.46875 -16.140625 Z M 8.46875 -16.140625 "/></g></g><g style="fill:#060705;fill-opacity:1;"><g transform="translate(45.137564, 48.913117)"><path style="stroke:none" d="M 10.40625 -12.828125 L 10.40625 -10.328125 C 10.40625 -10.085938 10.28125 -9.96875 10.03125 -9.96875 L 7.859375 -9.96875 C 7.617188 -9.96875 7.5 -10.085938 7.5 -10.328125 L 7.5 -12.21875 C 7.5 -12.832031 7.191406 -13.140625 6.578125 -13.140625 L 5.09375 -13.140625 C 4.476562 -13.140625 4.171875 -12.832031 4.171875 -12.21875 L 4.171875 -3.84375 C 4.171875 -3.226562 4.476562 -2.921875 5.09375 -2.921875 L 6.578125 -2.921875 C 7.191406 -2.921875 7.5 -3.226562 7.5 -3.84375 L 7.5 -5.8125 C 7.5 -6.0625 7.617188 -6.1875 7.859375 -6.1875 L 10.03125 -6.1875 C 10.28125 -6.1875 10.40625 -6.0625 10.40625 -5.8125 L 10.40625 -3.328125 C 10.40625 -2.242188 10.117188 -1.414062 9.546875 -0.84375 C 8.972656 -0.28125 8.148438 0 7.078125 0 L 4.5 0 C 3.414062 0 2.585938 -0.28125 2.015625 -0.84375 C 1.441406 -1.414062 1.15625 -2.242188 1.15625 -3.328125 L 1.15625 -12.828125 C 1.15625 -13.910156 1.441406 -14.734375 2.015625 -15.296875 C 2.585938 -15.859375 3.414062 -16.140625 4.5 -16.140625 L 7.078125 -16.140625 C 8.148438 -16.140625 8.972656 -15.859375 9.546875 -15.296875 C 10.117188 -14.734375 10.40625 -13.910156 10.40625 -12.828125 Z M 10.40625 -12.828125 "/></g></g><g style="fill:#060705;fill-opacity:1;"><g transform="translate(56.685802, 48.913117)"><path style="stroke:none" d="M 4.296875 -3.046875 L 4.296875 -15.78125 C 4.296875 -16.019531 4.171875 -16.140625 3.921875 -16.140625 L 1.515625 -16.140625 C 1.273438 -16.140625 1.15625 -16.019531 1.15625 -15.78125 L 1.15625 -0.375 C 1.15625 -0.125 1.273438 0 1.515625 0 L 8.859375 0 C 9.097656 0 9.21875 -0.125 9.21875 -0.375 L 9.21875 -2.671875 C 9.21875 -2.921875 9.097656 -3.046875 8.859375 -3.046875 Z M 4.296875 -3.046875 "/></g></g><g style="fill:#060705;fill-opacity:1;"><g transform="translate(67.058467, 48.913117)"><path style="stroke:none" d="M 7.796875 -16.140625 L 9.921875 -16.140625 C 10.035156 -16.140625 10.140625 -16.09375 10.234375 -16 C 10.328125 -15.90625 10.375 -15.800781 10.375 -15.6875 L 10.375 -3.328125 C 10.375 -2.242188 10.09375 -1.414062 9.53125 -0.84375 C 8.96875 -0.28125 8.144531 0 7.0625 0 L 4.46875 0 C 3.394531 0 2.570312 -0.28125 2 -0.84375 C 1.4375 -1.414062 1.15625 -2.242188 1.15625 -3.328125 L 1.15625 -15.6875 C 1.15625 -15.800781 1.203125 -15.90625 1.296875 -16 C 1.390625 -16.09375 1.492188 -16.140625 1.609375 -16.140625 L 3.828125 -16.140625 C 3.953125 -16.140625 4.0625 -16.09375 4.15625 -16 C 4.25 -15.90625 4.296875 -15.800781 4.296875 -15.6875 L 4.296875 -3.96875 C 4.296875 -3.351562 4.601562 -3.046875 5.21875 -3.046875 L 6.40625 -3.046875 C 7.019531 -3.046875 7.328125 -3.351562 7.328125 -3.96875 L 7.328125 -15.6875 C 7.328125 -15.800781 7.375 -15.90625 7.46875 -16 C 7.5625 -16.09375 7.671875 -16.140625 7.796875 -16.140625 Z M 7.796875 -16.140625 "/></g></g><g style="fill:#060705;fill-opacity:1;"><g transform="translate(78.583651, 48.913117)"><path style="stroke:none" d="M 1.15625 -0.375 L 1.15625 -15.78125 C 1.15625 -16.019531 1.273438 -16.140625 1.515625 -16.140625 L 7.0625 -16.140625 C 8.144531 -16.140625 8.96875 -15.851562 9.53125 -15.28125 C 10.09375 -14.71875 10.375 -13.890625 10.375 -12.796875 L 10.375 -3.328125 C 10.375 -2.242188 10.09375 -1.414062 9.53125 -0.84375 C 8.96875 -0.28125 8.144531 0 7.0625 0 L 1.515625 0 C 1.273438 0 1.15625 -0.125 1.15625 -0.375 Z M 4.296875 -3.046875 L 6.40625 -3.046875 C 7.019531 -3.046875 7.328125 -3.351562 7.328125 -3.96875 L 7.328125 -12.15625 C 7.328125 -12.78125 7.019531 -13.09375 6.40625 -13.09375 L 4.296875 -13.09375 Z M 4.296875 -3.046875 "/></g></g><g style="fill:#060705;fill-opacity:1;"><g transform="translate(90.108835, 48.913117)"><path style="stroke:none" d="M 10.359375 -15.78125 L 10.359375 -13.46875 C 10.359375 -13.207031 10.234375 -13.078125 9.984375 -13.078125 L 4.296875 -13.078125 L 4.296875 -9.53125 L 8.625 -9.53125 C 8.875 -9.53125 9 -9.394531 9 -9.125 L 9 -6.84375 C 9 -6.582031 8.875 -6.453125 8.625 -6.453125 L 4.296875 -6.453125 L 4.296875 -3.046875 L 9.984375 -3.046875 C 10.234375 -3.046875 10.359375 -2.921875 10.359375 -2.671875 L 10.359375 -0.375 C 10.359375 -0.125 10.234375 0 9.984375 0 L 1.5 0 C 1.269531 0 1.15625 -0.125 1.15625 -0.375 L 1.15625 -15.78125 C 1.15625 -16.019531 1.269531 -16.140625 1.5 -16.140625 L 9.984375 -16.140625 C 10.234375 -16.140625 10.359375 -16.019531 10.359375 -15.78125 Z M 10.359375 -15.78125 "/></g></g><g style="fill:#060705;fill-opacity:1;"><g transform="translate(101.610965, 48.913117)"><path style="stroke:none" d="M 0 3.09375 L 0 0.96875 C 0 0.65625 0.15625 0.5 0.46875 0.5 L 14.375 0.5 C 14.675781 0.5 14.828125 0.65625 14.828125 0.96875 L 14.828125 3.09375 C 14.828125 3.394531 14.675781 3.546875 14.375 3.546875 L 0.46875 3.546875 C 0.15625 3.546875 0 3.394531 0 3.09375 Z M 0 3.09375 "/></g></g><g style="fill:#060705;fill-opacity:1;"><g transform="translate(41.961168, 81.059406)"><path style="stroke:none" d="M 14.203125 -16.140625 L 16.375 -16.140625 C 16.707031 -16.140625 16.851562 -15.976562 16.8125 -15.65625 L 14.59375 -0.421875 C 14.550781 -0.140625 14.382812 0 14.09375 0 L 11.59375 0 C 11.332031 0 11.164062 -0.140625 11.09375 -0.421875 L 8.96875 -9.875 L 6.828125 -0.421875 C 6.765625 -0.140625 6.59375 0 6.3125 0 L 3.78125 0 C 3.488281 0 3.320312 -0.144531 3.28125 -0.4375 L 1.15625 -15.65625 C 1.101562 -15.976562 1.25 -16.140625 1.59375 -16.140625 L 3.765625 -16.140625 C 4.035156 -16.140625 4.195312 -15.992188 4.25 -15.703125 L 5.375 -6.0625 L 5.484375 -6.0625 L 7.75 -15.75 C 7.820312 -16.007812 7.988281 -16.140625 8.25 -16.140625 L 9.65625 -16.140625 C 9.925781 -16.140625 10.097656 -16.007812 10.171875 -15.75 L 12.4375 -6.0625 L 12.546875 -6.0625 L 13.71875 -15.703125 C 13.769531 -15.992188 13.929688 -16.140625 14.203125 -16.140625 Z M 14.203125 -16.140625 "/></g></g><g style="fill:#060705;fill-opacity:1;"><g transform="translate(59.640798, 81.059406)"><path style="stroke:none" d="M 1.515625 0 L 3.921875 0 C 4.171875 0 4.296875 -0.125 4.296875 -0.375 L 4.296875 -15.78125 C 4.296875 -16.019531 4.171875 -16.140625 3.921875 -16.140625 L 1.515625 -16.140625 C 1.273438 -16.140625 1.15625 -16.019531 1.15625 -15.78125 L 1.15625 -0.375 C 1.15625 -0.125 1.273438 0 1.515625 0 Z M 1.515625 0 "/></g></g><g style="fill:#060705;fill-opacity:1;"><g transform="translate(65.080681, 81.059406)"><path style="stroke:none" d="M 9.546875 -16.140625 L 1.0625 -16.140625 C 0.8125 -16.140625 0.6875 -16.019531 0.6875 -15.78125 L 0.6875 -13.46875 C 0.6875 -13.21875 0.8125 -13.09375 1.0625 -13.09375 L 3.734375 -13.09375 L 3.734375 -0.375 C 3.734375 -0.125 3.859375 0 4.109375 0 L 6.5 0 C 6.75 0 6.875 -0.125 6.875 -0.375 L 6.875 -13.09375 L 9.546875 -13.09375 C 9.796875 -13.09375 9.921875 -13.21875 9.921875 -13.46875 L 9.921875 -15.78125 C 9.921875 -16.019531 9.796875 -16.140625 9.546875 -16.140625 Z M 9.546875 -16.140625 "/></g></g><g style="fill:#060705;fill-opacity:1;"><g transform="translate(75.683852, 81.059406)"><path style="stroke:none" d="M 7.234375 -9.546875 L 7.234375 -15.78125 C 7.234375 -16.019531 7.359375 -16.140625 7.609375 -16.140625 L 9.984375 -16.140625 C 10.242188 -16.140625 10.375 -16.019531 10.375 -15.78125 L 10.375 -0.375 C 10.375 -0.125 10.242188 0 9.984375 0 L 7.609375 0 C 7.359375 0 7.234375 -0.125 7.234375 -0.375 L 7.234375 -6.5 L 4.296875 -6.5 L 4.296875 -0.375 C 4.296875 -0.125 4.171875 0 3.921875 0 L 1.546875 0 C 1.285156 0 1.15625 -0.125 1.15625 -0.375 L 1.15625 -15.78125 C 1.15625 -16.019531 1.285156 -16.140625 1.546875 -16.140625 L 3.921875 -16.140625 C 4.171875 -16.140625 4.296875 -16.019531 4.296875 -15.78125 L 4.296875 -9.546875 Z M 7.234375 -9.546875 "/></g></g><g style="fill:#060705;fill-opacity:1;"><g transform="translate(87.209036, 81.059406)"><path style="stroke:none" d="M 0 3.09375 L 0 0.96875 C 0 0.65625 0.15625 0.5 0.46875 0.5 L 14.375 0.5 C 14.675781 0.5 14.828125 0.65625 14.828125 0.96875 L 14.828125 3.09375 C 14.828125 3.394531 14.675781 3.546875 14.375 3.546875 L 0.46875 3.546875 C 0.15625 3.546875 0 3.394531 0 3.09375 Z M 0 3.09375 "/></g></g><g style="fill:#060705;fill-opacity:1;"><g transform="translate(32.125499, 113.205696)"><path style="stroke:none" d="M 10.375 -12.828125 L 10.375 -8.1875 C 10.375 -6.851562 9.945312 -5.914062 9.09375 -5.375 L 10.28125 -0.421875 C 10.363281 -0.140625 10.257812 0 9.96875 0 L 7.703125 0 C 7.484375 0 7.351562 -0.109375 7.3125 -0.328125 L 6.203125 -4.859375 L 4.15625 -4.859375 L 4.15625 -0.375 C 4.15625 -0.125 4.03125 0 3.78125 0 L 1.515625 0 C 1.273438 0 1.15625 -0.125 1.15625 -0.375 L 1.15625 -15.78125 C 1.15625 -16.019531 1.273438 -16.140625 1.515625 -16.140625 L 7.0625 -16.140625 C 8.144531 -16.140625 8.96875 -15.859375 9.53125 -15.296875 C 10.09375 -14.734375 10.375 -13.910156 10.375 -12.828125 Z M 4.15625 -7.84375 L 6.453125 -7.84375 C 7.066406 -7.84375 7.375 -8.148438 7.375 -8.765625 L 7.375 -12.25 C 7.375 -12.863281 7.066406 -13.171875 6.453125 -13.171875 L 4.15625 -13.171875 Z M 4.15625 -7.84375 "/></g></g><g style="fill:#060705;fill-opacity:1;"><g transform="translate(43.650683, 113.205696)"><path style="stroke:none" d="M 10.359375 -15.78125 L 10.359375 -13.46875 C 10.359375 -13.207031 10.234375 -13.078125 9.984375 -13.078125 L 4.296875 -13.078125 L 4.296875 -9.53125 L 8.625 -9.53125 C 8.875 -9.53125 9 -9.394531 9 -9.125 L 9 -6.84375 C 9 -6.582031 8.875 -6.453125 8.625 -6.453125 L 4.296875 -6.453125 L 4.296875 -3.046875 L 9.984375 -3.046875 C 10.234375 -3.046875 10.359375 -2.921875 10.359375 -2.671875 L 10.359375 -0.375 C 10.359375 -0.125 10.234375 0 9.984375 0 L 1.5 0 C 1.269531 0 1.15625 -0.125 1.15625 -0.375 L 1.15625 -15.78125 C 1.15625 -16.019531 1.269531 -16.140625 1.5 -16.140625 L 9.984375 -16.140625 C 10.234375 -16.140625 10.359375 -16.019531 10.359375 -15.78125 Z M 10.359375 -15.78125 "/></g></g><g style="fill:#060705;fill-opacity:1;"><g transform="translate(55.152813, 113.205696)"><path style="stroke:none" d="M 4.46875 -16.140625 L 7.0625 -16.140625 C 8.144531 -16.140625 8.96875 -15.859375 9.53125 -15.296875 C 10.09375 -14.734375 10.375 -13.910156 10.375 -12.828125 L 10.375 -11.296875 C 10.375 -11.054688 10.253906 -10.9375 10.015625 -10.9375 L 7.6875 -10.9375 C 7.4375 -10.9375 7.3125 -11.054688 7.3125 -11.296875 L 7.3125 -12.265625 C 7.3125 -12.878906 7.003906 -13.1875 6.390625 -13.1875 L 5.125 -13.1875 C 4.507812 -13.1875 4.203125 -12.878906 4.203125 -12.265625 L 4.203125 -10.3125 L 9.78125 -8.515625 C 10.175781 -8.367188 10.375 -8.082031 10.375 -7.65625 L 10.375 -3.328125 C 10.375 -2.242188 10.09375 -1.414062 9.53125 -0.84375 C 8.96875 -0.28125 8.144531 0 7.0625 0 L 4.46875 0 C 3.394531 0 2.570312 -0.28125 2 -0.84375 C 1.4375 -1.414062 1.15625 -2.242188 1.15625 -3.328125 L 1.15625 -4.8125 C 1.15625 -5.0625 1.273438 -5.1875 1.515625 -5.1875 L 3.84375 -5.1875 C 4.09375 -5.1875 4.21875 -5.0625 4.21875 -4.8125 L 4.21875 -3.84375 C 4.21875 -3.226562 4.523438 -2.921875 5.140625 -2.921875 L 6.390625 -2.921875 C 7.003906 -2.921875 7.3125 -3.226562 7.3125 -3.84375 L 7.3125 -6.1875 L 1.78125 -7.984375 C 1.363281 -8.117188 1.15625 -8.398438 1.15625 -8.828125 L 1.15625 -12.828125 C 1.15625 -13.910156 1.4375 -14.734375 2 -15.296875 C 2.570312 -15.859375 3.394531 -16.140625 4.46875 -16.140625 Z M 4.46875 -16.140625 "/></g></g><g style="fill:#060705;fill-opacity:1;"><g transform="translate(66.677997, 113.205696)"><path style="stroke:none" d="M 1.15625 -0.375 L 1.15625 -15.78125 C 1.15625 -16.019531 1.273438 -16.140625 1.515625 -16.140625 L 7.0625 -16.140625 C 8.144531 -16.140625 8.96875 -15.859375 9.53125 -15.296875 C 10.09375 -14.734375 10.375 -13.910156 10.375 -12.828125 L 10.375 -8.296875 C 10.375 -7.222656 10.09375 -6.40625 9.53125 -5.84375 C 8.96875 -5.28125 8.144531 -4.992188 7.0625 -4.984375 L 4.15625 -4.953125 L 4.15625 -0.34375 C 4.15625 -0.101562 4.03125 0.015625 3.78125 0.015625 L 1.515625 0 C 1.273438 0 1.15625 -0.125 1.15625 -0.375 Z M 4.15625 -7.9375 L 6.453125 -7.953125 C 7.066406 -7.953125 7.375 -8.257812 7.375 -8.875 L 7.375 -12.25 C 7.375 -12.863281 7.066406 -13.171875 6.453125 -13.171875 L 4.15625 -13.140625 Z M 4.15625 -7.9375 "/></g></g><g style="fill:#060705;fill-opacity:1;"><g transform="translate(78.203182, 113.205696)"><path style="stroke:none" d="M 10.359375 -15.78125 L 10.359375 -13.46875 C 10.359375 -13.207031 10.234375 -13.078125 9.984375 -13.078125 L 4.296875 -13.078125 L 4.296875 -9.53125 L 8.625 -9.53125 C 8.875 -9.53125 9 -9.394531 9 -9.125 L 9 -6.84375 C 9 -6.582031 8.875 -6.453125 8.625 -6.453125 L 4.296875 -6.453125 L 4.296875 -3.046875 L 9.984375 -3.046875 C 10.234375 -3.046875 10.359375 -2.921875 10.359375 -2.671875 L 10.359375 -0.375 C 10.359375 -0.125 10.234375 0 9.984375 0 L 1.5 0 C 1.269531 0 1.15625 -0.125 1.15625 -0.375 L 1.15625 -15.78125 C 1.15625 -16.019531 1.269531 -16.140625 1.5 -16.140625 L 9.984375 -16.140625 C 10.234375 -16.140625 10.359375 -16.019531 10.359375 -15.78125 Z M 10.359375 -15.78125 "/></g></g><g style="fill:#060705;fill-opacity:1;"><g transform="translate(89.705311, 113.205696)"><path style="stroke:none" d="M 10.40625 -12.828125 L 10.40625 -10.328125 C 10.40625 -10.085938 10.28125 -9.96875 10.03125 -9.96875 L 7.859375 -9.96875 C 7.617188 -9.96875 7.5 -10.085938 7.5 -10.328125 L 7.5 -12.21875 C 7.5 -12.832031 7.191406 -13.140625 6.578125 -13.140625 L 5.09375 -13.140625 C 4.476562 -13.140625 4.171875 -12.832031 4.171875 -12.21875 L 4.171875 -3.84375 C 4.171875 -3.226562 4.476562 -2.921875 5.09375 -2.921875 L 6.578125 -2.921875 C 7.191406 -2.921875 7.5 -3.226562 7.5 -3.84375 L 7.5 -5.8125 C 7.5 -6.0625 7.617188 -6.1875 7.859375 -6.1875 L 10.03125 -6.1875 C 10.28125 -6.1875 10.40625 -6.0625 10.40625 -5.8125 L 10.40625 -3.328125 C 10.40625 -2.242188 10.117188 -1.414062 9.546875 -0.84375 C 8.972656 -0.28125 8.148438 0 7.078125 0 L 4.5 0 C 3.414062 0 2.585938 -0.28125 2.015625 -0.84375 C 1.441406 -1.414062 1.15625 -2.242188 1.15625 -3.328125 L 1.15625 -12.828125 C 1.15625 -13.910156 1.441406 -14.734375 2.015625 -15.296875 C 2.585938 -15.859375 3.414062 -16.140625 4.5 -16.140625 L 7.078125 -16.140625 C 8.148438 -16.140625 8.972656 -15.859375 9.546875 -15.296875 C 10.117188 -14.734375 10.40625 -13.910156 10.40625 -12.828125 Z M 10.40625 -12.828125 "/></g></g><g style="fill:#060705;fill-opacity:1;"><g transform="translate(101.25355, 113.205696)"><path style="stroke:none" d="M 9.546875 -16.140625 L 1.0625 -16.140625 C 0.8125 -16.140625 0.6875 -16.019531 0.6875 -15.78125 L 0.6875 -13.46875 C 0.6875 -13.21875 0.8125 -13.09375 1.0625 -13.09375 L 3.734375 -13.09375 L 3.734375 -0.375 C 3.734375 -0.125 3.859375 0 4.109375 0 L 6.5 0 C 6.75 0 6.875 -0.125 6.875 -0.375 L 6.875 -13.09375 L 9.546875 -13.09375 C 9.796875 -13.09375 9.921875 -13.21875 9.921875 -13.46875 L 9.921875 -15.78125 C 9.921875 -16.019531 9.796875 -16.140625 9.546875 -16.140625 Z M 9.546875 -16.140625 "/></g></g></g></svg>