<svg xmlns="http://www.w3.org/2000/svg" xmlns:xlink="http://www.w3.org/1999/xlink" width="500" zoomAndPan="magnify" viewBox="0 0 375 374.999991" height="500" preserveAspectRatio="xMidYMid meet" version="1.2"><defs><clipPath id="5dedb909b0"><path d="M 25 0 L 350 0 L 350 375 L 25 375 Z M 25 0 "/></clipPath><clipPath id="6e580a3397"><path d="M -55.878906 142.882812 L 268.328125 -46.476562 L 431 232.042969 L 106.789062 421.402344 Z M -55.878906 142.882812 "/></clipPath><clipPath id="4f4bf94990"><path d="M 349.546875 92.851562 L 349.859375 279.433594 L 187.8125 374.078125 L 25.453125 282.140625 L 25.140625 95.5625 L 187.1875 0.917969 Z M 349.546875 92.851562 "/></clipPath><clipPath id="13079a578c"><path d="M 55.238281 35.632812 L 319.726562 35.632812 L 319.726562 339 L 55.238281 339 Z M 55.238281 35.632812 "/></clipPath></defs><g id="963cb86d76"><g clip-rule="nonzero" clip-path="url(#5dedb909b0)"><g clip-rule="nonzero" clip-path="url(#6e580a3397)"><g clip-rule="nonzero" clip-path="url(#4f4bf94990)"><path style=" stroke:none;fill-rule:nonzero;fill:#65b30e;fill-opacity:1;" d="M -55.878906 142.882812 L 268.332031 -46.476562 L 431 232.042969 L 106.789062 421.402344 Z M -55.878906 142.882812 "/></g></g></g><path style=" stroke:none;fill-rule:nonzero;fill:#87ff00;fill-opacity:1;" d="M 134.582031 135.703125 L 134.414062 135.535156 L 97.035156 172.914062 L 187.792969 263.503906 L 225.175781 226.296875 L 278.546875 172.914062 L 241.167969 135.535156 L 241.167969 135.363281 L 134.417969 135.363281 Z M 134.582031 135.703125 "/><g clip-rule="nonzero" clip-path="url(#13079a578c)"><path style=" stroke:none;fill-rule:nonzero;fill:#87ff00;fill-opacity:1;" d="M 187.453125 35.851562 L 55.269531 111.625 L 55.273438 263.175781 L 187.457031 338.949219 L 319.640625 263.175781 L 319.640625 111.625 L 187.457031 35.855469 Z M 294.375 248.683594 L 187.453125 310.308594 L 80.527344 248.683594 L 80.53125 125.765625 L 187.457031 64.136719 L 294.378906 125.765625 L 294.378906 248.683594 Z M 294.375 248.683594 "/></g><g style="fill:#b21a22;fill-opacity:1;"><g transform="translate(71.745137, 127.377907)"><path style="stroke:none" d="M 3.964844 -1.875 L 10.207031 -1.875 C 10.164062 -1.875 10.105469 -1.863281 10.035156 -1.839844 C 9.875 -1.785156 9.730469 -1.695312 9.601562 -1.566406 C 9.472656 -1.4375 9.382812 -1.292969 9.328125 -1.132812 C 9.304688 -1.0625 9.292969 -1.003906 9.292969 -0.960938 L 9.292969 -41.070312 C 9.292969 -41.027344 9.304688 -40.972656 9.328125 -40.898438 C 9.382812 -40.738281 9.472656 -40.59375 9.601562 -40.464844 C 9.730469 -40.335938 9.875 -40.246094 10.035156 -40.191406 C 10.105469 -40.167969 10.164062 -40.15625 10.207031 -40.15625 L 3.964844 -40.15625 C 4.007812 -40.15625 4.0625 -40.167969 4.136719 -40.191406 C 4.296875 -40.246094 4.441406 -40.335938 4.570312 -40.464844 C 4.699219 -40.59375 4.789062 -40.738281 4.84375 -40.898438 C 4.867188 -40.972656 4.878906 -41.027344 4.878906 -41.070312 L 4.878906 -0.960938 C 4.878906 -1.003906 4.867188 -1.0625 4.84375 -1.132812 C 4.789062 -1.292969 4.699219 -1.4375 4.570312 -1.566406 C 4.441406 -1.695312 4.296875 -1.785156 4.136719 -1.839844 C 4.0625 -1.863281 4.007812 -1.875 3.964844 -1.875 Z M 3.964844 1.875 C 3.125 1.875 2.441406 1.613281 1.914062 1.085938 C 1.390625 0.558594 1.125 -0.121094 1.125 -0.960938 L 1.125 -41.070312 C 1.125 -41.910156 1.390625 -42.59375 1.914062 -43.117188 C 2.441406 -43.644531 3.125 -43.910156 3.964844 -43.910156 L 10.207031 -43.910156 C 11.046875 -43.910156 11.730469 -43.644531 12.253906 -43.117188 C 12.78125 -42.59375 13.046875 -41.910156 13.046875 -41.070312 L 13.046875 -0.960938 C 13.046875 -0.121094 12.78125 0.558594 12.253906 1.085938 C 11.730469 1.613281 11.046875 1.875 10.207031 1.875 Z M 3.964844 1.875 "/></g></g><g style="fill:#b21a22;fill-opacity:1;"><g transform="translate(85.911499, 127.377907)"><path style="stroke:none" d="M 22.035156 -43.910156 L 27.679688 -43.910156 C 28.519531 -43.910156 29.203125 -43.644531 29.730469 -43.117188 C 30.253906 -42.59375 30.519531 -41.910156 30.519531 -41.070312 L 30.519531 -0.960938 C 30.519531 -0.121094 30.253906 0.558594 29.730469 1.085938 C 29.203125 1.613281 28.519531 1.875 27.679688 1.875 L 22.9375 1.875 C 22.292969 1.875 21.714844 1.691406 21.207031 1.324219 C 20.761719 1.003906 20.410156 0.5625 20.152344 0.00390625 L 21.855469 -0.78125 L 20.171875 0.046875 L 8.882812 -22.890625 L 10.566406 -23.71875 L 12.445312 -23.71875 L 12.445312 -0.960938 C 12.445312 -0.121094 12.179688 0.558594 11.65625 1.085938 C 11.128906 1.613281 10.445312 1.875 9.605469 1.875 L 3.964844 1.875 C 3.125 1.875 2.441406 1.613281 1.914062 1.085938 C 1.390625 0.558594 1.125 -0.121094 1.125 -0.960938 L 1.125 -41.070312 C 1.125 -41.910156 1.390625 -42.59375 1.914062 -43.117188 C 2.441406 -43.644531 3.125 -43.910156 3.964844 -43.910156 L 8.707031 -43.910156 C 9.351562 -43.910156 9.929688 -43.726562 10.4375 -43.359375 C 10.882812 -43.035156 11.234375 -42.597656 11.492188 -42.039062 L 9.789062 -41.25 L 11.472656 -42.082031 L 22.761719 -19.144531 L 21.074219 -18.3125 L 19.199219 -18.3125 L 19.199219 -41.070312 C 19.199219 -41.910156 19.460938 -42.59375 19.988281 -43.117188 C 20.515625 -43.644531 21.199219 -43.910156 22.035156 -43.910156 Z M 22.035156 -40.15625 C 22.078125 -40.15625 22.136719 -40.167969 22.210938 -40.191406 C 22.371094 -40.246094 22.515625 -40.335938 22.644531 -40.464844 C 22.773438 -40.59375 22.863281 -40.738281 22.917969 -40.898438 C 22.941406 -40.972656 22.953125 -41.027344 22.953125 -41.070312 L 22.953125 -18.3125 L 19.390625 -17.484375 L 8.09375 -40.445312 L 8.082031 -40.464844 C 8.101562 -40.425781 8.152344 -40.378906 8.238281 -40.316406 C 8.386719 -40.210938 8.542969 -40.15625 8.707031 -40.15625 L 3.964844 -40.15625 C 4.007812 -40.15625 4.0625 -40.167969 4.136719 -40.191406 C 4.296875 -40.246094 4.441406 -40.335938 4.570312 -40.464844 C 4.699219 -40.59375 4.789062 -40.738281 4.84375 -40.898438 C 4.867188 -40.972656 4.878906 -41.027344 4.878906 -41.070312 L 4.878906 -0.960938 C 4.878906 -1.003906 4.867188 -1.0625 4.84375 -1.132812 C 4.789062 -1.292969 4.699219 -1.4375 4.570312 -1.566406 C 4.441406 -1.695312 4.296875 -1.785156 4.136719 -1.839844 C 4.0625 -1.863281 4.007812 -1.875 3.964844 -1.875 L 9.605469 -1.875 C 9.566406 -1.875 9.507812 -1.863281 9.433594 -1.839844 C 9.273438 -1.785156 9.128906 -1.695312 9 -1.566406 C 8.871094 -1.4375 8.78125 -1.292969 8.726562 -1.132812 C 8.703125 -1.0625 8.691406 -1.003906 8.691406 -0.960938 L 8.691406 -23.71875 L 12.25 -24.546875 L 23.550781 -1.589844 L 23.5625 -1.566406 C 23.542969 -1.605469 23.492188 -1.65625 23.40625 -1.714844 C 23.257812 -1.824219 23.101562 -1.875 22.9375 -1.875 L 27.679688 -1.875 C 27.636719 -1.875 27.582031 -1.863281 27.507812 -1.839844 C 27.347656 -1.785156 27.203125 -1.695312 27.074219 -1.566406 C 26.945312 -1.4375 26.855469 -1.292969 26.800781 -1.132812 C 26.777344 -1.0625 26.765625 -1.003906 26.765625 -0.960938 L 26.765625 -41.070312 C 26.765625 -41.027344 26.777344 -40.972656 26.800781 -40.898438 C 26.855469 -40.738281 26.945312 -40.59375 27.074219 -40.464844 C 27.203125 -40.335938 27.347656 -40.246094 27.507812 -40.191406 C 27.582031 -40.167969 27.636719 -40.15625 27.679688 -40.15625 Z M 22.035156 -40.15625 "/></g></g><g style="fill:#b21a22;fill-opacity:1;"><g transform="translate(117.545738, 127.377907)"><path style="stroke:none" d="M 28.957031 -33.386719 L 28.957031 -26.902344 C 28.957031 -26.0625 28.695312 -25.378906 28.167969 -24.851562 C 27.640625 -24.328125 26.957031 -24.0625 26.121094 -24.0625 L 20.476562 -24.0625 C 19.636719 -24.0625 18.953125 -24.328125 18.429688 -24.851562 C 17.902344 -25.378906 17.636719 -26.0625 17.636719 -26.902344 L 17.636719 -31.824219 C 17.636719 -32.023438 17.621094 -32.175781 17.585938 -32.28125 C 17.578125 -32.300781 17.574219 -32.316406 17.566406 -32.324219 C 17.570312 -32.316406 17.578125 -32.308594 17.585938 -32.296875 C 17.597656 -32.289062 17.605469 -32.285156 17.609375 -32.28125 C 17.605469 -32.285156 17.589844 -32.289062 17.570312 -32.296875 C 17.460938 -32.332031 17.308594 -32.351562 17.113281 -32.351562 L 13.269531 -32.351562 C 13.074219 -32.351562 12.921875 -32.332031 12.8125 -32.296875 C 12.792969 -32.289062 12.78125 -32.285156 12.773438 -32.28125 C 12.777344 -32.285156 12.785156 -32.289062 12.796875 -32.296875 C 12.804688 -32.308594 12.8125 -32.316406 12.816406 -32.324219 C 12.8125 -32.316406 12.804688 -32.300781 12.796875 -32.28125 C 12.761719 -32.175781 12.746094 -32.023438 12.746094 -31.824219 L 12.746094 -10.027344 C 12.746094 -9.832031 12.761719 -9.679688 12.796875 -9.570312 C 12.804688 -9.550781 12.8125 -9.535156 12.816406 -9.53125 C 12.8125 -9.535156 12.804688 -9.542969 12.796875 -9.554688 C 12.785156 -9.5625 12.777344 -9.570312 12.773438 -9.574219 C 12.78125 -9.566406 12.792969 -9.5625 12.8125 -9.554688 C 12.921875 -9.519531 13.074219 -9.503906 13.269531 -9.503906 L 17.113281 -9.503906 C 17.308594 -9.503906 17.460938 -9.519531 17.570312 -9.554688 C 17.589844 -9.5625 17.605469 -9.566406 17.609375 -9.574219 C 17.605469 -9.570312 17.597656 -9.5625 17.585938 -9.554688 C 17.578125 -9.542969 17.570312 -9.535156 17.566406 -9.53125 C 17.574219 -9.535156 17.578125 -9.550781 17.585938 -9.570312 C 17.621094 -9.679688 17.636719 -9.832031 17.636719 -10.027344 L 17.636719 -15.132812 C 17.636719 -15.96875 17.902344 -16.652344 18.429688 -17.179688 C 18.953125 -17.707031 19.636719 -17.96875 20.476562 -17.96875 L 26.121094 -17.96875 C 26.957031 -17.96875 27.640625 -17.707031 28.167969 -17.179688 C 28.695312 -16.652344 28.957031 -15.96875 28.957031 -15.132812 L 28.957031 -8.648438 C 28.957031 -5.328125 28.035156 -2.742188 26.1875 -0.894531 C 24.339844 0.953125 21.753906 1.875 18.433594 1.875 L 11.707031 1.875 C 8.394531 1.875 5.800781 0.957031 3.9375 -0.886719 C 2.0625 -2.734375 1.125 -5.320312 1.125 -8.648438 L 1.125 -33.386719 C 1.125 -36.757812 2.066406 -39.355469 3.945312 -41.183594 C 5.8125 -43 8.398438 -43.910156 11.707031 -43.910156 L 18.433594 -43.910156 C 21.75 -43.910156 24.332031 -42.996094 26.175781 -41.175781 C 28.03125 -39.347656 28.957031 -36.75 28.957031 -33.386719 Z M 25.203125 -33.386719 C 25.203125 -35.703125 24.648438 -37.410156 23.542969 -38.503906 C 22.425781 -39.605469 20.722656 -40.15625 18.433594 -40.15625 L 11.707031 -40.15625 C 9.414062 -40.15625 7.699219 -39.601562 6.5625 -38.496094 C 5.441406 -37.402344 4.878906 -35.699219 4.878906 -33.386719 L 4.878906 -8.648438 C 4.878906 -6.367188 5.441406 -4.671875 6.570312 -3.558594 C 7.707031 -2.4375 9.421875 -1.875 11.707031 -1.875 L 18.433594 -1.875 C 20.71875 -1.875 22.417969 -2.433594 23.53125 -3.546875 C 24.648438 -4.664062 25.203125 -6.363281 25.203125 -8.648438 L 25.203125 -15.132812 C 25.203125 -15.089844 25.214844 -15.03125 25.242188 -14.957031 C 25.292969 -14.796875 25.386719 -14.652344 25.511719 -14.523438 C 25.640625 -14.394531 25.785156 -14.304688 25.945312 -14.253906 C 26.019531 -14.226562 26.078125 -14.214844 26.121094 -14.214844 L 20.476562 -14.214844 C 20.519531 -14.214844 20.578125 -14.226562 20.648438 -14.253906 C 20.808594 -14.304688 20.953125 -14.394531 21.082031 -14.523438 C 21.210938 -14.652344 21.300781 -14.796875 21.355469 -14.957031 C 21.378906 -15.03125 21.390625 -15.089844 21.390625 -15.132812 L 21.390625 -10.027344 C 21.390625 -8.707031 21.007812 -7.667969 20.242188 -6.898438 C 19.476562 -6.132812 18.433594 -5.75 17.113281 -5.75 L 13.269531 -5.75 C 11.953125 -5.75 10.910156 -6.132812 10.140625 -6.898438 C 9.375 -7.667969 8.992188 -8.707031 8.992188 -10.027344 L 8.992188 -31.824219 C 8.992188 -33.144531 9.375 -34.1875 10.140625 -34.953125 C 10.910156 -35.71875 11.953125 -36.101562 13.269531 -36.101562 L 17.113281 -36.101562 C 18.433594 -36.101562 19.476562 -35.71875 20.242188 -34.953125 C 21.007812 -34.1875 21.390625 -33.144531 21.390625 -31.824219 L 21.390625 -26.902344 C 21.390625 -26.945312 21.378906 -27 21.355469 -27.074219 C 21.300781 -27.234375 21.210938 -27.378906 21.082031 -27.507812 C 20.953125 -27.636719 20.808594 -27.726562 20.648438 -27.78125 C 20.578125 -27.804688 20.519531 -27.816406 20.476562 -27.816406 L 26.121094 -27.816406 C 26.078125 -27.816406 26.019531 -27.804688 25.945312 -27.78125 C 25.785156 -27.726562 25.640625 -27.636719 25.511719 -27.507812 C 25.386719 -27.378906 25.292969 -27.234375 25.242188 -27.074219 C 25.214844 -27 25.203125 -26.945312 25.203125 -26.902344 Z M 25.203125 -33.386719 "/></g></g><g style="fill:#b21a22;fill-opacity:1;"><g transform="translate(147.619275, 127.377907)"><path style="stroke:none" d="M 9.292969 -7.925781 L 9.292969 -41.070312 C 9.292969 -41.027344 9.304688 -40.972656 9.328125 -40.898438 C 9.382812 -40.738281 9.472656 -40.59375 9.601562 -40.464844 C 9.730469 -40.335938 9.875 -40.246094 10.035156 -40.191406 C 10.105469 -40.167969 10.164062 -40.15625 10.207031 -40.15625 L 3.964844 -40.15625 C 4.007812 -40.15625 4.0625 -40.167969 4.136719 -40.191406 C 4.296875 -40.246094 4.441406 -40.335938 4.570312 -40.464844 C 4.699219 -40.59375 4.789062 -40.738281 4.84375 -40.898438 C 4.867188 -40.972656 4.878906 -41.027344 4.878906 -41.070312 L 4.878906 -0.960938 C 4.878906 -1.003906 4.867188 -1.0625 4.84375 -1.132812 C 4.789062 -1.292969 4.699219 -1.4375 4.570312 -1.566406 C 4.441406 -1.695312 4.296875 -1.785156 4.136719 -1.839844 C 4.0625 -1.863281 4.007812 -1.875 3.964844 -1.875 L 23.058594 -1.875 C 23.015625 -1.875 22.957031 -1.863281 22.882812 -1.839844 C 22.722656 -1.785156 22.578125 -1.695312 22.453125 -1.566406 C 22.324219 -1.4375 22.230469 -1.292969 22.179688 -1.132812 C 22.152344 -1.0625 22.140625 -1.003906 22.140625 -0.960938 L 22.140625 -6.964844 C 22.140625 -6.921875 22.152344 -6.863281 22.179688 -6.792969 C 22.230469 -6.632812 22.324219 -6.488281 22.453125 -6.359375 C 22.578125 -6.230469 22.722656 -6.140625 22.882812 -6.085938 C 22.957031 -6.0625 23.015625 -6.050781 23.058594 -6.050781 L 9.292969 -6.050781 Z M 13.046875 -7.925781 L 11.167969 -7.925781 L 11.167969 -9.800781 L 23.058594 -9.800781 C 23.894531 -9.800781 24.578125 -9.539062 25.105469 -9.011719 C 25.632812 -8.484375 25.894531 -7.804688 25.894531 -6.964844 L 25.894531 -0.960938 C 25.894531 -0.121094 25.632812 0.558594 25.105469 1.085938 C 24.578125 1.613281 23.894531 1.875 23.058594 1.875 L 3.964844 1.875 C 3.125 1.875 2.441406 1.613281 1.914062 1.085938 C 1.390625 0.558594 1.125 -0.121094 1.125 -0.960938 L 1.125 -41.070312 C 1.125 -41.910156 1.390625 -42.59375 1.914062 -43.117188 C 2.441406 -43.644531 3.125 -43.910156 3.964844 -43.910156 L 10.207031 -43.910156 C 11.046875 -43.910156 11.730469 -43.644531 12.253906 -43.117188 C 12.78125 -42.59375 13.046875 -41.910156 13.046875 -41.070312 Z M 13.046875 -7.925781 "/></g></g><g style="fill:#b21a22;fill-opacity:1;"><g transform="translate(174.631423, 127.377907)"><path style="stroke:none" d="M 20.296875 -43.910156 L 25.820312 -43.910156 C 26.660156 -43.910156 27.378906 -43.605469 27.988281 -43 C 28.59375 -42.390625 28.898438 -41.667969 28.898438 -40.832031 L 28.898438 -8.648438 C 28.898438 -5.332031 27.988281 -2.75 26.164062 -0.902344 C 24.335938 0.949219 21.738281 1.875 18.375 1.875 L 11.648438 1.875 C 8.328125 1.875 5.746094 0.953125 3.898438 -0.894531 C 2.050781 -2.742188 1.125 -5.328125 1.125 -8.648438 L 1.125 -40.832031 C 1.125 -41.667969 1.429688 -42.390625 2.035156 -43 C 2.640625 -43.605469 3.363281 -43.910156 4.203125 -43.910156 L 9.96875 -43.910156 C 10.804688 -43.910156 11.527344 -43.605469 12.136719 -43 C 12.742188 -42.390625 13.046875 -41.667969 13.046875 -40.832031 L 13.046875 -10.328125 C 13.046875 -10.128906 13.0625 -9.976562 13.097656 -9.871094 C 13.105469 -9.851562 13.109375 -9.835938 13.117188 -9.828125 C 13.109375 -9.835938 13.105469 -9.84375 13.097656 -9.851562 C 13.085938 -9.863281 13.078125 -9.867188 13.070312 -9.871094 C 13.078125 -9.867188 13.09375 -9.863281 13.113281 -9.855469 C 13.21875 -9.820312 13.375 -9.800781 13.570312 -9.800781 L 16.691406 -9.800781 C 16.890625 -9.800781 17.042969 -9.820312 17.148438 -9.855469 C 17.171875 -9.863281 17.183594 -9.867188 17.191406 -9.871094 C 17.183594 -9.867188 17.175781 -9.863281 17.167969 -9.851562 C 17.160156 -9.84375 17.152344 -9.835938 17.148438 -9.828125 C 17.152344 -9.835938 17.15625 -9.851562 17.164062 -9.871094 C 17.199219 -9.976562 17.21875 -10.128906 17.21875 -10.328125 L 17.21875 -40.832031 C 17.21875 -41.667969 17.519531 -42.390625 18.128906 -43 C 18.734375 -43.605469 19.457031 -43.910156 20.296875 -43.910156 Z M 20.296875 -40.15625 C 20.492188 -40.15625 20.65625 -40.21875 20.78125 -40.34375 C 20.90625 -40.472656 20.972656 -40.632812 20.972656 -40.832031 L 20.972656 -10.328125 C 20.972656 -9.007812 20.585938 -7.964844 19.820312 -7.199219 C 19.054688 -6.433594 18.011719 -6.050781 16.691406 -6.050781 L 13.570312 -6.050781 C 12.25 -6.050781 11.207031 -6.433594 10.441406 -7.199219 C 9.675781 -7.964844 9.292969 -9.007812 9.292969 -10.328125 L 9.292969 -40.832031 C 9.292969 -40.632812 9.355469 -40.472656 9.480469 -40.34375 C 9.609375 -40.21875 9.769531 -40.15625 9.96875 -40.15625 L 4.203125 -40.15625 C 4.402344 -40.15625 4.5625 -40.21875 4.691406 -40.34375 C 4.816406 -40.472656 4.878906 -40.632812 4.878906 -40.832031 L 4.878906 -8.648438 C 4.878906 -6.363281 5.4375 -4.664062 6.550781 -3.546875 C 7.664062 -2.433594 9.363281 -1.875 11.648438 -1.875 L 18.375 -1.875 C 20.691406 -1.875 22.398438 -2.429688 23.492188 -3.539062 C 24.59375 -4.65625 25.144531 -6.359375 25.144531 -8.648438 L 25.144531 -40.832031 C 25.144531 -40.632812 25.207031 -40.472656 25.332031 -40.34375 C 25.460938 -40.21875 25.621094 -40.15625 25.820312 -40.15625 Z M 20.296875 -40.15625 "/></g></g><g style="fill:#b21a22;fill-opacity:1;"><g transform="translate(204.644923, 127.377907)"><path style="stroke:none" d="M 1.125 -0.960938 L 1.125 -41.070312 C 1.125 -41.910156 1.390625 -42.59375 1.914062 -43.117188 C 2.441406 -43.644531 3.125 -43.910156 3.964844 -43.910156 L 18.375 -43.910156 C 21.738281 -43.910156 24.335938 -42.980469 26.164062 -41.128906 C 27.988281 -39.28125 28.898438 -36.679688 28.898438 -33.324219 L 28.898438 -8.648438 C 28.898438 -5.332031 27.988281 -2.75 26.164062 -0.902344 C 24.335938 0.949219 21.738281 1.875 18.375 1.875 L 3.964844 1.875 C 3.125 1.875 2.441406 1.613281 1.914062 1.085938 C 1.390625 0.558594 1.125 -0.121094 1.125 -0.960938 Z M 4.878906 -0.960938 C 4.878906 -1.003906 4.867188 -1.0625 4.84375 -1.132812 C 4.789062 -1.292969 4.699219 -1.4375 4.570312 -1.566406 C 4.441406 -1.695312 4.296875 -1.785156 4.136719 -1.839844 C 4.0625 -1.863281 4.007812 -1.875 3.964844 -1.875 L 18.375 -1.875 C 20.691406 -1.875 22.398438 -2.429688 23.492188 -3.539062 C 24.59375 -4.65625 25.144531 -6.359375 25.144531 -8.648438 L 25.144531 -33.324219 C 25.144531 -35.65625 24.59375 -37.375 23.492188 -38.492188 C 22.398438 -39.601562 20.691406 -40.15625 18.375 -40.15625 L 3.964844 -40.15625 C 4.007812 -40.15625 4.0625 -40.167969 4.136719 -40.191406 C 4.296875 -40.246094 4.441406 -40.335938 4.570312 -40.464844 C 4.699219 -40.59375 4.789062 -40.738281 4.84375 -40.898438 C 4.867188 -40.972656 4.878906 -41.027344 4.878906 -41.070312 Z M 11.167969 -9.800781 L 16.691406 -9.800781 C 16.890625 -9.800781 17.042969 -9.820312 17.148438 -9.855469 C 17.171875 -9.863281 17.183594 -9.867188 17.191406 -9.871094 C 17.183594 -9.867188 17.175781 -9.863281 17.167969 -9.851562 C 17.160156 -9.84375 17.152344 -9.835938 17.148438 -9.828125 C 17.152344 -9.835938 17.15625 -9.851562 17.164062 -9.871094 C 17.199219 -9.976562 17.21875 -10.128906 17.21875 -10.328125 L 17.21875 -31.644531 C 17.21875 -31.855469 17.199219 -32.023438 17.160156 -32.140625 C 17.152344 -32.167969 17.144531 -32.183594 17.136719 -32.195312 C 17.140625 -32.191406 17.144531 -32.1875 17.152344 -32.179688 L 17.136719 -32.175781 C 17.035156 -32.210938 16.886719 -32.230469 16.691406 -32.230469 L 11.167969 -32.230469 L 11.167969 -34.105469 L 13.046875 -34.105469 L 13.046875 -7.925781 L 11.167969 -7.925781 Z M 9.292969 -6.050781 L 9.292969 -35.984375 L 16.691406 -35.984375 C 18.019531 -35.984375 19.070312 -35.589844 19.835938 -34.800781 C 20.59375 -34.027344 20.972656 -32.972656 20.972656 -31.644531 L 20.972656 -10.328125 C 20.972656 -9.007812 20.585938 -7.964844 19.820312 -7.199219 C 19.054688 -6.433594 18.011719 -6.050781 16.691406 -6.050781 Z M 9.292969 -6.050781 "/></g></g><g style="fill:#b21a22;fill-opacity:1;"><g transform="translate(234.658423, 127.377907)"><path style="stroke:none" d="M 28.835938 -41.070312 L 28.835938 -35.066406 C 28.835938 -34.230469 28.585938 -33.546875 28.085938 -33.015625 C 27.554688 -32.453125 26.859375 -32.167969 26 -32.167969 L 11.167969 -32.167969 L 11.167969 -34.046875 L 13.046875 -34.046875 L 13.046875 -24.800781 L 11.167969 -24.800781 L 11.167969 -26.675781 L 22.457031 -26.675781 C 23.316406 -26.675781 24.015625 -26.394531 24.542969 -25.828125 C 25.042969 -25.296875 25.292969 -24.613281 25.292969 -23.777344 L 25.292969 -17.832031 C 25.292969 -16.996094 25.042969 -16.3125 24.542969 -15.78125 C 24.015625 -15.21875 23.316406 -14.9375 22.457031 -14.9375 L 11.167969 -14.9375 L 11.167969 -16.8125 L 13.046875 -16.8125 L 13.046875 -7.925781 L 11.167969 -7.925781 L 11.167969 -9.800781 L 26 -9.800781 C 26.839844 -9.800781 27.519531 -9.539062 28.046875 -9.011719 C 28.574219 -8.484375 28.835938 -7.804688 28.835938 -6.964844 L 28.835938 -0.960938 C 28.835938 -0.121094 28.574219 0.558594 28.046875 1.085938 C 27.519531 1.613281 26.839844 1.875 26 1.875 L 3.902344 1.875 C 3.0625 1.875 2.378906 1.597656 1.859375 1.042969 C 1.371094 0.523438 1.125 -0.144531 1.125 -0.960938 L 1.125 -41.070312 C 1.125 -41.886719 1.371094 -42.554688 1.859375 -43.074219 C 2.378906 -43.632812 3.0625 -43.910156 3.902344 -43.910156 L 26 -43.910156 C 26.839844 -43.910156 27.519531 -43.644531 28.046875 -43.117188 C 28.574219 -42.59375 28.835938 -41.910156 28.835938 -41.070312 Z M 25.085938 -41.070312 C 25.085938 -41.027344 25.097656 -40.972656 25.121094 -40.898438 C 25.171875 -40.738281 25.265625 -40.59375 25.394531 -40.464844 C 25.523438 -40.335938 25.667969 -40.246094 25.828125 -40.191406 C 25.898438 -40.167969 25.957031 -40.15625 26 -40.15625 L 3.902344 -40.15625 C 4.144531 -40.15625 4.375 -40.273438 4.597656 -40.507812 C 4.71875 -40.636719 4.800781 -40.777344 4.851562 -40.933594 C 4.871094 -40.996094 4.878906 -41.039062 4.878906 -41.070312 L 4.878906 -0.960938 C 4.878906 -0.992188 4.871094 -1.039062 4.851562 -1.101562 C 4.800781 -1.253906 4.71875 -1.394531 4.597656 -1.523438 C 4.375 -1.757812 4.144531 -1.875 3.902344 -1.875 L 26 -1.875 C 25.957031 -1.875 25.898438 -1.863281 25.828125 -1.839844 C 25.667969 -1.785156 25.523438 -1.695312 25.394531 -1.566406 C 25.265625 -1.4375 25.171875 -1.292969 25.121094 -1.132812 C 25.097656 -1.0625 25.085938 -1.003906 25.085938 -0.960938 L 25.085938 -6.964844 C 25.085938 -6.921875 25.097656 -6.863281 25.121094 -6.792969 C 25.171875 -6.632812 25.265625 -6.488281 25.394531 -6.359375 C 25.523438 -6.230469 25.667969 -6.140625 25.828125 -6.085938 C 25.898438 -6.0625 25.957031 -6.050781 26 -6.050781 L 9.292969 -6.050781 L 9.292969 -18.6875 L 22.457031 -18.6875 C 22.402344 -18.6875 22.332031 -18.675781 22.25 -18.644531 C 22.085938 -18.585938 21.9375 -18.488281 21.8125 -18.355469 C 21.695312 -18.230469 21.613281 -18.09375 21.566406 -17.949219 C 21.550781 -17.894531 21.542969 -17.855469 21.542969 -17.832031 L 21.542969 -23.777344 C 21.542969 -23.757812 21.550781 -23.71875 21.566406 -23.664062 C 21.613281 -23.515625 21.695312 -23.382812 21.8125 -23.257812 C 21.9375 -23.121094 22.085938 -23.023438 22.25 -22.964844 C 22.332031 -22.9375 22.402344 -22.921875 22.457031 -22.921875 L 9.292969 -22.921875 L 9.292969 -35.921875 L 26 -35.921875 C 25.945312 -35.921875 25.875 -35.90625 25.792969 -35.878906 C 25.628906 -35.820312 25.480469 -35.722656 25.355469 -35.585938 C 25.238281 -35.464844 25.15625 -35.328125 25.109375 -35.183594 C 25.09375 -35.125 25.085938 -35.089844 25.085938 -35.066406 Z M 25.085938 -41.070312 "/></g></g><g style="fill:#b21a22;fill-opacity:1;"><g transform="translate(264.611886, 127.377907)"><path style="stroke:none" d="M -1.875 8.046875 L -1.875 2.523438 C -1.875 1.601562 -1.59375 0.859375 -1.027344 0.292969 C -0.460938 -0.273438 0.28125 -0.554688 1.199219 -0.554688 L 37.410156 -0.554688 C 38.328125 -0.554688 39.070312 -0.273438 39.636719 0.292969 C 40.203125 0.859375 40.484375 1.601562 40.484375 2.523438 L 40.484375 8.046875 C 40.484375 8.964844 40.203125 9.707031 39.636719 10.273438 C 39.070312 10.839844 38.328125 11.125 37.410156 11.125 L 1.199219 11.125 C 0.28125 11.125 -0.460938 10.839844 -1.027344 10.273438 C -1.59375 9.707031 -1.875 8.964844 -1.875 8.046875 Z M 1.875 8.046875 C 1.875 8.054688 1.875 8.0625 1.878906 8.066406 C 1.878906 8.066406 1.875 8.066406 1.875 8.0625 C 1.871094 8.039062 1.867188 8.011719 1.855469 7.976562 C 1.8125 7.847656 1.734375 7.730469 1.628906 7.621094 C 1.519531 7.511719 1.398438 7.433594 1.269531 7.390625 C 1.238281 7.382812 1.207031 7.375 1.183594 7.371094 C 1.183594 7.371094 1.179688 7.371094 1.179688 7.371094 C 1.1875 7.371094 1.191406 7.371094 1.199219 7.371094 L 37.410156 7.371094 C 37.417969 7.371094 37.425781 7.371094 37.429688 7.371094 C 37.429688 7.371094 37.425781 7.371094 37.425781 7.371094 C 37.402344 7.375 37.371094 7.382812 37.339844 7.390625 C 37.210938 7.433594 37.089844 7.511719 36.980469 7.621094 C 36.875 7.730469 36.796875 7.847656 36.753906 7.976562 C 36.742188 8.011719 36.738281 8.039062 36.734375 8.0625 C 36.734375 8.066406 36.734375 8.066406 36.734375 8.066406 C 36.734375 8.0625 36.734375 8.054688 36.734375 8.046875 L 36.734375 2.523438 C 36.734375 2.511719 36.734375 2.507812 36.734375 2.5 C 36.734375 2.5 36.734375 2.503906 36.734375 2.503906 C 36.738281 2.53125 36.742188 2.558594 36.753906 2.589844 C 36.796875 2.71875 36.875 2.839844 36.980469 2.949219 C 37.089844 3.058594 37.210938 3.132812 37.339844 3.175781 C 37.371094 3.1875 37.402344 3.195312 37.425781 3.199219 C 37.425781 3.199219 37.429688 3.199219 37.429688 3.199219 C 37.425781 3.199219 37.417969 3.199219 37.410156 3.199219 L 1.199219 3.199219 C 1.191406 3.199219 1.1875 3.199219 1.179688 3.199219 C 1.179688 3.199219 1.183594 3.199219 1.183594 3.199219 C 1.207031 3.195312 1.238281 3.1875 1.269531 3.175781 C 1.398438 3.132812 1.519531 3.058594 1.628906 2.949219 C 1.734375 2.839844 1.8125 2.71875 1.855469 2.589844 C 1.867188 2.558594 1.871094 2.53125 1.875 2.503906 C 1.875 2.503906 1.878906 2.5 1.878906 2.5 C 1.875 2.507812 1.875 2.511719 1.875 2.523438 Z M 1.875 8.046875 "/></g></g><g style="fill:#b21a22;fill-opacity:1;"><g transform="translate(109.273874, 211.092201)"><path style="stroke:none" d="M 36.988281 -43.910156 L 42.632812 -43.910156 C 43.628906 -43.910156 44.40625 -43.597656 44.96875 -42.976562 C 45.554688 -42.332031 45.773438 -41.507812 45.632812 -40.503906 L 39.867188 -0.8125 C 39.726562 0.0390625 39.363281 0.703125 38.777344 1.183594 C 38.210938 1.644531 37.515625 1.875 36.6875 1.875 L 30.203125 1.875 C 29.417969 1.875 28.738281 1.644531 28.175781 1.183594 C 27.648438 0.75 27.28125 0.164062 27.074219 -0.578125 L 27.0625 -0.625 L 21.527344 -25.289062 L 23.359375 -25.699219 L 25.1875 -25.285156 L 19.605469 -0.664062 C 19.429688 0.113281 19.066406 0.726562 18.511719 1.183594 C 17.945312 1.644531 17.257812 1.875 16.453125 1.875 L 9.847656 1.875 C 9 1.875 8.292969 1.628906 7.71875 1.136719 C 7.152344 0.644531 6.804688 -0.015625 6.671875 -0.847656 L 1.144531 -40.511719 C 1 -41.507812 1.222656 -42.332031 1.804688 -42.976562 C 2.367188 -43.597656 3.148438 -43.910156 4.144531 -43.910156 L 9.789062 -43.910156 C 10.628906 -43.910156 11.335938 -43.652344 11.902344 -43.136719 C 12.441406 -42.652344 12.773438 -42 12.902344 -41.183594 L 12.90625 -41.148438 L 15.855469 -16.011719 L 13.992188 -15.792969 L 13.992188 -17.667969 L 14.289062 -17.667969 L 14.289062 -15.792969 L 12.464844 -16.21875 L 18.359375 -41.488281 L 18.375 -41.539062 C 18.589844 -42.269531 18.96875 -42.84375 19.507812 -43.261719 C 20.066406 -43.691406 20.730469 -43.910156 21.496094 -43.910156 L 25.160156 -43.910156 C 25.925781 -43.910156 26.589844 -43.691406 27.148438 -43.261719 C 27.6875 -42.84375 28.066406 -42.269531 28.28125 -41.539062 L 28.296875 -41.488281 L 34.191406 -16.21875 L 32.363281 -15.792969 L 32.363281 -17.667969 L 32.664062 -17.667969 L 32.664062 -15.792969 L 30.800781 -16.019531 L 33.867188 -41.152344 L 33.875 -41.183594 C 34.003906 -42 34.335938 -42.652344 34.875 -43.136719 C 35.441406 -43.652344 36.144531 -43.910156 36.988281 -43.910156 Z M 36.988281 -40.15625 C 37.109375 -40.15625 37.246094 -40.222656 37.390625 -40.355469 C 37.472656 -40.425781 37.53125 -40.503906 37.570312 -40.585938 C 37.578125 -40.605469 37.582031 -40.621094 37.585938 -40.628906 C 37.585938 -40.625 37.582031 -40.613281 37.582031 -40.597656 L 35.726562 -40.890625 L 37.589844 -40.664062 L 34.328125 -13.914062 L 30.875 -13.914062 L 24.652344 -40.585938 L 26.480469 -41.011719 L 24.679688 -40.480469 C 24.675781 -40.492188 24.675781 -40.496094 24.675781 -40.5 C 24.679688 -40.488281 24.6875 -40.476562 24.695312 -40.460938 C 24.734375 -40.398438 24.785156 -40.34375 24.851562 -40.292969 C 24.96875 -40.199219 25.074219 -40.15625 25.160156 -40.15625 L 21.496094 -40.15625 C 21.582031 -40.15625 21.683594 -40.199219 21.804688 -40.292969 C 21.871094 -40.34375 21.921875 -40.398438 21.960938 -40.460938 C 21.96875 -40.476562 21.976562 -40.488281 21.980469 -40.5 C 21.980469 -40.496094 21.980469 -40.492188 21.976562 -40.480469 L 20.175781 -41.011719 L 22.003906 -40.585938 L 15.78125 -13.914062 L 12.320312 -13.914062 L 9.183594 -40.671875 L 11.046875 -40.890625 L 9.195312 -40.597656 C 9.191406 -40.613281 9.191406 -40.625 9.1875 -40.628906 C 9.191406 -40.621094 9.199219 -40.605469 9.207031 -40.585938 C 9.246094 -40.503906 9.304688 -40.425781 9.382812 -40.355469 C 9.53125 -40.222656 9.664062 -40.15625 9.789062 -40.15625 L 4.144531 -40.15625 C 4.121094 -40.15625 4.105469 -40.15625 4.09375 -40.152344 C 4.113281 -40.15625 4.140625 -40.164062 4.167969 -40.171875 C 4.324219 -40.222656 4.464844 -40.320312 4.589844 -40.457031 C 4.722656 -40.605469 4.808594 -40.765625 4.84375 -40.945312 C 4.851562 -40.984375 4.855469 -41.023438 4.855469 -41.054688 C 4.855469 -41.058594 4.855469 -41.058594 4.855469 -41.0625 C 4.859375 -41.054688 4.859375 -41.042969 4.859375 -41.03125 L 10.378906 -1.433594 C 10.382812 -1.421875 10.382812 -1.414062 10.382812 -1.414062 C 10.378906 -1.429688 10.371094 -1.449219 10.359375 -1.46875 C 10.320312 -1.554688 10.257812 -1.632812 10.171875 -1.707031 C 10.089844 -1.777344 10 -1.832031 9.902344 -1.859375 C 9.878906 -1.867188 9.855469 -1.875 9.835938 -1.875 L 16.453125 -1.875 C 16.367188 -1.875 16.261719 -1.824219 16.136719 -1.722656 C 16.058594 -1.660156 16 -1.59375 15.960938 -1.519531 C 15.949219 -1.5 15.941406 -1.484375 15.9375 -1.472656 C 15.9375 -1.472656 15.941406 -1.480469 15.945312 -1.496094 L 21.527344 -26.113281 L 25.1875 -26.109375 L 30.714844 -1.492188 L 28.882812 -1.082031 L 30.691406 -1.582031 C 30.695312 -1.566406 30.699219 -1.550781 30.703125 -1.542969 C 30.703125 -1.546875 30.699219 -1.554688 30.691406 -1.566406 C 30.660156 -1.621094 30.613281 -1.671875 30.550781 -1.722656 C 30.425781 -1.824219 30.308594 -1.875 30.203125 -1.875 L 36.6875 -1.875 C 36.699219 -1.875 36.707031 -1.875 36.710938 -1.878906 C 36.699219 -1.875 36.679688 -1.871094 36.660156 -1.863281 C 36.570312 -1.839844 36.484375 -1.789062 36.402344 -1.722656 C 36.257812 -1.605469 36.171875 -1.480469 36.152344 -1.351562 L 41.914062 -41.035156 C 41.917969 -41.046875 41.917969 -41.054688 41.917969 -41.0625 C 41.917969 -41.058594 41.917969 -41.058594 41.917969 -41.054688 C 41.917969 -41.023438 41.921875 -40.984375 41.933594 -40.945312 C 41.96875 -40.765625 42.054688 -40.605469 42.1875 -40.457031 C 42.3125 -40.320312 42.453125 -40.222656 42.605469 -40.171875 C 42.636719 -40.164062 42.660156 -40.15625 42.679688 -40.152344 C 42.671875 -40.15625 42.65625 -40.15625 42.632812 -40.15625 Z M 36.988281 -40.15625 "/></g></g><g style="fill:#b21a22;fill-opacity:1;"><g transform="translate(155.314576, 211.092201)"><path style="stroke:none" d="M 3.964844 -1.875 L 10.207031 -1.875 C 10.164062 -1.875 10.105469 -1.863281 10.035156 -1.839844 C 9.875 -1.785156 9.730469 -1.695312 9.601562 -1.566406 C 9.472656 -1.4375 9.382812 -1.292969 9.328125 -1.132812 C 9.304688 -1.0625 9.292969 -1.003906 9.292969 -0.960938 L 9.292969 -41.070312 C 9.292969 -41.027344 9.304688 -40.972656 9.328125 -40.898438 C 9.382812 -40.738281 9.472656 -40.59375 9.601562 -40.464844 C 9.730469 -40.335938 9.875 -40.246094 10.035156 -40.191406 C 10.105469 -40.167969 10.164062 -40.15625 10.207031 -40.15625 L 3.964844 -40.15625 C 4.007812 -40.15625 4.0625 -40.167969 4.136719 -40.191406 C 4.296875 -40.246094 4.441406 -40.335938 4.570312 -40.464844 C 4.699219 -40.59375 4.789062 -40.738281 4.84375 -40.898438 C 4.867188 -40.972656 4.878906 -41.027344 4.878906 -41.070312 L 4.878906 -0.960938 C 4.878906 -1.003906 4.867188 -1.0625 4.84375 -1.132812 C 4.789062 -1.292969 4.699219 -1.4375 4.570312 -1.566406 C 4.441406 -1.695312 4.296875 -1.785156 4.136719 -1.839844 C 4.0625 -1.863281 4.007812 -1.875 3.964844 -1.875 Z M 3.964844 1.875 C 3.125 1.875 2.441406 1.613281 1.914062 1.085938 C 1.390625 0.558594 1.125 -0.121094 1.125 -0.960938 L 1.125 -41.070312 C 1.125 -41.910156 1.390625 -42.59375 1.914062 -43.117188 C 2.441406 -43.644531 3.125 -43.910156 3.964844 -43.910156 L 10.207031 -43.910156 C 11.046875 -43.910156 11.730469 -43.644531 12.253906 -43.117188 C 12.78125 -42.59375 13.046875 -41.910156 13.046875 -41.070312 L 13.046875 -0.960938 C 13.046875 -0.121094 12.78125 0.558594 12.253906 1.085938 C 11.730469 1.613281 11.046875 1.875 10.207031 1.875 Z M 3.964844 1.875 "/></g></g><g style="fill:#b21a22;fill-opacity:1;"><g transform="translate(169.480939, 211.092201)"><path style="stroke:none" d="M 24.859375 -40.15625 L 2.761719 -40.15625 C 2.804688 -40.15625 2.863281 -40.167969 2.933594 -40.191406 C 3.09375 -40.246094 3.238281 -40.335938 3.367188 -40.464844 C 3.496094 -40.59375 3.589844 -40.738281 3.640625 -40.898438 C 3.664062 -40.972656 3.679688 -41.027344 3.679688 -41.070312 L 3.679688 -35.066406 C 3.679688 -35.109375 3.664062 -35.167969 3.640625 -35.238281 C 3.589844 -35.398438 3.496094 -35.542969 3.367188 -35.671875 C 3.238281 -35.800781 3.09375 -35.894531 2.933594 -35.945312 C 2.863281 -35.96875 2.804688 -35.984375 2.761719 -35.984375 L 11.605469 -35.984375 L 11.605469 -0.960938 C 11.605469 -1.003906 11.59375 -1.0625 11.566406 -1.132812 C 11.515625 -1.292969 11.421875 -1.4375 11.292969 -1.566406 C 11.164062 -1.695312 11.019531 -1.785156 10.859375 -1.839844 C 10.789062 -1.863281 10.730469 -1.875 10.6875 -1.875 L 16.933594 -1.875 C 16.890625 -1.875 16.832031 -1.863281 16.761719 -1.839844 C 16.601562 -1.785156 16.457031 -1.695312 16.328125 -1.566406 C 16.199219 -1.4375 16.105469 -1.292969 16.054688 -1.132812 C 16.027344 -1.0625 16.015625 -1.003906 16.015625 -0.960938 L 16.015625 -35.984375 L 24.859375 -35.984375 C 24.816406 -35.984375 24.757812 -35.96875 24.6875 -35.945312 C 24.527344 -35.894531 24.382812 -35.800781 24.253906 -35.671875 C 24.125 -35.542969 24.03125 -35.398438 23.980469 -35.238281 C 23.957031 -35.167969 23.941406 -35.109375 23.941406 -35.066406 L 23.941406 -41.070312 C 23.941406 -41.027344 23.957031 -40.972656 23.980469 -40.898438 C 24.03125 -40.738281 24.125 -40.59375 24.253906 -40.464844 C 24.382812 -40.335938 24.527344 -40.246094 24.6875 -40.191406 C 24.757812 -40.167969 24.816406 -40.15625 24.859375 -40.15625 Z M 24.859375 -43.910156 C 25.699219 -43.910156 26.378906 -43.644531 26.90625 -43.117188 C 27.433594 -42.59375 27.695312 -41.910156 27.695312 -41.070312 L 27.695312 -35.066406 C 27.695312 -34.226562 27.433594 -33.546875 26.90625 -33.019531 C 26.378906 -32.492188 25.699219 -32.230469 24.859375 -32.230469 L 17.894531 -32.230469 L 17.894531 -34.105469 L 19.769531 -34.105469 L 19.769531 -0.960938 C 19.769531 -0.121094 19.507812 0.558594 18.980469 1.085938 C 18.453125 1.613281 17.769531 1.875 16.933594 1.875 L 10.6875 1.875 C 9.851562 1.875 9.167969 1.613281 8.640625 1.085938 C 8.113281 0.558594 7.851562 -0.121094 7.851562 -0.960938 L 7.851562 -34.105469 L 9.726562 -34.105469 L 9.726562 -32.230469 L 2.761719 -32.230469 C 1.921875 -32.230469 1.242188 -32.492188 0.714844 -33.019531 C 0.1875 -33.546875 -0.0742188 -34.226562 -0.0742188 -35.066406 L -0.0742188 -41.070312 C -0.0742188 -41.910156 0.1875 -42.59375 0.714844 -43.117188 C 1.242188 -43.644531 1.921875 -43.910156 2.761719 -43.910156 Z M 24.859375 -43.910156 "/></g></g><g style="fill:#b21a22;fill-opacity:1;"><g transform="translate(197.093362, 211.092201)"><path style="stroke:none" d="M 16.976562 -24.859375 L 16.976562 -41.070312 C 16.976562 -41.910156 17.242188 -42.59375 17.769531 -43.117188 C 18.292969 -43.644531 18.976562 -43.910156 19.816406 -43.910156 L 26 -43.910156 C 26.835938 -43.910156 27.519531 -43.660156 28.050781 -43.160156 C 28.617188 -42.628906 28.898438 -41.933594 28.898438 -41.070312 L 28.898438 -0.960938 C 28.898438 -0.101562 28.617188 0.597656 28.050781 1.125 C 27.519531 1.625 26.835938 1.875 26 1.875 L 19.816406 1.875 C 18.976562 1.875 18.292969 1.613281 17.769531 1.085938 C 17.242188 0.558594 16.976562 -0.121094 16.976562 -0.960938 L 16.976562 -16.933594 L 18.855469 -16.933594 L 18.855469 -15.054688 L 11.167969 -15.054688 L 11.167969 -16.933594 L 13.046875 -16.933594 L 13.046875 -0.960938 C 13.046875 -0.121094 12.78125 0.558594 12.253906 1.085938 C 11.730469 1.613281 11.046875 1.875 10.207031 1.875 L 4.023438 1.875 C 3.1875 1.875 2.503906 1.625 1.972656 1.125 C 1.40625 0.597656 1.125 -0.101562 1.125 -0.960938 L 1.125 -41.070312 C 1.125 -41.933594 1.40625 -42.628906 1.972656 -43.160156 C 2.503906 -43.660156 3.1875 -43.910156 4.023438 -43.910156 L 10.207031 -43.910156 C 11.046875 -43.910156 11.730469 -43.644531 12.253906 -43.117188 C 12.78125 -42.59375 13.046875 -41.910156 13.046875 -41.070312 L 13.046875 -24.859375 L 11.167969 -24.859375 L 11.167969 -26.734375 L 18.855469 -26.734375 L 18.855469 -24.859375 Z M 20.730469 -22.984375 L 9.292969 -22.984375 L 9.292969 -41.070312 C 9.292969 -41.027344 9.304688 -40.972656 9.328125 -40.898438 C 9.382812 -40.738281 9.472656 -40.59375 9.601562 -40.464844 C 9.730469 -40.335938 9.875 -40.246094 10.035156 -40.191406 C 10.105469 -40.167969 10.164062 -40.15625 10.207031 -40.15625 L 4.023438 -40.15625 C 4.042969 -40.15625 4.082031 -40.164062 4.136719 -40.179688 C 4.285156 -40.226562 4.417969 -40.308594 4.542969 -40.425781 C 4.679688 -40.554688 4.777344 -40.699219 4.835938 -40.867188 C 4.863281 -40.949219 4.878906 -41.015625 4.878906 -41.070312 L 4.878906 -0.960938 C 4.878906 -1.015625 4.863281 -1.085938 4.835938 -1.167969 C 4.777344 -1.332031 4.679688 -1.480469 4.542969 -1.605469 C 4.417969 -1.722656 4.285156 -1.804688 4.136719 -1.851562 C 4.082031 -1.867188 4.042969 -1.875 4.023438 -1.875 L 10.207031 -1.875 C 10.164062 -1.875 10.105469 -1.863281 10.035156 -1.839844 C 9.875 -1.785156 9.730469 -1.695312 9.601562 -1.566406 C 9.472656 -1.4375 9.382812 -1.292969 9.328125 -1.132812 C 9.304688 -1.0625 9.292969 -1.003906 9.292969 -0.960938 L 9.292969 -18.808594 L 20.730469 -18.808594 L 20.730469 -0.960938 C 20.730469 -1.003906 20.71875 -1.0625 20.695312 -1.132812 C 20.640625 -1.292969 20.550781 -1.4375 20.421875 -1.566406 C 20.292969 -1.695312 20.148438 -1.785156 19.988281 -1.839844 C 19.914062 -1.863281 19.859375 -1.875 19.816406 -1.875 L 26 -1.875 C 25.976562 -1.875 25.941406 -1.867188 25.886719 -1.851562 C 25.738281 -1.804688 25.601562 -1.722656 25.480469 -1.605469 C 25.34375 -1.480469 25.246094 -1.332031 25.1875 -1.167969 C 25.160156 -1.085938 25.144531 -1.015625 25.144531 -0.960938 L 25.144531 -41.070312 C 25.144531 -41.015625 25.160156 -40.949219 25.1875 -40.867188 C 25.246094 -40.699219 25.34375 -40.554688 25.480469 -40.425781 C 25.601562 -40.308594 25.738281 -40.226562 25.886719 -40.179688 C 25.941406 -40.164062 25.976562 -40.15625 26 -40.15625 L 19.816406 -40.15625 C 19.859375 -40.15625 19.914062 -40.167969 19.988281 -40.191406 C 20.148438 -40.246094 20.292969 -40.335938 20.421875 -40.464844 C 20.550781 -40.59375 20.640625 -40.738281 20.695312 -40.898438 C 20.71875 -40.972656 20.730469 -41.027344 20.730469 -41.070312 Z M 20.730469 -22.984375 "/></g></g><g style="fill:#b21a22;fill-opacity:1;"><g transform="translate(227.106862, 211.092201)"><path style="stroke:none" d="M -1.875 8.046875 L -1.875 2.523438 C -1.875 1.601562 -1.59375 0.859375 -1.027344 0.292969 C -0.460938 -0.273438 0.28125 -0.554688 1.199219 -0.554688 L 37.410156 -0.554688 C 38.328125 -0.554688 39.070312 -0.273438 39.636719 0.292969 C 40.203125 0.859375 40.484375 1.601562 40.484375 2.523438 L 40.484375 8.046875 C 40.484375 8.964844 40.203125 9.707031 39.636719 10.273438 C 39.070312 10.839844 38.328125 11.125 37.410156 11.125 L 1.199219 11.125 C 0.28125 11.125 -0.460938 10.839844 -1.027344 10.273438 C -1.59375 9.707031 -1.875 8.964844 -1.875 8.046875 Z M 1.875 8.046875 C 1.875 8.054688 1.875 8.0625 1.878906 8.066406 C 1.878906 8.066406 1.875 8.066406 1.875 8.0625 C 1.871094 8.039062 1.867188 8.011719 1.855469 7.976562 C 1.8125 7.847656 1.734375 7.730469 1.628906 7.621094 C 1.519531 7.511719 1.398438 7.433594 1.269531 7.390625 C 1.238281 7.382812 1.207031 7.375 1.183594 7.371094 C 1.183594 7.371094 1.179688 7.371094 1.179688 7.371094 C 1.1875 7.371094 1.191406 7.371094 1.199219 7.371094 L 37.410156 7.371094 C 37.417969 7.371094 37.425781 7.371094 37.429688 7.371094 C 37.429688 7.371094 37.425781 7.371094 37.425781 7.371094 C 37.402344 7.375 37.371094 7.382812 37.339844 7.390625 C 37.210938 7.433594 37.089844 7.511719 36.980469 7.621094 C 36.875 7.730469 36.796875 7.847656 36.753906 7.976562 C 36.742188 8.011719 36.738281 8.039062 36.734375 8.0625 C 36.734375 8.066406 36.734375 8.066406 36.734375 8.066406 C 36.734375 8.0625 36.734375 8.054688 36.734375 8.046875 L 36.734375 2.523438 C 36.734375 2.511719 36.734375 2.507812 36.734375 2.5 C 36.734375 2.5 36.734375 2.503906 36.734375 2.503906 C 36.738281 2.53125 36.742188 2.558594 36.753906 2.589844 C 36.796875 2.71875 36.875 2.839844 36.980469 2.949219 C 37.089844 3.058594 37.210938 3.132812 37.339844 3.175781 C 37.371094 3.1875 37.402344 3.195312 37.425781 3.199219 C 37.425781 3.199219 37.429688 3.199219 37.429688 3.199219 C 37.425781 3.199219 37.417969 3.199219 37.410156 3.199219 L 1.199219 3.199219 C 1.191406 3.199219 1.1875 3.199219 1.179688 3.199219 C 1.179688 3.199219 1.183594 3.199219 1.183594 3.199219 C 1.207031 3.195312 1.238281 3.1875 1.269531 3.175781 C 1.398438 3.132812 1.519531 3.058594 1.628906 2.949219 C 1.734375 2.839844 1.8125 2.71875 1.855469 2.589844 C 1.867188 2.558594 1.871094 2.53125 1.875 2.503906 C 1.875 2.503906 1.878906 2.5 1.878906 2.5 C 1.875 2.507812 1.875 2.511719 1.875 2.523438 Z M 1.875 8.046875 "/></g></g><g style="fill:#b21a22;fill-opacity:1;"><g transform="translate(83.660154, 294.806495)"><path style="stroke:none" d="M 28.898438 -33.386719 L 28.898438 -21.316406 C 28.898438 -17.140625 27.480469 -14.167969 24.652344 -12.398438 L 23.65625 -13.992188 L 25.480469 -14.433594 L 28.605469 -1.523438 L 26.78125 -1.082031 L 28.589844 -1.582031 C 28.855469 -0.617188 28.726562 0.207031 28.203125 0.882812 C 27.6875 1.546875 26.933594 1.875 25.941406 1.875 L 20.054688 1.875 C 19.328125 1.875 18.703125 1.664062 18.1875 1.238281 C 17.679688 0.820312 17.351562 0.257812 17.199219 -0.449219 L 19.035156 -0.839844 L 17.210938 -0.394531 L 14.328125 -12.226562 L 16.152344 -12.667969 L 16.152344 -10.792969 L 10.808594 -10.792969 L 10.808594 -12.667969 L 12.683594 -12.667969 L 12.683594 -0.960938 C 12.683594 -0.121094 12.421875 0.558594 11.894531 1.085938 C 11.367188 1.613281 10.6875 1.875 9.847656 1.875 L 3.964844 1.875 C 3.125 1.875 2.441406 1.613281 1.914062 1.085938 C 1.390625 0.558594 1.125 -0.121094 1.125 -0.960938 L 1.125 -41.070312 C 1.125 -41.910156 1.390625 -42.59375 1.914062 -43.117188 C 2.441406 -43.644531 3.125 -43.910156 3.964844 -43.910156 L 18.375 -43.910156 C 21.734375 -43.910156 24.328125 -42.996094 26.15625 -41.167969 C 27.984375 -39.339844 28.898438 -36.746094 28.898438 -33.386719 Z M 25.144531 -33.386719 C 25.144531 -35.710938 24.597656 -37.417969 23.503906 -38.511719 C 22.40625 -39.609375 20.699219 -40.15625 18.375 -40.15625 L 3.964844 -40.15625 C 4.007812 -40.15625 4.0625 -40.167969 4.136719 -40.191406 C 4.296875 -40.246094 4.441406 -40.335938 4.570312 -40.464844 C 4.699219 -40.59375 4.789062 -40.738281 4.84375 -40.898438 C 4.867188 -40.972656 4.878906 -41.027344 4.878906 -41.070312 L 4.878906 -0.960938 C 4.878906 -1.003906 4.867188 -1.0625 4.84375 -1.132812 C 4.789062 -1.292969 4.699219 -1.4375 4.570312 -1.566406 C 4.441406 -1.695312 4.296875 -1.785156 4.136719 -1.839844 C 4.0625 -1.863281 4.007812 -1.875 3.964844 -1.875 L 9.847656 -1.875 C 9.804688 -1.875 9.746094 -1.863281 9.675781 -1.839844 C 9.515625 -1.785156 9.371094 -1.695312 9.242188 -1.566406 C 9.113281 -1.4375 9.019531 -1.292969 8.96875 -1.132812 C 8.945312 -1.0625 8.933594 -1.003906 8.933594 -0.960938 L 8.933594 -14.546875 L 17.625 -14.546875 L 20.863281 -1.257812 L 20.871094 -1.234375 C 20.839844 -1.378906 20.738281 -1.523438 20.574219 -1.660156 C 20.394531 -1.804688 20.222656 -1.875 20.054688 -1.875 L 25.941406 -1.875 C 25.902344 -1.871094 25.855469 -1.859375 25.804688 -1.839844 C 25.585938 -1.765625 25.398438 -1.625 25.238281 -1.421875 C 25.078125 -1.214844 24.988281 -0.988281 24.96875 -0.746094 C 24.964844 -0.664062 24.964844 -0.609375 24.972656 -0.578125 L 24.964844 -0.609375 L 21.515625 -14.863281 L 22.664062 -15.582031 C 24.316406 -16.617188 25.144531 -18.527344 25.144531 -21.316406 Z M 10.808594 -22.292969 L 16.8125 -22.292969 C 17.011719 -22.292969 17.164062 -22.308594 17.269531 -22.347656 C 17.289062 -22.351562 17.304688 -22.359375 17.3125 -22.363281 C 17.304688 -22.359375 17.296875 -22.351562 17.289062 -22.34375 C 17.277344 -22.335938 17.273438 -22.328125 17.269531 -22.320312 C 17.273438 -22.328125 17.277344 -22.339844 17.285156 -22.359375 C 17.320312 -22.46875 17.339844 -22.621094 17.339844 -22.816406 L 17.339844 -31.882812 C 17.339844 -32.082031 17.320312 -32.234375 17.285156 -32.34375 C 17.277344 -32.363281 17.273438 -32.375 17.269531 -32.382812 C 17.273438 -32.375 17.277344 -32.367188 17.289062 -32.359375 C 17.296875 -32.351562 17.304688 -32.34375 17.3125 -32.339844 C 17.304688 -32.34375 17.289062 -32.347656 17.269531 -32.355469 C 17.164062 -32.390625 17.011719 -32.410156 16.8125 -32.410156 L 10.808594 -32.410156 L 10.808594 -34.285156 L 12.683594 -34.285156 L 12.683594 -20.414062 L 10.808594 -20.414062 Z M 8.933594 -18.539062 L 8.933594 -36.164062 L 16.8125 -36.164062 C 18.132812 -36.164062 19.175781 -35.78125 19.941406 -35.011719 C 20.707031 -34.246094 21.089844 -33.203125 21.089844 -31.882812 L 21.089844 -22.816406 C 21.089844 -21.5 20.707031 -20.457031 19.941406 -19.6875 C 19.175781 -18.921875 18.132812 -18.539062 16.8125 -18.539062 Z M 8.933594 -18.539062 "/></g></g><g style="fill:#b21a22;fill-opacity:1;"><g transform="translate(113.673654, 294.806495)"><path style="stroke:none" d="M 28.835938 -41.070312 L 28.835938 -35.066406 C 28.835938 -34.230469 28.585938 -33.546875 28.085938 -33.015625 C 27.554688 -32.453125 26.859375 -32.167969 26 -32.167969 L 11.167969 -32.167969 L 11.167969 -34.046875 L 13.046875 -34.046875 L 13.046875 -24.800781 L 11.167969 -24.800781 L 11.167969 -26.675781 L 22.457031 -26.675781 C 23.316406 -26.675781 24.015625 -26.394531 24.542969 -25.828125 C 25.042969 -25.296875 25.292969 -24.613281 25.292969 -23.777344 L 25.292969 -17.832031 C 25.292969 -16.996094 25.042969 -16.3125 24.542969 -15.78125 C 24.015625 -15.21875 23.316406 -14.9375 22.457031 -14.9375 L 11.167969 -14.9375 L 11.167969 -16.8125 L 13.046875 -16.8125 L 13.046875 -7.925781 L 11.167969 -7.925781 L 11.167969 -9.800781 L 26 -9.800781 C 26.839844 -9.800781 27.519531 -9.539062 28.046875 -9.011719 C 28.574219 -8.484375 28.835938 -7.804688 28.835938 -6.964844 L 28.835938 -0.960938 C 28.835938 -0.121094 28.574219 0.558594 28.046875 1.085938 C 27.519531 1.613281 26.839844 1.875 26 1.875 L 3.902344 1.875 C 3.0625 1.875 2.378906 1.597656 1.859375 1.042969 C 1.371094 0.523438 1.125 -0.144531 1.125 -0.960938 L 1.125 -41.070312 C 1.125 -41.886719 1.371094 -42.554688 1.859375 -43.074219 C 2.378906 -43.632812 3.0625 -43.910156 3.902344 -43.910156 L 26 -43.910156 C 26.839844 -43.910156 27.519531 -43.644531 28.046875 -43.117188 C 28.574219 -42.59375 28.835938 -41.910156 28.835938 -41.070312 Z M 25.085938 -41.070312 C 25.085938 -41.027344 25.097656 -40.972656 25.121094 -40.898438 C 25.171875 -40.738281 25.265625 -40.59375 25.394531 -40.464844 C 25.523438 -40.335938 25.667969 -40.246094 25.828125 -40.191406 C 25.898438 -40.167969 25.957031 -40.15625 26 -40.15625 L 3.902344 -40.15625 C 4.144531 -40.15625 4.375 -40.273438 4.597656 -40.507812 C 4.71875 -40.636719 4.800781 -40.777344 4.851562 -40.933594 C 4.871094 -40.996094 4.878906 -41.039062 4.878906 -41.070312 L 4.878906 -0.960938 C 4.878906 -0.992188 4.871094 -1.039062 4.851562 -1.101562 C 4.800781 -1.253906 4.71875 -1.394531 4.597656 -1.523438 C 4.375 -1.757812 4.144531 -1.875 3.902344 -1.875 L 26 -1.875 C 25.957031 -1.875 25.898438 -1.863281 25.828125 -1.839844 C 25.667969 -1.785156 25.523438 -1.695312 25.394531 -1.566406 C 25.265625 -1.4375 25.171875 -1.292969 25.121094 -1.132812 C 25.097656 -1.0625 25.085938 -1.003906 25.085938 -0.960938 L 25.085938 -6.964844 C 25.085938 -6.921875 25.097656 -6.863281 25.121094 -6.792969 C 25.171875 -6.632812 25.265625 -6.488281 25.394531 -6.359375 C 25.523438 -6.230469 25.667969 -6.140625 25.828125 -6.085938 C 25.898438 -6.0625 25.957031 -6.050781 26 -6.050781 L 9.292969 -6.050781 L 9.292969 -18.6875 L 22.457031 -18.6875 C 22.402344 -18.6875 22.332031 -18.675781 22.25 -18.644531 C 22.085938 -18.585938 21.9375 -18.488281 21.8125 -18.355469 C 21.695312 -18.230469 21.613281 -18.09375 21.566406 -17.949219 C 21.550781 -17.894531 21.542969 -17.855469 21.542969 -17.832031 L 21.542969 -23.777344 C 21.542969 -23.757812 21.550781 -23.71875 21.566406 -23.664062 C 21.613281 -23.515625 21.695312 -23.382812 21.8125 -23.257812 C 21.9375 -23.121094 22.085938 -23.023438 22.25 -22.964844 C 22.332031 -22.9375 22.402344 -22.921875 22.457031 -22.921875 L 9.292969 -22.921875 L 9.292969 -35.921875 L 26 -35.921875 C 25.945312 -35.921875 25.875 -35.90625 25.792969 -35.878906 C 25.628906 -35.820312 25.480469 -35.722656 25.355469 -35.585938 C 25.238281 -35.464844 25.15625 -35.328125 25.109375 -35.183594 C 25.09375 -35.125 25.085938 -35.089844 25.085938 -35.066406 Z M 25.085938 -41.070312 "/></g></g><g style="fill:#b21a22;fill-opacity:1;"><g transform="translate(143.627117, 294.806495)"><path style="stroke:none" d="M 11.648438 -43.910156 L 18.375 -43.910156 C 21.734375 -43.910156 24.328125 -42.996094 26.15625 -41.167969 C 27.984375 -39.339844 28.898438 -36.746094 28.898438 -33.386719 L 28.898438 -29.421875 C 28.898438 -28.585938 28.632812 -27.902344 28.109375 -27.375 C 27.582031 -26.847656 26.898438 -26.585938 26.058594 -26.585938 L 19.996094 -26.585938 C 19.15625 -26.585938 18.472656 -26.847656 17.949219 -27.375 C 17.421875 -27.902344 17.15625 -28.585938 17.15625 -29.421875 L 17.15625 -31.945312 C 17.15625 -32.140625 17.140625 -32.292969 17.105469 -32.402344 C 17.097656 -32.421875 17.09375 -32.433594 17.085938 -32.441406 C 17.09375 -32.4375 17.097656 -32.425781 17.105469 -32.417969 C 17.117188 -32.410156 17.125 -32.402344 17.132812 -32.398438 C 17.125 -32.402344 17.109375 -32.410156 17.089844 -32.414062 C 16.984375 -32.453125 16.828125 -32.46875 16.632812 -32.46875 L 13.332031 -32.46875 C 13.132812 -32.46875 12.980469 -32.453125 12.871094 -32.414062 C 12.851562 -32.410156 12.839844 -32.402344 12.832031 -32.398438 C 12.839844 -32.402344 12.847656 -32.410156 12.855469 -32.417969 C 12.863281 -32.425781 12.871094 -32.4375 12.875 -32.441406 C 12.871094 -32.433594 12.867188 -32.421875 12.859375 -32.402344 C 12.824219 -32.292969 12.804688 -32.140625 12.804688 -31.945312 L 12.804688 -26.839844 L 10.929688 -26.839844 L 11.503906 -28.625 L 26.035156 -23.941406 C 26.964844 -23.621094 27.671875 -23.109375 28.164062 -22.410156 C 28.652344 -21.714844 28.898438 -20.890625 28.898438 -19.933594 L 28.898438 -8.648438 C 28.898438 -5.332031 27.988281 -2.75 26.164062 -0.902344 C 24.335938 0.949219 21.738281 1.875 18.375 1.875 L 11.648438 1.875 C 8.328125 1.875 5.746094 0.953125 3.898438 -0.894531 C 2.050781 -2.742188 1.125 -5.328125 1.125 -8.648438 L 1.125 -12.550781 C 1.125 -13.386719 1.390625 -14.070312 1.914062 -14.597656 C 2.441406 -15.125 3.125 -15.386719 3.964844 -15.386719 L 10.027344 -15.386719 C 10.867188 -15.386719 11.546875 -15.125 12.074219 -14.597656 C 12.601562 -14.070312 12.863281 -13.386719 12.863281 -12.550781 L 12.863281 -10.027344 C 12.863281 -9.832031 12.882812 -9.679688 12.917969 -9.570312 C 12.925781 -9.550781 12.929688 -9.535156 12.933594 -9.53125 C 12.929688 -9.535156 12.925781 -9.542969 12.914062 -9.554688 C 12.90625 -9.5625 12.898438 -9.570312 12.890625 -9.574219 C 12.898438 -9.566406 12.914062 -9.5625 12.933594 -9.554688 C 13.039062 -9.519531 13.191406 -9.503906 13.390625 -9.503906 L 16.632812 -9.503906 C 16.828125 -9.503906 16.984375 -9.519531 17.089844 -9.554688 C 17.109375 -9.5625 17.125 -9.566406 17.132812 -9.574219 C 17.125 -9.570312 17.117188 -9.5625 17.105469 -9.554688 C 17.097656 -9.542969 17.09375 -9.535156 17.085938 -9.53125 C 17.09375 -9.535156 17.097656 -9.550781 17.105469 -9.570312 C 17.140625 -9.679688 17.15625 -9.832031 17.15625 -10.027344 L 17.15625 -16.09375 L 19.035156 -16.09375 L 18.453125 -14.308594 L 4.042969 -18.992188 C 3.113281 -19.300781 2.398438 -19.800781 1.890625 -20.496094 C 1.382812 -21.195312 1.125 -22.027344 1.125 -22.996094 L 1.125 -33.386719 C 1.125 -36.75 2.050781 -39.347656 3.90625 -41.175781 C 5.753906 -42.996094 8.332031 -43.910156 11.648438 -43.910156 Z M 11.648438 -40.15625 C 9.359375 -40.15625 7.65625 -39.605469 6.542969 -38.503906 C 5.433594 -37.410156 4.878906 -35.703125 4.878906 -33.386719 L 4.878906 -22.996094 C 4.878906 -22.84375 4.894531 -22.75 4.921875 -22.707031 C 4.957031 -22.660156 5.050781 -22.613281 5.203125 -22.5625 L 20.910156 -17.457031 L 20.910156 -10.027344 C 20.910156 -8.707031 20.527344 -7.667969 19.761719 -6.898438 C 18.996094 -6.132812 17.953125 -5.75 16.632812 -5.75 L 13.390625 -5.75 C 12.070312 -5.75 11.027344 -6.132812 10.261719 -6.898438 C 9.496094 -7.667969 9.113281 -8.707031 9.113281 -10.027344 L 9.113281 -12.550781 C 9.113281 -12.507812 9.125 -12.449219 9.148438 -12.375 C 9.203125 -12.214844 9.292969 -12.070312 9.421875 -11.941406 C 9.550781 -11.816406 9.695312 -11.722656 9.855469 -11.671875 C 9.925781 -11.644531 9.984375 -11.632812 10.027344 -11.632812 L 3.964844 -11.632812 C 4.007812 -11.632812 4.0625 -11.644531 4.136719 -11.671875 C 4.296875 -11.722656 4.441406 -11.816406 4.570312 -11.941406 C 4.699219 -12.070312 4.789062 -12.214844 4.84375 -12.375 C 4.867188 -12.449219 4.878906 -12.507812 4.878906 -12.550781 L 4.878906 -8.648438 C 4.878906 -6.363281 5.4375 -4.664062 6.550781 -3.546875 C 7.664062 -2.433594 9.363281 -1.875 11.648438 -1.875 L 18.375 -1.875 C 20.691406 -1.875 22.398438 -2.429688 23.492188 -3.539062 C 24.59375 -4.65625 25.144531 -6.359375 25.144531 -8.648438 L 25.144531 -19.933594 C 25.144531 -20.101562 25.128906 -20.207031 25.09375 -20.253906 C 25.066406 -20.292969 24.996094 -20.332031 24.882812 -20.371094 L 9.050781 -25.472656 L 9.050781 -31.945312 C 9.050781 -33.261719 9.433594 -34.304688 10.203125 -35.074219 C 10.96875 -35.839844 12.011719 -36.222656 13.332031 -36.222656 L 16.632812 -36.222656 C 17.953125 -36.222656 18.996094 -35.839844 19.761719 -35.074219 C 20.527344 -34.304688 20.910156 -33.261719 20.910156 -31.945312 L 20.910156 -29.421875 C 20.910156 -29.464844 20.898438 -29.523438 20.875 -29.59375 C 20.820312 -29.753906 20.730469 -29.898438 20.601562 -30.027344 C 20.472656 -30.15625 20.328125 -30.25 20.167969 -30.300781 C 20.097656 -30.328125 20.039062 -30.339844 19.996094 -30.339844 L 26.058594 -30.339844 C 26.015625 -30.339844 25.960938 -30.328125 25.886719 -30.300781 C 25.726562 -30.25 25.582031 -30.15625 25.453125 -30.027344 C 25.324219 -29.898438 25.234375 -29.753906 25.179688 -29.59375 C 25.15625 -29.523438 25.144531 -29.464844 25.144531 -29.421875 L 25.144531 -33.386719 C 25.144531 -35.710938 24.597656 -37.417969 23.503906 -38.511719 C 22.40625 -39.609375 20.699219 -40.15625 18.375 -40.15625 Z M 11.648438 -40.15625 "/></g></g><g style="fill:#b21a22;fill-opacity:1;"><g transform="translate(173.640617, 294.806495)"><path style="stroke:none" d="M 1.125 -0.960938 L 1.125 -41.070312 C 1.125 -41.910156 1.390625 -42.59375 1.914062 -43.117188 C 2.441406 -43.644531 3.125 -43.910156 3.964844 -43.910156 L 18.375 -43.910156 C 21.734375 -43.910156 24.328125 -42.996094 26.15625 -41.167969 C 27.984375 -39.339844 28.898438 -36.746094 28.898438 -33.386719 L 28.898438 -21.617188 C 28.898438 -18.296875 27.984375 -15.722656 26.15625 -13.894531 C 24.335938 -12.074219 21.75 -11.140625 18.402344 -11.09375 L 10.824219 -11.035156 L 10.808594 -12.910156 L 12.683594 -12.910156 L 12.683594 -0.902344 C 12.683594 -0.0625 12.421875 0.621094 11.894531 1.148438 C 11.367188 1.671875 10.6875 1.9375 9.847656 1.9375 L 3.945312 1.875 C 3.117188 1.875 2.441406 1.613281 1.914062 1.085938 C 1.390625 0.558594 1.125 -0.121094 1.125 -0.960938 Z M 4.878906 -0.960938 C 4.878906 -1.003906 4.867188 -1.0625 4.84375 -1.132812 C 4.789062 -1.292969 4.699219 -1.4375 4.570312 -1.566406 C 4.441406 -1.695312 4.296875 -1.785156 4.136719 -1.839844 C 4.0625 -1.863281 4.011719 -1.875 3.980469 -1.875 L 9.847656 -1.816406 C 9.804688 -1.816406 9.746094 -1.804688 9.675781 -1.78125 C 9.515625 -1.726562 9.371094 -1.636719 9.242188 -1.507812 C 9.113281 -1.378906 9.019531 -1.234375 8.96875 -1.074219 C 8.945312 -1 8.933594 -0.945312 8.933594 -0.902344 L 8.933594 -14.773438 L 18.347656 -14.847656 C 20.683594 -14.878906 22.398438 -15.445312 23.503906 -16.546875 C 24.597656 -17.644531 25.144531 -19.332031 25.144531 -21.617188 L 25.144531 -33.386719 C 25.144531 -35.710938 24.597656 -37.417969 23.503906 -38.511719 C 22.40625 -39.609375 20.699219 -40.15625 18.375 -40.15625 L 3.964844 -40.15625 C 4.007812 -40.15625 4.0625 -40.167969 4.136719 -40.191406 C 4.296875 -40.246094 4.441406 -40.335938 4.570312 -40.464844 C 4.699219 -40.59375 4.789062 -40.738281 4.84375 -40.898438 C 4.867188 -40.972656 4.878906 -41.027344 4.878906 -41.070312 Z M 10.789062 -22.53125 L 16.792969 -22.59375 C 17.003906 -22.59375 17.164062 -22.609375 17.269531 -22.644531 C 17.289062 -22.652344 17.304688 -22.660156 17.3125 -22.664062 C 17.304688 -22.660156 17.296875 -22.652344 17.289062 -22.644531 C 17.277344 -22.632812 17.273438 -22.625 17.269531 -22.621094 C 17.273438 -22.625 17.277344 -22.640625 17.285156 -22.660156 C 17.320312 -22.769531 17.339844 -22.921875 17.339844 -23.117188 L 17.339844 -31.882812 C 17.339844 -32.082031 17.320312 -32.234375 17.285156 -32.34375 C 17.277344 -32.363281 17.273438 -32.375 17.269531 -32.382812 C 17.273438 -32.375 17.277344 -32.367188 17.289062 -32.359375 C 17.296875 -32.351562 17.304688 -32.34375 17.3125 -32.339844 C 17.304688 -32.34375 17.289062 -32.347656 17.269531 -32.355469 C 17.164062 -32.390625 17.011719 -32.410156 16.8125 -32.410156 L 10.828125 -32.351562 L 10.808594 -34.226562 L 12.683594 -34.226562 L 12.683594 -20.65625 L 10.808594 -20.65625 Z M 8.933594 -18.761719 L 8.933594 -36.085938 L 16.8125 -36.164062 C 18.132812 -36.164062 19.175781 -35.78125 19.941406 -35.011719 C 20.707031 -34.246094 21.089844 -33.203125 21.089844 -31.882812 L 21.089844 -23.117188 C 21.089844 -21.800781 20.707031 -20.757812 19.941406 -19.988281 C 19.175781 -19.222656 18.136719 -18.839844 16.832031 -18.839844 L 10.828125 -18.78125 Z M 8.933594 -18.761719 "/></g></g><g style="fill:#b21a22;fill-opacity:1;"><g transform="translate(203.654117, 294.806495)"><path style="stroke:none" d="M 28.835938 -41.070312 L 28.835938 -35.066406 C 28.835938 -34.230469 28.585938 -33.546875 28.085938 -33.015625 C 27.554688 -32.453125 26.859375 -32.167969 26 -32.167969 L 11.167969 -32.167969 L 11.167969 -34.046875 L 13.046875 -34.046875 L 13.046875 -24.800781 L 11.167969 -24.800781 L 11.167969 -26.675781 L 22.457031 -26.675781 C 23.316406 -26.675781 24.015625 -26.394531 24.542969 -25.828125 C 25.042969 -25.296875 25.292969 -24.613281 25.292969 -23.777344 L 25.292969 -17.832031 C 25.292969 -16.996094 25.042969 -16.3125 24.542969 -15.78125 C 24.015625 -15.21875 23.316406 -14.9375 22.457031 -14.9375 L 11.167969 -14.9375 L 11.167969 -16.8125 L 13.046875 -16.8125 L 13.046875 -7.925781 L 11.167969 -7.925781 L 11.167969 -9.800781 L 26 -9.800781 C 26.839844 -9.800781 27.519531 -9.539062 28.046875 -9.011719 C 28.574219 -8.484375 28.835938 -7.804688 28.835938 -6.964844 L 28.835938 -0.960938 C 28.835938 -0.121094 28.574219 0.558594 28.046875 1.085938 C 27.519531 1.613281 26.839844 1.875 26 1.875 L 3.902344 1.875 C 3.0625 1.875 2.378906 1.597656 1.859375 1.042969 C 1.371094 0.523438 1.125 -0.144531 1.125 -0.960938 L 1.125 -41.070312 C 1.125 -41.886719 1.371094 -42.554688 1.859375 -43.074219 C 2.378906 -43.632812 3.0625 -43.910156 3.902344 -43.910156 L 26 -43.910156 C 26.839844 -43.910156 27.519531 -43.644531 28.046875 -43.117188 C 28.574219 -42.59375 28.835938 -41.910156 28.835938 -41.070312 Z M 25.085938 -41.070312 C 25.085938 -41.027344 25.097656 -40.972656 25.121094 -40.898438 C 25.171875 -40.738281 25.265625 -40.59375 25.394531 -40.464844 C 25.523438 -40.335938 25.667969 -40.246094 25.828125 -40.191406 C 25.898438 -40.167969 25.957031 -40.15625 26 -40.15625 L 3.902344 -40.15625 C 4.144531 -40.15625 4.375 -40.273438 4.597656 -40.507812 C 4.71875 -40.636719 4.800781 -40.777344 4.851562 -40.933594 C 4.871094 -40.996094 4.878906 -41.039062 4.878906 -41.070312 L 4.878906 -0.960938 C 4.878906 -0.992188 4.871094 -1.039062 4.851562 -1.101562 C 4.800781 -1.253906 4.71875 -1.394531 4.597656 -1.523438 C 4.375 -1.757812 4.144531 -1.875 3.902344 -1.875 L 26 -1.875 C 25.957031 -1.875 25.898438 -1.863281 25.828125 -1.839844 C 25.667969 -1.785156 25.523438 -1.695312 25.394531 -1.566406 C 25.265625 -1.4375 25.171875 -1.292969 25.121094 -1.132812 C 25.097656 -1.0625 25.085938 -1.003906 25.085938 -0.960938 L 25.085938 -6.964844 C 25.085938 -6.921875 25.097656 -6.863281 25.121094 -6.792969 C 25.171875 -6.632812 25.265625 -6.488281 25.394531 -6.359375 C 25.523438 -6.230469 25.667969 -6.140625 25.828125 -6.085938 C 25.898438 -6.0625 25.957031 -6.050781 26 -6.050781 L 9.292969 -6.050781 L 9.292969 -18.6875 L 22.457031 -18.6875 C 22.402344 -18.6875 22.332031 -18.675781 22.25 -18.644531 C 22.085938 -18.585938 21.9375 -18.488281 21.8125 -18.355469 C 21.695312 -18.230469 21.613281 -18.09375 21.566406 -17.949219 C 21.550781 -17.894531 21.542969 -17.855469 21.542969 -17.832031 L 21.542969 -23.777344 C 21.542969 -23.757812 21.550781 -23.71875 21.566406 -23.664062 C 21.613281 -23.515625 21.695312 -23.382812 21.8125 -23.257812 C 21.9375 -23.121094 22.085938 -23.023438 22.25 -22.964844 C 22.332031 -22.9375 22.402344 -22.921875 22.457031 -22.921875 L 9.292969 -22.921875 L 9.292969 -35.921875 L 26 -35.921875 C 25.945312 -35.921875 25.875 -35.90625 25.792969 -35.878906 C 25.628906 -35.820312 25.480469 -35.722656 25.355469 -35.585938 C 25.238281 -35.464844 25.15625 -35.328125 25.109375 -35.183594 C 25.09375 -35.125 25.085938 -35.089844 25.085938 -35.066406 Z M 25.085938 -41.070312 "/></g></g><g style="fill:#b21a22;fill-opacity:1;"><g transform="translate(233.60758, 294.806495)"><path style="stroke:none" d="M 28.957031 -33.386719 L 28.957031 -26.902344 C 28.957031 -26.0625 28.695312 -25.378906 28.167969 -24.851562 C 27.640625 -24.328125 26.957031 -24.0625 26.121094 -24.0625 L 20.476562 -24.0625 C 19.636719 -24.0625 18.953125 -24.328125 18.429688 -24.851562 C 17.902344 -25.378906 17.636719 -26.0625 17.636719 -26.902344 L 17.636719 -31.824219 C 17.636719 -32.023438 17.621094 -32.175781 17.585938 -32.28125 C 17.578125 -32.300781 17.574219 -32.316406 17.566406 -32.324219 C 17.570312 -32.316406 17.578125 -32.308594 17.585938 -32.296875 C 17.597656 -32.289062 17.605469 -32.285156 17.609375 -32.28125 C 17.605469 -32.285156 17.589844 -32.289062 17.570312 -32.296875 C 17.460938 -32.332031 17.308594 -32.351562 17.113281 -32.351562 L 13.269531 -32.351562 C 13.074219 -32.351562 12.921875 -32.332031 12.8125 -32.296875 C 12.792969 -32.289062 12.78125 -32.285156 12.773438 -32.28125 C 12.777344 -32.285156 12.785156 -32.289062 12.796875 -32.296875 C 12.804688 -32.308594 12.8125 -32.316406 12.816406 -32.324219 C 12.8125 -32.316406 12.804688 -32.300781 12.796875 -32.28125 C 12.761719 -32.175781 12.746094 -32.023438 12.746094 -31.824219 L 12.746094 -10.027344 C 12.746094 -9.832031 12.761719 -9.679688 12.796875 -9.570312 C 12.804688 -9.550781 12.8125 -9.535156 12.816406 -9.53125 C 12.8125 -9.535156 12.804688 -9.542969 12.796875 -9.554688 C 12.785156 -9.5625 12.777344 -9.570312 12.773438 -9.574219 C 12.78125 -9.566406 12.792969 -9.5625 12.8125 -9.554688 C 12.921875 -9.519531 13.074219 -9.503906 13.269531 -9.503906 L 17.113281 -9.503906 C 17.308594 -9.503906 17.460938 -9.519531 17.570312 -9.554688 C 17.589844 -9.5625 17.605469 -9.566406 17.609375 -9.574219 C 17.605469 -9.570312 17.597656 -9.5625 17.585938 -9.554688 C 17.578125 -9.542969 17.570312 -9.535156 17.566406 -9.53125 C 17.574219 -9.535156 17.578125 -9.550781 17.585938 -9.570312 C 17.621094 -9.679688 17.636719 -9.832031 17.636719 -10.027344 L 17.636719 -15.132812 C 17.636719 -15.96875 17.902344 -16.652344 18.429688 -17.179688 C 18.953125 -17.707031 19.636719 -17.96875 20.476562 -17.96875 L 26.121094 -17.96875 C 26.957031 -17.96875 27.640625 -17.707031 28.167969 -17.179688 C 28.695312 -16.652344 28.957031 -15.96875 28.957031 -15.132812 L 28.957031 -8.648438 C 28.957031 -5.328125 28.035156 -2.742188 26.1875 -0.894531 C 24.339844 0.953125 21.753906 1.875 18.433594 1.875 L 11.707031 1.875 C 8.394531 1.875 5.800781 0.957031 3.9375 -0.886719 C 2.0625 -2.734375 1.125 -5.320312 1.125 -8.648438 L 1.125 -33.386719 C 1.125 -36.757812 2.066406 -39.355469 3.945312 -41.183594 C 5.8125 -43 8.398438 -43.910156 11.707031 -43.910156 L 18.433594 -43.910156 C 21.75 -43.910156 24.332031 -42.996094 26.175781 -41.175781 C 28.03125 -39.347656 28.957031 -36.75 28.957031 -33.386719 Z M 25.203125 -33.386719 C 25.203125 -35.703125 24.648438 -37.410156 23.542969 -38.503906 C 22.425781 -39.605469 20.722656 -40.15625 18.433594 -40.15625 L 11.707031 -40.15625 C 9.414062 -40.15625 7.699219 -39.601562 6.5625 -38.496094 C 5.441406 -37.402344 4.878906 -35.699219 4.878906 -33.386719 L 4.878906 -8.648438 C 4.878906 -6.367188 5.441406 -4.671875 6.570312 -3.558594 C 7.707031 -2.4375 9.421875 -1.875 11.707031 -1.875 L 18.433594 -1.875 C 20.71875 -1.875 22.417969 -2.433594 23.53125 -3.546875 C 24.648438 -4.664062 25.203125 -6.363281 25.203125 -8.648438 L 25.203125 -15.132812 C 25.203125 -15.089844 25.214844 -15.03125 25.242188 -14.957031 C 25.292969 -14.796875 25.386719 -14.652344 25.511719 -14.523438 C 25.640625 -14.394531 25.785156 -14.304688 25.945312 -14.253906 C 26.019531 -14.226562 26.078125 -14.214844 26.121094 -14.214844 L 20.476562 -14.214844 C 20.519531 -14.214844 20.578125 -14.226562 20.648438 -14.253906 C 20.808594 -14.304688 20.953125 -14.394531 21.082031 -14.523438 C 21.210938 -14.652344 21.300781 -14.796875 21.355469 -14.957031 C 21.378906 -15.03125 21.390625 -15.089844 21.390625 -15.132812 L 21.390625 -10.027344 C 21.390625 -8.707031 21.007812 -7.667969 20.242188 -6.898438 C 19.476562 -6.132812 18.433594 -5.75 17.113281 -5.75 L 13.269531 -5.75 C 11.953125 -5.75 10.910156 -6.132812 10.140625 -6.898438 C 9.375 -7.667969 8.992188 -8.707031 8.992188 -10.027344 L 8.992188 -31.824219 C 8.992188 -33.144531 9.375 -34.1875 10.140625 -34.953125 C 10.910156 -35.71875 11.953125 -36.101562 13.269531 -36.101562 L 17.113281 -36.101562 C 18.433594 -36.101562 19.476562 -35.71875 20.242188 -34.953125 C 21.007812 -34.1875 21.390625 -33.144531 21.390625 -31.824219 L 21.390625 -26.902344 C 21.390625 -26.945312 21.378906 -27 21.355469 -27.074219 C 21.300781 -27.234375 21.210938 -27.378906 21.082031 -27.507812 C 20.953125 -27.636719 20.808594 -27.726562 20.648438 -27.78125 C 20.578125 -27.804688 20.519531 -27.816406 20.476562 -27.816406 L 26.121094 -27.816406 C 26.078125 -27.816406 26.019531 -27.804688 25.945312 -27.78125 C 25.785156 -27.726562 25.640625 -27.636719 25.511719 -27.507812 C 25.386719 -27.378906 25.292969 -27.234375 25.242188 -27.074219 C 25.214844 -27 25.203125 -26.945312 25.203125 -26.902344 Z M 25.203125 -33.386719 "/></g></g><g style="fill:#b21a22;fill-opacity:1;"><g transform="translate(263.681117, 294.806495)"><path style="stroke:none" d="M 24.859375 -40.15625 L 2.761719 -40.15625 C 2.804688 -40.15625 2.863281 -40.167969 2.933594 -40.191406 C 3.09375 -40.246094 3.238281 -40.335938 3.367188 -40.464844 C 3.496094 -40.59375 3.589844 -40.738281 3.640625 -40.898438 C 3.664062 -40.972656 3.679688 -41.027344 3.679688 -41.070312 L 3.679688 -35.066406 C 3.679688 -35.109375 3.664062 -35.167969 3.640625 -35.238281 C 3.589844 -35.398438 3.496094 -35.542969 3.367188 -35.671875 C 3.238281 -35.800781 3.09375 -35.894531 2.933594 -35.945312 C 2.863281 -35.96875 2.804688 -35.984375 2.761719 -35.984375 L 11.605469 -35.984375 L 11.605469 -0.960938 C 11.605469 -1.003906 11.59375 -1.0625 11.566406 -1.132812 C 11.515625 -1.292969 11.421875 -1.4375 11.292969 -1.566406 C 11.164062 -1.695312 11.019531 -1.785156 10.859375 -1.839844 C 10.789062 -1.863281 10.730469 -1.875 10.6875 -1.875 L 16.933594 -1.875 C 16.890625 -1.875 16.832031 -1.863281 16.761719 -1.839844 C 16.601562 -1.785156 16.457031 -1.695312 16.328125 -1.566406 C 16.199219 -1.4375 16.105469 -1.292969 16.054688 -1.132812 C 16.027344 -1.0625 16.015625 -1.003906 16.015625 -0.960938 L 16.015625 -35.984375 L 24.859375 -35.984375 C 24.816406 -35.984375 24.757812 -35.96875 24.6875 -35.945312 C 24.527344 -35.894531 24.382812 -35.800781 24.253906 -35.671875 C 24.125 -35.542969 24.03125 -35.398438 23.980469 -35.238281 C 23.957031 -35.167969 23.941406 -35.109375 23.941406 -35.066406 L 23.941406 -41.070312 C 23.941406 -41.027344 23.957031 -40.972656 23.980469 -40.898438 C 24.03125 -40.738281 24.125 -40.59375 24.253906 -40.464844 C 24.382812 -40.335938 24.527344 -40.246094 24.6875 -40.191406 C 24.757812 -40.167969 24.816406 -40.15625 24.859375 -40.15625 Z M 24.859375 -43.910156 C 25.699219 -43.910156 26.378906 -43.644531 26.90625 -43.117188 C 27.433594 -42.59375 27.695312 -41.910156 27.695312 -41.070312 L 27.695312 -35.066406 C 27.695312 -34.226562 27.433594 -33.546875 26.90625 -33.019531 C 26.378906 -32.492188 25.699219 -32.230469 24.859375 -32.230469 L 17.894531 -32.230469 L 17.894531 -34.105469 L 19.769531 -34.105469 L 19.769531 -0.960938 C 19.769531 -0.121094 19.507812 0.558594 18.980469 1.085938 C 18.453125 1.613281 17.769531 1.875 16.933594 1.875 L 10.6875 1.875 C 9.851562 1.875 9.167969 1.613281 8.640625 1.085938 C 8.113281 0.558594 7.851562 -0.121094 7.851562 -0.960938 L 7.851562 -34.105469 L 9.726562 -34.105469 L 9.726562 -32.230469 L 2.761719 -32.230469 C 1.921875 -32.230469 1.242188 -32.492188 0.714844 -33.019531 C 0.1875 -33.546875 -0.0742188 -34.226562 -0.0742188 -35.066406 L -0.0742188 -41.070312 C -0.0742188 -41.910156 0.1875 -42.59375 0.714844 -43.117188 C 1.242188 -43.644531 1.921875 -43.910156 2.761719 -43.910156 Z M 24.859375 -43.910156 "/></g></g><g style="fill:#060705;fill-opacity:1;"><g transform="translate(71.745137, 127.377907)"><path style="stroke:none" d="M 3.96875 0 L 10.203125 0 C 10.847656 0 11.171875 -0.316406 11.171875 -0.953125 L 11.171875 -41.078125 C 11.171875 -41.710938 10.847656 -42.03125 10.203125 -42.03125 L 3.96875 -42.03125 C 3.320312 -42.03125 3 -41.710938 3 -41.078125 L 3 -0.953125 C 3 -0.316406 3.320312 0 3.96875 0 Z M 3.96875 0 "/></g></g><g style="fill:#060705;fill-opacity:1;"><g transform="translate(85.911499, 127.377907)"><path style="stroke:none" d="M 22.03125 -42.03125 L 27.6875 -42.03125 C 28.320312 -42.03125 28.640625 -41.710938 28.640625 -41.078125 L 28.640625 -0.953125 C 28.640625 -0.316406 28.320312 0 27.6875 0 L 22.9375 0 C 22.457031 0 22.097656 -0.257812 21.859375 -0.78125 L 10.5625 -23.71875 L 10.5625 -0.953125 C 10.5625 -0.316406 10.242188 0 9.609375 0 L 3.96875 0 C 3.320312 0 3 -0.316406 3 -0.953125 L 3 -41.078125 C 3 -41.710938 3.320312 -42.03125 3.96875 -42.03125 L 8.703125 -42.03125 C 9.179688 -42.03125 9.539062 -41.769531 9.78125 -41.25 L 21.078125 -18.3125 L 21.078125 -41.078125 C 21.078125 -41.710938 21.394531 -42.03125 22.03125 -42.03125 Z M 22.03125 -42.03125 "/></g></g><g style="fill:#060705;fill-opacity:1;"><g transform="translate(117.545738, 127.377907)"><path style="stroke:none" d="M 27.078125 -33.390625 L 27.078125 -26.90625 C 27.078125 -26.257812 26.757812 -25.9375 26.125 -25.9375 L 20.46875 -25.9375 C 19.832031 -25.9375 19.515625 -26.257812 19.515625 -26.90625 L 19.515625 -31.828125 C 19.515625 -33.429688 18.710938 -34.234375 17.109375 -34.234375 L 13.265625 -34.234375 C 11.671875 -34.234375 10.875 -33.429688 10.875 -31.828125 L 10.875 -10.03125 C 10.875 -8.425781 11.671875 -7.625 13.265625 -7.625 L 17.109375 -7.625 C 18.710938 -7.625 19.515625 -8.425781 19.515625 -10.03125 L 19.515625 -15.125 C 19.515625 -15.769531 19.832031 -16.09375 20.46875 -16.09375 L 26.125 -16.09375 C 26.757812 -16.09375 27.078125 -15.769531 27.078125 -15.125 L 27.078125 -8.640625 C 27.078125 -5.835938 26.335938 -3.695312 24.859375 -2.21875 C 23.378906 -0.738281 21.238281 0 18.4375 0 L 11.703125 0 C 8.898438 0 6.75 -0.738281 5.25 -2.21875 C 3.75 -3.695312 3 -5.835938 3 -8.640625 L 3 -33.390625 C 3 -36.234375 3.75 -38.382812 5.25 -39.84375 C 6.75 -41.300781 8.898438 -42.03125 11.703125 -42.03125 L 18.4375 -42.03125 C 21.238281 -42.03125 23.378906 -41.300781 24.859375 -39.84375 C 26.335938 -38.382812 27.078125 -36.234375 27.078125 -33.390625 Z M 27.078125 -33.390625 "/></g></g><g style="fill:#060705;fill-opacity:1;"><g transform="translate(147.619275, 127.377907)"><path style="stroke:none" d="M 11.171875 -7.921875 L 11.171875 -41.078125 C 11.171875 -41.710938 10.847656 -42.03125 10.203125 -42.03125 L 3.96875 -42.03125 C 3.320312 -42.03125 3 -41.710938 3 -41.078125 L 3 -0.953125 C 3 -0.316406 3.320312 0 3.96875 0 L 23.0625 0 C 23.695312 0 24.015625 -0.316406 24.015625 -0.953125 L 24.015625 -6.96875 C 24.015625 -7.601562 23.695312 -7.921875 23.0625 -7.921875 Z M 11.171875 -7.921875 "/></g></g><g style="fill:#060705;fill-opacity:1;"><g transform="translate(174.631423, 127.377907)"><path style="stroke:none" d="M 20.296875 -42.03125 L 25.8125 -42.03125 C 26.132812 -42.03125 26.414062 -41.910156 26.65625 -41.671875 C 26.894531 -41.429688 27.015625 -41.148438 27.015625 -40.828125 L 27.015625 -8.640625 C 27.015625 -5.835938 26.285156 -3.695312 24.828125 -2.21875 C 23.367188 -0.738281 21.21875 0 18.375 0 L 11.65625 0 C 8.851562 0 6.707031 -0.738281 5.21875 -2.21875 C 3.738281 -3.695312 3 -5.835938 3 -8.640625 L 3 -40.828125 C 3 -41.148438 3.117188 -41.429688 3.359375 -41.671875 C 3.597656 -41.910156 3.878906 -42.03125 4.203125 -42.03125 L 9.96875 -42.03125 C 10.289062 -42.03125 10.570312 -41.910156 10.8125 -41.671875 C 11.050781 -41.429688 11.171875 -41.148438 11.171875 -40.828125 L 11.171875 -10.328125 C 11.171875 -8.722656 11.972656 -7.921875 13.578125 -7.921875 L 16.6875 -7.921875 C 18.289062 -7.921875 19.09375 -8.722656 19.09375 -10.328125 L 19.09375 -40.828125 C 19.09375 -41.148438 19.210938 -41.429688 19.453125 -41.671875 C 19.691406 -41.910156 19.972656 -42.03125 20.296875 -42.03125 Z M 20.296875 -42.03125 "/></g></g><g style="fill:#060705;fill-opacity:1;"><g transform="translate(204.644923, 127.377907)"><path style="stroke:none" d="M 3 -0.953125 L 3 -41.078125 C 3 -41.710938 3.320312 -42.03125 3.96875 -42.03125 L 18.375 -42.03125 C 21.21875 -42.03125 23.367188 -41.289062 24.828125 -39.8125 C 26.285156 -38.332031 27.015625 -36.171875 27.015625 -33.328125 L 27.015625 -8.640625 C 27.015625 -5.835938 26.285156 -3.695312 24.828125 -2.21875 C 23.367188 -0.738281 21.21875 0 18.375 0 L 3.96875 0 C 3.320312 0 3 -0.316406 3 -0.953125 Z M 11.171875 -7.921875 L 16.6875 -7.921875 C 18.289062 -7.921875 19.09375 -8.722656 19.09375 -10.328125 L 19.09375 -31.640625 C 19.09375 -33.285156 18.289062 -34.109375 16.6875 -34.109375 L 11.171875 -34.109375 Z M 11.171875 -7.921875 "/></g></g><g style="fill:#060705;fill-opacity:1;"><g transform="translate(234.658423, 127.377907)"><path style="stroke:none" d="M 26.96875 -41.078125 L 26.96875 -35.0625 C 26.96875 -34.382812 26.644531 -34.046875 26 -34.046875 L 11.171875 -34.046875 L 11.171875 -24.796875 L 22.453125 -24.796875 C 23.097656 -24.796875 23.421875 -24.457031 23.421875 -23.78125 L 23.421875 -17.828125 C 23.421875 -17.148438 23.097656 -16.8125 22.453125 -16.8125 L 11.171875 -16.8125 L 11.171875 -7.921875 L 26 -7.921875 C 26.644531 -7.921875 26.96875 -7.601562 26.96875 -6.96875 L 26.96875 -0.953125 C 26.96875 -0.316406 26.644531 0 26 0 L 3.90625 0 C 3.300781 0 3 -0.316406 3 -0.953125 L 3 -41.078125 C 3 -41.710938 3.300781 -42.03125 3.90625 -42.03125 L 26 -42.03125 C 26.644531 -42.03125 26.96875 -41.710938 26.96875 -41.078125 Z M 26.96875 -41.078125 "/></g></g><g style="fill:#060705;fill-opacity:1;"><g transform="translate(264.611886, 127.377907)"><path style="stroke:none" d="M 0 8.046875 L 0 2.515625 C 0 1.722656 0.398438 1.328125 1.203125 1.328125 L 37.40625 1.328125 C 38.207031 1.328125 38.609375 1.722656 38.609375 2.515625 L 38.609375 8.046875 C 38.609375 8.847656 38.207031 9.25 37.40625 9.25 L 1.203125 9.25 C 0.398438 9.25 0 8.847656 0 8.046875 Z M 0 8.046875 "/></g></g><g style="fill:#060705;fill-opacity:1;"><g transform="translate(109.273874, 211.092201)"><path style="stroke:none" d="M 36.984375 -42.03125 L 42.640625 -42.03125 C 43.515625 -42.03125 43.894531 -41.609375 43.78125 -40.765625 L 38.015625 -1.078125 C 37.890625 -0.359375 37.445312 0 36.6875 0 L 30.203125 0 C 29.523438 0 29.082031 -0.359375 28.875 -1.078125 L 23.359375 -25.703125 L 17.78125 -1.078125 C 17.613281 -0.359375 17.171875 0 16.453125 0 L 9.84375 0 C 9.082031 0 8.644531 -0.378906 8.53125 -1.140625 L 3 -40.765625 C 2.882812 -41.609375 3.265625 -42.03125 4.140625 -42.03125 L 9.78125 -42.03125 C 10.507812 -42.03125 10.929688 -41.648438 11.046875 -40.890625 L 13.984375 -15.796875 L 14.296875 -15.796875 L 20.171875 -41.015625 C 20.367188 -41.691406 20.8125 -42.03125 21.5 -42.03125 L 25.15625 -42.03125 C 25.84375 -42.03125 26.285156 -41.691406 26.484375 -41.015625 L 32.359375 -15.796875 L 32.671875 -15.796875 L 35.734375 -40.890625 C 35.847656 -41.648438 36.265625 -42.03125 36.984375 -42.03125 Z M 36.984375 -42.03125 "/></g></g><g style="fill:#060705;fill-opacity:1;"><g transform="translate(155.314576, 211.092201)"><path style="stroke:none" d="M 3.96875 0 L 10.203125 0 C 10.847656 0 11.171875 -0.316406 11.171875 -0.953125 L 11.171875 -41.078125 C 11.171875 -41.710938 10.847656 -42.03125 10.203125 -42.03125 L 3.96875 -42.03125 C 3.320312 -42.03125 3 -41.710938 3 -41.078125 L 3 -0.953125 C 3 -0.316406 3.320312 0 3.96875 0 Z M 3.96875 0 "/></g></g><g style="fill:#060705;fill-opacity:1;"><g transform="translate(169.480939, 211.092201)"><path style="stroke:none" d="M 24.859375 -42.03125 L 2.765625 -42.03125 C 2.117188 -42.03125 1.796875 -41.710938 1.796875 -41.078125 L 1.796875 -35.0625 C 1.796875 -34.425781 2.117188 -34.109375 2.765625 -34.109375 L 9.734375 -34.109375 L 9.734375 -0.953125 C 9.734375 -0.316406 10.050781 0 10.6875 0 L 16.9375 0 C 17.570312 0 17.890625 -0.316406 17.890625 -0.953125 L 17.890625 -34.109375 L 24.859375 -34.109375 C 25.492188 -34.109375 25.8125 -34.425781 25.8125 -35.0625 L 25.8125 -41.078125 C 25.8125 -41.710938 25.492188 -42.03125 24.859375 -42.03125 Z M 24.859375 -42.03125 "/></g></g><g style="fill:#060705;fill-opacity:1;"><g transform="translate(197.093362, 211.092201)"><path style="stroke:none" d="M 18.859375 -24.859375 L 18.859375 -41.078125 C 18.859375 -41.710938 19.175781 -42.03125 19.8125 -42.03125 L 26 -42.03125 C 26.675781 -42.03125 27.015625 -41.710938 27.015625 -41.078125 L 27.015625 -0.953125 C 27.015625 -0.316406 26.675781 0 26 0 L 19.8125 0 C 19.175781 0 18.859375 -0.316406 18.859375 -0.953125 L 18.859375 -16.9375 L 11.171875 -16.9375 L 11.171875 -0.953125 C 11.171875 -0.316406 10.847656 0 10.203125 0 L 4.015625 0 C 3.335938 0 3 -0.316406 3 -0.953125 L 3 -41.078125 C 3 -41.710938 3.335938 -42.03125 4.015625 -42.03125 L 10.203125 -42.03125 C 10.847656 -42.03125 11.171875 -41.710938 11.171875 -41.078125 L 11.171875 -24.859375 Z M 18.859375 -24.859375 "/></g></g><g style="fill:#060705;fill-opacity:1;"><g transform="translate(227.106862, 211.092201)"><path style="stroke:none" d="M 0 8.046875 L 0 2.515625 C 0 1.722656 0.398438 1.328125 1.203125 1.328125 L 37.40625 1.328125 C 38.207031 1.328125 38.609375 1.722656 38.609375 2.515625 L 38.609375 8.046875 C 38.609375 8.847656 38.207031 9.25 37.40625 9.25 L 1.203125 9.25 C 0.398438 9.25 0 8.847656 0 8.046875 Z M 0 8.046875 "/></g></g><g style="fill:#060705;fill-opacity:1;"><g transform="translate(83.660154, 294.806495)"><path style="stroke:none" d="M 27.015625 -33.390625 L 27.015625 -21.3125 C 27.015625 -17.832031 25.894531 -15.390625 23.65625 -13.984375 L 26.78125 -1.078125 C 26.976562 -0.359375 26.695312 0 25.9375 0 L 20.0625 0 C 19.5 0 19.15625 -0.28125 19.03125 -0.84375 L 16.15625 -12.671875 L 10.8125 -12.671875 L 10.8125 -0.953125 C 10.8125 -0.316406 10.488281 0 9.84375 0 L 3.96875 0 C 3.320312 0 3 -0.316406 3 -0.953125 L 3 -41.078125 C 3 -41.710938 3.320312 -42.03125 3.96875 -42.03125 L 18.375 -42.03125 C 21.21875 -42.03125 23.367188 -41.300781 24.828125 -39.84375 C 26.285156 -38.382812 27.015625 -36.234375 27.015625 -33.390625 Z M 10.8125 -20.421875 L 16.8125 -20.421875 C 18.414062 -20.421875 19.21875 -21.21875 19.21875 -22.8125 L 19.21875 -31.890625 C 19.21875 -33.484375 18.414062 -34.28125 16.8125 -34.28125 L 10.8125 -34.28125 Z M 10.8125 -20.421875 "/></g></g><g style="fill:#060705;fill-opacity:1;"><g transform="translate(113.673654, 294.806495)"><path style="stroke:none" d="M 26.96875 -41.078125 L 26.96875 -35.0625 C 26.96875 -34.382812 26.644531 -34.046875 26 -34.046875 L 11.171875 -34.046875 L 11.171875 -24.796875 L 22.453125 -24.796875 C 23.097656 -24.796875 23.421875 -24.457031 23.421875 -23.78125 L 23.421875 -17.828125 C 23.421875 -17.148438 23.097656 -16.8125 22.453125 -16.8125 L 11.171875 -16.8125 L 11.171875 -7.921875 L 26 -7.921875 C 26.644531 -7.921875 26.96875 -7.601562 26.96875 -6.96875 L 26.96875 -0.953125 C 26.96875 -0.316406 26.644531 0 26 0 L 3.90625 0 C 3.300781 0 3 -0.316406 3 -0.953125 L 3 -41.078125 C 3 -41.710938 3.300781 -42.03125 3.90625 -42.03125 L 26 -42.03125 C 26.644531 -42.03125 26.96875 -41.710938 26.96875 -41.078125 Z M 26.96875 -41.078125 "/></g></g><g style="fill:#060705;fill-opacity:1;"><g transform="translate(143.627117, 294.806495)"><path style="stroke:none" d="M 11.65625 -42.03125 L 18.375 -42.03125 C 21.21875 -42.03125 23.367188 -41.300781 24.828125 -39.84375 C 26.285156 -38.382812 27.015625 -36.234375 27.015625 -33.390625 L 27.015625 -29.421875 C 27.015625 -28.785156 26.695312 -28.46875 26.0625 -28.46875 L 20 -28.46875 C 19.351562 -28.46875 19.03125 -28.785156 19.03125 -29.421875 L 19.03125 -31.9375 C 19.03125 -33.539062 18.234375 -34.34375 16.640625 -34.34375 L 13.328125 -34.34375 C 11.722656 -34.34375 10.921875 -33.539062 10.921875 -31.9375 L 10.921875 -26.84375 L 25.453125 -22.15625 C 26.492188 -21.789062 27.015625 -21.050781 27.015625 -19.9375 L 27.015625 -8.640625 C 27.015625 -5.835938 26.285156 -3.695312 24.828125 -2.21875 C 23.367188 -0.738281 21.21875 0 18.375 0 L 11.65625 0 C 8.851562 0 6.707031 -0.738281 5.21875 -2.21875 C 3.738281 -3.695312 3 -5.835938 3 -8.640625 L 3 -12.546875 C 3 -13.191406 3.320312 -13.515625 3.96875 -13.515625 L 10.03125 -13.515625 C 10.664062 -13.515625 10.984375 -13.191406 10.984375 -12.546875 L 10.984375 -10.03125 C 10.984375 -8.425781 11.785156 -7.625 13.390625 -7.625 L 16.640625 -7.625 C 18.234375 -7.625 19.03125 -8.425781 19.03125 -10.03125 L 19.03125 -16.09375 L 4.625 -20.78125 C 3.539062 -21.132812 3 -21.875 3 -23 L 3 -33.390625 C 3 -36.234375 3.738281 -38.382812 5.21875 -39.84375 C 6.707031 -41.300781 8.851562 -42.03125 11.65625 -42.03125 Z M 11.65625 -42.03125 "/></g></g><g style="fill:#060705;fill-opacity:1;"><g transform="translate(173.640617, 294.806495)"><path style="stroke:none" d="M 3 -0.953125 L 3 -41.078125 C 3 -41.710938 3.320312 -42.03125 3.96875 -42.03125 L 18.375 -42.03125 C 21.21875 -42.03125 23.367188 -41.300781 24.828125 -39.84375 C 26.285156 -38.382812 27.015625 -36.234375 27.015625 -33.390625 L 27.015625 -21.609375 C 27.015625 -18.804688 26.285156 -16.675781 24.828125 -15.21875 C 23.367188 -13.757812 21.21875 -13.007812 18.375 -12.96875 L 10.8125 -12.90625 L 10.8125 -0.90625 C 10.8125 -0.257812 10.488281 0.0625 9.84375 0.0625 L 3.96875 0 C 3.320312 0 3 -0.316406 3 -0.953125 Z M 10.8125 -20.65625 L 16.8125 -20.71875 C 18.414062 -20.71875 19.21875 -21.519531 19.21875 -23.125 L 19.21875 -31.890625 C 19.21875 -33.484375 18.414062 -34.28125 16.8125 -34.28125 L 10.8125 -34.234375 Z M 10.8125 -20.65625 "/></g></g><g style="fill:#060705;fill-opacity:1;"><g transform="translate(203.654117, 294.806495)"><path style="stroke:none" d="M 26.96875 -41.078125 L 26.96875 -35.0625 C 26.96875 -34.382812 26.644531 -34.046875 26 -34.046875 L 11.171875 -34.046875 L 11.171875 -24.796875 L 22.453125 -24.796875 C 23.097656 -24.796875 23.421875 -24.457031 23.421875 -23.78125 L 23.421875 -17.828125 C 23.421875 -17.148438 23.097656 -16.8125 22.453125 -16.8125 L 11.171875 -16.8125 L 11.171875 -7.921875 L 26 -7.921875 C 26.644531 -7.921875 26.96875 -7.601562 26.96875 -6.96875 L 26.96875 -0.953125 C 26.96875 -0.316406 26.644531 0 26 0 L 3.90625 0 C 3.300781 0 3 -0.316406 3 -0.953125 L 3 -41.078125 C 3 -41.710938 3.300781 -42.03125 3.90625 -42.03125 L 26 -42.03125 C 26.644531 -42.03125 26.96875 -41.710938 26.96875 -41.078125 Z M 26.96875 -41.078125 "/></g></g><g style="fill:#060705;fill-opacity:1;"><g transform="translate(233.60758, 294.806495)"><path style="stroke:none" d="M 27.078125 -33.390625 L 27.078125 -26.90625 C 27.078125 -26.257812 26.757812 -25.9375 26.125 -25.9375 L 20.46875 -25.9375 C 19.832031 -25.9375 19.515625 -26.257812 19.515625 -26.90625 L 19.515625 -31.828125 C 19.515625 -33.429688 18.710938 -34.234375 17.109375 -34.234375 L 13.265625 -34.234375 C 11.671875 -34.234375 10.875 -33.429688 10.875 -31.828125 L 10.875 -10.03125 C 10.875 -8.425781 11.671875 -7.625 13.265625 -7.625 L 17.109375 -7.625 C 18.710938 -7.625 19.515625 -8.425781 19.515625 -10.03125 L 19.515625 -15.125 C 19.515625 -15.769531 19.832031 -16.09375 20.46875 -16.09375 L 26.125 -16.09375 C 26.757812 -16.09375 27.078125 -15.769531 27.078125 -15.125 L 27.078125 -8.640625 C 27.078125 -5.835938 26.335938 -3.695312 24.859375 -2.21875 C 23.378906 -0.738281 21.238281 0 18.4375 0 L 11.703125 0 C 8.898438 0 6.75 -0.738281 5.25 -2.21875 C 3.75 -3.695312 3 -5.835938 3 -8.640625 L 3 -33.390625 C 3 -36.234375 3.75 -38.382812 5.25 -39.84375 C 6.75 -41.300781 8.898438 -42.03125 11.703125 -42.03125 L 18.4375 -42.03125 C 21.238281 -42.03125 23.378906 -41.300781 24.859375 -39.84375 C 26.335938 -38.382812 27.078125 -36.234375 27.078125 -33.390625 Z M 27.078125 -33.390625 "/></g></g><g style="fill:#060705;fill-opacity:1;"><g transform="translate(263.681117, 294.806495)"><path style="stroke:none" d="M 24.859375 -42.03125 L 2.765625 -42.03125 C 2.117188 -42.03125 1.796875 -41.710938 1.796875 -41.078125 L 1.796875 -35.0625 C 1.796875 -34.425781 2.117188 -34.109375 2.765625 -34.109375 L 9.734375 -34.109375 L 9.734375 -0.953125 C 9.734375 -0.316406 10.050781 0 10.6875 0 L 16.9375 0 C 17.570312 0 17.890625 -0.316406 17.890625 -0.953125 L 17.890625 -34.109375 L 24.859375 -34.109375 C 25.492188 -34.109375 25.8125 -34.425781 25.8125 -35.0625 L 25.8125 -41.078125 C 25.8125 -41.710938 25.492188 -42.03125 24.859375 -42.03125 Z M 24.859375 -42.03125 "/></g></g></g></svg>