<svg xmlns="http://www.w3.org/2000/svg" xmlns:xlink="http://www.w3.org/1999/xlink" width="192" zoomAndPan="magnify" viewBox="0 0 144 143.999998" height="192" preserveAspectRatio="xMidYMid meet" version="1.2"><defs><clipPath id="4e68b9ae4b"><path d="M 9 0 L 135 0 L 135 144 L 9 144 Z M 9 0 "/></clipPath><clipPath id="541e91e9f5"><path d="M -21.457031 54.867188 L 103.039062 -17.847656 L 165.503906 89.105469 L 41.007812 161.816406 Z M -21.457031 54.867188 "/></clipPath><clipPath id="a67a6a857d"><path d="M 134.226562 35.65625 L 134.347656 107.300781 L 72.121094 143.644531 L 9.773438 108.34375 L 9.65625 36.695312 L 71.878906 0.351562 Z M 134.226562 35.65625 "/></clipPath><clipPath id="c995ca52d3"><path d="M 21.210938 13.683594 L 122.773438 13.683594 L 122.773438 130.261719 L 21.210938 130.261719 Z M 21.210938 13.683594 "/></clipPath></defs><g id="743b90bb71"><g clip-rule="nonzero" clip-path="url(#4e68b9ae4b)"><g clip-rule="nonzero" clip-path="url(#541e91e9f5)"><g clip-rule="nonzero" clip-path="url(#a67a6a857d)"><path style=" stroke:none;fill-rule:nonzero;fill:#65b30e;fill-opacity:1;" d="M -21.457031 54.867188 L 103.039062 -17.847656 L 165.503906 89.105469 L 41.007812 161.816406 Z M -21.457031 54.867188 "/></g></g></g><path style=" stroke:none;fill-rule:nonzero;fill:#87ff00;fill-opacity:1;" d="M 51.679688 52.109375 L 51.613281 52.046875 L 37.261719 66.398438 L 72.113281 101.183594 L 86.46875 86.898438 L 106.960938 66.398438 L 92.609375 52.046875 L 92.609375 51.980469 L 51.617188 51.980469 Z M 51.679688 52.109375 "/><g clip-rule="nonzero" clip-path="url(#c995ca52d3)"><path style=" stroke:none;fill-rule:nonzero;fill:#87ff00;fill-opacity:1;" d="M 71.980469 13.765625 L 21.222656 42.863281 L 21.226562 101.058594 L 71.984375 130.15625 L 122.742188 101.058594 L 122.742188 42.863281 L 71.984375 13.769531 Z M 113.039062 95.496094 L 71.980469 119.160156 L 30.921875 95.496094 L 30.925781 48.292969 L 71.984375 24.628906 L 113.042969 48.292969 L 113.042969 95.492188 Z M 113.039062 95.496094 "/></g><g style="fill:#b21a22;fill-opacity:1;"><g transform="translate(20.249885, 62.501669)"><path style="stroke:none" d="M 6.058594 -22.832031 L 9.554688 -22.832031 C 11.300781 -22.832031 12.652344 -22.359375 13.601562 -21.410156 C 14.550781 -20.457031 15.027344 -19.109375 15.027344 -17.363281 L 15.027344 -15.300781 C 15.027344 -14.863281 14.890625 -14.507812 14.617188 -14.234375 C 14.34375 -13.960938 13.988281 -13.824219 13.550781 -13.824219 L 10.398438 -13.824219 C 9.960938 -13.824219 9.605469 -13.960938 9.332031 -14.234375 C 9.058594 -14.507812 8.921875 -14.863281 8.921875 -15.300781 L 8.921875 -16.613281 C 8.921875 -16.714844 8.914062 -16.792969 8.894531 -16.851562 C 8.890625 -16.859375 8.886719 -16.867188 8.886719 -16.871094 C 8.886719 -16.867188 8.890625 -16.863281 8.894531 -16.859375 C 8.902344 -16.855469 8.90625 -16.851562 8.910156 -16.847656 C 8.90625 -16.851562 8.898438 -16.855469 8.886719 -16.855469 C 8.832031 -16.875 8.753906 -16.886719 8.648438 -16.886719 L 6.933594 -16.886719 C 6.828125 -16.886719 6.75 -16.875 6.695312 -16.855469 C 6.683594 -16.855469 6.675781 -16.851562 6.671875 -16.847656 C 6.675781 -16.851562 6.679688 -16.855469 6.683594 -16.859375 C 6.691406 -16.863281 6.695312 -16.867188 6.695312 -16.871094 C 6.691406 -16.867188 6.691406 -16.859375 6.6875 -16.851562 C 6.667969 -16.792969 6.660156 -16.714844 6.660156 -16.613281 L 6.660156 -13.957031 L 5.683594 -13.957031 L 5.984375 -14.886719 L 13.539062 -12.449219 C 14.023438 -12.285156 14.390625 -12.019531 14.648438 -11.652344 C 14.902344 -11.292969 15.027344 -10.863281 15.027344 -10.367188 L 15.027344 -4.496094 C 15.027344 -2.773438 14.554688 -1.429688 13.605469 -0.46875 C 12.65625 0.492188 11.304688 0.976562 9.554688 0.976562 L 6.058594 0.976562 C 4.332031 0.976562 2.988281 0.496094 2.027344 -0.464844 C 1.066406 -1.425781 0.585938 -2.769531 0.585938 -4.496094 L 0.585938 -6.527344 C 0.585938 -6.960938 0.722656 -7.316406 0.996094 -7.589844 C 1.269531 -7.863281 1.625 -8 2.0625 -8 L 5.214844 -8 C 5.652344 -8 6.003906 -7.863281 6.28125 -7.589844 C 6.554688 -7.316406 6.691406 -6.960938 6.691406 -6.527344 L 6.691406 -5.214844 C 6.691406 -5.113281 6.699219 -5.03125 6.71875 -4.976562 C 6.722656 -4.964844 6.722656 -4.960938 6.726562 -4.957031 C 6.722656 -4.960938 6.722656 -4.964844 6.714844 -4.96875 C 6.710938 -4.972656 6.707031 -4.976562 6.703125 -4.976562 C 6.707031 -4.976562 6.714844 -4.972656 6.726562 -4.96875 C 6.78125 -4.949219 6.859375 -4.941406 6.964844 -4.941406 L 8.648438 -4.941406 C 8.753906 -4.941406 8.832031 -4.949219 8.886719 -4.96875 C 8.898438 -4.972656 8.90625 -4.976562 8.910156 -4.976562 C 8.90625 -4.976562 8.902344 -4.972656 8.894531 -4.96875 C 8.890625 -4.964844 8.886719 -4.960938 8.886719 -4.957031 C 8.886719 -4.960938 8.890625 -4.964844 8.894531 -4.976562 C 8.914062 -5.03125 8.921875 -5.113281 8.921875 -5.214844 L 8.921875 -8.367188 L 9.898438 -8.367188 L 9.597656 -7.441406 L 2.101562 -9.875 C 1.621094 -10.035156 1.246094 -10.296875 0.984375 -10.660156 C 0.71875 -11.023438 0.585938 -11.457031 0.585938 -11.960938 L 0.585938 -17.363281 C 0.585938 -19.113281 1.066406 -20.460938 2.03125 -21.414062 C 2.992188 -22.359375 4.332031 -22.832031 6.058594 -22.832031 Z M 6.058594 -20.882812 C 4.867188 -20.882812 3.980469 -20.597656 3.402344 -20.023438 C 2.824219 -19.453125 2.539062 -18.566406 2.539062 -17.363281 L 2.539062 -11.960938 C 2.539062 -11.878906 2.542969 -11.828125 2.558594 -11.808594 C 2.578125 -11.785156 2.625 -11.757812 2.707031 -11.730469 L 10.875 -9.078125 L 10.875 -5.214844 C 10.875 -4.527344 10.675781 -3.988281 10.277344 -3.585938 C 9.878906 -3.1875 9.335938 -2.988281 8.648438 -2.988281 L 6.964844 -2.988281 C 6.277344 -2.988281 5.734375 -3.1875 5.335938 -3.585938 C 4.9375 -3.988281 4.738281 -4.527344 4.738281 -5.214844 L 4.738281 -6.527344 C 4.738281 -6.503906 4.746094 -6.472656 4.757812 -6.4375 C 4.785156 -6.351562 4.832031 -6.277344 4.898438 -6.210938 C 4.964844 -6.144531 5.042969 -6.097656 5.125 -6.070312 C 5.164062 -6.054688 5.191406 -6.050781 5.214844 -6.050781 L 2.0625 -6.050781 C 2.082031 -6.050781 2.113281 -6.054688 2.152344 -6.070312 C 2.234375 -6.097656 2.308594 -6.144531 2.375 -6.210938 C 2.441406 -6.277344 2.492188 -6.351562 2.519531 -6.4375 C 2.53125 -6.472656 2.539062 -6.503906 2.539062 -6.527344 L 2.539062 -4.496094 C 2.539062 -3.308594 2.828125 -2.425781 3.40625 -1.84375 C 3.988281 -1.265625 4.871094 -0.976562 6.058594 -0.976562 L 9.554688 -0.976562 C 10.761719 -0.976562 11.648438 -1.265625 12.21875 -1.839844 C 12.789062 -2.421875 13.074219 -3.304688 13.074219 -4.496094 L 13.074219 -10.367188 C 13.074219 -10.453125 13.066406 -10.507812 13.050781 -10.53125 C 13.035156 -10.550781 13 -10.574219 12.941406 -10.59375 L 4.707031 -13.246094 L 4.707031 -16.613281 C 4.707031 -17.296875 4.90625 -17.839844 5.304688 -18.238281 C 5.703125 -18.636719 6.246094 -18.835938 6.933594 -18.835938 L 8.648438 -18.835938 C 9.335938 -18.835938 9.878906 -18.636719 10.277344 -18.238281 C 10.675781 -17.839844 10.875 -17.296875 10.875 -16.613281 L 10.875 -15.300781 C 10.875 -15.324219 10.867188 -15.351562 10.855469 -15.390625 C 10.828125 -15.472656 10.78125 -15.550781 10.714844 -15.617188 C 10.648438 -15.683594 10.570312 -15.730469 10.488281 -15.757812 C 10.449219 -15.769531 10.421875 -15.777344 10.398438 -15.777344 L 13.550781 -15.777344 C 13.53125 -15.777344 13.5 -15.769531 13.460938 -15.757812 C 13.378906 -15.730469 13.304688 -15.683594 13.238281 -15.617188 C 13.167969 -15.550781 13.121094 -15.472656 13.09375 -15.390625 C 13.082031 -15.351562 13.074219 -15.324219 13.074219 -15.300781 L 13.074219 -17.363281 C 13.074219 -18.570312 12.792969 -19.457031 12.222656 -20.027344 C 11.652344 -20.597656 10.761719 -20.882812 9.554688 -20.882812 Z M 6.058594 -20.882812 "/></g></g><g style="fill:#b21a22;fill-opacity:1;"><g transform="translate(35.85783, 62.501669)"><path style="stroke:none" d="M 2.0625 -0.976562 L 5.308594 -0.976562 C 5.285156 -0.976562 5.257812 -0.96875 5.21875 -0.957031 C 5.136719 -0.929688 5.058594 -0.882812 4.992188 -0.816406 C 4.925781 -0.746094 4.878906 -0.671875 4.851562 -0.589844 C 4.839844 -0.550781 4.832031 -0.523438 4.832031 -0.5 L 4.832031 -21.359375 C 4.832031 -21.335938 4.839844 -21.304688 4.851562 -21.269531 C 4.878906 -21.183594 4.925781 -21.109375 4.992188 -21.042969 C 5.058594 -20.976562 5.136719 -20.929688 5.21875 -20.902344 C 5.257812 -20.886719 5.285156 -20.882812 5.308594 -20.882812 L 2.0625 -20.882812 C 2.082031 -20.882812 2.113281 -20.886719 2.152344 -20.902344 C 2.234375 -20.929688 2.308594 -20.976562 2.375 -21.042969 C 2.441406 -21.109375 2.492188 -21.183594 2.519531 -21.269531 C 2.53125 -21.304688 2.539062 -21.335938 2.539062 -21.359375 L 2.539062 -0.5 C 2.539062 -0.523438 2.53125 -0.550781 2.519531 -0.589844 C 2.492188 -0.671875 2.441406 -0.746094 2.375 -0.816406 C 2.308594 -0.882812 2.234375 -0.929688 2.152344 -0.957031 C 2.113281 -0.96875 2.082031 -0.976562 2.0625 -0.976562 Z M 2.0625 0.976562 C 1.625 0.976562 1.269531 0.839844 0.996094 0.566406 C 0.722656 0.292969 0.585938 -0.0625 0.585938 -0.5 L 0.585938 -21.359375 C 0.585938 -21.792969 0.722656 -22.148438 0.996094 -22.421875 C 1.269531 -22.695312 1.625 -22.832031 2.0625 -22.832031 L 5.308594 -22.832031 C 5.746094 -22.832031 6.097656 -22.695312 6.375 -22.421875 C 6.648438 -22.148438 6.785156 -21.792969 6.785156 -21.359375 L 6.785156 -0.5 C 6.785156 -0.0625 6.648438 0.292969 6.375 0.566406 C 6.097656 0.839844 5.746094 0.976562 5.308594 0.976562 Z M 2.0625 0.976562 "/></g></g><g style="fill:#b21a22;fill-opacity:1;"><g transform="translate(43.224776, 62.501669)"><path style="stroke:none" d="M 4.832031 -4.121094 L 4.832031 -21.359375 C 4.832031 -21.335938 4.839844 -21.304688 4.851562 -21.269531 C 4.878906 -21.183594 4.925781 -21.109375 4.992188 -21.042969 C 5.058594 -20.976562 5.136719 -20.929688 5.21875 -20.902344 C 5.257812 -20.886719 5.285156 -20.882812 5.308594 -20.882812 L 2.0625 -20.882812 C 2.082031 -20.882812 2.113281 -20.886719 2.152344 -20.902344 C 2.234375 -20.929688 2.308594 -20.976562 2.375 -21.042969 C 2.441406 -21.109375 2.492188 -21.183594 2.519531 -21.269531 C 2.53125 -21.304688 2.539062 -21.335938 2.539062 -21.359375 L 2.539062 -0.5 C 2.539062 -0.523438 2.53125 -0.550781 2.519531 -0.589844 C 2.492188 -0.671875 2.441406 -0.746094 2.375 -0.816406 C 2.308594 -0.882812 2.234375 -0.929688 2.152344 -0.957031 C 2.113281 -0.96875 2.082031 -0.976562 2.0625 -0.976562 L 11.992188 -0.976562 C 11.96875 -0.976562 11.9375 -0.96875 11.902344 -0.957031 C 11.816406 -0.929688 11.742188 -0.882812 11.675781 -0.816406 C 11.609375 -0.746094 11.5625 -0.671875 11.535156 -0.589844 C 11.519531 -0.550781 11.515625 -0.523438 11.515625 -0.5 L 11.515625 -3.621094 C 11.515625 -3.601562 11.519531 -3.570312 11.535156 -3.53125 C 11.5625 -3.449219 11.609375 -3.375 11.675781 -3.308594 C 11.742188 -3.238281 11.816406 -3.191406 11.902344 -3.164062 C 11.9375 -3.152344 11.96875 -3.144531 11.992188 -3.144531 L 4.832031 -3.144531 Z M 6.785156 -4.121094 L 5.808594 -4.121094 L 5.808594 -5.097656 L 11.992188 -5.097656 C 12.425781 -5.097656 12.78125 -4.960938 13.054688 -4.6875 C 13.328125 -4.414062 13.464844 -4.058594 13.464844 -3.621094 L 13.464844 -0.5 C 13.464844 -0.0625 13.328125 0.292969 13.054688 0.566406 C 12.78125 0.839844 12.425781 0.976562 11.992188 0.976562 L 2.0625 0.976562 C 1.625 0.976562 1.269531 0.839844 0.996094 0.566406 C 0.722656 0.292969 0.585938 -0.0625 0.585938 -0.5 L 0.585938 -21.359375 C 0.585938 -21.792969 0.722656 -22.148438 0.996094 -22.421875 C 1.269531 -22.695312 1.625 -22.832031 2.0625 -22.832031 L 5.308594 -22.832031 C 5.746094 -22.832031 6.097656 -22.695312 6.375 -22.421875 C 6.648438 -22.148438 6.785156 -21.792969 6.785156 -21.359375 Z M 6.785156 -4.121094 "/></g></g><g style="fill:#b21a22;fill-opacity:1;"><g transform="translate(57.271925, 62.501669)"><path style="stroke:none" d="M 14.996094 -21.359375 L 14.996094 -18.234375 C 14.996094 -17.800781 14.867188 -17.445312 14.605469 -17.167969 C 14.332031 -16.875 13.96875 -16.730469 13.519531 -16.730469 L 5.808594 -16.730469 L 5.808594 -17.703125 L 6.785156 -17.703125 L 6.785156 -12.894531 L 5.808594 -12.894531 L 5.808594 -13.871094 L 11.679688 -13.871094 C 12.125 -13.871094 12.488281 -13.726562 12.765625 -13.433594 C 13.023438 -13.15625 13.152344 -12.800781 13.152344 -12.367188 L 13.152344 -9.273438 C 13.152344 -8.839844 13.023438 -8.484375 12.765625 -8.207031 C 12.488281 -7.914062 12.125 -7.765625 11.679688 -7.765625 L 5.808594 -7.765625 L 5.808594 -8.742188 L 6.785156 -8.742188 L 6.785156 -4.121094 L 5.808594 -4.121094 L 5.808594 -5.097656 L 13.519531 -5.097656 C 13.957031 -5.097656 14.3125 -4.960938 14.585938 -4.6875 C 14.859375 -4.414062 14.996094 -4.058594 14.996094 -3.621094 L 14.996094 -0.5 C 14.996094 -0.0625 14.859375 0.292969 14.585938 0.566406 C 14.3125 0.839844 13.957031 0.976562 13.519531 0.976562 L 2.03125 0.976562 C 1.589844 0.976562 1.238281 0.832031 0.964844 0.542969 C 0.710938 0.273438 0.585938 -0.0742188 0.585938 -0.5 L 0.585938 -21.359375 C 0.585938 -21.78125 0.710938 -22.128906 0.964844 -22.402344 C 1.238281 -22.691406 1.589844 -22.832031 2.03125 -22.832031 L 13.519531 -22.832031 C 13.957031 -22.832031 14.3125 -22.695312 14.585938 -22.421875 C 14.859375 -22.148438 14.996094 -21.792969 14.996094 -21.359375 Z M 13.042969 -21.359375 C 13.042969 -21.335938 13.050781 -21.304688 13.0625 -21.269531 C 13.089844 -21.183594 13.136719 -21.109375 13.207031 -21.042969 C 13.273438 -20.976562 13.347656 -20.929688 13.429688 -20.902344 C 13.46875 -20.886719 13.5 -20.882812 13.519531 -20.882812 L 2.03125 -20.882812 C 2.15625 -20.882812 2.277344 -20.941406 2.390625 -21.066406 C 2.453125 -21.132812 2.496094 -21.207031 2.523438 -21.285156 C 2.53125 -21.316406 2.539062 -21.34375 2.539062 -21.359375 L 2.539062 -0.5 C 2.539062 -0.515625 2.53125 -0.539062 2.523438 -0.570312 C 2.496094 -0.652344 2.453125 -0.726562 2.390625 -0.792969 C 2.277344 -0.914062 2.15625 -0.976562 2.03125 -0.976562 L 13.519531 -0.976562 C 13.5 -0.976562 13.46875 -0.96875 13.429688 -0.957031 C 13.347656 -0.929688 13.273438 -0.882812 13.207031 -0.816406 C 13.136719 -0.746094 13.089844 -0.671875 13.0625 -0.589844 C 13.050781 -0.550781 13.042969 -0.523438 13.042969 -0.5 L 13.042969 -3.621094 C 13.042969 -3.601562 13.050781 -3.570312 13.0625 -3.53125 C 13.089844 -3.449219 13.136719 -3.375 13.207031 -3.308594 C 13.273438 -3.238281 13.347656 -3.191406 13.429688 -3.164062 C 13.46875 -3.152344 13.5 -3.144531 13.519531 -3.144531 L 4.832031 -3.144531 L 4.832031 -9.71875 L 11.679688 -9.71875 C 11.648438 -9.71875 11.613281 -9.710938 11.570312 -9.695312 C 11.484375 -9.664062 11.410156 -9.617188 11.34375 -9.542969 C 11.28125 -9.480469 11.238281 -9.410156 11.214844 -9.332031 C 11.207031 -9.304688 11.203125 -9.285156 11.203125 -9.273438 L 11.203125 -12.367188 C 11.203125 -12.355469 11.207031 -12.335938 11.214844 -12.304688 C 11.238281 -12.230469 11.28125 -12.160156 11.34375 -12.09375 C 11.410156 -12.023438 11.484375 -11.972656 11.570312 -11.941406 C 11.613281 -11.929688 11.648438 -11.921875 11.679688 -11.921875 L 4.832031 -11.921875 L 4.832031 -18.679688 L 13.519531 -18.679688 C 13.492188 -18.679688 13.457031 -18.671875 13.414062 -18.65625 C 13.328125 -18.628906 13.25 -18.578125 13.183594 -18.507812 C 13.125 -18.441406 13.082031 -18.371094 13.058594 -18.296875 C 13.050781 -18.265625 13.042969 -18.246094 13.042969 -18.234375 Z M 13.042969 -21.359375 "/></g></g><g style="fill:#b21a22;fill-opacity:1;"><g transform="translate(72.84865, 62.501669)"><path style="stroke:none" d="M 11.460938 -22.832031 L 14.394531 -22.832031 C 14.832031 -22.832031 15.1875 -22.695312 15.460938 -22.421875 C 15.734375 -22.148438 15.871094 -21.792969 15.871094 -21.359375 L 15.871094 -0.5 C 15.871094 -0.0625 15.734375 0.292969 15.460938 0.566406 C 15.1875 0.839844 14.832031 0.976562 14.394531 0.976562 L 11.929688 0.976562 C 11.59375 0.976562 11.292969 0.878906 11.027344 0.691406 C 10.796875 0.523438 10.613281 0.292969 10.480469 0.00390625 L 11.367188 -0.40625 L 10.492188 0.0234375 L 4.621094 -11.902344 L 5.496094 -12.335938 L 6.472656 -12.335938 L 6.472656 -0.5 C 6.472656 -0.0625 6.335938 0.292969 6.0625 0.566406 C 5.785156 0.839844 5.433594 0.976562 4.996094 0.976562 L 2.0625 0.976562 C 1.625 0.976562 1.269531 0.839844 0.996094 0.566406 C 0.722656 0.292969 0.585938 -0.0625 0.585938 -0.5 L 0.585938 -21.359375 C 0.585938 -21.792969 0.722656 -22.148438 0.996094 -22.421875 C 1.269531 -22.695312 1.625 -22.832031 2.0625 -22.832031 L 4.527344 -22.832031 C 4.863281 -22.832031 5.164062 -22.738281 5.425781 -22.546875 C 5.660156 -22.378906 5.84375 -22.152344 5.976562 -21.859375 L 5.089844 -21.453125 L 5.964844 -21.882812 L 11.835938 -9.953125 L 10.960938 -9.523438 L 9.984375 -9.523438 L 9.984375 -21.359375 C 9.984375 -21.792969 10.121094 -22.148438 10.394531 -22.421875 C 10.667969 -22.695312 11.023438 -22.832031 11.460938 -22.832031 Z M 11.460938 -20.882812 C 11.480469 -20.882812 11.511719 -20.886719 11.550781 -20.902344 C 11.632812 -20.929688 11.707031 -20.976562 11.773438 -21.042969 C 11.84375 -21.109375 11.890625 -21.183594 11.917969 -21.269531 C 11.929688 -21.304688 11.9375 -21.335938 11.9375 -21.359375 L 11.9375 -9.523438 L 10.085938 -9.09375 L 4.207031 -21.03125 L 4.203125 -21.042969 C 4.210938 -21.023438 4.238281 -20.996094 4.285156 -20.964844 C 4.359375 -20.910156 4.441406 -20.882812 4.527344 -20.882812 L 2.0625 -20.882812 C 2.082031 -20.882812 2.113281 -20.886719 2.152344 -20.902344 C 2.234375 -20.929688 2.308594 -20.976562 2.375 -21.042969 C 2.441406 -21.109375 2.492188 -21.183594 2.519531 -21.269531 C 2.53125 -21.304688 2.539062 -21.335938 2.539062 -21.359375 L 2.539062 -0.5 C 2.539062 -0.523438 2.53125 -0.550781 2.519531 -0.589844 C 2.492188 -0.671875 2.441406 -0.746094 2.375 -0.816406 C 2.308594 -0.882812 2.234375 -0.929688 2.152344 -0.957031 C 2.113281 -0.96875 2.082031 -0.976562 2.0625 -0.976562 L 4.996094 -0.976562 C 4.972656 -0.976562 4.945312 -0.96875 4.90625 -0.957031 C 4.824219 -0.929688 4.746094 -0.882812 4.679688 -0.816406 C 4.613281 -0.746094 4.566406 -0.671875 4.539062 -0.589844 C 4.527344 -0.550781 4.519531 -0.523438 4.519531 -0.5 L 4.519531 -12.335938 L 6.371094 -12.765625 L 12.246094 -0.824219 L 12.253906 -0.816406 C 12.242188 -0.835938 12.214844 -0.859375 12.171875 -0.894531 C 12.09375 -0.949219 12.015625 -0.976562 11.929688 -0.976562 L 14.394531 -0.976562 C 14.371094 -0.976562 14.34375 -0.96875 14.304688 -0.957031 C 14.222656 -0.929688 14.148438 -0.882812 14.078125 -0.816406 C 14.011719 -0.746094 13.964844 -0.671875 13.9375 -0.589844 C 13.925781 -0.550781 13.917969 -0.523438 13.917969 -0.5 L 13.917969 -21.359375 C 13.917969 -21.335938 13.925781 -21.304688 13.9375 -21.269531 C 13.964844 -21.183594 14.011719 -21.109375 14.078125 -21.042969 C 14.148438 -20.976562 14.222656 -20.929688 14.304688 -20.902344 C 14.34375 -20.886719 14.371094 -20.882812 14.394531 -20.882812 Z M 11.460938 -20.882812 "/></g></g><g style="fill:#b21a22;fill-opacity:1;"><g transform="translate(89.29943, 62.501669)"><path style="stroke:none" d="M 12.925781 -20.882812 L 1.4375 -20.882812 C 1.457031 -20.882812 1.488281 -20.886719 1.527344 -20.902344 C 1.609375 -20.929688 1.683594 -20.976562 1.75 -21.042969 C 1.820312 -21.109375 1.867188 -21.183594 1.894531 -21.269531 C 1.90625 -21.304688 1.914062 -21.335938 1.914062 -21.359375 L 1.914062 -18.234375 C 1.914062 -18.257812 1.90625 -18.289062 1.894531 -18.324219 C 1.867188 -18.410156 1.820312 -18.484375 1.75 -18.550781 C 1.683594 -18.617188 1.609375 -18.664062 1.527344 -18.691406 C 1.488281 -18.707031 1.457031 -18.710938 1.4375 -18.710938 L 6.035156 -18.710938 L 6.035156 -0.5 C 6.035156 -0.523438 6.027344 -0.550781 6.015625 -0.589844 C 5.988281 -0.671875 5.941406 -0.746094 5.875 -0.816406 C 5.804688 -0.882812 5.730469 -0.929688 5.648438 -0.957031 C 5.609375 -0.96875 5.582031 -0.976562 5.558594 -0.976562 L 8.804688 -0.976562 C 8.785156 -0.976562 8.753906 -0.96875 8.714844 -0.957031 C 8.632812 -0.929688 8.558594 -0.882812 8.492188 -0.816406 C 8.421875 -0.746094 8.375 -0.671875 8.347656 -0.589844 C 8.335938 -0.550781 8.328125 -0.523438 8.328125 -0.5 L 8.328125 -18.710938 L 12.925781 -18.710938 C 12.90625 -18.710938 12.875 -18.707031 12.835938 -18.691406 C 12.753906 -18.664062 12.679688 -18.617188 12.613281 -18.550781 C 12.546875 -18.484375 12.496094 -18.410156 12.46875 -18.324219 C 12.457031 -18.289062 12.453125 -18.257812 12.453125 -18.234375 L 12.453125 -21.359375 C 12.453125 -21.335938 12.457031 -21.304688 12.46875 -21.269531 C 12.496094 -21.183594 12.546875 -21.109375 12.613281 -21.042969 C 12.679688 -20.976562 12.753906 -20.929688 12.835938 -20.902344 C 12.875 -20.886719 12.90625 -20.882812 12.925781 -20.882812 Z M 12.925781 -22.832031 C 13.363281 -22.832031 13.71875 -22.695312 13.992188 -22.421875 C 14.265625 -22.148438 14.402344 -21.792969 14.402344 -21.359375 L 14.402344 -18.234375 C 14.402344 -17.800781 14.265625 -17.445312 13.992188 -17.171875 C 13.71875 -16.898438 13.363281 -16.761719 12.925781 -16.761719 L 9.304688 -16.761719 L 9.304688 -17.734375 L 10.28125 -17.734375 L 10.28125 -0.5 C 10.28125 -0.0625 10.144531 0.292969 9.871094 0.566406 C 9.597656 0.839844 9.242188 0.976562 8.804688 0.976562 L 5.558594 0.976562 C 5.121094 0.976562 4.765625 0.839844 4.492188 0.566406 C 4.21875 0.292969 4.082031 -0.0625 4.082031 -0.5 L 4.082031 -17.734375 L 5.058594 -17.734375 L 5.058594 -16.761719 L 1.4375 -16.761719 C 1 -16.761719 0.644531 -16.898438 0.371094 -17.171875 C 0.0976562 -17.445312 -0.0390625 -17.800781 -0.0390625 -18.234375 L -0.0390625 -21.359375 C -0.0390625 -21.792969 0.0976562 -22.148438 0.371094 -22.421875 C 0.644531 -22.695312 1 -22.832031 1.4375 -22.832031 Z M 12.925781 -22.832031 "/></g></g><g style="fill:#b21a22;fill-opacity:1;"><g transform="translate(103.658741, 62.501669)"><path style="stroke:none" d="M -0.976562 4.183594 L -0.976562 1.3125 C -0.976562 0.832031 -0.828125 0.449219 -0.535156 0.152344 C -0.238281 -0.140625 0.148438 -0.289062 0.625 -0.289062 L 19.453125 -0.289062 C 19.929688 -0.289062 20.316406 -0.140625 20.613281 0.152344 C 20.90625 0.449219 21.054688 0.832031 21.054688 1.3125 L 21.054688 4.183594 C 21.054688 4.660156 20.90625 5.046875 20.613281 5.34375 C 20.316406 5.636719 19.929688 5.785156 19.453125 5.785156 L 0.625 5.785156 C 0.148438 5.785156 -0.238281 5.636719 -0.535156 5.34375 C -0.828125 5.046875 -0.976562 4.660156 -0.976562 4.183594 Z M 0.976562 4.183594 C 0.976562 4.1875 0.976562 4.191406 0.976562 4.195312 C 0.976562 4.195312 0.976562 4.195312 0.976562 4.191406 C 0.972656 4.179688 0.96875 4.164062 0.964844 4.148438 C 0.941406 4.082031 0.902344 4.019531 0.847656 3.960938 C 0.789062 3.90625 0.726562 3.867188 0.660156 3.84375 C 0.644531 3.839844 0.628906 3.835938 0.617188 3.832031 C 0.613281 3.832031 0.613281 3.832031 0.613281 3.832031 C 0.617188 3.832031 0.621094 3.832031 0.625 3.832031 L 19.453125 3.832031 C 19.457031 3.832031 19.460938 3.832031 19.464844 3.832031 C 19.464844 3.832031 19.464844 3.832031 19.460938 3.832031 C 19.449219 3.835938 19.433594 3.839844 19.417969 3.84375 C 19.351562 3.867188 19.289062 3.90625 19.230469 3.960938 C 19.175781 4.019531 19.136719 4.082031 19.113281 4.148438 C 19.109375 4.164062 19.105469 4.179688 19.101562 4.191406 C 19.101562 4.195312 19.101562 4.195312 19.101562 4.195312 C 19.101562 4.191406 19.101562 4.1875 19.101562 4.183594 L 19.101562 1.3125 C 19.101562 1.308594 19.101562 1.304688 19.101562 1.300781 C 19.101562 1.300781 19.101562 1.300781 19.101562 1.304688 C 19.105469 1.316406 19.109375 1.332031 19.113281 1.347656 C 19.136719 1.414062 19.175781 1.476562 19.230469 1.53125 C 19.289062 1.589844 19.351562 1.628906 19.417969 1.652344 C 19.433594 1.65625 19.449219 1.660156 19.460938 1.664062 C 19.464844 1.664062 19.464844 1.664062 19.464844 1.664062 C 19.460938 1.664062 19.457031 1.664062 19.453125 1.664062 L 0.625 1.664062 C 0.621094 1.664062 0.617188 1.664062 0.613281 1.664062 C 0.613281 1.664062 0.613281 1.664062 0.617188 1.664062 C 0.628906 1.660156 0.644531 1.65625 0.660156 1.652344 C 0.726562 1.628906 0.789062 1.589844 0.847656 1.53125 C 0.902344 1.476562 0.941406 1.414062 0.964844 1.347656 C 0.96875 1.332031 0.972656 1.316406 0.976562 1.304688 C 0.976562 1.300781 0.976562 1.300781 0.976562 1.300781 C 0.976562 1.304688 0.976562 1.308594 0.976562 1.3125 Z M 0.976562 4.183594 "/></g></g><g style="fill:#b21a22;fill-opacity:1;"><g transform="translate(22.105027, 106.035684)"><path style="stroke:none" d="M 6.058594 -22.832031 L 9.554688 -22.832031 C 11.300781 -22.832031 12.652344 -22.359375 13.601562 -21.410156 C 14.550781 -20.457031 15.027344 -19.109375 15.027344 -17.363281 L 15.027344 -15.300781 C 15.027344 -14.863281 14.890625 -14.507812 14.617188 -14.234375 C 14.34375 -13.960938 13.988281 -13.824219 13.550781 -13.824219 L 10.398438 -13.824219 C 9.960938 -13.824219 9.605469 -13.960938 9.332031 -14.234375 C 9.058594 -14.507812 8.921875 -14.863281 8.921875 -15.300781 L 8.921875 -16.613281 C 8.921875 -16.714844 8.914062 -16.792969 8.894531 -16.851562 C 8.890625 -16.859375 8.886719 -16.867188 8.886719 -16.871094 C 8.886719 -16.867188 8.890625 -16.863281 8.894531 -16.859375 C 8.902344 -16.855469 8.90625 -16.851562 8.910156 -16.847656 C 8.90625 -16.851562 8.898438 -16.855469 8.886719 -16.855469 C 8.832031 -16.875 8.753906 -16.886719 8.648438 -16.886719 L 6.933594 -16.886719 C 6.828125 -16.886719 6.75 -16.875 6.695312 -16.855469 C 6.683594 -16.855469 6.675781 -16.851562 6.671875 -16.847656 C 6.675781 -16.851562 6.679688 -16.855469 6.683594 -16.859375 C 6.691406 -16.863281 6.695312 -16.867188 6.695312 -16.871094 C 6.691406 -16.867188 6.691406 -16.859375 6.6875 -16.851562 C 6.667969 -16.792969 6.660156 -16.714844 6.660156 -16.613281 L 6.660156 -13.957031 L 5.683594 -13.957031 L 5.984375 -14.886719 L 13.539062 -12.449219 C 14.023438 -12.285156 14.390625 -12.019531 14.648438 -11.652344 C 14.902344 -11.292969 15.027344 -10.863281 15.027344 -10.367188 L 15.027344 -4.496094 C 15.027344 -2.773438 14.554688 -1.429688 13.605469 -0.46875 C 12.65625 0.492188 11.304688 0.976562 9.554688 0.976562 L 6.058594 0.976562 C 4.332031 0.976562 2.988281 0.496094 2.027344 -0.464844 C 1.066406 -1.425781 0.585938 -2.769531 0.585938 -4.496094 L 0.585938 -6.527344 C 0.585938 -6.960938 0.722656 -7.316406 0.996094 -7.589844 C 1.269531 -7.863281 1.625 -8 2.0625 -8 L 5.214844 -8 C 5.652344 -8 6.003906 -7.863281 6.28125 -7.589844 C 6.554688 -7.316406 6.691406 -6.960938 6.691406 -6.527344 L 6.691406 -5.214844 C 6.691406 -5.113281 6.699219 -5.03125 6.71875 -4.976562 C 6.722656 -4.964844 6.722656 -4.960938 6.726562 -4.957031 C 6.722656 -4.960938 6.722656 -4.964844 6.714844 -4.96875 C 6.710938 -4.972656 6.707031 -4.976562 6.703125 -4.976562 C 6.707031 -4.976562 6.714844 -4.972656 6.726562 -4.96875 C 6.78125 -4.949219 6.859375 -4.941406 6.964844 -4.941406 L 8.648438 -4.941406 C 8.753906 -4.941406 8.832031 -4.949219 8.886719 -4.96875 C 8.898438 -4.972656 8.90625 -4.976562 8.910156 -4.976562 C 8.90625 -4.976562 8.902344 -4.972656 8.894531 -4.96875 C 8.890625 -4.964844 8.886719 -4.960938 8.886719 -4.957031 C 8.886719 -4.960938 8.890625 -4.964844 8.894531 -4.976562 C 8.914062 -5.03125 8.921875 -5.113281 8.921875 -5.214844 L 8.921875 -8.367188 L 9.898438 -8.367188 L 9.597656 -7.441406 L 2.101562 -9.875 C 1.621094 -10.035156 1.246094 -10.296875 0.984375 -10.660156 C 0.71875 -11.023438 0.585938 -11.457031 0.585938 -11.960938 L 0.585938 -17.363281 C 0.585938 -19.113281 1.066406 -20.460938 2.03125 -21.414062 C 2.992188 -22.359375 4.332031 -22.832031 6.058594 -22.832031 Z M 6.058594 -20.882812 C 4.867188 -20.882812 3.980469 -20.597656 3.402344 -20.023438 C 2.824219 -19.453125 2.539062 -18.566406 2.539062 -17.363281 L 2.539062 -11.960938 C 2.539062 -11.878906 2.542969 -11.828125 2.558594 -11.808594 C 2.578125 -11.785156 2.625 -11.757812 2.707031 -11.730469 L 10.875 -9.078125 L 10.875 -5.214844 C 10.875 -4.527344 10.675781 -3.988281 10.277344 -3.585938 C 9.878906 -3.1875 9.335938 -2.988281 8.648438 -2.988281 L 6.964844 -2.988281 C 6.277344 -2.988281 5.734375 -3.1875 5.335938 -3.585938 C 4.9375 -3.988281 4.738281 -4.527344 4.738281 -5.214844 L 4.738281 -6.527344 C 4.738281 -6.503906 4.746094 -6.472656 4.757812 -6.4375 C 4.785156 -6.351562 4.832031 -6.277344 4.898438 -6.210938 C 4.964844 -6.144531 5.042969 -6.097656 5.125 -6.070312 C 5.164062 -6.054688 5.191406 -6.050781 5.214844 -6.050781 L 2.0625 -6.050781 C 2.082031 -6.050781 2.113281 -6.054688 2.152344 -6.070312 C 2.234375 -6.097656 2.308594 -6.144531 2.375 -6.210938 C 2.441406 -6.277344 2.492188 -6.351562 2.519531 -6.4375 C 2.53125 -6.472656 2.539062 -6.503906 2.539062 -6.527344 L 2.539062 -4.496094 C 2.539062 -3.308594 2.828125 -2.425781 3.40625 -1.84375 C 3.988281 -1.265625 4.871094 -0.976562 6.058594 -0.976562 L 9.554688 -0.976562 C 10.761719 -0.976562 11.648438 -1.265625 12.21875 -1.839844 C 12.789062 -2.421875 13.074219 -3.304688 13.074219 -4.496094 L 13.074219 -10.367188 C 13.074219 -10.453125 13.066406 -10.507812 13.050781 -10.53125 C 13.035156 -10.550781 13 -10.574219 12.941406 -10.59375 L 4.707031 -13.246094 L 4.707031 -16.613281 C 4.707031 -17.296875 4.90625 -17.839844 5.304688 -18.238281 C 5.703125 -18.636719 6.246094 -18.835938 6.933594 -18.835938 L 8.648438 -18.835938 C 9.335938 -18.835938 9.878906 -18.636719 10.277344 -18.238281 C 10.675781 -17.839844 10.875 -17.296875 10.875 -16.613281 L 10.875 -15.300781 C 10.875 -15.324219 10.867188 -15.351562 10.855469 -15.390625 C 10.828125 -15.472656 10.78125 -15.550781 10.714844 -15.617188 C 10.648438 -15.683594 10.570312 -15.730469 10.488281 -15.757812 C 10.449219 -15.769531 10.421875 -15.777344 10.398438 -15.777344 L 13.550781 -15.777344 C 13.53125 -15.777344 13.5 -15.769531 13.460938 -15.757812 C 13.378906 -15.730469 13.304688 -15.683594 13.238281 -15.617188 C 13.167969 -15.550781 13.121094 -15.472656 13.09375 -15.390625 C 13.082031 -15.351562 13.074219 -15.324219 13.074219 -15.300781 L 13.074219 -17.363281 C 13.074219 -18.570312 12.792969 -19.457031 12.222656 -20.027344 C 11.652344 -20.597656 10.761719 -20.882812 9.554688 -20.882812 Z M 6.058594 -20.882812 "/></g></g><g style="fill:#b21a22;fill-opacity:1;"><g transform="translate(37.712973, 106.035684)"><path style="stroke:none" d="M 12.925781 -20.882812 L 1.4375 -20.882812 C 1.457031 -20.882812 1.488281 -20.886719 1.527344 -20.902344 C 1.609375 -20.929688 1.683594 -20.976562 1.75 -21.042969 C 1.820312 -21.109375 1.867188 -21.183594 1.894531 -21.269531 C 1.90625 -21.304688 1.914062 -21.335938 1.914062 -21.359375 L 1.914062 -18.234375 C 1.914062 -18.257812 1.90625 -18.289062 1.894531 -18.324219 C 1.867188 -18.410156 1.820312 -18.484375 1.75 -18.550781 C 1.683594 -18.617188 1.609375 -18.664062 1.527344 -18.691406 C 1.488281 -18.707031 1.457031 -18.710938 1.4375 -18.710938 L 6.035156 -18.710938 L 6.035156 -0.5 C 6.035156 -0.523438 6.027344 -0.550781 6.015625 -0.589844 C 5.988281 -0.671875 5.941406 -0.746094 5.875 -0.816406 C 5.804688 -0.882812 5.730469 -0.929688 5.648438 -0.957031 C 5.609375 -0.96875 5.582031 -0.976562 5.558594 -0.976562 L 8.804688 -0.976562 C 8.785156 -0.976562 8.753906 -0.96875 8.714844 -0.957031 C 8.632812 -0.929688 8.558594 -0.882812 8.492188 -0.816406 C 8.421875 -0.746094 8.375 -0.671875 8.347656 -0.589844 C 8.335938 -0.550781 8.328125 -0.523438 8.328125 -0.5 L 8.328125 -18.710938 L 12.925781 -18.710938 C 12.90625 -18.710938 12.875 -18.707031 12.835938 -18.691406 C 12.753906 -18.664062 12.679688 -18.617188 12.613281 -18.550781 C 12.546875 -18.484375 12.496094 -18.410156 12.46875 -18.324219 C 12.457031 -18.289062 12.453125 -18.257812 12.453125 -18.234375 L 12.453125 -21.359375 C 12.453125 -21.335938 12.457031 -21.304688 12.46875 -21.269531 C 12.496094 -21.183594 12.546875 -21.109375 12.613281 -21.042969 C 12.679688 -20.976562 12.753906 -20.929688 12.835938 -20.902344 C 12.875 -20.886719 12.90625 -20.882812 12.925781 -20.882812 Z M 12.925781 -22.832031 C 13.363281 -22.832031 13.71875 -22.695312 13.992188 -22.421875 C 14.265625 -22.148438 14.402344 -21.792969 14.402344 -21.359375 L 14.402344 -18.234375 C 14.402344 -17.800781 14.265625 -17.445312 13.992188 -17.171875 C 13.71875 -16.898438 13.363281 -16.761719 12.925781 -16.761719 L 9.304688 -16.761719 L 9.304688 -17.734375 L 10.28125 -17.734375 L 10.28125 -0.5 C 10.28125 -0.0625 10.144531 0.292969 9.871094 0.566406 C 9.597656 0.839844 9.242188 0.976562 8.804688 0.976562 L 5.558594 0.976562 C 5.121094 0.976562 4.765625 0.839844 4.492188 0.566406 C 4.21875 0.292969 4.082031 -0.0625 4.082031 -0.5 L 4.082031 -17.734375 L 5.058594 -17.734375 L 5.058594 -16.761719 L 1.4375 -16.761719 C 1 -16.761719 0.644531 -16.898438 0.371094 -17.171875 C 0.0976562 -17.445312 -0.0390625 -17.800781 -0.0390625 -18.234375 L -0.0390625 -21.359375 C -0.0390625 -21.792969 0.0976562 -22.148438 0.371094 -22.421875 C 0.644531 -22.695312 1 -22.832031 1.4375 -22.832031 Z M 12.925781 -22.832031 "/></g></g><g style="fill:#b21a22;fill-opacity:1;"><g transform="translate(52.072284, 106.035684)"><path style="stroke:none" d="M 15.027344 -17.363281 L 15.027344 -11.085938 C 15.027344 -8.914062 14.292969 -7.367188 12.820312 -6.449219 L 12.304688 -7.277344 L 13.25 -7.503906 L 14.875 -0.792969 L 13.925781 -0.5625 L 14.867188 -0.824219 C 15.007812 -0.320312 14.941406 0.105469 14.664062 0.457031 C 14.398438 0.804688 14.003906 0.976562 13.488281 0.976562 L 10.429688 0.976562 C 10.050781 0.976562 9.726562 0.867188 9.457031 0.644531 C 9.195312 0.425781 9.023438 0.132812 8.945312 -0.234375 L 9.898438 -0.4375 L 8.949219 -0.207031 L 7.453125 -6.359375 L 8.398438 -6.589844 L 8.398438 -5.613281 L 5.621094 -5.613281 L 5.621094 -6.589844 L 6.597656 -6.589844 L 6.597656 -0.5 C 6.597656 -0.0625 6.460938 0.292969 6.1875 0.566406 C 5.910156 0.839844 5.558594 0.976562 5.121094 0.976562 L 2.0625 0.976562 C 1.625 0.976562 1.269531 0.839844 0.996094 0.566406 C 0.722656 0.292969 0.585938 -0.0625 0.585938 -0.5 L 0.585938 -21.359375 C 0.585938 -21.792969 0.722656 -22.148438 0.996094 -22.421875 C 1.269531 -22.695312 1.625 -22.832031 2.0625 -22.832031 L 9.554688 -22.832031 C 11.300781 -22.832031 12.652344 -22.359375 13.601562 -21.410156 C 14.550781 -20.457031 15.027344 -19.109375 15.027344 -17.363281 Z M 13.074219 -17.363281 C 13.074219 -18.570312 12.792969 -19.457031 12.222656 -20.027344 C 11.652344 -20.597656 10.761719 -20.882812 9.554688 -20.882812 L 2.0625 -20.882812 C 2.082031 -20.882812 2.113281 -20.886719 2.152344 -20.902344 C 2.234375 -20.929688 2.308594 -20.976562 2.375 -21.042969 C 2.441406 -21.109375 2.492188 -21.183594 2.519531 -21.269531 C 2.53125 -21.304688 2.539062 -21.335938 2.539062 -21.359375 L 2.539062 -0.5 C 2.539062 -0.523438 2.53125 -0.550781 2.519531 -0.589844 C 2.492188 -0.671875 2.441406 -0.746094 2.375 -0.816406 C 2.308594 -0.882812 2.234375 -0.929688 2.152344 -0.957031 C 2.113281 -0.96875 2.082031 -0.976562 2.0625 -0.976562 L 5.121094 -0.976562 C 5.097656 -0.976562 5.070312 -0.96875 5.03125 -0.957031 C 4.949219 -0.929688 4.871094 -0.882812 4.804688 -0.816406 C 4.738281 -0.746094 4.691406 -0.671875 4.664062 -0.589844 C 4.652344 -0.550781 4.644531 -0.523438 4.644531 -0.5 L 4.644531 -7.566406 L 9.167969 -7.566406 L 10.851562 -0.65625 L 10.851562 -0.640625 C 10.835938 -0.71875 10.785156 -0.792969 10.699219 -0.863281 C 10.605469 -0.9375 10.515625 -0.976562 10.429688 -0.976562 L 13.492188 -0.976562 C 13.46875 -0.972656 13.445312 -0.964844 13.421875 -0.957031 C 13.304688 -0.917969 13.207031 -0.84375 13.125 -0.738281 C 13.039062 -0.632812 12.992188 -0.515625 12.984375 -0.386719 C 12.980469 -0.34375 12.980469 -0.316406 12.988281 -0.300781 L 12.980469 -0.316406 L 11.1875 -7.730469 L 11.785156 -8.101562 C 12.644531 -8.640625 13.074219 -9.632812 13.074219 -11.085938 Z M 5.621094 -11.59375 L 8.742188 -11.59375 C 8.847656 -11.59375 8.925781 -11.601562 8.980469 -11.621094 C 8.992188 -11.625 9 -11.625 9.003906 -11.628906 C 9 -11.628906 8.996094 -11.625 8.988281 -11.617188 C 8.984375 -11.613281 8.980469 -11.609375 8.980469 -11.605469 C 8.980469 -11.609375 8.984375 -11.617188 8.988281 -11.628906 C 9.007812 -11.683594 9.015625 -11.761719 9.015625 -11.867188 L 9.015625 -16.582031 C 9.015625 -16.683594 9.007812 -16.761719 8.988281 -16.820312 C 8.984375 -16.828125 8.980469 -16.835938 8.980469 -16.839844 C 8.980469 -16.835938 8.984375 -16.832031 8.988281 -16.828125 C 8.996094 -16.824219 9 -16.820312 9.003906 -16.816406 C 9 -16.820312 8.992188 -16.824219 8.980469 -16.824219 C 8.925781 -16.84375 8.847656 -16.855469 8.742188 -16.855469 L 5.621094 -16.855469 L 5.621094 -17.828125 L 6.597656 -17.828125 L 6.597656 -10.617188 L 5.621094 -10.617188 Z M 4.644531 -9.640625 L 4.644531 -18.804688 L 8.742188 -18.804688 C 9.429688 -18.804688 9.972656 -18.605469 10.371094 -18.207031 C 10.769531 -17.808594 10.96875 -17.265625 10.96875 -16.582031 L 10.96875 -11.867188 C 10.96875 -11.179688 10.769531 -10.636719 10.371094 -10.238281 C 9.972656 -9.839844 9.429688 -9.640625 8.742188 -9.640625 Z M 4.644531 -9.640625 "/></g></g><g style="fill:#b21a22;fill-opacity:1;"><g transform="translate(67.68023, 106.035684)"><path style="stroke:none" d="M 14.996094 -21.359375 L 14.996094 -18.234375 C 14.996094 -17.800781 14.867188 -17.445312 14.605469 -17.167969 C 14.332031 -16.875 13.96875 -16.730469 13.519531 -16.730469 L 5.808594 -16.730469 L 5.808594 -17.703125 L 6.785156 -17.703125 L 6.785156 -12.894531 L 5.808594 -12.894531 L 5.808594 -13.871094 L 11.679688 -13.871094 C 12.125 -13.871094 12.488281 -13.726562 12.765625 -13.433594 C 13.023438 -13.15625 13.152344 -12.800781 13.152344 -12.367188 L 13.152344 -9.273438 C 13.152344 -8.839844 13.023438 -8.484375 12.765625 -8.207031 C 12.488281 -7.914062 12.125 -7.765625 11.679688 -7.765625 L 5.808594 -7.765625 L 5.808594 -8.742188 L 6.785156 -8.742188 L 6.785156 -4.121094 L 5.808594 -4.121094 L 5.808594 -5.097656 L 13.519531 -5.097656 C 13.957031 -5.097656 14.3125 -4.960938 14.585938 -4.6875 C 14.859375 -4.414062 14.996094 -4.058594 14.996094 -3.621094 L 14.996094 -0.5 C 14.996094 -0.0625 14.859375 0.292969 14.585938 0.566406 C 14.3125 0.839844 13.957031 0.976562 13.519531 0.976562 L 2.03125 0.976562 C 1.589844 0.976562 1.238281 0.832031 0.964844 0.542969 C 0.710938 0.273438 0.585938 -0.0742188 0.585938 -0.5 L 0.585938 -21.359375 C 0.585938 -21.78125 0.710938 -22.128906 0.964844 -22.402344 C 1.238281 -22.691406 1.589844 -22.832031 2.03125 -22.832031 L 13.519531 -22.832031 C 13.957031 -22.832031 14.3125 -22.695312 14.585938 -22.421875 C 14.859375 -22.148438 14.996094 -21.792969 14.996094 -21.359375 Z M 13.042969 -21.359375 C 13.042969 -21.335938 13.050781 -21.304688 13.0625 -21.269531 C 13.089844 -21.183594 13.136719 -21.109375 13.207031 -21.042969 C 13.273438 -20.976562 13.347656 -20.929688 13.429688 -20.902344 C 13.46875 -20.886719 13.5 -20.882812 13.519531 -20.882812 L 2.03125 -20.882812 C 2.15625 -20.882812 2.277344 -20.941406 2.390625 -21.066406 C 2.453125 -21.132812 2.496094 -21.207031 2.523438 -21.285156 C 2.53125 -21.316406 2.539062 -21.34375 2.539062 -21.359375 L 2.539062 -0.5 C 2.539062 -0.515625 2.53125 -0.539062 2.523438 -0.570312 C 2.496094 -0.652344 2.453125 -0.726562 2.390625 -0.792969 C 2.277344 -0.914062 2.15625 -0.976562 2.03125 -0.976562 L 13.519531 -0.976562 C 13.5 -0.976562 13.46875 -0.96875 13.429688 -0.957031 C 13.347656 -0.929688 13.273438 -0.882812 13.207031 -0.816406 C 13.136719 -0.746094 13.089844 -0.671875 13.0625 -0.589844 C 13.050781 -0.550781 13.042969 -0.523438 13.042969 -0.5 L 13.042969 -3.621094 C 13.042969 -3.601562 13.050781 -3.570312 13.0625 -3.53125 C 13.089844 -3.449219 13.136719 -3.375 13.207031 -3.308594 C 13.273438 -3.238281 13.347656 -3.191406 13.429688 -3.164062 C 13.46875 -3.152344 13.5 -3.144531 13.519531 -3.144531 L 4.832031 -3.144531 L 4.832031 -9.71875 L 11.679688 -9.71875 C 11.648438 -9.71875 11.613281 -9.710938 11.570312 -9.695312 C 11.484375 -9.664062 11.410156 -9.617188 11.34375 -9.542969 C 11.28125 -9.480469 11.238281 -9.410156 11.214844 -9.332031 C 11.207031 -9.304688 11.203125 -9.285156 11.203125 -9.273438 L 11.203125 -12.367188 C 11.203125 -12.355469 11.207031 -12.335938 11.214844 -12.304688 C 11.238281 -12.230469 11.28125 -12.160156 11.34375 -12.09375 C 11.410156 -12.023438 11.484375 -11.972656 11.570312 -11.941406 C 11.613281 -11.929688 11.648438 -11.921875 11.679688 -11.921875 L 4.832031 -11.921875 L 4.832031 -18.679688 L 13.519531 -18.679688 C 13.492188 -18.679688 13.457031 -18.671875 13.414062 -18.65625 C 13.328125 -18.628906 13.25 -18.578125 13.183594 -18.507812 C 13.125 -18.441406 13.082031 -18.371094 13.058594 -18.296875 C 13.050781 -18.265625 13.042969 -18.246094 13.042969 -18.234375 Z M 13.042969 -21.359375 "/></g></g><g style="fill:#b21a22;fill-opacity:1;"><g transform="translate(83.256954, 106.035684)"><path style="stroke:none" d="M 16.300781 0.976562 L 13.269531 0.976562 C 12.890625 0.976562 12.566406 0.859375 12.300781 0.625 C 12.054688 0.410156 11.894531 0.125 11.816406 -0.234375 L 12.769531 -0.4375 L 11.824219 -0.195312 L 10.828125 -4.132812 L 11.773438 -4.371094 L 11.773438 -3.394531 L 5.902344 -3.394531 L 5.902344 -4.371094 L 6.847656 -4.136719 L 5.882812 -0.203125 L 4.933594 -0.4375 L 5.886719 -0.234375 C 5.8125 0.125 5.648438 0.410156 5.40625 0.625 C 5.136719 0.859375 4.8125 0.976562 4.433594 0.976562 L 1.375 0.976562 C 0.863281 0.976562 0.480469 0.804688 0.214844 0.460938 C -0.0507812 0.109375 -0.113281 -0.3125 0.03125 -0.804688 L 0.96875 -0.53125 L 0.0195312 -0.765625 L 5.203125 -21.65625 L 6.152344 -21.421875 L 5.195312 -21.625 C 5.277344 -21.992188 5.445312 -22.285156 5.710938 -22.503906 C 5.980469 -22.722656 6.304688 -22.832031 6.683594 -22.832031 L 11.023438 -22.832031 C 11.402344 -22.832031 11.726562 -22.722656 11.996094 -22.503906 C 12.257812 -22.285156 12.429688 -21.992188 12.507812 -21.625 L 11.554688 -21.421875 L 12.5 -21.65625 L 17.683594 -0.765625 L 16.738281 -0.53125 L 17.671875 -0.804688 C 17.824219 -0.296875 17.75 0.132812 17.460938 0.488281 C 17.191406 0.8125 16.804688 0.976562 16.300781 0.976562 Z M 16.300781 -0.976562 C 16.304688 -0.976562 16.308594 -0.976562 16.3125 -0.976562 C 16.3125 -0.976562 16.308594 -0.976562 16.308594 -0.976562 C 16.289062 -0.972656 16.269531 -0.96875 16.246094 -0.960938 C 16.132812 -0.925781 16.035156 -0.855469 15.953125 -0.753906 C 15.859375 -0.640625 15.804688 -0.511719 15.796875 -0.375 C 15.792969 -0.320312 15.792969 -0.28125 15.800781 -0.253906 L 15.792969 -0.277344 L 10.601562 -21.199219 L 10.597656 -21.214844 C 10.617188 -21.140625 10.667969 -21.066406 10.753906 -20.996094 C 10.84375 -20.917969 10.933594 -20.882812 11.023438 -20.882812 L 6.683594 -20.882812 C 6.769531 -20.882812 6.859375 -20.917969 6.953125 -20.996094 C 7.039062 -21.066406 7.089844 -21.140625 7.105469 -21.214844 L 7.101562 -21.199219 L 1.910156 -0.277344 L 1.902344 -0.253906 C 1.910156 -0.277344 1.910156 -0.308594 1.910156 -0.355469 C 1.902344 -0.488281 1.855469 -0.613281 1.765625 -0.726562 C 1.683594 -0.835938 1.578125 -0.914062 1.457031 -0.957031 C 1.417969 -0.96875 1.390625 -0.976562 1.375 -0.976562 L 4.433594 -0.976562 C 4.324219 -0.976562 4.21875 -0.933594 4.121094 -0.84375 C 4.039062 -0.773438 3.992188 -0.707031 3.980469 -0.640625 L 3.984375 -0.65625 L 5.136719 -5.347656 L 12.53125 -5.347656 L 13.722656 -0.660156 L 13.726562 -0.640625 C 13.710938 -0.707031 13.664062 -0.773438 13.585938 -0.84375 C 13.484375 -0.933594 13.378906 -0.976562 13.269531 -0.976562 Z M 9.851562 -7.773438 L 7.886719 -16.265625 L 8.835938 -16.488281 L 9.789062 -16.265625 L 7.820312 -7.773438 L 6.871094 -7.992188 L 6.871094 -8.96875 L 10.804688 -8.96875 L 10.804688 -7.992188 Z M 12.03125 -7.019531 L 5.640625 -7.019531 L 7.886719 -16.707031 L 9.789062 -16.707031 L 11.753906 -8.214844 Z M 12.03125 -7.019531 "/></g></g><g style="fill:#b21a22;fill-opacity:1;"><g transform="translate(100.956368, 106.035684)"><path style="stroke:none" d="M 14.613281 -22.832031 L 18.734375 -22.832031 C 19.214844 -22.832031 19.597656 -22.6875 19.894531 -22.390625 C 20.1875 -22.097656 20.335938 -21.710938 20.335938 -21.234375 L 20.335938 -0.625 C 20.335938 -0.148438 20.1875 0.238281 19.894531 0.535156 C 19.597656 0.828125 19.214844 0.976562 18.734375 0.976562 L 15.832031 0.976562 C 15.355469 0.976562 14.96875 0.828125 14.671875 0.535156 C 14.378906 0.238281 14.230469 -0.148438 14.230469 -0.625 L 14.230469 -12.894531 L 15.207031 -12.894531 L 15.207031 -11.921875 L 14.988281 -11.921875 L 14.988281 -12.894531 L 15.9375 -12.671875 L 12.996094 -0.28125 L 12.988281 -0.253906 C 12.878906 0.125 12.679688 0.421875 12.398438 0.640625 C 12.109375 0.863281 11.765625 0.976562 11.367188 0.976562 L 9.523438 0.976562 C 9.125 0.976562 8.78125 0.863281 8.488281 0.640625 C 8.207031 0.421875 8.011719 0.125 7.902344 -0.253906 L 7.894531 -0.28125 L 4.953125 -12.671875 L 5.902344 -12.894531 L 5.902344 -11.921875 L 5.683594 -11.921875 L 5.683594 -12.894531 L 6.660156 -12.894531 L 6.660156 -0.625 C 6.660156 -0.148438 6.511719 0.238281 6.21875 0.535156 C 5.921875 0.828125 5.535156 0.976562 5.058594 0.976562 L 2.1875 0.976562 C 1.707031 0.976562 1.320312 0.828125 1.027344 0.535156 C 0.734375 0.238281 0.585938 -0.148438 0.585938 -0.625 L 0.585938 -21.234375 C 0.585938 -21.710938 0.734375 -22.097656 1.027344 -22.390625 C 1.320312 -22.6875 1.707031 -22.832031 2.1875 -22.832031 L 6.308594 -22.832031 C 6.707031 -22.832031 7.050781 -22.722656 7.339844 -22.496094 C 7.621094 -22.28125 7.820312 -21.980469 7.929688 -21.601562 L 7.9375 -21.582031 L 11.40625 -7.636719 L 10.460938 -7.402344 L 9.511719 -7.636719 L 12.984375 -21.582031 L 12.992188 -21.601562 C 13.101562 -21.980469 13.296875 -22.28125 13.578125 -22.496094 C 13.871094 -22.722656 14.214844 -22.832031 14.613281 -22.832031 Z M 14.613281 -20.882812 C 14.660156 -20.882812 14.710938 -20.90625 14.773438 -20.953125 C 14.808594 -20.980469 14.835938 -21.007812 14.855469 -21.039062 C 14.859375 -21.046875 14.863281 -21.054688 14.867188 -21.0625 C 14.867188 -21.058594 14.863281 -21.058594 14.863281 -21.050781 L 13.925781 -21.328125 L 14.875 -21.089844 L 11.40625 -7.164062 L 9.511719 -7.164062 L 6.046875 -21.089844 L 6.996094 -21.328125 L 6.058594 -21.050781 C 6.058594 -21.058594 6.054688 -21.058594 6.054688 -21.0625 C 6.058594 -21.054688 6.0625 -21.046875 6.066406 -21.039062 C 6.085938 -21.007812 6.113281 -20.980469 6.148438 -20.953125 C 6.210938 -20.90625 6.261719 -20.882812 6.308594 -20.882812 L 2.1875 -20.882812 C 2.179688 -20.882812 2.179688 -20.882812 2.175781 -20.882812 C 2.191406 -20.882812 2.203125 -20.886719 2.222656 -20.894531 C 2.289062 -20.914062 2.351562 -20.957031 2.40625 -21.011719 C 2.464844 -21.070312 2.503906 -21.128906 2.527344 -21.199219 C 2.53125 -21.214844 2.535156 -21.230469 2.539062 -21.242188 C 2.539062 -21.242188 2.539062 -21.246094 2.539062 -21.246094 C 2.539062 -21.242188 2.539062 -21.238281 2.539062 -21.234375 L 2.539062 -0.625 C 2.539062 -0.621094 2.539062 -0.617188 2.539062 -0.613281 C 2.539062 -0.613281 2.539062 -0.613281 2.539062 -0.617188 C 2.535156 -0.628906 2.53125 -0.644531 2.527344 -0.660156 C 2.503906 -0.726562 2.464844 -0.789062 2.40625 -0.847656 C 2.351562 -0.902344 2.289062 -0.941406 2.222656 -0.964844 C 2.203125 -0.96875 2.191406 -0.972656 2.175781 -0.976562 C 2.179688 -0.976562 2.179688 -0.976562 2.1875 -0.976562 L 5.058594 -0.976562 C 5.0625 -0.976562 5.066406 -0.976562 5.070312 -0.976562 C 5.070312 -0.976562 5.070312 -0.976562 5.066406 -0.976562 C 5.054688 -0.972656 5.039062 -0.96875 5.023438 -0.964844 C 4.957031 -0.941406 4.894531 -0.902344 4.835938 -0.847656 C 4.78125 -0.789062 4.742188 -0.726562 4.71875 -0.660156 C 4.710938 -0.644531 4.710938 -0.628906 4.707031 -0.617188 C 4.707031 -0.613281 4.707031 -0.613281 4.707031 -0.613281 C 4.707031 -0.617188 4.707031 -0.621094 4.707031 -0.625 L 4.707031 -13.871094 L 6.671875 -13.871094 L 9.785156 -0.757812 L 8.835938 -0.53125 L 9.773438 -0.804688 C 9.773438 -0.800781 9.777344 -0.796875 9.777344 -0.796875 C 9.773438 -0.804688 9.769531 -0.808594 9.765625 -0.816406 C 9.746094 -0.847656 9.71875 -0.878906 9.683594 -0.90625 C 9.621094 -0.953125 9.570312 -0.976562 9.523438 -0.976562 L 11.367188 -0.976562 C 11.320312 -0.976562 11.269531 -0.953125 11.207031 -0.90625 C 11.171875 -0.878906 11.144531 -0.847656 11.125 -0.816406 C 11.121094 -0.808594 11.117188 -0.804688 11.113281 -0.796875 C 11.113281 -0.796875 11.117188 -0.800781 11.117188 -0.804688 L 12.054688 -0.53125 L 11.105469 -0.757812 L 14.21875 -13.871094 L 16.183594 -13.871094 L 16.183594 -0.625 C 16.183594 -0.621094 16.183594 -0.617188 16.183594 -0.613281 C 16.183594 -0.613281 16.183594 -0.613281 16.183594 -0.617188 C 16.179688 -0.628906 16.175781 -0.644531 16.171875 -0.660156 C 16.148438 -0.726562 16.109375 -0.789062 16.054688 -0.847656 C 15.996094 -0.902344 15.933594 -0.941406 15.867188 -0.964844 C 15.851562 -0.96875 15.835938 -0.972656 15.824219 -0.976562 C 15.820312 -0.976562 15.820312 -0.976562 15.820312 -0.976562 C 15.824219 -0.976562 15.828125 -0.976562 15.832031 -0.976562 L 18.734375 -0.976562 C 18.738281 -0.976562 18.742188 -0.976562 18.746094 -0.976562 C 18.746094 -0.976562 18.746094 -0.976562 18.742188 -0.976562 C 18.730469 -0.972656 18.714844 -0.96875 18.699219 -0.964844 C 18.632812 -0.941406 18.570312 -0.902344 18.515625 -0.847656 C 18.457031 -0.789062 18.417969 -0.726562 18.394531 -0.660156 C 18.390625 -0.644531 18.386719 -0.628906 18.382812 -0.617188 C 18.382812 -0.613281 18.382812 -0.613281 18.382812 -0.613281 C 18.382812 -0.617188 18.382812 -0.621094 18.382812 -0.625 L 18.382812 -21.234375 C 18.382812 -21.238281 18.382812 -21.242188 18.382812 -21.246094 C 18.382812 -21.246094 18.382812 -21.242188 18.382812 -21.242188 C 18.386719 -21.230469 18.390625 -21.214844 18.394531 -21.199219 C 18.417969 -21.128906 18.457031 -21.070312 18.515625 -21.011719 C 18.570312 -20.957031 18.632812 -20.914062 18.699219 -20.894531 C 18.714844 -20.886719 18.730469 -20.882812 18.742188 -20.882812 C 18.746094 -20.882812 18.746094 -20.882812 18.746094 -20.882812 C 18.742188 -20.882812 18.738281 -20.882812 18.734375 -20.882812 Z M 14.613281 -20.882812 "/></g></g><g style="fill:#060705;fill-opacity:1;"><g transform="translate(20.249885, 62.501669)"><path style="stroke:none" d="M 6.0625 -21.859375 L 9.546875 -21.859375 C 11.023438 -21.859375 12.144531 -21.476562 12.90625 -20.71875 C 13.664062 -19.957031 14.046875 -18.835938 14.046875 -17.359375 L 14.046875 -15.296875 C 14.046875 -14.960938 13.878906 -14.796875 13.546875 -14.796875 L 10.390625 -14.796875 C 10.054688 -14.796875 9.890625 -14.960938 9.890625 -15.296875 L 9.890625 -16.609375 C 9.890625 -17.441406 9.472656 -17.859375 8.640625 -17.859375 L 6.9375 -17.859375 C 6.101562 -17.859375 5.6875 -17.441406 5.6875 -16.609375 L 5.6875 -13.953125 L 13.234375 -11.515625 C 13.773438 -11.328125 14.046875 -10.941406 14.046875 -10.359375 L 14.046875 -4.5 C 14.046875 -3.039062 13.664062 -1.925781 12.90625 -1.15625 C 12.144531 -0.382812 11.023438 0 9.546875 0 L 6.0625 0 C 4.601562 0 3.488281 -0.382812 2.71875 -1.15625 C 1.945312 -1.925781 1.5625 -3.039062 1.5625 -4.5 L 1.5625 -6.53125 C 1.5625 -6.863281 1.726562 -7.03125 2.0625 -7.03125 L 5.21875 -7.03125 C 5.550781 -7.03125 5.71875 -6.863281 5.71875 -6.53125 L 5.71875 -5.21875 C 5.71875 -4.382812 6.132812 -3.96875 6.96875 -3.96875 L 8.640625 -3.96875 C 9.472656 -3.96875 9.890625 -4.382812 9.890625 -5.21875 L 9.890625 -8.359375 L 2.40625 -10.796875 C 1.84375 -10.984375 1.5625 -11.367188 1.5625 -11.953125 L 1.5625 -17.359375 C 1.5625 -18.835938 1.945312 -19.957031 2.71875 -20.71875 C 3.488281 -21.476562 4.601562 -21.859375 6.0625 -21.859375 Z M 6.0625 -21.859375 "/></g></g><g style="fill:#060705;fill-opacity:1;"><g transform="translate(35.85783, 62.501669)"><path style="stroke:none" d="M 2.0625 0 L 5.3125 0 C 5.644531 0 5.8125 -0.164062 5.8125 -0.5 L 5.8125 -21.359375 C 5.8125 -21.691406 5.644531 -21.859375 5.3125 -21.859375 L 2.0625 -21.859375 C 1.726562 -21.859375 1.5625 -21.691406 1.5625 -21.359375 L 1.5625 -0.5 C 1.5625 -0.164062 1.726562 0 2.0625 0 Z M 2.0625 0 "/></g></g><g style="fill:#060705;fill-opacity:1;"><g transform="translate(43.224776, 62.501669)"><path style="stroke:none" d="M 5.8125 -4.125 L 5.8125 -21.359375 C 5.8125 -21.691406 5.644531 -21.859375 5.3125 -21.859375 L 2.0625 -21.859375 C 1.726562 -21.859375 1.5625 -21.691406 1.5625 -21.359375 L 1.5625 -0.5 C 1.5625 -0.164062 1.726562 0 2.0625 0 L 11.984375 0 C 12.316406 0 12.484375 -0.164062 12.484375 -0.5 L 12.484375 -3.625 C 12.484375 -3.957031 12.316406 -4.125 11.984375 -4.125 Z M 5.8125 -4.125 "/></g></g><g style="fill:#060705;fill-opacity:1;"><g transform="translate(57.271925, 62.501669)"><path style="stroke:none" d="M 14.015625 -21.359375 L 14.015625 -18.234375 C 14.015625 -17.878906 13.847656 -17.703125 13.515625 -17.703125 L 5.8125 -17.703125 L 5.8125 -12.890625 L 11.671875 -12.890625 C 12.003906 -12.890625 12.171875 -12.710938 12.171875 -12.359375 L 12.171875 -9.265625 C 12.171875 -8.910156 12.003906 -8.734375 11.671875 -8.734375 L 5.8125 -8.734375 L 5.8125 -4.125 L 13.515625 -4.125 C 13.847656 -4.125 14.015625 -3.957031 14.015625 -3.625 L 14.015625 -0.5 C 14.015625 -0.164062 13.847656 0 13.515625 0 L 2.03125 0 C 1.71875 0 1.5625 -0.164062 1.5625 -0.5 L 1.5625 -21.359375 C 1.5625 -21.691406 1.71875 -21.859375 2.03125 -21.859375 L 13.515625 -21.859375 C 13.847656 -21.859375 14.015625 -21.691406 14.015625 -21.359375 Z M 14.015625 -21.359375 "/></g></g><g style="fill:#060705;fill-opacity:1;"><g transform="translate(72.84865, 62.501669)"><path style="stroke:none" d="M 11.453125 -21.859375 L 14.390625 -21.859375 C 14.722656 -21.859375 14.890625 -21.691406 14.890625 -21.359375 L 14.890625 -0.5 C 14.890625 -0.164062 14.722656 0 14.390625 0 L 11.921875 0 C 11.671875 0 11.484375 -0.132812 11.359375 -0.40625 L 5.5 -12.328125 L 5.5 -0.5 C 5.5 -0.164062 5.332031 0 5 0 L 2.0625 0 C 1.726562 0 1.5625 -0.164062 1.5625 -0.5 L 1.5625 -21.359375 C 1.5625 -21.691406 1.726562 -21.859375 2.0625 -21.859375 L 4.53125 -21.859375 C 4.78125 -21.859375 4.96875 -21.722656 5.09375 -21.453125 L 10.953125 -9.515625 L 10.953125 -21.359375 C 10.953125 -21.691406 11.117188 -21.859375 11.453125 -21.859375 Z M 11.453125 -21.859375 "/></g></g><g style="fill:#060705;fill-opacity:1;"><g transform="translate(89.29943, 62.501669)"><path style="stroke:none" d="M 12.921875 -21.859375 L 1.4375 -21.859375 C 1.101562 -21.859375 0.9375 -21.691406 0.9375 -21.359375 L 0.9375 -18.234375 C 0.9375 -17.898438 1.101562 -17.734375 1.4375 -17.734375 L 5.0625 -17.734375 L 5.0625 -0.5 C 5.0625 -0.164062 5.226562 0 5.5625 0 L 8.796875 0 C 9.128906 0 9.296875 -0.164062 9.296875 -0.5 L 9.296875 -17.734375 L 12.921875 -17.734375 C 13.253906 -17.734375 13.421875 -17.898438 13.421875 -18.234375 L 13.421875 -21.359375 C 13.421875 -21.691406 13.253906 -21.859375 12.921875 -21.859375 Z M 12.921875 -21.859375 "/></g></g><g style="fill:#060705;fill-opacity:1;"><g transform="translate(103.658741, 62.501669)"><path style="stroke:none" d="M 0 4.1875 L 0 1.3125 C 0 0.894531 0.207031 0.6875 0.625 0.6875 L 19.453125 0.6875 C 19.867188 0.6875 20.078125 0.894531 20.078125 1.3125 L 20.078125 4.1875 C 20.078125 4.601562 19.867188 4.8125 19.453125 4.8125 L 0.625 4.8125 C 0.207031 4.8125 0 4.601562 0 4.1875 Z M 0 4.1875 "/></g></g><g style="fill:#060705;fill-opacity:1;"><g transform="translate(22.105027, 106.035684)"><path style="stroke:none" d="M 6.0625 -21.859375 L 9.546875 -21.859375 C 11.023438 -21.859375 12.144531 -21.476562 12.90625 -20.71875 C 13.664062 -19.957031 14.046875 -18.835938 14.046875 -17.359375 L 14.046875 -15.296875 C 14.046875 -14.960938 13.878906 -14.796875 13.546875 -14.796875 L 10.390625 -14.796875 C 10.054688 -14.796875 9.890625 -14.960938 9.890625 -15.296875 L 9.890625 -16.609375 C 9.890625 -17.441406 9.472656 -17.859375 8.640625 -17.859375 L 6.9375 -17.859375 C 6.101562 -17.859375 5.6875 -17.441406 5.6875 -16.609375 L 5.6875 -13.953125 L 13.234375 -11.515625 C 13.773438 -11.328125 14.046875 -10.941406 14.046875 -10.359375 L 14.046875 -4.5 C 14.046875 -3.039062 13.664062 -1.925781 12.90625 -1.15625 C 12.144531 -0.382812 11.023438 0 9.546875 0 L 6.0625 0 C 4.601562 0 3.488281 -0.382812 2.71875 -1.15625 C 1.945312 -1.925781 1.5625 -3.039062 1.5625 -4.5 L 1.5625 -6.53125 C 1.5625 -6.863281 1.726562 -7.03125 2.0625 -7.03125 L 5.21875 -7.03125 C 5.550781 -7.03125 5.71875 -6.863281 5.71875 -6.53125 L 5.71875 -5.21875 C 5.71875 -4.382812 6.132812 -3.96875 6.96875 -3.96875 L 8.640625 -3.96875 C 9.472656 -3.96875 9.890625 -4.382812 9.890625 -5.21875 L 9.890625 -8.359375 L 2.40625 -10.796875 C 1.84375 -10.984375 1.5625 -11.367188 1.5625 -11.953125 L 1.5625 -17.359375 C 1.5625 -18.835938 1.945312 -19.957031 2.71875 -20.71875 C 3.488281 -21.476562 4.601562 -21.859375 6.0625 -21.859375 Z M 6.0625 -21.859375 "/></g></g><g style="fill:#060705;fill-opacity:1;"><g transform="translate(37.712973, 106.035684)"><path style="stroke:none" d="M 12.921875 -21.859375 L 1.4375 -21.859375 C 1.101562 -21.859375 0.9375 -21.691406 0.9375 -21.359375 L 0.9375 -18.234375 C 0.9375 -17.898438 1.101562 -17.734375 1.4375 -17.734375 L 5.0625 -17.734375 L 5.0625 -0.5 C 5.0625 -0.164062 5.226562 0 5.5625 0 L 8.796875 0 C 9.128906 0 9.296875 -0.164062 9.296875 -0.5 L 9.296875 -17.734375 L 12.921875 -17.734375 C 13.253906 -17.734375 13.421875 -17.898438 13.421875 -18.234375 L 13.421875 -21.359375 C 13.421875 -21.691406 13.253906 -21.859375 12.921875 -21.859375 Z M 12.921875 -21.859375 "/></g></g><g style="fill:#060705;fill-opacity:1;"><g transform="translate(52.072284, 106.035684)"><path style="stroke:none" d="M 14.046875 -17.359375 L 14.046875 -11.078125 C 14.046875 -9.265625 13.460938 -8 12.296875 -7.28125 L 13.921875 -0.5625 C 14.023438 -0.1875 13.878906 0 13.484375 0 L 10.421875 0 C 10.128906 0 9.953125 -0.144531 9.890625 -0.4375 L 8.390625 -6.59375 L 5.625 -6.59375 L 5.625 -0.5 C 5.625 -0.164062 5.457031 0 5.125 0 L 2.0625 0 C 1.726562 0 1.5625 -0.164062 1.5625 -0.5 L 1.5625 -21.359375 C 1.5625 -21.691406 1.726562 -21.859375 2.0625 -21.859375 L 9.546875 -21.859375 C 11.023438 -21.859375 12.144531 -21.476562 12.90625 -20.71875 C 13.664062 -19.957031 14.046875 -18.835938 14.046875 -17.359375 Z M 5.625 -10.609375 L 8.734375 -10.609375 C 9.566406 -10.609375 9.984375 -11.023438 9.984375 -11.859375 L 9.984375 -16.578125 C 9.984375 -17.410156 9.566406 -17.828125 8.734375 -17.828125 L 5.625 -17.828125 Z M 5.625 -10.609375 "/></g></g><g style="fill:#060705;fill-opacity:1;"><g transform="translate(67.68023, 106.035684)"><path style="stroke:none" d="M 14.015625 -21.359375 L 14.015625 -18.234375 C 14.015625 -17.878906 13.847656 -17.703125 13.515625 -17.703125 L 5.8125 -17.703125 L 5.8125 -12.890625 L 11.671875 -12.890625 C 12.003906 -12.890625 12.171875 -12.710938 12.171875 -12.359375 L 12.171875 -9.265625 C 12.171875 -8.910156 12.003906 -8.734375 11.671875 -8.734375 L 5.8125 -8.734375 L 5.8125 -4.125 L 13.515625 -4.125 C 13.847656 -4.125 14.015625 -3.957031 14.015625 -3.625 L 14.015625 -0.5 C 14.015625 -0.164062 13.847656 0 13.515625 0 L 2.03125 0 C 1.71875 0 1.5625 -0.164062 1.5625 -0.5 L 1.5625 -21.359375 C 1.5625 -21.691406 1.71875 -21.859375 2.03125 -21.859375 L 13.515625 -21.859375 C 13.847656 -21.859375 14.015625 -21.691406 14.015625 -21.359375 Z M 14.015625 -21.359375 "/></g></g><g style="fill:#060705;fill-opacity:1;"><g transform="translate(83.256954, 106.035684)"><path style="stroke:none" d="M 16.296875 0 L 13.265625 0 C 12.992188 0 12.828125 -0.144531 12.765625 -0.4375 L 11.765625 -4.375 L 5.90625 -4.375 L 4.9375 -0.4375 C 4.875 -0.144531 4.707031 0 4.4375 0 L 1.375 0 C 1 0 0.863281 -0.175781 0.96875 -0.53125 L 6.15625 -21.421875 C 6.21875 -21.710938 6.394531 -21.859375 6.6875 -21.859375 L 11.015625 -21.859375 C 11.304688 -21.859375 11.484375 -21.710938 11.546875 -21.421875 L 16.734375 -0.53125 C 16.835938 -0.175781 16.691406 0 16.296875 0 Z M 10.796875 -7.984375 L 8.828125 -16.484375 L 6.875 -7.984375 Z M 10.796875 -7.984375 "/></g></g><g style="fill:#060705;fill-opacity:1;"><g transform="translate(100.956368, 106.035684)"><path style="stroke:none" d="M 14.609375 -21.859375 L 18.734375 -21.859375 C 19.148438 -21.859375 19.359375 -21.648438 19.359375 -21.234375 L 19.359375 -0.625 C 19.359375 -0.207031 19.148438 0 18.734375 0 L 15.828125 0 C 15.410156 0 15.203125 -0.207031 15.203125 -0.625 L 15.203125 -12.890625 L 14.984375 -12.890625 L 12.046875 -0.53125 C 11.941406 -0.175781 11.710938 0 11.359375 0 L 9.515625 0 C 9.160156 0 8.929688 -0.175781 8.828125 -0.53125 L 5.90625 -12.890625 L 5.6875 -12.890625 L 5.6875 -0.625 C 5.6875 -0.207031 5.476562 0 5.0625 0 L 2.1875 0 C 1.769531 0 1.5625 -0.207031 1.5625 -0.625 L 1.5625 -21.234375 C 1.5625 -21.648438 1.769531 -21.859375 2.1875 -21.859375 L 6.3125 -21.859375 C 6.664062 -21.859375 6.894531 -21.679688 7 -21.328125 L 10.453125 -7.40625 L 13.921875 -21.328125 C 14.023438 -21.679688 14.253906 -21.859375 14.609375 -21.859375 Z M 14.609375 -21.859375 "/></g></g></g></svg>