<svg xmlns="http://www.w3.org/2000/svg" xmlns:xlink="http://www.w3.org/1999/xlink" width="128" zoomAndPan="magnify" viewBox="0 0 96 95.999999" height="128" preserveAspectRatio="xMidYMid meet" version="1.2"><defs><clipPath id="f48bb997ea"><path d="M 6 0 L 90 0 L 90 96 L 6 96 Z M 6 0 "/></clipPath><clipPath id="3a1a26030a"><path d="M -14.304688 36.578125 L 68.691406 -11.898438 L 110.335938 59.402344 L 27.339844 107.878906 Z M -14.304688 36.578125 "/></clipPath><clipPath id="bbd97e955b"><path d="M 89.484375 23.769531 L 89.5625 71.535156 L 48.082031 95.765625 L 6.515625 72.226562 L 6.4375 24.464844 L 47.921875 0.234375 Z M 89.484375 23.769531 "/></clipPath><clipPath id="157199e73a"><path d="M 14.140625 9.121094 L 81.851562 9.121094 L 81.851562 86.839844 L 14.140625 86.839844 Z M 14.140625 9.121094 "/></clipPath></defs><g id="a38164444a"><g clip-rule="nonzero" clip-path="url(#f48bb997ea)"><g clip-rule="nonzero" clip-path="url(#3a1a26030a)"><g clip-rule="nonzero" clip-path="url(#bbd97e955b)"><path style=" stroke:none;fill-rule:nonzero;fill:#65b30e;fill-opacity:1;" d="M -14.304688 36.578125 L 68.691406 -11.898438 L 110.335938 59.402344 L 27.339844 107.878906 Z M -14.304688 36.578125 "/></g></g></g><path style=" stroke:none;fill-rule:nonzero;fill:#87ff00;fill-opacity:1;" d="M 34.453125 34.738281 L 34.410156 34.695312 L 24.839844 44.265625 L 48.074219 67.457031 L 57.644531 57.933594 L 71.308594 44.265625 L 61.738281 34.695312 L 61.738281 34.652344 L 34.410156 34.652344 Z M 34.453125 34.738281 "/><g clip-rule="nonzero" clip-path="url(#157199e73a)"><path style=" stroke:none;fill-rule:nonzero;fill:#87ff00;fill-opacity:1;" d="M 47.988281 9.179688 L 14.148438 28.574219 L 14.148438 67.371094 L 47.988281 86.769531 L 81.828125 67.371094 L 81.828125 28.574219 Z M 75.359375 63.664062 L 47.988281 79.4375 L 20.613281 63.664062 L 20.617188 32.195312 L 47.988281 16.417969 L 75.363281 32.195312 L 75.363281 63.664062 Z M 75.359375 63.664062 "/></g><g style="fill:#b21a22;fill-opacity:1;"><g transform="translate(13.499922, 41.66778)"><path style="stroke:none" d="M 4.039062 -15.222656 L 6.371094 -15.222656 C 7.535156 -15.222656 8.433594 -14.90625 9.066406 -14.273438 C 9.703125 -13.636719 10.019531 -12.738281 10.019531 -11.574219 L 10.019531 -10.199219 C 10.019531 -9.910156 9.925781 -9.671875 9.746094 -9.492188 C 9.5625 -9.308594 9.324219 -9.214844 9.035156 -9.214844 L 6.933594 -9.214844 C 6.640625 -9.214844 6.40625 -9.308594 6.222656 -9.492188 C 6.039062 -9.671875 5.949219 -9.910156 5.949219 -10.199219 L 5.949219 -11.074219 C 5.949219 -11.144531 5.941406 -11.195312 5.929688 -11.234375 C 5.925781 -11.238281 5.925781 -11.246094 5.925781 -11.246094 C 5.925781 -11.246094 5.929688 -11.242188 5.929688 -11.238281 C 5.933594 -11.234375 5.9375 -11.234375 5.9375 -11.234375 C 5.9375 -11.234375 5.933594 -11.234375 5.925781 -11.238281 C 5.886719 -11.25 5.835938 -11.257812 5.765625 -11.257812 L 4.621094 -11.257812 C 4.554688 -11.257812 4.5 -11.25 4.460938 -11.238281 C 4.457031 -11.234375 4.453125 -11.234375 4.449219 -11.234375 C 4.449219 -11.234375 4.453125 -11.234375 4.457031 -11.238281 C 4.460938 -11.242188 4.460938 -11.246094 4.464844 -11.246094 C 4.460938 -11.246094 4.460938 -11.238281 4.457031 -11.234375 C 4.445312 -11.195312 4.4375 -11.144531 4.4375 -11.074219 L 4.4375 -9.304688 L 3.789062 -9.304688 L 3.988281 -9.925781 L 9.027344 -8.300781 C 9.347656 -8.191406 9.59375 -8.011719 9.765625 -7.769531 C 9.933594 -7.527344 10.019531 -7.242188 10.019531 -6.910156 L 10.019531 -2.996094 C 10.019531 -1.847656 9.703125 -0.953125 9.070312 -0.3125 C 8.4375 0.328125 7.535156 0.652344 6.371094 0.652344 L 4.039062 0.652344 C 2.886719 0.652344 1.992188 0.332031 1.351562 -0.308594 C 0.710938 -0.949219 0.390625 -1.847656 0.390625 -2.996094 L 0.390625 -4.351562 C 0.390625 -4.640625 0.480469 -4.878906 0.664062 -5.0625 C 0.847656 -5.242188 1.082031 -5.335938 1.375 -5.335938 L 3.476562 -5.335938 C 3.765625 -5.335938 4.003906 -5.242188 4.1875 -5.0625 C 4.367188 -4.878906 4.460938 -4.640625 4.460938 -4.351562 L 4.460938 -3.476562 C 4.460938 -3.40625 4.464844 -3.355469 4.480469 -3.316406 C 4.480469 -3.3125 4.484375 -3.304688 4.484375 -3.304688 C 4.484375 -3.304688 4.480469 -3.308594 4.476562 -3.3125 C 4.476562 -3.316406 4.472656 -3.316406 4.46875 -3.320312 C 4.472656 -3.316406 4.476562 -3.316406 4.484375 -3.3125 C 4.519531 -3.300781 4.574219 -3.292969 4.640625 -3.292969 L 5.765625 -3.292969 C 5.835938 -3.292969 5.886719 -3.300781 5.925781 -3.3125 C 5.933594 -3.316406 5.9375 -3.316406 5.9375 -3.320312 C 5.9375 -3.316406 5.933594 -3.316406 5.929688 -3.3125 C 5.929688 -3.308594 5.925781 -3.304688 5.925781 -3.304688 C 5.925781 -3.304688 5.925781 -3.3125 5.929688 -3.316406 C 5.941406 -3.355469 5.949219 -3.40625 5.949219 -3.476562 L 5.949219 -5.578125 L 6.597656 -5.578125 L 6.398438 -4.960938 L 1.402344 -6.585938 C 1.078125 -6.691406 0.832031 -6.863281 0.65625 -7.105469 C 0.480469 -7.347656 0.390625 -7.636719 0.390625 -7.972656 L 0.390625 -11.574219 C 0.390625 -12.742188 0.710938 -13.640625 1.355469 -14.273438 C 1.996094 -14.90625 2.890625 -15.222656 4.039062 -15.222656 Z M 4.039062 -13.921875 C 3.246094 -13.921875 2.65625 -13.730469 2.269531 -13.347656 C 1.882812 -12.96875 1.691406 -12.378906 1.691406 -11.574219 L 1.691406 -7.972656 C 1.691406 -7.921875 1.695312 -7.886719 1.707031 -7.871094 C 1.71875 -7.855469 1.75 -7.839844 1.804688 -7.820312 L 7.25 -6.050781 L 7.25 -3.476562 C 7.25 -3.019531 7.117188 -2.65625 6.851562 -2.390625 C 6.585938 -2.125 6.222656 -1.992188 5.765625 -1.992188 L 4.640625 -1.992188 C 4.183594 -1.992188 3.824219 -2.125 3.558594 -2.390625 C 3.292969 -2.65625 3.160156 -3.019531 3.160156 -3.476562 L 3.160156 -4.351562 C 3.160156 -4.335938 3.164062 -4.316406 3.171875 -4.289062 C 3.191406 -4.234375 3.222656 -4.183594 3.265625 -4.140625 C 3.3125 -4.097656 3.359375 -4.0625 3.417969 -4.046875 C 3.441406 -4.039062 3.460938 -4.035156 3.476562 -4.035156 L 1.375 -4.035156 C 1.390625 -4.035156 1.410156 -4.039062 1.433594 -4.046875 C 1.488281 -4.0625 1.539062 -4.097656 1.585938 -4.140625 C 1.628906 -4.183594 1.660156 -4.234375 1.679688 -4.289062 C 1.6875 -4.316406 1.691406 -4.335938 1.691406 -4.351562 L 1.691406 -2.996094 C 1.691406 -2.207031 1.882812 -1.617188 2.269531 -1.230469 C 2.65625 -0.84375 3.246094 -0.652344 4.039062 -0.652344 L 6.371094 -0.652344 C 7.175781 -0.652344 7.765625 -0.84375 8.144531 -1.226562 C 8.527344 -1.613281 8.71875 -2.203125 8.71875 -2.996094 L 8.71875 -6.910156 C 8.71875 -6.96875 8.710938 -7.003906 8.699219 -7.019531 C 8.691406 -7.035156 8.667969 -7.046875 8.625 -7.0625 L 3.136719 -8.832031 L 3.136719 -11.074219 C 3.136719 -11.53125 3.269531 -11.894531 3.535156 -12.160156 C 3.800781 -12.425781 4.164062 -12.558594 4.621094 -12.558594 L 5.765625 -12.558594 C 6.222656 -12.558594 6.585938 -12.425781 6.851562 -12.160156 C 7.117188 -11.894531 7.25 -11.53125 7.25 -11.074219 L 7.25 -10.199219 C 7.25 -10.214844 7.246094 -10.234375 7.238281 -10.261719 C 7.21875 -10.316406 7.1875 -10.367188 7.140625 -10.410156 C 7.097656 -10.457031 7.046875 -10.488281 6.992188 -10.503906 C 6.96875 -10.515625 6.945312 -10.519531 6.933594 -10.519531 L 9.035156 -10.519531 C 9.019531 -10.519531 9 -10.515625 8.976562 -10.503906 C 8.917969 -10.488281 8.867188 -10.457031 8.824219 -10.410156 C 8.78125 -10.367188 8.75 -10.316406 8.730469 -10.261719 C 8.722656 -10.234375 8.71875 -10.214844 8.71875 -10.199219 L 8.71875 -11.574219 C 8.71875 -12.378906 8.527344 -12.972656 8.148438 -13.351562 C 7.769531 -13.730469 7.175781 -13.921875 6.371094 -13.921875 Z M 4.039062 -13.921875 "/></g></g><g style="fill:#b21a22;fill-opacity:1;"><g transform="translate(23.905218, 41.66778)"><path style="stroke:none" d="M 1.375 -0.652344 L 3.539062 -0.652344 C 3.523438 -0.652344 3.503906 -0.644531 3.480469 -0.636719 C 3.421875 -0.621094 3.375 -0.589844 3.328125 -0.542969 C 3.285156 -0.5 3.253906 -0.449219 3.234375 -0.394531 C 3.226562 -0.367188 3.222656 -0.347656 3.222656 -0.332031 L 3.222656 -14.238281 C 3.222656 -14.222656 3.226562 -14.203125 3.234375 -14.179688 C 3.253906 -14.125 3.285156 -14.074219 3.328125 -14.027344 C 3.375 -13.984375 3.421875 -13.953125 3.480469 -13.933594 C 3.503906 -13.925781 3.523438 -13.921875 3.539062 -13.921875 L 1.375 -13.921875 C 1.390625 -13.921875 1.410156 -13.925781 1.433594 -13.933594 C 1.488281 -13.953125 1.539062 -13.984375 1.585938 -14.027344 C 1.628906 -14.074219 1.660156 -14.125 1.679688 -14.179688 C 1.6875 -14.203125 1.691406 -14.222656 1.691406 -14.238281 L 1.691406 -0.332031 C 1.691406 -0.347656 1.6875 -0.367188 1.679688 -0.394531 C 1.660156 -0.449219 1.628906 -0.5 1.585938 -0.542969 C 1.539062 -0.589844 1.488281 -0.621094 1.433594 -0.636719 C 1.410156 -0.644531 1.390625 -0.652344 1.375 -0.652344 Z M 1.375 0.652344 C 1.082031 0.652344 0.847656 0.558594 0.664062 0.375 C 0.480469 0.195312 0.390625 -0.0429688 0.390625 -0.332031 L 0.390625 -14.238281 C 0.390625 -14.53125 0.480469 -14.765625 0.664062 -14.949219 C 0.847656 -15.132812 1.082031 -15.222656 1.375 -15.222656 L 3.539062 -15.222656 C 3.828125 -15.222656 4.066406 -15.132812 4.25 -14.949219 C 4.429688 -14.765625 4.523438 -14.53125 4.523438 -14.238281 L 4.523438 -0.332031 C 4.523438 -0.0429688 4.429688 0.195312 4.25 0.375 C 4.066406 0.558594 3.828125 0.652344 3.539062 0.652344 Z M 1.375 0.652344 "/></g></g><g style="fill:#b21a22;fill-opacity:1;"><g transform="translate(28.816515, 41.66778)"><path style="stroke:none" d="M 3.222656 -2.746094 L 3.222656 -14.238281 C 3.222656 -14.222656 3.226562 -14.203125 3.234375 -14.179688 C 3.253906 -14.125 3.285156 -14.074219 3.328125 -14.027344 C 3.375 -13.984375 3.421875 -13.953125 3.480469 -13.933594 C 3.503906 -13.925781 3.523438 -13.921875 3.539062 -13.921875 L 1.375 -13.921875 C 1.390625 -13.921875 1.410156 -13.925781 1.433594 -13.933594 C 1.488281 -13.953125 1.539062 -13.984375 1.585938 -14.027344 C 1.628906 -14.074219 1.660156 -14.125 1.679688 -14.179688 C 1.6875 -14.203125 1.691406 -14.222656 1.691406 -14.238281 L 1.691406 -0.332031 C 1.691406 -0.347656 1.6875 -0.367188 1.679688 -0.394531 C 1.660156 -0.449219 1.628906 -0.5 1.585938 -0.542969 C 1.539062 -0.589844 1.488281 -0.621094 1.433594 -0.636719 C 1.410156 -0.644531 1.390625 -0.652344 1.375 -0.652344 L 7.992188 -0.652344 C 7.980469 -0.652344 7.957031 -0.644531 7.933594 -0.636719 C 7.878906 -0.621094 7.828125 -0.589844 7.785156 -0.542969 C 7.738281 -0.5 7.707031 -0.449219 7.6875 -0.394531 C 7.679688 -0.367188 7.675781 -0.347656 7.675781 -0.332031 L 7.675781 -2.414062 C 7.675781 -2.398438 7.679688 -2.378906 7.6875 -2.355469 C 7.707031 -2.300781 7.738281 -2.25 7.785156 -2.203125 C 7.828125 -2.160156 7.878906 -2.128906 7.933594 -2.109375 C 7.957031 -2.101562 7.980469 -2.097656 7.992188 -2.097656 L 3.222656 -2.097656 Z M 4.523438 -2.746094 L 3.871094 -2.746094 L 3.871094 -3.398438 L 7.992188 -3.398438 C 8.285156 -3.398438 8.519531 -3.308594 8.703125 -3.125 C 8.886719 -2.941406 8.976562 -2.707031 8.976562 -2.414062 L 8.976562 -0.332031 C 8.976562 -0.0429688 8.886719 0.195312 8.703125 0.375 C 8.519531 0.558594 8.285156 0.652344 7.992188 0.652344 L 1.375 0.652344 C 1.082031 0.652344 0.847656 0.558594 0.664062 0.375 C 0.480469 0.195312 0.390625 -0.0429688 0.390625 -0.332031 L 0.390625 -14.238281 C 0.390625 -14.53125 0.480469 -14.765625 0.664062 -14.949219 C 0.847656 -15.132812 1.082031 -15.222656 1.375 -15.222656 L 3.539062 -15.222656 C 3.828125 -15.222656 4.066406 -15.132812 4.25 -14.949219 C 4.429688 -14.765625 4.523438 -14.53125 4.523438 -14.238281 Z M 4.523438 -2.746094 "/></g></g><g style="fill:#b21a22;fill-opacity:1;"><g transform="translate(38.181281, 41.66778)"><path style="stroke:none" d="M 9.996094 -14.238281 L 9.996094 -12.15625 C 9.996094 -11.867188 9.910156 -11.628906 9.738281 -11.445312 C 9.554688 -11.25 9.3125 -11.152344 9.015625 -11.152344 L 3.871094 -11.152344 L 3.871094 -11.804688 L 4.523438 -11.804688 L 4.523438 -8.597656 L 3.871094 -8.597656 L 3.871094 -9.25 L 7.785156 -9.25 C 8.085938 -9.25 8.324219 -9.148438 8.507812 -8.953125 C 8.683594 -8.769531 8.769531 -8.535156 8.769531 -8.242188 L 8.769531 -6.183594 C 8.769531 -5.894531 8.683594 -5.65625 8.507812 -5.472656 C 8.324219 -5.277344 8.085938 -5.179688 7.785156 -5.179688 L 3.871094 -5.179688 L 3.871094 -5.828125 L 4.523438 -5.828125 L 4.523438 -2.746094 L 3.871094 -2.746094 L 3.871094 -3.398438 L 9.015625 -3.398438 C 9.304688 -3.398438 9.542969 -3.308594 9.722656 -3.125 C 9.90625 -2.941406 9.996094 -2.707031 9.996094 -2.414062 L 9.996094 -0.332031 C 9.996094 -0.0429688 9.90625 0.195312 9.722656 0.375 C 9.542969 0.558594 9.304688 0.652344 9.015625 0.652344 L 1.351562 0.652344 C 1.0625 0.652344 0.824219 0.554688 0.644531 0.363281 C 0.476562 0.179688 0.390625 -0.0507812 0.390625 -0.332031 L 0.390625 -14.238281 C 0.390625 -14.523438 0.476562 -14.753906 0.644531 -14.933594 C 0.824219 -15.125 1.0625 -15.222656 1.351562 -15.222656 L 9.015625 -15.222656 C 9.304688 -15.222656 9.542969 -15.132812 9.722656 -14.949219 C 9.90625 -14.765625 9.996094 -14.53125 9.996094 -14.238281 Z M 8.695312 -14.238281 C 8.695312 -14.222656 8.699219 -14.203125 8.707031 -14.179688 C 8.726562 -14.125 8.757812 -14.074219 8.804688 -14.027344 C 8.847656 -13.984375 8.898438 -13.953125 8.953125 -13.933594 C 8.980469 -13.925781 9 -13.921875 9.015625 -13.921875 L 1.351562 -13.921875 C 1.4375 -13.921875 1.515625 -13.960938 1.59375 -14.042969 C 1.636719 -14.089844 1.664062 -14.136719 1.679688 -14.191406 C 1.6875 -14.210938 1.691406 -14.226562 1.691406 -14.238281 L 1.691406 -0.332031 C 1.691406 -0.34375 1.6875 -0.359375 1.679688 -0.382812 C 1.664062 -0.433594 1.636719 -0.484375 1.59375 -0.527344 C 1.515625 -0.609375 1.4375 -0.652344 1.351562 -0.652344 L 9.015625 -0.652344 C 9 -0.652344 8.980469 -0.644531 8.953125 -0.636719 C 8.898438 -0.621094 8.847656 -0.589844 8.804688 -0.542969 C 8.757812 -0.5 8.726562 -0.449219 8.707031 -0.394531 C 8.699219 -0.367188 8.695312 -0.347656 8.695312 -0.332031 L 8.695312 -2.414062 C 8.695312 -2.398438 8.699219 -2.378906 8.707031 -2.355469 C 8.726562 -2.300781 8.757812 -2.25 8.804688 -2.203125 C 8.847656 -2.160156 8.898438 -2.128906 8.953125 -2.109375 C 8.980469 -2.101562 9 -2.097656 9.015625 -2.097656 L 3.222656 -2.097656 L 3.222656 -6.480469 L 7.785156 -6.480469 C 7.765625 -6.480469 7.742188 -6.472656 7.714844 -6.464844 C 7.65625 -6.445312 7.605469 -6.410156 7.5625 -6.363281 C 7.519531 -6.320312 7.492188 -6.273438 7.476562 -6.222656 C 7.472656 -6.203125 7.46875 -6.191406 7.46875 -6.183594 L 7.46875 -8.242188 C 7.46875 -8.234375 7.472656 -8.222656 7.476562 -8.203125 C 7.492188 -8.152344 7.519531 -8.105469 7.5625 -8.0625 C 7.605469 -8.015625 7.65625 -7.984375 7.714844 -7.960938 C 7.742188 -7.953125 7.765625 -7.945312 7.785156 -7.945312 L 3.222656 -7.945312 L 3.222656 -12.453125 L 9.015625 -12.453125 C 8.996094 -12.453125 8.972656 -12.449219 8.941406 -12.4375 C 8.886719 -12.417969 8.835938 -12.382812 8.789062 -12.335938 C 8.75 -12.292969 8.722656 -12.246094 8.707031 -12.195312 C 8.699219 -12.179688 8.695312 -12.164062 8.695312 -12.15625 Z M 8.695312 -14.238281 "/></g></g><g style="fill:#b21a22;fill-opacity:1;"><g transform="translate(48.565764, 41.66778)"><path style="stroke:none" d="M 7.640625 -15.222656 L 9.597656 -15.222656 C 9.886719 -15.222656 10.125 -15.132812 10.304688 -14.949219 C 10.488281 -14.765625 10.582031 -14.53125 10.582031 -14.238281 L 10.582031 -0.332031 C 10.582031 -0.0429688 10.488281 0.195312 10.304688 0.375 C 10.125 0.558594 9.886719 0.652344 9.597656 0.652344 L 7.953125 0.652344 C 7.730469 0.652344 7.527344 0.585938 7.351562 0.460938 C 7.199219 0.347656 7.074219 0.195312 6.988281 0.00390625 L 7.578125 -0.269531 L 6.992188 0.015625 L 3.082031 -7.933594 L 3.664062 -8.222656 L 4.3125 -8.222656 L 4.3125 -0.332031 C 4.3125 -0.0429688 4.222656 0.195312 4.039062 0.375 C 3.859375 0.558594 3.621094 0.652344 3.332031 0.652344 L 1.375 0.652344 C 1.082031 0.652344 0.847656 0.558594 0.664062 0.375 C 0.480469 0.195312 0.390625 -0.0429688 0.390625 -0.332031 L 0.390625 -14.238281 C 0.390625 -14.53125 0.480469 -14.765625 0.664062 -14.949219 C 0.847656 -15.132812 1.082031 -15.222656 1.375 -15.222656 L 3.019531 -15.222656 C 3.242188 -15.222656 3.441406 -15.160156 3.617188 -15.03125 C 3.773438 -14.921875 3.894531 -14.765625 3.984375 -14.574219 L 3.394531 -14.300781 L 3.976562 -14.589844 L 7.890625 -6.636719 L 7.308594 -6.347656 L 6.65625 -6.347656 L 6.65625 -14.238281 C 6.65625 -14.53125 6.746094 -14.765625 6.929688 -14.949219 C 7.113281 -15.132812 7.347656 -15.222656 7.640625 -15.222656 Z M 7.640625 -13.921875 C 7.65625 -13.921875 7.675781 -13.925781 7.699219 -13.933594 C 7.753906 -13.953125 7.804688 -13.984375 7.851562 -14.027344 C 7.894531 -14.074219 7.925781 -14.125 7.945312 -14.179688 C 7.953125 -14.203125 7.957031 -14.222656 7.957031 -14.238281 L 7.957031 -6.347656 L 6.722656 -6.0625 L 2.804688 -14.019531 L 2.800781 -14.027344 C 2.808594 -14.015625 2.828125 -14 2.855469 -13.976562 C 2.90625 -13.941406 2.960938 -13.921875 3.019531 -13.921875 L 1.375 -13.921875 C 1.390625 -13.921875 1.410156 -13.925781 1.433594 -13.933594 C 1.488281 -13.953125 1.539062 -13.984375 1.585938 -14.027344 C 1.628906 -14.074219 1.660156 -14.125 1.679688 -14.179688 C 1.6875 -14.203125 1.691406 -14.222656 1.691406 -14.238281 L 1.691406 -0.332031 C 1.691406 -0.347656 1.6875 -0.367188 1.679688 -0.394531 C 1.660156 -0.449219 1.628906 -0.5 1.585938 -0.542969 C 1.539062 -0.589844 1.488281 -0.621094 1.433594 -0.636719 C 1.410156 -0.644531 1.390625 -0.652344 1.375 -0.652344 L 3.332031 -0.652344 C 3.316406 -0.652344 3.296875 -0.644531 3.269531 -0.636719 C 3.214844 -0.621094 3.164062 -0.589844 3.121094 -0.542969 C 3.074219 -0.5 3.042969 -0.449219 3.027344 -0.394531 C 3.015625 -0.367188 3.011719 -0.347656 3.011719 -0.332031 L 3.011719 -8.222656 L 4.246094 -8.511719 L 8.164062 -0.550781 L 8.167969 -0.542969 C 8.164062 -0.554688 8.144531 -0.574219 8.113281 -0.59375 C 8.0625 -0.632812 8.007812 -0.652344 7.953125 -0.652344 L 9.597656 -0.652344 C 9.582031 -0.652344 9.5625 -0.644531 9.535156 -0.636719 C 9.480469 -0.621094 9.429688 -0.589844 9.386719 -0.542969 C 9.34375 -0.5 9.308594 -0.449219 9.292969 -0.394531 C 9.285156 -0.367188 9.277344 -0.347656 9.277344 -0.332031 L 9.277344 -14.238281 C 9.277344 -14.222656 9.285156 -14.203125 9.292969 -14.179688 C 9.308594 -14.125 9.34375 -14.074219 9.386719 -14.027344 C 9.429688 -13.984375 9.480469 -13.953125 9.535156 -13.933594 C 9.5625 -13.925781 9.582031 -13.921875 9.597656 -13.921875 Z M 7.640625 -13.921875 "/></g></g><g style="fill:#b21a22;fill-opacity:1;"><g transform="translate(59.532949, 41.66778)"><path style="stroke:none" d="M 8.617188 -13.921875 L 0.957031 -13.921875 C 0.972656 -13.921875 0.992188 -13.925781 1.019531 -13.933594 C 1.074219 -13.953125 1.125 -13.984375 1.167969 -14.027344 C 1.210938 -14.074219 1.242188 -14.125 1.261719 -14.179688 C 1.269531 -14.203125 1.273438 -14.222656 1.273438 -14.238281 L 1.273438 -12.15625 C 1.273438 -12.171875 1.269531 -12.191406 1.261719 -12.21875 C 1.242188 -12.273438 1.210938 -12.324219 1.167969 -12.367188 C 1.125 -12.410156 1.074219 -12.445312 1.019531 -12.460938 C 0.992188 -12.46875 0.972656 -12.476562 0.957031 -12.476562 L 4.023438 -12.476562 L 4.023438 -0.332031 C 4.023438 -0.347656 4.019531 -0.367188 4.011719 -0.394531 C 3.992188 -0.449219 3.960938 -0.5 3.914062 -0.542969 C 3.871094 -0.589844 3.820312 -0.621094 3.765625 -0.636719 C 3.742188 -0.644531 3.71875 -0.652344 3.707031 -0.652344 L 5.871094 -0.652344 C 5.855469 -0.652344 5.835938 -0.644531 5.808594 -0.636719 C 5.753906 -0.621094 5.703125 -0.589844 5.660156 -0.542969 C 5.617188 -0.5 5.585938 -0.449219 5.566406 -0.394531 C 5.558594 -0.367188 5.554688 -0.347656 5.554688 -0.332031 L 5.554688 -12.476562 L 8.617188 -12.476562 C 8.601562 -12.476562 8.582031 -12.46875 8.558594 -12.460938 C 8.503906 -12.445312 8.453125 -12.410156 8.40625 -12.367188 C 8.363281 -12.324219 8.332031 -12.273438 8.3125 -12.21875 C 8.304688 -12.191406 8.300781 -12.171875 8.300781 -12.15625 L 8.300781 -14.238281 C 8.300781 -14.222656 8.304688 -14.203125 8.3125 -14.179688 C 8.332031 -14.125 8.363281 -14.074219 8.40625 -14.027344 C 8.453125 -13.984375 8.503906 -13.953125 8.558594 -13.933594 C 8.582031 -13.925781 8.601562 -13.921875 8.617188 -13.921875 Z M 8.617188 -15.222656 C 8.910156 -15.222656 9.144531 -15.132812 9.328125 -14.949219 C 9.511719 -14.765625 9.601562 -14.53125 9.601562 -14.238281 L 9.601562 -12.15625 C 9.601562 -11.867188 9.511719 -11.628906 9.328125 -11.449219 C 9.144531 -11.265625 8.910156 -11.171875 8.617188 -11.171875 L 6.203125 -11.171875 L 6.203125 -11.824219 L 6.855469 -11.824219 L 6.855469 -0.332031 C 6.855469 -0.0429688 6.761719 0.195312 6.582031 0.375 C 6.398438 0.558594 6.160156 0.652344 5.871094 0.652344 L 3.707031 0.652344 C 3.414062 0.652344 3.179688 0.558594 2.996094 0.375 C 2.8125 0.195312 2.722656 -0.0429688 2.722656 -0.332031 L 2.722656 -11.824219 L 3.371094 -11.824219 L 3.371094 -11.171875 L 0.957031 -11.171875 C 0.667969 -11.171875 0.429688 -11.265625 0.246094 -11.449219 C 0.0664062 -11.628906 -0.0273438 -11.867188 -0.0273438 -12.15625 L -0.0273438 -14.238281 C -0.0273438 -14.53125 0.0664062 -14.765625 0.246094 -14.949219 C 0.429688 -15.132812 0.667969 -15.222656 0.957031 -15.222656 Z M 8.617188 -15.222656 "/></g></g><g style="fill:#b21a22;fill-opacity:1;"><g transform="translate(69.105823, 41.66778)"><path style="stroke:none" d="M -0.652344 2.789062 L -0.652344 0.875 C -0.652344 0.554688 -0.550781 0.296875 -0.355469 0.101562 C -0.160156 -0.09375 0.0976562 -0.191406 0.417969 -0.191406 L 12.96875 -0.191406 C 13.289062 -0.191406 13.546875 -0.09375 13.742188 0.101562 C 13.9375 0.296875 14.035156 0.554688 14.035156 0.875 L 14.035156 2.789062 C 14.035156 3.109375 13.9375 3.367188 13.742188 3.5625 C 13.546875 3.757812 13.289062 3.855469 12.96875 3.855469 L 0.417969 3.855469 C 0.0976562 3.855469 -0.160156 3.757812 -0.355469 3.5625 C -0.550781 3.367188 -0.652344 3.109375 -0.652344 2.789062 Z M 0.652344 2.789062 C 0.652344 2.792969 0.652344 2.792969 0.652344 2.796875 C 0.648438 2.785156 0.648438 2.777344 0.644531 2.765625 C 0.628906 2.722656 0.601562 2.679688 0.5625 2.640625 C 0.527344 2.605469 0.484375 2.578125 0.441406 2.5625 C 0.429688 2.558594 0.417969 2.554688 0.410156 2.554688 C 0.410156 2.554688 0.414062 2.554688 0.417969 2.554688 L 12.96875 2.554688 C 12.972656 2.554688 12.972656 2.554688 12.976562 2.554688 C 12.964844 2.554688 12.957031 2.558594 12.945312 2.5625 C 12.902344 2.578125 12.859375 2.605469 12.820312 2.640625 C 12.785156 2.679688 12.757812 2.722656 12.742188 2.765625 C 12.738281 2.777344 12.734375 2.785156 12.734375 2.796875 C 12.734375 2.792969 12.734375 2.792969 12.734375 2.789062 L 12.734375 0.875 C 12.734375 0.871094 12.734375 0.867188 12.734375 0.867188 C 12.734375 0.878906 12.738281 0.886719 12.742188 0.898438 C 12.757812 0.941406 12.785156 0.984375 12.820312 1.023438 C 12.859375 1.058594 12.902344 1.085938 12.945312 1.101562 C 12.957031 1.105469 12.964844 1.105469 12.976562 1.109375 C 12.972656 1.109375 12.972656 1.109375 12.96875 1.109375 L 0.417969 1.109375 C 0.414062 1.109375 0.410156 1.109375 0.410156 1.109375 C 0.417969 1.105469 0.429688 1.105469 0.441406 1.101562 C 0.484375 1.085938 0.527344 1.058594 0.5625 1.023438 C 0.601562 0.984375 0.628906 0.941406 0.644531 0.898438 C 0.648438 0.886719 0.648438 0.878906 0.652344 0.867188 C 0.652344 0.867188 0.652344 0.871094 0.652344 0.875 Z M 0.652344 2.789062 "/></g></g><g style="fill:#b21a22;fill-opacity:1;"><g transform="translate(14.736684, 70.690454)"><path style="stroke:none" d="M 4.039062 -15.222656 L 6.371094 -15.222656 C 7.535156 -15.222656 8.433594 -14.90625 9.066406 -14.273438 C 9.703125 -13.636719 10.019531 -12.738281 10.019531 -11.574219 L 10.019531 -10.199219 C 10.019531 -9.910156 9.925781 -9.671875 9.746094 -9.492188 C 9.5625 -9.308594 9.324219 -9.214844 9.035156 -9.214844 L 6.933594 -9.214844 C 6.640625 -9.214844 6.40625 -9.308594 6.222656 -9.492188 C 6.039062 -9.671875 5.949219 -9.910156 5.949219 -10.199219 L 5.949219 -11.074219 C 5.949219 -11.144531 5.941406 -11.195312 5.929688 -11.234375 C 5.925781 -11.238281 5.925781 -11.246094 5.925781 -11.246094 C 5.925781 -11.246094 5.929688 -11.242188 5.929688 -11.238281 C 5.933594 -11.234375 5.9375 -11.234375 5.9375 -11.234375 C 5.9375 -11.234375 5.933594 -11.234375 5.925781 -11.238281 C 5.886719 -11.25 5.835938 -11.257812 5.765625 -11.257812 L 4.621094 -11.257812 C 4.554688 -11.257812 4.5 -11.25 4.460938 -11.238281 C 4.457031 -11.234375 4.453125 -11.234375 4.449219 -11.234375 C 4.449219 -11.234375 4.453125 -11.234375 4.457031 -11.238281 C 4.460938 -11.242188 4.460938 -11.246094 4.464844 -11.246094 C 4.460938 -11.246094 4.460938 -11.238281 4.457031 -11.234375 C 4.445312 -11.195312 4.4375 -11.144531 4.4375 -11.074219 L 4.4375 -9.304688 L 3.789062 -9.304688 L 3.988281 -9.925781 L 9.027344 -8.300781 C 9.347656 -8.191406 9.59375 -8.011719 9.765625 -7.769531 C 9.933594 -7.527344 10.019531 -7.242188 10.019531 -6.910156 L 10.019531 -2.996094 C 10.019531 -1.847656 9.703125 -0.953125 9.070312 -0.3125 C 8.4375 0.328125 7.535156 0.652344 6.371094 0.652344 L 4.039062 0.652344 C 2.886719 0.652344 1.992188 0.332031 1.351562 -0.308594 C 0.710938 -0.949219 0.390625 -1.847656 0.390625 -2.996094 L 0.390625 -4.351562 C 0.390625 -4.640625 0.480469 -4.878906 0.664062 -5.0625 C 0.847656 -5.242188 1.082031 -5.335938 1.375 -5.335938 L 3.476562 -5.335938 C 3.765625 -5.335938 4.003906 -5.242188 4.1875 -5.0625 C 4.367188 -4.878906 4.460938 -4.640625 4.460938 -4.351562 L 4.460938 -3.476562 C 4.460938 -3.40625 4.464844 -3.355469 4.480469 -3.316406 C 4.480469 -3.3125 4.484375 -3.304688 4.484375 -3.304688 C 4.484375 -3.304688 4.480469 -3.308594 4.476562 -3.3125 C 4.476562 -3.316406 4.472656 -3.316406 4.46875 -3.320312 C 4.472656 -3.316406 4.476562 -3.316406 4.484375 -3.3125 C 4.519531 -3.300781 4.574219 -3.292969 4.640625 -3.292969 L 5.765625 -3.292969 C 5.835938 -3.292969 5.886719 -3.300781 5.925781 -3.3125 C 5.933594 -3.316406 5.9375 -3.316406 5.9375 -3.320312 C 5.9375 -3.316406 5.933594 -3.316406 5.929688 -3.3125 C 5.929688 -3.308594 5.925781 -3.304688 5.925781 -3.304688 C 5.925781 -3.304688 5.925781 -3.3125 5.929688 -3.316406 C 5.941406 -3.355469 5.949219 -3.40625 5.949219 -3.476562 L 5.949219 -5.578125 L 6.597656 -5.578125 L 6.398438 -4.960938 L 1.402344 -6.585938 C 1.078125 -6.691406 0.832031 -6.863281 0.65625 -7.105469 C 0.480469 -7.347656 0.390625 -7.636719 0.390625 -7.972656 L 0.390625 -11.574219 C 0.390625 -12.742188 0.710938 -13.640625 1.355469 -14.273438 C 1.996094 -14.90625 2.890625 -15.222656 4.039062 -15.222656 Z M 4.039062 -13.921875 C 3.246094 -13.921875 2.65625 -13.730469 2.269531 -13.347656 C 1.882812 -12.96875 1.691406 -12.378906 1.691406 -11.574219 L 1.691406 -7.972656 C 1.691406 -7.921875 1.695312 -7.886719 1.707031 -7.871094 C 1.71875 -7.855469 1.75 -7.839844 1.804688 -7.820312 L 7.25 -6.050781 L 7.25 -3.476562 C 7.25 -3.019531 7.117188 -2.65625 6.851562 -2.390625 C 6.585938 -2.125 6.222656 -1.992188 5.765625 -1.992188 L 4.640625 -1.992188 C 4.183594 -1.992188 3.824219 -2.125 3.558594 -2.390625 C 3.292969 -2.65625 3.160156 -3.019531 3.160156 -3.476562 L 3.160156 -4.351562 C 3.160156 -4.335938 3.164062 -4.316406 3.171875 -4.289062 C 3.191406 -4.234375 3.222656 -4.183594 3.265625 -4.140625 C 3.3125 -4.097656 3.359375 -4.0625 3.417969 -4.046875 C 3.441406 -4.039062 3.460938 -4.035156 3.476562 -4.035156 L 1.375 -4.035156 C 1.390625 -4.035156 1.410156 -4.039062 1.433594 -4.046875 C 1.488281 -4.0625 1.539062 -4.097656 1.585938 -4.140625 C 1.628906 -4.183594 1.660156 -4.234375 1.679688 -4.289062 C 1.6875 -4.316406 1.691406 -4.335938 1.691406 -4.351562 L 1.691406 -2.996094 C 1.691406 -2.207031 1.882812 -1.617188 2.269531 -1.230469 C 2.65625 -0.84375 3.246094 -0.652344 4.039062 -0.652344 L 6.371094 -0.652344 C 7.175781 -0.652344 7.765625 -0.84375 8.144531 -1.226562 C 8.527344 -1.613281 8.71875 -2.203125 8.71875 -2.996094 L 8.71875 -6.910156 C 8.71875 -6.96875 8.710938 -7.003906 8.699219 -7.019531 C 8.691406 -7.035156 8.667969 -7.046875 8.625 -7.0625 L 3.136719 -8.832031 L 3.136719 -11.074219 C 3.136719 -11.53125 3.269531 -11.894531 3.535156 -12.160156 C 3.800781 -12.425781 4.164062 -12.558594 4.621094 -12.558594 L 5.765625 -12.558594 C 6.222656 -12.558594 6.585938 -12.425781 6.851562 -12.160156 C 7.117188 -11.894531 7.25 -11.53125 7.25 -11.074219 L 7.25 -10.199219 C 7.25 -10.214844 7.246094 -10.234375 7.238281 -10.261719 C 7.21875 -10.316406 7.1875 -10.367188 7.140625 -10.410156 C 7.097656 -10.457031 7.046875 -10.488281 6.992188 -10.503906 C 6.96875 -10.515625 6.945312 -10.519531 6.933594 -10.519531 L 9.035156 -10.519531 C 9.019531 -10.519531 9 -10.515625 8.976562 -10.503906 C 8.917969 -10.488281 8.867188 -10.457031 8.824219 -10.410156 C 8.78125 -10.367188 8.75 -10.316406 8.730469 -10.261719 C 8.722656 -10.234375 8.71875 -10.214844 8.71875 -10.199219 L 8.71875 -11.574219 C 8.71875 -12.378906 8.527344 -12.972656 8.148438 -13.351562 C 7.769531 -13.730469 7.175781 -13.921875 6.371094 -13.921875 Z M 4.039062 -13.921875 "/></g></g><g style="fill:#b21a22;fill-opacity:1;"><g transform="translate(25.14198, 70.690454)"><path style="stroke:none" d="M 8.617188 -13.921875 L 0.957031 -13.921875 C 0.972656 -13.921875 0.992188 -13.925781 1.019531 -13.933594 C 1.074219 -13.953125 1.125 -13.984375 1.167969 -14.027344 C 1.210938 -14.074219 1.242188 -14.125 1.261719 -14.179688 C 1.269531 -14.203125 1.273438 -14.222656 1.273438 -14.238281 L 1.273438 -12.15625 C 1.273438 -12.171875 1.269531 -12.191406 1.261719 -12.21875 C 1.242188 -12.273438 1.210938 -12.324219 1.167969 -12.367188 C 1.125 -12.410156 1.074219 -12.445312 1.019531 -12.460938 C 0.992188 -12.46875 0.972656 -12.476562 0.957031 -12.476562 L 4.023438 -12.476562 L 4.023438 -0.332031 C 4.023438 -0.347656 4.019531 -0.367188 4.011719 -0.394531 C 3.992188 -0.449219 3.960938 -0.5 3.914062 -0.542969 C 3.871094 -0.589844 3.820312 -0.621094 3.765625 -0.636719 C 3.742188 -0.644531 3.71875 -0.652344 3.707031 -0.652344 L 5.871094 -0.652344 C 5.855469 -0.652344 5.835938 -0.644531 5.808594 -0.636719 C 5.753906 -0.621094 5.703125 -0.589844 5.660156 -0.542969 C 5.617188 -0.5 5.585938 -0.449219 5.566406 -0.394531 C 5.558594 -0.367188 5.554688 -0.347656 5.554688 -0.332031 L 5.554688 -12.476562 L 8.617188 -12.476562 C 8.601562 -12.476562 8.582031 -12.46875 8.558594 -12.460938 C 8.503906 -12.445312 8.453125 -12.410156 8.40625 -12.367188 C 8.363281 -12.324219 8.332031 -12.273438 8.3125 -12.21875 C 8.304688 -12.191406 8.300781 -12.171875 8.300781 -12.15625 L 8.300781 -14.238281 C 8.300781 -14.222656 8.304688 -14.203125 8.3125 -14.179688 C 8.332031 -14.125 8.363281 -14.074219 8.40625 -14.027344 C 8.453125 -13.984375 8.503906 -13.953125 8.558594 -13.933594 C 8.582031 -13.925781 8.601562 -13.921875 8.617188 -13.921875 Z M 8.617188 -15.222656 C 8.910156 -15.222656 9.144531 -15.132812 9.328125 -14.949219 C 9.511719 -14.765625 9.601562 -14.53125 9.601562 -14.238281 L 9.601562 -12.15625 C 9.601562 -11.867188 9.511719 -11.628906 9.328125 -11.449219 C 9.144531 -11.265625 8.910156 -11.171875 8.617188 -11.171875 L 6.203125 -11.171875 L 6.203125 -11.824219 L 6.855469 -11.824219 L 6.855469 -0.332031 C 6.855469 -0.0429688 6.761719 0.195312 6.582031 0.375 C 6.398438 0.558594 6.160156 0.652344 5.871094 0.652344 L 3.707031 0.652344 C 3.414062 0.652344 3.179688 0.558594 2.996094 0.375 C 2.8125 0.195312 2.722656 -0.0429688 2.722656 -0.332031 L 2.722656 -11.824219 L 3.371094 -11.824219 L 3.371094 -11.171875 L 0.957031 -11.171875 C 0.667969 -11.171875 0.429688 -11.265625 0.246094 -11.449219 C 0.0664062 -11.628906 -0.0273438 -11.867188 -0.0273438 -12.15625 L -0.0273438 -14.238281 C -0.0273438 -14.53125 0.0664062 -14.765625 0.246094 -14.949219 C 0.429688 -15.132812 0.667969 -15.222656 0.957031 -15.222656 Z M 8.617188 -15.222656 "/></g></g><g style="fill:#b21a22;fill-opacity:1;"><g transform="translate(34.714854, 70.690454)"><path style="stroke:none" d="M 10.019531 -11.574219 L 10.019531 -7.390625 C 10.019531 -5.941406 9.527344 -4.910156 8.546875 -4.296875 L 8.203125 -4.851562 L 8.835938 -5.003906 L 9.917969 -0.527344 L 9.285156 -0.375 L 9.910156 -0.550781 C 10.003906 -0.214844 9.960938 0.0703125 9.777344 0.304688 C 9.597656 0.535156 9.335938 0.652344 8.992188 0.652344 L 6.953125 0.652344 C 6.699219 0.652344 6.484375 0.578125 6.304688 0.429688 C 6.128906 0.285156 6.015625 0.0898438 5.964844 -0.15625 L 6.597656 -0.292969 L 5.96875 -0.136719 L 4.96875 -4.238281 L 5.601562 -4.390625 L 5.601562 -3.742188 L 3.746094 -3.742188 L 3.746094 -4.390625 L 4.398438 -4.390625 L 4.398438 -0.332031 C 4.398438 -0.0429688 4.304688 0.195312 4.125 0.375 C 3.941406 0.558594 3.703125 0.652344 3.414062 0.652344 L 1.375 0.652344 C 1.082031 0.652344 0.847656 0.558594 0.664062 0.375 C 0.480469 0.195312 0.390625 -0.0429688 0.390625 -0.332031 L 0.390625 -14.238281 C 0.390625 -14.53125 0.480469 -14.765625 0.664062 -14.949219 C 0.847656 -15.132812 1.082031 -15.222656 1.375 -15.222656 L 6.371094 -15.222656 C 7.535156 -15.222656 8.433594 -14.90625 9.066406 -14.273438 C 9.703125 -13.636719 10.019531 -12.738281 10.019531 -11.574219 Z M 8.71875 -11.574219 C 8.71875 -12.378906 8.527344 -12.972656 8.148438 -13.351562 C 7.769531 -13.730469 7.175781 -13.921875 6.371094 -13.921875 L 1.375 -13.921875 C 1.390625 -13.921875 1.410156 -13.925781 1.433594 -13.933594 C 1.488281 -13.953125 1.539062 -13.984375 1.585938 -14.027344 C 1.628906 -14.074219 1.660156 -14.125 1.679688 -14.179688 C 1.6875 -14.203125 1.691406 -14.222656 1.691406 -14.238281 L 1.691406 -0.332031 C 1.691406 -0.347656 1.6875 -0.367188 1.679688 -0.394531 C 1.660156 -0.449219 1.628906 -0.5 1.585938 -0.542969 C 1.539062 -0.589844 1.488281 -0.621094 1.433594 -0.636719 C 1.410156 -0.644531 1.390625 -0.652344 1.375 -0.652344 L 3.414062 -0.652344 C 3.398438 -0.652344 3.378906 -0.644531 3.355469 -0.636719 C 3.296875 -0.621094 3.25 -0.589844 3.203125 -0.542969 C 3.160156 -0.5 3.128906 -0.449219 3.109375 -0.394531 C 3.101562 -0.367188 3.097656 -0.347656 3.097656 -0.332031 L 3.097656 -5.042969 L 6.109375 -5.042969 L 7.234375 -0.4375 L 7.234375 -0.429688 C 7.222656 -0.476562 7.191406 -0.527344 7.132812 -0.574219 C 7.070312 -0.625 7.011719 -0.652344 6.953125 -0.652344 L 8.992188 -0.652344 L 8.992188 -0.648438 C 8.980469 -0.648438 8.964844 -0.644531 8.945312 -0.636719 C 8.871094 -0.613281 8.804688 -0.5625 8.75 -0.492188 C 8.695312 -0.421875 8.664062 -0.34375 8.65625 -0.257812 C 8.65625 -0.230469 8.65625 -0.210938 8.65625 -0.199219 L 8.65625 -0.210938 L 7.460938 -5.152344 L 7.855469 -5.402344 C 8.429688 -5.761719 8.71875 -6.421875 8.71875 -7.390625 Z M 3.746094 -7.726562 L 5.828125 -7.726562 C 5.898438 -7.726562 5.949219 -7.734375 5.988281 -7.746094 C 5.996094 -7.75 6 -7.75 6 -7.753906 C 6 -7.75 5.996094 -7.75 5.992188 -7.746094 C 5.988281 -7.742188 5.988281 -7.742188 5.988281 -7.738281 C 5.988281 -7.742188 5.988281 -7.746094 5.992188 -7.753906 C 6.003906 -7.789062 6.011719 -7.84375 6.011719 -7.910156 L 6.011719 -11.054688 C 6.011719 -11.121094 6.003906 -11.175781 5.992188 -11.210938 C 5.988281 -11.21875 5.988281 -11.222656 5.988281 -11.226562 C 5.988281 -11.222656 5.988281 -11.222656 5.992188 -11.21875 C 5.996094 -11.214844 6 -11.214844 6 -11.210938 C 6 -11.214844 5.996094 -11.214844 5.988281 -11.21875 C 5.949219 -11.230469 5.898438 -11.234375 5.828125 -11.234375 L 3.746094 -11.234375 L 3.746094 -11.886719 L 4.398438 -11.886719 L 4.398438 -7.078125 L 3.746094 -7.078125 Z M 3.097656 -6.425781 L 3.097656 -12.539062 L 5.828125 -12.539062 C 6.285156 -12.539062 6.648438 -12.402344 6.914062 -12.136719 C 7.179688 -11.871094 7.3125 -11.511719 7.3125 -11.054688 L 7.3125 -7.910156 C 7.3125 -7.453125 7.179688 -7.089844 6.914062 -6.824219 C 6.648438 -6.558594 6.285156 -6.425781 5.828125 -6.425781 Z M 3.097656 -6.425781 "/></g></g><g style="fill:#b21a22;fill-opacity:1;"><g transform="translate(45.12015, 70.690454)"><path style="stroke:none" d="M 9.996094 -14.238281 L 9.996094 -12.15625 C 9.996094 -11.867188 9.910156 -11.628906 9.738281 -11.445312 C 9.554688 -11.25 9.3125 -11.152344 9.015625 -11.152344 L 3.871094 -11.152344 L 3.871094 -11.804688 L 4.523438 -11.804688 L 4.523438 -8.597656 L 3.871094 -8.597656 L 3.871094 -9.25 L 7.785156 -9.25 C 8.085938 -9.25 8.324219 -9.148438 8.507812 -8.953125 C 8.683594 -8.769531 8.769531 -8.535156 8.769531 -8.242188 L 8.769531 -6.183594 C 8.769531 -5.894531 8.683594 -5.65625 8.507812 -5.472656 C 8.324219 -5.277344 8.085938 -5.179688 7.785156 -5.179688 L 3.871094 -5.179688 L 3.871094 -5.828125 L 4.523438 -5.828125 L 4.523438 -2.746094 L 3.871094 -2.746094 L 3.871094 -3.398438 L 9.015625 -3.398438 C 9.304688 -3.398438 9.542969 -3.308594 9.722656 -3.125 C 9.90625 -2.941406 9.996094 -2.707031 9.996094 -2.414062 L 9.996094 -0.332031 C 9.996094 -0.0429688 9.90625 0.195312 9.722656 0.375 C 9.542969 0.558594 9.304688 0.652344 9.015625 0.652344 L 1.351562 0.652344 C 1.0625 0.652344 0.824219 0.554688 0.644531 0.363281 C 0.476562 0.179688 0.390625 -0.0507812 0.390625 -0.332031 L 0.390625 -14.238281 C 0.390625 -14.523438 0.476562 -14.753906 0.644531 -14.933594 C 0.824219 -15.125 1.0625 -15.222656 1.351562 -15.222656 L 9.015625 -15.222656 C 9.304688 -15.222656 9.542969 -15.132812 9.722656 -14.949219 C 9.90625 -14.765625 9.996094 -14.53125 9.996094 -14.238281 Z M 8.695312 -14.238281 C 8.695312 -14.222656 8.699219 -14.203125 8.707031 -14.179688 C 8.726562 -14.125 8.757812 -14.074219 8.804688 -14.027344 C 8.847656 -13.984375 8.898438 -13.953125 8.953125 -13.933594 C 8.980469 -13.925781 9 -13.921875 9.015625 -13.921875 L 1.351562 -13.921875 C 1.4375 -13.921875 1.515625 -13.960938 1.59375 -14.042969 C 1.636719 -14.089844 1.664062 -14.136719 1.679688 -14.191406 C 1.6875 -14.210938 1.691406 -14.226562 1.691406 -14.238281 L 1.691406 -0.332031 C 1.691406 -0.34375 1.6875 -0.359375 1.679688 -0.382812 C 1.664062 -0.433594 1.636719 -0.484375 1.59375 -0.527344 C 1.515625 -0.609375 1.4375 -0.652344 1.351562 -0.652344 L 9.015625 -0.652344 C 9 -0.652344 8.980469 -0.644531 8.953125 -0.636719 C 8.898438 -0.621094 8.847656 -0.589844 8.804688 -0.542969 C 8.757812 -0.5 8.726562 -0.449219 8.707031 -0.394531 C 8.699219 -0.367188 8.695312 -0.347656 8.695312 -0.332031 L 8.695312 -2.414062 C 8.695312 -2.398438 8.699219 -2.378906 8.707031 -2.355469 C 8.726562 -2.300781 8.757812 -2.25 8.804688 -2.203125 C 8.847656 -2.160156 8.898438 -2.128906 8.953125 -2.109375 C 8.980469 -2.101562 9 -2.097656 9.015625 -2.097656 L 3.222656 -2.097656 L 3.222656 -6.480469 L 7.785156 -6.480469 C 7.765625 -6.480469 7.742188 -6.472656 7.714844 -6.464844 C 7.65625 -6.445312 7.605469 -6.410156 7.5625 -6.363281 C 7.519531 -6.320312 7.492188 -6.273438 7.476562 -6.222656 C 7.472656 -6.203125 7.46875 -6.191406 7.46875 -6.183594 L 7.46875 -8.242188 C 7.46875 -8.234375 7.472656 -8.222656 7.476562 -8.203125 C 7.492188 -8.152344 7.519531 -8.105469 7.5625 -8.0625 C 7.605469 -8.015625 7.65625 -7.984375 7.714844 -7.960938 C 7.742188 -7.953125 7.765625 -7.945312 7.785156 -7.945312 L 3.222656 -7.945312 L 3.222656 -12.453125 L 9.015625 -12.453125 C 8.996094 -12.453125 8.972656 -12.449219 8.941406 -12.4375 C 8.886719 -12.417969 8.835938 -12.382812 8.789062 -12.335938 C 8.75 -12.292969 8.722656 -12.246094 8.707031 -12.195312 C 8.699219 -12.179688 8.695312 -12.164062 8.695312 -12.15625 Z M 8.695312 -14.238281 "/></g></g><g style="fill:#b21a22;fill-opacity:1;"><g transform="translate(55.504633, 70.690454)"><path style="stroke:none" d="M 10.867188 0.652344 L 8.847656 0.652344 C 8.59375 0.652344 8.378906 0.574219 8.199219 0.417969 C 8.035156 0.273438 7.929688 0.0820312 7.878906 -0.15625 L 8.515625 -0.292969 L 7.882812 -0.132812 L 7.21875 -2.753906 L 7.847656 -2.914062 L 7.847656 -2.265625 L 3.933594 -2.265625 L 3.933594 -2.914062 L 4.566406 -2.757812 L 3.921875 -0.136719 L 3.289062 -0.292969 L 3.925781 -0.15625 C 3.875 0.0820312 3.765625 0.273438 3.601562 0.417969 C 3.425781 0.574219 3.210938 0.652344 2.957031 0.652344 L 0.914062 0.652344 C 0.578125 0.652344 0.320312 0.535156 0.144531 0.308594 C -0.0351562 0.0742188 -0.0742188 -0.207031 0.0195312 -0.539062 L 0.644531 -0.355469 L 0.015625 -0.511719 L 3.46875 -14.4375 L 4.101562 -14.28125 L 3.464844 -14.417969 C 3.515625 -14.660156 3.632812 -14.855469 3.808594 -15 C 3.984375 -15.148438 4.203125 -15.222656 4.453125 -15.222656 L 7.347656 -15.222656 C 7.601562 -15.222656 7.816406 -15.148438 7.996094 -15 C 8.171875 -14.855469 8.285156 -14.660156 8.339844 -14.417969 L 7.703125 -14.28125 L 8.332031 -14.4375 L 11.789062 -0.511719 L 11.15625 -0.355469 L 11.78125 -0.539062 C 11.882812 -0.199219 11.835938 0.0898438 11.640625 0.324219 C 11.460938 0.542969 11.203125 0.652344 10.867188 0.652344 Z M 10.867188 -0.652344 C 10.871094 -0.652344 10.871094 -0.652344 10.875 -0.652344 C 10.875 -0.652344 10.875 -0.652344 10.871094 -0.652344 C 10.859375 -0.648438 10.847656 -0.644531 10.832031 -0.640625 C 10.757812 -0.617188 10.691406 -0.570312 10.636719 -0.503906 C 10.574219 -0.425781 10.539062 -0.34375 10.53125 -0.25 C 10.527344 -0.214844 10.527344 -0.1875 10.535156 -0.171875 L 10.53125 -0.183594 L 7.070312 -14.132812 L 7.066406 -14.144531 C 7.078125 -14.09375 7.113281 -14.042969 7.167969 -13.996094 C 7.230469 -13.945312 7.289062 -13.921875 7.347656 -13.921875 L 4.453125 -13.921875 C 4.511719 -13.921875 4.574219 -13.945312 4.632812 -13.996094 C 4.691406 -14.042969 4.726562 -14.09375 4.738281 -14.144531 L 4.734375 -14.132812 L 1.273438 -0.183594 L 1.269531 -0.171875 C 1.273438 -0.183594 1.273438 -0.207031 1.273438 -0.238281 C 1.265625 -0.324219 1.234375 -0.40625 1.179688 -0.484375 C 1.121094 -0.558594 1.050781 -0.609375 0.972656 -0.636719 C 0.945312 -0.644531 0.925781 -0.652344 0.914062 -0.652344 L 2.957031 -0.652344 C 2.882812 -0.652344 2.8125 -0.621094 2.746094 -0.5625 C 2.695312 -0.515625 2.664062 -0.472656 2.652344 -0.429688 L 2.65625 -0.4375 L 3.425781 -3.566406 L 8.355469 -3.566406 L 9.148438 -0.441406 L 9.148438 -0.429688 C 9.140625 -0.472656 9.109375 -0.515625 9.058594 -0.5625 C 8.988281 -0.621094 8.921875 -0.652344 8.847656 -0.652344 Z M 6.570312 -5.183594 L 5.257812 -10.84375 L 5.890625 -10.992188 L 6.523438 -10.84375 L 5.214844 -5.183594 L 4.578125 -5.328125 L 4.578125 -5.980469 L 7.203125 -5.980469 L 7.203125 -5.328125 Z M 8.019531 -4.679688 L 3.761719 -4.679688 L 5.257812 -11.136719 L 6.523438 -11.136719 L 7.835938 -5.476562 Z M 8.019531 -4.679688 "/></g></g><g style="fill:#b21a22;fill-opacity:1;"><g transform="translate(67.304241, 70.690454)"><path style="stroke:none" d="M 9.742188 -15.222656 L 12.492188 -15.222656 C 12.808594 -15.222656 13.066406 -15.125 13.261719 -14.929688 C 13.460938 -14.730469 13.558594 -14.472656 13.558594 -14.15625 L 13.558594 -0.417969 C 13.558594 -0.0976562 13.460938 0.160156 13.261719 0.355469 C 13.066406 0.550781 12.808594 0.652344 12.492188 0.652344 L 10.554688 0.652344 C 10.234375 0.652344 9.976562 0.550781 9.78125 0.355469 C 9.585938 0.160156 9.488281 -0.0976562 9.488281 -0.417969 L 9.488281 -8.597656 L 10.136719 -8.597656 L 10.136719 -7.945312 L 9.992188 -7.945312 L 9.992188 -8.597656 L 10.625 -8.445312 L 8.664062 -0.1875 L 8.660156 -0.171875 C 8.585938 0.0820312 8.453125 0.28125 8.265625 0.425781 C 8.074219 0.574219 7.84375 0.652344 7.578125 0.652344 L 6.347656 0.652344 C 6.082031 0.652344 5.851562 0.574219 5.660156 0.425781 C 5.472656 0.28125 5.339844 0.0820312 5.265625 -0.171875 L 5.261719 -0.1875 L 3.300781 -8.445312 L 3.933594 -8.597656 L 3.933594 -7.945312 L 3.789062 -7.945312 L 3.789062 -8.597656 L 4.4375 -8.597656 L 4.4375 -0.417969 C 4.4375 -0.0976562 4.339844 0.160156 4.144531 0.355469 C 3.949219 0.550781 3.691406 0.652344 3.371094 0.652344 L 1.457031 0.652344 C 1.140625 0.652344 0.882812 0.550781 0.683594 0.355469 C 0.488281 0.160156 0.390625 -0.0976562 0.390625 -0.417969 L 0.390625 -14.15625 C 0.390625 -14.472656 0.488281 -14.730469 0.683594 -14.929688 C 0.882812 -15.125 1.140625 -15.222656 1.457031 -15.222656 L 4.203125 -15.222656 C 4.472656 -15.222656 4.699219 -15.148438 4.894531 -15 C 5.082031 -14.851562 5.210938 -14.65625 5.289062 -14.402344 L 5.292969 -14.386719 L 7.605469 -5.089844 L 6.972656 -4.933594 L 6.34375 -5.089844 L 8.65625 -14.386719 L 8.660156 -14.402344 C 8.734375 -14.65625 8.867188 -14.851562 9.054688 -15 C 9.246094 -15.148438 9.476562 -15.222656 9.742188 -15.222656 Z M 9.742188 -13.921875 C 9.773438 -13.921875 9.808594 -13.9375 9.847656 -13.96875 C 9.871094 -13.988281 9.890625 -14.007812 9.902344 -14.027344 C 9.90625 -14.03125 9.910156 -14.035156 9.910156 -14.039062 C 9.910156 -14.039062 9.910156 -14.039062 9.910156 -14.035156 L 9.285156 -14.21875 L 9.914062 -14.0625 L 7.605469 -4.777344 L 6.34375 -4.777344 L 4.03125 -14.0625 L 4.664062 -14.21875 L 4.039062 -14.035156 C 4.039062 -14.039062 4.039062 -14.039062 4.035156 -14.039062 C 4.039062 -14.035156 4.042969 -14.03125 4.042969 -14.027344 C 4.058594 -14.007812 4.074219 -13.988281 4.097656 -13.96875 C 4.140625 -13.9375 4.175781 -13.921875 4.203125 -13.921875 L 1.457031 -13.921875 C 1.453125 -13.921875 1.453125 -13.921875 1.449219 -13.921875 C 1.449219 -13.921875 1.449219 -13.921875 1.453125 -13.921875 C 1.460938 -13.921875 1.46875 -13.925781 1.480469 -13.929688 C 1.527344 -13.945312 1.566406 -13.96875 1.605469 -14.007812 C 1.644531 -14.046875 1.667969 -14.085938 1.683594 -14.132812 C 1.6875 -14.144531 1.691406 -14.152344 1.691406 -14.160156 C 1.691406 -14.164062 1.691406 -14.164062 1.691406 -14.164062 C 1.691406 -14.160156 1.691406 -14.160156 1.691406 -14.15625 L 1.691406 -0.417969 C 1.691406 -0.414062 1.691406 -0.410156 1.691406 -0.410156 C 1.691406 -0.417969 1.6875 -0.429688 1.683594 -0.441406 C 1.667969 -0.484375 1.644531 -0.527344 1.605469 -0.5625 C 1.566406 -0.601562 1.527344 -0.628906 1.480469 -0.644531 C 1.46875 -0.648438 1.460938 -0.648438 1.453125 -0.652344 C 1.449219 -0.652344 1.449219 -0.652344 1.449219 -0.652344 C 1.453125 -0.652344 1.453125 -0.652344 1.457031 -0.652344 L 3.371094 -0.652344 C 3.375 -0.652344 3.378906 -0.652344 3.378906 -0.652344 C 3.371094 -0.648438 3.359375 -0.648438 3.347656 -0.644531 C 3.304688 -0.628906 3.261719 -0.601562 3.222656 -0.5625 C 3.1875 -0.527344 3.160156 -0.484375 3.144531 -0.441406 C 3.140625 -0.429688 3.140625 -0.417969 3.136719 -0.410156 C 3.136719 -0.410156 3.136719 -0.414062 3.136719 -0.417969 L 3.136719 -9.25 L 4.449219 -9.25 L 6.523438 -0.503906 L 5.890625 -0.355469 L 6.515625 -0.539062 C 6.515625 -0.535156 6.515625 -0.53125 6.515625 -0.53125 C 6.515625 -0.535156 6.511719 -0.539062 6.511719 -0.542969 C 6.496094 -0.566406 6.480469 -0.585938 6.457031 -0.601562 C 6.414062 -0.636719 6.378906 -0.652344 6.347656 -0.652344 L 7.578125 -0.652344 C 7.546875 -0.652344 7.511719 -0.636719 7.472656 -0.601562 C 7.449219 -0.585938 7.429688 -0.566406 7.417969 -0.542969 C 7.414062 -0.539062 7.410156 -0.535156 7.410156 -0.53125 C 7.410156 -0.53125 7.410156 -0.535156 7.410156 -0.539062 L 8.035156 -0.355469 L 7.402344 -0.503906 L 9.476562 -9.25 L 10.789062 -9.25 L 10.789062 -0.417969 C 10.789062 -0.414062 10.789062 -0.410156 10.789062 -0.410156 C 10.789062 -0.417969 10.785156 -0.429688 10.78125 -0.441406 C 10.765625 -0.484375 10.738281 -0.527344 10.703125 -0.5625 C 10.664062 -0.601562 10.621094 -0.628906 10.578125 -0.644531 C 10.566406 -0.648438 10.558594 -0.648438 10.546875 -0.652344 C 10.550781 -0.652344 10.550781 -0.652344 10.554688 -0.652344 L 12.492188 -0.652344 C 12.492188 -0.652344 12.496094 -0.652344 12.496094 -0.652344 C 12.488281 -0.648438 12.476562 -0.648438 12.464844 -0.644531 C 12.421875 -0.628906 12.378906 -0.601562 12.34375 -0.5625 C 12.304688 -0.527344 12.277344 -0.484375 12.261719 -0.441406 C 12.257812 -0.429688 12.257812 -0.417969 12.257812 -0.410156 C 12.257812 -0.410156 12.257812 -0.414062 12.257812 -0.417969 L 12.257812 -14.15625 C 12.257812 -14.160156 12.257812 -14.160156 12.257812 -14.164062 C 12.257812 -14.164062 12.257812 -14.164062 12.257812 -14.160156 C 12.257812 -14.152344 12.257812 -14.144531 12.261719 -14.132812 C 12.277344 -14.085938 12.304688 -14.046875 12.34375 -14.007812 C 12.378906 -13.96875 12.421875 -13.945312 12.464844 -13.929688 C 12.476562 -13.925781 12.488281 -13.921875 12.496094 -13.921875 C 12.496094 -13.921875 12.492188 -13.921875 12.492188 -13.921875 Z M 9.742188 -13.921875 "/></g></g><g style="fill:#060705;fill-opacity:1;"><g transform="translate(13.499922, 41.66778)"><path style="stroke:none" d="M 4.03125 -14.5625 L 6.375 -14.5625 C 7.351562 -14.5625 8.09375 -14.304688 8.59375 -13.796875 C 9.101562 -13.296875 9.359375 -12.554688 9.359375 -11.578125 L 9.359375 -10.203125 C 9.359375 -9.972656 9.25 -9.859375 9.03125 -9.859375 L 6.9375 -9.859375 C 6.707031 -9.859375 6.59375 -9.972656 6.59375 -10.203125 L 6.59375 -11.078125 C 6.59375 -11.628906 6.316406 -11.90625 5.765625 -11.90625 L 4.625 -11.90625 C 4.0625 -11.90625 3.78125 -11.628906 3.78125 -11.078125 L 3.78125 -9.296875 L 8.828125 -7.6875 C 9.179688 -7.5625 9.359375 -7.300781 9.359375 -6.90625 L 9.359375 -3 C 9.359375 -2.03125 9.101562 -1.285156 8.59375 -0.765625 C 8.09375 -0.253906 7.351562 0 6.375 0 L 4.03125 0 C 3.0625 0 2.320312 -0.253906 1.8125 -0.765625 C 1.300781 -1.285156 1.046875 -2.03125 1.046875 -3 L 1.046875 -4.34375 C 1.046875 -4.570312 1.15625 -4.6875 1.375 -4.6875 L 3.46875 -4.6875 C 3.695312 -4.6875 3.8125 -4.570312 3.8125 -4.34375 L 3.8125 -3.46875 C 3.8125 -2.914062 4.085938 -2.640625 4.640625 -2.640625 L 5.765625 -2.640625 C 6.316406 -2.640625 6.59375 -2.914062 6.59375 -3.46875 L 6.59375 -5.578125 L 1.609375 -7.203125 C 1.234375 -7.328125 1.046875 -7.582031 1.046875 -7.96875 L 1.046875 -11.578125 C 1.046875 -12.554688 1.300781 -13.296875 1.8125 -13.796875 C 2.320312 -14.304688 3.0625 -14.5625 4.03125 -14.5625 Z M 4.03125 -14.5625 "/></g></g><g style="fill:#060705;fill-opacity:1;"><g transform="translate(23.905218, 41.66778)"><path style="stroke:none" d="M 1.375 0 L 3.53125 0 C 3.757812 0 3.875 -0.109375 3.875 -0.328125 L 3.875 -14.234375 C 3.875 -14.453125 3.757812 -14.5625 3.53125 -14.5625 L 1.375 -14.5625 C 1.15625 -14.5625 1.046875 -14.453125 1.046875 -14.234375 L 1.046875 -0.328125 C 1.046875 -0.109375 1.15625 0 1.375 0 Z M 1.375 0 "/></g></g><g style="fill:#060705;fill-opacity:1;"><g transform="translate(28.816515, 41.66778)"><path style="stroke:none" d="M 3.875 -2.75 L 3.875 -14.234375 C 3.875 -14.453125 3.757812 -14.5625 3.53125 -14.5625 L 1.375 -14.5625 C 1.15625 -14.5625 1.046875 -14.453125 1.046875 -14.234375 L 1.046875 -0.328125 C 1.046875 -0.109375 1.15625 0 1.375 0 L 7.984375 0 C 8.210938 0 8.328125 -0.109375 8.328125 -0.328125 L 8.328125 -2.421875 C 8.328125 -2.640625 8.210938 -2.75 7.984375 -2.75 Z M 3.875 -2.75 "/></g></g><g style="fill:#060705;fill-opacity:1;"><g transform="translate(38.181281, 41.66778)"><path style="stroke:none" d="M 9.34375 -14.234375 L 9.34375 -12.15625 C 9.34375 -11.914062 9.234375 -11.796875 9.015625 -11.796875 L 3.875 -11.796875 L 3.875 -8.59375 L 7.78125 -8.59375 C 8 -8.59375 8.109375 -8.472656 8.109375 -8.234375 L 8.109375 -6.1875 C 8.109375 -5.945312 8 -5.828125 7.78125 -5.828125 L 3.875 -5.828125 L 3.875 -2.75 L 9.015625 -2.75 C 9.234375 -2.75 9.34375 -2.640625 9.34375 -2.421875 L 9.34375 -0.328125 C 9.34375 -0.109375 9.234375 0 9.015625 0 L 1.359375 0 C 1.148438 0 1.046875 -0.109375 1.046875 -0.328125 L 1.046875 -14.234375 C 1.046875 -14.453125 1.148438 -14.5625 1.359375 -14.5625 L 9.015625 -14.5625 C 9.234375 -14.5625 9.34375 -14.453125 9.34375 -14.234375 Z M 9.34375 -14.234375 "/></g></g><g style="fill:#060705;fill-opacity:1;"><g transform="translate(48.565764, 41.66778)"><path style="stroke:none" d="M 7.640625 -14.5625 L 9.59375 -14.5625 C 9.8125 -14.5625 9.921875 -14.453125 9.921875 -14.234375 L 9.921875 -0.328125 C 9.921875 -0.109375 9.8125 0 9.59375 0 L 7.953125 0 C 7.785156 0 7.660156 -0.0859375 7.578125 -0.265625 L 3.65625 -8.21875 L 3.65625 -0.328125 C 3.65625 -0.109375 3.546875 0 3.328125 0 L 1.375 0 C 1.15625 0 1.046875 -0.109375 1.046875 -0.328125 L 1.046875 -14.234375 C 1.046875 -14.453125 1.15625 -14.5625 1.375 -14.5625 L 3.015625 -14.5625 C 3.179688 -14.5625 3.304688 -14.472656 3.390625 -14.296875 L 7.3125 -6.34375 L 7.3125 -14.234375 C 7.3125 -14.453125 7.421875 -14.5625 7.640625 -14.5625 Z M 7.640625 -14.5625 "/></g></g><g style="fill:#060705;fill-opacity:1;"><g transform="translate(59.532949, 41.66778)"><path style="stroke:none" d="M 8.609375 -14.5625 L 0.953125 -14.5625 C 0.734375 -14.5625 0.625 -14.453125 0.625 -14.234375 L 0.625 -12.15625 C 0.625 -11.9375 0.734375 -11.828125 0.953125 -11.828125 L 3.375 -11.828125 L 3.375 -0.328125 C 3.375 -0.109375 3.484375 0 3.703125 0 L 5.875 0 C 6.09375 0 6.203125 -0.109375 6.203125 -0.328125 L 6.203125 -11.828125 L 8.609375 -11.828125 C 8.835938 -11.828125 8.953125 -11.9375 8.953125 -12.15625 L 8.953125 -14.234375 C 8.953125 -14.453125 8.835938 -14.5625 8.609375 -14.5625 Z M 8.609375 -14.5625 "/></g></g><g style="fill:#060705;fill-opacity:1;"><g transform="translate(69.105823, 41.66778)"><path style="stroke:none" d="M 0 2.78125 L 0 0.875 C 0 0.59375 0.140625 0.453125 0.421875 0.453125 L 12.96875 0.453125 C 13.238281 0.453125 13.375 0.59375 13.375 0.875 L 13.375 2.78125 C 13.375 3.0625 13.238281 3.203125 12.96875 3.203125 L 0.421875 3.203125 C 0.140625 3.203125 0 3.0625 0 2.78125 Z M 0 2.78125 "/></g></g><g style="fill:#060705;fill-opacity:1;"><g transform="translate(14.736684, 70.690454)"><path style="stroke:none" d="M 4.03125 -14.5625 L 6.375 -14.5625 C 7.351562 -14.5625 8.09375 -14.304688 8.59375 -13.796875 C 9.101562 -13.296875 9.359375 -12.554688 9.359375 -11.578125 L 9.359375 -10.203125 C 9.359375 -9.972656 9.25 -9.859375 9.03125 -9.859375 L 6.9375 -9.859375 C 6.707031 -9.859375 6.59375 -9.972656 6.59375 -10.203125 L 6.59375 -11.078125 C 6.59375 -11.628906 6.316406 -11.90625 5.765625 -11.90625 L 4.625 -11.90625 C 4.0625 -11.90625 3.78125 -11.628906 3.78125 -11.078125 L 3.78125 -9.296875 L 8.828125 -7.6875 C 9.179688 -7.5625 9.359375 -7.300781 9.359375 -6.90625 L 9.359375 -3 C 9.359375 -2.03125 9.101562 -1.285156 8.59375 -0.765625 C 8.09375 -0.253906 7.351562 0 6.375 0 L 4.03125 0 C 3.0625 0 2.320312 -0.253906 1.8125 -0.765625 C 1.300781 -1.285156 1.046875 -2.03125 1.046875 -3 L 1.046875 -4.34375 C 1.046875 -4.570312 1.15625 -4.6875 1.375 -4.6875 L 3.46875 -4.6875 C 3.695312 -4.6875 3.8125 -4.570312 3.8125 -4.34375 L 3.8125 -3.46875 C 3.8125 -2.914062 4.085938 -2.640625 4.640625 -2.640625 L 5.765625 -2.640625 C 6.316406 -2.640625 6.59375 -2.914062 6.59375 -3.46875 L 6.59375 -5.578125 L 1.609375 -7.203125 C 1.234375 -7.328125 1.046875 -7.582031 1.046875 -7.96875 L 1.046875 -11.578125 C 1.046875 -12.554688 1.300781 -13.296875 1.8125 -13.796875 C 2.320312 -14.304688 3.0625 -14.5625 4.03125 -14.5625 Z M 4.03125 -14.5625 "/></g></g><g style="fill:#060705;fill-opacity:1;"><g transform="translate(25.14198, 70.690454)"><path style="stroke:none" d="M 8.609375 -14.5625 L 0.953125 -14.5625 C 0.734375 -14.5625 0.625 -14.453125 0.625 -14.234375 L 0.625 -12.15625 C 0.625 -11.9375 0.734375 -11.828125 0.953125 -11.828125 L 3.375 -11.828125 L 3.375 -0.328125 C 3.375 -0.109375 3.484375 0 3.703125 0 L 5.875 0 C 6.09375 0 6.203125 -0.109375 6.203125 -0.328125 L 6.203125 -11.828125 L 8.609375 -11.828125 C 8.835938 -11.828125 8.953125 -11.9375 8.953125 -12.15625 L 8.953125 -14.234375 C 8.953125 -14.453125 8.835938 -14.5625 8.609375 -14.5625 Z M 8.609375 -14.5625 "/></g></g><g style="fill:#060705;fill-opacity:1;"><g transform="translate(34.714854, 70.690454)"><path style="stroke:none" d="M 9.359375 -11.578125 L 9.359375 -7.390625 C 9.359375 -6.179688 8.972656 -5.332031 8.203125 -4.84375 L 9.28125 -0.375 C 9.351562 -0.125 9.253906 0 8.984375 0 L 6.953125 0 C 6.753906 0 6.632812 -0.0976562 6.59375 -0.296875 L 5.59375 -4.390625 L 3.75 -4.390625 L 3.75 -0.328125 C 3.75 -0.109375 3.632812 0 3.40625 0 L 1.375 0 C 1.15625 0 1.046875 -0.109375 1.046875 -0.328125 L 1.046875 -14.234375 C 1.046875 -14.453125 1.15625 -14.5625 1.375 -14.5625 L 6.375 -14.5625 C 7.351562 -14.5625 8.09375 -14.304688 8.59375 -13.796875 C 9.101562 -13.296875 9.359375 -12.554688 9.359375 -11.578125 Z M 3.75 -7.078125 L 5.828125 -7.078125 C 6.378906 -7.078125 6.65625 -7.351562 6.65625 -7.90625 L 6.65625 -11.046875 C 6.65625 -11.609375 6.378906 -11.890625 5.828125 -11.890625 L 3.75 -11.890625 Z M 3.75 -7.078125 "/></g></g><g style="fill:#060705;fill-opacity:1;"><g transform="translate(45.12015, 70.690454)"><path style="stroke:none" d="M 9.34375 -14.234375 L 9.34375 -12.15625 C 9.34375 -11.914062 9.234375 -11.796875 9.015625 -11.796875 L 3.875 -11.796875 L 3.875 -8.59375 L 7.78125 -8.59375 C 8 -8.59375 8.109375 -8.472656 8.109375 -8.234375 L 8.109375 -6.1875 C 8.109375 -5.945312 8 -5.828125 7.78125 -5.828125 L 3.875 -5.828125 L 3.875 -2.75 L 9.015625 -2.75 C 9.234375 -2.75 9.34375 -2.640625 9.34375 -2.421875 L 9.34375 -0.328125 C 9.34375 -0.109375 9.234375 0 9.015625 0 L 1.359375 0 C 1.148438 0 1.046875 -0.109375 1.046875 -0.328125 L 1.046875 -14.234375 C 1.046875 -14.453125 1.148438 -14.5625 1.359375 -14.5625 L 9.015625 -14.5625 C 9.234375 -14.5625 9.34375 -14.453125 9.34375 -14.234375 Z M 9.34375 -14.234375 "/></g></g><g style="fill:#060705;fill-opacity:1;"><g transform="translate(55.504633, 70.690454)"><path style="stroke:none" d="M 10.859375 0 L 8.84375 0 C 8.664062 0 8.554688 -0.0976562 8.515625 -0.296875 L 7.84375 -2.90625 L 3.9375 -2.90625 L 3.28125 -0.296875 C 3.238281 -0.0976562 3.128906 0 2.953125 0 L 0.921875 0 C 0.671875 0 0.578125 -0.117188 0.640625 -0.359375 L 4.09375 -14.28125 C 4.132812 -14.46875 4.253906 -14.5625 4.453125 -14.5625 L 7.34375 -14.5625 C 7.539062 -14.5625 7.660156 -14.46875 7.703125 -14.28125 L 11.15625 -0.359375 C 11.226562 -0.117188 11.128906 0 10.859375 0 Z M 7.203125 -5.328125 L 5.890625 -10.984375 L 4.578125 -5.328125 Z M 7.203125 -5.328125 "/></g></g><g style="fill:#060705;fill-opacity:1;"><g transform="translate(67.304241, 70.690454)"><path style="stroke:none" d="M 9.734375 -14.5625 L 12.484375 -14.5625 C 12.765625 -14.5625 12.90625 -14.425781 12.90625 -14.15625 L 12.90625 -0.421875 C 12.90625 -0.140625 12.765625 0 12.484375 0 L 10.546875 0 C 10.273438 0 10.140625 -0.140625 10.140625 -0.421875 L 10.140625 -8.59375 L 9.984375 -8.59375 L 8.03125 -0.359375 C 7.957031 -0.117188 7.804688 0 7.578125 0 L 6.34375 0 C 6.113281 0 5.960938 -0.117188 5.890625 -0.359375 L 3.9375 -8.59375 L 3.78125 -8.59375 L 3.78125 -0.421875 C 3.78125 -0.140625 3.644531 0 3.375 0 L 1.453125 0 C 1.179688 0 1.046875 -0.140625 1.046875 -0.421875 L 1.046875 -14.15625 C 1.046875 -14.425781 1.179688 -14.5625 1.453125 -14.5625 L 4.203125 -14.5625 C 4.441406 -14.5625 4.59375 -14.445312 4.65625 -14.21875 L 6.96875 -4.9375 L 9.28125 -14.21875 C 9.351562 -14.445312 9.503906 -14.5625 9.734375 -14.5625 Z M 9.734375 -14.5625 "/></g></g></g></svg>