<svg xmlns="http://www.w3.org/2000/svg" xmlns:xlink="http://www.w3.org/1999/xlink" width="500" zoomAndPan="magnify" viewBox="0 0 375 374.999991" height="500" preserveAspectRatio="xMidYMid meet" version="1.2"><defs><clipPath id="36bc65aff3"><path d="M 25 0 L 350 0 L 350 375 L 25 375 Z M 25 0 "/></clipPath><clipPath id="f37fb5cddf"><path d="M -55.878906 142.882812 L 268.328125 -46.476562 L 431 232.042969 L 106.789062 421.402344 Z M -55.878906 142.882812 "/></clipPath><clipPath id="f370caff1f"><path d="M 349.546875 92.851562 L 349.859375 279.433594 L 187.8125 374.078125 L 25.453125 282.140625 L 25.140625 95.5625 L 187.1875 0.917969 Z M 349.546875 92.851562 "/></clipPath><clipPath id="544a68489a"><path d="M 55.238281 35.632812 L 319.726562 35.632812 L 319.726562 339 L 55.238281 339 Z M 55.238281 35.632812 "/></clipPath></defs><g id="910cc069a3"><g clip-rule="nonzero" clip-path="url(#36bc65aff3)"><g clip-rule="nonzero" clip-path="url(#f37fb5cddf)"><g clip-rule="nonzero" clip-path="url(#f370caff1f)"><path style=" stroke:none;fill-rule:nonzero;fill:#65b30e;fill-opacity:1;" d="M -55.878906 142.882812 L 268.332031 -46.476562 L 431 232.042969 L 106.789062 421.402344 Z M -55.878906 142.882812 "/></g></g></g><path style=" stroke:none;fill-rule:nonzero;fill:#87ff00;fill-opacity:1;" d="M 134.582031 135.703125 L 134.414062 135.535156 L 97.035156 172.914062 L 187.792969 263.503906 L 225.175781 226.296875 L 278.546875 172.914062 L 241.167969 135.535156 L 241.167969 135.363281 L 134.417969 135.363281 Z M 134.582031 135.703125 "/><g clip-rule="nonzero" clip-path="url(#544a68489a)"><path style=" stroke:none;fill-rule:nonzero;fill:#87ff00;fill-opacity:1;" d="M 187.453125 35.851562 L 55.269531 111.625 L 55.273438 263.175781 L 187.457031 338.949219 L 319.640625 263.175781 L 319.640625 111.625 L 187.457031 35.855469 Z M 294.375 248.683594 L 187.453125 310.308594 L 80.527344 248.683594 L 80.53125 125.765625 L 187.457031 64.136719 L 294.378906 125.765625 L 294.378906 248.683594 Z M 294.375 248.683594 "/></g><g style="fill:#b21a22;fill-opacity:1;"><g transform="translate(52.734071, 162.764747)"><path style="stroke:none" d="M 15.777344 -59.464844 L 24.882812 -59.464844 C 29.433594 -59.464844 32.945312 -58.226562 35.421875 -55.75 C 37.898438 -53.277344 39.132812 -49.761719 39.132812 -45.210938 L 39.132812 -39.84375 C 39.132812 -38.710938 38.777344 -37.785156 38.0625 -37.074219 C 37.351562 -36.359375 36.425781 -36.003906 35.292969 -36.003906 L 27.078125 -36.003906 C 25.941406 -36.003906 25.019531 -36.359375 24.304688 -37.074219 C 23.59375 -37.785156 23.234375 -38.710938 23.234375 -39.84375 L 23.234375 -43.261719 C 23.234375 -43.527344 23.210938 -43.734375 23.164062 -43.878906 C 23.15625 -43.90625 23.148438 -43.925781 23.140625 -43.933594 C 23.148438 -43.925781 23.15625 -43.914062 23.167969 -43.902344 C 23.179688 -43.890625 23.191406 -43.882812 23.199219 -43.875 C 23.191406 -43.882812 23.171875 -43.890625 23.144531 -43.898438 C 23 -43.949219 22.792969 -43.972656 22.523438 -43.972656 L 18.050781 -43.972656 C 17.785156 -43.972656 17.578125 -43.949219 17.433594 -43.898438 C 17.40625 -43.890625 17.386719 -43.882812 17.378906 -43.875 C 17.386719 -43.882812 17.398438 -43.890625 17.410156 -43.902344 C 17.421875 -43.914062 17.429688 -43.925781 17.4375 -43.933594 C 17.429688 -43.925781 17.421875 -43.90625 17.414062 -43.878906 C 17.367188 -43.734375 17.339844 -43.527344 17.339844 -43.261719 L 17.339844 -36.347656 L 14.800781 -36.347656 L 15.578125 -38.765625 L 35.257812 -32.425781 C 36.515625 -31.992188 37.476562 -31.296875 38.144531 -30.347656 C 38.804688 -29.410156 39.132812 -28.292969 39.132812 -26.996094 L 39.132812 -11.710938 C 39.132812 -7.21875 37.902344 -3.726562 35.433594 -1.222656 C 32.957031 1.285156 29.441406 2.542969 24.882812 2.542969 L 15.777344 2.542969 C 11.277344 2.542969 7.78125 1.289062 5.277344 -1.210938 C 2.777344 -3.714844 1.523438 -7.214844 1.523438 -11.710938 L 1.523438 -16.996094 C 1.523438 -18.128906 1.882812 -19.054688 2.59375 -19.769531 C 3.308594 -20.480469 4.230469 -20.835938 5.367188 -20.835938 L 13.578125 -20.835938 C 14.714844 -20.835938 15.640625 -20.480469 16.351562 -19.769531 C 17.066406 -19.054688 17.421875 -18.128906 17.421875 -16.996094 L 17.421875 -13.578125 C 17.421875 -13.3125 17.445312 -13.105469 17.496094 -12.960938 C 17.503906 -12.933594 17.511719 -12.914062 17.519531 -12.90625 C 17.511719 -12.914062 17.503906 -12.925781 17.492188 -12.9375 C 17.480469 -12.949219 17.46875 -12.957031 17.460938 -12.964844 C 17.46875 -12.957031 17.488281 -12.949219 17.515625 -12.941406 C 17.660156 -12.894531 17.867188 -12.867188 18.132812 -12.867188 L 22.523438 -12.867188 C 22.792969 -12.867188 23 -12.894531 23.144531 -12.941406 C 23.171875 -12.949219 23.191406 -12.957031 23.199219 -12.964844 C 23.191406 -12.957031 23.179688 -12.949219 23.167969 -12.9375 C 23.15625 -12.925781 23.148438 -12.914062 23.140625 -12.90625 C 23.148438 -12.914062 23.15625 -12.933594 23.164062 -12.960938 C 23.210938 -13.105469 23.234375 -13.3125 23.234375 -13.578125 L 23.234375 -21.792969 L 25.777344 -21.792969 L 24.992188 -19.375 L 5.476562 -25.71875 C 4.21875 -26.136719 3.246094 -26.816406 2.5625 -27.753906 C 1.871094 -28.703125 1.523438 -29.832031 1.523438 -31.144531 L 1.523438 -45.210938 C 1.523438 -49.769531 2.78125 -53.285156 5.289062 -55.761719 C 7.789062 -58.230469 11.285156 -59.464844 15.777344 -59.464844 Z M 15.777344 -54.378906 C 12.675781 -54.378906 10.371094 -53.636719 8.859375 -52.144531 C 7.359375 -50.664062 6.605469 -48.351562 6.605469 -45.210938 L 6.605469 -31.144531 C 6.605469 -30.9375 6.628906 -30.808594 6.667969 -30.75 C 6.714844 -30.6875 6.839844 -30.621094 7.046875 -30.550781 L 28.320312 -23.640625 L 28.320312 -13.578125 C 28.320312 -11.792969 27.800781 -10.382812 26.761719 -9.34375 C 25.722656 -8.304688 24.3125 -7.785156 22.523438 -7.785156 L 18.132812 -7.785156 C 16.347656 -7.785156 14.933594 -8.304688 13.898438 -9.34375 C 12.859375 -10.382812 12.339844 -11.792969 12.339844 -13.578125 L 12.339844 -16.996094 C 12.339844 -16.9375 12.355469 -16.859375 12.390625 -16.761719 C 12.460938 -16.542969 12.585938 -16.347656 12.757812 -16.175781 C 12.933594 -16 13.128906 -15.875 13.34375 -15.804688 C 13.445312 -15.769531 13.523438 -15.753906 13.578125 -15.753906 L 5.367188 -15.753906 C 5.425781 -15.753906 5.503906 -15.769531 5.601562 -15.804688 C 5.816406 -15.875 6.015625 -16 6.1875 -16.175781 C 6.363281 -16.347656 6.484375 -16.542969 6.558594 -16.761719 C 6.589844 -16.859375 6.605469 -16.9375 6.605469 -16.996094 L 6.605469 -11.710938 C 6.605469 -8.617188 7.363281 -6.316406 8.871094 -4.804688 C 10.382812 -3.296875 12.683594 -2.542969 15.777344 -2.542969 L 24.882812 -2.542969 C 28.023438 -2.542969 30.335938 -3.292969 31.816406 -4.792969 C 33.304688 -6.304688 34.050781 -8.609375 34.050781 -11.710938 L 34.050781 -26.996094 C 34.050781 -27.21875 34.027344 -27.363281 33.984375 -27.425781 C 33.945312 -27.480469 33.851562 -27.535156 33.699219 -27.585938 L 12.257812 -34.496094 L 12.257812 -43.261719 C 12.257812 -45.046875 12.777344 -46.457031 13.816406 -47.496094 C 14.855469 -48.535156 16.265625 -49.054688 18.050781 -49.054688 L 22.523438 -49.054688 C 24.3125 -49.054688 25.722656 -48.535156 26.761719 -47.496094 C 27.800781 -46.457031 28.320312 -45.046875 28.320312 -43.261719 L 28.320312 -39.84375 C 28.320312 -39.902344 28.300781 -39.980469 28.269531 -40.078125 C 28.199219 -40.296875 28.074219 -40.492188 27.898438 -40.667969 C 27.726562 -40.839844 27.53125 -40.964844 27.3125 -41.035156 C 27.214844 -41.070312 27.136719 -41.085938 27.078125 -41.085938 L 35.292969 -41.085938 C 35.234375 -41.085938 35.15625 -41.070312 35.058594 -41.035156 C 34.839844 -40.964844 34.644531 -40.839844 34.46875 -40.667969 C 34.296875 -40.492188 34.171875 -40.296875 34.101562 -40.078125 C 34.066406 -39.980469 34.050781 -39.902344 34.050781 -39.84375 L 34.050781 -45.210938 C 34.050781 -48.359375 33.308594 -50.675781 31.828125 -52.15625 C 30.34375 -53.640625 28.03125 -54.378906 24.882812 -54.378906 Z M 15.777344 -54.378906 "/></g></g><g style="fill:#b21a22;fill-opacity:1;"><g transform="translate(93.379758, 162.764747)"><path style="stroke:none" d="M 5.367188 -2.542969 L 13.824219 -2.542969 C 13.765625 -2.542969 13.6875 -2.523438 13.589844 -2.492188 C 13.371094 -2.421875 13.175781 -2.296875 13.003906 -2.121094 C 12.828125 -1.949219 12.703125 -1.753906 12.632812 -1.535156 C 12.601562 -1.4375 12.582031 -1.359375 12.582031 -1.300781 L 12.582031 -55.621094 C 12.582031 -55.5625 12.601562 -55.484375 12.632812 -55.386719 C 12.703125 -55.167969 12.828125 -54.972656 13.003906 -54.800781 C 13.175781 -54.625 13.371094 -54.503906 13.589844 -54.429688 C 13.6875 -54.398438 13.765625 -54.378906 13.824219 -54.378906 L 5.367188 -54.378906 C 5.425781 -54.378906 5.503906 -54.398438 5.601562 -54.429688 C 5.816406 -54.503906 6.015625 -54.625 6.1875 -54.800781 C 6.363281 -54.972656 6.484375 -55.167969 6.558594 -55.386719 C 6.589844 -55.484375 6.605469 -55.5625 6.605469 -55.621094 L 6.605469 -1.300781 C 6.605469 -1.359375 6.589844 -1.4375 6.558594 -1.535156 C 6.484375 -1.753906 6.363281 -1.949219 6.1875 -2.121094 C 6.015625 -2.296875 5.816406 -2.421875 5.601562 -2.492188 C 5.503906 -2.523438 5.425781 -2.542969 5.367188 -2.542969 Z M 5.367188 2.542969 C 4.230469 2.542969 3.308594 2.183594 2.59375 1.472656 C 1.882812 0.757812 1.523438 -0.164062 1.523438 -1.300781 L 1.523438 -55.621094 C 1.523438 -56.757812 1.882812 -57.679688 2.59375 -58.394531 C 3.308594 -59.105469 4.230469 -59.464844 5.367188 -59.464844 L 13.824219 -59.464844 C 14.960938 -59.464844 15.882812 -59.105469 16.597656 -58.394531 C 17.308594 -57.679688 17.667969 -56.757812 17.667969 -55.621094 L 17.667969 -1.300781 C 17.667969 -0.164062 17.308594 0.757812 16.597656 1.472656 C 15.882812 2.183594 14.960938 2.542969 13.824219 2.542969 Z M 5.367188 2.542969 "/></g></g><g style="fill:#b21a22;fill-opacity:1;"><g transform="translate(112.564509, 162.764747)"><path style="stroke:none" d="M 12.582031 -10.734375 L 12.582031 -55.621094 C 12.582031 -55.5625 12.601562 -55.484375 12.632812 -55.386719 C 12.703125 -55.167969 12.828125 -54.972656 13.003906 -54.800781 C 13.175781 -54.625 13.371094 -54.503906 13.589844 -54.429688 C 13.6875 -54.398438 13.765625 -54.378906 13.824219 -54.378906 L 5.367188 -54.378906 C 5.425781 -54.378906 5.503906 -54.398438 5.601562 -54.429688 C 5.816406 -54.503906 6.015625 -54.625 6.1875 -54.800781 C 6.363281 -54.972656 6.484375 -55.167969 6.558594 -55.386719 C 6.589844 -55.484375 6.605469 -55.5625 6.605469 -55.621094 L 6.605469 -1.300781 C 6.605469 -1.359375 6.589844 -1.4375 6.558594 -1.535156 C 6.484375 -1.753906 6.363281 -1.949219 6.1875 -2.121094 C 6.015625 -2.296875 5.816406 -2.421875 5.601562 -2.492188 C 5.503906 -2.523438 5.425781 -2.542969 5.367188 -2.542969 L 31.226562 -2.542969 C 31.167969 -2.542969 31.089844 -2.523438 30.992188 -2.492188 C 30.773438 -2.421875 30.578125 -2.296875 30.40625 -2.121094 C 30.230469 -1.949219 30.105469 -1.753906 30.035156 -1.535156 C 30 -1.4375 29.984375 -1.359375 29.984375 -1.300781 L 29.984375 -9.433594 C 29.984375 -9.375 30 -9.296875 30.035156 -9.199219 C 30.105469 -8.980469 30.230469 -8.785156 30.40625 -8.613281 C 30.578125 -8.4375 30.773438 -8.3125 30.992188 -8.242188 C 31.089844 -8.207031 31.167969 -8.191406 31.226562 -8.191406 L 12.582031 -8.191406 Z M 17.667969 -10.734375 L 15.125 -10.734375 L 15.125 -13.273438 L 31.226562 -13.273438 C 32.359375 -13.273438 33.285156 -12.917969 34 -12.207031 C 34.710938 -11.492188 35.066406 -10.566406 35.066406 -9.433594 L 35.066406 -1.300781 C 35.066406 -0.164062 34.710938 0.757812 34 1.472656 C 33.285156 2.183594 32.359375 2.542969 31.226562 2.542969 L 5.367188 2.542969 C 4.230469 2.542969 3.308594 2.183594 2.59375 1.472656 C 1.882812 0.757812 1.523438 -0.164062 1.523438 -1.300781 L 1.523438 -55.621094 C 1.523438 -56.757812 1.882812 -57.679688 2.59375 -58.394531 C 3.308594 -59.105469 4.230469 -59.464844 5.367188 -59.464844 L 13.824219 -59.464844 C 14.960938 -59.464844 15.882812 -59.105469 16.597656 -58.394531 C 17.308594 -57.679688 17.667969 -56.757812 17.667969 -55.621094 Z M 17.667969 -10.734375 "/></g></g><g style="fill:#b21a22;fill-opacity:1;"><g transform="translate(149.145624, 162.764747)"><path style="stroke:none" d="M 39.050781 -55.621094 L 39.050781 -47.488281 C 39.050781 -46.355469 38.714844 -45.429688 38.035156 -44.710938 C 37.316406 -43.945312 36.375 -43.566406 35.210938 -43.566406 L 15.125 -43.566406 L 15.125 -46.105469 L 17.667969 -46.105469 L 17.667969 -33.582031 L 15.125 -33.582031 L 15.125 -36.125 L 30.414062 -36.125 C 31.578125 -36.125 32.519531 -35.742188 33.238281 -34.980469 C 33.917969 -34.261719 34.253906 -33.335938 34.253906 -32.203125 L 34.253906 -24.152344 C 34.253906 -23.019531 33.917969 -22.09375 33.238281 -21.371094 C 32.519531 -20.609375 31.578125 -20.226562 30.414062 -20.226562 L 15.125 -20.226562 L 15.125 -22.769531 L 17.667969 -22.769531 L 17.667969 -10.734375 L 15.125 -10.734375 L 15.125 -13.273438 L 35.210938 -13.273438 C 36.347656 -13.273438 37.269531 -12.917969 37.984375 -12.207031 C 38.695312 -11.492188 39.050781 -10.566406 39.050781 -9.433594 L 39.050781 -1.300781 C 39.050781 -0.164062 38.695312 0.757812 37.984375 1.472656 C 37.269531 2.183594 36.347656 2.542969 35.210938 2.542969 L 5.285156 2.542969 C 4.144531 2.542969 3.222656 2.164062 2.515625 1.414062 C 1.855469 0.707031 1.523438 -0.199219 1.523438 -1.300781 L 1.523438 -55.621094 C 1.523438 -56.722656 1.855469 -57.628906 2.515625 -58.335938 C 3.222656 -59.085938 4.144531 -59.464844 5.285156 -59.464844 L 35.210938 -59.464844 C 36.347656 -59.464844 37.269531 -59.105469 37.984375 -58.394531 C 38.695312 -57.679688 39.050781 -56.757812 39.050781 -55.621094 Z M 33.96875 -55.621094 C 33.96875 -55.5625 33.988281 -55.484375 34.019531 -55.386719 C 34.089844 -55.167969 34.214844 -54.972656 34.390625 -54.800781 C 34.5625 -54.625 34.757812 -54.503906 34.976562 -54.429688 C 35.074219 -54.398438 35.152344 -54.378906 35.210938 -54.378906 L 5.285156 -54.378906 C 5.613281 -54.378906 5.925781 -54.539062 6.226562 -54.859375 C 6.386719 -55.03125 6.503906 -55.222656 6.566406 -55.433594 C 6.59375 -55.515625 6.605469 -55.578125 6.605469 -55.621094 L 6.605469 -1.300781 C 6.605469 -1.34375 6.59375 -1.40625 6.566406 -1.488281 C 6.503906 -1.699219 6.386719 -1.890625 6.226562 -2.0625 C 5.925781 -2.382812 5.613281 -2.542969 5.285156 -2.542969 L 35.210938 -2.542969 C 35.152344 -2.542969 35.074219 -2.523438 34.976562 -2.492188 C 34.757812 -2.421875 34.5625 -2.296875 34.390625 -2.121094 C 34.214844 -1.949219 34.089844 -1.753906 34.019531 -1.535156 C 33.988281 -1.4375 33.96875 -1.359375 33.96875 -1.300781 L 33.96875 -9.433594 C 33.96875 -9.375 33.988281 -9.296875 34.019531 -9.199219 C 34.089844 -8.980469 34.214844 -8.785156 34.390625 -8.613281 C 34.5625 -8.4375 34.757812 -8.3125 34.976562 -8.242188 C 35.074219 -8.207031 35.152344 -8.191406 35.210938 -8.191406 L 12.582031 -8.191406 L 12.582031 -25.308594 L 30.414062 -25.308594 C 30.339844 -25.308594 30.246094 -25.289062 30.132812 -25.25 C 29.910156 -25.171875 29.710938 -25.039062 29.539062 -24.855469 C 29.378906 -24.6875 29.269531 -24.503906 29.207031 -24.308594 C 29.183594 -24.230469 29.171875 -24.179688 29.171875 -24.152344 L 29.171875 -32.203125 C 29.171875 -32.171875 29.183594 -32.121094 29.207031 -32.046875 C 29.269531 -31.847656 29.378906 -31.664062 29.539062 -31.496094 C 29.710938 -31.3125 29.910156 -31.179688 30.132812 -31.101562 C 30.246094 -31.0625 30.339844 -31.042969 30.414062 -31.042969 L 12.582031 -31.042969 L 12.582031 -48.648438 L 35.210938 -48.648438 C 35.136719 -48.648438 35.042969 -48.628906 34.929688 -48.589844 C 34.707031 -48.507812 34.507812 -48.378906 34.335938 -48.195312 C 34.175781 -48.027344 34.066406 -47.84375 34.003906 -47.644531 C 33.980469 -47.570312 33.96875 -47.519531 33.96875 -47.488281 Z M 33.96875 -55.621094 "/></g></g><g style="fill:#b21a22;fill-opacity:1;"><g transform="translate(189.710006, 162.764747)"><path style="stroke:none" d="M 29.84375 -59.464844 L 37.488281 -59.464844 C 38.621094 -59.464844 39.546875 -59.105469 40.261719 -58.394531 C 40.972656 -57.679688 41.328125 -56.757812 41.328125 -55.621094 L 41.328125 -1.300781 C 41.328125 -0.164062 40.972656 0.757812 40.261719 1.472656 C 39.546875 2.183594 38.621094 2.542969 37.488281 2.542969 L 31.0625 2.542969 C 30.191406 2.542969 29.410156 2.292969 28.722656 1.796875 C 28.117188 1.359375 27.640625 0.761719 27.292969 0.0078125 L 29.597656 -1.058594 L 27.320312 0.0664062 L 12.03125 -31 L 14.3125 -32.121094 L 16.851562 -32.121094 L 16.851562 -1.300781 C 16.851562 -0.164062 16.496094 0.757812 15.785156 1.472656 C 15.070312 2.183594 14.144531 2.542969 13.011719 2.542969 L 5.367188 2.542969 C 4.230469 2.542969 3.308594 2.183594 2.59375 1.472656 C 1.882812 0.757812 1.523438 -0.164062 1.523438 -1.300781 L 1.523438 -55.621094 C 1.523438 -56.757812 1.882812 -57.679688 2.59375 -58.394531 C 3.308594 -59.105469 4.230469 -59.464844 5.367188 -59.464844 L 11.789062 -59.464844 C 12.664062 -59.464844 13.445312 -59.214844 14.132812 -58.71875 C 14.738281 -58.28125 15.214844 -57.6875 15.5625 -56.929688 L 13.253906 -55.863281 L 15.535156 -56.988281 L 30.824219 -25.925781 L 28.542969 -24.800781 L 26 -24.800781 L 26 -55.621094 C 26 -56.757812 26.359375 -57.679688 27.070312 -58.394531 C 27.785156 -59.105469 28.707031 -59.464844 29.84375 -59.464844 Z M 29.84375 -54.378906 C 29.902344 -54.378906 29.980469 -54.398438 30.078125 -54.429688 C 30.292969 -54.503906 30.488281 -54.625 30.664062 -54.800781 C 30.839844 -54.972656 30.960938 -55.167969 31.035156 -55.386719 C 31.066406 -55.484375 31.082031 -55.5625 31.082031 -55.621094 L 31.082031 -24.800781 L 26.261719 -23.679688 L 10.960938 -54.769531 L 10.945312 -54.800781 C 10.972656 -54.75 11.039062 -54.679688 11.15625 -54.597656 C 11.355469 -54.453125 11.570312 -54.378906 11.789062 -54.378906 L 5.367188 -54.378906 C 5.425781 -54.378906 5.503906 -54.398438 5.601562 -54.429688 C 5.816406 -54.503906 6.015625 -54.625 6.1875 -54.800781 C 6.363281 -54.972656 6.484375 -55.167969 6.558594 -55.386719 C 6.589844 -55.484375 6.605469 -55.5625 6.605469 -55.621094 L 6.605469 -1.300781 C 6.605469 -1.359375 6.589844 -1.4375 6.558594 -1.535156 C 6.484375 -1.753906 6.363281 -1.949219 6.1875 -2.121094 C 6.015625 -2.296875 5.816406 -2.421875 5.601562 -2.492188 C 5.503906 -2.523438 5.425781 -2.542969 5.367188 -2.542969 L 13.011719 -2.542969 C 12.953125 -2.542969 12.875 -2.523438 12.777344 -2.492188 C 12.558594 -2.421875 12.363281 -2.296875 12.191406 -2.121094 C 12.015625 -1.949219 11.890625 -1.753906 11.820312 -1.535156 C 11.785156 -1.4375 11.769531 -1.359375 11.769531 -1.300781 L 11.769531 -32.121094 L 16.59375 -33.242188 L 31.894531 -2.152344 L 31.90625 -2.121094 C 31.882812 -2.171875 31.8125 -2.242188 31.695312 -2.324219 C 31.496094 -2.46875 31.285156 -2.542969 31.0625 -2.542969 L 37.488281 -2.542969 C 37.429688 -2.542969 37.351562 -2.523438 37.253906 -2.492188 C 37.035156 -2.421875 36.839844 -2.296875 36.664062 -2.121094 C 36.492188 -1.949219 36.367188 -1.753906 36.296875 -1.535156 C 36.261719 -1.4375 36.246094 -1.359375 36.246094 -1.300781 L 36.246094 -55.621094 C 36.246094 -55.5625 36.261719 -55.484375 36.296875 -55.386719 C 36.367188 -55.167969 36.492188 -54.972656 36.664062 -54.800781 C 36.839844 -54.625 37.035156 -54.503906 37.253906 -54.429688 C 37.351562 -54.398438 37.429688 -54.378906 37.488281 -54.378906 Z M 29.84375 -54.378906 "/></g></g><g style="fill:#b21a22;fill-opacity:1;"><g transform="translate(232.550573, 162.764747)"><path style="stroke:none" d="M 33.664062 -54.378906 L 3.742188 -54.378906 C 3.796875 -54.378906 3.875 -54.398438 3.976562 -54.429688 C 4.191406 -54.503906 4.386719 -54.625 4.5625 -54.800781 C 4.734375 -54.972656 4.859375 -55.167969 4.933594 -55.386719 C 4.964844 -55.484375 4.980469 -55.5625 4.980469 -55.621094 L 4.980469 -47.488281 C 4.980469 -47.546875 4.964844 -47.625 4.933594 -47.722656 C 4.859375 -47.941406 4.734375 -48.136719 4.5625 -48.308594 C 4.386719 -48.484375 4.191406 -48.609375 3.976562 -48.679688 C 3.875 -48.714844 3.796875 -48.730469 3.742188 -48.730469 L 15.714844 -48.730469 L 15.714844 -1.300781 C 15.714844 -1.359375 15.699219 -1.4375 15.664062 -1.535156 C 15.59375 -1.753906 15.46875 -1.949219 15.296875 -2.121094 C 15.121094 -2.296875 14.925781 -2.421875 14.707031 -2.492188 C 14.609375 -2.523438 14.53125 -2.542969 14.472656 -2.542969 L 22.929688 -2.542969 C 22.875 -2.542969 22.796875 -2.523438 22.695312 -2.492188 C 22.480469 -2.421875 22.285156 -2.296875 22.109375 -2.121094 C 21.9375 -1.949219 21.8125 -1.753906 21.742188 -1.535156 C 21.707031 -1.4375 21.691406 -1.359375 21.691406 -1.300781 L 21.691406 -48.730469 L 33.664062 -48.730469 C 33.605469 -48.730469 33.527344 -48.714844 33.429688 -48.679688 C 33.214844 -48.609375 33.019531 -48.484375 32.84375 -48.308594 C 32.667969 -48.136719 32.546875 -47.941406 32.472656 -47.722656 C 32.441406 -47.625 32.425781 -47.546875 32.425781 -47.488281 L 32.425781 -55.621094 C 32.425781 -55.5625 32.441406 -55.484375 32.472656 -55.386719 C 32.546875 -55.167969 32.667969 -54.972656 32.84375 -54.800781 C 33.019531 -54.625 33.214844 -54.503906 33.429688 -54.429688 C 33.527344 -54.398438 33.605469 -54.378906 33.664062 -54.378906 Z M 33.664062 -59.464844 C 34.800781 -59.464844 35.726562 -59.105469 36.4375 -58.394531 C 37.152344 -57.679688 37.507812 -56.757812 37.507812 -55.621094 L 37.507812 -47.488281 C 37.507812 -46.355469 37.152344 -45.429688 36.4375 -44.714844 C 35.726562 -44.003906 34.800781 -43.648438 33.664062 -43.648438 L 24.234375 -43.648438 L 24.234375 -46.1875 L 26.773438 -46.1875 L 26.773438 -1.300781 C 26.773438 -0.164062 26.417969 0.757812 25.703125 1.472656 C 24.992188 2.183594 24.066406 2.542969 22.929688 2.542969 L 14.472656 2.542969 C 13.339844 2.542969 12.414062 2.183594 11.703125 1.472656 C 10.988281 0.757812 10.632812 -0.164062 10.632812 -1.300781 L 10.632812 -46.1875 L 13.171875 -46.1875 L 13.171875 -43.648438 L 3.742188 -43.648438 C 2.605469 -43.648438 1.679688 -44.003906 0.96875 -44.714844 C 0.253906 -45.429688 -0.101562 -46.355469 -0.101562 -47.488281 L -0.101562 -55.621094 C -0.101562 -56.757812 0.253906 -57.679688 0.96875 -58.394531 C 1.679688 -59.105469 2.605469 -59.464844 3.742188 -59.464844 Z M 33.664062 -59.464844 "/></g></g><g style="fill:#b21a22;fill-opacity:1;"><g transform="translate(269.94461, 162.764747)"><path style="stroke:none" d="M -2.542969 10.898438 L -2.542969 3.414062 C -2.542969 2.171875 -2.15625 1.164062 -1.390625 0.398438 C -0.625 -0.367188 0.382812 -0.753906 1.625 -0.753906 L 50.660156 -0.753906 C 51.90625 -0.753906 52.910156 -0.367188 53.675781 0.398438 C 54.445312 1.164062 54.828125 2.171875 54.828125 3.414062 L 54.828125 10.898438 C 54.828125 12.140625 54.445312 13.144531 53.675781 13.914062 C 52.910156 14.679688 51.90625 15.0625 50.660156 15.0625 L 1.625 15.0625 C 0.382812 15.0625 -0.625 14.679688 -1.390625 13.914062 C -2.15625 13.144531 -2.542969 12.140625 -2.542969 10.898438 Z M 2.542969 10.898438 C 2.542969 10.90625 2.542969 10.917969 2.542969 10.925781 C 2.542969 10.925781 2.542969 10.921875 2.542969 10.917969 C 2.535156 10.886719 2.527344 10.847656 2.511719 10.804688 C 2.453125 10.628906 2.351562 10.464844 2.203125 10.320312 C 2.054688 10.171875 1.894531 10.070312 1.71875 10.011719 C 1.675781 9.996094 1.636719 9.984375 1.605469 9.980469 C 1.601562 9.980469 1.597656 9.980469 1.597656 9.980469 C 1.605469 9.980469 1.613281 9.980469 1.625 9.980469 L 50.660156 9.980469 C 50.671875 9.980469 50.679688 9.980469 50.6875 9.980469 C 50.6875 9.980469 50.6875 9.980469 50.683594 9.980469 C 50.648438 9.984375 50.613281 9.996094 50.570312 10.011719 C 50.390625 10.070312 50.230469 10.171875 50.082031 10.320312 C 49.9375 10.464844 49.832031 10.628906 49.773438 10.804688 C 49.761719 10.847656 49.75 10.886719 49.746094 10.917969 C 49.746094 10.921875 49.746094 10.925781 49.746094 10.925781 C 49.746094 10.917969 49.746094 10.90625 49.746094 10.898438 L 49.746094 3.414062 C 49.746094 3.402344 49.746094 3.394531 49.746094 3.386719 C 49.746094 3.386719 49.746094 3.390625 49.746094 3.394531 C 49.75 3.425781 49.761719 3.464844 49.773438 3.507812 C 49.832031 3.683594 49.9375 3.84375 50.082031 3.992188 C 50.230469 4.140625 50.390625 4.242188 50.570312 4.300781 C 50.613281 4.316406 50.648438 4.324219 50.683594 4.332031 C 50.6875 4.332031 50.6875 4.332031 50.6875 4.332031 C 50.679688 4.332031 50.671875 4.332031 50.660156 4.332031 L 1.625 4.332031 C 1.613281 4.332031 1.605469 4.332031 1.597656 4.332031 C 1.597656 4.332031 1.601562 4.332031 1.605469 4.332031 C 1.636719 4.324219 1.675781 4.316406 1.71875 4.300781 C 1.894531 4.242188 2.054688 4.140625 2.203125 3.992188 C 2.351562 3.84375 2.453125 3.683594 2.511719 3.507812 C 2.527344 3.464844 2.535156 3.425781 2.542969 3.394531 C 2.542969 3.390625 2.542969 3.386719 2.542969 3.386719 C 2.542969 3.394531 2.542969 3.402344 2.542969 3.414062 Z M 2.542969 10.898438 "/></g></g><g style="fill:#b21a22;fill-opacity:1;"><g transform="translate(57.565171, 276.134563)"><path style="stroke:none" d="M 15.777344 -59.464844 L 24.882812 -59.464844 C 29.433594 -59.464844 32.945312 -58.226562 35.421875 -55.75 C 37.898438 -53.277344 39.132812 -49.761719 39.132812 -45.210938 L 39.132812 -39.84375 C 39.132812 -38.710938 38.777344 -37.785156 38.0625 -37.074219 C 37.351562 -36.359375 36.425781 -36.003906 35.292969 -36.003906 L 27.078125 -36.003906 C 25.941406 -36.003906 25.019531 -36.359375 24.304688 -37.074219 C 23.59375 -37.785156 23.234375 -38.710938 23.234375 -39.84375 L 23.234375 -43.261719 C 23.234375 -43.527344 23.210938 -43.734375 23.164062 -43.878906 C 23.15625 -43.90625 23.148438 -43.925781 23.140625 -43.933594 C 23.148438 -43.925781 23.15625 -43.914062 23.167969 -43.902344 C 23.179688 -43.890625 23.191406 -43.882812 23.199219 -43.875 C 23.191406 -43.882812 23.171875 -43.890625 23.144531 -43.898438 C 23 -43.949219 22.792969 -43.972656 22.523438 -43.972656 L 18.050781 -43.972656 C 17.785156 -43.972656 17.578125 -43.949219 17.433594 -43.898438 C 17.40625 -43.890625 17.386719 -43.882812 17.378906 -43.875 C 17.386719 -43.882812 17.398438 -43.890625 17.410156 -43.902344 C 17.421875 -43.914062 17.429688 -43.925781 17.4375 -43.933594 C 17.429688 -43.925781 17.421875 -43.90625 17.414062 -43.878906 C 17.367188 -43.734375 17.339844 -43.527344 17.339844 -43.261719 L 17.339844 -36.347656 L 14.800781 -36.347656 L 15.578125 -38.765625 L 35.257812 -32.425781 C 36.515625 -31.992188 37.476562 -31.296875 38.144531 -30.347656 C 38.804688 -29.410156 39.132812 -28.292969 39.132812 -26.996094 L 39.132812 -11.710938 C 39.132812 -7.21875 37.902344 -3.726562 35.433594 -1.222656 C 32.957031 1.285156 29.441406 2.542969 24.882812 2.542969 L 15.777344 2.542969 C 11.277344 2.542969 7.78125 1.289062 5.277344 -1.210938 C 2.777344 -3.714844 1.523438 -7.214844 1.523438 -11.710938 L 1.523438 -16.996094 C 1.523438 -18.128906 1.882812 -19.054688 2.59375 -19.769531 C 3.308594 -20.480469 4.230469 -20.835938 5.367188 -20.835938 L 13.578125 -20.835938 C 14.714844 -20.835938 15.640625 -20.480469 16.351562 -19.769531 C 17.066406 -19.054688 17.421875 -18.128906 17.421875 -16.996094 L 17.421875 -13.578125 C 17.421875 -13.3125 17.445312 -13.105469 17.496094 -12.960938 C 17.503906 -12.933594 17.511719 -12.914062 17.519531 -12.90625 C 17.511719 -12.914062 17.503906 -12.925781 17.492188 -12.9375 C 17.480469 -12.949219 17.46875 -12.957031 17.460938 -12.964844 C 17.46875 -12.957031 17.488281 -12.949219 17.515625 -12.941406 C 17.660156 -12.894531 17.867188 -12.867188 18.132812 -12.867188 L 22.523438 -12.867188 C 22.792969 -12.867188 23 -12.894531 23.144531 -12.941406 C 23.171875 -12.949219 23.191406 -12.957031 23.199219 -12.964844 C 23.191406 -12.957031 23.179688 -12.949219 23.167969 -12.9375 C 23.15625 -12.925781 23.148438 -12.914062 23.140625 -12.90625 C 23.148438 -12.914062 23.15625 -12.933594 23.164062 -12.960938 C 23.210938 -13.105469 23.234375 -13.3125 23.234375 -13.578125 L 23.234375 -21.792969 L 25.777344 -21.792969 L 24.992188 -19.375 L 5.476562 -25.71875 C 4.21875 -26.136719 3.246094 -26.816406 2.5625 -27.753906 C 1.871094 -28.703125 1.523438 -29.832031 1.523438 -31.144531 L 1.523438 -45.210938 C 1.523438 -49.769531 2.78125 -53.285156 5.289062 -55.761719 C 7.789062 -58.230469 11.285156 -59.464844 15.777344 -59.464844 Z M 15.777344 -54.378906 C 12.675781 -54.378906 10.371094 -53.636719 8.859375 -52.144531 C 7.359375 -50.664062 6.605469 -48.351562 6.605469 -45.210938 L 6.605469 -31.144531 C 6.605469 -30.9375 6.628906 -30.808594 6.667969 -30.75 C 6.714844 -30.6875 6.839844 -30.621094 7.046875 -30.550781 L 28.320312 -23.640625 L 28.320312 -13.578125 C 28.320312 -11.792969 27.800781 -10.382812 26.761719 -9.34375 C 25.722656 -8.304688 24.3125 -7.785156 22.523438 -7.785156 L 18.132812 -7.785156 C 16.347656 -7.785156 14.933594 -8.304688 13.898438 -9.34375 C 12.859375 -10.382812 12.339844 -11.792969 12.339844 -13.578125 L 12.339844 -16.996094 C 12.339844 -16.9375 12.355469 -16.859375 12.390625 -16.761719 C 12.460938 -16.542969 12.585938 -16.347656 12.757812 -16.175781 C 12.933594 -16 13.128906 -15.875 13.34375 -15.804688 C 13.445312 -15.769531 13.523438 -15.753906 13.578125 -15.753906 L 5.367188 -15.753906 C 5.425781 -15.753906 5.503906 -15.769531 5.601562 -15.804688 C 5.816406 -15.875 6.015625 -16 6.1875 -16.175781 C 6.363281 -16.347656 6.484375 -16.542969 6.558594 -16.761719 C 6.589844 -16.859375 6.605469 -16.9375 6.605469 -16.996094 L 6.605469 -11.710938 C 6.605469 -8.617188 7.363281 -6.316406 8.871094 -4.804688 C 10.382812 -3.296875 12.683594 -2.542969 15.777344 -2.542969 L 24.882812 -2.542969 C 28.023438 -2.542969 30.335938 -3.292969 31.816406 -4.792969 C 33.304688 -6.304688 34.050781 -8.609375 34.050781 -11.710938 L 34.050781 -26.996094 C 34.050781 -27.21875 34.027344 -27.363281 33.984375 -27.425781 C 33.945312 -27.480469 33.851562 -27.535156 33.699219 -27.585938 L 12.257812 -34.496094 L 12.257812 -43.261719 C 12.257812 -45.046875 12.777344 -46.457031 13.816406 -47.496094 C 14.855469 -48.535156 16.265625 -49.054688 18.050781 -49.054688 L 22.523438 -49.054688 C 24.3125 -49.054688 25.722656 -48.535156 26.761719 -47.496094 C 27.800781 -46.457031 28.320312 -45.046875 28.320312 -43.261719 L 28.320312 -39.84375 C 28.320312 -39.902344 28.300781 -39.980469 28.269531 -40.078125 C 28.199219 -40.296875 28.074219 -40.492188 27.898438 -40.667969 C 27.726562 -40.839844 27.53125 -40.964844 27.3125 -41.035156 C 27.214844 -41.070312 27.136719 -41.085938 27.078125 -41.085938 L 35.292969 -41.085938 C 35.234375 -41.085938 35.15625 -41.070312 35.058594 -41.035156 C 34.839844 -40.964844 34.644531 -40.839844 34.46875 -40.667969 C 34.296875 -40.492188 34.171875 -40.296875 34.101562 -40.078125 C 34.066406 -39.980469 34.050781 -39.902344 34.050781 -39.84375 L 34.050781 -45.210938 C 34.050781 -48.359375 33.308594 -50.675781 31.828125 -52.15625 C 30.34375 -53.640625 28.03125 -54.378906 24.882812 -54.378906 Z M 15.777344 -54.378906 "/></g></g><g style="fill:#b21a22;fill-opacity:1;"><g transform="translate(98.210858, 276.134563)"><path style="stroke:none" d="M 33.664062 -54.378906 L 3.742188 -54.378906 C 3.796875 -54.378906 3.875 -54.398438 3.976562 -54.429688 C 4.191406 -54.503906 4.386719 -54.625 4.5625 -54.800781 C 4.734375 -54.972656 4.859375 -55.167969 4.933594 -55.386719 C 4.964844 -55.484375 4.980469 -55.5625 4.980469 -55.621094 L 4.980469 -47.488281 C 4.980469 -47.546875 4.964844 -47.625 4.933594 -47.722656 C 4.859375 -47.941406 4.734375 -48.136719 4.5625 -48.308594 C 4.386719 -48.484375 4.191406 -48.609375 3.976562 -48.679688 C 3.875 -48.714844 3.796875 -48.730469 3.742188 -48.730469 L 15.714844 -48.730469 L 15.714844 -1.300781 C 15.714844 -1.359375 15.699219 -1.4375 15.664062 -1.535156 C 15.59375 -1.753906 15.46875 -1.949219 15.296875 -2.121094 C 15.121094 -2.296875 14.925781 -2.421875 14.707031 -2.492188 C 14.609375 -2.523438 14.53125 -2.542969 14.472656 -2.542969 L 22.929688 -2.542969 C 22.875 -2.542969 22.796875 -2.523438 22.695312 -2.492188 C 22.480469 -2.421875 22.285156 -2.296875 22.109375 -2.121094 C 21.9375 -1.949219 21.8125 -1.753906 21.742188 -1.535156 C 21.707031 -1.4375 21.691406 -1.359375 21.691406 -1.300781 L 21.691406 -48.730469 L 33.664062 -48.730469 C 33.605469 -48.730469 33.527344 -48.714844 33.429688 -48.679688 C 33.214844 -48.609375 33.019531 -48.484375 32.84375 -48.308594 C 32.667969 -48.136719 32.546875 -47.941406 32.472656 -47.722656 C 32.441406 -47.625 32.425781 -47.546875 32.425781 -47.488281 L 32.425781 -55.621094 C 32.425781 -55.5625 32.441406 -55.484375 32.472656 -55.386719 C 32.546875 -55.167969 32.667969 -54.972656 32.84375 -54.800781 C 33.019531 -54.625 33.214844 -54.503906 33.429688 -54.429688 C 33.527344 -54.398438 33.605469 -54.378906 33.664062 -54.378906 Z M 33.664062 -59.464844 C 34.800781 -59.464844 35.726562 -59.105469 36.4375 -58.394531 C 37.152344 -57.679688 37.507812 -56.757812 37.507812 -55.621094 L 37.507812 -47.488281 C 37.507812 -46.355469 37.152344 -45.429688 36.4375 -44.714844 C 35.726562 -44.003906 34.800781 -43.648438 33.664062 -43.648438 L 24.234375 -43.648438 L 24.234375 -46.1875 L 26.773438 -46.1875 L 26.773438 -1.300781 C 26.773438 -0.164062 26.417969 0.757812 25.703125 1.472656 C 24.992188 2.183594 24.066406 2.542969 22.929688 2.542969 L 14.472656 2.542969 C 13.339844 2.542969 12.414062 2.183594 11.703125 1.472656 C 10.988281 0.757812 10.632812 -0.164062 10.632812 -1.300781 L 10.632812 -46.1875 L 13.171875 -46.1875 L 13.171875 -43.648438 L 3.742188 -43.648438 C 2.605469 -43.648438 1.679688 -44.003906 0.96875 -44.714844 C 0.253906 -45.429688 -0.101562 -46.355469 -0.101562 -47.488281 L -0.101562 -55.621094 C -0.101562 -56.757812 0.253906 -57.679688 0.96875 -58.394531 C 1.679688 -59.105469 2.605469 -59.464844 3.742188 -59.464844 Z M 33.664062 -59.464844 "/></g></g><g style="fill:#b21a22;fill-opacity:1;"><g transform="translate(135.604894, 276.134563)"><path style="stroke:none" d="M 39.132812 -45.210938 L 39.132812 -28.867188 C 39.132812 -23.210938 37.21875 -19.1875 33.386719 -16.792969 L 32.039062 -18.945312 L 34.507812 -19.542969 L 38.738281 -2.0625 L 36.265625 -1.464844 L 38.714844 -2.144531 C 39.078125 -0.835938 38.90625 0.277344 38.191406 1.195312 C 37.492188 2.09375 36.472656 2.542969 35.128906 2.542969 L 27.160156 2.542969 C 26.171875 2.542969 25.328125 2.253906 24.628906 1.675781 C 23.941406 1.113281 23.496094 0.351562 23.292969 -0.605469 L 25.777344 -1.136719 L 23.308594 -0.535156 L 19.40625 -16.554688 L 21.875 -17.15625 L 21.875 -14.617188 L 14.636719 -14.617188 L 14.636719 -17.15625 L 17.179688 -17.15625 L 17.179688 -1.300781 C 17.179688 -0.164062 16.820312 0.757812 16.109375 1.472656 C 15.394531 2.183594 14.472656 2.542969 13.335938 2.542969 L 5.367188 2.542969 C 4.230469 2.542969 3.308594 2.183594 2.59375 1.472656 C 1.882812 0.757812 1.523438 -0.164062 1.523438 -1.300781 L 1.523438 -55.621094 C 1.523438 -56.757812 1.882812 -57.679688 2.59375 -58.394531 C 3.308594 -59.105469 4.230469 -59.464844 5.367188 -59.464844 L 24.882812 -59.464844 C 29.433594 -59.464844 32.945312 -58.226562 35.421875 -55.75 C 37.898438 -53.277344 39.132812 -49.761719 39.132812 -45.210938 Z M 34.050781 -45.210938 C 34.050781 -48.359375 33.308594 -50.675781 31.828125 -52.15625 C 30.34375 -53.640625 28.03125 -54.378906 24.882812 -54.378906 L 5.367188 -54.378906 C 5.425781 -54.378906 5.503906 -54.398438 5.601562 -54.429688 C 5.816406 -54.503906 6.015625 -54.625 6.1875 -54.800781 C 6.363281 -54.972656 6.484375 -55.167969 6.558594 -55.386719 C 6.589844 -55.484375 6.605469 -55.5625 6.605469 -55.621094 L 6.605469 -1.300781 C 6.605469 -1.359375 6.589844 -1.4375 6.558594 -1.535156 C 6.484375 -1.753906 6.363281 -1.949219 6.1875 -2.121094 C 6.015625 -2.296875 5.816406 -2.421875 5.601562 -2.492188 C 5.503906 -2.523438 5.425781 -2.542969 5.367188 -2.542969 L 13.335938 -2.542969 C 13.277344 -2.542969 13.199219 -2.523438 13.101562 -2.492188 C 12.886719 -2.421875 12.6875 -2.296875 12.515625 -2.121094 C 12.339844 -1.949219 12.21875 -1.753906 12.144531 -1.535156 C 12.113281 -1.4375 12.097656 -1.359375 12.097656 -1.300781 L 12.097656 -19.699219 L 23.871094 -19.699219 L 28.253906 -1.707031 L 28.261719 -1.671875 C 28.21875 -1.867188 28.085938 -2.0625 27.859375 -2.246094 C 27.621094 -2.441406 27.386719 -2.542969 27.160156 -2.542969 L 35.128906 -2.542969 L 35.128906 -2.539062 C 35.078125 -2.53125 35.015625 -2.515625 34.949219 -2.492188 C 34.648438 -2.390625 34.394531 -2.199219 34.179688 -1.925781 C 33.960938 -1.644531 33.839844 -1.339844 33.8125 -1.011719 C 33.804688 -0.898438 33.808594 -0.824219 33.820312 -0.785156 L 33.808594 -0.824219 L 29.136719 -20.128906 L 30.691406 -21.101562 C 32.929688 -22.5 34.050781 -25.089844 34.050781 -28.867188 Z M 14.636719 -30.1875 L 22.769531 -30.1875 C 23.035156 -30.1875 23.242188 -30.214844 23.386719 -30.261719 C 23.414062 -30.269531 23.433594 -30.277344 23.445312 -30.285156 C 23.433594 -30.277344 23.421875 -30.269531 23.410156 -30.257812 C 23.398438 -30.246094 23.390625 -30.234375 23.386719 -30.226562 C 23.390625 -30.234375 23.398438 -30.253906 23.40625 -30.28125 C 23.457031 -30.425781 23.480469 -30.632812 23.480469 -30.902344 L 23.480469 -43.179688 C 23.480469 -43.445312 23.457031 -43.652344 23.40625 -43.796875 C 23.398438 -43.824219 23.390625 -43.84375 23.386719 -43.855469 C 23.390625 -43.84375 23.398438 -43.832031 23.410156 -43.820312 C 23.421875 -43.808594 23.433594 -43.800781 23.445312 -43.796875 C 23.433594 -43.800781 23.414062 -43.808594 23.386719 -43.816406 C 23.242188 -43.867188 23.035156 -43.890625 22.769531 -43.890625 L 14.636719 -43.890625 L 14.636719 -46.433594 L 17.179688 -46.433594 L 17.179688 -27.648438 L 14.636719 -27.648438 Z M 12.097656 -25.105469 L 12.097656 -48.972656 L 22.769531 -48.972656 C 24.554688 -48.972656 25.96875 -48.453125 27.003906 -47.414062 C 28.042969 -46.378906 28.5625 -44.964844 28.5625 -43.179688 L 28.5625 -30.902344 C 28.5625 -29.113281 28.042969 -27.703125 27.003906 -26.664062 C 25.96875 -25.625 24.554688 -25.105469 22.769531 -25.105469 Z M 12.097656 -25.105469 "/></g></g><g style="fill:#b21a22;fill-opacity:1;"><g transform="translate(176.250581, 276.134563)"><path style="stroke:none" d="M 39.050781 -55.621094 L 39.050781 -47.488281 C 39.050781 -46.355469 38.714844 -45.429688 38.035156 -44.710938 C 37.316406 -43.945312 36.375 -43.566406 35.210938 -43.566406 L 15.125 -43.566406 L 15.125 -46.105469 L 17.667969 -46.105469 L 17.667969 -33.582031 L 15.125 -33.582031 L 15.125 -36.125 L 30.414062 -36.125 C 31.578125 -36.125 32.519531 -35.742188 33.238281 -34.980469 C 33.917969 -34.261719 34.253906 -33.335938 34.253906 -32.203125 L 34.253906 -24.152344 C 34.253906 -23.019531 33.917969 -22.09375 33.238281 -21.371094 C 32.519531 -20.609375 31.578125 -20.226562 30.414062 -20.226562 L 15.125 -20.226562 L 15.125 -22.769531 L 17.667969 -22.769531 L 17.667969 -10.734375 L 15.125 -10.734375 L 15.125 -13.273438 L 35.210938 -13.273438 C 36.347656 -13.273438 37.269531 -12.917969 37.984375 -12.207031 C 38.695312 -11.492188 39.050781 -10.566406 39.050781 -9.433594 L 39.050781 -1.300781 C 39.050781 -0.164062 38.695312 0.757812 37.984375 1.472656 C 37.269531 2.183594 36.347656 2.542969 35.210938 2.542969 L 5.285156 2.542969 C 4.144531 2.542969 3.222656 2.164062 2.515625 1.414062 C 1.855469 0.707031 1.523438 -0.199219 1.523438 -1.300781 L 1.523438 -55.621094 C 1.523438 -56.722656 1.855469 -57.628906 2.515625 -58.335938 C 3.222656 -59.085938 4.144531 -59.464844 5.285156 -59.464844 L 35.210938 -59.464844 C 36.347656 -59.464844 37.269531 -59.105469 37.984375 -58.394531 C 38.695312 -57.679688 39.050781 -56.757812 39.050781 -55.621094 Z M 33.96875 -55.621094 C 33.96875 -55.5625 33.988281 -55.484375 34.019531 -55.386719 C 34.089844 -55.167969 34.214844 -54.972656 34.390625 -54.800781 C 34.5625 -54.625 34.757812 -54.503906 34.976562 -54.429688 C 35.074219 -54.398438 35.152344 -54.378906 35.210938 -54.378906 L 5.285156 -54.378906 C 5.613281 -54.378906 5.925781 -54.539062 6.226562 -54.859375 C 6.386719 -55.03125 6.503906 -55.222656 6.566406 -55.433594 C 6.59375 -55.515625 6.605469 -55.578125 6.605469 -55.621094 L 6.605469 -1.300781 C 6.605469 -1.34375 6.59375 -1.40625 6.566406 -1.488281 C 6.503906 -1.699219 6.386719 -1.890625 6.226562 -2.0625 C 5.925781 -2.382812 5.613281 -2.542969 5.285156 -2.542969 L 35.210938 -2.542969 C 35.152344 -2.542969 35.074219 -2.523438 34.976562 -2.492188 C 34.757812 -2.421875 34.5625 -2.296875 34.390625 -2.121094 C 34.214844 -1.949219 34.089844 -1.753906 34.019531 -1.535156 C 33.988281 -1.4375 33.96875 -1.359375 33.96875 -1.300781 L 33.96875 -9.433594 C 33.96875 -9.375 33.988281 -9.296875 34.019531 -9.199219 C 34.089844 -8.980469 34.214844 -8.785156 34.390625 -8.613281 C 34.5625 -8.4375 34.757812 -8.3125 34.976562 -8.242188 C 35.074219 -8.207031 35.152344 -8.191406 35.210938 -8.191406 L 12.582031 -8.191406 L 12.582031 -25.308594 L 30.414062 -25.308594 C 30.339844 -25.308594 30.246094 -25.289062 30.132812 -25.25 C 29.910156 -25.171875 29.710938 -25.039062 29.539062 -24.855469 C 29.378906 -24.6875 29.269531 -24.503906 29.207031 -24.308594 C 29.183594 -24.230469 29.171875 -24.179688 29.171875 -24.152344 L 29.171875 -32.203125 C 29.171875 -32.171875 29.183594 -32.121094 29.207031 -32.046875 C 29.269531 -31.847656 29.378906 -31.664062 29.539062 -31.496094 C 29.710938 -31.3125 29.910156 -31.179688 30.132812 -31.101562 C 30.246094 -31.0625 30.339844 -31.042969 30.414062 -31.042969 L 12.582031 -31.042969 L 12.582031 -48.648438 L 35.210938 -48.648438 C 35.136719 -48.648438 35.042969 -48.628906 34.929688 -48.589844 C 34.707031 -48.507812 34.507812 -48.378906 34.335938 -48.195312 C 34.175781 -48.027344 34.066406 -47.84375 34.003906 -47.644531 C 33.980469 -47.570312 33.96875 -47.519531 33.96875 -47.488281 Z M 33.96875 -55.621094 "/></g></g><g style="fill:#b21a22;fill-opacity:1;"><g transform="translate(216.814962, 276.134563)"><path style="stroke:none" d="M 42.449219 2.542969 L 34.558594 2.542969 C 33.570312 2.542969 32.726562 2.238281 32.03125 1.628906 C 31.390625 1.066406 30.972656 0.324219 30.773438 -0.605469 L 33.257812 -1.136719 L 30.796875 -0.511719 L 28.195312 -10.757812 L 30.65625 -11.382812 L 30.65625 -8.84375 L 15.367188 -8.84375 L 15.367188 -11.382812 L 17.835938 -10.777344 L 15.316406 -0.53125 L 12.847656 -1.136719 L 15.332031 -0.605469 C 15.132812 0.324219 14.714844 1.066406 14.074219 1.628906 C 13.378906 2.238281 12.535156 2.542969 11.546875 2.542969 L 3.578125 2.542969 C 2.253906 2.542969 1.246094 2.09375 0.5625 1.199219 C -0.136719 0.285156 -0.296875 -0.8125 0.0820312 -2.097656 L 2.519531 -1.382812 L 0.0546875 -1.996094 L 13.554688 -56.394531 L 16.019531 -55.785156 L 13.535156 -56.316406 C 13.738281 -57.273438 14.183594 -58.035156 14.871094 -58.597656 C 15.570312 -59.175781 16.414062 -59.464844 17.402344 -59.464844 L 28.703125 -59.464844 C 29.691406 -59.464844 30.535156 -59.175781 31.234375 -58.597656 C 31.921875 -58.035156 32.367188 -57.273438 32.570312 -56.316406 L 30.085938 -55.785156 L 32.554688 -56.394531 L 46.050781 -1.996094 L 43.585938 -1.382812 L 46.023438 -2.097656 C 46.414062 -0.777344 46.226562 0.347656 45.464844 1.269531 C 44.769531 2.117188 43.761719 2.542969 42.449219 2.542969 Z M 42.449219 -2.542969 C 42.460938 -2.542969 42.472656 -2.542969 42.480469 -2.542969 C 42.476562 -2.542969 42.472656 -2.542969 42.46875 -2.539062 C 42.421875 -2.535156 42.367188 -2.523438 42.308594 -2.5 C 42.015625 -2.40625 41.761719 -2.226562 41.542969 -1.960938 C 41.296875 -1.664062 41.160156 -1.335938 41.132812 -0.976562 C 41.121094 -0.839844 41.128906 -0.734375 41.148438 -0.664062 L 41.132812 -0.71875 L 27.609375 -55.210938 L 27.601562 -55.25 C 27.644531 -55.054688 27.777344 -54.859375 28.003906 -54.675781 C 28.242188 -54.480469 28.476562 -54.378906 28.703125 -54.378906 L 17.402344 -54.378906 C 17.628906 -54.378906 17.863281 -54.480469 18.101562 -54.675781 C 18.328125 -54.859375 18.460938 -55.054688 18.503906 -55.25 L 18.496094 -55.210938 L 4.972656 -0.71875 L 4.957031 -0.664062 C 4.972656 -0.71875 4.980469 -0.804688 4.972656 -0.925781 C 4.949219 -1.273438 4.828125 -1.59375 4.601562 -1.890625 C 4.378906 -2.179688 4.109375 -2.378906 3.796875 -2.488281 C 3.691406 -2.523438 3.621094 -2.542969 3.578125 -2.542969 L 11.546875 -2.542969 C 11.261719 -2.542969 10.988281 -2.425781 10.726562 -2.195312 C 10.519531 -2.015625 10.398438 -1.839844 10.363281 -1.671875 L 10.371094 -1.707031 L 13.378906 -13.925781 L 32.632812 -13.925781 L 35.734375 -1.71875 L 35.742188 -1.671875 C 35.707031 -1.839844 35.585938 -2.015625 35.378906 -2.195312 C 35.117188 -2.425781 34.84375 -2.542969 34.558594 -2.542969 Z M 25.660156 -20.242188 L 20.535156 -42.363281 L 23.011719 -42.933594 L 25.488281 -42.363281 L 20.367188 -20.242188 L 17.890625 -20.816406 L 17.890625 -23.359375 L 28.136719 -23.359375 L 28.136719 -20.816406 Z M 31.332031 -18.277344 L 14.691406 -18.277344 L 20.535156 -43.507812 L 25.488281 -43.507812 L 30.613281 -21.390625 Z M 31.332031 -18.277344 "/></g></g><g style="fill:#b21a22;fill-opacity:1;"><g transform="translate(262.90718, 276.134563)"><path style="stroke:none" d="M 38.054688 -59.464844 L 48.789062 -59.464844 C 50.035156 -59.464844 51.039062 -59.078125 51.808594 -58.3125 C 52.574219 -57.546875 52.957031 -56.539062 52.957031 -55.296875 L 52.957031 -1.625 C 52.957031 -0.382812 52.574219 0.625 51.808594 1.390625 C 51.039062 2.15625 50.035156 2.542969 48.789062 2.542969 L 41.226562 2.542969 C 39.984375 2.542969 38.976562 2.15625 38.210938 1.390625 C 37.445312 0.625 37.058594 -0.382812 37.058594 -1.625 L 37.058594 -33.582031 L 39.601562 -33.582031 L 39.601562 -31.042969 L 39.03125 -31.042969 L 39.03125 -33.582031 L 41.503906 -32.996094 L 33.84375 -0.730469 L 33.828125 -0.664062 C 33.535156 0.324219 33.023438 1.097656 32.292969 1.664062 C 31.535156 2.25 30.636719 2.542969 29.597656 2.542969 L 24.800781 2.542969 C 23.761719 2.542969 22.863281 2.25 22.109375 1.664062 C 21.375 1.097656 20.863281 0.324219 20.574219 -0.664062 L 20.554688 -0.730469 L 12.894531 -32.996094 L 15.367188 -33.582031 L 15.367188 -31.042969 L 14.800781 -31.042969 L 14.800781 -33.582031 L 17.339844 -33.582031 L 17.339844 -1.625 C 17.339844 -0.382812 16.957031 0.625 16.191406 1.390625 C 15.421875 2.15625 14.417969 2.542969 13.171875 2.542969 L 5.691406 2.542969 C 4.449219 2.542969 3.441406 2.15625 2.675781 1.390625 C 1.90625 0.625 1.523438 -0.382812 1.523438 -1.625 L 1.523438 -55.296875 C 1.523438 -56.539062 1.90625 -57.546875 2.675781 -58.3125 C 3.441406 -59.078125 4.449219 -59.464844 5.691406 -59.464844 L 16.425781 -59.464844 C 17.464844 -59.464844 18.363281 -59.171875 19.117188 -58.585938 C 19.851562 -58.019531 20.363281 -57.246094 20.652344 -56.257812 L 20.667969 -56.207031 L 29.707031 -19.886719 L 27.242188 -19.273438 L 24.773438 -19.886719 L 33.8125 -56.207031 L 33.828125 -56.257812 C 34.121094 -57.246094 34.632812 -58.019531 35.363281 -58.585938 C 36.121094 -59.171875 37.015625 -59.464844 38.054688 -59.464844 Z M 38.054688 -54.378906 C 38.175781 -54.378906 38.3125 -54.441406 38.472656 -54.566406 C 38.5625 -54.632812 38.632812 -54.710938 38.683594 -54.792969 C 38.695312 -54.8125 38.707031 -54.832031 38.714844 -54.847656 C 38.710938 -54.84375 38.710938 -54.835938 38.707031 -54.824219 L 36.265625 -55.539062 L 38.734375 -54.925781 L 29.707031 -18.660156 L 24.773438 -18.660156 L 15.75 -54.925781 L 18.214844 -55.539062 L 15.777344 -54.824219 C 15.773438 -54.835938 15.769531 -54.84375 15.769531 -54.847656 C 15.777344 -54.832031 15.785156 -54.8125 15.796875 -54.792969 C 15.851562 -54.710938 15.921875 -54.632812 16.011719 -54.566406 C 16.171875 -54.441406 16.308594 -54.378906 16.425781 -54.378906 L 5.691406 -54.378906 C 5.679688 -54.378906 5.671875 -54.378906 5.664062 -54.378906 C 5.664062 -54.378906 5.667969 -54.378906 5.671875 -54.378906 C 5.703125 -54.386719 5.742188 -54.394531 5.785156 -54.410156 C 5.960938 -54.46875 6.121094 -54.570312 6.269531 -54.71875 C 6.417969 -54.867188 6.519531 -55.027344 6.578125 -55.203125 C 6.59375 -55.246094 6.601562 -55.285156 6.605469 -55.316406 C 6.609375 -55.320312 6.609375 -55.324219 6.609375 -55.324219 C 6.609375 -55.316406 6.605469 -55.308594 6.605469 -55.296875 L 6.605469 -1.625 C 6.605469 -1.613281 6.609375 -1.605469 6.609375 -1.597656 C 6.609375 -1.597656 6.609375 -1.601562 6.605469 -1.605469 C 6.601562 -1.636719 6.59375 -1.675781 6.578125 -1.71875 C 6.519531 -1.894531 6.417969 -2.054688 6.269531 -2.203125 C 6.121094 -2.351562 5.960938 -2.453125 5.785156 -2.511719 C 5.742188 -2.527344 5.703125 -2.535156 5.671875 -2.542969 C 5.667969 -2.542969 5.664062 -2.542969 5.664062 -2.542969 C 5.671875 -2.542969 5.679688 -2.542969 5.691406 -2.542969 L 13.171875 -2.542969 C 13.183594 -2.542969 13.195312 -2.542969 13.203125 -2.542969 C 13.199219 -2.542969 13.199219 -2.542969 13.195312 -2.542969 C 13.164062 -2.535156 13.125 -2.527344 13.082031 -2.511719 C 12.90625 -2.453125 12.742188 -2.351562 12.597656 -2.203125 C 12.449219 -2.054688 12.347656 -1.894531 12.289062 -1.71875 C 12.273438 -1.675781 12.261719 -1.636719 12.257812 -1.605469 C 12.257812 -1.601562 12.257812 -1.597656 12.257812 -1.597656 C 12.257812 -1.605469 12.257812 -1.613281 12.257812 -1.625 L 12.257812 -36.125 L 17.378906 -36.125 L 25.484375 -1.96875 L 23.011719 -1.382812 L 25.449219 -2.097656 C 25.453125 -2.085938 25.457031 -2.078125 25.457031 -2.074219 C 25.453125 -2.089844 25.441406 -2.109375 25.429688 -2.128906 C 25.378906 -2.210938 25.308594 -2.289062 25.21875 -2.355469 C 25.058594 -2.480469 24.917969 -2.542969 24.800781 -2.542969 L 29.597656 -2.542969 C 29.480469 -2.542969 29.34375 -2.480469 29.183594 -2.355469 C 29.09375 -2.289062 29.023438 -2.210938 28.972656 -2.128906 C 28.957031 -2.109375 28.949219 -2.089844 28.941406 -2.074219 C 28.945312 -2.078125 28.945312 -2.085938 28.949219 -2.097656 L 31.386719 -1.382812 L 28.914062 -1.96875 L 37.023438 -36.125 L 42.144531 -36.125 L 42.144531 -1.625 C 42.144531 -1.613281 42.144531 -1.605469 42.144531 -1.597656 C 42.144531 -1.597656 42.144531 -1.601562 42.144531 -1.605469 C 42.136719 -1.636719 42.128906 -1.675781 42.113281 -1.71875 C 42.054688 -1.894531 41.953125 -2.054688 41.804688 -2.203125 C 41.65625 -2.351562 41.496094 -2.453125 41.320312 -2.511719 C 41.277344 -2.527344 41.238281 -2.535156 41.207031 -2.542969 C 41.203125 -2.542969 41.199219 -2.542969 41.199219 -2.542969 C 41.207031 -2.542969 41.214844 -2.542969 41.226562 -2.542969 L 48.789062 -2.542969 C 48.800781 -2.542969 48.8125 -2.542969 48.816406 -2.542969 C 48.816406 -2.542969 48.816406 -2.542969 48.8125 -2.542969 C 48.78125 -2.535156 48.742188 -2.527344 48.699219 -2.511719 C 48.523438 -2.453125 48.359375 -2.351562 48.214844 -2.203125 C 48.066406 -2.054688 47.960938 -1.894531 47.902344 -1.71875 C 47.890625 -1.675781 47.878906 -1.636719 47.875 -1.605469 C 47.875 -1.601562 47.875 -1.597656 47.875 -1.597656 C 47.875 -1.605469 47.875 -1.613281 47.875 -1.625 L 47.875 -55.296875 C 47.875 -55.308594 47.875 -55.316406 47.875 -55.324219 C 47.875 -55.324219 47.875 -55.320312 47.875 -55.316406 C 47.878906 -55.285156 47.890625 -55.246094 47.902344 -55.203125 C 47.960938 -55.027344 48.066406 -54.867188 48.214844 -54.71875 C 48.359375 -54.570312 48.523438 -54.46875 48.699219 -54.410156 C 48.742188 -54.394531 48.78125 -54.386719 48.8125 -54.378906 C 48.816406 -54.378906 48.816406 -54.378906 48.816406 -54.378906 C 48.8125 -54.378906 48.800781 -54.378906 48.789062 -54.378906 Z M 38.054688 -54.378906 "/></g></g><g style="fill:#060705;fill-opacity:1;"><g transform="translate(52.734071, 162.764747)"><path style="stroke:none" d="M 15.78125 -56.921875 L 24.875 -56.921875 C 28.726562 -56.921875 31.644531 -55.929688 33.625 -53.953125 C 35.601562 -51.972656 36.59375 -49.054688 36.59375 -45.203125 L 36.59375 -39.84375 C 36.59375 -38.976562 36.160156 -38.546875 35.296875 -38.546875 L 27.078125 -38.546875 C 26.210938 -38.546875 25.78125 -38.976562 25.78125 -39.84375 L 25.78125 -43.265625 C 25.78125 -45.429688 24.695312 -46.515625 22.53125 -46.515625 L 18.046875 -46.515625 C 15.878906 -46.515625 14.796875 -45.429688 14.796875 -43.265625 L 14.796875 -36.34375 L 34.46875 -30 C 35.882812 -29.507812 36.59375 -28.507812 36.59375 -27 L 36.59375 -11.703125 C 36.59375 -7.910156 35.601562 -5.007812 33.625 -3 C 31.644531 -1 28.726562 0 24.875 0 L 15.78125 0 C 11.976562 0 9.070312 -1 7.0625 -3 C 5.0625 -5.007812 4.0625 -7.910156 4.0625 -11.703125 L 4.0625 -17 C 4.0625 -17.863281 4.492188 -18.296875 5.359375 -18.296875 L 13.578125 -18.296875 C 14.441406 -18.296875 14.875 -17.863281 14.875 -17 L 14.875 -13.578125 C 14.875 -11.410156 15.957031 -10.328125 18.125 -10.328125 L 22.53125 -10.328125 C 24.695312 -10.328125 25.78125 -11.410156 25.78125 -13.578125 L 25.78125 -21.796875 L 6.265625 -28.140625 C 4.796875 -28.617188 4.0625 -29.617188 4.0625 -31.140625 L 4.0625 -45.203125 C 4.0625 -49.054688 5.0625 -51.972656 7.0625 -53.953125 C 9.070312 -55.929688 11.976562 -56.921875 15.78125 -56.921875 Z M 15.78125 -56.921875 "/></g></g><g style="fill:#060705;fill-opacity:1;"><g transform="translate(93.379758, 162.764747)"><path style="stroke:none" d="M 5.359375 0 L 13.828125 0 C 14.691406 0 15.125 -0.429688 15.125 -1.296875 L 15.125 -55.625 C 15.125 -56.488281 14.691406 -56.921875 13.828125 -56.921875 L 5.359375 -56.921875 C 4.492188 -56.921875 4.0625 -56.488281 4.0625 -55.625 L 4.0625 -1.296875 C 4.0625 -0.429688 4.492188 0 5.359375 0 Z M 5.359375 0 "/></g></g><g style="fill:#060705;fill-opacity:1;"><g transform="translate(112.564509, 162.764747)"><path style="stroke:none" d="M 15.125 -10.734375 L 15.125 -55.625 C 15.125 -56.488281 14.691406 -56.921875 13.828125 -56.921875 L 5.359375 -56.921875 C 4.492188 -56.921875 4.0625 -56.488281 4.0625 -55.625 L 4.0625 -1.296875 C 4.0625 -0.429688 4.492188 0 5.359375 0 L 31.21875 0 C 32.09375 0 32.53125 -0.429688 32.53125 -1.296875 L 32.53125 -9.4375 C 32.53125 -10.300781 32.09375 -10.734375 31.21875 -10.734375 Z M 15.125 -10.734375 "/></g></g><g style="fill:#060705;fill-opacity:1;"><g transform="translate(149.145624, 162.764747)"><path style="stroke:none" d="M 36.515625 -55.625 L 36.515625 -47.484375 C 36.515625 -46.566406 36.078125 -46.109375 35.203125 -46.109375 L 15.125 -46.109375 L 15.125 -33.578125 L 30.40625 -33.578125 C 31.28125 -33.578125 31.71875 -33.117188 31.71875 -32.203125 L 31.71875 -24.15625 C 31.71875 -23.226562 31.28125 -22.765625 30.40625 -22.765625 L 15.125 -22.765625 L 15.125 -10.734375 L 35.203125 -10.734375 C 36.078125 -10.734375 36.515625 -10.300781 36.515625 -9.4375 L 36.515625 -1.296875 C 36.515625 -0.429688 36.078125 0 35.203125 0 L 5.28125 0 C 4.46875 0 4.0625 -0.429688 4.0625 -1.296875 L 4.0625 -55.625 C 4.0625 -56.488281 4.46875 -56.921875 5.28125 -56.921875 L 35.203125 -56.921875 C 36.078125 -56.921875 36.515625 -56.488281 36.515625 -55.625 Z M 36.515625 -55.625 "/></g></g><g style="fill:#060705;fill-opacity:1;"><g transform="translate(189.710006, 162.764747)"><path style="stroke:none" d="M 29.84375 -56.921875 L 37.484375 -56.921875 C 38.347656 -56.921875 38.78125 -56.488281 38.78125 -55.625 L 38.78125 -1.296875 C 38.78125 -0.429688 38.347656 0 37.484375 0 L 31.0625 0 C 30.40625 0 29.914062 -0.351562 29.59375 -1.0625 L 14.3125 -32.125 L 14.3125 -1.296875 C 14.3125 -0.429688 13.878906 0 13.015625 0 L 5.359375 0 C 4.492188 0 4.0625 -0.429688 4.0625 -1.296875 L 4.0625 -55.625 C 4.0625 -56.488281 4.492188 -56.921875 5.359375 -56.921875 L 11.796875 -56.921875 C 12.441406 -56.921875 12.925781 -56.566406 13.25 -55.859375 L 28.546875 -24.796875 L 28.546875 -55.625 C 28.546875 -56.488281 28.976562 -56.921875 29.84375 -56.921875 Z M 29.84375 -56.921875 "/></g></g><g style="fill:#060705;fill-opacity:1;"><g transform="translate(232.550573, 162.764747)"><path style="stroke:none" d="M 33.65625 -56.921875 L 3.734375 -56.921875 C 2.867188 -56.921875 2.4375 -56.488281 2.4375 -55.625 L 2.4375 -47.484375 C 2.4375 -46.617188 2.867188 -46.1875 3.734375 -46.1875 L 13.171875 -46.1875 L 13.171875 -1.296875 C 13.171875 -0.429688 13.601562 0 14.46875 0 L 22.9375 0 C 23.800781 0 24.234375 -0.429688 24.234375 -1.296875 L 24.234375 -46.1875 L 33.65625 -46.1875 C 34.53125 -46.1875 34.96875 -46.617188 34.96875 -47.484375 L 34.96875 -55.625 C 34.96875 -56.488281 34.53125 -56.921875 33.65625 -56.921875 Z M 33.65625 -56.921875 "/></g></g><g style="fill:#060705;fill-opacity:1;"><g transform="translate(269.94461, 162.764747)"><path style="stroke:none" d="M 0 10.890625 L 0 3.421875 C 0 2.328125 0.539062 1.78125 1.625 1.78125 L 50.65625 1.78125 C 51.738281 1.78125 52.28125 2.328125 52.28125 3.421875 L 52.28125 10.890625 C 52.28125 11.972656 51.738281 12.515625 50.65625 12.515625 L 1.625 12.515625 C 0.539062 12.515625 0 11.972656 0 10.890625 Z M 0 10.890625 "/></g></g><g style="fill:#060705;fill-opacity:1;"><g transform="translate(57.565171, 276.134563)"><path style="stroke:none" d="M 15.78125 -56.921875 L 24.875 -56.921875 C 28.726562 -56.921875 31.644531 -55.929688 33.625 -53.953125 C 35.601562 -51.972656 36.59375 -49.054688 36.59375 -45.203125 L 36.59375 -39.84375 C 36.59375 -38.976562 36.160156 -38.546875 35.296875 -38.546875 L 27.078125 -38.546875 C 26.210938 -38.546875 25.78125 -38.976562 25.78125 -39.84375 L 25.78125 -43.265625 C 25.78125 -45.429688 24.695312 -46.515625 22.53125 -46.515625 L 18.046875 -46.515625 C 15.878906 -46.515625 14.796875 -45.429688 14.796875 -43.265625 L 14.796875 -36.34375 L 34.46875 -30 C 35.882812 -29.507812 36.59375 -28.507812 36.59375 -27 L 36.59375 -11.703125 C 36.59375 -7.910156 35.601562 -5.007812 33.625 -3 C 31.644531 -1 28.726562 0 24.875 0 L 15.78125 0 C 11.976562 0 9.070312 -1 7.0625 -3 C 5.0625 -5.007812 4.0625 -7.910156 4.0625 -11.703125 L 4.0625 -17 C 4.0625 -17.863281 4.492188 -18.296875 5.359375 -18.296875 L 13.578125 -18.296875 C 14.441406 -18.296875 14.875 -17.863281 14.875 -17 L 14.875 -13.578125 C 14.875 -11.410156 15.957031 -10.328125 18.125 -10.328125 L 22.53125 -10.328125 C 24.695312 -10.328125 25.78125 -11.410156 25.78125 -13.578125 L 25.78125 -21.796875 L 6.265625 -28.140625 C 4.796875 -28.617188 4.0625 -29.617188 4.0625 -31.140625 L 4.0625 -45.203125 C 4.0625 -49.054688 5.0625 -51.972656 7.0625 -53.953125 C 9.070312 -55.929688 11.976562 -56.921875 15.78125 -56.921875 Z M 15.78125 -56.921875 "/></g></g><g style="fill:#060705;fill-opacity:1;"><g transform="translate(98.210858, 276.134563)"><path style="stroke:none" d="M 33.65625 -56.921875 L 3.734375 -56.921875 C 2.867188 -56.921875 2.4375 -56.488281 2.4375 -55.625 L 2.4375 -47.484375 C 2.4375 -46.617188 2.867188 -46.1875 3.734375 -46.1875 L 13.171875 -46.1875 L 13.171875 -1.296875 C 13.171875 -0.429688 13.601562 0 14.46875 0 L 22.9375 0 C 23.800781 0 24.234375 -0.429688 24.234375 -1.296875 L 24.234375 -46.1875 L 33.65625 -46.1875 C 34.53125 -46.1875 34.96875 -46.617188 34.96875 -47.484375 L 34.96875 -55.625 C 34.96875 -56.488281 34.53125 -56.921875 33.65625 -56.921875 Z M 33.65625 -56.921875 "/></g></g><g style="fill:#060705;fill-opacity:1;"><g transform="translate(135.604894, 276.134563)"><path style="stroke:none" d="M 36.59375 -45.203125 L 36.59375 -28.859375 C 36.59375 -24.148438 35.070312 -20.847656 32.03125 -18.953125 L 36.265625 -1.46875 C 36.535156 -0.488281 36.15625 0 35.125 0 L 27.15625 0 C 26.394531 0 25.9375 -0.378906 25.78125 -1.140625 L 21.875 -17.15625 L 14.640625 -17.15625 L 14.640625 -1.296875 C 14.640625 -0.429688 14.203125 0 13.328125 0 L 5.359375 0 C 4.492188 0 4.0625 -0.429688 4.0625 -1.296875 L 4.0625 -55.625 C 4.0625 -56.488281 4.492188 -56.921875 5.359375 -56.921875 L 24.875 -56.921875 C 28.726562 -56.921875 31.644531 -55.929688 33.625 -53.953125 C 35.601562 -51.972656 36.59375 -49.054688 36.59375 -45.203125 Z M 14.640625 -27.640625 L 22.765625 -27.640625 C 24.929688 -27.640625 26.015625 -28.726562 26.015625 -30.90625 L 26.015625 -43.171875 C 26.015625 -45.335938 24.929688 -46.421875 22.765625 -46.421875 L 14.640625 -46.421875 Z M 14.640625 -27.640625 "/></g></g><g style="fill:#060705;fill-opacity:1;"><g transform="translate(176.250581, 276.134563)"><path style="stroke:none" d="M 36.515625 -55.625 L 36.515625 -47.484375 C 36.515625 -46.566406 36.078125 -46.109375 35.203125 -46.109375 L 15.125 -46.109375 L 15.125 -33.578125 L 30.40625 -33.578125 C 31.28125 -33.578125 31.71875 -33.117188 31.71875 -32.203125 L 31.71875 -24.15625 C 31.71875 -23.226562 31.28125 -22.765625 30.40625 -22.765625 L 15.125 -22.765625 L 15.125 -10.734375 L 35.203125 -10.734375 C 36.078125 -10.734375 36.515625 -10.300781 36.515625 -9.4375 L 36.515625 -1.296875 C 36.515625 -0.429688 36.078125 0 35.203125 0 L 5.28125 0 C 4.46875 0 4.0625 -0.429688 4.0625 -1.296875 L 4.0625 -55.625 C 4.0625 -56.488281 4.46875 -56.921875 5.28125 -56.921875 L 35.203125 -56.921875 C 36.078125 -56.921875 36.515625 -56.488281 36.515625 -55.625 Z M 36.515625 -55.625 "/></g></g><g style="fill:#060705;fill-opacity:1;"><g transform="translate(216.814962, 276.134563)"><path style="stroke:none" d="M 42.4375 0 L 34.5625 0 C 33.851562 0 33.414062 -0.378906 33.25 -1.140625 L 30.65625 -11.390625 L 15.375 -11.390625 L 12.84375 -1.140625 C 12.6875 -0.378906 12.253906 0 11.546875 0 L 3.578125 0 C 2.597656 0 2.242188 -0.457031 2.515625 -1.375 L 16.015625 -55.78125 C 16.179688 -56.539062 16.644531 -56.921875 17.40625 -56.921875 L 28.703125 -56.921875 C 29.460938 -56.921875 29.921875 -56.539062 30.078125 -55.78125 L 43.578125 -1.375 C 43.847656 -0.457031 43.46875 0 42.4375 0 Z M 28.140625 -20.8125 L 23.015625 -42.9375 L 17.890625 -20.8125 Z M 28.140625 -20.8125 "/></g></g><g style="fill:#060705;fill-opacity:1;"><g transform="translate(262.90718, 276.134563)"><path style="stroke:none" d="M 38.046875 -56.921875 L 48.78125 -56.921875 C 49.863281 -56.921875 50.40625 -56.378906 50.40625 -55.296875 L 50.40625 -1.625 C 50.40625 -0.539062 49.863281 0 48.78125 0 L 41.21875 0 C 40.132812 0 39.59375 -0.539062 39.59375 -1.625 L 39.59375 -33.578125 L 39.03125 -33.578125 L 31.390625 -1.375 C 31.117188 -0.457031 30.519531 0 29.59375 0 L 24.796875 0 C 23.878906 0 23.285156 -0.457031 23.015625 -1.375 L 15.375 -33.578125 L 14.796875 -33.578125 L 14.796875 -1.625 C 14.796875 -0.539062 14.253906 0 13.171875 0 L 5.6875 0 C 4.601562 0 4.0625 -0.539062 4.0625 -1.625 L 4.0625 -55.296875 C 4.0625 -56.378906 4.601562 -56.921875 5.6875 -56.921875 L 16.421875 -56.921875 C 17.347656 -56.921875 17.945312 -56.457031 18.21875 -55.53125 L 27.234375 -19.265625 L 36.265625 -55.53125 C 36.535156 -56.457031 37.128906 -56.921875 38.046875 -56.921875 Z M 38.046875 -56.921875 "/></g></g></g></svg>