<svg xmlns="http://www.w3.org/2000/svg" xmlns:xlink="http://www.w3.org/1999/xlink" width="500" zoomAndPan="magnify" viewBox="0 0 375 374.999991" height="500" preserveAspectRatio="xMidYMid meet" version="1.2"><defs><clipPath id="ece182a89d"><path d="M 25 0 L 350 0 L 350 375 L 25 375 Z M 25 0 "/></clipPath><clipPath id="13b806e143"><path d="M -55.878906 142.882812 L 268.328125 -46.476562 L 431 232.042969 L 106.789062 421.402344 Z M -55.878906 142.882812 "/></clipPath><clipPath id="e5c85b078c"><path d="M 349.546875 92.851562 L 349.859375 279.433594 L 187.8125 374.078125 L 25.453125 282.140625 L 25.140625 95.5625 L 187.1875 0.917969 Z M 349.546875 92.851562 "/></clipPath><clipPath id="38a1782e88"><path d="M 55.238281 35.632812 L 319.726562 35.632812 L 319.726562 339 L 55.238281 339 Z M 55.238281 35.632812 "/></clipPath></defs><g id="61a4165eed"><g clip-rule="nonzero" clip-path="url(#ece182a89d)"><g clip-rule="nonzero" clip-path="url(#13b806e143)"><g clip-rule="nonzero" clip-path="url(#e5c85b078c)"><path style=" stroke:none;fill-rule:nonzero;fill:#65b30e;fill-opacity:1;" d="M -55.878906 142.882812 L 268.332031 -46.476562 L 431 232.042969 L 106.789062 421.402344 Z M -55.878906 142.882812 "/></g></g></g><path style=" stroke:none;fill-rule:nonzero;fill:#87ff00;fill-opacity:1;" d="M 134.582031 135.703125 L 134.414062 135.535156 L 97.035156 172.914062 L 187.792969 263.503906 L 225.175781 226.296875 L 278.546875 172.914062 L 241.167969 135.535156 L 241.167969 135.363281 L 134.417969 135.363281 Z M 134.582031 135.703125 "/><g clip-rule="nonzero" clip-path="url(#38a1782e88)"><path style=" stroke:none;fill-rule:nonzero;fill:#87ff00;fill-opacity:1;" d="M 187.453125 35.851562 L 55.269531 111.625 L 55.273438 263.175781 L 187.457031 338.949219 L 319.640625 263.175781 L 319.640625 111.625 L 187.457031 35.855469 Z M 294.375 248.683594 L 187.453125 310.308594 L 80.527344 248.683594 L 80.53125 125.765625 L 187.457031 64.136719 L 294.378906 125.765625 L 294.378906 248.683594 Z M 294.375 248.683594 "/></g><g style="fill:#b21a22;fill-opacity:1;"><g transform="translate(127.892443, 121.329263)"><path style="stroke:none" d="M 31.871094 -36.746094 L 31.871094 -29.605469 C 31.871094 -28.683594 31.582031 -27.933594 31 -27.351562 C 30.421875 -26.773438 29.671875 -26.484375 28.746094 -26.484375 L 22.535156 -26.484375 C 21.613281 -26.484375 20.863281 -26.773438 20.28125 -27.351562 C 19.703125 -27.933594 19.414062 -28.683594 19.414062 -29.605469 L 19.414062 -35.027344 C 19.414062 -35.242188 19.394531 -35.410156 19.355469 -35.53125 C 19.347656 -35.550781 19.339844 -35.566406 19.335938 -35.574219 C 19.339844 -35.566406 19.347656 -35.558594 19.355469 -35.546875 C 19.367188 -35.539062 19.375 -35.53125 19.382812 -35.527344 C 19.375 -35.53125 19.359375 -35.539062 19.339844 -35.546875 C 19.21875 -35.585938 19.050781 -35.605469 18.835938 -35.605469 L 14.605469 -35.605469 C 14.386719 -35.605469 14.21875 -35.585938 14.101562 -35.546875 C 14.078125 -35.539062 14.066406 -35.53125 14.058594 -35.527344 C 14.066406 -35.53125 14.074219 -35.539062 14.082031 -35.546875 C 14.09375 -35.558594 14.101562 -35.566406 14.105469 -35.574219 C 14.101562 -35.566406 14.09375 -35.550781 14.085938 -35.53125 C 14.046875 -35.410156 14.027344 -35.242188 14.027344 -35.027344 L 14.027344 -11.035156 C 14.027344 -10.820312 14.046875 -10.652344 14.085938 -10.53125 C 14.09375 -10.511719 14.101562 -10.496094 14.105469 -10.488281 C 14.101562 -10.496094 14.09375 -10.503906 14.082031 -10.515625 C 14.074219 -10.523438 14.066406 -10.53125 14.058594 -10.535156 C 14.066406 -10.53125 14.078125 -10.523438 14.101562 -10.519531 C 14.21875 -10.476562 14.386719 -10.457031 14.605469 -10.457031 L 18.835938 -10.457031 C 19.050781 -10.457031 19.21875 -10.476562 19.339844 -10.519531 C 19.359375 -10.523438 19.375 -10.53125 19.382812 -10.535156 C 19.375 -10.53125 19.367188 -10.523438 19.355469 -10.515625 C 19.347656 -10.503906 19.339844 -10.496094 19.335938 -10.488281 C 19.339844 -10.496094 19.347656 -10.511719 19.355469 -10.53125 C 19.394531 -10.652344 19.414062 -10.820312 19.414062 -11.035156 L 19.414062 -16.652344 C 19.414062 -17.578125 19.703125 -18.328125 20.28125 -18.90625 C 20.863281 -19.488281 21.613281 -19.777344 22.535156 -19.777344 L 28.746094 -19.777344 C 29.671875 -19.777344 30.421875 -19.488281 31 -18.90625 C 31.582031 -18.328125 31.871094 -17.578125 31.871094 -16.652344 L 31.871094 -9.515625 C 31.871094 -5.863281 30.855469 -3.019531 28.820312 -0.984375 C 26.785156 1.046875 23.941406 2.066406 20.289062 2.066406 L 12.886719 2.066406 C 9.238281 2.066406 6.386719 1.050781 4.332031 -0.976562 C 2.269531 -3.007812 1.238281 -5.855469 1.238281 -9.515625 L 1.238281 -36.746094 C 1.238281 -40.453125 2.273438 -43.316406 4.34375 -45.328125 C 6.394531 -47.328125 9.242188 -48.328125 12.886719 -48.328125 L 20.289062 -48.328125 C 23.9375 -48.328125 26.777344 -47.324219 28.808594 -45.320312 C 30.851562 -43.304688 31.871094 -40.449219 31.871094 -36.746094 Z M 27.738281 -36.746094 C 27.738281 -39.296875 27.128906 -41.175781 25.910156 -42.378906 C 24.679688 -43.589844 22.808594 -44.195312 20.289062 -44.195312 L 12.886719 -44.195312 C 10.363281 -44.195312 8.472656 -43.585938 7.222656 -42.367188 C 5.988281 -41.164062 5.371094 -39.292969 5.371094 -36.746094 L 5.371094 -9.515625 C 5.371094 -7.007812 5.992188 -5.140625 7.234375 -3.914062 C 8.484375 -2.683594 10.367188 -2.066406 12.886719 -2.066406 L 20.289062 -2.066406 C 22.800781 -2.066406 24.671875 -2.679688 25.898438 -3.90625 C 27.125 -5.132812 27.738281 -7.003906 27.738281 -9.515625 L 27.738281 -16.652344 C 27.738281 -16.605469 27.753906 -16.542969 27.78125 -16.464844 C 27.839844 -16.289062 27.9375 -16.128906 28.082031 -15.988281 C 28.222656 -15.84375 28.382812 -15.746094 28.558594 -15.6875 C 28.636719 -15.660156 28.699219 -15.644531 28.746094 -15.644531 L 22.535156 -15.644531 C 22.582031 -15.644531 22.644531 -15.660156 22.726562 -15.6875 C 22.902344 -15.746094 23.0625 -15.84375 23.203125 -15.988281 C 23.34375 -16.128906 23.445312 -16.289062 23.503906 -16.464844 C 23.53125 -16.542969 23.542969 -16.605469 23.542969 -16.652344 L 23.542969 -11.035156 C 23.542969 -9.585938 23.121094 -8.4375 22.277344 -7.59375 C 21.433594 -6.75 20.285156 -6.328125 18.835938 -6.328125 L 14.605469 -6.328125 C 13.152344 -6.328125 12.007812 -6.75 11.164062 -7.59375 C 10.316406 -8.4375 9.894531 -9.585938 9.894531 -11.035156 L 9.894531 -35.027344 C 9.894531 -36.476562 10.316406 -37.625 11.164062 -38.46875 C 12.007812 -39.3125 13.152344 -39.734375 14.605469 -39.734375 L 18.835938 -39.734375 C 20.285156 -39.734375 21.433594 -39.3125 22.277344 -38.46875 C 23.121094 -37.625 23.542969 -36.476562 23.542969 -35.027344 L 23.542969 -29.605469 C 23.542969 -29.652344 23.53125 -29.71875 23.503906 -29.796875 C 23.445312 -29.972656 23.34375 -30.132812 23.203125 -30.273438 C 23.0625 -30.417969 22.902344 -30.515625 22.726562 -30.574219 C 22.644531 -30.601562 22.582031 -30.613281 22.535156 -30.613281 L 28.746094 -30.613281 C 28.699219 -30.613281 28.636719 -30.601562 28.558594 -30.574219 C 28.382812 -30.515625 28.222656 -30.417969 28.082031 -30.273438 C 27.9375 -30.132812 27.839844 -29.972656 27.78125 -29.796875 C 27.753906 -29.71875 27.738281 -29.652344 27.738281 -29.605469 Z M 27.738281 -36.746094 "/></g></g><g style="fill:#b21a22;fill-opacity:1;"><g transform="translate(160.991553, 121.329263)"><path style="stroke:none" d="M 34.496094 2.066406 L 28.085938 2.066406 C 27.285156 2.066406 26.597656 1.816406 26.03125 1.324219 C 25.511719 0.867188 25.171875 0.261719 25.011719 -0.492188 L 27.03125 -0.925781 L 25.027344 -0.417969 L 22.914062 -8.742188 L 24.914062 -9.253906 L 24.914062 -7.1875 L 12.492188 -7.1875 L 12.492188 -9.253906 L 14.496094 -8.757812 L 12.449219 -0.433594 L 10.441406 -0.925781 L 12.460938 -0.492188 C 12.300781 0.261719 11.957031 0.867188 11.4375 1.324219 C 10.871094 1.816406 10.1875 2.066406 9.382812 2.066406 L 2.90625 2.066406 C 1.832031 2.066406 1.015625 1.703125 0.457031 0.972656 C -0.109375 0.230469 -0.238281 -0.660156 0.0664062 -1.707031 L 2.046875 -1.125 L 0.0429688 -1.621094 L 11.015625 -45.832031 L 13.019531 -45.335938 L 11 -45.769531 C 11.167969 -46.546875 11.527344 -47.164062 12.085938 -47.625 C 12.65625 -48.09375 13.339844 -48.328125 14.144531 -48.328125 L 23.328125 -48.328125 C 24.132812 -48.328125 24.816406 -48.09375 25.386719 -47.625 C 25.941406 -47.164062 26.304688 -46.546875 26.472656 -45.769531 L 24.453125 -45.335938 L 26.457031 -45.832031 L 37.425781 -1.621094 L 35.421875 -1.125 L 37.402344 -1.707031 C 37.71875 -0.632812 37.570312 0.28125 36.949219 1.03125 C 36.382812 1.722656 35.566406 2.066406 34.496094 2.066406 Z M 34.496094 -2.066406 C 34.507812 -2.066406 34.515625 -2.066406 34.523438 -2.066406 C 34.523438 -2.066406 34.519531 -2.066406 34.515625 -2.066406 C 34.476562 -2.058594 34.433594 -2.050781 34.382812 -2.035156 C 34.148438 -1.957031 33.941406 -1.808594 33.761719 -1.59375 C 33.5625 -1.351562 33.453125 -1.085938 33.429688 -0.792969 C 33.421875 -0.679688 33.425781 -0.597656 33.441406 -0.539062 L 33.429688 -0.582031 L 22.441406 -44.871094 L 22.433594 -44.902344 C 22.46875 -44.742188 22.574219 -44.585938 22.757812 -44.433594 C 22.953125 -44.277344 23.144531 -44.195312 23.328125 -44.195312 L 14.144531 -44.195312 C 14.328125 -44.195312 14.519531 -44.277344 14.710938 -44.433594 C 14.894531 -44.585938 15.003906 -44.742188 15.039062 -44.902344 L 15.03125 -44.871094 L 4.042969 -0.582031 L 4.03125 -0.539062 C 4.042969 -0.582031 4.046875 -0.65625 4.039062 -0.753906 C 4.023438 -1.035156 3.921875 -1.292969 3.738281 -1.535156 C 3.558594 -1.769531 3.339844 -1.933594 3.085938 -2.019531 C 3 -2.050781 2.941406 -2.066406 2.90625 -2.066406 L 9.382812 -2.066406 C 9.152344 -2.066406 8.929688 -1.972656 8.71875 -1.785156 C 8.550781 -1.640625 8.453125 -1.496094 8.421875 -1.359375 L 8.429688 -1.386719 L 10.871094 -11.316406 L 26.519531 -11.316406 L 29.039062 -1.394531 L 29.050781 -1.359375 C 29.019531 -1.496094 28.921875 -1.640625 28.753906 -1.785156 C 28.539062 -1.972656 28.316406 -2.066406 28.085938 -2.066406 Z M 20.855469 -16.453125 L 16.691406 -34.429688 L 18.703125 -34.894531 L 20.714844 -34.429688 L 16.550781 -16.453125 L 14.539062 -16.917969 L 14.539062 -18.984375 L 22.867188 -18.984375 L 22.867188 -16.917969 Z M 25.464844 -14.851562 L 11.941406 -14.851562 L 16.691406 -35.359375 L 20.714844 -35.359375 L 24.878906 -17.382812 Z M 25.464844 -14.851562 "/></g></g><g style="fill:#b21a22;fill-opacity:1;"><g transform="translate(198.451021, 121.329263)"><path style="stroke:none" d="M 1.238281 -1.058594 L 1.238281 -45.203125 C 1.238281 -46.125 1.527344 -46.878906 2.109375 -47.457031 C 2.6875 -48.035156 3.4375 -48.328125 4.363281 -48.328125 L 20.222656 -48.328125 C 23.921875 -48.328125 26.777344 -47.320312 28.789062 -45.308594 C 30.796875 -43.296875 31.804688 -40.441406 31.804688 -36.746094 L 31.804688 -23.792969 C 31.804688 -20.136719 30.796875 -17.304688 28.789062 -15.292969 C 26.785156 -13.289062 23.9375 -12.261719 20.25 -12.210938 L 11.910156 -12.144531 L 11.894531 -14.207031 L 13.960938 -14.207031 L 13.960938 -0.992188 C 13.960938 -0.0703125 13.671875 0.683594 13.089844 1.261719 C 12.511719 1.839844 11.761719 2.132812 10.839844 2.132812 L 4.339844 2.066406 C 3.433594 2.066406 2.6875 1.777344 2.109375 1.195312 C 1.527344 0.617188 1.238281 -0.132812 1.238281 -1.058594 Z M 5.371094 -1.058594 C 5.371094 -1.105469 5.355469 -1.167969 5.328125 -1.246094 C 5.269531 -1.425781 5.171875 -1.582031 5.027344 -1.726562 C 4.886719 -1.867188 4.726562 -1.964844 4.550781 -2.027344 C 4.472656 -2.050781 4.414062 -2.066406 4.382812 -2.066406 L 10.839844 -2 C 10.792969 -2 10.726562 -1.984375 10.648438 -1.960938 C 10.472656 -1.902344 10.3125 -1.800781 10.171875 -1.660156 C 10.027344 -1.515625 9.929688 -1.359375 9.871094 -1.183594 C 9.84375 -1.101562 9.832031 -1.039062 9.832031 -0.992188 L 9.832031 -16.257812 L 20.195312 -16.339844 C 22.761719 -16.375 24.652344 -17 25.867188 -18.214844 C 27.070312 -19.417969 27.671875 -21.277344 27.671875 -23.792969 L 27.671875 -36.746094 C 27.671875 -39.300781 27.070312 -41.183594 25.867188 -42.386719 C 24.660156 -43.59375 22.78125 -44.195312 20.222656 -44.195312 L 4.363281 -44.195312 C 4.410156 -44.195312 4.472656 -44.207031 4.550781 -44.234375 C 4.726562 -44.292969 4.886719 -44.394531 5.027344 -44.535156 C 5.171875 -44.679688 5.269531 -44.835938 5.328125 -45.011719 C 5.355469 -45.09375 5.371094 -45.15625 5.371094 -45.203125 Z M 11.875 -24.800781 L 18.484375 -24.867188 C 18.714844 -24.867188 18.890625 -24.886719 19.007812 -24.925781 C 19.03125 -24.933594 19.042969 -24.9375 19.050781 -24.941406 C 19.046875 -24.9375 19.035156 -24.929688 19.027344 -24.921875 C 19.015625 -24.910156 19.007812 -24.902344 19.003906 -24.894531 C 19.011719 -24.902344 19.015625 -24.917969 19.023438 -24.941406 C 19.0625 -25.058594 19.082031 -25.226562 19.082031 -25.445312 L 19.082031 -35.09375 C 19.082031 -35.308594 19.0625 -35.476562 19.023438 -35.59375 C 19.015625 -35.617188 19.011719 -35.632812 19.003906 -35.640625 C 19.007812 -35.632812 19.015625 -35.625 19.027344 -35.613281 C 19.035156 -35.605469 19.046875 -35.597656 19.050781 -35.59375 C 19.042969 -35.597656 19.03125 -35.605469 19.007812 -35.609375 C 18.890625 -35.652344 18.722656 -35.671875 18.503906 -35.671875 L 11.917969 -35.605469 L 11.894531 -37.667969 L 13.960938 -37.667969 L 13.960938 -22.734375 L 11.894531 -22.734375 Z M 9.832031 -20.648438 L 9.832031 -39.714844 L 18.503906 -39.800781 C 19.957031 -39.800781 21.105469 -39.378906 21.949219 -38.535156 C 22.792969 -37.691406 23.214844 -36.542969 23.214844 -35.09375 L 23.214844 -25.445312 C 23.214844 -23.992188 22.792969 -22.84375 21.949219 -22 C 21.105469 -21.15625 19.960938 -20.734375 18.523438 -20.734375 L 11.917969 -20.667969 Z M 9.832031 -20.648438 "/></g></g><g style="fill:#b21a22;fill-opacity:1;"><g transform="translate(231.484054, 121.329263)"><path style="stroke:none" d="M 4.363281 -2.066406 L 11.234375 -2.066406 C 11.1875 -2.066406 11.125 -2.050781 11.042969 -2.027344 C 10.867188 -1.964844 10.710938 -1.867188 10.566406 -1.726562 C 10.425781 -1.582031 10.324219 -1.425781 10.265625 -1.246094 C 10.238281 -1.167969 10.226562 -1.105469 10.226562 -1.058594 L 10.226562 -45.203125 C 10.226562 -45.15625 10.238281 -45.09375 10.265625 -45.011719 C 10.324219 -44.835938 10.425781 -44.679688 10.566406 -44.535156 C 10.710938 -44.394531 10.867188 -44.292969 11.042969 -44.234375 C 11.125 -44.207031 11.1875 -44.195312 11.234375 -44.195312 L 4.363281 -44.195312 C 4.410156 -44.195312 4.472656 -44.207031 4.550781 -44.234375 C 4.726562 -44.292969 4.886719 -44.394531 5.027344 -44.535156 C 5.171875 -44.679688 5.269531 -44.835938 5.328125 -45.011719 C 5.355469 -45.09375 5.371094 -45.15625 5.371094 -45.203125 L 5.371094 -1.058594 C 5.371094 -1.105469 5.355469 -1.167969 5.328125 -1.246094 C 5.269531 -1.425781 5.171875 -1.582031 5.027344 -1.726562 C 4.886719 -1.867188 4.726562 -1.964844 4.550781 -2.027344 C 4.472656 -2.050781 4.410156 -2.066406 4.363281 -2.066406 Z M 4.363281 2.066406 C 3.4375 2.066406 2.6875 1.777344 2.109375 1.195312 C 1.527344 0.617188 1.238281 -0.132812 1.238281 -1.058594 L 1.238281 -45.203125 C 1.238281 -46.125 1.527344 -46.878906 2.109375 -47.457031 C 2.6875 -48.035156 3.4375 -48.328125 4.363281 -48.328125 L 11.234375 -48.328125 C 12.15625 -48.328125 12.910156 -48.035156 13.488281 -47.457031 C 14.066406 -46.878906 14.359375 -46.125 14.359375 -45.203125 L 14.359375 -1.058594 C 14.359375 -0.132812 14.066406 0.617188 13.488281 1.195312 C 12.910156 1.777344 12.15625 2.066406 11.234375 2.066406 Z M 4.363281 2.066406 "/></g></g><g style="fill:#b21a22;fill-opacity:1;"><g transform="translate(65.360068, 213.465704)"><path style="stroke:none" d="M 12.820312 -48.328125 L 20.222656 -48.328125 C 23.921875 -48.328125 26.777344 -47.320312 28.789062 -45.308594 C 30.796875 -43.296875 31.804688 -40.441406 31.804688 -36.746094 L 31.804688 -32.382812 C 31.804688 -31.460938 31.515625 -30.707031 30.933594 -30.128906 C 30.355469 -29.550781 29.605469 -29.261719 28.683594 -29.261719 L 22.007812 -29.261719 C 21.085938 -29.261719 20.332031 -29.550781 19.753906 -30.128906 C 19.175781 -30.707031 18.882812 -31.460938 18.882812 -32.382812 L 18.882812 -35.160156 C 18.882812 -35.375 18.863281 -35.542969 18.824219 -35.660156 C 18.816406 -35.683594 18.8125 -35.699219 18.808594 -35.707031 C 18.8125 -35.699219 18.820312 -35.691406 18.828125 -35.679688 C 18.839844 -35.671875 18.847656 -35.664062 18.855469 -35.660156 C 18.847656 -35.664062 18.832031 -35.667969 18.808594 -35.675781 C 18.691406 -35.714844 18.523438 -35.738281 18.304688 -35.738281 L 14.671875 -35.738281 C 14.453125 -35.738281 14.285156 -35.714844 14.167969 -35.675781 C 14.144531 -35.667969 14.132812 -35.664062 14.125 -35.660156 C 14.128906 -35.664062 14.140625 -35.671875 14.148438 -35.679688 C 14.160156 -35.691406 14.164062 -35.699219 14.171875 -35.707031 C 14.164062 -35.699219 14.160156 -35.683594 14.152344 -35.660156 C 14.113281 -35.542969 14.09375 -35.375 14.09375 -35.160156 L 14.09375 -29.539062 L 12.027344 -29.539062 L 12.660156 -31.507812 L 28.65625 -26.351562 C 29.675781 -26 30.457031 -25.4375 31 -24.664062 C 31.535156 -23.902344 31.804688 -22.992188 31.804688 -21.941406 L 31.804688 -9.515625 C 31.804688 -5.867188 30.800781 -3.027344 28.796875 -0.996094 C 26.785156 1.046875 23.925781 2.066406 20.222656 2.066406 L 12.820312 2.066406 C 9.167969 2.066406 6.324219 1.046875 4.289062 -0.984375 C 2.253906 -3.019531 1.238281 -5.863281 1.238281 -9.515625 L 1.238281 -13.8125 C 1.238281 -14.734375 1.527344 -15.484375 2.109375 -16.066406 C 2.6875 -16.644531 3.4375 -16.933594 4.363281 -16.933594 L 11.035156 -16.933594 C 11.960938 -16.933594 12.710938 -16.644531 13.289062 -16.066406 C 13.871094 -15.484375 14.160156 -14.734375 14.160156 -13.8125 L 14.160156 -11.035156 C 14.160156 -10.820312 14.179688 -10.652344 14.21875 -10.53125 C 14.226562 -10.511719 14.230469 -10.496094 14.238281 -10.488281 C 14.230469 -10.496094 14.226562 -10.503906 14.214844 -10.515625 C 14.207031 -10.523438 14.195312 -10.53125 14.1875 -10.535156 C 14.195312 -10.53125 14.210938 -10.523438 14.234375 -10.519531 C 14.351562 -10.476562 14.519531 -10.457031 14.738281 -10.457031 L 18.304688 -10.457031 C 18.523438 -10.457031 18.691406 -10.476562 18.808594 -10.519531 C 18.832031 -10.523438 18.847656 -10.53125 18.855469 -10.535156 C 18.847656 -10.53125 18.839844 -10.523438 18.828125 -10.515625 C 18.820312 -10.503906 18.8125 -10.496094 18.808594 -10.488281 C 18.8125 -10.496094 18.816406 -10.511719 18.824219 -10.53125 C 18.863281 -10.652344 18.882812 -10.820312 18.882812 -11.035156 L 18.882812 -17.710938 L 20.949219 -17.710938 L 20.3125 -15.746094 L 4.449219 -20.902344 C 3.429688 -21.242188 2.640625 -21.792969 2.082031 -22.558594 C 1.519531 -23.328125 1.238281 -24.246094 1.238281 -25.3125 L 1.238281 -36.746094 C 1.238281 -40.449219 2.257812 -43.304688 4.300781 -45.320312 C 6.332031 -47.324219 9.171875 -48.328125 12.820312 -48.328125 Z M 12.820312 -44.195312 C 10.300781 -44.195312 8.429688 -43.589844 7.199219 -42.378906 C 5.980469 -41.175781 5.371094 -39.296875 5.371094 -36.746094 L 5.371094 -25.3125 C 5.371094 -25.144531 5.386719 -25.039062 5.417969 -24.992188 C 5.457031 -24.941406 5.558594 -24.886719 5.726562 -24.832031 L 23.015625 -19.210938 L 23.015625 -11.035156 C 23.015625 -9.585938 22.59375 -8.4375 21.75 -7.59375 C 20.90625 -6.75 19.757812 -6.328125 18.304688 -6.328125 L 14.738281 -6.328125 C 13.285156 -6.328125 12.136719 -6.75 11.292969 -7.59375 C 10.449219 -8.4375 10.027344 -9.585938 10.027344 -11.035156 L 10.027344 -13.8125 C 10.027344 -13.765625 10.042969 -13.703125 10.070312 -13.621094 C 10.128906 -13.445312 10.226562 -13.285156 10.367188 -13.144531 C 10.511719 -13.003906 10.667969 -12.902344 10.847656 -12.84375 C 10.925781 -12.816406 10.988281 -12.804688 11.035156 -12.804688 L 4.363281 -12.804688 C 4.410156 -12.804688 4.472656 -12.816406 4.550781 -12.84375 C 4.726562 -12.902344 4.886719 -13.003906 5.027344 -13.144531 C 5.171875 -13.285156 5.269531 -13.445312 5.328125 -13.621094 C 5.355469 -13.703125 5.371094 -13.765625 5.371094 -13.8125 L 5.371094 -9.515625 C 5.371094 -7.003906 5.984375 -5.132812 7.210938 -3.90625 C 8.4375 -2.679688 10.308594 -2.066406 12.820312 -2.066406 L 20.222656 -2.066406 C 22.773438 -2.066406 24.652344 -2.675781 25.855469 -3.894531 C 27.066406 -5.125 27.671875 -6.996094 27.671875 -9.515625 L 27.671875 -21.941406 C 27.671875 -22.121094 27.65625 -22.238281 27.621094 -22.289062 C 27.589844 -22.332031 27.511719 -22.375 27.386719 -22.421875 L 9.960938 -28.035156 L 9.960938 -35.160156 C 9.960938 -36.609375 10.382812 -37.757812 11.226562 -38.601562 C 12.070312 -39.445312 13.21875 -39.867188 14.671875 -39.867188 L 18.304688 -39.867188 C 19.757812 -39.867188 20.90625 -39.445312 21.75 -38.601562 C 22.59375 -37.757812 23.015625 -36.609375 23.015625 -35.160156 L 23.015625 -32.382812 C 23.015625 -32.429688 23 -32.492188 22.976562 -32.574219 C 22.917969 -32.75 22.816406 -32.910156 22.675781 -33.050781 C 22.53125 -33.191406 22.375 -33.292969 22.199219 -33.351562 C 22.117188 -33.378906 22.054688 -33.390625 22.007812 -33.390625 L 28.683594 -33.390625 C 28.632812 -33.390625 28.570312 -33.378906 28.492188 -33.351562 C 28.316406 -33.292969 28.15625 -33.191406 28.015625 -33.050781 C 27.871094 -32.910156 27.773438 -32.75 27.714844 -32.574219 C 27.6875 -32.492188 27.671875 -32.429688 27.671875 -32.382812 L 27.671875 -36.746094 C 27.671875 -39.300781 27.070312 -41.183594 25.867188 -42.386719 C 24.660156 -43.59375 22.78125 -44.195312 20.222656 -44.195312 Z M 12.820312 -44.195312 "/></g></g><g style="fill:#b21a22;fill-opacity:1;"><g transform="translate(98.393102, 213.465704)"><path style="stroke:none" d="M 27.359375 -44.195312 L 3.039062 -44.195312 C 3.085938 -44.195312 3.152344 -44.207031 3.230469 -44.234375 C 3.40625 -44.292969 3.566406 -44.394531 3.707031 -44.535156 C 3.847656 -44.679688 3.949219 -44.835938 4.007812 -45.011719 C 4.035156 -45.09375 4.046875 -45.15625 4.046875 -45.203125 L 4.046875 -38.59375 C 4.046875 -38.640625 4.035156 -38.707031 4.007812 -38.785156 C 3.949219 -38.960938 3.847656 -39.121094 3.707031 -39.261719 C 3.566406 -39.402344 3.40625 -39.503906 3.230469 -39.5625 C 3.152344 -39.589844 3.085938 -39.601562 3.039062 -39.601562 L 12.769531 -39.601562 L 12.769531 -1.058594 C 12.769531 -1.105469 12.757812 -1.167969 12.730469 -1.246094 C 12.671875 -1.425781 12.574219 -1.582031 12.429688 -1.726562 C 12.289062 -1.867188 12.128906 -1.964844 11.953125 -2.027344 C 11.875 -2.050781 11.8125 -2.066406 11.761719 -2.066406 L 18.636719 -2.066406 C 18.589844 -2.066406 18.527344 -2.050781 18.445312 -2.027344 C 18.269531 -1.964844 18.109375 -1.867188 17.96875 -1.726562 C 17.828125 -1.582031 17.726562 -1.425781 17.667969 -1.246094 C 17.640625 -1.167969 17.628906 -1.105469 17.628906 -1.058594 L 17.628906 -39.601562 L 27.359375 -39.601562 C 27.3125 -39.601562 27.25 -39.589844 27.167969 -39.5625 C 26.992188 -39.503906 26.835938 -39.402344 26.691406 -39.261719 C 26.550781 -39.121094 26.449219 -38.960938 26.390625 -38.785156 C 26.367188 -38.707031 26.351562 -38.640625 26.351562 -38.59375 L 26.351562 -45.203125 C 26.351562 -45.15625 26.367188 -45.09375 26.390625 -45.011719 C 26.449219 -44.835938 26.550781 -44.679688 26.691406 -44.535156 C 26.835938 -44.394531 26.992188 -44.292969 27.167969 -44.234375 C 27.25 -44.207031 27.3125 -44.195312 27.359375 -44.195312 Z M 27.359375 -48.328125 C 28.28125 -48.328125 29.035156 -48.035156 29.613281 -47.457031 C 30.191406 -46.878906 30.484375 -46.125 30.484375 -45.203125 L 30.484375 -38.59375 C 30.484375 -37.671875 30.191406 -36.921875 29.613281 -36.339844 C 29.035156 -35.761719 28.28125 -35.472656 27.359375 -35.472656 L 19.695312 -35.472656 L 19.695312 -37.539062 L 21.757812 -37.539062 L 21.757812 -1.058594 C 21.757812 -0.132812 21.46875 0.617188 20.890625 1.195312 C 20.308594 1.777344 19.558594 2.066406 18.636719 2.066406 L 11.761719 2.066406 C 10.839844 2.066406 10.089844 1.777344 9.511719 1.195312 C 8.929688 0.617188 8.640625 -0.132812 8.640625 -1.058594 L 8.640625 -37.539062 L 10.707031 -37.539062 L 10.707031 -35.472656 L 3.039062 -35.472656 C 2.117188 -35.472656 1.367188 -35.761719 0.785156 -36.339844 C 0.207031 -36.921875 -0.0820312 -37.671875 -0.0820312 -38.59375 L -0.0820312 -45.203125 C -0.0820312 -46.125 0.207031 -46.878906 0.785156 -47.457031 C 1.367188 -48.035156 2.117188 -48.328125 3.039062 -48.328125 Z M 27.359375 -48.328125 "/></g></g><g style="fill:#b21a22;fill-opacity:1;"><g transform="translate(128.783496, 213.465704)"><path style="stroke:none" d="M 31.804688 -36.746094 L 31.804688 -23.460938 C 31.804688 -18.863281 30.246094 -15.59375 27.132812 -13.648438 L 26.039062 -15.398438 L 28.046875 -15.882812 L 31.480469 -1.675781 L 29.476562 -1.191406 L 31.464844 -1.742188 C 31.761719 -0.679688 31.617188 0.226562 31.039062 0.96875 C 30.472656 1.699219 29.640625 2.066406 28.550781 2.066406 L 22.074219 2.066406 C 21.269531 2.066406 20.585938 1.832031 20.015625 1.363281 C 19.457031 0.902344 19.097656 0.285156 18.929688 -0.492188 L 20.949219 -0.925781 L 18.941406 -0.4375 L 15.769531 -13.457031 L 17.777344 -13.945312 L 17.777344 -11.878906 L 11.894531 -11.878906 L 11.894531 -13.945312 L 13.960938 -13.945312 L 13.960938 -1.058594 C 13.960938 -0.132812 13.671875 0.617188 13.089844 1.195312 C 12.511719 1.777344 11.761719 2.066406 10.839844 2.066406 L 4.363281 2.066406 C 3.4375 2.066406 2.6875 1.777344 2.109375 1.195312 C 1.527344 0.617188 1.238281 -0.132812 1.238281 -1.058594 L 1.238281 -45.203125 C 1.238281 -46.125 1.527344 -46.878906 2.109375 -47.457031 C 2.6875 -48.035156 3.4375 -48.328125 4.363281 -48.328125 L 20.222656 -48.328125 C 23.921875 -48.328125 26.777344 -47.320312 28.789062 -45.308594 C 30.796875 -43.296875 31.804688 -40.441406 31.804688 -36.746094 Z M 27.671875 -36.746094 C 27.671875 -39.300781 27.070312 -41.183594 25.867188 -42.386719 C 24.660156 -43.59375 22.78125 -44.195312 20.222656 -44.195312 L 4.363281 -44.195312 C 4.410156 -44.195312 4.472656 -44.207031 4.550781 -44.234375 C 4.726562 -44.292969 4.886719 -44.394531 5.027344 -44.535156 C 5.171875 -44.679688 5.269531 -44.835938 5.328125 -45.011719 C 5.355469 -45.09375 5.371094 -45.15625 5.371094 -45.203125 L 5.371094 -1.058594 C 5.371094 -1.105469 5.355469 -1.167969 5.328125 -1.246094 C 5.269531 -1.425781 5.171875 -1.582031 5.027344 -1.726562 C 4.886719 -1.867188 4.726562 -1.964844 4.550781 -2.027344 C 4.472656 -2.050781 4.410156 -2.066406 4.363281 -2.066406 L 10.839844 -2.066406 C 10.792969 -2.066406 10.726562 -2.050781 10.648438 -2.027344 C 10.472656 -1.964844 10.3125 -1.867188 10.171875 -1.726562 C 10.027344 -1.582031 9.929688 -1.425781 9.871094 -1.246094 C 9.84375 -1.167969 9.832031 -1.105469 9.832031 -1.058594 L 9.832031 -16.007812 L 19.398438 -16.007812 L 22.964844 -1.386719 L 22.96875 -1.359375 C 22.933594 -1.519531 22.824219 -1.675781 22.640625 -1.824219 C 22.449219 -1.984375 22.257812 -2.066406 22.074219 -2.066406 L 28.550781 -2.066406 L 28.550781 -2.0625 C 28.507812 -2.058594 28.457031 -2.046875 28.402344 -2.027344 C 28.160156 -1.941406 27.953125 -1.789062 27.777344 -1.566406 C 27.601562 -1.335938 27.5 -1.089844 27.480469 -0.820312 C 27.472656 -0.730469 27.476562 -0.667969 27.484375 -0.636719 L 27.476562 -0.671875 L 23.679688 -16.359375 L 24.945312 -17.148438 C 26.765625 -18.289062 27.671875 -20.390625 27.671875 -23.460938 Z M 11.894531 -24.535156 L 18.503906 -24.535156 C 18.722656 -24.535156 18.890625 -24.554688 19.007812 -24.59375 C 19.03125 -24.601562 19.042969 -24.609375 19.050781 -24.613281 C 19.046875 -24.609375 19.035156 -24.601562 19.027344 -24.589844 C 19.015625 -24.582031 19.007812 -24.574219 19.003906 -24.566406 C 19.011719 -24.574219 19.015625 -24.585938 19.023438 -24.609375 C 19.0625 -24.726562 19.082031 -24.894531 19.082031 -25.113281 L 19.082031 -35.09375 C 19.082031 -35.308594 19.0625 -35.476562 19.023438 -35.59375 C 19.015625 -35.617188 19.011719 -35.632812 19.003906 -35.640625 C 19.007812 -35.632812 19.015625 -35.625 19.027344 -35.613281 C 19.035156 -35.605469 19.046875 -35.597656 19.050781 -35.59375 C 19.042969 -35.597656 19.03125 -35.605469 19.007812 -35.609375 C 18.890625 -35.652344 18.722656 -35.671875 18.503906 -35.671875 L 11.894531 -35.671875 L 11.894531 -37.734375 L 13.960938 -37.734375 L 13.960938 -22.46875 L 11.894531 -22.46875 Z M 9.832031 -20.402344 L 9.832031 -39.800781 L 18.503906 -39.800781 C 19.957031 -39.800781 21.105469 -39.378906 21.949219 -38.535156 C 22.792969 -37.691406 23.214844 -36.542969 23.214844 -35.09375 L 23.214844 -25.113281 C 23.214844 -23.660156 22.792969 -22.515625 21.949219 -21.671875 C 21.105469 -20.824219 19.957031 -20.402344 18.503906 -20.402344 Z M 9.832031 -20.402344 "/></g></g><g style="fill:#b21a22;fill-opacity:1;"><g transform="translate(161.81653, 213.465704)"><path style="stroke:none" d="M 34.496094 2.066406 L 28.085938 2.066406 C 27.285156 2.066406 26.597656 1.816406 26.03125 1.324219 C 25.511719 0.867188 25.171875 0.261719 25.011719 -0.492188 L 27.03125 -0.925781 L 25.027344 -0.417969 L 22.914062 -8.742188 L 24.914062 -9.253906 L 24.914062 -7.1875 L 12.492188 -7.1875 L 12.492188 -9.253906 L 14.496094 -8.757812 L 12.449219 -0.433594 L 10.441406 -0.925781 L 12.460938 -0.492188 C 12.300781 0.261719 11.957031 0.867188 11.4375 1.324219 C 10.871094 1.816406 10.1875 2.066406 9.382812 2.066406 L 2.90625 2.066406 C 1.832031 2.066406 1.015625 1.703125 0.457031 0.972656 C -0.109375 0.230469 -0.238281 -0.660156 0.0664062 -1.707031 L 2.046875 -1.125 L 0.0429688 -1.621094 L 11.015625 -45.832031 L 13.019531 -45.335938 L 11 -45.769531 C 11.167969 -46.546875 11.527344 -47.164062 12.085938 -47.625 C 12.65625 -48.09375 13.339844 -48.328125 14.144531 -48.328125 L 23.328125 -48.328125 C 24.132812 -48.328125 24.816406 -48.09375 25.386719 -47.625 C 25.941406 -47.164062 26.304688 -46.546875 26.472656 -45.769531 L 24.453125 -45.335938 L 26.457031 -45.832031 L 37.425781 -1.621094 L 35.421875 -1.125 L 37.402344 -1.707031 C 37.71875 -0.632812 37.570312 0.28125 36.949219 1.03125 C 36.382812 1.722656 35.566406 2.066406 34.496094 2.066406 Z M 34.496094 -2.066406 C 34.507812 -2.066406 34.515625 -2.066406 34.523438 -2.066406 C 34.523438 -2.066406 34.519531 -2.066406 34.515625 -2.066406 C 34.476562 -2.058594 34.433594 -2.050781 34.382812 -2.035156 C 34.148438 -1.957031 33.941406 -1.808594 33.761719 -1.59375 C 33.5625 -1.351562 33.453125 -1.085938 33.429688 -0.792969 C 33.421875 -0.679688 33.425781 -0.597656 33.441406 -0.539062 L 33.429688 -0.582031 L 22.441406 -44.871094 L 22.433594 -44.902344 C 22.46875 -44.742188 22.574219 -44.585938 22.757812 -44.433594 C 22.953125 -44.277344 23.144531 -44.195312 23.328125 -44.195312 L 14.144531 -44.195312 C 14.328125 -44.195312 14.519531 -44.277344 14.710938 -44.433594 C 14.894531 -44.585938 15.003906 -44.742188 15.039062 -44.902344 L 15.03125 -44.871094 L 4.042969 -0.582031 L 4.03125 -0.539062 C 4.042969 -0.582031 4.046875 -0.65625 4.039062 -0.753906 C 4.023438 -1.035156 3.921875 -1.292969 3.738281 -1.535156 C 3.558594 -1.769531 3.339844 -1.933594 3.085938 -2.019531 C 3 -2.050781 2.941406 -2.066406 2.90625 -2.066406 L 9.382812 -2.066406 C 9.152344 -2.066406 8.929688 -1.972656 8.71875 -1.785156 C 8.550781 -1.640625 8.453125 -1.496094 8.421875 -1.359375 L 8.429688 -1.386719 L 10.871094 -11.316406 L 26.519531 -11.316406 L 29.039062 -1.394531 L 29.050781 -1.359375 C 29.019531 -1.496094 28.921875 -1.640625 28.753906 -1.785156 C 28.539062 -1.972656 28.316406 -2.066406 28.085938 -2.066406 Z M 20.855469 -16.453125 L 16.691406 -34.429688 L 18.703125 -34.894531 L 20.714844 -34.429688 L 16.550781 -16.453125 L 14.539062 -16.917969 L 14.539062 -18.984375 L 22.867188 -18.984375 L 22.867188 -16.917969 Z M 25.464844 -14.851562 L 11.941406 -14.851562 L 16.691406 -35.359375 L 20.714844 -35.359375 L 24.878906 -17.382812 Z M 25.464844 -14.851562 "/></g></g><g style="fill:#b21a22;fill-opacity:1;"><g transform="translate(199.275997, 213.465704)"><path style="stroke:none" d="M 24.253906 -48.328125 L 30.464844 -48.328125 C 31.390625 -48.328125 32.140625 -48.035156 32.71875 -47.457031 C 33.300781 -46.878906 33.589844 -46.125 33.589844 -45.203125 L 33.589844 -1.058594 C 33.589844 -0.132812 33.300781 0.617188 32.71875 1.195312 C 32.140625 1.777344 31.390625 2.066406 30.464844 2.066406 L 25.246094 2.066406 C 24.535156 2.066406 23.902344 1.863281 23.34375 1.460938 C 22.851562 1.105469 22.464844 0.621094 22.179688 0.0078125 L 24.054688 -0.859375 L 22.203125 0.0546875 L 9.777344 -25.191406 L 11.632812 -26.105469 L 13.695312 -26.105469 L 13.695312 -1.058594 C 13.695312 -0.132812 13.40625 0.617188 12.828125 1.195312 C 12.246094 1.777344 11.496094 2.066406 10.574219 2.066406 L 4.363281 2.066406 C 3.4375 2.066406 2.6875 1.777344 2.109375 1.195312 C 1.527344 0.617188 1.238281 -0.132812 1.238281 -1.058594 L 1.238281 -45.203125 C 1.238281 -46.125 1.527344 -46.878906 2.109375 -47.457031 C 2.6875 -48.035156 3.4375 -48.328125 4.363281 -48.328125 L 9.582031 -48.328125 C 10.292969 -48.328125 10.925781 -48.125 11.484375 -47.71875 C 11.976562 -47.367188 12.363281 -46.882812 12.648438 -46.265625 L 10.773438 -45.402344 L 12.625 -46.3125 L 25.050781 -21.070312 L 23.195312 -20.15625 L 21.132812 -20.15625 L 21.132812 -45.203125 C 21.132812 -46.125 21.421875 -46.878906 22 -47.457031 C 22.578125 -48.035156 23.332031 -48.328125 24.253906 -48.328125 Z M 24.253906 -44.195312 C 24.300781 -44.195312 24.363281 -44.207031 24.445312 -44.234375 C 24.621094 -44.292969 24.78125 -44.394531 24.921875 -44.535156 C 25.0625 -44.679688 25.164062 -44.835938 25.222656 -45.011719 C 25.25 -45.09375 25.261719 -45.15625 25.261719 -45.203125 L 25.261719 -20.15625 L 21.34375 -19.246094 L 8.90625 -44.511719 L 8.898438 -44.535156 C 8.917969 -44.496094 8.972656 -44.441406 9.066406 -44.371094 C 9.230469 -44.253906 9.402344 -44.195312 9.582031 -44.195312 L 4.363281 -44.195312 C 4.410156 -44.195312 4.472656 -44.207031 4.550781 -44.234375 C 4.726562 -44.292969 4.886719 -44.394531 5.027344 -44.535156 C 5.171875 -44.679688 5.269531 -44.835938 5.328125 -45.011719 C 5.355469 -45.09375 5.371094 -45.15625 5.371094 -45.203125 L 5.371094 -1.058594 C 5.371094 -1.105469 5.355469 -1.167969 5.328125 -1.246094 C 5.269531 -1.425781 5.171875 -1.582031 5.027344 -1.726562 C 4.886719 -1.867188 4.726562 -1.964844 4.550781 -2.027344 C 4.472656 -2.050781 4.410156 -2.066406 4.363281 -2.066406 L 10.574219 -2.066406 C 10.527344 -2.066406 10.464844 -2.050781 10.382812 -2.027344 C 10.207031 -1.964844 10.046875 -1.867188 9.90625 -1.726562 C 9.765625 -1.582031 9.664062 -1.425781 9.605469 -1.246094 C 9.578125 -1.167969 9.566406 -1.105469 9.566406 -1.058594 L 9.566406 -26.105469 L 13.484375 -27.015625 L 25.921875 -1.746094 L 25.929688 -1.726562 C 25.910156 -1.765625 25.855469 -1.820312 25.761719 -1.890625 C 25.597656 -2.007812 25.425781 -2.066406 25.246094 -2.066406 L 30.464844 -2.066406 C 30.417969 -2.066406 30.355469 -2.050781 30.277344 -2.027344 C 30.097656 -1.964844 29.941406 -1.867188 29.796875 -1.726562 C 29.65625 -1.582031 29.558594 -1.425781 29.496094 -1.246094 C 29.472656 -1.167969 29.457031 -1.105469 29.457031 -1.058594 L 29.457031 -45.203125 C 29.457031 -45.15625 29.472656 -45.09375 29.496094 -45.011719 C 29.558594 -44.835938 29.65625 -44.679688 29.796875 -44.535156 C 29.941406 -44.394531 30.097656 -44.292969 30.277344 -44.234375 C 30.355469 -44.207031 30.417969 -44.195312 30.464844 -44.195312 Z M 24.253906 -44.195312 "/></g></g><g style="fill:#b21a22;fill-opacity:1;"><g transform="translate(234.092825, 213.465704)"><path style="stroke:none" d="M 1.238281 -9.515625 L 1.238281 -36.746094 C 1.238281 -40.449219 2.257812 -43.304688 4.300781 -45.320312 C 6.332031 -47.324219 9.171875 -48.328125 12.820312 -48.328125 L 20.222656 -48.328125 C 23.921875 -48.328125 26.777344 -47.320312 28.789062 -45.308594 C 30.796875 -43.296875 31.804688 -40.441406 31.804688 -36.746094 L 31.804688 -9.515625 C 31.804688 -5.867188 30.800781 -3.027344 28.796875 -0.996094 C 26.785156 1.046875 23.925781 2.066406 20.222656 2.066406 L 12.820312 2.066406 C 9.167969 2.066406 6.324219 1.046875 4.289062 -0.984375 C 2.253906 -3.019531 1.238281 -5.863281 1.238281 -9.515625 Z M 5.371094 -9.515625 C 5.371094 -7.003906 5.984375 -5.132812 7.210938 -3.90625 C 8.4375 -2.679688 10.308594 -2.066406 12.820312 -2.066406 L 20.222656 -2.066406 C 22.773438 -2.066406 24.652344 -2.675781 25.855469 -3.894531 C 27.066406 -5.125 27.671875 -6.996094 27.671875 -9.515625 L 27.671875 -36.746094 C 27.671875 -39.300781 27.070312 -41.183594 25.867188 -42.386719 C 24.660156 -43.59375 22.78125 -44.195312 20.222656 -44.195312 L 12.820312 -44.195312 C 10.300781 -44.195312 8.429688 -43.589844 7.199219 -42.378906 C 5.980469 -41.175781 5.371094 -39.296875 5.371094 -36.746094 Z M 14.539062 -10.589844 L 18.769531 -10.589844 C 18.984375 -10.589844 19.152344 -10.609375 19.273438 -10.648438 C 19.292969 -10.65625 19.308594 -10.664062 19.316406 -10.667969 C 19.308594 -10.664062 19.300781 -10.65625 19.289062 -10.648438 C 19.28125 -10.636719 19.273438 -10.628906 19.269531 -10.621094 C 19.273438 -10.628906 19.28125 -10.644531 19.289062 -10.664062 C 19.328125 -10.785156 19.347656 -10.953125 19.347656 -11.167969 L 19.347656 -35.09375 C 19.347656 -35.308594 19.328125 -35.476562 19.289062 -35.59375 C 19.28125 -35.617188 19.273438 -35.632812 19.269531 -35.640625 C 19.273438 -35.632812 19.28125 -35.625 19.289062 -35.613281 C 19.300781 -35.605469 19.308594 -35.597656 19.316406 -35.59375 C 19.308594 -35.597656 19.292969 -35.605469 19.273438 -35.609375 C 19.152344 -35.652344 18.984375 -35.671875 18.769531 -35.671875 L 14.539062 -35.671875 C 14.320312 -35.671875 14.152344 -35.652344 14.035156 -35.609375 C 14.015625 -35.605469 14 -35.597656 13.992188 -35.59375 C 14 -35.597656 14.007812 -35.605469 14.015625 -35.613281 C 14.027344 -35.625 14.035156 -35.632812 14.039062 -35.640625 C 14.035156 -35.632812 14.027344 -35.617188 14.019531 -35.59375 C 13.980469 -35.476562 13.960938 -35.308594 13.960938 -35.09375 L 13.960938 -11.167969 C 13.960938 -10.953125 13.980469 -10.785156 14.019531 -10.664062 C 14.027344 -10.644531 14.035156 -10.628906 14.039062 -10.621094 C 14.035156 -10.628906 14.027344 -10.636719 14.015625 -10.648438 C 14.007812 -10.65625 14 -10.664062 13.992188 -10.667969 C 14 -10.664062 14.015625 -10.65625 14.035156 -10.648438 C 14.152344 -10.609375 14.320312 -10.589844 14.539062 -10.589844 Z M 14.539062 -6.460938 C 13.085938 -6.460938 11.941406 -6.882812 11.097656 -7.726562 C 10.253906 -8.570312 9.832031 -9.71875 9.832031 -11.167969 L 9.832031 -35.09375 C 9.832031 -36.542969 10.253906 -37.691406 11.097656 -38.535156 C 11.941406 -39.378906 13.085938 -39.800781 14.539062 -39.800781 L 18.769531 -39.800781 C 20.21875 -39.800781 21.367188 -39.378906 22.210938 -38.535156 C 23.054688 -37.691406 23.476562 -36.542969 23.476562 -35.09375 L 23.476562 -11.167969 C 23.476562 -9.71875 23.054688 -8.570312 22.210938 -7.726562 C 21.367188 -6.882812 20.21875 -6.460938 18.769531 -6.460938 Z M 14.539062 -6.460938 "/></g></g><g style="fill:#b21a22;fill-opacity:1;"><g transform="translate(267.125859, 213.465704)"><path style="stroke:none" d="M -2.066406 8.855469 L -2.066406 2.777344 C -2.066406 1.765625 -1.753906 0.949219 -1.128906 0.324219 C -0.507812 -0.300781 0.3125 -0.613281 1.320312 -0.613281 L 41.171875 -0.613281 C 42.183594 -0.613281 43 -0.300781 43.625 0.324219 C 44.246094 0.949219 44.558594 1.765625 44.558594 2.777344 L 44.558594 8.855469 C 44.558594 9.867188 44.246094 10.683594 43.625 11.308594 C 43 11.929688 42.183594 12.242188 41.171875 12.242188 L 1.320312 12.242188 C 0.3125 12.242188 -0.507812 11.929688 -1.128906 11.308594 C -1.753906 10.683594 -2.066406 9.867188 -2.066406 8.855469 Z M 2.066406 8.855469 C 2.066406 8.863281 2.066406 8.871094 2.066406 8.878906 C 2.066406 8.878906 2.066406 8.875 2.066406 8.875 C 2.0625 8.847656 2.054688 8.816406 2.042969 8.78125 C 1.996094 8.636719 1.910156 8.507812 1.789062 8.386719 C 1.671875 8.265625 1.539062 8.183594 1.398438 8.136719 C 1.363281 8.125 1.332031 8.117188 1.304688 8.113281 C 1.300781 8.113281 1.300781 8.113281 1.300781 8.113281 C 1.304688 8.113281 1.3125 8.113281 1.320312 8.113281 L 41.171875 8.113281 C 41.179688 8.113281 41.1875 8.113281 41.195312 8.113281 C 41.195312 8.113281 41.191406 8.113281 41.191406 8.113281 C 41.164062 8.117188 41.132812 8.125 41.097656 8.136719 C 40.953125 8.183594 40.824219 8.265625 40.703125 8.386719 C 40.582031 8.507812 40.5 8.636719 40.453125 8.78125 C 40.441406 8.816406 40.433594 8.847656 40.429688 8.875 C 40.429688 8.875 40.429688 8.878906 40.429688 8.878906 C 40.429688 8.871094 40.429688 8.863281 40.429688 8.855469 L 40.429688 2.777344 C 40.429688 2.765625 40.429688 2.757812 40.429688 2.753906 C 40.429688 2.753906 40.429688 2.753906 40.429688 2.757812 C 40.433594 2.785156 40.441406 2.816406 40.453125 2.851562 C 40.5 2.992188 40.582031 3.125 40.703125 3.246094 C 40.824219 3.363281 40.953125 3.449219 41.097656 3.496094 C 41.132812 3.507812 41.164062 3.515625 41.191406 3.519531 C 41.191406 3.519531 41.195312 3.519531 41.195312 3.519531 C 41.1875 3.519531 41.179688 3.519531 41.171875 3.519531 L 1.320312 3.519531 C 1.3125 3.519531 1.304688 3.519531 1.300781 3.519531 C 1.300781 3.519531 1.300781 3.519531 1.304688 3.519531 C 1.332031 3.515625 1.363281 3.507812 1.398438 3.496094 C 1.539062 3.449219 1.671875 3.363281 1.789062 3.246094 C 1.910156 3.125 1.996094 2.992188 2.042969 2.851562 C 2.054688 2.816406 2.0625 2.785156 2.066406 2.757812 C 2.066406 2.753906 2.066406 2.753906 2.066406 2.753906 C 2.066406 2.757812 2.066406 2.765625 2.066406 2.777344 Z M 2.066406 8.855469 "/></g></g><g style="fill:#b21a22;fill-opacity:1;"><g transform="translate(90.959341, 305.602146)"><path style="stroke:none" d="M 30.929688 -48.328125 L 39.652344 -48.328125 C 40.664062 -48.328125 41.480469 -48.015625 42.105469 -47.390625 C 42.726562 -46.765625 43.039062 -45.949219 43.039062 -44.9375 L 43.039062 -1.320312 C 43.039062 -0.3125 42.726562 0.507812 42.105469 1.128906 C 41.480469 1.753906 40.664062 2.066406 39.652344 2.066406 L 33.507812 2.066406 C 32.496094 2.066406 31.679688 1.753906 31.054688 1.128906 C 30.429688 0.507812 30.117188 -0.3125 30.117188 -1.320312 L 30.117188 -27.292969 L 32.183594 -27.292969 L 32.183594 -25.230469 L 31.722656 -25.230469 L 31.722656 -27.292969 L 33.730469 -26.816406 L 27.507812 -0.59375 L 27.492188 -0.539062 C 27.253906 0.261719 26.839844 0.894531 26.242188 1.351562 C 25.628906 1.828125 24.898438 2.066406 24.054688 2.066406 L 20.15625 2.066406 C 19.3125 2.066406 18.582031 1.828125 17.96875 1.351562 C 17.371094 0.894531 16.957031 0.261719 16.722656 -0.539062 L 16.707031 -0.59375 L 10.480469 -26.816406 L 12.492188 -27.292969 L 12.492188 -25.230469 L 12.027344 -25.230469 L 12.027344 -27.292969 L 14.09375 -27.292969 L 14.09375 -1.320312 C 14.09375 -0.3125 13.78125 0.507812 13.15625 1.128906 C 12.535156 1.753906 11.71875 2.066406 10.707031 2.066406 L 4.625 2.066406 C 3.613281 2.066406 2.796875 1.753906 2.175781 1.128906 C 1.550781 0.507812 1.238281 -0.3125 1.238281 -1.320312 L 1.238281 -44.9375 C 1.238281 -45.949219 1.550781 -46.765625 2.175781 -47.390625 C 2.796875 -48.015625 3.613281 -48.328125 4.625 -48.328125 L 13.347656 -48.328125 C 14.195312 -48.328125 14.921875 -48.089844 15.539062 -47.613281 C 16.132812 -47.152344 16.550781 -46.523438 16.785156 -45.71875 L 16.796875 -45.679688 L 24.144531 -16.160156 L 22.140625 -15.664062 L 20.136719 -16.160156 L 27.480469 -45.679688 L 27.492188 -45.71875 C 27.730469 -46.523438 28.144531 -47.152344 28.742188 -47.613281 C 29.355469 -48.089844 30.085938 -48.328125 30.929688 -48.328125 Z M 30.929688 -44.195312 C 31.023438 -44.195312 31.136719 -44.246094 31.265625 -44.347656 C 31.339844 -44.402344 31.398438 -44.464844 31.4375 -44.53125 C 31.449219 -44.546875 31.457031 -44.5625 31.460938 -44.574219 C 31.460938 -44.570312 31.460938 -44.566406 31.457031 -44.554688 L 29.476562 -45.136719 L 31.480469 -44.636719 L 24.144531 -15.164062 L 20.136719 -15.164062 L 12.800781 -44.636719 L 14.804688 -45.136719 L 12.820312 -44.554688 C 12.820312 -44.566406 12.816406 -44.570312 12.816406 -44.574219 C 12.820312 -44.5625 12.828125 -44.546875 12.839844 -44.53125 C 12.882812 -44.464844 12.9375 -44.402344 13.011719 -44.347656 C 13.140625 -44.246094 13.253906 -44.195312 13.347656 -44.195312 L 4.625 -44.195312 C 4.617188 -44.195312 4.609375 -44.195312 4.601562 -44.195312 C 4.605469 -44.195312 4.605469 -44.195312 4.609375 -44.195312 C 4.636719 -44.199219 4.664062 -44.207031 4.699219 -44.21875 C 4.84375 -44.265625 4.976562 -44.351562 5.09375 -44.46875 C 5.214844 -44.589844 5.296875 -44.722656 5.347656 -44.863281 C 5.359375 -44.898438 5.367188 -44.929688 5.371094 -44.957031 C 5.371094 -44.960938 5.371094 -44.960938 5.371094 -44.960938 C 5.371094 -44.957031 5.371094 -44.949219 5.371094 -44.9375 L 5.371094 -1.320312 C 5.371094 -1.3125 5.371094 -1.304688 5.371094 -1.300781 C 5.371094 -1.300781 5.371094 -1.300781 5.371094 -1.304688 C 5.367188 -1.332031 5.359375 -1.363281 5.347656 -1.398438 C 5.296875 -1.539062 5.214844 -1.671875 5.09375 -1.789062 C 4.976562 -1.910156 4.84375 -1.996094 4.699219 -2.042969 C 4.664062 -2.054688 4.636719 -2.0625 4.609375 -2.066406 C 4.605469 -2.066406 4.605469 -2.066406 4.601562 -2.066406 C 4.609375 -2.066406 4.617188 -2.066406 4.625 -2.066406 L 10.707031 -2.066406 C 10.714844 -2.066406 10.722656 -2.066406 10.730469 -2.066406 C 10.730469 -2.066406 10.726562 -2.066406 10.722656 -2.066406 C 10.695312 -2.0625 10.667969 -2.054688 10.632812 -2.042969 C 10.488281 -1.996094 10.355469 -1.910156 10.238281 -1.789062 C 10.117188 -1.671875 10.035156 -1.539062 9.984375 -1.398438 C 9.972656 -1.363281 9.964844 -1.332031 9.960938 -1.304688 C 9.960938 -1.300781 9.960938 -1.300781 9.960938 -1.300781 C 9.960938 -1.304688 9.960938 -1.3125 9.960938 -1.320312 L 9.960938 -29.359375 L 14.121094 -29.359375 L 20.710938 -1.601562 L 18.703125 -1.125 L 20.683594 -1.707031 C 20.6875 -1.695312 20.6875 -1.691406 20.691406 -1.6875 C 20.683594 -1.699219 20.675781 -1.714844 20.667969 -1.730469 C 20.625 -1.796875 20.566406 -1.859375 20.496094 -1.914062 C 20.363281 -2.015625 20.253906 -2.066406 20.15625 -2.066406 L 24.054688 -2.066406 C 23.960938 -2.066406 23.847656 -2.015625 23.71875 -1.914062 C 23.644531 -1.859375 23.585938 -1.796875 23.546875 -1.730469 C 23.535156 -1.714844 23.527344 -1.699219 23.523438 -1.6875 C 23.523438 -1.691406 23.523438 -1.695312 23.527344 -1.707031 L 25.507812 -1.125 L 23.5 -1.601562 L 30.089844 -29.359375 L 34.25 -29.359375 L 34.25 -1.320312 C 34.25 -1.3125 34.25 -1.304688 34.25 -1.300781 C 34.25 -1.300781 34.25 -1.300781 34.25 -1.304688 C 34.246094 -1.332031 34.238281 -1.363281 34.226562 -1.398438 C 34.179688 -1.539062 34.09375 -1.671875 33.976562 -1.789062 C 33.855469 -1.910156 33.722656 -1.996094 33.582031 -2.042969 C 33.546875 -2.054688 33.515625 -2.0625 33.488281 -2.066406 C 33.484375 -2.066406 33.484375 -2.066406 33.484375 -2.066406 C 33.488281 -2.066406 33.496094 -2.066406 33.507812 -2.066406 L 39.652344 -2.066406 C 39.660156 -2.066406 39.667969 -2.066406 39.675781 -2.066406 C 39.675781 -2.066406 39.671875 -2.066406 39.667969 -2.066406 C 39.644531 -2.0625 39.613281 -2.054688 39.578125 -2.042969 C 39.433594 -1.996094 39.304688 -1.910156 39.183594 -1.789062 C 39.0625 -1.671875 38.980469 -1.539062 38.933594 -1.398438 C 38.921875 -1.363281 38.914062 -1.332031 38.910156 -1.304688 C 38.910156 -1.300781 38.90625 -1.300781 38.90625 -1.300781 C 38.910156 -1.304688 38.910156 -1.3125 38.910156 -1.320312 L 38.910156 -44.9375 C 38.910156 -44.949219 38.910156 -44.957031 38.90625 -44.960938 C 38.90625 -44.960938 38.910156 -44.960938 38.910156 -44.957031 C 38.914062 -44.929688 38.921875 -44.898438 38.933594 -44.863281 C 38.980469 -44.722656 39.0625 -44.589844 39.183594 -44.46875 C 39.304688 -44.351562 39.433594 -44.265625 39.578125 -44.21875 C 39.613281 -44.207031 39.644531 -44.199219 39.667969 -44.195312 C 39.671875 -44.195312 39.675781 -44.195312 39.675781 -44.195312 C 39.667969 -44.195312 39.660156 -44.195312 39.652344 -44.195312 Z M 30.929688 -44.195312 "/></g></g><g style="fill:#b21a22;fill-opacity:1;"><g transform="translate(135.223599, 305.602146)"><path style="stroke:none" d="M 34.496094 2.066406 L 28.085938 2.066406 C 27.285156 2.066406 26.597656 1.816406 26.03125 1.324219 C 25.511719 0.867188 25.171875 0.261719 25.011719 -0.492188 L 27.03125 -0.925781 L 25.027344 -0.417969 L 22.914062 -8.742188 L 24.914062 -9.253906 L 24.914062 -7.1875 L 12.492188 -7.1875 L 12.492188 -9.253906 L 14.496094 -8.757812 L 12.449219 -0.433594 L 10.441406 -0.925781 L 12.460938 -0.492188 C 12.300781 0.261719 11.957031 0.867188 11.4375 1.324219 C 10.871094 1.816406 10.1875 2.066406 9.382812 2.066406 L 2.90625 2.066406 C 1.832031 2.066406 1.015625 1.703125 0.457031 0.972656 C -0.109375 0.230469 -0.238281 -0.660156 0.0664062 -1.707031 L 2.046875 -1.125 L 0.0429688 -1.621094 L 11.015625 -45.832031 L 13.019531 -45.335938 L 11 -45.769531 C 11.167969 -46.546875 11.527344 -47.164062 12.085938 -47.625 C 12.65625 -48.09375 13.339844 -48.328125 14.144531 -48.328125 L 23.328125 -48.328125 C 24.132812 -48.328125 24.816406 -48.09375 25.386719 -47.625 C 25.941406 -47.164062 26.304688 -46.546875 26.472656 -45.769531 L 24.453125 -45.335938 L 26.457031 -45.832031 L 37.425781 -1.621094 L 35.421875 -1.125 L 37.402344 -1.707031 C 37.71875 -0.632812 37.570312 0.28125 36.949219 1.03125 C 36.382812 1.722656 35.566406 2.066406 34.496094 2.066406 Z M 34.496094 -2.066406 C 34.507812 -2.066406 34.515625 -2.066406 34.523438 -2.066406 C 34.523438 -2.066406 34.519531 -2.066406 34.515625 -2.066406 C 34.476562 -2.058594 34.433594 -2.050781 34.382812 -2.035156 C 34.148438 -1.957031 33.941406 -1.808594 33.761719 -1.59375 C 33.5625 -1.351562 33.453125 -1.085938 33.429688 -0.792969 C 33.421875 -0.679688 33.425781 -0.597656 33.441406 -0.539062 L 33.429688 -0.582031 L 22.441406 -44.871094 L 22.433594 -44.902344 C 22.46875 -44.742188 22.574219 -44.585938 22.757812 -44.433594 C 22.953125 -44.277344 23.144531 -44.195312 23.328125 -44.195312 L 14.144531 -44.195312 C 14.328125 -44.195312 14.519531 -44.277344 14.710938 -44.433594 C 14.894531 -44.585938 15.003906 -44.742188 15.039062 -44.902344 L 15.03125 -44.871094 L 4.042969 -0.582031 L 4.03125 -0.539062 C 4.042969 -0.582031 4.046875 -0.65625 4.039062 -0.753906 C 4.023438 -1.035156 3.921875 -1.292969 3.738281 -1.535156 C 3.558594 -1.769531 3.339844 -1.933594 3.085938 -2.019531 C 3 -2.050781 2.941406 -2.066406 2.90625 -2.066406 L 9.382812 -2.066406 C 9.152344 -2.066406 8.929688 -1.972656 8.71875 -1.785156 C 8.550781 -1.640625 8.453125 -1.496094 8.421875 -1.359375 L 8.429688 -1.386719 L 10.871094 -11.316406 L 26.519531 -11.316406 L 29.039062 -1.394531 L 29.050781 -1.359375 C 29.019531 -1.496094 28.921875 -1.640625 28.753906 -1.785156 C 28.539062 -1.972656 28.316406 -2.066406 28.085938 -2.066406 Z M 20.855469 -16.453125 L 16.691406 -34.429688 L 18.703125 -34.894531 L 20.714844 -34.429688 L 16.550781 -16.453125 L 14.539062 -16.917969 L 14.539062 -18.984375 L 22.867188 -18.984375 L 22.867188 -16.917969 Z M 25.464844 -14.851562 L 11.941406 -14.851562 L 16.691406 -35.359375 L 20.714844 -35.359375 L 24.878906 -17.382812 Z M 25.464844 -14.851562 "/></g></g><g style="fill:#b21a22;fill-opacity:1;"><g transform="translate(172.683066, 305.602146)"><path style="stroke:none" d="M 4.363281 -2.066406 L 11.234375 -2.066406 C 11.1875 -2.066406 11.125 -2.050781 11.042969 -2.027344 C 10.867188 -1.964844 10.710938 -1.867188 10.566406 -1.726562 C 10.425781 -1.582031 10.324219 -1.425781 10.265625 -1.246094 C 10.238281 -1.167969 10.226562 -1.105469 10.226562 -1.058594 L 10.226562 -45.203125 C 10.226562 -45.15625 10.238281 -45.09375 10.265625 -45.011719 C 10.324219 -44.835938 10.425781 -44.679688 10.566406 -44.535156 C 10.710938 -44.394531 10.867188 -44.292969 11.042969 -44.234375 C 11.125 -44.207031 11.1875 -44.195312 11.234375 -44.195312 L 4.363281 -44.195312 C 4.410156 -44.195312 4.472656 -44.207031 4.550781 -44.234375 C 4.726562 -44.292969 4.886719 -44.394531 5.027344 -44.535156 C 5.171875 -44.679688 5.269531 -44.835938 5.328125 -45.011719 C 5.355469 -45.09375 5.371094 -45.15625 5.371094 -45.203125 L 5.371094 -1.058594 C 5.371094 -1.105469 5.355469 -1.167969 5.328125 -1.246094 C 5.269531 -1.425781 5.171875 -1.582031 5.027344 -1.726562 C 4.886719 -1.867188 4.726562 -1.964844 4.550781 -2.027344 C 4.472656 -2.050781 4.410156 -2.066406 4.363281 -2.066406 Z M 4.363281 2.066406 C 3.4375 2.066406 2.6875 1.777344 2.109375 1.195312 C 1.527344 0.617188 1.238281 -0.132812 1.238281 -1.058594 L 1.238281 -45.203125 C 1.238281 -46.125 1.527344 -46.878906 2.109375 -47.457031 C 2.6875 -48.035156 3.4375 -48.328125 4.363281 -48.328125 L 11.234375 -48.328125 C 12.15625 -48.328125 12.910156 -48.035156 13.488281 -47.457031 C 14.066406 -46.878906 14.359375 -46.125 14.359375 -45.203125 L 14.359375 -1.058594 C 14.359375 -0.132812 14.066406 0.617188 13.488281 1.195312 C 12.910156 1.777344 12.15625 2.066406 11.234375 2.066406 Z M 4.363281 2.066406 "/></g></g><g style="fill:#b21a22;fill-opacity:1;"><g transform="translate(188.274648, 305.602146)"><path style="stroke:none" d="M 10.226562 -8.722656 L 10.226562 -45.203125 C 10.226562 -45.15625 10.238281 -45.09375 10.265625 -45.011719 C 10.324219 -44.835938 10.425781 -44.679688 10.566406 -44.535156 C 10.710938 -44.394531 10.867188 -44.292969 11.042969 -44.234375 C 11.125 -44.207031 11.1875 -44.195312 11.234375 -44.195312 L 4.363281 -44.195312 C 4.410156 -44.195312 4.472656 -44.207031 4.550781 -44.234375 C 4.726562 -44.292969 4.886719 -44.394531 5.027344 -44.535156 C 5.171875 -44.679688 5.269531 -44.835938 5.328125 -45.011719 C 5.355469 -45.09375 5.371094 -45.15625 5.371094 -45.203125 L 5.371094 -1.058594 C 5.371094 -1.105469 5.355469 -1.167969 5.328125 -1.246094 C 5.269531 -1.425781 5.171875 -1.582031 5.027344 -1.726562 C 4.886719 -1.867188 4.726562 -1.964844 4.550781 -2.027344 C 4.472656 -2.050781 4.410156 -2.066406 4.363281 -2.066406 L 25.378906 -2.066406 C 25.332031 -2.066406 25.265625 -2.050781 25.1875 -2.027344 C 25.011719 -1.964844 24.851562 -1.867188 24.710938 -1.726562 C 24.566406 -1.582031 24.46875 -1.425781 24.410156 -1.246094 C 24.382812 -1.167969 24.371094 -1.105469 24.371094 -1.058594 L 24.371094 -7.667969 C 24.371094 -7.617188 24.382812 -7.554688 24.410156 -7.476562 C 24.46875 -7.300781 24.566406 -7.140625 24.710938 -7 C 24.851562 -6.855469 25.011719 -6.757812 25.1875 -6.699219 C 25.265625 -6.671875 25.332031 -6.65625 25.378906 -6.65625 L 10.226562 -6.65625 Z M 14.359375 -8.722656 L 12.292969 -8.722656 L 12.292969 -10.789062 L 25.378906 -10.789062 C 26.300781 -10.789062 27.050781 -10.5 27.632812 -9.917969 C 28.210938 -9.339844 28.5 -8.589844 28.5 -7.667969 L 28.5 -1.058594 C 28.5 -0.132812 28.210938 0.617188 27.632812 1.195312 C 27.050781 1.777344 26.300781 2.066406 25.378906 2.066406 L 4.363281 2.066406 C 3.4375 2.066406 2.6875 1.777344 2.109375 1.195312 C 1.527344 0.617188 1.238281 -0.132812 1.238281 -1.058594 L 1.238281 -45.203125 C 1.238281 -46.125 1.527344 -46.878906 2.109375 -47.457031 C 2.6875 -48.035156 3.4375 -48.328125 4.363281 -48.328125 L 11.234375 -48.328125 C 12.15625 -48.328125 12.910156 -48.035156 13.488281 -47.457031 C 14.066406 -46.878906 14.359375 -46.125 14.359375 -45.203125 Z M 14.359375 -8.722656 "/></g></g><g style="fill:#b21a22;fill-opacity:1;"><g transform="translate(218.004375, 305.602146)"><path style="stroke:none" d="M 31.738281 -45.203125 L 31.738281 -38.59375 C 31.738281 -37.675781 31.464844 -36.921875 30.914062 -36.335938 C 30.328125 -35.714844 29.5625 -35.40625 28.617188 -35.40625 L 12.292969 -35.40625 L 12.292969 -37.472656 L 14.359375 -37.472656 L 14.359375 -27.292969 L 12.292969 -27.292969 L 12.292969 -29.359375 L 24.714844 -29.359375 C 25.664062 -29.359375 26.429688 -29.050781 27.011719 -28.429688 C 27.5625 -27.84375 27.839844 -27.089844 27.839844 -26.171875 L 27.839844 -19.628906 C 27.839844 -18.707031 27.5625 -17.953125 27.011719 -17.371094 C 26.429688 -16.75 25.664062 -16.4375 24.714844 -16.4375 L 12.292969 -16.4375 L 12.292969 -18.503906 L 14.359375 -18.503906 L 14.359375 -8.722656 L 12.292969 -8.722656 L 12.292969 -10.789062 L 28.617188 -10.789062 C 29.539062 -10.789062 30.289062 -10.5 30.867188 -9.917969 C 31.449219 -9.339844 31.738281 -8.589844 31.738281 -7.667969 L 31.738281 -1.058594 C 31.738281 -0.132812 31.449219 0.617188 30.867188 1.195312 C 30.289062 1.777344 29.539062 2.066406 28.617188 2.066406 L 4.296875 2.066406 C 3.367188 2.066406 2.617188 1.757812 2.046875 1.148438 C 1.507812 0.574219 1.238281 -0.160156 1.238281 -1.058594 L 1.238281 -45.203125 C 1.238281 -46.101562 1.507812 -46.835938 2.046875 -47.410156 C 2.617188 -48.019531 3.367188 -48.328125 4.296875 -48.328125 L 28.617188 -48.328125 C 29.539062 -48.328125 30.289062 -48.035156 30.867188 -47.457031 C 31.449219 -46.878906 31.738281 -46.125 31.738281 -45.203125 Z M 27.609375 -45.203125 C 27.609375 -45.15625 27.621094 -45.09375 27.648438 -45.011719 C 27.707031 -44.835938 27.804688 -44.679688 27.949219 -44.535156 C 28.089844 -44.394531 28.25 -44.292969 28.425781 -44.234375 C 28.503906 -44.207031 28.570312 -44.195312 28.617188 -44.195312 L 4.296875 -44.195312 C 4.5625 -44.195312 4.816406 -44.324219 5.058594 -44.582031 C 5.191406 -44.726562 5.285156 -44.882812 5.335938 -45.050781 C 5.359375 -45.117188 5.371094 -45.167969 5.371094 -45.203125 L 5.371094 -1.058594 C 5.371094 -1.089844 5.359375 -1.140625 5.335938 -1.210938 C 5.285156 -1.378906 5.191406 -1.535156 5.058594 -1.675781 C 4.816406 -1.9375 4.5625 -2.066406 4.296875 -2.066406 L 28.617188 -2.066406 C 28.570312 -2.066406 28.503906 -2.050781 28.425781 -2.027344 C 28.25 -1.964844 28.089844 -1.867188 27.949219 -1.726562 C 27.804688 -1.582031 27.707031 -1.425781 27.648438 -1.246094 C 27.621094 -1.167969 27.609375 -1.105469 27.609375 -1.058594 L 27.609375 -7.667969 C 27.609375 -7.617188 27.621094 -7.554688 27.648438 -7.476562 C 27.707031 -7.300781 27.804688 -7.140625 27.949219 -7 C 28.089844 -6.855469 28.25 -6.757812 28.425781 -6.699219 C 28.503906 -6.671875 28.570312 -6.65625 28.617188 -6.65625 L 10.226562 -6.65625 L 10.226562 -20.570312 L 24.714844 -20.570312 C 24.65625 -20.570312 24.582031 -20.554688 24.488281 -20.519531 C 24.308594 -20.457031 24.144531 -20.351562 24.003906 -20.199219 C 23.878906 -20.0625 23.789062 -19.914062 23.738281 -19.753906 C 23.71875 -19.695312 23.707031 -19.652344 23.707031 -19.628906 L 23.707031 -26.171875 C 23.707031 -26.148438 23.71875 -26.105469 23.738281 -26.042969 C 23.789062 -25.882812 23.878906 -25.734375 24.003906 -25.597656 C 24.144531 -25.449219 24.308594 -25.339844 24.488281 -25.277344 C 24.582031 -25.246094 24.65625 -25.230469 24.714844 -25.230469 L 10.226562 -25.230469 L 10.226562 -39.535156 L 28.617188 -39.535156 C 28.554688 -39.535156 28.480469 -39.519531 28.390625 -39.488281 C 28.207031 -39.425781 28.046875 -39.316406 27.90625 -39.167969 C 27.777344 -39.03125 27.6875 -38.882812 27.636719 -38.722656 C 27.617188 -38.660156 27.609375 -38.617188 27.609375 -38.59375 Z M 27.609375 -45.203125 "/></g></g><g style="fill:#b21a22;fill-opacity:1;"><g transform="translate(250.971332, 305.602146)"><path style="stroke:none" d="M 31.804688 -36.746094 L 31.804688 -23.460938 C 31.804688 -18.863281 30.246094 -15.59375 27.132812 -13.648438 L 26.039062 -15.398438 L 28.046875 -15.882812 L 31.480469 -1.675781 L 29.476562 -1.191406 L 31.464844 -1.742188 C 31.761719 -0.679688 31.617188 0.226562 31.039062 0.96875 C 30.472656 1.699219 29.640625 2.066406 28.550781 2.066406 L 22.074219 2.066406 C 21.269531 2.066406 20.585938 1.832031 20.015625 1.363281 C 19.457031 0.902344 19.097656 0.285156 18.929688 -0.492188 L 20.949219 -0.925781 L 18.941406 -0.4375 L 15.769531 -13.457031 L 17.777344 -13.945312 L 17.777344 -11.878906 L 11.894531 -11.878906 L 11.894531 -13.945312 L 13.960938 -13.945312 L 13.960938 -1.058594 C 13.960938 -0.132812 13.671875 0.617188 13.089844 1.195312 C 12.511719 1.777344 11.761719 2.066406 10.839844 2.066406 L 4.363281 2.066406 C 3.4375 2.066406 2.6875 1.777344 2.109375 1.195312 C 1.527344 0.617188 1.238281 -0.132812 1.238281 -1.058594 L 1.238281 -45.203125 C 1.238281 -46.125 1.527344 -46.878906 2.109375 -47.457031 C 2.6875 -48.035156 3.4375 -48.328125 4.363281 -48.328125 L 20.222656 -48.328125 C 23.921875 -48.328125 26.777344 -47.320312 28.789062 -45.308594 C 30.796875 -43.296875 31.804688 -40.441406 31.804688 -36.746094 Z M 27.671875 -36.746094 C 27.671875 -39.300781 27.070312 -41.183594 25.867188 -42.386719 C 24.660156 -43.59375 22.78125 -44.195312 20.222656 -44.195312 L 4.363281 -44.195312 C 4.410156 -44.195312 4.472656 -44.207031 4.550781 -44.234375 C 4.726562 -44.292969 4.886719 -44.394531 5.027344 -44.535156 C 5.171875 -44.679688 5.269531 -44.835938 5.328125 -45.011719 C 5.355469 -45.09375 5.371094 -45.15625 5.371094 -45.203125 L 5.371094 -1.058594 C 5.371094 -1.105469 5.355469 -1.167969 5.328125 -1.246094 C 5.269531 -1.425781 5.171875 -1.582031 5.027344 -1.726562 C 4.886719 -1.867188 4.726562 -1.964844 4.550781 -2.027344 C 4.472656 -2.050781 4.410156 -2.066406 4.363281 -2.066406 L 10.839844 -2.066406 C 10.792969 -2.066406 10.726562 -2.050781 10.648438 -2.027344 C 10.472656 -1.964844 10.3125 -1.867188 10.171875 -1.726562 C 10.027344 -1.582031 9.929688 -1.425781 9.871094 -1.246094 C 9.84375 -1.167969 9.832031 -1.105469 9.832031 -1.058594 L 9.832031 -16.007812 L 19.398438 -16.007812 L 22.964844 -1.386719 L 22.96875 -1.359375 C 22.933594 -1.519531 22.824219 -1.675781 22.640625 -1.824219 C 22.449219 -1.984375 22.257812 -2.066406 22.074219 -2.066406 L 28.550781 -2.066406 L 28.550781 -2.0625 C 28.507812 -2.058594 28.457031 -2.046875 28.402344 -2.027344 C 28.160156 -1.941406 27.953125 -1.789062 27.777344 -1.566406 C 27.601562 -1.335938 27.5 -1.089844 27.480469 -0.820312 C 27.472656 -0.730469 27.476562 -0.667969 27.484375 -0.636719 L 27.476562 -0.671875 L 23.679688 -16.359375 L 24.945312 -17.148438 C 26.765625 -18.289062 27.671875 -20.390625 27.671875 -23.460938 Z M 11.894531 -24.535156 L 18.503906 -24.535156 C 18.722656 -24.535156 18.890625 -24.554688 19.007812 -24.59375 C 19.03125 -24.601562 19.042969 -24.609375 19.050781 -24.613281 C 19.046875 -24.609375 19.035156 -24.601562 19.027344 -24.589844 C 19.015625 -24.582031 19.007812 -24.574219 19.003906 -24.566406 C 19.011719 -24.574219 19.015625 -24.585938 19.023438 -24.609375 C 19.0625 -24.726562 19.082031 -24.894531 19.082031 -25.113281 L 19.082031 -35.09375 C 19.082031 -35.308594 19.0625 -35.476562 19.023438 -35.59375 C 19.015625 -35.617188 19.011719 -35.632812 19.003906 -35.640625 C 19.007812 -35.632812 19.015625 -35.625 19.027344 -35.613281 C 19.035156 -35.605469 19.046875 -35.597656 19.050781 -35.59375 C 19.042969 -35.597656 19.03125 -35.605469 19.007812 -35.609375 C 18.890625 -35.652344 18.722656 -35.671875 18.503906 -35.671875 L 11.894531 -35.671875 L 11.894531 -37.734375 L 13.960938 -37.734375 L 13.960938 -22.46875 L 11.894531 -22.46875 Z M 9.832031 -20.402344 L 9.832031 -39.800781 L 18.503906 -39.800781 C 19.957031 -39.800781 21.105469 -39.378906 21.949219 -38.535156 C 22.792969 -37.691406 23.214844 -36.542969 23.214844 -35.09375 L 23.214844 -25.113281 C 23.214844 -23.660156 22.792969 -22.515625 21.949219 -21.671875 C 21.105469 -20.824219 19.957031 -20.402344 18.503906 -20.402344 Z M 9.832031 -20.402344 "/></g></g><g style="fill:#060705;fill-opacity:1;"><g transform="translate(127.892443, 121.329263)"><path style="stroke:none" d="M 29.8125 -36.75 L 29.8125 -29.609375 C 29.8125 -28.898438 29.457031 -28.546875 28.75 -28.546875 L 22.53125 -28.546875 C 21.832031 -28.546875 21.484375 -28.898438 21.484375 -29.609375 L 21.484375 -35.03125 C 21.484375 -36.789062 20.601562 -37.671875 18.84375 -37.671875 L 14.609375 -37.671875 C 12.847656 -37.671875 11.96875 -36.789062 11.96875 -35.03125 L 11.96875 -11.03125 C 11.96875 -9.269531 12.847656 -8.390625 14.609375 -8.390625 L 18.84375 -8.390625 C 20.601562 -8.390625 21.484375 -9.269531 21.484375 -11.03125 L 21.484375 -16.65625 C 21.484375 -17.363281 21.832031 -17.71875 22.53125 -17.71875 L 28.75 -17.71875 C 29.457031 -17.71875 29.8125 -17.363281 29.8125 -16.65625 L 29.8125 -9.515625 C 29.8125 -6.429688 28.992188 -4.070312 27.359375 -2.4375 C 25.734375 -0.8125 23.378906 0 20.296875 0 L 12.890625 0 C 9.804688 0 7.4375 -0.8125 5.78125 -2.4375 C 4.125 -4.070312 3.296875 -6.429688 3.296875 -9.515625 L 3.296875 -36.75 C 3.296875 -39.875 4.125 -42.238281 5.78125 -43.84375 C 7.4375 -45.457031 9.804688 -46.265625 12.890625 -46.265625 L 20.296875 -46.265625 C 23.378906 -46.265625 25.734375 -45.457031 27.359375 -43.84375 C 28.992188 -42.238281 29.8125 -39.875 29.8125 -36.75 Z M 29.8125 -36.75 "/></g></g><g style="fill:#060705;fill-opacity:1;"><g transform="translate(160.991553, 121.329263)"><path style="stroke:none" d="M 34.5 0 L 28.09375 0 C 27.519531 0 27.164062 -0.304688 27.03125 -0.921875 L 24.921875 -9.25 L 12.484375 -9.25 L 10.4375 -0.921875 C 10.3125 -0.304688 9.960938 0 9.390625 0 L 2.90625 0 C 2.113281 0 1.828125 -0.375 2.046875 -1.125 L 13.015625 -45.34375 C 13.148438 -45.957031 13.523438 -46.265625 14.140625 -46.265625 L 23.328125 -46.265625 C 23.941406 -46.265625 24.316406 -45.957031 24.453125 -45.34375 L 35.421875 -1.125 C 35.640625 -0.375 35.332031 0 34.5 0 Z M 22.875 -16.921875 L 18.703125 -34.890625 L 14.546875 -16.921875 Z M 22.875 -16.921875 "/></g></g><g style="fill:#060705;fill-opacity:1;"><g transform="translate(198.451021, 121.329263)"><path style="stroke:none" d="M 3.296875 -1.0625 L 3.296875 -45.203125 C 3.296875 -45.910156 3.648438 -46.265625 4.359375 -46.265625 L 20.21875 -46.265625 C 23.351562 -46.265625 25.722656 -45.457031 27.328125 -43.84375 C 28.929688 -42.238281 29.734375 -39.875 29.734375 -36.75 L 29.734375 -23.796875 C 29.734375 -20.710938 28.929688 -18.363281 27.328125 -16.75 C 25.722656 -15.144531 23.351562 -14.320312 20.21875 -14.28125 L 11.890625 -14.203125 L 11.890625 -0.984375 C 11.890625 -0.285156 11.539062 0.0625 10.84375 0.0625 L 4.359375 0 C 3.648438 0 3.296875 -0.351562 3.296875 -1.0625 Z M 11.890625 -22.734375 L 18.5 -22.796875 C 20.269531 -22.796875 21.15625 -23.679688 21.15625 -25.453125 L 21.15625 -35.09375 C 21.15625 -36.851562 20.269531 -37.734375 18.5 -37.734375 L 11.890625 -37.671875 Z M 11.890625 -22.734375 "/></g></g><g style="fill:#060705;fill-opacity:1;"><g transform="translate(231.484054, 121.329263)"><path style="stroke:none" d="M 4.359375 0 L 11.234375 0 C 11.941406 0 12.296875 -0.351562 12.296875 -1.0625 L 12.296875 -45.203125 C 12.296875 -45.910156 11.941406 -46.265625 11.234375 -46.265625 L 4.359375 -46.265625 C 3.648438 -46.265625 3.296875 -45.910156 3.296875 -45.203125 L 3.296875 -1.0625 C 3.296875 -0.351562 3.648438 0 4.359375 0 Z M 4.359375 0 "/></g></g><g style="fill:#060705;fill-opacity:1;"><g transform="translate(65.360068, 213.465704)"><path style="stroke:none" d="M 12.828125 -46.265625 L 20.21875 -46.265625 C 23.351562 -46.265625 25.722656 -45.457031 27.328125 -43.84375 C 28.929688 -42.238281 29.734375 -39.875 29.734375 -36.75 L 29.734375 -32.390625 C 29.734375 -31.679688 29.382812 -31.328125 28.6875 -31.328125 L 22.015625 -31.328125 C 21.304688 -31.328125 20.953125 -31.679688 20.953125 -32.390625 L 20.953125 -35.15625 C 20.953125 -36.925781 20.070312 -37.8125 18.3125 -37.8125 L 14.671875 -37.8125 C 12.910156 -37.8125 12.03125 -36.925781 12.03125 -35.15625 L 12.03125 -29.546875 L 28.03125 -24.390625 C 29.164062 -23.992188 29.734375 -23.175781 29.734375 -21.9375 L 29.734375 -9.515625 C 29.734375 -6.429688 28.929688 -4.070312 27.328125 -2.4375 C 25.722656 -0.8125 23.351562 0 20.21875 0 L 12.828125 0 C 9.742188 0 7.382812 -0.8125 5.75 -2.4375 C 4.113281 -4.070312 3.296875 -6.429688 3.296875 -9.515625 L 3.296875 -13.8125 C 3.296875 -14.519531 3.648438 -14.875 4.359375 -14.875 L 11.03125 -14.875 C 11.738281 -14.875 12.09375 -14.519531 12.09375 -13.8125 L 12.09375 -11.03125 C 12.09375 -9.269531 12.972656 -8.390625 14.734375 -8.390625 L 18.3125 -8.390625 C 20.070312 -8.390625 20.953125 -9.269531 20.953125 -11.03125 L 20.953125 -17.71875 L 5.09375 -22.875 C 3.894531 -23.269531 3.296875 -24.082031 3.296875 -25.3125 L 3.296875 -36.75 C 3.296875 -39.875 4.113281 -42.238281 5.75 -43.84375 C 7.382812 -45.457031 9.742188 -46.265625 12.828125 -46.265625 Z M 12.828125 -46.265625 "/></g></g><g style="fill:#060705;fill-opacity:1;"><g transform="translate(98.393102, 213.465704)"><path style="stroke:none" d="M 27.359375 -46.265625 L 3.046875 -46.265625 C 2.335938 -46.265625 1.984375 -45.910156 1.984375 -45.203125 L 1.984375 -38.59375 C 1.984375 -37.894531 2.335938 -37.546875 3.046875 -37.546875 L 10.703125 -37.546875 L 10.703125 -1.0625 C 10.703125 -0.351562 11.054688 0 11.765625 0 L 18.640625 0 C 19.347656 0 19.703125 -0.351562 19.703125 -1.0625 L 19.703125 -37.546875 L 27.359375 -37.546875 C 28.066406 -37.546875 28.421875 -37.894531 28.421875 -38.59375 L 28.421875 -45.203125 C 28.421875 -45.910156 28.066406 -46.265625 27.359375 -46.265625 Z M 27.359375 -46.265625 "/></g></g><g style="fill:#060705;fill-opacity:1;"><g transform="translate(128.783496, 213.465704)"><path style="stroke:none" d="M 29.734375 -36.75 L 29.734375 -23.46875 C 29.734375 -19.632812 28.503906 -16.945312 26.046875 -15.40625 L 29.484375 -1.1875 C 29.703125 -0.394531 29.390625 0 28.546875 0 L 22.078125 0 C 21.460938 0 21.085938 -0.304688 20.953125 -0.921875 L 17.78125 -13.953125 L 11.890625 -13.953125 L 11.890625 -1.0625 C 11.890625 -0.351562 11.539062 0 10.84375 0 L 4.359375 0 C 3.648438 0 3.296875 -0.351562 3.296875 -1.0625 L 3.296875 -45.203125 C 3.296875 -45.910156 3.648438 -46.265625 4.359375 -46.265625 L 20.21875 -46.265625 C 23.351562 -46.265625 25.722656 -45.457031 27.328125 -43.84375 C 28.929688 -42.238281 29.734375 -39.875 29.734375 -36.75 Z M 11.890625 -22.46875 L 18.5 -22.46875 C 20.269531 -22.46875 21.15625 -23.347656 21.15625 -25.109375 L 21.15625 -35.09375 C 21.15625 -36.851562 20.269531 -37.734375 18.5 -37.734375 L 11.890625 -37.734375 Z M 11.890625 -22.46875 "/></g></g><g style="fill:#060705;fill-opacity:1;"><g transform="translate(161.81653, 213.465704)"><path style="stroke:none" d="M 34.5 0 L 28.09375 0 C 27.519531 0 27.164062 -0.304688 27.03125 -0.921875 L 24.921875 -9.25 L 12.484375 -9.25 L 10.4375 -0.921875 C 10.3125 -0.304688 9.960938 0 9.390625 0 L 2.90625 0 C 2.113281 0 1.828125 -0.375 2.046875 -1.125 L 13.015625 -45.34375 C 13.148438 -45.957031 13.523438 -46.265625 14.140625 -46.265625 L 23.328125 -46.265625 C 23.941406 -46.265625 24.316406 -45.957031 24.453125 -45.34375 L 35.421875 -1.125 C 35.640625 -0.375 35.332031 0 34.5 0 Z M 22.875 -16.921875 L 18.703125 -34.890625 L 14.546875 -16.921875 Z M 22.875 -16.921875 "/></g></g><g style="fill:#060705;fill-opacity:1;"><g transform="translate(199.275997, 213.465704)"><path style="stroke:none" d="M 24.25 -46.265625 L 30.46875 -46.265625 C 31.175781 -46.265625 31.53125 -45.910156 31.53125 -45.203125 L 31.53125 -1.0625 C 31.53125 -0.351562 31.175781 0 30.46875 0 L 25.25 0 C 24.71875 0 24.320312 -0.285156 24.0625 -0.859375 L 11.625 -26.109375 L 11.625 -1.0625 C 11.625 -0.351562 11.273438 0 10.578125 0 L 4.359375 0 C 3.648438 0 3.296875 -0.351562 3.296875 -1.0625 L 3.296875 -45.203125 C 3.296875 -45.910156 3.648438 -46.265625 4.359375 -46.265625 L 9.578125 -46.265625 C 10.109375 -46.265625 10.503906 -45.976562 10.765625 -45.40625 L 23.203125 -20.15625 L 23.203125 -45.203125 C 23.203125 -45.910156 23.550781 -46.265625 24.25 -46.265625 Z M 24.25 -46.265625 "/></g></g><g style="fill:#060705;fill-opacity:1;"><g transform="translate(234.092825, 213.465704)"><path style="stroke:none" d="M 3.296875 -9.515625 L 3.296875 -36.75 C 3.296875 -39.875 4.113281 -42.238281 5.75 -43.84375 C 7.382812 -45.457031 9.742188 -46.265625 12.828125 -46.265625 L 20.21875 -46.265625 C 23.351562 -46.265625 25.722656 -45.457031 27.328125 -43.84375 C 28.929688 -42.238281 29.734375 -39.875 29.734375 -36.75 L 29.734375 -9.515625 C 29.734375 -6.429688 28.929688 -4.070312 27.328125 -2.4375 C 25.722656 -0.8125 23.351562 0 20.21875 0 L 12.828125 0 C 9.742188 0 7.382812 -0.8125 5.75 -2.4375 C 4.113281 -4.070312 3.296875 -6.429688 3.296875 -9.515625 Z M 14.546875 -8.53125 L 18.765625 -8.53125 C 20.535156 -8.53125 21.421875 -9.410156 21.421875 -11.171875 L 21.421875 -35.09375 C 21.421875 -36.851562 20.535156 -37.734375 18.765625 -37.734375 L 14.546875 -37.734375 C 12.773438 -37.734375 11.890625 -36.851562 11.890625 -35.09375 L 11.890625 -11.171875 C 11.890625 -9.410156 12.773438 -8.53125 14.546875 -8.53125 Z M 14.546875 -8.53125 "/></g></g><g style="fill:#060705;fill-opacity:1;"><g transform="translate(267.125859, 213.465704)"><path style="stroke:none" d="M 0 8.859375 L 0 2.78125 C 0 1.894531 0.441406 1.453125 1.328125 1.453125 L 41.171875 1.453125 C 42.054688 1.453125 42.5 1.894531 42.5 2.78125 L 42.5 8.859375 C 42.5 9.734375 42.054688 10.171875 41.171875 10.171875 L 1.328125 10.171875 C 0.441406 10.171875 0 9.734375 0 8.859375 Z M 0 8.859375 "/></g></g><g style="fill:#060705;fill-opacity:1;"><g transform="translate(90.959341, 305.602146)"><path style="stroke:none" d="M 30.9375 -46.265625 L 39.65625 -46.265625 C 40.539062 -46.265625 40.984375 -45.820312 40.984375 -44.9375 L 40.984375 -1.328125 C 40.984375 -0.441406 40.539062 0 39.65625 0 L 33.515625 0 C 32.628906 0 32.1875 -0.441406 32.1875 -1.328125 L 32.1875 -27.296875 L 31.71875 -27.296875 L 25.515625 -1.125 C 25.296875 -0.375 24.8125 0 24.0625 0 L 20.15625 0 C 19.40625 0 18.921875 -0.375 18.703125 -1.125 L 12.484375 -27.296875 L 12.03125 -27.296875 L 12.03125 -1.328125 C 12.03125 -0.441406 11.585938 0 10.703125 0 L 4.625 0 C 3.738281 0 3.296875 -0.441406 3.296875 -1.328125 L 3.296875 -44.9375 C 3.296875 -45.820312 3.738281 -46.265625 4.625 -46.265625 L 13.34375 -46.265625 C 14.09375 -46.265625 14.582031 -45.890625 14.8125 -45.140625 L 22.140625 -15.671875 L 29.484375 -45.140625 C 29.703125 -45.890625 30.1875 -46.265625 30.9375 -46.265625 Z M 30.9375 -46.265625 "/></g></g><g style="fill:#060705;fill-opacity:1;"><g transform="translate(135.223599, 305.602146)"><path style="stroke:none" d="M 34.5 0 L 28.09375 0 C 27.519531 0 27.164062 -0.304688 27.03125 -0.921875 L 24.921875 -9.25 L 12.484375 -9.25 L 10.4375 -0.921875 C 10.3125 -0.304688 9.960938 0 9.390625 0 L 2.90625 0 C 2.113281 0 1.828125 -0.375 2.046875 -1.125 L 13.015625 -45.34375 C 13.148438 -45.957031 13.523438 -46.265625 14.140625 -46.265625 L 23.328125 -46.265625 C 23.941406 -46.265625 24.316406 -45.957031 24.453125 -45.34375 L 35.421875 -1.125 C 35.640625 -0.375 35.332031 0 34.5 0 Z M 22.875 -16.921875 L 18.703125 -34.890625 L 14.546875 -16.921875 Z M 22.875 -16.921875 "/></g></g><g style="fill:#060705;fill-opacity:1;"><g transform="translate(172.683066, 305.602146)"><path style="stroke:none" d="M 4.359375 0 L 11.234375 0 C 11.941406 0 12.296875 -0.351562 12.296875 -1.0625 L 12.296875 -45.203125 C 12.296875 -45.910156 11.941406 -46.265625 11.234375 -46.265625 L 4.359375 -46.265625 C 3.648438 -46.265625 3.296875 -45.910156 3.296875 -45.203125 L 3.296875 -1.0625 C 3.296875 -0.351562 3.648438 0 4.359375 0 Z M 4.359375 0 "/></g></g><g style="fill:#060705;fill-opacity:1;"><g transform="translate(188.274648, 305.602146)"><path style="stroke:none" d="M 12.296875 -8.71875 L 12.296875 -45.203125 C 12.296875 -45.910156 11.941406 -46.265625 11.234375 -46.265625 L 4.359375 -46.265625 C 3.648438 -46.265625 3.296875 -45.910156 3.296875 -45.203125 L 3.296875 -1.0625 C 3.296875 -0.351562 3.648438 0 4.359375 0 L 25.375 0 C 26.082031 0 26.4375 -0.351562 26.4375 -1.0625 L 26.4375 -7.671875 C 26.4375 -8.367188 26.082031 -8.71875 25.375 -8.71875 Z M 12.296875 -8.71875 "/></g></g><g style="fill:#060705;fill-opacity:1;"><g transform="translate(218.004375, 305.602146)"><path style="stroke:none" d="M 29.671875 -45.203125 L 29.671875 -38.59375 C 29.671875 -37.84375 29.320312 -37.46875 28.625 -37.46875 L 12.296875 -37.46875 L 12.296875 -27.296875 L 24.71875 -27.296875 C 25.425781 -27.296875 25.78125 -26.921875 25.78125 -26.171875 L 25.78125 -19.625 C 25.78125 -18.875 25.425781 -18.5 24.71875 -18.5 L 12.296875 -18.5 L 12.296875 -8.71875 L 28.625 -8.71875 C 29.320312 -8.71875 29.671875 -8.367188 29.671875 -7.671875 L 29.671875 -1.0625 C 29.671875 -0.351562 29.320312 0 28.625 0 L 4.296875 0 C 3.628906 0 3.296875 -0.351562 3.296875 -1.0625 L 3.296875 -45.203125 C 3.296875 -45.910156 3.628906 -46.265625 4.296875 -46.265625 L 28.625 -46.265625 C 29.320312 -46.265625 29.671875 -45.910156 29.671875 -45.203125 Z M 29.671875 -45.203125 "/></g></g><g style="fill:#060705;fill-opacity:1;"><g transform="translate(250.971332, 305.602146)"><path style="stroke:none" d="M 29.734375 -36.75 L 29.734375 -23.46875 C 29.734375 -19.632812 28.503906 -16.945312 26.046875 -15.40625 L 29.484375 -1.1875 C 29.703125 -0.394531 29.390625 0 28.546875 0 L 22.078125 0 C 21.460938 0 21.085938 -0.304688 20.953125 -0.921875 L 17.78125 -13.953125 L 11.890625 -13.953125 L 11.890625 -1.0625 C 11.890625 -0.351562 11.539062 0 10.84375 0 L 4.359375 0 C 3.648438 0 3.296875 -0.351562 3.296875 -1.0625 L 3.296875 -45.203125 C 3.296875 -45.910156 3.648438 -46.265625 4.359375 -46.265625 L 20.21875 -46.265625 C 23.351562 -46.265625 25.722656 -45.457031 27.328125 -43.84375 C 28.929688 -42.238281 29.734375 -39.875 29.734375 -36.75 Z M 11.890625 -22.46875 L 18.5 -22.46875 C 20.269531 -22.46875 21.15625 -23.347656 21.15625 -25.109375 L 21.15625 -35.09375 C 21.15625 -36.851562 20.269531 -37.734375 18.5 -37.734375 L 11.890625 -37.734375 Z M 11.890625 -22.46875 "/></g></g></g></svg>