<svg xmlns="http://www.w3.org/2000/svg" xmlns:xlink="http://www.w3.org/1999/xlink" width="192" zoomAndPan="magnify" viewBox="0 0 144 143.999998" height="192" preserveAspectRatio="xMidYMid meet" version="1.2"><defs><clipPath id="42448fd6bd"><path d="M 9 0 L 135 0 L 135 144 L 9 144 Z M 9 0 "/></clipPath><clipPath id="15791221d3"><path d="M -21.457031 54.867188 L 103.039062 -17.847656 L 165.503906 89.105469 L 41.007812 161.816406 Z M -21.457031 54.867188 "/></clipPath><clipPath id="e4eed7efbb"><path d="M 134.226562 35.65625 L 134.347656 107.300781 L 72.121094 143.644531 L 9.773438 108.34375 L 9.65625 36.695312 L 71.878906 0.351562 Z M 134.226562 35.65625 "/></clipPath><clipPath id="4874cded9b"><path d="M 0.601562 0.238281 L 125.398438 0.238281 L 125.398438 143.761719 L 0.601562 143.761719 Z M 0.601562 0.238281 "/></clipPath><clipPath id="62825da3e8"><path d="M -30.457031 54.867188 L 94.039062 -17.847656 L 156.503906 89.105469 L 32.007812 161.816406 Z M -30.457031 54.867188 "/></clipPath><clipPath id="224882e498"><path d="M 125.226562 35.65625 L 125.347656 107.300781 L 63.121094 143.644531 L 0.773438 108.34375 L 0.65625 36.695312 L 62.878906 0.351562 Z M 125.226562 35.65625 "/></clipPath><clipPath id="ada55fafe7"><rect x="0" width="126" y="0" height="144"/></clipPath><clipPath id="0827988c4a"><path d="M 21.210938 13.683594 L 122.773438 13.683594 L 122.773438 130.261719 L 21.210938 130.261719 Z M 21.210938 13.683594 "/></clipPath><clipPath id="0385a12938"><rect x="0" width="144" y="0" height="144"/></clipPath><clipPath id="b1f870f036"><rect x="0" width="114" y="0" height="86"/></clipPath></defs><g id="513a2c7a28"><g transform="matrix(1,0,0,1,0,-0.000000000000008916)"><g clip-path="url(#0385a12938)"><g clip-rule="nonzero" clip-path="url(#42448fd6bd)"><g clip-rule="nonzero" clip-path="url(#15791221d3)"><g clip-rule="nonzero" clip-path="url(#e4eed7efbb)"><g transform="matrix(1,0,0,1,9,-0.00000000000000891)"><g id="97a5e0dfd0" clip-path="url(#ada55fafe7)"><g clip-rule="nonzero" clip-path="url(#4874cded9b)"><g clip-rule="nonzero" clip-path="url(#62825da3e8)"><g clip-rule="nonzero" clip-path="url(#224882e498)"><path style=" stroke:none;fill-rule:nonzero;fill:#65b30e;fill-opacity:1;" d="M -30.457031 54.867188 L 94.039062 -17.847656 L 156.503906 89.105469 L 32.007812 161.816406 Z M -30.457031 54.867188 "/></g></g></g></g></g></g></g></g><path style=" stroke:none;fill-rule:nonzero;fill:#87ff00;fill-opacity:1;" d="M 51.695312 52.128906 L 51.628906 52.0625 L 37.269531 66.421875 L 72.136719 101.226562 L 86.496094 86.933594 L 107.003906 66.421875 L 92.640625 52.0625 L 92.640625 52 L 51.632812 52 Z M 51.695312 52.128906 "/><g clip-rule="nonzero" clip-path="url(#0827988c4a)"><path style=" stroke:none;fill-rule:nonzero;fill:#87ff00;fill-opacity:1;" d="M 72.003906 13.765625 L 21.222656 42.878906 L 21.226562 101.101562 L 72.007812 130.210938 L 122.789062 101.101562 L 122.789062 42.878906 L 72.007812 13.769531 Z M 113.085938 95.535156 L 72.003906 119.207031 L 30.925781 95.535156 L 30.929688 48.3125 L 72.007812 24.632812 L 113.085938 48.308594 Z M 113.085938 95.535156 "/></g></g></g><g transform="matrix(1,0,0,1,14,29)"><g clip-path="url(#b1f870f036)"><g style="fill:#b21a22;fill-opacity:1;"><g transform="translate(2.560949, 32.977957)"><path style="stroke:none" d="M 13.640625 -22.035156 L 1.515625 -22.035156 C 1.539062 -22.035156 1.570312 -22.039062 1.609375 -22.054688 C 1.699219 -22.082031 1.777344 -22.132812 1.847656 -22.203125 C 1.917969 -22.273438 1.96875 -22.351562 2 -22.441406 C 2.011719 -22.480469 2.019531 -22.511719 2.019531 -22.535156 L 2.019531 -19.242188 C 2.019531 -19.265625 2.011719 -19.296875 2 -19.335938 C 1.96875 -19.425781 1.917969 -19.503906 1.847656 -19.574219 C 1.777344 -19.644531 1.699219 -19.695312 1.609375 -19.722656 C 1.570312 -19.738281 1.539062 -19.742188 1.515625 -19.742188 L 6.367188 -19.742188 L 6.367188 -0.527344 C 6.367188 -0.550781 6.359375 -0.582031 6.347656 -0.621094 C 6.316406 -0.710938 6.269531 -0.789062 6.199219 -0.859375 C 6.125 -0.929688 6.046875 -0.980469 5.960938 -1.011719 C 5.917969 -1.023438 5.886719 -1.03125 5.863281 -1.03125 L 9.292969 -1.03125 C 9.269531 -1.03125 9.234375 -1.023438 9.195312 -1.011719 C 9.109375 -0.980469 9.027344 -0.929688 8.957031 -0.859375 C 8.886719 -0.789062 8.835938 -0.710938 8.808594 -0.621094 C 8.796875 -0.582031 8.789062 -0.550781 8.789062 -0.527344 L 8.789062 -19.742188 L 13.640625 -19.742188 C 13.617188 -19.742188 13.585938 -19.738281 13.546875 -19.722656 C 13.457031 -19.695312 13.378906 -19.644531 13.308594 -19.574219 C 13.238281 -19.503906 13.1875 -19.425781 13.15625 -19.335938 C 13.144531 -19.296875 13.136719 -19.265625 13.136719 -19.242188 L 13.136719 -22.535156 C 13.136719 -22.511719 13.144531 -22.480469 13.15625 -22.441406 C 13.1875 -22.351562 13.238281 -22.273438 13.308594 -22.203125 C 13.378906 -22.132812 13.457031 -22.082031 13.546875 -22.054688 C 13.585938 -22.039062 13.617188 -22.035156 13.640625 -22.035156 Z M 13.640625 -24.09375 C 14.101562 -24.09375 14.476562 -23.949219 14.765625 -23.660156 C 15.050781 -23.371094 15.195312 -22.996094 15.195312 -22.535156 L 15.195312 -19.242188 C 15.195312 -18.78125 15.050781 -18.40625 14.765625 -18.117188 C 14.476562 -17.828125 14.101562 -17.683594 13.640625 -17.683594 L 9.816406 -17.683594 L 9.816406 -18.714844 L 10.847656 -18.714844 L 10.847656 -0.527344 C 10.847656 -0.0664062 10.703125 0.308594 10.414062 0.597656 C 10.125 0.886719 9.75 1.03125 9.292969 1.03125 L 5.863281 1.03125 C 5.40625 1.03125 5.03125 0.886719 4.742188 0.597656 C 4.453125 0.308594 4.308594 -0.0664062 4.308594 -0.527344 L 4.308594 -18.714844 L 5.335938 -18.714844 L 5.335938 -17.683594 L 1.515625 -17.683594 C 1.054688 -17.683594 0.679688 -17.828125 0.390625 -18.117188 C 0.101562 -18.40625 -0.0429688 -18.78125 -0.0429688 -19.242188 L -0.0429688 -22.535156 C -0.0429688 -22.996094 0.101562 -23.371094 0.390625 -23.660156 C 0.679688 -23.949219 1.054688 -24.09375 1.515625 -24.09375 Z M 13.640625 -24.09375 "/></g></g><g style="fill:#b21a22;fill-opacity:1;"><g transform="translate(17.711991, 32.977957)"><path style="stroke:none" d="M 2.175781 -1.03125 L 5.601562 -1.03125 C 5.578125 -1.03125 5.546875 -1.023438 5.507812 -1.011719 C 5.417969 -0.980469 5.339844 -0.929688 5.269531 -0.859375 C 5.199219 -0.789062 5.148438 -0.710938 5.117188 -0.621094 C 5.105469 -0.582031 5.097656 -0.550781 5.097656 -0.527344 L 5.097656 -22.535156 C 5.097656 -22.511719 5.105469 -22.480469 5.117188 -22.441406 C 5.148438 -22.351562 5.199219 -22.273438 5.269531 -22.203125 C 5.339844 -22.132812 5.417969 -22.082031 5.507812 -22.054688 C 5.546875 -22.039062 5.578125 -22.035156 5.601562 -22.035156 L 2.175781 -22.035156 C 2.199219 -22.035156 2.230469 -22.039062 2.269531 -22.054688 C 2.355469 -22.082031 2.4375 -22.132812 2.507812 -22.203125 C 2.578125 -22.273438 2.628906 -22.351562 2.65625 -22.441406 C 2.671875 -22.480469 2.675781 -22.511719 2.675781 -22.535156 L 2.675781 -0.527344 C 2.675781 -0.550781 2.671875 -0.582031 2.65625 -0.621094 C 2.628906 -0.710938 2.578125 -0.789062 2.507812 -0.859375 C 2.4375 -0.929688 2.355469 -0.980469 2.269531 -1.011719 C 2.230469 -1.023438 2.199219 -1.03125 2.175781 -1.03125 Z M 2.175781 1.03125 C 1.714844 1.03125 1.339844 0.886719 1.050781 0.597656 C 0.761719 0.308594 0.617188 -0.0664062 0.617188 -0.527344 L 0.617188 -22.535156 C 0.617188 -22.996094 0.761719 -23.371094 1.050781 -23.660156 C 1.339844 -23.949219 1.714844 -24.09375 2.175781 -24.09375 L 5.601562 -24.09375 C 6.0625 -24.09375 6.4375 -23.949219 6.722656 -23.660156 C 7.011719 -23.371094 7.15625 -22.996094 7.15625 -22.535156 L 7.15625 -0.527344 C 7.15625 -0.0664062 7.011719 0.308594 6.722656 0.597656 C 6.4375 0.886719 6.0625 1.03125 5.601562 1.03125 Z M 2.175781 1.03125 "/></g></g><g style="fill:#b21a22;fill-opacity:1;"><g transform="translate(25.485128, 32.977957)"><path style="stroke:none" d="M 15.417969 -24.09375 L 19.769531 -24.09375 C 20.273438 -24.09375 20.679688 -23.9375 20.992188 -23.625 C 21.300781 -23.316406 21.457031 -22.910156 21.457031 -22.402344 L 21.457031 -0.660156 C 21.457031 -0.15625 21.300781 0.253906 20.992188 0.5625 C 20.679688 0.875 20.273438 1.03125 19.769531 1.03125 L 16.703125 1.03125 C 16.199219 1.03125 15.792969 0.875 15.480469 0.5625 C 15.171875 0.253906 15.015625 -0.15625 15.015625 -0.660156 L 15.015625 -13.605469 L 16.046875 -13.605469 L 16.046875 -12.578125 L 15.816406 -12.578125 L 15.816406 -13.605469 L 16.816406 -13.371094 L 13.714844 -0.296875 L 13.707031 -0.269531 C 13.585938 0.128906 13.378906 0.445312 13.082031 0.675781 C 12.777344 0.910156 12.414062 1.03125 11.992188 1.03125 L 10.050781 1.03125 C 9.628906 1.03125 9.265625 0.910156 8.957031 0.675781 C 8.660156 0.445312 8.453125 0.128906 8.335938 -0.269531 L 8.328125 -0.296875 L 5.226562 -13.371094 L 6.226562 -13.605469 L 6.226562 -12.578125 L 5.996094 -12.578125 L 5.996094 -13.605469 L 7.027344 -13.605469 L 7.027344 -0.660156 C 7.027344 -0.15625 6.871094 0.253906 6.558594 0.5625 C 6.25 0.875 5.839844 1.03125 5.335938 1.03125 L 2.304688 1.03125 C 1.800781 1.03125 1.394531 0.875 1.085938 0.5625 C 0.773438 0.253906 0.617188 -0.15625 0.617188 -0.660156 L 0.617188 -22.402344 C 0.617188 -22.910156 0.773438 -23.316406 1.085938 -23.625 C 1.394531 -23.9375 1.800781 -24.09375 2.304688 -24.09375 L 6.65625 -24.09375 C 7.078125 -24.09375 7.441406 -23.972656 7.746094 -23.738281 C 8.042969 -23.507812 8.25 -23.195312 8.367188 -22.792969 L 8.375 -22.773438 L 12.035156 -8.058594 L 11.039062 -7.808594 L 10.039062 -8.058594 L 13.699219 -22.773438 L 13.707031 -22.792969 C 13.824219 -23.195312 14.03125 -23.507812 14.328125 -23.738281 C 14.636719 -23.972656 15 -24.09375 15.417969 -24.09375 Z M 15.417969 -22.035156 C 15.46875 -22.035156 15.523438 -22.058594 15.585938 -22.109375 C 15.625 -22.136719 15.652344 -22.167969 15.675781 -22.199219 C 15.679688 -22.210938 15.683594 -22.214844 15.683594 -22.222656 C 15.683594 -22.222656 15.683594 -22.21875 15.683594 -22.210938 L 14.695312 -22.503906 L 15.695312 -22.253906 L 12.035156 -7.558594 L 10.039062 -7.558594 L 6.382812 -22.253906 L 7.378906 -22.503906 L 6.390625 -22.210938 C 6.390625 -22.21875 6.390625 -22.222656 6.390625 -22.222656 C 6.390625 -22.214844 6.394531 -22.210938 6.402344 -22.199219 C 6.421875 -22.167969 6.449219 -22.136719 6.488281 -22.109375 C 6.550781 -22.058594 6.609375 -22.035156 6.65625 -22.035156 L 2.304688 -22.035156 C 2.300781 -22.035156 2.296875 -22.035156 2.296875 -22.035156 C 2.3125 -22.035156 2.324219 -22.039062 2.34375 -22.046875 C 2.414062 -22.070312 2.480469 -22.109375 2.539062 -22.171875 C 2.601562 -22.230469 2.640625 -22.296875 2.664062 -22.367188 C 2.671875 -22.382812 2.675781 -22.398438 2.675781 -22.414062 C 2.675781 -22.414062 2.675781 -22.410156 2.675781 -22.402344 L 2.675781 -0.660156 C 2.675781 -0.65625 2.675781 -0.652344 2.675781 -0.648438 C 2.675781 -0.664062 2.671875 -0.679688 2.664062 -0.695312 C 2.640625 -0.769531 2.601562 -0.832031 2.539062 -0.894531 C 2.480469 -0.953125 2.414062 -0.996094 2.34375 -1.019531 C 2.324219 -1.023438 2.3125 -1.027344 2.296875 -1.03125 C 2.296875 -1.03125 2.300781 -1.03125 2.304688 -1.03125 L 5.335938 -1.03125 C 5.34375 -1.03125 5.347656 -1.03125 5.347656 -1.03125 C 5.332031 -1.027344 5.316406 -1.023438 5.300781 -1.019531 C 5.230469 -0.996094 5.164062 -0.953125 5.105469 -0.894531 C 5.042969 -0.832031 5.003906 -0.769531 4.976562 -0.695312 C 4.972656 -0.679688 4.96875 -0.664062 4.96875 -0.648438 C 4.964844 -0.648438 4.964844 -0.648438 4.964844 -0.648438 C 4.964844 -0.652344 4.964844 -0.65625 4.964844 -0.660156 L 4.964844 -14.636719 L 7.039062 -14.636719 L 10.324219 -0.796875 L 9.324219 -0.558594 L 10.3125 -0.851562 C 10.3125 -0.84375 10.316406 -0.84375 10.316406 -0.839844 C 10.3125 -0.847656 10.308594 -0.855469 10.304688 -0.863281 C 10.28125 -0.894531 10.253906 -0.925781 10.21875 -0.953125 C 10.152344 -1.003906 10.097656 -1.03125 10.050781 -1.03125 L 11.992188 -1.03125 C 11.945312 -1.03125 11.890625 -1.003906 11.824219 -0.953125 C 11.789062 -0.925781 11.757812 -0.894531 11.738281 -0.863281 C 11.734375 -0.855469 11.730469 -0.847656 11.726562 -0.839844 C 11.726562 -0.84375 11.726562 -0.84375 11.730469 -0.851562 L 12.71875 -0.558594 L 11.714844 -0.796875 L 15 -14.636719 L 17.074219 -14.636719 L 17.074219 -0.660156 C 17.074219 -0.65625 17.074219 -0.652344 17.074219 -0.648438 C 17.074219 -0.664062 17.070312 -0.679688 17.0625 -0.695312 C 17.039062 -0.769531 16.996094 -0.832031 16.9375 -0.894531 C 16.878906 -0.953125 16.8125 -0.996094 16.742188 -1.019531 C 16.722656 -1.023438 16.707031 -1.027344 16.695312 -1.03125 C 16.695312 -1.03125 16.691406 -1.03125 16.691406 -1.03125 C 16.695312 -1.03125 16.699219 -1.03125 16.703125 -1.03125 L 19.769531 -1.03125 C 19.773438 -1.03125 19.777344 -1.03125 19.78125 -1.03125 C 19.78125 -1.03125 19.777344 -1.03125 19.777344 -1.03125 C 19.765625 -1.027344 19.75 -1.023438 19.730469 -1.019531 C 19.660156 -0.996094 19.59375 -0.953125 19.535156 -0.894531 C 19.476562 -0.832031 19.433594 -0.769531 19.410156 -0.695312 C 19.402344 -0.679688 19.398438 -0.664062 19.398438 -0.648438 C 19.398438 -0.652344 19.398438 -0.65625 19.398438 -0.660156 L 19.398438 -22.402344 C 19.398438 -22.410156 19.398438 -22.414062 19.398438 -22.414062 C 19.398438 -22.398438 19.402344 -22.382812 19.410156 -22.367188 C 19.433594 -22.296875 19.476562 -22.230469 19.535156 -22.171875 C 19.59375 -22.109375 19.660156 -22.070312 19.730469 -22.046875 C 19.75 -22.039062 19.765625 -22.035156 19.777344 -22.035156 C 19.777344 -22.035156 19.78125 -22.035156 19.78125 -22.035156 C 19.777344 -22.035156 19.773438 -22.035156 19.769531 -22.035156 Z M 15.417969 -22.035156 "/></g></g><g style="fill:#b21a22;fill-opacity:1;"><g transform="translate(47.552943, 32.977957)"><path style="stroke:none" d="M 15.824219 -22.535156 L 15.824219 -19.242188 C 15.824219 -18.78125 15.6875 -18.40625 15.410156 -18.117188 C 15.121094 -17.804688 14.738281 -17.652344 14.265625 -17.652344 L 6.128906 -17.652344 L 6.128906 -18.679688 L 7.15625 -18.679688 L 7.15625 -13.605469 L 6.128906 -13.605469 L 6.128906 -14.636719 L 12.324219 -14.636719 C 12.792969 -14.636719 13.175781 -14.480469 13.46875 -14.171875 C 13.742188 -13.882812 13.878906 -13.507812 13.878906 -13.046875 L 13.878906 -9.785156 C 13.878906 -9.328125 13.742188 -8.953125 13.46875 -8.660156 C 13.175781 -8.351562 12.792969 -8.195312 12.324219 -8.195312 L 6.128906 -8.195312 L 6.128906 -9.226562 L 7.15625 -9.226562 L 7.15625 -4.347656 L 6.128906 -4.347656 L 6.128906 -5.378906 L 14.265625 -5.378906 C 14.726562 -5.378906 15.101562 -5.234375 15.390625 -4.945312 C 15.679688 -4.65625 15.824219 -4.28125 15.824219 -3.820312 L 15.824219 -0.527344 C 15.824219 -0.0664062 15.679688 0.308594 15.390625 0.597656 C 15.101562 0.886719 14.726562 1.03125 14.265625 1.03125 L 2.140625 1.03125 C 1.679688 1.03125 1.304688 0.878906 1.019531 0.574219 C 0.75 0.285156 0.617188 -0.078125 0.617188 -0.527344 L 0.617188 -22.535156 C 0.617188 -22.984375 0.75 -23.351562 1.019531 -23.636719 C 1.304688 -23.941406 1.679688 -24.09375 2.140625 -24.09375 L 14.265625 -24.09375 C 14.726562 -24.09375 15.101562 -23.949219 15.390625 -23.660156 C 15.679688 -23.371094 15.824219 -22.996094 15.824219 -22.535156 Z M 13.765625 -22.535156 C 13.765625 -22.511719 13.769531 -22.480469 13.785156 -22.441406 C 13.8125 -22.351562 13.863281 -22.273438 13.933594 -22.203125 C 14.003906 -22.132812 14.082031 -22.082031 14.171875 -22.054688 C 14.210938 -22.039062 14.242188 -22.035156 14.265625 -22.035156 L 2.140625 -22.035156 C 2.273438 -22.035156 2.402344 -22.097656 2.523438 -22.226562 C 2.589844 -22.296875 2.636719 -22.375 2.660156 -22.460938 C 2.671875 -22.492188 2.675781 -22.519531 2.675781 -22.535156 L 2.675781 -0.527344 C 2.675781 -0.542969 2.671875 -0.570312 2.660156 -0.605469 C 2.636719 -0.6875 2.589844 -0.765625 2.523438 -0.835938 C 2.402344 -0.964844 2.273438 -1.03125 2.140625 -1.03125 L 14.265625 -1.03125 C 14.242188 -1.03125 14.210938 -1.023438 14.171875 -1.011719 C 14.082031 -0.980469 14.003906 -0.929688 13.933594 -0.859375 C 13.863281 -0.789062 13.8125 -0.710938 13.785156 -0.621094 C 13.769531 -0.582031 13.765625 -0.550781 13.765625 -0.527344 L 13.765625 -3.820312 C 13.765625 -3.796875 13.769531 -3.765625 13.785156 -3.726562 C 13.8125 -3.640625 13.863281 -3.558594 13.933594 -3.488281 C 14.003906 -3.417969 14.082031 -3.367188 14.171875 -3.339844 C 14.210938 -3.324219 14.242188 -3.320312 14.265625 -3.320312 L 5.097656 -3.320312 L 5.097656 -10.253906 L 12.324219 -10.253906 C 12.292969 -10.253906 12.253906 -10.246094 12.210938 -10.230469 C 12.117188 -10.199219 12.039062 -10.144531 11.96875 -10.070312 C 11.902344 -10.003906 11.859375 -9.929688 11.835938 -9.847656 C 11.824219 -9.816406 11.820312 -9.796875 11.820312 -9.785156 L 11.820312 -13.046875 C 11.820312 -13.035156 11.824219 -13.015625 11.835938 -12.984375 C 11.859375 -12.902344 11.902344 -12.828125 11.96875 -12.761719 C 12.039062 -12.6875 12.117188 -12.632812 12.210938 -12.601562 C 12.253906 -12.585938 12.292969 -12.578125 12.324219 -12.578125 L 5.097656 -12.578125 L 5.097656 -19.710938 L 14.265625 -19.710938 C 14.234375 -19.710938 14.199219 -19.703125 14.152344 -19.6875 C 14.0625 -19.65625 13.980469 -19.601562 13.910156 -19.527344 C 13.847656 -19.457031 13.804688 -19.386719 13.777344 -19.304688 C 13.769531 -19.273438 13.765625 -19.253906 13.765625 -19.242188 Z M 13.765625 -22.535156 "/></g></g><g style="fill:#b21a22;fill-opacity:1;"><g transform="translate(63.988522, 32.977957)"><path style="stroke:none" d="M 15.890625 -18.320312 L 15.890625 -14.761719 C 15.890625 -14.300781 15.746094 -13.925781 15.457031 -13.636719 C 15.167969 -13.347656 14.792969 -13.203125 14.332031 -13.203125 L 11.234375 -13.203125 C 10.773438 -13.203125 10.402344 -13.347656 10.113281 -13.636719 C 9.824219 -13.925781 9.679688 -14.300781 9.679688 -14.761719 L 9.679688 -17.460938 C 9.679688 -17.570312 9.667969 -17.652344 9.648438 -17.714844 C 9.644531 -17.722656 9.640625 -17.730469 9.640625 -17.734375 C 9.640625 -17.730469 9.644531 -17.726562 9.648438 -17.722656 C 9.65625 -17.71875 9.660156 -17.714844 9.664062 -17.710938 C 9.660156 -17.714844 9.652344 -17.71875 9.640625 -17.722656 C 9.582031 -17.742188 9.5 -17.75 9.390625 -17.75 L 7.28125 -17.75 C 7.171875 -17.75 7.089844 -17.742188 7.03125 -17.722656 C 7.019531 -17.71875 7.011719 -17.714844 7.007812 -17.710938 C 7.011719 -17.714844 7.015625 -17.71875 7.019531 -17.722656 C 7.027344 -17.726562 7.03125 -17.730469 7.03125 -17.734375 C 7.03125 -17.730469 7.027344 -17.722656 7.023438 -17.714844 C 7.003906 -17.652344 6.992188 -17.570312 6.992188 -17.460938 L 6.992188 -5.503906 C 6.992188 -5.394531 7.003906 -5.308594 7.023438 -5.25 C 7.027344 -5.242188 7.03125 -5.234375 7.03125 -5.230469 C 7.03125 -5.234375 7.027344 -5.238281 7.019531 -5.242188 C 7.015625 -5.246094 7.011719 -5.25 7.007812 -5.253906 C 7.011719 -5.25 7.019531 -5.246094 7.03125 -5.242188 C 7.089844 -5.222656 7.171875 -5.214844 7.28125 -5.214844 L 9.390625 -5.214844 C 9.5 -5.214844 9.582031 -5.222656 9.640625 -5.242188 C 9.652344 -5.246094 9.660156 -5.25 9.664062 -5.253906 C 9.660156 -5.25 9.65625 -5.246094 9.648438 -5.242188 C 9.644531 -5.238281 9.640625 -5.234375 9.640625 -5.230469 C 9.640625 -5.234375 9.644531 -5.242188 9.648438 -5.25 C 9.667969 -5.308594 9.679688 -5.394531 9.679688 -5.503906 L 9.679688 -8.304688 C 9.679688 -8.761719 9.824219 -9.136719 10.113281 -9.425781 C 10.402344 -9.714844 10.773438 -9.859375 11.234375 -9.859375 L 14.332031 -9.859375 C 14.792969 -9.859375 15.167969 -9.714844 15.457031 -9.425781 C 15.746094 -9.136719 15.890625 -8.761719 15.890625 -8.304688 L 15.890625 -4.746094 C 15.890625 -2.921875 15.382812 -1.503906 14.367188 -0.492188 C 13.355469 0.523438 11.9375 1.03125 10.113281 1.03125 L 6.425781 1.03125 C 4.605469 1.03125 3.183594 0.523438 2.160156 -0.484375 C 1.132812 -1.5 0.617188 -2.917969 0.617188 -4.746094 L 0.617188 -18.320312 C 0.617188 -20.167969 1.132812 -21.59375 2.164062 -22.597656 C 3.1875 -23.59375 4.609375 -24.09375 6.425781 -24.09375 L 10.113281 -24.09375 C 11.933594 -24.09375 13.351562 -23.59375 14.363281 -22.59375 C 15.378906 -21.589844 15.890625 -20.164062 15.890625 -18.320312 Z M 13.828125 -18.320312 C 13.828125 -19.589844 13.527344 -20.527344 12.917969 -21.128906 C 12.304688 -21.730469 11.371094 -22.035156 10.113281 -22.035156 L 6.425781 -22.035156 C 5.167969 -22.035156 4.226562 -21.730469 3.601562 -21.121094 C 2.984375 -20.523438 2.675781 -19.589844 2.675781 -18.320312 L 2.675781 -4.746094 C 2.675781 -3.492188 2.988281 -2.5625 3.605469 -1.953125 C 4.230469 -1.335938 5.167969 -1.03125 6.425781 -1.03125 L 10.113281 -1.03125 C 11.367188 -1.03125 12.300781 -1.335938 12.914062 -1.945312 C 13.523438 -2.558594 13.828125 -3.492188 13.828125 -4.746094 L 13.828125 -8.304688 C 13.828125 -8.277344 13.835938 -8.246094 13.847656 -8.207031 C 13.878906 -8.121094 13.929688 -8.039062 14 -7.96875 C 14.070312 -7.898438 14.148438 -7.847656 14.238281 -7.820312 C 14.277344 -7.808594 14.308594 -7.800781 14.332031 -7.800781 L 11.234375 -7.800781 C 11.257812 -7.800781 11.289062 -7.808594 11.328125 -7.820312 C 11.417969 -7.847656 11.496094 -7.898438 11.566406 -7.96875 C 11.636719 -8.039062 11.6875 -8.121094 11.71875 -8.207031 C 11.730469 -8.246094 11.738281 -8.277344 11.738281 -8.304688 L 11.738281 -5.503906 C 11.738281 -4.777344 11.527344 -4.207031 11.105469 -3.785156 C 10.6875 -3.363281 10.113281 -3.15625 9.390625 -3.15625 L 7.28125 -3.15625 C 6.558594 -3.15625 5.984375 -3.363281 5.566406 -3.785156 C 5.144531 -4.207031 4.933594 -4.777344 4.933594 -5.503906 L 4.933594 -17.460938 C 4.933594 -18.1875 5.144531 -18.757812 5.566406 -19.179688 C 5.984375 -19.597656 6.558594 -19.808594 7.28125 -19.808594 L 9.390625 -19.808594 C 10.113281 -19.808594 10.6875 -19.597656 11.105469 -19.179688 C 11.527344 -18.757812 11.738281 -18.1875 11.738281 -17.460938 L 11.738281 -14.761719 C 11.738281 -14.785156 11.730469 -14.816406 11.71875 -14.855469 C 11.6875 -14.941406 11.636719 -15.023438 11.566406 -15.09375 C 11.496094 -15.164062 11.417969 -15.214844 11.328125 -15.242188 C 11.289062 -15.257812 11.257812 -15.261719 11.234375 -15.261719 L 14.332031 -15.261719 C 14.308594 -15.261719 14.277344 -15.257812 14.238281 -15.242188 C 14.148438 -15.214844 14.070312 -15.164062 14 -15.09375 C 13.929688 -15.023438 13.878906 -14.941406 13.847656 -14.855469 C 13.835938 -14.816406 13.828125 -14.785156 13.828125 -14.761719 Z M 13.828125 -18.320312 "/></g></g><g style="fill:#b21a22;fill-opacity:1;"><g transform="translate(80.489986, 32.977957)"><path style="stroke:none" d="M 0.617188 -4.746094 L 0.617188 -18.320312 C 0.617188 -20.164062 1.125 -21.589844 2.144531 -22.59375 C 3.15625 -23.59375 4.574219 -24.09375 6.390625 -24.09375 L 10.082031 -24.09375 C 11.925781 -24.09375 13.347656 -23.589844 14.351562 -22.589844 C 15.355469 -21.585938 15.855469 -20.164062 15.855469 -18.320312 L 15.855469 -4.746094 C 15.855469 -2.925781 15.355469 -1.507812 14.355469 -0.496094 C 13.351562 0.519531 11.929688 1.03125 10.082031 1.03125 L 6.390625 1.03125 C 4.570312 1.03125 3.152344 0.523438 2.136719 -0.492188 C 1.125 -1.503906 0.617188 -2.921875 0.617188 -4.746094 Z M 2.675781 -4.746094 C 2.675781 -3.492188 2.984375 -2.558594 3.59375 -1.945312 C 4.207031 -1.335938 5.136719 -1.03125 6.390625 -1.03125 L 10.082031 -1.03125 C 11.355469 -1.03125 12.289062 -1.332031 12.890625 -1.941406 C 13.496094 -2.554688 13.796875 -3.488281 13.796875 -4.746094 L 13.796875 -18.320312 C 13.796875 -19.59375 13.496094 -20.53125 12.894531 -21.132812 C 12.296875 -21.734375 11.355469 -22.035156 10.082031 -22.035156 L 6.390625 -22.035156 C 5.136719 -22.035156 4.203125 -21.730469 3.589844 -21.128906 C 2.980469 -20.527344 2.675781 -19.589844 2.675781 -18.320312 Z M 7.25 -5.28125 L 9.355469 -5.28125 C 9.464844 -5.28125 9.550781 -5.289062 9.609375 -5.308594 C 9.617188 -5.3125 9.625 -5.316406 9.628906 -5.320312 C 9.625 -5.316406 9.621094 -5.3125 9.617188 -5.308594 C 9.613281 -5.304688 9.609375 -5.296875 9.605469 -5.292969 C 9.609375 -5.296875 9.613281 -5.304688 9.617188 -5.316406 C 9.636719 -5.375 9.644531 -5.460938 9.644531 -5.566406 L 9.644531 -17.496094 C 9.644531 -17.601562 9.636719 -17.6875 9.617188 -17.746094 C 9.613281 -17.757812 9.609375 -17.765625 9.605469 -17.769531 C 9.609375 -17.765625 9.613281 -17.761719 9.617188 -17.753906 C 9.621094 -17.75 9.625 -17.746094 9.628906 -17.746094 C 9.625 -17.746094 9.617188 -17.75 9.609375 -17.753906 C 9.550781 -17.773438 9.464844 -17.785156 9.355469 -17.785156 L 7.25 -17.785156 C 7.140625 -17.785156 7.054688 -17.773438 6.996094 -17.753906 C 6.988281 -17.75 6.980469 -17.746094 6.976562 -17.746094 C 6.980469 -17.746094 6.984375 -17.75 6.988281 -17.753906 C 6.992188 -17.761719 6.996094 -17.765625 7 -17.769531 C 6.996094 -17.765625 6.992188 -17.757812 6.988281 -17.746094 C 6.96875 -17.6875 6.960938 -17.601562 6.960938 -17.496094 L 6.960938 -5.566406 C 6.960938 -5.460938 6.96875 -5.375 6.988281 -5.316406 C 6.992188 -5.304688 6.996094 -5.296875 7 -5.292969 C 6.996094 -5.296875 6.992188 -5.304688 6.988281 -5.308594 C 6.984375 -5.3125 6.980469 -5.316406 6.976562 -5.320312 C 6.980469 -5.316406 6.988281 -5.3125 6.996094 -5.308594 C 7.054688 -5.289062 7.140625 -5.28125 7.25 -5.28125 Z M 7.25 -3.21875 C 6.523438 -3.21875 5.953125 -3.429688 5.53125 -3.851562 C 5.109375 -4.273438 4.902344 -4.84375 4.902344 -5.566406 L 4.902344 -17.496094 C 4.902344 -18.21875 5.109375 -18.789062 5.53125 -19.210938 C 5.953125 -19.632812 6.523438 -19.84375 7.25 -19.84375 L 9.355469 -19.84375 C 10.082031 -19.84375 10.652344 -19.632812 11.074219 -19.210938 C 11.496094 -18.789062 11.703125 -18.21875 11.703125 -17.496094 L 11.703125 -5.566406 C 11.703125 -4.84375 11.496094 -4.273438 11.074219 -3.851562 C 10.652344 -3.429688 10.082031 -3.21875 9.355469 -3.21875 Z M 7.25 -3.21875 "/></g></g><g style="fill:#b21a22;fill-opacity:1;"><g transform="translate(96.958507, 32.977957)"><path style="stroke:none" d="M 0.617188 -0.527344 L 0.617188 -22.535156 C 0.617188 -22.996094 0.761719 -23.371094 1.050781 -23.660156 C 1.339844 -23.949219 1.714844 -24.09375 2.175781 -24.09375 L 10.082031 -24.09375 C 11.925781 -24.09375 13.347656 -23.589844 14.351562 -22.589844 C 15.355469 -21.585938 15.855469 -20.164062 15.855469 -18.320312 L 15.855469 -11.859375 C 15.855469 -10.039062 15.355469 -8.625 14.351562 -7.625 C 13.351562 -6.625 11.933594 -6.113281 10.097656 -6.085938 L 5.9375 -6.054688 L 5.929688 -7.082031 L 6.960938 -7.082031 L 6.960938 -0.496094 C 6.960938 -0.0351562 6.816406 0.339844 6.527344 0.628906 C 6.238281 0.917969 5.863281 1.0625 5.402344 1.0625 L 2.164062 1.03125 C 1.710938 1.03125 1.339844 0.886719 1.050781 0.597656 C 0.761719 0.308594 0.617188 -0.0664062 0.617188 -0.527344 Z M 2.675781 -0.527344 C 2.675781 -0.550781 2.671875 -0.582031 2.65625 -0.621094 C 2.628906 -0.710938 2.578125 -0.789062 2.507812 -0.859375 C 2.4375 -0.929688 2.355469 -0.980469 2.269531 -1.011719 C 2.230469 -1.023438 2.203125 -1.03125 2.183594 -1.03125 L 5.402344 -0.996094 C 5.378906 -0.996094 5.347656 -0.988281 5.308594 -0.976562 C 5.21875 -0.949219 5.140625 -0.898438 5.070312 -0.828125 C 5 -0.757812 4.949219 -0.675781 4.921875 -0.589844 C 4.90625 -0.550781 4.902344 -0.519531 4.902344 -0.496094 L 4.902344 -8.105469 L 10.066406 -8.144531 C 11.347656 -8.164062 12.292969 -8.476562 12.894531 -9.082031 C 13.496094 -9.679688 13.796875 -10.609375 13.796875 -11.859375 L 13.796875 -18.320312 C 13.796875 -19.59375 13.496094 -20.53125 12.894531 -21.132812 C 12.296875 -21.734375 11.355469 -22.035156 10.082031 -22.035156 L 2.175781 -22.035156 C 2.199219 -22.035156 2.230469 -22.039062 2.269531 -22.054688 C 2.355469 -22.082031 2.4375 -22.132812 2.507812 -22.203125 C 2.578125 -22.273438 2.628906 -22.351562 2.65625 -22.441406 C 2.671875 -22.480469 2.675781 -22.511719 2.675781 -22.535156 Z M 5.921875 -12.363281 L 9.214844 -12.398438 C 9.332031 -12.398438 9.417969 -12.40625 9.476562 -12.425781 C 9.488281 -12.429688 9.496094 -12.433594 9.5 -12.433594 C 9.496094 -12.433594 9.492188 -12.429688 9.484375 -12.425781 C 9.480469 -12.417969 9.476562 -12.414062 9.476562 -12.410156 C 9.476562 -12.414062 9.480469 -12.421875 9.484375 -12.433594 C 9.503906 -12.492188 9.511719 -12.578125 9.511719 -12.683594 L 9.511719 -17.496094 C 9.511719 -17.601562 9.503906 -17.6875 9.484375 -17.746094 C 9.480469 -17.757812 9.476562 -17.765625 9.476562 -17.769531 C 9.476562 -17.765625 9.480469 -17.761719 9.484375 -17.753906 C 9.492188 -17.75 9.496094 -17.746094 9.5 -17.746094 C 9.496094 -17.746094 9.488281 -17.75 9.476562 -17.753906 C 9.417969 -17.773438 9.332031 -17.785156 9.226562 -17.785156 L 5.941406 -17.75 L 5.929688 -18.78125 L 6.960938 -18.78125 L 6.960938 -11.332031 L 5.929688 -11.332031 Z M 4.902344 -10.292969 L 4.902344 -19.800781 L 9.226562 -19.84375 C 9.949219 -19.84375 10.519531 -19.632812 10.941406 -19.210938 C 11.363281 -18.789062 11.574219 -18.21875 11.574219 -17.496094 L 11.574219 -12.683594 C 11.574219 -11.960938 11.363281 -11.390625 10.941406 -10.96875 C 10.519531 -10.546875 9.953125 -10.335938 9.234375 -10.335938 L 5.941406 -10.304688 Z M 4.902344 -10.292969 "/></g></g><g style="fill:#b21a22;fill-opacity:1;"><g transform="translate(11.904414, 78.912308)"><path style="stroke:none" d="M 0.617188 -10.34375 L 0.617188 -13.375 C 0.617188 -13.878906 0.773438 -14.289062 1.085938 -14.597656 C 1.394531 -14.910156 1.800781 -15.066406 2.304688 -15.066406 L 7.511719 -15.066406 C 8.015625 -15.066406 8.421875 -14.910156 8.734375 -14.597656 C 9.046875 -14.289062 9.199219 -13.878906 9.199219 -13.375 L 9.199219 -10.34375 C 9.199219 -9.839844 9.046875 -9.433594 8.734375 -9.125 C 8.421875 -8.8125 8.015625 -8.65625 7.511719 -8.65625 L 2.304688 -8.65625 C 1.800781 -8.65625 1.394531 -8.8125 1.085938 -9.125 C 0.773438 -9.433594 0.617188 -9.839844 0.617188 -10.34375 Z M 2.675781 -10.34375 C 2.675781 -10.339844 2.675781 -10.335938 2.675781 -10.335938 C 2.675781 -10.351562 2.671875 -10.367188 2.664062 -10.382812 C 2.640625 -10.453125 2.601562 -10.519531 2.539062 -10.578125 C 2.480469 -10.640625 2.414062 -10.679688 2.34375 -10.703125 C 2.324219 -10.710938 2.3125 -10.714844 2.296875 -10.714844 C 2.296875 -10.714844 2.300781 -10.714844 2.304688 -10.714844 L 7.511719 -10.714844 C 7.515625 -10.714844 7.519531 -10.714844 7.523438 -10.714844 C 7.523438 -10.714844 7.523438 -10.714844 7.519531 -10.714844 C 7.507812 -10.714844 7.492188 -10.710938 7.476562 -10.703125 C 7.402344 -10.679688 7.335938 -10.640625 7.277344 -10.578125 C 7.21875 -10.519531 7.175781 -10.453125 7.152344 -10.382812 C 7.148438 -10.367188 7.144531 -10.351562 7.140625 -10.335938 C 7.140625 -10.335938 7.140625 -10.339844 7.140625 -10.34375 L 7.140625 -13.375 C 7.140625 -13.382812 7.140625 -13.386719 7.140625 -13.386719 C 7.144531 -13.371094 7.148438 -13.355469 7.152344 -13.339844 C 7.175781 -13.269531 7.21875 -13.203125 7.277344 -13.144531 C 7.335938 -13.082031 7.402344 -13.042969 7.476562 -13.019531 C 7.492188 -13.011719 7.507812 -13.007812 7.519531 -13.007812 C 7.523438 -13.003906 7.523438 -13.003906 7.523438 -13.003906 C 7.519531 -13.003906 7.515625 -13.007812 7.511719 -13.007812 L 2.304688 -13.007812 C 2.300781 -13.007812 2.296875 -13.003906 2.296875 -13.003906 C 2.296875 -13.003906 2.296875 -13.003906 2.296875 -13.007812 C 2.3125 -13.007812 2.324219 -13.011719 2.34375 -13.019531 C 2.414062 -13.042969 2.480469 -13.082031 2.539062 -13.144531 C 2.601562 -13.203125 2.640625 -13.269531 2.664062 -13.339844 C 2.671875 -13.355469 2.675781 -13.371094 2.675781 -13.386719 C 2.675781 -13.386719 2.675781 -13.382812 2.675781 -13.375 Z M 2.675781 -10.34375 "/></g></g><g style="fill:#b21a22;fill-opacity:1;"><g transform="translate(21.71965, 78.912308)"><path style="stroke:none" d="M 15.855469 -18.320312 L 15.855469 -11.695312 C 15.855469 -9.40625 15.078125 -7.773438 13.527344 -6.804688 L 12.980469 -7.675781 L 13.980469 -7.917969 L 15.695312 -0.835938 L 14.695312 -0.59375 L 15.6875 -0.867188 C 15.835938 -0.339844 15.761719 0.113281 15.472656 0.484375 C 15.191406 0.847656 14.777344 1.03125 14.234375 1.03125 L 11.003906 1.03125 C 10.605469 1.03125 10.261719 0.914062 9.980469 0.679688 C 9.699219 0.449219 9.519531 0.140625 9.4375 -0.246094 L 10.445312 -0.460938 L 9.445312 -0.21875 L 7.863281 -6.707031 L 8.863281 -6.953125 L 8.863281 -5.921875 L 5.929688 -5.921875 L 5.929688 -6.953125 L 6.960938 -6.953125 L 6.960938 -0.527344 C 6.960938 -0.0664062 6.816406 0.308594 6.527344 0.597656 C 6.238281 0.886719 5.863281 1.03125 5.402344 1.03125 L 2.175781 1.03125 C 1.714844 1.03125 1.339844 0.886719 1.050781 0.597656 C 0.761719 0.308594 0.617188 -0.0664062 0.617188 -0.527344 L 0.617188 -22.535156 C 0.617188 -22.996094 0.761719 -23.371094 1.050781 -23.660156 C 1.339844 -23.949219 1.714844 -24.09375 2.175781 -24.09375 L 10.082031 -24.09375 C 11.925781 -24.09375 13.347656 -23.589844 14.351562 -22.589844 C 15.355469 -21.585938 15.855469 -20.164062 15.855469 -18.320312 Z M 13.796875 -18.320312 C 13.796875 -19.59375 13.496094 -20.53125 12.894531 -21.132812 C 12.296875 -21.734375 11.355469 -22.035156 10.082031 -22.035156 L 2.175781 -22.035156 C 2.199219 -22.035156 2.230469 -22.039062 2.269531 -22.054688 C 2.355469 -22.082031 2.4375 -22.132812 2.507812 -22.203125 C 2.578125 -22.273438 2.628906 -22.351562 2.65625 -22.441406 C 2.671875 -22.480469 2.675781 -22.511719 2.675781 -22.535156 L 2.675781 -0.527344 C 2.675781 -0.550781 2.671875 -0.582031 2.65625 -0.621094 C 2.628906 -0.710938 2.578125 -0.789062 2.507812 -0.859375 C 2.4375 -0.929688 2.355469 -0.980469 2.269531 -1.011719 C 2.230469 -1.023438 2.199219 -1.03125 2.175781 -1.03125 L 5.402344 -1.03125 C 5.378906 -1.03125 5.347656 -1.023438 5.308594 -1.011719 C 5.21875 -0.980469 5.140625 -0.929688 5.070312 -0.859375 C 5 -0.789062 4.949219 -0.710938 4.921875 -0.621094 C 4.90625 -0.582031 4.902344 -0.550781 4.902344 -0.527344 L 4.902344 -7.980469 L 9.671875 -7.980469 L 11.449219 -0.691406 L 11.449219 -0.675781 C 11.433594 -0.757812 11.378906 -0.835938 11.289062 -0.910156 C 11.191406 -0.988281 11.097656 -1.03125 11.003906 -1.03125 L 14.234375 -1.03125 L 14.234375 -1.027344 C 14.210938 -1.027344 14.1875 -1.019531 14.160156 -1.011719 C 14.039062 -0.96875 13.933594 -0.890625 13.847656 -0.78125 C 13.761719 -0.667969 13.710938 -0.542969 13.699219 -0.410156 C 13.699219 -0.363281 13.699219 -0.332031 13.703125 -0.316406 L 13.699219 -0.335938 L 11.804688 -8.15625 L 12.4375 -8.550781 C 13.34375 -9.117188 13.796875 -10.164062 13.796875 -11.695312 Z M 5.929688 -12.230469 L 9.226562 -12.230469 C 9.332031 -12.230469 9.417969 -12.242188 9.476562 -12.261719 C 9.488281 -12.265625 9.496094 -12.269531 9.5 -12.269531 C 9.496094 -12.269531 9.492188 -12.265625 9.484375 -12.257812 C 9.480469 -12.253906 9.476562 -12.25 9.476562 -12.246094 C 9.476562 -12.25 9.480469 -12.257812 9.484375 -12.269531 C 9.503906 -12.328125 9.511719 -12.410156 9.511719 -12.519531 L 9.511719 -17.496094 C 9.511719 -17.601562 9.503906 -17.6875 9.484375 -17.746094 C 9.480469 -17.757812 9.476562 -17.765625 9.476562 -17.769531 C 9.476562 -17.765625 9.480469 -17.761719 9.484375 -17.753906 C 9.492188 -17.75 9.496094 -17.746094 9.5 -17.746094 C 9.496094 -17.746094 9.488281 -17.75 9.476562 -17.753906 C 9.417969 -17.773438 9.332031 -17.785156 9.226562 -17.785156 L 5.929688 -17.785156 L 5.929688 -18.8125 L 6.960938 -18.8125 L 6.960938 -11.203125 L 5.929688 -11.203125 Z M 4.902344 -10.171875 L 4.902344 -19.84375 L 9.226562 -19.84375 C 9.949219 -19.84375 10.519531 -19.632812 10.941406 -19.210938 C 11.363281 -18.789062 11.574219 -18.21875 11.574219 -17.496094 L 11.574219 -12.519531 C 11.574219 -11.796875 11.363281 -11.222656 10.941406 -10.804688 C 10.519531 -10.382812 9.949219 -10.171875 9.226562 -10.171875 Z M 4.902344 -10.171875 "/></g></g><g style="fill:#b21a22;fill-opacity:1;"><g transform="translate(38.188171, 78.912308)"><path style="stroke:none" d="M 6.390625 -24.09375 L 10.082031 -24.09375 C 11.925781 -24.09375 13.347656 -23.589844 14.351562 -22.589844 C 15.355469 -21.585938 15.855469 -20.164062 15.855469 -18.320312 L 15.855469 -16.144531 C 15.855469 -15.683594 15.710938 -15.308594 15.421875 -15.019531 C 15.132812 -14.730469 14.757812 -14.585938 14.300781 -14.585938 L 10.972656 -14.585938 C 10.511719 -14.585938 10.136719 -14.730469 9.847656 -15.019531 C 9.558594 -15.308594 9.414062 -15.683594 9.414062 -16.144531 L 9.414062 -17.527344 C 9.414062 -17.636719 9.40625 -17.71875 9.386719 -17.777344 C 9.382812 -17.789062 9.378906 -17.796875 9.375 -17.800781 C 9.378906 -17.796875 9.382812 -17.792969 9.386719 -17.789062 C 9.390625 -17.785156 9.394531 -17.78125 9.398438 -17.777344 C 9.394531 -17.78125 9.386719 -17.78125 9.378906 -17.785156 C 9.316406 -17.804688 9.234375 -17.816406 9.125 -17.816406 L 7.3125 -17.816406 C 7.207031 -17.816406 7.121094 -17.804688 7.0625 -17.785156 C 7.050781 -17.78125 7.046875 -17.78125 7.039062 -17.777344 C 7.042969 -17.78125 7.050781 -17.785156 7.054688 -17.789062 C 7.058594 -17.792969 7.0625 -17.796875 7.066406 -17.800781 C 7.0625 -17.796875 7.058594 -17.789062 7.054688 -17.777344 C 7.035156 -17.71875 7.027344 -17.636719 7.027344 -17.527344 L 7.027344 -14.726562 L 5.996094 -14.726562 L 6.3125 -15.707031 L 14.285156 -13.136719 C 14.792969 -12.960938 15.183594 -12.679688 15.453125 -12.296875 C 15.722656 -11.914062 15.855469 -11.464844 15.855469 -10.9375 L 15.855469 -4.746094 C 15.855469 -2.925781 15.355469 -1.507812 14.355469 -0.496094 C 13.351562 0.519531 11.929688 1.03125 10.082031 1.03125 L 6.390625 1.03125 C 4.570312 1.03125 3.152344 0.523438 2.136719 -0.492188 C 1.125 -1.503906 0.617188 -2.921875 0.617188 -4.746094 L 0.617188 -6.886719 C 0.617188 -7.347656 0.761719 -7.71875 1.050781 -8.007812 C 1.339844 -8.296875 1.714844 -8.441406 2.175781 -8.441406 L 5.503906 -8.441406 C 5.960938 -8.441406 6.335938 -8.296875 6.625 -8.007812 C 6.914062 -7.71875 7.058594 -7.347656 7.058594 -6.886719 L 7.058594 -5.503906 C 7.058594 -5.394531 7.070312 -5.308594 7.089844 -5.25 C 7.09375 -5.242188 7.09375 -5.234375 7.097656 -5.230469 C 7.09375 -5.234375 7.09375 -5.238281 7.085938 -5.242188 C 7.082031 -5.246094 7.078125 -5.25 7.074219 -5.253906 C 7.078125 -5.25 7.085938 -5.246094 7.097656 -5.242188 C 7.15625 -5.222656 7.238281 -5.214844 7.347656 -5.214844 L 9.125 -5.214844 C 9.234375 -5.214844 9.316406 -5.222656 9.378906 -5.242188 C 9.386719 -5.246094 9.394531 -5.25 9.398438 -5.253906 C 9.394531 -5.25 9.390625 -5.246094 9.386719 -5.242188 C 9.382812 -5.238281 9.378906 -5.234375 9.375 -5.230469 C 9.378906 -5.234375 9.382812 -5.242188 9.386719 -5.25 C 9.40625 -5.308594 9.414062 -5.394531 9.414062 -5.503906 L 9.414062 -8.828125 L 10.445312 -8.828125 L 10.125 -7.851562 L 2.21875 -10.421875 C 1.710938 -10.589844 1.316406 -10.867188 1.039062 -11.246094 C 0.757812 -11.628906 0.617188 -12.085938 0.617188 -12.617188 L 0.617188 -18.320312 C 0.617188 -20.164062 1.125 -21.589844 2.144531 -22.59375 C 3.15625 -23.59375 4.574219 -24.09375 6.390625 -24.09375 Z M 6.390625 -22.035156 C 5.136719 -22.035156 4.203125 -21.730469 3.589844 -21.128906 C 2.980469 -20.527344 2.675781 -19.589844 2.675781 -18.320312 L 2.675781 -12.617188 C 2.675781 -12.535156 2.683594 -12.480469 2.703125 -12.460938 C 2.71875 -12.433594 2.773438 -12.40625 2.855469 -12.378906 L 11.472656 -9.578125 L 11.472656 -5.503906 C 11.472656 -4.777344 11.265625 -4.207031 10.84375 -3.785156 C 10.421875 -3.363281 9.851562 -3.15625 9.125 -3.15625 L 7.347656 -3.15625 C 6.625 -3.15625 6.050781 -3.363281 5.628906 -3.785156 C 5.210938 -4.207031 5 -4.777344 5 -5.503906 L 5 -6.886719 C 5 -6.863281 5.007812 -6.832031 5.019531 -6.792969 C 5.050781 -6.703125 5.097656 -6.625 5.167969 -6.554688 C 5.238281 -6.484375 5.320312 -6.433594 5.40625 -6.402344 C 5.445312 -6.390625 5.480469 -6.382812 5.503906 -6.382812 L 2.175781 -6.382812 C 2.199219 -6.382812 2.230469 -6.390625 2.269531 -6.402344 C 2.355469 -6.433594 2.4375 -6.484375 2.507812 -6.554688 C 2.578125 -6.625 2.628906 -6.703125 2.65625 -6.792969 C 2.671875 -6.832031 2.675781 -6.863281 2.675781 -6.886719 L 2.675781 -4.746094 C 2.675781 -3.492188 2.984375 -2.558594 3.59375 -1.945312 C 4.207031 -1.335938 5.136719 -1.03125 6.390625 -1.03125 L 10.082031 -1.03125 C 11.355469 -1.03125 12.289062 -1.332031 12.890625 -1.941406 C 13.496094 -2.554688 13.796875 -3.488281 13.796875 -4.746094 L 13.796875 -10.9375 C 13.796875 -11.027344 13.789062 -11.085938 13.769531 -11.113281 C 13.753906 -11.132812 13.714844 -11.15625 13.652344 -11.175781 L 4.964844 -13.976562 L 4.964844 -17.527344 C 4.964844 -18.25 5.175781 -18.824219 5.597656 -19.246094 C 6.019531 -19.664062 6.589844 -19.875 7.3125 -19.875 L 9.125 -19.875 C 9.851562 -19.875 10.421875 -19.664062 10.84375 -19.246094 C 11.265625 -18.824219 11.472656 -18.25 11.472656 -17.527344 L 11.472656 -16.144531 C 11.472656 -16.167969 11.46875 -16.199219 11.453125 -16.238281 C 11.425781 -16.328125 11.375 -16.40625 11.304688 -16.476562 C 11.234375 -16.546875 11.15625 -16.597656 11.066406 -16.625 C 11.027344 -16.640625 10.996094 -16.648438 10.972656 -16.648438 L 14.300781 -16.648438 C 14.277344 -16.648438 14.242188 -16.640625 14.203125 -16.625 C 14.117188 -16.597656 14.039062 -16.546875 13.964844 -16.476562 C 13.894531 -16.40625 13.847656 -16.328125 13.816406 -16.238281 C 13.804688 -16.199219 13.796875 -16.167969 13.796875 -16.144531 L 13.796875 -18.320312 C 13.796875 -19.59375 13.496094 -20.53125 12.894531 -21.132812 C 12.296875 -21.734375 11.355469 -22.035156 10.082031 -22.035156 Z M 6.390625 -22.035156 "/></g></g><g style="fill:#b21a22;fill-opacity:1;"><g transform="translate(54.656692, 78.912308)"><path style="stroke:none" d="M 0.617188 -0.527344 L 0.617188 -22.535156 C 0.617188 -22.996094 0.761719 -23.371094 1.050781 -23.660156 C 1.339844 -23.949219 1.714844 -24.09375 2.175781 -24.09375 L 10.082031 -24.09375 C 11.925781 -24.09375 13.347656 -23.589844 14.351562 -22.589844 C 15.355469 -21.585938 15.855469 -20.164062 15.855469 -18.320312 L 15.855469 -11.859375 C 15.855469 -10.039062 15.355469 -8.625 14.351562 -7.625 C 13.351562 -6.625 11.933594 -6.113281 10.097656 -6.085938 L 5.9375 -6.054688 L 5.929688 -7.082031 L 6.960938 -7.082031 L 6.960938 -0.496094 C 6.960938 -0.0351562 6.816406 0.339844 6.527344 0.628906 C 6.238281 0.917969 5.863281 1.0625 5.402344 1.0625 L 2.164062 1.03125 C 1.710938 1.03125 1.339844 0.886719 1.050781 0.597656 C 0.761719 0.308594 0.617188 -0.0664062 0.617188 -0.527344 Z M 2.675781 -0.527344 C 2.675781 -0.550781 2.671875 -0.582031 2.65625 -0.621094 C 2.628906 -0.710938 2.578125 -0.789062 2.507812 -0.859375 C 2.4375 -0.929688 2.355469 -0.980469 2.269531 -1.011719 C 2.230469 -1.023438 2.203125 -1.03125 2.183594 -1.03125 L 5.402344 -0.996094 C 5.378906 -0.996094 5.347656 -0.988281 5.308594 -0.976562 C 5.21875 -0.949219 5.140625 -0.898438 5.070312 -0.828125 C 5 -0.757812 4.949219 -0.675781 4.921875 -0.589844 C 4.90625 -0.550781 4.902344 -0.519531 4.902344 -0.496094 L 4.902344 -8.105469 L 10.066406 -8.144531 C 11.347656 -8.164062 12.292969 -8.476562 12.894531 -9.082031 C 13.496094 -9.679688 13.796875 -10.609375 13.796875 -11.859375 L 13.796875 -18.320312 C 13.796875 -19.59375 13.496094 -20.53125 12.894531 -21.132812 C 12.296875 -21.734375 11.355469 -22.035156 10.082031 -22.035156 L 2.175781 -22.035156 C 2.199219 -22.035156 2.230469 -22.039062 2.269531 -22.054688 C 2.355469 -22.082031 2.4375 -22.132812 2.507812 -22.203125 C 2.578125 -22.273438 2.628906 -22.351562 2.65625 -22.441406 C 2.671875 -22.480469 2.675781 -22.511719 2.675781 -22.535156 Z M 5.921875 -12.363281 L 9.214844 -12.398438 C 9.332031 -12.398438 9.417969 -12.40625 9.476562 -12.425781 C 9.488281 -12.429688 9.496094 -12.433594 9.5 -12.433594 C 9.496094 -12.433594 9.492188 -12.429688 9.484375 -12.425781 C 9.480469 -12.417969 9.476562 -12.414062 9.476562 -12.410156 C 9.476562 -12.414062 9.480469 -12.421875 9.484375 -12.433594 C 9.503906 -12.492188 9.511719 -12.578125 9.511719 -12.683594 L 9.511719 -17.496094 C 9.511719 -17.601562 9.503906 -17.6875 9.484375 -17.746094 C 9.480469 -17.757812 9.476562 -17.765625 9.476562 -17.769531 C 9.476562 -17.765625 9.480469 -17.761719 9.484375 -17.753906 C 9.492188 -17.75 9.496094 -17.746094 9.5 -17.746094 C 9.496094 -17.746094 9.488281 -17.75 9.476562 -17.753906 C 9.417969 -17.773438 9.332031 -17.785156 9.226562 -17.785156 L 5.941406 -17.75 L 5.929688 -18.78125 L 6.960938 -18.78125 L 6.960938 -11.332031 L 5.929688 -11.332031 Z M 4.902344 -10.292969 L 4.902344 -19.800781 L 9.226562 -19.84375 C 9.949219 -19.84375 10.519531 -19.632812 10.941406 -19.210938 C 11.363281 -18.789062 11.574219 -18.21875 11.574219 -17.496094 L 11.574219 -12.683594 C 11.574219 -11.960938 11.363281 -11.390625 10.941406 -10.96875 C 10.519531 -10.546875 9.953125 -10.335938 9.234375 -10.335938 L 5.941406 -10.304688 Z M 4.902344 -10.292969 "/></g></g><g style="fill:#b21a22;fill-opacity:1;"><g transform="translate(71.125214, 78.912308)"><path style="stroke:none" d="M 15.824219 -22.535156 L 15.824219 -19.242188 C 15.824219 -18.78125 15.6875 -18.40625 15.410156 -18.117188 C 15.121094 -17.804688 14.738281 -17.652344 14.265625 -17.652344 L 6.128906 -17.652344 L 6.128906 -18.679688 L 7.15625 -18.679688 L 7.15625 -13.605469 L 6.128906 -13.605469 L 6.128906 -14.636719 L 12.324219 -14.636719 C 12.792969 -14.636719 13.175781 -14.480469 13.46875 -14.171875 C 13.742188 -13.882812 13.878906 -13.507812 13.878906 -13.046875 L 13.878906 -9.785156 C 13.878906 -9.328125 13.742188 -8.953125 13.46875 -8.660156 C 13.175781 -8.351562 12.792969 -8.195312 12.324219 -8.195312 L 6.128906 -8.195312 L 6.128906 -9.226562 L 7.15625 -9.226562 L 7.15625 -4.347656 L 6.128906 -4.347656 L 6.128906 -5.378906 L 14.265625 -5.378906 C 14.726562 -5.378906 15.101562 -5.234375 15.390625 -4.945312 C 15.679688 -4.65625 15.824219 -4.28125 15.824219 -3.820312 L 15.824219 -0.527344 C 15.824219 -0.0664062 15.679688 0.308594 15.390625 0.597656 C 15.101562 0.886719 14.726562 1.03125 14.265625 1.03125 L 2.140625 1.03125 C 1.679688 1.03125 1.304688 0.878906 1.019531 0.574219 C 0.75 0.285156 0.617188 -0.078125 0.617188 -0.527344 L 0.617188 -22.535156 C 0.617188 -22.984375 0.75 -23.351562 1.019531 -23.636719 C 1.304688 -23.941406 1.679688 -24.09375 2.140625 -24.09375 L 14.265625 -24.09375 C 14.726562 -24.09375 15.101562 -23.949219 15.390625 -23.660156 C 15.679688 -23.371094 15.824219 -22.996094 15.824219 -22.535156 Z M 13.765625 -22.535156 C 13.765625 -22.511719 13.769531 -22.480469 13.785156 -22.441406 C 13.8125 -22.351562 13.863281 -22.273438 13.933594 -22.203125 C 14.003906 -22.132812 14.082031 -22.082031 14.171875 -22.054688 C 14.210938 -22.039062 14.242188 -22.035156 14.265625 -22.035156 L 2.140625 -22.035156 C 2.273438 -22.035156 2.402344 -22.097656 2.523438 -22.226562 C 2.589844 -22.296875 2.636719 -22.375 2.660156 -22.460938 C 2.671875 -22.492188 2.675781 -22.519531 2.675781 -22.535156 L 2.675781 -0.527344 C 2.675781 -0.542969 2.671875 -0.570312 2.660156 -0.605469 C 2.636719 -0.6875 2.589844 -0.765625 2.523438 -0.835938 C 2.402344 -0.964844 2.273438 -1.03125 2.140625 -1.03125 L 14.265625 -1.03125 C 14.242188 -1.03125 14.210938 -1.023438 14.171875 -1.011719 C 14.082031 -0.980469 14.003906 -0.929688 13.933594 -0.859375 C 13.863281 -0.789062 13.8125 -0.710938 13.785156 -0.621094 C 13.769531 -0.582031 13.765625 -0.550781 13.765625 -0.527344 L 13.765625 -3.820312 C 13.765625 -3.796875 13.769531 -3.765625 13.785156 -3.726562 C 13.8125 -3.640625 13.863281 -3.558594 13.933594 -3.488281 C 14.003906 -3.417969 14.082031 -3.367188 14.171875 -3.339844 C 14.210938 -3.324219 14.242188 -3.320312 14.265625 -3.320312 L 5.097656 -3.320312 L 5.097656 -10.253906 L 12.324219 -10.253906 C 12.292969 -10.253906 12.253906 -10.246094 12.210938 -10.230469 C 12.117188 -10.199219 12.039062 -10.144531 11.96875 -10.070312 C 11.902344 -10.003906 11.859375 -9.929688 11.835938 -9.847656 C 11.824219 -9.816406 11.820312 -9.796875 11.820312 -9.785156 L 11.820312 -13.046875 C 11.820312 -13.035156 11.824219 -13.015625 11.835938 -12.984375 C 11.859375 -12.902344 11.902344 -12.828125 11.96875 -12.761719 C 12.039062 -12.6875 12.117188 -12.632812 12.210938 -12.601562 C 12.253906 -12.585938 12.292969 -12.578125 12.324219 -12.578125 L 5.097656 -12.578125 L 5.097656 -19.710938 L 14.265625 -19.710938 C 14.234375 -19.710938 14.199219 -19.703125 14.152344 -19.6875 C 14.0625 -19.65625 13.980469 -19.601562 13.910156 -19.527344 C 13.847656 -19.457031 13.804688 -19.386719 13.777344 -19.304688 C 13.769531 -19.273438 13.765625 -19.253906 13.765625 -19.242188 Z M 13.765625 -22.535156 "/></g></g><g style="fill:#b21a22;fill-opacity:1;"><g transform="translate(87.560793, 78.912308)"><path style="stroke:none" d="M 15.890625 -18.320312 L 15.890625 -14.761719 C 15.890625 -14.300781 15.746094 -13.925781 15.457031 -13.636719 C 15.167969 -13.347656 14.792969 -13.203125 14.332031 -13.203125 L 11.234375 -13.203125 C 10.773438 -13.203125 10.402344 -13.347656 10.113281 -13.636719 C 9.824219 -13.925781 9.679688 -14.300781 9.679688 -14.761719 L 9.679688 -17.460938 C 9.679688 -17.570312 9.667969 -17.652344 9.648438 -17.714844 C 9.644531 -17.722656 9.640625 -17.730469 9.640625 -17.734375 C 9.640625 -17.730469 9.644531 -17.726562 9.648438 -17.722656 C 9.65625 -17.71875 9.660156 -17.714844 9.664062 -17.710938 C 9.660156 -17.714844 9.652344 -17.71875 9.640625 -17.722656 C 9.582031 -17.742188 9.5 -17.75 9.390625 -17.75 L 7.28125 -17.75 C 7.171875 -17.75 7.089844 -17.742188 7.03125 -17.722656 C 7.019531 -17.71875 7.011719 -17.714844 7.007812 -17.710938 C 7.011719 -17.714844 7.015625 -17.71875 7.019531 -17.722656 C 7.027344 -17.726562 7.03125 -17.730469 7.03125 -17.734375 C 7.03125 -17.730469 7.027344 -17.722656 7.023438 -17.714844 C 7.003906 -17.652344 6.992188 -17.570312 6.992188 -17.460938 L 6.992188 -5.503906 C 6.992188 -5.394531 7.003906 -5.308594 7.023438 -5.25 C 7.027344 -5.242188 7.03125 -5.234375 7.03125 -5.230469 C 7.03125 -5.234375 7.027344 -5.238281 7.019531 -5.242188 C 7.015625 -5.246094 7.011719 -5.25 7.007812 -5.253906 C 7.011719 -5.25 7.019531 -5.246094 7.03125 -5.242188 C 7.089844 -5.222656 7.171875 -5.214844 7.28125 -5.214844 L 9.390625 -5.214844 C 9.5 -5.214844 9.582031 -5.222656 9.640625 -5.242188 C 9.652344 -5.246094 9.660156 -5.25 9.664062 -5.253906 C 9.660156 -5.25 9.65625 -5.246094 9.648438 -5.242188 C 9.644531 -5.238281 9.640625 -5.234375 9.640625 -5.230469 C 9.640625 -5.234375 9.644531 -5.242188 9.648438 -5.25 C 9.667969 -5.308594 9.679688 -5.394531 9.679688 -5.503906 L 9.679688 -8.304688 C 9.679688 -8.761719 9.824219 -9.136719 10.113281 -9.425781 C 10.402344 -9.714844 10.773438 -9.859375 11.234375 -9.859375 L 14.332031 -9.859375 C 14.792969 -9.859375 15.167969 -9.714844 15.457031 -9.425781 C 15.746094 -9.136719 15.890625 -8.761719 15.890625 -8.304688 L 15.890625 -4.746094 C 15.890625 -2.921875 15.382812 -1.503906 14.367188 -0.492188 C 13.355469 0.523438 11.9375 1.03125 10.113281 1.03125 L 6.425781 1.03125 C 4.605469 1.03125 3.183594 0.523438 2.160156 -0.484375 C 1.132812 -1.5 0.617188 -2.917969 0.617188 -4.746094 L 0.617188 -18.320312 C 0.617188 -20.167969 1.132812 -21.59375 2.164062 -22.597656 C 3.1875 -23.59375 4.609375 -24.09375 6.425781 -24.09375 L 10.113281 -24.09375 C 11.933594 -24.09375 13.351562 -23.59375 14.363281 -22.59375 C 15.378906 -21.589844 15.890625 -20.164062 15.890625 -18.320312 Z M 13.828125 -18.320312 C 13.828125 -19.589844 13.527344 -20.527344 12.917969 -21.128906 C 12.304688 -21.730469 11.371094 -22.035156 10.113281 -22.035156 L 6.425781 -22.035156 C 5.167969 -22.035156 4.226562 -21.730469 3.601562 -21.121094 C 2.984375 -20.523438 2.675781 -19.589844 2.675781 -18.320312 L 2.675781 -4.746094 C 2.675781 -3.492188 2.988281 -2.5625 3.605469 -1.953125 C 4.230469 -1.335938 5.167969 -1.03125 6.425781 -1.03125 L 10.113281 -1.03125 C 11.367188 -1.03125 12.300781 -1.335938 12.914062 -1.945312 C 13.523438 -2.558594 13.828125 -3.492188 13.828125 -4.746094 L 13.828125 -8.304688 C 13.828125 -8.277344 13.835938 -8.246094 13.847656 -8.207031 C 13.878906 -8.121094 13.929688 -8.039062 14 -7.96875 C 14.070312 -7.898438 14.148438 -7.847656 14.238281 -7.820312 C 14.277344 -7.808594 14.308594 -7.800781 14.332031 -7.800781 L 11.234375 -7.800781 C 11.257812 -7.800781 11.289062 -7.808594 11.328125 -7.820312 C 11.417969 -7.847656 11.496094 -7.898438 11.566406 -7.96875 C 11.636719 -8.039062 11.6875 -8.121094 11.71875 -8.207031 C 11.730469 -8.246094 11.738281 -8.277344 11.738281 -8.304688 L 11.738281 -5.503906 C 11.738281 -4.777344 11.527344 -4.207031 11.105469 -3.785156 C 10.6875 -3.363281 10.113281 -3.15625 9.390625 -3.15625 L 7.28125 -3.15625 C 6.558594 -3.15625 5.984375 -3.363281 5.566406 -3.785156 C 5.144531 -4.207031 4.933594 -4.777344 4.933594 -5.503906 L 4.933594 -17.460938 C 4.933594 -18.1875 5.144531 -18.757812 5.566406 -19.179688 C 5.984375 -19.597656 6.558594 -19.808594 7.28125 -19.808594 L 9.390625 -19.808594 C 10.113281 -19.808594 10.6875 -19.597656 11.105469 -19.179688 C 11.527344 -18.757812 11.738281 -18.1875 11.738281 -17.460938 L 11.738281 -14.761719 C 11.738281 -14.785156 11.730469 -14.816406 11.71875 -14.855469 C 11.6875 -14.941406 11.636719 -15.023438 11.566406 -15.09375 C 11.496094 -15.164062 11.417969 -15.214844 11.328125 -15.242188 C 11.289062 -15.257812 11.257812 -15.261719 11.234375 -15.261719 L 14.332031 -15.261719 C 14.308594 -15.261719 14.277344 -15.257812 14.238281 -15.242188 C 14.148438 -15.214844 14.070312 -15.164062 14 -15.09375 C 13.929688 -15.023438 13.878906 -14.941406 13.847656 -14.855469 C 13.835938 -14.816406 13.828125 -14.785156 13.828125 -14.761719 Z M 13.828125 -18.320312 "/></g></g><g style="fill:#060705;fill-opacity:1;"><g transform="translate(2.560949, 32.977957)"><path style="stroke:none" d="M 13.640625 -23.0625 L 1.515625 -23.0625 C 1.160156 -23.0625 0.984375 -22.890625 0.984375 -22.546875 L 0.984375 -19.25 C 0.984375 -18.894531 1.160156 -18.71875 1.515625 -18.71875 L 5.34375 -18.71875 L 5.34375 -0.53125 C 5.34375 -0.175781 5.515625 0 5.859375 0 L 9.296875 0 C 9.640625 0 9.8125 -0.175781 9.8125 -0.53125 L 9.8125 -18.71875 L 13.640625 -18.71875 C 13.992188 -18.71875 14.171875 -18.894531 14.171875 -19.25 L 14.171875 -22.546875 C 14.171875 -22.890625 13.992188 -23.0625 13.640625 -23.0625 Z M 13.640625 -23.0625 "/></g></g><g style="fill:#060705;fill-opacity:1;"><g transform="translate(17.711991, 32.977957)"><path style="stroke:none" d="M 2.171875 0 L 5.609375 0 C 5.953125 0 6.125 -0.175781 6.125 -0.53125 L 6.125 -22.546875 C 6.125 -22.890625 5.953125 -23.0625 5.609375 -23.0625 L 2.171875 -23.0625 C 1.816406 -23.0625 1.640625 -22.890625 1.640625 -22.546875 L 1.640625 -0.53125 C 1.640625 -0.175781 1.816406 0 2.171875 0 Z M 2.171875 0 "/></g></g><g style="fill:#060705;fill-opacity:1;"><g transform="translate(25.485128, 32.977957)"><path style="stroke:none" d="M 15.421875 -23.0625 L 19.765625 -23.0625 C 20.210938 -23.0625 20.4375 -22.84375 20.4375 -22.40625 L 20.4375 -0.65625 C 20.4375 -0.21875 20.210938 0 19.765625 0 L 16.703125 0 C 16.265625 0 16.046875 -0.21875 16.046875 -0.65625 L 16.046875 -13.609375 L 15.8125 -13.609375 L 12.71875 -0.5625 C 12.613281 -0.1875 12.375 0 12 0 L 10.046875 0 C 9.671875 0 9.429688 -0.1875 9.328125 -0.5625 L 6.234375 -13.609375 L 6 -13.609375 L 6 -0.65625 C 6 -0.21875 5.78125 0 5.34375 0 L 2.3125 0 C 1.863281 0 1.640625 -0.21875 1.640625 -0.65625 L 1.640625 -22.40625 C 1.640625 -22.84375 1.863281 -23.0625 2.3125 -23.0625 L 6.65625 -23.0625 C 7.03125 -23.0625 7.269531 -22.875 7.375 -22.5 L 11.046875 -7.8125 L 14.703125 -22.5 C 14.804688 -22.875 15.046875 -23.0625 15.421875 -23.0625 Z M 15.421875 -23.0625 "/></g></g><g style="fill:#060705;fill-opacity:1;"><g transform="translate(47.552943, 32.977957)"><path style="stroke:none" d="M 14.796875 -22.546875 L 14.796875 -19.25 C 14.796875 -18.875 14.617188 -18.6875 14.265625 -18.6875 L 6.125 -18.6875 L 6.125 -13.609375 L 12.328125 -13.609375 C 12.679688 -13.609375 12.859375 -13.421875 12.859375 -13.046875 L 12.859375 -9.78125 C 12.859375 -9.414062 12.679688 -9.234375 12.328125 -9.234375 L 6.125 -9.234375 L 6.125 -4.34375 L 14.265625 -4.34375 C 14.617188 -4.34375 14.796875 -4.171875 14.796875 -3.828125 L 14.796875 -0.53125 C 14.796875 -0.175781 14.617188 0 14.265625 0 L 2.140625 0 C 1.804688 0 1.640625 -0.175781 1.640625 -0.53125 L 1.640625 -22.546875 C 1.640625 -22.890625 1.804688 -23.0625 2.140625 -23.0625 L 14.265625 -23.0625 C 14.617188 -23.0625 14.796875 -22.890625 14.796875 -22.546875 Z M 14.796875 -22.546875 "/></g></g><g style="fill:#060705;fill-opacity:1;"><g transform="translate(63.988522, 32.977957)"><path style="stroke:none" d="M 14.859375 -18.328125 L 14.859375 -14.765625 C 14.859375 -14.410156 14.679688 -14.234375 14.328125 -14.234375 L 11.234375 -14.234375 C 10.878906 -14.234375 10.703125 -14.410156 10.703125 -14.765625 L 10.703125 -17.46875 C 10.703125 -18.34375 10.265625 -18.78125 9.390625 -18.78125 L 7.28125 -18.78125 C 6.40625 -18.78125 5.96875 -18.34375 5.96875 -17.46875 L 5.96875 -5.5 C 5.96875 -4.625 6.40625 -4.1875 7.28125 -4.1875 L 9.390625 -4.1875 C 10.265625 -4.1875 10.703125 -4.625 10.703125 -5.5 L 10.703125 -8.296875 C 10.703125 -8.648438 10.878906 -8.828125 11.234375 -8.828125 L 14.328125 -8.828125 C 14.679688 -8.828125 14.859375 -8.648438 14.859375 -8.296875 L 14.859375 -4.75 C 14.859375 -3.207031 14.453125 -2.03125 13.640625 -1.21875 C 12.828125 -0.40625 11.648438 0 10.109375 0 L 6.421875 0 C 4.890625 0 3.707031 -0.40625 2.875 -1.21875 C 2.050781 -2.03125 1.640625 -3.207031 1.640625 -4.75 L 1.640625 -18.328125 C 1.640625 -19.878906 2.050781 -21.054688 2.875 -21.859375 C 3.707031 -22.660156 4.890625 -23.0625 6.421875 -23.0625 L 10.109375 -23.0625 C 11.648438 -23.0625 12.828125 -22.660156 13.640625 -21.859375 C 14.453125 -21.054688 14.859375 -19.878906 14.859375 -18.328125 Z M 14.859375 -18.328125 "/></g></g><g style="fill:#060705;fill-opacity:1;"><g transform="translate(80.489986, 32.977957)"><path style="stroke:none" d="M 1.640625 -4.75 L 1.640625 -18.328125 C 1.640625 -19.878906 2.046875 -21.054688 2.859375 -21.859375 C 3.679688 -22.660156 4.859375 -23.0625 6.390625 -23.0625 L 10.078125 -23.0625 C 11.640625 -23.0625 12.820312 -22.660156 13.625 -21.859375 C 14.425781 -21.054688 14.828125 -19.878906 14.828125 -18.328125 L 14.828125 -4.75 C 14.828125 -3.207031 14.425781 -2.03125 13.625 -1.21875 C 12.820312 -0.40625 11.640625 0 10.078125 0 L 6.390625 0 C 4.859375 0 3.679688 -0.40625 2.859375 -1.21875 C 2.046875 -2.03125 1.640625 -3.207031 1.640625 -4.75 Z M 7.25 -4.25 L 9.359375 -4.25 C 10.234375 -4.25 10.671875 -4.6875 10.671875 -5.5625 L 10.671875 -17.5 C 10.671875 -18.375 10.234375 -18.8125 9.359375 -18.8125 L 7.25 -18.8125 C 6.375 -18.8125 5.9375 -18.375 5.9375 -17.5 L 5.9375 -5.5625 C 5.9375 -4.6875 6.375 -4.25 7.25 -4.25 Z M 7.25 -4.25 "/></g></g><g style="fill:#060705;fill-opacity:1;"><g transform="translate(96.958507, 32.977957)"><path style="stroke:none" d="M 1.640625 -0.53125 L 1.640625 -22.546875 C 1.640625 -22.890625 1.816406 -23.0625 2.171875 -23.0625 L 10.078125 -23.0625 C 11.640625 -23.0625 12.820312 -22.660156 13.625 -21.859375 C 14.425781 -21.054688 14.828125 -19.878906 14.828125 -18.328125 L 14.828125 -11.859375 C 14.828125 -10.328125 14.425781 -9.160156 13.625 -8.359375 C 12.820312 -7.554688 11.640625 -7.144531 10.078125 -7.125 L 5.9375 -7.078125 L 5.9375 -0.5 C 5.9375 -0.144531 5.757812 0.03125 5.40625 0.03125 L 2.171875 0 C 1.816406 0 1.640625 -0.175781 1.640625 -0.53125 Z M 5.9375 -11.328125 L 9.234375 -11.375 C 10.109375 -11.375 10.546875 -11.8125 10.546875 -12.6875 L 10.546875 -17.5 C 10.546875 -18.375 10.109375 -18.8125 9.234375 -18.8125 L 5.9375 -18.78125 Z M 5.9375 -11.328125 "/></g></g><g style="fill:#060705;fill-opacity:1;"><g transform="translate(11.904414, 78.912308)"><path style="stroke:none" d="M 1.640625 -10.34375 L 1.640625 -13.375 C 1.640625 -13.8125 1.863281 -14.03125 2.3125 -14.03125 L 7.515625 -14.03125 C 7.953125 -14.03125 8.171875 -13.8125 8.171875 -13.375 L 8.171875 -10.34375 C 8.171875 -9.90625 7.953125 -9.6875 7.515625 -9.6875 L 2.3125 -9.6875 C 1.863281 -9.6875 1.640625 -9.90625 1.640625 -10.34375 Z M 1.640625 -10.34375 "/></g></g><g style="fill:#060705;fill-opacity:1;"><g transform="translate(21.71965, 78.912308)"><path style="stroke:none" d="M 14.828125 -18.328125 L 14.828125 -11.703125 C 14.828125 -9.785156 14.210938 -8.441406 12.984375 -7.671875 L 14.703125 -0.59375 C 14.804688 -0.195312 14.648438 0 14.234375 0 L 11 0 C 10.695312 0 10.515625 -0.15625 10.453125 -0.46875 L 8.859375 -6.953125 L 5.9375 -6.953125 L 5.9375 -0.53125 C 5.9375 -0.175781 5.757812 0 5.40625 0 L 2.171875 0 C 1.816406 0 1.640625 -0.175781 1.640625 -0.53125 L 1.640625 -22.546875 C 1.640625 -22.890625 1.816406 -23.0625 2.171875 -23.0625 L 10.078125 -23.0625 C 11.640625 -23.0625 12.820312 -22.660156 13.625 -21.859375 C 14.425781 -21.054688 14.828125 -19.878906 14.828125 -18.328125 Z M 5.9375 -11.203125 L 9.234375 -11.203125 C 10.109375 -11.203125 10.546875 -11.640625 10.546875 -12.515625 L 10.546875 -17.5 C 10.546875 -18.375 10.109375 -18.8125 9.234375 -18.8125 L 5.9375 -18.8125 Z M 5.9375 -11.203125 "/></g></g><g style="fill:#060705;fill-opacity:1;"><g transform="translate(38.188171, 78.912308)"><path style="stroke:none" d="M 6.390625 -23.0625 L 10.078125 -23.0625 C 11.640625 -23.0625 12.820312 -22.660156 13.625 -21.859375 C 14.425781 -21.054688 14.828125 -19.878906 14.828125 -18.328125 L 14.828125 -16.140625 C 14.828125 -15.796875 14.648438 -15.625 14.296875 -15.625 L 10.96875 -15.625 C 10.625 -15.625 10.453125 -15.796875 10.453125 -16.140625 L 10.453125 -17.53125 C 10.453125 -18.40625 10.007812 -18.84375 9.125 -18.84375 L 7.3125 -18.84375 C 6.4375 -18.84375 6 -18.40625 6 -17.53125 L 6 -14.734375 L 13.96875 -12.15625 C 14.539062 -11.957031 14.828125 -11.550781 14.828125 -10.9375 L 14.828125 -4.75 C 14.828125 -3.207031 14.425781 -2.03125 13.625 -1.21875 C 12.820312 -0.40625 11.640625 0 10.078125 0 L 6.390625 0 C 4.859375 0 3.679688 -0.40625 2.859375 -1.21875 C 2.046875 -2.03125 1.640625 -3.207031 1.640625 -4.75 L 1.640625 -6.890625 C 1.640625 -7.242188 1.816406 -7.421875 2.171875 -7.421875 L 5.5 -7.421875 C 5.851562 -7.421875 6.03125 -7.242188 6.03125 -6.890625 L 6.03125 -5.5 C 6.03125 -4.625 6.46875 -4.1875 7.34375 -4.1875 L 9.125 -4.1875 C 10.007812 -4.1875 10.453125 -4.625 10.453125 -5.5 L 10.453125 -8.828125 L 2.53125 -11.40625 C 1.9375 -11.601562 1.640625 -12.007812 1.640625 -12.625 L 1.640625 -18.328125 C 1.640625 -19.878906 2.046875 -21.054688 2.859375 -21.859375 C 3.679688 -22.660156 4.859375 -23.0625 6.390625 -23.0625 Z M 6.390625 -23.0625 "/></g></g><g style="fill:#060705;fill-opacity:1;"><g transform="translate(54.656692, 78.912308)"><path style="stroke:none" d="M 1.640625 -0.53125 L 1.640625 -22.546875 C 1.640625 -22.890625 1.816406 -23.0625 2.171875 -23.0625 L 10.078125 -23.0625 C 11.640625 -23.0625 12.820312 -22.660156 13.625 -21.859375 C 14.425781 -21.054688 14.828125 -19.878906 14.828125 -18.328125 L 14.828125 -11.859375 C 14.828125 -10.328125 14.425781 -9.160156 13.625 -8.359375 C 12.820312 -7.554688 11.640625 -7.144531 10.078125 -7.125 L 5.9375 -7.078125 L 5.9375 -0.5 C 5.9375 -0.144531 5.757812 0.03125 5.40625 0.03125 L 2.171875 0 C 1.816406 0 1.640625 -0.175781 1.640625 -0.53125 Z M 5.9375 -11.328125 L 9.234375 -11.375 C 10.109375 -11.375 10.546875 -11.8125 10.546875 -12.6875 L 10.546875 -17.5 C 10.546875 -18.375 10.109375 -18.8125 9.234375 -18.8125 L 5.9375 -18.78125 Z M 5.9375 -11.328125 "/></g></g><g style="fill:#060705;fill-opacity:1;"><g transform="translate(71.125214, 78.912308)"><path style="stroke:none" d="M 14.796875 -22.546875 L 14.796875 -19.25 C 14.796875 -18.875 14.617188 -18.6875 14.265625 -18.6875 L 6.125 -18.6875 L 6.125 -13.609375 L 12.328125 -13.609375 C 12.679688 -13.609375 12.859375 -13.421875 12.859375 -13.046875 L 12.859375 -9.78125 C 12.859375 -9.414062 12.679688 -9.234375 12.328125 -9.234375 L 6.125 -9.234375 L 6.125 -4.34375 L 14.265625 -4.34375 C 14.617188 -4.34375 14.796875 -4.171875 14.796875 -3.828125 L 14.796875 -0.53125 C 14.796875 -0.175781 14.617188 0 14.265625 0 L 2.140625 0 C 1.804688 0 1.640625 -0.175781 1.640625 -0.53125 L 1.640625 -22.546875 C 1.640625 -22.890625 1.804688 -23.0625 2.140625 -23.0625 L 14.265625 -23.0625 C 14.617188 -23.0625 14.796875 -22.890625 14.796875 -22.546875 Z M 14.796875 -22.546875 "/></g></g><g style="fill:#060705;fill-opacity:1;"><g transform="translate(87.560793, 78.912308)"><path style="stroke:none" d="M 14.859375 -18.328125 L 14.859375 -14.765625 C 14.859375 -14.410156 14.679688 -14.234375 14.328125 -14.234375 L 11.234375 -14.234375 C 10.878906 -14.234375 10.703125 -14.410156 10.703125 -14.765625 L 10.703125 -17.46875 C 10.703125 -18.34375 10.265625 -18.78125 9.390625 -18.78125 L 7.28125 -18.78125 C 6.40625 -18.78125 5.96875 -18.34375 5.96875 -17.46875 L 5.96875 -5.5 C 5.96875 -4.625 6.40625 -4.1875 7.28125 -4.1875 L 9.390625 -4.1875 C 10.265625 -4.1875 10.703125 -4.625 10.703125 -5.5 L 10.703125 -8.296875 C 10.703125 -8.648438 10.878906 -8.828125 11.234375 -8.828125 L 14.328125 -8.828125 C 14.679688 -8.828125 14.859375 -8.648438 14.859375 -8.296875 L 14.859375 -4.75 C 14.859375 -3.207031 14.453125 -2.03125 13.640625 -1.21875 C 12.828125 -0.40625 11.648438 0 10.109375 0 L 6.421875 0 C 4.890625 0 3.707031 -0.40625 2.875 -1.21875 C 2.050781 -2.03125 1.640625 -3.207031 1.640625 -4.75 L 1.640625 -18.328125 C 1.640625 -19.878906 2.050781 -21.054688 2.875 -21.859375 C 3.707031 -22.660156 4.890625 -23.0625 6.421875 -23.0625 L 10.109375 -23.0625 C 11.648438 -23.0625 12.828125 -22.660156 13.640625 -21.859375 C 14.453125 -21.054688 14.859375 -19.878906 14.859375 -18.328125 Z M 14.859375 -18.328125 "/></g></g></g></g></g></svg>