<svg xmlns="http://www.w3.org/2000/svg" xmlns:xlink="http://www.w3.org/1999/xlink" width="128" zoomAndPan="magnify" viewBox="0 0 96 95.999999" height="128" preserveAspectRatio="xMidYMid meet" version="1.2"><defs><clipPath id="e4fd94fe72"><path d="M 6 0 L 90 0 L 90 96 L 6 96 Z M 6 0 "/></clipPath><clipPath id="a7666e835e"><path d="M -14.304688 36.578125 L 68.691406 -11.898438 L 110.335938 59.402344 L 27.339844 107.878906 Z M -14.304688 36.578125 "/></clipPath><clipPath id="90f9f595f8"><path d="M 89.484375 23.769531 L 89.5625 71.535156 L 48.082031 95.765625 L 6.515625 72.226562 L 6.4375 24.464844 L 47.921875 0.234375 Z M 89.484375 23.769531 "/></clipPath><clipPath id="410059efda"><path d="M 14.140625 9.121094 L 81.851562 9.121094 L 81.851562 86.839844 L 14.140625 86.839844 Z M 14.140625 9.121094 "/></clipPath></defs><g id="16beb3a76e"><g clip-rule="nonzero" clip-path="url(#e4fd94fe72)"><g clip-rule="nonzero" clip-path="url(#a7666e835e)"><g clip-rule="nonzero" clip-path="url(#90f9f595f8)"><path style=" stroke:none;fill-rule:nonzero;fill:#65b30e;fill-opacity:1;" d="M -14.304688 36.578125 L 68.691406 -11.898438 L 110.335938 59.402344 L 27.339844 107.878906 Z M -14.304688 36.578125 "/></g></g></g><path style=" stroke:none;fill-rule:nonzero;fill:#87ff00;fill-opacity:1;" d="M 34.453125 34.738281 L 34.410156 34.695312 L 24.839844 44.265625 L 48.074219 67.457031 L 57.644531 57.933594 L 71.308594 44.265625 L 61.738281 34.695312 L 61.738281 34.652344 L 34.410156 34.652344 Z M 34.453125 34.738281 "/><g clip-rule="nonzero" clip-path="url(#410059efda)"><path style=" stroke:none;fill-rule:nonzero;fill:#87ff00;fill-opacity:1;" d="M 47.988281 9.179688 L 14.148438 28.574219 L 14.148438 67.371094 L 47.988281 86.769531 L 81.828125 67.371094 L 81.828125 28.574219 Z M 75.359375 63.664062 L 47.988281 79.4375 L 20.613281 63.664062 L 20.617188 32.195312 L 47.988281 16.417969 L 75.363281 32.195312 L 75.363281 63.664062 Z M 75.359375 63.664062 "/></g><g style="fill:#b21a22;fill-opacity:1;"><g transform="translate(20.823359, 40.847638)"><path style="stroke:none" d="M 0.441406 -3.386719 L 0.441406 -13.074219 C 0.441406 -14.390625 0.804688 -15.410156 1.53125 -16.125 C 2.253906 -16.835938 3.261719 -17.195312 4.5625 -17.195312 L 7.195312 -17.195312 C 8.492188 -17.195312 9.503906 -16.835938 10.226562 -16.125 C 10.953125 -15.410156 11.316406 -14.390625 11.316406 -13.074219 L 11.316406 -11.332031 C 11.316406 -11.003906 11.210938 -10.738281 11.007812 -10.53125 C 10.800781 -10.324219 10.53125 -10.222656 10.203125 -10.222656 L 7.996094 -10.222656 C 7.667969 -10.222656 7.398438 -10.324219 7.191406 -10.53125 C 6.988281 -10.738281 6.882812 -11.003906 6.882812 -11.332031 L 6.882812 -12.484375 C 6.882812 -12.5625 6.875 -12.621094 6.863281 -12.664062 C 6.859375 -12.671875 6.859375 -12.679688 6.855469 -12.679688 C 6.859375 -12.679688 6.859375 -12.675781 6.863281 -12.671875 C 6.867188 -12.667969 6.871094 -12.664062 6.871094 -12.664062 C 6.871094 -12.664062 6.863281 -12.667969 6.855469 -12.671875 C 6.816406 -12.683594 6.753906 -12.691406 6.679688 -12.691406 L 5.171875 -12.691406 C 5.09375 -12.691406 5.035156 -12.683594 4.992188 -12.671875 C 4.984375 -12.667969 4.980469 -12.664062 4.976562 -12.664062 C 4.980469 -12.664062 4.984375 -12.667969 4.988281 -12.671875 C 4.992188 -12.675781 4.992188 -12.679688 4.996094 -12.679688 C 4.992188 -12.679688 4.992188 -12.671875 4.988281 -12.664062 C 4.972656 -12.621094 4.96875 -12.5625 4.96875 -12.484375 L 4.96875 -3.972656 C 4.96875 -3.898438 4.972656 -3.835938 4.988281 -3.792969 C 4.992188 -3.785156 4.992188 -3.78125 4.996094 -3.777344 C 4.992188 -3.78125 4.992188 -3.785156 4.988281 -3.789062 C 4.984375 -3.792969 4.980469 -3.792969 4.976562 -3.796875 C 4.980469 -3.792969 4.984375 -3.792969 4.992188 -3.789062 C 5.035156 -3.773438 5.09375 -3.769531 5.171875 -3.769531 L 6.679688 -3.769531 C 6.753906 -3.769531 6.816406 -3.773438 6.855469 -3.789062 C 6.863281 -3.792969 6.871094 -3.792969 6.871094 -3.796875 C 6.871094 -3.792969 6.867188 -3.792969 6.863281 -3.789062 C 6.859375 -3.785156 6.859375 -3.78125 6.855469 -3.777344 C 6.859375 -3.78125 6.859375 -3.785156 6.863281 -3.792969 C 6.875 -3.835938 6.882812 -3.898438 6.882812 -3.972656 L 6.882812 -6.019531 L 7.617188 -6.019531 L 7.617188 -5.285156 L 6.394531 -5.285156 C 6.066406 -5.285156 5.800781 -5.386719 5.59375 -5.59375 C 5.386719 -5.800781 5.285156 -6.066406 5.285156 -6.394531 L 5.285156 -8.746094 C 5.285156 -9.074219 5.386719 -9.34375 5.59375 -9.546875 C 5.800781 -9.753906 6.066406 -9.859375 6.394531 -9.859375 L 10.203125 -9.859375 C 10.53125 -9.859375 10.800781 -9.753906 11.007812 -9.546875 C 11.210938 -9.34375 11.316406 -9.074219 11.316406 -8.746094 L 11.316406 -3.386719 C 11.316406 -2.085938 10.953125 -1.074219 10.230469 -0.351562 C 9.507812 0.375 8.496094 0.734375 7.195312 0.734375 L 4.5625 0.734375 C 3.261719 0.734375 2.25 0.375 1.527344 -0.351562 C 0.800781 -1.074219 0.441406 -2.085938 0.441406 -3.386719 Z M 1.910156 -3.386719 C 1.910156 -2.492188 2.128906 -1.824219 2.566406 -1.390625 C 3 -0.953125 3.667969 -0.734375 4.5625 -0.734375 L 7.195312 -0.734375 C 8.089844 -0.734375 8.753906 -0.953125 9.191406 -1.390625 C 9.628906 -1.824219 9.847656 -2.492188 9.847656 -3.386719 L 9.847656 -8.746094 C 9.847656 -8.730469 9.851562 -8.707031 9.859375 -8.679688 C 9.882812 -8.617188 9.917969 -8.558594 9.96875 -8.507812 C 10.019531 -8.460938 10.074219 -8.421875 10.136719 -8.402344 C 10.164062 -8.394531 10.1875 -8.386719 10.203125 -8.386719 L 6.394531 -8.386719 C 6.414062 -8.386719 6.433594 -8.394531 6.464844 -8.402344 C 6.527344 -8.421875 6.582031 -8.460938 6.632812 -8.507812 C 6.683594 -8.558594 6.71875 -8.617188 6.738281 -8.679688 C 6.75 -8.707031 6.753906 -8.730469 6.753906 -8.746094 L 6.753906 -6.394531 C 6.753906 -6.414062 6.75 -6.433594 6.738281 -6.464844 C 6.71875 -6.527344 6.683594 -6.582031 6.632812 -6.632812 C 6.582031 -6.683594 6.527344 -6.71875 6.464844 -6.738281 C 6.433594 -6.75 6.414062 -6.753906 6.394531 -6.753906 L 8.351562 -6.753906 L 8.351562 -3.972656 C 8.351562 -3.457031 8.203125 -3.050781 7.902344 -2.75 C 7.601562 -2.449219 7.195312 -2.296875 6.679688 -2.296875 L 5.171875 -2.296875 C 4.65625 -2.296875 4.25 -2.449219 3.949219 -2.75 C 3.648438 -3.050781 3.496094 -3.457031 3.496094 -3.972656 L 3.496094 -12.484375 C 3.496094 -13.003906 3.648438 -13.410156 3.949219 -13.710938 C 4.25 -14.011719 4.65625 -14.160156 5.171875 -14.160156 L 6.679688 -14.160156 C 7.195312 -14.160156 7.601562 -14.011719 7.902344 -13.710938 C 8.203125 -13.410156 8.351562 -13.003906 8.351562 -12.484375 L 8.351562 -11.332031 C 8.351562 -11.351562 8.347656 -11.371094 8.339844 -11.402344 C 8.316406 -11.464844 8.28125 -11.519531 8.230469 -11.570312 C 8.179688 -11.621094 8.125 -11.65625 8.0625 -11.679688 C 8.035156 -11.6875 8.011719 -11.691406 7.996094 -11.691406 L 10.203125 -11.691406 C 10.1875 -11.691406 10.164062 -11.6875 10.136719 -11.679688 C 10.074219 -11.65625 10.019531 -11.621094 9.96875 -11.570312 C 9.917969 -11.519531 9.882812 -11.464844 9.859375 -11.402344 C 9.851562 -11.371094 9.847656 -11.351562 9.847656 -11.332031 L 9.847656 -13.074219 C 9.847656 -13.980469 9.628906 -14.648438 9.195312 -15.078125 C 8.757812 -15.507812 8.089844 -15.722656 7.195312 -15.722656 L 4.5625 -15.722656 C 3.664062 -15.722656 3 -15.507812 2.5625 -15.078125 C 2.128906 -14.648438 1.910156 -13.980469 1.910156 -13.074219 Z M 1.910156 -3.386719 "/></g></g><g style="fill:#b21a22;fill-opacity:1;"><g transform="translate(32.57634, 40.847638)"><path style="stroke:none" d="M 11.292969 -16.082031 L 11.292969 -13.730469 C 11.292969 -13.40625 11.195312 -13.136719 11 -12.929688 C 10.789062 -12.707031 10.519531 -12.597656 10.179688 -12.597656 L 4.375 -12.597656 L 4.375 -13.332031 L 5.109375 -13.332031 L 5.109375 -9.710938 L 4.375 -9.710938 L 4.375 -10.445312 L 8.792969 -10.445312 C 9.132812 -10.445312 9.402344 -10.335938 9.609375 -10.113281 C 9.808594 -9.90625 9.90625 -9.640625 9.90625 -9.3125 L 9.90625 -6.984375 C 9.90625 -6.65625 9.808594 -6.386719 9.609375 -6.179688 C 9.402344 -5.960938 9.132812 -5.847656 8.792969 -5.847656 L 4.375 -5.847656 L 4.375 -6.582031 L 5.109375 -6.582031 L 5.109375 -3.105469 L 4.375 -3.105469 L 4.375 -3.839844 L 10.179688 -3.839844 C 10.507812 -3.839844 10.777344 -3.734375 10.984375 -3.53125 C 11.1875 -3.324219 11.292969 -3.054688 11.292969 -2.726562 L 11.292969 -0.375 C 11.292969 -0.046875 11.1875 0.21875 10.984375 0.425781 C 10.777344 0.632812 10.507812 0.734375 10.179688 0.734375 L 1.527344 0.734375 C 1.199219 0.734375 0.933594 0.625 0.726562 0.410156 C 0.535156 0.203125 0.441406 -0.0585938 0.441406 -0.375 L 0.441406 -16.082031 C 0.441406 -16.402344 0.535156 -16.664062 0.726562 -16.867188 C 0.933594 -17.085938 1.199219 -17.195312 1.527344 -17.195312 L 10.179688 -17.195312 C 10.507812 -17.195312 10.777344 -17.089844 10.984375 -16.886719 C 11.1875 -16.679688 11.292969 -16.410156 11.292969 -16.082031 Z M 9.824219 -16.082031 C 9.824219 -16.066406 9.828125 -16.042969 9.835938 -16.015625 C 9.859375 -15.953125 9.894531 -15.894531 9.945312 -15.847656 C 9.996094 -15.796875 10.050781 -15.757812 10.113281 -15.738281 C 10.140625 -15.730469 10.164062 -15.722656 10.179688 -15.722656 L 1.527344 -15.722656 C 1.621094 -15.722656 1.714844 -15.769531 1.800781 -15.863281 C 1.847656 -15.914062 1.878906 -15.96875 1.898438 -16.027344 C 1.90625 -16.054688 1.910156 -16.070312 1.910156 -16.082031 L 1.910156 -0.375 C 1.910156 -0.386719 1.90625 -0.40625 1.898438 -0.429688 C 1.878906 -0.492188 1.847656 -0.546875 1.800781 -0.597656 C 1.714844 -0.6875 1.621094 -0.734375 1.527344 -0.734375 L 10.179688 -0.734375 C 10.164062 -0.734375 10.140625 -0.730469 10.113281 -0.71875 C 10.050781 -0.699219 9.996094 -0.664062 9.945312 -0.613281 C 9.894531 -0.5625 9.859375 -0.507812 9.835938 -0.445312 C 9.828125 -0.414062 9.824219 -0.394531 9.824219 -0.375 L 9.824219 -2.726562 C 9.824219 -2.710938 9.828125 -2.6875 9.835938 -2.660156 C 9.859375 -2.597656 9.894531 -2.539062 9.945312 -2.488281 C 9.996094 -2.441406 10.050781 -2.402344 10.113281 -2.382812 C 10.140625 -2.375 10.164062 -2.367188 10.179688 -2.367188 L 3.636719 -2.367188 L 3.636719 -7.320312 L 8.792969 -7.320312 C 8.773438 -7.320312 8.746094 -7.3125 8.714844 -7.300781 C 8.648438 -7.277344 8.589844 -7.242188 8.542969 -7.1875 C 8.496094 -7.140625 8.464844 -7.085938 8.445312 -7.027344 C 8.4375 -7.007812 8.433594 -6.992188 8.433594 -6.984375 L 8.433594 -9.3125 C 8.433594 -9.304688 8.4375 -9.289062 8.445312 -9.265625 C 8.464844 -9.207031 8.496094 -9.15625 8.542969 -9.109375 C 8.589844 -9.054688 8.648438 -9.015625 8.714844 -8.992188 C 8.746094 -8.980469 8.773438 -8.976562 8.792969 -8.976562 L 3.636719 -8.976562 L 3.636719 -14.066406 L 10.179688 -14.066406 C 10.160156 -14.066406 10.132812 -14.0625 10.101562 -14.050781 C 10.035156 -14.027344 9.976562 -13.988281 9.929688 -13.9375 C 9.882812 -13.886719 9.851562 -13.835938 9.832031 -13.777344 C 9.824219 -13.753906 9.824219 -13.742188 9.824219 -13.730469 Z M 9.824219 -16.082031 "/></g></g><g style="fill:#b21a22;fill-opacity:1;"><g transform="translate(44.30581, 40.847638)"><path style="stroke:none" d="M 11.003906 -17.195312 L 14.109375 -17.195312 C 14.46875 -17.195312 14.757812 -17.082031 14.980469 -16.863281 C 15.203125 -16.640625 15.3125 -16.347656 15.3125 -15.988281 L 15.3125 -0.46875 C 15.3125 -0.109375 15.203125 0.179688 14.980469 0.402344 C 14.757812 0.625 14.46875 0.734375 14.109375 0.734375 L 11.921875 0.734375 C 11.5625 0.734375 11.269531 0.625 11.050781 0.402344 C 10.828125 0.179688 10.714844 -0.109375 10.714844 -0.46875 L 10.714844 -9.710938 L 11.449219 -9.710938 L 11.449219 -8.976562 L 11.285156 -8.976562 L 11.285156 -9.710938 L 12 -9.542969 L 9.785156 -0.210938 L 9.78125 -0.191406 C 9.695312 0.09375 9.550781 0.316406 9.335938 0.480469 C 9.117188 0.652344 8.859375 0.734375 8.558594 0.734375 L 7.171875 0.734375 C 6.871094 0.734375 6.613281 0.652344 6.394531 0.480469 C 6.179688 0.316406 6.035156 0.09375 5.949219 -0.191406 L 5.945312 -0.210938 L 3.730469 -9.542969 L 4.445312 -9.710938 L 4.445312 -8.976562 L 4.28125 -8.976562 L 4.28125 -9.710938 L 5.015625 -9.710938 L 5.015625 -0.46875 C 5.015625 -0.109375 4.902344 0.179688 4.679688 0.402344 C 4.460938 0.625 4.167969 0.734375 3.808594 0.734375 L 1.644531 0.734375 C 1.285156 0.734375 0.996094 0.625 0.773438 0.402344 C 0.550781 0.179688 0.441406 -0.109375 0.441406 -0.46875 L 0.441406 -15.988281 C 0.441406 -16.347656 0.550781 -16.640625 0.773438 -16.863281 C 0.996094 -17.082031 1.285156 -17.195312 1.644531 -17.195312 L 4.75 -17.195312 C 5.050781 -17.195312 5.308594 -17.109375 5.527344 -16.941406 C 5.738281 -16.777344 5.886719 -16.550781 5.972656 -16.265625 L 5.976562 -16.253906 L 8.589844 -5.75 L 7.878906 -5.574219 L 7.164062 -5.75 L 9.777344 -16.253906 L 9.78125 -16.265625 C 9.867188 -16.550781 10.015625 -16.777344 10.226562 -16.941406 C 10.445312 -17.109375 10.703125 -17.195312 11.003906 -17.195312 Z M 11.003906 -15.722656 C 11.039062 -15.722656 11.078125 -15.742188 11.125 -15.777344 C 11.148438 -15.796875 11.171875 -15.820312 11.1875 -15.84375 C 11.191406 -15.851562 11.191406 -15.855469 11.195312 -15.859375 C 11.195312 -15.859375 11.191406 -15.855469 11.191406 -15.851562 L 10.488281 -16.058594 L 11.199219 -15.882812 L 8.589844 -5.394531 L 7.164062 -5.394531 L 4.554688 -15.882812 L 5.265625 -16.058594 L 4.5625 -15.851562 C 4.5625 -15.855469 4.558594 -15.859375 4.558594 -15.859375 C 4.5625 -15.855469 4.5625 -15.851562 4.566406 -15.84375 C 4.582031 -15.820312 4.605469 -15.796875 4.628906 -15.777344 C 4.675781 -15.742188 4.714844 -15.722656 4.75 -15.722656 L 1.644531 -15.722656 C 1.644531 -15.722656 1.640625 -15.722656 1.636719 -15.722656 C 1.636719 -15.722656 1.636719 -15.722656 1.640625 -15.722656 C 1.648438 -15.726562 1.660156 -15.730469 1.671875 -15.734375 C 1.722656 -15.75 1.769531 -15.78125 1.8125 -15.820312 C 1.855469 -15.863281 1.886719 -15.910156 1.902344 -15.960938 C 1.90625 -15.976562 1.910156 -15.984375 1.910156 -15.996094 C 1.910156 -15.996094 1.910156 -15.992188 1.910156 -15.988281 L 1.910156 -0.46875 C 1.910156 -0.46875 1.910156 -0.464844 1.910156 -0.460938 C 1.910156 -0.460938 1.910156 -0.460938 1.910156 -0.464844 C 1.910156 -0.472656 1.90625 -0.484375 1.902344 -0.496094 C 1.886719 -0.546875 1.855469 -0.59375 1.8125 -0.636719 C 1.769531 -0.679688 1.722656 -0.710938 1.671875 -0.726562 C 1.660156 -0.730469 1.648438 -0.734375 1.640625 -0.734375 C 1.636719 -0.734375 1.636719 -0.734375 1.636719 -0.734375 C 1.640625 -0.734375 1.644531 -0.734375 1.644531 -0.734375 L 3.808594 -0.734375 C 3.8125 -0.734375 3.816406 -0.734375 3.816406 -0.734375 C 3.804688 -0.734375 3.796875 -0.730469 3.78125 -0.726562 C 3.730469 -0.710938 3.683594 -0.679688 3.640625 -0.636719 C 3.601562 -0.59375 3.570312 -0.546875 3.554688 -0.496094 C 3.546875 -0.484375 3.546875 -0.472656 3.542969 -0.464844 C 3.542969 -0.460938 3.542969 -0.460938 3.542969 -0.460938 C 3.542969 -0.464844 3.542969 -0.46875 3.542969 -0.46875 L 3.542969 -10.445312 L 5.023438 -10.445312 L 7.371094 -0.570312 L 6.652344 -0.398438 L 7.359375 -0.605469 C 7.359375 -0.601562 7.359375 -0.601562 7.363281 -0.601562 C 7.359375 -0.605469 7.355469 -0.609375 7.351562 -0.617188 C 7.339844 -0.640625 7.316406 -0.660156 7.292969 -0.679688 C 7.246094 -0.71875 7.207031 -0.734375 7.171875 -0.734375 L 8.558594 -0.734375 C 8.523438 -0.734375 8.484375 -0.71875 8.4375 -0.679688 C 8.414062 -0.660156 8.390625 -0.640625 8.378906 -0.617188 C 8.375 -0.609375 8.371094 -0.605469 8.367188 -0.601562 C 8.371094 -0.601562 8.371094 -0.601562 8.371094 -0.605469 L 9.074219 -0.398438 L 8.359375 -0.570312 L 10.707031 -10.445312 L 12.1875 -10.445312 L 12.1875 -0.46875 C 12.1875 -0.46875 12.1875 -0.464844 12.1875 -0.460938 C 12.1875 -0.460938 12.1875 -0.460938 12.1875 -0.464844 C 12.183594 -0.472656 12.183594 -0.484375 12.175781 -0.496094 C 12.160156 -0.546875 12.128906 -0.59375 12.089844 -0.636719 C 12.046875 -0.679688 12 -0.710938 11.949219 -0.726562 C 11.933594 -0.730469 11.925781 -0.734375 11.914062 -0.734375 C 11.914062 -0.734375 11.917969 -0.734375 11.921875 -0.734375 L 14.109375 -0.734375 C 14.109375 -0.734375 14.113281 -0.734375 14.117188 -0.734375 C 14.117188 -0.734375 14.117188 -0.734375 14.113281 -0.734375 C 14.105469 -0.734375 14.09375 -0.730469 14.082031 -0.726562 C 14.03125 -0.710938 13.984375 -0.679688 13.941406 -0.636719 C 13.898438 -0.59375 13.867188 -0.546875 13.851562 -0.496094 C 13.847656 -0.484375 13.84375 -0.472656 13.84375 -0.464844 C 13.84375 -0.460938 13.84375 -0.460938 13.84375 -0.460938 C 13.84375 -0.464844 13.84375 -0.46875 13.84375 -0.46875 L 13.84375 -15.988281 C 13.84375 -15.992188 13.84375 -15.996094 13.84375 -15.996094 C 13.84375 -15.984375 13.847656 -15.976562 13.851562 -15.960938 C 13.867188 -15.910156 13.898438 -15.863281 13.941406 -15.820312 C 13.984375 -15.78125 14.03125 -15.75 14.082031 -15.734375 C 14.09375 -15.730469 14.105469 -15.726562 14.113281 -15.722656 C 14.117188 -15.722656 14.117188 -15.722656 14.117188 -15.722656 C 14.113281 -15.722656 14.109375 -15.722656 14.109375 -15.722656 Z M 11.003906 -15.722656 "/></g></g><g style="fill:#b21a22;fill-opacity:1;"><g transform="translate(60.054802, 40.847638)"><path style="stroke:none" d="M -0.734375 3.152344 L -0.734375 0.988281 C -0.734375 0.628906 -0.625 0.335938 -0.402344 0.117188 C -0.179688 -0.105469 0.109375 -0.21875 0.46875 -0.21875 L 14.648438 -0.21875 C 15.007812 -0.21875 15.300781 -0.105469 15.519531 0.117188 C 15.742188 0.335938 15.855469 0.628906 15.855469 0.988281 L 15.855469 3.152344 C 15.855469 3.511719 15.742188 3.800781 15.519531 4.023438 C 15.300781 4.246094 15.007812 4.355469 14.648438 4.355469 L 0.46875 4.355469 C 0.109375 4.355469 -0.179688 4.246094 -0.402344 4.023438 C -0.625 3.800781 -0.734375 3.511719 -0.734375 3.152344 Z M 0.734375 3.152344 C 0.734375 3.152344 0.734375 3.15625 0.734375 3.160156 C 0.734375 3.160156 0.734375 3.160156 0.734375 3.15625 C 0.734375 3.148438 0.730469 3.136719 0.726562 3.125 C 0.710938 3.074219 0.679688 3.027344 0.636719 2.984375 C 0.59375 2.941406 0.546875 2.910156 0.496094 2.894531 C 0.484375 2.890625 0.472656 2.886719 0.464844 2.886719 C 0.460938 2.886719 0.460938 2.886719 0.460938 2.886719 C 0.464844 2.886719 0.46875 2.886719 0.46875 2.886719 L 14.648438 2.886719 C 14.652344 2.886719 14.65625 2.886719 14.65625 2.886719 C 14.644531 2.886719 14.632812 2.890625 14.621094 2.894531 C 14.570312 2.910156 14.523438 2.941406 14.480469 2.984375 C 14.4375 3.027344 14.410156 3.074219 14.394531 3.125 C 14.386719 3.136719 14.386719 3.148438 14.382812 3.15625 C 14.382812 3.160156 14.382812 3.160156 14.382812 3.160156 C 14.382812 3.15625 14.382812 3.152344 14.382812 3.152344 L 14.382812 0.988281 C 14.382812 0.984375 14.382812 0.980469 14.382812 0.980469 C 14.386719 0.992188 14.386719 1 14.394531 1.015625 C 14.410156 1.066406 14.4375 1.113281 14.480469 1.15625 C 14.523438 1.195312 14.570312 1.226562 14.621094 1.242188 C 14.632812 1.246094 14.644531 1.25 14.65625 1.253906 C 14.65625 1.253906 14.652344 1.253906 14.648438 1.253906 L 0.46875 1.253906 C 0.46875 1.253906 0.464844 1.253906 0.460938 1.253906 C 0.460938 1.253906 0.460938 1.253906 0.464844 1.253906 C 0.472656 1.25 0.484375 1.246094 0.496094 1.242188 C 0.546875 1.226562 0.59375 1.195312 0.636719 1.15625 C 0.679688 1.113281 0.710938 1.066406 0.726562 1.015625 C 0.730469 1 0.734375 0.992188 0.734375 0.980469 C 0.734375 0.980469 0.734375 0.984375 0.734375 0.988281 Z M 0.734375 3.152344 "/></g></g><g style="fill:#b21a22;fill-opacity:1;"><g transform="translate(18.280918, 73.629302)"><path style="stroke:none" d="M 11.339844 -13.074219 L 11.339844 -9.898438 C 11.339844 -9.265625 11.132812 -8.726562 10.714844 -8.289062 C 10.324219 -7.875 9.835938 -7.613281 9.257812 -7.507812 L 9.125 -8.230469 L 9.859375 -8.230469 L 9.859375 -8.183594 L 9.125 -8.183594 L 9.230469 -8.910156 C 9.824219 -8.820312 10.320312 -8.5625 10.722656 -8.128906 C 11.132812 -7.683594 11.339844 -7.144531 11.339844 -6.511719 L 11.339844 -3.386719 C 11.339844 -2.085938 10.976562 -1.074219 10.253906 -0.351562 C 9.53125 0.375 8.511719 0.734375 7.195312 0.734375 L 1.550781 0.734375 C 1.222656 0.734375 0.957031 0.632812 0.75 0.425781 C 0.542969 0.21875 0.441406 -0.046875 0.441406 -0.375 L 0.441406 -16.082031 C 0.441406 -16.410156 0.542969 -16.679688 0.75 -16.886719 C 0.957031 -17.089844 1.222656 -17.195312 1.550781 -17.195312 L 7.195312 -17.195312 C 8.507812 -17.195312 9.527344 -16.835938 10.25 -16.125 C 10.976562 -15.410156 11.339844 -14.390625 11.339844 -13.074219 Z M 9.871094 -13.074219 C 9.871094 -13.980469 9.652344 -14.648438 9.21875 -15.078125 C 8.78125 -15.507812 8.105469 -15.722656 7.195312 -15.722656 L 1.550781 -15.722656 C 1.570312 -15.722656 1.589844 -15.730469 1.621094 -15.738281 C 1.683594 -15.757812 1.738281 -15.796875 1.789062 -15.847656 C 1.839844 -15.894531 1.875 -15.953125 1.894531 -16.015625 C 1.90625 -16.042969 1.910156 -16.066406 1.910156 -16.082031 L 1.910156 -0.375 C 1.910156 -0.394531 1.90625 -0.414062 1.894531 -0.445312 C 1.875 -0.507812 1.839844 -0.5625 1.789062 -0.613281 C 1.738281 -0.664062 1.683594 -0.699219 1.621094 -0.71875 C 1.589844 -0.730469 1.570312 -0.734375 1.550781 -0.734375 L 7.195312 -0.734375 C 8.105469 -0.734375 8.777344 -0.953125 9.214844 -1.390625 C 9.652344 -1.824219 9.871094 -2.492188 9.871094 -3.386719 L 9.871094 -6.511719 C 9.871094 -6.761719 9.792969 -6.964844 9.640625 -7.132812 C 9.476562 -7.308594 9.269531 -7.417969 9.015625 -7.457031 L 8.386719 -7.546875 L 8.386719 -8.839844 L 8.988281 -8.953125 C 9.253906 -9 9.476562 -9.117188 9.648438 -9.300781 C 9.796875 -9.457031 9.871094 -9.65625 9.871094 -9.898438 Z M 6.882812 -10.675781 L 6.882812 -12.554688 C 6.882812 -12.632812 6.875 -12.691406 6.863281 -12.734375 C 6.859375 -12.742188 6.859375 -12.75 6.855469 -12.75 C 6.859375 -12.75 6.859375 -12.746094 6.863281 -12.742188 C 6.867188 -12.738281 6.871094 -12.734375 6.871094 -12.734375 C 6.871094 -12.734375 6.863281 -12.738281 6.855469 -12.742188 C 6.816406 -12.753906 6.753906 -12.761719 6.679688 -12.761719 L 4.089844 -12.761719 L 4.089844 -13.496094 L 4.828125 -13.496094 L 4.828125 -9.757812 L 4.089844 -9.757812 L 4.089844 -10.492188 L 6.679688 -10.492188 C 6.757812 -10.492188 6.820312 -10.5 6.863281 -10.515625 C 6.871094 -10.515625 6.875 -10.519531 6.878906 -10.519531 C 6.878906 -10.519531 6.875 -10.515625 6.871094 -10.511719 C 6.867188 -10.507812 6.863281 -10.503906 6.859375 -10.5 C 6.859375 -10.503906 6.863281 -10.507812 6.863281 -10.511719 C 6.878906 -10.550781 6.882812 -10.605469 6.882812 -10.675781 Z M 8.351562 -10.675781 C 8.351562 -10.164062 8.199219 -9.757812 7.894531 -9.460938 C 7.597656 -9.167969 7.191406 -9.023438 6.679688 -9.023438 L 3.355469 -9.023438 L 3.355469 -14.230469 L 6.679688 -14.230469 C 7.195312 -14.230469 7.601562 -14.082031 7.902344 -13.78125 C 8.203125 -13.480469 8.351562 -13.074219 8.351562 -12.554688 Z M 6.882812 -3.902344 L 6.882812 -5.714844 C 6.882812 -5.789062 6.875 -5.851562 6.863281 -5.894531 C 6.859375 -5.902344 6.859375 -5.90625 6.855469 -5.910156 C 6.859375 -5.90625 6.859375 -5.902344 6.863281 -5.898438 C 6.867188 -5.894531 6.871094 -5.894531 6.871094 -5.890625 C 6.871094 -5.894531 6.863281 -5.894531 6.855469 -5.898438 C 6.816406 -5.914062 6.753906 -5.917969 6.679688 -5.917969 L 4.089844 -5.917969 L 4.089844 -6.652344 L 4.828125 -6.652344 L 4.828125 -2.960938 L 4.089844 -2.960938 L 4.089844 -3.699219 L 6.679688 -3.699219 C 6.753906 -3.699219 6.816406 -3.703125 6.855469 -3.71875 C 6.863281 -3.722656 6.871094 -3.722656 6.871094 -3.726562 C 6.871094 -3.722656 6.867188 -3.722656 6.863281 -3.71875 C 6.859375 -3.714844 6.859375 -3.710938 6.855469 -3.707031 C 6.859375 -3.710938 6.859375 -3.714844 6.863281 -3.722656 C 6.875 -3.765625 6.882812 -3.824219 6.882812 -3.902344 Z M 8.351562 -3.902344 C 8.351562 -3.386719 8.203125 -2.976562 7.902344 -2.679688 C 7.601562 -2.378906 7.195312 -2.226562 6.679688 -2.226562 L 3.355469 -2.226562 L 3.355469 -7.390625 L 6.679688 -7.390625 C 7.195312 -7.390625 7.601562 -7.238281 7.902344 -6.9375 C 8.203125 -6.636719 8.351562 -6.230469 8.351562 -5.714844 Z M 8.351562 -3.902344 "/></g></g><g style="fill:#b21a22;fill-opacity:1;"><g transform="translate(30.057408, 73.629302)"><path style="stroke:none" d="M 11.292969 -16.082031 L 11.292969 -13.730469 C 11.292969 -13.40625 11.195312 -13.136719 11 -12.929688 C 10.789062 -12.707031 10.519531 -12.597656 10.179688 -12.597656 L 4.375 -12.597656 L 4.375 -13.332031 L 5.109375 -13.332031 L 5.109375 -9.710938 L 4.375 -9.710938 L 4.375 -10.445312 L 8.792969 -10.445312 C 9.132812 -10.445312 9.402344 -10.335938 9.609375 -10.113281 C 9.808594 -9.90625 9.90625 -9.640625 9.90625 -9.3125 L 9.90625 -6.984375 C 9.90625 -6.65625 9.808594 -6.386719 9.609375 -6.179688 C 9.402344 -5.960938 9.132812 -5.847656 8.792969 -5.847656 L 4.375 -5.847656 L 4.375 -6.582031 L 5.109375 -6.582031 L 5.109375 -3.105469 L 4.375 -3.105469 L 4.375 -3.839844 L 10.179688 -3.839844 C 10.507812 -3.839844 10.777344 -3.734375 10.984375 -3.53125 C 11.1875 -3.324219 11.292969 -3.054688 11.292969 -2.726562 L 11.292969 -0.375 C 11.292969 -0.046875 11.1875 0.21875 10.984375 0.425781 C 10.777344 0.632812 10.507812 0.734375 10.179688 0.734375 L 1.527344 0.734375 C 1.199219 0.734375 0.933594 0.625 0.726562 0.410156 C 0.535156 0.203125 0.441406 -0.0585938 0.441406 -0.375 L 0.441406 -16.082031 C 0.441406 -16.402344 0.535156 -16.664062 0.726562 -16.867188 C 0.933594 -17.085938 1.199219 -17.195312 1.527344 -17.195312 L 10.179688 -17.195312 C 10.507812 -17.195312 10.777344 -17.089844 10.984375 -16.886719 C 11.1875 -16.679688 11.292969 -16.410156 11.292969 -16.082031 Z M 9.824219 -16.082031 C 9.824219 -16.066406 9.828125 -16.042969 9.835938 -16.015625 C 9.859375 -15.953125 9.894531 -15.894531 9.945312 -15.847656 C 9.996094 -15.796875 10.050781 -15.757812 10.113281 -15.738281 C 10.140625 -15.730469 10.164062 -15.722656 10.179688 -15.722656 L 1.527344 -15.722656 C 1.621094 -15.722656 1.714844 -15.769531 1.800781 -15.863281 C 1.847656 -15.914062 1.878906 -15.96875 1.898438 -16.027344 C 1.90625 -16.054688 1.910156 -16.070312 1.910156 -16.082031 L 1.910156 -0.375 C 1.910156 -0.386719 1.90625 -0.40625 1.898438 -0.429688 C 1.878906 -0.492188 1.847656 -0.546875 1.800781 -0.597656 C 1.714844 -0.6875 1.621094 -0.734375 1.527344 -0.734375 L 10.179688 -0.734375 C 10.164062 -0.734375 10.140625 -0.730469 10.113281 -0.71875 C 10.050781 -0.699219 9.996094 -0.664062 9.945312 -0.613281 C 9.894531 -0.5625 9.859375 -0.507812 9.835938 -0.445312 C 9.828125 -0.414062 9.824219 -0.394531 9.824219 -0.375 L 9.824219 -2.726562 C 9.824219 -2.710938 9.828125 -2.6875 9.835938 -2.660156 C 9.859375 -2.597656 9.894531 -2.539062 9.945312 -2.488281 C 9.996094 -2.441406 10.050781 -2.402344 10.113281 -2.382812 C 10.140625 -2.375 10.164062 -2.367188 10.179688 -2.367188 L 3.636719 -2.367188 L 3.636719 -7.320312 L 8.792969 -7.320312 C 8.773438 -7.320312 8.746094 -7.3125 8.714844 -7.300781 C 8.648438 -7.277344 8.589844 -7.242188 8.542969 -7.1875 C 8.496094 -7.140625 8.464844 -7.085938 8.445312 -7.027344 C 8.4375 -7.007812 8.433594 -6.992188 8.433594 -6.984375 L 8.433594 -9.3125 C 8.433594 -9.304688 8.4375 -9.289062 8.445312 -9.265625 C 8.464844 -9.207031 8.496094 -9.15625 8.542969 -9.109375 C 8.589844 -9.054688 8.648438 -9.015625 8.714844 -8.992188 C 8.746094 -8.980469 8.773438 -8.976562 8.792969 -8.976562 L 3.636719 -8.976562 L 3.636719 -14.066406 L 10.179688 -14.066406 C 10.160156 -14.066406 10.132812 -14.0625 10.101562 -14.050781 C 10.035156 -14.027344 9.976562 -13.988281 9.929688 -13.9375 C 9.882812 -13.886719 9.851562 -13.835938 9.832031 -13.777344 C 9.824219 -13.753906 9.824219 -13.742188 9.824219 -13.730469 Z M 9.824219 -16.082031 "/></g></g><g style="fill:#b21a22;fill-opacity:1;"><g transform="translate(41.786879, 73.629302)"><path style="stroke:none" d="M 8.628906 -17.195312 L 10.839844 -17.195312 C 11.167969 -17.195312 11.433594 -17.089844 11.640625 -16.886719 C 11.847656 -16.679688 11.949219 -16.410156 11.949219 -16.082031 L 11.949219 -0.375 C 11.949219 -0.046875 11.847656 0.21875 11.640625 0.425781 C 11.433594 0.632812 11.167969 0.734375 10.839844 0.734375 L 8.980469 0.734375 C 8.730469 0.734375 8.503906 0.664062 8.304688 0.519531 C 8.128906 0.394531 7.992188 0.222656 7.890625 0.00390625 L 8.558594 -0.304688 L 7.898438 0.0195312 L 3.480469 -8.964844 L 4.136719 -9.289062 L 4.875 -9.289062 L 4.875 -0.375 C 4.875 -0.046875 4.769531 0.21875 4.5625 0.425781 C 4.359375 0.632812 4.089844 0.734375 3.761719 0.734375 L 1.550781 0.734375 C 1.222656 0.734375 0.957031 0.632812 0.75 0.425781 C 0.542969 0.21875 0.441406 -0.046875 0.441406 -0.375 L 0.441406 -16.082031 C 0.441406 -16.410156 0.542969 -16.679688 0.75 -16.886719 C 0.957031 -17.089844 1.222656 -17.195312 1.550781 -17.195312 L 3.410156 -17.195312 C 3.660156 -17.195312 3.886719 -17.121094 4.085938 -16.980469 C 4.261719 -16.851562 4.398438 -16.679688 4.5 -16.460938 L 3.832031 -16.152344 L 4.492188 -16.476562 L 8.914062 -7.496094 L 8.253906 -7.171875 L 7.519531 -7.171875 L 7.519531 -16.082031 C 7.519531 -16.410156 7.621094 -16.679688 7.828125 -16.886719 C 8.035156 -17.089844 8.300781 -17.195312 8.628906 -17.195312 Z M 8.628906 -15.722656 C 8.644531 -15.722656 8.667969 -15.730469 8.695312 -15.738281 C 8.761719 -15.757812 8.816406 -15.796875 8.867188 -15.847656 C 8.917969 -15.894531 8.953125 -15.953125 8.972656 -16.015625 C 8.984375 -16.042969 8.988281 -16.066406 8.988281 -16.082031 L 8.988281 -7.171875 L 7.59375 -6.847656 L 3.167969 -15.835938 L 3.164062 -15.847656 C 3.171875 -15.832031 3.191406 -15.8125 3.226562 -15.789062 C 3.285156 -15.746094 3.34375 -15.722656 3.410156 -15.722656 L 1.550781 -15.722656 C 1.570312 -15.722656 1.589844 -15.730469 1.621094 -15.738281 C 1.683594 -15.757812 1.738281 -15.796875 1.789062 -15.847656 C 1.839844 -15.894531 1.875 -15.953125 1.894531 -16.015625 C 1.90625 -16.042969 1.910156 -16.066406 1.910156 -16.082031 L 1.910156 -0.375 C 1.910156 -0.394531 1.90625 -0.414062 1.894531 -0.445312 C 1.875 -0.507812 1.839844 -0.5625 1.789062 -0.613281 C 1.738281 -0.664062 1.683594 -0.699219 1.621094 -0.71875 C 1.589844 -0.730469 1.570312 -0.734375 1.550781 -0.734375 L 3.761719 -0.734375 C 3.746094 -0.734375 3.722656 -0.730469 3.695312 -0.71875 C 3.632812 -0.699219 3.574219 -0.664062 3.523438 -0.613281 C 3.472656 -0.5625 3.4375 -0.507812 3.417969 -0.445312 C 3.410156 -0.414062 3.402344 -0.394531 3.402344 -0.375 L 3.402344 -9.289062 L 4.796875 -9.613281 L 9.222656 -0.621094 L 9.226562 -0.613281 C 9.21875 -0.628906 9.199219 -0.648438 9.164062 -0.671875 C 9.109375 -0.714844 9.046875 -0.734375 8.980469 -0.734375 L 10.839844 -0.734375 C 10.824219 -0.734375 10.800781 -0.730469 10.773438 -0.71875 C 10.710938 -0.699219 10.652344 -0.664062 10.601562 -0.613281 C 10.550781 -0.5625 10.515625 -0.507812 10.496094 -0.445312 C 10.484375 -0.414062 10.480469 -0.394531 10.480469 -0.375 L 10.480469 -16.082031 C 10.480469 -16.066406 10.484375 -16.042969 10.496094 -16.015625 C 10.515625 -15.953125 10.550781 -15.894531 10.601562 -15.847656 C 10.652344 -15.796875 10.710938 -15.757812 10.773438 -15.738281 C 10.800781 -15.730469 10.824219 -15.722656 10.839844 -15.722656 Z M 8.628906 -15.722656 "/></g></g><g style="fill:#b21a22;fill-opacity:1;"><g transform="translate(54.174524, 73.629302)"><path style="stroke:none" d="M 11.339844 -13.074219 L 11.339844 -10.535156 C 11.339844 -10.207031 11.234375 -9.9375 11.03125 -9.730469 C 10.824219 -9.527344 10.558594 -9.421875 10.226562 -9.421875 L 8.019531 -9.421875 C 7.691406 -9.421875 7.421875 -9.527344 7.214844 -9.730469 C 7.011719 -9.9375 6.90625 -10.207031 6.90625 -10.535156 L 6.90625 -12.460938 C 6.90625 -12.539062 6.898438 -12.597656 6.886719 -12.640625 C 6.882812 -12.648438 6.882812 -12.652344 6.878906 -12.65625 C 6.882812 -12.65625 6.882812 -12.652344 6.886719 -12.648438 C 6.890625 -12.644531 6.894531 -12.640625 6.894531 -12.640625 C 6.894531 -12.640625 6.886719 -12.644531 6.878906 -12.648438 C 6.839844 -12.660156 6.777344 -12.667969 6.703125 -12.667969 L 5.195312 -12.667969 C 5.121094 -12.667969 5.058594 -12.660156 5.015625 -12.648438 C 5.007812 -12.644531 5.003906 -12.640625 5 -12.640625 C 5.003906 -12.640625 5.007812 -12.644531 5.011719 -12.648438 C 5.015625 -12.652344 5.015625 -12.65625 5.019531 -12.65625 C 5.015625 -12.652344 5.015625 -12.648438 5.011719 -12.640625 C 4.996094 -12.597656 4.992188 -12.539062 4.992188 -12.460938 L 4.992188 -3.925781 C 4.992188 -3.847656 4.996094 -3.789062 5.011719 -3.746094 C 5.015625 -3.738281 5.015625 -3.734375 5.019531 -3.730469 C 5.015625 -3.734375 5.015625 -3.738281 5.011719 -3.742188 C 5.007812 -3.746094 5.003906 -3.746094 5 -3.75 C 5.003906 -3.746094 5.007812 -3.746094 5.015625 -3.742188 C 5.058594 -3.726562 5.121094 -3.722656 5.195312 -3.722656 L 6.703125 -3.722656 C 6.777344 -3.722656 6.839844 -3.726562 6.878906 -3.742188 C 6.886719 -3.746094 6.894531 -3.746094 6.894531 -3.75 C 6.894531 -3.746094 6.890625 -3.746094 6.886719 -3.742188 C 6.882812 -3.738281 6.882812 -3.734375 6.878906 -3.730469 C 6.882812 -3.734375 6.882812 -3.738281 6.886719 -3.746094 C 6.898438 -3.789062 6.90625 -3.847656 6.90625 -3.925781 L 6.90625 -5.925781 C 6.90625 -6.253906 7.011719 -6.519531 7.214844 -6.726562 C 7.421875 -6.933594 7.691406 -7.035156 8.019531 -7.035156 L 10.226562 -7.035156 C 10.558594 -7.035156 10.824219 -6.933594 11.03125 -6.726562 C 11.234375 -6.519531 11.339844 -6.253906 11.339844 -5.925781 L 11.339844 -3.386719 C 11.339844 -2.085938 10.976562 -1.074219 10.253906 -0.351562 C 9.53125 0.375 8.519531 0.734375 7.21875 0.734375 L 4.585938 0.734375 C 3.285156 0.734375 2.273438 0.375 1.542969 -0.347656 C 0.808594 -1.070312 0.441406 -2.082031 0.441406 -3.386719 L 0.441406 -13.074219 C 0.441406 -14.394531 0.808594 -15.410156 1.542969 -16.128906 C 2.273438 -16.839844 3.289062 -17.195312 4.585938 -17.195312 L 7.21875 -17.195312 C 8.515625 -17.195312 9.527344 -16.835938 10.25 -16.125 C 10.976562 -15.410156 11.339844 -14.390625 11.339844 -13.074219 Z M 9.871094 -13.074219 C 9.871094 -13.980469 9.652344 -14.648438 9.21875 -15.078125 C 8.78125 -15.507812 8.113281 -15.722656 7.21875 -15.722656 L 4.585938 -15.722656 C 3.6875 -15.722656 3.015625 -15.507812 2.570312 -15.074219 C 2.128906 -14.648438 1.910156 -13.980469 1.910156 -13.074219 L 1.910156 -3.386719 C 1.910156 -2.492188 2.132812 -1.828125 2.574219 -1.394531 C 3.019531 -0.953125 3.6875 -0.734375 4.585938 -0.734375 L 7.21875 -0.734375 C 8.113281 -0.734375 8.777344 -0.953125 9.214844 -1.390625 C 9.652344 -1.824219 9.871094 -2.492188 9.871094 -3.386719 L 9.871094 -5.925781 C 9.871094 -5.910156 9.875 -5.886719 9.882812 -5.859375 C 9.90625 -5.792969 9.941406 -5.738281 9.992188 -5.6875 C 10.042969 -5.636719 10.097656 -5.601562 10.160156 -5.582031 C 10.1875 -5.570312 10.210938 -5.566406 10.226562 -5.566406 L 8.019531 -5.566406 C 8.035156 -5.566406 8.058594 -5.570312 8.085938 -5.582031 C 8.148438 -5.601562 8.207031 -5.636719 8.253906 -5.6875 C 8.304688 -5.738281 8.339844 -5.792969 8.363281 -5.859375 C 8.371094 -5.886719 8.375 -5.910156 8.375 -5.925781 L 8.375 -3.925781 C 8.375 -3.410156 8.226562 -3.003906 7.925781 -2.703125 C 7.625 -2.402344 7.21875 -2.25 6.703125 -2.25 L 5.195312 -2.25 C 4.679688 -2.25 4.273438 -2.402344 3.972656 -2.703125 C 3.671875 -3.003906 3.519531 -3.410156 3.519531 -3.925781 L 3.519531 -12.460938 C 3.519531 -12.980469 3.671875 -13.386719 3.972656 -13.6875 C 4.273438 -13.988281 4.679688 -14.136719 5.195312 -14.136719 L 6.703125 -14.136719 C 7.21875 -14.136719 7.625 -13.988281 7.925781 -13.6875 C 8.226562 -13.386719 8.375 -12.980469 8.375 -12.460938 L 8.375 -10.535156 C 8.375 -10.550781 8.371094 -10.574219 8.363281 -10.601562 C 8.339844 -10.664062 8.304688 -10.722656 8.253906 -10.769531 C 8.207031 -10.820312 8.148438 -10.859375 8.085938 -10.878906 C 8.058594 -10.886719 8.035156 -10.894531 8.019531 -10.894531 L 10.226562 -10.894531 C 10.210938 -10.894531 10.1875 -10.886719 10.160156 -10.878906 C 10.097656 -10.859375 10.042969 -10.820312 9.992188 -10.769531 C 9.941406 -10.722656 9.90625 -10.664062 9.882812 -10.601562 C 9.875 -10.574219 9.871094 -10.550781 9.871094 -10.535156 Z M 9.871094 -13.074219 "/></g></g><g style="fill:#b21a22;fill-opacity:1;"><g transform="translate(65.951014, 73.629302)"><path style="stroke:none" d="M 6.648438 -9.734375 L 6.648438 -16.082031 C 6.648438 -16.410156 6.75 -16.679688 6.957031 -16.886719 C 7.164062 -17.089844 7.429688 -17.195312 7.757812 -17.195312 L 10.179688 -17.195312 C 10.507812 -17.195312 10.777344 -17.097656 10.984375 -16.902344 C 11.207031 -16.691406 11.316406 -16.421875 11.316406 -16.082031 L 11.316406 -0.375 C 11.316406 -0.0390625 11.207031 0.234375 10.984375 0.441406 C 10.777344 0.636719 10.507812 0.734375 10.179688 0.734375 L 7.757812 0.734375 C 7.429688 0.734375 7.164062 0.632812 6.957031 0.425781 C 6.75 0.21875 6.648438 -0.046875 6.648438 -0.375 L 6.648438 -6.628906 L 7.382812 -6.628906 L 7.382812 -5.894531 L 4.375 -5.894531 L 4.375 -6.628906 L 5.109375 -6.628906 L 5.109375 -0.375 C 5.109375 -0.046875 5.003906 0.21875 4.800781 0.425781 C 4.59375 0.632812 4.324219 0.734375 3.996094 0.734375 L 1.574219 0.734375 C 1.246094 0.734375 0.980469 0.636719 0.773438 0.441406 C 0.550781 0.234375 0.441406 -0.0390625 0.441406 -0.375 L 0.441406 -16.082031 C 0.441406 -16.421875 0.550781 -16.691406 0.773438 -16.902344 C 0.980469 -17.097656 1.246094 -17.195312 1.574219 -17.195312 L 3.996094 -17.195312 C 4.324219 -17.195312 4.59375 -17.089844 4.800781 -16.886719 C 5.003906 -16.679688 5.109375 -16.410156 5.109375 -16.082031 L 5.109375 -9.734375 L 4.375 -9.734375 L 4.375 -10.46875 L 7.382812 -10.46875 L 7.382812 -9.734375 Z M 8.117188 -9 L 3.636719 -9 L 3.636719 -16.082031 C 3.636719 -16.066406 3.644531 -16.042969 3.652344 -16.015625 C 3.671875 -15.953125 3.710938 -15.894531 3.761719 -15.847656 C 3.808594 -15.796875 3.867188 -15.757812 3.929688 -15.738281 C 3.957031 -15.730469 3.980469 -15.722656 3.996094 -15.722656 L 1.574219 -15.722656 C 1.582031 -15.722656 1.597656 -15.726562 1.621094 -15.734375 C 1.679688 -15.753906 1.730469 -15.785156 1.777344 -15.832031 C 1.832031 -15.878906 1.871094 -15.9375 1.894531 -16.003906 C 1.90625 -16.035156 1.910156 -16.0625 1.910156 -16.082031 L 1.910156 -0.375 C 1.910156 -0.398438 1.90625 -0.425781 1.894531 -0.457031 C 1.871094 -0.523438 1.832031 -0.578125 1.777344 -0.628906 C 1.730469 -0.675781 1.679688 -0.707031 1.621094 -0.726562 C 1.597656 -0.730469 1.582031 -0.734375 1.574219 -0.734375 L 3.996094 -0.734375 C 3.980469 -0.734375 3.957031 -0.730469 3.929688 -0.71875 C 3.867188 -0.699219 3.808594 -0.664062 3.761719 -0.613281 C 3.710938 -0.5625 3.671875 -0.507812 3.652344 -0.445312 C 3.644531 -0.414062 3.636719 -0.394531 3.636719 -0.375 L 3.636719 -7.367188 L 8.117188 -7.367188 L 8.117188 -0.375 C 8.117188 -0.394531 8.113281 -0.414062 8.105469 -0.445312 C 8.082031 -0.507812 8.046875 -0.5625 7.996094 -0.613281 C 7.945312 -0.664062 7.890625 -0.699219 7.828125 -0.71875 C 7.796875 -0.730469 7.777344 -0.734375 7.757812 -0.734375 L 10.179688 -0.734375 C 10.171875 -0.734375 10.15625 -0.730469 10.136719 -0.726562 C 10.078125 -0.707031 10.027344 -0.675781 9.976562 -0.628906 C 9.925781 -0.578125 9.886719 -0.523438 9.863281 -0.457031 C 9.851562 -0.425781 9.847656 -0.398438 9.847656 -0.375 L 9.847656 -16.082031 C 9.847656 -16.0625 9.851562 -16.035156 9.863281 -16.003906 C 9.886719 -15.9375 9.925781 -15.878906 9.976562 -15.832031 C 10.027344 -15.785156 10.078125 -15.753906 10.136719 -15.734375 C 10.15625 -15.726562 10.171875 -15.722656 10.179688 -15.722656 L 7.757812 -15.722656 C 7.777344 -15.722656 7.796875 -15.730469 7.828125 -15.738281 C 7.890625 -15.757812 7.945312 -15.796875 7.996094 -15.847656 C 8.046875 -15.894531 8.082031 -15.953125 8.105469 -16.015625 C 8.113281 -16.042969 8.117188 -16.066406 8.117188 -16.082031 Z M 8.117188 -9 "/></g></g><g style="fill:#060705;fill-opacity:1;"><g transform="translate(20.823359, 40.847638)"><path style="stroke:none" d="M 1.171875 -3.390625 L 1.171875 -13.078125 C 1.171875 -14.191406 1.460938 -15.035156 2.046875 -15.609375 C 2.628906 -16.179688 3.46875 -16.46875 4.5625 -16.46875 L 7.203125 -16.46875 C 8.296875 -16.46875 9.128906 -16.179688 9.703125 -15.609375 C 10.285156 -15.035156 10.578125 -14.191406 10.578125 -13.078125 L 10.578125 -11.328125 C 10.578125 -11.078125 10.453125 -10.953125 10.203125 -10.953125 L 8 -10.953125 C 7.75 -10.953125 7.625 -11.078125 7.625 -11.328125 L 7.625 -12.484375 C 7.625 -13.109375 7.304688 -13.421875 6.671875 -13.421875 L 5.171875 -13.421875 C 4.546875 -13.421875 4.234375 -13.109375 4.234375 -12.484375 L 4.234375 -3.96875 C 4.234375 -3.34375 4.546875 -3.03125 5.171875 -3.03125 L 6.671875 -3.03125 C 7.304688 -3.03125 7.625 -3.34375 7.625 -3.96875 L 7.625 -6.015625 L 6.390625 -6.015625 C 6.140625 -6.015625 6.015625 -6.140625 6.015625 -6.390625 L 6.015625 -8.75 C 6.015625 -9 6.140625 -9.125 6.390625 -9.125 L 10.203125 -9.125 C 10.453125 -9.125 10.578125 -9 10.578125 -8.75 L 10.578125 -3.390625 C 10.578125 -2.285156 10.285156 -1.441406 9.703125 -0.859375 C 9.128906 -0.285156 8.296875 0 7.203125 0 L 4.5625 0 C 3.46875 0 2.628906 -0.285156 2.046875 -0.859375 C 1.460938 -1.441406 1.171875 -2.285156 1.171875 -3.390625 Z M 1.171875 -3.390625 "/></g></g><g style="fill:#060705;fill-opacity:1;"><g transform="translate(32.57634, 40.847638)"><path style="stroke:none" d="M 10.5625 -16.078125 L 10.5625 -13.734375 C 10.5625 -13.460938 10.4375 -13.328125 10.1875 -13.328125 L 4.375 -13.328125 L 4.375 -9.71875 L 8.796875 -9.71875 C 9.046875 -9.71875 9.171875 -9.582031 9.171875 -9.3125 L 9.171875 -6.984375 C 9.171875 -6.710938 9.046875 -6.578125 8.796875 -6.578125 L 4.375 -6.578125 L 4.375 -3.109375 L 10.1875 -3.109375 C 10.4375 -3.109375 10.5625 -2.984375 10.5625 -2.734375 L 10.5625 -0.375 C 10.5625 -0.125 10.4375 0 10.1875 0 L 1.53125 0 C 1.289062 0 1.171875 -0.125 1.171875 -0.375 L 1.171875 -16.078125 C 1.171875 -16.335938 1.289062 -16.46875 1.53125 -16.46875 L 10.1875 -16.46875 C 10.4375 -16.46875 10.5625 -16.335938 10.5625 -16.078125 Z M 10.5625 -16.078125 "/></g></g><g style="fill:#060705;fill-opacity:1;"><g transform="translate(44.30581, 40.847638)"><path style="stroke:none" d="M 11 -16.46875 L 14.109375 -16.46875 C 14.421875 -16.46875 14.578125 -16.304688 14.578125 -15.984375 L 14.578125 -0.46875 C 14.578125 -0.15625 14.421875 0 14.109375 0 L 11.921875 0 C 11.609375 0 11.453125 -0.15625 11.453125 -0.46875 L 11.453125 -9.71875 L 11.28125 -9.71875 L 9.078125 -0.40625 C 8.992188 -0.132812 8.820312 0 8.5625 0 L 7.171875 0 C 6.898438 0 6.726562 -0.132812 6.65625 -0.40625 L 4.4375 -9.71875 L 4.28125 -9.71875 L 4.28125 -0.46875 C 4.28125 -0.15625 4.125 0 3.8125 0 L 1.640625 0 C 1.328125 0 1.171875 -0.15625 1.171875 -0.46875 L 1.171875 -15.984375 C 1.171875 -16.304688 1.328125 -16.46875 1.640625 -16.46875 L 4.75 -16.46875 C 5.019531 -16.46875 5.191406 -16.332031 5.265625 -16.0625 L 7.875 -5.578125 L 10.484375 -16.0625 C 10.566406 -16.332031 10.738281 -16.46875 11 -16.46875 Z M 11 -16.46875 "/></g></g><g style="fill:#060705;fill-opacity:1;"><g transform="translate(60.054802, 40.847638)"><path style="stroke:none" d="M 0 3.15625 L 0 0.984375 C 0 0.671875 0.15625 0.515625 0.46875 0.515625 L 14.65625 0.515625 C 14.96875 0.515625 15.125 0.671875 15.125 0.984375 L 15.125 3.15625 C 15.125 3.46875 14.96875 3.625 14.65625 3.625 L 0.46875 3.625 C 0.15625 3.625 0 3.46875 0 3.15625 Z M 0 3.15625 "/></g></g><g style="fill:#060705;fill-opacity:1;"><g transform="translate(18.280918, 73.629302)"><path style="stroke:none" d="M 10.609375 -13.078125 L 10.609375 -9.90625 C 10.609375 -9.457031 10.46875 -9.082031 10.1875 -8.78125 C 9.90625 -8.488281 9.550781 -8.304688 9.125 -8.234375 L 9.125 -8.1875 C 9.550781 -8.125 9.90625 -7.9375 10.1875 -7.625 C 10.46875 -7.320312 10.609375 -6.953125 10.609375 -6.515625 L 10.609375 -3.390625 C 10.609375 -2.285156 10.316406 -1.441406 9.734375 -0.859375 C 9.148438 -0.285156 8.304688 0 7.203125 0 L 1.546875 0 C 1.296875 0 1.171875 -0.125 1.171875 -0.375 L 1.171875 -16.078125 C 1.171875 -16.335938 1.296875 -16.46875 1.546875 -16.46875 L 7.203125 -16.46875 C 8.304688 -16.46875 9.148438 -16.179688 9.734375 -15.609375 C 10.316406 -15.035156 10.609375 -14.191406 10.609375 -13.078125 Z M 7.625 -10.671875 L 7.625 -12.5625 C 7.625 -13.1875 7.304688 -13.5 6.671875 -13.5 L 4.09375 -13.5 L 4.09375 -9.765625 L 6.671875 -9.765625 C 7.304688 -9.765625 7.625 -10.066406 7.625 -10.671875 Z M 7.625 -3.90625 L 7.625 -5.71875 C 7.625 -6.34375 7.304688 -6.65625 6.671875 -6.65625 L 4.09375 -6.65625 L 4.09375 -2.96875 L 6.671875 -2.96875 C 7.304688 -2.96875 7.625 -3.28125 7.625 -3.90625 Z M 7.625 -3.90625 "/></g></g><g style="fill:#060705;fill-opacity:1;"><g transform="translate(30.057408, 73.629302)"><path style="stroke:none" d="M 10.5625 -16.078125 L 10.5625 -13.734375 C 10.5625 -13.460938 10.4375 -13.328125 10.1875 -13.328125 L 4.375 -13.328125 L 4.375 -9.71875 L 8.796875 -9.71875 C 9.046875 -9.71875 9.171875 -9.582031 9.171875 -9.3125 L 9.171875 -6.984375 C 9.171875 -6.710938 9.046875 -6.578125 8.796875 -6.578125 L 4.375 -6.578125 L 4.375 -3.109375 L 10.1875 -3.109375 C 10.4375 -3.109375 10.5625 -2.984375 10.5625 -2.734375 L 10.5625 -0.375 C 10.5625 -0.125 10.4375 0 10.1875 0 L 1.53125 0 C 1.289062 0 1.171875 -0.125 1.171875 -0.375 L 1.171875 -16.078125 C 1.171875 -16.335938 1.289062 -16.46875 1.53125 -16.46875 L 10.1875 -16.46875 C 10.4375 -16.46875 10.5625 -16.335938 10.5625 -16.078125 Z M 10.5625 -16.078125 "/></g></g><g style="fill:#060705;fill-opacity:1;"><g transform="translate(41.786879, 73.629302)"><path style="stroke:none" d="M 8.625 -16.46875 L 10.84375 -16.46875 C 11.09375 -16.46875 11.21875 -16.335938 11.21875 -16.078125 L 11.21875 -0.375 C 11.21875 -0.125 11.09375 0 10.84375 0 L 8.984375 0 C 8.796875 0 8.65625 -0.101562 8.5625 -0.3125 L 4.140625 -9.28125 L 4.140625 -0.375 C 4.140625 -0.125 4.015625 0 3.765625 0 L 1.546875 0 C 1.296875 0 1.171875 -0.125 1.171875 -0.375 L 1.171875 -16.078125 C 1.171875 -16.335938 1.296875 -16.46875 1.546875 -16.46875 L 3.40625 -16.46875 C 3.59375 -16.46875 3.734375 -16.363281 3.828125 -16.15625 L 8.25 -7.171875 L 8.25 -16.078125 C 8.25 -16.335938 8.375 -16.46875 8.625 -16.46875 Z M 8.625 -16.46875 "/></g></g><g style="fill:#060705;fill-opacity:1;"><g transform="translate(54.174524, 73.629302)"><path style="stroke:none" d="M 10.609375 -13.078125 L 10.609375 -10.53125 C 10.609375 -10.28125 10.484375 -10.15625 10.234375 -10.15625 L 8.015625 -10.15625 C 7.765625 -10.15625 7.640625 -10.28125 7.640625 -10.53125 L 7.640625 -12.46875 C 7.640625 -13.09375 7.328125 -13.40625 6.703125 -13.40625 L 5.203125 -13.40625 C 4.566406 -13.40625 4.25 -13.09375 4.25 -12.46875 L 4.25 -3.921875 C 4.25 -3.296875 4.566406 -2.984375 5.203125 -2.984375 L 6.703125 -2.984375 C 7.328125 -2.984375 7.640625 -3.296875 7.640625 -3.921875 L 7.640625 -5.921875 C 7.640625 -6.171875 7.765625 -6.296875 8.015625 -6.296875 L 10.234375 -6.296875 C 10.484375 -6.296875 10.609375 -6.171875 10.609375 -5.921875 L 10.609375 -3.390625 C 10.609375 -2.285156 10.316406 -1.441406 9.734375 -0.859375 C 9.148438 -0.285156 8.3125 0 7.21875 0 L 4.578125 0 C 3.484375 0 2.640625 -0.285156 2.046875 -0.859375 C 1.460938 -1.441406 1.171875 -2.285156 1.171875 -3.390625 L 1.171875 -13.078125 C 1.171875 -14.191406 1.460938 -15.035156 2.046875 -15.609375 C 2.640625 -16.179688 3.484375 -16.46875 4.578125 -16.46875 L 7.21875 -16.46875 C 8.3125 -16.46875 9.148438 -16.179688 9.734375 -15.609375 C 10.316406 -15.035156 10.609375 -14.191406 10.609375 -13.078125 Z M 10.609375 -13.078125 "/></g></g><g style="fill:#060705;fill-opacity:1;"><g transform="translate(65.951014, 73.629302)"><path style="stroke:none" d="M 7.390625 -9.734375 L 7.390625 -16.078125 C 7.390625 -16.335938 7.515625 -16.46875 7.765625 -16.46875 L 10.1875 -16.46875 C 10.445312 -16.46875 10.578125 -16.335938 10.578125 -16.078125 L 10.578125 -0.375 C 10.578125 -0.125 10.445312 0 10.1875 0 L 7.765625 0 C 7.515625 0 7.390625 -0.125 7.390625 -0.375 L 7.390625 -6.625 L 4.375 -6.625 L 4.375 -0.375 C 4.375 -0.125 4.25 0 4 0 L 1.578125 0 C 1.304688 0 1.171875 -0.125 1.171875 -0.375 L 1.171875 -16.078125 C 1.171875 -16.335938 1.304688 -16.46875 1.578125 -16.46875 L 4 -16.46875 C 4.25 -16.46875 4.375 -16.335938 4.375 -16.078125 L 4.375 -9.734375 Z M 7.390625 -9.734375 "/></g></g></g></svg>