<svg xmlns="http://www.w3.org/2000/svg" xmlns:xlink="http://www.w3.org/1999/xlink" width="500" zoomAndPan="magnify" viewBox="0 0 375 374.999991" height="500" preserveAspectRatio="xMidYMid meet" version="1.0"><defs><g/><clipPath id="dbab2104c9"><path d="M 25 0 L 350 0 L 350 375 L 25 375 Z M 25 0 " clip-rule="nonzero"/></clipPath><clipPath id="f291516cfc"><path d="M -55.878906 142.882812 L 268.328125 -46.476562 L 431 232.042969 L 106.789062 421.402344 Z M -55.878906 142.882812 " clip-rule="nonzero"/></clipPath><clipPath id="68cb5c3f9a"><path d="M 349.546875 92.851562 L 349.859375 279.433594 L 187.8125 374.078125 L 25.453125 282.140625 L 25.140625 95.5625 L 187.1875 0.917969 Z M 349.546875 92.851562 " clip-rule="nonzero"/></clipPath><clipPath id="1178eb79d8"><path d="M 0 0.71875 L 324.921875 0.71875 L 324.921875 374.160156 L 0 374.160156 Z M 0 0.71875 " clip-rule="nonzero"/></clipPath><clipPath id="0e0a00b2c3"><path d="M -80.878906 142.882812 L 243.328125 -46.476562 L 406 232.042969 L 81.789062 421.402344 Z M -80.878906 142.882812 " clip-rule="nonzero"/></clipPath><clipPath id="c193875796"><path d="M 324.546875 92.851562 L 324.859375 279.433594 L 162.8125 374.078125 L 0.453125 282.140625 L 0.140625 95.5625 L 162.1875 0.917969 Z M 324.546875 92.851562 " clip-rule="nonzero"/></clipPath><clipPath id="8aa246d88f"><rect x="0" width="325" y="0" height="375"/></clipPath><clipPath id="c53333ac05"><path d="M 55.238281 35.632812 L 319.726562 35.632812 L 319.726562 339.21875 L 55.238281 339.21875 Z M 55.238281 35.632812 " clip-rule="nonzero"/></clipPath><clipPath id="389b198ec0"><rect x="0" width="375" y="0" height="375"/></clipPath><clipPath id="919396694f"><rect x="0" width="256" y="0" height="262"/></clipPath></defs><g transform="matrix(1, 0, 0, 1, 0, 0)"><g clip-path="url(#389b198ec0)"><g clip-path="url(#dbab2104c9)"><g clip-path="url(#f291516cfc)"><g clip-path="url(#68cb5c3f9a)"><g transform="matrix(1, 0, 0, 1, 25, 0)"><g clip-path="url(#8aa246d88f)"><g clip-path="url(#1178eb79d8)"><g clip-path="url(#0e0a00b2c3)"><g clip-path="url(#c193875796)"><path fill="#65b30e" d="M -80.878906 142.882812 L 243.332031 -46.476562 L 406 232.042969 L 81.789062 421.402344 Z M -80.878906 142.882812 " fill-opacity="1" fill-rule="nonzero"/></g></g></g></g></g></g></g></g><path fill="#87ff00" d="M 134.621094 135.75 L 134.453125 135.582031 L 97.054688 172.976562 L 187.855469 263.609375 L 225.253906 226.386719 L 278.65625 172.976562 L 241.257812 135.582031 L 241.257812 135.414062 L 134.457031 135.414062 Z M 134.621094 135.75 " fill-opacity="1" fill-rule="nonzero"/><g clip-path="url(#c53333ac05)"><path fill="#87ff00" d="M 187.515625 35.851562 L 55.269531 111.660156 L 55.273438 263.28125 L 187.519531 339.09375 L 319.765625 263.28125 L 319.765625 111.660156 L 187.519531 35.855469 Z M 294.488281 248.785156 L 187.515625 310.441406 L 80.539062 248.785156 L 80.542969 125.808594 L 187.519531 64.148438 L 294.492188 125.804688 L 294.492188 248.78125 Z M 294.488281 248.785156 " fill-opacity="1" fill-rule="nonzero"/></g></g></g><g transform="matrix(1, 0, 0, 1, 59, 56)"><g clip-path="url(#919396694f)"><g fill="#b21a22" fill-opacity="1"><g transform="translate(8.910053, 101.225304)"><g><path d="M 39.8125 -73.148438 L 49.816406 -73.148438 C 51.574219 -73.148438 52.933594 -72.523438 53.894531 -71.277344 C 54.492188 -70.5 54.792969 -69.617188 54.792969 -68.632812 C 54.792969 -67.867188 54.597656 -67.097656 54.210938 -66.324219 L 51.414062 -67.71875 L 54.277344 -66.460938 L 35.96875 -24.945312 L 33.109375 -26.207031 L 36.238281 -26.207031 L 36.238281 -2 C 36.238281 -0.46875 35.765625 0.765625 34.820312 1.710938 C 33.875 2.65625 32.640625 3.125 31.109375 3.125 L 21.507812 3.125 C 19.976562 3.125 18.738281 2.65625 17.796875 1.710938 C 16.851562 0.765625 16.378906 -0.46875 16.378906 -2 L 16.378906 -26.207031 L 19.507812 -26.207031 L 16.644531 -24.945312 L -1.683594 -66.507812 L -1.703125 -66.558594 C -2.386719 -68.265625 -2.257812 -69.796875 -1.320312 -71.152344 C -0.398438 -72.480469 0.976562 -73.148438 2.800781 -73.148438 L 12.804688 -73.148438 C 14.023438 -73.148438 15.09375 -72.828125 16.015625 -72.1875 C 16.929688 -71.550781 17.605469 -70.660156 18.03125 -69.519531 L 15.105469 -68.421875 L 17.96875 -69.667969 L 29.175781 -43.960938 L 26.308594 -42.714844 L 23.441406 -43.960938 L 34.644531 -69.667969 L 37.511719 -68.421875 L 34.585938 -69.519531 C 35.011719 -70.660156 35.683594 -71.550781 36.601562 -72.1875 C 37.519531 -72.828125 38.589844 -73.148438 39.8125 -73.148438 Z M 39.8125 -66.894531 C 39.898438 -66.894531 40.019531 -66.949219 40.171875 -67.054688 C 40.320312 -67.160156 40.410156 -67.25 40.4375 -67.324219 L 40.410156 -67.246094 L 26.308594 -34.886719 L 12.207031 -67.246094 L 12.175781 -67.324219 C 12.207031 -67.25 12.292969 -67.160156 12.445312 -67.054688 C 12.597656 -66.949219 12.71875 -66.894531 12.804688 -66.894531 L 2.800781 -66.894531 C 2.851562 -66.894531 2.945312 -66.921875 3.070312 -66.976562 C 3.375 -67.101562 3.625 -67.308594 3.820312 -67.589844 C 4.023438 -67.882812 4.128906 -68.199219 4.136719 -68.539062 C 4.140625 -68.699219 4.132812 -68.8125 4.101562 -68.882812 L 1.199219 -67.71875 L 4.0625 -68.980469 L 22.632812 -26.867188 L 22.632812 -2 C 22.632812 -1.988281 22.632812 -1.976562 22.632812 -1.964844 C 22.632812 -1.964844 22.632812 -1.96875 22.632812 -1.972656 C 22.625 -2.015625 22.613281 -2.0625 22.597656 -2.113281 C 22.523438 -2.332031 22.398438 -2.53125 22.214844 -2.710938 C 22.035156 -2.890625 21.835938 -3.019531 21.621094 -3.089844 C 21.566406 -3.109375 21.519531 -3.121094 21.480469 -3.125 C 21.476562 -3.125 21.472656 -3.128906 21.472656 -3.128906 C 21.480469 -3.125 21.492188 -3.125 21.507812 -3.125 L 31.109375 -3.125 C 31.125 -3.125 31.136719 -3.125 31.144531 -3.128906 C 31.144531 -3.128906 31.140625 -3.125 31.136719 -3.125 C 31.097656 -3.121094 31.050781 -3.109375 30.996094 -3.089844 C 30.78125 -3.019531 30.582031 -2.890625 30.398438 -2.710938 C 30.21875 -2.53125 30.089844 -2.332031 30.019531 -2.113281 C 30 -2.0625 29.988281 -2.015625 29.984375 -1.972656 C 29.984375 -1.96875 29.984375 -1.964844 29.984375 -1.964844 C 29.984375 -1.976562 29.984375 -1.988281 29.984375 -2 L 29.984375 -26.867188 L 48.585938 -69.050781 L 48.621094 -69.117188 C 48.566406 -69.011719 48.539062 -68.851562 48.539062 -68.632812 C 48.539062 -68.199219 48.671875 -67.808594 48.9375 -67.464844 C 49.113281 -67.234375 49.332031 -67.066406 49.589844 -66.960938 C 49.699219 -66.917969 49.773438 -66.894531 49.816406 -66.894531 Z M 39.8125 -66.894531 "/></g></g></g><g fill="#b21a22" fill-opacity="1"><g transform="translate(61.524107, 101.225304)"><g><path d="M 52.214844 3.125 L 42.511719 3.125 C 41.296875 3.125 40.261719 2.75 39.402344 2.003906 C 38.617188 1.3125 38.101562 0.398438 37.855469 -0.746094 L 40.914062 -1.402344 L 37.882812 -0.628906 L 34.679688 -13.234375 L 37.710938 -14.003906 L 37.710938 -10.878906 L 18.90625 -10.878906 L 18.90625 -14.003906 L 21.941406 -13.257812 L 18.839844 -0.652344 L 15.804688 -1.402344 L 18.863281 -0.746094 C 18.617188 0.398438 18.101562 1.3125 17.3125 2.003906 C 16.457031 2.75 15.421875 3.125 14.203125 3.125 L 4.402344 3.125 C 2.769531 3.125 1.535156 2.574219 0.691406 1.472656 C -0.167969 0.351562 -0.363281 -1 0.101562 -2.582031 L 3.101562 -1.699219 L 0.0664062 -2.453125 L 16.671875 -69.375 L 19.707031 -68.621094 L 16.648438 -69.277344 C 16.902344 -70.453125 17.449219 -71.390625 18.292969 -72.085938 C 19.15625 -72.792969 20.191406 -73.148438 21.40625 -73.148438 L 35.3125 -73.148438 C 36.523438 -73.148438 37.5625 -72.792969 38.421875 -72.085938 C 39.269531 -71.390625 39.816406 -70.453125 40.066406 -69.277344 L 37.011719 -68.621094 L 40.046875 -69.375 L 56.652344 -2.453125 L 53.617188 -1.699219 L 56.617188 -2.582031 C 57.09375 -0.957031 56.867188 0.425781 55.929688 1.5625 C 55.070312 2.605469 53.832031 3.125 52.214844 3.125 Z M 52.214844 -3.125 C 52.230469 -3.125 52.246094 -3.125 52.253906 -3.128906 C 52.253906 -3.128906 52.25 -3.125 52.242188 -3.125 C 52.183594 -3.117188 52.117188 -3.101562 52.042969 -3.078125 C 51.683594 -2.960938 51.371094 -2.738281 51.101562 -2.414062 C 50.800781 -2.046875 50.632812 -1.644531 50.597656 -1.199219 C 50.585938 -1.03125 50.59375 -0.902344 50.617188 -0.816406 L 50.597656 -0.882812 L 33.964844 -67.917969 L 33.953125 -67.964844 C 34.007812 -67.722656 34.171875 -67.484375 34.449219 -67.257812 C 34.742188 -67.015625 35.03125 -66.894531 35.3125 -66.894531 L 21.40625 -66.894531 C 21.6875 -66.894531 21.976562 -67.015625 22.269531 -67.257812 C 22.546875 -67.484375 22.710938 -67.722656 22.761719 -67.964844 L 22.753906 -67.917969 L 6.121094 -0.882812 L 6.101562 -0.816406 C 6.121094 -0.882812 6.125 -0.992188 6.117188 -1.140625 C 6.089844 -1.566406 5.9375 -1.960938 5.660156 -2.324219 C 5.386719 -2.679688 5.058594 -2.925781 4.667969 -3.058594 C 4.542969 -3.105469 4.453125 -3.125 4.402344 -3.125 L 14.203125 -3.125 C 13.855469 -3.125 13.519531 -2.984375 13.195312 -2.703125 C 12.941406 -2.480469 12.792969 -2.265625 12.746094 -2.054688 L 12.757812 -2.101562 L 16.457031 -17.128906 L 40.144531 -17.128906 L 43.957031 -2.113281 L 43.96875 -2.054688 C 43.925781 -2.265625 43.773438 -2.480469 43.519531 -2.703125 C 43.199219 -2.984375 42.863281 -3.125 42.511719 -3.125 Z M 31.566406 -24.902344 L 25.261719 -52.109375 L 28.308594 -52.816406 L 31.355469 -52.109375 L 25.050781 -24.902344 L 22.007812 -25.609375 L 22.007812 -28.734375 L 34.609375 -28.734375 L 34.609375 -25.609375 Z M 38.542969 -22.480469 L 18.074219 -22.480469 L 25.261719 -53.519531 L 31.355469 -53.519531 L 37.65625 -26.3125 Z M 38.542969 -22.480469 "/></g></g></g><g fill="#b21a22" fill-opacity="1"><g transform="translate(118.239252, 101.225304)"><g><path d="M 48.140625 -55.617188 L 48.140625 -35.511719 C 48.140625 -28.554688 45.78125 -23.601562 41.070312 -20.65625 L 39.410156 -23.308594 L 42.449219 -24.042969 L 47.652344 -2.535156 L 44.613281 -1.800781 L 47.625 -2.636719 C 48.074219 -1.027344 47.859375 0.339844 46.980469 1.46875 C 46.121094 2.574219 44.867188 3.125 43.214844 3.125 L 33.410156 3.125 C 32.195312 3.125 31.15625 2.773438 30.296875 2.0625 C 29.453125 1.367188 28.90625 0.433594 28.652344 -0.746094 L 31.710938 -1.402344 L 28.671875 -0.660156 L 23.871094 -20.367188 L 26.90625 -21.105469 L 26.90625 -17.980469 L 18.003906 -17.980469 L 18.003906 -21.105469 L 21.132812 -21.105469 L 21.132812 -1.601562 C 21.132812 -0.203125 20.691406 0.933594 19.816406 1.8125 C 18.9375 2.6875 17.800781 3.125 16.40625 3.125 L 6.601562 3.125 C 5.207031 3.125 4.066406 2.6875 3.191406 1.8125 C 2.3125 0.933594 1.875 -0.203125 1.875 -1.601562 L 1.875 -68.421875 C 1.875 -69.816406 2.3125 -70.953125 3.191406 -71.832031 C 4.066406 -72.710938 5.207031 -73.148438 6.601562 -73.148438 L 30.609375 -73.148438 C 36.207031 -73.148438 40.527344 -71.625 43.574219 -68.582031 C 46.617188 -65.535156 48.140625 -61.214844 48.140625 -55.617188 Z M 41.886719 -55.617188 C 41.886719 -59.488281 40.976562 -62.335938 39.152344 -64.160156 C 37.328125 -65.984375 34.480469 -66.894531 30.609375 -66.894531 L 6.601562 -66.894531 C 6.671875 -66.894531 6.769531 -66.914062 6.890625 -66.957031 C 7.15625 -67.042969 7.398438 -67.195312 7.613281 -67.410156 C 7.828125 -67.625 7.980469 -67.867188 8.066406 -68.132812 C 8.109375 -68.253906 8.128906 -68.347656 8.128906 -68.421875 L 8.128906 -1.601562 C 8.128906 -1.671875 8.109375 -1.769531 8.066406 -1.890625 C 7.980469 -2.15625 7.828125 -2.394531 7.613281 -2.609375 C 7.398438 -2.824219 7.15625 -2.976562 6.890625 -3.066406 C 6.769531 -3.105469 6.671875 -3.125 6.601562 -3.125 L 16.40625 -3.125 C 16.332031 -3.125 16.238281 -3.105469 16.117188 -3.066406 C 15.851562 -2.976562 15.609375 -2.824219 15.394531 -2.609375 C 15.179688 -2.394531 15.027344 -2.15625 14.941406 -1.890625 C 14.898438 -1.769531 14.878906 -1.671875 14.878906 -1.601562 L 14.878906 -24.234375 L 29.363281 -24.234375 L 34.757812 -2.097656 L 34.765625 -2.054688 C 34.714844 -2.300781 34.550781 -2.535156 34.273438 -2.761719 C 33.976562 -3.003906 33.691406 -3.125 33.410156 -3.125 L 43.214844 -3.125 C 43.148438 -3.113281 43.074219 -3.09375 42.992188 -3.066406 C 42.625 -2.941406 42.308594 -2.707031 42.046875 -2.371094 C 41.777344 -2.023438 41.625 -1.648438 41.597656 -1.242188 C 41.585938 -1.105469 41.585938 -1.011719 41.601562 -0.964844 L 41.585938 -1.015625 L 35.84375 -24.761719 L 37.753906 -25.957031 C 40.511719 -27.679688 41.886719 -30.863281 41.886719 -35.511719 Z M 18.003906 -37.136719 L 28.007812 -37.136719 C 28.335938 -37.136719 28.589844 -37.167969 28.769531 -37.226562 C 28.804688 -37.238281 28.824219 -37.246094 28.839844 -37.253906 C 28.828125 -37.246094 28.8125 -37.234375 28.796875 -37.222656 C 28.785156 -37.207031 28.773438 -37.195312 28.765625 -37.183594 C 28.773438 -37.195312 28.78125 -37.214844 28.792969 -37.25 C 28.851562 -37.429688 28.882812 -37.683594 28.882812 -38.011719 L 28.882812 -53.117188 C 28.882812 -53.445312 28.851562 -53.699219 28.792969 -53.878906 C 28.78125 -53.910156 28.773438 -53.933594 28.765625 -53.945312 C 28.773438 -53.933594 28.785156 -53.921875 28.796875 -53.90625 C 28.8125 -53.890625 28.828125 -53.878906 28.839844 -53.875 C 28.824219 -53.882812 28.804688 -53.890625 28.769531 -53.902344 C 28.589844 -53.960938 28.335938 -53.992188 28.007812 -53.992188 L 18.003906 -53.992188 L 18.003906 -57.117188 L 21.132812 -57.117188 L 21.132812 -34.011719 L 18.003906 -34.011719 Z M 14.878906 -30.882812 L 14.878906 -60.242188 L 28.007812 -60.242188 C 30.207031 -60.242188 31.941406 -59.605469 33.21875 -58.328125 C 34.496094 -57.050781 35.136719 -55.3125 35.136719 -53.117188 L 35.136719 -38.011719 C 35.136719 -35.816406 34.496094 -34.078125 33.21875 -32.800781 C 31.941406 -31.523438 30.207031 -30.882812 28.007812 -30.882812 Z M 14.878906 -30.882812 "/></g></g></g><g fill="#b21a22" fill-opacity="1"><g transform="translate(168.252605, 101.225304)"><g><path d="M 1.875 -1.601562 L 1.875 -68.421875 C 1.875 -69.816406 2.3125 -70.953125 3.191406 -71.832031 C 4.066406 -72.710938 5.207031 -73.148438 6.601562 -73.148438 L 30.609375 -73.148438 C 36.214844 -73.148438 40.542969 -71.605469 43.589844 -68.515625 C 46.621094 -65.441406 48.140625 -61.105469 48.140625 -55.515625 L 48.140625 -14.40625 C 48.140625 -8.882812 46.621094 -4.582031 43.589844 -1.503906 C 40.542969 1.582031 36.214844 3.125 30.609375 3.125 L 6.601562 3.125 C 5.207031 3.125 4.066406 2.6875 3.191406 1.8125 C 2.3125 0.933594 1.875 -0.203125 1.875 -1.601562 Z M 8.128906 -1.601562 C 8.128906 -1.671875 8.109375 -1.769531 8.066406 -1.890625 C 7.980469 -2.15625 7.828125 -2.394531 7.613281 -2.609375 C 7.398438 -2.824219 7.15625 -2.976562 6.890625 -3.066406 C 6.769531 -3.105469 6.671875 -3.125 6.601562 -3.125 L 30.609375 -3.125 C 34.472656 -3.125 37.316406 -4.050781 39.136719 -5.898438 C 40.96875 -7.753906 41.886719 -10.589844 41.886719 -14.40625 L 41.886719 -55.515625 C 41.886719 -59.398438 40.96875 -62.265625 39.136719 -64.125 C 37.316406 -65.972656 34.472656 -66.894531 30.609375 -66.894531 L 6.601562 -66.894531 C 6.671875 -66.894531 6.769531 -66.914062 6.890625 -66.957031 C 7.15625 -67.042969 7.398438 -67.195312 7.613281 -67.410156 C 7.828125 -67.625 7.980469 -67.867188 8.066406 -68.132812 C 8.109375 -68.253906 8.128906 -68.347656 8.128906 -68.421875 Z M 18.605469 -16.332031 L 27.808594 -16.332031 C 28.136719 -16.332031 28.390625 -16.359375 28.570312 -16.421875 C 28.601562 -16.429688 28.625 -16.441406 28.636719 -16.449219 C 28.625 -16.441406 28.613281 -16.429688 28.597656 -16.414062 C 28.582031 -16.398438 28.574219 -16.386719 28.566406 -16.375 C 28.574219 -16.386719 28.582031 -16.410156 28.59375 -16.441406 C 28.652344 -16.621094 28.683594 -16.875 28.683594 -17.207031 L 28.683594 -52.714844 C 28.683594 -53.070312 28.652344 -53.34375 28.585938 -53.542969 C 28.574219 -53.585938 28.558594 -53.617188 28.550781 -53.636719 C 28.550781 -53.628906 28.558594 -53.621094 28.570312 -53.609375 L 28.546875 -53.601562 C 28.375 -53.660156 28.128906 -53.691406 27.808594 -53.691406 L 18.605469 -53.691406 L 18.605469 -56.816406 L 21.730469 -56.816406 L 21.730469 -13.203125 L 18.605469 -13.203125 Z M 15.480469 -10.078125 L 15.480469 -59.945312 L 27.808594 -59.945312 C 30.019531 -59.945312 31.765625 -59.289062 33.046875 -57.976562 C 34.304688 -56.683594 34.9375 -54.929688 34.9375 -52.714844 L 34.9375 -17.207031 C 34.9375 -15.007812 34.296875 -13.269531 33.019531 -11.992188 C 31.742188 -10.714844 30.003906 -10.078125 27.808594 -10.078125 Z M 15.480469 -10.078125 "/></g></g></g><g fill="#b21a22" fill-opacity="1"><g transform="translate(218.265958, 101.225304)"><g><path d="M 1.875 -31.410156 L 1.875 -40.613281 C 1.875 -42.140625 2.347656 -43.378906 3.289062 -44.324219 C 4.234375 -45.265625 5.472656 -45.738281 7.003906 -45.738281 L 22.808594 -45.738281 C 24.335938 -45.738281 25.574219 -45.265625 26.519531 -44.324219 C 27.460938 -43.378906 27.933594 -42.140625 27.933594 -40.613281 L 27.933594 -31.410156 C 27.933594 -29.878906 27.460938 -28.640625 26.519531 -27.699219 C 25.574219 -26.753906 24.335938 -26.28125 22.808594 -26.28125 L 7.003906 -26.28125 C 5.472656 -26.28125 4.234375 -26.753906 3.289062 -27.699219 C 2.347656 -28.640625 1.875 -29.878906 1.875 -31.410156 Z M 8.128906 -31.410156 C 8.128906 -31.394531 8.128906 -31.382812 8.128906 -31.375 C 8.128906 -31.375 8.128906 -31.378906 8.128906 -31.382812 C 8.121094 -31.421875 8.109375 -31.46875 8.09375 -31.523438 C 8.019531 -31.738281 7.894531 -31.9375 7.710938 -32.121094 C 7.53125 -32.300781 7.332031 -32.425781 7.117188 -32.5 C 7.0625 -32.519531 7.015625 -32.53125 6.976562 -32.535156 C 6.96875 -32.535156 6.96875 -32.535156 6.96875 -32.535156 C 6.976562 -32.535156 6.988281 -32.535156 7.003906 -32.535156 L 22.808594 -32.535156 C 22.820312 -32.535156 22.832031 -32.535156 22.839844 -32.535156 C 22.839844 -32.535156 22.839844 -32.535156 22.832031 -32.535156 C 22.792969 -32.53125 22.746094 -32.519531 22.695312 -32.5 C 22.476562 -32.425781 22.277344 -32.300781 22.097656 -32.121094 C 21.914062 -31.9375 21.789062 -31.738281 21.714844 -31.523438 C 21.699219 -31.46875 21.6875 -31.421875 21.679688 -31.382812 C 21.679688 -31.378906 21.679688 -31.375 21.679688 -31.375 C 21.679688 -31.382812 21.679688 -31.394531 21.679688 -31.410156 L 21.679688 -40.613281 C 21.679688 -40.625 21.679688 -40.636719 21.679688 -40.648438 C 21.679688 -40.644531 21.679688 -40.644531 21.679688 -40.640625 C 21.6875 -40.597656 21.699219 -40.550781 21.714844 -40.5 C 21.789062 -40.28125 21.914062 -40.082031 22.097656 -39.902344 C 22.277344 -39.722656 22.476562 -39.59375 22.695312 -39.523438 C 22.746094 -39.503906 22.792969 -39.492188 22.832031 -39.488281 C 22.839844 -39.484375 22.839844 -39.484375 22.839844 -39.484375 C 22.832031 -39.484375 22.820312 -39.488281 22.808594 -39.488281 L 7.003906 -39.488281 C 6.988281 -39.488281 6.976562 -39.484375 6.96875 -39.484375 C 6.96875 -39.484375 6.96875 -39.484375 6.976562 -39.488281 C 7.015625 -39.492188 7.0625 -39.503906 7.117188 -39.523438 C 7.332031 -39.59375 7.53125 -39.722656 7.710938 -39.902344 C 7.894531 -40.082031 8.019531 -40.28125 8.09375 -40.5 C 8.109375 -40.550781 8.121094 -40.597656 8.128906 -40.640625 C 8.128906 -40.644531 8.128906 -40.644531 8.128906 -40.648438 C 8.128906 -40.636719 8.128906 -40.625 8.128906 -40.613281 Z M 8.128906 -31.410156 "/></g></g></g><g fill="#b21a22" fill-opacity="1"><g transform="translate(2.158454, 240.213635)"><g><path d="M 48.140625 -68.421875 L 48.140625 -58.417969 C 48.140625 -57.019531 47.703125 -55.882812 46.824219 -55.007812 C 45.945312 -54.128906 44.808594 -53.691406 43.414062 -53.691406 L 18.605469 -53.691406 L 18.605469 -56.816406 L 21.730469 -56.816406 L 21.730469 -39.710938 L 18.605469 -39.710938 L 18.605469 -42.839844 L 37.410156 -42.839844 C 38.808594 -42.839844 39.945312 -42.398438 40.824219 -41.523438 C 41.699219 -40.644531 42.136719 -39.507812 42.136719 -38.113281 L 42.136719 -28.109375 C 42.136719 -26.710938 41.699219 -25.574219 40.824219 -24.699219 C 39.945312 -23.820312 38.808594 -23.382812 37.410156 -23.382812 L 18.605469 -23.382812 L 18.605469 -26.507812 L 21.730469 -26.507812 L 21.730469 -1.601562 C 21.730469 -0.203125 21.292969 0.933594 20.417969 1.8125 C 19.539062 2.6875 18.402344 3.125 17.003906 3.125 L 6.601562 3.125 C 5.207031 3.125 4.066406 2.6875 3.191406 1.8125 C 2.3125 0.933594 1.875 -0.203125 1.875 -1.601562 L 1.875 -68.421875 C 1.875 -69.816406 2.3125 -70.953125 3.191406 -71.832031 C 4.066406 -72.710938 5.207031 -73.148438 6.601562 -73.148438 L 43.414062 -73.148438 C 44.808594 -73.148438 45.945312 -72.710938 46.824219 -71.832031 C 47.703125 -70.953125 48.140625 -69.816406 48.140625 -68.421875 Z M 41.886719 -68.421875 C 41.886719 -68.347656 41.90625 -68.253906 41.949219 -68.132812 C 42.035156 -67.867188 42.1875 -67.625 42.402344 -67.410156 C 42.617188 -67.195312 42.859375 -67.042969 43.125 -66.957031 C 43.246094 -66.914062 43.339844 -66.894531 43.414062 -66.894531 L 6.601562 -66.894531 C 6.671875 -66.894531 6.769531 -66.914062 6.890625 -66.957031 C 7.15625 -67.042969 7.398438 -67.195312 7.613281 -67.410156 C 7.828125 -67.625 7.980469 -67.867188 8.066406 -68.132812 C 8.109375 -68.253906 8.128906 -68.347656 8.128906 -68.421875 L 8.128906 -1.601562 C 8.128906 -1.671875 8.109375 -1.769531 8.066406 -1.890625 C 7.980469 -2.15625 7.828125 -2.394531 7.613281 -2.609375 C 7.398438 -2.824219 7.15625 -2.976562 6.890625 -3.066406 C 6.769531 -3.105469 6.671875 -3.125 6.601562 -3.125 L 17.003906 -3.125 C 16.933594 -3.125 16.835938 -3.105469 16.714844 -3.066406 C 16.449219 -2.976562 16.210938 -2.824219 15.996094 -2.609375 C 15.78125 -2.394531 15.628906 -2.15625 15.539062 -1.890625 C 15.5 -1.769531 15.480469 -1.671875 15.480469 -1.601562 L 15.480469 -29.632812 L 37.410156 -29.632812 C 37.339844 -29.632812 37.242188 -29.613281 37.121094 -29.574219 C 36.855469 -29.484375 36.617188 -29.332031 36.402344 -29.117188 C 36.1875 -28.90625 36.035156 -28.664062 35.945312 -28.398438 C 35.90625 -28.277344 35.886719 -28.179688 35.886719 -28.109375 L 35.886719 -38.113281 C 35.886719 -38.039062 35.90625 -37.945312 35.945312 -37.824219 C 36.035156 -37.554688 36.1875 -37.316406 36.402344 -37.101562 C 36.617188 -36.886719 36.855469 -36.734375 37.121094 -36.644531 C 37.242188 -36.605469 37.339844 -36.585938 37.410156 -36.585938 L 15.480469 -36.585938 L 15.480469 -59.945312 L 43.414062 -59.945312 C 43.339844 -59.945312 43.246094 -59.921875 43.125 -59.882812 C 42.859375 -59.792969 42.617188 -59.640625 42.402344 -59.429688 C 42.1875 -59.214844 42.035156 -58.972656 41.949219 -58.707031 C 41.90625 -58.585938 41.886719 -58.488281 41.886719 -58.417969 Z M 41.886719 -68.421875 "/></g></g></g><g fill="#b21a22" fill-opacity="1"><g transform="translate(52.171807, 240.213635)"><g><path d="M 48.039062 -68.421875 L 48.039062 -58.417969 C 48.039062 -57.023438 47.625 -55.886719 46.789062 -55 C 45.90625 -54.058594 44.746094 -53.589844 43.3125 -53.589844 L 18.605469 -53.589844 L 18.605469 -56.71875 L 21.730469 -56.71875 L 21.730469 -41.3125 L 18.605469 -41.3125 L 18.605469 -44.4375 L 37.410156 -44.4375 C 38.84375 -44.4375 40.003906 -43.96875 40.886719 -43.03125 C 41.722656 -42.144531 42.136719 -41.003906 42.136719 -39.613281 L 42.136719 -29.710938 C 42.136719 -28.316406 41.722656 -27.175781 40.886719 -26.289062 C 40.003906 -25.351562 38.84375 -24.882812 37.410156 -24.882812 L 18.605469 -24.882812 L 18.605469 -28.007812 L 21.730469 -28.007812 L 21.730469 -13.203125 L 18.605469 -13.203125 L 18.605469 -16.332031 L 43.3125 -16.332031 C 44.710938 -16.332031 45.847656 -15.890625 46.722656 -15.015625 C 47.601562 -14.136719 48.039062 -13 48.039062 -11.605469 L 48.039062 -1.601562 C 48.039062 -0.203125 47.601562 0.933594 46.722656 1.8125 C 45.847656 2.6875 44.710938 3.125 43.3125 3.125 L 6.503906 3.125 C 5.097656 3.125 3.964844 2.664062 3.097656 1.738281 C 2.28125 0.871094 1.875 -0.242188 1.875 -1.601562 L 1.875 -68.421875 C 1.875 -69.777344 2.28125 -70.890625 3.097656 -71.757812 C 3.964844 -72.683594 5.097656 -73.148438 6.503906 -73.148438 L 43.3125 -73.148438 C 44.710938 -73.148438 45.847656 -72.710938 46.722656 -71.832031 C 47.601562 -70.953125 48.039062 -69.816406 48.039062 -68.421875 Z M 41.789062 -68.421875 C 41.789062 -68.347656 41.808594 -68.253906 41.847656 -68.132812 C 41.9375 -67.867188 42.089844 -67.625 42.304688 -67.410156 C 42.515625 -67.195312 42.757812 -67.042969 43.023438 -66.957031 C 43.144531 -66.914062 43.242188 -66.894531 43.3125 -66.894531 L 6.503906 -66.894531 C 6.90625 -66.894531 7.289062 -67.089844 7.65625 -67.484375 C 7.859375 -67.699219 8 -67.933594 8.078125 -68.1875 C 8.113281 -68.292969 8.128906 -68.371094 8.128906 -68.421875 L 8.128906 -1.601562 C 8.128906 -1.652344 8.113281 -1.730469 8.078125 -1.832031 C 8 -2.089844 7.859375 -2.324219 7.65625 -2.539062 C 7.289062 -2.929688 6.90625 -3.125 6.503906 -3.125 L 43.3125 -3.125 C 43.242188 -3.125 43.144531 -3.105469 43.023438 -3.066406 C 42.757812 -2.976562 42.515625 -2.824219 42.304688 -2.609375 C 42.089844 -2.394531 41.9375 -2.15625 41.847656 -1.890625 C 41.808594 -1.769531 41.789062 -1.671875 41.789062 -1.601562 L 41.789062 -11.605469 C 41.789062 -11.53125 41.808594 -11.4375 41.847656 -11.316406 C 41.9375 -11.046875 42.089844 -10.808594 42.304688 -10.59375 C 42.515625 -10.378906 42.757812 -10.226562 43.023438 -10.136719 C 43.144531 -10.097656 43.242188 -10.078125 43.3125 -10.078125 L 15.480469 -10.078125 L 15.480469 -31.136719 L 37.410156 -31.136719 C 37.320312 -31.136719 37.207031 -31.109375 37.066406 -31.0625 C 36.792969 -30.964844 36.546875 -30.800781 36.335938 -30.578125 C 36.140625 -30.371094 36.003906 -30.144531 35.929688 -29.902344 C 35.898438 -29.808594 35.886719 -29.746094 35.886719 -29.710938 L 35.886719 -39.613281 C 35.886719 -39.574219 35.898438 -39.511719 35.929688 -39.421875 C 36.003906 -39.175781 36.140625 -38.953125 36.335938 -38.746094 C 36.546875 -38.519531 36.792969 -38.355469 37.066406 -38.257812 C 37.207031 -38.210938 37.320312 -38.1875 37.410156 -38.1875 L 15.480469 -38.1875 L 15.480469 -59.84375 L 43.3125 -59.84375 C 43.222656 -59.84375 43.105469 -59.820312 42.96875 -59.769531 C 42.695312 -59.671875 42.449219 -59.511719 42.238281 -59.285156 C 42.042969 -59.078125 41.90625 -58.851562 41.832031 -58.609375 C 41.800781 -58.515625 41.789062 -58.453125 41.789062 -58.417969 Z M 41.789062 -68.421875 "/></g></g></g><g fill="#b21a22" fill-opacity="1"><g transform="translate(102.085146, 240.213635)"><g><path d="M 36.710938 -73.148438 L 46.113281 -73.148438 C 47.511719 -73.148438 48.648438 -72.710938 49.523438 -71.832031 C 50.402344 -70.953125 50.839844 -69.816406 50.839844 -68.421875 L 50.839844 -1.601562 C 50.839844 -0.203125 50.402344 0.933594 49.523438 1.8125 C 48.648438 2.6875 47.511719 3.125 46.113281 3.125 L 38.210938 3.125 C 37.136719 3.125 36.175781 2.820312 35.332031 2.210938 C 34.585938 1.671875 34 0.9375 33.574219 0.0078125 L 36.410156 -1.300781 L 33.605469 0.0820312 L 14.800781 -38.132812 L 17.605469 -39.511719 L 20.730469 -39.511719 L 20.730469 -1.601562 C 20.730469 -0.203125 20.292969 0.933594 19.414062 1.8125 C 18.539062 2.6875 17.402344 3.125 16.003906 3.125 L 6.601562 3.125 C 5.207031 3.125 4.066406 2.6875 3.191406 1.8125 C 2.3125 0.933594 1.875 -0.203125 1.875 -1.601562 L 1.875 -68.421875 C 1.875 -69.816406 2.3125 -70.953125 3.191406 -71.832031 C 4.066406 -72.710938 5.207031 -73.148438 6.601562 -73.148438 L 14.503906 -73.148438 C 15.578125 -73.148438 16.539062 -72.84375 17.386719 -72.230469 C 18.128906 -71.695312 18.714844 -70.960938 19.144531 -70.03125 L 16.304688 -68.722656 L 19.109375 -70.101562 L 37.914062 -31.890625 L 35.109375 -30.507812 L 31.984375 -30.507812 L 31.984375 -68.421875 C 31.984375 -69.816406 32.421875 -70.953125 33.300781 -71.832031 C 34.175781 -72.710938 35.3125 -73.148438 36.710938 -73.148438 Z M 36.710938 -66.894531 C 36.78125 -66.894531 36.878906 -66.914062 37 -66.957031 C 37.265625 -67.042969 37.507812 -67.195312 37.722656 -67.410156 C 37.9375 -67.625 38.085938 -67.867188 38.175781 -68.132812 C 38.21875 -68.253906 38.238281 -68.347656 38.238281 -68.421875 L 38.238281 -30.507812 L 32.304688 -29.128906 L 13.484375 -67.375 L 13.464844 -67.410156 C 13.496094 -67.347656 13.582031 -67.265625 13.722656 -67.160156 C 13.96875 -66.984375 14.230469 -66.894531 14.503906 -66.894531 L 6.601562 -66.894531 C 6.671875 -66.894531 6.769531 -66.914062 6.890625 -66.957031 C 7.15625 -67.042969 7.398438 -67.195312 7.613281 -67.410156 C 7.828125 -67.625 7.980469 -67.867188 8.066406 -68.132812 C 8.109375 -68.253906 8.128906 -68.347656 8.128906 -68.421875 L 8.128906 -1.601562 C 8.128906 -1.671875 8.109375 -1.769531 8.066406 -1.890625 C 7.980469 -2.15625 7.828125 -2.394531 7.613281 -2.609375 C 7.398438 -2.824219 7.15625 -2.976562 6.890625 -3.066406 C 6.769531 -3.105469 6.671875 -3.125 6.601562 -3.125 L 16.003906 -3.125 C 15.933594 -3.125 15.835938 -3.105469 15.714844 -3.066406 C 15.449219 -2.976562 15.210938 -2.824219 14.996094 -2.609375 C 14.78125 -2.394531 14.628906 -2.15625 14.539062 -1.890625 C 14.5 -1.769531 14.480469 -1.671875 14.480469 -1.601562 L 14.480469 -39.511719 L 20.410156 -40.890625 L 39.234375 -2.644531 L 39.25 -2.609375 C 39.21875 -2.671875 39.132812 -2.757812 38.992188 -2.859375 C 38.746094 -3.039062 38.484375 -3.125 38.210938 -3.125 L 46.113281 -3.125 C 46.042969 -3.125 45.945312 -3.105469 45.824219 -3.066406 C 45.558594 -2.976562 45.316406 -2.824219 45.105469 -2.609375 C 44.890625 -2.394531 44.738281 -2.15625 44.648438 -1.890625 C 44.609375 -1.769531 44.589844 -1.671875 44.589844 -1.601562 L 44.589844 -68.421875 C 44.589844 -68.347656 44.609375 -68.253906 44.648438 -68.132812 C 44.738281 -67.867188 44.890625 -67.625 45.105469 -67.410156 C 45.316406 -67.195312 45.558594 -67.042969 45.824219 -66.957031 C 45.945312 -66.914062 46.042969 -66.894531 46.113281 -66.894531 Z M 36.710938 -66.894531 "/></g></g></g><g fill="#b21a22" fill-opacity="1"><g transform="translate(154.799235, 240.213635)"><g><path d="M 48.238281 -55.617188 L 48.238281 -44.8125 C 48.238281 -43.417969 47.800781 -42.28125 46.925781 -41.402344 C 46.046875 -40.523438 44.910156 -40.085938 43.511719 -40.085938 L 34.109375 -40.085938 C 32.714844 -40.085938 31.578125 -40.523438 30.699219 -41.402344 C 29.820312 -42.28125 29.382812 -43.417969 29.382812 -44.8125 L 29.382812 -53.015625 C 29.382812 -53.34375 29.355469 -53.597656 29.292969 -53.777344 C 29.28125 -53.8125 29.273438 -53.832031 29.265625 -53.847656 C 29.273438 -53.835938 29.285156 -53.820312 29.300781 -53.804688 C 29.3125 -53.792969 29.328125 -53.78125 29.339844 -53.773438 C 29.324219 -53.78125 29.304688 -53.789062 29.269531 -53.800781 C 29.089844 -53.859375 28.835938 -53.890625 28.507812 -53.890625 L 22.105469 -53.890625 C 21.777344 -53.890625 21.523438 -53.859375 21.34375 -53.800781 C 21.3125 -53.789062 21.289062 -53.78125 21.277344 -53.773438 C 21.289062 -53.78125 21.300781 -53.792969 21.316406 -53.804688 C 21.332031 -53.820312 21.34375 -53.835938 21.347656 -53.847656 C 21.339844 -53.832031 21.332031 -53.8125 21.320312 -53.777344 C 21.261719 -53.597656 21.230469 -53.34375 21.230469 -53.015625 L 21.230469 -16.703125 C 21.230469 -16.375 21.261719 -16.121094 21.320312 -15.941406 C 21.332031 -15.910156 21.339844 -15.886719 21.347656 -15.875 C 21.34375 -15.886719 21.332031 -15.898438 21.316406 -15.914062 C 21.300781 -15.929688 21.289062 -15.941406 21.277344 -15.949219 C 21.289062 -15.941406 21.3125 -15.929688 21.34375 -15.917969 C 21.523438 -15.859375 21.777344 -15.832031 22.105469 -15.832031 L 28.507812 -15.832031 C 28.835938 -15.832031 29.089844 -15.859375 29.269531 -15.917969 C 29.304688 -15.929688 29.324219 -15.941406 29.339844 -15.949219 C 29.328125 -15.941406 29.3125 -15.929688 29.300781 -15.914062 C 29.285156 -15.898438 29.273438 -15.886719 29.265625 -15.875 C 29.273438 -15.886719 29.28125 -15.910156 29.292969 -15.941406 C 29.355469 -16.121094 29.382812 -16.375 29.382812 -16.703125 L 29.382812 -25.207031 C 29.382812 -26.605469 29.820312 -27.742188 30.699219 -28.617188 C 31.578125 -29.496094 32.714844 -29.933594 34.109375 -29.933594 L 43.511719 -29.933594 C 44.910156 -29.933594 46.046875 -29.496094 46.925781 -28.617188 C 47.800781 -27.742188 48.238281 -26.605469 48.238281 -25.207031 L 48.238281 -14.40625 C 48.238281 -8.871094 46.699219 -4.566406 43.625 -1.492188 C 40.546875 1.585938 36.242188 3.125 30.710938 3.125 L 19.507812 3.125 C 13.984375 3.125 9.667969 1.59375 6.558594 -1.476562 C 3.4375 -4.554688 1.875 -8.863281 1.875 -14.40625 L 1.875 -55.617188 C 1.875 -61.230469 3.441406 -65.5625 6.570312 -68.609375 C 9.679688 -71.636719 13.992188 -73.148438 19.507812 -73.148438 L 30.710938 -73.148438 C 36.234375 -73.148438 40.53125 -71.628906 43.609375 -68.597656 C 46.695312 -65.550781 48.238281 -61.222656 48.238281 -55.617188 Z M 41.988281 -55.617188 C 41.988281 -59.480469 41.0625 -62.324219 39.21875 -64.144531 C 37.359375 -65.976562 34.523438 -66.894531 30.710938 -66.894531 L 19.507812 -66.894531 C 15.683594 -66.894531 12.828125 -65.972656 10.933594 -64.128906 C 9.0625 -62.308594 8.128906 -59.472656 8.128906 -55.617188 L 8.128906 -14.40625 C 8.128906 -10.609375 9.066406 -7.78125 10.949219 -5.925781 C 12.839844 -4.058594 15.691406 -3.125 19.507812 -3.125 L 30.710938 -3.125 C 34.515625 -3.125 37.34375 -4.054688 39.203125 -5.910156 C 41.058594 -7.769531 41.988281 -10.601562 41.988281 -14.40625 L 41.988281 -25.207031 C 41.988281 -25.136719 42.007812 -25.039062 42.046875 -24.917969 C 42.136719 -24.652344 42.289062 -24.410156 42.503906 -24.199219 C 42.71875 -23.984375 42.957031 -23.832031 43.226562 -23.742188 C 43.34375 -23.703125 43.441406 -23.683594 43.511719 -23.683594 L 34.109375 -23.683594 C 34.183594 -23.683594 34.277344 -23.703125 34.398438 -23.742188 C 34.664062 -23.832031 34.90625 -23.984375 35.121094 -24.199219 C 35.335938 -24.410156 35.488281 -24.652344 35.574219 -24.917969 C 35.617188 -25.039062 35.636719 -25.136719 35.636719 -25.207031 L 35.636719 -16.703125 C 35.636719 -14.507812 34.996094 -12.769531 33.71875 -11.492188 C 32.441406 -10.214844 30.707031 -9.578125 28.507812 -9.578125 L 22.105469 -9.578125 C 19.910156 -9.578125 18.171875 -10.214844 16.894531 -11.492188 C 15.617188 -12.769531 14.980469 -14.507812 14.980469 -16.703125 L 14.980469 -53.015625 C 14.980469 -55.214844 15.617188 -56.949219 16.894531 -58.226562 C 18.171875 -59.503906 19.910156 -60.144531 22.105469 -60.144531 L 28.507812 -60.144531 C 30.707031 -60.144531 32.441406 -59.503906 33.71875 -58.226562 C 34.996094 -56.949219 35.636719 -55.214844 35.636719 -53.015625 L 35.636719 -44.8125 C 35.636719 -44.886719 35.617188 -44.980469 35.574219 -45.101562 C 35.488281 -45.367188 35.335938 -45.609375 35.121094 -45.824219 C 34.90625 -46.039062 34.664062 -46.191406 34.398438 -46.277344 C 34.277344 -46.320312 34.183594 -46.339844 34.109375 -46.339844 L 43.511719 -46.339844 C 43.441406 -46.339844 43.34375 -46.320312 43.226562 -46.277344 C 42.957031 -46.191406 42.71875 -46.039062 42.503906 -45.824219 C 42.289062 -45.609375 42.136719 -45.367188 42.046875 -45.101562 C 42.007812 -44.980469 41.988281 -44.886719 41.988281 -44.8125 Z M 41.988281 -55.617188 "/></g></g></g><g fill="#b21a22" fill-opacity="1"><g transform="translate(204.912623, 240.213635)"><g><path d="M 48.039062 -68.421875 L 48.039062 -58.417969 C 48.039062 -57.023438 47.625 -55.886719 46.789062 -55 C 45.90625 -54.058594 44.746094 -53.589844 43.3125 -53.589844 L 18.605469 -53.589844 L 18.605469 -56.71875 L 21.730469 -56.71875 L 21.730469 -41.3125 L 18.605469 -41.3125 L 18.605469 -44.4375 L 37.410156 -44.4375 C 38.84375 -44.4375 40.003906 -43.96875 40.886719 -43.03125 C 41.722656 -42.144531 42.136719 -41.003906 42.136719 -39.613281 L 42.136719 -29.710938 C 42.136719 -28.316406 41.722656 -27.175781 40.886719 -26.289062 C 40.003906 -25.351562 38.84375 -24.882812 37.410156 -24.882812 L 18.605469 -24.882812 L 18.605469 -28.007812 L 21.730469 -28.007812 L 21.730469 -13.203125 L 18.605469 -13.203125 L 18.605469 -16.332031 L 43.3125 -16.332031 C 44.710938 -16.332031 45.847656 -15.890625 46.722656 -15.015625 C 47.601562 -14.136719 48.039062 -13 48.039062 -11.605469 L 48.039062 -1.601562 C 48.039062 -0.203125 47.601562 0.933594 46.722656 1.8125 C 45.847656 2.6875 44.710938 3.125 43.3125 3.125 L 6.503906 3.125 C 5.097656 3.125 3.964844 2.664062 3.097656 1.738281 C 2.28125 0.871094 1.875 -0.242188 1.875 -1.601562 L 1.875 -68.421875 C 1.875 -69.777344 2.28125 -70.890625 3.097656 -71.757812 C 3.964844 -72.683594 5.097656 -73.148438 6.503906 -73.148438 L 43.3125 -73.148438 C 44.710938 -73.148438 45.847656 -72.710938 46.722656 -71.832031 C 47.601562 -70.953125 48.039062 -69.816406 48.039062 -68.421875 Z M 41.789062 -68.421875 C 41.789062 -68.347656 41.808594 -68.253906 41.847656 -68.132812 C 41.9375 -67.867188 42.089844 -67.625 42.304688 -67.410156 C 42.515625 -67.195312 42.757812 -67.042969 43.023438 -66.957031 C 43.144531 -66.914062 43.242188 -66.894531 43.3125 -66.894531 L 6.503906 -66.894531 C 6.90625 -66.894531 7.289062 -67.089844 7.65625 -67.484375 C 7.859375 -67.699219 8 -67.933594 8.078125 -68.1875 C 8.113281 -68.292969 8.128906 -68.371094 8.128906 -68.421875 L 8.128906 -1.601562 C 8.128906 -1.652344 8.113281 -1.730469 8.078125 -1.832031 C 8 -2.089844 7.859375 -2.324219 7.65625 -2.539062 C 7.289062 -2.929688 6.90625 -3.125 6.503906 -3.125 L 43.3125 -3.125 C 43.242188 -3.125 43.144531 -3.105469 43.023438 -3.066406 C 42.757812 -2.976562 42.515625 -2.824219 42.304688 -2.609375 C 42.089844 -2.394531 41.9375 -2.15625 41.847656 -1.890625 C 41.808594 -1.769531 41.789062 -1.671875 41.789062 -1.601562 L 41.789062 -11.605469 C 41.789062 -11.53125 41.808594 -11.4375 41.847656 -11.316406 C 41.9375 -11.046875 42.089844 -10.808594 42.304688 -10.59375 C 42.515625 -10.378906 42.757812 -10.226562 43.023438 -10.136719 C 43.144531 -10.097656 43.242188 -10.078125 43.3125 -10.078125 L 15.480469 -10.078125 L 15.480469 -31.136719 L 37.410156 -31.136719 C 37.320312 -31.136719 37.207031 -31.109375 37.066406 -31.0625 C 36.792969 -30.964844 36.546875 -30.800781 36.335938 -30.578125 C 36.140625 -30.371094 36.003906 -30.144531 35.929688 -29.902344 C 35.898438 -29.808594 35.886719 -29.746094 35.886719 -29.710938 L 35.886719 -39.613281 C 35.886719 -39.574219 35.898438 -39.511719 35.929688 -39.421875 C 36.003906 -39.175781 36.140625 -38.953125 36.335938 -38.746094 C 36.546875 -38.519531 36.792969 -38.355469 37.066406 -38.257812 C 37.207031 -38.210938 37.320312 -38.1875 37.410156 -38.1875 L 15.480469 -38.1875 L 15.480469 -59.84375 L 43.3125 -59.84375 C 43.222656 -59.84375 43.105469 -59.820312 42.96875 -59.769531 C 42.695312 -59.671875 42.449219 -59.511719 42.238281 -59.285156 C 42.042969 -59.078125 41.90625 -58.851562 41.832031 -58.609375 C 41.800781 -58.515625 41.789062 -58.453125 41.789062 -58.417969 Z M 41.789062 -68.421875 "/></g></g></g><g fill="#060705" fill-opacity="1"><g transform="translate(8.910053, 101.225304)"><g><path d="M 39.8125 -70.015625 L 49.8125 -70.015625 C 50.550781 -70.015625 51.085938 -69.796875 51.421875 -69.359375 C 51.753906 -68.929688 51.753906 -68.382812 51.421875 -67.71875 L 33.109375 -26.203125 L 33.109375 -2 C 33.109375 -0.664062 32.441406 0 31.109375 0 L 21.5 0 C 20.164062 0 19.5 -0.664062 19.5 -2 L 19.5 -26.203125 L 1.203125 -67.71875 C 0.929688 -68.382812 0.945312 -68.929688 1.25 -69.359375 C 1.550781 -69.796875 2.066406 -70.015625 2.796875 -70.015625 L 12.796875 -70.015625 C 13.929688 -70.015625 14.703125 -69.484375 15.109375 -68.421875 L 26.3125 -42.71875 L 37.515625 -68.421875 C 37.910156 -69.484375 38.675781 -70.015625 39.8125 -70.015625 Z M 39.8125 -70.015625 "/></g></g></g><g fill="#060705" fill-opacity="1"><g transform="translate(61.524107, 101.225304)"><g><path d="M 52.21875 0 L 42.515625 0 C 41.648438 0 41.113281 -0.46875 40.90625 -1.40625 L 37.71875 -14 L 18.90625 -14 L 15.8125 -1.40625 C 15.601562 -0.46875 15.066406 0 14.203125 0 L 4.40625 0 C 3.195312 0 2.757812 -0.566406 3.09375 -1.703125 L 19.703125 -68.625 C 19.898438 -69.550781 20.46875 -70.015625 21.40625 -70.015625 L 35.3125 -70.015625 C 36.25 -70.015625 36.816406 -69.550781 37.015625 -68.625 L 53.609375 -1.703125 C 53.941406 -0.566406 53.476562 0 52.21875 0 Z M 34.609375 -25.609375 L 28.3125 -52.8125 L 22 -25.609375 Z M 34.609375 -25.609375 "/></g></g></g><g fill="#060705" fill-opacity="1"><g transform="translate(118.239252, 101.225304)"><g><path d="M 45.015625 -55.625 L 45.015625 -35.515625 C 45.015625 -29.710938 43.144531 -25.644531 39.40625 -23.3125 L 44.609375 -1.796875 C 44.941406 -0.597656 44.476562 0 43.21875 0 L 33.40625 0 C 32.476562 0 31.910156 -0.46875 31.703125 -1.40625 L 26.90625 -21.109375 L 18 -21.109375 L 18 -1.59375 C 18 -0.53125 17.46875 0 16.40625 0 L 6.609375 0 C 5.535156 0 5 -0.53125 5 -1.59375 L 5 -68.421875 C 5 -69.484375 5.535156 -70.015625 6.609375 -70.015625 L 30.609375 -70.015625 C 35.347656 -70.015625 38.929688 -68.796875 41.359375 -66.359375 C 43.796875 -63.929688 45.015625 -60.351562 45.015625 -55.625 Z M 18 -34.015625 L 28.015625 -34.015625 C 30.679688 -34.015625 32.015625 -35.347656 32.015625 -38.015625 L 32.015625 -53.109375 C 32.015625 -55.785156 30.679688 -57.125 28.015625 -57.125 L 18 -57.125 Z M 18 -34.015625 "/></g></g></g><g fill="#060705" fill-opacity="1"><g transform="translate(168.252605, 101.225304)"><g><path d="M 5 -1.59375 L 5 -68.421875 C 5 -69.484375 5.535156 -70.015625 6.609375 -70.015625 L 30.609375 -70.015625 C 35.347656 -70.015625 38.929688 -68.78125 41.359375 -66.3125 C 43.796875 -63.851562 45.015625 -60.253906 45.015625 -55.515625 L 45.015625 -14.40625 C 45.015625 -9.738281 43.796875 -6.171875 41.359375 -3.703125 C 38.929688 -1.234375 35.347656 0 30.609375 0 L 6.609375 0 C 5.535156 0 5 -0.53125 5 -1.59375 Z M 18.609375 -13.203125 L 27.8125 -13.203125 C 30.476562 -13.203125 31.8125 -14.535156 31.8125 -17.203125 L 31.8125 -52.71875 C 31.8125 -55.445312 30.476562 -56.8125 27.8125 -56.8125 L 18.609375 -56.8125 Z M 18.609375 -13.203125 "/></g></g></g><g fill="#060705" fill-opacity="1"><g transform="translate(218.265958, 101.225304)"><g><path d="M 5 -31.40625 L 5 -40.609375 C 5 -41.941406 5.664062 -42.609375 7 -42.609375 L 22.8125 -42.609375 C 24.144531 -42.609375 24.8125 -41.941406 24.8125 -40.609375 L 24.8125 -31.40625 C 24.8125 -30.070312 24.144531 -29.40625 22.8125 -29.40625 L 7 -29.40625 C 5.664062 -29.40625 5 -30.070312 5 -31.40625 Z M 5 -31.40625 "/></g></g></g><g fill="#060705" fill-opacity="1"><g transform="translate(2.158454, 240.213635)"><g><path d="M 45.015625 -68.421875 L 45.015625 -58.421875 C 45.015625 -57.347656 44.476562 -56.8125 43.40625 -56.8125 L 18.609375 -56.8125 L 18.609375 -39.71875 L 37.40625 -39.71875 C 38.476562 -39.71875 39.015625 -39.179688 39.015625 -38.109375 L 39.015625 -28.109375 C 39.015625 -27.046875 38.476562 -26.515625 37.40625 -26.515625 L 18.609375 -26.515625 L 18.609375 -1.59375 C 18.609375 -0.53125 18.070312 0 17 0 L 6.609375 0 C 5.535156 0 5 -0.53125 5 -1.59375 L 5 -68.421875 C 5 -69.484375 5.535156 -70.015625 6.609375 -70.015625 L 43.40625 -70.015625 C 44.476562 -70.015625 45.015625 -69.484375 45.015625 -68.421875 Z M 45.015625 -68.421875 "/></g></g></g><g fill="#060705" fill-opacity="1"><g transform="translate(52.171807, 240.213635)"><g><path d="M 44.90625 -68.421875 L 44.90625 -58.421875 C 44.90625 -57.285156 44.375 -56.71875 43.3125 -56.71875 L 18.609375 -56.71875 L 18.609375 -41.3125 L 37.40625 -41.3125 C 38.476562 -41.3125 39.015625 -40.742188 39.015625 -39.609375 L 39.015625 -29.703125 C 39.015625 -28.578125 38.476562 -28.015625 37.40625 -28.015625 L 18.609375 -28.015625 L 18.609375 -13.203125 L 43.3125 -13.203125 C 44.375 -13.203125 44.90625 -12.671875 44.90625 -11.609375 L 44.90625 -1.59375 C 44.90625 -0.53125 44.375 0 43.3125 0 L 6.5 0 C 5.5 0 5 -0.53125 5 -1.59375 L 5 -68.421875 C 5 -69.484375 5.5 -70.015625 6.5 -70.015625 L 43.3125 -70.015625 C 44.375 -70.015625 44.90625 -69.484375 44.90625 -68.421875 Z M 44.90625 -68.421875 "/></g></g></g><g fill="#060705" fill-opacity="1"><g transform="translate(102.085146, 240.213635)"><g><path d="M 36.71875 -70.015625 L 46.109375 -70.015625 C 47.179688 -70.015625 47.71875 -69.484375 47.71875 -68.421875 L 47.71875 -1.59375 C 47.71875 -0.53125 47.179688 0 46.109375 0 L 38.21875 0 C 37.414062 0 36.8125 -0.429688 36.40625 -1.296875 L 17.609375 -39.515625 L 17.609375 -1.59375 C 17.609375 -0.53125 17.070312 0 16 0 L 6.609375 0 C 5.535156 0 5 -0.53125 5 -1.59375 L 5 -68.421875 C 5 -69.484375 5.535156 -70.015625 6.609375 -70.015625 L 14.5 -70.015625 C 15.300781 -70.015625 15.90625 -69.582031 16.3125 -68.71875 L 35.109375 -30.515625 L 35.109375 -68.421875 C 35.109375 -69.484375 35.644531 -70.015625 36.71875 -70.015625 Z M 36.71875 -70.015625 "/></g></g></g><g fill="#060705" fill-opacity="1"><g transform="translate(154.799235, 240.213635)"><g><path d="M 45.109375 -55.625 L 45.109375 -44.8125 C 45.109375 -43.75 44.578125 -43.21875 43.515625 -43.21875 L 34.109375 -43.21875 C 33.046875 -43.21875 32.515625 -43.75 32.515625 -44.8125 L 32.515625 -53.015625 C 32.515625 -55.679688 31.179688 -57.015625 28.515625 -57.015625 L 22.109375 -57.015625 C 19.441406 -57.015625 18.109375 -55.679688 18.109375 -53.015625 L 18.109375 -16.703125 C 18.109375 -14.035156 19.441406 -12.703125 22.109375 -12.703125 L 28.515625 -12.703125 C 31.179688 -12.703125 32.515625 -14.035156 32.515625 -16.703125 L 32.515625 -25.203125 C 32.515625 -26.273438 33.046875 -26.8125 34.109375 -26.8125 L 43.515625 -26.8125 C 44.578125 -26.8125 45.109375 -26.273438 45.109375 -25.203125 L 45.109375 -14.40625 C 45.109375 -9.738281 43.875 -6.171875 41.40625 -3.703125 C 38.945312 -1.234375 35.378906 0 30.703125 0 L 19.5 0 C 14.832031 0 11.25 -1.234375 8.75 -3.703125 C 6.25 -6.171875 5 -9.738281 5 -14.40625 L 5 -55.625 C 5 -60.351562 6.25 -63.929688 8.75 -66.359375 C 11.25 -68.796875 14.832031 -70.015625 19.5 -70.015625 L 30.703125 -70.015625 C 35.378906 -70.015625 38.945312 -68.796875 41.40625 -66.359375 C 43.875 -63.929688 45.109375 -60.351562 45.109375 -55.625 Z M 45.109375 -55.625 "/></g></g></g><g fill="#060705" fill-opacity="1"><g transform="translate(204.912623, 240.213635)"><g><path d="M 44.90625 -68.421875 L 44.90625 -58.421875 C 44.90625 -57.285156 44.375 -56.71875 43.3125 -56.71875 L 18.609375 -56.71875 L 18.609375 -41.3125 L 37.40625 -41.3125 C 38.476562 -41.3125 39.015625 -40.742188 39.015625 -39.609375 L 39.015625 -29.703125 C 39.015625 -28.578125 38.476562 -28.015625 37.40625 -28.015625 L 18.609375 -28.015625 L 18.609375 -13.203125 L 43.3125 -13.203125 C 44.375 -13.203125 44.90625 -12.671875 44.90625 -11.609375 L 44.90625 -1.59375 C 44.90625 -0.53125 44.375 0 43.3125 0 L 6.5 0 C 5.5 0 5 -0.53125 5 -1.59375 L 5 -68.421875 C 5 -69.484375 5.5 -70.015625 6.5 -70.015625 L 43.3125 -70.015625 C 44.375 -70.015625 44.90625 -69.484375 44.90625 -68.421875 Z M 44.90625 -68.421875 "/></g></g></g></g></g></svg>