<svg xmlns="http://www.w3.org/2000/svg" xmlns:xlink="http://www.w3.org/1999/xlink" width="192" zoomAndPan="magnify" viewBox="0 0 144 143.999998" height="192" preserveAspectRatio="xMidYMid meet" version="1.2"><defs><clipPath id="9dc6380d4a"><path d="M 9 0 L 135 0 L 135 144 L 9 144 Z M 9 0 "/></clipPath><clipPath id="e7f7d764d7"><path d="M -21.457031 54.867188 L 103.039062 -17.847656 L 165.503906 89.105469 L 41.007812 161.816406 Z M -21.457031 54.867188 "/></clipPath><clipPath id="fbb35f6a41"><path d="M 134.226562 35.65625 L 134.347656 107.300781 L 72.121094 143.644531 L 9.773438 108.34375 L 9.65625 36.695312 L 71.878906 0.351562 Z M 134.226562 35.65625 "/></clipPath><clipPath id="edbf696280"><path d="M 21.210938 13.683594 L 122.773438 13.683594 L 122.773438 130.261719 L 21.210938 130.261719 Z M 21.210938 13.683594 "/></clipPath></defs><g id="5c2fdd0b21"><g clip-rule="nonzero" clip-path="url(#9dc6380d4a)"><g clip-rule="nonzero" clip-path="url(#e7f7d764d7)"><g clip-rule="nonzero" clip-path="url(#fbb35f6a41)"><path style=" stroke:none;fill-rule:nonzero;fill:#65b30e;fill-opacity:1;" d="M -21.457031 54.867188 L 103.039062 -17.847656 L 165.503906 89.105469 L 41.007812 161.816406 Z M -21.457031 54.867188 "/></g></g></g><path style=" stroke:none;fill-rule:nonzero;fill:#87ff00;fill-opacity:1;" d="M 51.679688 52.109375 L 51.613281 52.046875 L 37.261719 66.398438 L 72.113281 101.183594 L 86.46875 86.898438 L 106.960938 66.398438 L 92.609375 52.046875 L 92.609375 51.980469 L 51.617188 51.980469 Z M 51.679688 52.109375 "/><g clip-rule="nonzero" clip-path="url(#edbf696280)"><path style=" stroke:none;fill-rule:nonzero;fill:#87ff00;fill-opacity:1;" d="M 71.980469 13.765625 L 21.222656 42.863281 L 21.226562 101.058594 L 71.984375 130.15625 L 122.742188 101.058594 L 122.742188 42.863281 L 71.984375 13.769531 Z M 113.039062 95.496094 L 71.980469 119.160156 L 30.921875 95.496094 L 30.925781 48.292969 L 71.984375 24.628906 L 113.042969 48.292969 L 113.042969 95.492188 Z M 113.039062 95.496094 "/></g><g style="fill:#b21a22;fill-opacity:1;"><g transform="translate(35.970085, 58.664873)"><path style="stroke:none" d="M 16.039062 -18.492188 L 16.039062 -14.898438 C 16.039062 -14.433594 15.894531 -14.058594 15.601562 -13.765625 C 15.308594 -13.472656 14.933594 -13.328125 14.46875 -13.328125 L 11.339844 -13.328125 C 10.875 -13.328125 10.5 -13.472656 10.207031 -13.765625 C 9.914062 -14.058594 9.769531 -14.433594 9.769531 -14.898438 L 9.769531 -17.628906 C 9.769531 -17.738281 9.757812 -17.820312 9.738281 -17.878906 C 9.734375 -17.890625 9.734375 -17.898438 9.730469 -17.902344 C 9.734375 -17.898438 9.738281 -17.894531 9.742188 -17.890625 C 9.746094 -17.886719 9.75 -17.882812 9.753906 -17.878906 C 9.75 -17.882812 9.742188 -17.882812 9.730469 -17.886719 C 9.671875 -17.90625 9.589844 -17.917969 9.480469 -17.917969 L 7.351562 -17.917969 C 7.242188 -17.917969 7.15625 -17.90625 7.097656 -17.886719 C 7.085938 -17.882812 7.078125 -17.882812 7.074219 -17.878906 C 7.078125 -17.882812 7.082031 -17.886719 7.085938 -17.890625 C 7.09375 -17.894531 7.097656 -17.898438 7.097656 -17.902344 C 7.097656 -17.898438 7.09375 -17.890625 7.089844 -17.878906 C 7.070312 -17.820312 7.058594 -17.738281 7.058594 -17.628906 L 7.058594 -5.554688 C 7.058594 -5.445312 7.070312 -5.359375 7.089844 -5.300781 C 7.09375 -5.289062 7.097656 -5.28125 7.097656 -5.277344 C 7.097656 -5.28125 7.09375 -5.285156 7.085938 -5.292969 C 7.082031 -5.296875 7.078125 -5.300781 7.074219 -5.300781 C 7.078125 -5.300781 7.085938 -5.296875 7.097656 -5.292969 C 7.15625 -5.273438 7.242188 -5.261719 7.351562 -5.261719 L 9.480469 -5.261719 C 9.589844 -5.261719 9.671875 -5.273438 9.730469 -5.292969 C 9.742188 -5.296875 9.75 -5.300781 9.753906 -5.300781 C 9.75 -5.300781 9.746094 -5.296875 9.742188 -5.292969 C 9.738281 -5.285156 9.734375 -5.28125 9.730469 -5.277344 C 9.734375 -5.28125 9.734375 -5.289062 9.738281 -5.300781 C 9.757812 -5.359375 9.769531 -5.445312 9.769531 -5.554688 L 9.769531 -8.382812 C 9.769531 -8.84375 9.914062 -9.222656 10.207031 -9.515625 C 10.5 -9.808594 10.875 -9.953125 11.339844 -9.953125 L 14.46875 -9.953125 C 14.933594 -9.953125 15.308594 -9.808594 15.601562 -9.515625 C 15.894531 -9.222656 16.039062 -8.84375 16.039062 -8.382812 L 16.039062 -4.789062 C 16.039062 -2.949219 15.527344 -1.519531 14.503906 -0.496094 C 13.480469 0.527344 12.050781 1.039062 10.210938 1.039062 L 6.484375 1.039062 C 4.648438 1.039062 3.214844 0.53125 2.179688 -0.492188 C 1.140625 -1.515625 0.625 -2.949219 0.625 -4.789062 L 0.625 -18.492188 C 0.625 -20.359375 1.144531 -21.796875 2.183594 -22.8125 C 3.21875 -23.816406 4.652344 -24.320312 6.484375 -24.320312 L 10.210938 -24.320312 C 12.046875 -24.320312 13.476562 -23.816406 14.5 -22.808594 C 15.527344 -21.792969 16.039062 -20.355469 16.039062 -18.492188 Z M 13.960938 -18.492188 C 13.960938 -19.777344 13.652344 -20.722656 13.039062 -21.328125 C 12.421875 -21.9375 11.476562 -22.242188 10.210938 -22.242188 L 6.484375 -22.242188 C 5.214844 -22.242188 4.265625 -21.933594 3.636719 -21.324219 C 3.011719 -20.71875 2.703125 -19.773438 2.703125 -18.492188 L 2.703125 -4.789062 C 2.703125 -3.527344 3.015625 -2.585938 3.640625 -1.96875 C 4.269531 -1.351562 5.21875 -1.039062 6.484375 -1.039062 L 10.210938 -1.039062 C 11.476562 -1.039062 12.417969 -1.347656 13.035156 -1.964844 C 13.652344 -2.582031 13.960938 -3.523438 13.960938 -4.789062 L 13.960938 -8.382812 C 13.960938 -8.355469 13.96875 -8.324219 13.980469 -8.285156 C 14.011719 -8.195312 14.058594 -8.117188 14.132812 -8.046875 C 14.203125 -7.972656 14.28125 -7.921875 14.371094 -7.894531 C 14.410156 -7.878906 14.445312 -7.875 14.46875 -7.875 L 11.339844 -7.875 C 11.363281 -7.875 11.398438 -7.878906 11.4375 -7.894531 C 11.527344 -7.921875 11.605469 -7.972656 11.675781 -8.046875 C 11.75 -8.117188 11.800781 -8.195312 11.828125 -8.285156 C 11.839844 -8.324219 11.847656 -8.355469 11.847656 -8.382812 L 11.847656 -5.554688 C 11.847656 -4.824219 11.636719 -4.246094 11.210938 -3.820312 C 10.785156 -3.398438 10.210938 -3.183594 9.480469 -3.183594 L 7.351562 -3.183594 C 6.621094 -3.183594 6.042969 -3.398438 5.617188 -3.820312 C 5.191406 -4.246094 4.980469 -4.824219 4.980469 -5.554688 L 4.980469 -17.628906 C 4.980469 -18.359375 5.191406 -18.933594 5.617188 -19.359375 C 6.042969 -19.785156 6.621094 -19.996094 7.351562 -19.996094 L 9.480469 -19.996094 C 10.210938 -19.996094 10.785156 -19.785156 11.210938 -19.359375 C 11.636719 -18.933594 11.847656 -18.359375 11.847656 -17.628906 L 11.847656 -14.898438 C 11.847656 -14.921875 11.839844 -14.957031 11.828125 -14.996094 C 11.800781 -15.085938 11.75 -15.164062 11.675781 -15.234375 C 11.605469 -15.308594 11.527344 -15.359375 11.4375 -15.386719 C 11.398438 -15.402344 11.363281 -15.40625 11.339844 -15.40625 L 14.46875 -15.40625 C 14.445312 -15.40625 14.410156 -15.402344 14.371094 -15.386719 C 14.28125 -15.359375 14.203125 -15.308594 14.132812 -15.234375 C 14.058594 -15.164062 14.011719 -15.085938 13.980469 -14.996094 C 13.96875 -14.957031 13.960938 -14.921875 13.960938 -14.898438 Z M 13.960938 -18.492188 "/></g></g><g style="fill:#b21a22;fill-opacity:1;"><g transform="translate(52.627407, 58.664873)"><path style="stroke:none" d="M 6.453125 -24.320312 L 10.175781 -24.320312 C 12.039062 -24.320312 13.476562 -23.8125 14.488281 -22.800781 C 15.5 -21.789062 16.003906 -20.351562 16.003906 -18.492188 L 16.003906 -16.296875 C 16.003906 -15.832031 15.859375 -15.453125 15.566406 -15.164062 C 15.277344 -14.871094 14.898438 -14.726562 14.433594 -14.726562 L 11.074219 -14.726562 C 10.609375 -14.726562 10.234375 -14.871094 9.941406 -15.164062 C 9.648438 -15.453125 9.503906 -15.832031 9.503906 -16.296875 L 9.503906 -17.695312 C 9.503906 -17.804688 9.492188 -17.886719 9.472656 -17.945312 C 9.46875 -17.957031 9.46875 -17.964844 9.464844 -17.96875 C 9.46875 -17.964844 9.46875 -17.960938 9.476562 -17.957031 C 9.480469 -17.953125 9.484375 -17.949219 9.488281 -17.945312 C 9.484375 -17.949219 9.476562 -17.949219 9.464844 -17.953125 C 9.40625 -17.972656 9.320312 -17.984375 9.210938 -17.984375 L 7.382812 -17.984375 C 7.273438 -17.984375 7.191406 -17.972656 7.128906 -17.953125 C 7.117188 -17.949219 7.113281 -17.949219 7.109375 -17.945312 C 7.113281 -17.949219 7.117188 -17.953125 7.121094 -17.957031 C 7.125 -17.960938 7.128906 -17.964844 7.132812 -17.96875 C 7.128906 -17.964844 7.125 -17.957031 7.121094 -17.945312 C 7.101562 -17.886719 7.09375 -17.804688 7.09375 -17.695312 L 7.09375 -14.867188 L 6.054688 -14.867188 L 6.371094 -15.855469 L 14.421875 -13.261719 C 14.933594 -13.085938 15.328125 -12.800781 15.601562 -12.414062 C 15.871094 -12.027344 16.003906 -11.570312 16.003906 -11.042969 L 16.003906 -4.789062 C 16.003906 -2.953125 15.5 -1.523438 14.492188 -0.5 C 13.480469 0.527344 12.042969 1.039062 10.175781 1.039062 L 6.453125 1.039062 C 4.613281 1.039062 3.183594 0.527344 2.160156 -0.496094 C 1.136719 -1.519531 0.625 -2.949219 0.625 -4.789062 L 0.625 -6.949219 C 0.625 -7.414062 0.769531 -7.792969 1.0625 -8.085938 C 1.351562 -8.375 1.730469 -8.523438 2.195312 -8.523438 L 5.554688 -8.523438 C 6.019531 -8.523438 6.398438 -8.375 6.6875 -8.085938 C 6.980469 -7.792969 7.125 -7.414062 7.125 -6.949219 L 7.125 -5.554688 C 7.125 -5.445312 7.136719 -5.359375 7.15625 -5.300781 C 7.160156 -5.289062 7.164062 -5.28125 7.164062 -5.277344 C 7.164062 -5.28125 7.160156 -5.285156 7.152344 -5.292969 C 7.148438 -5.296875 7.144531 -5.300781 7.140625 -5.300781 C 7.144531 -5.300781 7.152344 -5.296875 7.164062 -5.292969 C 7.222656 -5.273438 7.308594 -5.261719 7.417969 -5.261719 L 9.210938 -5.261719 C 9.320312 -5.261719 9.40625 -5.273438 9.464844 -5.292969 C 9.476562 -5.296875 9.484375 -5.300781 9.488281 -5.300781 C 9.484375 -5.300781 9.480469 -5.296875 9.476562 -5.292969 C 9.46875 -5.285156 9.46875 -5.28125 9.464844 -5.277344 C 9.46875 -5.28125 9.46875 -5.289062 9.472656 -5.300781 C 9.492188 -5.359375 9.503906 -5.445312 9.503906 -5.554688 L 9.503906 -8.914062 L 10.542969 -8.914062 L 10.222656 -7.925781 L 2.238281 -10.519531 C 1.726562 -10.691406 1.328125 -10.96875 1.046875 -11.351562 C 0.765625 -11.738281 0.625 -12.203125 0.625 -12.738281 L 0.625 -18.492188 C 0.625 -20.355469 1.136719 -21.792969 2.164062 -22.808594 C 3.1875 -23.816406 4.617188 -24.320312 6.453125 -24.320312 Z M 6.453125 -22.242188 C 5.183594 -22.242188 4.242188 -21.9375 3.625 -21.328125 C 3.007812 -20.722656 2.703125 -19.777344 2.703125 -18.492188 L 2.703125 -12.738281 C 2.703125 -12.652344 2.710938 -12.601562 2.726562 -12.578125 C 2.746094 -12.550781 2.796875 -12.523438 2.882812 -12.496094 L 11.582031 -9.667969 L 11.582031 -5.554688 C 11.582031 -4.824219 11.371094 -4.246094 10.945312 -3.820312 C 10.519531 -3.398438 9.941406 -3.183594 9.210938 -3.183594 L 7.417969 -3.183594 C 6.6875 -3.183594 6.109375 -3.398438 5.683594 -3.820312 C 5.257812 -4.246094 5.046875 -4.824219 5.046875 -5.554688 L 5.046875 -6.949219 C 5.046875 -6.925781 5.054688 -6.894531 5.066406 -6.855469 C 5.097656 -6.765625 5.148438 -6.6875 5.21875 -6.613281 C 5.289062 -6.542969 5.371094 -6.492188 5.457031 -6.464844 C 5.5 -6.449219 5.53125 -6.445312 5.554688 -6.445312 L 2.195312 -6.445312 C 2.21875 -6.445312 2.25 -6.449219 2.289062 -6.464844 C 2.378906 -6.492188 2.460938 -6.542969 2.53125 -6.613281 C 2.601562 -6.6875 2.652344 -6.765625 2.683594 -6.855469 C 2.695312 -6.894531 2.703125 -6.925781 2.703125 -6.949219 L 2.703125 -4.789062 C 2.703125 -3.523438 3.011719 -2.582031 3.628906 -1.964844 C 4.246094 -1.347656 5.1875 -1.039062 6.453125 -1.039062 L 10.175781 -1.039062 C 11.460938 -1.039062 12.40625 -1.347656 13.011719 -1.960938 C 13.621094 -2.578125 13.925781 -3.519531 13.925781 -4.789062 L 13.925781 -11.042969 C 13.925781 -11.132812 13.917969 -11.191406 13.898438 -11.21875 C 13.882812 -11.238281 13.84375 -11.261719 13.78125 -11.28125 L 5.011719 -14.109375 L 5.011719 -17.695312 C 5.011719 -18.425781 5.226562 -19 5.652344 -19.425781 C 6.074219 -19.851562 6.652344 -20.0625 7.382812 -20.0625 L 9.210938 -20.0625 C 9.941406 -20.0625 10.519531 -19.851562 10.945312 -19.425781 C 11.371094 -19 11.582031 -18.425781 11.582031 -17.695312 L 11.582031 -16.296875 C 11.582031 -16.320312 11.574219 -16.351562 11.5625 -16.394531 C 11.53125 -16.480469 11.480469 -16.5625 11.410156 -16.632812 C 11.339844 -16.703125 11.257812 -16.753906 11.171875 -16.785156 C 11.128906 -16.796875 11.097656 -16.804688 11.074219 -16.804688 L 14.433594 -16.804688 C 14.410156 -16.804688 14.378906 -16.796875 14.339844 -16.785156 C 14.25 -16.753906 14.167969 -16.703125 14.097656 -16.632812 C 14.027344 -16.5625 13.976562 -16.480469 13.945312 -16.394531 C 13.933594 -16.351562 13.925781 -16.320312 13.925781 -16.296875 L 13.925781 -18.492188 C 13.925781 -19.777344 13.625 -20.726562 13.015625 -21.332031 C 12.410156 -21.9375 11.464844 -22.242188 10.175781 -22.242188 Z M 6.453125 -22.242188 "/></g></g><g style="fill:#b21a22;fill-opacity:1;"><g transform="translate(69.251475, 58.664873)"><path style="stroke:none" d="M 12.738281 -24.320312 L 15.765625 -24.320312 C 16.347656 -24.320312 16.792969 -24.132812 17.101562 -23.757812 C 17.414062 -23.371094 17.507812 -22.894531 17.375 -22.320312 L 12.085938 -0.355469 C 11.992188 0.0664062 11.792969 0.402344 11.484375 0.65625 C 11.171875 0.910156 10.789062 1.039062 10.34375 1.039062 L 7.015625 1.039062 C 6.582031 1.039062 6.207031 0.910156 5.894531 0.65625 C 5.601562 0.414062 5.398438 0.0898438 5.285156 -0.320312 L 5.28125 -0.339844 L 0.0195312 -22.308594 C -0.113281 -22.890625 -0.0195312 -23.371094 0.292969 -23.757812 C 0.601562 -24.132812 1.046875 -24.320312 1.628906 -24.320312 L 4.65625 -24.320312 C 5.101562 -24.320312 5.484375 -24.191406 5.796875 -23.9375 C 6.105469 -23.683594 6.304688 -23.339844 6.402344 -22.90625 L 9.695312 -7.871094 L 8.679688 -7.648438 L 7.664062 -7.875 L 10.996094 -22.933594 L 11.003906 -22.960938 C 11.117188 -23.371094 11.320312 -23.695312 11.613281 -23.9375 C 11.925781 -24.191406 12.300781 -24.320312 12.738281 -24.320312 Z M 12.738281 -22.242188 C 12.796875 -22.242188 12.859375 -22.269531 12.929688 -22.328125 C 12.964844 -22.355469 12.992188 -22.382812 13.007812 -22.414062 C 13.011719 -22.417969 13.015625 -22.421875 13.015625 -22.425781 C 13.011719 -22.421875 13.011719 -22.414062 13.007812 -22.402344 L 12.007812 -22.683594 L 13.019531 -22.457031 L 9.695312 -7.425781 L 7.664062 -7.425781 L 4.375 -22.457031 C 4.371094 -22.460938 4.371094 -22.464844 4.371094 -22.464844 C 4.375 -22.457031 4.378906 -22.449219 4.382812 -22.441406 C 4.40625 -22.398438 4.4375 -22.359375 4.480469 -22.328125 C 4.550781 -22.269531 4.609375 -22.242188 4.65625 -22.242188 L 1.628906 -22.242188 C 1.613281 -22.242188 1.605469 -22.242188 1.597656 -22.242188 C 1.609375 -22.242188 1.625 -22.246094 1.644531 -22.253906 C 1.742188 -22.285156 1.828125 -22.347656 1.902344 -22.441406 C 1.980469 -22.535156 2.023438 -22.636719 2.039062 -22.746094 C 2.039062 -22.765625 2.042969 -22.785156 2.039062 -22.800781 C 2.039062 -22.796875 2.042969 -22.796875 2.042969 -22.792969 L 7.296875 -0.839844 L 6.285156 -0.597656 L 7.289062 -0.875 C 7.289062 -0.867188 7.292969 -0.859375 7.292969 -0.855469 C 7.292969 -0.855469 7.292969 -0.859375 7.289062 -0.867188 C 7.269531 -0.898438 7.242188 -0.925781 7.210938 -0.953125 C 7.140625 -1.011719 7.078125 -1.039062 7.015625 -1.039062 L 10.34375 -1.039062 C 10.296875 -1.039062 10.238281 -1.011719 10.167969 -0.953125 C 10.125 -0.921875 10.09375 -0.882812 10.070312 -0.839844 C 10.066406 -0.832031 10.0625 -0.824219 10.058594 -0.816406 C 10.058594 -0.816406 10.0625 -0.824219 10.066406 -0.84375 L 15.351562 -22.78125 C 15.351562 -22.792969 15.355469 -22.796875 15.355469 -22.800781 C 15.351562 -22.785156 15.355469 -22.765625 15.355469 -22.746094 C 15.371094 -22.636719 15.414062 -22.535156 15.492188 -22.441406 C 15.566406 -22.347656 15.652344 -22.285156 15.75 -22.253906 C 15.769531 -22.246094 15.785156 -22.242188 15.796875 -22.242188 C 15.789062 -22.242188 15.78125 -22.242188 15.765625 -22.242188 Z M 12.738281 -22.242188 "/></g></g><g style="fill:#b21a22;fill-opacity:1;"><g transform="translate(86.640246, 58.664873)"><path style="stroke:none" d="M -1.039062 4.457031 L -1.039062 1.398438 C -1.039062 0.886719 -0.882812 0.476562 -0.570312 0.164062 C -0.253906 -0.152344 0.15625 -0.308594 0.664062 -0.308594 L 20.71875 -0.308594 C 21.230469 -0.308594 21.640625 -0.152344 21.953125 0.164062 C 22.269531 0.476562 22.425781 0.886719 22.425781 1.398438 L 22.425781 4.457031 C 22.425781 4.964844 22.269531 5.375 21.953125 5.691406 C 21.640625 6.003906 21.230469 6.160156 20.71875 6.160156 L 0.664062 6.160156 C 0.15625 6.160156 -0.253906 6.003906 -0.570312 5.691406 C -0.882812 5.375 -1.039062 4.964844 -1.039062 4.457031 Z M 1.039062 4.457031 C 1.039062 4.460938 1.039062 4.464844 1.039062 4.46875 C 1.039062 4.46875 1.039062 4.46875 1.039062 4.464844 C 1.039062 4.453125 1.035156 4.4375 1.027344 4.417969 C 1.003906 4.347656 0.960938 4.28125 0.902344 4.21875 C 0.839844 4.160156 0.773438 4.117188 0.703125 4.09375 C 0.683594 4.089844 0.667969 4.085938 0.65625 4.082031 C 0.65625 4.082031 0.652344 4.082031 0.652344 4.082031 C 0.65625 4.082031 0.660156 4.082031 0.664062 4.082031 L 20.71875 4.082031 C 20.726562 4.082031 20.730469 4.082031 20.730469 4.082031 C 20.714844 4.085938 20.699219 4.089844 20.683594 4.09375 C 20.609375 4.117188 20.542969 4.160156 20.484375 4.21875 C 20.421875 4.28125 20.382812 4.347656 20.359375 4.417969 C 20.351562 4.4375 20.347656 4.453125 20.347656 4.464844 C 20.347656 4.46875 20.34375 4.46875 20.34375 4.46875 C 20.347656 4.464844 20.347656 4.460938 20.347656 4.457031 L 20.347656 1.398438 C 20.347656 1.390625 20.347656 1.386719 20.34375 1.386719 C 20.34375 1.386719 20.347656 1.386719 20.347656 1.386719 C 20.347656 1.402344 20.351562 1.417969 20.359375 1.433594 C 20.382812 1.507812 20.421875 1.574219 20.484375 1.632812 C 20.542969 1.691406 20.609375 1.734375 20.683594 1.757812 C 20.699219 1.765625 20.714844 1.769531 20.730469 1.769531 C 20.730469 1.769531 20.726562 1.769531 20.71875 1.769531 L 0.664062 1.769531 C 0.660156 1.769531 0.65625 1.769531 0.652344 1.769531 C 0.652344 1.769531 0.65625 1.769531 0.65625 1.769531 C 0.667969 1.769531 0.683594 1.765625 0.703125 1.757812 C 0.773438 1.734375 0.839844 1.691406 0.902344 1.632812 C 0.960938 1.574219 1.003906 1.507812 1.027344 1.433594 C 1.035156 1.417969 1.039062 1.402344 1.039062 1.386719 C 1.039062 1.386719 1.039062 1.390625 1.039062 1.398438 Z M 1.039062 4.457031 "/></g></g><g style="fill:#b21a22;fill-opacity:1;"><g transform="translate(26.077323, 105.033078)"><path style="stroke:none" d="M 0.625 -0.53125 L 0.625 -22.75 C 0.625 -23.214844 0.769531 -23.589844 1.0625 -23.882812 C 1.351562 -24.175781 1.730469 -24.320312 2.195312 -24.320312 L 10.175781 -24.320312 C 12.039062 -24.320312 13.476562 -23.8125 14.488281 -22.800781 C 15.5 -21.789062 16.003906 -20.351562 16.003906 -18.492188 L 16.003906 -11.972656 C 16.003906 -10.132812 15.5 -8.707031 14.488281 -7.695312 C 13.480469 -6.6875 12.046875 -6.171875 10.191406 -6.144531 L 5.996094 -6.109375 L 5.988281 -7.152344 L 7.027344 -7.152344 L 7.027344 -0.5 C 7.027344 -0.0351562 6.878906 0.34375 6.589844 0.636719 C 6.296875 0.925781 5.917969 1.074219 5.453125 1.074219 L 2.183594 1.039062 C 1.726562 1.039062 1.351562 0.894531 1.0625 0.601562 C 0.769531 0.308594 0.625 -0.0664062 0.625 -0.53125 Z M 2.703125 -0.53125 C 2.703125 -0.554688 2.695312 -0.585938 2.683594 -0.628906 C 2.652344 -0.714844 2.601562 -0.796875 2.53125 -0.867188 C 2.460938 -0.9375 2.378906 -0.988281 2.289062 -1.019531 C 2.25 -1.03125 2.222656 -1.039062 2.207031 -1.039062 L 5.453125 -1.007812 C 5.429688 -1.007812 5.398438 -1 5.359375 -0.984375 C 5.269531 -0.957031 5.191406 -0.90625 5.117188 -0.835938 C 5.046875 -0.761719 4.996094 -0.683594 4.96875 -0.59375 C 4.953125 -0.554688 4.945312 -0.523438 4.945312 -0.5 L 4.945312 -8.183594 L 10.164062 -8.222656 C 11.457031 -8.242188 12.40625 -8.554688 13.015625 -9.167969 C 13.625 -9.773438 13.925781 -10.707031 13.925781 -11.972656 L 13.925781 -18.492188 C 13.925781 -19.777344 13.625 -20.726562 13.015625 -21.332031 C 12.410156 -21.9375 11.464844 -22.242188 10.175781 -22.242188 L 2.195312 -22.242188 C 2.21875 -22.242188 2.25 -22.25 2.289062 -22.261719 C 2.378906 -22.292969 2.460938 -22.339844 2.53125 -22.414062 C 2.601562 -22.484375 2.652344 -22.5625 2.683594 -22.652344 C 2.695312 -22.691406 2.703125 -22.726562 2.703125 -22.75 Z M 5.976562 -12.480469 L 9.300781 -12.511719 C 9.417969 -12.511719 9.507812 -12.523438 9.566406 -12.542969 C 9.578125 -12.546875 9.585938 -12.550781 9.589844 -12.550781 C 9.585938 -12.550781 9.582031 -12.546875 9.574219 -12.542969 C 9.570312 -12.535156 9.566406 -12.53125 9.5625 -12.527344 C 9.566406 -12.53125 9.570312 -12.539062 9.574219 -12.550781 C 9.59375 -12.609375 9.601562 -12.695312 9.601562 -12.804688 L 9.601562 -17.660156 C 9.601562 -17.769531 9.59375 -17.855469 9.574219 -17.914062 C 9.570312 -17.925781 9.566406 -17.933594 9.5625 -17.9375 C 9.566406 -17.933594 9.570312 -17.929688 9.574219 -17.921875 C 9.582031 -17.917969 9.585938 -17.914062 9.589844 -17.914062 C 9.585938 -17.914062 9.578125 -17.917969 9.566406 -17.921875 C 9.507812 -17.941406 9.421875 -17.953125 9.3125 -17.953125 L 5.996094 -17.917969 L 5.988281 -18.957031 L 7.027344 -18.957031 L 7.027344 -11.441406 L 5.988281 -11.441406 Z M 4.945312 -10.390625 L 4.945312 -19.988281 L 9.3125 -20.03125 C 10.042969 -20.03125 10.621094 -19.816406 11.046875 -19.394531 C 11.46875 -18.96875 11.683594 -18.390625 11.683594 -17.660156 L 11.683594 -12.804688 C 11.683594 -12.074219 11.46875 -11.496094 11.046875 -11.070312 C 10.621094 -10.648438 10.046875 -10.433594 9.324219 -10.433594 L 5.996094 -10.402344 Z M 4.945312 -10.390625 "/></g></g><g style="fill:#b21a22;fill-opacity:1;"><g transform="translate(42.701391, 105.033078)"><path style="stroke:none" d="M 2.195312 -1.039062 L 5.652344 -1.039062 C 5.628906 -1.039062 5.597656 -1.03125 5.558594 -1.019531 C 5.46875 -0.988281 5.390625 -0.9375 5.316406 -0.867188 C 5.246094 -0.796875 5.195312 -0.714844 5.167969 -0.628906 C 5.152344 -0.585938 5.148438 -0.554688 5.148438 -0.53125 L 5.148438 -22.75 C 5.148438 -22.726562 5.152344 -22.691406 5.167969 -22.652344 C 5.195312 -22.5625 5.246094 -22.484375 5.316406 -22.414062 C 5.390625 -22.339844 5.46875 -22.292969 5.558594 -22.261719 C 5.597656 -22.25 5.628906 -22.242188 5.652344 -22.242188 L 2.195312 -22.242188 C 2.21875 -22.242188 2.25 -22.25 2.289062 -22.261719 C 2.378906 -22.292969 2.460938 -22.339844 2.53125 -22.414062 C 2.601562 -22.484375 2.652344 -22.5625 2.683594 -22.652344 C 2.695312 -22.691406 2.703125 -22.726562 2.703125 -22.75 L 2.703125 -0.53125 C 2.703125 -0.554688 2.695312 -0.585938 2.683594 -0.628906 C 2.652344 -0.714844 2.601562 -0.796875 2.53125 -0.867188 C 2.460938 -0.9375 2.378906 -0.988281 2.289062 -1.019531 C 2.25 -1.03125 2.21875 -1.039062 2.195312 -1.039062 Z M 2.195312 1.039062 C 1.730469 1.039062 1.351562 0.894531 1.0625 0.601562 C 0.769531 0.308594 0.625 -0.0664062 0.625 -0.53125 L 0.625 -22.75 C 0.625 -23.214844 0.769531 -23.589844 1.0625 -23.882812 C 1.351562 -24.175781 1.730469 -24.320312 2.195312 -24.320312 L 5.652344 -24.320312 C 6.117188 -24.320312 6.496094 -24.175781 6.789062 -23.882812 C 7.078125 -23.589844 7.226562 -23.214844 7.226562 -22.75 L 7.226562 -0.53125 C 7.226562 -0.0664062 7.078125 0.308594 6.789062 0.601562 C 6.496094 0.894531 6.117188 1.039062 5.652344 1.039062 Z M 2.195312 1.039062 "/></g></g><g style="fill:#b21a22;fill-opacity:1;"><g transform="translate(50.547946, 105.033078)"><path style="stroke:none" d="M 16.003906 -18.492188 L 16.003906 -11.808594 C 16.003906 -9.492188 15.222656 -7.847656 13.65625 -6.867188 L 13.105469 -7.75 L 14.113281 -7.992188 L 15.84375 -0.84375 L 14.832031 -0.597656 L 15.835938 -0.875 C 15.984375 -0.339844 15.914062 0.113281 15.621094 0.488281 C 15.335938 0.855469 14.917969 1.039062 14.367188 1.039062 L 11.109375 1.039062 C 10.703125 1.039062 10.359375 0.921875 10.074219 0.6875 C 9.792969 0.453125 9.609375 0.144531 9.527344 -0.246094 L 10.542969 -0.464844 L 9.53125 -0.21875 L 7.9375 -6.773438 L 8.945312 -7.015625 L 8.945312 -5.976562 L 5.988281 -5.976562 L 5.988281 -7.015625 L 7.027344 -7.015625 L 7.027344 -0.53125 C 7.027344 -0.0664062 6.878906 0.308594 6.589844 0.601562 C 6.296875 0.894531 5.917969 1.039062 5.453125 1.039062 L 2.195312 1.039062 C 1.730469 1.039062 1.351562 0.894531 1.0625 0.601562 C 0.769531 0.308594 0.625 -0.0664062 0.625 -0.53125 L 0.625 -22.75 C 0.625 -23.214844 0.769531 -23.589844 1.0625 -23.882812 C 1.351562 -24.175781 1.730469 -24.320312 2.195312 -24.320312 L 10.175781 -24.320312 C 12.039062 -24.320312 13.476562 -23.8125 14.488281 -22.800781 C 15.5 -21.789062 16.003906 -20.351562 16.003906 -18.492188 Z M 13.925781 -18.492188 C 13.925781 -19.777344 13.625 -20.726562 13.015625 -21.332031 C 12.410156 -21.9375 11.464844 -22.242188 10.175781 -22.242188 L 2.195312 -22.242188 C 2.21875 -22.242188 2.25 -22.25 2.289062 -22.261719 C 2.378906 -22.292969 2.460938 -22.339844 2.53125 -22.414062 C 2.601562 -22.484375 2.652344 -22.5625 2.683594 -22.652344 C 2.695312 -22.691406 2.703125 -22.726562 2.703125 -22.75 L 2.703125 -0.53125 C 2.703125 -0.554688 2.695312 -0.585938 2.683594 -0.628906 C 2.652344 -0.714844 2.601562 -0.796875 2.53125 -0.867188 C 2.460938 -0.9375 2.378906 -0.988281 2.289062 -1.019531 C 2.25 -1.03125 2.21875 -1.039062 2.195312 -1.039062 L 5.453125 -1.039062 C 5.429688 -1.039062 5.398438 -1.03125 5.359375 -1.019531 C 5.269531 -0.988281 5.191406 -0.9375 5.117188 -0.867188 C 5.046875 -0.796875 4.996094 -0.714844 4.96875 -0.628906 C 4.953125 -0.585938 4.945312 -0.554688 4.945312 -0.53125 L 4.945312 -8.058594 L 9.761719 -8.058594 L 11.554688 -0.699219 L 11.558594 -0.683594 C 11.542969 -0.765625 11.488281 -0.84375 11.394531 -0.917969 C 11.296875 -1 11.203125 -1.039062 11.109375 -1.039062 L 14.367188 -1.039062 C 14.347656 -1.035156 14.320312 -1.027344 14.292969 -1.019531 C 14.171875 -0.976562 14.066406 -0.898438 13.980469 -0.789062 C 13.890625 -0.671875 13.839844 -0.546875 13.828125 -0.414062 C 13.828125 -0.367188 13.828125 -0.335938 13.832031 -0.320312 L 13.828125 -0.335938 L 11.917969 -8.234375 L 12.554688 -8.628906 C 13.46875 -9.203125 13.925781 -10.261719 13.925781 -11.808594 Z M 5.988281 -12.347656 L 9.3125 -12.347656 C 9.421875 -12.347656 9.507812 -12.355469 9.566406 -12.378906 C 9.578125 -12.378906 9.585938 -12.382812 9.589844 -12.386719 C 9.585938 -12.382812 9.582031 -12.378906 9.574219 -12.375 C 9.570312 -12.371094 9.566406 -12.367188 9.5625 -12.363281 C 9.566406 -12.367188 9.570312 -12.375 9.574219 -12.386719 C 9.59375 -12.445312 9.601562 -12.527344 9.601562 -12.636719 L 9.601562 -17.660156 C 9.601562 -17.769531 9.59375 -17.855469 9.574219 -17.914062 C 9.570312 -17.925781 9.566406 -17.933594 9.5625 -17.9375 C 9.566406 -17.933594 9.570312 -17.929688 9.574219 -17.921875 C 9.582031 -17.917969 9.585938 -17.914062 9.589844 -17.914062 C 9.585938 -17.914062 9.578125 -17.917969 9.566406 -17.921875 C 9.507812 -17.941406 9.421875 -17.953125 9.3125 -17.953125 L 5.988281 -17.953125 L 5.988281 -18.992188 L 7.027344 -18.992188 L 7.027344 -11.308594 L 5.988281 -11.308594 Z M 4.945312 -10.269531 L 4.945312 -20.03125 L 9.3125 -20.03125 C 10.042969 -20.03125 10.621094 -19.816406 11.046875 -19.394531 C 11.46875 -18.96875 11.683594 -18.390625 11.683594 -17.660156 L 11.683594 -12.636719 C 11.683594 -11.90625 11.46875 -11.332031 11.046875 -10.90625 C 10.621094 -10.480469 10.042969 -10.269531 9.3125 -10.269531 Z M 4.945312 -10.269531 "/></g></g><g style="fill:#b21a22;fill-opacity:1;"><g transform="translate(67.172014, 105.033078)"><path style="stroke:none" d="M 17.359375 1.039062 L 14.136719 1.039062 C 13.730469 1.039062 13.386719 0.914062 13.101562 0.664062 C 12.839844 0.4375 12.667969 0.132812 12.585938 -0.246094 L 13.601562 -0.464844 L 12.59375 -0.210938 L 11.53125 -4.398438 L 12.539062 -4.65625 L 12.539062 -3.617188 L 6.285156 -3.617188 L 6.285156 -4.65625 L 7.296875 -4.40625 L 6.265625 -0.21875 L 5.253906 -0.464844 L 6.269531 -0.246094 C 6.191406 0.132812 6.019531 0.4375 5.757812 0.664062 C 5.472656 0.914062 5.128906 1.039062 4.722656 1.039062 L 1.464844 1.039062 C 0.921875 1.039062 0.511719 0.855469 0.230469 0.488281 C -0.0546875 0.117188 -0.121094 -0.332031 0.0351562 -0.859375 L 1.03125 -0.566406 L 0.0234375 -0.816406 L 5.542969 -23.066406 L 6.550781 -22.816406 L 5.535156 -23.035156 C 5.621094 -23.425781 5.800781 -23.734375 6.082031 -23.96875 C 6.367188 -24.203125 6.714844 -24.320312 7.117188 -24.320312 L 11.742188 -24.320312 C 12.144531 -24.320312 12.488281 -24.203125 12.773438 -23.96875 C 13.054688 -23.734375 13.238281 -23.425781 13.320312 -23.035156 L 12.304688 -22.816406 L 13.316406 -23.066406 L 18.835938 -0.816406 L 17.828125 -0.566406 L 18.824219 -0.859375 C 18.984375 -0.316406 18.90625 0.140625 18.597656 0.519531 C 18.308594 0.867188 17.898438 1.039062 17.359375 1.039062 Z M 17.359375 -1.039062 C 17.367188 -1.039062 17.371094 -1.039062 17.375 -1.039062 C 17.375 -1.039062 17.371094 -1.039062 17.371094 -1.039062 C 17.351562 -1.035156 17.328125 -1.03125 17.304688 -1.023438 C 17.183594 -0.984375 17.082031 -0.910156 16.992188 -0.800781 C 16.890625 -0.679688 16.835938 -0.546875 16.824219 -0.398438 C 16.820312 -0.34375 16.820312 -0.300781 16.828125 -0.273438 L 16.824219 -0.292969 L 11.292969 -22.582031 L 11.289062 -22.597656 C 11.308594 -22.515625 11.363281 -22.4375 11.453125 -22.363281 C 11.550781 -22.28125 11.648438 -22.242188 11.742188 -22.242188 L 7.117188 -22.242188 C 7.210938 -22.242188 7.304688 -22.28125 7.402344 -22.363281 C 7.496094 -22.4375 7.550781 -22.515625 7.566406 -22.597656 L 7.566406 -22.582031 L 2.035156 -0.292969 L 2.027344 -0.273438 C 2.035156 -0.292969 2.035156 -0.328125 2.035156 -0.378906 C 2.023438 -0.519531 1.972656 -0.652344 1.882812 -0.773438 C 1.792969 -0.890625 1.679688 -0.972656 1.550781 -1.015625 C 1.511719 -1.03125 1.480469 -1.039062 1.464844 -1.039062 L 4.722656 -1.039062 C 4.605469 -1.039062 4.496094 -0.992188 4.386719 -0.898438 C 4.304688 -0.824219 4.253906 -0.753906 4.238281 -0.683594 L 4.242188 -0.699219 L 5.472656 -5.695312 L 13.347656 -5.695312 L 14.613281 -0.703125 L 14.617188 -0.683594 C 14.605469 -0.753906 14.554688 -0.824219 14.46875 -0.898438 C 14.363281 -0.992188 14.25 -1.039062 14.136719 -1.039062 Z M 10.496094 -8.28125 L 8.398438 -17.324219 L 9.414062 -17.5625 L 10.425781 -17.324219 L 8.328125 -8.28125 L 7.316406 -8.515625 L 7.316406 -9.554688 L 11.507812 -9.554688 L 11.507812 -8.515625 Z M 12.816406 -7.476562 L 6.007812 -7.476562 L 8.398438 -17.796875 L 10.425781 -17.796875 L 12.519531 -8.75 Z M 12.816406 -7.476562 "/></g></g><g style="fill:#b21a22;fill-opacity:1;"><g transform="translate(86.023711, 105.033078)"><path style="stroke:none" d="M 13.769531 -22.242188 L 1.53125 -22.242188 C 1.554688 -22.242188 1.585938 -22.25 1.625 -22.261719 C 1.714844 -22.292969 1.792969 -22.339844 1.867188 -22.414062 C 1.9375 -22.484375 1.988281 -22.5625 2.015625 -22.652344 C 2.03125 -22.691406 2.039062 -22.726562 2.039062 -22.75 L 2.039062 -19.421875 C 2.039062 -19.445312 2.03125 -19.480469 2.015625 -19.519531 C 1.988281 -19.609375 1.9375 -19.6875 1.867188 -19.757812 C 1.792969 -19.832031 1.714844 -19.878906 1.625 -19.910156 C 1.585938 -19.921875 1.554688 -19.929688 1.53125 -19.929688 L 6.425781 -19.929688 L 6.425781 -0.53125 C 6.425781 -0.554688 6.421875 -0.585938 6.40625 -0.628906 C 6.378906 -0.714844 6.328125 -0.796875 6.257812 -0.867188 C 6.183594 -0.9375 6.105469 -0.988281 6.015625 -1.019531 C 5.976562 -1.03125 5.945312 -1.039062 5.921875 -1.039062 L 9.378906 -1.039062 C 9.355469 -1.039062 9.324219 -1.03125 9.28125 -1.019531 C 9.195312 -0.988281 9.113281 -0.9375 9.042969 -0.867188 C 8.972656 -0.796875 8.921875 -0.714844 8.890625 -0.628906 C 8.878906 -0.585938 8.871094 -0.554688 8.871094 -0.53125 L 8.871094 -19.929688 L 13.769531 -19.929688 C 13.746094 -19.929688 13.714844 -19.921875 13.671875 -19.910156 C 13.585938 -19.878906 13.503906 -19.832031 13.433594 -19.757812 C 13.363281 -19.6875 13.3125 -19.609375 13.28125 -19.519531 C 13.269531 -19.480469 13.261719 -19.445312 13.261719 -19.421875 L 13.261719 -22.75 C 13.261719 -22.726562 13.269531 -22.691406 13.28125 -22.652344 C 13.3125 -22.5625 13.363281 -22.484375 13.433594 -22.414062 C 13.503906 -22.339844 13.585938 -22.292969 13.671875 -22.261719 C 13.714844 -22.25 13.746094 -22.242188 13.769531 -22.242188 Z M 13.769531 -24.320312 C 14.234375 -24.320312 14.613281 -24.175781 14.902344 -23.882812 C 15.195312 -23.589844 15.339844 -23.214844 15.339844 -22.75 L 15.339844 -19.421875 C 15.339844 -18.957031 15.195312 -18.582031 14.902344 -18.289062 C 14.613281 -17.996094 14.234375 -17.851562 13.769531 -17.851562 L 9.910156 -17.851562 L 9.910156 -18.890625 L 10.949219 -18.890625 L 10.949219 -0.53125 C 10.949219 -0.0664062 10.804688 0.308594 10.511719 0.601562 C 10.222656 0.894531 9.84375 1.039062 9.378906 1.039062 L 5.921875 1.039062 C 5.457031 1.039062 5.078125 0.894531 4.785156 0.601562 C 4.496094 0.308594 4.347656 -0.0664062 4.347656 -0.53125 L 4.347656 -18.890625 L 5.386719 -18.890625 L 5.386719 -17.851562 L 1.53125 -17.851562 C 1.066406 -17.851562 0.6875 -17.996094 0.394531 -18.289062 C 0.105469 -18.582031 -0.0429688 -18.957031 -0.0429688 -19.421875 L -0.0429688 -22.75 C -0.0429688 -23.214844 0.105469 -23.589844 0.394531 -23.882812 C 0.6875 -24.175781 1.066406 -24.320312 1.53125 -24.320312 Z M 13.769531 -24.320312 "/></g></g><g style="fill:#b21a22;fill-opacity:1;"><g transform="translate(101.317855, 105.033078)"><path style="stroke:none" d="M 15.972656 -22.75 L 15.972656 -19.421875 C 15.972656 -18.960938 15.835938 -18.582031 15.558594 -18.285156 C 15.261719 -17.972656 14.878906 -17.816406 14.402344 -17.816406 L 6.1875 -17.816406 L 6.1875 -18.859375 L 7.226562 -18.859375 L 7.226562 -13.734375 L 6.1875 -13.734375 L 6.1875 -14.773438 L 12.4375 -14.773438 C 12.914062 -14.773438 13.300781 -14.617188 13.59375 -14.308594 C 13.871094 -14.011719 14.011719 -13.632812 14.011719 -13.171875 L 14.011719 -9.878906 C 14.011719 -9.414062 13.871094 -9.035156 13.59375 -8.742188 C 13.300781 -8.429688 12.914062 -8.273438 12.4375 -8.273438 L 6.1875 -8.273438 L 6.1875 -9.3125 L 7.226562 -9.3125 L 7.226562 -4.390625 L 6.1875 -4.390625 L 6.1875 -5.429688 L 14.402344 -5.429688 C 14.867188 -5.429688 15.242188 -5.285156 15.535156 -4.992188 C 15.828125 -4.699219 15.972656 -4.324219 15.972656 -3.859375 L 15.972656 -0.53125 C 15.972656 -0.0664062 15.828125 0.308594 15.535156 0.601562 C 15.242188 0.894531 14.867188 1.039062 14.402344 1.039062 L 2.160156 1.039062 C 1.695312 1.039062 1.316406 0.886719 1.03125 0.578125 C 0.757812 0.289062 0.625 -0.0820312 0.625 -0.53125 L 0.625 -22.75 C 0.625 -23.199219 0.757812 -23.570312 1.03125 -23.859375 C 1.316406 -24.167969 1.695312 -24.320312 2.160156 -24.320312 L 14.402344 -24.320312 C 14.867188 -24.320312 15.242188 -24.175781 15.535156 -23.882812 C 15.828125 -23.589844 15.972656 -23.214844 15.972656 -22.75 Z M 13.894531 -22.75 C 13.894531 -22.726562 13.902344 -22.691406 13.914062 -22.652344 C 13.945312 -22.5625 13.992188 -22.484375 14.066406 -22.414062 C 14.136719 -22.339844 14.214844 -22.292969 14.304688 -22.261719 C 14.34375 -22.25 14.378906 -22.242188 14.402344 -22.242188 L 2.160156 -22.242188 C 2.296875 -22.242188 2.421875 -22.308594 2.546875 -22.4375 C 2.613281 -22.507812 2.660156 -22.585938 2.6875 -22.671875 C 2.695312 -22.707031 2.703125 -22.730469 2.703125 -22.75 L 2.703125 -0.53125 C 2.703125 -0.550781 2.695312 -0.574219 2.6875 -0.609375 C 2.660156 -0.695312 2.613281 -0.773438 2.546875 -0.84375 C 2.421875 -0.972656 2.296875 -1.039062 2.160156 -1.039062 L 14.402344 -1.039062 C 14.378906 -1.039062 14.34375 -1.03125 14.304688 -1.019531 C 14.214844 -0.988281 14.136719 -0.9375 14.066406 -0.867188 C 13.992188 -0.796875 13.945312 -0.714844 13.914062 -0.628906 C 13.902344 -0.585938 13.894531 -0.554688 13.894531 -0.53125 L 13.894531 -3.859375 C 13.894531 -3.835938 13.902344 -3.800781 13.914062 -3.761719 C 13.945312 -3.671875 13.992188 -3.59375 14.066406 -3.523438 C 14.136719 -3.449219 14.214844 -3.398438 14.304688 -3.371094 C 14.34375 -3.359375 14.378906 -3.351562 14.402344 -3.351562 L 5.148438 -3.351562 L 5.148438 -10.351562 L 12.4375 -10.351562 C 12.410156 -10.351562 12.371094 -10.34375 12.324219 -10.328125 C 12.234375 -10.296875 12.152344 -10.242188 12.082031 -10.167969 C 12.015625 -10.097656 11.972656 -10.023438 11.945312 -9.941406 C 11.9375 -9.910156 11.929688 -9.890625 11.929688 -9.878906 L 11.929688 -13.171875 C 11.929688 -13.160156 11.9375 -13.136719 11.945312 -13.105469 C 11.972656 -13.027344 12.015625 -12.949219 12.082031 -12.882812 C 12.152344 -12.808594 12.234375 -12.753906 12.324219 -12.722656 C 12.371094 -12.703125 12.410156 -12.695312 12.4375 -12.695312 L 5.148438 -12.695312 L 5.148438 -19.898438 L 14.402344 -19.898438 C 14.371094 -19.898438 14.332031 -19.890625 14.285156 -19.871094 C 14.195312 -19.839844 14.113281 -19.785156 14.042969 -19.710938 C 13.980469 -19.644531 13.933594 -19.566406 13.90625 -19.488281 C 13.898438 -19.457031 13.894531 -19.433594 13.894531 -19.421875 Z M 13.894531 -22.75 "/></g></g><g style="fill:#060705;fill-opacity:1;"><g transform="translate(35.970085, 58.664873)"><path style="stroke:none" d="M 15 -18.5 L 15 -14.90625 C 15 -14.550781 14.820312 -14.375 14.46875 -14.375 L 11.34375 -14.375 C 10.988281 -14.375 10.8125 -14.550781 10.8125 -14.90625 L 10.8125 -17.625 C 10.8125 -18.519531 10.367188 -18.96875 9.484375 -18.96875 L 7.359375 -18.96875 C 6.460938 -18.96875 6.015625 -18.519531 6.015625 -17.625 L 6.015625 -5.5625 C 6.015625 -4.664062 6.460938 -4.21875 7.359375 -4.21875 L 9.484375 -4.21875 C 10.367188 -4.21875 10.8125 -4.664062 10.8125 -5.5625 L 10.8125 -8.390625 C 10.8125 -8.742188 10.988281 -8.921875 11.34375 -8.921875 L 14.46875 -8.921875 C 14.820312 -8.921875 15 -8.742188 15 -8.390625 L 15 -4.796875 C 15 -3.242188 14.585938 -2.054688 13.765625 -1.234375 C 12.953125 -0.410156 11.769531 0 10.21875 0 L 6.484375 0 C 4.929688 0 3.738281 -0.410156 2.90625 -1.234375 C 2.070312 -2.054688 1.65625 -3.242188 1.65625 -4.796875 L 1.65625 -18.5 C 1.65625 -20.070312 2.070312 -21.257812 2.90625 -22.0625 C 3.738281 -22.875 4.929688 -23.28125 6.484375 -23.28125 L 10.21875 -23.28125 C 11.769531 -23.28125 12.953125 -22.875 13.765625 -22.0625 C 14.585938 -21.257812 15 -20.070312 15 -18.5 Z M 15 -18.5 "/></g></g><g style="fill:#060705;fill-opacity:1;"><g transform="translate(52.627407, 58.664873)"><path style="stroke:none" d="M 6.453125 -23.28125 L 10.171875 -23.28125 C 11.753906 -23.28125 12.945312 -22.875 13.75 -22.0625 C 14.5625 -21.257812 14.96875 -20.070312 14.96875 -18.5 L 14.96875 -16.296875 C 14.96875 -15.941406 14.789062 -15.765625 14.4375 -15.765625 L 11.078125 -15.765625 C 10.722656 -15.765625 10.546875 -15.941406 10.546875 -16.296875 L 10.546875 -17.703125 C 10.546875 -18.585938 10.101562 -19.03125 9.21875 -19.03125 L 7.390625 -19.03125 C 6.492188 -19.03125 6.046875 -18.585938 6.046875 -17.703125 L 6.046875 -14.875 L 14.109375 -12.28125 C 14.679688 -12.070312 14.96875 -11.660156 14.96875 -11.046875 L 14.96875 -4.796875 C 14.96875 -3.242188 14.5625 -2.054688 13.75 -1.234375 C 12.945312 -0.410156 11.753906 0 10.171875 0 L 6.453125 0 C 4.898438 0 3.710938 -0.410156 2.890625 -1.234375 C 2.066406 -2.054688 1.65625 -3.242188 1.65625 -4.796875 L 1.65625 -6.953125 C 1.65625 -7.304688 1.835938 -7.484375 2.203125 -7.484375 L 5.5625 -7.484375 C 5.914062 -7.484375 6.09375 -7.304688 6.09375 -6.953125 L 6.09375 -5.5625 C 6.09375 -4.664062 6.535156 -4.21875 7.421875 -4.21875 L 9.21875 -4.21875 C 10.101562 -4.21875 10.546875 -4.664062 10.546875 -5.5625 L 10.546875 -8.921875 L 2.5625 -11.515625 C 1.957031 -11.710938 1.65625 -12.117188 1.65625 -12.734375 L 1.65625 -18.5 C 1.65625 -20.070312 2.066406 -21.257812 2.890625 -22.0625 C 3.710938 -22.875 4.898438 -23.28125 6.453125 -23.28125 Z M 6.453125 -23.28125 "/></g></g><g style="fill:#060705;fill-opacity:1;"><g transform="translate(69.251475, 58.664873)"><path style="stroke:none" d="M 12.734375 -23.28125 L 15.765625 -23.28125 C 16.273438 -23.28125 16.472656 -23.035156 16.359375 -22.546875 L 11.078125 -0.59375 C 10.984375 -0.195312 10.738281 0 10.34375 0 L 7.015625 0 C 6.640625 0 6.394531 -0.195312 6.28125 -0.59375 L 1.03125 -22.546875 C 0.914062 -23.035156 1.113281 -23.28125 1.625 -23.28125 L 4.65625 -23.28125 C 5.050781 -23.28125 5.296875 -23.082031 5.390625 -22.6875 L 8.6875 -7.65625 L 12.015625 -22.6875 C 12.117188 -23.082031 12.359375 -23.28125 12.734375 -23.28125 Z M 12.734375 -23.28125 "/></g></g><g style="fill:#060705;fill-opacity:1;"><g transform="translate(86.640246, 58.664873)"><path style="stroke:none" d="M 0 4.453125 L 0 1.390625 C 0 0.953125 0.222656 0.734375 0.671875 0.734375 L 20.71875 0.734375 C 21.164062 0.734375 21.390625 0.953125 21.390625 1.390625 L 21.390625 4.453125 C 21.390625 4.898438 21.164062 5.125 20.71875 5.125 L 0.671875 5.125 C 0.222656 5.125 0 4.898438 0 4.453125 Z M 0 4.453125 "/></g></g><g style="fill:#060705;fill-opacity:1;"><g transform="translate(26.077323, 105.033078)"><path style="stroke:none" d="M 1.65625 -0.53125 L 1.65625 -22.75 C 1.65625 -23.101562 1.835938 -23.28125 2.203125 -23.28125 L 10.171875 -23.28125 C 11.753906 -23.28125 12.945312 -22.875 13.75 -22.0625 C 14.5625 -21.257812 14.96875 -20.070312 14.96875 -18.5 L 14.96875 -11.96875 C 14.96875 -10.414062 14.5625 -9.234375 13.75 -8.421875 C 12.945312 -7.617188 11.753906 -7.207031 10.171875 -7.1875 L 5.984375 -7.15625 L 5.984375 -0.5 C 5.984375 -0.144531 5.804688 0.03125 5.453125 0.03125 L 2.203125 0 C 1.835938 0 1.65625 -0.175781 1.65625 -0.53125 Z M 5.984375 -11.4375 L 9.3125 -11.484375 C 10.195312 -11.484375 10.640625 -11.925781 10.640625 -12.8125 L 10.640625 -17.65625 C 10.640625 -18.550781 10.195312 -19 9.3125 -19 L 5.984375 -18.96875 Z M 5.984375 -11.4375 "/></g></g><g style="fill:#060705;fill-opacity:1;"><g transform="translate(42.701391, 105.033078)"><path style="stroke:none" d="M 2.203125 0 L 5.65625 0 C 6.007812 0 6.1875 -0.175781 6.1875 -0.53125 L 6.1875 -22.75 C 6.1875 -23.101562 6.007812 -23.28125 5.65625 -23.28125 L 2.203125 -23.28125 C 1.835938 -23.28125 1.65625 -23.101562 1.65625 -22.75 L 1.65625 -0.53125 C 1.65625 -0.175781 1.835938 0 2.203125 0 Z M 2.203125 0 "/></g></g><g style="fill:#060705;fill-opacity:1;"><g transform="translate(50.547946, 105.033078)"><path style="stroke:none" d="M 14.96875 -18.5 L 14.96875 -11.8125 C 14.96875 -9.882812 14.347656 -8.53125 13.109375 -7.75 L 14.84375 -0.59375 C 14.945312 -0.195312 14.789062 0 14.375 0 L 11.109375 0 C 10.796875 0 10.609375 -0.15625 10.546875 -0.46875 L 8.953125 -7.015625 L 5.984375 -7.015625 L 5.984375 -0.53125 C 5.984375 -0.175781 5.804688 0 5.453125 0 L 2.203125 0 C 1.835938 0 1.65625 -0.175781 1.65625 -0.53125 L 1.65625 -22.75 C 1.65625 -23.101562 1.835938 -23.28125 2.203125 -23.28125 L 10.171875 -23.28125 C 11.753906 -23.28125 12.945312 -22.875 13.75 -22.0625 C 14.5625 -21.257812 14.96875 -20.070312 14.96875 -18.5 Z M 5.984375 -11.3125 L 9.3125 -11.3125 C 10.195312 -11.3125 10.640625 -11.753906 10.640625 -12.640625 L 10.640625 -17.65625 C 10.640625 -18.550781 10.195312 -19 9.3125 -19 L 5.984375 -19 Z M 5.984375 -11.3125 "/></g></g><g style="fill:#060705;fill-opacity:1;"><g transform="translate(67.172014, 105.033078)"><path style="stroke:none" d="M 17.359375 0 L 14.140625 0 C 13.847656 0 13.671875 -0.15625 13.609375 -0.46875 L 12.546875 -4.65625 L 6.28125 -4.65625 L 5.25 -0.46875 C 5.1875 -0.15625 5.007812 0 4.71875 0 L 1.46875 0 C 1.0625 0 0.914062 -0.1875 1.03125 -0.5625 L 6.546875 -22.8125 C 6.617188 -23.125 6.8125 -23.28125 7.125 -23.28125 L 11.75 -23.28125 C 12.050781 -23.28125 12.238281 -23.125 12.3125 -22.8125 L 17.828125 -0.5625 C 17.941406 -0.1875 17.785156 0 17.359375 0 Z M 11.515625 -8.515625 L 9.421875 -17.5625 L 7.3125 -8.515625 Z M 11.515625 -8.515625 "/></g></g><g style="fill:#060705;fill-opacity:1;"><g transform="translate(86.023711, 105.033078)"><path style="stroke:none" d="M 13.765625 -23.28125 L 1.53125 -23.28125 C 1.175781 -23.28125 1 -23.101562 1 -22.75 L 1 -19.421875 C 1 -19.066406 1.175781 -18.890625 1.53125 -18.890625 L 5.390625 -18.890625 L 5.390625 -0.53125 C 5.390625 -0.175781 5.566406 0 5.921875 0 L 9.375 0 C 9.726562 0 9.90625 -0.175781 9.90625 -0.53125 L 9.90625 -18.890625 L 13.765625 -18.890625 C 14.117188 -18.890625 14.296875 -19.066406 14.296875 -19.421875 L 14.296875 -22.75 C 14.296875 -23.101562 14.117188 -23.28125 13.765625 -23.28125 Z M 13.765625 -23.28125 "/></g></g><g style="fill:#060705;fill-opacity:1;"><g transform="translate(101.317855, 105.033078)"><path style="stroke:none" d="M 14.9375 -22.75 L 14.9375 -19.421875 C 14.9375 -19.046875 14.757812 -18.859375 14.40625 -18.859375 L 6.1875 -18.859375 L 6.1875 -13.734375 L 12.4375 -13.734375 C 12.789062 -13.734375 12.96875 -13.546875 12.96875 -13.171875 L 12.96875 -9.875 C 12.96875 -9.5 12.789062 -9.3125 12.4375 -9.3125 L 6.1875 -9.3125 L 6.1875 -4.390625 L 14.40625 -4.390625 C 14.757812 -4.390625 14.9375 -4.210938 14.9375 -3.859375 L 14.9375 -0.53125 C 14.9375 -0.175781 14.757812 0 14.40625 0 L 2.15625 0 C 1.820312 0 1.65625 -0.175781 1.65625 -0.53125 L 1.65625 -22.75 C 1.65625 -23.101562 1.820312 -23.28125 2.15625 -23.28125 L 14.40625 -23.28125 C 14.757812 -23.28125 14.9375 -23.101562 14.9375 -22.75 Z M 14.9375 -22.75 "/></g></g></g></svg>