<svg xmlns="http://www.w3.org/2000/svg" xmlns:xlink="http://www.w3.org/1999/xlink" width="128" zoomAndPan="magnify" viewBox="0 0 96 95.999999" height="128" preserveAspectRatio="xMidYMid meet" version="1.2"><defs><clipPath id="d581fc083a"><path d="M 6 0 L 90 0 L 90 96 L 6 96 Z M 6 0 "/></clipPath><clipPath id="1ce7c97a71"><path d="M -14.304688 36.578125 L 68.691406 -11.898438 L 110.335938 59.402344 L 27.339844 107.878906 Z M -14.304688 36.578125 "/></clipPath><clipPath id="6d876cb759"><path d="M 89.484375 23.769531 L 89.5625 71.535156 L 48.082031 95.765625 L 6.515625 72.226562 L 6.4375 24.464844 L 47.921875 0.234375 Z M 89.484375 23.769531 "/></clipPath><clipPath id="6e5c335d0b"><path d="M 14.140625 9.121094 L 81.851562 9.121094 L 81.851562 86.839844 L 14.140625 86.839844 Z M 14.140625 9.121094 "/></clipPath></defs><g id="62afbebe62"><g clip-rule="nonzero" clip-path="url(#d581fc083a)"><g clip-rule="nonzero" clip-path="url(#1ce7c97a71)"><g clip-rule="nonzero" clip-path="url(#6d876cb759)"><path style=" stroke:none;fill-rule:nonzero;fill:#65b30e;fill-opacity:1;" d="M -14.304688 36.578125 L 68.691406 -11.898438 L 110.335938 59.402344 L 27.339844 107.878906 Z M -14.304688 36.578125 "/></g></g></g><path style=" stroke:none;fill-rule:nonzero;fill:#87ff00;fill-opacity:1;" d="M 34.453125 34.738281 L 34.410156 34.695312 L 24.839844 44.265625 L 48.074219 67.457031 L 57.644531 57.933594 L 71.308594 44.265625 L 61.738281 34.695312 L 61.738281 34.652344 L 34.410156 34.652344 Z M 34.453125 34.738281 "/><g clip-rule="nonzero" clip-path="url(#6e5c335d0b)"><path style=" stroke:none;fill-rule:nonzero;fill:#87ff00;fill-opacity:1;" d="M 47.988281 9.179688 L 14.148438 28.574219 L 14.148438 67.371094 L 47.988281 86.769531 L 81.828125 67.371094 L 81.828125 28.574219 Z M 75.359375 63.664062 L 47.988281 79.4375 L 20.613281 63.664062 L 20.617188 32.195312 L 47.988281 16.417969 L 75.363281 32.195312 L 75.363281 63.664062 Z M 75.359375 63.664062 "/></g><g style="fill:#b21a22;fill-opacity:1;"><g transform="translate(24.819385, 30.61266)"><path style="stroke:none" d="M 4.910156 -2.988281 L 4.910156 -11.878906 C 4.910156 -12.121094 4.984375 -12.316406 5.136719 -12.46875 C 5.289062 -12.621094 5.488281 -12.699219 5.730469 -12.699219 L 7.535156 -12.699219 C 7.777344 -12.699219 7.976562 -12.621094 8.128906 -12.46875 C 8.28125 -12.316406 8.355469 -12.121094 8.355469 -11.878906 L 8.355469 -2.5 C 8.355469 -1.539062 8.089844 -0.792969 7.554688 -0.257812 C 7.019531 0.277344 6.273438 0.542969 5.3125 0.542969 L 3.367188 0.542969 C 2.410156 0.542969 1.660156 0.277344 1.128906 -0.257812 C 0.59375 -0.792969 0.324219 -1.539062 0.324219 -2.5 L 0.324219 -4.304688 C 0.324219 -4.550781 0.402344 -4.746094 0.554688 -4.898438 C 0.707031 -5.050781 0.902344 -5.128906 1.144531 -5.128906 L 2.882812 -5.128906 C 3.125 -5.128906 3.324219 -5.050781 3.476562 -4.898438 C 3.628906 -4.746094 3.703125 -4.550781 3.703125 -4.304688 L 3.703125 -2.988281 C 3.703125 -2.929688 3.707031 -2.886719 3.71875 -2.855469 C 3.71875 -2.847656 3.722656 -2.84375 3.722656 -2.84375 C 3.722656 -2.84375 3.71875 -2.847656 3.71875 -2.851562 C 3.714844 -2.851562 3.714844 -2.855469 3.710938 -2.855469 C 3.714844 -2.855469 3.71875 -2.851562 3.722656 -2.851562 C 3.753906 -2.839844 3.796875 -2.835938 3.855469 -2.835938 L 4.757812 -2.835938 C 4.816406 -2.835938 4.859375 -2.839844 4.890625 -2.851562 C 4.894531 -2.851562 4.898438 -2.855469 4.902344 -2.855469 C 4.898438 -2.855469 4.898438 -2.851562 4.894531 -2.851562 C 4.894531 -2.847656 4.890625 -2.84375 4.890625 -2.84375 C 4.890625 -2.84375 4.890625 -2.847656 4.894531 -2.855469 C 4.90625 -2.886719 4.910156 -2.929688 4.910156 -2.988281 Z M 5.996094 -2.988281 C 5.996094 -2.605469 5.882812 -2.304688 5.664062 -2.082031 C 5.441406 -1.859375 5.140625 -1.75 4.757812 -1.75 L 3.855469 -1.75 C 3.472656 -1.75 3.171875 -1.859375 2.949219 -2.082031 C 2.730469 -2.304688 2.617188 -2.605469 2.617188 -2.988281 L 2.617188 -4.304688 C 2.617188 -4.292969 2.621094 -4.277344 2.628906 -4.257812 C 2.644531 -4.210938 2.671875 -4.167969 2.707031 -4.132812 C 2.746094 -4.09375 2.785156 -4.066406 2.832031 -4.050781 C 2.855469 -4.046875 2.871094 -4.042969 2.882812 -4.042969 L 1.144531 -4.042969 C 1.160156 -4.042969 1.175781 -4.046875 1.195312 -4.050781 C 1.242188 -4.066406 1.285156 -4.09375 1.320312 -4.132812 C 1.359375 -4.167969 1.386719 -4.210938 1.402344 -4.257812 C 1.40625 -4.277344 1.410156 -4.292969 1.410156 -4.304688 L 1.410156 -2.5 C 1.410156 -1.839844 1.570312 -1.347656 1.894531 -1.027344 C 2.21875 -0.703125 2.707031 -0.542969 3.367188 -0.542969 L 5.3125 -0.542969 C 5.972656 -0.542969 6.464844 -0.703125 6.789062 -1.027344 C 7.109375 -1.347656 7.273438 -1.839844 7.273438 -2.5 L 7.273438 -11.878906 C 7.273438 -11.867188 7.273438 -11.847656 7.28125 -11.828125 C 7.296875 -11.78125 7.324219 -11.738281 7.359375 -11.703125 C 7.398438 -11.664062 7.441406 -11.640625 7.488281 -11.625 C 7.507812 -11.617188 7.523438 -11.613281 7.535156 -11.613281 L 5.730469 -11.613281 C 5.742188 -11.613281 5.757812 -11.617188 5.78125 -11.625 C 5.828125 -11.640625 5.867188 -11.664062 5.90625 -11.703125 C 5.941406 -11.738281 5.96875 -11.78125 5.984375 -11.828125 C 5.992188 -11.847656 5.996094 -11.867188 5.996094 -11.878906 Z M 5.996094 -2.988281 "/></g></g><g style="fill:#b21a22;fill-opacity:1;"><g transform="translate(33.499307, 30.61266)"><path style="stroke:none" d="M 3.367188 -12.699219 L 5.3125 -12.699219 C 6.285156 -12.699219 7.035156 -12.433594 7.5625 -11.90625 C 8.09375 -11.378906 8.355469 -10.625 8.355469 -9.65625 L 8.355469 -8.507812 C 8.355469 -8.265625 8.28125 -8.070312 8.128906 -7.917969 C 7.976562 -7.765625 7.777344 -7.6875 7.535156 -7.6875 L 5.78125 -7.6875 C 5.539062 -7.6875 5.34375 -7.765625 5.191406 -7.917969 C 5.039062 -8.070312 4.960938 -8.265625 4.960938 -8.507812 L 4.960938 -9.238281 C 4.960938 -9.296875 4.957031 -9.339844 4.945312 -9.371094 C 4.945312 -9.375 4.941406 -9.378906 4.941406 -9.382812 C 4.941406 -9.378906 4.945312 -9.378906 4.949219 -9.375 C 4.949219 -9.371094 4.953125 -9.371094 4.953125 -9.371094 C 4.953125 -9.371094 4.949219 -9.371094 4.941406 -9.375 C 4.910156 -9.386719 4.867188 -9.390625 4.808594 -9.390625 L 3.855469 -9.390625 C 3.796875 -9.390625 3.753906 -9.386719 3.722656 -9.375 C 3.71875 -9.371094 3.714844 -9.371094 3.710938 -9.371094 C 3.714844 -9.371094 3.714844 -9.371094 3.71875 -9.375 C 3.71875 -9.378906 3.722656 -9.378906 3.722656 -9.382812 C 3.722656 -9.378906 3.71875 -9.375 3.71875 -9.371094 C 3.707031 -9.339844 3.703125 -9.296875 3.703125 -9.238281 L 3.703125 -7.761719 L 3.160156 -7.761719 L 3.328125 -8.277344 L 7.53125 -6.925781 C 7.796875 -6.832031 8.003906 -6.683594 8.144531 -6.480469 C 8.285156 -6.28125 8.355469 -6.042969 8.355469 -5.765625 L 8.355469 -2.5 C 8.355469 -1.542969 8.09375 -0.796875 7.566406 -0.261719 C 7.039062 0.273438 6.285156 0.542969 5.3125 0.542969 L 3.367188 0.542969 C 2.410156 0.542969 1.660156 0.277344 1.128906 -0.257812 C 0.59375 -0.792969 0.324219 -1.539062 0.324219 -2.5 L 0.324219 -3.628906 C 0.324219 -3.871094 0.402344 -4.070312 0.554688 -4.222656 C 0.707031 -4.375 0.902344 -4.449219 1.144531 -4.449219 L 2.898438 -4.449219 C 3.140625 -4.449219 3.339844 -4.375 3.492188 -4.222656 C 3.644531 -4.070312 3.71875 -3.871094 3.71875 -3.628906 L 3.71875 -2.898438 C 3.71875 -2.84375 3.726562 -2.800781 3.734375 -2.769531 C 3.738281 -2.761719 3.738281 -2.757812 3.742188 -2.757812 C 3.738281 -2.757812 3.738281 -2.761719 3.734375 -2.761719 C 3.734375 -2.765625 3.730469 -2.765625 3.726562 -2.769531 C 3.730469 -2.765625 3.734375 -2.765625 3.738281 -2.761719 C 3.769531 -2.753906 3.816406 -2.75 3.871094 -2.75 L 4.808594 -2.75 C 4.867188 -2.75 4.910156 -2.753906 4.941406 -2.761719 C 4.949219 -2.765625 4.953125 -2.765625 4.953125 -2.769531 C 4.953125 -2.765625 4.949219 -2.765625 4.949219 -2.761719 C 4.945312 -2.761719 4.941406 -2.757812 4.941406 -2.757812 C 4.941406 -2.757812 4.945312 -2.761719 4.945312 -2.769531 C 4.957031 -2.800781 4.960938 -2.84375 4.960938 -2.898438 L 4.960938 -4.652344 L 5.503906 -4.652344 L 5.335938 -4.136719 L 1.167969 -5.492188 C 0.902344 -5.582031 0.695312 -5.726562 0.546875 -5.925781 C 0.398438 -6.128906 0.324219 -6.371094 0.324219 -6.652344 L 0.324219 -9.65625 C 0.324219 -10.628906 0.59375 -11.378906 1.128906 -11.910156 C 1.664062 -12.433594 2.410156 -12.699219 3.367188 -12.699219 Z M 3.367188 -11.613281 C 2.707031 -11.613281 2.214844 -11.453125 1.890625 -11.136719 C 1.570312 -10.820312 1.410156 -10.324219 1.410156 -9.65625 L 1.410156 -6.652344 C 1.410156 -6.605469 1.414062 -6.578125 1.425781 -6.566406 C 1.433594 -6.554688 1.460938 -6.539062 1.503906 -6.523438 L 6.046875 -5.046875 L 6.046875 -2.898438 C 6.046875 -2.519531 5.9375 -2.21875 5.714844 -1.996094 C 5.492188 -1.773438 5.191406 -1.664062 4.808594 -1.664062 L 3.871094 -1.664062 C 3.492188 -1.664062 3.191406 -1.773438 2.96875 -1.996094 C 2.746094 -2.21875 2.636719 -2.519531 2.636719 -2.898438 L 2.636719 -3.628906 C 2.636719 -3.617188 2.636719 -3.601562 2.644531 -3.578125 C 2.660156 -3.53125 2.6875 -3.492188 2.726562 -3.453125 C 2.761719 -3.417969 2.804688 -3.390625 2.851562 -3.375 C 2.871094 -3.367188 2.886719 -3.363281 2.898438 -3.363281 L 1.144531 -3.363281 C 1.160156 -3.363281 1.175781 -3.367188 1.195312 -3.375 C 1.242188 -3.390625 1.285156 -3.417969 1.320312 -3.453125 C 1.359375 -3.492188 1.386719 -3.53125 1.402344 -3.578125 C 1.40625 -3.601562 1.410156 -3.617188 1.410156 -3.628906 L 1.410156 -2.5 C 1.410156 -1.839844 1.570312 -1.347656 1.894531 -1.027344 C 2.21875 -0.703125 2.707031 -0.542969 3.367188 -0.542969 L 5.3125 -0.542969 C 5.984375 -0.542969 6.476562 -0.703125 6.792969 -1.023438 C 7.113281 -1.347656 7.273438 -1.839844 7.273438 -2.5 L 7.273438 -5.765625 C 7.273438 -5.8125 7.265625 -5.84375 7.257812 -5.855469 C 7.25 -5.867188 7.230469 -5.878906 7.195312 -5.890625 L 2.617188 -7.367188 L 2.617188 -9.238281 C 2.617188 -9.621094 2.730469 -9.921875 2.949219 -10.144531 C 3.171875 -10.363281 3.472656 -10.476562 3.855469 -10.476562 L 4.808594 -10.476562 C 5.191406 -10.476562 5.492188 -10.363281 5.714844 -10.144531 C 5.9375 -9.921875 6.046875 -9.621094 6.046875 -9.238281 L 6.046875 -8.507812 C 6.046875 -8.519531 6.042969 -8.539062 6.035156 -8.558594 C 6.023438 -8.605469 5.996094 -8.648438 5.957031 -8.683594 C 5.921875 -8.722656 5.878906 -8.746094 5.832031 -8.761719 C 5.8125 -8.769531 5.796875 -8.773438 5.78125 -8.773438 L 7.535156 -8.773438 C 7.523438 -8.773438 7.507812 -8.769531 7.488281 -8.761719 C 7.441406 -8.746094 7.398438 -8.722656 7.359375 -8.683594 C 7.324219 -8.648438 7.296875 -8.605469 7.28125 -8.558594 C 7.273438 -8.539062 7.273438 -8.519531 7.273438 -8.507812 L 7.273438 -9.65625 C 7.273438 -10.328125 7.113281 -10.820312 6.796875 -11.136719 C 6.480469 -11.453125 5.984375 -11.613281 5.3125 -11.613281 Z M 3.367188 -11.613281 "/></g></g><g style="fill:#b21a22;fill-opacity:1;"><g transform="translate(42.179228, 30.61266)"><path style="stroke:none" d="M 0.324219 -2.5 L 0.324219 -9.65625 C 0.324219 -10.628906 0.59375 -11.378906 1.128906 -11.910156 C 1.664062 -12.433594 2.410156 -12.699219 3.367188 -12.699219 L 5.3125 -12.699219 C 6.285156 -12.699219 7.035156 -12.433594 7.5625 -11.90625 C 8.09375 -11.378906 8.355469 -10.625 8.355469 -9.65625 L 8.355469 -2.5 C 8.355469 -1.542969 8.09375 -0.796875 7.566406 -0.261719 C 7.039062 0.273438 6.285156 0.542969 5.3125 0.542969 L 3.367188 0.542969 C 2.410156 0.542969 1.660156 0.277344 1.128906 -0.257812 C 0.59375 -0.792969 0.324219 -1.539062 0.324219 -2.5 Z M 1.410156 -2.5 C 1.410156 -1.839844 1.570312 -1.347656 1.894531 -1.027344 C 2.21875 -0.703125 2.707031 -0.542969 3.367188 -0.542969 L 5.3125 -0.542969 C 5.984375 -0.542969 6.476562 -0.703125 6.792969 -1.023438 C 7.113281 -1.347656 7.273438 -1.839844 7.273438 -2.5 L 7.273438 -9.65625 C 7.273438 -10.328125 7.113281 -10.820312 6.796875 -11.136719 C 6.480469 -11.453125 5.984375 -11.613281 5.3125 -11.613281 L 3.367188 -11.613281 C 2.707031 -11.613281 2.214844 -11.453125 1.890625 -11.136719 C 1.570312 -10.820312 1.410156 -10.324219 1.410156 -9.65625 Z M 3.820312 -2.78125 L 4.933594 -2.78125 C 4.988281 -2.78125 5.03125 -2.789062 5.0625 -2.796875 C 5.070312 -2.800781 5.074219 -2.800781 5.074219 -2.804688 C 5.074219 -2.800781 5.070312 -2.800781 5.070312 -2.796875 C 5.066406 -2.796875 5.066406 -2.792969 5.0625 -2.789062 C 5.066406 -2.792969 5.066406 -2.796875 5.066406 -2.800781 C 5.078125 -2.832031 5.082031 -2.878906 5.082031 -2.933594 L 5.082031 -9.222656 C 5.082031 -9.277344 5.078125 -9.320312 5.066406 -9.351562 C 5.066406 -9.359375 5.066406 -9.363281 5.0625 -9.363281 C 5.066406 -9.363281 5.066406 -9.359375 5.070312 -9.359375 C 5.070312 -9.355469 5.074219 -9.355469 5.074219 -9.351562 C 5.074219 -9.355469 5.070312 -9.355469 5.0625 -9.355469 C 5.03125 -9.367188 4.988281 -9.371094 4.933594 -9.371094 L 3.820312 -9.371094 C 3.761719 -9.371094 3.71875 -9.367188 3.6875 -9.355469 C 3.683594 -9.355469 3.679688 -9.355469 3.675781 -9.351562 C 3.679688 -9.355469 3.679688 -9.355469 3.683594 -9.359375 C 3.6875 -9.359375 3.6875 -9.363281 3.6875 -9.363281 C 3.6875 -9.363281 3.6875 -9.359375 3.683594 -9.351562 C 3.671875 -9.320312 3.667969 -9.277344 3.667969 -9.222656 L 3.667969 -2.933594 C 3.667969 -2.878906 3.671875 -2.832031 3.683594 -2.800781 C 3.6875 -2.796875 3.6875 -2.792969 3.6875 -2.789062 C 3.6875 -2.792969 3.6875 -2.796875 3.683594 -2.796875 C 3.679688 -2.800781 3.679688 -2.800781 3.675781 -2.804688 C 3.679688 -2.800781 3.683594 -2.800781 3.6875 -2.796875 C 3.71875 -2.789062 3.761719 -2.78125 3.820312 -2.78125 Z M 3.820312 -1.699219 C 3.4375 -1.699219 3.136719 -1.808594 2.914062 -2.03125 C 2.695312 -2.25 2.582031 -2.554688 2.582031 -2.933594 L 2.582031 -9.222656 C 2.582031 -9.601562 2.695312 -9.902344 2.914062 -10.125 C 3.136719 -10.347656 3.4375 -10.457031 3.820312 -10.457031 L 4.933594 -10.457031 C 5.3125 -10.457031 5.613281 -10.347656 5.835938 -10.125 C 6.058594 -9.902344 6.167969 -9.601562 6.167969 -9.222656 L 6.167969 -2.933594 C 6.167969 -2.554688 6.058594 -2.25 5.835938 -2.03125 C 5.613281 -1.808594 5.3125 -1.699219 4.933594 -1.699219 Z M 3.820312 -1.699219 "/></g></g><g style="fill:#b21a22;fill-opacity:1;"><g transform="translate(50.859149, 30.61266)"><path style="stroke:none" d="M 6.375 -12.699219 L 8.003906 -12.699219 C 8.246094 -12.699219 8.445312 -12.621094 8.597656 -12.46875 C 8.75 -12.316406 8.824219 -12.121094 8.824219 -11.878906 L 8.824219 -0.277344 C 8.824219 -0.0351562 8.75 0.160156 8.597656 0.3125 C 8.445312 0.464844 8.246094 0.542969 8.003906 0.542969 L 6.632812 0.542969 C 6.445312 0.542969 6.28125 0.488281 6.132812 0.382812 C 6.003906 0.289062 5.902344 0.164062 5.828125 0 L 6.320312 -0.226562 L 5.835938 0.015625 L 2.570312 -6.621094 L 3.054688 -6.859375 L 3.597656 -6.859375 L 3.597656 -0.277344 C 3.597656 -0.0351562 3.523438 0.160156 3.371094 0.3125 C 3.21875 0.464844 3.019531 0.542969 2.777344 0.542969 L 1.144531 0.542969 C 0.902344 0.542969 0.707031 0.464844 0.554688 0.3125 C 0.402344 0.160156 0.324219 -0.0351562 0.324219 -0.277344 L 0.324219 -11.878906 C 0.324219 -12.121094 0.402344 -12.316406 0.554688 -12.46875 C 0.707031 -12.621094 0.902344 -12.699219 1.144531 -12.699219 L 2.519531 -12.699219 C 2.703125 -12.699219 2.871094 -12.644531 3.019531 -12.539062 C 3.148438 -12.445312 3.25 -12.320312 3.324219 -12.15625 L 2.832031 -11.929688 L 3.316406 -12.167969 L 6.582031 -5.535156 L 6.09375 -5.296875 L 5.550781 -5.296875 L 5.550781 -11.878906 C 5.550781 -12.121094 5.628906 -12.316406 5.78125 -12.46875 C 5.933594 -12.621094 6.128906 -12.699219 6.375 -12.699219 Z M 6.375 -11.613281 C 6.386719 -11.613281 6.402344 -11.617188 6.421875 -11.625 C 6.46875 -11.640625 6.511719 -11.664062 6.546875 -11.703125 C 6.585938 -11.738281 6.613281 -11.78125 6.628906 -11.828125 C 6.632812 -11.847656 6.636719 -11.867188 6.636719 -11.878906 L 6.636719 -5.296875 L 5.609375 -5.058594 L 2.339844 -11.695312 L 2.335938 -11.703125 C 2.34375 -11.691406 2.359375 -11.675781 2.382812 -11.660156 C 2.425781 -11.628906 2.46875 -11.613281 2.519531 -11.613281 L 1.144531 -11.613281 C 1.160156 -11.613281 1.175781 -11.617188 1.195312 -11.625 C 1.242188 -11.640625 1.285156 -11.664062 1.320312 -11.703125 C 1.359375 -11.738281 1.386719 -11.78125 1.402344 -11.828125 C 1.40625 -11.847656 1.410156 -11.867188 1.410156 -11.878906 L 1.410156 -0.277344 C 1.410156 -0.289062 1.40625 -0.308594 1.402344 -0.328125 C 1.386719 -0.375 1.359375 -0.414062 1.320312 -0.453125 C 1.285156 -0.492188 1.242188 -0.515625 1.195312 -0.53125 C 1.175781 -0.539062 1.160156 -0.542969 1.144531 -0.542969 L 2.777344 -0.542969 C 2.765625 -0.542969 2.75 -0.539062 2.726562 -0.53125 C 2.683594 -0.515625 2.640625 -0.492188 2.601562 -0.453125 C 2.566406 -0.414062 2.539062 -0.375 2.523438 -0.328125 C 2.515625 -0.308594 2.511719 -0.289062 2.511719 -0.277344 L 2.511719 -6.859375 L 3.542969 -7.097656 L 6.8125 -0.460938 L 6.8125 -0.453125 C 6.808594 -0.464844 6.792969 -0.476562 6.769531 -0.496094 C 6.726562 -0.527344 6.679688 -0.542969 6.632812 -0.542969 L 8.003906 -0.542969 C 7.992188 -0.542969 7.976562 -0.539062 7.957031 -0.53125 C 7.910156 -0.515625 7.867188 -0.492188 7.828125 -0.453125 C 7.792969 -0.414062 7.765625 -0.375 7.75 -0.328125 C 7.742188 -0.308594 7.742188 -0.289062 7.742188 -0.277344 L 7.742188 -11.878906 C 7.742188 -11.867188 7.742188 -11.847656 7.75 -11.828125 C 7.765625 -11.78125 7.792969 -11.738281 7.828125 -11.703125 C 7.867188 -11.664062 7.910156 -11.640625 7.957031 -11.625 C 7.976562 -11.617188 7.992188 -11.613281 8.003906 -11.613281 Z M 6.375 -11.613281 "/></g></g><g style="fill:#b21a22;fill-opacity:1;"><g transform="translate(60.007789, 30.61266)"><path style="stroke:none" d="M -0.542969 2.328125 L -0.542969 0.730469 C -0.542969 0.464844 -0.460938 0.25 -0.296875 0.0859375 C -0.132812 -0.078125 0.0820312 -0.160156 0.347656 -0.160156 L 10.820312 -0.160156 C 11.085938 -0.160156 11.300781 -0.078125 11.460938 0.0859375 C 11.625 0.25 11.707031 0.464844 11.707031 0.730469 L 11.707031 2.328125 C 11.707031 2.59375 11.625 2.808594 11.460938 2.972656 C 11.300781 3.136719 11.085938 3.21875 10.820312 3.21875 L 0.347656 3.21875 C 0.0820312 3.21875 -0.132812 3.136719 -0.296875 2.972656 C -0.460938 2.808594 -0.542969 2.59375 -0.542969 2.328125 Z M 0.542969 2.328125 C 0.542969 2.328125 0.542969 2.332031 0.542969 2.332031 C 0.542969 2.324219 0.539062 2.316406 0.535156 2.308594 C 0.523438 2.269531 0.503906 2.234375 0.46875 2.203125 C 0.4375 2.171875 0.40625 2.148438 0.367188 2.136719 C 0.359375 2.132812 0.351562 2.132812 0.34375 2.132812 C 0.34375 2.132812 0.339844 2.132812 0.339844 2.132812 C 0.34375 2.132812 0.34375 2.132812 0.347656 2.132812 L 10.820312 2.132812 C 10.820312 2.132812 10.824219 2.132812 10.824219 2.132812 C 10.816406 2.132812 10.808594 2.132812 10.800781 2.136719 C 10.761719 2.148438 10.726562 2.171875 10.695312 2.203125 C 10.664062 2.234375 10.640625 2.269531 10.628906 2.308594 C 10.625 2.316406 10.625 2.324219 10.625 2.332031 C 10.625 2.332031 10.625 2.328125 10.625 2.328125 L 10.625 0.730469 C 10.625 0.726562 10.625 0.726562 10.625 0.722656 C 10.625 0.722656 10.625 0.722656 10.625 0.726562 C 10.625 0.730469 10.625 0.738281 10.628906 0.75 C 10.640625 0.785156 10.664062 0.820312 10.695312 0.851562 C 10.726562 0.882812 10.761719 0.90625 10.800781 0.917969 C 10.808594 0.921875 10.816406 0.921875 10.824219 0.925781 C 10.824219 0.925781 10.820312 0.925781 10.820312 0.925781 L 0.347656 0.925781 C 0.34375 0.925781 0.34375 0.925781 0.339844 0.925781 C 0.339844 0.925781 0.34375 0.925781 0.34375 0.925781 C 0.351562 0.921875 0.359375 0.921875 0.367188 0.917969 C 0.40625 0.90625 0.4375 0.882812 0.46875 0.851562 C 0.503906 0.820312 0.523438 0.785156 0.535156 0.75 C 0.539062 0.738281 0.542969 0.730469 0.542969 0.726562 C 0.542969 0.722656 0.542969 0.722656 0.542969 0.722656 C 0.542969 0.726562 0.542969 0.726562 0.542969 0.730469 Z M 0.542969 2.328125 "/></g></g><g style="fill:#b21a22;fill-opacity:1;"><g transform="translate(13.560257, 54.822881)"><path style="stroke:none" d="M 3.367188 -12.699219 L 5.3125 -12.699219 C 6.285156 -12.699219 7.035156 -12.433594 7.5625 -11.90625 C 8.09375 -11.378906 8.355469 -10.625 8.355469 -9.65625 L 8.355469 -8.507812 C 8.355469 -8.265625 8.28125 -8.070312 8.128906 -7.917969 C 7.976562 -7.765625 7.777344 -7.6875 7.535156 -7.6875 L 5.78125 -7.6875 C 5.539062 -7.6875 5.34375 -7.765625 5.191406 -7.917969 C 5.039062 -8.070312 4.960938 -8.265625 4.960938 -8.507812 L 4.960938 -9.238281 C 4.960938 -9.296875 4.957031 -9.339844 4.945312 -9.371094 C 4.945312 -9.375 4.941406 -9.378906 4.941406 -9.382812 C 4.941406 -9.378906 4.945312 -9.378906 4.949219 -9.375 C 4.949219 -9.371094 4.953125 -9.371094 4.953125 -9.371094 C 4.953125 -9.371094 4.949219 -9.371094 4.941406 -9.375 C 4.910156 -9.386719 4.867188 -9.390625 4.808594 -9.390625 L 3.855469 -9.390625 C 3.796875 -9.390625 3.753906 -9.386719 3.722656 -9.375 C 3.71875 -9.371094 3.714844 -9.371094 3.710938 -9.371094 C 3.714844 -9.371094 3.714844 -9.371094 3.71875 -9.375 C 3.71875 -9.378906 3.722656 -9.378906 3.722656 -9.382812 C 3.722656 -9.378906 3.71875 -9.375 3.71875 -9.371094 C 3.707031 -9.339844 3.703125 -9.296875 3.703125 -9.238281 L 3.703125 -7.761719 L 3.160156 -7.761719 L 3.328125 -8.277344 L 7.53125 -6.925781 C 7.796875 -6.832031 8.003906 -6.683594 8.144531 -6.480469 C 8.285156 -6.28125 8.355469 -6.042969 8.355469 -5.765625 L 8.355469 -2.5 C 8.355469 -1.542969 8.09375 -0.796875 7.566406 -0.261719 C 7.039062 0.273438 6.285156 0.542969 5.3125 0.542969 L 3.367188 0.542969 C 2.410156 0.542969 1.660156 0.277344 1.128906 -0.257812 C 0.59375 -0.792969 0.324219 -1.539062 0.324219 -2.5 L 0.324219 -3.628906 C 0.324219 -3.871094 0.402344 -4.070312 0.554688 -4.222656 C 0.707031 -4.375 0.902344 -4.449219 1.144531 -4.449219 L 2.898438 -4.449219 C 3.140625 -4.449219 3.339844 -4.375 3.492188 -4.222656 C 3.644531 -4.070312 3.71875 -3.871094 3.71875 -3.628906 L 3.71875 -2.898438 C 3.71875 -2.84375 3.726562 -2.800781 3.734375 -2.769531 C 3.738281 -2.761719 3.738281 -2.757812 3.742188 -2.757812 C 3.738281 -2.757812 3.738281 -2.761719 3.734375 -2.761719 C 3.734375 -2.765625 3.730469 -2.765625 3.726562 -2.769531 C 3.730469 -2.765625 3.734375 -2.765625 3.738281 -2.761719 C 3.769531 -2.753906 3.816406 -2.75 3.871094 -2.75 L 4.808594 -2.75 C 4.867188 -2.75 4.910156 -2.753906 4.941406 -2.761719 C 4.949219 -2.765625 4.953125 -2.765625 4.953125 -2.769531 C 4.953125 -2.765625 4.949219 -2.765625 4.949219 -2.761719 C 4.945312 -2.761719 4.941406 -2.757812 4.941406 -2.757812 C 4.941406 -2.757812 4.945312 -2.761719 4.945312 -2.769531 C 4.957031 -2.800781 4.960938 -2.84375 4.960938 -2.898438 L 4.960938 -4.652344 L 5.503906 -4.652344 L 5.335938 -4.136719 L 1.167969 -5.492188 C 0.902344 -5.582031 0.695312 -5.726562 0.546875 -5.925781 C 0.398438 -6.128906 0.324219 -6.371094 0.324219 -6.652344 L 0.324219 -9.65625 C 0.324219 -10.628906 0.59375 -11.378906 1.128906 -11.910156 C 1.664062 -12.433594 2.410156 -12.699219 3.367188 -12.699219 Z M 3.367188 -11.613281 C 2.707031 -11.613281 2.214844 -11.453125 1.890625 -11.136719 C 1.570312 -10.820312 1.410156 -10.324219 1.410156 -9.65625 L 1.410156 -6.652344 C 1.410156 -6.605469 1.414062 -6.578125 1.425781 -6.566406 C 1.433594 -6.554688 1.460938 -6.539062 1.503906 -6.523438 L 6.046875 -5.046875 L 6.046875 -2.898438 C 6.046875 -2.519531 5.9375 -2.21875 5.714844 -1.996094 C 5.492188 -1.773438 5.191406 -1.664062 4.808594 -1.664062 L 3.871094 -1.664062 C 3.492188 -1.664062 3.191406 -1.773438 2.96875 -1.996094 C 2.746094 -2.21875 2.636719 -2.519531 2.636719 -2.898438 L 2.636719 -3.628906 C 2.636719 -3.617188 2.636719 -3.601562 2.644531 -3.578125 C 2.660156 -3.53125 2.6875 -3.492188 2.726562 -3.453125 C 2.761719 -3.417969 2.804688 -3.390625 2.851562 -3.375 C 2.871094 -3.367188 2.886719 -3.363281 2.898438 -3.363281 L 1.144531 -3.363281 C 1.160156 -3.363281 1.175781 -3.367188 1.195312 -3.375 C 1.242188 -3.390625 1.285156 -3.417969 1.320312 -3.453125 C 1.359375 -3.492188 1.386719 -3.53125 1.402344 -3.578125 C 1.40625 -3.601562 1.410156 -3.617188 1.410156 -3.628906 L 1.410156 -2.5 C 1.410156 -1.839844 1.570312 -1.347656 1.894531 -1.027344 C 2.21875 -0.703125 2.707031 -0.542969 3.367188 -0.542969 L 5.3125 -0.542969 C 5.984375 -0.542969 6.476562 -0.703125 6.792969 -1.023438 C 7.113281 -1.347656 7.273438 -1.839844 7.273438 -2.5 L 7.273438 -5.765625 C 7.273438 -5.8125 7.265625 -5.84375 7.257812 -5.855469 C 7.25 -5.867188 7.230469 -5.878906 7.195312 -5.890625 L 2.617188 -7.367188 L 2.617188 -9.238281 C 2.617188 -9.621094 2.730469 -9.921875 2.949219 -10.144531 C 3.171875 -10.363281 3.472656 -10.476562 3.855469 -10.476562 L 4.808594 -10.476562 C 5.191406 -10.476562 5.492188 -10.363281 5.714844 -10.144531 C 5.9375 -9.921875 6.046875 -9.621094 6.046875 -9.238281 L 6.046875 -8.507812 C 6.046875 -8.519531 6.042969 -8.539062 6.035156 -8.558594 C 6.023438 -8.605469 5.996094 -8.648438 5.957031 -8.683594 C 5.921875 -8.722656 5.878906 -8.746094 5.832031 -8.761719 C 5.8125 -8.769531 5.796875 -8.773438 5.78125 -8.773438 L 7.535156 -8.773438 C 7.523438 -8.773438 7.507812 -8.769531 7.488281 -8.761719 C 7.441406 -8.746094 7.398438 -8.722656 7.359375 -8.683594 C 7.324219 -8.648438 7.296875 -8.605469 7.28125 -8.558594 C 7.273438 -8.539062 7.273438 -8.519531 7.273438 -8.507812 L 7.273438 -9.65625 C 7.273438 -10.328125 7.113281 -10.820312 6.796875 -11.136719 C 6.480469 -11.453125 5.984375 -11.613281 5.3125 -11.613281 Z M 3.367188 -11.613281 "/></g></g><g style="fill:#b21a22;fill-opacity:1;"><g transform="translate(22.240178, 54.822881)"><path style="stroke:none" d="M 8.375 -9.65625 L 8.375 -7.78125 C 8.375 -7.539062 8.296875 -7.339844 8.144531 -7.1875 C 7.992188 -7.035156 7.796875 -6.960938 7.554688 -6.960938 L 5.921875 -6.960938 C 5.679688 -6.960938 5.480469 -7.035156 5.328125 -7.1875 C 5.175781 -7.339844 5.101562 -7.539062 5.101562 -7.78125 L 5.101562 -9.203125 C 5.101562 -9.261719 5.097656 -9.304688 5.085938 -9.335938 C 5.082031 -9.339844 5.082031 -9.34375 5.082031 -9.347656 C 5.082031 -9.34375 5.082031 -9.34375 5.085938 -9.339844 C 5.089844 -9.339844 5.089844 -9.335938 5.09375 -9.335938 C 5.089844 -9.335938 5.085938 -9.339844 5.082031 -9.339844 C 5.050781 -9.351562 5.007812 -9.355469 4.949219 -9.355469 L 3.835938 -9.355469 C 3.78125 -9.355469 3.738281 -9.351562 3.707031 -9.339844 C 3.699219 -9.339844 3.695312 -9.335938 3.695312 -9.335938 C 3.695312 -9.335938 3.699219 -9.339844 3.699219 -9.339844 C 3.703125 -9.34375 3.703125 -9.34375 3.707031 -9.347656 C 3.703125 -9.34375 3.703125 -9.339844 3.703125 -9.335938 C 3.691406 -9.304688 3.6875 -9.261719 3.6875 -9.203125 L 3.6875 -2.898438 C 3.6875 -2.84375 3.691406 -2.800781 3.703125 -2.769531 C 3.703125 -2.761719 3.703125 -2.757812 3.707031 -2.757812 C 3.703125 -2.757812 3.703125 -2.761719 3.699219 -2.761719 C 3.699219 -2.765625 3.695312 -2.765625 3.695312 -2.769531 C 3.695312 -2.765625 3.699219 -2.765625 3.707031 -2.761719 C 3.738281 -2.753906 3.78125 -2.75 3.835938 -2.75 L 4.949219 -2.75 C 5.007812 -2.75 5.050781 -2.753906 5.082031 -2.761719 C 5.085938 -2.765625 5.089844 -2.765625 5.09375 -2.769531 C 5.089844 -2.765625 5.089844 -2.765625 5.085938 -2.761719 C 5.082031 -2.761719 5.082031 -2.757812 5.082031 -2.757812 C 5.082031 -2.757812 5.082031 -2.761719 5.085938 -2.769531 C 5.097656 -2.800781 5.101562 -2.84375 5.101562 -2.898438 L 5.101562 -4.375 C 5.101562 -4.617188 5.175781 -4.816406 5.328125 -4.96875 C 5.480469 -5.121094 5.679688 -5.195312 5.921875 -5.195312 L 7.554688 -5.195312 C 7.796875 -5.195312 7.992188 -5.121094 8.144531 -4.96875 C 8.296875 -4.816406 8.375 -4.617188 8.375 -4.375 L 8.375 -2.5 C 8.375 -1.539062 8.105469 -0.792969 7.574219 -0.257812 C 7.039062 0.277344 6.292969 0.542969 5.332031 0.542969 L 3.386719 0.542969 C 2.425781 0.542969 1.679688 0.277344 1.136719 -0.257812 C 0.597656 -0.789062 0.324219 -1.539062 0.324219 -2.5 L 0.324219 -9.65625 C 0.324219 -10.628906 0.597656 -11.382812 1.140625 -11.910156 C 1.679688 -12.4375 2.429688 -12.699219 3.386719 -12.699219 L 5.332031 -12.699219 C 6.289062 -12.699219 7.035156 -12.433594 7.570312 -11.910156 C 8.105469 -11.378906 8.375 -10.628906 8.375 -9.65625 Z M 7.289062 -9.65625 C 7.289062 -10.324219 7.128906 -10.820312 6.808594 -11.136719 C 6.484375 -11.453125 5.992188 -11.613281 5.332031 -11.613281 L 3.386719 -11.613281 C 2.722656 -11.613281 2.226562 -11.453125 1.898438 -11.132812 C 1.574219 -10.816406 1.410156 -10.324219 1.410156 -9.65625 L 1.410156 -2.5 C 1.410156 -1.839844 1.574219 -1.351562 1.902344 -1.027344 C 2.230469 -0.703125 2.722656 -0.542969 3.386719 -0.542969 L 5.332031 -0.542969 C 5.992188 -0.542969 6.484375 -0.703125 6.804688 -1.027344 C 7.128906 -1.347656 7.289062 -1.839844 7.289062 -2.5 L 7.289062 -4.375 C 7.289062 -4.363281 7.292969 -4.347656 7.300781 -4.324219 C 7.316406 -4.28125 7.339844 -4.238281 7.378906 -4.199219 C 7.414062 -4.164062 7.457031 -4.136719 7.503906 -4.121094 C 7.523438 -4.113281 7.542969 -4.109375 7.554688 -4.109375 L 5.921875 -4.109375 C 5.933594 -4.109375 5.949219 -4.113281 5.972656 -4.121094 C 6.019531 -4.136719 6.058594 -4.164062 6.097656 -4.199219 C 6.132812 -4.238281 6.160156 -4.28125 6.175781 -4.324219 C 6.183594 -4.347656 6.1875 -4.363281 6.1875 -4.375 L 6.1875 -2.898438 C 6.1875 -2.519531 6.074219 -2.21875 5.855469 -1.996094 C 5.632812 -1.773438 5.332031 -1.664062 4.949219 -1.664062 L 3.835938 -1.664062 C 3.457031 -1.664062 3.15625 -1.773438 2.933594 -1.996094 C 2.710938 -2.21875 2.601562 -2.519531 2.601562 -2.898438 L 2.601562 -9.203125 C 2.601562 -9.585938 2.710938 -9.886719 2.933594 -10.109375 C 3.15625 -10.328125 3.457031 -10.441406 3.835938 -10.441406 L 4.949219 -10.441406 C 5.332031 -10.441406 5.632812 -10.328125 5.855469 -10.109375 C 6.074219 -9.886719 6.1875 -9.585938 6.1875 -9.203125 L 6.1875 -7.78125 C 6.1875 -7.792969 6.183594 -7.808594 6.175781 -7.828125 C 6.160156 -7.875 6.132812 -7.917969 6.097656 -7.953125 C 6.058594 -7.992188 6.019531 -8.019531 5.972656 -8.035156 C 5.949219 -8.042969 5.933594 -8.042969 5.921875 -8.042969 L 7.554688 -8.042969 C 7.542969 -8.042969 7.523438 -8.042969 7.503906 -8.035156 C 7.457031 -8.019531 7.414062 -7.992188 7.378906 -7.953125 C 7.339844 -7.917969 7.316406 -7.875 7.300781 -7.828125 C 7.292969 -7.808594 7.289062 -7.792969 7.289062 -7.78125 Z M 7.289062 -9.65625 "/></g></g><g style="fill:#b21a22;fill-opacity:1;"><g transform="translate(30.937462, 54.822881)"><path style="stroke:none" d="M 4.910156 -7.1875 L 4.910156 -11.878906 C 4.910156 -12.121094 4.984375 -12.316406 5.136719 -12.46875 C 5.289062 -12.621094 5.488281 -12.699219 5.730469 -12.699219 L 7.519531 -12.699219 C 7.761719 -12.699219 7.957031 -12.625 8.113281 -12.480469 C 8.277344 -12.328125 8.355469 -12.125 8.355469 -11.878906 L 8.355469 -0.277344 C 8.355469 -0.0273438 8.277344 0.171875 8.113281 0.324219 C 7.957031 0.46875 7.761719 0.542969 7.519531 0.542969 L 5.730469 0.542969 C 5.488281 0.542969 5.289062 0.464844 5.136719 0.3125 C 4.984375 0.160156 4.910156 -0.0351562 4.910156 -0.277344 L 4.910156 -4.898438 L 5.453125 -4.898438 L 5.453125 -4.355469 L 3.230469 -4.355469 L 3.230469 -4.898438 L 3.773438 -4.898438 L 3.773438 -0.277344 C 3.773438 -0.0351562 3.695312 0.160156 3.542969 0.3125 C 3.390625 0.464844 3.195312 0.542969 2.953125 0.542969 L 1.164062 0.542969 C 0.921875 0.542969 0.722656 0.46875 0.570312 0.324219 C 0.40625 0.171875 0.324219 -0.0273438 0.324219 -0.277344 L 0.324219 -11.878906 C 0.324219 -12.125 0.40625 -12.328125 0.570312 -12.480469 C 0.722656 -12.625 0.921875 -12.699219 1.164062 -12.699219 L 2.953125 -12.699219 C 3.195312 -12.699219 3.390625 -12.621094 3.542969 -12.46875 C 3.695312 -12.316406 3.773438 -12.121094 3.773438 -11.878906 L 3.773438 -7.1875 L 3.230469 -7.1875 L 3.230469 -7.730469 L 5.453125 -7.730469 L 5.453125 -7.1875 Z M 5.996094 -6.648438 L 2.6875 -6.648438 L 2.6875 -11.878906 C 2.6875 -11.867188 2.691406 -11.847656 2.699219 -11.828125 C 2.714844 -11.78125 2.738281 -11.738281 2.777344 -11.703125 C 2.8125 -11.664062 2.855469 -11.640625 2.902344 -11.625 C 2.921875 -11.617188 2.941406 -11.613281 2.953125 -11.613281 L 1.164062 -11.613281 C 1.167969 -11.613281 1.179688 -11.617188 1.195312 -11.621094 C 1.238281 -11.632812 1.277344 -11.65625 1.3125 -11.691406 C 1.351562 -11.726562 1.382812 -11.769531 1.398438 -11.816406 C 1.40625 -11.84375 1.410156 -11.863281 1.410156 -11.878906 L 1.410156 -0.277344 C 1.410156 -0.292969 1.40625 -0.3125 1.398438 -0.335938 C 1.382812 -0.386719 1.351562 -0.429688 1.3125 -0.464844 C 1.277344 -0.5 1.238281 -0.523438 1.195312 -0.535156 C 1.179688 -0.539062 1.167969 -0.542969 1.164062 -0.542969 L 2.953125 -0.542969 C 2.941406 -0.542969 2.921875 -0.539062 2.902344 -0.53125 C 2.855469 -0.515625 2.8125 -0.492188 2.777344 -0.453125 C 2.738281 -0.414062 2.714844 -0.375 2.699219 -0.328125 C 2.691406 -0.308594 2.6875 -0.289062 2.6875 -0.277344 L 2.6875 -5.441406 L 5.996094 -5.441406 L 5.996094 -0.277344 C 5.996094 -0.289062 5.992188 -0.308594 5.984375 -0.328125 C 5.96875 -0.375 5.941406 -0.414062 5.90625 -0.453125 C 5.867188 -0.492188 5.828125 -0.515625 5.78125 -0.53125 C 5.757812 -0.539062 5.742188 -0.542969 5.730469 -0.542969 L 7.519531 -0.542969 C 7.511719 -0.542969 7.5 -0.539062 7.484375 -0.535156 C 7.445312 -0.523438 7.40625 -0.5 7.367188 -0.464844 C 7.328125 -0.429688 7.300781 -0.386719 7.285156 -0.335938 C 7.277344 -0.3125 7.273438 -0.292969 7.273438 -0.277344 L 7.273438 -11.878906 C 7.273438 -11.863281 7.277344 -11.84375 7.285156 -11.816406 C 7.300781 -11.769531 7.328125 -11.726562 7.367188 -11.691406 C 7.40625 -11.65625 7.445312 -11.632812 7.484375 -11.621094 C 7.5 -11.617188 7.511719 -11.613281 7.519531 -11.613281 L 5.730469 -11.613281 C 5.742188 -11.613281 5.757812 -11.617188 5.78125 -11.625 C 5.828125 -11.640625 5.867188 -11.664062 5.90625 -11.703125 C 5.941406 -11.738281 5.96875 -11.78125 5.984375 -11.828125 C 5.992188 -11.847656 5.996094 -11.867188 5.996094 -11.878906 Z M 5.996094 -6.648438 "/></g></g><g style="fill:#b21a22;fill-opacity:1;"><g transform="translate(39.617383, 54.822881)"><path style="stroke:none" d="M 8.339844 -11.878906 L 8.339844 -10.140625 C 8.339844 -9.898438 8.265625 -9.703125 8.121094 -9.546875 C 7.96875 -9.386719 7.769531 -9.304688 7.519531 -9.304688 L 3.230469 -9.304688 L 3.230469 -9.847656 L 3.773438 -9.847656 L 3.773438 -7.171875 L 3.230469 -7.171875 L 3.230469 -7.714844 L 6.496094 -7.714844 C 6.742188 -7.714844 6.945312 -7.632812 7.097656 -7.46875 C 7.242188 -7.316406 7.316406 -7.117188 7.316406 -6.875 L 7.316406 -5.15625 C 7.316406 -4.914062 7.242188 -4.71875 7.097656 -4.5625 C 6.945312 -4.402344 6.742188 -4.320312 6.496094 -4.320312 L 3.230469 -4.320312 L 3.230469 -4.863281 L 3.773438 -4.863281 L 3.773438 -2.292969 L 3.230469 -2.292969 L 3.230469 -2.835938 L 7.519531 -2.835938 C 7.761719 -2.835938 7.960938 -2.757812 8.109375 -2.605469 C 8.261719 -2.453125 8.339844 -2.257812 8.339844 -2.015625 L 8.339844 -0.277344 C 8.339844 -0.0351562 8.261719 0.160156 8.109375 0.3125 C 7.960938 0.464844 7.761719 0.542969 7.519531 0.542969 L 1.128906 0.542969 C 0.886719 0.542969 0.6875 0.460938 0.539062 0.300781 C 0.394531 0.152344 0.324219 -0.0429688 0.324219 -0.277344 L 0.324219 -11.878906 C 0.324219 -12.113281 0.394531 -12.308594 0.539062 -12.457031 C 0.6875 -12.617188 0.886719 -12.699219 1.128906 -12.699219 L 7.519531 -12.699219 C 7.761719 -12.699219 7.960938 -12.621094 8.109375 -12.46875 C 8.261719 -12.316406 8.339844 -12.121094 8.339844 -11.878906 Z M 7.253906 -11.878906 C 7.253906 -11.867188 7.257812 -11.847656 7.265625 -11.828125 C 7.28125 -11.78125 7.304688 -11.738281 7.34375 -11.703125 C 7.382812 -11.664062 7.421875 -11.640625 7.46875 -11.625 C 7.488281 -11.617188 7.507812 -11.613281 7.519531 -11.613281 L 1.128906 -11.613281 C 1.199219 -11.613281 1.265625 -11.648438 1.328125 -11.714844 C 1.363281 -11.753906 1.390625 -11.792969 1.402344 -11.835938 C 1.40625 -11.855469 1.410156 -11.867188 1.410156 -11.878906 L 1.410156 -0.277344 C 1.410156 -0.285156 1.40625 -0.300781 1.402344 -0.316406 C 1.390625 -0.363281 1.363281 -0.402344 1.328125 -0.441406 C 1.265625 -0.507812 1.199219 -0.542969 1.128906 -0.542969 L 7.519531 -0.542969 C 7.507812 -0.542969 7.488281 -0.539062 7.46875 -0.53125 C 7.421875 -0.515625 7.382812 -0.492188 7.34375 -0.453125 C 7.304688 -0.414062 7.28125 -0.375 7.265625 -0.328125 C 7.257812 -0.308594 7.253906 -0.289062 7.253906 -0.277344 L 7.253906 -2.015625 C 7.253906 -2.003906 7.257812 -1.984375 7.265625 -1.964844 C 7.28125 -1.917969 7.304688 -1.875 7.34375 -1.839844 C 7.382812 -1.800781 7.421875 -1.777344 7.46875 -1.761719 C 7.488281 -1.753906 7.507812 -1.75 7.519531 -1.75 L 2.6875 -1.75 L 2.6875 -5.40625 L 6.496094 -5.40625 C 6.480469 -5.40625 6.457031 -5.402344 6.433594 -5.390625 C 6.386719 -5.375 6.34375 -5.347656 6.308594 -5.308594 C 6.273438 -5.273438 6.25 -5.234375 6.238281 -5.191406 C 6.230469 -5.175781 6.230469 -5.164062 6.230469 -5.15625 L 6.230469 -6.875 C 6.230469 -6.871094 6.230469 -6.859375 6.238281 -6.84375 C 6.25 -6.800781 6.273438 -6.761719 6.308594 -6.726562 C 6.34375 -6.6875 6.386719 -6.660156 6.433594 -6.640625 C 6.457031 -6.632812 6.480469 -6.628906 6.496094 -6.628906 L 2.6875 -6.628906 L 2.6875 -10.390625 L 7.519531 -10.390625 C 7.503906 -10.390625 7.484375 -10.382812 7.460938 -10.375 C 7.410156 -10.359375 7.371094 -10.332031 7.332031 -10.292969 C 7.296875 -10.257812 7.273438 -10.21875 7.261719 -10.175781 C 7.257812 -10.160156 7.253906 -10.148438 7.253906 -10.140625 Z M 7.253906 -11.878906 "/></g></g><g style="fill:#b21a22;fill-opacity:1;"><g transform="translate(48.279942, 54.822881)"><path style="stroke:none" d="M 8.128906 -12.699219 L 10.417969 -12.699219 C 10.683594 -12.699219 10.898438 -12.617188 11.0625 -12.453125 C 11.226562 -12.289062 11.308594 -12.074219 11.308594 -11.808594 L 11.308594 -0.347656 C 11.308594 -0.0820312 11.226562 0.132812 11.0625 0.296875 C 10.898438 0.460938 10.683594 0.542969 10.417969 0.542969 L 8.804688 0.542969 C 8.539062 0.542969 8.324219 0.460938 8.160156 0.296875 C 7.996094 0.132812 7.914062 -0.0820312 7.914062 -0.347656 L 7.914062 -7.171875 L 8.457031 -7.171875 L 8.457031 -6.628906 L 8.335938 -6.628906 L 8.335938 -7.171875 L 8.863281 -7.046875 L 7.226562 -0.15625 L 7.222656 -0.140625 C 7.160156 0.0703125 7.050781 0.234375 6.894531 0.355469 C 6.734375 0.480469 6.542969 0.542969 6.320312 0.542969 L 5.296875 0.542969 C 5.074219 0.542969 4.882812 0.480469 4.722656 0.355469 C 4.566406 0.234375 4.457031 0.0703125 4.394531 -0.140625 L 4.390625 -0.15625 L 2.753906 -7.046875 L 3.28125 -7.171875 L 3.28125 -6.628906 L 3.160156 -6.628906 L 3.160156 -7.171875 L 3.703125 -7.171875 L 3.703125 -0.347656 C 3.703125 -0.0820312 3.621094 0.132812 3.457031 0.296875 C 3.292969 0.460938 3.078125 0.542969 2.8125 0.542969 L 1.214844 0.542969 C 0.949219 0.542969 0.734375 0.460938 0.570312 0.296875 C 0.40625 0.132812 0.324219 -0.0820312 0.324219 -0.347656 L 0.324219 -11.808594 C 0.324219 -12.074219 0.40625 -12.289062 0.570312 -12.453125 C 0.734375 -12.617188 0.949219 -12.699219 1.214844 -12.699219 L 3.507812 -12.699219 C 3.730469 -12.699219 3.921875 -12.636719 4.082031 -12.511719 C 4.238281 -12.390625 4.347656 -12.222656 4.410156 -12.011719 L 4.414062 -12.003906 L 6.34375 -4.246094 L 5.816406 -4.117188 L 5.289062 -4.246094 L 7.222656 -12.003906 L 7.222656 -12.011719 C 7.285156 -12.222656 7.394531 -12.390625 7.550781 -12.511719 C 7.714844 -12.636719 7.90625 -12.699219 8.128906 -12.699219 Z M 8.128906 -11.613281 C 8.152344 -11.613281 8.183594 -11.625 8.214844 -11.652344 C 8.234375 -11.667969 8.25 -11.683594 8.261719 -11.703125 C 8.265625 -11.707031 8.265625 -11.710938 8.265625 -11.710938 C 8.265625 -11.710938 8.265625 -11.710938 8.265625 -11.707031 L 7.746094 -11.859375 L 8.273438 -11.730469 L 6.34375 -3.984375 L 5.289062 -3.984375 L 3.363281 -11.730469 L 3.890625 -11.859375 L 3.371094 -11.707031 C 3.367188 -11.710938 3.367188 -11.710938 3.367188 -11.710938 C 3.367188 -11.710938 3.371094 -11.707031 3.375 -11.703125 C 3.386719 -11.683594 3.398438 -11.667969 3.417969 -11.652344 C 3.453125 -11.625 3.484375 -11.613281 3.507812 -11.613281 L 1.214844 -11.613281 C 1.214844 -11.613281 1.210938 -11.613281 1.210938 -11.613281 C 1.21875 -11.613281 1.226562 -11.617188 1.234375 -11.621094 C 1.273438 -11.632812 1.308594 -11.652344 1.339844 -11.683594 C 1.371094 -11.714844 1.390625 -11.75 1.40625 -11.789062 C 1.40625 -11.796875 1.410156 -11.804688 1.410156 -11.8125 C 1.410156 -11.8125 1.410156 -11.8125 1.410156 -11.808594 L 1.410156 -0.347656 C 1.410156 -0.34375 1.410156 -0.34375 1.410156 -0.339844 C 1.410156 -0.339844 1.410156 -0.34375 1.410156 -0.34375 C 1.410156 -0.351562 1.40625 -0.359375 1.40625 -0.367188 C 1.390625 -0.40625 1.371094 -0.4375 1.339844 -0.46875 C 1.308594 -0.503906 1.273438 -0.523438 1.234375 -0.535156 C 1.226562 -0.539062 1.21875 -0.542969 1.210938 -0.542969 C 1.210938 -0.542969 1.214844 -0.542969 1.214844 -0.542969 L 2.8125 -0.542969 C 2.816406 -0.542969 2.816406 -0.542969 2.820312 -0.542969 C 2.820312 -0.542969 2.820312 -0.542969 2.816406 -0.542969 C 2.8125 -0.542969 2.804688 -0.539062 2.792969 -0.535156 C 2.757812 -0.523438 2.722656 -0.503906 2.691406 -0.46875 C 2.660156 -0.4375 2.636719 -0.40625 2.625 -0.367188 C 2.621094 -0.359375 2.617188 -0.351562 2.617188 -0.34375 C 2.617188 -0.34375 2.617188 -0.339844 2.617188 -0.339844 C 2.617188 -0.34375 2.617188 -0.34375 2.617188 -0.347656 L 2.617188 -7.714844 L 3.710938 -7.714844 L 5.441406 -0.421875 L 4.914062 -0.296875 L 5.433594 -0.449219 C 5.4375 -0.445312 5.4375 -0.445312 5.4375 -0.441406 C 5.433594 -0.445312 5.433594 -0.449219 5.429688 -0.453125 C 5.417969 -0.472656 5.40625 -0.488281 5.386719 -0.503906 C 5.351562 -0.53125 5.320312 -0.542969 5.296875 -0.542969 L 6.320312 -0.542969 C 6.296875 -0.542969 6.265625 -0.53125 6.230469 -0.503906 C 6.214844 -0.488281 6.199219 -0.472656 6.1875 -0.453125 C 6.183594 -0.449219 6.183594 -0.445312 6.179688 -0.441406 C 6.179688 -0.445312 6.179688 -0.445312 6.183594 -0.449219 L 6.703125 -0.296875 L 6.175781 -0.421875 L 7.90625 -7.714844 L 9 -7.714844 L 9 -0.347656 C 9 -0.34375 9 -0.34375 9 -0.339844 C 9 -0.339844 9 -0.34375 9 -0.34375 C 9 -0.351562 8.996094 -0.359375 8.992188 -0.367188 C 8.980469 -0.40625 8.957031 -0.4375 8.925781 -0.46875 C 8.894531 -0.503906 8.863281 -0.523438 8.824219 -0.535156 C 8.816406 -0.539062 8.804688 -0.542969 8.800781 -0.542969 C 8.796875 -0.542969 8.796875 -0.542969 8.796875 -0.542969 C 8.800781 -0.542969 8.800781 -0.542969 8.804688 -0.542969 L 10.417969 -0.542969 C 10.421875 -0.542969 10.421875 -0.542969 10.425781 -0.542969 C 10.417969 -0.542969 10.410156 -0.539062 10.398438 -0.535156 C 10.363281 -0.523438 10.328125 -0.503906 10.296875 -0.46875 C 10.265625 -0.4375 10.242188 -0.40625 10.230469 -0.367188 C 10.226562 -0.359375 10.226562 -0.351562 10.222656 -0.34375 C 10.222656 -0.34375 10.222656 -0.339844 10.222656 -0.339844 C 10.222656 -0.34375 10.222656 -0.34375 10.222656 -0.347656 L 10.222656 -11.808594 C 10.222656 -11.8125 10.222656 -11.8125 10.222656 -11.8125 C 10.226562 -11.804688 10.226562 -11.796875 10.230469 -11.789062 C 10.242188 -11.75 10.265625 -11.714844 10.296875 -11.683594 C 10.328125 -11.652344 10.363281 -11.632812 10.398438 -11.621094 C 10.410156 -11.617188 10.417969 -11.613281 10.425781 -11.613281 C 10.421875 -11.613281 10.421875 -11.613281 10.417969 -11.613281 Z M 8.128906 -11.613281 "/></g></g><g style="fill:#b21a22;fill-opacity:1;"><g transform="translate(59.911035, 54.822881)"><path style="stroke:none" d="M 8.339844 -11.878906 L 8.339844 -10.140625 C 8.339844 -9.898438 8.265625 -9.703125 8.121094 -9.546875 C 7.96875 -9.386719 7.769531 -9.304688 7.519531 -9.304688 L 3.230469 -9.304688 L 3.230469 -9.847656 L 3.773438 -9.847656 L 3.773438 -7.171875 L 3.230469 -7.171875 L 3.230469 -7.714844 L 6.496094 -7.714844 C 6.742188 -7.714844 6.945312 -7.632812 7.097656 -7.46875 C 7.242188 -7.316406 7.316406 -7.117188 7.316406 -6.875 L 7.316406 -5.15625 C 7.316406 -4.914062 7.242188 -4.71875 7.097656 -4.5625 C 6.945312 -4.402344 6.742188 -4.320312 6.496094 -4.320312 L 3.230469 -4.320312 L 3.230469 -4.863281 L 3.773438 -4.863281 L 3.773438 -2.292969 L 3.230469 -2.292969 L 3.230469 -2.835938 L 7.519531 -2.835938 C 7.761719 -2.835938 7.960938 -2.757812 8.109375 -2.605469 C 8.261719 -2.453125 8.339844 -2.257812 8.339844 -2.015625 L 8.339844 -0.277344 C 8.339844 -0.0351562 8.261719 0.160156 8.109375 0.3125 C 7.960938 0.464844 7.761719 0.542969 7.519531 0.542969 L 1.128906 0.542969 C 0.886719 0.542969 0.6875 0.460938 0.539062 0.300781 C 0.394531 0.152344 0.324219 -0.0429688 0.324219 -0.277344 L 0.324219 -11.878906 C 0.324219 -12.113281 0.394531 -12.308594 0.539062 -12.457031 C 0.6875 -12.617188 0.886719 -12.699219 1.128906 -12.699219 L 7.519531 -12.699219 C 7.761719 -12.699219 7.960938 -12.621094 8.109375 -12.46875 C 8.261719 -12.316406 8.339844 -12.121094 8.339844 -11.878906 Z M 7.253906 -11.878906 C 7.253906 -11.867188 7.257812 -11.847656 7.265625 -11.828125 C 7.28125 -11.78125 7.304688 -11.738281 7.34375 -11.703125 C 7.382812 -11.664062 7.421875 -11.640625 7.46875 -11.625 C 7.488281 -11.617188 7.507812 -11.613281 7.519531 -11.613281 L 1.128906 -11.613281 C 1.199219 -11.613281 1.265625 -11.648438 1.328125 -11.714844 C 1.363281 -11.753906 1.390625 -11.792969 1.402344 -11.835938 C 1.40625 -11.855469 1.410156 -11.867188 1.410156 -11.878906 L 1.410156 -0.277344 C 1.410156 -0.285156 1.40625 -0.300781 1.402344 -0.316406 C 1.390625 -0.363281 1.363281 -0.402344 1.328125 -0.441406 C 1.265625 -0.507812 1.199219 -0.542969 1.128906 -0.542969 L 7.519531 -0.542969 C 7.507812 -0.542969 7.488281 -0.539062 7.46875 -0.53125 C 7.421875 -0.515625 7.382812 -0.492188 7.34375 -0.453125 C 7.304688 -0.414062 7.28125 -0.375 7.265625 -0.328125 C 7.257812 -0.308594 7.253906 -0.289062 7.253906 -0.277344 L 7.253906 -2.015625 C 7.253906 -2.003906 7.257812 -1.984375 7.265625 -1.964844 C 7.28125 -1.917969 7.304688 -1.875 7.34375 -1.839844 C 7.382812 -1.800781 7.421875 -1.777344 7.46875 -1.761719 C 7.488281 -1.753906 7.507812 -1.75 7.519531 -1.75 L 2.6875 -1.75 L 2.6875 -5.40625 L 6.496094 -5.40625 C 6.480469 -5.40625 6.457031 -5.402344 6.433594 -5.390625 C 6.386719 -5.375 6.34375 -5.347656 6.308594 -5.308594 C 6.273438 -5.273438 6.25 -5.234375 6.238281 -5.191406 C 6.230469 -5.175781 6.230469 -5.164062 6.230469 -5.15625 L 6.230469 -6.875 C 6.230469 -6.871094 6.230469 -6.859375 6.238281 -6.84375 C 6.25 -6.800781 6.273438 -6.761719 6.308594 -6.726562 C 6.34375 -6.6875 6.386719 -6.660156 6.433594 -6.640625 C 6.457031 -6.632812 6.480469 -6.628906 6.496094 -6.628906 L 2.6875 -6.628906 L 2.6875 -10.390625 L 7.519531 -10.390625 C 7.503906 -10.390625 7.484375 -10.382812 7.460938 -10.375 C 7.410156 -10.359375 7.371094 -10.332031 7.332031 -10.292969 C 7.296875 -10.257812 7.273438 -10.21875 7.261719 -10.175781 C 7.257812 -10.160156 7.253906 -10.148438 7.253906 -10.140625 Z M 7.253906 -11.878906 "/></g></g><g style="fill:#b21a22;fill-opacity:1;"><g transform="translate(68.573593, 54.822881)"><path style="stroke:none" d="M 8.355469 -9.65625 L 8.355469 -6.164062 C 8.355469 -4.957031 7.949219 -4.097656 7.128906 -3.585938 L 6.84375 -4.046875 L 7.371094 -4.171875 L 8.273438 -0.441406 L 7.746094 -0.3125 L 8.269531 -0.457031 C 8.34375 -0.179688 8.308594 0.0585938 8.15625 0.253906 C 8.007812 0.445312 7.789062 0.542969 7.5 0.542969 L 5.800781 0.542969 C 5.589844 0.542969 5.410156 0.480469 5.257812 0.359375 C 5.113281 0.238281 5.019531 0.0742188 4.972656 -0.128906 L 5.503906 -0.242188 L 4.976562 -0.113281 L 4.144531 -3.535156 L 4.671875 -3.664062 L 4.671875 -3.121094 L 3.125 -3.121094 L 3.125 -3.664062 L 3.667969 -3.664062 L 3.667969 -0.277344 C 3.667969 -0.0351562 3.59375 0.160156 3.441406 0.3125 C 3.289062 0.464844 3.089844 0.542969 2.847656 0.542969 L 1.144531 0.542969 C 0.902344 0.542969 0.707031 0.464844 0.554688 0.3125 C 0.402344 0.160156 0.324219 -0.0351562 0.324219 -0.277344 L 0.324219 -11.878906 C 0.324219 -12.121094 0.402344 -12.316406 0.554688 -12.46875 C 0.707031 -12.621094 0.902344 -12.699219 1.144531 -12.699219 L 5.3125 -12.699219 C 6.285156 -12.699219 7.035156 -12.433594 7.5625 -11.90625 C 8.09375 -11.378906 8.355469 -10.625 8.355469 -9.65625 Z M 7.273438 -9.65625 C 7.273438 -10.328125 7.113281 -10.820312 6.796875 -11.136719 C 6.480469 -11.453125 5.984375 -11.613281 5.3125 -11.613281 L 1.144531 -11.613281 C 1.160156 -11.613281 1.175781 -11.617188 1.195312 -11.625 C 1.242188 -11.640625 1.285156 -11.664062 1.320312 -11.703125 C 1.359375 -11.738281 1.386719 -11.78125 1.402344 -11.828125 C 1.40625 -11.847656 1.410156 -11.867188 1.410156 -11.878906 L 1.410156 -0.277344 C 1.410156 -0.289062 1.40625 -0.308594 1.402344 -0.328125 C 1.386719 -0.375 1.359375 -0.414062 1.320312 -0.453125 C 1.285156 -0.492188 1.242188 -0.515625 1.195312 -0.53125 C 1.175781 -0.539062 1.160156 -0.542969 1.144531 -0.542969 L 2.847656 -0.542969 C 2.835938 -0.542969 2.820312 -0.539062 2.796875 -0.53125 C 2.75 -0.515625 2.710938 -0.492188 2.671875 -0.453125 C 2.636719 -0.414062 2.609375 -0.375 2.59375 -0.328125 C 2.585938 -0.308594 2.582031 -0.289062 2.582031 -0.277344 L 2.582031 -4.207031 L 5.097656 -4.207031 L 6.035156 -0.363281 L 6.035156 -0.355469 C 6.027344 -0.398438 5.996094 -0.441406 5.949219 -0.480469 C 5.898438 -0.523438 5.847656 -0.542969 5.800781 -0.542969 L 7.503906 -0.542969 C 7.492188 -0.539062 7.476562 -0.539062 7.464844 -0.53125 C 7.398438 -0.511719 7.34375 -0.46875 7.300781 -0.410156 C 7.253906 -0.351562 7.226562 -0.285156 7.222656 -0.214844 C 7.21875 -0.191406 7.21875 -0.175781 7.222656 -0.167969 L 7.21875 -0.175781 L 6.222656 -4.300781 L 6.554688 -4.507812 C 7.03125 -4.804688 7.273438 -5.359375 7.273438 -6.164062 Z M 3.125 -6.445312 L 4.863281 -6.445312 C 4.917969 -6.445312 4.964844 -6.453125 4.996094 -6.460938 C 5 -6.464844 5.003906 -6.464844 5.007812 -6.46875 C 5.003906 -6.464844 5.003906 -6.464844 5 -6.460938 C 4.996094 -6.460938 4.996094 -6.457031 4.992188 -6.453125 C 4.996094 -6.457031 4.996094 -6.460938 5 -6.464844 C 5.007812 -6.496094 5.015625 -6.542969 5.015625 -6.597656 L 5.015625 -9.222656 C 5.015625 -9.277344 5.007812 -9.320312 5 -9.351562 C 4.996094 -9.359375 4.996094 -9.363281 4.992188 -9.363281 C 4.996094 -9.363281 4.996094 -9.359375 5 -9.359375 C 5.003906 -9.355469 5.003906 -9.355469 5.007812 -9.351562 C 5.003906 -9.355469 5 -9.355469 4.996094 -9.355469 C 4.964844 -9.367188 4.917969 -9.371094 4.863281 -9.371094 L 3.125 -9.371094 L 3.125 -9.914062 L 3.667969 -9.914062 L 3.667969 -5.902344 L 3.125 -5.902344 Z M 2.582031 -5.363281 L 2.582031 -10.457031 L 4.863281 -10.457031 C 5.242188 -10.457031 5.546875 -10.347656 5.765625 -10.125 C 5.988281 -9.902344 6.101562 -9.601562 6.101562 -9.222656 L 6.101562 -6.597656 C 6.101562 -6.21875 5.988281 -5.914062 5.765625 -5.695312 C 5.546875 -5.472656 5.242188 -5.363281 4.863281 -5.363281 Z M 2.582031 -5.363281 "/></g></g><g style="fill:#b21a22;fill-opacity:1;"><g transform="translate(77.253515, 54.822881)"><path style="stroke:none" d="M 0.324219 -5.453125 L 0.324219 -7.050781 C 0.324219 -7.316406 0.40625 -7.53125 0.570312 -7.695312 C 0.734375 -7.859375 0.949219 -7.941406 1.214844 -7.941406 L 3.960938 -7.941406 C 4.226562 -7.941406 4.441406 -7.859375 4.605469 -7.695312 C 4.765625 -7.53125 4.847656 -7.316406 4.847656 -7.050781 L 4.847656 -5.453125 C 4.847656 -5.1875 4.765625 -4.972656 4.605469 -4.808594 C 4.441406 -4.644531 4.226562 -4.5625 3.960938 -4.5625 L 1.214844 -4.5625 C 0.949219 -4.5625 0.734375 -4.644531 0.570312 -4.808594 C 0.40625 -4.972656 0.324219 -5.1875 0.324219 -5.453125 Z M 1.410156 -5.453125 C 1.410156 -5.449219 1.410156 -5.449219 1.410156 -5.445312 C 1.410156 -5.445312 1.410156 -5.445312 1.410156 -5.449219 C 1.410156 -5.453125 1.40625 -5.464844 1.40625 -5.472656 C 1.390625 -5.511719 1.371094 -5.542969 1.339844 -5.574219 C 1.308594 -5.609375 1.273438 -5.628906 1.234375 -5.640625 C 1.226562 -5.644531 1.21875 -5.648438 1.210938 -5.648438 C 1.210938 -5.648438 1.214844 -5.648438 1.214844 -5.648438 L 3.960938 -5.648438 C 3.960938 -5.648438 3.964844 -5.648438 3.964844 -5.648438 C 3.957031 -5.648438 3.949219 -5.644531 3.941406 -5.640625 C 3.902344 -5.628906 3.867188 -5.609375 3.835938 -5.574219 C 3.804688 -5.542969 3.78125 -5.511719 3.769531 -5.472656 C 3.765625 -5.464844 3.765625 -5.453125 3.765625 -5.449219 C 3.765625 -5.445312 3.765625 -5.445312 3.765625 -5.445312 C 3.765625 -5.449219 3.765625 -5.449219 3.765625 -5.453125 L 3.765625 -7.050781 C 3.765625 -7.054688 3.765625 -7.054688 3.765625 -7.054688 C 3.765625 -7.046875 3.765625 -7.039062 3.769531 -7.03125 C 3.78125 -6.992188 3.804688 -6.957031 3.835938 -6.925781 C 3.867188 -6.894531 3.902344 -6.875 3.941406 -6.859375 C 3.949219 -6.859375 3.957031 -6.855469 3.964844 -6.855469 C 3.964844 -6.855469 3.960938 -6.855469 3.960938 -6.855469 L 1.214844 -6.855469 C 1.214844 -6.855469 1.210938 -6.855469 1.210938 -6.855469 C 1.21875 -6.855469 1.226562 -6.859375 1.234375 -6.859375 C 1.273438 -6.875 1.308594 -6.894531 1.339844 -6.925781 C 1.371094 -6.957031 1.390625 -6.992188 1.40625 -7.03125 C 1.40625 -7.039062 1.410156 -7.046875 1.410156 -7.054688 C 1.410156 -7.054688 1.410156 -7.054688 1.410156 -7.050781 Z M 1.410156 -5.453125 "/></g></g><g style="fill:#b21a22;fill-opacity:1;"><g transform="translate(30.493656, 79.033103)"><path style="stroke:none" d="M 8.355469 -11.878906 L 8.355469 -10.140625 C 8.355469 -9.898438 8.28125 -9.703125 8.128906 -9.550781 C 7.976562 -9.398438 7.777344 -9.320312 7.535156 -9.320312 L 3.230469 -9.320312 L 3.230469 -9.863281 L 3.773438 -9.863281 L 3.773438 -6.894531 L 3.230469 -6.894531 L 3.230469 -7.4375 L 6.496094 -7.4375 C 6.738281 -7.4375 6.933594 -7.359375 7.085938 -7.207031 C 7.238281 -7.054688 7.316406 -6.859375 7.316406 -6.617188 L 7.316406 -4.878906 C 7.316406 -4.636719 7.238281 -4.441406 7.085938 -4.289062 C 6.933594 -4.136719 6.738281 -4.058594 6.496094 -4.058594 L 3.230469 -4.058594 L 3.230469 -4.601562 L 3.773438 -4.601562 L 3.773438 -0.277344 C 3.773438 -0.0351562 3.695312 0.160156 3.542969 0.3125 C 3.390625 0.464844 3.195312 0.542969 2.953125 0.542969 L 1.144531 0.542969 C 0.902344 0.542969 0.707031 0.464844 0.554688 0.3125 C 0.402344 0.160156 0.324219 -0.0351562 0.324219 -0.277344 L 0.324219 -11.878906 C 0.324219 -12.121094 0.402344 -12.316406 0.554688 -12.46875 C 0.707031 -12.621094 0.902344 -12.699219 1.144531 -12.699219 L 7.535156 -12.699219 C 7.777344 -12.699219 7.976562 -12.621094 8.128906 -12.46875 C 8.28125 -12.316406 8.355469 -12.121094 8.355469 -11.878906 Z M 7.273438 -11.878906 C 7.273438 -11.867188 7.273438 -11.847656 7.28125 -11.828125 C 7.296875 -11.78125 7.324219 -11.738281 7.359375 -11.703125 C 7.398438 -11.664062 7.441406 -11.640625 7.488281 -11.625 C 7.507812 -11.617188 7.523438 -11.613281 7.535156 -11.613281 L 1.144531 -11.613281 C 1.160156 -11.613281 1.175781 -11.617188 1.195312 -11.625 C 1.242188 -11.640625 1.285156 -11.664062 1.320312 -11.703125 C 1.359375 -11.738281 1.386719 -11.78125 1.402344 -11.828125 C 1.40625 -11.847656 1.410156 -11.867188 1.410156 -11.878906 L 1.410156 -0.277344 C 1.410156 -0.289062 1.40625 -0.308594 1.402344 -0.328125 C 1.386719 -0.375 1.359375 -0.414062 1.320312 -0.453125 C 1.285156 -0.492188 1.242188 -0.515625 1.195312 -0.53125 C 1.175781 -0.539062 1.160156 -0.542969 1.144531 -0.542969 L 2.953125 -0.542969 C 2.941406 -0.542969 2.921875 -0.539062 2.902344 -0.53125 C 2.855469 -0.515625 2.8125 -0.492188 2.777344 -0.453125 C 2.738281 -0.414062 2.714844 -0.375 2.699219 -0.328125 C 2.691406 -0.308594 2.6875 -0.289062 2.6875 -0.277344 L 2.6875 -5.144531 L 6.496094 -5.144531 C 6.480469 -5.144531 6.464844 -5.140625 6.445312 -5.132812 C 6.398438 -5.117188 6.355469 -5.09375 6.320312 -5.054688 C 6.28125 -5.019531 6.253906 -4.976562 6.242188 -4.929688 C 6.234375 -4.910156 6.230469 -4.890625 6.230469 -4.878906 L 6.230469 -6.617188 C 6.230469 -6.605469 6.234375 -6.585938 6.242188 -6.566406 C 6.253906 -6.519531 6.28125 -6.476562 6.320312 -6.441406 C 6.355469 -6.402344 6.398438 -6.378906 6.445312 -6.363281 C 6.464844 -6.355469 6.480469 -6.351562 6.496094 -6.351562 L 2.6875 -6.351562 L 2.6875 -10.40625 L 7.535156 -10.40625 C 7.523438 -10.40625 7.507812 -10.402344 7.488281 -10.394531 C 7.441406 -10.378906 7.398438 -10.355469 7.359375 -10.316406 C 7.324219 -10.28125 7.296875 -10.238281 7.28125 -10.191406 C 7.273438 -10.171875 7.273438 -10.152344 7.273438 -10.140625 Z M 7.273438 -11.878906 "/></g></g><g style="fill:#b21a22;fill-opacity:1;"><g transform="translate(39.173577, 79.033103)"><path style="stroke:none" d="M 5.871094 -12.699219 L 7.46875 -12.699219 C 7.710938 -12.699219 7.917969 -12.609375 8.09375 -12.433594 C 8.269531 -12.261719 8.355469 -12.050781 8.355469 -11.808594 L 8.355469 -2.5 C 8.355469 -1.542969 8.09375 -0.796875 7.566406 -0.261719 C 7.039062 0.273438 6.285156 0.542969 5.3125 0.542969 L 3.367188 0.542969 C 2.410156 0.542969 1.660156 0.277344 1.128906 -0.257812 C 0.59375 -0.792969 0.324219 -1.539062 0.324219 -2.5 L 0.324219 -11.808594 C 0.324219 -12.050781 0.414062 -12.261719 0.589844 -12.433594 C 0.765625 -12.609375 0.972656 -12.699219 1.214844 -12.699219 L 2.882812 -12.699219 C 3.125 -12.699219 3.335938 -12.609375 3.507812 -12.433594 C 3.683594 -12.261719 3.773438 -12.050781 3.773438 -11.808594 L 3.773438 -2.988281 C 3.773438 -2.929688 3.777344 -2.886719 3.789062 -2.855469 C 3.789062 -2.847656 3.792969 -2.84375 3.792969 -2.84375 C 3.792969 -2.84375 3.789062 -2.847656 3.789062 -2.851562 C 3.785156 -2.851562 3.78125 -2.855469 3.78125 -2.855469 C 3.78125 -2.855469 3.785156 -2.851562 3.792969 -2.851562 C 3.824219 -2.839844 3.867188 -2.835938 3.925781 -2.835938 L 4.828125 -2.835938 C 4.882812 -2.835938 4.929688 -2.839844 4.960938 -2.851562 C 4.964844 -2.851562 4.96875 -2.855469 4.972656 -2.855469 C 4.96875 -2.855469 4.96875 -2.851562 4.964844 -2.851562 C 4.960938 -2.847656 4.960938 -2.84375 4.960938 -2.84375 C 4.960938 -2.84375 4.960938 -2.847656 4.964844 -2.855469 C 4.972656 -2.886719 4.980469 -2.929688 4.980469 -2.988281 L 4.980469 -11.808594 C 4.980469 -12.050781 5.066406 -12.261719 5.242188 -12.433594 C 5.417969 -12.609375 5.628906 -12.699219 5.871094 -12.699219 Z M 5.871094 -11.613281 C 5.925781 -11.613281 5.972656 -11.632812 6.011719 -11.667969 C 6.046875 -11.703125 6.066406 -11.75 6.066406 -11.808594 L 6.066406 -2.988281 C 6.066406 -2.605469 5.953125 -2.304688 5.730469 -2.082031 C 5.511719 -1.859375 5.207031 -1.75 4.828125 -1.75 L 3.925781 -1.75 C 3.542969 -1.75 3.242188 -1.859375 3.019531 -2.082031 C 2.796875 -2.304688 2.6875 -2.605469 2.6875 -2.988281 L 2.6875 -11.808594 C 2.6875 -11.75 2.707031 -11.703125 2.742188 -11.667969 C 2.777344 -11.632812 2.824219 -11.613281 2.882812 -11.613281 L 1.214844 -11.613281 C 1.273438 -11.613281 1.320312 -11.632812 1.355469 -11.667969 C 1.394531 -11.703125 1.410156 -11.75 1.410156 -11.808594 L 1.410156 -2.5 C 1.410156 -1.839844 1.570312 -1.347656 1.894531 -1.027344 C 2.21875 -0.703125 2.707031 -0.542969 3.367188 -0.542969 L 5.3125 -0.542969 C 5.984375 -0.542969 6.476562 -0.703125 6.792969 -1.023438 C 7.113281 -1.347656 7.273438 -1.839844 7.273438 -2.5 L 7.273438 -11.808594 C 7.273438 -11.75 7.289062 -11.703125 7.328125 -11.667969 C 7.363281 -11.632812 7.410156 -11.613281 7.46875 -11.613281 Z M 5.871094 -11.613281 "/></g></g><g style="fill:#b21a22;fill-opacity:1;"><g transform="translate(47.853499, 79.033103)"><path style="stroke:none" d="M 1.425781 -12.699219 L 8.003906 -12.699219 C 8.347656 -12.699219 8.59375 -12.574219 8.746094 -12.328125 C 8.894531 -12.089844 8.898438 -11.816406 8.761719 -11.515625 L 4.332031 -1.910156 L 3.835938 -2.136719 L 3.835938 -2.679688 L 7.640625 -2.679688 C 7.882812 -2.679688 8.082031 -2.601562 8.234375 -2.449219 C 8.386719 -2.296875 8.460938 -2.101562 8.460938 -1.859375 L 8.460938 -0.296875 C 8.460938 -0.0664062 8.390625 0.128906 8.246094 0.28125 C 8.109375 0.425781 7.929688 0.511719 7.707031 0.539062 L 7.675781 0.542969 L 0.832031 0.542969 C 0.6875 0.542969 0.558594 0.515625 0.441406 0.46875 C 0.285156 0.398438 0.167969 0.292969 0.0859375 0.148438 C -0.0585938 -0.101562 -0.0585938 -0.371094 0.0859375 -0.660156 L 0.574219 -0.417969 L 0.0820312 -0.648438 L 4.511719 -10.09375 L 5 -9.863281 L 5 -9.320312 L 1.425781 -9.320312 C 1.179688 -9.320312 0.984375 -9.398438 0.832031 -9.550781 C 0.679688 -9.703125 0.601562 -9.898438 0.601562 -10.140625 L 0.601562 -11.859375 C 0.601562 -12.089844 0.675781 -12.28125 0.820312 -12.4375 C 0.957031 -12.582031 1.132812 -12.667969 1.355469 -12.695312 L 1.390625 -12.699219 Z M 1.425781 -11.613281 L 1.425781 -12.15625 L 1.492188 -11.617188 C 1.527344 -11.621094 1.566406 -11.648438 1.609375 -11.691406 C 1.664062 -11.746094 1.6875 -11.804688 1.6875 -11.859375 L 1.6875 -10.140625 C 1.6875 -10.152344 1.683594 -10.171875 1.679688 -10.191406 C 1.664062 -10.238281 1.636719 -10.28125 1.597656 -10.316406 C 1.5625 -10.355469 1.519531 -10.378906 1.472656 -10.394531 C 1.453125 -10.402344 1.4375 -10.40625 1.425781 -10.40625 L 5.855469 -10.40625 L 1.0625 -0.179688 L 1.058594 -0.175781 C 1.0625 -0.183594 1.066406 -0.199219 1.066406 -0.222656 C 1.070312 -0.28125 1.058594 -0.339844 1.027344 -0.390625 C 0.992188 -0.453125 0.941406 -0.5 0.878906 -0.527344 C 0.859375 -0.535156 0.84375 -0.539062 0.832031 -0.542969 L 7.640625 -0.542969 L 7.640625 0 L 7.574219 -0.539062 C 7.535156 -0.535156 7.496094 -0.507812 7.453125 -0.464844 C 7.402344 -0.40625 7.375 -0.351562 7.375 -0.296875 L 7.375 -1.859375 C 7.375 -1.84375 7.378906 -1.828125 7.386719 -1.808594 C 7.402344 -1.761719 7.429688 -1.71875 7.464844 -1.683594 C 7.503906 -1.644531 7.542969 -1.621094 7.589844 -1.605469 C 7.613281 -1.597656 7.628906 -1.59375 7.640625 -1.59375 L 2.988281 -1.59375 L 7.773438 -11.964844 C 7.773438 -11.96875 7.777344 -11.972656 7.777344 -11.976562 C 7.773438 -11.964844 7.773438 -11.953125 7.773438 -11.941406 C 7.769531 -11.878906 7.785156 -11.816406 7.820312 -11.757812 C 7.859375 -11.695312 7.910156 -11.652344 7.976562 -11.625 C 7.988281 -11.617188 8.003906 -11.613281 8.015625 -11.613281 C 8.015625 -11.613281 8.011719 -11.613281 8.003906 -11.613281 Z M 1.425781 -11.613281 "/></g></g><g style="fill:#b21a22;fill-opacity:1;"><g transform="translate(56.672301, 79.033103)"><path style="stroke:none" d="M 1.425781 -12.699219 L 8.003906 -12.699219 C 8.347656 -12.699219 8.59375 -12.574219 8.746094 -12.328125 C 8.894531 -12.089844 8.898438 -11.816406 8.761719 -11.515625 L 4.332031 -1.910156 L 3.835938 -2.136719 L 3.835938 -2.679688 L 7.640625 -2.679688 C 7.882812 -2.679688 8.082031 -2.601562 8.234375 -2.449219 C 8.386719 -2.296875 8.460938 -2.101562 8.460938 -1.859375 L 8.460938 -0.296875 C 8.460938 -0.0664062 8.390625 0.128906 8.246094 0.28125 C 8.109375 0.425781 7.929688 0.511719 7.707031 0.539062 L 7.675781 0.542969 L 0.832031 0.542969 C 0.6875 0.542969 0.558594 0.515625 0.441406 0.46875 C 0.285156 0.398438 0.167969 0.292969 0.0859375 0.148438 C -0.0585938 -0.101562 -0.0585938 -0.371094 0.0859375 -0.660156 L 0.574219 -0.417969 L 0.0820312 -0.648438 L 4.511719 -10.09375 L 5 -9.863281 L 5 -9.320312 L 1.425781 -9.320312 C 1.179688 -9.320312 0.984375 -9.398438 0.832031 -9.550781 C 0.679688 -9.703125 0.601562 -9.898438 0.601562 -10.140625 L 0.601562 -11.859375 C 0.601562 -12.089844 0.675781 -12.28125 0.820312 -12.4375 C 0.957031 -12.582031 1.132812 -12.667969 1.355469 -12.695312 L 1.390625 -12.699219 Z M 1.425781 -11.613281 L 1.425781 -12.15625 L 1.492188 -11.617188 C 1.527344 -11.621094 1.566406 -11.648438 1.609375 -11.691406 C 1.664062 -11.746094 1.6875 -11.804688 1.6875 -11.859375 L 1.6875 -10.140625 C 1.6875 -10.152344 1.683594 -10.171875 1.679688 -10.191406 C 1.664062 -10.238281 1.636719 -10.28125 1.597656 -10.316406 C 1.5625 -10.355469 1.519531 -10.378906 1.472656 -10.394531 C 1.453125 -10.402344 1.4375 -10.40625 1.425781 -10.40625 L 5.855469 -10.40625 L 1.0625 -0.179688 L 1.058594 -0.175781 C 1.0625 -0.183594 1.066406 -0.199219 1.066406 -0.222656 C 1.070312 -0.28125 1.058594 -0.339844 1.027344 -0.390625 C 0.992188 -0.453125 0.941406 -0.5 0.878906 -0.527344 C 0.859375 -0.535156 0.84375 -0.539062 0.832031 -0.542969 L 7.640625 -0.542969 L 7.640625 0 L 7.574219 -0.539062 C 7.535156 -0.535156 7.496094 -0.507812 7.453125 -0.464844 C 7.402344 -0.40625 7.375 -0.351562 7.375 -0.296875 L 7.375 -1.859375 C 7.375 -1.84375 7.378906 -1.828125 7.386719 -1.808594 C 7.402344 -1.761719 7.429688 -1.71875 7.464844 -1.683594 C 7.503906 -1.644531 7.542969 -1.621094 7.589844 -1.605469 C 7.613281 -1.597656 7.628906 -1.59375 7.640625 -1.59375 L 2.988281 -1.59375 L 7.773438 -11.964844 C 7.773438 -11.96875 7.777344 -11.972656 7.777344 -11.976562 C 7.773438 -11.964844 7.773438 -11.953125 7.773438 -11.941406 C 7.769531 -11.878906 7.785156 -11.816406 7.820312 -11.757812 C 7.859375 -11.695312 7.910156 -11.652344 7.976562 -11.625 C 7.988281 -11.617188 8.003906 -11.613281 8.015625 -11.613281 C 8.015625 -11.613281 8.011719 -11.613281 8.003906 -11.613281 Z M 1.425781 -11.613281 "/></g></g><g style="fill:#060705;fill-opacity:1;"><g transform="translate(24.819385, 30.61266)"><path style="stroke:none" d="M 5.453125 -2.984375 L 5.453125 -11.875 C 5.453125 -12.0625 5.546875 -12.15625 5.734375 -12.15625 L 7.53125 -12.15625 C 7.71875 -12.15625 7.8125 -12.0625 7.8125 -11.875 L 7.8125 -2.5 C 7.8125 -1.6875 7.597656 -1.066406 7.171875 -0.640625 C 6.742188 -0.210938 6.125 0 5.3125 0 L 3.375 0 C 2.5625 0 1.941406 -0.210938 1.515625 -0.640625 C 1.085938 -1.066406 0.875 -1.6875 0.875 -2.5 L 0.875 -4.3125 C 0.875 -4.488281 0.960938 -4.578125 1.140625 -4.578125 L 2.875 -4.578125 C 3.0625 -4.578125 3.15625 -4.488281 3.15625 -4.3125 L 3.15625 -2.984375 C 3.15625 -2.523438 3.390625 -2.296875 3.859375 -2.296875 L 4.75 -2.296875 C 5.21875 -2.296875 5.453125 -2.523438 5.453125 -2.984375 Z M 5.453125 -2.984375 "/></g></g><g style="fill:#060705;fill-opacity:1;"><g transform="translate(33.499307, 30.61266)"><path style="stroke:none" d="M 3.375 -12.15625 L 5.3125 -12.15625 C 6.132812 -12.15625 6.753906 -11.941406 7.171875 -11.515625 C 7.597656 -11.097656 7.8125 -10.476562 7.8125 -9.65625 L 7.8125 -8.5 C 7.8125 -8.320312 7.71875 -8.234375 7.53125 -8.234375 L 5.78125 -8.234375 C 5.59375 -8.234375 5.5 -8.320312 5.5 -8.5 L 5.5 -9.234375 C 5.5 -9.691406 5.269531 -9.921875 4.8125 -9.921875 L 3.859375 -9.921875 C 3.390625 -9.921875 3.15625 -9.691406 3.15625 -9.234375 L 3.15625 -7.765625 L 7.359375 -6.40625 C 7.660156 -6.300781 7.8125 -6.085938 7.8125 -5.765625 L 7.8125 -2.5 C 7.8125 -1.6875 7.597656 -1.066406 7.171875 -0.640625 C 6.753906 -0.210938 6.132812 0 5.3125 0 L 3.375 0 C 2.5625 0 1.941406 -0.210938 1.515625 -0.640625 C 1.085938 -1.066406 0.875 -1.6875 0.875 -2.5 L 0.875 -3.625 C 0.875 -3.8125 0.960938 -3.90625 1.140625 -3.90625 L 2.90625 -3.90625 C 3.082031 -3.90625 3.171875 -3.8125 3.171875 -3.625 L 3.171875 -2.90625 C 3.171875 -2.4375 3.40625 -2.203125 3.875 -2.203125 L 4.8125 -2.203125 C 5.269531 -2.203125 5.5 -2.4375 5.5 -2.90625 L 5.5 -4.65625 L 1.34375 -6 C 1.03125 -6.101562 0.875 -6.320312 0.875 -6.65625 L 0.875 -9.65625 C 0.875 -10.476562 1.085938 -11.097656 1.515625 -11.515625 C 1.941406 -11.941406 2.5625 -12.15625 3.375 -12.15625 Z M 3.375 -12.15625 "/></g></g><g style="fill:#060705;fill-opacity:1;"><g transform="translate(42.179228, 30.61266)"><path style="stroke:none" d="M 0.875 -2.5 L 0.875 -9.65625 C 0.875 -10.476562 1.085938 -11.097656 1.515625 -11.515625 C 1.941406 -11.941406 2.5625 -12.15625 3.375 -12.15625 L 5.3125 -12.15625 C 6.132812 -12.15625 6.753906 -11.941406 7.171875 -11.515625 C 7.597656 -11.097656 7.8125 -10.476562 7.8125 -9.65625 L 7.8125 -2.5 C 7.8125 -1.6875 7.597656 -1.066406 7.171875 -0.640625 C 6.753906 -0.210938 6.132812 0 5.3125 0 L 3.375 0 C 2.5625 0 1.941406 -0.210938 1.515625 -0.640625 C 1.085938 -1.066406 0.875 -1.6875 0.875 -2.5 Z M 3.8125 -2.234375 L 4.9375 -2.234375 C 5.394531 -2.234375 5.625 -2.46875 5.625 -2.9375 L 5.625 -9.21875 C 5.625 -9.675781 5.394531 -9.90625 4.9375 -9.90625 L 3.8125 -9.90625 C 3.351562 -9.90625 3.125 -9.675781 3.125 -9.21875 L 3.125 -2.9375 C 3.125 -2.46875 3.351562 -2.234375 3.8125 -2.234375 Z M 3.8125 -2.234375 "/></g></g><g style="fill:#060705;fill-opacity:1;"><g transform="translate(50.859149, 30.61266)"><path style="stroke:none" d="M 6.375 -12.15625 L 8 -12.15625 C 8.1875 -12.15625 8.28125 -12.0625 8.28125 -11.875 L 8.28125 -0.28125 C 8.28125 -0.09375 8.1875 0 8 0 L 6.625 0 C 6.488281 0 6.382812 -0.0703125 6.3125 -0.21875 L 3.0625 -6.859375 L 3.0625 -0.28125 C 3.0625 -0.09375 2.96875 0 2.78125 0 L 1.140625 0 C 0.960938 0 0.875 -0.09375 0.875 -0.28125 L 0.875 -11.875 C 0.875 -12.0625 0.960938 -12.15625 1.140625 -12.15625 L 2.515625 -12.15625 C 2.648438 -12.15625 2.753906 -12.078125 2.828125 -11.921875 L 6.09375 -5.296875 L 6.09375 -11.875 C 6.09375 -12.0625 6.1875 -12.15625 6.375 -12.15625 Z M 6.375 -12.15625 "/></g></g><g style="fill:#060705;fill-opacity:1;"><g transform="translate(60.007789, 30.61266)"><path style="stroke:none" d="M 0 2.328125 L 0 0.734375 C 0 0.492188 0.113281 0.375 0.34375 0.375 L 10.8125 0.375 C 11.039062 0.375 11.15625 0.492188 11.15625 0.734375 L 11.15625 2.328125 C 11.15625 2.554688 11.039062 2.671875 10.8125 2.671875 L 0.34375 2.671875 C 0.113281 2.671875 0 2.554688 0 2.328125 Z M 0 2.328125 "/></g></g><g style="fill:#060705;fill-opacity:1;"><g transform="translate(13.560257, 54.822881)"><path style="stroke:none" d="M 3.375 -12.15625 L 5.3125 -12.15625 C 6.132812 -12.15625 6.753906 -11.941406 7.171875 -11.515625 C 7.597656 -11.097656 7.8125 -10.476562 7.8125 -9.65625 L 7.8125 -8.5 C 7.8125 -8.320312 7.71875 -8.234375 7.53125 -8.234375 L 5.78125 -8.234375 C 5.59375 -8.234375 5.5 -8.320312 5.5 -8.5 L 5.5 -9.234375 C 5.5 -9.691406 5.269531 -9.921875 4.8125 -9.921875 L 3.859375 -9.921875 C 3.390625 -9.921875 3.15625 -9.691406 3.15625 -9.234375 L 3.15625 -7.765625 L 7.359375 -6.40625 C 7.660156 -6.300781 7.8125 -6.085938 7.8125 -5.765625 L 7.8125 -2.5 C 7.8125 -1.6875 7.597656 -1.066406 7.171875 -0.640625 C 6.753906 -0.210938 6.132812 0 5.3125 0 L 3.375 0 C 2.5625 0 1.941406 -0.210938 1.515625 -0.640625 C 1.085938 -1.066406 0.875 -1.6875 0.875 -2.5 L 0.875 -3.625 C 0.875 -3.8125 0.960938 -3.90625 1.140625 -3.90625 L 2.90625 -3.90625 C 3.082031 -3.90625 3.171875 -3.8125 3.171875 -3.625 L 3.171875 -2.90625 C 3.171875 -2.4375 3.40625 -2.203125 3.875 -2.203125 L 4.8125 -2.203125 C 5.269531 -2.203125 5.5 -2.4375 5.5 -2.90625 L 5.5 -4.65625 L 1.34375 -6 C 1.03125 -6.101562 0.875 -6.320312 0.875 -6.65625 L 0.875 -9.65625 C 0.875 -10.476562 1.085938 -11.097656 1.515625 -11.515625 C 1.941406 -11.941406 2.5625 -12.15625 3.375 -12.15625 Z M 3.375 -12.15625 "/></g></g><g style="fill:#060705;fill-opacity:1;"><g transform="translate(22.240178, 54.822881)"><path style="stroke:none" d="M 7.828125 -9.65625 L 7.828125 -7.78125 C 7.828125 -7.59375 7.734375 -7.5 7.546875 -7.5 L 5.921875 -7.5 C 5.734375 -7.5 5.640625 -7.59375 5.640625 -7.78125 L 5.640625 -9.203125 C 5.640625 -9.660156 5.410156 -9.890625 4.953125 -9.890625 L 3.84375 -9.890625 C 3.375 -9.890625 3.140625 -9.660156 3.140625 -9.203125 L 3.140625 -2.90625 C 3.140625 -2.4375 3.375 -2.203125 3.84375 -2.203125 L 4.953125 -2.203125 C 5.410156 -2.203125 5.640625 -2.4375 5.640625 -2.90625 L 5.640625 -4.375 C 5.640625 -4.5625 5.734375 -4.65625 5.921875 -4.65625 L 7.546875 -4.65625 C 7.734375 -4.65625 7.828125 -4.5625 7.828125 -4.375 L 7.828125 -2.5 C 7.828125 -1.6875 7.613281 -1.066406 7.1875 -0.640625 C 6.757812 -0.210938 6.140625 0 5.328125 0 L 3.390625 0 C 2.578125 0 1.953125 -0.210938 1.515625 -0.640625 C 1.085938 -1.066406 0.875 -1.6875 0.875 -2.5 L 0.875 -9.65625 C 0.875 -10.476562 1.085938 -11.097656 1.515625 -11.515625 C 1.953125 -11.941406 2.578125 -12.15625 3.390625 -12.15625 L 5.328125 -12.15625 C 6.140625 -12.15625 6.757812 -11.941406 7.1875 -11.515625 C 7.613281 -11.097656 7.828125 -10.476562 7.828125 -9.65625 Z M 7.828125 -9.65625 "/></g></g><g style="fill:#060705;fill-opacity:1;"><g transform="translate(30.937462, 54.822881)"><path style="stroke:none" d="M 5.453125 -7.1875 L 5.453125 -11.875 C 5.453125 -12.0625 5.546875 -12.15625 5.734375 -12.15625 L 7.515625 -12.15625 C 7.710938 -12.15625 7.8125 -12.0625 7.8125 -11.875 L 7.8125 -0.28125 C 7.8125 -0.09375 7.710938 0 7.515625 0 L 5.734375 0 C 5.546875 0 5.453125 -0.09375 5.453125 -0.28125 L 5.453125 -4.890625 L 3.234375 -4.890625 L 3.234375 -0.28125 C 3.234375 -0.09375 3.140625 0 2.953125 0 L 1.15625 0 C 0.96875 0 0.875 -0.09375 0.875 -0.28125 L 0.875 -11.875 C 0.875 -12.0625 0.96875 -12.15625 1.15625 -12.15625 L 2.953125 -12.15625 C 3.140625 -12.15625 3.234375 -12.0625 3.234375 -11.875 L 3.234375 -7.1875 Z M 5.453125 -7.1875 "/></g></g><g style="fill:#060705;fill-opacity:1;"><g transform="translate(39.617383, 54.822881)"><path style="stroke:none" d="M 7.796875 -11.875 L 7.796875 -10.140625 C 7.796875 -9.941406 7.703125 -9.84375 7.515625 -9.84375 L 3.234375 -9.84375 L 3.234375 -7.171875 L 6.5 -7.171875 C 6.675781 -7.171875 6.765625 -7.070312 6.765625 -6.875 L 6.765625 -5.15625 C 6.765625 -4.957031 6.675781 -4.859375 6.5 -4.859375 L 3.234375 -4.859375 L 3.234375 -2.296875 L 7.515625 -2.296875 C 7.703125 -2.296875 7.796875 -2.203125 7.796875 -2.015625 L 7.796875 -0.28125 C 7.796875 -0.09375 7.703125 0 7.515625 0 L 1.125 0 C 0.957031 0 0.875 -0.09375 0.875 -0.28125 L 0.875 -11.875 C 0.875 -12.0625 0.957031 -12.15625 1.125 -12.15625 L 7.515625 -12.15625 C 7.703125 -12.15625 7.796875 -12.0625 7.796875 -11.875 Z M 7.796875 -11.875 "/></g></g><g style="fill:#060705;fill-opacity:1;"><g transform="translate(48.279942, 54.822881)"><path style="stroke:none" d="M 8.125 -12.15625 L 10.421875 -12.15625 C 10.648438 -12.15625 10.765625 -12.035156 10.765625 -11.796875 L 10.765625 -0.34375 C 10.765625 -0.113281 10.648438 0 10.421875 0 L 8.796875 0 C 8.566406 0 8.453125 -0.113281 8.453125 -0.34375 L 8.453125 -7.171875 L 8.328125 -7.171875 L 6.703125 -0.296875 C 6.640625 -0.0976562 6.507812 0 6.3125 0 L 5.296875 0 C 5.097656 0 4.96875 -0.0976562 4.90625 -0.296875 L 3.28125 -7.171875 L 3.15625 -7.171875 L 3.15625 -0.34375 C 3.15625 -0.113281 3.039062 0 2.8125 0 L 1.21875 0 C 0.988281 0 0.875 -0.113281 0.875 -0.34375 L 0.875 -11.796875 C 0.875 -12.035156 0.988281 -12.15625 1.21875 -12.15625 L 3.5 -12.15625 C 3.695312 -12.15625 3.828125 -12.054688 3.890625 -11.859375 L 5.8125 -4.109375 L 7.75 -11.859375 C 7.800781 -12.054688 7.925781 -12.15625 8.125 -12.15625 Z M 8.125 -12.15625 "/></g></g><g style="fill:#060705;fill-opacity:1;"><g transform="translate(59.911035, 54.822881)"><path style="stroke:none" d="M 7.796875 -11.875 L 7.796875 -10.140625 C 7.796875 -9.941406 7.703125 -9.84375 7.515625 -9.84375 L 3.234375 -9.84375 L 3.234375 -7.171875 L 6.5 -7.171875 C 6.675781 -7.171875 6.765625 -7.070312 6.765625 -6.875 L 6.765625 -5.15625 C 6.765625 -4.957031 6.675781 -4.859375 6.5 -4.859375 L 3.234375 -4.859375 L 3.234375 -2.296875 L 7.515625 -2.296875 C 7.703125 -2.296875 7.796875 -2.203125 7.796875 -2.015625 L 7.796875 -0.28125 C 7.796875 -0.09375 7.703125 0 7.515625 0 L 1.125 0 C 0.957031 0 0.875 -0.09375 0.875 -0.28125 L 0.875 -11.875 C 0.875 -12.0625 0.957031 -12.15625 1.125 -12.15625 L 7.515625 -12.15625 C 7.703125 -12.15625 7.796875 -12.0625 7.796875 -11.875 Z M 7.796875 -11.875 "/></g></g><g style="fill:#060705;fill-opacity:1;"><g transform="translate(68.573593, 54.822881)"><path style="stroke:none" d="M 7.8125 -9.65625 L 7.8125 -6.15625 C 7.8125 -5.15625 7.488281 -4.453125 6.84375 -4.046875 L 7.75 -0.3125 C 7.800781 -0.101562 7.71875 0 7.5 0 L 5.796875 0 C 5.640625 0 5.539062 -0.0820312 5.5 -0.25 L 4.671875 -3.65625 L 3.125 -3.65625 L 3.125 -0.28125 C 3.125 -0.09375 3.03125 0 2.84375 0 L 1.140625 0 C 0.960938 0 0.875 -0.09375 0.875 -0.28125 L 0.875 -11.875 C 0.875 -12.0625 0.960938 -12.15625 1.140625 -12.15625 L 5.3125 -12.15625 C 6.132812 -12.15625 6.753906 -11.941406 7.171875 -11.515625 C 7.597656 -11.097656 7.8125 -10.476562 7.8125 -9.65625 Z M 3.125 -5.90625 L 4.859375 -5.90625 C 5.328125 -5.90625 5.5625 -6.132812 5.5625 -6.59375 L 5.5625 -9.21875 C 5.5625 -9.675781 5.328125 -9.90625 4.859375 -9.90625 L 3.125 -9.90625 Z M 3.125 -5.90625 "/></g></g><g style="fill:#060705;fill-opacity:1;"><g transform="translate(77.253515, 54.822881)"><path style="stroke:none" d="M 0.875 -5.453125 L 0.875 -7.046875 C 0.875 -7.273438 0.988281 -7.390625 1.21875 -7.390625 L 3.953125 -7.390625 C 4.191406 -7.390625 4.3125 -7.273438 4.3125 -7.046875 L 4.3125 -5.453125 C 4.3125 -5.222656 4.191406 -5.109375 3.953125 -5.109375 L 1.21875 -5.109375 C 0.988281 -5.109375 0.875 -5.222656 0.875 -5.453125 Z M 0.875 -5.453125 "/></g></g><g style="fill:#060705;fill-opacity:1;"><g transform="translate(30.493656, 79.033103)"><path style="stroke:none" d="M 7.8125 -11.875 L 7.8125 -10.140625 C 7.8125 -9.953125 7.71875 -9.859375 7.53125 -9.859375 L 3.234375 -9.859375 L 3.234375 -6.890625 L 6.5 -6.890625 C 6.675781 -6.890625 6.765625 -6.796875 6.765625 -6.609375 L 6.765625 -4.875 C 6.765625 -4.6875 6.675781 -4.59375 6.5 -4.59375 L 3.234375 -4.59375 L 3.234375 -0.28125 C 3.234375 -0.09375 3.140625 0 2.953125 0 L 1.140625 0 C 0.960938 0 0.875 -0.09375 0.875 -0.28125 L 0.875 -11.875 C 0.875 -12.0625 0.960938 -12.15625 1.140625 -12.15625 L 7.53125 -12.15625 C 7.71875 -12.15625 7.8125 -12.0625 7.8125 -11.875 Z M 7.8125 -11.875 "/></g></g><g style="fill:#060705;fill-opacity:1;"><g transform="translate(39.173577, 79.033103)"><path style="stroke:none" d="M 5.875 -12.15625 L 7.46875 -12.15625 C 7.5625 -12.15625 7.640625 -12.117188 7.703125 -12.046875 C 7.773438 -11.972656 7.8125 -11.890625 7.8125 -11.796875 L 7.8125 -2.5 C 7.8125 -1.6875 7.597656 -1.066406 7.171875 -0.640625 C 6.753906 -0.210938 6.132812 0 5.3125 0 L 3.375 0 C 2.5625 0 1.941406 -0.210938 1.515625 -0.640625 C 1.085938 -1.066406 0.875 -1.6875 0.875 -2.5 L 0.875 -11.796875 C 0.875 -11.890625 0.90625 -11.972656 0.96875 -12.046875 C 1.039062 -12.117188 1.125 -12.15625 1.21875 -12.15625 L 2.875 -12.15625 C 2.96875 -12.15625 3.050781 -12.117188 3.125 -12.046875 C 3.195312 -11.972656 3.234375 -11.890625 3.234375 -11.796875 L 3.234375 -2.984375 C 3.234375 -2.523438 3.460938 -2.296875 3.921875 -2.296875 L 4.828125 -2.296875 C 5.285156 -2.296875 5.515625 -2.523438 5.515625 -2.984375 L 5.515625 -11.796875 C 5.515625 -11.890625 5.550781 -11.972656 5.625 -12.046875 C 5.695312 -12.117188 5.78125 -12.15625 5.875 -12.15625 Z M 5.875 -12.15625 "/></g></g><g style="fill:#060705;fill-opacity:1;"><g transform="translate(47.853499, 79.033103)"><path style="stroke:none" d="M 1.421875 -12.15625 L 8 -12.15625 C 8.132812 -12.15625 8.222656 -12.113281 8.265625 -12.03125 C 8.316406 -11.957031 8.316406 -11.859375 8.265625 -11.734375 L 3.84375 -2.140625 L 7.640625 -2.140625 C 7.828125 -2.140625 7.921875 -2.046875 7.921875 -1.859375 L 7.921875 -0.296875 C 7.921875 -0.117188 7.828125 -0.0195312 7.640625 0 L 0.828125 0 C 0.691406 0 0.597656 -0.0390625 0.546875 -0.125 C 0.503906 -0.207031 0.515625 -0.304688 0.578125 -0.421875 L 5 -9.859375 L 1.421875 -9.859375 C 1.234375 -9.859375 1.140625 -9.953125 1.140625 -10.140625 L 1.140625 -11.859375 C 1.140625 -12.023438 1.234375 -12.125 1.421875 -12.15625 Z M 1.421875 -12.15625 "/></g></g><g style="fill:#060705;fill-opacity:1;"><g transform="translate(56.672301, 79.033103)"><path style="stroke:none" d="M 1.421875 -12.15625 L 8 -12.15625 C 8.132812 -12.15625 8.222656 -12.113281 8.265625 -12.03125 C 8.316406 -11.957031 8.316406 -11.859375 8.265625 -11.734375 L 3.84375 -2.140625 L 7.640625 -2.140625 C 7.828125 -2.140625 7.921875 -2.046875 7.921875 -1.859375 L 7.921875 -0.296875 C 7.921875 -0.117188 7.828125 -0.0195312 7.640625 0 L 0.828125 0 C 0.691406 0 0.597656 -0.0390625 0.546875 -0.125 C 0.503906 -0.207031 0.515625 -0.304688 0.578125 -0.421875 L 5 -9.859375 L 1.421875 -9.859375 C 1.234375 -9.859375 1.140625 -9.953125 1.140625 -10.140625 L 1.140625 -11.859375 C 1.140625 -12.023438 1.234375 -12.125 1.421875 -12.15625 Z M 1.421875 -12.15625 "/></g></g></g></svg>