<svg xmlns="http://www.w3.org/2000/svg" xmlns:xlink="http://www.w3.org/1999/xlink" width="500" zoomAndPan="magnify" viewBox="0 0 375 374.999991" height="500" preserveAspectRatio="xMidYMid meet" version="1.2"><defs><clipPath id="ae78f74283"><path d="M 25 0 L 350 0 L 350 375 L 25 375 Z M 25 0 "/></clipPath><clipPath id="6547073047"><path d="M -55.878906 142.882812 L 268.328125 -46.476562 L 431 232.042969 L 106.789062 421.402344 Z M -55.878906 142.882812 "/></clipPath><clipPath id="0dd0d13c0c"><path d="M 349.546875 92.851562 L 349.859375 279.433594 L 187.8125 374.078125 L 25.453125 282.140625 L 25.140625 95.5625 L 187.1875 0.917969 Z M 349.546875 92.851562 "/></clipPath><clipPath id="4340f5a46c"><path d="M 55.238281 35.632812 L 319.726562 35.632812 L 319.726562 339 L 55.238281 339 Z M 55.238281 35.632812 "/></clipPath></defs><g id="fd09c46282"><g clip-rule="nonzero" clip-path="url(#ae78f74283)"><g clip-rule="nonzero" clip-path="url(#6547073047)"><g clip-rule="nonzero" clip-path="url(#0dd0d13c0c)"><path style=" stroke:none;fill-rule:nonzero;fill:#65b30e;fill-opacity:1;" d="M -55.878906 142.882812 L 268.332031 -46.476562 L 431 232.042969 L 106.789062 421.402344 Z M -55.878906 142.882812 "/></g></g></g><path style=" stroke:none;fill-rule:nonzero;fill:#87ff00;fill-opacity:1;" d="M 134.582031 135.703125 L 134.414062 135.535156 L 97.035156 172.914062 L 187.792969 263.503906 L 225.175781 226.296875 L 278.546875 172.914062 L 241.167969 135.535156 L 241.167969 135.363281 L 134.417969 135.363281 Z M 134.582031 135.703125 "/><g clip-rule="nonzero" clip-path="url(#4340f5a46c)"><path style=" stroke:none;fill-rule:nonzero;fill:#87ff00;fill-opacity:1;" d="M 187.453125 35.851562 L 55.269531 111.625 L 55.273438 263.175781 L 187.457031 338.949219 L 319.640625 263.175781 L 319.640625 111.625 L 187.457031 35.855469 Z M 294.375 248.683594 L 187.453125 310.308594 L 80.527344 248.683594 L 80.53125 125.765625 L 187.457031 64.136719 L 294.378906 125.765625 L 294.378906 248.683594 Z M 294.375 248.683594 "/></g><g style="fill:#b21a22;fill-opacity:1;"><g transform="translate(96.950724, 119.580693)"><path style="stroke:none" d="M 19.179688 -11.667969 L 19.179688 -46.398438 C 19.179688 -47.34375 19.476562 -48.117188 20.070312 -48.710938 C 20.667969 -49.304688 21.4375 -49.601562 22.386719 -49.601562 L 29.441406 -49.601562 C 30.386719 -49.601562 31.15625 -49.304688 31.753906 -48.710938 C 32.347656 -48.117188 32.644531 -47.34375 32.644531 -46.398438 L 32.644531 -9.769531 C 32.644531 -6.015625 31.601562 -3.097656 29.515625 -1.011719 C 27.425781 1.078125 24.507812 2.121094 20.757812 2.121094 L 13.160156 2.121094 C 9.410156 2.121094 6.488281 1.078125 4.402344 -1.011719 C 2.316406 -3.097656 1.273438 -6.015625 1.273438 -9.769531 L 1.273438 -16.824219 C 1.273438 -17.769531 1.570312 -18.539062 2.164062 -19.136719 C 2.757812 -19.730469 3.53125 -20.027344 4.476562 -20.027344 L 11.261719 -20.027344 C 12.207031 -20.027344 12.980469 -19.730469 13.574219 -19.136719 C 14.167969 -18.539062 14.464844 -17.769531 14.464844 -16.824219 L 14.464844 -11.667969 C 14.464844 -11.445312 14.484375 -11.273438 14.527344 -11.152344 C 14.535156 -11.128906 14.539062 -11.113281 14.546875 -11.105469 C 14.539062 -11.113281 14.53125 -11.121094 14.523438 -11.132812 C 14.511719 -11.140625 14.503906 -11.148438 14.496094 -11.152344 C 14.503906 -11.148438 14.519531 -11.140625 14.542969 -11.132812 C 14.664062 -11.09375 14.835938 -11.074219 15.058594 -11.074219 L 18.585938 -11.074219 C 18.808594 -11.074219 18.980469 -11.09375 19.101562 -11.132812 C 19.125 -11.140625 19.140625 -11.148438 19.148438 -11.152344 C 19.140625 -11.148438 19.132812 -11.140625 19.121094 -11.132812 C 19.113281 -11.121094 19.105469 -11.113281 19.101562 -11.105469 C 19.105469 -11.113281 19.113281 -11.128906 19.117188 -11.152344 C 19.160156 -11.273438 19.179688 -11.445312 19.179688 -11.667969 Z M 23.417969 -11.667969 C 23.417969 -10.175781 22.988281 -9 22.121094 -8.132812 C 21.253906 -7.265625 20.078125 -6.835938 18.585938 -6.835938 L 15.058594 -6.835938 C 13.570312 -6.835938 12.390625 -7.265625 11.523438 -8.132812 C 10.660156 -9 10.226562 -10.175781 10.226562 -11.667969 L 10.226562 -16.824219 C 10.226562 -16.773438 10.238281 -16.710938 10.265625 -16.628906 C 10.328125 -16.445312 10.429688 -16.28125 10.574219 -16.136719 C 10.722656 -15.992188 10.882812 -15.890625 11.066406 -15.828125 C 11.148438 -15.800781 11.210938 -15.789062 11.261719 -15.789062 L 4.476562 -15.789062 C 4.527344 -15.789062 4.589844 -15.800781 4.671875 -15.828125 C 4.851562 -15.890625 5.015625 -15.992188 5.160156 -16.136719 C 5.308594 -16.28125 5.410156 -16.445312 5.46875 -16.628906 C 5.496094 -16.710938 5.511719 -16.773438 5.511719 -16.824219 L 5.511719 -9.769531 C 5.511719 -7.1875 6.140625 -5.269531 7.402344 -4.007812 C 8.660156 -2.75 10.578125 -2.121094 13.160156 -2.121094 L 20.757812 -2.121094 C 23.335938 -2.121094 25.257812 -2.75 26.515625 -4.007812 C 27.777344 -5.269531 28.40625 -7.1875 28.40625 -9.769531 L 28.40625 -46.398438 C 28.40625 -46.347656 28.417969 -46.285156 28.445312 -46.203125 C 28.507812 -46.023438 28.609375 -45.859375 28.753906 -45.714844 C 28.898438 -45.566406 29.0625 -45.464844 29.242188 -45.40625 C 29.324219 -45.378906 29.390625 -45.363281 29.441406 -45.363281 L 22.386719 -45.363281 C 22.433594 -45.363281 22.5 -45.378906 22.582031 -45.40625 C 22.761719 -45.464844 22.925781 -45.566406 23.070312 -45.714844 C 23.214844 -45.859375 23.320312 -46.023438 23.378906 -46.203125 C 23.40625 -46.285156 23.417969 -46.347656 23.417969 -46.398438 Z M 23.417969 -11.667969 "/></g></g><g style="fill:#b21a22;fill-opacity:1;"><g transform="translate(130.856666, 119.580693)"><path style="stroke:none" d="M 13.160156 -49.601562 L 20.757812 -49.601562 C 24.554688 -49.601562 27.484375 -48.570312 29.546875 -46.507812 C 31.613281 -44.441406 32.644531 -41.511719 32.644531 -37.714844 L 32.644531 -33.238281 C 32.644531 -32.292969 32.347656 -31.519531 31.753906 -30.925781 C 31.15625 -30.332031 30.386719 -30.03125 29.441406 -30.03125 L 22.589844 -30.03125 C 21.640625 -30.03125 20.871094 -30.332031 20.277344 -30.925781 C 19.679688 -31.519531 19.382812 -32.292969 19.382812 -33.238281 L 19.382812 -36.085938 C 19.382812 -36.308594 19.363281 -36.484375 19.324219 -36.605469 C 19.316406 -36.625 19.308594 -36.640625 19.304688 -36.648438 C 19.308594 -36.640625 19.316406 -36.632812 19.324219 -36.625 C 19.335938 -36.613281 19.34375 -36.605469 19.351562 -36.601562 C 19.34375 -36.605469 19.328125 -36.613281 19.304688 -36.621094 C 19.183594 -36.660156 19.011719 -36.679688 18.789062 -36.679688 L 15.058594 -36.679688 C 14.835938 -36.679688 14.664062 -36.660156 14.542969 -36.621094 C 14.519531 -36.613281 14.503906 -36.605469 14.496094 -36.601562 C 14.503906 -36.605469 14.511719 -36.613281 14.523438 -36.625 C 14.53125 -36.632812 14.539062 -36.640625 14.546875 -36.648438 C 14.539062 -36.640625 14.535156 -36.625 14.527344 -36.605469 C 14.484375 -36.484375 14.464844 -36.308594 14.464844 -36.085938 L 14.464844 -30.320312 L 12.34375 -30.320312 L 12.996094 -32.339844 L 29.410156 -27.046875 C 30.460938 -26.6875 31.261719 -26.109375 31.820312 -25.316406 C 32.371094 -24.53125 32.644531 -23.601562 32.644531 -22.519531 L 32.644531 -9.769531 C 32.644531 -6.023438 31.617188 -3.105469 29.558594 -1.019531 C 27.492188 1.074219 24.558594 2.121094 20.757812 2.121094 L 13.160156 2.121094 C 9.410156 2.121094 6.488281 1.078125 4.402344 -1.011719 C 2.316406 -3.097656 1.273438 -6.015625 1.273438 -9.769531 L 1.273438 -14.175781 C 1.273438 -15.125 1.570312 -15.894531 2.164062 -16.488281 C 2.757812 -17.085938 3.53125 -17.382812 4.476562 -17.382812 L 11.328125 -17.382812 C 12.273438 -17.382812 13.046875 -17.085938 13.640625 -16.488281 C 14.234375 -15.894531 14.535156 -15.125 14.535156 -14.175781 L 14.535156 -11.328125 C 14.535156 -11.105469 14.554688 -10.933594 14.59375 -10.8125 C 14.601562 -10.789062 14.609375 -10.773438 14.613281 -10.765625 C 14.609375 -10.773438 14.601562 -10.78125 14.589844 -10.792969 C 14.582031 -10.800781 14.570312 -10.808594 14.5625 -10.8125 C 14.574219 -10.808594 14.585938 -10.804688 14.609375 -10.796875 C 14.730469 -10.753906 14.902344 -10.734375 15.125 -10.734375 L 18.789062 -10.734375 C 19.011719 -10.734375 19.183594 -10.753906 19.304688 -10.796875 C 19.328125 -10.804688 19.34375 -10.808594 19.351562 -10.8125 C 19.34375 -10.808594 19.335938 -10.800781 19.324219 -10.792969 C 19.316406 -10.78125 19.308594 -10.773438 19.304688 -10.765625 C 19.308594 -10.773438 19.316406 -10.789062 19.324219 -10.8125 C 19.363281 -10.933594 19.382812 -11.105469 19.382812 -11.328125 L 19.382812 -18.179688 L 21.503906 -18.179688 L 20.847656 -16.164062 L 4.566406 -21.453125 C 3.519531 -21.804688 2.707031 -22.371094 2.136719 -23.152344 C 1.558594 -23.945312 1.273438 -24.886719 1.273438 -25.980469 L 1.273438 -37.714844 C 1.273438 -41.515625 2.320312 -44.449219 4.414062 -46.515625 C 6.5 -48.574219 9.414062 -49.601562 13.160156 -49.601562 Z M 13.160156 -45.363281 C 10.574219 -45.363281 8.652344 -44.742188 7.390625 -43.5 C 6.136719 -42.261719 5.511719 -40.335938 5.511719 -37.714844 L 5.511719 -25.980469 C 5.511719 -25.808594 5.527344 -25.699219 5.5625 -25.652344 C 5.601562 -25.597656 5.707031 -25.542969 5.878906 -25.488281 L 23.625 -19.71875 L 23.625 -11.328125 C 23.625 -9.839844 23.191406 -8.660156 22.324219 -7.792969 C 21.457031 -6.929688 20.28125 -6.496094 18.789062 -6.496094 L 15.125 -6.496094 C 13.636719 -6.496094 12.457031 -6.929688 11.59375 -7.792969 C 10.726562 -8.660156 10.292969 -9.839844 10.292969 -11.328125 L 10.292969 -14.175781 C 10.292969 -14.128906 10.308594 -14.0625 10.335938 -13.980469 C 10.394531 -13.800781 10.496094 -13.636719 10.644531 -13.492188 C 10.789062 -13.347656 10.953125 -13.242188 11.132812 -13.183594 C 11.214844 -13.15625 11.28125 -13.140625 11.328125 -13.140625 L 4.476562 -13.140625 C 4.527344 -13.140625 4.589844 -13.15625 4.671875 -13.183594 C 4.851562 -13.242188 5.015625 -13.347656 5.160156 -13.492188 C 5.308594 -13.636719 5.410156 -13.800781 5.46875 -13.980469 C 5.496094 -14.0625 5.511719 -14.128906 5.511719 -14.175781 L 5.511719 -9.769531 C 5.511719 -7.1875 6.140625 -5.269531 7.402344 -4.007812 C 8.660156 -2.75 10.578125 -2.121094 13.160156 -2.121094 L 20.757812 -2.121094 C 23.375 -2.121094 25.304688 -2.746094 26.539062 -4 C 27.785156 -5.257812 28.40625 -7.183594 28.40625 -9.769531 L 28.40625 -22.519531 C 28.40625 -22.707031 28.386719 -22.828125 28.347656 -22.878906 C 28.316406 -22.921875 28.238281 -22.96875 28.109375 -23.011719 L 10.226562 -28.777344 L 10.226562 -36.085938 C 10.226562 -37.578125 10.660156 -38.753906 11.523438 -39.621094 C 12.390625 -40.488281 13.570312 -40.921875 15.058594 -40.921875 L 18.789062 -40.921875 C 20.28125 -40.921875 21.457031 -40.488281 22.324219 -39.621094 C 23.191406 -38.753906 23.625 -37.578125 23.625 -36.085938 L 23.625 -33.238281 C 23.625 -33.285156 23.609375 -33.351562 23.582031 -33.433594 C 23.523438 -33.613281 23.417969 -33.777344 23.273438 -33.921875 C 23.128906 -34.070312 22.964844 -34.171875 22.785156 -34.230469 C 22.703125 -34.257812 22.636719 -34.273438 22.589844 -34.273438 L 29.441406 -34.273438 C 29.390625 -34.273438 29.324219 -34.257812 29.242188 -34.230469 C 29.0625 -34.171875 28.898438 -34.070312 28.753906 -33.921875 C 28.609375 -33.777344 28.507812 -33.613281 28.445312 -33.433594 C 28.417969 -33.351562 28.40625 -33.285156 28.40625 -33.238281 L 28.40625 -37.714844 C 28.40625 -40.339844 27.785156 -42.273438 26.550781 -43.507812 C 25.3125 -44.746094 23.382812 -45.363281 20.757812 -45.363281 Z M 13.160156 -45.363281 "/></g></g><g style="fill:#b21a22;fill-opacity:1;"><g transform="translate(164.762608, 119.580693)"><path style="stroke:none" d="M 1.273438 -9.769531 L 1.273438 -37.714844 C 1.273438 -41.515625 2.320312 -44.449219 4.414062 -46.515625 C 6.5 -48.574219 9.414062 -49.601562 13.160156 -49.601562 L 20.757812 -49.601562 C 24.554688 -49.601562 27.484375 -48.570312 29.546875 -46.507812 C 31.613281 -44.441406 32.644531 -41.511719 32.644531 -37.714844 L 32.644531 -9.769531 C 32.644531 -6.023438 31.617188 -3.105469 29.558594 -1.019531 C 27.492188 1.074219 24.558594 2.121094 20.757812 2.121094 L 13.160156 2.121094 C 9.410156 2.121094 6.488281 1.078125 4.402344 -1.011719 C 2.316406 -3.097656 1.273438 -6.015625 1.273438 -9.769531 Z M 5.511719 -9.769531 C 5.511719 -7.1875 6.140625 -5.269531 7.402344 -4.007812 C 8.660156 -2.75 10.578125 -2.121094 13.160156 -2.121094 L 20.757812 -2.121094 C 23.375 -2.121094 25.304688 -2.746094 26.539062 -4 C 27.785156 -5.257812 28.40625 -7.183594 28.40625 -9.769531 L 28.40625 -37.714844 C 28.40625 -40.339844 27.785156 -42.273438 26.550781 -43.507812 C 25.3125 -44.746094 23.382812 -45.363281 20.757812 -45.363281 L 13.160156 -45.363281 C 10.574219 -45.363281 8.652344 -44.742188 7.390625 -43.5 C 6.136719 -42.261719 5.511719 -40.335938 5.511719 -37.714844 Z M 14.921875 -10.871094 L 19.265625 -10.871094 C 19.488281 -10.871094 19.660156 -10.890625 19.78125 -10.929688 C 19.804688 -10.9375 19.820312 -10.945312 19.828125 -10.949219 C 19.820312 -10.945312 19.8125 -10.9375 19.800781 -10.929688 C 19.789062 -10.917969 19.785156 -10.910156 19.777344 -10.902344 C 19.785156 -10.910156 19.789062 -10.925781 19.796875 -10.945312 C 19.835938 -11.070312 19.859375 -11.242188 19.859375 -11.464844 L 19.859375 -36.019531 C 19.859375 -36.242188 19.835938 -36.414062 19.796875 -36.535156 C 19.789062 -36.558594 19.785156 -36.574219 19.777344 -36.582031 C 19.785156 -36.574219 19.789062 -36.566406 19.800781 -36.554688 C 19.8125 -36.546875 19.820312 -36.539062 19.828125 -36.535156 C 19.820312 -36.539062 19.804688 -36.542969 19.78125 -36.550781 C 19.660156 -36.59375 19.488281 -36.613281 19.265625 -36.613281 L 14.921875 -36.613281 C 14.699219 -36.613281 14.527344 -36.59375 14.40625 -36.550781 C 14.382812 -36.542969 14.367188 -36.539062 14.359375 -36.535156 C 14.367188 -36.539062 14.378906 -36.546875 14.386719 -36.554688 C 14.398438 -36.566406 14.40625 -36.574219 14.410156 -36.582031 C 14.40625 -36.574219 14.398438 -36.558594 14.390625 -36.535156 C 14.351562 -36.414062 14.328125 -36.242188 14.328125 -36.019531 L 14.328125 -11.464844 C 14.328125 -11.242188 14.351562 -11.070312 14.390625 -10.945312 C 14.398438 -10.925781 14.40625 -10.910156 14.410156 -10.902344 C 14.40625 -10.910156 14.398438 -10.917969 14.386719 -10.929688 C 14.378906 -10.9375 14.367188 -10.945312 14.359375 -10.949219 C 14.367188 -10.945312 14.382812 -10.9375 14.40625 -10.929688 C 14.527344 -10.890625 14.699219 -10.871094 14.921875 -10.871094 Z M 14.921875 -6.628906 C 13.433594 -6.628906 12.253906 -7.0625 11.390625 -7.929688 C 10.523438 -8.796875 10.089844 -9.972656 10.089844 -11.464844 L 10.089844 -36.019531 C 10.089844 -37.507812 10.523438 -38.6875 11.390625 -39.554688 C 12.253906 -40.417969 13.433594 -40.851562 14.921875 -40.851562 L 19.265625 -40.851562 C 20.753906 -40.851562 21.933594 -40.417969 22.796875 -39.554688 C 23.664062 -38.6875 24.097656 -37.507812 24.097656 -36.019531 L 24.097656 -11.464844 C 24.097656 -9.972656 23.664062 -8.796875 22.796875 -7.929688 C 21.933594 -7.0625 20.753906 -6.628906 19.265625 -6.628906 Z M 14.921875 -6.628906 "/></g></g><g style="fill:#b21a22;fill-opacity:1;"><g transform="translate(198.66855, 119.580693)"><path style="stroke:none" d="M 24.894531 -49.601562 L 31.269531 -49.601562 C 32.21875 -49.601562 32.988281 -49.304688 33.585938 -48.710938 C 34.179688 -48.117188 34.476562 -47.34375 34.476562 -46.398438 L 34.476562 -1.085938 C 34.476562 -0.136719 34.179688 0.632812 33.585938 1.226562 C 32.988281 1.824219 32.21875 2.121094 31.269531 2.121094 L 25.914062 2.121094 C 25.183594 2.121094 24.53125 1.914062 23.957031 1.5 C 23.453125 1.132812 23.058594 0.636719 22.765625 0.0078125 L 24.691406 -0.882812 L 22.789062 0.0546875 L 10.035156 -25.859375 L 11.9375 -26.792969 L 14.058594 -26.792969 L 14.058594 -1.085938 C 14.058594 -0.136719 13.761719 0.632812 13.167969 1.226562 C 12.570312 1.824219 11.800781 2.121094 10.851562 2.121094 L 4.476562 2.121094 C 3.53125 2.121094 2.757812 1.824219 2.164062 1.226562 C 1.570312 0.632812 1.273438 -0.136719 1.273438 -1.085938 L 1.273438 -46.398438 C 1.273438 -47.34375 1.570312 -48.117188 2.164062 -48.710938 C 2.757812 -49.304688 3.53125 -49.601562 4.476562 -49.601562 L 9.835938 -49.601562 C 10.5625 -49.601562 11.214844 -49.394531 11.789062 -48.980469 C 12.292969 -48.617188 12.691406 -48.121094 12.980469 -47.488281 L 11.058594 -46.601562 L 12.957031 -47.539062 L 25.710938 -21.625 L 23.808594 -20.6875 L 21.691406 -20.6875 L 21.691406 -46.398438 C 21.691406 -47.34375 21.988281 -48.117188 22.582031 -48.710938 C 23.175781 -49.304688 23.949219 -49.601562 24.894531 -49.601562 Z M 24.894531 -45.363281 C 24.941406 -45.363281 25.007812 -45.378906 25.089844 -45.40625 C 25.269531 -45.464844 25.433594 -45.566406 25.578125 -45.714844 C 25.726562 -45.859375 25.828125 -46.023438 25.886719 -46.203125 C 25.914062 -46.285156 25.929688 -46.347656 25.929688 -46.398438 L 25.929688 -20.6875 L 21.90625 -19.753906 L 9.144531 -45.6875 L 9.132812 -45.714844 C 9.152344 -45.671875 9.210938 -45.613281 9.308594 -45.542969 C 9.472656 -45.421875 9.648438 -45.363281 9.835938 -45.363281 L 4.476562 -45.363281 C 4.527344 -45.363281 4.589844 -45.378906 4.671875 -45.40625 C 4.851562 -45.464844 5.015625 -45.566406 5.160156 -45.714844 C 5.308594 -45.859375 5.410156 -46.023438 5.46875 -46.203125 C 5.496094 -46.285156 5.511719 -46.347656 5.511719 -46.398438 L 5.511719 -1.085938 C 5.511719 -1.132812 5.496094 -1.199219 5.46875 -1.28125 C 5.410156 -1.460938 5.308594 -1.625 5.160156 -1.769531 C 5.015625 -1.914062 4.851562 -2.019531 4.671875 -2.078125 C 4.589844 -2.105469 4.527344 -2.121094 4.476562 -2.121094 L 10.851562 -2.121094 C 10.804688 -2.121094 10.738281 -2.105469 10.65625 -2.078125 C 10.476562 -2.019531 10.3125 -1.914062 10.167969 -1.769531 C 10.023438 -1.625 9.921875 -1.460938 9.859375 -1.28125 C 9.832031 -1.199219 9.820312 -1.132812 9.820312 -1.085938 L 9.820312 -26.792969 L 13.839844 -27.730469 L 26.605469 -1.792969 L 26.617188 -1.769531 C 26.597656 -1.8125 26.539062 -1.867188 26.441406 -1.9375 C 26.273438 -2.058594 26.097656 -2.121094 25.914062 -2.121094 L 31.269531 -2.121094 C 31.222656 -2.121094 31.15625 -2.105469 31.074219 -2.078125 C 30.894531 -2.019531 30.730469 -1.914062 30.585938 -1.769531 C 30.441406 -1.625 30.335938 -1.460938 30.277344 -1.28125 C 30.25 -1.199219 30.238281 -1.132812 30.238281 -1.085938 L 30.238281 -46.398438 C 30.238281 -46.347656 30.25 -46.285156 30.277344 -46.203125 C 30.335938 -46.023438 30.441406 -45.859375 30.585938 -45.714844 C 30.730469 -45.566406 30.894531 -45.464844 31.074219 -45.40625 C 31.15625 -45.378906 31.222656 -45.363281 31.269531 -45.363281 Z M 24.894531 -45.363281 "/></g></g><g style="fill:#b21a22;fill-opacity:1;"><g transform="translate(234.405424, 119.580693)"><path style="stroke:none" d="M -2.121094 9.089844 L -2.121094 2.847656 C -2.121094 1.8125 -1.800781 0.972656 -1.160156 0.332031 C -0.519531 -0.308594 0.320312 -0.628906 1.355469 -0.628906 L 42.261719 -0.628906 C 43.296875 -0.628906 44.136719 -0.308594 44.777344 0.332031 C 45.417969 0.972656 45.738281 1.8125 45.738281 2.847656 L 45.738281 9.089844 C 45.738281 10.128906 45.417969 10.964844 44.777344 11.605469 C 44.136719 12.246094 43.296875 12.566406 42.261719 12.566406 L 1.355469 12.566406 C 0.320312 12.566406 -0.519531 12.246094 -1.160156 11.605469 C -1.800781 10.964844 -2.121094 10.128906 -2.121094 9.089844 Z M 2.121094 9.089844 C 2.121094 9.097656 2.121094 9.105469 2.121094 9.113281 C 2.121094 9.113281 2.121094 9.109375 2.121094 9.109375 C 2.117188 9.082031 2.109375 9.050781 2.097656 9.011719 C 2.046875 8.867188 1.960938 8.730469 1.839844 8.609375 C 1.714844 8.484375 1.582031 8.398438 1.433594 8.351562 C 1.398438 8.339844 1.367188 8.332031 1.339844 8.328125 C 1.335938 8.324219 1.332031 8.324219 1.332031 8.324219 C 1.339844 8.328125 1.347656 8.328125 1.355469 8.328125 L 42.261719 8.328125 C 42.269531 8.328125 42.277344 8.328125 42.285156 8.324219 C 42.285156 8.324219 42.28125 8.324219 42.277344 8.328125 C 42.25 8.332031 42.21875 8.339844 42.183594 8.351562 C 42.035156 8.398438 41.902344 8.484375 41.777344 8.609375 C 41.65625 8.730469 41.570312 8.867188 41.519531 9.011719 C 41.507812 9.050781 41.5 9.082031 41.496094 9.109375 C 41.496094 9.109375 41.496094 9.113281 41.496094 9.113281 C 41.496094 9.105469 41.496094 9.097656 41.496094 9.089844 L 41.496094 2.847656 C 41.496094 2.839844 41.496094 2.832031 41.496094 2.824219 C 41.496094 2.824219 41.496094 2.828125 41.496094 2.832031 C 41.5 2.859375 41.507812 2.890625 41.519531 2.925781 C 41.570312 3.074219 41.65625 3.207031 41.777344 3.332031 C 41.902344 3.453125 42.035156 3.539062 42.183594 3.589844 C 42.21875 3.601562 42.25 3.609375 42.277344 3.613281 C 42.28125 3.613281 42.285156 3.613281 42.285156 3.613281 C 42.277344 3.613281 42.269531 3.613281 42.261719 3.613281 L 1.355469 3.613281 C 1.347656 3.613281 1.339844 3.613281 1.332031 3.613281 C 1.332031 3.613281 1.335938 3.613281 1.339844 3.613281 C 1.367188 3.609375 1.398438 3.601562 1.433594 3.589844 C 1.582031 3.539062 1.714844 3.453125 1.839844 3.332031 C 1.960938 3.207031 2.046875 3.074219 2.097656 2.925781 C 2.109375 2.890625 2.117188 2.859375 2.121094 2.832031 C 2.121094 2.828125 2.121094 2.824219 2.121094 2.824219 C 2.121094 2.832031 2.121094 2.839844 2.121094 2.847656 Z M 2.121094 9.089844 "/></g></g><g style="fill:#b21a22;fill-opacity:1;"><g transform="translate(52.969754, 214.151869)"><path style="stroke:none" d="M 13.160156 -49.601562 L 20.757812 -49.601562 C 24.554688 -49.601562 27.484375 -48.570312 29.546875 -46.507812 C 31.613281 -44.441406 32.644531 -41.511719 32.644531 -37.714844 L 32.644531 -33.238281 C 32.644531 -32.292969 32.347656 -31.519531 31.753906 -30.925781 C 31.15625 -30.332031 30.386719 -30.03125 29.441406 -30.03125 L 22.589844 -30.03125 C 21.640625 -30.03125 20.871094 -30.332031 20.277344 -30.925781 C 19.679688 -31.519531 19.382812 -32.292969 19.382812 -33.238281 L 19.382812 -36.085938 C 19.382812 -36.308594 19.363281 -36.484375 19.324219 -36.605469 C 19.316406 -36.625 19.308594 -36.640625 19.304688 -36.648438 C 19.308594 -36.640625 19.316406 -36.632812 19.324219 -36.625 C 19.335938 -36.613281 19.34375 -36.605469 19.351562 -36.601562 C 19.34375 -36.605469 19.328125 -36.613281 19.304688 -36.621094 C 19.183594 -36.660156 19.011719 -36.679688 18.789062 -36.679688 L 15.058594 -36.679688 C 14.835938 -36.679688 14.664062 -36.660156 14.542969 -36.621094 C 14.519531 -36.613281 14.503906 -36.605469 14.496094 -36.601562 C 14.503906 -36.605469 14.511719 -36.613281 14.523438 -36.625 C 14.53125 -36.632812 14.539062 -36.640625 14.546875 -36.648438 C 14.539062 -36.640625 14.535156 -36.625 14.527344 -36.605469 C 14.484375 -36.484375 14.464844 -36.308594 14.464844 -36.085938 L 14.464844 -30.320312 L 12.34375 -30.320312 L 12.996094 -32.339844 L 29.410156 -27.046875 C 30.460938 -26.6875 31.261719 -26.109375 31.820312 -25.316406 C 32.371094 -24.53125 32.644531 -23.601562 32.644531 -22.519531 L 32.644531 -9.769531 C 32.644531 -6.023438 31.617188 -3.105469 29.558594 -1.019531 C 27.492188 1.074219 24.558594 2.121094 20.757812 2.121094 L 13.160156 2.121094 C 9.410156 2.121094 6.488281 1.078125 4.402344 -1.011719 C 2.316406 -3.097656 1.273438 -6.015625 1.273438 -9.769531 L 1.273438 -14.175781 C 1.273438 -15.125 1.570312 -15.894531 2.164062 -16.488281 C 2.757812 -17.085938 3.53125 -17.382812 4.476562 -17.382812 L 11.328125 -17.382812 C 12.273438 -17.382812 13.046875 -17.085938 13.640625 -16.488281 C 14.234375 -15.894531 14.535156 -15.125 14.535156 -14.175781 L 14.535156 -11.328125 C 14.535156 -11.105469 14.554688 -10.933594 14.59375 -10.8125 C 14.601562 -10.789062 14.609375 -10.773438 14.613281 -10.765625 C 14.609375 -10.773438 14.601562 -10.78125 14.589844 -10.792969 C 14.582031 -10.800781 14.570312 -10.808594 14.5625 -10.8125 C 14.574219 -10.808594 14.585938 -10.804688 14.609375 -10.796875 C 14.730469 -10.753906 14.902344 -10.734375 15.125 -10.734375 L 18.789062 -10.734375 C 19.011719 -10.734375 19.183594 -10.753906 19.304688 -10.796875 C 19.328125 -10.804688 19.34375 -10.808594 19.351562 -10.8125 C 19.34375 -10.808594 19.335938 -10.800781 19.324219 -10.792969 C 19.316406 -10.78125 19.308594 -10.773438 19.304688 -10.765625 C 19.308594 -10.773438 19.316406 -10.789062 19.324219 -10.8125 C 19.363281 -10.933594 19.382812 -11.105469 19.382812 -11.328125 L 19.382812 -18.179688 L 21.503906 -18.179688 L 20.847656 -16.164062 L 4.566406 -21.453125 C 3.519531 -21.804688 2.707031 -22.371094 2.136719 -23.152344 C 1.558594 -23.945312 1.273438 -24.886719 1.273438 -25.980469 L 1.273438 -37.714844 C 1.273438 -41.515625 2.320312 -44.449219 4.414062 -46.515625 C 6.5 -48.574219 9.414062 -49.601562 13.160156 -49.601562 Z M 13.160156 -45.363281 C 10.574219 -45.363281 8.652344 -44.742188 7.390625 -43.5 C 6.136719 -42.261719 5.511719 -40.335938 5.511719 -37.714844 L 5.511719 -25.980469 C 5.511719 -25.808594 5.527344 -25.699219 5.5625 -25.652344 C 5.601562 -25.597656 5.707031 -25.542969 5.878906 -25.488281 L 23.625 -19.71875 L 23.625 -11.328125 C 23.625 -9.839844 23.191406 -8.660156 22.324219 -7.792969 C 21.457031 -6.929688 20.28125 -6.496094 18.789062 -6.496094 L 15.125 -6.496094 C 13.636719 -6.496094 12.457031 -6.929688 11.59375 -7.792969 C 10.726562 -8.660156 10.292969 -9.839844 10.292969 -11.328125 L 10.292969 -14.175781 C 10.292969 -14.128906 10.308594 -14.0625 10.335938 -13.980469 C 10.394531 -13.800781 10.496094 -13.636719 10.644531 -13.492188 C 10.789062 -13.347656 10.953125 -13.242188 11.132812 -13.183594 C 11.214844 -13.15625 11.28125 -13.140625 11.328125 -13.140625 L 4.476562 -13.140625 C 4.527344 -13.140625 4.589844 -13.15625 4.671875 -13.183594 C 4.851562 -13.242188 5.015625 -13.347656 5.160156 -13.492188 C 5.308594 -13.636719 5.410156 -13.800781 5.46875 -13.980469 C 5.496094 -14.0625 5.511719 -14.128906 5.511719 -14.175781 L 5.511719 -9.769531 C 5.511719 -7.1875 6.140625 -5.269531 7.402344 -4.007812 C 8.660156 -2.75 10.578125 -2.121094 13.160156 -2.121094 L 20.757812 -2.121094 C 23.375 -2.121094 25.304688 -2.746094 26.539062 -4 C 27.785156 -5.257812 28.40625 -7.183594 28.40625 -9.769531 L 28.40625 -22.519531 C 28.40625 -22.707031 28.386719 -22.828125 28.347656 -22.878906 C 28.316406 -22.921875 28.238281 -22.96875 28.109375 -23.011719 L 10.226562 -28.777344 L 10.226562 -36.085938 C 10.226562 -37.578125 10.660156 -38.753906 11.523438 -39.621094 C 12.390625 -40.488281 13.570312 -40.921875 15.058594 -40.921875 L 18.789062 -40.921875 C 20.28125 -40.921875 21.457031 -40.488281 22.324219 -39.621094 C 23.191406 -38.753906 23.625 -37.578125 23.625 -36.085938 L 23.625 -33.238281 C 23.625 -33.285156 23.609375 -33.351562 23.582031 -33.433594 C 23.523438 -33.613281 23.417969 -33.777344 23.273438 -33.921875 C 23.128906 -34.070312 22.964844 -34.171875 22.785156 -34.230469 C 22.703125 -34.257812 22.636719 -34.273438 22.589844 -34.273438 L 29.441406 -34.273438 C 29.390625 -34.273438 29.324219 -34.257812 29.242188 -34.230469 C 29.0625 -34.171875 28.898438 -34.070312 28.753906 -33.921875 C 28.609375 -33.777344 28.507812 -33.613281 28.445312 -33.433594 C 28.417969 -33.351562 28.40625 -33.285156 28.40625 -33.238281 L 28.40625 -37.714844 C 28.40625 -40.339844 27.785156 -42.273438 26.550781 -43.507812 C 25.3125 -44.746094 23.382812 -45.363281 20.757812 -45.363281 Z M 13.160156 -45.363281 "/></g></g><g style="fill:#b21a22;fill-opacity:1;"><g transform="translate(86.875696, 214.151869)"><path style="stroke:none" d="M 32.710938 -37.714844 L 32.710938 -30.390625 C 32.710938 -29.441406 32.414062 -28.671875 31.820312 -28.078125 C 31.226562 -27.480469 30.453125 -27.183594 29.507812 -27.183594 L 23.132812 -27.183594 C 22.183594 -27.183594 21.414062 -27.480469 20.816406 -28.078125 C 20.222656 -28.671875 19.925781 -29.441406 19.925781 -30.390625 L 19.925781 -35.953125 C 19.925781 -36.175781 19.90625 -36.347656 19.863281 -36.46875 C 19.859375 -36.492188 19.851562 -36.507812 19.847656 -36.515625 C 19.851562 -36.507812 19.859375 -36.496094 19.867188 -36.488281 C 19.878906 -36.476562 19.886719 -36.46875 19.894531 -36.464844 C 19.886719 -36.46875 19.871094 -36.476562 19.847656 -36.484375 C 19.726562 -36.523438 19.554688 -36.546875 19.332031 -36.546875 L 14.992188 -36.546875 C 14.769531 -36.546875 14.597656 -36.523438 14.472656 -36.484375 C 14.453125 -36.476562 14.4375 -36.46875 14.429688 -36.464844 C 14.4375 -36.46875 14.445312 -36.476562 14.457031 -36.488281 C 14.464844 -36.496094 14.472656 -36.507812 14.476562 -36.515625 C 14.472656 -36.507812 14.464844 -36.492188 14.457031 -36.46875 C 14.417969 -36.347656 14.398438 -36.175781 14.398438 -35.953125 L 14.398438 -11.328125 C 14.398438 -11.105469 14.417969 -10.933594 14.457031 -10.8125 C 14.464844 -10.789062 14.472656 -10.773438 14.476562 -10.765625 C 14.472656 -10.773438 14.464844 -10.78125 14.457031 -10.792969 C 14.445312 -10.800781 14.4375 -10.808594 14.429688 -10.8125 C 14.4375 -10.808594 14.453125 -10.804688 14.472656 -10.796875 C 14.597656 -10.753906 14.769531 -10.734375 14.992188 -10.734375 L 19.332031 -10.734375 C 19.554688 -10.734375 19.726562 -10.753906 19.847656 -10.796875 C 19.871094 -10.804688 19.886719 -10.808594 19.894531 -10.8125 C 19.886719 -10.808594 19.878906 -10.800781 19.867188 -10.792969 C 19.859375 -10.78125 19.851562 -10.773438 19.847656 -10.765625 C 19.851562 -10.773438 19.859375 -10.789062 19.863281 -10.8125 C 19.90625 -10.933594 19.925781 -11.105469 19.925781 -11.328125 L 19.925781 -17.09375 C 19.925781 -18.042969 20.222656 -18.8125 20.816406 -19.40625 C 21.414062 -20 22.183594 -20.300781 23.132812 -20.300781 L 29.507812 -20.300781 C 30.453125 -20.300781 31.226562 -20 31.820312 -19.40625 C 32.414062 -18.8125 32.710938 -18.042969 32.710938 -17.09375 L 32.710938 -9.769531 C 32.710938 -6.015625 31.667969 -3.097656 29.582031 -1.011719 C 27.496094 1.078125 24.574219 2.121094 20.824219 2.121094 L 13.226562 2.121094 C 9.480469 2.121094 6.554688 1.078125 4.445312 -1 C 2.328125 -3.089844 1.273438 -6.011719 1.273438 -9.769531 L 1.273438 -37.714844 C 1.273438 -41.523438 2.332031 -44.460938 4.457031 -46.527344 C 6.5625 -48.578125 9.488281 -49.601562 13.226562 -49.601562 L 20.824219 -49.601562 C 24.570312 -49.601562 27.484375 -48.574219 29.570312 -46.515625 C 31.664062 -44.449219 32.710938 -41.515625 32.710938 -37.714844 Z M 28.472656 -37.714844 C 28.472656 -40.335938 27.847656 -42.261719 26.59375 -43.5 C 25.332031 -44.742188 23.410156 -45.363281 20.824219 -45.363281 L 13.226562 -45.363281 C 10.636719 -45.363281 8.699219 -44.738281 7.414062 -43.488281 C 6.144531 -42.253906 5.511719 -40.328125 5.511719 -37.714844 L 5.511719 -9.769531 C 5.511719 -7.195312 6.148438 -5.277344 7.425781 -4.019531 C 8.707031 -2.753906 10.640625 -2.121094 13.226562 -2.121094 L 20.824219 -2.121094 C 23.40625 -2.121094 25.324219 -2.75 26.582031 -4.007812 C 27.84375 -5.269531 28.472656 -7.1875 28.472656 -9.769531 L 28.472656 -17.09375 C 28.472656 -17.046875 28.488281 -16.980469 28.515625 -16.898438 C 28.574219 -16.71875 28.675781 -16.554688 28.824219 -16.410156 C 28.96875 -16.261719 29.132812 -16.160156 29.3125 -16.101562 C 29.394531 -16.074219 29.460938 -16.058594 29.507812 -16.058594 L 23.132812 -16.058594 C 23.179688 -16.058594 23.246094 -16.074219 23.328125 -16.101562 C 23.507812 -16.160156 23.671875 -16.261719 23.816406 -16.410156 C 23.960938 -16.554688 24.066406 -16.71875 24.125 -16.898438 C 24.152344 -16.980469 24.164062 -17.046875 24.164062 -17.09375 L 24.164062 -11.328125 C 24.164062 -9.839844 23.734375 -8.660156 22.867188 -7.792969 C 22 -6.929688 20.824219 -6.496094 19.332031 -6.496094 L 14.992188 -6.496094 C 13.5 -6.496094 12.324219 -6.929688 11.457031 -7.792969 C 10.589844 -8.660156 10.15625 -9.839844 10.15625 -11.328125 L 10.15625 -35.953125 C 10.15625 -37.441406 10.589844 -38.621094 11.457031 -39.484375 C 12.324219 -40.351562 13.5 -40.785156 14.992188 -40.785156 L 19.332031 -40.785156 C 20.824219 -40.785156 22 -40.351562 22.867188 -39.484375 C 23.734375 -38.621094 24.164062 -37.441406 24.164062 -35.953125 L 24.164062 -30.390625 C 24.164062 -30.4375 24.152344 -30.503906 24.125 -30.585938 C 24.066406 -30.765625 23.960938 -30.929688 23.816406 -31.074219 C 23.671875 -31.21875 23.507812 -31.324219 23.328125 -31.382812 C 23.246094 -31.410156 23.179688 -31.425781 23.132812 -31.425781 L 29.507812 -31.425781 C 29.460938 -31.425781 29.394531 -31.410156 29.3125 -31.382812 C 29.132812 -31.324219 28.96875 -31.21875 28.824219 -31.074219 C 28.675781 -30.929688 28.574219 -30.765625 28.515625 -30.585938 C 28.488281 -30.503906 28.472656 -30.4375 28.472656 -30.390625 Z M 28.472656 -37.714844 "/></g></g><g style="fill:#b21a22;fill-opacity:1;"><g transform="translate(120.849461, 214.151869)"><path style="stroke:none" d="M 19.179688 -28.082031 L 19.179688 -46.398438 C 19.179688 -47.34375 19.476562 -48.117188 20.070312 -48.710938 C 20.667969 -49.304688 21.4375 -49.601562 22.386719 -49.601562 L 29.371094 -49.601562 C 30.316406 -49.601562 31.089844 -49.320312 31.691406 -48.753906 C 32.328125 -48.15625 32.644531 -47.371094 32.644531 -46.398438 L 32.644531 -1.085938 C 32.644531 -0.113281 32.328125 0.671875 31.691406 1.273438 C 31.089844 1.835938 30.316406 2.121094 29.371094 2.121094 L 22.386719 2.121094 C 21.4375 2.121094 20.667969 1.824219 20.070312 1.226562 C 19.476562 0.632812 19.179688 -0.136719 19.179688 -1.085938 L 19.179688 -19.128906 L 21.300781 -19.128906 L 21.300781 -17.007812 L 12.617188 -17.007812 L 12.617188 -19.128906 L 14.738281 -19.128906 L 14.738281 -1.085938 C 14.738281 -0.136719 14.441406 0.632812 13.84375 1.226562 C 13.25 1.824219 12.480469 2.121094 11.53125 2.121094 L 4.542969 2.121094 C 3.601562 2.121094 2.828125 1.835938 2.226562 1.273438 C 1.589844 0.671875 1.273438 -0.113281 1.273438 -1.085938 L 1.273438 -46.398438 C 1.273438 -47.371094 1.589844 -48.15625 2.226562 -48.753906 C 2.828125 -49.320312 3.601562 -49.601562 4.542969 -49.601562 L 11.53125 -49.601562 C 12.480469 -49.601562 13.25 -49.304688 13.84375 -48.710938 C 14.441406 -48.117188 14.738281 -47.34375 14.738281 -46.398438 L 14.738281 -28.082031 L 12.617188 -28.082031 L 12.617188 -30.203125 L 21.300781 -30.203125 L 21.300781 -28.082031 Z M 23.417969 -25.964844 L 10.496094 -25.964844 L 10.496094 -46.398438 C 10.496094 -46.347656 10.511719 -46.285156 10.539062 -46.203125 C 10.597656 -46.023438 10.699219 -45.859375 10.847656 -45.714844 C 10.992188 -45.566406 11.15625 -45.464844 11.335938 -45.40625 C 11.417969 -45.378906 11.484375 -45.363281 11.53125 -45.363281 L 4.542969 -45.363281 C 4.570312 -45.363281 4.613281 -45.375 4.675781 -45.394531 C 4.839844 -45.445312 4.992188 -45.535156 5.132812 -45.667969 C 5.285156 -45.8125 5.394531 -45.976562 5.460938 -46.164062 C 5.496094 -46.257812 5.511719 -46.335938 5.511719 -46.398438 L 5.511719 -1.085938 C 5.511719 -1.148438 5.496094 -1.226562 5.460938 -1.316406 C 5.394531 -1.503906 5.285156 -1.671875 5.132812 -1.816406 C 4.992188 -1.945312 4.839844 -2.039062 4.675781 -2.089844 C 4.613281 -2.109375 4.570312 -2.121094 4.542969 -2.121094 L 11.53125 -2.121094 C 11.484375 -2.121094 11.417969 -2.105469 11.335938 -2.078125 C 11.15625 -2.019531 10.992188 -1.914062 10.847656 -1.769531 C 10.699219 -1.625 10.597656 -1.460938 10.539062 -1.28125 C 10.511719 -1.199219 10.496094 -1.132812 10.496094 -1.085938 L 10.496094 -21.25 L 23.417969 -21.25 L 23.417969 -1.085938 C 23.417969 -1.132812 23.40625 -1.199219 23.378906 -1.28125 C 23.320312 -1.460938 23.214844 -1.625 23.070312 -1.769531 C 22.925781 -1.914062 22.761719 -2.019531 22.582031 -2.078125 C 22.5 -2.105469 22.433594 -2.121094 22.386719 -2.121094 L 29.371094 -2.121094 C 29.347656 -2.121094 29.304688 -2.109375 29.242188 -2.089844 C 29.078125 -2.039062 28.921875 -1.945312 28.785156 -1.816406 C 28.628906 -1.671875 28.519531 -1.503906 28.453125 -1.316406 C 28.421875 -1.226562 28.40625 -1.148438 28.40625 -1.085938 L 28.40625 -46.398438 C 28.40625 -46.335938 28.421875 -46.257812 28.453125 -46.164062 C 28.519531 -45.976562 28.628906 -45.8125 28.785156 -45.667969 C 28.921875 -45.535156 29.078125 -45.445312 29.242188 -45.394531 C 29.304688 -45.375 29.347656 -45.363281 29.371094 -45.363281 L 22.386719 -45.363281 C 22.433594 -45.363281 22.5 -45.378906 22.582031 -45.40625 C 22.761719 -45.464844 22.925781 -45.566406 23.070312 -45.714844 C 23.214844 -45.859375 23.320312 -46.023438 23.378906 -46.203125 C 23.40625 -46.285156 23.417969 -46.347656 23.417969 -46.398438 Z M 23.417969 -25.964844 "/></g></g><g style="fill:#b21a22;fill-opacity:1;"><g transform="translate(154.755402, 214.151869)"><path style="stroke:none" d="M 32.578125 -46.398438 L 32.578125 -39.613281 C 32.578125 -38.667969 32.292969 -37.898438 31.730469 -37.296875 C 31.128906 -36.660156 30.34375 -36.339844 29.371094 -36.339844 L 12.617188 -36.339844 L 12.617188 -38.460938 L 14.738281 -38.460938 L 14.738281 -28.015625 L 12.617188 -28.015625 L 12.617188 -30.136719 L 25.371094 -30.136719 C 26.34375 -30.136719 27.128906 -29.816406 27.726562 -29.179688 C 28.292969 -28.578125 28.574219 -27.808594 28.574219 -26.863281 L 28.574219 -20.148438 C 28.574219 -19.203125 28.292969 -18.429688 27.726562 -17.828125 C 27.128906 -17.191406 26.34375 -16.875 25.371094 -16.875 L 12.617188 -16.875 L 12.617188 -18.992188 L 14.738281 -18.992188 L 14.738281 -8.953125 L 12.617188 -8.953125 L 12.617188 -11.074219 L 29.371094 -11.074219 C 30.320312 -11.074219 31.089844 -10.777344 31.683594 -10.183594 C 32.28125 -9.585938 32.578125 -8.816406 32.578125 -7.867188 L 32.578125 -1.085938 C 32.578125 -0.136719 32.28125 0.632812 31.683594 1.226562 C 31.089844 1.824219 30.320312 2.121094 29.371094 2.121094 L 4.410156 2.121094 C 3.457031 2.121094 2.6875 1.804688 2.097656 1.179688 C 1.546875 0.589844 1.273438 -0.164062 1.273438 -1.085938 L 1.273438 -46.398438 C 1.273438 -47.320312 1.546875 -48.074219 2.097656 -48.660156 C 2.6875 -49.289062 3.457031 -49.601562 4.410156 -49.601562 L 29.371094 -49.601562 C 30.320312 -49.601562 31.089844 -49.304688 31.683594 -48.710938 C 32.28125 -48.117188 32.578125 -47.34375 32.578125 -46.398438 Z M 28.335938 -46.398438 C 28.335938 -46.347656 28.351562 -46.285156 28.378906 -46.203125 C 28.4375 -46.023438 28.542969 -45.859375 28.6875 -45.714844 C 28.832031 -45.566406 28.996094 -45.464844 29.175781 -45.40625 C 29.257812 -45.378906 29.324219 -45.363281 29.371094 -45.363281 L 4.410156 -45.363281 C 4.683594 -45.363281 4.945312 -45.496094 5.191406 -45.761719 C 5.328125 -45.90625 5.425781 -46.066406 5.480469 -46.242188 C 5.5 -46.3125 5.511719 -46.363281 5.511719 -46.398438 L 5.511719 -1.085938 C 5.511719 -1.121094 5.5 -1.171875 5.480469 -1.242188 C 5.425781 -1.417969 5.328125 -1.574219 5.191406 -1.722656 C 4.945312 -1.988281 4.683594 -2.121094 4.410156 -2.121094 L 29.371094 -2.121094 C 29.324219 -2.121094 29.257812 -2.105469 29.175781 -2.078125 C 28.996094 -2.019531 28.832031 -1.914062 28.6875 -1.769531 C 28.542969 -1.625 28.4375 -1.460938 28.378906 -1.28125 C 28.351562 -1.199219 28.335938 -1.132812 28.335938 -1.085938 L 28.335938 -7.867188 C 28.335938 -7.820312 28.351562 -7.753906 28.378906 -7.671875 C 28.4375 -7.492188 28.542969 -7.328125 28.6875 -7.183594 C 28.832031 -7.039062 28.996094 -6.933594 29.175781 -6.875 C 29.257812 -6.847656 29.324219 -6.835938 29.371094 -6.835938 L 10.496094 -6.835938 L 10.496094 -21.113281 L 25.371094 -21.113281 C 25.308594 -21.113281 25.230469 -21.097656 25.136719 -21.0625 C 24.949219 -20.996094 24.785156 -20.886719 24.640625 -20.734375 C 24.507812 -20.59375 24.417969 -20.441406 24.363281 -20.277344 C 24.34375 -20.214844 24.335938 -20.171875 24.335938 -20.148438 L 24.335938 -26.863281 C 24.335938 -26.835938 24.34375 -26.792969 24.363281 -26.730469 C 24.417969 -26.566406 24.507812 -26.414062 24.640625 -26.273438 C 24.785156 -26.121094 24.949219 -26.011719 25.136719 -25.945312 C 25.230469 -25.910156 25.308594 -25.894531 25.371094 -25.894531 L 10.496094 -25.894531 L 10.496094 -40.582031 L 29.371094 -40.582031 C 29.308594 -40.582031 29.230469 -40.566406 29.140625 -40.53125 C 28.953125 -40.464844 28.785156 -40.355469 28.640625 -40.203125 C 28.511719 -40.0625 28.417969 -39.910156 28.367188 -39.746094 C 28.347656 -39.683594 28.335938 -39.640625 28.335938 -39.613281 Z M 28.335938 -46.398438 "/></g></g><g style="fill:#b21a22;fill-opacity:1;"><g transform="translate(188.593521, 214.151869)"><path style="stroke:none" d="M 31.746094 -49.601562 L 40.699219 -49.601562 C 41.738281 -49.601562 42.578125 -49.285156 43.214844 -48.644531 C 43.855469 -48.003906 44.175781 -47.164062 44.175781 -46.125 L 44.175781 -1.355469 C 44.175781 -0.320312 43.855469 0.519531 43.214844 1.160156 C 42.578125 1.800781 41.738281 2.121094 40.699219 2.121094 L 34.390625 2.121094 C 33.355469 2.121094 32.515625 1.800781 31.875 1.160156 C 31.234375 0.519531 30.914062 -0.320312 30.914062 -1.355469 L 30.914062 -28.015625 L 33.035156 -28.015625 L 33.035156 -25.894531 L 32.558594 -25.894531 L 32.558594 -28.015625 L 34.621094 -27.527344 L 28.234375 -0.609375 L 28.21875 -0.554688 C 27.976562 0.269531 27.546875 0.917969 26.9375 1.390625 C 26.308594 1.875 25.558594 2.121094 24.691406 2.121094 L 20.6875 2.121094 C 19.824219 2.121094 19.074219 1.875 18.441406 1.390625 C 17.832031 0.917969 17.40625 0.269531 17.164062 -0.554688 L 17.148438 -0.609375 L 10.757812 -27.527344 L 12.820312 -28.015625 L 12.820312 -25.894531 L 12.34375 -25.894531 L 12.34375 -28.015625 L 14.464844 -28.015625 L 14.464844 -1.355469 C 14.464844 -0.320312 14.144531 0.519531 13.503906 1.160156 C 12.867188 1.800781 12.027344 2.121094 10.988281 2.121094 L 4.75 2.121094 C 3.710938 2.121094 2.871094 1.800781 2.230469 1.160156 C 1.589844 0.519531 1.273438 -0.320312 1.273438 -1.355469 L 1.273438 -46.125 C 1.273438 -47.164062 1.589844 -48.003906 2.230469 -48.644531 C 2.871094 -49.285156 3.710938 -49.601562 4.75 -49.601562 L 13.703125 -49.601562 C 14.570312 -49.601562 15.316406 -49.359375 15.949219 -48.871094 C 16.558594 -48.398438 16.984375 -47.753906 17.226562 -46.929688 L 17.242188 -46.886719 L 24.78125 -16.589844 L 22.722656 -16.078125 L 20.667969 -16.589844 L 28.207031 -46.886719 L 28.21875 -46.929688 C 28.460938 -47.753906 28.890625 -48.398438 29.5 -48.871094 C 30.128906 -49.359375 30.878906 -49.601562 31.746094 -49.601562 Z M 31.746094 -45.363281 C 31.84375 -45.363281 31.960938 -45.414062 32.09375 -45.515625 C 32.167969 -45.574219 32.226562 -45.640625 32.269531 -45.707031 C 32.28125 -45.726562 32.289062 -45.738281 32.292969 -45.75 C 32.292969 -45.75 32.289062 -45.742188 32.289062 -45.730469 L 30.253906 -46.332031 L 32.3125 -45.816406 L 24.78125 -15.566406 L 20.667969 -15.566406 L 13.136719 -45.816406 L 15.195312 -46.332031 L 13.160156 -45.730469 C 13.15625 -45.742188 13.15625 -45.75 13.15625 -45.75 C 13.160156 -45.738281 13.167969 -45.726562 13.179688 -45.707031 C 13.222656 -45.640625 13.28125 -45.574219 13.355469 -45.515625 C 13.488281 -45.414062 13.605469 -45.363281 13.703125 -45.363281 L 4.75 -45.363281 C 4.738281 -45.363281 4.730469 -45.363281 4.726562 -45.363281 C 4.726562 -45.363281 4.726562 -45.363281 4.730469 -45.363281 C 4.757812 -45.367188 4.789062 -45.375 4.824219 -45.386719 C 4.972656 -45.4375 5.105469 -45.523438 5.230469 -45.644531 C 5.351562 -45.769531 5.4375 -45.902344 5.488281 -46.050781 C 5.5 -46.085938 5.507812 -46.117188 5.511719 -46.144531 C 5.511719 -46.148438 5.511719 -46.148438 5.511719 -46.148438 C 5.511719 -46.144531 5.511719 -46.136719 5.511719 -46.125 L 5.511719 -1.355469 C 5.511719 -1.347656 5.511719 -1.339844 5.511719 -1.332031 C 5.511719 -1.332031 5.511719 -1.335938 5.511719 -1.339844 C 5.507812 -1.367188 5.5 -1.398438 5.488281 -1.433594 C 5.4375 -1.582031 5.351562 -1.714844 5.230469 -1.839844 C 5.105469 -1.960938 4.972656 -2.046875 4.824219 -2.097656 C 4.789062 -2.109375 4.757812 -2.117188 4.730469 -2.121094 C 4.726562 -2.121094 4.726562 -2.121094 4.726562 -2.121094 C 4.730469 -2.121094 4.738281 -2.121094 4.75 -2.121094 L 10.988281 -2.121094 C 11 -2.121094 11.007812 -2.121094 11.011719 -2.121094 C 11.011719 -2.121094 11.011719 -2.121094 11.007812 -2.121094 C 10.980469 -2.117188 10.949219 -2.109375 10.914062 -2.097656 C 10.765625 -2.046875 10.628906 -1.960938 10.507812 -1.839844 C 10.382812 -1.714844 10.296875 -1.582031 10.25 -1.433594 C 10.238281 -1.398438 10.230469 -1.367188 10.226562 -1.339844 C 10.226562 -1.335938 10.226562 -1.332031 10.226562 -1.332031 C 10.226562 -1.339844 10.226562 -1.347656 10.226562 -1.355469 L 10.226562 -30.136719 L 14.496094 -30.136719 L 21.257812 -1.644531 L 19.195312 -1.152344 L 21.230469 -1.75 C 21.234375 -1.742188 21.234375 -1.734375 21.238281 -1.730469 C 21.230469 -1.742188 21.222656 -1.757812 21.214844 -1.773438 C 21.167969 -1.84375 21.109375 -1.90625 21.035156 -1.964844 C 20.902344 -2.070312 20.789062 -2.121094 20.6875 -2.121094 L 24.691406 -2.121094 C 24.59375 -2.121094 24.476562 -2.070312 24.34375 -1.964844 C 24.269531 -1.90625 24.210938 -1.84375 24.167969 -1.773438 C 24.15625 -1.757812 24.148438 -1.742188 24.144531 -1.730469 C 24.144531 -1.734375 24.148438 -1.742188 24.148438 -1.75 L 26.183594 -1.152344 L 24.121094 -1.644531 L 30.882812 -30.136719 L 35.15625 -30.136719 L 35.15625 -1.355469 C 35.15625 -1.347656 35.15625 -1.339844 35.15625 -1.332031 C 35.15625 -1.332031 35.15625 -1.335938 35.15625 -1.339844 C 35.152344 -1.367188 35.144531 -1.398438 35.128906 -1.433594 C 35.082031 -1.582031 34.996094 -1.714844 34.871094 -1.839844 C 34.75 -1.960938 34.617188 -2.046875 34.46875 -2.097656 C 34.433594 -2.109375 34.402344 -2.117188 34.375 -2.121094 C 34.371094 -2.121094 34.367188 -2.121094 34.367188 -2.121094 C 34.375 -2.121094 34.382812 -2.121094 34.390625 -2.121094 L 40.699219 -2.121094 C 40.710938 -2.121094 40.71875 -2.121094 40.722656 -2.121094 C 40.722656 -2.121094 40.722656 -2.121094 40.71875 -2.121094 C 40.691406 -2.117188 40.660156 -2.109375 40.625 -2.097656 C 40.476562 -2.046875 40.339844 -1.960938 40.21875 -1.839844 C 40.09375 -1.714844 40.007812 -1.582031 39.960938 -1.433594 C 39.949219 -1.398438 39.941406 -1.367188 39.9375 -1.339844 C 39.9375 -1.335938 39.9375 -1.332031 39.9375 -1.332031 C 39.9375 -1.339844 39.9375 -1.347656 39.9375 -1.355469 L 39.9375 -46.125 C 39.9375 -46.136719 39.9375 -46.144531 39.9375 -46.148438 C 39.9375 -46.148438 39.9375 -46.148438 39.9375 -46.144531 C 39.941406 -46.117188 39.949219 -46.085938 39.960938 -46.050781 C 40.007812 -45.902344 40.09375 -45.769531 40.21875 -45.644531 C 40.339844 -45.523438 40.476562 -45.4375 40.625 -45.386719 C 40.660156 -45.375 40.691406 -45.367188 40.71875 -45.363281 C 40.722656 -45.363281 40.722656 -45.363281 40.722656 -45.363281 C 40.71875 -45.363281 40.710938 -45.363281 40.699219 -45.363281 Z M 31.746094 -45.363281 "/></g></g><g style="fill:#b21a22;fill-opacity:1;"><g transform="translate(234.027476, 214.151869)"><path style="stroke:none" d="M 32.578125 -46.398438 L 32.578125 -39.613281 C 32.578125 -38.667969 32.292969 -37.898438 31.730469 -37.296875 C 31.128906 -36.660156 30.34375 -36.339844 29.371094 -36.339844 L 12.617188 -36.339844 L 12.617188 -38.460938 L 14.738281 -38.460938 L 14.738281 -28.015625 L 12.617188 -28.015625 L 12.617188 -30.136719 L 25.371094 -30.136719 C 26.34375 -30.136719 27.128906 -29.816406 27.726562 -29.179688 C 28.292969 -28.578125 28.574219 -27.808594 28.574219 -26.863281 L 28.574219 -20.148438 C 28.574219 -19.203125 28.292969 -18.429688 27.726562 -17.828125 C 27.128906 -17.191406 26.34375 -16.875 25.371094 -16.875 L 12.617188 -16.875 L 12.617188 -18.992188 L 14.738281 -18.992188 L 14.738281 -8.953125 L 12.617188 -8.953125 L 12.617188 -11.074219 L 29.371094 -11.074219 C 30.320312 -11.074219 31.089844 -10.777344 31.683594 -10.183594 C 32.28125 -9.585938 32.578125 -8.816406 32.578125 -7.867188 L 32.578125 -1.085938 C 32.578125 -0.136719 32.28125 0.632812 31.683594 1.226562 C 31.089844 1.824219 30.320312 2.121094 29.371094 2.121094 L 4.410156 2.121094 C 3.457031 2.121094 2.6875 1.804688 2.097656 1.179688 C 1.546875 0.589844 1.273438 -0.164062 1.273438 -1.085938 L 1.273438 -46.398438 C 1.273438 -47.320312 1.546875 -48.074219 2.097656 -48.660156 C 2.6875 -49.289062 3.457031 -49.601562 4.410156 -49.601562 L 29.371094 -49.601562 C 30.320312 -49.601562 31.089844 -49.304688 31.683594 -48.710938 C 32.28125 -48.117188 32.578125 -47.34375 32.578125 -46.398438 Z M 28.335938 -46.398438 C 28.335938 -46.347656 28.351562 -46.285156 28.378906 -46.203125 C 28.4375 -46.023438 28.542969 -45.859375 28.6875 -45.714844 C 28.832031 -45.566406 28.996094 -45.464844 29.175781 -45.40625 C 29.257812 -45.378906 29.324219 -45.363281 29.371094 -45.363281 L 4.410156 -45.363281 C 4.683594 -45.363281 4.945312 -45.496094 5.191406 -45.761719 C 5.328125 -45.90625 5.425781 -46.066406 5.480469 -46.242188 C 5.5 -46.3125 5.511719 -46.363281 5.511719 -46.398438 L 5.511719 -1.085938 C 5.511719 -1.121094 5.5 -1.171875 5.480469 -1.242188 C 5.425781 -1.417969 5.328125 -1.574219 5.191406 -1.722656 C 4.945312 -1.988281 4.683594 -2.121094 4.410156 -2.121094 L 29.371094 -2.121094 C 29.324219 -2.121094 29.257812 -2.105469 29.175781 -2.078125 C 28.996094 -2.019531 28.832031 -1.914062 28.6875 -1.769531 C 28.542969 -1.625 28.4375 -1.460938 28.378906 -1.28125 C 28.351562 -1.199219 28.335938 -1.132812 28.335938 -1.085938 L 28.335938 -7.867188 C 28.335938 -7.820312 28.351562 -7.753906 28.378906 -7.671875 C 28.4375 -7.492188 28.542969 -7.328125 28.6875 -7.183594 C 28.832031 -7.039062 28.996094 -6.933594 29.175781 -6.875 C 29.257812 -6.847656 29.324219 -6.835938 29.371094 -6.835938 L 10.496094 -6.835938 L 10.496094 -21.113281 L 25.371094 -21.113281 C 25.308594 -21.113281 25.230469 -21.097656 25.136719 -21.0625 C 24.949219 -20.996094 24.785156 -20.886719 24.640625 -20.734375 C 24.507812 -20.59375 24.417969 -20.441406 24.363281 -20.277344 C 24.34375 -20.214844 24.335938 -20.171875 24.335938 -20.148438 L 24.335938 -26.863281 C 24.335938 -26.835938 24.34375 -26.792969 24.363281 -26.730469 C 24.417969 -26.566406 24.507812 -26.414062 24.640625 -26.273438 C 24.785156 -26.121094 24.949219 -26.011719 25.136719 -25.945312 C 25.230469 -25.910156 25.308594 -25.894531 25.371094 -25.894531 L 10.496094 -25.894531 L 10.496094 -40.582031 L 29.371094 -40.582031 C 29.308594 -40.582031 29.230469 -40.566406 29.140625 -40.53125 C 28.953125 -40.464844 28.785156 -40.355469 28.640625 -40.203125 C 28.511719 -40.0625 28.417969 -39.910156 28.367188 -39.746094 C 28.347656 -39.683594 28.335938 -39.640625 28.335938 -39.613281 Z M 28.335938 -46.398438 "/></g></g><g style="fill:#b21a22;fill-opacity:1;"><g transform="translate(267.865595, 214.151869)"><path style="stroke:none" d="M 32.644531 -37.714844 L 32.644531 -24.082031 C 32.644531 -19.363281 31.046875 -16.003906 27.851562 -14.007812 L 26.726562 -15.804688 L 28.785156 -16.304688 L 32.3125 -1.71875 L 30.253906 -1.222656 L 32.296875 -1.789062 C 32.597656 -0.695312 32.453125 0.230469 31.859375 0.996094 C 31.277344 1.746094 30.425781 2.121094 29.304688 2.121094 L 22.65625 2.121094 C 21.832031 2.121094 21.128906 1.878906 20.546875 1.398438 C 19.972656 0.925781 19.601562 0.292969 19.429688 -0.503906 L 21.503906 -0.949219 L 19.445312 -0.449219 L 16.1875 -13.8125 L 18.246094 -14.3125 L 18.246094 -12.191406 L 12.210938 -12.191406 L 12.210938 -14.3125 L 14.328125 -14.3125 L 14.328125 -1.085938 C 14.328125 -0.136719 14.03125 0.632812 13.4375 1.226562 C 12.84375 1.824219 12.070312 2.121094 11.125 2.121094 L 4.476562 2.121094 C 3.53125 2.121094 2.757812 1.824219 2.164062 1.226562 C 1.570312 0.632812 1.273438 -0.136719 1.273438 -1.085938 L 1.273438 -46.398438 C 1.273438 -47.34375 1.570312 -48.117188 2.164062 -48.710938 C 2.757812 -49.304688 3.53125 -49.601562 4.476562 -49.601562 L 20.757812 -49.601562 C 24.554688 -49.601562 27.484375 -48.570312 29.546875 -46.507812 C 31.613281 -44.441406 32.644531 -41.511719 32.644531 -37.714844 Z M 28.40625 -37.714844 C 28.40625 -40.339844 27.785156 -42.273438 26.550781 -43.507812 C 25.3125 -44.746094 23.382812 -45.363281 20.757812 -45.363281 L 4.476562 -45.363281 C 4.527344 -45.363281 4.589844 -45.378906 4.671875 -45.40625 C 4.851562 -45.464844 5.015625 -45.566406 5.160156 -45.714844 C 5.308594 -45.859375 5.410156 -46.023438 5.46875 -46.203125 C 5.496094 -46.285156 5.511719 -46.347656 5.511719 -46.398438 L 5.511719 -1.085938 C 5.511719 -1.132812 5.496094 -1.199219 5.46875 -1.28125 C 5.410156 -1.460938 5.308594 -1.625 5.160156 -1.769531 C 5.015625 -1.914062 4.851562 -2.019531 4.671875 -2.078125 C 4.589844 -2.105469 4.527344 -2.121094 4.476562 -2.121094 L 11.125 -2.121094 C 11.078125 -2.121094 11.011719 -2.105469 10.929688 -2.078125 C 10.75 -2.019531 10.585938 -1.914062 10.441406 -1.769531 C 10.292969 -1.625 10.191406 -1.460938 10.132812 -1.28125 C 10.105469 -1.199219 10.089844 -1.132812 10.089844 -1.085938 L 10.089844 -16.433594 L 19.914062 -16.433594 L 23.570312 -1.421875 L 23.574219 -1.394531 C 23.539062 -1.558594 23.429688 -1.71875 23.242188 -1.875 C 23.042969 -2.039062 22.847656 -2.121094 22.65625 -2.121094 L 29.304688 -2.121094 L 29.304688 -2.117188 C 29.261719 -2.113281 29.210938 -2.097656 29.152344 -2.078125 C 28.902344 -1.992188 28.691406 -1.835938 28.511719 -1.605469 C 28.328125 -1.371094 28.226562 -1.117188 28.207031 -0.84375 C 28.199219 -0.75 28.203125 -0.6875 28.210938 -0.652344 L 28.203125 -0.6875 L 24.304688 -16.792969 L 25.601562 -17.601562 C 27.472656 -18.769531 28.40625 -20.929688 28.40625 -24.082031 Z M 12.210938 -25.183594 L 18.992188 -25.183594 C 19.214844 -25.183594 19.386719 -25.203125 19.511719 -25.242188 C 19.53125 -25.25 19.546875 -25.257812 19.554688 -25.261719 C 19.546875 -25.257812 19.539062 -25.25 19.53125 -25.242188 C 19.519531 -25.230469 19.511719 -25.222656 19.507812 -25.214844 C 19.511719 -25.222656 19.519531 -25.238281 19.527344 -25.261719 C 19.566406 -25.382812 19.585938 -25.554688 19.585938 -25.777344 L 19.585938 -36.019531 C 19.585938 -36.242188 19.566406 -36.414062 19.527344 -36.535156 C 19.519531 -36.558594 19.511719 -36.574219 19.507812 -36.582031 C 19.511719 -36.574219 19.519531 -36.566406 19.53125 -36.554688 C 19.539062 -36.546875 19.546875 -36.539062 19.554688 -36.535156 C 19.546875 -36.539062 19.53125 -36.542969 19.511719 -36.550781 C 19.386719 -36.59375 19.214844 -36.613281 18.992188 -36.613281 L 12.210938 -36.613281 L 12.210938 -38.734375 L 14.328125 -38.734375 L 14.328125 -23.0625 L 12.210938 -23.0625 Z M 10.089844 -20.945312 L 10.089844 -40.851562 L 18.992188 -40.851562 C 20.484375 -40.851562 21.660156 -40.417969 22.527344 -39.554688 C 23.394531 -38.6875 23.828125 -37.507812 23.828125 -36.019531 L 23.828125 -25.777344 C 23.828125 -24.285156 23.394531 -23.109375 22.527344 -22.242188 C 21.660156 -21.375 20.484375 -20.945312 18.992188 -20.945312 Z M 10.089844 -20.945312 "/></g></g><g style="fill:#b21a22;fill-opacity:1;"><g transform="translate(301.771536, 214.151869)"><path style="stroke:none" d="M 1.273438 -21.300781 L 1.273438 -27.539062 C 1.273438 -28.578125 1.589844 -29.417969 2.230469 -30.058594 C 2.871094 -30.695312 3.710938 -31.015625 4.75 -31.015625 L 15.464844 -31.015625 C 16.503906 -31.015625 17.34375 -30.695312 17.984375 -30.058594 C 18.621094 -29.417969 18.941406 -28.578125 18.941406 -27.539062 L 18.941406 -21.300781 C 18.941406 -20.261719 18.621094 -19.421875 17.984375 -18.78125 C 17.34375 -18.144531 16.503906 -17.824219 15.464844 -17.824219 L 4.75 -17.824219 C 3.710938 -17.824219 2.871094 -18.144531 2.230469 -18.78125 C 1.589844 -19.421875 1.273438 -20.261719 1.273438 -21.300781 Z M 5.511719 -21.300781 C 5.511719 -21.289062 5.511719 -21.28125 5.511719 -21.277344 C 5.511719 -21.277344 5.511719 -21.277344 5.511719 -21.28125 C 5.507812 -21.308594 5.5 -21.339844 5.488281 -21.375 C 5.4375 -21.523438 5.351562 -21.660156 5.230469 -21.78125 C 5.105469 -21.902344 4.972656 -21.988281 4.824219 -22.039062 C 4.789062 -22.050781 4.757812 -22.058594 4.730469 -22.0625 C 4.726562 -22.0625 4.726562 -22.0625 4.726562 -22.0625 C 4.730469 -22.0625 4.738281 -22.0625 4.75 -22.0625 L 15.464844 -22.0625 C 15.476562 -22.0625 15.484375 -22.0625 15.488281 -22.0625 C 15.488281 -22.0625 15.488281 -22.0625 15.484375 -22.0625 C 15.457031 -22.058594 15.425781 -22.050781 15.390625 -22.039062 C 15.242188 -21.988281 15.105469 -21.902344 14.984375 -21.78125 C 14.863281 -21.660156 14.777344 -21.523438 14.726562 -21.375 C 14.714844 -21.339844 14.707031 -21.308594 14.703125 -21.28125 C 14.703125 -21.277344 14.703125 -21.277344 14.703125 -21.277344 C 14.703125 -21.28125 14.703125 -21.289062 14.703125 -21.300781 L 14.703125 -27.539062 C 14.703125 -27.550781 14.703125 -27.558594 14.703125 -27.5625 C 14.703125 -27.5625 14.703125 -27.5625 14.703125 -27.558594 C 14.707031 -27.53125 14.714844 -27.5 14.726562 -27.464844 C 14.777344 -27.316406 14.863281 -27.183594 14.984375 -27.058594 C 15.105469 -26.9375 15.242188 -26.851562 15.390625 -26.800781 C 15.425781 -26.789062 15.457031 -26.78125 15.484375 -26.777344 C 15.488281 -26.777344 15.488281 -26.777344 15.488281 -26.777344 C 15.484375 -26.777344 15.476562 -26.777344 15.464844 -26.777344 L 4.75 -26.777344 C 4.738281 -26.777344 4.730469 -26.777344 4.726562 -26.777344 C 4.726562 -26.777344 4.726562 -26.777344 4.730469 -26.777344 C 4.757812 -26.78125 4.789062 -26.789062 4.824219 -26.800781 C 4.972656 -26.851562 5.105469 -26.9375 5.230469 -27.058594 C 5.351562 -27.183594 5.4375 -27.316406 5.488281 -27.464844 C 5.5 -27.5 5.507812 -27.53125 5.511719 -27.558594 C 5.511719 -27.5625 5.511719 -27.5625 5.511719 -27.5625 C 5.511719 -27.558594 5.511719 -27.550781 5.511719 -27.539062 Z M 5.511719 -21.300781 "/></g></g><g style="fill:#b21a22;fill-opacity:1;"><g transform="translate(119.115844, 308.723045)"><path style="stroke:none" d="M 32.644531 -46.398438 L 32.644531 -39.613281 C 32.644531 -38.667969 32.347656 -37.894531 31.753906 -37.300781 C 31.15625 -36.707031 30.386719 -36.410156 29.441406 -36.410156 L 12.617188 -36.410156 L 12.617188 -38.53125 L 14.738281 -38.53125 L 14.738281 -26.929688 L 12.617188 -26.929688 L 12.617188 -29.050781 L 25.371094 -29.050781 C 26.316406 -29.050781 27.085938 -28.753906 27.683594 -28.15625 C 28.277344 -27.5625 28.574219 -26.792969 28.574219 -25.84375 L 28.574219 -19.0625 C 28.574219 -18.113281 28.277344 -17.34375 27.683594 -16.75 C 27.085938 -16.152344 26.316406 -15.855469 25.371094 -15.855469 L 12.617188 -15.855469 L 12.617188 -17.976562 L 14.738281 -17.976562 L 14.738281 -1.085938 C 14.738281 -0.136719 14.441406 0.632812 13.84375 1.226562 C 13.25 1.824219 12.480469 2.121094 11.53125 2.121094 L 4.476562 2.121094 C 3.53125 2.121094 2.757812 1.824219 2.164062 1.226562 C 1.570312 0.632812 1.273438 -0.136719 1.273438 -1.085938 L 1.273438 -46.398438 C 1.273438 -47.34375 1.570312 -48.117188 2.164062 -48.710938 C 2.757812 -49.304688 3.53125 -49.601562 4.476562 -49.601562 L 29.441406 -49.601562 C 30.386719 -49.601562 31.15625 -49.304688 31.753906 -48.710938 C 32.347656 -48.117188 32.644531 -47.34375 32.644531 -46.398438 Z M 28.40625 -46.398438 C 28.40625 -46.347656 28.417969 -46.285156 28.445312 -46.203125 C 28.507812 -46.023438 28.609375 -45.859375 28.753906 -45.714844 C 28.898438 -45.566406 29.0625 -45.464844 29.242188 -45.40625 C 29.324219 -45.378906 29.390625 -45.363281 29.441406 -45.363281 L 4.476562 -45.363281 C 4.527344 -45.363281 4.589844 -45.378906 4.671875 -45.40625 C 4.851562 -45.464844 5.015625 -45.566406 5.160156 -45.714844 C 5.308594 -45.859375 5.410156 -46.023438 5.46875 -46.203125 C 5.496094 -46.285156 5.511719 -46.347656 5.511719 -46.398438 L 5.511719 -1.085938 C 5.511719 -1.132812 5.496094 -1.199219 5.46875 -1.28125 C 5.410156 -1.460938 5.308594 -1.625 5.160156 -1.769531 C 5.015625 -1.914062 4.851562 -2.019531 4.671875 -2.078125 C 4.589844 -2.105469 4.527344 -2.121094 4.476562 -2.121094 L 11.53125 -2.121094 C 11.484375 -2.121094 11.417969 -2.105469 11.335938 -2.078125 C 11.15625 -2.019531 10.992188 -1.914062 10.847656 -1.769531 C 10.699219 -1.625 10.597656 -1.460938 10.539062 -1.28125 C 10.511719 -1.199219 10.496094 -1.132812 10.496094 -1.085938 L 10.496094 -20.097656 L 25.371094 -20.097656 C 25.320312 -20.097656 25.257812 -20.082031 25.175781 -20.054688 C 24.992188 -19.996094 24.832031 -19.890625 24.683594 -19.746094 C 24.539062 -19.601562 24.4375 -19.4375 24.375 -19.257812 C 24.347656 -19.175781 24.335938 -19.109375 24.335938 -19.0625 L 24.335938 -25.84375 C 24.335938 -25.796875 24.347656 -25.730469 24.375 -25.648438 C 24.4375 -25.46875 24.539062 -25.304688 24.683594 -25.160156 C 24.832031 -25.015625 24.992188 -24.910156 25.175781 -24.851562 C 25.257812 -24.824219 25.320312 -24.808594 25.371094 -24.808594 L 10.496094 -24.808594 L 10.496094 -40.648438 L 29.441406 -40.648438 C 29.390625 -40.648438 29.324219 -40.636719 29.242188 -40.609375 C 29.0625 -40.546875 28.898438 -40.445312 28.753906 -40.300781 C 28.609375 -40.152344 28.507812 -39.992188 28.445312 -39.808594 C 28.417969 -39.726562 28.40625 -39.664062 28.40625 -39.613281 Z M 28.40625 -46.398438 "/></g></g><g style="fill:#b21a22;fill-opacity:1;"><g transform="translate(153.021786, 308.723045)"><path style="stroke:none" d="M 22.925781 -49.601562 L 29.167969 -49.601562 C 30.117188 -49.601562 30.933594 -49.261719 31.617188 -48.574219 C 32.300781 -47.890625 32.644531 -47.074219 32.644531 -46.125 L 32.644531 -9.769531 C 32.644531 -6.023438 31.617188 -3.105469 29.558594 -1.019531 C 27.492188 1.074219 24.558594 2.121094 20.757812 2.121094 L 13.160156 2.121094 C 9.410156 2.121094 6.488281 1.078125 4.402344 -1.011719 C 2.316406 -3.097656 1.273438 -6.015625 1.273438 -9.769531 L 1.273438 -46.125 C 1.273438 -47.074219 1.613281 -47.890625 2.300781 -48.574219 C 2.984375 -49.261719 3.800781 -49.601562 4.75 -49.601562 L 11.261719 -49.601562 C 12.207031 -49.601562 13.023438 -49.261719 13.710938 -48.574219 C 14.394531 -47.890625 14.738281 -47.074219 14.738281 -46.125 L 14.738281 -11.667969 C 14.738281 -11.445312 14.757812 -11.273438 14.796875 -11.152344 C 14.804688 -11.128906 14.8125 -11.113281 14.816406 -11.105469 C 14.8125 -11.113281 14.804688 -11.121094 14.792969 -11.132812 C 14.785156 -11.140625 14.777344 -11.148438 14.769531 -11.152344 C 14.777344 -11.148438 14.792969 -11.140625 14.8125 -11.132812 C 14.933594 -11.09375 15.109375 -11.074219 15.332031 -11.074219 L 18.859375 -11.074219 C 19.082031 -11.074219 19.253906 -11.09375 19.375 -11.132812 C 19.398438 -11.140625 19.414062 -11.148438 19.421875 -11.152344 C 19.414062 -11.148438 19.402344 -11.140625 19.394531 -11.132812 C 19.382812 -11.121094 19.375 -11.113281 19.371094 -11.105469 C 19.375 -11.113281 19.382812 -11.128906 19.390625 -11.152344 C 19.429688 -11.273438 19.449219 -11.445312 19.449219 -11.667969 L 19.449219 -46.125 C 19.449219 -47.074219 19.792969 -47.890625 20.480469 -48.574219 C 21.164062 -49.261719 21.980469 -49.601562 22.925781 -49.601562 Z M 22.925781 -45.363281 C 23.152344 -45.363281 23.335938 -45.433594 23.476562 -45.578125 C 23.621094 -45.71875 23.691406 -45.902344 23.691406 -46.125 L 23.691406 -11.667969 C 23.691406 -10.175781 23.257812 -9 22.390625 -8.132812 C 21.527344 -7.265625 20.347656 -6.835938 18.859375 -6.835938 L 15.332031 -6.835938 C 13.839844 -6.835938 12.664062 -7.265625 11.796875 -8.132812 C 10.929688 -9 10.496094 -10.175781 10.496094 -11.667969 L 10.496094 -46.125 C 10.496094 -45.902344 10.570312 -45.71875 10.710938 -45.578125 C 10.855469 -45.433594 11.035156 -45.363281 11.261719 -45.363281 L 4.75 -45.363281 C 4.972656 -45.363281 5.15625 -45.433594 5.296875 -45.578125 C 5.441406 -45.71875 5.511719 -45.902344 5.511719 -46.125 L 5.511719 -9.769531 C 5.511719 -7.1875 6.140625 -5.269531 7.402344 -4.007812 C 8.660156 -2.75 10.578125 -2.121094 13.160156 -2.121094 L 20.757812 -2.121094 C 23.375 -2.121094 25.304688 -2.746094 26.539062 -4 C 27.785156 -5.257812 28.40625 -7.183594 28.40625 -9.769531 L 28.40625 -46.125 C 28.40625 -45.902344 28.476562 -45.71875 28.617188 -45.578125 C 28.761719 -45.433594 28.945312 -45.363281 29.167969 -45.363281 Z M 22.925781 -45.363281 "/></g></g><g style="fill:#b21a22;fill-opacity:1;"><g transform="translate(186.927727, 308.723045)"><path style="stroke:none" d="M 5.5625 -49.601562 L 31.269531 -49.601562 C 32.605469 -49.601562 33.566406 -49.121094 34.160156 -48.152344 C 34.738281 -47.21875 34.757812 -46.160156 34.21875 -44.976562 L 16.917969 -7.457031 L 14.992188 -8.34375 L 14.992188 -10.464844 L 29.847656 -10.464844 C 30.792969 -10.464844 31.566406 -10.167969 32.160156 -9.570312 C 32.753906 -8.976562 33.050781 -8.207031 33.050781 -7.257812 L 33.050781 -1.152344 C 33.050781 -0.253906 32.769531 0.496094 32.203125 1.097656 C 31.675781 1.660156 30.976562 1.996094 30.109375 2.105469 L 29.980469 2.121094 L 3.257812 2.121094 C 2.6875 2.121094 2.179688 2.019531 1.726562 1.824219 C 1.117188 1.558594 0.652344 1.140625 0.328125 0.578125 C -0.226562 -0.394531 -0.222656 -1.449219 0.34375 -2.574219 L 2.238281 -1.628906 L 0.320312 -2.527344 L 17.617188 -39.429688 L 19.535156 -38.53125 L 19.535156 -36.410156 L 5.5625 -36.410156 C 4.613281 -36.410156 3.84375 -36.707031 3.25 -37.300781 C 2.65625 -37.894531 2.355469 -38.667969 2.355469 -39.613281 L 2.355469 -46.332031 C 2.355469 -47.230469 2.640625 -47.980469 3.203125 -48.582031 C 3.734375 -49.144531 4.433594 -49.480469 5.300781 -49.585938 L 5.429688 -49.601562 Z M 5.5625 -45.363281 L 5.5625 -47.484375 L 5.824219 -45.378906 C 5.96875 -45.398438 6.125 -45.496094 6.292969 -45.675781 C 6.496094 -45.890625 6.597656 -46.109375 6.597656 -46.332031 L 6.597656 -39.613281 C 6.597656 -39.664062 6.582031 -39.726562 6.554688 -39.808594 C 6.496094 -39.992188 6.394531 -40.152344 6.246094 -40.300781 C 6.101562 -40.445312 5.9375 -40.546875 5.757812 -40.609375 C 5.675781 -40.636719 5.609375 -40.648438 5.5625 -40.648438 L 22.871094 -40.648438 L 4.148438 -0.703125 L 4.132812 -0.679688 C 4.152344 -0.714844 4.164062 -0.777344 4.167969 -0.875 C 4.179688 -1.101562 4.128906 -1.320312 4.011719 -1.527344 C 3.871094 -1.773438 3.675781 -1.953125 3.425781 -2.0625 C 3.363281 -2.089844 3.300781 -2.109375 3.25 -2.117188 L 3.257812 -2.121094 L 29.847656 -2.121094 L 29.847656 0 L 29.582031 -2.105469 C 29.441406 -2.085938 29.285156 -1.988281 29.117188 -1.808594 C 28.914062 -1.59375 28.8125 -1.375 28.8125 -1.152344 L 28.8125 -7.257812 C 28.8125 -7.210938 28.824219 -7.144531 28.851562 -7.0625 C 28.914062 -6.882812 29.015625 -6.71875 29.160156 -6.574219 C 29.308594 -6.425781 29.46875 -6.324219 29.652344 -6.265625 C 29.734375 -6.238281 29.796875 -6.222656 29.847656 -6.222656 L 11.679688 -6.222656 L 30.359375 -46.734375 C 30.371094 -46.757812 30.375 -46.773438 30.378906 -46.777344 C 30.367188 -46.742188 30.363281 -46.699219 30.359375 -46.644531 C 30.34375 -46.402344 30.410156 -46.164062 30.550781 -45.929688 C 30.703125 -45.683594 30.902344 -45.511719 31.152344 -45.410156 C 31.207031 -45.386719 31.261719 -45.371094 31.304688 -45.363281 C 31.304688 -45.363281 31.292969 -45.363281 31.269531 -45.363281 Z M 5.5625 -45.363281 "/></g></g><g style="fill:#b21a22;fill-opacity:1;"><g transform="translate(221.376174, 308.723045)"><path style="stroke:none" d="M 5.5625 -49.601562 L 31.269531 -49.601562 C 32.605469 -49.601562 33.566406 -49.121094 34.160156 -48.152344 C 34.738281 -47.21875 34.757812 -46.160156 34.21875 -44.976562 L 16.917969 -7.457031 L 14.992188 -8.34375 L 14.992188 -10.464844 L 29.847656 -10.464844 C 30.792969 -10.464844 31.566406 -10.167969 32.160156 -9.570312 C 32.753906 -8.976562 33.050781 -8.207031 33.050781 -7.257812 L 33.050781 -1.152344 C 33.050781 -0.253906 32.769531 0.496094 32.203125 1.097656 C 31.675781 1.660156 30.976562 1.996094 30.109375 2.105469 L 29.980469 2.121094 L 3.257812 2.121094 C 2.6875 2.121094 2.179688 2.019531 1.726562 1.824219 C 1.117188 1.558594 0.652344 1.140625 0.328125 0.578125 C -0.226562 -0.394531 -0.222656 -1.449219 0.34375 -2.574219 L 2.238281 -1.628906 L 0.320312 -2.527344 L 17.617188 -39.429688 L 19.535156 -38.53125 L 19.535156 -36.410156 L 5.5625 -36.410156 C 4.613281 -36.410156 3.84375 -36.707031 3.25 -37.300781 C 2.65625 -37.894531 2.355469 -38.667969 2.355469 -39.613281 L 2.355469 -46.332031 C 2.355469 -47.230469 2.640625 -47.980469 3.203125 -48.582031 C 3.734375 -49.144531 4.433594 -49.480469 5.300781 -49.585938 L 5.429688 -49.601562 Z M 5.5625 -45.363281 L 5.5625 -47.484375 L 5.824219 -45.378906 C 5.96875 -45.398438 6.125 -45.496094 6.292969 -45.675781 C 6.496094 -45.890625 6.597656 -46.109375 6.597656 -46.332031 L 6.597656 -39.613281 C 6.597656 -39.664062 6.582031 -39.726562 6.554688 -39.808594 C 6.496094 -39.992188 6.394531 -40.152344 6.246094 -40.300781 C 6.101562 -40.445312 5.9375 -40.546875 5.757812 -40.609375 C 5.675781 -40.636719 5.609375 -40.648438 5.5625 -40.648438 L 22.871094 -40.648438 L 4.148438 -0.703125 L 4.132812 -0.679688 C 4.152344 -0.714844 4.164062 -0.777344 4.167969 -0.875 C 4.179688 -1.101562 4.128906 -1.320312 4.011719 -1.527344 C 3.871094 -1.773438 3.675781 -1.953125 3.425781 -2.0625 C 3.363281 -2.089844 3.300781 -2.109375 3.25 -2.117188 L 3.257812 -2.121094 L 29.847656 -2.121094 L 29.847656 0 L 29.582031 -2.105469 C 29.441406 -2.085938 29.285156 -1.988281 29.117188 -1.808594 C 28.914062 -1.59375 28.8125 -1.375 28.8125 -1.152344 L 28.8125 -7.257812 C 28.8125 -7.210938 28.824219 -7.144531 28.851562 -7.0625 C 28.914062 -6.882812 29.015625 -6.71875 29.160156 -6.574219 C 29.308594 -6.425781 29.46875 -6.324219 29.652344 -6.265625 C 29.734375 -6.238281 29.796875 -6.222656 29.847656 -6.222656 L 11.679688 -6.222656 L 30.359375 -46.734375 C 30.371094 -46.757812 30.375 -46.773438 30.378906 -46.777344 C 30.367188 -46.742188 30.363281 -46.699219 30.359375 -46.644531 C 30.34375 -46.402344 30.410156 -46.164062 30.550781 -45.929688 C 30.703125 -45.683594 30.902344 -45.511719 31.152344 -45.410156 C 31.207031 -45.386719 31.261719 -45.371094 31.304688 -45.363281 C 31.304688 -45.363281 31.292969 -45.363281 31.269531 -45.363281 Z M 5.5625 -45.363281 "/></g></g><g style="fill:#060705;fill-opacity:1;"><g transform="translate(96.950724, 119.580693)"><path style="stroke:none" d="M 21.296875 -11.671875 L 21.296875 -46.390625 C 21.296875 -47.117188 21.660156 -47.484375 22.390625 -47.484375 L 29.4375 -47.484375 C 30.15625 -47.484375 30.515625 -47.117188 30.515625 -46.390625 L 30.515625 -9.765625 C 30.515625 -6.597656 29.675781 -4.175781 28 -2.5 C 26.332031 -0.832031 23.914062 0 20.75 0 L 13.15625 0 C 9.988281 0 7.566406 -0.832031 5.890625 -2.5 C 4.222656 -4.175781 3.390625 -6.597656 3.390625 -9.765625 L 3.390625 -16.828125 C 3.390625 -17.546875 3.753906 -17.90625 4.484375 -17.90625 L 11.265625 -17.90625 C 11.984375 -17.90625 12.34375 -17.546875 12.34375 -16.828125 L 12.34375 -11.671875 C 12.34375 -9.859375 13.25 -8.953125 15.0625 -8.953125 L 18.578125 -8.953125 C 20.390625 -8.953125 21.296875 -9.859375 21.296875 -11.671875 Z M 21.296875 -11.671875 "/></g></g><g style="fill:#060705;fill-opacity:1;"><g transform="translate(130.856666, 119.580693)"><path style="stroke:none" d="M 13.15625 -47.484375 L 20.75 -47.484375 C 23.96875 -47.484375 26.398438 -46.65625 28.046875 -45 C 29.691406 -43.351562 30.515625 -40.925781 30.515625 -37.71875 L 30.515625 -33.234375 C 30.515625 -32.515625 30.15625 -32.15625 29.4375 -32.15625 L 22.59375 -32.15625 C 21.863281 -32.15625 21.5 -32.515625 21.5 -33.234375 L 21.5 -36.078125 C 21.5 -37.890625 20.59375 -38.796875 18.78125 -38.796875 L 15.0625 -38.796875 C 13.25 -38.796875 12.34375 -37.890625 12.34375 -36.078125 L 12.34375 -30.3125 L 28.765625 -25.03125 C 29.929688 -24.625 30.515625 -23.785156 30.515625 -22.515625 L 30.515625 -9.765625 C 30.515625 -6.597656 29.691406 -4.175781 28.046875 -2.5 C 26.398438 -0.832031 23.96875 0 20.75 0 L 13.15625 0 C 9.988281 0 7.566406 -0.832031 5.890625 -2.5 C 4.222656 -4.175781 3.390625 -6.597656 3.390625 -9.765625 L 3.390625 -14.171875 C 3.390625 -14.898438 3.753906 -15.265625 4.484375 -15.265625 L 11.328125 -15.265625 C 12.046875 -15.265625 12.40625 -14.898438 12.40625 -14.171875 L 12.40625 -11.328125 C 12.40625 -9.515625 13.3125 -8.609375 15.125 -8.609375 L 18.78125 -8.609375 C 20.59375 -8.609375 21.5 -9.515625 21.5 -11.328125 L 21.5 -18.171875 L 5.21875 -23.46875 C 4 -23.875 3.390625 -24.710938 3.390625 -25.984375 L 3.390625 -37.71875 C 3.390625 -40.925781 4.222656 -43.351562 5.890625 -45 C 7.566406 -46.65625 9.988281 -47.484375 13.15625 -47.484375 Z M 13.15625 -47.484375 "/></g></g><g style="fill:#060705;fill-opacity:1;"><g transform="translate(164.762608, 119.580693)"><path style="stroke:none" d="M 3.390625 -9.765625 L 3.390625 -37.71875 C 3.390625 -40.925781 4.222656 -43.351562 5.890625 -45 C 7.566406 -46.65625 9.988281 -47.484375 13.15625 -47.484375 L 20.75 -47.484375 C 23.96875 -47.484375 26.398438 -46.65625 28.046875 -45 C 29.691406 -43.351562 30.515625 -40.925781 30.515625 -37.71875 L 30.515625 -9.765625 C 30.515625 -6.597656 29.691406 -4.175781 28.046875 -2.5 C 26.398438 -0.832031 23.96875 0 20.75 0 L 13.15625 0 C 9.988281 0 7.566406 -0.832031 5.890625 -2.5 C 4.222656 -4.175781 3.390625 -6.597656 3.390625 -9.765625 Z M 14.921875 -8.75 L 19.265625 -8.75 C 21.066406 -8.75 21.96875 -9.65625 21.96875 -11.46875 L 21.96875 -36.015625 C 21.96875 -37.828125 21.066406 -38.734375 19.265625 -38.734375 L 14.921875 -38.734375 C 13.109375 -38.734375 12.203125 -37.828125 12.203125 -36.015625 L 12.203125 -11.46875 C 12.203125 -9.65625 13.109375 -8.75 14.921875 -8.75 Z M 14.921875 -8.75 "/></g></g><g style="fill:#060705;fill-opacity:1;"><g transform="translate(198.66855, 119.580693)"><path style="stroke:none" d="M 24.890625 -47.484375 L 31.265625 -47.484375 C 31.992188 -47.484375 32.359375 -47.117188 32.359375 -46.390625 L 32.359375 -1.078125 C 32.359375 -0.359375 31.992188 0 31.265625 0 L 25.90625 0 C 25.363281 0 24.957031 -0.289062 24.6875 -0.875 L 11.9375 -26.796875 L 11.9375 -1.078125 C 11.9375 -0.359375 11.578125 0 10.859375 0 L 4.484375 0 C 3.753906 0 3.390625 -0.359375 3.390625 -1.078125 L 3.390625 -46.390625 C 3.390625 -47.117188 3.753906 -47.484375 4.484375 -47.484375 L 9.828125 -47.484375 C 10.378906 -47.484375 10.789062 -47.1875 11.0625 -46.59375 L 23.8125 -20.6875 L 23.8125 -46.390625 C 23.8125 -47.117188 24.171875 -47.484375 24.890625 -47.484375 Z M 24.890625 -47.484375 "/></g></g><g style="fill:#060705;fill-opacity:1;"><g transform="translate(234.405424, 119.580693)"><path style="stroke:none" d="M 0 9.09375 L 0 2.84375 C 0 1.945312 0.453125 1.5 1.359375 1.5 L 42.25 1.5 C 43.15625 1.5 43.609375 1.945312 43.609375 2.84375 L 43.609375 9.09375 C 43.609375 10 43.15625 10.453125 42.25 10.453125 L 1.359375 10.453125 C 0.453125 10.453125 0 10 0 9.09375 Z M 0 9.09375 "/></g></g><g style="fill:#060705;fill-opacity:1;"><g transform="translate(52.969754, 214.151869)"><path style="stroke:none" d="M 13.15625 -47.484375 L 20.75 -47.484375 C 23.96875 -47.484375 26.398438 -46.65625 28.046875 -45 C 29.691406 -43.351562 30.515625 -40.925781 30.515625 -37.71875 L 30.515625 -33.234375 C 30.515625 -32.515625 30.15625 -32.15625 29.4375 -32.15625 L 22.59375 -32.15625 C 21.863281 -32.15625 21.5 -32.515625 21.5 -33.234375 L 21.5 -36.078125 C 21.5 -37.890625 20.59375 -38.796875 18.78125 -38.796875 L 15.0625 -38.796875 C 13.25 -38.796875 12.34375 -37.890625 12.34375 -36.078125 L 12.34375 -30.3125 L 28.765625 -25.03125 C 29.929688 -24.625 30.515625 -23.785156 30.515625 -22.515625 L 30.515625 -9.765625 C 30.515625 -6.597656 29.691406 -4.175781 28.046875 -2.5 C 26.398438 -0.832031 23.96875 0 20.75 0 L 13.15625 0 C 9.988281 0 7.566406 -0.832031 5.890625 -2.5 C 4.222656 -4.175781 3.390625 -6.597656 3.390625 -9.765625 L 3.390625 -14.171875 C 3.390625 -14.898438 3.753906 -15.265625 4.484375 -15.265625 L 11.328125 -15.265625 C 12.046875 -15.265625 12.40625 -14.898438 12.40625 -14.171875 L 12.40625 -11.328125 C 12.40625 -9.515625 13.3125 -8.609375 15.125 -8.609375 L 18.78125 -8.609375 C 20.59375 -8.609375 21.5 -9.515625 21.5 -11.328125 L 21.5 -18.171875 L 5.21875 -23.46875 C 4 -23.875 3.390625 -24.710938 3.390625 -25.984375 L 3.390625 -37.71875 C 3.390625 -40.925781 4.222656 -43.351562 5.890625 -45 C 7.566406 -46.65625 9.988281 -47.484375 13.15625 -47.484375 Z M 13.15625 -47.484375 "/></g></g><g style="fill:#060705;fill-opacity:1;"><g transform="translate(86.875696, 214.151869)"><path style="stroke:none" d="M 30.59375 -37.71875 L 30.59375 -30.390625 C 30.59375 -29.660156 30.226562 -29.296875 29.5 -29.296875 L 23.125 -29.296875 C 22.40625 -29.296875 22.046875 -29.660156 22.046875 -30.390625 L 22.046875 -35.953125 C 22.046875 -37.753906 21.140625 -38.65625 19.328125 -38.65625 L 14.984375 -38.65625 C 13.179688 -38.65625 12.28125 -37.753906 12.28125 -35.953125 L 12.28125 -11.328125 C 12.28125 -9.515625 13.179688 -8.609375 14.984375 -8.609375 L 19.328125 -8.609375 C 21.140625 -8.609375 22.046875 -9.515625 22.046875 -11.328125 L 22.046875 -17.09375 C 22.046875 -17.8125 22.40625 -18.171875 23.125 -18.171875 L 29.5 -18.171875 C 30.226562 -18.171875 30.59375 -17.8125 30.59375 -17.09375 L 30.59375 -9.765625 C 30.59375 -6.597656 29.753906 -4.175781 28.078125 -2.5 C 26.410156 -0.832031 23.992188 0 20.828125 0 L 13.21875 0 C 10.0625 0 7.632812 -0.832031 5.9375 -2.5 C 4.238281 -4.175781 3.390625 -6.597656 3.390625 -9.765625 L 3.390625 -37.71875 C 3.390625 -40.925781 4.238281 -43.351562 5.9375 -45 C 7.632812 -46.65625 10.0625 -47.484375 13.21875 -47.484375 L 20.828125 -47.484375 C 23.992188 -47.484375 26.410156 -46.65625 28.078125 -45 C 29.753906 -43.351562 30.59375 -40.925781 30.59375 -37.71875 Z M 30.59375 -37.71875 "/></g></g><g style="fill:#060705;fill-opacity:1;"><g transform="translate(120.849461, 214.151869)"><path style="stroke:none" d="M 21.296875 -28.078125 L 21.296875 -46.390625 C 21.296875 -47.117188 21.660156 -47.484375 22.390625 -47.484375 L 29.375 -47.484375 C 30.132812 -47.484375 30.515625 -47.117188 30.515625 -46.390625 L 30.515625 -1.078125 C 30.515625 -0.359375 30.132812 0 29.375 0 L 22.390625 0 C 21.660156 0 21.296875 -0.359375 21.296875 -1.078125 L 21.296875 -19.125 L 12.609375 -19.125 L 12.609375 -1.078125 C 12.609375 -0.359375 12.25 0 11.53125 0 L 4.546875 0 C 3.773438 0 3.390625 -0.359375 3.390625 -1.078125 L 3.390625 -46.390625 C 3.390625 -47.117188 3.773438 -47.484375 4.546875 -47.484375 L 11.53125 -47.484375 C 12.25 -47.484375 12.609375 -47.117188 12.609375 -46.390625 L 12.609375 -28.078125 Z M 21.296875 -28.078125 "/></g></g><g style="fill:#060705;fill-opacity:1;"><g transform="translate(154.755402, 214.151869)"><path style="stroke:none" d="M 30.453125 -46.390625 L 30.453125 -39.609375 C 30.453125 -38.835938 30.09375 -38.453125 29.375 -38.453125 L 12.609375 -38.453125 L 12.609375 -28.015625 L 25.375 -28.015625 C 26.09375 -28.015625 26.453125 -27.628906 26.453125 -26.859375 L 26.453125 -20.140625 C 26.453125 -19.367188 26.09375 -18.984375 25.375 -18.984375 L 12.609375 -18.984375 L 12.609375 -8.953125 L 29.375 -8.953125 C 30.09375 -8.953125 30.453125 -8.59375 30.453125 -7.875 L 30.453125 -1.078125 C 30.453125 -0.359375 30.09375 0 29.375 0 L 4.40625 0 C 3.726562 0 3.390625 -0.359375 3.390625 -1.078125 L 3.390625 -46.390625 C 3.390625 -47.117188 3.726562 -47.484375 4.40625 -47.484375 L 29.375 -47.484375 C 30.09375 -47.484375 30.453125 -47.117188 30.453125 -46.390625 Z M 30.453125 -46.390625 "/></g></g><g style="fill:#060705;fill-opacity:1;"><g transform="translate(188.593521, 214.151869)"><path style="stroke:none" d="M 31.75 -47.484375 L 40.703125 -47.484375 C 41.597656 -47.484375 42.046875 -47.03125 42.046875 -46.125 L 42.046875 -1.359375 C 42.046875 -0.453125 41.597656 0 40.703125 0 L 34.390625 0 C 33.484375 0 33.03125 -0.453125 33.03125 -1.359375 L 33.03125 -28.015625 L 32.5625 -28.015625 L 26.1875 -1.15625 C 25.957031 -0.382812 25.457031 0 24.6875 0 L 20.6875 0 C 19.914062 0 19.421875 -0.382812 19.203125 -1.15625 L 12.8125 -28.015625 L 12.34375 -28.015625 L 12.34375 -1.359375 C 12.34375 -0.453125 11.890625 0 10.984375 0 L 4.75 0 C 3.84375 0 3.390625 -0.453125 3.390625 -1.359375 L 3.390625 -46.125 C 3.390625 -47.03125 3.84375 -47.484375 4.75 -47.484375 L 13.703125 -47.484375 C 14.472656 -47.484375 14.96875 -47.097656 15.1875 -46.328125 L 22.71875 -16.078125 L 30.25 -46.328125 C 30.476562 -47.097656 30.976562 -47.484375 31.75 -47.484375 Z M 31.75 -47.484375 "/></g></g><g style="fill:#060705;fill-opacity:1;"><g transform="translate(234.027476, 214.151869)"><path style="stroke:none" d="M 30.453125 -46.390625 L 30.453125 -39.609375 C 30.453125 -38.835938 30.09375 -38.453125 29.375 -38.453125 L 12.609375 -38.453125 L 12.609375 -28.015625 L 25.375 -28.015625 C 26.09375 -28.015625 26.453125 -27.628906 26.453125 -26.859375 L 26.453125 -20.140625 C 26.453125 -19.367188 26.09375 -18.984375 25.375 -18.984375 L 12.609375 -18.984375 L 12.609375 -8.953125 L 29.375 -8.953125 C 30.09375 -8.953125 30.453125 -8.59375 30.453125 -7.875 L 30.453125 -1.078125 C 30.453125 -0.359375 30.09375 0 29.375 0 L 4.40625 0 C 3.726562 0 3.390625 -0.359375 3.390625 -1.078125 L 3.390625 -46.390625 C 3.390625 -47.117188 3.726562 -47.484375 4.40625 -47.484375 L 29.375 -47.484375 C 30.09375 -47.484375 30.453125 -47.117188 30.453125 -46.390625 Z M 30.453125 -46.390625 "/></g></g><g style="fill:#060705;fill-opacity:1;"><g transform="translate(267.865595, 214.151869)"><path style="stroke:none" d="M 30.515625 -37.71875 L 30.515625 -24.078125 C 30.515625 -20.140625 29.25 -17.378906 26.71875 -15.796875 L 30.25 -1.21875 C 30.476562 -0.40625 30.160156 0 29.296875 0 L 22.65625 0 C 22.019531 0 21.632812 -0.316406 21.5 -0.953125 L 18.25 -14.3125 L 12.203125 -14.3125 L 12.203125 -1.078125 C 12.203125 -0.359375 11.84375 0 11.125 0 L 4.484375 0 C 3.753906 0 3.390625 -0.359375 3.390625 -1.078125 L 3.390625 -46.390625 C 3.390625 -47.117188 3.753906 -47.484375 4.484375 -47.484375 L 20.75 -47.484375 C 23.96875 -47.484375 26.398438 -46.65625 28.046875 -45 C 29.691406 -43.351562 30.515625 -40.925781 30.515625 -37.71875 Z M 12.203125 -23.0625 L 18.984375 -23.0625 C 20.796875 -23.0625 21.703125 -23.96875 21.703125 -25.78125 L 21.703125 -36.015625 C 21.703125 -37.828125 20.796875 -38.734375 18.984375 -38.734375 L 12.203125 -38.734375 Z M 12.203125 -23.0625 "/></g></g><g style="fill:#060705;fill-opacity:1;"><g transform="translate(301.771536, 214.151869)"><path style="stroke:none" d="M 3.390625 -21.296875 L 3.390625 -27.53125 C 3.390625 -28.4375 3.84375 -28.890625 4.75 -28.890625 L 15.46875 -28.890625 C 16.375 -28.890625 16.828125 -28.4375 16.828125 -27.53125 L 16.828125 -21.296875 C 16.828125 -20.390625 16.375 -19.9375 15.46875 -19.9375 L 4.75 -19.9375 C 3.84375 -19.9375 3.390625 -20.390625 3.390625 -21.296875 Z M 3.390625 -21.296875 "/></g></g><g style="fill:#060705;fill-opacity:1;"><g transform="translate(119.115844, 308.723045)"><path style="stroke:none" d="M 30.515625 -46.390625 L 30.515625 -39.609375 C 30.515625 -38.890625 30.15625 -38.53125 29.4375 -38.53125 L 12.609375 -38.53125 L 12.609375 -26.921875 L 25.375 -26.921875 C 26.09375 -26.921875 26.453125 -26.5625 26.453125 -25.84375 L 26.453125 -19.0625 C 26.453125 -18.332031 26.09375 -17.96875 25.375 -17.96875 L 12.609375 -17.96875 L 12.609375 -1.078125 C 12.609375 -0.359375 12.25 0 11.53125 0 L 4.484375 0 C 3.753906 0 3.390625 -0.359375 3.390625 -1.078125 L 3.390625 -46.390625 C 3.390625 -47.117188 3.753906 -47.484375 4.484375 -47.484375 L 29.4375 -47.484375 C 30.15625 -47.484375 30.515625 -47.117188 30.515625 -46.390625 Z M 30.515625 -46.390625 "/></g></g><g style="fill:#060705;fill-opacity:1;"><g transform="translate(153.021786, 308.723045)"><path style="stroke:none" d="M 22.921875 -47.484375 L 29.171875 -47.484375 C 29.523438 -47.484375 29.835938 -47.347656 30.109375 -47.078125 C 30.378906 -46.804688 30.515625 -46.488281 30.515625 -46.125 L 30.515625 -9.765625 C 30.515625 -6.597656 29.691406 -4.175781 28.046875 -2.5 C 26.398438 -0.832031 23.96875 0 20.75 0 L 13.15625 0 C 9.988281 0 7.566406 -0.832031 5.890625 -2.5 C 4.222656 -4.175781 3.390625 -6.597656 3.390625 -9.765625 L 3.390625 -46.125 C 3.390625 -46.488281 3.523438 -46.804688 3.796875 -47.078125 C 4.066406 -47.347656 4.382812 -47.484375 4.75 -47.484375 L 11.265625 -47.484375 C 11.617188 -47.484375 11.929688 -47.347656 12.203125 -47.078125 C 12.472656 -46.804688 12.609375 -46.488281 12.609375 -46.125 L 12.609375 -11.671875 C 12.609375 -9.859375 13.515625 -8.953125 15.328125 -8.953125 L 18.859375 -8.953125 C 20.660156 -8.953125 21.5625 -9.859375 21.5625 -11.671875 L 21.5625 -46.125 C 21.5625 -46.488281 21.695312 -46.804688 21.96875 -47.078125 C 22.25 -47.347656 22.566406 -47.484375 22.921875 -47.484375 Z M 22.921875 -47.484375 "/></g></g><g style="fill:#060705;fill-opacity:1;"><g transform="translate(186.927727, 308.723045)"><path style="stroke:none" d="M 5.5625 -47.484375 L 31.265625 -47.484375 C 31.804688 -47.484375 32.164062 -47.332031 32.34375 -47.03125 C 32.53125 -46.738281 32.507812 -46.347656 32.28125 -45.859375 L 14.984375 -8.34375 L 29.84375 -8.34375 C 30.5625 -8.34375 30.921875 -7.976562 30.921875 -7.25 L 30.921875 -1.15625 C 30.921875 -0.476562 30.5625 -0.09375 29.84375 0 L 3.25 0 C 2.707031 0 2.347656 -0.15625 2.171875 -0.46875 C 1.992188 -0.789062 2.015625 -1.175781 2.234375 -1.625 L 19.53125 -38.53125 L 5.5625 -38.53125 C 4.84375 -38.53125 4.484375 -38.890625 4.484375 -39.609375 L 4.484375 -46.328125 C 4.484375 -47.003906 4.84375 -47.390625 5.5625 -47.484375 Z M 5.5625 -47.484375 "/></g></g><g style="fill:#060705;fill-opacity:1;"><g transform="translate(221.376174, 308.723045)"><path style="stroke:none" d="M 5.5625 -47.484375 L 31.265625 -47.484375 C 31.804688 -47.484375 32.164062 -47.332031 32.34375 -47.03125 C 32.53125 -46.738281 32.507812 -46.347656 32.28125 -45.859375 L 14.984375 -8.34375 L 29.84375 -8.34375 C 30.5625 -8.34375 30.921875 -7.976562 30.921875 -7.25 L 30.921875 -1.15625 C 30.921875 -0.476562 30.5625 -0.09375 29.84375 0 L 3.25 0 C 2.707031 0 2.347656 -0.15625 2.171875 -0.46875 C 1.992188 -0.789062 2.015625 -1.175781 2.234375 -1.625 L 19.53125 -38.53125 L 5.5625 -38.53125 C 4.84375 -38.53125 4.484375 -38.890625 4.484375 -39.609375 L 4.484375 -46.328125 C 4.484375 -47.003906 4.84375 -47.390625 5.5625 -47.484375 Z M 5.5625 -47.484375 "/></g></g></g></svg>