<svg xmlns="http://www.w3.org/2000/svg" xmlns:xlink="http://www.w3.org/1999/xlink" width="500" zoomAndPan="magnify" viewBox="0 0 375 374.999991" height="500" preserveAspectRatio="xMidYMid meet" version="1.2"><defs><clipPath id="31e2f16a0d"><path d="M 25 0 L 350 0 L 350 375 L 25 375 Z M 25 0 "/></clipPath><clipPath id="efc0ce4dc1"><path d="M -55.878906 142.882812 L 268.328125 -46.476562 L 431 232.042969 L 106.789062 421.402344 Z M -55.878906 142.882812 "/></clipPath><clipPath id="4dfb21ea84"><path d="M 349.546875 92.851562 L 349.859375 279.433594 L 187.8125 374.078125 L 25.453125 282.144531 L 25.140625 95.5625 L 187.1875 0.917969 Z M 349.546875 92.851562 "/></clipPath><clipPath id="7ae6ff326c"><path d="M 55.238281 35.632812 L 319.726562 35.632812 L 319.726562 339 L 55.238281 339 Z M 55.238281 35.632812 "/></clipPath></defs><g id="865945020a"><g clip-rule="nonzero" clip-path="url(#31e2f16a0d)"><g clip-rule="nonzero" clip-path="url(#efc0ce4dc1)"><g clip-rule="nonzero" clip-path="url(#4dfb21ea84)"><path style=" stroke:none;fill-rule:nonzero;fill:#65b30e;fill-opacity:1;" d="M -55.878906 142.882812 L 268.332031 -46.476562 L 431 232.042969 L 106.789062 421.402344 Z M -55.878906 142.882812 "/></g></g></g><path style=" stroke:none;fill-rule:nonzero;fill:#87ff00;fill-opacity:1;" d="M 134.582031 135.703125 L 134.414062 135.535156 L 97.035156 172.914062 L 187.792969 263.503906 L 225.175781 226.296875 L 278.546875 172.914062 L 241.167969 135.535156 L 241.167969 135.367188 L 134.417969 135.367188 Z M 134.582031 135.703125 "/><g clip-rule="nonzero" clip-path="url(#7ae6ff326c)"><path style=" stroke:none;fill-rule:nonzero;fill:#87ff00;fill-opacity:1;" d="M 187.453125 35.851562 L 55.269531 111.625 L 55.273438 263.175781 L 187.457031 338.949219 L 319.640625 263.175781 L 319.640625 111.625 L 187.457031 35.855469 Z M 294.375 248.683594 L 187.453125 310.308594 L 80.527344 248.683594 L 80.53125 125.765625 L 187.457031 64.136719 L 294.378906 125.765625 L 294.378906 248.683594 Z M 294.375 248.683594 "/></g><g style="fill:#b21a22;fill-opacity:1;"><g transform="translate(55.098391, 160.533719)"><path style="stroke:none" d="M 17.199219 -64.828125 L 27.128906 -64.828125 C 32.089844 -64.828125 35.917969 -63.476562 38.617188 -60.78125 C 41.316406 -58.082031 42.664062 -54.25 42.664062 -49.289062 L 42.664062 -43.4375 C 42.664062 -42.203125 42.273438 -41.195312 41.496094 -40.417969 C 40.71875 -39.640625 39.710938 -39.25 38.476562 -39.25 L 29.519531 -39.25 C 28.28125 -39.25 27.277344 -39.640625 26.5 -40.417969 C 25.71875 -41.195312 25.332031 -42.203125 25.332031 -43.4375 L 25.332031 -47.164062 C 25.332031 -47.453125 25.304688 -47.679688 25.253906 -47.835938 C 25.242188 -47.867188 25.234375 -47.886719 25.226562 -47.898438 C 25.234375 -47.886719 25.242188 -47.875 25.257812 -47.863281 C 25.269531 -47.851562 25.28125 -47.839844 25.292969 -47.835938 C 25.28125 -47.839844 25.261719 -47.847656 25.230469 -47.859375 C 25.074219 -47.910156 24.847656 -47.9375 24.554688 -47.9375 L 19.679688 -47.9375 C 19.390625 -47.9375 19.164062 -47.910156 19.003906 -47.859375 C 18.976562 -47.847656 18.957031 -47.839844 18.945312 -47.835938 C 18.957031 -47.839844 18.96875 -47.851562 18.980469 -47.863281 C 18.992188 -47.875 19.003906 -47.886719 19.007812 -47.898438 C 19.003906 -47.886719 18.996094 -47.867188 18.984375 -47.835938 C 18.929688 -47.679688 18.90625 -47.453125 18.90625 -47.164062 L 18.90625 -39.628906 L 16.132812 -39.628906 L 16.984375 -42.265625 L 38.4375 -35.347656 C 39.808594 -34.875 40.855469 -34.121094 41.582031 -33.085938 C 42.304688 -32.0625 42.664062 -30.84375 42.664062 -29.433594 L 42.664062 -12.765625 C 42.664062 -7.871094 41.320312 -4.0625 38.628906 -1.335938 C 35.929688 1.402344 32.097656 2.769531 27.128906 2.769531 L 17.199219 2.769531 C 12.296875 2.769531 8.480469 1.40625 5.753906 -1.320312 C 3.027344 -4.046875 1.660156 -7.863281 1.660156 -12.765625 L 1.660156 -18.527344 C 1.660156 -19.765625 2.050781 -20.773438 2.828125 -21.550781 C 3.605469 -22.328125 4.613281 -22.71875 5.851562 -22.71875 L 14.804688 -22.71875 C 16.042969 -22.71875 17.050781 -22.328125 17.828125 -21.550781 C 18.605469 -20.773438 18.992188 -19.765625 18.992188 -18.527344 L 18.992188 -14.804688 C 18.992188 -14.511719 19.019531 -14.289062 19.074219 -14.128906 C 19.082031 -14.101562 19.089844 -14.082031 19.097656 -14.070312 C 19.089844 -14.078125 19.082031 -14.089844 19.070312 -14.105469 C 19.054688 -14.117188 19.042969 -14.128906 19.035156 -14.132812 C 19.042969 -14.125 19.066406 -14.117188 19.09375 -14.109375 C 19.253906 -14.054688 19.476562 -14.03125 19.769531 -14.03125 L 24.554688 -14.03125 C 24.847656 -14.03125 25.074219 -14.054688 25.230469 -14.109375 C 25.261719 -14.117188 25.28125 -14.125 25.292969 -14.132812 C 25.28125 -14.128906 25.269531 -14.117188 25.257812 -14.105469 C 25.242188 -14.089844 25.234375 -14.078125 25.226562 -14.070312 C 25.234375 -14.082031 25.242188 -14.101562 25.253906 -14.128906 C 25.304688 -14.289062 25.332031 -14.511719 25.332031 -14.804688 L 25.332031 -23.757812 L 28.101562 -23.757812 L 27.246094 -21.125 L 5.96875 -28.039062 C 4.597656 -28.496094 3.539062 -29.234375 2.792969 -30.257812 C 2.039062 -31.292969 1.660156 -32.523438 1.660156 -33.953125 L 1.660156 -49.289062 C 1.660156 -54.257812 3.03125 -58.09375 5.765625 -60.792969 C 8.492188 -63.480469 12.304688 -64.828125 17.199219 -64.828125 Z M 17.199219 -59.285156 C 13.820312 -59.285156 11.304688 -58.472656 9.660156 -56.847656 C 8.023438 -55.234375 7.203125 -52.714844 7.203125 -49.289062 L 7.203125 -33.953125 C 7.203125 -33.726562 7.226562 -33.585938 7.269531 -33.527344 C 7.320312 -33.457031 7.457031 -33.382812 7.683594 -33.308594 L 30.875 -25.769531 L 30.875 -14.804688 C 30.875 -12.859375 30.308594 -11.316406 29.175781 -10.1875 C 28.042969 -9.054688 26.503906 -8.488281 24.554688 -8.488281 L 19.769531 -8.488281 C 17.820312 -8.488281 16.28125 -9.054688 15.152344 -10.1875 C 14.019531 -11.316406 13.453125 -12.859375 13.453125 -14.804688 L 13.453125 -18.527344 C 13.453125 -18.464844 13.46875 -18.378906 13.507812 -18.273438 C 13.585938 -18.035156 13.71875 -17.824219 13.910156 -17.632812 C 14.101562 -17.441406 14.3125 -17.308594 14.550781 -17.230469 C 14.65625 -17.195312 14.742188 -17.175781 14.804688 -17.175781 L 5.851562 -17.175781 C 5.914062 -17.175781 6 -17.195312 6.105469 -17.230469 C 6.34375 -17.308594 6.554688 -17.441406 6.746094 -17.632812 C 6.9375 -17.824219 7.070312 -18.035156 7.148438 -18.273438 C 7.183594 -18.378906 7.203125 -18.464844 7.203125 -18.527344 L 7.203125 -12.765625 C 7.203125 -9.394531 8.027344 -6.886719 9.671875 -5.238281 C 11.316406 -3.59375 13.828125 -2.769531 17.199219 -2.769531 L 27.128906 -2.769531 C 30.550781 -2.769531 33.070312 -3.589844 34.683594 -5.226562 C 36.308594 -6.875 37.121094 -9.386719 37.121094 -12.765625 L 37.121094 -29.433594 C 37.121094 -29.675781 37.097656 -29.832031 37.050781 -29.902344 C 37.007812 -29.957031 36.90625 -30.015625 36.738281 -30.074219 L 13.363281 -37.609375 L 13.363281 -47.164062 C 13.363281 -49.109375 13.929688 -50.648438 15.0625 -51.78125 C 16.195312 -52.914062 17.734375 -53.480469 19.679688 -53.480469 L 24.554688 -53.480469 C 26.503906 -53.480469 28.042969 -52.914062 29.175781 -51.78125 C 30.308594 -50.648438 30.875 -49.109375 30.875 -47.164062 L 30.875 -43.4375 C 30.875 -43.503906 30.855469 -43.585938 30.820312 -43.695312 C 30.742188 -43.929688 30.605469 -44.144531 30.417969 -44.335938 C 30.226562 -44.523438 30.011719 -44.660156 29.777344 -44.738281 C 29.667969 -44.773438 29.585938 -44.792969 29.519531 -44.792969 L 38.476562 -44.792969 C 38.410156 -44.792969 38.328125 -44.773438 38.21875 -44.738281 C 37.984375 -44.660156 37.769531 -44.523438 37.578125 -44.335938 C 37.390625 -44.144531 37.253906 -43.929688 37.175781 -43.695312 C 37.140625 -43.585938 37.121094 -43.503906 37.121094 -43.4375 L 37.121094 -49.289062 C 37.121094 -52.722656 36.316406 -55.246094 34.699219 -56.859375 C 33.082031 -58.476562 30.558594 -59.285156 27.128906 -59.285156 Z M 17.199219 -59.285156 "/></g></g><g style="fill:#b21a22;fill-opacity:1;"><g transform="translate(99.410141, 160.533719)"><path style="stroke:none" d="M 36.703125 -59.285156 L 4.078125 -59.285156 C 4.140625 -59.285156 4.226562 -59.304688 4.332031 -59.339844 C 4.570312 -59.417969 4.78125 -59.550781 4.972656 -59.742188 C 5.164062 -59.933594 5.296875 -60.144531 5.375 -60.382812 C 5.414062 -60.488281 5.429688 -60.574219 5.429688 -60.636719 L 5.429688 -51.773438 C 5.429688 -51.835938 5.414062 -51.921875 5.375 -52.027344 C 5.296875 -52.265625 5.164062 -52.476562 4.972656 -52.667969 C 4.78125 -52.859375 4.570312 -52.992188 4.332031 -53.070312 C 4.226562 -53.105469 4.140625 -53.125 4.078125 -53.125 L 17.132812 -53.125 L 17.132812 -1.417969 C 17.132812 -1.480469 17.113281 -1.566406 17.078125 -1.675781 C 17 -1.910156 16.867188 -2.125 16.675781 -2.3125 C 16.484375 -2.503906 16.273438 -2.636719 16.035156 -2.71875 C 15.929688 -2.753906 15.84375 -2.769531 15.78125 -2.769531 L 25 -2.769531 C 24.9375 -2.769531 24.851562 -2.753906 24.746094 -2.71875 C 24.507812 -2.636719 24.292969 -2.503906 24.105469 -2.3125 C 23.914062 -2.125 23.78125 -1.910156 23.699219 -1.675781 C 23.664062 -1.566406 23.648438 -1.480469 23.648438 -1.417969 L 23.648438 -53.125 L 36.703125 -53.125 C 36.636719 -53.125 36.554688 -53.105469 36.445312 -53.070312 C 36.210938 -52.992188 35.996094 -52.859375 35.804688 -52.667969 C 35.617188 -52.476562 35.480469 -52.265625 35.402344 -52.027344 C 35.367188 -51.921875 35.347656 -51.835938 35.347656 -51.773438 L 35.347656 -60.636719 C 35.347656 -60.574219 35.367188 -60.488281 35.402344 -60.382812 C 35.480469 -60.144531 35.617188 -59.933594 35.804688 -59.742188 C 35.996094 -59.550781 36.210938 -59.417969 36.445312 -59.339844 C 36.554688 -59.304688 36.636719 -59.285156 36.703125 -59.285156 Z M 36.703125 -64.828125 C 37.941406 -64.828125 38.945312 -64.4375 39.726562 -63.660156 C 40.503906 -62.882812 40.890625 -61.875 40.890625 -60.636719 L 40.890625 -51.773438 C 40.890625 -50.535156 40.503906 -49.527344 39.726562 -48.75 C 38.945312 -47.972656 37.941406 -47.582031 36.703125 -47.582031 L 26.417969 -47.582031 L 26.417969 -50.355469 L 29.1875 -50.355469 L 29.1875 -1.417969 C 29.1875 -0.179688 28.800781 0.828125 28.023438 1.605469 C 27.246094 2.382812 26.238281 2.769531 25 2.769531 L 15.78125 2.769531 C 14.542969 2.769531 13.535156 2.382812 12.757812 1.605469 C 11.980469 0.828125 11.589844 -0.179688 11.589844 -1.417969 L 11.589844 -50.355469 L 14.363281 -50.355469 L 14.363281 -47.582031 L 4.078125 -47.582031 C 2.839844 -47.582031 1.832031 -47.972656 1.054688 -48.75 C 0.277344 -49.527344 -0.109375 -50.535156 -0.109375 -51.773438 L -0.109375 -60.636719 C -0.109375 -61.875 0.277344 -62.882812 1.054688 -63.660156 C 1.832031 -64.4375 2.839844 -64.828125 4.078125 -64.828125 Z M 36.703125 -64.828125 "/></g></g><g style="fill:#b21a22;fill-opacity:1;"><g transform="translate(140.176956, 160.533719)"><path style="stroke:none" d="M 46.277344 2.769531 L 37.675781 2.769531 C 36.597656 2.769531 35.679688 2.4375 34.921875 1.773438 C 34.222656 1.164062 33.765625 0.351562 33.550781 -0.660156 L 36.257812 -1.242188 L 33.574219 -0.558594 L 30.734375 -11.730469 L 33.421875 -12.410156 L 33.421875 -9.640625 L 16.753906 -9.640625 L 16.753906 -12.410156 L 19.445312 -11.75 L 16.699219 -0.578125 L 14.007812 -1.242188 L 16.714844 -0.660156 C 16.5 0.351562 16.042969 1.164062 15.34375 1.773438 C 14.585938 2.4375 13.667969 2.769531 12.589844 2.769531 L 3.902344 2.769531 C 2.457031 2.769531 1.359375 2.28125 0.613281 1.304688 C -0.148438 0.3125 -0.320312 -0.886719 0.0898438 -2.289062 L 2.75 -1.507812 L 0.0585938 -2.175781 L 14.773438 -61.480469 L 17.464844 -60.816406 L 14.753906 -61.394531 C 14.980469 -62.4375 15.464844 -63.269531 16.210938 -63.882812 C 16.976562 -64.511719 17.894531 -64.828125 18.972656 -64.828125 L 31.292969 -64.828125 C 32.371094 -64.828125 33.289062 -64.511719 34.050781 -63.882812 C 34.800781 -63.269531 35.285156 -62.4375 35.511719 -61.394531 L 32.800781 -60.816406 L 35.488281 -61.480469 L 50.207031 -2.175781 L 47.515625 -1.507812 L 50.175781 -2.289062 C 50.597656 -0.847656 50.398438 0.378906 49.566406 1.382812 C 48.804688 2.308594 47.710938 2.769531 46.277344 2.769531 Z M 46.277344 -2.769531 C 46.289062 -2.769531 46.300781 -2.769531 46.308594 -2.769531 C 46.308594 -2.769531 46.304688 -2.769531 46.300781 -2.769531 C 46.25 -2.761719 46.191406 -2.75 46.125 -2.726562 C 45.804688 -2.625 45.527344 -2.425781 45.289062 -2.136719 C 45.023438 -1.8125 44.875 -1.457031 44.84375 -1.0625 C 44.832031 -0.914062 44.835938 -0.800781 44.859375 -0.726562 L 44.84375 -0.78125 L 30.101562 -60.191406 L 30.09375 -60.234375 C 30.136719 -60.019531 30.285156 -59.808594 30.53125 -59.605469 C 30.789062 -59.394531 31.046875 -59.285156 31.292969 -59.285156 L 18.972656 -59.285156 C 19.21875 -59.285156 19.476562 -59.394531 19.734375 -59.605469 C 19.980469 -59.808594 20.128906 -60.019531 20.171875 -60.234375 L 20.164062 -60.191406 L 5.421875 -0.78125 L 5.40625 -0.726562 C 5.421875 -0.78125 5.425781 -0.878906 5.417969 -1.011719 C 5.398438 -1.386719 5.261719 -1.734375 5.015625 -2.058594 C 4.773438 -2.375 4.480469 -2.59375 4.136719 -2.710938 C 4.023438 -2.75 3.945312 -2.769531 3.902344 -2.769531 L 12.589844 -2.769531 C 12.277344 -2.769531 11.980469 -2.644531 11.695312 -2.394531 C 11.46875 -2.199219 11.335938 -2.007812 11.296875 -1.820312 L 11.304688 -1.863281 L 14.582031 -15.183594 L 35.578125 -15.183594 L 38.957031 -1.871094 L 38.96875 -1.820312 C 38.929688 -2.007812 38.796875 -2.199219 38.570312 -2.394531 C 38.285156 -2.644531 37.988281 -2.769531 37.675781 -2.769531 Z M 27.972656 -22.070312 L 22.390625 -46.183594 L 25.089844 -46.808594 L 27.789062 -46.183594 L 22.203125 -22.070312 L 19.503906 -22.695312 L 19.503906 -25.464844 L 30.671875 -25.464844 L 30.671875 -22.695312 Z M 34.160156 -19.925781 L 16.019531 -19.925781 L 22.390625 -47.433594 L 27.789062 -47.433594 L 33.371094 -23.320312 Z M 34.160156 -19.925781 "/></g></g><g style="fill:#b21a22;fill-opacity:1;"><g transform="translate(190.426491, 160.533719)"><path style="stroke:none" d="M 36.703125 -59.285156 L 4.078125 -59.285156 C 4.140625 -59.285156 4.226562 -59.304688 4.332031 -59.339844 C 4.570312 -59.417969 4.78125 -59.550781 4.972656 -59.742188 C 5.164062 -59.933594 5.296875 -60.144531 5.375 -60.382812 C 5.414062 -60.488281 5.429688 -60.574219 5.429688 -60.636719 L 5.429688 -51.773438 C 5.429688 -51.835938 5.414062 -51.921875 5.375 -52.027344 C 5.296875 -52.265625 5.164062 -52.476562 4.972656 -52.667969 C 4.78125 -52.859375 4.570312 -52.992188 4.332031 -53.070312 C 4.226562 -53.105469 4.140625 -53.125 4.078125 -53.125 L 17.132812 -53.125 L 17.132812 -1.417969 C 17.132812 -1.480469 17.113281 -1.566406 17.078125 -1.675781 C 17 -1.910156 16.867188 -2.125 16.675781 -2.3125 C 16.484375 -2.503906 16.273438 -2.636719 16.035156 -2.71875 C 15.929688 -2.753906 15.84375 -2.769531 15.78125 -2.769531 L 25 -2.769531 C 24.9375 -2.769531 24.851562 -2.753906 24.746094 -2.71875 C 24.507812 -2.636719 24.292969 -2.503906 24.105469 -2.3125 C 23.914062 -2.125 23.78125 -1.910156 23.699219 -1.675781 C 23.664062 -1.566406 23.648438 -1.480469 23.648438 -1.417969 L 23.648438 -53.125 L 36.703125 -53.125 C 36.636719 -53.125 36.554688 -53.105469 36.445312 -53.070312 C 36.210938 -52.992188 35.996094 -52.859375 35.804688 -52.667969 C 35.617188 -52.476562 35.480469 -52.265625 35.402344 -52.027344 C 35.367188 -51.921875 35.347656 -51.835938 35.347656 -51.773438 L 35.347656 -60.636719 C 35.347656 -60.574219 35.367188 -60.488281 35.402344 -60.382812 C 35.480469 -60.144531 35.617188 -59.933594 35.804688 -59.742188 C 35.996094 -59.550781 36.210938 -59.417969 36.445312 -59.339844 C 36.554688 -59.304688 36.636719 -59.285156 36.703125 -59.285156 Z M 36.703125 -64.828125 C 37.941406 -64.828125 38.945312 -64.4375 39.726562 -63.660156 C 40.503906 -62.882812 40.890625 -61.875 40.890625 -60.636719 L 40.890625 -51.773438 C 40.890625 -50.535156 40.503906 -49.527344 39.726562 -48.75 C 38.945312 -47.972656 37.941406 -47.582031 36.703125 -47.582031 L 26.417969 -47.582031 L 26.417969 -50.355469 L 29.1875 -50.355469 L 29.1875 -1.417969 C 29.1875 -0.179688 28.800781 0.828125 28.023438 1.605469 C 27.246094 2.382812 26.238281 2.769531 25 2.769531 L 15.78125 2.769531 C 14.542969 2.769531 13.535156 2.382812 12.757812 1.605469 C 11.980469 0.828125 11.589844 -0.179688 11.589844 -1.417969 L 11.589844 -50.355469 L 14.363281 -50.355469 L 14.363281 -47.582031 L 4.078125 -47.582031 C 2.839844 -47.582031 1.832031 -47.972656 1.054688 -48.75 C 0.277344 -49.527344 -0.109375 -50.535156 -0.109375 -51.773438 L -0.109375 -60.636719 C -0.109375 -61.875 0.277344 -62.882812 1.054688 -63.660156 C 1.832031 -64.4375 2.839844 -64.828125 4.078125 -64.828125 Z M 36.703125 -64.828125 "/></g></g><g style="fill:#b21a22;fill-opacity:1;"><g transform="translate(231.193306, 160.533719)"><path style="stroke:none" d="M 29.964844 -64.828125 L 38.121094 -64.828125 C 39.359375 -64.828125 40.425781 -64.378906 41.320312 -63.484375 C 42.214844 -62.585938 42.664062 -61.519531 42.664062 -60.28125 L 42.664062 -12.765625 C 42.664062 -7.871094 41.320312 -4.0625 38.628906 -1.335938 C 35.929688 1.402344 32.097656 2.769531 27.128906 2.769531 L 17.199219 2.769531 C 12.296875 2.769531 8.480469 1.40625 5.753906 -1.320312 C 3.027344 -4.046875 1.660156 -7.863281 1.660156 -12.765625 L 1.660156 -60.28125 C 1.660156 -61.519531 2.109375 -62.585938 3.003906 -63.484375 C 3.902344 -64.378906 4.96875 -64.828125 6.207031 -64.828125 L 14.714844 -64.828125 C 15.953125 -64.828125 17.019531 -64.378906 17.917969 -63.484375 C 18.8125 -62.585938 19.257812 -61.519531 19.257812 -60.28125 L 19.257812 -15.25 C 19.257812 -14.957031 19.285156 -14.730469 19.339844 -14.574219 C 19.347656 -14.542969 19.355469 -14.523438 19.363281 -14.511719 C 19.355469 -14.523438 19.347656 -14.535156 19.335938 -14.546875 C 19.320312 -14.5625 19.308594 -14.570312 19.300781 -14.578125 C 19.3125 -14.570312 19.332031 -14.5625 19.359375 -14.550781 C 19.519531 -14.5 19.742188 -14.472656 20.035156 -14.472656 L 24.644531 -14.472656 C 24.9375 -14.472656 25.160156 -14.5 25.320312 -14.550781 C 25.351562 -14.5625 25.371094 -14.570312 25.378906 -14.578125 C 25.371094 -14.570312 25.359375 -14.5625 25.34375 -14.546875 C 25.332031 -14.535156 25.324219 -14.523438 25.316406 -14.511719 C 25.324219 -14.523438 25.332031 -14.542969 25.339844 -14.574219 C 25.394531 -14.730469 25.421875 -14.957031 25.421875 -15.25 L 25.421875 -60.28125 C 25.421875 -61.519531 25.867188 -62.585938 26.765625 -63.484375 C 27.660156 -64.378906 28.726562 -64.828125 29.964844 -64.828125 Z M 29.964844 -59.285156 C 30.257812 -59.285156 30.496094 -59.378906 30.683594 -59.566406 C 30.867188 -59.75 30.960938 -59.992188 30.960938 -60.28125 L 30.960938 -15.25 C 30.960938 -13.300781 30.394531 -11.761719 29.265625 -10.628906 C 28.132812 -9.496094 26.59375 -8.929688 24.644531 -8.929688 L 20.035156 -8.929688 C 18.089844 -8.929688 16.546875 -9.496094 15.417969 -10.628906 C 14.285156 -11.761719 13.71875 -13.300781 13.71875 -15.25 L 13.71875 -60.28125 C 13.71875 -59.992188 13.8125 -59.75 14 -59.566406 C 14.183594 -59.378906 14.425781 -59.285156 14.714844 -59.285156 L 6.207031 -59.285156 C 6.496094 -59.285156 6.738281 -59.378906 6.921875 -59.566406 C 7.109375 -59.75 7.203125 -59.992188 7.203125 -60.28125 L 7.203125 -12.765625 C 7.203125 -9.394531 8.027344 -6.886719 9.671875 -5.238281 C 11.316406 -3.59375 13.828125 -2.769531 17.199219 -2.769531 L 27.128906 -2.769531 C 30.550781 -2.769531 33.070312 -3.589844 34.683594 -5.226562 C 36.308594 -6.875 37.121094 -9.386719 37.121094 -12.765625 L 37.121094 -60.28125 C 37.121094 -59.992188 37.214844 -59.75 37.402344 -59.566406 C 37.589844 -59.378906 37.828125 -59.285156 38.121094 -59.285156 Z M 29.964844 -59.285156 "/></g></g><g style="fill:#b21a22;fill-opacity:1;"><g transform="translate(275.505056, 160.533719)"><path style="stroke:none" d="M 17.199219 -64.828125 L 27.128906 -64.828125 C 32.089844 -64.828125 35.917969 -63.476562 38.617188 -60.78125 C 41.316406 -58.082031 42.664062 -54.25 42.664062 -49.289062 L 42.664062 -43.4375 C 42.664062 -42.203125 42.273438 -41.195312 41.496094 -40.417969 C 40.71875 -39.640625 39.710938 -39.25 38.476562 -39.25 L 29.519531 -39.25 C 28.28125 -39.25 27.277344 -39.640625 26.5 -40.417969 C 25.71875 -41.195312 25.332031 -42.203125 25.332031 -43.4375 L 25.332031 -47.164062 C 25.332031 -47.453125 25.304688 -47.679688 25.253906 -47.835938 C 25.242188 -47.867188 25.234375 -47.886719 25.226562 -47.898438 C 25.234375 -47.886719 25.242188 -47.875 25.257812 -47.863281 C 25.269531 -47.851562 25.28125 -47.839844 25.292969 -47.835938 C 25.28125 -47.839844 25.261719 -47.847656 25.230469 -47.859375 C 25.074219 -47.910156 24.847656 -47.9375 24.554688 -47.9375 L 19.679688 -47.9375 C 19.390625 -47.9375 19.164062 -47.910156 19.003906 -47.859375 C 18.976562 -47.847656 18.957031 -47.839844 18.945312 -47.835938 C 18.957031 -47.839844 18.96875 -47.851562 18.980469 -47.863281 C 18.992188 -47.875 19.003906 -47.886719 19.007812 -47.898438 C 19.003906 -47.886719 18.996094 -47.867188 18.984375 -47.835938 C 18.929688 -47.679688 18.90625 -47.453125 18.90625 -47.164062 L 18.90625 -39.628906 L 16.132812 -39.628906 L 16.984375 -42.265625 L 38.4375 -35.347656 C 39.808594 -34.875 40.855469 -34.121094 41.582031 -33.085938 C 42.304688 -32.0625 42.664062 -30.84375 42.664062 -29.433594 L 42.664062 -12.765625 C 42.664062 -7.871094 41.320312 -4.0625 38.628906 -1.335938 C 35.929688 1.402344 32.097656 2.769531 27.128906 2.769531 L 17.199219 2.769531 C 12.296875 2.769531 8.480469 1.40625 5.753906 -1.320312 C 3.027344 -4.046875 1.660156 -7.863281 1.660156 -12.765625 L 1.660156 -18.527344 C 1.660156 -19.765625 2.050781 -20.773438 2.828125 -21.550781 C 3.605469 -22.328125 4.613281 -22.71875 5.851562 -22.71875 L 14.804688 -22.71875 C 16.042969 -22.71875 17.050781 -22.328125 17.828125 -21.550781 C 18.605469 -20.773438 18.992188 -19.765625 18.992188 -18.527344 L 18.992188 -14.804688 C 18.992188 -14.511719 19.019531 -14.289062 19.074219 -14.128906 C 19.082031 -14.101562 19.089844 -14.082031 19.097656 -14.070312 C 19.089844 -14.078125 19.082031 -14.089844 19.070312 -14.105469 C 19.054688 -14.117188 19.042969 -14.128906 19.035156 -14.132812 C 19.042969 -14.125 19.066406 -14.117188 19.09375 -14.109375 C 19.253906 -14.054688 19.476562 -14.03125 19.769531 -14.03125 L 24.554688 -14.03125 C 24.847656 -14.03125 25.074219 -14.054688 25.230469 -14.109375 C 25.261719 -14.117188 25.28125 -14.125 25.292969 -14.132812 C 25.28125 -14.128906 25.269531 -14.117188 25.257812 -14.105469 C 25.242188 -14.089844 25.234375 -14.078125 25.226562 -14.070312 C 25.234375 -14.082031 25.242188 -14.101562 25.253906 -14.128906 C 25.304688 -14.289062 25.332031 -14.511719 25.332031 -14.804688 L 25.332031 -23.757812 L 28.101562 -23.757812 L 27.246094 -21.125 L 5.96875 -28.039062 C 4.597656 -28.496094 3.539062 -29.234375 2.792969 -30.257812 C 2.039062 -31.292969 1.660156 -32.523438 1.660156 -33.953125 L 1.660156 -49.289062 C 1.660156 -54.257812 3.03125 -58.09375 5.765625 -60.792969 C 8.492188 -63.480469 12.304688 -64.828125 17.199219 -64.828125 Z M 17.199219 -59.285156 C 13.820312 -59.285156 11.304688 -58.472656 9.660156 -56.847656 C 8.023438 -55.234375 7.203125 -52.714844 7.203125 -49.289062 L 7.203125 -33.953125 C 7.203125 -33.726562 7.226562 -33.585938 7.269531 -33.527344 C 7.320312 -33.457031 7.457031 -33.382812 7.683594 -33.308594 L 30.875 -25.769531 L 30.875 -14.804688 C 30.875 -12.859375 30.308594 -11.316406 29.175781 -10.1875 C 28.042969 -9.054688 26.503906 -8.488281 24.554688 -8.488281 L 19.769531 -8.488281 C 17.820312 -8.488281 16.28125 -9.054688 15.152344 -10.1875 C 14.019531 -11.316406 13.453125 -12.859375 13.453125 -14.804688 L 13.453125 -18.527344 C 13.453125 -18.464844 13.46875 -18.378906 13.507812 -18.273438 C 13.585938 -18.035156 13.71875 -17.824219 13.910156 -17.632812 C 14.101562 -17.441406 14.3125 -17.308594 14.550781 -17.230469 C 14.65625 -17.195312 14.742188 -17.175781 14.804688 -17.175781 L 5.851562 -17.175781 C 5.914062 -17.175781 6 -17.195312 6.105469 -17.230469 C 6.34375 -17.308594 6.554688 -17.441406 6.746094 -17.632812 C 6.9375 -17.824219 7.070312 -18.035156 7.148438 -18.273438 C 7.183594 -18.378906 7.203125 -18.464844 7.203125 -18.527344 L 7.203125 -12.765625 C 7.203125 -9.394531 8.027344 -6.886719 9.671875 -5.238281 C 11.316406 -3.59375 13.828125 -2.769531 17.199219 -2.769531 L 27.128906 -2.769531 C 30.550781 -2.769531 33.070312 -3.589844 34.683594 -5.226562 C 36.308594 -6.875 37.121094 -9.386719 37.121094 -12.765625 L 37.121094 -29.433594 C 37.121094 -29.675781 37.097656 -29.832031 37.050781 -29.902344 C 37.007812 -29.957031 36.90625 -30.015625 36.738281 -30.074219 L 13.363281 -37.609375 L 13.363281 -47.164062 C 13.363281 -49.109375 13.929688 -50.648438 15.0625 -51.78125 C 16.195312 -52.914062 17.734375 -53.480469 19.679688 -53.480469 L 24.554688 -53.480469 C 26.503906 -53.480469 28.042969 -52.914062 29.175781 -51.78125 C 30.308594 -50.648438 30.875 -49.109375 30.875 -47.164062 L 30.875 -43.4375 C 30.875 -43.503906 30.855469 -43.585938 30.820312 -43.695312 C 30.742188 -43.929688 30.605469 -44.144531 30.417969 -44.335938 C 30.226562 -44.523438 30.011719 -44.660156 29.777344 -44.738281 C 29.667969 -44.773438 29.585938 -44.792969 29.519531 -44.792969 L 38.476562 -44.792969 C 38.410156 -44.792969 38.328125 -44.773438 38.21875 -44.738281 C 37.984375 -44.660156 37.769531 -44.523438 37.578125 -44.335938 C 37.390625 -44.144531 37.253906 -43.929688 37.175781 -43.695312 C 37.140625 -43.585938 37.121094 -43.503906 37.121094 -43.4375 L 37.121094 -49.289062 C 37.121094 -52.722656 36.316406 -55.246094 34.699219 -56.859375 C 33.082031 -58.476562 30.558594 -59.285156 27.128906 -59.285156 Z M 17.199219 -59.285156 "/></g></g><g style="fill:#b21a22;fill-opacity:1;"><g transform="translate(91.299167, 284.128998)"><path style="stroke:none" d="M -2.769531 11.878906 L -2.769531 3.722656 C -2.769531 2.367188 -2.351562 1.269531 -1.515625 0.433594 C -0.679688 -0.402344 0.417969 -0.820312 1.773438 -0.820312 L 55.230469 -0.820312 C 56.585938 -0.820312 57.683594 -0.402344 58.519531 0.433594 C 59.355469 1.269531 59.773438 2.367188 59.773438 3.722656 L 59.773438 11.878906 C 59.773438 13.234375 59.355469 14.332031 58.519531 15.167969 C 57.683594 16.003906 56.585938 16.421875 55.230469 16.421875 L 1.773438 16.421875 C 0.417969 16.421875 -0.679688 16.003906 -1.515625 15.167969 C -2.351562 14.332031 -2.769531 13.234375 -2.769531 11.878906 Z M 2.769531 11.878906 C 2.769531 11.890625 2.769531 11.902344 2.769531 11.910156 C 2.769531 11.910156 2.769531 11.90625 2.769531 11.902344 C 2.765625 11.867188 2.753906 11.824219 2.738281 11.777344 C 2.675781 11.585938 2.5625 11.410156 2.402344 11.25 C 2.242188 11.089844 2.066406 10.976562 1.875 10.914062 C 1.828125 10.898438 1.785156 10.886719 1.75 10.882812 C 1.746094 10.882812 1.742188 10.882812 1.742188 10.882812 C 1.75 10.882812 1.761719 10.882812 1.773438 10.882812 L 55.230469 10.882812 C 55.242188 10.882812 55.253906 10.882812 55.261719 10.882812 C 55.261719 10.882812 55.257812 10.882812 55.253906 10.882812 C 55.21875 10.886719 55.175781 10.898438 55.128906 10.914062 C 54.9375 10.976562 54.761719 11.089844 54.601562 11.25 C 54.441406 11.410156 54.328125 11.585938 54.265625 11.777344 C 54.246094 11.824219 54.238281 11.867188 54.234375 11.902344 C 54.230469 11.90625 54.230469 11.910156 54.230469 11.910156 C 54.230469 11.902344 54.230469 11.890625 54.230469 11.878906 L 54.230469 3.722656 C 54.230469 3.710938 54.230469 3.699219 54.230469 3.691406 C 54.230469 3.691406 54.230469 3.695312 54.234375 3.699219 C 54.238281 3.734375 54.246094 3.777344 54.265625 3.824219 C 54.328125 4.015625 54.441406 4.191406 54.601562 4.351562 C 54.761719 4.511719 54.9375 4.625 55.128906 4.691406 C 55.175781 4.707031 55.21875 4.714844 55.253906 4.722656 C 55.257812 4.722656 55.261719 4.722656 55.261719 4.722656 C 55.253906 4.722656 55.242188 4.722656 55.230469 4.722656 L 1.773438 4.722656 C 1.761719 4.722656 1.75 4.722656 1.742188 4.722656 C 1.742188 4.722656 1.746094 4.722656 1.75 4.722656 C 1.785156 4.714844 1.828125 4.707031 1.875 4.691406 C 2.066406 4.625 2.242188 4.511719 2.402344 4.351562 C 2.5625 4.191406 2.675781 4.015625 2.738281 3.824219 C 2.753906 3.777344 2.765625 3.734375 2.769531 3.699219 C 2.769531 3.695312 2.769531 3.691406 2.769531 3.691406 C 2.769531 3.699219 2.769531 3.710938 2.769531 3.722656 Z M 2.769531 11.878906 "/></g></g><g style="fill:#b21a22;fill-opacity:1;"><g transform="translate(148.28409, 284.128998)"><path style="stroke:none" d="M 36.703125 -59.285156 L 4.078125 -59.285156 C 4.140625 -59.285156 4.226562 -59.304688 4.332031 -59.339844 C 4.570312 -59.417969 4.78125 -59.550781 4.972656 -59.742188 C 5.164062 -59.933594 5.296875 -60.144531 5.375 -60.382812 C 5.414062 -60.488281 5.429688 -60.574219 5.429688 -60.636719 L 5.429688 -51.773438 C 5.429688 -51.835938 5.414062 -51.921875 5.375 -52.027344 C 5.296875 -52.265625 5.164062 -52.476562 4.972656 -52.667969 C 4.78125 -52.859375 4.570312 -52.992188 4.332031 -53.070312 C 4.226562 -53.105469 4.140625 -53.125 4.078125 -53.125 L 17.132812 -53.125 L 17.132812 -1.417969 C 17.132812 -1.480469 17.113281 -1.566406 17.078125 -1.675781 C 17 -1.910156 16.867188 -2.125 16.675781 -2.3125 C 16.484375 -2.503906 16.273438 -2.636719 16.035156 -2.71875 C 15.929688 -2.753906 15.84375 -2.769531 15.78125 -2.769531 L 25 -2.769531 C 24.9375 -2.769531 24.851562 -2.753906 24.746094 -2.71875 C 24.507812 -2.636719 24.292969 -2.503906 24.105469 -2.3125 C 23.914062 -2.125 23.78125 -1.910156 23.699219 -1.675781 C 23.664062 -1.566406 23.648438 -1.480469 23.648438 -1.417969 L 23.648438 -53.125 L 36.703125 -53.125 C 36.636719 -53.125 36.554688 -53.105469 36.445312 -53.070312 C 36.210938 -52.992188 35.996094 -52.859375 35.804688 -52.667969 C 35.617188 -52.476562 35.480469 -52.265625 35.402344 -52.027344 C 35.367188 -51.921875 35.347656 -51.835938 35.347656 -51.773438 L 35.347656 -60.636719 C 35.347656 -60.574219 35.367188 -60.488281 35.402344 -60.382812 C 35.480469 -60.144531 35.617188 -59.933594 35.804688 -59.742188 C 35.996094 -59.550781 36.210938 -59.417969 36.445312 -59.339844 C 36.554688 -59.304688 36.636719 -59.285156 36.703125 -59.285156 Z M 36.703125 -64.828125 C 37.941406 -64.828125 38.945312 -64.4375 39.726562 -63.660156 C 40.503906 -62.882812 40.890625 -61.875 40.890625 -60.636719 L 40.890625 -51.773438 C 40.890625 -50.535156 40.503906 -49.527344 39.726562 -48.75 C 38.945312 -47.972656 37.941406 -47.582031 36.703125 -47.582031 L 26.417969 -47.582031 L 26.417969 -50.355469 L 29.1875 -50.355469 L 29.1875 -1.417969 C 29.1875 -0.179688 28.800781 0.828125 28.023438 1.605469 C 27.246094 2.382812 26.238281 2.769531 25 2.769531 L 15.78125 2.769531 C 14.542969 2.769531 13.535156 2.382812 12.757812 1.605469 C 11.980469 0.828125 11.589844 -0.179688 11.589844 -1.417969 L 11.589844 -50.355469 L 14.363281 -50.355469 L 14.363281 -47.582031 L 4.078125 -47.582031 C 2.839844 -47.582031 1.832031 -47.972656 1.054688 -48.75 C 0.277344 -49.527344 -0.109375 -50.535156 -0.109375 -51.773438 L -0.109375 -60.636719 C -0.109375 -61.875 0.277344 -62.882812 1.054688 -63.660156 C 1.832031 -64.4375 2.839844 -64.828125 4.078125 -64.828125 Z M 36.703125 -64.828125 "/></g></g><g style="fill:#b21a22;fill-opacity:1;"><g transform="translate(189.050905, 284.128998)"><path style="stroke:none" d="M 46.277344 2.769531 L 37.675781 2.769531 C 36.597656 2.769531 35.679688 2.4375 34.921875 1.773438 C 34.222656 1.164062 33.765625 0.351562 33.550781 -0.660156 L 36.257812 -1.242188 L 33.574219 -0.558594 L 30.734375 -11.730469 L 33.421875 -12.410156 L 33.421875 -9.640625 L 16.753906 -9.640625 L 16.753906 -12.410156 L 19.445312 -11.75 L 16.699219 -0.578125 L 14.007812 -1.242188 L 16.714844 -0.660156 C 16.5 0.351562 16.042969 1.164062 15.34375 1.773438 C 14.585938 2.4375 13.667969 2.769531 12.589844 2.769531 L 3.902344 2.769531 C 2.457031 2.769531 1.359375 2.28125 0.613281 1.304688 C -0.148438 0.3125 -0.320312 -0.886719 0.0898438 -2.289062 L 2.75 -1.507812 L 0.0585938 -2.175781 L 14.773438 -61.480469 L 17.464844 -60.816406 L 14.753906 -61.394531 C 14.980469 -62.4375 15.464844 -63.269531 16.210938 -63.882812 C 16.976562 -64.511719 17.894531 -64.828125 18.972656 -64.828125 L 31.292969 -64.828125 C 32.371094 -64.828125 33.289062 -64.511719 34.050781 -63.882812 C 34.800781 -63.269531 35.285156 -62.4375 35.511719 -61.394531 L 32.800781 -60.816406 L 35.488281 -61.480469 L 50.207031 -2.175781 L 47.515625 -1.507812 L 50.175781 -2.289062 C 50.597656 -0.847656 50.398438 0.378906 49.566406 1.382812 C 48.804688 2.308594 47.710938 2.769531 46.277344 2.769531 Z M 46.277344 -2.769531 C 46.289062 -2.769531 46.300781 -2.769531 46.308594 -2.769531 C 46.308594 -2.769531 46.304688 -2.769531 46.300781 -2.769531 C 46.25 -2.761719 46.191406 -2.75 46.125 -2.726562 C 45.804688 -2.625 45.527344 -2.425781 45.289062 -2.136719 C 45.023438 -1.8125 44.875 -1.457031 44.84375 -1.0625 C 44.832031 -0.914062 44.835938 -0.800781 44.859375 -0.726562 L 44.84375 -0.78125 L 30.101562 -60.191406 L 30.09375 -60.234375 C 30.136719 -60.019531 30.285156 -59.808594 30.53125 -59.605469 C 30.789062 -59.394531 31.046875 -59.285156 31.292969 -59.285156 L 18.972656 -59.285156 C 19.21875 -59.285156 19.476562 -59.394531 19.734375 -59.605469 C 19.980469 -59.808594 20.128906 -60.019531 20.171875 -60.234375 L 20.164062 -60.191406 L 5.421875 -0.78125 L 5.40625 -0.726562 C 5.421875 -0.78125 5.425781 -0.878906 5.417969 -1.011719 C 5.398438 -1.386719 5.261719 -1.734375 5.015625 -2.058594 C 4.773438 -2.375 4.480469 -2.59375 4.136719 -2.710938 C 4.023438 -2.75 3.945312 -2.769531 3.902344 -2.769531 L 12.589844 -2.769531 C 12.277344 -2.769531 11.980469 -2.644531 11.695312 -2.394531 C 11.46875 -2.199219 11.335938 -2.007812 11.296875 -1.820312 L 11.304688 -1.863281 L 14.582031 -15.183594 L 35.578125 -15.183594 L 38.957031 -1.871094 L 38.96875 -1.820312 C 38.929688 -2.007812 38.796875 -2.199219 38.570312 -2.394531 C 38.285156 -2.644531 37.988281 -2.769531 37.675781 -2.769531 Z M 27.972656 -22.070312 L 22.390625 -46.183594 L 25.089844 -46.808594 L 27.789062 -46.183594 L 22.203125 -22.070312 L 19.503906 -22.695312 L 19.503906 -25.464844 L 30.671875 -25.464844 L 30.671875 -22.695312 Z M 34.160156 -19.925781 L 16.019531 -19.925781 L 22.390625 -47.433594 L 27.789062 -47.433594 L 33.371094 -23.320312 Z M 34.160156 -19.925781 "/></g></g><g style="fill:#b21a22;fill-opacity:1;"><g transform="translate(239.300439, 284.128998)"><path style="stroke:none" d="M 1.660156 -12.765625 L 1.660156 -49.289062 C 1.660156 -54.257812 3.03125 -58.09375 5.765625 -60.792969 C 8.492188 -63.480469 12.304688 -64.828125 17.199219 -64.828125 L 27.128906 -64.828125 C 32.023438 -64.828125 35.832031 -63.480469 38.558594 -60.792969 C 41.296875 -58.09375 42.664062 -54.257812 42.664062 -49.289062 L 42.664062 -42.730469 C 42.664062 -41.492188 42.273438 -40.484375 41.496094 -39.707031 C 40.71875 -38.929688 39.710938 -38.542969 38.476562 -38.542969 L 30.140625 -38.542969 C 28.902344 -38.542969 27.894531 -38.929688 27.117188 -39.707031 C 26.339844 -40.484375 25.953125 -41.492188 25.953125 -42.730469 L 25.953125 -47.074219 C 25.953125 -47.367188 25.925781 -47.589844 25.875 -47.75 C 25.863281 -47.777344 25.855469 -47.796875 25.847656 -47.808594 C 25.855469 -47.800781 25.863281 -47.789062 25.878906 -47.773438 C 25.890625 -47.761719 25.902344 -47.75 25.914062 -47.746094 C 25.902344 -47.753906 25.882812 -47.761719 25.851562 -47.769531 C 25.695312 -47.824219 25.46875 -47.847656 25.175781 -47.847656 L 19.503906 -47.847656 C 19.210938 -47.847656 18.988281 -47.824219 18.828125 -47.769531 C 18.796875 -47.761719 18.777344 -47.753906 18.769531 -47.746094 C 18.777344 -47.75 18.789062 -47.761719 18.804688 -47.773438 C 18.816406 -47.789062 18.824219 -47.800781 18.832031 -47.808594 C 18.824219 -47.796875 18.816406 -47.777344 18.808594 -47.75 C 18.753906 -47.589844 18.726562 -47.367188 18.726562 -47.074219 L 18.726562 -14.980469 C 18.726562 -14.691406 18.753906 -14.464844 18.808594 -14.308594 C 18.816406 -14.277344 18.824219 -14.257812 18.832031 -14.246094 C 18.824219 -14.257812 18.816406 -14.269531 18.804688 -14.28125 C 18.789062 -14.292969 18.777344 -14.304688 18.769531 -14.308594 C 18.777344 -14.304688 18.796875 -14.296875 18.828125 -14.285156 C 18.988281 -14.234375 19.210938 -14.207031 19.503906 -14.207031 L 25.175781 -14.207031 C 25.46875 -14.207031 25.695312 -14.234375 25.851562 -14.285156 C 25.882812 -14.296875 25.902344 -14.304688 25.914062 -14.308594 C 25.902344 -14.304688 25.890625 -14.292969 25.878906 -14.28125 C 25.863281 -14.269531 25.855469 -14.257812 25.847656 -14.246094 C 25.855469 -14.257812 25.863281 -14.277344 25.875 -14.308594 C 25.925781 -14.464844 25.953125 -14.691406 25.953125 -14.980469 L 25.953125 -22.695312 L 28.722656 -22.695312 L 28.722656 -19.925781 L 24.113281 -19.925781 C 22.875 -19.925781 21.867188 -20.3125 21.089844 -21.089844 C 20.3125 -21.867188 19.925781 -22.875 19.925781 -24.113281 L 19.925781 -32.976562 C 19.925781 -34.214844 20.3125 -35.222656 21.089844 -36 C 21.867188 -36.777344 22.875 -37.167969 24.113281 -37.167969 L 38.476562 -37.167969 C 39.710938 -37.167969 40.71875 -36.777344 41.496094 -36 C 42.273438 -35.222656 42.664062 -34.214844 42.664062 -32.976562 L 42.664062 -12.765625 C 42.664062 -7.863281 41.300781 -4.046875 38.570312 -1.320312 C 35.84375 1.40625 32.03125 2.769531 27.128906 2.769531 L 17.199219 2.769531 C 12.296875 2.769531 8.480469 1.40625 5.753906 -1.320312 C 3.027344 -4.046875 1.660156 -7.863281 1.660156 -12.765625 Z M 7.203125 -12.765625 C 7.203125 -9.394531 8.027344 -6.886719 9.671875 -5.238281 C 11.316406 -3.59375 13.828125 -2.769531 17.199219 -2.769531 L 27.128906 -2.769531 C 30.5 -2.769531 33.007812 -3.59375 34.652344 -5.238281 C 36.300781 -6.886719 37.121094 -9.394531 37.121094 -12.765625 L 37.121094 -32.976562 C 37.121094 -32.914062 37.140625 -32.828125 37.175781 -32.722656 C 37.253906 -32.488281 37.390625 -32.273438 37.578125 -32.082031 C 37.769531 -31.894531 37.984375 -31.757812 38.21875 -31.679688 C 38.328125 -31.644531 38.410156 -31.625 38.476562 -31.625 L 24.113281 -31.625 C 24.175781 -31.625 24.261719 -31.644531 24.367188 -31.679688 C 24.605469 -31.757812 24.820312 -31.894531 25.007812 -32.082031 C 25.199219 -32.273438 25.332031 -32.488281 25.410156 -32.722656 C 25.449219 -32.828125 25.464844 -32.914062 25.464844 -32.976562 L 25.464844 -24.113281 C 25.464844 -24.175781 25.449219 -24.261719 25.410156 -24.367188 C 25.332031 -24.605469 25.199219 -24.820312 25.007812 -25.007812 C 24.820312 -25.199219 24.605469 -25.332031 24.367188 -25.410156 C 24.261719 -25.449219 24.175781 -25.464844 24.113281 -25.464844 L 31.492188 -25.464844 L 31.492188 -14.980469 C 31.492188 -13.035156 30.925781 -11.496094 29.796875 -10.363281 C 28.664062 -9.230469 27.125 -8.664062 25.175781 -8.664062 L 19.503906 -8.664062 C 17.554688 -8.664062 16.015625 -9.230469 14.882812 -10.363281 C 13.753906 -11.496094 13.1875 -13.035156 13.1875 -14.980469 L 13.1875 -47.074219 C 13.1875 -49.019531 13.753906 -50.5625 14.882812 -51.691406 C 16.015625 -52.824219 17.554688 -53.390625 19.503906 -53.390625 L 25.175781 -53.390625 C 27.125 -53.390625 28.664062 -52.824219 29.796875 -51.691406 C 30.925781 -50.5625 31.492188 -49.019531 31.492188 -47.074219 L 31.492188 -42.730469 C 31.492188 -42.792969 31.476562 -42.878906 31.441406 -42.984375 C 31.363281 -43.222656 31.226562 -43.433594 31.035156 -43.625 C 30.847656 -43.816406 30.632812 -43.949219 30.398438 -44.027344 C 30.289062 -44.0625 30.203125 -44.082031 30.140625 -44.082031 L 38.476562 -44.082031 C 38.410156 -44.082031 38.328125 -44.0625 38.21875 -44.027344 C 37.984375 -43.949219 37.769531 -43.816406 37.578125 -43.625 C 37.390625 -43.433594 37.253906 -43.222656 37.175781 -42.984375 C 37.140625 -42.878906 37.121094 -42.792969 37.121094 -42.730469 L 37.121094 -49.289062 C 37.121094 -52.714844 36.304688 -55.234375 34.667969 -56.847656 C 33.019531 -58.472656 30.507812 -59.285156 27.128906 -59.285156 L 17.199219 -59.285156 C 13.820312 -59.285156 11.304688 -58.472656 9.660156 -56.847656 C 8.023438 -55.234375 7.203125 -52.714844 7.203125 -49.289062 Z M 7.203125 -12.765625 "/></g></g><g style="fill:#060705;fill-opacity:1;"><g transform="translate(55.098391, 160.533719)"><path style="stroke:none" d="M 17.203125 -62.0625 L 27.125 -62.0625 C 31.320312 -62.0625 34.5 -60.984375 36.65625 -58.828125 C 38.8125 -56.671875 39.890625 -53.492188 39.890625 -49.296875 L 39.890625 -43.4375 C 39.890625 -42.488281 39.421875 -42.015625 38.484375 -42.015625 L 29.515625 -42.015625 C 28.578125 -42.015625 28.109375 -42.488281 28.109375 -43.4375 L 28.109375 -47.171875 C 28.109375 -49.535156 26.925781 -50.71875 24.5625 -50.71875 L 19.6875 -50.71875 C 17.320312 -50.71875 16.140625 -49.535156 16.140625 -47.171875 L 16.140625 -39.625 L 37.59375 -32.71875 C 39.125 -32.1875 39.890625 -31.09375 39.890625 -29.4375 L 39.890625 -12.765625 C 39.890625 -8.628906 38.8125 -5.46875 36.65625 -3.28125 C 34.5 -1.09375 31.320312 0 27.125 0 L 17.203125 0 C 13.066406 0 9.90625 -1.09375 7.71875 -3.28125 C 5.53125 -5.46875 4.4375 -8.628906 4.4375 -12.765625 L 4.4375 -18.53125 C 4.4375 -19.476562 4.90625 -19.953125 5.84375 -19.953125 L 14.8125 -19.953125 C 15.75 -19.953125 16.21875 -19.476562 16.21875 -18.53125 L 16.21875 -14.8125 C 16.21875 -12.445312 17.398438 -11.265625 19.765625 -11.265625 L 24.5625 -11.265625 C 26.925781 -11.265625 28.109375 -12.445312 28.109375 -14.8125 L 28.109375 -23.765625 L 6.828125 -30.671875 C 5.234375 -31.203125 4.4375 -32.296875 4.4375 -33.953125 L 4.4375 -49.296875 C 4.4375 -53.492188 5.53125 -56.671875 7.71875 -58.828125 C 9.90625 -60.984375 13.066406 -62.0625 17.203125 -62.0625 Z M 17.203125 -62.0625 "/></g></g><g style="fill:#060705;fill-opacity:1;"><g transform="translate(99.410141, 160.533719)"><path style="stroke:none" d="M 36.703125 -62.0625 L 4.078125 -62.0625 C 3.128906 -62.0625 2.65625 -61.585938 2.65625 -60.640625 L 2.65625 -51.78125 C 2.65625 -50.832031 3.128906 -50.359375 4.078125 -50.359375 L 14.359375 -50.359375 L 14.359375 -1.421875 C 14.359375 -0.472656 14.832031 0 15.78125 0 L 25 0 C 25.945312 0 26.421875 -0.472656 26.421875 -1.421875 L 26.421875 -50.359375 L 36.703125 -50.359375 C 37.648438 -50.359375 38.125 -50.832031 38.125 -51.78125 L 38.125 -60.640625 C 38.125 -61.585938 37.648438 -62.0625 36.703125 -62.0625 Z M 36.703125 -62.0625 "/></g></g><g style="fill:#060705;fill-opacity:1;"><g transform="translate(140.176956, 160.533719)"><path style="stroke:none" d="M 46.28125 0 L 37.671875 0 C 36.910156 0 36.441406 -0.410156 36.265625 -1.234375 L 33.421875 -12.40625 L 16.75 -12.40625 L 14 -1.234375 C 13.820312 -0.410156 13.351562 0 12.59375 0 L 3.90625 0 C 2.84375 0 2.457031 -0.5 2.75 -1.5 L 17.46875 -60.8125 C 17.644531 -61.644531 18.144531 -62.0625 18.96875 -62.0625 L 31.296875 -62.0625 C 32.117188 -62.0625 32.617188 -61.644531 32.796875 -60.8125 L 47.515625 -1.5 C 47.816406 -0.5 47.40625 0 46.28125 0 Z M 30.671875 -22.703125 L 25.09375 -46.8125 L 19.5 -22.703125 Z M 30.671875 -22.703125 "/></g></g><g style="fill:#060705;fill-opacity:1;"><g transform="translate(190.426491, 160.533719)"><path style="stroke:none" d="M 36.703125 -62.0625 L 4.078125 -62.0625 C 3.128906 -62.0625 2.65625 -61.585938 2.65625 -60.640625 L 2.65625 -51.78125 C 2.65625 -50.832031 3.128906 -50.359375 4.078125 -50.359375 L 14.359375 -50.359375 L 14.359375 -1.421875 C 14.359375 -0.472656 14.832031 0 15.78125 0 L 25 0 C 25.945312 0 26.421875 -0.472656 26.421875 -1.421875 L 26.421875 -50.359375 L 36.703125 -50.359375 C 37.648438 -50.359375 38.125 -50.832031 38.125 -51.78125 L 38.125 -60.640625 C 38.125 -61.585938 37.648438 -62.0625 36.703125 -62.0625 Z M 36.703125 -62.0625 "/></g></g><g style="fill:#060705;fill-opacity:1;"><g transform="translate(231.193306, 160.533719)"><path style="stroke:none" d="M 29.96875 -62.0625 L 38.125 -62.0625 C 38.59375 -62.0625 39.003906 -61.882812 39.359375 -61.53125 C 39.710938 -61.175781 39.890625 -60.757812 39.890625 -60.28125 L 39.890625 -12.765625 C 39.890625 -8.628906 38.8125 -5.46875 36.65625 -3.28125 C 34.5 -1.09375 31.320312 0 27.125 0 L 17.203125 0 C 13.066406 0 9.90625 -1.09375 7.71875 -3.28125 C 5.53125 -5.46875 4.4375 -8.628906 4.4375 -12.765625 L 4.4375 -60.28125 C 4.4375 -60.757812 4.613281 -61.175781 4.96875 -61.53125 C 5.320312 -61.882812 5.734375 -62.0625 6.203125 -62.0625 L 14.71875 -62.0625 C 15.1875 -62.0625 15.597656 -61.882812 15.953125 -61.53125 C 16.304688 -61.175781 16.484375 -60.757812 16.484375 -60.28125 L 16.484375 -15.25 C 16.484375 -12.882812 17.664062 -11.703125 20.03125 -11.703125 L 24.640625 -11.703125 C 27.003906 -11.703125 28.1875 -12.882812 28.1875 -15.25 L 28.1875 -60.28125 C 28.1875 -60.757812 28.363281 -61.175781 28.71875 -61.53125 C 29.070312 -61.882812 29.488281 -62.0625 29.96875 -62.0625 Z M 29.96875 -62.0625 "/></g></g><g style="fill:#060705;fill-opacity:1;"><g transform="translate(275.505056, 160.533719)"><path style="stroke:none" d="M 17.203125 -62.0625 L 27.125 -62.0625 C 31.320312 -62.0625 34.5 -60.984375 36.65625 -58.828125 C 38.8125 -56.671875 39.890625 -53.492188 39.890625 -49.296875 L 39.890625 -43.4375 C 39.890625 -42.488281 39.421875 -42.015625 38.484375 -42.015625 L 29.515625 -42.015625 C 28.578125 -42.015625 28.109375 -42.488281 28.109375 -43.4375 L 28.109375 -47.171875 C 28.109375 -49.535156 26.925781 -50.71875 24.5625 -50.71875 L 19.6875 -50.71875 C 17.320312 -50.71875 16.140625 -49.535156 16.140625 -47.171875 L 16.140625 -39.625 L 37.59375 -32.71875 C 39.125 -32.1875 39.890625 -31.09375 39.890625 -29.4375 L 39.890625 -12.765625 C 39.890625 -8.628906 38.8125 -5.46875 36.65625 -3.28125 C 34.5 -1.09375 31.320312 0 27.125 0 L 17.203125 0 C 13.066406 0 9.90625 -1.09375 7.71875 -3.28125 C 5.53125 -5.46875 4.4375 -8.628906 4.4375 -12.765625 L 4.4375 -18.53125 C 4.4375 -19.476562 4.90625 -19.953125 5.84375 -19.953125 L 14.8125 -19.953125 C 15.75 -19.953125 16.21875 -19.476562 16.21875 -18.53125 L 16.21875 -14.8125 C 16.21875 -12.445312 17.398438 -11.265625 19.765625 -11.265625 L 24.5625 -11.265625 C 26.925781 -11.265625 28.109375 -12.445312 28.109375 -14.8125 L 28.109375 -23.765625 L 6.828125 -30.671875 C 5.234375 -31.203125 4.4375 -32.296875 4.4375 -33.953125 L 4.4375 -49.296875 C 4.4375 -53.492188 5.53125 -56.671875 7.71875 -58.828125 C 9.90625 -60.984375 13.066406 -62.0625 17.203125 -62.0625 Z M 17.203125 -62.0625 "/></g></g><g style="fill:#060705;fill-opacity:1;"><g transform="translate(91.299167, 284.128998)"><path style="stroke:none" d="M 0 11.875 L 0 3.71875 C 0 2.539062 0.585938 1.953125 1.765625 1.953125 L 55.234375 1.953125 C 56.410156 1.953125 57 2.539062 57 3.71875 L 57 11.875 C 57 13.0625 56.410156 13.65625 55.234375 13.65625 L 1.765625 13.65625 C 0.585938 13.65625 0 13.0625 0 11.875 Z M 0 11.875 "/></g></g><g style="fill:#060705;fill-opacity:1;"><g transform="translate(148.28409, 284.128998)"><path style="stroke:none" d="M 36.703125 -62.0625 L 4.078125 -62.0625 C 3.128906 -62.0625 2.65625 -61.585938 2.65625 -60.640625 L 2.65625 -51.78125 C 2.65625 -50.832031 3.128906 -50.359375 4.078125 -50.359375 L 14.359375 -50.359375 L 14.359375 -1.421875 C 14.359375 -0.472656 14.832031 0 15.78125 0 L 25 0 C 25.945312 0 26.421875 -0.472656 26.421875 -1.421875 L 26.421875 -50.359375 L 36.703125 -50.359375 C 37.648438 -50.359375 38.125 -50.832031 38.125 -51.78125 L 38.125 -60.640625 C 38.125 -61.585938 37.648438 -62.0625 36.703125 -62.0625 Z M 36.703125 -62.0625 "/></g></g><g style="fill:#060705;fill-opacity:1;"><g transform="translate(189.050905, 284.128998)"><path style="stroke:none" d="M 46.28125 0 L 37.671875 0 C 36.910156 0 36.441406 -0.410156 36.265625 -1.234375 L 33.421875 -12.40625 L 16.75 -12.40625 L 14 -1.234375 C 13.820312 -0.410156 13.351562 0 12.59375 0 L 3.90625 0 C 2.84375 0 2.457031 -0.5 2.75 -1.5 L 17.46875 -60.8125 C 17.644531 -61.644531 18.144531 -62.0625 18.96875 -62.0625 L 31.296875 -62.0625 C 32.117188 -62.0625 32.617188 -61.644531 32.796875 -60.8125 L 47.515625 -1.5 C 47.816406 -0.5 47.40625 0 46.28125 0 Z M 30.671875 -22.703125 L 25.09375 -46.8125 L 19.5 -22.703125 Z M 30.671875 -22.703125 "/></g></g><g style="fill:#060705;fill-opacity:1;"><g transform="translate(239.300439, 284.128998)"><path style="stroke:none" d="M 4.4375 -12.765625 L 4.4375 -49.296875 C 4.4375 -53.492188 5.53125 -56.671875 7.71875 -58.828125 C 9.90625 -60.984375 13.066406 -62.0625 17.203125 -62.0625 L 27.125 -62.0625 C 31.257812 -62.0625 34.421875 -60.984375 36.609375 -58.828125 C 38.796875 -56.671875 39.890625 -53.492188 39.890625 -49.296875 L 39.890625 -42.734375 C 39.890625 -41.785156 39.421875 -41.3125 38.484375 -41.3125 L 30.140625 -41.3125 C 29.191406 -41.3125 28.71875 -41.785156 28.71875 -42.734375 L 28.71875 -47.078125 C 28.71875 -49.441406 27.535156 -50.625 25.171875 -50.625 L 19.5 -50.625 C 17.132812 -50.625 15.953125 -49.441406 15.953125 -47.078125 L 15.953125 -14.984375 C 15.953125 -12.617188 17.132812 -11.4375 19.5 -11.4375 L 25.171875 -11.4375 C 27.535156 -11.4375 28.71875 -12.617188 28.71875 -14.984375 L 28.71875 -22.703125 L 24.109375 -22.703125 C 23.171875 -22.703125 22.703125 -23.171875 22.703125 -24.109375 L 22.703125 -32.984375 C 22.703125 -33.929688 23.171875 -34.40625 24.109375 -34.40625 L 38.484375 -34.40625 C 39.421875 -34.40625 39.890625 -33.929688 39.890625 -32.984375 L 39.890625 -12.765625 C 39.890625 -8.628906 38.796875 -5.46875 36.609375 -3.28125 C 34.421875 -1.09375 31.257812 0 27.125 0 L 17.203125 0 C 13.066406 0 9.90625 -1.09375 7.71875 -3.28125 C 5.53125 -5.46875 4.4375 -8.628906 4.4375 -12.765625 Z M 4.4375 -12.765625 "/></g></g></g></svg>