<svg xmlns="http://www.w3.org/2000/svg" xmlns:xlink="http://www.w3.org/1999/xlink" width="192" zoomAndPan="magnify" viewBox="0 0 144 143.999998" height="192" preserveAspectRatio="xMidYMid meet" version="1.2"><defs><clipPath id="744120a036"><path d="M 9 0 L 135 0 L 135 144 L 9 144 Z M 9 0 "/></clipPath><clipPath id="a5d0c7a8af"><path d="M -21.457031 54.867188 L 103.039062 -17.847656 L 165.503906 89.105469 L 41.007812 161.816406 Z M -21.457031 54.867188 "/></clipPath><clipPath id="e595585e8d"><path d="M 134.226562 35.65625 L 134.347656 107.300781 L 72.121094 143.644531 L 9.773438 108.34375 L 9.65625 36.695312 L 71.878906 0.351562 Z M 134.226562 35.65625 "/></clipPath><clipPath id="b9a072f2b3"><path d="M 21.210938 13.683594 L 122.773438 13.683594 L 122.773438 130.261719 L 21.210938 130.261719 Z M 21.210938 13.683594 "/></clipPath></defs><g id="931f7eadd2"><g clip-rule="nonzero" clip-path="url(#744120a036)"><g clip-rule="nonzero" clip-path="url(#a5d0c7a8af)"><g clip-rule="nonzero" clip-path="url(#e595585e8d)"><path style=" stroke:none;fill-rule:nonzero;fill:#65b30e;fill-opacity:1;" d="M -21.457031 54.867188 L 103.039062 -17.847656 L 165.503906 89.105469 L 41.007812 161.816406 Z M -21.457031 54.867188 "/></g></g></g><path style=" stroke:none;fill-rule:nonzero;fill:#87ff00;fill-opacity:1;" d="M 51.679688 52.109375 L 51.613281 52.046875 L 37.261719 66.398438 L 72.113281 101.183594 L 86.46875 86.898438 L 106.960938 66.398438 L 92.609375 52.046875 L 92.609375 51.980469 L 51.617188 51.980469 Z M 51.679688 52.109375 "/><g clip-rule="nonzero" clip-path="url(#b9a072f2b3)"><path style=" stroke:none;fill-rule:nonzero;fill:#87ff00;fill-opacity:1;" d="M 71.980469 13.765625 L 21.222656 42.863281 L 21.226562 101.058594 L 71.984375 130.15625 L 122.742188 101.058594 L 122.742188 42.863281 L 71.984375 13.769531 Z M 113.039062 95.496094 L 71.980469 119.160156 L 30.921875 95.496094 L 30.925781 48.292969 L 71.984375 24.628906 L 113.042969 48.292969 L 113.042969 95.492188 Z M 113.039062 95.496094 "/></g><g style="fill:#b21a22;fill-opacity:1;"><g transform="translate(20.79224, 62.085301)"><path style="stroke:none" d="M 0.609375 -0.523438 L 0.609375 -22.292969 C 0.609375 -22.75 0.753906 -23.121094 1.039062 -23.40625 C 1.324219 -23.691406 1.695312 -23.835938 2.152344 -23.835938 L 9.972656 -23.835938 C 11.800781 -23.835938 13.210938 -23.332031 14.203125 -22.324219 C 15.191406 -21.324219 15.6875 -19.910156 15.6875 -18.089844 L 15.6875 -4.695312 C 15.6875 -2.894531 15.191406 -1.492188 14.203125 -0.492188 C 13.210938 0.515625 11.800781 1.019531 9.972656 1.019531 L 2.152344 1.019531 C 1.695312 1.019531 1.324219 0.875 1.039062 0.589844 C 0.753906 0.304688 0.609375 -0.0664062 0.609375 -0.523438 Z M 2.648438 -0.523438 C 2.648438 -0.542969 2.640625 -0.574219 2.628906 -0.617188 C 2.601562 -0.703125 2.550781 -0.78125 2.480469 -0.851562 C 2.410156 -0.921875 2.332031 -0.96875 2.246094 -1 C 2.207031 -1.011719 2.175781 -1.019531 2.152344 -1.019531 L 9.972656 -1.019531 C 11.234375 -1.019531 12.160156 -1.320312 12.753906 -1.921875 C 13.351562 -2.527344 13.648438 -3.449219 13.648438 -4.695312 L 13.648438 -18.089844 C 13.648438 -19.355469 13.351562 -20.289062 12.753906 -20.894531 C 12.160156 -21.496094 11.234375 -21.796875 9.972656 -21.796875 L 2.152344 -21.796875 C 2.175781 -21.796875 2.207031 -21.804688 2.246094 -21.816406 C 2.332031 -21.847656 2.410156 -21.894531 2.480469 -21.964844 C 2.550781 -22.035156 2.601562 -22.113281 2.628906 -22.199219 C 2.640625 -22.238281 2.648438 -22.269531 2.648438 -22.292969 Z M 6.0625 -5.320312 L 9.0625 -5.320312 C 9.167969 -5.320312 9.25 -5.332031 9.308594 -5.351562 C 9.320312 -5.355469 9.328125 -5.355469 9.332031 -5.359375 C 9.328125 -5.355469 9.324219 -5.355469 9.320312 -5.347656 C 9.3125 -5.34375 9.308594 -5.339844 9.308594 -5.335938 C 9.3125 -5.339844 9.3125 -5.347656 9.316406 -5.359375 C 9.335938 -5.417969 9.347656 -5.5 9.347656 -5.605469 L 9.347656 -17.175781 C 9.347656 -17.292969 9.335938 -17.382812 9.316406 -17.445312 C 9.308594 -17.460938 9.304688 -17.472656 9.300781 -17.476562 C 9.304688 -17.476562 9.304688 -17.472656 9.308594 -17.46875 L 9.300781 -17.464844 C 9.246094 -17.484375 9.164062 -17.496094 9.0625 -17.496094 L 6.0625 -17.496094 L 6.0625 -18.515625 L 7.082031 -18.515625 L 7.082031 -4.300781 L 6.0625 -4.300781 Z M 5.042969 -3.285156 L 5.042969 -19.53125 L 9.0625 -19.53125 C 9.78125 -19.53125 10.351562 -19.320312 10.769531 -18.890625 C 11.179688 -18.46875 11.382812 -17.898438 11.382812 -17.175781 L 11.382812 -5.605469 C 11.382812 -4.890625 11.175781 -4.324219 10.757812 -3.90625 C 10.34375 -3.492188 9.777344 -3.285156 9.0625 -3.285156 Z M 5.042969 -3.285156 "/></g></g><g style="fill:#b21a22;fill-opacity:1;"><g transform="translate(37.084376, 62.085301)"><path style="stroke:none" d="M 15.652344 -22.292969 L 15.652344 -19.035156 C 15.652344 -18.582031 15.519531 -18.210938 15.246094 -17.921875 C 14.957031 -17.617188 14.582031 -17.460938 14.113281 -17.460938 L 6.0625 -17.460938 L 6.0625 -18.480469 L 7.082031 -18.480469 L 7.082031 -13.460938 L 6.0625 -13.460938 L 6.0625 -14.480469 L 12.191406 -14.480469 C 12.65625 -14.480469 13.035156 -14.328125 13.324219 -14.019531 C 13.59375 -13.734375 13.730469 -13.363281 13.730469 -12.90625 L 13.730469 -9.679688 C 13.730469 -9.226562 13.59375 -8.855469 13.324219 -8.566406 C 13.035156 -8.261719 12.65625 -8.109375 12.191406 -8.109375 L 6.0625 -8.109375 L 6.0625 -9.125 L 7.082031 -9.125 L 7.082031 -4.300781 L 6.0625 -4.300781 L 6.0625 -5.320312 L 14.113281 -5.320312 C 14.570312 -5.320312 14.9375 -5.179688 15.226562 -4.890625 C 15.511719 -4.605469 15.652344 -4.234375 15.652344 -3.78125 L 15.652344 -0.523438 C 15.652344 -0.0664062 15.511719 0.304688 15.226562 0.589844 C 14.9375 0.875 14.570312 1.019531 14.113281 1.019531 L 2.117188 1.019531 C 1.660156 1.019531 1.292969 0.867188 1.007812 0.566406 C 0.742188 0.285156 0.609375 -0.078125 0.609375 -0.523438 L 0.609375 -22.292969 C 0.609375 -22.738281 0.742188 -23.101562 1.007812 -23.382812 C 1.292969 -23.683594 1.660156 -23.835938 2.117188 -23.835938 L 14.113281 -23.835938 C 14.570312 -23.835938 14.9375 -23.691406 15.226562 -23.40625 C 15.511719 -23.121094 15.652344 -22.75 15.652344 -22.292969 Z M 13.617188 -22.292969 C 13.617188 -22.269531 13.621094 -22.238281 13.636719 -22.199219 C 13.664062 -22.113281 13.714844 -22.035156 13.785156 -21.964844 C 13.855469 -21.894531 13.933594 -21.847656 14.019531 -21.816406 C 14.058594 -21.804688 14.089844 -21.796875 14.113281 -21.796875 L 2.117188 -21.796875 C 2.25 -21.796875 2.375 -21.863281 2.496094 -21.988281 C 2.5625 -22.058594 2.605469 -22.136719 2.632812 -22.21875 C 2.644531 -22.253906 2.648438 -22.277344 2.648438 -22.292969 L 2.648438 -0.523438 C 2.648438 -0.539062 2.644531 -0.5625 2.632812 -0.597656 C 2.605469 -0.679688 2.5625 -0.757812 2.496094 -0.828125 C 2.375 -0.953125 2.25 -1.019531 2.117188 -1.019531 L 14.113281 -1.019531 C 14.089844 -1.019531 14.058594 -1.011719 14.019531 -1 C 13.933594 -0.96875 13.855469 -0.921875 13.785156 -0.851562 C 13.714844 -0.78125 13.664062 -0.703125 13.636719 -0.617188 C 13.621094 -0.574219 13.617188 -0.542969 13.617188 -0.523438 L 13.617188 -3.78125 C 13.617188 -3.757812 13.621094 -3.726562 13.636719 -3.6875 C 13.664062 -3.601562 13.714844 -3.523438 13.785156 -3.453125 C 13.855469 -3.382812 13.933594 -3.332031 14.019531 -3.304688 C 14.058594 -3.289062 14.089844 -3.285156 14.113281 -3.285156 L 5.042969 -3.285156 L 5.042969 -10.144531 L 12.191406 -10.144531 C 12.160156 -10.144531 12.125 -10.136719 12.078125 -10.121094 C 11.988281 -10.089844 11.910156 -10.035156 11.839844 -9.964844 C 11.777344 -9.894531 11.730469 -9.824219 11.707031 -9.742188 C 11.699219 -9.714844 11.691406 -9.691406 11.691406 -9.679688 L 11.691406 -12.90625 C 11.691406 -12.894531 11.699219 -12.875 11.707031 -12.84375 C 11.730469 -12.765625 11.777344 -12.691406 11.839844 -12.625 C 11.910156 -12.550781 11.988281 -12.5 12.078125 -12.464844 C 12.125 -12.449219 12.160156 -12.441406 12.191406 -12.441406 L 5.042969 -12.441406 L 5.042969 -19.5 L 14.113281 -19.5 C 14.082031 -19.5 14.046875 -19.492188 14 -19.476562 C 13.910156 -19.445312 13.832031 -19.390625 13.761719 -19.316406 C 13.699219 -19.25 13.65625 -19.175781 13.628906 -19.097656 C 13.621094 -19.066406 13.617188 -19.046875 13.617188 -19.035156 Z M 13.617188 -22.292969 "/></g></g><g style="fill:#b21a22;fill-opacity:1;"><g transform="translate(53.343921, 62.085301)"><path style="stroke:none" d="M 15.71875 -18.121094 L 15.71875 -13.722656 C 15.71875 -12.84375 15.429688 -12.097656 14.851562 -11.488281 C 14.308594 -10.917969 13.636719 -10.554688 12.832031 -10.40625 L 12.648438 -11.40625 L 13.664062 -11.40625 L 13.664062 -11.34375 L 12.648438 -11.34375 L 12.796875 -12.351562 C 13.621094 -12.230469 14.308594 -11.867188 14.863281 -11.269531 C 15.433594 -10.648438 15.71875 -9.902344 15.71875 -9.027344 L 15.71875 -4.695312 C 15.71875 -2.890625 15.21875 -1.488281 14.214844 -0.484375 C 13.210938 0.515625 11.796875 1.019531 9.972656 1.019531 L 2.152344 1.019531 C 1.695312 1.019531 1.324219 0.875 1.039062 0.589844 C 0.753906 0.304688 0.609375 -0.0664062 0.609375 -0.523438 L 0.609375 -22.292969 C 0.609375 -22.75 0.753906 -23.121094 1.039062 -23.40625 C 1.324219 -23.691406 1.695312 -23.835938 2.152344 -23.835938 L 9.972656 -23.835938 C 11.796875 -23.835938 13.207031 -23.339844 14.210938 -22.351562 C 15.214844 -21.359375 15.71875 -19.949219 15.71875 -18.121094 Z M 13.679688 -18.121094 C 13.679688 -19.382812 13.378906 -20.308594 12.777344 -20.902344 C 12.171875 -21.5 11.238281 -21.796875 9.972656 -21.796875 L 2.152344 -21.796875 C 2.175781 -21.796875 2.207031 -21.804688 2.246094 -21.816406 C 2.332031 -21.847656 2.410156 -21.894531 2.480469 -21.964844 C 2.550781 -22.035156 2.601562 -22.113281 2.628906 -22.199219 C 2.640625 -22.238281 2.648438 -22.269531 2.648438 -22.292969 L 2.648438 -0.523438 C 2.648438 -0.542969 2.640625 -0.574219 2.628906 -0.617188 C 2.601562 -0.703125 2.550781 -0.78125 2.480469 -0.851562 C 2.410156 -0.921875 2.332031 -0.96875 2.246094 -1 C 2.207031 -1.011719 2.175781 -1.019531 2.152344 -1.019531 L 9.972656 -1.019531 C 11.234375 -1.019531 12.167969 -1.320312 12.773438 -1.925781 C 13.378906 -2.53125 13.679688 -3.453125 13.679688 -4.695312 L 13.679688 -9.027344 C 13.679688 -9.371094 13.574219 -9.65625 13.363281 -9.886719 C 13.136719 -10.132812 12.847656 -10.285156 12.496094 -10.335938 L 11.628906 -10.464844 L 11.628906 -12.253906 L 12.460938 -12.410156 C 12.832031 -12.476562 13.136719 -12.636719 13.375 -12.890625 C 13.578125 -13.105469 13.679688 -13.382812 13.679688 -13.722656 Z M 9.542969 -14.796875 L 9.542969 -17.40625 C 9.542969 -17.511719 9.53125 -17.59375 9.511719 -17.652344 C 9.507812 -17.664062 9.507812 -17.671875 9.503906 -17.675781 C 9.507812 -17.671875 9.507812 -17.667969 9.515625 -17.664062 C 9.519531 -17.660156 9.523438 -17.65625 9.527344 -17.652344 C 9.523438 -17.65625 9.515625 -17.65625 9.503906 -17.660156 C 9.445312 -17.679688 9.363281 -17.691406 9.257812 -17.691406 L 5.671875 -17.691406 L 5.671875 -18.710938 L 6.691406 -18.710938 L 6.691406 -13.527344 L 5.671875 -13.527344 L 5.671875 -14.546875 L 9.257812 -14.546875 C 9.367188 -14.546875 9.453125 -14.554688 9.511719 -14.574219 C 9.523438 -14.578125 9.53125 -14.582031 9.535156 -14.585938 C 9.53125 -14.582031 9.527344 -14.578125 9.523438 -14.574219 C 9.519531 -14.566406 9.511719 -14.5625 9.507812 -14.558594 C 9.511719 -14.558594 9.511719 -14.5625 9.515625 -14.570312 C 9.53125 -14.625 9.542969 -14.699219 9.542969 -14.796875 Z M 11.578125 -14.796875 C 11.578125 -14.085938 11.367188 -13.527344 10.945312 -13.113281 C 10.53125 -12.710938 9.96875 -12.507812 9.257812 -12.507812 L 4.652344 -12.507812 L 4.652344 -19.726562 L 9.257812 -19.726562 C 9.972656 -19.726562 10.539062 -19.519531 10.953125 -19.105469 C 11.371094 -18.6875 11.578125 -18.121094 11.578125 -17.40625 Z M 9.542969 -5.410156 L 9.542969 -7.921875 C 9.542969 -8.027344 9.53125 -8.109375 9.511719 -8.167969 C 9.507812 -8.179688 9.507812 -8.1875 9.503906 -8.191406 C 9.507812 -8.1875 9.507812 -8.183594 9.515625 -8.179688 C 9.519531 -8.171875 9.523438 -8.167969 9.527344 -8.167969 C 9.523438 -8.167969 9.515625 -8.171875 9.503906 -8.175781 C 9.445312 -8.195312 9.363281 -8.207031 9.257812 -8.207031 L 5.671875 -8.207031 L 5.671875 -9.222656 L 6.691406 -9.222656 L 6.691406 -4.105469 L 5.671875 -4.105469 L 5.671875 -5.125 L 9.257812 -5.125 C 9.363281 -5.125 9.445312 -5.136719 9.503906 -5.15625 C 9.515625 -5.160156 9.523438 -5.160156 9.527344 -5.164062 C 9.523438 -5.160156 9.519531 -5.15625 9.515625 -5.152344 C 9.507812 -5.148438 9.507812 -5.144531 9.503906 -5.140625 C 9.507812 -5.144531 9.507812 -5.152344 9.511719 -5.164062 C 9.53125 -5.222656 9.542969 -5.304688 9.542969 -5.410156 Z M 11.578125 -5.410156 C 11.578125 -4.695312 11.371094 -4.128906 10.953125 -3.710938 C 10.539062 -3.296875 9.972656 -3.089844 9.257812 -3.089844 L 4.652344 -3.089844 L 4.652344 -10.242188 L 9.257812 -10.242188 C 9.972656 -10.242188 10.539062 -10.035156 10.953125 -9.617188 C 11.371094 -9.203125 11.578125 -8.636719 11.578125 -7.921875 Z M 11.578125 -5.410156 "/></g></g><g style="fill:#b21a22;fill-opacity:1;"><g transform="translate(69.668646, 62.085301)"><path style="stroke:none" d="M 11.015625 -23.835938 L 14.015625 -23.835938 C 14.472656 -23.835938 14.863281 -23.671875 15.191406 -23.339844 C 15.523438 -23.011719 15.6875 -22.621094 15.6875 -22.164062 L 15.6875 -4.695312 C 15.6875 -2.894531 15.191406 -1.492188 14.203125 -0.492188 C 13.210938 0.515625 11.800781 1.019531 9.972656 1.019531 L 6.324219 1.019531 C 4.519531 1.019531 3.117188 0.515625 2.117188 -0.484375 C 1.113281 -1.488281 0.609375 -2.890625 0.609375 -4.695312 L 0.609375 -22.164062 C 0.609375 -22.621094 0.777344 -23.011719 1.105469 -23.339844 C 1.433594 -23.671875 1.828125 -23.835938 2.28125 -23.835938 L 5.410156 -23.835938 C 5.867188 -23.835938 6.257812 -23.671875 6.585938 -23.339844 C 6.917969 -23.011719 7.082031 -22.621094 7.082031 -22.164062 L 7.082031 -5.605469 C 7.082031 -5.5 7.089844 -5.417969 7.109375 -5.359375 C 7.113281 -5.347656 7.117188 -5.339844 7.121094 -5.335938 C 7.117188 -5.339844 7.113281 -5.34375 7.109375 -5.347656 C 7.105469 -5.355469 7.101562 -5.355469 7.097656 -5.359375 C 7.101562 -5.355469 7.105469 -5.355469 7.117188 -5.351562 C 7.175781 -5.332031 7.257812 -5.320312 7.367188 -5.320312 L 9.0625 -5.320312 C 9.167969 -5.320312 9.25 -5.332031 9.308594 -5.351562 C 9.320312 -5.355469 9.328125 -5.355469 9.332031 -5.359375 C 9.328125 -5.355469 9.324219 -5.355469 9.320312 -5.347656 C 9.3125 -5.34375 9.308594 -5.339844 9.308594 -5.335938 C 9.3125 -5.339844 9.3125 -5.347656 9.316406 -5.359375 C 9.335938 -5.417969 9.347656 -5.5 9.347656 -5.605469 L 9.347656 -22.164062 C 9.347656 -22.621094 9.511719 -23.011719 9.839844 -23.339844 C 10.167969 -23.671875 10.5625 -23.835938 11.015625 -23.835938 Z M 11.015625 -21.796875 C 11.125 -21.796875 11.210938 -21.832031 11.28125 -21.898438 C 11.347656 -21.96875 11.382812 -22.058594 11.382812 -22.164062 L 11.382812 -5.605469 C 11.382812 -4.890625 11.175781 -4.324219 10.757812 -3.90625 C 10.34375 -3.492188 9.777344 -3.285156 9.0625 -3.285156 L 7.367188 -3.285156 C 6.652344 -3.285156 6.085938 -3.492188 5.667969 -3.90625 C 5.253906 -4.324219 5.042969 -4.890625 5.042969 -5.605469 L 5.042969 -22.164062 C 5.042969 -22.058594 5.078125 -21.96875 5.148438 -21.898438 C 5.214844 -21.832031 5.304688 -21.796875 5.410156 -21.796875 L 2.28125 -21.796875 C 2.390625 -21.796875 2.476562 -21.832031 2.546875 -21.898438 C 2.613281 -21.96875 2.648438 -22.058594 2.648438 -22.164062 L 2.648438 -4.695312 C 2.648438 -3.453125 2.949219 -2.53125 3.554688 -1.925781 C 4.160156 -1.320312 5.082031 -1.019531 6.324219 -1.019531 L 9.972656 -1.019531 C 11.234375 -1.019531 12.160156 -1.320312 12.753906 -1.921875 C 13.351562 -2.527344 13.648438 -3.449219 13.648438 -4.695312 L 13.648438 -22.164062 C 13.648438 -22.058594 13.683594 -21.96875 13.75 -21.898438 C 13.820312 -21.832031 13.910156 -21.796875 14.015625 -21.796875 Z M 11.015625 -21.796875 "/></g></g><g style="fill:#b21a22;fill-opacity:1;"><g transform="translate(85.960782, 62.085301)"><path style="stroke:none" d="M 0.609375 -4.695312 L 0.609375 -18.121094 C 0.609375 -19.949219 1.113281 -21.359375 2.121094 -22.351562 C 3.121094 -23.339844 4.523438 -23.835938 6.324219 -23.835938 L 9.972656 -23.835938 C 11.773438 -23.835938 13.175781 -23.339844 14.175781 -22.351562 C 15.183594 -21.359375 15.6875 -19.949219 15.6875 -18.121094 L 15.6875 -15.710938 C 15.6875 -15.253906 15.542969 -14.886719 15.257812 -14.597656 C 14.972656 -14.3125 14.601562 -14.171875 14.144531 -14.171875 L 11.082031 -14.171875 C 10.628906 -14.171875 10.257812 -14.3125 9.972656 -14.597656 C 9.683594 -14.886719 9.542969 -15.253906 9.542969 -15.710938 L 9.542969 -17.308594 C 9.542969 -17.414062 9.53125 -17.496094 9.511719 -17.554688 C 9.507812 -17.566406 9.507812 -17.574219 9.503906 -17.578125 C 9.507812 -17.574219 9.507812 -17.570312 9.515625 -17.566406 C 9.519531 -17.558594 9.523438 -17.558594 9.527344 -17.554688 C 9.523438 -17.558594 9.515625 -17.558594 9.503906 -17.5625 C 9.445312 -17.582031 9.363281 -17.59375 9.257812 -17.59375 L 7.171875 -17.59375 C 7.0625 -17.59375 6.980469 -17.582031 6.921875 -17.5625 C 6.910156 -17.558594 6.90625 -17.558594 6.902344 -17.554688 C 6.902344 -17.558594 6.910156 -17.558594 6.914062 -17.566406 C 6.917969 -17.570312 6.921875 -17.574219 6.925781 -17.578125 C 6.921875 -17.574219 6.917969 -17.566406 6.914062 -17.554688 C 6.894531 -17.496094 6.886719 -17.414062 6.886719 -17.308594 L 6.886719 -5.507812 C 6.886719 -5.402344 6.894531 -5.320312 6.914062 -5.261719 C 6.917969 -5.25 6.921875 -5.242188 6.925781 -5.238281 C 6.921875 -5.242188 6.917969 -5.246094 6.914062 -5.25 C 6.910156 -5.253906 6.902344 -5.257812 6.902344 -5.261719 C 6.90625 -5.257812 6.910156 -5.257812 6.921875 -5.253906 C 6.980469 -5.234375 7.0625 -5.222656 7.171875 -5.222656 L 9.257812 -5.222656 C 9.363281 -5.222656 9.445312 -5.234375 9.503906 -5.253906 C 9.515625 -5.257812 9.523438 -5.257812 9.527344 -5.261719 C 9.523438 -5.257812 9.519531 -5.253906 9.515625 -5.25 C 9.507812 -5.246094 9.507812 -5.242188 9.503906 -5.238281 C 9.507812 -5.242188 9.507812 -5.25 9.511719 -5.261719 C 9.53125 -5.320312 9.542969 -5.402344 9.542969 -5.507812 L 9.542969 -8.34375 L 10.5625 -8.34375 L 10.5625 -7.324219 L 8.867188 -7.324219 C 8.410156 -7.324219 8.039062 -7.46875 7.753906 -7.753906 C 7.46875 -8.039062 7.324219 -8.410156 7.324219 -8.867188 L 7.324219 -12.125 C 7.324219 -12.582031 7.46875 -12.949219 7.753906 -13.238281 C 8.039062 -13.523438 8.410156 -13.664062 8.867188 -13.664062 L 14.144531 -13.664062 C 14.601562 -13.664062 14.972656 -13.523438 15.257812 -13.238281 C 15.542969 -12.949219 15.6875 -12.582031 15.6875 -12.125 L 15.6875 -4.695312 C 15.6875 -2.890625 15.183594 -1.488281 14.183594 -0.484375 C 13.179688 0.515625 11.777344 1.019531 9.972656 1.019531 L 6.324219 1.019531 C 4.519531 1.019531 3.117188 0.515625 2.117188 -0.484375 C 1.113281 -1.488281 0.609375 -2.890625 0.609375 -4.695312 Z M 2.648438 -4.695312 C 2.648438 -3.453125 2.949219 -2.53125 3.554688 -1.925781 C 4.160156 -1.320312 5.082031 -1.019531 6.324219 -1.019531 L 9.972656 -1.019531 C 11.214844 -1.019531 12.136719 -1.320312 12.742188 -1.925781 C 13.347656 -2.53125 13.648438 -3.453125 13.648438 -4.695312 L 13.648438 -12.125 C 13.648438 -12.101562 13.65625 -12.070312 13.667969 -12.03125 C 13.699219 -11.945312 13.746094 -11.867188 13.816406 -11.796875 C 13.886719 -11.726562 13.964844 -11.675781 14.050781 -11.648438 C 14.089844 -11.632812 14.121094 -11.628906 14.144531 -11.628906 L 8.867188 -11.628906 C 8.890625 -11.628906 8.921875 -11.632812 8.960938 -11.648438 C 9.046875 -11.675781 9.125 -11.726562 9.195312 -11.796875 C 9.265625 -11.867188 9.3125 -11.945312 9.34375 -12.03125 C 9.355469 -12.070312 9.363281 -12.101562 9.363281 -12.125 L 9.363281 -8.867188 C 9.363281 -8.890625 9.355469 -8.921875 9.34375 -8.960938 C 9.3125 -9.046875 9.265625 -9.125 9.195312 -9.195312 C 9.125 -9.265625 9.046875 -9.3125 8.960938 -9.34375 C 8.921875 -9.355469 8.890625 -9.363281 8.867188 -9.363281 L 11.578125 -9.363281 L 11.578125 -5.507812 C 11.578125 -4.792969 11.371094 -4.226562 10.953125 -3.808594 C 10.539062 -3.394531 9.972656 -3.1875 9.257812 -3.1875 L 7.171875 -3.1875 C 6.453125 -3.1875 5.890625 -3.394531 5.472656 -3.808594 C 5.054688 -4.226562 4.847656 -4.792969 4.847656 -5.507812 L 4.847656 -17.308594 C 4.847656 -18.023438 5.054688 -18.589844 5.472656 -19.003906 C 5.890625 -19.421875 6.453125 -19.628906 7.171875 -19.628906 L 9.257812 -19.628906 C 9.972656 -19.628906 10.539062 -19.421875 10.953125 -19.003906 C 11.371094 -18.589844 11.578125 -18.023438 11.578125 -17.308594 L 11.578125 -15.710938 C 11.578125 -15.734375 11.574219 -15.765625 11.558594 -15.804688 C 11.53125 -15.890625 11.480469 -15.96875 11.410156 -16.039062 C 11.339844 -16.109375 11.261719 -16.160156 11.175781 -16.1875 C 11.136719 -16.199219 11.105469 -16.207031 11.082031 -16.207031 L 14.144531 -16.207031 C 14.121094 -16.207031 14.089844 -16.199219 14.050781 -16.1875 C 13.964844 -16.160156 13.886719 -16.109375 13.816406 -16.039062 C 13.746094 -15.96875 13.699219 -15.890625 13.667969 -15.804688 C 13.65625 -15.765625 13.648438 -15.734375 13.648438 -15.710938 L 13.648438 -18.121094 C 13.648438 -19.382812 13.347656 -20.308594 12.746094 -20.902344 C 12.140625 -21.5 11.214844 -21.796875 9.972656 -21.796875 L 6.324219 -21.796875 C 5.082031 -21.796875 4.15625 -21.5 3.550781 -20.902344 C 2.949219 -20.308594 2.648438 -19.382812 2.648438 -18.121094 Z M 2.648438 -4.695312 "/></g></g><g style="fill:#b21a22;fill-opacity:1;"><g transform="translate(102.252917, 62.085301)"><path style="stroke:none" d="M -1.019531 4.367188 L -1.019531 1.367188 C -1.019531 0.871094 -0.863281 0.46875 -0.558594 0.160156 C -0.25 -0.148438 0.152344 -0.300781 0.652344 -0.300781 L 20.304688 -0.300781 C 20.804688 -0.300781 21.207031 -0.148438 21.515625 0.160156 C 21.824219 0.46875 21.976562 0.871094 21.976562 1.367188 L 21.976562 4.367188 C 21.976562 4.867188 21.824219 5.269531 21.515625 5.578125 C 21.207031 5.882812 20.804688 6.039062 20.304688 6.039062 L 0.652344 6.039062 C 0.152344 6.039062 -0.25 5.882812 -0.558594 5.578125 C -0.863281 5.269531 -1.019531 4.867188 -1.019531 4.367188 Z M 1.019531 4.367188 C 1.019531 4.371094 1.019531 4.375 1.019531 4.378906 C 1.019531 4.378906 1.019531 4.378906 1.019531 4.375 C 1.015625 4.363281 1.011719 4.347656 1.007812 4.332031 C 0.984375 4.261719 0.941406 4.195312 0.882812 4.136719 C 0.824219 4.078125 0.757812 4.035156 0.6875 4.011719 C 0.671875 4.007812 0.65625 4.003906 0.644531 4 C 0.640625 4 0.640625 4 0.640625 4 C 0.644531 4 0.648438 4 0.652344 4 L 20.304688 4 C 20.3125 4 20.316406 4 20.316406 4 C 20.300781 4.003906 20.285156 4.007812 20.269531 4.011719 C 20.199219 4.035156 20.132812 4.078125 20.074219 4.136719 C 20.015625 4.195312 19.976562 4.261719 19.953125 4.332031 C 19.945312 4.347656 19.941406 4.363281 19.941406 4.375 C 19.941406 4.378906 19.9375 4.378906 19.9375 4.378906 C 19.941406 4.375 19.941406 4.371094 19.941406 4.367188 L 19.941406 1.367188 C 19.941406 1.363281 19.941406 1.359375 19.9375 1.359375 C 19.9375 1.359375 19.941406 1.359375 19.941406 1.359375 C 19.941406 1.375 19.945312 1.386719 19.953125 1.40625 C 19.976562 1.476562 20.015625 1.542969 20.074219 1.601562 C 20.132812 1.660156 20.199219 1.699219 20.269531 1.722656 C 20.285156 1.730469 20.300781 1.734375 20.316406 1.734375 C 20.316406 1.734375 20.3125 1.734375 20.304688 1.734375 L 0.652344 1.734375 C 0.648438 1.734375 0.644531 1.734375 0.640625 1.734375 C 0.640625 1.734375 0.640625 1.734375 0.644531 1.734375 C 0.65625 1.734375 0.671875 1.730469 0.6875 1.722656 C 0.757812 1.699219 0.824219 1.660156 0.882812 1.601562 C 0.941406 1.542969 0.984375 1.476562 1.007812 1.40625 C 1.011719 1.386719 1.015625 1.375 1.019531 1.359375 C 1.019531 1.359375 1.019531 1.363281 1.019531 1.367188 Z M 1.019531 4.367188 "/></g></g><g style="fill:#b21a22;fill-opacity:1;"><g transform="translate(19.643271, 107.527672)"><path style="stroke:none" d="M 5.042969 -4.300781 L 5.042969 -22.292969 C 5.042969 -22.269531 5.050781 -22.238281 5.0625 -22.199219 C 5.09375 -22.113281 5.140625 -22.035156 5.210938 -21.964844 C 5.28125 -21.894531 5.359375 -21.847656 5.445312 -21.816406 C 5.488281 -21.804688 5.519531 -21.796875 5.542969 -21.796875 L 2.152344 -21.796875 C 2.175781 -21.796875 2.207031 -21.804688 2.246094 -21.816406 C 2.332031 -21.847656 2.410156 -21.894531 2.480469 -21.964844 C 2.550781 -22.035156 2.601562 -22.113281 2.628906 -22.199219 C 2.640625 -22.238281 2.648438 -22.269531 2.648438 -22.292969 L 2.648438 -0.523438 C 2.648438 -0.542969 2.640625 -0.574219 2.628906 -0.617188 C 2.601562 -0.703125 2.550781 -0.78125 2.480469 -0.851562 C 2.410156 -0.921875 2.332031 -0.96875 2.246094 -1 C 2.207031 -1.011719 2.175781 -1.019531 2.152344 -1.019531 L 12.515625 -1.019531 C 12.492188 -1.019531 12.460938 -1.011719 12.421875 -1 C 12.335938 -0.96875 12.257812 -0.921875 12.1875 -0.851562 C 12.117188 -0.78125 12.066406 -0.703125 12.039062 -0.617188 C 12.027344 -0.574219 12.019531 -0.542969 12.019531 -0.523438 L 12.019531 -3.78125 C 12.019531 -3.757812 12.027344 -3.726562 12.039062 -3.6875 C 12.066406 -3.601562 12.117188 -3.523438 12.1875 -3.453125 C 12.257812 -3.382812 12.335938 -3.332031 12.421875 -3.304688 C 12.460938 -3.289062 12.492188 -3.285156 12.515625 -3.285156 L 5.042969 -3.285156 Z M 7.082031 -4.300781 L 6.0625 -4.300781 L 6.0625 -5.320312 L 12.515625 -5.320312 C 12.972656 -5.320312 13.34375 -5.179688 13.628906 -4.890625 C 13.914062 -4.605469 14.054688 -4.234375 14.054688 -3.78125 L 14.054688 -0.523438 C 14.054688 -0.0664062 13.914062 0.304688 13.628906 0.589844 C 13.34375 0.875 12.972656 1.019531 12.515625 1.019531 L 2.152344 1.019531 C 1.695312 1.019531 1.324219 0.875 1.039062 0.589844 C 0.753906 0.304688 0.609375 -0.0664062 0.609375 -0.523438 L 0.609375 -22.292969 C 0.609375 -22.75 0.753906 -23.121094 1.039062 -23.40625 C 1.324219 -23.691406 1.695312 -23.835938 2.152344 -23.835938 L 5.542969 -23.835938 C 5.996094 -23.835938 6.367188 -23.691406 6.652344 -23.40625 C 6.9375 -23.121094 7.082031 -22.75 7.082031 -22.292969 Z M 7.082031 -4.300781 "/></g></g><g style="fill:#b21a22;fill-opacity:1;"><g transform="translate(34.306192, 107.527672)"><path style="stroke:none" d="M 0.609375 -4.695312 L 0.609375 -18.121094 C 0.609375 -19.949219 1.113281 -21.359375 2.121094 -22.351562 C 3.121094 -23.339844 4.523438 -23.835938 6.324219 -23.835938 L 9.972656 -23.835938 C 11.796875 -23.835938 13.207031 -23.339844 14.199219 -22.347656 C 15.191406 -21.355469 15.6875 -19.945312 15.6875 -18.121094 L 15.6875 -4.695312 C 15.6875 -2.894531 15.191406 -1.492188 14.203125 -0.492188 C 13.210938 0.515625 11.800781 1.019531 9.972656 1.019531 L 6.324219 1.019531 C 4.519531 1.019531 3.117188 0.515625 2.117188 -0.484375 C 1.113281 -1.488281 0.609375 -2.890625 0.609375 -4.695312 Z M 2.648438 -4.695312 C 2.648438 -3.453125 2.949219 -2.53125 3.554688 -1.925781 C 4.160156 -1.320312 5.082031 -1.019531 6.324219 -1.019531 L 9.972656 -1.019531 C 11.234375 -1.019531 12.160156 -1.320312 12.753906 -1.921875 C 13.351562 -2.527344 13.648438 -3.449219 13.648438 -4.695312 L 13.648438 -18.121094 C 13.648438 -19.382812 13.351562 -20.3125 12.757812 -20.90625 C 12.164062 -21.5 11.234375 -21.796875 9.972656 -21.796875 L 6.324219 -21.796875 C 5.082031 -21.796875 4.15625 -21.5 3.550781 -20.902344 C 2.949219 -20.308594 2.648438 -19.382812 2.648438 -18.121094 Z M 7.171875 -5.222656 L 9.257812 -5.222656 C 9.363281 -5.222656 9.445312 -5.234375 9.503906 -5.253906 C 9.515625 -5.257812 9.523438 -5.257812 9.527344 -5.261719 C 9.523438 -5.257812 9.519531 -5.253906 9.515625 -5.25 C 9.507812 -5.246094 9.507812 -5.242188 9.503906 -5.238281 C 9.507812 -5.242188 9.507812 -5.25 9.511719 -5.261719 C 9.53125 -5.320312 9.542969 -5.402344 9.542969 -5.507812 L 9.542969 -17.308594 C 9.542969 -17.414062 9.53125 -17.496094 9.511719 -17.554688 C 9.507812 -17.566406 9.507812 -17.574219 9.503906 -17.578125 C 9.507812 -17.574219 9.507812 -17.570312 9.515625 -17.566406 C 9.519531 -17.558594 9.523438 -17.558594 9.527344 -17.554688 C 9.523438 -17.558594 9.515625 -17.558594 9.503906 -17.5625 C 9.445312 -17.582031 9.363281 -17.59375 9.257812 -17.59375 L 7.171875 -17.59375 C 7.0625 -17.59375 6.980469 -17.582031 6.921875 -17.5625 C 6.910156 -17.558594 6.90625 -17.558594 6.902344 -17.554688 C 6.902344 -17.558594 6.910156 -17.558594 6.914062 -17.566406 C 6.917969 -17.570312 6.921875 -17.574219 6.925781 -17.578125 C 6.921875 -17.574219 6.917969 -17.566406 6.914062 -17.554688 C 6.894531 -17.496094 6.886719 -17.414062 6.886719 -17.308594 L 6.886719 -5.507812 C 6.886719 -5.402344 6.894531 -5.320312 6.914062 -5.261719 C 6.917969 -5.25 6.921875 -5.242188 6.925781 -5.238281 C 6.921875 -5.242188 6.917969 -5.246094 6.914062 -5.25 C 6.910156 -5.253906 6.902344 -5.257812 6.902344 -5.261719 C 6.90625 -5.257812 6.910156 -5.257812 6.921875 -5.253906 C 6.980469 -5.234375 7.0625 -5.222656 7.171875 -5.222656 Z M 7.171875 -3.1875 C 6.453125 -3.1875 5.890625 -3.394531 5.472656 -3.808594 C 5.054688 -4.226562 4.847656 -4.792969 4.847656 -5.507812 L 4.847656 -17.308594 C 4.847656 -18.023438 5.054688 -18.589844 5.472656 -19.003906 C 5.890625 -19.421875 6.453125 -19.628906 7.171875 -19.628906 L 9.257812 -19.628906 C 9.972656 -19.628906 10.539062 -19.421875 10.953125 -19.003906 C 11.371094 -18.589844 11.578125 -18.023438 11.578125 -17.308594 L 11.578125 -5.507812 C 11.578125 -4.792969 11.371094 -4.226562 10.953125 -3.808594 C 10.539062 -3.394531 9.972656 -3.1875 9.257812 -3.1875 Z M 7.171875 -3.1875 "/></g></g><g style="fill:#b21a22;fill-opacity:1;"><g transform="translate(50.598327, 107.527672)"><path style="stroke:none" d="M 0.609375 -4.695312 L 0.609375 -18.121094 C 0.609375 -19.949219 1.113281 -21.359375 2.121094 -22.351562 C 3.121094 -23.339844 4.523438 -23.835938 6.324219 -23.835938 L 9.972656 -23.835938 C 11.773438 -23.835938 13.175781 -23.339844 14.175781 -22.351562 C 15.183594 -21.359375 15.6875 -19.949219 15.6875 -18.121094 L 15.6875 -15.710938 C 15.6875 -15.253906 15.542969 -14.886719 15.257812 -14.597656 C 14.972656 -14.3125 14.601562 -14.171875 14.144531 -14.171875 L 11.082031 -14.171875 C 10.628906 -14.171875 10.257812 -14.3125 9.972656 -14.597656 C 9.683594 -14.886719 9.542969 -15.253906 9.542969 -15.710938 L 9.542969 -17.308594 C 9.542969 -17.414062 9.53125 -17.496094 9.511719 -17.554688 C 9.507812 -17.566406 9.507812 -17.574219 9.503906 -17.578125 C 9.507812 -17.574219 9.507812 -17.570312 9.515625 -17.566406 C 9.519531 -17.558594 9.523438 -17.558594 9.527344 -17.554688 C 9.523438 -17.558594 9.515625 -17.558594 9.503906 -17.5625 C 9.445312 -17.582031 9.363281 -17.59375 9.257812 -17.59375 L 7.171875 -17.59375 C 7.0625 -17.59375 6.980469 -17.582031 6.921875 -17.5625 C 6.910156 -17.558594 6.90625 -17.558594 6.902344 -17.554688 C 6.902344 -17.558594 6.910156 -17.558594 6.914062 -17.566406 C 6.917969 -17.570312 6.921875 -17.574219 6.925781 -17.578125 C 6.921875 -17.574219 6.917969 -17.566406 6.914062 -17.554688 C 6.894531 -17.496094 6.886719 -17.414062 6.886719 -17.308594 L 6.886719 -5.507812 C 6.886719 -5.402344 6.894531 -5.320312 6.914062 -5.261719 C 6.917969 -5.25 6.921875 -5.242188 6.925781 -5.238281 C 6.921875 -5.242188 6.917969 -5.246094 6.914062 -5.25 C 6.910156 -5.253906 6.902344 -5.257812 6.902344 -5.261719 C 6.90625 -5.257812 6.910156 -5.257812 6.921875 -5.253906 C 6.980469 -5.234375 7.0625 -5.222656 7.171875 -5.222656 L 9.257812 -5.222656 C 9.363281 -5.222656 9.445312 -5.234375 9.503906 -5.253906 C 9.515625 -5.257812 9.523438 -5.257812 9.527344 -5.261719 C 9.523438 -5.257812 9.519531 -5.253906 9.515625 -5.25 C 9.507812 -5.246094 9.507812 -5.242188 9.503906 -5.238281 C 9.507812 -5.242188 9.507812 -5.25 9.511719 -5.261719 C 9.53125 -5.320312 9.542969 -5.402344 9.542969 -5.507812 L 9.542969 -8.34375 L 10.5625 -8.34375 L 10.5625 -7.324219 L 8.867188 -7.324219 C 8.410156 -7.324219 8.039062 -7.46875 7.753906 -7.753906 C 7.46875 -8.039062 7.324219 -8.410156 7.324219 -8.867188 L 7.324219 -12.125 C 7.324219 -12.582031 7.46875 -12.949219 7.753906 -13.238281 C 8.039062 -13.523438 8.410156 -13.664062 8.867188 -13.664062 L 14.144531 -13.664062 C 14.601562 -13.664062 14.972656 -13.523438 15.257812 -13.238281 C 15.542969 -12.949219 15.6875 -12.582031 15.6875 -12.125 L 15.6875 -4.695312 C 15.6875 -2.890625 15.183594 -1.488281 14.183594 -0.484375 C 13.179688 0.515625 11.777344 1.019531 9.972656 1.019531 L 6.324219 1.019531 C 4.519531 1.019531 3.117188 0.515625 2.117188 -0.484375 C 1.113281 -1.488281 0.609375 -2.890625 0.609375 -4.695312 Z M 2.648438 -4.695312 C 2.648438 -3.453125 2.949219 -2.53125 3.554688 -1.925781 C 4.160156 -1.320312 5.082031 -1.019531 6.324219 -1.019531 L 9.972656 -1.019531 C 11.214844 -1.019531 12.136719 -1.320312 12.742188 -1.925781 C 13.347656 -2.53125 13.648438 -3.453125 13.648438 -4.695312 L 13.648438 -12.125 C 13.648438 -12.101562 13.65625 -12.070312 13.667969 -12.03125 C 13.699219 -11.945312 13.746094 -11.867188 13.816406 -11.796875 C 13.886719 -11.726562 13.964844 -11.675781 14.050781 -11.648438 C 14.089844 -11.632812 14.121094 -11.628906 14.144531 -11.628906 L 8.867188 -11.628906 C 8.890625 -11.628906 8.921875 -11.632812 8.960938 -11.648438 C 9.046875 -11.675781 9.125 -11.726562 9.195312 -11.796875 C 9.265625 -11.867188 9.3125 -11.945312 9.34375 -12.03125 C 9.355469 -12.070312 9.363281 -12.101562 9.363281 -12.125 L 9.363281 -8.867188 C 9.363281 -8.890625 9.355469 -8.921875 9.34375 -8.960938 C 9.3125 -9.046875 9.265625 -9.125 9.195312 -9.195312 C 9.125 -9.265625 9.046875 -9.3125 8.960938 -9.34375 C 8.921875 -9.355469 8.890625 -9.363281 8.867188 -9.363281 L 11.578125 -9.363281 L 11.578125 -5.507812 C 11.578125 -4.792969 11.371094 -4.226562 10.953125 -3.808594 C 10.539062 -3.394531 9.972656 -3.1875 9.257812 -3.1875 L 7.171875 -3.1875 C 6.453125 -3.1875 5.890625 -3.394531 5.472656 -3.808594 C 5.054688 -4.226562 4.847656 -4.792969 4.847656 -5.507812 L 4.847656 -17.308594 C 4.847656 -18.023438 5.054688 -18.589844 5.472656 -19.003906 C 5.890625 -19.421875 6.453125 -19.628906 7.171875 -19.628906 L 9.257812 -19.628906 C 9.972656 -19.628906 10.539062 -19.421875 10.953125 -19.003906 C 11.371094 -18.589844 11.578125 -18.023438 11.578125 -17.308594 L 11.578125 -15.710938 C 11.578125 -15.734375 11.574219 -15.765625 11.558594 -15.804688 C 11.53125 -15.890625 11.480469 -15.96875 11.410156 -16.039062 C 11.339844 -16.109375 11.261719 -16.160156 11.175781 -16.1875 C 11.136719 -16.199219 11.105469 -16.207031 11.082031 -16.207031 L 14.144531 -16.207031 C 14.121094 -16.207031 14.089844 -16.199219 14.050781 -16.1875 C 13.964844 -16.160156 13.886719 -16.109375 13.816406 -16.039062 C 13.746094 -15.96875 13.699219 -15.890625 13.667969 -15.804688 C 13.65625 -15.765625 13.648438 -15.734375 13.648438 -15.710938 L 13.648438 -18.121094 C 13.648438 -19.382812 13.347656 -20.308594 12.746094 -20.902344 C 12.140625 -21.5 11.214844 -21.796875 9.972656 -21.796875 L 6.324219 -21.796875 C 5.082031 -21.796875 4.15625 -21.5 3.550781 -20.902344 C 2.949219 -20.308594 2.648438 -19.382812 2.648438 -18.121094 Z M 2.648438 -4.695312 "/></g></g><g style="fill:#b21a22;fill-opacity:1;"><g transform="translate(66.890462, 107.527672)"><path style="stroke:none" d="M 0.609375 -4.695312 L 0.609375 -18.121094 C 0.609375 -19.949219 1.113281 -21.359375 2.121094 -22.351562 C 3.121094 -23.339844 4.523438 -23.835938 6.324219 -23.835938 L 9.972656 -23.835938 C 11.773438 -23.835938 13.175781 -23.339844 14.175781 -22.351562 C 15.183594 -21.359375 15.6875 -19.949219 15.6875 -18.121094 L 15.6875 -15.710938 C 15.6875 -15.253906 15.542969 -14.886719 15.257812 -14.597656 C 14.972656 -14.3125 14.601562 -14.171875 14.144531 -14.171875 L 11.082031 -14.171875 C 10.628906 -14.171875 10.257812 -14.3125 9.972656 -14.597656 C 9.683594 -14.886719 9.542969 -15.253906 9.542969 -15.710938 L 9.542969 -17.308594 C 9.542969 -17.414062 9.53125 -17.496094 9.511719 -17.554688 C 9.507812 -17.566406 9.507812 -17.574219 9.503906 -17.578125 C 9.507812 -17.574219 9.507812 -17.570312 9.515625 -17.566406 C 9.519531 -17.558594 9.523438 -17.558594 9.527344 -17.554688 C 9.523438 -17.558594 9.515625 -17.558594 9.503906 -17.5625 C 9.445312 -17.582031 9.363281 -17.59375 9.257812 -17.59375 L 7.171875 -17.59375 C 7.0625 -17.59375 6.980469 -17.582031 6.921875 -17.5625 C 6.910156 -17.558594 6.90625 -17.558594 6.902344 -17.554688 C 6.902344 -17.558594 6.910156 -17.558594 6.914062 -17.566406 C 6.917969 -17.570312 6.921875 -17.574219 6.925781 -17.578125 C 6.921875 -17.574219 6.917969 -17.566406 6.914062 -17.554688 C 6.894531 -17.496094 6.886719 -17.414062 6.886719 -17.308594 L 6.886719 -5.507812 C 6.886719 -5.402344 6.894531 -5.320312 6.914062 -5.261719 C 6.917969 -5.25 6.921875 -5.242188 6.925781 -5.238281 C 6.921875 -5.242188 6.917969 -5.246094 6.914062 -5.25 C 6.910156 -5.253906 6.902344 -5.257812 6.902344 -5.261719 C 6.90625 -5.257812 6.910156 -5.257812 6.921875 -5.253906 C 6.980469 -5.234375 7.0625 -5.222656 7.171875 -5.222656 L 9.257812 -5.222656 C 9.363281 -5.222656 9.445312 -5.234375 9.503906 -5.253906 C 9.515625 -5.257812 9.523438 -5.257812 9.527344 -5.261719 C 9.523438 -5.257812 9.519531 -5.253906 9.515625 -5.25 C 9.507812 -5.246094 9.507812 -5.242188 9.503906 -5.238281 C 9.507812 -5.242188 9.507812 -5.25 9.511719 -5.261719 C 9.53125 -5.320312 9.542969 -5.402344 9.542969 -5.507812 L 9.542969 -8.34375 L 10.5625 -8.34375 L 10.5625 -7.324219 L 8.867188 -7.324219 C 8.410156 -7.324219 8.039062 -7.46875 7.753906 -7.753906 C 7.46875 -8.039062 7.324219 -8.410156 7.324219 -8.867188 L 7.324219 -12.125 C 7.324219 -12.582031 7.46875 -12.949219 7.753906 -13.238281 C 8.039062 -13.523438 8.410156 -13.664062 8.867188 -13.664062 L 14.144531 -13.664062 C 14.601562 -13.664062 14.972656 -13.523438 15.257812 -13.238281 C 15.542969 -12.949219 15.6875 -12.582031 15.6875 -12.125 L 15.6875 -4.695312 C 15.6875 -2.890625 15.183594 -1.488281 14.183594 -0.484375 C 13.179688 0.515625 11.777344 1.019531 9.972656 1.019531 L 6.324219 1.019531 C 4.519531 1.019531 3.117188 0.515625 2.117188 -0.484375 C 1.113281 -1.488281 0.609375 -2.890625 0.609375 -4.695312 Z M 2.648438 -4.695312 C 2.648438 -3.453125 2.949219 -2.53125 3.554688 -1.925781 C 4.160156 -1.320312 5.082031 -1.019531 6.324219 -1.019531 L 9.972656 -1.019531 C 11.214844 -1.019531 12.136719 -1.320312 12.742188 -1.925781 C 13.347656 -2.53125 13.648438 -3.453125 13.648438 -4.695312 L 13.648438 -12.125 C 13.648438 -12.101562 13.65625 -12.070312 13.667969 -12.03125 C 13.699219 -11.945312 13.746094 -11.867188 13.816406 -11.796875 C 13.886719 -11.726562 13.964844 -11.675781 14.050781 -11.648438 C 14.089844 -11.632812 14.121094 -11.628906 14.144531 -11.628906 L 8.867188 -11.628906 C 8.890625 -11.628906 8.921875 -11.632812 8.960938 -11.648438 C 9.046875 -11.675781 9.125 -11.726562 9.195312 -11.796875 C 9.265625 -11.867188 9.3125 -11.945312 9.34375 -12.03125 C 9.355469 -12.070312 9.363281 -12.101562 9.363281 -12.125 L 9.363281 -8.867188 C 9.363281 -8.890625 9.355469 -8.921875 9.34375 -8.960938 C 9.3125 -9.046875 9.265625 -9.125 9.195312 -9.195312 C 9.125 -9.265625 9.046875 -9.3125 8.960938 -9.34375 C 8.921875 -9.355469 8.890625 -9.363281 8.867188 -9.363281 L 11.578125 -9.363281 L 11.578125 -5.507812 C 11.578125 -4.792969 11.371094 -4.226562 10.953125 -3.808594 C 10.539062 -3.394531 9.972656 -3.1875 9.257812 -3.1875 L 7.171875 -3.1875 C 6.453125 -3.1875 5.890625 -3.394531 5.472656 -3.808594 C 5.054688 -4.226562 4.847656 -4.792969 4.847656 -5.507812 L 4.847656 -17.308594 C 4.847656 -18.023438 5.054688 -18.589844 5.472656 -19.003906 C 5.890625 -19.421875 6.453125 -19.628906 7.171875 -19.628906 L 9.257812 -19.628906 C 9.972656 -19.628906 10.539062 -19.421875 10.953125 -19.003906 C 11.371094 -18.589844 11.578125 -18.023438 11.578125 -17.308594 L 11.578125 -15.710938 C 11.578125 -15.734375 11.574219 -15.765625 11.558594 -15.804688 C 11.53125 -15.890625 11.480469 -15.96875 11.410156 -16.039062 C 11.339844 -16.109375 11.261719 -16.160156 11.175781 -16.1875 C 11.136719 -16.199219 11.105469 -16.207031 11.082031 -16.207031 L 14.144531 -16.207031 C 14.121094 -16.207031 14.089844 -16.199219 14.050781 -16.1875 C 13.964844 -16.160156 13.886719 -16.109375 13.816406 -16.039062 C 13.746094 -15.96875 13.699219 -15.890625 13.667969 -15.804688 C 13.65625 -15.765625 13.648438 -15.734375 13.648438 -15.710938 L 13.648438 -18.121094 C 13.648438 -19.382812 13.347656 -20.308594 12.746094 -20.902344 C 12.140625 -21.5 11.214844 -21.796875 9.972656 -21.796875 L 6.324219 -21.796875 C 5.082031 -21.796875 4.15625 -21.5 3.550781 -20.902344 C 2.949219 -20.308594 2.648438 -19.382812 2.648438 -18.121094 Z M 2.648438 -4.695312 "/></g></g><g style="fill:#b21a22;fill-opacity:1;"><g transform="translate(83.182598, 107.527672)"><path style="stroke:none" d="M 2.152344 -1.019531 L 5.542969 -1.019531 C 5.519531 -1.019531 5.488281 -1.011719 5.445312 -1 C 5.359375 -0.96875 5.28125 -0.921875 5.210938 -0.851562 C 5.140625 -0.78125 5.09375 -0.703125 5.0625 -0.617188 C 5.050781 -0.574219 5.042969 -0.542969 5.042969 -0.523438 L 5.042969 -22.292969 C 5.042969 -22.269531 5.050781 -22.238281 5.0625 -22.199219 C 5.09375 -22.113281 5.140625 -22.035156 5.210938 -21.964844 C 5.28125 -21.894531 5.359375 -21.847656 5.445312 -21.816406 C 5.488281 -21.804688 5.519531 -21.796875 5.542969 -21.796875 L 2.152344 -21.796875 C 2.175781 -21.796875 2.207031 -21.804688 2.246094 -21.816406 C 2.332031 -21.847656 2.410156 -21.894531 2.480469 -21.964844 C 2.550781 -22.035156 2.601562 -22.113281 2.628906 -22.199219 C 2.640625 -22.238281 2.648438 -22.269531 2.648438 -22.292969 L 2.648438 -0.523438 C 2.648438 -0.542969 2.640625 -0.574219 2.628906 -0.617188 C 2.601562 -0.703125 2.550781 -0.78125 2.480469 -0.851562 C 2.410156 -0.921875 2.332031 -0.96875 2.246094 -1 C 2.207031 -1.011719 2.175781 -1.019531 2.152344 -1.019531 Z M 2.152344 1.019531 C 1.695312 1.019531 1.324219 0.875 1.039062 0.589844 C 0.753906 0.304688 0.609375 -0.0664062 0.609375 -0.523438 L 0.609375 -22.292969 C 0.609375 -22.75 0.753906 -23.121094 1.039062 -23.40625 C 1.324219 -23.691406 1.695312 -23.835938 2.152344 -23.835938 L 5.542969 -23.835938 C 5.996094 -23.835938 6.367188 -23.691406 6.652344 -23.40625 C 6.9375 -23.121094 7.082031 -22.75 7.082031 -22.292969 L 7.082031 -0.523438 C 7.082031 -0.0664062 6.9375 0.304688 6.652344 0.589844 C 6.367188 0.875 5.996094 1.019531 5.542969 1.019531 Z M 2.152344 1.019531 "/></g></g><g style="fill:#b21a22;fill-opacity:1;"><g transform="translate(90.872481, 107.527672)"><path style="stroke:none" d="M 11.960938 -23.835938 L 15.027344 -23.835938 C 15.480469 -23.835938 15.851562 -23.691406 16.136719 -23.40625 C 16.421875 -23.121094 16.566406 -22.75 16.566406 -22.292969 L 16.566406 -0.523438 C 16.566406 -0.0664062 16.421875 0.304688 16.136719 0.589844 C 15.851562 0.875 15.480469 1.019531 15.027344 1.019531 L 12.449219 1.019531 C 12.101562 1.019531 11.789062 0.917969 11.511719 0.71875 C 11.269531 0.546875 11.078125 0.304688 10.941406 0.00390625 L 11.863281 -0.421875 L 10.949219 0.0273438 L 4.824219 -12.425781 L 5.738281 -12.875 L 6.753906 -12.875 L 6.753906 -0.523438 C 6.753906 -0.0664062 6.613281 0.304688 6.328125 0.589844 C 6.039062 0.875 5.671875 1.019531 5.214844 1.019531 L 2.152344 1.019531 C 1.695312 1.019531 1.324219 0.875 1.039062 0.589844 C 0.753906 0.304688 0.609375 -0.0664062 0.609375 -0.523438 L 0.609375 -22.292969 C 0.609375 -22.75 0.753906 -23.121094 1.039062 -23.40625 C 1.324219 -23.691406 1.695312 -23.835938 2.152344 -23.835938 L 4.726562 -23.835938 C 5.078125 -23.835938 5.390625 -23.734375 5.664062 -23.535156 C 5.90625 -23.359375 6.097656 -23.121094 6.238281 -22.820312 L 5.3125 -22.390625 L 6.226562 -22.84375 L 12.355469 -10.390625 L 11.441406 -9.941406 L 10.421875 -9.941406 L 10.421875 -22.292969 C 10.421875 -22.75 10.566406 -23.121094 10.851562 -23.40625 C 11.136719 -23.691406 11.507812 -23.835938 11.960938 -23.835938 Z M 11.960938 -21.796875 C 11.984375 -21.796875 12.015625 -21.804688 12.054688 -21.816406 C 12.144531 -21.847656 12.222656 -21.894531 12.292969 -21.964844 C 12.359375 -22.035156 12.410156 -22.113281 12.441406 -22.199219 C 12.453125 -22.238281 12.460938 -22.269531 12.460938 -22.292969 L 12.460938 -9.941406 L 10.527344 -9.492188 L 4.394531 -21.953125 L 4.386719 -21.964844 C 4.398438 -21.945312 4.425781 -21.917969 4.472656 -21.882812 C 4.550781 -21.828125 4.636719 -21.796875 4.726562 -21.796875 L 2.152344 -21.796875 C 2.175781 -21.796875 2.207031 -21.804688 2.246094 -21.816406 C 2.332031 -21.847656 2.410156 -21.894531 2.480469 -21.964844 C 2.550781 -22.035156 2.601562 -22.113281 2.628906 -22.199219 C 2.640625 -22.238281 2.648438 -22.269531 2.648438 -22.292969 L 2.648438 -0.523438 C 2.648438 -0.542969 2.640625 -0.574219 2.628906 -0.617188 C 2.601562 -0.703125 2.550781 -0.78125 2.480469 -0.851562 C 2.410156 -0.921875 2.332031 -0.96875 2.246094 -1 C 2.207031 -1.011719 2.175781 -1.019531 2.152344 -1.019531 L 5.214844 -1.019531 C 5.191406 -1.019531 5.160156 -1.011719 5.121094 -1 C 5.035156 -0.96875 4.957031 -0.921875 4.886719 -0.851562 C 4.816406 -0.78125 4.765625 -0.703125 4.738281 -0.617188 C 4.722656 -0.574219 4.71875 -0.542969 4.71875 -0.523438 L 4.71875 -12.875 L 6.652344 -13.324219 L 12.785156 -0.863281 L 12.789062 -0.851562 C 12.78125 -0.871094 12.75 -0.898438 12.707031 -0.933594 C 12.625 -0.988281 12.539062 -1.019531 12.449219 -1.019531 L 15.027344 -1.019531 C 15.003906 -1.019531 14.972656 -1.011719 14.933594 -1 C 14.84375 -0.96875 14.765625 -0.921875 14.695312 -0.851562 C 14.628906 -0.78125 14.578125 -0.703125 14.546875 -0.617188 C 14.535156 -0.574219 14.527344 -0.542969 14.527344 -0.523438 L 14.527344 -22.292969 C 14.527344 -22.269531 14.535156 -22.238281 14.546875 -22.199219 C 14.578125 -22.113281 14.628906 -22.035156 14.695312 -21.964844 C 14.765625 -21.894531 14.84375 -21.847656 14.933594 -21.816406 C 14.972656 -21.804688 15.003906 -21.796875 15.027344 -21.796875 Z M 11.960938 -21.796875 "/></g></g><g style="fill:#b21a22;fill-opacity:1;"><g transform="translate(108.044397, 107.527672)"><path style="stroke:none" d="M 0.609375 -4.695312 L 0.609375 -18.121094 C 0.609375 -19.949219 1.113281 -21.359375 2.121094 -22.351562 C 3.121094 -23.339844 4.523438 -23.835938 6.324219 -23.835938 L 9.972656 -23.835938 C 11.773438 -23.835938 13.175781 -23.339844 14.175781 -22.351562 C 15.183594 -21.359375 15.6875 -19.949219 15.6875 -18.121094 L 15.6875 -15.710938 C 15.6875 -15.253906 15.542969 -14.886719 15.257812 -14.597656 C 14.972656 -14.3125 14.601562 -14.171875 14.144531 -14.171875 L 11.082031 -14.171875 C 10.628906 -14.171875 10.257812 -14.3125 9.972656 -14.597656 C 9.683594 -14.886719 9.542969 -15.253906 9.542969 -15.710938 L 9.542969 -17.308594 C 9.542969 -17.414062 9.53125 -17.496094 9.511719 -17.554688 C 9.507812 -17.566406 9.507812 -17.574219 9.503906 -17.578125 C 9.507812 -17.574219 9.507812 -17.570312 9.515625 -17.566406 C 9.519531 -17.558594 9.523438 -17.558594 9.527344 -17.554688 C 9.523438 -17.558594 9.515625 -17.558594 9.503906 -17.5625 C 9.445312 -17.582031 9.363281 -17.59375 9.257812 -17.59375 L 7.171875 -17.59375 C 7.0625 -17.59375 6.980469 -17.582031 6.921875 -17.5625 C 6.910156 -17.558594 6.90625 -17.558594 6.902344 -17.554688 C 6.902344 -17.558594 6.910156 -17.558594 6.914062 -17.566406 C 6.917969 -17.570312 6.921875 -17.574219 6.925781 -17.578125 C 6.921875 -17.574219 6.917969 -17.566406 6.914062 -17.554688 C 6.894531 -17.496094 6.886719 -17.414062 6.886719 -17.308594 L 6.886719 -5.507812 C 6.886719 -5.402344 6.894531 -5.320312 6.914062 -5.261719 C 6.917969 -5.25 6.921875 -5.242188 6.925781 -5.238281 C 6.921875 -5.242188 6.917969 -5.246094 6.914062 -5.25 C 6.910156 -5.253906 6.902344 -5.257812 6.902344 -5.261719 C 6.90625 -5.257812 6.910156 -5.257812 6.921875 -5.253906 C 6.980469 -5.234375 7.0625 -5.222656 7.171875 -5.222656 L 9.257812 -5.222656 C 9.363281 -5.222656 9.445312 -5.234375 9.503906 -5.253906 C 9.515625 -5.257812 9.523438 -5.257812 9.527344 -5.261719 C 9.523438 -5.257812 9.519531 -5.253906 9.515625 -5.25 C 9.507812 -5.246094 9.507812 -5.242188 9.503906 -5.238281 C 9.507812 -5.242188 9.507812 -5.25 9.511719 -5.261719 C 9.53125 -5.320312 9.542969 -5.402344 9.542969 -5.507812 L 9.542969 -8.34375 L 10.5625 -8.34375 L 10.5625 -7.324219 L 8.867188 -7.324219 C 8.410156 -7.324219 8.039062 -7.46875 7.753906 -7.753906 C 7.46875 -8.039062 7.324219 -8.410156 7.324219 -8.867188 L 7.324219 -12.125 C 7.324219 -12.582031 7.46875 -12.949219 7.753906 -13.238281 C 8.039062 -13.523438 8.410156 -13.664062 8.867188 -13.664062 L 14.144531 -13.664062 C 14.601562 -13.664062 14.972656 -13.523438 15.257812 -13.238281 C 15.542969 -12.949219 15.6875 -12.582031 15.6875 -12.125 L 15.6875 -4.695312 C 15.6875 -2.890625 15.183594 -1.488281 14.183594 -0.484375 C 13.179688 0.515625 11.777344 1.019531 9.972656 1.019531 L 6.324219 1.019531 C 4.519531 1.019531 3.117188 0.515625 2.117188 -0.484375 C 1.113281 -1.488281 0.609375 -2.890625 0.609375 -4.695312 Z M 2.648438 -4.695312 C 2.648438 -3.453125 2.949219 -2.53125 3.554688 -1.925781 C 4.160156 -1.320312 5.082031 -1.019531 6.324219 -1.019531 L 9.972656 -1.019531 C 11.214844 -1.019531 12.136719 -1.320312 12.742188 -1.925781 C 13.347656 -2.53125 13.648438 -3.453125 13.648438 -4.695312 L 13.648438 -12.125 C 13.648438 -12.101562 13.65625 -12.070312 13.667969 -12.03125 C 13.699219 -11.945312 13.746094 -11.867188 13.816406 -11.796875 C 13.886719 -11.726562 13.964844 -11.675781 14.050781 -11.648438 C 14.089844 -11.632812 14.121094 -11.628906 14.144531 -11.628906 L 8.867188 -11.628906 C 8.890625 -11.628906 8.921875 -11.632812 8.960938 -11.648438 C 9.046875 -11.675781 9.125 -11.726562 9.195312 -11.796875 C 9.265625 -11.867188 9.3125 -11.945312 9.34375 -12.03125 C 9.355469 -12.070312 9.363281 -12.101562 9.363281 -12.125 L 9.363281 -8.867188 C 9.363281 -8.890625 9.355469 -8.921875 9.34375 -8.960938 C 9.3125 -9.046875 9.265625 -9.125 9.195312 -9.195312 C 9.125 -9.265625 9.046875 -9.3125 8.960938 -9.34375 C 8.921875 -9.355469 8.890625 -9.363281 8.867188 -9.363281 L 11.578125 -9.363281 L 11.578125 -5.507812 C 11.578125 -4.792969 11.371094 -4.226562 10.953125 -3.808594 C 10.539062 -3.394531 9.972656 -3.1875 9.257812 -3.1875 L 7.171875 -3.1875 C 6.453125 -3.1875 5.890625 -3.394531 5.472656 -3.808594 C 5.054688 -4.226562 4.847656 -4.792969 4.847656 -5.507812 L 4.847656 -17.308594 C 4.847656 -18.023438 5.054688 -18.589844 5.472656 -19.003906 C 5.890625 -19.421875 6.453125 -19.628906 7.171875 -19.628906 L 9.257812 -19.628906 C 9.972656 -19.628906 10.539062 -19.421875 10.953125 -19.003906 C 11.371094 -18.589844 11.578125 -18.023438 11.578125 -17.308594 L 11.578125 -15.710938 C 11.578125 -15.734375 11.574219 -15.765625 11.558594 -15.804688 C 11.53125 -15.890625 11.480469 -15.96875 11.410156 -16.039062 C 11.339844 -16.109375 11.261719 -16.160156 11.175781 -16.1875 C 11.136719 -16.199219 11.105469 -16.207031 11.082031 -16.207031 L 14.144531 -16.207031 C 14.121094 -16.207031 14.089844 -16.199219 14.050781 -16.1875 C 13.964844 -16.160156 13.886719 -16.109375 13.816406 -16.039062 C 13.746094 -15.96875 13.699219 -15.890625 13.667969 -15.804688 C 13.65625 -15.765625 13.648438 -15.734375 13.648438 -15.710938 L 13.648438 -18.121094 C 13.648438 -19.382812 13.347656 -20.308594 12.746094 -20.902344 C 12.140625 -21.5 11.214844 -21.796875 9.972656 -21.796875 L 6.324219 -21.796875 C 5.082031 -21.796875 4.15625 -21.5 3.550781 -20.902344 C 2.949219 -20.308594 2.648438 -19.382812 2.648438 -18.121094 Z M 2.648438 -4.695312 "/></g></g><g style="fill:#060705;fill-opacity:1;"><g transform="translate(20.79224, 62.085301)"><path style="stroke:none" d="M 1.625 -0.515625 L 1.625 -22.296875 C 1.625 -22.640625 1.800781 -22.8125 2.15625 -22.8125 L 9.96875 -22.8125 C 11.507812 -22.8125 12.675781 -22.410156 13.46875 -21.609375 C 14.269531 -20.804688 14.671875 -19.632812 14.671875 -18.09375 L 14.671875 -4.6875 C 14.671875 -3.164062 14.269531 -2.003906 13.46875 -1.203125 C 12.675781 -0.398438 11.507812 0 9.96875 0 L 2.15625 0 C 1.800781 0 1.625 -0.171875 1.625 -0.515625 Z M 6.0625 -4.296875 L 9.0625 -4.296875 C 9.925781 -4.296875 10.359375 -4.734375 10.359375 -5.609375 L 10.359375 -17.171875 C 10.359375 -18.066406 9.925781 -18.515625 9.0625 -18.515625 L 6.0625 -18.515625 Z M 6.0625 -4.296875 "/></g></g><g style="fill:#060705;fill-opacity:1;"><g transform="translate(37.084376, 62.085301)"><path style="stroke:none" d="M 14.640625 -22.296875 L 14.640625 -19.03125 C 14.640625 -18.664062 14.460938 -18.484375 14.109375 -18.484375 L 6.0625 -18.484375 L 6.0625 -13.46875 L 12.1875 -13.46875 C 12.539062 -13.46875 12.71875 -13.28125 12.71875 -12.90625 L 12.71875 -9.6875 C 12.71875 -9.3125 12.539062 -9.125 12.1875 -9.125 L 6.0625 -9.125 L 6.0625 -4.296875 L 14.109375 -4.296875 C 14.460938 -4.296875 14.640625 -4.125 14.640625 -3.78125 L 14.640625 -0.515625 C 14.640625 -0.171875 14.460938 0 14.109375 0 L 2.125 0 C 1.789062 0 1.625 -0.171875 1.625 -0.515625 L 1.625 -22.296875 C 1.625 -22.640625 1.789062 -22.8125 2.125 -22.8125 L 14.109375 -22.8125 C 14.460938 -22.8125 14.640625 -22.640625 14.640625 -22.296875 Z M 14.640625 -22.296875 "/></g></g><g style="fill:#060705;fill-opacity:1;"><g transform="translate(53.343921, 62.085301)"><path style="stroke:none" d="M 14.703125 -18.125 L 14.703125 -13.71875 C 14.703125 -13.113281 14.503906 -12.601562 14.109375 -12.1875 C 13.722656 -11.78125 13.234375 -11.519531 12.640625 -11.40625 L 12.640625 -11.34375 C 13.234375 -11.257812 13.722656 -11.003906 14.109375 -10.578125 C 14.503906 -10.148438 14.703125 -9.632812 14.703125 -9.03125 L 14.703125 -4.6875 C 14.703125 -3.164062 14.296875 -2.003906 13.484375 -1.203125 C 12.679688 -0.398438 11.507812 0 9.96875 0 L 2.15625 0 C 1.800781 0 1.625 -0.171875 1.625 -0.515625 L 1.625 -22.296875 C 1.625 -22.640625 1.800781 -22.8125 2.15625 -22.8125 L 9.96875 -22.8125 C 11.507812 -22.8125 12.679688 -22.414062 13.484375 -21.625 C 14.296875 -20.832031 14.703125 -19.664062 14.703125 -18.125 Z M 10.5625 -14.796875 L 10.5625 -17.40625 C 10.5625 -18.269531 10.125 -18.703125 9.25 -18.703125 L 5.671875 -18.703125 L 5.671875 -13.53125 L 9.25 -13.53125 C 10.125 -13.53125 10.5625 -13.953125 10.5625 -14.796875 Z M 10.5625 -5.40625 L 10.5625 -7.921875 C 10.5625 -8.785156 10.125 -9.21875 9.25 -9.21875 L 5.671875 -9.21875 L 5.671875 -4.109375 L 9.25 -4.109375 C 10.125 -4.109375 10.5625 -4.539062 10.5625 -5.40625 Z M 10.5625 -5.40625 "/></g></g><g style="fill:#060705;fill-opacity:1;"><g transform="translate(69.668646, 62.085301)"><path style="stroke:none" d="M 11.015625 -22.8125 L 14.015625 -22.8125 C 14.191406 -22.8125 14.34375 -22.742188 14.46875 -22.609375 C 14.601562 -22.484375 14.671875 -22.332031 14.671875 -22.15625 L 14.671875 -4.6875 C 14.671875 -3.164062 14.269531 -2.003906 13.46875 -1.203125 C 12.675781 -0.398438 11.507812 0 9.96875 0 L 6.328125 0 C 4.804688 0 3.640625 -0.398438 2.828125 -1.203125 C 2.023438 -2.003906 1.625 -3.164062 1.625 -4.6875 L 1.625 -22.15625 C 1.625 -22.332031 1.6875 -22.484375 1.8125 -22.609375 C 1.945312 -22.742188 2.101562 -22.8125 2.28125 -22.8125 L 5.40625 -22.8125 C 5.582031 -22.8125 5.734375 -22.742188 5.859375 -22.609375 C 5.992188 -22.484375 6.0625 -22.332031 6.0625 -22.15625 L 6.0625 -5.609375 C 6.0625 -4.734375 6.492188 -4.296875 7.359375 -4.296875 L 9.0625 -4.296875 C 9.925781 -4.296875 10.359375 -4.734375 10.359375 -5.609375 L 10.359375 -22.15625 C 10.359375 -22.332031 10.421875 -22.484375 10.546875 -22.609375 C 10.679688 -22.742188 10.835938 -22.8125 11.015625 -22.8125 Z M 11.015625 -22.8125 "/></g></g><g style="fill:#060705;fill-opacity:1;"><g transform="translate(85.960782, 62.085301)"><path style="stroke:none" d="M 1.625 -4.6875 L 1.625 -18.125 C 1.625 -19.664062 2.023438 -20.832031 2.828125 -21.625 C 3.640625 -22.414062 4.804688 -22.8125 6.328125 -22.8125 L 9.96875 -22.8125 C 11.488281 -22.8125 12.648438 -22.414062 13.453125 -21.625 C 14.265625 -20.832031 14.671875 -19.664062 14.671875 -18.125 L 14.671875 -15.703125 C 14.671875 -15.359375 14.492188 -15.1875 14.140625 -15.1875 L 11.078125 -15.1875 C 10.734375 -15.1875 10.5625 -15.359375 10.5625 -15.703125 L 10.5625 -17.3125 C 10.5625 -18.175781 10.125 -18.609375 9.25 -18.609375 L 7.171875 -18.609375 C 6.296875 -18.609375 5.859375 -18.175781 5.859375 -17.3125 L 5.859375 -5.515625 C 5.859375 -4.640625 6.296875 -4.203125 7.171875 -4.203125 L 9.25 -4.203125 C 10.125 -4.203125 10.5625 -4.640625 10.5625 -5.515625 L 10.5625 -8.34375 L 8.859375 -8.34375 C 8.515625 -8.34375 8.34375 -8.515625 8.34375 -8.859375 L 8.34375 -12.125 C 8.34375 -12.46875 8.515625 -12.640625 8.859375 -12.640625 L 14.140625 -12.640625 C 14.492188 -12.640625 14.671875 -12.46875 14.671875 -12.125 L 14.671875 -4.6875 C 14.671875 -3.164062 14.265625 -2.003906 13.453125 -1.203125 C 12.648438 -0.398438 11.488281 0 9.96875 0 L 6.328125 0 C 4.804688 0 3.640625 -0.398438 2.828125 -1.203125 C 2.023438 -2.003906 1.625 -3.164062 1.625 -4.6875 Z M 1.625 -4.6875 "/></g></g><g style="fill:#060705;fill-opacity:1;"><g transform="translate(102.252917, 62.085301)"><path style="stroke:none" d="M 0 4.375 L 0 1.375 C 0 0.9375 0.21875 0.71875 0.65625 0.71875 L 20.3125 0.71875 C 20.738281 0.71875 20.953125 0.9375 20.953125 1.375 L 20.953125 4.375 C 20.953125 4.800781 20.738281 5.015625 20.3125 5.015625 L 0.65625 5.015625 C 0.21875 5.015625 0 4.800781 0 4.375 Z M 0 4.375 "/></g></g><g style="fill:#060705;fill-opacity:1;"><g transform="translate(19.643271, 107.527672)"><path style="stroke:none" d="M 6.0625 -4.296875 L 6.0625 -22.296875 C 6.0625 -22.640625 5.890625 -22.8125 5.546875 -22.8125 L 2.15625 -22.8125 C 1.800781 -22.8125 1.625 -22.640625 1.625 -22.296875 L 1.625 -0.515625 C 1.625 -0.171875 1.800781 0 2.15625 0 L 12.515625 0 C 12.859375 0 13.03125 -0.171875 13.03125 -0.515625 L 13.03125 -3.78125 C 13.03125 -4.125 12.859375 -4.296875 12.515625 -4.296875 Z M 6.0625 -4.296875 "/></g></g><g style="fill:#060705;fill-opacity:1;"><g transform="translate(34.306192, 107.527672)"><path style="stroke:none" d="M 1.625 -4.6875 L 1.625 -18.125 C 1.625 -19.664062 2.023438 -20.832031 2.828125 -21.625 C 3.640625 -22.414062 4.804688 -22.8125 6.328125 -22.8125 L 9.96875 -22.8125 C 11.507812 -22.8125 12.675781 -22.414062 13.46875 -21.625 C 14.269531 -20.832031 14.671875 -19.664062 14.671875 -18.125 L 14.671875 -4.6875 C 14.671875 -3.164062 14.269531 -2.003906 13.46875 -1.203125 C 12.675781 -0.398438 11.507812 0 9.96875 0 L 6.328125 0 C 4.804688 0 3.640625 -0.398438 2.828125 -1.203125 C 2.023438 -2.003906 1.625 -3.164062 1.625 -4.6875 Z M 7.171875 -4.203125 L 9.25 -4.203125 C 10.125 -4.203125 10.5625 -4.640625 10.5625 -5.515625 L 10.5625 -17.3125 C 10.5625 -18.175781 10.125 -18.609375 9.25 -18.609375 L 7.171875 -18.609375 C 6.296875 -18.609375 5.859375 -18.175781 5.859375 -17.3125 L 5.859375 -5.515625 C 5.859375 -4.640625 6.296875 -4.203125 7.171875 -4.203125 Z M 7.171875 -4.203125 "/></g></g><g style="fill:#060705;fill-opacity:1;"><g transform="translate(50.598327, 107.527672)"><path style="stroke:none" d="M 1.625 -4.6875 L 1.625 -18.125 C 1.625 -19.664062 2.023438 -20.832031 2.828125 -21.625 C 3.640625 -22.414062 4.804688 -22.8125 6.328125 -22.8125 L 9.96875 -22.8125 C 11.488281 -22.8125 12.648438 -22.414062 13.453125 -21.625 C 14.265625 -20.832031 14.671875 -19.664062 14.671875 -18.125 L 14.671875 -15.703125 C 14.671875 -15.359375 14.492188 -15.1875 14.140625 -15.1875 L 11.078125 -15.1875 C 10.734375 -15.1875 10.5625 -15.359375 10.5625 -15.703125 L 10.5625 -17.3125 C 10.5625 -18.175781 10.125 -18.609375 9.25 -18.609375 L 7.171875 -18.609375 C 6.296875 -18.609375 5.859375 -18.175781 5.859375 -17.3125 L 5.859375 -5.515625 C 5.859375 -4.640625 6.296875 -4.203125 7.171875 -4.203125 L 9.25 -4.203125 C 10.125 -4.203125 10.5625 -4.640625 10.5625 -5.515625 L 10.5625 -8.34375 L 8.859375 -8.34375 C 8.515625 -8.34375 8.34375 -8.515625 8.34375 -8.859375 L 8.34375 -12.125 C 8.34375 -12.46875 8.515625 -12.640625 8.859375 -12.640625 L 14.140625 -12.640625 C 14.492188 -12.640625 14.671875 -12.46875 14.671875 -12.125 L 14.671875 -4.6875 C 14.671875 -3.164062 14.265625 -2.003906 13.453125 -1.203125 C 12.648438 -0.398438 11.488281 0 9.96875 0 L 6.328125 0 C 4.804688 0 3.640625 -0.398438 2.828125 -1.203125 C 2.023438 -2.003906 1.625 -3.164062 1.625 -4.6875 Z M 1.625 -4.6875 "/></g></g><g style="fill:#060705;fill-opacity:1;"><g transform="translate(66.890462, 107.527672)"><path style="stroke:none" d="M 1.625 -4.6875 L 1.625 -18.125 C 1.625 -19.664062 2.023438 -20.832031 2.828125 -21.625 C 3.640625 -22.414062 4.804688 -22.8125 6.328125 -22.8125 L 9.96875 -22.8125 C 11.488281 -22.8125 12.648438 -22.414062 13.453125 -21.625 C 14.265625 -20.832031 14.671875 -19.664062 14.671875 -18.125 L 14.671875 -15.703125 C 14.671875 -15.359375 14.492188 -15.1875 14.140625 -15.1875 L 11.078125 -15.1875 C 10.734375 -15.1875 10.5625 -15.359375 10.5625 -15.703125 L 10.5625 -17.3125 C 10.5625 -18.175781 10.125 -18.609375 9.25 -18.609375 L 7.171875 -18.609375 C 6.296875 -18.609375 5.859375 -18.175781 5.859375 -17.3125 L 5.859375 -5.515625 C 5.859375 -4.640625 6.296875 -4.203125 7.171875 -4.203125 L 9.25 -4.203125 C 10.125 -4.203125 10.5625 -4.640625 10.5625 -5.515625 L 10.5625 -8.34375 L 8.859375 -8.34375 C 8.515625 -8.34375 8.34375 -8.515625 8.34375 -8.859375 L 8.34375 -12.125 C 8.34375 -12.46875 8.515625 -12.640625 8.859375 -12.640625 L 14.140625 -12.640625 C 14.492188 -12.640625 14.671875 -12.46875 14.671875 -12.125 L 14.671875 -4.6875 C 14.671875 -3.164062 14.265625 -2.003906 13.453125 -1.203125 C 12.648438 -0.398438 11.488281 0 9.96875 0 L 6.328125 0 C 4.804688 0 3.640625 -0.398438 2.828125 -1.203125 C 2.023438 -2.003906 1.625 -3.164062 1.625 -4.6875 Z M 1.625 -4.6875 "/></g></g><g style="fill:#060705;fill-opacity:1;"><g transform="translate(83.182598, 107.527672)"><path style="stroke:none" d="M 2.15625 0 L 5.546875 0 C 5.890625 0 6.0625 -0.171875 6.0625 -0.515625 L 6.0625 -22.296875 C 6.0625 -22.640625 5.890625 -22.8125 5.546875 -22.8125 L 2.15625 -22.8125 C 1.800781 -22.8125 1.625 -22.640625 1.625 -22.296875 L 1.625 -0.515625 C 1.625 -0.171875 1.800781 0 2.15625 0 Z M 2.15625 0 "/></g></g><g style="fill:#060705;fill-opacity:1;"><g transform="translate(90.872481, 107.527672)"><path style="stroke:none" d="M 11.96875 -22.8125 L 15.03125 -22.8125 C 15.375 -22.8125 15.546875 -22.640625 15.546875 -22.296875 L 15.546875 -0.515625 C 15.546875 -0.171875 15.375 0 15.03125 0 L 12.453125 0 C 12.191406 0 11.992188 -0.140625 11.859375 -0.421875 L 5.734375 -12.875 L 5.734375 -0.515625 C 5.734375 -0.171875 5.5625 0 5.21875 0 L 2.15625 0 C 1.800781 0 1.625 -0.171875 1.625 -0.515625 L 1.625 -22.296875 C 1.625 -22.640625 1.800781 -22.8125 2.15625 -22.8125 L 4.71875 -22.8125 C 4.988281 -22.8125 5.1875 -22.671875 5.3125 -22.390625 L 11.4375 -9.9375 L 11.4375 -22.296875 C 11.4375 -22.640625 11.613281 -22.8125 11.96875 -22.8125 Z M 11.96875 -22.8125 "/></g></g><g style="fill:#060705;fill-opacity:1;"><g transform="translate(108.044397, 107.527672)"><path style="stroke:none" d="M 1.625 -4.6875 L 1.625 -18.125 C 1.625 -19.664062 2.023438 -20.832031 2.828125 -21.625 C 3.640625 -22.414062 4.804688 -22.8125 6.328125 -22.8125 L 9.96875 -22.8125 C 11.488281 -22.8125 12.648438 -22.414062 13.453125 -21.625 C 14.265625 -20.832031 14.671875 -19.664062 14.671875 -18.125 L 14.671875 -15.703125 C 14.671875 -15.359375 14.492188 -15.1875 14.140625 -15.1875 L 11.078125 -15.1875 C 10.734375 -15.1875 10.5625 -15.359375 10.5625 -15.703125 L 10.5625 -17.3125 C 10.5625 -18.175781 10.125 -18.609375 9.25 -18.609375 L 7.171875 -18.609375 C 6.296875 -18.609375 5.859375 -18.175781 5.859375 -17.3125 L 5.859375 -5.515625 C 5.859375 -4.640625 6.296875 -4.203125 7.171875 -4.203125 L 9.25 -4.203125 C 10.125 -4.203125 10.5625 -4.640625 10.5625 -5.515625 L 10.5625 -8.34375 L 8.859375 -8.34375 C 8.515625 -8.34375 8.34375 -8.515625 8.34375 -8.859375 L 8.34375 -12.125 C 8.34375 -12.46875 8.515625 -12.640625 8.859375 -12.640625 L 14.140625 -12.640625 C 14.492188 -12.640625 14.671875 -12.46875 14.671875 -12.125 L 14.671875 -4.6875 C 14.671875 -3.164062 14.265625 -2.003906 13.453125 -1.203125 C 12.648438 -0.398438 11.488281 0 9.96875 0 L 6.328125 0 C 4.804688 0 3.640625 -0.398438 2.828125 -1.203125 C 2.023438 -2.003906 1.625 -3.164062 1.625 -4.6875 Z M 1.625 -4.6875 "/></g></g></g></svg>