<svg xmlns="http://www.w3.org/2000/svg" xmlns:xlink="http://www.w3.org/1999/xlink" width="128" zoomAndPan="magnify" viewBox="0 0 96 95.999999" height="128" preserveAspectRatio="xMidYMid meet" version="1.2"><defs><clipPath id="7b1649cee1"><path d="M 6 0 L 90 0 L 90 96 L 6 96 Z M 6 0 "/></clipPath><clipPath id="c36ee7fbd9"><path d="M -14.304688 36.578125 L 68.691406 -11.898438 L 110.335938 59.402344 L 27.339844 107.878906 Z M -14.304688 36.578125 "/></clipPath><clipPath id="3aa7c5eff9"><path d="M 89.484375 23.769531 L 89.5625 71.535156 L 48.082031 95.765625 L 6.515625 72.226562 L 6.4375 24.464844 L 47.921875 0.234375 Z M 89.484375 23.769531 "/></clipPath><clipPath id="4b272e5282"><path d="M 14.140625 9.121094 L 81.851562 9.121094 L 81.851562 86.839844 L 14.140625 86.839844 Z M 14.140625 9.121094 "/></clipPath></defs><g id="f8f5f87bfd"><g clip-rule="nonzero" clip-path="url(#7b1649cee1)"><g clip-rule="nonzero" clip-path="url(#c36ee7fbd9)"><g clip-rule="nonzero" clip-path="url(#3aa7c5eff9)"><path style=" stroke:none;fill-rule:nonzero;fill:#65b30e;fill-opacity:1;" d="M -14.304688 36.578125 L 68.691406 -11.898438 L 110.335938 59.402344 L 27.339844 107.878906 Z M -14.304688 36.578125 "/></g></g></g><path style=" stroke:none;fill-rule:nonzero;fill:#87ff00;fill-opacity:1;" d="M 34.453125 34.738281 L 34.410156 34.695312 L 24.839844 44.265625 L 48.074219 67.457031 L 57.644531 57.933594 L 71.308594 44.265625 L 61.738281 34.695312 L 61.738281 34.652344 L 34.410156 34.652344 Z M 34.453125 34.738281 "/><g clip-rule="nonzero" clip-path="url(#4b272e5282)"><path style=" stroke:none;fill-rule:nonzero;fill:#87ff00;fill-opacity:1;" d="M 47.988281 9.179688 L 14.148438 28.574219 L 14.148438 67.371094 L 47.988281 86.769531 L 81.828125 67.371094 L 81.828125 28.574219 Z M 75.359375 63.664062 L 47.988281 79.4375 L 20.613281 63.664062 L 20.617188 32.195312 L 47.988281 16.417969 L 75.363281 32.195312 L 75.363281 63.664062 Z M 75.359375 63.664062 "/></g><g style="fill:#b21a22;fill-opacity:1;"><g transform="translate(9.977146, 42.032808)"><path style="stroke:none" d="M 9.441406 -10.90625 L 9.441406 -6.964844 C 9.441406 -5.601562 8.980469 -4.628906 8.054688 -4.050781 L 7.730469 -4.570312 L 8.324219 -4.714844 L 9.34375 -0.496094 L 8.75 -0.351562 L 9.339844 -0.515625 C 9.425781 -0.203125 9.386719 0.0664062 9.214844 0.289062 C 9.046875 0.503906 8.796875 0.613281 8.472656 0.613281 L 6.550781 0.613281 C 6.3125 0.613281 6.109375 0.542969 5.941406 0.40625 C 5.777344 0.269531 5.667969 0.0859375 5.621094 -0.144531 L 6.21875 -0.273438 L 5.621094 -0.128906 L 4.679688 -3.992188 L 5.277344 -4.140625 L 5.277344 -3.527344 L 3.53125 -3.527344 L 3.53125 -4.140625 L 4.144531 -4.140625 L 4.144531 -0.3125 C 4.144531 -0.0390625 4.058594 0.183594 3.886719 0.355469 C 3.714844 0.527344 3.492188 0.613281 3.21875 0.613281 L 1.292969 0.613281 C 1.019531 0.613281 0.796875 0.527344 0.625 0.355469 C 0.453125 0.183594 0.367188 -0.0390625 0.367188 -0.3125 L 0.367188 -13.417969 C 0.367188 -13.691406 0.453125 -13.914062 0.625 -14.085938 C 0.796875 -14.257812 1.019531 -14.34375 1.292969 -14.34375 L 6.003906 -14.34375 C 7.101562 -14.34375 7.949219 -14.046875 8.546875 -13.449219 C 9.140625 -12.851562 9.441406 -12.003906 9.441406 -10.90625 Z M 8.214844 -10.90625 C 8.214844 -11.667969 8.035156 -12.226562 7.679688 -12.582031 C 7.320312 -12.941406 6.761719 -13.117188 6.003906 -13.117188 L 1.292969 -13.117188 C 1.308594 -13.117188 1.328125 -13.121094 1.351562 -13.128906 C 1.402344 -13.148438 1.449219 -13.179688 1.492188 -13.21875 C 1.535156 -13.261719 1.566406 -13.308594 1.582031 -13.363281 C 1.589844 -13.386719 1.59375 -13.402344 1.59375 -13.417969 L 1.59375 -0.3125 C 1.59375 -0.328125 1.589844 -0.347656 1.582031 -0.371094 C 1.566406 -0.421875 1.535156 -0.46875 1.492188 -0.511719 C 1.449219 -0.554688 1.402344 -0.582031 1.351562 -0.601562 C 1.328125 -0.609375 1.308594 -0.613281 1.292969 -0.613281 L 3.21875 -0.613281 C 3.203125 -0.613281 3.183594 -0.609375 3.160156 -0.601562 C 3.109375 -0.582031 3.0625 -0.554688 3.019531 -0.511719 C 2.976562 -0.46875 2.949219 -0.421875 2.929688 -0.371094 C 2.921875 -0.347656 2.917969 -0.328125 2.917969 -0.3125 L 2.917969 -4.753906 L 5.757812 -4.753906 L 6.816406 -0.410156 L 6.816406 -0.402344 C 6.808594 -0.449219 6.777344 -0.496094 6.722656 -0.542969 C 6.664062 -0.589844 6.605469 -0.613281 6.550781 -0.613281 L 8.476562 -0.613281 C 8.460938 -0.609375 8.445312 -0.605469 8.429688 -0.601562 C 8.359375 -0.578125 8.296875 -0.53125 8.246094 -0.464844 C 8.191406 -0.398438 8.164062 -0.324219 8.15625 -0.242188 C 8.15625 -0.21875 8.15625 -0.199219 8.160156 -0.1875 L 8.15625 -0.199219 L 7.03125 -4.855469 L 7.402344 -5.089844 C 7.945312 -5.429688 8.214844 -6.054688 8.214844 -6.964844 Z M 3.53125 -7.28125 L 5.492188 -7.28125 C 5.558594 -7.28125 5.605469 -7.289062 5.640625 -7.300781 C 5.648438 -7.300781 5.652344 -7.304688 5.65625 -7.304688 C 5.652344 -7.304688 5.652344 -7.300781 5.648438 -7.300781 C 5.644531 -7.296875 5.644531 -7.292969 5.640625 -7.292969 C 5.644531 -7.292969 5.644531 -7.296875 5.648438 -7.304688 C 5.660156 -7.339844 5.664062 -7.390625 5.664062 -7.453125 L 5.664062 -10.417969 C 5.664062 -10.480469 5.660156 -10.53125 5.648438 -10.566406 C 5.644531 -10.574219 5.644531 -10.578125 5.640625 -10.578125 C 5.644531 -10.578125 5.644531 -10.574219 5.648438 -10.570312 C 5.652344 -10.570312 5.652344 -10.566406 5.65625 -10.566406 C 5.652344 -10.566406 5.648438 -10.570312 5.640625 -10.570312 C 5.605469 -10.582031 5.558594 -10.589844 5.492188 -10.589844 L 3.53125 -10.589844 L 3.53125 -11.203125 L 4.144531 -11.203125 L 4.144531 -6.667969 L 3.53125 -6.667969 Z M 2.917969 -6.058594 L 2.917969 -11.816406 L 5.492188 -11.816406 C 5.921875 -11.816406 6.265625 -11.6875 6.515625 -11.4375 C 6.765625 -11.1875 6.890625 -10.847656 6.890625 -10.417969 L 6.890625 -7.453125 C 6.890625 -7.023438 6.765625 -6.683594 6.515625 -6.433594 C 6.265625 -6.183594 5.921875 -6.058594 5.492188 -6.058594 Z M 2.917969 -6.058594 "/></g></g><g style="fill:#b21a22;fill-opacity:1;"><g transform="translate(19.782614, 42.032808)"><path style="stroke:none" d="M 9.421875 -13.417969 L 9.421875 -11.457031 C 9.421875 -11.183594 9.339844 -10.960938 9.175781 -10.785156 C 9.003906 -10.601562 8.777344 -10.511719 8.496094 -10.511719 L 3.648438 -10.511719 L 3.648438 -11.121094 L 4.261719 -11.121094 L 4.261719 -8.101562 L 3.648438 -8.101562 L 3.648438 -8.714844 L 7.335938 -8.714844 C 7.617188 -8.714844 7.84375 -8.621094 8.019531 -8.4375 C 8.183594 -8.265625 8.265625 -8.042969 8.265625 -7.769531 L 8.265625 -5.828125 C 8.265625 -5.554688 8.183594 -5.328125 8.019531 -5.15625 C 7.84375 -4.972656 7.617188 -4.878906 7.335938 -4.878906 L 3.648438 -4.878906 L 3.648438 -5.492188 L 4.261719 -5.492188 L 4.261719 -2.589844 L 3.648438 -2.589844 L 3.648438 -3.203125 L 8.496094 -3.203125 C 8.769531 -3.203125 8.992188 -3.117188 9.164062 -2.945312 C 9.335938 -2.773438 9.421875 -2.550781 9.421875 -2.277344 L 9.421875 -0.3125 C 9.421875 -0.0390625 9.335938 0.183594 9.164062 0.355469 C 8.992188 0.527344 8.769531 0.613281 8.496094 0.613281 L 1.273438 0.613281 C 1 0.613281 0.777344 0.523438 0.605469 0.339844 C 0.449219 0.171875 0.367188 -0.046875 0.367188 -0.3125 L 0.367188 -13.417969 C 0.367188 -13.683594 0.449219 -13.902344 0.605469 -14.074219 C 0.777344 -14.253906 1 -14.34375 1.273438 -14.34375 L 8.496094 -14.34375 C 8.769531 -14.34375 8.992188 -14.257812 9.164062 -14.085938 C 9.335938 -13.914062 9.421875 -13.691406 9.421875 -13.417969 Z M 8.195312 -13.417969 C 8.195312 -13.402344 8.199219 -13.386719 8.207031 -13.363281 C 8.222656 -13.308594 8.253906 -13.261719 8.296875 -13.21875 C 8.339844 -13.179688 8.386719 -13.148438 8.4375 -13.128906 C 8.460938 -13.121094 8.480469 -13.117188 8.496094 -13.117188 L 1.273438 -13.117188 C 1.355469 -13.117188 1.429688 -13.15625 1.5 -13.234375 C 1.542969 -13.277344 1.570312 -13.324219 1.585938 -13.371094 C 1.589844 -13.394531 1.59375 -13.40625 1.59375 -13.417969 L 1.59375 -0.3125 C 1.59375 -0.324219 1.589844 -0.339844 1.585938 -0.359375 C 1.570312 -0.410156 1.542969 -0.457031 1.5 -0.496094 C 1.429688 -0.574219 1.355469 -0.613281 1.273438 -0.613281 L 8.496094 -0.613281 C 8.480469 -0.613281 8.460938 -0.609375 8.4375 -0.601562 C 8.386719 -0.582031 8.339844 -0.554688 8.296875 -0.511719 C 8.253906 -0.46875 8.222656 -0.421875 8.207031 -0.371094 C 8.199219 -0.347656 8.195312 -0.328125 8.195312 -0.3125 L 8.195312 -2.277344 C 8.195312 -2.261719 8.199219 -2.242188 8.207031 -2.21875 C 8.222656 -2.167969 8.253906 -2.121094 8.296875 -2.078125 C 8.339844 -2.035156 8.386719 -2.003906 8.4375 -1.988281 C 8.460938 -1.980469 8.480469 -1.976562 8.496094 -1.976562 L 3.035156 -1.976562 L 3.035156 -6.105469 L 7.335938 -6.105469 C 7.320312 -6.105469 7.296875 -6.101562 7.269531 -6.089844 C 7.214844 -6.074219 7.167969 -6.039062 7.125 -5.996094 C 7.085938 -5.957031 7.0625 -5.910156 7.046875 -5.863281 C 7.039062 -5.847656 7.039062 -5.832031 7.039062 -5.828125 L 7.039062 -7.769531 C 7.039062 -7.761719 7.039062 -7.75 7.046875 -7.730469 C 7.0625 -7.683594 7.085938 -7.640625 7.125 -7.597656 C 7.167969 -7.554688 7.214844 -7.523438 7.269531 -7.503906 C 7.296875 -7.492188 7.320312 -7.488281 7.335938 -7.488281 L 3.035156 -7.488281 L 3.035156 -11.734375 L 8.496094 -11.734375 C 8.476562 -11.734375 8.453125 -11.730469 8.425781 -11.722656 C 8.371094 -11.703125 8.324219 -11.671875 8.28125 -11.625 C 8.246094 -11.585938 8.21875 -11.542969 8.203125 -11.492188 C 8.199219 -11.476562 8.195312 -11.464844 8.195312 -11.457031 Z M 8.195312 -13.417969 "/></g></g><g style="fill:#b21a22;fill-opacity:1;"><g transform="translate(29.568467, 42.032808)"><path style="stroke:none" d="M 9.441406 -10.90625 L 9.441406 -2.824219 C 9.441406 -2.105469 9.3125 -1.492188 9.054688 -0.988281 C 8.78125 -0.449219 8.375 -0.0429688 7.832031 0.234375 L 7.550781 -0.3125 L 8.109375 -0.574219 L 8.894531 1.113281 L 8.335938 1.375 L 8.886719 1.097656 C 8.960938 1.253906 8.996094 1.40625 8.984375 1.5625 C 8.96875 1.753906 8.890625 1.921875 8.75 2.0625 C 8.566406 2.246094 8.335938 2.339844 8.0625 2.339844 L 6.023438 2.339844 C 5.746094 2.339844 5.523438 2.242188 5.355469 2.050781 C 5.273438 1.960938 5.203125 1.851562 5.140625 1.726562 L 5.136719 1.71875 L 4.464844 0.257812 L 5.023438 0 L 5.023438 0.613281 L 3.804688 0.613281 C 2.722656 0.613281 1.875 0.3125 1.273438 -0.292969 C 0.667969 -0.894531 0.367188 -1.738281 0.367188 -2.824219 L 0.367188 -10.90625 C 0.367188 -12.007812 0.671875 -12.855469 1.277344 -13.453125 C 1.878906 -14.046875 2.722656 -14.34375 3.804688 -14.34375 L 6.003906 -14.34375 C 7.101562 -14.34375 7.949219 -14.046875 8.546875 -13.449219 C 9.140625 -12.851562 9.441406 -12.003906 9.441406 -10.90625 Z M 8.214844 -10.90625 C 8.214844 -11.667969 8.035156 -12.226562 7.679688 -12.582031 C 7.320312 -12.941406 6.761719 -13.117188 6.003906 -13.117188 L 3.804688 -13.117188 C 3.058594 -13.117188 2.5 -12.9375 2.136719 -12.578125 C 1.773438 -12.222656 1.59375 -11.664062 1.59375 -10.90625 L 1.59375 -2.824219 C 1.59375 -2.078125 1.777344 -1.523438 2.140625 -1.160156 C 2.503906 -0.796875 3.058594 -0.613281 3.804688 -0.613281 L 5.414062 -0.613281 L 6.246094 1.195312 L 5.6875 1.453125 L 6.238281 1.175781 C 6.253906 1.210938 6.265625 1.230469 6.277344 1.242188 C 6.203125 1.15625 6.117188 1.113281 6.023438 1.113281 L 8.0625 1.113281 C 7.996094 1.113281 7.9375 1.140625 7.882812 1.195312 C 7.808594 1.269531 7.769531 1.359375 7.761719 1.46875 C 7.753906 1.539062 7.765625 1.597656 7.789062 1.648438 L 7.785156 1.640625 L 6.746094 -0.59375 L 7.273438 -0.859375 C 7.582031 -1.015625 7.808594 -1.242188 7.960938 -1.542969 C 8.128906 -1.875 8.214844 -2.300781 8.214844 -2.824219 Z M 4.144531 -10.417969 L 4.144531 -3.316406 C 4.144531 -3.25 4.148438 -3.199219 4.160156 -3.164062 C 4.164062 -3.160156 4.164062 -3.15625 4.167969 -3.152344 C 4.164062 -3.15625 4.164062 -3.15625 4.160156 -3.160156 C 4.15625 -3.164062 4.15625 -3.164062 4.152344 -3.167969 C 4.15625 -3.164062 4.160156 -3.164062 4.167969 -3.160156 C 4.203125 -3.148438 4.25 -3.144531 4.316406 -3.144531 L 5.570312 -3.144531 C 5.636719 -3.144531 5.683594 -3.148438 5.71875 -3.160156 C 5.726562 -3.164062 5.730469 -3.164062 5.734375 -3.167969 C 5.730469 -3.164062 5.730469 -3.164062 5.726562 -3.160156 C 5.722656 -3.15625 5.722656 -3.15625 5.71875 -3.152344 C 5.722656 -3.15625 5.722656 -3.160156 5.726562 -3.164062 C 5.738281 -3.199219 5.742188 -3.25 5.742188 -3.316406 L 5.742188 -10.417969 C 5.742188 -10.480469 5.738281 -10.53125 5.726562 -10.566406 C 5.722656 -10.574219 5.722656 -10.578125 5.71875 -10.578125 C 5.722656 -10.578125 5.722656 -10.574219 5.726562 -10.570312 C 5.730469 -10.570312 5.730469 -10.566406 5.734375 -10.566406 C 5.730469 -10.566406 5.726562 -10.570312 5.71875 -10.570312 C 5.683594 -10.582031 5.636719 -10.589844 5.570312 -10.589844 L 4.316406 -10.589844 C 4.25 -10.589844 4.203125 -10.582031 4.167969 -10.570312 C 4.160156 -10.570312 4.15625 -10.566406 4.152344 -10.566406 C 4.15625 -10.566406 4.15625 -10.570312 4.160156 -10.570312 C 4.164062 -10.574219 4.164062 -10.578125 4.167969 -10.578125 C 4.164062 -10.578125 4.164062 -10.574219 4.160156 -10.566406 C 4.148438 -10.53125 4.144531 -10.480469 4.144531 -10.417969 Z M 2.917969 -10.417969 C 2.917969 -10.847656 3.042969 -11.1875 3.292969 -11.4375 C 3.542969 -11.6875 3.886719 -11.816406 4.316406 -11.816406 L 5.570312 -11.816406 C 6.003906 -11.816406 6.34375 -11.6875 6.59375 -11.4375 C 6.84375 -11.1875 6.96875 -10.847656 6.96875 -10.417969 L 6.96875 -3.316406 C 6.96875 -2.882812 6.84375 -2.542969 6.59375 -2.292969 C 6.34375 -2.042969 6.003906 -1.917969 5.570312 -1.917969 L 4.316406 -1.917969 C 3.886719 -1.917969 3.542969 -2.042969 3.292969 -2.292969 C 3.042969 -2.542969 2.917969 -2.882812 2.917969 -3.316406 Z M 2.917969 -10.417969 "/></g></g><g style="fill:#b21a22;fill-opacity:1;"><g transform="translate(39.373934, 42.032808)"><path style="stroke:none" d="M 6.628906 -14.34375 L 8.433594 -14.34375 C 8.710938 -14.34375 8.945312 -14.246094 9.144531 -14.046875 C 9.339844 -13.851562 9.441406 -13.613281 9.441406 -13.339844 L 9.441406 -2.824219 C 9.441406 -1.742188 9.144531 -0.898438 8.546875 -0.296875 C 7.949219 0.308594 7.101562 0.613281 6.003906 0.613281 L 3.804688 0.613281 C 2.722656 0.613281 1.875 0.3125 1.273438 -0.292969 C 0.667969 -0.894531 0.367188 -1.738281 0.367188 -2.824219 L 0.367188 -13.339844 C 0.367188 -13.613281 0.46875 -13.851562 0.664062 -14.046875 C 0.863281 -14.246094 1.097656 -14.34375 1.375 -14.34375 L 3.257812 -14.34375 C 3.53125 -14.34375 3.765625 -14.246094 3.964844 -14.046875 C 4.164062 -13.851562 4.261719 -13.613281 4.261719 -13.339844 L 4.261719 -3.375 C 4.261719 -3.308594 4.269531 -3.261719 4.28125 -3.226562 C 4.28125 -3.21875 4.285156 -3.214844 4.285156 -3.210938 C 4.285156 -3.214844 4.28125 -3.214844 4.277344 -3.21875 C 4.277344 -3.222656 4.273438 -3.222656 4.269531 -3.226562 C 4.273438 -3.222656 4.277344 -3.222656 4.285156 -3.21875 C 4.320312 -3.207031 4.367188 -3.203125 4.433594 -3.203125 L 5.453125 -3.203125 C 5.519531 -3.203125 5.566406 -3.207031 5.601562 -3.21875 C 5.609375 -3.222656 5.613281 -3.222656 5.617188 -3.226562 C 5.613281 -3.222656 5.613281 -3.222656 5.609375 -3.21875 C 5.605469 -3.214844 5.605469 -3.214844 5.601562 -3.210938 C 5.605469 -3.214844 5.605469 -3.21875 5.609375 -3.226562 C 5.621094 -3.261719 5.625 -3.308594 5.625 -3.375 L 5.625 -13.339844 C 5.625 -13.613281 5.722656 -13.851562 5.921875 -14.046875 C 6.121094 -14.246094 6.355469 -14.34375 6.628906 -14.34375 Z M 6.628906 -13.117188 C 6.695312 -13.117188 6.75 -13.140625 6.789062 -13.179688 C 6.832031 -13.222656 6.851562 -13.273438 6.851562 -13.339844 L 6.851562 -3.375 C 6.851562 -2.941406 6.726562 -2.601562 6.476562 -2.351562 C 6.226562 -2.101562 5.882812 -1.976562 5.453125 -1.976562 L 4.433594 -1.976562 C 4.003906 -1.976562 3.660156 -2.101562 3.410156 -2.351562 C 3.160156 -2.601562 3.035156 -2.941406 3.035156 -3.375 L 3.035156 -13.339844 C 3.035156 -13.273438 3.054688 -13.222656 3.097656 -13.179688 C 3.140625 -13.140625 3.191406 -13.117188 3.257812 -13.117188 L 1.375 -13.117188 C 1.4375 -13.117188 1.492188 -13.140625 1.53125 -13.179688 C 1.574219 -13.222656 1.59375 -13.273438 1.59375 -13.339844 L 1.59375 -2.824219 C 1.59375 -2.078125 1.777344 -1.523438 2.140625 -1.160156 C 2.503906 -0.796875 3.058594 -0.613281 3.804688 -0.613281 L 6.003906 -0.613281 C 6.761719 -0.613281 7.316406 -0.792969 7.675781 -1.15625 C 8.035156 -1.519531 8.214844 -2.078125 8.214844 -2.824219 L 8.214844 -13.339844 C 8.214844 -13.273438 8.234375 -13.222656 8.277344 -13.179688 C 8.316406 -13.140625 8.371094 -13.117188 8.433594 -13.117188 Z M 6.628906 -13.117188 "/></g></g><g style="fill:#b21a22;fill-opacity:1;"><g transform="translate(49.179401, 42.032808)"><path style="stroke:none" d="M 1.292969 -0.613281 L 3.335938 -0.613281 C 3.320312 -0.613281 3.300781 -0.609375 3.277344 -0.601562 C 3.226562 -0.582031 3.179688 -0.554688 3.136719 -0.511719 C 3.09375 -0.46875 3.066406 -0.421875 3.046875 -0.371094 C 3.039062 -0.347656 3.035156 -0.328125 3.035156 -0.3125 L 3.035156 -13.417969 C 3.035156 -13.402344 3.039062 -13.386719 3.046875 -13.363281 C 3.066406 -13.308594 3.09375 -13.261719 3.136719 -13.21875 C 3.179688 -13.179688 3.226562 -13.148438 3.277344 -13.128906 C 3.300781 -13.121094 3.320312 -13.117188 3.335938 -13.117188 L 1.292969 -13.117188 C 1.308594 -13.117188 1.328125 -13.121094 1.351562 -13.128906 C 1.402344 -13.148438 1.449219 -13.179688 1.492188 -13.21875 C 1.535156 -13.261719 1.566406 -13.308594 1.582031 -13.363281 C 1.589844 -13.386719 1.59375 -13.402344 1.59375 -13.417969 L 1.59375 -0.3125 C 1.59375 -0.328125 1.589844 -0.347656 1.582031 -0.371094 C 1.566406 -0.421875 1.535156 -0.46875 1.492188 -0.511719 C 1.449219 -0.554688 1.402344 -0.582031 1.351562 -0.601562 C 1.328125 -0.609375 1.308594 -0.613281 1.292969 -0.613281 Z M 1.292969 0.613281 C 1.019531 0.613281 0.796875 0.527344 0.625 0.355469 C 0.453125 0.183594 0.367188 -0.0390625 0.367188 -0.3125 L 0.367188 -13.417969 C 0.367188 -13.691406 0.453125 -13.914062 0.625 -14.085938 C 0.796875 -14.257812 1.019531 -14.34375 1.292969 -14.34375 L 3.335938 -14.34375 C 3.609375 -14.34375 3.832031 -14.257812 4.003906 -14.085938 C 4.175781 -13.914062 4.261719 -13.691406 4.261719 -13.417969 L 4.261719 -0.3125 C 4.261719 -0.0390625 4.175781 0.183594 4.003906 0.355469 C 3.832031 0.527344 3.609375 0.613281 3.335938 0.613281 Z M 1.292969 0.613281 "/></g></g><g style="fill:#b21a22;fill-opacity:1;"><g transform="translate(53.807579, 42.032808)"><path style="stroke:none" d="M 9.441406 -10.90625 L 9.441406 -6.964844 C 9.441406 -5.601562 8.980469 -4.628906 8.054688 -4.050781 L 7.730469 -4.570312 L 8.324219 -4.714844 L 9.34375 -0.496094 L 8.75 -0.351562 L 9.339844 -0.515625 C 9.425781 -0.203125 9.386719 0.0664062 9.214844 0.289062 C 9.046875 0.503906 8.796875 0.613281 8.472656 0.613281 L 6.550781 0.613281 C 6.3125 0.613281 6.109375 0.542969 5.941406 0.40625 C 5.777344 0.269531 5.667969 0.0859375 5.621094 -0.144531 L 6.21875 -0.273438 L 5.621094 -0.128906 L 4.679688 -3.992188 L 5.277344 -4.140625 L 5.277344 -3.527344 L 3.53125 -3.527344 L 3.53125 -4.140625 L 4.144531 -4.140625 L 4.144531 -0.3125 C 4.144531 -0.0390625 4.058594 0.183594 3.886719 0.355469 C 3.714844 0.527344 3.492188 0.613281 3.21875 0.613281 L 1.292969 0.613281 C 1.019531 0.613281 0.796875 0.527344 0.625 0.355469 C 0.453125 0.183594 0.367188 -0.0390625 0.367188 -0.3125 L 0.367188 -13.417969 C 0.367188 -13.691406 0.453125 -13.914062 0.625 -14.085938 C 0.796875 -14.257812 1.019531 -14.34375 1.292969 -14.34375 L 6.003906 -14.34375 C 7.101562 -14.34375 7.949219 -14.046875 8.546875 -13.449219 C 9.140625 -12.851562 9.441406 -12.003906 9.441406 -10.90625 Z M 8.214844 -10.90625 C 8.214844 -11.667969 8.035156 -12.226562 7.679688 -12.582031 C 7.320312 -12.941406 6.761719 -13.117188 6.003906 -13.117188 L 1.292969 -13.117188 C 1.308594 -13.117188 1.328125 -13.121094 1.351562 -13.128906 C 1.402344 -13.148438 1.449219 -13.179688 1.492188 -13.21875 C 1.535156 -13.261719 1.566406 -13.308594 1.582031 -13.363281 C 1.589844 -13.386719 1.59375 -13.402344 1.59375 -13.417969 L 1.59375 -0.3125 C 1.59375 -0.328125 1.589844 -0.347656 1.582031 -0.371094 C 1.566406 -0.421875 1.535156 -0.46875 1.492188 -0.511719 C 1.449219 -0.554688 1.402344 -0.582031 1.351562 -0.601562 C 1.328125 -0.609375 1.308594 -0.613281 1.292969 -0.613281 L 3.21875 -0.613281 C 3.203125 -0.613281 3.183594 -0.609375 3.160156 -0.601562 C 3.109375 -0.582031 3.0625 -0.554688 3.019531 -0.511719 C 2.976562 -0.46875 2.949219 -0.421875 2.929688 -0.371094 C 2.921875 -0.347656 2.917969 -0.328125 2.917969 -0.3125 L 2.917969 -4.753906 L 5.757812 -4.753906 L 6.816406 -0.410156 L 6.816406 -0.402344 C 6.808594 -0.449219 6.777344 -0.496094 6.722656 -0.542969 C 6.664062 -0.589844 6.605469 -0.613281 6.550781 -0.613281 L 8.476562 -0.613281 C 8.460938 -0.609375 8.445312 -0.605469 8.429688 -0.601562 C 8.359375 -0.578125 8.296875 -0.53125 8.246094 -0.464844 C 8.191406 -0.398438 8.164062 -0.324219 8.15625 -0.242188 C 8.15625 -0.21875 8.15625 -0.199219 8.160156 -0.1875 L 8.15625 -0.199219 L 7.03125 -4.855469 L 7.402344 -5.089844 C 7.945312 -5.429688 8.214844 -6.054688 8.214844 -6.964844 Z M 3.53125 -7.28125 L 5.492188 -7.28125 C 5.558594 -7.28125 5.605469 -7.289062 5.640625 -7.300781 C 5.648438 -7.300781 5.652344 -7.304688 5.65625 -7.304688 C 5.652344 -7.304688 5.652344 -7.300781 5.648438 -7.300781 C 5.644531 -7.296875 5.644531 -7.292969 5.640625 -7.292969 C 5.644531 -7.292969 5.644531 -7.296875 5.648438 -7.304688 C 5.660156 -7.339844 5.664062 -7.390625 5.664062 -7.453125 L 5.664062 -10.417969 C 5.664062 -10.480469 5.660156 -10.53125 5.648438 -10.566406 C 5.644531 -10.574219 5.644531 -10.578125 5.640625 -10.578125 C 5.644531 -10.578125 5.644531 -10.574219 5.648438 -10.570312 C 5.652344 -10.570312 5.652344 -10.566406 5.65625 -10.566406 C 5.652344 -10.566406 5.648438 -10.570312 5.640625 -10.570312 C 5.605469 -10.582031 5.558594 -10.589844 5.492188 -10.589844 L 3.53125 -10.589844 L 3.53125 -11.203125 L 4.144531 -11.203125 L 4.144531 -6.667969 L 3.53125 -6.667969 Z M 2.917969 -6.058594 L 2.917969 -11.816406 L 5.492188 -11.816406 C 5.921875 -11.816406 6.265625 -11.6875 6.515625 -11.4375 C 6.765625 -11.1875 6.890625 -10.847656 6.890625 -10.417969 L 6.890625 -7.453125 C 6.890625 -7.023438 6.765625 -6.683594 6.515625 -6.433594 C 6.265625 -6.183594 5.921875 -6.058594 5.492188 -6.058594 Z M 2.917969 -6.058594 "/></g></g><g style="fill:#b21a22;fill-opacity:1;"><g transform="translate(63.613046, 42.032808)"><path style="stroke:none" d="M 9.421875 -13.417969 L 9.421875 -11.457031 C 9.421875 -11.183594 9.339844 -10.960938 9.175781 -10.785156 C 9.003906 -10.601562 8.777344 -10.511719 8.496094 -10.511719 L 3.648438 -10.511719 L 3.648438 -11.121094 L 4.261719 -11.121094 L 4.261719 -8.101562 L 3.648438 -8.101562 L 3.648438 -8.714844 L 7.335938 -8.714844 C 7.617188 -8.714844 7.84375 -8.621094 8.019531 -8.4375 C 8.183594 -8.265625 8.265625 -8.042969 8.265625 -7.769531 L 8.265625 -5.828125 C 8.265625 -5.554688 8.183594 -5.328125 8.019531 -5.15625 C 7.84375 -4.972656 7.617188 -4.878906 7.335938 -4.878906 L 3.648438 -4.878906 L 3.648438 -5.492188 L 4.261719 -5.492188 L 4.261719 -2.589844 L 3.648438 -2.589844 L 3.648438 -3.203125 L 8.496094 -3.203125 C 8.769531 -3.203125 8.992188 -3.117188 9.164062 -2.945312 C 9.335938 -2.773438 9.421875 -2.550781 9.421875 -2.277344 L 9.421875 -0.3125 C 9.421875 -0.0390625 9.335938 0.183594 9.164062 0.355469 C 8.992188 0.527344 8.769531 0.613281 8.496094 0.613281 L 1.273438 0.613281 C 1 0.613281 0.777344 0.523438 0.605469 0.339844 C 0.449219 0.171875 0.367188 -0.046875 0.367188 -0.3125 L 0.367188 -13.417969 C 0.367188 -13.683594 0.449219 -13.902344 0.605469 -14.074219 C 0.777344 -14.253906 1 -14.34375 1.273438 -14.34375 L 8.496094 -14.34375 C 8.769531 -14.34375 8.992188 -14.257812 9.164062 -14.085938 C 9.335938 -13.914062 9.421875 -13.691406 9.421875 -13.417969 Z M 8.195312 -13.417969 C 8.195312 -13.402344 8.199219 -13.386719 8.207031 -13.363281 C 8.222656 -13.308594 8.253906 -13.261719 8.296875 -13.21875 C 8.339844 -13.179688 8.386719 -13.148438 8.4375 -13.128906 C 8.460938 -13.121094 8.480469 -13.117188 8.496094 -13.117188 L 1.273438 -13.117188 C 1.355469 -13.117188 1.429688 -13.15625 1.5 -13.234375 C 1.542969 -13.277344 1.570312 -13.324219 1.585938 -13.371094 C 1.589844 -13.394531 1.59375 -13.40625 1.59375 -13.417969 L 1.59375 -0.3125 C 1.59375 -0.324219 1.589844 -0.339844 1.585938 -0.359375 C 1.570312 -0.410156 1.542969 -0.457031 1.5 -0.496094 C 1.429688 -0.574219 1.355469 -0.613281 1.273438 -0.613281 L 8.496094 -0.613281 C 8.480469 -0.613281 8.460938 -0.609375 8.4375 -0.601562 C 8.386719 -0.582031 8.339844 -0.554688 8.296875 -0.511719 C 8.253906 -0.46875 8.222656 -0.421875 8.207031 -0.371094 C 8.199219 -0.347656 8.195312 -0.328125 8.195312 -0.3125 L 8.195312 -2.277344 C 8.195312 -2.261719 8.199219 -2.242188 8.207031 -2.21875 C 8.222656 -2.167969 8.253906 -2.121094 8.296875 -2.078125 C 8.339844 -2.035156 8.386719 -2.003906 8.4375 -1.988281 C 8.460938 -1.980469 8.480469 -1.976562 8.496094 -1.976562 L 3.035156 -1.976562 L 3.035156 -6.105469 L 7.335938 -6.105469 C 7.320312 -6.105469 7.296875 -6.101562 7.269531 -6.089844 C 7.214844 -6.074219 7.167969 -6.039062 7.125 -5.996094 C 7.085938 -5.957031 7.0625 -5.910156 7.046875 -5.863281 C 7.039062 -5.847656 7.039062 -5.832031 7.039062 -5.828125 L 7.039062 -7.769531 C 7.039062 -7.761719 7.039062 -7.75 7.046875 -7.730469 C 7.0625 -7.683594 7.085938 -7.640625 7.125 -7.597656 C 7.167969 -7.554688 7.214844 -7.523438 7.269531 -7.503906 C 7.296875 -7.492188 7.320312 -7.488281 7.335938 -7.488281 L 3.035156 -7.488281 L 3.035156 -11.734375 L 8.496094 -11.734375 C 8.476562 -11.734375 8.453125 -11.730469 8.425781 -11.722656 C 8.371094 -11.703125 8.324219 -11.671875 8.28125 -11.625 C 8.246094 -11.585938 8.21875 -11.542969 8.203125 -11.492188 C 8.199219 -11.476562 8.195312 -11.464844 8.195312 -11.457031 Z M 8.195312 -13.417969 "/></g></g><g style="fill:#b21a22;fill-opacity:1;"><g transform="translate(73.398899, 42.032808)"><path style="stroke:none" d="M -0.613281 2.628906 L -0.613281 0.824219 C -0.613281 0.523438 -0.519531 0.28125 -0.335938 0.0976562 C -0.148438 -0.0898438 0.09375 -0.179688 0.390625 -0.179688 L 12.222656 -0.179688 C 12.523438 -0.179688 12.765625 -0.0898438 12.949219 0.0976562 C 13.132812 0.28125 13.226562 0.523438 13.226562 0.824219 L 13.226562 2.628906 C 13.226562 2.929688 13.132812 3.171875 12.949219 3.355469 C 12.765625 3.542969 12.523438 3.632812 12.222656 3.632812 L 0.390625 3.632812 C 0.09375 3.632812 -0.148438 3.542969 -0.335938 3.355469 C -0.519531 3.171875 -0.613281 2.929688 -0.613281 2.628906 Z M 0.613281 2.628906 C 0.613281 2.632812 0.613281 2.632812 0.613281 2.636719 C 0.613281 2.636719 0.613281 2.636719 0.613281 2.632812 C 0.613281 2.625 0.609375 2.617188 0.605469 2.605469 C 0.59375 2.5625 0.566406 2.523438 0.53125 2.488281 C 0.496094 2.453125 0.457031 2.429688 0.414062 2.414062 C 0.402344 2.410156 0.394531 2.410156 0.386719 2.40625 C 0.386719 2.40625 0.390625 2.40625 0.390625 2.40625 L 12.222656 2.40625 C 12.222656 2.40625 12.226562 2.40625 12.226562 2.40625 C 12.21875 2.410156 12.210938 2.410156 12.199219 2.414062 C 12.15625 2.429688 12.117188 2.453125 12.082031 2.488281 C 12.046875 2.523438 12.023438 2.5625 12.007812 2.605469 C 12.003906 2.617188 12 2.625 12 2.632812 C 12 2.636719 12 2.636719 12 2.636719 C 12 2.632812 12 2.632812 12 2.628906 L 12 0.824219 C 12 0.820312 12 0.820312 12 0.816406 C 12 0.816406 12 0.816406 12 0.820312 C 12 0.828125 12.003906 0.835938 12.007812 0.847656 C 12.023438 0.886719 12.046875 0.925781 12.082031 0.964844 C 12.117188 1 12.15625 1.023438 12.199219 1.039062 C 12.210938 1.042969 12.21875 1.042969 12.226562 1.042969 C 12.226562 1.042969 12.222656 1.042969 12.222656 1.042969 L 0.390625 1.042969 C 0.390625 1.042969 0.386719 1.042969 0.386719 1.042969 C 0.394531 1.042969 0.402344 1.042969 0.414062 1.039062 C 0.457031 1.023438 0.496094 1 0.53125 0.964844 C 0.566406 0.925781 0.59375 0.886719 0.605469 0.847656 C 0.609375 0.835938 0.613281 0.828125 0.613281 0.820312 C 0.613281 0.816406 0.613281 0.816406 0.613281 0.816406 C 0.613281 0.820312 0.613281 0.820312 0.613281 0.824219 Z M 0.613281 2.628906 "/></g></g><g style="fill:#b21a22;fill-opacity:1;"><g transform="translate(23.209078, 69.382427)"><path style="stroke:none" d="M 9.460938 -10.90625 L 9.460938 -8.257812 C 9.460938 -7.730469 9.285156 -7.28125 8.9375 -6.914062 C 8.613281 -6.570312 8.207031 -6.351562 7.722656 -6.261719 L 7.613281 -6.867188 L 8.222656 -6.867188 L 8.222656 -6.828125 L 7.613281 -6.828125 L 7.703125 -7.433594 C 8.195312 -7.359375 8.613281 -7.140625 8.945312 -6.78125 C 9.289062 -6.410156 9.460938 -5.960938 9.460938 -5.433594 L 9.460938 -2.824219 C 9.460938 -1.738281 9.160156 -0.894531 8.554688 -0.292969 C 7.953125 0.3125 7.101562 0.613281 6.003906 0.613281 L 1.292969 0.613281 C 1.019531 0.613281 0.796875 0.527344 0.625 0.355469 C 0.453125 0.183594 0.367188 -0.0390625 0.367188 -0.3125 L 0.367188 -13.417969 C 0.367188 -13.691406 0.453125 -13.914062 0.625 -14.085938 C 0.796875 -14.257812 1.019531 -14.34375 1.292969 -14.34375 L 6.003906 -14.34375 C 7.097656 -14.34375 7.949219 -14.046875 8.550781 -13.453125 C 9.15625 -12.855469 9.460938 -12.007812 9.460938 -10.90625 Z M 8.234375 -10.90625 C 8.234375 -11.664062 8.054688 -12.222656 7.691406 -12.578125 C 7.328125 -12.9375 6.765625 -13.117188 6.003906 -13.117188 L 1.292969 -13.117188 C 1.308594 -13.117188 1.328125 -13.121094 1.351562 -13.128906 C 1.402344 -13.148438 1.449219 -13.179688 1.492188 -13.21875 C 1.535156 -13.261719 1.566406 -13.308594 1.582031 -13.363281 C 1.589844 -13.386719 1.59375 -13.402344 1.59375 -13.417969 L 1.59375 -0.3125 C 1.59375 -0.328125 1.589844 -0.347656 1.582031 -0.371094 C 1.566406 -0.421875 1.535156 -0.46875 1.492188 -0.511719 C 1.449219 -0.554688 1.402344 -0.582031 1.351562 -0.601562 C 1.328125 -0.609375 1.308594 -0.613281 1.292969 -0.613281 L 6.003906 -0.613281 C 6.761719 -0.613281 7.324219 -0.796875 7.6875 -1.160156 C 8.050781 -1.523438 8.234375 -2.078125 8.234375 -2.824219 L 8.234375 -5.433594 C 8.234375 -5.640625 8.171875 -5.8125 8.042969 -5.949219 C 7.90625 -6.097656 7.730469 -6.1875 7.523438 -6.21875 L 7 -6.296875 L 7 -7.375 L 7.5 -7.46875 C 7.722656 -7.511719 7.90625 -7.605469 8.050781 -7.757812 C 8.171875 -7.890625 8.234375 -8.054688 8.234375 -8.257812 Z M 5.742188 -8.90625 L 5.742188 -10.476562 C 5.742188 -10.539062 5.738281 -10.589844 5.726562 -10.625 C 5.722656 -10.632812 5.722656 -10.636719 5.71875 -10.636719 C 5.722656 -10.636719 5.722656 -10.632812 5.726562 -10.628906 C 5.730469 -10.628906 5.730469 -10.625 5.734375 -10.625 C 5.730469 -10.625 5.726562 -10.628906 5.71875 -10.628906 C 5.683594 -10.640625 5.636719 -10.648438 5.570312 -10.648438 L 3.414062 -10.648438 L 3.414062 -11.261719 L 4.027344 -11.261719 L 4.027344 -8.140625 L 3.414062 -8.140625 L 3.414062 -8.753906 L 5.570312 -8.753906 C 5.636719 -8.753906 5.6875 -8.761719 5.726562 -8.773438 C 5.730469 -8.773438 5.738281 -8.777344 5.738281 -8.777344 C 5.738281 -8.777344 5.734375 -8.773438 5.730469 -8.769531 C 5.726562 -8.769531 5.726562 -8.765625 5.722656 -8.761719 C 5.722656 -8.761719 5.726562 -8.765625 5.726562 -8.769531 C 5.738281 -8.800781 5.742188 -8.847656 5.742188 -8.90625 Z M 6.96875 -8.90625 C 6.96875 -8.480469 6.84375 -8.140625 6.585938 -7.894531 C 6.339844 -7.648438 6 -7.527344 5.570312 -7.527344 L 2.800781 -7.527344 L 2.800781 -11.875 L 5.570312 -11.875 C 6.003906 -11.875 6.34375 -11.75 6.59375 -11.496094 C 6.84375 -11.246094 6.96875 -10.90625 6.96875 -10.476562 Z M 5.742188 -3.257812 L 5.742188 -4.765625 C 5.742188 -4.832031 5.738281 -4.882812 5.726562 -4.917969 C 5.722656 -4.921875 5.722656 -4.925781 5.71875 -4.929688 C 5.722656 -4.925781 5.722656 -4.925781 5.726562 -4.921875 C 5.730469 -4.917969 5.730469 -4.917969 5.734375 -4.914062 C 5.730469 -4.917969 5.726562 -4.917969 5.71875 -4.921875 C 5.683594 -4.933594 5.636719 -4.9375 5.570312 -4.9375 L 3.414062 -4.9375 L 3.414062 -5.550781 L 4.027344 -5.550781 L 4.027344 -2.472656 L 3.414062 -2.472656 L 3.414062 -3.085938 L 5.570312 -3.085938 C 5.636719 -3.085938 5.683594 -3.089844 5.71875 -3.101562 C 5.726562 -3.105469 5.730469 -3.105469 5.734375 -3.109375 C 5.730469 -3.105469 5.730469 -3.105469 5.726562 -3.101562 C 5.722656 -3.097656 5.722656 -3.097656 5.71875 -3.09375 C 5.722656 -3.097656 5.722656 -3.101562 5.726562 -3.105469 C 5.738281 -3.140625 5.742188 -3.191406 5.742188 -3.257812 Z M 6.96875 -3.257812 C 6.96875 -2.824219 6.84375 -2.484375 6.59375 -2.234375 C 6.34375 -1.984375 6.003906 -1.859375 5.570312 -1.859375 L 2.800781 -1.859375 L 2.800781 -6.164062 L 5.570312 -6.164062 C 6.003906 -6.164062 6.34375 -6.039062 6.59375 -5.789062 C 6.84375 -5.539062 6.96875 -5.199219 6.96875 -4.765625 Z M 6.96875 -3.257812 "/></g></g><g style="fill:#b21a22;fill-opacity:1;"><g transform="translate(33.03416, 69.382427)"><path style="stroke:none" d="M 9.421875 -13.417969 L 9.421875 -11.457031 C 9.421875 -11.183594 9.339844 -10.960938 9.175781 -10.785156 C 9.003906 -10.601562 8.777344 -10.511719 8.496094 -10.511719 L 3.648438 -10.511719 L 3.648438 -11.121094 L 4.261719 -11.121094 L 4.261719 -8.101562 L 3.648438 -8.101562 L 3.648438 -8.714844 L 7.335938 -8.714844 C 7.617188 -8.714844 7.84375 -8.621094 8.019531 -8.4375 C 8.183594 -8.265625 8.265625 -8.042969 8.265625 -7.769531 L 8.265625 -5.828125 C 8.265625 -5.554688 8.183594 -5.328125 8.019531 -5.15625 C 7.84375 -4.972656 7.617188 -4.878906 7.335938 -4.878906 L 3.648438 -4.878906 L 3.648438 -5.492188 L 4.261719 -5.492188 L 4.261719 -2.589844 L 3.648438 -2.589844 L 3.648438 -3.203125 L 8.496094 -3.203125 C 8.769531 -3.203125 8.992188 -3.117188 9.164062 -2.945312 C 9.335938 -2.773438 9.421875 -2.550781 9.421875 -2.277344 L 9.421875 -0.3125 C 9.421875 -0.0390625 9.335938 0.183594 9.164062 0.355469 C 8.992188 0.527344 8.769531 0.613281 8.496094 0.613281 L 1.273438 0.613281 C 1 0.613281 0.777344 0.523438 0.605469 0.339844 C 0.449219 0.171875 0.367188 -0.046875 0.367188 -0.3125 L 0.367188 -13.417969 C 0.367188 -13.683594 0.449219 -13.902344 0.605469 -14.074219 C 0.777344 -14.253906 1 -14.34375 1.273438 -14.34375 L 8.496094 -14.34375 C 8.769531 -14.34375 8.992188 -14.257812 9.164062 -14.085938 C 9.335938 -13.914062 9.421875 -13.691406 9.421875 -13.417969 Z M 8.195312 -13.417969 C 8.195312 -13.402344 8.199219 -13.386719 8.207031 -13.363281 C 8.222656 -13.308594 8.253906 -13.261719 8.296875 -13.21875 C 8.339844 -13.179688 8.386719 -13.148438 8.4375 -13.128906 C 8.460938 -13.121094 8.480469 -13.117188 8.496094 -13.117188 L 1.273438 -13.117188 C 1.355469 -13.117188 1.429688 -13.15625 1.5 -13.234375 C 1.542969 -13.277344 1.570312 -13.324219 1.585938 -13.371094 C 1.589844 -13.394531 1.59375 -13.40625 1.59375 -13.417969 L 1.59375 -0.3125 C 1.59375 -0.324219 1.589844 -0.339844 1.585938 -0.359375 C 1.570312 -0.410156 1.542969 -0.457031 1.5 -0.496094 C 1.429688 -0.574219 1.355469 -0.613281 1.273438 -0.613281 L 8.496094 -0.613281 C 8.480469 -0.613281 8.460938 -0.609375 8.4375 -0.601562 C 8.386719 -0.582031 8.339844 -0.554688 8.296875 -0.511719 C 8.253906 -0.46875 8.222656 -0.421875 8.207031 -0.371094 C 8.199219 -0.347656 8.195312 -0.328125 8.195312 -0.3125 L 8.195312 -2.277344 C 8.195312 -2.261719 8.199219 -2.242188 8.207031 -2.21875 C 8.222656 -2.167969 8.253906 -2.121094 8.296875 -2.078125 C 8.339844 -2.035156 8.386719 -2.003906 8.4375 -1.988281 C 8.460938 -1.980469 8.480469 -1.976562 8.496094 -1.976562 L 3.035156 -1.976562 L 3.035156 -6.105469 L 7.335938 -6.105469 C 7.320312 -6.105469 7.296875 -6.101562 7.269531 -6.089844 C 7.214844 -6.074219 7.167969 -6.039062 7.125 -5.996094 C 7.085938 -5.957031 7.0625 -5.910156 7.046875 -5.863281 C 7.039062 -5.847656 7.039062 -5.832031 7.039062 -5.828125 L 7.039062 -7.769531 C 7.039062 -7.761719 7.039062 -7.75 7.046875 -7.730469 C 7.0625 -7.683594 7.085938 -7.640625 7.125 -7.597656 C 7.167969 -7.554688 7.214844 -7.523438 7.269531 -7.503906 C 7.296875 -7.492188 7.320312 -7.488281 7.335938 -7.488281 L 3.035156 -7.488281 L 3.035156 -11.734375 L 8.496094 -11.734375 C 8.476562 -11.734375 8.453125 -11.730469 8.425781 -11.722656 C 8.371094 -11.703125 8.324219 -11.671875 8.28125 -11.625 C 8.246094 -11.585938 8.21875 -11.542969 8.203125 -11.492188 C 8.199219 -11.476562 8.195312 -11.464844 8.195312 -11.457031 Z M 8.195312 -13.417969 "/></g></g><g style="fill:#b21a22;fill-opacity:1;"><g transform="translate(42.820013, 69.382427)"><path style="stroke:none" d="M 7.199219 -14.34375 L 9.042969 -14.34375 C 9.316406 -14.34375 9.539062 -14.257812 9.710938 -14.085938 C 9.882812 -13.914062 9.96875 -13.691406 9.96875 -13.417969 L 9.96875 -0.3125 C 9.96875 -0.0390625 9.882812 0.183594 9.710938 0.355469 C 9.539062 0.527344 9.316406 0.613281 9.042969 0.613281 L 7.492188 0.613281 C 7.28125 0.613281 7.09375 0.554688 6.929688 0.433594 C 6.78125 0.328125 6.667969 0.183594 6.585938 0 L 7.140625 -0.253906 L 6.589844 0.015625 L 2.902344 -7.476562 L 3.453125 -7.75 L 4.066406 -7.75 L 4.066406 -0.3125 C 4.066406 -0.0390625 3.980469 0.183594 3.808594 0.355469 C 3.636719 0.527344 3.414062 0.613281 3.140625 0.613281 L 1.292969 0.613281 C 1.019531 0.613281 0.796875 0.527344 0.625 0.355469 C 0.453125 0.183594 0.367188 -0.0390625 0.367188 -0.3125 L 0.367188 -13.417969 C 0.367188 -13.691406 0.453125 -13.914062 0.625 -14.085938 C 0.796875 -14.257812 1.019531 -14.34375 1.292969 -14.34375 L 2.84375 -14.34375 C 3.054688 -14.34375 3.242188 -14.285156 3.410156 -14.164062 C 3.554688 -14.058594 3.671875 -13.917969 3.753906 -13.734375 L 3.199219 -13.476562 L 3.746094 -13.746094 L 7.4375 -6.253906 L 6.886719 -5.984375 L 6.273438 -5.984375 L 6.273438 -13.417969 C 6.273438 -13.691406 6.359375 -13.914062 6.53125 -14.085938 C 6.703125 -14.257812 6.925781 -14.34375 7.199219 -14.34375 Z M 7.199219 -13.117188 C 7.214844 -13.117188 7.230469 -13.121094 7.257812 -13.128906 C 7.308594 -13.148438 7.355469 -13.179688 7.398438 -13.21875 C 7.441406 -13.261719 7.46875 -13.308594 7.488281 -13.363281 C 7.496094 -13.386719 7.5 -13.402344 7.5 -13.417969 L 7.5 -5.984375 L 6.335938 -5.710938 L 2.644531 -13.214844 L 2.640625 -13.21875 C 2.648438 -13.207031 2.664062 -13.191406 2.691406 -13.171875 C 2.738281 -13.136719 2.789062 -13.117188 2.84375 -13.117188 L 1.292969 -13.117188 C 1.308594 -13.117188 1.328125 -13.121094 1.351562 -13.128906 C 1.402344 -13.148438 1.449219 -13.179688 1.492188 -13.21875 C 1.535156 -13.261719 1.566406 -13.308594 1.582031 -13.363281 C 1.589844 -13.386719 1.59375 -13.402344 1.59375 -13.417969 L 1.59375 -0.3125 C 1.59375 -0.328125 1.589844 -0.347656 1.582031 -0.371094 C 1.566406 -0.421875 1.535156 -0.46875 1.492188 -0.511719 C 1.449219 -0.554688 1.402344 -0.582031 1.351562 -0.601562 C 1.328125 -0.609375 1.308594 -0.613281 1.292969 -0.613281 L 3.140625 -0.613281 C 3.125 -0.613281 3.105469 -0.609375 3.082031 -0.601562 C 3.03125 -0.582031 2.984375 -0.554688 2.941406 -0.511719 C 2.898438 -0.46875 2.867188 -0.421875 2.851562 -0.371094 C 2.84375 -0.347656 2.839844 -0.328125 2.839844 -0.3125 L 2.839844 -7.75 L 4.003906 -8.019531 L 7.695312 -0.519531 L 7.699219 -0.511719 C 7.691406 -0.523438 7.675781 -0.539062 7.648438 -0.5625 C 7.597656 -0.59375 7.546875 -0.613281 7.492188 -0.613281 L 9.042969 -0.613281 C 9.03125 -0.613281 9.011719 -0.609375 8.988281 -0.601562 C 8.933594 -0.582031 8.886719 -0.554688 8.84375 -0.511719 C 8.804688 -0.46875 8.773438 -0.421875 8.757812 -0.371094 C 8.75 -0.347656 8.746094 -0.328125 8.746094 -0.3125 L 8.746094 -13.417969 C 8.746094 -13.402344 8.75 -13.386719 8.757812 -13.363281 C 8.773438 -13.308594 8.804688 -13.261719 8.84375 -13.21875 C 8.886719 -13.179688 8.933594 -13.148438 8.988281 -13.128906 C 9.011719 -13.121094 9.03125 -13.117188 9.042969 -13.117188 Z M 7.199219 -13.117188 "/></g></g><g style="fill:#b21a22;fill-opacity:1;"><g transform="translate(53.154979, 69.382427)"><path style="stroke:none" d="M 9.460938 -10.90625 L 9.460938 -8.789062 C 9.460938 -8.515625 9.375 -8.292969 9.203125 -8.121094 C 9.03125 -7.949219 8.808594 -7.863281 8.535156 -7.863281 L 6.6875 -7.863281 C 6.414062 -7.863281 6.191406 -7.949219 6.019531 -8.121094 C 5.847656 -8.292969 5.761719 -8.515625 5.761719 -8.789062 L 5.761719 -10.398438 C 5.761719 -10.460938 5.757812 -10.511719 5.746094 -10.546875 C 5.742188 -10.554688 5.742188 -10.558594 5.738281 -10.558594 C 5.742188 -10.558594 5.742188 -10.554688 5.746094 -10.550781 C 5.75 -10.550781 5.75 -10.546875 5.753906 -10.546875 C 5.75 -10.546875 5.746094 -10.550781 5.742188 -10.550781 C 5.707031 -10.5625 5.65625 -10.570312 5.589844 -10.570312 L 4.335938 -10.570312 C 4.269531 -10.570312 4.222656 -10.5625 4.1875 -10.550781 C 4.179688 -10.550781 4.175781 -10.546875 4.171875 -10.546875 C 4.175781 -10.546875 4.175781 -10.550781 4.179688 -10.550781 C 4.183594 -10.554688 4.183594 -10.558594 4.1875 -10.558594 C 4.183594 -10.558594 4.183594 -10.554688 4.179688 -10.546875 C 4.167969 -10.511719 4.164062 -10.460938 4.164062 -10.398438 L 4.164062 -3.277344 C 4.164062 -3.210938 4.167969 -3.160156 4.179688 -3.125 C 4.183594 -3.121094 4.183594 -3.117188 4.1875 -3.113281 C 4.183594 -3.117188 4.183594 -3.117188 4.179688 -3.121094 C 4.175781 -3.125 4.175781 -3.125 4.171875 -3.128906 C 4.175781 -3.125 4.179688 -3.125 4.1875 -3.121094 C 4.222656 -3.109375 4.269531 -3.105469 4.335938 -3.105469 L 5.589844 -3.105469 C 5.65625 -3.105469 5.707031 -3.109375 5.742188 -3.121094 C 5.746094 -3.125 5.75 -3.125 5.753906 -3.128906 C 5.75 -3.125 5.75 -3.125 5.746094 -3.121094 C 5.742188 -3.117188 5.742188 -3.117188 5.738281 -3.113281 C 5.742188 -3.117188 5.742188 -3.121094 5.746094 -3.125 C 5.757812 -3.160156 5.761719 -3.210938 5.761719 -3.277344 L 5.761719 -4.945312 C 5.761719 -5.21875 5.847656 -5.441406 6.019531 -5.613281 C 6.191406 -5.785156 6.414062 -5.871094 6.6875 -5.871094 L 8.535156 -5.871094 C 8.808594 -5.871094 9.03125 -5.785156 9.203125 -5.613281 C 9.375 -5.441406 9.460938 -5.21875 9.460938 -4.945312 L 9.460938 -2.824219 C 9.460938 -1.738281 9.160156 -0.894531 8.554688 -0.292969 C 7.953125 0.3125 7.105469 0.613281 6.023438 0.613281 L 3.824219 0.613281 C 2.742188 0.613281 1.894531 0.3125 1.285156 -0.289062 C 0.671875 -0.894531 0.367188 -1.738281 0.367188 -2.824219 L 0.367188 -10.90625 C 0.367188 -12.007812 0.675781 -12.859375 1.289062 -13.457031 C 1.898438 -14.046875 2.742188 -14.34375 3.824219 -14.34375 L 6.023438 -14.34375 C 7.105469 -14.34375 7.949219 -14.046875 8.550781 -13.453125 C 9.15625 -12.855469 9.460938 -12.007812 9.460938 -10.90625 Z M 8.234375 -10.90625 C 8.234375 -11.664062 8.054688 -12.222656 7.691406 -12.578125 C 7.328125 -12.9375 6.769531 -13.117188 6.023438 -13.117188 L 3.824219 -13.117188 C 3.074219 -13.117188 2.515625 -12.9375 2.144531 -12.578125 C 1.777344 -12.21875 1.59375 -11.664062 1.59375 -10.90625 L 1.59375 -2.824219 C 1.59375 -2.082031 1.777344 -1.527344 2.148438 -1.164062 C 2.519531 -0.796875 3.078125 -0.613281 3.824219 -0.613281 L 6.023438 -0.613281 C 6.769531 -0.613281 7.324219 -0.796875 7.6875 -1.160156 C 8.050781 -1.523438 8.234375 -2.078125 8.234375 -2.824219 L 8.234375 -4.945312 C 8.234375 -4.929688 8.238281 -4.910156 8.246094 -4.886719 C 8.261719 -4.835938 8.292969 -4.789062 8.335938 -4.746094 C 8.378906 -4.703125 8.425781 -4.671875 8.476562 -4.65625 C 8.5 -4.648438 8.519531 -4.644531 8.535156 -4.644531 L 6.6875 -4.644531 C 6.703125 -4.644531 6.722656 -4.648438 6.746094 -4.65625 C 6.796875 -4.671875 6.84375 -4.703125 6.886719 -4.746094 C 6.929688 -4.789062 6.960938 -4.835938 6.976562 -4.886719 C 6.984375 -4.910156 6.988281 -4.929688 6.988281 -4.945312 L 6.988281 -3.277344 C 6.988281 -2.84375 6.863281 -2.503906 6.613281 -2.253906 C 6.363281 -2.003906 6.023438 -1.878906 5.589844 -1.878906 L 4.335938 -1.878906 C 3.90625 -1.878906 3.5625 -2.003906 3.3125 -2.253906 C 3.0625 -2.503906 2.9375 -2.84375 2.9375 -3.277344 L 2.9375 -10.398438 C 2.9375 -10.828125 3.0625 -11.167969 3.3125 -11.417969 C 3.5625 -11.667969 3.90625 -11.792969 4.335938 -11.792969 L 5.589844 -11.792969 C 6.023438 -11.792969 6.363281 -11.667969 6.613281 -11.417969 C 6.863281 -11.167969 6.988281 -10.828125 6.988281 -10.398438 L 6.988281 -8.789062 C 6.988281 -8.800781 6.984375 -8.820312 6.976562 -8.84375 C 6.960938 -8.898438 6.929688 -8.945312 6.886719 -8.988281 C 6.84375 -9.027344 6.796875 -9.058594 6.746094 -9.074219 C 6.722656 -9.082031 6.703125 -9.085938 6.6875 -9.085938 L 8.535156 -9.085938 C 8.519531 -9.085938 8.5 -9.082031 8.476562 -9.074219 C 8.425781 -9.058594 8.378906 -9.027344 8.335938 -8.988281 C 8.292969 -8.945312 8.261719 -8.898438 8.246094 -8.84375 C 8.238281 -8.820312 8.234375 -8.800781 8.234375 -8.789062 Z M 8.234375 -10.90625 "/></g></g><g style="fill:#b21a22;fill-opacity:1;"><g transform="translate(62.98006, 69.382427)"><path style="stroke:none" d="M 5.546875 -8.121094 L 5.546875 -13.417969 C 5.546875 -13.691406 5.632812 -13.914062 5.804688 -14.085938 C 5.976562 -14.257812 6.199219 -14.34375 6.472656 -14.34375 L 8.496094 -14.34375 C 8.765625 -14.34375 8.992188 -14.261719 9.164062 -14.101562 C 9.347656 -13.925781 9.441406 -13.699219 9.441406 -13.417969 L 9.441406 -0.3125 C 9.441406 -0.03125 9.347656 0.195312 9.164062 0.367188 C 8.992188 0.53125 8.765625 0.613281 8.496094 0.613281 L 6.472656 0.613281 C 6.199219 0.613281 5.976562 0.527344 5.804688 0.355469 C 5.632812 0.183594 5.546875 -0.0390625 5.546875 -0.3125 L 5.546875 -5.53125 L 6.160156 -5.53125 L 6.160156 -4.917969 L 3.648438 -4.917969 L 3.648438 -5.53125 L 4.261719 -5.53125 L 4.261719 -0.3125 C 4.261719 -0.0390625 4.175781 0.183594 4.003906 0.355469 C 3.832031 0.527344 3.609375 0.613281 3.335938 0.613281 L 1.3125 0.613281 C 1.042969 0.613281 0.816406 0.53125 0.644531 0.367188 C 0.460938 0.195312 0.367188 -0.03125 0.367188 -0.3125 L 0.367188 -13.417969 C 0.367188 -13.699219 0.460938 -13.925781 0.644531 -14.101562 C 0.816406 -14.261719 1.042969 -14.34375 1.3125 -14.34375 L 3.335938 -14.34375 C 3.609375 -14.34375 3.832031 -14.257812 4.003906 -14.085938 C 4.175781 -13.914062 4.261719 -13.691406 4.261719 -13.417969 L 4.261719 -8.121094 L 3.648438 -8.121094 L 3.648438 -8.734375 L 6.160156 -8.734375 L 6.160156 -8.121094 Z M 6.773438 -7.507812 L 3.035156 -7.507812 L 3.035156 -13.417969 C 3.035156 -13.402344 3.039062 -13.386719 3.046875 -13.363281 C 3.066406 -13.308594 3.09375 -13.261719 3.136719 -13.21875 C 3.179688 -13.179688 3.226562 -13.148438 3.277344 -13.128906 C 3.300781 -13.121094 3.320312 -13.117188 3.335938 -13.117188 L 1.3125 -13.117188 C 1.320312 -13.117188 1.332031 -13.121094 1.351562 -13.128906 C 1.398438 -13.140625 1.445312 -13.167969 1.484375 -13.207031 C 1.527344 -13.25 1.558594 -13.296875 1.578125 -13.351562 C 1.589844 -13.378906 1.59375 -13.398438 1.59375 -13.417969 L 1.59375 -0.3125 C 1.59375 -0.332031 1.589844 -0.355469 1.578125 -0.382812 C 1.558594 -0.433594 1.527344 -0.484375 1.484375 -0.523438 C 1.445312 -0.5625 1.398438 -0.589844 1.351562 -0.605469 C 1.332031 -0.609375 1.320312 -0.613281 1.3125 -0.613281 L 3.335938 -0.613281 C 3.320312 -0.613281 3.300781 -0.609375 3.277344 -0.601562 C 3.226562 -0.582031 3.179688 -0.554688 3.136719 -0.511719 C 3.09375 -0.46875 3.066406 -0.421875 3.046875 -0.371094 C 3.039062 -0.347656 3.035156 -0.328125 3.035156 -0.3125 L 3.035156 -6.144531 L 6.773438 -6.144531 L 6.773438 -0.3125 C 6.773438 -0.328125 6.769531 -0.347656 6.761719 -0.371094 C 6.742188 -0.421875 6.714844 -0.46875 6.671875 -0.511719 C 6.628906 -0.554688 6.582031 -0.582031 6.53125 -0.601562 C 6.507812 -0.609375 6.488281 -0.613281 6.472656 -0.613281 L 8.496094 -0.613281 C 8.488281 -0.613281 8.476562 -0.609375 8.457031 -0.605469 C 8.410156 -0.589844 8.363281 -0.5625 8.324219 -0.523438 C 8.28125 -0.484375 8.25 -0.433594 8.230469 -0.382812 C 8.21875 -0.355469 8.214844 -0.332031 8.214844 -0.3125 L 8.214844 -13.417969 C 8.214844 -13.398438 8.21875 -13.378906 8.230469 -13.351562 C 8.25 -13.296875 8.28125 -13.25 8.324219 -13.207031 C 8.363281 -13.167969 8.410156 -13.140625 8.457031 -13.128906 C 8.476562 -13.121094 8.488281 -13.117188 8.496094 -13.117188 L 6.472656 -13.117188 C 6.488281 -13.117188 6.507812 -13.121094 6.53125 -13.128906 C 6.582031 -13.148438 6.628906 -13.179688 6.671875 -13.21875 C 6.714844 -13.261719 6.742188 -13.308594 6.761719 -13.363281 C 6.769531 -13.386719 6.773438 -13.402344 6.773438 -13.417969 Z M 6.773438 -7.507812 "/></g></g><g style="fill:#060705;fill-opacity:1;"><g transform="translate(9.977146, 42.032808)"><path style="stroke:none" d="M 8.828125 -10.90625 L 8.828125 -6.96875 C 8.828125 -5.820312 8.457031 -5.019531 7.71875 -4.5625 L 8.75 -0.359375 C 8.8125 -0.117188 8.71875 0 8.46875 0 L 6.546875 0 C 6.367188 0 6.257812 -0.09375 6.21875 -0.28125 L 5.28125 -4.140625 L 3.53125 -4.140625 L 3.53125 -0.3125 C 3.53125 -0.101562 3.425781 0 3.21875 0 L 1.296875 0 C 1.085938 0 0.984375 -0.101562 0.984375 -0.3125 L 0.984375 -13.40625 C 0.984375 -13.625 1.085938 -13.734375 1.296875 -13.734375 L 6 -13.734375 C 6.925781 -13.734375 7.628906 -13.492188 8.109375 -13.015625 C 8.585938 -12.535156 8.828125 -11.832031 8.828125 -10.90625 Z M 3.53125 -6.671875 L 5.484375 -6.671875 C 6.015625 -6.671875 6.28125 -6.929688 6.28125 -7.453125 L 6.28125 -10.40625 C 6.28125 -10.9375 6.015625 -11.203125 5.484375 -11.203125 L 3.53125 -11.203125 Z M 3.53125 -6.671875 "/></g></g><g style="fill:#060705;fill-opacity:1;"><g transform="translate(19.782614, 42.032808)"><path style="stroke:none" d="M 8.796875 -13.40625 L 8.796875 -11.453125 C 8.796875 -11.234375 8.691406 -11.125 8.484375 -11.125 L 3.640625 -11.125 L 3.640625 -8.09375 L 7.328125 -8.09375 C 7.535156 -8.09375 7.640625 -7.984375 7.640625 -7.765625 L 7.640625 -5.828125 C 7.640625 -5.597656 7.535156 -5.484375 7.328125 -5.484375 L 3.640625 -5.484375 L 3.640625 -2.59375 L 8.484375 -2.59375 C 8.691406 -2.59375 8.796875 -2.488281 8.796875 -2.28125 L 8.796875 -0.3125 C 8.796875 -0.101562 8.691406 0 8.484375 0 L 1.28125 0 C 1.082031 0 0.984375 -0.101562 0.984375 -0.3125 L 0.984375 -13.40625 C 0.984375 -13.625 1.082031 -13.734375 1.28125 -13.734375 L 8.484375 -13.734375 C 8.691406 -13.734375 8.796875 -13.625 8.796875 -13.40625 Z M 8.796875 -13.40625 "/></g></g><g style="fill:#060705;fill-opacity:1;"><g transform="translate(29.568467, 42.032808)"><path style="stroke:none" d="M 8.828125 -10.90625 L 8.828125 -2.828125 C 8.828125 -1.578125 8.398438 -0.738281 7.546875 -0.3125 L 8.328125 1.375 C 8.378906 1.476562 8.375 1.5625 8.3125 1.625 C 8.25 1.6875 8.164062 1.71875 8.0625 1.71875 L 6.015625 1.71875 C 5.929688 1.71875 5.863281 1.691406 5.8125 1.640625 C 5.769531 1.585938 5.726562 1.523438 5.6875 1.453125 L 5.015625 0 L 3.796875 0 C 2.890625 0 2.191406 -0.238281 1.703125 -0.71875 C 1.222656 -1.207031 0.984375 -1.910156 0.984375 -2.828125 L 0.984375 -10.90625 C 0.984375 -11.832031 1.222656 -12.535156 1.703125 -13.015625 C 2.191406 -13.492188 2.890625 -13.734375 3.796875 -13.734375 L 6 -13.734375 C 6.925781 -13.734375 7.628906 -13.492188 8.109375 -13.015625 C 8.585938 -12.535156 8.828125 -11.832031 8.828125 -10.90625 Z M 3.53125 -10.40625 L 3.53125 -3.3125 C 3.53125 -2.789062 3.789062 -2.53125 4.3125 -2.53125 L 5.5625 -2.53125 C 6.09375 -2.53125 6.359375 -2.789062 6.359375 -3.3125 L 6.359375 -10.40625 C 6.359375 -10.9375 6.09375 -11.203125 5.5625 -11.203125 L 4.3125 -11.203125 C 3.789062 -11.203125 3.53125 -10.9375 3.53125 -10.40625 Z M 3.53125 -10.40625 "/></g></g><g style="fill:#060705;fill-opacity:1;"><g transform="translate(39.373934, 42.032808)"><path style="stroke:none" d="M 6.625 -13.734375 L 8.4375 -13.734375 C 8.539062 -13.734375 8.628906 -13.691406 8.703125 -13.609375 C 8.785156 -13.523438 8.828125 -13.429688 8.828125 -13.328125 L 8.828125 -2.828125 C 8.828125 -1.910156 8.585938 -1.207031 8.109375 -0.71875 C 7.628906 -0.238281 6.925781 0 6 0 L 3.796875 0 C 2.890625 0 2.191406 -0.238281 1.703125 -0.71875 C 1.222656 -1.207031 0.984375 -1.910156 0.984375 -2.828125 L 0.984375 -13.328125 C 0.984375 -13.429688 1.019531 -13.523438 1.09375 -13.609375 C 1.175781 -13.691406 1.269531 -13.734375 1.375 -13.734375 L 3.25 -13.734375 C 3.351562 -13.734375 3.441406 -13.691406 3.515625 -13.609375 C 3.597656 -13.523438 3.640625 -13.429688 3.640625 -13.328125 L 3.640625 -3.375 C 3.640625 -2.851562 3.90625 -2.59375 4.4375 -2.59375 L 5.453125 -2.59375 C 5.972656 -2.59375 6.234375 -2.851562 6.234375 -3.375 L 6.234375 -13.328125 C 6.234375 -13.429688 6.269531 -13.523438 6.34375 -13.609375 C 6.425781 -13.691406 6.519531 -13.734375 6.625 -13.734375 Z M 6.625 -13.734375 "/></g></g><g style="fill:#060705;fill-opacity:1;"><g transform="translate(49.179401, 42.032808)"><path style="stroke:none" d="M 1.296875 0 L 3.328125 0 C 3.535156 0 3.640625 -0.101562 3.640625 -0.3125 L 3.640625 -13.40625 C 3.640625 -13.625 3.535156 -13.734375 3.328125 -13.734375 L 1.296875 -13.734375 C 1.085938 -13.734375 0.984375 -13.625 0.984375 -13.40625 L 0.984375 -0.3125 C 0.984375 -0.101562 1.085938 0 1.296875 0 Z M 1.296875 0 "/></g></g><g style="fill:#060705;fill-opacity:1;"><g transform="translate(53.807579, 42.032808)"><path style="stroke:none" d="M 8.828125 -10.90625 L 8.828125 -6.96875 C 8.828125 -5.820312 8.457031 -5.019531 7.71875 -4.5625 L 8.75 -0.359375 C 8.8125 -0.117188 8.71875 0 8.46875 0 L 6.546875 0 C 6.367188 0 6.257812 -0.09375 6.21875 -0.28125 L 5.28125 -4.140625 L 3.53125 -4.140625 L 3.53125 -0.3125 C 3.53125 -0.101562 3.425781 0 3.21875 0 L 1.296875 0 C 1.085938 0 0.984375 -0.101562 0.984375 -0.3125 L 0.984375 -13.40625 C 0.984375 -13.625 1.085938 -13.734375 1.296875 -13.734375 L 6 -13.734375 C 6.925781 -13.734375 7.628906 -13.492188 8.109375 -13.015625 C 8.585938 -12.535156 8.828125 -11.832031 8.828125 -10.90625 Z M 3.53125 -6.671875 L 5.484375 -6.671875 C 6.015625 -6.671875 6.28125 -6.929688 6.28125 -7.453125 L 6.28125 -10.40625 C 6.28125 -10.9375 6.015625 -11.203125 5.484375 -11.203125 L 3.53125 -11.203125 Z M 3.53125 -6.671875 "/></g></g><g style="fill:#060705;fill-opacity:1;"><g transform="translate(63.613046, 42.032808)"><path style="stroke:none" d="M 8.796875 -13.40625 L 8.796875 -11.453125 C 8.796875 -11.234375 8.691406 -11.125 8.484375 -11.125 L 3.640625 -11.125 L 3.640625 -8.09375 L 7.328125 -8.09375 C 7.535156 -8.09375 7.640625 -7.984375 7.640625 -7.765625 L 7.640625 -5.828125 C 7.640625 -5.597656 7.535156 -5.484375 7.328125 -5.484375 L 3.640625 -5.484375 L 3.640625 -2.59375 L 8.484375 -2.59375 C 8.691406 -2.59375 8.796875 -2.488281 8.796875 -2.28125 L 8.796875 -0.3125 C 8.796875 -0.101562 8.691406 0 8.484375 0 L 1.28125 0 C 1.082031 0 0.984375 -0.101562 0.984375 -0.3125 L 0.984375 -13.40625 C 0.984375 -13.625 1.082031 -13.734375 1.28125 -13.734375 L 8.484375 -13.734375 C 8.691406 -13.734375 8.796875 -13.625 8.796875 -13.40625 Z M 8.796875 -13.40625 "/></g></g><g style="fill:#060705;fill-opacity:1;"><g transform="translate(73.398899, 42.032808)"><path style="stroke:none" d="M 0 2.625 L 0 0.828125 C 0 0.566406 0.128906 0.4375 0.390625 0.4375 L 12.21875 0.4375 C 12.476562 0.4375 12.609375 0.566406 12.609375 0.828125 L 12.609375 2.625 C 12.609375 2.882812 12.476562 3.015625 12.21875 3.015625 L 0.390625 3.015625 C 0.128906 3.015625 0 2.882812 0 2.625 Z M 0 2.625 "/></g></g><g style="fill:#060705;fill-opacity:1;"><g transform="translate(23.209078, 69.382427)"><path style="stroke:none" d="M 8.84375 -10.90625 L 8.84375 -8.25 C 8.84375 -7.882812 8.722656 -7.578125 8.484375 -7.328125 C 8.253906 -7.085938 7.960938 -6.929688 7.609375 -6.859375 L 7.609375 -6.828125 C 7.960938 -6.773438 8.253906 -6.617188 8.484375 -6.359375 C 8.722656 -6.109375 8.84375 -5.800781 8.84375 -5.4375 L 8.84375 -2.828125 C 8.84375 -1.910156 8.597656 -1.207031 8.109375 -0.71875 C 7.628906 -0.238281 6.925781 0 6 0 L 1.296875 0 C 1.085938 0 0.984375 -0.101562 0.984375 -0.3125 L 0.984375 -13.40625 C 0.984375 -13.625 1.085938 -13.734375 1.296875 -13.734375 L 6 -13.734375 C 6.925781 -13.734375 7.628906 -13.492188 8.109375 -13.015625 C 8.597656 -12.535156 8.84375 -11.832031 8.84375 -10.90625 Z M 6.359375 -8.90625 L 6.359375 -10.46875 C 6.359375 -10.988281 6.09375 -11.25 5.5625 -11.25 L 3.40625 -11.25 L 3.40625 -8.140625 L 5.5625 -8.140625 C 6.09375 -8.140625 6.359375 -8.394531 6.359375 -8.90625 Z M 6.359375 -3.25 L 6.359375 -4.765625 C 6.359375 -5.285156 6.09375 -5.546875 5.5625 -5.546875 L 3.40625 -5.546875 L 3.40625 -2.46875 L 5.5625 -2.46875 C 6.09375 -2.46875 6.359375 -2.726562 6.359375 -3.25 Z M 6.359375 -3.25 "/></g></g><g style="fill:#060705;fill-opacity:1;"><g transform="translate(33.03416, 69.382427)"><path style="stroke:none" d="M 8.796875 -13.40625 L 8.796875 -11.453125 C 8.796875 -11.234375 8.691406 -11.125 8.484375 -11.125 L 3.640625 -11.125 L 3.640625 -8.09375 L 7.328125 -8.09375 C 7.535156 -8.09375 7.640625 -7.984375 7.640625 -7.765625 L 7.640625 -5.828125 C 7.640625 -5.597656 7.535156 -5.484375 7.328125 -5.484375 L 3.640625 -5.484375 L 3.640625 -2.59375 L 8.484375 -2.59375 C 8.691406 -2.59375 8.796875 -2.488281 8.796875 -2.28125 L 8.796875 -0.3125 C 8.796875 -0.101562 8.691406 0 8.484375 0 L 1.28125 0 C 1.082031 0 0.984375 -0.101562 0.984375 -0.3125 L 0.984375 -13.40625 C 0.984375 -13.625 1.082031 -13.734375 1.28125 -13.734375 L 8.484375 -13.734375 C 8.691406 -13.734375 8.796875 -13.625 8.796875 -13.40625 Z M 8.796875 -13.40625 "/></g></g><g style="fill:#060705;fill-opacity:1;"><g transform="translate(42.820013, 69.382427)"><path style="stroke:none" d="M 7.203125 -13.734375 L 9.046875 -13.734375 C 9.253906 -13.734375 9.359375 -13.625 9.359375 -13.40625 L 9.359375 -0.3125 C 9.359375 -0.101562 9.253906 0 9.046875 0 L 7.484375 0 C 7.328125 0 7.210938 -0.0820312 7.140625 -0.25 L 3.453125 -7.75 L 3.453125 -0.3125 C 3.453125 -0.101562 3.347656 0 3.140625 0 L 1.296875 0 C 1.085938 0 0.984375 -0.101562 0.984375 -0.3125 L 0.984375 -13.40625 C 0.984375 -13.625 1.085938 -13.734375 1.296875 -13.734375 L 2.84375 -13.734375 C 3 -13.734375 3.117188 -13.644531 3.203125 -13.46875 L 6.890625 -5.984375 L 6.890625 -13.40625 C 6.890625 -13.625 6.992188 -13.734375 7.203125 -13.734375 Z M 7.203125 -13.734375 "/></g></g><g style="fill:#060705;fill-opacity:1;"><g transform="translate(53.154979, 69.382427)"><path style="stroke:none" d="M 8.84375 -10.90625 L 8.84375 -8.78125 C 8.84375 -8.570312 8.738281 -8.46875 8.53125 -8.46875 L 6.6875 -8.46875 C 6.476562 -8.46875 6.375 -8.570312 6.375 -8.78125 L 6.375 -10.390625 C 6.375 -10.910156 6.113281 -11.171875 5.59375 -11.171875 L 4.328125 -11.171875 C 3.804688 -11.171875 3.546875 -10.910156 3.546875 -10.390625 L 3.546875 -3.28125 C 3.546875 -2.75 3.804688 -2.484375 4.328125 -2.484375 L 5.59375 -2.484375 C 6.113281 -2.484375 6.375 -2.75 6.375 -3.28125 L 6.375 -4.9375 C 6.375 -5.144531 6.476562 -5.25 6.6875 -5.25 L 8.53125 -5.25 C 8.738281 -5.25 8.84375 -5.144531 8.84375 -4.9375 L 8.84375 -2.828125 C 8.84375 -1.910156 8.597656 -1.207031 8.109375 -0.71875 C 7.628906 -0.238281 6.929688 0 6.015625 0 L 3.828125 0 C 2.910156 0 2.207031 -0.238281 1.71875 -0.71875 C 1.226562 -1.207031 0.984375 -1.910156 0.984375 -2.828125 L 0.984375 -10.90625 C 0.984375 -11.832031 1.226562 -12.535156 1.71875 -13.015625 C 2.207031 -13.492188 2.910156 -13.734375 3.828125 -13.734375 L 6.015625 -13.734375 C 6.929688 -13.734375 7.628906 -13.492188 8.109375 -13.015625 C 8.597656 -12.535156 8.84375 -11.832031 8.84375 -10.90625 Z M 8.84375 -10.90625 "/></g></g><g style="fill:#060705;fill-opacity:1;"><g transform="translate(62.98006, 69.382427)"><path style="stroke:none" d="M 6.15625 -8.125 L 6.15625 -13.40625 C 6.15625 -13.625 6.257812 -13.734375 6.46875 -13.734375 L 8.484375 -13.734375 C 8.710938 -13.734375 8.828125 -13.625 8.828125 -13.40625 L 8.828125 -0.3125 C 8.828125 -0.101562 8.710938 0 8.484375 0 L 6.46875 0 C 6.257812 0 6.15625 -0.101562 6.15625 -0.3125 L 6.15625 -5.53125 L 3.640625 -5.53125 L 3.640625 -0.3125 C 3.640625 -0.101562 3.535156 0 3.328125 0 L 1.3125 0 C 1.09375 0 0.984375 -0.101562 0.984375 -0.3125 L 0.984375 -13.40625 C 0.984375 -13.625 1.09375 -13.734375 1.3125 -13.734375 L 3.328125 -13.734375 C 3.535156 -13.734375 3.640625 -13.625 3.640625 -13.40625 L 3.640625 -8.125 Z M 6.15625 -8.125 "/></g></g></g></svg>