<svg xmlns="http://www.w3.org/2000/svg" xmlns:xlink="http://www.w3.org/1999/xlink" width="128" zoomAndPan="magnify" viewBox="0 0 96 95.999999" height="128" preserveAspectRatio="xMidYMid meet" version="1.2"><defs><clipPath id="53821b92cb"><path d="M 6 0 L 90 0 L 90 96 L 6 96 Z M 6 0 "/></clipPath><clipPath id="3246ae405a"><path d="M -14.304688 36.578125 L 68.691406 -11.898438 L 110.335938 59.402344 L 27.339844 107.878906 Z M -14.304688 36.578125 "/></clipPath><clipPath id="24187acfe6"><path d="M 89.484375 23.769531 L 89.5625 71.535156 L 48.082031 95.765625 L 6.515625 72.226562 L 6.4375 24.464844 L 47.921875 0.234375 Z M 89.484375 23.769531 "/></clipPath><clipPath id="4d469c2979"><path d="M 0.238281 0 L 83.761719 0 L 83.761719 96 L 0.238281 96 Z M 0.238281 0 "/></clipPath><clipPath id="2e4de60817"><path d="M -20.304688 36.578125 L 62.691406 -11.898438 L 104.335938 59.402344 L 21.339844 107.878906 Z M -20.304688 36.578125 "/></clipPath><clipPath id="708953921c"><path d="M 83.484375 23.769531 L 83.5625 71.535156 L 42.082031 95.765625 L 0.515625 72.226562 L 0.4375 24.464844 L 41.921875 0.234375 Z M 83.484375 23.769531 "/></clipPath><clipPath id="370d0e7acf"><rect x="0" width="84" y="0" height="96"/></clipPath><clipPath id="85c3cce586"><path d="M 14.140625 9.121094 L 81.851562 9.121094 L 81.851562 86.839844 L 14.140625 86.839844 Z M 14.140625 9.121094 "/></clipPath><clipPath id="8491ffabc1"><rect x="0" width="96" y="0" height="96"/></clipPath><clipPath id="feb0eefbc8"><path d="M 7 52 L 23 52 L 23 56.839844 L 7 56.839844 Z M 7 52 "/></clipPath><clipPath id="9781f5cea5"><rect x="0" width="73" y="0" height="57"/></clipPath></defs><g id="13faf1eb39"><g transform="matrix(1,0,0,1,0,-0.000000000000008101)"><g clip-path="url(#8491ffabc1)"><g clip-rule="nonzero" clip-path="url(#53821b92cb)"><g clip-rule="nonzero" clip-path="url(#3246ae405a)"><g clip-rule="nonzero" clip-path="url(#24187acfe6)"><g transform="matrix(1,0,0,1,6,-0.000000000000008101)"><g id="a70ea51750" clip-path="url(#370d0e7acf)"><g clip-rule="nonzero" clip-path="url(#4d469c2979)"><g clip-rule="nonzero" clip-path="url(#2e4de60817)"><g clip-rule="nonzero" clip-path="url(#708953921c)"><path style=" stroke:none;fill-rule:nonzero;fill:#65b30e;fill-opacity:1;" d="M -20.304688 36.578125 L 62.691406 -11.898438 L 104.335938 59.402344 L 21.339844 107.878906 Z M -20.304688 36.578125 "/></g></g></g></g></g></g></g></g><path style=" stroke:none;fill-rule:nonzero;fill:#87ff00;fill-opacity:1;" d="M 34.464844 34.753906 L 34.417969 34.707031 L 24.847656 44.28125 L 48.089844 67.484375 L 57.664062 57.957031 L 71.335938 44.28125 L 61.761719 34.707031 L 61.761719 34.664062 L 34.421875 34.664062 Z M 34.464844 34.753906 "/><g clip-rule="nonzero" clip-path="url(#85c3cce586)"><path style=" stroke:none;fill-rule:nonzero;fill:#87ff00;fill-opacity:1;" d="M 48.003906 9.179688 L 14.148438 28.585938 L 14.148438 67.398438 L 48.003906 86.808594 L 81.859375 67.398438 L 81.859375 28.585938 Z M 75.390625 63.6875 L 48.003906 79.472656 L 20.617188 63.6875 L 20.621094 32.207031 L 48.003906 16.421875 L 75.390625 32.207031 Z M 75.390625 63.6875 "/></g></g></g><g transform="matrix(1,0,0,1,12,19)"><g clip-path="url(#9781f5cea5)"><g style="fill:#b21a22;fill-opacity:1;"><g transform="translate(0.903394, 22.523312)"><path style="stroke:none" d="M 3.3125 -2.824219 L 3.3125 -14.636719 C 3.3125 -14.621094 3.316406 -14.601562 3.324219 -14.574219 C 3.34375 -14.519531 3.375 -14.46875 3.421875 -14.421875 C 3.46875 -14.375 3.519531 -14.34375 3.578125 -14.324219 C 3.601562 -14.316406 3.621094 -14.3125 3.636719 -14.3125 L 1.414062 -14.3125 C 1.425781 -14.3125 1.449219 -14.316406 1.472656 -14.324219 C 1.53125 -14.34375 1.582031 -14.375 1.628906 -14.421875 C 1.675781 -14.46875 1.707031 -14.519531 1.726562 -14.574219 C 1.734375 -14.601562 1.738281 -14.621094 1.738281 -14.636719 L 1.738281 -0.34375 C 1.738281 -0.359375 1.734375 -0.378906 1.726562 -0.402344 C 1.707031 -0.460938 1.675781 -0.511719 1.628906 -0.558594 C 1.582031 -0.605469 1.53125 -0.636719 1.472656 -0.65625 C 1.449219 -0.664062 1.425781 -0.667969 1.414062 -0.667969 L 8.21875 -0.667969 C 8.203125 -0.667969 8.179688 -0.664062 8.15625 -0.65625 C 8.097656 -0.636719 8.046875 -0.605469 8 -0.558594 C 7.957031 -0.511719 7.921875 -0.460938 7.902344 -0.402344 C 7.894531 -0.378906 7.890625 -0.359375 7.890625 -0.34375 L 7.890625 -2.480469 C 7.890625 -2.46875 7.894531 -2.445312 7.902344 -2.421875 C 7.921875 -2.363281 7.957031 -2.3125 8 -2.265625 C 8.046875 -2.21875 8.097656 -2.1875 8.15625 -2.167969 C 8.179688 -2.160156 8.203125 -2.15625 8.21875 -2.15625 L 3.3125 -2.15625 Z M 4.648438 -2.824219 L 3.980469 -2.824219 L 3.980469 -3.492188 L 8.21875 -3.492188 C 8.515625 -3.492188 8.757812 -3.398438 8.945312 -3.210938 C 9.136719 -3.023438 9.230469 -2.78125 9.230469 -2.480469 L 9.230469 -0.34375 C 9.230469 -0.0429688 9.136719 0.199219 8.945312 0.386719 C 8.757812 0.574219 8.515625 0.667969 8.21875 0.667969 L 1.414062 0.667969 C 1.113281 0.667969 0.871094 0.574219 0.683594 0.386719 C 0.496094 0.199219 0.402344 -0.0429688 0.402344 -0.34375 L 0.402344 -14.636719 C 0.402344 -14.9375 0.496094 -15.179688 0.683594 -15.367188 C 0.871094 -15.554688 1.113281 -15.648438 1.414062 -15.648438 L 3.636719 -15.648438 C 3.9375 -15.648438 4.179688 -15.554688 4.367188 -15.367188 C 4.554688 -15.179688 4.648438 -14.9375 4.648438 -14.636719 Z M 4.648438 -2.824219 "/></g></g><g style="fill:#b21a22;fill-opacity:1;"><g transform="translate(10.53285, 22.523312)"><path style="stroke:none" d="M 1.414062 -0.667969 L 3.636719 -0.667969 C 3.621094 -0.667969 3.601562 -0.664062 3.578125 -0.65625 C 3.519531 -0.636719 3.46875 -0.605469 3.421875 -0.558594 C 3.375 -0.511719 3.34375 -0.460938 3.324219 -0.402344 C 3.316406 -0.378906 3.3125 -0.359375 3.3125 -0.34375 L 3.3125 -14.636719 C 3.3125 -14.621094 3.316406 -14.601562 3.324219 -14.574219 C 3.34375 -14.519531 3.375 -14.46875 3.421875 -14.421875 C 3.46875 -14.375 3.519531 -14.34375 3.578125 -14.324219 C 3.601562 -14.316406 3.621094 -14.3125 3.636719 -14.3125 L 1.414062 -14.3125 C 1.425781 -14.3125 1.449219 -14.316406 1.472656 -14.324219 C 1.53125 -14.34375 1.582031 -14.375 1.628906 -14.421875 C 1.675781 -14.46875 1.707031 -14.519531 1.726562 -14.574219 C 1.734375 -14.601562 1.738281 -14.621094 1.738281 -14.636719 L 1.738281 -0.34375 C 1.738281 -0.359375 1.734375 -0.378906 1.726562 -0.402344 C 1.707031 -0.460938 1.675781 -0.511719 1.628906 -0.558594 C 1.582031 -0.605469 1.53125 -0.636719 1.472656 -0.65625 C 1.449219 -0.664062 1.425781 -0.667969 1.414062 -0.667969 Z M 1.414062 0.667969 C 1.113281 0.667969 0.871094 0.574219 0.683594 0.386719 C 0.496094 0.199219 0.402344 -0.0429688 0.402344 -0.34375 L 0.402344 -14.636719 C 0.402344 -14.9375 0.496094 -15.179688 0.683594 -15.367188 C 0.871094 -15.554688 1.113281 -15.648438 1.414062 -15.648438 L 3.636719 -15.648438 C 3.9375 -15.648438 4.179688 -15.554688 4.367188 -15.367188 C 4.554688 -15.179688 4.648438 -14.9375 4.648438 -14.636719 L 4.648438 -0.34375 C 4.648438 -0.0429688 4.554688 0.199219 4.367188 0.386719 C 4.179688 0.574219 3.9375 0.667969 3.636719 0.667969 Z M 1.414062 0.667969 "/></g></g><g style="fill:#b21a22;fill-opacity:1;"><g transform="translate(15.582965, 22.523312)"><path style="stroke:none" d="M 10.320312 -11.898438 L 10.320312 -9.007812 C 10.320312 -8.433594 10.128906 -7.945312 9.75 -7.542969 C 9.394531 -7.167969 8.953125 -6.929688 8.425781 -6.832031 L 8.304688 -7.488281 L 8.972656 -7.488281 L 8.972656 -7.445312 L 8.304688 -7.445312 L 8.402344 -8.109375 C 8.941406 -8.027344 9.394531 -7.792969 9.757812 -7.398438 C 10.132812 -6.992188 10.320312 -6.5 10.320312 -5.925781 L 10.320312 -3.082031 C 10.320312 -1.898438 9.992188 -0.976562 9.332031 -0.320312 C 8.675781 0.339844 7.746094 0.667969 6.546875 0.667969 L 1.414062 0.667969 C 1.113281 0.667969 0.871094 0.574219 0.683594 0.386719 C 0.496094 0.199219 0.402344 -0.0429688 0.402344 -0.34375 L 0.402344 -14.636719 C 0.402344 -14.9375 0.496094 -15.179688 0.683594 -15.367188 C 0.871094 -15.554688 1.113281 -15.648438 1.414062 -15.648438 L 6.546875 -15.648438 C 7.742188 -15.648438 8.671875 -15.324219 9.328125 -14.675781 C 9.988281 -14.023438 10.320312 -13.097656 10.320312 -11.898438 Z M 8.980469 -11.898438 C 8.980469 -12.722656 8.785156 -13.332031 8.390625 -13.722656 C 7.992188 -14.113281 7.378906 -14.3125 6.546875 -14.3125 L 1.414062 -14.3125 C 1.425781 -14.3125 1.449219 -14.316406 1.472656 -14.324219 C 1.53125 -14.34375 1.582031 -14.375 1.628906 -14.421875 C 1.675781 -14.46875 1.707031 -14.519531 1.726562 -14.574219 C 1.734375 -14.601562 1.738281 -14.621094 1.738281 -14.636719 L 1.738281 -0.34375 C 1.738281 -0.359375 1.734375 -0.378906 1.726562 -0.402344 C 1.707031 -0.460938 1.675781 -0.511719 1.628906 -0.558594 C 1.582031 -0.605469 1.53125 -0.636719 1.472656 -0.65625 C 1.449219 -0.664062 1.425781 -0.667969 1.414062 -0.667969 L 6.546875 -0.667969 C 7.375 -0.667969 7.988281 -0.867188 8.386719 -1.265625 C 8.785156 -1.660156 8.980469 -2.269531 8.980469 -3.082031 L 8.980469 -5.925781 C 8.980469 -6.152344 8.914062 -6.339844 8.773438 -6.492188 C 8.625 -6.652344 8.433594 -6.75 8.203125 -6.785156 L 7.632812 -6.871094 L 7.632812 -8.046875 L 8.179688 -8.148438 C 8.421875 -8.191406 8.625 -8.296875 8.78125 -8.464844 C 8.914062 -8.605469 8.980469 -8.789062 8.980469 -9.007812 Z M 6.265625 -9.714844 L 6.265625 -11.425781 C 6.265625 -11.496094 6.257812 -11.550781 6.246094 -11.589844 C 6.242188 -11.597656 6.242188 -11.601562 6.238281 -11.605469 C 6.242188 -11.601562 6.242188 -11.597656 6.246094 -11.597656 C 6.25 -11.59375 6.253906 -11.589844 6.253906 -11.589844 C 6.253906 -11.589844 6.246094 -11.59375 6.242188 -11.59375 C 6.203125 -11.609375 6.148438 -11.613281 6.078125 -11.613281 L 3.722656 -11.613281 L 3.722656 -12.285156 L 4.390625 -12.285156 L 4.390625 -8.878906 L 3.722656 -8.878906 L 3.722656 -9.550781 L 6.078125 -9.550781 C 6.148438 -9.550781 6.207031 -9.554688 6.246094 -9.570312 C 6.253906 -9.570312 6.257812 -9.574219 6.261719 -9.574219 C 6.257812 -9.574219 6.257812 -9.570312 6.253906 -9.566406 C 6.25 -9.566406 6.246094 -9.5625 6.242188 -9.558594 C 6.246094 -9.558594 6.246094 -9.5625 6.246094 -9.566406 C 6.257812 -9.601562 6.265625 -9.652344 6.265625 -9.714844 Z M 7.601562 -9.714844 C 7.601562 -9.25 7.464844 -8.882812 7.1875 -8.609375 C 6.914062 -8.34375 6.542969 -8.210938 6.078125 -8.210938 L 3.054688 -8.210938 L 3.054688 -12.953125 L 6.078125 -12.953125 C 6.546875 -12.953125 6.917969 -12.816406 7.191406 -12.542969 C 7.464844 -12.269531 7.601562 -11.898438 7.601562 -11.425781 Z M 6.265625 -3.550781 L 6.265625 -5.199219 C 6.265625 -5.269531 6.257812 -5.324219 6.246094 -5.363281 C 6.242188 -5.371094 6.242188 -5.375 6.238281 -5.378906 C 6.242188 -5.375 6.242188 -5.371094 6.246094 -5.371094 C 6.25 -5.367188 6.253906 -5.363281 6.253906 -5.363281 C 6.253906 -5.363281 6.246094 -5.367188 6.242188 -5.367188 C 6.203125 -5.378906 6.148438 -5.386719 6.078125 -5.386719 L 3.722656 -5.386719 L 3.722656 -6.054688 L 4.390625 -6.054688 L 4.390625 -2.695312 L 3.722656 -2.695312 L 3.722656 -3.363281 L 6.078125 -3.363281 C 6.148438 -3.363281 6.203125 -3.371094 6.242188 -3.382812 C 6.246094 -3.386719 6.253906 -3.386719 6.253906 -3.390625 C 6.253906 -3.390625 6.25 -3.386719 6.246094 -3.382812 C 6.242188 -3.378906 6.242188 -3.378906 6.238281 -3.375 C 6.242188 -3.378906 6.242188 -3.382812 6.246094 -3.390625 C 6.257812 -3.425781 6.265625 -3.480469 6.265625 -3.550781 Z M 7.601562 -3.550781 C 7.601562 -3.082031 7.464844 -2.710938 7.191406 -2.4375 C 6.917969 -2.164062 6.546875 -2.027344 6.078125 -2.027344 L 3.054688 -2.027344 L 3.054688 -6.726562 L 6.078125 -6.726562 C 6.546875 -6.726562 6.917969 -6.589844 7.191406 -6.316406 C 7.464844 -6.042969 7.601562 -5.671875 7.601562 -5.199219 Z M 7.601562 -3.550781 "/></g></g><g style="fill:#b21a22;fill-opacity:1;"><g transform="translate(26.303761, 22.523312)"><path style="stroke:none" d="M 10.296875 -11.898438 L 10.296875 -7.597656 C 10.296875 -6.109375 9.792969 -5.050781 8.785156 -4.417969 L 8.429688 -4.984375 L 9.082031 -5.144531 L 10.195312 -0.542969 L 9.542969 -0.386719 L 10.1875 -0.5625 C 10.285156 -0.21875 10.238281 0.0742188 10.050781 0.3125 C 9.867188 0.550781 9.597656 0.667969 9.246094 0.667969 L 7.148438 0.667969 C 6.886719 0.667969 6.664062 0.59375 6.480469 0.441406 C 6.300781 0.292969 6.183594 0.09375 6.128906 -0.160156 L 6.785156 -0.300781 L 6.132812 -0.140625 L 5.105469 -4.355469 L 5.757812 -4.515625 L 5.757812 -3.847656 L 3.851562 -3.847656 L 3.851562 -4.515625 L 4.519531 -4.515625 L 4.519531 -0.34375 C 4.519531 -0.0429688 4.425781 0.199219 4.238281 0.386719 C 4.050781 0.574219 3.808594 0.667969 3.507812 0.667969 L 1.414062 0.667969 C 1.113281 0.667969 0.871094 0.574219 0.683594 0.386719 C 0.496094 0.199219 0.402344 -0.0429688 0.402344 -0.34375 L 0.402344 -14.636719 C 0.402344 -14.9375 0.496094 -15.179688 0.683594 -15.367188 C 0.871094 -15.554688 1.113281 -15.648438 1.414062 -15.648438 L 6.546875 -15.648438 C 7.746094 -15.648438 8.671875 -15.324219 9.320312 -14.671875 C 9.972656 -14.019531 10.296875 -13.097656 10.296875 -11.898438 Z M 8.960938 -11.898438 C 8.960938 -12.726562 8.765625 -13.335938 8.375 -13.726562 C 7.984375 -14.117188 7.375 -14.3125 6.546875 -14.3125 L 1.414062 -14.3125 C 1.425781 -14.3125 1.449219 -14.316406 1.472656 -14.324219 C 1.53125 -14.34375 1.582031 -14.375 1.628906 -14.421875 C 1.675781 -14.46875 1.707031 -14.519531 1.726562 -14.574219 C 1.734375 -14.601562 1.738281 -14.621094 1.738281 -14.636719 L 1.738281 -0.34375 C 1.738281 -0.359375 1.734375 -0.378906 1.726562 -0.402344 C 1.707031 -0.460938 1.675781 -0.511719 1.628906 -0.558594 C 1.582031 -0.605469 1.53125 -0.636719 1.472656 -0.65625 C 1.449219 -0.664062 1.425781 -0.667969 1.414062 -0.667969 L 3.507812 -0.667969 C 3.496094 -0.667969 3.472656 -0.664062 3.449219 -0.65625 C 3.390625 -0.636719 3.339844 -0.605469 3.292969 -0.558594 C 3.246094 -0.511719 3.214844 -0.460938 3.195312 -0.402344 C 3.1875 -0.378906 3.183594 -0.359375 3.183594 -0.34375 L 3.183594 -5.183594 L 6.28125 -5.183594 L 7.4375 -0.449219 L 7.4375 -0.441406 C 7.425781 -0.492188 7.390625 -0.542969 7.332031 -0.589844 C 7.269531 -0.644531 7.207031 -0.667969 7.148438 -0.667969 L 9.246094 -0.667969 C 9.230469 -0.667969 9.214844 -0.664062 9.195312 -0.65625 C 9.117188 -0.628906 9.050781 -0.578125 8.996094 -0.507812 C 8.9375 -0.433594 8.90625 -0.351562 8.898438 -0.265625 C 8.894531 -0.238281 8.898438 -0.21875 8.898438 -0.207031 L 8.898438 -0.21875 L 7.667969 -5.296875 L 8.078125 -5.554688 C 8.667969 -5.921875 8.960938 -6.601562 8.960938 -7.597656 Z M 3.851562 -7.945312 L 5.992188 -7.945312 C 6.0625 -7.945312 6.117188 -7.949219 6.15625 -7.964844 C 6.160156 -7.964844 6.167969 -7.96875 6.167969 -7.96875 C 6.167969 -7.96875 6.164062 -7.964844 6.160156 -7.960938 C 6.15625 -7.960938 6.15625 -7.957031 6.152344 -7.953125 C 6.15625 -7.957031 6.15625 -7.960938 6.160156 -7.96875 C 6.171875 -8.007812 6.179688 -8.0625 6.179688 -8.132812 L 6.179688 -11.363281 C 6.179688 -11.433594 6.171875 -11.488281 6.160156 -11.527344 C 6.15625 -11.535156 6.15625 -11.539062 6.152344 -11.539062 C 6.15625 -11.539062 6.15625 -11.535156 6.160156 -11.53125 C 6.164062 -11.527344 6.167969 -11.527344 6.167969 -11.523438 C 6.167969 -11.527344 6.160156 -11.527344 6.15625 -11.53125 C 6.117188 -11.542969 6.0625 -11.550781 5.992188 -11.550781 L 3.851562 -11.550781 L 3.851562 -12.21875 L 4.519531 -12.21875 L 4.519531 -7.277344 L 3.851562 -7.277344 Z M 3.183594 -6.605469 L 3.183594 -12.886719 L 5.992188 -12.886719 C 6.460938 -12.886719 6.832031 -12.75 7.105469 -12.476562 C 7.378906 -12.203125 7.515625 -11.832031 7.515625 -11.363281 L 7.515625 -8.132812 C 7.515625 -7.660156 7.378906 -7.289062 7.105469 -7.015625 C 6.832031 -6.742188 6.460938 -6.605469 5.992188 -6.605469 Z M 3.183594 -6.605469 "/></g></g><g style="fill:#b21a22;fill-opacity:1;"><g transform="translate(37.003157, 22.523312)"><path style="stroke:none" d="M 11.171875 0.667969 L 9.09375 0.667969 C 8.835938 0.667969 8.613281 0.589844 8.429688 0.429688 C 8.261719 0.28125 8.152344 0.0859375 8.097656 -0.160156 L 8.753906 -0.300781 L 8.105469 -0.136719 L 7.417969 -2.832031 L 8.066406 -2.996094 L 8.066406 -2.328125 L 4.042969 -2.328125 L 4.042969 -2.996094 L 4.695312 -2.835938 L 4.03125 -0.140625 L 3.382812 -0.300781 L 4.035156 -0.160156 C 3.984375 0.0859375 3.871094 0.28125 3.703125 0.429688 C 3.519531 0.589844 3.300781 0.667969 3.039062 0.667969 L 0.941406 0.667969 C 0.59375 0.667969 0.328125 0.550781 0.148438 0.316406 C -0.0351562 0.0742188 -0.078125 -0.214844 0.0234375 -0.550781 L 0.664062 -0.363281 L 0.015625 -0.523438 L 3.566406 -14.839844 L 4.214844 -14.679688 L 3.5625 -14.820312 C 3.617188 -15.070312 3.734375 -15.273438 3.914062 -15.421875 C 4.097656 -15.574219 4.320312 -15.648438 4.578125 -15.648438 L 7.554688 -15.648438 C 7.8125 -15.648438 8.035156 -15.574219 8.21875 -15.421875 C 8.402344 -15.273438 8.519531 -15.070312 8.570312 -14.820312 L 7.917969 -14.679688 L 8.566406 -14.839844 L 12.121094 -0.523438 L 11.46875 -0.363281 L 12.113281 -0.550781 C 12.214844 -0.203125 12.164062 0.0898438 11.964844 0.335938 C 11.78125 0.558594 11.515625 0.667969 11.171875 0.667969 Z M 11.171875 -0.667969 C 11.175781 -0.667969 11.175781 -0.667969 11.179688 -0.667969 C 11.179688 -0.667969 11.175781 -0.667969 11.175781 -0.667969 C 11.164062 -0.667969 11.148438 -0.664062 11.132812 -0.660156 C 11.058594 -0.632812 10.988281 -0.585938 10.933594 -0.515625 C 10.867188 -0.4375 10.832031 -0.351562 10.824219 -0.257812 C 10.820312 -0.21875 10.824219 -0.191406 10.828125 -0.175781 L 10.824219 -0.1875 L 7.265625 -14.53125 L 7.265625 -14.539062 C 7.273438 -14.488281 7.308594 -14.4375 7.371094 -14.386719 C 7.433594 -14.335938 7.492188 -14.3125 7.554688 -14.3125 L 4.578125 -14.3125 C 4.640625 -14.3125 4.699219 -14.335938 4.765625 -14.386719 C 4.824219 -14.4375 4.859375 -14.488281 4.871094 -14.539062 L 4.867188 -14.53125 L 1.308594 -0.1875 L 1.304688 -0.175781 C 1.308594 -0.1875 1.308594 -0.210938 1.308594 -0.242188 C 1.304688 -0.335938 1.269531 -0.417969 1.210938 -0.496094 C 1.152344 -0.574219 1.082031 -0.625 1 -0.65625 C 0.972656 -0.664062 0.953125 -0.667969 0.941406 -0.667969 L 3.039062 -0.667969 C 2.964844 -0.667969 2.890625 -0.636719 2.824219 -0.578125 C 2.769531 -0.53125 2.738281 -0.484375 2.726562 -0.441406 L 2.730469 -0.449219 L 3.519531 -3.664062 L 8.585938 -3.664062 L 9.402344 -0.453125 L 9.40625 -0.441406 C 9.398438 -0.484375 9.363281 -0.53125 9.308594 -0.578125 C 9.242188 -0.636719 9.167969 -0.667969 9.09375 -0.667969 Z M 6.753906 -5.328125 L 5.40625 -11.148438 L 6.054688 -11.300781 L 6.707031 -11.148438 L 5.359375 -5.328125 L 4.707031 -5.476562 L 4.707031 -6.148438 L 7.402344 -6.148438 L 7.402344 -5.476562 Z M 8.246094 -4.808594 L 3.867188 -4.808594 L 5.40625 -11.449219 L 6.707031 -11.449219 L 8.054688 -5.628906 Z M 8.246094 -4.808594 "/></g></g><g style="fill:#b21a22;fill-opacity:1;"><g transform="translate(49.136272, 22.523312)"><path style="stroke:none" d="M 10.296875 -11.898438 L 10.296875 -7.597656 C 10.296875 -6.109375 9.792969 -5.050781 8.785156 -4.417969 L 8.429688 -4.984375 L 9.082031 -5.144531 L 10.195312 -0.542969 L 9.542969 -0.386719 L 10.1875 -0.5625 C 10.285156 -0.21875 10.238281 0.0742188 10.050781 0.3125 C 9.867188 0.550781 9.597656 0.667969 9.246094 0.667969 L 7.148438 0.667969 C 6.886719 0.667969 6.664062 0.59375 6.480469 0.441406 C 6.300781 0.292969 6.183594 0.09375 6.128906 -0.160156 L 6.785156 -0.300781 L 6.132812 -0.140625 L 5.105469 -4.355469 L 5.757812 -4.515625 L 5.757812 -3.847656 L 3.851562 -3.847656 L 3.851562 -4.515625 L 4.519531 -4.515625 L 4.519531 -0.34375 C 4.519531 -0.0429688 4.425781 0.199219 4.238281 0.386719 C 4.050781 0.574219 3.808594 0.667969 3.507812 0.667969 L 1.414062 0.667969 C 1.113281 0.667969 0.871094 0.574219 0.683594 0.386719 C 0.496094 0.199219 0.402344 -0.0429688 0.402344 -0.34375 L 0.402344 -14.636719 C 0.402344 -14.9375 0.496094 -15.179688 0.683594 -15.367188 C 0.871094 -15.554688 1.113281 -15.648438 1.414062 -15.648438 L 6.546875 -15.648438 C 7.746094 -15.648438 8.671875 -15.324219 9.320312 -14.671875 C 9.972656 -14.019531 10.296875 -13.097656 10.296875 -11.898438 Z M 8.960938 -11.898438 C 8.960938 -12.726562 8.765625 -13.335938 8.375 -13.726562 C 7.984375 -14.117188 7.375 -14.3125 6.546875 -14.3125 L 1.414062 -14.3125 C 1.425781 -14.3125 1.449219 -14.316406 1.472656 -14.324219 C 1.53125 -14.34375 1.582031 -14.375 1.628906 -14.421875 C 1.675781 -14.46875 1.707031 -14.519531 1.726562 -14.574219 C 1.734375 -14.601562 1.738281 -14.621094 1.738281 -14.636719 L 1.738281 -0.34375 C 1.738281 -0.359375 1.734375 -0.378906 1.726562 -0.402344 C 1.707031 -0.460938 1.675781 -0.511719 1.628906 -0.558594 C 1.582031 -0.605469 1.53125 -0.636719 1.472656 -0.65625 C 1.449219 -0.664062 1.425781 -0.667969 1.414062 -0.667969 L 3.507812 -0.667969 C 3.496094 -0.667969 3.472656 -0.664062 3.449219 -0.65625 C 3.390625 -0.636719 3.339844 -0.605469 3.292969 -0.558594 C 3.246094 -0.511719 3.214844 -0.460938 3.195312 -0.402344 C 3.1875 -0.378906 3.183594 -0.359375 3.183594 -0.34375 L 3.183594 -5.183594 L 6.28125 -5.183594 L 7.4375 -0.449219 L 7.4375 -0.441406 C 7.425781 -0.492188 7.390625 -0.542969 7.332031 -0.589844 C 7.269531 -0.644531 7.207031 -0.667969 7.148438 -0.667969 L 9.246094 -0.667969 C 9.230469 -0.667969 9.214844 -0.664062 9.195312 -0.65625 C 9.117188 -0.628906 9.050781 -0.578125 8.996094 -0.507812 C 8.9375 -0.433594 8.90625 -0.351562 8.898438 -0.265625 C 8.894531 -0.238281 8.898438 -0.21875 8.898438 -0.207031 L 8.898438 -0.21875 L 7.667969 -5.296875 L 8.078125 -5.554688 C 8.667969 -5.921875 8.960938 -6.601562 8.960938 -7.597656 Z M 3.851562 -7.945312 L 5.992188 -7.945312 C 6.0625 -7.945312 6.117188 -7.949219 6.15625 -7.964844 C 6.160156 -7.964844 6.167969 -7.96875 6.167969 -7.96875 C 6.167969 -7.96875 6.164062 -7.964844 6.160156 -7.960938 C 6.15625 -7.960938 6.15625 -7.957031 6.152344 -7.953125 C 6.15625 -7.957031 6.15625 -7.960938 6.160156 -7.96875 C 6.171875 -8.007812 6.179688 -8.0625 6.179688 -8.132812 L 6.179688 -11.363281 C 6.179688 -11.433594 6.171875 -11.488281 6.160156 -11.527344 C 6.15625 -11.535156 6.15625 -11.539062 6.152344 -11.539062 C 6.15625 -11.539062 6.15625 -11.535156 6.160156 -11.53125 C 6.164062 -11.527344 6.167969 -11.527344 6.167969 -11.523438 C 6.167969 -11.527344 6.160156 -11.527344 6.15625 -11.53125 C 6.117188 -11.542969 6.0625 -11.550781 5.992188 -11.550781 L 3.851562 -11.550781 L 3.851562 -12.21875 L 4.519531 -12.21875 L 4.519531 -7.277344 L 3.851562 -7.277344 Z M 3.183594 -6.605469 L 3.183594 -12.886719 L 5.992188 -12.886719 C 6.460938 -12.886719 6.832031 -12.75 7.105469 -12.476562 C 7.378906 -12.203125 7.515625 -11.832031 7.515625 -11.363281 L 7.515625 -8.132812 C 7.515625 -7.660156 7.378906 -7.289062 7.105469 -7.015625 C 6.832031 -6.742188 6.460938 -6.605469 5.992188 -6.605469 Z M 3.183594 -6.605469 "/></g></g><g style="fill:#b21a22;fill-opacity:1;"><g transform="translate(59.835667, 22.523312)"><path style="stroke:none" d="M 8.515625 -15.648438 L 10.65625 -15.648438 C 11.035156 -15.648438 11.324219 -15.515625 11.53125 -15.25 C 11.65625 -15.082031 11.722656 -14.894531 11.722656 -14.683594 C 11.722656 -14.519531 11.679688 -14.355469 11.597656 -14.1875 L 11 -14.488281 L 11.613281 -14.21875 L 7.695312 -5.335938 L 7.082031 -5.605469 L 7.753906 -5.605469 L 7.753906 -0.429688 C 7.753906 -0.101562 7.652344 0.164062 7.449219 0.367188 C 7.246094 0.566406 6.984375 0.667969 6.65625 0.667969 L 4.601562 0.667969 C 4.273438 0.667969 4.007812 0.566406 3.808594 0.367188 C 3.605469 0.164062 3.503906 -0.101562 3.503906 -0.429688 L 3.503906 -5.605469 L 4.171875 -5.605469 L 3.5625 -5.335938 L -0.359375 -14.226562 L -0.363281 -14.238281 C -0.511719 -14.605469 -0.484375 -14.929688 -0.28125 -15.222656 C -0.0859375 -15.507812 0.207031 -15.648438 0.597656 -15.648438 L 2.738281 -15.648438 C 3 -15.648438 3.230469 -15.578125 3.425781 -15.441406 C 3.621094 -15.308594 3.765625 -15.117188 3.859375 -14.871094 L 3.230469 -14.636719 L 3.84375 -14.90625 L 6.242188 -9.40625 L 5.628906 -9.136719 L 5.015625 -9.40625 L 7.410156 -14.90625 L 8.023438 -14.636719 L 7.398438 -14.871094 C 7.488281 -15.117188 7.632812 -15.308594 7.832031 -15.441406 C 8.027344 -15.578125 8.257812 -15.648438 8.515625 -15.648438 Z M 8.515625 -14.3125 C 8.535156 -14.3125 8.5625 -14.320312 8.59375 -14.34375 C 8.625 -14.367188 8.644531 -14.386719 8.652344 -14.402344 L 8.644531 -14.386719 L 5.628906 -7.464844 L 2.609375 -14.386719 L 2.605469 -14.402344 C 2.609375 -14.386719 2.628906 -14.367188 2.664062 -14.34375 C 2.695312 -14.320312 2.71875 -14.3125 2.738281 -14.3125 L 0.597656 -14.3125 C 0.609375 -14.3125 0.628906 -14.316406 0.65625 -14.328125 C 0.722656 -14.355469 0.777344 -14.398438 0.816406 -14.460938 C 0.859375 -14.523438 0.882812 -14.589844 0.886719 -14.664062 C 0.886719 -14.695312 0.882812 -14.722656 0.878906 -14.734375 L 0.257812 -14.488281 L 0.867188 -14.757812 L 4.839844 -5.746094 L 4.839844 -0.429688 C 4.839844 -0.425781 4.84375 -0.421875 4.84375 -0.421875 C 4.84375 -0.421875 4.84375 -0.421875 4.839844 -0.421875 C 4.839844 -0.429688 4.839844 -0.441406 4.835938 -0.453125 C 4.820312 -0.5 4.792969 -0.542969 4.753906 -0.578125 C 4.714844 -0.617188 4.671875 -0.644531 4.625 -0.660156 C 4.613281 -0.664062 4.605469 -0.667969 4.59375 -0.667969 C 4.59375 -0.667969 4.597656 -0.667969 4.601562 -0.667969 L 6.65625 -0.667969 C 6.660156 -0.667969 6.660156 -0.667969 6.664062 -0.667969 C 6.664062 -0.667969 6.660156 -0.667969 6.660156 -0.667969 C 6.652344 -0.667969 6.640625 -0.664062 6.632812 -0.660156 C 6.585938 -0.644531 6.542969 -0.617188 6.503906 -0.578125 C 6.464844 -0.542969 6.4375 -0.5 6.421875 -0.453125 C 6.417969 -0.441406 6.414062 -0.429688 6.414062 -0.421875 C 6.414062 -0.421875 6.414062 -0.425781 6.414062 -0.429688 L 6.414062 -5.746094 L 10.394531 -14.773438 L 10.402344 -14.785156 C 10.390625 -14.765625 10.382812 -14.730469 10.382812 -14.683594 C 10.382812 -14.589844 10.414062 -14.507812 10.46875 -14.433594 C 10.507812 -14.382812 10.554688 -14.347656 10.609375 -14.324219 C 10.632812 -14.316406 10.648438 -14.3125 10.65625 -14.3125 Z M 8.515625 -14.3125 "/></g></g><g clip-rule="nonzero" clip-path="url(#feb0eefbc8)"><g style="fill:#b21a22;fill-opacity:1;"><g transform="translate(8.166668, 52.257194)"><path style="stroke:none" d="M -0.667969 2.867188 L -0.667969 0.898438 C -0.667969 0.570312 -0.566406 0.308594 -0.367188 0.105469 C -0.164062 -0.0976562 0.101562 -0.199219 0.429688 -0.199219 L 13.332031 -0.199219 C 13.660156 -0.199219 13.925781 -0.0976562 14.125 0.105469 C 14.328125 0.308594 14.429688 0.570312 14.429688 0.898438 L 14.429688 2.867188 C 14.429688 3.195312 14.328125 3.460938 14.125 3.660156 C 13.925781 3.863281 13.660156 3.964844 13.332031 3.964844 L 0.429688 3.964844 C 0.101562 3.964844 -0.164062 3.863281 -0.367188 3.660156 C -0.566406 3.460938 -0.667969 3.195312 -0.667969 2.867188 Z M 0.667969 2.867188 C 0.667969 2.871094 0.667969 2.871094 0.667969 2.875 C 0.667969 2.863281 0.664062 2.855469 0.660156 2.84375 C 0.644531 2.796875 0.617188 2.753906 0.578125 2.714844 C 0.542969 2.675781 0.5 2.648438 0.453125 2.632812 C 0.441406 2.628906 0.429688 2.628906 0.421875 2.625 C 0.421875 2.625 0.425781 2.625 0.429688 2.625 L 13.332031 2.625 C 13.335938 2.625 13.335938 2.625 13.339844 2.625 C 13.339844 2.625 13.339844 2.625 13.335938 2.625 C 13.328125 2.628906 13.320312 2.628906 13.308594 2.632812 C 13.261719 2.648438 13.21875 2.675781 13.179688 2.714844 C 13.140625 2.753906 13.113281 2.796875 13.097656 2.84375 C 13.09375 2.855469 13.09375 2.863281 13.089844 2.875 C 13.089844 2.871094 13.089844 2.871094 13.089844 2.867188 L 13.089844 0.898438 C 13.089844 0.894531 13.089844 0.894531 13.089844 0.890625 C 13.089844 0.890625 13.089844 0.890625 13.089844 0.894531 C 13.09375 0.902344 13.09375 0.910156 13.097656 0.921875 C 13.113281 0.96875 13.140625 1.011719 13.179688 1.050781 C 13.21875 1.089844 13.261719 1.117188 13.308594 1.132812 C 13.320312 1.136719 13.328125 1.136719 13.335938 1.140625 C 13.339844 1.140625 13.339844 1.140625 13.339844 1.140625 C 13.335938 1.140625 13.335938 1.140625 13.332031 1.140625 L 0.429688 1.140625 C 0.425781 1.140625 0.421875 1.140625 0.421875 1.140625 C 0.429688 1.136719 0.441406 1.136719 0.453125 1.132812 C 0.5 1.117188 0.542969 1.089844 0.578125 1.050781 C 0.617188 1.011719 0.644531 0.96875 0.660156 0.921875 C 0.664062 0.910156 0.667969 0.902344 0.667969 0.894531 C 0.667969 0.890625 0.667969 0.890625 0.667969 0.890625 C 0.667969 0.894531 0.667969 0.894531 0.667969 0.898438 Z M 0.667969 2.867188 "/></g></g></g><g style="fill:#b21a22;fill-opacity:1;"><g transform="translate(21.926093, 52.257194)"><path style="stroke:none" d="M 8.859375 -14.3125 L 0.984375 -14.3125 C 1 -14.3125 1.019531 -14.316406 1.046875 -14.324219 C 1.101562 -14.34375 1.15625 -14.375 1.199219 -14.421875 C 1.246094 -14.46875 1.277344 -14.519531 1.296875 -14.574219 C 1.304688 -14.601562 1.3125 -14.621094 1.3125 -14.636719 L 1.3125 -12.496094 C 1.3125 -12.511719 1.304688 -12.535156 1.296875 -12.558594 C 1.277344 -12.617188 1.246094 -12.667969 1.199219 -12.714844 C 1.15625 -12.757812 1.101562 -12.792969 1.046875 -12.8125 C 1.019531 -12.820312 1 -12.824219 0.984375 -12.824219 L 4.136719 -12.824219 L 4.136719 -0.34375 C 4.136719 -0.359375 4.132812 -0.378906 4.121094 -0.402344 C 4.105469 -0.460938 4.070312 -0.511719 4.023438 -0.558594 C 3.980469 -0.605469 3.929688 -0.636719 3.871094 -0.65625 C 3.84375 -0.664062 3.824219 -0.667969 3.808594 -0.667969 L 6.035156 -0.667969 C 6.019531 -0.667969 6 -0.664062 5.972656 -0.65625 C 5.914062 -0.636719 5.863281 -0.605469 5.820312 -0.558594 C 5.773438 -0.511719 5.738281 -0.460938 5.722656 -0.402344 C 5.710938 -0.378906 5.707031 -0.359375 5.707031 -0.34375 L 5.707031 -12.824219 L 8.859375 -12.824219 C 8.84375 -12.824219 8.824219 -12.820312 8.796875 -12.8125 C 8.742188 -12.792969 8.6875 -12.757812 8.644531 -12.714844 C 8.597656 -12.667969 8.566406 -12.617188 8.546875 -12.558594 C 8.539062 -12.535156 8.53125 -12.511719 8.53125 -12.496094 L 8.53125 -14.636719 C 8.53125 -14.621094 8.539062 -14.601562 8.546875 -14.574219 C 8.566406 -14.519531 8.597656 -14.46875 8.644531 -14.421875 C 8.6875 -14.375 8.742188 -14.34375 8.796875 -14.324219 C 8.824219 -14.316406 8.84375 -14.3125 8.859375 -14.3125 Z M 8.859375 -15.648438 C 9.160156 -15.648438 9.402344 -15.554688 9.589844 -15.367188 C 9.777344 -15.179688 9.871094 -14.9375 9.871094 -14.636719 L 9.871094 -12.496094 C 9.871094 -12.199219 9.777344 -11.957031 9.589844 -11.769531 C 9.402344 -11.578125 9.160156 -11.484375 8.859375 -11.484375 L 6.378906 -11.484375 L 6.378906 -12.15625 L 7.046875 -12.15625 L 7.046875 -0.34375 C 7.046875 -0.0429688 6.953125 0.199219 6.765625 0.386719 C 6.578125 0.574219 6.332031 0.667969 6.035156 0.667969 L 3.808594 0.667969 C 3.511719 0.667969 3.265625 0.574219 3.078125 0.386719 C 2.890625 0.199219 2.796875 -0.0429688 2.796875 -0.34375 L 2.796875 -12.15625 L 3.464844 -12.15625 L 3.464844 -11.484375 L 0.984375 -11.484375 C 0.6875 -11.484375 0.441406 -11.578125 0.253906 -11.769531 C 0.0664062 -11.957031 -0.0273438 -12.199219 -0.0273438 -12.496094 L -0.0273438 -14.636719 C -0.0273438 -14.9375 0.0664062 -15.179688 0.253906 -15.367188 C 0.441406 -15.554688 0.6875 -15.648438 0.984375 -15.648438 Z M 8.859375 -15.648438 "/></g></g><g style="fill:#b21a22;fill-opacity:1;"><g transform="translate(31.769539, 52.257194)"><path style="stroke:none" d="M 10.296875 -11.898438 L 10.296875 -7.597656 C 10.296875 -6.109375 9.792969 -5.050781 8.785156 -4.417969 L 8.429688 -4.984375 L 9.082031 -5.144531 L 10.195312 -0.542969 L 9.542969 -0.386719 L 10.1875 -0.5625 C 10.285156 -0.21875 10.238281 0.0742188 10.050781 0.3125 C 9.867188 0.550781 9.597656 0.667969 9.246094 0.667969 L 7.148438 0.667969 C 6.886719 0.667969 6.664062 0.59375 6.480469 0.441406 C 6.300781 0.292969 6.183594 0.09375 6.128906 -0.160156 L 6.785156 -0.300781 L 6.132812 -0.140625 L 5.105469 -4.355469 L 5.757812 -4.515625 L 5.757812 -3.847656 L 3.851562 -3.847656 L 3.851562 -4.515625 L 4.519531 -4.515625 L 4.519531 -0.34375 C 4.519531 -0.0429688 4.425781 0.199219 4.238281 0.386719 C 4.050781 0.574219 3.808594 0.667969 3.507812 0.667969 L 1.414062 0.667969 C 1.113281 0.667969 0.871094 0.574219 0.683594 0.386719 C 0.496094 0.199219 0.402344 -0.0429688 0.402344 -0.34375 L 0.402344 -14.636719 C 0.402344 -14.9375 0.496094 -15.179688 0.683594 -15.367188 C 0.871094 -15.554688 1.113281 -15.648438 1.414062 -15.648438 L 6.546875 -15.648438 C 7.746094 -15.648438 8.671875 -15.324219 9.320312 -14.671875 C 9.972656 -14.019531 10.296875 -13.097656 10.296875 -11.898438 Z M 8.960938 -11.898438 C 8.960938 -12.726562 8.765625 -13.335938 8.375 -13.726562 C 7.984375 -14.117188 7.375 -14.3125 6.546875 -14.3125 L 1.414062 -14.3125 C 1.425781 -14.3125 1.449219 -14.316406 1.472656 -14.324219 C 1.53125 -14.34375 1.582031 -14.375 1.628906 -14.421875 C 1.675781 -14.46875 1.707031 -14.519531 1.726562 -14.574219 C 1.734375 -14.601562 1.738281 -14.621094 1.738281 -14.636719 L 1.738281 -0.34375 C 1.738281 -0.359375 1.734375 -0.378906 1.726562 -0.402344 C 1.707031 -0.460938 1.675781 -0.511719 1.628906 -0.558594 C 1.582031 -0.605469 1.53125 -0.636719 1.472656 -0.65625 C 1.449219 -0.664062 1.425781 -0.667969 1.414062 -0.667969 L 3.507812 -0.667969 C 3.496094 -0.667969 3.472656 -0.664062 3.449219 -0.65625 C 3.390625 -0.636719 3.339844 -0.605469 3.292969 -0.558594 C 3.246094 -0.511719 3.214844 -0.460938 3.195312 -0.402344 C 3.1875 -0.378906 3.183594 -0.359375 3.183594 -0.34375 L 3.183594 -5.183594 L 6.28125 -5.183594 L 7.4375 -0.449219 L 7.4375 -0.441406 C 7.425781 -0.492188 7.390625 -0.542969 7.332031 -0.589844 C 7.269531 -0.644531 7.207031 -0.667969 7.148438 -0.667969 L 9.246094 -0.667969 C 9.230469 -0.667969 9.214844 -0.664062 9.195312 -0.65625 C 9.117188 -0.628906 9.050781 -0.578125 8.996094 -0.507812 C 8.9375 -0.433594 8.90625 -0.351562 8.898438 -0.265625 C 8.894531 -0.238281 8.898438 -0.21875 8.898438 -0.207031 L 8.898438 -0.21875 L 7.667969 -5.296875 L 8.078125 -5.554688 C 8.667969 -5.921875 8.960938 -6.601562 8.960938 -7.597656 Z M 3.851562 -7.945312 L 5.992188 -7.945312 C 6.0625 -7.945312 6.117188 -7.949219 6.15625 -7.964844 C 6.160156 -7.964844 6.167969 -7.96875 6.167969 -7.96875 C 6.167969 -7.96875 6.164062 -7.964844 6.160156 -7.960938 C 6.15625 -7.960938 6.15625 -7.957031 6.152344 -7.953125 C 6.15625 -7.957031 6.15625 -7.960938 6.160156 -7.96875 C 6.171875 -8.007812 6.179688 -8.0625 6.179688 -8.132812 L 6.179688 -11.363281 C 6.179688 -11.433594 6.171875 -11.488281 6.160156 -11.527344 C 6.15625 -11.535156 6.15625 -11.539062 6.152344 -11.539062 C 6.15625 -11.539062 6.15625 -11.535156 6.160156 -11.53125 C 6.164062 -11.527344 6.167969 -11.527344 6.167969 -11.523438 C 6.167969 -11.527344 6.160156 -11.527344 6.15625 -11.53125 C 6.117188 -11.542969 6.0625 -11.550781 5.992188 -11.550781 L 3.851562 -11.550781 L 3.851562 -12.21875 L 4.519531 -12.21875 L 4.519531 -7.277344 L 3.851562 -7.277344 Z M 3.183594 -6.605469 L 3.183594 -12.886719 L 5.992188 -12.886719 C 6.460938 -12.886719 6.832031 -12.75 7.105469 -12.476562 C 7.378906 -12.203125 7.515625 -11.832031 7.515625 -11.363281 L 7.515625 -8.132812 C 7.515625 -7.660156 7.378906 -7.289062 7.105469 -7.015625 C 6.832031 -6.742188 6.460938 -6.605469 5.992188 -6.605469 Z M 3.183594 -6.605469 "/></g></g><g style="fill:#b21a22;fill-opacity:1;"><g transform="translate(42.468935, 52.257194)"><path style="stroke:none" d="M 10.277344 -14.636719 L 10.277344 -12.496094 C 10.277344 -12.199219 10.1875 -11.957031 10.011719 -11.765625 C 9.820312 -11.566406 9.574219 -11.464844 9.265625 -11.464844 L 3.980469 -11.464844 L 3.980469 -12.132812 L 4.648438 -12.132812 L 4.648438 -8.839844 L 3.980469 -8.839844 L 3.980469 -9.507812 L 8.003906 -9.507812 C 8.308594 -9.507812 8.558594 -9.40625 8.746094 -9.207031 C 8.925781 -9.015625 9.015625 -8.773438 9.015625 -8.472656 L 9.015625 -6.355469 C 9.015625 -6.058594 8.925781 -5.8125 8.746094 -5.625 C 8.558594 -5.421875 8.308594 -5.324219 8.003906 -5.324219 L 3.980469 -5.324219 L 3.980469 -5.992188 L 4.648438 -5.992188 L 4.648438 -2.824219 L 3.980469 -2.824219 L 3.980469 -3.492188 L 9.265625 -3.492188 C 9.566406 -3.492188 9.808594 -3.398438 9.996094 -3.210938 C 10.183594 -3.023438 10.277344 -2.78125 10.277344 -2.480469 L 10.277344 -0.34375 C 10.277344 -0.0429688 10.183594 0.199219 9.996094 0.386719 C 9.808594 0.574219 9.566406 0.667969 9.265625 0.667969 L 1.390625 0.667969 C 1.089844 0.667969 0.847656 0.570312 0.664062 0.371094 C 0.488281 0.1875 0.402344 -0.0507812 0.402344 -0.34375 L 0.402344 -14.636719 C 0.402344 -14.929688 0.488281 -15.164062 0.664062 -15.351562 C 0.847656 -15.550781 1.089844 -15.648438 1.390625 -15.648438 L 9.265625 -15.648438 C 9.566406 -15.648438 9.808594 -15.554688 9.996094 -15.367188 C 10.183594 -15.179688 10.277344 -14.9375 10.277344 -14.636719 Z M 8.941406 -14.636719 C 8.941406 -14.621094 8.945312 -14.601562 8.953125 -14.574219 C 8.972656 -14.519531 9.003906 -14.46875 9.050781 -14.421875 C 9.097656 -14.375 9.148438 -14.34375 9.203125 -14.324219 C 9.230469 -14.316406 9.25 -14.3125 9.265625 -14.3125 L 1.390625 -14.3125 C 1.476562 -14.3125 1.558594 -14.351562 1.636719 -14.4375 C 1.679688 -14.484375 1.710938 -14.53125 1.726562 -14.585938 C 1.734375 -14.609375 1.738281 -14.625 1.738281 -14.636719 L 1.738281 -0.34375 C 1.738281 -0.351562 1.734375 -0.371094 1.726562 -0.390625 C 1.710938 -0.445312 1.679688 -0.496094 1.636719 -0.542969 C 1.558594 -0.625 1.476562 -0.667969 1.390625 -0.667969 L 9.265625 -0.667969 C 9.25 -0.667969 9.230469 -0.664062 9.203125 -0.65625 C 9.148438 -0.636719 9.097656 -0.605469 9.050781 -0.558594 C 9.003906 -0.511719 8.972656 -0.460938 8.953125 -0.402344 C 8.945312 -0.378906 8.941406 -0.359375 8.941406 -0.34375 L 8.941406 -2.480469 C 8.941406 -2.46875 8.945312 -2.445312 8.953125 -2.421875 C 8.972656 -2.363281 9.003906 -2.3125 9.050781 -2.265625 C 9.097656 -2.21875 9.148438 -2.1875 9.203125 -2.167969 C 9.230469 -2.160156 9.25 -2.15625 9.265625 -2.15625 L 3.3125 -2.15625 L 3.3125 -6.660156 L 8.003906 -6.660156 C 7.984375 -6.660156 7.960938 -6.65625 7.929688 -6.644531 C 7.871094 -6.625 7.820312 -6.589844 7.773438 -6.542969 C 7.730469 -6.496094 7.703125 -6.449219 7.6875 -6.398438 C 7.679688 -6.378906 7.675781 -6.363281 7.675781 -6.355469 L 7.675781 -8.472656 C 7.675781 -8.464844 7.679688 -8.453125 7.6875 -8.433594 C 7.703125 -8.382812 7.730469 -8.332031 7.773438 -8.289062 C 7.820312 -8.242188 7.871094 -8.207031 7.929688 -8.183594 C 7.960938 -8.175781 7.984375 -8.167969 8.003906 -8.167969 L 3.3125 -8.167969 L 3.3125 -12.800781 L 9.265625 -12.800781 C 9.246094 -12.800781 9.222656 -12.796875 9.191406 -12.785156 C 9.132812 -12.765625 9.082031 -12.730469 9.035156 -12.683594 C 8.996094 -12.640625 8.964844 -12.589844 8.949219 -12.539062 C 8.941406 -12.519531 8.941406 -12.503906 8.941406 -12.496094 Z M 8.941406 -14.636719 "/></g></g><g style="fill:#b21a22;fill-opacity:1;"><g transform="translate(53.146934, 52.257194)"><path style="stroke:none" d="M 10.277344 -14.636719 L 10.277344 -12.496094 C 10.277344 -12.199219 10.1875 -11.957031 10.011719 -11.765625 C 9.820312 -11.566406 9.574219 -11.464844 9.265625 -11.464844 L 3.980469 -11.464844 L 3.980469 -12.132812 L 4.648438 -12.132812 L 4.648438 -8.839844 L 3.980469 -8.839844 L 3.980469 -9.507812 L 8.003906 -9.507812 C 8.308594 -9.507812 8.558594 -9.40625 8.746094 -9.207031 C 8.925781 -9.015625 9.015625 -8.773438 9.015625 -8.472656 L 9.015625 -6.355469 C 9.015625 -6.058594 8.925781 -5.8125 8.746094 -5.625 C 8.558594 -5.421875 8.308594 -5.324219 8.003906 -5.324219 L 3.980469 -5.324219 L 3.980469 -5.992188 L 4.648438 -5.992188 L 4.648438 -2.824219 L 3.980469 -2.824219 L 3.980469 -3.492188 L 9.265625 -3.492188 C 9.566406 -3.492188 9.808594 -3.398438 9.996094 -3.210938 C 10.183594 -3.023438 10.277344 -2.78125 10.277344 -2.480469 L 10.277344 -0.34375 C 10.277344 -0.0429688 10.183594 0.199219 9.996094 0.386719 C 9.808594 0.574219 9.566406 0.667969 9.265625 0.667969 L 1.390625 0.667969 C 1.089844 0.667969 0.847656 0.570312 0.664062 0.371094 C 0.488281 0.1875 0.402344 -0.0507812 0.402344 -0.34375 L 0.402344 -14.636719 C 0.402344 -14.929688 0.488281 -15.164062 0.664062 -15.351562 C 0.847656 -15.550781 1.089844 -15.648438 1.390625 -15.648438 L 9.265625 -15.648438 C 9.566406 -15.648438 9.808594 -15.554688 9.996094 -15.367188 C 10.183594 -15.179688 10.277344 -14.9375 10.277344 -14.636719 Z M 8.941406 -14.636719 C 8.941406 -14.621094 8.945312 -14.601562 8.953125 -14.574219 C 8.972656 -14.519531 9.003906 -14.46875 9.050781 -14.421875 C 9.097656 -14.375 9.148438 -14.34375 9.203125 -14.324219 C 9.230469 -14.316406 9.25 -14.3125 9.265625 -14.3125 L 1.390625 -14.3125 C 1.476562 -14.3125 1.558594 -14.351562 1.636719 -14.4375 C 1.679688 -14.484375 1.710938 -14.53125 1.726562 -14.585938 C 1.734375 -14.609375 1.738281 -14.625 1.738281 -14.636719 L 1.738281 -0.34375 C 1.738281 -0.351562 1.734375 -0.371094 1.726562 -0.390625 C 1.710938 -0.445312 1.679688 -0.496094 1.636719 -0.542969 C 1.558594 -0.625 1.476562 -0.667969 1.390625 -0.667969 L 9.265625 -0.667969 C 9.25 -0.667969 9.230469 -0.664062 9.203125 -0.65625 C 9.148438 -0.636719 9.097656 -0.605469 9.050781 -0.558594 C 9.003906 -0.511719 8.972656 -0.460938 8.953125 -0.402344 C 8.945312 -0.378906 8.941406 -0.359375 8.941406 -0.34375 L 8.941406 -2.480469 C 8.941406 -2.46875 8.945312 -2.445312 8.953125 -2.421875 C 8.972656 -2.363281 9.003906 -2.3125 9.050781 -2.265625 C 9.097656 -2.21875 9.148438 -2.1875 9.203125 -2.167969 C 9.230469 -2.160156 9.25 -2.15625 9.265625 -2.15625 L 3.3125 -2.15625 L 3.3125 -6.660156 L 8.003906 -6.660156 C 7.984375 -6.660156 7.960938 -6.65625 7.929688 -6.644531 C 7.871094 -6.625 7.820312 -6.589844 7.773438 -6.542969 C 7.730469 -6.496094 7.703125 -6.449219 7.6875 -6.398438 C 7.679688 -6.378906 7.675781 -6.363281 7.675781 -6.355469 L 7.675781 -8.472656 C 7.675781 -8.464844 7.679688 -8.453125 7.6875 -8.433594 C 7.703125 -8.382812 7.730469 -8.332031 7.773438 -8.289062 C 7.820312 -8.242188 7.871094 -8.207031 7.929688 -8.183594 C 7.960938 -8.175781 7.984375 -8.167969 8.003906 -8.167969 L 3.3125 -8.167969 L 3.3125 -12.800781 L 9.265625 -12.800781 C 9.246094 -12.800781 9.222656 -12.796875 9.191406 -12.785156 C 9.132812 -12.765625 9.082031 -12.730469 9.035156 -12.683594 C 8.996094 -12.640625 8.964844 -12.589844 8.949219 -12.539062 C 8.941406 -12.519531 8.941406 -12.503906 8.941406 -12.496094 Z M 8.941406 -14.636719 "/></g></g><g style="fill:#060705;fill-opacity:1;"><g transform="translate(0.903394, 22.523312)"><path style="stroke:none" d="M 3.984375 -2.828125 L 3.984375 -14.640625 C 3.984375 -14.867188 3.867188 -14.984375 3.640625 -14.984375 L 1.40625 -14.984375 C 1.175781 -14.984375 1.0625 -14.867188 1.0625 -14.640625 L 1.0625 -0.34375 C 1.0625 -0.113281 1.175781 0 1.40625 0 L 8.21875 0 C 8.445312 0 8.5625 -0.113281 8.5625 -0.34375 L 8.5625 -2.484375 C 8.5625 -2.710938 8.445312 -2.828125 8.21875 -2.828125 Z M 3.984375 -2.828125 "/></g></g><g style="fill:#060705;fill-opacity:1;"><g transform="translate(10.53285, 22.523312)"><path style="stroke:none" d="M 1.40625 0 L 3.640625 0 C 3.867188 0 3.984375 -0.113281 3.984375 -0.34375 L 3.984375 -14.640625 C 3.984375 -14.867188 3.867188 -14.984375 3.640625 -14.984375 L 1.40625 -14.984375 C 1.175781 -14.984375 1.0625 -14.867188 1.0625 -14.640625 L 1.0625 -0.34375 C 1.0625 -0.113281 1.175781 0 1.40625 0 Z M 1.40625 0 "/></g></g><g style="fill:#060705;fill-opacity:1;"><g transform="translate(15.582965, 22.523312)"><path style="stroke:none" d="M 9.65625 -11.90625 L 9.65625 -9.015625 C 9.65625 -8.609375 9.523438 -8.269531 9.265625 -8 C 9.015625 -7.726562 8.695312 -7.554688 8.3125 -7.484375 L 8.3125 -7.453125 C 8.695312 -7.390625 9.015625 -7.21875 9.265625 -6.9375 C 9.523438 -6.664062 9.65625 -6.328125 9.65625 -5.921875 L 9.65625 -3.078125 C 9.65625 -2.078125 9.390625 -1.3125 8.859375 -0.78125 C 8.328125 -0.257812 7.554688 0 6.546875 0 L 1.40625 0 C 1.175781 0 1.0625 -0.113281 1.0625 -0.34375 L 1.0625 -14.640625 C 1.0625 -14.867188 1.175781 -14.984375 1.40625 -14.984375 L 6.546875 -14.984375 C 7.554688 -14.984375 8.328125 -14.722656 8.859375 -14.203125 C 9.390625 -13.679688 9.65625 -12.914062 9.65625 -11.90625 Z M 6.9375 -9.71875 L 6.9375 -11.4375 C 6.9375 -12 6.648438 -12.28125 6.078125 -12.28125 L 3.71875 -12.28125 L 3.71875 -8.890625 L 6.078125 -8.890625 C 6.648438 -8.890625 6.9375 -9.164062 6.9375 -9.71875 Z M 6.9375 -3.546875 L 6.9375 -5.203125 C 6.9375 -5.773438 6.648438 -6.0625 6.078125 -6.0625 L 3.71875 -6.0625 L 3.71875 -2.703125 L 6.078125 -2.703125 C 6.648438 -2.703125 6.9375 -2.984375 6.9375 -3.546875 Z M 6.9375 -3.546875 "/></g></g><g style="fill:#060705;fill-opacity:1;"><g transform="translate(26.303761, 22.523312)"><path style="stroke:none" d="M 9.625 -11.90625 L 9.625 -7.59375 C 9.625 -6.351562 9.226562 -5.484375 8.4375 -4.984375 L 9.546875 -0.390625 C 9.617188 -0.128906 9.519531 0 9.25 0 L 7.15625 0 C 6.945312 0 6.820312 -0.0976562 6.78125 -0.296875 L 5.765625 -4.515625 L 3.859375 -4.515625 L 3.859375 -0.34375 C 3.859375 -0.113281 3.742188 0 3.515625 0 L 1.40625 0 C 1.175781 0 1.0625 -0.113281 1.0625 -0.34375 L 1.0625 -14.640625 C 1.0625 -14.867188 1.175781 -14.984375 1.40625 -14.984375 L 6.546875 -14.984375 C 7.554688 -14.984375 8.320312 -14.722656 8.84375 -14.203125 C 9.363281 -13.679688 9.625 -12.914062 9.625 -11.90625 Z M 3.859375 -7.28125 L 6 -7.28125 C 6.5625 -7.28125 6.84375 -7.566406 6.84375 -8.140625 L 6.84375 -11.359375 C 6.84375 -11.929688 6.5625 -12.21875 6 -12.21875 L 3.859375 -12.21875 Z M 3.859375 -7.28125 "/></g></g><g style="fill:#060705;fill-opacity:1;"><g transform="translate(37.003157, 22.523312)"><path style="stroke:none" d="M 11.171875 0 L 9.09375 0 C 8.90625 0 8.789062 -0.0976562 8.75 -0.296875 L 8.0625 -3 L 4.046875 -3 L 3.375 -0.296875 C 3.332031 -0.0976562 3.222656 0 3.046875 0 L 0.9375 0 C 0.6875 0 0.59375 -0.117188 0.65625 -0.359375 L 4.21875 -14.6875 C 4.257812 -14.882812 4.378906 -14.984375 4.578125 -14.984375 L 7.5625 -14.984375 C 7.757812 -14.984375 7.878906 -14.882812 7.921875 -14.6875 L 11.46875 -0.359375 C 11.539062 -0.117188 11.441406 0 11.171875 0 Z M 7.40625 -5.484375 L 6.0625 -11.296875 L 4.703125 -5.484375 Z M 7.40625 -5.484375 "/></g></g><g style="fill:#060705;fill-opacity:1;"><g transform="translate(49.136272, 22.523312)"><path style="stroke:none" d="M 9.625 -11.90625 L 9.625 -7.59375 C 9.625 -6.351562 9.226562 -5.484375 8.4375 -4.984375 L 9.546875 -0.390625 C 9.617188 -0.128906 9.519531 0 9.25 0 L 7.15625 0 C 6.945312 0 6.820312 -0.0976562 6.78125 -0.296875 L 5.765625 -4.515625 L 3.859375 -4.515625 L 3.859375 -0.34375 C 3.859375 -0.113281 3.742188 0 3.515625 0 L 1.40625 0 C 1.175781 0 1.0625 -0.113281 1.0625 -0.34375 L 1.0625 -14.640625 C 1.0625 -14.867188 1.175781 -14.984375 1.40625 -14.984375 L 6.546875 -14.984375 C 7.554688 -14.984375 8.320312 -14.722656 8.84375 -14.203125 C 9.363281 -13.679688 9.625 -12.914062 9.625 -11.90625 Z M 3.859375 -7.28125 L 6 -7.28125 C 6.5625 -7.28125 6.84375 -7.566406 6.84375 -8.140625 L 6.84375 -11.359375 C 6.84375 -11.929688 6.5625 -12.21875 6 -12.21875 L 3.859375 -12.21875 Z M 3.859375 -7.28125 "/></g></g><g style="fill:#060705;fill-opacity:1;"><g transform="translate(59.835667, 22.523312)"><path style="stroke:none" d="M 8.515625 -14.984375 L 10.65625 -14.984375 C 10.8125 -14.984375 10.925781 -14.9375 11 -14.84375 C 11.070312 -14.75 11.070312 -14.628906 11 -14.484375 L 7.078125 -5.609375 L 7.078125 -0.421875 C 7.078125 -0.140625 6.9375 0 6.65625 0 L 4.609375 0 C 4.316406 0 4.171875 -0.140625 4.171875 -0.421875 L 4.171875 -5.609375 L 0.25 -14.484375 C 0.195312 -14.628906 0.203125 -14.75 0.265625 -14.84375 C 0.328125 -14.9375 0.4375 -14.984375 0.59375 -14.984375 L 2.734375 -14.984375 C 2.984375 -14.984375 3.148438 -14.867188 3.234375 -14.640625 L 5.625 -9.140625 L 8.03125 -14.640625 C 8.113281 -14.867188 8.273438 -14.984375 8.515625 -14.984375 Z M 8.515625 -14.984375 "/></g></g><g style="fill:#060705;fill-opacity:1;"><g transform="translate(8.166668, 52.257194)"><path style="stroke:none" d="M 0 2.875 L 0 0.90625 C 0 0.613281 0.140625 0.46875 0.421875 0.46875 L 13.34375 0.46875 C 13.625 0.46875 13.765625 0.613281 13.765625 0.90625 L 13.765625 2.875 C 13.765625 3.15625 13.625 3.296875 13.34375 3.296875 L 0.421875 3.296875 C 0.140625 3.296875 0 3.15625 0 2.875 Z M 0 2.875 "/></g></g><g style="fill:#060705;fill-opacity:1;"><g transform="translate(21.926093, 52.257194)"><path style="stroke:none" d="M 8.859375 -14.984375 L 0.984375 -14.984375 C 0.753906 -14.984375 0.640625 -14.867188 0.640625 -14.640625 L 0.640625 -12.5 C 0.640625 -12.269531 0.753906 -12.15625 0.984375 -12.15625 L 3.46875 -12.15625 L 3.46875 -0.34375 C 3.46875 -0.113281 3.582031 0 3.8125 0 L 6.03125 0 C 6.257812 0 6.375 -0.113281 6.375 -0.34375 L 6.375 -12.15625 L 8.859375 -12.15625 C 9.085938 -12.15625 9.203125 -12.269531 9.203125 -12.5 L 9.203125 -14.640625 C 9.203125 -14.867188 9.085938 -14.984375 8.859375 -14.984375 Z M 8.859375 -14.984375 "/></g></g><g style="fill:#060705;fill-opacity:1;"><g transform="translate(31.769539, 52.257194)"><path style="stroke:none" d="M 9.625 -11.90625 L 9.625 -7.59375 C 9.625 -6.351562 9.226562 -5.484375 8.4375 -4.984375 L 9.546875 -0.390625 C 9.617188 -0.128906 9.519531 0 9.25 0 L 7.15625 0 C 6.945312 0 6.820312 -0.0976562 6.78125 -0.296875 L 5.765625 -4.515625 L 3.859375 -4.515625 L 3.859375 -0.34375 C 3.859375 -0.113281 3.742188 0 3.515625 0 L 1.40625 0 C 1.175781 0 1.0625 -0.113281 1.0625 -0.34375 L 1.0625 -14.640625 C 1.0625 -14.867188 1.175781 -14.984375 1.40625 -14.984375 L 6.546875 -14.984375 C 7.554688 -14.984375 8.320312 -14.722656 8.84375 -14.203125 C 9.363281 -13.679688 9.625 -12.914062 9.625 -11.90625 Z M 3.859375 -7.28125 L 6 -7.28125 C 6.5625 -7.28125 6.84375 -7.566406 6.84375 -8.140625 L 6.84375 -11.359375 C 6.84375 -11.929688 6.5625 -12.21875 6 -12.21875 L 3.859375 -12.21875 Z M 3.859375 -7.28125 "/></g></g><g style="fill:#060705;fill-opacity:1;"><g transform="translate(42.468935, 52.257194)"><path style="stroke:none" d="M 9.609375 -14.640625 L 9.609375 -12.5 C 9.609375 -12.257812 9.492188 -12.140625 9.265625 -12.140625 L 3.984375 -12.140625 L 3.984375 -8.84375 L 8 -8.84375 C 8.226562 -8.84375 8.34375 -8.722656 8.34375 -8.484375 L 8.34375 -6.359375 C 8.34375 -6.117188 8.226562 -6 8 -6 L 3.984375 -6 L 3.984375 -2.828125 L 9.265625 -2.828125 C 9.492188 -2.828125 9.609375 -2.710938 9.609375 -2.484375 L 9.609375 -0.34375 C 9.609375 -0.113281 9.492188 0 9.265625 0 L 1.390625 0 C 1.171875 0 1.0625 -0.113281 1.0625 -0.34375 L 1.0625 -14.640625 C 1.0625 -14.867188 1.171875 -14.984375 1.390625 -14.984375 L 9.265625 -14.984375 C 9.492188 -14.984375 9.609375 -14.867188 9.609375 -14.640625 Z M 9.609375 -14.640625 "/></g></g><g style="fill:#060705;fill-opacity:1;"><g transform="translate(53.146934, 52.257194)"><path style="stroke:none" d="M 9.609375 -14.640625 L 9.609375 -12.5 C 9.609375 -12.257812 9.492188 -12.140625 9.265625 -12.140625 L 3.984375 -12.140625 L 3.984375 -8.84375 L 8 -8.84375 C 8.226562 -8.84375 8.34375 -8.722656 8.34375 -8.484375 L 8.34375 -6.359375 C 8.34375 -6.117188 8.226562 -6 8 -6 L 3.984375 -6 L 3.984375 -2.828125 L 9.265625 -2.828125 C 9.492188 -2.828125 9.609375 -2.710938 9.609375 -2.484375 L 9.609375 -0.34375 C 9.609375 -0.113281 9.492188 0 9.265625 0 L 1.390625 0 C 1.171875 0 1.0625 -0.113281 1.0625 -0.34375 L 1.0625 -14.640625 C 1.0625 -14.867188 1.171875 -14.984375 1.390625 -14.984375 L 9.265625 -14.984375 C 9.492188 -14.984375 9.609375 -14.867188 9.609375 -14.640625 Z M 9.609375 -14.640625 "/></g></g></g></g></g></svg>