<svg xmlns="http://www.w3.org/2000/svg" xmlns:xlink="http://www.w3.org/1999/xlink" width="192" zoomAndPan="magnify" viewBox="0 0 144 143.999998" height="192" preserveAspectRatio="xMidYMid meet" version="1.2"><defs><clipPath id="6443377855"><path d="M 9 0 L 135 0 L 135 144 L 9 144 Z M 9 0 "/></clipPath><clipPath id="29486bf804"><path d="M -21.457031 54.867188 L 103.039062 -17.847656 L 165.503906 89.105469 L 41.007812 161.816406 Z M -21.457031 54.867188 "/></clipPath><clipPath id="9373992a25"><path d="M 134.226562 35.65625 L 134.347656 107.300781 L 72.121094 143.644531 L 9.773438 108.34375 L 9.65625 36.695312 L 71.878906 0.351562 Z M 134.226562 35.65625 "/></clipPath><clipPath id="8a0e4a3787"><path d="M 0.601562 0.238281 L 125.398438 0.238281 L 125.398438 143.761719 L 0.601562 143.761719 Z M 0.601562 0.238281 "/></clipPath><clipPath id="03f27097b6"><path d="M -30.457031 54.867188 L 94.039062 -17.847656 L 156.503906 89.105469 L 32.007812 161.816406 Z M -30.457031 54.867188 "/></clipPath><clipPath id="66b22cf025"><path d="M 125.226562 35.65625 L 125.347656 107.300781 L 63.121094 143.644531 L 0.773438 108.34375 L 0.65625 36.695312 L 62.878906 0.351562 Z M 125.226562 35.65625 "/></clipPath><clipPath id="7a29b32ced"><rect x="0" width="126" y="0" height="144"/></clipPath><clipPath id="05c07c7f77"><path d="M 21.210938 13.683594 L 122.773438 13.683594 L 122.773438 130.261719 L 21.210938 130.261719 Z M 21.210938 13.683594 "/></clipPath><clipPath id="e3819f32d3"><rect x="0" width="144" y="0" height="144"/></clipPath><clipPath id="05de86e82b"><rect x="0" width="109" y="0" height="84"/></clipPath></defs><g id="6dd2c95f1c"><g transform="matrix(1,0,0,1,0,-0.000000000000008916)"><g clip-path="url(#e3819f32d3)"><g clip-rule="nonzero" clip-path="url(#6443377855)"><g clip-rule="nonzero" clip-path="url(#29486bf804)"><g clip-rule="nonzero" clip-path="url(#9373992a25)"><g transform="matrix(1,0,0,1,9,-0.00000000000000891)"><g id="4a1f34381a" clip-path="url(#7a29b32ced)"><g clip-rule="nonzero" clip-path="url(#8a0e4a3787)"><g clip-rule="nonzero" clip-path="url(#03f27097b6)"><g clip-rule="nonzero" clip-path="url(#66b22cf025)"><path style=" stroke:none;fill-rule:nonzero;fill:#65b30e;fill-opacity:1;" d="M -30.457031 54.867188 L 94.039062 -17.847656 L 156.503906 89.105469 L 32.007812 161.816406 Z M -30.457031 54.867188 "/></g></g></g></g></g></g></g></g><path style=" stroke:none;fill-rule:nonzero;fill:#87ff00;fill-opacity:1;" d="M 51.695312 52.128906 L 51.628906 52.0625 L 37.269531 66.421875 L 72.136719 101.226562 L 86.496094 86.933594 L 107.003906 66.421875 L 92.640625 52.0625 L 92.640625 52 L 51.632812 52 Z M 51.695312 52.128906 "/><g clip-rule="nonzero" clip-path="url(#05c07c7f77)"><path style=" stroke:none;fill-rule:nonzero;fill:#87ff00;fill-opacity:1;" d="M 72.003906 13.765625 L 21.222656 42.878906 L 21.226562 101.101562 L 72.007812 130.210938 L 122.789062 101.101562 L 122.789062 42.878906 L 72.007812 13.769531 Z M 113.085938 95.535156 L 72.003906 119.207031 L 30.925781 95.535156 L 30.929688 48.3125 L 72.007812 24.632812 L 113.085938 48.308594 Z M 113.085938 95.535156 "/></g></g></g><g transform="matrix(1,0,0,1,18,30)"><g clip-path="url(#05de86e82b)"><g style="fill:#b21a22;fill-opacity:1;"><g transform="translate(1.355088, 32.284965)"><path style="stroke:none" d="M 4.96875 -4.238281 L 4.96875 -21.957031 C 4.96875 -21.933594 4.972656 -21.902344 4.988281 -21.863281 C 5.015625 -21.777344 5.0625 -21.699219 5.132812 -21.632812 C 5.203125 -21.5625 5.277344 -21.515625 5.363281 -21.484375 C 5.402344 -21.472656 5.433594 -21.464844 5.457031 -21.464844 L 2.117188 -21.464844 C 2.140625 -21.464844 2.171875 -21.472656 2.210938 -21.484375 C 2.296875 -21.515625 2.375 -21.5625 2.441406 -21.632812 C 2.511719 -21.699219 2.558594 -21.777344 2.589844 -21.863281 C 2.601562 -21.902344 2.609375 -21.933594 2.609375 -21.957031 L 2.609375 -0.511719 C 2.609375 -0.535156 2.601562 -0.566406 2.589844 -0.605469 C 2.558594 -0.691406 2.511719 -0.769531 2.441406 -0.835938 C 2.375 -0.90625 2.296875 -0.957031 2.210938 -0.984375 C 2.171875 -0.996094 2.140625 -1.003906 2.117188 -1.003906 L 12.324219 -1.003906 C 12.304688 -1.003906 12.273438 -0.996094 12.234375 -0.984375 C 12.148438 -0.957031 12.070312 -0.90625 12 -0.835938 C 11.933594 -0.769531 11.882812 -0.691406 11.855469 -0.605469 C 11.84375 -0.566406 11.835938 -0.535156 11.835938 -0.511719 L 11.835938 -3.722656 C 11.835938 -3.699219 11.84375 -3.667969 11.855469 -3.632812 C 11.882812 -3.546875 11.933594 -3.46875 12 -3.398438 C 12.070312 -3.332031 12.148438 -3.28125 12.234375 -3.253906 C 12.273438 -3.242188 12.304688 -3.234375 12.324219 -3.234375 L 4.96875 -3.234375 Z M 6.972656 -4.238281 L 5.96875 -4.238281 L 5.96875 -5.242188 L 12.324219 -5.242188 C 12.773438 -5.242188 13.140625 -5.101562 13.421875 -4.816406 C 13.703125 -4.535156 13.84375 -4.171875 13.84375 -3.722656 L 13.84375 -0.511719 C 13.84375 -0.0664062 13.703125 0.300781 13.421875 0.582031 C 13.140625 0.863281 12.773438 1.003906 12.324219 1.003906 L 2.117188 1.003906 C 1.671875 1.003906 1.304688 0.863281 1.023438 0.582031 C 0.742188 0.300781 0.601562 -0.0664062 0.601562 -0.511719 L 0.601562 -21.957031 C 0.601562 -22.402344 0.742188 -22.769531 1.023438 -23.050781 C 1.304688 -23.332031 1.671875 -23.472656 2.117188 -23.472656 L 5.457031 -23.472656 C 5.90625 -23.472656 6.269531 -23.332031 6.550781 -23.050781 C 6.832031 -22.769531 6.972656 -22.402344 6.972656 -21.957031 Z M 6.972656 -4.238281 "/></g></g><g style="fill:#b21a22;fill-opacity:1;"><g transform="translate(15.799271, 32.284965)"><path style="stroke:none" d="M 2.117188 -1.003906 L 5.457031 -1.003906 C 5.433594 -1.003906 5.402344 -0.996094 5.363281 -0.984375 C 5.277344 -0.957031 5.203125 -0.90625 5.132812 -0.835938 C 5.0625 -0.769531 5.015625 -0.691406 4.988281 -0.605469 C 4.972656 -0.566406 4.96875 -0.535156 4.96875 -0.511719 L 4.96875 -21.957031 C 4.96875 -21.933594 4.972656 -21.902344 4.988281 -21.863281 C 5.015625 -21.777344 5.0625 -21.699219 5.132812 -21.632812 C 5.203125 -21.5625 5.277344 -21.515625 5.363281 -21.484375 C 5.402344 -21.472656 5.433594 -21.464844 5.457031 -21.464844 L 2.117188 -21.464844 C 2.140625 -21.464844 2.171875 -21.472656 2.210938 -21.484375 C 2.296875 -21.515625 2.375 -21.5625 2.441406 -21.632812 C 2.511719 -21.699219 2.558594 -21.777344 2.589844 -21.863281 C 2.601562 -21.902344 2.609375 -21.933594 2.609375 -21.957031 L 2.609375 -0.511719 C 2.609375 -0.535156 2.601562 -0.566406 2.589844 -0.605469 C 2.558594 -0.691406 2.511719 -0.769531 2.441406 -0.835938 C 2.375 -0.90625 2.296875 -0.957031 2.210938 -0.984375 C 2.171875 -0.996094 2.140625 -1.003906 2.117188 -1.003906 Z M 2.117188 1.003906 C 1.671875 1.003906 1.304688 0.863281 1.023438 0.582031 C 0.742188 0.300781 0.601562 -0.0664062 0.601562 -0.511719 L 0.601562 -21.957031 C 0.601562 -22.402344 0.742188 -22.769531 1.023438 -23.050781 C 1.304688 -23.332031 1.671875 -23.472656 2.117188 -23.472656 L 5.457031 -23.472656 C 5.90625 -23.472656 6.269531 -23.332031 6.550781 -23.050781 C 6.832031 -22.769531 6.972656 -22.402344 6.972656 -21.957031 L 6.972656 -0.511719 C 6.972656 -0.0664062 6.832031 0.300781 6.550781 0.582031 C 6.269531 0.863281 5.90625 1.003906 5.457031 1.003906 Z M 2.117188 1.003906 "/></g></g><g style="fill:#b21a22;fill-opacity:1;"><g transform="translate(23.374443, 32.284965)"><path style="stroke:none" d="M 15.480469 -17.847656 L 15.480469 -13.515625 C 15.480469 -12.648438 15.195312 -11.914062 14.628906 -11.316406 C 14.09375 -10.75 13.429688 -10.394531 12.636719 -10.25 L 12.453125 -11.234375 L 13.457031 -11.234375 L 13.457031 -11.171875 L 12.453125 -11.171875 L 12.601562 -12.164062 C 13.414062 -12.042969 14.089844 -11.6875 14.636719 -11.097656 C 15.199219 -10.488281 15.480469 -9.753906 15.480469 -8.890625 L 15.480469 -4.621094 C 15.480469 -2.847656 14.984375 -1.464844 14 -0.476562 C 13.011719 0.507812 11.617188 1.003906 9.824219 1.003906 L 2.117188 1.003906 C 1.671875 1.003906 1.304688 0.863281 1.023438 0.582031 C 0.742188 0.300781 0.601562 -0.0664062 0.601562 -0.511719 L 0.601562 -21.957031 C 0.601562 -22.402344 0.742188 -22.769531 1.023438 -23.050781 C 1.304688 -23.332031 1.671875 -23.472656 2.117188 -23.472656 L 9.824219 -23.472656 C 11.617188 -23.472656 13.007812 -22.984375 13.992188 -22.011719 C 14.984375 -21.035156 15.480469 -19.644531 15.480469 -17.847656 Z M 13.472656 -17.847656 C 13.472656 -19.085938 13.175781 -20 12.585938 -20.582031 C 11.988281 -21.171875 11.066406 -21.464844 9.824219 -21.464844 L 2.117188 -21.464844 C 2.140625 -21.464844 2.171875 -21.472656 2.210938 -21.484375 C 2.296875 -21.515625 2.375 -21.5625 2.441406 -21.632812 C 2.511719 -21.699219 2.558594 -21.777344 2.589844 -21.863281 C 2.601562 -21.902344 2.609375 -21.933594 2.609375 -21.957031 L 2.609375 -0.511719 C 2.609375 -0.535156 2.601562 -0.566406 2.589844 -0.605469 C 2.558594 -0.691406 2.511719 -0.769531 2.441406 -0.835938 C 2.375 -0.90625 2.296875 -0.957031 2.210938 -0.984375 C 2.171875 -0.996094 2.140625 -1.003906 2.117188 -1.003906 L 9.824219 -1.003906 C 11.066406 -1.003906 11.984375 -1.300781 12.578125 -1.898438 C 13.175781 -2.492188 13.472656 -3.402344 13.472656 -4.621094 L 13.472656 -8.890625 C 13.472656 -9.230469 13.371094 -9.511719 13.160156 -9.734375 C 12.9375 -9.980469 12.652344 -10.128906 12.308594 -10.179688 L 11.453125 -10.304688 L 11.453125 -12.070312 L 12.273438 -12.222656 C 12.636719 -12.289062 12.933594 -12.445312 13.171875 -12.695312 C 13.371094 -12.910156 13.472656 -13.179688 13.472656 -13.515625 Z M 9.398438 -14.574219 L 9.398438 -17.140625 C 9.398438 -17.246094 9.386719 -17.328125 9.367188 -17.386719 C 9.363281 -17.394531 9.363281 -17.402344 9.359375 -17.40625 C 9.363281 -17.402344 9.363281 -17.398438 9.371094 -17.394531 C 9.375 -17.390625 9.378906 -17.386719 9.382812 -17.382812 C 9.378906 -17.386719 9.371094 -17.390625 9.359375 -17.394531 C 9.304688 -17.414062 9.222656 -17.421875 9.117188 -17.421875 L 5.585938 -17.421875 L 5.585938 -18.425781 L 6.589844 -18.425781 L 6.589844 -13.320312 L 5.585938 -13.320312 L 5.585938 -14.324219 L 9.117188 -14.324219 C 9.222656 -14.324219 9.308594 -14.335938 9.367188 -14.355469 C 9.378906 -14.355469 9.386719 -14.359375 9.390625 -14.363281 C 9.386719 -14.359375 9.382812 -14.359375 9.378906 -14.351562 C 9.371094 -14.347656 9.367188 -14.339844 9.363281 -14.335938 C 9.367188 -14.335938 9.367188 -14.34375 9.371094 -14.351562 C 9.386719 -14.402344 9.398438 -14.476562 9.398438 -14.574219 Z M 11.402344 -14.574219 C 11.402344 -13.875 11.195312 -13.320312 10.78125 -12.914062 C 10.371094 -12.515625 9.816406 -12.316406 9.117188 -12.316406 L 4.582031 -12.316406 L 4.582031 -19.429688 L 9.117188 -19.429688 C 9.820312 -19.429688 10.378906 -19.222656 10.789062 -18.8125 C 11.199219 -18.402344 11.402344 -17.847656 11.402344 -17.140625 Z M 9.398438 -5.328125 L 9.398438 -7.800781 C 9.398438 -7.90625 9.386719 -7.988281 9.367188 -8.042969 C 9.363281 -8.054688 9.363281 -8.0625 9.359375 -8.066406 C 9.363281 -8.0625 9.363281 -8.058594 9.371094 -8.054688 C 9.375 -8.050781 9.378906 -8.046875 9.382812 -8.042969 C 9.378906 -8.046875 9.371094 -8.046875 9.359375 -8.050781 C 9.304688 -8.070312 9.222656 -8.082031 9.117188 -8.082031 L 5.585938 -8.082031 L 5.585938 -9.085938 L 6.589844 -9.085938 L 6.589844 -4.042969 L 5.585938 -4.042969 L 5.585938 -5.046875 L 9.117188 -5.046875 C 9.222656 -5.046875 9.304688 -5.058594 9.359375 -5.078125 C 9.371094 -5.078125 9.378906 -5.082031 9.382812 -5.085938 C 9.378906 -5.082031 9.375 -5.078125 9.371094 -5.074219 C 9.363281 -5.070312 9.363281 -5.066406 9.359375 -5.0625 C 9.363281 -5.066406 9.363281 -5.074219 9.367188 -5.085938 C 9.386719 -5.140625 9.398438 -5.222656 9.398438 -5.328125 Z M 11.402344 -5.328125 C 11.402344 -4.625 11.199219 -4.066406 10.789062 -3.65625 C 10.378906 -3.246094 9.820312 -3.042969 9.117188 -3.042969 L 4.582031 -3.042969 L 4.582031 -10.085938 L 9.117188 -10.085938 C 9.820312 -10.085938 10.378906 -9.882812 10.789062 -9.472656 C 11.199219 -9.0625 11.402344 -8.503906 11.402344 -7.800781 Z M 11.402344 -5.328125 "/></g></g><g style="fill:#b21a22;fill-opacity:1;"><g transform="translate(39.455637, 32.284965)"><path style="stroke:none" d="M 15.449219 -17.847656 L 15.449219 -11.394531 C 15.449219 -9.164062 14.691406 -7.574219 13.179688 -6.628906 L 12.648438 -7.480469 L 13.621094 -7.714844 L 15.292969 -0.8125 L 14.316406 -0.578125 L 15.28125 -0.847656 C 15.425781 -0.328125 15.359375 0.109375 15.074219 0.472656 C 14.800781 0.824219 14.398438 1.003906 13.867188 1.003906 L 10.722656 1.003906 C 10.332031 1.003906 10 0.890625 9.722656 0.660156 C 9.453125 0.4375 9.277344 0.136719 9.195312 -0.238281 L 10.175781 -0.449219 L 9.199219 -0.210938 L 7.660156 -6.535156 L 8.632812 -6.773438 L 8.632812 -5.769531 L 5.777344 -5.769531 L 5.777344 -6.773438 L 6.78125 -6.773438 L 6.78125 -0.511719 C 6.78125 -0.0664062 6.640625 0.300781 6.359375 0.582031 C 6.078125 0.863281 5.710938 1.003906 5.265625 1.003906 L 2.117188 1.003906 C 1.671875 1.003906 1.304688 0.863281 1.023438 0.582031 C 0.742188 0.300781 0.601562 -0.0664062 0.601562 -0.511719 L 0.601562 -21.957031 C 0.601562 -22.402344 0.742188 -22.769531 1.023438 -23.050781 C 1.304688 -23.332031 1.671875 -23.472656 2.117188 -23.472656 L 9.824219 -23.472656 C 11.617188 -23.472656 13.003906 -22.984375 13.984375 -22.007812 C 14.960938 -21.03125 15.449219 -19.644531 15.449219 -17.847656 Z M 13.441406 -17.847656 C 13.441406 -19.089844 13.148438 -20.003906 12.5625 -20.589844 C 11.976562 -21.171875 11.066406 -21.464844 9.824219 -21.464844 L 2.117188 -21.464844 C 2.140625 -21.464844 2.171875 -21.472656 2.210938 -21.484375 C 2.296875 -21.515625 2.375 -21.5625 2.441406 -21.632812 C 2.511719 -21.699219 2.558594 -21.777344 2.589844 -21.863281 C 2.601562 -21.902344 2.609375 -21.933594 2.609375 -21.957031 L 2.609375 -0.511719 C 2.609375 -0.535156 2.601562 -0.566406 2.589844 -0.605469 C 2.558594 -0.691406 2.511719 -0.769531 2.441406 -0.835938 C 2.375 -0.90625 2.296875 -0.957031 2.210938 -0.984375 C 2.171875 -0.996094 2.140625 -1.003906 2.117188 -1.003906 L 5.265625 -1.003906 C 5.242188 -1.003906 5.210938 -0.996094 5.171875 -0.984375 C 5.085938 -0.957031 5.007812 -0.90625 4.941406 -0.835938 C 4.871094 -0.769531 4.824219 -0.691406 4.792969 -0.605469 C 4.78125 -0.566406 4.773438 -0.535156 4.773438 -0.511719 L 4.773438 -7.777344 L 9.421875 -7.777344 L 11.152344 -0.671875 L 11.15625 -0.660156 C 11.140625 -0.738281 11.085938 -0.8125 10.996094 -0.886719 C 10.902344 -0.964844 10.8125 -1.003906 10.722656 -1.003906 L 13.867188 -1.003906 C 13.847656 -1 13.820312 -0.992188 13.796875 -0.984375 C 13.675781 -0.945312 13.578125 -0.867188 13.492188 -0.761719 C 13.40625 -0.648438 13.359375 -0.527344 13.347656 -0.398438 C 13.34375 -0.355469 13.34375 -0.324219 13.351562 -0.308594 L 13.34375 -0.324219 L 11.5 -7.945312 L 12.117188 -8.328125 C 13 -8.882812 13.441406 -9.902344 13.441406 -11.394531 Z M 5.777344 -11.917969 L 8.988281 -11.917969 C 9.09375 -11.917969 9.175781 -11.925781 9.230469 -11.945312 C 9.242188 -11.949219 9.25 -11.953125 9.253906 -11.953125 C 9.25 -11.953125 9.246094 -11.949219 9.242188 -11.945312 C 9.238281 -11.9375 9.234375 -11.933594 9.230469 -11.929688 C 9.234375 -11.933594 9.234375 -11.941406 9.238281 -11.953125 C 9.257812 -12.011719 9.269531 -12.09375 9.269531 -12.199219 L 9.269531 -17.042969 C 9.269531 -17.148438 9.257812 -17.230469 9.238281 -17.289062 C 9.234375 -17.300781 9.234375 -17.308594 9.230469 -17.3125 C 9.234375 -17.308594 9.238281 -17.304688 9.242188 -17.296875 C 9.246094 -17.292969 9.25 -17.289062 9.253906 -17.289062 C 9.25 -17.289062 9.242188 -17.292969 9.230469 -17.296875 C 9.175781 -17.316406 9.09375 -17.324219 8.988281 -17.324219 L 5.777344 -17.324219 L 5.777344 -18.328125 L 6.78125 -18.328125 L 6.78125 -10.914062 L 5.777344 -10.914062 Z M 4.773438 -9.910156 L 4.773438 -19.332031 L 8.988281 -19.332031 C 9.691406 -19.332031 10.25 -19.128906 10.660156 -18.71875 C 11.070312 -18.308594 11.273438 -17.75 11.273438 -17.042969 L 11.273438 -12.199219 C 11.273438 -11.492188 11.070312 -10.933594 10.660156 -10.523438 C 10.25 -10.117188 9.691406 -9.910156 8.988281 -9.910156 Z M 4.773438 -9.910156 "/></g></g><g style="fill:#b21a22;fill-opacity:1;"><g transform="translate(55.50473, 32.284965)"><path style="stroke:none" d="M 16.753906 1.003906 L 13.640625 1.003906 C 13.25 1.003906 12.917969 0.882812 12.644531 0.644531 C 12.390625 0.421875 12.226562 0.128906 12.148438 -0.238281 L 13.128906 -0.449219 L 12.15625 -0.203125 L 11.128906 -4.246094 L 12.101562 -4.492188 L 12.101562 -3.492188 L 6.066406 -3.492188 L 6.066406 -4.492188 L 7.039062 -4.253906 L 6.046875 -0.210938 L 5.070312 -0.449219 L 6.050781 -0.238281 C 5.972656 0.128906 5.808594 0.421875 5.554688 0.644531 C 5.28125 0.882812 4.949219 1.003906 4.558594 1.003906 L 1.414062 1.003906 C 0.890625 1.003906 0.492188 0.828125 0.222656 0.472656 C -0.0546875 0.113281 -0.117188 -0.320312 0.03125 -0.828125 L 0.996094 -0.546875 L 0.0195312 -0.789062 L 5.351562 -22.261719 L 6.324219 -22.019531 L 5.34375 -22.230469 C 5.421875 -22.609375 5.597656 -22.910156 5.871094 -23.132812 C 6.148438 -23.359375 6.480469 -23.472656 6.871094 -23.472656 L 11.332031 -23.472656 C 11.722656 -23.472656 12.054688 -23.359375 12.328125 -23.132812 C 12.601562 -22.910156 12.777344 -22.609375 12.859375 -22.230469 L 11.875 -22.019531 L 12.851562 -22.261719 L 18.179688 -0.789062 L 17.207031 -0.546875 L 18.167969 -0.828125 C 18.320312 -0.308594 18.246094 0.136719 17.949219 0.5 C 17.671875 0.835938 17.273438 1.003906 16.753906 1.003906 Z M 16.753906 -1.003906 C 16.761719 -1.003906 16.765625 -1.003906 16.769531 -1.003906 C 16.769531 -1.003906 16.765625 -1.003906 16.765625 -1.003906 C 16.746094 -1 16.726562 -0.996094 16.699219 -0.988281 C 16.585938 -0.949219 16.484375 -0.878906 16.398438 -0.773438 C 16.300781 -0.65625 16.25 -0.527344 16.238281 -0.386719 C 16.234375 -0.332031 16.234375 -0.289062 16.242188 -0.261719 L 16.238281 -0.285156 L 10.898438 -21.792969 L 10.894531 -21.808594 C 10.914062 -21.730469 10.964844 -21.65625 11.054688 -21.582031 C 11.148438 -21.503906 11.242188 -21.464844 11.332031 -21.464844 L 6.871094 -21.464844 C 6.960938 -21.464844 7.050781 -21.503906 7.144531 -21.582031 C 7.234375 -21.65625 7.289062 -21.730469 7.304688 -21.808594 L 7.300781 -21.792969 L 1.964844 -0.285156 L 1.957031 -0.261719 C 1.964844 -0.285156 1.964844 -0.316406 1.960938 -0.367188 C 1.953125 -0.503906 1.90625 -0.628906 1.816406 -0.746094 C 1.730469 -0.859375 1.621094 -0.9375 1.5 -0.980469 C 1.457031 -0.996094 1.429688 -1.003906 1.414062 -1.003906 L 4.558594 -1.003906 C 4.445312 -1.003906 4.339844 -0.957031 4.234375 -0.867188 C 4.152344 -0.796875 4.105469 -0.726562 4.089844 -0.660156 L 4.09375 -0.675781 L 5.28125 -5.496094 L 12.882812 -5.496094 L 14.105469 -0.679688 L 14.109375 -0.660156 C 14.09375 -0.726562 14.046875 -0.796875 13.964844 -0.867188 C 13.863281 -0.957031 13.753906 -1.003906 13.640625 -1.003906 Z M 10.128906 -7.992188 L 8.105469 -16.722656 L 9.085938 -16.949219 L 10.0625 -16.722656 L 8.039062 -7.992188 L 7.0625 -8.21875 L 7.0625 -9.21875 L 11.105469 -9.21875 L 11.105469 -8.21875 Z M 12.367188 -7.214844 L 5.800781 -7.214844 L 8.105469 -17.175781 L 10.0625 -17.175781 L 12.082031 -8.445312 Z M 12.367188 -7.214844 "/></g></g><g style="fill:#b21a22;fill-opacity:1;"><g transform="translate(73.704402, 32.284965)"><path style="stroke:none" d="M 15.449219 -17.847656 L 15.449219 -11.394531 C 15.449219 -9.164062 14.691406 -7.574219 13.179688 -6.628906 L 12.648438 -7.480469 L 13.621094 -7.714844 L 15.292969 -0.8125 L 14.316406 -0.578125 L 15.28125 -0.847656 C 15.425781 -0.328125 15.359375 0.109375 15.074219 0.472656 C 14.800781 0.824219 14.398438 1.003906 13.867188 1.003906 L 10.722656 1.003906 C 10.332031 1.003906 10 0.890625 9.722656 0.660156 C 9.453125 0.4375 9.277344 0.136719 9.195312 -0.238281 L 10.175781 -0.449219 L 9.199219 -0.210938 L 7.660156 -6.535156 L 8.632812 -6.773438 L 8.632812 -5.769531 L 5.777344 -5.769531 L 5.777344 -6.773438 L 6.78125 -6.773438 L 6.78125 -0.511719 C 6.78125 -0.0664062 6.640625 0.300781 6.359375 0.582031 C 6.078125 0.863281 5.710938 1.003906 5.265625 1.003906 L 2.117188 1.003906 C 1.671875 1.003906 1.304688 0.863281 1.023438 0.582031 C 0.742188 0.300781 0.601562 -0.0664062 0.601562 -0.511719 L 0.601562 -21.957031 C 0.601562 -22.402344 0.742188 -22.769531 1.023438 -23.050781 C 1.304688 -23.332031 1.671875 -23.472656 2.117188 -23.472656 L 9.824219 -23.472656 C 11.617188 -23.472656 13.003906 -22.984375 13.984375 -22.007812 C 14.960938 -21.03125 15.449219 -19.644531 15.449219 -17.847656 Z M 13.441406 -17.847656 C 13.441406 -19.089844 13.148438 -20.003906 12.5625 -20.589844 C 11.976562 -21.171875 11.066406 -21.464844 9.824219 -21.464844 L 2.117188 -21.464844 C 2.140625 -21.464844 2.171875 -21.472656 2.210938 -21.484375 C 2.296875 -21.515625 2.375 -21.5625 2.441406 -21.632812 C 2.511719 -21.699219 2.558594 -21.777344 2.589844 -21.863281 C 2.601562 -21.902344 2.609375 -21.933594 2.609375 -21.957031 L 2.609375 -0.511719 C 2.609375 -0.535156 2.601562 -0.566406 2.589844 -0.605469 C 2.558594 -0.691406 2.511719 -0.769531 2.441406 -0.835938 C 2.375 -0.90625 2.296875 -0.957031 2.210938 -0.984375 C 2.171875 -0.996094 2.140625 -1.003906 2.117188 -1.003906 L 5.265625 -1.003906 C 5.242188 -1.003906 5.210938 -0.996094 5.171875 -0.984375 C 5.085938 -0.957031 5.007812 -0.90625 4.941406 -0.835938 C 4.871094 -0.769531 4.824219 -0.691406 4.792969 -0.605469 C 4.78125 -0.566406 4.773438 -0.535156 4.773438 -0.511719 L 4.773438 -7.777344 L 9.421875 -7.777344 L 11.152344 -0.671875 L 11.15625 -0.660156 C 11.140625 -0.738281 11.085938 -0.8125 10.996094 -0.886719 C 10.902344 -0.964844 10.8125 -1.003906 10.722656 -1.003906 L 13.867188 -1.003906 C 13.847656 -1 13.820312 -0.992188 13.796875 -0.984375 C 13.675781 -0.945312 13.578125 -0.867188 13.492188 -0.761719 C 13.40625 -0.648438 13.359375 -0.527344 13.347656 -0.398438 C 13.34375 -0.355469 13.34375 -0.324219 13.351562 -0.308594 L 13.34375 -0.324219 L 11.5 -7.945312 L 12.117188 -8.328125 C 13 -8.882812 13.441406 -9.902344 13.441406 -11.394531 Z M 5.777344 -11.917969 L 8.988281 -11.917969 C 9.09375 -11.917969 9.175781 -11.925781 9.230469 -11.945312 C 9.242188 -11.949219 9.25 -11.953125 9.253906 -11.953125 C 9.25 -11.953125 9.246094 -11.949219 9.242188 -11.945312 C 9.238281 -11.9375 9.234375 -11.933594 9.230469 -11.929688 C 9.234375 -11.933594 9.234375 -11.941406 9.238281 -11.953125 C 9.257812 -12.011719 9.269531 -12.09375 9.269531 -12.199219 L 9.269531 -17.042969 C 9.269531 -17.148438 9.257812 -17.230469 9.238281 -17.289062 C 9.234375 -17.300781 9.234375 -17.308594 9.230469 -17.3125 C 9.234375 -17.308594 9.238281 -17.304688 9.242188 -17.296875 C 9.246094 -17.292969 9.25 -17.289062 9.253906 -17.289062 C 9.25 -17.289062 9.242188 -17.292969 9.230469 -17.296875 C 9.175781 -17.316406 9.09375 -17.324219 8.988281 -17.324219 L 5.777344 -17.324219 L 5.777344 -18.328125 L 6.78125 -18.328125 L 6.78125 -10.914062 L 5.777344 -10.914062 Z M 4.773438 -9.910156 L 4.773438 -19.332031 L 8.988281 -19.332031 C 9.691406 -19.332031 10.25 -19.128906 10.660156 -18.71875 C 11.070312 -18.308594 11.273438 -17.75 11.273438 -17.042969 L 11.273438 -12.199219 C 11.273438 -11.492188 11.070312 -10.933594 10.660156 -10.523438 C 10.25 -10.117188 9.691406 -9.910156 8.988281 -9.910156 Z M 4.773438 -9.910156 "/></g></g><g style="fill:#b21a22;fill-opacity:1;"><g transform="translate(89.753495, 32.284965)"><path style="stroke:none" d="M 12.777344 -23.472656 L 15.984375 -23.472656 C 16.550781 -23.472656 16.988281 -23.273438 17.292969 -22.871094 C 17.488281 -22.621094 17.582031 -22.339844 17.582031 -22.023438 C 17.582031 -21.777344 17.519531 -21.53125 17.394531 -21.28125 L 16.5 -21.730469 L 17.417969 -21.328125 L 11.542969 -8.003906 L 10.625 -8.410156 L 11.628906 -8.410156 L 11.628906 -0.640625 C 11.628906 -0.152344 11.476562 0.246094 11.171875 0.550781 C 10.871094 0.851562 10.472656 1.003906 9.984375 1.003906 L 6.902344 1.003906 C 6.410156 1.003906 6.011719 0.851562 5.710938 0.550781 C 5.40625 0.246094 5.257812 -0.152344 5.257812 -0.640625 L 5.257812 -8.410156 L 6.257812 -8.410156 L 5.339844 -8.003906 L -0.539062 -21.34375 L -0.546875 -21.359375 C -0.765625 -21.90625 -0.722656 -22.398438 -0.421875 -22.832031 C -0.128906 -23.257812 0.3125 -23.472656 0.898438 -23.472656 L 4.109375 -23.472656 C 4.5 -23.472656 4.84375 -23.371094 5.140625 -23.164062 C 5.433594 -22.960938 5.648438 -22.675781 5.785156 -22.308594 L 4.847656 -21.957031 L 5.765625 -22.355469 L 9.363281 -14.105469 L 8.441406 -13.707031 L 7.523438 -14.105469 L 11.117188 -22.355469 L 12.039062 -21.957031 L 11.097656 -22.308594 C 11.234375 -22.675781 11.449219 -22.960938 11.746094 -23.164062 C 12.039062 -23.371094 12.382812 -23.472656 12.777344 -23.472656 Z M 12.777344 -21.464844 C 12.804688 -21.464844 12.84375 -21.484375 12.890625 -21.519531 C 12.9375 -21.550781 12.96875 -21.578125 12.976562 -21.605469 L 12.96875 -21.578125 L 8.441406 -11.195312 L 3.917969 -21.578125 L 3.90625 -21.605469 C 3.917969 -21.578125 3.945312 -21.550781 3.992188 -21.519531 C 4.042969 -21.484375 4.082031 -21.464844 4.109375 -21.464844 L 0.898438 -21.464844 C 0.914062 -21.464844 0.945312 -21.476562 0.984375 -21.492188 C 1.082031 -21.53125 1.164062 -21.597656 1.226562 -21.691406 C 1.289062 -21.78125 1.324219 -21.882812 1.328125 -21.992188 C 1.328125 -22.042969 1.324219 -22.082031 1.316406 -22.105469 L 0.386719 -21.730469 L 1.304688 -22.136719 L 7.261719 -8.621094 L 7.261719 -0.640625 C 7.261719 -0.636719 7.261719 -0.632812 7.261719 -0.632812 C 7.261719 -0.644531 7.257812 -0.660156 7.25 -0.679688 C 7.226562 -0.746094 7.1875 -0.8125 7.128906 -0.871094 C 7.070312 -0.929688 7.007812 -0.96875 6.9375 -0.992188 C 6.921875 -0.996094 6.90625 -1 6.894531 -1.003906 C 6.890625 -1.003906 6.890625 -1.003906 6.890625 -1.003906 C 6.894531 -1.003906 6.898438 -1.003906 6.902344 -1.003906 L 9.984375 -1.003906 C 9.988281 -1.003906 9.992188 -1.003906 9.992188 -1.003906 C 9.980469 -1 9.964844 -0.996094 9.945312 -0.992188 C 9.878906 -0.96875 9.8125 -0.929688 9.753906 -0.871094 C 9.695312 -0.8125 9.65625 -0.746094 9.632812 -0.679688 C 9.628906 -0.660156 9.625 -0.644531 9.621094 -0.632812 C 9.621094 -0.632812 9.621094 -0.636719 9.621094 -0.640625 L 9.621094 -8.621094 L 15.589844 -22.160156 L 15.601562 -22.179688 C 15.585938 -22.144531 15.574219 -22.09375 15.574219 -22.023438 C 15.574219 -21.886719 15.617188 -21.761719 15.703125 -21.648438 C 15.761719 -21.574219 15.832031 -21.519531 15.914062 -21.488281 C 15.949219 -21.472656 15.972656 -21.464844 15.984375 -21.464844 Z M 12.777344 -21.464844 "/></g></g><g style="fill:#b21a22;fill-opacity:1;"><g transform="translate(12.249998, 76.885787)"><path style="stroke:none" d="M -1.003906 4.300781 L -1.003906 1.347656 C -1.003906 0.855469 -0.851562 0.460938 -0.550781 0.15625 C -0.246094 -0.144531 0.152344 -0.296875 0.640625 -0.296875 L 19.996094 -0.296875 C 20.488281 -0.296875 20.886719 -0.144531 21.1875 0.15625 C 21.492188 0.460938 21.644531 0.855469 21.644531 1.347656 L 21.644531 4.300781 C 21.644531 4.792969 21.492188 5.1875 21.1875 5.492188 C 20.886719 5.796875 20.488281 5.945312 19.996094 5.945312 L 0.640625 5.945312 C 0.152344 5.945312 -0.246094 5.796875 -0.550781 5.492188 C -0.851562 5.1875 -1.003906 4.792969 -1.003906 4.300781 Z M 1.003906 4.300781 C 1.003906 4.304688 1.003906 4.308594 1.003906 4.3125 C 1.003906 4.3125 1.003906 4.3125 1.003906 4.308594 C 1 4.296875 0.996094 4.28125 0.992188 4.265625 C 0.96875 4.195312 0.929688 4.132812 0.871094 4.074219 C 0.8125 4.015625 0.746094 3.972656 0.679688 3.953125 C 0.660156 3.945312 0.644531 3.941406 0.632812 3.941406 C 0.632812 3.941406 0.636719 3.941406 0.640625 3.941406 L 19.996094 3.941406 C 20.003906 3.941406 20.007812 3.941406 20.007812 3.941406 C 19.992188 3.941406 19.980469 3.945312 19.960938 3.953125 C 19.890625 3.972656 19.828125 4.015625 19.769531 4.074219 C 19.710938 4.132812 19.671875 4.195312 19.648438 4.265625 C 19.640625 4.28125 19.636719 4.296875 19.636719 4.308594 C 19.636719 4.3125 19.636719 4.3125 19.636719 4.3125 C 19.636719 4.308594 19.636719 4.304688 19.636719 4.300781 L 19.636719 1.347656 C 19.636719 1.34375 19.636719 1.339844 19.636719 1.335938 C 19.636719 1.335938 19.636719 1.339844 19.636719 1.339844 C 19.636719 1.351562 19.640625 1.367188 19.648438 1.382812 C 19.671875 1.453125 19.710938 1.519531 19.769531 1.574219 C 19.828125 1.632812 19.890625 1.675781 19.960938 1.699219 C 19.980469 1.703125 19.992188 1.707031 20.007812 1.710938 C 20.007812 1.710938 20.003906 1.710938 19.996094 1.710938 L 0.640625 1.710938 C 0.636719 1.710938 0.632812 1.710938 0.632812 1.710938 C 0.644531 1.707031 0.660156 1.703125 0.679688 1.699219 C 0.746094 1.675781 0.8125 1.632812 0.871094 1.574219 C 0.929688 1.519531 0.96875 1.453125 0.992188 1.382812 C 0.996094 1.367188 1 1.351562 1.003906 1.339844 C 1.003906 1.339844 1.003906 1.335938 1.003906 1.335938 C 1.003906 1.339844 1.003906 1.34375 1.003906 1.347656 Z M 1.003906 4.300781 "/></g></g><g style="fill:#b21a22;fill-opacity:1;"><g transform="translate(32.889134, 76.885787)"><path style="stroke:none" d="M 13.289062 -21.464844 L 1.476562 -21.464844 C 1.5 -21.464844 1.53125 -21.472656 1.570312 -21.484375 C 1.65625 -21.515625 1.730469 -21.5625 1.800781 -21.632812 C 1.871094 -21.699219 1.917969 -21.777344 1.945312 -21.863281 C 1.960938 -21.902344 1.964844 -21.933594 1.964844 -21.957031 L 1.964844 -18.746094 C 1.964844 -18.769531 1.960938 -18.800781 1.945312 -18.839844 C 1.917969 -18.925781 1.871094 -19 1.800781 -19.070312 C 1.730469 -19.140625 1.65625 -19.1875 1.570312 -19.214844 C 1.53125 -19.230469 1.5 -19.234375 1.476562 -19.234375 L 6.203125 -19.234375 L 6.203125 -0.511719 C 6.203125 -0.535156 6.195312 -0.566406 6.183594 -0.605469 C 6.15625 -0.691406 6.105469 -0.769531 6.039062 -0.835938 C 5.96875 -0.90625 5.890625 -0.957031 5.804688 -0.984375 C 5.765625 -0.996094 5.738281 -1.003906 5.714844 -1.003906 L 9.050781 -1.003906 C 9.027344 -1.003906 9 -0.996094 8.960938 -0.984375 C 8.875 -0.957031 8.796875 -0.90625 8.726562 -0.835938 C 8.660156 -0.769531 8.609375 -0.691406 8.582031 -0.605469 C 8.570312 -0.566406 8.5625 -0.535156 8.5625 -0.511719 L 8.5625 -19.234375 L 13.289062 -19.234375 C 13.265625 -19.234375 13.234375 -19.230469 13.195312 -19.214844 C 13.109375 -19.1875 13.035156 -19.140625 12.964844 -19.070312 C 12.894531 -19 12.847656 -18.925781 12.820312 -18.839844 C 12.804688 -18.800781 12.800781 -18.769531 12.800781 -18.746094 L 12.800781 -21.957031 C 12.800781 -21.933594 12.804688 -21.902344 12.820312 -21.863281 C 12.847656 -21.777344 12.894531 -21.699219 12.964844 -21.632812 C 13.035156 -21.5625 13.109375 -21.515625 13.195312 -21.484375 C 13.234375 -21.472656 13.265625 -21.464844 13.289062 -21.464844 Z M 13.289062 -23.472656 C 13.738281 -23.472656 14.101562 -23.332031 14.382812 -23.050781 C 14.664062 -22.769531 14.804688 -22.402344 14.804688 -21.957031 L 14.804688 -18.746094 C 14.804688 -18.296875 14.664062 -17.933594 14.382812 -17.652344 C 14.101562 -17.371094 13.738281 -17.230469 13.289062 -17.230469 L 9.566406 -17.230469 L 9.566406 -18.234375 L 10.570312 -18.234375 L 10.570312 -0.511719 C 10.570312 -0.0664062 10.429688 0.300781 10.148438 0.582031 C 9.863281 0.863281 9.5 1.003906 9.050781 1.003906 L 5.714844 1.003906 C 5.265625 1.003906 4.902344 0.863281 4.617188 0.582031 C 4.335938 0.300781 4.195312 -0.0664062 4.195312 -0.511719 L 4.195312 -18.234375 L 5.199219 -18.234375 L 5.199219 -17.230469 L 1.476562 -17.230469 C 1.027344 -17.230469 0.664062 -17.371094 0.382812 -17.652344 C 0.101562 -17.933594 -0.0390625 -18.296875 -0.0390625 -18.746094 L -0.0390625 -21.957031 C -0.0390625 -22.402344 0.101562 -22.769531 0.382812 -23.050781 C 0.664062 -23.332031 1.027344 -23.472656 1.476562 -23.472656 Z M 13.289062 -23.472656 "/></g></g><g style="fill:#b21a22;fill-opacity:1;"><g transform="translate(47.654304, 76.885787)"><path style="stroke:none" d="M 15.449219 -17.847656 L 15.449219 -11.394531 C 15.449219 -9.164062 14.691406 -7.574219 13.179688 -6.628906 L 12.648438 -7.480469 L 13.621094 -7.714844 L 15.292969 -0.8125 L 14.316406 -0.578125 L 15.28125 -0.847656 C 15.425781 -0.328125 15.359375 0.109375 15.074219 0.472656 C 14.800781 0.824219 14.398438 1.003906 13.867188 1.003906 L 10.722656 1.003906 C 10.332031 1.003906 10 0.890625 9.722656 0.660156 C 9.453125 0.4375 9.277344 0.136719 9.195312 -0.238281 L 10.175781 -0.449219 L 9.199219 -0.210938 L 7.660156 -6.535156 L 8.632812 -6.773438 L 8.632812 -5.769531 L 5.777344 -5.769531 L 5.777344 -6.773438 L 6.78125 -6.773438 L 6.78125 -0.511719 C 6.78125 -0.0664062 6.640625 0.300781 6.359375 0.582031 C 6.078125 0.863281 5.710938 1.003906 5.265625 1.003906 L 2.117188 1.003906 C 1.671875 1.003906 1.304688 0.863281 1.023438 0.582031 C 0.742188 0.300781 0.601562 -0.0664062 0.601562 -0.511719 L 0.601562 -21.957031 C 0.601562 -22.402344 0.742188 -22.769531 1.023438 -23.050781 C 1.304688 -23.332031 1.671875 -23.472656 2.117188 -23.472656 L 9.824219 -23.472656 C 11.617188 -23.472656 13.003906 -22.984375 13.984375 -22.007812 C 14.960938 -21.03125 15.449219 -19.644531 15.449219 -17.847656 Z M 13.441406 -17.847656 C 13.441406 -19.089844 13.148438 -20.003906 12.5625 -20.589844 C 11.976562 -21.171875 11.066406 -21.464844 9.824219 -21.464844 L 2.117188 -21.464844 C 2.140625 -21.464844 2.171875 -21.472656 2.210938 -21.484375 C 2.296875 -21.515625 2.375 -21.5625 2.441406 -21.632812 C 2.511719 -21.699219 2.558594 -21.777344 2.589844 -21.863281 C 2.601562 -21.902344 2.609375 -21.933594 2.609375 -21.957031 L 2.609375 -0.511719 C 2.609375 -0.535156 2.601562 -0.566406 2.589844 -0.605469 C 2.558594 -0.691406 2.511719 -0.769531 2.441406 -0.835938 C 2.375 -0.90625 2.296875 -0.957031 2.210938 -0.984375 C 2.171875 -0.996094 2.140625 -1.003906 2.117188 -1.003906 L 5.265625 -1.003906 C 5.242188 -1.003906 5.210938 -0.996094 5.171875 -0.984375 C 5.085938 -0.957031 5.007812 -0.90625 4.941406 -0.835938 C 4.871094 -0.769531 4.824219 -0.691406 4.792969 -0.605469 C 4.78125 -0.566406 4.773438 -0.535156 4.773438 -0.511719 L 4.773438 -7.777344 L 9.421875 -7.777344 L 11.152344 -0.671875 L 11.15625 -0.660156 C 11.140625 -0.738281 11.085938 -0.8125 10.996094 -0.886719 C 10.902344 -0.964844 10.8125 -1.003906 10.722656 -1.003906 L 13.867188 -1.003906 C 13.847656 -1 13.820312 -0.992188 13.796875 -0.984375 C 13.675781 -0.945312 13.578125 -0.867188 13.492188 -0.761719 C 13.40625 -0.648438 13.359375 -0.527344 13.347656 -0.398438 C 13.34375 -0.355469 13.34375 -0.324219 13.351562 -0.308594 L 13.34375 -0.324219 L 11.5 -7.945312 L 12.117188 -8.328125 C 13 -8.882812 13.441406 -9.902344 13.441406 -11.394531 Z M 5.777344 -11.917969 L 8.988281 -11.917969 C 9.09375 -11.917969 9.175781 -11.925781 9.230469 -11.945312 C 9.242188 -11.949219 9.25 -11.953125 9.253906 -11.953125 C 9.25 -11.953125 9.246094 -11.949219 9.242188 -11.945312 C 9.238281 -11.9375 9.234375 -11.933594 9.230469 -11.929688 C 9.234375 -11.933594 9.234375 -11.941406 9.238281 -11.953125 C 9.257812 -12.011719 9.269531 -12.09375 9.269531 -12.199219 L 9.269531 -17.042969 C 9.269531 -17.148438 9.257812 -17.230469 9.238281 -17.289062 C 9.234375 -17.300781 9.234375 -17.308594 9.230469 -17.3125 C 9.234375 -17.308594 9.238281 -17.304688 9.242188 -17.296875 C 9.246094 -17.292969 9.25 -17.289062 9.253906 -17.289062 C 9.25 -17.289062 9.242188 -17.292969 9.230469 -17.296875 C 9.175781 -17.316406 9.09375 -17.324219 8.988281 -17.324219 L 5.777344 -17.324219 L 5.777344 -18.328125 L 6.78125 -18.328125 L 6.78125 -10.914062 L 5.777344 -10.914062 Z M 4.773438 -9.910156 L 4.773438 -19.332031 L 8.988281 -19.332031 C 9.691406 -19.332031 10.25 -19.128906 10.660156 -18.71875 C 11.070312 -18.308594 11.273438 -17.75 11.273438 -17.042969 L 11.273438 -12.199219 C 11.273438 -11.492188 11.070312 -10.933594 10.660156 -10.523438 C 10.25 -10.117188 9.691406 -9.910156 8.988281 -9.910156 Z M 4.773438 -9.910156 "/></g></g><g style="fill:#b21a22;fill-opacity:1;"><g transform="translate(63.703397, 76.885787)"><path style="stroke:none" d="M 15.414062 -21.957031 L 15.414062 -18.746094 C 15.414062 -18.300781 15.28125 -17.933594 15.015625 -17.648438 C 14.730469 -17.347656 14.359375 -17.195312 13.898438 -17.195312 L 5.96875 -17.195312 L 5.96875 -18.199219 L 6.972656 -18.199219 L 6.972656 -13.257812 L 5.96875 -13.257812 L 5.96875 -14.261719 L 12.003906 -14.261719 C 12.464844 -14.261719 12.835938 -14.109375 13.121094 -13.808594 C 13.386719 -13.523438 13.523438 -13.160156 13.523438 -12.710938 L 13.523438 -9.535156 C 13.523438 -9.085938 13.386719 -8.722656 13.121094 -8.4375 C 12.835938 -8.136719 12.464844 -7.984375 12.003906 -7.984375 L 5.96875 -7.984375 L 5.96875 -8.988281 L 6.972656 -8.988281 L 6.972656 -4.238281 L 5.96875 -4.238281 L 5.96875 -5.242188 L 13.898438 -5.242188 C 14.347656 -5.242188 14.710938 -5.101562 14.992188 -4.816406 C 15.273438 -4.535156 15.414062 -4.171875 15.414062 -3.722656 L 15.414062 -0.511719 C 15.414062 -0.0664062 15.273438 0.300781 14.992188 0.582031 C 14.710938 0.863281 14.347656 1.003906 13.898438 1.003906 L 2.085938 1.003906 C 1.636719 1.003906 1.273438 0.855469 0.992188 0.558594 C 0.730469 0.277344 0.601562 -0.078125 0.601562 -0.511719 L 0.601562 -21.957031 C 0.601562 -22.390625 0.730469 -22.75 0.992188 -23.027344 C 1.273438 -23.324219 1.636719 -23.472656 2.085938 -23.472656 L 13.898438 -23.472656 C 14.347656 -23.472656 14.710938 -23.332031 14.992188 -23.050781 C 15.273438 -22.769531 15.414062 -22.402344 15.414062 -21.957031 Z M 13.410156 -21.957031 C 13.410156 -21.933594 13.414062 -21.902344 13.429688 -21.863281 C 13.457031 -21.777344 13.507812 -21.699219 13.574219 -21.632812 C 13.644531 -21.5625 13.722656 -21.515625 13.804688 -21.484375 C 13.84375 -21.472656 13.875 -21.464844 13.898438 -21.464844 L 2.085938 -21.464844 C 2.214844 -21.464844 2.339844 -21.527344 2.457031 -21.65625 C 2.523438 -21.722656 2.566406 -21.800781 2.59375 -21.882812 C 2.601562 -21.914062 2.609375 -21.941406 2.609375 -21.957031 L 2.609375 -0.511719 C 2.609375 -0.53125 2.601562 -0.554688 2.59375 -0.589844 C 2.566406 -0.671875 2.523438 -0.746094 2.457031 -0.816406 C 2.339844 -0.941406 2.214844 -1.003906 2.085938 -1.003906 L 13.898438 -1.003906 C 13.875 -1.003906 13.84375 -0.996094 13.804688 -0.984375 C 13.722656 -0.957031 13.644531 -0.90625 13.574219 -0.835938 C 13.507812 -0.769531 13.457031 -0.691406 13.429688 -0.605469 C 13.414062 -0.566406 13.410156 -0.535156 13.410156 -0.511719 L 13.410156 -3.722656 C 13.410156 -3.699219 13.414062 -3.667969 13.429688 -3.632812 C 13.457031 -3.546875 13.507812 -3.46875 13.574219 -3.398438 C 13.644531 -3.332031 13.722656 -3.28125 13.804688 -3.253906 C 13.84375 -3.242188 13.875 -3.234375 13.898438 -3.234375 L 4.96875 -3.234375 L 4.96875 -9.992188 L 12.003906 -9.992188 C 11.976562 -9.992188 11.9375 -9.984375 11.894531 -9.96875 C 11.804688 -9.9375 11.726562 -9.882812 11.660156 -9.8125 C 11.597656 -9.746094 11.554688 -9.671875 11.53125 -9.59375 C 11.519531 -9.566406 11.515625 -9.546875 11.515625 -9.535156 L 11.515625 -12.710938 C 11.515625 -12.699219 11.519531 -12.679688 11.53125 -12.648438 C 11.554688 -12.570312 11.597656 -12.5 11.660156 -12.433594 C 11.726562 -12.359375 11.804688 -12.308594 11.894531 -12.277344 C 11.9375 -12.261719 11.976562 -12.253906 12.003906 -12.253906 L 4.96875 -12.253906 L 4.96875 -19.203125 L 13.898438 -19.203125 C 13.871094 -19.203125 13.832031 -19.195312 13.789062 -19.179688 C 13.699219 -19.148438 13.621094 -19.097656 13.554688 -19.023438 C 13.492188 -18.957031 13.449219 -18.886719 13.421875 -18.808594 C 13.414062 -18.777344 13.410156 -18.757812 13.410156 -18.746094 Z M 13.410156 -21.957031 "/></g></g><g style="fill:#b21a22;fill-opacity:1;"><g transform="translate(79.720396, 76.885787)"><path style="stroke:none" d="M 15.414062 -21.957031 L 15.414062 -18.746094 C 15.414062 -18.300781 15.28125 -17.933594 15.015625 -17.648438 C 14.730469 -17.347656 14.359375 -17.195312 13.898438 -17.195312 L 5.96875 -17.195312 L 5.96875 -18.199219 L 6.972656 -18.199219 L 6.972656 -13.257812 L 5.96875 -13.257812 L 5.96875 -14.261719 L 12.003906 -14.261719 C 12.464844 -14.261719 12.835938 -14.109375 13.121094 -13.808594 C 13.386719 -13.523438 13.523438 -13.160156 13.523438 -12.710938 L 13.523438 -9.535156 C 13.523438 -9.085938 13.386719 -8.722656 13.121094 -8.4375 C 12.835938 -8.136719 12.464844 -7.984375 12.003906 -7.984375 L 5.96875 -7.984375 L 5.96875 -8.988281 L 6.972656 -8.988281 L 6.972656 -4.238281 L 5.96875 -4.238281 L 5.96875 -5.242188 L 13.898438 -5.242188 C 14.347656 -5.242188 14.710938 -5.101562 14.992188 -4.816406 C 15.273438 -4.535156 15.414062 -4.171875 15.414062 -3.722656 L 15.414062 -0.511719 C 15.414062 -0.0664062 15.273438 0.300781 14.992188 0.582031 C 14.710938 0.863281 14.347656 1.003906 13.898438 1.003906 L 2.085938 1.003906 C 1.636719 1.003906 1.273438 0.855469 0.992188 0.558594 C 0.730469 0.277344 0.601562 -0.078125 0.601562 -0.511719 L 0.601562 -21.957031 C 0.601562 -22.390625 0.730469 -22.75 0.992188 -23.027344 C 1.273438 -23.324219 1.636719 -23.472656 2.085938 -23.472656 L 13.898438 -23.472656 C 14.347656 -23.472656 14.710938 -23.332031 14.992188 -23.050781 C 15.273438 -22.769531 15.414062 -22.402344 15.414062 -21.957031 Z M 13.410156 -21.957031 C 13.410156 -21.933594 13.414062 -21.902344 13.429688 -21.863281 C 13.457031 -21.777344 13.507812 -21.699219 13.574219 -21.632812 C 13.644531 -21.5625 13.722656 -21.515625 13.804688 -21.484375 C 13.84375 -21.472656 13.875 -21.464844 13.898438 -21.464844 L 2.085938 -21.464844 C 2.214844 -21.464844 2.339844 -21.527344 2.457031 -21.65625 C 2.523438 -21.722656 2.566406 -21.800781 2.59375 -21.882812 C 2.601562 -21.914062 2.609375 -21.941406 2.609375 -21.957031 L 2.609375 -0.511719 C 2.609375 -0.53125 2.601562 -0.554688 2.59375 -0.589844 C 2.566406 -0.671875 2.523438 -0.746094 2.457031 -0.816406 C 2.339844 -0.941406 2.214844 -1.003906 2.085938 -1.003906 L 13.898438 -1.003906 C 13.875 -1.003906 13.84375 -0.996094 13.804688 -0.984375 C 13.722656 -0.957031 13.644531 -0.90625 13.574219 -0.835938 C 13.507812 -0.769531 13.457031 -0.691406 13.429688 -0.605469 C 13.414062 -0.566406 13.410156 -0.535156 13.410156 -0.511719 L 13.410156 -3.722656 C 13.410156 -3.699219 13.414062 -3.667969 13.429688 -3.632812 C 13.457031 -3.546875 13.507812 -3.46875 13.574219 -3.398438 C 13.644531 -3.332031 13.722656 -3.28125 13.804688 -3.253906 C 13.84375 -3.242188 13.875 -3.234375 13.898438 -3.234375 L 4.96875 -3.234375 L 4.96875 -9.992188 L 12.003906 -9.992188 C 11.976562 -9.992188 11.9375 -9.984375 11.894531 -9.96875 C 11.804688 -9.9375 11.726562 -9.882812 11.660156 -9.8125 C 11.597656 -9.746094 11.554688 -9.671875 11.53125 -9.59375 C 11.519531 -9.566406 11.515625 -9.546875 11.515625 -9.535156 L 11.515625 -12.710938 C 11.515625 -12.699219 11.519531 -12.679688 11.53125 -12.648438 C 11.554688 -12.570312 11.597656 -12.5 11.660156 -12.433594 C 11.726562 -12.359375 11.804688 -12.308594 11.894531 -12.277344 C 11.9375 -12.261719 11.976562 -12.253906 12.003906 -12.253906 L 4.96875 -12.253906 L 4.96875 -19.203125 L 13.898438 -19.203125 C 13.871094 -19.203125 13.832031 -19.195312 13.789062 -19.179688 C 13.699219 -19.148438 13.621094 -19.097656 13.554688 -19.023438 C 13.492188 -18.957031 13.449219 -18.886719 13.421875 -18.808594 C 13.414062 -18.777344 13.410156 -18.757812 13.410156 -18.746094 Z M 13.410156 -21.957031 "/></g></g><g style="fill:#060705;fill-opacity:1;"><g transform="translate(1.355088, 32.284965)"><path style="stroke:none" d="M 5.96875 -4.234375 L 5.96875 -21.953125 C 5.96875 -22.296875 5.796875 -22.46875 5.453125 -22.46875 L 2.125 -22.46875 C 1.78125 -22.46875 1.609375 -22.296875 1.609375 -21.953125 L 1.609375 -0.515625 C 1.609375 -0.171875 1.78125 0 2.125 0 L 12.328125 0 C 12.671875 0 12.84375 -0.171875 12.84375 -0.515625 L 12.84375 -3.71875 C 12.84375 -4.0625 12.671875 -4.234375 12.328125 -4.234375 Z M 5.96875 -4.234375 "/></g></g><g style="fill:#060705;fill-opacity:1;"><g transform="translate(15.799271, 32.284965)"><path style="stroke:none" d="M 2.125 0 L 5.453125 0 C 5.796875 0 5.96875 -0.171875 5.96875 -0.515625 L 5.96875 -21.953125 C 5.96875 -22.296875 5.796875 -22.46875 5.453125 -22.46875 L 2.125 -22.46875 C 1.78125 -22.46875 1.609375 -22.296875 1.609375 -21.953125 L 1.609375 -0.515625 C 1.609375 -0.171875 1.78125 0 2.125 0 Z M 2.125 0 "/></g></g><g style="fill:#060705;fill-opacity:1;"><g transform="translate(23.374443, 32.284965)"><path style="stroke:none" d="M 14.46875 -17.84375 L 14.46875 -13.515625 C 14.46875 -12.910156 14.273438 -12.40625 13.890625 -12 C 13.503906 -11.59375 13.023438 -11.335938 12.453125 -11.234375 L 12.453125 -11.171875 C 13.023438 -11.085938 13.503906 -10.832031 13.890625 -10.40625 C 14.273438 -9.988281 14.46875 -9.484375 14.46875 -8.890625 L 14.46875 -4.625 C 14.46875 -3.125 14.070312 -1.976562 13.28125 -1.1875 C 12.488281 -0.394531 11.335938 0 9.828125 0 L 2.125 0 C 1.78125 0 1.609375 -0.171875 1.609375 -0.515625 L 1.609375 -21.953125 C 1.609375 -22.296875 1.78125 -22.46875 2.125 -22.46875 L 9.828125 -22.46875 C 11.335938 -22.46875 12.488281 -22.078125 13.28125 -21.296875 C 14.070312 -20.515625 14.46875 -19.363281 14.46875 -17.84375 Z M 10.390625 -14.578125 L 10.390625 -17.140625 C 10.390625 -17.992188 9.960938 -18.421875 9.109375 -18.421875 L 5.578125 -18.421875 L 5.578125 -13.3125 L 9.109375 -13.3125 C 9.960938 -13.3125 10.390625 -13.734375 10.390625 -14.578125 Z M 10.390625 -5.328125 L 10.390625 -7.796875 C 10.390625 -8.648438 9.960938 -9.078125 9.109375 -9.078125 L 5.578125 -9.078125 L 5.578125 -4.046875 L 9.109375 -4.046875 C 9.960938 -4.046875 10.390625 -4.472656 10.390625 -5.328125 Z M 10.390625 -5.328125 "/></g></g><g style="fill:#060705;fill-opacity:1;"><g transform="translate(39.455637, 32.284965)"><path style="stroke:none" d="M 14.4375 -17.84375 L 14.4375 -11.390625 C 14.4375 -9.523438 13.835938 -8.222656 12.640625 -7.484375 L 14.3125 -0.578125 C 14.414062 -0.191406 14.265625 0 13.859375 0 L 10.71875 0 C 10.414062 0 10.234375 -0.148438 10.171875 -0.453125 L 8.640625 -6.765625 L 5.78125 -6.765625 L 5.78125 -0.515625 C 5.78125 -0.171875 5.609375 0 5.265625 0 L 2.125 0 C 1.78125 0 1.609375 -0.171875 1.609375 -0.515625 L 1.609375 -21.953125 C 1.609375 -22.296875 1.78125 -22.46875 2.125 -22.46875 L 9.828125 -22.46875 C 11.335938 -22.46875 12.484375 -22.078125 13.265625 -21.296875 C 14.046875 -20.515625 14.4375 -19.363281 14.4375 -17.84375 Z M 5.78125 -10.90625 L 8.984375 -10.90625 C 9.835938 -10.90625 10.265625 -11.335938 10.265625 -12.203125 L 10.265625 -17.046875 C 10.265625 -17.898438 9.835938 -18.328125 8.984375 -18.328125 L 5.78125 -18.328125 Z M 5.78125 -10.90625 "/></g></g><g style="fill:#060705;fill-opacity:1;"><g transform="translate(55.50473, 32.284965)"><path style="stroke:none" d="M 16.75 0 L 13.640625 0 C 13.359375 0 13.1875 -0.148438 13.125 -0.453125 L 12.09375 -4.5 L 6.0625 -4.5 L 5.078125 -0.453125 C 5.003906 -0.148438 4.832031 0 4.5625 0 L 1.40625 0 C 1.019531 0 0.882812 -0.179688 1 -0.546875 L 6.328125 -22.015625 C 6.390625 -22.316406 6.570312 -22.46875 6.875 -22.46875 L 11.328125 -22.46875 C 11.628906 -22.46875 11.8125 -22.316406 11.875 -22.015625 L 17.203125 -0.546875 C 17.304688 -0.179688 17.15625 0 16.75 0 Z M 11.109375 -8.21875 L 9.078125 -16.953125 L 7.0625 -8.21875 Z M 11.109375 -8.21875 "/></g></g><g style="fill:#060705;fill-opacity:1;"><g transform="translate(73.704402, 32.284965)"><path style="stroke:none" d="M 14.4375 -17.84375 L 14.4375 -11.390625 C 14.4375 -9.523438 13.835938 -8.222656 12.640625 -7.484375 L 14.3125 -0.578125 C 14.414062 -0.191406 14.265625 0 13.859375 0 L 10.71875 0 C 10.414062 0 10.234375 -0.148438 10.171875 -0.453125 L 8.640625 -6.765625 L 5.78125 -6.765625 L 5.78125 -0.515625 C 5.78125 -0.171875 5.609375 0 5.265625 0 L 2.125 0 C 1.78125 0 1.609375 -0.171875 1.609375 -0.515625 L 1.609375 -21.953125 C 1.609375 -22.296875 1.78125 -22.46875 2.125 -22.46875 L 9.828125 -22.46875 C 11.335938 -22.46875 12.484375 -22.078125 13.265625 -21.296875 C 14.046875 -20.515625 14.4375 -19.363281 14.4375 -17.84375 Z M 5.78125 -10.90625 L 8.984375 -10.90625 C 9.835938 -10.90625 10.265625 -11.335938 10.265625 -12.203125 L 10.265625 -17.046875 C 10.265625 -17.898438 9.835938 -18.328125 8.984375 -18.328125 L 5.78125 -18.328125 Z M 5.78125 -10.90625 "/></g></g><g style="fill:#060705;fill-opacity:1;"><g transform="translate(89.753495, 32.284965)"><path style="stroke:none" d="M 12.765625 -22.46875 L 15.984375 -22.46875 C 16.210938 -22.46875 16.378906 -22.394531 16.484375 -22.25 C 16.597656 -22.113281 16.601562 -21.941406 16.5 -21.734375 L 10.625 -8.40625 L 10.625 -0.640625 C 10.625 -0.210938 10.410156 0 9.984375 0 L 6.90625 0 C 6.476562 0 6.265625 -0.210938 6.265625 -0.640625 L 6.265625 -8.40625 L 0.390625 -21.734375 C 0.296875 -21.941406 0.296875 -22.113281 0.390625 -22.25 C 0.492188 -22.394531 0.664062 -22.46875 0.90625 -22.46875 L 4.109375 -22.46875 C 4.472656 -22.46875 4.71875 -22.296875 4.84375 -21.953125 L 8.4375 -13.703125 L 12.03125 -21.953125 C 12.164062 -22.296875 12.410156 -22.46875 12.765625 -22.46875 Z M 12.765625 -22.46875 "/></g></g><g style="fill:#060705;fill-opacity:1;"><g transform="translate(12.249998, 76.885787)"><path style="stroke:none" d="M 0 4.296875 L 0 1.34375 C 0 0.914062 0.210938 0.703125 0.640625 0.703125 L 20 0.703125 C 20.425781 0.703125 20.640625 0.914062 20.640625 1.34375 L 20.640625 4.296875 C 20.640625 4.722656 20.425781 4.9375 20 4.9375 L 0.640625 4.9375 C 0.210938 4.9375 0 4.722656 0 4.296875 Z M 0 4.296875 "/></g></g><g style="fill:#060705;fill-opacity:1;"><g transform="translate(32.889134, 76.885787)"><path style="stroke:none" d="M 13.28125 -22.46875 L 1.46875 -22.46875 C 1.132812 -22.46875 0.96875 -22.296875 0.96875 -21.953125 L 0.96875 -18.75 C 0.96875 -18.40625 1.132812 -18.234375 1.46875 -18.234375 L 5.203125 -18.234375 L 5.203125 -0.515625 C 5.203125 -0.171875 5.375 0 5.71875 0 L 9.046875 0 C 9.390625 0 9.5625 -0.171875 9.5625 -0.515625 L 9.5625 -18.234375 L 13.28125 -18.234375 C 13.625 -18.234375 13.796875 -18.40625 13.796875 -18.75 L 13.796875 -21.953125 C 13.796875 -22.296875 13.625 -22.46875 13.28125 -22.46875 Z M 13.28125 -22.46875 "/></g></g><g style="fill:#060705;fill-opacity:1;"><g transform="translate(47.654304, 76.885787)"><path style="stroke:none" d="M 14.4375 -17.84375 L 14.4375 -11.390625 C 14.4375 -9.523438 13.835938 -8.222656 12.640625 -7.484375 L 14.3125 -0.578125 C 14.414062 -0.191406 14.265625 0 13.859375 0 L 10.71875 0 C 10.414062 0 10.234375 -0.148438 10.171875 -0.453125 L 8.640625 -6.765625 L 5.78125 -6.765625 L 5.78125 -0.515625 C 5.78125 -0.171875 5.609375 0 5.265625 0 L 2.125 0 C 1.78125 0 1.609375 -0.171875 1.609375 -0.515625 L 1.609375 -21.953125 C 1.609375 -22.296875 1.78125 -22.46875 2.125 -22.46875 L 9.828125 -22.46875 C 11.335938 -22.46875 12.484375 -22.078125 13.265625 -21.296875 C 14.046875 -20.515625 14.4375 -19.363281 14.4375 -17.84375 Z M 5.78125 -10.90625 L 8.984375 -10.90625 C 9.835938 -10.90625 10.265625 -11.335938 10.265625 -12.203125 L 10.265625 -17.046875 C 10.265625 -17.898438 9.835938 -18.328125 8.984375 -18.328125 L 5.78125 -18.328125 Z M 5.78125 -10.90625 "/></g></g><g style="fill:#060705;fill-opacity:1;"><g transform="translate(63.703397, 76.885787)"><path style="stroke:none" d="M 14.40625 -21.953125 L 14.40625 -18.75 C 14.40625 -18.382812 14.234375 -18.203125 13.890625 -18.203125 L 5.96875 -18.203125 L 5.96875 -13.25 L 12 -13.25 C 12.34375 -13.25 12.515625 -13.066406 12.515625 -12.703125 L 12.515625 -9.53125 C 12.515625 -9.164062 12.34375 -8.984375 12 -8.984375 L 5.96875 -8.984375 L 5.96875 -4.234375 L 13.890625 -4.234375 C 14.234375 -4.234375 14.40625 -4.0625 14.40625 -3.71875 L 14.40625 -0.515625 C 14.40625 -0.171875 14.234375 0 13.890625 0 L 2.09375 0 C 1.769531 0 1.609375 -0.171875 1.609375 -0.515625 L 1.609375 -21.953125 C 1.609375 -22.296875 1.769531 -22.46875 2.09375 -22.46875 L 13.890625 -22.46875 C 14.234375 -22.46875 14.40625 -22.296875 14.40625 -21.953125 Z M 14.40625 -21.953125 "/></g></g><g style="fill:#060705;fill-opacity:1;"><g transform="translate(79.720396, 76.885787)"><path style="stroke:none" d="M 14.40625 -21.953125 L 14.40625 -18.75 C 14.40625 -18.382812 14.234375 -18.203125 13.890625 -18.203125 L 5.96875 -18.203125 L 5.96875 -13.25 L 12 -13.25 C 12.34375 -13.25 12.515625 -13.066406 12.515625 -12.703125 L 12.515625 -9.53125 C 12.515625 -9.164062 12.34375 -8.984375 12 -8.984375 L 5.96875 -8.984375 L 5.96875 -4.234375 L 13.890625 -4.234375 C 14.234375 -4.234375 14.40625 -4.0625 14.40625 -3.71875 L 14.40625 -0.515625 C 14.40625 -0.171875 14.234375 0 13.890625 0 L 2.09375 0 C 1.769531 0 1.609375 -0.171875 1.609375 -0.515625 L 1.609375 -21.953125 C 1.609375 -22.296875 1.769531 -22.46875 2.09375 -22.46875 L 13.890625 -22.46875 C 14.234375 -22.46875 14.40625 -22.296875 14.40625 -21.953125 Z M 14.40625 -21.953125 "/></g></g></g></g></g></svg>