<svg xmlns="http://www.w3.org/2000/svg" xmlns:xlink="http://www.w3.org/1999/xlink" width="192" zoomAndPan="magnify" viewBox="0 0 144 143.999998" height="192" preserveAspectRatio="xMidYMid meet" version="1.2"><defs><clipPath id="ddb5adaaf1"><path d="M 9 0 L 135 0 L 135 144 L 9 144 Z M 9 0 "/></clipPath><clipPath id="d74611c55f"><path d="M -21.457031 54.867188 L 103.039062 -17.847656 L 165.503906 89.105469 L 41.007812 161.816406 Z M -21.457031 54.867188 "/></clipPath><clipPath id="cda50e003a"><path d="M 134.226562 35.65625 L 134.347656 107.300781 L 72.121094 143.644531 L 9.773438 108.34375 L 9.65625 36.695312 L 71.878906 0.351562 Z M 134.226562 35.65625 "/></clipPath><clipPath id="00c7d589cd"><path d="M 21.210938 13.683594 L 122.773438 13.683594 L 122.773438 130.261719 L 21.210938 130.261719 Z M 21.210938 13.683594 "/></clipPath></defs><g id="44e9c8d0df"><g clip-rule="nonzero" clip-path="url(#ddb5adaaf1)"><g clip-rule="nonzero" clip-path="url(#d74611c55f)"><g clip-rule="nonzero" clip-path="url(#cda50e003a)"><path style=" stroke:none;fill-rule:nonzero;fill:#65b30e;fill-opacity:1;" d="M -21.457031 54.867188 L 103.039062 -17.847656 L 165.503906 89.105469 L 41.007812 161.816406 Z M -21.457031 54.867188 "/></g></g></g><path style=" stroke:none;fill-rule:nonzero;fill:#87ff00;fill-opacity:1;" d="M 51.679688 52.109375 L 51.613281 52.046875 L 37.261719 66.398438 L 72.113281 101.183594 L 86.46875 86.898438 L 106.960938 66.398438 L 92.609375 52.046875 L 92.609375 51.980469 L 51.617188 51.980469 Z M 51.679688 52.109375 "/><g clip-rule="nonzero" clip-path="url(#00c7d589cd)"><path style=" stroke:none;fill-rule:nonzero;fill:#87ff00;fill-opacity:1;" d="M 71.980469 13.765625 L 21.222656 42.863281 L 21.226562 101.058594 L 71.984375 130.15625 L 122.742188 101.058594 L 122.742188 42.863281 L 71.984375 13.769531 Z M 113.039062 95.496094 L 71.980469 119.160156 L 30.921875 95.496094 L 30.925781 48.292969 L 71.984375 24.628906 L 113.042969 48.292969 L 113.042969 95.492188 Z M 113.039062 95.496094 "/></g><g style="fill:#b21a22;fill-opacity:1;"><g transform="translate(23.933571, 89.682548)"><path style="stroke:none" d="M 21.660156 -25.023438 L 21.660156 -6.480469 C 21.660156 -4.832031 21.363281 -3.425781 20.773438 -2.265625 C 20.148438 -1.03125 19.210938 -0.0976562 17.964844 0.535156 L 17.328125 -0.71875 L 18.601562 -1.3125 L 20.402344 2.558594 L 19.128906 3.148438 L 20.386719 2.519531 C 20.5625 2.875 20.636719 3.226562 20.609375 3.585938 C 20.574219 4.027344 20.398438 4.410156 20.078125 4.730469 C 19.652344 5.15625 19.125 5.367188 18.496094 5.367188 L 13.816406 5.367188 C 13.179688 5.367188 12.671875 5.148438 12.285156 4.707031 C 12.101562 4.496094 11.9375 4.246094 11.792969 3.960938 L 11.78125 3.9375 L 10.242188 0.585938 L 11.519531 0 L 11.519531 1.40625 L 8.730469 1.40625 C 6.242188 1.40625 4.304688 0.714844 2.921875 -0.671875 C 1.535156 -2.054688 0.84375 -3.992188 0.84375 -6.480469 L 0.84375 -25.023438 C 0.84375 -27.546875 1.539062 -29.492188 2.925781 -30.863281 C 4.3125 -32.226562 6.246094 -32.910156 8.730469 -32.910156 L 13.773438 -32.910156 C 16.289062 -32.910156 18.234375 -32.226562 19.605469 -30.855469 C 20.972656 -29.484375 21.660156 -27.542969 21.660156 -25.023438 Z M 18.847656 -25.023438 C 18.847656 -26.765625 18.433594 -28.046875 17.613281 -28.867188 C 16.792969 -29.6875 15.511719 -30.097656 13.773438 -30.097656 L 8.730469 -30.097656 C 7.015625 -30.097656 5.738281 -29.683594 4.902344 -28.859375 C 4.070312 -28.039062 3.65625 -26.761719 3.65625 -25.023438 L 3.65625 -6.480469 C 3.65625 -4.769531 4.074219 -3.496094 4.910156 -2.660156 C 5.746094 -1.824219 7.019531 -1.40625 8.730469 -1.40625 L 12.421875 -1.40625 L 14.328125 2.742188 L 13.050781 3.332031 L 14.308594 2.703125 C 14.34375 2.773438 14.375 2.824219 14.402344 2.855469 C 14.226562 2.652344 14.03125 2.554688 13.816406 2.554688 L 18.496094 2.554688 C 18.347656 2.554688 18.210938 2.617188 18.085938 2.742188 C 17.917969 2.910156 17.824219 3.121094 17.804688 3.367188 C 17.792969 3.53125 17.8125 3.667969 17.867188 3.78125 L 17.859375 3.761719 L 15.476562 -1.359375 L 16.691406 -1.972656 C 17.390625 -2.332031 17.917969 -2.851562 18.265625 -3.539062 C 18.652344 -4.300781 18.847656 -5.28125 18.847656 -6.480469 Z M 9.507812 -23.898438 L 9.507812 -7.605469 C 9.507812 -7.457031 9.519531 -7.34375 9.546875 -7.261719 C 9.550781 -7.25 9.558594 -7.238281 9.558594 -7.234375 C 9.558594 -7.238281 9.550781 -7.242188 9.546875 -7.25 C 9.539062 -7.257812 9.53125 -7.261719 9.527344 -7.265625 C 9.535156 -7.261719 9.542969 -7.257812 9.558594 -7.253906 C 9.640625 -7.226562 9.753906 -7.210938 9.902344 -7.210938 L 12.78125 -7.210938 C 12.929688 -7.210938 13.042969 -7.226562 13.125 -7.253906 C 13.140625 -7.257812 13.148438 -7.261719 13.15625 -7.265625 C 13.148438 -7.261719 13.144531 -7.257812 13.136719 -7.25 C 13.128906 -7.242188 13.125 -7.238281 13.121094 -7.234375 C 13.125 -7.238281 13.128906 -7.25 13.132812 -7.261719 C 13.160156 -7.34375 13.175781 -7.457031 13.175781 -7.605469 L 13.175781 -23.898438 C 13.175781 -24.046875 13.160156 -24.160156 13.132812 -24.242188 C 13.128906 -24.253906 13.125 -24.265625 13.121094 -24.269531 C 13.125 -24.265625 13.128906 -24.261719 13.136719 -24.253906 C 13.144531 -24.246094 13.148438 -24.242188 13.15625 -24.238281 C 13.148438 -24.242188 13.140625 -24.246094 13.125 -24.25 C 13.042969 -24.277344 12.929688 -24.292969 12.78125 -24.292969 L 9.902344 -24.292969 C 9.753906 -24.292969 9.640625 -24.277344 9.558594 -24.25 C 9.542969 -24.246094 9.535156 -24.242188 9.527344 -24.238281 C 9.53125 -24.242188 9.539062 -24.246094 9.546875 -24.253906 C 9.550781 -24.261719 9.558594 -24.265625 9.558594 -24.269531 C 9.558594 -24.265625 9.550781 -24.253906 9.546875 -24.242188 C 9.519531 -24.160156 9.507812 -24.046875 9.507812 -23.898438 Z M 6.695312 -23.898438 C 6.695312 -24.886719 6.980469 -25.667969 7.554688 -26.242188 C 8.132812 -26.816406 8.914062 -27.105469 9.902344 -27.105469 L 12.78125 -27.105469 C 13.769531 -27.105469 14.550781 -26.816406 15.125 -26.242188 C 15.699219 -25.667969 15.988281 -24.886719 15.988281 -23.898438 L 15.988281 -7.605469 C 15.988281 -6.617188 15.699219 -5.835938 15.125 -5.261719 C 14.550781 -4.6875 13.769531 -4.398438 12.78125 -4.398438 L 9.902344 -4.398438 C 8.914062 -4.398438 8.132812 -4.6875 7.554688 -5.261719 C 6.980469 -5.835938 6.695312 -6.617188 6.695312 -7.605469 Z M 6.695312 -23.898438 "/></g></g><g style="fill:#b21a22;fill-opacity:1;"><g transform="translate(46.42893, 89.682548)"><path style="stroke:none" d="M 21.660156 -30.785156 L 21.660156 -26.28125 C 21.660156 -25.65625 21.460938 -25.144531 21.066406 -24.75 C 20.671875 -24.355469 20.160156 -24.15625 19.53125 -24.15625 L 8.371094 -24.15625 L 8.371094 -25.5625 L 9.777344 -25.5625 L 9.777344 -17.867188 L 8.371094 -17.867188 L 8.371094 -19.273438 L 16.832031 -19.273438 C 17.460938 -19.273438 17.972656 -19.074219 18.367188 -18.679688 C 18.761719 -18.285156 18.957031 -17.773438 18.957031 -17.148438 L 18.957031 -12.644531 C 18.957031 -12.019531 18.761719 -11.507812 18.367188 -11.113281 C 17.972656 -10.71875 17.460938 -10.519531 16.832031 -10.519531 L 8.371094 -10.519531 L 8.371094 -11.925781 L 9.777344 -11.925781 L 9.777344 -0.71875 C 9.777344 -0.0898438 9.582031 0.417969 9.183594 0.816406 C 8.789062 1.210938 8.277344 1.40625 7.652344 1.40625 L 2.96875 1.40625 C 2.34375 1.40625 1.832031 1.210938 1.4375 0.816406 C 1.042969 0.417969 0.84375 -0.0898438 0.84375 -0.71875 L 0.84375 -30.785156 C 0.84375 -31.410156 1.042969 -31.921875 1.4375 -32.316406 C 1.832031 -32.710938 2.34375 -32.910156 2.96875 -32.910156 L 19.53125 -32.910156 C 20.160156 -32.910156 20.671875 -32.710938 21.066406 -32.316406 C 21.460938 -31.921875 21.660156 -31.410156 21.660156 -30.785156 Z M 18.847656 -30.785156 C 18.847656 -30.75 18.855469 -30.707031 18.871094 -30.652344 C 18.914062 -30.535156 18.980469 -30.425781 19.078125 -30.328125 C 19.175781 -30.230469 19.28125 -30.164062 19.402344 -30.125 C 19.457031 -30.105469 19.5 -30.097656 19.53125 -30.097656 L 2.96875 -30.097656 C 3.003906 -30.097656 3.046875 -30.105469 3.101562 -30.125 C 3.21875 -30.164062 3.328125 -30.230469 3.425781 -30.328125 C 3.519531 -30.425781 3.589844 -30.535156 3.628906 -30.652344 C 3.648438 -30.707031 3.65625 -30.75 3.65625 -30.785156 L 3.65625 -0.71875 C 3.65625 -0.753906 3.648438 -0.796875 3.628906 -0.851562 C 3.589844 -0.96875 3.519531 -1.078125 3.425781 -1.175781 C 3.328125 -1.269531 3.21875 -1.339844 3.101562 -1.378906 C 3.046875 -1.398438 3.003906 -1.40625 2.96875 -1.40625 L 7.652344 -1.40625 C 7.617188 -1.40625 7.574219 -1.398438 7.519531 -1.378906 C 7.402344 -1.339844 7.292969 -1.269531 7.195312 -1.175781 C 7.101562 -1.078125 7.03125 -0.96875 6.992188 -0.851562 C 6.972656 -0.796875 6.964844 -0.753906 6.964844 -0.71875 L 6.964844 -13.332031 L 16.832031 -13.332031 C 16.800781 -13.332031 16.757812 -13.324219 16.703125 -13.304688 C 16.582031 -13.265625 16.472656 -13.199219 16.378906 -13.101562 C 16.28125 -13.003906 16.210938 -12.894531 16.171875 -12.777344 C 16.15625 -12.722656 16.144531 -12.679688 16.144531 -12.644531 L 16.144531 -17.148438 C 16.144531 -17.113281 16.15625 -17.070312 16.171875 -17.015625 C 16.210938 -16.898438 16.28125 -16.789062 16.378906 -16.691406 C 16.472656 -16.597656 16.582031 -16.527344 16.703125 -16.488281 C 16.757812 -16.46875 16.800781 -16.460938 16.832031 -16.460938 L 6.964844 -16.460938 L 6.964844 -26.96875 L 19.53125 -26.96875 C 19.5 -26.96875 19.457031 -26.960938 19.402344 -26.941406 C 19.28125 -26.902344 19.175781 -26.832031 19.078125 -26.738281 C 18.980469 -26.640625 18.914062 -26.53125 18.871094 -26.414062 C 18.855469 -26.359375 18.847656 -26.316406 18.847656 -26.28125 Z M 18.847656 -30.785156 "/></g></g><g style="fill:#b21a22;fill-opacity:1;"><g transform="translate(68.924288, 89.682548)"><path style="stroke:none" d="M 2.96875 -1.40625 L 7.652344 -1.40625 C 7.617188 -1.40625 7.574219 -1.398438 7.519531 -1.378906 C 7.402344 -1.339844 7.292969 -1.269531 7.195312 -1.175781 C 7.101562 -1.078125 7.03125 -0.96875 6.992188 -0.851562 C 6.972656 -0.796875 6.964844 -0.753906 6.964844 -0.71875 L 6.964844 -30.785156 C 6.964844 -30.75 6.972656 -30.707031 6.992188 -30.652344 C 7.03125 -30.535156 7.101562 -30.425781 7.195312 -30.328125 C 7.292969 -30.230469 7.402344 -30.164062 7.519531 -30.125 C 7.574219 -30.105469 7.617188 -30.097656 7.652344 -30.097656 L 2.96875 -30.097656 C 3.003906 -30.097656 3.046875 -30.105469 3.101562 -30.125 C 3.21875 -30.164062 3.328125 -30.230469 3.425781 -30.328125 C 3.519531 -30.425781 3.589844 -30.535156 3.628906 -30.652344 C 3.648438 -30.707031 3.65625 -30.75 3.65625 -30.785156 L 3.65625 -0.71875 C 3.65625 -0.753906 3.648438 -0.796875 3.628906 -0.851562 C 3.589844 -0.96875 3.519531 -1.078125 3.425781 -1.175781 C 3.328125 -1.269531 3.21875 -1.339844 3.101562 -1.378906 C 3.046875 -1.398438 3.003906 -1.40625 2.96875 -1.40625 Z M 2.96875 1.40625 C 2.34375 1.40625 1.832031 1.210938 1.4375 0.816406 C 1.042969 0.417969 0.84375 -0.0898438 0.84375 -0.71875 L 0.84375 -30.785156 C 0.84375 -31.410156 1.042969 -31.921875 1.4375 -32.316406 C 1.832031 -32.710938 2.34375 -32.910156 2.96875 -32.910156 L 7.652344 -32.910156 C 8.277344 -32.910156 8.789062 -32.710938 9.183594 -32.316406 C 9.582031 -31.921875 9.777344 -31.410156 9.777344 -30.785156 L 9.777344 -0.71875 C 9.777344 -0.0898438 9.582031 0.417969 9.183594 0.816406 C 8.789062 1.210938 8.277344 1.40625 7.652344 1.40625 Z M 2.96875 1.40625 "/></g></g><g style="fill:#b21a22;fill-opacity:1;"><g transform="translate(79.542091, 89.682548)"><path style="stroke:none" d="M 6.964844 -5.941406 L 6.964844 -30.785156 C 6.964844 -30.75 6.972656 -30.707031 6.992188 -30.652344 C 7.03125 -30.535156 7.101562 -30.425781 7.195312 -30.328125 C 7.292969 -30.230469 7.402344 -30.164062 7.519531 -30.125 C 7.574219 -30.105469 7.617188 -30.097656 7.652344 -30.097656 L 2.96875 -30.097656 C 3.003906 -30.097656 3.046875 -30.105469 3.101562 -30.125 C 3.21875 -30.164062 3.328125 -30.230469 3.425781 -30.328125 C 3.519531 -30.425781 3.589844 -30.535156 3.628906 -30.652344 C 3.648438 -30.707031 3.65625 -30.75 3.65625 -30.785156 L 3.65625 -0.71875 C 3.65625 -0.753906 3.648438 -0.796875 3.628906 -0.851562 C 3.589844 -0.96875 3.519531 -1.078125 3.425781 -1.175781 C 3.328125 -1.269531 3.21875 -1.339844 3.101562 -1.378906 C 3.046875 -1.398438 3.003906 -1.40625 2.96875 -1.40625 L 17.28125 -1.40625 C 17.25 -1.40625 17.207031 -1.398438 17.152344 -1.378906 C 17.03125 -1.339844 16.925781 -1.269531 16.828125 -1.175781 C 16.730469 -1.078125 16.664062 -0.96875 16.621094 -0.851562 C 16.605469 -0.796875 16.59375 -0.753906 16.59375 -0.71875 L 16.59375 -5.21875 C 16.59375 -5.1875 16.605469 -5.144531 16.621094 -5.089844 C 16.664062 -4.972656 16.730469 -4.863281 16.828125 -4.765625 C 16.925781 -4.667969 17.03125 -4.601562 17.152344 -4.5625 C 17.207031 -4.542969 17.25 -4.535156 17.28125 -4.535156 L 6.964844 -4.535156 Z M 9.777344 -5.941406 L 8.371094 -5.941406 L 8.371094 -7.347656 L 17.28125 -7.347656 C 17.910156 -7.347656 18.421875 -7.148438 18.816406 -6.753906 C 19.210938 -6.359375 19.410156 -5.847656 19.410156 -5.21875 L 19.410156 -0.71875 C 19.410156 -0.0898438 19.210938 0.417969 18.816406 0.816406 C 18.421875 1.210938 17.910156 1.40625 17.28125 1.40625 L 2.96875 1.40625 C 2.34375 1.40625 1.832031 1.210938 1.4375 0.816406 C 1.042969 0.417969 0.84375 -0.0898438 0.84375 -0.71875 L 0.84375 -30.785156 C 0.84375 -31.410156 1.042969 -31.921875 1.4375 -32.316406 C 1.832031 -32.710938 2.34375 -32.910156 2.96875 -32.910156 L 7.652344 -32.910156 C 8.277344 -32.910156 8.789062 -32.710938 9.183594 -32.316406 C 9.582031 -31.921875 9.777344 -31.410156 9.777344 -30.785156 Z M 9.777344 -5.941406 "/></g></g><g style="fill:#b21a22;fill-opacity:1;"><g transform="translate(99.787912, 89.682548)"><path style="stroke:none" d="M 6.964844 -5.941406 L 6.964844 -30.785156 C 6.964844 -30.75 6.972656 -30.707031 6.992188 -30.652344 C 7.03125 -30.535156 7.101562 -30.425781 7.195312 -30.328125 C 7.292969 -30.230469 7.402344 -30.164062 7.519531 -30.125 C 7.574219 -30.105469 7.617188 -30.097656 7.652344 -30.097656 L 2.96875 -30.097656 C 3.003906 -30.097656 3.046875 -30.105469 3.101562 -30.125 C 3.21875 -30.164062 3.328125 -30.230469 3.425781 -30.328125 C 3.519531 -30.425781 3.589844 -30.535156 3.628906 -30.652344 C 3.648438 -30.707031 3.65625 -30.75 3.65625 -30.785156 L 3.65625 -0.71875 C 3.65625 -0.753906 3.648438 -0.796875 3.628906 -0.851562 C 3.589844 -0.96875 3.519531 -1.078125 3.425781 -1.175781 C 3.328125 -1.269531 3.21875 -1.339844 3.101562 -1.378906 C 3.046875 -1.398438 3.003906 -1.40625 2.96875 -1.40625 L 17.28125 -1.40625 C 17.25 -1.40625 17.207031 -1.398438 17.152344 -1.378906 C 17.03125 -1.339844 16.925781 -1.269531 16.828125 -1.175781 C 16.730469 -1.078125 16.664062 -0.96875 16.621094 -0.851562 C 16.605469 -0.796875 16.59375 -0.753906 16.59375 -0.71875 L 16.59375 -5.21875 C 16.59375 -5.1875 16.605469 -5.144531 16.621094 -5.089844 C 16.664062 -4.972656 16.730469 -4.863281 16.828125 -4.765625 C 16.925781 -4.667969 17.03125 -4.601562 17.152344 -4.5625 C 17.207031 -4.542969 17.25 -4.535156 17.28125 -4.535156 L 6.964844 -4.535156 Z M 9.777344 -5.941406 L 8.371094 -5.941406 L 8.371094 -7.347656 L 17.28125 -7.347656 C 17.910156 -7.347656 18.421875 -7.148438 18.816406 -6.753906 C 19.210938 -6.359375 19.410156 -5.847656 19.410156 -5.21875 L 19.410156 -0.71875 C 19.410156 -0.0898438 19.210938 0.417969 18.816406 0.816406 C 18.421875 1.210938 17.910156 1.40625 17.28125 1.40625 L 2.96875 1.40625 C 2.34375 1.40625 1.832031 1.210938 1.4375 0.816406 C 1.042969 0.417969 0.84375 -0.0898438 0.84375 -0.71875 L 0.84375 -30.785156 C 0.84375 -31.410156 1.042969 -31.921875 1.4375 -32.316406 C 1.832031 -32.710938 2.34375 -32.910156 2.96875 -32.910156 L 7.652344 -32.910156 C 8.277344 -32.910156 8.789062 -32.710938 9.183594 -32.316406 C 9.582031 -31.921875 9.777344 -31.410156 9.777344 -30.785156 Z M 9.777344 -5.941406 "/></g></g><g style="fill:#060705;fill-opacity:1;"><g transform="translate(23.933571, 89.682548)"><path style="stroke:none" d="M 20.25 -25.015625 L 20.25 -6.484375 C 20.25 -3.628906 19.273438 -1.707031 17.328125 -0.71875 L 19.125 3.15625 C 19.25 3.394531 19.234375 3.585938 19.078125 3.734375 C 18.929688 3.878906 18.738281 3.953125 18.5 3.953125 L 13.8125 3.953125 C 13.601562 3.953125 13.445312 3.890625 13.34375 3.765625 C 13.238281 3.648438 13.140625 3.503906 13.046875 3.328125 L 11.515625 0 L 8.734375 0 C 6.628906 0 5.019531 -0.550781 3.90625 -1.65625 C 2.800781 -2.769531 2.25 -4.378906 2.25 -6.484375 L 2.25 -25.015625 C 2.25 -27.148438 2.800781 -28.765625 3.90625 -29.859375 C 5.019531 -30.953125 6.628906 -31.5 8.734375 -31.5 L 13.765625 -31.5 C 15.898438 -31.5 17.515625 -30.953125 18.609375 -29.859375 C 19.703125 -28.765625 20.25 -27.148438 20.25 -25.015625 Z M 8.09375 -23.890625 L 8.09375 -7.609375 C 8.09375 -6.410156 8.695312 -5.8125 9.90625 -5.8125 L 12.78125 -5.8125 C 13.976562 -5.8125 14.578125 -6.410156 14.578125 -7.609375 L 14.578125 -23.890625 C 14.578125 -25.085938 13.976562 -25.6875 12.78125 -25.6875 L 9.90625 -25.6875 C 8.695312 -25.6875 8.09375 -25.085938 8.09375 -23.890625 Z M 8.09375 -23.890625 "/></g></g><g style="fill:#060705;fill-opacity:1;"><g transform="translate(46.42893, 89.682548)"><path style="stroke:none" d="M 20.25 -30.78125 L 20.25 -26.28125 C 20.25 -25.800781 20.007812 -25.5625 19.53125 -25.5625 L 8.375 -25.5625 L 8.375 -17.859375 L 16.828125 -17.859375 C 17.304688 -17.859375 17.546875 -17.617188 17.546875 -17.140625 L 17.546875 -12.640625 C 17.546875 -12.160156 17.304688 -11.921875 16.828125 -11.921875 L 8.375 -11.921875 L 8.375 -0.71875 C 8.375 -0.238281 8.132812 0 7.65625 0 L 2.96875 0 C 2.488281 0 2.25 -0.238281 2.25 -0.71875 L 2.25 -30.78125 C 2.25 -31.257812 2.488281 -31.5 2.96875 -31.5 L 19.53125 -31.5 C 20.007812 -31.5 20.25 -31.257812 20.25 -30.78125 Z M 20.25 -30.78125 "/></g></g><g style="fill:#060705;fill-opacity:1;"><g transform="translate(68.924288, 89.682548)"><path style="stroke:none" d="M 2.96875 0 L 7.65625 0 C 8.132812 0 8.375 -0.238281 8.375 -0.71875 L 8.375 -30.78125 C 8.375 -31.257812 8.132812 -31.5 7.65625 -31.5 L 2.96875 -31.5 C 2.488281 -31.5 2.25 -31.257812 2.25 -30.78125 L 2.25 -0.71875 C 2.25 -0.238281 2.488281 0 2.96875 0 Z M 2.96875 0 "/></g></g><g style="fill:#060705;fill-opacity:1;"><g transform="translate(79.542091, 89.682548)"><path style="stroke:none" d="M 8.375 -5.9375 L 8.375 -30.78125 C 8.375 -31.257812 8.132812 -31.5 7.65625 -31.5 L 2.96875 -31.5 C 2.488281 -31.5 2.25 -31.257812 2.25 -30.78125 L 2.25 -0.71875 C 2.25 -0.238281 2.488281 0 2.96875 0 L 17.28125 0 C 17.757812 0 18 -0.238281 18 -0.71875 L 18 -5.21875 C 18 -5.695312 17.757812 -5.9375 17.28125 -5.9375 Z M 8.375 -5.9375 "/></g></g><g style="fill:#060705;fill-opacity:1;"><g transform="translate(99.787912, 89.682548)"><path style="stroke:none" d="M 8.375 -5.9375 L 8.375 -30.78125 C 8.375 -31.257812 8.132812 -31.5 7.65625 -31.5 L 2.96875 -31.5 C 2.488281 -31.5 2.25 -31.257812 2.25 -30.78125 L 2.25 -0.71875 C 2.25 -0.238281 2.488281 0 2.96875 0 L 17.28125 0 C 17.757812 0 18 -0.238281 18 -0.71875 L 18 -5.21875 C 18 -5.695312 17.757812 -5.9375 17.28125 -5.9375 Z M 8.375 -5.9375 "/></g></g></g></svg>