<svg xmlns="http://www.w3.org/2000/svg" xmlns:xlink="http://www.w3.org/1999/xlink" width="500" zoomAndPan="magnify" viewBox="0 0 375 374.999991" height="500" preserveAspectRatio="xMidYMid meet" version="1.2"><defs><clipPath id="896394669f"><path d="M 25 0 L 350 0 L 350 375 L 25 375 Z M 25 0 "/></clipPath><clipPath id="0c066bb229"><path d="M -55.878906 142.882812 L 268.328125 -46.476562 L 431 232.042969 L 106.789062 421.402344 Z M -55.878906 142.882812 "/></clipPath><clipPath id="89f8e0810f"><path d="M 349.546875 92.851562 L 349.859375 279.433594 L 187.8125 374.078125 L 25.453125 282.140625 L 25.140625 95.5625 L 187.1875 0.917969 Z M 349.546875 92.851562 "/></clipPath><clipPath id="272de85eec"><path d="M 55.238281 35.632812 L 319.726562 35.632812 L 319.726562 339 L 55.238281 339 Z M 55.238281 35.632812 "/></clipPath></defs><g id="fc8fa04706"><g clip-rule="nonzero" clip-path="url(#896394669f)"><g clip-rule="nonzero" clip-path="url(#0c066bb229)"><g clip-rule="nonzero" clip-path="url(#89f8e0810f)"><path style=" stroke:none;fill-rule:nonzero;fill:#65b30e;fill-opacity:1;" d="M -55.878906 142.882812 L 268.332031 -46.476562 L 431 232.042969 L 106.789062 421.402344 Z M -55.878906 142.882812 "/></g></g></g><path style=" stroke:none;fill-rule:nonzero;fill:#87ff00;fill-opacity:1;" d="M 134.582031 135.703125 L 134.414062 135.535156 L 97.035156 172.914062 L 187.792969 263.503906 L 225.175781 226.296875 L 278.546875 172.914062 L 241.167969 135.535156 L 241.167969 135.363281 L 134.417969 135.363281 Z M 134.582031 135.703125 "/><g clip-rule="nonzero" clip-path="url(#272de85eec)"><path style=" stroke:none;fill-rule:nonzero;fill:#87ff00;fill-opacity:1;" d="M 187.453125 35.851562 L 55.269531 111.625 L 55.273438 263.175781 L 187.457031 338.949219 L 319.640625 263.175781 L 319.640625 111.625 L 187.457031 35.855469 Z M 294.375 248.683594 L 187.453125 310.308594 L 80.527344 248.683594 L 80.53125 125.765625 L 187.457031 64.136719 L 294.378906 125.765625 L 294.378906 248.683594 Z M 294.375 248.683594 "/></g><g style="fill:#b21a22;fill-opacity:1;"><g transform="translate(62.327007, 233.548269)"><path style="stroke:none" d="M 56.402344 -65.164062 L 56.402344 -16.875 C 56.402344 -12.582031 55.636719 -8.921875 54.101562 -5.902344 C 52.472656 -2.691406 50.03125 -0.257812 46.78125 1.390625 L 45.121094 -1.875 L 48.441406 -3.417969 L 53.132812 6.660156 L 49.808594 8.203125 L 53.085938 6.566406 C 53.546875 7.484375 53.738281 8.40625 53.667969 9.335938 C 53.578125 10.488281 53.117188 11.484375 52.28125 12.316406 C 51.175781 13.421875 49.804688 13.976562 48.167969 13.976562 L 35.980469 13.976562 C 34.324219 13.976562 32.996094 13.402344 31.992188 12.257812 C 31.511719 11.707031 31.085938 11.058594 30.710938 10.3125 L 30.683594 10.257812 L 26.675781 1.527344 L 30.003906 0 L 30.003906 3.664062 L 22.738281 3.664062 C 16.257812 3.664062 11.210938 1.859375 7.605469 -1.746094 C 4 -5.351562 2.195312 -10.394531 2.195312 -16.875 L 2.195312 -65.164062 C 2.195312 -71.730469 4.007812 -76.800781 7.625 -80.371094 C 11.226562 -83.925781 16.265625 -85.703125 22.738281 -85.703125 L 35.863281 -85.703125 C 42.421875 -85.703125 47.484375 -83.917969 51.050781 -80.351562 C 54.621094 -76.785156 56.402344 -71.722656 56.402344 -65.164062 Z M 49.078125 -65.164062 C 49.078125 -69.699219 48.007812 -73.035156 45.871094 -75.171875 C 43.734375 -77.308594 40.398438 -78.378906 35.863281 -78.378906 L 22.738281 -78.378906 C 18.269531 -78.378906 14.945312 -77.304688 12.769531 -75.15625 C 10.605469 -73.019531 9.523438 -69.691406 9.523438 -65.164062 L 9.523438 -16.875 C 9.523438 -12.417969 10.609375 -9.101562 12.785156 -6.925781 C 14.960938 -4.75 18.277344 -3.664062 22.738281 -3.664062 L 32.351562 -3.664062 L 37.316406 7.144531 L 33.988281 8.671875 L 37.265625 7.035156 C 37.359375 7.222656 37.4375 7.355469 37.507812 7.433594 C 37.050781 6.910156 36.542969 6.652344 35.980469 6.652344 L 48.167969 6.652344 C 47.78125 6.652344 47.425781 6.8125 47.101562 7.136719 C 46.660156 7.582031 46.414062 8.125 46.363281 8.773438 C 46.332031 9.191406 46.386719 9.550781 46.535156 9.84375 L 46.511719 9.796875 L 40.308594 -3.539062 L 43.464844 -5.140625 C 45.292969 -6.070312 46.660156 -7.429688 47.570312 -9.21875 C 48.574219 -11.195312 49.078125 -13.75 49.078125 -16.875 Z M 24.757812 -62.234375 L 24.757812 -19.808594 C 24.757812 -19.421875 24.792969 -19.125 24.863281 -18.914062 C 24.875 -18.875 24.886719 -18.847656 24.894531 -18.835938 C 24.886719 -18.847656 24.875 -18.863281 24.859375 -18.878906 C 24.839844 -18.898438 24.824219 -18.910156 24.8125 -18.917969 C 24.824219 -18.910156 24.851562 -18.898438 24.890625 -18.886719 C 25.101562 -18.816406 25.398438 -18.78125 25.785156 -18.78125 L 33.285156 -18.78125 C 33.671875 -18.78125 33.96875 -18.816406 34.175781 -18.886719 C 34.214844 -18.898438 34.242188 -18.910156 34.257812 -18.917969 C 34.242188 -18.910156 34.226562 -18.898438 34.210938 -18.878906 C 34.195312 -18.863281 34.179688 -18.847656 34.171875 -18.835938 C 34.179688 -18.847656 34.191406 -18.875 34.207031 -18.914062 C 34.273438 -19.125 34.308594 -19.421875 34.308594 -19.808594 L 34.308594 -62.234375 C 34.308594 -62.617188 34.273438 -62.917969 34.207031 -63.125 C 34.191406 -63.164062 34.179688 -63.191406 34.171875 -63.207031 C 34.179688 -63.191406 34.195312 -63.175781 34.210938 -63.160156 C 34.226562 -63.140625 34.242188 -63.128906 34.257812 -63.121094 C 34.242188 -63.128906 34.214844 -63.140625 34.175781 -63.152344 C 33.96875 -63.222656 33.671875 -63.257812 33.285156 -63.257812 L 25.785156 -63.257812 C 25.398438 -63.257812 25.101562 -63.222656 24.890625 -63.152344 C 24.851562 -63.140625 24.824219 -63.128906 24.8125 -63.121094 C 24.824219 -63.128906 24.839844 -63.140625 24.859375 -63.160156 C 24.875 -63.175781 24.886719 -63.191406 24.894531 -63.207031 C 24.886719 -63.191406 24.875 -63.164062 24.863281 -63.125 C 24.792969 -62.917969 24.757812 -62.617188 24.757812 -62.234375 Z M 17.433594 -62.234375 C 17.433594 -64.808594 18.179688 -66.84375 19.679688 -68.339844 C 21.175781 -69.835938 23.210938 -70.585938 25.785156 -70.585938 L 33.285156 -70.585938 C 35.859375 -70.585938 37.894531 -69.835938 39.390625 -68.339844 C 40.886719 -66.84375 41.636719 -64.808594 41.636719 -62.234375 L 41.636719 -19.808594 C 41.636719 -17.234375 40.886719 -15.199219 39.390625 -13.699219 C 37.894531 -12.203125 35.859375 -11.457031 33.285156 -11.457031 L 25.785156 -11.457031 C 23.210938 -11.457031 21.175781 -12.203125 19.679688 -13.699219 C 18.179688 -15.199219 17.433594 -17.234375 17.433594 -19.808594 Z M 17.433594 -62.234375 "/></g></g><g style="fill:#b21a22;fill-opacity:1;"><g transform="translate(120.908669, 233.548269)"><path style="stroke:none" d="M 56.402344 -80.164062 L 56.402344 -68.445312 C 56.402344 -66.808594 55.890625 -65.476562 54.863281 -64.449219 C 53.832031 -63.421875 52.5 -62.90625 50.863281 -62.90625 L 21.800781 -62.90625 L 21.800781 -66.570312 L 25.460938 -66.570312 L 25.460938 -46.527344 L 21.800781 -46.527344 L 21.800781 -50.191406 L 43.832031 -50.191406 C 45.46875 -50.191406 46.800781 -49.675781 47.828125 -48.648438 C 48.855469 -47.621094 49.371094 -46.289062 49.371094 -44.652344 L 49.371094 -32.933594 C 49.371094 -31.296875 48.855469 -29.964844 47.828125 -28.9375 C 46.800781 -27.910156 45.46875 -27.394531 43.832031 -27.394531 L 21.800781 -27.394531 L 21.800781 -31.058594 L 25.460938 -31.058594 L 25.460938 -1.875 C 25.460938 -0.238281 24.949219 1.09375 23.921875 2.121094 C 22.894531 3.148438 21.5625 3.664062 19.925781 3.664062 L 7.734375 3.664062 C 6.097656 3.664062 4.765625 3.148438 3.738281 2.121094 C 2.710938 1.09375 2.195312 -0.238281 2.195312 -1.875 L 2.195312 -80.164062 C 2.195312 -81.800781 2.710938 -83.132812 3.738281 -84.160156 C 4.765625 -85.1875 6.097656 -85.703125 7.734375 -85.703125 L 50.863281 -85.703125 C 52.5 -85.703125 53.832031 -85.1875 54.863281 -84.160156 C 55.890625 -83.132812 56.402344 -81.800781 56.402344 -80.164062 Z M 49.078125 -80.164062 C 49.078125 -80.082031 49.101562 -79.96875 49.148438 -79.828125 C 49.253906 -79.515625 49.429688 -79.234375 49.679688 -78.980469 C 49.933594 -78.730469 50.214844 -78.550781 50.527344 -78.449219 C 50.667969 -78.402344 50.78125 -78.378906 50.863281 -78.378906 L 7.734375 -78.378906 C 7.820312 -78.378906 7.929688 -78.402344 8.074219 -78.449219 C 8.386719 -78.550781 8.667969 -78.730469 8.917969 -78.980469 C 9.171875 -79.234375 9.347656 -79.515625 9.453125 -79.828125 C 9.5 -79.96875 9.523438 -80.082031 9.523438 -80.164062 L 9.523438 -1.875 C 9.523438 -1.957031 9.5 -2.070312 9.453125 -2.214844 C 9.347656 -2.527344 9.171875 -2.808594 8.917969 -3.058594 C 8.667969 -3.308594 8.386719 -3.488281 8.074219 -3.59375 C 7.929688 -3.640625 7.820312 -3.664062 7.734375 -3.664062 L 19.925781 -3.664062 C 19.839844 -3.664062 19.726562 -3.640625 19.585938 -3.59375 C 19.273438 -3.488281 18.992188 -3.308594 18.742188 -3.058594 C 18.488281 -2.808594 18.3125 -2.527344 18.207031 -2.214844 C 18.160156 -2.070312 18.136719 -1.957031 18.136719 -1.875 L 18.136719 -34.722656 L 43.832031 -34.722656 C 43.75 -34.722656 43.636719 -34.699219 43.496094 -34.648438 C 43.183594 -34.546875 42.902344 -34.367188 42.648438 -34.117188 C 42.398438 -33.867188 42.21875 -33.582031 42.117188 -33.269531 C 42.070312 -33.128906 42.046875 -33.015625 42.046875 -32.933594 L 42.046875 -44.652344 C 42.046875 -44.570312 42.070312 -44.457031 42.117188 -44.316406 C 42.21875 -44.003906 42.398438 -43.722656 42.648438 -43.46875 C 42.902344 -43.21875 43.183594 -43.039062 43.496094 -42.9375 C 43.636719 -42.890625 43.75 -42.867188 43.832031 -42.867188 L 18.136719 -42.867188 L 18.136719 -70.234375 L 50.863281 -70.234375 C 50.78125 -70.234375 50.667969 -70.210938 50.527344 -70.160156 C 50.214844 -70.058594 49.933594 -69.878906 49.679688 -69.628906 C 49.429688 -69.378906 49.253906 -69.09375 49.148438 -68.78125 C 49.101562 -68.640625 49.078125 -68.527344 49.078125 -68.445312 Z M 49.078125 -80.164062 "/></g></g><g style="fill:#b21a22;fill-opacity:1;"><g transform="translate(179.490331, 233.548269)"><path style="stroke:none" d="M 7.734375 -3.664062 L 19.925781 -3.664062 C 19.839844 -3.664062 19.726562 -3.640625 19.585938 -3.59375 C 19.273438 -3.488281 18.992188 -3.308594 18.742188 -3.058594 C 18.488281 -2.808594 18.3125 -2.527344 18.207031 -2.214844 C 18.160156 -2.070312 18.136719 -1.957031 18.136719 -1.875 L 18.136719 -80.164062 C 18.136719 -80.082031 18.160156 -79.96875 18.207031 -79.828125 C 18.3125 -79.515625 18.488281 -79.234375 18.742188 -78.980469 C 18.992188 -78.730469 19.273438 -78.550781 19.585938 -78.449219 C 19.726562 -78.402344 19.839844 -78.378906 19.925781 -78.378906 L 7.734375 -78.378906 C 7.820312 -78.378906 7.929688 -78.402344 8.074219 -78.449219 C 8.386719 -78.550781 8.667969 -78.730469 8.917969 -78.980469 C 9.171875 -79.234375 9.347656 -79.515625 9.453125 -79.828125 C 9.5 -79.96875 9.523438 -80.082031 9.523438 -80.164062 L 9.523438 -1.875 C 9.523438 -1.957031 9.5 -2.070312 9.453125 -2.214844 C 9.347656 -2.527344 9.171875 -2.808594 8.917969 -3.058594 C 8.667969 -3.308594 8.386719 -3.488281 8.074219 -3.59375 C 7.929688 -3.640625 7.820312 -3.664062 7.734375 -3.664062 Z M 7.734375 3.664062 C 6.097656 3.664062 4.765625 3.148438 3.738281 2.121094 C 2.710938 1.09375 2.195312 -0.238281 2.195312 -1.875 L 2.195312 -80.164062 C 2.195312 -81.800781 2.710938 -83.132812 3.738281 -84.160156 C 4.765625 -85.1875 6.097656 -85.703125 7.734375 -85.703125 L 19.925781 -85.703125 C 21.5625 -85.703125 22.894531 -85.1875 23.921875 -84.160156 C 24.949219 -83.132812 25.460938 -81.800781 25.460938 -80.164062 L 25.460938 -1.875 C 25.460938 -0.238281 24.949219 1.09375 23.921875 2.121094 C 22.894531 3.148438 21.5625 3.664062 19.925781 3.664062 Z M 7.734375 3.664062 "/></g></g><g style="fill:#b21a22;fill-opacity:1;"><g transform="translate(207.140857, 233.548269)"><path style="stroke:none" d="M 18.136719 -15.46875 L 18.136719 -80.164062 C 18.136719 -80.082031 18.160156 -79.96875 18.207031 -79.828125 C 18.3125 -79.515625 18.488281 -79.234375 18.742188 -78.980469 C 18.992188 -78.730469 19.273438 -78.550781 19.585938 -78.449219 C 19.726562 -78.402344 19.839844 -78.378906 19.925781 -78.378906 L 7.734375 -78.378906 C 7.820312 -78.378906 7.929688 -78.402344 8.074219 -78.449219 C 8.386719 -78.550781 8.667969 -78.730469 8.917969 -78.980469 C 9.171875 -79.234375 9.347656 -79.515625 9.453125 -79.828125 C 9.5 -79.96875 9.523438 -80.082031 9.523438 -80.164062 L 9.523438 -1.875 C 9.523438 -1.957031 9.5 -2.070312 9.453125 -2.214844 C 9.347656 -2.527344 9.171875 -2.808594 8.917969 -3.058594 C 8.667969 -3.308594 8.386719 -3.488281 8.074219 -3.59375 C 7.929688 -3.640625 7.820312 -3.664062 7.734375 -3.664062 L 45.003906 -3.664062 C 44.921875 -3.664062 44.808594 -3.640625 44.667969 -3.59375 C 44.355469 -3.488281 44.074219 -3.308594 43.820312 -3.058594 C 43.570312 -2.808594 43.390625 -2.527344 43.289062 -2.214844 C 43.242188 -2.070312 43.21875 -1.957031 43.21875 -1.875 L 43.21875 -13.59375 C 43.21875 -13.511719 43.242188 -13.398438 43.289062 -13.257812 C 43.390625 -12.945312 43.570312 -12.664062 43.820312 -12.410156 C 44.074219 -12.160156 44.355469 -11.984375 44.667969 -11.878906 C 44.808594 -11.832031 44.921875 -11.808594 45.003906 -11.808594 L 18.136719 -11.808594 Z M 25.460938 -15.46875 L 21.800781 -15.46875 L 21.800781 -19.132812 L 45.003906 -19.132812 C 46.640625 -19.132812 47.972656 -18.621094 49 -17.589844 C 50.027344 -16.5625 50.542969 -15.230469 50.542969 -13.59375 L 50.542969 -1.875 C 50.542969 -0.238281 50.027344 1.09375 49 2.121094 C 47.972656 3.148438 46.640625 3.664062 45.003906 3.664062 L 7.734375 3.664062 C 6.097656 3.664062 4.765625 3.148438 3.738281 2.121094 C 2.710938 1.09375 2.195312 -0.238281 2.195312 -1.875 L 2.195312 -80.164062 C 2.195312 -81.800781 2.710938 -83.132812 3.738281 -84.160156 C 4.765625 -85.1875 6.097656 -85.703125 7.734375 -85.703125 L 19.925781 -85.703125 C 21.5625 -85.703125 22.894531 -85.1875 23.921875 -84.160156 C 24.949219 -83.132812 25.460938 -81.800781 25.460938 -80.164062 Z M 25.460938 -15.46875 "/></g></g><g style="fill:#b21a22;fill-opacity:1;"><g transform="translate(259.864349, 233.548269)"><path style="stroke:none" d="M 18.136719 -15.46875 L 18.136719 -80.164062 C 18.136719 -80.082031 18.160156 -79.96875 18.207031 -79.828125 C 18.3125 -79.515625 18.488281 -79.234375 18.742188 -78.980469 C 18.992188 -78.730469 19.273438 -78.550781 19.585938 -78.449219 C 19.726562 -78.402344 19.839844 -78.378906 19.925781 -78.378906 L 7.734375 -78.378906 C 7.820312 -78.378906 7.929688 -78.402344 8.074219 -78.449219 C 8.386719 -78.550781 8.667969 -78.730469 8.917969 -78.980469 C 9.171875 -79.234375 9.347656 -79.515625 9.453125 -79.828125 C 9.5 -79.96875 9.523438 -80.082031 9.523438 -80.164062 L 9.523438 -1.875 C 9.523438 -1.957031 9.5 -2.070312 9.453125 -2.214844 C 9.347656 -2.527344 9.171875 -2.808594 8.917969 -3.058594 C 8.667969 -3.308594 8.386719 -3.488281 8.074219 -3.59375 C 7.929688 -3.640625 7.820312 -3.664062 7.734375 -3.664062 L 45.003906 -3.664062 C 44.921875 -3.664062 44.808594 -3.640625 44.667969 -3.59375 C 44.355469 -3.488281 44.074219 -3.308594 43.820312 -3.058594 C 43.570312 -2.808594 43.390625 -2.527344 43.289062 -2.214844 C 43.242188 -2.070312 43.21875 -1.957031 43.21875 -1.875 L 43.21875 -13.59375 C 43.21875 -13.511719 43.242188 -13.398438 43.289062 -13.257812 C 43.390625 -12.945312 43.570312 -12.664062 43.820312 -12.410156 C 44.074219 -12.160156 44.355469 -11.984375 44.667969 -11.878906 C 44.808594 -11.832031 44.921875 -11.808594 45.003906 -11.808594 L 18.136719 -11.808594 Z M 25.460938 -15.46875 L 21.800781 -15.46875 L 21.800781 -19.132812 L 45.003906 -19.132812 C 46.640625 -19.132812 47.972656 -18.621094 49 -17.589844 C 50.027344 -16.5625 50.542969 -15.230469 50.542969 -13.59375 L 50.542969 -1.875 C 50.542969 -0.238281 50.027344 1.09375 49 2.121094 C 47.972656 3.148438 46.640625 3.664062 45.003906 3.664062 L 7.734375 3.664062 C 6.097656 3.664062 4.765625 3.148438 3.738281 2.121094 C 2.710938 1.09375 2.195312 -0.238281 2.195312 -1.875 L 2.195312 -80.164062 C 2.195312 -81.800781 2.710938 -83.132812 3.738281 -84.160156 C 4.765625 -85.1875 6.097656 -85.703125 7.734375 -85.703125 L 19.925781 -85.703125 C 21.5625 -85.703125 22.894531 -85.1875 23.921875 -84.160156 C 24.949219 -83.132812 25.460938 -81.800781 25.460938 -80.164062 Z M 25.460938 -15.46875 "/></g></g><g style="fill:#060705;fill-opacity:1;"><g transform="translate(62.327007, 233.548269)"><path style="stroke:none" d="M 52.734375 -65.171875 L 52.734375 -16.875 C 52.734375 -9.457031 50.195312 -4.457031 45.125 -1.875 L 49.8125 8.203125 C 50.125 8.828125 50.082031 9.332031 49.6875 9.71875 C 49.300781 10.113281 48.796875 10.3125 48.171875 10.3125 L 35.984375 10.3125 C 35.429688 10.3125 35.019531 10.15625 34.75 9.84375 C 34.476562 9.53125 34.222656 9.140625 33.984375 8.671875 L 30 0 L 22.734375 0 C 17.265625 0 13.082031 -1.441406 10.1875 -4.328125 C 7.300781 -7.222656 5.859375 -11.40625 5.859375 -16.875 L 5.859375 -65.171875 C 5.859375 -70.710938 7.300781 -74.910156 10.1875 -77.765625 C 13.082031 -80.617188 17.265625 -82.046875 22.734375 -82.046875 L 35.859375 -82.046875 C 41.410156 -82.046875 45.609375 -80.617188 48.453125 -77.765625 C 51.304688 -74.910156 52.734375 -70.710938 52.734375 -65.171875 Z M 21.09375 -62.234375 L 21.09375 -19.8125 C 21.09375 -16.6875 22.65625 -15.125 25.78125 -15.125 L 33.28125 -15.125 C 36.40625 -15.125 37.96875 -16.6875 37.96875 -19.8125 L 37.96875 -62.234375 C 37.96875 -65.359375 36.40625 -66.921875 33.28125 -66.921875 L 25.78125 -66.921875 C 22.65625 -66.921875 21.09375 -65.359375 21.09375 -62.234375 Z M 21.09375 -62.234375 "/></g></g><g style="fill:#060705;fill-opacity:1;"><g transform="translate(120.908669, 233.548269)"><path style="stroke:none" d="M 52.734375 -80.171875 L 52.734375 -68.453125 C 52.734375 -67.203125 52.109375 -66.578125 50.859375 -66.578125 L 21.796875 -66.578125 L 21.796875 -46.53125 L 43.828125 -46.53125 C 45.078125 -46.53125 45.703125 -45.90625 45.703125 -44.65625 L 45.703125 -32.9375 C 45.703125 -31.6875 45.078125 -31.0625 43.828125 -31.0625 L 21.796875 -31.0625 L 21.796875 -1.875 C 21.796875 -0.625 21.171875 0 19.921875 0 L 7.734375 0 C 6.484375 0 5.859375 -0.625 5.859375 -1.875 L 5.859375 -80.171875 C 5.859375 -81.421875 6.484375 -82.046875 7.734375 -82.046875 L 50.859375 -82.046875 C 52.109375 -82.046875 52.734375 -81.421875 52.734375 -80.171875 Z M 52.734375 -80.171875 "/></g></g><g style="fill:#060705;fill-opacity:1;"><g transform="translate(179.490331, 233.548269)"><path style="stroke:none" d="M 7.734375 0 L 19.921875 0 C 21.171875 0 21.796875 -0.625 21.796875 -1.875 L 21.796875 -80.171875 C 21.796875 -81.421875 21.171875 -82.046875 19.921875 -82.046875 L 7.734375 -82.046875 C 6.484375 -82.046875 5.859375 -81.421875 5.859375 -80.171875 L 5.859375 -1.875 C 5.859375 -0.625 6.484375 0 7.734375 0 Z M 7.734375 0 "/></g></g><g style="fill:#060705;fill-opacity:1;"><g transform="translate(207.140857, 233.548269)"><path style="stroke:none" d="M 21.796875 -15.46875 L 21.796875 -80.171875 C 21.796875 -81.421875 21.171875 -82.046875 19.921875 -82.046875 L 7.734375 -82.046875 C 6.484375 -82.046875 5.859375 -81.421875 5.859375 -80.171875 L 5.859375 -1.875 C 5.859375 -0.625 6.484375 0 7.734375 0 L 45 0 C 46.25 0 46.875 -0.625 46.875 -1.875 L 46.875 -13.59375 C 46.875 -14.84375 46.25 -15.46875 45 -15.46875 Z M 21.796875 -15.46875 "/></g></g><g style="fill:#060705;fill-opacity:1;"><g transform="translate(259.864349, 233.548269)"><path style="stroke:none" d="M 21.796875 -15.46875 L 21.796875 -80.171875 C 21.796875 -81.421875 21.171875 -82.046875 19.921875 -82.046875 L 7.734375 -82.046875 C 6.484375 -82.046875 5.859375 -81.421875 5.859375 -80.171875 L 5.859375 -1.875 C 5.859375 -0.625 6.484375 0 7.734375 0 L 45 0 C 46.25 0 46.875 -0.625 46.875 -1.875 L 46.875 -13.59375 C 46.875 -14.84375 46.25 -15.46875 45 -15.46875 Z M 21.796875 -15.46875 "/></g></g></g></svg>