<svg xmlns="http://www.w3.org/2000/svg" xmlns:xlink="http://www.w3.org/1999/xlink" width="128" zoomAndPan="magnify" viewBox="0 0 96 95.999999" height="128" preserveAspectRatio="xMidYMid meet" version="1.2"><defs><clipPath id="0eaa37cf20"><path d="M 8.089844 2.753906 L 65.839844 2.753906 L 65.839844 68.753906 L 8.089844 68.753906 Z M 8.089844 2.753906 "/></clipPath><clipPath id="a050e71426"><path d="M 70.953125 69.320312 L 93.148438 69.320312 L 93.148438 92.527344 L 70.953125 92.527344 Z M 70.953125 69.320312 "/></clipPath><clipPath id="9f82ce4491"><path d="M 70.980469 75.800781 C 71.230469 74.859375 71.367188 74.746094 71.40625 74.554688 C 71.460938 74.285156 71.269531 73.996094 71.367188 73.59375 C 71.539062 72.804688 72.230469 70.925781 73.113281 70.214844 C 73.957031 69.542969 75.378906 69.332031 76.472656 69.351562 C 77.546875 69.390625 78.699219 69.792969 79.640625 70.347656 C 80.601562 70.925781 81.253906 72.039062 82.117188 72.769531 C 82.964844 73.496094 83.941406 74.015625 84.769531 74.707031 C 85.59375 75.378906 86.363281 76.089844 87.109375 76.859375 C 87.878906 77.625 88.644531 78.46875 89.355469 79.316406 C 90.046875 80.160156 90.757812 81.023438 91.335938 81.945312 C 91.890625 82.847656 92.449219 83.769531 92.734375 84.789062 C 93.023438 85.824219 93.253906 87.015625 93.023438 88.070312 C 92.773438 89.222656 92.007812 90.664062 91.125 91.390625 C 90.296875 92.0625 88.992188 92.503906 87.972656 92.46875 C 86.9375 92.410156 85.921875 91.640625 84.980469 91.066406 C 84.039062 90.507812 83.15625 89.796875 82.347656 89.050781 C 81.542969 88.300781 80.929688 87.378906 80.140625 86.574219 C 79.355469 85.765625 78.453125 85.019531 77.644531 84.25 C 76.859375 83.519531 76.070312 82.847656 75.320312 82.078125 C 74.59375 81.292969 73.84375 80.238281 73.230469 79.601562 C 72.804688 79.160156 72.382812 78.875 72.078125 78.566406 C 71.867188 78.355469 71.710938 78.203125 71.558594 78.007812 C 71.40625 77.796875 71.289062 77.566406 71.195312 77.320312 C 71.097656 77.089844 71.019531 76.820312 70.980469 76.570312 C 70.964844 76.320312 70.980469 75.800781 70.980469 75.800781 "/></clipPath><clipPath id="0e63e2c499"><path d="M 66.203125 65 L 79.519531 65 L 79.519531 77.898438 L 66.203125 77.898438 Z M 66.203125 65 "/></clipPath><clipPath id="94bfc204f7"><path d="M 66.230469 72.269531 C 66.339844 71.4375 66.417969 71.230469 66.511719 71.042969 C 66.605469 70.855469 66.730469 70.667969 66.871094 70.507812 C 67 70.351562 67.171875 70.210938 67.328125 70.085938 C 67.5 69.960938 67.816406 69.804688 67.894531 69.773438 C 67.910156 69.773438 67.925781 69.789062 67.925781 69.773438 C 67.957031 69.691406 67.15625 68.84375 67.234375 68.34375 C 67.34375 67.605469 68.648438 66.476562 69.511719 65.972656 C 70.296875 65.515625 71.191406 65.421875 72.085938 65.28125 C 73.042969 65.140625 74.265625 64.84375 75.113281 65.15625 C 75.914062 65.453125 76.527344 66.316406 77.09375 67.007812 C 77.675781 67.730469 78.113281 68.578125 78.507812 69.410156 C 78.898438 70.210938 79.371094 71.011719 79.464844 71.921875 C 79.574219 72.972656 79.449219 74.480469 78.945312 75.390625 C 78.476562 76.222656 77.578125 76.867188 76.730469 77.277344 C 75.867188 77.683594 74.785156 77.855469 73.828125 77.855469 C 72.902344 77.839844 71.332031 77.589844 71.082031 77.261719 C 70.96875 77.117188 71.191406 76.851562 71.128906 76.757812 C 71.066406 76.679688 70.90625 76.695312 70.796875 76.679688 C 70.703125 76.648438 70.5625 76.664062 70.484375 76.632812 C 70.421875 76.617188 70.375 76.570312 70.328125 76.554688 C 70.28125 76.539062 70.234375 76.539062 70.167969 76.523438 C 70.089844 76.476562 69.980469 76.398438 69.886719 76.335938 C 69.792969 76.285156 69.667969 76.238281 69.589844 76.191406 C 69.542969 76.144531 69.527344 76.097656 69.480469 76.066406 C 69.433594 76.035156 69.386719 76.019531 69.335938 75.988281 C 69.273438 75.925781 69.210938 75.800781 69.132812 75.722656 C 69.054688 75.644531 68.960938 75.566406 68.898438 75.488281 C 68.867188 75.4375 68.851562 75.390625 68.835938 75.34375 C 68.804688 75.296875 68.757812 75.265625 68.726562 75.21875 C 68.679688 75.140625 68.632812 74.96875 68.617188 74.90625 C 68.601562 74.875 68.585938 74.84375 68.585938 74.84375 C 68.570312 74.84375 68.160156 74.78125 67.972656 74.703125 C 67.769531 74.636719 67.578125 74.527344 67.40625 74.417969 C 67.21875 74.292969 67.0625 74.152344 66.921875 74.011719 C 66.777344 73.855469 66.652344 73.664062 66.542969 73.492188 C 66.449219 73.304688 66.371094 73.101562 66.324219 72.894531 C 66.261719 72.691406 66.230469 72.269531 66.230469 72.269531 M 71.628906 70.683594 C 71.628906 70.683594 71.644531 70.683594 71.644531 70.683594 C 71.644531 70.683594 71.628906 70.683594 71.628906 70.683594 "/></clipPath><clipPath id="027ee0d083"><path d="M 57.613281 56.828125 L 72.730469 56.828125 L 72.730469 71.402344 L 57.613281 71.402344 Z M 57.613281 56.828125 "/></clipPath><clipPath id="71475ef4bf"><path d="M 61.058594 59.257812 C 65.054688 61.773438 65.753906 62.230469 66.277344 62.863281 C 66.789062 63.441406 67.167969 64.113281 67.4375 64.8125 C 67.707031 65.511719 67.894531 66.292969 67.921875 67.035156 C 67.960938 67.773438 67.785156 68.660156 67.636719 69.253906 C 67.53125 69.671875 67.4375 69.992188 67.234375 70.289062 C 67.019531 70.597656 66.640625 70.921875 66.359375 71.082031 C 66.171875 71.203125 66.035156 71.257812 65.820312 71.3125 C 65.5 71.367188 64.945312 71.378906 64.636719 71.324219 C 64.410156 71.300781 64.246094 71.21875 64.074219 71.125 C 63.898438 71.042969 63.75 70.960938 63.589844 70.800781 C 63.347656 70.585938 63.035156 70.140625 62.902344 69.847656 C 62.792969 69.644531 62.769531 69.496094 62.742188 69.265625 C 62.714844 68.957031 62.6875 68.5 62.863281 68.097656 C 63.105469 67.546875 63.804688 66.925781 64.339844 66.375 C 64.921875 65.796875 65.648438 65.285156 66.210938 64.707031 C 66.75 64.15625 67.125 63.46875 67.679688 62.996094 C 68.203125 62.554688 68.875 62.082031 69.414062 61.90625 C 69.84375 61.773438 70.300781 61.800781 70.636719 61.839844 C 70.867188 61.867188 71.015625 61.921875 71.21875 62.027344 C 71.511719 62.191406 71.929688 62.472656 72.171875 62.796875 C 72.414062 63.105469 72.601562 63.523438 72.671875 63.914062 C 72.738281 64.289062 72.695312 64.746094 72.574219 65.125 C 72.453125 65.5 72.160156 65.917969 71.945312 66.160156 C 71.78125 66.335938 71.6875 66.386719 71.445312 66.535156 C 70.933594 66.832031 69.75 67.519531 68.847656 67.667969 C 67.960938 67.800781 66.910156 67.707031 66.089844 67.398438 C 65.308594 67.113281 64.597656 66.496094 63.992188 65.917969 C 63.414062 65.367188 62.96875 64.664062 62.539062 64.007812 C 62.136719 63.359375 61.90625 62.632812 61.515625 62.015625 C 61.113281 61.382812 60.265625 60.925781 60.183594 60.226562 C 60.078125 59.351562 60.804688 57.589844 61.542969 57.105469 C 62.175781 56.671875 63.332031 56.820312 64.074219 57.0625 C 64.773438 57.277344 65.296875 57.832031 65.902344 58.410156 C 66.667969 59.136719 67.597656 60.789062 68.214844 61.234375 C 68.527344 61.449219 68.78125 61.382812 69.023438 61.515625 C 69.28125 61.664062 69.507812 61.839844 69.710938 62.054688 C 69.898438 62.269531 70.058594 62.511719 70.167969 62.78125 C 70.289062 63.039062 70.371094 63.332031 70.382812 63.617188 C 70.410156 63.898438 70.394531 64.195312 70.328125 64.464844 C 70.261719 64.746094 70.140625 65.027344 69.992188 65.257812 C 69.84375 65.5 69.644531 65.730469 69.425781 65.902344 C 69.199219 66.09375 68.941406 66.238281 68.675781 66.335938 C 68.417969 66.441406 68.121094 66.496094 67.839844 66.507812 C 67.542969 66.523438 67.246094 66.480469 66.980469 66.402344 C 66.710938 66.320312 66.441406 66.1875 66.210938 66.023438 C 65.96875 65.863281 65.753906 65.648438 65.59375 65.417969 C 65.429688 65.191406 65.285156 64.921875 65.203125 64.652344 C 65.121094 64.382812 65.066406 64.085938 65.082031 63.792969 C 65.082031 63.507812 65.136719 63.210938 65.230469 62.957031 C 65.335938 62.6875 65.472656 62.417969 65.648438 62.203125 C 65.835938 61.976562 66.050781 61.773438 66.292969 61.625 C 66.519531 61.464844 66.804688 61.34375 67.074219 61.273438 C 67.355469 61.207031 67.652344 61.179688 67.933594 61.195312 C 68.214844 61.222656 68.511719 61.289062 68.769531 61.394531 C 69.039062 61.503906 69.292969 61.664062 69.496094 61.855469 C 69.710938 62.042969 69.898438 62.269531 70.046875 62.527344 C 70.179688 62.769531 70.289062 63.050781 70.34375 63.320312 C 70.394531 63.601562 70.410156 63.898438 70.382812 64.179688 C 70.34375 64.464844 70.261719 64.761719 70.128906 65.015625 C 70.007812 65.269531 69.832031 65.511719 69.628906 65.714844 C 69.441406 65.917969 69.199219 66.09375 68.941406 66.226562 C 68.6875 66.347656 68.40625 66.441406 68.121094 66.480469 C 67.839844 66.523438 67.570312 66.535156 67.261719 66.46875 C 66.859375 66.375 66.414062 66.144531 65.941406 65.863281 C 65.335938 65.5 64.460938 64.976562 63.992188 64.328125 C 63.519531 63.683594 62.941406 62.648438 63.105469 62.027344 C 63.265625 61.4375 64.582031 61.289062 64.867188 60.644531 C 65.175781 59.917969 64.339844 57.871094 64.597656 57.761719 C 64.824219 57.667969 65.648438 58.851562 66.078125 59.484375 C 66.507812 60.144531 66.589844 61.25 67.167969 61.636719 C 67.71875 62.027344 68.78125 61.878906 69.414062 61.90625 C 69.886719 61.921875 70.300781 61.800781 70.636719 61.839844 C 70.867188 61.867188 71.015625 61.921875 71.21875 62.027344 C 71.511719 62.191406 71.929688 62.472656 72.171875 62.796875 C 72.414062 63.105469 72.601562 63.523438 72.671875 63.914062 C 72.738281 64.289062 72.65625 64.800781 72.574219 65.125 C 72.523438 65.351562 72.429688 65.511719 72.320312 65.675781 C 72.210938 65.851562 72.117188 66.011719 71.945312 66.160156 C 71.6875 66.375 71.242188 66.46875 70.894531 66.777344 C 70.410156 67.207031 70.007812 68.136719 69.425781 68.636719 C 68.863281 69.121094 67.828125 69.402344 67.503906 69.765625 C 67.328125 69.941406 67.367188 70.101562 67.234375 70.289062 C 67.046875 70.546875 66.695312 70.910156 66.359375 71.082031 C 66.035156 71.273438 65.605469 71.378906 65.230469 71.394531 C 64.851562 71.394531 64.367188 71.257812 64.074219 71.125 C 63.871094 71.042969 63.75 70.960938 63.589844 70.800781 C 63.347656 70.585938 63.035156 70.195312 62.902344 69.847656 C 62.753906 69.496094 62.714844 69.09375 62.726562 68.675781 C 62.753906 68.203125 63.171875 67.691406 63.089844 67.183594 C 62.984375 66.5625 62.484375 65.875 61.894531 65.257812 C 61.074219 64.398438 58.988281 63.523438 58.328125 62.847656 C 58.003906 62.511719 57.871094 62.269531 57.761719 61.933594 C 57.640625 61.597656 57.640625 61.140625 57.667969 60.84375 C 57.695312 60.644531 57.734375 60.507812 57.828125 60.320312 C 57.964844 60.050781 58.273438 59.648438 58.488281 59.457031 C 58.636719 59.3125 58.757812 59.242188 58.945312 59.164062 C 59.230469 59.054688 59.671875 58.933594 60.023438 58.949219 C 60.371094 58.960938 61.058594 59.257812 61.058594 59.257812 "/></clipPath><clipPath id="781d33d8b9"><path d="M 12.453125 52.265625 L 21.660156 52.265625 L 21.660156 60.910156 L 12.453125 60.910156 Z M 12.453125 52.265625 "/></clipPath><clipPath id="cc01cc0379"><path d="M 16.09375 52.773438 C 19.875 55.703125 20.789062 56.59375 21.179688 57.117188 C 21.367188 57.386719 21.449219 57.5625 21.515625 57.804688 C 21.597656 58.046875 21.636719 58.316406 21.636719 58.570312 C 21.621094 58.8125 21.570312 59.082031 21.488281 59.324219 C 21.40625 59.554688 21.273438 59.796875 21.113281 59.996094 C 20.964844 60.183594 20.761719 60.375 20.546875 60.507812 C 20.332031 60.644531 20.089844 60.75 19.847656 60.816406 C 19.605469 60.871094 19.335938 60.898438 19.078125 60.886719 C 18.824219 60.859375 18.570312 60.804688 18.339844 60.695312 C 18.097656 60.601562 17.867188 60.453125 17.679688 60.292969 C 17.492188 60.117188 17.332031 59.917969 17.195312 59.699219 C 17.074219 59.472656 16.980469 59.230469 16.925781 58.972656 C 16.886719 58.730469 16.875 58.464844 16.898438 58.207031 C 16.941406 57.964844 17.019531 57.695312 17.128906 57.480469 C 17.238281 57.253906 17.398438 57.023438 17.574219 56.847656 C 17.746094 56.671875 17.964844 56.511719 18.191406 56.40625 C 18.421875 56.285156 18.675781 56.203125 18.917969 56.164062 C 19.175781 56.136719 19.441406 56.136719 19.683594 56.1875 C 19.941406 56.230469 20.195312 56.324219 20.410156 56.445312 C 20.640625 56.566406 20.84375 56.742188 21.015625 56.929688 C 21.179688 57.105469 21.328125 57.332031 21.433594 57.5625 C 21.527344 57.804688 21.597656 58.058594 21.621094 58.316406 C 21.648438 58.558594 21.621094 58.828125 21.570312 59.082031 C 21.5 59.324219 21.394531 59.566406 21.257812 59.78125 C 21.125 59.996094 20.949219 60.199219 20.761719 60.359375 C 20.558594 60.523438 20.332031 60.65625 20.089844 60.738281 C 19.847656 60.832031 19.589844 60.886719 19.335938 60.886719 C 19.078125 60.898438 18.8125 60.859375 18.582031 60.789062 C 18.339844 60.710938 18.136719 60.644531 17.882812 60.453125 C 17.4375 60.117188 16.925781 59.335938 16.253906 58.71875 C 15.367188 57.882812 13.523438 56.726562 12.945312 55.988281 C 12.660156 55.609375 12.566406 55.339844 12.5 55.003906 C 12.433594 54.65625 12.488281 54.210938 12.554688 53.914062 C 12.59375 53.714844 12.648438 53.59375 12.769531 53.417969 C 12.929688 53.175781 13.226562 52.824219 13.523438 52.652344 C 13.832031 52.460938 14.261719 52.355469 14.558594 52.3125 C 14.773438 52.289062 14.910156 52.289062 15.109375 52.339844 C 15.394531 52.410156 16.09375 52.773438 16.09375 52.773438 "/></clipPath><clipPath id="60893210e7"><path d="M 14.277344 54.371094 L 56.792969 54.371094 L 56.792969 67.9375 L 14.277344 67.9375 Z M 14.277344 54.371094 "/></clipPath><clipPath id="2eb7218c7b"><path d="M 17.613281 54.640625 C 22.699219 57.480469 24.597656 58.355469 25.109375 59.59375 C 25.59375 60.765625 25.335938 63.078125 24.648438 63.765625 C 24.125 64.300781 22.847656 64.234375 22.066406 64.074219 C 21.3125 63.925781 20.667969 63.320312 20.035156 62.917969 C 19.429688 62.527344 18.757812 62.109375 18.339844 61.679688 C 18.03125 61.371094 17.789062 61.007812 17.652344 60.710938 C 17.558594 60.496094 17.519531 60.359375 17.503906 60.132812 C 17.480469 59.796875 17.503906 59.296875 17.640625 58.933594 C 17.773438 58.585938 18.015625 58.207031 18.3125 57.953125 C 18.59375 57.695312 18.984375 57.480469 19.363281 57.386719 C 19.738281 57.292969 20.167969 57.292969 20.546875 57.375 C 20.921875 57.46875 21.636719 57.832031 21.609375 57.925781 C 21.582031 58.03125 19.402344 57.738281 19.402344 57.722656 C 19.402344 57.722656 20.816406 57.640625 21.648438 57.859375 C 22.847656 58.167969 24.097656 59.214844 25.765625 59.847656 C 28.109375 60.75 32.050781 61.960938 34.527344 62.378906 C 36.261719 62.660156 37.824219 62.621094 39.074219 62.59375 C 39.960938 62.566406 40.582031 62.484375 41.335938 62.363281 C 42.085938 62.242188 42.691406 62.121094 43.554688 61.867188 C 44.820312 61.492188 46.972656 60.789062 48.140625 60.199219 C 48.949219 59.78125 49.460938 59.390625 50.054688 58.90625 C 50.632812 58.4375 51.195312 57.722656 51.652344 57.332031 C 51.964844 57.078125 52.207031 56.914062 52.476562 56.742188 C 52.730469 56.59375 52.984375 56.445312 53.253906 56.363281 C 53.539062 56.269531 53.847656 56.230469 54.128906 56.242188 C 54.414062 56.257812 54.722656 56.308594 54.992188 56.40625 C 55.261719 56.511719 55.515625 56.660156 55.746094 56.847656 C 55.972656 57.023438 56.175781 57.253906 56.324219 57.496094 C 56.484375 57.738281 56.605469 58.019531 56.671875 58.300781 C 56.738281 58.585938 56.753906 58.878906 56.738281 59.175781 C 56.714844 59.457031 56.632812 59.753906 56.523438 60.023438 C 56.402344 60.28125 56.242188 60.535156 56.054688 60.75 C 55.851562 60.964844 55.609375 61.152344 55.367188 61.300781 C 55.113281 61.4375 54.828125 61.542969 54.546875 61.597656 C 54.265625 61.652344 53.953125 61.652344 53.671875 61.613281 C 53.390625 61.570312 53.09375 61.492188 52.839844 61.355469 C 52.582031 61.234375 52.328125 61.046875 52.125 60.84375 C 51.921875 60.644531 51.75 60.386719 51.613281 60.132812 C 51.492188 59.875 51.398438 59.578125 51.371094 59.296875 C 51.332031 59.015625 51.34375 58.707031 51.398438 58.421875 C 51.453125 58.140625 51.558594 57.859375 51.695312 57.601562 C 51.84375 57.359375 52.03125 57.117188 52.246094 56.929688 C 52.460938 56.726562 52.71875 56.566406 52.984375 56.457031 C 53.253906 56.351562 53.550781 56.269531 53.832031 56.257812 C 54.117188 56.230469 54.425781 56.257812 54.707031 56.324219 C 54.992188 56.390625 55.273438 56.511719 55.503906 56.671875 C 55.746094 56.835938 55.972656 57.035156 56.160156 57.265625 C 56.335938 57.480469 56.484375 57.75 56.578125 58.019531 C 56.6875 58.289062 56.738281 58.597656 56.738281 58.878906 C 56.753906 59.164062 56.714844 59.472656 56.617188 59.742188 C 56.539062 60.023438 56.472656 60.210938 56.230469 60.523438 C 55.730469 61.195312 54.183594 62.539062 53.308594 63.265625 C 52.636719 63.816406 52.234375 64.167969 51.464844 64.597656 C 50.363281 65.203125 48.371094 65.863281 47.1875 66.292969 C 46.367188 66.589844 45.789062 66.792969 45.0625 66.992188 C 44.335938 67.195312 43.609375 67.328125 42.855469 67.476562 C 42.0625 67.640625 41.359375 67.839844 40.433594 67.910156 C 39.140625 67.988281 37.121094 67.789062 35.84375 67.707031 C 34.929688 67.652344 34.527344 67.71875 33.488281 67.53125 C 31.429688 67.15625 26.304688 65.59375 24.3125 64.828125 C 23.316406 64.4375 22.753906 64.277344 22.132812 63.777344 C 21.515625 63.28125 21.234375 62.191406 20.574219 61.855469 C 19.953125 61.53125 18.835938 61.960938 18.339844 61.679688 C 17.976562 61.476562 17.800781 61.074219 17.652344 60.710938 C 17.519531 60.347656 17.464844 59.902344 17.503906 59.527344 C 17.546875 59.136719 17.695312 58.71875 17.910156 58.410156 C 18.125 58.085938 18.460938 57.789062 18.796875 57.601562 C 19.132812 57.425781 19.5625 57.320312 19.953125 57.304688 C 20.34375 57.304688 20.800781 57.441406 21.113281 57.589844 C 21.367188 57.695312 21.515625 57.816406 21.757812 58.046875 C 22.148438 58.421875 23.183594 59.164062 23.171875 59.78125 C 23.128906 60.546875 21.570312 62.203125 20.828125 62.230469 C 20.195312 62.257812 19.792969 61.179688 19.039062 60.644531 C 18.003906 59.902344 15.785156 59.042969 15.070312 58.382812 C 14.71875 58.058594 14.574219 57.761719 14.4375 57.496094 C 14.355469 57.292969 14.332031 57.132812 14.304688 56.957031 C 14.289062 56.78125 14.261719 56.621094 14.304688 56.40625 C 14.355469 56.121094 14.492188 55.679688 14.679688 55.382812 C 14.882812 55.097656 15.246094 54.816406 15.488281 54.65625 C 15.675781 54.546875 15.796875 54.507812 16 54.46875 C 16.292969 54.414062 16.804688 54.398438 17.089844 54.453125 C 17.304688 54.492188 17.613281 54.640625 17.613281 54.640625 "/></clipPath><clipPath id="17f4a3b831"><path d="M 51.753906 31.382812 L 69.101562 31.382812 L 69.101562 61.207031 L 51.753906 61.207031 Z M 51.753906 31.382812 "/></clipPath><clipPath id="c508bd2f5a"><path d="M 53.039062 56.914062 C 54.574219 56.054688 55.261719 55.449219 55.8125 54.925781 C 56.363281 54.398438 56.792969 53.957031 57.332031 53.269531 C 58.113281 52.246094 59.136719 50.660156 59.914062 49.300781 C 60.683594 47.953125 61.449219 46.742188 61.988281 45.15625 C 62.632812 43.230469 62.929688 40.59375 63.265625 38.496094 C 63.546875 36.640625 63.613281 34.164062 63.910156 33.207031 C 64.03125 32.816406 64.140625 32.671875 64.316406 32.453125 C 64.488281 32.226562 64.703125 32.023438 64.933594 31.863281 C 65.164062 31.703125 65.445312 31.582031 65.714844 31.5 C 65.984375 31.433594 66.277344 31.390625 66.5625 31.417969 C 66.84375 31.433594 67.140625 31.5 67.394531 31.59375 C 67.664062 31.703125 67.921875 31.863281 68.136719 32.039062 C 68.335938 32.226562 68.539062 32.453125 68.6875 32.695312 C 68.820312 32.9375 68.941406 33.207031 68.996094 33.492188 C 69.0625 33.761719 69.078125 34.054688 69.050781 34.339844 C 69.011719 34.621094 68.929688 34.917969 68.808594 35.171875 C 68.699219 35.414062 68.527344 35.671875 68.335938 35.871094 C 68.136719 36.074219 67.90625 36.261719 67.652344 36.398438 C 67.410156 36.519531 67.113281 36.613281 66.84375 36.667969 C 66.5625 36.707031 66.265625 36.707031 65.984375 36.667969 C 65.714844 36.613281 65.417969 36.519531 65.175781 36.382812 C 64.921875 36.25 64.691406 36.074219 64.488281 35.871094 C 64.300781 35.671875 64.140625 35.414062 64.019531 35.160156 C 63.898438 34.902344 63.816406 34.621094 63.789062 34.339844 C 63.761719 34.054688 63.777344 33.761719 63.832031 33.476562 C 63.898438 33.207031 64.003906 32.925781 64.152344 32.683594 C 64.300781 32.441406 64.488281 32.210938 64.703125 32.039062 C 64.921875 31.847656 65.175781 31.703125 65.445312 31.59375 C 65.699219 31.484375 65.996094 31.433594 66.277344 31.417969 C 66.5625 31.390625 66.859375 31.433594 67.125 31.511719 C 67.394531 31.582031 67.664062 31.714844 67.90625 31.863281 C 68.136719 32.023438 68.351562 32.226562 68.527344 32.453125 C 68.6875 32.683594 68.835938 32.9375 68.917969 33.207031 C 69.011719 33.476562 69.050781 33.652344 69.0625 34.054688 C 69.078125 35.011719 68.742188 37.175781 68.472656 38.925781 C 68.148438 41.011719 67.652344 44.121094 67.179688 45.75 C 66.910156 46.691406 66.722656 47.09375 66.332031 47.929688 C 65.769531 49.140625 64.8125 50.835938 63.964844 52.191406 C 63.132812 53.5 62.308594 54.777344 61.328125 55.921875 C 60.359375 57.078125 59.109375 58.289062 58.125 59.09375 C 57.398438 59.699219 56.726562 60.117188 56.066406 60.480469 C 55.542969 60.777344 55.019531 61.058594 54.535156 61.152344 C 54.15625 61.222656 53.738281 61.179688 53.457031 61.128906 C 53.242188 61.085938 53.121094 61.03125 52.945312 60.925781 C 52.703125 60.765625 52.339844 60.480469 52.152344 60.183594 C 51.964844 59.890625 51.828125 59.511719 51.789062 59.164062 C 51.761719 58.8125 51.855469 58.367188 51.949219 58.085938 C 52.015625 57.898438 52.085938 57.777344 52.21875 57.617188 C 52.394531 57.386719 53.039062 56.914062 53.039062 56.914062 "/></clipPath><clipPath id="e08af9eca7"><path d="M 43.316406 5.199219 L 68.710938 5.199219 L 68.710938 36.375 L 43.316406 36.375 Z M 43.316406 5.199219 "/></clipPath><clipPath id="f6c84f4e31"><path d="M 64.179688 34.460938 C 63.183594 29.523438 62.699219 28.148438 62.160156 26.546875 C 61.515625 24.570312 60.492188 21.53125 59.835938 19.941406 C 59.457031 19.027344 59.214844 18.421875 58.796875 17.816406 C 58.421875 17.265625 57.777344 16.886719 57.480469 16.417969 C 57.238281 16.039062 57.078125 15.664062 57.035156 15.261719 C 56.980469 14.871094 57.078125 14.359375 57.171875 14.035156 C 57.238281 13.808594 57.332031 13.660156 57.453125 13.484375 C 57.574219 13.308594 57.683594 13.160156 57.855469 13.011719 C 58.125 12.8125 58.570312 12.527344 58.945312 12.433594 C 59.335938 12.339844 59.863281 12.367188 60.183594 12.421875 C 60.425781 12.460938 60.5625 12.515625 60.761719 12.636719 C 61.058594 12.8125 61.4375 13.082031 61.703125 13.457031 C 62.066406 13.96875 62.203125 14.898438 62.566406 15.582031 C 62.929688 16.269531 63.574219 16.941406 63.882812 17.5625 C 64.125 18.046875 64.289062 18.503906 64.394531 18.960938 C 64.503906 19.390625 64.597656 19.808594 64.558594 20.210938 C 64.503906 20.613281 64.339844 21.046875 64.113281 21.382812 C 63.882812 21.71875 63.46875 22.042969 63.183594 22.230469 C 62.96875 22.351562 62.820312 22.40625 62.59375 22.457031 C 62.257812 22.511719 61.730469 22.550781 61.328125 22.457031 C 60.9375 22.363281 60.519531 22.148438 60.210938 21.878906 C 59.914062 21.609375 59.445312 20.898438 59.5 20.855469 C 59.566406 20.789062 61.421875 22.378906 61.394531 22.40625 C 61.382812 22.445312 60.105469 21.785156 59.5 21.167969 C 58.652344 20.292969 57.925781 18.273438 57.171875 17.292969 C 56.632812 16.59375 56.175781 16.121094 55.582031 15.664062 C 54.992188 15.21875 54.238281 14.992188 53.589844 14.585938 C 52.933594 14.183594 52.433594 13.726562 51.667969 13.269531 C 50.578125 12.621094 48.828125 11.667969 47.632812 11.195312 C 46.742188 10.832031 45.773438 10.710938 45.195312 10.484375 C 44.859375 10.347656 44.65625 10.253906 44.429688 10.078125 C 44.199219 9.917969 43.984375 9.691406 43.824219 9.460938 C 43.660156 9.21875 43.527344 8.949219 43.445312 8.667969 C 43.367188 8.382812 43.324219 8.089844 43.339844 7.792969 C 43.351562 7.511719 43.417969 7.214844 43.515625 6.945312 C 43.621094 6.675781 43.78125 6.40625 43.957031 6.191406 C 44.144531 5.960938 44.375 5.773438 44.628906 5.613281 C 44.871094 5.464844 45.15625 5.355469 45.4375 5.289062 C 45.707031 5.222656 46.015625 5.195312 46.300781 5.234375 C 46.59375 5.261719 46.890625 5.34375 47.148438 5.453125 C 47.414062 5.574219 47.671875 5.746094 47.875 5.9375 C 48.089844 6.136719 48.277344 6.378906 48.410156 6.636719 C 48.546875 6.878906 48.652344 7.171875 48.707031 7.457031 C 48.746094 7.738281 48.746094 8.046875 48.707031 8.332031 C 48.667969 8.613281 48.574219 8.910156 48.4375 9.164062 C 48.304688 9.421875 48.128906 9.664062 47.914062 9.863281 C 47.710938 10.066406 47.457031 10.242188 47.199219 10.363281 C 46.929688 10.484375 46.648438 10.5625 46.351562 10.605469 C 46.070312 10.632812 45.761719 10.617188 45.476562 10.5625 C 45.210938 10.496094 44.914062 10.390625 44.671875 10.242188 C 44.414062 10.105469 44.1875 9.90625 44 9.691406 C 43.808594 9.472656 43.648438 9.207031 43.539062 8.9375 C 43.433594 8.679688 43.367188 8.382812 43.339844 8.089844 C 43.324219 7.804688 43.351562 7.496094 43.433594 7.226562 C 43.5 6.945312 43.636719 6.664062 43.78125 6.421875 C 43.945312 6.191406 44.160156 5.960938 44.386719 5.789062 C 44.617188 5.613281 44.886719 5.464844 45.15625 5.371094 C 45.425781 5.277344 45.652344 5.210938 46.015625 5.222656 C 46.675781 5.234375 47.898438 5.640625 48.746094 5.910156 C 49.515625 6.152344 50.09375 6.367188 50.914062 6.757812 C 52.070312 7.292969 53.632812 8.222656 54.976562 9.03125 C 56.335938 9.835938 58.003906 10.78125 59.015625 11.601562 C 59.742188 12.179688 60.171875 12.675781 60.683594 13.269531 C 61.179688 13.847656 61.757812 14.425781 62.054688 15.125 C 62.335938 15.8125 62.027344 16.765625 62.402344 17.398438 C 62.792969 18.058594 64.097656 18.515625 64.394531 18.960938 C 64.542969 19.1875 64.53125 19.335938 64.542969 19.578125 C 64.570312 19.914062 64.542969 20.441406 64.410156 20.832031 C 64.261719 21.207031 64.003906 21.597656 63.695312 21.867188 C 63.398438 22.136719 62.984375 22.351562 62.59375 22.457031 C 62.1875 22.550781 61.664062 22.527344 61.328125 22.457031 C 61.085938 22.417969 60.953125 22.363281 60.734375 22.242188 C 60.441406 22.066406 60.105469 21.8125 59.792969 21.410156 C 59.296875 20.777344 58.757812 19.523438 58.3125 18.582031 C 57.898438 17.683594 57.386719 16.605469 57.183594 15.867188 C 57.050781 15.394531 57.007812 14.976562 57.023438 14.640625 C 57.035156 14.398438 57.078125 14.25 57.171875 14.035156 C 57.304688 13.726562 57.628906 13.253906 57.855469 13.011719 C 58.03125 12.851562 58.152344 12.757812 58.367188 12.664062 C 58.675781 12.515625 59.160156 12.355469 59.566406 12.355469 C 59.96875 12.355469 60.359375 12.421875 60.761719 12.636719 C 61.328125 12.933594 62.015625 13.605469 62.511719 14.195312 C 63.007812 14.800781 63.414062 15.515625 63.761719 16.230469 C 64.125 16.929688 64.316406 17.480469 64.652344 18.433594 C 65.257812 20.089844 66.277344 23.292969 66.882812 25.351562 C 67.382812 27.007812 67.785156 28.417969 68.082031 29.859375 C 68.363281 31.164062 68.578125 32.953125 68.648438 33.640625 C 68.675781 33.90625 68.714844 33.976562 68.6875 34.191406 C 68.648438 34.488281 68.539062 34.929688 68.363281 35.226562 C 68.175781 35.535156 67.839844 35.832031 67.597656 35.992188 C 67.421875 36.113281 67.300781 36.167969 67.085938 36.222656 C 66.804688 36.289062 66.347656 36.355469 66.011719 36.289062 C 65.660156 36.222656 65.296875 36.0625 65.015625 35.84375 C 64.730469 35.628906 64.476562 35.253906 64.339844 34.984375 C 64.246094 34.796875 64.179688 34.460938 64.179688 34.460938 "/></clipPath><clipPath id="da3b1afce9"><path d="M 33.113281 3.523438 L 48.414062 3.523438 L 48.414062 10.199219 L 33.113281 10.199219 Z M 33.113281 3.523438 "/></clipPath><clipPath id="05ba0f714c"><path d="M 33.140625 7.65625 C 33.828125 4.050781 34.917969 3.796875 35.710938 3.621094 C 36.464844 3.445312 37.242188 3.566406 38.023438 3.582031 C 38.816406 3.59375 39.640625 3.621094 40.445312 3.703125 C 41.265625 3.796875 42.085938 3.972656 42.894531 4.09375 C 43.675781 4.214844 44.699219 4.253906 45.210938 4.429688 C 45.476562 4.523438 45.574219 4.683594 45.789062 4.765625 C 46.015625 4.832031 46.3125 4.777344 46.566406 4.859375 C 46.824219 4.941406 47.09375 5.0625 47.320312 5.222656 C 47.535156 5.382812 47.804688 5.667969 47.914062 5.816406 C 47.96875 5.894531 47.980469 5.988281 48.019531 6.015625 C 48.035156 6.042969 48.046875 6.03125 48.0625 6.042969 C 48.101562 6.082031 48.128906 6.230469 48.15625 6.3125 C 48.195312 6.394531 48.261719 6.488281 48.289062 6.566406 C 48.304688 6.609375 48.289062 6.664062 48.304688 6.703125 C 48.316406 6.742188 48.34375 6.785156 48.359375 6.835938 C 48.371094 6.90625 48.359375 7.027344 48.371094 7.121094 C 48.371094 7.199219 48.410156 7.320312 48.410156 7.390625 C 48.410156 7.441406 48.382812 7.484375 48.382812 7.523438 C 48.382812 7.578125 48.398438 7.617188 48.382812 7.671875 C 48.371094 7.753906 48.316406 7.875 48.304688 7.941406 C 48.304688 7.96875 48.289062 7.980469 48.289062 8.019531 C 48.289062 8.074219 48.304688 8.167969 48.277344 8.277344 C 48.261719 8.410156 48.210938 8.625 48.128906 8.800781 C 48.0625 8.964844 47.96875 9.125 47.859375 9.273438 C 47.753906 9.421875 47.632812 9.554688 47.484375 9.675781 C 47.347656 9.785156 47.1875 9.890625 47.027344 9.957031 C 46.863281 10.039062 46.6875 10.105469 46.5 10.148438 C 46.324219 10.175781 45.960938 10.1875 45.960938 10.1875 C 45.960938 10.1875 45.074219 10.175781 44.535156 10.148438 C 43.808594 10.121094 42.839844 10.039062 42.019531 9.957031 C 41.226562 9.878906 40.445312 9.796875 39.664062 9.691406 C 38.914062 9.582031 38.160156 9.433594 37.40625 9.3125 C 36.652344 9.191406 35.859375 9.230469 35.144531 8.964844 C 34.433594 8.679688 33.140625 7.65625 33.140625 7.65625 "/></clipPath><clipPath id="015f4c1c6b"><path d="M 5.253906 3.574219 L 38.140625 3.574219 L 38.140625 33.121094 L 5.253906 33.121094 Z M 5.253906 3.574219 "/></clipPath><clipPath id="403509c59e"><path d="M 35.992188 8.101562 C 34.148438 8.316406 32.453125 8.894531 31.632812 8.964844 C 31.164062 8.988281 30.800781 8.9375 30.503906 8.855469 C 30.289062 8.800781 30.167969 8.734375 29.992188 8.613281 C 29.734375 8.425781 29.398438 8.101562 29.210938 7.792969 C 29.035156 7.46875 28.914062 7.066406 28.902344 6.703125 C 28.886719 6.339844 28.984375 5.921875 29.144531 5.597656 C 29.292969 5.261719 29.5625 4.941406 29.855469 4.726562 C 30.152344 4.496094 30.488281 4.375 30.90625 4.28125 C 31.457031 4.171875 32.453125 4.320312 32.910156 4.253906 C 33.152344 4.226562 33.273438 4.132812 33.464844 4.105469 C 33.664062 4.066406 33.828125 4.050781 34.054688 4.078125 C 34.363281 4.121094 34.875 4.292969 35.144531 4.457031 C 35.347656 4.5625 35.453125 4.65625 35.589844 4.820312 C 35.804688 5.0625 36.058594 5.464844 36.167969 5.828125 C 36.273438 6.191406 36.289062 6.621094 36.207031 6.984375 C 36.128906 7.347656 35.9375 7.738281 35.710938 8.019531 C 35.46875 8.316406 35.238281 8.519531 34.78125 8.722656 C 33.828125 9.109375 31.539062 9.070312 29.992188 9.449219 C 28.457031 9.824219 26.707031 10.484375 25.511719 10.980469 C 24.691406 11.316406 24.234375 11.507812 23.453125 11.949219 C 22.308594 12.609375 20.652344 13.660156 19.457031 14.695312 C 18.273438 15.71875 17.222656 16.914062 16.28125 18.140625 C 15.351562 19.363281 14.53125 20.710938 13.820312 22.066406 C 13.09375 23.425781 12.488281 24.8125 11.949219 26.320312 C 11.355469 27.921875 10.898438 30.53125 10.480469 31.445312 C 10.308594 31.824219 10.199219 31.96875 9.996094 32.1875 C 9.808594 32.386719 9.566406 32.574219 9.3125 32.722656 C 9.054688 32.859375 8.773438 32.953125 8.492188 33.007812 C 8.195312 33.058594 7.898438 33.058594 7.617188 33.019531 C 7.320312 32.980469 7.039062 32.886719 6.78125 32.75 C 6.527344 32.617188 6.269531 32.441406 6.070312 32.226562 C 5.867188 32.023438 5.691406 31.769531 5.570312 31.511719 C 5.449219 31.257812 5.371094 30.960938 5.328125 30.679688 C 5.289062 30.382812 5.300781 30.085938 5.371094 29.804688 C 5.421875 29.523438 5.53125 29.226562 5.679688 28.984375 C 5.828125 28.726562 6.015625 28.5 6.230469 28.3125 C 6.460938 28.121094 6.714844 27.960938 6.984375 27.855469 C 7.238281 27.734375 7.550781 27.664062 7.832031 27.652344 C 8.113281 27.625 8.421875 27.664062 8.707031 27.734375 C 8.976562 27.800781 9.257812 27.933594 9.5 28.097656 C 9.742188 28.242188 9.972656 28.460938 10.144531 28.6875 C 10.320312 28.902344 10.46875 29.1875 10.5625 29.453125 C 10.65625 29.722656 10.710938 30.019531 10.710938 30.316406 C 10.722656 30.597656 10.671875 30.90625 10.589844 31.175781 C 10.496094 31.445312 10.359375 31.730469 10.1875 31.957031 C 10.011719 32.1875 9.796875 32.402344 9.554688 32.5625 C 9.324219 32.722656 9.042969 32.859375 8.773438 32.9375 C 8.492188 33.019531 8.179688 33.058594 7.898438 33.046875 C 7.617188 33.035156 7.308594 32.964844 7.039062 32.871094 C 6.78125 32.765625 6.511719 32.617188 6.285156 32.429688 C 6.070312 32.238281 5.867188 32.011719 5.71875 31.769531 C 5.558594 31.527344 5.449219 31.246094 5.382812 30.960938 C 5.316406 30.679688 5.300781 30.410156 5.316406 30.085938 C 5.355469 29.671875 5.464844 29.28125 5.625 28.6875 C 5.894531 27.625 6.417969 25.699219 6.957031 24.246094 C 7.496094 22.792969 8.128906 21.367188 8.8125 19.984375 C 9.511719 18.570312 10.09375 17.238281 11.113281 15.867188 C 12.351562 14.183594 14.355469 12.136719 15.945312 10.765625 C 17.238281 9.648438 18.449219 8.855469 19.78125 8.074219 C 21.097656 7.292969 22.324219 6.675781 23.882812 6.082031 C 25.808594 5.34375 28.847656 4.414062 30.515625 4.214844 C 31.5 4.078125 32.253906 4.308594 32.910156 4.253906 C 33.355469 4.226562 33.730469 4.066406 34.054688 4.078125 C 34.269531 4.078125 34.417969 4.121094 34.621094 4.199219 C 34.917969 4.320312 35.332031 4.550781 35.589844 4.820312 C 35.859375 5.089844 36.058594 5.464844 36.167969 5.828125 C 36.273438 6.191406 36.289062 6.621094 36.207031 6.984375 C 36.128906 7.347656 35.9375 7.738281 35.710938 8.019531 C 35.46875 8.316406 35.105469 8.546875 34.78125 8.722656 C 34.484375 8.867188 34.257812 8.9375 33.867188 8.988281 C 33.195312 9.097656 31.769531 9.097656 31.066406 8.976562 C 30.609375 8.894531 30.300781 8.816406 29.992188 8.613281 C 29.683594 8.410156 29.398438 8.101562 29.210938 7.792969 C 29.035156 7.46875 28.929688 7.011719 28.902344 6.703125 C 28.886719 6.488281 28.902344 6.339844 28.957031 6.136719 C 29.035156 5.839844 29.210938 5.398438 29.441406 5.113281 C 29.683594 4.832031 29.964844 4.617188 30.355469 4.441406 C 30.894531 4.1875 31.742188 4.066406 32.46875 3.929688 C 33.179688 3.796875 33.988281 3.6875 34.675781 3.648438 C 35.238281 3.609375 35.804688 3.539062 36.261719 3.636719 C 36.636719 3.703125 37 3.902344 37.242188 4.066406 C 37.417969 4.1875 37.511719 4.28125 37.632812 4.457031 C 37.796875 4.699219 38.011719 5.101562 38.078125 5.4375 C 38.132812 5.789062 38.117188 6.191406 38.011719 6.515625 C 37.902344 6.851562 37.648438 7.226562 37.460938 7.441406 C 37.3125 7.605469 37.21875 7.683594 37.027344 7.777344 C 36.757812 7.914062 35.992188 8.101562 35.992188 8.101562 "/></clipPath><clipPath id="d2fc1c5f08"><path d="M 4.792969 28.058594 L 16.898438 28.058594 L 16.898438 56.476562 L 4.792969 56.476562 Z M 4.792969 28.058594 "/></clipPath><clipPath id="ff8410f7b6"><path d="M 10.28125 30.410156 C 9.730469 38.253906 9.582031 39.976562 9.78125 41.226562 C 9.929688 42.117188 10.226562 42.746094 10.550781 43.460938 C 10.871094 44.175781 11.277344 44.847656 11.691406 45.492188 C 12.097656 46.136719 12.59375 46.691406 12.984375 47.335938 C 13.386719 48.007812 13.617188 48.84375 14.0625 49.503906 C 14.492188 50.148438 15.152344 50.578125 15.59375 51.238281 C 16.066406 51.9375 16.605469 53.632812 16.738281 53.605469 C 16.792969 53.59375 16.765625 53.160156 16.777344 53.160156 C 16.804688 53.160156 16.859375 53.578125 16.859375 53.792969 C 16.875 53.996094 16.859375 54.183594 16.792969 54.414062 C 16.699219 54.75 16.484375 55.234375 16.214844 55.53125 C 15.945312 55.839844 15.566406 56.109375 15.191406 56.257812 C 14.800781 56.40625 14.34375 56.457031 13.941406 56.417969 C 13.535156 56.363281 13.050781 56.148438 12.757812 55.972656 C 12.554688 55.851562 12.433594 55.746094 12.285156 55.558594 C 12.070312 55.289062 11.960938 54.84375 11.691406 54.453125 C 11.316406 53.929688 10.628906 53.363281 10.132812 52.757812 C 9.632812 52.152344 9.191406 51.613281 8.707031 50.820312 C 8.058594 49.730469 7.1875 47.859375 6.726562 46.691406 C 6.390625 45.871094 6.242188 45.410156 6.042969 44.539062 C 5.746094 43.257812 5.421875 41 5.300781 39.695312 C 5.222656 38.820312 5.179688 38.039062 5.207031 37.472656 C 5.234375 37.125 5.261719 36.882812 5.355469 36.613281 C 5.449219 36.34375 5.585938 36.074219 5.757812 35.84375 C 5.933594 35.617188 6.148438 35.402344 6.390625 35.238281 C 6.632812 35.078125 6.902344 34.957031 7.1875 34.875 C 7.453125 34.796875 7.765625 34.769531 8.046875 34.78125 C 8.328125 34.796875 8.625 34.863281 8.894531 34.972656 C 9.164062 35.078125 9.417969 35.226562 9.648438 35.414062 C 9.863281 35.601562 10.066406 35.832031 10.214844 36.074219 C 10.359375 36.328125 10.46875 36.613281 10.535156 36.882812 C 10.589844 37.164062 10.601562 37.472656 10.578125 37.757812 C 10.550781 38.039062 10.46875 38.335938 10.347656 38.589844 C 10.226562 38.859375 10.050781 39.113281 9.863281 39.316406 C 9.660156 39.519531 9.417969 39.707031 9.164062 39.839844 C 8.90625 39.976562 8.625 40.070312 8.34375 40.125 C 8.058594 40.164062 7.75 40.164062 7.46875 40.125 C 7.1875 40.082031 6.902344 39.976562 6.648438 39.839844 C 6.390625 39.707031 6.148438 39.53125 5.949219 39.316406 C 5.757812 39.113281 5.585938 38.859375 5.464844 38.605469 C 5.34375 38.335938 5.261719 38.050781 5.234375 37.757812 C 5.195312 37.472656 5.207031 37.175781 5.273438 36.894531 C 5.34375 36.613281 5.449219 36.328125 5.597656 36.085938 C 5.746094 35.832031 5.949219 35.601562 6.164062 35.414062 C 6.378906 35.238281 6.632812 35.078125 6.902344 34.972656 C 7.171875 34.863281 7.46875 34.796875 7.75 34.78125 C 8.046875 34.769531 8.34375 34.796875 8.625 34.875 C 8.894531 34.957031 9.175781 35.078125 9.40625 35.238281 C 9.648438 35.402344 9.863281 35.617188 10.039062 35.84375 C 10.214844 36.0625 10.335938 36.207031 10.457031 36.613281 C 10.765625 37.636719 10.832031 41 11.128906 42.503906 C 11.304688 43.472656 11.492188 44.078125 11.761719 44.832031 C 12.03125 45.613281 12.394531 46.40625 12.769531 47.132812 C 13.132812 47.820312 13.496094 48.453125 13.953125 49.085938 C 14.4375 49.757812 15.109375 50.363281 15.582031 51.050781 C 16.050781 51.722656 16.617188 52.53125 16.777344 53.160156 C 16.914062 53.621094 16.847656 54.078125 16.792969 54.414062 C 16.753906 54.65625 16.699219 54.804688 16.578125 55.019531 C 16.402344 55.300781 16.078125 55.730469 15.742188 55.960938 C 15.40625 56.1875 14.976562 56.363281 14.574219 56.417969 C 14.167969 56.457031 13.699219 56.40625 13.320312 56.269531 C 12.945312 56.121094 12.554688 55.867188 12.285156 55.558594 C 12.015625 55.261719 11.949219 54.761719 11.691406 54.453125 C 11.4375 54.15625 11.0625 54.050781 10.75 53.726562 C 10.320312 53.269531 9.835938 52.515625 9.445312 51.871094 C 9.054688 51.199219 8.800781 50.417969 8.421875 49.746094 C 8.035156 49.085938 7.535156 48.535156 7.144531 47.875 C 6.726562 47.175781 6.3125 46.40625 5.988281 45.652344 C 5.664062 44.914062 5.371094 44.175781 5.179688 43.421875 C 4.980469 42.667969 4.871094 41.898438 4.816406 41.148438 C 4.765625 40.378906 4.816406 39.613281 4.859375 38.832031 C 4.886719 38.023438 4.925781 37.378906 5.019531 36.355469 C 5.179688 34.675781 5.570312 30.691406 5.828125 29.738281 C 5.894531 29.46875 5.921875 29.414062 6.042969 29.226562 C 6.191406 28.984375 6.484375 28.632812 6.78125 28.445312 C 7.078125 28.242188 7.507812 28.136719 7.804688 28.082031 C 8.019531 28.054688 8.167969 28.082031 8.355469 28.109375 C 8.53125 28.136719 8.691406 28.164062 8.882812 28.242188 C 9.148438 28.378906 9.554688 28.675781 9.753906 28.890625 C 9.902344 29.050781 9.972656 29.160156 10.050781 29.347656 C 10.160156 29.628906 10.28125 30.410156 10.28125 30.410156 "/></clipPath><clipPath id="56e284b80f"><path d="M 3 2.183594 L 95 2.183594 L 95 93.683594 L 3 93.683594 Z M 3 2.183594 "/></clipPath></defs><g id="4d6b814440"><path style=" stroke:none;fill-rule:nonzero;fill:#87ff00;fill-opacity:1;" d="M 25.339844 24.507812 L 25.304688 24.472656 L 17.175781 32.597656 L 36.90625 52.292969 L 45.035156 44.203125 L 56.636719 32.597656 L 48.511719 24.472656 L 48.511719 24.433594 L 25.304688 24.433594 Z M 25.339844 24.507812 "/><g clip-rule="nonzero" clip-path="url(#0eaa37cf20)"><path style=" stroke:none;fill-rule:nonzero;fill:#87ff00;fill-opacity:1;" d="M 36.832031 2.800781 L 8.097656 19.273438 L 8.097656 52.21875 L 36.835938 68.695312 L 65.570312 52.21875 L 65.570312 19.273438 L 36.835938 2.800781 Z M 60.078125 49.070312 L 36.832031 62.46875 L 13.589844 49.070312 L 13.589844 22.347656 L 36.832031 8.949219 L 60.078125 22.347656 Z M 60.078125 49.070312 "/></g><g clip-rule="nonzero" clip-path="url(#a050e71426)"><g clip-rule="nonzero" clip-path="url(#9f82ce4491)"><path style=" stroke:none;fill-rule:nonzero;fill:#000000;fill-opacity:1;" d="M 70.214844 68.582031 L 93.792969 68.582031 L 93.792969 93.265625 L 70.214844 93.265625 Z M 70.214844 68.582031 "/></g></g><g clip-rule="nonzero" clip-path="url(#0e63e2c499)"><g clip-rule="nonzero" clip-path="url(#94bfc204f7)"><path style=" stroke:none;fill-rule:nonzero;fill:#060705;fill-opacity:1;" d="M 65.601562 64.527344 L 80.066406 64.527344 L 80.066406 78.5 L 65.601562 78.5 Z M 65.601562 64.527344 "/></g></g><g clip-rule="nonzero" clip-path="url(#027ee0d083)"><g clip-rule="nonzero" clip-path="url(#71475ef4bf)"><path style=" stroke:none;fill-rule:nonzero;fill:#060705;fill-opacity:1;" d="M 57.128906 56.527344 L 73.210938 56.527344 L 73.210938 71.945312 L 57.128906 71.945312 Z M 57.128906 56.527344 "/></g></g><g clip-rule="nonzero" clip-path="url(#781d33d8b9)"><g clip-rule="nonzero" clip-path="url(#cc01cc0379)"><path style=" stroke:none;fill-rule:nonzero;fill:#060705;fill-opacity:1;" d="M 11.960938 51.777344 L 22.1875 51.777344 L 22.1875 61.4375 L 11.960938 61.4375 Z M 11.960938 51.777344 "/></g></g><g clip-rule="nonzero" clip-path="url(#60893210e7)"><g clip-rule="nonzero" clip-path="url(#2eb7218c7b)"><path style=" stroke:none;fill-rule:nonzero;fill:#060705;fill-opacity:1;" d="M 13.765625 53.914062 L 57.300781 53.914062 L 57.300781 68.445312 L 13.765625 68.445312 Z M 13.765625 53.914062 "/></g></g><g clip-rule="nonzero" clip-path="url(#17f4a3b831)"><g clip-rule="nonzero" clip-path="url(#c508bd2f5a)"><path style=" stroke:none;fill-rule:nonzero;fill:#060705;fill-opacity:1;" d="M 51.25 30.882812 L 69.601562 30.882812 L 69.601562 61.707031 L 51.25 61.707031 Z M 51.25 30.882812 "/></g></g><g clip-rule="nonzero" clip-path="url(#e08af9eca7)"><g clip-rule="nonzero" clip-path="url(#f6c84f4e31)"><path style=" stroke:none;fill-rule:nonzero;fill:#060705;fill-opacity:1;" d="M 42.800781 4.683594 L 69.226562 4.683594 L 69.226562 36.890625 L 42.800781 36.890625 Z M 42.800781 4.683594 "/></g></g><g clip-rule="nonzero" clip-path="url(#da3b1afce9)"><g clip-rule="nonzero" clip-path="url(#05ba0f714c)"><path style=" stroke:none;fill-rule:nonzero;fill:#060705;fill-opacity:1;" d="M 32.601562 3.042969 L 48.957031 3.042969 L 48.957031 10.738281 L 32.601562 10.738281 Z M 32.601562 3.042969 "/></g></g><g clip-rule="nonzero" clip-path="url(#015f4c1c6b)"><g clip-rule="nonzero" clip-path="url(#403509c59e)"><path style=" stroke:none;fill-rule:nonzero;fill:#060705;fill-opacity:1;" d="M 4.777344 3.097656 L 38.617188 3.097656 L 38.617188 33.597656 L 4.777344 33.597656 Z M 4.777344 3.097656 "/></g></g><g clip-rule="nonzero" clip-path="url(#d2fc1c5f08)"><g clip-rule="nonzero" clip-path="url(#ff8410f7b6)"><path style=" stroke:none;fill-rule:nonzero;fill:#060705;fill-opacity:1;" d="M 4.28125 27.542969 L 17.410156 27.542969 L 17.410156 56.9375 L 4.28125 56.9375 Z M 4.28125 27.542969 "/></g></g><path style=" stroke:none;fill-rule:nonzero;fill:#73d800;fill-opacity:1;" d="M 56.25 16.1875 C 51.082031 11.019531 44.199219 8.171875 36.871094 8.171875 C 29.542969 8.171875 22.660156 11.019531 17.492188 16.1875 C 6.804688 26.875 6.804688 44.261719 17.492188 54.949219 C 22.660156 60.121094 29.539062 62.964844 36.871094 62.964844 C 44.199219 62.964844 51.082031 60.121094 56.25 54.949219 C 61.421875 49.78125 64.265625 42.898438 64.265625 35.570312 C 64.265625 28.242188 61.417969 21.355469 56.25 16.1875 Z M 54.71875 53.417969 C 49.957031 58.175781 43.621094 60.796875 36.871094 60.796875 C 30.121094 60.796875 23.78125 58.179688 19.023438 53.417969 C 9.183594 43.574219 9.183594 27.5625 19.023438 17.71875 C 23.785156 12.960938 30.121094 10.339844 36.871094 10.339844 C 43.621094 10.339844 49.957031 12.960938 54.71875 17.71875 C 64.558594 27.5625 64.558594 43.574219 54.71875 53.417969 Z M 54.71875 53.417969 "/><g clip-rule="nonzero" clip-path="url(#56e284b80f)"><path style=" stroke:none;fill-rule:nonzero;fill:#73d800;fill-opacity:1;" d="M 92.902344 81.609375 L 74.65625 63.367188 L 70.882812 59.589844 C 70.476562 59.183594 69.757812 59.183594 69.347656 59.589844 L 68.773438 60.164062 C 68.722656 60.039062 68.648438 59.921875 68.542969 59.816406 L 63.898438 55.167969 C 68.015625 49.511719 70.242188 42.714844 70.242188 35.570312 C 70.242188 26.640625 66.777344 18.253906 60.480469 11.960938 C 54.183594 5.664062 45.800781 2.195312 36.871094 2.195312 C 27.945312 2.195312 19.558594 5.664062 13.261719 11.960938 C 0.246094 24.980469 0.246094 46.160156 13.261719 59.179688 C 19.558594 65.476562 27.945312 68.941406 36.871094 68.941406 C 44.019531 68.941406 50.8125 66.714844 56.472656 62.597656 L 61.117188 67.246094 C 61.222656 67.347656 61.339844 67.421875 61.464844 67.476562 L 60.894531 68.046875 C 60.472656 68.46875 60.472656 69.15625 60.894531 69.578125 L 64.816406 73.5 L 82.914062 91.601562 C 84.246094 92.933594 86.019531 93.667969 87.90625 93.667969 C 89.792969 93.667969 91.570312 92.933594 92.902344 91.601562 C 95.65625 88.84375 95.65625 84.363281 92.902344 81.609375 Z M 14.792969 57.644531 C 2.621094 45.472656 2.621094 25.664062 14.792969 13.492188 C 20.679688 7.605469 28.519531 4.363281 36.871094 4.363281 C 45.21875 4.363281 53.058594 7.605469 58.945312 13.492188 C 64.832031 19.378906 68.074219 27.21875 68.074219 35.566406 C 68.074219 43.914062 64.832031 51.753906 58.945312 57.640625 C 53.058594 63.527344 45.21875 66.769531 36.867188 66.769531 C 28.523438 66.773438 20.679688 63.53125 14.792969 57.644531 Z M 62.652344 65.710938 L 58.195312 61.253906 C 58.984375 60.597656 59.746094 59.910156 60.476562 59.175781 C 61.210938 58.445312 61.902344 57.679688 62.554688 56.894531 L 67.011719 61.351562 C 67.113281 61.453125 67.230469 61.527344 67.359375 61.582031 L 62.878906 66.058594 C 62.828125 65.933594 62.753906 65.8125 62.652344 65.710938 Z M 70.117188 61.890625 L 72.378906 64.15625 L 65.558594 71.175781 L 63.195312 68.8125 Z M 91.367188 90.066406 C 90.441406 90.992188 89.214844 91.5 87.90625 91.5 C 86.601562 91.5 85.371094 90.992188 84.445312 90.066406 L 67.09375 72.710938 L 73.914062 65.6875 L 91.371094 83.144531 C 93.277344 85.050781 93.277344 88.15625 91.367188 90.066406 Z M 91.367188 90.066406 "/></g></g></svg>