<svg xmlns="http://www.w3.org/2000/svg" xmlns:xlink="http://www.w3.org/1999/xlink" width="128" zoomAndPan="magnify" viewBox="0 0 96 95.999999" height="128" preserveAspectRatio="xMidYMid meet" version="1.2"><defs><clipPath id="531e0df469"><path d="M 6 0 L 90 0 L 90 96 L 6 96 Z M 6 0 "/></clipPath><clipPath id="9c56e3d2cf"><path d="M -14.304688 36.578125 L 68.691406 -11.898438 L 110.335938 59.402344 L 27.339844 107.878906 Z M -14.304688 36.578125 "/></clipPath><clipPath id="37cc9c7c7b"><path d="M 89.484375 23.769531 L 89.5625 71.535156 L 48.082031 95.765625 L 6.515625 72.226562 L 6.4375 24.464844 L 47.921875 0.234375 Z M 89.484375 23.769531 "/></clipPath><clipPath id="67e5050858"><path d="M 14.140625 9.121094 L 81.851562 9.121094 L 81.851562 86.839844 L 14.140625 86.839844 Z M 14.140625 9.121094 "/></clipPath></defs><g id="721a732081"><g clip-rule="nonzero" clip-path="url(#531e0df469)"><g clip-rule="nonzero" clip-path="url(#9c56e3d2cf)"><g clip-rule="nonzero" clip-path="url(#37cc9c7c7b)"><path style=" stroke:none;fill-rule:nonzero;fill:#65b30e;fill-opacity:1;" d="M -14.304688 36.578125 L 68.691406 -11.898438 L 110.335938 59.402344 L 27.339844 107.878906 Z M -14.304688 36.578125 "/></g></g></g><path style=" stroke:none;fill-rule:nonzero;fill:#87ff00;fill-opacity:1;" d="M 34.453125 34.738281 L 34.410156 34.695312 L 24.839844 44.265625 L 48.074219 67.457031 L 57.644531 57.933594 L 71.308594 44.265625 L 61.738281 34.695312 L 61.738281 34.652344 L 34.410156 34.652344 Z M 34.453125 34.738281 "/><g clip-rule="nonzero" clip-path="url(#67e5050858)"><path style=" stroke:none;fill-rule:nonzero;fill:#87ff00;fill-opacity:1;" d="M 47.988281 9.179688 L 14.148438 28.574219 L 14.148438 67.371094 L 47.988281 86.769531 L 81.828125 67.371094 L 81.828125 28.574219 Z M 75.359375 63.664062 L 47.988281 79.4375 L 20.613281 63.664062 L 20.617188 32.195312 L 47.988281 16.417969 L 75.363281 32.195312 L 75.363281 63.664062 Z M 75.359375 63.664062 "/></g><g style="fill:#b21a22;fill-opacity:1;"><g transform="translate(23.627175, 41.826959)"><path style="stroke:none" d="M 9.765625 -11.285156 L 9.765625 -7.203125 C 9.765625 -5.792969 9.289062 -4.789062 8.332031 -4.191406 L 7.996094 -4.726562 L 8.613281 -4.878906 L 9.667969 -0.515625 L 9.050781 -0.367188 L 9.664062 -0.535156 C 9.753906 -0.207031 9.710938 0.0703125 9.53125 0.296875 C 9.355469 0.523438 9.101562 0.632812 8.765625 0.632812 L 6.777344 0.632812 C 6.53125 0.632812 6.320312 0.5625 6.148438 0.417969 C 5.976562 0.277344 5.863281 0.0859375 5.8125 -0.152344 L 6.433594 -0.285156 L 5.816406 -0.132812 L 4.84375 -4.132812 L 5.460938 -4.28125 L 5.460938 -3.648438 L 3.652344 -3.648438 L 3.652344 -4.28125 L 4.289062 -4.28125 L 4.289062 -0.324219 C 4.289062 -0.0429688 4.199219 0.1875 4.019531 0.367188 C 3.84375 0.546875 3.613281 0.632812 3.328125 0.632812 L 1.339844 0.632812 C 1.054688 0.632812 0.824219 0.546875 0.648438 0.367188 C 0.46875 0.1875 0.378906 -0.0429688 0.378906 -0.324219 L 0.378906 -13.882812 C 0.378906 -14.164062 0.46875 -14.394531 0.648438 -14.574219 C 0.824219 -14.75 1.054688 -14.839844 1.339844 -14.839844 L 6.210938 -14.839844 C 7.34375 -14.839844 8.222656 -14.53125 8.839844 -13.914062 C 9.457031 -13.296875 9.765625 -12.417969 9.765625 -11.285156 Z M 8.496094 -11.285156 C 8.496094 -12.070312 8.3125 -12.648438 7.941406 -13.015625 C 7.574219 -13.386719 6.996094 -13.570312 6.210938 -13.570312 L 1.339844 -13.570312 C 1.355469 -13.570312 1.375 -13.574219 1.398438 -13.582031 C 1.453125 -13.601562 1.5 -13.632812 1.542969 -13.675781 C 1.585938 -13.71875 1.617188 -13.769531 1.636719 -13.824219 C 1.644531 -13.847656 1.648438 -13.867188 1.648438 -13.882812 L 1.648438 -0.324219 C 1.648438 -0.339844 1.644531 -0.359375 1.636719 -0.382812 C 1.617188 -0.4375 1.585938 -0.484375 1.542969 -0.53125 C 1.5 -0.574219 1.453125 -0.605469 1.398438 -0.621094 C 1.375 -0.628906 1.355469 -0.632812 1.339844 -0.632812 L 3.328125 -0.632812 C 3.3125 -0.632812 3.292969 -0.628906 3.269531 -0.621094 C 3.214844 -0.605469 3.167969 -0.574219 3.125 -0.53125 C 3.078125 -0.484375 3.050781 -0.4375 3.03125 -0.382812 C 3.023438 -0.359375 3.019531 -0.339844 3.019531 -0.324219 L 3.019531 -4.917969 L 5.957031 -4.917969 L 7.050781 -0.425781 L 7.054688 -0.417969 C 7.042969 -0.464844 7.007812 -0.515625 6.953125 -0.5625 C 6.894531 -0.609375 6.835938 -0.632812 6.777344 -0.632812 L 8.765625 -0.632812 C 8.753906 -0.632812 8.738281 -0.628906 8.722656 -0.621094 C 8.648438 -0.597656 8.582031 -0.550781 8.53125 -0.480469 C 8.476562 -0.410156 8.445312 -0.335938 8.4375 -0.253906 C 8.4375 -0.222656 8.4375 -0.207031 8.441406 -0.195312 L 8.4375 -0.207031 L 7.273438 -5.023438 L 7.660156 -5.265625 C 8.21875 -5.617188 8.496094 -6.261719 8.496094 -7.203125 Z M 3.652344 -7.535156 L 5.683594 -7.535156 C 5.75 -7.535156 5.800781 -7.539062 5.835938 -7.550781 C 5.84375 -7.554688 5.847656 -7.554688 5.851562 -7.558594 C 5.847656 -7.554688 5.84375 -7.554688 5.84375 -7.550781 C 5.839844 -7.546875 5.835938 -7.546875 5.835938 -7.542969 C 5.835938 -7.546875 5.839844 -7.550781 5.839844 -7.558594 C 5.855469 -7.59375 5.859375 -7.644531 5.859375 -7.710938 L 5.859375 -10.777344 C 5.859375 -10.84375 5.855469 -10.894531 5.839844 -10.929688 C 5.839844 -10.9375 5.835938 -10.941406 5.835938 -10.945312 C 5.835938 -10.941406 5.839844 -10.9375 5.84375 -10.9375 C 5.84375 -10.933594 5.847656 -10.929688 5.851562 -10.929688 C 5.847656 -10.929688 5.84375 -10.933594 5.835938 -10.933594 C 5.800781 -10.949219 5.75 -10.953125 5.683594 -10.953125 L 3.652344 -10.953125 L 3.652344 -11.585938 L 4.289062 -11.585938 L 4.289062 -6.898438 L 3.652344 -6.898438 Z M 3.019531 -6.265625 L 3.019531 -12.222656 L 5.683594 -12.222656 C 6.128906 -12.222656 6.480469 -12.09375 6.738281 -11.832031 C 7 -11.574219 7.128906 -11.222656 7.128906 -10.777344 L 7.128906 -7.710938 C 7.128906 -7.265625 7 -6.914062 6.738281 -6.65625 C 6.480469 -6.394531 6.128906 -6.265625 5.683594 -6.265625 Z M 3.019531 -6.265625 "/></g></g><g style="fill:#b21a22;fill-opacity:1;"><g transform="translate(33.770902, 41.826959)"><path style="stroke:none" d="M 10.59375 0.632812 L 8.625 0.632812 C 8.378906 0.632812 8.167969 0.558594 7.996094 0.40625 C 7.835938 0.265625 7.730469 0.0820312 7.679688 -0.152344 L 8.300781 -0.285156 L 7.683594 -0.128906 L 7.035156 -2.683594 L 7.652344 -2.839844 L 7.652344 -2.207031 L 3.835938 -2.207031 L 3.835938 -2.839844 L 4.453125 -2.691406 L 3.824219 -0.132812 L 3.207031 -0.285156 L 3.828125 -0.152344 C 3.777344 0.0820312 3.671875 0.265625 3.511719 0.40625 C 3.339844 0.558594 3.128906 0.632812 2.882812 0.632812 L 0.894531 0.632812 C 0.5625 0.632812 0.3125 0.523438 0.140625 0.300781 C -0.0351562 0.0703125 -0.0742188 -0.203125 0.0195312 -0.523438 L 0.628906 -0.34375 L 0.0117188 -0.496094 L 3.382812 -14.074219 L 3.996094 -13.921875 L 3.378906 -14.054688 C 3.429688 -14.292969 3.539062 -14.484375 3.710938 -14.625 C 3.886719 -14.769531 4.097656 -14.839844 4.34375 -14.839844 L 7.164062 -14.839844 C 7.410156 -14.839844 7.621094 -14.769531 7.796875 -14.625 C 7.964844 -14.484375 8.078125 -14.292969 8.128906 -14.054688 L 7.507812 -13.921875 L 8.125 -14.074219 L 11.492188 -0.496094 L 10.878906 -0.34375 L 11.484375 -0.523438 C 11.582031 -0.195312 11.535156 0.0859375 11.347656 0.316406 C 11.171875 0.527344 10.921875 0.632812 10.59375 0.632812 Z M 10.59375 -0.632812 C 10.597656 -0.632812 10.597656 -0.632812 10.601562 -0.632812 C 10.601562 -0.632812 10.601562 -0.632812 10.597656 -0.632812 C 10.585938 -0.632812 10.574219 -0.628906 10.558594 -0.625 C 10.484375 -0.601562 10.421875 -0.554688 10.367188 -0.488281 C 10.304688 -0.414062 10.273438 -0.332031 10.265625 -0.242188 C 10.261719 -0.210938 10.265625 -0.183594 10.269531 -0.167969 L 10.265625 -0.179688 L 6.890625 -13.777344 L 6.886719 -13.789062 C 6.898438 -13.738281 6.933594 -13.691406 6.988281 -13.644531 C 7.046875 -13.597656 7.105469 -13.570312 7.164062 -13.570312 L 4.34375 -13.570312 C 4.398438 -13.570312 4.457031 -13.597656 4.519531 -13.644531 C 4.574219 -13.691406 4.609375 -13.738281 4.617188 -13.789062 L 4.617188 -13.777344 L 1.242188 -0.179688 L 1.238281 -0.167969 C 1.242188 -0.179688 1.242188 -0.199219 1.242188 -0.230469 C 1.234375 -0.316406 1.203125 -0.398438 1.148438 -0.472656 C 1.09375 -0.542969 1.027344 -0.59375 0.949219 -0.621094 C 0.921875 -0.628906 0.902344 -0.632812 0.894531 -0.632812 L 2.882812 -0.632812 C 2.8125 -0.632812 2.742188 -0.605469 2.675781 -0.546875 C 2.625 -0.503906 2.59375 -0.460938 2.585938 -0.417969 L 2.589844 -0.425781 L 3.339844 -3.476562 L 8.144531 -3.476562 L 8.917969 -0.429688 L 8.921875 -0.417969 C 8.910156 -0.460938 8.882812 -0.503906 8.828125 -0.546875 C 8.765625 -0.605469 8.695312 -0.632812 8.625 -0.632812 Z M 6.402344 -5.050781 L 5.125 -10.570312 L 5.742188 -10.714844 L 6.359375 -10.570312 L 5.082031 -5.050781 L 4.464844 -5.195312 L 4.464844 -5.828125 L 7.023438 -5.828125 L 7.023438 -5.195312 Z M 7.820312 -4.5625 L 3.667969 -4.5625 L 5.125 -10.859375 L 6.359375 -10.859375 L 7.640625 -5.339844 Z M 7.820312 -4.5625 "/></g></g><g style="fill:#b21a22;fill-opacity:1;"><g transform="translate(45.273892, 41.826959)"><path style="stroke:none" d="M 9.785156 -11.285156 L 9.785156 -9.089844 C 9.785156 -8.808594 9.699219 -8.578125 9.519531 -8.398438 C 9.34375 -8.222656 9.109375 -8.132812 8.828125 -8.132812 L 6.921875 -8.132812 C 6.636719 -8.132812 6.40625 -8.222656 6.226562 -8.398438 C 6.050781 -8.578125 5.960938 -8.808594 5.960938 -9.089844 L 5.960938 -10.753906 C 5.960938 -10.824219 5.957031 -10.875 5.941406 -10.910156 C 5.941406 -10.917969 5.9375 -10.921875 5.9375 -10.925781 C 5.9375 -10.921875 5.941406 -10.917969 5.945312 -10.917969 C 5.945312 -10.914062 5.949219 -10.910156 5.953125 -10.910156 C 5.949219 -10.910156 5.945312 -10.914062 5.9375 -10.914062 C 5.902344 -10.925781 5.851562 -10.933594 5.785156 -10.933594 L 4.484375 -10.933594 C 4.417969 -10.933594 4.367188 -10.925781 4.332031 -10.914062 C 4.324219 -10.914062 4.320312 -10.910156 4.316406 -10.910156 C 4.320312 -10.910156 4.320312 -10.914062 4.324219 -10.917969 C 4.328125 -10.917969 4.328125 -10.921875 4.332031 -10.925781 C 4.328125 -10.921875 4.328125 -10.917969 4.324219 -10.910156 C 4.3125 -10.875 4.308594 -10.824219 4.308594 -10.753906 L 4.308594 -3.390625 C 4.308594 -3.324219 4.3125 -3.269531 4.324219 -3.234375 C 4.328125 -3.226562 4.328125 -3.222656 4.332031 -3.222656 C 4.328125 -3.222656 4.328125 -3.226562 4.324219 -3.230469 C 4.320312 -3.230469 4.320312 -3.234375 4.316406 -3.234375 C 4.320312 -3.234375 4.324219 -3.230469 4.332031 -3.230469 C 4.367188 -3.21875 4.417969 -3.210938 4.484375 -3.210938 L 5.785156 -3.210938 C 5.851562 -3.210938 5.902344 -3.21875 5.9375 -3.230469 C 5.945312 -3.230469 5.949219 -3.234375 5.953125 -3.234375 C 5.949219 -3.234375 5.945312 -3.230469 5.945312 -3.230469 C 5.941406 -3.226562 5.9375 -3.222656 5.9375 -3.222656 C 5.9375 -3.222656 5.941406 -3.226562 5.941406 -3.234375 C 5.957031 -3.269531 5.960938 -3.324219 5.960938 -3.390625 L 5.960938 -5.113281 C 5.960938 -5.398438 6.050781 -5.628906 6.226562 -5.804688 C 6.40625 -5.984375 6.636719 -6.074219 6.921875 -6.074219 L 8.828125 -6.074219 C 9.109375 -6.074219 9.34375 -5.984375 9.519531 -5.804688 C 9.699219 -5.628906 9.785156 -5.398438 9.785156 -5.113281 L 9.785156 -2.921875 C 9.785156 -1.800781 9.472656 -0.925781 8.851562 -0.300781 C 8.226562 0.320312 7.351562 0.632812 6.230469 0.632812 L 3.957031 0.632812 C 2.835938 0.632812 1.960938 0.324219 1.332031 -0.300781 C 0.695312 -0.925781 0.378906 -1.796875 0.378906 -2.921875 L 0.378906 -11.285156 C 0.378906 -12.421875 0.699219 -13.300781 1.332031 -13.917969 C 1.964844 -14.53125 2.839844 -14.839844 3.957031 -14.839844 L 6.230469 -14.839844 C 7.351562 -14.839844 8.222656 -14.53125 8.847656 -13.917969 C 9.472656 -13.296875 9.785156 -12.421875 9.785156 -11.285156 Z M 8.519531 -11.285156 C 8.519531 -12.066406 8.332031 -12.644531 7.957031 -13.011719 C 7.578125 -13.386719 7.003906 -13.570312 6.230469 -13.570312 L 3.957031 -13.570312 C 3.183594 -13.570312 2.601562 -13.382812 2.21875 -13.011719 C 1.839844 -12.640625 1.648438 -12.066406 1.648438 -11.285156 L 1.648438 -2.921875 C 1.648438 -2.152344 1.839844 -1.578125 2.222656 -1.203125 C 2.605469 -0.824219 3.183594 -0.632812 3.957031 -0.632812 L 6.230469 -0.632812 C 7.003906 -0.632812 7.578125 -0.824219 7.953125 -1.199219 C 8.328125 -1.574219 8.519531 -2.152344 8.519531 -2.921875 L 8.519531 -5.113281 C 8.519531 -5.097656 8.523438 -5.078125 8.53125 -5.054688 C 8.546875 -5 8.578125 -4.953125 8.621094 -4.910156 C 8.667969 -4.867188 8.714844 -4.835938 8.769531 -4.816406 C 8.792969 -4.808594 8.8125 -4.804688 8.828125 -4.804688 L 6.921875 -4.804688 C 6.933594 -4.804688 6.953125 -4.808594 6.980469 -4.816406 C 7.03125 -4.835938 7.082031 -4.867188 7.125 -4.910156 C 7.167969 -4.953125 7.199219 -5 7.21875 -5.054688 C 7.226562 -5.078125 7.230469 -5.097656 7.230469 -5.113281 L 7.230469 -3.390625 C 7.230469 -2.941406 7.101562 -2.589844 6.839844 -2.332031 C 6.582031 -2.074219 6.230469 -1.941406 5.785156 -1.941406 L 4.484375 -1.941406 C 4.039062 -1.941406 3.6875 -2.074219 3.425781 -2.332031 C 3.167969 -2.589844 3.039062 -2.941406 3.039062 -3.390625 L 3.039062 -10.753906 C 3.039062 -11.203125 3.167969 -11.554688 3.425781 -11.8125 C 3.6875 -12.070312 4.039062 -12.203125 4.484375 -12.203125 L 5.785156 -12.203125 C 6.230469 -12.203125 6.582031 -12.070312 6.839844 -11.8125 C 7.101562 -11.554688 7.230469 -11.203125 7.230469 -10.753906 L 7.230469 -9.089844 C 7.230469 -9.105469 7.226562 -9.125 7.21875 -9.148438 C 7.199219 -9.203125 7.167969 -9.253906 7.125 -9.296875 C 7.082031 -9.339844 7.03125 -9.371094 6.980469 -9.390625 C 6.953125 -9.398438 6.933594 -9.402344 6.921875 -9.402344 L 8.828125 -9.402344 C 8.8125 -9.402344 8.792969 -9.398438 8.769531 -9.390625 C 8.714844 -9.371094 8.667969 -9.339844 8.621094 -9.296875 C 8.578125 -9.253906 8.546875 -9.203125 8.53125 -9.148438 C 8.523438 -9.125 8.519531 -9.105469 8.519531 -9.089844 Z M 8.519531 -11.285156 "/></g></g><g style="fill:#b21a22;fill-opacity:1;"><g transform="translate(55.43791, 41.826959)"><path style="stroke:none" d="M 9.699219 0.632812 L 7.550781 0.632812 C 7.320312 0.632812 7.117188 0.574219 6.933594 0.457031 C 6.765625 0.34375 6.628906 0.191406 6.523438 -0.0078125 L 3.960938 -5.027344 L 4.527344 -5.316406 L 5.089844 -5.023438 L 4.335938 -3.582031 L 3.773438 -3.875 L 4.410156 -3.875 L 4.410156 -0.40625 C 4.410156 -0.09375 4.3125 0.15625 4.121094 0.347656 C 3.929688 0.539062 3.679688 0.632812 3.367188 0.632812 L 1.421875 0.632812 C 1.109375 0.632812 0.859375 0.539062 0.667969 0.347656 C 0.476562 0.15625 0.378906 -0.09375 0.378906 -0.40625 L 0.378906 -13.800781 C 0.378906 -14.109375 0.476562 -14.359375 0.667969 -14.550781 C 0.859375 -14.746094 1.109375 -14.839844 1.421875 -14.839844 L 3.367188 -14.839844 C 3.679688 -14.839844 3.929688 -14.746094 4.121094 -14.550781 C 4.3125 -14.359375 4.410156 -14.109375 4.410156 -13.800781 L 4.410156 -8.523438 L 3.773438 -8.523438 L 3.226562 -8.84375 L 6.351562 -14.21875 L 6.898438 -13.902344 L 6.339844 -14.199219 C 6.445312 -14.398438 6.582031 -14.550781 6.75 -14.660156 C 6.933594 -14.78125 7.140625 -14.839844 7.367188 -14.839844 L 9.496094 -14.839844 C 9.664062 -14.839844 9.8125 -14.808594 9.949219 -14.75 C 10.117188 -14.671875 10.246094 -14.558594 10.34375 -14.40625 C 10.453125 -14.238281 10.5 -14.050781 10.480469 -13.851562 C 10.46875 -13.695312 10.417969 -13.542969 10.324219 -13.390625 L 9.78125 -13.71875 L 10.332031 -13.40625 L 6.882812 -7.335938 L 6.332031 -7.652344 L 6.894531 -7.941406 L 10.570312 -0.753906 C 10.742188 -0.40625 10.742188 -0.0859375 10.566406 0.199219 C 10.386719 0.488281 10.097656 0.632812 9.699219 0.632812 Z M 9.699219 -0.632812 C 9.707031 -0.632812 9.710938 -0.632812 9.710938 -0.632812 C 9.695312 -0.632812 9.683594 -0.628906 9.664062 -0.621094 C 9.589844 -0.589844 9.53125 -0.539062 9.484375 -0.464844 C 9.441406 -0.394531 9.421875 -0.320312 9.425781 -0.242188 C 9.429688 -0.210938 9.433594 -0.191406 9.441406 -0.179688 L 5.609375 -7.667969 L 9.234375 -14.039062 L 9.238281 -14.046875 C 9.226562 -14.027344 9.222656 -14 9.21875 -13.960938 C 9.210938 -13.875 9.230469 -13.796875 9.277344 -13.71875 C 9.316406 -13.664062 9.363281 -13.621094 9.425781 -13.59375 C 9.457031 -13.578125 9.480469 -13.570312 9.496094 -13.570312 L 7.367188 -13.570312 C 7.390625 -13.570312 7.417969 -13.582031 7.445312 -13.597656 C 7.453125 -13.605469 7.464844 -13.613281 7.46875 -13.617188 C 7.46875 -13.617188 7.464844 -13.613281 7.460938 -13.601562 L 7.453125 -13.59375 L 3.140625 -6.167969 L 3.140625 -13.800781 C 3.140625 -13.800781 3.140625 -13.804688 3.140625 -13.808594 C 3.140625 -13.808594 3.140625 -13.804688 3.140625 -13.804688 C 3.140625 -13.796875 3.144531 -13.789062 3.148438 -13.777344 C 3.164062 -13.734375 3.1875 -13.691406 3.226562 -13.65625 C 3.261719 -13.617188 3.300781 -13.59375 3.347656 -13.578125 C 3.355469 -13.574219 3.367188 -13.574219 3.375 -13.570312 C 3.375 -13.570312 3.371094 -13.570312 3.367188 -13.570312 L 1.421875 -13.570312 C 1.417969 -13.570312 1.414062 -13.570312 1.414062 -13.570312 C 1.421875 -13.574219 1.433594 -13.574219 1.445312 -13.578125 C 1.488281 -13.59375 1.527344 -13.617188 1.566406 -13.65625 C 1.601562 -13.691406 1.628906 -13.734375 1.640625 -13.777344 C 1.644531 -13.789062 1.648438 -13.796875 1.648438 -13.804688 C 1.648438 -13.804688 1.648438 -13.808594 1.648438 -13.808594 C 1.648438 -13.804688 1.648438 -13.800781 1.648438 -13.800781 L 1.648438 -0.40625 C 1.648438 -0.402344 1.648438 -0.402344 1.648438 -0.398438 C 1.648438 -0.398438 1.648438 -0.398438 1.648438 -0.402344 C 1.648438 -0.410156 1.644531 -0.417969 1.640625 -0.429688 C 1.628906 -0.472656 1.601562 -0.511719 1.566406 -0.550781 C 1.527344 -0.585938 1.488281 -0.613281 1.445312 -0.628906 C 1.433594 -0.628906 1.421875 -0.632812 1.414062 -0.632812 C 1.414062 -0.632812 1.417969 -0.632812 1.421875 -0.632812 L 3.367188 -0.632812 C 3.371094 -0.632812 3.375 -0.632812 3.375 -0.632812 C 3.367188 -0.632812 3.355469 -0.628906 3.347656 -0.628906 C 3.300781 -0.613281 3.261719 -0.585938 3.226562 -0.550781 C 3.1875 -0.511719 3.164062 -0.472656 3.148438 -0.429688 C 3.144531 -0.417969 3.140625 -0.410156 3.140625 -0.402344 C 3.140625 -0.398438 3.140625 -0.398438 3.140625 -0.398438 C 3.140625 -0.402344 3.140625 -0.402344 3.140625 -0.40625 L 3.140625 -4.03125 L 4.53125 -6.699219 L 7.640625 -0.601562 C 7.648438 -0.59375 7.648438 -0.589844 7.652344 -0.585938 C 7.644531 -0.59375 7.636719 -0.601562 7.625 -0.605469 C 7.597656 -0.625 7.574219 -0.632812 7.550781 -0.632812 Z M 9.699219 -0.632812 "/></g></g><g style="fill:#b21a22;fill-opacity:1;"><g transform="translate(66.311988, 41.826959)"><path style="stroke:none" d="M 0.378906 -6.371094 L 0.378906 -8.238281 C 0.378906 -8.550781 0.476562 -8.800781 0.667969 -8.992188 C 0.859375 -9.183594 1.109375 -9.28125 1.421875 -9.28125 L 4.628906 -9.28125 C 4.9375 -9.28125 5.1875 -9.183594 5.378906 -8.992188 C 5.570312 -8.800781 5.667969 -8.550781 5.667969 -8.238281 L 5.667969 -6.371094 C 5.667969 -6.0625 5.570312 -5.8125 5.378906 -5.621094 C 5.1875 -5.429688 4.9375 -5.332031 4.628906 -5.332031 L 1.421875 -5.332031 C 1.109375 -5.332031 0.859375 -5.429688 0.667969 -5.621094 C 0.476562 -5.8125 0.378906 -6.0625 0.378906 -6.371094 Z M 1.648438 -6.371094 C 1.648438 -6.371094 1.648438 -6.367188 1.648438 -6.367188 C 1.648438 -6.375 1.644531 -6.382812 1.640625 -6.394531 C 1.628906 -6.4375 1.601562 -6.480469 1.566406 -6.515625 C 1.527344 -6.554688 1.488281 -6.578125 1.445312 -6.59375 C 1.433594 -6.597656 1.421875 -6.597656 1.414062 -6.601562 C 1.414062 -6.601562 1.417969 -6.601562 1.421875 -6.601562 L 4.628906 -6.601562 C 4.628906 -6.601562 4.632812 -6.601562 4.632812 -6.601562 C 4.625 -6.597656 4.613281 -6.597656 4.605469 -6.59375 C 4.558594 -6.578125 4.519531 -6.554688 4.484375 -6.515625 C 4.445312 -6.480469 4.421875 -6.4375 4.40625 -6.394531 C 4.402344 -6.382812 4.398438 -6.375 4.398438 -6.367188 C 4.398438 -6.367188 4.398438 -6.371094 4.398438 -6.371094 L 4.398438 -8.238281 C 4.398438 -8.242188 4.398438 -8.246094 4.398438 -8.246094 C 4.398438 -8.238281 4.402344 -8.226562 4.40625 -8.214844 C 4.421875 -8.171875 4.445312 -8.132812 4.484375 -8.09375 C 4.519531 -8.058594 4.558594 -8.03125 4.605469 -8.019531 C 4.613281 -8.015625 4.625 -8.011719 4.632812 -8.011719 C 4.632812 -8.011719 4.628906 -8.011719 4.628906 -8.011719 L 1.421875 -8.011719 C 1.417969 -8.011719 1.414062 -8.011719 1.414062 -8.011719 C 1.421875 -8.011719 1.433594 -8.015625 1.445312 -8.019531 C 1.488281 -8.03125 1.527344 -8.058594 1.566406 -8.09375 C 1.601562 -8.132812 1.628906 -8.171875 1.640625 -8.214844 C 1.644531 -8.226562 1.648438 -8.238281 1.648438 -8.246094 C 1.648438 -8.246094 1.648438 -8.242188 1.648438 -8.238281 Z M 1.648438 -6.371094 "/></g></g><g style="fill:#b21a22;fill-opacity:1;"><g transform="translate(12.711825, 70.12006)"><path style="stroke:none" d="M 8.402344 -13.570312 L 0.933594 -13.570312 C 0.949219 -13.570312 0.96875 -13.574219 0.992188 -13.582031 C 1.046875 -13.601562 1.09375 -13.632812 1.136719 -13.675781 C 1.183594 -13.71875 1.210938 -13.769531 1.230469 -13.824219 C 1.238281 -13.847656 1.242188 -13.867188 1.242188 -13.882812 L 1.242188 -11.851562 C 1.242188 -11.867188 1.238281 -11.886719 1.230469 -11.910156 C 1.210938 -11.964844 1.183594 -12.011719 1.136719 -12.054688 C 1.09375 -12.101562 1.046875 -12.132812 0.992188 -12.148438 C 0.96875 -12.15625 0.949219 -12.160156 0.933594 -12.160156 L 3.921875 -12.160156 L 3.921875 -0.324219 C 3.921875 -0.339844 3.917969 -0.359375 3.910156 -0.382812 C 3.890625 -0.4375 3.859375 -0.484375 3.816406 -0.53125 C 3.773438 -0.574219 3.726562 -0.605469 3.671875 -0.621094 C 3.644531 -0.628906 3.625 -0.632812 3.613281 -0.632812 L 5.722656 -0.632812 C 5.707031 -0.632812 5.6875 -0.628906 5.664062 -0.621094 C 5.609375 -0.605469 5.5625 -0.574219 5.519531 -0.53125 C 5.472656 -0.484375 5.445312 -0.4375 5.425781 -0.382812 C 5.417969 -0.359375 5.414062 -0.339844 5.414062 -0.324219 L 5.414062 -12.160156 L 8.402344 -12.160156 C 8.386719 -12.160156 8.367188 -12.15625 8.34375 -12.148438 C 8.289062 -12.132812 8.242188 -12.101562 8.195312 -12.054688 C 8.152344 -12.011719 8.121094 -11.964844 8.105469 -11.910156 C 8.097656 -11.886719 8.09375 -11.867188 8.09375 -11.851562 L 8.09375 -13.882812 C 8.09375 -13.867188 8.097656 -13.847656 8.105469 -13.824219 C 8.121094 -13.769531 8.152344 -13.71875 8.195312 -13.675781 C 8.242188 -13.632812 8.289062 -13.601562 8.34375 -13.582031 C 8.367188 -13.574219 8.386719 -13.570312 8.402344 -13.570312 Z M 8.402344 -14.839844 C 8.683594 -14.839844 8.914062 -14.75 9.09375 -14.574219 C 9.273438 -14.394531 9.359375 -14.164062 9.359375 -13.882812 L 9.359375 -11.851562 C 9.359375 -11.566406 9.273438 -11.335938 9.09375 -11.160156 C 8.914062 -10.980469 8.683594 -10.894531 8.402344 -10.894531 L 6.046875 -10.894531 L 6.046875 -11.527344 L 6.683594 -11.527344 L 6.683594 -0.324219 C 6.683594 -0.0429688 6.59375 0.1875 6.414062 0.367188 C 6.238281 0.546875 6.007812 0.632812 5.722656 0.632812 L 3.613281 0.632812 C 3.328125 0.632812 3.097656 0.546875 2.921875 0.367188 C 2.742188 0.1875 2.652344 -0.0429688 2.652344 -0.324219 L 2.652344 -11.527344 L 3.289062 -11.527344 L 3.289062 -10.894531 L 0.933594 -10.894531 C 0.648438 -10.894531 0.417969 -10.980469 0.242188 -11.160156 C 0.0625 -11.335938 -0.0273438 -11.566406 -0.0273438 -11.851562 L -0.0273438 -13.882812 C -0.0273438 -14.164062 0.0625 -14.394531 0.242188 -14.574219 C 0.417969 -14.75 0.648438 -14.839844 0.933594 -14.839844 Z M 8.402344 -14.839844 "/></g></g><g style="fill:#b21a22;fill-opacity:1;"><g transform="translate(22.044055, 70.12006)"><path style="stroke:none" d="M 0.378906 -2.921875 L 0.378906 -11.285156 C 0.378906 -12.421875 0.695312 -13.296875 1.320312 -13.917969 C 1.945312 -14.53125 2.816406 -14.839844 3.9375 -14.839844 L 6.210938 -14.839844 C 7.34375 -14.839844 8.222656 -14.53125 8.839844 -13.914062 C 9.457031 -13.296875 9.765625 -12.417969 9.765625 -11.285156 L 9.765625 -2.921875 C 9.765625 -1.800781 9.457031 -0.929688 8.84375 -0.304688 C 8.226562 0.320312 7.347656 0.632812 6.210938 0.632812 L 3.9375 0.632812 C 2.816406 0.632812 1.941406 0.320312 1.316406 -0.300781 C 0.691406 -0.925781 0.378906 -1.800781 0.378906 -2.921875 Z M 1.648438 -2.921875 C 1.648438 -2.152344 1.835938 -1.574219 2.214844 -1.199219 C 2.589844 -0.824219 3.164062 -0.632812 3.9375 -0.632812 L 6.210938 -0.632812 C 6.992188 -0.632812 7.570312 -0.820312 7.941406 -1.195312 C 8.3125 -1.574219 8.496094 -2.148438 8.496094 -2.921875 L 8.496094 -11.285156 C 8.496094 -12.070312 8.3125 -12.648438 7.941406 -13.015625 C 7.574219 -13.386719 6.996094 -13.570312 6.210938 -13.570312 L 3.9375 -13.570312 C 3.164062 -13.570312 2.589844 -13.386719 2.210938 -13.011719 C 1.835938 -12.644531 1.648438 -12.066406 1.648438 -11.285156 Z M 4.464844 -3.253906 L 5.761719 -3.253906 C 5.832031 -3.253906 5.882812 -3.257812 5.917969 -3.269531 C 5.925781 -3.273438 5.929688 -3.273438 5.933594 -3.277344 C 5.929688 -3.273438 5.925781 -3.273438 5.921875 -3.269531 C 5.921875 -3.265625 5.917969 -3.261719 5.917969 -3.261719 C 5.917969 -3.265625 5.921875 -3.269531 5.921875 -3.273438 C 5.933594 -3.3125 5.941406 -3.363281 5.941406 -3.429688 L 5.941406 -10.777344 C 5.941406 -10.84375 5.933594 -10.894531 5.921875 -10.929688 C 5.921875 -10.9375 5.917969 -10.941406 5.917969 -10.945312 C 5.917969 -10.941406 5.921875 -10.9375 5.921875 -10.9375 C 5.925781 -10.933594 5.929688 -10.929688 5.933594 -10.929688 C 5.929688 -10.929688 5.925781 -10.933594 5.917969 -10.933594 C 5.882812 -10.949219 5.832031 -10.953125 5.761719 -10.953125 L 4.464844 -10.953125 C 4.398438 -10.953125 4.347656 -10.949219 4.308594 -10.933594 C 4.304688 -10.933594 4.296875 -10.929688 4.296875 -10.929688 C 4.296875 -10.929688 4.300781 -10.933594 4.304688 -10.9375 C 4.308594 -10.9375 4.308594 -10.941406 4.3125 -10.945312 C 4.308594 -10.941406 4.308594 -10.9375 4.304688 -10.929688 C 4.292969 -10.894531 4.289062 -10.84375 4.289062 -10.777344 L 4.289062 -3.429688 C 4.289062 -3.363281 4.292969 -3.3125 4.304688 -3.273438 C 4.308594 -3.269531 4.308594 -3.265625 4.3125 -3.261719 C 4.308594 -3.261719 4.308594 -3.265625 4.304688 -3.269531 C 4.300781 -3.273438 4.296875 -3.273438 4.296875 -3.277344 C 4.296875 -3.273438 4.304688 -3.273438 4.308594 -3.269531 C 4.347656 -3.257812 4.398438 -3.253906 4.464844 -3.253906 Z M 4.464844 -1.984375 C 4.019531 -1.984375 3.667969 -2.113281 3.40625 -2.371094 C 3.148438 -2.632812 3.019531 -2.984375 3.019531 -3.429688 L 3.019531 -10.777344 C 3.019531 -11.222656 3.148438 -11.574219 3.40625 -11.832031 C 3.667969 -12.09375 4.019531 -12.222656 4.464844 -12.222656 L 5.761719 -12.222656 C 6.210938 -12.222656 6.5625 -12.09375 6.820312 -11.832031 C 7.078125 -11.574219 7.210938 -11.222656 7.210938 -10.777344 L 7.210938 -3.429688 C 7.210938 -2.984375 7.078125 -2.632812 6.820312 -2.371094 C 6.5625 -2.113281 6.210938 -1.984375 5.761719 -1.984375 Z M 4.464844 -1.984375 "/></g></g><g style="fill:#b21a22;fill-opacity:1;"><g transform="translate(32.187783, 70.12006)"><path style="stroke:none" d="M 0.378906 -2.921875 L 0.378906 -11.285156 C 0.378906 -12.421875 0.695312 -13.296875 1.320312 -13.917969 C 1.945312 -14.53125 2.816406 -14.839844 3.9375 -14.839844 L 6.210938 -14.839844 C 7.34375 -14.839844 8.222656 -14.53125 8.839844 -13.914062 C 9.457031 -13.296875 9.765625 -12.417969 9.765625 -11.285156 L 9.765625 -2.921875 C 9.765625 -1.800781 9.457031 -0.929688 8.84375 -0.304688 C 8.226562 0.320312 7.347656 0.632812 6.210938 0.632812 L 3.9375 0.632812 C 2.816406 0.632812 1.941406 0.320312 1.316406 -0.300781 C 0.691406 -0.925781 0.378906 -1.800781 0.378906 -2.921875 Z M 1.648438 -2.921875 C 1.648438 -2.152344 1.835938 -1.574219 2.214844 -1.199219 C 2.589844 -0.824219 3.164062 -0.632812 3.9375 -0.632812 L 6.210938 -0.632812 C 6.992188 -0.632812 7.570312 -0.820312 7.941406 -1.195312 C 8.3125 -1.574219 8.496094 -2.148438 8.496094 -2.921875 L 8.496094 -11.285156 C 8.496094 -12.070312 8.3125 -12.648438 7.941406 -13.015625 C 7.574219 -13.386719 6.996094 -13.570312 6.210938 -13.570312 L 3.9375 -13.570312 C 3.164062 -13.570312 2.589844 -13.386719 2.210938 -13.011719 C 1.835938 -12.644531 1.648438 -12.066406 1.648438 -11.285156 Z M 4.464844 -3.253906 L 5.761719 -3.253906 C 5.832031 -3.253906 5.882812 -3.257812 5.917969 -3.269531 C 5.925781 -3.273438 5.929688 -3.273438 5.933594 -3.277344 C 5.929688 -3.273438 5.925781 -3.273438 5.921875 -3.269531 C 5.921875 -3.265625 5.917969 -3.261719 5.917969 -3.261719 C 5.917969 -3.265625 5.921875 -3.269531 5.921875 -3.273438 C 5.933594 -3.3125 5.941406 -3.363281 5.941406 -3.429688 L 5.941406 -10.777344 C 5.941406 -10.84375 5.933594 -10.894531 5.921875 -10.929688 C 5.921875 -10.9375 5.917969 -10.941406 5.917969 -10.945312 C 5.917969 -10.941406 5.921875 -10.9375 5.921875 -10.9375 C 5.925781 -10.933594 5.929688 -10.929688 5.933594 -10.929688 C 5.929688 -10.929688 5.925781 -10.933594 5.917969 -10.933594 C 5.882812 -10.949219 5.832031 -10.953125 5.761719 -10.953125 L 4.464844 -10.953125 C 4.398438 -10.953125 4.347656 -10.949219 4.308594 -10.933594 C 4.304688 -10.933594 4.296875 -10.929688 4.296875 -10.929688 C 4.296875 -10.929688 4.300781 -10.933594 4.304688 -10.9375 C 4.308594 -10.9375 4.308594 -10.941406 4.3125 -10.945312 C 4.308594 -10.941406 4.308594 -10.9375 4.304688 -10.929688 C 4.292969 -10.894531 4.289062 -10.84375 4.289062 -10.777344 L 4.289062 -3.429688 C 4.289062 -3.363281 4.292969 -3.3125 4.304688 -3.273438 C 4.308594 -3.269531 4.308594 -3.265625 4.3125 -3.261719 C 4.308594 -3.261719 4.308594 -3.265625 4.304688 -3.269531 C 4.300781 -3.273438 4.296875 -3.273438 4.296875 -3.277344 C 4.296875 -3.273438 4.304688 -3.273438 4.308594 -3.269531 C 4.347656 -3.257812 4.398438 -3.253906 4.464844 -3.253906 Z M 4.464844 -1.984375 C 4.019531 -1.984375 3.667969 -2.113281 3.40625 -2.371094 C 3.148438 -2.632812 3.019531 -2.984375 3.019531 -3.429688 L 3.019531 -10.777344 C 3.019531 -11.222656 3.148438 -11.574219 3.40625 -11.832031 C 3.667969 -12.09375 4.019531 -12.222656 4.464844 -12.222656 L 5.761719 -12.222656 C 6.210938 -12.222656 6.5625 -12.09375 6.820312 -11.832031 C 7.078125 -11.574219 7.210938 -11.222656 7.210938 -10.777344 L 7.210938 -3.429688 C 7.210938 -2.984375 7.078125 -2.632812 6.820312 -2.371094 C 6.5625 -2.113281 6.210938 -1.984375 5.761719 -1.984375 Z M 4.464844 -1.984375 "/></g></g><g style="fill:#b21a22;fill-opacity:1;"><g transform="translate(42.331511, 70.12006)"><path style="stroke:none" d="M 3.140625 -2.679688 L 3.140625 -13.882812 C 3.140625 -13.867188 3.144531 -13.847656 3.152344 -13.824219 C 3.171875 -13.769531 3.203125 -13.71875 3.246094 -13.675781 C 3.289062 -13.632812 3.335938 -13.601562 3.390625 -13.582031 C 3.414062 -13.574219 3.433594 -13.570312 3.449219 -13.570312 L 1.339844 -13.570312 C 1.355469 -13.570312 1.375 -13.574219 1.398438 -13.582031 C 1.453125 -13.601562 1.5 -13.632812 1.542969 -13.675781 C 1.585938 -13.71875 1.617188 -13.769531 1.636719 -13.824219 C 1.644531 -13.847656 1.648438 -13.867188 1.648438 -13.882812 L 1.648438 -0.324219 C 1.648438 -0.339844 1.644531 -0.359375 1.636719 -0.382812 C 1.617188 -0.4375 1.585938 -0.484375 1.542969 -0.53125 C 1.5 -0.574219 1.453125 -0.605469 1.398438 -0.621094 C 1.375 -0.628906 1.355469 -0.632812 1.339844 -0.632812 L 7.792969 -0.632812 C 7.777344 -0.632812 7.757812 -0.628906 7.734375 -0.621094 C 7.679688 -0.605469 7.632812 -0.574219 7.589844 -0.53125 C 7.542969 -0.484375 7.511719 -0.4375 7.496094 -0.382812 C 7.488281 -0.359375 7.484375 -0.339844 7.484375 -0.324219 L 7.484375 -2.355469 C 7.484375 -2.339844 7.488281 -2.320312 7.496094 -2.296875 C 7.511719 -2.242188 7.542969 -2.191406 7.589844 -2.148438 C 7.632812 -2.105469 7.679688 -2.074219 7.734375 -2.058594 C 7.757812 -2.046875 7.777344 -2.042969 7.792969 -2.042969 L 3.140625 -2.042969 Z M 4.410156 -2.679688 L 3.773438 -2.679688 L 3.773438 -3.3125 L 7.792969 -3.3125 C 8.078125 -3.3125 8.308594 -3.222656 8.484375 -3.046875 C 8.664062 -2.867188 8.75 -2.636719 8.75 -2.355469 L 8.75 -0.324219 C 8.75 -0.0429688 8.664062 0.1875 8.484375 0.367188 C 8.308594 0.546875 8.078125 0.632812 7.792969 0.632812 L 1.339844 0.632812 C 1.054688 0.632812 0.824219 0.546875 0.648438 0.367188 C 0.46875 0.1875 0.378906 -0.0429688 0.378906 -0.324219 L 0.378906 -13.882812 C 0.378906 -14.164062 0.46875 -14.394531 0.648438 -14.574219 C 0.824219 -14.75 1.054688 -14.839844 1.339844 -14.839844 L 3.449219 -14.839844 C 3.734375 -14.839844 3.964844 -14.75 4.140625 -14.574219 C 4.320312 -14.394531 4.410156 -14.164062 4.410156 -13.882812 Z M 4.410156 -2.679688 "/></g></g><g style="fill:#b21a22;fill-opacity:1;"><g transform="translate(51.460865, 70.12006)"><path style="stroke:none" d="M 9.785156 -11.285156 L 9.785156 -8.542969 C 9.785156 -7.996094 9.605469 -7.53125 9.246094 -7.152344 C 8.910156 -6.796875 8.488281 -6.570312 7.988281 -6.480469 L 7.875 -7.101562 L 8.507812 -7.101562 L 8.507812 -7.0625 L 7.875 -7.0625 L 7.96875 -7.691406 C 8.480469 -7.613281 8.910156 -7.390625 9.253906 -7.015625 C 9.609375 -6.628906 9.785156 -6.164062 9.785156 -5.621094 L 9.785156 -2.921875 C 9.785156 -1.800781 9.472656 -0.925781 8.851562 -0.300781 C 8.226562 0.320312 7.34375 0.632812 6.210938 0.632812 L 1.339844 0.632812 C 1.054688 0.632812 0.824219 0.546875 0.648438 0.367188 C 0.46875 0.1875 0.378906 -0.0429688 0.378906 -0.324219 L 0.378906 -13.882812 C 0.378906 -14.164062 0.46875 -14.394531 0.648438 -14.574219 C 0.824219 -14.75 1.054688 -14.839844 1.339844 -14.839844 L 6.210938 -14.839844 C 7.34375 -14.839844 8.222656 -14.53125 8.847656 -13.917969 C 9.472656 -13.296875 9.785156 -12.421875 9.785156 -11.285156 Z M 8.519531 -11.285156 C 8.519531 -12.066406 8.332031 -12.644531 7.957031 -13.011719 C 7.578125 -13.386719 6.996094 -13.570312 6.210938 -13.570312 L 1.339844 -13.570312 C 1.355469 -13.570312 1.375 -13.574219 1.398438 -13.582031 C 1.453125 -13.601562 1.5 -13.632812 1.542969 -13.675781 C 1.585938 -13.71875 1.617188 -13.769531 1.636719 -13.824219 C 1.644531 -13.847656 1.648438 -13.867188 1.648438 -13.882812 L 1.648438 -0.324219 C 1.648438 -0.339844 1.644531 -0.359375 1.636719 -0.382812 C 1.617188 -0.4375 1.585938 -0.484375 1.542969 -0.53125 C 1.5 -0.574219 1.453125 -0.605469 1.398438 -0.621094 C 1.375 -0.628906 1.355469 -0.632812 1.339844 -0.632812 L 6.210938 -0.632812 C 6.996094 -0.632812 7.578125 -0.824219 7.953125 -1.199219 C 8.328125 -1.574219 8.519531 -2.152344 8.519531 -2.921875 L 8.519531 -5.621094 C 8.519531 -5.835938 8.453125 -6.011719 8.320312 -6.15625 C 8.179688 -6.308594 8 -6.402344 7.78125 -6.433594 L 7.238281 -6.515625 L 7.238281 -7.628906 L 7.757812 -7.726562 C 7.988281 -7.769531 8.179688 -7.867188 8.328125 -8.027344 C 8.453125 -8.160156 8.519531 -8.332031 8.519531 -8.542969 Z M 5.941406 -9.214844 L 5.941406 -10.835938 C 5.941406 -10.902344 5.933594 -10.957031 5.921875 -10.992188 C 5.921875 -11 5.917969 -11.003906 5.917969 -11.003906 C 5.917969 -11.003906 5.921875 -11 5.921875 -10.996094 C 5.925781 -10.996094 5.929688 -10.992188 5.933594 -10.992188 C 5.929688 -10.992188 5.925781 -10.992188 5.917969 -10.996094 C 5.882812 -11.007812 5.832031 -11.015625 5.761719 -11.015625 L 3.53125 -11.015625 L 3.53125 -11.648438 L 4.164062 -11.648438 L 4.164062 -8.421875 L 3.53125 -8.421875 L 3.53125 -9.054688 L 5.761719 -9.054688 C 5.832031 -9.054688 5.886719 -9.0625 5.921875 -9.074219 C 5.929688 -9.078125 5.933594 -9.078125 5.9375 -9.082031 C 5.933594 -9.078125 5.933594 -9.078125 5.929688 -9.074219 C 5.925781 -9.070312 5.921875 -9.066406 5.921875 -9.0625 C 5.921875 -9.066406 5.921875 -9.066406 5.925781 -9.074219 C 5.933594 -9.105469 5.941406 -9.152344 5.941406 -9.214844 Z M 7.210938 -9.214844 C 7.210938 -8.769531 7.078125 -8.421875 6.816406 -8.164062 C 6.554688 -7.914062 6.207031 -7.789062 5.761719 -7.789062 L 2.898438 -7.789062 L 2.898438 -12.28125 L 5.761719 -12.28125 C 6.210938 -12.28125 6.5625 -12.152344 6.820312 -11.894531 C 7.078125 -11.636719 7.210938 -11.28125 7.210938 -10.835938 Z M 5.941406 -3.367188 L 5.941406 -4.929688 C 5.941406 -5 5.933594 -5.050781 5.921875 -5.085938 C 5.921875 -5.09375 5.917969 -5.097656 5.917969 -5.101562 C 5.917969 -5.097656 5.921875 -5.09375 5.921875 -5.089844 C 5.925781 -5.089844 5.929688 -5.085938 5.933594 -5.085938 C 5.929688 -5.085938 5.925781 -5.089844 5.917969 -5.089844 C 5.882812 -5.101562 5.832031 -5.109375 5.761719 -5.109375 L 3.53125 -5.109375 L 3.53125 -5.742188 L 4.164062 -5.742188 L 4.164062 -2.558594 L 3.53125 -2.558594 L 3.53125 -3.191406 L 5.761719 -3.191406 C 5.832031 -3.191406 5.882812 -3.199219 5.917969 -3.210938 C 5.925781 -3.210938 5.929688 -3.214844 5.933594 -3.214844 C 5.929688 -3.214844 5.925781 -3.210938 5.921875 -3.207031 C 5.921875 -3.207031 5.917969 -3.203125 5.917969 -3.199219 C 5.917969 -3.203125 5.921875 -3.207031 5.921875 -3.214844 C 5.933594 -3.25 5.941406 -3.300781 5.941406 -3.367188 Z M 7.210938 -3.367188 C 7.210938 -2.921875 7.078125 -2.570312 6.820312 -2.3125 C 6.5625 -2.050781 6.210938 -1.921875 5.761719 -1.921875 L 2.898438 -1.921875 L 2.898438 -6.378906 L 5.761719 -6.378906 C 6.210938 -6.378906 6.5625 -6.246094 6.820312 -5.988281 C 7.078125 -5.730469 7.210938 -5.378906 7.210938 -4.929688 Z M 7.210938 -3.367188 "/></g></g><g style="fill:#b21a22;fill-opacity:1;"><g transform="translate(61.624883, 70.12006)"><path style="stroke:none" d="M 10.59375 0.632812 L 8.625 0.632812 C 8.378906 0.632812 8.167969 0.558594 7.996094 0.40625 C 7.835938 0.265625 7.730469 0.0820312 7.679688 -0.152344 L 8.300781 -0.285156 L 7.683594 -0.128906 L 7.035156 -2.683594 L 7.652344 -2.839844 L 7.652344 -2.207031 L 3.835938 -2.207031 L 3.835938 -2.839844 L 4.453125 -2.691406 L 3.824219 -0.132812 L 3.207031 -0.285156 L 3.828125 -0.152344 C 3.777344 0.0820312 3.671875 0.265625 3.511719 0.40625 C 3.339844 0.558594 3.128906 0.632812 2.882812 0.632812 L 0.894531 0.632812 C 0.5625 0.632812 0.3125 0.523438 0.140625 0.300781 C -0.0351562 0.0703125 -0.0742188 -0.203125 0.0195312 -0.523438 L 0.628906 -0.34375 L 0.0117188 -0.496094 L 3.382812 -14.074219 L 3.996094 -13.921875 L 3.378906 -14.054688 C 3.429688 -14.292969 3.539062 -14.484375 3.710938 -14.625 C 3.886719 -14.769531 4.097656 -14.839844 4.34375 -14.839844 L 7.164062 -14.839844 C 7.410156 -14.839844 7.621094 -14.769531 7.796875 -14.625 C 7.964844 -14.484375 8.078125 -14.292969 8.128906 -14.054688 L 7.507812 -13.921875 L 8.125 -14.074219 L 11.492188 -0.496094 L 10.878906 -0.34375 L 11.484375 -0.523438 C 11.582031 -0.195312 11.535156 0.0859375 11.347656 0.316406 C 11.171875 0.527344 10.921875 0.632812 10.59375 0.632812 Z M 10.59375 -0.632812 C 10.597656 -0.632812 10.597656 -0.632812 10.601562 -0.632812 C 10.601562 -0.632812 10.601562 -0.632812 10.597656 -0.632812 C 10.585938 -0.632812 10.574219 -0.628906 10.558594 -0.625 C 10.484375 -0.601562 10.421875 -0.554688 10.367188 -0.488281 C 10.304688 -0.414062 10.273438 -0.332031 10.265625 -0.242188 C 10.261719 -0.210938 10.265625 -0.183594 10.269531 -0.167969 L 10.265625 -0.179688 L 6.890625 -13.777344 L 6.886719 -13.789062 C 6.898438 -13.738281 6.933594 -13.691406 6.988281 -13.644531 C 7.046875 -13.597656 7.105469 -13.570312 7.164062 -13.570312 L 4.34375 -13.570312 C 4.398438 -13.570312 4.457031 -13.597656 4.519531 -13.644531 C 4.574219 -13.691406 4.609375 -13.738281 4.617188 -13.789062 L 4.617188 -13.777344 L 1.242188 -0.179688 L 1.238281 -0.167969 C 1.242188 -0.179688 1.242188 -0.199219 1.242188 -0.230469 C 1.234375 -0.316406 1.203125 -0.398438 1.148438 -0.472656 C 1.09375 -0.542969 1.027344 -0.59375 0.949219 -0.621094 C 0.921875 -0.628906 0.902344 -0.632812 0.894531 -0.632812 L 2.882812 -0.632812 C 2.8125 -0.632812 2.742188 -0.605469 2.675781 -0.546875 C 2.625 -0.503906 2.59375 -0.460938 2.585938 -0.417969 L 2.589844 -0.425781 L 3.339844 -3.476562 L 8.144531 -3.476562 L 8.917969 -0.429688 L 8.921875 -0.417969 C 8.910156 -0.460938 8.882812 -0.503906 8.828125 -0.546875 C 8.765625 -0.605469 8.695312 -0.632812 8.625 -0.632812 Z M 6.402344 -5.050781 L 5.125 -10.570312 L 5.742188 -10.714844 L 6.359375 -10.570312 L 5.082031 -5.050781 L 4.464844 -5.195312 L 4.464844 -5.828125 L 7.023438 -5.828125 L 7.023438 -5.195312 Z M 7.820312 -4.5625 L 3.667969 -4.5625 L 5.125 -10.859375 L 6.359375 -10.859375 L 7.640625 -5.339844 Z M 7.820312 -4.5625 "/></g></g><g style="fill:#b21a22;fill-opacity:1;"><g transform="translate(73.127873, 70.12006)"><path style="stroke:none" d="M 9.765625 -11.285156 L 9.765625 -7.203125 C 9.765625 -5.792969 9.289062 -4.789062 8.332031 -4.191406 L 7.996094 -4.726562 L 8.613281 -4.878906 L 9.667969 -0.515625 L 9.050781 -0.367188 L 9.664062 -0.535156 C 9.753906 -0.207031 9.710938 0.0703125 9.53125 0.296875 C 9.355469 0.523438 9.101562 0.632812 8.765625 0.632812 L 6.777344 0.632812 C 6.53125 0.632812 6.320312 0.5625 6.148438 0.417969 C 5.976562 0.277344 5.863281 0.0859375 5.8125 -0.152344 L 6.433594 -0.285156 L 5.816406 -0.132812 L 4.84375 -4.132812 L 5.460938 -4.28125 L 5.460938 -3.648438 L 3.652344 -3.648438 L 3.652344 -4.28125 L 4.289062 -4.28125 L 4.289062 -0.324219 C 4.289062 -0.0429688 4.199219 0.1875 4.019531 0.367188 C 3.84375 0.546875 3.613281 0.632812 3.328125 0.632812 L 1.339844 0.632812 C 1.054688 0.632812 0.824219 0.546875 0.648438 0.367188 C 0.46875 0.1875 0.378906 -0.0429688 0.378906 -0.324219 L 0.378906 -13.882812 C 0.378906 -14.164062 0.46875 -14.394531 0.648438 -14.574219 C 0.824219 -14.75 1.054688 -14.839844 1.339844 -14.839844 L 6.210938 -14.839844 C 7.34375 -14.839844 8.222656 -14.53125 8.839844 -13.914062 C 9.457031 -13.296875 9.765625 -12.417969 9.765625 -11.285156 Z M 8.496094 -11.285156 C 8.496094 -12.070312 8.3125 -12.648438 7.941406 -13.015625 C 7.574219 -13.386719 6.996094 -13.570312 6.210938 -13.570312 L 1.339844 -13.570312 C 1.355469 -13.570312 1.375 -13.574219 1.398438 -13.582031 C 1.453125 -13.601562 1.5 -13.632812 1.542969 -13.675781 C 1.585938 -13.71875 1.617188 -13.769531 1.636719 -13.824219 C 1.644531 -13.847656 1.648438 -13.867188 1.648438 -13.882812 L 1.648438 -0.324219 C 1.648438 -0.339844 1.644531 -0.359375 1.636719 -0.382812 C 1.617188 -0.4375 1.585938 -0.484375 1.542969 -0.53125 C 1.5 -0.574219 1.453125 -0.605469 1.398438 -0.621094 C 1.375 -0.628906 1.355469 -0.632812 1.339844 -0.632812 L 3.328125 -0.632812 C 3.3125 -0.632812 3.292969 -0.628906 3.269531 -0.621094 C 3.214844 -0.605469 3.167969 -0.574219 3.125 -0.53125 C 3.078125 -0.484375 3.050781 -0.4375 3.03125 -0.382812 C 3.023438 -0.359375 3.019531 -0.339844 3.019531 -0.324219 L 3.019531 -4.917969 L 5.957031 -4.917969 L 7.050781 -0.425781 L 7.054688 -0.417969 C 7.042969 -0.464844 7.007812 -0.515625 6.953125 -0.5625 C 6.894531 -0.609375 6.835938 -0.632812 6.777344 -0.632812 L 8.765625 -0.632812 C 8.753906 -0.632812 8.738281 -0.628906 8.722656 -0.621094 C 8.648438 -0.597656 8.582031 -0.550781 8.53125 -0.480469 C 8.476562 -0.410156 8.445312 -0.335938 8.4375 -0.253906 C 8.4375 -0.222656 8.4375 -0.207031 8.441406 -0.195312 L 8.4375 -0.207031 L 7.273438 -5.023438 L 7.660156 -5.265625 C 8.21875 -5.617188 8.496094 -6.261719 8.496094 -7.203125 Z M 3.652344 -7.535156 L 5.683594 -7.535156 C 5.75 -7.535156 5.800781 -7.539062 5.835938 -7.550781 C 5.84375 -7.554688 5.847656 -7.554688 5.851562 -7.558594 C 5.847656 -7.554688 5.84375 -7.554688 5.84375 -7.550781 C 5.839844 -7.546875 5.835938 -7.546875 5.835938 -7.542969 C 5.835938 -7.546875 5.839844 -7.550781 5.839844 -7.558594 C 5.855469 -7.59375 5.859375 -7.644531 5.859375 -7.710938 L 5.859375 -10.777344 C 5.859375 -10.84375 5.855469 -10.894531 5.839844 -10.929688 C 5.839844 -10.9375 5.835938 -10.941406 5.835938 -10.945312 C 5.835938 -10.941406 5.839844 -10.9375 5.84375 -10.9375 C 5.84375 -10.933594 5.847656 -10.929688 5.851562 -10.929688 C 5.847656 -10.929688 5.84375 -10.933594 5.835938 -10.933594 C 5.800781 -10.949219 5.75 -10.953125 5.683594 -10.953125 L 3.652344 -10.953125 L 3.652344 -11.585938 L 4.289062 -11.585938 L 4.289062 -6.898438 L 3.652344 -6.898438 Z M 3.019531 -6.265625 L 3.019531 -12.222656 L 5.683594 -12.222656 C 6.128906 -12.222656 6.480469 -12.09375 6.738281 -11.832031 C 7 -11.574219 7.128906 -11.222656 7.128906 -10.777344 L 7.128906 -7.710938 C 7.128906 -7.265625 7 -6.914062 6.738281 -6.65625 C 6.480469 -6.394531 6.128906 -6.265625 5.683594 -6.265625 Z M 3.019531 -6.265625 "/></g></g><g style="fill:#060705;fill-opacity:1;"><g transform="translate(23.627175, 41.826959)"><path style="stroke:none" d="M 9.140625 -11.28125 L 9.140625 -7.203125 C 9.140625 -6.023438 8.757812 -5.203125 8 -4.734375 L 9.046875 -0.359375 C 9.117188 -0.117188 9.023438 0 8.765625 0 L 6.78125 0 C 6.59375 0 6.476562 -0.09375 6.4375 -0.28125 L 5.453125 -4.28125 L 3.65625 -4.28125 L 3.65625 -0.328125 C 3.65625 -0.109375 3.546875 0 3.328125 0 L 1.34375 0 C 1.125 0 1.015625 -0.109375 1.015625 -0.328125 L 1.015625 -13.890625 C 1.015625 -14.097656 1.125 -14.203125 1.34375 -14.203125 L 6.203125 -14.203125 C 7.171875 -14.203125 7.898438 -13.953125 8.390625 -13.453125 C 8.890625 -12.960938 9.140625 -12.238281 9.140625 -11.28125 Z M 3.65625 -6.90625 L 5.6875 -6.90625 C 6.226562 -6.90625 6.5 -7.175781 6.5 -7.71875 L 6.5 -10.78125 C 6.5 -11.320312 6.226562 -11.59375 5.6875 -11.59375 L 3.65625 -11.59375 Z M 3.65625 -6.90625 "/></g></g><g style="fill:#060705;fill-opacity:1;"><g transform="translate(33.770902, 41.826959)"><path style="stroke:none" d="M 10.59375 0 L 8.625 0 C 8.445312 0 8.335938 -0.09375 8.296875 -0.28125 L 7.65625 -2.84375 L 3.84375 -2.84375 L 3.203125 -0.28125 C 3.160156 -0.09375 3.050781 0 2.875 0 L 0.890625 0 C 0.648438 0 0.5625 -0.113281 0.625 -0.34375 L 4 -13.921875 C 4.039062 -14.109375 4.15625 -14.203125 4.34375 -14.203125 L 7.171875 -14.203125 C 7.359375 -14.203125 7.472656 -14.109375 7.515625 -13.921875 L 10.875 -0.34375 C 10.945312 -0.113281 10.851562 0 10.59375 0 Z M 7.015625 -5.203125 L 5.75 -10.71875 L 4.46875 -5.203125 Z M 7.015625 -5.203125 "/></g></g><g style="fill:#060705;fill-opacity:1;"><g transform="translate(45.273892, 41.826959)"><path style="stroke:none" d="M 9.15625 -11.28125 L 9.15625 -9.09375 C 9.15625 -8.875 9.046875 -8.765625 8.828125 -8.765625 L 6.921875 -8.765625 C 6.703125 -8.765625 6.59375 -8.875 6.59375 -9.09375 L 6.59375 -10.75 C 6.59375 -11.289062 6.320312 -11.5625 5.78125 -11.5625 L 4.484375 -11.5625 C 3.941406 -11.5625 3.671875 -11.289062 3.671875 -10.75 L 3.671875 -3.390625 C 3.671875 -2.847656 3.941406 -2.578125 4.484375 -2.578125 L 5.78125 -2.578125 C 6.320312 -2.578125 6.59375 -2.847656 6.59375 -3.390625 L 6.59375 -5.109375 C 6.59375 -5.328125 6.703125 -5.4375 6.921875 -5.4375 L 8.828125 -5.4375 C 9.046875 -5.4375 9.15625 -5.328125 9.15625 -5.109375 L 9.15625 -2.921875 C 9.15625 -1.972656 8.90625 -1.25 8.40625 -0.75 C 7.90625 -0.25 7.179688 0 6.234375 0 L 3.953125 0 C 3.003906 0 2.273438 -0.25 1.765625 -0.75 C 1.265625 -1.25 1.015625 -1.972656 1.015625 -2.921875 L 1.015625 -11.28125 C 1.015625 -12.238281 1.265625 -12.960938 1.765625 -13.453125 C 2.273438 -13.953125 3.003906 -14.203125 3.953125 -14.203125 L 6.234375 -14.203125 C 7.179688 -14.203125 7.90625 -13.953125 8.40625 -13.453125 C 8.90625 -12.960938 9.15625 -12.238281 9.15625 -11.28125 Z M 9.15625 -11.28125 "/></g></g><g style="fill:#060705;fill-opacity:1;"><g transform="translate(55.43791, 41.826959)"><path style="stroke:none" d="M 9.703125 0 L 7.546875 0 C 7.347656 0 7.191406 -0.0976562 7.078125 -0.296875 L 4.53125 -5.3125 L 3.78125 -3.875 L 3.78125 -0.40625 C 3.78125 -0.132812 3.644531 0 3.375 0 L 1.421875 0 C 1.148438 0 1.015625 -0.132812 1.015625 -0.40625 L 1.015625 -13.796875 C 1.015625 -14.066406 1.148438 -14.203125 1.421875 -14.203125 L 3.375 -14.203125 C 3.644531 -14.203125 3.78125 -14.066406 3.78125 -13.796875 L 3.78125 -8.53125 L 6.90625 -13.90625 C 7.007812 -14.101562 7.164062 -14.203125 7.375 -14.203125 L 9.5 -14.203125 C 9.644531 -14.203125 9.75 -14.15625 9.8125 -14.0625 C 9.875 -13.96875 9.863281 -13.851562 9.78125 -13.71875 L 6.328125 -7.65625 L 10 -0.46875 C 10.070312 -0.332031 10.082031 -0.21875 10.03125 -0.125 C 9.976562 -0.0390625 9.867188 0 9.703125 0 Z M 9.703125 0 "/></g></g><g style="fill:#060705;fill-opacity:1;"><g transform="translate(66.311988, 41.826959)"><path style="stroke:none" d="M 1.015625 -6.375 L 1.015625 -8.234375 C 1.015625 -8.503906 1.148438 -8.640625 1.421875 -8.640625 L 4.625 -8.640625 C 4.894531 -8.640625 5.03125 -8.503906 5.03125 -8.234375 L 5.03125 -6.375 C 5.03125 -6.101562 4.894531 -5.96875 4.625 -5.96875 L 1.421875 -5.96875 C 1.148438 -5.96875 1.015625 -6.101562 1.015625 -6.375 Z M 1.015625 -6.375 "/></g></g><g style="fill:#060705;fill-opacity:1;"><g transform="translate(12.711825, 70.12006)"><path style="stroke:none" d="M 8.40625 -14.203125 L 0.9375 -14.203125 C 0.71875 -14.203125 0.609375 -14.097656 0.609375 -13.890625 L 0.609375 -11.859375 C 0.609375 -11.640625 0.71875 -11.53125 0.9375 -11.53125 L 3.28125 -11.53125 L 3.28125 -0.328125 C 3.28125 -0.109375 3.390625 0 3.609375 0 L 5.71875 0 C 5.9375 0 6.046875 -0.109375 6.046875 -0.328125 L 6.046875 -11.53125 L 8.40625 -11.53125 C 8.625 -11.53125 8.734375 -11.640625 8.734375 -11.859375 L 8.734375 -13.890625 C 8.734375 -14.097656 8.625 -14.203125 8.40625 -14.203125 Z M 8.40625 -14.203125 "/></g></g><g style="fill:#060705;fill-opacity:1;"><g transform="translate(22.044055, 70.12006)"><path style="stroke:none" d="M 1.015625 -2.921875 L 1.015625 -11.28125 C 1.015625 -12.238281 1.265625 -12.960938 1.765625 -13.453125 C 2.265625 -13.953125 2.988281 -14.203125 3.9375 -14.203125 L 6.203125 -14.203125 C 7.171875 -14.203125 7.898438 -13.953125 8.390625 -13.453125 C 8.890625 -12.960938 9.140625 -12.238281 9.140625 -11.28125 L 9.140625 -2.921875 C 9.140625 -1.972656 8.890625 -1.25 8.390625 -0.75 C 7.898438 -0.25 7.171875 0 6.203125 0 L 3.9375 0 C 2.988281 0 2.265625 -0.25 1.765625 -0.75 C 1.265625 -1.25 1.015625 -1.972656 1.015625 -2.921875 Z M 4.46875 -2.625 L 5.765625 -2.625 C 6.304688 -2.625 6.578125 -2.894531 6.578125 -3.4375 L 6.578125 -10.78125 C 6.578125 -11.320312 6.304688 -11.59375 5.765625 -11.59375 L 4.46875 -11.59375 C 3.925781 -11.59375 3.65625 -11.320312 3.65625 -10.78125 L 3.65625 -3.4375 C 3.65625 -2.894531 3.925781 -2.625 4.46875 -2.625 Z M 4.46875 -2.625 "/></g></g><g style="fill:#060705;fill-opacity:1;"><g transform="translate(32.187783, 70.12006)"><path style="stroke:none" d="M 1.015625 -2.921875 L 1.015625 -11.28125 C 1.015625 -12.238281 1.265625 -12.960938 1.765625 -13.453125 C 2.265625 -13.953125 2.988281 -14.203125 3.9375 -14.203125 L 6.203125 -14.203125 C 7.171875 -14.203125 7.898438 -13.953125 8.390625 -13.453125 C 8.890625 -12.960938 9.140625 -12.238281 9.140625 -11.28125 L 9.140625 -2.921875 C 9.140625 -1.972656 8.890625 -1.25 8.390625 -0.75 C 7.898438 -0.25 7.171875 0 6.203125 0 L 3.9375 0 C 2.988281 0 2.265625 -0.25 1.765625 -0.75 C 1.265625 -1.25 1.015625 -1.972656 1.015625 -2.921875 Z M 4.46875 -2.625 L 5.765625 -2.625 C 6.304688 -2.625 6.578125 -2.894531 6.578125 -3.4375 L 6.578125 -10.78125 C 6.578125 -11.320312 6.304688 -11.59375 5.765625 -11.59375 L 4.46875 -11.59375 C 3.925781 -11.59375 3.65625 -11.320312 3.65625 -10.78125 L 3.65625 -3.4375 C 3.65625 -2.894531 3.925781 -2.625 4.46875 -2.625 Z M 4.46875 -2.625 "/></g></g><g style="fill:#060705;fill-opacity:1;"><g transform="translate(42.331511, 70.12006)"><path style="stroke:none" d="M 3.78125 -2.671875 L 3.78125 -13.890625 C 3.78125 -14.097656 3.671875 -14.203125 3.453125 -14.203125 L 1.34375 -14.203125 C 1.125 -14.203125 1.015625 -14.097656 1.015625 -13.890625 L 1.015625 -0.328125 C 1.015625 -0.109375 1.125 0 1.34375 0 L 7.796875 0 C 8.015625 0 8.125 -0.109375 8.125 -0.328125 L 8.125 -2.359375 C 8.125 -2.566406 8.015625 -2.671875 7.796875 -2.671875 Z M 3.78125 -2.671875 "/></g></g><g style="fill:#060705;fill-opacity:1;"><g transform="translate(51.460865, 70.12006)"><path style="stroke:none" d="M 9.15625 -11.28125 L 9.15625 -8.546875 C 9.15625 -8.171875 9.03125 -7.851562 8.78125 -7.59375 C 8.539062 -7.332031 8.238281 -7.171875 7.875 -7.109375 L 7.875 -7.0625 C 8.238281 -7.007812 8.539062 -6.847656 8.78125 -6.578125 C 9.03125 -6.316406 9.15625 -6 9.15625 -5.625 L 9.15625 -2.921875 C 9.15625 -1.972656 8.90625 -1.25 8.40625 -0.75 C 7.90625 -0.25 7.171875 0 6.203125 0 L 1.34375 0 C 1.125 0 1.015625 -0.109375 1.015625 -0.328125 L 1.015625 -13.890625 C 1.015625 -14.097656 1.125 -14.203125 1.34375 -14.203125 L 6.203125 -14.203125 C 7.171875 -14.203125 7.90625 -13.953125 8.40625 -13.453125 C 8.90625 -12.960938 9.15625 -12.238281 9.15625 -11.28125 Z M 6.578125 -9.21875 L 6.578125 -10.84375 C 6.578125 -11.382812 6.304688 -11.65625 5.765625 -11.65625 L 3.53125 -11.65625 L 3.53125 -8.421875 L 5.765625 -8.421875 C 6.304688 -8.421875 6.578125 -8.6875 6.578125 -9.21875 Z M 6.578125 -3.375 L 6.578125 -4.9375 C 6.578125 -5.476562 6.304688 -5.75 5.765625 -5.75 L 3.53125 -5.75 L 3.53125 -2.5625 L 5.765625 -2.5625 C 6.304688 -2.5625 6.578125 -2.832031 6.578125 -3.375 Z M 6.578125 -3.375 "/></g></g><g style="fill:#060705;fill-opacity:1;"><g transform="translate(61.624883, 70.12006)"><path style="stroke:none" d="M 10.59375 0 L 8.625 0 C 8.445312 0 8.335938 -0.09375 8.296875 -0.28125 L 7.65625 -2.84375 L 3.84375 -2.84375 L 3.203125 -0.28125 C 3.160156 -0.09375 3.050781 0 2.875 0 L 0.890625 0 C 0.648438 0 0.5625 -0.113281 0.625 -0.34375 L 4 -13.921875 C 4.039062 -14.109375 4.15625 -14.203125 4.34375 -14.203125 L 7.171875 -14.203125 C 7.359375 -14.203125 7.472656 -14.109375 7.515625 -13.921875 L 10.875 -0.34375 C 10.945312 -0.113281 10.851562 0 10.59375 0 Z M 7.015625 -5.203125 L 5.75 -10.71875 L 4.46875 -5.203125 Z M 7.015625 -5.203125 "/></g></g><g style="fill:#060705;fill-opacity:1;"><g transform="translate(73.127873, 70.12006)"><path style="stroke:none" d="M 9.140625 -11.28125 L 9.140625 -7.203125 C 9.140625 -6.023438 8.757812 -5.203125 8 -4.734375 L 9.046875 -0.359375 C 9.117188 -0.117188 9.023438 0 8.765625 0 L 6.78125 0 C 6.59375 0 6.476562 -0.09375 6.4375 -0.28125 L 5.453125 -4.28125 L 3.65625 -4.28125 L 3.65625 -0.328125 C 3.65625 -0.109375 3.546875 0 3.328125 0 L 1.34375 0 C 1.125 0 1.015625 -0.109375 1.015625 -0.328125 L 1.015625 -13.890625 C 1.015625 -14.097656 1.125 -14.203125 1.34375 -14.203125 L 6.203125 -14.203125 C 7.171875 -14.203125 7.898438 -13.953125 8.390625 -13.453125 C 8.890625 -12.960938 9.140625 -12.238281 9.140625 -11.28125 Z M 3.65625 -6.90625 L 5.6875 -6.90625 C 6.226562 -6.90625 6.5 -7.175781 6.5 -7.71875 L 6.5 -10.78125 C 6.5 -11.320312 6.226562 -11.59375 5.6875 -11.59375 L 3.65625 -11.59375 Z M 3.65625 -6.90625 "/></g></g></g></svg>