<svg xmlns="http://www.w3.org/2000/svg" xmlns:xlink="http://www.w3.org/1999/xlink" width="192" zoomAndPan="magnify" viewBox="0 0 144 143.999998" height="192" preserveAspectRatio="xMidYMid meet" version="1.2"><defs><clipPath id="a1b4ab6066"><path d="M 9 0 L 135 0 L 135 144 L 9 144 Z M 9 0 "/></clipPath><clipPath id="845b21a65b"><path d="M -21.457031 54.867188 L 103.039062 -17.847656 L 165.503906 89.105469 L 41.007812 161.816406 Z M -21.457031 54.867188 "/></clipPath><clipPath id="4cd406e9e8"><path d="M 134.226562 35.65625 L 134.347656 107.300781 L 72.121094 143.644531 L 9.773438 108.34375 L 9.65625 36.695312 L 71.878906 0.351562 Z M 134.226562 35.65625 "/></clipPath><clipPath id="bf4c2e50c2"><path d="M 21.210938 13.683594 L 122.773438 13.683594 L 122.773438 130.261719 L 21.210938 130.261719 Z M 21.210938 13.683594 "/></clipPath></defs><g id="eade96ea46"><g clip-rule="nonzero" clip-path="url(#a1b4ab6066)"><g clip-rule="nonzero" clip-path="url(#845b21a65b)"><g clip-rule="nonzero" clip-path="url(#4cd406e9e8)"><path style=" stroke:none;fill-rule:nonzero;fill:#65b30e;fill-opacity:1;" d="M -21.457031 54.867188 L 103.039062 -17.847656 L 165.503906 89.105469 L 41.007812 161.816406 Z M -21.457031 54.867188 "/></g></g></g><path style=" stroke:none;fill-rule:nonzero;fill:#87ff00;fill-opacity:1;" d="M 51.679688 52.109375 L 51.613281 52.046875 L 37.261719 66.398438 L 72.113281 101.183594 L 86.46875 86.898438 L 106.960938 66.398438 L 92.609375 52.046875 L 92.609375 51.980469 L 51.617188 51.980469 Z M 51.679688 52.109375 "/><g clip-rule="nonzero" clip-path="url(#bf4c2e50c2)"><path style=" stroke:none;fill-rule:nonzero;fill:#87ff00;fill-opacity:1;" d="M 71.980469 13.765625 L 21.222656 42.863281 L 21.226562 101.058594 L 71.984375 130.15625 L 122.742188 101.058594 L 122.742188 42.863281 L 71.984375 13.769531 Z M 113.039062 95.496094 L 71.980469 119.160156 L 30.921875 95.496094 L 30.925781 48.292969 L 71.984375 24.628906 L 113.042969 48.292969 L 113.042969 95.492188 Z M 113.039062 95.496094 "/></g><g style="fill:#b21a22;fill-opacity:1;"><g transform="translate(18.258457, 62.092486)"><path style="stroke:none" d="M 6.320312 -23.816406 L 9.964844 -23.816406 C 11.789062 -23.816406 13.195312 -23.320312 14.1875 -22.332031 C 15.179688 -21.339844 15.675781 -19.933594 15.675781 -18.109375 L 15.675781 -15.960938 C 15.675781 -15.503906 15.53125 -15.132812 15.246094 -14.847656 C 14.960938 -14.5625 14.589844 -14.421875 14.136719 -14.421875 L 10.847656 -14.421875 C 10.390625 -14.421875 10.019531 -14.5625 9.734375 -14.847656 C 9.449219 -15.132812 9.308594 -15.503906 9.308594 -15.960938 L 9.308594 -17.328125 C 9.308594 -17.433594 9.296875 -17.515625 9.277344 -17.574219 C 9.273438 -17.585938 9.269531 -17.59375 9.269531 -17.597656 C 9.269531 -17.59375 9.273438 -17.589844 9.28125 -17.585938 C 9.285156 -17.582031 9.289062 -17.578125 9.292969 -17.574219 C 9.289062 -17.578125 9.28125 -17.578125 9.269531 -17.582031 C 9.210938 -17.601562 9.128906 -17.613281 9.023438 -17.613281 L 7.230469 -17.613281 C 7.125 -17.613281 7.042969 -17.601562 6.984375 -17.582031 C 6.972656 -17.578125 6.964844 -17.578125 6.960938 -17.574219 C 6.964844 -17.578125 6.96875 -17.582031 6.972656 -17.585938 C 6.976562 -17.589844 6.980469 -17.59375 6.984375 -17.597656 C 6.980469 -17.59375 6.980469 -17.585938 6.976562 -17.574219 C 6.957031 -17.515625 6.945312 -17.433594 6.945312 -17.328125 L 6.945312 -14.558594 L 5.929688 -14.558594 L 6.238281 -15.527344 L 14.121094 -12.988281 C 14.625 -12.8125 15.011719 -12.535156 15.277344 -12.15625 C 15.542969 -11.78125 15.675781 -11.332031 15.675781 -10.8125 L 15.675781 -4.691406 C 15.675781 -2.890625 15.179688 -1.492188 14.191406 -0.492188 C 13.199219 0.515625 11.792969 1.019531 9.964844 1.019531 L 6.320312 1.019531 C 4.519531 1.019531 3.117188 0.515625 2.113281 -0.484375 C 1.113281 -1.488281 0.609375 -2.890625 0.609375 -4.691406 L 0.609375 -6.808594 C 0.609375 -7.261719 0.753906 -7.632812 1.039062 -7.917969 C 1.324219 -8.203125 1.695312 -8.347656 2.148438 -8.347656 L 5.4375 -8.347656 C 5.894531 -8.347656 6.265625 -8.203125 6.550781 -7.917969 C 6.835938 -7.632812 6.976562 -7.261719 6.976562 -6.808594 L 6.976562 -5.4375 C 6.976562 -5.332031 6.988281 -5.25 7.007812 -5.191406 C 7.011719 -5.179688 7.015625 -5.171875 7.015625 -5.167969 C 7.015625 -5.171875 7.011719 -5.175781 7.007812 -5.183594 C 7 -5.1875 6.996094 -5.191406 6.992188 -5.191406 C 6.996094 -5.191406 7.003906 -5.1875 7.015625 -5.183594 C 7.074219 -5.164062 7.15625 -5.15625 7.261719 -5.15625 L 9.023438 -5.15625 C 9.128906 -5.15625 9.210938 -5.164062 9.269531 -5.183594 C 9.28125 -5.1875 9.289062 -5.191406 9.292969 -5.191406 C 9.289062 -5.191406 9.285156 -5.1875 9.28125 -5.183594 C 9.273438 -5.175781 9.269531 -5.171875 9.269531 -5.167969 C 9.269531 -5.171875 9.273438 -5.179688 9.277344 -5.191406 C 9.296875 -5.25 9.308594 -5.332031 9.308594 -5.4375 L 9.308594 -8.730469 L 10.324219 -8.730469 L 10.011719 -7.761719 L 2.191406 -10.300781 C 1.691406 -10.46875 1.300781 -10.742188 1.027344 -11.117188 C 0.75 -11.496094 0.609375 -11.949219 0.609375 -12.476562 L 0.609375 -18.109375 C 0.609375 -19.933594 1.113281 -21.34375 2.117188 -22.335938 C 3.121094 -23.324219 4.519531 -23.816406 6.320312 -23.816406 Z M 6.320312 -21.78125 C 5.078125 -21.78125 4.152344 -21.484375 3.546875 -20.886719 C 2.945312 -20.292969 2.644531 -19.367188 2.644531 -18.109375 L 2.644531 -12.476562 C 2.644531 -12.390625 2.65625 -12.339844 2.671875 -12.316406 C 2.6875 -12.292969 2.738281 -12.265625 2.824219 -12.238281 L 11.34375 -9.46875 L 11.34375 -5.4375 C 11.34375 -4.722656 11.136719 -4.160156 10.71875 -3.742188 C 10.304688 -3.328125 9.738281 -3.117188 9.023438 -3.117188 L 7.261719 -3.117188 C 6.546875 -3.117188 5.980469 -3.328125 5.566406 -3.742188 C 5.152344 -4.160156 4.941406 -4.722656 4.941406 -5.4375 L 4.941406 -6.808594 C 4.941406 -6.785156 4.949219 -6.753906 4.960938 -6.714844 C 4.992188 -6.625 5.039062 -6.546875 5.109375 -6.476562 C 5.179688 -6.410156 5.257812 -6.359375 5.34375 -6.332031 C 5.386719 -6.316406 5.417969 -6.3125 5.4375 -6.3125 L 2.148438 -6.3125 C 2.171875 -6.3125 2.203125 -6.316406 2.242188 -6.332031 C 2.332031 -6.359375 2.410156 -6.410156 2.480469 -6.476562 C 2.546875 -6.546875 2.597656 -6.625 2.625 -6.714844 C 2.640625 -6.753906 2.644531 -6.785156 2.644531 -6.808594 L 2.644531 -4.691406 C 2.644531 -3.453125 2.949219 -2.53125 3.554688 -1.925781 C 4.15625 -1.320312 5.078125 -1.019531 6.320312 -1.019531 L 9.964844 -1.019531 C 11.222656 -1.019531 12.148438 -1.320312 12.742188 -1.921875 C 13.339844 -2.523438 13.640625 -3.449219 13.640625 -4.691406 L 13.640625 -10.8125 C 13.640625 -10.902344 13.628906 -10.960938 13.613281 -10.984375 C 13.597656 -11.007812 13.558594 -11.027344 13.496094 -11.050781 L 4.910156 -13.816406 L 4.910156 -17.328125 C 4.910156 -18.042969 5.117188 -18.609375 5.535156 -19.023438 C 5.949219 -19.441406 6.515625 -19.648438 7.230469 -19.648438 L 9.023438 -19.648438 C 9.738281 -19.648438 10.304688 -19.441406 10.71875 -19.023438 C 11.136719 -18.609375 11.34375 -18.042969 11.34375 -17.328125 L 11.34375 -15.960938 C 11.34375 -15.984375 11.335938 -16.015625 11.324219 -16.054688 C 11.292969 -16.140625 11.246094 -16.21875 11.175781 -16.289062 C 11.105469 -16.359375 11.027344 -16.40625 10.941406 -16.4375 C 10.902344 -16.449219 10.871094 -16.457031 10.847656 -16.457031 L 14.136719 -16.457031 C 14.113281 -16.457031 14.082031 -16.449219 14.042969 -16.4375 C 13.953125 -16.40625 13.875 -16.359375 13.808594 -16.289062 C 13.738281 -16.21875 13.6875 -16.140625 13.660156 -16.054688 C 13.644531 -16.015625 13.640625 -15.984375 13.640625 -15.960938 L 13.640625 -18.109375 C 13.640625 -19.371094 13.34375 -20.296875 12.75 -20.890625 C 12.15625 -21.484375 11.226562 -21.78125 9.964844 -21.78125 Z M 6.320312 -21.78125 "/></g></g><g style="fill:#b21a22;fill-opacity:1;"><g transform="translate(34.538776, 62.092486)"><path style="stroke:none" d="M 13.484375 -21.78125 L 1.5 -21.78125 C 1.523438 -21.78125 1.554688 -21.789062 1.59375 -21.800781 C 1.679688 -21.832031 1.757812 -21.878906 1.828125 -21.949219 C 1.898438 -22.019531 1.945312 -22.097656 1.976562 -22.183594 C 1.988281 -22.222656 1.996094 -22.253906 1.996094 -22.277344 L 1.996094 -19.019531 C 1.996094 -19.042969 1.988281 -19.074219 1.976562 -19.117188 C 1.945312 -19.203125 1.898438 -19.28125 1.828125 -19.351562 C 1.757812 -19.421875 1.679688 -19.46875 1.59375 -19.5 C 1.554688 -19.511719 1.523438 -19.519531 1.5 -19.519531 L 6.292969 -19.519531 L 6.292969 -0.519531 C 6.292969 -0.542969 6.289062 -0.574219 6.273438 -0.613281 C 6.246094 -0.703125 6.195312 -0.78125 6.125 -0.851562 C 6.058594 -0.917969 5.976562 -0.96875 5.890625 -1 C 5.851562 -1.011719 5.820312 -1.019531 5.796875 -1.019531 L 9.183594 -1.019531 C 9.160156 -1.019531 9.128906 -1.011719 9.089844 -1 C 9.003906 -0.96875 8.925781 -0.917969 8.855469 -0.851562 C 8.785156 -0.78125 8.738281 -0.703125 8.707031 -0.613281 C 8.695312 -0.574219 8.6875 -0.542969 8.6875 -0.519531 L 8.6875 -19.519531 L 13.484375 -19.519531 C 13.460938 -19.519531 13.429688 -19.511719 13.390625 -19.5 C 13.304688 -19.46875 13.226562 -19.421875 13.15625 -19.351562 C 13.085938 -19.28125 13.035156 -19.203125 13.007812 -19.117188 C 12.996094 -19.074219 12.988281 -19.042969 12.988281 -19.019531 L 12.988281 -22.277344 C 12.988281 -22.253906 12.996094 -22.222656 13.007812 -22.183594 C 13.035156 -22.097656 13.085938 -22.019531 13.15625 -21.949219 C 13.226562 -21.878906 13.304688 -21.832031 13.390625 -21.800781 C 13.429688 -21.789062 13.460938 -21.78125 13.484375 -21.78125 Z M 13.484375 -23.816406 C 13.9375 -23.816406 14.308594 -23.675781 14.59375 -23.390625 C 14.878906 -23.105469 15.023438 -22.734375 15.023438 -22.277344 L 15.023438 -19.019531 C 15.023438 -18.566406 14.878906 -18.195312 14.59375 -17.910156 C 14.308594 -17.625 13.9375 -17.480469 13.484375 -17.480469 L 9.707031 -17.480469 L 9.707031 -18.5 L 10.722656 -18.5 L 10.722656 -0.519531 C 10.722656 -0.0664062 10.582031 0.304688 10.296875 0.589844 C 10.011719 0.875 9.640625 1.019531 9.183594 1.019531 L 5.796875 1.019531 C 5.34375 1.019531 4.972656 0.875 4.6875 0.589844 C 4.402344 0.304688 4.257812 -0.0664062 4.257812 -0.519531 L 4.257812 -18.5 L 5.277344 -18.5 L 5.277344 -17.480469 L 1.5 -17.480469 C 1.042969 -17.480469 0.671875 -17.625 0.386719 -17.910156 C 0.101562 -18.195312 -0.0390625 -18.566406 -0.0390625 -19.019531 L -0.0390625 -22.277344 C -0.0390625 -22.734375 0.101562 -23.105469 0.386719 -23.390625 C 0.671875 -23.675781 1.042969 -23.816406 1.5 -23.816406 Z M 13.484375 -23.816406 "/></g></g><g style="fill:#b21a22;fill-opacity:1;"><g transform="translate(49.516672, 62.092486)"><path style="stroke:none" d="M 15.675781 -18.109375 L 15.675781 -11.5625 C 15.675781 -9.296875 14.90625 -7.683594 13.371094 -6.726562 L 12.832031 -7.589844 L 13.824219 -7.828125 L 15.515625 -0.824219 L 14.527344 -0.585938 L 15.507812 -0.859375 C 15.652344 -0.335938 15.582031 0.109375 15.296875 0.476562 C 15.019531 0.839844 14.609375 1.019531 14.070312 1.019531 L 10.878906 1.019531 C 10.484375 1.019531 10.144531 0.902344 9.863281 0.671875 C 9.589844 0.445312 9.410156 0.140625 9.328125 -0.242188 L 10.324219 -0.457031 L 9.335938 -0.214844 L 7.773438 -6.632812 L 8.761719 -6.871094 L 8.761719 -5.855469 L 5.863281 -5.855469 L 5.863281 -6.871094 L 6.878906 -6.871094 L 6.878906 -0.519531 C 6.878906 -0.0664062 6.738281 0.304688 6.453125 0.589844 C 6.167969 0.875 5.796875 1.019531 5.339844 1.019531 L 2.148438 1.019531 C 1.695312 1.019531 1.324219 0.875 1.039062 0.589844 C 0.753906 0.304688 0.609375 -0.0664062 0.609375 -0.519531 L 0.609375 -22.277344 C 0.609375 -22.734375 0.753906 -23.105469 1.039062 -23.390625 C 1.324219 -23.675781 1.695312 -23.816406 2.148438 -23.816406 L 9.964844 -23.816406 C 11.789062 -23.816406 13.195312 -23.320312 14.1875 -22.332031 C 15.179688 -21.339844 15.675781 -19.933594 15.675781 -18.109375 Z M 13.640625 -18.109375 C 13.640625 -19.371094 13.34375 -20.296875 12.75 -20.890625 C 12.15625 -21.484375 11.226562 -21.78125 9.964844 -21.78125 L 2.148438 -21.78125 C 2.171875 -21.78125 2.203125 -21.789062 2.242188 -21.800781 C 2.332031 -21.832031 2.410156 -21.878906 2.480469 -21.949219 C 2.546875 -22.019531 2.597656 -22.097656 2.625 -22.183594 C 2.640625 -22.222656 2.644531 -22.253906 2.644531 -22.277344 L 2.644531 -0.519531 C 2.644531 -0.542969 2.640625 -0.574219 2.625 -0.613281 C 2.597656 -0.703125 2.546875 -0.78125 2.480469 -0.851562 C 2.410156 -0.917969 2.332031 -0.96875 2.242188 -1 C 2.203125 -1.011719 2.171875 -1.019531 2.148438 -1.019531 L 5.339844 -1.019531 C 5.320312 -1.019531 5.285156 -1.011719 5.246094 -1 C 5.160156 -0.96875 5.082031 -0.917969 5.011719 -0.851562 C 4.941406 -0.78125 4.894531 -0.703125 4.863281 -0.613281 C 4.851562 -0.574219 4.84375 -0.542969 4.84375 -0.519531 L 4.84375 -7.890625 L 9.5625 -7.890625 L 11.316406 -0.683594 L 11.320312 -0.667969 C 11.304688 -0.75 11.25 -0.824219 11.160156 -0.898438 C 11.0625 -0.980469 10.96875 -1.019531 10.878906 -1.019531 L 14.070312 -1.019531 L 14.070312 -1.015625 C 14.050781 -1.015625 14.023438 -1.007812 14 -1 C 13.878906 -0.957031 13.777344 -0.882812 13.691406 -0.773438 C 13.601562 -0.660156 13.554688 -0.535156 13.542969 -0.40625 C 13.539062 -0.359375 13.542969 -0.328125 13.546875 -0.3125 L 13.542969 -0.332031 L 11.671875 -8.0625 L 12.292969 -8.453125 C 13.191406 -9.011719 13.640625 -10.050781 13.640625 -11.5625 Z M 5.863281 -12.09375 L 9.121094 -12.09375 C 9.226562 -12.09375 9.308594 -12.101562 9.367188 -12.121094 C 9.378906 -12.125 9.386719 -12.128906 9.390625 -12.128906 C 9.386719 -12.128906 9.382812 -12.125 9.378906 -12.121094 C 9.371094 -12.113281 9.367188 -12.109375 9.367188 -12.105469 C 9.367188 -12.109375 9.371094 -12.117188 9.375 -12.128906 C 9.394531 -12.1875 9.40625 -12.269531 9.40625 -12.378906 L 9.40625 -17.296875 C 9.40625 -17.402344 9.394531 -17.484375 9.375 -17.542969 C 9.371094 -17.554688 9.367188 -17.5625 9.367188 -17.566406 C 9.367188 -17.5625 9.371094 -17.558594 9.378906 -17.550781 C 9.382812 -17.546875 9.386719 -17.542969 9.390625 -17.542969 C 9.386719 -17.542969 9.378906 -17.546875 9.367188 -17.550781 C 9.308594 -17.570312 9.226562 -17.582031 9.121094 -17.582031 L 5.863281 -17.582031 L 5.863281 -18.597656 L 6.878906 -18.597656 L 6.878906 -11.074219 L 5.863281 -11.074219 Z M 4.84375 -10.054688 L 4.84375 -19.617188 L 9.121094 -19.617188 C 9.835938 -19.617188 10.402344 -19.40625 10.816406 -18.992188 C 11.234375 -18.574219 11.441406 -18.011719 11.441406 -17.296875 L 11.441406 -12.378906 C 11.441406 -11.660156 11.234375 -11.097656 10.816406 -10.679688 C 10.402344 -10.265625 9.835938 -10.054688 9.121094 -10.054688 Z M 4.84375 -10.054688 "/></g></g><g style="fill:#b21a22;fill-opacity:1;"><g transform="translate(65.796991, 62.092486)"><path style="stroke:none" d="M 2.148438 -1.019531 L 5.535156 -1.019531 C 5.515625 -1.019531 5.484375 -1.011719 5.441406 -1 C 5.355469 -0.96875 5.277344 -0.917969 5.207031 -0.851562 C 5.136719 -0.78125 5.089844 -0.703125 5.058594 -0.613281 C 5.046875 -0.574219 5.039062 -0.542969 5.039062 -0.519531 L 5.039062 -22.277344 C 5.039062 -22.253906 5.046875 -22.222656 5.058594 -22.183594 C 5.089844 -22.097656 5.136719 -22.019531 5.207031 -21.949219 C 5.277344 -21.878906 5.355469 -21.832031 5.441406 -21.800781 C 5.484375 -21.789062 5.515625 -21.78125 5.535156 -21.78125 L 2.148438 -21.78125 C 2.171875 -21.78125 2.203125 -21.789062 2.242188 -21.800781 C 2.332031 -21.832031 2.410156 -21.878906 2.480469 -21.949219 C 2.546875 -22.019531 2.597656 -22.097656 2.625 -22.183594 C 2.640625 -22.222656 2.644531 -22.253906 2.644531 -22.277344 L 2.644531 -0.519531 C 2.644531 -0.542969 2.640625 -0.574219 2.625 -0.613281 C 2.597656 -0.703125 2.546875 -0.78125 2.480469 -0.851562 C 2.410156 -0.917969 2.332031 -0.96875 2.242188 -1 C 2.203125 -1.011719 2.171875 -1.019531 2.148438 -1.019531 Z M 2.148438 1.019531 C 1.695312 1.019531 1.324219 0.875 1.039062 0.589844 C 0.753906 0.304688 0.609375 -0.0664062 0.609375 -0.519531 L 0.609375 -22.277344 C 0.609375 -22.734375 0.753906 -23.105469 1.039062 -23.390625 C 1.324219 -23.675781 1.695312 -23.816406 2.148438 -23.816406 L 5.535156 -23.816406 C 5.992188 -23.816406 6.363281 -23.675781 6.648438 -23.390625 C 6.933594 -23.105469 7.074219 -22.734375 7.074219 -22.277344 L 7.074219 -0.519531 C 7.074219 -0.0664062 6.933594 0.304688 6.648438 0.589844 C 6.363281 0.875 5.992188 1.019531 5.535156 1.019531 Z M 2.148438 1.019531 "/></g></g><g style="fill:#b21a22;fill-opacity:1;"><g transform="translate(73.481296, 62.092486)"><path style="stroke:none" d="M 15.707031 -18.109375 L 15.707031 -14.589844 C 15.707031 -14.136719 15.566406 -13.765625 15.277344 -13.480469 C 14.992188 -13.195312 14.625 -13.050781 14.167969 -13.050781 L 11.105469 -13.050781 C 10.652344 -13.050781 10.28125 -13.195312 9.996094 -13.480469 C 9.710938 -13.765625 9.566406 -14.136719 9.566406 -14.589844 L 9.566406 -17.261719 C 9.566406 -17.371094 9.558594 -17.453125 9.539062 -17.511719 C 9.535156 -17.519531 9.53125 -17.527344 9.53125 -17.53125 C 9.53125 -17.527344 9.535156 -17.523438 9.539062 -17.519531 C 9.542969 -17.515625 9.550781 -17.511719 9.554688 -17.507812 C 9.550781 -17.511719 9.542969 -17.515625 9.53125 -17.519531 C 9.472656 -17.539062 9.390625 -17.546875 9.28125 -17.546875 L 7.199219 -17.546875 C 7.089844 -17.546875 7.007812 -17.539062 6.949219 -17.519531 C 6.9375 -17.515625 6.933594 -17.511719 6.929688 -17.507812 C 6.933594 -17.511719 6.9375 -17.515625 6.941406 -17.519531 C 6.945312 -17.523438 6.949219 -17.527344 6.953125 -17.53125 C 6.949219 -17.527344 6.945312 -17.519531 6.941406 -17.511719 C 6.921875 -17.453125 6.914062 -17.371094 6.914062 -17.261719 L 6.914062 -5.4375 C 6.914062 -5.332031 6.921875 -5.25 6.941406 -5.191406 C 6.945312 -5.179688 6.949219 -5.171875 6.953125 -5.167969 C 6.949219 -5.171875 6.945312 -5.175781 6.941406 -5.183594 C 6.9375 -5.1875 6.933594 -5.191406 6.929688 -5.191406 C 6.933594 -5.191406 6.9375 -5.1875 6.949219 -5.183594 C 7.007812 -5.164062 7.089844 -5.15625 7.199219 -5.15625 L 9.28125 -5.15625 C 9.390625 -5.15625 9.472656 -5.164062 9.53125 -5.183594 C 9.542969 -5.1875 9.550781 -5.191406 9.554688 -5.191406 C 9.550781 -5.191406 9.542969 -5.1875 9.539062 -5.183594 C 9.535156 -5.175781 9.53125 -5.171875 9.53125 -5.167969 C 9.53125 -5.171875 9.535156 -5.179688 9.539062 -5.191406 C 9.558594 -5.25 9.566406 -5.332031 9.566406 -5.4375 L 9.566406 -8.207031 C 9.566406 -8.664062 9.710938 -9.03125 9.996094 -9.320312 C 10.28125 -9.605469 10.652344 -9.746094 11.105469 -9.746094 L 14.167969 -9.746094 C 14.625 -9.746094 14.992188 -9.605469 15.277344 -9.320312 C 15.566406 -9.03125 15.707031 -8.664062 15.707031 -8.207031 L 15.707031 -4.691406 C 15.707031 -2.890625 15.207031 -1.488281 14.203125 -0.484375 C 13.203125 0.515625 11.800781 1.019531 10 1.019531 L 6.351562 1.019531 C 4.554688 1.019531 3.148438 0.519531 2.136719 -0.480469 C 1.117188 -1.484375 0.609375 -2.886719 0.609375 -4.691406 L 0.609375 -18.109375 C 0.609375 -19.9375 1.121094 -21.347656 2.140625 -22.339844 C 3.152344 -23.324219 4.554688 -23.816406 6.351562 -23.816406 L 10 -23.816406 C 11.796875 -23.816406 13.199219 -23.324219 14.199219 -22.335938 C 15.203125 -21.34375 15.707031 -19.933594 15.707031 -18.109375 Z M 13.671875 -18.109375 C 13.671875 -19.367188 13.371094 -20.292969 12.769531 -20.886719 C 12.164062 -21.484375 11.242188 -21.78125 10 -21.78125 L 6.351562 -21.78125 C 5.105469 -21.78125 4.175781 -21.480469 3.558594 -20.882812 C 2.949219 -20.289062 2.644531 -19.363281 2.644531 -18.109375 L 2.644531 -4.691406 C 2.644531 -3.453125 2.953125 -2.535156 3.566406 -1.929688 C 4.179688 -1.320312 5.109375 -1.019531 6.351562 -1.019531 L 10 -1.019531 C 11.238281 -1.019531 12.160156 -1.320312 12.765625 -1.925781 C 13.371094 -2.53125 13.671875 -3.453125 13.671875 -4.691406 L 13.671875 -8.207031 C 13.671875 -8.183594 13.679688 -8.152344 13.691406 -8.113281 C 13.71875 -8.027344 13.769531 -7.949219 13.839844 -7.878906 C 13.910156 -7.808594 13.988281 -7.757812 14.074219 -7.730469 C 14.113281 -7.71875 14.144531 -7.710938 14.167969 -7.710938 L 11.105469 -7.710938 C 11.128906 -7.710938 11.160156 -7.71875 11.199219 -7.730469 C 11.289062 -7.757812 11.367188 -7.808594 11.4375 -7.878906 C 11.503906 -7.949219 11.554688 -8.027344 11.582031 -8.113281 C 11.597656 -8.152344 11.601562 -8.183594 11.601562 -8.207031 L 11.601562 -5.4375 C 11.601562 -4.722656 11.394531 -4.160156 10.980469 -3.742188 C 10.5625 -3.328125 10 -3.117188 9.28125 -3.117188 L 7.199219 -3.117188 C 6.484375 -3.117188 5.917969 -3.328125 5.5 -3.742188 C 5.085938 -4.160156 4.878906 -4.722656 4.878906 -5.4375 L 4.878906 -17.261719 C 4.878906 -17.976562 5.085938 -18.542969 5.5 -18.960938 C 5.917969 -19.375 6.484375 -19.582031 7.199219 -19.582031 L 9.28125 -19.582031 C 10 -19.582031 10.5625 -19.375 10.980469 -18.960938 C 11.394531 -18.542969 11.601562 -17.976562 11.601562 -17.261719 L 11.601562 -14.589844 C 11.601562 -14.613281 11.597656 -14.644531 11.582031 -14.6875 C 11.554688 -14.773438 11.503906 -14.851562 11.4375 -14.921875 C 11.367188 -14.992188 11.289062 -15.039062 11.199219 -15.070312 C 11.160156 -15.082031 11.128906 -15.089844 11.105469 -15.089844 L 14.167969 -15.089844 C 14.144531 -15.089844 14.113281 -15.082031 14.074219 -15.070312 C 13.988281 -15.039062 13.910156 -14.992188 13.839844 -14.921875 C 13.769531 -14.851562 13.71875 -14.773438 13.691406 -14.6875 C 13.679688 -14.644531 13.671875 -14.613281 13.671875 -14.589844 Z M 13.671875 -18.109375 "/></g></g><g style="fill:#b21a22;fill-opacity:1;"><g transform="translate(89.794182, 62.092486)"><path style="stroke:none" d="M 13.484375 -21.78125 L 1.5 -21.78125 C 1.523438 -21.78125 1.554688 -21.789062 1.59375 -21.800781 C 1.679688 -21.832031 1.757812 -21.878906 1.828125 -21.949219 C 1.898438 -22.019531 1.945312 -22.097656 1.976562 -22.183594 C 1.988281 -22.222656 1.996094 -22.253906 1.996094 -22.277344 L 1.996094 -19.019531 C 1.996094 -19.042969 1.988281 -19.074219 1.976562 -19.117188 C 1.945312 -19.203125 1.898438 -19.28125 1.828125 -19.351562 C 1.757812 -19.421875 1.679688 -19.46875 1.59375 -19.5 C 1.554688 -19.511719 1.523438 -19.519531 1.5 -19.519531 L 6.292969 -19.519531 L 6.292969 -0.519531 C 6.292969 -0.542969 6.289062 -0.574219 6.273438 -0.613281 C 6.246094 -0.703125 6.195312 -0.78125 6.125 -0.851562 C 6.058594 -0.917969 5.976562 -0.96875 5.890625 -1 C 5.851562 -1.011719 5.820312 -1.019531 5.796875 -1.019531 L 9.183594 -1.019531 C 9.160156 -1.019531 9.128906 -1.011719 9.089844 -1 C 9.003906 -0.96875 8.925781 -0.917969 8.855469 -0.851562 C 8.785156 -0.78125 8.738281 -0.703125 8.707031 -0.613281 C 8.695312 -0.574219 8.6875 -0.542969 8.6875 -0.519531 L 8.6875 -19.519531 L 13.484375 -19.519531 C 13.460938 -19.519531 13.429688 -19.511719 13.390625 -19.5 C 13.304688 -19.46875 13.226562 -19.421875 13.15625 -19.351562 C 13.085938 -19.28125 13.035156 -19.203125 13.007812 -19.117188 C 12.996094 -19.074219 12.988281 -19.042969 12.988281 -19.019531 L 12.988281 -22.277344 C 12.988281 -22.253906 12.996094 -22.222656 13.007812 -22.183594 C 13.035156 -22.097656 13.085938 -22.019531 13.15625 -21.949219 C 13.226562 -21.878906 13.304688 -21.832031 13.390625 -21.800781 C 13.429688 -21.789062 13.460938 -21.78125 13.484375 -21.78125 Z M 13.484375 -23.816406 C 13.9375 -23.816406 14.308594 -23.675781 14.59375 -23.390625 C 14.878906 -23.105469 15.023438 -22.734375 15.023438 -22.277344 L 15.023438 -19.019531 C 15.023438 -18.566406 14.878906 -18.195312 14.59375 -17.910156 C 14.308594 -17.625 13.9375 -17.480469 13.484375 -17.480469 L 9.707031 -17.480469 L 9.707031 -18.5 L 10.722656 -18.5 L 10.722656 -0.519531 C 10.722656 -0.0664062 10.582031 0.304688 10.296875 0.589844 C 10.011719 0.875 9.640625 1.019531 9.183594 1.019531 L 5.796875 1.019531 C 5.34375 1.019531 4.972656 0.875 4.6875 0.589844 C 4.402344 0.304688 4.257812 -0.0664062 4.257812 -0.519531 L 4.257812 -18.5 L 5.277344 -18.5 L 5.277344 -17.480469 L 1.5 -17.480469 C 1.042969 -17.480469 0.671875 -17.625 0.386719 -17.910156 C 0.101562 -18.195312 -0.0390625 -18.566406 -0.0390625 -19.019531 L -0.0390625 -22.277344 C -0.0390625 -22.734375 0.101562 -23.105469 0.386719 -23.390625 C 0.671875 -23.675781 1.042969 -23.816406 1.5 -23.816406 Z M 13.484375 -23.816406 "/></g></g><g style="fill:#b21a22;fill-opacity:1;"><g transform="translate(104.772077, 62.092486)"><path style="stroke:none" d="M -1.019531 4.363281 L -1.019531 1.367188 C -1.019531 0.871094 -0.863281 0.46875 -0.558594 0.160156 C -0.25 -0.148438 0.152344 -0.300781 0.652344 -0.300781 L 20.292969 -0.300781 C 20.789062 -0.300781 21.191406 -0.148438 21.5 0.160156 C 21.808594 0.46875 21.960938 0.871094 21.960938 1.367188 L 21.960938 4.363281 C 21.960938 4.863281 21.808594 5.265625 21.5 5.574219 C 21.191406 5.878906 20.789062 6.035156 20.292969 6.035156 L 0.652344 6.035156 C 0.152344 6.035156 -0.25 5.878906 -0.558594 5.574219 C -0.863281 5.265625 -1.019531 4.863281 -1.019531 4.363281 Z M 1.019531 4.363281 C 1.019531 4.367188 1.019531 4.371094 1.019531 4.375 C 1.015625 4.359375 1.011719 4.34375 1.007812 4.328125 C 0.984375 4.257812 0.941406 4.191406 0.882812 4.132812 C 0.824219 4.074219 0.757812 4.03125 0.6875 4.007812 C 0.671875 4.003906 0.65625 4 0.644531 4 C 0.640625 3.996094 0.640625 3.996094 0.640625 3.996094 C 0.644531 3.996094 0.648438 3.996094 0.652344 3.996094 L 20.292969 3.996094 C 20.296875 3.996094 20.300781 3.996094 20.304688 3.996094 C 20.304688 3.996094 20.300781 3.996094 20.300781 4 C 20.289062 4 20.273438 4.003906 20.253906 4.007812 C 20.183594 4.03125 20.121094 4.074219 20.058594 4.132812 C 20 4.191406 19.960938 4.257812 19.9375 4.328125 C 19.929688 4.34375 19.925781 4.359375 19.925781 4.375 C 19.925781 4.371094 19.925781 4.367188 19.925781 4.363281 L 19.925781 1.367188 C 19.925781 1.363281 19.925781 1.359375 19.925781 1.355469 C 19.925781 1.355469 19.925781 1.359375 19.925781 1.359375 C 19.925781 1.371094 19.929688 1.386719 19.9375 1.40625 C 19.960938 1.476562 20 1.539062 20.058594 1.597656 C 20.121094 1.65625 20.183594 1.699219 20.253906 1.722656 C 20.273438 1.730469 20.289062 1.734375 20.300781 1.734375 C 20.300781 1.734375 20.304688 1.734375 20.304688 1.734375 C 20.300781 1.734375 20.296875 1.734375 20.292969 1.734375 L 0.652344 1.734375 C 0.648438 1.734375 0.644531 1.734375 0.640625 1.734375 C 0.640625 1.734375 0.640625 1.734375 0.644531 1.734375 C 0.65625 1.734375 0.671875 1.730469 0.6875 1.722656 C 0.757812 1.699219 0.824219 1.65625 0.882812 1.597656 C 0.941406 1.539062 0.984375 1.476562 1.007812 1.40625 C 1.011719 1.386719 1.015625 1.371094 1.019531 1.359375 C 1.019531 1.359375 1.019531 1.355469 1.019531 1.355469 C 1.019531 1.359375 1.019531 1.363281 1.019531 1.367188 Z M 1.019531 4.363281 "/></g></g><g style="fill:#b21a22;fill-opacity:1;"><g transform="translate(23.379916, 107.501899)"><path style="stroke:none" d="M 6.320312 -23.816406 L 9.964844 -23.816406 C 11.789062 -23.816406 13.195312 -23.320312 14.1875 -22.332031 C 15.179688 -21.339844 15.675781 -19.933594 15.675781 -18.109375 L 15.675781 -15.960938 C 15.675781 -15.503906 15.53125 -15.132812 15.246094 -14.847656 C 14.960938 -14.5625 14.589844 -14.421875 14.136719 -14.421875 L 10.847656 -14.421875 C 10.390625 -14.421875 10.019531 -14.5625 9.734375 -14.847656 C 9.449219 -15.132812 9.308594 -15.503906 9.308594 -15.960938 L 9.308594 -17.328125 C 9.308594 -17.433594 9.296875 -17.515625 9.277344 -17.574219 C 9.273438 -17.585938 9.269531 -17.59375 9.269531 -17.597656 C 9.269531 -17.59375 9.273438 -17.589844 9.28125 -17.585938 C 9.285156 -17.582031 9.289062 -17.578125 9.292969 -17.574219 C 9.289062 -17.578125 9.28125 -17.578125 9.269531 -17.582031 C 9.210938 -17.601562 9.128906 -17.613281 9.023438 -17.613281 L 7.230469 -17.613281 C 7.125 -17.613281 7.042969 -17.601562 6.984375 -17.582031 C 6.972656 -17.578125 6.964844 -17.578125 6.960938 -17.574219 C 6.964844 -17.578125 6.96875 -17.582031 6.972656 -17.585938 C 6.976562 -17.589844 6.980469 -17.59375 6.984375 -17.597656 C 6.980469 -17.59375 6.980469 -17.585938 6.976562 -17.574219 C 6.957031 -17.515625 6.945312 -17.433594 6.945312 -17.328125 L 6.945312 -14.558594 L 5.929688 -14.558594 L 6.238281 -15.527344 L 14.121094 -12.988281 C 14.625 -12.8125 15.011719 -12.535156 15.277344 -12.15625 C 15.542969 -11.78125 15.675781 -11.332031 15.675781 -10.8125 L 15.675781 -4.691406 C 15.675781 -2.890625 15.179688 -1.492188 14.191406 -0.492188 C 13.199219 0.515625 11.792969 1.019531 9.964844 1.019531 L 6.320312 1.019531 C 4.519531 1.019531 3.117188 0.515625 2.113281 -0.484375 C 1.113281 -1.488281 0.609375 -2.890625 0.609375 -4.691406 L 0.609375 -6.808594 C 0.609375 -7.261719 0.753906 -7.632812 1.039062 -7.917969 C 1.324219 -8.203125 1.695312 -8.347656 2.148438 -8.347656 L 5.4375 -8.347656 C 5.894531 -8.347656 6.265625 -8.203125 6.550781 -7.917969 C 6.835938 -7.632812 6.976562 -7.261719 6.976562 -6.808594 L 6.976562 -5.4375 C 6.976562 -5.332031 6.988281 -5.25 7.007812 -5.191406 C 7.011719 -5.179688 7.015625 -5.171875 7.015625 -5.167969 C 7.015625 -5.171875 7.011719 -5.175781 7.007812 -5.183594 C 7 -5.1875 6.996094 -5.191406 6.992188 -5.191406 C 6.996094 -5.191406 7.003906 -5.1875 7.015625 -5.183594 C 7.074219 -5.164062 7.15625 -5.15625 7.261719 -5.15625 L 9.023438 -5.15625 C 9.128906 -5.15625 9.210938 -5.164062 9.269531 -5.183594 C 9.28125 -5.1875 9.289062 -5.191406 9.292969 -5.191406 C 9.289062 -5.191406 9.285156 -5.1875 9.28125 -5.183594 C 9.273438 -5.175781 9.269531 -5.171875 9.269531 -5.167969 C 9.269531 -5.171875 9.273438 -5.179688 9.277344 -5.191406 C 9.296875 -5.25 9.308594 -5.332031 9.308594 -5.4375 L 9.308594 -8.730469 L 10.324219 -8.730469 L 10.011719 -7.761719 L 2.191406 -10.300781 C 1.691406 -10.46875 1.300781 -10.742188 1.027344 -11.117188 C 0.75 -11.496094 0.609375 -11.949219 0.609375 -12.476562 L 0.609375 -18.109375 C 0.609375 -19.933594 1.113281 -21.34375 2.117188 -22.335938 C 3.121094 -23.324219 4.519531 -23.816406 6.320312 -23.816406 Z M 6.320312 -21.78125 C 5.078125 -21.78125 4.152344 -21.484375 3.546875 -20.886719 C 2.945312 -20.292969 2.644531 -19.367188 2.644531 -18.109375 L 2.644531 -12.476562 C 2.644531 -12.390625 2.65625 -12.339844 2.671875 -12.316406 C 2.6875 -12.292969 2.738281 -12.265625 2.824219 -12.238281 L 11.34375 -9.46875 L 11.34375 -5.4375 C 11.34375 -4.722656 11.136719 -4.160156 10.71875 -3.742188 C 10.304688 -3.328125 9.738281 -3.117188 9.023438 -3.117188 L 7.261719 -3.117188 C 6.546875 -3.117188 5.980469 -3.328125 5.566406 -3.742188 C 5.152344 -4.160156 4.941406 -4.722656 4.941406 -5.4375 L 4.941406 -6.808594 C 4.941406 -6.785156 4.949219 -6.753906 4.960938 -6.714844 C 4.992188 -6.625 5.039062 -6.546875 5.109375 -6.476562 C 5.179688 -6.410156 5.257812 -6.359375 5.34375 -6.332031 C 5.386719 -6.316406 5.417969 -6.3125 5.4375 -6.3125 L 2.148438 -6.3125 C 2.171875 -6.3125 2.203125 -6.316406 2.242188 -6.332031 C 2.332031 -6.359375 2.410156 -6.410156 2.480469 -6.476562 C 2.546875 -6.546875 2.597656 -6.625 2.625 -6.714844 C 2.640625 -6.753906 2.644531 -6.785156 2.644531 -6.808594 L 2.644531 -4.691406 C 2.644531 -3.453125 2.949219 -2.53125 3.554688 -1.925781 C 4.15625 -1.320312 5.078125 -1.019531 6.320312 -1.019531 L 9.964844 -1.019531 C 11.222656 -1.019531 12.148438 -1.320312 12.742188 -1.921875 C 13.339844 -2.523438 13.640625 -3.449219 13.640625 -4.691406 L 13.640625 -10.8125 C 13.640625 -10.902344 13.628906 -10.960938 13.613281 -10.984375 C 13.597656 -11.007812 13.558594 -11.027344 13.496094 -11.050781 L 4.910156 -13.816406 L 4.910156 -17.328125 C 4.910156 -18.042969 5.117188 -18.609375 5.535156 -19.023438 C 5.949219 -19.441406 6.515625 -19.648438 7.230469 -19.648438 L 9.023438 -19.648438 C 9.738281 -19.648438 10.304688 -19.441406 10.71875 -19.023438 C 11.136719 -18.609375 11.34375 -18.042969 11.34375 -17.328125 L 11.34375 -15.960938 C 11.34375 -15.984375 11.335938 -16.015625 11.324219 -16.054688 C 11.292969 -16.140625 11.246094 -16.21875 11.175781 -16.289062 C 11.105469 -16.359375 11.027344 -16.40625 10.941406 -16.4375 C 10.902344 -16.449219 10.871094 -16.457031 10.847656 -16.457031 L 14.136719 -16.457031 C 14.113281 -16.457031 14.082031 -16.449219 14.042969 -16.4375 C 13.953125 -16.40625 13.875 -16.359375 13.808594 -16.289062 C 13.738281 -16.21875 13.6875 -16.140625 13.660156 -16.054688 C 13.644531 -16.015625 13.640625 -15.984375 13.640625 -15.960938 L 13.640625 -18.109375 C 13.640625 -19.371094 13.34375 -20.296875 12.75 -20.890625 C 12.15625 -21.484375 11.226562 -21.78125 9.964844 -21.78125 Z M 6.320312 -21.78125 "/></g></g><g style="fill:#b21a22;fill-opacity:1;"><g transform="translate(39.660235, 107.501899)"><path style="stroke:none" d="M 13.484375 -21.78125 L 1.5 -21.78125 C 1.523438 -21.78125 1.554688 -21.789062 1.59375 -21.800781 C 1.679688 -21.832031 1.757812 -21.878906 1.828125 -21.949219 C 1.898438 -22.019531 1.945312 -22.097656 1.976562 -22.183594 C 1.988281 -22.222656 1.996094 -22.253906 1.996094 -22.277344 L 1.996094 -19.019531 C 1.996094 -19.042969 1.988281 -19.074219 1.976562 -19.117188 C 1.945312 -19.203125 1.898438 -19.28125 1.828125 -19.351562 C 1.757812 -19.421875 1.679688 -19.46875 1.59375 -19.5 C 1.554688 -19.511719 1.523438 -19.519531 1.5 -19.519531 L 6.292969 -19.519531 L 6.292969 -0.519531 C 6.292969 -0.542969 6.289062 -0.574219 6.273438 -0.613281 C 6.246094 -0.703125 6.195312 -0.78125 6.125 -0.851562 C 6.058594 -0.917969 5.976562 -0.96875 5.890625 -1 C 5.851562 -1.011719 5.820312 -1.019531 5.796875 -1.019531 L 9.183594 -1.019531 C 9.160156 -1.019531 9.128906 -1.011719 9.089844 -1 C 9.003906 -0.96875 8.925781 -0.917969 8.855469 -0.851562 C 8.785156 -0.78125 8.738281 -0.703125 8.707031 -0.613281 C 8.695312 -0.574219 8.6875 -0.542969 8.6875 -0.519531 L 8.6875 -19.519531 L 13.484375 -19.519531 C 13.460938 -19.519531 13.429688 -19.511719 13.390625 -19.5 C 13.304688 -19.46875 13.226562 -19.421875 13.15625 -19.351562 C 13.085938 -19.28125 13.035156 -19.203125 13.007812 -19.117188 C 12.996094 -19.074219 12.988281 -19.042969 12.988281 -19.019531 L 12.988281 -22.277344 C 12.988281 -22.253906 12.996094 -22.222656 13.007812 -22.183594 C 13.035156 -22.097656 13.085938 -22.019531 13.15625 -21.949219 C 13.226562 -21.878906 13.304688 -21.832031 13.390625 -21.800781 C 13.429688 -21.789062 13.460938 -21.78125 13.484375 -21.78125 Z M 13.484375 -23.816406 C 13.9375 -23.816406 14.308594 -23.675781 14.59375 -23.390625 C 14.878906 -23.105469 15.023438 -22.734375 15.023438 -22.277344 L 15.023438 -19.019531 C 15.023438 -18.566406 14.878906 -18.195312 14.59375 -17.910156 C 14.308594 -17.625 13.9375 -17.480469 13.484375 -17.480469 L 9.707031 -17.480469 L 9.707031 -18.5 L 10.722656 -18.5 L 10.722656 -0.519531 C 10.722656 -0.0664062 10.582031 0.304688 10.296875 0.589844 C 10.011719 0.875 9.640625 1.019531 9.183594 1.019531 L 5.796875 1.019531 C 5.34375 1.019531 4.972656 0.875 4.6875 0.589844 C 4.402344 0.304688 4.257812 -0.0664062 4.257812 -0.519531 L 4.257812 -18.5 L 5.277344 -18.5 L 5.277344 -17.480469 L 1.5 -17.480469 C 1.042969 -17.480469 0.671875 -17.625 0.386719 -17.910156 C 0.101562 -18.195312 -0.0390625 -18.566406 -0.0390625 -19.019531 L -0.0390625 -22.277344 C -0.0390625 -22.734375 0.101562 -23.105469 0.386719 -23.390625 C 0.671875 -23.675781 1.042969 -23.816406 1.5 -23.816406 Z M 13.484375 -23.816406 "/></g></g><g style="fill:#b21a22;fill-opacity:1;"><g transform="translate(54.638131, 107.501899)"><path style="stroke:none" d="M 17.003906 1.019531 L 13.84375 1.019531 C 13.445312 1.019531 13.109375 0.894531 12.832031 0.652344 C 12.574219 0.429688 12.40625 0.128906 12.328125 -0.242188 L 13.320312 -0.457031 L 12.335938 -0.207031 L 11.292969 -4.308594 L 12.277344 -4.558594 L 12.277344 -3.542969 L 6.15625 -3.542969 L 6.15625 -4.558594 L 7.144531 -4.316406 L 6.132812 -0.210938 L 5.144531 -0.457031 L 6.140625 -0.242188 C 6.0625 0.128906 5.894531 0.429688 5.636719 0.652344 C 5.359375 0.894531 5.019531 1.019531 4.625 1.019531 L 1.433594 1.019531 C 0.902344 1.019531 0.5 0.839844 0.226562 0.480469 C -0.0546875 0.113281 -0.117188 -0.324219 0.03125 -0.839844 L 1.007812 -0.554688 L 0.0234375 -0.800781 L 5.429688 -22.589844 L 6.417969 -22.34375 L 5.421875 -22.558594 C 5.503906 -22.941406 5.683594 -23.246094 5.957031 -23.472656 C 6.238281 -23.703125 6.574219 -23.816406 6.96875 -23.816406 L 11.496094 -23.816406 C 11.894531 -23.816406 12.230469 -23.703125 12.511719 -23.472656 C 12.785156 -23.246094 12.964844 -22.941406 13.046875 -22.558594 L 12.050781 -22.34375 L 13.039062 -22.589844 L 18.445312 -0.800781 L 17.457031 -0.554688 L 18.433594 -0.839844 C 18.589844 -0.3125 18.515625 0.136719 18.210938 0.507812 C 17.929688 0.847656 17.527344 1.019531 17.003906 1.019531 Z M 17.003906 -1.019531 C 17.007812 -1.019531 17.011719 -1.019531 17.015625 -1.019531 C 17.015625 -1.019531 17.011719 -1.019531 17.011719 -1.019531 C 16.992188 -1.015625 16.96875 -1.011719 16.945312 -1.003906 C 16.828125 -0.964844 16.726562 -0.890625 16.640625 -0.785156 C 16.542969 -0.667969 16.488281 -0.535156 16.476562 -0.390625 C 16.472656 -0.335938 16.472656 -0.292969 16.480469 -0.265625 L 16.476562 -0.289062 L 11.058594 -22.113281 L 11.054688 -22.128906 C 11.074219 -22.050781 11.125 -21.972656 11.21875 -21.898438 C 11.3125 -21.820312 11.40625 -21.78125 11.496094 -21.78125 L 6.96875 -21.78125 C 7.0625 -21.78125 7.15625 -21.820312 7.25 -21.898438 C 7.339844 -21.972656 7.394531 -22.050781 7.410156 -22.128906 L 7.410156 -22.113281 L 1.992188 -0.289062 L 1.984375 -0.265625 C 1.992188 -0.289062 1.992188 -0.324219 1.992188 -0.371094 C 1.984375 -0.507812 1.933594 -0.636719 1.84375 -0.757812 C 1.753906 -0.871094 1.648438 -0.953125 1.519531 -0.996094 C 1.480469 -1.011719 1.449219 -1.019531 1.433594 -1.019531 L 4.625 -1.019531 C 4.511719 -1.019531 4.402344 -0.972656 4.296875 -0.878906 C 4.214844 -0.808594 4.164062 -0.738281 4.152344 -0.667969 L 4.152344 -0.683594 L 5.359375 -5.578125 L 13.070312 -5.578125 L 14.3125 -0.6875 L 14.316406 -0.667969 C 14.300781 -0.738281 14.253906 -0.808594 14.171875 -0.878906 C 14.066406 -0.972656 13.957031 -1.019531 13.84375 -1.019531 Z M 10.277344 -8.109375 L 8.226562 -16.96875 L 9.21875 -17.199219 L 10.210938 -16.96875 L 8.15625 -8.109375 L 7.164062 -8.339844 L 7.164062 -9.355469 L 11.269531 -9.355469 L 11.269531 -8.339844 Z M 12.550781 -7.320312 L 5.886719 -7.320312 L 8.226562 -17.425781 L 10.210938 -17.425781 L 12.261719 -8.566406 Z M 12.550781 -7.320312 "/></g></g><g style="fill:#b21a22;fill-opacity:1;"><g transform="translate(73.100017, 107.501899)"><path style="stroke:none" d="M 13.484375 -21.78125 L 1.5 -21.78125 C 1.523438 -21.78125 1.554688 -21.789062 1.59375 -21.800781 C 1.679688 -21.832031 1.757812 -21.878906 1.828125 -21.949219 C 1.898438 -22.019531 1.945312 -22.097656 1.976562 -22.183594 C 1.988281 -22.222656 1.996094 -22.253906 1.996094 -22.277344 L 1.996094 -19.019531 C 1.996094 -19.042969 1.988281 -19.074219 1.976562 -19.117188 C 1.945312 -19.203125 1.898438 -19.28125 1.828125 -19.351562 C 1.757812 -19.421875 1.679688 -19.46875 1.59375 -19.5 C 1.554688 -19.511719 1.523438 -19.519531 1.5 -19.519531 L 6.292969 -19.519531 L 6.292969 -0.519531 C 6.292969 -0.542969 6.289062 -0.574219 6.273438 -0.613281 C 6.246094 -0.703125 6.195312 -0.78125 6.125 -0.851562 C 6.058594 -0.917969 5.976562 -0.96875 5.890625 -1 C 5.851562 -1.011719 5.820312 -1.019531 5.796875 -1.019531 L 9.183594 -1.019531 C 9.160156 -1.019531 9.128906 -1.011719 9.089844 -1 C 9.003906 -0.96875 8.925781 -0.917969 8.855469 -0.851562 C 8.785156 -0.78125 8.738281 -0.703125 8.707031 -0.613281 C 8.695312 -0.574219 8.6875 -0.542969 8.6875 -0.519531 L 8.6875 -19.519531 L 13.484375 -19.519531 C 13.460938 -19.519531 13.429688 -19.511719 13.390625 -19.5 C 13.304688 -19.46875 13.226562 -19.421875 13.15625 -19.351562 C 13.085938 -19.28125 13.035156 -19.203125 13.007812 -19.117188 C 12.996094 -19.074219 12.988281 -19.042969 12.988281 -19.019531 L 12.988281 -22.277344 C 12.988281 -22.253906 12.996094 -22.222656 13.007812 -22.183594 C 13.035156 -22.097656 13.085938 -22.019531 13.15625 -21.949219 C 13.226562 -21.878906 13.304688 -21.832031 13.390625 -21.800781 C 13.429688 -21.789062 13.460938 -21.78125 13.484375 -21.78125 Z M 13.484375 -23.816406 C 13.9375 -23.816406 14.308594 -23.675781 14.59375 -23.390625 C 14.878906 -23.105469 15.023438 -22.734375 15.023438 -22.277344 L 15.023438 -19.019531 C 15.023438 -18.566406 14.878906 -18.195312 14.59375 -17.910156 C 14.308594 -17.625 13.9375 -17.480469 13.484375 -17.480469 L 9.707031 -17.480469 L 9.707031 -18.5 L 10.722656 -18.5 L 10.722656 -0.519531 C 10.722656 -0.0664062 10.582031 0.304688 10.296875 0.589844 C 10.011719 0.875 9.640625 1.019531 9.183594 1.019531 L 5.796875 1.019531 C 5.34375 1.019531 4.972656 0.875 4.6875 0.589844 C 4.402344 0.304688 4.257812 -0.0664062 4.257812 -0.519531 L 4.257812 -18.5 L 5.277344 -18.5 L 5.277344 -17.480469 L 1.5 -17.480469 C 1.042969 -17.480469 0.671875 -17.625 0.386719 -17.910156 C 0.101562 -18.195312 -0.0390625 -18.566406 -0.0390625 -19.019531 L -0.0390625 -22.277344 C -0.0390625 -22.734375 0.101562 -23.105469 0.386719 -23.390625 C 0.671875 -23.675781 1.042969 -23.816406 1.5 -23.816406 Z M 13.484375 -23.816406 "/></g></g><g style="fill:#b21a22;fill-opacity:1;"><g transform="translate(88.077912, 107.501899)"><path style="stroke:none" d="M 15.640625 -22.277344 L 15.640625 -19.019531 C 15.640625 -18.566406 15.507812 -18.195312 15.234375 -17.910156 C 14.949219 -17.601562 14.570312 -17.449219 14.101562 -17.449219 L 6.058594 -17.449219 L 6.058594 -18.46875 L 7.074219 -18.46875 L 7.074219 -13.453125 L 6.058594 -13.453125 L 6.058594 -14.46875 L 12.179688 -14.46875 C 12.648438 -14.46875 13.027344 -14.316406 13.3125 -14.011719 C 13.585938 -13.722656 13.71875 -13.351562 13.71875 -12.898438 L 13.71875 -9.671875 C 13.71875 -9.21875 13.585938 -8.847656 13.3125 -8.5625 C 13.027344 -8.253906 12.648438 -8.101562 12.179688 -8.101562 L 6.058594 -8.101562 L 6.058594 -9.121094 L 7.074219 -9.121094 L 7.074219 -4.300781 L 6.058594 -4.300781 L 6.058594 -5.316406 L 14.101562 -5.316406 C 14.558594 -5.316406 14.929688 -5.175781 15.214844 -4.890625 C 15.5 -4.601562 15.640625 -4.234375 15.640625 -3.777344 L 15.640625 -0.519531 C 15.640625 -0.0664062 15.5 0.304688 15.214844 0.589844 C 14.929688 0.875 14.558594 1.019531 14.101562 1.019531 L 2.117188 1.019531 C 1.660156 1.019531 1.289062 0.867188 1.007812 0.566406 C 0.742188 0.285156 0.609375 -0.078125 0.609375 -0.519531 L 0.609375 -22.277344 C 0.609375 -22.71875 0.742188 -23.082031 1.007812 -23.367188 C 1.289062 -23.667969 1.660156 -23.816406 2.117188 -23.816406 L 14.101562 -23.816406 C 14.558594 -23.816406 14.929688 -23.675781 15.214844 -23.390625 C 15.5 -23.105469 15.640625 -22.734375 15.640625 -22.277344 Z M 13.605469 -22.277344 C 13.605469 -22.253906 13.613281 -22.222656 13.625 -22.183594 C 13.65625 -22.097656 13.703125 -22.019531 13.773438 -21.949219 C 13.84375 -21.878906 13.921875 -21.832031 14.007812 -21.800781 C 14.046875 -21.789062 14.078125 -21.78125 14.101562 -21.78125 L 2.117188 -21.78125 C 2.25 -21.78125 2.375 -21.84375 2.492188 -21.972656 C 2.558594 -22.042969 2.605469 -22.121094 2.628906 -22.203125 C 2.640625 -22.238281 2.644531 -22.261719 2.644531 -22.277344 L 2.644531 -0.519531 C 2.644531 -0.539062 2.640625 -0.5625 2.628906 -0.597656 C 2.605469 -0.679688 2.558594 -0.757812 2.492188 -0.828125 C 2.375 -0.953125 2.25 -1.019531 2.117188 -1.019531 L 14.101562 -1.019531 C 14.078125 -1.019531 14.046875 -1.011719 14.007812 -1 C 13.921875 -0.96875 13.84375 -0.917969 13.773438 -0.851562 C 13.703125 -0.78125 13.65625 -0.703125 13.625 -0.613281 C 13.613281 -0.574219 13.605469 -0.542969 13.605469 -0.519531 L 13.605469 -3.777344 C 13.605469 -3.753906 13.613281 -3.722656 13.625 -3.683594 C 13.65625 -3.597656 13.703125 -3.519531 13.773438 -3.449219 C 13.84375 -3.378906 13.921875 -3.328125 14.007812 -3.300781 C 14.046875 -3.289062 14.078125 -3.28125 14.101562 -3.28125 L 5.039062 -3.28125 L 5.039062 -10.136719 L 12.179688 -10.136719 C 12.152344 -10.136719 12.113281 -10.128906 12.070312 -10.113281 C 11.980469 -10.082031 11.898438 -10.03125 11.832031 -9.957031 C 11.769531 -9.890625 11.722656 -9.816406 11.699219 -9.734375 C 11.6875 -9.707031 11.683594 -9.683594 11.683594 -9.671875 L 11.683594 -12.898438 C 11.683594 -12.886719 11.6875 -12.867188 11.699219 -12.835938 C 11.722656 -12.757812 11.769531 -12.683594 11.832031 -12.617188 C 11.898438 -12.542969 11.980469 -12.488281 12.070312 -12.457031 C 12.113281 -12.441406 12.152344 -12.433594 12.179688 -12.433594 L 5.039062 -12.433594 L 5.039062 -19.484375 L 14.101562 -19.484375 C 14.074219 -19.484375 14.035156 -19.476562 13.992188 -19.460938 C 13.902344 -19.429688 13.820312 -19.378906 13.753906 -19.304688 C 13.691406 -19.238281 13.644531 -19.164062 13.621094 -19.082031 C 13.609375 -19.054688 13.605469 -19.03125 13.605469 -19.019531 Z M 13.605469 -22.277344 "/></g></g><g style="fill:#b21a22;fill-opacity:1;"><g transform="translate(104.325665, 107.501899)"><path style="stroke:none" d="M 6.320312 -23.816406 L 9.964844 -23.816406 C 11.789062 -23.816406 13.195312 -23.320312 14.1875 -22.332031 C 15.179688 -21.339844 15.675781 -19.933594 15.675781 -18.109375 L 15.675781 -15.960938 C 15.675781 -15.503906 15.53125 -15.132812 15.246094 -14.847656 C 14.960938 -14.5625 14.589844 -14.421875 14.136719 -14.421875 L 10.847656 -14.421875 C 10.390625 -14.421875 10.019531 -14.5625 9.734375 -14.847656 C 9.449219 -15.132812 9.308594 -15.503906 9.308594 -15.960938 L 9.308594 -17.328125 C 9.308594 -17.433594 9.296875 -17.515625 9.277344 -17.574219 C 9.273438 -17.585938 9.269531 -17.59375 9.269531 -17.597656 C 9.269531 -17.59375 9.273438 -17.589844 9.28125 -17.585938 C 9.285156 -17.582031 9.289062 -17.578125 9.292969 -17.574219 C 9.289062 -17.578125 9.28125 -17.578125 9.269531 -17.582031 C 9.210938 -17.601562 9.128906 -17.613281 9.023438 -17.613281 L 7.230469 -17.613281 C 7.125 -17.613281 7.042969 -17.601562 6.984375 -17.582031 C 6.972656 -17.578125 6.964844 -17.578125 6.960938 -17.574219 C 6.964844 -17.578125 6.96875 -17.582031 6.972656 -17.585938 C 6.976562 -17.589844 6.980469 -17.59375 6.984375 -17.597656 C 6.980469 -17.59375 6.980469 -17.585938 6.976562 -17.574219 C 6.957031 -17.515625 6.945312 -17.433594 6.945312 -17.328125 L 6.945312 -14.558594 L 5.929688 -14.558594 L 6.238281 -15.527344 L 14.121094 -12.988281 C 14.625 -12.8125 15.011719 -12.535156 15.277344 -12.15625 C 15.542969 -11.78125 15.675781 -11.332031 15.675781 -10.8125 L 15.675781 -4.691406 C 15.675781 -2.890625 15.179688 -1.492188 14.191406 -0.492188 C 13.199219 0.515625 11.792969 1.019531 9.964844 1.019531 L 6.320312 1.019531 C 4.519531 1.019531 3.117188 0.515625 2.113281 -0.484375 C 1.113281 -1.488281 0.609375 -2.890625 0.609375 -4.691406 L 0.609375 -6.808594 C 0.609375 -7.261719 0.753906 -7.632812 1.039062 -7.917969 C 1.324219 -8.203125 1.695312 -8.347656 2.148438 -8.347656 L 5.4375 -8.347656 C 5.894531 -8.347656 6.265625 -8.203125 6.550781 -7.917969 C 6.835938 -7.632812 6.976562 -7.261719 6.976562 -6.808594 L 6.976562 -5.4375 C 6.976562 -5.332031 6.988281 -5.25 7.007812 -5.191406 C 7.011719 -5.179688 7.015625 -5.171875 7.015625 -5.167969 C 7.015625 -5.171875 7.011719 -5.175781 7.007812 -5.183594 C 7 -5.1875 6.996094 -5.191406 6.992188 -5.191406 C 6.996094 -5.191406 7.003906 -5.1875 7.015625 -5.183594 C 7.074219 -5.164062 7.15625 -5.15625 7.261719 -5.15625 L 9.023438 -5.15625 C 9.128906 -5.15625 9.210938 -5.164062 9.269531 -5.183594 C 9.28125 -5.1875 9.289062 -5.191406 9.292969 -5.191406 C 9.289062 -5.191406 9.285156 -5.1875 9.28125 -5.183594 C 9.273438 -5.175781 9.269531 -5.171875 9.269531 -5.167969 C 9.269531 -5.171875 9.273438 -5.179688 9.277344 -5.191406 C 9.296875 -5.25 9.308594 -5.332031 9.308594 -5.4375 L 9.308594 -8.730469 L 10.324219 -8.730469 L 10.011719 -7.761719 L 2.191406 -10.300781 C 1.691406 -10.46875 1.300781 -10.742188 1.027344 -11.117188 C 0.75 -11.496094 0.609375 -11.949219 0.609375 -12.476562 L 0.609375 -18.109375 C 0.609375 -19.933594 1.113281 -21.34375 2.117188 -22.335938 C 3.121094 -23.324219 4.519531 -23.816406 6.320312 -23.816406 Z M 6.320312 -21.78125 C 5.078125 -21.78125 4.152344 -21.484375 3.546875 -20.886719 C 2.945312 -20.292969 2.644531 -19.367188 2.644531 -18.109375 L 2.644531 -12.476562 C 2.644531 -12.390625 2.65625 -12.339844 2.671875 -12.316406 C 2.6875 -12.292969 2.738281 -12.265625 2.824219 -12.238281 L 11.34375 -9.46875 L 11.34375 -5.4375 C 11.34375 -4.722656 11.136719 -4.160156 10.71875 -3.742188 C 10.304688 -3.328125 9.738281 -3.117188 9.023438 -3.117188 L 7.261719 -3.117188 C 6.546875 -3.117188 5.980469 -3.328125 5.566406 -3.742188 C 5.152344 -4.160156 4.941406 -4.722656 4.941406 -5.4375 L 4.941406 -6.808594 C 4.941406 -6.785156 4.949219 -6.753906 4.960938 -6.714844 C 4.992188 -6.625 5.039062 -6.546875 5.109375 -6.476562 C 5.179688 -6.410156 5.257812 -6.359375 5.34375 -6.332031 C 5.386719 -6.316406 5.417969 -6.3125 5.4375 -6.3125 L 2.148438 -6.3125 C 2.171875 -6.3125 2.203125 -6.316406 2.242188 -6.332031 C 2.332031 -6.359375 2.410156 -6.410156 2.480469 -6.476562 C 2.546875 -6.546875 2.597656 -6.625 2.625 -6.714844 C 2.640625 -6.753906 2.644531 -6.785156 2.644531 -6.808594 L 2.644531 -4.691406 C 2.644531 -3.453125 2.949219 -2.53125 3.554688 -1.925781 C 4.15625 -1.320312 5.078125 -1.019531 6.320312 -1.019531 L 9.964844 -1.019531 C 11.222656 -1.019531 12.148438 -1.320312 12.742188 -1.921875 C 13.339844 -2.523438 13.640625 -3.449219 13.640625 -4.691406 L 13.640625 -10.8125 C 13.640625 -10.902344 13.628906 -10.960938 13.613281 -10.984375 C 13.597656 -11.007812 13.558594 -11.027344 13.496094 -11.050781 L 4.910156 -13.816406 L 4.910156 -17.328125 C 4.910156 -18.042969 5.117188 -18.609375 5.535156 -19.023438 C 5.949219 -19.441406 6.515625 -19.648438 7.230469 -19.648438 L 9.023438 -19.648438 C 9.738281 -19.648438 10.304688 -19.441406 10.71875 -19.023438 C 11.136719 -18.609375 11.34375 -18.042969 11.34375 -17.328125 L 11.34375 -15.960938 C 11.34375 -15.984375 11.335938 -16.015625 11.324219 -16.054688 C 11.292969 -16.140625 11.246094 -16.21875 11.175781 -16.289062 C 11.105469 -16.359375 11.027344 -16.40625 10.941406 -16.4375 C 10.902344 -16.449219 10.871094 -16.457031 10.847656 -16.457031 L 14.136719 -16.457031 C 14.113281 -16.457031 14.082031 -16.449219 14.042969 -16.4375 C 13.953125 -16.40625 13.875 -16.359375 13.808594 -16.289062 C 13.738281 -16.21875 13.6875 -16.140625 13.660156 -16.054688 C 13.644531 -16.015625 13.640625 -15.984375 13.640625 -15.960938 L 13.640625 -18.109375 C 13.640625 -19.371094 13.34375 -20.296875 12.75 -20.890625 C 12.15625 -21.484375 11.226562 -21.78125 9.964844 -21.78125 Z M 6.320312 -21.78125 "/></g></g><g style="fill:#060705;fill-opacity:1;"><g transform="translate(18.258457, 62.092486)"><path style="stroke:none" d="M 6.3125 -22.8125 L 9.96875 -22.8125 C 11.507812 -22.8125 12.675781 -22.410156 13.46875 -21.609375 C 14.257812 -20.816406 14.65625 -19.648438 14.65625 -18.109375 L 14.65625 -15.96875 C 14.65625 -15.613281 14.484375 -15.4375 14.140625 -15.4375 L 10.84375 -15.4375 C 10.5 -15.4375 10.328125 -15.613281 10.328125 -15.96875 L 10.328125 -17.328125 C 10.328125 -18.203125 9.894531 -18.640625 9.03125 -18.640625 L 7.234375 -18.640625 C 6.359375 -18.640625 5.921875 -18.203125 5.921875 -17.328125 L 5.921875 -14.5625 L 13.8125 -12.015625 C 14.375 -11.828125 14.65625 -11.425781 14.65625 -10.8125 L 14.65625 -4.6875 C 14.65625 -3.164062 14.257812 -2.003906 13.46875 -1.203125 C 12.675781 -0.398438 11.507812 0 9.96875 0 L 6.3125 0 C 4.800781 0 3.640625 -0.398438 2.828125 -1.203125 C 2.023438 -2.003906 1.625 -3.164062 1.625 -4.6875 L 1.625 -6.8125 C 1.625 -7.15625 1.800781 -7.328125 2.15625 -7.328125 L 5.4375 -7.328125 C 5.789062 -7.328125 5.96875 -7.15625 5.96875 -6.8125 L 5.96875 -5.4375 C 5.96875 -4.570312 6.398438 -4.140625 7.265625 -4.140625 L 9.03125 -4.140625 C 9.894531 -4.140625 10.328125 -4.570312 10.328125 -5.4375 L 10.328125 -8.734375 L 2.515625 -11.265625 C 1.921875 -11.460938 1.625 -11.867188 1.625 -12.484375 L 1.625 -18.109375 C 1.625 -19.648438 2.023438 -20.816406 2.828125 -21.609375 C 3.640625 -22.410156 4.800781 -22.8125 6.3125 -22.8125 Z M 6.3125 -22.8125 "/></g></g><g style="fill:#060705;fill-opacity:1;"><g transform="translate(34.538776, 62.092486)"><path style="stroke:none" d="M 13.484375 -22.8125 L 1.5 -22.8125 C 1.15625 -22.8125 0.984375 -22.632812 0.984375 -22.28125 L 0.984375 -19.03125 C 0.984375 -18.675781 1.15625 -18.5 1.5 -18.5 L 5.28125 -18.5 L 5.28125 -0.515625 C 5.28125 -0.171875 5.453125 0 5.796875 0 L 9.1875 0 C 9.53125 0 9.703125 -0.171875 9.703125 -0.515625 L 9.703125 -18.5 L 13.484375 -18.5 C 13.835938 -18.5 14.015625 -18.675781 14.015625 -19.03125 L 14.015625 -22.28125 C 14.015625 -22.632812 13.835938 -22.8125 13.484375 -22.8125 Z M 13.484375 -22.8125 "/></g></g><g style="fill:#060705;fill-opacity:1;"><g transform="translate(49.516672, 62.092486)"><path style="stroke:none" d="M 14.65625 -18.109375 L 14.65625 -11.5625 C 14.65625 -9.675781 14.046875 -8.351562 12.828125 -7.59375 L 14.53125 -0.59375 C 14.632812 -0.195312 14.484375 0 14.078125 0 L 10.875 0 C 10.570312 0 10.390625 -0.148438 10.328125 -0.453125 L 8.765625 -6.875 L 5.859375 -6.875 L 5.859375 -0.515625 C 5.859375 -0.171875 5.6875 0 5.34375 0 L 2.15625 0 C 1.800781 0 1.625 -0.171875 1.625 -0.515625 L 1.625 -22.28125 C 1.625 -22.632812 1.800781 -22.8125 2.15625 -22.8125 L 9.96875 -22.8125 C 11.507812 -22.8125 12.675781 -22.410156 13.46875 -21.609375 C 14.257812 -20.816406 14.65625 -19.648438 14.65625 -18.109375 Z M 5.859375 -11.078125 L 9.125 -11.078125 C 9.988281 -11.078125 10.421875 -11.507812 10.421875 -12.375 L 10.421875 -17.296875 C 10.421875 -18.171875 9.988281 -18.609375 9.125 -18.609375 L 5.859375 -18.609375 Z M 5.859375 -11.078125 "/></g></g><g style="fill:#060705;fill-opacity:1;"><g transform="translate(65.796991, 62.092486)"><path style="stroke:none" d="M 2.15625 0 L 5.53125 0 C 5.882812 0 6.0625 -0.171875 6.0625 -0.515625 L 6.0625 -22.28125 C 6.0625 -22.632812 5.882812 -22.8125 5.53125 -22.8125 L 2.15625 -22.8125 C 1.800781 -22.8125 1.625 -22.632812 1.625 -22.28125 L 1.625 -0.515625 C 1.625 -0.171875 1.800781 0 2.15625 0 Z M 2.15625 0 "/></g></g><g style="fill:#060705;fill-opacity:1;"><g transform="translate(73.481296, 62.092486)"><path style="stroke:none" d="M 14.6875 -18.109375 L 14.6875 -14.59375 C 14.6875 -14.25 14.515625 -14.078125 14.171875 -14.078125 L 11.109375 -14.078125 C 10.765625 -14.078125 10.59375 -14.25 10.59375 -14.59375 L 10.59375 -17.265625 C 10.59375 -18.128906 10.15625 -18.5625 9.28125 -18.5625 L 7.203125 -18.5625 C 6.328125 -18.5625 5.890625 -18.128906 5.890625 -17.265625 L 5.890625 -5.4375 C 5.890625 -4.570312 6.328125 -4.140625 7.203125 -4.140625 L 9.28125 -4.140625 C 10.15625 -4.140625 10.59375 -4.570312 10.59375 -5.4375 L 10.59375 -8.203125 C 10.59375 -8.554688 10.765625 -8.734375 11.109375 -8.734375 L 14.171875 -8.734375 C 14.515625 -8.734375 14.6875 -8.554688 14.6875 -8.203125 L 14.6875 -4.6875 C 14.6875 -3.164062 14.285156 -2.003906 13.484375 -1.203125 C 12.679688 -0.398438 11.519531 0 10 0 L 6.359375 0 C 4.835938 0 3.664062 -0.398438 2.84375 -1.203125 C 2.03125 -2.003906 1.625 -3.164062 1.625 -4.6875 L 1.625 -18.109375 C 1.625 -19.648438 2.03125 -20.816406 2.84375 -21.609375 C 3.664062 -22.410156 4.835938 -22.8125 6.359375 -22.8125 L 10 -22.8125 C 11.519531 -22.8125 12.679688 -22.410156 13.484375 -21.609375 C 14.285156 -20.816406 14.6875 -19.648438 14.6875 -18.109375 Z M 14.6875 -18.109375 "/></g></g><g style="fill:#060705;fill-opacity:1;"><g transform="translate(89.794182, 62.092486)"><path style="stroke:none" d="M 13.484375 -22.8125 L 1.5 -22.8125 C 1.15625 -22.8125 0.984375 -22.632812 0.984375 -22.28125 L 0.984375 -19.03125 C 0.984375 -18.675781 1.15625 -18.5 1.5 -18.5 L 5.28125 -18.5 L 5.28125 -0.515625 C 5.28125 -0.171875 5.453125 0 5.796875 0 L 9.1875 0 C 9.53125 0 9.703125 -0.171875 9.703125 -0.515625 L 9.703125 -18.5 L 13.484375 -18.5 C 13.835938 -18.5 14.015625 -18.675781 14.015625 -19.03125 L 14.015625 -22.28125 C 14.015625 -22.632812 13.835938 -22.8125 13.484375 -22.8125 Z M 13.484375 -22.8125 "/></g></g><g style="fill:#060705;fill-opacity:1;"><g transform="translate(104.772077, 62.092486)"><path style="stroke:none" d="M 0 4.359375 L 0 1.375 C 0 0.9375 0.21875 0.71875 0.65625 0.71875 L 20.296875 0.71875 C 20.734375 0.71875 20.953125 0.9375 20.953125 1.375 L 20.953125 4.359375 C 20.953125 4.796875 20.734375 5.015625 20.296875 5.015625 L 0.65625 5.015625 C 0.21875 5.015625 0 4.796875 0 4.359375 Z M 0 4.359375 "/></g></g><g style="fill:#060705;fill-opacity:1;"><g transform="translate(23.379916, 107.501899)"><path style="stroke:none" d="M 6.3125 -22.8125 L 9.96875 -22.8125 C 11.507812 -22.8125 12.675781 -22.410156 13.46875 -21.609375 C 14.257812 -20.816406 14.65625 -19.648438 14.65625 -18.109375 L 14.65625 -15.96875 C 14.65625 -15.613281 14.484375 -15.4375 14.140625 -15.4375 L 10.84375 -15.4375 C 10.5 -15.4375 10.328125 -15.613281 10.328125 -15.96875 L 10.328125 -17.328125 C 10.328125 -18.203125 9.894531 -18.640625 9.03125 -18.640625 L 7.234375 -18.640625 C 6.359375 -18.640625 5.921875 -18.203125 5.921875 -17.328125 L 5.921875 -14.5625 L 13.8125 -12.015625 C 14.375 -11.828125 14.65625 -11.425781 14.65625 -10.8125 L 14.65625 -4.6875 C 14.65625 -3.164062 14.257812 -2.003906 13.46875 -1.203125 C 12.675781 -0.398438 11.507812 0 9.96875 0 L 6.3125 0 C 4.800781 0 3.640625 -0.398438 2.828125 -1.203125 C 2.023438 -2.003906 1.625 -3.164062 1.625 -4.6875 L 1.625 -6.8125 C 1.625 -7.15625 1.800781 -7.328125 2.15625 -7.328125 L 5.4375 -7.328125 C 5.789062 -7.328125 5.96875 -7.15625 5.96875 -6.8125 L 5.96875 -5.4375 C 5.96875 -4.570312 6.398438 -4.140625 7.265625 -4.140625 L 9.03125 -4.140625 C 9.894531 -4.140625 10.328125 -4.570312 10.328125 -5.4375 L 10.328125 -8.734375 L 2.515625 -11.265625 C 1.921875 -11.460938 1.625 -11.867188 1.625 -12.484375 L 1.625 -18.109375 C 1.625 -19.648438 2.023438 -20.816406 2.828125 -21.609375 C 3.640625 -22.410156 4.800781 -22.8125 6.3125 -22.8125 Z M 6.3125 -22.8125 "/></g></g><g style="fill:#060705;fill-opacity:1;"><g transform="translate(39.660235, 107.501899)"><path style="stroke:none" d="M 13.484375 -22.8125 L 1.5 -22.8125 C 1.15625 -22.8125 0.984375 -22.632812 0.984375 -22.28125 L 0.984375 -19.03125 C 0.984375 -18.675781 1.15625 -18.5 1.5 -18.5 L 5.28125 -18.5 L 5.28125 -0.515625 C 5.28125 -0.171875 5.453125 0 5.796875 0 L 9.1875 0 C 9.53125 0 9.703125 -0.171875 9.703125 -0.515625 L 9.703125 -18.5 L 13.484375 -18.5 C 13.835938 -18.5 14.015625 -18.675781 14.015625 -19.03125 L 14.015625 -22.28125 C 14.015625 -22.632812 13.835938 -22.8125 13.484375 -22.8125 Z M 13.484375 -22.8125 "/></g></g><g style="fill:#060705;fill-opacity:1;"><g transform="translate(54.638131, 107.501899)"><path style="stroke:none" d="M 17 0 L 13.84375 0 C 13.5625 0 13.390625 -0.148438 13.328125 -0.453125 L 12.28125 -4.5625 L 6.15625 -4.5625 L 5.140625 -0.453125 C 5.078125 -0.148438 4.90625 0 4.625 0 L 1.4375 0 C 1.039062 0 0.898438 -0.179688 1.015625 -0.546875 L 6.421875 -22.34375 C 6.484375 -22.65625 6.664062 -22.8125 6.96875 -22.8125 L 11.5 -22.8125 C 11.800781 -22.8125 11.984375 -22.65625 12.046875 -22.34375 L 17.46875 -0.546875 C 17.570312 -0.179688 17.414062 0 17 0 Z M 11.265625 -8.34375 L 9.21875 -17.203125 L 7.171875 -8.34375 Z M 11.265625 -8.34375 "/></g></g><g style="fill:#060705;fill-opacity:1;"><g transform="translate(73.100017, 107.501899)"><path style="stroke:none" d="M 13.484375 -22.8125 L 1.5 -22.8125 C 1.15625 -22.8125 0.984375 -22.632812 0.984375 -22.28125 L 0.984375 -19.03125 C 0.984375 -18.675781 1.15625 -18.5 1.5 -18.5 L 5.28125 -18.5 L 5.28125 -0.515625 C 5.28125 -0.171875 5.453125 0 5.796875 0 L 9.1875 0 C 9.53125 0 9.703125 -0.171875 9.703125 -0.515625 L 9.703125 -18.5 L 13.484375 -18.5 C 13.835938 -18.5 14.015625 -18.675781 14.015625 -19.03125 L 14.015625 -22.28125 C 14.015625 -22.632812 13.835938 -22.8125 13.484375 -22.8125 Z M 13.484375 -22.8125 "/></g></g><g style="fill:#060705;fill-opacity:1;"><g transform="translate(88.077912, 107.501899)"><path style="stroke:none" d="M 14.625 -22.28125 L 14.625 -19.03125 C 14.625 -18.65625 14.453125 -18.46875 14.109375 -18.46875 L 6.0625 -18.46875 L 6.0625 -13.453125 L 12.1875 -13.453125 C 12.53125 -13.453125 12.703125 -13.269531 12.703125 -12.90625 L 12.703125 -9.671875 C 12.703125 -9.304688 12.53125 -9.125 12.1875 -9.125 L 6.0625 -9.125 L 6.0625 -4.296875 L 14.109375 -4.296875 C 14.453125 -4.296875 14.625 -4.125 14.625 -3.78125 L 14.625 -0.515625 C 14.625 -0.171875 14.453125 0 14.109375 0 L 2.125 0 C 1.789062 0 1.625 -0.171875 1.625 -0.515625 L 1.625 -22.28125 C 1.625 -22.632812 1.789062 -22.8125 2.125 -22.8125 L 14.109375 -22.8125 C 14.453125 -22.8125 14.625 -22.632812 14.625 -22.28125 Z M 14.625 -22.28125 "/></g></g><g style="fill:#060705;fill-opacity:1;"><g transform="translate(104.325665, 107.501899)"><path style="stroke:none" d="M 6.3125 -22.8125 L 9.96875 -22.8125 C 11.507812 -22.8125 12.675781 -22.410156 13.46875 -21.609375 C 14.257812 -20.816406 14.65625 -19.648438 14.65625 -18.109375 L 14.65625 -15.96875 C 14.65625 -15.613281 14.484375 -15.4375 14.140625 -15.4375 L 10.84375 -15.4375 C 10.5 -15.4375 10.328125 -15.613281 10.328125 -15.96875 L 10.328125 -17.328125 C 10.328125 -18.203125 9.894531 -18.640625 9.03125 -18.640625 L 7.234375 -18.640625 C 6.359375 -18.640625 5.921875 -18.203125 5.921875 -17.328125 L 5.921875 -14.5625 L 13.8125 -12.015625 C 14.375 -11.828125 14.65625 -11.425781 14.65625 -10.8125 L 14.65625 -4.6875 C 14.65625 -3.164062 14.257812 -2.003906 13.46875 -1.203125 C 12.675781 -0.398438 11.507812 0 9.96875 0 L 6.3125 0 C 4.800781 0 3.640625 -0.398438 2.828125 -1.203125 C 2.023438 -2.003906 1.625 -3.164062 1.625 -4.6875 L 1.625 -6.8125 C 1.625 -7.15625 1.800781 -7.328125 2.15625 -7.328125 L 5.4375 -7.328125 C 5.789062 -7.328125 5.96875 -7.15625 5.96875 -6.8125 L 5.96875 -5.4375 C 5.96875 -4.570312 6.398438 -4.140625 7.265625 -4.140625 L 9.03125 -4.140625 C 9.894531 -4.140625 10.328125 -4.570312 10.328125 -5.4375 L 10.328125 -8.734375 L 2.515625 -11.265625 C 1.921875 -11.460938 1.625 -11.867188 1.625 -12.484375 L 1.625 -18.109375 C 1.625 -19.648438 2.023438 -20.816406 2.828125 -21.609375 C 3.640625 -22.410156 4.800781 -22.8125 6.3125 -22.8125 Z M 6.3125 -22.8125 "/></g></g></g></svg>