<svg xmlns="http://www.w3.org/2000/svg" xmlns:xlink="http://www.w3.org/1999/xlink" width="128" zoomAndPan="magnify" viewBox="0 0 96 95.999999" height="128" preserveAspectRatio="xMidYMid meet" version="1.2"><defs><clipPath id="b39b705241"><path d="M 6 0 L 90 0 L 90 96 L 6 96 Z M 6 0 "/></clipPath><clipPath id="7b9647f855"><path d="M -14.304688 36.578125 L 68.691406 -11.898438 L 110.335938 59.402344 L 27.339844 107.878906 Z M -14.304688 36.578125 "/></clipPath><clipPath id="cc35306307"><path d="M 89.484375 23.769531 L 89.5625 71.535156 L 48.082031 95.765625 L 6.515625 72.226562 L 6.4375 24.464844 L 47.921875 0.234375 Z M 89.484375 23.769531 "/></clipPath><clipPath id="2452f2fca3"><path d="M 14.140625 9.121094 L 81.851562 9.121094 L 81.851562 86.839844 L 14.140625 86.839844 Z M 14.140625 9.121094 "/></clipPath></defs><g id="db893d246f"><g clip-rule="nonzero" clip-path="url(#b39b705241)"><g clip-rule="nonzero" clip-path="url(#7b9647f855)"><g clip-rule="nonzero" clip-path="url(#cc35306307)"><path style=" stroke:none;fill-rule:nonzero;fill:#65b30e;fill-opacity:1;" d="M -14.304688 36.578125 L 68.691406 -11.898438 L 110.335938 59.402344 L 27.339844 107.878906 Z M -14.304688 36.578125 "/></g></g></g><path style=" stroke:none;fill-rule:nonzero;fill:#87ff00;fill-opacity:1;" d="M 34.453125 34.738281 L 34.410156 34.695312 L 24.839844 44.265625 L 48.074219 67.457031 L 57.644531 57.933594 L 71.308594 44.265625 L 61.738281 34.695312 L 61.738281 34.652344 L 34.410156 34.652344 Z M 34.453125 34.738281 "/><g clip-rule="nonzero" clip-path="url(#2452f2fca3)"><path style=" stroke:none;fill-rule:nonzero;fill:#87ff00;fill-opacity:1;" d="M 47.988281 9.179688 L 14.148438 28.574219 L 14.148438 67.371094 L 47.988281 86.769531 L 81.828125 67.371094 L 81.828125 28.574219 Z M 75.359375 63.664062 L 47.988281 79.4375 L 20.613281 63.664062 L 20.617188 32.195312 L 47.988281 16.417969 L 75.363281 32.195312 L 75.363281 63.664062 Z M 75.359375 63.664062 "/></g><g style="fill:#b21a22;fill-opacity:1;"><g transform="translate(12.172305, 41.394993)"><path style="stroke:none" d="M 4.210938 -15.878906 L 6.644531 -15.878906 C 7.859375 -15.878906 8.796875 -15.546875 9.457031 -14.886719 C 10.121094 -14.226562 10.449219 -13.289062 10.449219 -12.074219 L 10.449219 -10.640625 C 10.449219 -10.335938 10.355469 -10.089844 10.164062 -9.898438 C 9.972656 -9.710938 9.726562 -9.613281 9.425781 -9.613281 L 7.230469 -9.613281 C 6.925781 -9.613281 6.679688 -9.710938 6.492188 -9.898438 C 6.300781 -10.089844 6.203125 -10.335938 6.203125 -10.640625 L 6.203125 -11.550781 C 6.203125 -11.625 6.199219 -11.679688 6.183594 -11.71875 C 6.183594 -11.722656 6.179688 -11.730469 6.179688 -11.730469 C 6.179688 -11.730469 6.183594 -11.726562 6.1875 -11.722656 C 6.191406 -11.71875 6.191406 -11.71875 6.195312 -11.714844 C 6.191406 -11.71875 6.1875 -11.71875 6.179688 -11.722656 C 6.140625 -11.734375 6.085938 -11.742188 6.015625 -11.742188 L 4.820312 -11.742188 C 4.75 -11.742188 4.695312 -11.734375 4.65625 -11.722656 C 4.648438 -11.71875 4.644531 -11.71875 4.640625 -11.714844 C 4.644531 -11.71875 4.644531 -11.71875 4.648438 -11.722656 C 4.652344 -11.726562 4.65625 -11.730469 4.65625 -11.730469 C 4.65625 -11.730469 4.652344 -11.722656 4.648438 -11.71875 C 4.636719 -11.679688 4.628906 -11.625 4.628906 -11.550781 L 4.628906 -9.707031 L 3.953125 -9.707031 L 4.160156 -10.351562 L 9.414062 -8.660156 C 9.75 -8.542969 10.007812 -8.359375 10.183594 -8.105469 C 10.363281 -7.851562 10.449219 -7.554688 10.449219 -7.210938 L 10.449219 -3.125 C 10.449219 -1.929688 10.121094 -0.996094 9.460938 -0.328125 C 8.800781 0.34375 7.863281 0.679688 6.644531 0.679688 L 4.210938 0.679688 C 3.011719 0.679688 2.078125 0.34375 1.410156 -0.324219 C 0.742188 -0.992188 0.40625 -1.925781 0.40625 -3.125 L 0.40625 -4.539062 C 0.40625 -4.839844 0.503906 -5.089844 0.691406 -5.277344 C 0.882812 -5.46875 1.128906 -5.5625 1.433594 -5.5625 L 3.625 -5.5625 C 3.929688 -5.5625 4.175781 -5.46875 4.367188 -5.277344 C 4.558594 -5.089844 4.652344 -4.839844 4.652344 -4.539062 L 4.652344 -3.625 C 4.652344 -3.554688 4.660156 -3.5 4.671875 -3.460938 C 4.675781 -3.453125 4.675781 -3.449219 4.675781 -3.445312 C 4.675781 -3.449219 4.675781 -3.453125 4.671875 -3.453125 C 4.667969 -3.457031 4.664062 -3.460938 4.660156 -3.460938 C 4.664062 -3.460938 4.667969 -3.457031 4.675781 -3.457031 C 4.714844 -3.441406 4.769531 -3.4375 4.84375 -3.4375 L 6.015625 -3.4375 C 6.085938 -3.4375 6.140625 -3.441406 6.179688 -3.457031 C 6.1875 -3.457031 6.191406 -3.460938 6.195312 -3.460938 C 6.191406 -3.460938 6.191406 -3.457031 6.1875 -3.453125 C 6.183594 -3.453125 6.179688 -3.449219 6.179688 -3.445312 C 6.179688 -3.449219 6.183594 -3.453125 6.183594 -3.460938 C 6.199219 -3.5 6.203125 -3.554688 6.203125 -3.625 L 6.203125 -5.820312 L 6.882812 -5.820312 L 6.671875 -5.175781 L 1.460938 -6.867188 C 1.125 -6.980469 0.867188 -7.160156 0.683594 -7.410156 C 0.5 -7.664062 0.40625 -7.964844 0.40625 -8.316406 L 0.40625 -12.074219 C 0.40625 -13.289062 0.742188 -14.230469 1.414062 -14.890625 C 2.082031 -15.550781 3.011719 -15.878906 4.210938 -15.878906 Z M 4.210938 -14.519531 C 3.386719 -14.519531 2.769531 -14.320312 2.367188 -13.925781 C 1.964844 -13.527344 1.765625 -12.910156 1.765625 -12.074219 L 1.765625 -8.316406 C 1.765625 -8.261719 1.769531 -8.226562 1.78125 -8.210938 C 1.792969 -8.195312 1.828125 -8.175781 1.882812 -8.160156 L 7.5625 -6.3125 L 7.5625 -3.625 C 7.5625 -3.148438 7.421875 -2.773438 7.144531 -2.496094 C 6.867188 -2.21875 6.492188 -2.078125 6.015625 -2.078125 L 4.84375 -2.078125 C 4.367188 -2.078125 3.988281 -2.21875 3.710938 -2.496094 C 3.433594 -2.773438 3.296875 -3.148438 3.296875 -3.625 L 3.296875 -4.539062 C 3.296875 -4.523438 3.300781 -4.5 3.308594 -4.476562 C 3.328125 -4.417969 3.359375 -4.367188 3.40625 -4.320312 C 3.453125 -4.273438 3.503906 -4.238281 3.5625 -4.21875 C 3.589844 -4.210938 3.609375 -4.207031 3.625 -4.207031 L 1.433594 -4.207031 C 1.449219 -4.207031 1.46875 -4.210938 1.496094 -4.21875 C 1.554688 -4.238281 1.605469 -4.273438 1.652344 -4.320312 C 1.699219 -4.367188 1.730469 -4.417969 1.75 -4.476562 C 1.761719 -4.5 1.765625 -4.523438 1.765625 -4.539062 L 1.765625 -3.125 C 1.765625 -2.300781 1.964844 -1.6875 2.367188 -1.285156 C 2.773438 -0.878906 3.386719 -0.679688 4.210938 -0.679688 L 6.644531 -0.679688 C 7.484375 -0.679688 8.101562 -0.878906 8.496094 -1.28125 C 8.894531 -1.683594 9.09375 -2.300781 9.09375 -3.125 L 9.09375 -7.210938 C 9.09375 -7.269531 9.085938 -7.308594 9.074219 -7.324219 C 9.066406 -7.339844 9.039062 -7.351562 9 -7.367188 L 3.273438 -9.210938 L 3.273438 -11.550781 C 3.273438 -12.027344 3.410156 -12.40625 3.6875 -12.683594 C 3.964844 -12.960938 4.34375 -13.097656 4.820312 -13.097656 L 6.015625 -13.097656 C 6.492188 -13.097656 6.867188 -12.960938 7.144531 -12.683594 C 7.421875 -12.40625 7.5625 -12.027344 7.5625 -11.550781 L 7.5625 -10.640625 C 7.5625 -10.65625 7.558594 -10.675781 7.546875 -10.703125 C 7.53125 -10.761719 7.496094 -10.8125 7.449219 -10.859375 C 7.402344 -10.90625 7.351562 -10.9375 7.292969 -10.957031 C 7.265625 -10.964844 7.246094 -10.972656 7.230469 -10.972656 L 9.425781 -10.972656 C 9.410156 -10.972656 9.386719 -10.964844 9.359375 -10.957031 C 9.304688 -10.9375 9.25 -10.90625 9.203125 -10.859375 C 9.15625 -10.8125 9.125 -10.761719 9.105469 -10.703125 C 9.097656 -10.675781 9.09375 -10.65625 9.09375 -10.640625 L 9.09375 -12.074219 C 9.09375 -12.914062 8.894531 -13.53125 8.5 -13.925781 C 8.101562 -14.324219 7.484375 -14.519531 6.644531 -14.519531 Z M 4.210938 -14.519531 "/></g></g><g style="fill:#b21a22;fill-opacity:1;"><g transform="translate(23.025852, 41.394993)"><path style="stroke:none" d="M 8.988281 -14.519531 L 1 -14.519531 C 1.015625 -14.519531 1.035156 -14.527344 1.0625 -14.535156 C 1.121094 -14.554688 1.171875 -14.585938 1.21875 -14.632812 C 1.265625 -14.679688 1.296875 -14.730469 1.316406 -14.789062 C 1.324219 -14.816406 1.328125 -14.835938 1.328125 -14.851562 L 1.328125 -12.679688 C 1.328125 -12.695312 1.324219 -12.71875 1.316406 -12.742188 C 1.296875 -12.800781 1.265625 -12.855469 1.21875 -12.898438 C 1.171875 -12.945312 1.121094 -12.980469 1.0625 -13 C 1.035156 -13.007812 1.015625 -13.011719 1 -13.011719 L 4.195312 -13.011719 L 4.195312 -0.347656 C 4.195312 -0.363281 4.191406 -0.382812 4.183594 -0.410156 C 4.164062 -0.46875 4.132812 -0.519531 4.085938 -0.566406 C 4.039062 -0.613281 3.984375 -0.644531 3.925781 -0.664062 C 3.902344 -0.675781 3.878906 -0.679688 3.863281 -0.679688 L 6.125 -0.679688 C 6.109375 -0.679688 6.085938 -0.675781 6.0625 -0.664062 C 6.003906 -0.644531 5.949219 -0.613281 5.902344 -0.566406 C 5.859375 -0.519531 5.824219 -0.46875 5.804688 -0.410156 C 5.796875 -0.382812 5.792969 -0.363281 5.792969 -0.347656 L 5.792969 -13.011719 L 8.988281 -13.011719 C 8.972656 -13.011719 8.953125 -13.007812 8.925781 -13 C 8.867188 -12.980469 8.816406 -12.945312 8.769531 -12.898438 C 8.722656 -12.855469 8.691406 -12.800781 8.671875 -12.742188 C 8.664062 -12.71875 8.660156 -12.695312 8.660156 -12.679688 L 8.660156 -14.851562 C 8.660156 -14.835938 8.664062 -14.816406 8.671875 -14.789062 C 8.691406 -14.730469 8.722656 -14.679688 8.769531 -14.632812 C 8.816406 -14.585938 8.867188 -14.554688 8.925781 -14.535156 C 8.953125 -14.527344 8.972656 -14.519531 8.988281 -14.519531 Z M 8.988281 -15.878906 C 9.292969 -15.878906 9.539062 -15.78125 9.730469 -15.59375 C 9.921875 -15.402344 10.015625 -15.15625 10.015625 -14.851562 L 10.015625 -12.679688 C 10.015625 -12.378906 9.921875 -12.132812 9.730469 -11.941406 C 9.539062 -11.75 9.292969 -11.65625 8.988281 -11.65625 L 6.472656 -11.65625 L 6.472656 -12.332031 L 7.148438 -12.332031 L 7.148438 -0.347656 C 7.148438 -0.0429688 7.054688 0.203125 6.863281 0.394531 C 6.671875 0.582031 6.425781 0.679688 6.125 0.679688 L 3.863281 0.679688 C 3.5625 0.679688 3.316406 0.582031 3.125 0.394531 C 2.933594 0.203125 2.839844 -0.0429688 2.839844 -0.347656 L 2.839844 -12.332031 L 3.519531 -12.332031 L 3.519531 -11.65625 L 1 -11.65625 C 0.695312 -11.65625 0.449219 -11.75 0.257812 -11.941406 C 0.0664062 -12.132812 -0.0273438 -12.378906 -0.0273438 -12.679688 L -0.0273438 -14.851562 C -0.0273438 -15.15625 0.0664062 -15.402344 0.257812 -15.59375 C 0.449219 -15.78125 0.695312 -15.878906 1 -15.878906 Z M 8.988281 -15.878906 "/></g></g><g style="fill:#b21a22;fill-opacity:1;"><g transform="translate(33.011117, 41.394993)"><path style="stroke:none" d="M 10.449219 -12.074219 L 10.449219 -7.707031 C 10.449219 -6.199219 9.9375 -5.125 8.914062 -4.484375 L 8.554688 -5.058594 L 9.214844 -5.21875 L 10.34375 -0.550781 L 9.683594 -0.390625 L 10.339844 -0.574219 C 10.433594 -0.222656 10.390625 0.0742188 10.199219 0.320312 C 10.011719 0.558594 9.738281 0.679688 9.378906 0.679688 L 7.253906 0.679688 C 6.988281 0.679688 6.761719 0.601562 6.578125 0.449219 C 6.394531 0.296875 6.273438 0.09375 6.21875 -0.160156 L 6.882812 -0.304688 L 6.222656 -0.144531 L 5.183594 -4.421875 L 5.839844 -4.582031 L 5.839844 -3.902344 L 3.910156 -3.902344 L 3.910156 -4.582031 L 4.585938 -4.582031 L 4.585938 -0.347656 C 4.585938 -0.0429688 4.492188 0.203125 4.300781 0.394531 C 4.109375 0.582031 3.863281 0.679688 3.5625 0.679688 L 1.433594 0.679688 C 1.128906 0.679688 0.882812 0.582031 0.691406 0.394531 C 0.503906 0.203125 0.40625 -0.0429688 0.40625 -0.347656 L 0.40625 -14.851562 C 0.40625 -15.15625 0.503906 -15.402344 0.691406 -15.59375 C 0.882812 -15.78125 1.128906 -15.878906 1.433594 -15.878906 L 6.644531 -15.878906 C 7.859375 -15.878906 8.796875 -15.546875 9.457031 -14.886719 C 10.121094 -14.226562 10.449219 -13.289062 10.449219 -12.074219 Z M 9.09375 -12.074219 C 9.09375 -12.914062 8.894531 -13.53125 8.5 -13.925781 C 8.101562 -14.324219 7.484375 -14.519531 6.644531 -14.519531 L 1.433594 -14.519531 C 1.449219 -14.519531 1.46875 -14.527344 1.496094 -14.535156 C 1.554688 -14.554688 1.605469 -14.585938 1.652344 -14.632812 C 1.699219 -14.679688 1.730469 -14.730469 1.75 -14.789062 C 1.761719 -14.816406 1.765625 -14.835938 1.765625 -14.851562 L 1.765625 -0.347656 C 1.765625 -0.363281 1.761719 -0.382812 1.75 -0.410156 C 1.730469 -0.46875 1.699219 -0.519531 1.652344 -0.566406 C 1.605469 -0.613281 1.554688 -0.644531 1.496094 -0.664062 C 1.46875 -0.675781 1.449219 -0.679688 1.433594 -0.679688 L 3.5625 -0.679688 C 3.546875 -0.679688 3.523438 -0.675781 3.5 -0.664062 C 3.441406 -0.644531 3.386719 -0.613281 3.34375 -0.566406 C 3.296875 -0.519531 3.261719 -0.46875 3.242188 -0.410156 C 3.234375 -0.382812 3.230469 -0.363281 3.230469 -0.347656 L 3.230469 -5.261719 L 6.375 -5.261719 L 7.542969 -0.457031 L 7.546875 -0.445312 C 7.535156 -0.5 7.5 -0.550781 7.441406 -0.601562 C 7.375 -0.652344 7.3125 -0.679688 7.253906 -0.679688 L 9.382812 -0.679688 C 9.367188 -0.675781 9.351562 -0.671875 9.332031 -0.664062 C 9.253906 -0.636719 9.183594 -0.585938 9.128906 -0.515625 C 9.070312 -0.4375 9.035156 -0.359375 9.03125 -0.269531 C 9.027344 -0.242188 9.027344 -0.21875 9.03125 -0.210938 L 9.027344 -0.21875 L 7.78125 -5.375 L 8.195312 -5.636719 C 8.792969 -6.007812 9.09375 -6.699219 9.09375 -7.707031 Z M 3.910156 -8.0625 L 6.078125 -8.0625 C 6.152344 -8.0625 6.207031 -8.066406 6.246094 -8.082031 C 6.253906 -8.082031 6.257812 -8.085938 6.261719 -8.085938 C 6.257812 -8.085938 6.253906 -8.082031 6.25 -8.078125 C 6.25 -8.078125 6.246094 -8.074219 6.246094 -8.070312 C 6.246094 -8.074219 6.246094 -8.078125 6.25 -8.085938 C 6.261719 -8.125 6.269531 -8.179688 6.269531 -8.25 L 6.269531 -11.53125 C 6.269531 -11.601562 6.261719 -11.65625 6.25 -11.695312 C 6.246094 -11.703125 6.246094 -11.707031 6.246094 -11.710938 C 6.246094 -11.707031 6.25 -11.703125 6.25 -11.703125 C 6.253906 -11.699219 6.257812 -11.695312 6.261719 -11.695312 C 6.257812 -11.695312 6.253906 -11.699219 6.246094 -11.699219 C 6.207031 -11.714844 6.152344 -11.71875 6.078125 -11.71875 L 3.910156 -11.71875 L 3.910156 -12.398438 L 4.585938 -12.398438 L 4.585938 -7.382812 L 3.910156 -7.382812 Z M 3.230469 -6.703125 L 3.230469 -13.078125 L 6.078125 -13.078125 C 6.558594 -13.078125 6.933594 -12.9375 7.210938 -12.660156 C 7.488281 -12.382812 7.628906 -12.007812 7.628906 -11.53125 L 7.628906 -8.25 C 7.628906 -7.773438 7.488281 -7.398438 7.210938 -7.121094 C 6.933594 -6.84375 6.558594 -6.703125 6.078125 -6.703125 Z M 3.230469 -6.703125 "/></g></g><g style="fill:#b21a22;fill-opacity:1;"><g transform="translate(43.864664, 41.394993)"><path style="stroke:none" d="M 1.433594 -0.679688 L 3.691406 -0.679688 C 3.675781 -0.679688 3.65625 -0.675781 3.628906 -0.664062 C 3.570312 -0.644531 3.519531 -0.613281 3.472656 -0.566406 C 3.425781 -0.519531 3.394531 -0.46875 3.375 -0.410156 C 3.363281 -0.382812 3.359375 -0.363281 3.359375 -0.347656 L 3.359375 -14.851562 C 3.359375 -14.835938 3.363281 -14.816406 3.375 -14.789062 C 3.394531 -14.730469 3.425781 -14.679688 3.472656 -14.632812 C 3.519531 -14.585938 3.570312 -14.554688 3.628906 -14.535156 C 3.65625 -14.527344 3.675781 -14.519531 3.691406 -14.519531 L 1.433594 -14.519531 C 1.449219 -14.519531 1.46875 -14.527344 1.496094 -14.535156 C 1.554688 -14.554688 1.605469 -14.585938 1.652344 -14.632812 C 1.699219 -14.679688 1.730469 -14.730469 1.75 -14.789062 C 1.761719 -14.816406 1.765625 -14.835938 1.765625 -14.851562 L 1.765625 -0.347656 C 1.765625 -0.363281 1.761719 -0.382812 1.75 -0.410156 C 1.730469 -0.46875 1.699219 -0.519531 1.652344 -0.566406 C 1.605469 -0.613281 1.554688 -0.644531 1.496094 -0.664062 C 1.46875 -0.675781 1.449219 -0.679688 1.433594 -0.679688 Z M 1.433594 0.679688 C 1.128906 0.679688 0.882812 0.582031 0.691406 0.394531 C 0.503906 0.203125 0.40625 -0.0429688 0.40625 -0.347656 L 0.40625 -14.851562 C 0.40625 -15.15625 0.503906 -15.402344 0.691406 -15.59375 C 0.882812 -15.78125 1.128906 -15.878906 1.433594 -15.878906 L 3.691406 -15.878906 C 3.996094 -15.878906 4.242188 -15.78125 4.433594 -15.59375 C 4.621094 -15.402344 4.71875 -15.15625 4.71875 -14.851562 L 4.71875 -0.347656 C 4.71875 -0.0429688 4.621094 0.203125 4.433594 0.394531 C 4.242188 0.582031 3.996094 0.679688 3.691406 0.679688 Z M 1.433594 0.679688 "/></g></g><g style="fill:#b21a22;fill-opacity:1;"><g transform="translate(48.987535, 41.394993)"><path style="stroke:none" d="M 10.472656 -12.074219 L 10.472656 -9.726562 C 10.472656 -9.425781 10.375 -9.179688 10.1875 -8.988281 C 9.996094 -8.796875 9.75 -8.703125 9.445312 -8.703125 L 7.40625 -8.703125 C 7.101562 -8.703125 6.855469 -8.796875 6.664062 -8.988281 C 6.472656 -9.179688 6.378906 -9.425781 6.378906 -9.726562 L 6.378906 -11.507812 C 6.378906 -11.578125 6.371094 -11.636719 6.359375 -11.671875 C 6.355469 -11.679688 6.355469 -11.6875 6.351562 -11.6875 C 6.355469 -11.6875 6.355469 -11.683594 6.359375 -11.679688 C 6.363281 -11.675781 6.367188 -11.675781 6.367188 -11.671875 C 6.367188 -11.675781 6.359375 -11.675781 6.355469 -11.679688 C 6.316406 -11.691406 6.261719 -11.699219 6.1875 -11.699219 L 4.796875 -11.699219 C 4.726562 -11.699219 4.671875 -11.691406 4.632812 -11.679688 C 4.625 -11.675781 4.621094 -11.675781 4.617188 -11.671875 C 4.621094 -11.675781 4.625 -11.675781 4.628906 -11.679688 C 4.628906 -11.683594 4.632812 -11.6875 4.632812 -11.6875 C 4.632812 -11.6875 4.628906 -11.679688 4.628906 -11.671875 C 4.617188 -11.636719 4.609375 -11.578125 4.609375 -11.507812 L 4.609375 -3.625 C 4.609375 -3.554688 4.617188 -3.5 4.628906 -3.460938 C 4.628906 -3.453125 4.632812 -3.449219 4.632812 -3.445312 C 4.632812 -3.449219 4.628906 -3.453125 4.628906 -3.453125 C 4.625 -3.457031 4.621094 -3.460938 4.617188 -3.460938 C 4.621094 -3.460938 4.625 -3.457031 4.632812 -3.457031 C 4.671875 -3.441406 4.726562 -3.4375 4.796875 -3.4375 L 6.1875 -3.4375 C 6.261719 -3.4375 6.316406 -3.441406 6.355469 -3.457031 C 6.359375 -3.457031 6.367188 -3.460938 6.367188 -3.460938 C 6.367188 -3.460938 6.363281 -3.457031 6.359375 -3.453125 C 6.355469 -3.453125 6.355469 -3.449219 6.351562 -3.445312 C 6.355469 -3.449219 6.355469 -3.453125 6.359375 -3.460938 C 6.371094 -3.5 6.378906 -3.554688 6.378906 -3.625 L 6.378906 -5.472656 C 6.378906 -5.773438 6.472656 -6.023438 6.664062 -6.210938 C 6.855469 -6.402344 7.101562 -6.496094 7.40625 -6.496094 L 9.445312 -6.496094 C 9.75 -6.496094 9.996094 -6.402344 10.1875 -6.210938 C 10.375 -6.023438 10.472656 -5.773438 10.472656 -5.472656 L 10.472656 -3.125 C 10.472656 -1.925781 10.136719 -0.992188 9.46875 -0.324219 C 8.800781 0.34375 7.867188 0.679688 6.667969 0.679688 L 4.234375 0.679688 C 3.035156 0.679688 2.097656 0.34375 1.421875 -0.320312 C 0.746094 -0.988281 0.40625 -1.925781 0.40625 -3.125 L 0.40625 -12.074219 C 0.40625 -13.292969 0.746094 -14.230469 1.425781 -14.894531 C 2.101562 -15.550781 3.035156 -15.878906 4.234375 -15.878906 L 6.667969 -15.878906 C 7.863281 -15.878906 8.796875 -15.550781 9.464844 -14.890625 C 10.136719 -14.230469 10.472656 -13.289062 10.472656 -12.074219 Z M 9.113281 -12.074219 C 9.113281 -12.910156 8.914062 -13.527344 8.511719 -13.925781 C 8.109375 -14.320312 7.492188 -14.519531 6.667969 -14.519531 L 4.234375 -14.519531 C 3.40625 -14.519531 2.785156 -14.320312 2.375 -13.921875 C 1.96875 -13.527344 1.765625 -12.910156 1.765625 -12.074219 L 1.765625 -3.125 C 1.765625 -2.300781 1.96875 -1.6875 2.375 -1.285156 C 2.789062 -0.882812 3.40625 -0.679688 4.234375 -0.679688 L 6.667969 -0.679688 C 7.492188 -0.679688 8.105469 -0.878906 8.507812 -1.285156 C 8.914062 -1.6875 9.113281 -2.300781 9.113281 -3.125 L 9.113281 -5.472656 C 9.113281 -5.457031 9.117188 -5.433594 9.128906 -5.410156 C 9.148438 -5.351562 9.179688 -5.300781 9.226562 -5.253906 C 9.273438 -5.207031 9.324219 -5.171875 9.382812 -5.152344 C 9.410156 -5.144531 9.429688 -5.140625 9.445312 -5.140625 L 7.40625 -5.140625 C 7.421875 -5.140625 7.441406 -5.144531 7.46875 -5.152344 C 7.523438 -5.171875 7.578125 -5.207031 7.625 -5.253906 C 7.671875 -5.300781 7.703125 -5.351562 7.722656 -5.410156 C 7.730469 -5.433594 7.734375 -5.457031 7.734375 -5.472656 L 7.734375 -3.625 C 7.734375 -3.148438 7.597656 -2.773438 7.320312 -2.496094 C 7.042969 -2.21875 6.664062 -2.078125 6.1875 -2.078125 L 4.796875 -2.078125 C 4.320312 -2.078125 3.945312 -2.21875 3.667969 -2.496094 C 3.390625 -2.773438 3.25 -3.148438 3.25 -3.625 L 3.25 -11.507812 C 3.25 -11.984375 3.390625 -12.363281 3.667969 -12.640625 C 3.945312 -12.917969 4.320312 -13.054688 4.796875 -13.054688 L 6.1875 -13.054688 C 6.664062 -13.054688 7.042969 -12.917969 7.320312 -12.640625 C 7.597656 -12.363281 7.734375 -11.984375 7.734375 -11.507812 L 7.734375 -9.726562 C 7.734375 -9.742188 7.730469 -9.765625 7.722656 -9.789062 C 7.703125 -9.847656 7.671875 -9.902344 7.625 -9.945312 C 7.578125 -9.992188 7.523438 -10.027344 7.46875 -10.046875 C 7.441406 -10.054688 7.421875 -10.058594 7.40625 -10.058594 L 9.445312 -10.058594 C 9.429688 -10.058594 9.410156 -10.054688 9.382812 -10.046875 C 9.324219 -10.027344 9.273438 -9.992188 9.226562 -9.945312 C 9.179688 -9.902344 9.148438 -9.847656 9.128906 -9.789062 C 9.117188 -9.765625 9.113281 -9.742188 9.113281 -9.726562 Z M 9.113281 -12.074219 "/></g></g><g style="fill:#b21a22;fill-opacity:1;"><g transform="translate(59.862793, 41.394993)"><path style="stroke:none" d="M 8.988281 -14.519531 L 1 -14.519531 C 1.015625 -14.519531 1.035156 -14.527344 1.0625 -14.535156 C 1.121094 -14.554688 1.171875 -14.585938 1.21875 -14.632812 C 1.265625 -14.679688 1.296875 -14.730469 1.316406 -14.789062 C 1.324219 -14.816406 1.328125 -14.835938 1.328125 -14.851562 L 1.328125 -12.679688 C 1.328125 -12.695312 1.324219 -12.71875 1.316406 -12.742188 C 1.296875 -12.800781 1.265625 -12.855469 1.21875 -12.898438 C 1.171875 -12.945312 1.121094 -12.980469 1.0625 -13 C 1.035156 -13.007812 1.015625 -13.011719 1 -13.011719 L 4.195312 -13.011719 L 4.195312 -0.347656 C 4.195312 -0.363281 4.191406 -0.382812 4.183594 -0.410156 C 4.164062 -0.46875 4.132812 -0.519531 4.085938 -0.566406 C 4.039062 -0.613281 3.984375 -0.644531 3.925781 -0.664062 C 3.902344 -0.675781 3.878906 -0.679688 3.863281 -0.679688 L 6.125 -0.679688 C 6.109375 -0.679688 6.085938 -0.675781 6.0625 -0.664062 C 6.003906 -0.644531 5.949219 -0.613281 5.902344 -0.566406 C 5.859375 -0.519531 5.824219 -0.46875 5.804688 -0.410156 C 5.796875 -0.382812 5.792969 -0.363281 5.792969 -0.347656 L 5.792969 -13.011719 L 8.988281 -13.011719 C 8.972656 -13.011719 8.953125 -13.007812 8.925781 -13 C 8.867188 -12.980469 8.816406 -12.945312 8.769531 -12.898438 C 8.722656 -12.855469 8.691406 -12.800781 8.671875 -12.742188 C 8.664062 -12.71875 8.660156 -12.695312 8.660156 -12.679688 L 8.660156 -14.851562 C 8.660156 -14.835938 8.664062 -14.816406 8.671875 -14.789062 C 8.691406 -14.730469 8.722656 -14.679688 8.769531 -14.632812 C 8.816406 -14.585938 8.867188 -14.554688 8.925781 -14.535156 C 8.953125 -14.527344 8.972656 -14.519531 8.988281 -14.519531 Z M 8.988281 -15.878906 C 9.292969 -15.878906 9.539062 -15.78125 9.730469 -15.59375 C 9.921875 -15.402344 10.015625 -15.15625 10.015625 -14.851562 L 10.015625 -12.679688 C 10.015625 -12.378906 9.921875 -12.132812 9.730469 -11.941406 C 9.539062 -11.75 9.292969 -11.65625 8.988281 -11.65625 L 6.472656 -11.65625 L 6.472656 -12.332031 L 7.148438 -12.332031 L 7.148438 -0.347656 C 7.148438 -0.0429688 7.054688 0.203125 6.863281 0.394531 C 6.671875 0.582031 6.425781 0.679688 6.125 0.679688 L 3.863281 0.679688 C 3.5625 0.679688 3.316406 0.582031 3.125 0.394531 C 2.933594 0.203125 2.839844 -0.0429688 2.839844 -0.347656 L 2.839844 -12.332031 L 3.519531 -12.332031 L 3.519531 -11.65625 L 1 -11.65625 C 0.695312 -11.65625 0.449219 -11.75 0.257812 -11.941406 C 0.0664062 -12.132812 -0.0273438 -12.378906 -0.0273438 -12.679688 L -0.0273438 -14.851562 C -0.0273438 -15.15625 0.0664062 -15.402344 0.257812 -15.59375 C 0.449219 -15.78125 0.695312 -15.878906 1 -15.878906 Z M 8.988281 -15.878906 "/></g></g><g style="fill:#b21a22;fill-opacity:1;"><g transform="translate(69.848058, 41.394993)"><path style="stroke:none" d="M -0.679688 2.910156 L -0.679688 0.910156 C -0.679688 0.578125 -0.574219 0.3125 -0.371094 0.105469 C -0.167969 -0.0976562 0.101562 -0.199219 0.433594 -0.199219 L 13.527344 -0.199219 C 13.859375 -0.199219 14.128906 -0.0976562 14.332031 0.105469 C 14.539062 0.3125 14.640625 0.578125 14.640625 0.910156 L 14.640625 2.910156 C 14.640625 3.242188 14.539062 3.511719 14.332031 3.714844 C 14.128906 3.921875 13.859375 4.023438 13.527344 4.023438 L 0.433594 4.023438 C 0.101562 4.023438 -0.167969 3.921875 -0.371094 3.714844 C -0.574219 3.511719 -0.679688 3.242188 -0.679688 2.910156 Z M 0.679688 2.910156 C 0.679688 2.914062 0.679688 2.914062 0.679688 2.917969 C 0.679688 2.917969 0.679688 2.917969 0.679688 2.914062 C 0.675781 2.90625 0.675781 2.898438 0.671875 2.886719 C 0.65625 2.839844 0.628906 2.792969 0.589844 2.753906 C 0.550781 2.714844 0.507812 2.6875 0.457031 2.671875 C 0.449219 2.667969 0.4375 2.667969 0.429688 2.664062 C 0.425781 2.664062 0.425781 2.664062 0.425781 2.664062 C 0.429688 2.664062 0.429688 2.664062 0.433594 2.664062 L 13.527344 2.664062 C 13.53125 2.664062 13.535156 2.664062 13.535156 2.664062 C 13.523438 2.667969 13.515625 2.667969 13.503906 2.671875 C 13.457031 2.6875 13.414062 2.714844 13.375 2.753906 C 13.335938 2.792969 13.308594 2.839844 13.292969 2.886719 C 13.289062 2.898438 13.285156 2.90625 13.285156 2.914062 C 13.285156 2.917969 13.285156 2.917969 13.285156 2.917969 C 13.285156 2.914062 13.285156 2.914062 13.285156 2.910156 L 13.285156 0.910156 C 13.285156 0.910156 13.285156 0.90625 13.285156 0.90625 C 13.285156 0.914062 13.289062 0.925781 13.292969 0.9375 C 13.308594 0.984375 13.335938 1.027344 13.375 1.066406 C 13.414062 1.105469 13.457031 1.132812 13.503906 1.148438 C 13.515625 1.152344 13.523438 1.15625 13.535156 1.15625 C 13.535156 1.15625 13.53125 1.15625 13.527344 1.15625 L 0.433594 1.15625 C 0.429688 1.15625 0.429688 1.15625 0.425781 1.15625 C 0.425781 1.15625 0.425781 1.15625 0.429688 1.15625 C 0.4375 1.15625 0.449219 1.152344 0.457031 1.148438 C 0.507812 1.132812 0.550781 1.105469 0.589844 1.066406 C 0.628906 1.027344 0.65625 0.984375 0.671875 0.9375 C 0.675781 0.925781 0.675781 0.914062 0.679688 0.90625 C 0.679688 0.90625 0.679688 0.910156 0.679688 0.910156 Z M 0.679688 2.910156 "/></g></g><g style="fill:#b21a22;fill-opacity:1;"><g transform="translate(15.586611, 71.667938)"><path style="stroke:none" d="M 4.210938 -15.878906 L 6.644531 -15.878906 C 7.859375 -15.878906 8.796875 -15.546875 9.457031 -14.886719 C 10.121094 -14.226562 10.449219 -13.289062 10.449219 -12.074219 L 10.449219 -10.640625 C 10.449219 -10.335938 10.355469 -10.089844 10.164062 -9.898438 C 9.972656 -9.710938 9.726562 -9.613281 9.425781 -9.613281 L 7.230469 -9.613281 C 6.925781 -9.613281 6.679688 -9.710938 6.492188 -9.898438 C 6.300781 -10.089844 6.203125 -10.335938 6.203125 -10.640625 L 6.203125 -11.550781 C 6.203125 -11.625 6.199219 -11.679688 6.183594 -11.71875 C 6.183594 -11.722656 6.179688 -11.730469 6.179688 -11.730469 C 6.179688 -11.730469 6.183594 -11.726562 6.1875 -11.722656 C 6.191406 -11.71875 6.191406 -11.71875 6.195312 -11.714844 C 6.191406 -11.71875 6.1875 -11.71875 6.179688 -11.722656 C 6.140625 -11.734375 6.085938 -11.742188 6.015625 -11.742188 L 4.820312 -11.742188 C 4.75 -11.742188 4.695312 -11.734375 4.65625 -11.722656 C 4.648438 -11.71875 4.644531 -11.71875 4.640625 -11.714844 C 4.644531 -11.71875 4.644531 -11.71875 4.648438 -11.722656 C 4.652344 -11.726562 4.65625 -11.730469 4.65625 -11.730469 C 4.65625 -11.730469 4.652344 -11.722656 4.648438 -11.71875 C 4.636719 -11.679688 4.628906 -11.625 4.628906 -11.550781 L 4.628906 -9.707031 L 3.953125 -9.707031 L 4.160156 -10.351562 L 9.414062 -8.660156 C 9.75 -8.542969 10.007812 -8.359375 10.183594 -8.105469 C 10.363281 -7.851562 10.449219 -7.554688 10.449219 -7.210938 L 10.449219 -3.125 C 10.449219 -1.929688 10.121094 -0.996094 9.460938 -0.328125 C 8.800781 0.34375 7.863281 0.679688 6.644531 0.679688 L 4.210938 0.679688 C 3.011719 0.679688 2.078125 0.34375 1.410156 -0.324219 C 0.742188 -0.992188 0.40625 -1.925781 0.40625 -3.125 L 0.40625 -4.539062 C 0.40625 -4.839844 0.503906 -5.089844 0.691406 -5.277344 C 0.882812 -5.46875 1.128906 -5.5625 1.433594 -5.5625 L 3.625 -5.5625 C 3.929688 -5.5625 4.175781 -5.46875 4.367188 -5.277344 C 4.558594 -5.089844 4.652344 -4.839844 4.652344 -4.539062 L 4.652344 -3.625 C 4.652344 -3.554688 4.660156 -3.5 4.671875 -3.460938 C 4.675781 -3.453125 4.675781 -3.449219 4.675781 -3.445312 C 4.675781 -3.449219 4.675781 -3.453125 4.671875 -3.453125 C 4.667969 -3.457031 4.664062 -3.460938 4.660156 -3.460938 C 4.664062 -3.460938 4.667969 -3.457031 4.675781 -3.457031 C 4.714844 -3.441406 4.769531 -3.4375 4.84375 -3.4375 L 6.015625 -3.4375 C 6.085938 -3.4375 6.140625 -3.441406 6.179688 -3.457031 C 6.1875 -3.457031 6.191406 -3.460938 6.195312 -3.460938 C 6.191406 -3.460938 6.191406 -3.457031 6.1875 -3.453125 C 6.183594 -3.453125 6.179688 -3.449219 6.179688 -3.445312 C 6.179688 -3.449219 6.183594 -3.453125 6.183594 -3.460938 C 6.199219 -3.5 6.203125 -3.554688 6.203125 -3.625 L 6.203125 -5.820312 L 6.882812 -5.820312 L 6.671875 -5.175781 L 1.460938 -6.867188 C 1.125 -6.980469 0.867188 -7.160156 0.683594 -7.410156 C 0.5 -7.664062 0.40625 -7.964844 0.40625 -8.316406 L 0.40625 -12.074219 C 0.40625 -13.289062 0.742188 -14.230469 1.414062 -14.890625 C 2.082031 -15.550781 3.011719 -15.878906 4.210938 -15.878906 Z M 4.210938 -14.519531 C 3.386719 -14.519531 2.769531 -14.320312 2.367188 -13.925781 C 1.964844 -13.527344 1.765625 -12.910156 1.765625 -12.074219 L 1.765625 -8.316406 C 1.765625 -8.261719 1.769531 -8.226562 1.78125 -8.210938 C 1.792969 -8.195312 1.828125 -8.175781 1.882812 -8.160156 L 7.5625 -6.3125 L 7.5625 -3.625 C 7.5625 -3.148438 7.421875 -2.773438 7.144531 -2.496094 C 6.867188 -2.21875 6.492188 -2.078125 6.015625 -2.078125 L 4.84375 -2.078125 C 4.367188 -2.078125 3.988281 -2.21875 3.710938 -2.496094 C 3.433594 -2.773438 3.296875 -3.148438 3.296875 -3.625 L 3.296875 -4.539062 C 3.296875 -4.523438 3.300781 -4.5 3.308594 -4.476562 C 3.328125 -4.417969 3.359375 -4.367188 3.40625 -4.320312 C 3.453125 -4.273438 3.503906 -4.238281 3.5625 -4.21875 C 3.589844 -4.210938 3.609375 -4.207031 3.625 -4.207031 L 1.433594 -4.207031 C 1.449219 -4.207031 1.46875 -4.210938 1.496094 -4.21875 C 1.554688 -4.238281 1.605469 -4.273438 1.652344 -4.320312 C 1.699219 -4.367188 1.730469 -4.417969 1.75 -4.476562 C 1.761719 -4.5 1.765625 -4.523438 1.765625 -4.539062 L 1.765625 -3.125 C 1.765625 -2.300781 1.964844 -1.6875 2.367188 -1.285156 C 2.773438 -0.878906 3.386719 -0.679688 4.210938 -0.679688 L 6.644531 -0.679688 C 7.484375 -0.679688 8.101562 -0.878906 8.496094 -1.28125 C 8.894531 -1.683594 9.09375 -2.300781 9.09375 -3.125 L 9.09375 -7.210938 C 9.09375 -7.269531 9.085938 -7.308594 9.074219 -7.324219 C 9.066406 -7.339844 9.039062 -7.351562 9 -7.367188 L 3.273438 -9.210938 L 3.273438 -11.550781 C 3.273438 -12.027344 3.410156 -12.40625 3.6875 -12.683594 C 3.964844 -12.960938 4.34375 -13.097656 4.820312 -13.097656 L 6.015625 -13.097656 C 6.492188 -13.097656 6.867188 -12.960938 7.144531 -12.683594 C 7.421875 -12.40625 7.5625 -12.027344 7.5625 -11.550781 L 7.5625 -10.640625 C 7.5625 -10.65625 7.558594 -10.675781 7.546875 -10.703125 C 7.53125 -10.761719 7.496094 -10.8125 7.449219 -10.859375 C 7.402344 -10.90625 7.351562 -10.9375 7.292969 -10.957031 C 7.265625 -10.964844 7.246094 -10.972656 7.230469 -10.972656 L 9.425781 -10.972656 C 9.410156 -10.972656 9.386719 -10.964844 9.359375 -10.957031 C 9.304688 -10.9375 9.25 -10.90625 9.203125 -10.859375 C 9.15625 -10.8125 9.125 -10.761719 9.105469 -10.703125 C 9.097656 -10.675781 9.09375 -10.65625 9.09375 -10.640625 L 9.09375 -12.074219 C 9.09375 -12.914062 8.894531 -13.53125 8.5 -13.925781 C 8.101562 -14.324219 7.484375 -14.519531 6.644531 -14.519531 Z M 4.210938 -14.519531 "/></g></g><g style="fill:#b21a22;fill-opacity:1;"><g transform="translate(26.440159, 71.667938)"><path style="stroke:none" d="M 8.988281 -14.519531 L 1 -14.519531 C 1.015625 -14.519531 1.035156 -14.527344 1.0625 -14.535156 C 1.121094 -14.554688 1.171875 -14.585938 1.21875 -14.632812 C 1.265625 -14.679688 1.296875 -14.730469 1.316406 -14.789062 C 1.324219 -14.816406 1.328125 -14.835938 1.328125 -14.851562 L 1.328125 -12.679688 C 1.328125 -12.695312 1.324219 -12.71875 1.316406 -12.742188 C 1.296875 -12.800781 1.265625 -12.855469 1.21875 -12.898438 C 1.171875 -12.945312 1.121094 -12.980469 1.0625 -13 C 1.035156 -13.007812 1.015625 -13.011719 1 -13.011719 L 4.195312 -13.011719 L 4.195312 -0.347656 C 4.195312 -0.363281 4.191406 -0.382812 4.183594 -0.410156 C 4.164062 -0.46875 4.132812 -0.519531 4.085938 -0.566406 C 4.039062 -0.613281 3.984375 -0.644531 3.925781 -0.664062 C 3.902344 -0.675781 3.878906 -0.679688 3.863281 -0.679688 L 6.125 -0.679688 C 6.109375 -0.679688 6.085938 -0.675781 6.0625 -0.664062 C 6.003906 -0.644531 5.949219 -0.613281 5.902344 -0.566406 C 5.859375 -0.519531 5.824219 -0.46875 5.804688 -0.410156 C 5.796875 -0.382812 5.792969 -0.363281 5.792969 -0.347656 L 5.792969 -13.011719 L 8.988281 -13.011719 C 8.972656 -13.011719 8.953125 -13.007812 8.925781 -13 C 8.867188 -12.980469 8.816406 -12.945312 8.769531 -12.898438 C 8.722656 -12.855469 8.691406 -12.800781 8.671875 -12.742188 C 8.664062 -12.71875 8.660156 -12.695312 8.660156 -12.679688 L 8.660156 -14.851562 C 8.660156 -14.835938 8.664062 -14.816406 8.671875 -14.789062 C 8.691406 -14.730469 8.722656 -14.679688 8.769531 -14.632812 C 8.816406 -14.585938 8.867188 -14.554688 8.925781 -14.535156 C 8.953125 -14.527344 8.972656 -14.519531 8.988281 -14.519531 Z M 8.988281 -15.878906 C 9.292969 -15.878906 9.539062 -15.78125 9.730469 -15.59375 C 9.921875 -15.402344 10.015625 -15.15625 10.015625 -14.851562 L 10.015625 -12.679688 C 10.015625 -12.378906 9.921875 -12.132812 9.730469 -11.941406 C 9.539062 -11.75 9.292969 -11.65625 8.988281 -11.65625 L 6.472656 -11.65625 L 6.472656 -12.332031 L 7.148438 -12.332031 L 7.148438 -0.347656 C 7.148438 -0.0429688 7.054688 0.203125 6.863281 0.394531 C 6.671875 0.582031 6.425781 0.679688 6.125 0.679688 L 3.863281 0.679688 C 3.5625 0.679688 3.316406 0.582031 3.125 0.394531 C 2.933594 0.203125 2.839844 -0.0429688 2.839844 -0.347656 L 2.839844 -12.332031 L 3.519531 -12.332031 L 3.519531 -11.65625 L 1 -11.65625 C 0.695312 -11.65625 0.449219 -11.75 0.257812 -11.941406 C 0.0664062 -12.132812 -0.0273438 -12.378906 -0.0273438 -12.679688 L -0.0273438 -14.851562 C -0.0273438 -15.15625 0.0664062 -15.402344 0.257812 -15.59375 C 0.449219 -15.78125 0.695312 -15.878906 1 -15.878906 Z M 8.988281 -15.878906 "/></g></g><g style="fill:#b21a22;fill-opacity:1;"><g transform="translate(36.425423, 71.667938)"><path style="stroke:none" d="M 11.335938 0.679688 L 9.226562 0.679688 C 8.964844 0.679688 8.738281 0.597656 8.554688 0.433594 C 8.382812 0.285156 8.269531 0.0859375 8.21875 -0.160156 L 8.882812 -0.304688 L 8.222656 -0.136719 L 7.527344 -2.871094 L 8.1875 -3.039062 L 8.1875 -2.363281 L 4.105469 -2.363281 L 4.105469 -3.039062 L 4.761719 -2.878906 L 4.089844 -0.140625 L 3.429688 -0.304688 L 4.09375 -0.160156 C 4.042969 0.0859375 3.929688 0.285156 3.757812 0.433594 C 3.574219 0.597656 3.347656 0.679688 3.082031 0.679688 L 0.957031 0.679688 C 0.601562 0.679688 0.332031 0.558594 0.148438 0.320312 C -0.0351562 0.0742188 -0.078125 -0.21875 0.0234375 -0.5625 L 0.671875 -0.367188 L 0.015625 -0.53125 L 3.617188 -15.058594 L 4.277344 -14.894531 L 3.613281 -15.039062 C 3.667969 -15.292969 3.789062 -15.496094 3.972656 -15.648438 C 4.15625 -15.800781 4.382812 -15.878906 4.648438 -15.878906 L 7.664062 -15.878906 C 7.929688 -15.878906 8.152344 -15.800781 8.339844 -15.648438 C 8.523438 -15.496094 8.644531 -15.292969 8.699219 -15.039062 L 8.035156 -14.894531 L 8.691406 -15.058594 L 12.296875 -0.53125 L 11.640625 -0.367188 L 12.289062 -0.5625 C 12.394531 -0.207031 12.34375 0.09375 12.140625 0.339844 C 11.953125 0.566406 11.6875 0.679688 11.335938 0.679688 Z M 11.335938 -0.679688 C 11.339844 -0.679688 11.339844 -0.679688 11.34375 -0.679688 C 11.34375 -0.679688 11.34375 -0.679688 11.339844 -0.679688 C 11.328125 -0.675781 11.3125 -0.671875 11.296875 -0.667969 C 11.21875 -0.644531 11.152344 -0.59375 11.09375 -0.523438 C 11.027344 -0.445312 10.992188 -0.355469 10.984375 -0.261719 C 10.980469 -0.222656 10.980469 -0.195312 10.988281 -0.175781 L 10.984375 -0.191406 L 7.371094 -14.742188 L 7.371094 -14.753906 C 7.382812 -14.699219 7.417969 -14.648438 7.476562 -14.601562 C 7.542969 -14.546875 7.605469 -14.519531 7.664062 -14.519531 L 4.648438 -14.519531 C 4.707031 -14.519531 4.769531 -14.546875 4.832031 -14.601562 C 4.894531 -14.648438 4.929688 -14.699219 4.941406 -14.753906 L 4.9375 -14.742188 L 1.328125 -0.191406 L 1.324219 -0.175781 C 1.328125 -0.191406 1.328125 -0.214844 1.328125 -0.246094 C 1.320312 -0.339844 1.289062 -0.425781 1.226562 -0.503906 C 1.167969 -0.582031 1.097656 -0.636719 1.011719 -0.664062 C 0.984375 -0.671875 0.964844 -0.679688 0.957031 -0.679688 L 3.082031 -0.679688 C 3.007812 -0.679688 2.933594 -0.648438 2.863281 -0.585938 C 2.808594 -0.539062 2.777344 -0.492188 2.765625 -0.445312 L 2.769531 -0.457031 L 3.570312 -3.71875 L 8.714844 -3.71875 L 9.542969 -0.457031 L 9.542969 -0.445312 C 9.535156 -0.492188 9.503906 -0.539062 9.449219 -0.585938 C 9.378906 -0.648438 9.304688 -0.679688 9.226562 -0.679688 Z M 6.851562 -5.40625 L 5.484375 -11.3125 L 6.144531 -11.464844 L 6.804688 -11.3125 L 5.4375 -5.40625 L 4.777344 -5.558594 L 4.777344 -6.238281 L 7.511719 -6.238281 L 7.511719 -5.558594 Z M 8.367188 -4.878906 L 3.921875 -4.878906 L 5.484375 -11.617188 L 6.804688 -11.617188 L 8.175781 -5.710938 Z M 8.367188 -4.878906 "/></g></g><g style="fill:#b21a22;fill-opacity:1;"><g transform="translate(48.733348, 71.667938)"><path style="stroke:none" d="M 8.988281 -14.519531 L 1 -14.519531 C 1.015625 -14.519531 1.035156 -14.527344 1.0625 -14.535156 C 1.121094 -14.554688 1.171875 -14.585938 1.21875 -14.632812 C 1.265625 -14.679688 1.296875 -14.730469 1.316406 -14.789062 C 1.324219 -14.816406 1.328125 -14.835938 1.328125 -14.851562 L 1.328125 -12.679688 C 1.328125 -12.695312 1.324219 -12.71875 1.316406 -12.742188 C 1.296875 -12.800781 1.265625 -12.855469 1.21875 -12.898438 C 1.171875 -12.945312 1.121094 -12.980469 1.0625 -13 C 1.035156 -13.007812 1.015625 -13.011719 1 -13.011719 L 4.195312 -13.011719 L 4.195312 -0.347656 C 4.195312 -0.363281 4.191406 -0.382812 4.183594 -0.410156 C 4.164062 -0.46875 4.132812 -0.519531 4.085938 -0.566406 C 4.039062 -0.613281 3.984375 -0.644531 3.925781 -0.664062 C 3.902344 -0.675781 3.878906 -0.679688 3.863281 -0.679688 L 6.125 -0.679688 C 6.109375 -0.679688 6.085938 -0.675781 6.0625 -0.664062 C 6.003906 -0.644531 5.949219 -0.613281 5.902344 -0.566406 C 5.859375 -0.519531 5.824219 -0.46875 5.804688 -0.410156 C 5.796875 -0.382812 5.792969 -0.363281 5.792969 -0.347656 L 5.792969 -13.011719 L 8.988281 -13.011719 C 8.972656 -13.011719 8.953125 -13.007812 8.925781 -13 C 8.867188 -12.980469 8.816406 -12.945312 8.769531 -12.898438 C 8.722656 -12.855469 8.691406 -12.800781 8.671875 -12.742188 C 8.664062 -12.71875 8.660156 -12.695312 8.660156 -12.679688 L 8.660156 -14.851562 C 8.660156 -14.835938 8.664062 -14.816406 8.671875 -14.789062 C 8.691406 -14.730469 8.722656 -14.679688 8.769531 -14.632812 C 8.816406 -14.585938 8.867188 -14.554688 8.925781 -14.535156 C 8.953125 -14.527344 8.972656 -14.519531 8.988281 -14.519531 Z M 8.988281 -15.878906 C 9.292969 -15.878906 9.539062 -15.78125 9.730469 -15.59375 C 9.921875 -15.402344 10.015625 -15.15625 10.015625 -14.851562 L 10.015625 -12.679688 C 10.015625 -12.378906 9.921875 -12.132812 9.730469 -11.941406 C 9.539062 -11.75 9.292969 -11.65625 8.988281 -11.65625 L 6.472656 -11.65625 L 6.472656 -12.332031 L 7.148438 -12.332031 L 7.148438 -0.347656 C 7.148438 -0.0429688 7.054688 0.203125 6.863281 0.394531 C 6.671875 0.582031 6.425781 0.679688 6.125 0.679688 L 3.863281 0.679688 C 3.5625 0.679688 3.316406 0.582031 3.125 0.394531 C 2.933594 0.203125 2.839844 -0.0429688 2.839844 -0.347656 L 2.839844 -12.332031 L 3.519531 -12.332031 L 3.519531 -11.65625 L 1 -11.65625 C 0.695312 -11.65625 0.449219 -11.75 0.257812 -11.941406 C 0.0664062 -12.132812 -0.0273438 -12.378906 -0.0273438 -12.679688 L -0.0273438 -14.851562 C -0.0273438 -15.15625 0.0664062 -15.402344 0.257812 -15.59375 C 0.449219 -15.78125 0.695312 -15.878906 1 -15.878906 Z M 8.988281 -15.878906 "/></g></g><g style="fill:#b21a22;fill-opacity:1;"><g transform="translate(58.718613, 71.667938)"><path style="stroke:none" d="M 10.429688 -14.851562 L 10.429688 -12.679688 C 10.429688 -12.378906 10.335938 -12.132812 10.15625 -11.9375 C 9.964844 -11.734375 9.714844 -11.632812 9.402344 -11.632812 L 4.039062 -11.632812 L 4.039062 -12.3125 L 4.71875 -12.3125 L 4.71875 -8.96875 L 4.039062 -8.96875 L 4.039062 -9.644531 L 8.121094 -9.644531 C 8.433594 -9.644531 8.683594 -9.542969 8.875 -9.339844 C 9.054688 -9.148438 9.148438 -8.902344 9.148438 -8.597656 L 9.148438 -6.449219 C 9.148438 -6.148438 9.054688 -5.898438 8.875 -5.707031 C 8.683594 -5.503906 8.433594 -5.402344 8.121094 -5.402344 L 4.039062 -5.402344 L 4.039062 -6.078125 L 4.71875 -6.078125 L 4.71875 -2.867188 L 4.039062 -2.867188 L 4.039062 -3.542969 L 9.402344 -3.542969 C 9.707031 -3.542969 9.953125 -3.449219 10.140625 -3.257812 C 10.332031 -3.070312 10.429688 -2.820312 10.429688 -2.519531 L 10.429688 -0.347656 C 10.429688 -0.0429688 10.332031 0.203125 10.140625 0.394531 C 9.953125 0.582031 9.707031 0.679688 9.402344 0.679688 L 1.410156 0.679688 C 1.105469 0.679688 0.859375 0.578125 0.671875 0.378906 C 0.496094 0.1875 0.40625 -0.0507812 0.40625 -0.347656 L 0.40625 -14.851562 C 0.40625 -15.148438 0.496094 -15.386719 0.671875 -15.578125 C 0.859375 -15.777344 1.105469 -15.878906 1.410156 -15.878906 L 9.402344 -15.878906 C 9.707031 -15.878906 9.953125 -15.78125 10.140625 -15.59375 C 10.332031 -15.402344 10.429688 -15.15625 10.429688 -14.851562 Z M 9.070312 -14.851562 C 9.070312 -14.835938 9.074219 -14.816406 9.085938 -14.789062 C 9.101562 -14.730469 9.136719 -14.679688 9.183594 -14.632812 C 9.230469 -14.585938 9.28125 -14.554688 9.339844 -14.535156 C 9.367188 -14.527344 9.386719 -14.519531 9.402344 -14.519531 L 1.410156 -14.519531 C 1.5 -14.519531 1.582031 -14.5625 1.664062 -14.648438 C 1.707031 -14.695312 1.738281 -14.746094 1.753906 -14.800781 C 1.761719 -14.824219 1.765625 -14.839844 1.765625 -14.851562 L 1.765625 -0.347656 C 1.765625 -0.359375 1.761719 -0.375 1.753906 -0.398438 C 1.738281 -0.453125 1.707031 -0.503906 1.664062 -0.550781 C 1.582031 -0.636719 1.5 -0.679688 1.410156 -0.679688 L 9.402344 -0.679688 C 9.386719 -0.679688 9.367188 -0.675781 9.339844 -0.664062 C 9.28125 -0.644531 9.230469 -0.613281 9.183594 -0.566406 C 9.136719 -0.519531 9.101562 -0.46875 9.085938 -0.410156 C 9.074219 -0.382812 9.070312 -0.363281 9.070312 -0.347656 L 9.070312 -2.519531 C 9.070312 -2.503906 9.074219 -2.484375 9.085938 -2.457031 C 9.101562 -2.398438 9.136719 -2.347656 9.183594 -2.300781 C 9.230469 -2.253906 9.28125 -2.21875 9.339844 -2.199219 C 9.367188 -2.191406 9.386719 -2.1875 9.402344 -2.1875 L 3.359375 -2.1875 L 3.359375 -6.757812 L 8.121094 -6.757812 C 8.101562 -6.757812 8.078125 -6.753906 8.046875 -6.742188 C 7.988281 -6.722656 7.933594 -6.6875 7.886719 -6.636719 C 7.84375 -6.59375 7.816406 -6.542969 7.800781 -6.492188 C 7.792969 -6.46875 7.789062 -6.457031 7.789062 -6.449219 L 7.789062 -8.597656 C 7.789062 -8.589844 7.792969 -8.578125 7.800781 -8.558594 C 7.816406 -8.503906 7.84375 -8.457031 7.886719 -8.410156 C 7.933594 -8.363281 7.988281 -8.328125 8.046875 -8.304688 C 8.078125 -8.292969 8.101562 -8.289062 8.121094 -8.289062 L 3.359375 -8.289062 L 3.359375 -12.992188 L 9.402344 -12.992188 C 9.382812 -12.992188 9.359375 -12.984375 9.328125 -12.972656 C 9.269531 -12.953125 9.214844 -12.917969 9.167969 -12.871094 C 9.125 -12.824219 9.097656 -12.777344 9.082031 -12.722656 C 9.074219 -12.703125 9.070312 -12.6875 9.070312 -12.679688 Z M 9.070312 -14.851562 "/></g></g><g style="fill:#b21a22;fill-opacity:1;"><g transform="translate(69.55045, 71.667938)"><path style="stroke:none" d="M 4.210938 -15.878906 L 6.644531 -15.878906 C 7.859375 -15.878906 8.796875 -15.546875 9.457031 -14.886719 C 10.121094 -14.226562 10.449219 -13.289062 10.449219 -12.074219 L 10.449219 -10.640625 C 10.449219 -10.335938 10.355469 -10.089844 10.164062 -9.898438 C 9.972656 -9.710938 9.726562 -9.613281 9.425781 -9.613281 L 7.230469 -9.613281 C 6.925781 -9.613281 6.679688 -9.710938 6.492188 -9.898438 C 6.300781 -10.089844 6.203125 -10.335938 6.203125 -10.640625 L 6.203125 -11.550781 C 6.203125 -11.625 6.199219 -11.679688 6.183594 -11.71875 C 6.183594 -11.722656 6.179688 -11.730469 6.179688 -11.730469 C 6.179688 -11.730469 6.183594 -11.726562 6.1875 -11.722656 C 6.191406 -11.71875 6.191406 -11.71875 6.195312 -11.714844 C 6.191406 -11.71875 6.1875 -11.71875 6.179688 -11.722656 C 6.140625 -11.734375 6.085938 -11.742188 6.015625 -11.742188 L 4.820312 -11.742188 C 4.75 -11.742188 4.695312 -11.734375 4.65625 -11.722656 C 4.648438 -11.71875 4.644531 -11.71875 4.640625 -11.714844 C 4.644531 -11.71875 4.644531 -11.71875 4.648438 -11.722656 C 4.652344 -11.726562 4.65625 -11.730469 4.65625 -11.730469 C 4.65625 -11.730469 4.652344 -11.722656 4.648438 -11.71875 C 4.636719 -11.679688 4.628906 -11.625 4.628906 -11.550781 L 4.628906 -9.707031 L 3.953125 -9.707031 L 4.160156 -10.351562 L 9.414062 -8.660156 C 9.75 -8.542969 10.007812 -8.359375 10.183594 -8.105469 C 10.363281 -7.851562 10.449219 -7.554688 10.449219 -7.210938 L 10.449219 -3.125 C 10.449219 -1.929688 10.121094 -0.996094 9.460938 -0.328125 C 8.800781 0.34375 7.863281 0.679688 6.644531 0.679688 L 4.210938 0.679688 C 3.011719 0.679688 2.078125 0.34375 1.410156 -0.324219 C 0.742188 -0.992188 0.40625 -1.925781 0.40625 -3.125 L 0.40625 -4.539062 C 0.40625 -4.839844 0.503906 -5.089844 0.691406 -5.277344 C 0.882812 -5.46875 1.128906 -5.5625 1.433594 -5.5625 L 3.625 -5.5625 C 3.929688 -5.5625 4.175781 -5.46875 4.367188 -5.277344 C 4.558594 -5.089844 4.652344 -4.839844 4.652344 -4.539062 L 4.652344 -3.625 C 4.652344 -3.554688 4.660156 -3.5 4.671875 -3.460938 C 4.675781 -3.453125 4.675781 -3.449219 4.675781 -3.445312 C 4.675781 -3.449219 4.675781 -3.453125 4.671875 -3.453125 C 4.667969 -3.457031 4.664062 -3.460938 4.660156 -3.460938 C 4.664062 -3.460938 4.667969 -3.457031 4.675781 -3.457031 C 4.714844 -3.441406 4.769531 -3.4375 4.84375 -3.4375 L 6.015625 -3.4375 C 6.085938 -3.4375 6.140625 -3.441406 6.179688 -3.457031 C 6.1875 -3.457031 6.191406 -3.460938 6.195312 -3.460938 C 6.191406 -3.460938 6.191406 -3.457031 6.1875 -3.453125 C 6.183594 -3.453125 6.179688 -3.449219 6.179688 -3.445312 C 6.179688 -3.449219 6.183594 -3.453125 6.183594 -3.460938 C 6.199219 -3.5 6.203125 -3.554688 6.203125 -3.625 L 6.203125 -5.820312 L 6.882812 -5.820312 L 6.671875 -5.175781 L 1.460938 -6.867188 C 1.125 -6.980469 0.867188 -7.160156 0.683594 -7.410156 C 0.5 -7.664062 0.40625 -7.964844 0.40625 -8.316406 L 0.40625 -12.074219 C 0.40625 -13.289062 0.742188 -14.230469 1.414062 -14.890625 C 2.082031 -15.550781 3.011719 -15.878906 4.210938 -15.878906 Z M 4.210938 -14.519531 C 3.386719 -14.519531 2.769531 -14.320312 2.367188 -13.925781 C 1.964844 -13.527344 1.765625 -12.910156 1.765625 -12.074219 L 1.765625 -8.316406 C 1.765625 -8.261719 1.769531 -8.226562 1.78125 -8.210938 C 1.792969 -8.195312 1.828125 -8.175781 1.882812 -8.160156 L 7.5625 -6.3125 L 7.5625 -3.625 C 7.5625 -3.148438 7.421875 -2.773438 7.144531 -2.496094 C 6.867188 -2.21875 6.492188 -2.078125 6.015625 -2.078125 L 4.84375 -2.078125 C 4.367188 -2.078125 3.988281 -2.21875 3.710938 -2.496094 C 3.433594 -2.773438 3.296875 -3.148438 3.296875 -3.625 L 3.296875 -4.539062 C 3.296875 -4.523438 3.300781 -4.5 3.308594 -4.476562 C 3.328125 -4.417969 3.359375 -4.367188 3.40625 -4.320312 C 3.453125 -4.273438 3.503906 -4.238281 3.5625 -4.21875 C 3.589844 -4.210938 3.609375 -4.207031 3.625 -4.207031 L 1.433594 -4.207031 C 1.449219 -4.207031 1.46875 -4.210938 1.496094 -4.21875 C 1.554688 -4.238281 1.605469 -4.273438 1.652344 -4.320312 C 1.699219 -4.367188 1.730469 -4.417969 1.75 -4.476562 C 1.761719 -4.5 1.765625 -4.523438 1.765625 -4.539062 L 1.765625 -3.125 C 1.765625 -2.300781 1.964844 -1.6875 2.367188 -1.285156 C 2.773438 -0.878906 3.386719 -0.679688 4.210938 -0.679688 L 6.644531 -0.679688 C 7.484375 -0.679688 8.101562 -0.878906 8.496094 -1.28125 C 8.894531 -1.683594 9.09375 -2.300781 9.09375 -3.125 L 9.09375 -7.210938 C 9.09375 -7.269531 9.085938 -7.308594 9.074219 -7.324219 C 9.066406 -7.339844 9.039062 -7.351562 9 -7.367188 L 3.273438 -9.210938 L 3.273438 -11.550781 C 3.273438 -12.027344 3.410156 -12.40625 3.6875 -12.683594 C 3.964844 -12.960938 4.34375 -13.097656 4.820312 -13.097656 L 6.015625 -13.097656 C 6.492188 -13.097656 6.867188 -12.960938 7.144531 -12.683594 C 7.421875 -12.40625 7.5625 -12.027344 7.5625 -11.550781 L 7.5625 -10.640625 C 7.5625 -10.65625 7.558594 -10.675781 7.546875 -10.703125 C 7.53125 -10.761719 7.496094 -10.8125 7.449219 -10.859375 C 7.402344 -10.90625 7.351562 -10.9375 7.292969 -10.957031 C 7.265625 -10.964844 7.246094 -10.972656 7.230469 -10.972656 L 9.425781 -10.972656 C 9.410156 -10.972656 9.386719 -10.964844 9.359375 -10.957031 C 9.304688 -10.9375 9.25 -10.90625 9.203125 -10.859375 C 9.15625 -10.8125 9.125 -10.761719 9.105469 -10.703125 C 9.097656 -10.675781 9.09375 -10.65625 9.09375 -10.640625 L 9.09375 -12.074219 C 9.09375 -12.914062 8.894531 -13.53125 8.5 -13.925781 C 8.101562 -14.324219 7.484375 -14.519531 6.644531 -14.519531 Z M 4.210938 -14.519531 "/></g></g><g style="fill:#060705;fill-opacity:1;"><g transform="translate(12.172305, 41.394993)"><path style="stroke:none" d="M 4.21875 -15.203125 L 6.640625 -15.203125 C 7.671875 -15.203125 8.445312 -14.9375 8.96875 -14.40625 C 9.5 -13.882812 9.765625 -13.109375 9.765625 -12.078125 L 9.765625 -10.640625 C 9.765625 -10.410156 9.648438 -10.296875 9.421875 -10.296875 L 7.234375 -10.296875 C 7.003906 -10.296875 6.890625 -10.410156 6.890625 -10.640625 L 6.890625 -11.546875 C 6.890625 -12.128906 6.597656 -12.421875 6.015625 -12.421875 L 4.828125 -12.421875 C 4.242188 -12.421875 3.953125 -12.128906 3.953125 -11.546875 L 3.953125 -9.703125 L 9.203125 -8.015625 C 9.578125 -7.878906 9.765625 -7.609375 9.765625 -7.203125 L 9.765625 -3.125 C 9.765625 -2.113281 9.5 -1.335938 8.96875 -0.796875 C 8.445312 -0.265625 7.671875 0 6.640625 0 L 4.21875 0 C 3.195312 0 2.414062 -0.265625 1.875 -0.796875 C 1.34375 -1.335938 1.078125 -2.113281 1.078125 -3.125 L 1.078125 -4.546875 C 1.078125 -4.773438 1.195312 -4.890625 1.4375 -4.890625 L 3.625 -4.890625 C 3.851562 -4.890625 3.96875 -4.773438 3.96875 -4.546875 L 3.96875 -3.625 C 3.96875 -3.050781 4.257812 -2.765625 4.84375 -2.765625 L 6.015625 -2.765625 C 6.597656 -2.765625 6.890625 -3.050781 6.890625 -3.625 L 6.890625 -5.828125 L 1.671875 -7.515625 C 1.273438 -7.640625 1.078125 -7.90625 1.078125 -8.3125 L 1.078125 -12.078125 C 1.078125 -13.109375 1.34375 -13.882812 1.875 -14.40625 C 2.414062 -14.9375 3.195312 -15.203125 4.21875 -15.203125 Z M 4.21875 -15.203125 "/></g></g><g style="fill:#060705;fill-opacity:1;"><g transform="translate(23.025852, 41.394993)"><path style="stroke:none" d="M 8.984375 -15.203125 L 1 -15.203125 C 0.769531 -15.203125 0.65625 -15.085938 0.65625 -14.859375 L 0.65625 -12.6875 C 0.65625 -12.457031 0.769531 -12.34375 1 -12.34375 L 3.515625 -12.34375 L 3.515625 -0.34375 C 3.515625 -0.113281 3.628906 0 3.859375 0 L 6.125 0 C 6.351562 0 6.46875 -0.113281 6.46875 -0.34375 L 6.46875 -12.34375 L 8.984375 -12.34375 C 9.222656 -12.34375 9.34375 -12.457031 9.34375 -12.6875 L 9.34375 -14.859375 C 9.34375 -15.085938 9.222656 -15.203125 8.984375 -15.203125 Z M 8.984375 -15.203125 "/></g></g><g style="fill:#060705;fill-opacity:1;"><g transform="translate(33.011117, 41.394993)"><path style="stroke:none" d="M 9.765625 -12.078125 L 9.765625 -7.703125 C 9.765625 -6.453125 9.363281 -5.570312 8.5625 -5.0625 L 9.6875 -0.390625 C 9.757812 -0.128906 9.65625 0 9.375 0 L 7.25 0 C 7.050781 0 6.929688 -0.0976562 6.890625 -0.296875 L 5.84375 -4.578125 L 3.90625 -4.578125 L 3.90625 -0.34375 C 3.90625 -0.113281 3.789062 0 3.5625 0 L 1.4375 0 C 1.195312 0 1.078125 -0.113281 1.078125 -0.34375 L 1.078125 -14.859375 C 1.078125 -15.085938 1.195312 -15.203125 1.4375 -15.203125 L 6.640625 -15.203125 C 7.671875 -15.203125 8.445312 -14.9375 8.96875 -14.40625 C 9.5 -13.882812 9.765625 -13.109375 9.765625 -12.078125 Z M 3.90625 -7.390625 L 6.078125 -7.390625 C 6.660156 -7.390625 6.953125 -7.675781 6.953125 -8.25 L 6.953125 -11.53125 C 6.953125 -12.113281 6.660156 -12.40625 6.078125 -12.40625 L 3.90625 -12.40625 Z M 3.90625 -7.390625 "/></g></g><g style="fill:#060705;fill-opacity:1;"><g transform="translate(43.864664, 41.394993)"><path style="stroke:none" d="M 1.4375 0 L 3.6875 0 C 3.925781 0 4.046875 -0.113281 4.046875 -0.34375 L 4.046875 -14.859375 C 4.046875 -15.085938 3.925781 -15.203125 3.6875 -15.203125 L 1.4375 -15.203125 C 1.195312 -15.203125 1.078125 -15.085938 1.078125 -14.859375 L 1.078125 -0.34375 C 1.078125 -0.113281 1.195312 0 1.4375 0 Z M 1.4375 0 "/></g></g><g style="fill:#060705;fill-opacity:1;"><g transform="translate(48.987535, 41.394993)"><path style="stroke:none" d="M 9.796875 -12.078125 L 9.796875 -9.734375 C 9.796875 -9.492188 9.679688 -9.375 9.453125 -9.375 L 7.40625 -9.375 C 7.175781 -9.375 7.0625 -9.492188 7.0625 -9.734375 L 7.0625 -11.515625 C 7.0625 -12.085938 6.769531 -12.375 6.1875 -12.375 L 4.796875 -12.375 C 4.222656 -12.375 3.9375 -12.085938 3.9375 -11.515625 L 3.9375 -3.625 C 3.9375 -3.050781 4.222656 -2.765625 4.796875 -2.765625 L 6.1875 -2.765625 C 6.769531 -2.765625 7.0625 -3.050781 7.0625 -3.625 L 7.0625 -5.46875 C 7.0625 -5.707031 7.175781 -5.828125 7.40625 -5.828125 L 9.453125 -5.828125 C 9.679688 -5.828125 9.796875 -5.707031 9.796875 -5.46875 L 9.796875 -3.125 C 9.796875 -2.113281 9.523438 -1.335938 8.984375 -0.796875 C 8.453125 -0.265625 7.679688 0 6.671875 0 L 4.234375 0 C 3.222656 0 2.441406 -0.265625 1.890625 -0.796875 C 1.347656 -1.335938 1.078125 -2.113281 1.078125 -3.125 L 1.078125 -12.078125 C 1.078125 -13.109375 1.347656 -13.882812 1.890625 -14.40625 C 2.441406 -14.9375 3.222656 -15.203125 4.234375 -15.203125 L 6.671875 -15.203125 C 7.679688 -15.203125 8.453125 -14.9375 8.984375 -14.40625 C 9.523438 -13.882812 9.796875 -13.109375 9.796875 -12.078125 Z M 9.796875 -12.078125 "/></g></g><g style="fill:#060705;fill-opacity:1;"><g transform="translate(59.862793, 41.394993)"><path style="stroke:none" d="M 8.984375 -15.203125 L 1 -15.203125 C 0.769531 -15.203125 0.65625 -15.085938 0.65625 -14.859375 L 0.65625 -12.6875 C 0.65625 -12.457031 0.769531 -12.34375 1 -12.34375 L 3.515625 -12.34375 L 3.515625 -0.34375 C 3.515625 -0.113281 3.628906 0 3.859375 0 L 6.125 0 C 6.351562 0 6.46875 -0.113281 6.46875 -0.34375 L 6.46875 -12.34375 L 8.984375 -12.34375 C 9.222656 -12.34375 9.34375 -12.457031 9.34375 -12.6875 L 9.34375 -14.859375 C 9.34375 -15.085938 9.222656 -15.203125 8.984375 -15.203125 Z M 8.984375 -15.203125 "/></g></g><g style="fill:#060705;fill-opacity:1;"><g transform="translate(69.848058, 41.394993)"><path style="stroke:none" d="M 0 2.90625 L 0 0.90625 C 0 0.625 0.144531 0.484375 0.4375 0.484375 L 13.53125 0.484375 C 13.820312 0.484375 13.96875 0.625 13.96875 0.90625 L 13.96875 2.90625 C 13.96875 3.195312 13.820312 3.34375 13.53125 3.34375 L 0.4375 3.34375 C 0.144531 3.34375 0 3.195312 0 2.90625 Z M 0 2.90625 "/></g></g><g style="fill:#060705;fill-opacity:1;"><g transform="translate(15.586611, 71.667938)"><path style="stroke:none" d="M 4.21875 -15.203125 L 6.640625 -15.203125 C 7.671875 -15.203125 8.445312 -14.9375 8.96875 -14.40625 C 9.5 -13.882812 9.765625 -13.109375 9.765625 -12.078125 L 9.765625 -10.640625 C 9.765625 -10.410156 9.648438 -10.296875 9.421875 -10.296875 L 7.234375 -10.296875 C 7.003906 -10.296875 6.890625 -10.410156 6.890625 -10.640625 L 6.890625 -11.546875 C 6.890625 -12.128906 6.597656 -12.421875 6.015625 -12.421875 L 4.828125 -12.421875 C 4.242188 -12.421875 3.953125 -12.128906 3.953125 -11.546875 L 3.953125 -9.703125 L 9.203125 -8.015625 C 9.578125 -7.878906 9.765625 -7.609375 9.765625 -7.203125 L 9.765625 -3.125 C 9.765625 -2.113281 9.5 -1.335938 8.96875 -0.796875 C 8.445312 -0.265625 7.671875 0 6.640625 0 L 4.21875 0 C 3.195312 0 2.414062 -0.265625 1.875 -0.796875 C 1.34375 -1.335938 1.078125 -2.113281 1.078125 -3.125 L 1.078125 -4.546875 C 1.078125 -4.773438 1.195312 -4.890625 1.4375 -4.890625 L 3.625 -4.890625 C 3.851562 -4.890625 3.96875 -4.773438 3.96875 -4.546875 L 3.96875 -3.625 C 3.96875 -3.050781 4.257812 -2.765625 4.84375 -2.765625 L 6.015625 -2.765625 C 6.597656 -2.765625 6.890625 -3.050781 6.890625 -3.625 L 6.890625 -5.828125 L 1.671875 -7.515625 C 1.273438 -7.640625 1.078125 -7.90625 1.078125 -8.3125 L 1.078125 -12.078125 C 1.078125 -13.109375 1.34375 -13.882812 1.875 -14.40625 C 2.414062 -14.9375 3.195312 -15.203125 4.21875 -15.203125 Z M 4.21875 -15.203125 "/></g></g><g style="fill:#060705;fill-opacity:1;"><g transform="translate(26.440159, 71.667938)"><path style="stroke:none" d="M 8.984375 -15.203125 L 1 -15.203125 C 0.769531 -15.203125 0.65625 -15.085938 0.65625 -14.859375 L 0.65625 -12.6875 C 0.65625 -12.457031 0.769531 -12.34375 1 -12.34375 L 3.515625 -12.34375 L 3.515625 -0.34375 C 3.515625 -0.113281 3.628906 0 3.859375 0 L 6.125 0 C 6.351562 0 6.46875 -0.113281 6.46875 -0.34375 L 6.46875 -12.34375 L 8.984375 -12.34375 C 9.222656 -12.34375 9.34375 -12.457031 9.34375 -12.6875 L 9.34375 -14.859375 C 9.34375 -15.085938 9.222656 -15.203125 8.984375 -15.203125 Z M 8.984375 -15.203125 "/></g></g><g style="fill:#060705;fill-opacity:1;"><g transform="translate(36.425423, 71.667938)"><path style="stroke:none" d="M 11.34375 0 L 9.234375 0 C 9.046875 0 8.929688 -0.0976562 8.890625 -0.296875 L 8.1875 -3.046875 L 4.109375 -3.046875 L 3.4375 -0.296875 C 3.382812 -0.0976562 3.265625 0 3.078125 0 L 0.953125 0 C 0.691406 0 0.597656 -0.125 0.671875 -0.375 L 4.28125 -14.90625 C 4.320312 -15.101562 4.441406 -15.203125 4.640625 -15.203125 L 7.671875 -15.203125 C 7.867188 -15.203125 7.988281 -15.101562 8.03125 -14.90625 L 11.640625 -0.375 C 11.710938 -0.125 11.613281 0 11.34375 0 Z M 7.515625 -5.5625 L 6.140625 -11.46875 L 4.78125 -5.5625 Z M 7.515625 -5.5625 "/></g></g><g style="fill:#060705;fill-opacity:1;"><g transform="translate(48.733348, 71.667938)"><path style="stroke:none" d="M 8.984375 -15.203125 L 1 -15.203125 C 0.769531 -15.203125 0.65625 -15.085938 0.65625 -14.859375 L 0.65625 -12.6875 C 0.65625 -12.457031 0.769531 -12.34375 1 -12.34375 L 3.515625 -12.34375 L 3.515625 -0.34375 C 3.515625 -0.113281 3.628906 0 3.859375 0 L 6.125 0 C 6.351562 0 6.46875 -0.113281 6.46875 -0.34375 L 6.46875 -12.34375 L 8.984375 -12.34375 C 9.222656 -12.34375 9.34375 -12.457031 9.34375 -12.6875 L 9.34375 -14.859375 C 9.34375 -15.085938 9.222656 -15.203125 8.984375 -15.203125 Z M 8.984375 -15.203125 "/></g></g><g style="fill:#060705;fill-opacity:1;"><g transform="translate(58.718613, 71.667938)"><path style="stroke:none" d="M 9.75 -14.859375 L 9.75 -12.6875 C 9.75 -12.4375 9.632812 -12.3125 9.40625 -12.3125 L 4.046875 -12.3125 L 4.046875 -8.96875 L 8.125 -8.96875 C 8.351562 -8.96875 8.46875 -8.84375 8.46875 -8.59375 L 8.46875 -6.453125 C 8.46875 -6.203125 8.351562 -6.078125 8.125 -6.078125 L 4.046875 -6.078125 L 4.046875 -2.859375 L 9.40625 -2.859375 C 9.632812 -2.859375 9.75 -2.742188 9.75 -2.515625 L 9.75 -0.34375 C 9.75 -0.113281 9.632812 0 9.40625 0 L 1.40625 0 C 1.1875 0 1.078125 -0.113281 1.078125 -0.34375 L 1.078125 -14.859375 C 1.078125 -15.085938 1.1875 -15.203125 1.40625 -15.203125 L 9.40625 -15.203125 C 9.632812 -15.203125 9.75 -15.085938 9.75 -14.859375 Z M 9.75 -14.859375 "/></g></g><g style="fill:#060705;fill-opacity:1;"><g transform="translate(69.55045, 71.667938)"><path style="stroke:none" d="M 4.21875 -15.203125 L 6.640625 -15.203125 C 7.671875 -15.203125 8.445312 -14.9375 8.96875 -14.40625 C 9.5 -13.882812 9.765625 -13.109375 9.765625 -12.078125 L 9.765625 -10.640625 C 9.765625 -10.410156 9.648438 -10.296875 9.421875 -10.296875 L 7.234375 -10.296875 C 7.003906 -10.296875 6.890625 -10.410156 6.890625 -10.640625 L 6.890625 -11.546875 C 6.890625 -12.128906 6.597656 -12.421875 6.015625 -12.421875 L 4.828125 -12.421875 C 4.242188 -12.421875 3.953125 -12.128906 3.953125 -11.546875 L 3.953125 -9.703125 L 9.203125 -8.015625 C 9.578125 -7.878906 9.765625 -7.609375 9.765625 -7.203125 L 9.765625 -3.125 C 9.765625 -2.113281 9.5 -1.335938 8.96875 -0.796875 C 8.445312 -0.265625 7.671875 0 6.640625 0 L 4.21875 0 C 3.195312 0 2.414062 -0.265625 1.875 -0.796875 C 1.34375 -1.335938 1.078125 -2.113281 1.078125 -3.125 L 1.078125 -4.546875 C 1.078125 -4.773438 1.195312 -4.890625 1.4375 -4.890625 L 3.625 -4.890625 C 3.851562 -4.890625 3.96875 -4.773438 3.96875 -4.546875 L 3.96875 -3.625 C 3.96875 -3.050781 4.257812 -2.765625 4.84375 -2.765625 L 6.015625 -2.765625 C 6.597656 -2.765625 6.890625 -3.050781 6.890625 -3.625 L 6.890625 -5.828125 L 1.671875 -7.515625 C 1.273438 -7.640625 1.078125 -7.90625 1.078125 -8.3125 L 1.078125 -12.078125 C 1.078125 -13.109375 1.34375 -13.882812 1.875 -14.40625 C 2.414062 -14.9375 3.195312 -15.203125 4.21875 -15.203125 Z M 4.21875 -15.203125 "/></g></g></g></svg>