<svg xmlns="http://www.w3.org/2000/svg" xmlns:xlink="http://www.w3.org/1999/xlink" width="192" zoomAndPan="magnify" viewBox="0 0 144 143.999998" height="192" preserveAspectRatio="xMidYMid meet" version="1.2"><defs><clipPath id="9fd37c758f"><path d="M 9 0 L 135 0 L 135 144 L 9 144 Z M 9 0 "/></clipPath><clipPath id="291cc88f04"><path d="M -21.457031 54.867188 L 103.039062 -17.847656 L 165.503906 89.105469 L 41.007812 161.816406 Z M -21.457031 54.867188 "/></clipPath><clipPath id="e1b1b475b3"><path d="M 134.226562 35.65625 L 134.347656 107.300781 L 72.121094 143.644531 L 9.773438 108.34375 L 9.65625 36.695312 L 71.878906 0.351562 Z M 134.226562 35.65625 "/></clipPath><clipPath id="92cdbc7cbb"><path d="M 21.210938 13.683594 L 122.773438 13.683594 L 122.773438 130.261719 L 21.210938 130.261719 Z M 21.210938 13.683594 "/></clipPath></defs><g id="f5577e7148"><g clip-rule="nonzero" clip-path="url(#9fd37c758f)"><g clip-rule="nonzero" clip-path="url(#291cc88f04)"><g clip-rule="nonzero" clip-path="url(#e1b1b475b3)"><path style=" stroke:none;fill-rule:nonzero;fill:#65b30e;fill-opacity:1;" d="M -21.457031 54.867188 L 103.039062 -17.847656 L 165.503906 89.105469 L 41.007812 161.816406 Z M -21.457031 54.867188 "/></g></g></g><path style=" stroke:none;fill-rule:nonzero;fill:#87ff00;fill-opacity:1;" d="M 51.679688 52.109375 L 51.613281 52.046875 L 37.261719 66.398438 L 72.113281 101.183594 L 86.46875 86.898438 L 106.960938 66.398438 L 92.609375 52.046875 L 92.609375 51.980469 L 51.617188 51.980469 Z M 51.679688 52.109375 "/><g clip-rule="nonzero" clip-path="url(#92cdbc7cbb)"><path style=" stroke:none;fill-rule:nonzero;fill:#87ff00;fill-opacity:1;" d="M 71.980469 13.765625 L 21.222656 42.863281 L 21.226562 101.058594 L 71.984375 130.15625 L 122.742188 101.058594 L 122.742188 42.863281 L 71.984375 13.769531 Z M 113.039062 95.496094 L 71.980469 119.160156 L 30.921875 95.496094 L 30.925781 48.292969 L 71.984375 24.628906 L 113.042969 48.292969 L 113.042969 95.492188 Z M 113.039062 95.496094 "/></g><g style="fill:#b21a22;fill-opacity:1;"><g transform="translate(31.235037, 61.271455)"><path style="stroke:none" d="M 0.660156 -5.078125 L 0.660156 -19.609375 C 0.660156 -21.585938 1.207031 -23.113281 2.292969 -24.1875 C 3.378906 -25.257812 4.894531 -25.792969 6.84375 -25.792969 L 10.792969 -25.792969 C 12.738281 -25.792969 14.257812 -25.257812 15.339844 -24.1875 C 16.429688 -23.113281 16.972656 -21.585938 16.972656 -19.609375 L 16.972656 -17 C 16.972656 -16.507812 16.820312 -16.105469 16.511719 -15.796875 C 16.199219 -15.488281 15.800781 -15.332031 15.308594 -15.332031 L 11.992188 -15.332031 C 11.5 -15.332031 11.097656 -15.488281 10.789062 -15.796875 C 10.480469 -16.105469 10.324219 -16.507812 10.324219 -17 L 10.324219 -18.726562 C 10.324219 -18.84375 10.316406 -18.933594 10.292969 -18.996094 C 10.289062 -19.007812 10.285156 -19.015625 10.285156 -19.019531 C 10.285156 -19.015625 10.289062 -19.011719 10.296875 -19.007812 C 10.300781 -19 10.304688 -19 10.308594 -18.996094 C 10.304688 -19 10.296875 -19 10.285156 -19.003906 C 10.222656 -19.027344 10.132812 -19.035156 10.015625 -19.035156 L 7.757812 -19.035156 C 7.644531 -19.035156 7.554688 -19.027344 7.492188 -19.003906 C 7.480469 -19 7.472656 -19 7.46875 -18.996094 C 7.472656 -19 7.476562 -19 7.480469 -19.007812 C 7.484375 -19.011719 7.488281 -19.015625 7.492188 -19.019531 C 7.488281 -19.015625 7.488281 -19.007812 7.484375 -18.996094 C 7.460938 -18.933594 7.449219 -18.84375 7.449219 -18.726562 L 7.449219 -5.960938 C 7.449219 -5.84375 7.460938 -5.753906 7.484375 -5.691406 C 7.488281 -5.679688 7.488281 -5.671875 7.492188 -5.667969 C 7.488281 -5.671875 7.484375 -5.675781 7.480469 -5.683594 C 7.476562 -5.6875 7.472656 -5.691406 7.46875 -5.695312 C 7.472656 -5.691406 7.480469 -5.6875 7.492188 -5.683594 C 7.554688 -5.664062 7.644531 -5.652344 7.757812 -5.652344 L 10.015625 -5.652344 C 10.132812 -5.652344 10.222656 -5.664062 10.285156 -5.683594 C 10.296875 -5.6875 10.304688 -5.691406 10.308594 -5.695312 C 10.304688 -5.691406 10.300781 -5.6875 10.296875 -5.683594 C 10.289062 -5.675781 10.285156 -5.671875 10.285156 -5.667969 C 10.285156 -5.671875 10.289062 -5.679688 10.292969 -5.691406 C 10.316406 -5.753906 10.324219 -5.84375 10.324219 -5.960938 L 10.324219 -9.027344 L 11.425781 -9.027344 L 11.425781 -7.925781 L 9.59375 -7.925781 C 9.101562 -7.925781 8.699219 -8.082031 8.390625 -8.390625 C 8.082031 -8.699219 7.925781 -9.101562 7.925781 -9.59375 L 7.925781 -13.121094 C 7.925781 -13.613281 8.082031 -14.015625 8.390625 -14.324219 C 8.699219 -14.632812 9.101562 -14.785156 9.59375 -14.785156 L 15.308594 -14.785156 C 15.800781 -14.785156 16.199219 -14.632812 16.511719 -14.324219 C 16.820312 -14.015625 16.972656 -13.613281 16.972656 -13.121094 L 16.972656 -5.078125 C 16.972656 -3.128906 16.429688 -1.609375 15.347656 -0.527344 C 14.261719 0.558594 12.742188 1.101562 10.792969 1.101562 L 6.84375 1.101562 C 4.890625 1.101562 3.375 0.558594 2.289062 -0.527344 C 1.203125 -1.609375 0.660156 -3.128906 0.660156 -5.078125 Z M 2.867188 -5.078125 C 2.867188 -3.738281 3.191406 -2.738281 3.847656 -2.085938 C 4.503906 -1.429688 5.5 -1.101562 6.84375 -1.101562 L 10.792969 -1.101562 C 12.132812 -1.101562 13.132812 -1.429688 13.789062 -2.085938 C 14.441406 -2.738281 14.769531 -3.738281 14.769531 -5.078125 L 14.769531 -13.121094 C 14.769531 -13.09375 14.777344 -13.0625 14.789062 -13.019531 C 14.820312 -12.925781 14.875 -12.839844 14.949219 -12.765625 C 15.027344 -12.6875 15.113281 -12.636719 15.207031 -12.605469 C 15.25 -12.589844 15.28125 -12.582031 15.308594 -12.582031 L 9.59375 -12.582031 C 9.617188 -12.582031 9.652344 -12.589844 9.695312 -12.605469 C 9.789062 -12.636719 9.875 -12.6875 9.949219 -12.765625 C 10.023438 -12.839844 10.078125 -12.925781 10.109375 -13.019531 C 10.125 -13.0625 10.132812 -13.09375 10.132812 -13.121094 L 10.132812 -9.59375 C 10.132812 -9.617188 10.125 -9.652344 10.109375 -9.695312 C 10.078125 -9.789062 10.023438 -9.875 9.949219 -9.949219 C 9.875 -10.023438 9.789062 -10.078125 9.695312 -10.109375 C 9.652344 -10.125 9.617188 -10.132812 9.59375 -10.132812 L 12.53125 -10.132812 L 12.53125 -5.960938 C 12.53125 -5.1875 12.304688 -4.574219 11.855469 -4.125 C 11.402344 -3.671875 10.792969 -3.449219 10.015625 -3.449219 L 7.757812 -3.449219 C 6.984375 -3.449219 6.371094 -3.671875 5.921875 -4.125 C 5.472656 -4.574219 5.246094 -5.1875 5.246094 -5.960938 L 5.246094 -18.726562 C 5.246094 -19.503906 5.472656 -20.117188 5.921875 -20.566406 C 6.371094 -21.015625 6.984375 -21.242188 7.757812 -21.242188 L 10.015625 -21.242188 C 10.792969 -21.242188 11.402344 -21.015625 11.855469 -20.566406 C 12.304688 -20.117188 12.53125 -19.503906 12.53125 -18.726562 L 12.53125 -17 C 12.53125 -17.023438 12.523438 -17.058594 12.507812 -17.101562 C 12.476562 -17.195312 12.421875 -17.28125 12.347656 -17.355469 C 12.273438 -17.433594 12.1875 -17.484375 12.09375 -17.515625 C 12.050781 -17.53125 12.015625 -17.539062 11.992188 -17.539062 L 15.308594 -17.539062 C 15.28125 -17.539062 15.25 -17.53125 15.207031 -17.515625 C 15.113281 -17.484375 15.027344 -17.433594 14.949219 -17.355469 C 14.875 -17.28125 14.820312 -17.195312 14.789062 -17.101562 C 14.777344 -17.058594 14.769531 -17.023438 14.769531 -17 L 14.769531 -19.609375 C 14.769531 -20.972656 14.445312 -21.972656 13.792969 -22.617188 C 13.136719 -23.261719 12.136719 -23.585938 10.792969 -23.585938 L 6.84375 -23.585938 C 5.496094 -23.585938 4.496094 -23.261719 3.84375 -22.617188 C 3.191406 -21.972656 2.867188 -20.972656 2.867188 -19.609375 Z M 2.867188 -5.078125 "/></g></g><g style="fill:#b21a22;fill-opacity:1;"><g transform="translate(48.864507, 61.271455)"><path style="stroke:none" d="M 16.9375 -24.125 L 16.9375 -20.597656 C 16.9375 -20.105469 16.792969 -19.703125 16.496094 -19.394531 C 16.1875 -19.0625 15.777344 -18.894531 15.273438 -18.894531 L 6.558594 -18.894531 L 6.558594 -20 L 7.664062 -20 L 7.664062 -14.566406 L 6.558594 -14.566406 L 6.558594 -15.667969 L 13.191406 -15.667969 C 13.695312 -15.667969 14.105469 -15.503906 14.417969 -15.171875 C 14.710938 -14.859375 14.859375 -14.457031 14.859375 -13.96875 L 14.859375 -10.476562 C 14.859375 -9.984375 14.710938 -9.582031 14.417969 -9.269531 C 14.105469 -8.9375 13.695312 -8.773438 13.191406 -8.773438 L 6.558594 -8.773438 L 6.558594 -9.875 L 7.664062 -9.875 L 7.664062 -4.65625 L 6.558594 -4.65625 L 6.558594 -5.757812 L 15.273438 -5.757812 C 15.765625 -5.757812 16.164062 -5.601562 16.476562 -5.292969 C 16.785156 -4.984375 16.9375 -4.582031 16.9375 -4.089844 L 16.9375 -0.5625 C 16.9375 -0.0703125 16.785156 0.328125 16.476562 0.636719 C 16.164062 0.949219 15.765625 1.101562 15.273438 1.101562 L 2.292969 1.101562 C 1.796875 1.101562 1.398438 0.9375 1.089844 0.613281 C 0.804688 0.308594 0.660156 -0.0859375 0.660156 -0.5625 L 0.660156 -24.125 C 0.660156 -24.601562 0.804688 -24.996094 1.089844 -25.300781 C 1.398438 -25.628906 1.796875 -25.792969 2.292969 -25.792969 L 15.273438 -25.792969 C 15.765625 -25.792969 16.164062 -25.636719 16.476562 -25.328125 C 16.785156 -25.019531 16.9375 -24.617188 16.9375 -24.125 Z M 14.734375 -24.125 C 14.734375 -24.097656 14.742188 -24.066406 14.753906 -24.023438 C 14.785156 -23.929688 14.839844 -23.84375 14.914062 -23.769531 C 14.992188 -23.691406 15.078125 -23.640625 15.171875 -23.609375 C 15.210938 -23.59375 15.246094 -23.585938 15.273438 -23.585938 L 2.292969 -23.585938 C 2.433594 -23.585938 2.570312 -23.65625 2.699219 -23.792969 C 2.769531 -23.871094 2.820312 -23.953125 2.847656 -24.042969 C 2.859375 -24.078125 2.867188 -24.105469 2.867188 -24.125 L 2.867188 -0.5625 C 2.867188 -0.582031 2.859375 -0.609375 2.847656 -0.644531 C 2.820312 -0.734375 2.769531 -0.820312 2.699219 -0.894531 C 2.570312 -1.03125 2.433594 -1.101562 2.292969 -1.101562 L 15.273438 -1.101562 C 15.246094 -1.101562 15.210938 -1.09375 15.171875 -1.082031 C 15.078125 -1.050781 14.992188 -0.996094 14.914062 -0.921875 C 14.839844 -0.84375 14.785156 -0.761719 14.753906 -0.664062 C 14.742188 -0.625 14.734375 -0.589844 14.734375 -0.5625 L 14.734375 -4.089844 C 14.734375 -4.066406 14.742188 -4.03125 14.753906 -3.988281 C 14.785156 -3.894531 14.839844 -3.8125 14.914062 -3.734375 C 14.992188 -3.660156 15.078125 -3.605469 15.171875 -3.574219 C 15.210938 -3.558594 15.246094 -3.554688 15.273438 -3.554688 L 5.457031 -3.554688 L 5.457031 -10.976562 L 13.191406 -10.976562 C 13.160156 -10.976562 13.117188 -10.96875 13.070312 -10.953125 C 12.972656 -10.917969 12.886719 -10.859375 12.8125 -10.78125 C 12.742188 -10.707031 12.695312 -10.628906 12.667969 -10.542969 C 12.65625 -10.511719 12.652344 -10.488281 12.652344 -10.476562 L 12.652344 -13.96875 C 12.652344 -13.953125 12.65625 -13.933594 12.667969 -13.898438 C 12.695312 -13.8125 12.742188 -13.734375 12.8125 -13.660156 C 12.886719 -13.582031 12.972656 -13.523438 13.070312 -13.488281 C 13.117188 -13.472656 13.160156 -13.464844 13.191406 -13.464844 L 5.457031 -13.464844 L 5.457031 -21.101562 L 15.273438 -21.101562 C 15.238281 -21.101562 15.199219 -21.09375 15.152344 -21.074219 C 15.054688 -21.039062 14.96875 -20.984375 14.890625 -20.902344 C 14.824219 -20.832031 14.777344 -20.75 14.75 -20.664062 C 14.738281 -20.632812 14.734375 -20.609375 14.734375 -20.597656 Z M 14.734375 -24.125 "/></g></g><g style="fill:#b21a22;fill-opacity:1;"><g transform="translate(66.458711, 61.271455)"><path style="stroke:none" d="M 16.507812 -25.792969 L 21.160156 -25.792969 C 21.703125 -25.792969 22.136719 -25.625 22.46875 -25.292969 C 22.804688 -24.960938 22.96875 -24.523438 22.96875 -23.984375 L 22.96875 -0.707031 C 22.96875 -0.164062 22.804688 0.269531 22.46875 0.601562 C 22.136719 0.9375 21.703125 1.101562 21.160156 1.101562 L 17.882812 1.101562 C 17.34375 1.101562 16.90625 0.9375 16.574219 0.601562 C 16.242188 0.269531 16.074219 -0.164062 16.074219 -0.707031 L 16.074219 -14.566406 L 17.175781 -14.566406 L 17.175781 -13.464844 L 16.929688 -13.464844 L 16.929688 -14.566406 L 18.003906 -14.3125 L 14.679688 -0.316406 L 14.671875 -0.289062 C 14.546875 0.140625 14.324219 0.476562 14.007812 0.722656 C 13.679688 0.976562 13.289062 1.101562 12.839844 1.101562 L 10.757812 1.101562 C 10.308594 1.101562 9.917969 0.976562 9.589844 0.722656 C 9.273438 0.476562 9.050781 0.140625 8.925781 -0.289062 L 8.914062 -0.316406 L 5.59375 -14.3125 L 6.667969 -14.566406 L 6.667969 -13.464844 L 6.417969 -13.464844 L 6.417969 -14.566406 L 7.519531 -14.566406 L 7.519531 -0.707031 C 7.519531 -0.164062 7.355469 0.269531 7.023438 0.601562 C 6.6875 0.9375 6.253906 1.101562 5.714844 1.101562 L 2.46875 1.101562 C 1.929688 1.101562 1.492188 0.9375 1.160156 0.601562 C 0.828125 0.269531 0.660156 -0.164062 0.660156 -0.707031 L 0.660156 -23.984375 C 0.660156 -24.523438 0.828125 -24.960938 1.160156 -25.292969 C 1.492188 -25.625 1.929688 -25.792969 2.46875 -25.792969 L 7.125 -25.792969 C 7.574219 -25.792969 7.964844 -25.664062 8.292969 -25.410156 C 8.609375 -25.164062 8.832031 -24.828125 8.957031 -24.402344 L 8.964844 -24.378906 L 12.886719 -8.625 L 11.816406 -8.359375 L 10.746094 -8.625 L 14.667969 -24.378906 L 14.671875 -24.402344 C 14.800781 -24.828125 15.019531 -25.164062 15.339844 -25.410156 C 15.667969 -25.664062 16.054688 -25.792969 16.507812 -25.792969 Z M 16.507812 -23.585938 C 16.558594 -23.585938 16.617188 -23.613281 16.6875 -23.667969 C 16.726562 -23.695312 16.757812 -23.730469 16.777344 -23.765625 C 16.785156 -23.773438 16.789062 -23.78125 16.792969 -23.789062 C 16.789062 -23.789062 16.789062 -23.785156 16.789062 -23.777344 L 15.730469 -24.089844 L 16.800781 -23.824219 L 12.886719 -8.09375 L 10.746094 -8.09375 L 6.832031 -23.824219 L 7.902344 -24.089844 L 6.84375 -23.777344 C 6.839844 -23.785156 6.839844 -23.789062 6.839844 -23.789062 C 6.84375 -23.78125 6.847656 -23.773438 6.851562 -23.765625 C 6.875 -23.730469 6.90625 -23.695312 6.945312 -23.667969 C 7.011719 -23.613281 7.074219 -23.585938 7.125 -23.585938 L 2.46875 -23.585938 C 2.464844 -23.585938 2.460938 -23.585938 2.457031 -23.585938 C 2.457031 -23.585938 2.457031 -23.585938 2.460938 -23.585938 C 2.472656 -23.589844 2.488281 -23.59375 2.507812 -23.597656 C 2.585938 -23.625 2.65625 -23.667969 2.71875 -23.734375 C 2.78125 -23.796875 2.828125 -23.867188 2.851562 -23.945312 C 2.859375 -23.960938 2.863281 -23.980469 2.867188 -23.992188 C 2.867188 -23.996094 2.867188 -23.996094 2.867188 -23.996094 C 2.867188 -23.992188 2.867188 -23.988281 2.867188 -23.984375 L 2.867188 -0.707031 C 2.867188 -0.699219 2.867188 -0.695312 2.867188 -0.691406 C 2.867188 -0.695312 2.867188 -0.695312 2.867188 -0.695312 C 2.863281 -0.710938 2.859375 -0.726562 2.851562 -0.746094 C 2.828125 -0.820312 2.78125 -0.890625 2.71875 -0.957031 C 2.65625 -1.019531 2.585938 -1.0625 2.507812 -1.089844 C 2.488281 -1.097656 2.472656 -1.101562 2.460938 -1.101562 C 2.457031 -1.101562 2.457031 -1.101562 2.457031 -1.101562 C 2.460938 -1.101562 2.464844 -1.101562 2.46875 -1.101562 L 5.714844 -1.101562 C 5.71875 -1.101562 5.722656 -1.101562 5.726562 -1.101562 C 5.726562 -1.101562 5.726562 -1.101562 5.722656 -1.101562 C 5.710938 -1.101562 5.691406 -1.097656 5.671875 -1.089844 C 5.597656 -1.0625 5.527344 -1.019531 5.464844 -0.957031 C 5.398438 -0.890625 5.355469 -0.820312 5.328125 -0.746094 C 5.324219 -0.726562 5.320312 -0.710938 5.316406 -0.695312 C 5.316406 -0.695312 5.316406 -0.695312 5.316406 -0.691406 C 5.316406 -0.695312 5.316406 -0.699219 5.316406 -0.707031 L 5.316406 -15.667969 L 7.539062 -15.667969 L 11.054688 -0.855469 L 9.980469 -0.597656 L 11.039062 -0.910156 C 11.039062 -0.90625 11.042969 -0.902344 11.042969 -0.902344 C 11.039062 -0.90625 11.035156 -0.914062 11.03125 -0.921875 C 11.007812 -0.960938 10.976562 -0.992188 10.9375 -1.023438 C 10.867188 -1.074219 10.808594 -1.101562 10.757812 -1.101562 L 12.839844 -1.101562 C 12.789062 -1.101562 12.726562 -1.074219 12.65625 -1.023438 C 12.621094 -0.992188 12.589844 -0.960938 12.566406 -0.921875 C 12.558594 -0.914062 12.554688 -0.90625 12.554688 -0.902344 C 12.554688 -0.902344 12.554688 -0.90625 12.558594 -0.910156 L 13.613281 -0.597656 L 12.542969 -0.855469 L 16.058594 -15.667969 L 18.277344 -15.667969 L 18.277344 -0.707031 C 18.277344 -0.699219 18.277344 -0.695312 18.277344 -0.691406 C 18.277344 -0.695312 18.277344 -0.695312 18.277344 -0.695312 C 18.277344 -0.710938 18.273438 -0.726562 18.265625 -0.746094 C 18.242188 -0.820312 18.195312 -0.890625 18.132812 -0.957031 C 18.070312 -1.019531 18 -1.0625 17.921875 -1.089844 C 17.902344 -1.097656 17.886719 -1.101562 17.871094 -1.101562 C 17.871094 -1.101562 17.878906 -1.101562 17.882812 -1.101562 L 21.160156 -1.101562 C 21.167969 -1.101562 21.171875 -1.101562 21.175781 -1.101562 C 21.175781 -1.101562 21.171875 -1.101562 21.171875 -1.101562 C 21.15625 -1.101562 21.140625 -1.097656 21.121094 -1.089844 C 21.046875 -1.0625 20.976562 -1.019531 20.910156 -0.957031 C 20.847656 -0.890625 20.804688 -0.820312 20.777344 -0.746094 C 20.769531 -0.726562 20.765625 -0.710938 20.765625 -0.695312 C 20.765625 -0.695312 20.765625 -0.695312 20.765625 -0.691406 C 20.765625 -0.695312 20.765625 -0.699219 20.765625 -0.707031 L 20.765625 -23.984375 C 20.765625 -23.988281 20.765625 -23.992188 20.765625 -23.996094 C 20.765625 -23.996094 20.765625 -23.996094 20.765625 -23.992188 C 20.765625 -23.980469 20.769531 -23.960938 20.777344 -23.945312 C 20.804688 -23.867188 20.847656 -23.796875 20.910156 -23.734375 C 20.976562 -23.667969 21.046875 -23.625 21.121094 -23.597656 C 21.140625 -23.59375 21.15625 -23.589844 21.171875 -23.585938 C 21.171875 -23.585938 21.175781 -23.585938 21.175781 -23.585938 C 21.171875 -23.585938 21.167969 -23.585938 21.160156 -23.585938 Z M 16.507812 -23.585938 "/></g></g><g style="fill:#b21a22;fill-opacity:1;"><g transform="translate(90.082196, 61.271455)"><path style="stroke:none" d="M -1.101562 4.726562 L -1.101562 1.480469 C -1.101562 0.941406 -0.9375 0.503906 -0.601562 0.171875 C -0.269531 -0.160156 0.164062 -0.328125 0.707031 -0.328125 L 21.972656 -0.328125 C 22.511719 -0.328125 22.949219 -0.160156 23.28125 0.171875 C 23.613281 0.503906 23.78125 0.941406 23.78125 1.480469 L 23.78125 4.726562 C 23.78125 5.265625 23.613281 5.703125 23.28125 6.035156 C 22.949219 6.367188 22.511719 6.535156 21.972656 6.535156 L 0.707031 6.535156 C 0.164062 6.535156 -0.269531 6.367188 -0.601562 6.035156 C -0.9375 5.703125 -1.101562 5.265625 -1.101562 4.726562 Z M 1.101562 4.726562 C 1.101562 4.730469 1.101562 4.734375 1.101562 4.738281 C 1.101562 4.738281 1.101562 4.738281 1.101562 4.734375 C 1.101562 4.722656 1.097656 4.703125 1.089844 4.6875 C 1.0625 4.609375 1.019531 4.539062 0.957031 4.476562 C 0.890625 4.410156 0.820312 4.367188 0.746094 4.34375 C 0.726562 4.335938 0.710938 4.332031 0.695312 4.328125 C 0.695312 4.328125 0.695312 4.328125 0.691406 4.328125 C 0.695312 4.328125 0.699219 4.328125 0.707031 4.328125 L 21.972656 4.328125 C 21.976562 4.328125 21.980469 4.328125 21.984375 4.328125 C 21.96875 4.332031 21.953125 4.335938 21.933594 4.34375 C 21.855469 4.367188 21.785156 4.410156 21.722656 4.476562 C 21.660156 4.539062 21.613281 4.609375 21.589844 4.6875 C 21.582031 4.703125 21.578125 4.722656 21.578125 4.734375 C 21.578125 4.738281 21.574219 4.738281 21.574219 4.738281 C 21.578125 4.734375 21.578125 4.730469 21.578125 4.726562 L 21.578125 1.480469 C 21.578125 1.476562 21.578125 1.472656 21.574219 1.46875 C 21.574219 1.46875 21.578125 1.46875 21.578125 1.472656 C 21.578125 1.484375 21.582031 1.503906 21.589844 1.519531 C 21.613281 1.597656 21.660156 1.667969 21.722656 1.730469 C 21.785156 1.796875 21.855469 1.839844 21.933594 1.867188 C 21.953125 1.871094 21.96875 1.875 21.984375 1.878906 C 21.980469 1.878906 21.976562 1.878906 21.972656 1.878906 L 0.707031 1.878906 C 0.699219 1.878906 0.695312 1.878906 0.691406 1.878906 C 0.695312 1.878906 0.695312 1.878906 0.695312 1.878906 C 0.710938 1.875 0.726562 1.871094 0.746094 1.867188 C 0.820312 1.839844 0.890625 1.796875 0.957031 1.730469 C 1.019531 1.667969 1.0625 1.597656 1.089844 1.519531 C 1.097656 1.503906 1.101562 1.484375 1.101562 1.472656 C 1.101562 1.46875 1.101562 1.46875 1.101562 1.46875 C 1.101562 1.472656 1.101562 1.476562 1.101562 1.480469 Z M 1.101562 4.726562 "/></g></g><g style="fill:#b21a22;fill-opacity:1;"><g transform="translate(27.421375, 110.443947)"><path style="stroke:none" d="M 17.007812 -19.609375 L 17.007812 -14.847656 C 17.007812 -13.898438 16.695312 -13.09375 16.070312 -12.433594 C 15.484375 -11.8125 14.753906 -11.421875 13.886719 -11.261719 L 13.683594 -12.34375 L 14.785156 -12.34375 L 14.785156 -12.273438 L 13.683594 -12.273438 L 13.847656 -13.363281 C 14.738281 -13.230469 15.484375 -12.839844 16.082031 -12.191406 C 16.699219 -11.523438 17.007812 -10.714844 17.007812 -9.769531 L 17.007812 -5.078125 C 17.007812 -3.128906 16.464844 -1.609375 15.382812 -0.527344 C 14.296875 0.558594 12.765625 1.101562 10.792969 1.101562 L 2.328125 1.101562 C 1.835938 1.101562 1.433594 0.949219 1.125 0.636719 C 0.816406 0.328125 0.660156 -0.0703125 0.660156 -0.5625 L 0.660156 -24.125 C 0.660156 -24.617188 0.816406 -25.019531 1.125 -25.328125 C 1.433594 -25.636719 1.835938 -25.792969 2.328125 -25.792969 L 10.792969 -25.792969 C 12.761719 -25.792969 14.292969 -25.257812 15.375 -24.1875 C 16.464844 -23.113281 17.007812 -21.585938 17.007812 -19.609375 Z M 14.804688 -19.609375 C 14.804688 -20.972656 14.480469 -21.972656 13.828125 -22.617188 C 13.171875 -23.261719 12.160156 -23.585938 10.792969 -23.585938 L 2.328125 -23.585938 C 2.351562 -23.585938 2.386719 -23.59375 2.429688 -23.609375 C 2.523438 -23.640625 2.609375 -23.691406 2.683594 -23.769531 C 2.757812 -23.84375 2.8125 -23.929688 2.84375 -24.023438 C 2.859375 -24.066406 2.867188 -24.097656 2.867188 -24.125 L 2.867188 -0.5625 C 2.867188 -0.589844 2.859375 -0.625 2.84375 -0.664062 C 2.8125 -0.761719 2.757812 -0.84375 2.683594 -0.921875 C 2.609375 -0.996094 2.523438 -1.050781 2.429688 -1.082031 C 2.386719 -1.09375 2.351562 -1.101562 2.328125 -1.101562 L 10.792969 -1.101562 C 12.15625 -1.101562 13.167969 -1.429688 13.824219 -2.085938 C 14.476562 -2.738281 14.804688 -3.738281 14.804688 -5.078125 L 14.804688 -9.769531 C 14.804688 -10.140625 14.691406 -10.449219 14.460938 -10.699219 C 14.214844 -10.964844 13.902344 -11.128906 13.523438 -11.183594 L 12.582031 -11.324219 L 12.582031 -13.261719 L 13.484375 -13.429688 C 13.882812 -13.503906 14.214844 -13.675781 14.472656 -13.949219 C 14.695312 -14.183594 14.804688 -14.484375 14.804688 -14.847656 Z M 10.324219 -16.011719 L 10.324219 -18.835938 C 10.324219 -18.949219 10.316406 -19.039062 10.292969 -19.101562 C 10.289062 -19.113281 10.285156 -19.121094 10.285156 -19.125 C 10.285156 -19.121094 10.289062 -19.117188 10.296875 -19.113281 C 10.300781 -19.109375 10.304688 -19.105469 10.308594 -19.101562 C 10.304688 -19.105469 10.296875 -19.105469 10.285156 -19.109375 C 10.222656 -19.132812 10.132812 -19.144531 10.015625 -19.144531 L 6.136719 -19.144531 L 6.136719 -20.246094 L 7.238281 -20.246094 L 7.238281 -14.636719 L 6.136719 -14.636719 L 6.136719 -15.738281 L 10.015625 -15.738281 C 10.136719 -15.738281 10.226562 -15.75 10.292969 -15.769531 C 10.304688 -15.777344 10.316406 -15.777344 10.320312 -15.78125 C 10.316406 -15.78125 10.3125 -15.777344 10.304688 -15.769531 C 10.300781 -15.765625 10.292969 -15.757812 10.289062 -15.753906 C 10.292969 -15.753906 10.292969 -15.757812 10.296875 -15.765625 C 10.316406 -15.824219 10.324219 -15.90625 10.324219 -16.011719 Z M 12.53125 -16.011719 C 12.53125 -15.246094 12.300781 -14.636719 11.84375 -14.191406 C 11.394531 -13.753906 10.785156 -13.535156 10.015625 -13.535156 L 5.035156 -13.535156 L 5.035156 -21.347656 L 10.015625 -21.347656 C 10.792969 -21.347656 11.402344 -21.121094 11.855469 -20.671875 C 12.304688 -20.222656 12.53125 -19.609375 12.53125 -18.835938 Z M 10.324219 -5.855469 L 10.324219 -8.570312 C 10.324219 -8.6875 10.316406 -8.777344 10.292969 -8.839844 C 10.289062 -8.851562 10.285156 -8.859375 10.285156 -8.863281 C 10.285156 -8.859375 10.289062 -8.855469 10.296875 -8.847656 C 10.300781 -8.84375 10.304688 -8.839844 10.308594 -8.835938 C 10.304688 -8.839844 10.296875 -8.84375 10.285156 -8.847656 C 10.222656 -8.867188 10.132812 -8.878906 10.015625 -8.878906 L 6.136719 -8.878906 L 6.136719 -9.980469 L 7.238281 -9.980469 L 7.238281 -4.445312 L 6.136719 -4.445312 L 6.136719 -5.546875 L 10.015625 -5.546875 C 10.132812 -5.546875 10.222656 -5.558594 10.285156 -5.578125 C 10.296875 -5.582031 10.304688 -5.585938 10.308594 -5.585938 C 10.304688 -5.585938 10.300781 -5.582031 10.296875 -5.574219 C 10.289062 -5.570312 10.285156 -5.566406 10.285156 -5.5625 C 10.285156 -5.566406 10.289062 -5.574219 10.292969 -5.585938 C 10.316406 -5.648438 10.324219 -5.738281 10.324219 -5.855469 Z M 12.53125 -5.855469 C 12.53125 -5.082031 12.304688 -4.46875 11.855469 -4.015625 C 11.402344 -3.566406 10.792969 -3.339844 10.015625 -3.339844 L 5.035156 -3.339844 L 5.035156 -11.082031 L 10.015625 -11.082031 C 10.792969 -11.082031 11.402344 -10.859375 11.855469 -10.40625 C 12.304688 -9.957031 12.53125 -9.34375 12.53125 -8.570312 Z M 12.53125 -5.855469 "/></g></g><g style="fill:#b21a22;fill-opacity:1;"><g transform="translate(45.086109, 110.443947)"><path style="stroke:none" d="M 16.9375 -24.125 L 16.9375 -20.597656 C 16.9375 -20.105469 16.792969 -19.703125 16.496094 -19.394531 C 16.1875 -19.0625 15.777344 -18.894531 15.273438 -18.894531 L 6.558594 -18.894531 L 6.558594 -20 L 7.664062 -20 L 7.664062 -14.566406 L 6.558594 -14.566406 L 6.558594 -15.667969 L 13.191406 -15.667969 C 13.695312 -15.667969 14.105469 -15.503906 14.417969 -15.171875 C 14.710938 -14.859375 14.859375 -14.457031 14.859375 -13.96875 L 14.859375 -10.476562 C 14.859375 -9.984375 14.710938 -9.582031 14.417969 -9.269531 C 14.105469 -8.9375 13.695312 -8.773438 13.191406 -8.773438 L 6.558594 -8.773438 L 6.558594 -9.875 L 7.664062 -9.875 L 7.664062 -4.65625 L 6.558594 -4.65625 L 6.558594 -5.757812 L 15.273438 -5.757812 C 15.765625 -5.757812 16.164062 -5.601562 16.476562 -5.292969 C 16.785156 -4.984375 16.9375 -4.582031 16.9375 -4.089844 L 16.9375 -0.5625 C 16.9375 -0.0703125 16.785156 0.328125 16.476562 0.636719 C 16.164062 0.949219 15.765625 1.101562 15.273438 1.101562 L 2.292969 1.101562 C 1.796875 1.101562 1.398438 0.9375 1.089844 0.613281 C 0.804688 0.308594 0.660156 -0.0859375 0.660156 -0.5625 L 0.660156 -24.125 C 0.660156 -24.601562 0.804688 -24.996094 1.089844 -25.300781 C 1.398438 -25.628906 1.796875 -25.792969 2.292969 -25.792969 L 15.273438 -25.792969 C 15.765625 -25.792969 16.164062 -25.636719 16.476562 -25.328125 C 16.785156 -25.019531 16.9375 -24.617188 16.9375 -24.125 Z M 14.734375 -24.125 C 14.734375 -24.097656 14.742188 -24.066406 14.753906 -24.023438 C 14.785156 -23.929688 14.839844 -23.84375 14.914062 -23.769531 C 14.992188 -23.691406 15.078125 -23.640625 15.171875 -23.609375 C 15.210938 -23.59375 15.246094 -23.585938 15.273438 -23.585938 L 2.292969 -23.585938 C 2.433594 -23.585938 2.570312 -23.65625 2.699219 -23.792969 C 2.769531 -23.871094 2.820312 -23.953125 2.847656 -24.042969 C 2.859375 -24.078125 2.867188 -24.105469 2.867188 -24.125 L 2.867188 -0.5625 C 2.867188 -0.582031 2.859375 -0.609375 2.847656 -0.644531 C 2.820312 -0.734375 2.769531 -0.820312 2.699219 -0.894531 C 2.570312 -1.03125 2.433594 -1.101562 2.292969 -1.101562 L 15.273438 -1.101562 C 15.246094 -1.101562 15.210938 -1.09375 15.171875 -1.082031 C 15.078125 -1.050781 14.992188 -0.996094 14.914062 -0.921875 C 14.839844 -0.84375 14.785156 -0.761719 14.753906 -0.664062 C 14.742188 -0.625 14.734375 -0.589844 14.734375 -0.5625 L 14.734375 -4.089844 C 14.734375 -4.066406 14.742188 -4.03125 14.753906 -3.988281 C 14.785156 -3.894531 14.839844 -3.8125 14.914062 -3.734375 C 14.992188 -3.660156 15.078125 -3.605469 15.171875 -3.574219 C 15.210938 -3.558594 15.246094 -3.554688 15.273438 -3.554688 L 5.457031 -3.554688 L 5.457031 -10.976562 L 13.191406 -10.976562 C 13.160156 -10.976562 13.117188 -10.96875 13.070312 -10.953125 C 12.972656 -10.917969 12.886719 -10.859375 12.8125 -10.78125 C 12.742188 -10.707031 12.695312 -10.628906 12.667969 -10.542969 C 12.65625 -10.511719 12.652344 -10.488281 12.652344 -10.476562 L 12.652344 -13.96875 C 12.652344 -13.953125 12.65625 -13.933594 12.667969 -13.898438 C 12.695312 -13.8125 12.742188 -13.734375 12.8125 -13.660156 C 12.886719 -13.582031 12.972656 -13.523438 13.070312 -13.488281 C 13.117188 -13.472656 13.160156 -13.464844 13.191406 -13.464844 L 5.457031 -13.464844 L 5.457031 -21.101562 L 15.273438 -21.101562 C 15.238281 -21.101562 15.199219 -21.09375 15.152344 -21.074219 C 15.054688 -21.039062 14.96875 -20.984375 14.890625 -20.902344 C 14.824219 -20.832031 14.777344 -20.75 14.75 -20.664062 C 14.738281 -20.632812 14.734375 -20.609375 14.734375 -20.597656 Z M 14.734375 -24.125 "/></g></g><g style="fill:#b21a22;fill-opacity:1;"><g transform="translate(62.680314, 110.443947)"><path style="stroke:none" d="M 12.945312 -25.792969 L 16.257812 -25.792969 C 16.753906 -25.792969 17.152344 -25.636719 17.460938 -25.328125 C 17.769531 -25.019531 17.925781 -24.617188 17.925781 -24.125 L 17.925781 -0.5625 C 17.925781 -0.0703125 17.769531 0.328125 17.460938 0.636719 C 17.152344 0.949219 16.753906 1.101562 16.257812 1.101562 L 13.472656 1.101562 C 13.09375 1.101562 12.757812 0.996094 12.457031 0.777344 C 12.195312 0.589844 11.988281 0.332031 11.835938 0.00390625 L 12.839844 -0.457031 L 11.847656 0.0273438 L 5.21875 -13.445312 L 6.207031 -13.933594 L 7.308594 -13.933594 L 7.308594 -0.5625 C 7.308594 -0.0703125 7.15625 0.328125 6.847656 0.636719 C 6.535156 0.949219 6.136719 1.101562 5.644531 1.101562 L 2.328125 1.101562 C 1.835938 1.101562 1.433594 0.949219 1.125 0.636719 C 0.816406 0.328125 0.660156 -0.0703125 0.660156 -0.5625 L 0.660156 -24.125 C 0.660156 -24.617188 0.816406 -25.019531 1.125 -25.328125 C 1.433594 -25.636719 1.835938 -25.792969 2.328125 -25.792969 L 5.113281 -25.792969 C 5.492188 -25.792969 5.832031 -25.683594 6.128906 -25.46875 C 6.390625 -25.277344 6.597656 -25.019531 6.75 -24.691406 L 5.75 -24.230469 L 6.738281 -24.71875 L 13.367188 -11.242188 L 12.378906 -10.757812 L 11.277344 -10.757812 L 11.277344 -24.125 C 11.277344 -24.617188 11.433594 -25.019531 11.742188 -25.328125 C 12.050781 -25.636719 12.453125 -25.792969 12.945312 -25.792969 Z M 12.945312 -23.585938 C 12.96875 -23.585938 13.003906 -23.59375 13.046875 -23.609375 C 13.140625 -23.640625 13.226562 -23.691406 13.300781 -23.769531 C 13.375 -23.84375 13.429688 -23.929688 13.460938 -24.023438 C 13.476562 -24.066406 13.480469 -24.097656 13.480469 -24.125 L 13.480469 -10.757812 L 11.390625 -10.269531 L 4.753906 -23.757812 L 4.75 -23.769531 C 4.757812 -23.746094 4.789062 -23.71875 4.839844 -23.679688 C 4.925781 -23.617188 5.019531 -23.585938 5.113281 -23.585938 L 2.328125 -23.585938 C 2.351562 -23.585938 2.386719 -23.59375 2.429688 -23.609375 C 2.523438 -23.640625 2.609375 -23.691406 2.683594 -23.769531 C 2.757812 -23.84375 2.8125 -23.929688 2.84375 -24.023438 C 2.859375 -24.066406 2.867188 -24.097656 2.867188 -24.125 L 2.867188 -0.5625 C 2.867188 -0.589844 2.859375 -0.625 2.84375 -0.664062 C 2.8125 -0.761719 2.757812 -0.84375 2.683594 -0.921875 C 2.609375 -0.996094 2.523438 -1.050781 2.429688 -1.082031 C 2.386719 -1.09375 2.351562 -1.101562 2.328125 -1.101562 L 5.644531 -1.101562 C 5.617188 -1.101562 5.585938 -1.09375 5.542969 -1.082031 C 5.449219 -1.050781 5.363281 -0.996094 5.285156 -0.921875 C 5.210938 -0.84375 5.15625 -0.761719 5.125 -0.664062 C 5.113281 -0.625 5.105469 -0.589844 5.105469 -0.5625 L 5.105469 -13.933594 L 7.195312 -14.417969 L 13.832031 -0.933594 L 13.839844 -0.921875 C 13.828125 -0.941406 13.796875 -0.972656 13.75 -1.007812 C 13.660156 -1.070312 13.570312 -1.101562 13.472656 -1.101562 L 16.257812 -1.101562 C 16.234375 -1.101562 16.199219 -1.09375 16.15625 -1.082031 C 16.0625 -1.050781 15.980469 -0.996094 15.902344 -0.921875 C 15.828125 -0.84375 15.773438 -0.761719 15.742188 -0.664062 C 15.730469 -0.625 15.722656 -0.589844 15.722656 -0.5625 L 15.722656 -24.125 C 15.722656 -24.097656 15.730469 -24.066406 15.742188 -24.023438 C 15.773438 -23.929688 15.828125 -23.84375 15.902344 -23.769531 C 15.980469 -23.691406 16.0625 -23.640625 16.15625 -23.609375 C 16.199219 -23.59375 16.234375 -23.585938 16.257812 -23.585938 Z M 12.945312 -23.585938 "/></g></g><g style="fill:#b21a22;fill-opacity:1;"><g transform="translate(81.261781, 110.443947)"><path style="stroke:none" d="M 17.007812 -19.609375 L 17.007812 -15.800781 C 17.007812 -15.308594 16.855469 -14.90625 16.546875 -14.597656 C 16.234375 -14.289062 15.835938 -14.132812 15.34375 -14.132812 L 12.027344 -14.132812 C 11.535156 -14.132812 11.132812 -14.289062 10.824219 -14.597656 C 10.515625 -14.90625 10.359375 -15.308594 10.359375 -15.800781 L 10.359375 -18.691406 C 10.359375 -18.808594 10.351562 -18.898438 10.328125 -18.960938 C 10.324219 -18.972656 10.320312 -18.980469 10.320312 -18.984375 C 10.320312 -18.980469 10.324219 -18.976562 10.332031 -18.972656 C 10.335938 -18.964844 10.339844 -18.960938 10.34375 -18.960938 C 10.339844 -18.964844 10.332031 -18.964844 10.320312 -18.96875 C 10.257812 -18.992188 10.167969 -19 10.050781 -19 L 7.792969 -19 C 7.679688 -19 7.589844 -18.992188 7.527344 -18.96875 C 7.515625 -18.964844 7.507812 -18.964844 7.503906 -18.960938 C 7.507812 -18.960938 7.511719 -18.964844 7.515625 -18.972656 C 7.519531 -18.976562 7.523438 -18.980469 7.527344 -18.984375 C 7.523438 -18.980469 7.523438 -18.972656 7.519531 -18.960938 C 7.496094 -18.898438 7.484375 -18.808594 7.484375 -18.691406 L 7.484375 -5.890625 C 7.484375 -5.773438 7.496094 -5.683594 7.519531 -5.621094 C 7.523438 -5.609375 7.523438 -5.601562 7.527344 -5.597656 C 7.523438 -5.601562 7.519531 -5.605469 7.515625 -5.613281 C 7.511719 -5.617188 7.507812 -5.621094 7.503906 -5.621094 C 7.507812 -5.621094 7.515625 -5.617188 7.527344 -5.613281 C 7.589844 -5.59375 7.679688 -5.582031 7.792969 -5.582031 L 10.050781 -5.582031 C 10.167969 -5.582031 10.257812 -5.59375 10.320312 -5.613281 C 10.332031 -5.617188 10.339844 -5.621094 10.34375 -5.621094 C 10.339844 -5.621094 10.335938 -5.617188 10.332031 -5.613281 C 10.324219 -5.605469 10.320312 -5.601562 10.320312 -5.597656 C 10.320312 -5.601562 10.324219 -5.609375 10.328125 -5.621094 C 10.351562 -5.683594 10.359375 -5.773438 10.359375 -5.890625 L 10.359375 -8.886719 C 10.359375 -9.378906 10.515625 -9.78125 10.824219 -10.089844 C 11.132812 -10.398438 11.535156 -10.554688 12.027344 -10.554688 L 15.34375 -10.554688 C 15.835938 -10.554688 16.234375 -10.398438 16.546875 -10.089844 C 16.855469 -9.78125 17.007812 -9.378906 17.007812 -8.886719 L 17.007812 -5.078125 C 17.007812 -3.128906 16.464844 -1.609375 15.382812 -0.527344 C 14.296875 0.558594 12.777344 1.101562 10.828125 1.101562 L 6.878906 1.101562 C 4.929688 1.101562 3.410156 0.5625 2.3125 -0.519531 C 1.210938 -1.605469 0.660156 -3.125 0.660156 -5.078125 L 0.660156 -19.609375 C 0.660156 -21.589844 1.214844 -23.117188 2.316406 -24.191406 C 3.414062 -25.257812 4.933594 -25.792969 6.878906 -25.792969 L 10.828125 -25.792969 C 12.773438 -25.792969 14.292969 -25.257812 15.375 -24.1875 C 16.464844 -23.113281 17.007812 -21.585938 17.007812 -19.609375 Z M 14.804688 -19.609375 C 14.804688 -20.972656 14.480469 -21.972656 13.828125 -22.617188 C 13.171875 -23.261719 12.171875 -23.585938 10.828125 -23.585938 L 6.878906 -23.585938 C 5.53125 -23.585938 4.523438 -23.261719 3.855469 -22.613281 C 3.195312 -21.96875 2.867188 -20.96875 2.867188 -19.609375 L 2.867188 -5.078125 C 2.867188 -3.738281 3.199219 -2.742188 3.859375 -2.089844 C 4.527344 -1.429688 5.535156 -1.101562 6.878906 -1.101562 L 10.828125 -1.101562 C 12.167969 -1.101562 13.167969 -1.429688 13.824219 -2.085938 C 14.476562 -2.738281 14.804688 -3.738281 14.804688 -5.078125 L 14.804688 -8.886719 C 14.804688 -8.863281 14.8125 -8.828125 14.824219 -8.785156 C 14.855469 -8.691406 14.910156 -8.609375 14.984375 -8.53125 C 15.0625 -8.457031 15.148438 -8.402344 15.242188 -8.371094 C 15.285156 -8.355469 15.316406 -8.351562 15.34375 -8.351562 L 12.027344 -8.351562 C 12.050781 -8.351562 12.085938 -8.355469 12.128906 -8.371094 C 12.222656 -8.402344 12.308594 -8.457031 12.382812 -8.53125 C 12.457031 -8.609375 12.511719 -8.691406 12.542969 -8.785156 C 12.558594 -8.828125 12.566406 -8.863281 12.566406 -8.886719 L 12.566406 -5.890625 C 12.566406 -5.117188 12.339844 -4.503906 11.890625 -4.050781 C 11.4375 -3.601562 10.828125 -3.378906 10.050781 -3.378906 L 7.792969 -3.378906 C 7.019531 -3.378906 6.40625 -3.601562 5.957031 -4.050781 C 5.507812 -4.503906 5.28125 -5.117188 5.28125 -5.890625 L 5.28125 -18.691406 C 5.28125 -19.46875 5.507812 -20.082031 5.957031 -20.53125 C 6.40625 -20.980469 7.019531 -21.207031 7.792969 -21.207031 L 10.050781 -21.207031 C 10.828125 -21.207031 11.4375 -20.980469 11.890625 -20.53125 C 12.339844 -20.082031 12.566406 -19.46875 12.566406 -18.691406 L 12.566406 -15.800781 C 12.566406 -15.828125 12.558594 -15.859375 12.542969 -15.902344 C 12.511719 -15.996094 12.457031 -16.082031 12.382812 -16.15625 C 12.308594 -16.234375 12.222656 -16.285156 12.128906 -16.316406 C 12.085938 -16.332031 12.050781 -16.339844 12.027344 -16.339844 L 15.34375 -16.339844 C 15.316406 -16.339844 15.285156 -16.332031 15.242188 -16.316406 C 15.148438 -16.285156 15.0625 -16.234375 14.984375 -16.15625 C 14.910156 -16.082031 14.855469 -15.996094 14.824219 -15.902344 C 14.8125 -15.859375 14.804688 -15.828125 14.804688 -15.800781 Z M 14.804688 -19.609375 "/></g></g><g style="fill:#b21a22;fill-opacity:1;"><g transform="translate(98.926515, 110.443947)"><path style="stroke:none" d="M 9.972656 -14.601562 L 9.972656 -24.125 C 9.972656 -24.617188 10.128906 -25.019531 10.4375 -25.328125 C 10.746094 -25.636719 11.148438 -25.792969 11.640625 -25.792969 L 15.273438 -25.792969 C 15.761719 -25.792969 16.164062 -25.644531 16.476562 -25.351562 C 16.808594 -25.039062 16.972656 -24.628906 16.972656 -24.125 L 16.972656 -0.5625 C 16.972656 -0.0585938 16.808594 0.351562 16.476562 0.660156 C 16.164062 0.957031 15.761719 1.101562 15.273438 1.101562 L 11.640625 1.101562 C 11.148438 1.101562 10.746094 0.949219 10.4375 0.636719 C 10.128906 0.328125 9.972656 -0.0703125 9.972656 -0.5625 L 9.972656 -9.945312 L 11.074219 -9.945312 L 11.074219 -8.84375 L 6.558594 -8.84375 L 6.558594 -9.945312 L 7.664062 -9.945312 L 7.664062 -0.5625 C 7.664062 -0.0703125 7.507812 0.328125 7.199219 0.636719 C 6.890625 0.949219 6.488281 1.101562 5.996094 1.101562 L 2.363281 1.101562 C 1.871094 1.101562 1.46875 0.957031 1.15625 0.660156 C 0.828125 0.351562 0.660156 -0.0585938 0.660156 -0.5625 L 0.660156 -24.125 C 0.660156 -24.628906 0.828125 -25.039062 1.15625 -25.351562 C 1.46875 -25.644531 1.871094 -25.792969 2.363281 -25.792969 L 5.996094 -25.792969 C 6.488281 -25.792969 6.890625 -25.636719 7.199219 -25.328125 C 7.507812 -25.019531 7.664062 -24.617188 7.664062 -24.125 L 7.664062 -14.601562 L 6.558594 -14.601562 L 6.558594 -15.703125 L 11.074219 -15.703125 L 11.074219 -14.601562 Z M 12.175781 -13.5 L 5.457031 -13.5 L 5.457031 -24.125 C 5.457031 -24.097656 5.464844 -24.066406 5.480469 -24.023438 C 5.511719 -23.929688 5.5625 -23.84375 5.640625 -23.769531 C 5.714844 -23.691406 5.800781 -23.640625 5.894531 -23.609375 C 5.9375 -23.59375 5.972656 -23.585938 5.996094 -23.585938 L 2.363281 -23.585938 C 2.375 -23.585938 2.398438 -23.59375 2.429688 -23.601562 C 2.515625 -23.628906 2.597656 -23.675781 2.667969 -23.746094 C 2.75 -23.820312 2.804688 -23.90625 2.839844 -24.003906 C 2.855469 -24.050781 2.867188 -24.09375 2.867188 -24.125 L 2.867188 -0.5625 C 2.867188 -0.597656 2.855469 -0.636719 2.839844 -0.683594 C 2.804688 -0.78125 2.75 -0.867188 2.667969 -0.945312 C 2.597656 -1.011719 2.515625 -1.058594 2.429688 -1.085938 C 2.398438 -1.097656 2.375 -1.101562 2.363281 -1.101562 L 5.996094 -1.101562 C 5.972656 -1.101562 5.9375 -1.09375 5.894531 -1.082031 C 5.800781 -1.050781 5.714844 -0.996094 5.640625 -0.921875 C 5.5625 -0.84375 5.511719 -0.761719 5.480469 -0.664062 C 5.464844 -0.625 5.457031 -0.589844 5.457031 -0.5625 L 5.457031 -11.046875 L 12.175781 -11.046875 L 12.175781 -0.5625 C 12.175781 -0.589844 12.171875 -0.625 12.15625 -0.664062 C 12.125 -0.761719 12.070312 -0.84375 11.996094 -0.921875 C 11.917969 -0.996094 11.835938 -1.050781 11.742188 -1.082031 C 11.699219 -1.09375 11.664062 -1.101562 11.640625 -1.101562 L 15.273438 -1.101562 C 15.257812 -1.101562 15.238281 -1.097656 15.203125 -1.085938 C 15.117188 -1.058594 15.039062 -1.011719 14.964844 -0.945312 C 14.886719 -0.867188 14.828125 -0.78125 14.796875 -0.683594 C 14.777344 -0.636719 14.769531 -0.597656 14.769531 -0.5625 L 14.769531 -24.125 C 14.769531 -24.09375 14.777344 -24.050781 14.796875 -24.003906 C 14.828125 -23.90625 14.886719 -23.820312 14.964844 -23.746094 C 15.039062 -23.675781 15.117188 -23.628906 15.203125 -23.601562 C 15.238281 -23.59375 15.257812 -23.585938 15.273438 -23.585938 L 11.640625 -23.585938 C 11.664062 -23.585938 11.699219 -23.59375 11.742188 -23.609375 C 11.835938 -23.640625 11.917969 -23.691406 11.996094 -23.769531 C 12.070312 -23.84375 12.125 -23.929688 12.15625 -24.023438 C 12.171875 -24.066406 12.175781 -24.097656 12.175781 -24.125 Z M 12.175781 -13.5 "/></g></g><g style="fill:#060705;fill-opacity:1;"><g transform="translate(31.235037, 61.271455)"><path style="stroke:none" d="M 1.765625 -5.078125 L 1.765625 -19.609375 C 1.765625 -21.273438 2.195312 -22.535156 3.0625 -23.390625 C 3.9375 -24.253906 5.195312 -24.6875 6.84375 -24.6875 L 10.796875 -24.6875 C 12.441406 -24.6875 13.695312 -24.253906 14.5625 -23.390625 C 15.4375 -22.535156 15.875 -21.273438 15.875 -19.609375 L 15.875 -17 C 15.875 -16.625 15.6875 -16.4375 15.3125 -16.4375 L 11.984375 -16.4375 C 11.609375 -16.4375 11.421875 -16.625 11.421875 -17 L 11.421875 -18.71875 C 11.421875 -19.664062 10.953125 -20.140625 10.015625 -20.140625 L 7.765625 -20.140625 C 6.816406 -20.140625 6.34375 -19.664062 6.34375 -18.71875 L 6.34375 -5.953125 C 6.34375 -5.015625 6.816406 -4.546875 7.765625 -4.546875 L 10.015625 -4.546875 C 10.953125 -4.546875 11.421875 -5.015625 11.421875 -5.953125 L 11.421875 -9.03125 L 9.59375 -9.03125 C 9.21875 -9.03125 9.03125 -9.21875 9.03125 -9.59375 L 9.03125 -13.125 C 9.03125 -13.5 9.21875 -13.6875 9.59375 -13.6875 L 15.3125 -13.6875 C 15.6875 -13.6875 15.875 -13.5 15.875 -13.125 L 15.875 -5.078125 C 15.875 -3.429688 15.4375 -2.171875 14.5625 -1.296875 C 13.695312 -0.429688 12.441406 0 10.796875 0 L 6.84375 0 C 5.195312 0 3.9375 -0.429688 3.0625 -1.296875 C 2.195312 -2.171875 1.765625 -3.429688 1.765625 -5.078125 Z M 1.765625 -5.078125 "/></g></g><g style="fill:#060705;fill-opacity:1;"><g transform="translate(48.864507, 61.271455)"><path style="stroke:none" d="M 15.828125 -24.125 L 15.828125 -20.59375 C 15.828125 -20.195312 15.640625 -20 15.265625 -20 L 6.5625 -20 L 6.5625 -14.5625 L 13.1875 -14.5625 C 13.5625 -14.5625 13.75 -14.363281 13.75 -13.96875 L 13.75 -10.46875 C 13.75 -10.070312 13.5625 -9.875 13.1875 -9.875 L 6.5625 -9.875 L 6.5625 -4.65625 L 15.265625 -4.65625 C 15.640625 -4.65625 15.828125 -4.46875 15.828125 -4.09375 L 15.828125 -0.5625 C 15.828125 -0.1875 15.640625 0 15.265625 0 L 2.296875 0 C 1.941406 0 1.765625 -0.1875 1.765625 -0.5625 L 1.765625 -24.125 C 1.765625 -24.5 1.941406 -24.6875 2.296875 -24.6875 L 15.265625 -24.6875 C 15.640625 -24.6875 15.828125 -24.5 15.828125 -24.125 Z M 15.828125 -24.125 "/></g></g><g style="fill:#060705;fill-opacity:1;"><g transform="translate(66.458711, 61.271455)"><path style="stroke:none" d="M 16.5 -24.6875 L 21.15625 -24.6875 C 21.625 -24.6875 21.859375 -24.453125 21.859375 -23.984375 L 21.859375 -0.703125 C 21.859375 -0.234375 21.625 0 21.15625 0 L 17.875 0 C 17.40625 0 17.171875 -0.234375 17.171875 -0.703125 L 17.171875 -14.5625 L 16.921875 -14.5625 L 13.609375 -0.59375 C 13.492188 -0.195312 13.238281 0 12.84375 0 L 10.75 0 C 10.351562 0 10.097656 -0.195312 9.984375 -0.59375 L 6.671875 -14.5625 L 6.421875 -14.5625 L 6.421875 -0.703125 C 6.421875 -0.234375 6.1875 0 5.71875 0 L 2.46875 0 C 2 0 1.765625 -0.234375 1.765625 -0.703125 L 1.765625 -23.984375 C 1.765625 -24.453125 2 -24.6875 2.46875 -24.6875 L 7.125 -24.6875 C 7.519531 -24.6875 7.78125 -24.488281 7.90625 -24.09375 L 11.8125 -8.359375 L 15.734375 -24.09375 C 15.847656 -24.488281 16.101562 -24.6875 16.5 -24.6875 Z M 16.5 -24.6875 "/></g></g><g style="fill:#060705;fill-opacity:1;"><g transform="translate(90.082196, 61.271455)"><path style="stroke:none" d="M 0 4.71875 L 0 1.484375 C 0 1.015625 0.234375 0.78125 0.703125 0.78125 L 21.96875 0.78125 C 22.4375 0.78125 22.671875 1.015625 22.671875 1.484375 L 22.671875 4.71875 C 22.671875 5.195312 22.4375 5.4375 21.96875 5.4375 L 0.703125 5.4375 C 0.234375 5.4375 0 5.195312 0 4.71875 Z M 0 4.71875 "/></g></g><g style="fill:#060705;fill-opacity:1;"><g transform="translate(27.421375, 110.443947)"><path style="stroke:none" d="M 15.90625 -19.609375 L 15.90625 -14.84375 C 15.90625 -14.1875 15.691406 -13.632812 15.265625 -13.1875 C 14.847656 -12.738281 14.320312 -12.457031 13.6875 -12.34375 L 13.6875 -12.265625 C 14.320312 -12.171875 14.847656 -11.894531 15.265625 -11.4375 C 15.691406 -10.976562 15.90625 -10.421875 15.90625 -9.765625 L 15.90625 -5.078125 C 15.90625 -3.429688 15.46875 -2.171875 14.59375 -1.296875 C 13.726562 -0.429688 12.460938 0 10.796875 0 L 2.328125 0 C 1.953125 0 1.765625 -0.1875 1.765625 -0.5625 L 1.765625 -24.125 C 1.765625 -24.5 1.953125 -24.6875 2.328125 -24.6875 L 10.796875 -24.6875 C 12.460938 -24.6875 13.726562 -24.253906 14.59375 -23.390625 C 15.46875 -22.535156 15.90625 -21.273438 15.90625 -19.609375 Z M 11.421875 -16.015625 L 11.421875 -18.828125 C 11.421875 -19.773438 10.953125 -20.25 10.015625 -20.25 L 6.140625 -20.25 L 6.140625 -14.640625 L 10.015625 -14.640625 C 10.953125 -14.640625 11.421875 -15.097656 11.421875 -16.015625 Z M 11.421875 -5.859375 L 11.421875 -8.5625 C 11.421875 -9.507812 10.953125 -9.984375 10.015625 -9.984375 L 6.140625 -9.984375 L 6.140625 -4.4375 L 10.015625 -4.4375 C 10.953125 -4.4375 11.421875 -4.910156 11.421875 -5.859375 Z M 11.421875 -5.859375 "/></g></g><g style="fill:#060705;fill-opacity:1;"><g transform="translate(45.086109, 110.443947)"><path style="stroke:none" d="M 15.828125 -24.125 L 15.828125 -20.59375 C 15.828125 -20.195312 15.640625 -20 15.265625 -20 L 6.5625 -20 L 6.5625 -14.5625 L 13.1875 -14.5625 C 13.5625 -14.5625 13.75 -14.363281 13.75 -13.96875 L 13.75 -10.46875 C 13.75 -10.070312 13.5625 -9.875 13.1875 -9.875 L 6.5625 -9.875 L 6.5625 -4.65625 L 15.265625 -4.65625 C 15.640625 -4.65625 15.828125 -4.46875 15.828125 -4.09375 L 15.828125 -0.5625 C 15.828125 -0.1875 15.640625 0 15.265625 0 L 2.296875 0 C 1.941406 0 1.765625 -0.1875 1.765625 -0.5625 L 1.765625 -24.125 C 1.765625 -24.5 1.941406 -24.6875 2.296875 -24.6875 L 15.265625 -24.6875 C 15.640625 -24.6875 15.828125 -24.5 15.828125 -24.125 Z M 15.828125 -24.125 "/></g></g><g style="fill:#060705;fill-opacity:1;"><g transform="translate(62.680314, 110.443947)"><path style="stroke:none" d="M 12.9375 -24.6875 L 16.25 -24.6875 C 16.632812 -24.6875 16.828125 -24.5 16.828125 -24.125 L 16.828125 -0.5625 C 16.828125 -0.1875 16.632812 0 16.25 0 L 13.46875 0 C 13.1875 0 12.976562 -0.148438 12.84375 -0.453125 L 6.203125 -13.9375 L 6.203125 -0.5625 C 6.203125 -0.1875 6.015625 0 5.640625 0 L 2.328125 0 C 1.953125 0 1.765625 -0.1875 1.765625 -0.5625 L 1.765625 -24.125 C 1.765625 -24.5 1.953125 -24.6875 2.328125 -24.6875 L 5.109375 -24.6875 C 5.390625 -24.6875 5.601562 -24.535156 5.75 -24.234375 L 12.375 -10.75 L 12.375 -24.125 C 12.375 -24.5 12.5625 -24.6875 12.9375 -24.6875 Z M 12.9375 -24.6875 "/></g></g><g style="fill:#060705;fill-opacity:1;"><g transform="translate(81.261781, 110.443947)"><path style="stroke:none" d="M 15.90625 -19.609375 L 15.90625 -15.796875 C 15.90625 -15.421875 15.71875 -15.234375 15.34375 -15.234375 L 12.03125 -15.234375 C 11.65625 -15.234375 11.46875 -15.421875 11.46875 -15.796875 L 11.46875 -18.6875 C 11.46875 -19.625 10.992188 -20.09375 10.046875 -20.09375 L 7.796875 -20.09375 C 6.859375 -20.09375 6.390625 -19.625 6.390625 -18.6875 L 6.390625 -5.890625 C 6.390625 -4.953125 6.859375 -4.484375 7.796875 -4.484375 L 10.046875 -4.484375 C 10.992188 -4.484375 11.46875 -4.953125 11.46875 -5.890625 L 11.46875 -8.890625 C 11.46875 -9.265625 11.65625 -9.453125 12.03125 -9.453125 L 15.34375 -9.453125 C 15.71875 -9.453125 15.90625 -9.265625 15.90625 -8.890625 L 15.90625 -5.078125 C 15.90625 -3.429688 15.46875 -2.171875 14.59375 -1.296875 C 13.726562 -0.429688 12.472656 0 10.828125 0 L 6.875 0 C 5.226562 0 3.960938 -0.429688 3.078125 -1.296875 C 2.203125 -2.171875 1.765625 -3.429688 1.765625 -5.078125 L 1.765625 -19.609375 C 1.765625 -21.273438 2.203125 -22.535156 3.078125 -23.390625 C 3.960938 -24.253906 5.226562 -24.6875 6.875 -24.6875 L 10.828125 -24.6875 C 12.472656 -24.6875 13.726562 -24.253906 14.59375 -23.390625 C 15.46875 -22.535156 15.90625 -21.273438 15.90625 -19.609375 Z M 15.90625 -19.609375 "/></g></g><g style="fill:#060705;fill-opacity:1;"><g transform="translate(98.926515, 110.443947)"><path style="stroke:none" d="M 11.078125 -14.59375 L 11.078125 -24.125 C 11.078125 -24.5 11.265625 -24.6875 11.640625 -24.6875 L 15.265625 -24.6875 C 15.671875 -24.6875 15.875 -24.5 15.875 -24.125 L 15.875 -0.5625 C 15.875 -0.1875 15.671875 0 15.265625 0 L 11.640625 0 C 11.265625 0 11.078125 -0.1875 11.078125 -0.5625 L 11.078125 -9.9375 L 6.5625 -9.9375 L 6.5625 -0.5625 C 6.5625 -0.1875 6.375 0 6 0 L 2.359375 0 C 1.960938 0 1.765625 -0.1875 1.765625 -0.5625 L 1.765625 -24.125 C 1.765625 -24.5 1.960938 -24.6875 2.359375 -24.6875 L 6 -24.6875 C 6.375 -24.6875 6.5625 -24.5 6.5625 -24.125 L 6.5625 -14.59375 Z M 11.078125 -14.59375 "/></g></g></g></svg>