<svg xmlns="http://www.w3.org/2000/svg" xmlns:xlink="http://www.w3.org/1999/xlink" width="192" zoomAndPan="magnify" viewBox="0 0 144 143.999998" height="192" preserveAspectRatio="xMidYMid meet" version="1.2"><defs><clipPath id="40f02f8520"><path d="M 19.230469 11.40625 L 124.980469 11.40625 L 124.980469 132.90625 L 19.230469 132.90625 Z M 19.230469 11.40625 "/></clipPath><clipPath id="260af212c0"><path d="M 125.835938 125.535156 L 144 125.535156 L 144 144 L 125.835938 144 Z M 125.835938 125.535156 "/></clipPath><clipPath id="3c33712193"><path d="M 125.886719 138.929688 C 126.085938 137.40625 126.230469 137.03125 126.402344 136.683594 C 126.574219 136.339844 126.804688 135.992188 127.066406 135.707031 C 127.296875 135.417969 127.613281 135.160156 127.902344 134.929688 C 128.21875 134.699219 128.792969 134.410156 128.9375 134.351562 C 128.964844 134.351562 128.996094 134.378906 128.996094 134.351562 C 129.054688 134.207031 127.585938 132.652344 127.726562 131.730469 C 127.929688 130.378906 130.320312 128.304688 131.902344 127.382812 C 133.34375 126.546875 134.984375 126.375 136.628906 126.113281 C 138.382812 125.855469 140.628906 125.308594 142.1875 125.886719 C 143.65625 126.433594 144.777344 128.015625 145.8125 129.28125 C 146.878906 130.609375 147.6875 132.164062 148.40625 133.691406 C 149.125 135.160156 149.992188 136.628906 150.164062 138.296875 C 150.363281 140.226562 150.132812 142.992188 149.210938 144.664062 C 148.347656 146.1875 146.707031 147.371094 145.152344 148.117188 C 143.566406 148.867188 141.582031 149.183594 139.824219 149.183594 C 138.125 149.15625 135.246094 148.695312 134.785156 148.089844 C 134.582031 147.832031 134.984375 147.339844 134.871094 147.167969 C 134.753906 147.023438 134.46875 147.054688 134.265625 147.023438 C 134.09375 146.964844 133.832031 146.996094 133.691406 146.9375 C 133.574219 146.910156 133.488281 146.824219 133.402344 146.792969 C 133.316406 146.765625 133.230469 146.765625 133.113281 146.734375 C 132.96875 146.648438 132.769531 146.503906 132.59375 146.390625 C 132.421875 146.304688 132.191406 146.21875 132.046875 146.132812 C 131.960938 146.042969 131.933594 145.957031 131.847656 145.902344 C 131.761719 145.84375 131.671875 145.8125 131.585938 145.757812 C 131.472656 145.640625 131.355469 145.410156 131.210938 145.265625 C 131.070312 145.125 130.894531 144.980469 130.78125 144.835938 C 130.722656 144.75 130.695312 144.664062 130.664062 144.574219 C 130.609375 144.488281 130.523438 144.433594 130.464844 144.34375 C 130.378906 144.203125 130.292969 143.886719 130.261719 143.769531 C 130.234375 143.710938 130.203125 143.65625 130.203125 143.65625 C 130.175781 143.65625 129.425781 143.539062 129.082031 143.394531 C 128.707031 143.28125 128.363281 143.078125 128.042969 142.875 C 127.699219 142.644531 127.410156 142.386719 127.152344 142.128906 C 126.894531 141.839844 126.664062 141.496094 126.460938 141.175781 C 126.289062 140.832031 126.144531 140.457031 126.058594 140.082031 C 125.941406 139.707031 125.886719 138.929688 125.886719 138.929688 M 135.792969 136.023438 C 135.792969 136.023438 135.820312 136.023438 135.820312 136.023438 C 135.820312 136.023438 135.792969 136.023438 135.792969 136.023438 "/></clipPath><clipPath id="7349663a34"><path d="M 110.074219 110.605469 L 137.808594 110.605469 L 137.808594 137.34375 L 110.074219 137.34375 Z M 110.074219 110.605469 "/></clipPath><clipPath id="7e6b0eabb5"><path d="M 116.398438 115.0625 C 123.730469 119.679688 125.015625 120.515625 125.976562 121.675781 C 126.914062 122.738281 127.605469 123.972656 128.097656 125.257812 C 128.59375 126.539062 128.9375 127.972656 128.988281 129.328125 C 129.0625 130.6875 128.742188 132.316406 128.46875 133.402344 C 128.273438 134.167969 128.097656 134.757812 127.730469 135.300781 C 127.332031 135.871094 126.644531 136.460938 126.125 136.757812 C 125.777344 136.980469 125.53125 137.078125 125.136719 137.179688 C 124.542969 137.277344 123.53125 137.300781 122.964844 137.203125 C 122.546875 137.152344 122.25 137.003906 121.929688 136.832031 C 121.609375 136.683594 121.335938 136.535156 121.039062 136.242188 C 120.59375 135.84375 120.027344 135.03125 119.78125 134.488281 C 119.582031 134.117188 119.535156 133.847656 119.484375 133.425781 C 119.433594 132.859375 119.386719 132.019531 119.707031 131.277344 C 120.152344 130.265625 121.433594 129.132812 122.421875 128.121094 C 123.484375 127.058594 124.816406 126.121094 125.851562 125.058594 C 126.839844 124.046875 127.53125 122.789062 128.542969 121.925781 C 129.507812 121.109375 130.738281 120.246094 131.726562 119.925781 C 132.515625 119.679688 133.355469 119.726562 133.972656 119.800781 C 134.394531 119.851562 134.664062 119.949219 135.035156 120.148438 C 135.578125 120.445312 136.34375 120.960938 136.789062 121.554688 C 137.230469 122.121094 137.578125 122.886719 137.699219 123.601562 C 137.824219 124.292969 137.75 125.132812 137.527344 125.824219 C 137.304688 126.515625 136.761719 127.28125 136.367188 127.726562 C 136.070312 128.046875 135.898438 128.144531 135.453125 128.414062 C 134.515625 128.957031 132.34375 130.21875 130.691406 130.488281 C 129.0625 130.734375 127.136719 130.5625 125.628906 129.996094 C 124.199219 129.476562 122.890625 128.34375 121.78125 127.28125 C 120.71875 126.269531 119.90625 124.984375 119.113281 123.777344 C 118.375 122.589844 117.953125 121.257812 117.238281 120.121094 C 116.5 118.960938 114.941406 118.125 114.796875 116.839844 C 114.597656 115.234375 115.929688 112.003906 117.289062 111.113281 C 118.449219 110.324219 120.570312 110.59375 121.929688 111.039062 C 123.210938 111.433594 124.175781 112.445312 125.285156 113.507812 C 126.691406 114.839844 128.394531 117.875 129.53125 118.691406 C 130.097656 119.085938 130.566406 118.960938 131.011719 119.210938 C 131.480469 119.480469 131.898438 119.800781 132.269531 120.195312 C 132.617188 120.589844 132.914062 121.035156 133.109375 121.53125 C 133.332031 122 133.480469 122.542969 133.503906 123.058594 C 133.554688 123.578125 133.527344 124.121094 133.40625 124.613281 C 133.28125 125.132812 133.058594 125.652344 132.789062 126.070312 C 132.515625 126.515625 132.148438 126.933594 131.753906 127.257812 C 131.332031 127.601562 130.863281 127.871094 130.371094 128.046875 C 129.902344 128.242188 129.359375 128.34375 128.839844 128.367188 C 128.296875 128.390625 127.753906 128.316406 127.261719 128.167969 C 126.765625 128.019531 126.273438 127.773438 125.851562 127.476562 C 125.410156 127.183594 125.015625 126.785156 124.71875 126.367188 C 124.421875 125.949219 124.148438 125.453125 124 124.960938 C 123.855469 124.464844 123.753906 123.921875 123.78125 123.378906 C 123.78125 122.863281 123.878906 122.320312 124.050781 121.851562 C 124.25 121.355469 124.496094 120.863281 124.816406 120.46875 C 125.160156 120.046875 125.558594 119.679688 126 119.40625 C 126.421875 119.109375 126.9375 118.886719 127.433594 118.765625 C 127.949219 118.640625 128.492188 118.59375 129.011719 118.617188 C 129.53125 118.667969 130.074219 118.789062 130.542969 118.988281 C 131.035156 119.183594 131.503906 119.480469 131.875 119.828125 C 132.269531 120.171875 132.617188 120.589844 132.886719 121.058594 C 133.132812 121.503906 133.332031 122.023438 133.429688 122.515625 C 133.527344 123.035156 133.554688 123.578125 133.503906 124.097656 C 133.429688 124.613281 133.28125 125.15625 133.035156 125.625 C 132.8125 126.097656 132.492188 126.539062 132.121094 126.910156 C 131.777344 127.28125 131.332031 127.601562 130.863281 127.847656 C 130.394531 128.070312 129.875 128.242188 129.359375 128.316406 C 128.839844 128.390625 128.347656 128.414062 127.777344 128.292969 C 127.039062 128.121094 126.222656 127.699219 125.359375 127.183594 C 124.25 126.515625 122.644531 125.554688 121.78125 124.367188 C 120.917969 123.183594 119.855469 121.28125 120.152344 120.148438 C 120.449219 119.0625 122.867188 118.789062 123.382812 117.605469 C 123.953125 116.273438 122.421875 112.519531 122.890625 112.324219 C 123.3125 112.148438 124.816406 114.320312 125.605469 115.480469 C 126.394531 116.691406 126.542969 118.714844 127.605469 119.429688 C 128.617188 120.148438 130.566406 119.875 131.726562 119.925781 C 132.589844 119.949219 133.355469 119.726562 133.972656 119.800781 C 134.394531 119.851562 134.664062 119.949219 135.035156 120.148438 C 135.578125 120.445312 136.34375 120.960938 136.789062 121.554688 C 137.230469 122.121094 137.578125 122.886719 137.699219 123.601562 C 137.824219 124.292969 137.675781 125.230469 137.527344 125.824219 C 137.429688 126.242188 137.257812 126.539062 137.058594 126.835938 C 136.863281 127.15625 136.6875 127.453125 136.367188 127.726562 C 135.898438 128.121094 135.085938 128.292969 134.441406 128.859375 C 133.554688 129.648438 132.8125 131.351562 131.753906 132.265625 C 130.714844 133.15625 128.816406 133.671875 128.222656 134.339844 C 127.902344 134.660156 127.976562 134.957031 127.730469 135.300781 C 127.382812 135.769531 126.742188 136.4375 126.125 136.757812 C 125.53125 137.105469 124.742188 137.300781 124.050781 137.328125 C 123.359375 137.328125 122.472656 137.078125 121.929688 136.832031 C 121.558594 136.683594 121.335938 136.535156 121.039062 136.242188 C 120.59375 135.84375 120.027344 135.128906 119.78125 134.488281 C 119.507812 133.847656 119.433594 133.105469 119.460938 132.339844 C 119.507812 131.476562 120.273438 130.539062 120.125 129.601562 C 119.929688 128.464844 119.015625 127.207031 117.929688 126.070312 C 116.425781 124.492188 112.597656 122.886719 111.390625 121.652344 C 110.796875 121.035156 110.550781 120.589844 110.351562 119.972656 C 110.128906 119.359375 110.128906 118.519531 110.179688 117.976562 C 110.230469 117.605469 110.304688 117.359375 110.476562 117.011719 C 110.722656 116.519531 111.289062 115.777344 111.683594 115.433594 C 111.957031 115.160156 112.179688 115.039062 112.523438 114.890625 C 113.042969 114.691406 113.855469 114.46875 114.5 114.496094 C 115.140625 114.519531 116.398438 115.0625 116.398438 115.0625 "/></clipPath><clipPath id="ba1e0dfd9c"><path d="M 27.234375 102.238281 L 44.125 102.238281 L 44.125 118.09375 L 27.234375 118.09375 Z M 27.234375 102.238281 "/></clipPath><clipPath id="c5408c4bc1"><path d="M 33.910156 103.164062 C 40.847656 108.546875 42.523438 110.175781 43.238281 111.136719 C 43.585938 111.632812 43.734375 111.953125 43.855469 112.398438 C 44.003906 112.839844 44.078125 113.335938 44.078125 113.804688 C 44.054688 114.25 43.957031 114.742188 43.808594 115.1875 C 43.660156 115.605469 43.414062 116.050781 43.117188 116.421875 C 42.84375 116.765625 42.476562 117.109375 42.082031 117.359375 C 41.683594 117.605469 41.242188 117.800781 40.796875 117.925781 C 40.351562 118.023438 39.859375 118.074219 39.390625 118.050781 C 38.921875 118 38.453125 117.902344 38.03125 117.703125 C 37.589844 117.53125 37.167969 117.257812 36.824219 116.964844 C 36.476562 116.640625 36.179688 116.273438 35.933594 115.878906 C 35.710938 115.457031 35.539062 115.011719 35.441406 114.542969 C 35.367188 114.101562 35.339844 113.605469 35.390625 113.136719 C 35.464844 112.691406 35.613281 112.199219 35.8125 111.804688 C 36.007812 111.386719 36.304688 110.964844 36.625 110.644531 C 36.945312 110.324219 37.339844 110.027344 37.761719 109.828125 C 38.179688 109.609375 38.648438 109.460938 39.09375 109.386719 C 39.5625 109.335938 40.054688 109.335938 40.5 109.433594 C 40.96875 109.507812 41.4375 109.683594 41.832031 109.902344 C 42.253906 110.125 42.625 110.445312 42.945312 110.792969 C 43.238281 111.113281 43.511719 111.53125 43.710938 111.953125 C 43.882812 112.398438 44.003906 112.867188 44.054688 113.335938 C 44.105469 113.777344 44.054688 114.273438 43.957031 114.742188 C 43.832031 115.1875 43.636719 115.628906 43.386719 116.023438 C 43.140625 116.421875 42.820312 116.789062 42.476562 117.085938 C 42.105469 117.382812 41.683594 117.628906 41.242188 117.777344 C 40.796875 117.949219 40.328125 118.050781 39.859375 118.050781 C 39.390625 118.074219 38.894531 118 38.476562 117.875 C 38.03125 117.726562 37.660156 117.605469 37.191406 117.257812 C 36.378906 116.640625 35.441406 115.210938 34.207031 114.074219 C 32.578125 112.546875 29.195312 110.421875 28.132812 109.066406 C 27.617188 108.375 27.441406 107.878906 27.320312 107.261719 C 27.195312 106.621094 27.296875 105.808594 27.417969 105.261719 C 27.492188 104.894531 27.589844 104.671875 27.8125 104.351562 C 28.109375 103.90625 28.652344 103.265625 29.195312 102.945312 C 29.761719 102.597656 30.554688 102.402344 31.097656 102.328125 C 31.492188 102.277344 31.738281 102.277344 32.109375 102.375 C 32.625 102.5 33.910156 103.164062 33.910156 103.164062 "/></clipPath><clipPath id="c22f488b4a"><path d="M 30.578125 106.097656 L 108.570312 106.097656 L 108.570312 130.984375 L 30.578125 130.984375 Z M 30.578125 106.097656 "/></clipPath><clipPath id="95bf9bf0e9"><path d="M 36.699219 106.597656 C 46.03125 111.804688 49.507812 113.410156 50.449219 115.679688 C 51.335938 117.828125 50.867188 122.074219 49.609375 123.332031 C 48.644531 124.320312 46.300781 124.195312 44.871094 123.898438 C 43.488281 123.628906 42.300781 122.515625 41.140625 121.777344 C 40.03125 121.058594 38.796875 120.296875 38.03125 119.503906 C 37.464844 118.9375 37.019531 118.269531 36.773438 117.726562 C 36.601562 117.332031 36.527344 117.085938 36.5 116.667969 C 36.453125 116.050781 36.5 115.136719 36.75 114.46875 C 36.996094 113.828125 37.441406 113.136719 37.984375 112.667969 C 38.5 112.199219 39.21875 111.804688 39.90625 111.632812 C 40.597656 111.460938 41.390625 111.460938 42.082031 111.605469 C 42.769531 111.78125 44.078125 112.445312 44.03125 112.617188 C 43.980469 112.816406 39.980469 112.273438 39.980469 112.25 C 39.980469 112.25 42.574219 112.101562 44.105469 112.496094 C 46.300781 113.0625 48.597656 114.988281 51.65625 116.148438 C 55.953125 117.800781 63.183594 120.023438 67.726562 120.789062 C 70.910156 121.308594 73.773438 121.234375 76.066406 121.183594 C 77.695312 121.132812 78.832031 120.988281 80.214844 120.765625 C 81.597656 120.542969 82.707031 120.320312 84.289062 119.851562 C 86.609375 119.160156 90.558594 117.875 92.703125 116.789062 C 94.183594 116.023438 95.125 115.308594 96.210938 114.421875 C 97.269531 113.558594 98.308594 112.25 99.144531 111.53125 C 99.714844 111.0625 100.160156 110.769531 100.652344 110.445312 C 101.121094 110.175781 101.589844 109.902344 102.082031 109.757812 C 102.601562 109.582031 103.167969 109.507812 103.6875 109.535156 C 104.207031 109.558594 104.773438 109.65625 105.269531 109.828125 C 105.761719 110.027344 106.230469 110.300781 106.648438 110.644531 C 107.070312 110.964844 107.441406 111.386719 107.710938 111.828125 C 108.007812 112.273438 108.230469 112.792969 108.351562 113.308594 C 108.476562 113.828125 108.5 114.371094 108.476562 114.914062 C 108.425781 115.433594 108.277344 115.976562 108.082031 116.46875 C 107.859375 116.9375 107.5625 117.40625 107.21875 117.800781 C 106.847656 118.199219 106.402344 118.542969 105.957031 118.8125 C 105.488281 119.0625 104.972656 119.257812 104.453125 119.359375 C 103.933594 119.457031 103.367188 119.457031 102.847656 119.382812 C 102.332031 119.308594 101.789062 119.160156 101.320312 118.914062 C 100.847656 118.691406 100.378906 118.34375 100.011719 117.976562 C 99.640625 117.605469 99.320312 117.136719 99.074219 116.667969 C 98.851562 116.199219 98.675781 115.65625 98.628906 115.136719 C 98.554688 114.617188 98.578125 114.050781 98.675781 113.53125 C 98.777344 113.015625 98.972656 112.496094 99.21875 112.027344 C 99.492188 111.582031 99.835938 111.136719 100.230469 110.792969 C 100.628906 110.421875 101.097656 110.125 101.589844 109.929688 C 102.082031 109.730469 102.625 109.582031 103.144531 109.558594 C 103.664062 109.507812 104.230469 109.558594 104.75 109.683594 C 105.269531 109.804688 105.785156 110.027344 106.207031 110.324219 C 106.648438 110.621094 107.070312 110.988281 107.414062 111.410156 C 107.734375 111.804688 108.007812 112.296875 108.179688 112.792969 C 108.378906 113.285156 108.476562 113.851562 108.476562 114.371094 C 108.5 114.890625 108.425781 115.457031 108.253906 115.953125 C 108.105469 116.46875 107.984375 116.816406 107.539062 117.382812 C 106.625 118.617188 103.785156 121.085938 102.183594 122.417969 C 100.949219 123.429688 100.207031 124.070312 98.800781 124.863281 C 96.777344 125.972656 93.125 127.183594 90.953125 127.972656 C 89.445312 128.515625 88.382812 128.886719 87.050781 129.253906 C 85.71875 129.625 84.386719 129.871094 83.003906 130.144531 C 81.546875 130.441406 80.265625 130.808594 78.5625 130.933594 C 76.191406 131.082031 72.488281 130.710938 70.144531 130.5625 C 68.464844 130.464844 67.726562 130.589844 65.824219 130.242188 C 62.046875 129.550781 52.644531 126.6875 48.992188 125.28125 C 47.164062 124.566406 46.128906 124.269531 44.992188 123.355469 C 43.855469 122.441406 43.339844 120.445312 42.128906 119.828125 C 40.992188 119.234375 38.945312 120.023438 38.03125 119.503906 C 37.367188 119.136719 37.042969 118.394531 36.773438 117.726562 C 36.527344 117.0625 36.429688 116.246094 36.5 115.554688 C 36.574219 114.839844 36.847656 114.074219 37.242188 113.507812 C 37.636719 112.914062 38.253906 112.371094 38.871094 112.027344 C 39.488281 111.707031 40.277344 111.507812 40.992188 111.484375 C 41.710938 111.484375 42.550781 111.730469 43.117188 112.003906 C 43.585938 112.199219 43.855469 112.421875 44.300781 112.839844 C 45.015625 113.53125 46.917969 114.890625 46.894531 116.023438 C 46.820312 117.433594 43.957031 120.46875 42.597656 120.515625 C 41.4375 120.566406 40.699219 118.59375 39.316406 117.605469 C 37.414062 116.246094 33.34375 114.667969 32.035156 113.457031 C 31.390625 112.867188 31.121094 112.324219 30.875 111.828125 C 30.726562 111.460938 30.675781 111.164062 30.628906 110.84375 C 30.601562 110.519531 30.554688 110.226562 30.628906 109.828125 C 30.726562 109.3125 30.972656 108.496094 31.320312 107.953125 C 31.6875 107.4375 32.355469 106.917969 32.800781 106.621094 C 33.144531 106.421875 33.367188 106.351562 33.738281 106.277344 C 34.28125 106.175781 35.21875 106.152344 35.738281 106.25 C 36.132812 106.324219 36.699219 106.597656 36.699219 106.597656 "/></clipPath><clipPath id="a6ae9dd1f5"><path d="M 99.328125 63.925781 L 131.152344 63.925781 L 131.152344 118.636719 L 99.328125 118.636719 Z M 99.328125 63.925781 "/></clipPath><clipPath id="942e5b4c4c"><path d="M 101.6875 110.769531 C 104.503906 109.1875 105.761719 108.078125 106.773438 107.113281 C 107.785156 106.152344 108.574219 105.335938 109.5625 104.078125 C 110.992188 102.203125 112.871094 99.289062 114.300781 96.796875 C 115.707031 94.328125 117.117188 92.109375 118.101562 89.195312 C 119.289062 85.664062 119.832031 80.828125 120.449219 76.976562 C 120.964844 73.570312 121.089844 69.03125 121.632812 67.277344 C 121.855469 66.5625 122.050781 66.289062 122.371094 65.894531 C 122.695312 65.476562 123.089844 65.105469 123.507812 64.808594 C 123.925781 64.511719 124.445312 64.289062 124.941406 64.140625 C 125.433594 64.019531 125.976562 63.945312 126.496094 63.996094 C 127.011719 64.019531 127.554688 64.140625 128.023438 64.316406 C 128.519531 64.511719 128.988281 64.808594 129.382812 65.128906 C 129.753906 65.476562 130.121094 65.894531 130.394531 66.339844 C 130.640625 66.785156 130.863281 67.277344 130.960938 67.796875 C 131.085938 68.289062 131.109375 68.832031 131.0625 69.351562 C 130.988281 69.867188 130.839844 70.410156 130.617188 70.878906 C 130.417969 71.324219 130.097656 71.792969 129.753906 72.164062 C 129.382812 72.535156 128.964844 72.878906 128.492188 73.125 C 128.050781 73.347656 127.507812 73.523438 127.011719 73.621094 C 126.496094 73.695312 125.953125 73.695312 125.433594 73.621094 C 124.941406 73.523438 124.398438 73.347656 123.953125 73.101562 C 123.484375 72.855469 123.0625 72.535156 122.695312 72.164062 C 122.347656 71.792969 122.050781 71.324219 121.828125 70.855469 C 121.609375 70.386719 121.460938 69.867188 121.410156 69.351562 C 121.359375 68.832031 121.386719 68.289062 121.484375 67.769531 C 121.609375 67.277344 121.804688 66.757812 122.078125 66.316406 C 122.347656 65.871094 122.695312 65.449219 123.089844 65.128906 C 123.484375 64.785156 123.953125 64.511719 124.445312 64.316406 C 124.914062 64.117188 125.457031 64.019531 125.976562 63.996094 C 126.496094 63.945312 127.039062 64.019531 127.53125 64.167969 C 128.023438 64.289062 128.519531 64.539062 128.964844 64.808594 C 129.382812 65.105469 129.777344 65.476562 130.097656 65.894531 C 130.394531 66.316406 130.667969 66.785156 130.8125 67.277344 C 130.988281 67.769531 131.0625 68.089844 131.085938 68.832031 C 131.109375 70.585938 130.492188 74.558594 130 77.765625 C 129.40625 81.59375 128.492188 87.292969 127.628906 90.28125 C 127.136719 92.007812 126.789062 92.75 126.074219 94.28125 C 125.039062 96.5 123.285156 99.613281 121.730469 102.105469 C 120.199219 104.5 118.695312 106.84375 116.894531 108.941406 C 115.117188 111.0625 112.820312 113.285156 111.019531 114.765625 C 109.6875 115.878906 108.453125 116.640625 107.242188 117.308594 C 106.28125 117.851562 105.316406 118.371094 104.429688 118.542969 C 103.738281 118.667969 102.972656 118.59375 102.453125 118.492188 C 102.058594 118.417969 101.835938 118.320312 101.515625 118.125 C 101.070312 117.828125 100.40625 117.308594 100.058594 116.765625 C 99.714844 116.222656 99.46875 115.53125 99.394531 114.890625 C 99.34375 114.25 99.515625 113.433594 99.6875 112.914062 C 99.8125 112.570312 99.9375 112.347656 100.183594 112.050781 C 100.503906 111.632812 101.6875 110.769531 101.6875 110.769531 "/></clipPath><clipPath id="0b41b69d49"><path d="M 83.851562 15.898438 L 130.433594 15.898438 L 130.433594 73 L 83.851562 73 Z M 83.851562 15.898438 "/></clipPath><clipPath id="27ca79469f"><path d="M 122.125 69.574219 C 120.300781 60.515625 119.410156 57.996094 118.421875 55.058594 C 117.238281 51.429688 115.363281 45.851562 114.152344 42.941406 C 113.460938 41.261719 113.019531 40.152344 112.253906 39.039062 C 111.5625 38.027344 110.375 37.335938 109.832031 36.472656 C 109.390625 35.78125 109.09375 35.089844 109.019531 34.351562 C 108.921875 33.632812 109.09375 32.695312 109.265625 32.105469 C 109.390625 31.683594 109.5625 31.414062 109.785156 31.09375 C 110.007812 30.773438 110.203125 30.5 110.523438 30.226562 C 111.019531 29.859375 111.832031 29.339844 112.523438 29.167969 C 113.238281 28.996094 114.203125 29.042969 114.796875 29.140625 C 115.238281 29.214844 115.484375 29.316406 115.855469 29.539062 C 116.398438 29.859375 117.089844 30.351562 117.585938 31.042969 C 118.25 31.980469 118.496094 33.683594 119.164062 34.941406 C 119.832031 36.203125 121.015625 37.4375 121.582031 38.570312 C 122.027344 39.460938 122.324219 40.300781 122.519531 41.136719 C 122.71875 41.929688 122.890625 42.691406 122.816406 43.433594 C 122.71875 44.175781 122.421875 44.964844 122.003906 45.582031 C 121.582031 46.199219 120.816406 46.789062 120.300781 47.136719 C 119.90625 47.359375 119.632812 47.457031 119.214844 47.554688 C 118.597656 47.65625 117.632812 47.726562 116.894531 47.554688 C 116.175781 47.382812 115.414062 46.988281 114.84375 46.496094 C 114.300781 46 113.4375 44.691406 113.535156 44.617188 C 113.660156 44.496094 117.066406 47.40625 117.015625 47.457031 C 116.992188 47.53125 114.648438 46.320312 113.535156 45.1875 C 111.980469 43.582031 110.648438 39.878906 109.265625 38.078125 C 108.277344 36.792969 107.441406 35.929688 106.355469 35.089844 C 105.269531 34.277344 103.886719 33.855469 102.699219 33.117188 C 101.492188 32.375 100.578125 31.535156 99.171875 30.699219 C 97.171875 29.511719 93.964844 27.761719 91.765625 26.894531 C 90.136719 26.230469 88.359375 26.007812 87.296875 25.589844 C 86.679688 25.339844 86.3125 25.167969 85.890625 24.847656 C 85.472656 24.550781 85.078125 24.132812 84.78125 23.710938 C 84.484375 23.269531 84.238281 22.773438 84.089844 22.257812 C 83.941406 21.738281 83.867188 21.195312 83.890625 20.652344 C 83.917969 20.132812 84.039062 19.589844 84.214844 19.097656 C 84.410156 18.601562 84.707031 18.109375 85.027344 17.714844 C 85.375 17.292969 85.792969 16.949219 86.261719 16.652344 C 86.707031 16.382812 87.226562 16.183594 87.742188 16.0625 C 88.238281 15.9375 88.804688 15.886719 89.324219 15.960938 C 89.867188 16.011719 90.410156 16.160156 90.878906 16.355469 C 91.371094 16.578125 91.839844 16.898438 92.210938 17.246094 C 92.605469 17.617188 92.949219 18.058594 93.199219 18.527344 C 93.445312 18.972656 93.640625 19.515625 93.742188 20.035156 C 93.816406 20.554688 93.816406 21.121094 93.742188 21.640625 C 93.667969 22.15625 93.492188 22.699219 93.246094 23.167969 C 93 23.636719 92.679688 24.082031 92.285156 24.453125 C 91.914062 24.824219 91.445312 25.144531 90.976562 25.367188 C 90.484375 25.589844 89.964844 25.734375 89.421875 25.808594 C 88.902344 25.859375 88.335938 25.835938 87.816406 25.734375 C 87.324219 25.613281 86.78125 25.414062 86.335938 25.144531 C 85.867188 24.898438 85.449219 24.527344 85.101562 24.132812 C 84.757812 23.738281 84.460938 23.242188 84.261719 22.75 C 84.066406 22.28125 83.941406 21.738281 83.890625 21.195312 C 83.867188 20.675781 83.917969 20.109375 84.066406 19.613281 C 84.1875 19.097656 84.433594 18.578125 84.707031 18.132812 C 85.003906 17.714844 85.398438 17.292969 85.816406 16.972656 C 86.238281 16.652344 86.730469 16.382812 87.226562 16.207031 C 87.71875 16.035156 88.136719 15.914062 88.804688 15.9375 C 90.015625 15.960938 92.261719 16.703125 93.816406 17.195312 C 95.222656 17.640625 96.28125 18.035156 97.789062 18.75 C 99.910156 19.738281 102.773438 21.441406 105.242188 22.921875 C 107.734375 24.402344 110.796875 26.132812 112.648438 27.636719 C 113.980469 28.699219 114.769531 29.613281 115.707031 30.699219 C 116.621094 31.757812 117.683594 32.820312 118.226562 34.105469 C 118.746094 35.363281 118.175781 37.113281 118.867188 38.273438 C 119.582031 39.484375 121.976562 40.324219 122.519531 41.136719 C 122.792969 41.558594 122.769531 41.828125 122.792969 42.273438 C 122.839844 42.890625 122.792969 43.851562 122.546875 44.570312 C 122.273438 45.261719 121.804688 45.976562 121.238281 46.46875 C 120.695312 46.964844 119.929688 47.359375 119.214844 47.554688 C 118.472656 47.726562 117.511719 47.679688 116.894531 47.554688 C 116.449219 47.480469 116.203125 47.382812 115.808594 47.160156 C 115.265625 46.839844 114.648438 46.371094 114.078125 45.628906 C 113.167969 44.46875 112.179688 42.175781 111.363281 40.445312 C 110.597656 38.792969 109.660156 36.820312 109.289062 35.460938 C 109.042969 34.597656 108.96875 33.832031 108.996094 33.214844 C 109.019531 32.769531 109.09375 32.5 109.265625 32.105469 C 109.511719 31.535156 110.105469 30.671875 110.523438 30.226562 C 110.847656 29.933594 111.066406 29.757812 111.464844 29.585938 C 112.03125 29.316406 112.917969 29.019531 113.660156 29.019531 C 114.398438 29.019531 115.117188 29.140625 115.855469 29.539062 C 116.894531 30.082031 118.152344 31.316406 119.066406 32.402344 C 119.976562 33.511719 120.71875 34.820312 121.359375 36.128906 C 122.027344 37.410156 122.371094 38.421875 122.988281 40.175781 C 124.101562 43.210938 125.976562 49.085938 127.085938 52.863281 C 128 55.898438 128.742188 58.488281 129.285156 61.132812 C 129.800781 63.523438 130.195312 66.808594 130.320312 68.066406 C 130.371094 68.5625 130.445312 68.683594 130.394531 69.078125 C 130.320312 69.621094 130.121094 70.4375 129.800781 70.980469 C 129.457031 71.546875 128.839844 72.089844 128.394531 72.386719 C 128.074219 72.609375 127.851562 72.707031 127.457031 72.804688 C 126.9375 72.929688 126.101562 73.054688 125.484375 72.929688 C 124.839844 72.804688 124.175781 72.511719 123.65625 72.113281 C 123.136719 71.71875 122.667969 71.027344 122.421875 70.535156 C 122.25 70.191406 122.125 69.574219 122.125 69.574219 "/></clipPath><clipPath id="31d1c3085a"><path d="M 65.132812 12.820312 L 93.203125 12.820312 L 93.203125 25.0625 L 65.132812 25.0625 Z M 65.132812 12.820312 "/></clipPath><clipPath id="66eaa83376"><path d="M 65.183594 20.40625 C 66.441406 13.789062 68.441406 13.320312 69.898438 13 C 71.28125 12.679688 72.710938 12.902344 74.144531 12.925781 C 75.597656 12.949219 77.105469 13 78.585938 13.148438 C 80.089844 13.320312 81.597656 13.640625 83.078125 13.863281 C 84.507812 14.085938 86.386719 14.160156 87.324219 14.480469 C 87.816406 14.652344 87.988281 14.949219 88.382812 15.097656 C 88.804688 15.222656 89.347656 15.121094 89.816406 15.269531 C 90.285156 15.417969 90.777344 15.640625 91.199219 15.9375 C 91.59375 16.234375 92.085938 16.75 92.285156 17.023438 C 92.382812 17.171875 92.40625 17.34375 92.480469 17.394531 C 92.507812 17.441406 92.53125 17.417969 92.554688 17.441406 C 92.628906 17.515625 92.679688 17.789062 92.730469 17.9375 C 92.804688 18.085938 92.925781 18.257812 92.976562 18.40625 C 93 18.480469 92.976562 18.578125 93 18.652344 C 93.023438 18.726562 93.074219 18.800781 93.097656 18.898438 C 93.125 19.023438 93.097656 19.246094 93.125 19.417969 C 93.125 19.566406 93.199219 19.789062 93.199219 19.910156 C 93.199219 20.011719 93.148438 20.082031 93.148438 20.15625 C 93.148438 20.257812 93.171875 20.332031 93.148438 20.429688 C 93.125 20.578125 93.023438 20.800781 93 20.921875 C 93 20.972656 92.976562 20.996094 92.976562 21.070312 C 92.976562 21.171875 93 21.34375 92.949219 21.539062 C 92.925781 21.785156 92.828125 22.183594 92.679688 22.503906 C 92.554688 22.800781 92.382812 23.09375 92.1875 23.367188 C 91.988281 23.636719 91.765625 23.886719 91.496094 24.105469 C 91.246094 24.304688 90.953125 24.503906 90.65625 24.625 C 90.359375 24.773438 90.039062 24.898438 89.691406 24.972656 C 89.371094 25.019531 88.707031 25.046875 88.707031 25.046875 C 88.707031 25.046875 87.078125 25.019531 86.089844 24.972656 C 84.757812 24.921875 82.980469 24.773438 81.472656 24.625 C 80.015625 24.476562 78.585938 24.328125 77.152344 24.132812 C 75.773438 23.933594 74.390625 23.664062 73.007812 23.441406 C 71.625 23.21875 70.167969 23.292969 68.859375 22.800781 C 67.550781 22.28125 65.183594 20.40625 65.183594 20.40625 "/></clipPath><clipPath id="2dbb668ed9"><path d="M 14.027344 12.910156 L 74.351562 12.910156 L 74.351562 67 L 14.027344 67 Z M 14.027344 12.910156 "/></clipPath><clipPath id="af9e4b3788"><path d="M 70.414062 21.21875 C 67.035156 21.613281 63.925781 22.675781 62.417969 22.800781 C 61.554688 22.847656 60.886719 22.75 60.34375 22.601562 C 59.949219 22.503906 59.726562 22.378906 59.40625 22.15625 C 58.9375 21.8125 58.320312 21.21875 57.976562 20.652344 C 57.65625 20.058594 57.433594 19.320312 57.40625 18.652344 C 57.382812 17.984375 57.554688 17.222656 57.851562 16.628906 C 58.125 16.011719 58.617188 15.417969 59.160156 15.023438 C 59.703125 14.605469 60.320312 14.382812 61.085938 14.210938 C 62.097656 14.011719 63.925781 14.285156 64.761719 14.160156 C 65.207031 14.109375 65.429688 13.9375 65.777344 13.886719 C 66.144531 13.816406 66.441406 13.789062 66.863281 13.839844 C 67.429688 13.914062 68.367188 14.234375 68.859375 14.53125 C 69.230469 14.726562 69.429688 14.902344 69.675781 15.195312 C 70.070312 15.640625 70.539062 16.382812 70.738281 17.046875 C 70.933594 17.714844 70.957031 18.503906 70.8125 19.171875 C 70.664062 19.835938 70.316406 20.554688 69.898438 21.070312 C 69.453125 21.613281 69.035156 21.984375 68.195312 22.355469 C 66.441406 23.070312 62.246094 22.996094 59.40625 23.6875 C 56.59375 24.378906 53.386719 25.589844 51.1875 26.5 C 49.683594 27.117188 48.84375 27.464844 47.410156 28.277344 C 45.3125 29.488281 42.277344 31.414062 40.082031 33.3125 C 37.910156 35.191406 35.984375 37.386719 34.253906 39.632812 C 32.550781 41.878906 31.046875 44.347656 29.738281 46.839844 C 28.40625 49.332031 27.296875 51.875 26.308594 54.640625 C 25.222656 57.578125 24.382812 62.367188 23.617188 64.042969 C 23.296875 64.734375 23.097656 65.007812 22.730469 65.402344 C 22.382812 65.769531 21.9375 66.117188 21.46875 66.386719 C 21 66.636719 20.484375 66.808594 19.964844 66.90625 C 19.421875 67.003906 18.878906 67.003906 18.359375 66.929688 C 17.816406 66.859375 17.296875 66.683594 16.828125 66.4375 C 16.359375 66.191406 15.890625 65.871094 15.523438 65.476562 C 15.152344 65.105469 14.832031 64.636719 14.609375 64.167969 C 14.386719 63.699219 14.238281 63.15625 14.164062 62.636719 C 14.089844 62.09375 14.113281 61.550781 14.238281 61.03125 C 14.335938 60.515625 14.535156 59.972656 14.804688 59.527344 C 15.078125 59.058594 15.421875 58.636719 15.816406 58.292969 C 16.238281 57.945312 16.707031 57.652344 17.199219 57.453125 C 17.667969 57.230469 18.238281 57.109375 18.753906 57.082031 C 19.273438 57.035156 19.839844 57.109375 20.359375 57.230469 C 20.851562 57.355469 21.371094 57.601562 21.816406 57.898438 C 22.261719 58.167969 22.679688 58.5625 23 58.984375 C 23.320312 59.378906 23.59375 59.898438 23.765625 60.390625 C 23.9375 60.882812 24.039062 61.425781 24.039062 61.96875 C 24.0625 62.488281 23.964844 63.054688 23.816406 63.550781 C 23.640625 64.042969 23.394531 64.5625 23.074219 64.980469 C 22.753906 65.402344 22.359375 65.796875 21.914062 66.09375 C 21.496094 66.386719 20.976562 66.636719 20.484375 66.785156 C 19.964844 66.929688 19.398438 67.003906 18.878906 66.980469 C 18.359375 66.957031 17.792969 66.832031 17.296875 66.660156 C 16.828125 66.460938 16.335938 66.191406 15.917969 65.84375 C 15.523438 65.5 15.152344 65.082031 14.878906 64.636719 C 14.582031 64.191406 14.386719 63.671875 14.261719 63.15625 C 14.140625 62.636719 14.113281 62.144531 14.140625 61.550781 C 14.214844 60.785156 14.410156 60.070312 14.707031 58.984375 C 15.199219 57.035156 16.164062 53.503906 17.152344 50.839844 C 18.136719 48.171875 19.296875 45.554688 20.558594 43.015625 C 21.839844 40.421875 22.902344 37.980469 24.777344 35.460938 C 27.046875 32.375 30.726562 28.625 33.640625 26.105469 C 36.007812 24.058594 38.230469 22.601562 40.671875 21.171875 C 43.09375 19.738281 45.339844 18.601562 48.203125 17.515625 C 51.730469 16.160156 57.308594 14.457031 60.371094 14.085938 C 62.171875 13.839844 63.554688 14.257812 64.761719 14.160156 C 65.578125 14.109375 66.269531 13.816406 66.863281 13.839844 C 67.257812 13.839844 67.527344 13.914062 67.898438 14.0625 C 68.441406 14.285156 69.207031 14.703125 69.675781 15.195312 C 70.167969 15.691406 70.539062 16.382812 70.738281 17.046875 C 70.933594 17.714844 70.957031 18.503906 70.8125 19.171875 C 70.664062 19.835938 70.316406 20.554688 69.898438 21.070312 C 69.453125 21.613281 68.785156 22.035156 68.195312 22.355469 C 67.652344 22.625 67.230469 22.75 66.515625 22.847656 C 65.28125 23.046875 62.664062 23.046875 61.382812 22.824219 C 60.542969 22.675781 59.976562 22.527344 59.40625 22.15625 C 58.839844 21.785156 58.320312 21.21875 57.976562 20.652344 C 57.65625 20.058594 57.457031 19.21875 57.40625 18.652344 C 57.382812 18.257812 57.40625 17.984375 57.507812 17.617188 C 57.65625 17.074219 57.976562 16.257812 58.394531 15.738281 C 58.839844 15.222656 59.359375 14.828125 60.074219 14.503906 C 61.0625 14.035156 62.617188 13.816406 63.949219 13.566406 C 65.257812 13.320312 66.738281 13.125 67.996094 13.050781 C 69.035156 12.976562 70.070312 12.851562 70.910156 13.023438 C 71.601562 13.148438 72.265625 13.519531 72.710938 13.816406 C 73.03125 14.035156 73.203125 14.210938 73.425781 14.53125 C 73.722656 14.976562 74.117188 15.714844 74.242188 16.332031 C 74.339844 16.972656 74.316406 17.714844 74.117188 18.308594 C 73.921875 18.925781 73.453125 19.613281 73.105469 20.011719 C 72.835938 20.304688 72.660156 20.453125 72.316406 20.628906 C 71.824219 20.875 70.414062 21.21875 70.414062 21.21875 "/></clipPath><clipPath id="0cc868acc3"><path d="M 13.179688 57.828125 L 35.386719 57.828125 L 35.386719 109.960938 L 13.179688 109.960938 Z M 13.179688 57.828125 "/></clipPath><clipPath id="41e20e0d6d"><path d="M 23.246094 62.144531 C 22.234375 76.53125 21.964844 79.691406 22.335938 81.988281 C 22.605469 83.617188 23.148438 84.777344 23.742188 86.085938 C 24.332031 87.394531 25.074219 88.628906 25.839844 89.8125 C 26.578125 90.996094 27.492188 92.007812 28.207031 93.195312 C 28.949219 94.429688 29.367188 95.957031 30.183594 97.167969 C 30.972656 98.351562 32.183594 99.140625 32.996094 100.351562 C 33.859375 101.636719 34.847656 104.746094 35.09375 104.695312 C 35.195312 104.671875 35.144531 103.882812 35.167969 103.882812 C 35.21875 103.882812 35.316406 104.648438 35.316406 105.042969 C 35.339844 105.410156 35.316406 105.757812 35.195312 106.175781 C 35.019531 106.792969 34.625 107.683594 34.132812 108.226562 C 33.640625 108.792969 32.949219 109.285156 32.257812 109.558594 C 31.539062 109.828125 30.703125 109.929688 29.960938 109.855469 C 29.21875 109.757812 28.332031 109.359375 27.789062 109.039062 C 27.417969 108.816406 27.195312 108.621094 26.925781 108.273438 C 26.53125 107.78125 26.332031 106.964844 25.839844 106.25 C 25.148438 105.289062 23.890625 104.25 22.976562 103.140625 C 22.0625 102.03125 21.246094 101.042969 20.359375 99.585938 C 19.175781 97.585938 17.570312 94.15625 16.730469 92.007812 C 16.113281 90.503906 15.84375 89.664062 15.472656 88.058594 C 14.929688 85.714844 14.335938 81.566406 14.113281 79.175781 C 13.964844 77.570312 13.894531 76.136719 13.941406 75.101562 C 13.992188 74.460938 14.039062 74.015625 14.214844 73.523438 C 14.386719 73.027344 14.632812 72.535156 14.953125 72.113281 C 15.273438 71.695312 15.667969 71.300781 16.113281 71.003906 C 16.558594 70.707031 17.050781 70.484375 17.570312 70.335938 C 18.0625 70.191406 18.632812 70.140625 19.148438 70.164062 C 19.667969 70.191406 20.210938 70.3125 20.703125 70.511719 C 21.199219 70.707031 21.667969 70.980469 22.085938 71.324219 C 22.480469 71.671875 22.851562 72.089844 23.125 72.535156 C 23.394531 73.003906 23.59375 73.523438 23.714844 74.015625 C 23.816406 74.535156 23.839844 75.101562 23.789062 75.621094 C 23.742188 76.136719 23.59375 76.679688 23.371094 77.148438 C 23.148438 77.644531 22.828125 78.113281 22.480469 78.484375 C 22.113281 78.851562 21.667969 79.199219 21.199219 79.445312 C 20.730469 79.691406 20.210938 79.867188 19.691406 79.964844 C 19.175781 80.039062 18.605469 80.039062 18.089844 79.964844 C 17.570312 79.890625 17.050781 79.691406 16.582031 79.445312 C 16.113281 79.199219 15.667969 78.878906 15.300781 78.484375 C 14.953125 78.113281 14.632812 77.644531 14.410156 77.175781 C 14.1875 76.679688 14.039062 76.164062 13.992188 75.621094 C 13.917969 75.101562 13.941406 74.558594 14.066406 74.039062 C 14.1875 73.523438 14.386719 73.003906 14.65625 72.558594 C 14.929688 72.089844 15.300781 71.671875 15.695312 71.324219 C 16.089844 71.003906 16.558594 70.707031 17.050781 70.511719 C 17.546875 70.3125 18.089844 70.191406 18.605469 70.164062 C 19.148438 70.140625 19.691406 70.191406 20.210938 70.335938 C 20.703125 70.484375 21.222656 70.707031 21.644531 71.003906 C 22.085938 71.300781 22.480469 71.695312 22.804688 72.113281 C 23.125 72.511719 23.347656 72.78125 23.566406 73.523438 C 24.136719 75.398438 24.257812 81.566406 24.800781 84.332031 C 25.125 86.109375 25.46875 87.21875 25.960938 88.601562 C 26.457031 90.035156 27.121094 91.492188 27.8125 92.824219 C 28.480469 94.082031 29.144531 95.242188 29.984375 96.402344 C 30.875 97.636719 32.109375 98.746094 32.972656 100.007812 C 33.835938 101.242188 34.871094 102.722656 35.167969 103.882812 C 35.414062 104.71875 35.292969 105.558594 35.195312 106.175781 C 35.121094 106.621094 35.019531 106.894531 34.796875 107.289062 C 34.476562 107.804688 33.886719 108.597656 33.269531 109.015625 C 32.652344 109.433594 31.863281 109.757812 31.121094 109.855469 C 30.378906 109.929688 29.515625 109.828125 28.824219 109.582031 C 28.132812 109.3125 27.417969 108.84375 26.925781 108.273438 C 26.429688 107.730469 26.308594 106.820312 25.839844 106.25 C 25.371094 105.707031 24.679688 105.511719 24.109375 104.917969 C 23.320312 104.078125 22.433594 102.695312 21.71875 101.511719 C 21 100.277344 20.53125 98.847656 19.839844 97.613281 C 19.125 96.402344 18.210938 95.390625 17.496094 94.179688 C 16.730469 92.898438 15.964844 91.492188 15.375 90.109375 C 14.78125 88.75 14.238281 87.394531 13.894531 86.011719 C 13.523438 84.628906 13.324219 83.222656 13.226562 81.839844 C 13.128906 80.433594 13.226562 79.027344 13.300781 77.59375 C 13.347656 76.113281 13.421875 74.929688 13.597656 73.054688 C 13.894531 69.96875 14.609375 62.660156 15.078125 60.910156 C 15.199219 60.414062 15.25 60.316406 15.472656 59.972656 C 15.742188 59.527344 16.285156 58.886719 16.828125 58.539062 C 17.371094 58.167969 18.164062 57.972656 18.707031 57.871094 C 19.101562 57.824219 19.371094 57.871094 19.71875 57.921875 C 20.039062 57.972656 20.335938 58.019531 20.679688 58.167969 C 21.175781 58.417969 21.914062 58.960938 22.285156 59.355469 C 22.554688 59.648438 22.679688 59.847656 22.828125 60.191406 C 23.023438 60.710938 23.246094 62.144531 23.246094 62.144531 "/></clipPath><clipPath id="838e2edbf8"><path d="M 10 10.359375 L 144 10.359375 L 144 144 L 10 144 Z M 10 10.359375 "/></clipPath></defs><g id="ad07c1315a"><path style=" stroke:none;fill-rule:nonzero;fill:#87ff00;fill-opacity:1;" d="M 50.902344 51.351562 L 50.835938 51.285156 L 35.914062 66.207031 L 72.144531 102.367188 L 87.066406 87.515625 L 108.371094 66.207031 L 93.449219 51.285156 L 93.449219 51.21875 L 50.835938 51.21875 Z M 50.902344 51.351562 "/><g clip-rule="nonzero" clip-path="url(#40f02f8520)"><path style=" stroke:none;fill-rule:nonzero;fill:#87ff00;fill-opacity:1;" d="M 72.007812 11.492188 L 19.242188 41.738281 L 19.242188 102.238281 L 72.007812 132.484375 L 124.773438 102.238281 L 124.773438 41.738281 Z M 114.691406 96.453125 L 72.007812 121.050781 L 29.324219 96.453125 L 29.328125 47.386719 L 72.007812 22.785156 L 114.691406 47.382812 Z M 114.691406 96.453125 "/></g><g clip-rule="nonzero" clip-path="url(#260af212c0)"><g clip-rule="nonzero" clip-path="url(#3c33712193)"><path style=" stroke:none;fill-rule:nonzero;fill:#060705;fill-opacity:1;" d="M 124.734375 124.734375 L 151.265625 124.734375 L 151.265625 150.363281 L 124.734375 150.363281 Z M 124.734375 124.734375 "/></g></g><g clip-rule="nonzero" clip-path="url(#7349663a34)"><g clip-rule="nonzero" clip-path="url(#7e6b0eabb5)"><path style=" stroke:none;fill-rule:nonzero;fill:#060705;fill-opacity:1;" d="M 109.191406 110.050781 L 138.695312 110.050781 L 138.695312 138.339844 L 109.191406 138.339844 Z M 109.191406 110.050781 "/></g></g><g clip-rule="nonzero" clip-path="url(#ba1e0dfd9c)"><g clip-rule="nonzero" clip-path="url(#c5408c4bc1)"><path style=" stroke:none;fill-rule:nonzero;fill:#060705;fill-opacity:1;" d="M 26.332031 101.339844 L 45.09375 101.339844 L 45.09375 119.0625 L 26.332031 119.0625 Z M 26.332031 101.339844 "/></g></g><g clip-rule="nonzero" clip-path="url(#c22f488b4a)"><g clip-rule="nonzero" clip-path="url(#95bf9bf0e9)"><path style=" stroke:none;fill-rule:nonzero;fill:#060705;fill-opacity:1;" d="M 29.640625 105.261719 L 109.507812 105.261719 L 109.507812 131.921875 L 29.640625 131.921875 Z M 29.640625 105.261719 "/></g></g><g clip-rule="nonzero" clip-path="url(#a6ae9dd1f5)"><g clip-rule="nonzero" clip-path="url(#942e5b4c4c)"><path style=" stroke:none;fill-rule:nonzero;fill:#060705;fill-opacity:1;" d="M 98.40625 63.007812 L 132.074219 63.007812 L 132.074219 119.558594 L 98.40625 119.558594 Z M 98.40625 63.007812 "/></g></g><g clip-rule="nonzero" clip-path="url(#0b41b69d49)"><g clip-rule="nonzero" clip-path="url(#27ca79469f)"><path style=" stroke:none;fill-rule:nonzero;fill:#060705;fill-opacity:1;" d="M 82.90625 14.949219 L 131.382812 14.949219 L 131.382812 74.03125 L 82.90625 74.03125 Z M 82.90625 14.949219 "/></g></g><g clip-rule="nonzero" clip-path="url(#31d1c3085a)"><g clip-rule="nonzero" clip-path="url(#66eaa83376)"><path style=" stroke:none;fill-rule:nonzero;fill:#060705;fill-opacity:1;" d="M 64.195312 11.9375 L 94.199219 11.9375 L 94.199219 26.058594 L 64.195312 26.058594 Z M 64.195312 11.9375 "/></g></g><g clip-rule="nonzero" clip-path="url(#2dbb668ed9)"><g clip-rule="nonzero" clip-path="url(#af9e4b3788)"><path style=" stroke:none;fill-rule:nonzero;fill:#060705;fill-opacity:1;" d="M 13.152344 12.039062 L 75.226562 12.039062 L 75.226562 67.992188 L 13.152344 67.992188 Z M 13.152344 12.039062 "/></g></g><g clip-rule="nonzero" clip-path="url(#0cc868acc3)"><g clip-rule="nonzero" clip-path="url(#41e20e0d6d)"><path style=" stroke:none;fill-rule:nonzero;fill:#060705;fill-opacity:1;" d="M 12.238281 56.886719 L 36.328125 56.886719 L 36.328125 110.804688 L 12.238281 110.804688 Z M 12.238281 56.886719 "/></g></g><path style=" stroke:none;fill-rule:nonzero;fill:#73d800;fill-opacity:1;" d="M 107.660156 36.074219 C 98.167969 26.582031 85.535156 21.355469 72.078125 21.355469 C 58.621094 21.355469 45.984375 26.582031 36.492188 36.074219 C 16.875 55.695312 16.875 87.625 36.492188 107.246094 C 45.980469 116.738281 58.617188 121.964844 72.074219 121.964844 C 85.53125 121.964844 98.167969 116.738281 107.660156 107.246094 C 117.152344 97.753906 122.378906 85.117188 122.378906 71.660156 C 122.378906 58.207031 117.148438 45.566406 107.660156 36.074219 Z M 104.847656 104.429688 C 96.105469 113.167969 84.46875 117.984375 72.074219 117.984375 C 59.679688 117.984375 48.046875 113.171875 39.308594 104.429688 C 21.238281 86.359375 21.238281 56.960938 39.308594 38.890625 C 48.046875 30.152344 59.683594 25.335938 72.078125 25.335938 C 84.472656 25.335938 96.105469 30.152344 104.847656 38.890625 C 122.914062 56.960938 122.914062 86.359375 104.847656 104.429688 Z M 104.847656 104.429688 "/><g clip-rule="nonzero" clip-path="url(#838e2edbf8)"><path style=" stroke:none;fill-rule:nonzero;fill:#73d800;fill-opacity:1;" d="M 174.953125 156.195312 L 141.457031 122.695312 L 134.523438 115.765625 C 133.777344 115.019531 132.457031 115.019531 131.710938 115.765625 L 130.65625 116.820312 C 130.558594 116.589844 130.421875 116.371094 130.230469 116.179688 L 121.703125 107.648438 C 129.261719 97.257812 133.351562 84.78125 133.351562 71.660156 C 133.351562 55.265625 126.988281 39.871094 115.421875 28.3125 C 103.863281 16.753906 88.46875 10.386719 72.078125 10.386719 C 55.6875 10.386719 40.292969 16.753906 28.730469 28.316406 C 4.832031 52.214844 4.832031 91.105469 28.730469 115.011719 C 40.292969 126.570312 55.6875 132.933594 72.078125 132.933594 C 85.203125 132.933594 97.679688 128.84375 108.066406 121.285156 L 116.597656 129.820312 C 116.789062 130.007812 117.003906 130.148438 117.234375 130.242188 L 116.191406 131.292969 C 115.410156 132.070312 115.410156 133.328125 116.191406 134.105469 L 123.386719 141.304688 L 156.613281 174.539062 C 159.0625 176.988281 162.320312 178.335938 165.785156 178.335938 C 169.246094 178.335938 172.503906 176.988281 174.953125 174.539062 C 180.011719 169.476562 180.011719 161.25 174.953125 156.195312 Z M 31.542969 112.191406 C 9.195312 89.839844 9.195312 53.476562 31.542969 31.125 C 42.351562 20.316406 56.746094 14.363281 72.074219 14.363281 C 87.402344 14.363281 101.796875 20.316406 112.605469 31.121094 C 123.414062 41.929688 129.367188 56.324219 129.367188 71.65625 C 129.367188 86.984375 123.414062 101.378906 112.605469 112.1875 C 101.796875 122.996094 87.402344 128.945312 72.074219 128.945312 C 56.75 128.949219 42.351562 123 31.542969 112.191406 Z M 119.410156 127 L 111.230469 118.820312 C 112.675781 117.617188 114.078125 116.351562 115.421875 115.003906 C 116.765625 113.660156 118.035156 112.257812 119.238281 110.816406 L 127.414062 118.996094 C 127.605469 119.183594 127.820312 119.324219 128.054688 119.417969 L 119.832031 127.640625 C 119.738281 127.410156 119.601562 127.191406 119.410156 127 Z M 133.117188 119.988281 L 137.277344 124.144531 L 124.75 137.039062 L 120.410156 132.695312 Z M 172.140625 171.71875 C 170.441406 173.417969 168.183594 174.355469 165.785156 174.355469 C 163.382812 174.355469 161.125 173.417969 159.429688 171.71875 L 127.566406 139.851562 L 140.09375 126.957031 L 172.140625 159.007812 C 175.644531 162.511719 175.644531 168.214844 172.140625 171.71875 Z M 172.140625 171.71875 "/></g></g></svg>