<svg xmlns="http://www.w3.org/2000/svg" xmlns:xlink="http://www.w3.org/1999/xlink" width="500" zoomAndPan="magnify" viewBox="0 0 375 374.999991" height="500" preserveAspectRatio="xMidYMid meet" version="1.2"><defs><clipPath id="9fcbfd9afb"><path d="M 25 0 L 350 0 L 350 375 L 25 375 Z M 25 0 "/></clipPath><clipPath id="05c0a2d0d0"><path d="M -55.878906 142.882812 L 268.328125 -46.476562 L 431 232.042969 L 106.789062 421.402344 Z M -55.878906 142.882812 "/></clipPath><clipPath id="1b8f3d1c7a"><path d="M 349.546875 92.851562 L 349.859375 279.433594 L 187.8125 374.078125 L 25.453125 282.140625 L 25.140625 95.5625 L 187.1875 0.917969 Z M 349.546875 92.851562 "/></clipPath><clipPath id="cdc6400b65"><path d="M 55.238281 35.632812 L 319.726562 35.632812 L 319.726562 339 L 55.238281 339 Z M 55.238281 35.632812 "/></clipPath></defs><g id="6ca248406a"><g clip-rule="nonzero" clip-path="url(#9fcbfd9afb)"><g clip-rule="nonzero" clip-path="url(#05c0a2d0d0)"><g clip-rule="nonzero" clip-path="url(#1b8f3d1c7a)"><path style=" stroke:none;fill-rule:nonzero;fill:#65b30e;fill-opacity:1;" d="M -55.878906 142.882812 L 268.332031 -46.476562 L 431 232.042969 L 106.789062 421.402344 Z M -55.878906 142.882812 "/></g></g></g><path style=" stroke:none;fill-rule:nonzero;fill:#87ff00;fill-opacity:1;" d="M 134.582031 135.703125 L 134.414062 135.535156 L 97.035156 172.914062 L 187.792969 263.503906 L 225.175781 226.296875 L 278.546875 172.914062 L 241.167969 135.535156 L 241.167969 135.363281 L 134.417969 135.363281 Z M 134.582031 135.703125 "/><g clip-rule="nonzero" clip-path="url(#cdc6400b65)"><path style=" stroke:none;fill-rule:nonzero;fill:#87ff00;fill-opacity:1;" d="M 187.453125 35.851562 L 55.269531 111.625 L 55.273438 263.175781 L 187.457031 338.949219 L 319.640625 263.175781 L 319.640625 111.625 L 187.457031 35.855469 Z M 294.375 248.683594 L 187.453125 310.308594 L 80.527344 248.683594 L 80.53125 125.765625 L 187.457031 64.136719 L 294.378906 125.765625 L 294.378906 248.683594 Z M 294.375 248.683594 "/></g><g style="fill:#b21a22;fill-opacity:1;"><g transform="translate(100.993832, 117.80353)"><path style="stroke:none" d="M 13.503906 -50.902344 L 21.300781 -50.902344 C 25.195312 -50.902344 28.203125 -49.84375 30.320312 -47.722656 C 32.441406 -45.605469 33.5 -42.597656 33.5 -38.703125 L 33.5 -34.109375 C 33.5 -33.136719 33.195312 -32.34375 32.582031 -31.734375 C 31.972656 -31.125 31.183594 -30.820312 30.210938 -30.820312 L 23.179688 -30.820312 C 22.207031 -30.820312 21.417969 -31.125 20.804688 -31.734375 C 20.195312 -32.34375 19.890625 -33.136719 19.890625 -34.109375 L 19.890625 -37.03125 C 19.890625 -37.261719 19.871094 -37.4375 19.828125 -37.5625 C 19.820312 -37.585938 19.8125 -37.601562 19.808594 -37.609375 C 19.8125 -37.601562 19.820312 -37.59375 19.832031 -37.582031 C 19.839844 -37.570312 19.851562 -37.5625 19.859375 -37.558594 C 19.851562 -37.5625 19.835938 -37.570312 19.8125 -37.578125 C 19.6875 -37.621094 19.511719 -37.640625 19.28125 -37.640625 L 15.453125 -37.640625 C 15.222656 -37.640625 15.046875 -37.621094 14.921875 -37.578125 C 14.898438 -37.570312 14.882812 -37.5625 14.875 -37.558594 C 14.882812 -37.5625 14.894531 -37.570312 14.902344 -37.582031 C 14.914062 -37.59375 14.921875 -37.601562 14.925781 -37.609375 C 14.921875 -37.601562 14.914062 -37.585938 14.90625 -37.5625 C 14.863281 -37.4375 14.84375 -37.261719 14.84375 -37.03125 L 14.84375 -31.113281 L 12.667969 -31.113281 L 13.335938 -33.183594 L 30.179688 -27.757812 C 31.257812 -27.382812 32.082031 -26.792969 32.652344 -25.980469 C 33.214844 -25.175781 33.5 -24.21875 33.5 -23.109375 L 33.5 -10.023438 C 33.5 -6.179688 32.441406 -3.1875 30.332031 -1.046875 C 28.210938 1.101562 25.203125 2.175781 21.300781 2.175781 L 13.503906 2.175781 C 9.65625 2.175781 6.660156 1.105469 4.519531 -1.039062 C 2.375 -3.179688 1.304688 -6.175781 1.304688 -10.023438 L 1.304688 -14.546875 C 1.304688 -15.519531 1.609375 -16.3125 2.21875 -16.921875 C 2.832031 -17.53125 3.621094 -17.835938 4.59375 -17.835938 L 11.625 -17.835938 C 12.597656 -17.835938 13.386719 -17.53125 14 -16.921875 C 14.609375 -16.3125 14.914062 -15.519531 14.914062 -14.546875 L 14.914062 -11.625 C 14.914062 -11.394531 14.933594 -11.21875 14.976562 -11.09375 C 14.984375 -11.070312 14.988281 -11.054688 14.996094 -11.046875 C 14.992188 -11.054688 14.984375 -11.0625 14.972656 -11.074219 C 14.960938 -11.085938 14.953125 -11.09375 14.945312 -11.097656 C 14.953125 -11.09375 14.96875 -11.085938 14.992188 -11.078125 C 15.117188 -11.035156 15.292969 -11.015625 15.523438 -11.015625 L 19.28125 -11.015625 C 19.511719 -11.015625 19.6875 -11.035156 19.8125 -11.078125 C 19.835938 -11.085938 19.851562 -11.09375 19.859375 -11.097656 C 19.851562 -11.09375 19.839844 -11.085938 19.832031 -11.074219 C 19.820312 -11.0625 19.8125 -11.054688 19.808594 -11.046875 C 19.8125 -11.054688 19.820312 -11.070312 19.828125 -11.09375 C 19.871094 -11.21875 19.890625 -11.394531 19.890625 -11.625 L 19.890625 -18.65625 L 22.066406 -18.65625 L 21.394531 -16.585938 L 4.6875 -22.015625 C 3.609375 -22.375 2.78125 -22.957031 2.191406 -23.757812 C 1.601562 -24.570312 1.304688 -25.539062 1.304688 -26.660156 L 1.304688 -38.703125 C 1.304688 -42.601562 2.378906 -45.613281 4.527344 -47.734375 C 6.667969 -49.84375 9.660156 -50.902344 13.503906 -50.902344 Z M 13.503906 -46.550781 C 10.851562 -46.550781 8.878906 -45.914062 7.582031 -44.636719 C 6.296875 -43.367188 5.65625 -41.390625 5.65625 -38.703125 L 5.65625 -26.660156 C 5.65625 -26.484375 5.671875 -26.371094 5.707031 -26.324219 C 5.746094 -26.269531 5.855469 -26.210938 6.03125 -26.152344 L 24.242188 -20.234375 L 24.242188 -11.625 C 24.242188 -10.097656 23.796875 -8.886719 22.90625 -8 C 22.019531 -7.109375 20.808594 -6.664062 19.28125 -6.664062 L 15.523438 -6.664062 C 13.992188 -6.664062 12.785156 -7.109375 11.894531 -8 C 11.007812 -8.886719 10.5625 -10.097656 10.5625 -11.625 L 10.5625 -14.546875 C 10.5625 -14.5 10.578125 -14.429688 10.605469 -14.347656 C 10.667969 -14.160156 10.773438 -13.996094 10.921875 -13.84375 C 11.070312 -13.695312 11.238281 -13.589844 11.425781 -13.527344 C 11.507812 -13.5 11.574219 -13.488281 11.625 -13.488281 L 4.59375 -13.488281 C 4.644531 -13.488281 4.710938 -13.5 4.792969 -13.527344 C 4.980469 -13.589844 5.148438 -13.695312 5.296875 -13.84375 C 5.445312 -13.996094 5.550781 -14.160156 5.613281 -14.347656 C 5.640625 -14.429688 5.65625 -14.5 5.65625 -14.546875 L 5.65625 -10.023438 C 5.65625 -7.375 6.300781 -5.40625 7.59375 -4.113281 C 8.886719 -2.820312 10.855469 -2.175781 13.503906 -2.175781 L 21.300781 -2.175781 C 23.988281 -2.175781 25.964844 -2.816406 27.234375 -4.101562 C 28.511719 -5.398438 29.148438 -7.371094 29.148438 -10.023438 L 29.148438 -23.109375 C 29.148438 -23.300781 29.128906 -23.421875 29.089844 -23.476562 C 29.058594 -23.523438 28.976562 -23.570312 28.847656 -23.613281 L 10.492188 -29.53125 L 10.492188 -37.03125 C 10.492188 -38.558594 10.9375 -39.769531 11.828125 -40.65625 C 12.714844 -41.546875 13.925781 -41.992188 15.453125 -41.992188 L 19.28125 -41.992188 C 20.808594 -41.992188 22.019531 -41.546875 22.90625 -40.65625 C 23.796875 -39.769531 24.242188 -38.558594 24.242188 -37.03125 L 24.242188 -34.109375 C 24.242188 -34.15625 24.226562 -34.226562 24.199219 -34.308594 C 24.136719 -34.496094 24.03125 -34.660156 23.882812 -34.8125 C 23.734375 -34.960938 23.566406 -35.066406 23.378906 -35.128906 C 23.296875 -35.15625 23.230469 -35.167969 23.179688 -35.167969 L 30.210938 -35.167969 C 30.160156 -35.167969 30.09375 -35.15625 30.007812 -35.128906 C 29.824219 -35.066406 29.65625 -34.960938 29.507812 -34.8125 C 29.359375 -34.660156 29.253906 -34.496094 29.191406 -34.308594 C 29.164062 -34.226562 29.148438 -34.15625 29.148438 -34.109375 L 29.148438 -38.703125 C 29.148438 -41.394531 28.515625 -43.378906 27.246094 -44.648438 C 25.976562 -45.914062 23.996094 -46.550781 21.300781 -46.550781 Z M 13.503906 -46.550781 "/></g></g><g style="fill:#b21a22;fill-opacity:1;"><g transform="translate(135.786945, 117.80353)"><path style="stroke:none" d="M 28.816406 -46.550781 L 3.203125 -46.550781 C 3.25 -46.550781 3.320312 -46.5625 3.402344 -46.59375 C 3.589844 -46.652344 3.753906 -46.761719 3.90625 -46.910156 C 4.054688 -47.058594 4.160156 -47.226562 4.222656 -47.410156 C 4.25 -47.496094 4.261719 -47.5625 4.261719 -47.613281 L 4.261719 -40.652344 C 4.261719 -40.699219 4.25 -40.769531 4.222656 -40.851562 C 4.160156 -41.039062 4.054688 -41.203125 3.90625 -41.355469 C 3.753906 -41.503906 3.589844 -41.609375 3.402344 -41.671875 C 3.320312 -41.699219 3.25 -41.710938 3.203125 -41.710938 L 13.453125 -41.710938 L 13.453125 -1.113281 C 13.453125 -1.164062 13.4375 -1.230469 13.410156 -1.3125 C 13.347656 -1.5 13.242188 -1.667969 13.09375 -1.816406 C 12.945312 -1.964844 12.777344 -2.070312 12.589844 -2.132812 C 12.507812 -2.160156 12.441406 -2.175781 12.390625 -2.175781 L 19.628906 -2.175781 C 19.578125 -2.175781 19.511719 -2.160156 19.429688 -2.132812 C 19.242188 -2.070312 19.074219 -1.964844 18.925781 -1.816406 C 18.777344 -1.667969 18.671875 -1.5 18.609375 -1.3125 C 18.582031 -1.230469 18.566406 -1.164062 18.566406 -1.113281 L 18.566406 -41.710938 L 28.816406 -41.710938 C 28.769531 -41.710938 28.703125 -41.699219 28.617188 -41.671875 C 28.429688 -41.609375 28.265625 -41.503906 28.113281 -41.355469 C 27.964844 -41.203125 27.859375 -41.039062 27.796875 -40.851562 C 27.769531 -40.769531 27.757812 -40.699219 27.757812 -40.652344 L 27.757812 -47.613281 C 27.757812 -47.5625 27.769531 -47.496094 27.796875 -47.410156 C 27.859375 -47.226562 27.964844 -47.058594 28.113281 -46.910156 C 28.265625 -46.761719 28.429688 -46.652344 28.617188 -46.59375 C 28.703125 -46.5625 28.769531 -46.550781 28.816406 -46.550781 Z M 28.816406 -50.902344 C 29.789062 -50.902344 30.582031 -50.597656 31.191406 -49.984375 C 31.800781 -49.375 32.105469 -48.585938 32.105469 -47.613281 L 32.105469 -40.652344 C 32.105469 -39.679688 31.800781 -38.886719 31.191406 -38.277344 C 30.582031 -37.667969 29.789062 -37.363281 28.816406 -37.363281 L 20.742188 -37.363281 L 20.742188 -39.539062 L 22.917969 -39.539062 L 22.917969 -1.113281 C 22.917969 -0.140625 22.613281 0.648438 22.003906 1.261719 C 21.394531 1.871094 20.601562 2.175781 19.628906 2.175781 L 12.390625 2.175781 C 11.417969 2.175781 10.628906 1.871094 10.015625 1.261719 C 9.40625 0.648438 9.101562 -0.140625 9.101562 -1.113281 L 9.101562 -39.539062 L 11.277344 -39.539062 L 11.277344 -37.363281 L 3.203125 -37.363281 C 2.230469 -37.363281 1.4375 -37.667969 0.828125 -38.277344 C 0.21875 -38.886719 -0.0859375 -39.679688 -0.0859375 -40.652344 L -0.0859375 -47.613281 C -0.0859375 -48.585938 0.21875 -49.375 0.828125 -49.984375 C 1.4375 -50.597656 2.230469 -50.902344 3.203125 -50.902344 Z M 28.816406 -50.902344 "/></g></g><g style="fill:#b21a22;fill-opacity:1;"><g transform="translate(167.796612, 117.80353)"><path style="stroke:none" d="M 1.304688 -10.023438 L 1.304688 -38.703125 C 1.304688 -42.601562 2.378906 -45.613281 4.527344 -47.734375 C 6.667969 -49.84375 9.660156 -50.902344 13.503906 -50.902344 L 21.300781 -50.902344 C 25.195312 -50.902344 28.203125 -49.84375 30.320312 -47.722656 C 32.441406 -45.605469 33.5 -42.597656 33.5 -38.703125 L 33.5 -10.023438 C 33.5 -6.179688 32.441406 -3.1875 30.332031 -1.046875 C 28.210938 1.101562 25.203125 2.175781 21.300781 2.175781 L 13.503906 2.175781 C 9.65625 2.175781 6.660156 1.105469 4.519531 -1.039062 C 2.375 -3.179688 1.304688 -6.175781 1.304688 -10.023438 Z M 5.65625 -10.023438 C 5.65625 -7.375 6.300781 -5.40625 7.59375 -4.113281 C 8.886719 -2.820312 10.855469 -2.175781 13.503906 -2.175781 L 21.300781 -2.175781 C 23.988281 -2.175781 25.964844 -2.816406 27.234375 -4.101562 C 28.511719 -5.398438 29.148438 -7.371094 29.148438 -10.023438 L 29.148438 -38.703125 C 29.148438 -41.394531 28.515625 -43.378906 27.246094 -44.648438 C 25.976562 -45.914062 23.996094 -46.550781 21.300781 -46.550781 L 13.503906 -46.550781 C 10.851562 -46.550781 8.878906 -45.914062 7.582031 -44.636719 C 6.296875 -43.367188 5.65625 -41.390625 5.65625 -38.703125 Z M 15.3125 -11.15625 L 19.769531 -11.15625 C 19.996094 -11.15625 20.175781 -11.175781 20.300781 -11.21875 C 20.320312 -11.226562 20.335938 -11.230469 20.347656 -11.238281 C 20.339844 -11.230469 20.328125 -11.222656 20.320312 -11.214844 C 20.308594 -11.203125 20.300781 -11.195312 20.296875 -11.1875 C 20.300781 -11.195312 20.308594 -11.210938 20.316406 -11.234375 C 20.355469 -11.359375 20.378906 -11.535156 20.378906 -11.765625 L 20.378906 -36.960938 C 20.378906 -37.191406 20.355469 -37.367188 20.316406 -37.492188 C 20.308594 -37.515625 20.300781 -37.53125 20.296875 -37.539062 C 20.300781 -37.53125 20.308594 -37.523438 20.320312 -37.511719 C 20.328125 -37.5 20.339844 -37.496094 20.347656 -37.488281 C 20.335938 -37.496094 20.320312 -37.5 20.300781 -37.507812 C 20.175781 -37.550781 19.996094 -37.570312 19.769531 -37.570312 L 15.3125 -37.570312 C 15.085938 -37.570312 14.910156 -37.550781 14.785156 -37.507812 C 14.761719 -37.5 14.746094 -37.496094 14.738281 -37.488281 C 14.746094 -37.496094 14.753906 -37.5 14.765625 -37.511719 C 14.773438 -37.523438 14.78125 -37.53125 14.785156 -37.539062 C 14.78125 -37.53125 14.773438 -37.515625 14.765625 -37.492188 C 14.726562 -37.367188 14.703125 -37.191406 14.703125 -36.960938 L 14.703125 -11.765625 C 14.703125 -11.535156 14.726562 -11.359375 14.765625 -11.234375 C 14.773438 -11.210938 14.78125 -11.195312 14.785156 -11.1875 C 14.78125 -11.195312 14.773438 -11.203125 14.765625 -11.214844 C 14.753906 -11.222656 14.746094 -11.230469 14.738281 -11.238281 C 14.746094 -11.230469 14.761719 -11.226562 14.785156 -11.21875 C 14.910156 -11.175781 15.085938 -11.15625 15.3125 -11.15625 Z M 15.3125 -6.804688 C 13.785156 -6.804688 12.574219 -7.25 11.6875 -8.136719 C 10.796875 -9.027344 10.355469 -10.234375 10.355469 -11.765625 L 10.355469 -36.960938 C 10.355469 -38.492188 10.796875 -39.699219 11.6875 -40.589844 C 12.574219 -41.476562 13.785156 -41.921875 15.3125 -41.921875 L 19.769531 -41.921875 C 21.296875 -41.921875 22.507812 -41.476562 23.394531 -40.589844 C 24.285156 -39.699219 24.726562 -38.492188 24.726562 -36.960938 L 24.726562 -11.765625 C 24.726562 -10.234375 24.285156 -9.027344 23.394531 -8.136719 C 22.507812 -7.25 21.296875 -6.804688 19.769531 -6.804688 Z M 15.3125 -6.804688 "/></g></g><g style="fill:#b21a22;fill-opacity:1;"><g transform="translate(202.589724, 117.80353)"><path style="stroke:none" d="M 25.546875 -50.902344 L 32.089844 -50.902344 C 33.0625 -50.902344 33.851562 -50.597656 34.464844 -49.984375 C 35.074219 -49.375 35.378906 -48.585938 35.378906 -47.613281 L 35.378906 -1.113281 C 35.378906 -0.140625 35.074219 0.648438 34.464844 1.261719 C 33.851562 1.871094 33.0625 2.175781 32.089844 2.175781 L 26.589844 2.175781 C 25.84375 2.175781 25.175781 1.960938 24.585938 1.539062 C 24.070312 1.164062 23.660156 0.652344 23.363281 0.0078125 L 25.335938 -0.90625 L 23.386719 0.0546875 L 10.300781 -26.535156 L 12.25 -27.496094 L 14.425781 -27.496094 L 14.425781 -1.113281 C 14.425781 -0.140625 14.121094 0.648438 13.511719 1.261719 C 12.902344 1.871094 12.109375 2.175781 11.136719 2.175781 L 4.59375 2.175781 C 3.621094 2.175781 2.832031 1.871094 2.21875 1.261719 C 1.609375 0.648438 1.304688 -0.140625 1.304688 -1.113281 L 1.304688 -47.613281 C 1.304688 -48.585938 1.609375 -49.375 2.21875 -49.984375 C 2.832031 -50.597656 3.621094 -50.902344 4.59375 -50.902344 L 10.09375 -50.902344 C 10.839844 -50.902344 11.507812 -50.6875 12.097656 -50.261719 C 12.613281 -49.890625 13.023438 -49.378906 13.320312 -48.734375 L 11.347656 -47.820312 L 13.296875 -48.78125 L 26.382812 -22.191406 L 24.433594 -21.230469 L 22.257812 -21.230469 L 22.257812 -47.613281 C 22.257812 -48.585938 22.5625 -49.375 23.171875 -49.984375 C 23.78125 -50.597656 24.574219 -50.902344 25.546875 -50.902344 Z M 25.546875 -46.550781 C 25.597656 -46.550781 25.664062 -46.5625 25.746094 -46.59375 C 25.933594 -46.652344 26.101562 -46.761719 26.25 -46.910156 C 26.398438 -47.058594 26.503906 -47.226562 26.566406 -47.410156 C 26.59375 -47.496094 26.609375 -47.5625 26.609375 -47.613281 L 26.609375 -21.230469 L 22.480469 -20.269531 L 9.382812 -46.882812 L 9.371094 -46.910156 C 9.390625 -46.867188 9.449219 -46.808594 9.550781 -46.734375 C 9.722656 -46.613281 9.902344 -46.550781 10.09375 -46.550781 L 4.59375 -46.550781 C 4.644531 -46.550781 4.710938 -46.5625 4.792969 -46.59375 C 4.980469 -46.652344 5.148438 -46.761719 5.296875 -46.910156 C 5.445312 -47.058594 5.550781 -47.226562 5.613281 -47.410156 C 5.640625 -47.496094 5.65625 -47.5625 5.65625 -47.613281 L 5.65625 -1.113281 C 5.65625 -1.164062 5.640625 -1.230469 5.613281 -1.3125 C 5.550781 -1.5 5.445312 -1.667969 5.296875 -1.816406 C 5.148438 -1.964844 4.980469 -2.070312 4.792969 -2.132812 C 4.710938 -2.160156 4.644531 -2.175781 4.59375 -2.175781 L 11.136719 -2.175781 C 11.085938 -2.175781 11.019531 -2.160156 10.9375 -2.132812 C 10.75 -2.070312 10.582031 -1.964844 10.433594 -1.816406 C 10.285156 -1.667969 10.179688 -1.5 10.117188 -1.3125 C 10.089844 -1.230469 10.074219 -1.164062 10.074219 -1.113281 L 10.074219 -27.496094 L 14.203125 -28.457031 L 27.300781 -1.839844 L 27.3125 -1.816406 C 27.292969 -1.859375 27.234375 -1.917969 27.132812 -1.988281 C 26.960938 -2.113281 26.78125 -2.175781 26.589844 -2.175781 L 32.089844 -2.175781 C 32.039062 -2.175781 31.972656 -2.160156 31.890625 -2.132812 C 31.703125 -2.070312 31.535156 -1.964844 31.386719 -1.816406 C 31.238281 -1.667969 31.132812 -1.5 31.070312 -1.3125 C 31.042969 -1.230469 31.027344 -1.164062 31.027344 -1.113281 L 31.027344 -47.613281 C 31.027344 -47.5625 31.042969 -47.496094 31.070312 -47.410156 C 31.132812 -47.226562 31.238281 -47.058594 31.386719 -46.910156 C 31.535156 -46.761719 31.703125 -46.652344 31.890625 -46.59375 C 31.972656 -46.5625 32.039062 -46.550781 32.089844 -46.550781 Z M 25.546875 -46.550781 "/></g></g><g style="fill:#b21a22;fill-opacity:1;"><g transform="translate(239.261677, 117.80353)"><path style="stroke:none" d="M 33.429688 -47.613281 L 33.429688 -40.652344 C 33.429688 -39.679688 33.140625 -38.890625 32.558594 -38.273438 C 31.945312 -37.621094 31.136719 -37.292969 30.140625 -37.292969 L 12.945312 -37.292969 L 12.945312 -39.46875 L 15.121094 -39.46875 L 15.121094 -28.75 L 12.945312 -28.75 L 12.945312 -30.921875 L 26.035156 -30.921875 C 27.03125 -30.921875 27.835938 -30.597656 28.453125 -29.941406 C 29.03125 -29.328125 29.324219 -28.535156 29.324219 -27.566406 L 29.324219 -20.671875 C 29.324219 -19.703125 29.03125 -18.910156 28.453125 -18.296875 C 27.835938 -17.640625 27.03125 -17.316406 26.035156 -17.316406 L 12.945312 -17.316406 L 12.945312 -19.492188 L 15.121094 -19.492188 L 15.121094 -9.1875 L 12.945312 -9.1875 L 12.945312 -11.363281 L 30.140625 -11.363281 C 31.113281 -11.363281 31.902344 -11.058594 32.515625 -10.449219 C 33.125 -9.835938 33.429688 -9.046875 33.429688 -8.074219 L 33.429688 -1.113281 C 33.429688 -0.140625 33.125 0.648438 32.515625 1.261719 C 31.902344 1.871094 31.113281 2.175781 30.140625 2.175781 L 4.523438 2.175781 C 3.546875 2.175781 2.757812 1.851562 2.15625 1.210938 C 1.589844 0.605469 1.304688 -0.167969 1.304688 -1.113281 L 1.304688 -47.613281 C 1.304688 -48.558594 1.589844 -49.332031 2.15625 -49.933594 C 2.757812 -50.578125 3.546875 -50.902344 4.523438 -50.902344 L 30.140625 -50.902344 C 31.113281 -50.902344 31.902344 -50.597656 32.515625 -49.984375 C 33.125 -49.375 33.429688 -48.585938 33.429688 -47.613281 Z M 29.078125 -47.613281 C 29.078125 -47.5625 29.09375 -47.496094 29.121094 -47.410156 C 29.183594 -47.226562 29.289062 -47.058594 29.4375 -46.910156 C 29.585938 -46.761719 29.753906 -46.652344 29.941406 -46.59375 C 30.023438 -46.5625 30.089844 -46.550781 30.140625 -46.550781 L 4.523438 -46.550781 C 4.804688 -46.550781 5.074219 -46.6875 5.328125 -46.960938 C 5.46875 -47.109375 5.566406 -47.273438 5.621094 -47.449219 C 5.644531 -47.523438 5.65625 -47.578125 5.65625 -47.613281 L 5.65625 -1.113281 C 5.65625 -1.148438 5.644531 -1.203125 5.621094 -1.273438 C 5.566406 -1.453125 5.46875 -1.617188 5.328125 -1.765625 C 5.074219 -2.039062 4.804688 -2.175781 4.523438 -2.175781 L 30.140625 -2.175781 C 30.089844 -2.175781 30.023438 -2.160156 29.941406 -2.132812 C 29.753906 -2.070312 29.585938 -1.964844 29.4375 -1.816406 C 29.289062 -1.667969 29.183594 -1.5 29.121094 -1.3125 C 29.09375 -1.230469 29.078125 -1.164062 29.078125 -1.113281 L 29.078125 -8.074219 C 29.078125 -8.023438 29.09375 -7.957031 29.121094 -7.875 C 29.183594 -7.6875 29.289062 -7.519531 29.4375 -7.371094 C 29.585938 -7.222656 29.753906 -7.117188 29.941406 -7.054688 C 30.023438 -7.027344 30.089844 -7.011719 30.140625 -7.011719 L 10.773438 -7.011719 L 10.773438 -21.664062 L 26.035156 -21.664062 C 25.96875 -21.664062 25.890625 -21.648438 25.792969 -21.613281 C 25.601562 -21.546875 25.433594 -21.433594 25.285156 -21.277344 C 25.148438 -21.132812 25.054688 -20.976562 25 -20.808594 C 24.980469 -20.742188 24.972656 -20.699219 24.972656 -20.671875 L 24.972656 -27.566406 C 24.972656 -27.539062 24.980469 -27.496094 25 -27.429688 C 25.054688 -27.261719 25.148438 -27.105469 25.285156 -26.960938 C 25.433594 -26.804688 25.601562 -26.691406 25.792969 -26.625 C 25.890625 -26.589844 25.96875 -26.574219 26.035156 -26.574219 L 10.773438 -26.574219 L 10.773438 -41.644531 L 30.140625 -41.644531 C 30.078125 -41.644531 29.996094 -41.625 29.902344 -41.59375 C 29.710938 -41.523438 29.539062 -41.410156 29.390625 -41.253906 C 29.257812 -41.109375 29.160156 -40.953125 29.109375 -40.785156 C 29.089844 -40.71875 29.078125 -40.675781 29.078125 -40.652344 Z M 29.078125 -47.613281 "/></g></g><g style="fill:#b21a22;fill-opacity:1;"><g transform="translate(76.842689, 214.849221)"><path style="stroke:none" d="M -2.175781 9.328125 L -2.175781 2.921875 C -2.175781 1.859375 -1.847656 0.996094 -1.191406 0.339844 C -0.535156 -0.316406 0.328125 -0.644531 1.390625 -0.644531 L 43.367188 -0.644531 C 44.429688 -0.644531 45.292969 -0.316406 45.949219 0.339844 C 46.605469 0.996094 46.933594 1.859375 46.933594 2.921875 L 46.933594 9.328125 C 46.933594 10.390625 46.605469 11.253906 45.949219 11.910156 C 45.292969 12.566406 44.429688 12.894531 43.367188 12.894531 L 1.390625 12.894531 C 0.328125 12.894531 -0.535156 12.566406 -1.191406 11.910156 C -1.847656 11.253906 -2.175781 10.390625 -2.175781 9.328125 Z M 2.175781 9.328125 C 2.175781 9.335938 2.175781 9.34375 2.175781 9.351562 C 2.175781 9.351562 2.175781 9.347656 2.175781 9.347656 C 2.171875 9.316406 2.164062 9.285156 2.152344 9.25 C 2.101562 9.097656 2.011719 8.960938 1.886719 8.832031 C 1.761719 8.707031 1.621094 8.617188 1.472656 8.570312 C 1.433594 8.554688 1.402344 8.546875 1.375 8.542969 C 1.371094 8.542969 1.367188 8.542969 1.367188 8.542969 C 1.375 8.542969 1.382812 8.542969 1.390625 8.542969 L 43.367188 8.542969 C 43.375 8.542969 43.382812 8.542969 43.390625 8.542969 C 43.390625 8.542969 43.386719 8.542969 43.382812 8.542969 C 43.355469 8.546875 43.324219 8.554688 43.285156 8.570312 C 43.136719 8.617188 42.996094 8.707031 42.871094 8.832031 C 42.746094 8.960938 42.65625 9.097656 42.605469 9.25 C 42.59375 9.285156 42.585938 9.316406 42.582031 9.347656 C 42.582031 9.347656 42.582031 9.351562 42.582031 9.351562 C 42.582031 9.34375 42.582031 9.335938 42.582031 9.328125 L 42.582031 2.921875 C 42.582031 2.914062 42.582031 2.90625 42.582031 2.898438 C 42.582031 2.898438 42.582031 2.902344 42.582031 2.90625 C 42.585938 2.933594 42.59375 2.964844 42.605469 3.003906 C 42.65625 3.152344 42.746094 3.292969 42.871094 3.417969 C 42.996094 3.542969 43.136719 3.632812 43.285156 3.683594 C 43.324219 3.695312 43.355469 3.703125 43.382812 3.707031 C 43.386719 3.707031 43.390625 3.707031 43.390625 3.707031 C 43.382812 3.707031 43.375 3.707031 43.367188 3.707031 L 1.390625 3.707031 C 1.382812 3.707031 1.375 3.707031 1.367188 3.707031 C 1.367188 3.707031 1.371094 3.707031 1.375 3.707031 C 1.402344 3.703125 1.433594 3.695312 1.472656 3.683594 C 1.621094 3.632812 1.761719 3.542969 1.886719 3.417969 C 2.011719 3.292969 2.101562 3.152344 2.152344 3.003906 C 2.164062 2.964844 2.171875 2.933594 2.175781 2.90625 C 2.175781 2.902344 2.175781 2.898438 2.175781 2.898438 C 2.175781 2.90625 2.175781 2.914062 2.175781 2.921875 Z M 2.175781 9.328125 "/></g></g><g style="fill:#b21a22;fill-opacity:1;"><g transform="translate(121.58664, 214.849221)"><path style="stroke:none" d="M 33.570312 -38.703125 L 33.570312 -31.183594 C 33.570312 -30.210938 33.261719 -29.421875 32.652344 -28.8125 C 32.042969 -28.199219 31.25 -27.894531 30.28125 -27.894531 L 23.738281 -27.894531 C 22.765625 -27.894531 21.972656 -28.199219 21.363281 -28.8125 C 20.753906 -29.421875 20.445312 -30.210938 20.445312 -31.183594 L 20.445312 -36.890625 C 20.445312 -37.121094 20.425781 -37.296875 20.386719 -37.421875 C 20.378906 -37.445312 20.371094 -37.460938 20.367188 -37.46875 C 20.371094 -37.460938 20.378906 -37.453125 20.386719 -37.441406 C 20.398438 -37.433594 20.40625 -37.425781 20.414062 -37.417969 C 20.40625 -37.425781 20.390625 -37.429688 20.367188 -37.4375 C 20.242188 -37.480469 20.066406 -37.5 19.839844 -37.5 L 15.382812 -37.5 C 15.15625 -37.5 14.976562 -37.480469 14.851562 -37.4375 C 14.832031 -37.429688 14.816406 -37.425781 14.804688 -37.417969 C 14.8125 -37.425781 14.824219 -37.433594 14.832031 -37.441406 C 14.84375 -37.453125 14.851562 -37.460938 14.855469 -37.46875 C 14.851562 -37.460938 14.84375 -37.445312 14.835938 -37.421875 C 14.796875 -37.296875 14.773438 -37.121094 14.773438 -36.890625 L 14.773438 -11.625 C 14.773438 -11.394531 14.796875 -11.21875 14.835938 -11.09375 C 14.84375 -11.070312 14.851562 -11.054688 14.855469 -11.046875 C 14.851562 -11.054688 14.84375 -11.0625 14.832031 -11.074219 C 14.824219 -11.085938 14.8125 -11.09375 14.804688 -11.097656 C 14.816406 -11.09375 14.832031 -11.085938 14.851562 -11.078125 C 14.976562 -11.035156 15.15625 -11.015625 15.382812 -11.015625 L 19.839844 -11.015625 C 20.066406 -11.015625 20.242188 -11.035156 20.367188 -11.078125 C 20.390625 -11.085938 20.40625 -11.09375 20.414062 -11.097656 C 20.40625 -11.09375 20.398438 -11.085938 20.386719 -11.074219 C 20.378906 -11.0625 20.371094 -11.054688 20.367188 -11.046875 C 20.371094 -11.054688 20.378906 -11.070312 20.386719 -11.09375 C 20.425781 -11.21875 20.445312 -11.394531 20.445312 -11.625 L 20.445312 -17.542969 C 20.445312 -18.511719 20.753906 -19.304688 21.363281 -19.914062 C 21.972656 -20.523438 22.765625 -20.832031 23.738281 -20.832031 L 30.28125 -20.832031 C 31.25 -20.832031 32.042969 -20.523438 32.652344 -19.914062 C 33.261719 -19.304688 33.570312 -18.511719 33.570312 -17.542969 L 33.570312 -10.023438 C 33.570312 -6.175781 32.496094 -3.179688 30.355469 -1.039062 C 28.214844 1.105469 25.21875 2.175781 21.371094 2.175781 L 13.574219 2.175781 C 9.730469 2.175781 6.726562 1.109375 4.5625 -1.027344 C 2.390625 -3.167969 1.304688 -6.167969 1.304688 -10.023438 L 1.304688 -38.703125 C 1.304688 -42.609375 2.394531 -45.625 4.574219 -47.742188 C 6.734375 -49.847656 9.734375 -50.902344 13.574219 -50.902344 L 21.371094 -50.902344 C 25.214844 -50.902344 28.203125 -49.84375 30.34375 -47.734375 C 32.496094 -45.613281 33.570312 -42.601562 33.570312 -38.703125 Z M 29.21875 -38.703125 C 29.21875 -41.390625 28.574219 -43.367188 27.289062 -44.636719 C 25.996094 -45.914062 24.023438 -46.550781 21.371094 -46.550781 L 13.574219 -46.550781 C 10.914062 -46.550781 8.925781 -45.910156 7.609375 -44.625 C 6.304688 -43.359375 5.65625 -41.382812 5.65625 -38.703125 L 5.65625 -10.023438 C 5.65625 -7.382812 6.308594 -5.414062 7.617188 -4.125 C 8.933594 -2.824219 10.921875 -2.175781 13.574219 -2.175781 L 21.371094 -2.175781 C 24.015625 -2.175781 25.988281 -2.820312 27.28125 -4.113281 C 28.570312 -5.40625 29.21875 -7.375 29.21875 -10.023438 L 29.21875 -17.542969 C 29.21875 -17.492188 29.230469 -17.425781 29.261719 -17.339844 C 29.320312 -17.15625 29.425781 -16.988281 29.578125 -16.839844 C 29.726562 -16.6875 29.894531 -16.582031 30.078125 -16.523438 C 30.164062 -16.492188 30.230469 -16.480469 30.28125 -16.480469 L 23.738281 -16.480469 C 23.785156 -16.480469 23.851562 -16.492188 23.9375 -16.523438 C 24.121094 -16.582031 24.289062 -16.6875 24.4375 -16.839844 C 24.589844 -16.988281 24.695312 -17.15625 24.757812 -17.339844 C 24.785156 -17.425781 24.796875 -17.492188 24.796875 -17.542969 L 24.796875 -11.625 C 24.796875 -10.097656 24.355469 -8.886719 23.464844 -8 C 22.574219 -7.109375 21.367188 -6.664062 19.839844 -6.664062 L 15.382812 -6.664062 C 13.855469 -6.664062 12.644531 -7.109375 11.757812 -8 C 10.867188 -8.886719 10.421875 -10.097656 10.421875 -11.625 L 10.421875 -36.890625 C 10.421875 -38.421875 10.867188 -39.628906 11.757812 -40.519531 C 12.644531 -41.40625 13.855469 -41.851562 15.382812 -41.851562 L 19.839844 -41.851562 C 21.367188 -41.851562 22.574219 -41.40625 23.464844 -40.519531 C 24.355469 -39.628906 24.796875 -38.421875 24.796875 -36.890625 L 24.796875 -31.183594 C 24.796875 -31.234375 24.785156 -31.300781 24.757812 -31.386719 C 24.695312 -31.570312 24.589844 -31.738281 24.4375 -31.886719 C 24.289062 -32.035156 24.121094 -32.140625 23.9375 -32.203125 C 23.851562 -32.230469 23.785156 -32.246094 23.738281 -32.246094 L 30.28125 -32.246094 C 30.230469 -32.246094 30.164062 -32.230469 30.078125 -32.203125 C 29.894531 -32.140625 29.726562 -32.035156 29.578125 -31.886719 C 29.425781 -31.738281 29.320312 -31.570312 29.261719 -31.386719 C 29.230469 -31.300781 29.21875 -31.234375 29.21875 -31.183594 Z M 29.21875 -38.703125 "/></g></g><g style="fill:#b21a22;fill-opacity:1;"><g transform="translate(156.44935, 214.849221)"><path style="stroke:none" d="M 19.679688 -28.816406 L 19.679688 -47.613281 C 19.679688 -48.585938 19.988281 -49.375 20.597656 -49.984375 C 21.207031 -50.597656 22 -50.902344 22.972656 -50.902344 L 30.140625 -50.902344 C 31.109375 -50.902344 31.902344 -50.609375 32.519531 -50.03125 C 33.171875 -49.417969 33.5 -48.609375 33.5 -47.613281 L 33.5 -1.113281 C 33.5 -0.117188 33.171875 0.691406 32.519531 1.304688 C 31.902344 1.886719 31.109375 2.175781 30.140625 2.175781 L 22.972656 2.175781 C 22 2.175781 21.207031 1.871094 20.597656 1.261719 C 19.988281 0.648438 19.679688 -0.140625 19.679688 -1.113281 L 19.679688 -19.628906 L 21.855469 -19.628906 L 21.855469 -17.453125 L 12.945312 -17.453125 L 12.945312 -19.628906 L 15.121094 -19.628906 L 15.121094 -1.113281 C 15.121094 -0.140625 14.816406 0.648438 14.207031 1.261719 C 13.597656 1.871094 12.804688 2.175781 11.832031 2.175781 L 4.664062 2.175781 C 3.695312 2.175781 2.902344 1.886719 2.285156 1.304688 C 1.632812 0.691406 1.304688 -0.117188 1.304688 -1.113281 L 1.304688 -47.613281 C 1.304688 -48.609375 1.632812 -49.417969 2.285156 -50.03125 C 2.902344 -50.609375 3.695312 -50.902344 4.664062 -50.902344 L 11.832031 -50.902344 C 12.804688 -50.902344 13.597656 -50.597656 14.207031 -49.984375 C 14.816406 -49.375 15.121094 -48.585938 15.121094 -47.613281 L 15.121094 -28.816406 L 12.945312 -28.816406 L 12.945312 -30.992188 L 21.855469 -30.992188 L 21.855469 -28.816406 Z M 24.03125 -26.640625 L 10.773438 -26.640625 L 10.773438 -47.613281 C 10.773438 -47.5625 10.785156 -47.496094 10.8125 -47.410156 C 10.875 -47.226562 10.980469 -47.058594 11.128906 -46.910156 C 11.28125 -46.761719 11.445312 -46.652344 11.632812 -46.59375 C 11.714844 -46.5625 11.785156 -46.550781 11.832031 -46.550781 L 4.664062 -46.550781 C 4.6875 -46.550781 4.734375 -46.558594 4.796875 -46.582031 C 4.96875 -46.632812 5.125 -46.726562 5.265625 -46.863281 C 5.425781 -47.011719 5.535156 -47.179688 5.605469 -47.371094 C 5.640625 -47.46875 5.65625 -47.546875 5.65625 -47.613281 L 5.65625 -1.113281 C 5.65625 -1.175781 5.640625 -1.257812 5.605469 -1.351562 C 5.535156 -1.542969 5.425781 -1.714844 5.265625 -1.863281 C 5.125 -1.996094 4.96875 -2.09375 4.796875 -2.144531 C 4.734375 -2.164062 4.6875 -2.175781 4.664062 -2.175781 L 11.832031 -2.175781 C 11.785156 -2.175781 11.714844 -2.160156 11.632812 -2.132812 C 11.445312 -2.070312 11.28125 -1.964844 11.128906 -1.816406 C 10.980469 -1.667969 10.875 -1.5 10.8125 -1.3125 C 10.785156 -1.230469 10.773438 -1.164062 10.773438 -1.113281 L 10.773438 -21.804688 L 24.03125 -21.804688 L 24.03125 -1.113281 C 24.03125 -1.164062 24.019531 -1.230469 23.992188 -1.3125 C 23.929688 -1.5 23.824219 -1.667969 23.671875 -1.816406 C 23.523438 -1.964844 23.355469 -2.070312 23.171875 -2.132812 C 23.085938 -2.160156 23.019531 -2.175781 22.972656 -2.175781 L 30.140625 -2.175781 C 30.117188 -2.175781 30.070312 -2.164062 30.007812 -2.144531 C 29.835938 -2.09375 29.679688 -1.996094 29.535156 -1.863281 C 29.378906 -1.714844 29.265625 -1.542969 29.199219 -1.351562 C 29.164062 -1.257812 29.148438 -1.175781 29.148438 -1.113281 L 29.148438 -47.613281 C 29.148438 -47.546875 29.164062 -47.46875 29.199219 -47.371094 C 29.265625 -47.179688 29.378906 -47.011719 29.535156 -46.863281 C 29.679688 -46.726562 29.835938 -46.632812 30.007812 -46.582031 C 30.070312 -46.558594 30.117188 -46.550781 30.140625 -46.550781 L 22.972656 -46.550781 C 23.019531 -46.550781 23.085938 -46.5625 23.171875 -46.59375 C 23.355469 -46.652344 23.523438 -46.761719 23.671875 -46.910156 C 23.824219 -47.058594 23.929688 -47.226562 23.992188 -47.410156 C 24.019531 -47.496094 24.03125 -47.5625 24.03125 -47.613281 Z M 24.03125 -26.640625 "/></g></g><g style="fill:#b21a22;fill-opacity:1;"><g transform="translate(191.242463, 214.849221)"><path style="stroke:none" d="M 33.429688 -47.613281 L 33.429688 -40.652344 C 33.429688 -39.679688 33.140625 -38.890625 32.558594 -38.273438 C 31.945312 -37.621094 31.136719 -37.292969 30.140625 -37.292969 L 12.945312 -37.292969 L 12.945312 -39.46875 L 15.121094 -39.46875 L 15.121094 -28.75 L 12.945312 -28.75 L 12.945312 -30.921875 L 26.035156 -30.921875 C 27.03125 -30.921875 27.835938 -30.597656 28.453125 -29.941406 C 29.03125 -29.328125 29.324219 -28.535156 29.324219 -27.566406 L 29.324219 -20.671875 C 29.324219 -19.703125 29.03125 -18.910156 28.453125 -18.296875 C 27.835938 -17.640625 27.03125 -17.316406 26.035156 -17.316406 L 12.945312 -17.316406 L 12.945312 -19.492188 L 15.121094 -19.492188 L 15.121094 -9.1875 L 12.945312 -9.1875 L 12.945312 -11.363281 L 30.140625 -11.363281 C 31.113281 -11.363281 31.902344 -11.058594 32.515625 -10.449219 C 33.125 -9.835938 33.429688 -9.046875 33.429688 -8.074219 L 33.429688 -1.113281 C 33.429688 -0.140625 33.125 0.648438 32.515625 1.261719 C 31.902344 1.871094 31.113281 2.175781 30.140625 2.175781 L 4.523438 2.175781 C 3.546875 2.175781 2.757812 1.851562 2.15625 1.210938 C 1.589844 0.605469 1.304688 -0.167969 1.304688 -1.113281 L 1.304688 -47.613281 C 1.304688 -48.558594 1.589844 -49.332031 2.15625 -49.933594 C 2.757812 -50.578125 3.546875 -50.902344 4.523438 -50.902344 L 30.140625 -50.902344 C 31.113281 -50.902344 31.902344 -50.597656 32.515625 -49.984375 C 33.125 -49.375 33.429688 -48.585938 33.429688 -47.613281 Z M 29.078125 -47.613281 C 29.078125 -47.5625 29.09375 -47.496094 29.121094 -47.410156 C 29.183594 -47.226562 29.289062 -47.058594 29.4375 -46.910156 C 29.585938 -46.761719 29.753906 -46.652344 29.941406 -46.59375 C 30.023438 -46.5625 30.089844 -46.550781 30.140625 -46.550781 L 4.523438 -46.550781 C 4.804688 -46.550781 5.074219 -46.6875 5.328125 -46.960938 C 5.46875 -47.109375 5.566406 -47.273438 5.621094 -47.449219 C 5.644531 -47.523438 5.65625 -47.578125 5.65625 -47.613281 L 5.65625 -1.113281 C 5.65625 -1.148438 5.644531 -1.203125 5.621094 -1.273438 C 5.566406 -1.453125 5.46875 -1.617188 5.328125 -1.765625 C 5.074219 -2.039062 4.804688 -2.175781 4.523438 -2.175781 L 30.140625 -2.175781 C 30.089844 -2.175781 30.023438 -2.160156 29.941406 -2.132812 C 29.753906 -2.070312 29.585938 -1.964844 29.4375 -1.816406 C 29.289062 -1.667969 29.183594 -1.5 29.121094 -1.3125 C 29.09375 -1.230469 29.078125 -1.164062 29.078125 -1.113281 L 29.078125 -8.074219 C 29.078125 -8.023438 29.09375 -7.957031 29.121094 -7.875 C 29.183594 -7.6875 29.289062 -7.519531 29.4375 -7.371094 C 29.585938 -7.222656 29.753906 -7.117188 29.941406 -7.054688 C 30.023438 -7.027344 30.089844 -7.011719 30.140625 -7.011719 L 10.773438 -7.011719 L 10.773438 -21.664062 L 26.035156 -21.664062 C 25.96875 -21.664062 25.890625 -21.648438 25.792969 -21.613281 C 25.601562 -21.546875 25.433594 -21.433594 25.285156 -21.277344 C 25.148438 -21.132812 25.054688 -20.976562 25 -20.808594 C 24.980469 -20.742188 24.972656 -20.699219 24.972656 -20.671875 L 24.972656 -27.566406 C 24.972656 -27.539062 24.980469 -27.496094 25 -27.429688 C 25.054688 -27.261719 25.148438 -27.105469 25.285156 -26.960938 C 25.433594 -26.804688 25.601562 -26.691406 25.792969 -26.625 C 25.890625 -26.589844 25.96875 -26.574219 26.035156 -26.574219 L 10.773438 -26.574219 L 10.773438 -41.644531 L 30.140625 -41.644531 C 30.078125 -41.644531 29.996094 -41.625 29.902344 -41.59375 C 29.710938 -41.523438 29.539062 -41.410156 29.390625 -41.253906 C 29.257812 -41.109375 29.160156 -40.953125 29.109375 -40.785156 C 29.089844 -40.71875 29.078125 -40.675781 29.078125 -40.652344 Z M 29.078125 -47.613281 "/></g></g><g style="fill:#b21a22;fill-opacity:1;"><g transform="translate(225.965978, 214.849221)"><path style="stroke:none" d="M 33.570312 -38.703125 L 33.570312 -31.183594 C 33.570312 -30.210938 33.261719 -29.421875 32.652344 -28.8125 C 32.042969 -28.199219 31.25 -27.894531 30.28125 -27.894531 L 23.738281 -27.894531 C 22.765625 -27.894531 21.972656 -28.199219 21.363281 -28.8125 C 20.753906 -29.421875 20.445312 -30.210938 20.445312 -31.183594 L 20.445312 -36.890625 C 20.445312 -37.121094 20.425781 -37.296875 20.386719 -37.421875 C 20.378906 -37.445312 20.371094 -37.460938 20.367188 -37.46875 C 20.371094 -37.460938 20.378906 -37.453125 20.386719 -37.441406 C 20.398438 -37.433594 20.40625 -37.425781 20.414062 -37.417969 C 20.40625 -37.425781 20.390625 -37.429688 20.367188 -37.4375 C 20.242188 -37.480469 20.066406 -37.5 19.839844 -37.5 L 15.382812 -37.5 C 15.15625 -37.5 14.976562 -37.480469 14.851562 -37.4375 C 14.832031 -37.429688 14.816406 -37.425781 14.804688 -37.417969 C 14.8125 -37.425781 14.824219 -37.433594 14.832031 -37.441406 C 14.84375 -37.453125 14.851562 -37.460938 14.855469 -37.46875 C 14.851562 -37.460938 14.84375 -37.445312 14.835938 -37.421875 C 14.796875 -37.296875 14.773438 -37.121094 14.773438 -36.890625 L 14.773438 -11.625 C 14.773438 -11.394531 14.796875 -11.21875 14.835938 -11.09375 C 14.84375 -11.070312 14.851562 -11.054688 14.855469 -11.046875 C 14.851562 -11.054688 14.84375 -11.0625 14.832031 -11.074219 C 14.824219 -11.085938 14.8125 -11.09375 14.804688 -11.097656 C 14.816406 -11.09375 14.832031 -11.085938 14.851562 -11.078125 C 14.976562 -11.035156 15.15625 -11.015625 15.382812 -11.015625 L 19.839844 -11.015625 C 20.066406 -11.015625 20.242188 -11.035156 20.367188 -11.078125 C 20.390625 -11.085938 20.40625 -11.09375 20.414062 -11.097656 C 20.40625 -11.09375 20.398438 -11.085938 20.386719 -11.074219 C 20.378906 -11.0625 20.371094 -11.054688 20.367188 -11.046875 C 20.371094 -11.054688 20.378906 -11.070312 20.386719 -11.09375 C 20.425781 -11.21875 20.445312 -11.394531 20.445312 -11.625 L 20.445312 -17.542969 C 20.445312 -18.511719 20.753906 -19.304688 21.363281 -19.914062 C 21.972656 -20.523438 22.765625 -20.832031 23.738281 -20.832031 L 30.28125 -20.832031 C 31.25 -20.832031 32.042969 -20.523438 32.652344 -19.914062 C 33.261719 -19.304688 33.570312 -18.511719 33.570312 -17.542969 L 33.570312 -10.023438 C 33.570312 -6.175781 32.496094 -3.179688 30.355469 -1.039062 C 28.214844 1.105469 25.21875 2.175781 21.371094 2.175781 L 13.574219 2.175781 C 9.730469 2.175781 6.726562 1.109375 4.5625 -1.027344 C 2.390625 -3.167969 1.304688 -6.167969 1.304688 -10.023438 L 1.304688 -38.703125 C 1.304688 -42.609375 2.394531 -45.625 4.574219 -47.742188 C 6.734375 -49.847656 9.734375 -50.902344 13.574219 -50.902344 L 21.371094 -50.902344 C 25.214844 -50.902344 28.203125 -49.84375 30.34375 -47.734375 C 32.496094 -45.613281 33.570312 -42.601562 33.570312 -38.703125 Z M 29.21875 -38.703125 C 29.21875 -41.390625 28.574219 -43.367188 27.289062 -44.636719 C 25.996094 -45.914062 24.023438 -46.550781 21.371094 -46.550781 L 13.574219 -46.550781 C 10.914062 -46.550781 8.925781 -45.910156 7.609375 -44.625 C 6.304688 -43.359375 5.65625 -41.382812 5.65625 -38.703125 L 5.65625 -10.023438 C 5.65625 -7.382812 6.308594 -5.414062 7.617188 -4.125 C 8.933594 -2.824219 10.921875 -2.175781 13.574219 -2.175781 L 21.371094 -2.175781 C 24.015625 -2.175781 25.988281 -2.820312 27.28125 -4.113281 C 28.570312 -5.40625 29.21875 -7.375 29.21875 -10.023438 L 29.21875 -17.542969 C 29.21875 -17.492188 29.230469 -17.425781 29.261719 -17.339844 C 29.320312 -17.15625 29.425781 -16.988281 29.578125 -16.839844 C 29.726562 -16.6875 29.894531 -16.582031 30.078125 -16.523438 C 30.164062 -16.492188 30.230469 -16.480469 30.28125 -16.480469 L 23.738281 -16.480469 C 23.785156 -16.480469 23.851562 -16.492188 23.9375 -16.523438 C 24.121094 -16.582031 24.289062 -16.6875 24.4375 -16.839844 C 24.589844 -16.988281 24.695312 -17.15625 24.757812 -17.339844 C 24.785156 -17.425781 24.796875 -17.492188 24.796875 -17.542969 L 24.796875 -11.625 C 24.796875 -10.097656 24.355469 -8.886719 23.464844 -8 C 22.574219 -7.109375 21.367188 -6.664062 19.839844 -6.664062 L 15.382812 -6.664062 C 13.855469 -6.664062 12.644531 -7.109375 11.757812 -8 C 10.867188 -8.886719 10.421875 -10.097656 10.421875 -11.625 L 10.421875 -36.890625 C 10.421875 -38.421875 10.867188 -39.628906 11.757812 -40.519531 C 12.644531 -41.40625 13.855469 -41.851562 15.382812 -41.851562 L 19.839844 -41.851562 C 21.367188 -41.851562 22.574219 -41.40625 23.464844 -40.519531 C 24.355469 -39.628906 24.796875 -38.421875 24.796875 -36.890625 L 24.796875 -31.183594 C 24.796875 -31.234375 24.785156 -31.300781 24.757812 -31.386719 C 24.695312 -31.570312 24.589844 -31.738281 24.4375 -31.886719 C 24.289062 -32.035156 24.121094 -32.140625 23.9375 -32.203125 C 23.851562 -32.230469 23.785156 -32.246094 23.738281 -32.246094 L 30.28125 -32.246094 C 30.230469 -32.246094 30.164062 -32.230469 30.078125 -32.203125 C 29.894531 -32.140625 29.726562 -32.035156 29.578125 -31.886719 C 29.425781 -31.738281 29.320312 -31.570312 29.261719 -31.386719 C 29.230469 -31.300781 29.21875 -31.234375 29.21875 -31.183594 Z M 29.21875 -38.703125 "/></g></g><g style="fill:#b21a22;fill-opacity:1;"><g transform="translate(260.828688, 214.849221)"><path style="stroke:none" d="M 33.273438 2.175781 L 25.894531 2.175781 C 25.113281 2.175781 24.410156 1.96875 23.785156 1.5625 C 23.203125 1.183594 22.734375 0.65625 22.375 -0.0195312 L 13.585938 -17.25 L 15.523438 -18.238281 L 17.453125 -17.230469 L 14.875 -12.289062 L 12.945312 -13.296875 L 15.121094 -13.296875 L 15.121094 -1.390625 C 15.121094 -0.328125 14.792969 0.535156 14.136719 1.191406 C 13.480469 1.847656 12.621094 2.175781 11.554688 2.175781 L 4.871094 2.175781 C 3.808594 2.175781 2.945312 1.847656 2.289062 1.191406 C 1.632812 0.535156 1.304688 -0.328125 1.304688 -1.390625 L 1.304688 -47.332031 C 1.304688 -48.398438 1.632812 -49.257812 2.289062 -49.914062 C 2.945312 -50.574219 3.808594 -50.902344 4.871094 -50.902344 L 11.554688 -50.902344 C 12.621094 -50.902344 13.480469 -50.574219 14.136719 -49.914062 C 14.792969 -49.257812 15.121094 -48.398438 15.121094 -47.332031 L 15.121094 -29.234375 L 12.945312 -29.234375 L 11.066406 -30.328125 L 21.785156 -48.773438 L 23.667969 -47.679688 L 21.746094 -48.707031 C 22.109375 -49.382812 22.578125 -49.910156 23.15625 -50.285156 C 23.785156 -50.695312 24.488281 -50.902344 25.269531 -50.902344 L 32.578125 -50.902344 C 33.144531 -50.902344 33.660156 -50.796875 34.125 -50.585938 C 34.695312 -50.328125 35.148438 -49.9375 35.484375 -49.414062 C 35.859375 -48.835938 36.015625 -48.199219 35.953125 -47.507812 C 35.90625 -46.976562 35.726562 -46.453125 35.417969 -45.9375 L 33.550781 -47.054688 L 35.441406 -45.980469 L 23.609375 -25.167969 L 21.71875 -26.242188 L 23.65625 -27.234375 L 36.253906 -2.589844 C 36.851562 -1.394531 36.847656 -0.300781 36.238281 0.6875 C 35.628906 1.679688 34.640625 2.175781 33.273438 2.175781 Z M 33.273438 -2.175781 C 33.292969 -2.175781 33.304688 -2.175781 33.308594 -2.175781 C 33.261719 -2.167969 33.207031 -2.152344 33.148438 -2.128906 C 32.894531 -2.023438 32.691406 -1.847656 32.535156 -1.59375 C 32.386719 -1.351562 32.320312 -1.101562 32.335938 -0.835938 C 32.34375 -0.730469 32.359375 -0.65625 32.378906 -0.609375 L 19.246094 -26.296875 L 31.671875 -48.152344 L 31.6875 -48.175781 C 31.652344 -48.121094 31.632812 -48.027344 31.617188 -47.890625 C 31.59375 -47.59375 31.660156 -47.316406 31.824219 -47.0625 C 31.953125 -46.863281 32.121094 -46.714844 32.332031 -46.621094 C 32.4375 -46.574219 32.519531 -46.550781 32.578125 -46.550781 L 25.269531 -46.550781 C 25.351562 -46.550781 25.441406 -46.582031 25.535156 -46.644531 C 25.570312 -46.667969 25.597656 -46.691406 25.621094 -46.714844 C 25.613281 -46.707031 25.601562 -46.6875 25.585938 -46.65625 L 25.566406 -46.621094 L 10.773438 -21.164062 L 10.773438 -47.332031 C 10.773438 -47.34375 10.773438 -47.351562 10.769531 -47.359375 C 10.769531 -47.355469 10.769531 -47.355469 10.773438 -47.351562 C 10.777344 -47.324219 10.785156 -47.292969 10.796875 -47.253906 C 10.847656 -47.105469 10.933594 -46.964844 11.0625 -46.839844 C 11.1875 -46.714844 11.324219 -46.625 11.476562 -46.574219 C 11.511719 -46.5625 11.546875 -46.554688 11.574219 -46.550781 C 11.578125 -46.550781 11.578125 -46.550781 11.578125 -46.550781 C 11.574219 -46.550781 11.566406 -46.550781 11.554688 -46.550781 L 4.871094 -46.550781 C 4.863281 -46.550781 4.855469 -46.550781 4.847656 -46.550781 C 4.847656 -46.550781 4.851562 -46.550781 4.855469 -46.550781 C 4.882812 -46.554688 4.914062 -46.5625 4.953125 -46.574219 C 5.101562 -46.625 5.242188 -46.714844 5.367188 -46.839844 C 5.492188 -46.964844 5.582031 -47.105469 5.632812 -47.253906 C 5.644531 -47.292969 5.652344 -47.324219 5.65625 -47.351562 C 5.65625 -47.355469 5.65625 -47.355469 5.65625 -47.359375 C 5.65625 -47.351562 5.65625 -47.34375 5.65625 -47.332031 L 5.65625 -1.390625 C 5.65625 -1.382812 5.65625 -1.375 5.65625 -1.367188 C 5.65625 -1.367188 5.65625 -1.371094 5.65625 -1.375 C 5.652344 -1.402344 5.644531 -1.433594 5.632812 -1.472656 C 5.582031 -1.621094 5.492188 -1.761719 5.367188 -1.886719 C 5.242188 -2.011719 5.101562 -2.101562 4.953125 -2.152344 C 4.914062 -2.164062 4.882812 -2.171875 4.855469 -2.175781 C 4.851562 -2.175781 4.847656 -2.175781 4.847656 -2.175781 C 4.855469 -2.175781 4.863281 -2.175781 4.871094 -2.175781 L 11.554688 -2.175781 C 11.566406 -2.175781 11.574219 -2.175781 11.578125 -2.175781 C 11.578125 -2.175781 11.578125 -2.175781 11.574219 -2.175781 C 11.546875 -2.171875 11.511719 -2.164062 11.476562 -2.152344 C 11.324219 -2.101562 11.1875 -2.011719 11.0625 -1.886719 C 10.933594 -1.761719 10.847656 -1.621094 10.796875 -1.472656 C 10.785156 -1.433594 10.777344 -1.402344 10.773438 -1.375 C 10.769531 -1.371094 10.769531 -1.367188 10.769531 -1.367188 C 10.773438 -1.375 10.773438 -1.382812 10.773438 -1.390625 L 10.773438 -13.828125 L 15.542969 -22.984375 L 26.210938 -2.066406 C 26.230469 -2.039062 26.238281 -2.019531 26.246094 -2.011719 C 26.226562 -2.035156 26.199219 -2.058594 26.160156 -2.082031 C 26.066406 -2.144531 25.976562 -2.175781 25.894531 -2.175781 Z M 33.273438 -2.175781 "/></g></g><g style="fill:#b21a22;fill-opacity:1;"><g transform="translate(111.966612, 311.894912)"><path style="stroke:none" d="M 13.503906 -50.902344 L 21.300781 -50.902344 C 25.195312 -50.902344 28.203125 -49.84375 30.320312 -47.722656 C 32.441406 -45.605469 33.5 -42.597656 33.5 -38.703125 L 33.5 -34.109375 C 33.5 -33.136719 33.195312 -32.34375 32.582031 -31.734375 C 31.972656 -31.125 31.183594 -30.820312 30.210938 -30.820312 L 23.179688 -30.820312 C 22.207031 -30.820312 21.417969 -31.125 20.804688 -31.734375 C 20.195312 -32.34375 19.890625 -33.136719 19.890625 -34.109375 L 19.890625 -37.03125 C 19.890625 -37.261719 19.871094 -37.4375 19.828125 -37.5625 C 19.820312 -37.585938 19.8125 -37.601562 19.808594 -37.609375 C 19.8125 -37.601562 19.820312 -37.59375 19.832031 -37.582031 C 19.839844 -37.570312 19.851562 -37.5625 19.859375 -37.558594 C 19.851562 -37.5625 19.835938 -37.570312 19.8125 -37.578125 C 19.6875 -37.621094 19.511719 -37.640625 19.28125 -37.640625 L 15.453125 -37.640625 C 15.222656 -37.640625 15.046875 -37.621094 14.921875 -37.578125 C 14.898438 -37.570312 14.882812 -37.5625 14.875 -37.558594 C 14.882812 -37.5625 14.894531 -37.570312 14.902344 -37.582031 C 14.914062 -37.59375 14.921875 -37.601562 14.925781 -37.609375 C 14.921875 -37.601562 14.914062 -37.585938 14.90625 -37.5625 C 14.863281 -37.4375 14.84375 -37.261719 14.84375 -37.03125 L 14.84375 -31.113281 L 12.667969 -31.113281 L 13.335938 -33.183594 L 30.179688 -27.757812 C 31.257812 -27.382812 32.082031 -26.792969 32.652344 -25.980469 C 33.214844 -25.175781 33.5 -24.21875 33.5 -23.109375 L 33.5 -10.023438 C 33.5 -6.179688 32.441406 -3.1875 30.332031 -1.046875 C 28.210938 1.101562 25.203125 2.175781 21.300781 2.175781 L 13.503906 2.175781 C 9.65625 2.175781 6.660156 1.105469 4.519531 -1.039062 C 2.375 -3.179688 1.304688 -6.175781 1.304688 -10.023438 L 1.304688 -14.546875 C 1.304688 -15.519531 1.609375 -16.3125 2.21875 -16.921875 C 2.832031 -17.53125 3.621094 -17.835938 4.59375 -17.835938 L 11.625 -17.835938 C 12.597656 -17.835938 13.386719 -17.53125 14 -16.921875 C 14.609375 -16.3125 14.914062 -15.519531 14.914062 -14.546875 L 14.914062 -11.625 C 14.914062 -11.394531 14.933594 -11.21875 14.976562 -11.09375 C 14.984375 -11.070312 14.988281 -11.054688 14.996094 -11.046875 C 14.992188 -11.054688 14.984375 -11.0625 14.972656 -11.074219 C 14.960938 -11.085938 14.953125 -11.09375 14.945312 -11.097656 C 14.953125 -11.09375 14.96875 -11.085938 14.992188 -11.078125 C 15.117188 -11.035156 15.292969 -11.015625 15.523438 -11.015625 L 19.28125 -11.015625 C 19.511719 -11.015625 19.6875 -11.035156 19.8125 -11.078125 C 19.835938 -11.085938 19.851562 -11.09375 19.859375 -11.097656 C 19.851562 -11.09375 19.839844 -11.085938 19.832031 -11.074219 C 19.820312 -11.0625 19.8125 -11.054688 19.808594 -11.046875 C 19.8125 -11.054688 19.820312 -11.070312 19.828125 -11.09375 C 19.871094 -11.21875 19.890625 -11.394531 19.890625 -11.625 L 19.890625 -18.65625 L 22.066406 -18.65625 L 21.394531 -16.585938 L 4.6875 -22.015625 C 3.609375 -22.375 2.78125 -22.957031 2.191406 -23.757812 C 1.601562 -24.570312 1.304688 -25.539062 1.304688 -26.660156 L 1.304688 -38.703125 C 1.304688 -42.601562 2.378906 -45.613281 4.527344 -47.734375 C 6.667969 -49.84375 9.660156 -50.902344 13.503906 -50.902344 Z M 13.503906 -46.550781 C 10.851562 -46.550781 8.878906 -45.914062 7.582031 -44.636719 C 6.296875 -43.367188 5.65625 -41.390625 5.65625 -38.703125 L 5.65625 -26.660156 C 5.65625 -26.484375 5.671875 -26.371094 5.707031 -26.324219 C 5.746094 -26.269531 5.855469 -26.210938 6.03125 -26.152344 L 24.242188 -20.234375 L 24.242188 -11.625 C 24.242188 -10.097656 23.796875 -8.886719 22.90625 -8 C 22.019531 -7.109375 20.808594 -6.664062 19.28125 -6.664062 L 15.523438 -6.664062 C 13.992188 -6.664062 12.785156 -7.109375 11.894531 -8 C 11.007812 -8.886719 10.5625 -10.097656 10.5625 -11.625 L 10.5625 -14.546875 C 10.5625 -14.5 10.578125 -14.429688 10.605469 -14.347656 C 10.667969 -14.160156 10.773438 -13.996094 10.921875 -13.84375 C 11.070312 -13.695312 11.238281 -13.589844 11.425781 -13.527344 C 11.507812 -13.5 11.574219 -13.488281 11.625 -13.488281 L 4.59375 -13.488281 C 4.644531 -13.488281 4.710938 -13.5 4.792969 -13.527344 C 4.980469 -13.589844 5.148438 -13.695312 5.296875 -13.84375 C 5.445312 -13.996094 5.550781 -14.160156 5.613281 -14.347656 C 5.640625 -14.429688 5.65625 -14.5 5.65625 -14.546875 L 5.65625 -10.023438 C 5.65625 -7.375 6.300781 -5.40625 7.59375 -4.113281 C 8.886719 -2.820312 10.855469 -2.175781 13.503906 -2.175781 L 21.300781 -2.175781 C 23.988281 -2.175781 25.964844 -2.816406 27.234375 -4.101562 C 28.511719 -5.398438 29.148438 -7.371094 29.148438 -10.023438 L 29.148438 -23.109375 C 29.148438 -23.300781 29.128906 -23.421875 29.089844 -23.476562 C 29.058594 -23.523438 28.976562 -23.570312 28.847656 -23.613281 L 10.492188 -29.53125 L 10.492188 -37.03125 C 10.492188 -38.558594 10.9375 -39.769531 11.828125 -40.65625 C 12.714844 -41.546875 13.925781 -41.992188 15.453125 -41.992188 L 19.28125 -41.992188 C 20.808594 -41.992188 22.019531 -41.546875 22.90625 -40.65625 C 23.796875 -39.769531 24.242188 -38.558594 24.242188 -37.03125 L 24.242188 -34.109375 C 24.242188 -34.15625 24.226562 -34.226562 24.199219 -34.308594 C 24.136719 -34.496094 24.03125 -34.660156 23.882812 -34.8125 C 23.734375 -34.960938 23.566406 -35.066406 23.378906 -35.128906 C 23.296875 -35.15625 23.230469 -35.167969 23.179688 -35.167969 L 30.210938 -35.167969 C 30.160156 -35.167969 30.09375 -35.15625 30.007812 -35.128906 C 29.824219 -35.066406 29.65625 -34.960938 29.507812 -34.8125 C 29.359375 -34.660156 29.253906 -34.496094 29.191406 -34.308594 C 29.164062 -34.226562 29.148438 -34.15625 29.148438 -34.109375 L 29.148438 -38.703125 C 29.148438 -41.394531 28.515625 -43.378906 27.246094 -44.648438 C 25.976562 -45.914062 23.996094 -46.550781 21.300781 -46.550781 Z M 13.503906 -46.550781 "/></g></g><g style="fill:#b21a22;fill-opacity:1;"><g transform="translate(146.759725, 311.894912)"><path style="stroke:none" d="M 23.527344 -50.902344 L 29.929688 -50.902344 C 30.902344 -50.902344 31.742188 -50.550781 32.445312 -49.847656 C 33.148438 -49.144531 33.5 -48.304688 33.5 -47.332031 L 33.5 -10.023438 C 33.5 -6.179688 32.441406 -3.1875 30.332031 -1.046875 C 28.210938 1.101562 25.203125 2.175781 21.300781 2.175781 L 13.503906 2.175781 C 9.65625 2.175781 6.660156 1.105469 4.519531 -1.039062 C 2.375 -3.179688 1.304688 -6.175781 1.304688 -10.023438 L 1.304688 -47.332031 C 1.304688 -48.304688 1.65625 -49.144531 2.359375 -49.847656 C 3.0625 -50.550781 3.902344 -50.902344 4.871094 -50.902344 L 11.554688 -50.902344 C 12.527344 -50.902344 13.363281 -50.550781 14.066406 -49.847656 C 14.769531 -49.144531 15.121094 -48.304688 15.121094 -47.332031 L 15.121094 -11.972656 C 15.121094 -11.742188 15.144531 -11.566406 15.183594 -11.441406 C 15.191406 -11.417969 15.199219 -11.402344 15.203125 -11.394531 C 15.199219 -11.402344 15.191406 -11.414062 15.179688 -11.421875 C 15.171875 -11.433594 15.160156 -11.441406 15.152344 -11.445312 C 15.164062 -11.441406 15.179688 -11.433594 15.203125 -11.425781 C 15.324219 -11.382812 15.503906 -11.363281 15.730469 -11.363281 L 19.351562 -11.363281 C 19.578125 -11.363281 19.757812 -11.382812 19.882812 -11.425781 C 19.902344 -11.433594 19.921875 -11.441406 19.929688 -11.445312 C 19.921875 -11.441406 19.910156 -11.433594 19.902344 -11.421875 C 19.890625 -11.414062 19.882812 -11.402344 19.878906 -11.394531 C 19.882812 -11.402344 19.890625 -11.417969 19.898438 -11.441406 C 19.9375 -11.566406 19.960938 -11.742188 19.960938 -11.972656 L 19.960938 -47.332031 C 19.960938 -48.304688 20.3125 -49.144531 21.015625 -49.847656 C 21.71875 -50.550781 22.554688 -50.902344 23.527344 -50.902344 Z M 23.527344 -46.550781 C 23.757812 -46.550781 23.945312 -46.625 24.089844 -46.769531 C 24.238281 -46.917969 24.3125 -47.105469 24.3125 -47.332031 L 24.3125 -11.972656 C 24.3125 -10.445312 23.867188 -9.234375 22.976562 -8.347656 C 22.089844 -7.457031 20.878906 -7.011719 19.351562 -7.011719 L 15.730469 -7.011719 C 14.203125 -7.011719 12.992188 -7.457031 12.105469 -8.347656 C 11.214844 -9.234375 10.773438 -10.445312 10.773438 -11.972656 L 10.773438 -47.332031 C 10.773438 -47.105469 10.84375 -46.917969 10.992188 -46.769531 C 11.136719 -46.625 11.324219 -46.550781 11.554688 -46.550781 L 4.871094 -46.550781 C 5.101562 -46.550781 5.289062 -46.625 5.4375 -46.769531 C 5.582031 -46.917969 5.65625 -47.105469 5.65625 -47.332031 L 5.65625 -10.023438 C 5.65625 -7.375 6.300781 -5.40625 7.59375 -4.113281 C 8.886719 -2.820312 10.855469 -2.175781 13.503906 -2.175781 L 21.300781 -2.175781 C 23.988281 -2.175781 25.964844 -2.816406 27.234375 -4.101562 C 28.511719 -5.398438 29.148438 -7.371094 29.148438 -10.023438 L 29.148438 -47.332031 C 29.148438 -47.105469 29.222656 -46.917969 29.367188 -46.769531 C 29.515625 -46.625 29.703125 -46.550781 29.929688 -46.550781 Z M 23.527344 -46.550781 "/></g></g><g style="fill:#b21a22;fill-opacity:1;"><g transform="translate(181.552837, 311.894912)"><path style="stroke:none" d="M 32.578125 -50.902344 L 41.765625 -50.902344 C 42.828125 -50.902344 43.691406 -50.574219 44.347656 -49.914062 C 45.003906 -49.257812 45.332031 -48.398438 45.332031 -47.332031 L 45.332031 -1.390625 C 45.332031 -0.328125 45.003906 0.535156 44.347656 1.191406 C 43.691406 1.847656 42.828125 2.175781 41.765625 2.175781 L 35.292969 2.175781 C 34.226562 2.175781 33.367188 1.847656 32.710938 1.191406 C 32.050781 0.535156 31.722656 -0.328125 31.722656 -1.390625 L 31.722656 -28.75 L 33.898438 -28.75 L 33.898438 -26.574219 L 33.410156 -26.574219 L 33.410156 -28.75 L 35.527344 -28.246094 L 28.972656 -0.625 L 28.957031 -0.570312 C 28.707031 0.277344 28.269531 0.941406 27.640625 1.425781 C 26.996094 1.925781 26.226562 2.175781 25.335938 2.175781 L 21.230469 2.175781 C 20.339844 2.175781 19.574219 1.925781 18.925781 1.425781 C 18.296875 0.941406 17.859375 0.277344 17.613281 -0.570312 L 17.597656 -0.625 L 11.039062 -28.246094 L 13.15625 -28.75 L 13.15625 -26.574219 L 12.667969 -26.574219 L 12.667969 -28.75 L 14.84375 -28.75 L 14.84375 -1.390625 C 14.84375 -0.328125 14.515625 0.535156 13.859375 1.191406 C 13.203125 1.847656 12.339844 2.175781 11.277344 2.175781 L 4.871094 2.175781 C 3.808594 2.175781 2.945312 1.847656 2.289062 1.191406 C 1.632812 0.535156 1.304688 -0.328125 1.304688 -1.390625 L 1.304688 -47.332031 C 1.304688 -48.398438 1.632812 -49.257812 2.289062 -49.914062 C 2.945312 -50.574219 3.808594 -50.902344 4.871094 -50.902344 L 14.0625 -50.902344 C 14.949219 -50.902344 15.71875 -50.652344 16.367188 -50.152344 C 16.992188 -49.667969 17.429688 -49 17.679688 -48.15625 L 17.691406 -48.113281 L 25.429688 -17.023438 L 23.320312 -16.496094 L 21.207031 -17.023438 L 28.945312 -48.113281 L 28.957031 -48.15625 C 29.207031 -49 29.644531 -49.667969 30.273438 -50.152344 C 30.917969 -50.652344 31.6875 -50.902344 32.578125 -50.902344 Z M 32.578125 -46.550781 C 32.675781 -46.550781 32.796875 -46.601562 32.933594 -46.707031 C 33.007812 -46.769531 33.070312 -46.832031 33.113281 -46.902344 C 33.125 -46.921875 33.132812 -46.9375 33.140625 -46.949219 C 33.136719 -46.945312 33.136719 -46.941406 33.132812 -46.929688 L 31.046875 -47.542969 L 33.15625 -47.015625 L 25.429688 -15.972656 L 21.207031 -15.972656 L 13.480469 -47.015625 L 15.59375 -47.542969 L 13.503906 -46.929688 C 13.503906 -46.941406 13.5 -46.945312 13.5 -46.949219 C 13.503906 -46.9375 13.511719 -46.921875 13.523438 -46.902344 C 13.566406 -46.832031 13.628906 -46.769531 13.707031 -46.707031 C 13.839844 -46.601562 13.960938 -46.550781 14.0625 -46.550781 L 4.871094 -46.550781 C 4.863281 -46.550781 4.855469 -46.550781 4.847656 -46.550781 C 4.847656 -46.550781 4.851562 -46.550781 4.855469 -46.550781 C 4.882812 -46.554688 4.914062 -46.5625 4.953125 -46.574219 C 5.101562 -46.625 5.242188 -46.714844 5.367188 -46.839844 C 5.492188 -46.964844 5.582031 -47.105469 5.632812 -47.253906 C 5.644531 -47.292969 5.652344 -47.324219 5.65625 -47.351562 C 5.65625 -47.355469 5.65625 -47.355469 5.65625 -47.359375 C 5.65625 -47.351562 5.65625 -47.34375 5.65625 -47.332031 L 5.65625 -1.390625 C 5.65625 -1.382812 5.65625 -1.375 5.65625 -1.367188 C 5.65625 -1.367188 5.65625 -1.371094 5.65625 -1.375 C 5.652344 -1.402344 5.644531 -1.433594 5.632812 -1.472656 C 5.582031 -1.621094 5.492188 -1.761719 5.367188 -1.886719 C 5.242188 -2.011719 5.101562 -2.101562 4.953125 -2.152344 C 4.914062 -2.164062 4.882812 -2.171875 4.855469 -2.175781 C 4.851562 -2.175781 4.847656 -2.175781 4.847656 -2.175781 C 4.855469 -2.175781 4.863281 -2.175781 4.871094 -2.175781 L 11.277344 -2.175781 C 11.285156 -2.175781 11.292969 -2.175781 11.300781 -2.175781 C 11.300781 -2.175781 11.296875 -2.175781 11.296875 -2.175781 C 11.265625 -2.171875 11.234375 -2.164062 11.199219 -2.152344 C 11.046875 -2.101562 10.910156 -2.011719 10.78125 -1.886719 C 10.65625 -1.761719 10.566406 -1.621094 10.519531 -1.472656 C 10.503906 -1.433594 10.496094 -1.402344 10.492188 -1.375 C 10.492188 -1.371094 10.492188 -1.367188 10.492188 -1.367188 C 10.492188 -1.375 10.492188 -1.382812 10.492188 -1.390625 L 10.492188 -30.921875 L 14.875 -30.921875 L 21.816406 -1.6875 L 19.699219 -1.183594 L 21.785156 -1.796875 C 21.789062 -1.785156 21.792969 -1.78125 21.792969 -1.777344 C 21.789062 -1.789062 21.777344 -1.804688 21.769531 -1.820312 C 21.722656 -1.894531 21.664062 -1.957031 21.585938 -2.015625 C 21.449219 -2.121094 21.332031 -2.175781 21.230469 -2.175781 L 25.335938 -2.175781 C 25.238281 -2.175781 25.117188 -2.121094 24.980469 -2.015625 C 24.90625 -1.957031 24.84375 -1.894531 24.800781 -1.820312 C 24.789062 -1.804688 24.78125 -1.789062 24.773438 -1.777344 C 24.777344 -1.78125 24.777344 -1.785156 24.78125 -1.796875 L 26.867188 -1.183594 L 24.753906 -1.6875 L 31.691406 -30.921875 L 36.074219 -30.921875 L 36.074219 -1.390625 C 36.074219 -1.382812 36.074219 -1.375 36.074219 -1.367188 C 36.074219 -1.367188 36.074219 -1.371094 36.074219 -1.375 C 36.070312 -1.402344 36.0625 -1.433594 36.050781 -1.472656 C 36 -1.621094 35.910156 -1.761719 35.785156 -1.886719 C 35.660156 -2.011719 35.519531 -2.101562 35.371094 -2.152344 C 35.332031 -2.164062 35.300781 -2.171875 35.273438 -2.175781 C 35.269531 -2.175781 35.269531 -2.175781 35.265625 -2.175781 C 35.273438 -2.175781 35.28125 -2.175781 35.292969 -2.175781 L 41.765625 -2.175781 C 41.773438 -2.175781 41.78125 -2.175781 41.789062 -2.175781 C 41.789062 -2.175781 41.785156 -2.175781 41.785156 -2.175781 C 41.753906 -2.171875 41.722656 -2.164062 41.6875 -2.152344 C 41.535156 -2.101562 41.398438 -2.011719 41.269531 -1.886719 C 41.144531 -1.761719 41.054688 -1.621094 41.007812 -1.472656 C 40.992188 -1.433594 40.984375 -1.402344 40.980469 -1.375 C 40.980469 -1.371094 40.980469 -1.367188 40.980469 -1.367188 C 40.980469 -1.375 40.980469 -1.382812 40.980469 -1.390625 L 40.980469 -47.332031 C 40.980469 -47.34375 40.980469 -47.351562 40.980469 -47.359375 C 40.980469 -47.355469 40.980469 -47.355469 40.980469 -47.351562 C 40.984375 -47.324219 40.992188 -47.292969 41.007812 -47.253906 C 41.054688 -47.105469 41.144531 -46.964844 41.269531 -46.839844 C 41.398438 -46.714844 41.535156 -46.625 41.6875 -46.574219 C 41.722656 -46.5625 41.753906 -46.554688 41.785156 -46.550781 C 41.785156 -46.550781 41.789062 -46.550781 41.789062 -46.550781 C 41.78125 -46.550781 41.773438 -46.550781 41.765625 -46.550781 Z M 32.578125 -46.550781 "/></g></g><g style="fill:#b21a22;fill-opacity:1;"><g transform="translate(228.1756, 311.894912)"><path style="stroke:none" d="M 13.503906 -50.902344 L 21.300781 -50.902344 C 25.195312 -50.902344 28.203125 -49.84375 30.320312 -47.722656 C 32.441406 -45.605469 33.5 -42.597656 33.5 -38.703125 L 33.5 -34.109375 C 33.5 -33.136719 33.195312 -32.34375 32.582031 -31.734375 C 31.972656 -31.125 31.183594 -30.820312 30.210938 -30.820312 L 23.179688 -30.820312 C 22.207031 -30.820312 21.417969 -31.125 20.804688 -31.734375 C 20.195312 -32.34375 19.890625 -33.136719 19.890625 -34.109375 L 19.890625 -37.03125 C 19.890625 -37.261719 19.871094 -37.4375 19.828125 -37.5625 C 19.820312 -37.585938 19.8125 -37.601562 19.808594 -37.609375 C 19.8125 -37.601562 19.820312 -37.59375 19.832031 -37.582031 C 19.839844 -37.570312 19.851562 -37.5625 19.859375 -37.558594 C 19.851562 -37.5625 19.835938 -37.570312 19.8125 -37.578125 C 19.6875 -37.621094 19.511719 -37.640625 19.28125 -37.640625 L 15.453125 -37.640625 C 15.222656 -37.640625 15.046875 -37.621094 14.921875 -37.578125 C 14.898438 -37.570312 14.882812 -37.5625 14.875 -37.558594 C 14.882812 -37.5625 14.894531 -37.570312 14.902344 -37.582031 C 14.914062 -37.59375 14.921875 -37.601562 14.925781 -37.609375 C 14.921875 -37.601562 14.914062 -37.585938 14.90625 -37.5625 C 14.863281 -37.4375 14.84375 -37.261719 14.84375 -37.03125 L 14.84375 -31.113281 L 12.667969 -31.113281 L 13.335938 -33.183594 L 30.179688 -27.757812 C 31.257812 -27.382812 32.082031 -26.792969 32.652344 -25.980469 C 33.214844 -25.175781 33.5 -24.21875 33.5 -23.109375 L 33.5 -10.023438 C 33.5 -6.179688 32.441406 -3.1875 30.332031 -1.046875 C 28.210938 1.101562 25.203125 2.175781 21.300781 2.175781 L 13.503906 2.175781 C 9.65625 2.175781 6.660156 1.105469 4.519531 -1.039062 C 2.375 -3.179688 1.304688 -6.175781 1.304688 -10.023438 L 1.304688 -14.546875 C 1.304688 -15.519531 1.609375 -16.3125 2.21875 -16.921875 C 2.832031 -17.53125 3.621094 -17.835938 4.59375 -17.835938 L 11.625 -17.835938 C 12.597656 -17.835938 13.386719 -17.53125 14 -16.921875 C 14.609375 -16.3125 14.914062 -15.519531 14.914062 -14.546875 L 14.914062 -11.625 C 14.914062 -11.394531 14.933594 -11.21875 14.976562 -11.09375 C 14.984375 -11.070312 14.988281 -11.054688 14.996094 -11.046875 C 14.992188 -11.054688 14.984375 -11.0625 14.972656 -11.074219 C 14.960938 -11.085938 14.953125 -11.09375 14.945312 -11.097656 C 14.953125 -11.09375 14.96875 -11.085938 14.992188 -11.078125 C 15.117188 -11.035156 15.292969 -11.015625 15.523438 -11.015625 L 19.28125 -11.015625 C 19.511719 -11.015625 19.6875 -11.035156 19.8125 -11.078125 C 19.835938 -11.085938 19.851562 -11.09375 19.859375 -11.097656 C 19.851562 -11.09375 19.839844 -11.085938 19.832031 -11.074219 C 19.820312 -11.0625 19.8125 -11.054688 19.808594 -11.046875 C 19.8125 -11.054688 19.820312 -11.070312 19.828125 -11.09375 C 19.871094 -11.21875 19.890625 -11.394531 19.890625 -11.625 L 19.890625 -18.65625 L 22.066406 -18.65625 L 21.394531 -16.585938 L 4.6875 -22.015625 C 3.609375 -22.375 2.78125 -22.957031 2.191406 -23.757812 C 1.601562 -24.570312 1.304688 -25.539062 1.304688 -26.660156 L 1.304688 -38.703125 C 1.304688 -42.601562 2.378906 -45.613281 4.527344 -47.734375 C 6.667969 -49.84375 9.660156 -50.902344 13.503906 -50.902344 Z M 13.503906 -46.550781 C 10.851562 -46.550781 8.878906 -45.914062 7.582031 -44.636719 C 6.296875 -43.367188 5.65625 -41.390625 5.65625 -38.703125 L 5.65625 -26.660156 C 5.65625 -26.484375 5.671875 -26.371094 5.707031 -26.324219 C 5.746094 -26.269531 5.855469 -26.210938 6.03125 -26.152344 L 24.242188 -20.234375 L 24.242188 -11.625 C 24.242188 -10.097656 23.796875 -8.886719 22.90625 -8 C 22.019531 -7.109375 20.808594 -6.664062 19.28125 -6.664062 L 15.523438 -6.664062 C 13.992188 -6.664062 12.785156 -7.109375 11.894531 -8 C 11.007812 -8.886719 10.5625 -10.097656 10.5625 -11.625 L 10.5625 -14.546875 C 10.5625 -14.5 10.578125 -14.429688 10.605469 -14.347656 C 10.667969 -14.160156 10.773438 -13.996094 10.921875 -13.84375 C 11.070312 -13.695312 11.238281 -13.589844 11.425781 -13.527344 C 11.507812 -13.5 11.574219 -13.488281 11.625 -13.488281 L 4.59375 -13.488281 C 4.644531 -13.488281 4.710938 -13.5 4.792969 -13.527344 C 4.980469 -13.589844 5.148438 -13.695312 5.296875 -13.84375 C 5.445312 -13.996094 5.550781 -14.160156 5.613281 -14.347656 C 5.640625 -14.429688 5.65625 -14.5 5.65625 -14.546875 L 5.65625 -10.023438 C 5.65625 -7.375 6.300781 -5.40625 7.59375 -4.113281 C 8.886719 -2.820312 10.855469 -2.175781 13.503906 -2.175781 L 21.300781 -2.175781 C 23.988281 -2.175781 25.964844 -2.816406 27.234375 -4.101562 C 28.511719 -5.398438 29.148438 -7.371094 29.148438 -10.023438 L 29.148438 -23.109375 C 29.148438 -23.300781 29.128906 -23.421875 29.089844 -23.476562 C 29.058594 -23.523438 28.976562 -23.570312 28.847656 -23.613281 L 10.492188 -29.53125 L 10.492188 -37.03125 C 10.492188 -38.558594 10.9375 -39.769531 11.828125 -40.65625 C 12.714844 -41.546875 13.925781 -41.992188 15.453125 -41.992188 L 19.28125 -41.992188 C 20.808594 -41.992188 22.019531 -41.546875 22.90625 -40.65625 C 23.796875 -39.769531 24.242188 -38.558594 24.242188 -37.03125 L 24.242188 -34.109375 C 24.242188 -34.15625 24.226562 -34.226562 24.199219 -34.308594 C 24.136719 -34.496094 24.03125 -34.660156 23.882812 -34.8125 C 23.734375 -34.960938 23.566406 -35.066406 23.378906 -35.128906 C 23.296875 -35.15625 23.230469 -35.167969 23.179688 -35.167969 L 30.210938 -35.167969 C 30.160156 -35.167969 30.09375 -35.15625 30.007812 -35.128906 C 29.824219 -35.066406 29.65625 -34.960938 29.507812 -34.8125 C 29.359375 -34.660156 29.253906 -34.496094 29.191406 -34.308594 C 29.164062 -34.226562 29.148438 -34.15625 29.148438 -34.109375 L 29.148438 -38.703125 C 29.148438 -41.394531 28.515625 -43.378906 27.246094 -44.648438 C 25.976562 -45.914062 23.996094 -46.550781 21.300781 -46.550781 Z M 13.503906 -46.550781 "/></g></g><g style="fill:#060705;fill-opacity:1;"><g transform="translate(100.993832, 117.80353)"><path style="stroke:none" d="M 13.5 -48.734375 L 21.296875 -48.734375 C 24.597656 -48.734375 27.09375 -47.882812 28.78125 -46.1875 C 30.476562 -44.488281 31.328125 -41.992188 31.328125 -38.703125 L 31.328125 -34.109375 C 31.328125 -33.367188 30.953125 -33 30.203125 -33 L 23.1875 -33 C 22.4375 -33 22.0625 -33.367188 22.0625 -34.109375 L 22.0625 -37.03125 C 22.0625 -38.882812 21.132812 -39.8125 19.28125 -39.8125 L 15.453125 -39.8125 C 13.597656 -39.8125 12.671875 -38.882812 12.671875 -37.03125 L 12.671875 -31.109375 L 29.515625 -25.6875 C 30.722656 -25.269531 31.328125 -24.410156 31.328125 -23.109375 L 31.328125 -10.03125 C 31.328125 -6.78125 30.476562 -4.296875 28.78125 -2.578125 C 27.09375 -0.859375 24.597656 0 21.296875 0 L 13.5 0 C 10.25 0 7.765625 -0.859375 6.046875 -2.578125 C 4.335938 -4.296875 3.484375 -6.78125 3.484375 -10.03125 L 3.484375 -14.546875 C 3.484375 -15.285156 3.851562 -15.65625 4.59375 -15.65625 L 11.625 -15.65625 C 12.363281 -15.65625 12.734375 -15.285156 12.734375 -14.546875 L 12.734375 -11.625 C 12.734375 -9.769531 13.660156 -8.84375 15.515625 -8.84375 L 19.28125 -8.84375 C 21.132812 -8.84375 22.0625 -9.769531 22.0625 -11.625 L 22.0625 -18.65625 L 5.359375 -24.078125 C 4.109375 -24.503906 3.484375 -25.363281 3.484375 -26.65625 L 3.484375 -38.703125 C 3.484375 -41.992188 4.335938 -44.488281 6.046875 -46.1875 C 7.765625 -47.882812 10.25 -48.734375 13.5 -48.734375 Z M 13.5 -48.734375 "/></g></g><g style="fill:#060705;fill-opacity:1;"><g transform="translate(135.786945, 117.80353)"><path style="stroke:none" d="M 28.8125 -48.734375 L 3.203125 -48.734375 C 2.460938 -48.734375 2.09375 -48.359375 2.09375 -47.609375 L 2.09375 -40.65625 C 2.09375 -39.90625 2.460938 -39.53125 3.203125 -39.53125 L 11.28125 -39.53125 L 11.28125 -1.109375 C 11.28125 -0.367188 11.648438 0 12.390625 0 L 19.625 0 C 20.375 0 20.75 -0.367188 20.75 -1.109375 L 20.75 -39.53125 L 28.8125 -39.53125 C 29.5625 -39.53125 29.9375 -39.90625 29.9375 -40.65625 L 29.9375 -47.609375 C 29.9375 -48.359375 29.5625 -48.734375 28.8125 -48.734375 Z M 28.8125 -48.734375 "/></g></g><g style="fill:#060705;fill-opacity:1;"><g transform="translate(167.796612, 117.80353)"><path style="stroke:none" d="M 3.484375 -10.03125 L 3.484375 -38.703125 C 3.484375 -41.992188 4.335938 -44.488281 6.046875 -46.1875 C 7.765625 -47.882812 10.25 -48.734375 13.5 -48.734375 L 21.296875 -48.734375 C 24.597656 -48.734375 27.09375 -47.882812 28.78125 -46.1875 C 30.476562 -44.488281 31.328125 -41.992188 31.328125 -38.703125 L 31.328125 -10.03125 C 31.328125 -6.78125 30.476562 -4.296875 28.78125 -2.578125 C 27.09375 -0.859375 24.597656 0 21.296875 0 L 13.5 0 C 10.25 0 7.765625 -0.859375 6.046875 -2.578125 C 4.335938 -4.296875 3.484375 -6.78125 3.484375 -10.03125 Z M 15.3125 -8.984375 L 19.765625 -8.984375 C 21.617188 -8.984375 22.546875 -9.910156 22.546875 -11.765625 L 22.546875 -36.96875 C 22.546875 -38.820312 21.617188 -39.75 19.765625 -39.75 L 15.3125 -39.75 C 13.457031 -39.75 12.53125 -38.820312 12.53125 -36.96875 L 12.53125 -11.765625 C 12.53125 -9.910156 13.457031 -8.984375 15.3125 -8.984375 Z M 15.3125 -8.984375 "/></g></g><g style="fill:#060705;fill-opacity:1;"><g transform="translate(202.589724, 117.80353)"><path style="stroke:none" d="M 25.546875 -48.734375 L 32.09375 -48.734375 C 32.832031 -48.734375 33.203125 -48.359375 33.203125 -47.609375 L 33.203125 -1.109375 C 33.203125 -0.367188 32.832031 0 32.09375 0 L 26.59375 0 C 26.03125 0 25.613281 -0.300781 25.34375 -0.90625 L 12.25 -27.5 L 12.25 -1.109375 C 12.25 -0.367188 11.878906 0 11.140625 0 L 4.59375 0 C 3.851562 0 3.484375 -0.367188 3.484375 -1.109375 L 3.484375 -47.609375 C 3.484375 -48.359375 3.851562 -48.734375 4.59375 -48.734375 L 10.09375 -48.734375 C 10.644531 -48.734375 11.0625 -48.429688 11.34375 -47.828125 L 24.4375 -21.234375 L 24.4375 -47.609375 C 24.4375 -48.359375 24.804688 -48.734375 25.546875 -48.734375 Z M 25.546875 -48.734375 "/></g></g><g style="fill:#060705;fill-opacity:1;"><g transform="translate(239.261677, 117.80353)"><path style="stroke:none" d="M 31.25 -47.609375 L 31.25 -40.65625 C 31.25 -39.863281 30.878906 -39.46875 30.140625 -39.46875 L 12.953125 -39.46875 L 12.953125 -28.75 L 26.03125 -28.75 C 26.769531 -28.75 27.140625 -28.351562 27.140625 -27.5625 L 27.140625 -20.671875 C 27.140625 -19.878906 26.769531 -19.484375 26.03125 -19.484375 L 12.953125 -19.484375 L 12.953125 -9.1875 L 30.140625 -9.1875 C 30.878906 -9.1875 31.25 -8.816406 31.25 -8.078125 L 31.25 -1.109375 C 31.25 -0.367188 30.878906 0 30.140625 0 L 4.53125 0 C 3.832031 0 3.484375 -0.367188 3.484375 -1.109375 L 3.484375 -47.609375 C 3.484375 -48.359375 3.832031 -48.734375 4.53125 -48.734375 L 30.140625 -48.734375 C 30.878906 -48.734375 31.25 -48.359375 31.25 -47.609375 Z M 31.25 -47.609375 "/></g></g><g style="fill:#060705;fill-opacity:1;"><g transform="translate(76.842689, 214.849221)"><path style="stroke:none" d="M 0 9.328125 L 0 2.921875 C 0 1.992188 0.460938 1.53125 1.390625 1.53125 L 43.359375 1.53125 C 44.296875 1.53125 44.765625 1.992188 44.765625 2.921875 L 44.765625 9.328125 C 44.765625 10.253906 44.296875 10.71875 43.359375 10.71875 L 1.390625 10.71875 C 0.460938 10.71875 0 10.253906 0 9.328125 Z M 0 9.328125 "/></g></g><g style="fill:#060705;fill-opacity:1;"><g transform="translate(121.58664, 214.849221)"><path style="stroke:none" d="M 31.390625 -38.703125 L 31.390625 -31.1875 C 31.390625 -30.445312 31.019531 -30.078125 30.28125 -30.078125 L 23.734375 -30.078125 C 22.992188 -30.078125 22.625 -30.445312 22.625 -31.1875 L 22.625 -36.890625 C 22.625 -38.742188 21.695312 -39.671875 19.84375 -39.671875 L 15.390625 -39.671875 C 13.523438 -39.671875 12.59375 -38.742188 12.59375 -36.890625 L 12.59375 -11.625 C 12.59375 -9.769531 13.523438 -8.84375 15.390625 -8.84375 L 19.84375 -8.84375 C 21.695312 -8.84375 22.625 -9.769531 22.625 -11.625 L 22.625 -17.546875 C 22.625 -18.285156 22.992188 -18.65625 23.734375 -18.65625 L 30.28125 -18.65625 C 31.019531 -18.65625 31.390625 -18.285156 31.390625 -17.546875 L 31.390625 -10.03125 C 31.390625 -6.78125 30.53125 -4.296875 28.8125 -2.578125 C 27.101562 -0.859375 24.625 0 21.375 0 L 13.578125 0 C 10.328125 0 7.832031 -0.859375 6.09375 -2.578125 C 4.351562 -4.296875 3.484375 -6.78125 3.484375 -10.03125 L 3.484375 -38.703125 C 3.484375 -41.992188 4.351562 -44.488281 6.09375 -46.1875 C 7.832031 -47.882812 10.328125 -48.734375 13.578125 -48.734375 L 21.375 -48.734375 C 24.625 -48.734375 27.101562 -47.882812 28.8125 -46.1875 C 30.53125 -44.488281 31.390625 -41.992188 31.390625 -38.703125 Z M 31.390625 -38.703125 "/></g></g><g style="fill:#060705;fill-opacity:1;"><g transform="translate(156.44935, 214.849221)"><path style="stroke:none" d="M 21.859375 -28.8125 L 21.859375 -47.609375 C 21.859375 -48.359375 22.226562 -48.734375 22.96875 -48.734375 L 30.140625 -48.734375 C 30.929688 -48.734375 31.328125 -48.359375 31.328125 -47.609375 L 31.328125 -1.109375 C 31.328125 -0.367188 30.929688 0 30.140625 0 L 22.96875 0 C 22.226562 0 21.859375 -0.367188 21.859375 -1.109375 L 21.859375 -19.625 L 12.953125 -19.625 L 12.953125 -1.109375 C 12.953125 -0.367188 12.578125 0 11.828125 0 L 4.65625 0 C 3.875 0 3.484375 -0.367188 3.484375 -1.109375 L 3.484375 -47.609375 C 3.484375 -48.359375 3.875 -48.734375 4.65625 -48.734375 L 11.828125 -48.734375 C 12.578125 -48.734375 12.953125 -48.359375 12.953125 -47.609375 L 12.953125 -28.8125 Z M 21.859375 -28.8125 "/></g></g><g style="fill:#060705;fill-opacity:1;"><g transform="translate(191.242463, 214.849221)"><path style="stroke:none" d="M 31.25 -47.609375 L 31.25 -40.65625 C 31.25 -39.863281 30.878906 -39.46875 30.140625 -39.46875 L 12.953125 -39.46875 L 12.953125 -28.75 L 26.03125 -28.75 C 26.769531 -28.75 27.140625 -28.351562 27.140625 -27.5625 L 27.140625 -20.671875 C 27.140625 -19.878906 26.769531 -19.484375 26.03125 -19.484375 L 12.953125 -19.484375 L 12.953125 -9.1875 L 30.140625 -9.1875 C 30.878906 -9.1875 31.25 -8.816406 31.25 -8.078125 L 31.25 -1.109375 C 31.25 -0.367188 30.878906 0 30.140625 0 L 4.53125 0 C 3.832031 0 3.484375 -0.367188 3.484375 -1.109375 L 3.484375 -47.609375 C 3.484375 -48.359375 3.832031 -48.734375 4.53125 -48.734375 L 30.140625 -48.734375 C 30.878906 -48.734375 31.25 -48.359375 31.25 -47.609375 Z M 31.25 -47.609375 "/></g></g><g style="fill:#060705;fill-opacity:1;"><g transform="translate(225.965978, 214.849221)"><path style="stroke:none" d="M 31.390625 -38.703125 L 31.390625 -31.1875 C 31.390625 -30.445312 31.019531 -30.078125 30.28125 -30.078125 L 23.734375 -30.078125 C 22.992188 -30.078125 22.625 -30.445312 22.625 -31.1875 L 22.625 -36.890625 C 22.625 -38.742188 21.695312 -39.671875 19.84375 -39.671875 L 15.390625 -39.671875 C 13.523438 -39.671875 12.59375 -38.742188 12.59375 -36.890625 L 12.59375 -11.625 C 12.59375 -9.769531 13.523438 -8.84375 15.390625 -8.84375 L 19.84375 -8.84375 C 21.695312 -8.84375 22.625 -9.769531 22.625 -11.625 L 22.625 -17.546875 C 22.625 -18.285156 22.992188 -18.65625 23.734375 -18.65625 L 30.28125 -18.65625 C 31.019531 -18.65625 31.390625 -18.285156 31.390625 -17.546875 L 31.390625 -10.03125 C 31.390625 -6.78125 30.53125 -4.296875 28.8125 -2.578125 C 27.101562 -0.859375 24.625 0 21.375 0 L 13.578125 0 C 10.328125 0 7.832031 -0.859375 6.09375 -2.578125 C 4.351562 -4.296875 3.484375 -6.78125 3.484375 -10.03125 L 3.484375 -38.703125 C 3.484375 -41.992188 4.351562 -44.488281 6.09375 -46.1875 C 7.832031 -47.882812 10.328125 -48.734375 13.578125 -48.734375 L 21.375 -48.734375 C 24.625 -48.734375 27.101562 -47.882812 28.8125 -46.1875 C 30.53125 -44.488281 31.390625 -41.992188 31.390625 -38.703125 Z M 31.390625 -38.703125 "/></g></g><g style="fill:#060705;fill-opacity:1;"><g transform="translate(260.828688, 214.849221)"><path style="stroke:none" d="M 33.265625 0 L 25.890625 0 C 25.191406 0 24.660156 -0.347656 24.296875 -1.046875 L 15.515625 -18.234375 L 12.953125 -13.296875 L 12.953125 -1.390625 C 12.953125 -0.460938 12.488281 0 11.5625 0 L 4.875 0 C 3.945312 0 3.484375 -0.460938 3.484375 -1.390625 L 3.484375 -47.328125 C 3.484375 -48.265625 3.945312 -48.734375 4.875 -48.734375 L 11.5625 -48.734375 C 12.488281 -48.734375 12.953125 -48.265625 12.953125 -47.328125 L 12.953125 -29.234375 L 23.671875 -47.6875 C 24.035156 -48.382812 24.566406 -48.734375 25.265625 -48.734375 L 32.578125 -48.734375 C 33.085938 -48.734375 33.445312 -48.566406 33.65625 -48.234375 C 33.863281 -47.910156 33.828125 -47.519531 33.546875 -47.0625 L 21.71875 -26.25 L 34.3125 -1.59375 C 34.550781 -1.132812 34.578125 -0.753906 34.390625 -0.453125 C 34.203125 -0.148438 33.828125 0 33.265625 0 Z M 33.265625 0 "/></g></g><g style="fill:#060705;fill-opacity:1;"><g transform="translate(111.966612, 311.894912)"><path style="stroke:none" d="M 13.5 -48.734375 L 21.296875 -48.734375 C 24.597656 -48.734375 27.09375 -47.882812 28.78125 -46.1875 C 30.476562 -44.488281 31.328125 -41.992188 31.328125 -38.703125 L 31.328125 -34.109375 C 31.328125 -33.367188 30.953125 -33 30.203125 -33 L 23.1875 -33 C 22.4375 -33 22.0625 -33.367188 22.0625 -34.109375 L 22.0625 -37.03125 C 22.0625 -38.882812 21.132812 -39.8125 19.28125 -39.8125 L 15.453125 -39.8125 C 13.597656 -39.8125 12.671875 -38.882812 12.671875 -37.03125 L 12.671875 -31.109375 L 29.515625 -25.6875 C 30.722656 -25.269531 31.328125 -24.410156 31.328125 -23.109375 L 31.328125 -10.03125 C 31.328125 -6.78125 30.476562 -4.296875 28.78125 -2.578125 C 27.09375 -0.859375 24.597656 0 21.296875 0 L 13.5 0 C 10.25 0 7.765625 -0.859375 6.046875 -2.578125 C 4.335938 -4.296875 3.484375 -6.78125 3.484375 -10.03125 L 3.484375 -14.546875 C 3.484375 -15.285156 3.851562 -15.65625 4.59375 -15.65625 L 11.625 -15.65625 C 12.363281 -15.65625 12.734375 -15.285156 12.734375 -14.546875 L 12.734375 -11.625 C 12.734375 -9.769531 13.660156 -8.84375 15.515625 -8.84375 L 19.28125 -8.84375 C 21.132812 -8.84375 22.0625 -9.769531 22.0625 -11.625 L 22.0625 -18.65625 L 5.359375 -24.078125 C 4.109375 -24.503906 3.484375 -25.363281 3.484375 -26.65625 L 3.484375 -38.703125 C 3.484375 -41.992188 4.335938 -44.488281 6.046875 -46.1875 C 7.765625 -47.882812 10.25 -48.734375 13.5 -48.734375 Z M 13.5 -48.734375 "/></g></g><g style="fill:#060705;fill-opacity:1;"><g transform="translate(146.759725, 311.894912)"><path style="stroke:none" d="M 23.53125 -48.734375 L 29.9375 -48.734375 C 30.300781 -48.734375 30.625 -48.59375 30.90625 -48.3125 C 31.1875 -48.03125 31.328125 -47.703125 31.328125 -47.328125 L 31.328125 -10.03125 C 31.328125 -6.78125 30.476562 -4.296875 28.78125 -2.578125 C 27.09375 -0.859375 24.597656 0 21.296875 0 L 13.5 0 C 10.25 0 7.765625 -0.859375 6.046875 -2.578125 C 4.335938 -4.296875 3.484375 -6.78125 3.484375 -10.03125 L 3.484375 -47.328125 C 3.484375 -47.703125 3.617188 -48.03125 3.890625 -48.3125 C 4.171875 -48.59375 4.5 -48.734375 4.875 -48.734375 L 11.5625 -48.734375 C 11.925781 -48.734375 12.25 -48.59375 12.53125 -48.3125 C 12.8125 -48.03125 12.953125 -47.703125 12.953125 -47.328125 L 12.953125 -11.96875 C 12.953125 -10.113281 13.878906 -9.1875 15.734375 -9.1875 L 19.34375 -9.1875 C 21.207031 -9.1875 22.140625 -10.113281 22.140625 -11.96875 L 22.140625 -47.328125 C 22.140625 -47.703125 22.273438 -48.03125 22.546875 -48.3125 C 22.828125 -48.59375 23.15625 -48.734375 23.53125 -48.734375 Z M 23.53125 -48.734375 "/></g></g><g style="fill:#060705;fill-opacity:1;"><g transform="translate(181.552837, 311.894912)"><path style="stroke:none" d="M 32.578125 -48.734375 L 41.765625 -48.734375 C 42.691406 -48.734375 43.15625 -48.265625 43.15625 -47.328125 L 43.15625 -1.390625 C 43.15625 -0.460938 42.691406 0 41.765625 0 L 35.296875 0 C 34.367188 0 33.90625 -0.460938 33.90625 -1.390625 L 33.90625 -28.75 L 33.40625 -28.75 L 26.875 -1.1875 C 26.632812 -0.394531 26.125 0 25.34375 0 L 21.234375 0 C 20.441406 0 19.929688 -0.394531 19.703125 -1.1875 L 13.15625 -28.75 L 12.671875 -28.75 L 12.671875 -1.390625 C 12.671875 -0.460938 12.207031 0 11.28125 0 L 4.875 0 C 3.945312 0 3.484375 -0.460938 3.484375 -1.390625 L 3.484375 -47.328125 C 3.484375 -48.265625 3.945312 -48.734375 4.875 -48.734375 L 14.0625 -48.734375 C 14.851562 -48.734375 15.363281 -48.335938 15.59375 -47.546875 L 23.3125 -16.5 L 31.046875 -47.546875 C 31.273438 -48.335938 31.785156 -48.734375 32.578125 -48.734375 Z M 32.578125 -48.734375 "/></g></g><g style="fill:#060705;fill-opacity:1;"><g transform="translate(228.1756, 311.894912)"><path style="stroke:none" d="M 13.5 -48.734375 L 21.296875 -48.734375 C 24.597656 -48.734375 27.09375 -47.882812 28.78125 -46.1875 C 30.476562 -44.488281 31.328125 -41.992188 31.328125 -38.703125 L 31.328125 -34.109375 C 31.328125 -33.367188 30.953125 -33 30.203125 -33 L 23.1875 -33 C 22.4375 -33 22.0625 -33.367188 22.0625 -34.109375 L 22.0625 -37.03125 C 22.0625 -38.882812 21.132812 -39.8125 19.28125 -39.8125 L 15.453125 -39.8125 C 13.597656 -39.8125 12.671875 -38.882812 12.671875 -37.03125 L 12.671875 -31.109375 L 29.515625 -25.6875 C 30.722656 -25.269531 31.328125 -24.410156 31.328125 -23.109375 L 31.328125 -10.03125 C 31.328125 -6.78125 30.476562 -4.296875 28.78125 -2.578125 C 27.09375 -0.859375 24.597656 0 21.296875 0 L 13.5 0 C 10.25 0 7.765625 -0.859375 6.046875 -2.578125 C 4.335938 -4.296875 3.484375 -6.78125 3.484375 -10.03125 L 3.484375 -14.546875 C 3.484375 -15.285156 3.851562 -15.65625 4.59375 -15.65625 L 11.625 -15.65625 C 12.363281 -15.65625 12.734375 -15.285156 12.734375 -14.546875 L 12.734375 -11.625 C 12.734375 -9.769531 13.660156 -8.84375 15.515625 -8.84375 L 19.28125 -8.84375 C 21.132812 -8.84375 22.0625 -9.769531 22.0625 -11.625 L 22.0625 -18.65625 L 5.359375 -24.078125 C 4.109375 -24.503906 3.484375 -25.363281 3.484375 -26.65625 L 3.484375 -38.703125 C 3.484375 -41.992188 4.335938 -44.488281 6.046875 -46.1875 C 7.765625 -47.882812 10.25 -48.734375 13.5 -48.734375 Z M 13.5 -48.734375 "/></g></g></g></svg>