<svg xmlns="http://www.w3.org/2000/svg" xmlns:xlink="http://www.w3.org/1999/xlink" width="192" zoomAndPan="magnify" viewBox="0 0 144 143.999998" height="192" preserveAspectRatio="xMidYMid meet" version="1.2"><defs><clipPath id="03977970fc"><path d="M 9 0 L 135 0 L 135 144 L 9 144 Z M 9 0 "/></clipPath><clipPath id="1a28470fd3"><path d="M -21.457031 54.867188 L 103.039062 -17.847656 L 165.503906 89.105469 L 41.007812 161.816406 Z M -21.457031 54.867188 "/></clipPath><clipPath id="71a909bbc9"><path d="M 134.226562 35.65625 L 134.347656 107.300781 L 72.121094 143.644531 L 9.773438 108.34375 L 9.65625 36.695312 L 71.878906 0.351562 Z M 134.226562 35.65625 "/></clipPath><clipPath id="a57aff94bc"><path d="M 21.210938 13.683594 L 122.773438 13.683594 L 122.773438 130.261719 L 21.210938 130.261719 Z M 21.210938 13.683594 "/></clipPath></defs><g id="a674a7ecd4"><g clip-rule="nonzero" clip-path="url(#03977970fc)"><g clip-rule="nonzero" clip-path="url(#1a28470fd3)"><g clip-rule="nonzero" clip-path="url(#71a909bbc9)"><path style=" stroke:none;fill-rule:nonzero;fill:#65b30e;fill-opacity:1;" d="M -21.457031 54.867188 L 103.039062 -17.847656 L 165.503906 89.105469 L 41.007812 161.816406 Z M -21.457031 54.867188 "/></g></g></g><path style=" stroke:none;fill-rule:nonzero;fill:#87ff00;fill-opacity:1;" d="M 51.679688 52.109375 L 51.613281 52.046875 L 37.261719 66.398438 L 72.113281 101.183594 L 86.46875 86.898438 L 106.960938 66.398438 L 92.609375 52.046875 L 92.609375 51.980469 L 51.617188 51.980469 Z M 51.679688 52.109375 "/><g clip-rule="nonzero" clip-path="url(#a57aff94bc)"><path style=" stroke:none;fill-rule:nonzero;fill:#87ff00;fill-opacity:1;" d="M 71.980469 13.765625 L 21.222656 42.863281 L 21.226562 101.058594 L 71.984375 130.15625 L 122.742188 101.058594 L 122.742188 42.863281 L 71.984375 13.769531 Z M 113.039062 95.496094 L 71.980469 119.160156 L 30.921875 95.496094 L 30.925781 48.292969 L 71.984375 24.628906 L 113.042969 48.292969 L 113.042969 95.492188 Z M 113.039062 95.496094 "/></g><g style="fill:#b21a22;fill-opacity:1;"><g transform="translate(31.725873, 60.702901)"><path style="stroke:none" d="M 0.695312 -0.59375 L 0.695312 -25.402344 C 0.695312 -25.921875 0.859375 -26.34375 1.183594 -26.667969 C 1.511719 -26.996094 1.933594 -27.15625 2.453125 -27.15625 L 11.363281 -27.15625 C 13.445312 -27.15625 15.050781 -26.585938 16.183594 -25.4375 C 17.308594 -24.296875 17.875 -22.6875 17.875 -20.613281 L 17.875 -5.347656 C 17.875 -3.296875 17.308594 -1.699219 16.183594 -0.558594 C 15.050781 0.585938 13.445312 1.160156 11.363281 1.160156 L 2.453125 1.160156 C 1.933594 1.160156 1.511719 0.996094 1.183594 0.671875 C 0.859375 0.347656 0.695312 -0.0742188 0.695312 -0.59375 Z M 3.019531 -0.59375 C 3.019531 -0.621094 3.011719 -0.65625 2.996094 -0.703125 C 2.960938 -0.800781 2.90625 -0.890625 2.828125 -0.96875 C 2.746094 -1.050781 2.65625 -1.105469 2.558594 -1.136719 C 2.511719 -1.152344 2.476562 -1.160156 2.453125 -1.160156 L 11.363281 -1.160156 C 12.800781 -1.160156 13.855469 -1.503906 14.53125 -2.1875 C 15.210938 -2.878906 15.550781 -3.933594 15.550781 -5.347656 L 15.550781 -20.613281 C 15.550781 -22.054688 15.210938 -23.117188 14.53125 -23.808594 C 13.855469 -24.492188 12.800781 -24.835938 11.363281 -24.835938 L 2.453125 -24.835938 C 2.476562 -24.835938 2.511719 -24.84375 2.558594 -24.859375 C 2.65625 -24.890625 2.746094 -24.949219 2.828125 -25.027344 C 2.90625 -25.109375 2.960938 -25.195312 2.996094 -25.296875 C 3.011719 -25.339844 3.019531 -25.375 3.019531 -25.402344 Z M 6.90625 -6.0625 L 10.324219 -6.0625 C 10.445312 -6.0625 10.542969 -6.074219 10.609375 -6.097656 C 10.621094 -6.101562 10.628906 -6.105469 10.632812 -6.105469 C 10.628906 -6.105469 10.625 -6.101562 10.617188 -6.09375 C 10.613281 -6.089844 10.609375 -6.085938 10.605469 -6.078125 C 10.609375 -6.085938 10.613281 -6.09375 10.617188 -6.105469 C 10.636719 -6.171875 10.648438 -6.265625 10.648438 -6.386719 L 10.648438 -19.574219 C 10.648438 -19.703125 10.636719 -19.804688 10.613281 -19.878906 C 10.609375 -19.894531 10.605469 -19.90625 10.601562 -19.914062 C 10.601562 -19.910156 10.605469 -19.90625 10.609375 -19.902344 L 10.597656 -19.902344 C 10.535156 -19.921875 10.445312 -19.933594 10.324219 -19.933594 L 6.90625 -19.933594 L 6.90625 -21.09375 L 8.070312 -21.09375 L 8.070312 -4.902344 L 6.90625 -4.902344 Z M 5.746094 -3.742188 L 5.746094 -22.253906 L 10.324219 -22.253906 C 11.144531 -22.253906 11.792969 -22.011719 12.269531 -21.523438 C 12.738281 -21.046875 12.972656 -20.394531 12.972656 -19.574219 L 12.972656 -6.386719 C 12.972656 -5.570312 12.734375 -4.925781 12.257812 -4.453125 C 11.785156 -3.980469 11.140625 -3.742188 10.324219 -3.742188 Z M 5.746094 -3.742188 "/></g></g><g style="fill:#b21a22;fill-opacity:1;"><g transform="translate(50.289604, 60.702901)"><path style="stroke:none" d="M 17.875 -20.648438 L 17.875 -13.183594 C 17.875 -10.601562 17 -8.761719 15.246094 -7.667969 L 14.632812 -8.652344 L 15.761719 -8.925781 L 17.691406 -0.941406 L 16.5625 -0.667969 L 17.683594 -0.980469 C 17.847656 -0.382812 17.769531 0.125 17.441406 0.546875 C 17.125 0.957031 16.65625 1.160156 16.042969 1.160156 L 12.40625 1.160156 C 11.953125 1.160156 11.566406 1.027344 11.25 0.765625 C 10.933594 0.507812 10.730469 0.160156 10.636719 -0.277344 L 11.773438 -0.519531 L 10.644531 -0.246094 L 8.863281 -7.5625 L 9.992188 -7.835938 L 9.992188 -6.675781 L 6.683594 -6.675781 L 6.683594 -7.835938 L 7.847656 -7.835938 L 7.847656 -0.59375 C 7.847656 -0.0742188 7.683594 0.347656 7.355469 0.671875 C 7.03125 0.996094 6.609375 1.160156 6.089844 1.160156 L 2.453125 1.160156 C 1.933594 1.160156 1.511719 0.996094 1.183594 0.671875 C 0.859375 0.347656 0.695312 -0.0742188 0.695312 -0.59375 L 0.695312 -25.402344 C 0.695312 -25.921875 0.859375 -26.34375 1.183594 -26.667969 C 1.511719 -26.996094 1.933594 -27.15625 2.453125 -27.15625 L 11.363281 -27.15625 C 13.441406 -27.15625 15.046875 -26.59375 16.179688 -25.460938 C 17.308594 -24.332031 17.875 -22.726562 17.875 -20.648438 Z M 15.550781 -20.648438 C 15.550781 -22.085938 15.214844 -23.144531 14.535156 -23.820312 C 13.859375 -24.5 12.800781 -24.835938 11.363281 -24.835938 L 2.453125 -24.835938 C 2.476562 -24.835938 2.511719 -24.84375 2.558594 -24.859375 C 2.65625 -24.890625 2.746094 -24.949219 2.828125 -25.027344 C 2.90625 -25.109375 2.960938 -25.195312 2.996094 -25.296875 C 3.011719 -25.339844 3.019531 -25.375 3.019531 -25.402344 L 3.019531 -0.59375 C 3.019531 -0.621094 3.011719 -0.65625 2.996094 -0.703125 C 2.960938 -0.800781 2.90625 -0.890625 2.828125 -0.96875 C 2.746094 -1.050781 2.65625 -1.105469 2.558594 -1.136719 C 2.511719 -1.152344 2.476562 -1.160156 2.453125 -1.160156 L 6.089844 -1.160156 C 6.0625 -1.160156 6.027344 -1.152344 5.984375 -1.136719 C 5.882812 -1.105469 5.796875 -1.050781 5.714844 -0.96875 C 5.636719 -0.890625 5.578125 -0.800781 5.546875 -0.703125 C 5.53125 -0.65625 5.523438 -0.621094 5.523438 -0.59375 L 5.523438 -8.996094 L 10.902344 -8.996094 L 12.90625 -0.777344 L 12.90625 -0.761719 C 12.890625 -0.855469 12.828125 -0.941406 12.722656 -1.027344 C 12.617188 -1.117188 12.507812 -1.160156 12.40625 -1.160156 L 16.046875 -1.160156 C 16.019531 -1.15625 15.992188 -1.148438 15.960938 -1.136719 C 15.824219 -1.089844 15.707031 -1.003906 15.609375 -0.878906 C 15.511719 -0.75 15.453125 -0.613281 15.445312 -0.460938 C 15.441406 -0.410156 15.441406 -0.375 15.445312 -0.359375 L 15.441406 -0.375 L 13.308594 -9.195312 L 14.019531 -9.636719 C 15.039062 -10.277344 15.550781 -11.460938 15.550781 -13.183594 Z M 6.683594 -13.789062 L 10.398438 -13.789062 C 10.519531 -13.789062 10.617188 -13.800781 10.683594 -13.820312 C 10.695312 -13.824219 10.703125 -13.828125 10.707031 -13.832031 C 10.703125 -13.828125 10.699219 -13.824219 10.691406 -13.820312 C 10.6875 -13.8125 10.683594 -13.808594 10.679688 -13.804688 C 10.683594 -13.808594 10.6875 -13.816406 10.691406 -13.828125 C 10.710938 -13.898438 10.722656 -13.992188 10.722656 -14.113281 L 10.722656 -19.722656 C 10.722656 -19.84375 10.710938 -19.9375 10.691406 -20.003906 C 10.6875 -20.015625 10.683594 -20.023438 10.679688 -20.027344 C 10.683594 -20.023438 10.6875 -20.019531 10.691406 -20.015625 C 10.699219 -20.007812 10.703125 -20.003906 10.707031 -20.003906 C 10.703125 -20.003906 10.695312 -20.007812 10.683594 -20.011719 C 10.617188 -20.035156 10.519531 -20.046875 10.398438 -20.046875 L 6.683594 -20.046875 L 6.683594 -21.207031 L 7.847656 -21.207031 L 7.847656 -12.628906 L 6.683594 -12.628906 Z M 5.523438 -11.464844 L 5.523438 -22.367188 L 10.398438 -22.367188 C 11.214844 -22.367188 11.859375 -22.128906 12.332031 -21.65625 C 12.808594 -21.179688 13.046875 -20.535156 13.046875 -19.722656 L 13.046875 -14.113281 C 13.046875 -13.296875 12.808594 -12.652344 12.332031 -12.179688 C 11.859375 -11.703125 11.214844 -11.464844 10.398438 -11.464844 Z M 5.523438 -11.464844 "/></g></g><g style="fill:#b21a22;fill-opacity:1;"><g transform="translate(68.853335, 60.702901)"><path style="stroke:none" d="M 14.78125 -27.15625 L 18.496094 -27.15625 C 19.148438 -27.15625 19.652344 -26.925781 20.007812 -26.464844 C 20.230469 -26.175781 20.34375 -25.847656 20.34375 -25.480469 C 20.34375 -25.199219 20.269531 -24.910156 20.128906 -24.625 L 19.089844 -25.144531 L 20.152344 -24.675781 L 13.355469 -9.261719 L 12.292969 -9.730469 L 13.453125 -9.730469 L 13.453125 -0.742188 C 13.453125 -0.175781 13.277344 0.285156 12.929688 0.636719 C 12.578125 0.984375 12.117188 1.160156 11.550781 1.160156 L 7.984375 1.160156 C 7.417969 1.160156 6.957031 0.984375 6.605469 0.636719 C 6.257812 0.285156 6.082031 -0.175781 6.082031 -0.742188 L 6.082031 -9.730469 L 7.242188 -9.730469 L 6.179688 -9.261719 L -0.625 -24.695312 L -0.632812 -24.710938 C -0.886719 -25.347656 -0.839844 -25.914062 -0.488281 -26.417969 C -0.148438 -26.910156 0.363281 -27.15625 1.039062 -27.15625 L 4.753906 -27.15625 C 5.207031 -27.15625 5.605469 -27.039062 5.945312 -26.800781 C 6.285156 -26.566406 6.535156 -26.234375 6.695312 -25.8125 L 5.609375 -25.402344 L 6.671875 -25.867188 L 10.832031 -16.320312 L 9.769531 -15.859375 L 8.703125 -16.320312 L 12.863281 -25.867188 L 13.925781 -25.402344 L 12.839844 -25.8125 C 13 -26.234375 13.25 -26.566406 13.589844 -26.800781 C 13.929688 -27.039062 14.328125 -27.15625 14.78125 -27.15625 Z M 14.78125 -24.835938 C 14.8125 -24.835938 14.859375 -24.855469 14.914062 -24.894531 C 14.96875 -24.933594 15.003906 -24.96875 15.015625 -24.996094 L 15.003906 -24.96875 L 9.769531 -12.953125 L 4.53125 -24.96875 L 4.519531 -24.996094 C 4.53125 -24.96875 4.566406 -24.933594 4.621094 -24.894531 C 4.675781 -24.855469 4.722656 -24.835938 4.753906 -24.835938 L 1.039062 -24.835938 C 1.058594 -24.835938 1.09375 -24.847656 1.140625 -24.867188 C 1.253906 -24.914062 1.34375 -24.988281 1.417969 -25.09375 C 1.492188 -25.203125 1.53125 -25.320312 1.535156 -25.445312 C 1.539062 -25.507812 1.535156 -25.546875 1.523438 -25.574219 L 0.445312 -25.144531 L 1.507812 -25.613281 L 8.402344 -9.976562 L 8.402344 -0.742188 C 8.402344 -0.738281 8.402344 -0.734375 8.402344 -0.730469 C 8.402344 -0.730469 8.402344 -0.730469 8.402344 -0.734375 C 8.402344 -0.746094 8.394531 -0.765625 8.390625 -0.785156 C 8.363281 -0.867188 8.316406 -0.9375 8.25 -1.007812 C 8.179688 -1.074219 8.109375 -1.121094 8.027344 -1.148438 C 8.007812 -1.152344 7.988281 -1.160156 7.976562 -1.160156 C 7.972656 -1.160156 7.972656 -1.160156 7.972656 -1.160156 C 7.976562 -1.160156 7.980469 -1.160156 7.984375 -1.160156 L 11.550781 -1.160156 C 11.554688 -1.160156 11.558594 -1.160156 11.5625 -1.160156 C 11.5625 -1.160156 11.5625 -1.160156 11.558594 -1.160156 C 11.546875 -1.160156 11.527344 -1.152344 11.507812 -1.148438 C 11.429688 -1.121094 11.355469 -1.074219 11.285156 -1.007812 C 11.21875 -0.9375 11.171875 -0.867188 11.144531 -0.785156 C 11.140625 -0.765625 11.132812 -0.746094 11.132812 -0.734375 C 11.132812 -0.730469 11.132812 -0.730469 11.132812 -0.730469 C 11.132812 -0.734375 11.132812 -0.738281 11.132812 -0.742188 L 11.132812 -9.976562 L 18.039062 -25.636719 L 18.050781 -25.664062 C 18.03125 -25.621094 18.023438 -25.5625 18.023438 -25.480469 C 18.023438 -25.320312 18.070312 -25.175781 18.167969 -25.046875 C 18.234375 -24.960938 18.316406 -24.902344 18.410156 -24.863281 C 18.453125 -24.84375 18.480469 -24.835938 18.496094 -24.835938 Z M 14.78125 -24.835938 "/></g></g><g style="fill:#b21a22;fill-opacity:1;"><g transform="translate(88.382381, 60.702901)"><path style="stroke:none" d="M -1.160156 4.976562 L -1.160156 1.558594 C -1.160156 0.992188 -0.984375 0.53125 -0.636719 0.183594 C -0.285156 -0.167969 0.175781 -0.34375 0.742188 -0.34375 L 23.136719 -0.34375 C 23.707031 -0.34375 24.164062 -0.167969 24.515625 0.183594 C 24.867188 0.53125 25.042969 0.992188 25.042969 1.558594 L 25.042969 4.976562 C 25.042969 5.542969 24.867188 6.003906 24.515625 6.355469 C 24.164062 6.703125 23.707031 6.878906 23.136719 6.878906 L 0.742188 6.878906 C 0.175781 6.878906 -0.285156 6.703125 -0.636719 6.355469 C -0.984375 6.003906 -1.160156 5.542969 -1.160156 4.976562 Z M 1.160156 4.976562 C 1.160156 4.980469 1.160156 4.984375 1.160156 4.988281 C 1.160156 4.972656 1.152344 4.953125 1.148438 4.933594 C 1.121094 4.855469 1.074219 4.78125 1.007812 4.714844 C 0.9375 4.644531 0.867188 4.597656 0.785156 4.570312 C 0.765625 4.566406 0.746094 4.5625 0.734375 4.558594 C 0.730469 4.558594 0.730469 4.558594 0.730469 4.558594 C 0.734375 4.558594 0.738281 4.558594 0.742188 4.558594 L 23.136719 4.558594 C 23.144531 4.558594 23.148438 4.558594 23.152344 4.558594 C 23.148438 4.558594 23.148438 4.558594 23.148438 4.558594 C 23.132812 4.5625 23.117188 4.566406 23.09375 4.570312 C 23.015625 4.597656 22.941406 4.644531 22.875 4.714844 C 22.808594 4.78125 22.761719 4.855469 22.734375 4.933594 C 22.726562 4.953125 22.722656 4.972656 22.71875 4.988281 C 22.71875 4.984375 22.71875 4.980469 22.71875 4.976562 L 22.71875 1.558594 C 22.71875 1.554688 22.71875 1.550781 22.71875 1.546875 C 22.71875 1.546875 22.71875 1.546875 22.71875 1.550781 C 22.722656 1.566406 22.726562 1.582031 22.734375 1.601562 C 22.761719 1.683594 22.808594 1.757812 22.875 1.824219 C 22.941406 1.890625 23.015625 1.9375 23.09375 1.964844 C 23.117188 1.972656 23.132812 1.976562 23.148438 1.976562 C 23.148438 1.976562 23.148438 1.976562 23.152344 1.976562 C 23.148438 1.976562 23.144531 1.976562 23.136719 1.976562 L 0.742188 1.976562 C 0.738281 1.976562 0.734375 1.976562 0.730469 1.976562 C 0.730469 1.976562 0.730469 1.976562 0.734375 1.976562 C 0.746094 1.976562 0.765625 1.972656 0.785156 1.964844 C 0.867188 1.9375 0.9375 1.890625 1.007812 1.824219 C 1.074219 1.757812 1.121094 1.683594 1.148438 1.601562 C 1.152344 1.582031 1.160156 1.566406 1.160156 1.550781 C 1.160156 1.546875 1.160156 1.546875 1.160156 1.546875 C 1.160156 1.550781 1.160156 1.554688 1.160156 1.558594 Z M 1.160156 4.976562 "/></g></g><g style="fill:#b21a22;fill-opacity:1;"><g transform="translate(25.106481, 112.481256)"><path style="stroke:none" d="M 14.222656 -27.15625 L 17.605469 -27.15625 C 18.253906 -27.15625 18.753906 -26.949219 19.097656 -26.527344 C 19.449219 -26.097656 19.550781 -25.5625 19.40625 -24.921875 L 13.496094 -0.398438 C 13.390625 0.0742188 13.167969 0.449219 12.824219 0.730469 C 12.472656 1.015625 12.050781 1.160156 11.550781 1.160156 L 7.835938 1.160156 C 7.351562 1.160156 6.929688 1.015625 6.582031 0.730469 C 6.253906 0.464844 6.027344 0.101562 5.902344 -0.359375 L 5.894531 -0.378906 L 0.0234375 -24.910156 C -0.125 -25.558594 -0.0234375 -26.097656 0.328125 -26.527344 C 0.671875 -26.949219 1.167969 -27.15625 1.820312 -27.15625 L 5.199219 -27.15625 C 5.699219 -27.15625 6.121094 -27.015625 6.472656 -26.730469 C 6.816406 -26.449219 7.042969 -26.066406 7.148438 -25.582031 L 10.828125 -8.789062 L 9.691406 -8.542969 L 8.558594 -8.792969 L 12.28125 -25.609375 L 12.289062 -25.640625 C 12.417969 -26.097656 12.644531 -26.460938 12.96875 -26.730469 C 13.320312 -27.015625 13.738281 -27.15625 14.222656 -27.15625 Z M 14.222656 -24.835938 C 14.289062 -24.835938 14.363281 -24.867188 14.4375 -24.933594 C 14.476562 -24.964844 14.507812 -24.996094 14.527344 -25.03125 C 14.53125 -25.035156 14.53125 -25.039062 14.535156 -25.042969 C 14.53125 -25.039062 14.527344 -25.027344 14.527344 -25.019531 L 13.40625 -25.328125 L 14.539062 -25.078125 L 10.828125 -8.292969 L 8.558594 -8.292969 L 4.882812 -25.078125 C 4.882812 -25.082031 4.882812 -25.085938 4.882812 -25.085938 C 4.882812 -25.078125 4.890625 -25.070312 4.894531 -25.058594 C 4.921875 -25.011719 4.957031 -24.96875 5.003906 -24.933594 C 5.082031 -24.867188 5.144531 -24.835938 5.199219 -24.835938 L 1.820312 -24.835938 C 1.804688 -24.835938 1.792969 -24.835938 1.785156 -24.835938 C 1.796875 -24.835938 1.816406 -24.839844 1.835938 -24.847656 C 1.945312 -24.886719 2.039062 -24.957031 2.125 -25.058594 C 2.210938 -25.164062 2.261719 -25.277344 2.277344 -25.398438 C 2.277344 -25.421875 2.28125 -25.445312 2.277344 -25.460938 C 2.277344 -25.457031 2.277344 -25.453125 2.28125 -25.449219 L 8.148438 -0.9375 L 7.019531 -0.667969 L 8.136719 -0.980469 C 8.140625 -0.96875 8.144531 -0.960938 8.144531 -0.953125 C 8.144531 -0.957031 8.140625 -0.960938 8.136719 -0.96875 C 8.117188 -1 8.089844 -1.035156 8.050781 -1.066406 C 7.972656 -1.128906 7.902344 -1.160156 7.835938 -1.160156 L 11.550781 -1.160156 C 11.496094 -1.160156 11.429688 -1.128906 11.355469 -1.066406 C 11.308594 -1.027344 11.269531 -0.984375 11.246094 -0.941406 C 11.238281 -0.929688 11.234375 -0.917969 11.230469 -0.910156 C 11.230469 -0.910156 11.234375 -0.921875 11.238281 -0.941406 L 17.140625 -25.4375 C 17.144531 -25.449219 17.144531 -25.457031 17.144531 -25.460938 C 17.144531 -25.445312 17.144531 -25.421875 17.148438 -25.398438 C 17.164062 -25.277344 17.214844 -25.164062 17.300781 -25.058594 C 17.382812 -24.957031 17.480469 -24.886719 17.589844 -24.847656 C 17.609375 -24.839844 17.625 -24.835938 17.640625 -24.835938 C 17.632812 -24.835938 17.621094 -24.835938 17.605469 -24.835938 Z M 14.222656 -24.835938 "/></g></g><g style="fill:#b21a22;fill-opacity:1;"><g transform="translate(44.524139, 112.481256)"><path style="stroke:none" d="M 2.453125 -1.160156 L 6.3125 -1.160156 C 6.289062 -1.160156 6.25 -1.152344 6.207031 -1.136719 C 6.109375 -1.105469 6.019531 -1.050781 5.9375 -0.96875 C 5.859375 -0.890625 5.800781 -0.800781 5.769531 -0.703125 C 5.753906 -0.65625 5.746094 -0.621094 5.746094 -0.59375 L 5.746094 -25.402344 C 5.746094 -25.375 5.753906 -25.339844 5.769531 -25.296875 C 5.800781 -25.195312 5.859375 -25.109375 5.9375 -25.027344 C 6.019531 -24.949219 6.109375 -24.890625 6.207031 -24.859375 C 6.25 -24.84375 6.289062 -24.835938 6.3125 -24.835938 L 2.453125 -24.835938 C 2.476562 -24.835938 2.511719 -24.84375 2.558594 -24.859375 C 2.65625 -24.890625 2.746094 -24.949219 2.828125 -25.027344 C 2.90625 -25.109375 2.960938 -25.195312 2.996094 -25.296875 C 3.011719 -25.339844 3.019531 -25.375 3.019531 -25.402344 L 3.019531 -0.59375 C 3.019531 -0.621094 3.011719 -0.65625 2.996094 -0.703125 C 2.960938 -0.800781 2.90625 -0.890625 2.828125 -0.96875 C 2.746094 -1.050781 2.65625 -1.105469 2.558594 -1.136719 C 2.511719 -1.152344 2.476562 -1.160156 2.453125 -1.160156 Z M 2.453125 1.160156 C 1.933594 1.160156 1.511719 0.996094 1.183594 0.671875 C 0.859375 0.347656 0.695312 -0.0742188 0.695312 -0.59375 L 0.695312 -25.402344 C 0.695312 -25.921875 0.859375 -26.34375 1.183594 -26.667969 C 1.511719 -26.996094 1.933594 -27.15625 2.453125 -27.15625 L 6.3125 -27.15625 C 6.832031 -27.15625 7.253906 -26.996094 7.578125 -26.667969 C 7.90625 -26.34375 8.070312 -25.921875 8.070312 -25.402344 L 8.070312 -0.59375 C 8.070312 -0.0742188 7.90625 0.347656 7.578125 0.671875 C 7.253906 0.996094 6.832031 1.160156 6.3125 1.160156 Z M 2.453125 1.160156 "/></g></g><g style="fill:#b21a22;fill-opacity:1;"><g transform="translate(53.286215, 112.481256)"><path style="stroke:none" d="M 17.835938 -25.402344 L 17.835938 -21.6875 C 17.835938 -21.171875 17.679688 -20.75 17.371094 -20.421875 C 17.042969 -20.070312 16.613281 -19.898438 16.082031 -19.898438 L 6.90625 -19.898438 L 6.90625 -21.058594 L 8.070312 -21.058594 L 8.070312 -15.339844 L 6.90625 -15.339844 L 6.90625 -16.5 L 13.890625 -16.5 C 14.421875 -16.5 14.851562 -16.324219 15.179688 -15.976562 C 15.492188 -15.648438 15.644531 -15.222656 15.644531 -14.707031 L 15.644531 -11.03125 C 15.644531 -10.511719 15.492188 -10.089844 15.179688 -9.761719 C 14.851562 -9.414062 14.421875 -9.238281 13.890625 -9.238281 L 6.90625 -9.238281 L 6.90625 -10.398438 L 8.070312 -10.398438 L 8.070312 -4.902344 L 6.90625 -4.902344 L 6.90625 -6.0625 L 16.082031 -6.0625 C 16.601562 -6.0625 17.023438 -5.898438 17.347656 -5.574219 C 17.671875 -5.25 17.835938 -4.828125 17.835938 -4.308594 L 17.835938 -0.59375 C 17.835938 -0.0742188 17.671875 0.347656 17.347656 0.671875 C 17.023438 0.996094 16.601562 1.160156 16.082031 1.160156 L 2.414062 1.160156 C 1.894531 1.160156 1.472656 0.988281 1.148438 0.644531 C 0.847656 0.324219 0.695312 -0.0898438 0.695312 -0.59375 L 0.695312 -25.402344 C 0.695312 -25.90625 0.847656 -26.320312 1.148438 -26.644531 C 1.472656 -26.984375 1.894531 -27.15625 2.414062 -27.15625 L 16.082031 -27.15625 C 16.601562 -27.15625 17.023438 -26.996094 17.347656 -26.667969 C 17.671875 -26.34375 17.835938 -25.921875 17.835938 -25.402344 Z M 15.515625 -25.402344 C 15.515625 -25.375 15.523438 -25.339844 15.539062 -25.296875 C 15.570312 -25.195312 15.625 -25.109375 15.707031 -25.027344 C 15.785156 -24.949219 15.875 -24.890625 15.972656 -24.859375 C 16.019531 -24.84375 16.054688 -24.835938 16.082031 -24.835938 L 2.414062 -24.835938 C 2.5625 -24.835938 2.707031 -24.910156 2.84375 -25.054688 C 2.917969 -25.136719 2.96875 -25.222656 3 -25.316406 C 3.011719 -25.355469 3.019531 -25.382812 3.019531 -25.402344 L 3.019531 -0.59375 C 3.019531 -0.613281 3.011719 -0.640625 3 -0.679688 C 2.96875 -0.773438 2.917969 -0.863281 2.84375 -0.941406 C 2.707031 -1.089844 2.5625 -1.160156 2.414062 -1.160156 L 16.082031 -1.160156 C 16.054688 -1.160156 16.019531 -1.152344 15.972656 -1.136719 C 15.875 -1.105469 15.785156 -1.050781 15.707031 -0.96875 C 15.625 -0.890625 15.570312 -0.800781 15.539062 -0.703125 C 15.523438 -0.65625 15.515625 -0.621094 15.515625 -0.59375 L 15.515625 -4.308594 C 15.515625 -4.28125 15.523438 -4.246094 15.539062 -4.199219 C 15.570312 -4.101562 15.625 -4.011719 15.707031 -3.933594 C 15.785156 -3.851562 15.875 -3.796875 15.972656 -3.765625 C 16.019531 -3.75 16.054688 -3.742188 16.082031 -3.742188 L 5.746094 -3.742188 L 5.746094 -11.558594 L 13.890625 -11.558594 C 13.855469 -11.558594 13.8125 -11.550781 13.761719 -11.53125 C 13.660156 -11.496094 13.570312 -11.4375 13.492188 -11.351562 C 13.417969 -11.277344 13.367188 -11.191406 13.339844 -11.101562 C 13.328125 -11.066406 13.324219 -11.042969 13.324219 -11.03125 L 13.324219 -14.707031 C 13.324219 -14.695312 13.328125 -14.671875 13.339844 -14.636719 C 13.367188 -14.546875 13.417969 -14.460938 13.492188 -14.386719 C 13.570312 -14.300781 13.660156 -14.242188 13.761719 -14.203125 C 13.8125 -14.1875 13.855469 -14.179688 13.890625 -14.179688 L 5.746094 -14.179688 L 5.746094 -22.21875 L 16.082031 -22.21875 C 16.046875 -22.21875 16.003906 -22.210938 15.953125 -22.191406 C 15.851562 -22.15625 15.761719 -22.09375 15.683594 -22.011719 C 15.609375 -21.933594 15.558594 -21.851562 15.53125 -21.761719 C 15.519531 -21.726562 15.515625 -21.703125 15.515625 -21.6875 Z M 15.515625 -25.402344 "/></g></g><g style="fill:#b21a22;fill-opacity:1;"><g transform="translate(71.812813, 112.481256)"><path style="stroke:none" d="M 22.878906 -27.15625 L 26.367188 -27.15625 C 26.984375 -27.15625 27.464844 -26.964844 27.816406 -26.582031 C 28.175781 -26.183594 28.3125 -25.671875 28.222656 -25.054688 L 24.65625 -0.5 C 24.570312 0.0234375 24.34375 0.433594 23.984375 0.730469 C 23.632812 1.015625 23.203125 1.160156 22.691406 1.160156 L 18.679688 1.160156 C 18.195312 1.160156 17.777344 1.015625 17.425781 0.730469 C 17.101562 0.464844 16.875 0.101562 16.746094 -0.359375 L 16.738281 -0.386719 L 13.316406 -15.640625 L 14.445312 -15.894531 L 15.578125 -15.640625 L 12.125 -0.410156 C 12.019531 0.0703125 11.792969 0.449219 11.449219 0.730469 C 11.101562 1.015625 10.675781 1.160156 10.175781 1.160156 L 6.089844 1.160156 C 5.566406 1.160156 5.128906 1.007812 4.773438 0.703125 C 4.425781 0.398438 4.207031 -0.0078125 4.128906 -0.523438 L 0.707031 -25.058594 C 0.621094 -25.675781 0.753906 -26.183594 1.117188 -26.582031 C 1.464844 -26.964844 1.945312 -27.15625 2.5625 -27.15625 L 6.054688 -27.15625 C 6.574219 -27.15625 7.011719 -27 7.363281 -26.683594 C 7.695312 -26.378906 7.898438 -25.976562 7.980469 -25.472656 L 7.984375 -25.449219 L 9.804688 -9.902344 L 8.652344 -9.769531 L 8.652344 -10.929688 L 8.839844 -10.929688 L 8.839844 -9.769531 L 7.707031 -10.03125 L 11.355469 -25.660156 L 11.367188 -25.695312 C 11.496094 -26.144531 11.730469 -26.5 12.066406 -26.757812 C 12.410156 -27.023438 12.820312 -27.15625 13.296875 -27.15625 L 15.5625 -27.15625 C 16.035156 -27.15625 16.445312 -27.023438 16.789062 -26.757812 C 17.125 -26.5 17.359375 -26.144531 17.492188 -25.695312 L 17.5 -25.660156 L 21.148438 -10.03125 L 20.019531 -9.769531 L 20.019531 -10.929688 L 20.203125 -10.929688 L 20.203125 -9.769531 L 19.050781 -9.90625 L 20.949219 -25.453125 L 20.953125 -25.472656 C 21.03125 -25.976562 21.238281 -26.378906 21.570312 -26.683594 C 21.921875 -27 22.355469 -27.15625 22.878906 -27.15625 Z M 22.878906 -24.835938 C 22.953125 -24.835938 23.035156 -24.878906 23.128906 -24.960938 C 23.175781 -25.003906 23.214844 -25.050781 23.238281 -25.105469 C 23.242188 -25.113281 23.246094 -25.125 23.25 -25.128906 C 23.246094 -25.128906 23.246094 -25.121094 23.246094 -25.109375 L 22.097656 -25.292969 L 23.25 -25.152344 L 21.230469 -8.605469 L 19.097656 -8.605469 L 15.25 -25.101562 L 16.378906 -25.367188 L 15.265625 -25.039062 C 15.261719 -25.042969 15.261719 -25.046875 15.261719 -25.050781 C 15.265625 -25.042969 15.269531 -25.035156 15.273438 -25.027344 C 15.296875 -24.988281 15.332031 -24.953125 15.371094 -24.921875 C 15.445312 -24.863281 15.507812 -24.835938 15.5625 -24.835938 L 13.296875 -24.835938 C 13.347656 -24.835938 13.414062 -24.863281 13.484375 -24.921875 C 13.527344 -24.953125 13.558594 -24.988281 13.582031 -25.027344 C 13.589844 -25.035156 13.59375 -25.042969 13.597656 -25.050781 C 13.59375 -25.046875 13.59375 -25.042969 13.59375 -25.039062 L 12.480469 -25.367188 L 13.609375 -25.101562 L 9.761719 -8.605469 L 7.621094 -8.605469 L 5.679688 -25.15625 L 6.832031 -25.292969 L 5.6875 -25.109375 C 5.6875 -25.121094 5.683594 -25.128906 5.683594 -25.128906 C 5.683594 -25.125 5.6875 -25.113281 5.695312 -25.105469 C 5.71875 -25.050781 5.753906 -25.003906 5.804688 -24.960938 C 5.894531 -24.878906 5.976562 -24.835938 6.054688 -24.835938 L 2.5625 -24.835938 C 2.546875 -24.835938 2.539062 -24.835938 2.53125 -24.835938 C 2.542969 -24.835938 2.558594 -24.839844 2.578125 -24.847656 C 2.675781 -24.878906 2.761719 -24.9375 2.839844 -25.023438 C 2.921875 -25.113281 2.972656 -25.214844 2.996094 -25.324219 C 3 -25.351562 3.003906 -25.371094 3.003906 -25.390625 C 3.003906 -25.394531 3.003906 -25.394531 3.003906 -25.398438 C 3.003906 -25.394531 3.003906 -25.386719 3.007812 -25.378906 L 6.421875 -0.886719 C 6.421875 -0.878906 6.421875 -0.875 6.421875 -0.875 C 6.417969 -0.882812 6.414062 -0.894531 6.410156 -0.910156 C 6.382812 -0.960938 6.34375 -1.011719 6.292969 -1.054688 C 6.238281 -1.101562 6.183594 -1.132812 6.125 -1.152344 C 6.109375 -1.15625 6.097656 -1.160156 6.085938 -1.160156 L 10.175781 -1.160156 C 10.121094 -1.160156 10.058594 -1.128906 9.980469 -1.066406 C 9.933594 -1.027344 9.898438 -0.984375 9.871094 -0.941406 C 9.867188 -0.929688 9.859375 -0.917969 9.859375 -0.910156 C 9.859375 -0.910156 9.859375 -0.914062 9.859375 -0.925781 L 13.316406 -16.152344 L 15.578125 -16.148438 L 18.996094 -0.921875 L 17.863281 -0.667969 L 18.980469 -0.980469 C 18.984375 -0.96875 18.988281 -0.960938 18.992188 -0.953125 C 18.988281 -0.957031 18.988281 -0.960938 18.984375 -0.96875 C 18.964844 -1 18.933594 -1.035156 18.894531 -1.066406 C 18.820312 -1.128906 18.746094 -1.160156 18.679688 -1.160156 L 22.691406 -1.160156 C 22.699219 -1.160156 22.703125 -1.160156 22.707031 -1.160156 C 22.699219 -1.160156 22.6875 -1.15625 22.675781 -1.152344 C 22.617188 -1.136719 22.566406 -1.109375 22.515625 -1.066406 C 22.425781 -0.992188 22.375 -0.914062 22.359375 -0.835938 L 25.925781 -25.382812 C 25.925781 -25.386719 25.925781 -25.394531 25.925781 -25.398438 C 25.925781 -25.394531 25.925781 -25.394531 25.925781 -25.390625 C 25.925781 -25.371094 25.929688 -25.351562 25.933594 -25.324219 C 25.957031 -25.214844 26.011719 -25.113281 26.09375 -25.023438 C 26.171875 -24.9375 26.257812 -24.878906 26.351562 -24.847656 C 26.371094 -24.839844 26.386719 -24.835938 26.398438 -24.835938 C 26.394531 -24.835938 26.382812 -24.835938 26.367188 -24.835938 Z M 22.878906 -24.835938 "/></g></g><g style="fill:#b21a22;fill-opacity:1;"><g transform="translate(100.289572, 112.481256)"><path style="stroke:none" d="M 7.203125 -27.15625 L 11.363281 -27.15625 C 13.441406 -27.15625 15.046875 -26.59375 16.179688 -25.460938 C 17.308594 -24.332031 17.875 -22.726562 17.875 -20.648438 L 17.875 -18.199219 C 17.875 -17.679688 17.710938 -17.257812 17.386719 -16.933594 C 17.058594 -16.605469 16.636719 -16.441406 16.117188 -16.441406 L 12.367188 -16.441406 C 11.847656 -16.441406 11.425781 -16.605469 11.101562 -16.933594 C 10.773438 -17.257812 10.613281 -17.679688 10.613281 -18.199219 L 10.613281 -19.757812 C 10.613281 -19.878906 10.601562 -19.972656 10.578125 -20.039062 C 10.574219 -20.054688 10.570312 -20.0625 10.570312 -20.066406 C 10.570312 -20.0625 10.574219 -20.058594 10.582031 -20.050781 C 10.585938 -20.046875 10.589844 -20.042969 10.59375 -20.039062 C 10.589844 -20.042969 10.582031 -20.046875 10.570312 -20.050781 C 10.503906 -20.070312 10.410156 -20.082031 10.289062 -20.082031 L 8.246094 -20.082031 C 8.121094 -20.082031 8.027344 -20.070312 7.960938 -20.050781 C 7.949219 -20.046875 7.941406 -20.042969 7.9375 -20.039062 C 7.941406 -20.042969 7.945312 -20.046875 7.953125 -20.050781 C 7.957031 -20.058594 7.960938 -20.0625 7.964844 -20.066406 C 7.960938 -20.0625 7.957031 -20.054688 7.953125 -20.039062 C 7.929688 -19.972656 7.921875 -19.878906 7.921875 -19.757812 L 7.921875 -16.601562 L 6.757812 -16.601562 L 7.117188 -17.707031 L 16.101562 -14.808594 C 16.675781 -14.609375 17.117188 -14.292969 17.421875 -13.859375 C 17.722656 -13.433594 17.875 -12.921875 17.875 -12.332031 L 17.875 -5.347656 C 17.875 -3.296875 17.308594 -1.699219 16.183594 -0.558594 C 15.050781 0.585938 13.445312 1.160156 11.363281 1.160156 L 7.203125 1.160156 C 5.152344 1.160156 3.554688 0.589844 2.410156 -0.554688 C 1.269531 -1.695312 0.695312 -3.292969 0.695312 -5.347656 L 0.695312 -7.761719 C 0.695312 -8.28125 0.859375 -8.703125 1.183594 -9.027344 C 1.511719 -9.355469 1.933594 -9.515625 2.453125 -9.515625 L 6.203125 -9.515625 C 6.722656 -9.515625 7.144531 -9.355469 7.46875 -9.027344 C 7.792969 -8.703125 7.957031 -8.28125 7.957031 -7.761719 L 7.957031 -6.203125 C 7.957031 -6.082031 7.96875 -5.984375 7.992188 -5.917969 C 7.996094 -5.90625 7.996094 -5.898438 8 -5.894531 C 8 -5.898438 7.992188 -5.902344 7.988281 -5.910156 C 7.984375 -5.914062 7.976562 -5.917969 7.972656 -5.921875 C 7.976562 -5.917969 7.988281 -5.914062 8 -5.910156 C 8.066406 -5.886719 8.160156 -5.878906 8.28125 -5.878906 L 10.289062 -5.878906 C 10.410156 -5.878906 10.503906 -5.886719 10.570312 -5.910156 C 10.582031 -5.914062 10.589844 -5.917969 10.59375 -5.921875 C 10.589844 -5.917969 10.585938 -5.914062 10.582031 -5.910156 C 10.574219 -5.902344 10.570312 -5.898438 10.570312 -5.894531 C 10.570312 -5.898438 10.574219 -5.90625 10.578125 -5.917969 C 10.601562 -5.984375 10.613281 -6.082031 10.613281 -6.203125 L 10.613281 -9.953125 L 11.773438 -9.953125 L 11.414062 -8.847656 L 2.5 -11.746094 C 1.925781 -11.9375 1.484375 -12.246094 1.171875 -12.675781 C 0.855469 -13.109375 0.695312 -13.625 0.695312 -14.222656 L 0.695312 -20.648438 C 0.695312 -22.730469 1.269531 -24.335938 2.414062 -25.46875 C 3.558594 -26.59375 5.15625 -27.15625 7.203125 -27.15625 Z M 7.203125 -24.835938 C 5.789062 -24.835938 4.738281 -24.496094 4.046875 -23.816406 C 3.359375 -23.140625 3.019531 -22.082031 3.019531 -20.648438 L 3.019531 -14.222656 C 3.019531 -14.128906 3.027344 -14.070312 3.046875 -14.046875 C 3.066406 -14.015625 3.125 -13.984375 3.21875 -13.953125 L 12.933594 -10.796875 L 12.933594 -6.203125 C 12.933594 -5.386719 12.695312 -4.742188 12.222656 -4.265625 C 11.75 -3.792969 11.101562 -3.554688 10.289062 -3.554688 L 8.28125 -3.554688 C 7.464844 -3.554688 6.820312 -3.792969 6.347656 -4.265625 C 5.871094 -4.742188 5.636719 -5.386719 5.636719 -6.203125 L 5.636719 -7.761719 C 5.636719 -7.734375 5.644531 -7.699219 5.660156 -7.65625 C 5.691406 -7.554688 5.746094 -7.464844 5.828125 -7.386719 C 5.90625 -7.308594 5.996094 -7.25 6.09375 -7.21875 C 6.140625 -7.203125 6.175781 -7.195312 6.203125 -7.195312 L 2.453125 -7.195312 C 2.476562 -7.195312 2.511719 -7.203125 2.558594 -7.21875 C 2.65625 -7.25 2.746094 -7.308594 2.828125 -7.386719 C 2.90625 -7.464844 2.960938 -7.554688 2.996094 -7.65625 C 3.011719 -7.699219 3.019531 -7.734375 3.019531 -7.761719 L 3.019531 -5.347656 C 3.019531 -3.933594 3.363281 -2.882812 4.050781 -2.195312 C 4.742188 -1.503906 5.792969 -1.160156 7.203125 -1.160156 L 11.363281 -1.160156 C 12.800781 -1.160156 13.855469 -1.503906 14.53125 -2.1875 C 15.210938 -2.878906 15.550781 -3.933594 15.550781 -5.347656 L 15.550781 -12.332031 C 15.550781 -12.433594 15.542969 -12.496094 15.523438 -12.527344 C 15.503906 -12.550781 15.460938 -12.574219 15.390625 -12.601562 L 5.597656 -15.753906 L 5.597656 -19.757812 C 5.597656 -20.574219 5.835938 -21.21875 6.308594 -21.691406 C 6.785156 -22.167969 7.429688 -22.40625 8.246094 -22.40625 L 10.289062 -22.40625 C 11.101562 -22.40625 11.75 -22.167969 12.222656 -21.691406 C 12.695312 -21.21875 12.933594 -20.574219 12.933594 -19.757812 L 12.933594 -18.199219 C 12.933594 -18.226562 12.925781 -18.261719 12.910156 -18.304688 C 12.878906 -18.402344 12.820312 -18.492188 12.742188 -18.574219 C 12.664062 -18.652344 12.574219 -18.710938 12.472656 -18.742188 C 12.429688 -18.757812 12.394531 -18.765625 12.367188 -18.765625 L 16.117188 -18.765625 C 16.09375 -18.765625 16.054688 -18.757812 16.011719 -18.742188 C 15.914062 -18.710938 15.824219 -18.652344 15.742188 -18.574219 C 15.664062 -18.492188 15.605469 -18.402344 15.574219 -18.304688 C 15.558594 -18.261719 15.550781 -18.226562 15.550781 -18.199219 L 15.550781 -20.648438 C 15.550781 -22.085938 15.214844 -23.144531 14.535156 -23.820312 C 13.859375 -24.5 12.800781 -24.835938 11.363281 -24.835938 Z M 7.203125 -24.835938 "/></g></g><g style="fill:#060705;fill-opacity:1;"><g transform="translate(31.725873, 60.702901)"><path style="stroke:none" d="M 1.859375 -0.59375 L 1.859375 -25.40625 C 1.859375 -25.800781 2.054688 -26 2.453125 -26 L 11.359375 -26 C 13.117188 -26 14.453125 -25.539062 15.359375 -24.625 C 16.265625 -23.707031 16.71875 -22.367188 16.71875 -20.609375 L 16.71875 -5.34375 C 16.71875 -3.613281 16.265625 -2.289062 15.359375 -1.375 C 14.453125 -0.457031 13.117188 0 11.359375 0 L 2.453125 0 C 2.054688 0 1.859375 -0.195312 1.859375 -0.59375 Z M 6.90625 -4.90625 L 10.328125 -4.90625 C 11.316406 -4.90625 11.8125 -5.398438 11.8125 -6.390625 L 11.8125 -19.578125 C 11.8125 -20.585938 11.316406 -21.09375 10.328125 -21.09375 L 6.90625 -21.09375 Z M 6.90625 -4.90625 "/></g></g><g style="fill:#060705;fill-opacity:1;"><g transform="translate(50.289604, 60.702901)"><path style="stroke:none" d="M 16.71875 -20.65625 L 16.71875 -13.1875 C 16.71875 -11.03125 16.023438 -9.519531 14.640625 -8.65625 L 16.5625 -0.671875 C 16.6875 -0.222656 16.515625 0 16.046875 0 L 12.40625 0 C 12.0625 0 11.851562 -0.171875 11.78125 -0.515625 L 9.984375 -7.84375 L 6.6875 -7.84375 L 6.6875 -0.59375 C 6.6875 -0.195312 6.488281 0 6.09375 0 L 2.453125 0 C 2.054688 0 1.859375 -0.195312 1.859375 -0.59375 L 1.859375 -25.40625 C 1.859375 -25.800781 2.054688 -26 2.453125 -26 L 11.359375 -26 C 13.117188 -26 14.453125 -25.546875 15.359375 -24.640625 C 16.265625 -23.734375 16.71875 -22.40625 16.71875 -20.65625 Z M 6.6875 -12.625 L 10.40625 -12.625 C 11.394531 -12.625 11.890625 -13.117188 11.890625 -14.109375 L 11.890625 -19.71875 C 11.890625 -20.707031 11.394531 -21.203125 10.40625 -21.203125 L 6.6875 -21.203125 Z M 6.6875 -12.625 "/></g></g><g style="fill:#060705;fill-opacity:1;"><g transform="translate(68.853335, 60.702901)"><path style="stroke:none" d="M 14.78125 -26 L 18.5 -26 C 18.769531 -26 18.96875 -25.914062 19.09375 -25.75 C 19.21875 -25.59375 19.21875 -25.390625 19.09375 -25.140625 L 12.296875 -9.734375 L 12.296875 -0.75 C 12.296875 -0.25 12.046875 0 11.546875 0 L 7.984375 0 C 7.492188 0 7.25 -0.25 7.25 -0.75 L 7.25 -9.734375 L 0.453125 -25.140625 C 0.347656 -25.390625 0.347656 -25.59375 0.453125 -25.75 C 0.566406 -25.914062 0.765625 -26 1.046875 -26 L 4.75 -26 C 5.175781 -26 5.460938 -25.800781 5.609375 -25.40625 L 9.765625 -15.859375 L 13.921875 -25.40625 C 14.078125 -25.800781 14.363281 -26 14.78125 -26 Z M 14.78125 -26 "/></g></g><g style="fill:#060705;fill-opacity:1;"><g transform="translate(88.382381, 60.702901)"><path style="stroke:none" d="M 0 4.984375 L 0 1.5625 C 0 1.0625 0.25 0.8125 0.75 0.8125 L 23.140625 0.8125 C 23.628906 0.8125 23.875 1.0625 23.875 1.5625 L 23.875 4.984375 C 23.875 5.472656 23.628906 5.71875 23.140625 5.71875 L 0.75 5.71875 C 0.25 5.71875 0 5.472656 0 4.984375 Z M 0 4.984375 "/></g></g><g style="fill:#060705;fill-opacity:1;"><g transform="translate(25.106481, 112.481256)"><path style="stroke:none" d="M 14.21875 -26 L 17.609375 -26 C 18.171875 -26 18.390625 -25.726562 18.265625 -25.1875 L 12.375 -0.671875 C 12.269531 -0.222656 11.992188 0 11.546875 0 L 7.84375 0 C 7.414062 0 7.140625 -0.222656 7.015625 -0.671875 L 1.15625 -25.1875 C 1.03125 -25.726562 1.25 -26 1.8125 -26 L 5.203125 -26 C 5.648438 -26 5.921875 -25.773438 6.015625 -25.328125 L 9.6875 -8.546875 L 13.40625 -25.328125 C 13.53125 -25.773438 13.800781 -26 14.21875 -26 Z M 14.21875 -26 "/></g></g><g style="fill:#060705;fill-opacity:1;"><g transform="translate(44.524139, 112.481256)"><path style="stroke:none" d="M 2.453125 0 L 6.3125 0 C 6.707031 0 6.90625 -0.195312 6.90625 -0.59375 L 6.90625 -25.40625 C 6.90625 -25.800781 6.707031 -26 6.3125 -26 L 2.453125 -26 C 2.054688 -26 1.859375 -25.800781 1.859375 -25.40625 L 1.859375 -0.59375 C 1.859375 -0.195312 2.054688 0 2.453125 0 Z M 2.453125 0 "/></g></g><g style="fill:#060705;fill-opacity:1;"><g transform="translate(53.286215, 112.481256)"><path style="stroke:none" d="M 16.671875 -25.40625 L 16.671875 -21.6875 C 16.671875 -21.269531 16.472656 -21.0625 16.078125 -21.0625 L 6.90625 -21.0625 L 6.90625 -15.34375 L 13.890625 -15.34375 C 14.285156 -15.34375 14.484375 -15.128906 14.484375 -14.703125 L 14.484375 -11.03125 C 14.484375 -10.613281 14.285156 -10.40625 13.890625 -10.40625 L 6.90625 -10.40625 L 6.90625 -4.90625 L 16.078125 -4.90625 C 16.472656 -4.90625 16.671875 -4.707031 16.671875 -4.3125 L 16.671875 -0.59375 C 16.671875 -0.195312 16.472656 0 16.078125 0 L 2.421875 0 C 2.046875 0 1.859375 -0.195312 1.859375 -0.59375 L 1.859375 -25.40625 C 1.859375 -25.800781 2.046875 -26 2.421875 -26 L 16.078125 -26 C 16.472656 -26 16.671875 -25.800781 16.671875 -25.40625 Z M 16.671875 -25.40625 "/></g></g><g style="fill:#060705;fill-opacity:1;"><g transform="translate(71.812813, 112.481256)"><path style="stroke:none" d="M 22.875 -26 L 26.375 -26 C 26.914062 -26 27.148438 -25.738281 27.078125 -25.21875 L 23.515625 -0.671875 C 23.441406 -0.222656 23.164062 0 22.6875 0 L 18.6875 0 C 18.257812 0 17.984375 -0.222656 17.859375 -0.671875 L 14.453125 -15.890625 L 11 -0.671875 C 10.894531 -0.222656 10.617188 0 10.171875 0 L 6.09375 0 C 5.625 0 5.351562 -0.234375 5.28125 -0.703125 L 1.859375 -25.21875 C 1.785156 -25.738281 2.019531 -26 2.5625 -26 L 6.046875 -26 C 6.492188 -26 6.753906 -25.765625 6.828125 -25.296875 L 8.65625 -9.765625 L 8.84375 -9.765625 L 12.484375 -25.359375 C 12.609375 -25.785156 12.878906 -26 13.296875 -26 L 15.5625 -26 C 15.976562 -26 16.25 -25.785156 16.375 -25.359375 L 20.015625 -9.765625 L 20.203125 -9.765625 L 22.09375 -25.296875 C 22.164062 -25.765625 22.425781 -26 22.875 -26 Z M 22.875 -26 "/></g></g><g style="fill:#060705;fill-opacity:1;"><g transform="translate(100.289572, 112.481256)"><path style="stroke:none" d="M 7.203125 -26 L 11.359375 -26 C 13.117188 -26 14.453125 -25.546875 15.359375 -24.640625 C 16.265625 -23.734375 16.71875 -22.40625 16.71875 -20.65625 L 16.71875 -18.203125 C 16.71875 -17.804688 16.519531 -17.609375 16.125 -17.609375 L 12.375 -17.609375 C 11.976562 -17.609375 11.78125 -17.804688 11.78125 -18.203125 L 11.78125 -19.765625 C 11.78125 -20.753906 11.28125 -21.25 10.28125 -21.25 L 8.25 -21.25 C 7.257812 -21.25 6.765625 -20.753906 6.765625 -19.765625 L 6.765625 -16.609375 L 15.75 -13.703125 C 16.394531 -13.484375 16.71875 -13.023438 16.71875 -12.328125 L 16.71875 -5.34375 C 16.71875 -3.613281 16.265625 -2.289062 15.359375 -1.375 C 14.453125 -0.457031 13.117188 0 11.359375 0 L 7.203125 0 C 5.472656 0 4.148438 -0.457031 3.234375 -1.375 C 2.316406 -2.289062 1.859375 -3.613281 1.859375 -5.34375 L 1.859375 -7.765625 C 1.859375 -8.160156 2.054688 -8.359375 2.453125 -8.359375 L 6.203125 -8.359375 C 6.597656 -8.359375 6.796875 -8.160156 6.796875 -7.765625 L 6.796875 -6.203125 C 6.796875 -5.210938 7.289062 -4.71875 8.28125 -4.71875 L 10.28125 -4.71875 C 11.28125 -4.71875 11.78125 -5.210938 11.78125 -6.203125 L 11.78125 -9.953125 L 2.859375 -12.84375 C 2.191406 -13.070312 1.859375 -13.53125 1.859375 -14.21875 L 1.859375 -20.65625 C 1.859375 -22.40625 2.316406 -23.734375 3.234375 -24.640625 C 4.148438 -25.546875 5.472656 -26 7.203125 -26 Z M 7.203125 -26 "/></g></g></g></svg>