<svg xmlns="http://www.w3.org/2000/svg" xmlns:xlink="http://www.w3.org/1999/xlink" width="500" zoomAndPan="magnify" viewBox="0 0 375 374.999991" height="500" preserveAspectRatio="xMidYMid meet" version="1.2"><defs><clipPath id="5856775147"><path d="M 25 0 L 350 0 L 350 375 L 25 375 Z M 25 0 "/></clipPath><clipPath id="4827d4afd9"><path d="M -55.878906 142.882812 L 268.328125 -46.476562 L 431 232.042969 L 106.789062 421.402344 Z M -55.878906 142.882812 "/></clipPath><clipPath id="e6aa23d2dd"><path d="M 349.546875 92.851562 L 349.859375 279.433594 L 187.8125 374.078125 L 25.453125 282.140625 L 25.140625 95.5625 L 187.1875 0.917969 Z M 349.546875 92.851562 "/></clipPath><clipPath id="9a57481e0f"><path d="M 55.238281 35.632812 L 319.726562 35.632812 L 319.726562 339 L 55.238281 339 Z M 55.238281 35.632812 "/></clipPath></defs><g id="6a9be50a5d"><g clip-rule="nonzero" clip-path="url(#5856775147)"><g clip-rule="nonzero" clip-path="url(#4827d4afd9)"><g clip-rule="nonzero" clip-path="url(#e6aa23d2dd)"><path style=" stroke:none;fill-rule:nonzero;fill:#65b30e;fill-opacity:1;" d="M -55.878906 142.882812 L 268.332031 -46.476562 L 431 232.042969 L 106.789062 421.402344 Z M -55.878906 142.882812 "/></g></g></g><path style=" stroke:none;fill-rule:nonzero;fill:#87ff00;fill-opacity:1;" d="M 134.582031 135.703125 L 134.414062 135.535156 L 97.035156 172.914062 L 187.792969 263.503906 L 225.175781 226.296875 L 278.546875 172.914062 L 241.167969 135.535156 L 241.167969 135.367188 L 134.417969 135.367188 Z M 134.582031 135.703125 "/><g clip-rule="nonzero" clip-path="url(#9a57481e0f)"><path style=" stroke:none;fill-rule:nonzero;fill:#87ff00;fill-opacity:1;" d="M 187.453125 35.851562 L 55.269531 111.625 L 55.273438 263.175781 L 187.457031 338.949219 L 319.640625 263.175781 L 319.640625 111.625 L 187.457031 35.855469 Z M 294.375 248.683594 L 187.453125 310.308594 L 80.527344 248.683594 L 80.53125 125.765625 L 187.457031 64.136719 L 294.378906 125.765625 L 294.378906 248.683594 Z M 294.375 248.683594 "/></g><g style="fill:#b21a22;fill-opacity:1;"><g transform="translate(82.619459, 158.08043)"><path style="stroke:none" d="M 1.8125 -1.546875 L 1.8125 -66.152344 C 1.8125 -67.503906 2.238281 -68.605469 3.085938 -69.453125 C 3.933594 -70.300781 5.03125 -70.722656 6.382812 -70.722656 L 29.59375 -70.722656 C 35.015625 -70.722656 39.199219 -69.230469 42.144531 -66.246094 C 45.078125 -63.273438 46.546875 -59.082031 46.546875 -53.679688 L 46.546875 -13.925781 C 46.546875 -8.585938 45.078125 -4.429688 42.144531 -1.457031 C 39.199219 1.53125 35.015625 3.023438 29.59375 3.023438 L 6.382812 3.023438 C 5.03125 3.023438 3.933594 2.597656 3.085938 1.75 C 2.238281 0.902344 1.8125 -0.195312 1.8125 -1.546875 Z M 7.859375 -1.546875 C 7.859375 -1.617188 7.839844 -1.710938 7.800781 -1.828125 C 7.714844 -2.085938 7.566406 -2.316406 7.359375 -2.523438 C 7.152344 -2.730469 6.921875 -2.878906 6.664062 -2.964844 C 6.546875 -3.003906 6.453125 -3.023438 6.382812 -3.023438 L 29.59375 -3.023438 C 33.332031 -3.023438 36.078125 -3.914062 37.839844 -5.703125 C 39.613281 -7.5 40.5 -10.242188 40.5 -13.925781 L 40.5 -53.679688 C 40.5 -57.429688 39.613281 -60.203125 37.839844 -62 C 36.078125 -63.785156 33.332031 -64.679688 29.59375 -64.679688 L 6.382812 -64.679688 C 6.453125 -64.679688 6.546875 -64.699219 6.664062 -64.738281 C 6.921875 -64.824219 7.152344 -64.96875 7.359375 -65.175781 C 7.566406 -65.386719 7.714844 -65.617188 7.800781 -65.875 C 7.839844 -65.992188 7.859375 -66.085938 7.859375 -66.152344 Z M 17.988281 -15.789062 L 26.886719 -15.789062 C 27.203125 -15.789062 27.449219 -15.816406 27.625 -15.875 C 27.65625 -15.886719 27.679688 -15.894531 27.691406 -15.902344 C 27.679688 -15.894531 27.664062 -15.886719 27.652344 -15.871094 C 27.636719 -15.855469 27.625 -15.84375 27.621094 -15.832031 C 27.628906 -15.84375 27.636719 -15.867188 27.648438 -15.898438 C 27.703125 -16.070312 27.734375 -16.316406 27.734375 -16.636719 L 27.734375 -50.96875 C 27.734375 -51.3125 27.703125 -51.578125 27.640625 -51.769531 C 27.625 -51.8125 27.613281 -51.839844 27.601562 -51.859375 C 27.605469 -51.851562 27.613281 -51.84375 27.625 -51.832031 L 27.601562 -51.828125 C 27.4375 -51.882812 27.199219 -51.914062 26.886719 -51.914062 L 17.988281 -51.914062 L 17.988281 -54.933594 L 21.011719 -54.933594 L 21.011719 -12.765625 L 17.988281 -12.765625 Z M 14.964844 -9.742188 L 14.964844 -57.957031 L 26.886719 -57.957031 C 29.027344 -57.957031 30.714844 -57.324219 31.953125 -56.054688 C 33.167969 -54.804688 33.777344 -53.113281 33.777344 -50.96875 L 33.777344 -16.636719 C 33.777344 -14.511719 33.160156 -12.832031 31.925781 -11.597656 C 30.691406 -10.363281 29.011719 -9.742188 26.886719 -9.742188 Z M 14.964844 -9.742188 "/></g></g><g style="fill:#b21a22;fill-opacity:1;"><g transform="translate(130.962509, 158.08043)"><path style="stroke:none" d="M 46.546875 -53.773438 L 46.546875 -34.335938 C 46.546875 -27.609375 44.265625 -22.820312 39.707031 -19.972656 L 38.105469 -22.535156 L 41.042969 -23.246094 L 46.074219 -2.453125 L 43.136719 -1.742188 L 46.046875 -2.550781 C 46.480469 -0.992188 46.273438 0.332031 45.425781 1.421875 C 44.59375 2.488281 43.378906 3.023438 41.78125 3.023438 L 32.304688 3.023438 C 31.128906 3.023438 30.125 2.679688 29.292969 1.996094 C 28.476562 1.324219 27.949219 0.417969 27.703125 -0.722656 L 30.660156 -1.355469 L 27.722656 -0.636719 L 23.082031 -19.691406 L 26.015625 -20.40625 L 26.015625 -17.382812 L 17.410156 -17.382812 L 17.410156 -20.40625 L 20.429688 -20.40625 L 20.429688 -1.546875 C 20.429688 -0.195312 20.007812 0.902344 19.160156 1.75 C 18.3125 2.597656 17.210938 3.023438 15.863281 3.023438 L 6.382812 3.023438 C 5.03125 3.023438 3.933594 2.597656 3.085938 1.75 C 2.238281 0.902344 1.8125 -0.195312 1.8125 -1.546875 L 1.8125 -66.152344 C 1.8125 -67.503906 2.238281 -68.605469 3.085938 -69.453125 C 3.933594 -70.300781 5.03125 -70.722656 6.382812 -70.722656 L 29.59375 -70.722656 C 35.007812 -70.722656 39.1875 -69.253906 42.128906 -66.308594 C 45.074219 -63.363281 46.546875 -59.1875 46.546875 -53.773438 Z M 40.5 -53.773438 C 40.5 -57.519531 39.617188 -60.269531 37.855469 -62.035156 C 36.09375 -63.796875 33.339844 -64.679688 29.59375 -64.679688 L 6.382812 -64.679688 C 6.453125 -64.679688 6.546875 -64.699219 6.664062 -64.738281 C 6.921875 -64.824219 7.152344 -64.96875 7.359375 -65.175781 C 7.566406 -65.386719 7.714844 -65.617188 7.800781 -65.875 C 7.839844 -65.992188 7.859375 -66.085938 7.859375 -66.152344 L 7.859375 -1.546875 C 7.859375 -1.617188 7.839844 -1.710938 7.800781 -1.828125 C 7.714844 -2.085938 7.566406 -2.316406 7.359375 -2.523438 C 7.152344 -2.730469 6.921875 -2.878906 6.664062 -2.964844 C 6.546875 -3.003906 6.453125 -3.023438 6.382812 -3.023438 L 15.863281 -3.023438 C 15.792969 -3.023438 15.699219 -3.003906 15.582031 -2.964844 C 15.324219 -2.878906 15.09375 -2.730469 14.886719 -2.523438 C 14.675781 -2.316406 14.53125 -2.085938 14.445312 -1.828125 C 14.40625 -1.710938 14.386719 -1.617188 14.386719 -1.546875 L 14.386719 -23.429688 L 28.390625 -23.429688 L 33.605469 -2.027344 L 33.613281 -1.988281 C 33.5625 -2.222656 33.40625 -2.449219 33.136719 -2.671875 C 32.851562 -2.90625 32.574219 -3.023438 32.304688 -3.023438 L 41.78125 -3.023438 L 41.785156 -3.019531 C 41.71875 -3.011719 41.648438 -2.992188 41.566406 -2.964844 C 41.210938 -2.84375 40.90625 -2.617188 40.652344 -2.289062 C 40.390625 -1.957031 40.246094 -1.59375 40.21875 -1.203125 C 40.207031 -1.070312 40.210938 -0.980469 40.222656 -0.933594 L 40.210938 -0.980469 L 34.65625 -23.941406 L 36.503906 -25.097656 C 39.167969 -26.761719 40.5 -29.839844 40.5 -34.335938 Z M 17.410156 -35.90625 L 27.082031 -35.90625 C 27.398438 -35.90625 27.644531 -35.933594 27.816406 -35.992188 C 27.847656 -36.003906 27.871094 -36.011719 27.882812 -36.019531 C 27.871094 -36.011719 27.859375 -36.003906 27.84375 -35.988281 C 27.832031 -35.972656 27.820312 -35.960938 27.8125 -35.949219 C 27.820312 -35.960938 27.828125 -35.984375 27.839844 -36.015625 C 27.898438 -36.1875 27.925781 -36.433594 27.925781 -36.753906 L 27.925781 -51.355469 C 27.925781 -51.675781 27.898438 -51.917969 27.839844 -52.09375 C 27.828125 -52.125 27.820312 -52.148438 27.8125 -52.160156 C 27.820312 -52.148438 27.832031 -52.136719 27.84375 -52.121094 C 27.859375 -52.105469 27.871094 -52.097656 27.882812 -52.089844 C 27.871094 -52.097656 27.847656 -52.105469 27.816406 -52.117188 C 27.644531 -52.171875 27.398438 -52.203125 27.082031 -52.203125 L 17.410156 -52.203125 L 17.410156 -55.226562 L 20.429688 -55.226562 L 20.429688 -32.882812 L 17.410156 -32.882812 Z M 14.386719 -29.859375 L 14.386719 -58.246094 L 27.082031 -58.246094 C 29.203125 -58.246094 30.882812 -57.628906 32.121094 -56.394531 C 33.355469 -55.160156 33.972656 -53.480469 33.972656 -51.355469 L 33.972656 -36.753906 C 33.972656 -34.628906 33.355469 -32.949219 32.121094 -31.714844 C 30.882812 -30.480469 29.203125 -29.859375 27.082031 -29.859375 Z M 14.386719 -29.859375 "/></g></g><g style="fill:#b21a22;fill-opacity:1;"><g transform="translate(179.305559, 158.08043)"><path style="stroke:none" d="M 38.492188 -70.722656 L 48.164062 -70.722656 C 49.867188 -70.722656 51.179688 -70.121094 52.109375 -68.914062 C 52.6875 -68.164062 52.976562 -67.3125 52.976562 -66.359375 C 52.976562 -65.617188 52.789062 -64.875 52.414062 -64.125 L 49.710938 -65.476562 L 52.476562 -64.257812 L 34.777344 -24.121094 L 32.011719 -25.339844 L 35.035156 -25.339844 L 35.035156 -1.933594 C 35.035156 -0.453125 34.578125 0.742188 33.667969 1.652344 C 32.753906 2.566406 31.558594 3.023438 30.078125 3.023438 L 20.792969 3.023438 C 19.316406 3.023438 18.117188 2.566406 17.207031 1.652344 C 16.292969 0.742188 15.835938 -0.453125 15.835938 -1.933594 L 15.835938 -25.339844 L 18.859375 -25.339844 L 16.09375 -24.121094 L -1.625 -64.304688 L -1.644531 -64.355469 C -2.304688 -66.003906 -2.183594 -67.484375 -1.277344 -68.792969 C -0.386719 -70.082031 0.941406 -70.722656 2.707031 -70.722656 L 12.378906 -70.722656 C 13.558594 -70.722656 14.59375 -70.414062 15.484375 -69.796875 C 16.371094 -69.179688 17.019531 -68.320312 17.433594 -67.214844 L 14.605469 -66.152344 L 17.375 -67.363281 L 28.207031 -42.503906 L 25.4375 -41.296875 L 22.664062 -42.503906 L 33.496094 -67.363281 L 36.269531 -66.152344 L 33.4375 -67.214844 C 33.851562 -68.320312 34.503906 -69.179688 35.390625 -69.796875 C 36.277344 -70.414062 37.3125 -70.722656 38.492188 -70.722656 Z M 38.492188 -64.679688 C 38.578125 -64.679688 38.691406 -64.730469 38.839844 -64.832031 C 38.984375 -64.933594 39.070312 -65.019531 39.097656 -65.09375 L 39.070312 -65.019531 L 25.4375 -33.730469 L 11.800781 -65.019531 L 11.773438 -65.09375 C 11.800781 -65.019531 11.886719 -64.933594 12.03125 -64.832031 C 12.179688 -64.730469 12.296875 -64.679688 12.378906 -64.679688 L 2.707031 -64.679688 C 2.757812 -64.679688 2.847656 -64.703125 2.96875 -64.757812 C 3.261719 -64.878906 3.503906 -65.078125 3.695312 -65.351562 C 3.886719 -65.632812 3.992188 -65.9375 4 -66.269531 C 4.003906 -66.421875 3.992188 -66.53125 3.96875 -66.601562 L 1.160156 -65.476562 L 3.925781 -66.695312 L 21.882812 -25.976562 L 21.882812 -1.933594 C 21.882812 -1.921875 21.882812 -1.910156 21.882812 -1.902344 C 21.882812 -1.902344 21.882812 -1.902344 21.882812 -1.910156 C 21.875 -1.945312 21.867188 -1.992188 21.847656 -2.042969 C 21.777344 -2.253906 21.65625 -2.445312 21.480469 -2.621094 C 21.304688 -2.796875 21.113281 -2.917969 20.902344 -2.988281 C 20.851562 -3.003906 20.808594 -3.015625 20.769531 -3.023438 C 20.761719 -3.023438 20.761719 -3.023438 20.761719 -3.023438 C 20.769531 -3.023438 20.78125 -3.023438 20.792969 -3.023438 L 30.078125 -3.023438 C 30.09375 -3.023438 30.101562 -3.023438 30.113281 -3.023438 C 30.113281 -3.023438 30.109375 -3.023438 30.105469 -3.023438 C 30.066406 -3.015625 30.019531 -3.003906 29.96875 -2.988281 C 29.761719 -2.917969 29.566406 -2.796875 29.390625 -2.621094 C 29.21875 -2.445312 29.09375 -2.253906 29.023438 -2.042969 C 29.007812 -1.992188 28.996094 -1.949219 28.992188 -1.910156 C 28.988281 -1.902344 28.988281 -1.902344 28.988281 -1.902344 C 28.992188 -1.910156 28.992188 -1.921875 28.992188 -1.933594 L 28.992188 -25.976562 L 46.976562 -66.761719 L 47.007812 -66.828125 C 46.957031 -66.726562 46.929688 -66.570312 46.929688 -66.359375 C 46.929688 -65.941406 47.058594 -65.5625 47.316406 -65.230469 C 47.488281 -65.007812 47.699219 -64.84375 47.945312 -64.746094 C 48.054688 -64.699219 48.125 -64.679688 48.164062 -64.679688 Z M 38.492188 -64.679688 "/></g></g><g style="fill:#b21a22;fill-opacity:1;"><g transform="translate(230.162447, 158.08043)"><path style="stroke:none" d="M -3.023438 12.960938 L -3.023438 4.0625 C -3.023438 2.582031 -2.566406 1.386719 -1.652344 0.472656 C -0.742188 -0.4375 0.453125 -0.894531 1.933594 -0.894531 L 60.253906 -0.894531 C 61.734375 -0.894531 62.929688 -0.4375 63.84375 0.472656 C 64.753906 1.386719 65.210938 2.582031 65.210938 4.0625 L 65.210938 12.960938 C 65.210938 14.441406 64.753906 15.636719 63.84375 16.546875 C 62.929688 17.460938 61.734375 17.917969 60.253906 17.917969 L 1.933594 17.917969 C 0.453125 17.917969 -0.742188 17.460938 -1.652344 16.546875 C -2.566406 15.636719 -3.023438 14.441406 -3.023438 12.960938 Z M 3.023438 12.960938 C 3.023438 12.972656 3.023438 12.984375 3.023438 12.992188 C 3.023438 12.992188 3.023438 12.992188 3.023438 12.984375 C 3.015625 12.945312 3.003906 12.902344 2.988281 12.851562 C 2.917969 12.640625 2.796875 12.449219 2.621094 12.273438 C 2.445312 12.097656 2.253906 11.976562 2.042969 11.90625 C 1.992188 11.890625 1.945312 11.878906 1.910156 11.871094 C 1.902344 11.871094 1.902344 11.871094 1.902344 11.871094 C 1.910156 11.871094 1.921875 11.871094 1.933594 11.871094 L 60.253906 11.871094 C 60.269531 11.871094 60.277344 11.871094 60.289062 11.871094 C 60.289062 11.871094 60.285156 11.871094 60.28125 11.871094 C 60.242188 11.878906 60.195312 11.890625 60.144531 11.90625 C 59.933594 11.976562 59.742188 12.097656 59.566406 12.273438 C 59.394531 12.449219 59.269531 12.640625 59.199219 12.851562 C 59.183594 12.902344 59.171875 12.945312 59.167969 12.984375 C 59.164062 12.992188 59.164062 12.992188 59.164062 12.992188 C 59.164062 12.984375 59.167969 12.972656 59.167969 12.960938 L 59.167969 4.0625 C 59.167969 4.046875 59.164062 4.039062 59.164062 4.027344 C 59.164062 4.027344 59.164062 4.03125 59.167969 4.035156 C 59.171875 4.074219 59.183594 4.121094 59.199219 4.171875 C 59.269531 4.382812 59.394531 4.574219 59.566406 4.75 C 59.742188 4.925781 59.933594 5.046875 60.144531 5.117188 C 60.195312 5.132812 60.242188 5.144531 60.28125 5.148438 C 60.285156 5.152344 60.289062 5.152344 60.289062 5.152344 C 60.277344 5.152344 60.269531 5.148438 60.253906 5.148438 L 1.933594 5.148438 C 1.921875 5.148438 1.910156 5.152344 1.902344 5.152344 C 1.902344 5.152344 1.902344 5.152344 1.910156 5.148438 C 1.945312 5.144531 1.992188 5.132812 2.042969 5.117188 C 2.253906 5.046875 2.445312 4.925781 2.621094 4.75 C 2.796875 4.574219 2.917969 4.382812 2.988281 4.171875 C 3.003906 4.121094 3.015625 4.074219 3.023438 4.035156 C 3.023438 4.03125 3.023438 4.027344 3.023438 4.027344 C 3.023438 4.039062 3.023438 4.046875 3.023438 4.0625 Z M 3.023438 12.960938 "/></g></g><g style="fill:#b21a22;fill-opacity:1;"><g transform="translate(65.381459, 292.919896)"><path style="stroke:none" d="M 37.042969 -70.722656 L 45.84375 -70.722656 C 47.539062 -70.722656 48.835938 -70.175781 49.730469 -69.082031 C 50.644531 -67.96875 50.910156 -66.574219 50.53125 -64.902344 L 35.144531 -1.03125 C 34.871094 0.191406 34.289062 1.171875 33.394531 1.902344 C 32.484375 2.648438 31.378906 3.023438 30.078125 3.023438 L 20.40625 3.023438 C 19.140625 3.023438 18.050781 2.648438 17.140625 1.902344 C 16.289062 1.210938 15.699219 0.265625 15.367188 -0.933594 L 15.351562 -0.984375 L 0.0585938 -64.871094 C -0.324219 -66.5625 -0.0625 -67.96875 0.851562 -69.082031 C 1.746094 -70.175781 3.042969 -70.722656 4.738281 -70.722656 L 13.539062 -70.722656 C 14.839844 -70.722656 15.945312 -70.351562 16.855469 -69.605469 C 17.75 -68.875 18.339844 -67.878906 18.617188 -66.617188 L 28.195312 -22.890625 L 25.242188 -22.246094 L 22.292969 -22.898438 L 31.980469 -66.691406 L 32.003906 -66.769531 C 32.335938 -67.964844 32.925781 -68.910156 33.773438 -69.605469 C 34.6875 -70.351562 35.773438 -70.722656 37.042969 -70.722656 Z M 37.042969 -64.679688 C 37.214844 -64.679688 37.402344 -64.761719 37.601562 -64.925781 C 37.699219 -65.007812 37.777344 -65.09375 37.828125 -65.179688 C 37.839844 -65.199219 37.84375 -65.207031 37.847656 -65.214844 C 37.839844 -65.199219 37.835938 -65.179688 37.828125 -65.152344 L 34.914062 -65.960938 L 37.867188 -65.308594 L 28.195312 -21.59375 L 22.289062 -21.597656 L 12.71875 -65.304688 C 12.714844 -65.320312 12.710938 -65.328125 12.710938 -65.332031 C 12.71875 -65.308594 12.730469 -65.285156 12.746094 -65.253906 C 12.8125 -65.136719 12.90625 -65.027344 13.027344 -64.925781 C 13.230469 -64.761719 13.402344 -64.679688 13.539062 -64.679688 L 4.738281 -64.679688 C 4.695312 -64.679688 4.664062 -64.679688 4.648438 -64.675781 C 4.679688 -64.679688 4.726562 -64.691406 4.777344 -64.710938 C 5.0625 -64.808594 5.3125 -64.988281 5.53125 -65.253906 C 5.757812 -65.53125 5.886719 -65.828125 5.925781 -66.140625 C 5.933594 -66.207031 5.9375 -66.261719 5.933594 -66.308594 C 5.933594 -66.300781 5.933594 -66.289062 5.9375 -66.277344 L 21.21875 -2.445312 L 18.28125 -1.742188 L 21.191406 -2.550781 C 21.199219 -2.523438 21.207031 -2.5 21.210938 -2.484375 C 21.210938 -2.492188 21.203125 -2.503906 21.195312 -2.519531 C 21.140625 -2.609375 21.066406 -2.695312 20.96875 -2.773438 C 20.765625 -2.941406 20.578125 -3.023438 20.40625 -3.023438 L 30.078125 -3.023438 C 29.941406 -3.023438 29.769531 -2.941406 29.566406 -2.773438 C 29.445312 -2.675781 29.351562 -2.566406 29.285156 -2.445312 C 29.269531 -2.417969 29.257812 -2.390625 29.25 -2.371094 C 29.25 -2.371094 29.257812 -2.398438 29.269531 -2.449219 L 44.636719 -66.242188 C 44.644531 -66.277344 44.648438 -66.300781 44.648438 -66.308594 C 44.644531 -66.261719 44.648438 -66.207031 44.65625 -66.140625 C 44.695312 -65.828125 44.828125 -65.53125 45.050781 -65.253906 C 45.269531 -64.988281 45.519531 -64.808594 45.804688 -64.710938 C 45.859375 -64.691406 45.902344 -64.679688 45.933594 -64.675781 C 45.917969 -64.679688 45.886719 -64.679688 45.84375 -64.679688 Z M 37.042969 -64.679688 "/></g></g><g style="fill:#b21a22;fill-opacity:1;"><g transform="translate(115.948279, 292.919896)"><path style="stroke:none" d="M 6.382812 -3.023438 L 16.441406 -3.023438 C 16.371094 -3.023438 16.28125 -3.003906 16.164062 -2.964844 C 15.90625 -2.878906 15.671875 -2.730469 15.464844 -2.523438 C 15.257812 -2.316406 15.109375 -2.085938 15.023438 -1.828125 C 14.984375 -1.710938 14.964844 -1.617188 14.964844 -1.546875 L 14.964844 -66.152344 C 14.964844 -66.085938 14.984375 -65.992188 15.023438 -65.875 C 15.109375 -65.617188 15.257812 -65.386719 15.464844 -65.175781 C 15.671875 -64.96875 15.90625 -64.824219 16.164062 -64.738281 C 16.28125 -64.699219 16.371094 -64.679688 16.441406 -64.679688 L 6.382812 -64.679688 C 6.453125 -64.679688 6.546875 -64.699219 6.664062 -64.738281 C 6.921875 -64.824219 7.152344 -64.96875 7.359375 -65.175781 C 7.566406 -65.386719 7.714844 -65.617188 7.800781 -65.875 C 7.839844 -65.992188 7.859375 -66.085938 7.859375 -66.152344 L 7.859375 -1.546875 C 7.859375 -1.617188 7.839844 -1.710938 7.800781 -1.828125 C 7.714844 -2.085938 7.566406 -2.316406 7.359375 -2.523438 C 7.152344 -2.730469 6.921875 -2.878906 6.664062 -2.964844 C 6.546875 -3.003906 6.453125 -3.023438 6.382812 -3.023438 Z M 6.382812 3.023438 C 5.03125 3.023438 3.933594 2.597656 3.085938 1.75 C 2.238281 0.902344 1.8125 -0.195312 1.8125 -1.546875 L 1.8125 -66.152344 C 1.8125 -67.503906 2.238281 -68.605469 3.085938 -69.453125 C 3.933594 -70.300781 5.03125 -70.722656 6.382812 -70.722656 L 16.441406 -70.722656 C 17.792969 -70.722656 18.890625 -70.300781 19.738281 -69.453125 C 20.585938 -68.605469 21.011719 -67.503906 21.011719 -66.152344 L 21.011719 -1.546875 C 21.011719 -0.195312 20.585938 0.902344 19.738281 1.75 C 18.890625 2.597656 17.792969 3.023438 16.441406 3.023438 Z M 6.382812 3.023438 "/></g></g><g style="fill:#b21a22;fill-opacity:1;"><g transform="translate(138.766184, 292.919896)"><path style="stroke:none" d="M 46.449219 -66.152344 L 46.449219 -56.484375 C 46.449219 -55.136719 46.046875 -54.035156 45.238281 -53.179688 C 44.386719 -52.269531 43.265625 -51.816406 41.878906 -51.816406 L 17.988281 -51.816406 L 17.988281 -54.839844 L 21.011719 -54.839844 L 21.011719 -39.945312 L 17.988281 -39.945312 L 17.988281 -42.964844 L 36.171875 -42.964844 C 37.558594 -42.964844 38.679688 -42.511719 39.535156 -41.605469 C 40.339844 -40.75 40.742188 -39.648438 40.742188 -38.300781 L 40.742188 -28.726562 C 40.742188 -27.378906 40.339844 -26.277344 39.535156 -25.421875 C 38.679688 -24.511719 37.558594 -24.058594 36.171875 -24.058594 L 17.988281 -24.058594 L 17.988281 -27.082031 L 21.011719 -27.082031 L 21.011719 -12.765625 L 17.988281 -12.765625 L 17.988281 -15.789062 L 41.878906 -15.789062 C 43.230469 -15.789062 44.328125 -15.363281 45.175781 -14.515625 C 46.023438 -13.667969 46.449219 -12.570312 46.449219 -11.21875 L 46.449219 -1.546875 C 46.449219 -0.195312 46.023438 0.902344 45.175781 1.75 C 44.328125 2.597656 43.230469 3.023438 41.878906 3.023438 L 6.285156 3.023438 C 4.929688 3.023438 3.832031 2.574219 2.992188 1.679688 C 2.207031 0.839844 1.8125 -0.234375 1.8125 -1.546875 L 1.8125 -66.152344 C 1.8125 -67.46875 2.207031 -68.542969 2.992188 -69.382812 C 3.832031 -70.277344 4.929688 -70.722656 6.285156 -70.722656 L 41.878906 -70.722656 C 43.230469 -70.722656 44.328125 -70.300781 45.175781 -69.453125 C 46.023438 -68.605469 46.449219 -67.503906 46.449219 -66.152344 Z M 40.402344 -66.152344 C 40.402344 -66.085938 40.421875 -65.992188 40.460938 -65.875 C 40.546875 -65.617188 40.695312 -65.386719 40.902344 -65.175781 C 41.109375 -64.96875 41.339844 -64.824219 41.597656 -64.738281 C 41.714844 -64.699219 41.808594 -64.679688 41.878906 -64.679688 L 6.285156 -64.679688 C 6.675781 -64.679688 7.046875 -64.867188 7.402344 -65.246094 C 7.597656 -65.457031 7.734375 -65.683594 7.8125 -65.929688 C 7.84375 -66.03125 7.859375 -66.105469 7.859375 -66.152344 L 7.859375 -1.546875 C 7.859375 -1.597656 7.84375 -1.671875 7.8125 -1.773438 C 7.734375 -2.019531 7.597656 -2.246094 7.402344 -2.453125 C 7.046875 -2.832031 6.675781 -3.023438 6.285156 -3.023438 L 41.878906 -3.023438 C 41.808594 -3.023438 41.714844 -3.003906 41.597656 -2.964844 C 41.339844 -2.878906 41.109375 -2.730469 40.902344 -2.523438 C 40.695312 -2.316406 40.546875 -2.085938 40.460938 -1.828125 C 40.421875 -1.710938 40.402344 -1.617188 40.402344 -1.546875 L 40.402344 -11.21875 C 40.402344 -11.148438 40.421875 -11.058594 40.460938 -10.941406 C 40.546875 -10.683594 40.695312 -10.449219 40.902344 -10.242188 C 41.109375 -10.035156 41.339844 -9.886719 41.597656 -9.800781 C 41.714844 -9.761719 41.808594 -9.742188 41.878906 -9.742188 L 14.964844 -9.742188 L 14.964844 -30.101562 L 36.171875 -30.101562 C 36.082031 -30.101562 35.972656 -30.078125 35.839844 -30.03125 C 35.574219 -29.9375 35.335938 -29.78125 35.132812 -29.5625 C 34.945312 -29.363281 34.8125 -29.144531 34.738281 -28.910156 C 34.710938 -28.820312 34.695312 -28.757812 34.695312 -28.726562 L 34.695312 -38.300781 C 34.695312 -38.265625 34.710938 -38.203125 34.738281 -38.113281 C 34.8125 -37.878906 34.945312 -37.660156 35.132812 -37.460938 C 35.335938 -37.242188 35.574219 -37.085938 35.839844 -36.992188 C 35.972656 -36.945312 36.082031 -36.921875 36.171875 -36.921875 L 14.964844 -36.921875 L 14.964844 -57.859375 L 41.878906 -57.859375 C 41.789062 -57.859375 41.679688 -57.835938 41.546875 -57.789062 C 41.28125 -57.695312 41.042969 -57.539062 40.835938 -57.320312 C 40.648438 -57.121094 40.519531 -56.902344 40.445312 -56.667969 C 40.417969 -56.578125 40.402344 -56.515625 40.402344 -56.484375 Z M 40.402344 -66.152344 "/></g></g><g style="fill:#b21a22;fill-opacity:1;"><g transform="translate(187.012531, 292.919896)"><path style="stroke:none" d="M 59.578125 -70.722656 L 68.667969 -70.722656 C 70.273438 -70.722656 71.527344 -70.222656 72.433594 -69.222656 C 73.375 -68.183594 73.730469 -66.855469 73.5 -65.242188 L 64.210938 -1.304688 C 63.984375 0.0625 63.398438 1.132812 62.457031 1.902344 C 61.546875 2.648438 60.425781 3.023438 59.09375 3.023438 L 48.648438 3.023438 C 47.382812 3.023438 46.292969 2.648438 45.378906 1.902344 C 44.53125 1.210938 43.941406 0.265625 43.609375 -0.933594 L 43.589844 -1.003906 L 34.671875 -40.734375 L 37.621094 -41.394531 L 40.570312 -40.726562 L 31.574219 -1.074219 C 31.296875 0.179688 30.710938 1.171875 29.816406 1.902344 C 28.90625 2.648438 27.800781 3.023438 26.5 3.023438 L 15.863281 3.023438 C 14.5 3.023438 13.355469 2.625 12.433594 1.828125 C 11.523438 1.039062 10.960938 -0.0234375 10.75 -1.367188 L 1.84375 -65.253906 C 1.613281 -66.859375 1.96875 -68.183594 2.910156 -69.222656 C 3.816406 -70.222656 5.070312 -70.722656 6.671875 -70.722656 L 15.765625 -70.722656 C 17.121094 -70.722656 18.257812 -70.3125 19.171875 -69.484375 C 20.035156 -68.699219 20.574219 -67.652344 20.78125 -66.335938 L 20.789062 -66.277344 L 25.535156 -25.789062 L 22.535156 -25.4375 L 22.535156 -28.460938 L 23.019531 -28.460938 L 23.019531 -25.4375 L 20.074219 -26.125 L 29.574219 -66.828125 L 29.597656 -66.910156 C 29.941406 -68.085938 30.550781 -69.007812 31.421875 -69.683594 C 32.320312 -70.378906 33.386719 -70.722656 34.625 -70.722656 L 40.523438 -70.722656 C 41.761719 -70.722656 42.828125 -70.378906 43.726562 -69.683594 C 44.597656 -69.007812 45.207031 -68.085938 45.550781 -66.910156 L 45.574219 -66.828125 L 55.074219 -26.125 L 52.128906 -25.4375 L 52.128906 -28.460938 L 52.613281 -28.460938 L 52.613281 -25.4375 L 49.613281 -25.800781 L 54.550781 -66.28125 L 54.5625 -66.335938 C 54.769531 -67.652344 55.304688 -68.699219 56.171875 -69.484375 C 57.085938 -70.3125 58.222656 -70.722656 59.578125 -70.722656 Z M 59.578125 -64.679688 C 59.773438 -64.679688 59.988281 -64.785156 60.226562 -65 C 60.355469 -65.117188 60.449219 -65.242188 60.515625 -65.375 C 60.527344 -65.402344 60.535156 -65.425781 60.542969 -65.445312 C 60.539062 -65.433594 60.535156 -65.417969 60.53125 -65.394531 L 57.546875 -65.863281 L 60.546875 -65.496094 L 55.289062 -22.414062 L 49.730469 -22.414062 L 39.707031 -65.371094 L 42.652344 -66.058594 L 39.753906 -65.203125 C 39.746094 -65.21875 39.746094 -65.230469 39.742188 -65.234375 C 39.75 -65.214844 39.761719 -65.195312 39.777344 -65.171875 C 39.839844 -65.070312 39.921875 -64.980469 40.03125 -64.898438 C 40.21875 -64.753906 40.382812 -64.679688 40.523438 -64.679688 L 34.625 -64.679688 C 34.765625 -64.679688 34.929688 -64.753906 35.117188 -64.898438 C 35.226562 -64.980469 35.308594 -65.070312 35.371094 -65.171875 C 35.386719 -65.195312 35.398438 -65.214844 35.40625 -65.234375 C 35.402344 -65.230469 35.402344 -65.21875 35.398438 -65.203125 L 32.496094 -66.058594 L 35.441406 -65.371094 L 25.417969 -22.414062 L 19.847656 -22.414062 L 14.792969 -65.511719 L 17.796875 -65.863281 L 14.808594 -65.394531 C 14.804688 -65.417969 14.804688 -65.433594 14.800781 -65.445312 C 14.804688 -65.425781 14.816406 -65.402344 14.828125 -65.375 C 14.890625 -65.242188 14.988281 -65.117188 15.113281 -65 C 15.351562 -64.785156 15.570312 -64.679688 15.765625 -64.679688 L 6.671875 -64.679688 C 6.636719 -64.679688 6.609375 -64.679688 6.59375 -64.675781 C 6.628906 -64.679688 6.667969 -64.691406 6.714844 -64.707031 C 6.964844 -64.789062 7.191406 -64.941406 7.390625 -65.164062 C 7.605469 -65.402344 7.742188 -65.664062 7.800781 -65.949219 C 7.816406 -66.015625 7.824219 -66.074219 7.824219 -66.125 C 7.824219 -66.132812 7.824219 -66.136719 7.824219 -66.136719 C 7.824219 -66.125 7.828125 -66.109375 7.828125 -66.089844 L 16.71875 -2.308594 C 16.722656 -2.289062 16.722656 -2.28125 16.726562 -2.277344 C 16.71875 -2.300781 16.707031 -2.332031 16.6875 -2.367188 C 16.621094 -2.503906 16.519531 -2.632812 16.386719 -2.746094 C 16.25 -2.863281 16.105469 -2.949219 15.953125 -2.996094 C 15.910156 -3.007812 15.875 -3.019531 15.84375 -3.023438 L 26.5 -3.023438 C 26.363281 -3.023438 26.191406 -2.941406 25.988281 -2.773438 C 25.867188 -2.675781 25.773438 -2.566406 25.707031 -2.445312 C 25.691406 -2.417969 25.679688 -2.390625 25.671875 -2.371094 C 25.671875 -2.371094 25.675781 -2.386719 25.679688 -2.410156 L 34.675781 -42.0625 L 40.570312 -42.054688 L 49.46875 -2.402344 L 46.519531 -1.742188 L 49.433594 -2.550781 C 49.441406 -2.523438 49.449219 -2.5 49.453125 -2.484375 C 49.449219 -2.492188 49.445312 -2.503906 49.433594 -2.519531 C 49.382812 -2.609375 49.308594 -2.695312 49.207031 -2.773438 C 49.007812 -2.941406 48.820312 -3.023438 48.648438 -3.023438 L 59.09375 -3.023438 C 59.113281 -3.023438 59.128906 -3.023438 59.132812 -3.023438 C 59.109375 -3.019531 59.082031 -3.015625 59.046875 -3.003906 C 58.902344 -2.960938 58.765625 -2.882812 58.628906 -2.773438 C 58.398438 -2.585938 58.265625 -2.382812 58.230469 -2.175781 L 67.515625 -66.097656 C 67.515625 -66.113281 67.519531 -66.125 67.519531 -66.136719 C 67.519531 -66.136719 67.519531 -66.132812 67.519531 -66.125 C 67.519531 -66.074219 67.527344 -66.015625 67.539062 -65.949219 C 67.597656 -65.664062 67.734375 -65.402344 67.949219 -65.164062 C 68.152344 -64.941406 68.378906 -64.789062 68.625 -64.707031 C 68.675781 -64.691406 68.714844 -64.679688 68.746094 -64.675781 C 68.734375 -64.679688 68.707031 -64.679688 68.667969 -64.679688 Z M 59.578125 -64.679688 "/></g></g><g style="fill:#b21a22;fill-opacity:1;"><g transform="translate(261.170759, 292.919896)"><path style="stroke:none" d="M 18.761719 -70.722656 L 29.59375 -70.722656 C 35.007812 -70.722656 39.1875 -69.253906 42.128906 -66.308594 C 45.074219 -63.363281 46.546875 -59.1875 46.546875 -53.773438 L 46.546875 -47.390625 C 46.546875 -46.039062 46.121094 -44.941406 45.273438 -44.09375 C 44.425781 -43.246094 43.324219 -42.820312 41.976562 -42.820312 L 32.207031 -42.820312 C 30.855469 -42.820312 29.757812 -43.246094 28.910156 -44.09375 C 28.0625 -44.941406 27.636719 -46.039062 27.636719 -47.390625 L 27.636719 -51.453125 C 27.636719 -51.769531 27.609375 -52.015625 27.550781 -52.191406 C 27.539062 -52.222656 27.53125 -52.242188 27.523438 -52.253906 C 27.53125 -52.246094 27.539062 -52.230469 27.554688 -52.21875 C 27.570312 -52.203125 27.582031 -52.191406 27.59375 -52.1875 C 27.582031 -52.191406 27.558594 -52.203125 27.527344 -52.210938 C 27.355469 -52.269531 27.109375 -52.300781 26.789062 -52.300781 L 21.472656 -52.300781 C 21.152344 -52.300781 20.90625 -52.269531 20.734375 -52.210938 C 20.703125 -52.203125 20.679688 -52.191406 20.667969 -52.1875 C 20.679688 -52.191406 20.691406 -52.203125 20.707031 -52.21875 C 20.722656 -52.230469 20.730469 -52.246094 20.738281 -52.253906 C 20.730469 -52.242188 20.722656 -52.222656 20.710938 -52.191406 C 20.652344 -52.015625 20.625 -51.769531 20.625 -51.453125 L 20.625 -43.230469 L 17.601562 -43.230469 L 18.53125 -46.109375 L 41.933594 -38.566406 C 43.429688 -38.046875 44.574219 -37.226562 45.367188 -36.097656 C 46.152344 -34.980469 46.546875 -33.648438 46.546875 -32.109375 L 46.546875 -13.925781 C 46.546875 -8.585938 45.078125 -4.429688 42.144531 -1.457031 C 39.199219 1.53125 35.015625 3.023438 29.59375 3.023438 L 18.761719 3.023438 C 13.414062 3.023438 9.253906 1.535156 6.277344 -1.441406 C 3.300781 -4.417969 1.8125 -8.578125 1.8125 -13.925781 L 1.8125 -20.214844 C 1.8125 -21.5625 2.238281 -22.664062 3.085938 -23.511719 C 3.933594 -24.359375 5.03125 -24.785156 6.382812 -24.785156 L 16.152344 -24.785156 C 17.503906 -24.785156 18.601562 -24.359375 19.449219 -23.511719 C 20.296875 -22.664062 20.722656 -21.5625 20.722656 -20.214844 L 20.722656 -16.152344 C 20.722656 -15.832031 20.75 -15.589844 20.808594 -15.414062 C 20.820312 -15.382812 20.828125 -15.359375 20.835938 -15.347656 C 20.828125 -15.359375 20.816406 -15.375 20.804688 -15.386719 C 20.789062 -15.402344 20.777344 -15.414062 20.765625 -15.417969 C 20.777344 -15.410156 20.800781 -15.402344 20.832031 -15.390625 C 21.003906 -15.335938 21.25 -15.304688 21.566406 -15.304688 L 26.789062 -15.304688 C 27.109375 -15.304688 27.355469 -15.335938 27.527344 -15.390625 C 27.558594 -15.402344 27.582031 -15.410156 27.59375 -15.417969 C 27.582031 -15.414062 27.570312 -15.402344 27.554688 -15.386719 C 27.539062 -15.375 27.53125 -15.359375 27.523438 -15.347656 C 27.53125 -15.359375 27.539062 -15.382812 27.550781 -15.414062 C 27.609375 -15.589844 27.636719 -15.832031 27.636719 -16.152344 L 27.636719 -25.921875 L 30.660156 -25.921875 L 29.726562 -23.046875 L 6.511719 -30.589844 C 5.015625 -31.089844 3.863281 -31.894531 3.046875 -33.011719 C 2.222656 -34.140625 1.8125 -35.484375 1.8125 -37.042969 L 1.8125 -53.773438 C 1.8125 -59.195312 3.304688 -63.378906 6.292969 -66.324219 C 9.265625 -69.257812 13.421875 -70.722656 18.761719 -70.722656 Z M 18.761719 -64.679688 C 15.078125 -64.679688 12.335938 -63.792969 10.535156 -62.019531 C 8.75 -60.257812 7.859375 -57.507812 7.859375 -53.773438 L 7.859375 -37.042969 C 7.859375 -36.796875 7.882812 -36.640625 7.929688 -36.574219 C 7.984375 -36.5 8.136719 -36.421875 8.382812 -36.339844 L 33.683594 -28.117188 L 33.683594 -16.152344 C 33.683594 -14.027344 33.0625 -12.347656 31.828125 -11.113281 C 30.59375 -9.878906 28.914062 -9.261719 26.789062 -9.261719 L 21.566406 -9.261719 C 19.445312 -9.261719 17.765625 -9.878906 16.527344 -11.113281 C 15.292969 -12.347656 14.675781 -14.027344 14.675781 -16.152344 L 14.675781 -20.214844 C 14.675781 -20.144531 14.695312 -20.050781 14.734375 -19.933594 C 14.820312 -19.675781 14.96875 -19.445312 15.175781 -19.238281 C 15.382812 -19.03125 15.613281 -18.882812 15.871094 -18.796875 C 15.988281 -18.757812 16.082031 -18.738281 16.152344 -18.738281 L 6.382812 -18.738281 C 6.453125 -18.738281 6.546875 -18.757812 6.664062 -18.796875 C 6.921875 -18.882812 7.152344 -19.03125 7.359375 -19.238281 C 7.566406 -19.445312 7.714844 -19.675781 7.800781 -19.933594 C 7.839844 -20.050781 7.859375 -20.144531 7.859375 -20.214844 L 7.859375 -13.925781 C 7.859375 -10.25 8.757812 -7.511719 10.550781 -5.714844 C 12.347656 -3.921875 15.085938 -3.023438 18.761719 -3.023438 L 29.59375 -3.023438 C 33.332031 -3.023438 36.078125 -3.914062 37.839844 -5.703125 C 39.613281 -7.5 40.5 -10.242188 40.5 -13.925781 L 40.5 -32.109375 C 40.5 -32.375 40.472656 -32.546875 40.421875 -32.621094 C 40.375 -32.683594 40.261719 -32.75 40.082031 -32.8125 L 14.578125 -41.03125 L 14.578125 -51.453125 C 14.578125 -53.578125 15.199219 -55.257812 16.433594 -56.492188 C 17.667969 -57.726562 19.347656 -58.34375 21.472656 -58.34375 L 26.789062 -58.34375 C 28.914062 -58.34375 30.59375 -57.726562 31.828125 -56.492188 C 33.0625 -55.257812 33.683594 -53.578125 33.683594 -51.453125 L 33.683594 -47.390625 C 33.683594 -47.460938 33.664062 -47.554688 33.625 -47.671875 C 33.539062 -47.929688 33.390625 -48.160156 33.183594 -48.367188 C 32.976562 -48.574219 32.742188 -48.722656 32.484375 -48.808594 C 32.367188 -48.847656 32.277344 -48.867188 32.207031 -48.867188 L 41.976562 -48.867188 C 41.90625 -48.867188 41.8125 -48.847656 41.695312 -48.808594 C 41.4375 -48.722656 41.207031 -48.574219 41 -48.367188 C 40.789062 -48.160156 40.644531 -47.929688 40.558594 -47.671875 C 40.519531 -47.554688 40.5 -47.460938 40.5 -47.390625 L 40.5 -53.773438 C 40.5 -57.519531 39.617188 -60.269531 37.855469 -62.035156 C 36.09375 -63.796875 33.339844 -64.679688 29.59375 -64.679688 Z M 18.761719 -64.679688 "/></g></g><g style="fill:#060705;fill-opacity:1;"><g transform="translate(82.619459, 158.08043)"><path style="stroke:none" d="M 4.84375 -1.546875 L 4.84375 -66.15625 C 4.84375 -67.1875 5.359375 -67.703125 6.390625 -67.703125 L 29.59375 -67.703125 C 34.175781 -67.703125 37.644531 -66.507812 40 -64.125 C 42.351562 -61.738281 43.53125 -58.253906 43.53125 -53.671875 L 43.53125 -13.921875 C 43.53125 -9.410156 42.351562 -5.960938 40 -3.578125 C 37.644531 -1.191406 34.175781 0 29.59375 0 L 6.390625 0 C 5.359375 0 4.84375 -0.515625 4.84375 -1.546875 Z M 17.984375 -12.765625 L 26.890625 -12.765625 C 29.460938 -12.765625 30.75 -14.054688 30.75 -16.640625 L 30.75 -50.96875 C 30.75 -53.613281 29.460938 -54.9375 26.890625 -54.9375 L 17.984375 -54.9375 Z M 17.984375 -12.765625 "/></g></g><g style="fill:#060705;fill-opacity:1;"><g transform="translate(130.962509, 158.08043)"><path style="stroke:none" d="M 43.53125 -53.78125 L 43.53125 -34.328125 C 43.53125 -28.722656 41.722656 -24.789062 38.109375 -22.53125 L 43.140625 -1.734375 C 43.460938 -0.578125 43.007812 0 41.78125 0 L 32.296875 0 C 31.398438 0 30.851562 -0.453125 30.65625 -1.359375 L 26.015625 -20.40625 L 17.40625 -20.40625 L 17.40625 -1.546875 C 17.40625 -0.515625 16.890625 0 15.859375 0 L 6.390625 0 C 5.359375 0 4.84375 -0.515625 4.84375 -1.546875 L 4.84375 -66.15625 C 4.84375 -67.1875 5.359375 -67.703125 6.390625 -67.703125 L 29.59375 -67.703125 C 34.175781 -67.703125 37.644531 -66.523438 40 -64.171875 C 42.351562 -61.816406 43.53125 -58.351562 43.53125 -53.78125 Z M 17.40625 -32.890625 L 27.078125 -32.890625 C 29.660156 -32.890625 30.953125 -34.175781 30.953125 -36.75 L 30.953125 -51.359375 C 30.953125 -53.929688 29.660156 -55.21875 27.078125 -55.21875 L 17.40625 -55.21875 Z M 17.40625 -32.890625 "/></g></g><g style="fill:#060705;fill-opacity:1;"><g transform="translate(179.305559, 158.08043)"><path style="stroke:none" d="M 38.5 -67.703125 L 48.171875 -67.703125 C 48.878906 -67.703125 49.394531 -67.492188 49.71875 -67.078125 C 50.039062 -66.660156 50.039062 -66.128906 49.71875 -65.484375 L 32.015625 -25.34375 L 32.015625 -1.9375 C 32.015625 -0.644531 31.367188 0 30.078125 0 L 20.796875 0 C 19.503906 0 18.859375 -0.644531 18.859375 -1.9375 L 18.859375 -25.34375 L 1.15625 -65.484375 C 0.90625 -66.128906 0.921875 -66.660156 1.203125 -67.078125 C 1.492188 -67.492188 1.992188 -67.703125 2.703125 -67.703125 L 12.375 -67.703125 C 13.476562 -67.703125 14.222656 -67.1875 14.609375 -66.15625 L 25.4375 -41.296875 L 36.265625 -66.15625 C 36.648438 -67.1875 37.394531 -67.703125 38.5 -67.703125 Z M 38.5 -67.703125 "/></g></g><g style="fill:#060705;fill-opacity:1;"><g transform="translate(230.162447, 158.08043)"><path style="stroke:none" d="M 0 12.953125 L 0 4.0625 C 0 2.769531 0.644531 2.125 1.9375 2.125 L 60.25 2.125 C 61.539062 2.125 62.1875 2.769531 62.1875 4.0625 L 62.1875 12.953125 C 62.1875 14.242188 61.539062 14.890625 60.25 14.890625 L 1.9375 14.890625 C 0.644531 14.890625 0 14.242188 0 12.953125 Z M 0 12.953125 "/></g></g><g style="fill:#060705;fill-opacity:1;"><g transform="translate(65.381459, 292.919896)"><path style="stroke:none" d="M 37.046875 -67.703125 L 45.84375 -67.703125 C 47.320312 -67.703125 47.898438 -66.992188 47.578125 -65.578125 L 32.203125 -1.734375 C 31.953125 -0.578125 31.242188 0 30.078125 0 L 20.40625 0 C 19.3125 0 18.601562 -0.578125 18.28125 -1.734375 L 3 -65.578125 C 2.675781 -66.992188 3.253906 -67.703125 4.734375 -67.703125 L 13.546875 -67.703125 C 14.703125 -67.703125 15.410156 -67.125 15.671875 -65.96875 L 25.25 -22.25 L 34.921875 -65.96875 C 35.242188 -67.125 35.953125 -67.703125 37.046875 -67.703125 Z M 37.046875 -67.703125 "/></g></g><g style="fill:#060705;fill-opacity:1;"><g transform="translate(115.948279, 292.919896)"><path style="stroke:none" d="M 6.390625 0 L 16.4375 0 C 17.46875 0 17.984375 -0.515625 17.984375 -1.546875 L 17.984375 -66.15625 C 17.984375 -67.1875 17.46875 -67.703125 16.4375 -67.703125 L 6.390625 -67.703125 C 5.359375 -67.703125 4.84375 -67.1875 4.84375 -66.15625 L 4.84375 -1.546875 C 4.84375 -0.515625 5.359375 0 6.390625 0 Z M 6.390625 0 "/></g></g><g style="fill:#060705;fill-opacity:1;"><g transform="translate(138.766184, 292.919896)"><path style="stroke:none" d="M 43.421875 -66.15625 L 43.421875 -56.484375 C 43.421875 -55.390625 42.90625 -54.84375 41.875 -54.84375 L 17.984375 -54.84375 L 17.984375 -39.9375 L 36.171875 -39.9375 C 37.203125 -39.9375 37.71875 -39.390625 37.71875 -38.296875 L 37.71875 -28.71875 C 37.71875 -27.625 37.203125 -27.078125 36.171875 -27.078125 L 17.984375 -27.078125 L 17.984375 -12.765625 L 41.875 -12.765625 C 42.90625 -12.765625 43.421875 -12.25 43.421875 -11.21875 L 43.421875 -1.546875 C 43.421875 -0.515625 42.90625 0 41.875 0 L 6.28125 0 C 5.320312 0 4.84375 -0.515625 4.84375 -1.546875 L 4.84375 -66.15625 C 4.84375 -67.1875 5.320312 -67.703125 6.28125 -67.703125 L 41.875 -67.703125 C 42.90625 -67.703125 43.421875 -67.1875 43.421875 -66.15625 Z M 43.421875 -66.15625 "/></g></g><g style="fill:#060705;fill-opacity:1;"><g transform="translate(187.012531, 292.919896)"><path style="stroke:none" d="M 59.578125 -67.703125 L 68.671875 -67.703125 C 70.085938 -67.703125 70.703125 -67.023438 70.515625 -65.671875 L 61.21875 -1.734375 C 61.03125 -0.578125 60.320312 0 59.09375 0 L 48.65625 0 C 47.550781 0 46.835938 -0.578125 46.515625 -1.734375 L 37.625 -41.390625 L 28.625 -1.734375 C 28.363281 -0.578125 27.65625 0 26.5 0 L 15.859375 0 C 14.640625 0 13.929688 -0.613281 13.734375 -1.84375 L 4.84375 -65.671875 C 4.644531 -67.023438 5.253906 -67.703125 6.671875 -67.703125 L 15.765625 -67.703125 C 16.921875 -67.703125 17.597656 -67.085938 17.796875 -65.859375 L 22.53125 -25.4375 L 23.015625 -25.4375 L 32.5 -66.0625 C 32.820312 -67.15625 33.53125 -67.703125 34.625 -67.703125 L 40.53125 -67.703125 C 41.625 -67.703125 42.332031 -67.15625 42.65625 -66.0625 L 52.125 -25.4375 L 52.609375 -25.4375 L 57.546875 -65.859375 C 57.742188 -67.085938 58.421875 -67.703125 59.578125 -67.703125 Z M 59.578125 -67.703125 "/></g></g><g style="fill:#060705;fill-opacity:1;"><g transform="translate(261.170759, 292.919896)"><path style="stroke:none" d="M 18.765625 -67.703125 L 29.59375 -67.703125 C 34.175781 -67.703125 37.644531 -66.523438 40 -64.171875 C 42.351562 -61.816406 43.53125 -58.351562 43.53125 -53.78125 L 43.53125 -47.390625 C 43.53125 -46.359375 43.007812 -45.84375 41.96875 -45.84375 L 32.203125 -45.84375 C 31.171875 -45.84375 30.65625 -46.359375 30.65625 -47.390625 L 30.65625 -51.453125 C 30.65625 -54.035156 29.367188 -55.328125 26.796875 -55.328125 L 21.46875 -55.328125 C 18.894531 -55.328125 17.609375 -54.035156 17.609375 -51.453125 L 17.609375 -43.234375 L 41.015625 -35.6875 C 42.691406 -35.101562 43.53125 -33.910156 43.53125 -32.109375 L 43.53125 -13.921875 C 43.53125 -9.410156 42.351562 -5.960938 40 -3.578125 C 37.644531 -1.191406 34.175781 0 29.59375 0 L 18.765625 0 C 14.253906 0 10.804688 -1.191406 8.421875 -3.578125 C 6.035156 -5.960938 4.84375 -9.410156 4.84375 -13.921875 L 4.84375 -20.21875 C 4.84375 -21.25 5.359375 -21.765625 6.390625 -21.765625 L 16.15625 -21.765625 C 17.1875 -21.765625 17.703125 -21.25 17.703125 -20.21875 L 17.703125 -16.15625 C 17.703125 -13.570312 18.988281 -12.28125 21.5625 -12.28125 L 26.796875 -12.28125 C 29.367188 -12.28125 30.65625 -13.570312 30.65625 -16.15625 L 30.65625 -25.921875 L 7.453125 -33.46875 C 5.710938 -34.039062 4.84375 -35.234375 4.84375 -37.046875 L 4.84375 -53.78125 C 4.84375 -58.351562 6.035156 -61.816406 8.421875 -64.171875 C 10.804688 -66.523438 14.253906 -67.703125 18.765625 -67.703125 Z M 18.765625 -67.703125 "/></g></g></g></svg>