<svg xmlns="http://www.w3.org/2000/svg" xmlns:xlink="http://www.w3.org/1999/xlink" width="128" zoomAndPan="magnify" viewBox="0 0 96 95.999999" height="128" preserveAspectRatio="xMidYMid meet" version="1.2"><defs><clipPath id="0749e329b5"><path d="M 6 0 L 90 0 L 90 96 L 6 96 Z M 6 0 "/></clipPath><clipPath id="a35be3972b"><path d="M -14.304688 36.578125 L 68.691406 -11.898438 L 110.335938 59.402344 L 27.339844 107.878906 Z M -14.304688 36.578125 "/></clipPath><clipPath id="19d9c4ea1b"><path d="M 89.484375 23.769531 L 89.5625 71.535156 L 48.082031 95.765625 L 6.515625 72.226562 L 6.4375 24.464844 L 47.921875 0.234375 Z M 89.484375 23.769531 "/></clipPath><clipPath id="3cd1a3c9b1"><path d="M 14.140625 9.121094 L 81.851562 9.121094 L 81.851562 86.839844 L 14.140625 86.839844 Z M 14.140625 9.121094 "/></clipPath></defs><g id="19ec54cc4a"><g clip-rule="nonzero" clip-path="url(#0749e329b5)"><g clip-rule="nonzero" clip-path="url(#a35be3972b)"><g clip-rule="nonzero" clip-path="url(#19d9c4ea1b)"><path style=" stroke:none;fill-rule:nonzero;fill:#65b30e;fill-opacity:1;" d="M -14.304688 36.578125 L 68.691406 -11.898438 L 110.335938 59.402344 L 27.339844 107.878906 Z M -14.304688 36.578125 "/></g></g></g><path style=" stroke:none;fill-rule:nonzero;fill:#87ff00;fill-opacity:1;" d="M 34.453125 34.738281 L 34.410156 34.695312 L 24.839844 44.265625 L 48.074219 67.457031 L 57.644531 57.933594 L 71.308594 44.265625 L 61.738281 34.695312 L 61.738281 34.652344 L 34.410156 34.652344 Z M 34.453125 34.738281 "/><g clip-rule="nonzero" clip-path="url(#3cd1a3c9b1)"><path style=" stroke:none;fill-rule:nonzero;fill:#87ff00;fill-opacity:1;" d="M 47.988281 9.179688 L 14.148438 28.574219 L 14.148438 67.371094 L 47.988281 86.769531 L 81.828125 67.371094 L 81.828125 28.574219 Z M 75.359375 63.664062 L 47.988281 79.4375 L 20.613281 63.664062 L 20.617188 32.195312 L 47.988281 16.417969 L 75.363281 32.195312 L 75.363281 63.664062 Z M 75.359375 63.664062 "/></g><g style="fill:#b21a22;fill-opacity:1;"><g transform="translate(14.890665, 34.222829)"><path style="stroke:none" d="M 3.890625 -5.695312 L 3.890625 -9.410156 C 3.890625 -9.605469 3.949219 -9.761719 4.070312 -9.878906 C 4.191406 -10 4.347656 -10.0625 4.539062 -10.0625 L 5.957031 -10.0625 C 6.148438 -10.0625 6.304688 -10.003906 6.429688 -9.890625 C 6.558594 -9.769531 6.621094 -9.609375 6.621094 -9.410156 L 6.621094 -0.21875 C 6.621094 -0.0234375 6.558594 0.136719 6.429688 0.257812 C 6.304688 0.371094 6.148438 0.429688 5.957031 0.429688 L 4.539062 0.429688 C 4.347656 0.429688 4.191406 0.371094 4.070312 0.25 C 3.949219 0.128906 3.890625 -0.0273438 3.890625 -0.21875 L 3.890625 -3.878906 L 4.320312 -3.878906 L 4.320312 -3.449219 L 2.558594 -3.449219 L 2.558594 -3.878906 L 2.988281 -3.878906 L 2.988281 -0.21875 C 2.988281 -0.0273438 2.929688 0.128906 2.808594 0.25 C 2.6875 0.371094 2.53125 0.429688 2.339844 0.429688 L 0.921875 0.429688 C 0.730469 0.429688 0.574219 0.371094 0.453125 0.257812 C 0.324219 0.136719 0.257812 -0.0234375 0.257812 -0.21875 L 0.257812 -9.410156 C 0.257812 -9.609375 0.324219 -9.769531 0.453125 -9.890625 C 0.574219 -10.003906 0.730469 -10.0625 0.921875 -10.0625 L 2.339844 -10.0625 C 2.53125 -10.0625 2.6875 -10 2.808594 -9.878906 C 2.929688 -9.761719 2.988281 -9.605469 2.988281 -9.410156 L 2.988281 -5.695312 L 2.558594 -5.695312 L 2.558594 -6.125 L 4.320312 -6.125 L 4.320312 -5.695312 Z M 4.75 -5.265625 L 2.128906 -5.265625 L 2.128906 -9.410156 C 2.128906 -9.402344 2.132812 -9.386719 2.136719 -9.371094 C 2.148438 -9.335938 2.171875 -9.300781 2.199219 -9.273438 C 2.230469 -9.242188 2.261719 -9.222656 2.300781 -9.210938 C 2.316406 -9.203125 2.328125 -9.203125 2.339844 -9.203125 L 0.921875 -9.203125 C 0.925781 -9.203125 0.9375 -9.203125 0.949219 -9.207031 C 0.980469 -9.21875 1.011719 -9.238281 1.042969 -9.261719 C 1.070312 -9.292969 1.09375 -9.328125 1.109375 -9.363281 C 1.113281 -9.382812 1.117188 -9.398438 1.117188 -9.410156 L 1.117188 -0.21875 C 1.117188 -0.234375 1.113281 -0.25 1.109375 -0.265625 C 1.09375 -0.304688 1.070312 -0.339844 1.042969 -0.367188 C 1.011719 -0.394531 0.980469 -0.414062 0.949219 -0.425781 C 0.9375 -0.429688 0.925781 -0.429688 0.921875 -0.429688 L 2.339844 -0.429688 C 2.328125 -0.429688 2.316406 -0.425781 2.300781 -0.421875 C 2.261719 -0.410156 2.230469 -0.386719 2.199219 -0.359375 C 2.171875 -0.328125 2.148438 -0.296875 2.136719 -0.261719 C 2.132812 -0.242188 2.128906 -0.230469 2.128906 -0.21875 L 2.128906 -4.308594 L 4.75 -4.308594 L 4.75 -0.21875 C 4.75 -0.230469 4.746094 -0.242188 4.742188 -0.261719 C 4.730469 -0.296875 4.710938 -0.328125 4.679688 -0.359375 C 4.648438 -0.386719 4.617188 -0.410156 4.582031 -0.421875 C 4.5625 -0.425781 4.550781 -0.429688 4.539062 -0.429688 L 5.957031 -0.429688 C 5.953125 -0.429688 5.945312 -0.429688 5.929688 -0.425781 C 5.898438 -0.414062 5.867188 -0.394531 5.839844 -0.367188 C 5.808594 -0.339844 5.785156 -0.304688 5.773438 -0.265625 C 5.765625 -0.25 5.761719 -0.234375 5.761719 -0.21875 L 5.761719 -9.410156 C 5.761719 -9.398438 5.765625 -9.382812 5.773438 -9.363281 C 5.785156 -9.328125 5.808594 -9.292969 5.839844 -9.261719 C 5.867188 -9.238281 5.898438 -9.21875 5.929688 -9.207031 C 5.945312 -9.203125 5.953125 -9.203125 5.957031 -9.203125 L 4.539062 -9.203125 C 4.550781 -9.203125 4.5625 -9.203125 4.582031 -9.210938 C 4.617188 -9.222656 4.648438 -9.242188 4.679688 -9.273438 C 4.710938 -9.300781 4.730469 -9.335938 4.742188 -9.371094 C 4.746094 -9.386719 4.75 -9.402344 4.75 -9.410156 Z M 4.75 -5.265625 "/></g></g><g style="fill:#b21a22;fill-opacity:1;"><g transform="translate(21.768356, 34.222829)"><path style="stroke:none" d="M 4.652344 -10.0625 L 5.917969 -10.0625 C 6.109375 -10.0625 6.273438 -9.992188 6.414062 -9.851562 C 6.550781 -9.714844 6.621094 -9.546875 6.621094 -9.355469 L 6.621094 -1.980469 C 6.621094 -1.222656 6.414062 -0.628906 5.996094 -0.207031 C 5.578125 0.21875 4.980469 0.429688 4.210938 0.429688 L 2.667969 0.429688 C 1.910156 0.429688 1.316406 0.21875 0.894531 -0.203125 C 0.46875 -0.628906 0.257812 -1.21875 0.257812 -1.980469 L 0.257812 -9.355469 C 0.257812 -9.546875 0.328125 -9.714844 0.464844 -9.851562 C 0.605469 -9.992188 0.769531 -10.0625 0.964844 -10.0625 L 2.285156 -10.0625 C 2.476562 -10.0625 2.640625 -9.992188 2.78125 -9.851562 C 2.917969 -9.714844 2.988281 -9.546875 2.988281 -9.355469 L 2.988281 -2.367188 C 2.988281 -2.320312 2.992188 -2.285156 3 -2.261719 C 3.003906 -2.257812 3.003906 -2.253906 3.003906 -2.253906 C 3.003906 -2.253906 3.003906 -2.257812 3 -2.257812 C 3 -2.261719 2.996094 -2.261719 2.996094 -2.261719 C 2.996094 -2.261719 3 -2.261719 3.003906 -2.257812 C 3.03125 -2.25 3.066406 -2.246094 3.109375 -2.246094 L 3.824219 -2.246094 C 3.871094 -2.246094 3.90625 -2.25 3.929688 -2.257812 C 3.933594 -2.261719 3.9375 -2.261719 3.9375 -2.261719 C 3.9375 -2.261719 3.9375 -2.261719 3.933594 -2.257812 C 3.933594 -2.257812 3.929688 -2.253906 3.929688 -2.253906 C 3.929688 -2.253906 3.933594 -2.257812 3.933594 -2.261719 C 3.941406 -2.285156 3.945312 -2.320312 3.945312 -2.367188 L 3.945312 -9.355469 C 3.945312 -9.546875 4.015625 -9.714844 4.152344 -9.851562 C 4.292969 -9.992188 4.457031 -10.0625 4.652344 -10.0625 Z M 4.652344 -9.203125 C 4.695312 -9.203125 4.734375 -9.214844 4.761719 -9.246094 C 4.792969 -9.273438 4.804688 -9.3125 4.804688 -9.355469 L 4.804688 -2.367188 C 4.804688 -2.066406 4.71875 -1.824219 4.542969 -1.648438 C 4.367188 -1.472656 4.128906 -1.386719 3.824219 -1.386719 L 3.109375 -1.386719 C 2.808594 -1.386719 2.570312 -1.472656 2.394531 -1.648438 C 2.21875 -1.824219 2.128906 -2.066406 2.128906 -2.367188 L 2.128906 -9.355469 C 2.128906 -9.3125 2.144531 -9.273438 2.171875 -9.246094 C 2.203125 -9.214844 2.238281 -9.203125 2.285156 -9.203125 L 0.964844 -9.203125 C 1.007812 -9.203125 1.046875 -9.214844 1.074219 -9.246094 C 1.105469 -9.273438 1.117188 -9.3125 1.117188 -9.355469 L 1.117188 -1.980469 C 1.117188 -1.457031 1.246094 -1.070312 1.5 -0.8125 C 1.757812 -0.558594 2.144531 -0.429688 2.667969 -0.429688 L 4.210938 -0.429688 C 4.742188 -0.429688 5.132812 -0.558594 5.382812 -0.8125 C 5.636719 -1.066406 5.761719 -1.457031 5.761719 -1.980469 L 5.761719 -9.355469 C 5.761719 -9.3125 5.777344 -9.273438 5.804688 -9.246094 C 5.835938 -9.214844 5.871094 -9.203125 5.917969 -9.203125 Z M 4.652344 -9.203125 "/></g></g><g style="fill:#b21a22;fill-opacity:1;"><g transform="translate(28.646047, 34.222829)"><path style="stroke:none" d="M 6.441406 -10.0625 L 8.253906 -10.0625 C 8.464844 -10.0625 8.636719 -9.996094 8.765625 -9.867188 C 8.894531 -9.738281 8.960938 -9.566406 8.960938 -9.355469 L 8.960938 -0.273438 C 8.960938 -0.0664062 8.894531 0.105469 8.765625 0.234375 C 8.636719 0.363281 8.464844 0.429688 8.253906 0.429688 L 6.976562 0.429688 C 6.765625 0.429688 6.59375 0.363281 6.464844 0.234375 C 6.335938 0.105469 6.269531 -0.0664062 6.269531 -0.273438 L 6.269531 -5.683594 L 6.699219 -5.683594 L 6.699219 -5.253906 L 6.605469 -5.253906 L 6.605469 -5.683594 L 7.023438 -5.582031 L 5.726562 -0.125 L 5.722656 -0.113281 C 5.675781 0.0546875 5.589844 0.1875 5.464844 0.28125 C 5.335938 0.378906 5.183594 0.429688 5.007812 0.429688 L 4.195312 0.429688 C 4.019531 0.429688 3.867188 0.378906 3.742188 0.28125 C 3.617188 0.1875 3.53125 0.0546875 3.480469 -0.113281 L 3.476562 -0.125 L 2.183594 -5.582031 L 2.601562 -5.683594 L 2.601562 -5.253906 L 2.503906 -5.253906 L 2.503906 -5.683594 L 2.933594 -5.683594 L 2.933594 -0.273438 C 2.933594 -0.0664062 2.871094 0.105469 2.738281 0.234375 C 2.609375 0.363281 2.441406 0.429688 2.230469 0.429688 L 0.964844 0.429688 C 0.753906 0.429688 0.582031 0.363281 0.453125 0.234375 C 0.324219 0.105469 0.257812 -0.0664062 0.257812 -0.273438 L 0.257812 -9.355469 C 0.257812 -9.566406 0.324219 -9.738281 0.453125 -9.867188 C 0.582031 -9.996094 0.753906 -10.0625 0.964844 -10.0625 L 2.78125 -10.0625 C 2.957031 -10.0625 3.105469 -10.011719 3.234375 -9.914062 C 3.359375 -9.816406 3.445312 -9.6875 3.496094 -9.519531 L 3.496094 -9.511719 L 5.027344 -3.363281 L 4.609375 -3.261719 L 4.191406 -3.363281 L 5.722656 -9.511719 L 5.722656 -9.519531 C 5.773438 -9.6875 5.859375 -9.816406 5.984375 -9.914062 C 6.113281 -10.011719 6.265625 -10.0625 6.441406 -10.0625 Z M 6.441406 -9.203125 C 6.460938 -9.203125 6.484375 -9.210938 6.511719 -9.234375 C 6.523438 -9.246094 6.535156 -9.257812 6.546875 -9.273438 C 6.546875 -9.273438 6.550781 -9.277344 6.550781 -9.28125 C 6.550781 -9.28125 6.550781 -9.277344 6.550781 -9.277344 L 6.136719 -9.398438 L 6.554688 -9.292969 L 5.027344 -3.15625 L 4.191406 -3.15625 L 2.664062 -9.292969 L 3.082031 -9.398438 L 2.667969 -9.277344 C 2.667969 -9.277344 2.667969 -9.28125 2.667969 -9.28125 C 2.667969 -9.277344 2.671875 -9.273438 2.671875 -9.273438 C 2.683594 -9.257812 2.695312 -9.246094 2.710938 -9.234375 C 2.734375 -9.210938 2.757812 -9.203125 2.78125 -9.203125 L 0.964844 -9.203125 C 0.960938 -9.203125 0.960938 -9.203125 0.957031 -9.203125 C 0.957031 -9.203125 0.957031 -9.203125 0.960938 -9.203125 C 0.964844 -9.203125 0.972656 -9.203125 0.980469 -9.207031 C 1.007812 -9.214844 1.035156 -9.234375 1.0625 -9.257812 C 1.085938 -9.285156 1.101562 -9.3125 1.113281 -9.339844 C 1.117188 -9.347656 1.117188 -9.355469 1.117188 -9.359375 C 1.117188 -9.359375 1.117188 -9.359375 1.117188 -9.363281 C 1.117188 -9.359375 1.117188 -9.359375 1.117188 -9.355469 L 1.117188 -0.273438 C 1.117188 -0.273438 1.117188 -0.273438 1.117188 -0.269531 C 1.117188 -0.269531 1.117188 -0.269531 1.117188 -0.273438 C 1.117188 -0.277344 1.117188 -0.285156 1.113281 -0.289062 C 1.101562 -0.320312 1.085938 -0.347656 1.0625 -0.371094 C 1.035156 -0.398438 1.007812 -0.414062 0.980469 -0.425781 C 0.972656 -0.425781 0.964844 -0.429688 0.960938 -0.429688 C 0.957031 -0.429688 0.957031 -0.429688 0.957031 -0.429688 C 0.960938 -0.429688 0.960938 -0.429688 0.964844 -0.429688 L 2.230469 -0.429688 C 2.230469 -0.429688 2.234375 -0.429688 2.234375 -0.429688 C 2.226562 -0.429688 2.222656 -0.425781 2.214844 -0.425781 C 2.183594 -0.414062 2.15625 -0.398438 2.132812 -0.371094 C 2.105469 -0.347656 2.089844 -0.320312 2.078125 -0.289062 C 2.078125 -0.285156 2.074219 -0.277344 2.074219 -0.273438 C 2.074219 -0.269531 2.074219 -0.269531 2.074219 -0.269531 C 2.074219 -0.273438 2.074219 -0.273438 2.074219 -0.273438 L 2.074219 -6.113281 L 2.941406 -6.113281 L 4.3125 -0.332031 L 3.894531 -0.234375 L 4.304688 -0.355469 C 4.308594 -0.351562 4.308594 -0.351562 4.308594 -0.351562 C 4.308594 -0.355469 4.304688 -0.355469 4.304688 -0.359375 C 4.292969 -0.375 4.28125 -0.386719 4.265625 -0.398438 C 4.238281 -0.417969 4.214844 -0.429688 4.195312 -0.429688 L 5.007812 -0.429688 C 4.988281 -0.429688 4.964844 -0.417969 4.9375 -0.398438 C 4.921875 -0.386719 4.910156 -0.375 4.902344 -0.359375 C 4.898438 -0.355469 4.898438 -0.355469 4.898438 -0.351562 C 4.898438 -0.351562 4.898438 -0.351562 4.898438 -0.355469 L 5.3125 -0.234375 L 4.894531 -0.332031 L 6.265625 -6.113281 L 7.132812 -6.113281 L 7.132812 -0.273438 C 7.132812 -0.273438 7.132812 -0.273438 7.132812 -0.269531 C 7.132812 -0.269531 7.132812 -0.269531 7.132812 -0.273438 C 7.128906 -0.277344 7.128906 -0.285156 7.125 -0.289062 C 7.117188 -0.320312 7.097656 -0.347656 7.074219 -0.371094 C 7.050781 -0.398438 7.023438 -0.414062 6.992188 -0.425781 C 6.984375 -0.425781 6.976562 -0.429688 6.972656 -0.429688 C 6.972656 -0.429688 6.972656 -0.429688 6.976562 -0.429688 L 8.253906 -0.429688 C 8.257812 -0.429688 8.257812 -0.429688 8.261719 -0.429688 C 8.261719 -0.429688 8.261719 -0.429688 8.257812 -0.429688 C 8.253906 -0.429688 8.246094 -0.425781 8.242188 -0.425781 C 8.210938 -0.414062 8.183594 -0.398438 8.15625 -0.371094 C 8.132812 -0.347656 8.117188 -0.320312 8.105469 -0.289062 C 8.101562 -0.285156 8.101562 -0.277344 8.101562 -0.273438 C 8.101562 -0.269531 8.101562 -0.269531 8.101562 -0.269531 C 8.101562 -0.273438 8.101562 -0.273438 8.101562 -0.273438 L 8.101562 -9.355469 C 8.101562 -9.359375 8.101562 -9.359375 8.101562 -9.363281 C 8.101562 -9.359375 8.101562 -9.359375 8.101562 -9.359375 C 8.101562 -9.355469 8.101562 -9.347656 8.105469 -9.339844 C 8.117188 -9.3125 8.132812 -9.285156 8.15625 -9.257812 C 8.183594 -9.234375 8.210938 -9.214844 8.242188 -9.207031 C 8.246094 -9.203125 8.253906 -9.203125 8.257812 -9.203125 C 8.261719 -9.203125 8.261719 -9.203125 8.261719 -9.203125 C 8.257812 -9.203125 8.257812 -9.203125 8.253906 -9.203125 Z M 6.441406 -9.203125 "/></g></g><g style="fill:#b21a22;fill-opacity:1;"><g transform="translate(37.862152, 34.222829)"><path style="stroke:none" d="M 0.257812 -1.980469 L 0.257812 -7.652344 C 0.257812 -8.421875 0.46875 -9.015625 0.894531 -9.4375 C 1.316406 -9.851562 1.910156 -10.0625 2.667969 -10.0625 L 4.210938 -10.0625 C 4.980469 -10.0625 5.574219 -9.851562 5.992188 -9.433594 C 6.414062 -9.015625 6.621094 -8.421875 6.621094 -7.652344 L 6.621094 -1.980469 C 6.621094 -1.222656 6.414062 -0.628906 5.996094 -0.207031 C 5.578125 0.21875 4.980469 0.429688 4.210938 0.429688 L 2.667969 0.429688 C 1.910156 0.429688 1.316406 0.21875 0.894531 -0.203125 C 0.46875 -0.628906 0.257812 -1.21875 0.257812 -1.980469 Z M 1.117188 -1.980469 C 1.117188 -1.457031 1.246094 -1.070312 1.5 -0.8125 C 1.757812 -0.558594 2.144531 -0.429688 2.667969 -0.429688 L 4.210938 -0.429688 C 4.742188 -0.429688 5.132812 -0.558594 5.382812 -0.8125 C 5.636719 -1.066406 5.761719 -1.457031 5.761719 -1.980469 L 5.761719 -7.652344 C 5.761719 -8.183594 5.636719 -8.574219 5.386719 -8.824219 C 5.132812 -9.078125 4.742188 -9.203125 4.210938 -9.203125 L 2.667969 -9.203125 C 2.144531 -9.203125 1.753906 -9.074219 1.5 -8.824219 C 1.246094 -8.574219 1.117188 -8.183594 1.117188 -7.652344 Z M 3.027344 -2.203125 L 3.90625 -2.203125 C 3.953125 -2.203125 3.988281 -2.210938 4.011719 -2.21875 C 4.015625 -2.21875 4.019531 -2.21875 4.023438 -2.222656 C 4.019531 -2.21875 4.019531 -2.21875 4.015625 -2.214844 C 4.015625 -2.214844 4.011719 -2.210938 4.011719 -2.210938 C 4.011719 -2.214844 4.015625 -2.214844 4.015625 -2.21875 C 4.023438 -2.246094 4.027344 -2.28125 4.027344 -2.324219 L 4.027344 -7.304688 C 4.027344 -7.351562 4.023438 -7.386719 4.015625 -7.410156 C 4.015625 -7.414062 4.011719 -7.417969 4.011719 -7.421875 C 4.011719 -7.417969 4.015625 -7.417969 4.015625 -7.414062 C 4.019531 -7.414062 4.019531 -7.410156 4.023438 -7.410156 C 4.019531 -7.410156 4.015625 -7.414062 4.011719 -7.414062 C 3.988281 -7.421875 3.953125 -7.425781 3.90625 -7.425781 L 3.027344 -7.425781 C 2.980469 -7.425781 2.945312 -7.421875 2.921875 -7.414062 C 2.917969 -7.414062 2.914062 -7.410156 2.914062 -7.410156 C 2.914062 -7.410156 2.917969 -7.414062 2.917969 -7.414062 C 2.921875 -7.417969 2.921875 -7.417969 2.921875 -7.421875 C 2.921875 -7.417969 2.921875 -7.414062 2.917969 -7.410156 C 2.910156 -7.386719 2.90625 -7.351562 2.90625 -7.304688 L 2.90625 -2.324219 C 2.90625 -2.28125 2.910156 -2.246094 2.917969 -2.21875 C 2.921875 -2.214844 2.921875 -2.214844 2.921875 -2.210938 C 2.921875 -2.210938 2.921875 -2.214844 2.917969 -2.214844 C 2.917969 -2.21875 2.914062 -2.21875 2.914062 -2.222656 C 2.914062 -2.21875 2.917969 -2.21875 2.921875 -2.21875 C 2.945312 -2.210938 2.980469 -2.203125 3.027344 -2.203125 Z M 3.027344 -1.34375 C 2.726562 -1.34375 2.484375 -1.433594 2.308594 -1.609375 C 2.132812 -1.785156 2.046875 -2.023438 2.046875 -2.324219 L 2.046875 -7.304688 C 2.046875 -7.609375 2.132812 -7.847656 2.308594 -8.023438 C 2.484375 -8.199219 2.726562 -8.285156 3.027344 -8.285156 L 3.90625 -8.285156 C 4.210938 -8.285156 4.449219 -8.199219 4.625 -8.023438 C 4.800781 -7.847656 4.886719 -7.609375 4.886719 -7.304688 L 4.886719 -2.324219 C 4.886719 -2.023438 4.800781 -1.785156 4.625 -1.609375 C 4.449219 -1.433594 4.210938 -1.34375 3.90625 -1.34375 Z M 3.027344 -1.34375 "/></g></g><g style="fill:#b21a22;fill-opacity:1;"><g transform="translate(44.739844, 34.222829)"><path style="stroke:none" d="M 6.621094 -7.652344 L 6.621094 -4.882812 C 6.621094 -3.929688 6.296875 -3.246094 5.648438 -2.839844 L 5.421875 -3.207031 L 5.839844 -3.308594 L 6.554688 -0.347656 L 6.136719 -0.246094 L 6.550781 -0.363281 C 6.613281 -0.140625 6.582031 0.046875 6.460938 0.203125 C 6.34375 0.355469 6.171875 0.429688 5.945312 0.429688 L 4.597656 0.429688 C 4.429688 0.429688 4.285156 0.382812 4.167969 0.285156 C 4.050781 0.1875 3.976562 0.0585938 3.941406 -0.101562 L 4.363281 -0.191406 L 3.945312 -0.0898438 L 3.285156 -2.800781 L 3.703125 -2.902344 L 3.703125 -2.472656 L 2.476562 -2.472656 L 2.476562 -2.902344 L 2.90625 -2.902344 L 2.90625 -0.21875 C 2.90625 -0.0273438 2.847656 0.128906 2.726562 0.25 C 2.605469 0.371094 2.449219 0.429688 2.257812 0.429688 L 0.90625 0.429688 C 0.714844 0.429688 0.558594 0.371094 0.4375 0.25 C 0.316406 0.128906 0.257812 -0.0273438 0.257812 -0.21875 L 0.257812 -9.410156 C 0.257812 -9.605469 0.316406 -9.761719 0.4375 -9.878906 C 0.558594 -10 0.714844 -10.0625 0.90625 -10.0625 L 4.210938 -10.0625 C 4.980469 -10.0625 5.574219 -9.851562 5.992188 -9.433594 C 6.414062 -9.015625 6.621094 -8.421875 6.621094 -7.652344 Z M 5.761719 -7.652344 C 5.761719 -8.183594 5.636719 -8.574219 5.386719 -8.824219 C 5.132812 -9.078125 4.742188 -9.203125 4.210938 -9.203125 L 0.90625 -9.203125 C 0.917969 -9.203125 0.929688 -9.203125 0.949219 -9.210938 C 0.984375 -9.222656 1.019531 -9.242188 1.046875 -9.273438 C 1.078125 -9.300781 1.097656 -9.335938 1.109375 -9.371094 C 1.117188 -9.386719 1.117188 -9.402344 1.117188 -9.410156 L 1.117188 -0.21875 C 1.117188 -0.230469 1.117188 -0.242188 1.109375 -0.261719 C 1.097656 -0.296875 1.078125 -0.328125 1.046875 -0.359375 C 1.019531 -0.386719 0.984375 -0.410156 0.949219 -0.421875 C 0.929688 -0.425781 0.917969 -0.429688 0.90625 -0.429688 L 2.257812 -0.429688 C 2.246094 -0.429688 2.234375 -0.425781 2.21875 -0.421875 C 2.179688 -0.410156 2.148438 -0.386719 2.117188 -0.359375 C 2.089844 -0.328125 2.066406 -0.296875 2.054688 -0.261719 C 2.050781 -0.242188 2.046875 -0.230469 2.046875 -0.21875 L 2.046875 -3.332031 L 4.039062 -3.332031 L 4.78125 -0.289062 L 4.78125 -0.28125 C 4.773438 -0.316406 4.753906 -0.347656 4.714844 -0.378906 C 4.675781 -0.414062 4.632812 -0.429688 4.597656 -0.429688 L 5.945312 -0.429688 C 5.933594 -0.429688 5.925781 -0.425781 5.914062 -0.421875 C 5.863281 -0.40625 5.820312 -0.371094 5.785156 -0.324219 C 5.746094 -0.277344 5.726562 -0.226562 5.722656 -0.171875 C 5.71875 -0.152344 5.71875 -0.140625 5.722656 -0.132812 L 5.71875 -0.140625 L 4.929688 -3.40625 L 5.195312 -3.570312 C 5.574219 -3.808594 5.761719 -4.246094 5.761719 -4.882812 Z M 2.476562 -5.109375 L 3.851562 -5.109375 C 3.898438 -5.109375 3.933594 -5.113281 3.957031 -5.121094 C 3.960938 -5.121094 3.964844 -5.125 3.96875 -5.125 C 3.964844 -5.125 3.964844 -5.121094 3.960938 -5.121094 C 3.960938 -5.117188 3.957031 -5.117188 3.957031 -5.113281 C 3.957031 -5.117188 3.960938 -5.121094 3.960938 -5.125 C 3.96875 -5.148438 3.972656 -5.183594 3.972656 -5.230469 L 3.972656 -7.304688 C 3.972656 -7.351562 3.96875 -7.386719 3.960938 -7.410156 C 3.960938 -7.414062 3.957031 -7.417969 3.957031 -7.421875 C 3.957031 -7.417969 3.960938 -7.417969 3.960938 -7.414062 C 3.964844 -7.414062 3.964844 -7.410156 3.96875 -7.410156 C 3.964844 -7.410156 3.960938 -7.414062 3.957031 -7.414062 C 3.933594 -7.421875 3.898438 -7.425781 3.851562 -7.425781 L 2.476562 -7.425781 L 2.476562 -7.855469 L 2.90625 -7.855469 L 2.90625 -4.679688 L 2.476562 -4.679688 Z M 2.046875 -4.25 L 2.046875 -8.285156 L 3.851562 -8.285156 C 4.15625 -8.285156 4.394531 -8.199219 4.570312 -8.023438 C 4.746094 -7.847656 4.832031 -7.609375 4.832031 -7.304688 L 4.832031 -5.230469 C 4.832031 -4.925781 4.746094 -4.6875 4.570312 -4.511719 C 4.394531 -4.335938 4.15625 -4.25 3.851562 -4.25 Z M 2.046875 -4.25 "/></g></g><g style="fill:#b21a22;fill-opacity:1;"><g transform="translate(51.617535, 34.222829)"><path style="stroke:none" d="M 0.257812 -1.980469 L 0.257812 -7.652344 C 0.257812 -8.421875 0.46875 -9.015625 0.894531 -9.4375 C 1.316406 -9.851562 1.910156 -10.0625 2.667969 -10.0625 L 4.210938 -10.0625 C 4.980469 -10.0625 5.574219 -9.851562 5.992188 -9.433594 C 6.414062 -9.015625 6.621094 -8.421875 6.621094 -7.652344 L 6.621094 -1.980469 C 6.621094 -1.222656 6.414062 -0.628906 5.996094 -0.207031 C 5.578125 0.21875 4.980469 0.429688 4.210938 0.429688 L 2.667969 0.429688 C 1.910156 0.429688 1.316406 0.21875 0.894531 -0.203125 C 0.46875 -0.628906 0.257812 -1.21875 0.257812 -1.980469 Z M 1.117188 -1.980469 C 1.117188 -1.457031 1.246094 -1.070312 1.5 -0.8125 C 1.757812 -0.558594 2.144531 -0.429688 2.667969 -0.429688 L 4.210938 -0.429688 C 4.742188 -0.429688 5.132812 -0.558594 5.382812 -0.8125 C 5.636719 -1.066406 5.761719 -1.457031 5.761719 -1.980469 L 5.761719 -7.652344 C 5.761719 -8.183594 5.636719 -8.574219 5.386719 -8.824219 C 5.132812 -9.078125 4.742188 -9.203125 4.210938 -9.203125 L 2.667969 -9.203125 C 2.144531 -9.203125 1.753906 -9.074219 1.5 -8.824219 C 1.246094 -8.574219 1.117188 -8.183594 1.117188 -7.652344 Z M 3.027344 -2.203125 L 3.90625 -2.203125 C 3.953125 -2.203125 3.988281 -2.210938 4.011719 -2.21875 C 4.015625 -2.21875 4.019531 -2.21875 4.023438 -2.222656 C 4.019531 -2.21875 4.019531 -2.21875 4.015625 -2.214844 C 4.015625 -2.214844 4.011719 -2.210938 4.011719 -2.210938 C 4.011719 -2.214844 4.015625 -2.214844 4.015625 -2.21875 C 4.023438 -2.246094 4.027344 -2.28125 4.027344 -2.324219 L 4.027344 -7.304688 C 4.027344 -7.351562 4.023438 -7.386719 4.015625 -7.410156 C 4.015625 -7.414062 4.011719 -7.417969 4.011719 -7.421875 C 4.011719 -7.417969 4.015625 -7.417969 4.015625 -7.414062 C 4.019531 -7.414062 4.019531 -7.410156 4.023438 -7.410156 C 4.019531 -7.410156 4.015625 -7.414062 4.011719 -7.414062 C 3.988281 -7.421875 3.953125 -7.425781 3.90625 -7.425781 L 3.027344 -7.425781 C 2.980469 -7.425781 2.945312 -7.421875 2.921875 -7.414062 C 2.917969 -7.414062 2.914062 -7.410156 2.914062 -7.410156 C 2.914062 -7.410156 2.917969 -7.414062 2.917969 -7.414062 C 2.921875 -7.417969 2.921875 -7.417969 2.921875 -7.421875 C 2.921875 -7.417969 2.921875 -7.414062 2.917969 -7.410156 C 2.910156 -7.386719 2.90625 -7.351562 2.90625 -7.304688 L 2.90625 -2.324219 C 2.90625 -2.28125 2.910156 -2.246094 2.917969 -2.21875 C 2.921875 -2.214844 2.921875 -2.214844 2.921875 -2.210938 C 2.921875 -2.210938 2.921875 -2.214844 2.917969 -2.214844 C 2.917969 -2.21875 2.914062 -2.21875 2.914062 -2.222656 C 2.914062 -2.21875 2.917969 -2.21875 2.921875 -2.21875 C 2.945312 -2.210938 2.980469 -2.203125 3.027344 -2.203125 Z M 3.027344 -1.34375 C 2.726562 -1.34375 2.484375 -1.433594 2.308594 -1.609375 C 2.132812 -1.785156 2.046875 -2.023438 2.046875 -2.324219 L 2.046875 -7.304688 C 2.046875 -7.609375 2.132812 -7.847656 2.308594 -8.023438 C 2.484375 -8.199219 2.726562 -8.285156 3.027344 -8.285156 L 3.90625 -8.285156 C 4.210938 -8.285156 4.449219 -8.199219 4.625 -8.023438 C 4.800781 -7.847656 4.886719 -7.609375 4.886719 -7.304688 L 4.886719 -2.324219 C 4.886719 -2.023438 4.800781 -1.785156 4.625 -1.609375 C 4.449219 -1.433594 4.210938 -1.34375 3.90625 -1.34375 Z M 3.027344 -1.34375 "/></g></g><g style="fill:#b21a22;fill-opacity:1;"><g transform="translate(58.495226, 34.222829)"><path style="stroke:none" d="M 4.652344 -10.0625 L 5.917969 -10.0625 C 6.109375 -10.0625 6.273438 -9.992188 6.414062 -9.851562 C 6.550781 -9.714844 6.621094 -9.546875 6.621094 -9.355469 L 6.621094 -1.980469 C 6.621094 -1.222656 6.414062 -0.628906 5.996094 -0.207031 C 5.578125 0.21875 4.980469 0.429688 4.210938 0.429688 L 2.667969 0.429688 C 1.910156 0.429688 1.316406 0.21875 0.894531 -0.203125 C 0.46875 -0.628906 0.257812 -1.21875 0.257812 -1.980469 L 0.257812 -9.355469 C 0.257812 -9.546875 0.328125 -9.714844 0.464844 -9.851562 C 0.605469 -9.992188 0.769531 -10.0625 0.964844 -10.0625 L 2.285156 -10.0625 C 2.476562 -10.0625 2.640625 -9.992188 2.78125 -9.851562 C 2.917969 -9.714844 2.988281 -9.546875 2.988281 -9.355469 L 2.988281 -2.367188 C 2.988281 -2.320312 2.992188 -2.285156 3 -2.261719 C 3.003906 -2.257812 3.003906 -2.253906 3.003906 -2.253906 C 3.003906 -2.253906 3.003906 -2.257812 3 -2.257812 C 3 -2.261719 2.996094 -2.261719 2.996094 -2.261719 C 2.996094 -2.261719 3 -2.261719 3.003906 -2.257812 C 3.03125 -2.25 3.066406 -2.246094 3.109375 -2.246094 L 3.824219 -2.246094 C 3.871094 -2.246094 3.90625 -2.25 3.929688 -2.257812 C 3.933594 -2.261719 3.9375 -2.261719 3.9375 -2.261719 C 3.9375 -2.261719 3.9375 -2.261719 3.933594 -2.257812 C 3.933594 -2.257812 3.929688 -2.253906 3.929688 -2.253906 C 3.929688 -2.253906 3.933594 -2.257812 3.933594 -2.261719 C 3.941406 -2.285156 3.945312 -2.320312 3.945312 -2.367188 L 3.945312 -9.355469 C 3.945312 -9.546875 4.015625 -9.714844 4.152344 -9.851562 C 4.292969 -9.992188 4.457031 -10.0625 4.652344 -10.0625 Z M 4.652344 -9.203125 C 4.695312 -9.203125 4.734375 -9.214844 4.761719 -9.246094 C 4.792969 -9.273438 4.804688 -9.3125 4.804688 -9.355469 L 4.804688 -2.367188 C 4.804688 -2.066406 4.71875 -1.824219 4.542969 -1.648438 C 4.367188 -1.472656 4.128906 -1.386719 3.824219 -1.386719 L 3.109375 -1.386719 C 2.808594 -1.386719 2.570312 -1.472656 2.394531 -1.648438 C 2.21875 -1.824219 2.128906 -2.066406 2.128906 -2.367188 L 2.128906 -9.355469 C 2.128906 -9.3125 2.144531 -9.273438 2.171875 -9.246094 C 2.203125 -9.214844 2.238281 -9.203125 2.285156 -9.203125 L 0.964844 -9.203125 C 1.007812 -9.203125 1.046875 -9.214844 1.074219 -9.246094 C 1.105469 -9.273438 1.117188 -9.3125 1.117188 -9.355469 L 1.117188 -1.980469 C 1.117188 -1.457031 1.246094 -1.070312 1.5 -0.8125 C 1.757812 -0.558594 2.144531 -0.429688 2.667969 -0.429688 L 4.210938 -0.429688 C 4.742188 -0.429688 5.132812 -0.558594 5.382812 -0.8125 C 5.636719 -1.066406 5.761719 -1.457031 5.761719 -1.980469 L 5.761719 -9.355469 C 5.761719 -9.3125 5.777344 -9.273438 5.804688 -9.246094 C 5.835938 -9.214844 5.871094 -9.203125 5.917969 -9.203125 Z M 4.652344 -9.203125 "/></g></g><g style="fill:#b21a22;fill-opacity:1;"><g transform="translate(65.372917, 34.222829)"><path style="stroke:none" d="M 2.667969 -10.0625 L 4.210938 -10.0625 C 4.980469 -10.0625 5.574219 -9.851562 5.992188 -9.433594 C 6.414062 -9.015625 6.621094 -8.421875 6.621094 -7.652344 L 6.621094 -6.742188 C 6.621094 -6.550781 6.5625 -6.394531 6.441406 -6.273438 C 6.320312 -6.152344 6.164062 -6.09375 5.972656 -6.09375 L 4.582031 -6.09375 C 4.390625 -6.09375 4.234375 -6.152344 4.113281 -6.273438 C 3.992188 -6.394531 3.933594 -6.550781 3.933594 -6.742188 L 3.933594 -7.320312 C 3.933594 -7.367188 3.925781 -7.398438 3.917969 -7.425781 C 3.917969 -7.429688 3.917969 -7.433594 3.914062 -7.433594 C 3.917969 -7.433594 3.917969 -7.429688 3.921875 -7.429688 C 3.921875 -7.425781 3.925781 -7.425781 3.925781 -7.425781 C 3.925781 -7.425781 3.921875 -7.425781 3.917969 -7.429688 C 3.890625 -7.4375 3.855469 -7.441406 3.8125 -7.441406 L 3.054688 -7.441406 C 3.007812 -7.441406 2.972656 -7.4375 2.949219 -7.429688 C 2.945312 -7.425781 2.941406 -7.425781 2.941406 -7.425781 C 2.941406 -7.425781 2.945312 -7.425781 2.945312 -7.429688 C 2.949219 -7.429688 2.949219 -7.433594 2.949219 -7.433594 C 2.949219 -7.433594 2.949219 -7.429688 2.945312 -7.425781 C 2.9375 -7.398438 2.933594 -7.367188 2.933594 -7.320312 L 2.933594 -6.152344 L 2.503906 -6.152344 L 2.636719 -6.558594 L 5.964844 -5.488281 C 6.179688 -5.414062 6.339844 -5.296875 6.453125 -5.136719 C 6.566406 -4.976562 6.621094 -4.789062 6.621094 -4.566406 L 6.621094 -1.980469 C 6.621094 -1.222656 6.414062 -0.628906 5.996094 -0.207031 C 5.578125 0.21875 4.980469 0.429688 4.210938 0.429688 L 2.667969 0.429688 C 1.910156 0.429688 1.316406 0.21875 0.894531 -0.203125 C 0.46875 -0.628906 0.257812 -1.21875 0.257812 -1.980469 L 0.257812 -2.875 C 0.257812 -3.066406 0.316406 -3.222656 0.4375 -3.34375 C 0.558594 -3.464844 0.714844 -3.527344 0.90625 -3.527344 L 2.296875 -3.527344 C 2.488281 -3.527344 2.644531 -3.464844 2.765625 -3.34375 C 2.886719 -3.222656 2.949219 -3.066406 2.949219 -2.875 L 2.949219 -2.296875 C 2.949219 -2.253906 2.953125 -2.21875 2.960938 -2.191406 C 2.960938 -2.1875 2.964844 -2.183594 2.964844 -2.183594 C 2.964844 -2.183594 2.960938 -2.1875 2.960938 -2.1875 C 2.957031 -2.191406 2.957031 -2.191406 2.953125 -2.195312 C 2.957031 -2.191406 2.960938 -2.191406 2.964844 -2.191406 C 2.988281 -2.179688 3.023438 -2.175781 3.070312 -2.175781 L 3.8125 -2.175781 C 3.855469 -2.175781 3.890625 -2.179688 3.917969 -2.191406 C 3.921875 -2.191406 3.925781 -2.191406 3.925781 -2.195312 C 3.925781 -2.191406 3.921875 -2.191406 3.921875 -2.1875 C 3.917969 -2.1875 3.917969 -2.183594 3.914062 -2.183594 C 3.917969 -2.183594 3.917969 -2.1875 3.917969 -2.191406 C 3.925781 -2.21875 3.933594 -2.253906 3.933594 -2.296875 L 3.933594 -3.6875 L 4.363281 -3.6875 L 4.230469 -3.277344 L 0.925781 -4.351562 C 0.714844 -4.421875 0.550781 -4.539062 0.433594 -4.695312 C 0.316406 -4.855469 0.257812 -5.046875 0.257812 -5.269531 L 0.257812 -7.652344 C 0.257812 -8.421875 0.46875 -9.015625 0.894531 -9.4375 C 1.316406 -9.851562 1.910156 -10.0625 2.667969 -10.0625 Z M 2.667969 -9.203125 C 2.144531 -9.203125 1.753906 -9.074219 1.5 -8.824219 C 1.246094 -8.574219 1.117188 -8.183594 1.117188 -7.652344 L 1.117188 -5.269531 C 1.117188 -5.234375 1.121094 -5.210938 1.128906 -5.203125 C 1.136719 -5.191406 1.15625 -5.179688 1.191406 -5.167969 L 4.792969 -4 L 4.792969 -2.296875 C 4.792969 -1.996094 4.703125 -1.757812 4.527344 -1.582031 C 4.351562 -1.40625 4.113281 -1.316406 3.8125 -1.316406 L 3.070312 -1.316406 C 2.765625 -1.316406 2.527344 -1.40625 2.351562 -1.582031 C 2.175781 -1.757812 2.089844 -1.996094 2.089844 -2.296875 L 2.089844 -2.875 C 2.089844 -2.867188 2.089844 -2.851562 2.097656 -2.835938 C 2.109375 -2.800781 2.128906 -2.765625 2.160156 -2.738281 C 2.1875 -2.707031 2.222656 -2.6875 2.257812 -2.675781 C 2.273438 -2.667969 2.289062 -2.664062 2.296875 -2.664062 L 0.90625 -2.664062 C 0.917969 -2.664062 0.929688 -2.667969 0.949219 -2.675781 C 0.984375 -2.6875 1.019531 -2.707031 1.046875 -2.738281 C 1.078125 -2.765625 1.097656 -2.800781 1.109375 -2.835938 C 1.117188 -2.851562 1.117188 -2.867188 1.117188 -2.875 L 1.117188 -1.980469 C 1.117188 -1.457031 1.246094 -1.070312 1.5 -0.8125 C 1.757812 -0.558594 2.144531 -0.429688 2.667969 -0.429688 L 4.210938 -0.429688 C 4.742188 -0.429688 5.132812 -0.558594 5.382812 -0.8125 C 5.636719 -1.066406 5.761719 -1.457031 5.761719 -1.980469 L 5.761719 -4.566406 C 5.761719 -4.605469 5.757812 -4.628906 5.75 -4.640625 C 5.746094 -4.648438 5.726562 -4.660156 5.703125 -4.667969 L 2.074219 -5.835938 L 2.074219 -7.320312 C 2.074219 -7.621094 2.160156 -7.863281 2.335938 -8.035156 C 2.511719 -8.210938 2.753906 -8.300781 3.054688 -8.300781 L 3.8125 -8.300781 C 4.113281 -8.300781 4.351562 -8.210938 4.527344 -8.035156 C 4.703125 -7.863281 4.792969 -7.621094 4.792969 -7.320312 L 4.792969 -6.742188 C 4.792969 -6.753906 4.789062 -6.765625 4.785156 -6.78125 C 4.769531 -6.820312 4.75 -6.851562 4.722656 -6.882812 C 4.691406 -6.910156 4.660156 -6.929688 4.621094 -6.945312 C 4.605469 -6.949219 4.59375 -6.953125 4.582031 -6.953125 L 5.972656 -6.953125 C 5.960938 -6.953125 5.949219 -6.949219 5.933594 -6.945312 C 5.894531 -6.929688 5.863281 -6.910156 5.832031 -6.882812 C 5.804688 -6.851562 5.78125 -6.820312 5.769531 -6.78125 C 5.765625 -6.765625 5.761719 -6.753906 5.761719 -6.742188 L 5.761719 -7.652344 C 5.761719 -8.183594 5.636719 -8.574219 5.386719 -8.824219 C 5.132812 -9.078125 4.742188 -9.203125 4.210938 -9.203125 Z M 2.667969 -9.203125 "/></g></g><g style="fill:#b21a22;fill-opacity:1;"><g transform="translate(72.250609, 34.222829)"><path style="stroke:none" d="M -0.429688 1.84375 L -0.429688 0.578125 C -0.429688 0.367188 -0.363281 0.199219 -0.234375 0.0664062 C -0.105469 -0.0625 0.0664062 -0.128906 0.273438 -0.128906 L 8.574219 -0.128906 C 8.78125 -0.128906 8.953125 -0.0625 9.082031 0.0664062 C 9.210938 0.199219 9.277344 0.367188 9.277344 0.578125 L 9.277344 1.84375 C 9.277344 2.054688 9.210938 2.222656 9.082031 2.355469 C 8.953125 2.484375 8.78125 2.550781 8.574219 2.550781 L 0.273438 2.550781 C 0.0664062 2.550781 -0.105469 2.484375 -0.234375 2.355469 C -0.363281 2.222656 -0.429688 2.054688 -0.429688 1.84375 Z M 0.429688 1.84375 C 0.429688 1.847656 0.429688 1.847656 0.429688 1.847656 C 0.429688 1.84375 0.425781 1.835938 0.425781 1.828125 C 0.414062 1.796875 0.398438 1.769531 0.371094 1.746094 C 0.347656 1.722656 0.320312 1.703125 0.289062 1.695312 C 0.285156 1.691406 0.277344 1.691406 0.273438 1.6875 C 0.269531 1.6875 0.269531 1.6875 0.269531 1.6875 C 0.273438 1.6875 0.273438 1.6875 0.273438 1.6875 L 8.574219 1.6875 C 8.574219 1.6875 8.574219 1.6875 8.578125 1.6875 C 8.578125 1.6875 8.578125 1.6875 8.574219 1.6875 C 8.570312 1.691406 8.5625 1.691406 8.558594 1.695312 C 8.527344 1.703125 8.5 1.722656 8.476562 1.746094 C 8.449219 1.769531 8.433594 1.796875 8.421875 1.828125 C 8.417969 1.835938 8.417969 1.84375 8.417969 1.847656 C 8.417969 1.847656 8.417969 1.847656 8.417969 1.84375 L 8.417969 0.578125 C 8.417969 0.574219 8.417969 0.574219 8.417969 0.574219 C 8.417969 0.578125 8.417969 0.585938 8.421875 0.59375 C 8.433594 0.625 8.449219 0.652344 8.476562 0.675781 C 8.5 0.699219 8.527344 0.71875 8.558594 0.726562 C 8.5625 0.730469 8.570312 0.730469 8.574219 0.734375 C 8.578125 0.734375 8.578125 0.734375 8.578125 0.734375 C 8.574219 0.734375 8.574219 0.734375 8.574219 0.734375 L 0.273438 0.734375 C 0.273438 0.734375 0.273438 0.734375 0.269531 0.734375 C 0.269531 0.734375 0.269531 0.734375 0.273438 0.734375 C 0.277344 0.730469 0.285156 0.730469 0.289062 0.726562 C 0.320312 0.71875 0.347656 0.699219 0.371094 0.675781 C 0.398438 0.652344 0.414062 0.625 0.425781 0.59375 C 0.425781 0.585938 0.429688 0.578125 0.429688 0.574219 C 0.429688 0.574219 0.429688 0.574219 0.429688 0.578125 Z M 0.429688 1.84375 "/></g></g><g style="fill:#b21a22;fill-opacity:1;"><g transform="translate(33.599933, 53.406233)"><path style="stroke:none" d="M 2.128906 -1.816406 L 2.128906 -9.410156 C 2.128906 -9.402344 2.132812 -9.386719 2.136719 -9.371094 C 2.148438 -9.335938 2.171875 -9.300781 2.199219 -9.273438 C 2.230469 -9.242188 2.261719 -9.222656 2.300781 -9.210938 C 2.316406 -9.203125 2.328125 -9.203125 2.339844 -9.203125 L 0.90625 -9.203125 C 0.917969 -9.203125 0.929688 -9.203125 0.949219 -9.210938 C 0.984375 -9.222656 1.019531 -9.242188 1.046875 -9.273438 C 1.078125 -9.300781 1.097656 -9.335938 1.109375 -9.371094 C 1.117188 -9.386719 1.117188 -9.402344 1.117188 -9.410156 L 1.117188 -0.21875 C 1.117188 -0.230469 1.117188 -0.242188 1.109375 -0.261719 C 1.097656 -0.296875 1.078125 -0.328125 1.046875 -0.359375 C 1.019531 -0.386719 0.984375 -0.410156 0.949219 -0.421875 C 0.929688 -0.425781 0.917969 -0.429688 0.90625 -0.429688 L 5.285156 -0.429688 C 5.273438 -0.429688 5.261719 -0.425781 5.242188 -0.421875 C 5.207031 -0.410156 5.175781 -0.386719 5.144531 -0.359375 C 5.117188 -0.328125 5.09375 -0.296875 5.082031 -0.261719 C 5.078125 -0.242188 5.074219 -0.230469 5.074219 -0.21875 L 5.074219 -1.597656 C 5.074219 -1.585938 5.078125 -1.574219 5.082031 -1.554688 C 5.09375 -1.519531 5.117188 -1.488281 5.144531 -1.457031 C 5.175781 -1.425781 5.207031 -1.40625 5.242188 -1.394531 C 5.261719 -1.390625 5.273438 -1.386719 5.285156 -1.386719 L 2.128906 -1.386719 Z M 2.988281 -1.816406 L 2.558594 -1.816406 L 2.558594 -2.246094 L 5.285156 -2.246094 C 5.476562 -2.246094 5.632812 -2.1875 5.753906 -2.066406 C 5.875 -1.945312 5.933594 -1.789062 5.933594 -1.597656 L 5.933594 -0.21875 C 5.933594 -0.0273438 5.875 0.128906 5.753906 0.25 C 5.632812 0.371094 5.476562 0.429688 5.285156 0.429688 L 0.90625 0.429688 C 0.714844 0.429688 0.558594 0.371094 0.4375 0.25 C 0.316406 0.128906 0.257812 -0.0273438 0.257812 -0.21875 L 0.257812 -9.410156 C 0.257812 -9.605469 0.316406 -9.761719 0.4375 -9.878906 C 0.558594 -10 0.714844 -10.0625 0.90625 -10.0625 L 2.339844 -10.0625 C 2.53125 -10.0625 2.6875 -10 2.808594 -9.878906 C 2.929688 -9.761719 2.988281 -9.605469 2.988281 -9.410156 Z M 2.988281 -1.816406 "/></g></g><g style="fill:#b21a22;fill-opacity:1;"><g transform="translate(39.789854, 53.406233)"><path style="stroke:none" d="M 0.257812 -1.980469 L 0.257812 -7.652344 C 0.257812 -8.421875 0.46875 -9.015625 0.894531 -9.4375 C 1.316406 -9.851562 1.910156 -10.0625 2.667969 -10.0625 L 4.210938 -10.0625 C 4.980469 -10.0625 5.574219 -9.851562 5.992188 -9.433594 C 6.414062 -9.015625 6.621094 -8.421875 6.621094 -7.652344 L 6.621094 -1.980469 C 6.621094 -1.222656 6.414062 -0.628906 5.996094 -0.207031 C 5.578125 0.21875 4.980469 0.429688 4.210938 0.429688 L 2.667969 0.429688 C 1.910156 0.429688 1.316406 0.21875 0.894531 -0.203125 C 0.46875 -0.628906 0.257812 -1.21875 0.257812 -1.980469 Z M 1.117188 -1.980469 C 1.117188 -1.457031 1.246094 -1.070312 1.5 -0.8125 C 1.757812 -0.558594 2.144531 -0.429688 2.667969 -0.429688 L 4.210938 -0.429688 C 4.742188 -0.429688 5.132812 -0.558594 5.382812 -0.8125 C 5.636719 -1.066406 5.761719 -1.457031 5.761719 -1.980469 L 5.761719 -7.652344 C 5.761719 -8.183594 5.636719 -8.574219 5.386719 -8.824219 C 5.132812 -9.078125 4.742188 -9.203125 4.210938 -9.203125 L 2.667969 -9.203125 C 2.144531 -9.203125 1.753906 -9.074219 1.5 -8.824219 C 1.246094 -8.574219 1.117188 -8.183594 1.117188 -7.652344 Z M 3.027344 -2.203125 L 3.90625 -2.203125 C 3.953125 -2.203125 3.988281 -2.210938 4.011719 -2.21875 C 4.015625 -2.21875 4.019531 -2.21875 4.023438 -2.222656 C 4.019531 -2.21875 4.019531 -2.21875 4.015625 -2.214844 C 4.015625 -2.214844 4.011719 -2.210938 4.011719 -2.210938 C 4.011719 -2.214844 4.015625 -2.214844 4.015625 -2.21875 C 4.023438 -2.246094 4.027344 -2.28125 4.027344 -2.324219 L 4.027344 -7.304688 C 4.027344 -7.351562 4.023438 -7.386719 4.015625 -7.410156 C 4.015625 -7.414062 4.011719 -7.417969 4.011719 -7.421875 C 4.011719 -7.417969 4.015625 -7.417969 4.015625 -7.414062 C 4.019531 -7.414062 4.019531 -7.410156 4.023438 -7.410156 C 4.019531 -7.410156 4.015625 -7.414062 4.011719 -7.414062 C 3.988281 -7.421875 3.953125 -7.425781 3.90625 -7.425781 L 3.027344 -7.425781 C 2.980469 -7.425781 2.945312 -7.421875 2.921875 -7.414062 C 2.917969 -7.414062 2.914062 -7.410156 2.914062 -7.410156 C 2.914062 -7.410156 2.917969 -7.414062 2.917969 -7.414062 C 2.921875 -7.417969 2.921875 -7.417969 2.921875 -7.421875 C 2.921875 -7.417969 2.921875 -7.414062 2.917969 -7.410156 C 2.910156 -7.386719 2.90625 -7.351562 2.90625 -7.304688 L 2.90625 -2.324219 C 2.90625 -2.28125 2.910156 -2.246094 2.917969 -2.21875 C 2.921875 -2.214844 2.921875 -2.214844 2.921875 -2.210938 C 2.921875 -2.210938 2.921875 -2.214844 2.917969 -2.214844 C 2.917969 -2.21875 2.914062 -2.21875 2.914062 -2.222656 C 2.914062 -2.21875 2.917969 -2.21875 2.921875 -2.21875 C 2.945312 -2.210938 2.980469 -2.203125 3.027344 -2.203125 Z M 3.027344 -1.34375 C 2.726562 -1.34375 2.484375 -1.433594 2.308594 -1.609375 C 2.132812 -1.785156 2.046875 -2.023438 2.046875 -2.324219 L 2.046875 -7.304688 C 2.046875 -7.609375 2.132812 -7.847656 2.308594 -8.023438 C 2.484375 -8.199219 2.726562 -8.285156 3.027344 -8.285156 L 3.90625 -8.285156 C 4.210938 -8.285156 4.449219 -8.199219 4.625 -8.023438 C 4.800781 -7.847656 4.886719 -7.609375 4.886719 -7.304688 L 4.886719 -2.324219 C 4.886719 -2.023438 4.800781 -1.785156 4.625 -1.609375 C 4.449219 -1.433594 4.210938 -1.34375 3.90625 -1.34375 Z M 3.027344 -1.34375 "/></g></g><g style="fill:#b21a22;fill-opacity:1;"><g transform="translate(46.667546, 53.406233)"><path style="stroke:none" d="M 0.257812 -1.980469 L 0.257812 -7.652344 C 0.257812 -8.421875 0.46875 -9.015625 0.894531 -9.4375 C 1.316406 -9.851562 1.910156 -10.0625 2.667969 -10.0625 L 4.210938 -10.0625 C 4.96875 -10.0625 5.5625 -9.851562 5.984375 -9.4375 C 6.410156 -9.015625 6.621094 -8.421875 6.621094 -7.652344 L 6.621094 -6.632812 C 6.621094 -6.441406 6.5625 -6.285156 6.441406 -6.164062 C 6.320312 -6.042969 6.164062 -5.980469 5.972656 -5.980469 L 4.679688 -5.980469 C 4.484375 -5.980469 4.328125 -6.042969 4.210938 -6.164062 C 4.089844 -6.285156 4.027344 -6.441406 4.027344 -6.632812 L 4.027344 -7.304688 C 4.027344 -7.351562 4.023438 -7.386719 4.015625 -7.410156 C 4.015625 -7.414062 4.011719 -7.417969 4.011719 -7.421875 C 4.011719 -7.417969 4.015625 -7.417969 4.015625 -7.414062 C 4.019531 -7.414062 4.019531 -7.410156 4.023438 -7.410156 C 4.019531 -7.410156 4.015625 -7.414062 4.011719 -7.414062 C 3.988281 -7.421875 3.953125 -7.425781 3.90625 -7.425781 L 3.027344 -7.425781 C 2.980469 -7.425781 2.945312 -7.421875 2.921875 -7.414062 C 2.917969 -7.414062 2.914062 -7.410156 2.914062 -7.410156 C 2.914062 -7.410156 2.917969 -7.414062 2.917969 -7.414062 C 2.921875 -7.417969 2.921875 -7.417969 2.921875 -7.421875 C 2.921875 -7.417969 2.921875 -7.414062 2.917969 -7.410156 C 2.910156 -7.386719 2.90625 -7.351562 2.90625 -7.304688 L 2.90625 -2.324219 C 2.90625 -2.28125 2.910156 -2.246094 2.917969 -2.21875 C 2.921875 -2.214844 2.921875 -2.214844 2.921875 -2.210938 C 2.921875 -2.210938 2.921875 -2.214844 2.917969 -2.214844 C 2.917969 -2.21875 2.914062 -2.21875 2.914062 -2.222656 C 2.914062 -2.21875 2.917969 -2.21875 2.921875 -2.21875 C 2.945312 -2.210938 2.980469 -2.203125 3.027344 -2.203125 L 3.90625 -2.203125 C 3.953125 -2.203125 3.988281 -2.210938 4.011719 -2.21875 C 4.015625 -2.21875 4.019531 -2.21875 4.023438 -2.222656 C 4.019531 -2.21875 4.019531 -2.21875 4.015625 -2.214844 C 4.015625 -2.214844 4.011719 -2.210938 4.011719 -2.210938 C 4.011719 -2.214844 4.015625 -2.214844 4.015625 -2.21875 C 4.023438 -2.246094 4.027344 -2.28125 4.027344 -2.324219 L 4.027344 -3.523438 L 4.457031 -3.523438 L 4.457031 -3.09375 L 3.742188 -3.09375 C 3.550781 -3.09375 3.394531 -3.152344 3.273438 -3.273438 C 3.152344 -3.394531 3.09375 -3.550781 3.09375 -3.742188 L 3.09375 -5.117188 C 3.09375 -5.3125 3.152344 -5.46875 3.273438 -5.585938 C 3.394531 -5.707031 3.550781 -5.769531 3.742188 -5.769531 L 5.972656 -5.769531 C 6.164062 -5.769531 6.320312 -5.707031 6.441406 -5.585938 C 6.5625 -5.46875 6.621094 -5.3125 6.621094 -5.117188 L 6.621094 -1.980469 C 6.621094 -1.21875 6.410156 -0.628906 5.988281 -0.203125 C 5.5625 0.21875 4.972656 0.429688 4.210938 0.429688 L 2.667969 0.429688 C 1.910156 0.429688 1.316406 0.21875 0.894531 -0.203125 C 0.46875 -0.628906 0.257812 -1.21875 0.257812 -1.980469 Z M 1.117188 -1.980469 C 1.117188 -1.457031 1.246094 -1.070312 1.5 -0.8125 C 1.757812 -0.558594 2.144531 -0.429688 2.667969 -0.429688 L 4.210938 -0.429688 C 4.734375 -0.429688 5.125 -0.558594 5.378906 -0.8125 C 5.632812 -1.070312 5.761719 -1.457031 5.761719 -1.980469 L 5.761719 -5.117188 C 5.761719 -5.109375 5.765625 -5.09375 5.769531 -5.078125 C 5.78125 -5.042969 5.804688 -5.007812 5.832031 -4.980469 C 5.863281 -4.949219 5.894531 -4.929688 5.933594 -4.917969 C 5.949219 -4.910156 5.960938 -4.910156 5.972656 -4.910156 L 3.742188 -4.910156 C 3.753906 -4.910156 3.765625 -4.910156 3.78125 -4.917969 C 3.820312 -4.929688 3.851562 -4.949219 3.882812 -4.980469 C 3.910156 -5.007812 3.933594 -5.042969 3.945312 -5.078125 C 3.949219 -5.09375 3.953125 -5.109375 3.953125 -5.117188 L 3.953125 -3.742188 C 3.953125 -3.753906 3.949219 -3.765625 3.945312 -3.78125 C 3.933594 -3.820312 3.910156 -3.851562 3.882812 -3.882812 C 3.851562 -3.910156 3.820312 -3.933594 3.78125 -3.945312 C 3.765625 -3.949219 3.753906 -3.953125 3.742188 -3.953125 L 4.886719 -3.953125 L 4.886719 -2.324219 C 4.886719 -2.023438 4.800781 -1.785156 4.625 -1.609375 C 4.449219 -1.433594 4.210938 -1.34375 3.90625 -1.34375 L 3.027344 -1.34375 C 2.726562 -1.34375 2.484375 -1.433594 2.308594 -1.609375 C 2.132812 -1.785156 2.046875 -2.023438 2.046875 -2.324219 L 2.046875 -7.304688 C 2.046875 -7.609375 2.132812 -7.847656 2.308594 -8.023438 C 2.484375 -8.199219 2.726562 -8.285156 3.027344 -8.285156 L 3.90625 -8.285156 C 4.210938 -8.285156 4.449219 -8.199219 4.625 -8.023438 C 4.800781 -7.847656 4.886719 -7.609375 4.886719 -7.304688 L 4.886719 -6.632812 C 4.886719 -6.640625 4.886719 -6.65625 4.878906 -6.671875 C 4.867188 -6.707031 4.847656 -6.742188 4.816406 -6.769531 C 4.789062 -6.800781 4.753906 -6.820312 4.71875 -6.832031 C 4.703125 -6.839844 4.6875 -6.84375 4.679688 -6.84375 L 5.972656 -6.84375 C 5.960938 -6.84375 5.949219 -6.839844 5.933594 -6.832031 C 5.894531 -6.820312 5.863281 -6.800781 5.832031 -6.769531 C 5.804688 -6.742188 5.78125 -6.707031 5.769531 -6.671875 C 5.765625 -6.65625 5.761719 -6.640625 5.761719 -6.632812 L 5.761719 -7.652344 C 5.761719 -8.183594 5.636719 -8.574219 5.378906 -8.824219 C 5.125 -9.074219 4.734375 -9.203125 4.210938 -9.203125 L 2.667969 -9.203125 C 2.144531 -9.203125 1.753906 -9.074219 1.5 -8.824219 C 1.246094 -8.574219 1.117188 -8.183594 1.117188 -7.652344 Z M 1.117188 -1.980469 "/></g></g><g style="fill:#b21a22;fill-opacity:1;"><g transform="translate(53.545237, 53.406233)"><path style="stroke:none" d="M -0.429688 1.84375 L -0.429688 0.578125 C -0.429688 0.367188 -0.363281 0.199219 -0.234375 0.0664062 C -0.105469 -0.0625 0.0664062 -0.128906 0.273438 -0.128906 L 8.574219 -0.128906 C 8.78125 -0.128906 8.953125 -0.0625 9.082031 0.0664062 C 9.210938 0.199219 9.277344 0.367188 9.277344 0.578125 L 9.277344 1.84375 C 9.277344 2.054688 9.210938 2.222656 9.082031 2.355469 C 8.953125 2.484375 8.78125 2.550781 8.574219 2.550781 L 0.273438 2.550781 C 0.0664062 2.550781 -0.105469 2.484375 -0.234375 2.355469 C -0.363281 2.222656 -0.429688 2.054688 -0.429688 1.84375 Z M 0.429688 1.84375 C 0.429688 1.847656 0.429688 1.847656 0.429688 1.847656 C 0.429688 1.84375 0.425781 1.835938 0.425781 1.828125 C 0.414062 1.796875 0.398438 1.769531 0.371094 1.746094 C 0.347656 1.722656 0.320312 1.703125 0.289062 1.695312 C 0.285156 1.691406 0.277344 1.691406 0.273438 1.6875 C 0.269531 1.6875 0.269531 1.6875 0.269531 1.6875 C 0.273438 1.6875 0.273438 1.6875 0.273438 1.6875 L 8.574219 1.6875 C 8.574219 1.6875 8.574219 1.6875 8.578125 1.6875 C 8.578125 1.6875 8.578125 1.6875 8.574219 1.6875 C 8.570312 1.691406 8.5625 1.691406 8.558594 1.695312 C 8.527344 1.703125 8.5 1.722656 8.476562 1.746094 C 8.449219 1.769531 8.433594 1.796875 8.421875 1.828125 C 8.417969 1.835938 8.417969 1.84375 8.417969 1.847656 C 8.417969 1.847656 8.417969 1.847656 8.417969 1.84375 L 8.417969 0.578125 C 8.417969 0.574219 8.417969 0.574219 8.417969 0.574219 C 8.417969 0.578125 8.417969 0.585938 8.421875 0.59375 C 8.433594 0.625 8.449219 0.652344 8.476562 0.675781 C 8.5 0.699219 8.527344 0.71875 8.558594 0.726562 C 8.5625 0.730469 8.570312 0.730469 8.574219 0.734375 C 8.578125 0.734375 8.578125 0.734375 8.578125 0.734375 C 8.574219 0.734375 8.574219 0.734375 8.574219 0.734375 L 0.273438 0.734375 C 0.273438 0.734375 0.273438 0.734375 0.269531 0.734375 C 0.269531 0.734375 0.269531 0.734375 0.273438 0.734375 C 0.277344 0.730469 0.285156 0.730469 0.289062 0.726562 C 0.320312 0.71875 0.347656 0.699219 0.371094 0.675781 C 0.398438 0.652344 0.414062 0.625 0.425781 0.59375 C 0.425781 0.585938 0.429688 0.578125 0.429688 0.574219 C 0.429688 0.574219 0.429688 0.574219 0.429688 0.578125 Z M 0.429688 1.84375 "/></g></g><g style="fill:#b21a22;fill-opacity:1;"><g transform="translate(15.975181, 72.589636)"><path style="stroke:none" d="M 6.621094 -9.410156 L 6.621094 -8.035156 C 6.621094 -7.84375 6.5625 -7.6875 6.441406 -7.566406 C 6.320312 -7.445312 6.164062 -7.386719 5.972656 -7.386719 L 2.558594 -7.386719 L 2.558594 -7.816406 L 2.988281 -7.816406 L 2.988281 -5.460938 L 2.558594 -5.460938 L 2.558594 -5.894531 L 5.144531 -5.894531 C 5.339844 -5.894531 5.496094 -5.832031 5.617188 -5.710938 C 5.734375 -5.589844 5.796875 -5.433594 5.796875 -5.242188 L 5.796875 -3.867188 C 5.796875 -3.675781 5.734375 -3.519531 5.617188 -3.398438 C 5.496094 -3.277344 5.339844 -3.214844 5.144531 -3.214844 L 2.558594 -3.214844 L 2.558594 -3.644531 L 2.988281 -3.644531 L 2.988281 -0.21875 C 2.988281 -0.0273438 2.929688 0.128906 2.808594 0.25 C 2.6875 0.371094 2.53125 0.429688 2.339844 0.429688 L 0.90625 0.429688 C 0.714844 0.429688 0.558594 0.371094 0.4375 0.25 C 0.316406 0.128906 0.257812 -0.0273438 0.257812 -0.21875 L 0.257812 -9.410156 C 0.257812 -9.605469 0.316406 -9.761719 0.4375 -9.878906 C 0.558594 -10 0.714844 -10.0625 0.90625 -10.0625 L 5.972656 -10.0625 C 6.164062 -10.0625 6.320312 -10 6.441406 -9.878906 C 6.5625 -9.761719 6.621094 -9.605469 6.621094 -9.410156 Z M 5.761719 -9.410156 C 5.761719 -9.402344 5.765625 -9.386719 5.769531 -9.371094 C 5.78125 -9.335938 5.804688 -9.300781 5.832031 -9.273438 C 5.863281 -9.242188 5.894531 -9.222656 5.933594 -9.210938 C 5.949219 -9.203125 5.960938 -9.203125 5.972656 -9.203125 L 0.90625 -9.203125 C 0.917969 -9.203125 0.929688 -9.203125 0.949219 -9.210938 C 0.984375 -9.222656 1.019531 -9.242188 1.046875 -9.273438 C 1.078125 -9.300781 1.097656 -9.335938 1.109375 -9.371094 C 1.117188 -9.386719 1.117188 -9.402344 1.117188 -9.410156 L 1.117188 -0.21875 C 1.117188 -0.230469 1.117188 -0.242188 1.109375 -0.261719 C 1.097656 -0.296875 1.078125 -0.328125 1.046875 -0.359375 C 1.019531 -0.386719 0.984375 -0.410156 0.949219 -0.421875 C 0.929688 -0.425781 0.917969 -0.429688 0.90625 -0.429688 L 2.339844 -0.429688 C 2.328125 -0.429688 2.316406 -0.425781 2.300781 -0.421875 C 2.261719 -0.410156 2.230469 -0.386719 2.199219 -0.359375 C 2.171875 -0.328125 2.148438 -0.296875 2.136719 -0.261719 C 2.132812 -0.242188 2.128906 -0.230469 2.128906 -0.21875 L 2.128906 -4.078125 L 5.144531 -4.078125 C 5.136719 -4.078125 5.125 -4.074219 5.105469 -4.066406 C 5.070312 -4.054688 5.035156 -4.035156 5.007812 -4.003906 C 4.976562 -3.976562 4.957031 -3.941406 4.945312 -3.90625 C 4.9375 -3.890625 4.9375 -3.875 4.9375 -3.867188 L 4.9375 -5.242188 C 4.9375 -5.234375 4.9375 -5.21875 4.945312 -5.203125 C 4.957031 -5.167969 4.976562 -5.132812 5.007812 -5.101562 C 5.035156 -5.074219 5.070312 -5.054688 5.105469 -5.039062 C 5.125 -5.035156 5.136719 -5.03125 5.144531 -5.03125 L 2.128906 -5.03125 L 2.128906 -8.246094 L 5.972656 -8.246094 C 5.960938 -8.246094 5.949219 -8.242188 5.933594 -8.238281 C 5.894531 -8.226562 5.863281 -8.203125 5.832031 -8.175781 C 5.804688 -8.144531 5.78125 -8.113281 5.769531 -8.074219 C 5.765625 -8.058594 5.761719 -8.046875 5.761719 -8.035156 Z M 5.761719 -9.410156 "/></g></g><g style="fill:#b21a22;fill-opacity:1;"><g transform="translate(22.852872, 72.589636)"><path style="stroke:none" d="M 0.257812 -1.980469 L 0.257812 -7.652344 C 0.257812 -8.421875 0.46875 -9.015625 0.894531 -9.4375 C 1.316406 -9.851562 1.910156 -10.0625 2.667969 -10.0625 L 4.210938 -10.0625 C 4.980469 -10.0625 5.574219 -9.851562 5.992188 -9.433594 C 6.414062 -9.015625 6.621094 -8.421875 6.621094 -7.652344 L 6.621094 -1.980469 C 6.621094 -1.222656 6.414062 -0.628906 5.996094 -0.207031 C 5.578125 0.21875 4.980469 0.429688 4.210938 0.429688 L 2.667969 0.429688 C 1.910156 0.429688 1.316406 0.21875 0.894531 -0.203125 C 0.46875 -0.628906 0.257812 -1.21875 0.257812 -1.980469 Z M 1.117188 -1.980469 C 1.117188 -1.457031 1.246094 -1.070312 1.5 -0.8125 C 1.757812 -0.558594 2.144531 -0.429688 2.667969 -0.429688 L 4.210938 -0.429688 C 4.742188 -0.429688 5.132812 -0.558594 5.382812 -0.8125 C 5.636719 -1.066406 5.761719 -1.457031 5.761719 -1.980469 L 5.761719 -7.652344 C 5.761719 -8.183594 5.636719 -8.574219 5.386719 -8.824219 C 5.132812 -9.078125 4.742188 -9.203125 4.210938 -9.203125 L 2.667969 -9.203125 C 2.144531 -9.203125 1.753906 -9.074219 1.5 -8.824219 C 1.246094 -8.574219 1.117188 -8.183594 1.117188 -7.652344 Z M 3.027344 -2.203125 L 3.90625 -2.203125 C 3.953125 -2.203125 3.988281 -2.210938 4.011719 -2.21875 C 4.015625 -2.21875 4.019531 -2.21875 4.023438 -2.222656 C 4.019531 -2.21875 4.019531 -2.21875 4.015625 -2.214844 C 4.015625 -2.214844 4.011719 -2.210938 4.011719 -2.210938 C 4.011719 -2.214844 4.015625 -2.214844 4.015625 -2.21875 C 4.023438 -2.246094 4.027344 -2.28125 4.027344 -2.324219 L 4.027344 -7.304688 C 4.027344 -7.351562 4.023438 -7.386719 4.015625 -7.410156 C 4.015625 -7.414062 4.011719 -7.417969 4.011719 -7.421875 C 4.011719 -7.417969 4.015625 -7.417969 4.015625 -7.414062 C 4.019531 -7.414062 4.019531 -7.410156 4.023438 -7.410156 C 4.019531 -7.410156 4.015625 -7.414062 4.011719 -7.414062 C 3.988281 -7.421875 3.953125 -7.425781 3.90625 -7.425781 L 3.027344 -7.425781 C 2.980469 -7.425781 2.945312 -7.421875 2.921875 -7.414062 C 2.917969 -7.414062 2.914062 -7.410156 2.914062 -7.410156 C 2.914062 -7.410156 2.917969 -7.414062 2.917969 -7.414062 C 2.921875 -7.417969 2.921875 -7.417969 2.921875 -7.421875 C 2.921875 -7.417969 2.921875 -7.414062 2.917969 -7.410156 C 2.910156 -7.386719 2.90625 -7.351562 2.90625 -7.304688 L 2.90625 -2.324219 C 2.90625 -2.28125 2.910156 -2.246094 2.917969 -2.21875 C 2.921875 -2.214844 2.921875 -2.214844 2.921875 -2.210938 C 2.921875 -2.210938 2.921875 -2.214844 2.917969 -2.214844 C 2.917969 -2.21875 2.914062 -2.21875 2.914062 -2.222656 C 2.914062 -2.21875 2.917969 -2.21875 2.921875 -2.21875 C 2.945312 -2.210938 2.980469 -2.203125 3.027344 -2.203125 Z M 3.027344 -1.34375 C 2.726562 -1.34375 2.484375 -1.433594 2.308594 -1.609375 C 2.132812 -1.785156 2.046875 -2.023438 2.046875 -2.324219 L 2.046875 -7.304688 C 2.046875 -7.609375 2.132812 -7.847656 2.308594 -8.023438 C 2.484375 -8.199219 2.726562 -8.285156 3.027344 -8.285156 L 3.90625 -8.285156 C 4.210938 -8.285156 4.449219 -8.199219 4.625 -8.023438 C 4.800781 -7.847656 4.886719 -7.609375 4.886719 -7.304688 L 4.886719 -2.324219 C 4.886719 -2.023438 4.800781 -1.785156 4.625 -1.609375 C 4.449219 -1.433594 4.210938 -1.34375 3.90625 -1.34375 Z M 3.027344 -1.34375 "/></g></g><g style="fill:#b21a22;fill-opacity:1;"><g transform="translate(29.730564, 72.589636)"><path style="stroke:none" d="M 6.621094 -7.652344 L 6.621094 -4.882812 C 6.621094 -3.929688 6.296875 -3.246094 5.648438 -2.839844 L 5.421875 -3.207031 L 5.839844 -3.308594 L 6.554688 -0.347656 L 6.136719 -0.246094 L 6.550781 -0.363281 C 6.613281 -0.140625 6.582031 0.046875 6.460938 0.203125 C 6.34375 0.355469 6.171875 0.429688 5.945312 0.429688 L 4.597656 0.429688 C 4.429688 0.429688 4.285156 0.382812 4.167969 0.285156 C 4.050781 0.1875 3.976562 0.0585938 3.941406 -0.101562 L 4.363281 -0.191406 L 3.945312 -0.0898438 L 3.285156 -2.800781 L 3.703125 -2.902344 L 3.703125 -2.472656 L 2.476562 -2.472656 L 2.476562 -2.902344 L 2.90625 -2.902344 L 2.90625 -0.21875 C 2.90625 -0.0273438 2.847656 0.128906 2.726562 0.25 C 2.605469 0.371094 2.449219 0.429688 2.257812 0.429688 L 0.90625 0.429688 C 0.714844 0.429688 0.558594 0.371094 0.4375 0.25 C 0.316406 0.128906 0.257812 -0.0273438 0.257812 -0.21875 L 0.257812 -9.410156 C 0.257812 -9.605469 0.316406 -9.761719 0.4375 -9.878906 C 0.558594 -10 0.714844 -10.0625 0.90625 -10.0625 L 4.210938 -10.0625 C 4.980469 -10.0625 5.574219 -9.851562 5.992188 -9.433594 C 6.414062 -9.015625 6.621094 -8.421875 6.621094 -7.652344 Z M 5.761719 -7.652344 C 5.761719 -8.183594 5.636719 -8.574219 5.386719 -8.824219 C 5.132812 -9.078125 4.742188 -9.203125 4.210938 -9.203125 L 0.90625 -9.203125 C 0.917969 -9.203125 0.929688 -9.203125 0.949219 -9.210938 C 0.984375 -9.222656 1.019531 -9.242188 1.046875 -9.273438 C 1.078125 -9.300781 1.097656 -9.335938 1.109375 -9.371094 C 1.117188 -9.386719 1.117188 -9.402344 1.117188 -9.410156 L 1.117188 -0.21875 C 1.117188 -0.230469 1.117188 -0.242188 1.109375 -0.261719 C 1.097656 -0.296875 1.078125 -0.328125 1.046875 -0.359375 C 1.019531 -0.386719 0.984375 -0.410156 0.949219 -0.421875 C 0.929688 -0.425781 0.917969 -0.429688 0.90625 -0.429688 L 2.257812 -0.429688 C 2.246094 -0.429688 2.234375 -0.425781 2.21875 -0.421875 C 2.179688 -0.410156 2.148438 -0.386719 2.117188 -0.359375 C 2.089844 -0.328125 2.066406 -0.296875 2.054688 -0.261719 C 2.050781 -0.242188 2.046875 -0.230469 2.046875 -0.21875 L 2.046875 -3.332031 L 4.039062 -3.332031 L 4.78125 -0.289062 L 4.78125 -0.28125 C 4.773438 -0.316406 4.753906 -0.347656 4.714844 -0.378906 C 4.675781 -0.414062 4.632812 -0.429688 4.597656 -0.429688 L 5.945312 -0.429688 C 5.933594 -0.429688 5.925781 -0.425781 5.914062 -0.421875 C 5.863281 -0.40625 5.820312 -0.371094 5.785156 -0.324219 C 5.746094 -0.277344 5.726562 -0.226562 5.722656 -0.171875 C 5.71875 -0.152344 5.71875 -0.140625 5.722656 -0.132812 L 5.71875 -0.140625 L 4.929688 -3.40625 L 5.195312 -3.570312 C 5.574219 -3.808594 5.761719 -4.246094 5.761719 -4.882812 Z M 2.476562 -5.109375 L 3.851562 -5.109375 C 3.898438 -5.109375 3.933594 -5.113281 3.957031 -5.121094 C 3.960938 -5.121094 3.964844 -5.125 3.96875 -5.125 C 3.964844 -5.125 3.964844 -5.121094 3.960938 -5.121094 C 3.960938 -5.117188 3.957031 -5.117188 3.957031 -5.113281 C 3.957031 -5.117188 3.960938 -5.121094 3.960938 -5.125 C 3.96875 -5.148438 3.972656 -5.183594 3.972656 -5.230469 L 3.972656 -7.304688 C 3.972656 -7.351562 3.96875 -7.386719 3.960938 -7.410156 C 3.960938 -7.414062 3.957031 -7.417969 3.957031 -7.421875 C 3.957031 -7.417969 3.960938 -7.417969 3.960938 -7.414062 C 3.964844 -7.414062 3.964844 -7.410156 3.96875 -7.410156 C 3.964844 -7.410156 3.960938 -7.414062 3.957031 -7.414062 C 3.933594 -7.421875 3.898438 -7.425781 3.851562 -7.425781 L 2.476562 -7.425781 L 2.476562 -7.855469 L 2.90625 -7.855469 L 2.90625 -4.679688 L 2.476562 -4.679688 Z M 2.046875 -4.25 L 2.046875 -8.285156 L 3.851562 -8.285156 C 4.15625 -8.285156 4.394531 -8.199219 4.570312 -8.023438 C 4.746094 -7.847656 4.832031 -7.609375 4.832031 -7.304688 L 4.832031 -5.230469 C 4.832031 -4.925781 4.746094 -4.6875 4.570312 -4.511719 C 4.394531 -4.335938 4.15625 -4.25 3.851562 -4.25 Z M 2.046875 -4.25 "/></g></g><g style="fill:#b21a22;fill-opacity:1;"><g transform="translate(36.608255, 72.589636)"><path style="stroke:none" d="M 6.441406 -10.0625 L 8.253906 -10.0625 C 8.464844 -10.0625 8.636719 -9.996094 8.765625 -9.867188 C 8.894531 -9.738281 8.960938 -9.566406 8.960938 -9.355469 L 8.960938 -0.273438 C 8.960938 -0.0664062 8.894531 0.105469 8.765625 0.234375 C 8.636719 0.363281 8.464844 0.429688 8.253906 0.429688 L 6.976562 0.429688 C 6.765625 0.429688 6.59375 0.363281 6.464844 0.234375 C 6.335938 0.105469 6.269531 -0.0664062 6.269531 -0.273438 L 6.269531 -5.683594 L 6.699219 -5.683594 L 6.699219 -5.253906 L 6.605469 -5.253906 L 6.605469 -5.683594 L 7.023438 -5.582031 L 5.726562 -0.125 L 5.722656 -0.113281 C 5.675781 0.0546875 5.589844 0.1875 5.464844 0.28125 C 5.335938 0.378906 5.183594 0.429688 5.007812 0.429688 L 4.195312 0.429688 C 4.019531 0.429688 3.867188 0.378906 3.742188 0.28125 C 3.617188 0.1875 3.53125 0.0546875 3.480469 -0.113281 L 3.476562 -0.125 L 2.183594 -5.582031 L 2.601562 -5.683594 L 2.601562 -5.253906 L 2.503906 -5.253906 L 2.503906 -5.683594 L 2.933594 -5.683594 L 2.933594 -0.273438 C 2.933594 -0.0664062 2.871094 0.105469 2.738281 0.234375 C 2.609375 0.363281 2.441406 0.429688 2.230469 0.429688 L 0.964844 0.429688 C 0.753906 0.429688 0.582031 0.363281 0.453125 0.234375 C 0.324219 0.105469 0.257812 -0.0664062 0.257812 -0.273438 L 0.257812 -9.355469 C 0.257812 -9.566406 0.324219 -9.738281 0.453125 -9.867188 C 0.582031 -9.996094 0.753906 -10.0625 0.964844 -10.0625 L 2.78125 -10.0625 C 2.957031 -10.0625 3.105469 -10.011719 3.234375 -9.914062 C 3.359375 -9.816406 3.445312 -9.6875 3.496094 -9.519531 L 3.496094 -9.511719 L 5.027344 -3.363281 L 4.609375 -3.261719 L 4.191406 -3.363281 L 5.722656 -9.511719 L 5.722656 -9.519531 C 5.773438 -9.6875 5.859375 -9.816406 5.984375 -9.914062 C 6.113281 -10.011719 6.265625 -10.0625 6.441406 -10.0625 Z M 6.441406 -9.203125 C 6.460938 -9.203125 6.484375 -9.210938 6.511719 -9.234375 C 6.523438 -9.246094 6.535156 -9.257812 6.546875 -9.273438 C 6.546875 -9.273438 6.550781 -9.277344 6.550781 -9.28125 C 6.550781 -9.28125 6.550781 -9.277344 6.550781 -9.277344 L 6.136719 -9.398438 L 6.554688 -9.292969 L 5.027344 -3.15625 L 4.191406 -3.15625 L 2.664062 -9.292969 L 3.082031 -9.398438 L 2.667969 -9.277344 C 2.667969 -9.277344 2.667969 -9.28125 2.667969 -9.28125 C 2.667969 -9.277344 2.671875 -9.273438 2.671875 -9.273438 C 2.683594 -9.257812 2.695312 -9.246094 2.710938 -9.234375 C 2.734375 -9.210938 2.757812 -9.203125 2.78125 -9.203125 L 0.964844 -9.203125 C 0.960938 -9.203125 0.960938 -9.203125 0.957031 -9.203125 C 0.957031 -9.203125 0.957031 -9.203125 0.960938 -9.203125 C 0.964844 -9.203125 0.972656 -9.203125 0.980469 -9.207031 C 1.007812 -9.214844 1.035156 -9.234375 1.0625 -9.257812 C 1.085938 -9.285156 1.101562 -9.3125 1.113281 -9.339844 C 1.117188 -9.347656 1.117188 -9.355469 1.117188 -9.359375 C 1.117188 -9.359375 1.117188 -9.359375 1.117188 -9.363281 C 1.117188 -9.359375 1.117188 -9.359375 1.117188 -9.355469 L 1.117188 -0.273438 C 1.117188 -0.273438 1.117188 -0.273438 1.117188 -0.269531 C 1.117188 -0.269531 1.117188 -0.269531 1.117188 -0.273438 C 1.117188 -0.277344 1.117188 -0.285156 1.113281 -0.289062 C 1.101562 -0.320312 1.085938 -0.347656 1.0625 -0.371094 C 1.035156 -0.398438 1.007812 -0.414062 0.980469 -0.425781 C 0.972656 -0.425781 0.964844 -0.429688 0.960938 -0.429688 C 0.957031 -0.429688 0.957031 -0.429688 0.957031 -0.429688 C 0.960938 -0.429688 0.960938 -0.429688 0.964844 -0.429688 L 2.230469 -0.429688 C 2.230469 -0.429688 2.234375 -0.429688 2.234375 -0.429688 C 2.226562 -0.429688 2.222656 -0.425781 2.214844 -0.425781 C 2.183594 -0.414062 2.15625 -0.398438 2.132812 -0.371094 C 2.105469 -0.347656 2.089844 -0.320312 2.078125 -0.289062 C 2.078125 -0.285156 2.074219 -0.277344 2.074219 -0.273438 C 2.074219 -0.269531 2.074219 -0.269531 2.074219 -0.269531 C 2.074219 -0.273438 2.074219 -0.273438 2.074219 -0.273438 L 2.074219 -6.113281 L 2.941406 -6.113281 L 4.3125 -0.332031 L 3.894531 -0.234375 L 4.304688 -0.355469 C 4.308594 -0.351562 4.308594 -0.351562 4.308594 -0.351562 C 4.308594 -0.355469 4.304688 -0.355469 4.304688 -0.359375 C 4.292969 -0.375 4.28125 -0.386719 4.265625 -0.398438 C 4.238281 -0.417969 4.214844 -0.429688 4.195312 -0.429688 L 5.007812 -0.429688 C 4.988281 -0.429688 4.964844 -0.417969 4.9375 -0.398438 C 4.921875 -0.386719 4.910156 -0.375 4.902344 -0.359375 C 4.898438 -0.355469 4.898438 -0.355469 4.898438 -0.351562 C 4.898438 -0.351562 4.898438 -0.351562 4.898438 -0.355469 L 5.3125 -0.234375 L 4.894531 -0.332031 L 6.265625 -6.113281 L 7.132812 -6.113281 L 7.132812 -0.273438 C 7.132812 -0.273438 7.132812 -0.273438 7.132812 -0.269531 C 7.132812 -0.269531 7.132812 -0.269531 7.132812 -0.273438 C 7.128906 -0.277344 7.128906 -0.285156 7.125 -0.289062 C 7.117188 -0.320312 7.097656 -0.347656 7.074219 -0.371094 C 7.050781 -0.398438 7.023438 -0.414062 6.992188 -0.425781 C 6.984375 -0.425781 6.976562 -0.429688 6.972656 -0.429688 C 6.972656 -0.429688 6.972656 -0.429688 6.976562 -0.429688 L 8.253906 -0.429688 C 8.257812 -0.429688 8.257812 -0.429688 8.261719 -0.429688 C 8.261719 -0.429688 8.261719 -0.429688 8.257812 -0.429688 C 8.253906 -0.429688 8.246094 -0.425781 8.242188 -0.425781 C 8.210938 -0.414062 8.183594 -0.398438 8.15625 -0.371094 C 8.132812 -0.347656 8.117188 -0.320312 8.105469 -0.289062 C 8.101562 -0.285156 8.101562 -0.277344 8.101562 -0.273438 C 8.101562 -0.269531 8.101562 -0.269531 8.101562 -0.269531 C 8.101562 -0.273438 8.101562 -0.273438 8.101562 -0.273438 L 8.101562 -9.355469 C 8.101562 -9.359375 8.101562 -9.359375 8.101562 -9.363281 C 8.101562 -9.359375 8.101562 -9.359375 8.101562 -9.359375 C 8.101562 -9.355469 8.101562 -9.347656 8.105469 -9.339844 C 8.117188 -9.3125 8.132812 -9.285156 8.15625 -9.257812 C 8.183594 -9.234375 8.210938 -9.214844 8.242188 -9.207031 C 8.246094 -9.203125 8.253906 -9.203125 8.257812 -9.203125 C 8.261719 -9.203125 8.261719 -9.203125 8.261719 -9.203125 C 8.257812 -9.203125 8.257812 -9.203125 8.253906 -9.203125 Z M 6.441406 -9.203125 "/></g></g><g style="fill:#b21a22;fill-opacity:1;"><g transform="translate(45.82436, 72.589636)"><path style="stroke:none" d="M 7.183594 0.429688 L 5.847656 0.429688 C 5.679688 0.429688 5.539062 0.378906 5.421875 0.277344 C 5.3125 0.179688 5.242188 0.0546875 5.207031 -0.101562 L 5.628906 -0.191406 L 5.210938 -0.0859375 L 4.769531 -1.820312 L 5.1875 -1.925781 L 5.1875 -1.496094 L 2.601562 -1.496094 L 2.601562 -1.925781 L 3.019531 -1.824219 L 2.589844 -0.0898438 L 2.175781 -0.191406 L 2.59375 -0.101562 C 2.5625 0.0546875 2.488281 0.179688 2.382812 0.277344 C 2.265625 0.378906 2.121094 0.429688 1.953125 0.429688 L 0.605469 0.429688 C 0.382812 0.429688 0.210938 0.355469 0.09375 0.203125 C -0.0234375 0.046875 -0.0507812 -0.136719 0.015625 -0.355469 L 0.425781 -0.234375 L 0.0078125 -0.335938 L 2.292969 -9.542969 L 2.710938 -9.4375 L 2.289062 -9.527344 C 2.324219 -9.691406 2.398438 -9.820312 2.515625 -9.914062 C 2.636719 -10.011719 2.777344 -10.0625 2.945312 -10.0625 L 4.855469 -10.0625 C 5.023438 -10.0625 5.167969 -10.011719 5.285156 -9.914062 C 5.402344 -9.820312 5.476562 -9.691406 5.511719 -9.527344 L 5.089844 -9.4375 L 5.507812 -9.542969 L 7.792969 -0.335938 L 7.375 -0.234375 L 7.789062 -0.355469 C 7.855469 -0.132812 7.820312 0.0585938 7.695312 0.214844 C 7.574219 0.359375 7.40625 0.429688 7.183594 0.429688 Z M 7.183594 -0.429688 C 7.183594 -0.429688 7.1875 -0.429688 7.1875 -0.429688 C 7.179688 -0.429688 7.167969 -0.425781 7.160156 -0.421875 C 7.109375 -0.40625 7.066406 -0.375 7.03125 -0.332031 C 6.988281 -0.28125 6.964844 -0.226562 6.960938 -0.164062 C 6.957031 -0.140625 6.960938 -0.125 6.960938 -0.113281 L 6.960938 -0.121094 L 4.671875 -9.34375 L 4.671875 -9.347656 C 4.679688 -9.316406 4.699219 -9.28125 4.738281 -9.25 C 4.777344 -9.21875 4.820312 -9.203125 4.855469 -9.203125 L 2.945312 -9.203125 C 2.984375 -9.203125 3.023438 -9.21875 3.0625 -9.25 C 3.101562 -9.28125 3.125 -9.316406 3.132812 -9.347656 L 3.128906 -9.34375 L 0.839844 -0.121094 L 0.839844 -0.113281 C 0.839844 -0.121094 0.84375 -0.136719 0.839844 -0.15625 C 0.835938 -0.214844 0.816406 -0.269531 0.777344 -0.320312 C 0.742188 -0.367188 0.695312 -0.402344 0.640625 -0.421875 C 0.625 -0.425781 0.613281 -0.429688 0.605469 -0.429688 L 1.953125 -0.429688 C 1.90625 -0.429688 1.859375 -0.410156 1.816406 -0.371094 C 1.78125 -0.339844 1.757812 -0.3125 1.753906 -0.28125 L 1.753906 -0.289062 L 2.261719 -2.355469 L 5.523438 -2.355469 L 6.046875 -0.289062 L 6.046875 -0.28125 C 6.042969 -0.3125 6.023438 -0.339844 5.988281 -0.371094 C 5.941406 -0.410156 5.894531 -0.429688 5.847656 -0.429688 Z M 4.34375 -3.425781 L 3.476562 -7.167969 L 3.894531 -7.265625 L 4.3125 -7.167969 L 3.445312 -3.425781 L 3.027344 -3.523438 L 3.027344 -3.953125 L 4.761719 -3.953125 L 4.761719 -3.523438 Z M 5.300781 -3.09375 L 2.484375 -3.09375 L 3.476562 -7.363281 L 4.3125 -7.363281 L 5.179688 -3.621094 Z M 5.300781 -3.09375 "/></g></g><g style="fill:#b21a22;fill-opacity:1;"><g transform="translate(53.623663, 72.589636)"><path style="stroke:none" d="M 5.695312 -9.203125 L 0.632812 -9.203125 C 0.644531 -9.203125 0.65625 -9.203125 0.671875 -9.210938 C 0.710938 -9.222656 0.742188 -9.242188 0.773438 -9.273438 C 0.800781 -9.300781 0.824219 -9.335938 0.835938 -9.371094 C 0.839844 -9.386719 0.84375 -9.402344 0.84375 -9.410156 L 0.84375 -8.035156 C 0.84375 -8.046875 0.839844 -8.058594 0.835938 -8.074219 C 0.824219 -8.113281 0.800781 -8.144531 0.773438 -8.175781 C 0.742188 -8.203125 0.710938 -8.226562 0.671875 -8.238281 C 0.65625 -8.242188 0.644531 -8.246094 0.632812 -8.246094 L 2.660156 -8.246094 L 2.660156 -0.21875 C 2.660156 -0.230469 2.65625 -0.242188 2.652344 -0.261719 C 2.636719 -0.296875 2.617188 -0.328125 2.589844 -0.359375 C 2.558594 -0.386719 2.527344 -0.410156 2.488281 -0.421875 C 2.472656 -0.425781 2.460938 -0.429688 2.449219 -0.429688 L 3.878906 -0.429688 C 3.871094 -0.429688 3.855469 -0.425781 3.839844 -0.421875 C 3.804688 -0.410156 3.769531 -0.386719 3.742188 -0.359375 C 3.710938 -0.328125 3.691406 -0.296875 3.679688 -0.261719 C 3.671875 -0.242188 3.671875 -0.230469 3.671875 -0.21875 L 3.671875 -8.246094 L 5.695312 -8.246094 C 5.6875 -8.246094 5.671875 -8.242188 5.65625 -8.238281 C 5.621094 -8.226562 5.585938 -8.203125 5.558594 -8.175781 C 5.527344 -8.144531 5.507812 -8.113281 5.496094 -8.074219 C 5.488281 -8.058594 5.488281 -8.046875 5.488281 -8.035156 L 5.488281 -9.410156 C 5.488281 -9.402344 5.488281 -9.386719 5.496094 -9.371094 C 5.507812 -9.335938 5.527344 -9.300781 5.558594 -9.273438 C 5.585938 -9.242188 5.621094 -9.222656 5.65625 -9.210938 C 5.671875 -9.203125 5.6875 -9.203125 5.695312 -9.203125 Z M 5.695312 -10.0625 C 5.886719 -10.0625 6.046875 -10 6.164062 -9.878906 C 6.285156 -9.761719 6.347656 -9.605469 6.347656 -9.410156 L 6.347656 -8.035156 C 6.347656 -7.84375 6.285156 -7.6875 6.164062 -7.566406 C 6.046875 -7.445312 5.886719 -7.386719 5.695312 -7.386719 L 4.101562 -7.386719 L 4.101562 -7.816406 L 4.53125 -7.816406 L 4.53125 -0.21875 C 4.53125 -0.0273438 4.46875 0.128906 4.347656 0.25 C 4.230469 0.371094 4.074219 0.429688 3.878906 0.429688 L 2.449219 0.429688 C 2.257812 0.429688 2.101562 0.371094 1.980469 0.25 C 1.859375 0.128906 1.800781 -0.0273438 1.800781 -0.21875 L 1.800781 -7.816406 L 2.230469 -7.816406 L 2.230469 -7.386719 L 0.632812 -7.386719 C 0.441406 -7.386719 0.285156 -7.445312 0.164062 -7.566406 C 0.0429688 -7.6875 -0.015625 -7.84375 -0.015625 -8.035156 L -0.015625 -9.410156 C -0.015625 -9.605469 0.0429688 -9.761719 0.164062 -9.878906 C 0.285156 -10 0.441406 -10.0625 0.632812 -10.0625 Z M 5.695312 -10.0625 "/></g></g><g style="fill:#b21a22;fill-opacity:1;"><g transform="translate(59.95114, 72.589636)"><path style="stroke:none" d="M 5.695312 -9.203125 L 0.632812 -9.203125 C 0.644531 -9.203125 0.65625 -9.203125 0.671875 -9.210938 C 0.710938 -9.222656 0.742188 -9.242188 0.773438 -9.273438 C 0.800781 -9.300781 0.824219 -9.335938 0.835938 -9.371094 C 0.839844 -9.386719 0.84375 -9.402344 0.84375 -9.410156 L 0.84375 -8.035156 C 0.84375 -8.046875 0.839844 -8.058594 0.835938 -8.074219 C 0.824219 -8.113281 0.800781 -8.144531 0.773438 -8.175781 C 0.742188 -8.203125 0.710938 -8.226562 0.671875 -8.238281 C 0.65625 -8.242188 0.644531 -8.246094 0.632812 -8.246094 L 2.660156 -8.246094 L 2.660156 -0.21875 C 2.660156 -0.230469 2.65625 -0.242188 2.652344 -0.261719 C 2.636719 -0.296875 2.617188 -0.328125 2.589844 -0.359375 C 2.558594 -0.386719 2.527344 -0.410156 2.488281 -0.421875 C 2.472656 -0.425781 2.460938 -0.429688 2.449219 -0.429688 L 3.878906 -0.429688 C 3.871094 -0.429688 3.855469 -0.425781 3.839844 -0.421875 C 3.804688 -0.410156 3.769531 -0.386719 3.742188 -0.359375 C 3.710938 -0.328125 3.691406 -0.296875 3.679688 -0.261719 C 3.671875 -0.242188 3.671875 -0.230469 3.671875 -0.21875 L 3.671875 -8.246094 L 5.695312 -8.246094 C 5.6875 -8.246094 5.671875 -8.242188 5.65625 -8.238281 C 5.621094 -8.226562 5.585938 -8.203125 5.558594 -8.175781 C 5.527344 -8.144531 5.507812 -8.113281 5.496094 -8.074219 C 5.488281 -8.058594 5.488281 -8.046875 5.488281 -8.035156 L 5.488281 -9.410156 C 5.488281 -9.402344 5.488281 -9.386719 5.496094 -9.371094 C 5.507812 -9.335938 5.527344 -9.300781 5.558594 -9.273438 C 5.585938 -9.242188 5.621094 -9.222656 5.65625 -9.210938 C 5.671875 -9.203125 5.6875 -9.203125 5.695312 -9.203125 Z M 5.695312 -10.0625 C 5.886719 -10.0625 6.046875 -10 6.164062 -9.878906 C 6.285156 -9.761719 6.347656 -9.605469 6.347656 -9.410156 L 6.347656 -8.035156 C 6.347656 -7.84375 6.285156 -7.6875 6.164062 -7.566406 C 6.046875 -7.445312 5.886719 -7.386719 5.695312 -7.386719 L 4.101562 -7.386719 L 4.101562 -7.816406 L 4.53125 -7.816406 L 4.53125 -0.21875 C 4.53125 -0.0273438 4.46875 0.128906 4.347656 0.25 C 4.230469 0.371094 4.074219 0.429688 3.878906 0.429688 L 2.449219 0.429688 C 2.257812 0.429688 2.101562 0.371094 1.980469 0.25 C 1.859375 0.128906 1.800781 -0.0273438 1.800781 -0.21875 L 1.800781 -7.816406 L 2.230469 -7.816406 L 2.230469 -7.386719 L 0.632812 -7.386719 C 0.441406 -7.386719 0.285156 -7.445312 0.164062 -7.566406 C 0.0429688 -7.6875 -0.015625 -7.84375 -0.015625 -8.035156 L -0.015625 -9.410156 C -0.015625 -9.605469 0.0429688 -9.761719 0.164062 -9.878906 C 0.285156 -10 0.441406 -10.0625 0.632812 -10.0625 Z M 5.695312 -10.0625 "/></g></g><g style="fill:#b21a22;fill-opacity:1;"><g transform="translate(66.278617, 72.589636)"><path style="stroke:none" d="M 6.609375 -9.410156 L 6.609375 -8.035156 C 6.609375 -7.84375 6.550781 -7.6875 6.4375 -7.566406 C 6.316406 -7.4375 6.15625 -7.371094 5.957031 -7.371094 L 2.558594 -7.371094 L 2.558594 -7.800781 L 2.988281 -7.800781 L 2.988281 -5.683594 L 2.558594 -5.683594 L 2.558594 -6.113281 L 5.144531 -6.113281 C 5.34375 -6.113281 5.503906 -6.046875 5.625 -5.917969 C 5.738281 -5.796875 5.796875 -5.640625 5.796875 -5.449219 L 5.796875 -4.085938 C 5.796875 -3.894531 5.738281 -3.738281 5.625 -3.617188 C 5.503906 -3.488281 5.34375 -3.421875 5.144531 -3.421875 L 2.558594 -3.421875 L 2.558594 -3.851562 L 2.988281 -3.851562 L 2.988281 -1.816406 L 2.558594 -1.816406 L 2.558594 -2.246094 L 5.957031 -2.246094 C 6.148438 -2.246094 6.304688 -2.1875 6.425781 -2.066406 C 6.546875 -1.945312 6.609375 -1.789062 6.609375 -1.597656 L 6.609375 -0.21875 C 6.609375 -0.0273438 6.546875 0.128906 6.425781 0.25 C 6.304688 0.371094 6.148438 0.429688 5.957031 0.429688 L 0.894531 0.429688 C 0.703125 0.429688 0.546875 0.367188 0.425781 0.238281 C 0.3125 0.121094 0.257812 -0.0351562 0.257812 -0.21875 L 0.257812 -9.410156 C 0.257812 -9.597656 0.3125 -9.75 0.425781 -9.871094 C 0.546875 -10 0.703125 -10.0625 0.894531 -10.0625 L 5.957031 -10.0625 C 6.148438 -10.0625 6.304688 -10 6.425781 -9.878906 C 6.546875 -9.761719 6.609375 -9.605469 6.609375 -9.410156 Z M 5.75 -9.410156 C 5.75 -9.402344 5.75 -9.386719 5.757812 -9.371094 C 5.769531 -9.335938 5.789062 -9.300781 5.820312 -9.273438 C 5.847656 -9.242188 5.882812 -9.222656 5.917969 -9.210938 C 5.933594 -9.203125 5.949219 -9.203125 5.957031 -9.203125 L 0.894531 -9.203125 C 0.949219 -9.203125 1.003906 -9.230469 1.054688 -9.28125 C 1.082031 -9.3125 1.101562 -9.34375 1.113281 -9.378906 C 1.117188 -9.394531 1.117188 -9.40625 1.117188 -9.410156 L 1.117188 -0.21875 C 1.117188 -0.226562 1.117188 -0.238281 1.113281 -0.253906 C 1.101562 -0.289062 1.082031 -0.320312 1.054688 -0.347656 C 1.003906 -0.402344 0.949219 -0.429688 0.894531 -0.429688 L 5.957031 -0.429688 C 5.949219 -0.429688 5.933594 -0.425781 5.917969 -0.421875 C 5.882812 -0.410156 5.847656 -0.386719 5.820312 -0.359375 C 5.789062 -0.328125 5.769531 -0.296875 5.757812 -0.261719 C 5.75 -0.242188 5.75 -0.230469 5.75 -0.21875 L 5.75 -1.597656 C 5.75 -1.585938 5.75 -1.574219 5.757812 -1.554688 C 5.769531 -1.519531 5.789062 -1.488281 5.820312 -1.457031 C 5.847656 -1.425781 5.882812 -1.40625 5.917969 -1.394531 C 5.933594 -1.390625 5.949219 -1.386719 5.957031 -1.386719 L 2.128906 -1.386719 L 2.128906 -4.28125 L 5.144531 -4.28125 C 5.132812 -4.28125 5.117188 -4.28125 5.097656 -4.273438 C 5.0625 -4.257812 5.027344 -4.238281 5 -4.207031 C 4.972656 -4.175781 4.953125 -4.148438 4.941406 -4.113281 C 4.9375 -4.101562 4.9375 -4.089844 4.9375 -4.085938 L 4.9375 -5.449219 C 4.9375 -5.445312 4.9375 -5.433594 4.941406 -5.421875 C 4.953125 -5.390625 4.972656 -5.359375 5 -5.328125 C 5.027344 -5.296875 5.0625 -5.277344 5.097656 -5.261719 C 5.117188 -5.257812 5.132812 -5.253906 5.144531 -5.253906 L 2.128906 -5.253906 L 2.128906 -8.230469 L 5.957031 -8.230469 C 5.945312 -8.230469 5.929688 -8.226562 5.910156 -8.222656 C 5.871094 -8.207031 5.839844 -8.1875 5.808594 -8.15625 C 5.78125 -8.125 5.765625 -8.09375 5.753906 -8.0625 C 5.75 -8.050781 5.75 -8.039062 5.75 -8.035156 Z M 5.75 -9.410156 "/></g></g><g style="fill:#b21a22;fill-opacity:1;"><g transform="translate(73.14255, 72.589636)"><path style="stroke:none" d="M 6.621094 -7.652344 L 6.621094 -4.882812 C 6.621094 -3.929688 6.296875 -3.246094 5.648438 -2.839844 L 5.421875 -3.207031 L 5.839844 -3.308594 L 6.554688 -0.347656 L 6.136719 -0.246094 L 6.550781 -0.363281 C 6.613281 -0.140625 6.582031 0.046875 6.460938 0.203125 C 6.34375 0.355469 6.171875 0.429688 5.945312 0.429688 L 4.597656 0.429688 C 4.429688 0.429688 4.285156 0.382812 4.167969 0.285156 C 4.050781 0.1875 3.976562 0.0585938 3.941406 -0.101562 L 4.363281 -0.191406 L 3.945312 -0.0898438 L 3.285156 -2.800781 L 3.703125 -2.902344 L 3.703125 -2.472656 L 2.476562 -2.472656 L 2.476562 -2.902344 L 2.90625 -2.902344 L 2.90625 -0.21875 C 2.90625 -0.0273438 2.847656 0.128906 2.726562 0.25 C 2.605469 0.371094 2.449219 0.429688 2.257812 0.429688 L 0.90625 0.429688 C 0.714844 0.429688 0.558594 0.371094 0.4375 0.25 C 0.316406 0.128906 0.257812 -0.0273438 0.257812 -0.21875 L 0.257812 -9.410156 C 0.257812 -9.605469 0.316406 -9.761719 0.4375 -9.878906 C 0.558594 -10 0.714844 -10.0625 0.90625 -10.0625 L 4.210938 -10.0625 C 4.980469 -10.0625 5.574219 -9.851562 5.992188 -9.433594 C 6.414062 -9.015625 6.621094 -8.421875 6.621094 -7.652344 Z M 5.761719 -7.652344 C 5.761719 -8.183594 5.636719 -8.574219 5.386719 -8.824219 C 5.132812 -9.078125 4.742188 -9.203125 4.210938 -9.203125 L 0.90625 -9.203125 C 0.917969 -9.203125 0.929688 -9.203125 0.949219 -9.210938 C 0.984375 -9.222656 1.019531 -9.242188 1.046875 -9.273438 C 1.078125 -9.300781 1.097656 -9.335938 1.109375 -9.371094 C 1.117188 -9.386719 1.117188 -9.402344 1.117188 -9.410156 L 1.117188 -0.21875 C 1.117188 -0.230469 1.117188 -0.242188 1.109375 -0.261719 C 1.097656 -0.296875 1.078125 -0.328125 1.046875 -0.359375 C 1.019531 -0.386719 0.984375 -0.410156 0.949219 -0.421875 C 0.929688 -0.425781 0.917969 -0.429688 0.90625 -0.429688 L 2.257812 -0.429688 C 2.246094 -0.429688 2.234375 -0.425781 2.21875 -0.421875 C 2.179688 -0.410156 2.148438 -0.386719 2.117188 -0.359375 C 2.089844 -0.328125 2.066406 -0.296875 2.054688 -0.261719 C 2.050781 -0.242188 2.046875 -0.230469 2.046875 -0.21875 L 2.046875 -3.332031 L 4.039062 -3.332031 L 4.78125 -0.289062 L 4.78125 -0.28125 C 4.773438 -0.316406 4.753906 -0.347656 4.714844 -0.378906 C 4.675781 -0.414062 4.632812 -0.429688 4.597656 -0.429688 L 5.945312 -0.429688 C 5.933594 -0.429688 5.925781 -0.425781 5.914062 -0.421875 C 5.863281 -0.40625 5.820312 -0.371094 5.785156 -0.324219 C 5.746094 -0.277344 5.726562 -0.226562 5.722656 -0.171875 C 5.71875 -0.152344 5.71875 -0.140625 5.722656 -0.132812 L 5.71875 -0.140625 L 4.929688 -3.40625 L 5.195312 -3.570312 C 5.574219 -3.808594 5.761719 -4.246094 5.761719 -4.882812 Z M 2.476562 -5.109375 L 3.851562 -5.109375 C 3.898438 -5.109375 3.933594 -5.113281 3.957031 -5.121094 C 3.960938 -5.121094 3.964844 -5.125 3.96875 -5.125 C 3.964844 -5.125 3.964844 -5.121094 3.960938 -5.121094 C 3.960938 -5.117188 3.957031 -5.117188 3.957031 -5.113281 C 3.957031 -5.117188 3.960938 -5.121094 3.960938 -5.125 C 3.96875 -5.148438 3.972656 -5.183594 3.972656 -5.230469 L 3.972656 -7.304688 C 3.972656 -7.351562 3.96875 -7.386719 3.960938 -7.410156 C 3.960938 -7.414062 3.957031 -7.417969 3.957031 -7.421875 C 3.957031 -7.417969 3.960938 -7.417969 3.960938 -7.414062 C 3.964844 -7.414062 3.964844 -7.410156 3.96875 -7.410156 C 3.964844 -7.410156 3.960938 -7.414062 3.957031 -7.414062 C 3.933594 -7.421875 3.898438 -7.425781 3.851562 -7.425781 L 2.476562 -7.425781 L 2.476562 -7.855469 L 2.90625 -7.855469 L 2.90625 -4.679688 L 2.476562 -4.679688 Z M 2.046875 -4.25 L 2.046875 -8.285156 L 3.851562 -8.285156 C 4.15625 -8.285156 4.394531 -8.199219 4.570312 -8.023438 C 4.746094 -7.847656 4.832031 -7.609375 4.832031 -7.304688 L 4.832031 -5.230469 C 4.832031 -4.925781 4.746094 -4.6875 4.570312 -4.511719 C 4.394531 -4.335938 4.15625 -4.25 3.851562 -4.25 Z M 2.046875 -4.25 "/></g></g><g style="fill:#060705;fill-opacity:1;"><g transform="translate(14.890665, 34.222829)"><path style="stroke:none" d="M 4.328125 -5.703125 L 4.328125 -9.421875 C 4.328125 -9.566406 4.398438 -9.640625 4.546875 -9.640625 L 5.953125 -9.640625 C 6.109375 -9.640625 6.1875 -9.566406 6.1875 -9.421875 L 6.1875 -0.21875 C 6.1875 -0.0703125 6.109375 0 5.953125 0 L 4.546875 0 C 4.398438 0 4.328125 -0.0703125 4.328125 -0.21875 L 4.328125 -3.875 L 2.5625 -3.875 L 2.5625 -0.21875 C 2.5625 -0.0703125 2.488281 0 2.34375 0 L 0.921875 0 C 0.765625 0 0.6875 -0.0703125 0.6875 -0.21875 L 0.6875 -9.421875 C 0.6875 -9.566406 0.765625 -9.640625 0.921875 -9.640625 L 2.34375 -9.640625 C 2.488281 -9.640625 2.5625 -9.566406 2.5625 -9.421875 L 2.5625 -5.703125 Z M 4.328125 -5.703125 "/></g></g><g style="fill:#060705;fill-opacity:1;"><g transform="translate(21.768356, 34.222829)"><path style="stroke:none" d="M 4.65625 -9.640625 L 5.921875 -9.640625 C 5.992188 -9.640625 6.054688 -9.609375 6.109375 -9.546875 C 6.160156 -9.492188 6.1875 -9.429688 6.1875 -9.359375 L 6.1875 -1.984375 C 6.1875 -1.335938 6.019531 -0.84375 5.6875 -0.5 C 5.351562 -0.164062 4.863281 0 4.21875 0 L 2.671875 0 C 2.023438 0 1.53125 -0.164062 1.1875 -0.5 C 0.851562 -0.84375 0.6875 -1.335938 0.6875 -1.984375 L 0.6875 -9.359375 C 0.6875 -9.429688 0.710938 -9.492188 0.765625 -9.546875 C 0.828125 -9.609375 0.894531 -9.640625 0.96875 -9.640625 L 2.28125 -9.640625 C 2.351562 -9.640625 2.414062 -9.609375 2.46875 -9.546875 C 2.53125 -9.492188 2.5625 -9.429688 2.5625 -9.359375 L 2.5625 -2.375 C 2.5625 -2 2.742188 -1.8125 3.109375 -1.8125 L 3.828125 -1.8125 C 4.191406 -1.8125 4.375 -2 4.375 -2.375 L 4.375 -9.359375 C 4.375 -9.429688 4.398438 -9.492188 4.453125 -9.546875 C 4.515625 -9.609375 4.582031 -9.640625 4.65625 -9.640625 Z M 4.65625 -9.640625 "/></g></g><g style="fill:#060705;fill-opacity:1;"><g transform="translate(28.646047, 34.222829)"><path style="stroke:none" d="M 6.4375 -9.640625 L 8.265625 -9.640625 C 8.441406 -9.640625 8.53125 -9.546875 8.53125 -9.359375 L 8.53125 -0.28125 C 8.53125 -0.09375 8.441406 0 8.265625 0 L 6.984375 0 C 6.796875 0 6.703125 -0.09375 6.703125 -0.28125 L 6.703125 -5.6875 L 6.609375 -5.6875 L 5.3125 -0.234375 C 5.269531 -0.078125 5.171875 0 5.015625 0 L 4.203125 0 C 4.046875 0 3.941406 -0.078125 3.890625 -0.234375 L 2.609375 -5.6875 L 2.5 -5.6875 L 2.5 -0.28125 C 2.5 -0.09375 2.410156 0 2.234375 0 L 0.96875 0 C 0.78125 0 0.6875 -0.09375 0.6875 -0.28125 L 0.6875 -9.359375 C 0.6875 -9.546875 0.78125 -9.640625 0.96875 -9.640625 L 2.78125 -9.640625 C 2.9375 -9.640625 3.035156 -9.5625 3.078125 -9.40625 L 4.609375 -3.265625 L 6.140625 -9.40625 C 6.179688 -9.5625 6.28125 -9.640625 6.4375 -9.640625 Z M 6.4375 -9.640625 "/></g></g><g style="fill:#060705;fill-opacity:1;"><g transform="translate(37.862152, 34.222829)"><path style="stroke:none" d="M 0.6875 -1.984375 L 0.6875 -7.65625 C 0.6875 -8.300781 0.851562 -8.789062 1.1875 -9.125 C 1.53125 -9.46875 2.023438 -9.640625 2.671875 -9.640625 L 4.21875 -9.640625 C 4.863281 -9.640625 5.351562 -9.46875 5.6875 -9.125 C 6.019531 -8.789062 6.1875 -8.300781 6.1875 -7.65625 L 6.1875 -1.984375 C 6.1875 -1.335938 6.019531 -0.84375 5.6875 -0.5 C 5.351562 -0.164062 4.863281 0 4.21875 0 L 2.671875 0 C 2.023438 0 1.53125 -0.164062 1.1875 -0.5 C 0.851562 -0.84375 0.6875 -1.335938 0.6875 -1.984375 Z M 3.03125 -1.78125 L 3.90625 -1.78125 C 4.269531 -1.78125 4.453125 -1.960938 4.453125 -2.328125 L 4.453125 -7.3125 C 4.453125 -7.675781 4.269531 -7.859375 3.90625 -7.859375 L 3.03125 -7.859375 C 2.664062 -7.859375 2.484375 -7.675781 2.484375 -7.3125 L 2.484375 -2.328125 C 2.484375 -1.960938 2.664062 -1.78125 3.03125 -1.78125 Z M 3.03125 -1.78125 "/></g></g><g style="fill:#060705;fill-opacity:1;"><g transform="translate(44.739844, 34.222829)"><path style="stroke:none" d="M 6.1875 -7.65625 L 6.1875 -4.890625 C 6.1875 -4.085938 5.929688 -3.523438 5.421875 -3.203125 L 6.140625 -0.25 C 6.179688 -0.0820312 6.117188 0 5.953125 0 L 4.59375 0 C 4.46875 0 4.390625 -0.0625 4.359375 -0.1875 L 3.703125 -2.90625 L 2.484375 -2.90625 L 2.484375 -0.21875 C 2.484375 -0.0703125 2.40625 0 2.25 0 L 0.90625 0 C 0.757812 0 0.6875 -0.0703125 0.6875 -0.21875 L 0.6875 -9.421875 C 0.6875 -9.566406 0.757812 -9.640625 0.90625 -9.640625 L 4.21875 -9.640625 C 4.863281 -9.640625 5.351562 -9.46875 5.6875 -9.125 C 6.019531 -8.789062 6.1875 -8.300781 6.1875 -7.65625 Z M 2.484375 -4.6875 L 3.859375 -4.6875 C 4.222656 -4.6875 4.40625 -4.867188 4.40625 -5.234375 L 4.40625 -7.3125 C 4.40625 -7.675781 4.222656 -7.859375 3.859375 -7.859375 L 2.484375 -7.859375 Z M 2.484375 -4.6875 "/></g></g><g style="fill:#060705;fill-opacity:1;"><g transform="translate(51.617535, 34.222829)"><path style="stroke:none" d="M 0.6875 -1.984375 L 0.6875 -7.65625 C 0.6875 -8.300781 0.851562 -8.789062 1.1875 -9.125 C 1.53125 -9.46875 2.023438 -9.640625 2.671875 -9.640625 L 4.21875 -9.640625 C 4.863281 -9.640625 5.351562 -9.46875 5.6875 -9.125 C 6.019531 -8.789062 6.1875 -8.300781 6.1875 -7.65625 L 6.1875 -1.984375 C 6.1875 -1.335938 6.019531 -0.84375 5.6875 -0.5 C 5.351562 -0.164062 4.863281 0 4.21875 0 L 2.671875 0 C 2.023438 0 1.53125 -0.164062 1.1875 -0.5 C 0.851562 -0.84375 0.6875 -1.335938 0.6875 -1.984375 Z M 3.03125 -1.78125 L 3.90625 -1.78125 C 4.269531 -1.78125 4.453125 -1.960938 4.453125 -2.328125 L 4.453125 -7.3125 C 4.453125 -7.675781 4.269531 -7.859375 3.90625 -7.859375 L 3.03125 -7.859375 C 2.664062 -7.859375 2.484375 -7.675781 2.484375 -7.3125 L 2.484375 -2.328125 C 2.484375 -1.960938 2.664062 -1.78125 3.03125 -1.78125 Z M 3.03125 -1.78125 "/></g></g><g style="fill:#060705;fill-opacity:1;"><g transform="translate(58.495226, 34.222829)"><path style="stroke:none" d="M 4.65625 -9.640625 L 5.921875 -9.640625 C 5.992188 -9.640625 6.054688 -9.609375 6.109375 -9.546875 C 6.160156 -9.492188 6.1875 -9.429688 6.1875 -9.359375 L 6.1875 -1.984375 C 6.1875 -1.335938 6.019531 -0.84375 5.6875 -0.5 C 5.351562 -0.164062 4.863281 0 4.21875 0 L 2.671875 0 C 2.023438 0 1.53125 -0.164062 1.1875 -0.5 C 0.851562 -0.84375 0.6875 -1.335938 0.6875 -1.984375 L 0.6875 -9.359375 C 0.6875 -9.429688 0.710938 -9.492188 0.765625 -9.546875 C 0.828125 -9.609375 0.894531 -9.640625 0.96875 -9.640625 L 2.28125 -9.640625 C 2.351562 -9.640625 2.414062 -9.609375 2.46875 -9.546875 C 2.53125 -9.492188 2.5625 -9.429688 2.5625 -9.359375 L 2.5625 -2.375 C 2.5625 -2 2.742188 -1.8125 3.109375 -1.8125 L 3.828125 -1.8125 C 4.191406 -1.8125 4.375 -2 4.375 -2.375 L 4.375 -9.359375 C 4.375 -9.429688 4.398438 -9.492188 4.453125 -9.546875 C 4.515625 -9.609375 4.582031 -9.640625 4.65625 -9.640625 Z M 4.65625 -9.640625 "/></g></g><g style="fill:#060705;fill-opacity:1;"><g transform="translate(65.372917, 34.222829)"><path style="stroke:none" d="M 2.671875 -9.640625 L 4.21875 -9.640625 C 4.863281 -9.640625 5.351562 -9.46875 5.6875 -9.125 C 6.019531 -8.789062 6.1875 -8.300781 6.1875 -7.65625 L 6.1875 -6.75 C 6.1875 -6.601562 6.113281 -6.53125 5.96875 -6.53125 L 4.578125 -6.53125 C 4.429688 -6.53125 4.359375 -6.601562 4.359375 -6.75 L 4.359375 -7.328125 C 4.359375 -7.691406 4.175781 -7.875 3.8125 -7.875 L 3.0625 -7.875 C 2.6875 -7.875 2.5 -7.691406 2.5 -7.328125 L 2.5 -6.15625 L 5.84375 -5.078125 C 6.070312 -4.992188 6.1875 -4.820312 6.1875 -4.5625 L 6.1875 -1.984375 C 6.1875 -1.335938 6.019531 -0.84375 5.6875 -0.5 C 5.351562 -0.164062 4.863281 0 4.21875 0 L 2.671875 0 C 2.023438 0 1.53125 -0.164062 1.1875 -0.5 C 0.851562 -0.84375 0.6875 -1.335938 0.6875 -1.984375 L 0.6875 -2.875 C 0.6875 -3.019531 0.757812 -3.09375 0.90625 -3.09375 L 2.296875 -3.09375 C 2.441406 -3.09375 2.515625 -3.019531 2.515625 -2.875 L 2.515625 -2.296875 C 2.515625 -1.929688 2.695312 -1.75 3.0625 -1.75 L 3.8125 -1.75 C 4.175781 -1.75 4.359375 -1.929688 4.359375 -2.296875 L 4.359375 -3.6875 L 1.0625 -4.765625 C 0.8125 -4.847656 0.6875 -5.015625 0.6875 -5.265625 L 0.6875 -7.65625 C 0.6875 -8.300781 0.851562 -8.789062 1.1875 -9.125 C 1.53125 -9.46875 2.023438 -9.640625 2.671875 -9.640625 Z M 2.671875 -9.640625 "/></g></g><g style="fill:#060705;fill-opacity:1;"><g transform="translate(72.250609, 34.222829)"><path style="stroke:none" d="M 0 1.84375 L 0 0.578125 C 0 0.390625 0.09375 0.296875 0.28125 0.296875 L 8.578125 0.296875 C 8.753906 0.296875 8.84375 0.390625 8.84375 0.578125 L 8.84375 1.84375 C 8.84375 2.03125 8.753906 2.125 8.578125 2.125 L 0.28125 2.125 C 0.09375 2.125 0 2.03125 0 1.84375 Z M 0 1.84375 "/></g></g><g style="fill:#060705;fill-opacity:1;"><g transform="translate(33.599933, 53.406233)"><path style="stroke:none" d="M 2.5625 -1.8125 L 2.5625 -9.421875 C 2.5625 -9.566406 2.488281 -9.640625 2.34375 -9.640625 L 0.90625 -9.640625 C 0.757812 -9.640625 0.6875 -9.566406 0.6875 -9.421875 L 0.6875 -0.21875 C 0.6875 -0.0703125 0.757812 0 0.90625 0 L 5.28125 0 C 5.425781 0 5.5 -0.0703125 5.5 -0.21875 L 5.5 -1.59375 C 5.5 -1.738281 5.425781 -1.8125 5.28125 -1.8125 Z M 2.5625 -1.8125 "/></g></g><g style="fill:#060705;fill-opacity:1;"><g transform="translate(39.789854, 53.406233)"><path style="stroke:none" d="M 0.6875 -1.984375 L 0.6875 -7.65625 C 0.6875 -8.300781 0.851562 -8.789062 1.1875 -9.125 C 1.53125 -9.46875 2.023438 -9.640625 2.671875 -9.640625 L 4.21875 -9.640625 C 4.863281 -9.640625 5.351562 -9.46875 5.6875 -9.125 C 6.019531 -8.789062 6.1875 -8.300781 6.1875 -7.65625 L 6.1875 -1.984375 C 6.1875 -1.335938 6.019531 -0.84375 5.6875 -0.5 C 5.351562 -0.164062 4.863281 0 4.21875 0 L 2.671875 0 C 2.023438 0 1.53125 -0.164062 1.1875 -0.5 C 0.851562 -0.84375 0.6875 -1.335938 0.6875 -1.984375 Z M 3.03125 -1.78125 L 3.90625 -1.78125 C 4.269531 -1.78125 4.453125 -1.960938 4.453125 -2.328125 L 4.453125 -7.3125 C 4.453125 -7.675781 4.269531 -7.859375 3.90625 -7.859375 L 3.03125 -7.859375 C 2.664062 -7.859375 2.484375 -7.675781 2.484375 -7.3125 L 2.484375 -2.328125 C 2.484375 -1.960938 2.664062 -1.78125 3.03125 -1.78125 Z M 3.03125 -1.78125 "/></g></g><g style="fill:#060705;fill-opacity:1;"><g transform="translate(46.667546, 53.406233)"><path style="stroke:none" d="M 0.6875 -1.984375 L 0.6875 -7.65625 C 0.6875 -8.300781 0.851562 -8.789062 1.1875 -9.125 C 1.53125 -9.46875 2.023438 -9.640625 2.671875 -9.640625 L 4.21875 -9.640625 C 4.851562 -9.640625 5.335938 -9.46875 5.671875 -9.125 C 6.015625 -8.789062 6.1875 -8.300781 6.1875 -7.65625 L 6.1875 -6.640625 C 6.1875 -6.492188 6.113281 -6.421875 5.96875 -6.421875 L 4.6875 -6.421875 C 4.53125 -6.421875 4.453125 -6.492188 4.453125 -6.640625 L 4.453125 -7.3125 C 4.453125 -7.675781 4.269531 -7.859375 3.90625 -7.859375 L 3.03125 -7.859375 C 2.664062 -7.859375 2.484375 -7.675781 2.484375 -7.3125 L 2.484375 -2.328125 C 2.484375 -1.960938 2.664062 -1.78125 3.03125 -1.78125 L 3.90625 -1.78125 C 4.269531 -1.78125 4.453125 -1.960938 4.453125 -2.328125 L 4.453125 -3.53125 L 3.75 -3.53125 C 3.601562 -3.53125 3.53125 -3.601562 3.53125 -3.75 L 3.53125 -5.125 C 3.53125 -5.269531 3.601562 -5.34375 3.75 -5.34375 L 5.96875 -5.34375 C 6.113281 -5.34375 6.1875 -5.269531 6.1875 -5.125 L 6.1875 -1.984375 C 6.1875 -1.335938 6.015625 -0.84375 5.671875 -0.5 C 5.335938 -0.164062 4.851562 0 4.21875 0 L 2.671875 0 C 2.023438 0 1.53125 -0.164062 1.1875 -0.5 C 0.851562 -0.84375 0.6875 -1.335938 0.6875 -1.984375 Z M 0.6875 -1.984375 "/></g></g><g style="fill:#060705;fill-opacity:1;"><g transform="translate(53.545237, 53.406233)"><path style="stroke:none" d="M 0 1.84375 L 0 0.578125 C 0 0.390625 0.09375 0.296875 0.28125 0.296875 L 8.578125 0.296875 C 8.753906 0.296875 8.84375 0.390625 8.84375 0.578125 L 8.84375 1.84375 C 8.84375 2.03125 8.753906 2.125 8.578125 2.125 L 0.28125 2.125 C 0.09375 2.125 0 2.03125 0 1.84375 Z M 0 1.84375 "/></g></g><g style="fill:#060705;fill-opacity:1;"><g transform="translate(15.975181, 72.589636)"><path style="stroke:none" d="M 6.1875 -9.421875 L 6.1875 -8.046875 C 6.1875 -7.890625 6.113281 -7.8125 5.96875 -7.8125 L 2.5625 -7.8125 L 2.5625 -5.46875 L 5.140625 -5.46875 C 5.296875 -5.46875 5.375 -5.394531 5.375 -5.25 L 5.375 -3.875 C 5.375 -3.71875 5.296875 -3.640625 5.140625 -3.640625 L 2.5625 -3.640625 L 2.5625 -0.21875 C 2.5625 -0.0703125 2.488281 0 2.34375 0 L 0.90625 0 C 0.757812 0 0.6875 -0.0703125 0.6875 -0.21875 L 0.6875 -9.421875 C 0.6875 -9.566406 0.757812 -9.640625 0.90625 -9.640625 L 5.96875 -9.640625 C 6.113281 -9.640625 6.1875 -9.566406 6.1875 -9.421875 Z M 6.1875 -9.421875 "/></g></g><g style="fill:#060705;fill-opacity:1;"><g transform="translate(22.852872, 72.589636)"><path style="stroke:none" d="M 0.6875 -1.984375 L 0.6875 -7.65625 C 0.6875 -8.300781 0.851562 -8.789062 1.1875 -9.125 C 1.53125 -9.46875 2.023438 -9.640625 2.671875 -9.640625 L 4.21875 -9.640625 C 4.863281 -9.640625 5.351562 -9.46875 5.6875 -9.125 C 6.019531 -8.789062 6.1875 -8.300781 6.1875 -7.65625 L 6.1875 -1.984375 C 6.1875 -1.335938 6.019531 -0.84375 5.6875 -0.5 C 5.351562 -0.164062 4.863281 0 4.21875 0 L 2.671875 0 C 2.023438 0 1.53125 -0.164062 1.1875 -0.5 C 0.851562 -0.84375 0.6875 -1.335938 0.6875 -1.984375 Z M 3.03125 -1.78125 L 3.90625 -1.78125 C 4.269531 -1.78125 4.453125 -1.960938 4.453125 -2.328125 L 4.453125 -7.3125 C 4.453125 -7.675781 4.269531 -7.859375 3.90625 -7.859375 L 3.03125 -7.859375 C 2.664062 -7.859375 2.484375 -7.675781 2.484375 -7.3125 L 2.484375 -2.328125 C 2.484375 -1.960938 2.664062 -1.78125 3.03125 -1.78125 Z M 3.03125 -1.78125 "/></g></g><g style="fill:#060705;fill-opacity:1;"><g transform="translate(29.730564, 72.589636)"><path style="stroke:none" d="M 6.1875 -7.65625 L 6.1875 -4.890625 C 6.1875 -4.085938 5.929688 -3.523438 5.421875 -3.203125 L 6.140625 -0.25 C 6.179688 -0.0820312 6.117188 0 5.953125 0 L 4.59375 0 C 4.46875 0 4.390625 -0.0625 4.359375 -0.1875 L 3.703125 -2.90625 L 2.484375 -2.90625 L 2.484375 -0.21875 C 2.484375 -0.0703125 2.40625 0 2.25 0 L 0.90625 0 C 0.757812 0 0.6875 -0.0703125 0.6875 -0.21875 L 0.6875 -9.421875 C 0.6875 -9.566406 0.757812 -9.640625 0.90625 -9.640625 L 4.21875 -9.640625 C 4.863281 -9.640625 5.351562 -9.46875 5.6875 -9.125 C 6.019531 -8.789062 6.1875 -8.300781 6.1875 -7.65625 Z M 2.484375 -4.6875 L 3.859375 -4.6875 C 4.222656 -4.6875 4.40625 -4.867188 4.40625 -5.234375 L 4.40625 -7.3125 C 4.40625 -7.675781 4.222656 -7.859375 3.859375 -7.859375 L 2.484375 -7.859375 Z M 2.484375 -4.6875 "/></g></g><g style="fill:#060705;fill-opacity:1;"><g transform="translate(36.608255, 72.589636)"><path style="stroke:none" d="M 6.4375 -9.640625 L 8.265625 -9.640625 C 8.441406 -9.640625 8.53125 -9.546875 8.53125 -9.359375 L 8.53125 -0.28125 C 8.53125 -0.09375 8.441406 0 8.265625 0 L 6.984375 0 C 6.796875 0 6.703125 -0.09375 6.703125 -0.28125 L 6.703125 -5.6875 L 6.609375 -5.6875 L 5.3125 -0.234375 C 5.269531 -0.078125 5.171875 0 5.015625 0 L 4.203125 0 C 4.046875 0 3.941406 -0.078125 3.890625 -0.234375 L 2.609375 -5.6875 L 2.5 -5.6875 L 2.5 -0.28125 C 2.5 -0.09375 2.410156 0 2.234375 0 L 0.96875 0 C 0.78125 0 0.6875 -0.09375 0.6875 -0.28125 L 0.6875 -9.359375 C 0.6875 -9.546875 0.78125 -9.640625 0.96875 -9.640625 L 2.78125 -9.640625 C 2.9375 -9.640625 3.035156 -9.5625 3.078125 -9.40625 L 4.609375 -3.265625 L 6.140625 -9.40625 C 6.179688 -9.5625 6.28125 -9.640625 6.4375 -9.640625 Z M 6.4375 -9.640625 "/></g></g><g style="fill:#060705;fill-opacity:1;"><g transform="translate(45.82436, 72.589636)"><path style="stroke:none" d="M 7.1875 0 L 5.84375 0 C 5.726562 0 5.65625 -0.0625 5.625 -0.1875 L 5.1875 -1.921875 L 2.609375 -1.921875 L 2.171875 -0.1875 C 2.148438 -0.0625 2.078125 0 1.953125 0 L 0.609375 0 C 0.441406 0 0.378906 -0.078125 0.421875 -0.234375 L 2.71875 -9.4375 C 2.738281 -9.570312 2.816406 -9.640625 2.953125 -9.640625 L 4.859375 -9.640625 C 4.984375 -9.640625 5.0625 -9.570312 5.09375 -9.4375 L 7.375 -0.234375 C 7.425781 -0.078125 7.363281 0 7.1875 0 Z M 4.765625 -3.53125 L 3.890625 -7.265625 L 3.03125 -3.53125 Z M 4.765625 -3.53125 "/></g></g><g style="fill:#060705;fill-opacity:1;"><g transform="translate(53.623663, 72.589636)"><path style="stroke:none" d="M 5.703125 -9.640625 L 0.640625 -9.640625 C 0.484375 -9.640625 0.40625 -9.566406 0.40625 -9.421875 L 0.40625 -8.046875 C 0.40625 -7.890625 0.484375 -7.8125 0.640625 -7.8125 L 2.234375 -7.8125 L 2.234375 -0.21875 C 2.234375 -0.0703125 2.304688 0 2.453125 0 L 3.875 0 C 4.03125 0 4.109375 -0.0703125 4.109375 -0.21875 L 4.109375 -7.8125 L 5.703125 -7.8125 C 5.847656 -7.8125 5.921875 -7.890625 5.921875 -8.046875 L 5.921875 -9.421875 C 5.921875 -9.566406 5.847656 -9.640625 5.703125 -9.640625 Z M 5.703125 -9.640625 "/></g></g><g style="fill:#060705;fill-opacity:1;"><g transform="translate(59.95114, 72.589636)"><path style="stroke:none" d="M 5.703125 -9.640625 L 0.640625 -9.640625 C 0.484375 -9.640625 0.40625 -9.566406 0.40625 -9.421875 L 0.40625 -8.046875 C 0.40625 -7.890625 0.484375 -7.8125 0.640625 -7.8125 L 2.234375 -7.8125 L 2.234375 -0.21875 C 2.234375 -0.0703125 2.304688 0 2.453125 0 L 3.875 0 C 4.03125 0 4.109375 -0.0703125 4.109375 -0.21875 L 4.109375 -7.8125 L 5.703125 -7.8125 C 5.847656 -7.8125 5.921875 -7.890625 5.921875 -8.046875 L 5.921875 -9.421875 C 5.921875 -9.566406 5.847656 -9.640625 5.703125 -9.640625 Z M 5.703125 -9.640625 "/></g></g><g style="fill:#060705;fill-opacity:1;"><g transform="translate(66.278617, 72.589636)"><path style="stroke:none" d="M 6.1875 -9.421875 L 6.1875 -8.046875 C 6.1875 -7.890625 6.109375 -7.8125 5.953125 -7.8125 L 2.5625 -7.8125 L 2.5625 -5.6875 L 5.140625 -5.6875 C 5.296875 -5.6875 5.375 -5.609375 5.375 -5.453125 L 5.375 -4.09375 C 5.375 -3.9375 5.296875 -3.859375 5.140625 -3.859375 L 2.5625 -3.859375 L 2.5625 -1.8125 L 5.953125 -1.8125 C 6.109375 -1.8125 6.1875 -1.738281 6.1875 -1.59375 L 6.1875 -0.21875 C 6.1875 -0.0703125 6.109375 0 5.953125 0 L 0.890625 0 C 0.753906 0 0.6875 -0.0703125 0.6875 -0.21875 L 0.6875 -9.421875 C 0.6875 -9.566406 0.753906 -9.640625 0.890625 -9.640625 L 5.953125 -9.640625 C 6.109375 -9.640625 6.1875 -9.566406 6.1875 -9.421875 Z M 6.1875 -9.421875 "/></g></g><g style="fill:#060705;fill-opacity:1;"><g transform="translate(73.14255, 72.589636)"><path style="stroke:none" d="M 6.1875 -7.65625 L 6.1875 -4.890625 C 6.1875 -4.085938 5.929688 -3.523438 5.421875 -3.203125 L 6.140625 -0.25 C 6.179688 -0.0820312 6.117188 0 5.953125 0 L 4.59375 0 C 4.46875 0 4.390625 -0.0625 4.359375 -0.1875 L 3.703125 -2.90625 L 2.484375 -2.90625 L 2.484375 -0.21875 C 2.484375 -0.0703125 2.40625 0 2.25 0 L 0.90625 0 C 0.757812 0 0.6875 -0.0703125 0.6875 -0.21875 L 0.6875 -9.421875 C 0.6875 -9.566406 0.757812 -9.640625 0.90625 -9.640625 L 4.21875 -9.640625 C 4.863281 -9.640625 5.351562 -9.46875 5.6875 -9.125 C 6.019531 -8.789062 6.1875 -8.300781 6.1875 -7.65625 Z M 2.484375 -4.6875 L 3.859375 -4.6875 C 4.222656 -4.6875 4.40625 -4.867188 4.40625 -5.234375 L 4.40625 -7.3125 C 4.40625 -7.675781 4.222656 -7.859375 3.859375 -7.859375 L 2.484375 -7.859375 Z M 2.484375 -4.6875 "/></g></g></g></svg>