<svg xmlns="http://www.w3.org/2000/svg" xmlns:xlink="http://www.w3.org/1999/xlink" width="192" zoomAndPan="magnify" viewBox="0 0 144 143.999998" height="192" preserveAspectRatio="xMidYMid meet" version="1.2"><defs><clipPath id="38ada91f70"><path d="M 9 0 L 135 0 L 135 144 L 9 144 Z M 9 0 "/></clipPath><clipPath id="be69e43152"><path d="M -21.457031 54.867188 L 103.039062 -17.847656 L 165.503906 89.105469 L 41.007812 161.816406 Z M -21.457031 54.867188 "/></clipPath><clipPath id="4703a1603d"><path d="M 134.226562 35.65625 L 134.347656 107.300781 L 72.121094 143.644531 L 9.773438 108.34375 L 9.65625 36.695312 L 71.878906 0.351562 Z M 134.226562 35.65625 "/></clipPath><clipPath id="be9af7fd7e"><path d="M 21.210938 13.683594 L 122.773438 13.683594 L 122.773438 130.261719 L 21.210938 130.261719 Z M 21.210938 13.683594 "/></clipPath></defs><g id="5ddfc33691"><g clip-rule="nonzero" clip-path="url(#38ada91f70)"><g clip-rule="nonzero" clip-path="url(#be69e43152)"><g clip-rule="nonzero" clip-path="url(#4703a1603d)"><path style=" stroke:none;fill-rule:nonzero;fill:#65b30e;fill-opacity:1;" d="M -21.457031 54.867188 L 103.039062 -17.847656 L 165.503906 89.105469 L 41.007812 161.816406 Z M -21.457031 54.867188 "/></g></g></g><path style=" stroke:none;fill-rule:nonzero;fill:#87ff00;fill-opacity:1;" d="M 51.679688 52.109375 L 51.613281 52.046875 L 37.261719 66.398438 L 72.113281 101.183594 L 86.46875 86.898438 L 106.960938 66.398438 L 92.609375 52.046875 L 92.609375 51.980469 L 51.617188 51.980469 Z M 51.679688 52.109375 "/><g clip-rule="nonzero" clip-path="url(#be9af7fd7e)"><path style=" stroke:none;fill-rule:nonzero;fill:#87ff00;fill-opacity:1;" d="M 71.980469 13.765625 L 21.222656 42.863281 L 21.226562 101.058594 L 71.984375 130.15625 L 122.742188 101.058594 L 122.742188 42.863281 L 71.984375 13.769531 Z M 113.039062 95.496094 L 71.980469 119.160156 L 30.921875 95.496094 L 30.925781 48.292969 L 71.984375 24.628906 L 113.042969 48.292969 L 113.042969 95.492188 Z M 113.039062 95.496094 "/></g><g style="fill:#b21a22;fill-opacity:1;"><g transform="translate(22.893818, 49.5638)"><path style="stroke:none" d="M 10.804688 -12.457031 L 10.804688 -10.039062 C 10.804688 -9.726562 10.707031 -9.472656 10.511719 -9.273438 C 10.316406 -9.078125 10.058594 -8.980469 9.746094 -8.980469 L 7.640625 -8.980469 C 7.328125 -8.980469 7.074219 -9.078125 6.878906 -9.273438 C 6.679688 -9.472656 6.582031 -9.726562 6.582031 -10.039062 L 6.582031 -11.875 C 6.582031 -11.949219 6.574219 -12.007812 6.5625 -12.046875 C 6.558594 -12.054688 6.558594 -12.058594 6.554688 -12.0625 C 6.558594 -12.058594 6.558594 -12.054688 6.5625 -12.054688 C 6.566406 -12.050781 6.570312 -12.046875 6.570312 -12.046875 C 6.570312 -12.046875 6.5625 -12.050781 6.558594 -12.050781 C 6.515625 -12.066406 6.460938 -12.070312 6.386719 -12.070312 L 4.953125 -12.070312 C 4.878906 -12.070312 4.820312 -12.066406 4.78125 -12.050781 C 4.773438 -12.050781 4.769531 -12.046875 4.765625 -12.046875 C 4.769531 -12.046875 4.773438 -12.050781 4.773438 -12.054688 C 4.777344 -12.054688 4.78125 -12.058594 4.78125 -12.0625 C 4.78125 -12.058594 4.777344 -12.054688 4.777344 -12.046875 C 4.761719 -12.007812 4.757812 -11.949219 4.757812 -11.875 L 4.757812 -3.742188 C 4.757812 -3.667969 4.761719 -3.613281 4.777344 -3.570312 C 4.777344 -3.5625 4.78125 -3.558594 4.78125 -3.554688 C 4.78125 -3.558594 4.777344 -3.5625 4.773438 -3.566406 C 4.773438 -3.566406 4.769531 -3.570312 4.765625 -3.574219 C 4.769531 -3.570312 4.773438 -3.570312 4.78125 -3.566406 C 4.820312 -3.554688 4.878906 -3.546875 4.953125 -3.546875 L 6.386719 -3.546875 C 6.460938 -3.546875 6.515625 -3.554688 6.558594 -3.566406 C 6.5625 -3.570312 6.570312 -3.570312 6.570312 -3.574219 C 6.570312 -3.570312 6.566406 -3.566406 6.5625 -3.566406 C 6.558594 -3.5625 6.558594 -3.558594 6.554688 -3.554688 C 6.558594 -3.558594 6.558594 -3.5625 6.5625 -3.570312 C 6.574219 -3.613281 6.582031 -3.667969 6.582031 -3.742188 L 6.582031 -5.648438 C 6.582031 -5.960938 6.679688 -6.214844 6.878906 -6.410156 C 7.074219 -6.605469 7.328125 -6.707031 7.640625 -6.707031 L 9.746094 -6.707031 C 10.058594 -6.707031 10.316406 -6.605469 10.511719 -6.410156 C 10.707031 -6.214844 10.804688 -5.960938 10.804688 -5.648438 L 10.804688 -3.226562 C 10.804688 -1.988281 10.460938 -1.023438 9.773438 -0.332031 C 9.082031 0.355469 8.117188 0.699219 6.878906 0.699219 L 4.371094 0.699219 C 3.132812 0.699219 2.164062 0.355469 1.46875 -0.332031 C 0.769531 -1.019531 0.421875 -1.984375 0.421875 -3.226562 L 0.421875 -12.457031 C 0.421875 -13.714844 0.769531 -14.6875 1.472656 -15.371094 C 2.167969 -16.046875 3.132812 -16.386719 4.371094 -16.386719 L 6.878906 -16.386719 C 8.117188 -16.386719 9.078125 -16.046875 9.769531 -15.367188 C 10.460938 -14.683594 10.804688 -13.714844 10.804688 -12.457031 Z M 9.40625 -12.457031 C 9.40625 -13.324219 9.199219 -13.960938 8.785156 -14.367188 C 8.367188 -14.78125 7.734375 -14.984375 6.878906 -14.984375 L 4.371094 -14.984375 C 3.511719 -14.984375 2.875 -14.777344 2.449219 -14.367188 C 2.03125 -13.957031 1.820312 -13.324219 1.820312 -12.457031 L 1.820312 -3.226562 C 1.820312 -2.375 2.03125 -1.742188 2.453125 -1.328125 C 2.875 -0.910156 3.515625 -0.699219 4.371094 -0.699219 L 6.878906 -0.699219 C 7.730469 -0.699219 8.367188 -0.910156 8.78125 -1.324219 C 9.199219 -1.742188 9.40625 -2.375 9.40625 -3.226562 L 9.40625 -5.648438 C 9.40625 -5.628906 9.410156 -5.609375 9.417969 -5.582031 C 9.4375 -5.523438 9.472656 -5.46875 9.519531 -5.421875 C 9.570312 -5.371094 9.625 -5.339844 9.683594 -5.320312 C 9.710938 -5.308594 9.730469 -5.304688 9.746094 -5.304688 L 7.640625 -5.304688 C 7.65625 -5.304688 7.679688 -5.308594 7.707031 -5.320312 C 7.765625 -5.339844 7.820312 -5.371094 7.867188 -5.421875 C 7.914062 -5.46875 7.949219 -5.523438 7.96875 -5.582031 C 7.976562 -5.609375 7.984375 -5.628906 7.984375 -5.648438 L 7.984375 -3.742188 C 7.984375 -3.25 7.839844 -2.859375 7.554688 -2.574219 C 7.265625 -2.289062 6.878906 -2.144531 6.386719 -2.144531 L 4.953125 -2.144531 C 4.460938 -2.144531 4.070312 -2.289062 3.785156 -2.574219 C 3.5 -2.859375 3.355469 -3.25 3.355469 -3.742188 L 3.355469 -11.875 C 3.355469 -12.367188 3.5 -12.757812 3.785156 -13.042969 C 4.070312 -13.328125 4.460938 -13.472656 4.953125 -13.472656 L 6.386719 -13.472656 C 6.878906 -13.472656 7.265625 -13.328125 7.554688 -13.042969 C 7.839844 -12.757812 7.984375 -12.367188 7.984375 -11.875 L 7.984375 -10.039062 C 7.984375 -10.054688 7.976562 -10.078125 7.96875 -10.101562 C 7.949219 -10.164062 7.914062 -10.21875 7.867188 -10.265625 C 7.820312 -10.3125 7.765625 -10.347656 7.707031 -10.367188 C 7.679688 -10.375 7.65625 -10.378906 7.640625 -10.378906 L 9.746094 -10.378906 C 9.730469 -10.378906 9.710938 -10.375 9.683594 -10.367188 C 9.625 -10.347656 9.570312 -10.3125 9.519531 -10.265625 C 9.472656 -10.21875 9.4375 -10.164062 9.417969 -10.101562 C 9.410156 -10.078125 9.40625 -10.054688 9.40625 -10.039062 Z M 9.40625 -12.457031 "/></g></g><g style="fill:#b21a22;fill-opacity:1;"><g transform="translate(34.116579, 49.5638)"><path style="stroke:none" d="M 10.761719 -15.328125 L 10.761719 -13.085938 C 10.761719 -12.773438 10.667969 -12.519531 10.480469 -12.320312 C 10.285156 -12.109375 10.023438 -12.003906 9.703125 -12.003906 L 4.167969 -12.003906 L 4.167969 -12.707031 L 4.867188 -12.707031 L 4.867188 -9.253906 L 4.167969 -9.253906 L 4.167969 -9.953125 L 8.378906 -9.953125 C 8.703125 -9.953125 8.960938 -9.847656 9.160156 -9.640625 C 9.347656 -9.441406 9.4375 -9.1875 9.4375 -8.875 L 9.4375 -6.65625 C 9.4375 -6.34375 9.347656 -6.085938 9.160156 -5.890625 C 8.960938 -5.679688 8.703125 -5.574219 8.378906 -5.574219 L 4.167969 -5.574219 L 4.167969 -6.273438 L 4.867188 -6.273438 L 4.867188 -2.957031 L 4.167969 -2.957031 L 4.167969 -3.65625 L 9.703125 -3.65625 C 10.015625 -3.65625 10.269531 -3.558594 10.464844 -3.363281 C 10.664062 -3.167969 10.761719 -2.914062 10.761719 -2.597656 L 10.761719 -0.359375 C 10.761719 -0.046875 10.664062 0.210938 10.464844 0.40625 C 10.269531 0.601562 10.015625 0.699219 9.703125 0.699219 L 1.457031 0.699219 C 1.140625 0.699219 0.886719 0.597656 0.695312 0.390625 C 0.511719 0.195312 0.421875 -0.0546875 0.421875 -0.359375 L 0.421875 -15.328125 C 0.421875 -15.632812 0.511719 -15.878906 0.695312 -16.074219 C 0.886719 -16.28125 1.140625 -16.386719 1.457031 -16.386719 L 9.703125 -16.386719 C 10.015625 -16.386719 10.269531 -16.289062 10.464844 -16.089844 C 10.664062 -15.894531 10.761719 -15.640625 10.761719 -15.328125 Z M 9.359375 -15.328125 C 9.359375 -15.3125 9.367188 -15.289062 9.375 -15.261719 C 9.394531 -15.203125 9.429688 -15.148438 9.476562 -15.101562 C 9.523438 -15.050781 9.578125 -15.019531 9.636719 -15 C 9.664062 -14.988281 9.6875 -14.984375 9.703125 -14.984375 L 1.457031 -14.984375 C 1.546875 -14.984375 1.632812 -15.027344 1.714844 -15.117188 C 1.761719 -15.164062 1.792969 -15.21875 1.808594 -15.273438 C 1.816406 -15.296875 1.820312 -15.316406 1.820312 -15.328125 L 1.820312 -0.359375 C 1.820312 -0.371094 1.816406 -0.386719 1.808594 -0.410156 C 1.792969 -0.46875 1.761719 -0.519531 1.714844 -0.570312 C 1.632812 -0.65625 1.546875 -0.699219 1.457031 -0.699219 L 9.703125 -0.699219 C 9.6875 -0.699219 9.664062 -0.695312 9.636719 -0.6875 C 9.578125 -0.667969 9.523438 -0.632812 9.476562 -0.585938 C 9.429688 -0.535156 9.394531 -0.484375 9.375 -0.421875 C 9.367188 -0.394531 9.359375 -0.375 9.359375 -0.359375 L 9.359375 -2.597656 C 9.359375 -2.582031 9.367188 -2.5625 9.375 -2.535156 C 9.394531 -2.476562 9.429688 -2.421875 9.476562 -2.371094 C 9.523438 -2.324219 9.578125 -2.289062 9.636719 -2.269531 C 9.664062 -2.261719 9.6875 -2.257812 9.703125 -2.257812 L 3.46875 -2.257812 L 3.46875 -6.972656 L 8.378906 -6.972656 C 8.359375 -6.972656 8.335938 -6.96875 8.304688 -6.957031 C 8.242188 -6.9375 8.1875 -6.898438 8.140625 -6.847656 C 8.097656 -6.804688 8.066406 -6.753906 8.046875 -6.699219 C 8.042969 -6.675781 8.039062 -6.664062 8.039062 -6.65625 L 8.039062 -8.875 C 8.039062 -8.867188 8.042969 -8.851562 8.046875 -8.832031 C 8.066406 -8.777344 8.097656 -8.726562 8.140625 -8.679688 C 8.1875 -8.628906 8.242188 -8.59375 8.304688 -8.570312 C 8.335938 -8.558594 8.359375 -8.554688 8.378906 -8.554688 L 3.46875 -8.554688 L 3.46875 -13.40625 L 9.703125 -13.40625 C 9.683594 -13.40625 9.65625 -13.398438 9.625 -13.390625 C 9.5625 -13.367188 9.507812 -13.332031 9.460938 -13.28125 C 9.417969 -13.234375 9.386719 -13.183594 9.371094 -13.128906 C 9.363281 -13.109375 9.359375 -13.09375 9.359375 -13.085938 Z M 9.359375 -15.328125 "/></g></g><g style="fill:#b21a22;fill-opacity:1;"><g transform="translate(45.294531, 49.5638)"><path style="stroke:none" d="M 3.46875 -2.957031 L 3.46875 -15.328125 C 3.46875 -15.3125 3.472656 -15.289062 3.480469 -15.261719 C 3.5 -15.203125 3.535156 -15.148438 3.582031 -15.101562 C 3.632812 -15.050781 3.683594 -15.019531 3.746094 -15 C 3.773438 -14.988281 3.792969 -14.984375 3.808594 -14.984375 L 1.480469 -14.984375 C 1.496094 -14.984375 1.515625 -14.988281 1.542969 -15 C 1.601562 -15.019531 1.65625 -15.050781 1.707031 -15.101562 C 1.753906 -15.148438 1.789062 -15.203125 1.808594 -15.261719 C 1.816406 -15.289062 1.820312 -15.3125 1.820312 -15.328125 L 1.820312 -0.359375 C 1.820312 -0.375 1.816406 -0.394531 1.808594 -0.421875 C 1.789062 -0.484375 1.753906 -0.535156 1.707031 -0.585938 C 1.65625 -0.632812 1.601562 -0.667969 1.542969 -0.6875 C 1.515625 -0.695312 1.496094 -0.699219 1.480469 -0.699219 L 8.605469 -0.699219 C 8.589844 -0.699219 8.566406 -0.695312 8.539062 -0.6875 C 8.480469 -0.667969 8.425781 -0.632812 8.378906 -0.585938 C 8.332031 -0.535156 8.296875 -0.484375 8.277344 -0.421875 C 8.265625 -0.394531 8.261719 -0.375 8.261719 -0.359375 L 8.261719 -2.597656 C 8.261719 -2.582031 8.265625 -2.5625 8.277344 -2.535156 C 8.296875 -2.476562 8.332031 -2.421875 8.378906 -2.371094 C 8.425781 -2.324219 8.480469 -2.289062 8.539062 -2.269531 C 8.566406 -2.261719 8.589844 -2.257812 8.605469 -2.257812 L 3.46875 -2.257812 Z M 4.867188 -2.957031 L 4.167969 -2.957031 L 4.167969 -3.65625 L 8.605469 -3.65625 C 8.917969 -3.65625 9.171875 -3.558594 9.367188 -3.363281 C 9.566406 -3.167969 9.664062 -2.914062 9.664062 -2.597656 L 9.664062 -0.359375 C 9.664062 -0.046875 9.566406 0.210938 9.367188 0.40625 C 9.171875 0.601562 8.917969 0.699219 8.605469 0.699219 L 1.480469 0.699219 C 1.167969 0.699219 0.910156 0.601562 0.714844 0.40625 C 0.519531 0.210938 0.421875 -0.046875 0.421875 -0.359375 L 0.421875 -15.328125 C 0.421875 -15.640625 0.519531 -15.894531 0.714844 -16.089844 C 0.910156 -16.289062 1.167969 -16.386719 1.480469 -16.386719 L 3.808594 -16.386719 C 4.121094 -16.386719 4.375 -16.289062 4.574219 -16.089844 C 4.769531 -15.894531 4.867188 -15.640625 4.867188 -15.328125 Z M 4.867188 -2.957031 "/></g></g><g style="fill:#b21a22;fill-opacity:1;"><g transform="translate(55.374851, 49.5638)"><path style="stroke:none" d="M 3.46875 -2.957031 L 3.46875 -15.328125 C 3.46875 -15.3125 3.472656 -15.289062 3.480469 -15.261719 C 3.5 -15.203125 3.535156 -15.148438 3.582031 -15.101562 C 3.632812 -15.050781 3.683594 -15.019531 3.746094 -15 C 3.773438 -14.988281 3.792969 -14.984375 3.808594 -14.984375 L 1.480469 -14.984375 C 1.496094 -14.984375 1.515625 -14.988281 1.542969 -15 C 1.601562 -15.019531 1.65625 -15.050781 1.707031 -15.101562 C 1.753906 -15.148438 1.789062 -15.203125 1.808594 -15.261719 C 1.816406 -15.289062 1.820312 -15.3125 1.820312 -15.328125 L 1.820312 -0.359375 C 1.820312 -0.375 1.816406 -0.394531 1.808594 -0.421875 C 1.789062 -0.484375 1.753906 -0.535156 1.707031 -0.585938 C 1.65625 -0.632812 1.601562 -0.667969 1.542969 -0.6875 C 1.515625 -0.695312 1.496094 -0.699219 1.480469 -0.699219 L 8.605469 -0.699219 C 8.589844 -0.699219 8.566406 -0.695312 8.539062 -0.6875 C 8.480469 -0.667969 8.425781 -0.632812 8.378906 -0.585938 C 8.332031 -0.535156 8.296875 -0.484375 8.277344 -0.421875 C 8.265625 -0.394531 8.261719 -0.375 8.261719 -0.359375 L 8.261719 -2.597656 C 8.261719 -2.582031 8.265625 -2.5625 8.277344 -2.535156 C 8.296875 -2.476562 8.332031 -2.421875 8.378906 -2.371094 C 8.425781 -2.324219 8.480469 -2.289062 8.539062 -2.269531 C 8.566406 -2.261719 8.589844 -2.257812 8.605469 -2.257812 L 3.46875 -2.257812 Z M 4.867188 -2.957031 L 4.167969 -2.957031 L 4.167969 -3.65625 L 8.605469 -3.65625 C 8.917969 -3.65625 9.171875 -3.558594 9.367188 -3.363281 C 9.566406 -3.167969 9.664062 -2.914062 9.664062 -2.597656 L 9.664062 -0.359375 C 9.664062 -0.046875 9.566406 0.210938 9.367188 0.40625 C 9.171875 0.601562 8.917969 0.699219 8.605469 0.699219 L 1.480469 0.699219 C 1.167969 0.699219 0.910156 0.601562 0.714844 0.40625 C 0.519531 0.210938 0.421875 -0.046875 0.421875 -0.359375 L 0.421875 -15.328125 C 0.421875 -15.640625 0.519531 -15.894531 0.714844 -16.089844 C 0.910156 -16.289062 1.167969 -16.386719 1.480469 -16.386719 L 3.808594 -16.386719 C 4.121094 -16.386719 4.375 -16.289062 4.574219 -16.089844 C 4.769531 -15.894531 4.867188 -15.640625 4.867188 -15.328125 Z M 4.867188 -2.957031 "/></g></g><g style="fill:#b21a22;fill-opacity:1;"><g transform="translate(65.455171, 49.5638)"><path style="stroke:none" d="M 7.574219 -16.386719 L 9.636719 -16.386719 C 9.949219 -16.386719 10.21875 -16.273438 10.445312 -16.046875 C 10.671875 -15.820312 10.785156 -15.550781 10.785156 -15.238281 L 10.785156 -3.226562 C 10.785156 -1.988281 10.445312 -1.027344 9.765625 -0.335938 C 9.082031 0.355469 8.113281 0.699219 6.855469 0.699219 L 4.347656 0.699219 C 3.109375 0.699219 2.144531 0.355469 1.453125 -0.332031 C 0.765625 -1.023438 0.421875 -1.988281 0.421875 -3.226562 L 0.421875 -15.238281 C 0.421875 -15.550781 0.535156 -15.820312 0.757812 -16.046875 C 0.984375 -16.273438 1.253906 -16.386719 1.570312 -16.386719 L 3.71875 -16.386719 C 4.03125 -16.386719 4.300781 -16.273438 4.527344 -16.046875 C 4.753906 -15.820312 4.867188 -15.550781 4.867188 -15.238281 L 4.867188 -3.855469 C 4.867188 -3.78125 4.875 -3.722656 4.886719 -3.683594 C 4.890625 -3.675781 4.894531 -3.671875 4.894531 -3.667969 C 4.894531 -3.671875 4.890625 -3.671875 4.886719 -3.675781 C 4.882812 -3.679688 4.882812 -3.683594 4.878906 -3.683594 C 4.882812 -3.683594 4.886719 -3.679688 4.894531 -3.679688 C 4.933594 -3.664062 4.992188 -3.65625 5.0625 -3.65625 L 6.230469 -3.65625 C 6.304688 -3.65625 6.359375 -3.664062 6.398438 -3.679688 C 6.40625 -3.679688 6.414062 -3.683594 6.414062 -3.683594 C 6.414062 -3.683594 6.410156 -3.679688 6.40625 -3.675781 C 6.402344 -3.671875 6.402344 -3.671875 6.398438 -3.667969 C 6.402344 -3.671875 6.402344 -3.675781 6.40625 -3.683594 C 6.417969 -3.722656 6.425781 -3.78125 6.425781 -3.855469 L 6.425781 -15.238281 C 6.425781 -15.550781 6.539062 -15.820312 6.765625 -16.046875 C 6.992188 -16.273438 7.261719 -16.386719 7.574219 -16.386719 Z M 7.574219 -14.984375 C 7.648438 -14.984375 7.707031 -15.007812 7.753906 -15.054688 C 7.800781 -15.101562 7.824219 -15.164062 7.824219 -15.238281 L 7.824219 -3.855469 C 7.824219 -3.363281 7.683594 -2.972656 7.398438 -2.6875 C 7.109375 -2.402344 6.722656 -2.257812 6.230469 -2.257812 L 5.0625 -2.257812 C 4.570312 -2.257812 4.183594 -2.402344 3.898438 -2.6875 C 3.609375 -2.972656 3.46875 -3.363281 3.46875 -3.855469 L 3.46875 -15.238281 C 3.46875 -15.164062 3.492188 -15.101562 3.539062 -15.054688 C 3.585938 -15.007812 3.644531 -14.984375 3.71875 -14.984375 L 1.570312 -14.984375 C 1.640625 -14.984375 1.703125 -15.007812 1.75 -15.054688 C 1.796875 -15.101562 1.820312 -15.164062 1.820312 -15.238281 L 1.820312 -3.226562 C 1.820312 -2.375 2.027344 -1.742188 2.445312 -1.324219 C 2.859375 -0.910156 3.496094 -0.699219 4.347656 -0.699219 L 6.855469 -0.699219 C 7.722656 -0.699219 8.359375 -0.90625 8.765625 -1.320312 C 9.179688 -1.738281 9.382812 -2.371094 9.382812 -3.226562 L 9.382812 -15.238281 C 9.382812 -15.164062 9.40625 -15.101562 9.453125 -15.054688 C 9.5 -15.007812 9.5625 -14.984375 9.636719 -14.984375 Z M 7.574219 -14.984375 "/></g></g><g style="fill:#b21a22;fill-opacity:1;"><g transform="translate(76.655527, 49.5638)"><path style="stroke:none" d="M 3.46875 -2.957031 L 3.46875 -15.328125 C 3.46875 -15.3125 3.472656 -15.289062 3.480469 -15.261719 C 3.5 -15.203125 3.535156 -15.148438 3.582031 -15.101562 C 3.632812 -15.050781 3.683594 -15.019531 3.746094 -15 C 3.773438 -14.988281 3.792969 -14.984375 3.808594 -14.984375 L 1.480469 -14.984375 C 1.496094 -14.984375 1.515625 -14.988281 1.542969 -15 C 1.601562 -15.019531 1.65625 -15.050781 1.707031 -15.101562 C 1.753906 -15.148438 1.789062 -15.203125 1.808594 -15.261719 C 1.816406 -15.289062 1.820312 -15.3125 1.820312 -15.328125 L 1.820312 -0.359375 C 1.820312 -0.375 1.816406 -0.394531 1.808594 -0.421875 C 1.789062 -0.484375 1.753906 -0.535156 1.707031 -0.585938 C 1.65625 -0.632812 1.601562 -0.667969 1.542969 -0.6875 C 1.515625 -0.695312 1.496094 -0.699219 1.480469 -0.699219 L 8.605469 -0.699219 C 8.589844 -0.699219 8.566406 -0.695312 8.539062 -0.6875 C 8.480469 -0.667969 8.425781 -0.632812 8.378906 -0.585938 C 8.332031 -0.535156 8.296875 -0.484375 8.277344 -0.421875 C 8.265625 -0.394531 8.261719 -0.375 8.261719 -0.359375 L 8.261719 -2.597656 C 8.261719 -2.582031 8.265625 -2.5625 8.277344 -2.535156 C 8.296875 -2.476562 8.332031 -2.421875 8.378906 -2.371094 C 8.425781 -2.324219 8.480469 -2.289062 8.539062 -2.269531 C 8.566406 -2.261719 8.589844 -2.257812 8.605469 -2.257812 L 3.46875 -2.257812 Z M 4.867188 -2.957031 L 4.167969 -2.957031 L 4.167969 -3.65625 L 8.605469 -3.65625 C 8.917969 -3.65625 9.171875 -3.558594 9.367188 -3.363281 C 9.566406 -3.167969 9.664062 -2.914062 9.664062 -2.597656 L 9.664062 -0.359375 C 9.664062 -0.046875 9.566406 0.210938 9.367188 0.40625 C 9.171875 0.601562 8.917969 0.699219 8.605469 0.699219 L 1.480469 0.699219 C 1.167969 0.699219 0.910156 0.601562 0.714844 0.40625 C 0.519531 0.210938 0.421875 -0.046875 0.421875 -0.359375 L 0.421875 -15.328125 C 0.421875 -15.640625 0.519531 -15.894531 0.714844 -16.089844 C 0.910156 -16.289062 1.167969 -16.386719 1.480469 -16.386719 L 3.808594 -16.386719 C 4.121094 -16.386719 4.375 -16.289062 4.574219 -16.089844 C 4.769531 -15.894531 4.867188 -15.640625 4.867188 -15.328125 Z M 4.867188 -2.957031 "/></g></g><g style="fill:#b21a22;fill-opacity:1;"><g transform="translate(86.735847, 49.5638)"><path style="stroke:none" d="M 0.421875 -3.226562 L 0.421875 -12.457031 C 0.421875 -13.714844 0.765625 -14.683594 1.457031 -15.367188 C 2.148438 -16.046875 3.109375 -16.386719 4.347656 -16.386719 L 6.855469 -16.386719 C 8.109375 -16.386719 9.078125 -16.042969 9.761719 -15.363281 C 10.441406 -14.679688 10.785156 -13.710938 10.785156 -12.457031 L 10.785156 -3.226562 C 10.785156 -1.988281 10.445312 -1.027344 9.765625 -0.335938 C 9.082031 0.355469 8.113281 0.699219 6.855469 0.699219 L 4.347656 0.699219 C 3.109375 0.699219 2.144531 0.355469 1.453125 -0.332031 C 0.765625 -1.023438 0.421875 -1.988281 0.421875 -3.226562 Z M 1.820312 -3.226562 C 1.820312 -2.375 2.027344 -1.742188 2.445312 -1.324219 C 2.859375 -0.910156 3.496094 -0.699219 4.347656 -0.699219 L 6.855469 -0.699219 C 7.722656 -0.699219 8.359375 -0.90625 8.765625 -1.320312 C 9.179688 -1.738281 9.382812 -2.371094 9.382812 -3.226562 L 9.382812 -12.457031 C 9.382812 -13.324219 9.179688 -13.964844 8.769531 -14.371094 C 8.363281 -14.78125 7.722656 -14.984375 6.855469 -14.984375 L 4.347656 -14.984375 C 3.492188 -14.984375 2.859375 -14.78125 2.441406 -14.367188 C 2.027344 -13.960938 1.820312 -13.324219 1.820312 -12.457031 Z M 4.929688 -3.589844 L 6.363281 -3.589844 C 6.4375 -3.589844 6.496094 -3.597656 6.535156 -3.609375 C 6.542969 -3.613281 6.546875 -3.617188 6.550781 -3.617188 C 6.546875 -3.617188 6.542969 -3.613281 6.539062 -3.609375 C 6.539062 -3.605469 6.535156 -3.605469 6.535156 -3.601562 C 6.535156 -3.605469 6.539062 -3.609375 6.539062 -3.617188 C 6.554688 -3.65625 6.558594 -3.714844 6.558594 -3.785156 L 6.558594 -11.898438 C 6.558594 -11.972656 6.554688 -12.027344 6.539062 -12.070312 C 6.539062 -12.078125 6.535156 -12.082031 6.535156 -12.085938 C 6.535156 -12.082031 6.539062 -12.078125 6.539062 -12.074219 C 6.542969 -12.074219 6.546875 -12.070312 6.550781 -12.066406 C 6.546875 -12.070312 6.542969 -12.070312 6.535156 -12.074219 C 6.496094 -12.085938 6.4375 -12.09375 6.363281 -12.09375 L 4.929688 -12.09375 C 4.855469 -12.09375 4.800781 -12.085938 4.757812 -12.074219 C 4.75 -12.070312 4.746094 -12.070312 4.742188 -12.066406 C 4.746094 -12.070312 4.75 -12.074219 4.753906 -12.074219 C 4.757812 -12.078125 4.757812 -12.082031 4.761719 -12.085938 C 4.757812 -12.082031 4.757812 -12.078125 4.753906 -12.070312 C 4.742188 -12.027344 4.734375 -11.972656 4.734375 -11.898438 L 4.734375 -3.785156 C 4.734375 -3.714844 4.742188 -3.65625 4.753906 -3.617188 C 4.757812 -3.609375 4.757812 -3.605469 4.761719 -3.601562 C 4.757812 -3.605469 4.757812 -3.605469 4.753906 -3.609375 C 4.75 -3.613281 4.746094 -3.617188 4.742188 -3.617188 C 4.746094 -3.617188 4.75 -3.613281 4.757812 -3.609375 C 4.800781 -3.597656 4.855469 -3.589844 4.929688 -3.589844 Z M 4.929688 -2.191406 C 4.4375 -2.191406 4.046875 -2.332031 3.761719 -2.621094 C 3.476562 -2.90625 3.332031 -3.292969 3.332031 -3.785156 L 3.332031 -11.898438 C 3.332031 -12.390625 3.476562 -12.78125 3.761719 -13.066406 C 4.046875 -13.351562 4.4375 -13.496094 4.929688 -13.496094 L 6.363281 -13.496094 C 6.855469 -13.496094 7.246094 -13.351562 7.53125 -13.066406 C 7.816406 -12.78125 7.960938 -12.390625 7.960938 -11.898438 L 7.960938 -3.785156 C 7.960938 -3.292969 7.816406 -2.90625 7.53125 -2.621094 C 7.246094 -2.332031 6.855469 -2.191406 6.363281 -2.191406 Z M 4.929688 -2.191406 "/></g></g><g style="fill:#b21a22;fill-opacity:1;"><g transform="translate(97.936204, 49.5638)"><path style="stroke:none" d="M 1.480469 -0.699219 L 3.808594 -0.699219 C 3.792969 -0.699219 3.773438 -0.695312 3.746094 -0.6875 C 3.683594 -0.667969 3.632812 -0.632812 3.582031 -0.585938 C 3.535156 -0.535156 3.5 -0.484375 3.480469 -0.421875 C 3.472656 -0.394531 3.46875 -0.375 3.46875 -0.359375 L 3.46875 -15.328125 C 3.46875 -15.3125 3.472656 -15.289062 3.480469 -15.261719 C 3.5 -15.203125 3.535156 -15.148438 3.582031 -15.101562 C 3.632812 -15.050781 3.683594 -15.019531 3.746094 -15 C 3.773438 -14.988281 3.792969 -14.984375 3.808594 -14.984375 L 1.480469 -14.984375 C 1.496094 -14.984375 1.515625 -14.988281 1.542969 -15 C 1.601562 -15.019531 1.65625 -15.050781 1.707031 -15.101562 C 1.753906 -15.148438 1.789062 -15.203125 1.808594 -15.261719 C 1.816406 -15.289062 1.820312 -15.3125 1.820312 -15.328125 L 1.820312 -0.359375 C 1.820312 -0.375 1.816406 -0.394531 1.808594 -0.421875 C 1.789062 -0.484375 1.753906 -0.535156 1.707031 -0.585938 C 1.65625 -0.632812 1.601562 -0.667969 1.542969 -0.6875 C 1.515625 -0.695312 1.496094 -0.699219 1.480469 -0.699219 Z M 1.480469 0.699219 C 1.167969 0.699219 0.910156 0.601562 0.714844 0.40625 C 0.519531 0.210938 0.421875 -0.046875 0.421875 -0.359375 L 0.421875 -15.328125 C 0.421875 -15.640625 0.519531 -15.894531 0.714844 -16.089844 C 0.910156 -16.289062 1.167969 -16.386719 1.480469 -16.386719 L 3.808594 -16.386719 C 4.121094 -16.386719 4.375 -16.289062 4.574219 -16.089844 C 4.769531 -15.894531 4.867188 -15.640625 4.867188 -15.328125 L 4.867188 -0.359375 C 4.867188 -0.046875 4.769531 0.210938 4.574219 0.40625 C 4.375 0.601562 4.121094 0.699219 3.808594 0.699219 Z M 1.480469 0.699219 "/></g></g><g style="fill:#b21a22;fill-opacity:1;"><g transform="translate(103.222769, 49.5638)"><path style="stroke:none" d="M 0.421875 -0.359375 L 0.421875 -15.328125 C 0.421875 -15.640625 0.519531 -15.894531 0.714844 -16.089844 C 0.910156 -16.289062 1.167969 -16.386719 1.480469 -16.386719 L 6.855469 -16.386719 C 8.113281 -16.386719 9.082031 -16.039062 9.765625 -15.347656 C 10.445312 -14.660156 10.785156 -13.6875 10.785156 -12.4375 L 10.785156 -3.226562 C 10.785156 -1.988281 10.445312 -1.027344 9.765625 -0.335938 C 9.082031 0.355469 8.113281 0.699219 6.855469 0.699219 L 1.480469 0.699219 C 1.167969 0.699219 0.910156 0.601562 0.714844 0.40625 C 0.519531 0.210938 0.421875 -0.046875 0.421875 -0.359375 Z M 1.820312 -0.359375 C 1.820312 -0.375 1.816406 -0.394531 1.808594 -0.421875 C 1.789062 -0.484375 1.753906 -0.535156 1.707031 -0.585938 C 1.65625 -0.632812 1.601562 -0.667969 1.542969 -0.6875 C 1.515625 -0.695312 1.496094 -0.699219 1.480469 -0.699219 L 6.855469 -0.699219 C 7.722656 -0.699219 8.359375 -0.90625 8.765625 -1.320312 C 9.179688 -1.738281 9.382812 -2.371094 9.382812 -3.226562 L 9.382812 -12.4375 C 9.382812 -13.304688 9.179688 -13.949219 8.765625 -14.363281 C 8.359375 -14.777344 7.722656 -14.984375 6.855469 -14.984375 L 1.480469 -14.984375 C 1.496094 -14.984375 1.515625 -14.988281 1.542969 -15 C 1.601562 -15.019531 1.65625 -15.050781 1.707031 -15.101562 C 1.753906 -15.148438 1.789062 -15.203125 1.808594 -15.261719 C 1.816406 -15.289062 1.820312 -15.3125 1.820312 -15.328125 Z M 4.167969 -3.65625 L 6.230469 -3.65625 C 6.304688 -3.65625 6.359375 -3.664062 6.398438 -3.679688 C 6.40625 -3.679688 6.414062 -3.683594 6.414062 -3.683594 C 6.414062 -3.683594 6.410156 -3.679688 6.40625 -3.675781 C 6.402344 -3.671875 6.402344 -3.671875 6.398438 -3.667969 C 6.402344 -3.671875 6.402344 -3.675781 6.40625 -3.683594 C 6.417969 -3.722656 6.425781 -3.78125 6.425781 -3.855469 L 6.425781 -11.808594 C 6.425781 -11.886719 6.417969 -11.949219 6.402344 -11.996094 C 6.402344 -12.003906 6.398438 -12.011719 6.394531 -12.015625 C 6.394531 -12.011719 6.398438 -12.011719 6.398438 -12.007812 L 6.394531 -12.007812 C 6.355469 -12.019531 6.300781 -12.027344 6.230469 -12.027344 L 4.167969 -12.027344 L 4.167969 -12.726562 L 4.867188 -12.726562 L 4.867188 -2.957031 L 4.167969 -2.957031 Z M 3.46875 -2.257812 L 3.46875 -13.429688 L 6.230469 -13.429688 C 6.726562 -13.429688 7.117188 -13.28125 7.402344 -12.988281 C 7.683594 -12.699219 7.824219 -12.304688 7.824219 -11.808594 L 7.824219 -3.855469 C 7.824219 -3.363281 7.683594 -2.972656 7.398438 -2.6875 C 7.109375 -2.402344 6.722656 -2.257812 6.230469 -2.257812 Z M 3.46875 -2.257812 "/></g></g><g style="fill:#b21a22;fill-opacity:1;"><g transform="translate(114.423125, 49.5638)"><path style="stroke:none" d="M 0.421875 -7.035156 L 0.421875 -9.097656 C 0.421875 -9.441406 0.527344 -9.71875 0.738281 -9.929688 C 0.949219 -10.140625 1.226562 -10.246094 1.570312 -10.246094 L 5.109375 -10.246094 C 5.453125 -10.246094 5.730469 -10.140625 5.941406 -9.929688 C 6.152344 -9.71875 6.257812 -9.441406 6.257812 -9.097656 L 6.257812 -7.035156 C 6.257812 -6.691406 6.152344 -6.417969 5.941406 -6.203125 C 5.730469 -5.992188 5.453125 -5.886719 5.109375 -5.886719 L 1.570312 -5.886719 C 1.226562 -5.886719 0.949219 -5.992188 0.738281 -6.203125 C 0.527344 -6.417969 0.421875 -6.691406 0.421875 -7.035156 Z M 1.820312 -7.035156 C 1.820312 -7.03125 1.820312 -7.03125 1.820312 -7.027344 C 1.820312 -7.027344 1.820312 -7.027344 1.820312 -7.03125 C 1.820312 -7.039062 1.816406 -7.050781 1.8125 -7.0625 C 1.796875 -7.109375 1.769531 -7.15625 1.726562 -7.195312 C 1.6875 -7.234375 1.640625 -7.265625 1.59375 -7.28125 C 1.582031 -7.285156 1.570312 -7.285156 1.5625 -7.289062 C 1.5625 -7.289062 1.566406 -7.289062 1.570312 -7.289062 L 5.109375 -7.289062 C 5.113281 -7.289062 5.113281 -7.289062 5.117188 -7.289062 C 5.117188 -7.289062 5.117188 -7.289062 5.113281 -7.289062 C 5.105469 -7.285156 5.09375 -7.285156 5.082031 -7.28125 C 5.035156 -7.265625 4.992188 -7.234375 4.949219 -7.195312 C 4.910156 -7.15625 4.882812 -7.109375 4.863281 -7.0625 C 4.859375 -7.050781 4.859375 -7.039062 4.855469 -7.03125 C 4.855469 -7.027344 4.855469 -7.027344 4.855469 -7.027344 C 4.855469 -7.03125 4.855469 -7.03125 4.855469 -7.035156 L 4.855469 -9.097656 C 4.855469 -9.101562 4.855469 -9.101562 4.855469 -9.105469 C 4.859375 -9.09375 4.859375 -9.085938 4.863281 -9.070312 C 4.882812 -9.023438 4.910156 -8.980469 4.949219 -8.9375 C 4.992188 -8.898438 5.035156 -8.871094 5.082031 -8.851562 C 5.09375 -8.847656 5.105469 -8.847656 5.113281 -8.84375 C 5.117188 -8.84375 5.117188 -8.84375 5.117188 -8.84375 C 5.113281 -8.84375 5.113281 -8.84375 5.109375 -8.84375 L 1.570312 -8.84375 C 1.566406 -8.84375 1.5625 -8.84375 1.5625 -8.84375 C 1.570312 -8.847656 1.582031 -8.847656 1.59375 -8.851562 C 1.640625 -8.871094 1.6875 -8.898438 1.726562 -8.9375 C 1.769531 -8.980469 1.796875 -9.023438 1.8125 -9.070312 C 1.816406 -9.085938 1.820312 -9.09375 1.820312 -9.105469 C 1.820312 -9.101562 1.820312 -9.101562 1.820312 -9.097656 Z M 1.820312 -7.035156 "/></g></g><g style="fill:#b21a22;fill-opacity:1;"><g transform="translate(45.880269, 80.804073)"><path style="stroke:none" d="M 1.480469 -0.699219 L 3.808594 -0.699219 C 3.792969 -0.699219 3.773438 -0.695312 3.746094 -0.6875 C 3.683594 -0.667969 3.632812 -0.632812 3.582031 -0.585938 C 3.535156 -0.535156 3.5 -0.484375 3.480469 -0.421875 C 3.472656 -0.394531 3.46875 -0.375 3.46875 -0.359375 L 3.46875 -15.328125 C 3.46875 -15.3125 3.472656 -15.289062 3.480469 -15.261719 C 3.5 -15.203125 3.535156 -15.148438 3.582031 -15.101562 C 3.632812 -15.050781 3.683594 -15.019531 3.746094 -15 C 3.773438 -14.988281 3.792969 -14.984375 3.808594 -14.984375 L 1.480469 -14.984375 C 1.496094 -14.984375 1.515625 -14.988281 1.542969 -15 C 1.601562 -15.019531 1.65625 -15.050781 1.707031 -15.101562 C 1.753906 -15.148438 1.789062 -15.203125 1.808594 -15.261719 C 1.816406 -15.289062 1.820312 -15.3125 1.820312 -15.328125 L 1.820312 -0.359375 C 1.820312 -0.375 1.816406 -0.394531 1.808594 -0.421875 C 1.789062 -0.484375 1.753906 -0.535156 1.707031 -0.585938 C 1.65625 -0.632812 1.601562 -0.667969 1.542969 -0.6875 C 1.515625 -0.695312 1.496094 -0.699219 1.480469 -0.699219 Z M 1.480469 0.699219 C 1.167969 0.699219 0.910156 0.601562 0.714844 0.40625 C 0.519531 0.210938 0.421875 -0.046875 0.421875 -0.359375 L 0.421875 -15.328125 C 0.421875 -15.640625 0.519531 -15.894531 0.714844 -16.089844 C 0.910156 -16.289062 1.167969 -16.386719 1.480469 -16.386719 L 3.808594 -16.386719 C 4.121094 -16.386719 4.375 -16.289062 4.574219 -16.089844 C 4.769531 -15.894531 4.867188 -15.640625 4.867188 -15.328125 L 4.867188 -0.359375 C 4.867188 -0.046875 4.769531 0.210938 4.574219 0.40625 C 4.375 0.601562 4.121094 0.699219 3.808594 0.699219 Z M 1.480469 0.699219 "/></g></g><g style="fill:#b21a22;fill-opacity:1;"><g transform="translate(51.166834, 80.804073)"><path style="stroke:none" d="M 0.421875 -3.226562 L 0.421875 -12.457031 C 0.421875 -13.714844 0.765625 -14.683594 1.457031 -15.367188 C 2.148438 -16.046875 3.109375 -16.386719 4.347656 -16.386719 L 6.855469 -16.386719 C 8.109375 -16.386719 9.078125 -16.042969 9.761719 -15.363281 C 10.441406 -14.679688 10.785156 -13.710938 10.785156 -12.457031 L 10.785156 -3.226562 C 10.785156 -1.988281 10.445312 -1.027344 9.765625 -0.335938 C 9.082031 0.355469 8.113281 0.699219 6.855469 0.699219 L 4.347656 0.699219 C 3.109375 0.699219 2.144531 0.355469 1.453125 -0.332031 C 0.765625 -1.023438 0.421875 -1.988281 0.421875 -3.226562 Z M 1.820312 -3.226562 C 1.820312 -2.375 2.027344 -1.742188 2.445312 -1.324219 C 2.859375 -0.910156 3.496094 -0.699219 4.347656 -0.699219 L 6.855469 -0.699219 C 7.722656 -0.699219 8.359375 -0.90625 8.765625 -1.320312 C 9.179688 -1.738281 9.382812 -2.371094 9.382812 -3.226562 L 9.382812 -12.457031 C 9.382812 -13.324219 9.179688 -13.964844 8.769531 -14.371094 C 8.363281 -14.78125 7.722656 -14.984375 6.855469 -14.984375 L 4.347656 -14.984375 C 3.492188 -14.984375 2.859375 -14.78125 2.441406 -14.367188 C 2.027344 -13.960938 1.820312 -13.324219 1.820312 -12.457031 Z M 4.929688 -3.589844 L 6.363281 -3.589844 C 6.4375 -3.589844 6.496094 -3.597656 6.535156 -3.609375 C 6.542969 -3.613281 6.546875 -3.617188 6.550781 -3.617188 C 6.546875 -3.617188 6.542969 -3.613281 6.539062 -3.609375 C 6.539062 -3.605469 6.535156 -3.605469 6.535156 -3.601562 C 6.535156 -3.605469 6.539062 -3.609375 6.539062 -3.617188 C 6.554688 -3.65625 6.558594 -3.714844 6.558594 -3.785156 L 6.558594 -11.898438 C 6.558594 -11.972656 6.554688 -12.027344 6.539062 -12.070312 C 6.539062 -12.078125 6.535156 -12.082031 6.535156 -12.085938 C 6.535156 -12.082031 6.539062 -12.078125 6.539062 -12.074219 C 6.542969 -12.074219 6.546875 -12.070312 6.550781 -12.066406 C 6.546875 -12.070312 6.542969 -12.070312 6.535156 -12.074219 C 6.496094 -12.085938 6.4375 -12.09375 6.363281 -12.09375 L 4.929688 -12.09375 C 4.855469 -12.09375 4.800781 -12.085938 4.757812 -12.074219 C 4.75 -12.070312 4.746094 -12.070312 4.742188 -12.066406 C 4.746094 -12.070312 4.75 -12.074219 4.753906 -12.074219 C 4.757812 -12.078125 4.757812 -12.082031 4.761719 -12.085938 C 4.757812 -12.082031 4.757812 -12.078125 4.753906 -12.070312 C 4.742188 -12.027344 4.734375 -11.972656 4.734375 -11.898438 L 4.734375 -3.785156 C 4.734375 -3.714844 4.742188 -3.65625 4.753906 -3.617188 C 4.757812 -3.609375 4.757812 -3.605469 4.761719 -3.601562 C 4.757812 -3.605469 4.757812 -3.605469 4.753906 -3.609375 C 4.75 -3.613281 4.746094 -3.617188 4.742188 -3.617188 C 4.746094 -3.617188 4.75 -3.613281 4.757812 -3.609375 C 4.800781 -3.597656 4.855469 -3.589844 4.929688 -3.589844 Z M 4.929688 -2.191406 C 4.4375 -2.191406 4.046875 -2.332031 3.761719 -2.621094 C 3.476562 -2.90625 3.332031 -3.292969 3.332031 -3.785156 L 3.332031 -11.898438 C 3.332031 -12.390625 3.476562 -12.78125 3.761719 -13.066406 C 4.046875 -13.351562 4.4375 -13.496094 4.929688 -13.496094 L 6.363281 -13.496094 C 6.855469 -13.496094 7.246094 -13.351562 7.53125 -13.066406 C 7.816406 -12.78125 7.960938 -12.390625 7.960938 -11.898438 L 7.960938 -3.785156 C 7.960938 -3.292969 7.816406 -2.90625 7.53125 -2.621094 C 7.246094 -2.332031 6.855469 -2.191406 6.363281 -2.191406 Z M 4.929688 -2.191406 "/></g></g><g style="fill:#b21a22;fill-opacity:1;"><g transform="translate(62.36719, 80.804073)"><path style="stroke:none" d="M 0.421875 -7.035156 L 0.421875 -9.097656 C 0.421875 -9.441406 0.527344 -9.71875 0.738281 -9.929688 C 0.949219 -10.140625 1.226562 -10.246094 1.570312 -10.246094 L 5.109375 -10.246094 C 5.453125 -10.246094 5.730469 -10.140625 5.941406 -9.929688 C 6.152344 -9.71875 6.257812 -9.441406 6.257812 -9.097656 L 6.257812 -7.035156 C 6.257812 -6.691406 6.152344 -6.417969 5.941406 -6.203125 C 5.730469 -5.992188 5.453125 -5.886719 5.109375 -5.886719 L 1.570312 -5.886719 C 1.226562 -5.886719 0.949219 -5.992188 0.738281 -6.203125 C 0.527344 -6.417969 0.421875 -6.691406 0.421875 -7.035156 Z M 1.820312 -7.035156 C 1.820312 -7.03125 1.820312 -7.03125 1.820312 -7.027344 C 1.820312 -7.027344 1.820312 -7.027344 1.820312 -7.03125 C 1.820312 -7.039062 1.816406 -7.050781 1.8125 -7.0625 C 1.796875 -7.109375 1.769531 -7.15625 1.726562 -7.195312 C 1.6875 -7.234375 1.640625 -7.265625 1.59375 -7.28125 C 1.582031 -7.285156 1.570312 -7.285156 1.5625 -7.289062 C 1.5625 -7.289062 1.566406 -7.289062 1.570312 -7.289062 L 5.109375 -7.289062 C 5.113281 -7.289062 5.113281 -7.289062 5.117188 -7.289062 C 5.117188 -7.289062 5.117188 -7.289062 5.113281 -7.289062 C 5.105469 -7.285156 5.09375 -7.285156 5.082031 -7.28125 C 5.035156 -7.265625 4.992188 -7.234375 4.949219 -7.195312 C 4.910156 -7.15625 4.882812 -7.109375 4.863281 -7.0625 C 4.859375 -7.050781 4.859375 -7.039062 4.855469 -7.03125 C 4.855469 -7.027344 4.855469 -7.027344 4.855469 -7.027344 C 4.855469 -7.03125 4.855469 -7.03125 4.855469 -7.035156 L 4.855469 -9.097656 C 4.855469 -9.101562 4.855469 -9.101562 4.855469 -9.105469 C 4.859375 -9.09375 4.859375 -9.085938 4.863281 -9.070312 C 4.882812 -9.023438 4.910156 -8.980469 4.949219 -8.9375 C 4.992188 -8.898438 5.035156 -8.871094 5.082031 -8.851562 C 5.09375 -8.847656 5.105469 -8.847656 5.113281 -8.84375 C 5.117188 -8.84375 5.117188 -8.84375 5.117188 -8.84375 C 5.113281 -8.84375 5.113281 -8.84375 5.109375 -8.84375 L 1.570312 -8.84375 C 1.566406 -8.84375 1.5625 -8.84375 1.5625 -8.84375 C 1.570312 -8.847656 1.582031 -8.847656 1.59375 -8.851562 C 1.640625 -8.871094 1.6875 -8.898438 1.726562 -8.9375 C 1.769531 -8.980469 1.796875 -9.023438 1.8125 -9.070312 C 1.816406 -9.085938 1.820312 -9.09375 1.820312 -9.105469 C 1.820312 -9.101562 1.820312 -9.101562 1.820312 -9.097656 Z M 1.820312 -7.035156 "/></g></g><g style="fill:#b21a22;fill-opacity:1;"><g transform="translate(69.042601, 80.804073)"><path style="stroke:none" d="M 0.421875 -0.359375 L 0.421875 -15.328125 C 0.421875 -15.640625 0.519531 -15.894531 0.714844 -16.089844 C 0.910156 -16.289062 1.167969 -16.386719 1.480469 -16.386719 L 6.855469 -16.386719 C 8.109375 -16.386719 9.078125 -16.042969 9.761719 -15.363281 C 10.441406 -14.679688 10.785156 -13.710938 10.785156 -12.457031 L 10.785156 -8.066406 C 10.785156 -6.828125 10.441406 -5.867188 9.761719 -5.183594 C 9.082031 -4.507812 8.117188 -4.15625 6.867188 -4.140625 L 4.039062 -4.117188 L 4.035156 -4.816406 L 4.734375 -4.816406 L 4.734375 -0.335938 C 4.734375 -0.0234375 4.636719 0.230469 4.4375 0.429688 C 4.242188 0.625 3.988281 0.722656 3.675781 0.722656 L 1.472656 0.699219 C 1.164062 0.699219 0.910156 0.601562 0.714844 0.40625 C 0.519531 0.210938 0.421875 -0.046875 0.421875 -0.359375 Z M 1.820312 -0.359375 C 1.820312 -0.375 1.816406 -0.394531 1.808594 -0.421875 C 1.789062 -0.484375 1.753906 -0.535156 1.707031 -0.585938 C 1.65625 -0.632812 1.601562 -0.667969 1.542969 -0.6875 C 1.515625 -0.695312 1.496094 -0.699219 1.484375 -0.699219 L 3.675781 -0.679688 C 3.660156 -0.679688 3.636719 -0.671875 3.609375 -0.664062 C 3.550781 -0.644531 3.496094 -0.609375 3.449219 -0.5625 C 3.402344 -0.515625 3.367188 -0.460938 3.347656 -0.402344 C 3.335938 -0.375 3.332031 -0.351562 3.332031 -0.335938 L 3.332031 -5.511719 L 6.847656 -5.539062 C 7.71875 -5.550781 8.359375 -5.765625 8.769531 -6.175781 C 9.179688 -6.585938 9.382812 -7.214844 9.382812 -8.066406 L 9.382812 -12.457031 C 9.382812 -13.324219 9.179688 -13.964844 8.769531 -14.371094 C 8.363281 -14.78125 7.722656 -14.984375 6.855469 -14.984375 L 1.480469 -14.984375 C 1.496094 -14.984375 1.515625 -14.988281 1.542969 -15 C 1.601562 -15.019531 1.65625 -15.050781 1.707031 -15.101562 C 1.753906 -15.148438 1.789062 -15.203125 1.808594 -15.261719 C 1.816406 -15.289062 1.820312 -15.3125 1.820312 -15.328125 Z M 4.027344 -8.410156 L 6.265625 -8.429688 C 6.34375 -8.429688 6.40625 -8.4375 6.445312 -8.449219 C 6.453125 -8.453125 6.457031 -8.457031 6.460938 -8.457031 C 6.457031 -8.457031 6.453125 -8.453125 6.453125 -8.449219 C 6.449219 -8.445312 6.445312 -8.445312 6.445312 -8.441406 C 6.445312 -8.445312 6.449219 -8.449219 6.449219 -8.457031 C 6.464844 -8.496094 6.46875 -8.554688 6.46875 -8.628906 L 6.46875 -11.898438 C 6.46875 -11.972656 6.464844 -12.027344 6.449219 -12.070312 C 6.449219 -12.078125 6.445312 -12.082031 6.445312 -12.085938 C 6.445312 -12.082031 6.449219 -12.078125 6.453125 -12.074219 C 6.453125 -12.074219 6.457031 -12.070312 6.460938 -12.066406 C 6.457031 -12.070312 6.453125 -12.070312 6.445312 -12.074219 C 6.40625 -12.085938 6.347656 -12.09375 6.273438 -12.09375 L 4.039062 -12.070312 L 4.035156 -12.773438 L 4.734375 -12.773438 L 4.734375 -7.707031 L 4.035156 -7.707031 Z M 3.332031 -7 L 3.332031 -13.464844 L 6.273438 -13.496094 C 6.765625 -13.496094 7.15625 -13.351562 7.441406 -13.066406 C 7.726562 -12.78125 7.871094 -12.390625 7.871094 -11.898438 L 7.871094 -8.628906 C 7.871094 -8.136719 7.726562 -7.746094 7.441406 -7.460938 C 7.15625 -7.171875 6.769531 -7.03125 6.28125 -7.03125 L 4.039062 -7.007812 Z M 3.332031 -7 "/></g></g><g style="fill:#b21a22;fill-opacity:1;"><g transform="translate(80.242957, 80.804073)"><path style="stroke:none" d="M 0.421875 -3.226562 L 0.421875 -12.457031 C 0.421875 -13.714844 0.765625 -14.683594 1.457031 -15.367188 C 2.148438 -16.046875 3.109375 -16.386719 4.347656 -16.386719 L 6.855469 -16.386719 C 8.09375 -16.386719 9.058594 -16.046875 9.746094 -15.367188 C 10.4375 -14.683594 10.785156 -13.714844 10.785156 -12.457031 L 10.785156 -10.800781 C 10.785156 -10.488281 10.6875 -10.234375 10.488281 -10.035156 C 10.292969 -9.839844 10.039062 -9.742188 9.726562 -9.742188 L 7.617188 -9.742188 C 7.304688 -9.742188 7.050781 -9.839844 6.855469 -10.035156 C 6.65625 -10.234375 6.558594 -10.488281 6.558594 -10.800781 L 6.558594 -11.898438 C 6.558594 -11.972656 6.554688 -12.027344 6.539062 -12.070312 C 6.539062 -12.078125 6.535156 -12.082031 6.535156 -12.085938 C 6.535156 -12.082031 6.539062 -12.078125 6.539062 -12.074219 C 6.542969 -12.074219 6.546875 -12.070312 6.550781 -12.066406 C 6.546875 -12.070312 6.542969 -12.070312 6.535156 -12.074219 C 6.496094 -12.085938 6.4375 -12.09375 6.363281 -12.09375 L 4.929688 -12.09375 C 4.855469 -12.09375 4.800781 -12.085938 4.757812 -12.074219 C 4.75 -12.070312 4.746094 -12.070312 4.742188 -12.066406 C 4.746094 -12.070312 4.75 -12.074219 4.753906 -12.074219 C 4.757812 -12.078125 4.757812 -12.082031 4.761719 -12.085938 C 4.757812 -12.082031 4.757812 -12.078125 4.753906 -12.070312 C 4.742188 -12.027344 4.734375 -11.972656 4.734375 -11.898438 L 4.734375 -3.785156 C 4.734375 -3.714844 4.742188 -3.65625 4.753906 -3.617188 C 4.757812 -3.609375 4.757812 -3.605469 4.761719 -3.601562 C 4.757812 -3.605469 4.757812 -3.605469 4.753906 -3.609375 C 4.75 -3.613281 4.746094 -3.617188 4.742188 -3.617188 C 4.746094 -3.617188 4.75 -3.613281 4.757812 -3.609375 C 4.800781 -3.597656 4.855469 -3.589844 4.929688 -3.589844 L 6.363281 -3.589844 C 6.4375 -3.589844 6.496094 -3.597656 6.535156 -3.609375 C 6.542969 -3.613281 6.546875 -3.617188 6.550781 -3.617188 C 6.546875 -3.617188 6.542969 -3.613281 6.539062 -3.609375 C 6.539062 -3.605469 6.535156 -3.605469 6.535156 -3.601562 C 6.535156 -3.605469 6.539062 -3.609375 6.539062 -3.617188 C 6.554688 -3.65625 6.558594 -3.714844 6.558594 -3.785156 L 6.558594 -5.738281 L 7.261719 -5.738281 L 7.261719 -5.035156 L 6.09375 -5.035156 C 5.78125 -5.035156 5.527344 -5.132812 5.332031 -5.332031 C 5.132812 -5.527344 5.035156 -5.78125 5.035156 -6.09375 L 5.035156 -8.335938 C 5.035156 -8.648438 5.132812 -8.902344 5.332031 -9.101562 C 5.527344 -9.296875 5.78125 -9.394531 6.09375 -9.394531 L 9.726562 -9.394531 C 10.039062 -9.394531 10.292969 -9.296875 10.488281 -9.101562 C 10.6875 -8.902344 10.785156 -8.648438 10.785156 -8.335938 L 10.785156 -3.226562 C 10.785156 -1.988281 10.4375 -1.023438 9.75 -0.332031 C 9.058594 0.355469 8.097656 0.699219 6.855469 0.699219 L 4.347656 0.699219 C 3.109375 0.699219 2.144531 0.355469 1.453125 -0.332031 C 0.765625 -1.023438 0.421875 -1.988281 0.421875 -3.226562 Z M 1.820312 -3.226562 C 1.820312 -2.375 2.027344 -1.742188 2.445312 -1.324219 C 2.859375 -0.910156 3.496094 -0.699219 4.347656 -0.699219 L 6.855469 -0.699219 C 7.710938 -0.699219 8.34375 -0.910156 8.757812 -1.324219 C 9.175781 -1.742188 9.382812 -2.375 9.382812 -3.226562 L 9.382812 -8.335938 C 9.382812 -8.320312 9.386719 -8.296875 9.398438 -8.269531 C 9.417969 -8.210938 9.449219 -8.15625 9.5 -8.109375 C 9.546875 -8.0625 9.601562 -8.027344 9.660156 -8.007812 C 9.6875 -8 9.707031 -7.992188 9.726562 -7.992188 L 6.09375 -7.992188 C 6.109375 -7.992188 6.132812 -8 6.160156 -8.007812 C 6.21875 -8.027344 6.273438 -8.0625 6.320312 -8.109375 C 6.371094 -8.15625 6.402344 -8.210938 6.421875 -8.269531 C 6.433594 -8.296875 6.4375 -8.320312 6.4375 -8.335938 L 6.4375 -6.09375 C 6.4375 -6.109375 6.433594 -6.132812 6.421875 -6.160156 C 6.402344 -6.21875 6.371094 -6.273438 6.320312 -6.320312 C 6.273438 -6.371094 6.21875 -6.402344 6.160156 -6.421875 C 6.132812 -6.433594 6.109375 -6.4375 6.09375 -6.4375 L 7.960938 -6.4375 L 7.960938 -3.785156 C 7.960938 -3.292969 7.816406 -2.90625 7.53125 -2.621094 C 7.246094 -2.332031 6.855469 -2.191406 6.363281 -2.191406 L 4.929688 -2.191406 C 4.4375 -2.191406 4.046875 -2.332031 3.761719 -2.621094 C 3.476562 -2.90625 3.332031 -3.292969 3.332031 -3.785156 L 3.332031 -11.898438 C 3.332031 -12.390625 3.476562 -12.78125 3.761719 -13.066406 C 4.046875 -13.351562 4.4375 -13.496094 4.929688 -13.496094 L 6.363281 -13.496094 C 6.855469 -13.496094 7.246094 -13.351562 7.53125 -13.066406 C 7.816406 -12.78125 7.960938 -12.390625 7.960938 -11.898438 L 7.960938 -10.800781 C 7.960938 -10.816406 7.957031 -10.839844 7.945312 -10.863281 C 7.925781 -10.925781 7.894531 -10.980469 7.84375 -11.027344 C 7.796875 -11.074219 7.742188 -11.109375 7.683594 -11.128906 C 7.65625 -11.136719 7.632812 -11.140625 7.617188 -11.140625 L 9.726562 -11.140625 C 9.707031 -11.140625 9.6875 -11.136719 9.660156 -11.128906 C 9.601562 -11.109375 9.546875 -11.074219 9.5 -11.027344 C 9.449219 -10.980469 9.417969 -10.925781 9.398438 -10.863281 C 9.386719 -10.839844 9.382812 -10.816406 9.382812 -10.800781 L 9.382812 -12.457031 C 9.382812 -13.324219 9.175781 -13.960938 8.761719 -14.367188 C 8.347656 -14.78125 7.710938 -14.984375 6.855469 -14.984375 L 4.347656 -14.984375 C 3.492188 -14.984375 2.859375 -14.78125 2.441406 -14.367188 C 2.027344 -13.960938 1.820312 -13.324219 1.820312 -12.457031 Z M 1.820312 -3.226562 "/></g></g><g style="fill:#b21a22;fill-opacity:1;"><g transform="translate(91.443314, 80.804073)"><path style="stroke:none" d="M 0.421875 -7.035156 L 0.421875 -9.097656 C 0.421875 -9.441406 0.527344 -9.71875 0.738281 -9.929688 C 0.949219 -10.140625 1.226562 -10.246094 1.570312 -10.246094 L 5.109375 -10.246094 C 5.453125 -10.246094 5.730469 -10.140625 5.941406 -9.929688 C 6.152344 -9.71875 6.257812 -9.441406 6.257812 -9.097656 L 6.257812 -7.035156 C 6.257812 -6.691406 6.152344 -6.417969 5.941406 -6.203125 C 5.730469 -5.992188 5.453125 -5.886719 5.109375 -5.886719 L 1.570312 -5.886719 C 1.226562 -5.886719 0.949219 -5.992188 0.738281 -6.203125 C 0.527344 -6.417969 0.421875 -6.691406 0.421875 -7.035156 Z M 1.820312 -7.035156 C 1.820312 -7.03125 1.820312 -7.03125 1.820312 -7.027344 C 1.820312 -7.027344 1.820312 -7.027344 1.820312 -7.03125 C 1.820312 -7.039062 1.816406 -7.050781 1.8125 -7.0625 C 1.796875 -7.109375 1.769531 -7.15625 1.726562 -7.195312 C 1.6875 -7.234375 1.640625 -7.265625 1.59375 -7.28125 C 1.582031 -7.285156 1.570312 -7.285156 1.5625 -7.289062 C 1.5625 -7.289062 1.566406 -7.289062 1.570312 -7.289062 L 5.109375 -7.289062 C 5.113281 -7.289062 5.113281 -7.289062 5.117188 -7.289062 C 5.117188 -7.289062 5.117188 -7.289062 5.113281 -7.289062 C 5.105469 -7.285156 5.09375 -7.285156 5.082031 -7.28125 C 5.035156 -7.265625 4.992188 -7.234375 4.949219 -7.195312 C 4.910156 -7.15625 4.882812 -7.109375 4.863281 -7.0625 C 4.859375 -7.050781 4.859375 -7.039062 4.855469 -7.03125 C 4.855469 -7.027344 4.855469 -7.027344 4.855469 -7.027344 C 4.855469 -7.03125 4.855469 -7.03125 4.855469 -7.035156 L 4.855469 -9.097656 C 4.855469 -9.101562 4.855469 -9.101562 4.855469 -9.105469 C 4.859375 -9.09375 4.859375 -9.085938 4.863281 -9.070312 C 4.882812 -9.023438 4.910156 -8.980469 4.949219 -8.9375 C 4.992188 -8.898438 5.035156 -8.871094 5.082031 -8.851562 C 5.09375 -8.847656 5.105469 -8.847656 5.113281 -8.84375 C 5.117188 -8.84375 5.117188 -8.84375 5.117188 -8.84375 C 5.113281 -8.84375 5.113281 -8.84375 5.109375 -8.84375 L 1.570312 -8.84375 C 1.566406 -8.84375 1.5625 -8.84375 1.5625 -8.84375 C 1.570312 -8.847656 1.582031 -8.847656 1.59375 -8.851562 C 1.640625 -8.871094 1.6875 -8.898438 1.726562 -8.9375 C 1.769531 -8.980469 1.796875 -9.023438 1.8125 -9.070312 C 1.816406 -9.085938 1.820312 -9.09375 1.820312 -9.105469 C 1.820312 -9.101562 1.820312 -9.101562 1.820312 -9.097656 Z M 1.820312 -7.035156 "/></g></g><g style="fill:#b21a22;fill-opacity:1;"><g transform="translate(30.881388, 112.044347)"><path style="stroke:none" d="M 3.46875 -2.957031 L 3.46875 -15.328125 C 3.46875 -15.3125 3.472656 -15.289062 3.480469 -15.261719 C 3.5 -15.203125 3.535156 -15.148438 3.582031 -15.101562 C 3.632812 -15.050781 3.683594 -15.019531 3.746094 -15 C 3.773438 -14.988281 3.792969 -14.984375 3.808594 -14.984375 L 1.480469 -14.984375 C 1.496094 -14.984375 1.515625 -14.988281 1.542969 -15 C 1.601562 -15.019531 1.65625 -15.050781 1.707031 -15.101562 C 1.753906 -15.148438 1.789062 -15.203125 1.808594 -15.261719 C 1.816406 -15.289062 1.820312 -15.3125 1.820312 -15.328125 L 1.820312 -0.359375 C 1.820312 -0.375 1.816406 -0.394531 1.808594 -0.421875 C 1.789062 -0.484375 1.753906 -0.535156 1.707031 -0.585938 C 1.65625 -0.632812 1.601562 -0.667969 1.542969 -0.6875 C 1.515625 -0.695312 1.496094 -0.699219 1.480469 -0.699219 L 8.605469 -0.699219 C 8.589844 -0.699219 8.566406 -0.695312 8.539062 -0.6875 C 8.480469 -0.667969 8.425781 -0.632812 8.378906 -0.585938 C 8.332031 -0.535156 8.296875 -0.484375 8.277344 -0.421875 C 8.265625 -0.394531 8.261719 -0.375 8.261719 -0.359375 L 8.261719 -2.597656 C 8.261719 -2.582031 8.265625 -2.5625 8.277344 -2.535156 C 8.296875 -2.476562 8.332031 -2.421875 8.378906 -2.371094 C 8.425781 -2.324219 8.480469 -2.289062 8.539062 -2.269531 C 8.566406 -2.261719 8.589844 -2.257812 8.605469 -2.257812 L 3.46875 -2.257812 Z M 4.867188 -2.957031 L 4.167969 -2.957031 L 4.167969 -3.65625 L 8.605469 -3.65625 C 8.917969 -3.65625 9.171875 -3.558594 9.367188 -3.363281 C 9.566406 -3.167969 9.664062 -2.914062 9.664062 -2.597656 L 9.664062 -0.359375 C 9.664062 -0.046875 9.566406 0.210938 9.367188 0.40625 C 9.171875 0.601562 8.917969 0.699219 8.605469 0.699219 L 1.480469 0.699219 C 1.167969 0.699219 0.910156 0.601562 0.714844 0.40625 C 0.519531 0.210938 0.421875 -0.046875 0.421875 -0.359375 L 0.421875 -15.328125 C 0.421875 -15.640625 0.519531 -15.894531 0.714844 -16.089844 C 0.910156 -16.289062 1.167969 -16.386719 1.480469 -16.386719 L 3.808594 -16.386719 C 4.121094 -16.386719 4.375 -16.289062 4.574219 -16.089844 C 4.769531 -15.894531 4.867188 -15.640625 4.867188 -15.328125 Z M 4.867188 -2.957031 "/></g></g><g style="fill:#b21a22;fill-opacity:1;"><g transform="translate(40.961708, 112.044347)"><path style="stroke:none" d="M 1.480469 -0.699219 L 3.808594 -0.699219 C 3.792969 -0.699219 3.773438 -0.695312 3.746094 -0.6875 C 3.683594 -0.667969 3.632812 -0.632812 3.582031 -0.585938 C 3.535156 -0.535156 3.5 -0.484375 3.480469 -0.421875 C 3.472656 -0.394531 3.46875 -0.375 3.46875 -0.359375 L 3.46875 -15.328125 C 3.46875 -15.3125 3.472656 -15.289062 3.480469 -15.261719 C 3.5 -15.203125 3.535156 -15.148438 3.582031 -15.101562 C 3.632812 -15.050781 3.683594 -15.019531 3.746094 -15 C 3.773438 -14.988281 3.792969 -14.984375 3.808594 -14.984375 L 1.480469 -14.984375 C 1.496094 -14.984375 1.515625 -14.988281 1.542969 -15 C 1.601562 -15.019531 1.65625 -15.050781 1.707031 -15.101562 C 1.753906 -15.148438 1.789062 -15.203125 1.808594 -15.261719 C 1.816406 -15.289062 1.820312 -15.3125 1.820312 -15.328125 L 1.820312 -0.359375 C 1.820312 -0.375 1.816406 -0.394531 1.808594 -0.421875 C 1.789062 -0.484375 1.753906 -0.535156 1.707031 -0.585938 C 1.65625 -0.632812 1.601562 -0.667969 1.542969 -0.6875 C 1.515625 -0.695312 1.496094 -0.699219 1.480469 -0.699219 Z M 1.480469 0.699219 C 1.167969 0.699219 0.910156 0.601562 0.714844 0.40625 C 0.519531 0.210938 0.421875 -0.046875 0.421875 -0.359375 L 0.421875 -15.328125 C 0.421875 -15.640625 0.519531 -15.894531 0.714844 -16.089844 C 0.910156 -16.289062 1.167969 -16.386719 1.480469 -16.386719 L 3.808594 -16.386719 C 4.121094 -16.386719 4.375 -16.289062 4.574219 -16.089844 C 4.769531 -15.894531 4.867188 -15.640625 4.867188 -15.328125 L 4.867188 -0.359375 C 4.867188 -0.046875 4.769531 0.210938 4.574219 0.40625 C 4.375 0.601562 4.121094 0.699219 3.808594 0.699219 Z M 1.480469 0.699219 "/></g></g><g style="fill:#b21a22;fill-opacity:1;"><g transform="translate(46.248273, 112.044347)"><path style="stroke:none" d="M 4.347656 -16.386719 L 6.855469 -16.386719 C 8.109375 -16.386719 9.078125 -16.042969 9.761719 -15.363281 C 10.441406 -14.679688 10.785156 -13.710938 10.785156 -12.457031 L 10.785156 -10.980469 C 10.785156 -10.667969 10.6875 -10.414062 10.488281 -10.214844 C 10.292969 -10.019531 10.039062 -9.921875 9.726562 -9.921875 L 7.460938 -9.921875 C 7.148438 -9.921875 6.894531 -10.019531 6.699219 -10.214844 C 6.5 -10.414062 6.402344 -10.667969 6.402344 -10.980469 L 6.402344 -11.921875 C 6.402344 -11.996094 6.394531 -12.050781 6.382812 -12.089844 C 6.378906 -12.097656 6.378906 -12.105469 6.375 -12.105469 C 6.378906 -12.105469 6.378906 -12.101562 6.382812 -12.097656 C 6.386719 -12.09375 6.390625 -12.09375 6.394531 -12.089844 C 6.390625 -12.09375 6.386719 -12.09375 6.378906 -12.097656 C 6.335938 -12.109375 6.28125 -12.117188 6.207031 -12.117188 L 4.972656 -12.117188 C 4.902344 -12.117188 4.84375 -12.109375 4.804688 -12.097656 C 4.796875 -12.09375 4.792969 -12.09375 4.789062 -12.089844 C 4.792969 -12.09375 4.792969 -12.09375 4.796875 -12.097656 C 4.800781 -12.101562 4.804688 -12.105469 4.804688 -12.105469 C 4.804688 -12.105469 4.800781 -12.097656 4.796875 -12.089844 C 4.785156 -12.050781 4.777344 -11.996094 4.777344 -11.921875 L 4.777344 -10.015625 L 4.078125 -10.015625 L 4.292969 -10.683594 L 9.714844 -8.933594 C 10.0625 -8.816406 10.328125 -8.625 10.511719 -8.363281 C 10.691406 -8.105469 10.785156 -7.796875 10.785156 -7.4375 L 10.785156 -3.226562 C 10.785156 -1.988281 10.445312 -1.027344 9.765625 -0.335938 C 9.082031 0.355469 8.113281 0.699219 6.855469 0.699219 L 4.347656 0.699219 C 3.109375 0.699219 2.144531 0.355469 1.453125 -0.332031 C 0.765625 -1.023438 0.421875 -1.988281 0.421875 -3.226562 L 0.421875 -4.683594 C 0.421875 -4.996094 0.519531 -5.25 0.714844 -5.449219 C 0.910156 -5.644531 1.167969 -5.742188 1.480469 -5.742188 L 3.742188 -5.742188 C 4.054688 -5.742188 4.308594 -5.644531 4.507812 -5.449219 C 4.703125 -5.25 4.800781 -4.996094 4.800781 -4.683594 L 4.800781 -3.742188 C 4.800781 -3.667969 4.808594 -3.613281 4.820312 -3.570312 C 4.824219 -3.5625 4.824219 -3.558594 4.828125 -3.554688 C 4.824219 -3.558594 4.824219 -3.5625 4.820312 -3.566406 C 4.816406 -3.566406 4.8125 -3.570312 4.8125 -3.574219 C 4.8125 -3.570312 4.820312 -3.570312 4.828125 -3.566406 C 4.867188 -3.554688 4.921875 -3.546875 4.996094 -3.546875 L 6.207031 -3.546875 C 6.28125 -3.546875 6.335938 -3.554688 6.378906 -3.566406 C 6.386719 -3.570312 6.390625 -3.570312 6.394531 -3.574219 C 6.390625 -3.570312 6.386719 -3.566406 6.382812 -3.566406 C 6.378906 -3.5625 6.378906 -3.558594 6.375 -3.554688 C 6.378906 -3.558594 6.378906 -3.5625 6.382812 -3.570312 C 6.394531 -3.613281 6.402344 -3.667969 6.402344 -3.742188 L 6.402344 -6.003906 L 7.101562 -6.003906 L 6.886719 -5.339844 L 1.507812 -7.085938 C 1.164062 -7.203125 0.894531 -7.390625 0.707031 -7.648438 C 0.515625 -7.910156 0.421875 -8.222656 0.421875 -8.582031 L 0.421875 -12.457031 C 0.421875 -13.714844 0.765625 -14.683594 1.457031 -15.367188 C 2.148438 -16.046875 3.109375 -16.386719 4.347656 -16.386719 Z M 4.347656 -14.984375 C 3.492188 -14.984375 2.859375 -14.78125 2.441406 -14.367188 C 2.027344 -13.960938 1.820312 -13.324219 1.820312 -12.457031 L 1.820312 -8.582031 C 1.820312 -8.523438 1.828125 -8.488281 1.835938 -8.472656 C 1.851562 -8.457031 1.886719 -8.4375 1.941406 -8.417969 L 7.804688 -6.515625 L 7.804688 -3.742188 C 7.804688 -3.25 7.660156 -2.859375 7.375 -2.574219 C 7.089844 -2.289062 6.699219 -2.144531 6.207031 -2.144531 L 4.996094 -2.144531 C 4.503906 -2.144531 4.117188 -2.289062 3.828125 -2.574219 C 3.542969 -2.859375 3.398438 -3.25 3.398438 -3.742188 L 3.398438 -4.683594 C 3.398438 -4.667969 3.40625 -4.644531 3.414062 -4.617188 C 3.433594 -4.558594 3.46875 -4.503906 3.515625 -4.457031 C 3.5625 -4.410156 3.617188 -4.375 3.675781 -4.355469 C 3.703125 -4.347656 3.726562 -4.339844 3.742188 -4.339844 L 1.480469 -4.339844 C 1.496094 -4.339844 1.515625 -4.347656 1.542969 -4.355469 C 1.601562 -4.375 1.65625 -4.410156 1.707031 -4.457031 C 1.753906 -4.503906 1.789062 -4.558594 1.808594 -4.617188 C 1.816406 -4.644531 1.820312 -4.667969 1.820312 -4.683594 L 1.820312 -3.226562 C 1.820312 -2.375 2.027344 -1.742188 2.445312 -1.324219 C 2.859375 -0.910156 3.496094 -0.699219 4.347656 -0.699219 L 6.855469 -0.699219 C 7.722656 -0.699219 8.359375 -0.90625 8.765625 -1.320312 C 9.179688 -1.738281 9.382812 -2.371094 9.382812 -3.226562 L 9.382812 -7.4375 C 9.382812 -7.5 9.378906 -7.539062 9.363281 -7.558594 C 9.355469 -7.574219 9.328125 -7.585938 9.285156 -7.601562 L 3.378906 -9.507812 L 3.378906 -11.921875 C 3.378906 -12.414062 3.519531 -12.800781 3.808594 -13.089844 C 4.09375 -13.375 4.480469 -13.515625 4.972656 -13.515625 L 6.207031 -13.515625 C 6.699219 -13.515625 7.089844 -13.375 7.375 -13.089844 C 7.660156 -12.800781 7.804688 -12.414062 7.804688 -11.921875 L 7.804688 -10.980469 C 7.804688 -10.996094 7.800781 -11.015625 7.789062 -11.042969 C 7.769531 -11.105469 7.734375 -11.15625 7.6875 -11.207031 C 7.640625 -11.253906 7.585938 -11.289062 7.527344 -11.308594 C 7.5 -11.316406 7.476562 -11.320312 7.460938 -11.320312 L 9.726562 -11.320312 C 9.707031 -11.320312 9.6875 -11.316406 9.660156 -11.308594 C 9.601562 -11.289062 9.546875 -11.253906 9.5 -11.207031 C 9.449219 -11.15625 9.417969 -11.105469 9.398438 -11.042969 C 9.386719 -11.015625 9.382812 -10.996094 9.382812 -10.980469 L 9.382812 -12.457031 C 9.382812 -13.324219 9.179688 -13.964844 8.769531 -14.371094 C 8.363281 -14.78125 7.722656 -14.984375 6.855469 -14.984375 Z M 4.347656 -14.984375 "/></g></g><g style="fill:#b21a22;fill-opacity:1;"><g transform="translate(57.448629, 112.044347)"><path style="stroke:none" d="M 9.277344 -14.984375 L 1.03125 -14.984375 C 1.046875 -14.984375 1.066406 -14.988281 1.09375 -15 C 1.15625 -15.019531 1.210938 -15.050781 1.257812 -15.101562 C 1.304688 -15.148438 1.339844 -15.203125 1.359375 -15.261719 C 1.367188 -15.289062 1.371094 -15.3125 1.371094 -15.328125 L 1.371094 -13.085938 C 1.371094 -13.101562 1.367188 -13.125 1.359375 -13.152344 C 1.339844 -13.210938 1.304688 -13.265625 1.257812 -13.3125 C 1.210938 -13.359375 1.15625 -13.394531 1.09375 -13.414062 C 1.066406 -13.421875 1.046875 -13.429688 1.03125 -13.429688 L 4.332031 -13.429688 L 4.332031 -0.359375 C 4.332031 -0.375 4.324219 -0.394531 4.316406 -0.421875 C 4.296875 -0.484375 4.261719 -0.535156 4.214844 -0.585938 C 4.167969 -0.632812 4.113281 -0.667969 4.054688 -0.6875 C 4.027344 -0.695312 4.003906 -0.699219 3.988281 -0.699219 L 6.320312 -0.699219 C 6.304688 -0.699219 6.28125 -0.695312 6.253906 -0.6875 C 6.195312 -0.667969 6.140625 -0.632812 6.09375 -0.585938 C 6.042969 -0.535156 6.011719 -0.484375 5.992188 -0.421875 C 5.980469 -0.394531 5.976562 -0.375 5.976562 -0.359375 L 5.976562 -13.429688 L 9.277344 -13.429688 C 9.261719 -13.429688 9.238281 -13.421875 9.210938 -13.414062 C 9.152344 -13.394531 9.097656 -13.359375 9.050781 -13.3125 C 9.003906 -13.265625 8.96875 -13.210938 8.949219 -13.152344 C 8.941406 -13.125 8.933594 -13.101562 8.933594 -13.085938 L 8.933594 -15.328125 C 8.933594 -15.3125 8.941406 -15.289062 8.949219 -15.261719 C 8.96875 -15.203125 9.003906 -15.148438 9.050781 -15.101562 C 9.097656 -15.050781 9.152344 -15.019531 9.210938 -15 C 9.238281 -14.988281 9.261719 -14.984375 9.277344 -14.984375 Z M 9.277344 -16.386719 C 9.589844 -16.386719 9.84375 -16.289062 10.039062 -16.089844 C 10.238281 -15.894531 10.335938 -15.640625 10.335938 -15.328125 L 10.335938 -13.085938 C 10.335938 -12.773438 10.238281 -12.519531 10.039062 -12.320312 C 9.84375 -12.125 9.589844 -12.027344 9.277344 -12.027344 L 6.675781 -12.027344 L 6.675781 -12.726562 L 7.378906 -12.726562 L 7.378906 -0.359375 C 7.378906 -0.046875 7.28125 0.210938 7.082031 0.40625 C 6.886719 0.601562 6.632812 0.699219 6.320312 0.699219 L 3.988281 0.699219 C 3.675781 0.699219 3.421875 0.601562 3.222656 0.40625 C 3.027344 0.210938 2.929688 -0.046875 2.929688 -0.359375 L 2.929688 -12.726562 L 3.628906 -12.726562 L 3.628906 -12.027344 L 1.03125 -12.027344 C 0.71875 -12.027344 0.464844 -12.125 0.265625 -12.320312 C 0.0703125 -12.519531 -0.0273438 -12.773438 -0.0273438 -13.085938 L -0.0273438 -15.328125 C -0.0273438 -15.640625 0.0703125 -15.894531 0.265625 -16.089844 C 0.464844 -16.289062 0.71875 -16.386719 1.03125 -16.386719 Z M 9.277344 -16.386719 "/></g></g><g style="fill:#b21a22;fill-opacity:1;"><g transform="translate(67.752958, 112.044347)"><path style="stroke:none" d="M 10.761719 -15.328125 L 10.761719 -13.085938 C 10.761719 -12.773438 10.667969 -12.519531 10.480469 -12.320312 C 10.285156 -12.109375 10.023438 -12.003906 9.703125 -12.003906 L 4.167969 -12.003906 L 4.167969 -12.707031 L 4.867188 -12.707031 L 4.867188 -9.253906 L 4.167969 -9.253906 L 4.167969 -9.953125 L 8.378906 -9.953125 C 8.703125 -9.953125 8.960938 -9.847656 9.160156 -9.640625 C 9.347656 -9.441406 9.4375 -9.1875 9.4375 -8.875 L 9.4375 -6.65625 C 9.4375 -6.34375 9.347656 -6.085938 9.160156 -5.890625 C 8.960938 -5.679688 8.703125 -5.574219 8.378906 -5.574219 L 4.167969 -5.574219 L 4.167969 -6.273438 L 4.867188 -6.273438 L 4.867188 -2.957031 L 4.167969 -2.957031 L 4.167969 -3.65625 L 9.703125 -3.65625 C 10.015625 -3.65625 10.269531 -3.558594 10.464844 -3.363281 C 10.664062 -3.167969 10.761719 -2.914062 10.761719 -2.597656 L 10.761719 -0.359375 C 10.761719 -0.046875 10.664062 0.210938 10.464844 0.40625 C 10.269531 0.601562 10.015625 0.699219 9.703125 0.699219 L 1.457031 0.699219 C 1.140625 0.699219 0.886719 0.597656 0.695312 0.390625 C 0.511719 0.195312 0.421875 -0.0546875 0.421875 -0.359375 L 0.421875 -15.328125 C 0.421875 -15.632812 0.511719 -15.878906 0.695312 -16.074219 C 0.886719 -16.28125 1.140625 -16.386719 1.457031 -16.386719 L 9.703125 -16.386719 C 10.015625 -16.386719 10.269531 -16.289062 10.464844 -16.089844 C 10.664062 -15.894531 10.761719 -15.640625 10.761719 -15.328125 Z M 9.359375 -15.328125 C 9.359375 -15.3125 9.367188 -15.289062 9.375 -15.261719 C 9.394531 -15.203125 9.429688 -15.148438 9.476562 -15.101562 C 9.523438 -15.050781 9.578125 -15.019531 9.636719 -15 C 9.664062 -14.988281 9.6875 -14.984375 9.703125 -14.984375 L 1.457031 -14.984375 C 1.546875 -14.984375 1.632812 -15.027344 1.714844 -15.117188 C 1.761719 -15.164062 1.792969 -15.21875 1.808594 -15.273438 C 1.816406 -15.296875 1.820312 -15.316406 1.820312 -15.328125 L 1.820312 -0.359375 C 1.820312 -0.371094 1.816406 -0.386719 1.808594 -0.410156 C 1.792969 -0.46875 1.761719 -0.519531 1.714844 -0.570312 C 1.632812 -0.65625 1.546875 -0.699219 1.457031 -0.699219 L 9.703125 -0.699219 C 9.6875 -0.699219 9.664062 -0.695312 9.636719 -0.6875 C 9.578125 -0.667969 9.523438 -0.632812 9.476562 -0.585938 C 9.429688 -0.535156 9.394531 -0.484375 9.375 -0.421875 C 9.367188 -0.394531 9.359375 -0.375 9.359375 -0.359375 L 9.359375 -2.597656 C 9.359375 -2.582031 9.367188 -2.5625 9.375 -2.535156 C 9.394531 -2.476562 9.429688 -2.421875 9.476562 -2.371094 C 9.523438 -2.324219 9.578125 -2.289062 9.636719 -2.269531 C 9.664062 -2.261719 9.6875 -2.257812 9.703125 -2.257812 L 3.46875 -2.257812 L 3.46875 -6.972656 L 8.378906 -6.972656 C 8.359375 -6.972656 8.335938 -6.96875 8.304688 -6.957031 C 8.242188 -6.9375 8.1875 -6.898438 8.140625 -6.847656 C 8.097656 -6.804688 8.066406 -6.753906 8.046875 -6.699219 C 8.042969 -6.675781 8.039062 -6.664062 8.039062 -6.65625 L 8.039062 -8.875 C 8.039062 -8.867188 8.042969 -8.851562 8.046875 -8.832031 C 8.066406 -8.777344 8.097656 -8.726562 8.140625 -8.679688 C 8.1875 -8.628906 8.242188 -8.59375 8.304688 -8.570312 C 8.335938 -8.558594 8.359375 -8.554688 8.378906 -8.554688 L 3.46875 -8.554688 L 3.46875 -13.40625 L 9.703125 -13.40625 C 9.683594 -13.40625 9.65625 -13.398438 9.625 -13.390625 C 9.5625 -13.367188 9.507812 -13.332031 9.460938 -13.28125 C 9.417969 -13.234375 9.386719 -13.183594 9.371094 -13.128906 C 9.363281 -13.109375 9.359375 -13.09375 9.359375 -13.085938 Z M 9.359375 -15.328125 "/></g></g><g style="fill:#b21a22;fill-opacity:1;"><g transform="translate(78.93091, 112.044347)"><path style="stroke:none" d="M 8.222656 -16.386719 L 10.328125 -16.386719 C 10.644531 -16.386719 10.898438 -16.289062 11.09375 -16.089844 C 11.289062 -15.894531 11.390625 -15.640625 11.390625 -15.328125 L 11.390625 -0.359375 C 11.390625 -0.046875 11.289062 0.210938 11.09375 0.40625 C 10.898438 0.601562 10.644531 0.699219 10.328125 0.699219 L 8.558594 0.699219 C 8.320312 0.699219 8.105469 0.632812 7.914062 0.496094 C 7.746094 0.375 7.617188 0.210938 7.519531 0.00390625 L 8.15625 -0.292969 L 7.527344 0.0195312 L 3.316406 -8.542969 L 3.945312 -8.851562 L 4.644531 -8.851562 L 4.644531 -0.359375 C 4.644531 -0.046875 4.546875 0.210938 4.347656 0.40625 C 4.152344 0.601562 3.898438 0.699219 3.585938 0.699219 L 1.480469 0.699219 C 1.167969 0.699219 0.910156 0.601562 0.714844 0.40625 C 0.519531 0.210938 0.421875 -0.046875 0.421875 -0.359375 L 0.421875 -15.328125 C 0.421875 -15.640625 0.519531 -15.894531 0.714844 -16.089844 C 0.910156 -16.289062 1.167969 -16.386719 1.480469 -16.386719 L 3.25 -16.386719 C 3.488281 -16.386719 3.703125 -16.316406 3.894531 -16.179688 C 4.0625 -16.058594 4.191406 -15.894531 4.289062 -15.6875 L 3.652344 -15.394531 L 4.28125 -15.703125 L 8.492188 -7.144531 L 7.863281 -6.835938 L 7.164062 -6.835938 L 7.164062 -15.328125 C 7.164062 -15.640625 7.261719 -15.894531 7.460938 -16.089844 C 7.65625 -16.289062 7.910156 -16.386719 8.222656 -16.386719 Z M 8.222656 -14.984375 C 8.238281 -14.984375 8.261719 -14.988281 8.289062 -15 C 8.347656 -15.019531 8.402344 -15.050781 8.449219 -15.101562 C 8.496094 -15.148438 8.53125 -15.203125 8.550781 -15.261719 C 8.5625 -15.289062 8.566406 -15.3125 8.566406 -15.328125 L 8.566406 -6.835938 L 7.238281 -6.523438 L 3.019531 -15.09375 L 3.015625 -15.101562 C 3.023438 -15.085938 3.042969 -15.066406 3.074219 -15.042969 C 3.128906 -15.003906 3.1875 -14.984375 3.25 -14.984375 L 1.480469 -14.984375 C 1.496094 -14.984375 1.515625 -14.988281 1.542969 -15 C 1.601562 -15.019531 1.65625 -15.050781 1.707031 -15.101562 C 1.753906 -15.148438 1.789062 -15.203125 1.808594 -15.261719 C 1.816406 -15.289062 1.820312 -15.3125 1.820312 -15.328125 L 1.820312 -0.359375 C 1.820312 -0.375 1.816406 -0.394531 1.808594 -0.421875 C 1.789062 -0.484375 1.753906 -0.535156 1.707031 -0.585938 C 1.65625 -0.632812 1.601562 -0.667969 1.542969 -0.6875 C 1.515625 -0.695312 1.496094 -0.699219 1.480469 -0.699219 L 3.585938 -0.699219 C 3.570312 -0.699219 3.546875 -0.695312 3.519531 -0.6875 C 3.460938 -0.667969 3.40625 -0.632812 3.359375 -0.585938 C 3.3125 -0.535156 3.277344 -0.484375 3.257812 -0.421875 C 3.246094 -0.394531 3.242188 -0.375 3.242188 -0.359375 L 3.242188 -8.851562 L 4.570312 -9.160156 L 8.789062 -0.59375 L 8.792969 -0.585938 C 8.785156 -0.597656 8.765625 -0.617188 8.734375 -0.640625 C 8.679688 -0.679688 8.621094 -0.699219 8.558594 -0.699219 L 10.328125 -0.699219 C 10.3125 -0.699219 10.292969 -0.695312 10.265625 -0.6875 C 10.207031 -0.667969 10.152344 -0.632812 10.105469 -0.585938 C 10.054688 -0.535156 10.023438 -0.484375 10 -0.421875 C 9.992188 -0.394531 9.988281 -0.375 9.988281 -0.359375 L 9.988281 -15.328125 C 9.988281 -15.3125 9.992188 -15.289062 10 -15.261719 C 10.023438 -15.203125 10.054688 -15.148438 10.105469 -15.101562 C 10.152344 -15.050781 10.207031 -15.019531 10.265625 -15 C 10.292969 -14.988281 10.3125 -14.984375 10.328125 -14.984375 Z M 8.222656 -14.984375 "/></g></g><g style="fill:#b21a22;fill-opacity:1;"><g transform="translate(90.73609, 112.044347)"><path style="stroke:none" d="M 10.761719 -15.328125 L 10.761719 -13.085938 C 10.761719 -12.773438 10.667969 -12.519531 10.480469 -12.320312 C 10.285156 -12.109375 10.023438 -12.003906 9.703125 -12.003906 L 4.167969 -12.003906 L 4.167969 -12.707031 L 4.867188 -12.707031 L 4.867188 -9.253906 L 4.167969 -9.253906 L 4.167969 -9.953125 L 8.378906 -9.953125 C 8.703125 -9.953125 8.960938 -9.847656 9.160156 -9.640625 C 9.347656 -9.441406 9.4375 -9.1875 9.4375 -8.875 L 9.4375 -6.65625 C 9.4375 -6.34375 9.347656 -6.085938 9.160156 -5.890625 C 8.960938 -5.679688 8.703125 -5.574219 8.378906 -5.574219 L 4.167969 -5.574219 L 4.167969 -6.273438 L 4.867188 -6.273438 L 4.867188 -2.957031 L 4.167969 -2.957031 L 4.167969 -3.65625 L 9.703125 -3.65625 C 10.015625 -3.65625 10.269531 -3.558594 10.464844 -3.363281 C 10.664062 -3.167969 10.761719 -2.914062 10.761719 -2.597656 L 10.761719 -0.359375 C 10.761719 -0.046875 10.664062 0.210938 10.464844 0.40625 C 10.269531 0.601562 10.015625 0.699219 9.703125 0.699219 L 1.457031 0.699219 C 1.140625 0.699219 0.886719 0.597656 0.695312 0.390625 C 0.511719 0.195312 0.421875 -0.0546875 0.421875 -0.359375 L 0.421875 -15.328125 C 0.421875 -15.632812 0.511719 -15.878906 0.695312 -16.074219 C 0.886719 -16.28125 1.140625 -16.386719 1.457031 -16.386719 L 9.703125 -16.386719 C 10.015625 -16.386719 10.269531 -16.289062 10.464844 -16.089844 C 10.664062 -15.894531 10.761719 -15.640625 10.761719 -15.328125 Z M 9.359375 -15.328125 C 9.359375 -15.3125 9.367188 -15.289062 9.375 -15.261719 C 9.394531 -15.203125 9.429688 -15.148438 9.476562 -15.101562 C 9.523438 -15.050781 9.578125 -15.019531 9.636719 -15 C 9.664062 -14.988281 9.6875 -14.984375 9.703125 -14.984375 L 1.457031 -14.984375 C 1.546875 -14.984375 1.632812 -15.027344 1.714844 -15.117188 C 1.761719 -15.164062 1.792969 -15.21875 1.808594 -15.273438 C 1.816406 -15.296875 1.820312 -15.316406 1.820312 -15.328125 L 1.820312 -0.359375 C 1.820312 -0.371094 1.816406 -0.386719 1.808594 -0.410156 C 1.792969 -0.46875 1.761719 -0.519531 1.714844 -0.570312 C 1.632812 -0.65625 1.546875 -0.699219 1.457031 -0.699219 L 9.703125 -0.699219 C 9.6875 -0.699219 9.664062 -0.695312 9.636719 -0.6875 C 9.578125 -0.667969 9.523438 -0.632812 9.476562 -0.585938 C 9.429688 -0.535156 9.394531 -0.484375 9.375 -0.421875 C 9.367188 -0.394531 9.359375 -0.375 9.359375 -0.359375 L 9.359375 -2.597656 C 9.359375 -2.582031 9.367188 -2.5625 9.375 -2.535156 C 9.394531 -2.476562 9.429688 -2.421875 9.476562 -2.371094 C 9.523438 -2.324219 9.578125 -2.289062 9.636719 -2.269531 C 9.664062 -2.261719 9.6875 -2.257812 9.703125 -2.257812 L 3.46875 -2.257812 L 3.46875 -6.972656 L 8.378906 -6.972656 C 8.359375 -6.972656 8.335938 -6.96875 8.304688 -6.957031 C 8.242188 -6.9375 8.1875 -6.898438 8.140625 -6.847656 C 8.097656 -6.804688 8.066406 -6.753906 8.046875 -6.699219 C 8.042969 -6.675781 8.039062 -6.664062 8.039062 -6.65625 L 8.039062 -8.875 C 8.039062 -8.867188 8.042969 -8.851562 8.046875 -8.832031 C 8.066406 -8.777344 8.097656 -8.726562 8.140625 -8.679688 C 8.1875 -8.628906 8.242188 -8.59375 8.304688 -8.570312 C 8.335938 -8.558594 8.359375 -8.554688 8.378906 -8.554688 L 3.46875 -8.554688 L 3.46875 -13.40625 L 9.703125 -13.40625 C 9.683594 -13.40625 9.65625 -13.398438 9.625 -13.390625 C 9.5625 -13.367188 9.507812 -13.332031 9.460938 -13.28125 C 9.417969 -13.234375 9.386719 -13.183594 9.371094 -13.128906 C 9.363281 -13.109375 9.359375 -13.09375 9.359375 -13.085938 Z M 9.359375 -15.328125 "/></g></g><g style="fill:#b21a22;fill-opacity:1;"><g transform="translate(101.914042, 112.044347)"><path style="stroke:none" d="M 10.785156 -12.457031 L 10.785156 -7.953125 C 10.785156 -6.394531 10.253906 -5.289062 9.199219 -4.628906 L 8.828125 -5.222656 L 9.507812 -5.386719 L 10.675781 -0.566406 L 9.992188 -0.402344 L 10.667969 -0.589844 C 10.769531 -0.230469 10.71875 0.078125 10.523438 0.328125 C 10.332031 0.578125 10.050781 0.699219 9.679688 0.699219 L 7.484375 0.699219 C 7.210938 0.699219 6.980469 0.621094 6.785156 0.460938 C 6.597656 0.304688 6.476562 0.0976562 6.417969 -0.167969 L 7.101562 -0.3125 L 6.421875 -0.148438 L 5.347656 -4.5625 L 6.027344 -4.726562 L 6.027344 -4.027344 L 4.035156 -4.027344 L 4.035156 -4.726562 L 4.734375 -4.726562 L 4.734375 -0.359375 C 4.734375 -0.046875 4.636719 0.210938 4.4375 0.40625 C 4.242188 0.601562 3.988281 0.699219 3.675781 0.699219 L 1.480469 0.699219 C 1.167969 0.699219 0.910156 0.601562 0.714844 0.40625 C 0.519531 0.210938 0.421875 -0.046875 0.421875 -0.359375 L 0.421875 -15.328125 C 0.421875 -15.640625 0.519531 -15.894531 0.714844 -16.089844 C 0.910156 -16.289062 1.167969 -16.386719 1.480469 -16.386719 L 6.855469 -16.386719 C 8.109375 -16.386719 9.078125 -16.042969 9.761719 -15.363281 C 10.441406 -14.679688 10.785156 -13.710938 10.785156 -12.457031 Z M 9.382812 -12.457031 C 9.382812 -13.324219 9.179688 -13.964844 8.769531 -14.371094 C 8.363281 -14.78125 7.722656 -14.984375 6.855469 -14.984375 L 1.480469 -14.984375 C 1.496094 -14.984375 1.515625 -14.988281 1.542969 -15 C 1.601562 -15.019531 1.65625 -15.050781 1.707031 -15.101562 C 1.753906 -15.148438 1.789062 -15.203125 1.808594 -15.261719 C 1.816406 -15.289062 1.820312 -15.3125 1.820312 -15.328125 L 1.820312 -0.359375 C 1.820312 -0.375 1.816406 -0.394531 1.808594 -0.421875 C 1.789062 -0.484375 1.753906 -0.535156 1.707031 -0.585938 C 1.65625 -0.632812 1.601562 -0.667969 1.542969 -0.6875 C 1.515625 -0.695312 1.496094 -0.699219 1.480469 -0.699219 L 3.675781 -0.699219 C 3.660156 -0.699219 3.636719 -0.695312 3.609375 -0.6875 C 3.550781 -0.667969 3.496094 -0.632812 3.449219 -0.585938 C 3.402344 -0.535156 3.367188 -0.484375 3.347656 -0.421875 C 3.335938 -0.394531 3.332031 -0.375 3.332031 -0.359375 L 3.332031 -5.429688 L 6.578125 -5.429688 L 7.785156 -0.46875 L 7.789062 -0.460938 C 7.777344 -0.515625 7.738281 -0.566406 7.675781 -0.617188 C 7.613281 -0.671875 7.546875 -0.699219 7.484375 -0.699219 L 9.679688 -0.699219 C 9.664062 -0.699219 9.648438 -0.695312 9.628906 -0.6875 C 9.546875 -0.660156 9.476562 -0.605469 9.417969 -0.53125 C 9.359375 -0.453125 9.324219 -0.367188 9.316406 -0.277344 C 9.316406 -0.246094 9.316406 -0.226562 9.320312 -0.214844 L 9.316406 -0.226562 L 8.027344 -5.546875 L 8.457031 -5.816406 C 9.074219 -6.199219 9.382812 -6.914062 9.382812 -7.953125 Z M 4.035156 -8.320312 L 6.273438 -8.320312 C 6.347656 -8.320312 6.40625 -8.324219 6.445312 -8.339844 C 6.453125 -8.339844 6.457031 -8.34375 6.460938 -8.34375 C 6.457031 -8.34375 6.453125 -8.339844 6.453125 -8.339844 C 6.449219 -8.335938 6.445312 -8.332031 6.445312 -8.328125 C 6.445312 -8.332031 6.449219 -8.335938 6.449219 -8.34375 C 6.464844 -8.382812 6.46875 -8.441406 6.46875 -8.515625 L 6.46875 -11.898438 C 6.46875 -11.972656 6.464844 -12.027344 6.449219 -12.070312 C 6.449219 -12.078125 6.445312 -12.082031 6.445312 -12.085938 C 6.445312 -12.082031 6.449219 -12.078125 6.453125 -12.074219 C 6.453125 -12.074219 6.457031 -12.070312 6.460938 -12.066406 C 6.457031 -12.070312 6.453125 -12.070312 6.445312 -12.074219 C 6.40625 -12.085938 6.347656 -12.09375 6.273438 -12.09375 L 4.035156 -12.09375 L 4.035156 -12.792969 L 4.734375 -12.792969 L 4.734375 -7.617188 L 4.035156 -7.617188 Z M 3.332031 -6.917969 L 3.332031 -13.496094 L 6.273438 -13.496094 C 6.765625 -13.496094 7.15625 -13.351562 7.441406 -13.066406 C 7.726562 -12.78125 7.871094 -12.390625 7.871094 -11.898438 L 7.871094 -8.515625 C 7.871094 -8.023438 7.726562 -7.632812 7.441406 -7.347656 C 7.15625 -7.0625 6.765625 -6.917969 6.273438 -6.917969 Z M 3.332031 -6.917969 "/></g></g><g style="fill:#060705;fill-opacity:1;"><g transform="translate(22.893818, 49.5638)"><path style="stroke:none" d="M 10.109375 -12.453125 L 10.109375 -10.03125 C 10.109375 -9.789062 9.988281 -9.671875 9.75 -9.671875 L 7.640625 -9.671875 C 7.398438 -9.671875 7.28125 -9.789062 7.28125 -10.03125 L 7.28125 -11.875 C 7.28125 -12.46875 6.984375 -12.765625 6.390625 -12.765625 L 4.953125 -12.765625 C 4.359375 -12.765625 4.0625 -12.46875 4.0625 -11.875 L 4.0625 -3.734375 C 4.0625 -3.140625 4.359375 -2.84375 4.953125 -2.84375 L 6.390625 -2.84375 C 6.984375 -2.84375 7.28125 -3.140625 7.28125 -3.734375 L 7.28125 -5.640625 C 7.28125 -5.878906 7.398438 -6 7.640625 -6 L 9.75 -6 C 9.988281 -6 10.109375 -5.878906 10.109375 -5.640625 L 10.109375 -3.21875 C 10.109375 -2.175781 9.832031 -1.378906 9.28125 -0.828125 C 8.726562 -0.273438 7.925781 0 6.875 0 L 4.375 0 C 3.320312 0 2.515625 -0.273438 1.953125 -0.828125 C 1.398438 -1.378906 1.125 -2.175781 1.125 -3.21875 L 1.125 -12.453125 C 1.125 -13.515625 1.398438 -14.316406 1.953125 -14.859375 C 2.515625 -15.410156 3.320312 -15.6875 4.375 -15.6875 L 6.875 -15.6875 C 7.925781 -15.6875 8.726562 -15.410156 9.28125 -14.859375 C 9.832031 -14.316406 10.109375 -13.515625 10.109375 -12.453125 Z M 10.109375 -12.453125 "/></g></g><g style="fill:#060705;fill-opacity:1;"><g transform="translate(34.116579, 49.5638)"><path style="stroke:none" d="M 10.0625 -15.328125 L 10.0625 -13.078125 C 10.0625 -12.828125 9.941406 -12.703125 9.703125 -12.703125 L 4.171875 -12.703125 L 4.171875 -9.25 L 8.375 -9.25 C 8.613281 -9.25 8.734375 -9.125 8.734375 -8.875 L 8.734375 -6.65625 C 8.734375 -6.40625 8.613281 -6.28125 8.375 -6.28125 L 4.171875 -6.28125 L 4.171875 -2.953125 L 9.703125 -2.953125 C 9.941406 -2.953125 10.0625 -2.832031 10.0625 -2.59375 L 10.0625 -0.359375 C 10.0625 -0.117188 9.941406 0 9.703125 0 L 1.453125 0 C 1.234375 0 1.125 -0.117188 1.125 -0.359375 L 1.125 -15.328125 C 1.125 -15.566406 1.234375 -15.6875 1.453125 -15.6875 L 9.703125 -15.6875 C 9.941406 -15.6875 10.0625 -15.566406 10.0625 -15.328125 Z M 10.0625 -15.328125 "/></g></g><g style="fill:#060705;fill-opacity:1;"><g transform="translate(45.294531, 49.5638)"><path style="stroke:none" d="M 4.171875 -2.953125 L 4.171875 -15.328125 C 4.171875 -15.566406 4.050781 -15.6875 3.8125 -15.6875 L 1.484375 -15.6875 C 1.242188 -15.6875 1.125 -15.566406 1.125 -15.328125 L 1.125 -0.359375 C 1.125 -0.117188 1.242188 0 1.484375 0 L 8.609375 0 C 8.847656 0 8.96875 -0.117188 8.96875 -0.359375 L 8.96875 -2.59375 C 8.96875 -2.832031 8.847656 -2.953125 8.609375 -2.953125 Z M 4.171875 -2.953125 "/></g></g><g style="fill:#060705;fill-opacity:1;"><g transform="translate(55.374851, 49.5638)"><path style="stroke:none" d="M 4.171875 -2.953125 L 4.171875 -15.328125 C 4.171875 -15.566406 4.050781 -15.6875 3.8125 -15.6875 L 1.484375 -15.6875 C 1.242188 -15.6875 1.125 -15.566406 1.125 -15.328125 L 1.125 -0.359375 C 1.125 -0.117188 1.242188 0 1.484375 0 L 8.609375 0 C 8.847656 0 8.96875 -0.117188 8.96875 -0.359375 L 8.96875 -2.59375 C 8.96875 -2.832031 8.847656 -2.953125 8.609375 -2.953125 Z M 4.171875 -2.953125 "/></g></g><g style="fill:#060705;fill-opacity:1;"><g transform="translate(65.455171, 49.5638)"><path style="stroke:none" d="M 7.578125 -15.6875 L 9.640625 -15.6875 C 9.753906 -15.6875 9.851562 -15.640625 9.9375 -15.546875 C 10.03125 -15.460938 10.078125 -15.359375 10.078125 -15.234375 L 10.078125 -3.21875 C 10.078125 -2.175781 9.804688 -1.378906 9.265625 -0.828125 C 8.722656 -0.273438 7.921875 0 6.859375 0 L 4.34375 0 C 3.300781 0 2.503906 -0.273438 1.953125 -0.828125 C 1.398438 -1.378906 1.125 -2.175781 1.125 -3.21875 L 1.125 -15.234375 C 1.125 -15.359375 1.164062 -15.460938 1.25 -15.546875 C 1.34375 -15.640625 1.445312 -15.6875 1.5625 -15.6875 L 3.71875 -15.6875 C 3.84375 -15.6875 3.945312 -15.640625 4.03125 -15.546875 C 4.125 -15.460938 4.171875 -15.359375 4.171875 -15.234375 L 4.171875 -3.859375 C 4.171875 -3.253906 4.46875 -2.953125 5.0625 -2.953125 L 6.234375 -2.953125 C 6.828125 -2.953125 7.125 -3.253906 7.125 -3.859375 L 7.125 -15.234375 C 7.125 -15.359375 7.164062 -15.460938 7.25 -15.546875 C 7.34375 -15.640625 7.453125 -15.6875 7.578125 -15.6875 Z M 7.578125 -15.6875 "/></g></g><g style="fill:#060705;fill-opacity:1;"><g transform="translate(76.655527, 49.5638)"><path style="stroke:none" d="M 4.171875 -2.953125 L 4.171875 -15.328125 C 4.171875 -15.566406 4.050781 -15.6875 3.8125 -15.6875 L 1.484375 -15.6875 C 1.242188 -15.6875 1.125 -15.566406 1.125 -15.328125 L 1.125 -0.359375 C 1.125 -0.117188 1.242188 0 1.484375 0 L 8.609375 0 C 8.847656 0 8.96875 -0.117188 8.96875 -0.359375 L 8.96875 -2.59375 C 8.96875 -2.832031 8.847656 -2.953125 8.609375 -2.953125 Z M 4.171875 -2.953125 "/></g></g><g style="fill:#060705;fill-opacity:1;"><g transform="translate(86.735847, 49.5638)"><path style="stroke:none" d="M 1.125 -3.21875 L 1.125 -12.453125 C 1.125 -13.515625 1.398438 -14.316406 1.953125 -14.859375 C 2.503906 -15.410156 3.300781 -15.6875 4.34375 -15.6875 L 6.859375 -15.6875 C 7.921875 -15.6875 8.722656 -15.410156 9.265625 -14.859375 C 9.804688 -14.316406 10.078125 -13.515625 10.078125 -12.453125 L 10.078125 -3.21875 C 10.078125 -2.175781 9.804688 -1.378906 9.265625 -0.828125 C 8.722656 -0.273438 7.921875 0 6.859375 0 L 4.34375 0 C 3.300781 0 2.503906 -0.273438 1.953125 -0.828125 C 1.398438 -1.378906 1.125 -2.175781 1.125 -3.21875 Z M 4.921875 -2.890625 L 6.359375 -2.890625 C 6.960938 -2.890625 7.265625 -3.1875 7.265625 -3.78125 L 7.265625 -11.890625 C 7.265625 -12.492188 6.960938 -12.796875 6.359375 -12.796875 L 4.921875 -12.796875 C 4.328125 -12.796875 4.03125 -12.492188 4.03125 -11.890625 L 4.03125 -3.78125 C 4.03125 -3.1875 4.328125 -2.890625 4.921875 -2.890625 Z M 4.921875 -2.890625 "/></g></g><g style="fill:#060705;fill-opacity:1;"><g transform="translate(97.936204, 49.5638)"><path style="stroke:none" d="M 1.484375 0 L 3.8125 0 C 4.050781 0 4.171875 -0.117188 4.171875 -0.359375 L 4.171875 -15.328125 C 4.171875 -15.566406 4.050781 -15.6875 3.8125 -15.6875 L 1.484375 -15.6875 C 1.242188 -15.6875 1.125 -15.566406 1.125 -15.328125 L 1.125 -0.359375 C 1.125 -0.117188 1.242188 0 1.484375 0 Z M 1.484375 0 "/></g></g><g style="fill:#060705;fill-opacity:1;"><g transform="translate(103.222769, 49.5638)"><path style="stroke:none" d="M 1.125 -0.359375 L 1.125 -15.328125 C 1.125 -15.566406 1.242188 -15.6875 1.484375 -15.6875 L 6.859375 -15.6875 C 7.921875 -15.6875 8.722656 -15.410156 9.265625 -14.859375 C 9.804688 -14.304688 10.078125 -13.5 10.078125 -12.4375 L 10.078125 -3.21875 C 10.078125 -2.175781 9.804688 -1.378906 9.265625 -0.828125 C 8.722656 -0.273438 7.921875 0 6.859375 0 L 1.484375 0 C 1.242188 0 1.125 -0.117188 1.125 -0.359375 Z M 4.171875 -2.953125 L 6.234375 -2.953125 C 6.828125 -2.953125 7.125 -3.253906 7.125 -3.859375 L 7.125 -11.8125 C 7.125 -12.425781 6.828125 -12.734375 6.234375 -12.734375 L 4.171875 -12.734375 Z M 4.171875 -2.953125 "/></g></g><g style="fill:#060705;fill-opacity:1;"><g transform="translate(114.423125, 49.5638)"><path style="stroke:none" d="M 1.125 -7.03125 L 1.125 -9.09375 C 1.125 -9.394531 1.269531 -9.546875 1.5625 -9.546875 L 5.109375 -9.546875 C 5.410156 -9.546875 5.5625 -9.394531 5.5625 -9.09375 L 5.5625 -7.03125 C 5.5625 -6.738281 5.410156 -6.59375 5.109375 -6.59375 L 1.5625 -6.59375 C 1.269531 -6.59375 1.125 -6.738281 1.125 -7.03125 Z M 1.125 -7.03125 "/></g></g><g style="fill:#060705;fill-opacity:1;"><g transform="translate(45.880269, 80.804073)"><path style="stroke:none" d="M 1.484375 0 L 3.8125 0 C 4.050781 0 4.171875 -0.117188 4.171875 -0.359375 L 4.171875 -15.328125 C 4.171875 -15.566406 4.050781 -15.6875 3.8125 -15.6875 L 1.484375 -15.6875 C 1.242188 -15.6875 1.125 -15.566406 1.125 -15.328125 L 1.125 -0.359375 C 1.125 -0.117188 1.242188 0 1.484375 0 Z M 1.484375 0 "/></g></g><g style="fill:#060705;fill-opacity:1;"><g transform="translate(51.166834, 80.804073)"><path style="stroke:none" d="M 1.125 -3.21875 L 1.125 -12.453125 C 1.125 -13.515625 1.398438 -14.316406 1.953125 -14.859375 C 2.503906 -15.410156 3.300781 -15.6875 4.34375 -15.6875 L 6.859375 -15.6875 C 7.921875 -15.6875 8.722656 -15.410156 9.265625 -14.859375 C 9.804688 -14.316406 10.078125 -13.515625 10.078125 -12.453125 L 10.078125 -3.21875 C 10.078125 -2.175781 9.804688 -1.378906 9.265625 -0.828125 C 8.722656 -0.273438 7.921875 0 6.859375 0 L 4.34375 0 C 3.300781 0 2.503906 -0.273438 1.953125 -0.828125 C 1.398438 -1.378906 1.125 -2.175781 1.125 -3.21875 Z M 4.921875 -2.890625 L 6.359375 -2.890625 C 6.960938 -2.890625 7.265625 -3.1875 7.265625 -3.78125 L 7.265625 -11.890625 C 7.265625 -12.492188 6.960938 -12.796875 6.359375 -12.796875 L 4.921875 -12.796875 C 4.328125 -12.796875 4.03125 -12.492188 4.03125 -11.890625 L 4.03125 -3.78125 C 4.03125 -3.1875 4.328125 -2.890625 4.921875 -2.890625 Z M 4.921875 -2.890625 "/></g></g><g style="fill:#060705;fill-opacity:1;"><g transform="translate(62.36719, 80.804073)"><path style="stroke:none" d="M 1.125 -7.03125 L 1.125 -9.09375 C 1.125 -9.394531 1.269531 -9.546875 1.5625 -9.546875 L 5.109375 -9.546875 C 5.410156 -9.546875 5.5625 -9.394531 5.5625 -9.09375 L 5.5625 -7.03125 C 5.5625 -6.738281 5.410156 -6.59375 5.109375 -6.59375 L 1.5625 -6.59375 C 1.269531 -6.59375 1.125 -6.738281 1.125 -7.03125 Z M 1.125 -7.03125 "/></g></g><g style="fill:#060705;fill-opacity:1;"><g transform="translate(69.042601, 80.804073)"><path style="stroke:none" d="M 1.125 -0.359375 L 1.125 -15.328125 C 1.125 -15.566406 1.242188 -15.6875 1.484375 -15.6875 L 6.859375 -15.6875 C 7.921875 -15.6875 8.722656 -15.410156 9.265625 -14.859375 C 9.804688 -14.316406 10.078125 -13.515625 10.078125 -12.453125 L 10.078125 -8.0625 C 10.078125 -7.019531 9.804688 -6.222656 9.265625 -5.671875 C 8.722656 -5.128906 7.921875 -4.851562 6.859375 -4.84375 L 4.03125 -4.8125 L 4.03125 -0.34375 C 4.03125 -0.101562 3.910156 0.015625 3.671875 0.015625 L 1.484375 0 C 1.242188 0 1.125 -0.117188 1.125 -0.359375 Z M 4.03125 -7.703125 L 6.28125 -7.734375 C 6.875 -7.734375 7.171875 -8.03125 7.171875 -8.625 L 7.171875 -11.890625 C 7.171875 -12.492188 6.875 -12.796875 6.28125 -12.796875 L 4.03125 -12.765625 Z M 4.03125 -7.703125 "/></g></g><g style="fill:#060705;fill-opacity:1;"><g transform="translate(80.242957, 80.804073)"><path style="stroke:none" d="M 1.125 -3.21875 L 1.125 -12.453125 C 1.125 -13.515625 1.398438 -14.316406 1.953125 -14.859375 C 2.503906 -15.410156 3.300781 -15.6875 4.34375 -15.6875 L 6.859375 -15.6875 C 7.898438 -15.6875 8.695312 -15.410156 9.25 -14.859375 C 9.800781 -14.316406 10.078125 -13.515625 10.078125 -12.453125 L 10.078125 -10.796875 C 10.078125 -10.554688 9.957031 -10.4375 9.71875 -10.4375 L 7.625 -10.4375 C 7.382812 -10.4375 7.265625 -10.554688 7.265625 -10.796875 L 7.265625 -11.890625 C 7.265625 -12.492188 6.960938 -12.796875 6.359375 -12.796875 L 4.921875 -12.796875 C 4.328125 -12.796875 4.03125 -12.492188 4.03125 -11.890625 L 4.03125 -3.78125 C 4.03125 -3.1875 4.328125 -2.890625 4.921875 -2.890625 L 6.359375 -2.890625 C 6.960938 -2.890625 7.265625 -3.1875 7.265625 -3.78125 L 7.265625 -5.734375 L 6.09375 -5.734375 C 5.851562 -5.734375 5.734375 -5.851562 5.734375 -6.09375 L 5.734375 -8.328125 C 5.734375 -8.566406 5.851562 -8.6875 6.09375 -8.6875 L 9.71875 -8.6875 C 9.957031 -8.6875 10.078125 -8.566406 10.078125 -8.328125 L 10.078125 -3.21875 C 10.078125 -2.175781 9.800781 -1.378906 9.25 -0.828125 C 8.695312 -0.273438 7.898438 0 6.859375 0 L 4.34375 0 C 3.300781 0 2.503906 -0.273438 1.953125 -0.828125 C 1.398438 -1.378906 1.125 -2.175781 1.125 -3.21875 Z M 1.125 -3.21875 "/></g></g><g style="fill:#060705;fill-opacity:1;"><g transform="translate(91.443314, 80.804073)"><path style="stroke:none" d="M 1.125 -7.03125 L 1.125 -9.09375 C 1.125 -9.394531 1.269531 -9.546875 1.5625 -9.546875 L 5.109375 -9.546875 C 5.410156 -9.546875 5.5625 -9.394531 5.5625 -9.09375 L 5.5625 -7.03125 C 5.5625 -6.738281 5.410156 -6.59375 5.109375 -6.59375 L 1.5625 -6.59375 C 1.269531 -6.59375 1.125 -6.738281 1.125 -7.03125 Z M 1.125 -7.03125 "/></g></g><g style="fill:#060705;fill-opacity:1;"><g transform="translate(30.881388, 112.044347)"><path style="stroke:none" d="M 4.171875 -2.953125 L 4.171875 -15.328125 C 4.171875 -15.566406 4.050781 -15.6875 3.8125 -15.6875 L 1.484375 -15.6875 C 1.242188 -15.6875 1.125 -15.566406 1.125 -15.328125 L 1.125 -0.359375 C 1.125 -0.117188 1.242188 0 1.484375 0 L 8.609375 0 C 8.847656 0 8.96875 -0.117188 8.96875 -0.359375 L 8.96875 -2.59375 C 8.96875 -2.832031 8.847656 -2.953125 8.609375 -2.953125 Z M 4.171875 -2.953125 "/></g></g><g style="fill:#060705;fill-opacity:1;"><g transform="translate(40.961708, 112.044347)"><path style="stroke:none" d="M 1.484375 0 L 3.8125 0 C 4.050781 0 4.171875 -0.117188 4.171875 -0.359375 L 4.171875 -15.328125 C 4.171875 -15.566406 4.050781 -15.6875 3.8125 -15.6875 L 1.484375 -15.6875 C 1.242188 -15.6875 1.125 -15.566406 1.125 -15.328125 L 1.125 -0.359375 C 1.125 -0.117188 1.242188 0 1.484375 0 Z M 1.484375 0 "/></g></g><g style="fill:#060705;fill-opacity:1;"><g transform="translate(46.248273, 112.044347)"><path style="stroke:none" d="M 4.34375 -15.6875 L 6.859375 -15.6875 C 7.921875 -15.6875 8.722656 -15.410156 9.265625 -14.859375 C 9.804688 -14.316406 10.078125 -13.515625 10.078125 -12.453125 L 10.078125 -10.984375 C 10.078125 -10.742188 9.957031 -10.625 9.71875 -10.625 L 7.46875 -10.625 C 7.226562 -10.625 7.109375 -10.742188 7.109375 -10.984375 L 7.109375 -11.921875 C 7.109375 -12.515625 6.804688 -12.8125 6.203125 -12.8125 L 4.96875 -12.8125 C 4.375 -12.8125 4.078125 -12.515625 4.078125 -11.921875 L 4.078125 -10.015625 L 9.5 -8.265625 C 9.882812 -8.128906 10.078125 -7.851562 10.078125 -7.4375 L 10.078125 -3.21875 C 10.078125 -2.175781 9.804688 -1.378906 9.265625 -0.828125 C 8.722656 -0.273438 7.921875 0 6.859375 0 L 4.34375 0 C 3.300781 0 2.503906 -0.273438 1.953125 -0.828125 C 1.398438 -1.378906 1.125 -2.175781 1.125 -3.21875 L 1.125 -4.6875 C 1.125 -4.925781 1.242188 -5.046875 1.484375 -5.046875 L 3.734375 -5.046875 C 3.972656 -5.046875 4.09375 -4.925781 4.09375 -4.6875 L 4.09375 -3.734375 C 4.09375 -3.140625 4.394531 -2.84375 5 -2.84375 L 6.203125 -2.84375 C 6.804688 -2.84375 7.109375 -3.140625 7.109375 -3.734375 L 7.109375 -6 L 1.71875 -7.75 C 1.320312 -7.882812 1.125 -8.160156 1.125 -8.578125 L 1.125 -12.453125 C 1.125 -13.515625 1.398438 -14.316406 1.953125 -14.859375 C 2.503906 -15.410156 3.300781 -15.6875 4.34375 -15.6875 Z M 4.34375 -15.6875 "/></g></g><g style="fill:#060705;fill-opacity:1;"><g transform="translate(57.448629, 112.044347)"><path style="stroke:none" d="M 9.28125 -15.6875 L 1.03125 -15.6875 C 0.789062 -15.6875 0.671875 -15.566406 0.671875 -15.328125 L 0.671875 -13.078125 C 0.671875 -12.847656 0.789062 -12.734375 1.03125 -12.734375 L 3.625 -12.734375 L 3.625 -0.359375 C 3.625 -0.117188 3.742188 0 3.984375 0 L 6.3125 0 C 6.550781 0 6.671875 -0.117188 6.671875 -0.359375 L 6.671875 -12.734375 L 9.28125 -12.734375 C 9.519531 -12.734375 9.640625 -12.847656 9.640625 -13.078125 L 9.640625 -15.328125 C 9.640625 -15.566406 9.519531 -15.6875 9.28125 -15.6875 Z M 9.28125 -15.6875 "/></g></g><g style="fill:#060705;fill-opacity:1;"><g transform="translate(67.752958, 112.044347)"><path style="stroke:none" d="M 10.0625 -15.328125 L 10.0625 -13.078125 C 10.0625 -12.828125 9.941406 -12.703125 9.703125 -12.703125 L 4.171875 -12.703125 L 4.171875 -9.25 L 8.375 -9.25 C 8.613281 -9.25 8.734375 -9.125 8.734375 -8.875 L 8.734375 -6.65625 C 8.734375 -6.40625 8.613281 -6.28125 8.375 -6.28125 L 4.171875 -6.28125 L 4.171875 -2.953125 L 9.703125 -2.953125 C 9.941406 -2.953125 10.0625 -2.832031 10.0625 -2.59375 L 10.0625 -0.359375 C 10.0625 -0.117188 9.941406 0 9.703125 0 L 1.453125 0 C 1.234375 0 1.125 -0.117188 1.125 -0.359375 L 1.125 -15.328125 C 1.125 -15.566406 1.234375 -15.6875 1.453125 -15.6875 L 9.703125 -15.6875 C 9.941406 -15.6875 10.0625 -15.566406 10.0625 -15.328125 Z M 10.0625 -15.328125 "/></g></g><g style="fill:#060705;fill-opacity:1;"><g transform="translate(78.93091, 112.044347)"><path style="stroke:none" d="M 8.21875 -15.6875 L 10.328125 -15.6875 C 10.566406 -15.6875 10.6875 -15.566406 10.6875 -15.328125 L 10.6875 -0.359375 C 10.6875 -0.117188 10.566406 0 10.328125 0 L 8.5625 0 C 8.382812 0 8.25 -0.0976562 8.15625 -0.296875 L 3.9375 -8.84375 L 3.9375 -0.359375 C 3.9375 -0.117188 3.816406 0 3.578125 0 L 1.484375 0 C 1.242188 0 1.125 -0.117188 1.125 -0.359375 L 1.125 -15.328125 C 1.125 -15.566406 1.242188 -15.6875 1.484375 -15.6875 L 3.25 -15.6875 C 3.425781 -15.6875 3.5625 -15.585938 3.65625 -15.390625 L 7.859375 -6.828125 L 7.859375 -15.328125 C 7.859375 -15.566406 7.976562 -15.6875 8.21875 -15.6875 Z M 8.21875 -15.6875 "/></g></g><g style="fill:#060705;fill-opacity:1;"><g transform="translate(90.73609, 112.044347)"><path style="stroke:none" d="M 10.0625 -15.328125 L 10.0625 -13.078125 C 10.0625 -12.828125 9.941406 -12.703125 9.703125 -12.703125 L 4.171875 -12.703125 L 4.171875 -9.25 L 8.375 -9.25 C 8.613281 -9.25 8.734375 -9.125 8.734375 -8.875 L 8.734375 -6.65625 C 8.734375 -6.40625 8.613281 -6.28125 8.375 -6.28125 L 4.171875 -6.28125 L 4.171875 -2.953125 L 9.703125 -2.953125 C 9.941406 -2.953125 10.0625 -2.832031 10.0625 -2.59375 L 10.0625 -0.359375 C 10.0625 -0.117188 9.941406 0 9.703125 0 L 1.453125 0 C 1.234375 0 1.125 -0.117188 1.125 -0.359375 L 1.125 -15.328125 C 1.125 -15.566406 1.234375 -15.6875 1.453125 -15.6875 L 9.703125 -15.6875 C 9.941406 -15.6875 10.0625 -15.566406 10.0625 -15.328125 Z M 10.0625 -15.328125 "/></g></g><g style="fill:#060705;fill-opacity:1;"><g transform="translate(101.914042, 112.044347)"><path style="stroke:none" d="M 10.078125 -12.453125 L 10.078125 -7.953125 C 10.078125 -6.648438 9.660156 -5.738281 8.828125 -5.21875 L 10 -0.40625 C 10.070312 -0.132812 9.960938 0 9.671875 0 L 7.484375 0 C 7.273438 0 7.148438 -0.101562 7.109375 -0.3125 L 6.03125 -4.734375 L 4.03125 -4.734375 L 4.03125 -0.359375 C 4.03125 -0.117188 3.910156 0 3.671875 0 L 1.484375 0 C 1.242188 0 1.125 -0.117188 1.125 -0.359375 L 1.125 -15.328125 C 1.125 -15.566406 1.242188 -15.6875 1.484375 -15.6875 L 6.859375 -15.6875 C 7.921875 -15.6875 8.722656 -15.410156 9.265625 -14.859375 C 9.804688 -14.316406 10.078125 -13.515625 10.078125 -12.453125 Z M 4.03125 -7.625 L 6.28125 -7.625 C 6.875 -7.625 7.171875 -7.921875 7.171875 -8.515625 L 7.171875 -11.890625 C 7.171875 -12.492188 6.875 -12.796875 6.28125 -12.796875 L 4.03125 -12.796875 Z M 4.03125 -7.625 "/></g></g></g></svg>