<svg xmlns="http://www.w3.org/2000/svg" xmlns:xlink="http://www.w3.org/1999/xlink" width="500" zoomAndPan="magnify" viewBox="0 0 375 374.999991" height="500" preserveAspectRatio="xMidYMid meet" version="1.2"><defs><clipPath id="98cdee818b"><path d="M 25 0 L 350 0 L 350 375 L 25 375 Z M 25 0 "/></clipPath><clipPath id="5ed1151751"><path d="M -55.878906 142.882812 L 268.328125 -46.476562 L 431 232.042969 L 106.789062 421.402344 Z M -55.878906 142.882812 "/></clipPath><clipPath id="204cb318d8"><path d="M 349.546875 92.851562 L 349.859375 279.433594 L 187.8125 374.078125 L 25.453125 282.140625 L 25.140625 95.5625 L 187.1875 0.917969 Z M 349.546875 92.851562 "/></clipPath><clipPath id="372d2d5210"><path d="M 55.238281 35.632812 L 319.726562 35.632812 L 319.726562 339 L 55.238281 339 Z M 55.238281 35.632812 "/></clipPath></defs><g id="d5650b41c1"><g clip-rule="nonzero" clip-path="url(#98cdee818b)"><g clip-rule="nonzero" clip-path="url(#5ed1151751)"><g clip-rule="nonzero" clip-path="url(#204cb318d8)"><path style=" stroke:none;fill-rule:nonzero;fill:#65b30e;fill-opacity:1;" d="M -55.878906 142.882812 L 268.332031 -46.476562 L 431 232.042969 L 106.789062 421.402344 Z M -55.878906 142.882812 "/></g></g></g><path style=" stroke:none;fill-rule:nonzero;fill:#87ff00;fill-opacity:1;" d="M 134.582031 135.703125 L 134.414062 135.535156 L 97.035156 172.914062 L 187.792969 263.503906 L 225.175781 226.296875 L 278.546875 172.914062 L 241.167969 135.535156 L 241.167969 135.363281 L 134.417969 135.363281 Z M 134.582031 135.703125 "/><g clip-rule="nonzero" clip-path="url(#372d2d5210)"><path style=" stroke:none;fill-rule:nonzero;fill:#87ff00;fill-opacity:1;" d="M 187.453125 35.851562 L 55.269531 111.625 L 55.273438 263.175781 L 187.457031 338.949219 L 319.640625 263.175781 L 319.640625 111.625 L 187.457031 35.855469 Z M 294.375 248.683594 L 187.453125 310.308594 L 80.527344 248.683594 L 80.53125 125.765625 L 187.457031 64.136719 L 294.378906 125.765625 L 294.378906 248.683594 Z M 294.375 248.683594 "/></g><g style="fill:#b21a22;fill-opacity:1;"><g transform="translate(112.523581, 113.065397)"><path style="stroke:none" d="M 35.777344 -50.847656 L 35.777344 -43.414062 C 35.777344 -42.375 35.449219 -41.53125 34.796875 -40.878906 C 34.148438 -40.226562 33.300781 -39.902344 32.265625 -39.902344 L 13.828125 -39.902344 L 13.828125 -42.226562 L 16.152344 -42.226562 L 16.152344 -29.511719 L 13.828125 -29.511719 L 13.828125 -31.835938 L 27.804688 -31.835938 C 28.839844 -31.835938 29.6875 -31.511719 30.339844 -30.859375 C 30.988281 -30.207031 31.316406 -29.363281 31.316406 -28.324219 L 31.316406 -20.890625 C 31.316406 -19.851562 30.988281 -19.007812 30.339844 -18.355469 C 29.6875 -17.703125 28.839844 -17.375 27.804688 -17.375 L 13.828125 -17.375 L 13.828125 -19.699219 L 16.152344 -19.699219 L 16.152344 -1.1875 C 16.152344 -0.152344 15.824219 0.695312 15.171875 1.34375 C 14.519531 1.996094 13.675781 2.324219 12.636719 2.324219 L 4.90625 2.324219 C 3.867188 2.324219 3.023438 1.996094 2.371094 1.34375 C 1.71875 0.695312 1.394531 -0.152344 1.394531 -1.1875 L 1.394531 -50.847656 C 1.394531 -51.886719 1.71875 -52.730469 2.371094 -53.382812 C 3.023438 -54.035156 3.867188 -54.363281 4.90625 -54.363281 L 32.265625 -54.363281 C 33.300781 -54.363281 34.148438 -54.035156 34.796875 -53.382812 C 35.449219 -52.730469 35.777344 -51.886719 35.777344 -50.847656 Z M 31.128906 -50.847656 C 31.128906 -50.796875 31.144531 -50.722656 31.175781 -50.632812 C 31.242188 -50.4375 31.355469 -50.257812 31.511719 -50.097656 C 31.671875 -49.9375 31.851562 -49.824219 32.050781 -49.761719 C 32.140625 -49.730469 32.210938 -49.714844 32.265625 -49.714844 L 4.90625 -49.714844 C 4.960938 -49.714844 5.03125 -49.730469 5.121094 -49.761719 C 5.320312 -49.824219 5.496094 -49.9375 5.65625 -50.097656 C 5.816406 -50.257812 5.929688 -50.4375 5.996094 -50.632812 C 6.023438 -50.722656 6.039062 -50.796875 6.039062 -50.847656 L 6.039062 -1.1875 C 6.039062 -1.242188 6.023438 -1.3125 5.996094 -1.402344 C 5.929688 -1.601562 5.816406 -1.78125 5.65625 -1.941406 C 5.496094 -2.097656 5.320312 -2.210938 5.121094 -2.277344 C 5.03125 -2.308594 4.960938 -2.324219 4.90625 -2.324219 L 12.636719 -2.324219 C 12.585938 -2.324219 12.511719 -2.308594 12.421875 -2.277344 C 12.226562 -2.210938 12.046875 -2.097656 11.886719 -1.941406 C 11.726562 -1.78125 11.613281 -1.601562 11.550781 -1.402344 C 11.519531 -1.3125 11.503906 -1.242188 11.503906 -1.1875 L 11.503906 -22.023438 L 27.804688 -22.023438 C 27.75 -22.023438 27.679688 -22.007812 27.589844 -21.980469 C 27.390625 -21.914062 27.210938 -21.800781 27.050781 -21.640625 C 26.894531 -21.480469 26.78125 -21.300781 26.714844 -21.105469 C 26.683594 -21.015625 26.667969 -20.941406 26.667969 -20.890625 L 26.667969 -28.324219 C 26.667969 -28.269531 26.683594 -28.199219 26.714844 -28.109375 C 26.78125 -27.910156 26.894531 -27.730469 27.050781 -27.574219 C 27.210938 -27.414062 27.390625 -27.300781 27.589844 -27.234375 C 27.679688 -27.203125 27.75 -27.191406 27.804688 -27.191406 L 11.503906 -27.191406 L 11.503906 -44.546875 L 32.265625 -44.546875 C 32.210938 -44.546875 32.140625 -44.535156 32.050781 -44.503906 C 31.851562 -44.4375 31.671875 -44.324219 31.511719 -44.164062 C 31.355469 -44.007812 31.242188 -43.828125 31.175781 -43.628906 C 31.144531 -43.539062 31.128906 -43.46875 31.128906 -43.414062 Z M 31.128906 -50.847656 "/></g></g><g style="fill:#b21a22;fill-opacity:1;"><g transform="translate(149.68202, 113.065397)"><path style="stroke:none" d="M 11.503906 -9.8125 L 11.503906 -50.847656 C 11.503906 -50.796875 11.519531 -50.722656 11.550781 -50.632812 C 11.613281 -50.4375 11.726562 -50.257812 11.886719 -50.097656 C 12.046875 -49.9375 12.226562 -49.824219 12.421875 -49.761719 C 12.511719 -49.730469 12.585938 -49.714844 12.636719 -49.714844 L 4.90625 -49.714844 C 4.960938 -49.714844 5.03125 -49.730469 5.121094 -49.761719 C 5.320312 -49.824219 5.496094 -49.9375 5.65625 -50.097656 C 5.816406 -50.257812 5.929688 -50.4375 5.996094 -50.632812 C 6.023438 -50.722656 6.039062 -50.796875 6.039062 -50.847656 L 6.039062 -1.1875 C 6.039062 -1.242188 6.023438 -1.3125 5.996094 -1.402344 C 5.929688 -1.601562 5.816406 -1.78125 5.65625 -1.941406 C 5.496094 -2.097656 5.320312 -2.210938 5.121094 -2.277344 C 5.03125 -2.308594 4.960938 -2.324219 4.90625 -2.324219 L 28.546875 -2.324219 C 28.492188 -2.324219 28.421875 -2.308594 28.332031 -2.277344 C 28.132812 -2.210938 27.957031 -2.097656 27.796875 -1.941406 C 27.636719 -1.78125 27.523438 -1.601562 27.457031 -1.402344 C 27.429688 -1.3125 27.414062 -1.242188 27.414062 -1.1875 L 27.414062 -8.625 C 27.414062 -8.570312 27.429688 -8.5 27.457031 -8.410156 C 27.523438 -8.210938 27.636719 -8.03125 27.796875 -7.871094 C 27.957031 -7.714844 28.132812 -7.601562 28.332031 -7.535156 C 28.421875 -7.503906 28.492188 -7.488281 28.546875 -7.488281 L 11.503906 -7.488281 Z M 16.152344 -9.8125 L 13.828125 -9.8125 L 13.828125 -12.136719 L 28.546875 -12.136719 C 29.585938 -12.136719 30.429688 -11.808594 31.082031 -11.160156 C 31.734375 -10.507812 32.058594 -9.660156 32.058594 -8.625 L 32.058594 -1.1875 C 32.058594 -0.152344 31.734375 0.695312 31.082031 1.34375 C 30.429688 1.996094 29.585938 2.324219 28.546875 2.324219 L 4.90625 2.324219 C 3.867188 2.324219 3.023438 1.996094 2.371094 1.34375 C 1.71875 0.695312 1.394531 -0.152344 1.394531 -1.1875 L 1.394531 -50.847656 C 1.394531 -51.886719 1.71875 -52.730469 2.371094 -53.382812 C 3.023438 -54.035156 3.867188 -54.363281 4.90625 -54.363281 L 12.636719 -54.363281 C 13.675781 -54.363281 14.519531 -54.035156 15.171875 -53.382812 C 15.824219 -52.730469 16.152344 -51.886719 16.152344 -50.847656 Z M 16.152344 -9.8125 "/></g></g><g style="fill:#b21a22;fill-opacity:1;"><g transform="translate(183.124612, 113.065397)"><path style="stroke:none" d="M 38.804688 2.324219 L 31.59375 2.324219 C 30.691406 2.324219 29.921875 2.046875 29.285156 1.488281 C 28.699219 0.976562 28.316406 0.296875 28.132812 -0.554688 L 30.40625 -1.039062 L 28.152344 -0.46875 L 25.773438 -9.835938 L 28.027344 -10.40625 L 28.027344 -8.085938 L 14.050781 -8.085938 L 14.050781 -10.40625 L 16.304688 -9.851562 L 14 -0.484375 L 11.746094 -1.039062 L 14.015625 -0.554688 C 13.835938 0.296875 13.453125 0.976562 12.867188 1.488281 C 12.230469 2.046875 11.460938 2.324219 10.554688 2.324219 L 3.269531 2.324219 C 2.058594 2.324219 1.140625 1.914062 0.515625 1.09375 C -0.125 0.261719 -0.269531 -0.746094 0.0742188 -1.917969 L 2.304688 -1.265625 L 0.0507812 -1.824219 L 12.390625 -51.558594 L 14.644531 -50.996094 L 12.375 -51.484375 C 12.5625 -52.359375 12.96875 -53.054688 13.59375 -53.570312 C 14.234375 -54.097656 15.007812 -54.363281 15.910156 -54.363281 L 26.242188 -54.363281 C 27.144531 -54.363281 27.914062 -54.097656 28.554688 -53.570312 C 29.183594 -53.054688 29.589844 -52.359375 29.777344 -51.484375 L 27.507812 -50.996094 L 29.761719 -51.558594 L 42.101562 -1.824219 L 39.847656 -1.265625 L 42.074219 -1.917969 C 42.429688 -0.710938 42.261719 0.316406 41.566406 1.160156 C 40.925781 1.9375 40.007812 2.324219 38.804688 2.324219 Z M 38.804688 -2.324219 C 38.816406 -2.324219 38.828125 -2.324219 38.835938 -2.324219 C 38.832031 -2.324219 38.832031 -2.324219 38.824219 -2.324219 C 38.78125 -2.316406 38.734375 -2.304688 38.679688 -2.289062 C 38.410156 -2.199219 38.179688 -2.035156 37.980469 -1.792969 C 37.753906 -1.519531 37.628906 -1.222656 37.605469 -0.890625 C 37.59375 -0.765625 37.597656 -0.671875 37.617188 -0.609375 L 37.601562 -0.65625 L 25.242188 -50.472656 L 25.234375 -50.511719 C 25.273438 -50.328125 25.394531 -50.15625 25.601562 -49.984375 C 25.820312 -49.804688 26.035156 -49.714844 26.242188 -49.714844 L 15.910156 -49.714844 C 16.117188 -49.714844 16.332031 -49.804688 16.550781 -49.984375 C 16.753906 -50.15625 16.878906 -50.328125 16.917969 -50.511719 L 16.910156 -50.472656 L 4.546875 -0.65625 L 4.535156 -0.609375 C 4.546875 -0.65625 4.550781 -0.734375 4.542969 -0.847656 C 4.527344 -1.164062 4.414062 -1.457031 4.207031 -1.726562 C 4.003906 -1.992188 3.757812 -2.175781 3.46875 -2.273438 C 3.375 -2.308594 3.308594 -2.324219 3.269531 -2.324219 L 10.554688 -2.324219 C 10.296875 -2.324219 10.046875 -2.21875 9.808594 -2.007812 C 9.617188 -1.84375 9.507812 -1.683594 9.472656 -1.527344 L 9.480469 -1.5625 L 12.230469 -12.730469 L 29.832031 -12.730469 L 32.667969 -1.570312 L 32.675781 -1.527344 C 32.644531 -1.683594 32.53125 -1.84375 32.34375 -2.007812 C 32.105469 -2.21875 31.855469 -2.324219 31.59375 -2.324219 Z M 23.457031 -18.507812 L 18.773438 -38.726562 L 21.039062 -39.25 L 23.300781 -38.726562 L 18.617188 -18.507812 L 16.355469 -19.03125 L 16.355469 -21.355469 L 25.722656 -21.355469 L 25.722656 -19.03125 Z M 28.644531 -16.707031 L 13.433594 -16.707031 L 18.773438 -39.777344 L 23.300781 -39.777344 L 27.984375 -19.554688 Z M 28.644531 -16.707031 "/></g></g><g style="fill:#b21a22;fill-opacity:1;"><g transform="translate(225.26229, 113.065397)"><path style="stroke:none" d="M 1.394531 -10.703125 L 1.394531 -41.332031 C 1.394531 -45.5 2.542969 -48.714844 4.835938 -50.980469 C 7.121094 -53.234375 10.316406 -54.363281 14.421875 -54.363281 L 22.75 -54.363281 C 26.851562 -54.363281 30.046875 -53.234375 32.335938 -50.980469 C 34.628906 -48.714844 35.777344 -45.5 35.777344 -41.332031 L 35.777344 -35.832031 C 35.777344 -34.792969 35.449219 -33.949219 34.796875 -33.296875 C 34.148438 -32.644531 33.300781 -32.320312 32.265625 -32.320312 L 25.277344 -32.320312 C 24.238281 -32.320312 23.394531 -32.644531 22.742188 -33.296875 C 22.089844 -33.949219 21.761719 -34.792969 21.761719 -35.832031 L 21.761719 -39.476562 C 21.761719 -39.71875 21.742188 -39.90625 21.695312 -40.039062 C 21.6875 -40.066406 21.679688 -40.082031 21.675781 -40.089844 C 21.679688 -40.082031 21.6875 -40.074219 21.699219 -40.0625 C 21.710938 -40.050781 21.722656 -40.042969 21.730469 -40.039062 C 21.71875 -40.042969 21.703125 -40.050781 21.679688 -40.058594 C 21.546875 -40.101562 21.355469 -40.125 21.113281 -40.125 L 16.355469 -40.125 C 16.109375 -40.125 15.921875 -40.101562 15.789062 -40.058594 C 15.765625 -40.050781 15.746094 -40.042969 15.738281 -40.039062 C 15.746094 -40.042969 15.757812 -40.050781 15.765625 -40.0625 C 15.777344 -40.074219 15.785156 -40.082031 15.792969 -40.089844 C 15.785156 -40.082031 15.78125 -40.066406 15.769531 -40.039062 C 15.726562 -39.90625 15.703125 -39.71875 15.703125 -39.476562 L 15.703125 -12.5625 C 15.703125 -12.320312 15.726562 -12.128906 15.769531 -11.996094 C 15.78125 -11.972656 15.785156 -11.957031 15.792969 -11.945312 C 15.785156 -11.957031 15.777344 -11.964844 15.765625 -11.976562 C 15.757812 -11.988281 15.746094 -11.996094 15.738281 -12 C 15.746094 -11.996094 15.765625 -11.988281 15.789062 -11.980469 C 15.921875 -11.933594 16.109375 -11.914062 16.355469 -11.914062 L 21.113281 -11.914062 C 21.355469 -11.914062 21.546875 -11.933594 21.679688 -11.980469 C 21.703125 -11.988281 21.71875 -11.996094 21.730469 -12 C 21.722656 -11.996094 21.710938 -11.988281 21.699219 -11.976562 C 21.6875 -11.964844 21.679688 -11.957031 21.675781 -11.945312 C 21.679688 -11.957031 21.6875 -11.972656 21.695312 -11.996094 C 21.742188 -12.128906 21.761719 -12.320312 21.761719 -12.5625 L 21.761719 -19.03125 L 24.085938 -19.03125 L 24.085938 -16.707031 L 20.21875 -16.707031 C 19.183594 -16.707031 18.335938 -17.035156 17.6875 -17.6875 C 17.035156 -18.335938 16.707031 -19.183594 16.707031 -20.21875 L 16.707031 -27.65625 C 16.707031 -28.691406 17.035156 -29.539062 17.6875 -30.191406 C 18.335938 -30.839844 19.183594 -31.167969 20.21875 -31.167969 L 32.265625 -31.167969 C 33.300781 -31.167969 34.148438 -30.839844 34.796875 -30.191406 C 35.449219 -29.539062 35.777344 -28.691406 35.777344 -27.65625 L 35.777344 -10.703125 C 35.777344 -6.59375 34.632812 -3.394531 32.34375 -1.109375 C 30.058594 1.179688 26.859375 2.324219 22.75 2.324219 L 14.421875 2.324219 C 10.3125 2.324219 7.113281 1.179688 4.824219 -1.109375 C 2.539062 -3.394531 1.394531 -6.59375 1.394531 -10.703125 Z M 6.039062 -10.703125 C 6.039062 -7.878906 6.730469 -5.773438 8.109375 -4.394531 C 9.492188 -3.011719 11.59375 -2.324219 14.421875 -2.324219 L 22.75 -2.324219 C 25.574219 -2.324219 27.679688 -3.011719 29.058594 -4.394531 C 30.441406 -5.773438 31.128906 -7.878906 31.128906 -10.703125 L 31.128906 -27.65625 C 31.128906 -27.601562 31.144531 -27.53125 31.175781 -27.441406 C 31.242188 -27.242188 31.355469 -27.0625 31.511719 -26.902344 C 31.671875 -26.746094 31.851562 -26.632812 32.050781 -26.566406 C 32.140625 -26.535156 32.210938 -26.519531 32.265625 -26.519531 L 20.21875 -26.519531 C 20.273438 -26.519531 20.34375 -26.535156 20.433594 -26.566406 C 20.632812 -26.632812 20.8125 -26.746094 20.972656 -26.902344 C 21.128906 -27.0625 21.242188 -27.242188 21.308594 -27.441406 C 21.339844 -27.53125 21.355469 -27.601562 21.355469 -27.65625 L 21.355469 -20.21875 C 21.355469 -20.273438 21.339844 -20.34375 21.308594 -20.433594 C 21.242188 -20.632812 21.128906 -20.8125 20.972656 -20.972656 C 20.8125 -21.128906 20.632812 -21.242188 20.433594 -21.308594 C 20.34375 -21.339844 20.273438 -21.355469 20.21875 -21.355469 L 26.410156 -21.355469 L 26.410156 -12.5625 C 26.410156 -10.929688 25.933594 -9.640625 24.984375 -8.691406 C 24.035156 -7.742188 22.746094 -7.265625 21.113281 -7.265625 L 16.355469 -7.265625 C 14.722656 -7.265625 13.429688 -7.742188 12.480469 -8.691406 C 11.53125 -9.640625 11.058594 -10.929688 11.058594 -12.5625 L 11.058594 -39.476562 C 11.058594 -41.109375 11.53125 -42.398438 12.480469 -43.347656 C 13.429688 -44.296875 14.722656 -44.773438 16.355469 -44.773438 L 21.113281 -44.773438 C 22.746094 -44.773438 24.035156 -44.296875 24.984375 -43.347656 C 25.933594 -42.398438 26.410156 -41.109375 26.410156 -39.476562 L 26.410156 -35.832031 C 26.410156 -35.886719 26.394531 -35.957031 26.363281 -36.046875 C 26.296875 -36.246094 26.1875 -36.421875 26.027344 -36.582031 C 25.867188 -36.742188 25.6875 -36.855469 25.488281 -36.921875 C 25.398438 -36.949219 25.328125 -36.964844 25.277344 -36.964844 L 32.265625 -36.964844 C 32.210938 -36.964844 32.140625 -36.949219 32.050781 -36.921875 C 31.851562 -36.855469 31.671875 -36.742188 31.511719 -36.582031 C 31.355469 -36.421875 31.242188 -36.246094 31.175781 -36.046875 C 31.144531 -35.957031 31.128906 -35.886719 31.128906 -35.832031 L 31.128906 -41.332031 C 31.128906 -44.203125 30.445312 -46.316406 29.070312 -47.671875 C 27.691406 -49.035156 25.582031 -49.714844 22.75 -49.714844 L 14.421875 -49.714844 C 11.589844 -49.714844 9.480469 -49.035156 8.097656 -47.671875 C 6.726562 -46.316406 6.039062 -44.203125 6.039062 -41.332031 Z M 6.039062 -10.703125 "/></g></g><g style="fill:#b21a22;fill-opacity:1;"><g transform="translate(75.188506, 216.708507)"><path style="stroke:none" d="M -2.324219 9.960938 L -2.324219 3.121094 C -2.324219 1.984375 -1.972656 1.066406 -1.269531 0.363281 C -0.570312 -0.335938 0.351562 -0.6875 1.488281 -0.6875 L 46.3125 -0.6875 C 47.453125 -0.6875 48.371094 -0.335938 49.070312 0.363281 C 49.773438 1.066406 50.125 1.984375 50.125 3.121094 L 50.125 9.960938 C 50.125 11.097656 49.773438 12.019531 49.070312 12.71875 C 48.371094 13.421875 47.453125 13.773438 46.3125 13.773438 L 1.488281 13.773438 C 0.351562 13.773438 -0.570312 13.421875 -1.269531 12.71875 C -1.972656 12.019531 -2.324219 11.097656 -2.324219 9.960938 Z M 2.324219 9.960938 C 2.324219 9.972656 2.324219 9.980469 2.324219 9.988281 C 2.324219 9.988281 2.324219 9.984375 2.324219 9.980469 C 2.320312 9.953125 2.308594 9.917969 2.296875 9.878906 C 2.242188 9.714844 2.148438 9.570312 2.015625 9.433594 C 1.878906 9.300781 1.730469 9.207031 1.570312 9.152344 C 1.53125 9.136719 1.496094 9.128906 1.46875 9.125 C 1.464844 9.125 1.460938 9.125 1.460938 9.125 C 1.46875 9.125 1.476562 9.125 1.488281 9.125 L 46.3125 9.125 C 46.324219 9.125 46.332031 9.125 46.339844 9.125 C 46.339844 9.125 46.335938 9.125 46.332031 9.125 C 46.304688 9.128906 46.269531 9.136719 46.230469 9.152344 C 46.070312 9.207031 45.921875 9.300781 45.785156 9.433594 C 45.652344 9.570312 45.558594 9.714844 45.503906 9.878906 C 45.492188 9.917969 45.480469 9.953125 45.476562 9.980469 C 45.476562 9.984375 45.476562 9.988281 45.476562 9.988281 C 45.476562 9.980469 45.476562 9.972656 45.476562 9.960938 L 45.476562 3.121094 C 45.476562 3.113281 45.476562 3.101562 45.476562 3.097656 C 45.476562 3.097656 45.476562 3.097656 45.476562 3.101562 C 45.480469 3.132812 45.492188 3.167969 45.503906 3.207031 C 45.558594 3.367188 45.652344 3.515625 45.785156 3.648438 C 45.921875 3.785156 46.070312 3.878906 46.230469 3.933594 C 46.269531 3.945312 46.304688 3.953125 46.332031 3.957031 C 46.335938 3.960938 46.339844 3.960938 46.339844 3.960938 C 46.332031 3.960938 46.324219 3.957031 46.3125 3.957031 L 1.488281 3.957031 C 1.476562 3.957031 1.46875 3.960938 1.460938 3.960938 C 1.460938 3.960938 1.464844 3.960938 1.46875 3.957031 C 1.496094 3.953125 1.53125 3.945312 1.570312 3.933594 C 1.730469 3.878906 1.878906 3.785156 2.015625 3.648438 C 2.148438 3.515625 2.242188 3.367188 2.296875 3.207031 C 2.308594 3.167969 2.320312 3.132812 2.324219 3.101562 C 2.324219 3.097656 2.324219 3.097656 2.324219 3.097656 C 2.324219 3.101562 2.324219 3.113281 2.324219 3.121094 Z M 2.324219 9.960938 "/></g></g><g style="fill:#b21a22;fill-opacity:1;"><g transform="translate(122.974268, 216.708507)"><path style="stroke:none" d="M 14.421875 -54.363281 L 22.75 -54.363281 C 26.910156 -54.363281 30.121094 -53.230469 32.382812 -50.96875 C 34.644531 -48.703125 35.777344 -45.492188 35.777344 -41.332031 L 35.777344 -36.425781 C 35.777344 -35.390625 35.449219 -34.542969 34.796875 -33.890625 C 34.148438 -33.238281 33.300781 -32.914062 32.265625 -32.914062 L 24.753906 -32.914062 C 23.71875 -32.914062 22.871094 -33.238281 22.21875 -33.890625 C 21.570312 -34.542969 21.242188 -35.390625 21.242188 -36.425781 L 21.242188 -39.550781 C 21.242188 -39.792969 21.21875 -39.980469 21.175781 -40.117188 C 21.167969 -40.140625 21.160156 -40.15625 21.15625 -40.164062 C 21.160156 -40.15625 21.167969 -40.148438 21.179688 -40.136719 C 21.191406 -40.125 21.199219 -40.117188 21.210938 -40.113281 C 21.199219 -40.117188 21.183594 -40.125 21.160156 -40.132812 C 21.023438 -40.175781 20.835938 -40.199219 20.59375 -40.199219 L 16.503906 -40.199219 C 16.257812 -40.199219 16.070312 -40.175781 15.9375 -40.132812 C 15.914062 -40.125 15.894531 -40.117188 15.886719 -40.113281 C 15.894531 -40.117188 15.90625 -40.125 15.917969 -40.136719 C 15.925781 -40.148438 15.933594 -40.15625 15.941406 -40.164062 C 15.933594 -40.15625 15.929688 -40.140625 15.917969 -40.117188 C 15.875 -39.980469 15.851562 -39.792969 15.851562 -39.550781 L 15.851562 -33.230469 L 13.53125 -33.230469 L 14.242188 -35.441406 L 32.234375 -29.644531 C 33.382812 -29.246094 34.261719 -28.613281 34.871094 -27.746094 C 35.472656 -26.886719 35.777344 -25.863281 35.777344 -24.679688 L 35.777344 -10.703125 C 35.777344 -6.601562 34.648438 -3.40625 32.394531 -1.117188 C 30.128906 1.175781 26.914062 2.324219 22.75 2.324219 L 14.421875 2.324219 C 10.3125 2.324219 7.113281 1.179688 4.824219 -1.109375 C 2.539062 -3.394531 1.394531 -6.59375 1.394531 -10.703125 L 1.394531 -15.539062 C 1.394531 -16.574219 1.71875 -17.421875 2.371094 -18.070312 C 3.023438 -18.722656 3.867188 -19.050781 4.90625 -19.050781 L 12.414062 -19.050781 C 13.453125 -19.050781 14.296875 -18.722656 14.949219 -18.070312 C 15.601562 -17.421875 15.925781 -16.574219 15.925781 -15.539062 L 15.925781 -12.414062 C 15.925781 -12.171875 15.949219 -11.980469 15.996094 -11.847656 C 16.003906 -11.824219 16.007812 -11.808594 16.015625 -11.796875 C 16.007812 -11.808594 16 -11.816406 15.992188 -11.828125 C 15.980469 -11.839844 15.96875 -11.847656 15.960938 -11.851562 C 15.96875 -11.847656 15.988281 -11.839844 16.011719 -11.832031 C 16.144531 -11.785156 16.332031 -11.765625 16.578125 -11.765625 L 20.59375 -11.765625 C 20.835938 -11.765625 21.023438 -11.785156 21.160156 -11.832031 C 21.183594 -11.839844 21.199219 -11.847656 21.210938 -11.851562 C 21.199219 -11.847656 21.191406 -11.839844 21.179688 -11.828125 C 21.167969 -11.816406 21.160156 -11.808594 21.15625 -11.796875 C 21.160156 -11.808594 21.167969 -11.824219 21.175781 -11.847656 C 21.21875 -11.980469 21.242188 -12.171875 21.242188 -12.414062 L 21.242188 -19.921875 L 23.566406 -19.921875 L 22.847656 -17.714844 L 5.007812 -23.511719 C 3.855469 -23.894531 2.96875 -24.515625 2.34375 -25.375 C 1.710938 -26.242188 1.394531 -27.273438 1.394531 -28.472656 L 1.394531 -41.332031 C 1.394531 -45.5 2.542969 -48.714844 4.835938 -50.980469 C 7.121094 -53.234375 10.316406 -54.363281 14.421875 -54.363281 Z M 14.421875 -49.714844 C 11.589844 -49.714844 9.480469 -49.035156 8.097656 -47.671875 C 6.726562 -46.316406 6.039062 -44.203125 6.039062 -41.332031 L 6.039062 -28.472656 C 6.039062 -28.285156 6.058594 -28.164062 6.09375 -28.113281 C 6.136719 -28.054688 6.253906 -27.996094 6.441406 -27.929688 L 25.890625 -21.609375 L 25.890625 -12.414062 C 25.890625 -10.78125 25.414062 -9.492188 24.464844 -8.542969 C 23.515625 -7.59375 22.226562 -7.117188 20.59375 -7.117188 L 16.578125 -7.117188 C 14.945312 -7.117188 13.652344 -7.59375 12.703125 -8.542969 C 11.753906 -9.492188 11.28125 -10.78125 11.28125 -12.414062 L 11.28125 -15.539062 C 11.28125 -15.484375 11.296875 -15.414062 11.324219 -15.324219 C 11.390625 -15.125 11.503906 -14.945312 11.664062 -14.785156 C 11.824219 -14.628906 12.003906 -14.515625 12.199219 -14.449219 C 12.289062 -14.417969 12.363281 -14.402344 12.414062 -14.402344 L 4.90625 -14.402344 C 4.960938 -14.402344 5.03125 -14.417969 5.121094 -14.449219 C 5.320312 -14.515625 5.496094 -14.628906 5.65625 -14.785156 C 5.816406 -14.945312 5.929688 -15.125 5.996094 -15.324219 C 6.023438 -15.414062 6.039062 -15.484375 6.039062 -15.539062 L 6.039062 -10.703125 C 6.039062 -7.878906 6.730469 -5.773438 8.109375 -4.394531 C 9.492188 -3.011719 11.59375 -2.324219 14.421875 -2.324219 L 22.75 -2.324219 C 25.621094 -2.324219 27.730469 -3.007812 29.085938 -4.382812 C 30.449219 -5.761719 31.128906 -7.871094 31.128906 -10.703125 L 31.128906 -24.679688 C 31.128906 -24.886719 31.109375 -25.015625 31.070312 -25.074219 C 31.035156 -25.121094 30.949219 -25.171875 30.808594 -25.21875 L 11.207031 -31.539062 L 11.207031 -39.550781 C 11.207031 -41.183594 11.679688 -42.472656 12.628906 -43.421875 C 13.578125 -44.371094 14.871094 -44.847656 16.503906 -44.847656 L 20.59375 -44.847656 C 22.226562 -44.847656 23.515625 -44.371094 24.464844 -43.421875 C 25.414062 -42.472656 25.890625 -41.183594 25.890625 -39.550781 L 25.890625 -36.425781 C 25.890625 -36.480469 25.875 -36.550781 25.84375 -36.640625 C 25.777344 -36.839844 25.664062 -37.019531 25.507812 -37.175781 C 25.347656 -37.335938 25.167969 -37.449219 24.96875 -37.515625 C 24.878906 -37.546875 24.808594 -37.5625 24.753906 -37.5625 L 32.265625 -37.5625 C 32.210938 -37.5625 32.140625 -37.546875 32.050781 -37.515625 C 31.851562 -37.449219 31.671875 -37.335938 31.511719 -37.175781 C 31.355469 -37.019531 31.242188 -36.839844 31.175781 -36.640625 C 31.144531 -36.550781 31.128906 -36.480469 31.128906 -36.425781 L 31.128906 -41.332031 C 31.128906 -44.210938 30.453125 -46.328125 29.097656 -47.683594 C 27.742188 -49.039062 25.625 -49.714844 22.75 -49.714844 Z M 14.421875 -49.714844 "/></g></g><g style="fill:#b21a22;fill-opacity:1;"><g transform="translate(160.132707, 216.708507)"><path style="stroke:none" d="M 21.019531 -30.777344 L 21.019531 -50.847656 C 21.019531 -51.886719 21.34375 -52.730469 21.996094 -53.382812 C 22.648438 -54.035156 23.496094 -54.363281 24.53125 -54.363281 L 32.1875 -54.363281 C 33.226562 -54.363281 34.070312 -54.050781 34.730469 -53.433594 C 35.425781 -52.777344 35.777344 -51.914062 35.777344 -50.847656 L 35.777344 -1.1875 C 35.777344 -0.125 35.425781 0.738281 34.730469 1.394531 C 34.070312 2.015625 33.226562 2.324219 32.1875 2.324219 L 24.53125 2.324219 C 23.496094 2.324219 22.648438 1.996094 21.996094 1.34375 C 21.34375 0.695312 21.019531 -0.152344 21.019531 -1.1875 L 21.019531 -20.964844 L 23.34375 -20.964844 L 23.34375 -18.640625 L 13.828125 -18.640625 L 13.828125 -20.964844 L 16.152344 -20.964844 L 16.152344 -1.1875 C 16.152344 -0.152344 15.824219 0.695312 15.171875 1.34375 C 14.519531 1.996094 13.675781 2.324219 12.636719 2.324219 L 4.980469 2.324219 C 3.945312 2.324219 3.097656 2.015625 2.441406 1.394531 C 1.742188 0.738281 1.394531 -0.125 1.394531 -1.1875 L 1.394531 -50.847656 C 1.394531 -51.914062 1.742188 -52.777344 2.441406 -53.433594 C 3.097656 -54.050781 3.945312 -54.363281 4.980469 -54.363281 L 12.636719 -54.363281 C 13.675781 -54.363281 14.519531 -54.035156 15.171875 -53.382812 C 15.824219 -52.730469 16.152344 -51.886719 16.152344 -50.847656 L 16.152344 -30.777344 L 13.828125 -30.777344 L 13.828125 -33.101562 L 23.34375 -33.101562 L 23.34375 -30.777344 Z M 25.667969 -28.453125 L 11.503906 -28.453125 L 11.503906 -50.847656 C 11.503906 -50.796875 11.519531 -50.722656 11.550781 -50.632812 C 11.613281 -50.4375 11.726562 -50.257812 11.886719 -50.097656 C 12.046875 -49.9375 12.226562 -49.824219 12.421875 -49.761719 C 12.511719 -49.730469 12.585938 -49.714844 12.636719 -49.714844 L 4.980469 -49.714844 C 5.007812 -49.714844 5.054688 -49.726562 5.125 -49.746094 C 5.304688 -49.804688 5.472656 -49.90625 5.625 -50.050781 C 5.792969 -50.207031 5.914062 -50.386719 5.984375 -50.59375 C 6.023438 -50.695312 6.039062 -50.78125 6.039062 -50.847656 L 6.039062 -1.1875 C 6.039062 -1.257812 6.023438 -1.34375 5.984375 -1.445312 C 5.914062 -1.648438 5.792969 -1.832031 5.625 -1.988281 C 5.472656 -2.132812 5.304688 -2.234375 5.125 -2.292969 C 5.054688 -2.3125 5.007812 -2.324219 4.980469 -2.324219 L 12.636719 -2.324219 C 12.585938 -2.324219 12.511719 -2.308594 12.421875 -2.277344 C 12.226562 -2.210938 12.046875 -2.097656 11.886719 -1.941406 C 11.726562 -1.78125 11.613281 -1.601562 11.550781 -1.402344 C 11.519531 -1.3125 11.503906 -1.242188 11.503906 -1.1875 L 11.503906 -23.289062 L 25.667969 -23.289062 L 25.667969 -1.1875 C 25.667969 -1.242188 25.652344 -1.3125 25.621094 -1.402344 C 25.554688 -1.601562 25.441406 -1.78125 25.28125 -1.941406 C 25.125 -2.097656 24.945312 -2.210938 24.746094 -2.277344 C 24.65625 -2.308594 24.585938 -2.324219 24.53125 -2.324219 L 32.1875 -2.324219 C 32.164062 -2.324219 32.117188 -2.3125 32.046875 -2.292969 C 31.867188 -2.234375 31.699219 -2.132812 31.542969 -1.988281 C 31.378906 -1.832031 31.257812 -1.648438 31.183594 -1.445312 C 31.148438 -1.34375 31.128906 -1.257812 31.128906 -1.1875 L 31.128906 -50.847656 C 31.128906 -50.78125 31.148438 -50.695312 31.183594 -50.59375 C 31.257812 -50.386719 31.378906 -50.207031 31.542969 -50.050781 C 31.699219 -49.90625 31.867188 -49.804688 32.046875 -49.746094 C 32.113281 -49.726562 32.164062 -49.714844 32.1875 -49.714844 L 24.53125 -49.714844 C 24.585938 -49.714844 24.65625 -49.730469 24.746094 -49.761719 C 24.945312 -49.824219 25.125 -49.9375 25.28125 -50.097656 C 25.441406 -50.257812 25.554688 -50.4375 25.621094 -50.632812 C 25.652344 -50.722656 25.667969 -50.796875 25.667969 -50.847656 Z M 25.667969 -28.453125 "/></g></g><g style="fill:#b21a22;fill-opacity:1;"><g transform="translate(197.291146, 216.708507)"><path style="stroke:none" d="M 4.90625 -2.324219 L 12.636719 -2.324219 C 12.585938 -2.324219 12.511719 -2.308594 12.421875 -2.277344 C 12.226562 -2.210938 12.046875 -2.097656 11.886719 -1.941406 C 11.726562 -1.78125 11.613281 -1.601562 11.550781 -1.402344 C 11.519531 -1.3125 11.503906 -1.242188 11.503906 -1.1875 L 11.503906 -50.847656 C 11.503906 -50.796875 11.519531 -50.722656 11.550781 -50.632812 C 11.613281 -50.4375 11.726562 -50.257812 11.886719 -50.097656 C 12.046875 -49.9375 12.226562 -49.824219 12.421875 -49.761719 C 12.511719 -49.730469 12.585938 -49.714844 12.636719 -49.714844 L 4.90625 -49.714844 C 4.960938 -49.714844 5.03125 -49.730469 5.121094 -49.761719 C 5.320312 -49.824219 5.496094 -49.9375 5.65625 -50.097656 C 5.816406 -50.257812 5.929688 -50.4375 5.996094 -50.632812 C 6.023438 -50.722656 6.039062 -50.796875 6.039062 -50.847656 L 6.039062 -1.1875 C 6.039062 -1.242188 6.023438 -1.3125 5.996094 -1.402344 C 5.929688 -1.601562 5.816406 -1.78125 5.65625 -1.941406 C 5.496094 -2.097656 5.320312 -2.210938 5.121094 -2.277344 C 5.03125 -2.308594 4.960938 -2.324219 4.90625 -2.324219 Z M 4.90625 2.324219 C 3.867188 2.324219 3.023438 1.996094 2.371094 1.34375 C 1.71875 0.695312 1.394531 -0.152344 1.394531 -1.1875 L 1.394531 -50.847656 C 1.394531 -51.886719 1.71875 -52.730469 2.371094 -53.382812 C 3.023438 -54.035156 3.867188 -54.363281 4.90625 -54.363281 L 12.636719 -54.363281 C 13.675781 -54.363281 14.519531 -54.035156 15.171875 -53.382812 C 15.824219 -52.730469 16.152344 -51.886719 16.152344 -50.847656 L 16.152344 -1.1875 C 16.152344 -0.152344 15.824219 0.695312 15.171875 1.34375 C 14.519531 1.996094 13.675781 2.324219 12.636719 2.324219 Z M 4.90625 2.324219 "/></g></g><g style="fill:#b21a22;fill-opacity:1;"><g transform="translate(214.829917, 216.708507)"><path style="stroke:none" d="M 21.019531 -30.777344 L 21.019531 -50.847656 C 21.019531 -51.886719 21.34375 -52.730469 21.996094 -53.382812 C 22.648438 -54.035156 23.496094 -54.363281 24.53125 -54.363281 L 32.1875 -54.363281 C 33.226562 -54.363281 34.070312 -54.050781 34.730469 -53.433594 C 35.425781 -52.777344 35.777344 -51.914062 35.777344 -50.847656 L 35.777344 -1.1875 C 35.777344 -0.125 35.425781 0.738281 34.730469 1.394531 C 34.070312 2.015625 33.226562 2.324219 32.1875 2.324219 L 24.53125 2.324219 C 23.496094 2.324219 22.648438 1.996094 21.996094 1.34375 C 21.34375 0.695312 21.019531 -0.152344 21.019531 -1.1875 L 21.019531 -20.964844 L 23.34375 -20.964844 L 23.34375 -18.640625 L 13.828125 -18.640625 L 13.828125 -20.964844 L 16.152344 -20.964844 L 16.152344 -1.1875 C 16.152344 -0.152344 15.824219 0.695312 15.171875 1.34375 C 14.519531 1.996094 13.675781 2.324219 12.636719 2.324219 L 4.980469 2.324219 C 3.945312 2.324219 3.097656 2.015625 2.441406 1.394531 C 1.742188 0.738281 1.394531 -0.125 1.394531 -1.1875 L 1.394531 -50.847656 C 1.394531 -51.914062 1.742188 -52.777344 2.441406 -53.433594 C 3.097656 -54.050781 3.945312 -54.363281 4.980469 -54.363281 L 12.636719 -54.363281 C 13.675781 -54.363281 14.519531 -54.035156 15.171875 -53.382812 C 15.824219 -52.730469 16.152344 -51.886719 16.152344 -50.847656 L 16.152344 -30.777344 L 13.828125 -30.777344 L 13.828125 -33.101562 L 23.34375 -33.101562 L 23.34375 -30.777344 Z M 25.667969 -28.453125 L 11.503906 -28.453125 L 11.503906 -50.847656 C 11.503906 -50.796875 11.519531 -50.722656 11.550781 -50.632812 C 11.613281 -50.4375 11.726562 -50.257812 11.886719 -50.097656 C 12.046875 -49.9375 12.226562 -49.824219 12.421875 -49.761719 C 12.511719 -49.730469 12.585938 -49.714844 12.636719 -49.714844 L 4.980469 -49.714844 C 5.007812 -49.714844 5.054688 -49.726562 5.125 -49.746094 C 5.304688 -49.804688 5.472656 -49.90625 5.625 -50.050781 C 5.792969 -50.207031 5.914062 -50.386719 5.984375 -50.59375 C 6.023438 -50.695312 6.039062 -50.78125 6.039062 -50.847656 L 6.039062 -1.1875 C 6.039062 -1.257812 6.023438 -1.34375 5.984375 -1.445312 C 5.914062 -1.648438 5.792969 -1.832031 5.625 -1.988281 C 5.472656 -2.132812 5.304688 -2.234375 5.125 -2.292969 C 5.054688 -2.3125 5.007812 -2.324219 4.980469 -2.324219 L 12.636719 -2.324219 C 12.585938 -2.324219 12.511719 -2.308594 12.421875 -2.277344 C 12.226562 -2.210938 12.046875 -2.097656 11.886719 -1.941406 C 11.726562 -1.78125 11.613281 -1.601562 11.550781 -1.402344 C 11.519531 -1.3125 11.503906 -1.242188 11.503906 -1.1875 L 11.503906 -23.289062 L 25.667969 -23.289062 L 25.667969 -1.1875 C 25.667969 -1.242188 25.652344 -1.3125 25.621094 -1.402344 C 25.554688 -1.601562 25.441406 -1.78125 25.28125 -1.941406 C 25.125 -2.097656 24.945312 -2.210938 24.746094 -2.277344 C 24.65625 -2.308594 24.585938 -2.324219 24.53125 -2.324219 L 32.1875 -2.324219 C 32.164062 -2.324219 32.117188 -2.3125 32.046875 -2.292969 C 31.867188 -2.234375 31.699219 -2.132812 31.542969 -1.988281 C 31.378906 -1.832031 31.257812 -1.648438 31.183594 -1.445312 C 31.148438 -1.34375 31.128906 -1.257812 31.128906 -1.1875 L 31.128906 -50.847656 C 31.128906 -50.78125 31.148438 -50.695312 31.183594 -50.59375 C 31.257812 -50.386719 31.378906 -50.207031 31.542969 -50.050781 C 31.699219 -49.90625 31.867188 -49.804688 32.046875 -49.746094 C 32.113281 -49.726562 32.164062 -49.714844 32.1875 -49.714844 L 24.53125 -49.714844 C 24.585938 -49.714844 24.65625 -49.730469 24.746094 -49.761719 C 24.945312 -49.824219 25.125 -49.9375 25.28125 -50.097656 C 25.441406 -50.257812 25.554688 -50.4375 25.621094 -50.632812 C 25.652344 -50.722656 25.667969 -50.796875 25.667969 -50.847656 Z M 25.667969 -28.453125 "/></g></g><g style="fill:#b21a22;fill-opacity:1;"><g transform="translate(251.988356, 216.708507)"><path style="stroke:none" d="M -2.324219 9.960938 L -2.324219 3.121094 C -2.324219 1.984375 -1.972656 1.066406 -1.269531 0.363281 C -0.570312 -0.335938 0.351562 -0.6875 1.488281 -0.6875 L 46.3125 -0.6875 C 47.453125 -0.6875 48.371094 -0.335938 49.070312 0.363281 C 49.773438 1.066406 50.125 1.984375 50.125 3.121094 L 50.125 9.960938 C 50.125 11.097656 49.773438 12.019531 49.070312 12.71875 C 48.371094 13.421875 47.453125 13.773438 46.3125 13.773438 L 1.488281 13.773438 C 0.351562 13.773438 -0.570312 13.421875 -1.269531 12.71875 C -1.972656 12.019531 -2.324219 11.097656 -2.324219 9.960938 Z M 2.324219 9.960938 C 2.324219 9.972656 2.324219 9.980469 2.324219 9.988281 C 2.324219 9.988281 2.324219 9.984375 2.324219 9.980469 C 2.320312 9.953125 2.308594 9.917969 2.296875 9.878906 C 2.242188 9.714844 2.148438 9.570312 2.015625 9.433594 C 1.878906 9.300781 1.730469 9.207031 1.570312 9.152344 C 1.53125 9.136719 1.496094 9.128906 1.46875 9.125 C 1.464844 9.125 1.460938 9.125 1.460938 9.125 C 1.46875 9.125 1.476562 9.125 1.488281 9.125 L 46.3125 9.125 C 46.324219 9.125 46.332031 9.125 46.339844 9.125 C 46.339844 9.125 46.335938 9.125 46.332031 9.125 C 46.304688 9.128906 46.269531 9.136719 46.230469 9.152344 C 46.070312 9.207031 45.921875 9.300781 45.785156 9.433594 C 45.652344 9.570312 45.558594 9.714844 45.503906 9.878906 C 45.492188 9.917969 45.480469 9.953125 45.476562 9.980469 C 45.476562 9.984375 45.476562 9.988281 45.476562 9.988281 C 45.476562 9.980469 45.476562 9.972656 45.476562 9.960938 L 45.476562 3.121094 C 45.476562 3.113281 45.476562 3.101562 45.476562 3.097656 C 45.476562 3.097656 45.476562 3.097656 45.476562 3.101562 C 45.480469 3.132812 45.492188 3.167969 45.503906 3.207031 C 45.558594 3.367188 45.652344 3.515625 45.785156 3.648438 C 45.921875 3.785156 46.070312 3.878906 46.230469 3.933594 C 46.269531 3.945312 46.304688 3.953125 46.332031 3.957031 C 46.335938 3.960938 46.339844 3.960938 46.339844 3.960938 C 46.332031 3.960938 46.324219 3.957031 46.3125 3.957031 L 1.488281 3.957031 C 1.476562 3.957031 1.46875 3.960938 1.460938 3.960938 C 1.460938 3.960938 1.464844 3.960938 1.46875 3.957031 C 1.496094 3.953125 1.53125 3.945312 1.570312 3.933594 C 1.730469 3.878906 1.878906 3.785156 2.015625 3.648438 C 2.148438 3.515625 2.242188 3.367188 2.296875 3.207031 C 2.308594 3.167969 2.320312 3.132812 2.324219 3.101562 C 2.324219 3.097656 2.324219 3.097656 2.324219 3.097656 C 2.324219 3.101562 2.324219 3.113281 2.324219 3.121094 Z M 2.324219 9.960938 "/></g></g><g style="fill:#b21a22;fill-opacity:1;"><g transform="translate(132.928318, 320.351617)"><path style="stroke:none" d="M 30.777344 -49.714844 L 3.417969 -49.714844 C 3.472656 -49.714844 3.542969 -49.730469 3.632812 -49.761719 C 3.832031 -49.824219 4.011719 -49.9375 4.171875 -50.097656 C 4.328125 -50.257812 4.441406 -50.4375 4.507812 -50.632812 C 4.539062 -50.722656 4.554688 -50.796875 4.554688 -50.847656 L 4.554688 -43.414062 C 4.554688 -43.46875 4.539062 -43.539062 4.507812 -43.628906 C 4.441406 -43.828125 4.328125 -44.007812 4.171875 -44.164062 C 4.011719 -44.324219 3.832031 -44.4375 3.632812 -44.503906 C 3.542969 -44.535156 3.472656 -44.546875 3.417969 -44.546875 L 14.367188 -44.546875 L 14.367188 -1.1875 C 14.367188 -1.242188 14.351562 -1.3125 14.320312 -1.402344 C 14.253906 -1.601562 14.144531 -1.78125 13.984375 -1.941406 C 13.824219 -2.097656 13.644531 -2.210938 13.445312 -2.277344 C 13.355469 -2.308594 13.285156 -2.324219 13.234375 -2.324219 L 20.964844 -2.324219 C 20.910156 -2.324219 20.839844 -2.308594 20.75 -2.277344 C 20.550781 -2.210938 20.371094 -2.097656 20.214844 -1.941406 C 20.054688 -1.78125 19.941406 -1.601562 19.875 -1.402344 C 19.84375 -1.3125 19.832031 -1.242188 19.832031 -1.1875 L 19.832031 -44.546875 L 30.777344 -44.546875 C 30.722656 -44.546875 30.652344 -44.535156 30.5625 -44.503906 C 30.363281 -44.4375 30.1875 -44.324219 30.027344 -44.164062 C 29.867188 -44.007812 29.753906 -43.828125 29.6875 -43.628906 C 29.65625 -43.539062 29.644531 -43.46875 29.644531 -43.414062 L 29.644531 -50.847656 C 29.644531 -50.796875 29.65625 -50.722656 29.6875 -50.632812 C 29.753906 -50.4375 29.867188 -50.257812 30.027344 -50.097656 C 30.1875 -49.9375 30.363281 -49.824219 30.5625 -49.761719 C 30.652344 -49.730469 30.722656 -49.714844 30.777344 -49.714844 Z M 30.777344 -54.363281 C 31.816406 -54.363281 32.660156 -54.035156 33.3125 -53.382812 C 33.964844 -52.730469 34.289062 -51.886719 34.289062 -50.847656 L 34.289062 -43.414062 C 34.289062 -42.375 33.964844 -41.53125 33.3125 -40.878906 C 32.660156 -40.226562 31.816406 -39.902344 30.777344 -39.902344 L 22.152344 -39.902344 L 22.152344 -42.226562 L 24.476562 -42.226562 L 24.476562 -1.1875 C 24.476562 -0.152344 24.152344 0.695312 23.5 1.34375 C 22.847656 1.996094 22.003906 2.324219 20.964844 2.324219 L 13.234375 2.324219 C 12.195312 2.324219 11.347656 1.996094 10.699219 1.34375 C 10.046875 0.695312 9.71875 -0.152344 9.71875 -1.1875 L 9.71875 -42.226562 L 12.042969 -42.226562 L 12.042969 -39.902344 L 3.417969 -39.902344 C 2.382812 -39.902344 1.535156 -40.226562 0.882812 -40.878906 C 0.234375 -41.53125 -0.09375 -42.375 -0.09375 -43.414062 L -0.09375 -50.847656 C -0.09375 -51.886719 0.234375 -52.730469 0.882812 -53.382812 C 1.535156 -54.035156 2.382812 -54.363281 3.417969 -54.363281 Z M 30.777344 -54.363281 "/></g></g><g style="fill:#b21a22;fill-opacity:1;"><g transform="translate(167.114086, 320.351617)"><path style="stroke:none" d="M 6.097656 -54.363281 L 34.269531 -54.363281 C 35.730469 -54.363281 36.789062 -53.832031 37.4375 -52.773438 C 38.070312 -51.75 38.089844 -50.589844 37.5 -49.292969 L 18.539062 -8.171875 L 16.429688 -9.144531 L 16.429688 -11.46875 L 32.710938 -11.46875 C 33.746094 -11.46875 34.59375 -11.140625 35.246094 -10.488281 C 35.898438 -9.835938 36.222656 -8.992188 36.222656 -7.953125 L 36.222656 -1.265625 C 36.222656 -0.277344 35.914062 0.542969 35.292969 1.203125 C 34.714844 1.820312 33.949219 2.1875 32.996094 2.304688 L 32.855469 2.324219 L 3.566406 2.324219 C 2.945312 2.324219 2.390625 2.214844 1.894531 2 C 1.226562 1.707031 0.714844 1.25 0.363281 0.632812 C -0.246094 -0.433594 -0.242188 -1.585938 0.375 -2.824219 L 2.453125 -1.785156 L 0.347656 -2.769531 L 19.304688 -43.210938 L 21.410156 -42.226562 L 21.410156 -39.902344 L 6.097656 -39.902344 C 5.058594 -39.902344 4.214844 -40.226562 3.5625 -40.878906 C 2.910156 -41.53125 2.582031 -42.375 2.582031 -43.414062 L 2.582031 -50.773438 C 2.582031 -51.761719 2.894531 -52.582031 3.511719 -53.242188 C 4.09375 -53.855469 4.859375 -54.226562 5.808594 -54.34375 L 5.953125 -54.363281 Z M 6.097656 -49.714844 L 6.097656 -52.039062 L 6.382812 -49.734375 C 6.542969 -49.753906 6.710938 -49.859375 6.894531 -50.054688 C 7.117188 -50.292969 7.230469 -50.53125 7.230469 -50.773438 L 7.230469 -43.414062 C 7.230469 -43.46875 7.214844 -43.539062 7.183594 -43.628906 C 7.117188 -43.828125 7.007812 -44.007812 6.847656 -44.164062 C 6.6875 -44.324219 6.507812 -44.4375 6.308594 -44.503906 C 6.21875 -44.535156 6.148438 -44.546875 6.097656 -44.546875 L 25.066406 -44.546875 L 4.542969 -0.769531 L 4.53125 -0.746094 C 4.550781 -0.78125 4.5625 -0.851562 4.566406 -0.960938 C 4.582031 -1.210938 4.527344 -1.445312 4.394531 -1.671875 C 4.242188 -1.945312 4.027344 -2.140625 3.757812 -2.257812 C 3.683594 -2.289062 3.621094 -2.3125 3.558594 -2.320312 L 3.566406 -2.324219 L 32.710938 -2.324219 L 32.710938 0 L 32.421875 -2.304688 C 32.265625 -2.285156 32.09375 -2.179688 31.910156 -1.984375 C 31.6875 -1.746094 31.574219 -1.507812 31.574219 -1.265625 L 31.574219 -7.953125 C 31.574219 -7.902344 31.589844 -7.828125 31.621094 -7.738281 C 31.6875 -7.542969 31.800781 -7.363281 31.960938 -7.203125 C 32.117188 -7.042969 32.296875 -6.929688 32.496094 -6.867188 C 32.585938 -6.835938 32.65625 -6.820312 32.710938 -6.820312 L 12.800781 -6.820312 L 33.269531 -51.214844 C 33.28125 -51.242188 33.289062 -51.257812 33.292969 -51.265625 C 33.28125 -51.226562 33.273438 -51.179688 33.269531 -51.121094 C 33.253906 -50.851562 33.324219 -50.589844 33.480469 -50.335938 C 33.648438 -50.066406 33.867188 -49.875 34.140625 -49.765625 C 34.203125 -49.738281 34.257812 -49.722656 34.308594 -49.714844 C 34.304688 -49.714844 34.292969 -49.714844 34.269531 -49.714844 Z M 6.097656 -49.714844 "/></g></g><g style="fill:#b21a22;fill-opacity:1;"><g transform="translate(204.867071, 320.351617)"><path style="stroke:none" d="M 25.128906 -54.363281 L 31.964844 -54.363281 C 33.003906 -54.363281 33.898438 -53.984375 34.648438 -53.234375 C 35.402344 -52.484375 35.777344 -51.589844 35.777344 -50.550781 L 35.777344 -10.703125 C 35.777344 -6.601562 34.648438 -3.40625 32.394531 -1.117188 C 30.128906 1.175781 26.914062 2.324219 22.75 2.324219 L 14.421875 2.324219 C 10.3125 2.324219 7.113281 1.179688 4.824219 -1.109375 C 2.539062 -3.394531 1.394531 -6.59375 1.394531 -10.703125 L 1.394531 -50.550781 C 1.394531 -51.589844 1.769531 -52.484375 2.519531 -53.234375 C 3.269531 -53.984375 4.164062 -54.363281 5.203125 -54.363281 L 12.339844 -54.363281 C 13.378906 -54.363281 14.273438 -53.984375 15.023438 -53.234375 C 15.773438 -52.484375 16.152344 -51.589844 16.152344 -50.550781 L 16.152344 -12.785156 C 16.152344 -12.542969 16.171875 -12.355469 16.21875 -12.21875 C 16.226562 -12.195312 16.230469 -12.179688 16.238281 -12.167969 C 16.234375 -12.179688 16.222656 -12.1875 16.214844 -12.199219 C 16.203125 -12.210938 16.191406 -12.21875 16.183594 -12.222656 C 16.191406 -12.21875 16.210938 -12.210938 16.234375 -12.203125 C 16.367188 -12.160156 16.558594 -12.136719 16.800781 -12.136719 L 20.667969 -12.136719 C 20.910156 -12.136719 21.101562 -12.160156 21.234375 -12.203125 C 21.257812 -12.210938 21.273438 -12.21875 21.285156 -12.222656 C 21.273438 -12.21875 21.265625 -12.210938 21.253906 -12.199219 C 21.242188 -12.1875 21.234375 -12.179688 21.230469 -12.167969 C 21.234375 -12.179688 21.242188 -12.195312 21.25 -12.21875 C 21.292969 -12.355469 21.316406 -12.542969 21.316406 -12.785156 L 21.316406 -50.550781 C 21.316406 -51.589844 21.691406 -52.484375 22.445312 -53.234375 C 23.195312 -53.984375 24.089844 -54.363281 25.128906 -54.363281 Z M 25.128906 -49.714844 C 25.371094 -49.714844 25.574219 -49.792969 25.730469 -49.949219 C 25.886719 -50.105469 25.964844 -50.304688 25.964844 -50.550781 L 25.964844 -12.785156 C 25.964844 -11.152344 25.488281 -9.863281 24.539062 -8.914062 C 23.589844 -7.964844 22.300781 -7.488281 20.667969 -7.488281 L 16.800781 -7.488281 C 15.167969 -7.488281 13.878906 -7.964844 12.929688 -8.914062 C 11.980469 -9.863281 11.503906 -11.152344 11.503906 -12.785156 L 11.503906 -50.550781 C 11.503906 -50.304688 11.582031 -50.105469 11.738281 -49.949219 C 11.894531 -49.792969 12.09375 -49.714844 12.339844 -49.714844 L 5.203125 -49.714844 C 5.449219 -49.714844 5.648438 -49.792969 5.804688 -49.949219 C 5.960938 -50.105469 6.039062 -50.304688 6.039062 -50.550781 L 6.039062 -10.703125 C 6.039062 -7.878906 6.730469 -5.773438 8.109375 -4.394531 C 9.492188 -3.011719 11.59375 -2.324219 14.421875 -2.324219 L 22.75 -2.324219 C 25.621094 -2.324219 27.730469 -3.007812 29.085938 -4.382812 C 30.449219 -5.761719 31.128906 -7.871094 31.128906 -10.703125 L 31.128906 -50.550781 C 31.128906 -50.304688 31.207031 -50.105469 31.363281 -49.949219 C 31.519531 -49.792969 31.722656 -49.714844 31.964844 -49.714844 Z M 25.128906 -49.714844 "/></g></g><g style="fill:#060705;fill-opacity:1;"><g transform="translate(112.523581, 113.065397)"><path style="stroke:none" d="M 33.453125 -50.84375 L 33.453125 -43.421875 C 33.453125 -42.628906 33.054688 -42.234375 32.265625 -42.234375 L 13.828125 -42.234375 L 13.828125 -29.515625 L 27.796875 -29.515625 C 28.597656 -29.515625 29 -29.117188 29 -28.328125 L 29 -20.890625 C 29 -20.097656 28.597656 -19.703125 27.796875 -19.703125 L 13.828125 -19.703125 L 13.828125 -1.1875 C 13.828125 -0.394531 13.429688 0 12.640625 0 L 4.90625 0 C 4.113281 0 3.71875 -0.394531 3.71875 -1.1875 L 3.71875 -50.84375 C 3.71875 -51.644531 4.113281 -52.046875 4.90625 -52.046875 L 32.265625 -52.046875 C 33.054688 -52.046875 33.453125 -51.644531 33.453125 -50.84375 Z M 33.453125 -50.84375 "/></g></g><g style="fill:#060705;fill-opacity:1;"><g transform="translate(149.68202, 113.065397)"><path style="stroke:none" d="M 13.828125 -9.8125 L 13.828125 -50.84375 C 13.828125 -51.644531 13.429688 -52.046875 12.640625 -52.046875 L 4.90625 -52.046875 C 4.113281 -52.046875 3.71875 -51.644531 3.71875 -50.84375 L 3.71875 -1.1875 C 3.71875 -0.394531 4.113281 0 4.90625 0 L 28.546875 0 C 29.335938 0 29.734375 -0.394531 29.734375 -1.1875 L 29.734375 -8.625 C 29.734375 -9.414062 29.335938 -9.8125 28.546875 -9.8125 Z M 13.828125 -9.8125 "/></g></g><g style="fill:#060705;fill-opacity:1;"><g transform="translate(183.124612, 113.065397)"><path style="stroke:none" d="M 38.8125 0 L 31.59375 0 C 30.945312 0 30.550781 -0.347656 30.40625 -1.046875 L 28.03125 -10.40625 L 14.046875 -10.40625 L 11.75 -1.046875 C 11.59375 -0.347656 11.195312 0 10.5625 0 L 3.265625 0 C 2.378906 0 2.054688 -0.421875 2.296875 -1.265625 L 14.640625 -51 C 14.796875 -51.695312 15.21875 -52.046875 15.90625 -52.046875 L 26.25 -52.046875 C 26.9375 -52.046875 27.351562 -51.695312 27.5 -51 L 39.84375 -1.265625 C 40.09375 -0.421875 39.75 0 38.8125 0 Z M 25.71875 -19.03125 L 21.046875 -39.25 L 16.359375 -19.03125 Z M 25.71875 -19.03125 "/></g></g><g style="fill:#060705;fill-opacity:1;"><g transform="translate(225.26229, 113.065397)"><path style="stroke:none" d="M 3.71875 -10.703125 L 3.71875 -41.328125 C 3.71875 -44.847656 4.632812 -47.515625 6.46875 -49.328125 C 8.300781 -51.140625 10.953125 -52.046875 14.421875 -52.046875 L 22.75 -52.046875 C 26.21875 -52.046875 28.867188 -51.140625 30.703125 -49.328125 C 32.535156 -47.515625 33.453125 -44.847656 33.453125 -41.328125 L 33.453125 -35.828125 C 33.453125 -35.035156 33.054688 -34.640625 32.265625 -34.640625 L 25.28125 -34.640625 C 24.488281 -34.640625 24.09375 -35.035156 24.09375 -35.828125 L 24.09375 -39.46875 C 24.09375 -41.457031 23.097656 -42.453125 21.109375 -42.453125 L 16.359375 -42.453125 C 14.367188 -42.453125 13.375 -41.457031 13.375 -39.46875 L 13.375 -12.5625 C 13.375 -10.582031 14.367188 -9.59375 16.359375 -9.59375 L 21.109375 -9.59375 C 23.097656 -9.59375 24.09375 -10.582031 24.09375 -12.5625 L 24.09375 -19.03125 L 20.21875 -19.03125 C 19.425781 -19.03125 19.03125 -19.425781 19.03125 -20.21875 L 19.03125 -27.65625 C 19.03125 -28.445312 19.425781 -28.84375 20.21875 -28.84375 L 32.265625 -28.84375 C 33.054688 -28.84375 33.453125 -28.445312 33.453125 -27.65625 L 33.453125 -10.703125 C 33.453125 -7.234375 32.535156 -4.582031 30.703125 -2.75 C 28.867188 -0.914062 26.21875 0 22.75 0 L 14.421875 0 C 10.953125 0 8.300781 -0.914062 6.46875 -2.75 C 4.632812 -4.582031 3.71875 -7.234375 3.71875 -10.703125 Z M 3.71875 -10.703125 "/></g></g><g style="fill:#060705;fill-opacity:1;"><g transform="translate(75.188506, 216.708507)"><path style="stroke:none" d="M 0 9.96875 L 0 3.125 C 0 2.132812 0.492188 1.640625 1.484375 1.640625 L 46.3125 1.640625 C 47.300781 1.640625 47.796875 2.132812 47.796875 3.125 L 47.796875 9.96875 C 47.796875 10.957031 47.300781 11.453125 46.3125 11.453125 L 1.484375 11.453125 C 0.492188 11.453125 0 10.957031 0 9.96875 Z M 0 9.96875 "/></g></g><g style="fill:#060705;fill-opacity:1;"><g transform="translate(122.974268, 216.708507)"><path style="stroke:none" d="M 14.421875 -52.046875 L 22.75 -52.046875 C 26.269531 -52.046875 28.929688 -51.140625 30.734375 -49.328125 C 32.546875 -47.515625 33.453125 -44.847656 33.453125 -41.328125 L 33.453125 -36.421875 C 33.453125 -35.628906 33.054688 -35.234375 32.265625 -35.234375 L 24.75 -35.234375 C 23.957031 -35.234375 23.5625 -35.628906 23.5625 -36.421875 L 23.5625 -39.546875 C 23.5625 -41.535156 22.570312 -42.53125 20.59375 -42.53125 L 16.5 -42.53125 C 14.519531 -42.53125 13.53125 -41.535156 13.53125 -39.546875 L 13.53125 -33.234375 L 31.515625 -27.4375 C 32.804688 -26.988281 33.453125 -26.070312 33.453125 -24.6875 L 33.453125 -10.703125 C 33.453125 -7.234375 32.546875 -4.582031 30.734375 -2.75 C 28.929688 -0.914062 26.269531 0 22.75 0 L 14.421875 0 C 10.953125 0 8.300781 -0.914062 6.46875 -2.75 C 4.632812 -4.582031 3.71875 -7.234375 3.71875 -10.703125 L 3.71875 -15.53125 C 3.71875 -16.332031 4.113281 -16.734375 4.90625 -16.734375 L 12.421875 -16.734375 C 13.210938 -16.734375 13.609375 -16.332031 13.609375 -15.53125 L 13.609375 -12.421875 C 13.609375 -10.429688 14.597656 -9.4375 16.578125 -9.4375 L 20.59375 -9.4375 C 22.570312 -9.4375 23.5625 -10.429688 23.5625 -12.421875 L 23.5625 -19.921875 L 5.71875 -25.71875 C 4.382812 -26.164062 3.71875 -27.082031 3.71875 -28.46875 L 3.71875 -41.328125 C 3.71875 -44.847656 4.632812 -47.515625 6.46875 -49.328125 C 8.300781 -51.140625 10.953125 -52.046875 14.421875 -52.046875 Z M 14.421875 -52.046875 "/></g></g><g style="fill:#060705;fill-opacity:1;"><g transform="translate(160.132707, 216.708507)"><path style="stroke:none" d="M 23.34375 -30.78125 L 23.34375 -50.84375 C 23.34375 -51.644531 23.738281 -52.046875 24.53125 -52.046875 L 32.1875 -52.046875 C 33.03125 -52.046875 33.453125 -51.644531 33.453125 -50.84375 L 33.453125 -1.1875 C 33.453125 -0.394531 33.03125 0 32.1875 0 L 24.53125 0 C 23.738281 0 23.34375 -0.394531 23.34375 -1.1875 L 23.34375 -20.96875 L 13.828125 -20.96875 L 13.828125 -1.1875 C 13.828125 -0.394531 13.429688 0 12.640625 0 L 4.984375 0 C 4.140625 0 3.71875 -0.394531 3.71875 -1.1875 L 3.71875 -50.84375 C 3.71875 -51.644531 4.140625 -52.046875 4.984375 -52.046875 L 12.640625 -52.046875 C 13.429688 -52.046875 13.828125 -51.644531 13.828125 -50.84375 L 13.828125 -30.78125 Z M 23.34375 -30.78125 "/></g></g><g style="fill:#060705;fill-opacity:1;"><g transform="translate(197.291146, 216.708507)"><path style="stroke:none" d="M 4.90625 0 L 12.640625 0 C 13.429688 0 13.828125 -0.394531 13.828125 -1.1875 L 13.828125 -50.84375 C 13.828125 -51.644531 13.429688 -52.046875 12.640625 -52.046875 L 4.90625 -52.046875 C 4.113281 -52.046875 3.71875 -51.644531 3.71875 -50.84375 L 3.71875 -1.1875 C 3.71875 -0.394531 4.113281 0 4.90625 0 Z M 4.90625 0 "/></g></g><g style="fill:#060705;fill-opacity:1;"><g transform="translate(214.829917, 216.708507)"><path style="stroke:none" d="M 23.34375 -30.78125 L 23.34375 -50.84375 C 23.34375 -51.644531 23.738281 -52.046875 24.53125 -52.046875 L 32.1875 -52.046875 C 33.03125 -52.046875 33.453125 -51.644531 33.453125 -50.84375 L 33.453125 -1.1875 C 33.453125 -0.394531 33.03125 0 32.1875 0 L 24.53125 0 C 23.738281 0 23.34375 -0.394531 23.34375 -1.1875 L 23.34375 -20.96875 L 13.828125 -20.96875 L 13.828125 -1.1875 C 13.828125 -0.394531 13.429688 0 12.640625 0 L 4.984375 0 C 4.140625 0 3.71875 -0.394531 3.71875 -1.1875 L 3.71875 -50.84375 C 3.71875 -51.644531 4.140625 -52.046875 4.984375 -52.046875 L 12.640625 -52.046875 C 13.429688 -52.046875 13.828125 -51.644531 13.828125 -50.84375 L 13.828125 -30.78125 Z M 23.34375 -30.78125 "/></g></g><g style="fill:#060705;fill-opacity:1;"><g transform="translate(251.988356, 216.708507)"><path style="stroke:none" d="M 0 9.96875 L 0 3.125 C 0 2.132812 0.492188 1.640625 1.484375 1.640625 L 46.3125 1.640625 C 47.300781 1.640625 47.796875 2.132812 47.796875 3.125 L 47.796875 9.96875 C 47.796875 10.957031 47.300781 11.453125 46.3125 11.453125 L 1.484375 11.453125 C 0.492188 11.453125 0 10.957031 0 9.96875 Z M 0 9.96875 "/></g></g><g style="fill:#060705;fill-opacity:1;"><g transform="translate(132.928318, 320.351617)"><path style="stroke:none" d="M 30.78125 -52.046875 L 3.421875 -52.046875 C 2.628906 -52.046875 2.234375 -51.644531 2.234375 -50.84375 L 2.234375 -43.421875 C 2.234375 -42.628906 2.628906 -42.234375 3.421875 -42.234375 L 12.046875 -42.234375 L 12.046875 -1.1875 C 12.046875 -0.394531 12.441406 0 13.234375 0 L 20.96875 0 C 21.757812 0 22.15625 -0.394531 22.15625 -1.1875 L 22.15625 -42.234375 L 30.78125 -42.234375 C 31.570312 -42.234375 31.96875 -42.628906 31.96875 -43.421875 L 31.96875 -50.84375 C 31.96875 -51.644531 31.570312 -52.046875 30.78125 -52.046875 Z M 30.78125 -52.046875 "/></g></g><g style="fill:#060705;fill-opacity:1;"><g transform="translate(167.114086, 320.351617)"><path style="stroke:none" d="M 6.09375 -52.046875 L 34.265625 -52.046875 C 34.867188 -52.046875 35.269531 -51.882812 35.46875 -51.5625 C 35.664062 -51.238281 35.640625 -50.800781 35.390625 -50.25 L 16.4375 -9.140625 L 32.71875 -9.140625 C 33.507812 -9.140625 33.90625 -8.742188 33.90625 -7.953125 L 33.90625 -1.265625 C 33.90625 -0.523438 33.507812 -0.101562 32.71875 0 L 3.5625 0 C 2.96875 0 2.570312 -0.171875 2.375 -0.515625 C 2.175781 -0.867188 2.203125 -1.289062 2.453125 -1.78125 L 21.40625 -42.234375 L 6.09375 -42.234375 C 5.300781 -42.234375 4.90625 -42.628906 4.90625 -43.421875 L 4.90625 -50.78125 C 4.90625 -51.519531 5.300781 -51.941406 6.09375 -52.046875 Z M 6.09375 -52.046875 "/></g></g><g style="fill:#060705;fill-opacity:1;"><g transform="translate(204.867071, 320.351617)"><path style="stroke:none" d="M 25.125 -52.046875 L 31.96875 -52.046875 C 32.363281 -52.046875 32.707031 -51.894531 33 -51.59375 C 33.300781 -51.300781 33.453125 -50.953125 33.453125 -50.546875 L 33.453125 -10.703125 C 33.453125 -7.234375 32.546875 -4.582031 30.734375 -2.75 C 28.929688 -0.914062 26.269531 0 22.75 0 L 14.421875 0 C 10.953125 0 8.300781 -0.914062 6.46875 -2.75 C 4.632812 -4.582031 3.71875 -7.234375 3.71875 -10.703125 L 3.71875 -50.546875 C 3.71875 -50.953125 3.863281 -51.300781 4.15625 -51.59375 C 4.457031 -51.894531 4.804688 -52.046875 5.203125 -52.046875 L 12.34375 -52.046875 C 12.738281 -52.046875 13.082031 -51.894531 13.375 -51.59375 C 13.675781 -51.300781 13.828125 -50.953125 13.828125 -50.546875 L 13.828125 -12.78125 C 13.828125 -10.800781 14.816406 -9.8125 16.796875 -9.8125 L 20.671875 -9.8125 C 22.648438 -9.8125 23.640625 -10.800781 23.640625 -12.78125 L 23.640625 -50.546875 C 23.640625 -50.953125 23.785156 -51.300781 24.078125 -51.59375 C 24.378906 -51.894531 24.726562 -52.046875 25.125 -52.046875 Z M 25.125 -52.046875 "/></g></g></g></svg>