<svg xmlns="http://www.w3.org/2000/svg" xmlns:xlink="http://www.w3.org/1999/xlink" width="500" zoomAndPan="magnify" viewBox="0 0 375 374.999991" height="500" preserveAspectRatio="xMidYMid meet" version="1.2"><defs><clipPath id="af339e0af5"><path d="M 25 0 L 350 0 L 350 375 L 25 375 Z M 25 0 "/></clipPath><clipPath id="552f5df66e"><path d="M -55.878906 142.882812 L 268.328125 -46.476562 L 431 232.042969 L 106.789062 421.402344 Z M -55.878906 142.882812 "/></clipPath><clipPath id="93431415d7"><path d="M 349.546875 92.851562 L 349.859375 279.433594 L 187.8125 374.078125 L 25.453125 282.140625 L 25.140625 95.5625 L 187.1875 0.917969 Z M 349.546875 92.851562 "/></clipPath><clipPath id="f1bd2bcbb5"><path d="M 55.238281 35.632812 L 319.726562 35.632812 L 319.726562 339 L 55.238281 339 Z M 55.238281 35.632812 "/></clipPath></defs><g id="e4f66d7acd"><g clip-rule="nonzero" clip-path="url(#af339e0af5)"><g clip-rule="nonzero" clip-path="url(#552f5df66e)"><g clip-rule="nonzero" clip-path="url(#93431415d7)"><path style=" stroke:none;fill-rule:nonzero;fill:#65b30e;fill-opacity:1;" d="M -55.878906 142.882812 L 268.332031 -46.476562 L 431 232.042969 L 106.789062 421.402344 Z M -55.878906 142.882812 "/></g></g></g><path style=" stroke:none;fill-rule:nonzero;fill:#87ff00;fill-opacity:1;" d="M 134.582031 135.703125 L 134.414062 135.535156 L 97.035156 172.914062 L 187.792969 263.503906 L 225.175781 226.296875 L 278.546875 172.914062 L 241.167969 135.535156 L 241.167969 135.363281 L 134.417969 135.363281 Z M 134.582031 135.703125 "/><g clip-rule="nonzero" clip-path="url(#f1bd2bcbb5)"><path style=" stroke:none;fill-rule:nonzero;fill:#87ff00;fill-opacity:1;" d="M 187.453125 35.851562 L 55.269531 111.625 L 55.273438 263.175781 L 187.457031 338.949219 L 319.640625 263.175781 L 319.640625 111.625 L 187.457031 35.855469 Z M 294.375 248.683594 L 187.453125 310.308594 L 80.527344 248.683594 L 80.53125 125.765625 L 187.457031 64.136719 L 294.378906 125.765625 L 294.378906 248.683594 Z M 294.375 248.683594 "/></g><g style="fill:#b21a22;fill-opacity:1;"><g transform="translate(48.340302, 208.921465)"><path style="stroke:none" d="M 2.507812 -45.320312 L 22.570312 -45.320312 C 23.332031 -45.320312 23.953125 -45.082031 24.429688 -44.605469 C 24.910156 -44.125 25.148438 -43.503906 25.148438 -42.746094 L 25.148438 -37.292969 C 25.148438 -36.53125 24.910156 -35.910156 24.429688 -35.433594 C 23.953125 -34.957031 23.332031 -34.714844 22.570312 -34.714844 L 16.246094 -34.714844 L 16.246094 -36.421875 L 17.953125 -36.421875 L 17.953125 -0.871094 C 17.953125 -0.109375 17.710938 0.507812 17.234375 0.988281 C 16.757812 1.464844 16.136719 1.703125 15.375 1.703125 L 9.703125 1.703125 C 8.945312 1.703125 8.324219 1.464844 7.84375 0.988281 C 7.367188 0.507812 7.128906 -0.109375 7.128906 -0.871094 L 7.128906 -36.421875 L 8.832031 -36.421875 L 8.832031 -34.714844 L 2.507812 -34.714844 C 1.746094 -34.714844 1.128906 -34.957031 0.648438 -35.433594 C 0.171875 -35.910156 -0.0664062 -36.53125 -0.0664062 -37.292969 L -0.0664062 -42.746094 C -0.0664062 -43.503906 0.171875 -44.125 0.648438 -44.605469 C 1.128906 -45.082031 1.746094 -45.320312 2.507812 -45.320312 Z M 2.507812 -41.914062 C 2.546875 -41.914062 2.597656 -41.925781 2.664062 -41.945312 C 2.808594 -41.996094 2.941406 -42.078125 3.058594 -42.195312 C 3.175781 -42.3125 3.257812 -42.441406 3.304688 -42.585938 C 3.328125 -42.652344 3.339844 -42.707031 3.339844 -42.746094 L 3.339844 -37.292969 C 3.339844 -37.332031 3.328125 -37.382812 3.304688 -37.449219 C 3.257812 -37.59375 3.175781 -37.726562 3.058594 -37.84375 C 2.941406 -37.960938 2.808594 -38.042969 2.664062 -38.089844 C 2.597656 -38.113281 2.546875 -38.125 2.507812 -38.125 L 10.535156 -38.125 L 10.535156 -0.871094 C 10.535156 -0.910156 10.523438 -0.964844 10.503906 -1.03125 C 10.453125 -1.175781 10.371094 -1.304688 10.253906 -1.421875 C 10.136719 -1.539062 10.007812 -1.621094 9.863281 -1.671875 C 9.796875 -1.691406 9.742188 -1.703125 9.703125 -1.703125 L 15.375 -1.703125 C 15.335938 -1.703125 15.285156 -1.691406 15.21875 -1.671875 C 15.074219 -1.621094 14.941406 -1.539062 14.824219 -1.421875 C 14.707031 -1.304688 14.625 -1.175781 14.578125 -1.03125 C 14.554688 -0.964844 14.542969 -0.910156 14.542969 -0.871094 L 14.542969 -38.125 L 22.570312 -38.125 C 22.53125 -38.125 22.480469 -38.113281 22.414062 -38.089844 C 22.269531 -38.042969 22.136719 -37.960938 22.019531 -37.84375 C 21.902344 -37.726562 21.820312 -37.59375 21.773438 -37.449219 C 21.75 -37.382812 21.738281 -37.332031 21.738281 -37.292969 L 21.738281 -42.746094 C 21.738281 -42.707031 21.75 -42.652344 21.773438 -42.585938 C 21.820312 -42.441406 21.902344 -42.3125 22.019531 -42.195312 C 22.136719 -42.078125 22.269531 -41.996094 22.414062 -41.945312 C 22.480469 -41.925781 22.53125 -41.914062 22.570312 -41.914062 Z M 2.507812 -41.914062 "/></g></g><g style="fill:#b21a22;fill-opacity:1;"><g transform="translate(73.412079, 208.921465)"><path style="stroke:none" d="M 26.183594 -37.292969 L 26.183594 -31.839844 C 26.183594 -31.082031 25.957031 -30.460938 25.503906 -29.976562 C 25.019531 -29.464844 24.390625 -29.210938 23.609375 -29.210938 L 10.140625 -29.210938 L 10.140625 -30.914062 L 11.84375 -30.914062 L 11.84375 -22.515625 L 10.140625 -22.515625 L 10.140625 -24.222656 L 20.390625 -24.222656 C 21.171875 -24.222656 21.804688 -23.964844 22.285156 -23.453125 C 22.738281 -22.972656 22.96875 -22.351562 22.96875 -21.589844 L 22.96875 -16.191406 C 22.96875 -15.433594 22.738281 -14.8125 22.285156 -14.328125 C 21.804688 -13.816406 21.171875 -13.5625 20.390625 -13.5625 L 10.140625 -13.5625 L 10.140625 -15.265625 L 11.84375 -15.265625 L 11.84375 -7.195312 L 10.140625 -7.195312 L 10.140625 -8.902344 L 23.609375 -8.902344 C 24.367188 -8.902344 24.988281 -8.660156 25.464844 -8.183594 C 25.945312 -7.707031 26.183594 -7.085938 26.183594 -6.324219 L 26.183594 -0.871094 C 26.183594 -0.109375 25.945312 0.507812 25.464844 0.988281 C 24.988281 1.464844 24.367188 1.703125 23.609375 1.703125 L 3.542969 1.703125 C 2.777344 1.703125 2.160156 1.453125 1.6875 0.949219 C 1.242188 0.472656 1.023438 -0.132812 1.023438 -0.871094 L 1.023438 -37.292969 C 1.023438 -38.03125 1.242188 -38.640625 1.6875 -39.113281 C 2.160156 -39.617188 2.777344 -39.867188 3.542969 -39.867188 L 23.609375 -39.867188 C 24.367188 -39.867188 24.988281 -39.628906 25.464844 -39.152344 C 25.945312 -38.671875 26.183594 -38.054688 26.183594 -37.292969 Z M 22.777344 -37.292969 C 22.777344 -37.253906 22.785156 -37.199219 22.808594 -37.136719 C 22.859375 -36.988281 22.941406 -36.859375 23.058594 -36.742188 C 23.175781 -36.625 23.304688 -36.542969 23.449219 -36.492188 C 23.515625 -36.472656 23.570312 -36.460938 23.609375 -36.460938 L 3.542969 -36.460938 C 3.761719 -36.460938 3.972656 -36.566406 4.171875 -36.78125 C 4.285156 -36.898438 4.359375 -37.027344 4.402344 -37.164062 C 4.421875 -37.222656 4.429688 -37.265625 4.429688 -37.292969 L 4.429688 -0.871094 C 4.429688 -0.898438 4.421875 -0.941406 4.402344 -1 C 4.359375 -1.136719 4.285156 -1.265625 4.171875 -1.382812 C 3.972656 -1.597656 3.761719 -1.703125 3.542969 -1.703125 L 23.609375 -1.703125 C 23.570312 -1.703125 23.515625 -1.691406 23.449219 -1.671875 C 23.304688 -1.621094 23.175781 -1.539062 23.058594 -1.421875 C 22.941406 -1.304688 22.859375 -1.175781 22.808594 -1.03125 C 22.785156 -0.964844 22.777344 -0.910156 22.777344 -0.871094 L 22.777344 -6.324219 C 22.777344 -6.285156 22.785156 -6.234375 22.808594 -6.167969 C 22.859375 -6.023438 22.941406 -5.890625 23.058594 -5.773438 C 23.175781 -5.65625 23.304688 -5.574219 23.449219 -5.527344 C 23.515625 -5.503906 23.570312 -5.492188 23.609375 -5.492188 L 8.4375 -5.492188 L 8.4375 -16.96875 L 20.390625 -16.96875 C 20.339844 -16.96875 20.277344 -16.957031 20.203125 -16.929688 C 20.054688 -16.875 19.921875 -16.789062 19.804688 -16.664062 C 19.699219 -16.554688 19.625 -16.429688 19.582031 -16.296875 C 19.566406 -16.246094 19.558594 -16.210938 19.558594 -16.191406 L 19.558594 -21.589844 C 19.558594 -21.570312 19.566406 -21.535156 19.582031 -21.484375 C 19.625 -21.351562 19.699219 -21.230469 19.804688 -21.117188 C 19.921875 -20.996094 20.054688 -20.90625 20.203125 -20.851562 C 20.277344 -20.828125 20.339844 -20.8125 20.390625 -20.8125 L 8.4375 -20.8125 L 8.4375 -32.617188 L 23.609375 -32.617188 C 23.558594 -32.617188 23.496094 -32.605469 23.421875 -32.578125 C 23.269531 -32.523438 23.136719 -32.4375 23.019531 -32.3125 C 22.914062 -32.199219 22.839844 -32.078125 22.800781 -31.945312 C 22.785156 -31.894531 22.777344 -31.859375 22.777344 -31.839844 Z M 22.777344 -37.292969 "/></g></g><g style="fill:#b21a22;fill-opacity:1;"><g transform="translate(100.609495, 208.921465)"><path style="stroke:none" d="M 10.578125 -39.867188 L 16.683594 -39.867188 C 19.734375 -39.867188 22.089844 -39.039062 23.75 -37.378906 C 25.410156 -35.71875 26.238281 -33.363281 26.238281 -30.3125 L 26.238281 -26.714844 C 26.238281 -25.953125 26 -25.335938 25.519531 -24.855469 C 25.042969 -24.378906 24.421875 -24.140625 23.664062 -24.140625 L 18.15625 -24.140625 C 17.394531 -24.140625 16.773438 -24.378906 16.296875 -24.855469 C 15.816406 -25.335938 15.578125 -25.953125 15.578125 -26.714844 L 15.578125 -29.003906 C 15.578125 -29.183594 15.5625 -29.324219 15.53125 -29.421875 C 15.523438 -29.4375 15.519531 -29.449219 15.515625 -29.457031 C 15.519531 -29.453125 15.523438 -29.445312 15.53125 -29.4375 C 15.542969 -29.429688 15.546875 -29.421875 15.554688 -29.417969 C 15.546875 -29.421875 15.535156 -29.425781 15.519531 -29.433594 C 15.417969 -29.464844 15.28125 -29.480469 15.101562 -29.480469 L 12.105469 -29.480469 C 11.925781 -29.480469 11.785156 -29.464844 11.6875 -29.433594 C 11.671875 -29.425781 11.65625 -29.421875 11.652344 -29.417969 C 11.65625 -29.421875 11.664062 -29.429688 11.671875 -29.4375 C 11.679688 -29.445312 11.6875 -29.453125 11.691406 -29.457031 C 11.6875 -29.449219 11.679688 -29.4375 11.675781 -29.421875 C 11.644531 -29.324219 11.625 -29.183594 11.625 -29.003906 L 11.625 -24.371094 L 9.921875 -24.371094 L 10.445312 -25.992188 L 23.640625 -21.738281 C 24.480469 -21.449219 25.128906 -20.984375 25.574219 -20.347656 C 26.015625 -19.71875 26.238281 -18.96875 26.238281 -18.101562 L 26.238281 -7.851562 C 26.238281 -4.839844 25.410156 -2.496094 23.757812 -0.820312 C 22.097656 0.863281 19.738281 1.703125 16.683594 1.703125 L 10.578125 1.703125 C 7.5625 1.703125 5.214844 0.863281 3.539062 -0.8125 C 1.859375 -2.488281 1.023438 -4.835938 1.023438 -7.851562 L 1.023438 -11.394531 C 1.023438 -12.15625 1.261719 -12.777344 1.738281 -13.253906 C 2.21875 -13.730469 2.835938 -13.972656 3.597656 -13.972656 L 9.105469 -13.972656 C 9.867188 -13.972656 10.484375 -13.730469 10.964844 -13.253906 C 11.441406 -12.777344 11.679688 -12.15625 11.679688 -11.394531 L 11.679688 -9.105469 C 11.679688 -8.925781 11.699219 -8.789062 11.730469 -8.691406 C 11.734375 -8.671875 11.742188 -8.660156 11.746094 -8.652344 C 11.742188 -8.660156 11.734375 -8.667969 11.726562 -8.675781 C 11.71875 -8.683594 11.710938 -8.6875 11.707031 -8.691406 C 11.710938 -8.6875 11.726562 -8.683594 11.742188 -8.675781 C 11.839844 -8.644531 11.980469 -8.628906 12.160156 -8.628906 L 15.101562 -8.628906 C 15.28125 -8.628906 15.417969 -8.644531 15.519531 -8.675781 C 15.535156 -8.683594 15.546875 -8.6875 15.554688 -8.691406 C 15.546875 -8.6875 15.542969 -8.683594 15.53125 -8.675781 C 15.523438 -8.667969 15.519531 -8.660156 15.515625 -8.652344 C 15.519531 -8.660156 15.523438 -8.671875 15.53125 -8.691406 C 15.5625 -8.789062 15.578125 -8.925781 15.578125 -9.105469 L 15.578125 -14.613281 L 17.28125 -14.613281 L 16.757812 -12.992188 L 3.671875 -17.242188 C 2.828125 -17.523438 2.175781 -17.980469 1.71875 -18.609375 C 1.253906 -19.246094 1.023438 -20.003906 1.023438 -20.882812 L 1.023438 -30.3125 C 1.023438 -33.371094 1.863281 -35.726562 3.546875 -37.386719 C 5.222656 -39.042969 7.566406 -39.867188 10.578125 -39.867188 Z M 10.578125 -36.460938 C 8.5 -36.460938 6.953125 -35.960938 5.941406 -34.960938 C 4.933594 -33.96875 4.429688 -32.417969 4.429688 -30.3125 L 4.429688 -20.882812 C 4.429688 -20.742188 4.445312 -20.65625 4.46875 -20.617188 C 4.5 -20.574219 4.585938 -20.53125 4.726562 -20.484375 L 18.988281 -15.847656 L 18.988281 -9.105469 C 18.988281 -7.90625 18.640625 -6.960938 17.941406 -6.265625 C 17.246094 -5.570312 16.300781 -5.21875 15.101562 -5.21875 L 12.160156 -5.21875 C 10.960938 -5.21875 10.015625 -5.570312 9.316406 -6.265625 C 8.621094 -6.960938 8.273438 -7.90625 8.273438 -9.105469 L 8.273438 -11.394531 C 8.273438 -11.355469 8.285156 -11.304688 8.304688 -11.238281 C 8.355469 -11.09375 8.4375 -10.960938 8.554688 -10.84375 C 8.671875 -10.726562 8.800781 -10.644531 8.949219 -10.597656 C 9.015625 -10.574219 9.066406 -10.5625 9.105469 -10.5625 L 3.597656 -10.5625 C 3.636719 -10.5625 3.691406 -10.574219 3.753906 -10.597656 C 3.902344 -10.644531 4.03125 -10.726562 4.148438 -10.84375 C 4.265625 -10.960938 4.347656 -11.09375 4.398438 -11.238281 C 4.417969 -11.304688 4.429688 -11.355469 4.429688 -11.394531 L 4.429688 -7.851562 C 4.429688 -5.777344 4.9375 -4.234375 5.949219 -3.222656 C 6.960938 -2.210938 8.503906 -1.703125 10.578125 -1.703125 L 16.683594 -1.703125 C 18.789062 -1.703125 20.339844 -2.207031 21.332031 -3.214844 C 22.332031 -4.226562 22.832031 -5.773438 22.832031 -7.851562 L 22.832031 -18.101562 C 22.832031 -18.25 22.816406 -18.347656 22.785156 -18.390625 C 22.761719 -18.425781 22.695312 -18.460938 22.59375 -18.496094 L 8.21875 -23.128906 L 8.21875 -29.003906 C 8.21875 -30.203125 8.566406 -31.148438 9.261719 -31.84375 C 9.960938 -32.542969 10.90625 -32.890625 12.105469 -32.890625 L 15.101562 -32.890625 C 16.300781 -32.890625 17.246094 -32.542969 17.941406 -31.84375 C 18.640625 -31.148438 18.988281 -30.203125 18.988281 -29.003906 L 18.988281 -26.714844 C 18.988281 -26.753906 18.976562 -26.808594 18.953125 -26.871094 C 18.90625 -27.019531 18.824219 -27.148438 18.707031 -27.265625 C 18.589844 -27.382812 18.457031 -27.464844 18.3125 -27.515625 C 18.246094 -27.535156 18.195312 -27.546875 18.15625 -27.546875 L 23.664062 -27.546875 C 23.625 -27.546875 23.570312 -27.535156 23.503906 -27.515625 C 23.359375 -27.464844 23.226562 -27.382812 23.113281 -27.265625 C 22.996094 -27.148438 22.910156 -27.019531 22.863281 -26.871094 C 22.839844 -26.808594 22.832031 -26.753906 22.832031 -26.714844 L 22.832031 -30.3125 C 22.832031 -32.425781 22.332031 -33.976562 21.339844 -34.96875 C 20.34375 -35.964844 18.792969 -36.460938 16.683594 -36.460938 Z M 10.578125 -36.460938 "/></g></g><g style="fill:#b21a22;fill-opacity:1;"><g transform="translate(127.861424, 208.921465)"><path style="stroke:none" d="M 22.570312 -36.460938 L 2.507812 -36.460938 C 2.546875 -36.460938 2.597656 -36.472656 2.664062 -36.492188 C 2.808594 -36.542969 2.941406 -36.625 3.058594 -36.742188 C 3.175781 -36.859375 3.257812 -36.988281 3.304688 -37.136719 C 3.328125 -37.199219 3.339844 -37.253906 3.339844 -37.292969 L 3.339844 -31.839844 C 3.339844 -31.878906 3.328125 -31.933594 3.304688 -31.996094 C 3.257812 -32.144531 3.175781 -32.273438 3.058594 -32.390625 C 2.941406 -32.507812 2.808594 -32.589844 2.664062 -32.640625 C 2.597656 -32.660156 2.546875 -32.671875 2.507812 -32.671875 L 10.535156 -32.671875 L 10.535156 -0.871094 C 10.535156 -0.910156 10.523438 -0.964844 10.503906 -1.03125 C 10.453125 -1.175781 10.371094 -1.304688 10.253906 -1.421875 C 10.136719 -1.539062 10.007812 -1.621094 9.863281 -1.671875 C 9.796875 -1.691406 9.742188 -1.703125 9.703125 -1.703125 L 15.375 -1.703125 C 15.335938 -1.703125 15.285156 -1.691406 15.21875 -1.671875 C 15.074219 -1.621094 14.941406 -1.539062 14.824219 -1.421875 C 14.707031 -1.304688 14.625 -1.175781 14.578125 -1.03125 C 14.554688 -0.964844 14.542969 -0.910156 14.542969 -0.871094 L 14.542969 -32.671875 L 22.570312 -32.671875 C 22.53125 -32.671875 22.480469 -32.660156 22.414062 -32.640625 C 22.269531 -32.589844 22.136719 -32.507812 22.019531 -32.390625 C 21.902344 -32.273438 21.820312 -32.144531 21.773438 -31.996094 C 21.75 -31.933594 21.738281 -31.878906 21.738281 -31.839844 L 21.738281 -37.292969 C 21.738281 -37.253906 21.75 -37.199219 21.773438 -37.136719 C 21.820312 -36.988281 21.902344 -36.859375 22.019531 -36.742188 C 22.136719 -36.625 22.269531 -36.542969 22.414062 -36.492188 C 22.480469 -36.472656 22.53125 -36.460938 22.570312 -36.460938 Z M 22.570312 -39.867188 C 23.332031 -39.867188 23.953125 -39.628906 24.429688 -39.152344 C 24.910156 -38.671875 25.148438 -38.054688 25.148438 -37.292969 L 25.148438 -31.839844 C 25.148438 -31.078125 24.910156 -30.460938 24.429688 -29.980469 C 23.953125 -29.503906 23.332031 -29.265625 22.570312 -29.265625 L 16.246094 -29.265625 L 16.246094 -30.96875 L 17.953125 -30.96875 L 17.953125 -0.871094 C 17.953125 -0.109375 17.710938 0.507812 17.234375 0.988281 C 16.757812 1.464844 16.136719 1.703125 15.375 1.703125 L 9.703125 1.703125 C 8.945312 1.703125 8.324219 1.464844 7.84375 0.988281 C 7.367188 0.507812 7.128906 -0.109375 7.128906 -0.871094 L 7.128906 -30.96875 L 8.832031 -30.96875 L 8.832031 -29.265625 L 2.507812 -29.265625 C 1.746094 -29.265625 1.128906 -29.503906 0.648438 -29.980469 C 0.171875 -30.460938 -0.0664062 -31.078125 -0.0664062 -31.839844 L -0.0664062 -37.292969 C -0.0664062 -38.054688 0.171875 -38.671875 0.648438 -39.152344 C 1.128906 -39.628906 1.746094 -39.867188 2.507812 -39.867188 Z M 22.570312 -39.867188 "/></g></g><g style="fill:#b21a22;fill-opacity:1;"><g transform="translate(152.933202, 208.921465)"><path style="stroke:none" d="M 1.023438 -17.121094 L 1.023438 -22.136719 C 1.023438 -22.96875 1.28125 -23.644531 1.792969 -24.160156 C 2.308594 -24.671875 2.984375 -24.929688 3.816406 -24.929688 L 12.429688 -24.929688 C 13.265625 -24.929688 13.9375 -24.671875 14.453125 -24.160156 C 14.96875 -23.644531 15.226562 -22.96875 15.226562 -22.136719 L 15.226562 -17.121094 C 15.226562 -16.285156 14.96875 -15.613281 14.453125 -15.097656 C 13.9375 -14.582031 13.265625 -14.324219 12.429688 -14.324219 L 3.816406 -14.324219 C 2.984375 -14.324219 2.308594 -14.582031 1.792969 -15.097656 C 1.28125 -15.613281 1.023438 -16.285156 1.023438 -17.121094 Z M 4.429688 -17.121094 C 4.429688 -17.113281 4.429688 -17.105469 4.429688 -17.101562 C 4.429688 -17.101562 4.429688 -17.101562 4.429688 -17.105469 C 4.425781 -17.125 4.421875 -17.152344 4.410156 -17.179688 C 4.371094 -17.300781 4.300781 -17.40625 4.203125 -17.507812 C 4.105469 -17.605469 3.996094 -17.675781 3.878906 -17.714844 C 3.847656 -17.722656 3.824219 -17.730469 3.800781 -17.734375 C 3.800781 -17.734375 3.796875 -17.734375 3.796875 -17.734375 C 3.800781 -17.734375 3.808594 -17.734375 3.816406 -17.734375 L 12.429688 -17.734375 C 12.4375 -17.734375 12.445312 -17.734375 12.449219 -17.734375 C 12.449219 -17.734375 12.449219 -17.734375 12.445312 -17.734375 C 12.421875 -17.730469 12.398438 -17.722656 12.367188 -17.714844 C 12.25 -17.675781 12.140625 -17.605469 12.042969 -17.507812 C 11.945312 -17.40625 11.875 -17.300781 11.835938 -17.179688 C 11.828125 -17.152344 11.820312 -17.125 11.816406 -17.105469 C 11.816406 -17.101562 11.816406 -17.101562 11.816406 -17.101562 C 11.816406 -17.105469 11.816406 -17.113281 11.816406 -17.121094 L 11.816406 -22.136719 C 11.816406 -22.144531 11.816406 -22.148438 11.816406 -22.152344 C 11.816406 -22.152344 11.816406 -22.152344 11.816406 -22.148438 C 11.820312 -22.128906 11.828125 -22.101562 11.835938 -22.074219 C 11.875 -21.957031 11.945312 -21.847656 12.042969 -21.75 C 12.140625 -21.648438 12.25 -21.582031 12.367188 -21.542969 C 12.398438 -21.53125 12.421875 -21.523438 12.445312 -21.523438 C 12.449219 -21.523438 12.449219 -21.523438 12.449219 -21.523438 C 12.445312 -21.523438 12.4375 -21.523438 12.429688 -21.523438 L 3.816406 -21.523438 C 3.808594 -21.523438 3.800781 -21.523438 3.796875 -21.523438 C 3.796875 -21.523438 3.800781 -21.523438 3.800781 -21.523438 C 3.824219 -21.523438 3.847656 -21.53125 3.878906 -21.542969 C 3.996094 -21.582031 4.105469 -21.648438 4.203125 -21.75 C 4.300781 -21.847656 4.371094 -21.957031 4.410156 -22.074219 C 4.421875 -22.101562 4.425781 -22.128906 4.429688 -22.148438 C 4.429688 -22.152344 4.429688 -22.152344 4.429688 -22.152344 C 4.429688 -22.148438 4.429688 -22.144531 4.429688 -22.136719 Z M 4.429688 -17.121094 "/></g></g><g style="fill:#b21a22;fill-opacity:1;"><g transform="translate(169.175347, 208.921465)"><path style="stroke:none" d="M 26.386719 -21.441406 L 28.625 -21.441406 C 29.457031 -21.441406 30.132812 -21.183594 30.644531 -20.667969 C 31.160156 -20.15625 31.417969 -19.480469 31.417969 -18.644531 L 31.417969 -13.957031 C 31.417969 -13.125 31.160156 -12.449219 30.644531 -11.933594 C 30.132812 -11.421875 29.457031 -11.164062 28.625 -11.164062 L 26.386719 -11.164062 L 26.386719 -12.867188 L 28.09375 -12.867188 L 28.09375 -1.089844 C 28.09375 -0.257812 27.835938 0.417969 27.320312 0.933594 C 26.804688 1.445312 26.132812 1.703125 25.296875 1.703125 L 20.554688 1.703125 C 19.71875 1.703125 19.046875 1.445312 18.53125 0.933594 C 18.015625 0.417969 17.761719 -0.257812 17.761719 -1.089844 L 17.761719 -12.976562 L 19.464844 -12.976562 L 19.464844 -11.273438 L 3.816406 -11.273438 C 2.984375 -11.273438 2.308594 -11.53125 1.792969 -12.042969 C 1.28125 -12.558594 1.023438 -13.234375 1.023438 -14.066406 L 1.023438 -18.917969 C 1.023438 -19.722656 1.238281 -20.464844 1.671875 -21.140625 L 15.671875 -43.804688 L 17.121094 -42.90625 L 15.621094 -43.714844 C 15.90625 -44.25 16.308594 -44.660156 16.824219 -44.9375 C 17.296875 -45.191406 17.832031 -45.320312 18.429688 -45.320312 L 24.152344 -45.320312 C 25.222656 -45.320312 26 -44.933594 26.476562 -44.15625 C 26.773438 -43.671875 26.871094 -43.140625 26.773438 -42.558594 C 26.707031 -42.175781 26.550781 -41.785156 26.300781 -41.394531 L 24.863281 -42.308594 L 26.320312 -41.429688 L 12.636719 -18.746094 L 11.175781 -19.628906 L 11.175781 -21.332031 L 19.464844 -21.332031 L 19.464844 -19.628906 L 17.761719 -19.628906 L 17.761719 -26.171875 C 17.761719 -27.003906 18.015625 -27.679688 18.53125 -28.191406 C 19.046875 -28.707031 19.71875 -28.964844 20.554688 -28.964844 L 25.296875 -28.964844 C 26.132812 -28.964844 26.804688 -28.707031 27.320312 -28.191406 C 27.835938 -27.679688 28.09375 -27.003906 28.09375 -26.171875 L 28.09375 -19.738281 L 26.386719 -19.738281 Z M 24.683594 -18.03125 L 24.683594 -26.171875 C 24.683594 -26.179688 24.683594 -26.183594 24.683594 -26.1875 C 24.683594 -26.1875 24.683594 -26.1875 24.683594 -26.183594 C 24.6875 -26.164062 24.695312 -26.136719 24.703125 -26.109375 C 24.742188 -25.992188 24.8125 -25.882812 24.910156 -25.78125 C 25.007812 -25.683594 25.117188 -25.617188 25.234375 -25.574219 C 25.265625 -25.566406 25.289062 -25.558594 25.3125 -25.558594 C 25.316406 -25.554688 25.316406 -25.554688 25.316406 -25.554688 C 25.3125 -25.554688 25.304688 -25.558594 25.296875 -25.558594 L 20.554688 -25.558594 C 20.546875 -25.558594 20.539062 -25.554688 20.535156 -25.554688 C 20.535156 -25.554688 20.539062 -25.554688 20.539062 -25.558594 C 20.5625 -25.558594 20.585938 -25.566406 20.617188 -25.574219 C 20.734375 -25.617188 20.84375 -25.683594 20.941406 -25.78125 C 21.039062 -25.882812 21.109375 -25.992188 21.148438 -26.109375 C 21.160156 -26.136719 21.164062 -26.164062 21.167969 -26.183594 C 21.167969 -26.1875 21.167969 -26.1875 21.167969 -26.1875 C 21.167969 -26.183594 21.167969 -26.179688 21.167969 -26.171875 L 21.167969 -17.921875 L 8.160156 -17.921875 L 23.414062 -43.207031 L 23.425781 -43.222656 C 23.4375 -43.246094 23.449219 -43.261719 23.449219 -43.265625 C 23.433594 -43.230469 23.421875 -43.1875 23.414062 -43.132812 C 23.367188 -42.871094 23.421875 -42.617188 23.574219 -42.371094 C 23.695312 -42.171875 23.855469 -42.03125 24.058594 -41.949219 C 24.101562 -41.929688 24.144531 -41.917969 24.179688 -41.914062 C 24.179688 -41.914062 24.171875 -41.914062 24.152344 -41.914062 L 18.429688 -41.914062 C 18.398438 -41.914062 18.378906 -41.910156 18.371094 -41.910156 C 18.394531 -41.914062 18.417969 -41.925781 18.449219 -41.941406 C 18.53125 -41.984375 18.585938 -42.039062 18.621094 -42.101562 L 18.597656 -42.054688 L 4.546875 -19.3125 C 4.46875 -19.191406 4.429688 -19.0625 4.429688 -18.917969 L 4.429688 -14.066406 C 4.429688 -14.058594 4.429688 -14.050781 4.429688 -14.046875 C 4.429688 -14.046875 4.429688 -14.050781 4.429688 -14.050781 C 4.425781 -14.074219 4.421875 -14.097656 4.410156 -14.128906 C 4.371094 -14.246094 4.300781 -14.355469 4.203125 -14.453125 C 4.105469 -14.550781 3.996094 -14.621094 3.878906 -14.660156 C 3.847656 -14.671875 3.824219 -14.675781 3.800781 -14.679688 C 3.800781 -14.679688 3.796875 -14.679688 3.796875 -14.679688 C 3.800781 -14.679688 3.808594 -14.679688 3.816406 -14.679688 L 21.167969 -14.679688 L 21.167969 -1.089844 C 21.167969 -1.082031 21.167969 -1.078125 21.167969 -1.070312 C 21.167969 -1.070312 21.167969 -1.074219 21.167969 -1.074219 C 21.164062 -1.097656 21.160156 -1.125 21.148438 -1.152344 C 21.109375 -1.269531 21.039062 -1.378906 20.941406 -1.476562 C 20.84375 -1.578125 20.734375 -1.644531 20.617188 -1.683594 C 20.585938 -1.695312 20.5625 -1.699219 20.539062 -1.703125 C 20.539062 -1.703125 20.535156 -1.703125 20.535156 -1.703125 C 20.539062 -1.703125 20.546875 -1.703125 20.554688 -1.703125 L 25.296875 -1.703125 C 25.304688 -1.703125 25.3125 -1.703125 25.316406 -1.703125 C 25.316406 -1.703125 25.316406 -1.703125 25.3125 -1.703125 C 25.289062 -1.699219 25.265625 -1.695312 25.234375 -1.683594 C 25.117188 -1.644531 25.007812 -1.578125 24.910156 -1.476562 C 24.8125 -1.378906 24.742188 -1.269531 24.703125 -1.152344 C 24.695312 -1.125 24.6875 -1.097656 24.683594 -1.074219 C 24.683594 -1.074219 24.683594 -1.070312 24.683594 -1.070312 C 24.683594 -1.078125 24.683594 -1.082031 24.683594 -1.089844 L 24.683594 -14.570312 L 28.625 -14.570312 C 28.632812 -14.570312 28.636719 -14.570312 28.640625 -14.570312 C 28.640625 -14.570312 28.640625 -14.570312 28.636719 -14.570312 C 28.617188 -14.566406 28.589844 -14.5625 28.5625 -14.550781 C 28.445312 -14.511719 28.335938 -14.441406 28.238281 -14.34375 C 28.136719 -14.246094 28.070312 -14.136719 28.03125 -14.019531 C 28.019531 -13.988281 28.011719 -13.964844 28.011719 -13.941406 C 28.011719 -13.941406 28.007812 -13.9375 28.007812 -13.9375 C 28.011719 -13.945312 28.011719 -13.949219 28.011719 -13.957031 L 28.011719 -18.644531 C 28.011719 -18.652344 28.011719 -18.660156 28.007812 -18.664062 C 28.007812 -18.664062 28.011719 -18.664062 28.011719 -18.660156 C 28.011719 -18.640625 28.019531 -18.613281 28.03125 -18.585938 C 28.070312 -18.464844 28.136719 -18.359375 28.238281 -18.257812 C 28.335938 -18.160156 28.445312 -18.089844 28.5625 -18.050781 C 28.589844 -18.042969 28.617188 -18.035156 28.636719 -18.03125 C 28.640625 -18.03125 28.640625 -18.03125 28.640625 -18.03125 C 28.636719 -18.03125 28.632812 -18.03125 28.625 -18.03125 Z M 24.683594 -18.03125 "/></g></g><g style="fill:#b21a22;fill-opacity:1;"><g transform="translate(201.605145, 208.921465)"><path style="stroke:none" d="M 1.023438 -17.121094 L 1.023438 -22.136719 C 1.023438 -22.96875 1.28125 -23.644531 1.792969 -24.160156 C 2.308594 -24.671875 2.984375 -24.929688 3.816406 -24.929688 L 12.429688 -24.929688 C 13.265625 -24.929688 13.9375 -24.671875 14.453125 -24.160156 C 14.96875 -23.644531 15.226562 -22.96875 15.226562 -22.136719 L 15.226562 -17.121094 C 15.226562 -16.285156 14.96875 -15.613281 14.453125 -15.097656 C 13.9375 -14.582031 13.265625 -14.324219 12.429688 -14.324219 L 3.816406 -14.324219 C 2.984375 -14.324219 2.308594 -14.582031 1.792969 -15.097656 C 1.28125 -15.613281 1.023438 -16.285156 1.023438 -17.121094 Z M 4.429688 -17.121094 C 4.429688 -17.113281 4.429688 -17.105469 4.429688 -17.101562 C 4.429688 -17.101562 4.429688 -17.101562 4.429688 -17.105469 C 4.425781 -17.125 4.421875 -17.152344 4.410156 -17.179688 C 4.371094 -17.300781 4.300781 -17.40625 4.203125 -17.507812 C 4.105469 -17.605469 3.996094 -17.675781 3.878906 -17.714844 C 3.847656 -17.722656 3.824219 -17.730469 3.800781 -17.734375 C 3.800781 -17.734375 3.796875 -17.734375 3.796875 -17.734375 C 3.800781 -17.734375 3.808594 -17.734375 3.816406 -17.734375 L 12.429688 -17.734375 C 12.4375 -17.734375 12.445312 -17.734375 12.449219 -17.734375 C 12.449219 -17.734375 12.449219 -17.734375 12.445312 -17.734375 C 12.421875 -17.730469 12.398438 -17.722656 12.367188 -17.714844 C 12.25 -17.675781 12.140625 -17.605469 12.042969 -17.507812 C 11.945312 -17.40625 11.875 -17.300781 11.835938 -17.179688 C 11.828125 -17.152344 11.820312 -17.125 11.816406 -17.105469 C 11.816406 -17.101562 11.816406 -17.101562 11.816406 -17.101562 C 11.816406 -17.105469 11.816406 -17.113281 11.816406 -17.121094 L 11.816406 -22.136719 C 11.816406 -22.144531 11.816406 -22.148438 11.816406 -22.152344 C 11.816406 -22.152344 11.816406 -22.152344 11.816406 -22.148438 C 11.820312 -22.128906 11.828125 -22.101562 11.835938 -22.074219 C 11.875 -21.957031 11.945312 -21.847656 12.042969 -21.75 C 12.140625 -21.648438 12.25 -21.582031 12.367188 -21.542969 C 12.398438 -21.53125 12.421875 -21.523438 12.445312 -21.523438 C 12.449219 -21.523438 12.449219 -21.523438 12.449219 -21.523438 C 12.445312 -21.523438 12.4375 -21.523438 12.429688 -21.523438 L 3.816406 -21.523438 C 3.808594 -21.523438 3.800781 -21.523438 3.796875 -21.523438 C 3.796875 -21.523438 3.800781 -21.523438 3.800781 -21.523438 C 3.824219 -21.523438 3.847656 -21.53125 3.878906 -21.542969 C 3.996094 -21.582031 4.105469 -21.648438 4.203125 -21.75 C 4.300781 -21.847656 4.371094 -21.957031 4.410156 -22.074219 C 4.421875 -22.101562 4.425781 -22.128906 4.429688 -22.148438 C 4.429688 -22.152344 4.429688 -22.152344 4.429688 -22.152344 C 4.429688 -22.148438 4.429688 -22.144531 4.429688 -22.136719 Z M 4.429688 -17.121094 "/></g></g><g style="fill:#b21a22;fill-opacity:1;"><g transform="translate(217.84729, 208.921465)"><path style="stroke:none" d="M 26.238281 -37.292969 L 26.238281 -31.839844 C 26.238281 -31.078125 26 -30.460938 25.519531 -29.980469 C 25.042969 -29.503906 24.421875 -29.265625 23.664062 -29.265625 L 10.140625 -29.265625 L 10.140625 -30.96875 L 11.84375 -30.96875 L 11.84375 -21.644531 L 10.140625 -21.644531 L 10.140625 -23.347656 L 20.390625 -23.347656 C 21.152344 -23.347656 21.773438 -23.109375 22.25 -22.632812 C 22.726562 -22.152344 22.96875 -21.535156 22.96875 -20.773438 L 22.96875 -15.320312 C 22.96875 -14.558594 22.726562 -13.9375 22.25 -13.460938 C 21.773438 -12.984375 21.152344 -12.746094 20.390625 -12.746094 L 10.140625 -12.746094 L 10.140625 -14.449219 L 11.84375 -14.449219 L 11.84375 -0.871094 C 11.84375 -0.109375 11.605469 0.507812 11.128906 0.988281 C 10.648438 1.464844 10.03125 1.703125 9.269531 1.703125 L 3.597656 1.703125 C 2.835938 1.703125 2.21875 1.464844 1.738281 0.988281 C 1.261719 0.507812 1.023438 -0.109375 1.023438 -0.871094 L 1.023438 -37.292969 C 1.023438 -38.054688 1.261719 -38.671875 1.738281 -39.152344 C 2.21875 -39.628906 2.835938 -39.867188 3.597656 -39.867188 L 23.664062 -39.867188 C 24.421875 -39.867188 25.042969 -39.628906 25.519531 -39.152344 C 26 -38.671875 26.238281 -38.054688 26.238281 -37.292969 Z M 22.832031 -37.292969 C 22.832031 -37.253906 22.839844 -37.199219 22.863281 -37.136719 C 22.910156 -36.988281 22.996094 -36.859375 23.113281 -36.742188 C 23.226562 -36.625 23.359375 -36.542969 23.503906 -36.492188 C 23.570312 -36.472656 23.625 -36.460938 23.664062 -36.460938 L 3.597656 -36.460938 C 3.636719 -36.460938 3.691406 -36.472656 3.753906 -36.492188 C 3.902344 -36.542969 4.03125 -36.625 4.148438 -36.742188 C 4.265625 -36.859375 4.347656 -36.988281 4.398438 -37.136719 C 4.417969 -37.199219 4.429688 -37.253906 4.429688 -37.292969 L 4.429688 -0.871094 C 4.429688 -0.910156 4.417969 -0.964844 4.398438 -1.03125 C 4.347656 -1.175781 4.265625 -1.304688 4.148438 -1.421875 C 4.03125 -1.539062 3.902344 -1.621094 3.753906 -1.671875 C 3.691406 -1.691406 3.636719 -1.703125 3.597656 -1.703125 L 9.269531 -1.703125 C 9.230469 -1.703125 9.175781 -1.691406 9.113281 -1.671875 C 8.964844 -1.621094 8.835938 -1.539062 8.71875 -1.421875 C 8.601562 -1.304688 8.519531 -1.175781 8.46875 -1.03125 C 8.449219 -0.964844 8.4375 -0.910156 8.4375 -0.871094 L 8.4375 -16.152344 L 20.390625 -16.152344 C 20.351562 -16.152344 20.300781 -16.140625 20.234375 -16.117188 C 20.089844 -16.070312 19.957031 -15.988281 19.839844 -15.871094 C 19.722656 -15.753906 19.640625 -15.621094 19.59375 -15.476562 C 19.570312 -15.410156 19.558594 -15.359375 19.558594 -15.320312 L 19.558594 -20.773438 C 19.558594 -20.734375 19.570312 -20.679688 19.59375 -20.617188 C 19.640625 -20.46875 19.722656 -20.339844 19.839844 -20.222656 C 19.957031 -20.105469 20.089844 -20.023438 20.234375 -19.972656 C 20.300781 -19.953125 20.351562 -19.941406 20.390625 -19.941406 L 8.4375 -19.941406 L 8.4375 -32.671875 L 23.664062 -32.671875 C 23.625 -32.671875 23.570312 -32.660156 23.503906 -32.640625 C 23.359375 -32.589844 23.226562 -32.507812 23.113281 -32.390625 C 22.996094 -32.273438 22.910156 -32.144531 22.863281 -31.996094 C 22.839844 -31.933594 22.832031 -31.878906 22.832031 -31.839844 Z M 22.832031 -37.292969 "/></g></g><g style="fill:#b21a22;fill-opacity:1;"><g transform="translate(245.099219, 208.921465)"><path style="stroke:none" d="M 1.023438 -7.851562 L 1.023438 -30.3125 C 1.023438 -33.371094 1.863281 -35.726562 3.546875 -37.386719 C 5.222656 -39.042969 7.566406 -39.867188 10.578125 -39.867188 L 16.683594 -39.867188 C 19.734375 -39.867188 22.089844 -39.039062 23.75 -37.378906 C 25.410156 -35.71875 26.238281 -33.363281 26.238281 -30.3125 L 26.238281 -7.851562 C 26.238281 -4.839844 25.410156 -2.496094 23.757812 -0.820312 C 22.097656 0.863281 19.738281 1.703125 16.683594 1.703125 L 10.578125 1.703125 C 7.5625 1.703125 5.214844 0.863281 3.539062 -0.8125 C 1.859375 -2.488281 1.023438 -4.835938 1.023438 -7.851562 Z M 4.429688 -7.851562 C 4.429688 -5.777344 4.9375 -4.234375 5.949219 -3.222656 C 6.960938 -2.210938 8.503906 -1.703125 10.578125 -1.703125 L 16.683594 -1.703125 C 18.789062 -1.703125 20.339844 -2.207031 21.332031 -3.214844 C 22.332031 -4.226562 22.832031 -5.773438 22.832031 -7.851562 L 22.832031 -30.3125 C 22.832031 -32.425781 22.332031 -33.976562 21.339844 -34.96875 C 20.34375 -35.964844 18.792969 -36.460938 16.683594 -36.460938 L 10.578125 -36.460938 C 8.5 -36.460938 6.953125 -35.960938 5.941406 -34.960938 C 4.933594 -33.96875 4.429688 -32.417969 4.429688 -30.3125 Z M 11.996094 -8.738281 L 15.484375 -8.738281 C 15.664062 -8.738281 15.800781 -8.753906 15.898438 -8.785156 C 15.917969 -8.792969 15.929688 -8.796875 15.9375 -8.800781 C 15.929688 -8.796875 15.921875 -8.792969 15.914062 -8.785156 C 15.90625 -8.773438 15.902344 -8.769531 15.898438 -8.761719 C 15.902344 -8.769531 15.90625 -8.78125 15.910156 -8.796875 C 15.945312 -8.898438 15.960938 -9.035156 15.960938 -9.214844 L 15.960938 -28.949219 C 15.960938 -29.128906 15.945312 -29.269531 15.910156 -29.367188 C 15.90625 -29.382812 15.902344 -29.394531 15.898438 -29.402344 C 15.902344 -29.398438 15.90625 -29.390625 15.914062 -29.382812 C 15.921875 -29.375 15.929688 -29.367188 15.9375 -29.363281 C 15.929688 -29.367188 15.917969 -29.371094 15.898438 -29.378906 C 15.800781 -29.410156 15.664062 -29.425781 15.484375 -29.425781 L 11.996094 -29.425781 C 11.816406 -29.425781 11.675781 -29.410156 11.578125 -29.378906 C 11.5625 -29.371094 11.550781 -29.367188 11.542969 -29.363281 C 11.546875 -29.367188 11.554688 -29.375 11.5625 -29.382812 C 11.570312 -29.390625 11.578125 -29.398438 11.582031 -29.402344 C 11.578125 -29.394531 11.574219 -29.382812 11.566406 -29.367188 C 11.535156 -29.269531 11.519531 -29.128906 11.519531 -28.949219 L 11.519531 -9.214844 C 11.519531 -9.035156 11.535156 -8.898438 11.566406 -8.796875 C 11.574219 -8.78125 11.578125 -8.769531 11.582031 -8.761719 C 11.578125 -8.769531 11.570312 -8.773438 11.5625 -8.785156 C 11.554688 -8.792969 11.546875 -8.796875 11.542969 -8.800781 C 11.550781 -8.796875 11.5625 -8.792969 11.578125 -8.785156 C 11.675781 -8.753906 11.816406 -8.738281 11.996094 -8.738281 Z M 11.996094 -5.328125 C 10.796875 -5.328125 9.851562 -5.675781 9.152344 -6.375 C 8.457031 -7.070312 8.109375 -8.015625 8.109375 -9.214844 L 8.109375 -28.949219 C 8.109375 -30.148438 8.457031 -31.09375 9.152344 -31.792969 C 9.851562 -32.488281 10.796875 -32.835938 11.996094 -32.835938 L 15.484375 -32.835938 C 16.679688 -32.835938 17.628906 -32.488281 18.324219 -31.792969 C 19.019531 -31.09375 19.367188 -30.148438 19.367188 -28.949219 L 19.367188 -9.214844 C 19.367188 -8.015625 19.019531 -7.070312 18.324219 -6.375 C 17.628906 -5.675781 16.679688 -5.328125 15.484375 -5.328125 Z M 11.996094 -5.328125 "/></g></g><g style="fill:#b21a22;fill-opacity:1;"><g transform="translate(272.351148, 208.921465)"><path style="stroke:none" d="M 20.007812 -39.867188 L 25.132812 -39.867188 C 25.894531 -39.867188 26.515625 -39.628906 26.992188 -39.152344 C 27.472656 -38.671875 27.710938 -38.054688 27.710938 -37.292969 L 27.710938 -0.871094 C 27.710938 -0.109375 27.472656 0.507812 26.992188 0.988281 C 26.515625 1.464844 25.894531 1.703125 25.132812 1.703125 L 20.828125 1.703125 C 20.242188 1.703125 19.71875 1.539062 19.257812 1.203125 C 18.851562 0.910156 18.53125 0.511719 18.296875 0.00390625 L 19.84375 -0.707031 L 18.316406 0.0429688 L 8.066406 -20.785156 L 9.597656 -21.535156 L 11.300781 -21.535156 L 11.300781 -0.871094 C 11.300781 -0.109375 11.0625 0.507812 10.582031 0.988281 C 10.105469 1.464844 9.484375 1.703125 8.722656 1.703125 L 3.597656 1.703125 C 2.835938 1.703125 2.21875 1.464844 1.738281 0.988281 C 1.261719 0.507812 1.023438 -0.109375 1.023438 -0.871094 L 1.023438 -37.292969 C 1.023438 -38.054688 1.261719 -38.671875 1.738281 -39.152344 C 2.21875 -39.628906 2.835938 -39.867188 3.597656 -39.867188 L 7.90625 -39.867188 C 8.492188 -39.867188 9.015625 -39.703125 9.476562 -39.367188 C 9.878906 -39.078125 10.199219 -38.675781 10.433594 -38.171875 L 8.886719 -37.457031 L 10.414062 -38.207031 L 20.664062 -17.382812 L 19.136719 -16.628906 L 17.433594 -16.628906 L 17.433594 -37.292969 C 17.433594 -38.054688 17.671875 -38.671875 18.148438 -39.152344 C 18.628906 -39.628906 19.246094 -39.867188 20.007812 -39.867188 Z M 20.007812 -36.460938 C 20.046875 -36.460938 20.101562 -36.472656 20.167969 -36.492188 C 20.3125 -36.542969 20.441406 -36.625 20.558594 -36.742188 C 20.675781 -36.859375 20.757812 -36.988281 20.808594 -37.136719 C 20.828125 -37.199219 20.839844 -37.253906 20.839844 -37.292969 L 20.839844 -16.628906 L 17.609375 -15.875 L 7.347656 -36.722656 L 7.339844 -36.742188 C 7.355469 -36.707031 7.402344 -36.664062 7.480469 -36.605469 C 7.613281 -36.507812 7.757812 -36.460938 7.90625 -36.460938 L 3.597656 -36.460938 C 3.636719 -36.460938 3.691406 -36.472656 3.753906 -36.492188 C 3.902344 -36.542969 4.03125 -36.625 4.148438 -36.742188 C 4.265625 -36.859375 4.347656 -36.988281 4.398438 -37.136719 C 4.417969 -37.199219 4.429688 -37.253906 4.429688 -37.292969 L 4.429688 -0.871094 C 4.429688 -0.910156 4.417969 -0.964844 4.398438 -1.03125 C 4.347656 -1.175781 4.265625 -1.304688 4.148438 -1.421875 C 4.03125 -1.539062 3.902344 -1.621094 3.753906 -1.671875 C 3.691406 -1.691406 3.636719 -1.703125 3.597656 -1.703125 L 8.722656 -1.703125 C 8.683594 -1.703125 8.632812 -1.691406 8.566406 -1.671875 C 8.421875 -1.621094 8.289062 -1.539062 8.171875 -1.421875 C 8.054688 -1.304688 7.972656 -1.175781 7.925781 -1.03125 C 7.902344 -0.964844 7.890625 -0.910156 7.890625 -0.871094 L 7.890625 -21.535156 L 11.125 -22.289062 L 21.382812 -1.441406 L 21.394531 -1.421875 C 21.378906 -1.457031 21.332031 -1.503906 21.253906 -1.558594 C 21.117188 -1.65625 20.976562 -1.703125 20.828125 -1.703125 L 25.132812 -1.703125 C 25.09375 -1.703125 25.042969 -1.691406 24.976562 -1.671875 C 24.832031 -1.621094 24.699219 -1.539062 24.582031 -1.421875 C 24.464844 -1.304688 24.382812 -1.175781 24.335938 -1.03125 C 24.3125 -0.964844 24.300781 -0.910156 24.300781 -0.871094 L 24.300781 -37.292969 C 24.300781 -37.253906 24.3125 -37.199219 24.335938 -37.136719 C 24.382812 -36.988281 24.464844 -36.859375 24.582031 -36.742188 C 24.699219 -36.625 24.832031 -36.542969 24.976562 -36.492188 C 25.042969 -36.472656 25.09375 -36.460938 25.132812 -36.460938 Z M 20.007812 -36.460938 "/></g></g><g style="fill:#b21a22;fill-opacity:1;"><g transform="translate(301.07469, 208.921465)"><path style="stroke:none" d="M 22.570312 -36.460938 L 2.507812 -36.460938 C 2.546875 -36.460938 2.597656 -36.472656 2.664062 -36.492188 C 2.808594 -36.542969 2.941406 -36.625 3.058594 -36.742188 C 3.175781 -36.859375 3.257812 -36.988281 3.304688 -37.136719 C 3.328125 -37.199219 3.339844 -37.253906 3.339844 -37.292969 L 3.339844 -31.839844 C 3.339844 -31.878906 3.328125 -31.933594 3.304688 -31.996094 C 3.257812 -32.144531 3.175781 -32.273438 3.058594 -32.390625 C 2.941406 -32.507812 2.808594 -32.589844 2.664062 -32.640625 C 2.597656 -32.660156 2.546875 -32.671875 2.507812 -32.671875 L 10.535156 -32.671875 L 10.535156 -0.871094 C 10.535156 -0.910156 10.523438 -0.964844 10.503906 -1.03125 C 10.453125 -1.175781 10.371094 -1.304688 10.253906 -1.421875 C 10.136719 -1.539062 10.007812 -1.621094 9.863281 -1.671875 C 9.796875 -1.691406 9.742188 -1.703125 9.703125 -1.703125 L 15.375 -1.703125 C 15.335938 -1.703125 15.285156 -1.691406 15.21875 -1.671875 C 15.074219 -1.621094 14.941406 -1.539062 14.824219 -1.421875 C 14.707031 -1.304688 14.625 -1.175781 14.578125 -1.03125 C 14.554688 -0.964844 14.542969 -0.910156 14.542969 -0.871094 L 14.542969 -32.671875 L 22.570312 -32.671875 C 22.53125 -32.671875 22.480469 -32.660156 22.414062 -32.640625 C 22.269531 -32.589844 22.136719 -32.507812 22.019531 -32.390625 C 21.902344 -32.273438 21.820312 -32.144531 21.773438 -31.996094 C 21.75 -31.933594 21.738281 -31.878906 21.738281 -31.839844 L 21.738281 -37.292969 C 21.738281 -37.253906 21.75 -37.199219 21.773438 -37.136719 C 21.820312 -36.988281 21.902344 -36.859375 22.019531 -36.742188 C 22.136719 -36.625 22.269531 -36.542969 22.414062 -36.492188 C 22.480469 -36.472656 22.53125 -36.460938 22.570312 -36.460938 Z M 22.570312 -39.867188 C 23.332031 -39.867188 23.953125 -39.628906 24.429688 -39.152344 C 24.910156 -38.671875 25.148438 -38.054688 25.148438 -37.292969 L 25.148438 -31.839844 C 25.148438 -31.078125 24.910156 -30.460938 24.429688 -29.980469 C 23.953125 -29.503906 23.332031 -29.265625 22.570312 -29.265625 L 16.246094 -29.265625 L 16.246094 -30.96875 L 17.953125 -30.96875 L 17.953125 -0.871094 C 17.953125 -0.109375 17.710938 0.507812 17.234375 0.988281 C 16.757812 1.464844 16.136719 1.703125 15.375 1.703125 L 9.703125 1.703125 C 8.945312 1.703125 8.324219 1.464844 7.84375 0.988281 C 7.367188 0.507812 7.128906 -0.109375 7.128906 -0.871094 L 7.128906 -30.96875 L 8.832031 -30.96875 L 8.832031 -29.265625 L 2.507812 -29.265625 C 1.746094 -29.265625 1.128906 -29.503906 0.648438 -29.980469 C 0.171875 -30.460938 -0.0664062 -31.078125 -0.0664062 -31.839844 L -0.0664062 -37.292969 C -0.0664062 -38.054688 0.171875 -38.671875 0.648438 -39.152344 C 1.128906 -39.628906 1.746094 -39.867188 2.507812 -39.867188 Z M 22.570312 -39.867188 "/></g></g><g style="fill:#060705;fill-opacity:1;"><g transform="translate(48.340302, 208.921465)"><path style="stroke:none" d="M 2.5 -43.609375 L 22.5625 -43.609375 C 23.144531 -43.609375 23.4375 -43.316406 23.4375 -42.734375 L 23.4375 -37.28125 C 23.4375 -36.707031 23.144531 -36.421875 22.5625 -36.421875 L 16.25 -36.421875 L 16.25 -0.875 C 16.25 -0.289062 15.957031 0 15.375 0 L 9.703125 0 C 9.117188 0 8.828125 -0.289062 8.828125 -0.875 L 8.828125 -36.421875 L 2.5 -36.421875 C 1.925781 -36.421875 1.640625 -36.707031 1.640625 -37.28125 L 1.640625 -42.734375 C 1.640625 -43.316406 1.925781 -43.609375 2.5 -43.609375 Z M 2.5 -43.609375 "/></g></g><g style="fill:#060705;fill-opacity:1;"><g transform="translate(73.412079, 208.921465)"><path style="stroke:none" d="M 24.484375 -37.28125 L 24.484375 -31.84375 C 24.484375 -31.21875 24.191406 -30.90625 23.609375 -30.90625 L 10.140625 -30.90625 L 10.140625 -22.515625 L 20.390625 -22.515625 C 20.972656 -22.515625 21.265625 -22.207031 21.265625 -21.59375 L 21.265625 -16.1875 C 21.265625 -15.570312 20.972656 -15.265625 20.390625 -15.265625 L 10.140625 -15.265625 L 10.140625 -7.203125 L 23.609375 -7.203125 C 24.191406 -7.203125 24.484375 -6.910156 24.484375 -6.328125 L 24.484375 -0.875 C 24.484375 -0.289062 24.191406 0 23.609375 0 L 3.546875 0 C 2.992188 0 2.71875 -0.289062 2.71875 -0.875 L 2.71875 -37.28125 C 2.71875 -37.863281 2.992188 -38.15625 3.546875 -38.15625 L 23.609375 -38.15625 C 24.191406 -38.15625 24.484375 -37.863281 24.484375 -37.28125 Z M 24.484375 -37.28125 "/></g></g><g style="fill:#060705;fill-opacity:1;"><g transform="translate(100.609495, 208.921465)"><path style="stroke:none" d="M 10.578125 -38.15625 L 16.6875 -38.15625 C 19.257812 -38.15625 21.207031 -37.492188 22.53125 -36.171875 C 23.863281 -34.847656 24.53125 -32.894531 24.53125 -30.3125 L 24.53125 -26.71875 C 24.53125 -26.132812 24.238281 -25.84375 23.65625 -25.84375 L 18.15625 -25.84375 C 17.570312 -25.84375 17.28125 -26.132812 17.28125 -26.71875 L 17.28125 -29 C 17.28125 -30.457031 16.550781 -31.1875 15.09375 -31.1875 L 12.109375 -31.1875 C 10.648438 -31.1875 9.921875 -30.457031 9.921875 -29 L 9.921875 -24.375 L 23.109375 -20.109375 C 24.054688 -19.785156 24.53125 -19.113281 24.53125 -18.09375 L 24.53125 -7.84375 C 24.53125 -5.300781 23.863281 -3.359375 22.53125 -2.015625 C 21.207031 -0.671875 19.257812 0 16.6875 0 L 10.578125 0 C 8.035156 0 6.085938 -0.671875 4.734375 -2.015625 C 3.390625 -3.359375 2.71875 -5.300781 2.71875 -7.84375 L 2.71875 -11.390625 C 2.71875 -11.972656 3.007812 -12.265625 3.59375 -12.265625 L 9.109375 -12.265625 C 9.679688 -12.265625 9.96875 -11.972656 9.96875 -11.390625 L 9.96875 -9.109375 C 9.96875 -7.648438 10.695312 -6.921875 12.15625 -6.921875 L 15.09375 -6.921875 C 16.550781 -6.921875 17.28125 -7.648438 17.28125 -9.109375 L 17.28125 -14.609375 L 4.203125 -18.859375 C 3.210938 -19.191406 2.71875 -19.863281 2.71875 -20.875 L 2.71875 -30.3125 C 2.71875 -32.894531 3.390625 -34.847656 4.734375 -36.171875 C 6.085938 -37.492188 8.035156 -38.15625 10.578125 -38.15625 Z M 10.578125 -38.15625 "/></g></g><g style="fill:#060705;fill-opacity:1;"><g transform="translate(127.861424, 208.921465)"><path style="stroke:none" d="M 22.5625 -38.15625 L 2.5 -38.15625 C 1.925781 -38.15625 1.640625 -37.863281 1.640625 -37.28125 L 1.640625 -31.84375 C 1.640625 -31.257812 1.925781 -30.96875 2.5 -30.96875 L 8.828125 -30.96875 L 8.828125 -0.875 C 8.828125 -0.289062 9.117188 0 9.703125 0 L 15.375 0 C 15.957031 0 16.25 -0.289062 16.25 -0.875 L 16.25 -30.96875 L 22.5625 -30.96875 C 23.144531 -30.96875 23.4375 -31.257812 23.4375 -31.84375 L 23.4375 -37.28125 C 23.4375 -37.863281 23.144531 -38.15625 22.5625 -38.15625 Z M 22.5625 -38.15625 "/></g></g><g style="fill:#060705;fill-opacity:1;"><g transform="translate(152.933202, 208.921465)"><path style="stroke:none" d="M 2.71875 -17.125 L 2.71875 -22.140625 C 2.71875 -22.859375 3.082031 -23.21875 3.8125 -23.21875 L 12.421875 -23.21875 C 13.148438 -23.21875 13.515625 -22.859375 13.515625 -22.140625 L 13.515625 -17.125 C 13.515625 -16.394531 13.148438 -16.03125 12.421875 -16.03125 L 3.8125 -16.03125 C 3.082031 -16.03125 2.71875 -16.394531 2.71875 -17.125 Z M 2.71875 -17.125 "/></g></g><g style="fill:#060705;fill-opacity:1;"><g transform="translate(169.175347, 208.921465)"><path style="stroke:none" d="M 26.390625 -19.734375 L 28.625 -19.734375 C 29.351562 -19.734375 29.71875 -19.367188 29.71875 -18.640625 L 29.71875 -13.953125 C 29.71875 -13.222656 29.351562 -12.859375 28.625 -12.859375 L 26.390625 -12.859375 L 26.390625 -1.09375 C 26.390625 -0.363281 26.023438 0 25.296875 0 L 20.546875 0 C 19.828125 0 19.46875 -0.363281 19.46875 -1.09375 L 19.46875 -12.96875 L 3.8125 -12.96875 C 3.082031 -12.96875 2.71875 -13.332031 2.71875 -14.0625 L 2.71875 -18.921875 C 2.71875 -19.390625 2.847656 -19.820312 3.109375 -20.21875 L 17.125 -42.90625 C 17.375 -43.375 17.804688 -43.609375 18.421875 -43.609375 L 24.15625 -43.609375 C 24.582031 -43.609375 24.867188 -43.488281 25.015625 -43.25 C 25.160156 -43.019531 25.109375 -42.703125 24.859375 -42.296875 L 11.171875 -19.625 L 19.46875 -19.625 L 19.46875 -26.171875 C 19.46875 -26.890625 19.828125 -27.25 20.546875 -27.25 L 25.296875 -27.25 C 26.023438 -27.25 26.390625 -26.890625 26.390625 -26.171875 Z M 26.390625 -19.734375 "/></g></g><g style="fill:#060705;fill-opacity:1;"><g transform="translate(201.605145, 208.921465)"><path style="stroke:none" d="M 2.71875 -17.125 L 2.71875 -22.140625 C 2.71875 -22.859375 3.082031 -23.21875 3.8125 -23.21875 L 12.421875 -23.21875 C 13.148438 -23.21875 13.515625 -22.859375 13.515625 -22.140625 L 13.515625 -17.125 C 13.515625 -16.394531 13.148438 -16.03125 12.421875 -16.03125 L 3.8125 -16.03125 C 3.082031 -16.03125 2.71875 -16.394531 2.71875 -17.125 Z M 2.71875 -17.125 "/></g></g><g style="fill:#060705;fill-opacity:1;"><g transform="translate(217.84729, 208.921465)"><path style="stroke:none" d="M 24.53125 -37.28125 L 24.53125 -31.84375 C 24.53125 -31.257812 24.238281 -30.96875 23.65625 -30.96875 L 10.140625 -30.96875 L 10.140625 -21.640625 L 20.390625 -21.640625 C 20.972656 -21.640625 21.265625 -21.347656 21.265625 -20.765625 L 21.265625 -15.3125 C 21.265625 -14.738281 20.972656 -14.453125 20.390625 -14.453125 L 10.140625 -14.453125 L 10.140625 -0.875 C 10.140625 -0.289062 9.847656 0 9.265625 0 L 3.59375 0 C 3.007812 0 2.71875 -0.289062 2.71875 -0.875 L 2.71875 -37.28125 C 2.71875 -37.863281 3.007812 -38.15625 3.59375 -38.15625 L 23.65625 -38.15625 C 24.238281 -38.15625 24.53125 -37.863281 24.53125 -37.28125 Z M 24.53125 -37.28125 "/></g></g><g style="fill:#060705;fill-opacity:1;"><g transform="translate(245.099219, 208.921465)"><path style="stroke:none" d="M 2.71875 -7.84375 L 2.71875 -30.3125 C 2.71875 -32.894531 3.390625 -34.847656 4.734375 -36.171875 C 6.085938 -37.492188 8.035156 -38.15625 10.578125 -38.15625 L 16.6875 -38.15625 C 19.257812 -38.15625 21.207031 -37.492188 22.53125 -36.171875 C 23.863281 -34.847656 24.53125 -32.894531 24.53125 -30.3125 L 24.53125 -7.84375 C 24.53125 -5.300781 23.863281 -3.359375 22.53125 -2.015625 C 21.207031 -0.671875 19.257812 0 16.6875 0 L 10.578125 0 C 8.035156 0 6.085938 -0.671875 4.734375 -2.015625 C 3.390625 -3.359375 2.71875 -5.300781 2.71875 -7.84375 Z M 12 -7.03125 L 15.484375 -7.03125 C 16.929688 -7.03125 17.65625 -7.757812 17.65625 -9.21875 L 17.65625 -28.953125 C 17.65625 -30.398438 16.929688 -31.125 15.484375 -31.125 L 12 -31.125 C 10.539062 -31.125 9.8125 -30.398438 9.8125 -28.953125 L 9.8125 -9.21875 C 9.8125 -7.757812 10.539062 -7.03125 12 -7.03125 Z M 12 -7.03125 "/></g></g><g style="fill:#060705;fill-opacity:1;"><g transform="translate(272.351148, 208.921465)"><path style="stroke:none" d="M 20 -38.15625 L 25.125 -38.15625 C 25.707031 -38.15625 26 -37.863281 26 -37.28125 L 26 -0.875 C 26 -0.289062 25.707031 0 25.125 0 L 20.828125 0 C 20.390625 0 20.0625 -0.234375 19.84375 -0.703125 L 9.59375 -21.53125 L 9.59375 -0.875 C 9.59375 -0.289062 9.300781 0 8.71875 0 L 3.59375 0 C 3.007812 0 2.71875 -0.289062 2.71875 -0.875 L 2.71875 -37.28125 C 2.71875 -37.863281 3.007812 -38.15625 3.59375 -38.15625 L 7.90625 -38.15625 C 8.34375 -38.15625 8.671875 -37.921875 8.890625 -37.453125 L 19.140625 -16.625 L 19.140625 -37.28125 C 19.140625 -37.863281 19.425781 -38.15625 20 -38.15625 Z M 20 -38.15625 "/></g></g><g style="fill:#060705;fill-opacity:1;"><g transform="translate(301.07469, 208.921465)"><path style="stroke:none" d="M 22.5625 -38.15625 L 2.5 -38.15625 C 1.925781 -38.15625 1.640625 -37.863281 1.640625 -37.28125 L 1.640625 -31.84375 C 1.640625 -31.257812 1.925781 -30.96875 2.5 -30.96875 L 8.828125 -30.96875 L 8.828125 -0.875 C 8.828125 -0.289062 9.117188 0 9.703125 0 L 15.375 0 C 15.957031 0 16.25 -0.289062 16.25 -0.875 L 16.25 -30.96875 L 22.5625 -30.96875 C 23.144531 -30.96875 23.4375 -31.257812 23.4375 -31.84375 L 23.4375 -37.28125 C 23.4375 -37.863281 23.144531 -38.15625 22.5625 -38.15625 Z M 22.5625 -38.15625 "/></g></g></g></svg>