<svg xmlns="http://www.w3.org/2000/svg" xmlns:xlink="http://www.w3.org/1999/xlink" width="128" zoomAndPan="magnify" viewBox="0 0 96 95.999999" height="128" preserveAspectRatio="xMidYMid meet" version="1.2"><defs><clipPath id="073ce62127"><path d="M 6 0 L 90 0 L 90 96 L 6 96 Z M 6 0 "/></clipPath><clipPath id="30bff7438d"><path d="M -14.304688 36.578125 L 68.691406 -11.898438 L 110.335938 59.402344 L 27.339844 107.878906 Z M -14.304688 36.578125 "/></clipPath><clipPath id="86328adc25"><path d="M 89.484375 23.769531 L 89.5625 71.535156 L 48.082031 95.765625 L 6.515625 72.226562 L 6.4375 24.464844 L 47.921875 0.234375 Z M 89.484375 23.769531 "/></clipPath><clipPath id="1cf835c3aa"><path d="M 14.140625 9.121094 L 81.851562 9.121094 L 81.851562 86.839844 L 14.140625 86.839844 Z M 14.140625 9.121094 "/></clipPath></defs><g id="eee1ba999e"><rect x="0" width="96" y="0" height="95.999999" style="fill:#ffffff;fill-opacity:1;stroke:none;"/><rect x="0" width="96" y="0" height="95.999999" style="fill:#000000;fill-opacity:1;stroke:none;"/><g clip-rule="nonzero" clip-path="url(#073ce62127)"><g clip-rule="nonzero" clip-path="url(#30bff7438d)"><g clip-rule="nonzero" clip-path="url(#86328adc25)"><path style=" stroke:none;fill-rule:nonzero;fill:#65b30e;fill-opacity:1;" d="M -14.304688 36.578125 L 68.691406 -11.898438 L 110.335938 59.402344 L 27.339844 107.878906 Z M -14.304688 36.578125 "/></g></g></g><path style=" stroke:none;fill-rule:nonzero;fill:#87ff00;fill-opacity:1;" d="M 34.453125 34.738281 L 34.410156 34.695312 L 24.839844 44.265625 L 48.074219 67.457031 L 57.644531 57.933594 L 71.308594 44.265625 L 61.738281 34.695312 L 61.738281 34.652344 L 34.410156 34.652344 Z M 34.453125 34.738281 "/><g clip-rule="nonzero" clip-path="url(#1cf835c3aa)"><path style=" stroke:none;fill-rule:nonzero;fill:#87ff00;fill-opacity:1;" d="M 47.988281 9.179688 L 14.148438 28.574219 L 14.148438 67.371094 L 47.988281 86.769531 L 81.828125 67.371094 L 81.828125 28.574219 Z M 75.359375 63.664062 L 47.988281 79.4375 L 20.613281 63.664062 L 20.617188 32.195312 L 47.988281 16.417969 L 75.363281 32.195312 L 75.363281 63.664062 Z M 75.359375 63.664062 "/></g><g style="fill:#b21a22;fill-opacity:1;"><g transform="translate(14.138736, 41.991995)"><path style="stroke:none" d="M 10.308594 0.617188 L 8.394531 0.617188 C 8.152344 0.617188 7.949219 0.542969 7.78125 0.394531 C 7.625 0.257812 7.523438 0.078125 7.476562 -0.148438 L 8.078125 -0.277344 L 7.480469 -0.125 L 6.847656 -2.613281 L 7.445312 -2.765625 L 7.445312 -2.148438 L 3.734375 -2.148438 L 3.734375 -2.765625 L 4.332031 -2.617188 L 3.71875 -0.128906 L 3.121094 -0.277344 L 3.722656 -0.148438 C 3.675781 0.078125 3.574219 0.257812 3.417969 0.394531 C 3.25 0.542969 3.042969 0.617188 2.804688 0.617188 L 0.867188 0.617188 C 0.546875 0.617188 0.304688 0.507812 0.136719 0.292969 C -0.03125 0.0703125 -0.0703125 -0.199219 0.0195312 -0.511719 L 0.613281 -0.335938 L 0.0117188 -0.484375 L 3.292969 -13.699219 L 3.890625 -13.550781 L 3.289062 -13.679688 C 3.335938 -13.910156 3.445312 -14.097656 3.613281 -14.234375 C 3.78125 -14.375 3.988281 -14.441406 4.226562 -14.441406 L 6.972656 -14.441406 C 7.210938 -14.441406 7.417969 -14.375 7.585938 -14.234375 C 7.753906 -14.097656 7.863281 -13.910156 7.910156 -13.679688 L 7.308594 -13.550781 L 7.90625 -13.699219 L 11.1875 -0.484375 L 10.585938 -0.335938 L 11.179688 -0.511719 C 11.273438 -0.1875 11.226562 0.0859375 11.042969 0.308594 C 10.875 0.515625 10.628906 0.617188 10.308594 0.617188 Z M 10.308594 -0.617188 C 10.3125 -0.617188 10.316406 -0.617188 10.316406 -0.617188 C 10.304688 -0.617188 10.292969 -0.613281 10.277344 -0.609375 C 10.207031 -0.585938 10.144531 -0.539062 10.089844 -0.476562 C 10.03125 -0.402344 9.996094 -0.324219 9.992188 -0.238281 C 9.988281 -0.203125 9.988281 -0.179688 9.996094 -0.160156 L 9.992188 -0.175781 L 6.707031 -13.410156 L 6.703125 -13.421875 C 6.714844 -13.371094 6.746094 -13.324219 6.800781 -13.28125 C 6.859375 -13.234375 6.917969 -13.207031 6.972656 -13.207031 L 4.226562 -13.207031 C 4.28125 -13.207031 4.339844 -13.234375 4.398438 -13.28125 C 4.453125 -13.324219 4.484375 -13.371094 4.496094 -13.421875 L 4.492188 -13.410156 L 1.207031 -0.175781 L 1.203125 -0.160156 C 1.207031 -0.175781 1.210938 -0.195312 1.207031 -0.226562 C 1.203125 -0.308594 1.171875 -0.386719 1.117188 -0.457031 C 1.0625 -0.527344 1 -0.578125 0.921875 -0.605469 C 0.898438 -0.613281 0.878906 -0.617188 0.867188 -0.617188 L 2.804688 -0.617188 C 2.734375 -0.617188 2.667969 -0.589844 2.605469 -0.535156 C 2.554688 -0.488281 2.527344 -0.445312 2.515625 -0.40625 L 2.519531 -0.414062 L 3.25 -3.382812 L 7.925781 -3.382812 L 8.679688 -0.417969 L 8.683594 -0.40625 C 8.671875 -0.445312 8.644531 -0.488281 8.59375 -0.535156 C 8.53125 -0.589844 8.464844 -0.617188 8.394531 -0.617188 Z M 6.234375 -4.917969 L 4.988281 -10.289062 L 5.589844 -10.429688 L 6.191406 -10.289062 L 4.945312 -4.917969 L 4.34375 -5.054688 L 4.34375 -5.671875 L 6.832031 -5.671875 L 6.832031 -5.054688 Z M 7.609375 -4.4375 L 3.570312 -4.4375 L 4.988281 -10.566406 L 6.191406 -10.566406 L 7.433594 -5.195312 Z M 7.609375 -4.4375 "/></g></g><g style="fill:#b21a22;fill-opacity:1;"><g transform="translate(25.334196, 41.991995)"><path style="stroke:none" d="M 9.523438 -10.980469 L 9.523438 -8.847656 C 9.523438 -8.574219 9.4375 -8.347656 9.265625 -8.175781 C 9.09375 -8 8.867188 -7.914062 8.59375 -7.914062 L 6.734375 -7.914062 C 6.460938 -7.914062 6.234375 -8 6.0625 -8.175781 C 5.886719 -8.347656 5.800781 -8.574219 5.800781 -8.847656 L 5.800781 -10.46875 C 5.800781 -10.53125 5.796875 -10.582031 5.785156 -10.617188 C 5.78125 -10.625 5.78125 -10.628906 5.777344 -10.632812 C 5.78125 -10.628906 5.78125 -10.628906 5.785156 -10.625 C 5.789062 -10.621094 5.789062 -10.621094 5.792969 -10.617188 C 5.789062 -10.621094 5.785156 -10.621094 5.78125 -10.625 C 5.746094 -10.636719 5.695312 -10.640625 5.628906 -10.640625 L 4.363281 -10.640625 C 4.300781 -10.640625 4.25 -10.636719 4.214844 -10.625 C 4.207031 -10.621094 4.203125 -10.621094 4.203125 -10.617188 C 4.203125 -10.621094 4.207031 -10.621094 4.207031 -10.625 C 4.210938 -10.628906 4.214844 -10.628906 4.214844 -10.632812 C 4.214844 -10.628906 4.210938 -10.625 4.210938 -10.617188 C 4.199219 -10.582031 4.191406 -10.53125 4.191406 -10.46875 L 4.191406 -3.296875 C 4.191406 -3.234375 4.199219 -3.183594 4.210938 -3.148438 C 4.210938 -3.140625 4.214844 -3.136719 4.214844 -3.132812 C 4.214844 -3.136719 4.210938 -3.140625 4.207031 -3.140625 C 4.207031 -3.144531 4.203125 -3.148438 4.203125 -3.148438 C 4.203125 -3.148438 4.207031 -3.144531 4.214844 -3.144531 C 4.25 -3.132812 4.300781 -3.125 4.363281 -3.125 L 5.628906 -3.125 C 5.695312 -3.125 5.746094 -3.132812 5.78125 -3.144531 C 5.785156 -3.144531 5.789062 -3.148438 5.792969 -3.148438 C 5.789062 -3.148438 5.789062 -3.144531 5.785156 -3.140625 C 5.78125 -3.140625 5.78125 -3.136719 5.777344 -3.132812 C 5.78125 -3.136719 5.78125 -3.140625 5.785156 -3.148438 C 5.796875 -3.183594 5.800781 -3.234375 5.800781 -3.296875 L 5.800781 -4.976562 C 5.800781 -5.253906 5.886719 -5.476562 6.0625 -5.652344 C 6.234375 -5.824219 6.460938 -5.910156 6.734375 -5.910156 L 8.59375 -5.910156 C 8.867188 -5.910156 9.09375 -5.824219 9.265625 -5.652344 C 9.4375 -5.476562 9.523438 -5.253906 9.523438 -4.976562 L 9.523438 -2.84375 C 9.523438 -1.753906 9.222656 -0.902344 8.613281 -0.292969 C 8.003906 0.3125 7.15625 0.617188 6.0625 0.617188 L 3.851562 0.617188 C 2.761719 0.617188 1.910156 0.3125 1.292969 -0.292969 C 0.679688 -0.898438 0.371094 -1.75 0.371094 -2.84375 L 0.371094 -10.980469 C 0.371094 -12.089844 0.679688 -12.945312 1.296875 -13.546875 C 1.910156 -14.144531 2.761719 -14.441406 3.851562 -14.441406 L 6.0625 -14.441406 C 7.152344 -14.441406 8.003906 -14.144531 8.609375 -13.542969 C 9.21875 -12.941406 9.523438 -12.089844 9.523438 -10.980469 Z M 8.289062 -10.980469 C 8.289062 -11.746094 8.109375 -12.304688 7.742188 -12.664062 C 7.375 -13.027344 6.816406 -13.207031 6.0625 -13.207031 L 3.851562 -13.207031 C 3.097656 -13.207031 2.53125 -13.027344 2.160156 -12.664062 C 1.789062 -12.304688 1.605469 -11.742188 1.605469 -10.980469 L 1.605469 -2.84375 C 1.605469 -2.09375 1.789062 -1.535156 2.160156 -1.171875 C 2.535156 -0.800781 3.097656 -0.617188 3.851562 -0.617188 L 6.0625 -0.617188 C 6.816406 -0.617188 7.375 -0.800781 7.742188 -1.167969 C 8.105469 -1.535156 8.289062 -2.09375 8.289062 -2.84375 L 8.289062 -4.976562 C 8.289062 -4.964844 8.292969 -4.945312 8.300781 -4.921875 C 8.320312 -4.867188 8.351562 -4.820312 8.390625 -4.777344 C 8.433594 -4.734375 8.480469 -4.707031 8.535156 -4.6875 C 8.558594 -4.679688 8.578125 -4.675781 8.59375 -4.675781 L 6.734375 -4.675781 C 6.75 -4.675781 6.769531 -4.679688 6.792969 -4.6875 C 6.84375 -4.707031 6.890625 -4.734375 6.933594 -4.777344 C 6.976562 -4.820312 7.007812 -4.867188 7.023438 -4.921875 C 7.03125 -4.945312 7.035156 -4.964844 7.035156 -4.976562 L 7.035156 -3.296875 C 7.035156 -2.863281 6.910156 -2.523438 6.65625 -2.269531 C 6.40625 -2.015625 6.0625 -1.890625 5.628906 -1.890625 L 4.363281 -1.890625 C 3.929688 -1.890625 3.589844 -2.015625 3.335938 -2.269531 C 3.082031 -2.523438 2.957031 -2.863281 2.957031 -3.296875 L 2.957031 -10.46875 C 2.957031 -10.902344 3.082031 -11.246094 3.335938 -11.496094 C 3.589844 -11.75 3.929688 -11.875 4.363281 -11.875 L 5.628906 -11.875 C 6.0625 -11.875 6.40625 -11.75 6.65625 -11.496094 C 6.910156 -11.246094 7.035156 -10.902344 7.035156 -10.46875 L 7.035156 -8.847656 C 7.035156 -8.863281 7.03125 -8.882812 7.023438 -8.90625 C 7.007812 -8.957031 6.976562 -9.003906 6.933594 -9.046875 C 6.890625 -9.089844 6.84375 -9.121094 6.792969 -9.136719 C 6.769531 -9.144531 6.75 -9.148438 6.734375 -9.148438 L 8.59375 -9.148438 C 8.578125 -9.148438 8.558594 -9.144531 8.535156 -9.136719 C 8.480469 -9.121094 8.433594 -9.089844 8.390625 -9.046875 C 8.351562 -9.003906 8.320312 -8.957031 8.300781 -8.90625 C 8.292969 -8.882812 8.289062 -8.863281 8.289062 -8.847656 Z M 8.289062 -10.980469 "/></g></g><g style="fill:#b21a22;fill-opacity:1;"><g transform="translate(35.226482, 41.991995)"><path style="stroke:none" d="M 8.175781 -13.207031 L 0.910156 -13.207031 C 0.921875 -13.207031 0.941406 -13.210938 0.964844 -13.21875 C 1.019531 -13.238281 1.066406 -13.269531 1.109375 -13.308594 C 1.148438 -13.351562 1.179688 -13.398438 1.199219 -13.453125 C 1.207031 -13.476562 1.210938 -13.496094 1.210938 -13.511719 L 1.210938 -11.535156 C 1.210938 -11.550781 1.207031 -11.566406 1.199219 -11.589844 C 1.179688 -11.644531 1.148438 -11.691406 1.109375 -11.734375 C 1.066406 -11.777344 1.019531 -11.804688 0.964844 -11.824219 C 0.941406 -11.832031 0.921875 -11.835938 0.910156 -11.835938 L 3.816406 -11.835938 L 3.816406 -0.316406 C 3.816406 -0.332031 3.8125 -0.347656 3.804688 -0.371094 C 3.789062 -0.425781 3.757812 -0.472656 3.714844 -0.515625 C 3.671875 -0.558594 3.625 -0.585938 3.574219 -0.605469 C 3.546875 -0.613281 3.53125 -0.617188 3.515625 -0.617188 L 5.570312 -0.617188 C 5.554688 -0.617188 5.535156 -0.613281 5.511719 -0.605469 C 5.460938 -0.585938 5.414062 -0.558594 5.371094 -0.515625 C 5.328125 -0.472656 5.296875 -0.425781 5.28125 -0.371094 C 5.273438 -0.347656 5.269531 -0.332031 5.269531 -0.316406 L 5.269531 -11.835938 L 8.175781 -11.835938 C 8.164062 -11.835938 8.144531 -11.832031 8.121094 -11.824219 C 8.066406 -11.804688 8.019531 -11.777344 7.976562 -11.734375 C 7.933594 -11.691406 7.90625 -11.644531 7.886719 -11.589844 C 7.878906 -11.566406 7.875 -11.550781 7.875 -11.535156 L 7.875 -13.511719 C 7.875 -13.496094 7.878906 -13.476562 7.886719 -13.453125 C 7.90625 -13.398438 7.933594 -13.351562 7.976562 -13.308594 C 8.019531 -13.269531 8.066406 -13.238281 8.121094 -13.21875 C 8.144531 -13.210938 8.164062 -13.207031 8.175781 -13.207031 Z M 8.175781 -14.441406 C 8.453125 -14.441406 8.675781 -14.355469 8.851562 -14.183594 C 9.023438 -14.011719 9.109375 -13.785156 9.109375 -13.511719 L 9.109375 -11.535156 C 9.109375 -11.257812 9.023438 -11.035156 8.851562 -10.859375 C 8.675781 -10.6875 8.453125 -10.601562 8.175781 -10.601562 L 5.886719 -10.601562 L 5.886719 -11.21875 L 6.503906 -11.21875 L 6.503906 -0.316406 C 6.503906 -0.0390625 6.417969 0.183594 6.242188 0.359375 C 6.070312 0.53125 5.84375 0.617188 5.570312 0.617188 L 3.515625 0.617188 C 3.238281 0.617188 3.015625 0.53125 2.84375 0.359375 C 2.667969 0.183594 2.582031 -0.0390625 2.582031 -0.316406 L 2.582031 -11.21875 L 3.199219 -11.21875 L 3.199219 -10.601562 L 0.910156 -10.601562 C 0.632812 -10.601562 0.410156 -10.6875 0.234375 -10.859375 C 0.0625 -11.035156 -0.0234375 -11.257812 -0.0234375 -11.535156 L -0.0234375 -13.511719 C -0.0234375 -13.785156 0.0625 -14.011719 0.234375 -14.183594 C 0.410156 -14.355469 0.632812 -14.441406 0.910156 -14.441406 Z M 8.175781 -14.441406 "/></g></g><g style="fill:#b21a22;fill-opacity:1;"><g transform="translate(44.309217, 41.991995)"><path style="stroke:none" d="M 1.304688 -0.617188 L 3.359375 -0.617188 C 3.34375 -0.617188 3.324219 -0.613281 3.300781 -0.605469 C 3.25 -0.585938 3.199219 -0.558594 3.160156 -0.515625 C 3.117188 -0.472656 3.085938 -0.425781 3.070312 -0.371094 C 3.058594 -0.347656 3.054688 -0.332031 3.054688 -0.316406 L 3.054688 -13.511719 C 3.054688 -13.496094 3.058594 -13.476562 3.070312 -13.453125 C 3.085938 -13.398438 3.117188 -13.351562 3.160156 -13.308594 C 3.199219 -13.269531 3.25 -13.238281 3.300781 -13.21875 C 3.324219 -13.210938 3.34375 -13.207031 3.359375 -13.207031 L 1.304688 -13.207031 C 1.316406 -13.207031 1.335938 -13.210938 1.359375 -13.21875 C 1.414062 -13.238281 1.460938 -13.269531 1.503906 -13.308594 C 1.546875 -13.351562 1.574219 -13.398438 1.59375 -13.453125 C 1.601562 -13.476562 1.605469 -13.496094 1.605469 -13.511719 L 1.605469 -0.316406 C 1.605469 -0.332031 1.601562 -0.347656 1.59375 -0.371094 C 1.574219 -0.425781 1.546875 -0.472656 1.503906 -0.515625 C 1.460938 -0.558594 1.414062 -0.585938 1.359375 -0.605469 C 1.335938 -0.613281 1.316406 -0.617188 1.304688 -0.617188 Z M 1.304688 0.617188 C 1.027344 0.617188 0.804688 0.53125 0.628906 0.359375 C 0.457031 0.183594 0.371094 -0.0390625 0.371094 -0.316406 L 0.371094 -13.511719 C 0.371094 -13.785156 0.457031 -14.011719 0.628906 -14.183594 C 0.804688 -14.355469 1.027344 -14.441406 1.304688 -14.441406 L 3.359375 -14.441406 C 3.632812 -14.441406 3.859375 -14.355469 4.03125 -14.183594 C 4.203125 -14.011719 4.292969 -13.785156 4.292969 -13.511719 L 4.292969 -0.316406 C 4.292969 -0.0390625 4.203125 0.183594 4.03125 0.359375 C 3.859375 0.53125 3.632812 0.617188 3.359375 0.617188 Z M 1.304688 0.617188 "/></g></g><g style="fill:#b21a22;fill-opacity:1;"><g transform="translate(48.969052, 41.991995)"><path style="stroke:none" d="M 7.566406 -14.441406 L 9.363281 -14.441406 C 9.707031 -14.441406 9.972656 -14.332031 10.15625 -14.109375 C 10.34375 -13.878906 10.398438 -13.59375 10.320312 -13.253906 L 7.175781 -0.210938 C 7.121094 0.0390625 7.003906 0.238281 6.820312 0.390625 C 6.632812 0.542969 6.40625 0.617188 6.144531 0.617188 L 4.167969 0.617188 C 3.910156 0.617188 3.6875 0.542969 3.5 0.390625 C 3.328125 0.246094 3.207031 0.0546875 3.136719 -0.191406 L 3.136719 -0.199219 L 0.0117188 -13.246094 C -0.0664062 -13.59375 -0.0117188 -13.878906 0.175781 -14.109375 C 0.355469 -14.332031 0.621094 -14.441406 0.96875 -14.441406 L 2.765625 -14.441406 C 3.03125 -14.441406 3.257812 -14.367188 3.441406 -14.214844 C 3.625 -14.066406 3.746094 -13.863281 3.800781 -13.605469 L 5.757812 -4.675781 L 5.15625 -4.542969 L 4.550781 -4.675781 L 6.53125 -13.621094 L 6.535156 -13.636719 C 6.601562 -13.878906 6.722656 -14.074219 6.898438 -14.214844 C 7.082031 -14.367188 7.304688 -14.441406 7.566406 -14.441406 Z M 7.566406 -13.207031 C 7.601562 -13.207031 7.636719 -13.226562 7.679688 -13.257812 C 7.699219 -13.277344 7.714844 -13.292969 7.726562 -13.3125 C 7.726562 -13.316406 7.730469 -13.316406 7.730469 -13.316406 C 7.726562 -13.316406 7.726562 -13.3125 7.726562 -13.304688 L 7.128906 -13.46875 L 7.734375 -13.335938 L 5.757812 -4.410156 L 4.550781 -4.410156 L 2.597656 -13.335938 C 2.597656 -13.339844 2.597656 -13.339844 2.597656 -13.34375 C 2.597656 -13.335938 2.601562 -13.332031 2.601562 -13.324219 C 2.617188 -13.300781 2.636719 -13.28125 2.660156 -13.257812 C 2.703125 -13.226562 2.738281 -13.207031 2.765625 -13.207031 L 0.96875 -13.207031 C 0.957031 -13.207031 0.953125 -13.207031 0.949219 -13.207031 C 0.957031 -13.207031 0.964844 -13.210938 0.976562 -13.214844 C 1.035156 -13.234375 1.085938 -13.273438 1.128906 -13.328125 C 1.175781 -13.382812 1.203125 -13.441406 1.210938 -13.507812 C 1.210938 -13.519531 1.210938 -13.53125 1.210938 -13.542969 C 1.210938 -13.539062 1.210938 -13.539062 1.210938 -13.535156 L 4.332031 -0.5 L 3.734375 -0.355469 L 4.328125 -0.519531 C 4.328125 -0.515625 4.332031 -0.511719 4.332031 -0.507812 C 4.332031 -0.507812 4.332031 -0.511719 4.328125 -0.515625 C 4.316406 -0.53125 4.300781 -0.550781 4.28125 -0.566406 C 4.242188 -0.601562 4.203125 -0.617188 4.167969 -0.617188 L 6.144531 -0.617188 C 6.113281 -0.617188 6.078125 -0.601562 6.039062 -0.566406 C 6.011719 -0.546875 5.996094 -0.523438 5.980469 -0.5 C 5.976562 -0.492188 5.976562 -0.488281 5.972656 -0.484375 C 5.972656 -0.484375 5.976562 -0.488281 5.976562 -0.5 L 9.117188 -13.527344 C 9.117188 -13.535156 9.117188 -13.539062 9.117188 -13.542969 C 9.117188 -13.53125 9.117188 -13.519531 9.121094 -13.507812 C 9.128906 -13.441406 9.15625 -13.382812 9.199219 -13.328125 C 9.246094 -13.273438 9.296875 -13.234375 9.355469 -13.214844 C 9.363281 -13.210938 9.375 -13.207031 9.378906 -13.207031 C 9.378906 -13.207031 9.371094 -13.207031 9.363281 -13.207031 Z M 7.566406 -13.207031 "/></g></g><g style="fill:#b21a22;fill-opacity:1;"><g transform="translate(59.295724, 41.991995)"><path style="stroke:none" d="M 9.484375 -13.511719 L 9.484375 -11.535156 C 9.484375 -11.257812 9.402344 -11.035156 9.238281 -10.859375 C 9.0625 -10.675781 8.835938 -10.582031 8.550781 -10.582031 L 3.671875 -10.582031 L 3.671875 -11.199219 L 4.292969 -11.199219 L 4.292969 -8.15625 L 3.671875 -8.15625 L 3.671875 -8.773438 L 7.386719 -8.773438 C 7.671875 -8.773438 7.898438 -8.683594 8.074219 -8.496094 C 8.238281 -8.320312 8.320312 -8.097656 8.320312 -7.820312 L 8.320312 -5.867188 C 8.320312 -5.589844 8.238281 -5.367188 8.074219 -5.191406 C 7.898438 -5.003906 7.671875 -4.914062 7.386719 -4.914062 L 3.671875 -4.914062 L 3.671875 -5.53125 L 4.292969 -5.53125 L 4.292969 -2.605469 L 3.671875 -2.605469 L 3.671875 -3.222656 L 8.550781 -3.222656 C 8.828125 -3.222656 9.050781 -3.136719 9.226562 -2.964844 C 9.398438 -2.792969 9.484375 -2.566406 9.484375 -2.292969 L 9.484375 -0.316406 C 9.484375 -0.0390625 9.398438 0.183594 9.226562 0.359375 C 9.050781 0.53125 8.828125 0.617188 8.550781 0.617188 L 1.285156 0.617188 C 1.007812 0.617188 0.78125 0.527344 0.609375 0.34375 C 0.449219 0.171875 0.371094 -0.046875 0.371094 -0.316406 L 0.371094 -13.511719 C 0.371094 -13.777344 0.449219 -13.996094 0.609375 -14.167969 C 0.78125 -14.351562 1.007812 -14.441406 1.285156 -14.441406 L 8.550781 -14.441406 C 8.828125 -14.441406 9.050781 -14.355469 9.226562 -14.183594 C 9.398438 -14.011719 9.484375 -13.785156 9.484375 -13.511719 Z M 8.25 -13.511719 C 8.25 -13.496094 8.253906 -13.476562 8.261719 -13.453125 C 8.28125 -13.398438 8.308594 -13.351562 8.351562 -13.308594 C 8.394531 -13.269531 8.441406 -13.238281 8.496094 -13.21875 C 8.519531 -13.210938 8.539062 -13.207031 8.550781 -13.207031 L 1.285156 -13.207031 C 1.363281 -13.207031 1.4375 -13.246094 1.511719 -13.324219 C 1.550781 -13.367188 1.578125 -13.414062 1.59375 -13.464844 C 1.601562 -13.484375 1.605469 -13.5 1.605469 -13.511719 L 1.605469 -0.316406 C 1.605469 -0.324219 1.601562 -0.339844 1.59375 -0.363281 C 1.578125 -0.414062 1.550781 -0.457031 1.511719 -0.5 C 1.4375 -0.578125 1.363281 -0.617188 1.285156 -0.617188 L 8.550781 -0.617188 C 8.539062 -0.617188 8.519531 -0.613281 8.496094 -0.605469 C 8.441406 -0.585938 8.394531 -0.558594 8.351562 -0.515625 C 8.308594 -0.472656 8.28125 -0.425781 8.261719 -0.371094 C 8.253906 -0.347656 8.25 -0.332031 8.25 -0.316406 L 8.25 -2.292969 C 8.25 -2.277344 8.253906 -2.257812 8.261719 -2.234375 C 8.28125 -2.179688 8.308594 -2.132812 8.351562 -2.089844 C 8.394531 -2.050781 8.441406 -2.019531 8.496094 -2 C 8.519531 -1.992188 8.539062 -1.988281 8.550781 -1.988281 L 3.054688 -1.988281 L 3.054688 -6.148438 L 7.386719 -6.148438 C 7.367188 -6.148438 7.347656 -6.144531 7.320312 -6.132812 C 7.265625 -6.113281 7.214844 -6.082031 7.175781 -6.039062 C 7.136719 -5.996094 7.109375 -5.953125 7.09375 -5.902344 C 7.089844 -5.886719 7.085938 -5.875 7.085938 -5.867188 L 7.085938 -7.820312 C 7.085938 -7.8125 7.089844 -7.800781 7.09375 -7.785156 C 7.109375 -7.734375 7.136719 -7.691406 7.175781 -7.648438 C 7.214844 -7.605469 7.265625 -7.574219 7.320312 -7.554688 C 7.347656 -7.542969 7.367188 -7.539062 7.386719 -7.539062 L 3.054688 -7.539062 L 3.054688 -11.816406 L 8.550781 -11.816406 C 8.535156 -11.816406 8.511719 -11.8125 8.484375 -11.800781 C 8.429688 -11.78125 8.382812 -11.75 8.339844 -11.707031 C 8.300781 -11.664062 8.273438 -11.621094 8.257812 -11.574219 C 8.253906 -11.554688 8.25 -11.542969 8.25 -11.535156 Z M 8.25 -13.511719 "/></g></g><g style="fill:#b21a22;fill-opacity:1;"><g transform="translate(69.148514, 41.991995)"><path style="stroke:none" d="M -0.617188 2.648438 L -0.617188 0.828125 C -0.617188 0.527344 -0.523438 0.28125 -0.335938 0.0976562 C -0.152344 -0.0898438 0.09375 -0.183594 0.394531 -0.183594 L 12.304688 -0.183594 C 12.605469 -0.183594 12.851562 -0.0898438 13.039062 0.0976562 C 13.222656 0.28125 13.316406 0.527344 13.316406 0.828125 L 13.316406 2.648438 C 13.316406 2.949219 13.222656 3.191406 13.039062 3.378906 C 12.851562 3.566406 12.605469 3.660156 12.304688 3.660156 L 0.394531 3.660156 C 0.09375 3.660156 -0.152344 3.566406 -0.335938 3.378906 C -0.523438 3.191406 -0.617188 2.949219 -0.617188 2.648438 Z M 0.617188 2.648438 C 0.617188 2.648438 0.617188 2.652344 0.617188 2.652344 C 0.617188 2.644531 0.613281 2.636719 0.609375 2.625 C 0.597656 2.582031 0.570312 2.542969 0.535156 2.507812 C 0.5 2.46875 0.460938 2.445312 0.417969 2.429688 C 0.40625 2.429688 0.398438 2.425781 0.390625 2.425781 C 0.390625 2.425781 0.386719 2.425781 0.386719 2.425781 C 0.390625 2.425781 0.390625 2.425781 0.394531 2.425781 L 12.304688 2.425781 C 12.308594 2.425781 12.308594 2.425781 12.3125 2.425781 C 12.3125 2.425781 12.3125 2.425781 12.308594 2.425781 C 12.300781 2.425781 12.292969 2.429688 12.28125 2.429688 C 12.238281 2.445312 12.199219 2.46875 12.164062 2.507812 C 12.128906 2.542969 12.105469 2.582031 12.089844 2.625 C 12.085938 2.636719 12.085938 2.644531 12.082031 2.652344 C 12.082031 2.652344 12.082031 2.648438 12.082031 2.648438 L 12.082031 0.828125 C 12.082031 0.828125 12.082031 0.824219 12.082031 0.824219 C 12.085938 0.832031 12.085938 0.839844 12.089844 0.851562 C 12.105469 0.894531 12.128906 0.933594 12.164062 0.96875 C 12.199219 1.003906 12.238281 1.03125 12.28125 1.042969 C 12.292969 1.046875 12.300781 1.050781 12.308594 1.050781 C 12.3125 1.050781 12.3125 1.050781 12.3125 1.050781 C 12.308594 1.050781 12.308594 1.050781 12.304688 1.050781 L 0.394531 1.050781 C 0.390625 1.050781 0.390625 1.050781 0.386719 1.050781 C 0.386719 1.050781 0.390625 1.050781 0.390625 1.050781 C 0.398438 1.050781 0.40625 1.046875 0.417969 1.042969 C 0.460938 1.03125 0.5 1.003906 0.535156 0.96875 C 0.570312 0.933594 0.597656 0.894531 0.609375 0.851562 C 0.613281 0.839844 0.617188 0.832031 0.617188 0.824219 C 0.617188 0.824219 0.617188 0.828125 0.617188 0.828125 Z M 0.617188 2.648438 "/></g></g><g style="fill:#b21a22;fill-opacity:1;"><g transform="translate(11.244254, 69.528688)"><path style="stroke:none" d="M 3.832031 -14.441406 L 6.042969 -14.441406 C 7.148438 -14.441406 8.003906 -14.144531 8.605469 -13.542969 C 9.203125 -12.941406 9.503906 -12.085938 9.503906 -10.980469 L 9.503906 -9.679688 C 9.503906 -9.402344 9.417969 -9.179688 9.246094 -9.003906 C 9.074219 -8.832031 8.847656 -8.746094 8.570312 -8.746094 L 6.578125 -8.746094 C 6.300781 -8.746094 6.078125 -8.832031 5.902344 -9.003906 C 5.730469 -9.179688 5.644531 -9.402344 5.644531 -9.679688 L 5.644531 -10.507812 C 5.644531 -10.574219 5.636719 -10.621094 5.625 -10.65625 C 5.625 -10.664062 5.621094 -10.667969 5.621094 -10.671875 C 5.621094 -10.667969 5.625 -10.667969 5.628906 -10.664062 C 5.628906 -10.660156 5.632812 -10.660156 5.636719 -10.65625 C 5.632812 -10.660156 5.628906 -10.660156 5.621094 -10.664062 C 5.585938 -10.675781 5.535156 -10.679688 5.472656 -10.679688 L 4.386719 -10.679688 C 4.320312 -10.679688 4.269531 -10.675781 4.234375 -10.664062 C 4.226562 -10.660156 4.222656 -10.660156 4.222656 -10.65625 C 4.222656 -10.660156 4.226562 -10.660156 4.230469 -10.664062 C 4.230469 -10.667969 4.234375 -10.667969 4.234375 -10.671875 C 4.234375 -10.667969 4.230469 -10.664062 4.230469 -10.65625 C 4.21875 -10.621094 4.210938 -10.574219 4.210938 -10.507812 L 4.210938 -8.828125 L 3.59375 -8.828125 L 3.785156 -9.417969 L 8.5625 -7.875 C 8.867188 -7.769531 9.101562 -7.601562 9.265625 -7.371094 C 9.425781 -7.144531 9.503906 -6.871094 9.503906 -6.558594 L 9.503906 -2.84375 C 9.503906 -1.753906 9.207031 -0.90625 8.605469 -0.296875 C 8.003906 0.3125 7.152344 0.617188 6.042969 0.617188 L 3.832031 0.617188 C 2.738281 0.617188 1.890625 0.3125 1.28125 -0.292969 C 0.675781 -0.902344 0.371094 -1.753906 0.371094 -2.84375 L 0.371094 -4.128906 C 0.371094 -4.402344 0.457031 -4.628906 0.628906 -4.800781 C 0.804688 -4.976562 1.027344 -5.0625 1.304688 -5.0625 L 3.296875 -5.0625 C 3.574219 -5.0625 3.796875 -4.976562 3.972656 -4.800781 C 4.144531 -4.628906 4.230469 -4.402344 4.230469 -4.128906 L 4.230469 -3.296875 C 4.230469 -3.234375 4.238281 -3.183594 4.25 -3.148438 C 4.25 -3.140625 4.253906 -3.136719 4.253906 -3.132812 C 4.253906 -3.136719 4.25 -3.140625 4.25 -3.140625 C 4.246094 -3.144531 4.242188 -3.148438 4.242188 -3.148438 C 4.242188 -3.148438 4.246094 -3.144531 4.253906 -3.144531 C 4.289062 -3.132812 4.339844 -3.125 4.40625 -3.125 L 5.472656 -3.125 C 5.535156 -3.125 5.585938 -3.132812 5.621094 -3.144531 C 5.628906 -3.144531 5.632812 -3.148438 5.636719 -3.148438 C 5.632812 -3.148438 5.628906 -3.144531 5.628906 -3.140625 C 5.625 -3.140625 5.621094 -3.136719 5.621094 -3.132812 C 5.621094 -3.136719 5.625 -3.140625 5.625 -3.148438 C 5.636719 -3.183594 5.644531 -3.234375 5.644531 -3.296875 L 5.644531 -5.292969 L 6.261719 -5.292969 L 6.070312 -4.707031 L 1.328125 -6.246094 C 1.023438 -6.347656 0.789062 -6.511719 0.621094 -6.742188 C 0.453125 -6.972656 0.371094 -7.246094 0.371094 -7.566406 L 0.371094 -10.980469 C 0.371094 -12.089844 0.675781 -12.941406 1.285156 -13.542969 C 1.890625 -14.144531 2.742188 -14.441406 3.832031 -14.441406 Z M 3.832031 -13.207031 C 3.078125 -13.207031 2.519531 -13.027344 2.152344 -12.664062 C 1.789062 -12.304688 1.605469 -11.746094 1.605469 -10.980469 L 1.605469 -7.566406 C 1.605469 -7.515625 1.609375 -7.484375 1.621094 -7.46875 C 1.632812 -7.453125 1.660156 -7.4375 1.710938 -7.421875 L 6.878906 -5.742188 L 6.878906 -3.296875 C 6.878906 -2.863281 6.753906 -2.523438 6.5 -2.269531 C 6.246094 -2.015625 5.90625 -1.890625 5.472656 -1.890625 L 4.40625 -1.890625 C 3.972656 -1.890625 3.628906 -2.015625 3.375 -2.269531 C 3.125 -2.523438 2.996094 -2.863281 2.996094 -3.296875 L 2.996094 -4.128906 C 2.996094 -4.113281 3 -4.09375 3.007812 -4.070312 C 3.027344 -4.019531 3.058594 -3.972656 3.097656 -3.929688 C 3.140625 -3.886719 3.1875 -3.855469 3.242188 -3.839844 C 3.265625 -3.832031 3.285156 -3.828125 3.296875 -3.828125 L 1.304688 -3.828125 C 1.316406 -3.828125 1.335938 -3.832031 1.359375 -3.839844 C 1.414062 -3.855469 1.460938 -3.886719 1.503906 -3.929688 C 1.546875 -3.972656 1.574219 -4.019531 1.59375 -4.070312 C 1.601562 -4.09375 1.605469 -4.113281 1.605469 -4.128906 L 1.605469 -2.84375 C 1.605469 -2.09375 1.789062 -1.535156 2.15625 -1.167969 C 2.523438 -0.800781 3.082031 -0.617188 3.832031 -0.617188 L 6.042969 -0.617188 C 6.808594 -0.617188 7.367188 -0.800781 7.726562 -1.164062 C 8.089844 -1.53125 8.269531 -2.089844 8.269531 -2.84375 L 8.269531 -6.558594 C 8.269531 -6.613281 8.265625 -6.644531 8.253906 -6.660156 C 8.246094 -6.675781 8.222656 -6.6875 8.183594 -6.699219 L 2.976562 -8.378906 L 2.976562 -10.507812 C 2.976562 -10.941406 3.105469 -11.285156 3.355469 -11.535156 C 3.609375 -11.789062 3.949219 -11.914062 4.386719 -11.914062 L 5.472656 -11.914062 C 5.90625 -11.914062 6.246094 -11.789062 6.5 -11.535156 C 6.753906 -11.285156 6.878906 -10.941406 6.878906 -10.507812 L 6.878906 -9.679688 C 6.878906 -9.691406 6.875 -9.710938 6.867188 -9.734375 C 6.847656 -9.789062 6.820312 -9.835938 6.777344 -9.878906 C 6.734375 -9.921875 6.6875 -9.949219 6.632812 -9.96875 C 6.609375 -9.976562 6.589844 -9.980469 6.578125 -9.980469 L 8.570312 -9.980469 C 8.558594 -9.980469 8.539062 -9.976562 8.515625 -9.96875 C 8.460938 -9.949219 8.414062 -9.921875 8.371094 -9.878906 C 8.332031 -9.835938 8.300781 -9.789062 8.28125 -9.734375 C 8.273438 -9.710938 8.269531 -9.691406 8.269531 -9.679688 L 8.269531 -10.980469 C 8.269531 -11.746094 8.089844 -12.308594 7.730469 -12.667969 C 7.371094 -13.027344 6.808594 -13.207031 6.042969 -13.207031 Z M 3.832031 -13.207031 "/></g></g><g style="fill:#b21a22;fill-opacity:1;"><g transform="translate(21.116791, 69.528688)"><path style="stroke:none" d="M 9.484375 -13.511719 L 9.484375 -11.535156 C 9.484375 -11.257812 9.402344 -11.035156 9.238281 -10.859375 C 9.0625 -10.675781 8.835938 -10.582031 8.550781 -10.582031 L 3.671875 -10.582031 L 3.671875 -11.199219 L 4.292969 -11.199219 L 4.292969 -8.15625 L 3.671875 -8.15625 L 3.671875 -8.773438 L 7.386719 -8.773438 C 7.671875 -8.773438 7.898438 -8.683594 8.074219 -8.496094 C 8.238281 -8.320312 8.320312 -8.097656 8.320312 -7.820312 L 8.320312 -5.867188 C 8.320312 -5.589844 8.238281 -5.367188 8.074219 -5.191406 C 7.898438 -5.003906 7.671875 -4.914062 7.386719 -4.914062 L 3.671875 -4.914062 L 3.671875 -5.53125 L 4.292969 -5.53125 L 4.292969 -2.605469 L 3.671875 -2.605469 L 3.671875 -3.222656 L 8.550781 -3.222656 C 8.828125 -3.222656 9.050781 -3.136719 9.226562 -2.964844 C 9.398438 -2.792969 9.484375 -2.566406 9.484375 -2.292969 L 9.484375 -0.316406 C 9.484375 -0.0390625 9.398438 0.183594 9.226562 0.359375 C 9.050781 0.53125 8.828125 0.617188 8.550781 0.617188 L 1.285156 0.617188 C 1.007812 0.617188 0.78125 0.527344 0.609375 0.34375 C 0.449219 0.171875 0.371094 -0.046875 0.371094 -0.316406 L 0.371094 -13.511719 C 0.371094 -13.777344 0.449219 -13.996094 0.609375 -14.167969 C 0.78125 -14.351562 1.007812 -14.441406 1.285156 -14.441406 L 8.550781 -14.441406 C 8.828125 -14.441406 9.050781 -14.355469 9.226562 -14.183594 C 9.398438 -14.011719 9.484375 -13.785156 9.484375 -13.511719 Z M 8.25 -13.511719 C 8.25 -13.496094 8.253906 -13.476562 8.261719 -13.453125 C 8.28125 -13.398438 8.308594 -13.351562 8.351562 -13.308594 C 8.394531 -13.269531 8.441406 -13.238281 8.496094 -13.21875 C 8.519531 -13.210938 8.539062 -13.207031 8.550781 -13.207031 L 1.285156 -13.207031 C 1.363281 -13.207031 1.4375 -13.246094 1.511719 -13.324219 C 1.550781 -13.367188 1.578125 -13.414062 1.59375 -13.464844 C 1.601562 -13.484375 1.605469 -13.5 1.605469 -13.511719 L 1.605469 -0.316406 C 1.605469 -0.324219 1.601562 -0.339844 1.59375 -0.363281 C 1.578125 -0.414062 1.550781 -0.457031 1.511719 -0.5 C 1.4375 -0.578125 1.363281 -0.617188 1.285156 -0.617188 L 8.550781 -0.617188 C 8.539062 -0.617188 8.519531 -0.613281 8.496094 -0.605469 C 8.441406 -0.585938 8.394531 -0.558594 8.351562 -0.515625 C 8.308594 -0.472656 8.28125 -0.425781 8.261719 -0.371094 C 8.253906 -0.347656 8.25 -0.332031 8.25 -0.316406 L 8.25 -2.292969 C 8.25 -2.277344 8.253906 -2.257812 8.261719 -2.234375 C 8.28125 -2.179688 8.308594 -2.132812 8.351562 -2.089844 C 8.394531 -2.050781 8.441406 -2.019531 8.496094 -2 C 8.519531 -1.992188 8.539062 -1.988281 8.550781 -1.988281 L 3.054688 -1.988281 L 3.054688 -6.148438 L 7.386719 -6.148438 C 7.367188 -6.148438 7.347656 -6.144531 7.320312 -6.132812 C 7.265625 -6.113281 7.214844 -6.082031 7.175781 -6.039062 C 7.136719 -5.996094 7.109375 -5.953125 7.09375 -5.902344 C 7.089844 -5.886719 7.085938 -5.875 7.085938 -5.867188 L 7.085938 -7.820312 C 7.085938 -7.8125 7.089844 -7.800781 7.09375 -7.785156 C 7.109375 -7.734375 7.136719 -7.691406 7.175781 -7.648438 C 7.214844 -7.605469 7.265625 -7.574219 7.320312 -7.554688 C 7.347656 -7.542969 7.367188 -7.539062 7.386719 -7.539062 L 3.054688 -7.539062 L 3.054688 -11.816406 L 8.550781 -11.816406 C 8.535156 -11.816406 8.511719 -11.8125 8.484375 -11.800781 C 8.429688 -11.78125 8.382812 -11.75 8.339844 -11.707031 C 8.300781 -11.664062 8.273438 -11.621094 8.257812 -11.574219 C 8.253906 -11.554688 8.25 -11.542969 8.25 -11.535156 Z M 8.25 -13.511719 "/></g></g><g style="fill:#b21a22;fill-opacity:1;"><g transform="translate(30.969581, 69.528688)"><path style="stroke:none" d="M 9.523438 -10.980469 L 9.523438 -8.847656 C 9.523438 -8.574219 9.4375 -8.347656 9.265625 -8.175781 C 9.09375 -8 8.867188 -7.914062 8.59375 -7.914062 L 6.734375 -7.914062 C 6.460938 -7.914062 6.234375 -8 6.0625 -8.175781 C 5.886719 -8.347656 5.800781 -8.574219 5.800781 -8.847656 L 5.800781 -10.46875 C 5.800781 -10.53125 5.796875 -10.582031 5.785156 -10.617188 C 5.78125 -10.625 5.78125 -10.628906 5.777344 -10.632812 C 5.78125 -10.628906 5.78125 -10.628906 5.785156 -10.625 C 5.789062 -10.621094 5.789062 -10.621094 5.792969 -10.617188 C 5.789062 -10.621094 5.785156 -10.621094 5.78125 -10.625 C 5.746094 -10.636719 5.695312 -10.640625 5.628906 -10.640625 L 4.363281 -10.640625 C 4.300781 -10.640625 4.25 -10.636719 4.214844 -10.625 C 4.207031 -10.621094 4.203125 -10.621094 4.203125 -10.617188 C 4.203125 -10.621094 4.207031 -10.621094 4.207031 -10.625 C 4.210938 -10.628906 4.214844 -10.628906 4.214844 -10.632812 C 4.214844 -10.628906 4.210938 -10.625 4.210938 -10.617188 C 4.199219 -10.582031 4.191406 -10.53125 4.191406 -10.46875 L 4.191406 -3.296875 C 4.191406 -3.234375 4.199219 -3.183594 4.210938 -3.148438 C 4.210938 -3.140625 4.214844 -3.136719 4.214844 -3.132812 C 4.214844 -3.136719 4.210938 -3.140625 4.207031 -3.140625 C 4.207031 -3.144531 4.203125 -3.148438 4.203125 -3.148438 C 4.203125 -3.148438 4.207031 -3.144531 4.214844 -3.144531 C 4.25 -3.132812 4.300781 -3.125 4.363281 -3.125 L 5.628906 -3.125 C 5.695312 -3.125 5.746094 -3.132812 5.78125 -3.144531 C 5.785156 -3.144531 5.789062 -3.148438 5.792969 -3.148438 C 5.789062 -3.148438 5.789062 -3.144531 5.785156 -3.140625 C 5.78125 -3.140625 5.78125 -3.136719 5.777344 -3.132812 C 5.78125 -3.136719 5.78125 -3.140625 5.785156 -3.148438 C 5.796875 -3.183594 5.800781 -3.234375 5.800781 -3.296875 L 5.800781 -4.976562 C 5.800781 -5.253906 5.886719 -5.476562 6.0625 -5.652344 C 6.234375 -5.824219 6.460938 -5.910156 6.734375 -5.910156 L 8.59375 -5.910156 C 8.867188 -5.910156 9.09375 -5.824219 9.265625 -5.652344 C 9.4375 -5.476562 9.523438 -5.253906 9.523438 -4.976562 L 9.523438 -2.84375 C 9.523438 -1.753906 9.222656 -0.902344 8.613281 -0.292969 C 8.003906 0.3125 7.15625 0.617188 6.0625 0.617188 L 3.851562 0.617188 C 2.761719 0.617188 1.910156 0.3125 1.292969 -0.292969 C 0.679688 -0.898438 0.371094 -1.75 0.371094 -2.84375 L 0.371094 -10.980469 C 0.371094 -12.089844 0.679688 -12.945312 1.296875 -13.546875 C 1.910156 -14.144531 2.761719 -14.441406 3.851562 -14.441406 L 6.0625 -14.441406 C 7.152344 -14.441406 8.003906 -14.144531 8.609375 -13.542969 C 9.21875 -12.941406 9.523438 -12.089844 9.523438 -10.980469 Z M 8.289062 -10.980469 C 8.289062 -11.746094 8.109375 -12.304688 7.742188 -12.664062 C 7.375 -13.027344 6.816406 -13.207031 6.0625 -13.207031 L 3.851562 -13.207031 C 3.097656 -13.207031 2.53125 -13.027344 2.160156 -12.664062 C 1.789062 -12.304688 1.605469 -11.742188 1.605469 -10.980469 L 1.605469 -2.84375 C 1.605469 -2.09375 1.789062 -1.535156 2.160156 -1.171875 C 2.535156 -0.800781 3.097656 -0.617188 3.851562 -0.617188 L 6.0625 -0.617188 C 6.816406 -0.617188 7.375 -0.800781 7.742188 -1.167969 C 8.105469 -1.535156 8.289062 -2.09375 8.289062 -2.84375 L 8.289062 -4.976562 C 8.289062 -4.964844 8.292969 -4.945312 8.300781 -4.921875 C 8.320312 -4.867188 8.351562 -4.820312 8.390625 -4.777344 C 8.433594 -4.734375 8.480469 -4.707031 8.535156 -4.6875 C 8.558594 -4.679688 8.578125 -4.675781 8.59375 -4.675781 L 6.734375 -4.675781 C 6.75 -4.675781 6.769531 -4.679688 6.792969 -4.6875 C 6.84375 -4.707031 6.890625 -4.734375 6.933594 -4.777344 C 6.976562 -4.820312 7.007812 -4.867188 7.023438 -4.921875 C 7.03125 -4.945312 7.035156 -4.964844 7.035156 -4.976562 L 7.035156 -3.296875 C 7.035156 -2.863281 6.910156 -2.523438 6.65625 -2.269531 C 6.40625 -2.015625 6.0625 -1.890625 5.628906 -1.890625 L 4.363281 -1.890625 C 3.929688 -1.890625 3.589844 -2.015625 3.335938 -2.269531 C 3.082031 -2.523438 2.957031 -2.863281 2.957031 -3.296875 L 2.957031 -10.46875 C 2.957031 -10.902344 3.082031 -11.246094 3.335938 -11.496094 C 3.589844 -11.75 3.929688 -11.875 4.363281 -11.875 L 5.628906 -11.875 C 6.0625 -11.875 6.40625 -11.75 6.65625 -11.496094 C 6.910156 -11.246094 7.035156 -10.902344 7.035156 -10.46875 L 7.035156 -8.847656 C 7.035156 -8.863281 7.03125 -8.882812 7.023438 -8.90625 C 7.007812 -8.957031 6.976562 -9.003906 6.933594 -9.046875 C 6.890625 -9.089844 6.84375 -9.121094 6.792969 -9.136719 C 6.769531 -9.144531 6.75 -9.148438 6.734375 -9.148438 L 8.59375 -9.148438 C 8.578125 -9.148438 8.558594 -9.144531 8.535156 -9.136719 C 8.480469 -9.121094 8.433594 -9.089844 8.390625 -9.046875 C 8.351562 -9.003906 8.320312 -8.957031 8.300781 -8.90625 C 8.292969 -8.882812 8.289062 -8.863281 8.289062 -8.847656 Z M 8.289062 -10.980469 "/></g></g><g style="fill:#b21a22;fill-opacity:1;"><g transform="translate(40.861867, 69.528688)"><path style="stroke:none" d="M 6.675781 -14.441406 L 8.492188 -14.441406 C 8.769531 -14.441406 9.007812 -14.34375 9.207031 -14.144531 C 9.40625 -13.945312 9.503906 -13.707031 9.503906 -13.429688 L 9.503906 -2.84375 C 9.503906 -1.753906 9.207031 -0.90625 8.605469 -0.296875 C 8.003906 0.3125 7.152344 0.617188 6.042969 0.617188 L 3.832031 0.617188 C 2.738281 0.617188 1.890625 0.3125 1.28125 -0.292969 C 0.675781 -0.902344 0.371094 -1.753906 0.371094 -2.84375 L 0.371094 -13.429688 C 0.371094 -13.707031 0.46875 -13.945312 0.667969 -14.144531 C 0.867188 -14.34375 1.105469 -14.441406 1.382812 -14.441406 L 3.277344 -14.441406 C 3.554688 -14.441406 3.792969 -14.34375 3.992188 -14.144531 C 4.191406 -13.945312 4.292969 -13.707031 4.292969 -13.429688 L 4.292969 -3.398438 C 4.292969 -3.332031 4.296875 -3.28125 4.308594 -3.246094 C 4.3125 -3.242188 4.3125 -3.234375 4.3125 -3.234375 C 4.3125 -3.234375 4.3125 -3.238281 4.308594 -3.242188 C 4.304688 -3.242188 4.300781 -3.246094 4.300781 -3.246094 C 4.300781 -3.246094 4.308594 -3.246094 4.3125 -3.242188 C 4.347656 -3.230469 4.398438 -3.222656 4.464844 -3.222656 L 5.492188 -3.222656 C 5.554688 -3.222656 5.605469 -3.230469 5.640625 -3.242188 C 5.648438 -3.246094 5.652344 -3.246094 5.65625 -3.246094 C 5.652344 -3.246094 5.648438 -3.242188 5.648438 -3.242188 C 5.644531 -3.238281 5.640625 -3.234375 5.640625 -3.234375 C 5.640625 -3.234375 5.644531 -3.242188 5.644531 -3.246094 C 5.65625 -3.28125 5.664062 -3.332031 5.664062 -3.398438 L 5.664062 -13.429688 C 5.664062 -13.707031 5.761719 -13.945312 5.964844 -14.144531 C 6.164062 -14.34375 6.398438 -14.441406 6.675781 -14.441406 Z M 6.675781 -13.207031 C 6.742188 -13.207031 6.792969 -13.230469 6.835938 -13.269531 C 6.878906 -13.3125 6.898438 -13.367188 6.898438 -13.429688 L 6.898438 -3.398438 C 6.898438 -2.964844 6.773438 -2.621094 6.519531 -2.367188 C 6.269531 -2.117188 5.925781 -1.988281 5.492188 -1.988281 L 4.464844 -1.988281 C 4.03125 -1.988281 3.6875 -2.117188 3.433594 -2.367188 C 3.183594 -2.621094 3.054688 -2.964844 3.054688 -3.398438 L 3.054688 -13.429688 C 3.054688 -13.367188 3.078125 -13.3125 3.117188 -13.269531 C 3.160156 -13.230469 3.214844 -13.207031 3.277344 -13.207031 L 1.382812 -13.207031 C 1.449219 -13.207031 1.5 -13.230469 1.542969 -13.269531 C 1.585938 -13.3125 1.605469 -13.367188 1.605469 -13.429688 L 1.605469 -2.84375 C 1.605469 -2.09375 1.789062 -1.535156 2.15625 -1.167969 C 2.523438 -0.800781 3.082031 -0.617188 3.832031 -0.617188 L 6.042969 -0.617188 C 6.808594 -0.617188 7.367188 -0.800781 7.726562 -1.164062 C 8.089844 -1.53125 8.269531 -2.089844 8.269531 -2.84375 L 8.269531 -13.429688 C 8.269531 -13.367188 8.292969 -13.3125 8.332031 -13.269531 C 8.375 -13.230469 8.429688 -13.207031 8.492188 -13.207031 Z M 6.675781 -13.207031 "/></g></g><g style="fill:#b21a22;fill-opacity:1;"><g transform="translate(50.734404, 69.528688)"><path style="stroke:none" d="M 9.503906 -10.980469 L 9.503906 -7.011719 C 9.503906 -5.636719 9.039062 -4.660156 8.109375 -4.078125 L 7.78125 -4.601562 L 8.382812 -4.746094 L 9.410156 -0.5 L 8.808594 -0.355469 L 9.402344 -0.519531 C 9.492188 -0.203125 9.449219 0.0664062 9.277344 0.289062 C 9.105469 0.507812 8.859375 0.617188 8.53125 0.617188 L 6.597656 0.617188 C 6.355469 0.617188 6.152344 0.546875 5.980469 0.40625 C 5.816406 0.269531 5.707031 0.0859375 5.65625 -0.148438 L 6.261719 -0.277344 L 5.660156 -0.128906 L 4.714844 -4.019531 L 5.3125 -4.167969 L 5.3125 -3.550781 L 3.554688 -3.550781 L 3.554688 -4.167969 L 4.171875 -4.167969 L 4.171875 -0.316406 C 4.171875 -0.0390625 4.085938 0.183594 3.914062 0.359375 C 3.738281 0.53125 3.515625 0.617188 3.238281 0.617188 L 1.304688 0.617188 C 1.027344 0.617188 0.804688 0.53125 0.628906 0.359375 C 0.457031 0.183594 0.371094 -0.0390625 0.371094 -0.316406 L 0.371094 -13.511719 C 0.371094 -13.785156 0.457031 -14.011719 0.628906 -14.183594 C 0.804688 -14.355469 1.027344 -14.441406 1.304688 -14.441406 L 6.042969 -14.441406 C 7.148438 -14.441406 8.003906 -14.144531 8.605469 -13.542969 C 9.203125 -12.941406 9.503906 -12.085938 9.503906 -10.980469 Z M 8.269531 -10.980469 C 8.269531 -11.746094 8.089844 -12.308594 7.730469 -12.667969 C 7.371094 -13.027344 6.808594 -13.207031 6.042969 -13.207031 L 1.304688 -13.207031 C 1.316406 -13.207031 1.335938 -13.210938 1.359375 -13.21875 C 1.414062 -13.238281 1.460938 -13.269531 1.503906 -13.308594 C 1.546875 -13.351562 1.574219 -13.398438 1.59375 -13.453125 C 1.601562 -13.476562 1.605469 -13.496094 1.605469 -13.511719 L 1.605469 -0.316406 C 1.605469 -0.332031 1.601562 -0.347656 1.59375 -0.371094 C 1.574219 -0.425781 1.546875 -0.472656 1.503906 -0.515625 C 1.460938 -0.558594 1.414062 -0.585938 1.359375 -0.605469 C 1.335938 -0.613281 1.316406 -0.617188 1.304688 -0.617188 L 3.238281 -0.617188 C 3.226562 -0.617188 3.207031 -0.613281 3.183594 -0.605469 C 3.128906 -0.585938 3.082031 -0.558594 3.039062 -0.515625 C 2.996094 -0.472656 2.96875 -0.425781 2.949219 -0.371094 C 2.941406 -0.347656 2.9375 -0.332031 2.9375 -0.316406 L 2.9375 -4.785156 L 5.796875 -4.785156 L 6.863281 -0.414062 L 6.863281 -0.40625 C 6.855469 -0.453125 6.820312 -0.5 6.765625 -0.546875 C 6.710938 -0.59375 6.652344 -0.617188 6.597656 -0.617188 L 8.53125 -0.617188 C 8.519531 -0.613281 8.503906 -0.609375 8.488281 -0.605469 C 8.417969 -0.582031 8.355469 -0.535156 8.300781 -0.46875 C 8.25 -0.398438 8.21875 -0.324219 8.214844 -0.246094 C 8.210938 -0.21875 8.210938 -0.199219 8.214844 -0.191406 L 8.210938 -0.199219 L 7.078125 -4.890625 L 7.453125 -5.125 C 8 -5.464844 8.269531 -6.09375 8.269531 -7.011719 Z M 3.554688 -7.332031 L 5.53125 -7.332031 C 5.59375 -7.332031 5.644531 -7.339844 5.679688 -7.351562 C 5.6875 -7.351562 5.691406 -7.355469 5.695312 -7.355469 C 5.691406 -7.355469 5.6875 -7.351562 5.6875 -7.347656 C 5.683594 -7.347656 5.679688 -7.34375 5.679688 -7.339844 C 5.679688 -7.34375 5.683594 -7.347656 5.683594 -7.355469 C 5.695312 -7.390625 5.703125 -7.441406 5.703125 -7.503906 L 5.703125 -10.488281 C 5.703125 -10.554688 5.695312 -10.601562 5.683594 -10.636719 C 5.683594 -10.644531 5.679688 -10.648438 5.679688 -10.652344 C 5.679688 -10.648438 5.683594 -10.648438 5.6875 -10.644531 C 5.6875 -10.640625 5.691406 -10.640625 5.695312 -10.636719 C 5.691406 -10.640625 5.6875 -10.640625 5.679688 -10.644531 C 5.644531 -10.65625 5.59375 -10.660156 5.53125 -10.660156 L 3.554688 -10.660156 L 3.554688 -11.277344 L 4.171875 -11.277344 L 4.171875 -6.714844 L 3.554688 -6.714844 Z M 2.9375 -6.097656 L 2.9375 -11.894531 L 5.53125 -11.894531 C 5.964844 -11.894531 6.308594 -11.769531 6.558594 -11.515625 C 6.8125 -11.265625 6.9375 -10.921875 6.9375 -10.488281 L 6.9375 -7.503906 C 6.9375 -7.070312 6.8125 -6.730469 6.558594 -6.476562 C 6.308594 -6.222656 5.964844 -6.097656 5.53125 -6.097656 Z M 2.9375 -6.097656 "/></g></g><g style="fill:#b21a22;fill-opacity:1;"><g transform="translate(60.606942, 69.528688)"><path style="stroke:none" d="M 1.304688 -0.617188 L 3.359375 -0.617188 C 3.34375 -0.617188 3.324219 -0.613281 3.300781 -0.605469 C 3.25 -0.585938 3.199219 -0.558594 3.160156 -0.515625 C 3.117188 -0.472656 3.085938 -0.425781 3.070312 -0.371094 C 3.058594 -0.347656 3.054688 -0.332031 3.054688 -0.316406 L 3.054688 -13.511719 C 3.054688 -13.496094 3.058594 -13.476562 3.070312 -13.453125 C 3.085938 -13.398438 3.117188 -13.351562 3.160156 -13.308594 C 3.199219 -13.269531 3.25 -13.238281 3.300781 -13.21875 C 3.324219 -13.210938 3.34375 -13.207031 3.359375 -13.207031 L 1.304688 -13.207031 C 1.316406 -13.207031 1.335938 -13.210938 1.359375 -13.21875 C 1.414062 -13.238281 1.460938 -13.269531 1.503906 -13.308594 C 1.546875 -13.351562 1.574219 -13.398438 1.59375 -13.453125 C 1.601562 -13.476562 1.605469 -13.496094 1.605469 -13.511719 L 1.605469 -0.316406 C 1.605469 -0.332031 1.601562 -0.347656 1.59375 -0.371094 C 1.574219 -0.425781 1.546875 -0.472656 1.503906 -0.515625 C 1.460938 -0.558594 1.414062 -0.585938 1.359375 -0.605469 C 1.335938 -0.613281 1.316406 -0.617188 1.304688 -0.617188 Z M 1.304688 0.617188 C 1.027344 0.617188 0.804688 0.53125 0.628906 0.359375 C 0.457031 0.183594 0.371094 -0.0390625 0.371094 -0.316406 L 0.371094 -13.511719 C 0.371094 -13.785156 0.457031 -14.011719 0.628906 -14.183594 C 0.804688 -14.355469 1.027344 -14.441406 1.304688 -14.441406 L 3.359375 -14.441406 C 3.632812 -14.441406 3.859375 -14.355469 4.03125 -14.183594 C 4.203125 -14.011719 4.292969 -13.785156 4.292969 -13.511719 L 4.292969 -0.316406 C 4.292969 -0.0390625 4.203125 0.183594 4.03125 0.359375 C 3.859375 0.53125 3.632812 0.617188 3.359375 0.617188 Z M 1.304688 0.617188 "/></g></g><g style="fill:#b21a22;fill-opacity:1;"><g transform="translate(65.266777, 69.528688)"><path style="stroke:none" d="M 8.175781 -13.207031 L 0.910156 -13.207031 C 0.921875 -13.207031 0.941406 -13.210938 0.964844 -13.21875 C 1.019531 -13.238281 1.066406 -13.269531 1.109375 -13.308594 C 1.148438 -13.351562 1.179688 -13.398438 1.199219 -13.453125 C 1.207031 -13.476562 1.210938 -13.496094 1.210938 -13.511719 L 1.210938 -11.535156 C 1.210938 -11.550781 1.207031 -11.566406 1.199219 -11.589844 C 1.179688 -11.644531 1.148438 -11.691406 1.109375 -11.734375 C 1.066406 -11.777344 1.019531 -11.804688 0.964844 -11.824219 C 0.941406 -11.832031 0.921875 -11.835938 0.910156 -11.835938 L 3.816406 -11.835938 L 3.816406 -0.316406 C 3.816406 -0.332031 3.8125 -0.347656 3.804688 -0.371094 C 3.789062 -0.425781 3.757812 -0.472656 3.714844 -0.515625 C 3.671875 -0.558594 3.625 -0.585938 3.574219 -0.605469 C 3.546875 -0.613281 3.53125 -0.617188 3.515625 -0.617188 L 5.570312 -0.617188 C 5.554688 -0.617188 5.535156 -0.613281 5.511719 -0.605469 C 5.460938 -0.585938 5.414062 -0.558594 5.371094 -0.515625 C 5.328125 -0.472656 5.296875 -0.425781 5.28125 -0.371094 C 5.273438 -0.347656 5.269531 -0.332031 5.269531 -0.316406 L 5.269531 -11.835938 L 8.175781 -11.835938 C 8.164062 -11.835938 8.144531 -11.832031 8.121094 -11.824219 C 8.066406 -11.804688 8.019531 -11.777344 7.976562 -11.734375 C 7.933594 -11.691406 7.90625 -11.644531 7.886719 -11.589844 C 7.878906 -11.566406 7.875 -11.550781 7.875 -11.535156 L 7.875 -13.511719 C 7.875 -13.496094 7.878906 -13.476562 7.886719 -13.453125 C 7.90625 -13.398438 7.933594 -13.351562 7.976562 -13.308594 C 8.019531 -13.269531 8.066406 -13.238281 8.121094 -13.21875 C 8.144531 -13.210938 8.164062 -13.207031 8.175781 -13.207031 Z M 8.175781 -14.441406 C 8.453125 -14.441406 8.675781 -14.355469 8.851562 -14.183594 C 9.023438 -14.011719 9.109375 -13.785156 9.109375 -13.511719 L 9.109375 -11.535156 C 9.109375 -11.257812 9.023438 -11.035156 8.851562 -10.859375 C 8.675781 -10.6875 8.453125 -10.601562 8.175781 -10.601562 L 5.886719 -10.601562 L 5.886719 -11.21875 L 6.503906 -11.21875 L 6.503906 -0.316406 C 6.503906 -0.0390625 6.417969 0.183594 6.242188 0.359375 C 6.070312 0.53125 5.84375 0.617188 5.570312 0.617188 L 3.515625 0.617188 C 3.238281 0.617188 3.015625 0.53125 2.84375 0.359375 C 2.667969 0.183594 2.582031 -0.0390625 2.582031 -0.316406 L 2.582031 -11.21875 L 3.199219 -11.21875 L 3.199219 -10.601562 L 0.910156 -10.601562 C 0.632812 -10.601562 0.410156 -10.6875 0.234375 -10.859375 C 0.0625 -11.035156 -0.0234375 -11.257812 -0.0234375 -11.535156 L -0.0234375 -13.511719 C -0.0234375 -13.785156 0.0625 -14.011719 0.234375 -14.183594 C 0.410156 -14.355469 0.632812 -14.441406 0.910156 -14.441406 Z M 8.175781 -14.441406 "/></g></g><g style="fill:#b21a22;fill-opacity:1;"><g transform="translate(74.349513, 69.528688)"><path style="stroke:none" d="M 7.859375 -14.441406 L 9.835938 -14.441406 C 10.183594 -14.441406 10.453125 -14.320312 10.640625 -14.074219 C 10.757812 -13.921875 10.820312 -13.746094 10.820312 -13.550781 C 10.820312 -13.402344 10.78125 -13.25 10.703125 -13.09375 L 10.152344 -13.371094 L 10.71875 -13.121094 L 7.101562 -4.925781 L 6.539062 -5.175781 L 7.15625 -5.175781 L 7.15625 -0.394531 C 7.15625 -0.09375 7.0625 0.152344 6.875 0.335938 C 6.6875 0.523438 6.445312 0.617188 6.144531 0.617188 L 4.246094 0.617188 C 3.945312 0.617188 3.699219 0.523438 3.515625 0.335938 C 3.328125 0.152344 3.234375 -0.09375 3.234375 -0.394531 L 3.234375 -5.175781 L 3.851562 -5.175781 L 3.285156 -4.925781 L -0.332031 -13.132812 L -0.335938 -13.140625 C -0.472656 -13.480469 -0.445312 -13.78125 -0.261719 -14.050781 C -0.078125 -14.3125 0.191406 -14.441406 0.554688 -14.441406 L 2.527344 -14.441406 C 2.769531 -14.441406 2.980469 -14.378906 3.164062 -14.253906 C 3.34375 -14.128906 3.476562 -13.953125 3.558594 -13.726562 L 2.984375 -13.511719 L 3.546875 -13.757812 L 5.761719 -8.679688 L 5.195312 -8.433594 L 4.628906 -8.679688 L 6.839844 -13.757812 L 7.40625 -13.511719 L 6.828125 -13.726562 C 6.914062 -13.953125 7.046875 -14.128906 7.226562 -14.253906 C 7.410156 -14.378906 7.621094 -14.441406 7.859375 -14.441406 Z M 7.859375 -13.207031 C 7.878906 -13.207031 7.902344 -13.21875 7.933594 -13.238281 C 7.960938 -13.261719 7.980469 -13.277344 7.984375 -13.292969 L 7.980469 -13.277344 L 5.195312 -6.890625 L 2.410156 -13.277344 L 2.40625 -13.292969 C 2.410156 -13.277344 2.425781 -13.261719 2.457031 -13.238281 C 2.488281 -13.21875 2.511719 -13.207031 2.527344 -13.207031 L 0.554688 -13.207031 C 0.5625 -13.207031 0.582031 -13.214844 0.605469 -13.222656 C 0.667969 -13.25 0.714844 -13.289062 0.753906 -13.347656 C 0.792969 -13.402344 0.816406 -13.464844 0.816406 -13.53125 C 0.816406 -13.566406 0.816406 -13.585938 0.808594 -13.601562 L 0.238281 -13.371094 L 0.800781 -13.621094 L 4.46875 -5.304688 L 4.46875 -0.394531 C 4.46875 -0.390625 4.46875 -0.390625 4.46875 -0.386719 C 4.46875 -0.386719 4.46875 -0.390625 4.46875 -0.390625 C 4.46875 -0.398438 4.464844 -0.40625 4.460938 -0.417969 C 4.449219 -0.460938 4.421875 -0.5 4.386719 -0.535156 C 4.351562 -0.570312 4.3125 -0.597656 4.269531 -0.609375 C 4.257812 -0.613281 4.25 -0.617188 4.242188 -0.617188 C 4.242188 -0.617188 4.238281 -0.617188 4.238281 -0.617188 C 4.242188 -0.617188 4.242188 -0.617188 4.246094 -0.617188 L 6.144531 -0.617188 C 6.144531 -0.617188 6.148438 -0.617188 6.148438 -0.617188 C 6.140625 -0.617188 6.128906 -0.613281 6.121094 -0.609375 C 6.078125 -0.597656 6.039062 -0.570312 6.003906 -0.535156 C 5.964844 -0.5 5.941406 -0.460938 5.925781 -0.417969 C 5.925781 -0.40625 5.921875 -0.398438 5.921875 -0.390625 C 5.921875 -0.390625 5.921875 -0.386719 5.921875 -0.386719 C 5.921875 -0.390625 5.921875 -0.390625 5.921875 -0.394531 L 5.921875 -5.304688 L 9.59375 -13.632812 L 9.601562 -13.648438 C 9.589844 -13.625 9.585938 -13.59375 9.585938 -13.550781 C 9.585938 -13.464844 9.609375 -13.390625 9.664062 -13.320312 C 9.699219 -13.277344 9.742188 -13.242188 9.792969 -13.222656 C 9.8125 -13.214844 9.828125 -13.207031 9.835938 -13.207031 Z M 7.859375 -13.207031 "/></g></g><g style="fill:#060705;fill-opacity:1;"><g transform="translate(14.138736, 41.991995)"><path style="stroke:none" d="M 10.3125 0 L 8.390625 0 C 8.222656 0 8.117188 -0.09375 8.078125 -0.28125 L 7.453125 -2.765625 L 3.734375 -2.765625 L 3.125 -0.28125 C 3.082031 -0.09375 2.972656 0 2.796875 0 L 0.875 0 C 0.632812 0 0.546875 -0.109375 0.609375 -0.328125 L 3.890625 -13.546875 C 3.929688 -13.734375 4.039062 -13.828125 4.21875 -13.828125 L 6.96875 -13.828125 C 7.15625 -13.828125 7.269531 -13.734375 7.3125 -13.546875 L 10.59375 -0.328125 C 10.65625 -0.109375 10.5625 0 10.3125 0 Z M 6.828125 -5.0625 L 5.59375 -10.421875 L 4.34375 -5.0625 Z M 6.828125 -5.0625 "/></g></g><g style="fill:#060705;fill-opacity:1;"><g transform="translate(25.334196, 41.991995)"><path style="stroke:none" d="M 8.90625 -10.984375 L 8.90625 -8.84375 C 8.90625 -8.632812 8.800781 -8.53125 8.59375 -8.53125 L 6.734375 -8.53125 C 6.523438 -8.53125 6.421875 -8.632812 6.421875 -8.84375 L 6.421875 -10.46875 C 6.421875 -10.988281 6.15625 -11.25 5.625 -11.25 L 4.359375 -11.25 C 3.835938 -11.25 3.578125 -10.988281 3.578125 -10.46875 L 3.578125 -3.296875 C 3.578125 -2.773438 3.835938 -2.515625 4.359375 -2.515625 L 5.625 -2.515625 C 6.15625 -2.515625 6.421875 -2.773438 6.421875 -3.296875 L 6.421875 -4.984375 C 6.421875 -5.191406 6.523438 -5.296875 6.734375 -5.296875 L 8.59375 -5.296875 C 8.800781 -5.296875 8.90625 -5.191406 8.90625 -4.984375 L 8.90625 -2.84375 C 8.90625 -1.925781 8.660156 -1.222656 8.171875 -0.734375 C 7.691406 -0.242188 6.988281 0 6.0625 0 L 3.84375 0 C 2.925781 0 2.21875 -0.242188 1.71875 -0.734375 C 1.226562 -1.222656 0.984375 -1.925781 0.984375 -2.84375 L 0.984375 -10.984375 C 0.984375 -11.921875 1.226562 -12.628906 1.71875 -13.109375 C 2.21875 -13.585938 2.925781 -13.828125 3.84375 -13.828125 L 6.0625 -13.828125 C 6.988281 -13.828125 7.691406 -13.585938 8.171875 -13.109375 C 8.660156 -12.628906 8.90625 -11.921875 8.90625 -10.984375 Z M 8.90625 -10.984375 "/></g></g><g style="fill:#060705;fill-opacity:1;"><g transform="translate(35.226482, 41.991995)"><path style="stroke:none" d="M 8.171875 -13.828125 L 0.90625 -13.828125 C 0.695312 -13.828125 0.59375 -13.722656 0.59375 -13.515625 L 0.59375 -11.53125 C 0.59375 -11.320312 0.695312 -11.21875 0.90625 -11.21875 L 3.203125 -11.21875 L 3.203125 -0.3125 C 3.203125 -0.101562 3.304688 0 3.515625 0 L 5.5625 0 C 5.78125 0 5.890625 -0.101562 5.890625 -0.3125 L 5.890625 -11.21875 L 8.171875 -11.21875 C 8.390625 -11.21875 8.5 -11.320312 8.5 -11.53125 L 8.5 -13.515625 C 8.5 -13.722656 8.390625 -13.828125 8.171875 -13.828125 Z M 8.171875 -13.828125 "/></g></g><g style="fill:#060705;fill-opacity:1;"><g transform="translate(44.309217, 41.991995)"><path style="stroke:none" d="M 1.296875 0 L 3.359375 0 C 3.566406 0 3.671875 -0.101562 3.671875 -0.3125 L 3.671875 -13.515625 C 3.671875 -13.722656 3.566406 -13.828125 3.359375 -13.828125 L 1.296875 -13.828125 C 1.085938 -13.828125 0.984375 -13.722656 0.984375 -13.515625 L 0.984375 -0.3125 C 0.984375 -0.101562 1.085938 0 1.296875 0 Z M 1.296875 0 "/></g></g><g style="fill:#060705;fill-opacity:1;"><g transform="translate(48.969052, 41.991995)"><path style="stroke:none" d="M 7.5625 -13.828125 L 9.359375 -13.828125 C 9.660156 -13.828125 9.78125 -13.679688 9.71875 -13.390625 L 6.578125 -0.359375 C 6.523438 -0.117188 6.378906 0 6.140625 0 L 4.171875 0 C 3.941406 0 3.796875 -0.117188 3.734375 -0.359375 L 0.609375 -13.390625 C 0.546875 -13.679688 0.664062 -13.828125 0.96875 -13.828125 L 2.765625 -13.828125 C 3.003906 -13.828125 3.148438 -13.707031 3.203125 -13.46875 L 5.15625 -4.546875 L 7.125 -13.46875 C 7.195312 -13.707031 7.34375 -13.828125 7.5625 -13.828125 Z M 7.5625 -13.828125 "/></g></g><g style="fill:#060705;fill-opacity:1;"><g transform="translate(59.295724, 41.991995)"><path style="stroke:none" d="M 8.875 -13.515625 L 8.875 -11.53125 C 8.875 -11.3125 8.765625 -11.203125 8.546875 -11.203125 L 3.671875 -11.203125 L 3.671875 -8.15625 L 7.390625 -8.15625 C 7.597656 -8.15625 7.703125 -8.046875 7.703125 -7.828125 L 7.703125 -5.859375 C 7.703125 -5.640625 7.597656 -5.53125 7.390625 -5.53125 L 3.671875 -5.53125 L 3.671875 -2.609375 L 8.546875 -2.609375 C 8.765625 -2.609375 8.875 -2.503906 8.875 -2.296875 L 8.875 -0.3125 C 8.875 -0.101562 8.765625 0 8.546875 0 L 1.28125 0 C 1.082031 0 0.984375 -0.101562 0.984375 -0.3125 L 0.984375 -13.515625 C 0.984375 -13.722656 1.082031 -13.828125 1.28125 -13.828125 L 8.546875 -13.828125 C 8.765625 -13.828125 8.875 -13.722656 8.875 -13.515625 Z M 8.875 -13.515625 "/></g></g><g style="fill:#060705;fill-opacity:1;"><g transform="translate(69.148514, 41.991995)"><path style="stroke:none" d="M 0 2.640625 L 0 0.828125 C 0 0.566406 0.128906 0.4375 0.390625 0.4375 L 12.296875 0.4375 C 12.566406 0.4375 12.703125 0.566406 12.703125 0.828125 L 12.703125 2.640625 C 12.703125 2.910156 12.566406 3.046875 12.296875 3.046875 L 0.390625 3.046875 C 0.128906 3.046875 0 2.910156 0 2.640625 Z M 0 2.640625 "/></g></g><g style="fill:#060705;fill-opacity:1;"><g transform="translate(11.244254, 69.528688)"><path style="stroke:none" d="M 3.828125 -13.828125 L 6.046875 -13.828125 C 6.984375 -13.828125 7.691406 -13.585938 8.171875 -13.109375 C 8.648438 -12.628906 8.890625 -11.921875 8.890625 -10.984375 L 8.890625 -9.671875 C 8.890625 -9.460938 8.785156 -9.359375 8.578125 -9.359375 L 6.578125 -9.359375 C 6.367188 -9.359375 6.265625 -9.460938 6.265625 -9.671875 L 6.265625 -10.5 C 6.265625 -11.03125 6 -11.296875 5.46875 -11.296875 L 4.390625 -11.296875 C 3.859375 -11.296875 3.59375 -11.03125 3.59375 -10.5 L 3.59375 -8.828125 L 8.375 -7.28125 C 8.71875 -7.164062 8.890625 -6.925781 8.890625 -6.5625 L 8.890625 -2.84375 C 8.890625 -1.925781 8.648438 -1.222656 8.171875 -0.734375 C 7.691406 -0.242188 6.984375 0 6.046875 0 L 3.828125 0 C 2.910156 0 2.207031 -0.242188 1.71875 -0.734375 C 1.226562 -1.222656 0.984375 -1.925781 0.984375 -2.84375 L 0.984375 -4.125 C 0.984375 -4.332031 1.085938 -4.4375 1.296875 -4.4375 L 3.296875 -4.4375 C 3.503906 -4.4375 3.609375 -4.332031 3.609375 -4.125 L 3.609375 -3.296875 C 3.609375 -2.773438 3.875 -2.515625 4.40625 -2.515625 L 5.46875 -2.515625 C 6 -2.515625 6.265625 -2.773438 6.265625 -3.296875 L 6.265625 -5.296875 L 1.515625 -6.828125 C 1.160156 -6.953125 0.984375 -7.195312 0.984375 -7.5625 L 0.984375 -10.984375 C 0.984375 -11.921875 1.226562 -12.628906 1.71875 -13.109375 C 2.207031 -13.585938 2.910156 -13.828125 3.828125 -13.828125 Z M 3.828125 -13.828125 "/></g></g><g style="fill:#060705;fill-opacity:1;"><g transform="translate(21.116791, 69.528688)"><path style="stroke:none" d="M 8.875 -13.515625 L 8.875 -11.53125 C 8.875 -11.3125 8.765625 -11.203125 8.546875 -11.203125 L 3.671875 -11.203125 L 3.671875 -8.15625 L 7.390625 -8.15625 C 7.597656 -8.15625 7.703125 -8.046875 7.703125 -7.828125 L 7.703125 -5.859375 C 7.703125 -5.640625 7.597656 -5.53125 7.390625 -5.53125 L 3.671875 -5.53125 L 3.671875 -2.609375 L 8.546875 -2.609375 C 8.765625 -2.609375 8.875 -2.503906 8.875 -2.296875 L 8.875 -0.3125 C 8.875 -0.101562 8.765625 0 8.546875 0 L 1.28125 0 C 1.082031 0 0.984375 -0.101562 0.984375 -0.3125 L 0.984375 -13.515625 C 0.984375 -13.722656 1.082031 -13.828125 1.28125 -13.828125 L 8.546875 -13.828125 C 8.765625 -13.828125 8.875 -13.722656 8.875 -13.515625 Z M 8.875 -13.515625 "/></g></g><g style="fill:#060705;fill-opacity:1;"><g transform="translate(30.969581, 69.528688)"><path style="stroke:none" d="M 8.90625 -10.984375 L 8.90625 -8.84375 C 8.90625 -8.632812 8.800781 -8.53125 8.59375 -8.53125 L 6.734375 -8.53125 C 6.523438 -8.53125 6.421875 -8.632812 6.421875 -8.84375 L 6.421875 -10.46875 C 6.421875 -10.988281 6.15625 -11.25 5.625 -11.25 L 4.359375 -11.25 C 3.835938 -11.25 3.578125 -10.988281 3.578125 -10.46875 L 3.578125 -3.296875 C 3.578125 -2.773438 3.835938 -2.515625 4.359375 -2.515625 L 5.625 -2.515625 C 6.15625 -2.515625 6.421875 -2.773438 6.421875 -3.296875 L 6.421875 -4.984375 C 6.421875 -5.191406 6.523438 -5.296875 6.734375 -5.296875 L 8.59375 -5.296875 C 8.800781 -5.296875 8.90625 -5.191406 8.90625 -4.984375 L 8.90625 -2.84375 C 8.90625 -1.925781 8.660156 -1.222656 8.171875 -0.734375 C 7.691406 -0.242188 6.988281 0 6.0625 0 L 3.84375 0 C 2.925781 0 2.21875 -0.242188 1.71875 -0.734375 C 1.226562 -1.222656 0.984375 -1.925781 0.984375 -2.84375 L 0.984375 -10.984375 C 0.984375 -11.921875 1.226562 -12.628906 1.71875 -13.109375 C 2.21875 -13.585938 2.925781 -13.828125 3.84375 -13.828125 L 6.0625 -13.828125 C 6.988281 -13.828125 7.691406 -13.585938 8.171875 -13.109375 C 8.660156 -12.628906 8.90625 -11.921875 8.90625 -10.984375 Z M 8.90625 -10.984375 "/></g></g><g style="fill:#060705;fill-opacity:1;"><g transform="translate(40.861867, 69.528688)"><path style="stroke:none" d="M 6.671875 -13.828125 L 8.5 -13.828125 C 8.601562 -13.828125 8.691406 -13.785156 8.765625 -13.703125 C 8.847656 -13.628906 8.890625 -13.539062 8.890625 -13.4375 L 8.890625 -2.84375 C 8.890625 -1.925781 8.648438 -1.222656 8.171875 -0.734375 C 7.691406 -0.242188 6.984375 0 6.046875 0 L 3.828125 0 C 2.910156 0 2.207031 -0.242188 1.71875 -0.734375 C 1.226562 -1.222656 0.984375 -1.925781 0.984375 -2.84375 L 0.984375 -13.4375 C 0.984375 -13.539062 1.019531 -13.628906 1.09375 -13.703125 C 1.175781 -13.785156 1.269531 -13.828125 1.375 -13.828125 L 3.28125 -13.828125 C 3.382812 -13.828125 3.472656 -13.785156 3.546875 -13.703125 C 3.628906 -13.628906 3.671875 -13.539062 3.671875 -13.4375 L 3.671875 -3.390625 C 3.671875 -2.867188 3.9375 -2.609375 4.46875 -2.609375 L 5.484375 -2.609375 C 6.015625 -2.609375 6.28125 -2.867188 6.28125 -3.390625 L 6.28125 -13.4375 C 6.28125 -13.539062 6.316406 -13.628906 6.390625 -13.703125 C 6.472656 -13.785156 6.566406 -13.828125 6.671875 -13.828125 Z M 6.671875 -13.828125 "/></g></g><g style="fill:#060705;fill-opacity:1;"><g transform="translate(50.734404, 69.528688)"><path style="stroke:none" d="M 8.890625 -10.984375 L 8.890625 -7.015625 C 8.890625 -5.867188 8.519531 -5.066406 7.78125 -4.609375 L 8.8125 -0.359375 C 8.875 -0.117188 8.78125 0 8.53125 0 L 6.59375 0 C 6.40625 0 6.296875 -0.09375 6.265625 -0.28125 L 5.3125 -4.171875 L 3.5625 -4.171875 L 3.5625 -0.3125 C 3.5625 -0.101562 3.453125 0 3.234375 0 L 1.296875 0 C 1.085938 0 0.984375 -0.101562 0.984375 -0.3125 L 0.984375 -13.515625 C 0.984375 -13.722656 1.085938 -13.828125 1.296875 -13.828125 L 6.046875 -13.828125 C 6.984375 -13.828125 7.691406 -13.585938 8.171875 -13.109375 C 8.648438 -12.628906 8.890625 -11.921875 8.890625 -10.984375 Z M 3.5625 -6.71875 L 5.53125 -6.71875 C 6.050781 -6.71875 6.3125 -6.976562 6.3125 -7.5 L 6.3125 -10.484375 C 6.3125 -11.015625 6.050781 -11.28125 5.53125 -11.28125 L 3.5625 -11.28125 Z M 3.5625 -6.71875 "/></g></g><g style="fill:#060705;fill-opacity:1;"><g transform="translate(60.606942, 69.528688)"><path style="stroke:none" d="M 1.296875 0 L 3.359375 0 C 3.566406 0 3.671875 -0.101562 3.671875 -0.3125 L 3.671875 -13.515625 C 3.671875 -13.722656 3.566406 -13.828125 3.359375 -13.828125 L 1.296875 -13.828125 C 1.085938 -13.828125 0.984375 -13.722656 0.984375 -13.515625 L 0.984375 -0.3125 C 0.984375 -0.101562 1.085938 0 1.296875 0 Z M 1.296875 0 "/></g></g><g style="fill:#060705;fill-opacity:1;"><g transform="translate(65.266777, 69.528688)"><path style="stroke:none" d="M 8.171875 -13.828125 L 0.90625 -13.828125 C 0.695312 -13.828125 0.59375 -13.722656 0.59375 -13.515625 L 0.59375 -11.53125 C 0.59375 -11.320312 0.695312 -11.21875 0.90625 -11.21875 L 3.203125 -11.21875 L 3.203125 -0.3125 C 3.203125 -0.101562 3.304688 0 3.515625 0 L 5.5625 0 C 5.78125 0 5.890625 -0.101562 5.890625 -0.3125 L 5.890625 -11.21875 L 8.171875 -11.21875 C 8.390625 -11.21875 8.5 -11.320312 8.5 -11.53125 L 8.5 -13.515625 C 8.5 -13.722656 8.390625 -13.828125 8.171875 -13.828125 Z M 8.171875 -13.828125 "/></g></g><g style="fill:#060705;fill-opacity:1;"><g transform="translate(74.349513, 69.528688)"><path style="stroke:none" d="M 7.859375 -13.828125 L 9.828125 -13.828125 C 9.972656 -13.828125 10.078125 -13.78125 10.140625 -13.6875 C 10.210938 -13.601562 10.21875 -13.5 10.15625 -13.375 L 6.53125 -5.171875 L 6.53125 -0.390625 C 6.53125 -0.128906 6.398438 0 6.140625 0 L 4.25 0 C 3.976562 0 3.84375 -0.128906 3.84375 -0.390625 L 3.84375 -5.171875 L 0.234375 -13.375 C 0.179688 -13.5 0.179688 -13.601562 0.234375 -13.6875 C 0.296875 -13.78125 0.398438 -13.828125 0.546875 -13.828125 L 2.53125 -13.828125 C 2.75 -13.828125 2.898438 -13.722656 2.984375 -13.515625 L 5.1875 -8.4375 L 7.40625 -13.515625 C 7.488281 -13.722656 7.640625 -13.828125 7.859375 -13.828125 Z M 7.859375 -13.828125 "/></g></g></g></svg>