<svg xmlns="http://www.w3.org/2000/svg" xmlns:xlink="http://www.w3.org/1999/xlink" width="192" zoomAndPan="magnify" viewBox="0 0 144 143.999998" height="192" preserveAspectRatio="xMidYMid meet" version="1.2"><defs><clipPath id="712b4b4740"><path d="M 9 0 L 135 0 L 135 144 L 9 144 Z M 9 0 "/></clipPath><clipPath id="2a559573cb"><path d="M -21.457031 54.867188 L 103.039062 -17.847656 L 165.503906 89.105469 L 41.007812 161.816406 Z M -21.457031 54.867188 "/></clipPath><clipPath id="c259fc2830"><path d="M 134.226562 35.65625 L 134.347656 107.300781 L 72.121094 143.644531 L 9.773438 108.34375 L 9.65625 36.695312 L 71.878906 0.351562 Z M 134.226562 35.65625 "/></clipPath><clipPath id="692aebfdc3"><path d="M 21.210938 13.683594 L 122.773438 13.683594 L 122.773438 130.261719 L 21.210938 130.261719 Z M 21.210938 13.683594 "/></clipPath></defs><g id="a55b6fcb00"><rect x="0" width="144" y="0" height="143.999998" style="fill:#ffffff;fill-opacity:1;stroke:none;"/><rect x="0" width="144" y="0" height="143.999998" style="fill:#000000;fill-opacity:1;stroke:none;"/><g clip-rule="nonzero" clip-path="url(#712b4b4740)"><g clip-rule="nonzero" clip-path="url(#2a559573cb)"><g clip-rule="nonzero" clip-path="url(#c259fc2830)"><path style=" stroke:none;fill-rule:nonzero;fill:#65b30e;fill-opacity:1;" d="M -21.457031 54.867188 L 103.039062 -17.847656 L 165.503906 89.105469 L 41.007812 161.816406 Z M -21.457031 54.867188 "/></g></g></g><path style=" stroke:none;fill-rule:nonzero;fill:#87ff00;fill-opacity:1;" d="M 51.679688 52.109375 L 51.613281 52.046875 L 37.261719 66.398438 L 72.113281 101.183594 L 86.46875 86.898438 L 106.960938 66.398438 L 92.609375 52.046875 L 92.609375 51.980469 L 51.617188 51.980469 Z M 51.679688 52.109375 "/><g clip-rule="nonzero" clip-path="url(#692aebfdc3)"><path style=" stroke:none;fill-rule:nonzero;fill:#87ff00;fill-opacity:1;" d="M 71.980469 13.765625 L 21.222656 42.863281 L 21.226562 101.058594 L 71.984375 130.15625 L 122.742188 101.058594 L 122.742188 42.863281 L 71.984375 13.769531 Z M 113.039062 95.496094 L 71.980469 119.160156 L 30.921875 95.496094 L 30.925781 48.292969 L 71.984375 24.628906 L 113.042969 48.292969 L 113.042969 95.492188 Z M 113.039062 95.496094 "/></g><g style="fill:#b21a22;fill-opacity:1;"><g transform="translate(21.208103, 62.98799)"><path style="stroke:none" d="M 15.464844 0.925781 L 12.589844 0.925781 C 12.230469 0.925781 11.925781 0.816406 11.671875 0.59375 C 11.4375 0.390625 11.285156 0.117188 11.210938 -0.222656 L 12.117188 -0.414062 L 11.21875 -0.1875 L 10.273438 -3.917969 L 11.167969 -4.148438 L 11.167969 -3.222656 L 5.597656 -3.222656 L 5.597656 -4.148438 L 6.5 -3.925781 L 5.582031 -0.195312 L 4.679688 -0.414062 L 5.585938 -0.222656 C 5.515625 0.117188 5.359375 0.390625 5.128906 0.59375 C 4.875 0.816406 4.566406 0.925781 4.207031 0.925781 L 1.304688 0.925781 C 0.820312 0.925781 0.453125 0.761719 0.207031 0.4375 C -0.0507812 0.105469 -0.109375 -0.296875 0.03125 -0.765625 L 0.917969 -0.503906 L 0.0195312 -0.726562 L 4.9375 -20.546875 L 5.835938 -20.324219 L 4.929688 -20.519531 C 5.007812 -20.867188 5.167969 -21.144531 5.417969 -21.351562 C 5.671875 -21.558594 5.980469 -21.664062 6.339844 -21.664062 L 10.457031 -21.664062 C 10.816406 -21.664062 11.125 -21.558594 11.378906 -21.351562 C 11.628906 -21.144531 11.792969 -20.867188 11.867188 -20.519531 L 10.960938 -20.324219 L 11.859375 -20.546875 L 16.777344 -0.726562 L 15.878906 -0.503906 L 16.769531 -0.765625 C 16.910156 -0.28125 16.84375 0.125 16.566406 0.460938 C 16.3125 0.773438 15.945312 0.925781 15.464844 0.925781 Z M 15.464844 -0.925781 C 15.46875 -0.925781 15.472656 -0.925781 15.476562 -0.925781 C 15.476562 -0.925781 15.476562 -0.925781 15.472656 -0.925781 C 15.457031 -0.921875 15.4375 -0.917969 15.414062 -0.910156 C 15.308594 -0.875 15.214844 -0.8125 15.136719 -0.714844 C 15.046875 -0.605469 14.996094 -0.488281 14.988281 -0.355469 C 14.984375 -0.304688 14.984375 -0.265625 14.992188 -0.242188 L 14.984375 -0.261719 L 10.058594 -20.117188 L 10.054688 -20.128906 C 10.070312 -20.058594 10.121094 -19.988281 10.203125 -19.921875 C 10.289062 -19.847656 10.375 -19.8125 10.457031 -19.8125 L 6.339844 -19.8125 C 6.421875 -19.8125 6.507812 -19.847656 6.59375 -19.921875 C 6.675781 -19.988281 6.726562 -20.058594 6.742188 -20.128906 L 6.738281 -20.117188 L 1.8125 -0.261719 L 1.808594 -0.242188 C 1.8125 -0.261719 1.8125 -0.292969 1.8125 -0.335938 C 1.804688 -0.464844 1.757812 -0.582031 1.675781 -0.6875 C 1.59375 -0.792969 1.496094 -0.867188 1.382812 -0.90625 C 1.34375 -0.917969 1.320312 -0.925781 1.304688 -0.925781 L 4.207031 -0.925781 C 4.101562 -0.925781 4.003906 -0.882812 3.910156 -0.800781 C 3.832031 -0.734375 3.789062 -0.671875 3.777344 -0.609375 L 3.777344 -0.621094 L 4.875 -5.074219 L 11.890625 -5.074219 L 13.019531 -0.625 L 13.023438 -0.609375 C 13.007812 -0.671875 12.964844 -0.734375 12.890625 -0.800781 C 12.792969 -0.882812 12.695312 -0.925781 12.589844 -0.925781 Z M 9.347656 -7.375 L 7.480469 -15.433594 L 8.382812 -15.644531 L 9.285156 -15.433594 L 7.421875 -7.375 L 6.519531 -7.585938 L 6.519531 -8.511719 L 10.25 -8.511719 L 10.25 -7.585938 Z M 11.414062 -6.660156 L 5.351562 -6.660156 L 7.480469 -15.851562 L 9.285156 -15.851562 L 11.152344 -7.792969 Z M 11.414062 -6.660156 "/></g></g><g style="fill:#b21a22;fill-opacity:1;"><g transform="translate(38.001292, 62.98799)"><path style="stroke:none" d="M 14.289062 -16.472656 L 14.289062 -13.273438 C 14.289062 -12.859375 14.15625 -12.523438 13.898438 -12.261719 C 13.636719 -12.003906 13.300781 -11.871094 12.886719 -11.871094 L 10.101562 -11.871094 C 9.6875 -11.871094 9.351562 -12.003906 9.09375 -12.261719 C 8.832031 -12.523438 8.703125 -12.859375 8.703125 -13.273438 L 8.703125 -15.703125 C 8.703125 -15.800781 8.695312 -15.875 8.675781 -15.929688 C 8.671875 -15.9375 8.671875 -15.945312 8.667969 -15.949219 C 8.671875 -15.945312 8.671875 -15.941406 8.679688 -15.9375 C 8.683594 -15.933594 8.6875 -15.929688 8.691406 -15.925781 C 8.6875 -15.929688 8.679688 -15.933594 8.667969 -15.933594 C 8.617188 -15.953125 8.542969 -15.960938 8.445312 -15.960938 L 6.546875 -15.960938 C 6.449219 -15.960938 6.375 -15.953125 6.320312 -15.933594 C 6.3125 -15.933594 6.304688 -15.929688 6.300781 -15.925781 C 6.304688 -15.929688 6.308594 -15.933594 6.3125 -15.9375 C 6.316406 -15.941406 6.320312 -15.945312 6.324219 -15.949219 C 6.320312 -15.945312 6.316406 -15.9375 6.316406 -15.929688 C 6.296875 -15.875 6.289062 -15.800781 6.289062 -15.703125 L 6.289062 -4.949219 C 6.289062 -4.851562 6.296875 -4.773438 6.316406 -4.722656 C 6.316406 -4.710938 6.320312 -4.707031 6.324219 -4.703125 C 6.320312 -4.707031 6.316406 -4.710938 6.3125 -4.714844 C 6.308594 -4.71875 6.304688 -4.722656 6.300781 -4.722656 C 6.304688 -4.722656 6.3125 -4.71875 6.320312 -4.714844 C 6.375 -4.699219 6.449219 -4.6875 6.546875 -4.6875 L 8.445312 -4.6875 C 8.542969 -4.6875 8.617188 -4.699219 8.667969 -4.714844 C 8.679688 -4.71875 8.6875 -4.722656 8.691406 -4.722656 C 8.6875 -4.722656 8.683594 -4.71875 8.679688 -4.714844 C 8.671875 -4.710938 8.671875 -4.707031 8.667969 -4.703125 C 8.671875 -4.707031 8.671875 -4.710938 8.675781 -4.722656 C 8.695312 -4.773438 8.703125 -4.851562 8.703125 -4.949219 L 8.703125 -7.464844 C 8.703125 -7.878906 8.832031 -8.214844 9.09375 -8.476562 C 9.351562 -8.734375 9.6875 -8.867188 10.101562 -8.867188 L 12.886719 -8.867188 C 13.300781 -8.867188 13.636719 -8.734375 13.898438 -8.476562 C 14.15625 -8.214844 14.289062 -7.878906 14.289062 -7.464844 L 14.289062 -4.265625 C 14.289062 -2.628906 13.832031 -1.351562 12.921875 -0.441406 C 12.007812 0.46875 10.734375 0.925781 9.09375 0.925781 L 5.777344 0.925781 C 4.140625 0.925781 2.863281 0.472656 1.941406 -0.4375 C 1.019531 -1.347656 0.554688 -2.625 0.554688 -4.265625 L 0.554688 -16.472656 C 0.554688 -18.136719 1.019531 -19.417969 1.945312 -20.320312 C 2.867188 -21.21875 4.144531 -21.664062 5.777344 -21.664062 L 9.09375 -21.664062 C 10.730469 -21.664062 12.003906 -21.214844 12.914062 -20.316406 C 13.832031 -19.414062 14.289062 -18.132812 14.289062 -16.472656 Z M 12.4375 -16.472656 C 12.4375 -17.617188 12.164062 -18.457031 11.617188 -19 C 11.066406 -19.542969 10.226562 -19.8125 9.09375 -19.8125 L 5.777344 -19.8125 C 4.644531 -19.8125 3.800781 -19.539062 3.238281 -18.992188 C 2.683594 -18.453125 2.40625 -17.613281 2.40625 -16.472656 L 2.40625 -4.265625 C 2.40625 -3.140625 2.6875 -2.304688 3.242188 -1.753906 C 3.804688 -1.203125 4.648438 -0.925781 5.777344 -0.925781 L 9.09375 -0.925781 C 10.222656 -0.925781 11.0625 -1.199219 11.609375 -1.75 C 12.160156 -2.300781 12.4375 -3.140625 12.4375 -4.265625 L 12.4375 -7.464844 C 12.4375 -7.445312 12.441406 -7.417969 12.453125 -7.378906 C 12.480469 -7.300781 12.523438 -7.230469 12.589844 -7.167969 C 12.652344 -7.101562 12.722656 -7.058594 12.800781 -7.03125 C 12.839844 -7.019531 12.867188 -7.015625 12.886719 -7.015625 L 10.101562 -7.015625 C 10.125 -7.015625 10.152344 -7.019531 10.1875 -7.03125 C 10.265625 -7.058594 10.339844 -7.101562 10.402344 -7.167969 C 10.464844 -7.230469 10.511719 -7.300781 10.535156 -7.378906 C 10.546875 -7.417969 10.554688 -7.445312 10.554688 -7.464844 L 10.554688 -4.949219 C 10.554688 -4.296875 10.367188 -3.78125 9.988281 -3.402344 C 9.609375 -3.027344 9.09375 -2.835938 8.445312 -2.835938 L 6.546875 -2.835938 C 5.898438 -2.835938 5.382812 -3.027344 5.003906 -3.402344 C 4.625 -3.78125 4.4375 -4.296875 4.4375 -4.949219 L 4.4375 -15.703125 C 4.4375 -16.351562 4.625 -16.867188 5.003906 -17.246094 C 5.382812 -17.625 5.898438 -17.8125 6.546875 -17.8125 L 8.445312 -17.8125 C 9.09375 -17.8125 9.609375 -17.625 9.988281 -17.246094 C 10.367188 -16.867188 10.554688 -16.351562 10.554688 -15.703125 L 10.554688 -13.273438 C 10.554688 -13.292969 10.546875 -13.324219 10.535156 -13.359375 C 10.511719 -13.4375 10.464844 -13.507812 10.402344 -13.570312 C 10.339844 -13.636719 10.265625 -13.679688 10.1875 -13.707031 C 10.152344 -13.71875 10.125 -13.726562 10.101562 -13.726562 L 12.886719 -13.726562 C 12.867188 -13.726562 12.839844 -13.71875 12.800781 -13.707031 C 12.722656 -13.679688 12.652344 -13.636719 12.589844 -13.570312 C 12.523438 -13.507812 12.480469 -13.4375 12.453125 -13.359375 C 12.441406 -13.324219 12.4375 -13.292969 12.4375 -13.273438 Z M 12.4375 -16.472656 "/></g></g><g style="fill:#b21a22;fill-opacity:1;"><g transform="translate(52.839721, 62.98799)"><path style="stroke:none" d="M 12.265625 -19.8125 L 1.363281 -19.8125 C 1.382812 -19.8125 1.414062 -19.820312 1.449219 -19.832031 C 1.527344 -19.855469 1.597656 -19.902344 1.660156 -19.964844 C 1.726562 -20.027344 1.769531 -20.101562 1.796875 -20.179688 C 1.808594 -20.214844 1.816406 -20.242188 1.816406 -20.265625 L 1.816406 -17.300781 C 1.816406 -17.324219 1.808594 -17.351562 1.796875 -17.386719 C 1.769531 -17.464844 1.726562 -17.539062 1.660156 -17.601562 C 1.597656 -17.664062 1.527344 -17.710938 1.449219 -17.734375 C 1.414062 -17.75 1.382812 -17.753906 1.363281 -17.753906 L 5.726562 -17.753906 L 5.726562 -0.472656 C 5.726562 -0.496094 5.71875 -0.523438 5.707031 -0.558594 C 5.679688 -0.636719 5.636719 -0.710938 5.574219 -0.773438 C 5.507812 -0.835938 5.4375 -0.882812 5.359375 -0.90625 C 5.324219 -0.921875 5.292969 -0.925781 5.273438 -0.925781 L 8.355469 -0.925781 C 8.332031 -0.925781 8.304688 -0.921875 8.269531 -0.90625 C 8.191406 -0.882812 8.121094 -0.835938 8.054688 -0.773438 C 7.992188 -0.710938 7.945312 -0.636719 7.921875 -0.558594 C 7.910156 -0.523438 7.902344 -0.496094 7.902344 -0.472656 L 7.902344 -17.753906 L 12.265625 -17.753906 C 12.246094 -17.753906 12.214844 -17.75 12.179688 -17.734375 C 12.101562 -17.710938 12.03125 -17.664062 11.964844 -17.601562 C 11.902344 -17.539062 11.859375 -17.464844 11.832031 -17.386719 C 11.820312 -17.351562 11.8125 -17.324219 11.8125 -17.300781 L 11.8125 -20.265625 C 11.8125 -20.242188 11.820312 -20.214844 11.832031 -20.179688 C 11.859375 -20.101562 11.902344 -20.027344 11.964844 -19.964844 C 12.03125 -19.902344 12.101562 -19.855469 12.179688 -19.832031 C 12.214844 -19.820312 12.246094 -19.8125 12.265625 -19.8125 Z M 12.265625 -21.664062 C 12.679688 -21.664062 13.015625 -21.535156 13.277344 -21.273438 C 13.535156 -21.015625 13.664062 -20.679688 13.664062 -20.265625 L 13.664062 -17.300781 C 13.664062 -16.886719 13.535156 -16.550781 13.277344 -16.292969 C 13.015625 -16.03125 12.679688 -15.902344 12.265625 -15.902344 L 8.828125 -15.902344 L 8.828125 -16.828125 L 9.753906 -16.828125 L 9.753906 -0.472656 C 9.753906 -0.0585938 9.625 0.277344 9.363281 0.535156 C 9.105469 0.796875 8.769531 0.925781 8.355469 0.925781 L 5.273438 0.925781 C 4.859375 0.925781 4.523438 0.796875 4.261719 0.535156 C 4.003906 0.277344 3.875 -0.0585938 3.875 -0.472656 L 3.875 -16.828125 L 4.800781 -16.828125 L 4.800781 -15.902344 L 1.363281 -15.902344 C 0.949219 -15.902344 0.613281 -16.03125 0.351562 -16.292969 C 0.09375 -16.550781 -0.0351562 -16.886719 -0.0351562 -17.300781 L -0.0351562 -20.265625 C -0.0351562 -20.679688 0.09375 -21.015625 0.351562 -21.273438 C 0.613281 -21.535156 0.949219 -21.664062 1.363281 -21.664062 Z M 12.265625 -21.664062 "/></g></g><g style="fill:#b21a22;fill-opacity:1;"><g transform="translate(66.463824, 62.98799)"><path style="stroke:none" d="M 1.957031 -0.925781 L 5.035156 -0.925781 C 5.015625 -0.925781 4.988281 -0.921875 4.953125 -0.90625 C 4.871094 -0.882812 4.800781 -0.835938 4.738281 -0.773438 C 4.675781 -0.710938 4.628906 -0.636719 4.601562 -0.558594 C 4.589844 -0.523438 4.585938 -0.496094 4.585938 -0.472656 L 4.585938 -20.265625 C 4.585938 -20.242188 4.589844 -20.214844 4.601562 -20.179688 C 4.628906 -20.101562 4.675781 -20.027344 4.738281 -19.964844 C 4.800781 -19.902344 4.871094 -19.855469 4.953125 -19.832031 C 4.988281 -19.820312 5.015625 -19.8125 5.035156 -19.8125 L 1.957031 -19.8125 C 1.976562 -19.8125 2.003906 -19.820312 2.039062 -19.832031 C 2.121094 -19.855469 2.191406 -19.902344 2.253906 -19.964844 C 2.316406 -20.027344 2.363281 -20.101562 2.390625 -20.179688 C 2.402344 -20.214844 2.40625 -20.242188 2.40625 -20.265625 L 2.40625 -0.472656 C 2.40625 -0.496094 2.402344 -0.523438 2.390625 -0.558594 C 2.363281 -0.636719 2.316406 -0.710938 2.253906 -0.773438 C 2.191406 -0.835938 2.121094 -0.882812 2.039062 -0.90625 C 2.003906 -0.921875 1.976562 -0.925781 1.957031 -0.925781 Z M 1.957031 0.925781 C 1.542969 0.925781 1.203125 0.796875 0.945312 0.535156 C 0.683594 0.277344 0.554688 -0.0585938 0.554688 -0.472656 L 0.554688 -20.265625 C 0.554688 -20.679688 0.683594 -21.015625 0.945312 -21.273438 C 1.203125 -21.535156 1.542969 -21.664062 1.957031 -21.664062 L 5.035156 -21.664062 C 5.449219 -21.664062 5.785156 -21.535156 6.046875 -21.273438 C 6.304688 -21.015625 6.4375 -20.679688 6.4375 -20.265625 L 6.4375 -0.472656 C 6.4375 -0.0585938 6.304688 0.277344 6.046875 0.535156 C 5.785156 0.796875 5.449219 0.925781 5.035156 0.925781 Z M 1.957031 0.925781 "/></g></g><g style="fill:#b21a22;fill-opacity:1;"><g transform="translate(73.453576, 62.98799)"><path style="stroke:none" d="M 11.347656 -21.664062 L 14.042969 -21.664062 C 14.5625 -21.664062 14.960938 -21.496094 15.234375 -21.164062 C 15.515625 -20.820312 15.59375 -20.394531 15.480469 -19.882812 L 10.765625 -0.316406 C 10.683594 0.0585938 10.503906 0.359375 10.230469 0.582031 C 9.949219 0.8125 9.613281 0.925781 9.214844 0.925781 L 6.25 0.925781 C 5.863281 0.925781 5.53125 0.8125 5.25 0.582031 C 4.988281 0.371094 4.808594 0.0820312 4.707031 -0.285156 L 4.703125 -0.300781 L 0.0195312 -19.871094 C -0.101562 -20.390625 -0.0195312 -20.820312 0.261719 -21.164062 C 0.535156 -21.496094 0.933594 -21.664062 1.453125 -21.664062 L 4.148438 -21.664062 C 4.546875 -21.664062 4.882812 -21.550781 5.164062 -21.320312 C 5.4375 -21.097656 5.617188 -20.792969 5.703125 -20.40625 L 8.636719 -7.011719 L 7.734375 -6.8125 L 6.828125 -7.015625 L 9.796875 -20.429688 L 9.804688 -20.453125 C 9.90625 -20.820312 10.085938 -21.109375 10.347656 -21.320312 C 10.625 -21.550781 10.957031 -21.664062 11.347656 -21.664062 Z M 11.347656 -19.8125 C 11.398438 -19.8125 11.457031 -19.839844 11.519531 -19.890625 C 11.550781 -19.914062 11.570312 -19.941406 11.589844 -19.96875 C 11.589844 -19.972656 11.59375 -19.976562 11.59375 -19.976562 C 11.59375 -19.972656 11.589844 -19.964844 11.585938 -19.957031 L 10.695312 -20.207031 L 11.597656 -20.003906 L 8.636719 -6.613281 L 6.828125 -6.617188 L 3.894531 -20.003906 C 3.894531 -20.007812 3.894531 -20.011719 3.894531 -20.011719 C 3.894531 -20.007812 3.898438 -20 3.90625 -19.988281 C 3.925781 -19.953125 3.953125 -19.917969 3.992188 -19.890625 C 4.054688 -19.839844 4.105469 -19.8125 4.148438 -19.8125 L 1.453125 -19.8125 C 1.4375 -19.8125 1.429688 -19.8125 1.421875 -19.8125 C 1.433594 -19.8125 1.449219 -19.816406 1.464844 -19.824219 C 1.550781 -19.851562 1.628906 -19.90625 1.695312 -19.988281 C 1.761719 -20.074219 1.804688 -20.164062 1.816406 -20.261719 C 1.816406 -20.28125 1.820312 -20.296875 1.816406 -20.3125 C 1.816406 -20.308594 1.816406 -20.304688 1.820312 -20.300781 L 6.5 -0.75 L 5.597656 -0.535156 L 6.492188 -0.78125 C 6.492188 -0.773438 6.496094 -0.765625 6.496094 -0.761719 C 6.496094 -0.761719 6.496094 -0.765625 6.492188 -0.773438 C 6.476562 -0.800781 6.453125 -0.824219 6.421875 -0.851562 C 6.359375 -0.902344 6.304688 -0.925781 6.25 -0.925781 L 9.214844 -0.925781 C 9.171875 -0.925781 9.121094 -0.902344 9.058594 -0.851562 C 9.019531 -0.820312 8.992188 -0.785156 8.972656 -0.75 C 8.964844 -0.742188 8.960938 -0.734375 8.960938 -0.726562 C 8.960938 -0.726562 8.960938 -0.734375 8.964844 -0.75 L 13.671875 -20.292969 C 13.675781 -20.300781 13.675781 -20.308594 13.675781 -20.3125 C 13.675781 -20.296875 13.675781 -20.28125 13.679688 -20.261719 C 13.691406 -20.164062 13.730469 -20.074219 13.800781 -19.988281 C 13.867188 -19.90625 13.945312 -19.851562 14.03125 -19.824219 C 14.046875 -19.816406 14.0625 -19.8125 14.070312 -19.8125 C 14.066406 -19.8125 14.058594 -19.8125 14.042969 -19.8125 Z M 11.347656 -19.8125 "/></g></g><g style="fill:#b21a22;fill-opacity:1;"><g transform="translate(88.943584, 62.98799)"><path style="stroke:none" d="M 14.226562 -20.265625 L 14.226562 -17.300781 C 14.226562 -16.890625 14.105469 -16.550781 13.859375 -16.289062 C 13.597656 -16.011719 13.253906 -15.871094 12.828125 -15.871094 L 5.511719 -15.871094 L 5.511719 -16.796875 L 6.4375 -16.796875 L 6.4375 -12.234375 L 5.511719 -12.234375 L 5.511719 -13.160156 L 11.082031 -13.160156 C 11.503906 -13.160156 11.847656 -13.023438 12.109375 -12.746094 C 12.355469 -12.480469 12.480469 -12.144531 12.480469 -11.730469 L 12.480469 -8.800781 C 12.480469 -8.386719 12.355469 -8.050781 12.109375 -7.785156 C 11.847656 -7.507812 11.503906 -7.371094 11.082031 -7.371094 L 5.511719 -7.371094 L 5.511719 -8.296875 L 6.4375 -8.296875 L 6.4375 -3.910156 L 5.511719 -3.910156 L 5.511719 -4.835938 L 12.828125 -4.835938 C 13.242188 -4.835938 13.578125 -4.707031 13.839844 -4.445312 C 14.097656 -4.1875 14.226562 -3.851562 14.226562 -3.4375 L 14.226562 -0.472656 C 14.226562 -0.0585938 14.097656 0.277344 13.839844 0.535156 C 13.578125 0.796875 13.242188 0.925781 12.828125 0.925781 L 1.925781 0.925781 C 1.511719 0.925781 1.175781 0.789062 0.917969 0.515625 C 0.675781 0.257812 0.554688 -0.0703125 0.554688 -0.472656 L 0.554688 -20.265625 C 0.554688 -20.667969 0.675781 -20.996094 0.917969 -21.253906 C 1.175781 -21.527344 1.511719 -21.664062 1.925781 -21.664062 L 12.828125 -21.664062 C 13.242188 -21.664062 13.578125 -21.535156 13.839844 -21.273438 C 14.097656 -21.015625 14.226562 -20.679688 14.226562 -20.265625 Z M 12.375 -20.265625 C 12.375 -20.242188 12.382812 -20.214844 12.394531 -20.179688 C 12.421875 -20.101562 12.464844 -20.027344 12.527344 -19.964844 C 12.59375 -19.902344 12.664062 -19.855469 12.742188 -19.832031 C 12.777344 -19.820312 12.808594 -19.8125 12.828125 -19.8125 L 1.925781 -19.8125 C 2.046875 -19.8125 2.160156 -19.871094 2.269531 -19.988281 C 2.328125 -20.050781 2.371094 -20.121094 2.394531 -20.195312 C 2.402344 -20.226562 2.40625 -20.25 2.40625 -20.265625 L 2.40625 -0.472656 C 2.40625 -0.488281 2.402344 -0.511719 2.394531 -0.542969 C 2.371094 -0.617188 2.328125 -0.6875 2.269531 -0.75 C 2.160156 -0.867188 2.046875 -0.925781 1.925781 -0.925781 L 12.828125 -0.925781 C 12.808594 -0.925781 12.777344 -0.921875 12.742188 -0.90625 C 12.664062 -0.882812 12.59375 -0.835938 12.527344 -0.773438 C 12.464844 -0.710938 12.421875 -0.636719 12.394531 -0.558594 C 12.382812 -0.523438 12.375 -0.496094 12.375 -0.472656 L 12.375 -3.4375 C 12.375 -3.414062 12.382812 -3.386719 12.394531 -3.351562 C 12.421875 -3.273438 12.464844 -3.199219 12.527344 -3.136719 C 12.59375 -3.074219 12.664062 -3.027344 12.742188 -3.003906 C 12.777344 -2.992188 12.808594 -2.984375 12.828125 -2.984375 L 4.585938 -2.984375 L 4.585938 -9.222656 L 11.082031 -9.222656 C 11.054688 -9.222656 11.019531 -9.214844 10.980469 -9.199219 C 10.898438 -9.171875 10.824219 -9.121094 10.761719 -9.054688 C 10.703125 -8.996094 10.664062 -8.929688 10.640625 -8.855469 C 10.632812 -8.828125 10.628906 -8.808594 10.628906 -8.800781 L 10.628906 -11.730469 C 10.628906 -11.722656 10.632812 -11.703125 10.640625 -11.675781 C 10.664062 -11.601562 10.703125 -11.535156 10.761719 -11.476562 C 10.824219 -11.410156 10.898438 -11.359375 10.980469 -11.332031 C 11.019531 -11.316406 11.054688 -11.308594 11.082031 -11.308594 L 4.585938 -11.308594 L 4.585938 -17.722656 L 12.828125 -17.722656 C 12.800781 -17.722656 12.765625 -17.71875 12.726562 -17.703125 C 12.644531 -17.675781 12.574219 -17.625 12.507812 -17.558594 C 12.453125 -17.496094 12.410156 -17.429688 12.390625 -17.359375 C 12.382812 -17.332031 12.375 -17.3125 12.375 -17.300781 Z M 12.375 -20.265625 "/></g></g><g style="fill:#b21a22;fill-opacity:1;"><g transform="translate(103.722767, 62.98799)"><path style="stroke:none" d="M -0.925781 3.96875 L -0.925781 1.246094 C -0.925781 0.792969 -0.785156 0.425781 -0.507812 0.144531 C -0.226562 -0.132812 0.140625 -0.273438 0.59375 -0.273438 L 18.457031 -0.273438 C 18.910156 -0.273438 19.277344 -0.132812 19.558594 0.144531 C 19.835938 0.425781 19.976562 0.792969 19.976562 1.246094 L 19.976562 3.96875 C 19.976562 4.421875 19.835938 4.789062 19.558594 5.070312 C 19.277344 5.347656 18.910156 5.488281 18.457031 5.488281 L 0.59375 5.488281 C 0.140625 5.488281 -0.226562 5.347656 -0.507812 5.070312 C -0.785156 4.789062 -0.925781 4.421875 -0.925781 3.96875 Z M 0.925781 3.96875 C 0.925781 3.972656 0.925781 3.976562 0.925781 3.980469 C 0.925781 3.980469 0.925781 3.980469 0.925781 3.976562 C 0.925781 3.964844 0.921875 3.953125 0.914062 3.9375 C 0.894531 3.871094 0.855469 3.8125 0.804688 3.757812 C 0.75 3.707031 0.691406 3.667969 0.625 3.648438 C 0.609375 3.640625 0.597656 3.636719 0.585938 3.636719 C 0.582031 3.636719 0.582031 3.636719 0.582031 3.636719 C 0.585938 3.636719 0.589844 3.636719 0.59375 3.636719 L 18.457031 3.636719 C 18.460938 3.636719 18.464844 3.636719 18.46875 3.636719 C 18.46875 3.636719 18.46875 3.636719 18.464844 3.636719 C 18.453125 3.636719 18.441406 3.640625 18.425781 3.648438 C 18.359375 3.667969 18.300781 3.707031 18.246094 3.757812 C 18.195312 3.8125 18.15625 3.871094 18.132812 3.9375 C 18.128906 3.953125 18.125 3.964844 18.125 3.976562 C 18.125 3.980469 18.125 3.980469 18.125 3.980469 C 18.125 3.976562 18.125 3.972656 18.125 3.96875 L 18.125 1.246094 C 18.125 1.238281 18.125 1.238281 18.125 1.234375 C 18.125 1.234375 18.125 1.234375 18.125 1.238281 C 18.125 1.25 18.128906 1.261719 18.132812 1.277344 C 18.15625 1.34375 18.195312 1.402344 18.246094 1.453125 C 18.300781 1.507812 18.359375 1.546875 18.425781 1.566406 C 18.441406 1.574219 18.453125 1.574219 18.464844 1.578125 C 18.46875 1.578125 18.46875 1.578125 18.46875 1.578125 C 18.464844 1.578125 18.460938 1.578125 18.457031 1.578125 L 0.59375 1.578125 C 0.589844 1.578125 0.585938 1.578125 0.582031 1.578125 C 0.582031 1.578125 0.582031 1.578125 0.585938 1.578125 C 0.597656 1.574219 0.609375 1.574219 0.625 1.566406 C 0.691406 1.546875 0.75 1.507812 0.804688 1.453125 C 0.855469 1.402344 0.894531 1.34375 0.914062 1.277344 C 0.921875 1.261719 0.925781 1.25 0.925781 1.238281 C 0.925781 1.234375 0.925781 1.234375 0.925781 1.234375 C 0.925781 1.238281 0.925781 1.238281 0.925781 1.246094 Z M 0.925781 3.96875 "/></g></g><g style="fill:#b21a22;fill-opacity:1;"><g transform="translate(16.86638, 104.293028)"><path style="stroke:none" d="M 5.746094 -21.664062 L 9.066406 -21.664062 C 10.722656 -21.664062 12.003906 -21.214844 12.90625 -20.3125 C 13.808594 -19.410156 14.257812 -18.128906 14.257812 -16.472656 L 14.257812 -14.515625 C 14.257812 -14.105469 14.128906 -13.765625 13.867188 -13.507812 C 13.609375 -13.246094 13.273438 -13.117188 12.859375 -13.117188 L 9.867188 -13.117188 C 9.453125 -13.117188 9.117188 -13.246094 8.855469 -13.507812 C 8.597656 -13.765625 8.464844 -14.105469 8.464844 -14.515625 L 8.464844 -15.761719 C 8.464844 -15.859375 8.457031 -15.933594 8.4375 -15.988281 C 8.4375 -15.996094 8.433594 -16.003906 8.429688 -16.007812 C 8.433594 -16.003906 8.4375 -16 8.441406 -15.996094 C 8.445312 -15.992188 8.449219 -15.988281 8.453125 -15.984375 C 8.449219 -15.988281 8.441406 -15.992188 8.433594 -15.996094 C 8.378906 -16.011719 8.304688 -16.019531 8.207031 -16.019531 L 6.578125 -16.019531 C 6.480469 -16.019531 6.40625 -16.011719 6.351562 -15.996094 C 6.339844 -15.992188 6.335938 -15.988281 6.332031 -15.984375 C 6.335938 -15.988281 6.339844 -15.992188 6.34375 -15.996094 C 6.347656 -16 6.351562 -16.003906 6.351562 -16.007812 C 6.351562 -16.003906 6.347656 -15.996094 6.34375 -15.988281 C 6.328125 -15.933594 6.316406 -15.859375 6.316406 -15.761719 L 6.316406 -13.242188 L 5.390625 -13.242188 L 5.675781 -14.125 L 12.847656 -11.8125 C 13.304688 -11.65625 13.652344 -11.402344 13.898438 -11.058594 C 14.136719 -10.714844 14.257812 -10.308594 14.257812 -9.835938 L 14.257812 -4.265625 C 14.257812 -2.628906 13.808594 -1.355469 12.910156 -0.445312 C 12.007812 0.46875 10.726562 0.925781 9.066406 0.925781 L 5.746094 0.925781 C 4.109375 0.925781 2.835938 0.46875 1.921875 -0.441406 C 1.011719 -1.351562 0.554688 -2.628906 0.554688 -4.265625 L 0.554688 -6.191406 C 0.554688 -6.605469 0.683594 -6.941406 0.945312 -7.203125 C 1.203125 -7.460938 1.542969 -7.59375 1.957031 -7.59375 L 4.949219 -7.59375 C 5.363281 -7.59375 5.699219 -7.460938 5.957031 -7.203125 C 6.21875 -6.941406 6.347656 -6.605469 6.347656 -6.191406 L 6.347656 -4.949219 C 6.347656 -4.851562 6.355469 -4.773438 6.375 -4.722656 C 6.378906 -4.710938 6.378906 -4.707031 6.382812 -4.703125 C 6.378906 -4.707031 6.378906 -4.710938 6.371094 -4.714844 C 6.367188 -4.71875 6.363281 -4.722656 6.359375 -4.722656 C 6.363281 -4.722656 6.371094 -4.71875 6.382812 -4.714844 C 6.433594 -4.699219 6.507812 -4.6875 6.605469 -4.6875 L 8.207031 -4.6875 C 8.304688 -4.6875 8.378906 -4.699219 8.433594 -4.714844 C 8.441406 -4.71875 8.449219 -4.722656 8.453125 -4.722656 C 8.449219 -4.722656 8.445312 -4.71875 8.441406 -4.714844 C 8.4375 -4.710938 8.433594 -4.707031 8.429688 -4.703125 C 8.433594 -4.707031 8.4375 -4.710938 8.4375 -4.722656 C 8.457031 -4.773438 8.464844 -4.851562 8.464844 -4.949219 L 8.464844 -7.941406 L 9.390625 -7.941406 L 9.105469 -7.058594 L 1.996094 -9.371094 C 1.535156 -9.523438 1.183594 -9.769531 0.933594 -10.113281 C 0.679688 -10.457031 0.554688 -10.871094 0.554688 -11.347656 L 0.554688 -16.472656 C 0.554688 -18.132812 1.011719 -19.414062 1.925781 -20.316406 C 2.839844 -21.214844 4.113281 -21.664062 5.746094 -21.664062 Z M 5.746094 -19.8125 C 4.617188 -19.8125 3.777344 -19.542969 3.226562 -19 C 2.679688 -18.457031 2.40625 -17.617188 2.40625 -16.472656 L 2.40625 -11.347656 C 2.40625 -11.273438 2.414062 -11.222656 2.429688 -11.203125 C 2.445312 -11.179688 2.492188 -11.15625 2.566406 -11.132812 L 10.316406 -8.613281 L 10.316406 -4.949219 C 10.316406 -4.296875 10.128906 -3.78125 9.75 -3.402344 C 9.371094 -3.027344 8.855469 -2.835938 8.207031 -2.835938 L 6.605469 -2.835938 C 5.957031 -2.835938 5.441406 -3.027344 5.0625 -3.402344 C 4.683594 -3.78125 4.496094 -4.296875 4.496094 -4.949219 L 4.496094 -6.191406 C 4.496094 -6.171875 4.5 -6.140625 4.515625 -6.105469 C 4.539062 -6.027344 4.585938 -5.957031 4.648438 -5.894531 C 4.710938 -5.828125 4.785156 -5.785156 4.863281 -5.757812 C 4.898438 -5.746094 4.925781 -5.738281 4.949219 -5.738281 L 1.957031 -5.738281 C 1.976562 -5.738281 2.003906 -5.746094 2.039062 -5.757812 C 2.121094 -5.785156 2.191406 -5.828125 2.253906 -5.894531 C 2.316406 -5.957031 2.363281 -6.027344 2.390625 -6.105469 C 2.402344 -6.140625 2.40625 -6.171875 2.40625 -6.191406 L 2.40625 -4.265625 C 2.40625 -3.140625 2.683594 -2.300781 3.230469 -1.75 C 3.78125 -1.199219 4.621094 -0.925781 5.746094 -0.925781 L 9.066406 -0.925781 C 10.210938 -0.925781 11.050781 -1.199219 11.589844 -1.746094 C 12.132812 -2.296875 12.40625 -3.136719 12.40625 -4.265625 L 12.40625 -9.835938 C 12.40625 -9.917969 12.398438 -9.96875 12.382812 -9.992188 C 12.367188 -10.011719 12.332031 -10.03125 12.277344 -10.050781 L 4.464844 -12.570312 L 4.464844 -15.761719 C 4.464844 -16.414062 4.65625 -16.925781 5.035156 -17.304688 C 5.410156 -17.683594 5.925781 -17.871094 6.578125 -17.871094 L 8.207031 -17.871094 C 8.855469 -17.871094 9.371094 -17.683594 9.75 -17.304688 C 10.128906 -16.925781 10.316406 -16.414062 10.316406 -15.761719 L 10.316406 -14.515625 C 10.316406 -14.539062 10.3125 -14.566406 10.300781 -14.601562 C 10.273438 -14.679688 10.226562 -14.753906 10.164062 -14.816406 C 10.101562 -14.878906 10.03125 -14.925781 9.953125 -14.953125 C 9.914062 -14.964844 9.886719 -14.96875 9.867188 -14.96875 L 12.859375 -14.96875 C 12.835938 -14.96875 12.808594 -14.964844 12.773438 -14.953125 C 12.695312 -14.925781 12.621094 -14.878906 12.558594 -14.816406 C 12.496094 -14.753906 12.449219 -14.679688 12.425781 -14.601562 C 12.414062 -14.566406 12.40625 -14.539062 12.40625 -14.515625 L 12.40625 -16.472656 C 12.40625 -17.621094 12.136719 -18.460938 11.597656 -19.003906 C 11.054688 -19.542969 10.210938 -19.8125 9.066406 -19.8125 Z M 5.746094 -19.8125 "/></g></g><g style="fill:#b21a22;fill-opacity:1;"><g transform="translate(31.675186, 104.293028)"><path style="stroke:none" d="M 14.226562 -20.265625 L 14.226562 -17.300781 C 14.226562 -16.890625 14.105469 -16.550781 13.859375 -16.289062 C 13.597656 -16.011719 13.253906 -15.871094 12.828125 -15.871094 L 5.511719 -15.871094 L 5.511719 -16.796875 L 6.4375 -16.796875 L 6.4375 -12.234375 L 5.511719 -12.234375 L 5.511719 -13.160156 L 11.082031 -13.160156 C 11.503906 -13.160156 11.847656 -13.023438 12.109375 -12.746094 C 12.355469 -12.480469 12.480469 -12.144531 12.480469 -11.730469 L 12.480469 -8.800781 C 12.480469 -8.386719 12.355469 -8.050781 12.109375 -7.785156 C 11.847656 -7.507812 11.503906 -7.371094 11.082031 -7.371094 L 5.511719 -7.371094 L 5.511719 -8.296875 L 6.4375 -8.296875 L 6.4375 -3.910156 L 5.511719 -3.910156 L 5.511719 -4.835938 L 12.828125 -4.835938 C 13.242188 -4.835938 13.578125 -4.707031 13.839844 -4.445312 C 14.097656 -4.1875 14.226562 -3.851562 14.226562 -3.4375 L 14.226562 -0.472656 C 14.226562 -0.0585938 14.097656 0.277344 13.839844 0.535156 C 13.578125 0.796875 13.242188 0.925781 12.828125 0.925781 L 1.925781 0.925781 C 1.511719 0.925781 1.175781 0.789062 0.917969 0.515625 C 0.675781 0.257812 0.554688 -0.0703125 0.554688 -0.472656 L 0.554688 -20.265625 C 0.554688 -20.667969 0.675781 -20.996094 0.917969 -21.253906 C 1.175781 -21.527344 1.511719 -21.664062 1.925781 -21.664062 L 12.828125 -21.664062 C 13.242188 -21.664062 13.578125 -21.535156 13.839844 -21.273438 C 14.097656 -21.015625 14.226562 -20.679688 14.226562 -20.265625 Z M 12.375 -20.265625 C 12.375 -20.242188 12.382812 -20.214844 12.394531 -20.179688 C 12.421875 -20.101562 12.464844 -20.027344 12.527344 -19.964844 C 12.59375 -19.902344 12.664062 -19.855469 12.742188 -19.832031 C 12.777344 -19.820312 12.808594 -19.8125 12.828125 -19.8125 L 1.925781 -19.8125 C 2.046875 -19.8125 2.160156 -19.871094 2.269531 -19.988281 C 2.328125 -20.050781 2.371094 -20.121094 2.394531 -20.195312 C 2.402344 -20.226562 2.40625 -20.25 2.40625 -20.265625 L 2.40625 -0.472656 C 2.40625 -0.488281 2.402344 -0.511719 2.394531 -0.542969 C 2.371094 -0.617188 2.328125 -0.6875 2.269531 -0.75 C 2.160156 -0.867188 2.046875 -0.925781 1.925781 -0.925781 L 12.828125 -0.925781 C 12.808594 -0.925781 12.777344 -0.921875 12.742188 -0.90625 C 12.664062 -0.882812 12.59375 -0.835938 12.527344 -0.773438 C 12.464844 -0.710938 12.421875 -0.636719 12.394531 -0.558594 C 12.382812 -0.523438 12.375 -0.496094 12.375 -0.472656 L 12.375 -3.4375 C 12.375 -3.414062 12.382812 -3.386719 12.394531 -3.351562 C 12.421875 -3.273438 12.464844 -3.199219 12.527344 -3.136719 C 12.59375 -3.074219 12.664062 -3.027344 12.742188 -3.003906 C 12.777344 -2.992188 12.808594 -2.984375 12.828125 -2.984375 L 4.585938 -2.984375 L 4.585938 -9.222656 L 11.082031 -9.222656 C 11.054688 -9.222656 11.019531 -9.214844 10.980469 -9.199219 C 10.898438 -9.171875 10.824219 -9.121094 10.761719 -9.054688 C 10.703125 -8.996094 10.664062 -8.929688 10.640625 -8.855469 C 10.632812 -8.828125 10.628906 -8.808594 10.628906 -8.800781 L 10.628906 -11.730469 C 10.628906 -11.722656 10.632812 -11.703125 10.640625 -11.675781 C 10.664062 -11.601562 10.703125 -11.535156 10.761719 -11.476562 C 10.824219 -11.410156 10.898438 -11.359375 10.980469 -11.332031 C 11.019531 -11.316406 11.054688 -11.308594 11.082031 -11.308594 L 4.585938 -11.308594 L 4.585938 -17.722656 L 12.828125 -17.722656 C 12.800781 -17.722656 12.765625 -17.71875 12.726562 -17.703125 C 12.644531 -17.675781 12.574219 -17.625 12.507812 -17.558594 C 12.453125 -17.496094 12.410156 -17.429688 12.390625 -17.359375 C 12.382812 -17.332031 12.375 -17.3125 12.375 -17.300781 Z M 12.375 -20.265625 "/></g></g><g style="fill:#b21a22;fill-opacity:1;"><g transform="translate(46.45437, 104.293028)"><path style="stroke:none" d="M 14.289062 -16.472656 L 14.289062 -13.273438 C 14.289062 -12.859375 14.15625 -12.523438 13.898438 -12.261719 C 13.636719 -12.003906 13.300781 -11.871094 12.886719 -11.871094 L 10.101562 -11.871094 C 9.6875 -11.871094 9.351562 -12.003906 9.09375 -12.261719 C 8.832031 -12.523438 8.703125 -12.859375 8.703125 -13.273438 L 8.703125 -15.703125 C 8.703125 -15.800781 8.695312 -15.875 8.675781 -15.929688 C 8.671875 -15.9375 8.671875 -15.945312 8.667969 -15.949219 C 8.671875 -15.945312 8.671875 -15.941406 8.679688 -15.9375 C 8.683594 -15.933594 8.6875 -15.929688 8.691406 -15.925781 C 8.6875 -15.929688 8.679688 -15.933594 8.667969 -15.933594 C 8.617188 -15.953125 8.542969 -15.960938 8.445312 -15.960938 L 6.546875 -15.960938 C 6.449219 -15.960938 6.375 -15.953125 6.320312 -15.933594 C 6.3125 -15.933594 6.304688 -15.929688 6.300781 -15.925781 C 6.304688 -15.929688 6.308594 -15.933594 6.3125 -15.9375 C 6.316406 -15.941406 6.320312 -15.945312 6.324219 -15.949219 C 6.320312 -15.945312 6.316406 -15.9375 6.316406 -15.929688 C 6.296875 -15.875 6.289062 -15.800781 6.289062 -15.703125 L 6.289062 -4.949219 C 6.289062 -4.851562 6.296875 -4.773438 6.316406 -4.722656 C 6.316406 -4.710938 6.320312 -4.707031 6.324219 -4.703125 C 6.320312 -4.707031 6.316406 -4.710938 6.3125 -4.714844 C 6.308594 -4.71875 6.304688 -4.722656 6.300781 -4.722656 C 6.304688 -4.722656 6.3125 -4.71875 6.320312 -4.714844 C 6.375 -4.699219 6.449219 -4.6875 6.546875 -4.6875 L 8.445312 -4.6875 C 8.542969 -4.6875 8.617188 -4.699219 8.667969 -4.714844 C 8.679688 -4.71875 8.6875 -4.722656 8.691406 -4.722656 C 8.6875 -4.722656 8.683594 -4.71875 8.679688 -4.714844 C 8.671875 -4.710938 8.671875 -4.707031 8.667969 -4.703125 C 8.671875 -4.707031 8.671875 -4.710938 8.675781 -4.722656 C 8.695312 -4.773438 8.703125 -4.851562 8.703125 -4.949219 L 8.703125 -7.464844 C 8.703125 -7.878906 8.832031 -8.214844 9.09375 -8.476562 C 9.351562 -8.734375 9.6875 -8.867188 10.101562 -8.867188 L 12.886719 -8.867188 C 13.300781 -8.867188 13.636719 -8.734375 13.898438 -8.476562 C 14.15625 -8.214844 14.289062 -7.878906 14.289062 -7.464844 L 14.289062 -4.265625 C 14.289062 -2.628906 13.832031 -1.351562 12.921875 -0.441406 C 12.007812 0.46875 10.734375 0.925781 9.09375 0.925781 L 5.777344 0.925781 C 4.140625 0.925781 2.863281 0.472656 1.941406 -0.4375 C 1.019531 -1.347656 0.554688 -2.625 0.554688 -4.265625 L 0.554688 -16.472656 C 0.554688 -18.136719 1.019531 -19.417969 1.945312 -20.320312 C 2.867188 -21.21875 4.144531 -21.664062 5.777344 -21.664062 L 9.09375 -21.664062 C 10.730469 -21.664062 12.003906 -21.214844 12.914062 -20.316406 C 13.832031 -19.414062 14.289062 -18.132812 14.289062 -16.472656 Z M 12.4375 -16.472656 C 12.4375 -17.617188 12.164062 -18.457031 11.617188 -19 C 11.066406 -19.542969 10.226562 -19.8125 9.09375 -19.8125 L 5.777344 -19.8125 C 4.644531 -19.8125 3.800781 -19.539062 3.238281 -18.992188 C 2.683594 -18.453125 2.40625 -17.613281 2.40625 -16.472656 L 2.40625 -4.265625 C 2.40625 -3.140625 2.6875 -2.304688 3.242188 -1.753906 C 3.804688 -1.203125 4.648438 -0.925781 5.777344 -0.925781 L 9.09375 -0.925781 C 10.222656 -0.925781 11.0625 -1.199219 11.609375 -1.75 C 12.160156 -2.300781 12.4375 -3.140625 12.4375 -4.265625 L 12.4375 -7.464844 C 12.4375 -7.445312 12.441406 -7.417969 12.453125 -7.378906 C 12.480469 -7.300781 12.523438 -7.230469 12.589844 -7.167969 C 12.652344 -7.101562 12.722656 -7.058594 12.800781 -7.03125 C 12.839844 -7.019531 12.867188 -7.015625 12.886719 -7.015625 L 10.101562 -7.015625 C 10.125 -7.015625 10.152344 -7.019531 10.1875 -7.03125 C 10.265625 -7.058594 10.339844 -7.101562 10.402344 -7.167969 C 10.464844 -7.230469 10.511719 -7.300781 10.535156 -7.378906 C 10.546875 -7.417969 10.554688 -7.445312 10.554688 -7.464844 L 10.554688 -4.949219 C 10.554688 -4.296875 10.367188 -3.78125 9.988281 -3.402344 C 9.609375 -3.027344 9.09375 -2.835938 8.445312 -2.835938 L 6.546875 -2.835938 C 5.898438 -2.835938 5.382812 -3.027344 5.003906 -3.402344 C 4.625 -3.78125 4.4375 -4.296875 4.4375 -4.949219 L 4.4375 -15.703125 C 4.4375 -16.351562 4.625 -16.867188 5.003906 -17.246094 C 5.382812 -17.625 5.898438 -17.8125 6.546875 -17.8125 L 8.445312 -17.8125 C 9.09375 -17.8125 9.609375 -17.625 9.988281 -17.246094 C 10.367188 -16.867188 10.554688 -16.351562 10.554688 -15.703125 L 10.554688 -13.273438 C 10.554688 -13.292969 10.546875 -13.324219 10.535156 -13.359375 C 10.511719 -13.4375 10.464844 -13.507812 10.402344 -13.570312 C 10.339844 -13.636719 10.265625 -13.679688 10.1875 -13.707031 C 10.152344 -13.71875 10.125 -13.726562 10.101562 -13.726562 L 12.886719 -13.726562 C 12.867188 -13.726562 12.839844 -13.71875 12.800781 -13.707031 C 12.722656 -13.679688 12.652344 -13.636719 12.589844 -13.570312 C 12.523438 -13.507812 12.480469 -13.4375 12.453125 -13.359375 C 12.441406 -13.324219 12.4375 -13.292969 12.4375 -13.273438 Z M 12.4375 -16.472656 "/></g></g><g style="fill:#b21a22;fill-opacity:1;"><g transform="translate(61.292798, 104.293028)"><path style="stroke:none" d="M 10.015625 -21.664062 L 12.738281 -21.664062 C 13.152344 -21.664062 13.511719 -21.515625 13.808594 -21.214844 C 14.109375 -20.917969 14.257812 -20.558594 14.257812 -20.144531 L 14.257812 -4.265625 C 14.257812 -2.628906 13.808594 -1.355469 12.910156 -0.445312 C 12.007812 0.46875 10.726562 0.925781 9.066406 0.925781 L 5.746094 0.925781 C 4.109375 0.925781 2.835938 0.46875 1.921875 -0.441406 C 1.011719 -1.351562 0.554688 -2.628906 0.554688 -4.265625 L 0.554688 -20.144531 C 0.554688 -20.558594 0.707031 -20.917969 1.003906 -21.214844 C 1.304688 -21.515625 1.660156 -21.664062 2.074219 -21.664062 L 4.917969 -21.664062 C 5.332031 -21.664062 5.6875 -21.515625 5.988281 -21.214844 C 6.285156 -20.917969 6.4375 -20.558594 6.4375 -20.144531 L 6.4375 -5.097656 C 6.4375 -5 6.445312 -4.921875 6.464844 -4.871094 C 6.464844 -4.859375 6.46875 -4.855469 6.472656 -4.851562 C 6.46875 -4.851562 6.464844 -4.855469 6.460938 -4.863281 C 6.457031 -4.867188 6.453125 -4.871094 6.449219 -4.871094 C 6.453125 -4.871094 6.460938 -4.867188 6.46875 -4.863281 C 6.523438 -4.84375 6.597656 -4.835938 6.695312 -4.835938 L 8.234375 -4.835938 C 8.332031 -4.835938 8.410156 -4.84375 8.460938 -4.863281 C 8.472656 -4.867188 8.476562 -4.871094 8.480469 -4.871094 C 8.480469 -4.871094 8.476562 -4.867188 8.46875 -4.863281 C 8.464844 -4.855469 8.460938 -4.851562 8.460938 -4.851562 C 8.464844 -4.855469 8.464844 -4.859375 8.46875 -4.871094 C 8.488281 -4.921875 8.496094 -5 8.496094 -5.097656 L 8.496094 -20.144531 C 8.496094 -20.558594 8.644531 -20.917969 8.945312 -21.214844 C 9.242188 -21.515625 9.601562 -21.664062 10.015625 -21.664062 Z M 10.015625 -19.8125 C 10.113281 -19.8125 10.191406 -19.84375 10.253906 -19.90625 C 10.316406 -19.96875 10.347656 -20.046875 10.347656 -20.144531 L 10.347656 -5.097656 C 10.347656 -4.445312 10.15625 -3.929688 9.78125 -3.550781 C 9.402344 -3.175781 8.886719 -2.984375 8.234375 -2.984375 L 6.695312 -2.984375 C 6.046875 -2.984375 5.53125 -3.175781 5.152344 -3.550781 C 4.773438 -3.929688 4.585938 -4.445312 4.585938 -5.097656 L 4.585938 -20.144531 C 4.585938 -20.046875 4.617188 -19.96875 4.679688 -19.90625 C 4.742188 -19.84375 4.820312 -19.8125 4.917969 -19.8125 L 2.074219 -19.8125 C 2.171875 -19.8125 2.25 -19.84375 2.3125 -19.90625 C 2.375 -19.96875 2.40625 -20.046875 2.40625 -20.144531 L 2.40625 -4.265625 C 2.40625 -3.140625 2.683594 -2.300781 3.230469 -1.75 C 3.78125 -1.199219 4.621094 -0.925781 5.746094 -0.925781 L 9.066406 -0.925781 C 10.210938 -0.925781 11.050781 -1.199219 11.589844 -1.746094 C 12.132812 -2.296875 12.40625 -3.136719 12.40625 -4.265625 L 12.40625 -20.144531 C 12.40625 -20.046875 12.4375 -19.96875 12.5 -19.90625 C 12.5625 -19.84375 12.640625 -19.8125 12.738281 -19.8125 Z M 10.015625 -19.8125 "/></g></g><g style="fill:#b21a22;fill-opacity:1;"><g transform="translate(76.101604, 104.293028)"><path style="stroke:none" d="M 14.257812 -16.472656 L 14.257812 -10.515625 C 14.257812 -8.457031 13.558594 -6.992188 12.164062 -6.117188 L 11.671875 -6.902344 L 12.574219 -7.121094 L 14.113281 -0.75 L 13.214844 -0.535156 L 14.105469 -0.78125 C 14.238281 -0.304688 14.175781 0.101562 13.914062 0.433594 C 13.660156 0.761719 13.289062 0.925781 12.800781 0.925781 L 9.894531 0.925781 C 9.535156 0.925781 9.226562 0.820312 8.972656 0.609375 C 8.722656 0.40625 8.5625 0.128906 8.488281 -0.222656 L 9.390625 -0.414062 L 8.492188 -0.195312 L 7.070312 -6.03125 L 7.96875 -6.25 L 7.96875 -5.324219 L 5.332031 -5.324219 L 5.332031 -6.25 L 6.257812 -6.25 L 6.257812 -0.472656 C 6.257812 -0.0585938 6.128906 0.277344 5.867188 0.535156 C 5.609375 0.796875 5.273438 0.925781 4.859375 0.925781 L 1.957031 0.925781 C 1.542969 0.925781 1.203125 0.796875 0.945312 0.535156 C 0.683594 0.277344 0.554688 -0.0585938 0.554688 -0.472656 L 0.554688 -20.265625 C 0.554688 -20.679688 0.683594 -21.015625 0.945312 -21.273438 C 1.203125 -21.535156 1.542969 -21.664062 1.957031 -21.664062 L 9.066406 -21.664062 C 10.722656 -21.664062 12.003906 -21.214844 12.90625 -20.3125 C 13.808594 -19.410156 14.257812 -18.128906 14.257812 -16.472656 Z M 12.40625 -16.472656 C 12.40625 -17.621094 12.136719 -18.460938 11.597656 -19.003906 C 11.054688 -19.542969 10.210938 -19.8125 9.066406 -19.8125 L 1.957031 -19.8125 C 1.976562 -19.8125 2.003906 -19.820312 2.039062 -19.832031 C 2.121094 -19.855469 2.191406 -19.902344 2.253906 -19.964844 C 2.316406 -20.027344 2.363281 -20.101562 2.390625 -20.179688 C 2.402344 -20.214844 2.40625 -20.242188 2.40625 -20.265625 L 2.40625 -0.472656 C 2.40625 -0.496094 2.402344 -0.523438 2.390625 -0.558594 C 2.363281 -0.636719 2.316406 -0.710938 2.253906 -0.773438 C 2.191406 -0.835938 2.121094 -0.882812 2.039062 -0.90625 C 2.003906 -0.921875 1.976562 -0.925781 1.957031 -0.925781 L 4.859375 -0.925781 C 4.835938 -0.925781 4.808594 -0.921875 4.773438 -0.90625 C 4.695312 -0.882812 4.625 -0.835938 4.558594 -0.773438 C 4.496094 -0.710938 4.449219 -0.636719 4.425781 -0.558594 C 4.414062 -0.523438 4.40625 -0.496094 4.40625 -0.472656 L 4.40625 -7.175781 L 8.695312 -7.175781 L 10.292969 -0.621094 L 10.296875 -0.609375 C 10.28125 -0.679688 10.234375 -0.75 10.152344 -0.820312 C 10.0625 -0.890625 9.980469 -0.925781 9.894531 -0.925781 L 12.800781 -0.925781 C 12.78125 -0.921875 12.757812 -0.917969 12.734375 -0.910156 C 12.625 -0.871094 12.53125 -0.800781 12.453125 -0.703125 C 12.375 -0.597656 12.328125 -0.488281 12.320312 -0.367188 C 12.316406 -0.328125 12.316406 -0.300781 12.320312 -0.285156 L 12.316406 -0.300781 L 10.617188 -7.335938 L 11.183594 -7.6875 C 12 -8.199219 12.40625 -9.140625 12.40625 -10.515625 Z M 5.332031 -11 L 8.296875 -11 C 8.394531 -11 8.46875 -11.007812 8.519531 -11.027344 C 8.53125 -11.027344 8.539062 -11.03125 8.542969 -11.035156 C 8.539062 -11.03125 8.535156 -11.027344 8.53125 -11.023438 C 8.523438 -11.019531 8.523438 -11.015625 8.519531 -11.011719 C 8.523438 -11.015625 8.523438 -11.023438 8.527344 -11.03125 C 8.546875 -11.085938 8.554688 -11.160156 8.554688 -11.257812 L 8.554688 -15.730469 C 8.554688 -15.828125 8.546875 -15.90625 8.527344 -15.957031 C 8.523438 -15.96875 8.523438 -15.972656 8.519531 -15.976562 C 8.523438 -15.972656 8.523438 -15.96875 8.53125 -15.964844 C 8.535156 -15.960938 8.539062 -15.957031 8.542969 -15.957031 C 8.539062 -15.957031 8.53125 -15.960938 8.519531 -15.964844 C 8.46875 -15.980469 8.394531 -15.992188 8.296875 -15.992188 L 5.332031 -15.992188 L 5.332031 -16.917969 L 6.257812 -16.917969 L 6.257812 -10.074219 L 5.332031 -10.074219 Z M 4.40625 -9.148438 L 4.40625 -17.84375 L 8.296875 -17.84375 C 8.945312 -17.84375 9.460938 -17.652344 9.839844 -17.277344 C 10.21875 -16.898438 10.40625 -16.382812 10.40625 -15.730469 L 10.40625 -11.257812 C 10.40625 -10.609375 10.21875 -10.09375 9.839844 -9.714844 C 9.460938 -9.335938 8.945312 -9.148438 8.296875 -9.148438 Z M 4.40625 -9.148438 "/></g></g><g style="fill:#b21a22;fill-opacity:1;"><g transform="translate(90.91041, 104.293028)"><path style="stroke:none" d="M 1.957031 -0.925781 L 5.035156 -0.925781 C 5.015625 -0.925781 4.988281 -0.921875 4.953125 -0.90625 C 4.871094 -0.882812 4.800781 -0.835938 4.738281 -0.773438 C 4.675781 -0.710938 4.628906 -0.636719 4.601562 -0.558594 C 4.589844 -0.523438 4.585938 -0.496094 4.585938 -0.472656 L 4.585938 -20.265625 C 4.585938 -20.242188 4.589844 -20.214844 4.601562 -20.179688 C 4.628906 -20.101562 4.675781 -20.027344 4.738281 -19.964844 C 4.800781 -19.902344 4.871094 -19.855469 4.953125 -19.832031 C 4.988281 -19.820312 5.015625 -19.8125 5.035156 -19.8125 L 1.957031 -19.8125 C 1.976562 -19.8125 2.003906 -19.820312 2.039062 -19.832031 C 2.121094 -19.855469 2.191406 -19.902344 2.253906 -19.964844 C 2.316406 -20.027344 2.363281 -20.101562 2.390625 -20.179688 C 2.402344 -20.214844 2.40625 -20.242188 2.40625 -20.265625 L 2.40625 -0.472656 C 2.40625 -0.496094 2.402344 -0.523438 2.390625 -0.558594 C 2.363281 -0.636719 2.316406 -0.710938 2.253906 -0.773438 C 2.191406 -0.835938 2.121094 -0.882812 2.039062 -0.90625 C 2.003906 -0.921875 1.976562 -0.925781 1.957031 -0.925781 Z M 1.957031 0.925781 C 1.542969 0.925781 1.203125 0.796875 0.945312 0.535156 C 0.683594 0.277344 0.554688 -0.0585938 0.554688 -0.472656 L 0.554688 -20.265625 C 0.554688 -20.679688 0.683594 -21.015625 0.945312 -21.273438 C 1.203125 -21.535156 1.542969 -21.664062 1.957031 -21.664062 L 5.035156 -21.664062 C 5.449219 -21.664062 5.785156 -21.535156 6.046875 -21.273438 C 6.304688 -21.015625 6.4375 -20.679688 6.4375 -20.265625 L 6.4375 -0.472656 C 6.4375 -0.0585938 6.304688 0.277344 6.046875 0.535156 C 5.785156 0.796875 5.449219 0.925781 5.035156 0.925781 Z M 1.957031 0.925781 "/></g></g><g style="fill:#b21a22;fill-opacity:1;"><g transform="translate(97.900162, 104.293028)"><path style="stroke:none" d="M 12.265625 -19.8125 L 1.363281 -19.8125 C 1.382812 -19.8125 1.414062 -19.820312 1.449219 -19.832031 C 1.527344 -19.855469 1.597656 -19.902344 1.660156 -19.964844 C 1.726562 -20.027344 1.769531 -20.101562 1.796875 -20.179688 C 1.808594 -20.214844 1.816406 -20.242188 1.816406 -20.265625 L 1.816406 -17.300781 C 1.816406 -17.324219 1.808594 -17.351562 1.796875 -17.386719 C 1.769531 -17.464844 1.726562 -17.539062 1.660156 -17.601562 C 1.597656 -17.664062 1.527344 -17.710938 1.449219 -17.734375 C 1.414062 -17.75 1.382812 -17.753906 1.363281 -17.753906 L 5.726562 -17.753906 L 5.726562 -0.472656 C 5.726562 -0.496094 5.71875 -0.523438 5.707031 -0.558594 C 5.679688 -0.636719 5.636719 -0.710938 5.574219 -0.773438 C 5.507812 -0.835938 5.4375 -0.882812 5.359375 -0.90625 C 5.324219 -0.921875 5.292969 -0.925781 5.273438 -0.925781 L 8.355469 -0.925781 C 8.332031 -0.925781 8.304688 -0.921875 8.269531 -0.90625 C 8.191406 -0.882812 8.121094 -0.835938 8.054688 -0.773438 C 7.992188 -0.710938 7.945312 -0.636719 7.921875 -0.558594 C 7.910156 -0.523438 7.902344 -0.496094 7.902344 -0.472656 L 7.902344 -17.753906 L 12.265625 -17.753906 C 12.246094 -17.753906 12.214844 -17.75 12.179688 -17.734375 C 12.101562 -17.710938 12.03125 -17.664062 11.964844 -17.601562 C 11.902344 -17.539062 11.859375 -17.464844 11.832031 -17.386719 C 11.820312 -17.351562 11.8125 -17.324219 11.8125 -17.300781 L 11.8125 -20.265625 C 11.8125 -20.242188 11.820312 -20.214844 11.832031 -20.179688 C 11.859375 -20.101562 11.902344 -20.027344 11.964844 -19.964844 C 12.03125 -19.902344 12.101562 -19.855469 12.179688 -19.832031 C 12.214844 -19.820312 12.246094 -19.8125 12.265625 -19.8125 Z M 12.265625 -21.664062 C 12.679688 -21.664062 13.015625 -21.535156 13.277344 -21.273438 C 13.535156 -21.015625 13.664062 -20.679688 13.664062 -20.265625 L 13.664062 -17.300781 C 13.664062 -16.886719 13.535156 -16.550781 13.277344 -16.292969 C 13.015625 -16.03125 12.679688 -15.902344 12.265625 -15.902344 L 8.828125 -15.902344 L 8.828125 -16.828125 L 9.753906 -16.828125 L 9.753906 -0.472656 C 9.753906 -0.0585938 9.625 0.277344 9.363281 0.535156 C 9.105469 0.796875 8.769531 0.925781 8.355469 0.925781 L 5.273438 0.925781 C 4.859375 0.925781 4.523438 0.796875 4.261719 0.535156 C 4.003906 0.277344 3.875 -0.0585938 3.875 -0.472656 L 3.875 -16.828125 L 4.800781 -16.828125 L 4.800781 -15.902344 L 1.363281 -15.902344 C 0.949219 -15.902344 0.613281 -16.03125 0.351562 -16.292969 C 0.09375 -16.550781 -0.0351562 -16.886719 -0.0351562 -17.300781 L -0.0351562 -20.265625 C -0.0351562 -20.679688 0.09375 -21.015625 0.351562 -21.273438 C 0.613281 -21.535156 0.949219 -21.664062 1.363281 -21.664062 Z M 12.265625 -21.664062 "/></g></g><g style="fill:#b21a22;fill-opacity:1;"><g transform="translate(111.524265, 104.293028)"><path style="stroke:none" d="M 11.792969 -21.664062 L 14.753906 -21.664062 C 15.277344 -21.664062 15.679688 -21.480469 15.960938 -21.109375 C 16.140625 -20.878906 16.226562 -20.621094 16.226562 -20.328125 C 16.226562 -20.101562 16.171875 -19.871094 16.054688 -19.644531 L 15.226562 -20.058594 L 16.074219 -19.683594 L 10.652344 -7.390625 L 9.804688 -7.761719 L 10.734375 -7.761719 L 10.734375 -0.59375 C 10.734375 -0.140625 10.59375 0.226562 10.3125 0.507812 C 10.035156 0.785156 9.667969 0.925781 9.214844 0.925781 L 6.371094 0.925781 C 5.917969 0.925781 5.550781 0.785156 5.269531 0.507812 C 4.992188 0.226562 4.851562 -0.140625 4.851562 -0.59375 L 4.851562 -7.761719 L 5.777344 -7.761719 L 4.929688 -7.390625 L -0.5 -19.699219 L -0.503906 -19.714844 C -0.707031 -20.21875 -0.667969 -20.671875 -0.390625 -21.074219 C -0.117188 -21.46875 0.289062 -21.664062 0.828125 -21.664062 L 3.792969 -21.664062 C 4.152344 -21.664062 4.472656 -21.570312 4.742188 -21.378906 C 5.015625 -21.191406 5.214844 -20.929688 5.339844 -20.589844 L 4.472656 -20.265625 L 5.324219 -20.632812 L 8.640625 -13.019531 L 7.792969 -12.652344 L 6.941406 -13.019531 L 10.261719 -20.632812 L 11.109375 -20.265625 L 10.242188 -20.589844 C 10.371094 -20.929688 10.570312 -21.191406 10.839844 -21.378906 C 11.113281 -21.570312 11.429688 -21.664062 11.792969 -21.664062 Z M 11.792969 -19.8125 C 11.816406 -19.8125 11.851562 -19.828125 11.898438 -19.859375 C 11.941406 -19.890625 11.96875 -19.917969 11.976562 -19.941406 L 11.96875 -19.917969 L 7.792969 -10.332031 L 3.613281 -19.917969 L 3.605469 -19.941406 C 3.613281 -19.917969 3.640625 -19.890625 3.6875 -19.859375 C 3.730469 -19.828125 3.765625 -19.8125 3.792969 -19.8125 L 0.828125 -19.8125 C 0.84375 -19.8125 0.871094 -19.820312 0.910156 -19.835938 C 1 -19.875 1.074219 -19.933594 1.132812 -20.019531 C 1.191406 -20.105469 1.222656 -20.199219 1.226562 -20.300781 C 1.226562 -20.347656 1.222656 -20.378906 1.214844 -20.402344 L 0.355469 -20.058594 L 1.203125 -20.429688 L 6.703125 -7.957031 L 6.703125 -0.59375 C 6.703125 -0.589844 6.703125 -0.585938 6.703125 -0.582031 C 6.703125 -0.582031 6.703125 -0.582031 6.703125 -0.585938 C 6.703125 -0.597656 6.699219 -0.609375 6.691406 -0.625 C 6.671875 -0.691406 6.632812 -0.75 6.582031 -0.804688 C 6.527344 -0.855469 6.46875 -0.894531 6.402344 -0.914062 C 6.386719 -0.921875 6.375 -0.925781 6.363281 -0.925781 C 6.359375 -0.925781 6.359375 -0.925781 6.359375 -0.925781 C 6.363281 -0.925781 6.367188 -0.925781 6.371094 -0.925781 L 9.214844 -0.925781 C 9.21875 -0.925781 9.222656 -0.925781 9.222656 -0.925781 C 9.210938 -0.925781 9.195312 -0.921875 9.179688 -0.914062 C 9.117188 -0.894531 9.058594 -0.855469 9.003906 -0.804688 C 8.949219 -0.75 8.914062 -0.691406 8.890625 -0.625 C 8.886719 -0.609375 8.882812 -0.597656 8.878906 -0.585938 C 8.878906 -0.582031 8.878906 -0.582031 8.878906 -0.582031 C 8.878906 -0.585938 8.878906 -0.589844 8.878906 -0.59375 L 8.878906 -7.957031 L 14.390625 -20.453125 L 14.398438 -20.472656 C 14.382812 -20.441406 14.375 -20.390625 14.375 -20.328125 C 14.375 -20.199219 14.414062 -20.085938 14.496094 -19.980469 C 14.546875 -19.914062 14.609375 -19.863281 14.6875 -19.832031 C 14.71875 -19.820312 14.742188 -19.8125 14.753906 -19.8125 Z M 11.792969 -19.8125 "/></g></g><g style="fill:#060705;fill-opacity:1;"><g transform="translate(21.208103, 62.98799)"><path style="stroke:none" d="M 15.46875 0 L 12.59375 0 C 12.332031 0 12.171875 -0.140625 12.109375 -0.421875 L 11.171875 -4.140625 L 5.59375 -4.140625 L 4.6875 -0.421875 C 4.625 -0.140625 4.460938 0 4.203125 0 L 1.296875 0 C 0.941406 0 0.816406 -0.164062 0.921875 -0.5 L 5.84375 -20.328125 C 5.894531 -20.597656 6.0625 -20.734375 6.34375 -20.734375 L 10.453125 -20.734375 C 10.734375 -20.734375 10.90625 -20.597656 10.96875 -20.328125 L 15.875 -0.5 C 15.976562 -0.164062 15.84375 0 15.46875 0 Z M 10.25 -7.578125 L 8.390625 -15.640625 L 6.515625 -7.578125 Z M 10.25 -7.578125 "/></g></g><g style="fill:#060705;fill-opacity:1;"><g transform="translate(38.001292, 62.98799)"><path style="stroke:none" d="M 13.359375 -16.46875 L 13.359375 -13.265625 C 13.359375 -12.953125 13.203125 -12.796875 12.890625 -12.796875 L 10.109375 -12.796875 C 9.785156 -12.796875 9.625 -12.953125 9.625 -13.265625 L 9.625 -15.703125 C 9.625 -16.492188 9.226562 -16.890625 8.4375 -16.890625 L 6.546875 -16.890625 C 5.753906 -16.890625 5.359375 -16.492188 5.359375 -15.703125 L 5.359375 -4.953125 C 5.359375 -4.160156 5.753906 -3.765625 6.546875 -3.765625 L 8.4375 -3.765625 C 9.226562 -3.765625 9.625 -4.160156 9.625 -4.953125 L 9.625 -7.46875 C 9.625 -7.78125 9.785156 -7.9375 10.109375 -7.9375 L 12.890625 -7.9375 C 13.203125 -7.9375 13.359375 -7.78125 13.359375 -7.46875 L 13.359375 -4.265625 C 13.359375 -2.878906 12.992188 -1.820312 12.265625 -1.09375 C 11.535156 -0.363281 10.476562 0 9.09375 0 L 5.78125 0 C 4.394531 0 3.332031 -0.363281 2.59375 -1.09375 C 1.851562 -1.820312 1.484375 -2.878906 1.484375 -4.265625 L 1.484375 -16.46875 C 1.484375 -17.875 1.851562 -18.9375 2.59375 -19.65625 C 3.332031 -20.375 4.394531 -20.734375 5.78125 -20.734375 L 9.09375 -20.734375 C 10.476562 -20.734375 11.535156 -20.375 12.265625 -19.65625 C 12.992188 -18.9375 13.359375 -17.875 13.359375 -16.46875 Z M 13.359375 -16.46875 "/></g></g><g style="fill:#060705;fill-opacity:1;"><g transform="translate(52.839721, 62.98799)"><path style="stroke:none" d="M 12.265625 -20.734375 L 1.359375 -20.734375 C 1.046875 -20.734375 0.890625 -20.578125 0.890625 -20.265625 L 0.890625 -17.296875 C 0.890625 -16.984375 1.046875 -16.828125 1.359375 -16.828125 L 4.796875 -16.828125 L 4.796875 -0.46875 C 4.796875 -0.15625 4.953125 0 5.265625 0 L 8.359375 0 C 8.671875 0 8.828125 -0.15625 8.828125 -0.46875 L 8.828125 -16.828125 L 12.265625 -16.828125 C 12.578125 -16.828125 12.734375 -16.984375 12.734375 -17.296875 L 12.734375 -20.265625 C 12.734375 -20.578125 12.578125 -20.734375 12.265625 -20.734375 Z M 12.265625 -20.734375 "/></g></g><g style="fill:#060705;fill-opacity:1;"><g transform="translate(66.463824, 62.98799)"><path style="stroke:none" d="M 1.953125 0 L 5.03125 0 C 5.351562 0 5.515625 -0.15625 5.515625 -0.46875 L 5.515625 -20.265625 C 5.515625 -20.578125 5.351562 -20.734375 5.03125 -20.734375 L 1.953125 -20.734375 C 1.640625 -20.734375 1.484375 -20.578125 1.484375 -20.265625 L 1.484375 -0.46875 C 1.484375 -0.15625 1.640625 0 1.953125 0 Z M 1.953125 0 "/></g></g><g style="fill:#060705;fill-opacity:1;"><g transform="translate(73.453576, 62.98799)"><path style="stroke:none" d="M 11.34375 -20.734375 L 14.046875 -20.734375 C 14.492188 -20.734375 14.671875 -20.515625 14.578125 -20.078125 L 9.859375 -0.53125 C 9.785156 -0.175781 9.570312 0 9.21875 0 L 6.25 0 C 5.914062 0 5.695312 -0.175781 5.59375 -0.53125 L 0.921875 -20.078125 C 0.816406 -20.515625 0.992188 -20.734375 1.453125 -20.734375 L 4.140625 -20.734375 C 4.503906 -20.734375 4.722656 -20.554688 4.796875 -20.203125 L 7.734375 -6.8125 L 10.6875 -20.203125 C 10.789062 -20.554688 11.007812 -20.734375 11.34375 -20.734375 Z M 11.34375 -20.734375 "/></g></g><g style="fill:#060705;fill-opacity:1;"><g transform="translate(88.943584, 62.98799)"><path style="stroke:none" d="M 13.296875 -20.265625 L 13.296875 -17.296875 C 13.296875 -16.960938 13.140625 -16.796875 12.828125 -16.796875 L 5.515625 -16.796875 L 5.515625 -12.234375 L 11.078125 -12.234375 C 11.390625 -12.234375 11.546875 -12.066406 11.546875 -11.734375 L 11.546875 -8.796875 C 11.546875 -8.460938 11.390625 -8.296875 11.078125 -8.296875 L 5.515625 -8.296875 L 5.515625 -3.90625 L 12.828125 -3.90625 C 13.140625 -3.90625 13.296875 -3.75 13.296875 -3.4375 L 13.296875 -0.46875 C 13.296875 -0.15625 13.140625 0 12.828125 0 L 1.921875 0 C 1.628906 0 1.484375 -0.15625 1.484375 -0.46875 L 1.484375 -20.265625 C 1.484375 -20.578125 1.628906 -20.734375 1.921875 -20.734375 L 12.828125 -20.734375 C 13.140625 -20.734375 13.296875 -20.578125 13.296875 -20.265625 Z M 13.296875 -20.265625 "/></g></g><g style="fill:#060705;fill-opacity:1;"><g transform="translate(103.722767, 62.98799)"><path style="stroke:none" d="M 0 3.96875 L 0 1.25 C 0 0.851562 0.195312 0.65625 0.59375 0.65625 L 18.453125 0.65625 C 18.847656 0.65625 19.046875 0.851562 19.046875 1.25 L 19.046875 3.96875 C 19.046875 4.363281 18.847656 4.5625 18.453125 4.5625 L 0.59375 4.5625 C 0.195312 4.5625 0 4.363281 0 3.96875 Z M 0 3.96875 "/></g></g><g style="fill:#060705;fill-opacity:1;"><g transform="translate(16.86638, 104.293028)"><path style="stroke:none" d="M 5.75 -20.734375 L 9.0625 -20.734375 C 10.46875 -20.734375 11.53125 -20.375 12.25 -19.65625 C 12.96875 -18.9375 13.328125 -17.875 13.328125 -16.46875 L 13.328125 -14.515625 C 13.328125 -14.203125 13.171875 -14.046875 12.859375 -14.046875 L 9.859375 -14.046875 C 9.546875 -14.046875 9.390625 -14.203125 9.390625 -14.515625 L 9.390625 -15.765625 C 9.390625 -16.554688 8.992188 -16.953125 8.203125 -16.953125 L 6.578125 -16.953125 C 5.785156 -16.953125 5.390625 -16.554688 5.390625 -15.765625 L 5.390625 -13.25 L 12.5625 -10.9375 C 13.070312 -10.757812 13.328125 -10.390625 13.328125 -9.828125 L 13.328125 -4.265625 C 13.328125 -2.878906 12.96875 -1.820312 12.25 -1.09375 C 11.53125 -0.363281 10.46875 0 9.0625 0 L 5.75 0 C 4.363281 0 3.304688 -0.363281 2.578125 -1.09375 C 1.847656 -1.820312 1.484375 -2.878906 1.484375 -4.265625 L 1.484375 -6.1875 C 1.484375 -6.507812 1.640625 -6.671875 1.953125 -6.671875 L 4.953125 -6.671875 C 5.265625 -6.671875 5.421875 -6.507812 5.421875 -6.1875 L 5.421875 -4.953125 C 5.421875 -4.160156 5.816406 -3.765625 6.609375 -3.765625 L 8.203125 -3.765625 C 8.992188 -3.765625 9.390625 -4.160156 9.390625 -4.953125 L 9.390625 -7.9375 L 2.28125 -10.25 C 1.75 -10.425781 1.484375 -10.789062 1.484375 -11.34375 L 1.484375 -16.46875 C 1.484375 -17.875 1.847656 -18.9375 2.578125 -19.65625 C 3.304688 -20.375 4.363281 -20.734375 5.75 -20.734375 Z M 5.75 -20.734375 "/></g></g><g style="fill:#060705;fill-opacity:1;"><g transform="translate(31.675186, 104.293028)"><path style="stroke:none" d="M 13.296875 -20.265625 L 13.296875 -17.296875 C 13.296875 -16.960938 13.140625 -16.796875 12.828125 -16.796875 L 5.515625 -16.796875 L 5.515625 -12.234375 L 11.078125 -12.234375 C 11.390625 -12.234375 11.546875 -12.066406 11.546875 -11.734375 L 11.546875 -8.796875 C 11.546875 -8.460938 11.390625 -8.296875 11.078125 -8.296875 L 5.515625 -8.296875 L 5.515625 -3.90625 L 12.828125 -3.90625 C 13.140625 -3.90625 13.296875 -3.75 13.296875 -3.4375 L 13.296875 -0.46875 C 13.296875 -0.15625 13.140625 0 12.828125 0 L 1.921875 0 C 1.628906 0 1.484375 -0.15625 1.484375 -0.46875 L 1.484375 -20.265625 C 1.484375 -20.578125 1.628906 -20.734375 1.921875 -20.734375 L 12.828125 -20.734375 C 13.140625 -20.734375 13.296875 -20.578125 13.296875 -20.265625 Z M 13.296875 -20.265625 "/></g></g><g style="fill:#060705;fill-opacity:1;"><g transform="translate(46.45437, 104.293028)"><path style="stroke:none" d="M 13.359375 -16.46875 L 13.359375 -13.265625 C 13.359375 -12.953125 13.203125 -12.796875 12.890625 -12.796875 L 10.109375 -12.796875 C 9.785156 -12.796875 9.625 -12.953125 9.625 -13.265625 L 9.625 -15.703125 C 9.625 -16.492188 9.226562 -16.890625 8.4375 -16.890625 L 6.546875 -16.890625 C 5.753906 -16.890625 5.359375 -16.492188 5.359375 -15.703125 L 5.359375 -4.953125 C 5.359375 -4.160156 5.753906 -3.765625 6.546875 -3.765625 L 8.4375 -3.765625 C 9.226562 -3.765625 9.625 -4.160156 9.625 -4.953125 L 9.625 -7.46875 C 9.625 -7.78125 9.785156 -7.9375 10.109375 -7.9375 L 12.890625 -7.9375 C 13.203125 -7.9375 13.359375 -7.78125 13.359375 -7.46875 L 13.359375 -4.265625 C 13.359375 -2.878906 12.992188 -1.820312 12.265625 -1.09375 C 11.535156 -0.363281 10.476562 0 9.09375 0 L 5.78125 0 C 4.394531 0 3.332031 -0.363281 2.59375 -1.09375 C 1.851562 -1.820312 1.484375 -2.878906 1.484375 -4.265625 L 1.484375 -16.46875 C 1.484375 -17.875 1.851562 -18.9375 2.59375 -19.65625 C 3.332031 -20.375 4.394531 -20.734375 5.78125 -20.734375 L 9.09375 -20.734375 C 10.476562 -20.734375 11.535156 -20.375 12.265625 -19.65625 C 12.992188 -18.9375 13.359375 -17.875 13.359375 -16.46875 Z M 13.359375 -16.46875 "/></g></g><g style="fill:#060705;fill-opacity:1;"><g transform="translate(61.292798, 104.293028)"><path style="stroke:none" d="M 10.015625 -20.734375 L 12.734375 -20.734375 C 12.890625 -20.734375 13.023438 -20.671875 13.140625 -20.546875 C 13.265625 -20.429688 13.328125 -20.296875 13.328125 -20.140625 L 13.328125 -4.265625 C 13.328125 -2.878906 12.96875 -1.820312 12.25 -1.09375 C 11.53125 -0.363281 10.46875 0 9.0625 0 L 5.75 0 C 4.363281 0 3.304688 -0.363281 2.578125 -1.09375 C 1.847656 -1.820312 1.484375 -2.878906 1.484375 -4.265625 L 1.484375 -20.140625 C 1.484375 -20.296875 1.539062 -20.429688 1.65625 -20.546875 C 1.78125 -20.671875 1.921875 -20.734375 2.078125 -20.734375 L 4.921875 -20.734375 C 5.078125 -20.734375 5.210938 -20.671875 5.328125 -20.546875 C 5.453125 -20.429688 5.515625 -20.296875 5.515625 -20.140625 L 5.515625 -5.09375 C 5.515625 -4.300781 5.90625 -3.90625 6.6875 -3.90625 L 8.234375 -3.90625 C 9.023438 -3.90625 9.421875 -4.300781 9.421875 -5.09375 L 9.421875 -20.140625 C 9.421875 -20.296875 9.476562 -20.429688 9.59375 -20.546875 C 9.71875 -20.671875 9.859375 -20.734375 10.015625 -20.734375 Z M 10.015625 -20.734375 "/></g></g><g style="fill:#060705;fill-opacity:1;"><g transform="translate(76.101604, 104.293028)"><path style="stroke:none" d="M 13.328125 -16.46875 L 13.328125 -10.515625 C 13.328125 -8.796875 12.773438 -7.59375 11.671875 -6.90625 L 13.21875 -0.53125 C 13.3125 -0.175781 13.171875 0 12.796875 0 L 9.890625 0 C 9.617188 0 9.453125 -0.140625 9.390625 -0.421875 L 7.96875 -6.25 L 5.328125 -6.25 L 5.328125 -0.46875 C 5.328125 -0.15625 5.171875 0 4.859375 0 L 1.953125 0 C 1.640625 0 1.484375 -0.15625 1.484375 -0.46875 L 1.484375 -20.265625 C 1.484375 -20.578125 1.640625 -20.734375 1.953125 -20.734375 L 9.0625 -20.734375 C 10.46875 -20.734375 11.53125 -20.375 12.25 -19.65625 C 12.96875 -18.9375 13.328125 -17.875 13.328125 -16.46875 Z M 5.328125 -10.078125 L 8.296875 -10.078125 C 9.085938 -10.078125 9.484375 -10.46875 9.484375 -11.25 L 9.484375 -15.734375 C 9.484375 -16.523438 9.085938 -16.921875 8.296875 -16.921875 L 5.328125 -16.921875 Z M 5.328125 -10.078125 "/></g></g><g style="fill:#060705;fill-opacity:1;"><g transform="translate(90.91041, 104.293028)"><path style="stroke:none" d="M 1.953125 0 L 5.03125 0 C 5.351562 0 5.515625 -0.15625 5.515625 -0.46875 L 5.515625 -20.265625 C 5.515625 -20.578125 5.351562 -20.734375 5.03125 -20.734375 L 1.953125 -20.734375 C 1.640625 -20.734375 1.484375 -20.578125 1.484375 -20.265625 L 1.484375 -0.46875 C 1.484375 -0.15625 1.640625 0 1.953125 0 Z M 1.953125 0 "/></g></g><g style="fill:#060705;fill-opacity:1;"><g transform="translate(97.900162, 104.293028)"><path style="stroke:none" d="M 12.265625 -20.734375 L 1.359375 -20.734375 C 1.046875 -20.734375 0.890625 -20.578125 0.890625 -20.265625 L 0.890625 -17.296875 C 0.890625 -16.984375 1.046875 -16.828125 1.359375 -16.828125 L 4.796875 -16.828125 L 4.796875 -0.46875 C 4.796875 -0.15625 4.953125 0 5.265625 0 L 8.359375 0 C 8.671875 0 8.828125 -0.15625 8.828125 -0.46875 L 8.828125 -16.828125 L 12.265625 -16.828125 C 12.578125 -16.828125 12.734375 -16.984375 12.734375 -17.296875 L 12.734375 -20.265625 C 12.734375 -20.578125 12.578125 -20.734375 12.265625 -20.734375 Z M 12.265625 -20.734375 "/></g></g><g style="fill:#060705;fill-opacity:1;"><g transform="translate(111.524265, 104.293028)"><path style="stroke:none" d="M 11.796875 -20.734375 L 14.75 -20.734375 C 14.96875 -20.734375 15.125 -20.671875 15.21875 -20.546875 C 15.320312 -20.421875 15.328125 -20.257812 15.234375 -20.0625 L 9.8125 -7.765625 L 9.8125 -0.59375 C 9.8125 -0.195312 9.613281 0 9.21875 0 L 6.375 0 C 5.976562 0 5.78125 -0.195312 5.78125 -0.59375 L 5.78125 -7.765625 L 0.359375 -20.0625 C 0.273438 -20.257812 0.273438 -20.421875 0.359375 -20.546875 C 0.453125 -20.671875 0.609375 -20.734375 0.828125 -20.734375 L 3.796875 -20.734375 C 4.128906 -20.734375 4.351562 -20.578125 4.46875 -20.265625 L 7.796875 -12.65625 L 11.109375 -20.265625 C 11.222656 -20.578125 11.453125 -20.734375 11.796875 -20.734375 Z M 11.796875 -20.734375 "/></g></g></g></svg>