<svg xmlns="http://www.w3.org/2000/svg" xmlns:xlink="http://www.w3.org/1999/xlink" width="500" zoomAndPan="magnify" viewBox="0 0 375 374.999991" height="500" preserveAspectRatio="xMidYMid meet" version="1.2"><defs><clipPath id="6915b60887"><path d="M 25 0 L 350 0 L 350 375 L 25 375 Z M 25 0 "/></clipPath><clipPath id="4c2369ed3f"><path d="M -55.878906 142.882812 L 268.328125 -46.476562 L 431 232.042969 L 106.789062 421.402344 Z M -55.878906 142.882812 "/></clipPath><clipPath id="5df0421e24"><path d="M 349.546875 92.851562 L 349.859375 279.433594 L 187.8125 374.078125 L 25.453125 282.140625 L 25.140625 95.5625 L 187.1875 0.917969 Z M 349.546875 92.851562 "/></clipPath><clipPath id="343a5f1ca7"><path d="M 55.238281 35.632812 L 319.726562 35.632812 L 319.726562 339 L 55.238281 339 Z M 55.238281 35.632812 "/></clipPath></defs><g id="f601ab05ca"><rect x="0" width="375" y="0" height="374.999991" style="fill:#ffffff;fill-opacity:1;stroke:none;"/><rect x="0" width="375" y="0" height="374.999991" style="fill:#000000;fill-opacity:1;stroke:none;"/><g clip-rule="nonzero" clip-path="url(#6915b60887)"><g clip-rule="nonzero" clip-path="url(#4c2369ed3f)"><g clip-rule="nonzero" clip-path="url(#5df0421e24)"><path style=" stroke:none;fill-rule:nonzero;fill:#65b30e;fill-opacity:1;" d="M -55.878906 142.882812 L 268.332031 -46.476562 L 431 232.042969 L 106.789062 421.402344 Z M -55.878906 142.882812 "/></g></g></g><path style=" stroke:none;fill-rule:nonzero;fill:#87ff00;fill-opacity:1;" d="M 134.582031 135.703125 L 134.414062 135.535156 L 97.035156 172.914062 L 187.792969 263.503906 L 225.175781 226.296875 L 278.546875 172.914062 L 241.167969 135.535156 L 241.167969 135.363281 L 134.417969 135.363281 Z M 134.582031 135.703125 "/><g clip-rule="nonzero" clip-path="url(#343a5f1ca7)"><path style=" stroke:none;fill-rule:nonzero;fill:#87ff00;fill-opacity:1;" d="M 187.453125 35.851562 L 55.269531 111.625 L 55.273438 263.175781 L 187.457031 338.949219 L 319.640625 263.175781 L 319.640625 111.625 L 187.457031 35.855469 Z M 294.375 248.683594 L 187.453125 310.308594 L 80.527344 248.683594 L 80.53125 125.765625 L 187.457031 64.136719 L 294.378906 125.765625 L 294.378906 248.683594 Z M 294.375 248.683594 "/></g><g style="fill:#b21a22;fill-opacity:1;"><g transform="translate(55.229436, 164.03121)"><path style="stroke:none" d="M 40.273438 2.410156 L 32.789062 2.410156 C 31.851562 2.410156 31.050781 2.121094 30.390625 1.542969 C 29.785156 1.011719 29.386719 0.308594 29.199219 -0.574219 L 31.554688 -1.082031 L 29.21875 -0.488281 L 26.75 -10.207031 L 29.085938 -10.800781 L 29.085938 -8.390625 L 14.582031 -8.390625 L 14.582031 -10.800781 L 16.921875 -10.226562 L 14.53125 -0.503906 L 12.191406 -1.082031 L 14.546875 -0.574219 C 14.359375 0.308594 13.960938 1.011719 13.355469 1.542969 C 12.695312 2.121094 11.894531 2.410156 10.957031 2.410156 L 3.394531 2.410156 C 2.136719 2.410156 1.183594 1.988281 0.535156 1.136719 C -0.128906 0.269531 -0.28125 -0.773438 0.078125 -1.992188 L 2.390625 -1.3125 L 0.0507812 -1.890625 L 12.859375 -53.507812 L 15.199219 -52.925781 L 12.839844 -53.433594 C 13.035156 -54.339844 13.457031 -55.0625 14.109375 -55.597656 C 14.773438 -56.144531 15.574219 -56.417969 16.511719 -56.417969 L 27.234375 -56.417969 C 28.171875 -56.417969 28.972656 -56.144531 29.636719 -55.597656 C 30.289062 -55.0625 30.710938 -54.339844 30.90625 -53.433594 L 28.546875 -52.925781 L 30.886719 -53.507812 L 43.695312 -1.890625 L 41.355469 -1.3125 L 43.667969 -1.992188 C 44.035156 -0.738281 43.859375 0.328125 43.136719 1.203125 C 42.476562 2.007812 41.519531 2.410156 40.273438 2.410156 Z M 40.273438 -2.410156 C 40.285156 -2.410156 40.296875 -2.410156 40.304688 -2.410156 C 40.304688 -2.410156 40.300781 -2.410156 40.292969 -2.410156 C 40.25 -2.40625 40.199219 -2.390625 40.140625 -2.375 C 39.863281 -2.285156 39.621094 -2.113281 39.414062 -1.859375 C 39.183594 -1.578125 39.054688 -1.265625 39.027344 -0.925781 C 39.015625 -0.796875 39.023438 -0.695312 39.042969 -0.632812 L 39.027344 -0.679688 L 26.195312 -52.382812 L 26.1875 -52.421875 C 26.230469 -52.234375 26.355469 -52.050781 26.570312 -51.875 C 26.796875 -51.691406 27.019531 -51.597656 27.234375 -51.597656 L 16.511719 -51.597656 C 16.726562 -51.597656 16.949219 -51.691406 17.175781 -51.875 C 17.390625 -52.050781 17.515625 -52.234375 17.558594 -52.421875 L 17.550781 -52.382812 L 4.71875 -0.679688 L 4.703125 -0.632812 C 4.71875 -0.679688 4.722656 -0.765625 4.71875 -0.878906 C 4.699219 -1.207031 4.582031 -1.511719 4.363281 -1.792969 C 4.15625 -2.066406 3.902344 -2.257812 3.601562 -2.359375 C 3.503906 -2.394531 3.433594 -2.410156 3.394531 -2.410156 L 10.957031 -2.410156 C 10.6875 -2.410156 10.425781 -2.300781 10.179688 -2.085938 C 9.980469 -1.914062 9.867188 -1.746094 9.832031 -1.585938 L 9.839844 -1.621094 L 12.691406 -13.210938 L 30.960938 -13.210938 L 33.902344 -1.628906 L 33.914062 -1.585938 C 33.878906 -1.746094 33.765625 -1.914062 33.566406 -2.085938 C 33.320312 -2.300781 33.058594 -2.410156 32.789062 -2.410156 Z M 24.347656 -19.207031 L 19.484375 -40.191406 L 21.835938 -40.738281 L 24.183594 -40.191406 L 19.324219 -19.207031 L 16.972656 -19.75 L 16.972656 -22.164062 L 26.695312 -22.164062 L 26.695312 -19.75 Z M 29.730469 -17.339844 L 13.941406 -17.339844 L 19.484375 -41.28125 L 24.183594 -41.28125 L 29.042969 -20.296875 Z M 29.730469 -17.339844 "/></g></g><g style="fill:#b21a22;fill-opacity:1;"><g transform="translate(98.961703, 164.03121)"><path style="stroke:none" d="M 37.207031 -42.898438 L 37.207031 -34.566406 C 37.207031 -33.488281 36.871094 -32.609375 36.191406 -31.933594 C 35.515625 -31.257812 34.640625 -30.917969 33.5625 -30.917969 L 26.308594 -30.917969 C 25.230469 -30.917969 24.355469 -31.257812 23.679688 -31.933594 C 23.003906 -32.609375 22.664062 -33.488281 22.664062 -34.566406 L 22.664062 -40.890625 C 22.664062 -41.144531 22.640625 -41.339844 22.59375 -41.480469 C 22.585938 -41.503906 22.578125 -41.523438 22.574219 -41.53125 C 22.578125 -41.523438 22.585938 -41.511719 22.597656 -41.5 C 22.609375 -41.488281 22.621094 -41.480469 22.628906 -41.476562 C 22.621094 -41.480469 22.601562 -41.488281 22.578125 -41.496094 C 22.4375 -41.542969 22.242188 -41.566406 21.988281 -41.566406 L 17.050781 -41.566406 C 16.796875 -41.566406 16.601562 -41.542969 16.464844 -41.496094 C 16.4375 -41.488281 16.421875 -41.480469 16.410156 -41.476562 C 16.417969 -41.480469 16.429688 -41.488281 16.441406 -41.5 C 16.453125 -41.511719 16.460938 -41.523438 16.464844 -41.53125 C 16.460938 -41.523438 16.453125 -41.503906 16.445312 -41.480469 C 16.398438 -41.339844 16.375 -41.144531 16.375 -40.890625 L 16.375 -12.882812 C 16.375 -12.632812 16.398438 -12.433594 16.445312 -12.296875 C 16.453125 -12.269531 16.460938 -12.253906 16.464844 -12.246094 C 16.460938 -12.253906 16.453125 -12.265625 16.441406 -12.273438 C 16.429688 -12.285156 16.417969 -12.292969 16.410156 -12.300781 C 16.421875 -12.292969 16.4375 -12.289062 16.464844 -12.277344 C 16.601562 -12.234375 16.796875 -12.210938 17.050781 -12.210938 L 21.988281 -12.210938 C 22.242188 -12.210938 22.4375 -12.234375 22.578125 -12.277344 C 22.601562 -12.289062 22.621094 -12.292969 22.628906 -12.300781 C 22.621094 -12.292969 22.609375 -12.285156 22.597656 -12.273438 C 22.585938 -12.265625 22.578125 -12.253906 22.574219 -12.246094 C 22.578125 -12.253906 22.585938 -12.269531 22.59375 -12.296875 C 22.640625 -12.433594 22.664062 -12.632812 22.664062 -12.882812 L 22.664062 -19.441406 C 22.664062 -20.519531 23.003906 -21.398438 23.679688 -22.074219 C 24.355469 -22.75 25.230469 -23.089844 26.308594 -23.089844 L 33.5625 -23.089844 C 34.640625 -23.089844 35.515625 -22.75 36.191406 -22.074219 C 36.871094 -21.398438 37.207031 -20.519531 37.207031 -19.441406 L 37.207031 -11.109375 C 37.207031 -6.84375 36.019531 -3.523438 33.648438 -1.148438 C 31.273438 1.222656 27.953125 2.410156 23.6875 2.410156 L 15.046875 2.410156 C 10.785156 2.410156 7.457031 1.226562 5.058594 -1.136719 C 2.648438 -3.511719 1.445312 -6.835938 1.445312 -11.109375 L 1.445312 -42.898438 C 1.445312 -47.226562 2.652344 -50.570312 5.070312 -52.917969 C 7.464844 -55.253906 10.792969 -56.417969 15.046875 -56.417969 L 23.6875 -56.417969 C 27.945312 -56.417969 31.261719 -55.25 33.636719 -52.90625 C 36.015625 -50.558594 37.207031 -47.222656 37.207031 -42.898438 Z M 32.386719 -42.898438 C 32.386719 -45.878906 31.671875 -48.070312 30.25 -49.476562 C 28.816406 -50.890625 26.628906 -51.597656 23.6875 -51.597656 L 15.046875 -51.597656 C 12.097656 -51.597656 9.894531 -50.886719 8.433594 -49.464844 C 6.988281 -48.058594 6.269531 -45.871094 6.269531 -42.898438 L 6.269531 -11.109375 C 6.269531 -8.183594 6.992188 -6.003906 8.445312 -4.570312 C 9.902344 -3.132812 12.105469 -2.410156 15.046875 -2.410156 L 23.6875 -2.410156 C 26.621094 -2.410156 28.804688 -3.128906 30.238281 -4.558594 C 31.667969 -5.992188 32.386719 -8.175781 32.386719 -11.109375 L 32.386719 -19.441406 C 32.386719 -19.386719 32.402344 -19.3125 32.429688 -19.21875 C 32.5 -19.015625 32.617188 -18.828125 32.78125 -18.664062 C 32.949219 -18.5 33.132812 -18.382812 33.339844 -18.3125 C 33.433594 -18.28125 33.507812 -18.265625 33.5625 -18.265625 L 26.308594 -18.265625 C 26.363281 -18.265625 26.4375 -18.28125 26.53125 -18.3125 C 26.738281 -18.382812 26.921875 -18.5 27.089844 -18.664062 C 27.253906 -18.828125 27.371094 -19.015625 27.441406 -19.21875 C 27.46875 -19.3125 27.484375 -19.386719 27.484375 -19.441406 L 27.484375 -12.882812 C 27.484375 -11.191406 26.992188 -9.851562 26.007812 -8.863281 C 25.023438 -7.878906 23.683594 -7.386719 21.988281 -7.386719 L 17.050781 -7.386719 C 15.355469 -7.386719 14.015625 -7.878906 13.03125 -8.863281 C 12.046875 -9.851562 11.554688 -11.191406 11.554688 -12.882812 L 11.554688 -40.890625 C 11.554688 -42.585938 12.046875 -43.925781 13.03125 -44.910156 C 14.015625 -45.894531 15.355469 -46.390625 17.050781 -46.390625 L 21.988281 -46.390625 C 23.683594 -46.390625 25.023438 -45.894531 26.007812 -44.910156 C 26.992188 -43.925781 27.484375 -42.585938 27.484375 -40.890625 L 27.484375 -34.566406 C 27.484375 -34.621094 27.46875 -34.695312 27.441406 -34.789062 C 27.371094 -34.992188 27.253906 -35.179688 27.089844 -35.34375 C 26.921875 -35.507812 26.738281 -35.625 26.53125 -35.695312 C 26.4375 -35.726562 26.363281 -35.742188 26.308594 -35.742188 L 33.5625 -35.742188 C 33.507812 -35.742188 33.433594 -35.726562 33.339844 -35.695312 C 33.132812 -35.625 32.949219 -35.507812 32.78125 -35.34375 C 32.617188 -35.179688 32.5 -34.992188 32.429688 -34.789062 C 32.402344 -34.695312 32.386719 -34.621094 32.386719 -34.566406 Z M 32.386719 -42.898438 "/></g></g><g style="fill:#b21a22;fill-opacity:1;"><g transform="translate(137.603446, 164.03121)"><path style="stroke:none" d="M 31.941406 -51.597656 L 3.550781 -51.597656 C 3.605469 -51.597656 3.679688 -51.613281 3.773438 -51.644531 C 3.976562 -51.710938 4.164062 -51.828125 4.328125 -51.992188 C 4.492188 -52.160156 4.609375 -52.34375 4.679688 -52.550781 C 4.710938 -52.644531 4.726562 -52.71875 4.726562 -52.773438 L 4.726562 -45.058594 C 4.726562 -45.113281 4.710938 -45.1875 4.679688 -45.28125 C 4.609375 -45.484375 4.492188 -45.671875 4.328125 -45.835938 C 4.164062 -46.003906 3.976562 -46.121094 3.773438 -46.1875 C 3.679688 -46.21875 3.605469 -46.234375 3.550781 -46.234375 L 14.910156 -46.234375 L 14.910156 -1.234375 C 14.910156 -1.289062 14.894531 -1.363281 14.863281 -1.457031 C 14.796875 -1.664062 14.679688 -1.847656 14.511719 -2.011719 C 14.347656 -2.179688 14.160156 -2.296875 13.957031 -2.363281 C 13.863281 -2.394531 13.789062 -2.410156 13.734375 -2.410156 L 21.757812 -2.410156 C 21.703125 -2.410156 21.628906 -2.394531 21.535156 -2.363281 C 21.328125 -2.296875 21.144531 -2.179688 20.976562 -2.011719 C 20.8125 -1.847656 20.695312 -1.664062 20.628906 -1.457031 C 20.597656 -1.363281 20.582031 -1.289062 20.582031 -1.234375 L 20.582031 -46.234375 L 31.941406 -46.234375 C 31.886719 -46.234375 31.8125 -46.21875 31.71875 -46.1875 C 31.511719 -46.121094 31.328125 -46.003906 31.164062 -45.835938 C 30.996094 -45.671875 30.878906 -45.484375 30.8125 -45.28125 C 30.78125 -45.1875 30.765625 -45.113281 30.765625 -45.058594 L 30.765625 -52.773438 C 30.765625 -52.71875 30.78125 -52.644531 30.8125 -52.550781 C 30.878906 -52.34375 30.996094 -52.160156 31.164062 -51.992188 C 31.328125 -51.828125 31.511719 -51.710938 31.71875 -51.644531 C 31.8125 -51.613281 31.886719 -51.597656 31.941406 -51.597656 Z M 31.941406 -56.417969 C 33.019531 -56.417969 33.894531 -56.082031 34.574219 -55.402344 C 35.25 -54.726562 35.585938 -53.851562 35.585938 -52.773438 L 35.585938 -45.058594 C 35.585938 -43.980469 35.25 -43.101562 34.574219 -42.425781 C 33.894531 -41.75 33.019531 -41.410156 31.941406 -41.410156 L 22.992188 -41.410156 L 22.992188 -43.824219 L 25.402344 -43.824219 L 25.402344 -1.234375 C 25.402344 -0.15625 25.066406 0.71875 24.386719 1.394531 C 23.710938 2.074219 22.835938 2.410156 21.757812 2.410156 L 13.734375 2.410156 C 12.65625 2.410156 11.777344 2.074219 11.101562 1.394531 C 10.425781 0.71875 10.085938 -0.15625 10.085938 -1.234375 L 10.085938 -43.824219 L 12.5 -43.824219 L 12.5 -41.410156 L 3.550781 -41.410156 C 2.472656 -41.410156 1.59375 -41.75 0.917969 -42.425781 C 0.242188 -43.101562 -0.0976562 -43.980469 -0.0976562 -45.058594 L -0.0976562 -52.773438 C -0.0976562 -53.851562 0.242188 -54.726562 0.917969 -55.402344 C 1.59375 -56.082031 2.472656 -56.417969 3.550781 -56.417969 Z M 31.941406 -56.417969 "/></g></g><g style="fill:#b21a22;fill-opacity:1;"><g transform="translate(173.082883, 164.03121)"><path style="stroke:none" d="M 5.09375 -2.410156 L 13.117188 -2.410156 C 13.0625 -2.410156 12.988281 -2.394531 12.894531 -2.363281 C 12.6875 -2.296875 12.503906 -2.179688 12.335938 -2.011719 C 12.171875 -1.847656 12.054688 -1.664062 11.984375 -1.457031 C 11.953125 -1.363281 11.9375 -1.289062 11.9375 -1.234375 L 11.9375 -52.773438 C 11.9375 -52.71875 11.953125 -52.644531 11.984375 -52.550781 C 12.054688 -52.34375 12.171875 -52.160156 12.335938 -51.992188 C 12.503906 -51.828125 12.6875 -51.710938 12.894531 -51.644531 C 12.988281 -51.613281 13.0625 -51.597656 13.117188 -51.597656 L 5.09375 -51.597656 C 5.148438 -51.597656 5.222656 -51.613281 5.316406 -51.644531 C 5.519531 -51.710938 5.707031 -51.828125 5.871094 -51.992188 C 6.035156 -52.160156 6.152344 -52.34375 6.222656 -52.550781 C 6.253906 -52.644531 6.269531 -52.71875 6.269531 -52.773438 L 6.269531 -1.234375 C 6.269531 -1.289062 6.253906 -1.363281 6.222656 -1.457031 C 6.152344 -1.664062 6.035156 -1.847656 5.871094 -2.011719 C 5.707031 -2.179688 5.519531 -2.296875 5.316406 -2.363281 C 5.222656 -2.394531 5.148438 -2.410156 5.09375 -2.410156 Z M 5.09375 2.410156 C 4.015625 2.410156 3.136719 2.074219 2.460938 1.394531 C 1.785156 0.71875 1.445312 -0.15625 1.445312 -1.234375 L 1.445312 -52.773438 C 1.445312 -53.851562 1.785156 -54.726562 2.460938 -55.402344 C 3.136719 -56.082031 4.015625 -56.417969 5.09375 -56.417969 L 13.117188 -56.417969 C 14.195312 -56.417969 15.070312 -56.082031 15.746094 -55.402344 C 16.421875 -54.726562 16.761719 -53.851562 16.761719 -52.773438 L 16.761719 -1.234375 C 16.761719 -0.15625 16.421875 0.71875 15.746094 1.394531 C 15.070312 2.074219 14.195312 2.410156 13.117188 2.410156 Z M 5.09375 2.410156 "/></g></g><g style="fill:#b21a22;fill-opacity:1;"><g transform="translate(191.285363, 164.03121)"><path style="stroke:none" d="M 29.550781 -56.417969 L 36.570312 -56.417969 C 37.925781 -56.417969 38.957031 -55.984375 39.671875 -55.109375 C 40.402344 -54.21875 40.613281 -53.109375 40.3125 -51.777344 L 28.035156 -0.824219 C 27.820312 0.152344 27.355469 0.933594 26.640625 1.519531 C 25.914062 2.113281 25.03125 2.410156 23.996094 2.410156 L 16.28125 2.410156 C 15.269531 2.410156 14.398438 2.113281 13.671875 1.519531 C 12.996094 0.964844 12.523438 0.210938 12.257812 -0.742188 L 12.246094 -0.785156 L 0.046875 -51.75 C -0.261719 -53.097656 -0.0507812 -54.21875 0.679688 -55.109375 C 1.394531 -55.984375 2.425781 -56.417969 3.78125 -56.417969 L 10.800781 -56.417969 C 11.839844 -56.417969 12.71875 -56.121094 13.445312 -55.527344 C 14.160156 -54.941406 14.628906 -54.148438 14.851562 -53.140625 L 22.492188 -18.261719 L 20.136719 -17.746094 L 17.78125 -18.265625 L 25.511719 -53.203125 L 25.527344 -53.265625 C 25.792969 -54.21875 26.265625 -54.972656 26.941406 -55.527344 C 27.667969 -56.121094 28.539062 -56.417969 29.550781 -56.417969 Z M 29.550781 -51.597656 C 29.6875 -51.597656 29.835938 -51.664062 29.996094 -51.792969 C 30.074219 -51.859375 30.136719 -51.925781 30.175781 -51.996094 C 30.183594 -52.007812 30.191406 -52.019531 30.191406 -52.023438 C 30.1875 -52.011719 30.183594 -51.996094 30.175781 -51.972656 L 27.851562 -52.617188 L 30.207031 -52.097656 L 22.492188 -17.222656 L 17.78125 -17.230469 L 10.144531 -52.09375 C 10.140625 -52.109375 10.140625 -52.117188 10.140625 -52.117188 C 10.144531 -52.101562 10.15625 -52.078125 10.167969 -52.054688 C 10.222656 -51.960938 10.296875 -51.875 10.394531 -51.792969 C 10.554688 -51.664062 10.691406 -51.597656 10.800781 -51.597656 L 3.78125 -51.597656 C 3.746094 -51.597656 3.722656 -51.59375 3.707031 -51.59375 C 3.734375 -51.597656 3.769531 -51.605469 3.8125 -51.621094 C 4.039062 -51.699219 4.238281 -51.84375 4.414062 -52.054688 C 4.59375 -52.277344 4.695312 -52.511719 4.726562 -52.761719 C 4.734375 -52.816406 4.734375 -52.859375 4.734375 -52.894531 C 4.734375 -52.886719 4.734375 -52.878906 4.738281 -52.871094 L 16.925781 -1.949219 L 14.582031 -1.390625 L 16.90625 -2.035156 C 16.910156 -2.011719 16.917969 -1.996094 16.921875 -1.984375 C 16.917969 -1.988281 16.914062 -1.996094 16.90625 -2.011719 C 16.863281 -2.082031 16.804688 -2.148438 16.726562 -2.214844 C 16.566406 -2.34375 16.417969 -2.410156 16.28125 -2.410156 L 23.996094 -2.410156 C 23.882812 -2.410156 23.746094 -2.34375 23.585938 -2.214844 C 23.488281 -2.132812 23.414062 -2.046875 23.363281 -1.953125 C 23.347656 -1.929688 23.339844 -1.90625 23.332031 -1.890625 C 23.332031 -1.890625 23.339844 -1.914062 23.347656 -1.953125 L 35.609375 -52.84375 C 35.613281 -52.871094 35.617188 -52.886719 35.617188 -52.894531 C 35.617188 -52.859375 35.617188 -52.816406 35.625 -52.761719 C 35.652344 -52.511719 35.757812 -52.277344 35.9375 -52.054688 C 36.113281 -51.84375 36.3125 -51.699219 36.539062 -51.621094 C 36.582031 -51.605469 36.617188 -51.597656 36.644531 -51.59375 C 36.628906 -51.59375 36.605469 -51.597656 36.570312 -51.597656 Z M 29.550781 -51.597656 "/></g></g><g style="fill:#b21a22;fill-opacity:1;"><g transform="translate(231.623928, 164.03121)"><path style="stroke:none" d="M 37.054688 -52.773438 L 37.054688 -45.058594 C 37.054688 -43.984375 36.730469 -43.105469 36.089844 -42.421875 C 35.40625 -41.695312 34.511719 -41.335938 33.40625 -41.335938 L 14.351562 -41.335938 L 14.351562 -43.746094 L 16.761719 -43.746094 L 16.761719 -31.863281 L 14.351562 -31.863281 L 14.351562 -34.277344 L 28.855469 -34.277344 C 29.960938 -34.277344 30.855469 -33.914062 31.539062 -33.1875 C 32.179688 -32.507812 32.5 -31.628906 32.5 -30.554688 L 32.5 -22.914062 C 32.5 -21.839844 32.179688 -20.960938 31.539062 -20.277344 C 30.855469 -19.554688 29.960938 -19.191406 28.855469 -19.191406 L 14.351562 -19.191406 L 14.351562 -21.601562 L 16.761719 -21.601562 L 16.761719 -10.183594 L 14.351562 -10.183594 L 14.351562 -12.59375 L 33.40625 -12.59375 C 34.484375 -12.59375 35.363281 -12.257812 36.039062 -11.582031 C 36.714844 -10.902344 37.054688 -10.027344 37.054688 -8.949219 L 37.054688 -1.234375 C 37.054688 -0.15625 36.714844 0.71875 36.039062 1.394531 C 35.363281 2.074219 34.484375 2.410156 33.40625 2.410156 L 5.015625 2.410156 C 3.933594 2.410156 3.058594 2.054688 2.386719 1.339844 C 1.761719 0.671875 1.445312 -0.1875 1.445312 -1.234375 L 1.445312 -52.773438 C 1.445312 -53.820312 1.761719 -54.679688 2.386719 -55.347656 C 3.058594 -56.0625 3.933594 -56.417969 5.015625 -56.417969 L 33.40625 -56.417969 C 34.484375 -56.417969 35.363281 -56.082031 36.039062 -55.402344 C 36.714844 -54.726562 37.054688 -53.851562 37.054688 -52.773438 Z M 32.230469 -52.773438 C 32.230469 -52.71875 32.246094 -52.644531 32.277344 -52.550781 C 32.347656 -52.34375 32.464844 -52.160156 32.628906 -51.992188 C 32.792969 -51.828125 32.980469 -51.710938 33.183594 -51.644531 C 33.277344 -51.613281 33.351562 -51.597656 33.40625 -51.597656 L 5.015625 -51.597656 C 5.324219 -51.597656 5.621094 -51.746094 5.90625 -52.050781 C 6.0625 -52.214844 6.167969 -52.398438 6.230469 -52.59375 C 6.257812 -52.671875 6.269531 -52.734375 6.269531 -52.773438 L 6.269531 -1.234375 C 6.269531 -1.273438 6.257812 -1.332031 6.230469 -1.414062 C 6.167969 -1.609375 6.0625 -1.792969 5.90625 -1.957031 C 5.621094 -2.261719 5.324219 -2.410156 5.015625 -2.410156 L 33.40625 -2.410156 C 33.351562 -2.410156 33.277344 -2.394531 33.183594 -2.363281 C 32.980469 -2.296875 32.792969 -2.179688 32.628906 -2.011719 C 32.464844 -1.847656 32.347656 -1.664062 32.277344 -1.457031 C 32.246094 -1.363281 32.230469 -1.289062 32.230469 -1.234375 L 32.230469 -8.949219 C 32.230469 -8.894531 32.246094 -8.820312 32.277344 -8.726562 C 32.347656 -8.523438 32.464844 -8.335938 32.628906 -8.171875 C 32.792969 -8.003906 32.980469 -7.886719 33.183594 -7.820312 C 33.277344 -7.789062 33.351562 -7.773438 33.40625 -7.773438 L 11.9375 -7.773438 L 11.9375 -24.015625 L 28.855469 -24.015625 C 28.785156 -24.015625 28.695312 -23.996094 28.589844 -23.957031 C 28.378906 -23.882812 28.1875 -23.757812 28.027344 -23.582031 C 27.875 -23.425781 27.769531 -23.25 27.710938 -23.0625 C 27.691406 -22.992188 27.679688 -22.941406 27.679688 -22.914062 L 27.679688 -30.554688 C 27.679688 -30.523438 27.691406 -30.476562 27.710938 -30.40625 C 27.769531 -30.21875 27.875 -30.042969 28.027344 -29.882812 C 28.1875 -29.710938 28.378906 -29.585938 28.589844 -29.507812 C 28.695312 -29.472656 28.785156 -29.453125 28.855469 -29.453125 L 11.9375 -29.453125 L 11.9375 -46.15625 L 33.40625 -46.15625 C 33.335938 -46.15625 33.25 -46.136719 33.144531 -46.101562 C 32.929688 -46.027344 32.742188 -45.902344 32.578125 -45.726562 C 32.425781 -45.566406 32.324219 -45.394531 32.265625 -45.207031 C 32.242188 -45.132812 32.230469 -45.085938 32.230469 -45.058594 Z M 32.230469 -52.773438 "/></g></g><g style="fill:#b21a22;fill-opacity:1;"><g transform="translate(270.111388, 164.03121)"><path style="stroke:none" d="M -2.410156 10.339844 L -2.410156 3.242188 C -2.410156 2.058594 -2.046875 1.105469 -1.320312 0.378906 C -0.589844 -0.351562 0.363281 -0.714844 1.542969 -0.714844 L 48.066406 -0.714844 C 49.246094 -0.714844 50.199219 -0.351562 50.929688 0.378906 C 51.65625 1.105469 52.019531 2.058594 52.019531 3.242188 L 52.019531 10.339844 C 52.019531 11.519531 51.65625 12.472656 50.929688 13.199219 C 50.199219 13.929688 49.246094 14.292969 48.066406 14.292969 L 1.542969 14.292969 C 0.363281 14.292969 -0.589844 13.929688 -1.320312 13.199219 C -2.046875 12.472656 -2.410156 11.519531 -2.410156 10.339844 Z M 2.410156 10.339844 C 2.410156 10.347656 2.410156 10.359375 2.410156 10.363281 C 2.410156 10.363281 2.410156 10.363281 2.410156 10.359375 C 2.40625 10.328125 2.398438 10.292969 2.382812 10.25 C 2.328125 10.085938 2.230469 9.929688 2.089844 9.789062 C 1.949219 9.652344 1.796875 9.554688 1.628906 9.496094 C 1.589844 9.484375 1.554688 9.476562 1.523438 9.46875 C 1.519531 9.46875 1.515625 9.46875 1.515625 9.46875 C 1.523438 9.46875 1.53125 9.46875 1.542969 9.46875 L 48.066406 9.46875 C 48.078125 9.46875 48.085938 9.46875 48.09375 9.46875 C 48.09375 9.46875 48.089844 9.46875 48.085938 9.46875 C 48.054688 9.476562 48.019531 9.484375 47.980469 9.496094 C 47.8125 9.554688 47.660156 9.652344 47.519531 9.789062 C 47.378906 9.929688 47.28125 10.085938 47.226562 10.25 C 47.210938 10.292969 47.203125 10.328125 47.199219 10.359375 C 47.199219 10.363281 47.199219 10.363281 47.199219 10.363281 C 47.199219 10.359375 47.199219 10.347656 47.199219 10.339844 L 47.199219 3.242188 C 47.199219 3.230469 47.199219 3.222656 47.199219 3.214844 C 47.199219 3.214844 47.199219 3.214844 47.199219 3.21875 C 47.203125 3.25 47.210938 3.285156 47.226562 3.328125 C 47.28125 3.496094 47.378906 3.648438 47.519531 3.789062 C 47.660156 3.929688 47.8125 4.027344 47.980469 4.082031 C 48.019531 4.09375 48.054688 4.105469 48.085938 4.109375 C 48.089844 4.109375 48.09375 4.109375 48.09375 4.109375 C 48.085938 4.109375 48.078125 4.109375 48.066406 4.109375 L 1.542969 4.109375 C 1.53125 4.109375 1.523438 4.109375 1.515625 4.109375 C 1.515625 4.109375 1.519531 4.109375 1.523438 4.109375 C 1.554688 4.105469 1.589844 4.09375 1.628906 4.082031 C 1.796875 4.027344 1.949219 3.929688 2.089844 3.789062 C 2.230469 3.648438 2.328125 3.496094 2.382812 3.328125 C 2.398438 3.285156 2.40625 3.25 2.410156 3.21875 C 2.410156 3.214844 2.410156 3.214844 2.410156 3.214844 C 2.410156 3.222656 2.410156 3.230469 2.410156 3.242188 Z M 2.410156 10.339844 "/></g></g><g style="fill:#b21a22;fill-opacity:1;"><g transform="translate(43.922866, 271.596419)"><path style="stroke:none" d="M 14.96875 -56.417969 L 23.609375 -56.417969 C 27.925781 -56.417969 31.261719 -55.246094 33.609375 -52.894531 C 35.957031 -50.546875 37.128906 -47.214844 37.128906 -42.898438 L 37.128906 -37.804688 C 37.128906 -36.726562 36.792969 -35.851562 36.117188 -35.175781 C 35.4375 -34.496094 34.5625 -34.160156 33.484375 -34.160156 L 25.691406 -34.160156 C 24.613281 -34.160156 23.738281 -34.496094 23.0625 -35.175781 C 22.382812 -35.851562 22.046875 -36.726562 22.046875 -37.804688 L 22.046875 -41.046875 C 22.046875 -41.300781 22.023438 -41.496094 21.976562 -41.632812 C 21.96875 -41.660156 21.960938 -41.675781 21.957031 -41.6875 C 21.960938 -41.675781 21.96875 -41.667969 21.980469 -41.65625 C 21.992188 -41.644531 22.003906 -41.636719 22.011719 -41.628906 C 22.003906 -41.636719 21.984375 -41.644531 21.960938 -41.652344 C 21.820312 -41.699219 21.625 -41.71875 21.371094 -41.71875 L 17.128906 -41.71875 C 16.875 -41.71875 16.679688 -41.699219 16.539062 -41.652344 C 16.515625 -41.644531 16.496094 -41.636719 16.488281 -41.628906 C 16.496094 -41.636719 16.507812 -41.644531 16.519531 -41.65625 C 16.53125 -41.667969 16.539062 -41.675781 16.542969 -41.6875 C 16.539062 -41.675781 16.53125 -41.660156 16.523438 -41.632812 C 16.476562 -41.496094 16.453125 -41.300781 16.453125 -41.046875 L 16.453125 -34.488281 L 14.042969 -34.488281 L 14.78125 -36.78125 L 33.453125 -30.765625 C 34.644531 -30.351562 35.558594 -29.695312 36.191406 -28.796875 C 36.816406 -27.902344 37.128906 -26.84375 37.128906 -25.613281 L 37.128906 -11.109375 C 37.128906 -6.851562 35.960938 -3.535156 33.621094 -1.160156 C 31.269531 1.21875 27.933594 2.410156 23.609375 2.410156 L 14.96875 2.410156 C 10.703125 2.410156 7.382812 1.222656 5.007812 -1.148438 C 2.632812 -3.523438 1.445312 -6.84375 1.445312 -11.109375 L 1.445312 -16.125 C 1.445312 -17.203125 1.785156 -18.078125 2.460938 -18.757812 C 3.136719 -19.433594 4.015625 -19.769531 5.09375 -19.769531 L 12.882812 -19.769531 C 13.960938 -19.769531 14.839844 -19.433594 15.515625 -18.757812 C 16.191406 -18.078125 16.53125 -17.203125 16.53125 -16.125 L 16.53125 -12.882812 C 16.53125 -12.632812 16.554688 -12.433594 16.597656 -12.296875 C 16.609375 -12.269531 16.613281 -12.253906 16.621094 -12.246094 C 16.617188 -12.253906 16.605469 -12.265625 16.59375 -12.273438 C 16.585938 -12.285156 16.574219 -12.292969 16.566406 -12.300781 C 16.574219 -12.292969 16.59375 -12.289062 16.617188 -12.277344 C 16.753906 -12.234375 16.953125 -12.210938 17.207031 -12.210938 L 21.371094 -12.210938 C 21.625 -12.210938 21.820312 -12.234375 21.960938 -12.277344 C 21.984375 -12.289062 22.003906 -12.292969 22.011719 -12.300781 C 22.003906 -12.292969 21.992188 -12.285156 21.980469 -12.273438 C 21.96875 -12.265625 21.960938 -12.253906 21.957031 -12.246094 C 21.960938 -12.253906 21.96875 -12.269531 21.976562 -12.296875 C 22.023438 -12.433594 22.046875 -12.632812 22.046875 -12.882812 L 22.046875 -20.675781 L 24.457031 -20.675781 L 23.710938 -18.382812 L 5.195312 -24.402344 C 4.003906 -24.800781 3.082031 -25.445312 2.429688 -26.335938 C 1.773438 -27.234375 1.445312 -28.304688 1.445312 -29.550781 L 1.445312 -42.898438 C 1.445312 -47.222656 2.636719 -50.558594 5.019531 -52.90625 C 7.390625 -55.25 10.707031 -56.417969 14.96875 -56.417969 Z M 14.96875 -51.597656 C 12.027344 -51.597656 9.839844 -50.890625 8.40625 -49.476562 C 6.980469 -48.070312 6.269531 -45.878906 6.269531 -42.898438 L 6.269531 -29.550781 C 6.269531 -29.355469 6.289062 -29.230469 6.328125 -29.175781 C 6.371094 -29.117188 6.492188 -29.054688 6.6875 -28.988281 L 26.867188 -22.429688 L 26.867188 -12.882812 C 26.867188 -11.191406 26.375 -9.851562 25.390625 -8.863281 C 24.40625 -7.878906 23.066406 -7.386719 21.371094 -7.386719 L 17.207031 -7.386719 C 15.511719 -7.386719 14.171875 -7.878906 13.1875 -8.863281 C 12.199219 -9.851562 11.707031 -11.191406 11.707031 -12.882812 L 11.707031 -16.125 C 11.707031 -16.070312 11.722656 -15.996094 11.753906 -15.902344 C 11.824219 -15.695312 11.941406 -15.511719 12.105469 -15.347656 C 12.269531 -15.179688 12.457031 -15.0625 12.664062 -14.996094 C 12.753906 -14.964844 12.828125 -14.949219 12.882812 -14.949219 L 5.09375 -14.949219 C 5.148438 -14.949219 5.222656 -14.964844 5.316406 -14.996094 C 5.519531 -15.0625 5.707031 -15.179688 5.871094 -15.347656 C 6.035156 -15.511719 6.152344 -15.695312 6.222656 -15.902344 C 6.253906 -15.996094 6.269531 -16.070312 6.269531 -16.125 L 6.269531 -11.109375 C 6.269531 -8.175781 6.984375 -5.992188 8.417969 -4.558594 C 9.851562 -3.128906 12.03125 -2.410156 14.96875 -2.410156 L 23.609375 -2.410156 C 26.589844 -2.410156 28.78125 -3.125 30.1875 -4.546875 C 31.601562 -5.980469 32.308594 -8.167969 32.308594 -11.109375 L 32.308594 -25.613281 C 32.308594 -25.828125 32.285156 -25.960938 32.246094 -26.023438 C 32.210938 -26.074219 32.117188 -26.125 31.972656 -26.175781 L 11.628906 -32.730469 L 11.628906 -41.046875 C 11.628906 -42.742188 12.125 -44.082031 13.109375 -45.066406 C 14.09375 -46.050781 15.433594 -46.542969 17.128906 -46.542969 L 21.371094 -46.542969 C 23.066406 -46.542969 24.40625 -46.050781 25.390625 -45.066406 C 26.375 -44.082031 26.867188 -42.742188 26.867188 -41.046875 L 26.867188 -37.804688 C 26.867188 -37.859375 26.851562 -37.933594 26.824219 -38.027344 C 26.753906 -38.234375 26.636719 -38.417969 26.472656 -38.585938 C 26.304688 -38.75 26.121094 -38.867188 25.914062 -38.933594 C 25.820312 -38.964844 25.746094 -38.980469 25.691406 -38.980469 L 33.484375 -38.980469 C 33.429688 -38.980469 33.355469 -38.964844 33.261719 -38.933594 C 33.054688 -38.867188 32.871094 -38.75 32.707031 -38.585938 C 32.539062 -38.417969 32.421875 -38.234375 32.355469 -38.027344 C 32.324219 -37.933594 32.308594 -37.859375 32.308594 -37.804688 L 32.308594 -42.898438 C 32.308594 -45.882812 31.605469 -48.078125 30.199219 -49.488281 C 28.792969 -50.894531 26.59375 -51.597656 23.609375 -51.597656 Z M 14.96875 -51.597656 "/></g></g><g style="fill:#b21a22;fill-opacity:1;"><g transform="translate(82.487467, 271.596419)"><path style="stroke:none" d="M 37.054688 -52.773438 L 37.054688 -45.058594 C 37.054688 -43.984375 36.730469 -43.105469 36.089844 -42.421875 C 35.40625 -41.695312 34.511719 -41.335938 33.40625 -41.335938 L 14.351562 -41.335938 L 14.351562 -43.746094 L 16.761719 -43.746094 L 16.761719 -31.863281 L 14.351562 -31.863281 L 14.351562 -34.277344 L 28.855469 -34.277344 C 29.960938 -34.277344 30.855469 -33.914062 31.539062 -33.1875 C 32.179688 -32.507812 32.5 -31.628906 32.5 -30.554688 L 32.5 -22.914062 C 32.5 -21.839844 32.179688 -20.960938 31.539062 -20.277344 C 30.855469 -19.554688 29.960938 -19.191406 28.855469 -19.191406 L 14.351562 -19.191406 L 14.351562 -21.601562 L 16.761719 -21.601562 L 16.761719 -10.183594 L 14.351562 -10.183594 L 14.351562 -12.59375 L 33.40625 -12.59375 C 34.484375 -12.59375 35.363281 -12.257812 36.039062 -11.582031 C 36.714844 -10.902344 37.054688 -10.027344 37.054688 -8.949219 L 37.054688 -1.234375 C 37.054688 -0.15625 36.714844 0.71875 36.039062 1.394531 C 35.363281 2.074219 34.484375 2.410156 33.40625 2.410156 L 5.015625 2.410156 C 3.933594 2.410156 3.058594 2.054688 2.386719 1.339844 C 1.761719 0.671875 1.445312 -0.1875 1.445312 -1.234375 L 1.445312 -52.773438 C 1.445312 -53.820312 1.761719 -54.679688 2.386719 -55.347656 C 3.058594 -56.0625 3.933594 -56.417969 5.015625 -56.417969 L 33.40625 -56.417969 C 34.484375 -56.417969 35.363281 -56.082031 36.039062 -55.402344 C 36.714844 -54.726562 37.054688 -53.851562 37.054688 -52.773438 Z M 32.230469 -52.773438 C 32.230469 -52.71875 32.246094 -52.644531 32.277344 -52.550781 C 32.347656 -52.34375 32.464844 -52.160156 32.628906 -51.992188 C 32.792969 -51.828125 32.980469 -51.710938 33.183594 -51.644531 C 33.277344 -51.613281 33.351562 -51.597656 33.40625 -51.597656 L 5.015625 -51.597656 C 5.324219 -51.597656 5.621094 -51.746094 5.90625 -52.050781 C 6.0625 -52.214844 6.167969 -52.398438 6.230469 -52.59375 C 6.257812 -52.671875 6.269531 -52.734375 6.269531 -52.773438 L 6.269531 -1.234375 C 6.269531 -1.273438 6.257812 -1.332031 6.230469 -1.414062 C 6.167969 -1.609375 6.0625 -1.792969 5.90625 -1.957031 C 5.621094 -2.261719 5.324219 -2.410156 5.015625 -2.410156 L 33.40625 -2.410156 C 33.351562 -2.410156 33.277344 -2.394531 33.183594 -2.363281 C 32.980469 -2.296875 32.792969 -2.179688 32.628906 -2.011719 C 32.464844 -1.847656 32.347656 -1.664062 32.277344 -1.457031 C 32.246094 -1.363281 32.230469 -1.289062 32.230469 -1.234375 L 32.230469 -8.949219 C 32.230469 -8.894531 32.246094 -8.820312 32.277344 -8.726562 C 32.347656 -8.523438 32.464844 -8.335938 32.628906 -8.171875 C 32.792969 -8.003906 32.980469 -7.886719 33.183594 -7.820312 C 33.277344 -7.789062 33.351562 -7.773438 33.40625 -7.773438 L 11.9375 -7.773438 L 11.9375 -24.015625 L 28.855469 -24.015625 C 28.785156 -24.015625 28.695312 -23.996094 28.589844 -23.957031 C 28.378906 -23.882812 28.1875 -23.757812 28.027344 -23.582031 C 27.875 -23.425781 27.769531 -23.25 27.710938 -23.0625 C 27.691406 -22.992188 27.679688 -22.941406 27.679688 -22.914062 L 27.679688 -30.554688 C 27.679688 -30.523438 27.691406 -30.476562 27.710938 -30.40625 C 27.769531 -30.21875 27.875 -30.042969 28.027344 -29.882812 C 28.1875 -29.710938 28.378906 -29.585938 28.589844 -29.507812 C 28.695312 -29.472656 28.785156 -29.453125 28.855469 -29.453125 L 11.9375 -29.453125 L 11.9375 -46.15625 L 33.40625 -46.15625 C 33.335938 -46.15625 33.25 -46.136719 33.144531 -46.101562 C 32.929688 -46.027344 32.742188 -45.902344 32.578125 -45.726562 C 32.425781 -45.566406 32.324219 -45.394531 32.265625 -45.207031 C 32.242188 -45.132812 32.230469 -45.085938 32.230469 -45.058594 Z M 32.230469 -52.773438 "/></g></g><g style="fill:#b21a22;fill-opacity:1;"><g transform="translate(120.974927, 271.596419)"><path style="stroke:none" d="M 37.207031 -42.898438 L 37.207031 -34.566406 C 37.207031 -33.488281 36.871094 -32.609375 36.191406 -31.933594 C 35.515625 -31.257812 34.640625 -30.917969 33.5625 -30.917969 L 26.308594 -30.917969 C 25.230469 -30.917969 24.355469 -31.257812 23.679688 -31.933594 C 23.003906 -32.609375 22.664062 -33.488281 22.664062 -34.566406 L 22.664062 -40.890625 C 22.664062 -41.144531 22.640625 -41.339844 22.59375 -41.480469 C 22.585938 -41.503906 22.578125 -41.523438 22.574219 -41.53125 C 22.578125 -41.523438 22.585938 -41.511719 22.597656 -41.5 C 22.609375 -41.488281 22.621094 -41.480469 22.628906 -41.476562 C 22.621094 -41.480469 22.601562 -41.488281 22.578125 -41.496094 C 22.4375 -41.542969 22.242188 -41.566406 21.988281 -41.566406 L 17.050781 -41.566406 C 16.796875 -41.566406 16.601562 -41.542969 16.464844 -41.496094 C 16.4375 -41.488281 16.421875 -41.480469 16.410156 -41.476562 C 16.417969 -41.480469 16.429688 -41.488281 16.441406 -41.5 C 16.453125 -41.511719 16.460938 -41.523438 16.464844 -41.53125 C 16.460938 -41.523438 16.453125 -41.503906 16.445312 -41.480469 C 16.398438 -41.339844 16.375 -41.144531 16.375 -40.890625 L 16.375 -12.882812 C 16.375 -12.632812 16.398438 -12.433594 16.445312 -12.296875 C 16.453125 -12.269531 16.460938 -12.253906 16.464844 -12.246094 C 16.460938 -12.253906 16.453125 -12.265625 16.441406 -12.273438 C 16.429688 -12.285156 16.417969 -12.292969 16.410156 -12.300781 C 16.421875 -12.292969 16.4375 -12.289062 16.464844 -12.277344 C 16.601562 -12.234375 16.796875 -12.210938 17.050781 -12.210938 L 21.988281 -12.210938 C 22.242188 -12.210938 22.4375 -12.234375 22.578125 -12.277344 C 22.601562 -12.289062 22.621094 -12.292969 22.628906 -12.300781 C 22.621094 -12.292969 22.609375 -12.285156 22.597656 -12.273438 C 22.585938 -12.265625 22.578125 -12.253906 22.574219 -12.246094 C 22.578125 -12.253906 22.585938 -12.269531 22.59375 -12.296875 C 22.640625 -12.433594 22.664062 -12.632812 22.664062 -12.882812 L 22.664062 -19.441406 C 22.664062 -20.519531 23.003906 -21.398438 23.679688 -22.074219 C 24.355469 -22.75 25.230469 -23.089844 26.308594 -23.089844 L 33.5625 -23.089844 C 34.640625 -23.089844 35.515625 -22.75 36.191406 -22.074219 C 36.871094 -21.398438 37.207031 -20.519531 37.207031 -19.441406 L 37.207031 -11.109375 C 37.207031 -6.84375 36.019531 -3.523438 33.648438 -1.148438 C 31.273438 1.222656 27.953125 2.410156 23.6875 2.410156 L 15.046875 2.410156 C 10.785156 2.410156 7.457031 1.226562 5.058594 -1.136719 C 2.648438 -3.511719 1.445312 -6.835938 1.445312 -11.109375 L 1.445312 -42.898438 C 1.445312 -47.226562 2.652344 -50.570312 5.070312 -52.917969 C 7.464844 -55.253906 10.792969 -56.417969 15.046875 -56.417969 L 23.6875 -56.417969 C 27.945312 -56.417969 31.261719 -55.25 33.636719 -52.90625 C 36.015625 -50.558594 37.207031 -47.222656 37.207031 -42.898438 Z M 32.386719 -42.898438 C 32.386719 -45.878906 31.671875 -48.070312 30.25 -49.476562 C 28.816406 -50.890625 26.628906 -51.597656 23.6875 -51.597656 L 15.046875 -51.597656 C 12.097656 -51.597656 9.894531 -50.886719 8.433594 -49.464844 C 6.988281 -48.058594 6.269531 -45.871094 6.269531 -42.898438 L 6.269531 -11.109375 C 6.269531 -8.183594 6.992188 -6.003906 8.445312 -4.570312 C 9.902344 -3.132812 12.105469 -2.410156 15.046875 -2.410156 L 23.6875 -2.410156 C 26.621094 -2.410156 28.804688 -3.128906 30.238281 -4.558594 C 31.667969 -5.992188 32.386719 -8.175781 32.386719 -11.109375 L 32.386719 -19.441406 C 32.386719 -19.386719 32.402344 -19.3125 32.429688 -19.21875 C 32.5 -19.015625 32.617188 -18.828125 32.78125 -18.664062 C 32.949219 -18.5 33.132812 -18.382812 33.339844 -18.3125 C 33.433594 -18.28125 33.507812 -18.265625 33.5625 -18.265625 L 26.308594 -18.265625 C 26.363281 -18.265625 26.4375 -18.28125 26.53125 -18.3125 C 26.738281 -18.382812 26.921875 -18.5 27.089844 -18.664062 C 27.253906 -18.828125 27.371094 -19.015625 27.441406 -19.21875 C 27.46875 -19.3125 27.484375 -19.386719 27.484375 -19.441406 L 27.484375 -12.882812 C 27.484375 -11.191406 26.992188 -9.851562 26.007812 -8.863281 C 25.023438 -7.878906 23.683594 -7.386719 21.988281 -7.386719 L 17.050781 -7.386719 C 15.355469 -7.386719 14.015625 -7.878906 13.03125 -8.863281 C 12.046875 -9.851562 11.554688 -11.191406 11.554688 -12.882812 L 11.554688 -40.890625 C 11.554688 -42.585938 12.046875 -43.925781 13.03125 -44.910156 C 14.015625 -45.894531 15.355469 -46.390625 17.050781 -46.390625 L 21.988281 -46.390625 C 23.683594 -46.390625 25.023438 -45.894531 26.007812 -44.910156 C 26.992188 -43.925781 27.484375 -42.585938 27.484375 -40.890625 L 27.484375 -34.566406 C 27.484375 -34.621094 27.46875 -34.695312 27.441406 -34.789062 C 27.371094 -34.992188 27.253906 -35.179688 27.089844 -35.34375 C 26.921875 -35.507812 26.738281 -35.625 26.53125 -35.695312 C 26.4375 -35.726562 26.363281 -35.742188 26.308594 -35.742188 L 33.5625 -35.742188 C 33.507812 -35.742188 33.433594 -35.726562 33.339844 -35.695312 C 33.132812 -35.625 32.949219 -35.507812 32.78125 -35.34375 C 32.617188 -35.179688 32.5 -34.992188 32.429688 -34.789062 C 32.402344 -34.695312 32.386719 -34.621094 32.386719 -34.566406 Z M 32.386719 -42.898438 "/></g></g><g style="fill:#b21a22;fill-opacity:1;"><g transform="translate(159.61667, 271.596419)"><path style="stroke:none" d="M 26.078125 -56.417969 L 33.175781 -56.417969 C 34.253906 -56.417969 35.183594 -56.027344 35.960938 -55.25 C 36.742188 -54.46875 37.128906 -53.542969 37.128906 -52.464844 L 37.128906 -11.109375 C 37.128906 -6.851562 35.960938 -3.535156 33.621094 -1.160156 C 31.269531 1.21875 27.933594 2.410156 23.609375 2.410156 L 14.96875 2.410156 C 10.703125 2.410156 7.382812 1.222656 5.007812 -1.148438 C 2.632812 -3.523438 1.445312 -6.84375 1.445312 -11.109375 L 1.445312 -52.464844 C 1.445312 -53.542969 1.835938 -54.46875 2.617188 -55.25 C 3.394531 -56.027344 4.324219 -56.417969 5.402344 -56.417969 L 12.808594 -56.417969 C 13.886719 -56.417969 14.8125 -56.027344 15.59375 -55.25 C 16.371094 -54.46875 16.761719 -53.542969 16.761719 -52.464844 L 16.761719 -13.269531 C 16.761719 -13.015625 16.785156 -12.820312 16.832031 -12.683594 C 16.839844 -12.65625 16.847656 -12.640625 16.851562 -12.628906 C 16.847656 -12.640625 16.839844 -12.648438 16.828125 -12.660156 C 16.816406 -12.671875 16.804688 -12.679688 16.796875 -12.6875 C 16.804688 -12.679688 16.824219 -12.671875 16.847656 -12.664062 C 16.988281 -12.617188 17.183594 -12.59375 17.4375 -12.59375 L 21.449219 -12.59375 C 21.703125 -12.59375 21.898438 -12.617188 22.035156 -12.664062 C 22.0625 -12.671875 22.078125 -12.679688 22.089844 -12.6875 C 22.078125 -12.679688 22.070312 -12.671875 22.058594 -12.660156 C 22.046875 -12.648438 22.039062 -12.640625 22.035156 -12.628906 C 22.039062 -12.640625 22.046875 -12.65625 22.054688 -12.683594 C 22.101562 -12.820312 22.125 -13.015625 22.125 -13.269531 L 22.125 -52.464844 C 22.125 -53.542969 22.511719 -54.46875 23.292969 -55.25 C 24.070312 -56.027344 25 -56.417969 26.078125 -56.417969 Z M 26.078125 -51.597656 C 26.332031 -51.597656 26.539062 -51.675781 26.703125 -51.839844 C 26.863281 -52 26.945312 -52.210938 26.945312 -52.464844 L 26.945312 -13.269531 C 26.945312 -11.574219 26.453125 -10.234375 25.46875 -9.25 C 24.484375 -8.265625 23.144531 -7.773438 21.449219 -7.773438 L 17.4375 -7.773438 C 15.742188 -7.773438 14.402344 -8.265625 13.417969 -9.25 C 12.433594 -10.234375 11.9375 -11.574219 11.9375 -13.269531 L 11.9375 -52.464844 C 11.9375 -52.210938 12.019531 -52 12.183594 -51.839844 C 12.34375 -51.675781 12.554688 -51.597656 12.808594 -51.597656 L 5.402344 -51.597656 C 5.65625 -51.597656 5.863281 -51.675781 6.027344 -51.839844 C 6.1875 -52 6.269531 -52.210938 6.269531 -52.464844 L 6.269531 -11.109375 C 6.269531 -8.175781 6.984375 -5.992188 8.417969 -4.558594 C 9.851562 -3.128906 12.03125 -2.410156 14.96875 -2.410156 L 23.609375 -2.410156 C 26.589844 -2.410156 28.78125 -3.125 30.1875 -4.546875 C 31.601562 -5.980469 32.308594 -8.167969 32.308594 -11.109375 L 32.308594 -52.464844 C 32.308594 -52.210938 32.390625 -52 32.550781 -51.839844 C 32.714844 -51.675781 32.921875 -51.597656 33.175781 -51.597656 Z M 26.078125 -51.597656 "/></g></g><g style="fill:#b21a22;fill-opacity:1;"><g transform="translate(198.181271, 271.596419)"><path style="stroke:none" d="M 37.128906 -42.898438 L 37.128906 -27.390625 C 37.128906 -22.023438 35.3125 -18.203125 31.675781 -15.933594 L 30.398438 -17.976562 L 32.742188 -18.542969 L 36.753906 -1.957031 L 34.410156 -1.390625 L 36.734375 -2.035156 C 37.078125 -0.792969 36.914062 0.261719 36.238281 1.132812 C 35.574219 1.984375 34.605469 2.410156 33.332031 2.410156 L 25.769531 2.410156 C 24.832031 2.410156 24.03125 2.136719 23.367188 1.589844 C 22.71875 1.054688 22.292969 0.332031 22.101562 -0.574219 L 24.457031 -1.082031 L 22.113281 -0.507812 L 18.410156 -15.707031 L 20.753906 -16.28125 L 20.753906 -13.867188 L 13.886719 -13.867188 L 13.886719 -16.28125 L 16.300781 -16.28125 L 16.300781 -1.234375 C 16.300781 -0.15625 15.960938 0.71875 15.285156 1.394531 C 14.609375 2.074219 13.730469 2.410156 12.652344 2.410156 L 5.09375 2.410156 C 4.015625 2.410156 3.136719 2.074219 2.460938 1.394531 C 1.785156 0.71875 1.445312 -0.15625 1.445312 -1.234375 L 1.445312 -52.773438 C 1.445312 -53.851562 1.785156 -54.726562 2.460938 -55.402344 C 3.136719 -56.082031 4.015625 -56.417969 5.09375 -56.417969 L 23.609375 -56.417969 C 27.925781 -56.417969 31.261719 -55.246094 33.609375 -52.894531 C 35.957031 -50.546875 37.128906 -47.214844 37.128906 -42.898438 Z M 32.308594 -42.898438 C 32.308594 -45.882812 31.605469 -48.078125 30.199219 -49.488281 C 28.792969 -50.894531 26.59375 -51.597656 23.609375 -51.597656 L 5.09375 -51.597656 C 5.148438 -51.597656 5.222656 -51.613281 5.316406 -51.644531 C 5.519531 -51.710938 5.707031 -51.828125 5.871094 -51.992188 C 6.035156 -52.160156 6.152344 -52.34375 6.222656 -52.550781 C 6.253906 -52.644531 6.269531 -52.71875 6.269531 -52.773438 L 6.269531 -1.234375 C 6.269531 -1.289062 6.253906 -1.363281 6.222656 -1.457031 C 6.152344 -1.664062 6.035156 -1.847656 5.871094 -2.011719 C 5.707031 -2.179688 5.519531 -2.296875 5.316406 -2.363281 C 5.222656 -2.394531 5.148438 -2.410156 5.09375 -2.410156 L 12.652344 -2.410156 C 12.597656 -2.410156 12.523438 -2.394531 12.429688 -2.363281 C 12.226562 -2.296875 12.039062 -2.179688 11.875 -2.011719 C 11.707031 -1.847656 11.589844 -1.664062 11.523438 -1.457031 C 11.492188 -1.363281 11.476562 -1.289062 11.476562 -1.234375 L 11.476562 -18.691406 L 22.648438 -18.691406 L 26.808594 -1.617188 L 26.816406 -1.585938 C 26.773438 -1.773438 26.648438 -1.957031 26.433594 -2.132812 C 26.207031 -2.316406 25.984375 -2.410156 25.769531 -2.410156 L 33.332031 -2.410156 C 33.28125 -2.402344 33.222656 -2.386719 33.160156 -2.367188 C 32.875 -2.265625 32.632812 -2.089844 32.429688 -1.828125 C 32.222656 -1.558594 32.105469 -1.269531 32.082031 -0.960938 C 32.074219 -0.855469 32.078125 -0.78125 32.085938 -0.742188 L 32.078125 -0.78125 L 27.644531 -19.101562 L 29.121094 -20.023438 C 31.246094 -21.347656 32.308594 -23.804688 32.308594 -27.390625 Z M 13.886719 -28.644531 L 21.601562 -28.644531 C 21.855469 -28.644531 22.050781 -28.667969 22.191406 -28.710938 C 22.214844 -28.722656 22.234375 -28.726562 22.242188 -28.734375 C 22.234375 -28.726562 22.222656 -28.71875 22.210938 -28.707031 C 22.203125 -28.699219 22.191406 -28.6875 22.1875 -28.679688 C 22.191406 -28.6875 22.199219 -28.707031 22.207031 -28.730469 C 22.253906 -28.867188 22.277344 -29.066406 22.277344 -29.320312 L 22.277344 -40.96875 C 22.277344 -41.222656 22.253906 -41.417969 22.207031 -41.554688 C 22.199219 -41.582031 22.191406 -41.597656 22.1875 -41.609375 C 22.191406 -41.601562 22.203125 -41.589844 22.210938 -41.578125 C 22.222656 -41.566406 22.234375 -41.558594 22.242188 -41.554688 C 22.234375 -41.558594 22.214844 -41.566406 22.191406 -41.574219 C 22.050781 -41.621094 21.855469 -41.644531 21.601562 -41.644531 L 13.886719 -41.644531 L 13.886719 -44.054688 L 16.300781 -44.054688 L 16.300781 -26.230469 L 13.886719 -26.230469 Z M 11.476562 -23.820312 L 11.476562 -46.464844 L 21.601562 -46.464844 C 23.296875 -46.464844 24.636719 -45.972656 25.621094 -44.988281 C 26.609375 -44.003906 27.101562 -42.664062 27.101562 -40.96875 L 27.101562 -29.320312 C 27.101562 -27.625 26.609375 -26.285156 25.621094 -25.296875 C 24.636719 -24.3125 23.296875 -23.820312 21.601562 -23.820312 Z M 11.476562 -23.820312 "/></g></g><g style="fill:#b21a22;fill-opacity:1;"><g transform="translate(236.745873, 271.596419)"><path style="stroke:none" d="M 5.09375 -2.410156 L 13.117188 -2.410156 C 13.0625 -2.410156 12.988281 -2.394531 12.894531 -2.363281 C 12.6875 -2.296875 12.503906 -2.179688 12.335938 -2.011719 C 12.171875 -1.847656 12.054688 -1.664062 11.984375 -1.457031 C 11.953125 -1.363281 11.9375 -1.289062 11.9375 -1.234375 L 11.9375 -52.773438 C 11.9375 -52.71875 11.953125 -52.644531 11.984375 -52.550781 C 12.054688 -52.34375 12.171875 -52.160156 12.335938 -51.992188 C 12.503906 -51.828125 12.6875 -51.710938 12.894531 -51.644531 C 12.988281 -51.613281 13.0625 -51.597656 13.117188 -51.597656 L 5.09375 -51.597656 C 5.148438 -51.597656 5.222656 -51.613281 5.316406 -51.644531 C 5.519531 -51.710938 5.707031 -51.828125 5.871094 -51.992188 C 6.035156 -52.160156 6.152344 -52.34375 6.222656 -52.550781 C 6.253906 -52.644531 6.269531 -52.71875 6.269531 -52.773438 L 6.269531 -1.234375 C 6.269531 -1.289062 6.253906 -1.363281 6.222656 -1.457031 C 6.152344 -1.664062 6.035156 -1.847656 5.871094 -2.011719 C 5.707031 -2.179688 5.519531 -2.296875 5.316406 -2.363281 C 5.222656 -2.394531 5.148438 -2.410156 5.09375 -2.410156 Z M 5.09375 2.410156 C 4.015625 2.410156 3.136719 2.074219 2.460938 1.394531 C 1.785156 0.71875 1.445312 -0.15625 1.445312 -1.234375 L 1.445312 -52.773438 C 1.445312 -53.851562 1.785156 -54.726562 2.460938 -55.402344 C 3.136719 -56.082031 4.015625 -56.417969 5.09375 -56.417969 L 13.117188 -56.417969 C 14.195312 -56.417969 15.070312 -56.082031 15.746094 -55.402344 C 16.421875 -54.726562 16.761719 -53.851562 16.761719 -52.773438 L 16.761719 -1.234375 C 16.761719 -0.15625 16.421875 0.71875 15.746094 1.394531 C 15.070312 2.074219 14.195312 2.410156 13.117188 2.410156 Z M 5.09375 2.410156 "/></g></g><g style="fill:#b21a22;fill-opacity:1;"><g transform="translate(254.948353, 271.596419)"><path style="stroke:none" d="M 31.941406 -51.597656 L 3.550781 -51.597656 C 3.605469 -51.597656 3.679688 -51.613281 3.773438 -51.644531 C 3.976562 -51.710938 4.164062 -51.828125 4.328125 -51.992188 C 4.492188 -52.160156 4.609375 -52.34375 4.679688 -52.550781 C 4.710938 -52.644531 4.726562 -52.71875 4.726562 -52.773438 L 4.726562 -45.058594 C 4.726562 -45.113281 4.710938 -45.1875 4.679688 -45.28125 C 4.609375 -45.484375 4.492188 -45.671875 4.328125 -45.835938 C 4.164062 -46.003906 3.976562 -46.121094 3.773438 -46.1875 C 3.679688 -46.21875 3.605469 -46.234375 3.550781 -46.234375 L 14.910156 -46.234375 L 14.910156 -1.234375 C 14.910156 -1.289062 14.894531 -1.363281 14.863281 -1.457031 C 14.796875 -1.664062 14.679688 -1.847656 14.511719 -2.011719 C 14.347656 -2.179688 14.160156 -2.296875 13.957031 -2.363281 C 13.863281 -2.394531 13.789062 -2.410156 13.734375 -2.410156 L 21.757812 -2.410156 C 21.703125 -2.410156 21.628906 -2.394531 21.535156 -2.363281 C 21.328125 -2.296875 21.144531 -2.179688 20.976562 -2.011719 C 20.8125 -1.847656 20.695312 -1.664062 20.628906 -1.457031 C 20.597656 -1.363281 20.582031 -1.289062 20.582031 -1.234375 L 20.582031 -46.234375 L 31.941406 -46.234375 C 31.886719 -46.234375 31.8125 -46.21875 31.71875 -46.1875 C 31.511719 -46.121094 31.328125 -46.003906 31.164062 -45.835938 C 30.996094 -45.671875 30.878906 -45.484375 30.8125 -45.28125 C 30.78125 -45.1875 30.765625 -45.113281 30.765625 -45.058594 L 30.765625 -52.773438 C 30.765625 -52.71875 30.78125 -52.644531 30.8125 -52.550781 C 30.878906 -52.34375 30.996094 -52.160156 31.164062 -51.992188 C 31.328125 -51.828125 31.511719 -51.710938 31.71875 -51.644531 C 31.8125 -51.613281 31.886719 -51.597656 31.941406 -51.597656 Z M 31.941406 -56.417969 C 33.019531 -56.417969 33.894531 -56.082031 34.574219 -55.402344 C 35.25 -54.726562 35.585938 -53.851562 35.585938 -52.773438 L 35.585938 -45.058594 C 35.585938 -43.980469 35.25 -43.101562 34.574219 -42.425781 C 33.894531 -41.75 33.019531 -41.410156 31.941406 -41.410156 L 22.992188 -41.410156 L 22.992188 -43.824219 L 25.402344 -43.824219 L 25.402344 -1.234375 C 25.402344 -0.15625 25.066406 0.71875 24.386719 1.394531 C 23.710938 2.074219 22.835938 2.410156 21.757812 2.410156 L 13.734375 2.410156 C 12.65625 2.410156 11.777344 2.074219 11.101562 1.394531 C 10.425781 0.71875 10.085938 -0.15625 10.085938 -1.234375 L 10.085938 -43.824219 L 12.5 -43.824219 L 12.5 -41.410156 L 3.550781 -41.410156 C 2.472656 -41.410156 1.59375 -41.75 0.917969 -42.425781 C 0.242188 -43.101562 -0.0976562 -43.980469 -0.0976562 -45.058594 L -0.0976562 -52.773438 C -0.0976562 -53.851562 0.242188 -54.726562 0.917969 -55.402344 C 1.59375 -56.082031 2.472656 -56.417969 3.550781 -56.417969 Z M 31.941406 -56.417969 "/></g></g><g style="fill:#b21a22;fill-opacity:1;"><g transform="translate(290.42779, 271.596419)"><path style="stroke:none" d="M 30.707031 -56.417969 L 38.421875 -56.417969 C 39.78125 -56.417969 40.828125 -55.9375 41.566406 -54.976562 C 42.03125 -54.375 42.261719 -53.695312 42.261719 -52.9375 C 42.261719 -52.34375 42.113281 -51.75 41.8125 -51.15625 L 39.65625 -52.234375 L 41.863281 -51.261719 L 27.742188 -19.242188 L 25.539062 -20.214844 L 27.949219 -20.214844 L 27.949219 -1.542969 C 27.949219 -0.363281 27.585938 0.589844 26.855469 1.320312 C 26.128906 2.046875 25.175781 2.410156 23.996094 2.410156 L 16.589844 2.410156 C 15.40625 2.410156 14.453125 2.046875 13.726562 1.320312 C 12.996094 0.589844 12.632812 -0.363281 12.632812 -1.542969 L 12.632812 -20.214844 L 15.046875 -20.214844 L 12.839844 -19.242188 L -1.296875 -51.296875 L -1.3125 -51.335938 C -1.839844 -52.652344 -1.742188 -53.835938 -1.019531 -54.878906 C -0.308594 -55.90625 0.753906 -56.417969 2.160156 -56.417969 L 9.875 -56.417969 C 10.816406 -56.417969 11.640625 -56.171875 12.351562 -55.679688 C 13.058594 -55.1875 13.578125 -54.5 13.90625 -53.621094 L 11.648438 -52.773438 L 13.859375 -53.738281 L 22.5 -33.90625 L 20.292969 -32.945312 L 18.082031 -33.90625 L 26.722656 -53.738281 L 28.933594 -52.773438 L 26.675781 -53.621094 C 27.003906 -54.5 27.523438 -55.1875 28.230469 -55.679688 C 28.941406 -56.171875 29.765625 -56.417969 30.707031 -56.417969 Z M 30.707031 -51.597656 C 30.773438 -51.597656 30.867188 -51.636719 30.984375 -51.71875 C 31.101562 -51.800781 31.167969 -51.867188 31.191406 -51.925781 L 31.167969 -51.867188 L 20.292969 -26.910156 L 9.414062 -51.867188 L 9.390625 -51.925781 C 9.414062 -51.867188 9.484375 -51.800781 9.597656 -51.71875 C 9.714844 -51.636719 9.808594 -51.597656 9.875 -51.597656 L 2.160156 -51.597656 C 2.199219 -51.597656 2.269531 -51.617188 2.371094 -51.660156 C 2.601562 -51.757812 2.796875 -51.914062 2.945312 -52.132812 C 3.101562 -52.355469 3.183594 -52.601562 3.191406 -52.863281 C 3.195312 -52.988281 3.1875 -53.074219 3.164062 -53.128906 L 0.925781 -52.234375 L 3.132812 -53.207031 L 17.457031 -20.722656 L 17.457031 -1.542969 C 17.457031 -1.53125 17.457031 -1.523438 17.457031 -1.515625 C 17.457031 -1.515625 17.457031 -1.519531 17.457031 -1.523438 C 17.453125 -1.554688 17.441406 -1.589844 17.429688 -1.628906 C 17.375 -1.796875 17.277344 -1.949219 17.136719 -2.089844 C 16.996094 -2.230469 16.84375 -2.328125 16.675781 -2.382812 C 16.632812 -2.398438 16.597656 -2.40625 16.566406 -2.410156 C 16.5625 -2.410156 16.5625 -2.410156 16.5625 -2.410156 C 16.570312 -2.410156 16.578125 -2.410156 16.589844 -2.410156 L 23.996094 -2.410156 C 24.003906 -2.410156 24.015625 -2.410156 24.019531 -2.410156 C 24.019531 -2.410156 24.019531 -2.410156 24.015625 -2.410156 C 23.984375 -2.40625 23.949219 -2.398438 23.90625 -2.382812 C 23.742188 -2.328125 23.585938 -2.230469 23.445312 -2.089844 C 23.308594 -1.949219 23.210938 -1.796875 23.152344 -1.628906 C 23.140625 -1.589844 23.132812 -1.554688 23.125 -1.523438 C 23.125 -1.519531 23.125 -1.515625 23.125 -1.515625 C 23.125 -1.523438 23.125 -1.53125 23.125 -1.542969 L 23.125 -20.722656 L 37.472656 -53.257812 L 37.5 -53.3125 C 37.460938 -53.230469 37.4375 -53.105469 37.4375 -52.9375 C 37.4375 -52.601562 37.539062 -52.300781 37.746094 -52.035156 C 37.882812 -51.859375 38.050781 -51.730469 38.246094 -51.648438 C 38.332031 -51.613281 38.390625 -51.597656 38.421875 -51.597656 Z M 30.707031 -51.597656 "/></g></g><g style="fill:#060705;fill-opacity:1;"><g transform="translate(55.229436, 164.03121)"><path style="stroke:none" d="M 40.28125 0 L 32.796875 0 C 32.117188 0 31.707031 -0.359375 31.5625 -1.078125 L 29.09375 -10.796875 L 14.578125 -10.796875 L 12.1875 -1.078125 C 12.03125 -0.359375 11.617188 0 10.953125 0 L 3.390625 0 C 2.460938 0 2.128906 -0.4375 2.390625 -1.3125 L 15.203125 -52.921875 C 15.359375 -53.648438 15.796875 -54.015625 16.515625 -54.015625 L 27.234375 -54.015625 C 27.953125 -54.015625 28.390625 -53.648438 28.546875 -52.921875 L 41.359375 -1.3125 C 41.609375 -0.4375 41.25 0 40.28125 0 Z M 26.703125 -19.75 L 21.828125 -40.734375 L 16.96875 -19.75 Z M 26.703125 -19.75 "/></g></g><g style="fill:#060705;fill-opacity:1;"><g transform="translate(98.961703, 164.03121)"><path style="stroke:none" d="M 34.796875 -42.90625 L 34.796875 -34.5625 C 34.796875 -33.738281 34.382812 -33.328125 33.5625 -33.328125 L 26.3125 -33.328125 C 25.488281 -33.328125 25.078125 -33.738281 25.078125 -34.5625 L 25.078125 -40.890625 C 25.078125 -42.953125 24.046875 -43.984375 21.984375 -43.984375 L 17.046875 -43.984375 C 14.992188 -43.984375 13.96875 -42.953125 13.96875 -40.890625 L 13.96875 -12.890625 C 13.96875 -10.828125 14.992188 -9.796875 17.046875 -9.796875 L 21.984375 -9.796875 C 24.046875 -9.796875 25.078125 -10.828125 25.078125 -12.890625 L 25.078125 -19.4375 C 25.078125 -20.257812 25.488281 -20.671875 26.3125 -20.671875 L 33.5625 -20.671875 C 34.382812 -20.671875 34.796875 -20.257812 34.796875 -19.4375 L 34.796875 -11.109375 C 34.796875 -7.503906 33.84375 -4.75 31.9375 -2.84375 C 30.039062 -0.945312 27.289062 0 23.6875 0 L 15.046875 0 C 11.441406 0 8.675781 -0.945312 6.75 -2.84375 C 4.820312 -4.75 3.859375 -7.503906 3.859375 -11.109375 L 3.859375 -42.90625 C 3.859375 -46.550781 4.820312 -49.3125 6.75 -51.1875 C 8.675781 -53.070312 11.441406 -54.015625 15.046875 -54.015625 L 23.6875 -54.015625 C 27.289062 -54.015625 30.039062 -53.070312 31.9375 -51.1875 C 33.84375 -49.3125 34.796875 -46.550781 34.796875 -42.90625 Z M 34.796875 -42.90625 "/></g></g><g style="fill:#060705;fill-opacity:1;"><g transform="translate(137.603446, 164.03121)"><path style="stroke:none" d="M 31.9375 -54.015625 L 3.546875 -54.015625 C 2.722656 -54.015625 2.3125 -53.601562 2.3125 -52.78125 L 2.3125 -45.0625 C 2.3125 -44.238281 2.722656 -43.828125 3.546875 -43.828125 L 12.5 -43.828125 L 12.5 -1.234375 C 12.5 -0.410156 12.910156 0 13.734375 0 L 21.765625 0 C 22.585938 0 23 -0.410156 23 -1.234375 L 23 -43.828125 L 31.9375 -43.828125 C 32.757812 -43.828125 33.171875 -44.238281 33.171875 -45.0625 L 33.171875 -52.78125 C 33.171875 -53.601562 32.757812 -54.015625 31.9375 -54.015625 Z M 31.9375 -54.015625 "/></g></g><g style="fill:#060705;fill-opacity:1;"><g transform="translate(173.082883, 164.03121)"><path style="stroke:none" d="M 5.09375 0 L 13.109375 0 C 13.929688 0 14.34375 -0.410156 14.34375 -1.234375 L 14.34375 -52.78125 C 14.34375 -53.601562 13.929688 -54.015625 13.109375 -54.015625 L 5.09375 -54.015625 C 4.269531 -54.015625 3.859375 -53.601562 3.859375 -52.78125 L 3.859375 -1.234375 C 3.859375 -0.410156 4.269531 0 5.09375 0 Z M 5.09375 0 "/></g></g><g style="fill:#060705;fill-opacity:1;"><g transform="translate(191.285363, 164.03121)"><path style="stroke:none" d="M 29.546875 -54.015625 L 36.578125 -54.015625 C 37.753906 -54.015625 38.210938 -53.445312 37.953125 -52.3125 L 25.6875 -1.390625 C 25.488281 -0.460938 24.925781 0 24 0 L 16.28125 0 C 15.40625 0 14.835938 -0.460938 14.578125 -1.390625 L 2.390625 -52.3125 C 2.128906 -53.445312 2.59375 -54.015625 3.78125 -54.015625 L 10.796875 -54.015625 C 11.722656 -54.015625 12.289062 -53.550781 12.5 -52.625 L 20.140625 -17.75 L 27.859375 -52.625 C 28.109375 -53.550781 28.671875 -54.015625 29.546875 -54.015625 Z M 29.546875 -54.015625 "/></g></g><g style="fill:#060705;fill-opacity:1;"><g transform="translate(231.623928, 164.03121)"><path style="stroke:none" d="M 34.640625 -52.78125 L 34.640625 -45.0625 C 34.640625 -44.1875 34.226562 -43.75 33.40625 -43.75 L 14.34375 -43.75 L 14.34375 -31.859375 L 28.859375 -31.859375 C 29.679688 -31.859375 30.09375 -31.421875 30.09375 -30.546875 L 30.09375 -22.921875 C 30.09375 -22.046875 29.679688 -21.609375 28.859375 -21.609375 L 14.34375 -21.609375 L 14.34375 -10.1875 L 33.40625 -10.1875 C 34.226562 -10.1875 34.640625 -9.773438 34.640625 -8.953125 L 34.640625 -1.234375 C 34.640625 -0.410156 34.226562 0 33.40625 0 L 5.015625 0 C 4.242188 0 3.859375 -0.410156 3.859375 -1.234375 L 3.859375 -52.78125 C 3.859375 -53.601562 4.242188 -54.015625 5.015625 -54.015625 L 33.40625 -54.015625 C 34.226562 -54.015625 34.640625 -53.601562 34.640625 -52.78125 Z M 34.640625 -52.78125 "/></g></g><g style="fill:#060705;fill-opacity:1;"><g transform="translate(270.111388, 164.03121)"><path style="stroke:none" d="M 0 10.34375 L 0 3.234375 C 0 2.210938 0.515625 1.703125 1.546875 1.703125 L 48.0625 1.703125 C 49.09375 1.703125 49.609375 2.210938 49.609375 3.234375 L 49.609375 10.34375 C 49.609375 11.363281 49.09375 11.875 48.0625 11.875 L 1.546875 11.875 C 0.515625 11.875 0 11.363281 0 10.34375 Z M 0 10.34375 "/></g></g><g style="fill:#060705;fill-opacity:1;"><g transform="translate(43.922866, 271.596419)"><path style="stroke:none" d="M 14.96875 -54.015625 L 23.609375 -54.015625 C 27.265625 -54.015625 30.03125 -53.070312 31.90625 -51.1875 C 33.78125 -49.3125 34.71875 -46.550781 34.71875 -42.90625 L 34.71875 -37.8125 C 34.71875 -36.988281 34.304688 -36.578125 33.484375 -36.578125 L 25.6875 -36.578125 C 24.863281 -36.578125 24.453125 -36.988281 24.453125 -37.8125 L 24.453125 -41.046875 C 24.453125 -43.109375 23.425781 -44.140625 21.375 -44.140625 L 17.125 -44.140625 C 15.070312 -44.140625 14.046875 -43.109375 14.046875 -41.046875 L 14.046875 -34.484375 L 32.71875 -28.46875 C 34.050781 -28.007812 34.71875 -27.054688 34.71875 -25.609375 L 34.71875 -11.109375 C 34.71875 -7.503906 33.78125 -4.75 31.90625 -2.84375 C 30.03125 -0.945312 27.265625 0 23.609375 0 L 14.96875 0 C 11.363281 0 8.609375 -0.945312 6.703125 -2.84375 C 4.804688 -4.75 3.859375 -7.503906 3.859375 -11.109375 L 3.859375 -16.125 C 3.859375 -16.945312 4.269531 -17.359375 5.09375 -17.359375 L 12.890625 -17.359375 C 13.710938 -17.359375 14.125 -16.945312 14.125 -16.125 L 14.125 -12.890625 C 14.125 -10.828125 15.148438 -9.796875 17.203125 -9.796875 L 21.375 -9.796875 C 23.425781 -9.796875 24.453125 -10.828125 24.453125 -12.890625 L 24.453125 -20.671875 L 5.9375 -26.703125 C 4.550781 -27.160156 3.859375 -28.109375 3.859375 -29.546875 L 3.859375 -42.90625 C 3.859375 -46.550781 4.804688 -49.3125 6.703125 -51.1875 C 8.609375 -53.070312 11.363281 -54.015625 14.96875 -54.015625 Z M 14.96875 -54.015625 "/></g></g><g style="fill:#060705;fill-opacity:1;"><g transform="translate(82.487467, 271.596419)"><path style="stroke:none" d="M 34.640625 -52.78125 L 34.640625 -45.0625 C 34.640625 -44.1875 34.226562 -43.75 33.40625 -43.75 L 14.34375 -43.75 L 14.34375 -31.859375 L 28.859375 -31.859375 C 29.679688 -31.859375 30.09375 -31.421875 30.09375 -30.546875 L 30.09375 -22.921875 C 30.09375 -22.046875 29.679688 -21.609375 28.859375 -21.609375 L 14.34375 -21.609375 L 14.34375 -10.1875 L 33.40625 -10.1875 C 34.226562 -10.1875 34.640625 -9.773438 34.640625 -8.953125 L 34.640625 -1.234375 C 34.640625 -0.410156 34.226562 0 33.40625 0 L 5.015625 0 C 4.242188 0 3.859375 -0.410156 3.859375 -1.234375 L 3.859375 -52.78125 C 3.859375 -53.601562 4.242188 -54.015625 5.015625 -54.015625 L 33.40625 -54.015625 C 34.226562 -54.015625 34.640625 -53.601562 34.640625 -52.78125 Z M 34.640625 -52.78125 "/></g></g><g style="fill:#060705;fill-opacity:1;"><g transform="translate(120.974927, 271.596419)"><path style="stroke:none" d="M 34.796875 -42.90625 L 34.796875 -34.5625 C 34.796875 -33.738281 34.382812 -33.328125 33.5625 -33.328125 L 26.3125 -33.328125 C 25.488281 -33.328125 25.078125 -33.738281 25.078125 -34.5625 L 25.078125 -40.890625 C 25.078125 -42.953125 24.046875 -43.984375 21.984375 -43.984375 L 17.046875 -43.984375 C 14.992188 -43.984375 13.96875 -42.953125 13.96875 -40.890625 L 13.96875 -12.890625 C 13.96875 -10.828125 14.992188 -9.796875 17.046875 -9.796875 L 21.984375 -9.796875 C 24.046875 -9.796875 25.078125 -10.828125 25.078125 -12.890625 L 25.078125 -19.4375 C 25.078125 -20.257812 25.488281 -20.671875 26.3125 -20.671875 L 33.5625 -20.671875 C 34.382812 -20.671875 34.796875 -20.257812 34.796875 -19.4375 L 34.796875 -11.109375 C 34.796875 -7.503906 33.84375 -4.75 31.9375 -2.84375 C 30.039062 -0.945312 27.289062 0 23.6875 0 L 15.046875 0 C 11.441406 0 8.675781 -0.945312 6.75 -2.84375 C 4.820312 -4.75 3.859375 -7.503906 3.859375 -11.109375 L 3.859375 -42.90625 C 3.859375 -46.550781 4.820312 -49.3125 6.75 -51.1875 C 8.675781 -53.070312 11.441406 -54.015625 15.046875 -54.015625 L 23.6875 -54.015625 C 27.289062 -54.015625 30.039062 -53.070312 31.9375 -51.1875 C 33.84375 -49.3125 34.796875 -46.550781 34.796875 -42.90625 Z M 34.796875 -42.90625 "/></g></g><g style="fill:#060705;fill-opacity:1;"><g transform="translate(159.61667, 271.596419)"><path style="stroke:none" d="M 26.078125 -54.015625 L 33.171875 -54.015625 C 33.585938 -54.015625 33.945312 -53.859375 34.25 -53.546875 C 34.5625 -53.234375 34.71875 -52.875 34.71875 -52.46875 L 34.71875 -11.109375 C 34.71875 -7.503906 33.78125 -4.75 31.90625 -2.84375 C 30.03125 -0.945312 27.265625 0 23.609375 0 L 14.96875 0 C 11.363281 0 8.609375 -0.945312 6.703125 -2.84375 C 4.804688 -4.75 3.859375 -7.503906 3.859375 -11.109375 L 3.859375 -52.46875 C 3.859375 -52.875 4.007812 -53.234375 4.3125 -53.546875 C 4.625 -53.859375 4.988281 -54.015625 5.40625 -54.015625 L 12.8125 -54.015625 C 13.21875 -54.015625 13.570312 -53.859375 13.875 -53.546875 C 14.1875 -53.234375 14.34375 -52.875 14.34375 -52.46875 L 14.34375 -13.265625 C 14.34375 -11.210938 15.375 -10.1875 17.4375 -10.1875 L 21.453125 -10.1875 C 23.503906 -10.1875 24.53125 -11.210938 24.53125 -13.265625 L 24.53125 -52.46875 C 24.53125 -52.875 24.6875 -53.234375 25 -53.546875 C 25.3125 -53.859375 25.671875 -54.015625 26.078125 -54.015625 Z M 26.078125 -54.015625 "/></g></g><g style="fill:#060705;fill-opacity:1;"><g transform="translate(198.181271, 271.596419)"><path style="stroke:none" d="M 34.71875 -42.90625 L 34.71875 -27.390625 C 34.71875 -22.910156 33.28125 -19.773438 30.40625 -17.984375 L 34.40625 -1.390625 C 34.664062 -0.460938 34.304688 0 33.328125 0 L 25.765625 0 C 25.046875 0 24.609375 -0.359375 24.453125 -1.078125 L 20.75 -16.28125 L 13.890625 -16.28125 L 13.890625 -1.234375 C 13.890625 -0.410156 13.476562 0 12.65625 0 L 5.09375 0 C 4.269531 0 3.859375 -0.410156 3.859375 -1.234375 L 3.859375 -52.78125 C 3.859375 -53.601562 4.269531 -54.015625 5.09375 -54.015625 L 23.609375 -54.015625 C 27.265625 -54.015625 30.03125 -53.070312 31.90625 -51.1875 C 33.78125 -49.3125 34.71875 -46.550781 34.71875 -42.90625 Z M 13.890625 -26.234375 L 21.609375 -26.234375 C 23.660156 -26.234375 24.6875 -27.257812 24.6875 -29.3125 L 24.6875 -40.96875 C 24.6875 -43.03125 23.660156 -44.0625 21.609375 -44.0625 L 13.890625 -44.0625 Z M 13.890625 -26.234375 "/></g></g><g style="fill:#060705;fill-opacity:1;"><g transform="translate(236.745873, 271.596419)"><path style="stroke:none" d="M 5.09375 0 L 13.109375 0 C 13.929688 0 14.34375 -0.410156 14.34375 -1.234375 L 14.34375 -52.78125 C 14.34375 -53.601562 13.929688 -54.015625 13.109375 -54.015625 L 5.09375 -54.015625 C 4.269531 -54.015625 3.859375 -53.601562 3.859375 -52.78125 L 3.859375 -1.234375 C 3.859375 -0.410156 4.269531 0 5.09375 0 Z M 5.09375 0 "/></g></g><g style="fill:#060705;fill-opacity:1;"><g transform="translate(254.948353, 271.596419)"><path style="stroke:none" d="M 31.9375 -54.015625 L 3.546875 -54.015625 C 2.722656 -54.015625 2.3125 -53.601562 2.3125 -52.78125 L 2.3125 -45.0625 C 2.3125 -44.238281 2.722656 -43.828125 3.546875 -43.828125 L 12.5 -43.828125 L 12.5 -1.234375 C 12.5 -0.410156 12.910156 0 13.734375 0 L 21.765625 0 C 22.585938 0 23 -0.410156 23 -1.234375 L 23 -43.828125 L 31.9375 -43.828125 C 32.757812 -43.828125 33.171875 -44.238281 33.171875 -45.0625 L 33.171875 -52.78125 C 33.171875 -53.601562 32.757812 -54.015625 31.9375 -54.015625 Z M 31.9375 -54.015625 "/></g></g><g style="fill:#060705;fill-opacity:1;"><g transform="translate(290.42779, 271.596419)"><path style="stroke:none" d="M 30.703125 -54.015625 L 38.421875 -54.015625 C 38.984375 -54.015625 39.394531 -53.84375 39.65625 -53.5 C 39.914062 -53.164062 39.914062 -52.742188 39.65625 -52.234375 L 25.53125 -20.21875 L 25.53125 -1.546875 C 25.53125 -0.515625 25.019531 0 24 0 L 16.59375 0 C 15.5625 0 15.046875 -0.515625 15.046875 -1.546875 L 15.046875 -20.21875 L 0.921875 -52.234375 C 0.722656 -52.742188 0.738281 -53.164062 0.96875 -53.5 C 1.195312 -53.84375 1.59375 -54.015625 2.15625 -54.015625 L 9.875 -54.015625 C 10.75 -54.015625 11.34375 -53.601562 11.65625 -52.78125 L 20.296875 -32.953125 L 28.9375 -52.78125 C 29.238281 -53.601562 29.828125 -54.015625 30.703125 -54.015625 Z M 30.703125 -54.015625 "/></g></g></g></svg>