<svg xmlns="http://www.w3.org/2000/svg" xmlns:xlink="http://www.w3.org/1999/xlink" width="128" zoomAndPan="magnify" viewBox="0 0 96 95.999999" height="128" preserveAspectRatio="xMidYMid meet" version="1.2"><defs><clipPath id="e653a4cc9a"><path d="M 6 0 L 90 0 L 90 96 L 6 96 Z M 6 0 "/></clipPath><clipPath id="6d438aefc7"><path d="M -14.304688 36.578125 L 68.691406 -11.898438 L 110.335938 59.402344 L 27.339844 107.878906 Z M -14.304688 36.578125 "/></clipPath><clipPath id="d04247e9ad"><path d="M 89.484375 23.769531 L 89.5625 71.535156 L 48.082031 95.765625 L 6.515625 72.226562 L 6.4375 24.464844 L 47.921875 0.234375 Z M 89.484375 23.769531 "/></clipPath><clipPath id="0169081e3a"><path d="M 14.140625 9.121094 L 81.851562 9.121094 L 81.851562 86.839844 L 14.140625 86.839844 Z M 14.140625 9.121094 "/></clipPath></defs><g id="47a4531f44"><g clip-rule="nonzero" clip-path="url(#e653a4cc9a)"><g clip-rule="nonzero" clip-path="url(#6d438aefc7)"><g clip-rule="nonzero" clip-path="url(#d04247e9ad)"><path style=" stroke:none;fill-rule:nonzero;fill:#65b30e;fill-opacity:1;" d="M -14.304688 36.578125 L 68.691406 -11.898438 L 110.335938 59.402344 L 27.339844 107.878906 Z M -14.304688 36.578125 "/></g></g></g><path style=" stroke:none;fill-rule:nonzero;fill:#87ff00;fill-opacity:1;" d="M 34.453125 34.738281 L 34.410156 34.695312 L 24.839844 44.265625 L 48.074219 67.457031 L 57.644531 57.933594 L 71.308594 44.265625 L 61.738281 34.695312 L 61.738281 34.652344 L 34.410156 34.652344 Z M 34.453125 34.738281 "/><g clip-rule="nonzero" clip-path="url(#0169081e3a)"><path style=" stroke:none;fill-rule:nonzero;fill:#87ff00;fill-opacity:1;" d="M 47.988281 9.179688 L 14.148438 28.574219 L 14.148438 67.371094 L 47.988281 86.769531 L 81.828125 67.371094 L 81.828125 28.574219 Z M 75.359375 63.664062 L 47.988281 79.4375 L 20.613281 63.664062 L 20.617188 32.195312 L 47.988281 16.417969 L 75.363281 32.195312 L 75.363281 63.664062 Z M 75.359375 63.664062 "/></g><g style="fill:#b21a22;fill-opacity:1;"><g transform="translate(24.072864, 29.966743)"><path style="stroke:none" d="M 8.429688 -13.171875 L 10.804688 -13.171875 C 11.082031 -13.171875 11.304688 -13.085938 11.472656 -12.914062 C 11.644531 -12.746094 11.730469 -12.523438 11.730469 -12.246094 L 11.730469 -0.359375 C 11.730469 -0.0859375 11.644531 0.136719 11.472656 0.308594 C 11.304688 0.476562 11.082031 0.5625 10.804688 0.5625 L 9.132812 0.5625 C 8.855469 0.5625 8.632812 0.476562 8.464844 0.308594 C 8.292969 0.136719 8.207031 -0.0859375 8.207031 -0.359375 L 8.207031 -7.4375 L 8.769531 -7.4375 L 8.769531 -6.875 L 8.644531 -6.875 L 8.644531 -7.4375 L 9.191406 -7.308594 L 7.496094 -0.160156 L 7.492188 -0.148438 C 7.425781 0.0703125 7.3125 0.242188 7.152344 0.367188 C 6.984375 0.5 6.785156 0.5625 6.554688 0.5625 L 5.492188 0.5625 C 5.261719 0.5625 5.0625 0.5 4.898438 0.367188 C 4.734375 0.242188 4.621094 0.0703125 4.558594 -0.148438 L 4.554688 -0.160156 L 2.855469 -7.308594 L 3.402344 -7.4375 L 3.402344 -6.875 L 3.277344 -6.875 L 3.277344 -7.4375 L 3.839844 -7.4375 L 3.839844 -0.359375 C 3.839844 -0.0859375 3.753906 0.136719 3.585938 0.308594 C 3.414062 0.476562 3.191406 0.5625 2.917969 0.5625 L 1.261719 0.5625 C 0.984375 0.5625 0.761719 0.476562 0.59375 0.308594 C 0.421875 0.136719 0.335938 -0.0859375 0.335938 -0.359375 L 0.335938 -12.246094 C 0.335938 -12.523438 0.421875 -12.746094 0.59375 -12.914062 C 0.761719 -13.085938 0.984375 -13.171875 1.261719 -13.171875 L 3.636719 -13.171875 C 3.867188 -13.171875 4.066406 -13.105469 4.234375 -12.976562 C 4.398438 -12.851562 4.511719 -12.679688 4.574219 -12.460938 L 4.578125 -12.449219 L 6.578125 -4.40625 L 6.035156 -4.269531 L 5.488281 -4.40625 L 7.488281 -12.449219 L 7.492188 -12.460938 C 7.558594 -12.679688 7.671875 -12.851562 7.832031 -12.976562 C 8 -13.105469 8.199219 -13.171875 8.429688 -13.171875 Z M 8.429688 -12.042969 C 8.453125 -12.042969 8.484375 -12.058594 8.519531 -12.085938 C 8.539062 -12.101562 8.554688 -12.117188 8.566406 -12.136719 C 8.570312 -12.140625 8.574219 -12.144531 8.574219 -12.148438 C 8.574219 -12.148438 8.574219 -12.144531 8.574219 -12.140625 L 8.03125 -12.300781 L 8.578125 -12.164062 L 6.578125 -4.132812 L 5.488281 -4.132812 L 3.488281 -12.164062 L 4.035156 -12.300781 L 3.496094 -12.140625 C 3.492188 -12.144531 3.492188 -12.148438 3.492188 -12.148438 C 3.492188 -12.144531 3.496094 -12.140625 3.5 -12.136719 C 3.511719 -12.117188 3.527344 -12.101562 3.546875 -12.085938 C 3.582031 -12.058594 3.613281 -12.042969 3.636719 -12.042969 L 1.261719 -12.042969 C 1.257812 -12.042969 1.257812 -12.042969 1.253906 -12.042969 C 1.253906 -12.042969 1.253906 -12.042969 1.257812 -12.042969 C 1.261719 -12.046875 1.273438 -12.046875 1.28125 -12.050781 C 1.320312 -12.0625 1.355469 -12.085938 1.386719 -12.121094 C 1.421875 -12.152344 1.445312 -12.1875 1.457031 -12.226562 C 1.460938 -12.234375 1.460938 -12.246094 1.464844 -12.25 C 1.464844 -12.253906 1.464844 -12.253906 1.464844 -12.253906 C 1.464844 -12.25 1.464844 -12.25 1.464844 -12.246094 L 1.464844 -0.359375 C 1.464844 -0.359375 1.464844 -0.355469 1.464844 -0.355469 C 1.460938 -0.363281 1.460938 -0.371094 1.457031 -0.378906 C 1.445312 -0.417969 1.421875 -0.457031 1.386719 -0.488281 C 1.355469 -0.519531 1.320312 -0.542969 1.28125 -0.554688 C 1.273438 -0.558594 1.261719 -0.5625 1.257812 -0.5625 C 1.253906 -0.5625 1.253906 -0.5625 1.253906 -0.5625 C 1.257812 -0.5625 1.257812 -0.5625 1.261719 -0.5625 L 2.917969 -0.5625 C 2.921875 -0.5625 2.921875 -0.5625 2.925781 -0.5625 C 2.925781 -0.5625 2.921875 -0.5625 2.921875 -0.5625 C 2.914062 -0.5625 2.90625 -0.558594 2.898438 -0.554688 C 2.859375 -0.542969 2.824219 -0.519531 2.789062 -0.488281 C 2.757812 -0.457031 2.734375 -0.417969 2.722656 -0.378906 C 2.71875 -0.371094 2.714844 -0.363281 2.714844 -0.355469 C 2.714844 -0.355469 2.714844 -0.359375 2.714844 -0.359375 L 2.714844 -8 L 3.847656 -8 L 5.644531 -0.4375 L 5.097656 -0.304688 L 5.636719 -0.464844 C 5.636719 -0.460938 5.636719 -0.460938 5.636719 -0.460938 C 5.636719 -0.464844 5.636719 -0.46875 5.632812 -0.472656 C 5.621094 -0.488281 5.605469 -0.507812 5.585938 -0.523438 C 5.550781 -0.550781 5.519531 -0.5625 5.492188 -0.5625 L 6.554688 -0.5625 C 6.53125 -0.5625 6.5 -0.550781 6.464844 -0.523438 C 6.445312 -0.507812 6.429688 -0.488281 6.417969 -0.472656 C 6.414062 -0.46875 6.410156 -0.464844 6.410156 -0.460938 C 6.410156 -0.460938 6.410156 -0.460938 6.410156 -0.464844 L 6.953125 -0.304688 L 6.40625 -0.4375 L 8.199219 -8 L 9.332031 -8 L 9.332031 -0.359375 C 9.332031 -0.359375 9.335938 -0.355469 9.335938 -0.355469 C 9.335938 -0.355469 9.335938 -0.355469 9.332031 -0.355469 C 9.332031 -0.363281 9.332031 -0.371094 9.328125 -0.378906 C 9.316406 -0.417969 9.292969 -0.457031 9.257812 -0.488281 C 9.226562 -0.519531 9.191406 -0.542969 9.152344 -0.554688 C 9.140625 -0.558594 9.132812 -0.5625 9.125 -0.5625 C 9.125 -0.5625 9.128906 -0.5625 9.132812 -0.5625 L 10.804688 -0.5625 C 10.808594 -0.5625 10.8125 -0.5625 10.8125 -0.5625 C 10.804688 -0.5625 10.796875 -0.558594 10.785156 -0.554688 C 10.746094 -0.542969 10.710938 -0.519531 10.679688 -0.488281 C 10.644531 -0.457031 10.621094 -0.417969 10.609375 -0.378906 C 10.605469 -0.371094 10.605469 -0.363281 10.605469 -0.355469 C 10.601562 -0.355469 10.601562 -0.355469 10.601562 -0.355469 C 10.605469 -0.355469 10.605469 -0.359375 10.605469 -0.359375 L 10.605469 -12.246094 C 10.605469 -12.25 10.605469 -12.25 10.601562 -12.253906 C 10.601562 -12.253906 10.601562 -12.253906 10.605469 -12.25 C 10.605469 -12.246094 10.605469 -12.234375 10.609375 -12.226562 C 10.621094 -12.1875 10.644531 -12.152344 10.679688 -12.121094 C 10.710938 -12.085938 10.746094 -12.0625 10.785156 -12.050781 C 10.796875 -12.046875 10.804688 -12.046875 10.8125 -12.042969 C 10.8125 -12.042969 10.808594 -12.042969 10.804688 -12.042969 Z M 8.429688 -12.042969 "/></g></g><g style="fill:#b21a22;fill-opacity:1;"><g transform="translate(36.136035, 29.966743)"><path style="stroke:none" d="M 0.335938 -2.59375 L 0.335938 -10.015625 C 0.335938 -11.023438 0.617188 -11.800781 1.171875 -12.351562 C 1.726562 -12.898438 2.5 -13.171875 3.492188 -13.171875 L 5.511719 -13.171875 C 6.519531 -13.171875 7.296875 -12.894531 7.84375 -12.347656 C 8.394531 -11.800781 8.667969 -11.023438 8.667969 -10.015625 L 8.667969 -2.59375 C 8.667969 -1.597656 8.394531 -0.824219 7.847656 -0.269531 C 7.300781 0.285156 6.519531 0.5625 5.511719 0.5625 L 3.492188 0.5625 C 2.5 0.5625 1.722656 0.285156 1.167969 -0.269531 C 0.613281 -0.824219 0.335938 -1.597656 0.335938 -2.59375 Z M 1.464844 -2.59375 C 1.464844 -1.910156 1.628906 -1.398438 1.964844 -1.0625 C 2.300781 -0.730469 2.808594 -0.5625 3.492188 -0.5625 L 5.511719 -0.5625 C 6.207031 -0.5625 6.71875 -0.730469 7.046875 -1.0625 C 7.375 -1.394531 7.542969 -1.90625 7.542969 -2.59375 L 7.542969 -10.015625 C 7.542969 -10.710938 7.378906 -11.222656 7.050781 -11.550781 C 6.722656 -11.878906 6.207031 -12.042969 5.511719 -12.042969 L 3.492188 -12.042969 C 2.808594 -12.042969 2.296875 -11.878906 1.960938 -11.550781 C 1.628906 -11.222656 1.464844 -10.710938 1.464844 -10.015625 Z M 3.960938 -2.886719 L 5.113281 -2.886719 C 5.175781 -2.886719 5.21875 -2.890625 5.253906 -2.902344 C 5.257812 -2.90625 5.261719 -2.90625 5.265625 -2.90625 C 5.261719 -2.90625 5.261719 -2.902344 5.257812 -2.902344 C 5.253906 -2.898438 5.253906 -2.894531 5.25 -2.894531 C 5.253906 -2.898438 5.253906 -2.902344 5.257812 -2.90625 C 5.265625 -2.9375 5.273438 -2.984375 5.273438 -3.042969 L 5.273438 -9.5625 C 5.273438 -9.621094 5.265625 -9.667969 5.257812 -9.699219 C 5.253906 -9.707031 5.253906 -9.710938 5.25 -9.714844 C 5.253906 -9.710938 5.253906 -9.707031 5.257812 -9.707031 C 5.261719 -9.703125 5.261719 -9.703125 5.265625 -9.699219 C 5.261719 -9.703125 5.257812 -9.703125 5.253906 -9.703125 C 5.21875 -9.714844 5.175781 -9.722656 5.113281 -9.722656 L 3.960938 -9.722656 C 3.902344 -9.722656 3.855469 -9.714844 3.824219 -9.703125 C 3.820312 -9.703125 3.816406 -9.703125 3.8125 -9.699219 C 3.816406 -9.703125 3.816406 -9.703125 3.820312 -9.707031 C 3.824219 -9.707031 3.824219 -9.710938 3.824219 -9.714844 C 3.824219 -9.710938 3.824219 -9.707031 3.820312 -9.699219 C 3.808594 -9.667969 3.804688 -9.621094 3.804688 -9.5625 L 3.804688 -3.042969 C 3.804688 -2.984375 3.808594 -2.9375 3.820312 -2.90625 C 3.824219 -2.902344 3.824219 -2.898438 3.824219 -2.894531 C 3.824219 -2.894531 3.824219 -2.898438 3.820312 -2.902344 C 3.816406 -2.902344 3.816406 -2.90625 3.8125 -2.90625 C 3.816406 -2.90625 3.820312 -2.90625 3.824219 -2.902344 C 3.855469 -2.890625 3.902344 -2.886719 3.960938 -2.886719 Z M 3.960938 -1.761719 C 3.566406 -1.761719 3.253906 -1.875 3.023438 -2.105469 C 2.792969 -2.335938 2.679688 -2.648438 2.679688 -3.042969 L 2.679688 -9.5625 C 2.679688 -9.960938 2.792969 -10.273438 3.023438 -10.5 C 3.253906 -10.730469 3.566406 -10.847656 3.960938 -10.847656 L 5.113281 -10.847656 C 5.511719 -10.847656 5.824219 -10.730469 6.054688 -10.5 C 6.285156 -10.273438 6.398438 -9.960938 6.398438 -9.5625 L 6.398438 -3.042969 C 6.398438 -2.648438 6.285156 -2.335938 6.054688 -2.105469 C 5.824219 -1.875 5.511719 -1.761719 5.113281 -1.761719 Z M 3.960938 -1.761719 "/></g></g><g style="fill:#b21a22;fill-opacity:1;"><g transform="translate(45.138402, 29.966743)"><path style="stroke:none" d="M 6.609375 -13.171875 L 8.304688 -13.171875 C 8.554688 -13.171875 8.757812 -13.089844 8.917969 -12.933594 C 9.074219 -12.773438 9.152344 -12.570312 9.152344 -12.320312 L 9.152344 -0.289062 C 9.152344 -0.0351562 9.074219 0.167969 8.917969 0.324219 C 8.757812 0.484375 8.554688 0.5625 8.304688 0.5625 L 6.878906 0.5625 C 6.6875 0.5625 6.515625 0.507812 6.359375 0.398438 C 6.226562 0.300781 6.121094 0.167969 6.042969 0 L 6.554688 -0.234375 L 6.050781 0.015625 L 2.664062 -6.867188 L 3.167969 -7.113281 L 3.734375 -7.113281 L 3.734375 -0.289062 C 3.734375 -0.0351562 3.652344 0.167969 3.496094 0.324219 C 3.335938 0.484375 3.132812 0.5625 2.882812 0.5625 L 1.1875 0.5625 C 0.9375 0.5625 0.734375 0.484375 0.574219 0.324219 C 0.417969 0.167969 0.335938 -0.0351562 0.335938 -0.289062 L 0.335938 -12.320312 C 0.335938 -12.570312 0.417969 -12.773438 0.574219 -12.933594 C 0.734375 -13.089844 0.9375 -13.171875 1.1875 -13.171875 L 2.613281 -13.171875 C 2.804688 -13.171875 2.976562 -13.113281 3.128906 -13.003906 C 3.265625 -12.910156 3.371094 -12.777344 3.445312 -12.609375 L 2.9375 -12.375 L 3.441406 -12.621094 L 6.828125 -5.742188 L 6.320312 -5.492188 L 5.757812 -5.492188 L 5.757812 -12.320312 C 5.757812 -12.570312 5.835938 -12.773438 5.996094 -12.933594 C 6.152344 -13.089844 6.359375 -13.171875 6.609375 -13.171875 Z M 6.609375 -12.042969 C 6.621094 -12.042969 6.640625 -12.046875 6.660156 -12.054688 C 6.710938 -12.070312 6.753906 -12.097656 6.792969 -12.136719 C 6.832031 -12.175781 6.859375 -12.21875 6.875 -12.265625 C 6.882812 -12.289062 6.882812 -12.304688 6.882812 -12.320312 L 6.882812 -5.492188 L 5.816406 -5.246094 L 2.425781 -12.132812 L 2.425781 -12.136719 C 2.429688 -12.125 2.445312 -12.109375 2.472656 -12.09375 C 2.515625 -12.058594 2.5625 -12.042969 2.613281 -12.042969 L 1.1875 -12.042969 C 1.203125 -12.042969 1.21875 -12.046875 1.242188 -12.054688 C 1.289062 -12.070312 1.332031 -12.097656 1.371094 -12.136719 C 1.410156 -12.175781 1.4375 -12.21875 1.453125 -12.265625 C 1.460938 -12.289062 1.464844 -12.304688 1.464844 -12.320312 L 1.464844 -0.289062 C 1.464844 -0.300781 1.460938 -0.316406 1.453125 -0.339844 C 1.4375 -0.386719 1.410156 -0.429688 1.371094 -0.46875 C 1.332031 -0.507812 1.289062 -0.535156 1.242188 -0.550781 C 1.21875 -0.558594 1.203125 -0.5625 1.1875 -0.5625 L 2.882812 -0.5625 C 2.867188 -0.5625 2.851562 -0.558594 2.828125 -0.550781 C 2.78125 -0.535156 2.738281 -0.507812 2.699219 -0.46875 C 2.660156 -0.429688 2.632812 -0.386719 2.617188 -0.339844 C 2.609375 -0.316406 2.605469 -0.300781 2.605469 -0.289062 L 2.605469 -7.113281 L 3.675781 -7.363281 L 7.0625 -0.476562 L 7.066406 -0.46875 C 7.0625 -0.480469 7.046875 -0.496094 7.019531 -0.515625 C 6.976562 -0.546875 6.929688 -0.5625 6.878906 -0.5625 L 8.304688 -0.5625 C 8.289062 -0.5625 8.273438 -0.558594 8.25 -0.550781 C 8.203125 -0.535156 8.160156 -0.507812 8.121094 -0.46875 C 8.082031 -0.429688 8.054688 -0.386719 8.039062 -0.339844 C 8.03125 -0.316406 8.027344 -0.300781 8.027344 -0.289062 L 8.027344 -12.320312 C 8.027344 -12.304688 8.03125 -12.289062 8.039062 -12.265625 C 8.054688 -12.21875 8.082031 -12.175781 8.121094 -12.136719 C 8.160156 -12.097656 8.203125 -12.070312 8.25 -12.054688 C 8.273438 -12.046875 8.289062 -12.042969 8.304688 -12.042969 Z M 6.609375 -12.042969 "/></g></g><g style="fill:#b21a22;fill-opacity:1;"><g transform="translate(54.626901, 29.966743)"><path style="stroke:none" d="M 7.457031 -12.042969 L 0.828125 -12.042969 C 0.839844 -12.042969 0.859375 -12.046875 0.878906 -12.054688 C 0.929688 -12.070312 0.972656 -12.097656 1.011719 -12.136719 C 1.050781 -12.175781 1.078125 -12.21875 1.09375 -12.265625 C 1.097656 -12.289062 1.101562 -12.304688 1.101562 -12.320312 L 1.101562 -10.519531 C 1.101562 -10.53125 1.097656 -10.546875 1.09375 -10.570312 C 1.078125 -10.617188 1.050781 -10.660156 1.011719 -10.699219 C 0.972656 -10.738281 0.929688 -10.765625 0.878906 -10.78125 C 0.859375 -10.789062 0.839844 -10.792969 0.828125 -10.792969 L 3.480469 -10.792969 L 3.480469 -0.289062 C 3.480469 -0.300781 3.476562 -0.316406 3.46875 -0.339844 C 3.453125 -0.386719 3.425781 -0.429688 3.386719 -0.46875 C 3.347656 -0.507812 3.304688 -0.535156 3.257812 -0.550781 C 3.234375 -0.558594 3.21875 -0.5625 3.207031 -0.5625 L 5.078125 -0.5625 C 5.066406 -0.5625 5.046875 -0.558594 5.027344 -0.550781 C 4.980469 -0.535156 4.9375 -0.507812 4.898438 -0.46875 C 4.859375 -0.429688 4.832031 -0.386719 4.816406 -0.339844 C 4.808594 -0.316406 4.804688 -0.300781 4.804688 -0.289062 L 4.804688 -10.792969 L 7.457031 -10.792969 C 7.445312 -10.792969 7.425781 -10.789062 7.40625 -10.78125 C 7.355469 -10.765625 7.3125 -10.738281 7.273438 -10.699219 C 7.234375 -10.660156 7.207031 -10.617188 7.191406 -10.570312 C 7.183594 -10.546875 7.179688 -10.53125 7.179688 -10.519531 L 7.179688 -12.320312 C 7.179688 -12.304688 7.183594 -12.289062 7.191406 -12.265625 C 7.207031 -12.21875 7.234375 -12.175781 7.273438 -12.136719 C 7.3125 -12.097656 7.355469 -12.070312 7.40625 -12.054688 C 7.425781 -12.046875 7.445312 -12.042969 7.457031 -12.042969 Z M 7.457031 -13.171875 C 7.707031 -13.171875 7.914062 -13.089844 8.070312 -12.933594 C 8.226562 -12.773438 8.308594 -12.570312 8.308594 -12.320312 L 8.308594 -10.519531 C 8.308594 -10.265625 8.226562 -10.0625 8.070312 -9.902344 C 7.914062 -9.746094 7.707031 -9.667969 7.457031 -9.667969 L 5.367188 -9.667969 L 5.367188 -10.230469 L 5.929688 -10.230469 L 5.929688 -0.289062 C 5.929688 -0.0351562 5.851562 0.167969 5.691406 0.324219 C 5.535156 0.484375 5.332031 0.5625 5.078125 0.5625 L 3.207031 0.5625 C 2.953125 0.5625 2.75 0.484375 2.589844 0.324219 C 2.433594 0.167969 2.355469 -0.0351562 2.355469 -0.289062 L 2.355469 -10.230469 L 2.917969 -10.230469 L 2.917969 -9.667969 L 0.828125 -9.667969 C 0.578125 -9.667969 0.371094 -9.746094 0.214844 -9.902344 C 0.0546875 -10.0625 -0.0234375 -10.265625 -0.0234375 -10.519531 L -0.0234375 -12.320312 C -0.0234375 -12.570312 0.0546875 -12.773438 0.214844 -12.933594 C 0.371094 -13.089844 0.578125 -13.171875 0.828125 -13.171875 Z M 7.457031 -13.171875 "/></g></g><g style="fill:#b21a22;fill-opacity:1;"><g transform="translate(62.90908, 29.966743)"><path style="stroke:none" d="M 5.09375 -7.457031 L 5.09375 -12.320312 C 5.09375 -12.570312 5.171875 -12.773438 5.328125 -12.933594 C 5.488281 -13.089844 5.691406 -13.171875 5.945312 -13.171875 L 7.796875 -13.171875 C 8.050781 -13.171875 8.253906 -13.09375 8.414062 -12.945312 C 8.582031 -12.785156 8.667969 -12.578125 8.667969 -12.320312 L 8.667969 -0.289062 C 8.667969 -0.03125 8.582031 0.179688 8.414062 0.335938 C 8.253906 0.488281 8.050781 0.5625 7.796875 0.5625 L 5.945312 0.5625 C 5.691406 0.5625 5.488281 0.484375 5.328125 0.324219 C 5.171875 0.167969 5.09375 -0.0351562 5.09375 -0.289062 L 5.09375 -5.078125 L 5.65625 -5.078125 L 5.65625 -4.515625 L 3.351562 -4.515625 L 3.351562 -5.078125 L 3.914062 -5.078125 L 3.914062 -0.289062 C 3.914062 -0.0351562 3.832031 0.167969 3.675781 0.324219 C 3.519531 0.484375 3.3125 0.5625 3.0625 0.5625 L 1.207031 0.5625 C 0.957031 0.5625 0.75 0.488281 0.589844 0.335938 C 0.421875 0.179688 0.335938 -0.03125 0.335938 -0.289062 L 0.335938 -12.320312 C 0.335938 -12.578125 0.421875 -12.785156 0.589844 -12.945312 C 0.75 -13.09375 0.957031 -13.171875 1.207031 -13.171875 L 3.0625 -13.171875 C 3.3125 -13.171875 3.519531 -13.089844 3.675781 -12.933594 C 3.832031 -12.773438 3.914062 -12.570312 3.914062 -12.320312 L 3.914062 -7.457031 L 3.351562 -7.457031 L 3.351562 -8.019531 L 5.65625 -8.019531 L 5.65625 -7.457031 Z M 6.21875 -6.894531 L 2.785156 -6.894531 L 2.785156 -12.320312 C 2.785156 -12.304688 2.789062 -12.289062 2.796875 -12.265625 C 2.8125 -12.21875 2.839844 -12.175781 2.878906 -12.136719 C 2.917969 -12.097656 2.960938 -12.070312 3.011719 -12.054688 C 3.03125 -12.046875 3.050781 -12.042969 3.0625 -12.042969 L 1.207031 -12.042969 C 1.214844 -12.042969 1.226562 -12.046875 1.242188 -12.050781 C 1.285156 -12.066406 1.324219 -12.089844 1.363281 -12.125 C 1.402344 -12.164062 1.433594 -12.207031 1.449219 -12.257812 C 1.460938 -12.28125 1.464844 -12.300781 1.464844 -12.320312 L 1.464844 -0.289062 C 1.464844 -0.304688 1.460938 -0.324219 1.449219 -0.351562 C 1.433594 -0.398438 1.402344 -0.445312 1.363281 -0.480469 C 1.324219 -0.515625 1.285156 -0.542969 1.242188 -0.554688 C 1.226562 -0.558594 1.214844 -0.5625 1.207031 -0.5625 L 3.0625 -0.5625 C 3.050781 -0.5625 3.03125 -0.558594 3.011719 -0.550781 C 2.960938 -0.535156 2.917969 -0.507812 2.878906 -0.46875 C 2.839844 -0.429688 2.8125 -0.386719 2.796875 -0.339844 C 2.789062 -0.316406 2.785156 -0.300781 2.785156 -0.289062 L 2.785156 -5.640625 L 6.21875 -5.640625 L 6.21875 -0.289062 C 6.21875 -0.300781 6.214844 -0.316406 6.207031 -0.339844 C 6.191406 -0.386719 6.164062 -0.429688 6.125 -0.46875 C 6.085938 -0.507812 6.042969 -0.535156 5.996094 -0.550781 C 5.972656 -0.558594 5.957031 -0.5625 5.945312 -0.5625 L 7.796875 -0.5625 C 7.792969 -0.5625 7.78125 -0.558594 7.765625 -0.554688 C 7.71875 -0.542969 7.679688 -0.515625 7.640625 -0.480469 C 7.601562 -0.445312 7.574219 -0.398438 7.554688 -0.351562 C 7.546875 -0.324219 7.542969 -0.304688 7.542969 -0.289062 L 7.542969 -12.320312 C 7.542969 -12.300781 7.546875 -12.28125 7.554688 -12.257812 C 7.574219 -12.207031 7.601562 -12.164062 7.640625 -12.125 C 7.679688 -12.089844 7.71875 -12.066406 7.765625 -12.050781 C 7.78125 -12.046875 7.792969 -12.042969 7.796875 -12.042969 L 5.945312 -12.042969 C 5.957031 -12.042969 5.972656 -12.046875 5.996094 -12.054688 C 6.042969 -12.070312 6.085938 -12.097656 6.125 -12.136719 C 6.164062 -12.175781 6.191406 -12.21875 6.207031 -12.265625 C 6.214844 -12.289062 6.21875 -12.304688 6.21875 -12.320312 Z M 6.21875 -6.894531 "/></g></g><g style="fill:#b21a22;fill-opacity:1;"><g transform="translate(20.534694, 55.076339)"><path style="stroke:none" d="M 0.335938 -5.65625 L 0.335938 -7.3125 C 0.335938 -7.585938 0.421875 -7.808594 0.59375 -7.980469 C 0.761719 -8.148438 0.984375 -8.234375 1.261719 -8.234375 L 4.105469 -8.234375 C 4.382812 -8.234375 4.605469 -8.148438 4.773438 -7.980469 C 4.945312 -7.808594 5.03125 -7.585938 5.03125 -7.3125 L 5.03125 -5.65625 C 5.03125 -5.378906 4.945312 -5.15625 4.773438 -4.988281 C 4.605469 -4.816406 4.382812 -4.730469 4.105469 -4.730469 L 1.261719 -4.730469 C 0.984375 -4.730469 0.761719 -4.816406 0.59375 -4.988281 C 0.421875 -5.15625 0.335938 -5.378906 0.335938 -5.65625 Z M 1.464844 -5.65625 C 1.464844 -5.652344 1.464844 -5.652344 1.464844 -5.648438 C 1.464844 -5.648438 1.464844 -5.648438 1.464844 -5.652344 C 1.460938 -5.65625 1.460938 -5.667969 1.457031 -5.675781 C 1.445312 -5.714844 1.421875 -5.75 1.386719 -5.78125 C 1.355469 -5.816406 1.320312 -5.839844 1.28125 -5.851562 C 1.273438 -5.855469 1.261719 -5.855469 1.257812 -5.859375 C 1.253906 -5.859375 1.253906 -5.859375 1.253906 -5.859375 C 1.257812 -5.859375 1.257812 -5.859375 1.261719 -5.859375 L 4.105469 -5.859375 C 4.109375 -5.859375 4.109375 -5.859375 4.113281 -5.859375 C 4.113281 -5.859375 4.113281 -5.859375 4.109375 -5.859375 C 4.105469 -5.855469 4.09375 -5.855469 4.085938 -5.851562 C 4.046875 -5.839844 4.011719 -5.816406 3.980469 -5.78125 C 3.945312 -5.75 3.921875 -5.714844 3.910156 -5.675781 C 3.90625 -5.667969 3.90625 -5.65625 3.902344 -5.652344 C 3.902344 -5.648438 3.902344 -5.648438 3.902344 -5.648438 C 3.902344 -5.652344 3.902344 -5.652344 3.902344 -5.65625 L 3.902344 -7.3125 C 3.902344 -7.316406 3.902344 -7.316406 3.902344 -7.320312 C 3.902344 -7.320312 3.902344 -7.316406 3.902344 -7.316406 C 3.90625 -7.308594 3.90625 -7.300781 3.910156 -7.292969 C 3.921875 -7.253906 3.945312 -7.21875 3.980469 -7.183594 C 4.011719 -7.152344 4.046875 -7.128906 4.085938 -7.117188 C 4.09375 -7.113281 4.105469 -7.109375 4.109375 -7.109375 C 4.113281 -7.109375 4.113281 -7.109375 4.113281 -7.109375 C 4.109375 -7.109375 4.109375 -7.109375 4.105469 -7.109375 L 1.261719 -7.109375 C 1.257812 -7.109375 1.257812 -7.109375 1.253906 -7.109375 C 1.253906 -7.109375 1.253906 -7.109375 1.257812 -7.109375 C 1.261719 -7.109375 1.273438 -7.113281 1.28125 -7.117188 C 1.320312 -7.128906 1.355469 -7.152344 1.386719 -7.183594 C 1.421875 -7.21875 1.445312 -7.253906 1.457031 -7.292969 C 1.460938 -7.300781 1.460938 -7.308594 1.464844 -7.316406 C 1.464844 -7.316406 1.464844 -7.320312 1.464844 -7.320312 C 1.464844 -7.316406 1.464844 -7.316406 1.464844 -7.3125 Z M 1.464844 -5.65625 "/></g></g><g style="fill:#b21a22;fill-opacity:1;"><g transform="translate(25.900103, 55.076339)"><path style="stroke:none" d="M 3.492188 -13.171875 L 5.511719 -13.171875 C 6.519531 -13.171875 7.296875 -12.894531 7.84375 -12.347656 C 8.394531 -11.800781 8.667969 -11.023438 8.667969 -10.015625 L 8.667969 -8.824219 C 8.667969 -8.574219 8.589844 -8.367188 8.429688 -8.210938 C 8.273438 -8.054688 8.066406 -7.972656 7.816406 -7.972656 L 5.996094 -7.972656 C 5.746094 -7.972656 5.542969 -8.054688 5.382812 -8.210938 C 5.226562 -8.367188 5.144531 -8.574219 5.144531 -8.824219 L 5.144531 -9.582031 C 5.144531 -9.640625 5.140625 -9.6875 5.128906 -9.71875 C 5.128906 -9.726562 5.125 -9.730469 5.125 -9.730469 C 5.125 -9.730469 5.128906 -9.726562 5.132812 -9.722656 C 5.132812 -9.722656 5.136719 -9.71875 5.136719 -9.71875 C 5.136719 -9.71875 5.132812 -9.722656 5.125 -9.722656 C 5.09375 -9.734375 5.046875 -9.738281 4.988281 -9.738281 L 4 -9.738281 C 3.9375 -9.738281 3.894531 -9.734375 3.859375 -9.722656 C 3.855469 -9.722656 3.851562 -9.71875 3.847656 -9.71875 C 3.851562 -9.71875 3.851562 -9.722656 3.855469 -9.722656 C 3.859375 -9.726562 3.859375 -9.730469 3.863281 -9.730469 C 3.859375 -9.730469 3.859375 -9.726562 3.855469 -9.71875 C 3.847656 -9.6875 3.839844 -9.640625 3.839844 -9.582031 L 3.839844 -8.050781 L 3.277344 -8.050781 L 3.449219 -8.585938 L 7.808594 -7.179688 C 8.085938 -7.085938 8.300781 -6.933594 8.449219 -6.722656 C 8.59375 -6.511719 8.667969 -6.265625 8.667969 -5.980469 L 8.667969 -2.59375 C 8.667969 -1.597656 8.394531 -0.824219 7.847656 -0.269531 C 7.300781 0.285156 6.519531 0.5625 5.511719 0.5625 L 3.492188 0.5625 C 2.5 0.5625 1.722656 0.285156 1.167969 -0.269531 C 0.613281 -0.824219 0.335938 -1.597656 0.335938 -2.59375 L 0.335938 -3.765625 C 0.335938 -4.015625 0.417969 -4.21875 0.574219 -4.378906 C 0.734375 -4.535156 0.9375 -4.613281 1.1875 -4.613281 L 3.007812 -4.613281 C 3.257812 -4.613281 3.464844 -4.535156 3.621094 -4.378906 C 3.78125 -4.21875 3.859375 -4.015625 3.859375 -3.765625 L 3.859375 -3.007812 C 3.859375 -2.949219 3.863281 -2.902344 3.875 -2.871094 C 3.875 -2.863281 3.878906 -2.859375 3.878906 -2.859375 C 3.878906 -2.859375 3.875 -2.863281 3.875 -2.867188 C 3.871094 -2.867188 3.867188 -2.871094 3.867188 -2.871094 C 3.867188 -2.871094 3.875 -2.867188 3.878906 -2.867188 C 3.910156 -2.855469 3.957031 -2.851562 4.015625 -2.851562 L 4.988281 -2.851562 C 5.046875 -2.851562 5.09375 -2.855469 5.125 -2.867188 C 5.132812 -2.867188 5.136719 -2.871094 5.136719 -2.871094 C 5.136719 -2.871094 5.132812 -2.867188 5.132812 -2.867188 C 5.128906 -2.863281 5.125 -2.859375 5.125 -2.859375 C 5.125 -2.859375 5.128906 -2.863281 5.128906 -2.871094 C 5.140625 -2.902344 5.144531 -2.949219 5.144531 -3.007812 L 5.144531 -4.828125 L 5.710938 -4.828125 L 5.535156 -4.292969 L 1.210938 -5.695312 C 0.933594 -5.789062 0.71875 -5.941406 0.566406 -6.148438 C 0.414062 -6.355469 0.335938 -6.609375 0.335938 -6.898438 L 0.335938 -10.015625 C 0.335938 -11.023438 0.617188 -11.800781 1.171875 -12.351562 C 1.726562 -12.898438 2.5 -13.171875 3.492188 -13.171875 Z M 3.492188 -12.042969 C 2.808594 -12.042969 2.296875 -11.878906 1.960938 -11.550781 C 1.628906 -11.222656 1.464844 -10.710938 1.464844 -10.015625 L 1.464844 -6.898438 C 1.464844 -6.851562 1.46875 -6.824219 1.476562 -6.8125 C 1.488281 -6.796875 1.515625 -6.78125 1.5625 -6.765625 L 6.273438 -5.234375 L 6.273438 -3.007812 C 6.273438 -2.613281 6.15625 -2.300781 5.925781 -2.070312 C 5.695312 -1.839844 5.382812 -1.722656 4.988281 -1.722656 L 4.015625 -1.722656 C 3.621094 -1.722656 3.308594 -1.839844 3.078125 -2.070312 C 2.847656 -2.300781 2.734375 -2.613281 2.734375 -3.007812 L 2.734375 -3.765625 C 2.734375 -3.75 2.738281 -3.734375 2.742188 -3.710938 C 2.761719 -3.664062 2.789062 -3.621094 2.824219 -3.582031 C 2.863281 -3.542969 2.90625 -3.515625 2.957031 -3.5 C 2.976562 -3.492188 2.996094 -3.488281 3.007812 -3.488281 L 1.1875 -3.488281 C 1.203125 -3.488281 1.21875 -3.492188 1.242188 -3.5 C 1.289062 -3.515625 1.332031 -3.542969 1.371094 -3.582031 C 1.410156 -3.621094 1.4375 -3.664062 1.453125 -3.710938 C 1.460938 -3.734375 1.464844 -3.75 1.464844 -3.765625 L 1.464844 -2.59375 C 1.464844 -1.910156 1.628906 -1.398438 1.964844 -1.0625 C 2.300781 -0.730469 2.808594 -0.5625 3.492188 -0.5625 L 5.511719 -0.5625 C 6.207031 -0.5625 6.71875 -0.730469 7.046875 -1.0625 C 7.375 -1.394531 7.542969 -1.90625 7.542969 -2.59375 L 7.542969 -5.980469 C 7.542969 -6.027344 7.535156 -6.0625 7.527344 -6.074219 C 7.519531 -6.085938 7.496094 -6.097656 7.464844 -6.109375 L 2.714844 -7.640625 L 2.714844 -9.582031 C 2.714844 -9.976562 2.828125 -10.289062 3.058594 -10.519531 C 3.289062 -10.75 3.601562 -10.863281 4 -10.863281 L 4.988281 -10.863281 C 5.382812 -10.863281 5.695312 -10.75 5.925781 -10.519531 C 6.15625 -10.289062 6.273438 -9.976562 6.273438 -9.582031 L 6.273438 -8.824219 C 6.273438 -8.839844 6.269531 -8.855469 6.261719 -8.878906 C 6.246094 -8.925781 6.21875 -8.96875 6.179688 -9.007812 C 6.140625 -9.046875 6.097656 -9.074219 6.050781 -9.089844 C 6.027344 -9.097656 6.011719 -9.101562 5.996094 -9.101562 L 7.816406 -9.101562 C 7.804688 -9.101562 7.785156 -9.097656 7.765625 -9.089844 C 7.714844 -9.074219 7.671875 -9.046875 7.632812 -9.007812 C 7.597656 -8.96875 7.570312 -8.925781 7.550781 -8.878906 C 7.546875 -8.855469 7.542969 -8.839844 7.542969 -8.824219 L 7.542969 -10.015625 C 7.542969 -10.710938 7.378906 -11.222656 7.050781 -11.550781 C 6.722656 -11.878906 6.207031 -12.042969 5.511719 -12.042969 Z M 3.492188 -12.042969 "/></g></g><g style="fill:#b21a22;fill-opacity:1;"><g transform="translate(34.902471, 55.076339)"><path style="stroke:none" d="M 8.648438 -12.320312 L 8.648438 -10.519531 C 8.648438 -10.265625 8.574219 -10.0625 8.425781 -9.902344 C 8.265625 -9.734375 8.058594 -9.648438 7.796875 -9.648438 L 3.351562 -9.648438 L 3.351562 -10.210938 L 3.914062 -10.210938 L 3.914062 -7.4375 L 3.351562 -7.4375 L 3.351562 -8 L 6.734375 -8 C 6.992188 -8 7.203125 -7.917969 7.363281 -7.746094 C 7.511719 -7.589844 7.585938 -7.382812 7.585938 -7.132812 L 7.585938 -5.347656 C 7.585938 -5.097656 7.511719 -4.894531 7.363281 -4.734375 C 7.203125 -4.566406 6.992188 -4.480469 6.734375 -4.480469 L 3.351562 -4.480469 L 3.351562 -5.042969 L 3.914062 -5.042969 L 3.914062 -2.378906 L 3.351562 -2.378906 L 3.351562 -2.941406 L 7.796875 -2.941406 C 8.050781 -2.941406 8.253906 -2.859375 8.414062 -2.703125 C 8.570312 -2.546875 8.648438 -2.339844 8.648438 -2.089844 L 8.648438 -0.289062 C 8.648438 -0.0351562 8.570312 0.167969 8.414062 0.324219 C 8.253906 0.484375 8.050781 0.5625 7.796875 0.5625 L 1.171875 0.5625 C 0.917969 0.5625 0.714844 0.480469 0.558594 0.3125 C 0.410156 0.15625 0.335938 -0.0429688 0.335938 -0.289062 L 0.335938 -12.320312 C 0.335938 -12.5625 0.410156 -12.765625 0.558594 -12.921875 C 0.714844 -13.085938 0.917969 -13.171875 1.171875 -13.171875 L 7.796875 -13.171875 C 8.050781 -13.171875 8.253906 -13.089844 8.414062 -12.933594 C 8.570312 -12.773438 8.648438 -12.570312 8.648438 -12.320312 Z M 7.523438 -12.320312 C 7.523438 -12.304688 7.527344 -12.289062 7.535156 -12.265625 C 7.550781 -12.21875 7.578125 -12.175781 7.617188 -12.136719 C 7.65625 -12.097656 7.699219 -12.070312 7.746094 -12.054688 C 7.769531 -12.046875 7.785156 -12.042969 7.796875 -12.042969 L 1.171875 -12.042969 C 1.242188 -12.042969 1.3125 -12.078125 1.378906 -12.148438 C 1.414062 -12.1875 1.441406 -12.230469 1.453125 -12.277344 C 1.460938 -12.296875 1.464844 -12.308594 1.464844 -12.320312 L 1.464844 -0.289062 C 1.464844 -0.296875 1.460938 -0.3125 1.453125 -0.328125 C 1.441406 -0.375 1.414062 -0.417969 1.378906 -0.457031 C 1.3125 -0.527344 1.242188 -0.5625 1.171875 -0.5625 L 7.796875 -0.5625 C 7.785156 -0.5625 7.769531 -0.558594 7.746094 -0.550781 C 7.699219 -0.535156 7.65625 -0.507812 7.617188 -0.46875 C 7.578125 -0.429688 7.550781 -0.386719 7.535156 -0.339844 C 7.527344 -0.316406 7.523438 -0.300781 7.523438 -0.289062 L 7.523438 -2.089844 C 7.523438 -2.078125 7.527344 -2.058594 7.535156 -2.039062 C 7.550781 -1.988281 7.578125 -1.945312 7.617188 -1.90625 C 7.65625 -1.867188 7.699219 -1.839844 7.746094 -1.824219 C 7.769531 -1.816406 7.785156 -1.816406 7.796875 -1.816406 L 2.785156 -1.816406 L 2.785156 -5.605469 L 6.734375 -5.605469 C 6.71875 -5.605469 6.699219 -5.601562 6.675781 -5.59375 C 6.625 -5.574219 6.582031 -5.546875 6.542969 -5.503906 C 6.507812 -5.46875 6.484375 -5.425781 6.46875 -5.382812 C 6.464844 -5.367188 6.460938 -5.355469 6.460938 -5.347656 L 6.460938 -7.132812 C 6.460938 -7.125 6.464844 -7.113281 6.46875 -7.097656 C 6.484375 -7.054688 6.507812 -7.011719 6.542969 -6.976562 C 6.582031 -6.933594 6.625 -6.90625 6.675781 -6.886719 C 6.699219 -6.878906 6.71875 -6.875 6.734375 -6.875 L 2.785156 -6.875 L 2.785156 -10.773438 L 7.796875 -10.773438 C 7.78125 -10.773438 7.761719 -10.769531 7.738281 -10.761719 C 7.6875 -10.742188 7.644531 -10.714844 7.605469 -10.675781 C 7.570312 -10.636719 7.546875 -10.597656 7.53125 -10.550781 C 7.527344 -10.535156 7.523438 -10.523438 7.523438 -10.519531 Z M 7.523438 -12.320312 "/></g></g><g style="fill:#b21a22;fill-opacity:1;"><g transform="translate(43.886831, 55.076339)"><path style="stroke:none" d="M 8.667969 -10.015625 L 8.667969 -6.394531 C 8.667969 -5.140625 8.242188 -4.25 7.394531 -3.71875 L 7.097656 -4.195312 L 7.644531 -4.328125 L 8.578125 -0.457031 L 8.03125 -0.324219 L 8.574219 -0.476562 C 8.65625 -0.183594 8.617188 0.0625 8.457031 0.265625 C 8.304688 0.464844 8.078125 0.5625 7.78125 0.5625 L 6.015625 0.5625 C 5.796875 0.5625 5.609375 0.5 5.453125 0.371094 C 5.304688 0.246094 5.203125 0.078125 5.160156 -0.132812 L 5.710938 -0.253906 L 5.164062 -0.117188 L 4.296875 -3.667969 L 4.84375 -3.800781 L 4.84375 -3.238281 L 3.242188 -3.238281 L 3.242188 -3.800781 L 3.804688 -3.800781 L 3.804688 -0.289062 C 3.804688 -0.0351562 3.726562 0.167969 3.566406 0.324219 C 3.410156 0.484375 3.207031 0.5625 2.953125 0.5625 L 1.1875 0.5625 C 0.9375 0.5625 0.734375 0.484375 0.574219 0.324219 C 0.417969 0.167969 0.335938 -0.0351562 0.335938 -0.289062 L 0.335938 -12.320312 C 0.335938 -12.570312 0.417969 -12.773438 0.574219 -12.933594 C 0.734375 -13.089844 0.9375 -13.171875 1.1875 -13.171875 L 5.511719 -13.171875 C 6.519531 -13.171875 7.296875 -12.894531 7.84375 -12.347656 C 8.394531 -11.800781 8.667969 -11.023438 8.667969 -10.015625 Z M 7.542969 -10.015625 C 7.542969 -10.710938 7.378906 -11.222656 7.050781 -11.550781 C 6.722656 -11.878906 6.207031 -12.042969 5.511719 -12.042969 L 1.1875 -12.042969 C 1.203125 -12.042969 1.21875 -12.046875 1.242188 -12.054688 C 1.289062 -12.070312 1.332031 -12.097656 1.371094 -12.136719 C 1.410156 -12.175781 1.4375 -12.21875 1.453125 -12.265625 C 1.460938 -12.289062 1.464844 -12.304688 1.464844 -12.320312 L 1.464844 -0.289062 C 1.464844 -0.300781 1.460938 -0.316406 1.453125 -0.339844 C 1.4375 -0.386719 1.410156 -0.429688 1.371094 -0.46875 C 1.332031 -0.507812 1.289062 -0.535156 1.242188 -0.550781 C 1.21875 -0.558594 1.203125 -0.5625 1.1875 -0.5625 L 2.953125 -0.5625 C 2.941406 -0.5625 2.921875 -0.558594 2.902344 -0.550781 C 2.855469 -0.535156 2.808594 -0.507812 2.773438 -0.46875 C 2.734375 -0.429688 2.707031 -0.386719 2.691406 -0.339844 C 2.683594 -0.316406 2.679688 -0.300781 2.679688 -0.289062 L 2.679688 -4.363281 L 5.285156 -4.363281 L 6.257812 -0.378906 L 6.257812 -0.371094 C 6.25 -0.414062 6.21875 -0.457031 6.171875 -0.496094 C 6.117188 -0.542969 6.066406 -0.5625 6.015625 -0.5625 L 7.78125 -0.5625 C 7.769531 -0.5625 7.753906 -0.558594 7.742188 -0.550781 C 7.675781 -0.527344 7.617188 -0.488281 7.570312 -0.425781 C 7.523438 -0.363281 7.496094 -0.296875 7.488281 -0.222656 C 7.488281 -0.199219 7.488281 -0.183594 7.492188 -0.171875 L 7.488281 -0.183594 L 6.453125 -4.457031 L 6.796875 -4.671875 C 7.292969 -4.984375 7.542969 -5.558594 7.542969 -6.394531 Z M 3.242188 -6.6875 L 5.042969 -6.6875 C 5.101562 -6.6875 5.148438 -6.691406 5.179688 -6.703125 C 5.1875 -6.703125 5.191406 -6.707031 5.191406 -6.707031 C 5.191406 -6.707031 5.1875 -6.703125 5.183594 -6.703125 C 5.183594 -6.699219 5.179688 -6.695312 5.179688 -6.695312 C 5.179688 -6.695312 5.183594 -6.699219 5.183594 -6.707031 C 5.195312 -6.738281 5.199219 -6.785156 5.199219 -6.84375 L 5.199219 -9.5625 C 5.199219 -9.621094 5.195312 -9.667969 5.183594 -9.699219 C 5.183594 -9.707031 5.179688 -9.710938 5.179688 -9.714844 C 5.179688 -9.710938 5.183594 -9.707031 5.183594 -9.707031 C 5.1875 -9.703125 5.191406 -9.703125 5.191406 -9.699219 C 5.191406 -9.703125 5.1875 -9.703125 5.179688 -9.703125 C 5.148438 -9.714844 5.101562 -9.722656 5.042969 -9.722656 L 3.242188 -9.722656 L 3.242188 -10.285156 L 3.804688 -10.285156 L 3.804688 -6.125 L 3.242188 -6.125 Z M 2.679688 -5.5625 L 2.679688 -10.847656 L 5.042969 -10.847656 C 5.4375 -10.847656 5.75 -10.730469 5.980469 -10.5 C 6.210938 -10.273438 6.328125 -9.960938 6.328125 -9.5625 L 6.328125 -6.84375 C 6.328125 -6.449219 6.210938 -6.136719 5.980469 -5.90625 C 5.75 -5.675781 5.4375 -5.5625 5.042969 -5.5625 Z M 2.679688 -5.5625 "/></g></g><g style="fill:#b21a22;fill-opacity:1;"><g transform="translate(52.889198, 55.076339)"><path style="stroke:none" d="M 1.1875 -0.5625 L 3.0625 -0.5625 C 3.050781 -0.5625 3.03125 -0.558594 3.011719 -0.550781 C 2.960938 -0.535156 2.917969 -0.507812 2.878906 -0.46875 C 2.839844 -0.429688 2.8125 -0.386719 2.796875 -0.339844 C 2.789062 -0.316406 2.785156 -0.300781 2.785156 -0.289062 L 2.785156 -12.320312 C 2.785156 -12.304688 2.789062 -12.289062 2.796875 -12.265625 C 2.8125 -12.21875 2.839844 -12.175781 2.878906 -12.136719 C 2.917969 -12.097656 2.960938 -12.070312 3.011719 -12.054688 C 3.03125 -12.046875 3.050781 -12.042969 3.0625 -12.042969 L 1.1875 -12.042969 C 1.203125 -12.042969 1.21875 -12.046875 1.242188 -12.054688 C 1.289062 -12.070312 1.332031 -12.097656 1.371094 -12.136719 C 1.410156 -12.175781 1.4375 -12.21875 1.453125 -12.265625 C 1.460938 -12.289062 1.464844 -12.304688 1.464844 -12.320312 L 1.464844 -0.289062 C 1.464844 -0.300781 1.460938 -0.316406 1.453125 -0.339844 C 1.4375 -0.386719 1.410156 -0.429688 1.371094 -0.46875 C 1.332031 -0.507812 1.289062 -0.535156 1.242188 -0.550781 C 1.21875 -0.558594 1.203125 -0.5625 1.1875 -0.5625 Z M 1.1875 0.5625 C 0.9375 0.5625 0.734375 0.484375 0.574219 0.324219 C 0.417969 0.167969 0.335938 -0.0351562 0.335938 -0.289062 L 0.335938 -12.320312 C 0.335938 -12.570312 0.417969 -12.773438 0.574219 -12.933594 C 0.734375 -13.089844 0.9375 -13.171875 1.1875 -13.171875 L 3.0625 -13.171875 C 3.3125 -13.171875 3.519531 -13.089844 3.675781 -12.933594 C 3.832031 -12.773438 3.914062 -12.570312 3.914062 -12.320312 L 3.914062 -0.289062 C 3.914062 -0.0351562 3.832031 0.167969 3.675781 0.324219 C 3.519531 0.484375 3.3125 0.5625 3.0625 0.5625 Z M 1.1875 0.5625 "/></g></g><g style="fill:#b21a22;fill-opacity:1;"><g transform="translate(57.138313, 55.076339)"><path style="stroke:none" d="M 9.402344 0.5625 L 7.65625 0.5625 C 7.433594 0.5625 7.25 0.496094 7.09375 0.359375 C 6.953125 0.238281 6.859375 0.0703125 6.816406 -0.132812 L 7.367188 -0.253906 L 6.820312 -0.113281 L 6.246094 -2.382812 L 6.789062 -2.519531 L 6.789062 -1.957031 L 3.402344 -1.957031 L 3.402344 -2.519531 L 3.949219 -2.386719 L 3.390625 -0.117188 L 2.84375 -0.253906 L 3.394531 -0.132812 C 3.351562 0.0703125 3.257812 0.238281 3.117188 0.359375 C 2.964844 0.496094 2.777344 0.5625 2.558594 0.5625 L 0.792969 0.5625 C 0.5 0.5625 0.277344 0.464844 0.125 0.265625 C -0.03125 0.0625 -0.0664062 -0.179688 0.0195312 -0.464844 L 0.558594 -0.304688 L 0.0117188 -0.441406 L 3 -12.492188 L 3.546875 -12.355469 L 2.996094 -12.472656 C 3.042969 -12.683594 3.140625 -12.855469 3.292969 -12.980469 C 3.449219 -13.105469 3.636719 -13.171875 3.855469 -13.171875 L 6.359375 -13.171875 C 6.578125 -13.171875 6.761719 -13.105469 6.917969 -12.980469 C 7.070312 -12.855469 7.167969 -12.683594 7.214844 -12.472656 L 6.664062 -12.355469 L 7.210938 -12.492188 L 10.199219 -0.441406 L 9.652344 -0.304688 L 10.195312 -0.464844 C 10.28125 -0.171875 10.238281 0.078125 10.070312 0.28125 C 9.914062 0.46875 9.691406 0.5625 9.402344 0.5625 Z M 9.402344 -0.5625 C 9.40625 -0.5625 9.40625 -0.5625 9.410156 -0.5625 C 9.40625 -0.5625 9.40625 -0.5625 9.40625 -0.5625 C 9.394531 -0.5625 9.382812 -0.558594 9.371094 -0.554688 C 9.304688 -0.53125 9.25 -0.492188 9.199219 -0.433594 C 9.148438 -0.367188 9.117188 -0.296875 9.109375 -0.214844 C 9.109375 -0.1875 9.109375 -0.164062 9.113281 -0.148438 L 9.109375 -0.160156 L 6.117188 -12.226562 L 6.113281 -12.238281 C 6.121094 -12.195312 6.152344 -12.152344 6.203125 -12.109375 C 6.253906 -12.066406 6.308594 -12.042969 6.359375 -12.042969 L 3.855469 -12.042969 C 3.90625 -12.042969 3.957031 -12.066406 4.007812 -12.109375 C 4.058594 -12.152344 4.089844 -12.195312 4.097656 -12.238281 L 4.097656 -12.226562 L 1.101562 -0.160156 L 1.097656 -0.148438 C 1.101562 -0.160156 1.101562 -0.179688 1.101562 -0.207031 C 1.097656 -0.28125 1.070312 -0.351562 1.019531 -0.417969 C 0.96875 -0.484375 0.910156 -0.527344 0.839844 -0.550781 C 0.816406 -0.558594 0.800781 -0.5625 0.792969 -0.5625 L 2.558594 -0.5625 C 2.496094 -0.5625 2.433594 -0.539062 2.375 -0.488281 C 2.332031 -0.445312 2.304688 -0.40625 2.296875 -0.371094 L 2.296875 -0.378906 L 2.960938 -3.085938 L 7.226562 -3.085938 L 7.914062 -0.378906 L 7.917969 -0.371094 C 7.910156 -0.40625 7.882812 -0.445312 7.835938 -0.488281 C 7.777344 -0.539062 7.71875 -0.5625 7.65625 -0.5625 Z M 5.683594 -4.484375 L 4.546875 -9.382812 L 5.097656 -9.507812 L 5.644531 -9.382812 L 4.511719 -4.484375 L 3.960938 -4.609375 L 3.960938 -5.171875 L 6.230469 -5.171875 L 6.230469 -4.609375 Z M 6.941406 -4.046875 L 3.253906 -4.046875 L 4.546875 -9.636719 L 5.644531 -9.636719 L 6.78125 -4.738281 Z M 6.941406 -4.046875 "/></g></g><g style="fill:#b21a22;fill-opacity:1;"><g transform="translate(67.347, 55.076339)"><path style="stroke:none" d="M 2.785156 -2.378906 L 2.785156 -12.320312 C 2.785156 -12.304688 2.789062 -12.289062 2.796875 -12.265625 C 2.8125 -12.21875 2.839844 -12.175781 2.878906 -12.136719 C 2.917969 -12.097656 2.960938 -12.070312 3.011719 -12.054688 C 3.03125 -12.046875 3.050781 -12.042969 3.0625 -12.042969 L 1.1875 -12.042969 C 1.203125 -12.042969 1.21875 -12.046875 1.242188 -12.054688 C 1.289062 -12.070312 1.332031 -12.097656 1.371094 -12.136719 C 1.410156 -12.175781 1.4375 -12.21875 1.453125 -12.265625 C 1.460938 -12.289062 1.464844 -12.304688 1.464844 -12.320312 L 1.464844 -0.289062 C 1.464844 -0.300781 1.460938 -0.316406 1.453125 -0.339844 C 1.4375 -0.386719 1.410156 -0.429688 1.371094 -0.46875 C 1.332031 -0.507812 1.289062 -0.535156 1.242188 -0.550781 C 1.21875 -0.558594 1.203125 -0.5625 1.1875 -0.5625 L 6.914062 -0.5625 C 6.902344 -0.5625 6.886719 -0.558594 6.863281 -0.550781 C 6.816406 -0.535156 6.773438 -0.507812 6.734375 -0.46875 C 6.695312 -0.429688 6.667969 -0.386719 6.652344 -0.339844 C 6.644531 -0.316406 6.640625 -0.300781 6.640625 -0.289062 L 6.640625 -2.089844 C 6.640625 -2.078125 6.644531 -2.058594 6.652344 -2.039062 C 6.667969 -1.988281 6.695312 -1.945312 6.734375 -1.90625 C 6.773438 -1.867188 6.816406 -1.839844 6.863281 -1.824219 C 6.886719 -1.816406 6.902344 -1.816406 6.914062 -1.816406 L 2.785156 -1.816406 Z M 3.914062 -2.378906 L 3.351562 -2.378906 L 3.351562 -2.941406 L 6.914062 -2.941406 C 7.167969 -2.941406 7.371094 -2.859375 7.53125 -2.703125 C 7.6875 -2.546875 7.765625 -2.339844 7.765625 -2.089844 L 7.765625 -0.289062 C 7.765625 -0.0351562 7.6875 0.167969 7.53125 0.324219 C 7.371094 0.484375 7.167969 0.5625 6.914062 0.5625 L 1.1875 0.5625 C 0.9375 0.5625 0.734375 0.484375 0.574219 0.324219 C 0.417969 0.167969 0.335938 -0.0351562 0.335938 -0.289062 L 0.335938 -12.320312 C 0.335938 -12.570312 0.417969 -12.773438 0.574219 -12.933594 C 0.734375 -13.089844 0.9375 -13.171875 1.1875 -13.171875 L 3.0625 -13.171875 C 3.3125 -13.171875 3.519531 -13.089844 3.675781 -12.933594 C 3.832031 -12.773438 3.914062 -12.570312 3.914062 -12.320312 Z M 3.914062 -2.378906 "/></g></g><g style="fill:#b21a22;fill-opacity:1;"><g transform="translate(32.304817, 80.185935)"><path style="stroke:none" d="M 1.1875 -0.5625 L 3.0625 -0.5625 C 3.050781 -0.5625 3.03125 -0.558594 3.011719 -0.550781 C 2.960938 -0.535156 2.917969 -0.507812 2.878906 -0.46875 C 2.839844 -0.429688 2.8125 -0.386719 2.796875 -0.339844 C 2.789062 -0.316406 2.785156 -0.300781 2.785156 -0.289062 L 2.785156 -12.320312 C 2.785156 -12.304688 2.789062 -12.289062 2.796875 -12.265625 C 2.8125 -12.21875 2.839844 -12.175781 2.878906 -12.136719 C 2.917969 -12.097656 2.960938 -12.070312 3.011719 -12.054688 C 3.03125 -12.046875 3.050781 -12.042969 3.0625 -12.042969 L 1.1875 -12.042969 C 1.203125 -12.042969 1.21875 -12.046875 1.242188 -12.054688 C 1.289062 -12.070312 1.332031 -12.097656 1.371094 -12.136719 C 1.410156 -12.175781 1.4375 -12.21875 1.453125 -12.265625 C 1.460938 -12.289062 1.464844 -12.304688 1.464844 -12.320312 L 1.464844 -0.289062 C 1.464844 -0.300781 1.460938 -0.316406 1.453125 -0.339844 C 1.4375 -0.386719 1.410156 -0.429688 1.371094 -0.46875 C 1.332031 -0.507812 1.289062 -0.535156 1.242188 -0.550781 C 1.21875 -0.558594 1.203125 -0.5625 1.1875 -0.5625 Z M 1.1875 0.5625 C 0.9375 0.5625 0.734375 0.484375 0.574219 0.324219 C 0.417969 0.167969 0.335938 -0.0351562 0.335938 -0.289062 L 0.335938 -12.320312 C 0.335938 -12.570312 0.417969 -12.773438 0.574219 -12.933594 C 0.734375 -13.089844 0.9375 -13.171875 1.1875 -13.171875 L 3.0625 -13.171875 C 3.3125 -13.171875 3.519531 -13.089844 3.675781 -12.933594 C 3.832031 -12.773438 3.914062 -12.570312 3.914062 -12.320312 L 3.914062 -0.289062 C 3.914062 -0.0351562 3.832031 0.167969 3.675781 0.324219 C 3.519531 0.484375 3.3125 0.5625 3.0625 0.5625 Z M 1.1875 0.5625 "/></g></g><g style="fill:#b21a22;fill-opacity:1;"><g transform="translate(36.553931, 80.185935)"><path style="stroke:none" d="M 1.476562 -13.171875 L 8.304688 -13.171875 C 8.65625 -13.171875 8.914062 -13.042969 9.070312 -12.785156 C 9.222656 -12.535156 9.226562 -12.257812 9.085938 -11.941406 L 4.492188 -1.980469 L 3.980469 -2.214844 L 3.980469 -2.777344 L 7.925781 -2.777344 C 8.175781 -2.777344 8.378906 -2.699219 8.539062 -2.542969 C 8.695312 -2.382812 8.777344 -2.179688 8.777344 -1.925781 L 8.777344 -0.304688 C 8.777344 -0.0664062 8.699219 0.132812 8.550781 0.292969 C 8.410156 0.441406 8.222656 0.53125 7.996094 0.558594 L 7.960938 0.5625 L 0.863281 0.5625 C 0.714844 0.5625 0.578125 0.535156 0.457031 0.484375 C 0.296875 0.414062 0.171875 0.304688 0.0859375 0.152344 C -0.0585938 -0.105469 -0.0585938 -0.382812 0.0898438 -0.683594 L 0.59375 -0.433594 L 0.0859375 -0.671875 L 4.675781 -10.46875 L 5.1875 -10.230469 L 5.1875 -9.667969 L 1.476562 -9.667969 C 1.226562 -9.667969 1.019531 -9.746094 0.863281 -9.902344 C 0.703125 -10.0625 0.625 -10.265625 0.625 -10.519531 L 0.625 -12.300781 C 0.625 -12.539062 0.699219 -12.738281 0.851562 -12.898438 C 0.992188 -13.046875 1.175781 -13.136719 1.40625 -13.164062 L 1.441406 -13.171875 Z M 1.476562 -12.042969 L 1.476562 -12.605469 L 1.546875 -12.046875 C 1.585938 -12.054688 1.625 -12.078125 1.671875 -12.128906 C 1.722656 -12.183594 1.75 -12.242188 1.75 -12.300781 L 1.75 -10.519531 C 1.75 -10.53125 1.746094 -10.546875 1.742188 -10.570312 C 1.726562 -10.617188 1.699219 -10.660156 1.660156 -10.699219 C 1.621094 -10.738281 1.578125 -10.765625 1.527344 -10.78125 C 1.507812 -10.789062 1.488281 -10.792969 1.476562 -10.792969 L 6.074219 -10.792969 L 1.101562 -0.1875 L 1.097656 -0.179688 C 1.101562 -0.1875 1.105469 -0.207031 1.105469 -0.234375 C 1.109375 -0.292969 1.097656 -0.351562 1.066406 -0.40625 C 1.027344 -0.472656 0.976562 -0.519531 0.910156 -0.546875 C 0.894531 -0.554688 0.875 -0.558594 0.863281 -0.5625 L 7.925781 -0.5625 L 7.925781 0 L 7.855469 -0.558594 C 7.816406 -0.554688 7.777344 -0.527344 7.730469 -0.480469 C 7.675781 -0.421875 7.648438 -0.363281 7.648438 -0.304688 L 7.648438 -1.925781 C 7.648438 -1.914062 7.652344 -1.898438 7.660156 -1.875 C 7.675781 -1.828125 7.703125 -1.785156 7.742188 -1.746094 C 7.78125 -1.707031 7.824219 -1.679688 7.871094 -1.664062 C 7.894531 -1.65625 7.910156 -1.652344 7.925781 -1.652344 L 3.101562 -1.652344 L 8.0625 -12.40625 C 8.0625 -12.414062 8.066406 -12.417969 8.066406 -12.421875 C 8.0625 -12.410156 8.0625 -12.398438 8.058594 -12.386719 C 8.058594 -12.320312 8.074219 -12.257812 8.113281 -12.195312 C 8.152344 -12.128906 8.207031 -12.082031 8.269531 -12.054688 C 8.285156 -12.050781 8.300781 -12.046875 8.3125 -12.042969 C 8.3125 -12.042969 8.308594 -12.042969 8.304688 -12.042969 Z M 1.476562 -12.042969 "/></g></g><g style="fill:#b21a22;fill-opacity:1;"><g transform="translate(45.700339, 80.185935)"><path style="stroke:none" d="M 8.648438 -12.320312 L 8.648438 -10.519531 C 8.648438 -10.265625 8.574219 -10.0625 8.425781 -9.902344 C 8.265625 -9.734375 8.058594 -9.648438 7.796875 -9.648438 L 3.351562 -9.648438 L 3.351562 -10.210938 L 3.914062 -10.210938 L 3.914062 -7.4375 L 3.351562 -7.4375 L 3.351562 -8 L 6.734375 -8 C 6.992188 -8 7.203125 -7.917969 7.363281 -7.746094 C 7.511719 -7.589844 7.585938 -7.382812 7.585938 -7.132812 L 7.585938 -5.347656 C 7.585938 -5.097656 7.511719 -4.894531 7.363281 -4.734375 C 7.203125 -4.566406 6.992188 -4.480469 6.734375 -4.480469 L 3.351562 -4.480469 L 3.351562 -5.042969 L 3.914062 -5.042969 L 3.914062 -2.378906 L 3.351562 -2.378906 L 3.351562 -2.941406 L 7.796875 -2.941406 C 8.050781 -2.941406 8.253906 -2.859375 8.414062 -2.703125 C 8.570312 -2.546875 8.648438 -2.339844 8.648438 -2.089844 L 8.648438 -0.289062 C 8.648438 -0.0351562 8.570312 0.167969 8.414062 0.324219 C 8.253906 0.484375 8.050781 0.5625 7.796875 0.5625 L 1.171875 0.5625 C 0.917969 0.5625 0.714844 0.480469 0.558594 0.3125 C 0.410156 0.15625 0.335938 -0.0429688 0.335938 -0.289062 L 0.335938 -12.320312 C 0.335938 -12.5625 0.410156 -12.765625 0.558594 -12.921875 C 0.714844 -13.085938 0.917969 -13.171875 1.171875 -13.171875 L 7.796875 -13.171875 C 8.050781 -13.171875 8.253906 -13.089844 8.414062 -12.933594 C 8.570312 -12.773438 8.648438 -12.570312 8.648438 -12.320312 Z M 7.523438 -12.320312 C 7.523438 -12.304688 7.527344 -12.289062 7.535156 -12.265625 C 7.550781 -12.21875 7.578125 -12.175781 7.617188 -12.136719 C 7.65625 -12.097656 7.699219 -12.070312 7.746094 -12.054688 C 7.769531 -12.046875 7.785156 -12.042969 7.796875 -12.042969 L 1.171875 -12.042969 C 1.242188 -12.042969 1.3125 -12.078125 1.378906 -12.148438 C 1.414062 -12.1875 1.441406 -12.230469 1.453125 -12.277344 C 1.460938 -12.296875 1.464844 -12.308594 1.464844 -12.320312 L 1.464844 -0.289062 C 1.464844 -0.296875 1.460938 -0.3125 1.453125 -0.328125 C 1.441406 -0.375 1.414062 -0.417969 1.378906 -0.457031 C 1.3125 -0.527344 1.242188 -0.5625 1.171875 -0.5625 L 7.796875 -0.5625 C 7.785156 -0.5625 7.769531 -0.558594 7.746094 -0.550781 C 7.699219 -0.535156 7.65625 -0.507812 7.617188 -0.46875 C 7.578125 -0.429688 7.550781 -0.386719 7.535156 -0.339844 C 7.527344 -0.316406 7.523438 -0.300781 7.523438 -0.289062 L 7.523438 -2.089844 C 7.523438 -2.078125 7.527344 -2.058594 7.535156 -2.039062 C 7.550781 -1.988281 7.578125 -1.945312 7.617188 -1.90625 C 7.65625 -1.867188 7.699219 -1.839844 7.746094 -1.824219 C 7.769531 -1.816406 7.785156 -1.816406 7.796875 -1.816406 L 2.785156 -1.816406 L 2.785156 -5.605469 L 6.734375 -5.605469 C 6.71875 -5.605469 6.699219 -5.601562 6.675781 -5.59375 C 6.625 -5.574219 6.582031 -5.546875 6.542969 -5.503906 C 6.507812 -5.46875 6.484375 -5.425781 6.46875 -5.382812 C 6.464844 -5.367188 6.460938 -5.355469 6.460938 -5.347656 L 6.460938 -7.132812 C 6.460938 -7.125 6.464844 -7.113281 6.46875 -7.097656 C 6.484375 -7.054688 6.507812 -7.011719 6.542969 -6.976562 C 6.582031 -6.933594 6.625 -6.90625 6.675781 -6.886719 C 6.699219 -6.878906 6.71875 -6.875 6.734375 -6.875 L 2.785156 -6.875 L 2.785156 -10.773438 L 7.796875 -10.773438 C 7.78125 -10.773438 7.761719 -10.769531 7.738281 -10.761719 C 7.6875 -10.742188 7.644531 -10.714844 7.605469 -10.675781 C 7.570312 -10.636719 7.546875 -10.597656 7.53125 -10.550781 C 7.527344 -10.535156 7.523438 -10.523438 7.523438 -10.519531 Z M 7.523438 -12.320312 "/></g></g><g style="fill:#b21a22;fill-opacity:1;"><g transform="translate(54.684699, 80.185935)"><path style="stroke:none" d="M 8.667969 -10.015625 L 8.667969 -6.394531 C 8.667969 -5.140625 8.242188 -4.25 7.394531 -3.71875 L 7.097656 -4.195312 L 7.644531 -4.328125 L 8.578125 -0.457031 L 8.03125 -0.324219 L 8.574219 -0.476562 C 8.65625 -0.183594 8.617188 0.0625 8.457031 0.265625 C 8.304688 0.464844 8.078125 0.5625 7.78125 0.5625 L 6.015625 0.5625 C 5.796875 0.5625 5.609375 0.5 5.453125 0.371094 C 5.304688 0.246094 5.203125 0.078125 5.160156 -0.132812 L 5.710938 -0.253906 L 5.164062 -0.117188 L 4.296875 -3.667969 L 4.84375 -3.800781 L 4.84375 -3.238281 L 3.242188 -3.238281 L 3.242188 -3.800781 L 3.804688 -3.800781 L 3.804688 -0.289062 C 3.804688 -0.0351562 3.726562 0.167969 3.566406 0.324219 C 3.410156 0.484375 3.207031 0.5625 2.953125 0.5625 L 1.1875 0.5625 C 0.9375 0.5625 0.734375 0.484375 0.574219 0.324219 C 0.417969 0.167969 0.335938 -0.0351562 0.335938 -0.289062 L 0.335938 -12.320312 C 0.335938 -12.570312 0.417969 -12.773438 0.574219 -12.933594 C 0.734375 -13.089844 0.9375 -13.171875 1.1875 -13.171875 L 5.511719 -13.171875 C 6.519531 -13.171875 7.296875 -12.894531 7.84375 -12.347656 C 8.394531 -11.800781 8.667969 -11.023438 8.667969 -10.015625 Z M 7.542969 -10.015625 C 7.542969 -10.710938 7.378906 -11.222656 7.050781 -11.550781 C 6.722656 -11.878906 6.207031 -12.042969 5.511719 -12.042969 L 1.1875 -12.042969 C 1.203125 -12.042969 1.21875 -12.046875 1.242188 -12.054688 C 1.289062 -12.070312 1.332031 -12.097656 1.371094 -12.136719 C 1.410156 -12.175781 1.4375 -12.21875 1.453125 -12.265625 C 1.460938 -12.289062 1.464844 -12.304688 1.464844 -12.320312 L 1.464844 -0.289062 C 1.464844 -0.300781 1.460938 -0.316406 1.453125 -0.339844 C 1.4375 -0.386719 1.410156 -0.429688 1.371094 -0.46875 C 1.332031 -0.507812 1.289062 -0.535156 1.242188 -0.550781 C 1.21875 -0.558594 1.203125 -0.5625 1.1875 -0.5625 L 2.953125 -0.5625 C 2.941406 -0.5625 2.921875 -0.558594 2.902344 -0.550781 C 2.855469 -0.535156 2.808594 -0.507812 2.773438 -0.46875 C 2.734375 -0.429688 2.707031 -0.386719 2.691406 -0.339844 C 2.683594 -0.316406 2.679688 -0.300781 2.679688 -0.289062 L 2.679688 -4.363281 L 5.285156 -4.363281 L 6.257812 -0.378906 L 6.257812 -0.371094 C 6.25 -0.414062 6.21875 -0.457031 6.171875 -0.496094 C 6.117188 -0.542969 6.066406 -0.5625 6.015625 -0.5625 L 7.78125 -0.5625 C 7.769531 -0.5625 7.753906 -0.558594 7.742188 -0.550781 C 7.675781 -0.527344 7.617188 -0.488281 7.570312 -0.425781 C 7.523438 -0.363281 7.496094 -0.296875 7.488281 -0.222656 C 7.488281 -0.199219 7.488281 -0.183594 7.492188 -0.171875 L 7.488281 -0.183594 L 6.453125 -4.457031 L 6.796875 -4.671875 C 7.292969 -4.984375 7.542969 -5.558594 7.542969 -6.394531 Z M 3.242188 -6.6875 L 5.042969 -6.6875 C 5.101562 -6.6875 5.148438 -6.691406 5.179688 -6.703125 C 5.1875 -6.703125 5.191406 -6.707031 5.191406 -6.707031 C 5.191406 -6.707031 5.1875 -6.703125 5.183594 -6.703125 C 5.183594 -6.699219 5.179688 -6.695312 5.179688 -6.695312 C 5.179688 -6.695312 5.183594 -6.699219 5.183594 -6.707031 C 5.195312 -6.738281 5.199219 -6.785156 5.199219 -6.84375 L 5.199219 -9.5625 C 5.199219 -9.621094 5.195312 -9.667969 5.183594 -9.699219 C 5.183594 -9.707031 5.179688 -9.710938 5.179688 -9.714844 C 5.179688 -9.710938 5.183594 -9.707031 5.183594 -9.707031 C 5.1875 -9.703125 5.191406 -9.703125 5.191406 -9.699219 C 5.191406 -9.703125 5.1875 -9.703125 5.179688 -9.703125 C 5.148438 -9.714844 5.101562 -9.722656 5.042969 -9.722656 L 3.242188 -9.722656 L 3.242188 -10.285156 L 3.804688 -10.285156 L 3.804688 -6.125 L 3.242188 -6.125 Z M 2.679688 -5.5625 L 2.679688 -10.847656 L 5.042969 -10.847656 C 5.4375 -10.847656 5.75 -10.730469 5.980469 -10.5 C 6.210938 -10.273438 6.328125 -9.960938 6.328125 -9.5625 L 6.328125 -6.84375 C 6.328125 -6.449219 6.210938 -6.136719 5.980469 -5.90625 C 5.75 -5.675781 5.4375 -5.5625 5.042969 -5.5625 Z M 2.679688 -5.5625 "/></g></g><g style="fill:#060705;fill-opacity:1;"><g transform="translate(24.072864, 29.966743)"><path style="stroke:none" d="M 8.4375 -12.609375 L 10.8125 -12.609375 C 11.050781 -12.609375 11.171875 -12.488281 11.171875 -12.25 L 11.171875 -0.359375 C 11.171875 -0.117188 11.050781 0 10.8125 0 L 9.140625 0 C 8.898438 0 8.78125 -0.117188 8.78125 -0.359375 L 8.78125 -7.4375 L 8.640625 -7.4375 L 6.953125 -0.3125 C 6.890625 -0.101562 6.757812 0 6.5625 0 L 5.5 0 C 5.289062 0 5.15625 -0.101562 5.09375 -0.3125 L 3.40625 -7.4375 L 3.28125 -7.4375 L 3.28125 -0.359375 C 3.28125 -0.117188 3.160156 0 2.921875 0 L 1.265625 0 C 1.023438 0 0.90625 -0.117188 0.90625 -0.359375 L 0.90625 -12.25 C 0.90625 -12.488281 1.023438 -12.609375 1.265625 -12.609375 L 3.640625 -12.609375 C 3.847656 -12.609375 3.976562 -12.503906 4.03125 -12.296875 L 6.03125 -4.265625 L 8.03125 -12.296875 C 8.09375 -12.503906 8.226562 -12.609375 8.4375 -12.609375 Z M 8.4375 -12.609375 "/></g></g><g style="fill:#060705;fill-opacity:1;"><g transform="translate(36.136035, 29.966743)"><path style="stroke:none" d="M 0.90625 -2.59375 L 0.90625 -10.015625 C 0.90625 -10.867188 1.125 -11.515625 1.5625 -11.953125 C 2.007812 -12.390625 2.65625 -12.609375 3.5 -12.609375 L 5.515625 -12.609375 C 6.367188 -12.609375 7.015625 -12.390625 7.453125 -11.953125 C 7.890625 -11.515625 8.109375 -10.867188 8.109375 -10.015625 L 8.109375 -2.59375 C 8.109375 -1.75 7.890625 -1.101562 7.453125 -0.65625 C 7.015625 -0.21875 6.367188 0 5.515625 0 L 3.5 0 C 2.65625 0 2.007812 -0.21875 1.5625 -0.65625 C 1.125 -1.101562 0.90625 -1.75 0.90625 -2.59375 Z M 3.96875 -2.328125 L 5.109375 -2.328125 C 5.597656 -2.328125 5.84375 -2.566406 5.84375 -3.046875 L 5.84375 -9.5625 C 5.84375 -10.039062 5.597656 -10.28125 5.109375 -10.28125 L 3.96875 -10.28125 C 3.488281 -10.28125 3.25 -10.039062 3.25 -9.5625 L 3.25 -3.046875 C 3.25 -2.566406 3.488281 -2.328125 3.96875 -2.328125 Z M 3.96875 -2.328125 "/></g></g><g style="fill:#060705;fill-opacity:1;"><g transform="translate(45.138402, 29.966743)"><path style="stroke:none" d="M 6.609375 -12.609375 L 8.3125 -12.609375 C 8.5 -12.609375 8.59375 -12.515625 8.59375 -12.328125 L 8.59375 -0.28125 C 8.59375 -0.09375 8.5 0 8.3125 0 L 6.875 0 C 6.738281 0 6.632812 -0.078125 6.5625 -0.234375 L 3.171875 -7.109375 L 3.171875 -0.28125 C 3.171875 -0.09375 3.070312 0 2.875 0 L 1.1875 0 C 1 0 0.90625 -0.09375 0.90625 -0.28125 L 0.90625 -12.328125 C 0.90625 -12.515625 1 -12.609375 1.1875 -12.609375 L 2.609375 -12.609375 C 2.753906 -12.609375 2.863281 -12.53125 2.9375 -12.375 L 6.328125 -5.5 L 6.328125 -12.328125 C 6.328125 -12.515625 6.421875 -12.609375 6.609375 -12.609375 Z M 6.609375 -12.609375 "/></g></g><g style="fill:#060705;fill-opacity:1;"><g transform="translate(54.626901, 29.966743)"><path style="stroke:none" d="M 7.453125 -12.609375 L 0.828125 -12.609375 C 0.640625 -12.609375 0.546875 -12.515625 0.546875 -12.328125 L 0.546875 -10.515625 C 0.546875 -10.328125 0.640625 -10.234375 0.828125 -10.234375 L 2.921875 -10.234375 L 2.921875 -0.28125 C 2.921875 -0.09375 3.015625 0 3.203125 0 L 5.078125 0 C 5.273438 0 5.375 -0.09375 5.375 -0.28125 L 5.375 -10.234375 L 7.453125 -10.234375 C 7.648438 -10.234375 7.75 -10.328125 7.75 -10.515625 L 7.75 -12.328125 C 7.75 -12.515625 7.648438 -12.609375 7.453125 -12.609375 Z M 7.453125 -12.609375 "/></g></g><g style="fill:#060705;fill-opacity:1;"><g transform="translate(62.90908, 29.966743)"><path style="stroke:none" d="M 5.65625 -7.453125 L 5.65625 -12.328125 C 5.65625 -12.515625 5.75 -12.609375 5.9375 -12.609375 L 7.796875 -12.609375 C 8.003906 -12.609375 8.109375 -12.515625 8.109375 -12.328125 L 8.109375 -0.28125 C 8.109375 -0.09375 8.003906 0 7.796875 0 L 5.9375 0 C 5.75 0 5.65625 -0.09375 5.65625 -0.28125 L 5.65625 -5.078125 L 3.34375 -5.078125 L 3.34375 -0.28125 C 3.34375 -0.09375 3.25 0 3.0625 0 L 1.203125 0 C 1.003906 0 0.90625 -0.09375 0.90625 -0.28125 L 0.90625 -12.328125 C 0.90625 -12.515625 1.003906 -12.609375 1.203125 -12.609375 L 3.0625 -12.609375 C 3.25 -12.609375 3.34375 -12.515625 3.34375 -12.328125 L 3.34375 -7.453125 Z M 5.65625 -7.453125 "/></g></g><g style="fill:#060705;fill-opacity:1;"><g transform="translate(20.534694, 55.076339)"><path style="stroke:none" d="M 0.90625 -5.65625 L 0.90625 -7.3125 C 0.90625 -7.550781 1.023438 -7.671875 1.265625 -7.671875 L 4.109375 -7.671875 C 4.347656 -7.671875 4.46875 -7.550781 4.46875 -7.3125 L 4.46875 -5.65625 C 4.46875 -5.414062 4.347656 -5.296875 4.109375 -5.296875 L 1.265625 -5.296875 C 1.023438 -5.296875 0.90625 -5.414062 0.90625 -5.65625 Z M 0.90625 -5.65625 "/></g></g><g style="fill:#060705;fill-opacity:1;"><g transform="translate(25.900103, 55.076339)"><path style="stroke:none" d="M 3.5 -12.609375 L 5.515625 -12.609375 C 6.367188 -12.609375 7.015625 -12.390625 7.453125 -11.953125 C 7.890625 -11.515625 8.109375 -10.867188 8.109375 -10.015625 L 8.109375 -8.828125 C 8.109375 -8.640625 8.007812 -8.546875 7.8125 -8.546875 L 6 -8.546875 C 5.8125 -8.546875 5.71875 -8.640625 5.71875 -8.828125 L 5.71875 -9.578125 C 5.71875 -10.066406 5.472656 -10.3125 4.984375 -10.3125 L 4 -10.3125 C 3.519531 -10.3125 3.28125 -10.066406 3.28125 -9.578125 L 3.28125 -8.046875 L 7.640625 -6.640625 C 7.953125 -6.535156 8.109375 -6.316406 8.109375 -5.984375 L 8.109375 -2.59375 C 8.109375 -1.75 7.890625 -1.101562 7.453125 -0.65625 C 7.015625 -0.21875 6.367188 0 5.515625 0 L 3.5 0 C 2.65625 0 2.007812 -0.21875 1.5625 -0.65625 C 1.125 -1.101562 0.90625 -1.75 0.90625 -2.59375 L 0.90625 -3.765625 C 0.90625 -3.953125 1 -4.046875 1.1875 -4.046875 L 3.015625 -4.046875 C 3.203125 -4.046875 3.296875 -3.953125 3.296875 -3.765625 L 3.296875 -3.015625 C 3.296875 -2.523438 3.535156 -2.28125 4.015625 -2.28125 L 4.984375 -2.28125 C 5.472656 -2.28125 5.71875 -2.523438 5.71875 -3.015625 L 5.71875 -4.828125 L 1.390625 -6.234375 C 1.066406 -6.335938 0.90625 -6.5625 0.90625 -6.90625 L 0.90625 -10.015625 C 0.90625 -10.867188 1.125 -11.515625 1.5625 -11.953125 C 2.007812 -12.390625 2.65625 -12.609375 3.5 -12.609375 Z M 3.5 -12.609375 "/></g></g><g style="fill:#060705;fill-opacity:1;"><g transform="translate(34.902471, 55.076339)"><path style="stroke:none" d="M 8.09375 -12.328125 L 8.09375 -10.515625 C 8.09375 -10.316406 7.992188 -10.21875 7.796875 -10.21875 L 3.34375 -10.21875 L 3.34375 -7.4375 L 6.734375 -7.4375 C 6.929688 -7.4375 7.03125 -7.335938 7.03125 -7.140625 L 7.03125 -5.34375 C 7.03125 -5.144531 6.929688 -5.046875 6.734375 -5.046875 L 3.34375 -5.046875 L 3.34375 -2.375 L 7.796875 -2.375 C 7.992188 -2.375 8.09375 -2.28125 8.09375 -2.09375 L 8.09375 -0.28125 C 8.09375 -0.09375 7.992188 0 7.796875 0 L 1.171875 0 C 0.992188 0 0.90625 -0.09375 0.90625 -0.28125 L 0.90625 -12.328125 C 0.90625 -12.515625 0.992188 -12.609375 1.171875 -12.609375 L 7.796875 -12.609375 C 7.992188 -12.609375 8.09375 -12.515625 8.09375 -12.328125 Z M 8.09375 -12.328125 "/></g></g><g style="fill:#060705;fill-opacity:1;"><g transform="translate(43.886831, 55.076339)"><path style="stroke:none" d="M 8.109375 -10.015625 L 8.109375 -6.390625 C 8.109375 -5.347656 7.769531 -4.617188 7.09375 -4.203125 L 8.03125 -0.328125 C 8.09375 -0.109375 8.007812 0 7.78125 0 L 6.015625 0 C 5.847656 0 5.75 -0.0820312 5.71875 -0.25 L 4.84375 -3.796875 L 3.25 -3.796875 L 3.25 -0.28125 C 3.25 -0.09375 3.148438 0 2.953125 0 L 1.1875 0 C 1 0 0.90625 -0.09375 0.90625 -0.28125 L 0.90625 -12.328125 C 0.90625 -12.515625 1 -12.609375 1.1875 -12.609375 L 5.515625 -12.609375 C 6.367188 -12.609375 7.015625 -12.390625 7.453125 -11.953125 C 7.890625 -11.515625 8.109375 -10.867188 8.109375 -10.015625 Z M 3.25 -6.125 L 5.046875 -6.125 C 5.523438 -6.125 5.765625 -6.363281 5.765625 -6.84375 L 5.765625 -9.5625 C 5.765625 -10.039062 5.523438 -10.28125 5.046875 -10.28125 L 3.25 -10.28125 Z M 3.25 -6.125 "/></g></g><g style="fill:#060705;fill-opacity:1;"><g transform="translate(52.889198, 55.076339)"><path style="stroke:none" d="M 1.1875 0 L 3.0625 0 C 3.25 0 3.34375 -0.09375 3.34375 -0.28125 L 3.34375 -12.328125 C 3.34375 -12.515625 3.25 -12.609375 3.0625 -12.609375 L 1.1875 -12.609375 C 1 -12.609375 0.90625 -12.515625 0.90625 -12.328125 L 0.90625 -0.28125 C 0.90625 -0.09375 1 0 1.1875 0 Z M 1.1875 0 "/></g></g><g style="fill:#060705;fill-opacity:1;"><g transform="translate(57.138313, 55.076339)"><path style="stroke:none" d="M 9.40625 0 L 7.65625 0 C 7.5 0 7.40625 -0.0820312 7.375 -0.25 L 6.796875 -2.515625 L 3.40625 -2.515625 L 2.84375 -0.25 C 2.8125 -0.0820312 2.71875 0 2.5625 0 L 0.796875 0 C 0.578125 0 0.5 -0.101562 0.5625 -0.3125 L 3.546875 -12.359375 C 3.585938 -12.523438 3.691406 -12.609375 3.859375 -12.609375 L 6.359375 -12.609375 C 6.523438 -12.609375 6.628906 -12.523438 6.671875 -12.359375 L 9.65625 -0.3125 C 9.71875 -0.101562 9.632812 0 9.40625 0 Z M 6.234375 -4.609375 L 5.09375 -9.515625 L 3.96875 -4.609375 Z M 6.234375 -4.609375 "/></g></g><g style="fill:#060705;fill-opacity:1;"><g transform="translate(67.347, 55.076339)"><path style="stroke:none" d="M 3.34375 -2.375 L 3.34375 -12.328125 C 3.34375 -12.515625 3.25 -12.609375 3.0625 -12.609375 L 1.1875 -12.609375 C 1 -12.609375 0.90625 -12.515625 0.90625 -12.328125 L 0.90625 -0.28125 C 0.90625 -0.09375 1 0 1.1875 0 L 6.921875 0 C 7.109375 0 7.203125 -0.09375 7.203125 -0.28125 L 7.203125 -2.09375 C 7.203125 -2.28125 7.109375 -2.375 6.921875 -2.375 Z M 3.34375 -2.375 "/></g></g><g style="fill:#060705;fill-opacity:1;"><g transform="translate(32.304817, 80.185935)"><path style="stroke:none" d="M 1.1875 0 L 3.0625 0 C 3.25 0 3.34375 -0.09375 3.34375 -0.28125 L 3.34375 -12.328125 C 3.34375 -12.515625 3.25 -12.609375 3.0625 -12.609375 L 1.1875 -12.609375 C 1 -12.609375 0.90625 -12.515625 0.90625 -12.328125 L 0.90625 -0.28125 C 0.90625 -0.09375 1 0 1.1875 0 Z M 1.1875 0 "/></g></g><g style="fill:#060705;fill-opacity:1;"><g transform="translate(36.553931, 80.185935)"><path style="stroke:none" d="M 1.484375 -12.609375 L 8.3125 -12.609375 C 8.445312 -12.609375 8.539062 -12.566406 8.59375 -12.484375 C 8.644531 -12.410156 8.640625 -12.304688 8.578125 -12.171875 L 3.984375 -2.21875 L 7.921875 -2.21875 C 8.117188 -2.21875 8.21875 -2.117188 8.21875 -1.921875 L 8.21875 -0.3125 C 8.21875 -0.125 8.117188 -0.0195312 7.921875 0 L 0.859375 0 C 0.722656 0 0.628906 -0.0390625 0.578125 -0.125 C 0.523438 -0.207031 0.53125 -0.3125 0.59375 -0.4375 L 5.1875 -10.234375 L 1.484375 -10.234375 C 1.285156 -10.234375 1.1875 -10.328125 1.1875 -10.515625 L 1.1875 -12.296875 C 1.1875 -12.484375 1.285156 -12.585938 1.484375 -12.609375 Z M 1.484375 -12.609375 "/></g></g><g style="fill:#060705;fill-opacity:1;"><g transform="translate(45.700339, 80.185935)"><path style="stroke:none" d="M 8.09375 -12.328125 L 8.09375 -10.515625 C 8.09375 -10.316406 7.992188 -10.21875 7.796875 -10.21875 L 3.34375 -10.21875 L 3.34375 -7.4375 L 6.734375 -7.4375 C 6.929688 -7.4375 7.03125 -7.335938 7.03125 -7.140625 L 7.03125 -5.34375 C 7.03125 -5.144531 6.929688 -5.046875 6.734375 -5.046875 L 3.34375 -5.046875 L 3.34375 -2.375 L 7.796875 -2.375 C 7.992188 -2.375 8.09375 -2.28125 8.09375 -2.09375 L 8.09375 -0.28125 C 8.09375 -0.09375 7.992188 0 7.796875 0 L 1.171875 0 C 0.992188 0 0.90625 -0.09375 0.90625 -0.28125 L 0.90625 -12.328125 C 0.90625 -12.515625 0.992188 -12.609375 1.171875 -12.609375 L 7.796875 -12.609375 C 7.992188 -12.609375 8.09375 -12.515625 8.09375 -12.328125 Z M 8.09375 -12.328125 "/></g></g><g style="fill:#060705;fill-opacity:1;"><g transform="translate(54.684699, 80.185935)"><path style="stroke:none" d="M 8.109375 -10.015625 L 8.109375 -6.390625 C 8.109375 -5.347656 7.769531 -4.617188 7.09375 -4.203125 L 8.03125 -0.328125 C 8.09375 -0.109375 8.007812 0 7.78125 0 L 6.015625 0 C 5.847656 0 5.75 -0.0820312 5.71875 -0.25 L 4.84375 -3.796875 L 3.25 -3.796875 L 3.25 -0.28125 C 3.25 -0.09375 3.148438 0 2.953125 0 L 1.1875 0 C 1 0 0.90625 -0.09375 0.90625 -0.28125 L 0.90625 -12.328125 C 0.90625 -12.515625 1 -12.609375 1.1875 -12.609375 L 5.515625 -12.609375 C 6.367188 -12.609375 7.015625 -12.390625 7.453125 -11.953125 C 7.890625 -11.515625 8.109375 -10.867188 8.109375 -10.015625 Z M 3.25 -6.125 L 5.046875 -6.125 C 5.523438 -6.125 5.765625 -6.363281 5.765625 -6.84375 L 5.765625 -9.5625 C 5.765625 -10.039062 5.523438 -10.28125 5.046875 -10.28125 L 3.25 -10.28125 Z M 3.25 -6.125 "/></g></g></g></svg>