<svg xmlns="http://www.w3.org/2000/svg" xmlns:xlink="http://www.w3.org/1999/xlink" width="192" zoomAndPan="magnify" viewBox="0 0 144 143.999998" height="192" preserveAspectRatio="xMidYMid meet" version="1.2"><defs><clipPath id="4ce0277c81"><path d="M 9 0 L 135 0 L 135 144 L 9 144 Z M 9 0 "/></clipPath><clipPath id="f21d23b5ef"><path d="M -21.457031 54.867188 L 103.039062 -17.847656 L 165.503906 89.105469 L 41.007812 161.816406 Z M -21.457031 54.867188 "/></clipPath><clipPath id="d18087f980"><path d="M 134.226562 35.65625 L 134.347656 107.300781 L 72.121094 143.644531 L 9.773438 108.34375 L 9.65625 36.695312 L 71.878906 0.351562 Z M 134.226562 35.65625 "/></clipPath><clipPath id="a87a8ab028"><path d="M 21.210938 13.683594 L 122.773438 13.683594 L 122.773438 130.261719 L 21.210938 130.261719 Z M 21.210938 13.683594 "/></clipPath></defs><g id="0a966e93df"><g clip-rule="nonzero" clip-path="url(#4ce0277c81)"><g clip-rule="nonzero" clip-path="url(#f21d23b5ef)"><g clip-rule="nonzero" clip-path="url(#d18087f980)"><path style=" stroke:none;fill-rule:nonzero;fill:#65b30e;fill-opacity:1;" d="M -21.457031 54.867188 L 103.039062 -17.847656 L 165.503906 89.105469 L 41.007812 161.816406 Z M -21.457031 54.867188 "/></g></g></g><path style=" stroke:none;fill-rule:nonzero;fill:#87ff00;fill-opacity:1;" d="M 51.679688 52.109375 L 51.613281 52.046875 L 37.261719 66.398438 L 72.113281 101.183594 L 86.46875 86.898438 L 106.960938 66.398438 L 92.609375 52.046875 L 92.609375 51.980469 L 51.617188 51.980469 Z M 51.679688 52.109375 "/><g clip-rule="nonzero" clip-path="url(#a87a8ab028)"><path style=" stroke:none;fill-rule:nonzero;fill:#87ff00;fill-opacity:1;" d="M 71.980469 13.765625 L 21.222656 42.863281 L 21.226562 101.058594 L 71.984375 130.15625 L 122.742188 101.058594 L 122.742188 42.863281 L 71.984375 13.769531 Z M 113.039062 95.496094 L 71.980469 119.160156 L 30.921875 95.496094 L 30.925781 48.292969 L 71.984375 24.628906 L 113.042969 48.292969 L 113.042969 95.492188 Z M 113.039062 95.496094 "/></g><g style="fill:#b21a22;fill-opacity:1;"><g transform="translate(16.393273, 65.249518)"><path style="stroke:none" d="M 0.417969 -0.355469 L 0.417969 -15.179688 C 0.417969 -15.488281 0.511719 -15.742188 0.707031 -15.9375 C 0.902344 -16.128906 1.15625 -16.226562 1.464844 -16.226562 L 6.789062 -16.226562 C 8.035156 -16.226562 8.996094 -15.886719 9.671875 -15.199219 C 10.34375 -14.519531 10.679688 -13.558594 10.679688 -12.316406 L 10.679688 -3.195312 C 10.679688 -1.96875 10.34375 -1.015625 9.671875 -0.335938 C 8.996094 0.351562 8.035156 0.695312 6.789062 0.695312 L 1.464844 0.695312 C 1.15625 0.695312 0.902344 0.597656 0.707031 0.402344 C 0.511719 0.207031 0.417969 -0.046875 0.417969 -0.355469 Z M 1.804688 -0.355469 C 1.804688 -0.371094 1.796875 -0.390625 1.789062 -0.417969 C 1.769531 -0.476562 1.738281 -0.53125 1.6875 -0.578125 C 1.640625 -0.625 1.585938 -0.660156 1.527344 -0.679688 C 1.5 -0.6875 1.480469 -0.695312 1.464844 -0.695312 L 6.789062 -0.695312 C 7.648438 -0.695312 8.277344 -0.898438 8.683594 -1.308594 C 9.089844 -1.71875 9.292969 -2.351562 9.292969 -3.195312 L 9.292969 -12.316406 C 9.292969 -13.175781 9.089844 -13.8125 8.683594 -14.226562 C 8.277344 -14.636719 7.648438 -14.839844 6.789062 -14.839844 L 1.464844 -14.839844 C 1.480469 -14.839844 1.5 -14.84375 1.527344 -14.855469 C 1.585938 -14.875 1.640625 -14.90625 1.6875 -14.957031 C 1.738281 -15.003906 1.769531 -15.054688 1.789062 -15.117188 C 1.796875 -15.140625 1.804688 -15.164062 1.804688 -15.179688 Z M 4.128906 -3.621094 L 6.167969 -3.621094 C 6.242188 -3.621094 6.296875 -3.628906 6.339844 -3.644531 C 6.347656 -3.644531 6.351562 -3.648438 6.355469 -3.648438 C 6.351562 -3.648438 6.347656 -3.644531 6.34375 -3.640625 C 6.339844 -3.636719 6.339844 -3.636719 6.335938 -3.632812 C 6.339844 -3.636719 6.339844 -3.640625 6.34375 -3.648438 C 6.355469 -3.6875 6.363281 -3.746094 6.363281 -3.816406 L 6.363281 -11.695312 C 6.363281 -11.773438 6.355469 -11.835938 6.34375 -11.878906 C 6.339844 -11.886719 6.335938 -11.894531 6.332031 -11.898438 C 6.335938 -11.898438 6.335938 -11.894531 6.339844 -11.894531 L 6.332031 -11.890625 C 6.296875 -11.90625 6.242188 -11.910156 6.167969 -11.910156 L 4.128906 -11.910156 L 4.128906 -12.605469 L 4.820312 -12.605469 L 4.820312 -2.929688 L 4.128906 -2.929688 Z M 3.433594 -2.234375 L 3.433594 -13.296875 L 6.167969 -13.296875 C 6.660156 -13.296875 7.046875 -13.152344 7.332031 -12.863281 C 7.609375 -12.574219 7.75 -12.1875 7.75 -11.695312 L 7.75 -3.816406 C 7.75 -3.328125 7.609375 -2.945312 7.324219 -2.660156 C 7.042969 -2.378906 6.65625 -2.234375 6.167969 -2.234375 Z M 3.433594 -2.234375 "/></g></g><g style="fill:#b21a22;fill-opacity:1;"><g transform="translate(27.485873, 65.249518)"><path style="stroke:none" d="M 10.65625 -15.179688 L 10.65625 -12.960938 C 10.65625 -12.652344 10.566406 -12.398438 10.378906 -12.203125 C 10.183594 -11.992188 9.925781 -11.890625 9.609375 -11.890625 L 4.128906 -11.890625 L 4.128906 -12.582031 L 4.820312 -12.582031 L 4.820312 -9.164062 L 4.128906 -9.164062 L 4.128906 -9.859375 L 8.300781 -9.859375 C 8.617188 -9.859375 8.875 -9.753906 9.070312 -9.546875 C 9.257812 -9.351562 9.347656 -9.097656 9.347656 -8.789062 L 9.347656 -6.589844 C 9.347656 -6.28125 9.257812 -6.027344 9.070312 -5.832031 C 8.875 -5.625 8.617188 -5.519531 8.300781 -5.519531 L 4.128906 -5.519531 L 4.128906 -6.214844 L 4.820312 -6.214844 L 4.820312 -2.929688 L 4.128906 -2.929688 L 4.128906 -3.621094 L 9.609375 -3.621094 C 9.917969 -3.621094 10.171875 -3.527344 10.367188 -3.332031 C 10.5625 -3.136719 10.65625 -2.882812 10.65625 -2.574219 L 10.65625 -0.355469 C 10.65625 -0.046875 10.5625 0.207031 10.367188 0.402344 C 10.171875 0.597656 9.917969 0.695312 9.609375 0.695312 L 1.441406 0.695312 C 1.132812 0.695312 0.878906 0.589844 0.6875 0.386719 C 0.507812 0.191406 0.417969 -0.0546875 0.417969 -0.355469 L 0.417969 -15.179688 C 0.417969 -15.480469 0.507812 -15.726562 0.6875 -15.921875 C 0.878906 -16.125 1.132812 -16.226562 1.441406 -16.226562 L 9.609375 -16.226562 C 9.917969 -16.226562 10.171875 -16.128906 10.367188 -15.9375 C 10.5625 -15.742188 10.65625 -15.488281 10.65625 -15.179688 Z M 9.269531 -15.179688 C 9.269531 -15.164062 9.273438 -15.140625 9.285156 -15.117188 C 9.304688 -15.054688 9.335938 -15.003906 9.386719 -14.957031 C 9.433594 -14.90625 9.484375 -14.875 9.546875 -14.855469 C 9.570312 -14.84375 9.59375 -14.839844 9.609375 -14.839844 L 1.441406 -14.839844 C 1.53125 -14.839844 1.617188 -14.882812 1.699219 -14.972656 C 1.742188 -15.019531 1.773438 -15.070312 1.792969 -15.128906 C 1.800781 -15.152344 1.804688 -15.167969 1.804688 -15.179688 L 1.804688 -0.355469 C 1.804688 -0.367188 1.800781 -0.382812 1.792969 -0.40625 C 1.773438 -0.464844 1.742188 -0.515625 1.699219 -0.5625 C 1.617188 -0.648438 1.53125 -0.695312 1.441406 -0.695312 L 9.609375 -0.695312 C 9.59375 -0.695312 9.570312 -0.6875 9.546875 -0.679688 C 9.484375 -0.660156 9.433594 -0.625 9.386719 -0.578125 C 9.335938 -0.53125 9.304688 -0.476562 9.285156 -0.417969 C 9.273438 -0.390625 9.269531 -0.371094 9.269531 -0.355469 L 9.269531 -2.574219 C 9.269531 -2.558594 9.273438 -2.539062 9.285156 -2.511719 C 9.304688 -2.449219 9.335938 -2.398438 9.386719 -2.351562 C 9.433594 -2.300781 9.484375 -2.269531 9.546875 -2.25 C 9.570312 -2.242188 9.59375 -2.234375 9.609375 -2.234375 L 3.433594 -2.234375 L 3.433594 -6.90625 L 8.300781 -6.90625 C 8.28125 -6.90625 8.253906 -6.902344 8.222656 -6.890625 C 8.164062 -6.871094 8.109375 -6.832031 8.0625 -6.785156 C 8.019531 -6.738281 7.988281 -6.6875 7.972656 -6.632812 C 7.964844 -6.613281 7.960938 -6.597656 7.960938 -6.589844 L 7.960938 -8.789062 C 7.960938 -8.78125 7.964844 -8.765625 7.972656 -8.746094 C 7.988281 -8.691406 8.019531 -8.640625 8.0625 -8.597656 C 8.109375 -8.546875 8.164062 -8.507812 8.222656 -8.488281 C 8.253906 -8.476562 8.28125 -8.472656 8.300781 -8.472656 L 3.433594 -8.472656 L 3.433594 -13.277344 L 9.609375 -13.277344 C 9.589844 -13.277344 9.5625 -13.269531 9.53125 -13.261719 C 9.472656 -13.238281 9.417969 -13.203125 9.371094 -13.152344 C 9.328125 -13.105469 9.296875 -13.058594 9.28125 -13.003906 C 9.273438 -12.980469 9.269531 -12.96875 9.269531 -12.960938 Z M 9.269531 -15.179688 "/></g></g><g style="fill:#b21a22;fill-opacity:1;"><g transform="translate(38.556284, 65.249518)"><path style="stroke:none" d="M 4.304688 -16.226562 L 6.789062 -16.226562 C 8.03125 -16.226562 8.992188 -15.890625 9.667969 -15.214844 C 10.34375 -14.539062 10.679688 -13.582031 10.679688 -12.339844 L 10.679688 -10.875 C 10.679688 -10.5625 10.582031 -10.3125 10.386719 -10.117188 C 10.195312 -9.921875 9.941406 -9.824219 9.632812 -9.824219 L 7.390625 -9.824219 C 7.082031 -9.824219 6.828125 -9.921875 6.632812 -10.117188 C 6.4375 -10.3125 6.339844 -10.5625 6.339844 -10.875 L 6.339844 -11.804688 C 6.339844 -11.878906 6.335938 -11.933594 6.320312 -11.976562 C 6.320312 -11.984375 6.316406 -11.988281 6.316406 -11.992188 C 6.316406 -11.988281 6.320312 -11.984375 6.324219 -11.980469 C 6.324219 -11.976562 6.328125 -11.976562 6.332031 -11.972656 C 6.328125 -11.976562 6.324219 -11.976562 6.316406 -11.980469 C 6.277344 -11.992188 6.21875 -12 6.148438 -12 L 4.925781 -12 C 4.855469 -12 4.796875 -11.992188 4.757812 -11.980469 C 4.75 -11.976562 4.746094 -11.976562 4.742188 -11.972656 C 4.746094 -11.976562 4.75 -11.976562 4.75 -11.980469 C 4.753906 -11.984375 4.757812 -11.988281 4.757812 -11.992188 C 4.757812 -11.988281 4.753906 -11.984375 4.753906 -11.976562 C 4.738281 -11.933594 4.734375 -11.878906 4.734375 -11.804688 L 4.734375 -9.917969 L 4.039062 -9.917969 L 4.25 -10.578125 L 9.621094 -8.847656 C 9.964844 -8.730469 10.226562 -8.542969 10.410156 -8.28125 C 10.589844 -8.027344 10.679688 -7.722656 10.679688 -7.367188 L 10.679688 -3.195312 C 10.679688 -1.96875 10.34375 -1.015625 9.671875 -0.335938 C 8.996094 0.351562 8.035156 0.695312 6.789062 0.695312 L 4.304688 0.695312 C 3.078125 0.695312 2.125 0.351562 1.441406 -0.332031 C 0.757812 -1.011719 0.417969 -1.96875 0.417969 -3.195312 L 0.417969 -4.636719 C 0.417969 -4.949219 0.511719 -5.199219 0.707031 -5.394531 C 0.902344 -5.589844 1.15625 -5.6875 1.464844 -5.6875 L 3.707031 -5.6875 C 4.015625 -5.6875 4.269531 -5.589844 4.460938 -5.394531 C 4.65625 -5.199219 4.753906 -4.949219 4.753906 -4.636719 L 4.753906 -3.707031 C 4.753906 -3.632812 4.761719 -3.578125 4.773438 -3.535156 C 4.777344 -3.53125 4.777344 -3.523438 4.78125 -3.523438 C 4.777344 -3.523438 4.777344 -3.527344 4.773438 -3.53125 C 4.769531 -3.535156 4.765625 -3.535156 4.765625 -3.539062 C 4.765625 -3.535156 4.773438 -3.535156 4.78125 -3.53125 C 4.820312 -3.519531 4.875 -3.511719 4.949219 -3.511719 L 6.148438 -3.511719 C 6.21875 -3.511719 6.277344 -3.519531 6.316406 -3.53125 C 6.324219 -3.535156 6.328125 -3.535156 6.332031 -3.539062 C 6.328125 -3.535156 6.324219 -3.535156 6.324219 -3.53125 C 6.320312 -3.527344 6.316406 -3.523438 6.316406 -3.523438 C 6.316406 -3.523438 6.320312 -3.53125 6.320312 -3.535156 C 6.335938 -3.578125 6.339844 -3.632812 6.339844 -3.707031 L 6.339844 -5.949219 L 7.035156 -5.949219 L 6.820312 -5.289062 L 1.496094 -7.019531 C 1.152344 -7.132812 0.886719 -7.320312 0.699219 -7.574219 C 0.511719 -7.832031 0.417969 -8.140625 0.417969 -8.5 L 0.417969 -12.339844 C 0.417969 -13.582031 0.757812 -14.542969 1.445312 -15.21875 C 2.125 -15.890625 3.078125 -16.226562 4.304688 -16.226562 Z M 4.304688 -14.839844 C 3.460938 -14.839844 2.832031 -14.636719 2.417969 -14.230469 C 2.007812 -13.828125 1.804688 -13.195312 1.804688 -12.339844 L 1.804688 -8.5 C 1.804688 -8.441406 1.808594 -8.40625 1.820312 -8.390625 C 1.832031 -8.375 1.867188 -8.355469 1.921875 -8.339844 L 7.726562 -6.453125 L 7.726562 -3.707031 C 7.726562 -3.21875 7.585938 -2.832031 7.304688 -2.550781 C 7.019531 -2.265625 6.632812 -2.125 6.148438 -2.125 L 4.949219 -2.125 C 4.460938 -2.125 4.074219 -2.265625 3.792969 -2.550781 C 3.507812 -2.832031 3.367188 -3.21875 3.367188 -3.707031 L 3.367188 -4.636719 C 3.367188 -4.621094 3.371094 -4.601562 3.382812 -4.574219 C 3.402344 -4.515625 3.433594 -4.460938 3.480469 -4.414062 C 3.53125 -4.367188 3.582031 -4.332031 3.640625 -4.3125 C 3.667969 -4.304688 3.691406 -4.300781 3.707031 -4.300781 L 1.464844 -4.300781 C 1.480469 -4.300781 1.5 -4.304688 1.527344 -4.3125 C 1.585938 -4.332031 1.640625 -4.367188 1.6875 -4.414062 C 1.738281 -4.460938 1.769531 -4.515625 1.789062 -4.574219 C 1.796875 -4.601562 1.804688 -4.621094 1.804688 -4.636719 L 1.804688 -3.195312 C 1.804688 -2.351562 2.007812 -1.722656 2.421875 -1.3125 C 2.832031 -0.898438 3.460938 -0.695312 4.304688 -0.695312 L 6.789062 -0.695312 C 7.648438 -0.695312 8.277344 -0.898438 8.683594 -1.308594 C 9.089844 -1.71875 9.292969 -2.351562 9.292969 -3.195312 L 9.292969 -7.367188 C 9.292969 -7.429688 9.285156 -7.46875 9.273438 -7.484375 C 9.265625 -7.5 9.238281 -7.515625 9.195312 -7.527344 L 3.34375 -9.414062 L 3.34375 -11.804688 C 3.34375 -12.292969 3.488281 -12.679688 3.769531 -12.960938 C 4.054688 -13.246094 4.4375 -13.386719 4.925781 -13.386719 L 6.148438 -13.386719 C 6.632812 -13.386719 7.019531 -13.246094 7.304688 -12.960938 C 7.585938 -12.679688 7.726562 -12.292969 7.726562 -11.804688 L 7.726562 -10.875 C 7.726562 -10.890625 7.722656 -10.910156 7.714844 -10.9375 C 7.695312 -10.996094 7.660156 -11.050781 7.613281 -11.097656 C 7.566406 -11.144531 7.511719 -11.179688 7.453125 -11.199219 C 7.425781 -11.207031 7.40625 -11.210938 7.390625 -11.210938 L 9.632812 -11.210938 C 9.617188 -11.210938 9.59375 -11.207031 9.566406 -11.199219 C 9.507812 -11.179688 9.453125 -11.144531 9.40625 -11.097656 C 9.359375 -11.050781 9.324219 -10.996094 9.304688 -10.9375 C 9.296875 -10.910156 9.292969 -10.890625 9.292969 -10.875 L 9.292969 -12.339844 C 9.292969 -13.199219 9.089844 -13.828125 8.6875 -14.234375 C 8.28125 -14.640625 7.648438 -14.839844 6.789062 -14.839844 Z M 4.304688 -14.839844 "/></g></g><g style="fill:#b21a22;fill-opacity:1;"><g transform="translate(49.648885, 65.249518)"><path style="stroke:none" d="M 9.1875 -14.839844 L 1.019531 -14.839844 C 1.035156 -14.839844 1.058594 -14.84375 1.085938 -14.855469 C 1.144531 -14.875 1.199219 -14.90625 1.246094 -14.957031 C 1.292969 -15.003906 1.328125 -15.054688 1.347656 -15.117188 C 1.355469 -15.140625 1.359375 -15.164062 1.359375 -15.179688 L 1.359375 -12.960938 C 1.359375 -12.976562 1.355469 -12.996094 1.347656 -13.023438 C 1.328125 -13.082031 1.292969 -13.136719 1.246094 -13.183594 C 1.199219 -13.230469 1.144531 -13.265625 1.085938 -13.285156 C 1.058594 -13.292969 1.035156 -13.296875 1.019531 -13.296875 L 4.289062 -13.296875 L 4.289062 -0.355469 C 4.289062 -0.371094 4.285156 -0.390625 4.273438 -0.417969 C 4.253906 -0.476562 4.222656 -0.53125 4.175781 -0.578125 C 4.125 -0.625 4.074219 -0.660156 4.015625 -0.679688 C 3.988281 -0.6875 3.964844 -0.695312 3.949219 -0.695312 L 6.257812 -0.695312 C 6.242188 -0.695312 6.222656 -0.6875 6.195312 -0.679688 C 6.136719 -0.660156 6.082031 -0.625 6.035156 -0.578125 C 5.988281 -0.53125 5.953125 -0.476562 5.933594 -0.417969 C 5.925781 -0.390625 5.917969 -0.371094 5.917969 -0.355469 L 5.917969 -13.296875 L 9.1875 -13.296875 C 9.171875 -13.296875 9.152344 -13.292969 9.125 -13.285156 C 9.0625 -13.265625 9.011719 -13.230469 8.964844 -13.183594 C 8.914062 -13.136719 8.882812 -13.082031 8.863281 -13.023438 C 8.855469 -12.996094 8.847656 -12.976562 8.847656 -12.960938 L 8.847656 -15.179688 C 8.847656 -15.164062 8.855469 -15.140625 8.863281 -15.117188 C 8.882812 -15.054688 8.914062 -15.003906 8.964844 -14.957031 C 9.011719 -14.90625 9.0625 -14.875 9.125 -14.855469 C 9.152344 -14.84375 9.171875 -14.839844 9.1875 -14.839844 Z M 9.1875 -16.226562 C 9.496094 -16.226562 9.75 -16.128906 9.945312 -15.9375 C 10.140625 -15.742188 10.234375 -15.488281 10.234375 -15.179688 L 10.234375 -12.960938 C 10.234375 -12.648438 10.140625 -12.398438 9.945312 -12.203125 C 9.75 -12.007812 9.496094 -11.910156 9.1875 -11.910156 L 6.613281 -11.910156 L 6.613281 -12.605469 L 7.308594 -12.605469 L 7.308594 -0.355469 C 7.308594 -0.046875 7.210938 0.207031 7.015625 0.402344 C 6.820312 0.597656 6.566406 0.695312 6.257812 0.695312 L 3.949219 0.695312 C 3.640625 0.695312 3.386719 0.597656 3.195312 0.402344 C 3 0.207031 2.902344 -0.046875 2.902344 -0.355469 L 2.902344 -12.605469 L 3.59375 -12.605469 L 3.59375 -11.910156 L 1.019531 -11.910156 C 0.710938 -11.910156 0.457031 -12.007812 0.265625 -12.203125 C 0.0703125 -12.398438 -0.0273438 -12.648438 -0.0273438 -12.960938 L -0.0273438 -15.179688 C -0.0273438 -15.488281 0.0703125 -15.742188 0.265625 -15.9375 C 0.457031 -16.128906 0.710938 -16.226562 1.019531 -16.226562 Z M 9.1875 -16.226562 "/></g></g><g style="fill:#b21a22;fill-opacity:1;"><g transform="translate(59.854078, 65.249518)"><path style="stroke:none" d="M 1.464844 -0.695312 L 3.773438 -0.695312 C 3.757812 -0.695312 3.734375 -0.6875 3.707031 -0.679688 C 3.648438 -0.660156 3.597656 -0.625 3.546875 -0.578125 C 3.5 -0.53125 3.46875 -0.476562 3.449219 -0.417969 C 3.4375 -0.390625 3.433594 -0.371094 3.433594 -0.355469 L 3.433594 -15.179688 C 3.433594 -15.164062 3.4375 -15.140625 3.449219 -15.117188 C 3.46875 -15.054688 3.5 -15.003906 3.546875 -14.957031 C 3.597656 -14.90625 3.648438 -14.875 3.707031 -14.855469 C 3.734375 -14.84375 3.757812 -14.839844 3.773438 -14.839844 L 1.464844 -14.839844 C 1.480469 -14.839844 1.5 -14.84375 1.527344 -14.855469 C 1.585938 -14.875 1.640625 -14.90625 1.6875 -14.957031 C 1.738281 -15.003906 1.769531 -15.054688 1.789062 -15.117188 C 1.796875 -15.140625 1.804688 -15.164062 1.804688 -15.179688 L 1.804688 -0.355469 C 1.804688 -0.371094 1.796875 -0.390625 1.789062 -0.417969 C 1.769531 -0.476562 1.738281 -0.53125 1.6875 -0.578125 C 1.640625 -0.625 1.585938 -0.660156 1.527344 -0.679688 C 1.5 -0.6875 1.480469 -0.695312 1.464844 -0.695312 Z M 1.464844 0.695312 C 1.15625 0.695312 0.902344 0.597656 0.707031 0.402344 C 0.511719 0.207031 0.417969 -0.046875 0.417969 -0.355469 L 0.417969 -15.179688 C 0.417969 -15.488281 0.511719 -15.742188 0.707031 -15.9375 C 0.902344 -16.128906 1.15625 -16.226562 1.464844 -16.226562 L 3.773438 -16.226562 C 4.082031 -16.226562 4.335938 -16.128906 4.53125 -15.9375 C 4.722656 -15.742188 4.820312 -15.488281 4.820312 -15.179688 L 4.820312 -0.355469 C 4.820312 -0.046875 4.722656 0.207031 4.53125 0.402344 C 4.335938 0.597656 4.082031 0.695312 3.773438 0.695312 Z M 1.464844 0.695312 "/></g></g><g style="fill:#b21a22;fill-opacity:1;"><g transform="translate(65.089782, 65.249518)"><path style="stroke:none" d="M 8.144531 -16.226562 L 10.230469 -16.226562 C 10.539062 -16.226562 10.792969 -16.128906 10.988281 -15.9375 C 11.183594 -15.742188 11.277344 -15.488281 11.277344 -15.179688 L 11.277344 -0.355469 C 11.277344 -0.046875 11.183594 0.207031 10.988281 0.402344 C 10.792969 0.597656 10.539062 0.695312 10.230469 0.695312 L 8.476562 0.695312 C 8.238281 0.695312 8.027344 0.625 7.839844 0.488281 C 7.671875 0.371094 7.542969 0.207031 7.449219 0.00390625 L 8.078125 -0.289062 L 7.457031 0.0195312 L 3.285156 -8.460938 L 3.90625 -8.765625 L 4.597656 -8.765625 L 4.597656 -0.355469 C 4.597656 -0.046875 4.503906 0.207031 4.308594 0.402344 C 4.113281 0.597656 3.859375 0.695312 3.550781 0.695312 L 1.464844 0.695312 C 1.15625 0.695312 0.902344 0.597656 0.707031 0.402344 C 0.511719 0.207031 0.417969 -0.046875 0.417969 -0.355469 L 0.417969 -15.179688 C 0.417969 -15.488281 0.511719 -15.742188 0.707031 -15.9375 C 0.902344 -16.128906 1.15625 -16.226562 1.464844 -16.226562 L 3.21875 -16.226562 C 3.457031 -16.226562 3.667969 -16.160156 3.855469 -16.023438 C 4.023438 -15.90625 4.152344 -15.742188 4.246094 -15.535156 L 3.617188 -15.246094 L 4.238281 -15.550781 L 8.410156 -7.074219 L 7.789062 -6.769531 L 7.097656 -6.769531 L 7.097656 -15.179688 C 7.097656 -15.488281 7.191406 -15.742188 7.386719 -15.9375 C 7.582031 -16.128906 7.835938 -16.226562 8.144531 -16.226562 Z M 8.144531 -14.839844 C 8.160156 -14.839844 8.183594 -14.84375 8.207031 -14.855469 C 8.269531 -14.875 8.320312 -14.90625 8.367188 -14.957031 C 8.417969 -15.003906 8.449219 -15.054688 8.46875 -15.117188 C 8.480469 -15.140625 8.484375 -15.164062 8.484375 -15.179688 L 8.484375 -6.769531 L 7.167969 -6.460938 L 2.992188 -14.949219 L 2.988281 -14.957031 C 2.992188 -14.941406 3.011719 -14.921875 3.042969 -14.898438 C 3.097656 -14.859375 3.15625 -14.839844 3.21875 -14.839844 L 1.464844 -14.839844 C 1.480469 -14.839844 1.5 -14.84375 1.527344 -14.855469 C 1.585938 -14.875 1.640625 -14.90625 1.6875 -14.957031 C 1.738281 -15.003906 1.769531 -15.054688 1.789062 -15.117188 C 1.796875 -15.140625 1.804688 -15.164062 1.804688 -15.179688 L 1.804688 -0.355469 C 1.804688 -0.371094 1.796875 -0.390625 1.789062 -0.417969 C 1.769531 -0.476562 1.738281 -0.53125 1.6875 -0.578125 C 1.640625 -0.625 1.585938 -0.660156 1.527344 -0.679688 C 1.5 -0.6875 1.480469 -0.695312 1.464844 -0.695312 L 3.550781 -0.695312 C 3.535156 -0.695312 3.511719 -0.6875 3.488281 -0.679688 C 3.425781 -0.660156 3.375 -0.625 3.328125 -0.578125 C 3.277344 -0.53125 3.246094 -0.476562 3.226562 -0.417969 C 3.214844 -0.390625 3.210938 -0.371094 3.210938 -0.355469 L 3.210938 -8.765625 L 4.527344 -9.070312 L 8.703125 -0.585938 L 8.707031 -0.578125 C 8.703125 -0.59375 8.683594 -0.613281 8.652344 -0.632812 C 8.597656 -0.675781 8.539062 -0.695312 8.476562 -0.695312 L 10.230469 -0.695312 C 10.214844 -0.695312 10.195312 -0.6875 10.167969 -0.679688 C 10.109375 -0.660156 10.054688 -0.625 10.007812 -0.578125 C 9.957031 -0.53125 9.925781 -0.476562 9.90625 -0.417969 C 9.898438 -0.390625 9.890625 -0.371094 9.890625 -0.355469 L 9.890625 -15.179688 C 9.890625 -15.164062 9.898438 -15.140625 9.90625 -15.117188 C 9.925781 -15.054688 9.957031 -15.003906 10.007812 -14.957031 C 10.054688 -14.90625 10.109375 -14.875 10.167969 -14.855469 C 10.195312 -14.84375 10.214844 -14.839844 10.230469 -14.839844 Z M 8.144531 -14.839844 "/></g></g><g style="fill:#b21a22;fill-opacity:1;"><g transform="translate(76.781386, 65.249518)"><path style="stroke:none" d="M 11.585938 0.695312 L 9.433594 0.695312 C 9.160156 0.695312 8.933594 0.609375 8.742188 0.445312 C 8.566406 0.292969 8.453125 0.0898438 8.398438 -0.164062 L 9.078125 -0.3125 L 8.40625 -0.140625 L 7.695312 -2.9375 L 8.367188 -3.105469 L 8.367188 -2.414062 L 4.195312 -2.414062 L 4.195312 -3.105469 L 4.867188 -2.941406 L 4.179688 -0.144531 L 3.507812 -0.3125 L 4.183594 -0.164062 C 4.128906 0.0898438 4.015625 0.292969 3.839844 0.445312 C 3.652344 0.609375 3.421875 0.695312 3.152344 0.695312 L 0.976562 0.695312 C 0.613281 0.695312 0.339844 0.570312 0.152344 0.328125 C -0.0351562 0.078125 -0.0820312 -0.222656 0.0234375 -0.574219 L 0.6875 -0.378906 L 0.015625 -0.542969 L 3.699219 -15.390625 L 4.371094 -15.222656 L 3.695312 -15.371094 C 3.75 -15.628906 3.871094 -15.839844 4.058594 -15.992188 C 4.25 -16.148438 4.480469 -16.226562 4.75 -16.226562 L 7.832031 -16.226562 C 8.101562 -16.226562 8.332031 -16.148438 8.523438 -15.992188 C 8.710938 -15.839844 8.832031 -15.628906 8.890625 -15.371094 L 8.210938 -15.222656 L 8.882812 -15.390625 L 12.566406 -0.542969 L 11.894531 -0.378906 L 12.558594 -0.574219 C 12.667969 -0.210938 12.617188 0.09375 12.410156 0.347656 C 12.21875 0.578125 11.941406 0.695312 11.585938 0.695312 Z M 11.585938 -0.695312 C 11.585938 -0.695312 11.589844 -0.695312 11.59375 -0.695312 C 11.59375 -0.695312 11.589844 -0.695312 11.589844 -0.695312 C 11.578125 -0.691406 11.5625 -0.6875 11.546875 -0.683594 C 11.464844 -0.65625 11.398438 -0.609375 11.335938 -0.535156 C 11.269531 -0.453125 11.234375 -0.363281 11.226562 -0.265625 C 11.222656 -0.230469 11.222656 -0.199219 11.230469 -0.179688 L 11.226562 -0.195312 L 7.535156 -15.066406 L 7.53125 -15.078125 C 7.542969 -15.023438 7.582031 -14.972656 7.644531 -14.921875 C 7.707031 -14.867188 7.773438 -14.839844 7.832031 -14.839844 L 4.75 -14.839844 C 4.8125 -14.839844 4.875 -14.867188 4.941406 -14.921875 C 5 -14.972656 5.039062 -15.023438 5.050781 -15.078125 L 5.046875 -15.066406 L 1.359375 -0.195312 L 1.351562 -0.179688 C 1.359375 -0.195312 1.359375 -0.21875 1.355469 -0.253906 C 1.351562 -0.347656 1.316406 -0.433594 1.253906 -0.515625 C 1.195312 -0.59375 1.121094 -0.648438 1.035156 -0.679688 C 1.007812 -0.6875 0.988281 -0.695312 0.976562 -0.695312 L 3.152344 -0.695312 C 3.074219 -0.695312 3 -0.664062 2.925781 -0.601562 C 2.871094 -0.550781 2.839844 -0.503906 2.828125 -0.457031 L 2.832031 -0.464844 L 3.652344 -3.800781 L 8.90625 -3.800781 L 9.753906 -0.46875 L 9.753906 -0.457031 C 9.746094 -0.503906 9.710938 -0.550781 9.65625 -0.601562 C 9.582031 -0.664062 9.507812 -0.695312 9.433594 -0.695312 Z M 7.003906 -5.523438 L 5.605469 -11.5625 L 6.28125 -11.71875 L 6.957031 -11.5625 L 5.558594 -5.523438 L 4.882812 -5.679688 L 4.882812 -6.375 L 7.679688 -6.375 L 7.679688 -5.679688 Z M 8.550781 -4.988281 L 4.007812 -4.988281 L 5.605469 -11.875 L 6.957031 -11.875 L 8.355469 -5.835938 Z M 8.550781 -4.988281 "/></g></g><g style="fill:#b21a22;fill-opacity:1;"><g transform="translate(89.360397, 65.249518)"><path style="stroke:none" d="M 9.1875 -14.839844 L 1.019531 -14.839844 C 1.035156 -14.839844 1.058594 -14.84375 1.085938 -14.855469 C 1.144531 -14.875 1.199219 -14.90625 1.246094 -14.957031 C 1.292969 -15.003906 1.328125 -15.054688 1.347656 -15.117188 C 1.355469 -15.140625 1.359375 -15.164062 1.359375 -15.179688 L 1.359375 -12.960938 C 1.359375 -12.976562 1.355469 -12.996094 1.347656 -13.023438 C 1.328125 -13.082031 1.292969 -13.136719 1.246094 -13.183594 C 1.199219 -13.230469 1.144531 -13.265625 1.085938 -13.285156 C 1.058594 -13.292969 1.035156 -13.296875 1.019531 -13.296875 L 4.289062 -13.296875 L 4.289062 -0.355469 C 4.289062 -0.371094 4.285156 -0.390625 4.273438 -0.417969 C 4.253906 -0.476562 4.222656 -0.53125 4.175781 -0.578125 C 4.125 -0.625 4.074219 -0.660156 4.015625 -0.679688 C 3.988281 -0.6875 3.964844 -0.695312 3.949219 -0.695312 L 6.257812 -0.695312 C 6.242188 -0.695312 6.222656 -0.6875 6.195312 -0.679688 C 6.136719 -0.660156 6.082031 -0.625 6.035156 -0.578125 C 5.988281 -0.53125 5.953125 -0.476562 5.933594 -0.417969 C 5.925781 -0.390625 5.917969 -0.371094 5.917969 -0.355469 L 5.917969 -13.296875 L 9.1875 -13.296875 C 9.171875 -13.296875 9.152344 -13.292969 9.125 -13.285156 C 9.0625 -13.265625 9.011719 -13.230469 8.964844 -13.183594 C 8.914062 -13.136719 8.882812 -13.082031 8.863281 -13.023438 C 8.855469 -12.996094 8.847656 -12.976562 8.847656 -12.960938 L 8.847656 -15.179688 C 8.847656 -15.164062 8.855469 -15.140625 8.863281 -15.117188 C 8.882812 -15.054688 8.914062 -15.003906 8.964844 -14.957031 C 9.011719 -14.90625 9.0625 -14.875 9.125 -14.855469 C 9.152344 -14.84375 9.171875 -14.839844 9.1875 -14.839844 Z M 9.1875 -16.226562 C 9.496094 -16.226562 9.75 -16.128906 9.945312 -15.9375 C 10.140625 -15.742188 10.234375 -15.488281 10.234375 -15.179688 L 10.234375 -12.960938 C 10.234375 -12.648438 10.140625 -12.398438 9.945312 -12.203125 C 9.75 -12.007812 9.496094 -11.910156 9.1875 -11.910156 L 6.613281 -11.910156 L 6.613281 -12.605469 L 7.308594 -12.605469 L 7.308594 -0.355469 C 7.308594 -0.046875 7.210938 0.207031 7.015625 0.402344 C 6.820312 0.597656 6.566406 0.695312 6.257812 0.695312 L 3.949219 0.695312 C 3.640625 0.695312 3.386719 0.597656 3.195312 0.402344 C 3 0.207031 2.902344 -0.046875 2.902344 -0.355469 L 2.902344 -12.605469 L 3.59375 -12.605469 L 3.59375 -11.910156 L 1.019531 -11.910156 C 0.710938 -11.910156 0.457031 -12.007812 0.265625 -12.203125 C 0.0703125 -12.398438 -0.0273438 -12.648438 -0.0273438 -12.960938 L -0.0273438 -15.179688 C -0.0273438 -15.488281 0.0703125 -15.742188 0.265625 -15.9375 C 0.457031 -16.128906 0.710938 -16.226562 1.019531 -16.226562 Z M 9.1875 -16.226562 "/></g></g><g style="fill:#b21a22;fill-opacity:1;"><g transform="translate(99.565591, 65.249518)"><path style="stroke:none" d="M 1.464844 -0.695312 L 3.773438 -0.695312 C 3.757812 -0.695312 3.734375 -0.6875 3.707031 -0.679688 C 3.648438 -0.660156 3.597656 -0.625 3.546875 -0.578125 C 3.5 -0.53125 3.46875 -0.476562 3.449219 -0.417969 C 3.4375 -0.390625 3.433594 -0.371094 3.433594 -0.355469 L 3.433594 -15.179688 C 3.433594 -15.164062 3.4375 -15.140625 3.449219 -15.117188 C 3.46875 -15.054688 3.5 -15.003906 3.546875 -14.957031 C 3.597656 -14.90625 3.648438 -14.875 3.707031 -14.855469 C 3.734375 -14.84375 3.757812 -14.839844 3.773438 -14.839844 L 1.464844 -14.839844 C 1.480469 -14.839844 1.5 -14.84375 1.527344 -14.855469 C 1.585938 -14.875 1.640625 -14.90625 1.6875 -14.957031 C 1.738281 -15.003906 1.769531 -15.054688 1.789062 -15.117188 C 1.796875 -15.140625 1.804688 -15.164062 1.804688 -15.179688 L 1.804688 -0.355469 C 1.804688 -0.371094 1.796875 -0.390625 1.789062 -0.417969 C 1.769531 -0.476562 1.738281 -0.53125 1.6875 -0.578125 C 1.640625 -0.625 1.585938 -0.660156 1.527344 -0.679688 C 1.5 -0.6875 1.480469 -0.695312 1.464844 -0.695312 Z M 1.464844 0.695312 C 1.15625 0.695312 0.902344 0.597656 0.707031 0.402344 C 0.511719 0.207031 0.417969 -0.046875 0.417969 -0.355469 L 0.417969 -15.179688 C 0.417969 -15.488281 0.511719 -15.742188 0.707031 -15.9375 C 0.902344 -16.128906 1.15625 -16.226562 1.464844 -16.226562 L 3.773438 -16.226562 C 4.082031 -16.226562 4.335938 -16.128906 4.53125 -15.9375 C 4.722656 -15.742188 4.820312 -15.488281 4.820312 -15.179688 L 4.820312 -0.355469 C 4.820312 -0.046875 4.722656 0.207031 4.53125 0.402344 C 4.335938 0.597656 4.082031 0.695312 3.773438 0.695312 Z M 1.464844 0.695312 "/></g></g><g style="fill:#b21a22;fill-opacity:1;"><g transform="translate(104.801295, 65.249518)"><path style="stroke:none" d="M 0.417969 -3.195312 L 0.417969 -12.339844 C 0.417969 -13.582031 0.757812 -14.542969 1.445312 -15.21875 C 2.125 -15.890625 3.078125 -16.226562 4.304688 -16.226562 L 6.789062 -16.226562 C 8.03125 -16.226562 8.992188 -15.890625 9.667969 -15.214844 C 10.34375 -14.539062 10.679688 -13.582031 10.679688 -12.339844 L 10.679688 -3.195312 C 10.679688 -1.96875 10.34375 -1.015625 9.671875 -0.335938 C 8.996094 0.351562 8.035156 0.695312 6.789062 0.695312 L 4.304688 0.695312 C 3.078125 0.695312 2.125 0.351562 1.441406 -0.332031 C 0.757812 -1.011719 0.417969 -1.96875 0.417969 -3.195312 Z M 1.804688 -3.195312 C 1.804688 -2.351562 2.007812 -1.722656 2.421875 -1.3125 C 2.832031 -0.898438 3.460938 -0.695312 4.304688 -0.695312 L 6.789062 -0.695312 C 7.648438 -0.695312 8.277344 -0.898438 8.683594 -1.308594 C 9.089844 -1.71875 9.292969 -2.351562 9.292969 -3.195312 L 9.292969 -12.339844 C 9.292969 -13.199219 9.089844 -13.828125 8.6875 -14.234375 C 8.28125 -14.640625 7.648438 -14.839844 6.789062 -14.839844 L 4.304688 -14.839844 C 3.460938 -14.839844 2.832031 -14.636719 2.417969 -14.230469 C 2.007812 -13.828125 1.804688 -13.195312 1.804688 -12.339844 Z M 4.882812 -3.554688 L 6.300781 -3.554688 C 6.375 -3.554688 6.433594 -3.5625 6.472656 -3.578125 C 6.480469 -3.578125 6.484375 -3.582031 6.488281 -3.582031 C 6.484375 -3.582031 6.480469 -3.578125 6.476562 -3.574219 C 6.476562 -3.570312 6.472656 -3.570312 6.472656 -3.566406 C 6.472656 -3.570312 6.472656 -3.574219 6.476562 -3.582031 C 6.488281 -3.621094 6.496094 -3.675781 6.496094 -3.75 L 6.496094 -11.785156 C 6.496094 -11.855469 6.488281 -11.914062 6.476562 -11.953125 C 6.472656 -11.960938 6.472656 -11.964844 6.472656 -11.96875 C 6.472656 -11.964844 6.476562 -11.960938 6.476562 -11.960938 C 6.480469 -11.957031 6.484375 -11.953125 6.488281 -11.953125 C 6.484375 -11.953125 6.480469 -11.957031 6.472656 -11.957031 C 6.433594 -11.972656 6.375 -11.976562 6.300781 -11.976562 L 4.882812 -11.976562 C 4.808594 -11.976562 4.753906 -11.972656 4.714844 -11.957031 C 4.707031 -11.957031 4.699219 -11.953125 4.699219 -11.953125 C 4.699219 -11.953125 4.703125 -11.957031 4.707031 -11.960938 C 4.710938 -11.960938 4.710938 -11.964844 4.714844 -11.96875 C 4.710938 -11.964844 4.710938 -11.960938 4.707031 -11.953125 C 4.695312 -11.914062 4.6875 -11.855469 4.6875 -11.785156 L 4.6875 -3.75 C 4.6875 -3.675781 4.695312 -3.621094 4.707031 -3.582031 C 4.710938 -3.574219 4.710938 -3.570312 4.714844 -3.566406 C 4.710938 -3.570312 4.710938 -3.570312 4.707031 -3.574219 C 4.703125 -3.578125 4.699219 -3.582031 4.699219 -3.582031 C 4.699219 -3.582031 4.707031 -3.578125 4.714844 -3.578125 C 4.753906 -3.5625 4.808594 -3.554688 4.882812 -3.554688 Z M 4.882812 -2.167969 C 4.394531 -2.167969 4.007812 -2.3125 3.726562 -2.59375 C 3.441406 -2.878906 3.300781 -3.261719 3.300781 -3.75 L 3.300781 -11.785156 C 3.300781 -12.269531 3.441406 -12.65625 3.726562 -12.941406 C 4.007812 -13.222656 4.394531 -13.367188 4.882812 -13.367188 L 6.300781 -13.367188 C 6.789062 -13.367188 7.175781 -13.222656 7.457031 -12.941406 C 7.742188 -12.65625 7.882812 -12.269531 7.882812 -11.785156 L 7.882812 -3.75 C 7.882812 -3.261719 7.742188 -2.878906 7.457031 -2.59375 C 7.175781 -2.3125 6.789062 -2.167969 6.300781 -2.167969 Z M 4.882812 -2.167969 "/></g></g><g style="fill:#b21a22;fill-opacity:1;"><g transform="translate(115.893895, 65.249518)"><path style="stroke:none" d="M 8.144531 -16.226562 L 10.230469 -16.226562 C 10.539062 -16.226562 10.792969 -16.128906 10.988281 -15.9375 C 11.183594 -15.742188 11.277344 -15.488281 11.277344 -15.179688 L 11.277344 -0.355469 C 11.277344 -0.046875 11.183594 0.207031 10.988281 0.402344 C 10.792969 0.597656 10.539062 0.695312 10.230469 0.695312 L 8.476562 0.695312 C 8.238281 0.695312 8.027344 0.625 7.839844 0.488281 C 7.671875 0.371094 7.542969 0.207031 7.449219 0.00390625 L 8.078125 -0.289062 L 7.457031 0.0195312 L 3.285156 -8.460938 L 3.90625 -8.765625 L 4.597656 -8.765625 L 4.597656 -0.355469 C 4.597656 -0.046875 4.503906 0.207031 4.308594 0.402344 C 4.113281 0.597656 3.859375 0.695312 3.550781 0.695312 L 1.464844 0.695312 C 1.15625 0.695312 0.902344 0.597656 0.707031 0.402344 C 0.511719 0.207031 0.417969 -0.046875 0.417969 -0.355469 L 0.417969 -15.179688 C 0.417969 -15.488281 0.511719 -15.742188 0.707031 -15.9375 C 0.902344 -16.128906 1.15625 -16.226562 1.464844 -16.226562 L 3.21875 -16.226562 C 3.457031 -16.226562 3.667969 -16.160156 3.855469 -16.023438 C 4.023438 -15.90625 4.152344 -15.742188 4.246094 -15.535156 L 3.617188 -15.246094 L 4.238281 -15.550781 L 8.410156 -7.074219 L 7.789062 -6.769531 L 7.097656 -6.769531 L 7.097656 -15.179688 C 7.097656 -15.488281 7.191406 -15.742188 7.386719 -15.9375 C 7.582031 -16.128906 7.835938 -16.226562 8.144531 -16.226562 Z M 8.144531 -14.839844 C 8.160156 -14.839844 8.183594 -14.84375 8.207031 -14.855469 C 8.269531 -14.875 8.320312 -14.90625 8.367188 -14.957031 C 8.417969 -15.003906 8.449219 -15.054688 8.46875 -15.117188 C 8.480469 -15.140625 8.484375 -15.164062 8.484375 -15.179688 L 8.484375 -6.769531 L 7.167969 -6.460938 L 2.992188 -14.949219 L 2.988281 -14.957031 C 2.992188 -14.941406 3.011719 -14.921875 3.042969 -14.898438 C 3.097656 -14.859375 3.15625 -14.839844 3.21875 -14.839844 L 1.464844 -14.839844 C 1.480469 -14.839844 1.5 -14.84375 1.527344 -14.855469 C 1.585938 -14.875 1.640625 -14.90625 1.6875 -14.957031 C 1.738281 -15.003906 1.769531 -15.054688 1.789062 -15.117188 C 1.796875 -15.140625 1.804688 -15.164062 1.804688 -15.179688 L 1.804688 -0.355469 C 1.804688 -0.371094 1.796875 -0.390625 1.789062 -0.417969 C 1.769531 -0.476562 1.738281 -0.53125 1.6875 -0.578125 C 1.640625 -0.625 1.585938 -0.660156 1.527344 -0.679688 C 1.5 -0.6875 1.480469 -0.695312 1.464844 -0.695312 L 3.550781 -0.695312 C 3.535156 -0.695312 3.511719 -0.6875 3.488281 -0.679688 C 3.425781 -0.660156 3.375 -0.625 3.328125 -0.578125 C 3.277344 -0.53125 3.246094 -0.476562 3.226562 -0.417969 C 3.214844 -0.390625 3.210938 -0.371094 3.210938 -0.355469 L 3.210938 -8.765625 L 4.527344 -9.070312 L 8.703125 -0.585938 L 8.707031 -0.578125 C 8.703125 -0.59375 8.683594 -0.613281 8.652344 -0.632812 C 8.597656 -0.675781 8.539062 -0.695312 8.476562 -0.695312 L 10.230469 -0.695312 C 10.214844 -0.695312 10.195312 -0.6875 10.167969 -0.679688 C 10.109375 -0.660156 10.054688 -0.625 10.007812 -0.578125 C 9.957031 -0.53125 9.925781 -0.476562 9.90625 -0.417969 C 9.898438 -0.390625 9.890625 -0.371094 9.890625 -0.355469 L 9.890625 -15.179688 C 9.890625 -15.164062 9.898438 -15.140625 9.90625 -15.117188 C 9.925781 -15.054688 9.957031 -15.003906 10.007812 -14.957031 C 10.054688 -14.90625 10.109375 -14.875 10.167969 -14.855469 C 10.195312 -14.84375 10.214844 -14.839844 10.230469 -14.839844 Z M 8.144531 -14.839844 "/></g></g><g style="fill:#b21a22;fill-opacity:1;"><g transform="translate(31.590651, 96.189235)"><path style="stroke:none" d="M -0.695312 2.972656 L -0.695312 0.933594 C -0.695312 0.59375 -0.589844 0.316406 -0.378906 0.109375 C -0.171875 -0.101562 0.105469 -0.207031 0.445312 -0.207031 L 13.824219 -0.207031 C 14.164062 -0.207031 14.441406 -0.101562 14.648438 0.109375 C 14.859375 0.316406 14.964844 0.59375 14.964844 0.933594 L 14.964844 2.972656 C 14.964844 3.3125 14.859375 3.585938 14.648438 3.796875 C 14.441406 4.007812 14.164062 4.109375 13.824219 4.109375 L 0.445312 4.109375 C 0.105469 4.109375 -0.171875 4.007812 -0.378906 3.796875 C -0.589844 3.585938 -0.695312 3.3125 -0.695312 2.972656 Z M 0.695312 2.972656 C 0.695312 2.976562 0.695312 2.980469 0.695312 2.980469 C 0.691406 2.972656 0.691406 2.960938 0.6875 2.949219 C 0.667969 2.902344 0.640625 2.855469 0.601562 2.816406 C 0.5625 2.777344 0.515625 2.746094 0.46875 2.730469 C 0.457031 2.726562 0.445312 2.726562 0.4375 2.722656 C 0.4375 2.722656 0.441406 2.722656 0.445312 2.722656 L 13.824219 2.722656 C 13.828125 2.722656 13.832031 2.722656 13.832031 2.722656 C 13.824219 2.726562 13.8125 2.726562 13.800781 2.730469 C 13.753906 2.746094 13.707031 2.777344 13.667969 2.816406 C 13.628906 2.855469 13.601562 2.902344 13.582031 2.949219 C 13.578125 2.960938 13.578125 2.972656 13.574219 2.980469 C 13.574219 2.980469 13.574219 2.976562 13.574219 2.972656 L 13.574219 0.933594 C 13.574219 0.929688 13.574219 0.925781 13.574219 0.925781 C 13.578125 0.933594 13.578125 0.945312 13.582031 0.957031 C 13.601562 1.003906 13.628906 1.050781 13.667969 1.089844 C 13.707031 1.128906 13.753906 1.15625 13.800781 1.175781 C 13.8125 1.179688 13.824219 1.179688 13.832031 1.183594 C 13.832031 1.183594 13.828125 1.183594 13.824219 1.183594 L 0.445312 1.183594 C 0.441406 1.183594 0.4375 1.183594 0.4375 1.183594 C 0.445312 1.179688 0.457031 1.179688 0.46875 1.175781 C 0.515625 1.15625 0.5625 1.128906 0.601562 1.089844 C 0.640625 1.050781 0.667969 1.003906 0.6875 0.957031 C 0.691406 0.945312 0.691406 0.933594 0.695312 0.925781 C 0.695312 0.925781 0.695312 0.929688 0.695312 0.933594 Z M 0.695312 2.972656 "/></g></g><g style="fill:#b21a22;fill-opacity:1;"><g transform="translate(45.855738, 96.189235)"><path style="stroke:none" d="M 10.65625 -15.179688 L 10.65625 -12.960938 C 10.65625 -12.652344 10.566406 -12.398438 10.378906 -12.203125 C 10.183594 -11.992188 9.925781 -11.890625 9.609375 -11.890625 L 4.128906 -11.890625 L 4.128906 -12.582031 L 4.820312 -12.582031 L 4.820312 -9.164062 L 4.128906 -9.164062 L 4.128906 -9.859375 L 8.300781 -9.859375 C 8.617188 -9.859375 8.875 -9.753906 9.070312 -9.546875 C 9.257812 -9.351562 9.347656 -9.097656 9.347656 -8.789062 L 9.347656 -6.589844 C 9.347656 -6.28125 9.257812 -6.027344 9.070312 -5.832031 C 8.875 -5.625 8.617188 -5.519531 8.300781 -5.519531 L 4.128906 -5.519531 L 4.128906 -6.214844 L 4.820312 -6.214844 L 4.820312 -2.929688 L 4.128906 -2.929688 L 4.128906 -3.621094 L 9.609375 -3.621094 C 9.917969 -3.621094 10.171875 -3.527344 10.367188 -3.332031 C 10.5625 -3.136719 10.65625 -2.882812 10.65625 -2.574219 L 10.65625 -0.355469 C 10.65625 -0.046875 10.5625 0.207031 10.367188 0.402344 C 10.171875 0.597656 9.917969 0.695312 9.609375 0.695312 L 1.441406 0.695312 C 1.132812 0.695312 0.878906 0.589844 0.6875 0.386719 C 0.507812 0.191406 0.417969 -0.0546875 0.417969 -0.355469 L 0.417969 -15.179688 C 0.417969 -15.480469 0.507812 -15.726562 0.6875 -15.921875 C 0.878906 -16.125 1.132812 -16.226562 1.441406 -16.226562 L 9.609375 -16.226562 C 9.917969 -16.226562 10.171875 -16.128906 10.367188 -15.9375 C 10.5625 -15.742188 10.65625 -15.488281 10.65625 -15.179688 Z M 9.269531 -15.179688 C 9.269531 -15.164062 9.273438 -15.140625 9.285156 -15.117188 C 9.304688 -15.054688 9.335938 -15.003906 9.386719 -14.957031 C 9.433594 -14.90625 9.484375 -14.875 9.546875 -14.855469 C 9.570312 -14.84375 9.59375 -14.839844 9.609375 -14.839844 L 1.441406 -14.839844 C 1.53125 -14.839844 1.617188 -14.882812 1.699219 -14.972656 C 1.742188 -15.019531 1.773438 -15.070312 1.792969 -15.128906 C 1.800781 -15.152344 1.804688 -15.167969 1.804688 -15.179688 L 1.804688 -0.355469 C 1.804688 -0.367188 1.800781 -0.382812 1.792969 -0.40625 C 1.773438 -0.464844 1.742188 -0.515625 1.699219 -0.5625 C 1.617188 -0.648438 1.53125 -0.695312 1.441406 -0.695312 L 9.609375 -0.695312 C 9.59375 -0.695312 9.570312 -0.6875 9.546875 -0.679688 C 9.484375 -0.660156 9.433594 -0.625 9.386719 -0.578125 C 9.335938 -0.53125 9.304688 -0.476562 9.285156 -0.417969 C 9.273438 -0.390625 9.269531 -0.371094 9.269531 -0.355469 L 9.269531 -2.574219 C 9.269531 -2.558594 9.273438 -2.539062 9.285156 -2.511719 C 9.304688 -2.449219 9.335938 -2.398438 9.386719 -2.351562 C 9.433594 -2.300781 9.484375 -2.269531 9.546875 -2.25 C 9.570312 -2.242188 9.59375 -2.234375 9.609375 -2.234375 L 3.433594 -2.234375 L 3.433594 -6.90625 L 8.300781 -6.90625 C 8.28125 -6.90625 8.253906 -6.902344 8.222656 -6.890625 C 8.164062 -6.871094 8.109375 -6.832031 8.0625 -6.785156 C 8.019531 -6.738281 7.988281 -6.6875 7.972656 -6.632812 C 7.964844 -6.613281 7.960938 -6.597656 7.960938 -6.589844 L 7.960938 -8.789062 C 7.960938 -8.78125 7.964844 -8.765625 7.972656 -8.746094 C 7.988281 -8.691406 8.019531 -8.640625 8.0625 -8.597656 C 8.109375 -8.546875 8.164062 -8.507812 8.222656 -8.488281 C 8.253906 -8.476562 8.28125 -8.472656 8.300781 -8.472656 L 3.433594 -8.472656 L 3.433594 -13.277344 L 9.609375 -13.277344 C 9.589844 -13.277344 9.5625 -13.269531 9.53125 -13.261719 C 9.472656 -13.238281 9.417969 -13.203125 9.371094 -13.152344 C 9.328125 -13.105469 9.296875 -13.058594 9.28125 -13.003906 C 9.273438 -12.980469 9.269531 -12.96875 9.269531 -12.960938 Z M 9.269531 -15.179688 "/></g></g><g style="fill:#b21a22;fill-opacity:1;"><g transform="translate(56.926149, 96.189235)"><path style="stroke:none" d="M 10.679688 -12.339844 L 10.679688 -7.878906 C 10.679688 -6.335938 10.15625 -5.234375 9.109375 -4.582031 L 8.742188 -5.171875 L 9.417969 -5.332031 L 10.570312 -0.5625 L 9.898438 -0.398438 L 10.566406 -0.585938 C 10.664062 -0.226562 10.617188 0.0742188 10.421875 0.324219 C 10.230469 0.570312 9.953125 0.695312 9.585938 0.695312 L 7.414062 0.695312 C 7.144531 0.695312 6.914062 0.613281 6.722656 0.457031 C 6.535156 0.304688 6.414062 0.0976562 6.355469 -0.164062 L 7.035156 -0.3125 L 6.359375 -0.148438 L 5.296875 -4.519531 L 5.96875 -4.683594 L 5.96875 -3.988281 L 3.996094 -3.988281 L 3.996094 -4.683594 L 4.6875 -4.683594 L 4.6875 -0.355469 C 4.6875 -0.046875 4.589844 0.207031 4.394531 0.402344 C 4.203125 0.597656 3.949219 0.695312 3.640625 0.695312 L 1.464844 0.695312 C 1.15625 0.695312 0.902344 0.597656 0.707031 0.402344 C 0.511719 0.207031 0.417969 -0.046875 0.417969 -0.355469 L 0.417969 -15.179688 C 0.417969 -15.488281 0.511719 -15.742188 0.707031 -15.9375 C 0.902344 -16.128906 1.15625 -16.226562 1.464844 -16.226562 L 6.789062 -16.226562 C 8.03125 -16.226562 8.992188 -15.890625 9.667969 -15.214844 C 10.34375 -14.539062 10.679688 -13.582031 10.679688 -12.339844 Z M 9.292969 -12.339844 C 9.292969 -13.199219 9.089844 -13.828125 8.6875 -14.234375 C 8.28125 -14.640625 7.648438 -14.839844 6.789062 -14.839844 L 1.464844 -14.839844 C 1.480469 -14.839844 1.5 -14.84375 1.527344 -14.855469 C 1.585938 -14.875 1.640625 -14.90625 1.6875 -14.957031 C 1.738281 -15.003906 1.769531 -15.054688 1.789062 -15.117188 C 1.796875 -15.140625 1.804688 -15.164062 1.804688 -15.179688 L 1.804688 -0.355469 C 1.804688 -0.371094 1.796875 -0.390625 1.789062 -0.417969 C 1.769531 -0.476562 1.738281 -0.53125 1.6875 -0.578125 C 1.640625 -0.625 1.585938 -0.660156 1.527344 -0.679688 C 1.5 -0.6875 1.480469 -0.695312 1.464844 -0.695312 L 3.640625 -0.695312 C 3.625 -0.695312 3.601562 -0.6875 3.574219 -0.679688 C 3.515625 -0.660156 3.464844 -0.625 3.414062 -0.578125 C 3.367188 -0.53125 3.335938 -0.476562 3.3125 -0.417969 C 3.304688 -0.390625 3.300781 -0.371094 3.300781 -0.355469 L 3.300781 -5.375 L 6.515625 -5.375 L 7.710938 -0.464844 L 7.714844 -0.457031 C 7.703125 -0.511719 7.664062 -0.5625 7.601562 -0.613281 C 7.539062 -0.667969 7.472656 -0.695312 7.414062 -0.695312 L 9.585938 -0.695312 L 9.585938 -0.691406 C 9.574219 -0.691406 9.554688 -0.6875 9.539062 -0.679688 C 9.457031 -0.652344 9.386719 -0.601562 9.328125 -0.527344 C 9.269531 -0.449219 9.234375 -0.367188 9.226562 -0.277344 C 9.226562 -0.246094 9.226562 -0.226562 9.230469 -0.214844 L 9.226562 -0.226562 L 7.953125 -5.492188 L 8.375 -5.757812 C 8.988281 -6.140625 9.292969 -6.847656 9.292969 -7.878906 Z M 3.996094 -8.238281 L 6.214844 -8.238281 C 6.285156 -8.238281 6.34375 -8.246094 6.382812 -8.257812 C 6.390625 -8.261719 6.394531 -8.261719 6.398438 -8.265625 C 6.394531 -8.261719 6.390625 -8.261719 6.390625 -8.257812 C 6.386719 -8.253906 6.382812 -8.25 6.382812 -8.25 C 6.382812 -8.25 6.386719 -8.257812 6.386719 -8.265625 C 6.402344 -8.304688 6.40625 -8.359375 6.40625 -8.433594 L 6.40625 -11.785156 C 6.40625 -11.855469 6.402344 -11.914062 6.386719 -11.953125 C 6.386719 -11.960938 6.382812 -11.964844 6.382812 -11.96875 C 6.382812 -11.964844 6.386719 -11.960938 6.390625 -11.960938 C 6.390625 -11.957031 6.394531 -11.953125 6.398438 -11.953125 C 6.394531 -11.953125 6.390625 -11.957031 6.382812 -11.957031 C 6.34375 -11.972656 6.285156 -11.976562 6.214844 -11.976562 L 3.996094 -11.976562 L 3.996094 -12.671875 L 4.6875 -12.671875 L 4.6875 -7.546875 L 3.996094 -7.546875 Z M 3.300781 -6.851562 L 3.300781 -13.367188 L 6.214844 -13.367188 C 6.703125 -13.367188 7.085938 -13.222656 7.371094 -12.941406 C 7.652344 -12.65625 7.796875 -12.269531 7.796875 -11.785156 L 7.796875 -8.433594 C 7.796875 -7.945312 7.652344 -7.558594 7.371094 -7.277344 C 7.085938 -6.992188 6.703125 -6.851562 6.214844 -6.851562 Z M 3.300781 -6.851562 "/></g></g><g style="fill:#b21a22;fill-opacity:1;"><g transform="translate(68.018749, 96.189235)"><path style="stroke:none" d="M 10.679688 -12.339844 L 10.679688 -7.878906 C 10.679688 -6.335938 10.15625 -5.234375 9.109375 -4.582031 L 8.742188 -5.171875 L 9.417969 -5.332031 L 10.570312 -0.5625 L 9.898438 -0.398438 L 10.566406 -0.585938 C 10.664062 -0.226562 10.617188 0.0742188 10.421875 0.324219 C 10.230469 0.570312 9.953125 0.695312 9.585938 0.695312 L 7.414062 0.695312 C 7.144531 0.695312 6.914062 0.613281 6.722656 0.457031 C 6.535156 0.304688 6.414062 0.0976562 6.355469 -0.164062 L 7.035156 -0.3125 L 6.359375 -0.148438 L 5.296875 -4.519531 L 5.96875 -4.683594 L 5.96875 -3.988281 L 3.996094 -3.988281 L 3.996094 -4.683594 L 4.6875 -4.683594 L 4.6875 -0.355469 C 4.6875 -0.046875 4.589844 0.207031 4.394531 0.402344 C 4.203125 0.597656 3.949219 0.695312 3.640625 0.695312 L 1.464844 0.695312 C 1.15625 0.695312 0.902344 0.597656 0.707031 0.402344 C 0.511719 0.207031 0.417969 -0.046875 0.417969 -0.355469 L 0.417969 -15.179688 C 0.417969 -15.488281 0.511719 -15.742188 0.707031 -15.9375 C 0.902344 -16.128906 1.15625 -16.226562 1.464844 -16.226562 L 6.789062 -16.226562 C 8.03125 -16.226562 8.992188 -15.890625 9.667969 -15.214844 C 10.34375 -14.539062 10.679688 -13.582031 10.679688 -12.339844 Z M 9.292969 -12.339844 C 9.292969 -13.199219 9.089844 -13.828125 8.6875 -14.234375 C 8.28125 -14.640625 7.648438 -14.839844 6.789062 -14.839844 L 1.464844 -14.839844 C 1.480469 -14.839844 1.5 -14.84375 1.527344 -14.855469 C 1.585938 -14.875 1.640625 -14.90625 1.6875 -14.957031 C 1.738281 -15.003906 1.769531 -15.054688 1.789062 -15.117188 C 1.796875 -15.140625 1.804688 -15.164062 1.804688 -15.179688 L 1.804688 -0.355469 C 1.804688 -0.371094 1.796875 -0.390625 1.789062 -0.417969 C 1.769531 -0.476562 1.738281 -0.53125 1.6875 -0.578125 C 1.640625 -0.625 1.585938 -0.660156 1.527344 -0.679688 C 1.5 -0.6875 1.480469 -0.695312 1.464844 -0.695312 L 3.640625 -0.695312 C 3.625 -0.695312 3.601562 -0.6875 3.574219 -0.679688 C 3.515625 -0.660156 3.464844 -0.625 3.414062 -0.578125 C 3.367188 -0.53125 3.335938 -0.476562 3.3125 -0.417969 C 3.304688 -0.390625 3.300781 -0.371094 3.300781 -0.355469 L 3.300781 -5.375 L 6.515625 -5.375 L 7.710938 -0.464844 L 7.714844 -0.457031 C 7.703125 -0.511719 7.664062 -0.5625 7.601562 -0.613281 C 7.539062 -0.667969 7.472656 -0.695312 7.414062 -0.695312 L 9.585938 -0.695312 L 9.585938 -0.691406 C 9.574219 -0.691406 9.554688 -0.6875 9.539062 -0.679688 C 9.457031 -0.652344 9.386719 -0.601562 9.328125 -0.527344 C 9.269531 -0.449219 9.234375 -0.367188 9.226562 -0.277344 C 9.226562 -0.246094 9.226562 -0.226562 9.230469 -0.214844 L 9.226562 -0.226562 L 7.953125 -5.492188 L 8.375 -5.757812 C 8.988281 -6.140625 9.292969 -6.847656 9.292969 -7.878906 Z M 3.996094 -8.238281 L 6.214844 -8.238281 C 6.285156 -8.238281 6.34375 -8.246094 6.382812 -8.257812 C 6.390625 -8.261719 6.394531 -8.261719 6.398438 -8.265625 C 6.394531 -8.261719 6.390625 -8.261719 6.390625 -8.257812 C 6.386719 -8.253906 6.382812 -8.25 6.382812 -8.25 C 6.382812 -8.25 6.386719 -8.257812 6.386719 -8.265625 C 6.402344 -8.304688 6.40625 -8.359375 6.40625 -8.433594 L 6.40625 -11.785156 C 6.40625 -11.855469 6.402344 -11.914062 6.386719 -11.953125 C 6.386719 -11.960938 6.382812 -11.964844 6.382812 -11.96875 C 6.382812 -11.964844 6.386719 -11.960938 6.390625 -11.960938 C 6.390625 -11.957031 6.394531 -11.953125 6.398438 -11.953125 C 6.394531 -11.953125 6.390625 -11.957031 6.382812 -11.957031 C 6.34375 -11.972656 6.285156 -11.976562 6.214844 -11.976562 L 3.996094 -11.976562 L 3.996094 -12.671875 L 4.6875 -12.671875 L 4.6875 -7.546875 L 3.996094 -7.546875 Z M 3.300781 -6.851562 L 3.300781 -13.367188 L 6.214844 -13.367188 C 6.703125 -13.367188 7.085938 -13.222656 7.371094 -12.941406 C 7.652344 -12.65625 7.796875 -12.269531 7.796875 -11.785156 L 7.796875 -8.433594 C 7.796875 -7.945312 7.652344 -7.558594 7.371094 -7.277344 C 7.085938 -6.992188 6.703125 -6.851562 6.214844 -6.851562 Z M 3.300781 -6.851562 "/></g></g><g style="fill:#b21a22;fill-opacity:1;"><g transform="translate(79.11135, 96.189235)"><path style="stroke:none" d="M 0.417969 -3.195312 L 0.417969 -12.339844 C 0.417969 -13.582031 0.757812 -14.542969 1.445312 -15.21875 C 2.125 -15.890625 3.078125 -16.226562 4.304688 -16.226562 L 6.789062 -16.226562 C 8.03125 -16.226562 8.992188 -15.890625 9.667969 -15.214844 C 10.34375 -14.539062 10.679688 -13.582031 10.679688 -12.339844 L 10.679688 -3.195312 C 10.679688 -1.96875 10.34375 -1.015625 9.671875 -0.335938 C 8.996094 0.351562 8.035156 0.695312 6.789062 0.695312 L 4.304688 0.695312 C 3.078125 0.695312 2.125 0.351562 1.441406 -0.332031 C 0.757812 -1.011719 0.417969 -1.96875 0.417969 -3.195312 Z M 1.804688 -3.195312 C 1.804688 -2.351562 2.007812 -1.722656 2.421875 -1.3125 C 2.832031 -0.898438 3.460938 -0.695312 4.304688 -0.695312 L 6.789062 -0.695312 C 7.648438 -0.695312 8.277344 -0.898438 8.683594 -1.308594 C 9.089844 -1.71875 9.292969 -2.351562 9.292969 -3.195312 L 9.292969 -12.339844 C 9.292969 -13.199219 9.089844 -13.828125 8.6875 -14.234375 C 8.28125 -14.640625 7.648438 -14.839844 6.789062 -14.839844 L 4.304688 -14.839844 C 3.460938 -14.839844 2.832031 -14.636719 2.417969 -14.230469 C 2.007812 -13.828125 1.804688 -13.195312 1.804688 -12.339844 Z M 4.882812 -3.554688 L 6.300781 -3.554688 C 6.375 -3.554688 6.433594 -3.5625 6.472656 -3.578125 C 6.480469 -3.578125 6.484375 -3.582031 6.488281 -3.582031 C 6.484375 -3.582031 6.480469 -3.578125 6.476562 -3.574219 C 6.476562 -3.570312 6.472656 -3.570312 6.472656 -3.566406 C 6.472656 -3.570312 6.472656 -3.574219 6.476562 -3.582031 C 6.488281 -3.621094 6.496094 -3.675781 6.496094 -3.75 L 6.496094 -11.785156 C 6.496094 -11.855469 6.488281 -11.914062 6.476562 -11.953125 C 6.472656 -11.960938 6.472656 -11.964844 6.472656 -11.96875 C 6.472656 -11.964844 6.476562 -11.960938 6.476562 -11.960938 C 6.480469 -11.957031 6.484375 -11.953125 6.488281 -11.953125 C 6.484375 -11.953125 6.480469 -11.957031 6.472656 -11.957031 C 6.433594 -11.972656 6.375 -11.976562 6.300781 -11.976562 L 4.882812 -11.976562 C 4.808594 -11.976562 4.753906 -11.972656 4.714844 -11.957031 C 4.707031 -11.957031 4.699219 -11.953125 4.699219 -11.953125 C 4.699219 -11.953125 4.703125 -11.957031 4.707031 -11.960938 C 4.710938 -11.960938 4.710938 -11.964844 4.714844 -11.96875 C 4.710938 -11.964844 4.710938 -11.960938 4.707031 -11.953125 C 4.695312 -11.914062 4.6875 -11.855469 4.6875 -11.785156 L 4.6875 -3.75 C 4.6875 -3.675781 4.695312 -3.621094 4.707031 -3.582031 C 4.710938 -3.574219 4.710938 -3.570312 4.714844 -3.566406 C 4.710938 -3.570312 4.710938 -3.570312 4.707031 -3.574219 C 4.703125 -3.578125 4.699219 -3.582031 4.699219 -3.582031 C 4.699219 -3.582031 4.707031 -3.578125 4.714844 -3.578125 C 4.753906 -3.5625 4.808594 -3.554688 4.882812 -3.554688 Z M 4.882812 -2.167969 C 4.394531 -2.167969 4.007812 -2.3125 3.726562 -2.59375 C 3.441406 -2.878906 3.300781 -3.261719 3.300781 -3.75 L 3.300781 -11.785156 C 3.300781 -12.269531 3.441406 -12.65625 3.726562 -12.941406 C 4.007812 -13.222656 4.394531 -13.367188 4.882812 -13.367188 L 6.300781 -13.367188 C 6.789062 -13.367188 7.175781 -13.222656 7.457031 -12.941406 C 7.742188 -12.65625 7.882812 -12.269531 7.882812 -11.785156 L 7.882812 -3.75 C 7.882812 -3.261719 7.742188 -2.878906 7.457031 -2.59375 C 7.175781 -2.3125 6.789062 -2.167969 6.300781 -2.167969 Z M 4.882812 -2.167969 "/></g></g><g style="fill:#b21a22;fill-opacity:1;"><g transform="translate(90.20395, 96.189235)"><path style="stroke:none" d="M 10.679688 -12.339844 L 10.679688 -7.878906 C 10.679688 -6.335938 10.15625 -5.234375 9.109375 -4.582031 L 8.742188 -5.171875 L 9.417969 -5.332031 L 10.570312 -0.5625 L 9.898438 -0.398438 L 10.566406 -0.585938 C 10.664062 -0.226562 10.617188 0.0742188 10.421875 0.324219 C 10.230469 0.570312 9.953125 0.695312 9.585938 0.695312 L 7.414062 0.695312 C 7.144531 0.695312 6.914062 0.613281 6.722656 0.457031 C 6.535156 0.304688 6.414062 0.0976562 6.355469 -0.164062 L 7.035156 -0.3125 L 6.359375 -0.148438 L 5.296875 -4.519531 L 5.96875 -4.683594 L 5.96875 -3.988281 L 3.996094 -3.988281 L 3.996094 -4.683594 L 4.6875 -4.683594 L 4.6875 -0.355469 C 4.6875 -0.046875 4.589844 0.207031 4.394531 0.402344 C 4.203125 0.597656 3.949219 0.695312 3.640625 0.695312 L 1.464844 0.695312 C 1.15625 0.695312 0.902344 0.597656 0.707031 0.402344 C 0.511719 0.207031 0.417969 -0.046875 0.417969 -0.355469 L 0.417969 -15.179688 C 0.417969 -15.488281 0.511719 -15.742188 0.707031 -15.9375 C 0.902344 -16.128906 1.15625 -16.226562 1.464844 -16.226562 L 6.789062 -16.226562 C 8.03125 -16.226562 8.992188 -15.890625 9.667969 -15.214844 C 10.34375 -14.539062 10.679688 -13.582031 10.679688 -12.339844 Z M 9.292969 -12.339844 C 9.292969 -13.199219 9.089844 -13.828125 8.6875 -14.234375 C 8.28125 -14.640625 7.648438 -14.839844 6.789062 -14.839844 L 1.464844 -14.839844 C 1.480469 -14.839844 1.5 -14.84375 1.527344 -14.855469 C 1.585938 -14.875 1.640625 -14.90625 1.6875 -14.957031 C 1.738281 -15.003906 1.769531 -15.054688 1.789062 -15.117188 C 1.796875 -15.140625 1.804688 -15.164062 1.804688 -15.179688 L 1.804688 -0.355469 C 1.804688 -0.371094 1.796875 -0.390625 1.789062 -0.417969 C 1.769531 -0.476562 1.738281 -0.53125 1.6875 -0.578125 C 1.640625 -0.625 1.585938 -0.660156 1.527344 -0.679688 C 1.5 -0.6875 1.480469 -0.695312 1.464844 -0.695312 L 3.640625 -0.695312 C 3.625 -0.695312 3.601562 -0.6875 3.574219 -0.679688 C 3.515625 -0.660156 3.464844 -0.625 3.414062 -0.578125 C 3.367188 -0.53125 3.335938 -0.476562 3.3125 -0.417969 C 3.304688 -0.390625 3.300781 -0.371094 3.300781 -0.355469 L 3.300781 -5.375 L 6.515625 -5.375 L 7.710938 -0.464844 L 7.714844 -0.457031 C 7.703125 -0.511719 7.664062 -0.5625 7.601562 -0.613281 C 7.539062 -0.667969 7.472656 -0.695312 7.414062 -0.695312 L 9.585938 -0.695312 L 9.585938 -0.691406 C 9.574219 -0.691406 9.554688 -0.6875 9.539062 -0.679688 C 9.457031 -0.652344 9.386719 -0.601562 9.328125 -0.527344 C 9.269531 -0.449219 9.234375 -0.367188 9.226562 -0.277344 C 9.226562 -0.246094 9.226562 -0.226562 9.230469 -0.214844 L 9.226562 -0.226562 L 7.953125 -5.492188 L 8.375 -5.757812 C 8.988281 -6.140625 9.292969 -6.847656 9.292969 -7.878906 Z M 3.996094 -8.238281 L 6.214844 -8.238281 C 6.285156 -8.238281 6.34375 -8.246094 6.382812 -8.257812 C 6.390625 -8.261719 6.394531 -8.261719 6.398438 -8.265625 C 6.394531 -8.261719 6.390625 -8.261719 6.390625 -8.257812 C 6.386719 -8.253906 6.382812 -8.25 6.382812 -8.25 C 6.382812 -8.25 6.386719 -8.257812 6.386719 -8.265625 C 6.402344 -8.304688 6.40625 -8.359375 6.40625 -8.433594 L 6.40625 -11.785156 C 6.40625 -11.855469 6.402344 -11.914062 6.386719 -11.953125 C 6.386719 -11.960938 6.382812 -11.964844 6.382812 -11.96875 C 6.382812 -11.964844 6.386719 -11.960938 6.390625 -11.960938 C 6.390625 -11.957031 6.394531 -11.953125 6.398438 -11.953125 C 6.394531 -11.953125 6.390625 -11.957031 6.382812 -11.957031 C 6.34375 -11.972656 6.285156 -11.976562 6.214844 -11.976562 L 3.996094 -11.976562 L 3.996094 -12.671875 L 4.6875 -12.671875 L 4.6875 -7.546875 L 3.996094 -7.546875 Z M 3.300781 -6.851562 L 3.300781 -13.367188 L 6.214844 -13.367188 C 6.703125 -13.367188 7.085938 -13.222656 7.371094 -12.941406 C 7.652344 -12.65625 7.796875 -12.269531 7.796875 -11.785156 L 7.796875 -8.433594 C 7.796875 -7.945312 7.652344 -7.558594 7.371094 -7.277344 C 7.085938 -6.992188 6.703125 -6.851562 6.214844 -6.851562 Z M 3.300781 -6.851562 "/></g></g><g style="fill:#b21a22;fill-opacity:1;"><g transform="translate(101.29655, 96.189235)"><path style="stroke:none" d="M 4.304688 -16.226562 L 6.789062 -16.226562 C 8.03125 -16.226562 8.992188 -15.890625 9.667969 -15.214844 C 10.34375 -14.539062 10.679688 -13.582031 10.679688 -12.339844 L 10.679688 -10.875 C 10.679688 -10.5625 10.582031 -10.3125 10.386719 -10.117188 C 10.195312 -9.921875 9.941406 -9.824219 9.632812 -9.824219 L 7.390625 -9.824219 C 7.082031 -9.824219 6.828125 -9.921875 6.632812 -10.117188 C 6.4375 -10.3125 6.339844 -10.5625 6.339844 -10.875 L 6.339844 -11.804688 C 6.339844 -11.878906 6.335938 -11.933594 6.320312 -11.976562 C 6.320312 -11.984375 6.316406 -11.988281 6.316406 -11.992188 C 6.316406 -11.988281 6.320312 -11.984375 6.324219 -11.980469 C 6.324219 -11.976562 6.328125 -11.976562 6.332031 -11.972656 C 6.328125 -11.976562 6.324219 -11.976562 6.316406 -11.980469 C 6.277344 -11.992188 6.21875 -12 6.148438 -12 L 4.925781 -12 C 4.855469 -12 4.796875 -11.992188 4.757812 -11.980469 C 4.75 -11.976562 4.746094 -11.976562 4.742188 -11.972656 C 4.746094 -11.976562 4.75 -11.976562 4.75 -11.980469 C 4.753906 -11.984375 4.757812 -11.988281 4.757812 -11.992188 C 4.757812 -11.988281 4.753906 -11.984375 4.753906 -11.976562 C 4.738281 -11.933594 4.734375 -11.878906 4.734375 -11.804688 L 4.734375 -9.917969 L 4.039062 -9.917969 L 4.25 -10.578125 L 9.621094 -8.847656 C 9.964844 -8.730469 10.226562 -8.542969 10.410156 -8.28125 C 10.589844 -8.027344 10.679688 -7.722656 10.679688 -7.367188 L 10.679688 -3.195312 C 10.679688 -1.96875 10.34375 -1.015625 9.671875 -0.335938 C 8.996094 0.351562 8.035156 0.695312 6.789062 0.695312 L 4.304688 0.695312 C 3.078125 0.695312 2.125 0.351562 1.441406 -0.332031 C 0.757812 -1.011719 0.417969 -1.96875 0.417969 -3.195312 L 0.417969 -4.636719 C 0.417969 -4.949219 0.511719 -5.199219 0.707031 -5.394531 C 0.902344 -5.589844 1.15625 -5.6875 1.464844 -5.6875 L 3.707031 -5.6875 C 4.015625 -5.6875 4.269531 -5.589844 4.460938 -5.394531 C 4.65625 -5.199219 4.753906 -4.949219 4.753906 -4.636719 L 4.753906 -3.707031 C 4.753906 -3.632812 4.761719 -3.578125 4.773438 -3.535156 C 4.777344 -3.53125 4.777344 -3.523438 4.78125 -3.523438 C 4.777344 -3.523438 4.777344 -3.527344 4.773438 -3.53125 C 4.769531 -3.535156 4.765625 -3.535156 4.765625 -3.539062 C 4.765625 -3.535156 4.773438 -3.535156 4.78125 -3.53125 C 4.820312 -3.519531 4.875 -3.511719 4.949219 -3.511719 L 6.148438 -3.511719 C 6.21875 -3.511719 6.277344 -3.519531 6.316406 -3.53125 C 6.324219 -3.535156 6.328125 -3.535156 6.332031 -3.539062 C 6.328125 -3.535156 6.324219 -3.535156 6.324219 -3.53125 C 6.320312 -3.527344 6.316406 -3.523438 6.316406 -3.523438 C 6.316406 -3.523438 6.320312 -3.53125 6.320312 -3.535156 C 6.335938 -3.578125 6.339844 -3.632812 6.339844 -3.707031 L 6.339844 -5.949219 L 7.035156 -5.949219 L 6.820312 -5.289062 L 1.496094 -7.019531 C 1.152344 -7.132812 0.886719 -7.320312 0.699219 -7.574219 C 0.511719 -7.832031 0.417969 -8.140625 0.417969 -8.5 L 0.417969 -12.339844 C 0.417969 -13.582031 0.757812 -14.542969 1.445312 -15.21875 C 2.125 -15.890625 3.078125 -16.226562 4.304688 -16.226562 Z M 4.304688 -14.839844 C 3.460938 -14.839844 2.832031 -14.636719 2.417969 -14.230469 C 2.007812 -13.828125 1.804688 -13.195312 1.804688 -12.339844 L 1.804688 -8.5 C 1.804688 -8.441406 1.808594 -8.40625 1.820312 -8.390625 C 1.832031 -8.375 1.867188 -8.355469 1.921875 -8.339844 L 7.726562 -6.453125 L 7.726562 -3.707031 C 7.726562 -3.21875 7.585938 -2.832031 7.304688 -2.550781 C 7.019531 -2.265625 6.632812 -2.125 6.148438 -2.125 L 4.949219 -2.125 C 4.460938 -2.125 4.074219 -2.265625 3.792969 -2.550781 C 3.507812 -2.832031 3.367188 -3.21875 3.367188 -3.707031 L 3.367188 -4.636719 C 3.367188 -4.621094 3.371094 -4.601562 3.382812 -4.574219 C 3.402344 -4.515625 3.433594 -4.460938 3.480469 -4.414062 C 3.53125 -4.367188 3.582031 -4.332031 3.640625 -4.3125 C 3.667969 -4.304688 3.691406 -4.300781 3.707031 -4.300781 L 1.464844 -4.300781 C 1.480469 -4.300781 1.5 -4.304688 1.527344 -4.3125 C 1.585938 -4.332031 1.640625 -4.367188 1.6875 -4.414062 C 1.738281 -4.460938 1.769531 -4.515625 1.789062 -4.574219 C 1.796875 -4.601562 1.804688 -4.621094 1.804688 -4.636719 L 1.804688 -3.195312 C 1.804688 -2.351562 2.007812 -1.722656 2.421875 -1.3125 C 2.832031 -0.898438 3.460938 -0.695312 4.304688 -0.695312 L 6.789062 -0.695312 C 7.648438 -0.695312 8.277344 -0.898438 8.683594 -1.308594 C 9.089844 -1.71875 9.292969 -2.351562 9.292969 -3.195312 L 9.292969 -7.367188 C 9.292969 -7.429688 9.285156 -7.46875 9.273438 -7.484375 C 9.265625 -7.5 9.238281 -7.515625 9.195312 -7.527344 L 3.34375 -9.414062 L 3.34375 -11.804688 C 3.34375 -12.292969 3.488281 -12.679688 3.769531 -12.960938 C 4.054688 -13.246094 4.4375 -13.386719 4.925781 -13.386719 L 6.148438 -13.386719 C 6.632812 -13.386719 7.019531 -13.246094 7.304688 -12.960938 C 7.585938 -12.679688 7.726562 -12.292969 7.726562 -11.804688 L 7.726562 -10.875 C 7.726562 -10.890625 7.722656 -10.910156 7.714844 -10.9375 C 7.695312 -10.996094 7.660156 -11.050781 7.613281 -11.097656 C 7.566406 -11.144531 7.511719 -11.179688 7.453125 -11.199219 C 7.425781 -11.207031 7.40625 -11.210938 7.390625 -11.210938 L 9.632812 -11.210938 C 9.617188 -11.210938 9.59375 -11.207031 9.566406 -11.199219 C 9.507812 -11.179688 9.453125 -11.144531 9.40625 -11.097656 C 9.359375 -11.050781 9.324219 -10.996094 9.304688 -10.9375 C 9.296875 -10.910156 9.292969 -10.890625 9.292969 -10.875 L 9.292969 -12.339844 C 9.292969 -13.199219 9.089844 -13.828125 8.6875 -14.234375 C 8.28125 -14.640625 7.648438 -14.839844 6.789062 -14.839844 Z M 4.304688 -14.839844 "/></g></g><g style="fill:#060705;fill-opacity:1;"><g transform="translate(16.393273, 65.249518)"><path style="stroke:none" d="M 1.109375 -0.359375 L 1.109375 -15.171875 C 1.109375 -15.410156 1.226562 -15.53125 1.46875 -15.53125 L 6.796875 -15.53125 C 7.835938 -15.53125 8.628906 -15.253906 9.171875 -14.703125 C 9.710938 -14.160156 9.984375 -13.363281 9.984375 -12.3125 L 9.984375 -3.1875 C 9.984375 -2.15625 9.710938 -1.363281 9.171875 -0.8125 C 8.628906 -0.269531 7.835938 0 6.796875 0 L 1.46875 0 C 1.226562 0 1.109375 -0.117188 1.109375 -0.359375 Z M 4.125 -2.921875 L 6.171875 -2.921875 C 6.765625 -2.921875 7.0625 -3.21875 7.0625 -3.8125 L 7.0625 -11.6875 C 7.0625 -12.300781 6.765625 -12.609375 6.171875 -12.609375 L 4.125 -12.609375 Z M 4.125 -2.921875 "/></g></g><g style="fill:#060705;fill-opacity:1;"><g transform="translate(27.485873, 65.249518)"><path style="stroke:none" d="M 9.96875 -15.171875 L 9.96875 -12.953125 C 9.96875 -12.703125 9.847656 -12.578125 9.609375 -12.578125 L 4.125 -12.578125 L 4.125 -9.15625 L 8.296875 -9.15625 C 8.535156 -9.15625 8.65625 -9.03125 8.65625 -8.78125 L 8.65625 -6.59375 C 8.65625 -6.34375 8.535156 -6.21875 8.296875 -6.21875 L 4.125 -6.21875 L 4.125 -2.921875 L 9.609375 -2.921875 C 9.847656 -2.921875 9.96875 -2.804688 9.96875 -2.578125 L 9.96875 -0.359375 C 9.96875 -0.117188 9.847656 0 9.609375 0 L 1.4375 0 C 1.21875 0 1.109375 -0.117188 1.109375 -0.359375 L 1.109375 -15.171875 C 1.109375 -15.410156 1.21875 -15.53125 1.4375 -15.53125 L 9.609375 -15.53125 C 9.847656 -15.53125 9.96875 -15.410156 9.96875 -15.171875 Z M 9.96875 -15.171875 "/></g></g><g style="fill:#060705;fill-opacity:1;"><g transform="translate(38.556284, 65.249518)"><path style="stroke:none" d="M 4.296875 -15.53125 L 6.796875 -15.53125 C 7.835938 -15.53125 8.628906 -15.257812 9.171875 -14.71875 C 9.710938 -14.175781 9.984375 -13.382812 9.984375 -12.34375 L 9.984375 -10.875 C 9.984375 -10.632812 9.863281 -10.515625 9.625 -10.515625 L 7.390625 -10.515625 C 7.148438 -10.515625 7.03125 -10.632812 7.03125 -10.875 L 7.03125 -11.796875 C 7.03125 -12.390625 6.734375 -12.6875 6.140625 -12.6875 L 4.921875 -12.6875 C 4.328125 -12.6875 4.03125 -12.390625 4.03125 -11.796875 L 4.03125 -9.921875 L 9.40625 -8.1875 C 9.789062 -8.050781 9.984375 -7.773438 9.984375 -7.359375 L 9.984375 -3.1875 C 9.984375 -2.15625 9.710938 -1.363281 9.171875 -0.8125 C 8.628906 -0.269531 7.835938 0 6.796875 0 L 4.296875 0 C 3.265625 0 2.472656 -0.269531 1.921875 -0.8125 C 1.378906 -1.363281 1.109375 -2.15625 1.109375 -3.1875 L 1.109375 -4.640625 C 1.109375 -4.867188 1.226562 -4.984375 1.46875 -4.984375 L 3.703125 -4.984375 C 3.941406 -4.984375 4.0625 -4.867188 4.0625 -4.640625 L 4.0625 -3.703125 C 4.0625 -3.109375 4.359375 -2.8125 4.953125 -2.8125 L 6.140625 -2.8125 C 6.734375 -2.8125 7.03125 -3.109375 7.03125 -3.703125 L 7.03125 -5.953125 L 1.703125 -7.671875 C 1.304688 -7.804688 1.109375 -8.082031 1.109375 -8.5 L 1.109375 -12.34375 C 1.109375 -13.382812 1.378906 -14.175781 1.921875 -14.71875 C 2.472656 -15.257812 3.265625 -15.53125 4.296875 -15.53125 Z M 4.296875 -15.53125 "/></g></g><g style="fill:#060705;fill-opacity:1;"><g transform="translate(49.648885, 65.249518)"><path style="stroke:none" d="M 9.1875 -15.53125 L 1.015625 -15.53125 C 0.785156 -15.53125 0.671875 -15.410156 0.671875 -15.171875 L 0.671875 -12.953125 C 0.671875 -12.722656 0.785156 -12.609375 1.015625 -12.609375 L 3.59375 -12.609375 L 3.59375 -0.359375 C 3.59375 -0.117188 3.710938 0 3.953125 0 L 6.25 0 C 6.488281 0 6.609375 -0.117188 6.609375 -0.359375 L 6.609375 -12.609375 L 9.1875 -12.609375 C 9.425781 -12.609375 9.546875 -12.722656 9.546875 -12.953125 L 9.546875 -15.171875 C 9.546875 -15.410156 9.425781 -15.53125 9.1875 -15.53125 Z M 9.1875 -15.53125 "/></g></g><g style="fill:#060705;fill-opacity:1;"><g transform="translate(59.854078, 65.249518)"><path style="stroke:none" d="M 1.46875 0 L 3.765625 0 C 4.003906 0 4.125 -0.117188 4.125 -0.359375 L 4.125 -15.171875 C 4.125 -15.410156 4.003906 -15.53125 3.765625 -15.53125 L 1.46875 -15.53125 C 1.226562 -15.53125 1.109375 -15.410156 1.109375 -15.171875 L 1.109375 -0.359375 C 1.109375 -0.117188 1.226562 0 1.46875 0 Z M 1.46875 0 "/></g></g><g style="fill:#060705;fill-opacity:1;"><g transform="translate(65.089782, 65.249518)"><path style="stroke:none" d="M 8.140625 -15.53125 L 10.234375 -15.53125 C 10.460938 -15.53125 10.578125 -15.410156 10.578125 -15.171875 L 10.578125 -0.359375 C 10.578125 -0.117188 10.460938 0 10.234375 0 L 8.46875 0 C 8.289062 0 8.160156 -0.09375 8.078125 -0.28125 L 3.90625 -8.765625 L 3.90625 -0.359375 C 3.90625 -0.117188 3.785156 0 3.546875 0 L 1.46875 0 C 1.226562 0 1.109375 -0.117188 1.109375 -0.359375 L 1.109375 -15.171875 C 1.109375 -15.410156 1.226562 -15.53125 1.46875 -15.53125 L 3.21875 -15.53125 C 3.394531 -15.53125 3.523438 -15.4375 3.609375 -15.25 L 7.78125 -6.765625 L 7.78125 -15.171875 C 7.78125 -15.410156 7.898438 -15.53125 8.140625 -15.53125 Z M 8.140625 -15.53125 "/></g></g><g style="fill:#060705;fill-opacity:1;"><g transform="translate(76.781386, 65.249518)"><path style="stroke:none" d="M 11.578125 0 L 9.421875 0 C 9.234375 0 9.117188 -0.101562 9.078125 -0.3125 L 8.359375 -3.109375 L 4.1875 -3.109375 L 3.5 -0.3125 C 3.457031 -0.101562 3.34375 0 3.15625 0 L 0.96875 0 C 0.707031 0 0.613281 -0.125 0.6875 -0.375 L 4.375 -15.21875 C 4.414062 -15.425781 4.539062 -15.53125 4.75 -15.53125 L 7.828125 -15.53125 C 8.035156 -15.53125 8.160156 -15.425781 8.203125 -15.21875 L 11.890625 -0.375 C 11.960938 -0.125 11.859375 0 11.578125 0 Z M 7.671875 -5.6875 L 6.28125 -11.71875 L 4.875 -5.6875 Z M 7.671875 -5.6875 "/></g></g><g style="fill:#060705;fill-opacity:1;"><g transform="translate(89.360397, 65.249518)"><path style="stroke:none" d="M 9.1875 -15.53125 L 1.015625 -15.53125 C 0.785156 -15.53125 0.671875 -15.410156 0.671875 -15.171875 L 0.671875 -12.953125 C 0.671875 -12.722656 0.785156 -12.609375 1.015625 -12.609375 L 3.59375 -12.609375 L 3.59375 -0.359375 C 3.59375 -0.117188 3.710938 0 3.953125 0 L 6.25 0 C 6.488281 0 6.609375 -0.117188 6.609375 -0.359375 L 6.609375 -12.609375 L 9.1875 -12.609375 C 9.425781 -12.609375 9.546875 -12.722656 9.546875 -12.953125 L 9.546875 -15.171875 C 9.546875 -15.410156 9.425781 -15.53125 9.1875 -15.53125 Z M 9.1875 -15.53125 "/></g></g><g style="fill:#060705;fill-opacity:1;"><g transform="translate(99.565591, 65.249518)"><path style="stroke:none" d="M 1.46875 0 L 3.765625 0 C 4.003906 0 4.125 -0.117188 4.125 -0.359375 L 4.125 -15.171875 C 4.125 -15.410156 4.003906 -15.53125 3.765625 -15.53125 L 1.46875 -15.53125 C 1.226562 -15.53125 1.109375 -15.410156 1.109375 -15.171875 L 1.109375 -0.359375 C 1.109375 -0.117188 1.226562 0 1.46875 0 Z M 1.46875 0 "/></g></g><g style="fill:#060705;fill-opacity:1;"><g transform="translate(104.801295, 65.249518)"><path style="stroke:none" d="M 1.109375 -3.1875 L 1.109375 -12.34375 C 1.109375 -13.382812 1.378906 -14.175781 1.921875 -14.71875 C 2.472656 -15.257812 3.265625 -15.53125 4.296875 -15.53125 L 6.796875 -15.53125 C 7.835938 -15.53125 8.628906 -15.257812 9.171875 -14.71875 C 9.710938 -14.175781 9.984375 -13.382812 9.984375 -12.34375 L 9.984375 -3.1875 C 9.984375 -2.15625 9.710938 -1.363281 9.171875 -0.8125 C 8.628906 -0.269531 7.835938 0 6.796875 0 L 4.296875 0 C 3.265625 0 2.472656 -0.269531 1.921875 -0.8125 C 1.378906 -1.363281 1.109375 -2.15625 1.109375 -3.1875 Z M 4.875 -2.859375 L 6.296875 -2.859375 C 6.890625 -2.859375 7.1875 -3.15625 7.1875 -3.75 L 7.1875 -11.78125 C 7.1875 -12.375 6.890625 -12.671875 6.296875 -12.671875 L 4.875 -12.671875 C 4.289062 -12.671875 4 -12.375 4 -11.78125 L 4 -3.75 C 4 -3.15625 4.289062 -2.859375 4.875 -2.859375 Z M 4.875 -2.859375 "/></g></g><g style="fill:#060705;fill-opacity:1;"><g transform="translate(115.893895, 65.249518)"><path style="stroke:none" d="M 8.140625 -15.53125 L 10.234375 -15.53125 C 10.460938 -15.53125 10.578125 -15.410156 10.578125 -15.171875 L 10.578125 -0.359375 C 10.578125 -0.117188 10.460938 0 10.234375 0 L 8.46875 0 C 8.289062 0 8.160156 -0.09375 8.078125 -0.28125 L 3.90625 -8.765625 L 3.90625 -0.359375 C 3.90625 -0.117188 3.785156 0 3.546875 0 L 1.46875 0 C 1.226562 0 1.109375 -0.117188 1.109375 -0.359375 L 1.109375 -15.171875 C 1.109375 -15.410156 1.226562 -15.53125 1.46875 -15.53125 L 3.21875 -15.53125 C 3.394531 -15.53125 3.523438 -15.4375 3.609375 -15.25 L 7.78125 -6.765625 L 7.78125 -15.171875 C 7.78125 -15.410156 7.898438 -15.53125 8.140625 -15.53125 Z M 8.140625 -15.53125 "/></g></g><g style="fill:#060705;fill-opacity:1;"><g transform="translate(31.590651, 96.189235)"><path style="stroke:none" d="M 0 2.96875 L 0 0.9375 C 0 0.632812 0.144531 0.484375 0.4375 0.484375 L 13.828125 0.484375 C 14.117188 0.484375 14.265625 0.632812 14.265625 0.9375 L 14.265625 2.96875 C 14.265625 3.269531 14.117188 3.421875 13.828125 3.421875 L 0.4375 3.421875 C 0.144531 3.421875 0 3.269531 0 2.96875 Z M 0 2.96875 "/></g></g><g style="fill:#060705;fill-opacity:1;"><g transform="translate(45.855738, 96.189235)"><path style="stroke:none" d="M 9.96875 -15.171875 L 9.96875 -12.953125 C 9.96875 -12.703125 9.847656 -12.578125 9.609375 -12.578125 L 4.125 -12.578125 L 4.125 -9.15625 L 8.296875 -9.15625 C 8.535156 -9.15625 8.65625 -9.03125 8.65625 -8.78125 L 8.65625 -6.59375 C 8.65625 -6.34375 8.535156 -6.21875 8.296875 -6.21875 L 4.125 -6.21875 L 4.125 -2.921875 L 9.609375 -2.921875 C 9.847656 -2.921875 9.96875 -2.804688 9.96875 -2.578125 L 9.96875 -0.359375 C 9.96875 -0.117188 9.847656 0 9.609375 0 L 1.4375 0 C 1.21875 0 1.109375 -0.117188 1.109375 -0.359375 L 1.109375 -15.171875 C 1.109375 -15.410156 1.21875 -15.53125 1.4375 -15.53125 L 9.609375 -15.53125 C 9.847656 -15.53125 9.96875 -15.410156 9.96875 -15.171875 Z M 9.96875 -15.171875 "/></g></g><g style="fill:#060705;fill-opacity:1;"><g transform="translate(56.926149, 96.189235)"><path style="stroke:none" d="M 9.984375 -12.34375 L 9.984375 -7.875 C 9.984375 -6.59375 9.566406 -5.691406 8.734375 -5.171875 L 9.890625 -0.40625 C 9.960938 -0.132812 9.859375 0 9.578125 0 L 7.40625 0 C 7.195312 0 7.070312 -0.101562 7.03125 -0.3125 L 5.96875 -4.6875 L 4 -4.6875 L 4 -0.359375 C 4 -0.117188 3.878906 0 3.640625 0 L 1.46875 0 C 1.226562 0 1.109375 -0.117188 1.109375 -0.359375 L 1.109375 -15.171875 C 1.109375 -15.410156 1.226562 -15.53125 1.46875 -15.53125 L 6.796875 -15.53125 C 7.835938 -15.53125 8.628906 -15.257812 9.171875 -14.71875 C 9.710938 -14.175781 9.984375 -13.382812 9.984375 -12.34375 Z M 4 -7.546875 L 6.21875 -7.546875 C 6.800781 -7.546875 7.09375 -7.84375 7.09375 -8.4375 L 7.09375 -11.78125 C 7.09375 -12.375 6.800781 -12.671875 6.21875 -12.671875 L 4 -12.671875 Z M 4 -7.546875 "/></g></g><g style="fill:#060705;fill-opacity:1;"><g transform="translate(68.018749, 96.189235)"><path style="stroke:none" d="M 9.984375 -12.34375 L 9.984375 -7.875 C 9.984375 -6.59375 9.566406 -5.691406 8.734375 -5.171875 L 9.890625 -0.40625 C 9.960938 -0.132812 9.859375 0 9.578125 0 L 7.40625 0 C 7.195312 0 7.070312 -0.101562 7.03125 -0.3125 L 5.96875 -4.6875 L 4 -4.6875 L 4 -0.359375 C 4 -0.117188 3.878906 0 3.640625 0 L 1.46875 0 C 1.226562 0 1.109375 -0.117188 1.109375 -0.359375 L 1.109375 -15.171875 C 1.109375 -15.410156 1.226562 -15.53125 1.46875 -15.53125 L 6.796875 -15.53125 C 7.835938 -15.53125 8.628906 -15.257812 9.171875 -14.71875 C 9.710938 -14.175781 9.984375 -13.382812 9.984375 -12.34375 Z M 4 -7.546875 L 6.21875 -7.546875 C 6.800781 -7.546875 7.09375 -7.84375 7.09375 -8.4375 L 7.09375 -11.78125 C 7.09375 -12.375 6.800781 -12.671875 6.21875 -12.671875 L 4 -12.671875 Z M 4 -7.546875 "/></g></g><g style="fill:#060705;fill-opacity:1;"><g transform="translate(79.11135, 96.189235)"><path style="stroke:none" d="M 1.109375 -3.1875 L 1.109375 -12.34375 C 1.109375 -13.382812 1.378906 -14.175781 1.921875 -14.71875 C 2.472656 -15.257812 3.265625 -15.53125 4.296875 -15.53125 L 6.796875 -15.53125 C 7.835938 -15.53125 8.628906 -15.257812 9.171875 -14.71875 C 9.710938 -14.175781 9.984375 -13.382812 9.984375 -12.34375 L 9.984375 -3.1875 C 9.984375 -2.15625 9.710938 -1.363281 9.171875 -0.8125 C 8.628906 -0.269531 7.835938 0 6.796875 0 L 4.296875 0 C 3.265625 0 2.472656 -0.269531 1.921875 -0.8125 C 1.378906 -1.363281 1.109375 -2.15625 1.109375 -3.1875 Z M 4.875 -2.859375 L 6.296875 -2.859375 C 6.890625 -2.859375 7.1875 -3.15625 7.1875 -3.75 L 7.1875 -11.78125 C 7.1875 -12.375 6.890625 -12.671875 6.296875 -12.671875 L 4.875 -12.671875 C 4.289062 -12.671875 4 -12.375 4 -11.78125 L 4 -3.75 C 4 -3.15625 4.289062 -2.859375 4.875 -2.859375 Z M 4.875 -2.859375 "/></g></g><g style="fill:#060705;fill-opacity:1;"><g transform="translate(90.20395, 96.189235)"><path style="stroke:none" d="M 9.984375 -12.34375 L 9.984375 -7.875 C 9.984375 -6.59375 9.566406 -5.691406 8.734375 -5.171875 L 9.890625 -0.40625 C 9.960938 -0.132812 9.859375 0 9.578125 0 L 7.40625 0 C 7.195312 0 7.070312 -0.101562 7.03125 -0.3125 L 5.96875 -4.6875 L 4 -4.6875 L 4 -0.359375 C 4 -0.117188 3.878906 0 3.640625 0 L 1.46875 0 C 1.226562 0 1.109375 -0.117188 1.109375 -0.359375 L 1.109375 -15.171875 C 1.109375 -15.410156 1.226562 -15.53125 1.46875 -15.53125 L 6.796875 -15.53125 C 7.835938 -15.53125 8.628906 -15.257812 9.171875 -14.71875 C 9.710938 -14.175781 9.984375 -13.382812 9.984375 -12.34375 Z M 4 -7.546875 L 6.21875 -7.546875 C 6.800781 -7.546875 7.09375 -7.84375 7.09375 -8.4375 L 7.09375 -11.78125 C 7.09375 -12.375 6.800781 -12.671875 6.21875 -12.671875 L 4 -12.671875 Z M 4 -7.546875 "/></g></g><g style="fill:#060705;fill-opacity:1;"><g transform="translate(101.29655, 96.189235)"><path style="stroke:none" d="M 4.296875 -15.53125 L 6.796875 -15.53125 C 7.835938 -15.53125 8.628906 -15.257812 9.171875 -14.71875 C 9.710938 -14.175781 9.984375 -13.382812 9.984375 -12.34375 L 9.984375 -10.875 C 9.984375 -10.632812 9.863281 -10.515625 9.625 -10.515625 L 7.390625 -10.515625 C 7.148438 -10.515625 7.03125 -10.632812 7.03125 -10.875 L 7.03125 -11.796875 C 7.03125 -12.390625 6.734375 -12.6875 6.140625 -12.6875 L 4.921875 -12.6875 C 4.328125 -12.6875 4.03125 -12.390625 4.03125 -11.796875 L 4.03125 -9.921875 L 9.40625 -8.1875 C 9.789062 -8.050781 9.984375 -7.773438 9.984375 -7.359375 L 9.984375 -3.1875 C 9.984375 -2.15625 9.710938 -1.363281 9.171875 -0.8125 C 8.628906 -0.269531 7.835938 0 6.796875 0 L 4.296875 0 C 3.265625 0 2.472656 -0.269531 1.921875 -0.8125 C 1.378906 -1.363281 1.109375 -2.15625 1.109375 -3.1875 L 1.109375 -4.640625 C 1.109375 -4.867188 1.226562 -4.984375 1.46875 -4.984375 L 3.703125 -4.984375 C 3.941406 -4.984375 4.0625 -4.867188 4.0625 -4.640625 L 4.0625 -3.703125 C 4.0625 -3.109375 4.359375 -2.8125 4.953125 -2.8125 L 6.140625 -2.8125 C 6.734375 -2.8125 7.03125 -3.109375 7.03125 -3.703125 L 7.03125 -5.953125 L 1.703125 -7.671875 C 1.304688 -7.804688 1.109375 -8.082031 1.109375 -8.5 L 1.109375 -12.34375 C 1.109375 -13.382812 1.378906 -14.175781 1.921875 -14.71875 C 2.472656 -15.257812 3.265625 -15.53125 4.296875 -15.53125 Z M 4.296875 -15.53125 "/></g></g></g></svg>