<svg xmlns="http://www.w3.org/2000/svg" xmlns:xlink="http://www.w3.org/1999/xlink" width="500" zoomAndPan="magnify" viewBox="0 0 375 374.999991" height="500" preserveAspectRatio="xMidYMid meet" version="1.2"><defs><clipPath id="d33d1b2d32"><path d="M 25 0 L 350 0 L 350 375 L 25 375 Z M 25 0 "/></clipPath><clipPath id="51caff5d80"><path d="M -55.878906 142.882812 L 268.328125 -46.476562 L 431 232.042969 L 106.789062 421.402344 Z M -55.878906 142.882812 "/></clipPath><clipPath id="3ca4567323"><path d="M 349.546875 92.851562 L 349.859375 279.433594 L 187.8125 374.078125 L 25.453125 282.140625 L 25.140625 95.5625 L 187.1875 0.917969 Z M 349.546875 92.851562 "/></clipPath><clipPath id="be3ada6900"><path d="M 55.238281 35.632812 L 319.726562 35.632812 L 319.726562 339 L 55.238281 339 Z M 55.238281 35.632812 "/></clipPath></defs><g id="27af62f096"><g clip-rule="nonzero" clip-path="url(#d33d1b2d32)"><g clip-rule="nonzero" clip-path="url(#51caff5d80)"><g clip-rule="nonzero" clip-path="url(#3ca4567323)"><path style=" stroke:none;fill-rule:nonzero;fill:#65b30e;fill-opacity:1;" d="M -55.878906 142.882812 L 268.332031 -46.476562 L 431 232.042969 L 106.789062 421.402344 Z M -55.878906 142.882812 "/></g></g></g><path style=" stroke:none;fill-rule:nonzero;fill:#87ff00;fill-opacity:1;" d="M 134.582031 135.703125 L 134.414062 135.535156 L 97.035156 172.914062 L 187.792969 263.503906 L 225.175781 226.296875 L 278.546875 172.914062 L 241.167969 135.535156 L 241.167969 135.363281 L 134.417969 135.363281 Z M 134.582031 135.703125 "/><g clip-rule="nonzero" clip-path="url(#be3ada6900)"><path style=" stroke:none;fill-rule:nonzero;fill:#87ff00;fill-opacity:1;" d="M 187.453125 35.851562 L 55.269531 111.625 L 55.273438 263.175781 L 187.457031 338.949219 L 319.640625 263.175781 L 319.640625 111.625 L 187.457031 35.855469 Z M 294.375 248.683594 L 187.453125 310.308594 L 80.527344 248.683594 L 80.53125 125.765625 L 187.457031 64.136719 L 294.378906 125.765625 L 294.378906 248.683594 Z M 294.375 248.683594 "/></g><g style="fill:#b21a22;fill-opacity:1;"><g transform="translate(42.690817, 169.920602)"><path style="stroke:none" d="M 1.082031 -0.925781 L 1.082031 -39.53125 C 1.082031 -40.335938 1.335938 -40.992188 1.84375 -41.5 C 2.351562 -42.007812 3.007812 -42.261719 3.8125 -42.261719 L 17.683594 -42.261719 C 20.921875 -42.261719 23.421875 -41.367188 25.183594 -39.585938 C 26.9375 -37.808594 27.8125 -35.304688 27.8125 -32.074219 L 27.8125 -8.320312 C 27.8125 -5.132812 26.9375 -2.648438 25.183594 -0.871094 C 23.421875 0.914062 20.921875 1.804688 17.683594 1.804688 L 3.8125 1.804688 C 3.007812 1.804688 2.351562 1.554688 1.84375 1.046875 C 1.335938 0.539062 1.082031 -0.117188 1.082031 -0.925781 Z M 4.695312 -0.925781 C 4.695312 -0.964844 4.683594 -1.023438 4.660156 -1.089844 C 4.609375 -1.246094 4.523438 -1.382812 4.398438 -1.507812 C 4.273438 -1.632812 4.136719 -1.71875 3.980469 -1.769531 C 3.910156 -1.792969 3.855469 -1.804688 3.8125 -1.804688 L 17.683594 -1.804688 C 19.917969 -1.804688 21.558594 -2.339844 22.609375 -3.40625 C 23.671875 -4.480469 24.199219 -6.117188 24.199219 -8.320312 L 24.199219 -32.074219 C 24.199219 -34.316406 23.671875 -35.972656 22.609375 -37.046875 C 21.558594 -38.113281 19.917969 -38.648438 17.683594 -38.648438 L 3.8125 -38.648438 C 3.855469 -38.648438 3.910156 -38.660156 3.980469 -38.683594 C 4.136719 -38.734375 4.273438 -38.824219 4.398438 -38.945312 C 4.523438 -39.070312 4.609375 -39.210938 4.660156 -39.363281 C 4.683594 -39.433594 4.695312 -39.488281 4.695312 -39.53125 Z M 10.75 -9.433594 L 16.066406 -9.433594 C 16.257812 -9.433594 16.402344 -9.453125 16.507812 -9.488281 C 16.527344 -9.492188 16.539062 -9.5 16.546875 -9.503906 C 16.539062 -9.5 16.53125 -9.492188 16.523438 -9.484375 C 16.515625 -9.476562 16.507812 -9.46875 16.503906 -9.460938 C 16.507812 -9.46875 16.511719 -9.480469 16.519531 -9.5 C 16.554688 -9.605469 16.570312 -9.75 16.570312 -9.941406 L 16.570312 -30.457031 C 16.570312 -30.660156 16.554688 -30.820312 16.515625 -30.933594 C 16.507812 -30.960938 16.5 -30.976562 16.492188 -30.988281 C 16.496094 -30.984375 16.5 -30.980469 16.507812 -30.972656 L 16.492188 -30.96875 C 16.394531 -31.003906 16.25 -31.019531 16.066406 -31.019531 L 10.75 -31.019531 L 10.75 -32.824219 L 12.554688 -32.824219 L 12.554688 -7.628906 L 10.75 -7.628906 Z M 8.941406 -5.824219 L 8.941406 -34.632812 L 16.066406 -34.632812 C 17.34375 -34.632812 18.351562 -34.253906 19.09375 -33.496094 C 19.820312 -32.75 20.183594 -31.738281 20.183594 -30.457031 L 20.183594 -9.941406 C 20.183594 -8.671875 19.816406 -7.667969 19.078125 -6.929688 C 18.339844 -6.191406 17.335938 -5.824219 16.066406 -5.824219 Z M 8.941406 -5.824219 "/></g></g><g style="fill:#b21a22;fill-opacity:1;"><g transform="translate(71.577796, 169.920602)"><path style="stroke:none" d="M 27.753906 -39.53125 L 27.753906 -33.75 C 27.753906 -32.945312 27.515625 -32.289062 27.03125 -31.777344 C 26.523438 -31.234375 25.851562 -30.960938 25.023438 -30.960938 L 10.75 -30.960938 L 10.75 -32.769531 L 12.554688 -32.769531 L 12.554688 -23.867188 L 10.75 -23.867188 L 10.75 -25.675781 L 21.613281 -25.675781 C 22.441406 -25.675781 23.113281 -25.402344 23.621094 -24.859375 C 24.105469 -24.347656 24.34375 -23.691406 24.34375 -22.886719 L 24.34375 -17.164062 C 24.34375 -16.359375 24.105469 -15.699219 23.621094 -15.191406 C 23.113281 -14.648438 22.441406 -14.375 21.613281 -14.375 L 10.75 -14.375 L 10.75 -16.183594 L 12.554688 -16.183594 L 12.554688 -7.628906 L 10.75 -7.628906 L 10.75 -9.433594 L 25.023438 -9.433594 C 25.832031 -9.433594 26.488281 -9.179688 26.996094 -8.675781 C 27.5 -8.167969 27.753906 -7.511719 27.753906 -6.703125 L 27.753906 -0.925781 C 27.753906 -0.117188 27.5 0.539062 26.996094 1.046875 C 26.488281 1.554688 25.832031 1.804688 25.023438 1.804688 L 3.757812 1.804688 C 2.945312 1.804688 2.289062 1.539062 1.789062 1.003906 C 1.320312 0.503906 1.082031 -0.140625 1.082031 -0.925781 L 1.082031 -39.53125 C 1.082031 -40.3125 1.320312 -40.957031 1.789062 -41.457031 C 2.289062 -41.992188 2.945312 -42.261719 3.757812 -42.261719 L 25.023438 -42.261719 C 25.832031 -42.261719 26.488281 -42.007812 26.996094 -41.5 C 27.5 -40.992188 27.753906 -40.335938 27.753906 -39.53125 Z M 24.140625 -39.53125 C 24.140625 -39.488281 24.152344 -39.433594 24.175781 -39.363281 C 24.230469 -39.210938 24.316406 -39.070312 24.441406 -38.945312 C 24.5625 -38.824219 24.703125 -38.734375 24.859375 -38.683594 C 24.925781 -38.660156 24.984375 -38.648438 25.023438 -38.648438 L 3.757812 -38.648438 C 3.988281 -38.648438 4.210938 -38.761719 4.425781 -38.988281 C 4.539062 -39.113281 4.621094 -39.25 4.667969 -39.394531 C 4.6875 -39.457031 4.695312 -39.5 4.695312 -39.53125 L 4.695312 -0.925781 C 4.695312 -0.953125 4.6875 -1 4.667969 -1.058594 C 4.621094 -1.207031 4.539062 -1.34375 4.425781 -1.464844 C 4.210938 -1.691406 3.988281 -1.804688 3.757812 -1.804688 L 25.023438 -1.804688 C 24.984375 -1.804688 24.925781 -1.792969 24.859375 -1.769531 C 24.703125 -1.71875 24.5625 -1.632812 24.441406 -1.507812 C 24.316406 -1.382812 24.230469 -1.246094 24.175781 -1.089844 C 24.152344 -1.023438 24.140625 -0.964844 24.140625 -0.925781 L 24.140625 -6.703125 C 24.140625 -6.664062 24.152344 -6.605469 24.175781 -6.539062 C 24.230469 -6.382812 24.316406 -6.246094 24.441406 -6.121094 C 24.5625 -5.996094 24.703125 -5.910156 24.859375 -5.855469 C 24.925781 -5.835938 24.984375 -5.824219 25.023438 -5.824219 L 8.941406 -5.824219 L 8.941406 -17.988281 L 21.613281 -17.988281 C 21.5625 -17.988281 21.496094 -17.972656 21.414062 -17.945312 C 21.257812 -17.890625 21.117188 -17.796875 20.992188 -17.664062 C 20.878906 -17.546875 20.800781 -17.414062 20.757812 -17.273438 C 20.742188 -17.222656 20.734375 -17.183594 20.734375 -17.164062 L 20.734375 -22.886719 C 20.734375 -22.863281 20.742188 -22.828125 20.757812 -22.773438 C 20.800781 -22.632812 20.878906 -22.503906 20.992188 -22.382812 C 21.117188 -22.253906 21.257812 -22.160156 21.414062 -22.105469 C 21.496094 -22.074219 21.5625 -22.0625 21.613281 -22.0625 L 8.941406 -22.0625 L 8.941406 -34.574219 L 25.023438 -34.574219 C 24.972656 -34.574219 24.90625 -34.558594 24.824219 -34.53125 C 24.667969 -34.476562 24.523438 -34.382812 24.402344 -34.25 C 24.289062 -34.132812 24.210938 -34.003906 24.167969 -33.863281 C 24.152344 -33.808594 24.140625 -33.769531 24.140625 -33.75 Z M 24.140625 -39.53125 "/></g></g><g style="fill:#b21a22;fill-opacity:1;"><g transform="translate(100.406992, 169.920602)"><path style="stroke:none" d="M 11.210938 -42.261719 L 17.683594 -42.261719 C 20.917969 -42.261719 23.414062 -41.382812 25.175781 -39.621094 C 26.933594 -37.863281 27.8125 -35.367188 27.8125 -32.132812 L 27.8125 -28.316406 C 27.8125 -27.511719 27.558594 -26.855469 27.050781 -26.347656 C 26.546875 -25.839844 25.890625 -25.585938 25.082031 -25.585938 L 19.246094 -25.585938 C 18.4375 -25.585938 17.78125 -25.839844 17.273438 -26.347656 C 16.765625 -26.855469 16.515625 -27.511719 16.515625 -28.316406 L 16.515625 -30.746094 C 16.515625 -30.933594 16.496094 -31.082031 16.460938 -31.1875 C 16.457031 -31.203125 16.449219 -31.21875 16.445312 -31.226562 C 16.449219 -31.21875 16.457031 -31.210938 16.464844 -31.203125 C 16.472656 -31.195312 16.480469 -31.1875 16.488281 -31.183594 C 16.480469 -31.1875 16.46875 -31.191406 16.449219 -31.199219 C 16.34375 -31.234375 16.199219 -31.25 16.007812 -31.25 L 12.828125 -31.25 C 12.640625 -31.25 12.492188 -31.234375 12.390625 -31.199219 C 12.371094 -31.191406 12.359375 -31.1875 12.351562 -31.183594 C 12.355469 -31.1875 12.363281 -31.195312 12.375 -31.203125 C 12.382812 -31.210938 12.386719 -31.21875 12.390625 -31.226562 C 12.386719 -31.21875 12.382812 -31.203125 12.375 -31.1875 C 12.339844 -31.082031 12.324219 -30.933594 12.324219 -30.746094 L 12.324219 -25.832031 L 10.519531 -25.832031 L 11.070312 -27.550781 L 25.058594 -23.042969 C 25.949219 -22.734375 26.632812 -22.242188 27.109375 -21.570312 C 27.578125 -20.902344 27.8125 -20.105469 27.8125 -19.1875 L 27.8125 -8.320312 C 27.8125 -5.132812 26.9375 -2.648438 25.183594 -0.871094 C 23.421875 0.914062 20.921875 1.804688 17.683594 1.804688 L 11.210938 1.804688 C 8.015625 1.804688 5.527344 0.917969 3.75 -0.859375 C 1.972656 -2.640625 1.082031 -5.125 1.082031 -8.320312 L 1.082031 -12.078125 C 1.082031 -12.886719 1.335938 -13.542969 1.84375 -14.050781 C 2.351562 -14.554688 3.007812 -14.808594 3.8125 -14.808594 L 9.652344 -14.808594 C 10.457031 -14.808594 11.113281 -14.554688 11.621094 -14.050781 C 12.128906 -13.542969 12.382812 -12.886719 12.382812 -12.078125 L 12.382812 -9.652344 C 12.382812 -9.460938 12.398438 -9.316406 12.433594 -9.210938 C 12.441406 -9.191406 12.445312 -9.179688 12.449219 -9.171875 C 12.445312 -9.179688 12.441406 -9.1875 12.429688 -9.195312 C 12.421875 -9.203125 12.414062 -9.210938 12.410156 -9.214844 C 12.414062 -9.210938 12.429688 -9.203125 12.449219 -9.199219 C 12.550781 -9.164062 12.699219 -9.144531 12.886719 -9.144531 L 16.007812 -9.144531 C 16.199219 -9.144531 16.34375 -9.164062 16.449219 -9.199219 C 16.46875 -9.203125 16.480469 -9.210938 16.488281 -9.214844 C 16.480469 -9.210938 16.472656 -9.203125 16.464844 -9.195312 C 16.457031 -9.1875 16.449219 -9.179688 16.445312 -9.171875 C 16.449219 -9.179688 16.457031 -9.191406 16.460938 -9.210938 C 16.496094 -9.316406 16.515625 -9.460938 16.515625 -9.652344 L 16.515625 -15.488281 L 18.320312 -15.488281 L 17.761719 -13.769531 L 3.890625 -18.277344 C 2.996094 -18.578125 2.308594 -19.058594 1.820312 -19.726562 C 1.328125 -20.398438 1.082031 -21.203125 1.082031 -22.132812 L 1.082031 -32.132812 C 1.082031 -35.371094 1.976562 -37.871094 3.757812 -39.632812 C 5.535156 -41.382812 8.019531 -42.261719 11.210938 -42.261719 Z M 11.210938 -38.648438 C 9.007812 -38.648438 7.371094 -38.117188 6.296875 -37.058594 C 5.230469 -36.007812 4.695312 -34.363281 4.695312 -32.132812 L 4.695312 -22.132812 C 4.695312 -21.988281 4.710938 -21.894531 4.738281 -21.855469 C 4.773438 -21.808594 4.863281 -21.761719 5.007812 -21.714844 L 20.125 -16.800781 L 20.125 -9.652344 C 20.125 -8.382812 19.757812 -7.378906 19.019531 -6.640625 C 18.28125 -5.902344 17.277344 -5.535156 16.007812 -5.535156 L 12.886719 -5.535156 C 11.617188 -5.535156 10.613281 -5.902344 9.875 -6.640625 C 9.140625 -7.378906 8.769531 -8.382812 8.769531 -9.652344 L 8.769531 -12.078125 C 8.769531 -12.039062 8.78125 -11.980469 8.804688 -11.910156 C 8.855469 -11.757812 8.945312 -11.617188 9.066406 -11.496094 C 9.191406 -11.371094 9.332031 -11.285156 9.484375 -11.230469 C 9.554688 -11.207031 9.609375 -11.195312 9.652344 -11.195312 L 3.8125 -11.195312 C 3.855469 -11.195312 3.910156 -11.207031 3.980469 -11.230469 C 4.136719 -11.285156 4.273438 -11.371094 4.398438 -11.496094 C 4.523438 -11.617188 4.609375 -11.757812 4.660156 -11.910156 C 4.683594 -11.980469 4.695312 -12.039062 4.695312 -12.078125 L 4.695312 -8.320312 C 4.695312 -6.125 5.230469 -4.488281 6.304688 -3.414062 C 7.378906 -2.34375 9.011719 -1.804688 11.210938 -1.804688 L 17.683594 -1.804688 C 19.917969 -1.804688 21.558594 -2.339844 22.609375 -3.40625 C 23.671875 -4.480469 24.199219 -6.117188 24.199219 -8.320312 L 24.199219 -19.1875 C 24.199219 -19.34375 24.183594 -19.449219 24.152344 -19.492188 C 24.125 -19.53125 24.058594 -19.566406 23.949219 -19.605469 L 8.710938 -24.519531 L 8.710938 -30.746094 C 8.710938 -32.015625 9.082031 -33.019531 9.820312 -33.757812 C 10.558594 -34.496094 11.5625 -34.863281 12.828125 -34.863281 L 16.007812 -34.863281 C 17.277344 -34.863281 18.28125 -34.496094 19.019531 -33.757812 C 19.757812 -33.019531 20.125 -32.015625 20.125 -30.746094 L 20.125 -28.316406 C 20.125 -28.359375 20.113281 -28.414062 20.089844 -28.484375 C 20.039062 -28.640625 19.953125 -28.777344 19.828125 -28.902344 C 19.703125 -29.027344 19.566406 -29.113281 19.410156 -29.164062 C 19.339844 -29.1875 19.285156 -29.199219 19.246094 -29.199219 L 25.082031 -29.199219 C 25.039062 -29.199219 24.984375 -29.1875 24.914062 -29.164062 C 24.761719 -29.113281 24.621094 -29.027344 24.5 -28.902344 C 24.375 -28.777344 24.285156 -28.640625 24.234375 -28.484375 C 24.210938 -28.414062 24.199219 -28.359375 24.199219 -28.316406 L 24.199219 -32.132812 C 24.199219 -34.371094 23.671875 -36.015625 22.621094 -37.066406 C 21.566406 -38.121094 19.921875 -38.648438 17.683594 -38.648438 Z M 11.210938 -38.648438 "/></g></g><g style="fill:#b21a22;fill-opacity:1;"><g transform="translate(129.293972, 169.920602)"><path style="stroke:none" d="M 23.925781 -38.648438 L 2.660156 -38.648438 C 2.699219 -38.648438 2.753906 -38.660156 2.824219 -38.683594 C 2.980469 -38.734375 3.117188 -38.824219 3.242188 -38.945312 C 3.367188 -39.070312 3.453125 -39.210938 3.503906 -39.363281 C 3.527344 -39.433594 3.539062 -39.488281 3.539062 -39.53125 L 3.539062 -33.75 C 3.539062 -33.792969 3.527344 -33.847656 3.503906 -33.917969 C 3.453125 -34.070312 3.367188 -34.210938 3.242188 -34.335938 C 3.117188 -34.457031 2.980469 -34.546875 2.824219 -34.597656 C 2.753906 -34.621094 2.699219 -34.632812 2.660156 -34.632812 L 11.167969 -34.632812 L 11.167969 -0.925781 C 11.167969 -0.964844 11.15625 -1.023438 11.132812 -1.089844 C 11.082031 -1.246094 10.996094 -1.382812 10.871094 -1.507812 C 10.746094 -1.632812 10.609375 -1.71875 10.453125 -1.769531 C 10.382812 -1.792969 10.328125 -1.804688 10.285156 -1.804688 L 16.296875 -1.804688 C 16.257812 -1.804688 16.199219 -1.792969 16.128906 -1.769531 C 15.976562 -1.71875 15.835938 -1.632812 15.714844 -1.507812 C 15.589844 -1.382812 15.503906 -1.246094 15.449219 -1.089844 C 15.425781 -1.023438 15.414062 -0.964844 15.414062 -0.925781 L 15.414062 -34.632812 L 23.925781 -34.632812 C 23.882812 -34.632812 23.828125 -34.621094 23.757812 -34.597656 C 23.605469 -34.546875 23.464844 -34.457031 23.34375 -34.335938 C 23.21875 -34.210938 23.128906 -34.070312 23.078125 -33.917969 C 23.054688 -33.847656 23.042969 -33.792969 23.042969 -33.75 L 23.042969 -39.53125 C 23.042969 -39.488281 23.054688 -39.433594 23.078125 -39.363281 C 23.128906 -39.210938 23.21875 -39.070312 23.34375 -38.945312 C 23.464844 -38.824219 23.605469 -38.734375 23.757812 -38.683594 C 23.828125 -38.660156 23.882812 -38.648438 23.925781 -38.648438 Z M 23.925781 -42.261719 C 24.734375 -42.261719 25.390625 -42.007812 25.898438 -41.5 C 26.402344 -40.992188 26.65625 -40.335938 26.65625 -39.53125 L 26.65625 -33.75 C 26.65625 -32.945312 26.402344 -32.285156 25.898438 -31.78125 C 25.390625 -31.273438 24.734375 -31.019531 23.925781 -31.019531 L 17.222656 -31.019531 L 17.222656 -32.824219 L 19.027344 -32.824219 L 19.027344 -0.925781 C 19.027344 -0.117188 18.773438 0.539062 18.269531 1.046875 C 17.761719 1.554688 17.105469 1.804688 16.296875 1.804688 L 10.285156 1.804688 C 9.480469 1.804688 8.824219 1.554688 8.316406 1.046875 C 7.808594 0.539062 7.554688 -0.117188 7.554688 -0.925781 L 7.554688 -32.824219 L 9.363281 -32.824219 L 9.363281 -31.019531 L 2.660156 -31.019531 C 1.851562 -31.019531 1.195312 -31.273438 0.6875 -31.78125 C 0.179688 -32.285156 -0.0742188 -32.945312 -0.0742188 -33.75 L -0.0742188 -39.53125 C -0.0742188 -40.335938 0.179688 -40.992188 0.6875 -41.5 C 1.195312 -42.007812 1.851562 -42.261719 2.660156 -42.261719 Z M 23.925781 -42.261719 "/></g></g><g style="fill:#b21a22;fill-opacity:1;"><g transform="translate(155.869996, 169.920602)"><path style="stroke:none" d="M 3.8125 -1.804688 L 9.824219 -1.804688 C 9.785156 -1.804688 9.726562 -1.792969 9.65625 -1.769531 C 9.503906 -1.71875 9.363281 -1.632812 9.242188 -1.507812 C 9.117188 -1.382812 9.03125 -1.246094 8.976562 -1.089844 C 8.953125 -1.023438 8.941406 -0.964844 8.941406 -0.925781 L 8.941406 -39.53125 C 8.941406 -39.488281 8.953125 -39.433594 8.976562 -39.363281 C 9.03125 -39.210938 9.117188 -39.070312 9.242188 -38.945312 C 9.363281 -38.824219 9.503906 -38.734375 9.65625 -38.683594 C 9.726562 -38.660156 9.785156 -38.648438 9.824219 -38.648438 L 3.8125 -38.648438 C 3.855469 -38.648438 3.910156 -38.660156 3.980469 -38.683594 C 4.136719 -38.734375 4.273438 -38.824219 4.398438 -38.945312 C 4.523438 -39.070312 4.609375 -39.210938 4.660156 -39.363281 C 4.683594 -39.433594 4.695312 -39.488281 4.695312 -39.53125 L 4.695312 -0.925781 C 4.695312 -0.964844 4.683594 -1.023438 4.660156 -1.089844 C 4.609375 -1.246094 4.523438 -1.382812 4.398438 -1.507812 C 4.273438 -1.632812 4.136719 -1.71875 3.980469 -1.769531 C 3.910156 -1.792969 3.855469 -1.804688 3.8125 -1.804688 Z M 3.8125 1.804688 C 3.007812 1.804688 2.351562 1.554688 1.84375 1.046875 C 1.335938 0.539062 1.082031 -0.117188 1.082031 -0.925781 L 1.082031 -39.53125 C 1.082031 -40.335938 1.335938 -40.992188 1.84375 -41.5 C 2.351562 -42.007812 3.007812 -42.261719 3.8125 -42.261719 L 9.824219 -42.261719 C 10.632812 -42.261719 11.289062 -42.007812 11.796875 -41.5 C 12.300781 -40.992188 12.554688 -40.335938 12.554688 -39.53125 L 12.554688 -0.925781 C 12.554688 -0.117188 12.300781 0.539062 11.796875 1.046875 C 11.289062 1.554688 10.632812 1.804688 9.824219 1.804688 Z M 3.8125 1.804688 "/></g></g><g style="fill:#b21a22;fill-opacity:1;"><g transform="translate(169.504642, 169.920602)"><path style="stroke:none" d="M 21.210938 -42.261719 L 26.640625 -42.261719 C 27.449219 -42.261719 28.105469 -42.007812 28.613281 -41.5 C 29.121094 -40.992188 29.371094 -40.335938 29.371094 -39.53125 L 29.371094 -0.925781 C 29.371094 -0.117188 29.121094 0.539062 28.613281 1.046875 C 28.105469 1.554688 27.449219 1.804688 26.640625 1.804688 L 22.078125 1.804688 C 21.457031 1.804688 20.902344 1.628906 20.414062 1.277344 C 19.984375 0.964844 19.644531 0.542969 19.394531 0.00390625 L 21.035156 -0.75 L 19.414062 0.046875 L 8.550781 -22.03125 L 10.171875 -22.828125 L 11.976562 -22.828125 L 11.976562 -0.925781 C 11.976562 -0.117188 11.722656 0.539062 11.21875 1.046875 C 10.710938 1.554688 10.054688 1.804688 9.246094 1.804688 L 3.8125 1.804688 C 3.007812 1.804688 2.351562 1.554688 1.84375 1.046875 C 1.335938 0.539062 1.082031 -0.117188 1.082031 -0.925781 L 1.082031 -39.53125 C 1.082031 -40.335938 1.335938 -40.992188 1.84375 -41.5 C 2.351562 -42.007812 3.007812 -42.261719 3.8125 -42.261719 L 8.378906 -42.261719 C 9 -42.261719 9.554688 -42.085938 10.042969 -41.730469 C 10.472656 -41.421875 10.8125 -40.996094 11.058594 -40.460938 L 9.421875 -39.703125 L 11.039062 -40.5 L 21.90625 -18.425781 L 20.285156 -17.625 L 18.480469 -17.625 L 18.480469 -39.53125 C 18.480469 -40.335938 18.730469 -40.992188 19.238281 -41.5 C 19.746094 -42.007812 20.402344 -42.261719 21.210938 -42.261719 Z M 21.210938 -38.648438 C 21.25 -38.648438 21.304688 -38.660156 21.375 -38.683594 C 21.53125 -38.734375 21.667969 -38.824219 21.792969 -38.945312 C 21.917969 -39.070312 22.003906 -39.210938 22.054688 -39.363281 C 22.078125 -39.433594 22.089844 -39.488281 22.089844 -39.53125 L 22.089844 -17.625 L 18.664062 -16.828125 L 7.789062 -38.925781 L 7.78125 -38.945312 C 7.796875 -38.910156 7.847656 -38.863281 7.929688 -38.800781 C 8.070312 -38.699219 8.222656 -38.648438 8.378906 -38.648438 L 3.8125 -38.648438 C 3.855469 -38.648438 3.910156 -38.660156 3.980469 -38.683594 C 4.136719 -38.734375 4.273438 -38.824219 4.398438 -38.945312 C 4.523438 -39.070312 4.609375 -39.210938 4.660156 -39.363281 C 4.683594 -39.433594 4.695312 -39.488281 4.695312 -39.53125 L 4.695312 -0.925781 C 4.695312 -0.964844 4.683594 -1.023438 4.660156 -1.089844 C 4.609375 -1.246094 4.523438 -1.382812 4.398438 -1.507812 C 4.273438 -1.632812 4.136719 -1.71875 3.980469 -1.769531 C 3.910156 -1.792969 3.855469 -1.804688 3.8125 -1.804688 L 9.246094 -1.804688 C 9.207031 -1.804688 9.148438 -1.792969 9.082031 -1.769531 C 8.925781 -1.71875 8.785156 -1.632812 8.664062 -1.507812 C 8.539062 -1.382812 8.453125 -1.246094 8.398438 -1.089844 C 8.375 -1.023438 8.367188 -0.964844 8.367188 -0.925781 L 8.367188 -22.828125 L 11.792969 -23.625 L 22.667969 -1.527344 L 22.675781 -1.507812 C 22.660156 -1.542969 22.609375 -1.59375 22.527344 -1.652344 C 22.386719 -1.753906 22.234375 -1.804688 22.078125 -1.804688 L 26.640625 -1.804688 C 26.601562 -1.804688 26.546875 -1.792969 26.476562 -1.769531 C 26.320312 -1.71875 26.183594 -1.632812 26.058594 -1.507812 C 25.933594 -1.382812 25.847656 -1.246094 25.796875 -1.089844 C 25.773438 -1.023438 25.761719 -0.964844 25.761719 -0.925781 L 25.761719 -39.53125 C 25.761719 -39.488281 25.773438 -39.433594 25.796875 -39.363281 C 25.847656 -39.210938 25.933594 -39.070312 26.058594 -38.945312 C 26.183594 -38.824219 26.320312 -38.734375 26.476562 -38.683594 C 26.546875 -38.660156 26.601562 -38.648438 26.640625 -38.648438 Z M 21.210938 -38.648438 "/></g></g><g style="fill:#b21a22;fill-opacity:1;"><g transform="translate(199.951528, 169.920602)"><path style="stroke:none" d="M 30.167969 1.804688 L 24.5625 1.804688 C 23.859375 1.804688 23.261719 1.589844 22.765625 1.15625 C 22.3125 0.757812 22.011719 0.230469 21.871094 -0.429688 L 23.636719 -0.808594 L 21.886719 -0.363281 L 20.035156 -7.644531 L 21.789062 -8.089844 L 21.789062 -6.285156 L 10.921875 -6.285156 L 10.921875 -8.089844 L 12.675781 -7.660156 L 10.886719 -0.378906 L 9.132812 -0.808594 L 10.898438 -0.429688 C 10.753906 0.230469 10.457031 0.757812 10.003906 1.15625 C 9.507812 1.589844 8.910156 1.804688 8.207031 1.804688 L 2.542969 1.804688 C 1.601562 1.804688 0.886719 1.488281 0.398438 0.851562 C -0.0976562 0.203125 -0.210938 -0.578125 0.0585938 -1.492188 L 1.792969 -0.984375 L 0.0390625 -1.417969 L 9.632812 -40.082031 L 11.386719 -39.644531 L 9.617188 -40.023438 C 9.765625 -40.703125 10.082031 -41.246094 10.570312 -41.648438 C 11.066406 -42.054688 11.664062 -42.261719 12.367188 -42.261719 L 20.402344 -42.261719 C 21.101562 -42.261719 21.703125 -42.054688 22.199219 -41.648438 C 22.6875 -41.246094 23.003906 -40.703125 23.148438 -40.023438 L 21.382812 -39.644531 L 23.136719 -40.082031 L 32.730469 -1.417969 L 30.976562 -0.984375 L 32.710938 -1.492188 C 32.984375 -0.550781 32.855469 0.246094 32.3125 0.902344 C 31.816406 1.503906 31.101562 1.804688 30.167969 1.804688 Z M 30.167969 -1.804688 C 30.175781 -1.804688 30.183594 -1.804688 30.191406 -1.808594 C 30.1875 -1.804688 30.1875 -1.804688 30.183594 -1.804688 C 30.148438 -1.800781 30.113281 -1.792969 30.070312 -1.777344 C 29.859375 -1.710938 29.679688 -1.582031 29.523438 -1.394531 C 29.351562 -1.183594 29.253906 -0.949219 29.234375 -0.695312 C 29.226562 -0.59375 29.230469 -0.523438 29.242188 -0.472656 L 29.234375 -0.511719 L 19.625 -39.238281 L 19.617188 -39.265625 C 19.648438 -39.125 19.742188 -38.988281 19.902344 -38.859375 C 20.074219 -38.71875 20.238281 -38.648438 20.402344 -38.648438 L 12.367188 -38.648438 C 12.53125 -38.648438 12.695312 -38.71875 12.867188 -38.859375 C 13.027344 -38.988281 13.121094 -39.125 13.152344 -39.265625 L 13.144531 -39.238281 L 3.535156 -0.511719 L 3.523438 -0.472656 C 3.535156 -0.511719 3.539062 -0.570312 3.53125 -0.660156 C 3.519531 -0.902344 3.429688 -1.132812 3.269531 -1.34375 C 3.113281 -1.546875 2.921875 -1.691406 2.699219 -1.769531 C 2.625 -1.792969 2.574219 -1.804688 2.542969 -1.804688 L 8.207031 -1.804688 C 8.003906 -1.804688 7.808594 -1.722656 7.625 -1.5625 C 7.476562 -1.433594 7.390625 -1.308594 7.363281 -1.1875 L 7.371094 -1.214844 L 9.507812 -9.898438 L 23.191406 -9.898438 L 25.394531 -1.222656 L 25.402344 -1.1875 C 25.378906 -1.308594 25.289062 -1.433594 25.144531 -1.5625 C 24.957031 -1.722656 24.765625 -1.804688 24.5625 -1.804688 Z M 18.238281 -14.386719 L 14.59375 -30.105469 L 16.355469 -30.515625 L 18.113281 -30.105469 L 14.472656 -14.386719 L 12.714844 -14.792969 L 12.714844 -16.601562 L 19.996094 -16.601562 L 19.996094 -14.792969 Z M 22.269531 -12.988281 L 10.441406 -12.988281 L 14.59375 -30.921875 L 18.113281 -30.921875 L 21.753906 -15.203125 Z M 22.269531 -12.988281 "/></g></g><g style="fill:#b21a22;fill-opacity:1;"><g transform="translate(232.709369, 169.920602)"><path style="stroke:none" d="M 23.925781 -38.648438 L 2.660156 -38.648438 C 2.699219 -38.648438 2.753906 -38.660156 2.824219 -38.683594 C 2.980469 -38.734375 3.117188 -38.824219 3.242188 -38.945312 C 3.367188 -39.070312 3.453125 -39.210938 3.503906 -39.363281 C 3.527344 -39.433594 3.539062 -39.488281 3.539062 -39.53125 L 3.539062 -33.75 C 3.539062 -33.792969 3.527344 -33.847656 3.503906 -33.917969 C 3.453125 -34.070312 3.367188 -34.210938 3.242188 -34.335938 C 3.117188 -34.457031 2.980469 -34.546875 2.824219 -34.597656 C 2.753906 -34.621094 2.699219 -34.632812 2.660156 -34.632812 L 11.167969 -34.632812 L 11.167969 -0.925781 C 11.167969 -0.964844 11.15625 -1.023438 11.132812 -1.089844 C 11.082031 -1.246094 10.996094 -1.382812 10.871094 -1.507812 C 10.746094 -1.632812 10.609375 -1.71875 10.453125 -1.769531 C 10.382812 -1.792969 10.328125 -1.804688 10.285156 -1.804688 L 16.296875 -1.804688 C 16.257812 -1.804688 16.199219 -1.792969 16.128906 -1.769531 C 15.976562 -1.71875 15.835938 -1.632812 15.714844 -1.507812 C 15.589844 -1.382812 15.503906 -1.246094 15.449219 -1.089844 C 15.425781 -1.023438 15.414062 -0.964844 15.414062 -0.925781 L 15.414062 -34.632812 L 23.925781 -34.632812 C 23.882812 -34.632812 23.828125 -34.621094 23.757812 -34.597656 C 23.605469 -34.546875 23.464844 -34.457031 23.34375 -34.335938 C 23.21875 -34.210938 23.128906 -34.070312 23.078125 -33.917969 C 23.054688 -33.847656 23.042969 -33.792969 23.042969 -33.75 L 23.042969 -39.53125 C 23.042969 -39.488281 23.054688 -39.433594 23.078125 -39.363281 C 23.128906 -39.210938 23.21875 -39.070312 23.34375 -38.945312 C 23.464844 -38.824219 23.605469 -38.734375 23.757812 -38.683594 C 23.828125 -38.660156 23.882812 -38.648438 23.925781 -38.648438 Z M 23.925781 -42.261719 C 24.734375 -42.261719 25.390625 -42.007812 25.898438 -41.5 C 26.402344 -40.992188 26.65625 -40.335938 26.65625 -39.53125 L 26.65625 -33.75 C 26.65625 -32.945312 26.402344 -32.285156 25.898438 -31.78125 C 25.390625 -31.273438 24.734375 -31.019531 23.925781 -31.019531 L 17.222656 -31.019531 L 17.222656 -32.824219 L 19.027344 -32.824219 L 19.027344 -0.925781 C 19.027344 -0.117188 18.773438 0.539062 18.269531 1.046875 C 17.761719 1.554688 17.105469 1.804688 16.296875 1.804688 L 10.285156 1.804688 C 9.480469 1.804688 8.824219 1.554688 8.316406 1.046875 C 7.808594 0.539062 7.554688 -0.117188 7.554688 -0.925781 L 7.554688 -32.824219 L 9.363281 -32.824219 L 9.363281 -31.019531 L 2.660156 -31.019531 C 1.851562 -31.019531 1.195312 -31.273438 0.6875 -31.78125 C 0.179688 -32.285156 -0.0742188 -32.945312 -0.0742188 -33.75 L -0.0742188 -39.53125 C -0.0742188 -40.335938 0.179688 -40.992188 0.6875 -41.5 C 1.195312 -42.007812 1.851562 -42.261719 2.660156 -42.261719 Z M 23.925781 -42.261719 "/></g></g><g style="fill:#b21a22;fill-opacity:1;"><g transform="translate(259.285394, 169.920602)"><path style="stroke:none" d="M 3.8125 -1.804688 L 9.824219 -1.804688 C 9.785156 -1.804688 9.726562 -1.792969 9.65625 -1.769531 C 9.503906 -1.71875 9.363281 -1.632812 9.242188 -1.507812 C 9.117188 -1.382812 9.03125 -1.246094 8.976562 -1.089844 C 8.953125 -1.023438 8.941406 -0.964844 8.941406 -0.925781 L 8.941406 -39.53125 C 8.941406 -39.488281 8.953125 -39.433594 8.976562 -39.363281 C 9.03125 -39.210938 9.117188 -39.070312 9.242188 -38.945312 C 9.363281 -38.824219 9.503906 -38.734375 9.65625 -38.683594 C 9.726562 -38.660156 9.785156 -38.648438 9.824219 -38.648438 L 3.8125 -38.648438 C 3.855469 -38.648438 3.910156 -38.660156 3.980469 -38.683594 C 4.136719 -38.734375 4.273438 -38.824219 4.398438 -38.945312 C 4.523438 -39.070312 4.609375 -39.210938 4.660156 -39.363281 C 4.683594 -39.433594 4.695312 -39.488281 4.695312 -39.53125 L 4.695312 -0.925781 C 4.695312 -0.964844 4.683594 -1.023438 4.660156 -1.089844 C 4.609375 -1.246094 4.523438 -1.382812 4.398438 -1.507812 C 4.273438 -1.632812 4.136719 -1.71875 3.980469 -1.769531 C 3.910156 -1.792969 3.855469 -1.804688 3.8125 -1.804688 Z M 3.8125 1.804688 C 3.007812 1.804688 2.351562 1.554688 1.84375 1.046875 C 1.335938 0.539062 1.082031 -0.117188 1.082031 -0.925781 L 1.082031 -39.53125 C 1.082031 -40.335938 1.335938 -40.992188 1.84375 -41.5 C 2.351562 -42.007812 3.007812 -42.261719 3.8125 -42.261719 L 9.824219 -42.261719 C 10.632812 -42.261719 11.289062 -42.007812 11.796875 -41.5 C 12.300781 -40.992188 12.554688 -40.335938 12.554688 -39.53125 L 12.554688 -0.925781 C 12.554688 -0.117188 12.300781 0.539062 11.796875 1.046875 C 11.289062 1.554688 10.632812 1.804688 9.824219 1.804688 Z M 3.8125 1.804688 "/></g></g><g style="fill:#b21a22;fill-opacity:1;"><g transform="translate(272.920039, 169.920602)"><path style="stroke:none" d="M 1.082031 -8.320312 L 1.082031 -32.132812 C 1.082031 -35.371094 1.976562 -37.871094 3.757812 -39.632812 C 5.535156 -41.382812 8.019531 -42.261719 11.210938 -42.261719 L 17.683594 -42.261719 C 20.917969 -42.261719 23.414062 -41.382812 25.175781 -39.621094 C 26.933594 -37.863281 27.8125 -35.367188 27.8125 -32.132812 L 27.8125 -8.320312 C 27.8125 -5.132812 26.9375 -2.648438 25.183594 -0.871094 C 23.421875 0.914062 20.921875 1.804688 17.683594 1.804688 L 11.210938 1.804688 C 8.015625 1.804688 5.527344 0.917969 3.75 -0.859375 C 1.972656 -2.640625 1.082031 -5.125 1.082031 -8.320312 Z M 4.695312 -8.320312 C 4.695312 -6.125 5.230469 -4.488281 6.304688 -3.414062 C 7.378906 -2.34375 9.011719 -1.804688 11.210938 -1.804688 L 17.683594 -1.804688 C 19.917969 -1.804688 21.558594 -2.339844 22.609375 -3.40625 C 23.671875 -4.480469 24.199219 -6.117188 24.199219 -8.320312 L 24.199219 -32.132812 C 24.199219 -34.371094 23.671875 -36.015625 22.621094 -37.066406 C 21.566406 -38.121094 19.921875 -38.648438 17.683594 -38.648438 L 11.210938 -38.648438 C 9.007812 -38.648438 7.371094 -38.117188 6.296875 -37.058594 C 5.230469 -36.007812 4.695312 -34.363281 4.695312 -32.132812 Z M 12.714844 -9.261719 L 16.414062 -9.261719 C 16.601562 -9.261719 16.75 -9.277344 16.851562 -9.3125 C 16.871094 -9.320312 16.886719 -9.324219 16.890625 -9.328125 C 16.886719 -9.324219 16.878906 -9.320312 16.871094 -9.308594 C 16.859375 -9.300781 16.855469 -9.292969 16.851562 -9.289062 C 16.855469 -9.292969 16.859375 -9.308594 16.867188 -9.328125 C 16.902344 -9.429688 16.917969 -9.578125 16.917969 -9.765625 L 16.917969 -30.6875 C 16.917969 -30.878906 16.902344 -31.023438 16.867188 -31.128906 C 16.859375 -31.148438 16.855469 -31.160156 16.851562 -31.167969 C 16.855469 -31.160156 16.859375 -31.152344 16.871094 -31.144531 C 16.878906 -31.136719 16.886719 -31.128906 16.890625 -31.125 C 16.886719 -31.128906 16.871094 -31.136719 16.851562 -31.140625 C 16.75 -31.175781 16.601562 -31.191406 16.414062 -31.191406 L 12.714844 -31.191406 C 12.523438 -31.191406 12.378906 -31.175781 12.273438 -31.140625 C 12.253906 -31.136719 12.242188 -31.128906 12.234375 -31.125 C 12.242188 -31.128906 12.25 -31.136719 12.257812 -31.144531 C 12.265625 -31.152344 12.273438 -31.160156 12.277344 -31.167969 C 12.273438 -31.160156 12.265625 -31.148438 12.261719 -31.128906 C 12.226562 -31.023438 12.207031 -30.878906 12.207031 -30.6875 L 12.207031 -9.765625 C 12.207031 -9.578125 12.226562 -9.429688 12.261719 -9.328125 C 12.265625 -9.308594 12.273438 -9.292969 12.277344 -9.289062 C 12.273438 -9.292969 12.265625 -9.300781 12.257812 -9.308594 C 12.25 -9.320312 12.242188 -9.324219 12.234375 -9.328125 C 12.242188 -9.324219 12.253906 -9.320312 12.273438 -9.3125 C 12.378906 -9.277344 12.523438 -9.261719 12.714844 -9.261719 Z M 12.714844 -5.648438 C 11.445312 -5.648438 10.441406 -6.019531 9.703125 -6.757812 C 8.964844 -7.492188 8.597656 -8.496094 8.597656 -9.765625 L 8.597656 -30.6875 C 8.597656 -31.957031 8.964844 -32.960938 9.703125 -33.699219 C 10.441406 -34.4375 11.445312 -34.804688 12.714844 -34.804688 L 16.414062 -34.804688 C 17.683594 -34.804688 18.6875 -34.4375 19.425781 -33.699219 C 20.160156 -32.960938 20.53125 -31.957031 20.53125 -30.6875 L 20.53125 -9.765625 C 20.53125 -8.496094 20.160156 -7.492188 19.425781 -6.757812 C 18.6875 -6.019531 17.683594 -5.648438 16.414062 -5.648438 Z M 12.714844 -5.648438 "/></g></g><g style="fill:#b21a22;fill-opacity:1;"><g transform="translate(301.807019, 169.920602)"><path style="stroke:none" d="M 21.210938 -42.261719 L 26.640625 -42.261719 C 27.449219 -42.261719 28.105469 -42.007812 28.613281 -41.5 C 29.121094 -40.992188 29.371094 -40.335938 29.371094 -39.53125 L 29.371094 -0.925781 C 29.371094 -0.117188 29.121094 0.539062 28.613281 1.046875 C 28.105469 1.554688 27.449219 1.804688 26.640625 1.804688 L 22.078125 1.804688 C 21.457031 1.804688 20.902344 1.628906 20.414062 1.277344 C 19.984375 0.964844 19.644531 0.542969 19.394531 0.00390625 L 21.035156 -0.75 L 19.414062 0.046875 L 8.550781 -22.03125 L 10.171875 -22.828125 L 11.976562 -22.828125 L 11.976562 -0.925781 C 11.976562 -0.117188 11.722656 0.539062 11.21875 1.046875 C 10.710938 1.554688 10.054688 1.804688 9.246094 1.804688 L 3.8125 1.804688 C 3.007812 1.804688 2.351562 1.554688 1.84375 1.046875 C 1.335938 0.539062 1.082031 -0.117188 1.082031 -0.925781 L 1.082031 -39.53125 C 1.082031 -40.335938 1.335938 -40.992188 1.84375 -41.5 C 2.351562 -42.007812 3.007812 -42.261719 3.8125 -42.261719 L 8.378906 -42.261719 C 9 -42.261719 9.554688 -42.085938 10.042969 -41.730469 C 10.472656 -41.421875 10.8125 -40.996094 11.058594 -40.460938 L 9.421875 -39.703125 L 11.039062 -40.5 L 21.90625 -18.425781 L 20.285156 -17.625 L 18.480469 -17.625 L 18.480469 -39.53125 C 18.480469 -40.335938 18.730469 -40.992188 19.238281 -41.5 C 19.746094 -42.007812 20.402344 -42.261719 21.210938 -42.261719 Z M 21.210938 -38.648438 C 21.25 -38.648438 21.304688 -38.660156 21.375 -38.683594 C 21.53125 -38.734375 21.667969 -38.824219 21.792969 -38.945312 C 21.917969 -39.070312 22.003906 -39.210938 22.054688 -39.363281 C 22.078125 -39.433594 22.089844 -39.488281 22.089844 -39.53125 L 22.089844 -17.625 L 18.664062 -16.828125 L 7.789062 -38.925781 L 7.78125 -38.945312 C 7.796875 -38.910156 7.847656 -38.863281 7.929688 -38.800781 C 8.070312 -38.699219 8.222656 -38.648438 8.378906 -38.648438 L 3.8125 -38.648438 C 3.855469 -38.648438 3.910156 -38.660156 3.980469 -38.683594 C 4.136719 -38.734375 4.273438 -38.824219 4.398438 -38.945312 C 4.523438 -39.070312 4.609375 -39.210938 4.660156 -39.363281 C 4.683594 -39.433594 4.695312 -39.488281 4.695312 -39.53125 L 4.695312 -0.925781 C 4.695312 -0.964844 4.683594 -1.023438 4.660156 -1.089844 C 4.609375 -1.246094 4.523438 -1.382812 4.398438 -1.507812 C 4.273438 -1.632812 4.136719 -1.71875 3.980469 -1.769531 C 3.910156 -1.792969 3.855469 -1.804688 3.8125 -1.804688 L 9.246094 -1.804688 C 9.207031 -1.804688 9.148438 -1.792969 9.082031 -1.769531 C 8.925781 -1.71875 8.785156 -1.632812 8.664062 -1.507812 C 8.539062 -1.382812 8.453125 -1.246094 8.398438 -1.089844 C 8.375 -1.023438 8.367188 -0.964844 8.367188 -0.925781 L 8.367188 -22.828125 L 11.792969 -23.625 L 22.667969 -1.527344 L 22.675781 -1.507812 C 22.660156 -1.542969 22.609375 -1.59375 22.527344 -1.652344 C 22.386719 -1.753906 22.234375 -1.804688 22.078125 -1.804688 L 26.640625 -1.804688 C 26.601562 -1.804688 26.546875 -1.792969 26.476562 -1.769531 C 26.320312 -1.71875 26.183594 -1.632812 26.058594 -1.507812 C 25.933594 -1.382812 25.847656 -1.246094 25.796875 -1.089844 C 25.773438 -1.023438 25.761719 -0.964844 25.761719 -0.925781 L 25.761719 -39.53125 C 25.761719 -39.488281 25.773438 -39.433594 25.796875 -39.363281 C 25.847656 -39.210938 25.933594 -39.070312 26.058594 -38.945312 C 26.183594 -38.824219 26.320312 -38.734375 26.476562 -38.683594 C 26.546875 -38.660156 26.601562 -38.648438 26.640625 -38.648438 Z M 21.210938 -38.648438 "/></g></g><g style="fill:#b21a22;fill-opacity:1;"><g transform="translate(82.267322, 250.492782)"><path style="stroke:none" d="M -1.804688 7.746094 L -1.804688 2.425781 C -1.804688 1.542969 -1.535156 0.828125 -0.988281 0.285156 C -0.441406 -0.261719 0.273438 -0.535156 1.15625 -0.535156 L 36.003906 -0.535156 C 36.886719 -0.535156 37.601562 -0.261719 38.148438 0.285156 C 38.695312 0.828125 38.964844 1.542969 38.964844 2.425781 L 38.964844 7.746094 C 38.964844 8.628906 38.695312 9.34375 38.148438 9.886719 C 37.601562 10.433594 36.886719 10.707031 36.003906 10.707031 L 1.15625 10.707031 C 0.273438 10.707031 -0.441406 10.433594 -0.988281 9.886719 C -1.535156 9.34375 -1.804688 8.628906 -1.804688 7.746094 Z M 1.804688 7.746094 C 1.804688 7.753906 1.804688 7.757812 1.808594 7.765625 C 1.808594 7.765625 1.804688 7.761719 1.804688 7.757812 C 1.800781 7.738281 1.796875 7.710938 1.785156 7.679688 C 1.742188 7.554688 1.671875 7.4375 1.566406 7.332031 C 1.460938 7.230469 1.347656 7.15625 1.222656 7.113281 C 1.191406 7.105469 1.164062 7.097656 1.140625 7.09375 C 1.136719 7.09375 1.136719 7.09375 1.136719 7.09375 C 1.140625 7.09375 1.148438 7.09375 1.15625 7.09375 L 36.003906 7.09375 C 36.011719 7.09375 36.019531 7.09375 36.023438 7.09375 C 36.023438 7.09375 36.023438 7.09375 36.019531 7.09375 C 35.996094 7.097656 35.96875 7.105469 35.9375 7.113281 C 35.8125 7.15625 35.699219 7.230469 35.59375 7.332031 C 35.488281 7.4375 35.417969 7.554688 35.375 7.679688 C 35.363281 7.710938 35.359375 7.738281 35.355469 7.757812 C 35.355469 7.761719 35.355469 7.765625 35.355469 7.765625 C 35.355469 7.757812 35.355469 7.753906 35.355469 7.746094 L 35.355469 2.425781 C 35.355469 2.417969 35.355469 2.414062 35.355469 2.40625 C 35.355469 2.40625 35.355469 2.410156 35.355469 2.410156 C 35.359375 2.433594 35.363281 2.460938 35.375 2.492188 C 35.417969 2.617188 35.488281 2.734375 35.59375 2.835938 C 35.699219 2.941406 35.8125 3.015625 35.9375 3.058594 C 35.96875 3.066406 35.996094 3.074219 36.019531 3.078125 C 36.023438 3.078125 36.023438 3.078125 36.023438 3.078125 C 36.019531 3.078125 36.011719 3.078125 36.003906 3.078125 L 1.15625 3.078125 C 1.148438 3.078125 1.140625 3.078125 1.136719 3.078125 C 1.136719 3.078125 1.136719 3.078125 1.140625 3.078125 C 1.164062 3.074219 1.191406 3.066406 1.222656 3.058594 C 1.347656 3.015625 1.460938 2.941406 1.566406 2.835938 C 1.671875 2.734375 1.742188 2.617188 1.785156 2.492188 C 1.796875 2.460938 1.800781 2.433594 1.804688 2.410156 C 1.804688 2.410156 1.808594 2.40625 1.808594 2.40625 C 1.804688 2.414062 1.804688 2.417969 1.804688 2.425781 Z M 1.804688 7.746094 "/></g></g><g style="fill:#b21a22;fill-opacity:1;"><g transform="translate(119.415985, 250.492782)"><path style="stroke:none" d="M 27.753906 -39.53125 L 27.753906 -33.75 C 27.753906 -32.945312 27.515625 -32.289062 27.03125 -31.777344 C 26.523438 -31.234375 25.851562 -30.960938 25.023438 -30.960938 L 10.75 -30.960938 L 10.75 -32.769531 L 12.554688 -32.769531 L 12.554688 -23.867188 L 10.75 -23.867188 L 10.75 -25.675781 L 21.613281 -25.675781 C 22.441406 -25.675781 23.113281 -25.402344 23.621094 -24.859375 C 24.105469 -24.347656 24.34375 -23.691406 24.34375 -22.886719 L 24.34375 -17.164062 C 24.34375 -16.359375 24.105469 -15.699219 23.621094 -15.191406 C 23.113281 -14.648438 22.441406 -14.375 21.613281 -14.375 L 10.75 -14.375 L 10.75 -16.183594 L 12.554688 -16.183594 L 12.554688 -7.628906 L 10.75 -7.628906 L 10.75 -9.433594 L 25.023438 -9.433594 C 25.832031 -9.433594 26.488281 -9.179688 26.996094 -8.675781 C 27.5 -8.167969 27.753906 -7.511719 27.753906 -6.703125 L 27.753906 -0.925781 C 27.753906 -0.117188 27.5 0.539062 26.996094 1.046875 C 26.488281 1.554688 25.832031 1.804688 25.023438 1.804688 L 3.757812 1.804688 C 2.945312 1.804688 2.289062 1.539062 1.789062 1.003906 C 1.320312 0.503906 1.082031 -0.140625 1.082031 -0.925781 L 1.082031 -39.53125 C 1.082031 -40.3125 1.320312 -40.957031 1.789062 -41.457031 C 2.289062 -41.992188 2.945312 -42.261719 3.757812 -42.261719 L 25.023438 -42.261719 C 25.832031 -42.261719 26.488281 -42.007812 26.996094 -41.5 C 27.5 -40.992188 27.753906 -40.335938 27.753906 -39.53125 Z M 24.140625 -39.53125 C 24.140625 -39.488281 24.152344 -39.433594 24.175781 -39.363281 C 24.230469 -39.210938 24.316406 -39.070312 24.441406 -38.945312 C 24.5625 -38.824219 24.703125 -38.734375 24.859375 -38.683594 C 24.925781 -38.660156 24.984375 -38.648438 25.023438 -38.648438 L 3.757812 -38.648438 C 3.988281 -38.648438 4.210938 -38.761719 4.425781 -38.988281 C 4.539062 -39.113281 4.621094 -39.25 4.667969 -39.394531 C 4.6875 -39.457031 4.695312 -39.5 4.695312 -39.53125 L 4.695312 -0.925781 C 4.695312 -0.953125 4.6875 -1 4.667969 -1.058594 C 4.621094 -1.207031 4.539062 -1.34375 4.425781 -1.464844 C 4.210938 -1.691406 3.988281 -1.804688 3.757812 -1.804688 L 25.023438 -1.804688 C 24.984375 -1.804688 24.925781 -1.792969 24.859375 -1.769531 C 24.703125 -1.71875 24.5625 -1.632812 24.441406 -1.507812 C 24.316406 -1.382812 24.230469 -1.246094 24.175781 -1.089844 C 24.152344 -1.023438 24.140625 -0.964844 24.140625 -0.925781 L 24.140625 -6.703125 C 24.140625 -6.664062 24.152344 -6.605469 24.175781 -6.539062 C 24.230469 -6.382812 24.316406 -6.246094 24.441406 -6.121094 C 24.5625 -5.996094 24.703125 -5.910156 24.859375 -5.855469 C 24.925781 -5.835938 24.984375 -5.824219 25.023438 -5.824219 L 8.941406 -5.824219 L 8.941406 -17.988281 L 21.613281 -17.988281 C 21.5625 -17.988281 21.496094 -17.972656 21.414062 -17.945312 C 21.257812 -17.890625 21.117188 -17.796875 20.992188 -17.664062 C 20.878906 -17.546875 20.800781 -17.414062 20.757812 -17.273438 C 20.742188 -17.222656 20.734375 -17.183594 20.734375 -17.164062 L 20.734375 -22.886719 C 20.734375 -22.863281 20.742188 -22.828125 20.757812 -22.773438 C 20.800781 -22.632812 20.878906 -22.503906 20.992188 -22.382812 C 21.117188 -22.253906 21.257812 -22.160156 21.414062 -22.105469 C 21.496094 -22.074219 21.5625 -22.0625 21.613281 -22.0625 L 8.941406 -22.0625 L 8.941406 -34.574219 L 25.023438 -34.574219 C 24.972656 -34.574219 24.90625 -34.558594 24.824219 -34.53125 C 24.667969 -34.476562 24.523438 -34.382812 24.402344 -34.25 C 24.289062 -34.132812 24.210938 -34.003906 24.167969 -33.863281 C 24.152344 -33.808594 24.140625 -33.769531 24.140625 -33.75 Z M 24.140625 -39.53125 "/></g></g><g style="fill:#b21a22;fill-opacity:1;"><g transform="translate(148.245181, 250.492782)"><path style="stroke:none" d="M 27.8125 -32.132812 L 27.8125 -20.515625 C 27.8125 -16.496094 26.449219 -13.636719 23.726562 -11.933594 L 22.769531 -13.464844 L 24.527344 -13.890625 L 27.53125 -1.464844 L 25.773438 -1.039062 L 27.515625 -1.523438 C 27.773438 -0.59375 27.648438 0.199219 27.144531 0.847656 C 26.648438 1.488281 25.921875 1.804688 24.964844 1.804688 L 19.300781 1.804688 C 18.601562 1.804688 18 1.601562 17.503906 1.191406 C 17.015625 0.789062 16.699219 0.25 16.554688 -0.429688 L 18.320312 -0.808594 L 16.566406 -0.382812 L 13.792969 -11.765625 L 15.546875 -12.195312 L 15.546875 -10.386719 L 10.402344 -10.386719 L 10.402344 -12.195312 L 12.207031 -12.195312 L 12.207031 -0.925781 C 12.207031 -0.117188 11.957031 0.539062 11.449219 1.046875 C 10.941406 1.554688 10.285156 1.804688 9.476562 1.804688 L 3.8125 1.804688 C 3.007812 1.804688 2.351562 1.554688 1.84375 1.046875 C 1.335938 0.539062 1.082031 -0.117188 1.082031 -0.925781 L 1.082031 -39.53125 C 1.082031 -40.335938 1.335938 -40.992188 1.84375 -41.5 C 2.351562 -42.007812 3.007812 -42.261719 3.8125 -42.261719 L 17.683594 -42.261719 C 20.917969 -42.261719 23.414062 -41.382812 25.175781 -39.621094 C 26.933594 -37.863281 27.8125 -35.367188 27.8125 -32.132812 Z M 24.199219 -32.132812 C 24.199219 -34.371094 23.671875 -36.015625 22.621094 -37.066406 C 21.566406 -38.121094 19.921875 -38.648438 17.683594 -38.648438 L 3.8125 -38.648438 C 3.855469 -38.648438 3.910156 -38.660156 3.980469 -38.683594 C 4.136719 -38.734375 4.273438 -38.824219 4.398438 -38.945312 C 4.523438 -39.070312 4.609375 -39.210938 4.660156 -39.363281 C 4.683594 -39.433594 4.695312 -39.488281 4.695312 -39.53125 L 4.695312 -0.925781 C 4.695312 -0.964844 4.683594 -1.023438 4.660156 -1.089844 C 4.609375 -1.246094 4.523438 -1.382812 4.398438 -1.507812 C 4.273438 -1.632812 4.136719 -1.71875 3.980469 -1.769531 C 3.910156 -1.792969 3.855469 -1.804688 3.8125 -1.804688 L 9.476562 -1.804688 C 9.4375 -1.804688 9.382812 -1.792969 9.3125 -1.769531 C 9.15625 -1.71875 9.019531 -1.632812 8.894531 -1.507812 C 8.769531 -1.382812 8.683594 -1.246094 8.632812 -1.089844 C 8.609375 -1.023438 8.597656 -0.964844 8.597656 -0.925781 L 8.597656 -14 L 16.964844 -14 L 20.082031 -1.210938 L 20.085938 -1.1875 C 20.054688 -1.328125 19.960938 -1.464844 19.800781 -1.597656 C 19.632812 -1.734375 19.464844 -1.804688 19.300781 -1.804688 L 24.96875 -1.804688 C 24.929688 -1.800781 24.886719 -1.789062 24.835938 -1.773438 C 24.625 -1.699219 24.445312 -1.5625 24.292969 -1.367188 C 24.136719 -1.167969 24.050781 -0.953125 24.03125 -0.71875 C 24.027344 -0.640625 24.027344 -0.585938 24.035156 -0.558594 L 24.027344 -0.585938 L 20.707031 -14.308594 L 21.8125 -14.996094 C 23.40625 -15.992188 24.199219 -17.832031 24.199219 -20.515625 Z M 10.402344 -21.457031 L 16.183594 -21.457031 C 16.371094 -21.457031 16.519531 -21.472656 16.621094 -21.507812 C 16.640625 -21.511719 16.652344 -21.519531 16.660156 -21.523438 C 16.65625 -21.519531 16.648438 -21.511719 16.636719 -21.503906 C 16.628906 -21.496094 16.625 -21.488281 16.621094 -21.480469 C 16.625 -21.488281 16.628906 -21.5 16.636719 -21.519531 C 16.671875 -21.625 16.6875 -21.769531 16.6875 -21.960938 L 16.6875 -30.6875 C 16.6875 -30.878906 16.671875 -31.023438 16.636719 -31.128906 C 16.628906 -31.148438 16.625 -31.160156 16.621094 -31.167969 C 16.625 -31.160156 16.628906 -31.152344 16.636719 -31.144531 C 16.648438 -31.136719 16.65625 -31.128906 16.660156 -31.125 C 16.652344 -31.128906 16.640625 -31.136719 16.621094 -31.140625 C 16.519531 -31.175781 16.371094 -31.191406 16.183594 -31.191406 L 10.402344 -31.191406 L 10.402344 -33 L 12.207031 -33 L 12.207031 -19.648438 L 10.402344 -19.648438 Z M 8.597656 -17.84375 L 8.597656 -34.804688 L 16.183594 -34.804688 C 17.449219 -34.804688 18.453125 -34.4375 19.191406 -33.699219 C 19.929688 -32.960938 20.300781 -31.957031 20.300781 -30.6875 L 20.300781 -21.960938 C 20.300781 -20.691406 19.929688 -19.6875 19.191406 -18.949219 C 18.453125 -18.210938 17.449219 -17.84375 16.183594 -17.84375 Z M 8.597656 -17.84375 "/></g></g><g style="fill:#b21a22;fill-opacity:1;"><g transform="translate(177.132161, 250.492782)"><path style="stroke:none" d="M 27.8125 -32.132812 L 27.8125 -20.515625 C 27.8125 -16.496094 26.449219 -13.636719 23.726562 -11.933594 L 22.769531 -13.464844 L 24.527344 -13.890625 L 27.53125 -1.464844 L 25.773438 -1.039062 L 27.515625 -1.523438 C 27.773438 -0.59375 27.648438 0.199219 27.144531 0.847656 C 26.648438 1.488281 25.921875 1.804688 24.964844 1.804688 L 19.300781 1.804688 C 18.601562 1.804688 18 1.601562 17.503906 1.191406 C 17.015625 0.789062 16.699219 0.25 16.554688 -0.429688 L 18.320312 -0.808594 L 16.566406 -0.382812 L 13.792969 -11.765625 L 15.546875 -12.195312 L 15.546875 -10.386719 L 10.402344 -10.386719 L 10.402344 -12.195312 L 12.207031 -12.195312 L 12.207031 -0.925781 C 12.207031 -0.117188 11.957031 0.539062 11.449219 1.046875 C 10.941406 1.554688 10.285156 1.804688 9.476562 1.804688 L 3.8125 1.804688 C 3.007812 1.804688 2.351562 1.554688 1.84375 1.046875 C 1.335938 0.539062 1.082031 -0.117188 1.082031 -0.925781 L 1.082031 -39.53125 C 1.082031 -40.335938 1.335938 -40.992188 1.84375 -41.5 C 2.351562 -42.007812 3.007812 -42.261719 3.8125 -42.261719 L 17.683594 -42.261719 C 20.917969 -42.261719 23.414062 -41.382812 25.175781 -39.621094 C 26.933594 -37.863281 27.8125 -35.367188 27.8125 -32.132812 Z M 24.199219 -32.132812 C 24.199219 -34.371094 23.671875 -36.015625 22.621094 -37.066406 C 21.566406 -38.121094 19.921875 -38.648438 17.683594 -38.648438 L 3.8125 -38.648438 C 3.855469 -38.648438 3.910156 -38.660156 3.980469 -38.683594 C 4.136719 -38.734375 4.273438 -38.824219 4.398438 -38.945312 C 4.523438 -39.070312 4.609375 -39.210938 4.660156 -39.363281 C 4.683594 -39.433594 4.695312 -39.488281 4.695312 -39.53125 L 4.695312 -0.925781 C 4.695312 -0.964844 4.683594 -1.023438 4.660156 -1.089844 C 4.609375 -1.246094 4.523438 -1.382812 4.398438 -1.507812 C 4.273438 -1.632812 4.136719 -1.71875 3.980469 -1.769531 C 3.910156 -1.792969 3.855469 -1.804688 3.8125 -1.804688 L 9.476562 -1.804688 C 9.4375 -1.804688 9.382812 -1.792969 9.3125 -1.769531 C 9.15625 -1.71875 9.019531 -1.632812 8.894531 -1.507812 C 8.769531 -1.382812 8.683594 -1.246094 8.632812 -1.089844 C 8.609375 -1.023438 8.597656 -0.964844 8.597656 -0.925781 L 8.597656 -14 L 16.964844 -14 L 20.082031 -1.210938 L 20.085938 -1.1875 C 20.054688 -1.328125 19.960938 -1.464844 19.800781 -1.597656 C 19.632812 -1.734375 19.464844 -1.804688 19.300781 -1.804688 L 24.96875 -1.804688 C 24.929688 -1.800781 24.886719 -1.789062 24.835938 -1.773438 C 24.625 -1.699219 24.445312 -1.5625 24.292969 -1.367188 C 24.136719 -1.167969 24.050781 -0.953125 24.03125 -0.71875 C 24.027344 -0.640625 24.027344 -0.585938 24.035156 -0.558594 L 24.027344 -0.585938 L 20.707031 -14.308594 L 21.8125 -14.996094 C 23.40625 -15.992188 24.199219 -17.832031 24.199219 -20.515625 Z M 10.402344 -21.457031 L 16.183594 -21.457031 C 16.371094 -21.457031 16.519531 -21.472656 16.621094 -21.507812 C 16.640625 -21.511719 16.652344 -21.519531 16.660156 -21.523438 C 16.65625 -21.519531 16.648438 -21.511719 16.636719 -21.503906 C 16.628906 -21.496094 16.625 -21.488281 16.621094 -21.480469 C 16.625 -21.488281 16.628906 -21.5 16.636719 -21.519531 C 16.671875 -21.625 16.6875 -21.769531 16.6875 -21.960938 L 16.6875 -30.6875 C 16.6875 -30.878906 16.671875 -31.023438 16.636719 -31.128906 C 16.628906 -31.148438 16.625 -31.160156 16.621094 -31.167969 C 16.625 -31.160156 16.628906 -31.152344 16.636719 -31.144531 C 16.648438 -31.136719 16.65625 -31.128906 16.660156 -31.125 C 16.652344 -31.128906 16.640625 -31.136719 16.621094 -31.140625 C 16.519531 -31.175781 16.371094 -31.191406 16.183594 -31.191406 L 10.402344 -31.191406 L 10.402344 -33 L 12.207031 -33 L 12.207031 -19.648438 L 10.402344 -19.648438 Z M 8.597656 -17.84375 L 8.597656 -34.804688 L 16.183594 -34.804688 C 17.449219 -34.804688 18.453125 -34.4375 19.191406 -33.699219 C 19.929688 -32.960938 20.300781 -31.957031 20.300781 -30.6875 L 20.300781 -21.960938 C 20.300781 -20.691406 19.929688 -19.6875 19.191406 -18.949219 C 18.453125 -18.210938 17.449219 -17.84375 16.183594 -17.84375 Z M 8.597656 -17.84375 "/></g></g><g style="fill:#b21a22;fill-opacity:1;"><g transform="translate(206.01914, 250.492782)"><path style="stroke:none" d="M 1.082031 -8.320312 L 1.082031 -32.132812 C 1.082031 -35.371094 1.976562 -37.871094 3.757812 -39.632812 C 5.535156 -41.382812 8.019531 -42.261719 11.210938 -42.261719 L 17.683594 -42.261719 C 20.917969 -42.261719 23.414062 -41.382812 25.175781 -39.621094 C 26.933594 -37.863281 27.8125 -35.367188 27.8125 -32.132812 L 27.8125 -8.320312 C 27.8125 -5.132812 26.9375 -2.648438 25.183594 -0.871094 C 23.421875 0.914062 20.921875 1.804688 17.683594 1.804688 L 11.210938 1.804688 C 8.015625 1.804688 5.527344 0.917969 3.75 -0.859375 C 1.972656 -2.640625 1.082031 -5.125 1.082031 -8.320312 Z M 4.695312 -8.320312 C 4.695312 -6.125 5.230469 -4.488281 6.304688 -3.414062 C 7.378906 -2.34375 9.011719 -1.804688 11.210938 -1.804688 L 17.683594 -1.804688 C 19.917969 -1.804688 21.558594 -2.339844 22.609375 -3.40625 C 23.671875 -4.480469 24.199219 -6.117188 24.199219 -8.320312 L 24.199219 -32.132812 C 24.199219 -34.371094 23.671875 -36.015625 22.621094 -37.066406 C 21.566406 -38.121094 19.921875 -38.648438 17.683594 -38.648438 L 11.210938 -38.648438 C 9.007812 -38.648438 7.371094 -38.117188 6.296875 -37.058594 C 5.230469 -36.007812 4.695312 -34.363281 4.695312 -32.132812 Z M 12.714844 -9.261719 L 16.414062 -9.261719 C 16.601562 -9.261719 16.75 -9.277344 16.851562 -9.3125 C 16.871094 -9.320312 16.886719 -9.324219 16.890625 -9.328125 C 16.886719 -9.324219 16.878906 -9.320312 16.871094 -9.308594 C 16.859375 -9.300781 16.855469 -9.292969 16.851562 -9.289062 C 16.855469 -9.292969 16.859375 -9.308594 16.867188 -9.328125 C 16.902344 -9.429688 16.917969 -9.578125 16.917969 -9.765625 L 16.917969 -30.6875 C 16.917969 -30.878906 16.902344 -31.023438 16.867188 -31.128906 C 16.859375 -31.148438 16.855469 -31.160156 16.851562 -31.167969 C 16.855469 -31.160156 16.859375 -31.152344 16.871094 -31.144531 C 16.878906 -31.136719 16.886719 -31.128906 16.890625 -31.125 C 16.886719 -31.128906 16.871094 -31.136719 16.851562 -31.140625 C 16.75 -31.175781 16.601562 -31.191406 16.414062 -31.191406 L 12.714844 -31.191406 C 12.523438 -31.191406 12.378906 -31.175781 12.273438 -31.140625 C 12.253906 -31.136719 12.242188 -31.128906 12.234375 -31.125 C 12.242188 -31.128906 12.25 -31.136719 12.257812 -31.144531 C 12.265625 -31.152344 12.273438 -31.160156 12.277344 -31.167969 C 12.273438 -31.160156 12.265625 -31.148438 12.261719 -31.128906 C 12.226562 -31.023438 12.207031 -30.878906 12.207031 -30.6875 L 12.207031 -9.765625 C 12.207031 -9.578125 12.226562 -9.429688 12.261719 -9.328125 C 12.265625 -9.308594 12.273438 -9.292969 12.277344 -9.289062 C 12.273438 -9.292969 12.265625 -9.300781 12.257812 -9.308594 C 12.25 -9.320312 12.242188 -9.324219 12.234375 -9.328125 C 12.242188 -9.324219 12.253906 -9.320312 12.273438 -9.3125 C 12.378906 -9.277344 12.523438 -9.261719 12.714844 -9.261719 Z M 12.714844 -5.648438 C 11.445312 -5.648438 10.441406 -6.019531 9.703125 -6.757812 C 8.964844 -7.492188 8.597656 -8.496094 8.597656 -9.765625 L 8.597656 -30.6875 C 8.597656 -31.957031 8.964844 -32.960938 9.703125 -33.699219 C 10.441406 -34.4375 11.445312 -34.804688 12.714844 -34.804688 L 16.414062 -34.804688 C 17.683594 -34.804688 18.6875 -34.4375 19.425781 -33.699219 C 20.160156 -32.960938 20.53125 -31.957031 20.53125 -30.6875 L 20.53125 -9.765625 C 20.53125 -8.496094 20.160156 -7.492188 19.425781 -6.757812 C 18.6875 -6.019531 17.683594 -5.648438 16.414062 -5.648438 Z M 12.714844 -5.648438 "/></g></g><g style="fill:#b21a22;fill-opacity:1;"><g transform="translate(234.90612, 250.492782)"><path style="stroke:none" d="M 27.8125 -32.132812 L 27.8125 -20.515625 C 27.8125 -16.496094 26.449219 -13.636719 23.726562 -11.933594 L 22.769531 -13.464844 L 24.527344 -13.890625 L 27.53125 -1.464844 L 25.773438 -1.039062 L 27.515625 -1.523438 C 27.773438 -0.59375 27.648438 0.199219 27.144531 0.847656 C 26.648438 1.488281 25.921875 1.804688 24.964844 1.804688 L 19.300781 1.804688 C 18.601562 1.804688 18 1.601562 17.503906 1.191406 C 17.015625 0.789062 16.699219 0.25 16.554688 -0.429688 L 18.320312 -0.808594 L 16.566406 -0.382812 L 13.792969 -11.765625 L 15.546875 -12.195312 L 15.546875 -10.386719 L 10.402344 -10.386719 L 10.402344 -12.195312 L 12.207031 -12.195312 L 12.207031 -0.925781 C 12.207031 -0.117188 11.957031 0.539062 11.449219 1.046875 C 10.941406 1.554688 10.285156 1.804688 9.476562 1.804688 L 3.8125 1.804688 C 3.007812 1.804688 2.351562 1.554688 1.84375 1.046875 C 1.335938 0.539062 1.082031 -0.117188 1.082031 -0.925781 L 1.082031 -39.53125 C 1.082031 -40.335938 1.335938 -40.992188 1.84375 -41.5 C 2.351562 -42.007812 3.007812 -42.261719 3.8125 -42.261719 L 17.683594 -42.261719 C 20.917969 -42.261719 23.414062 -41.382812 25.175781 -39.621094 C 26.933594 -37.863281 27.8125 -35.367188 27.8125 -32.132812 Z M 24.199219 -32.132812 C 24.199219 -34.371094 23.671875 -36.015625 22.621094 -37.066406 C 21.566406 -38.121094 19.921875 -38.648438 17.683594 -38.648438 L 3.8125 -38.648438 C 3.855469 -38.648438 3.910156 -38.660156 3.980469 -38.683594 C 4.136719 -38.734375 4.273438 -38.824219 4.398438 -38.945312 C 4.523438 -39.070312 4.609375 -39.210938 4.660156 -39.363281 C 4.683594 -39.433594 4.695312 -39.488281 4.695312 -39.53125 L 4.695312 -0.925781 C 4.695312 -0.964844 4.683594 -1.023438 4.660156 -1.089844 C 4.609375 -1.246094 4.523438 -1.382812 4.398438 -1.507812 C 4.273438 -1.632812 4.136719 -1.71875 3.980469 -1.769531 C 3.910156 -1.792969 3.855469 -1.804688 3.8125 -1.804688 L 9.476562 -1.804688 C 9.4375 -1.804688 9.382812 -1.792969 9.3125 -1.769531 C 9.15625 -1.71875 9.019531 -1.632812 8.894531 -1.507812 C 8.769531 -1.382812 8.683594 -1.246094 8.632812 -1.089844 C 8.609375 -1.023438 8.597656 -0.964844 8.597656 -0.925781 L 8.597656 -14 L 16.964844 -14 L 20.082031 -1.210938 L 20.085938 -1.1875 C 20.054688 -1.328125 19.960938 -1.464844 19.800781 -1.597656 C 19.632812 -1.734375 19.464844 -1.804688 19.300781 -1.804688 L 24.96875 -1.804688 C 24.929688 -1.800781 24.886719 -1.789062 24.835938 -1.773438 C 24.625 -1.699219 24.445312 -1.5625 24.292969 -1.367188 C 24.136719 -1.167969 24.050781 -0.953125 24.03125 -0.71875 C 24.027344 -0.640625 24.027344 -0.585938 24.035156 -0.558594 L 24.027344 -0.585938 L 20.707031 -14.308594 L 21.8125 -14.996094 C 23.40625 -15.992188 24.199219 -17.832031 24.199219 -20.515625 Z M 10.402344 -21.457031 L 16.183594 -21.457031 C 16.371094 -21.457031 16.519531 -21.472656 16.621094 -21.507812 C 16.640625 -21.511719 16.652344 -21.519531 16.660156 -21.523438 C 16.65625 -21.519531 16.648438 -21.511719 16.636719 -21.503906 C 16.628906 -21.496094 16.625 -21.488281 16.621094 -21.480469 C 16.625 -21.488281 16.628906 -21.5 16.636719 -21.519531 C 16.671875 -21.625 16.6875 -21.769531 16.6875 -21.960938 L 16.6875 -30.6875 C 16.6875 -30.878906 16.671875 -31.023438 16.636719 -31.128906 C 16.628906 -31.148438 16.625 -31.160156 16.621094 -31.167969 C 16.625 -31.160156 16.628906 -31.152344 16.636719 -31.144531 C 16.648438 -31.136719 16.65625 -31.128906 16.660156 -31.125 C 16.652344 -31.128906 16.640625 -31.136719 16.621094 -31.140625 C 16.519531 -31.175781 16.371094 -31.191406 16.183594 -31.191406 L 10.402344 -31.191406 L 10.402344 -33 L 12.207031 -33 L 12.207031 -19.648438 L 10.402344 -19.648438 Z M 8.597656 -17.84375 L 8.597656 -34.804688 L 16.183594 -34.804688 C 17.449219 -34.804688 18.453125 -34.4375 19.191406 -33.699219 C 19.929688 -32.960938 20.300781 -31.957031 20.300781 -30.6875 L 20.300781 -21.960938 C 20.300781 -20.691406 19.929688 -19.6875 19.191406 -18.949219 C 18.453125 -18.210938 17.449219 -17.84375 16.183594 -17.84375 Z M 8.597656 -17.84375 "/></g></g><g style="fill:#b21a22;fill-opacity:1;"><g transform="translate(263.793099, 250.492782)"><path style="stroke:none" d="M 11.210938 -42.261719 L 17.683594 -42.261719 C 20.917969 -42.261719 23.414062 -41.382812 25.175781 -39.621094 C 26.933594 -37.863281 27.8125 -35.367188 27.8125 -32.132812 L 27.8125 -28.316406 C 27.8125 -27.511719 27.558594 -26.855469 27.050781 -26.347656 C 26.546875 -25.839844 25.890625 -25.585938 25.082031 -25.585938 L 19.246094 -25.585938 C 18.4375 -25.585938 17.78125 -25.839844 17.273438 -26.347656 C 16.765625 -26.855469 16.515625 -27.511719 16.515625 -28.316406 L 16.515625 -30.746094 C 16.515625 -30.933594 16.496094 -31.082031 16.460938 -31.1875 C 16.457031 -31.203125 16.449219 -31.21875 16.445312 -31.226562 C 16.449219 -31.21875 16.457031 -31.210938 16.464844 -31.203125 C 16.472656 -31.195312 16.480469 -31.1875 16.488281 -31.183594 C 16.480469 -31.1875 16.46875 -31.191406 16.449219 -31.199219 C 16.34375 -31.234375 16.199219 -31.25 16.007812 -31.25 L 12.828125 -31.25 C 12.640625 -31.25 12.492188 -31.234375 12.390625 -31.199219 C 12.371094 -31.191406 12.359375 -31.1875 12.351562 -31.183594 C 12.355469 -31.1875 12.363281 -31.195312 12.375 -31.203125 C 12.382812 -31.210938 12.386719 -31.21875 12.390625 -31.226562 C 12.386719 -31.21875 12.382812 -31.203125 12.375 -31.1875 C 12.339844 -31.082031 12.324219 -30.933594 12.324219 -30.746094 L 12.324219 -25.832031 L 10.519531 -25.832031 L 11.070312 -27.550781 L 25.058594 -23.042969 C 25.949219 -22.734375 26.632812 -22.242188 27.109375 -21.570312 C 27.578125 -20.902344 27.8125 -20.105469 27.8125 -19.1875 L 27.8125 -8.320312 C 27.8125 -5.132812 26.9375 -2.648438 25.183594 -0.871094 C 23.421875 0.914062 20.921875 1.804688 17.683594 1.804688 L 11.210938 1.804688 C 8.015625 1.804688 5.527344 0.917969 3.75 -0.859375 C 1.972656 -2.640625 1.082031 -5.125 1.082031 -8.320312 L 1.082031 -12.078125 C 1.082031 -12.886719 1.335938 -13.542969 1.84375 -14.050781 C 2.351562 -14.554688 3.007812 -14.808594 3.8125 -14.808594 L 9.652344 -14.808594 C 10.457031 -14.808594 11.113281 -14.554688 11.621094 -14.050781 C 12.128906 -13.542969 12.382812 -12.886719 12.382812 -12.078125 L 12.382812 -9.652344 C 12.382812 -9.460938 12.398438 -9.316406 12.433594 -9.210938 C 12.441406 -9.191406 12.445312 -9.179688 12.449219 -9.171875 C 12.445312 -9.179688 12.441406 -9.1875 12.429688 -9.195312 C 12.421875 -9.203125 12.414062 -9.210938 12.410156 -9.214844 C 12.414062 -9.210938 12.429688 -9.203125 12.449219 -9.199219 C 12.550781 -9.164062 12.699219 -9.144531 12.886719 -9.144531 L 16.007812 -9.144531 C 16.199219 -9.144531 16.34375 -9.164062 16.449219 -9.199219 C 16.46875 -9.203125 16.480469 -9.210938 16.488281 -9.214844 C 16.480469 -9.210938 16.472656 -9.203125 16.464844 -9.195312 C 16.457031 -9.1875 16.449219 -9.179688 16.445312 -9.171875 C 16.449219 -9.179688 16.457031 -9.191406 16.460938 -9.210938 C 16.496094 -9.316406 16.515625 -9.460938 16.515625 -9.652344 L 16.515625 -15.488281 L 18.320312 -15.488281 L 17.761719 -13.769531 L 3.890625 -18.277344 C 2.996094 -18.578125 2.308594 -19.058594 1.820312 -19.726562 C 1.328125 -20.398438 1.082031 -21.203125 1.082031 -22.132812 L 1.082031 -32.132812 C 1.082031 -35.371094 1.976562 -37.871094 3.757812 -39.632812 C 5.535156 -41.382812 8.019531 -42.261719 11.210938 -42.261719 Z M 11.210938 -38.648438 C 9.007812 -38.648438 7.371094 -38.117188 6.296875 -37.058594 C 5.230469 -36.007812 4.695312 -34.363281 4.695312 -32.132812 L 4.695312 -22.132812 C 4.695312 -21.988281 4.710938 -21.894531 4.738281 -21.855469 C 4.773438 -21.808594 4.863281 -21.761719 5.007812 -21.714844 L 20.125 -16.800781 L 20.125 -9.652344 C 20.125 -8.382812 19.757812 -7.378906 19.019531 -6.640625 C 18.28125 -5.902344 17.277344 -5.535156 16.007812 -5.535156 L 12.886719 -5.535156 C 11.617188 -5.535156 10.613281 -5.902344 9.875 -6.640625 C 9.140625 -7.378906 8.769531 -8.382812 8.769531 -9.652344 L 8.769531 -12.078125 C 8.769531 -12.039062 8.78125 -11.980469 8.804688 -11.910156 C 8.855469 -11.757812 8.945312 -11.617188 9.066406 -11.496094 C 9.191406 -11.371094 9.332031 -11.285156 9.484375 -11.230469 C 9.554688 -11.207031 9.609375 -11.195312 9.652344 -11.195312 L 3.8125 -11.195312 C 3.855469 -11.195312 3.910156 -11.207031 3.980469 -11.230469 C 4.136719 -11.285156 4.273438 -11.371094 4.398438 -11.496094 C 4.523438 -11.617188 4.609375 -11.757812 4.660156 -11.910156 C 4.683594 -11.980469 4.695312 -12.039062 4.695312 -12.078125 L 4.695312 -8.320312 C 4.695312 -6.125 5.230469 -4.488281 6.304688 -3.414062 C 7.378906 -2.34375 9.011719 -1.804688 11.210938 -1.804688 L 17.683594 -1.804688 C 19.917969 -1.804688 21.558594 -2.339844 22.609375 -3.40625 C 23.671875 -4.480469 24.199219 -6.117188 24.199219 -8.320312 L 24.199219 -19.1875 C 24.199219 -19.34375 24.183594 -19.449219 24.152344 -19.492188 C 24.125 -19.53125 24.058594 -19.566406 23.949219 -19.605469 L 8.710938 -24.519531 L 8.710938 -30.746094 C 8.710938 -32.015625 9.082031 -33.019531 9.820312 -33.757812 C 10.558594 -34.496094 11.5625 -34.863281 12.828125 -34.863281 L 16.007812 -34.863281 C 17.277344 -34.863281 18.28125 -34.496094 19.019531 -33.757812 C 19.757812 -33.019531 20.125 -32.015625 20.125 -30.746094 L 20.125 -28.316406 C 20.125 -28.359375 20.113281 -28.414062 20.089844 -28.484375 C 20.039062 -28.640625 19.953125 -28.777344 19.828125 -28.902344 C 19.703125 -29.027344 19.566406 -29.113281 19.410156 -29.164062 C 19.339844 -29.1875 19.285156 -29.199219 19.246094 -29.199219 L 25.082031 -29.199219 C 25.039062 -29.199219 24.984375 -29.1875 24.914062 -29.164062 C 24.761719 -29.113281 24.621094 -29.027344 24.5 -28.902344 C 24.375 -28.777344 24.285156 -28.640625 24.234375 -28.484375 C 24.210938 -28.414062 24.199219 -28.359375 24.199219 -28.316406 L 24.199219 -32.132812 C 24.199219 -34.371094 23.671875 -36.015625 22.621094 -37.066406 C 21.566406 -38.121094 19.921875 -38.648438 17.683594 -38.648438 Z M 11.210938 -38.648438 "/></g></g><g style="fill:#060705;fill-opacity:1;"><g transform="translate(42.690817, 169.920602)"><path style="stroke:none" d="M 2.890625 -0.921875 L 2.890625 -39.53125 C 2.890625 -40.144531 3.195312 -40.453125 3.8125 -40.453125 L 17.6875 -40.453125 C 20.425781 -40.453125 22.5 -39.738281 23.90625 -38.3125 C 25.3125 -36.894531 26.015625 -34.816406 26.015625 -32.078125 L 26.015625 -8.328125 C 26.015625 -5.628906 25.3125 -3.566406 23.90625 -2.140625 C 22.5 -0.710938 20.425781 0 17.6875 0 L 3.8125 0 C 3.195312 0 2.890625 -0.304688 2.890625 -0.921875 Z M 10.75 -7.625 L 16.0625 -7.625 C 17.601562 -7.625 18.375 -8.394531 18.375 -9.9375 L 18.375 -30.453125 C 18.375 -32.035156 17.601562 -32.828125 16.0625 -32.828125 L 10.75 -32.828125 Z M 10.75 -7.625 "/></g></g><g style="fill:#060705;fill-opacity:1;"><g transform="translate(71.577796, 169.920602)"><path style="stroke:none" d="M 25.953125 -39.53125 L 25.953125 -33.75 C 25.953125 -33.09375 25.644531 -32.765625 25.03125 -32.765625 L 10.75 -32.765625 L 10.75 -23.875 L 21.609375 -23.875 C 22.234375 -23.875 22.546875 -23.546875 22.546875 -22.890625 L 22.546875 -17.171875 C 22.546875 -16.515625 22.234375 -16.1875 21.609375 -16.1875 L 10.75 -16.1875 L 10.75 -7.625 L 25.03125 -7.625 C 25.644531 -7.625 25.953125 -7.316406 25.953125 -6.703125 L 25.953125 -0.921875 C 25.953125 -0.304688 25.644531 0 25.03125 0 L 3.75 0 C 3.175781 0 2.890625 -0.304688 2.890625 -0.921875 L 2.890625 -39.53125 C 2.890625 -40.144531 3.175781 -40.453125 3.75 -40.453125 L 25.03125 -40.453125 C 25.644531 -40.453125 25.953125 -40.144531 25.953125 -39.53125 Z M 25.953125 -39.53125 "/></g></g><g style="fill:#060705;fill-opacity:1;"><g transform="translate(100.406992, 169.920602)"><path style="stroke:none" d="M 11.21875 -40.453125 L 17.6875 -40.453125 C 20.425781 -40.453125 22.5 -39.75 23.90625 -38.34375 C 25.3125 -36.9375 26.015625 -34.867188 26.015625 -32.140625 L 26.015625 -28.328125 C 26.015625 -27.703125 25.703125 -27.390625 25.078125 -27.390625 L 19.25 -27.390625 C 18.632812 -27.390625 18.328125 -27.703125 18.328125 -28.328125 L 18.328125 -30.75 C 18.328125 -32.289062 17.554688 -33.0625 16.015625 -33.0625 L 12.828125 -33.0625 C 11.285156 -33.0625 10.515625 -32.289062 10.515625 -30.75 L 10.515625 -25.828125 L 24.5 -21.328125 C 25.507812 -20.984375 26.015625 -20.269531 26.015625 -19.1875 L 26.015625 -8.328125 C 26.015625 -5.628906 25.3125 -3.566406 23.90625 -2.140625 C 22.5 -0.710938 20.425781 0 17.6875 0 L 11.21875 0 C 8.519531 0 6.457031 -0.710938 5.03125 -2.140625 C 3.601562 -3.566406 2.890625 -5.628906 2.890625 -8.328125 L 2.890625 -12.078125 C 2.890625 -12.691406 3.195312 -13 3.8125 -13 L 9.65625 -13 C 10.269531 -13 10.578125 -12.691406 10.578125 -12.078125 L 10.578125 -9.65625 C 10.578125 -8.113281 11.347656 -7.34375 12.890625 -7.34375 L 16.015625 -7.34375 C 17.554688 -7.34375 18.328125 -8.113281 18.328125 -9.65625 L 18.328125 -15.484375 L 4.453125 -20 C 3.410156 -20.34375 2.890625 -21.054688 2.890625 -22.140625 L 2.890625 -32.140625 C 2.890625 -34.867188 3.601562 -36.9375 5.03125 -38.34375 C 6.457031 -39.75 8.519531 -40.453125 11.21875 -40.453125 Z M 11.21875 -40.453125 "/></g></g><g style="fill:#060705;fill-opacity:1;"><g transform="translate(129.293972, 169.920602)"><path style="stroke:none" d="M 23.921875 -40.453125 L 2.65625 -40.453125 C 2.039062 -40.453125 1.734375 -40.144531 1.734375 -39.53125 L 1.734375 -33.75 C 1.734375 -33.132812 2.039062 -32.828125 2.65625 -32.828125 L 9.359375 -32.828125 L 9.359375 -0.921875 C 9.359375 -0.304688 9.664062 0 10.28125 0 L 16.296875 0 C 16.910156 0 17.21875 -0.304688 17.21875 -0.921875 L 17.21875 -32.828125 L 23.921875 -32.828125 C 24.546875 -32.828125 24.859375 -33.132812 24.859375 -33.75 L 24.859375 -39.53125 C 24.859375 -40.144531 24.546875 -40.453125 23.921875 -40.453125 Z M 23.921875 -40.453125 "/></g></g><g style="fill:#060705;fill-opacity:1;"><g transform="translate(155.869996, 169.920602)"><path style="stroke:none" d="M 3.8125 0 L 9.828125 0 C 10.441406 0 10.75 -0.304688 10.75 -0.921875 L 10.75 -39.53125 C 10.75 -40.144531 10.441406 -40.453125 9.828125 -40.453125 L 3.8125 -40.453125 C 3.195312 -40.453125 2.890625 -40.144531 2.890625 -39.53125 L 2.890625 -0.921875 C 2.890625 -0.304688 3.195312 0 3.8125 0 Z M 3.8125 0 "/></g></g><g style="fill:#060705;fill-opacity:1;"><g transform="translate(169.504642, 169.920602)"><path style="stroke:none" d="M 21.21875 -40.453125 L 26.640625 -40.453125 C 27.253906 -40.453125 27.5625 -40.144531 27.5625 -39.53125 L 27.5625 -0.921875 C 27.5625 -0.304688 27.253906 0 26.640625 0 L 22.078125 0 C 21.617188 0 21.269531 -0.25 21.03125 -0.75 L 10.171875 -22.828125 L 10.171875 -0.921875 C 10.171875 -0.304688 9.863281 0 9.25 0 L 3.8125 0 C 3.195312 0 2.890625 -0.304688 2.890625 -0.921875 L 2.890625 -39.53125 C 2.890625 -40.144531 3.195312 -40.453125 3.8125 -40.453125 L 8.375 -40.453125 C 8.84375 -40.453125 9.191406 -40.203125 9.421875 -39.703125 L 20.28125 -17.625 L 20.28125 -39.53125 C 20.28125 -40.144531 20.59375 -40.453125 21.21875 -40.453125 Z M 21.21875 -40.453125 "/></g></g><g style="fill:#060705;fill-opacity:1;"><g transform="translate(199.951528, 169.920602)"><path style="stroke:none" d="M 30.171875 0 L 24.5625 0 C 24.0625 0 23.753906 -0.269531 23.640625 -0.8125 L 21.796875 -8.09375 L 10.921875 -8.09375 L 9.125 -0.8125 C 9.007812 -0.269531 8.703125 0 8.203125 0 L 2.546875 0 C 1.847656 0 1.597656 -0.328125 1.796875 -0.984375 L 11.390625 -39.65625 C 11.503906 -40.1875 11.832031 -40.453125 12.375 -40.453125 L 20.40625 -40.453125 C 20.945312 -40.453125 21.273438 -40.1875 21.390625 -39.65625 L 30.984375 -0.984375 C 31.171875 -0.328125 30.898438 0 30.171875 0 Z M 20 -14.796875 L 16.359375 -30.515625 L 12.71875 -14.796875 Z M 20 -14.796875 "/></g></g><g style="fill:#060705;fill-opacity:1;"><g transform="translate(232.709369, 169.920602)"><path style="stroke:none" d="M 23.921875 -40.453125 L 2.65625 -40.453125 C 2.039062 -40.453125 1.734375 -40.144531 1.734375 -39.53125 L 1.734375 -33.75 C 1.734375 -33.132812 2.039062 -32.828125 2.65625 -32.828125 L 9.359375 -32.828125 L 9.359375 -0.921875 C 9.359375 -0.304688 9.664062 0 10.28125 0 L 16.296875 0 C 16.910156 0 17.21875 -0.304688 17.21875 -0.921875 L 17.21875 -32.828125 L 23.921875 -32.828125 C 24.546875 -32.828125 24.859375 -33.132812 24.859375 -33.75 L 24.859375 -39.53125 C 24.859375 -40.144531 24.546875 -40.453125 23.921875 -40.453125 Z M 23.921875 -40.453125 "/></g></g><g style="fill:#060705;fill-opacity:1;"><g transform="translate(259.285394, 169.920602)"><path style="stroke:none" d="M 3.8125 0 L 9.828125 0 C 10.441406 0 10.75 -0.304688 10.75 -0.921875 L 10.75 -39.53125 C 10.75 -40.144531 10.441406 -40.453125 9.828125 -40.453125 L 3.8125 -40.453125 C 3.195312 -40.453125 2.890625 -40.144531 2.890625 -39.53125 L 2.890625 -0.921875 C 2.890625 -0.304688 3.195312 0 3.8125 0 Z M 3.8125 0 "/></g></g><g style="fill:#060705;fill-opacity:1;"><g transform="translate(272.920039, 169.920602)"><path style="stroke:none" d="M 2.890625 -8.328125 L 2.890625 -32.140625 C 2.890625 -34.867188 3.601562 -36.9375 5.03125 -38.34375 C 6.457031 -39.75 8.519531 -40.453125 11.21875 -40.453125 L 17.6875 -40.453125 C 20.425781 -40.453125 22.5 -39.75 23.90625 -38.34375 C 25.3125 -36.9375 26.015625 -34.867188 26.015625 -32.140625 L 26.015625 -8.328125 C 26.015625 -5.628906 25.3125 -3.566406 23.90625 -2.140625 C 22.5 -0.710938 20.425781 0 17.6875 0 L 11.21875 0 C 8.519531 0 6.457031 -0.710938 5.03125 -2.140625 C 3.601562 -3.566406 2.890625 -5.628906 2.890625 -8.328125 Z M 12.71875 -7.453125 L 16.421875 -7.453125 C 17.953125 -7.453125 18.71875 -8.222656 18.71875 -9.765625 L 18.71875 -30.6875 C 18.71875 -32.226562 17.953125 -33 16.421875 -33 L 12.71875 -33 C 11.175781 -33 10.40625 -32.226562 10.40625 -30.6875 L 10.40625 -9.765625 C 10.40625 -8.222656 11.175781 -7.453125 12.71875 -7.453125 Z M 12.71875 -7.453125 "/></g></g><g style="fill:#060705;fill-opacity:1;"><g transform="translate(301.807019, 169.920602)"><path style="stroke:none" d="M 21.21875 -40.453125 L 26.640625 -40.453125 C 27.253906 -40.453125 27.5625 -40.144531 27.5625 -39.53125 L 27.5625 -0.921875 C 27.5625 -0.304688 27.253906 0 26.640625 0 L 22.078125 0 C 21.617188 0 21.269531 -0.25 21.03125 -0.75 L 10.171875 -22.828125 L 10.171875 -0.921875 C 10.171875 -0.304688 9.863281 0 9.25 0 L 3.8125 0 C 3.195312 0 2.890625 -0.304688 2.890625 -0.921875 L 2.890625 -39.53125 C 2.890625 -40.144531 3.195312 -40.453125 3.8125 -40.453125 L 8.375 -40.453125 C 8.84375 -40.453125 9.191406 -40.203125 9.421875 -39.703125 L 20.28125 -17.625 L 20.28125 -39.53125 C 20.28125 -40.144531 20.59375 -40.453125 21.21875 -40.453125 Z M 21.21875 -40.453125 "/></g></g><g style="fill:#060705;fill-opacity:1;"><g transform="translate(82.267322, 250.492782)"><path style="stroke:none" d="M 0 7.75 L 0 2.421875 C 0 1.648438 0.382812 1.265625 1.15625 1.265625 L 36 1.265625 C 36.769531 1.265625 37.15625 1.648438 37.15625 2.421875 L 37.15625 7.75 C 37.15625 8.519531 36.769531 8.90625 36 8.90625 L 1.15625 8.90625 C 0.382812 8.90625 0 8.519531 0 7.75 Z M 0 7.75 "/></g></g><g style="fill:#060705;fill-opacity:1;"><g transform="translate(119.415985, 250.492782)"><path style="stroke:none" d="M 25.953125 -39.53125 L 25.953125 -33.75 C 25.953125 -33.09375 25.644531 -32.765625 25.03125 -32.765625 L 10.75 -32.765625 L 10.75 -23.875 L 21.609375 -23.875 C 22.234375 -23.875 22.546875 -23.546875 22.546875 -22.890625 L 22.546875 -17.171875 C 22.546875 -16.515625 22.234375 -16.1875 21.609375 -16.1875 L 10.75 -16.1875 L 10.75 -7.625 L 25.03125 -7.625 C 25.644531 -7.625 25.953125 -7.316406 25.953125 -6.703125 L 25.953125 -0.921875 C 25.953125 -0.304688 25.644531 0 25.03125 0 L 3.75 0 C 3.175781 0 2.890625 -0.304688 2.890625 -0.921875 L 2.890625 -39.53125 C 2.890625 -40.144531 3.175781 -40.453125 3.75 -40.453125 L 25.03125 -40.453125 C 25.644531 -40.453125 25.953125 -40.144531 25.953125 -39.53125 Z M 25.953125 -39.53125 "/></g></g><g style="fill:#060705;fill-opacity:1;"><g transform="translate(148.245181, 250.492782)"><path style="stroke:none" d="M 26.015625 -32.140625 L 26.015625 -20.515625 C 26.015625 -17.160156 24.929688 -14.8125 22.765625 -13.46875 L 25.78125 -1.046875 C 25.96875 -0.347656 25.695312 0 24.96875 0 L 19.296875 0 C 18.765625 0 18.441406 -0.269531 18.328125 -0.8125 L 15.546875 -12.1875 L 10.40625 -12.1875 L 10.40625 -0.921875 C 10.40625 -0.304688 10.097656 0 9.484375 0 L 3.8125 0 C 3.195312 0 2.890625 -0.304688 2.890625 -0.921875 L 2.890625 -39.53125 C 2.890625 -40.144531 3.195312 -40.453125 3.8125 -40.453125 L 17.6875 -40.453125 C 20.425781 -40.453125 22.5 -39.75 23.90625 -38.34375 C 25.3125 -36.9375 26.015625 -34.867188 26.015625 -32.140625 Z M 10.40625 -19.65625 L 16.1875 -19.65625 C 17.726562 -19.65625 18.5 -20.425781 18.5 -21.96875 L 18.5 -30.6875 C 18.5 -32.226562 17.726562 -33 16.1875 -33 L 10.40625 -33 Z M 10.40625 -19.65625 "/></g></g><g style="fill:#060705;fill-opacity:1;"><g transform="translate(177.132161, 250.492782)"><path style="stroke:none" d="M 26.015625 -32.140625 L 26.015625 -20.515625 C 26.015625 -17.160156 24.929688 -14.8125 22.765625 -13.46875 L 25.78125 -1.046875 C 25.96875 -0.347656 25.695312 0 24.96875 0 L 19.296875 0 C 18.765625 0 18.441406 -0.269531 18.328125 -0.8125 L 15.546875 -12.1875 L 10.40625 -12.1875 L 10.40625 -0.921875 C 10.40625 -0.304688 10.097656 0 9.484375 0 L 3.8125 0 C 3.195312 0 2.890625 -0.304688 2.890625 -0.921875 L 2.890625 -39.53125 C 2.890625 -40.144531 3.195312 -40.453125 3.8125 -40.453125 L 17.6875 -40.453125 C 20.425781 -40.453125 22.5 -39.75 23.90625 -38.34375 C 25.3125 -36.9375 26.015625 -34.867188 26.015625 -32.140625 Z M 10.40625 -19.65625 L 16.1875 -19.65625 C 17.726562 -19.65625 18.5 -20.425781 18.5 -21.96875 L 18.5 -30.6875 C 18.5 -32.226562 17.726562 -33 16.1875 -33 L 10.40625 -33 Z M 10.40625 -19.65625 "/></g></g><g style="fill:#060705;fill-opacity:1;"><g transform="translate(206.01914, 250.492782)"><path style="stroke:none" d="M 2.890625 -8.328125 L 2.890625 -32.140625 C 2.890625 -34.867188 3.601562 -36.9375 5.03125 -38.34375 C 6.457031 -39.75 8.519531 -40.453125 11.21875 -40.453125 L 17.6875 -40.453125 C 20.425781 -40.453125 22.5 -39.75 23.90625 -38.34375 C 25.3125 -36.9375 26.015625 -34.867188 26.015625 -32.140625 L 26.015625 -8.328125 C 26.015625 -5.628906 25.3125 -3.566406 23.90625 -2.140625 C 22.5 -0.710938 20.425781 0 17.6875 0 L 11.21875 0 C 8.519531 0 6.457031 -0.710938 5.03125 -2.140625 C 3.601562 -3.566406 2.890625 -5.628906 2.890625 -8.328125 Z M 12.71875 -7.453125 L 16.421875 -7.453125 C 17.953125 -7.453125 18.71875 -8.222656 18.71875 -9.765625 L 18.71875 -30.6875 C 18.71875 -32.226562 17.953125 -33 16.421875 -33 L 12.71875 -33 C 11.175781 -33 10.40625 -32.226562 10.40625 -30.6875 L 10.40625 -9.765625 C 10.40625 -8.222656 11.175781 -7.453125 12.71875 -7.453125 Z M 12.71875 -7.453125 "/></g></g><g style="fill:#060705;fill-opacity:1;"><g transform="translate(234.90612, 250.492782)"><path style="stroke:none" d="M 26.015625 -32.140625 L 26.015625 -20.515625 C 26.015625 -17.160156 24.929688 -14.8125 22.765625 -13.46875 L 25.78125 -1.046875 C 25.96875 -0.347656 25.695312 0 24.96875 0 L 19.296875 0 C 18.765625 0 18.441406 -0.269531 18.328125 -0.8125 L 15.546875 -12.1875 L 10.40625 -12.1875 L 10.40625 -0.921875 C 10.40625 -0.304688 10.097656 0 9.484375 0 L 3.8125 0 C 3.195312 0 2.890625 -0.304688 2.890625 -0.921875 L 2.890625 -39.53125 C 2.890625 -40.144531 3.195312 -40.453125 3.8125 -40.453125 L 17.6875 -40.453125 C 20.425781 -40.453125 22.5 -39.75 23.90625 -38.34375 C 25.3125 -36.9375 26.015625 -34.867188 26.015625 -32.140625 Z M 10.40625 -19.65625 L 16.1875 -19.65625 C 17.726562 -19.65625 18.5 -20.425781 18.5 -21.96875 L 18.5 -30.6875 C 18.5 -32.226562 17.726562 -33 16.1875 -33 L 10.40625 -33 Z M 10.40625 -19.65625 "/></g></g><g style="fill:#060705;fill-opacity:1;"><g transform="translate(263.793099, 250.492782)"><path style="stroke:none" d="M 11.21875 -40.453125 L 17.6875 -40.453125 C 20.425781 -40.453125 22.5 -39.75 23.90625 -38.34375 C 25.3125 -36.9375 26.015625 -34.867188 26.015625 -32.140625 L 26.015625 -28.328125 C 26.015625 -27.703125 25.703125 -27.390625 25.078125 -27.390625 L 19.25 -27.390625 C 18.632812 -27.390625 18.328125 -27.703125 18.328125 -28.328125 L 18.328125 -30.75 C 18.328125 -32.289062 17.554688 -33.0625 16.015625 -33.0625 L 12.828125 -33.0625 C 11.285156 -33.0625 10.515625 -32.289062 10.515625 -30.75 L 10.515625 -25.828125 L 24.5 -21.328125 C 25.507812 -20.984375 26.015625 -20.269531 26.015625 -19.1875 L 26.015625 -8.328125 C 26.015625 -5.628906 25.3125 -3.566406 23.90625 -2.140625 C 22.5 -0.710938 20.425781 0 17.6875 0 L 11.21875 0 C 8.519531 0 6.457031 -0.710938 5.03125 -2.140625 C 3.601562 -3.566406 2.890625 -5.628906 2.890625 -8.328125 L 2.890625 -12.078125 C 2.890625 -12.691406 3.195312 -13 3.8125 -13 L 9.65625 -13 C 10.269531 -13 10.578125 -12.691406 10.578125 -12.078125 L 10.578125 -9.65625 C 10.578125 -8.113281 11.347656 -7.34375 12.890625 -7.34375 L 16.015625 -7.34375 C 17.554688 -7.34375 18.328125 -8.113281 18.328125 -9.65625 L 18.328125 -15.484375 L 4.453125 -20 C 3.410156 -20.34375 2.890625 -21.054688 2.890625 -22.140625 L 2.890625 -32.140625 C 2.890625 -34.867188 3.601562 -36.9375 5.03125 -38.34375 C 6.457031 -39.75 8.519531 -40.453125 11.21875 -40.453125 Z M 11.21875 -40.453125 "/></g></g></g></svg>