<svg xmlns="http://www.w3.org/2000/svg" xmlns:xlink="http://www.w3.org/1999/xlink" width="192" zoomAndPan="magnify" viewBox="0 0 144 143.999998" height="192" preserveAspectRatio="xMidYMid meet" version="1.2"><defs><clipPath id="840db127b4"><path d="M 9 0 L 135 0 L 135 144 L 9 144 Z M 9 0 "/></clipPath><clipPath id="e8b620abeb"><path d="M -21.457031 54.867188 L 103.039062 -17.847656 L 165.503906 89.105469 L 41.007812 161.816406 Z M -21.457031 54.867188 "/></clipPath><clipPath id="620a5beb15"><path d="M 134.226562 35.65625 L 134.347656 107.300781 L 72.121094 143.644531 L 9.773438 108.34375 L 9.65625 36.695312 L 71.878906 0.351562 Z M 134.226562 35.65625 "/></clipPath><clipPath id="09b96aa839"><path d="M 21.210938 13.683594 L 122.773438 13.683594 L 122.773438 130.261719 L 21.210938 130.261719 Z M 21.210938 13.683594 "/></clipPath></defs><g id="9773d2ab95"><g clip-rule="nonzero" clip-path="url(#840db127b4)"><g clip-rule="nonzero" clip-path="url(#e8b620abeb)"><g clip-rule="nonzero" clip-path="url(#620a5beb15)"><path style=" stroke:none;fill-rule:nonzero;fill:#65b30e;fill-opacity:1;" d="M -21.457031 54.867188 L 103.039062 -17.847656 L 165.503906 89.105469 L 41.007812 161.816406 Z M -21.457031 54.867188 "/></g></g></g><path style=" stroke:none;fill-rule:nonzero;fill:#87ff00;fill-opacity:1;" d="M 51.679688 52.109375 L 51.613281 52.046875 L 37.261719 66.398438 L 72.113281 101.183594 L 86.46875 86.898438 L 106.960938 66.398438 L 92.609375 52.046875 L 92.609375 51.980469 L 51.617188 51.980469 Z M 51.679688 52.109375 "/><g clip-rule="nonzero" clip-path="url(#09b96aa839)"><path style=" stroke:none;fill-rule:nonzero;fill:#87ff00;fill-opacity:1;" d="M 71.980469 13.765625 L 21.222656 42.863281 L 21.226562 101.058594 L 71.984375 130.15625 L 122.742188 101.058594 L 122.742188 42.863281 L 71.984375 13.769531 Z M 113.039062 95.496094 L 71.980469 119.160156 L 30.921875 95.496094 L 30.925781 48.292969 L 71.984375 24.628906 L 113.042969 48.292969 L 113.042969 95.492188 Z M 113.039062 95.496094 "/></g><g style="fill:#b21a22;fill-opacity:1;"><g transform="translate(39.582472, 42.834041)"><path style="stroke:none" d="M 12.148438 0.726562 L 9.890625 0.726562 C 9.609375 0.726562 9.367188 0.640625 9.167969 0.464844 C 8.984375 0.304688 8.867188 0.09375 8.808594 -0.171875 L 9.519531 -0.324219 L 8.816406 -0.148438 L 8.070312 -3.078125 L 8.773438 -3.257812 L 8.773438 -2.53125 L 4.398438 -2.53125 L 4.398438 -3.257812 L 5.105469 -3.085938 L 4.382812 -0.152344 L 3.675781 -0.324219 L 4.390625 -0.171875 C 4.332031 0.09375 4.210938 0.304688 4.027344 0.464844 C 3.828125 0.640625 3.589844 0.726562 3.304688 0.726562 L 1.023438 0.726562 C 0.644531 0.726562 0.355469 0.597656 0.160156 0.34375 C -0.0390625 0.0820312 -0.0859375 -0.234375 0.0234375 -0.601562 L 0.722656 -0.394531 L 0.015625 -0.570312 L 3.878906 -16.140625 L 4.585938 -15.96875 L 3.875 -16.121094 C 3.933594 -16.394531 4.058594 -16.613281 4.257812 -16.773438 C 4.457031 -16.9375 4.699219 -17.019531 4.980469 -17.019531 L 8.214844 -17.019531 C 8.5 -17.019531 8.742188 -16.9375 8.941406 -16.773438 C 9.136719 -16.613281 9.265625 -16.394531 9.324219 -16.121094 L 8.613281 -15.96875 L 9.316406 -16.140625 L 13.183594 -0.570312 L 12.476562 -0.394531 L 13.171875 -0.601562 C 13.285156 -0.222656 13.230469 0.0976562 13.015625 0.363281 C 12.8125 0.605469 12.527344 0.726562 12.148438 0.726562 Z M 12.148438 -0.726562 C 12.152344 -0.726562 12.15625 -0.726562 12.160156 -0.726562 C 12.160156 -0.726562 12.15625 -0.726562 12.15625 -0.726562 C 12.144531 -0.726562 12.128906 -0.722656 12.109375 -0.714844 C 12.027344 -0.6875 11.953125 -0.636719 11.890625 -0.5625 C 11.820312 -0.476562 11.78125 -0.382812 11.773438 -0.28125 C 11.769531 -0.238281 11.773438 -0.210938 11.777344 -0.191406 L 11.773438 -0.207031 L 7.902344 -15.804688 L 7.902344 -15.816406 C 7.914062 -15.757812 7.953125 -15.703125 8.015625 -15.648438 C 8.085938 -15.59375 8.152344 -15.566406 8.214844 -15.566406 L 4.980469 -15.566406 C 5.046875 -15.566406 5.113281 -15.59375 5.179688 -15.648438 C 5.246094 -15.703125 5.285156 -15.757812 5.296875 -15.816406 L 5.292969 -15.804688 L 1.421875 -0.207031 L 1.417969 -0.191406 C 1.425781 -0.207031 1.425781 -0.230469 1.421875 -0.265625 C 1.417969 -0.363281 1.382812 -0.457031 1.316406 -0.539062 C 1.253906 -0.625 1.175781 -0.679688 1.085938 -0.710938 C 1.058594 -0.722656 1.035156 -0.726562 1.023438 -0.726562 L 3.304688 -0.726562 C 3.222656 -0.726562 3.144531 -0.695312 3.070312 -0.628906 C 3.011719 -0.578125 2.976562 -0.527344 2.964844 -0.476562 L 2.96875 -0.488281 L 3.828125 -3.984375 L 9.339844 -3.984375 L 10.226562 -0.492188 L 10.230469 -0.476562 C 10.222656 -0.527344 10.1875 -0.578125 10.125 -0.628906 C 10.050781 -0.695312 9.972656 -0.726562 9.890625 -0.726562 Z M 7.34375 -5.792969 L 5.878906 -12.125 L 6.585938 -12.289062 L 7.296875 -12.125 L 5.828125 -5.792969 L 5.121094 -5.957031 L 5.121094 -6.6875 L 8.054688 -6.6875 L 8.054688 -5.957031 Z M 8.96875 -5.230469 L 4.207031 -5.230469 L 5.878906 -12.453125 L 7.296875 -12.453125 L 8.761719 -6.121094 Z M 8.96875 -5.230469 "/></g></g><g style="fill:#b21a22;fill-opacity:1;"><g transform="translate(52.775789, 42.834041)"><path style="stroke:none" d="M 11.226562 -12.941406 L 11.226562 -10.425781 C 11.226562 -10.101562 11.121094 -9.839844 10.917969 -9.632812 C 10.714844 -9.429688 10.449219 -9.328125 10.125 -9.328125 L 7.9375 -9.328125 C 7.613281 -9.328125 7.347656 -9.429688 7.144531 -9.632812 C 6.9375 -9.839844 6.835938 -10.101562 6.835938 -10.425781 L 6.835938 -12.335938 C 6.835938 -12.414062 6.832031 -12.472656 6.816406 -12.511719 C 6.8125 -12.519531 6.8125 -12.527344 6.808594 -12.53125 C 6.8125 -12.527344 6.8125 -12.523438 6.816406 -12.519531 C 6.820312 -12.515625 6.824219 -12.515625 6.828125 -12.511719 C 6.824219 -12.515625 6.820312 -12.515625 6.8125 -12.519531 C 6.769531 -12.53125 6.710938 -12.539062 6.632812 -12.539062 L 5.144531 -12.539062 C 5.066406 -12.539062 5.007812 -12.53125 4.964844 -12.519531 C 4.960938 -12.515625 4.953125 -12.515625 4.949219 -12.511719 C 4.953125 -12.515625 4.957031 -12.515625 4.960938 -12.519531 C 4.964844 -12.523438 4.964844 -12.527344 4.96875 -12.53125 C 4.964844 -12.527344 4.964844 -12.519531 4.960938 -12.511719 C 4.949219 -12.472656 4.941406 -12.414062 4.941406 -12.335938 L 4.941406 -3.886719 C 4.941406 -3.8125 4.949219 -3.75 4.960938 -3.710938 C 4.964844 -3.703125 4.964844 -3.695312 4.96875 -3.695312 C 4.964844 -3.695312 4.964844 -3.699219 4.960938 -3.703125 C 4.957031 -3.707031 4.953125 -3.710938 4.949219 -3.710938 C 4.953125 -3.710938 4.960938 -3.707031 4.964844 -3.703125 C 5.007812 -3.691406 5.066406 -3.683594 5.144531 -3.683594 L 6.632812 -3.683594 C 6.710938 -3.683594 6.769531 -3.691406 6.8125 -3.703125 C 6.820312 -3.707031 6.824219 -3.710938 6.828125 -3.710938 C 6.824219 -3.710938 6.820312 -3.707031 6.816406 -3.703125 C 6.8125 -3.699219 6.8125 -3.695312 6.808594 -3.695312 C 6.8125 -3.695312 6.8125 -3.703125 6.816406 -3.710938 C 6.832031 -3.75 6.835938 -3.8125 6.835938 -3.886719 L 6.835938 -5.867188 C 6.835938 -6.191406 6.9375 -6.457031 7.144531 -6.660156 C 7.347656 -6.863281 7.613281 -6.964844 7.9375 -6.964844 L 10.125 -6.964844 C 10.449219 -6.964844 10.714844 -6.863281 10.917969 -6.660156 C 11.121094 -6.457031 11.226562 -6.191406 11.226562 -5.867188 L 11.226562 -3.351562 C 11.226562 -2.066406 10.867188 -1.0625 10.152344 -0.347656 C 9.433594 0.371094 8.433594 0.726562 7.144531 0.726562 L 4.539062 0.726562 C 3.253906 0.726562 2.25 0.371094 1.527344 -0.34375 C 0.800781 -1.058594 0.4375 -2.0625 0.4375 -3.351562 L 0.4375 -12.941406 C 0.4375 -14.246094 0.800781 -15.253906 1.527344 -15.964844 C 2.253906 -16.667969 3.253906 -17.019531 4.539062 -17.019531 L 7.144531 -17.019531 C 8.429688 -17.019531 9.429688 -16.667969 10.148438 -15.960938 C 10.867188 -15.253906 11.226562 -14.246094 11.226562 -12.941406 Z M 9.769531 -12.941406 C 9.769531 -13.839844 9.554688 -14.5 9.125 -14.925781 C 8.691406 -15.351562 8.03125 -15.566406 7.144531 -15.566406 L 4.539062 -15.566406 C 3.648438 -15.566406 2.984375 -15.351562 2.542969 -14.921875 C 2.109375 -14.5 1.890625 -13.839844 1.890625 -12.941406 L 1.890625 -3.351562 C 1.890625 -2.46875 2.109375 -1.8125 2.546875 -1.378906 C 2.988281 -0.945312 3.652344 -0.726562 4.539062 -0.726562 L 7.144531 -0.726562 C 8.03125 -0.726562 8.691406 -0.945312 9.121094 -1.375 C 9.554688 -1.808594 9.769531 -2.464844 9.769531 -3.351562 L 9.769531 -5.867188 C 9.769531 -5.847656 9.773438 -5.828125 9.785156 -5.796875 C 9.804688 -5.738281 9.839844 -5.679688 9.890625 -5.628906 C 9.941406 -5.582031 9.996094 -5.546875 10.058594 -5.523438 C 10.085938 -5.515625 10.109375 -5.511719 10.125 -5.511719 L 7.9375 -5.511719 C 7.953125 -5.511719 7.976562 -5.515625 8.003906 -5.523438 C 8.066406 -5.546875 8.121094 -5.582031 8.171875 -5.628906 C 8.222656 -5.679688 8.257812 -5.738281 8.277344 -5.796875 C 8.289062 -5.828125 8.292969 -5.847656 8.292969 -5.867188 L 8.292969 -3.886719 C 8.292969 -3.375 8.144531 -2.972656 7.847656 -2.675781 C 7.550781 -2.378906 7.144531 -2.230469 6.632812 -2.230469 L 5.144531 -2.230469 C 4.632812 -2.230469 4.230469 -2.378906 3.929688 -2.675781 C 3.632812 -2.972656 3.484375 -3.375 3.484375 -3.886719 L 3.484375 -12.335938 C 3.484375 -12.847656 3.632812 -13.25 3.929688 -13.550781 C 4.230469 -13.847656 4.632812 -13.996094 5.144531 -13.996094 L 6.632812 -13.996094 C 7.144531 -13.996094 7.550781 -13.847656 7.847656 -13.550781 C 8.144531 -13.25 8.292969 -12.847656 8.292969 -12.335938 L 8.292969 -10.425781 C 8.292969 -10.445312 8.289062 -10.464844 8.277344 -10.496094 C 8.257812 -10.558594 8.222656 -10.613281 8.171875 -10.664062 C 8.121094 -10.710938 8.066406 -10.746094 8.003906 -10.769531 C 7.976562 -10.777344 7.953125 -10.78125 7.9375 -10.78125 L 10.125 -10.78125 C 10.109375 -10.78125 10.085938 -10.777344 10.058594 -10.769531 C 9.996094 -10.746094 9.941406 -10.710938 9.890625 -10.664062 C 9.839844 -10.613281 9.804688 -10.558594 9.785156 -10.496094 C 9.773438 -10.464844 9.769531 -10.445312 9.769531 -10.425781 Z M 9.769531 -12.941406 "/></g></g><g style="fill:#b21a22;fill-opacity:1;"><g transform="translate(64.433378, 42.834041)"><path style="stroke:none" d="M 9.636719 -15.566406 L 1.070312 -15.566406 C 1.085938 -15.566406 1.109375 -15.570312 1.136719 -15.578125 C 1.199219 -15.601562 1.253906 -15.636719 1.304688 -15.6875 C 1.355469 -15.734375 1.390625 -15.792969 1.410156 -15.855469 C 1.421875 -15.882812 1.425781 -15.902344 1.425781 -15.921875 L 1.425781 -13.59375 C 1.425781 -13.609375 1.421875 -13.632812 1.410156 -13.660156 C 1.390625 -13.722656 1.355469 -13.777344 1.304688 -13.828125 C 1.253906 -13.878906 1.199219 -13.914062 1.136719 -13.933594 C 1.109375 -13.945312 1.085938 -13.949219 1.070312 -13.949219 L 4.5 -13.949219 L 4.5 -0.371094 C 4.5 -0.390625 4.492188 -0.410156 4.484375 -0.441406 C 4.464844 -0.5 4.429688 -0.558594 4.378906 -0.609375 C 4.328125 -0.65625 4.273438 -0.691406 4.210938 -0.714844 C 4.183594 -0.722656 4.160156 -0.726562 4.144531 -0.726562 L 6.5625 -0.726562 C 6.546875 -0.726562 6.523438 -0.722656 6.496094 -0.714844 C 6.433594 -0.691406 6.378906 -0.65625 6.328125 -0.609375 C 6.277344 -0.558594 6.242188 -0.5 6.222656 -0.441406 C 6.214844 -0.410156 6.207031 -0.390625 6.207031 -0.371094 L 6.207031 -13.949219 L 9.636719 -13.949219 C 9.621094 -13.949219 9.597656 -13.945312 9.570312 -13.933594 C 9.507812 -13.914062 9.449219 -13.878906 9.402344 -13.828125 C 9.351562 -13.777344 9.316406 -13.722656 9.296875 -13.660156 C 9.285156 -13.632812 9.28125 -13.609375 9.28125 -13.59375 L 9.28125 -15.921875 C 9.28125 -15.902344 9.285156 -15.882812 9.296875 -15.855469 C 9.316406 -15.792969 9.351562 -15.734375 9.402344 -15.6875 C 9.449219 -15.636719 9.507812 -15.601562 9.570312 -15.578125 C 9.597656 -15.570312 9.621094 -15.566406 9.636719 -15.566406 Z M 9.636719 -17.019531 C 9.960938 -17.019531 10.226562 -16.917969 10.429688 -16.714844 C 10.632812 -16.511719 10.734375 -16.246094 10.734375 -15.921875 L 10.734375 -13.59375 C 10.734375 -13.269531 10.632812 -13.003906 10.429688 -12.800781 C 10.226562 -12.59375 9.960938 -12.492188 9.636719 -12.492188 L 6.9375 -12.492188 L 6.9375 -13.222656 L 7.664062 -13.222656 L 7.664062 -0.371094 C 7.664062 -0.046875 7.5625 0.21875 7.359375 0.421875 C 7.152344 0.625 6.890625 0.726562 6.5625 0.726562 L 4.144531 0.726562 C 3.816406 0.726562 3.554688 0.625 3.347656 0.421875 C 3.144531 0.21875 3.042969 -0.046875 3.042969 -0.371094 L 3.042969 -13.222656 L 3.769531 -13.222656 L 3.769531 -12.492188 L 1.070312 -12.492188 C 0.746094 -12.492188 0.480469 -12.59375 0.277344 -12.800781 C 0.0742188 -13.003906 -0.0273438 -13.269531 -0.0273438 -13.59375 L -0.0273438 -15.921875 C -0.0273438 -16.246094 0.0742188 -16.511719 0.277344 -16.714844 C 0.480469 -16.917969 0.746094 -17.019531 1.070312 -17.019531 Z M 9.636719 -17.019531 "/></g></g><g style="fill:#b21a22;fill-opacity:1;"><g transform="translate(75.13695, 42.834041)"><path style="stroke:none" d="M 1.535156 -0.726562 L 3.957031 -0.726562 C 3.941406 -0.726562 3.917969 -0.722656 3.890625 -0.714844 C 3.828125 -0.691406 3.773438 -0.65625 3.722656 -0.609375 C 3.671875 -0.558594 3.636719 -0.5 3.617188 -0.441406 C 3.605469 -0.410156 3.601562 -0.390625 3.601562 -0.371094 L 3.601562 -15.921875 C 3.601562 -15.902344 3.605469 -15.882812 3.617188 -15.855469 C 3.636719 -15.792969 3.671875 -15.734375 3.722656 -15.6875 C 3.773438 -15.636719 3.828125 -15.601562 3.890625 -15.578125 C 3.917969 -15.570312 3.941406 -15.566406 3.957031 -15.566406 L 1.535156 -15.566406 C 1.554688 -15.566406 1.574219 -15.570312 1.601562 -15.578125 C 1.664062 -15.601562 1.722656 -15.636719 1.769531 -15.6875 C 1.820312 -15.734375 1.855469 -15.792969 1.878906 -15.855469 C 1.886719 -15.882812 1.890625 -15.902344 1.890625 -15.921875 L 1.890625 -0.371094 C 1.890625 -0.390625 1.886719 -0.410156 1.878906 -0.441406 C 1.855469 -0.5 1.820312 -0.558594 1.769531 -0.609375 C 1.722656 -0.65625 1.664062 -0.691406 1.601562 -0.714844 C 1.574219 -0.722656 1.554688 -0.726562 1.535156 -0.726562 Z M 1.535156 0.726562 C 1.210938 0.726562 0.945312 0.625 0.742188 0.421875 C 0.539062 0.21875 0.4375 -0.046875 0.4375 -0.371094 L 0.4375 -15.921875 C 0.4375 -16.246094 0.539062 -16.511719 0.742188 -16.714844 C 0.945312 -16.917969 1.210938 -17.019531 1.535156 -17.019531 L 3.957031 -17.019531 C 4.28125 -17.019531 4.546875 -16.917969 4.75 -16.714844 C 4.953125 -16.511719 5.058594 -16.246094 5.058594 -15.921875 L 5.058594 -0.371094 C 5.058594 -0.046875 4.953125 0.21875 4.75 0.421875 C 4.546875 0.625 4.28125 0.726562 3.957031 0.726562 Z M 1.535156 0.726562 "/></g></g><g style="fill:#b21a22;fill-opacity:1;"><g transform="translate(80.628344, 42.834041)"><path style="stroke:none" d="M 8.914062 -17.019531 L 11.03125 -17.019531 C 11.441406 -17.019531 11.753906 -16.890625 11.96875 -16.625 C 12.1875 -16.355469 12.253906 -16.023438 12.160156 -15.621094 L 8.457031 -0.25 C 8.394531 0.046875 8.253906 0.28125 8.035156 0.457031 C 7.816406 0.636719 7.550781 0.726562 7.238281 0.726562 L 4.910156 0.726562 C 4.605469 0.726562 4.34375 0.636719 4.125 0.457031 C 3.921875 0.292969 3.777344 0.0625 3.699219 -0.222656 L 3.695312 -0.238281 L 0.015625 -15.613281 C -0.078125 -16.019531 -0.015625 -16.355469 0.207031 -16.625 C 0.421875 -16.890625 0.730469 -17.019531 1.140625 -17.019531 L 3.257812 -17.019531 C 3.570312 -17.019531 3.835938 -16.929688 4.058594 -16.75 C 4.273438 -16.574219 4.414062 -16.335938 4.480469 -16.03125 L 6.785156 -5.507812 L 6.074219 -5.351562 L 5.363281 -5.511719 L 7.695312 -16.050781 L 7.703125 -16.070312 C 7.78125 -16.355469 7.925781 -16.585938 8.128906 -16.75 C 8.347656 -16.929688 8.609375 -17.019531 8.914062 -17.019531 Z M 8.914062 -15.566406 C 8.957031 -15.566406 9 -15.585938 9.050781 -15.625 C 9.074219 -15.644531 9.089844 -15.664062 9.105469 -15.6875 C 9.105469 -15.691406 9.109375 -15.691406 9.109375 -15.695312 C 9.105469 -15.691406 9.105469 -15.6875 9.105469 -15.679688 L 8.402344 -15.875 L 9.113281 -15.71875 L 6.785156 -5.195312 L 5.363281 -5.199219 L 3.0625 -15.714844 C 3.058594 -15.71875 3.058594 -15.722656 3.058594 -15.722656 C 3.0625 -15.71875 3.0625 -15.710938 3.066406 -15.703125 C 3.082031 -15.675781 3.105469 -15.648438 3.136719 -15.625 C 3.183594 -15.585938 3.226562 -15.566406 3.257812 -15.566406 L 1.140625 -15.566406 C 1.128906 -15.566406 1.121094 -15.566406 1.117188 -15.566406 C 1.125 -15.566406 1.136719 -15.570312 1.148438 -15.574219 C 1.21875 -15.597656 1.277344 -15.640625 1.332031 -15.703125 C 1.386719 -15.769531 1.417969 -15.84375 1.425781 -15.917969 C 1.429688 -15.933594 1.429688 -15.945312 1.429688 -15.957031 C 1.429688 -15.957031 1.429688 -15.953125 1.429688 -15.949219 L 5.105469 -0.589844 L 4.398438 -0.417969 L 5.101562 -0.613281 C 5.101562 -0.605469 5.105469 -0.601562 5.105469 -0.597656 C 5.105469 -0.601562 5.101562 -0.601562 5.101562 -0.605469 C 5.089844 -0.628906 5.070312 -0.648438 5.046875 -0.667969 C 4.996094 -0.707031 4.953125 -0.726562 4.910156 -0.726562 L 7.238281 -0.726562 C 7.207031 -0.726562 7.164062 -0.707031 7.117188 -0.667969 C 7.085938 -0.644531 7.0625 -0.617188 7.046875 -0.589844 C 7.042969 -0.582031 7.042969 -0.574219 7.039062 -0.570312 C 7.039062 -0.570312 7.039062 -0.578125 7.042969 -0.589844 L 10.742188 -15.941406 C 10.746094 -15.949219 10.746094 -15.957031 10.746094 -15.957031 C 10.746094 -15.945312 10.746094 -15.933594 10.746094 -15.917969 C 10.757812 -15.84375 10.789062 -15.769531 10.84375 -15.703125 C 10.894531 -15.640625 10.953125 -15.597656 11.023438 -15.574219 C 11.035156 -15.570312 11.046875 -15.566406 11.054688 -15.566406 C 11.050781 -15.566406 11.042969 -15.566406 11.03125 -15.566406 Z M 8.914062 -15.566406 "/></g></g><g style="fill:#b21a22;fill-opacity:1;"><g transform="translate(92.797836, 42.834041)"><path style="stroke:none" d="M 11.179688 -15.921875 L 11.179688 -13.59375 C 11.179688 -13.269531 11.082031 -13.003906 10.886719 -12.796875 C 10.683594 -12.578125 10.414062 -12.46875 10.078125 -12.46875 L 4.328125 -12.46875 L 4.328125 -13.199219 L 5.058594 -13.199219 L 5.058594 -9.613281 L 4.328125 -9.613281 L 4.328125 -10.339844 L 8.707031 -10.339844 C 9.039062 -10.339844 9.308594 -10.230469 9.515625 -10.011719 C 9.707031 -9.804688 9.804688 -9.542969 9.804688 -9.21875 L 9.804688 -6.914062 C 9.804688 -6.589844 9.707031 -6.324219 9.515625 -6.117188 C 9.308594 -5.898438 9.039062 -5.789062 8.707031 -5.789062 L 4.328125 -5.789062 L 4.328125 -6.515625 L 5.058594 -6.515625 L 5.058594 -3.074219 L 4.328125 -3.074219 L 4.328125 -3.800781 L 10.078125 -3.800781 C 10.402344 -3.800781 10.667969 -3.699219 10.871094 -3.492188 C 11.078125 -3.289062 11.179688 -3.023438 11.179688 -2.699219 L 11.179688 -0.371094 C 11.179688 -0.046875 11.078125 0.21875 10.871094 0.421875 C 10.667969 0.625 10.402344 0.726562 10.078125 0.726562 L 1.511719 0.726562 C 1.1875 0.726562 0.921875 0.621094 0.71875 0.40625 C 0.53125 0.203125 0.4375 -0.0546875 0.4375 -0.371094 L 0.4375 -15.921875 C 0.4375 -16.238281 0.53125 -16.496094 0.71875 -16.699219 C 0.921875 -16.914062 1.1875 -17.019531 1.511719 -17.019531 L 10.078125 -17.019531 C 10.402344 -17.019531 10.667969 -16.917969 10.871094 -16.714844 C 11.078125 -16.511719 11.179688 -16.246094 11.179688 -15.921875 Z M 9.722656 -15.921875 C 9.722656 -15.902344 9.726562 -15.882812 9.738281 -15.855469 C 9.757812 -15.792969 9.792969 -15.734375 9.84375 -15.6875 C 9.894531 -15.636719 9.949219 -15.601562 10.011719 -15.578125 C 10.039062 -15.570312 10.0625 -15.566406 10.078125 -15.566406 L 1.511719 -15.566406 C 1.605469 -15.566406 1.695312 -15.613281 1.78125 -15.703125 C 1.828125 -15.753906 1.863281 -15.808594 1.878906 -15.867188 C 1.886719 -15.890625 1.890625 -15.910156 1.890625 -15.921875 L 1.890625 -0.371094 C 1.890625 -0.382812 1.886719 -0.402344 1.878906 -0.425781 C 1.863281 -0.484375 1.828125 -0.539062 1.78125 -0.589844 C 1.695312 -0.683594 1.605469 -0.726562 1.511719 -0.726562 L 10.078125 -0.726562 C 10.0625 -0.726562 10.039062 -0.722656 10.011719 -0.714844 C 9.949219 -0.691406 9.894531 -0.65625 9.84375 -0.609375 C 9.792969 -0.558594 9.757812 -0.5 9.738281 -0.441406 C 9.726562 -0.410156 9.722656 -0.390625 9.722656 -0.371094 L 9.722656 -2.699219 C 9.722656 -2.683594 9.726562 -2.660156 9.738281 -2.632812 C 9.757812 -2.570312 9.792969 -2.515625 9.84375 -2.464844 C 9.894531 -2.414062 9.949219 -2.378906 10.011719 -2.359375 C 10.039062 -2.351562 10.0625 -2.34375 10.078125 -2.34375 L 3.601562 -2.34375 L 3.601562 -7.246094 L 8.707031 -7.246094 C 8.683594 -7.246094 8.65625 -7.238281 8.625 -7.226562 C 8.5625 -7.203125 8.503906 -7.167969 8.453125 -7.113281 C 8.410156 -7.066406 8.378906 -7.015625 8.359375 -6.957031 C 8.355469 -6.9375 8.351562 -6.921875 8.351562 -6.914062 L 8.351562 -9.21875 C 8.351562 -9.207031 8.355469 -9.195312 8.359375 -9.171875 C 8.378906 -9.117188 8.410156 -9.0625 8.453125 -9.015625 C 8.503906 -8.964844 8.5625 -8.925781 8.625 -8.902344 C 8.65625 -8.890625 8.683594 -8.886719 8.707031 -8.886719 L 3.601562 -8.886719 L 3.601562 -13.925781 L 10.078125 -13.925781 C 10.058594 -13.925781 10.03125 -13.917969 10 -13.90625 C 9.933594 -13.886719 9.878906 -13.847656 9.828125 -13.796875 C 9.78125 -13.746094 9.75 -13.695312 9.734375 -13.636719 C 9.726562 -13.617188 9.722656 -13.601562 9.722656 -13.59375 Z M 9.722656 -15.921875 "/></g></g><g style="fill:#b21a22;fill-opacity:1;"><g transform="translate(33.617815, 75.284724)"><path style="stroke:none" d="M 11.203125 -12.941406 L 11.203125 -8.261719 C 11.203125 -6.644531 10.652344 -5.492188 9.554688 -4.804688 L 9.171875 -5.421875 L 9.878906 -5.59375 L 11.089844 -0.589844 L 10.382812 -0.417969 L 11.082031 -0.613281 C 11.1875 -0.238281 11.136719 0.078125 10.933594 0.34375 C 10.730469 0.597656 10.441406 0.726562 10.054688 0.726562 L 7.773438 0.726562 C 7.492188 0.726562 7.25 0.644531 7.050781 0.480469 C 6.851562 0.316406 6.726562 0.101562 6.667969 -0.171875 L 7.378906 -0.324219 L 6.671875 -0.152344 L 5.554688 -4.738281 L 6.261719 -4.910156 L 6.261719 -4.183594 L 4.191406 -4.183594 L 4.191406 -4.910156 L 4.917969 -4.910156 L 4.917969 -0.371094 C 4.917969 -0.046875 4.816406 0.21875 4.609375 0.421875 C 4.40625 0.625 4.140625 0.726562 3.816406 0.726562 L 1.535156 0.726562 C 1.210938 0.726562 0.945312 0.625 0.742188 0.421875 C 0.539062 0.21875 0.4375 -0.046875 0.4375 -0.371094 L 0.4375 -15.921875 C 0.4375 -16.246094 0.539062 -16.511719 0.742188 -16.714844 C 0.945312 -16.917969 1.210938 -17.019531 1.535156 -17.019531 L 7.121094 -17.019531 C 8.425781 -17.019531 9.429688 -16.667969 10.140625 -15.957031 C 10.847656 -15.25 11.203125 -14.242188 11.203125 -12.941406 Z M 9.746094 -12.941406 C 9.746094 -13.84375 9.535156 -14.503906 9.109375 -14.929688 C 8.6875 -15.355469 8.023438 -15.566406 7.121094 -15.566406 L 1.535156 -15.566406 C 1.554688 -15.566406 1.574219 -15.570312 1.601562 -15.578125 C 1.664062 -15.601562 1.722656 -15.636719 1.769531 -15.6875 C 1.820312 -15.734375 1.855469 -15.792969 1.878906 -15.855469 C 1.886719 -15.882812 1.890625 -15.902344 1.890625 -15.921875 L 1.890625 -0.371094 C 1.890625 -0.390625 1.886719 -0.410156 1.878906 -0.441406 C 1.855469 -0.5 1.820312 -0.558594 1.769531 -0.609375 C 1.722656 -0.65625 1.664062 -0.691406 1.601562 -0.714844 C 1.574219 -0.722656 1.554688 -0.726562 1.535156 -0.726562 L 3.816406 -0.726562 C 3.800781 -0.726562 3.777344 -0.722656 3.75 -0.714844 C 3.6875 -0.691406 3.632812 -0.65625 3.582031 -0.609375 C 3.53125 -0.558594 3.496094 -0.5 3.476562 -0.441406 C 3.46875 -0.410156 3.460938 -0.390625 3.460938 -0.371094 L 3.460938 -5.636719 L 6.832031 -5.636719 L 8.085938 -0.488281 L 8.089844 -0.476562 C 8.078125 -0.535156 8.039062 -0.589844 7.976562 -0.644531 C 7.90625 -0.699219 7.839844 -0.726562 7.773438 -0.726562 L 10.054688 -0.726562 C 10.039062 -0.726562 10.023438 -0.71875 10.003906 -0.714844 C 9.917969 -0.683594 9.84375 -0.628906 9.785156 -0.550781 C 9.722656 -0.46875 9.6875 -0.382812 9.679688 -0.289062 C 9.675781 -0.257812 9.675781 -0.234375 9.679688 -0.222656 L 9.675781 -0.234375 L 8.339844 -5.761719 L 8.785156 -6.039062 C 9.425781 -6.441406 9.746094 -7.183594 9.746094 -8.261719 Z M 4.191406 -8.640625 L 6.515625 -8.640625 C 6.59375 -8.640625 6.652344 -8.648438 6.695312 -8.664062 C 6.703125 -8.664062 6.707031 -8.667969 6.710938 -8.667969 C 6.707031 -8.667969 6.703125 -8.664062 6.703125 -8.660156 C 6.699219 -8.65625 6.695312 -8.65625 6.695312 -8.652344 C 6.695312 -8.65625 6.699219 -8.660156 6.699219 -8.667969 C 6.714844 -8.710938 6.722656 -8.769531 6.722656 -8.84375 L 6.722656 -12.359375 C 6.722656 -12.4375 6.714844 -12.496094 6.699219 -12.535156 C 6.699219 -12.542969 6.695312 -12.550781 6.695312 -12.550781 C 6.695312 -12.550781 6.699219 -12.546875 6.703125 -12.542969 C 6.703125 -12.539062 6.707031 -12.539062 6.710938 -12.535156 C 6.707031 -12.539062 6.703125 -12.539062 6.695312 -12.542969 C 6.652344 -12.554688 6.59375 -12.5625 6.515625 -12.5625 L 4.191406 -12.5625 L 4.191406 -13.289062 L 4.917969 -13.289062 L 4.917969 -7.914062 L 4.191406 -7.914062 Z M 3.460938 -7.1875 L 3.460938 -14.019531 L 6.515625 -14.019531 C 7.027344 -14.019531 7.433594 -13.871094 7.730469 -13.570312 C 8.027344 -13.273438 8.175781 -12.871094 8.175781 -12.359375 L 8.175781 -8.84375 C 8.175781 -8.332031 8.027344 -7.929688 7.730469 -7.632812 C 7.433594 -7.335938 7.027344 -7.1875 6.515625 -7.1875 Z M 3.460938 -7.1875 "/></g></g><g style="fill:#b21a22;fill-opacity:1;"><g transform="translate(45.252131, 75.284724)"><path style="stroke:none" d="M 11.179688 -15.921875 L 11.179688 -13.59375 C 11.179688 -13.269531 11.082031 -13.003906 10.886719 -12.796875 C 10.683594 -12.578125 10.414062 -12.46875 10.078125 -12.46875 L 4.328125 -12.46875 L 4.328125 -13.199219 L 5.058594 -13.199219 L 5.058594 -9.613281 L 4.328125 -9.613281 L 4.328125 -10.339844 L 8.707031 -10.339844 C 9.039062 -10.339844 9.308594 -10.230469 9.515625 -10.011719 C 9.707031 -9.804688 9.804688 -9.542969 9.804688 -9.21875 L 9.804688 -6.914062 C 9.804688 -6.589844 9.707031 -6.324219 9.515625 -6.117188 C 9.308594 -5.898438 9.039062 -5.789062 8.707031 -5.789062 L 4.328125 -5.789062 L 4.328125 -6.515625 L 5.058594 -6.515625 L 5.058594 -3.074219 L 4.328125 -3.074219 L 4.328125 -3.800781 L 10.078125 -3.800781 C 10.402344 -3.800781 10.667969 -3.699219 10.871094 -3.492188 C 11.078125 -3.289062 11.179688 -3.023438 11.179688 -2.699219 L 11.179688 -0.371094 C 11.179688 -0.046875 11.078125 0.21875 10.871094 0.421875 C 10.667969 0.625 10.402344 0.726562 10.078125 0.726562 L 1.511719 0.726562 C 1.1875 0.726562 0.921875 0.621094 0.71875 0.40625 C 0.53125 0.203125 0.4375 -0.0546875 0.4375 -0.371094 L 0.4375 -15.921875 C 0.4375 -16.238281 0.53125 -16.496094 0.71875 -16.699219 C 0.921875 -16.914062 1.1875 -17.019531 1.511719 -17.019531 L 10.078125 -17.019531 C 10.402344 -17.019531 10.667969 -16.917969 10.871094 -16.714844 C 11.078125 -16.511719 11.179688 -16.246094 11.179688 -15.921875 Z M 9.722656 -15.921875 C 9.722656 -15.902344 9.726562 -15.882812 9.738281 -15.855469 C 9.757812 -15.792969 9.792969 -15.734375 9.84375 -15.6875 C 9.894531 -15.636719 9.949219 -15.601562 10.011719 -15.578125 C 10.039062 -15.570312 10.0625 -15.566406 10.078125 -15.566406 L 1.511719 -15.566406 C 1.605469 -15.566406 1.695312 -15.613281 1.78125 -15.703125 C 1.828125 -15.753906 1.863281 -15.808594 1.878906 -15.867188 C 1.886719 -15.890625 1.890625 -15.910156 1.890625 -15.921875 L 1.890625 -0.371094 C 1.890625 -0.382812 1.886719 -0.402344 1.878906 -0.425781 C 1.863281 -0.484375 1.828125 -0.539062 1.78125 -0.589844 C 1.695312 -0.683594 1.605469 -0.726562 1.511719 -0.726562 L 10.078125 -0.726562 C 10.0625 -0.726562 10.039062 -0.722656 10.011719 -0.714844 C 9.949219 -0.691406 9.894531 -0.65625 9.84375 -0.609375 C 9.792969 -0.558594 9.757812 -0.5 9.738281 -0.441406 C 9.726562 -0.410156 9.722656 -0.390625 9.722656 -0.371094 L 9.722656 -2.699219 C 9.722656 -2.683594 9.726562 -2.660156 9.738281 -2.632812 C 9.757812 -2.570312 9.792969 -2.515625 9.84375 -2.464844 C 9.894531 -2.414062 9.949219 -2.378906 10.011719 -2.359375 C 10.039062 -2.351562 10.0625 -2.34375 10.078125 -2.34375 L 3.601562 -2.34375 L 3.601562 -7.246094 L 8.707031 -7.246094 C 8.683594 -7.246094 8.65625 -7.238281 8.625 -7.226562 C 8.5625 -7.203125 8.503906 -7.167969 8.453125 -7.113281 C 8.410156 -7.066406 8.378906 -7.015625 8.359375 -6.957031 C 8.355469 -6.9375 8.351562 -6.921875 8.351562 -6.914062 L 8.351562 -9.21875 C 8.351562 -9.207031 8.355469 -9.195312 8.359375 -9.171875 C 8.378906 -9.117188 8.410156 -9.0625 8.453125 -9.015625 C 8.503906 -8.964844 8.5625 -8.925781 8.625 -8.902344 C 8.65625 -8.890625 8.683594 -8.886719 8.707031 -8.886719 L 3.601562 -8.886719 L 3.601562 -13.925781 L 10.078125 -13.925781 C 10.058594 -13.925781 10.03125 -13.917969 10 -13.90625 C 9.933594 -13.886719 9.878906 -13.847656 9.828125 -13.796875 C 9.78125 -13.746094 9.75 -13.695312 9.734375 -13.636719 C 9.726562 -13.617188 9.722656 -13.601562 9.722656 -13.59375 Z M 9.722656 -15.921875 "/></g></g><g style="fill:#b21a22;fill-opacity:1;"><g transform="translate(56.863175, 75.284724)"><path style="stroke:none" d="M 11.226562 -12.941406 L 11.226562 -10.425781 C 11.226562 -10.101562 11.121094 -9.839844 10.917969 -9.632812 C 10.714844 -9.429688 10.449219 -9.328125 10.125 -9.328125 L 7.9375 -9.328125 C 7.613281 -9.328125 7.347656 -9.429688 7.144531 -9.632812 C 6.9375 -9.839844 6.835938 -10.101562 6.835938 -10.425781 L 6.835938 -12.335938 C 6.835938 -12.414062 6.832031 -12.472656 6.816406 -12.511719 C 6.8125 -12.519531 6.8125 -12.527344 6.808594 -12.53125 C 6.8125 -12.527344 6.8125 -12.523438 6.816406 -12.519531 C 6.820312 -12.515625 6.824219 -12.515625 6.828125 -12.511719 C 6.824219 -12.515625 6.820312 -12.515625 6.8125 -12.519531 C 6.769531 -12.53125 6.710938 -12.539062 6.632812 -12.539062 L 5.144531 -12.539062 C 5.066406 -12.539062 5.007812 -12.53125 4.964844 -12.519531 C 4.960938 -12.515625 4.953125 -12.515625 4.949219 -12.511719 C 4.953125 -12.515625 4.957031 -12.515625 4.960938 -12.519531 C 4.964844 -12.523438 4.964844 -12.527344 4.96875 -12.53125 C 4.964844 -12.527344 4.964844 -12.519531 4.960938 -12.511719 C 4.949219 -12.472656 4.941406 -12.414062 4.941406 -12.335938 L 4.941406 -3.886719 C 4.941406 -3.8125 4.949219 -3.75 4.960938 -3.710938 C 4.964844 -3.703125 4.964844 -3.695312 4.96875 -3.695312 C 4.964844 -3.695312 4.964844 -3.699219 4.960938 -3.703125 C 4.957031 -3.707031 4.953125 -3.710938 4.949219 -3.710938 C 4.953125 -3.710938 4.960938 -3.707031 4.964844 -3.703125 C 5.007812 -3.691406 5.066406 -3.683594 5.144531 -3.683594 L 6.632812 -3.683594 C 6.710938 -3.683594 6.769531 -3.691406 6.8125 -3.703125 C 6.820312 -3.707031 6.824219 -3.710938 6.828125 -3.710938 C 6.824219 -3.710938 6.820312 -3.707031 6.816406 -3.703125 C 6.8125 -3.699219 6.8125 -3.695312 6.808594 -3.695312 C 6.8125 -3.695312 6.8125 -3.703125 6.816406 -3.710938 C 6.832031 -3.75 6.835938 -3.8125 6.835938 -3.886719 L 6.835938 -5.867188 C 6.835938 -6.191406 6.9375 -6.457031 7.144531 -6.660156 C 7.347656 -6.863281 7.613281 -6.964844 7.9375 -6.964844 L 10.125 -6.964844 C 10.449219 -6.964844 10.714844 -6.863281 10.917969 -6.660156 C 11.121094 -6.457031 11.226562 -6.191406 11.226562 -5.867188 L 11.226562 -3.351562 C 11.226562 -2.066406 10.867188 -1.0625 10.152344 -0.347656 C 9.433594 0.371094 8.433594 0.726562 7.144531 0.726562 L 4.539062 0.726562 C 3.253906 0.726562 2.25 0.371094 1.527344 -0.34375 C 0.800781 -1.058594 0.4375 -2.0625 0.4375 -3.351562 L 0.4375 -12.941406 C 0.4375 -14.246094 0.800781 -15.253906 1.527344 -15.964844 C 2.253906 -16.667969 3.253906 -17.019531 4.539062 -17.019531 L 7.144531 -17.019531 C 8.429688 -17.019531 9.429688 -16.667969 10.148438 -15.960938 C 10.867188 -15.253906 11.226562 -14.246094 11.226562 -12.941406 Z M 9.769531 -12.941406 C 9.769531 -13.839844 9.554688 -14.5 9.125 -14.925781 C 8.691406 -15.351562 8.03125 -15.566406 7.144531 -15.566406 L 4.539062 -15.566406 C 3.648438 -15.566406 2.984375 -15.351562 2.542969 -14.921875 C 2.109375 -14.5 1.890625 -13.839844 1.890625 -12.941406 L 1.890625 -3.351562 C 1.890625 -2.46875 2.109375 -1.8125 2.546875 -1.378906 C 2.988281 -0.945312 3.652344 -0.726562 4.539062 -0.726562 L 7.144531 -0.726562 C 8.03125 -0.726562 8.691406 -0.945312 9.121094 -1.375 C 9.554688 -1.808594 9.769531 -2.464844 9.769531 -3.351562 L 9.769531 -5.867188 C 9.769531 -5.847656 9.773438 -5.828125 9.785156 -5.796875 C 9.804688 -5.738281 9.839844 -5.679688 9.890625 -5.628906 C 9.941406 -5.582031 9.996094 -5.546875 10.058594 -5.523438 C 10.085938 -5.515625 10.109375 -5.511719 10.125 -5.511719 L 7.9375 -5.511719 C 7.953125 -5.511719 7.976562 -5.515625 8.003906 -5.523438 C 8.066406 -5.546875 8.121094 -5.582031 8.171875 -5.628906 C 8.222656 -5.679688 8.257812 -5.738281 8.277344 -5.796875 C 8.289062 -5.828125 8.292969 -5.847656 8.292969 -5.867188 L 8.292969 -3.886719 C 8.292969 -3.375 8.144531 -2.972656 7.847656 -2.675781 C 7.550781 -2.378906 7.144531 -2.230469 6.632812 -2.230469 L 5.144531 -2.230469 C 4.632812 -2.230469 4.230469 -2.378906 3.929688 -2.675781 C 3.632812 -2.972656 3.484375 -3.375 3.484375 -3.886719 L 3.484375 -12.335938 C 3.484375 -12.847656 3.632812 -13.25 3.929688 -13.550781 C 4.230469 -13.847656 4.632812 -13.996094 5.144531 -13.996094 L 6.632812 -13.996094 C 7.144531 -13.996094 7.550781 -13.847656 7.847656 -13.550781 C 8.144531 -13.25 8.292969 -12.847656 8.292969 -12.335938 L 8.292969 -10.425781 C 8.292969 -10.445312 8.289062 -10.464844 8.277344 -10.496094 C 8.257812 -10.558594 8.222656 -10.613281 8.171875 -10.664062 C 8.121094 -10.710938 8.066406 -10.746094 8.003906 -10.769531 C 7.976562 -10.777344 7.953125 -10.78125 7.9375 -10.78125 L 10.125 -10.78125 C 10.109375 -10.78125 10.085938 -10.777344 10.058594 -10.769531 C 9.996094 -10.746094 9.941406 -10.710938 9.890625 -10.664062 C 9.839844 -10.613281 9.804688 -10.558594 9.785156 -10.496094 C 9.773438 -10.464844 9.769531 -10.445312 9.769531 -10.425781 Z M 9.769531 -12.941406 "/></g></g><g style="fill:#b21a22;fill-opacity:1;"><g transform="translate(68.520764, 75.284724)"><path style="stroke:none" d="M 0.4375 -3.351562 L 0.4375 -12.941406 C 0.4375 -14.246094 0.796875 -15.253906 1.515625 -15.960938 C 2.230469 -16.667969 3.230469 -17.019531 4.515625 -17.019531 L 7.121094 -17.019531 C 8.425781 -17.019531 9.429688 -16.667969 10.140625 -15.957031 C 10.847656 -15.25 11.203125 -14.242188 11.203125 -12.941406 L 11.203125 -3.351562 C 11.203125 -2.066406 10.847656 -1.066406 10.140625 -0.351562 C 9.433594 0.367188 8.425781 0.726562 7.121094 0.726562 L 4.515625 0.726562 C 3.226562 0.726562 2.226562 0.371094 1.511719 -0.347656 C 0.792969 -1.0625 0.4375 -2.066406 0.4375 -3.351562 Z M 1.890625 -3.351562 C 1.890625 -2.464844 2.105469 -1.808594 2.539062 -1.375 C 2.972656 -0.945312 3.628906 -0.726562 4.515625 -0.726562 L 7.121094 -0.726562 C 8.019531 -0.726562 8.683594 -0.941406 9.105469 -1.371094 C 9.535156 -1.804688 9.746094 -2.464844 9.746094 -3.351562 L 9.746094 -12.941406 C 9.746094 -13.84375 9.535156 -14.503906 9.109375 -14.929688 C 8.6875 -15.355469 8.023438 -15.566406 7.121094 -15.566406 L 4.515625 -15.566406 C 3.628906 -15.566406 2.96875 -15.351562 2.535156 -14.925781 C 2.105469 -14.5 1.890625 -13.839844 1.890625 -12.941406 Z M 5.121094 -3.730469 L 6.609375 -3.730469 C 6.6875 -3.730469 6.746094 -3.738281 6.789062 -3.75 C 6.796875 -3.753906 6.800781 -3.753906 6.804688 -3.757812 C 6.800781 -3.753906 6.796875 -3.753906 6.792969 -3.75 C 6.789062 -3.746094 6.789062 -3.742188 6.785156 -3.742188 C 6.789062 -3.742188 6.789062 -3.75 6.792969 -3.757812 C 6.808594 -3.796875 6.8125 -3.855469 6.8125 -3.933594 L 6.8125 -12.359375 C 6.8125 -12.4375 6.808594 -12.496094 6.792969 -12.535156 C 6.789062 -12.542969 6.789062 -12.550781 6.785156 -12.550781 C 6.789062 -12.550781 6.789062 -12.546875 6.792969 -12.542969 C 6.796875 -12.539062 6.800781 -12.539062 6.804688 -12.535156 C 6.800781 -12.539062 6.796875 -12.539062 6.789062 -12.542969 C 6.746094 -12.554688 6.6875 -12.5625 6.609375 -12.5625 L 5.121094 -12.5625 C 5.042969 -12.5625 4.984375 -12.554688 4.945312 -12.542969 C 4.9375 -12.539062 4.929688 -12.539062 4.925781 -12.535156 C 4.929688 -12.539062 4.933594 -12.539062 4.9375 -12.542969 C 4.941406 -12.546875 4.941406 -12.550781 4.945312 -12.550781 C 4.941406 -12.550781 4.941406 -12.542969 4.9375 -12.535156 C 4.925781 -12.496094 4.917969 -12.4375 4.917969 -12.359375 L 4.917969 -3.933594 C 4.917969 -3.855469 4.925781 -3.796875 4.9375 -3.757812 C 4.941406 -3.75 4.941406 -3.742188 4.945312 -3.742188 C 4.941406 -3.742188 4.941406 -3.746094 4.9375 -3.75 C 4.933594 -3.753906 4.929688 -3.753906 4.925781 -3.757812 C 4.929688 -3.753906 4.9375 -3.753906 4.945312 -3.75 C 4.984375 -3.738281 5.042969 -3.730469 5.121094 -3.730469 Z M 5.121094 -2.273438 C 4.609375 -2.273438 4.207031 -2.421875 3.90625 -2.722656 C 3.609375 -3.019531 3.460938 -3.421875 3.460938 -3.933594 L 3.460938 -12.359375 C 3.460938 -12.871094 3.609375 -13.273438 3.90625 -13.570312 C 4.207031 -13.871094 4.609375 -14.019531 5.121094 -14.019531 L 6.609375 -14.019531 C 7.121094 -14.019531 7.527344 -13.871094 7.824219 -13.570312 C 8.121094 -13.273438 8.269531 -12.871094 8.269531 -12.359375 L 8.269531 -3.933594 C 8.269531 -3.421875 8.121094 -3.019531 7.824219 -2.722656 C 7.527344 -2.421875 7.121094 -2.273438 6.609375 -2.273438 Z M 5.121094 -2.273438 "/></g></g><g style="fill:#b21a22;fill-opacity:1;"><g transform="translate(80.15508, 75.284724)"><path style="stroke:none" d="M 11.203125 -12.941406 L 11.203125 -8.261719 C 11.203125 -6.644531 10.652344 -5.492188 9.554688 -4.804688 L 9.171875 -5.421875 L 9.878906 -5.59375 L 11.089844 -0.589844 L 10.382812 -0.417969 L 11.082031 -0.613281 C 11.1875 -0.238281 11.136719 0.078125 10.933594 0.34375 C 10.730469 0.597656 10.441406 0.726562 10.054688 0.726562 L 7.773438 0.726562 C 7.492188 0.726562 7.25 0.644531 7.050781 0.480469 C 6.851562 0.316406 6.726562 0.101562 6.667969 -0.171875 L 7.378906 -0.324219 L 6.671875 -0.152344 L 5.554688 -4.738281 L 6.261719 -4.910156 L 6.261719 -4.183594 L 4.191406 -4.183594 L 4.191406 -4.910156 L 4.917969 -4.910156 L 4.917969 -0.371094 C 4.917969 -0.046875 4.816406 0.21875 4.609375 0.421875 C 4.40625 0.625 4.140625 0.726562 3.816406 0.726562 L 1.535156 0.726562 C 1.210938 0.726562 0.945312 0.625 0.742188 0.421875 C 0.539062 0.21875 0.4375 -0.046875 0.4375 -0.371094 L 0.4375 -15.921875 C 0.4375 -16.246094 0.539062 -16.511719 0.742188 -16.714844 C 0.945312 -16.917969 1.210938 -17.019531 1.535156 -17.019531 L 7.121094 -17.019531 C 8.425781 -17.019531 9.429688 -16.667969 10.140625 -15.957031 C 10.847656 -15.25 11.203125 -14.242188 11.203125 -12.941406 Z M 9.746094 -12.941406 C 9.746094 -13.84375 9.535156 -14.503906 9.109375 -14.929688 C 8.6875 -15.355469 8.023438 -15.566406 7.121094 -15.566406 L 1.535156 -15.566406 C 1.554688 -15.566406 1.574219 -15.570312 1.601562 -15.578125 C 1.664062 -15.601562 1.722656 -15.636719 1.769531 -15.6875 C 1.820312 -15.734375 1.855469 -15.792969 1.878906 -15.855469 C 1.886719 -15.882812 1.890625 -15.902344 1.890625 -15.921875 L 1.890625 -0.371094 C 1.890625 -0.390625 1.886719 -0.410156 1.878906 -0.441406 C 1.855469 -0.5 1.820312 -0.558594 1.769531 -0.609375 C 1.722656 -0.65625 1.664062 -0.691406 1.601562 -0.714844 C 1.574219 -0.722656 1.554688 -0.726562 1.535156 -0.726562 L 3.816406 -0.726562 C 3.800781 -0.726562 3.777344 -0.722656 3.75 -0.714844 C 3.6875 -0.691406 3.632812 -0.65625 3.582031 -0.609375 C 3.53125 -0.558594 3.496094 -0.5 3.476562 -0.441406 C 3.46875 -0.410156 3.460938 -0.390625 3.460938 -0.371094 L 3.460938 -5.636719 L 6.832031 -5.636719 L 8.085938 -0.488281 L 8.089844 -0.476562 C 8.078125 -0.535156 8.039062 -0.589844 7.976562 -0.644531 C 7.90625 -0.699219 7.839844 -0.726562 7.773438 -0.726562 L 10.054688 -0.726562 C 10.039062 -0.726562 10.023438 -0.71875 10.003906 -0.714844 C 9.917969 -0.683594 9.84375 -0.628906 9.785156 -0.550781 C 9.722656 -0.46875 9.6875 -0.382812 9.679688 -0.289062 C 9.675781 -0.257812 9.675781 -0.234375 9.679688 -0.222656 L 9.675781 -0.234375 L 8.339844 -5.761719 L 8.785156 -6.039062 C 9.425781 -6.441406 9.746094 -7.183594 9.746094 -8.261719 Z M 4.191406 -8.640625 L 6.515625 -8.640625 C 6.59375 -8.640625 6.652344 -8.648438 6.695312 -8.664062 C 6.703125 -8.664062 6.707031 -8.667969 6.710938 -8.667969 C 6.707031 -8.667969 6.703125 -8.664062 6.703125 -8.660156 C 6.699219 -8.65625 6.695312 -8.65625 6.695312 -8.652344 C 6.695312 -8.65625 6.699219 -8.660156 6.699219 -8.667969 C 6.714844 -8.710938 6.722656 -8.769531 6.722656 -8.84375 L 6.722656 -12.359375 C 6.722656 -12.4375 6.714844 -12.496094 6.699219 -12.535156 C 6.699219 -12.542969 6.695312 -12.550781 6.695312 -12.550781 C 6.695312 -12.550781 6.699219 -12.546875 6.703125 -12.542969 C 6.703125 -12.539062 6.707031 -12.539062 6.710938 -12.535156 C 6.707031 -12.539062 6.703125 -12.539062 6.695312 -12.542969 C 6.652344 -12.554688 6.59375 -12.5625 6.515625 -12.5625 L 4.191406 -12.5625 L 4.191406 -13.289062 L 4.917969 -13.289062 L 4.917969 -7.914062 L 4.191406 -7.914062 Z M 3.460938 -7.1875 L 3.460938 -14.019531 L 6.515625 -14.019531 C 7.027344 -14.019531 7.433594 -13.871094 7.730469 -13.570312 C 8.027344 -13.273438 8.175781 -12.871094 8.175781 -12.359375 L 8.175781 -8.84375 C 8.175781 -8.332031 8.027344 -7.929688 7.730469 -7.632812 C 7.433594 -7.335938 7.027344 -7.1875 6.515625 -7.1875 Z M 3.460938 -7.1875 "/></g></g><g style="fill:#b21a22;fill-opacity:1;"><g transform="translate(91.789396, 75.284724)"><path style="stroke:none" d="M 0.4375 -0.371094 L 0.4375 -15.921875 C 0.4375 -16.246094 0.539062 -16.511719 0.742188 -16.714844 C 0.945312 -16.917969 1.210938 -17.019531 1.535156 -17.019531 L 7.121094 -17.019531 C 8.425781 -17.019531 9.433594 -16.660156 10.140625 -15.941406 C 10.847656 -15.226562 11.203125 -14.21875 11.203125 -12.917969 L 11.203125 -3.351562 C 11.203125 -2.066406 10.847656 -1.066406 10.140625 -0.351562 C 9.433594 0.367188 8.425781 0.726562 7.121094 0.726562 L 1.535156 0.726562 C 1.210938 0.726562 0.945312 0.625 0.742188 0.421875 C 0.539062 0.21875 0.4375 -0.046875 0.4375 -0.371094 Z M 1.890625 -0.371094 C 1.890625 -0.390625 1.886719 -0.410156 1.878906 -0.441406 C 1.855469 -0.5 1.820312 -0.558594 1.769531 -0.609375 C 1.722656 -0.65625 1.664062 -0.691406 1.601562 -0.714844 C 1.574219 -0.722656 1.554688 -0.726562 1.535156 -0.726562 L 7.121094 -0.726562 C 8.019531 -0.726562 8.683594 -0.941406 9.105469 -1.371094 C 9.535156 -1.804688 9.746094 -2.464844 9.746094 -3.351562 L 9.746094 -12.917969 C 9.746094 -13.820312 9.535156 -14.488281 9.105469 -14.921875 C 8.683594 -15.351562 8.019531 -15.566406 7.121094 -15.566406 L 1.535156 -15.566406 C 1.554688 -15.566406 1.574219 -15.570312 1.601562 -15.578125 C 1.664062 -15.601562 1.722656 -15.636719 1.769531 -15.6875 C 1.820312 -15.734375 1.855469 -15.792969 1.878906 -15.855469 C 1.886719 -15.882812 1.890625 -15.902344 1.890625 -15.921875 Z M 4.328125 -3.800781 L 6.472656 -3.800781 C 6.546875 -3.800781 6.605469 -3.808594 6.648438 -3.820312 C 6.65625 -3.824219 6.660156 -3.824219 6.664062 -3.828125 C 6.660156 -3.824219 6.65625 -3.824219 6.65625 -3.820312 C 6.652344 -3.816406 6.648438 -3.8125 6.648438 -3.808594 C 6.648438 -3.8125 6.652344 -3.820312 6.652344 -3.828125 C 6.667969 -3.867188 6.675781 -3.925781 6.675781 -4.003906 L 6.675781 -12.265625 C 6.675781 -12.347656 6.667969 -12.414062 6.652344 -12.460938 C 6.648438 -12.46875 6.644531 -12.476562 6.644531 -12.480469 C 6.644531 -12.480469 6.644531 -12.476562 6.648438 -12.472656 L 6.644531 -12.472656 C 6.601562 -12.488281 6.546875 -12.492188 6.472656 -12.492188 L 4.328125 -12.492188 L 4.328125 -13.222656 L 5.058594 -13.222656 L 5.058594 -3.074219 L 4.328125 -3.074219 Z M 3.601562 -2.34375 L 3.601562 -13.949219 L 6.472656 -13.949219 C 6.984375 -13.949219 7.390625 -13.796875 7.691406 -13.488281 C 7.984375 -13.191406 8.128906 -12.78125 8.128906 -12.265625 L 8.128906 -4.003906 C 8.128906 -3.492188 7.980469 -3.089844 7.683594 -2.789062 C 7.386719 -2.492188 6.980469 -2.34375 6.472656 -2.34375 Z M 3.601562 -2.34375 "/></g></g><g style="fill:#b21a22;fill-opacity:1;"><g transform="translate(103.423712, 75.284724)"><path style="stroke:none" d="M 0.4375 -7.308594 L 0.4375 -9.449219 C 0.4375 -9.804688 0.546875 -10.09375 0.765625 -10.3125 C 0.984375 -10.53125 1.273438 -10.644531 1.628906 -10.644531 L 5.308594 -10.644531 C 5.664062 -10.644531 5.949219 -10.53125 6.171875 -10.3125 C 6.390625 -10.09375 6.5 -9.804688 6.5 -9.449219 L 6.5 -7.308594 C 6.5 -6.953125 6.390625 -6.664062 6.171875 -6.445312 C 5.949219 -6.226562 5.664062 -6.117188 5.308594 -6.117188 L 1.628906 -6.117188 C 1.273438 -6.117188 0.984375 -6.226562 0.765625 -6.445312 C 0.546875 -6.664062 0.4375 -6.953125 0.4375 -7.308594 Z M 1.890625 -7.308594 C 1.890625 -7.304688 1.890625 -7.304688 1.890625 -7.300781 C 1.890625 -7.3125 1.886719 -7.324219 1.882812 -7.335938 C 1.867188 -7.386719 1.835938 -7.433594 1.792969 -7.472656 C 1.753906 -7.515625 1.707031 -7.546875 1.65625 -7.5625 C 1.644531 -7.566406 1.632812 -7.570312 1.625 -7.570312 C 1.621094 -7.570312 1.621094 -7.570312 1.621094 -7.570312 C 1.625 -7.570312 1.625 -7.570312 1.628906 -7.570312 L 5.308594 -7.570312 C 5.308594 -7.570312 5.3125 -7.570312 5.316406 -7.570312 C 5.316406 -7.570312 5.3125 -7.570312 5.3125 -7.570312 C 5.304688 -7.570312 5.292969 -7.566406 5.28125 -7.5625 C 5.230469 -7.546875 5.183594 -7.515625 5.140625 -7.472656 C 5.097656 -7.433594 5.070312 -7.386719 5.054688 -7.335938 C 5.050781 -7.324219 5.046875 -7.3125 5.046875 -7.300781 C 5.042969 -7.300781 5.042969 -7.300781 5.042969 -7.300781 C 5.046875 -7.304688 5.046875 -7.304688 5.046875 -7.308594 L 5.046875 -9.449219 C 5.046875 -9.453125 5.046875 -9.457031 5.042969 -9.457031 C 5.042969 -9.457031 5.042969 -9.457031 5.046875 -9.457031 C 5.046875 -9.445312 5.050781 -9.4375 5.054688 -9.421875 C 5.070312 -9.375 5.097656 -9.328125 5.140625 -9.285156 C 5.183594 -9.242188 5.230469 -9.214844 5.28125 -9.195312 C 5.292969 -9.191406 5.304688 -9.191406 5.3125 -9.1875 C 5.3125 -9.1875 5.316406 -9.1875 5.316406 -9.1875 C 5.3125 -9.1875 5.308594 -9.1875 5.308594 -9.1875 L 1.628906 -9.1875 C 1.625 -9.1875 1.625 -9.1875 1.621094 -9.1875 C 1.621094 -9.1875 1.621094 -9.1875 1.625 -9.1875 C 1.632812 -9.191406 1.644531 -9.191406 1.65625 -9.195312 C 1.707031 -9.214844 1.753906 -9.242188 1.792969 -9.285156 C 1.835938 -9.328125 1.867188 -9.375 1.882812 -9.421875 C 1.886719 -9.4375 1.890625 -9.445312 1.890625 -9.457031 C 1.890625 -9.457031 1.890625 -9.453125 1.890625 -9.449219 Z M 1.890625 -7.308594 "/></g></g><g style="fill:#b21a22;fill-opacity:1;"><g transform="translate(19.927684, 107.735407)"><path style="stroke:none" d="M 9.636719 -15.566406 L 1.070312 -15.566406 C 1.085938 -15.566406 1.109375 -15.570312 1.136719 -15.578125 C 1.199219 -15.601562 1.253906 -15.636719 1.304688 -15.6875 C 1.355469 -15.734375 1.390625 -15.792969 1.410156 -15.855469 C 1.421875 -15.882812 1.425781 -15.902344 1.425781 -15.921875 L 1.425781 -13.59375 C 1.425781 -13.609375 1.421875 -13.632812 1.410156 -13.660156 C 1.390625 -13.722656 1.355469 -13.777344 1.304688 -13.828125 C 1.253906 -13.878906 1.199219 -13.914062 1.136719 -13.933594 C 1.109375 -13.945312 1.085938 -13.949219 1.070312 -13.949219 L 4.5 -13.949219 L 4.5 -0.371094 C 4.5 -0.390625 4.492188 -0.410156 4.484375 -0.441406 C 4.464844 -0.5 4.429688 -0.558594 4.378906 -0.609375 C 4.328125 -0.65625 4.273438 -0.691406 4.210938 -0.714844 C 4.183594 -0.722656 4.160156 -0.726562 4.144531 -0.726562 L 6.5625 -0.726562 C 6.546875 -0.726562 6.523438 -0.722656 6.496094 -0.714844 C 6.433594 -0.691406 6.378906 -0.65625 6.328125 -0.609375 C 6.277344 -0.558594 6.242188 -0.5 6.222656 -0.441406 C 6.214844 -0.410156 6.207031 -0.390625 6.207031 -0.371094 L 6.207031 -13.949219 L 9.636719 -13.949219 C 9.621094 -13.949219 9.597656 -13.945312 9.570312 -13.933594 C 9.507812 -13.914062 9.449219 -13.878906 9.402344 -13.828125 C 9.351562 -13.777344 9.316406 -13.722656 9.296875 -13.660156 C 9.285156 -13.632812 9.28125 -13.609375 9.28125 -13.59375 L 9.28125 -15.921875 C 9.28125 -15.902344 9.285156 -15.882812 9.296875 -15.855469 C 9.316406 -15.792969 9.351562 -15.734375 9.402344 -15.6875 C 9.449219 -15.636719 9.507812 -15.601562 9.570312 -15.578125 C 9.597656 -15.570312 9.621094 -15.566406 9.636719 -15.566406 Z M 9.636719 -17.019531 C 9.960938 -17.019531 10.226562 -16.917969 10.429688 -16.714844 C 10.632812 -16.511719 10.734375 -16.246094 10.734375 -15.921875 L 10.734375 -13.59375 C 10.734375 -13.269531 10.632812 -13.003906 10.429688 -12.800781 C 10.226562 -12.59375 9.960938 -12.492188 9.636719 -12.492188 L 6.9375 -12.492188 L 6.9375 -13.222656 L 7.664062 -13.222656 L 7.664062 -0.371094 C 7.664062 -0.046875 7.5625 0.21875 7.359375 0.421875 C 7.152344 0.625 6.890625 0.726562 6.5625 0.726562 L 4.144531 0.726562 C 3.816406 0.726562 3.554688 0.625 3.347656 0.421875 C 3.144531 0.21875 3.042969 -0.046875 3.042969 -0.371094 L 3.042969 -13.222656 L 3.769531 -13.222656 L 3.769531 -12.492188 L 1.070312 -12.492188 C 0.746094 -12.492188 0.480469 -12.59375 0.277344 -12.800781 C 0.0742188 -13.003906 -0.0273438 -13.269531 -0.0273438 -13.59375 L -0.0273438 -15.921875 C -0.0273438 -16.246094 0.0742188 -16.511719 0.277344 -16.714844 C 0.480469 -16.917969 0.746094 -17.019531 1.070312 -17.019531 Z M 9.636719 -17.019531 "/></g></g><g style="fill:#b21a22;fill-opacity:1;"><g transform="translate(30.631256, 107.735407)"><path style="stroke:none" d="M 12.148438 0.726562 L 9.890625 0.726562 C 9.609375 0.726562 9.367188 0.640625 9.167969 0.464844 C 8.984375 0.304688 8.867188 0.09375 8.808594 -0.171875 L 9.519531 -0.324219 L 8.816406 -0.148438 L 8.070312 -3.078125 L 8.773438 -3.257812 L 8.773438 -2.53125 L 4.398438 -2.53125 L 4.398438 -3.257812 L 5.105469 -3.085938 L 4.382812 -0.152344 L 3.675781 -0.324219 L 4.390625 -0.171875 C 4.332031 0.09375 4.210938 0.304688 4.027344 0.464844 C 3.828125 0.640625 3.589844 0.726562 3.304688 0.726562 L 1.023438 0.726562 C 0.644531 0.726562 0.355469 0.597656 0.160156 0.34375 C -0.0390625 0.0820312 -0.0859375 -0.234375 0.0234375 -0.601562 L 0.722656 -0.394531 L 0.015625 -0.570312 L 3.878906 -16.140625 L 4.585938 -15.96875 L 3.875 -16.121094 C 3.933594 -16.394531 4.058594 -16.613281 4.257812 -16.773438 C 4.457031 -16.9375 4.699219 -17.019531 4.980469 -17.019531 L 8.214844 -17.019531 C 8.5 -17.019531 8.742188 -16.9375 8.941406 -16.773438 C 9.136719 -16.613281 9.265625 -16.394531 9.324219 -16.121094 L 8.613281 -15.96875 L 9.316406 -16.140625 L 13.183594 -0.570312 L 12.476562 -0.394531 L 13.171875 -0.601562 C 13.285156 -0.222656 13.230469 0.0976562 13.015625 0.363281 C 12.8125 0.605469 12.527344 0.726562 12.148438 0.726562 Z M 12.148438 -0.726562 C 12.152344 -0.726562 12.15625 -0.726562 12.160156 -0.726562 C 12.160156 -0.726562 12.15625 -0.726562 12.15625 -0.726562 C 12.144531 -0.726562 12.128906 -0.722656 12.109375 -0.714844 C 12.027344 -0.6875 11.953125 -0.636719 11.890625 -0.5625 C 11.820312 -0.476562 11.78125 -0.382812 11.773438 -0.28125 C 11.769531 -0.238281 11.773438 -0.210938 11.777344 -0.191406 L 11.773438 -0.207031 L 7.902344 -15.804688 L 7.902344 -15.816406 C 7.914062 -15.757812 7.953125 -15.703125 8.015625 -15.648438 C 8.085938 -15.59375 8.152344 -15.566406 8.214844 -15.566406 L 4.980469 -15.566406 C 5.046875 -15.566406 5.113281 -15.59375 5.179688 -15.648438 C 5.246094 -15.703125 5.285156 -15.757812 5.296875 -15.816406 L 5.292969 -15.804688 L 1.421875 -0.207031 L 1.417969 -0.191406 C 1.425781 -0.207031 1.425781 -0.230469 1.421875 -0.265625 C 1.417969 -0.363281 1.382812 -0.457031 1.316406 -0.539062 C 1.253906 -0.625 1.175781 -0.679688 1.085938 -0.710938 C 1.058594 -0.722656 1.035156 -0.726562 1.023438 -0.726562 L 3.304688 -0.726562 C 3.222656 -0.726562 3.144531 -0.695312 3.070312 -0.628906 C 3.011719 -0.578125 2.976562 -0.527344 2.964844 -0.476562 L 2.96875 -0.488281 L 3.828125 -3.984375 L 9.339844 -3.984375 L 10.226562 -0.492188 L 10.230469 -0.476562 C 10.222656 -0.527344 10.1875 -0.578125 10.125 -0.628906 C 10.050781 -0.695312 9.972656 -0.726562 9.890625 -0.726562 Z M 7.34375 -5.792969 L 5.878906 -12.125 L 6.585938 -12.289062 L 7.296875 -12.125 L 5.828125 -5.792969 L 5.121094 -5.957031 L 5.121094 -6.6875 L 8.054688 -6.6875 L 8.054688 -5.957031 Z M 8.96875 -5.230469 L 4.207031 -5.230469 L 5.878906 -12.453125 L 7.296875 -12.453125 L 8.761719 -6.121094 Z M 8.96875 -5.230469 "/></g></g><g style="fill:#b21a22;fill-opacity:1;"><g transform="translate(43.824573, 107.735407)"><path style="stroke:none" d="M 11.226562 -12.941406 L 11.226562 -9.800781 C 11.226562 -9.171875 11.019531 -8.640625 10.605469 -8.203125 C 10.21875 -7.796875 9.738281 -7.539062 9.164062 -7.429688 L 9.03125 -8.148438 L 9.757812 -8.148438 L 9.757812 -8.101562 L 9.03125 -8.101562 L 9.136719 -8.820312 C 9.726562 -8.734375 10.21875 -8.476562 10.613281 -8.046875 C 11.019531 -7.605469 11.226562 -7.070312 11.226562 -6.449219 L 11.226562 -3.351562 C 11.226562 -2.066406 10.867188 -1.0625 10.152344 -0.347656 C 9.433594 0.371094 8.425781 0.726562 7.121094 0.726562 L 1.535156 0.726562 C 1.210938 0.726562 0.945312 0.625 0.742188 0.421875 C 0.539062 0.21875 0.4375 -0.046875 0.4375 -0.371094 L 0.4375 -15.921875 C 0.4375 -16.246094 0.539062 -16.511719 0.742188 -16.714844 C 0.945312 -16.917969 1.210938 -17.019531 1.535156 -17.019531 L 7.121094 -17.019531 C 8.421875 -17.019531 9.429688 -16.667969 10.148438 -15.960938 C 10.867188 -15.253906 11.226562 -14.246094 11.226562 -12.941406 Z M 9.769531 -12.941406 C 9.769531 -13.839844 9.554688 -14.5 9.125 -14.925781 C 8.691406 -15.351562 8.023438 -15.566406 7.121094 -15.566406 L 1.535156 -15.566406 C 1.554688 -15.566406 1.574219 -15.570312 1.601562 -15.578125 C 1.664062 -15.601562 1.722656 -15.636719 1.769531 -15.6875 C 1.820312 -15.734375 1.855469 -15.792969 1.878906 -15.855469 C 1.886719 -15.882812 1.890625 -15.902344 1.890625 -15.921875 L 1.890625 -0.371094 C 1.890625 -0.390625 1.886719 -0.410156 1.878906 -0.441406 C 1.855469 -0.5 1.820312 -0.558594 1.769531 -0.609375 C 1.722656 -0.65625 1.664062 -0.691406 1.601562 -0.714844 C 1.574219 -0.722656 1.554688 -0.726562 1.535156 -0.726562 L 7.121094 -0.726562 C 8.023438 -0.726562 8.691406 -0.945312 9.121094 -1.375 C 9.554688 -1.808594 9.769531 -2.464844 9.769531 -3.351562 L 9.769531 -6.449219 C 9.769531 -6.691406 9.695312 -6.894531 9.542969 -7.058594 C 9.378906 -7.238281 9.175781 -7.34375 8.925781 -7.378906 L 8.304688 -7.472656 L 8.304688 -8.75 L 8.898438 -8.863281 C 9.164062 -8.910156 9.378906 -9.023438 9.550781 -9.207031 C 9.695312 -9.359375 9.769531 -9.558594 9.769531 -9.800781 Z M 6.8125 -10.566406 L 6.8125 -12.429688 C 6.8125 -12.503906 6.808594 -12.566406 6.792969 -12.605469 C 6.789062 -12.613281 6.789062 -12.621094 6.785156 -12.621094 C 6.789062 -12.621094 6.789062 -12.617188 6.792969 -12.613281 C 6.796875 -12.609375 6.800781 -12.605469 6.804688 -12.605469 C 6.800781 -12.609375 6.796875 -12.609375 6.789062 -12.613281 C 6.746094 -12.625 6.6875 -12.632812 6.609375 -12.632812 L 4.050781 -12.632812 L 4.050781 -13.359375 L 4.777344 -13.359375 L 4.777344 -9.660156 L 4.050781 -9.660156 L 4.050781 -10.386719 L 6.609375 -10.386719 C 6.6875 -10.386719 6.75 -10.394531 6.792969 -10.40625 C 6.800781 -10.410156 6.808594 -10.414062 6.808594 -10.414062 C 6.808594 -10.414062 6.804688 -10.410156 6.800781 -10.40625 C 6.796875 -10.402344 6.792969 -10.398438 6.789062 -10.394531 C 6.792969 -10.398438 6.792969 -10.398438 6.792969 -10.40625 C 6.808594 -10.441406 6.8125 -10.496094 6.8125 -10.566406 Z M 8.269531 -10.566406 C 8.269531 -10.058594 8.117188 -9.660156 7.816406 -9.367188 C 7.519531 -9.078125 7.117188 -8.933594 6.609375 -8.933594 L 3.324219 -8.933594 L 3.324219 -14.085938 L 6.609375 -14.085938 C 7.121094 -14.085938 7.527344 -13.9375 7.824219 -13.640625 C 8.121094 -13.34375 8.269531 -12.941406 8.269531 -12.429688 Z M 6.8125 -3.863281 L 6.8125 -5.65625 C 6.8125 -5.734375 6.808594 -5.792969 6.792969 -5.832031 C 6.789062 -5.839844 6.789062 -5.847656 6.785156 -5.847656 C 6.789062 -5.847656 6.789062 -5.84375 6.792969 -5.839844 C 6.796875 -5.835938 6.800781 -5.835938 6.804688 -5.832031 C 6.800781 -5.835938 6.796875 -5.835938 6.789062 -5.839844 C 6.746094 -5.851562 6.6875 -5.859375 6.609375 -5.859375 L 4.050781 -5.859375 L 4.050781 -6.585938 L 4.777344 -6.585938 L 4.777344 -2.933594 L 4.050781 -2.933594 L 4.050781 -3.660156 L 6.609375 -3.660156 C 6.6875 -3.660156 6.746094 -3.667969 6.789062 -3.679688 C 6.796875 -3.683594 6.800781 -3.6875 6.804688 -3.6875 C 6.800781 -3.6875 6.796875 -3.683594 6.792969 -3.679688 C 6.789062 -3.675781 6.789062 -3.671875 6.785156 -3.671875 C 6.789062 -3.671875 6.789062 -3.679688 6.792969 -3.6875 C 6.808594 -3.726562 6.8125 -3.789062 6.8125 -3.863281 Z M 8.269531 -3.863281 C 8.269531 -3.351562 8.121094 -2.949219 7.824219 -2.652344 C 7.527344 -2.355469 7.121094 -2.207031 6.609375 -2.207031 L 3.324219 -2.207031 L 3.324219 -7.316406 L 6.609375 -7.316406 C 7.121094 -7.316406 7.527344 -7.164062 7.824219 -6.867188 C 8.121094 -6.570312 8.269531 -6.167969 8.269531 -5.65625 Z M 8.269531 -3.863281 "/></g></g><g style="fill:#b21a22;fill-opacity:1;"><g transform="translate(55.482161, 107.735407)"><path style="stroke:none" d="M 3.601562 -3.074219 L 3.601562 -15.921875 C 3.601562 -15.902344 3.605469 -15.882812 3.617188 -15.855469 C 3.636719 -15.792969 3.671875 -15.734375 3.722656 -15.6875 C 3.773438 -15.636719 3.828125 -15.601562 3.890625 -15.578125 C 3.917969 -15.570312 3.941406 -15.566406 3.957031 -15.566406 L 1.535156 -15.566406 C 1.554688 -15.566406 1.574219 -15.570312 1.601562 -15.578125 C 1.664062 -15.601562 1.722656 -15.636719 1.769531 -15.6875 C 1.820312 -15.734375 1.855469 -15.792969 1.878906 -15.855469 C 1.886719 -15.882812 1.890625 -15.902344 1.890625 -15.921875 L 1.890625 -0.371094 C 1.890625 -0.390625 1.886719 -0.410156 1.878906 -0.441406 C 1.855469 -0.5 1.820312 -0.558594 1.769531 -0.609375 C 1.722656 -0.65625 1.664062 -0.691406 1.601562 -0.714844 C 1.574219 -0.722656 1.554688 -0.726562 1.535156 -0.726562 L 8.9375 -0.726562 C 8.921875 -0.726562 8.898438 -0.722656 8.871094 -0.714844 C 8.808594 -0.691406 8.753906 -0.65625 8.703125 -0.609375 C 8.652344 -0.558594 8.617188 -0.5 8.597656 -0.441406 C 8.585938 -0.410156 8.582031 -0.390625 8.582031 -0.371094 L 8.582031 -2.699219 C 8.582031 -2.683594 8.585938 -2.660156 8.597656 -2.632812 C 8.617188 -2.570312 8.652344 -2.515625 8.703125 -2.464844 C 8.753906 -2.414062 8.808594 -2.378906 8.871094 -2.359375 C 8.898438 -2.351562 8.921875 -2.34375 8.9375 -2.34375 L 3.601562 -2.34375 Z M 5.058594 -3.074219 L 4.328125 -3.074219 L 4.328125 -3.800781 L 8.9375 -3.800781 C 9.261719 -3.800781 9.527344 -3.699219 9.730469 -3.492188 C 9.9375 -3.289062 10.039062 -3.023438 10.039062 -2.699219 L 10.039062 -0.371094 C 10.039062 -0.046875 9.9375 0.21875 9.730469 0.421875 C 9.527344 0.625 9.261719 0.726562 8.9375 0.726562 L 1.535156 0.726562 C 1.210938 0.726562 0.945312 0.625 0.742188 0.421875 C 0.539062 0.21875 0.4375 -0.046875 0.4375 -0.371094 L 0.4375 -15.921875 C 0.4375 -16.246094 0.539062 -16.511719 0.742188 -16.714844 C 0.945312 -16.917969 1.210938 -17.019531 1.535156 -17.019531 L 3.957031 -17.019531 C 4.28125 -17.019531 4.546875 -16.917969 4.75 -16.714844 C 4.953125 -16.511719 5.058594 -16.246094 5.058594 -15.921875 Z M 5.058594 -3.074219 "/></g></g><g style="fill:#b21a22;fill-opacity:1;"><g transform="translate(65.953045, 107.735407)"><path style="stroke:none" d="M 11.179688 -15.921875 L 11.179688 -13.59375 C 11.179688 -13.269531 11.082031 -13.003906 10.886719 -12.796875 C 10.683594 -12.578125 10.414062 -12.46875 10.078125 -12.46875 L 4.328125 -12.46875 L 4.328125 -13.199219 L 5.058594 -13.199219 L 5.058594 -9.613281 L 4.328125 -9.613281 L 4.328125 -10.339844 L 8.707031 -10.339844 C 9.039062 -10.339844 9.308594 -10.230469 9.515625 -10.011719 C 9.707031 -9.804688 9.804688 -9.542969 9.804688 -9.21875 L 9.804688 -6.914062 C 9.804688 -6.589844 9.707031 -6.324219 9.515625 -6.117188 C 9.308594 -5.898438 9.039062 -5.789062 8.707031 -5.789062 L 4.328125 -5.789062 L 4.328125 -6.515625 L 5.058594 -6.515625 L 5.058594 -3.074219 L 4.328125 -3.074219 L 4.328125 -3.800781 L 10.078125 -3.800781 C 10.402344 -3.800781 10.667969 -3.699219 10.871094 -3.492188 C 11.078125 -3.289062 11.179688 -3.023438 11.179688 -2.699219 L 11.179688 -0.371094 C 11.179688 -0.046875 11.078125 0.21875 10.871094 0.421875 C 10.667969 0.625 10.402344 0.726562 10.078125 0.726562 L 1.511719 0.726562 C 1.1875 0.726562 0.921875 0.621094 0.71875 0.40625 C 0.53125 0.203125 0.4375 -0.0546875 0.4375 -0.371094 L 0.4375 -15.921875 C 0.4375 -16.238281 0.53125 -16.496094 0.71875 -16.699219 C 0.921875 -16.914062 1.1875 -17.019531 1.511719 -17.019531 L 10.078125 -17.019531 C 10.402344 -17.019531 10.667969 -16.917969 10.871094 -16.714844 C 11.078125 -16.511719 11.179688 -16.246094 11.179688 -15.921875 Z M 9.722656 -15.921875 C 9.722656 -15.902344 9.726562 -15.882812 9.738281 -15.855469 C 9.757812 -15.792969 9.792969 -15.734375 9.84375 -15.6875 C 9.894531 -15.636719 9.949219 -15.601562 10.011719 -15.578125 C 10.039062 -15.570312 10.0625 -15.566406 10.078125 -15.566406 L 1.511719 -15.566406 C 1.605469 -15.566406 1.695312 -15.613281 1.78125 -15.703125 C 1.828125 -15.753906 1.863281 -15.808594 1.878906 -15.867188 C 1.886719 -15.890625 1.890625 -15.910156 1.890625 -15.921875 L 1.890625 -0.371094 C 1.890625 -0.382812 1.886719 -0.402344 1.878906 -0.425781 C 1.863281 -0.484375 1.828125 -0.539062 1.78125 -0.589844 C 1.695312 -0.683594 1.605469 -0.726562 1.511719 -0.726562 L 10.078125 -0.726562 C 10.0625 -0.726562 10.039062 -0.722656 10.011719 -0.714844 C 9.949219 -0.691406 9.894531 -0.65625 9.84375 -0.609375 C 9.792969 -0.558594 9.757812 -0.5 9.738281 -0.441406 C 9.726562 -0.410156 9.722656 -0.390625 9.722656 -0.371094 L 9.722656 -2.699219 C 9.722656 -2.683594 9.726562 -2.660156 9.738281 -2.632812 C 9.757812 -2.570312 9.792969 -2.515625 9.84375 -2.464844 C 9.894531 -2.414062 9.949219 -2.378906 10.011719 -2.359375 C 10.039062 -2.351562 10.0625 -2.34375 10.078125 -2.34375 L 3.601562 -2.34375 L 3.601562 -7.246094 L 8.707031 -7.246094 C 8.683594 -7.246094 8.65625 -7.238281 8.625 -7.226562 C 8.5625 -7.203125 8.503906 -7.167969 8.453125 -7.113281 C 8.410156 -7.066406 8.378906 -7.015625 8.359375 -6.957031 C 8.355469 -6.9375 8.351562 -6.921875 8.351562 -6.914062 L 8.351562 -9.21875 C 8.351562 -9.207031 8.355469 -9.195312 8.359375 -9.171875 C 8.378906 -9.117188 8.410156 -9.0625 8.453125 -9.015625 C 8.503906 -8.964844 8.5625 -8.925781 8.625 -8.902344 C 8.65625 -8.890625 8.683594 -8.886719 8.707031 -8.886719 L 3.601562 -8.886719 L 3.601562 -13.925781 L 10.078125 -13.925781 C 10.058594 -13.925781 10.03125 -13.917969 10 -13.90625 C 9.933594 -13.886719 9.878906 -13.847656 9.828125 -13.796875 C 9.78125 -13.746094 9.75 -13.695312 9.734375 -13.636719 C 9.726562 -13.617188 9.722656 -13.601562 9.722656 -13.59375 Z M 9.722656 -15.921875 "/></g></g><g style="fill:#b21a22;fill-opacity:1;"><g transform="translate(77.564089, 107.735407)"><path style="stroke:none" d="M 11.203125 -15.921875 L 11.203125 -13.59375 C 11.203125 -13.269531 11.097656 -13.003906 10.894531 -12.800781 C 10.691406 -12.59375 10.425781 -12.492188 10.101562 -12.492188 L 4.328125 -12.492188 L 4.328125 -13.222656 L 5.058594 -13.222656 L 5.058594 -9.242188 L 4.328125 -9.242188 L 4.328125 -9.96875 L 8.707031 -9.96875 C 9.03125 -9.96875 9.292969 -9.867188 9.5 -9.660156 C 9.703125 -9.457031 9.804688 -9.191406 9.804688 -8.867188 L 9.804688 -6.539062 C 9.804688 -6.214844 9.703125 -5.949219 9.5 -5.746094 C 9.292969 -5.542969 9.03125 -5.441406 8.707031 -5.441406 L 4.328125 -5.441406 L 4.328125 -6.167969 L 5.058594 -6.167969 L 5.058594 -0.371094 C 5.058594 -0.046875 4.953125 0.21875 4.75 0.421875 C 4.546875 0.625 4.28125 0.726562 3.957031 0.726562 L 1.535156 0.726562 C 1.210938 0.726562 0.945312 0.625 0.742188 0.421875 C 0.539062 0.21875 0.4375 -0.046875 0.4375 -0.371094 L 0.4375 -15.921875 C 0.4375 -16.246094 0.539062 -16.511719 0.742188 -16.714844 C 0.945312 -16.917969 1.210938 -17.019531 1.535156 -17.019531 L 10.101562 -17.019531 C 10.425781 -17.019531 10.691406 -16.917969 10.894531 -16.714844 C 11.097656 -16.511719 11.203125 -16.246094 11.203125 -15.921875 Z M 9.746094 -15.921875 C 9.746094 -15.902344 9.75 -15.882812 9.761719 -15.855469 C 9.78125 -15.792969 9.816406 -15.734375 9.867188 -15.6875 C 9.917969 -15.636719 9.972656 -15.601562 10.035156 -15.578125 C 10.0625 -15.570312 10.085938 -15.566406 10.101562 -15.566406 L 1.535156 -15.566406 C 1.554688 -15.566406 1.574219 -15.570312 1.601562 -15.578125 C 1.664062 -15.601562 1.722656 -15.636719 1.769531 -15.6875 C 1.820312 -15.734375 1.855469 -15.792969 1.878906 -15.855469 C 1.886719 -15.882812 1.890625 -15.902344 1.890625 -15.921875 L 1.890625 -0.371094 C 1.890625 -0.390625 1.886719 -0.410156 1.878906 -0.441406 C 1.855469 -0.5 1.820312 -0.558594 1.769531 -0.609375 C 1.722656 -0.65625 1.664062 -0.691406 1.601562 -0.714844 C 1.574219 -0.722656 1.554688 -0.726562 1.535156 -0.726562 L 3.957031 -0.726562 C 3.941406 -0.726562 3.917969 -0.722656 3.890625 -0.714844 C 3.828125 -0.691406 3.773438 -0.65625 3.722656 -0.609375 C 3.671875 -0.558594 3.636719 -0.5 3.617188 -0.441406 C 3.605469 -0.410156 3.601562 -0.390625 3.601562 -0.371094 L 3.601562 -6.894531 L 8.707031 -6.894531 C 8.6875 -6.894531 8.667969 -6.890625 8.636719 -6.882812 C 8.574219 -6.859375 8.519531 -6.824219 8.46875 -6.777344 C 8.421875 -6.726562 8.386719 -6.667969 8.363281 -6.609375 C 8.355469 -6.578125 8.351562 -6.558594 8.351562 -6.539062 L 8.351562 -8.867188 C 8.351562 -8.851562 8.355469 -8.828125 8.363281 -8.800781 C 8.386719 -8.738281 8.421875 -8.683594 8.46875 -8.632812 C 8.519531 -8.582031 8.574219 -8.546875 8.636719 -8.527344 C 8.667969 -8.519531 8.6875 -8.511719 8.707031 -8.511719 L 3.601562 -8.511719 L 3.601562 -13.949219 L 10.101562 -13.949219 C 10.085938 -13.949219 10.0625 -13.945312 10.035156 -13.933594 C 9.972656 -13.914062 9.917969 -13.878906 9.867188 -13.828125 C 9.816406 -13.777344 9.78125 -13.722656 9.761719 -13.660156 C 9.75 -13.632812 9.746094 -13.609375 9.746094 -13.59375 Z M 9.746094 -15.921875 "/></g></g><g style="fill:#b21a22;fill-opacity:1;"><g transform="translate(89.198405, 107.735407)"><path style="stroke:none" d="M 11.203125 -12.941406 L 11.203125 -8.261719 C 11.203125 -6.644531 10.652344 -5.492188 9.554688 -4.804688 L 9.171875 -5.421875 L 9.878906 -5.59375 L 11.089844 -0.589844 L 10.382812 -0.417969 L 11.082031 -0.613281 C 11.1875 -0.238281 11.136719 0.078125 10.933594 0.34375 C 10.730469 0.597656 10.441406 0.726562 10.054688 0.726562 L 7.773438 0.726562 C 7.492188 0.726562 7.25 0.644531 7.050781 0.480469 C 6.851562 0.316406 6.726562 0.101562 6.667969 -0.171875 L 7.378906 -0.324219 L 6.671875 -0.152344 L 5.554688 -4.738281 L 6.261719 -4.910156 L 6.261719 -4.183594 L 4.191406 -4.183594 L 4.191406 -4.910156 L 4.917969 -4.910156 L 4.917969 -0.371094 C 4.917969 -0.046875 4.816406 0.21875 4.609375 0.421875 C 4.40625 0.625 4.140625 0.726562 3.816406 0.726562 L 1.535156 0.726562 C 1.210938 0.726562 0.945312 0.625 0.742188 0.421875 C 0.539062 0.21875 0.4375 -0.046875 0.4375 -0.371094 L 0.4375 -15.921875 C 0.4375 -16.246094 0.539062 -16.511719 0.742188 -16.714844 C 0.945312 -16.917969 1.210938 -17.019531 1.535156 -17.019531 L 7.121094 -17.019531 C 8.425781 -17.019531 9.429688 -16.667969 10.140625 -15.957031 C 10.847656 -15.25 11.203125 -14.242188 11.203125 -12.941406 Z M 9.746094 -12.941406 C 9.746094 -13.84375 9.535156 -14.503906 9.109375 -14.929688 C 8.6875 -15.355469 8.023438 -15.566406 7.121094 -15.566406 L 1.535156 -15.566406 C 1.554688 -15.566406 1.574219 -15.570312 1.601562 -15.578125 C 1.664062 -15.601562 1.722656 -15.636719 1.769531 -15.6875 C 1.820312 -15.734375 1.855469 -15.792969 1.878906 -15.855469 C 1.886719 -15.882812 1.890625 -15.902344 1.890625 -15.921875 L 1.890625 -0.371094 C 1.890625 -0.390625 1.886719 -0.410156 1.878906 -0.441406 C 1.855469 -0.5 1.820312 -0.558594 1.769531 -0.609375 C 1.722656 -0.65625 1.664062 -0.691406 1.601562 -0.714844 C 1.574219 -0.722656 1.554688 -0.726562 1.535156 -0.726562 L 3.816406 -0.726562 C 3.800781 -0.726562 3.777344 -0.722656 3.75 -0.714844 C 3.6875 -0.691406 3.632812 -0.65625 3.582031 -0.609375 C 3.53125 -0.558594 3.496094 -0.5 3.476562 -0.441406 C 3.46875 -0.410156 3.460938 -0.390625 3.460938 -0.371094 L 3.460938 -5.636719 L 6.832031 -5.636719 L 8.085938 -0.488281 L 8.089844 -0.476562 C 8.078125 -0.535156 8.039062 -0.589844 7.976562 -0.644531 C 7.90625 -0.699219 7.839844 -0.726562 7.773438 -0.726562 L 10.054688 -0.726562 C 10.039062 -0.726562 10.023438 -0.71875 10.003906 -0.714844 C 9.917969 -0.683594 9.84375 -0.628906 9.785156 -0.550781 C 9.722656 -0.46875 9.6875 -0.382812 9.679688 -0.289062 C 9.675781 -0.257812 9.675781 -0.234375 9.679688 -0.222656 L 9.675781 -0.234375 L 8.339844 -5.761719 L 8.785156 -6.039062 C 9.425781 -6.441406 9.746094 -7.183594 9.746094 -8.261719 Z M 4.191406 -8.640625 L 6.515625 -8.640625 C 6.59375 -8.640625 6.652344 -8.648438 6.695312 -8.664062 C 6.703125 -8.664062 6.707031 -8.667969 6.710938 -8.667969 C 6.707031 -8.667969 6.703125 -8.664062 6.703125 -8.660156 C 6.699219 -8.65625 6.695312 -8.65625 6.695312 -8.652344 C 6.695312 -8.65625 6.699219 -8.660156 6.699219 -8.667969 C 6.714844 -8.710938 6.722656 -8.769531 6.722656 -8.84375 L 6.722656 -12.359375 C 6.722656 -12.4375 6.714844 -12.496094 6.699219 -12.535156 C 6.699219 -12.542969 6.695312 -12.550781 6.695312 -12.550781 C 6.695312 -12.550781 6.699219 -12.546875 6.703125 -12.542969 C 6.703125 -12.539062 6.707031 -12.539062 6.710938 -12.535156 C 6.707031 -12.539062 6.703125 -12.539062 6.695312 -12.542969 C 6.652344 -12.554688 6.59375 -12.5625 6.515625 -12.5625 L 4.191406 -12.5625 L 4.191406 -13.289062 L 4.917969 -13.289062 L 4.917969 -7.914062 L 4.191406 -7.914062 Z M 3.460938 -7.1875 L 3.460938 -14.019531 L 6.515625 -14.019531 C 7.027344 -14.019531 7.433594 -13.871094 7.730469 -13.570312 C 8.027344 -13.273438 8.175781 -12.871094 8.175781 -12.359375 L 8.175781 -8.84375 C 8.175781 -8.332031 8.027344 -7.929688 7.730469 -7.632812 C 7.433594 -7.335938 7.027344 -7.1875 6.515625 -7.1875 Z M 3.460938 -7.1875 "/></g></g><g style="fill:#b21a22;fill-opacity:1;"><g transform="translate(100.832721, 107.735407)"><path style="stroke:none" d="M 11.179688 -15.921875 L 11.179688 -13.59375 C 11.179688 -13.269531 11.082031 -13.003906 10.886719 -12.796875 C 10.683594 -12.578125 10.414062 -12.46875 10.078125 -12.46875 L 4.328125 -12.46875 L 4.328125 -13.199219 L 5.058594 -13.199219 L 5.058594 -9.613281 L 4.328125 -9.613281 L 4.328125 -10.339844 L 8.707031 -10.339844 C 9.039062 -10.339844 9.308594 -10.230469 9.515625 -10.011719 C 9.707031 -9.804688 9.804688 -9.542969 9.804688 -9.21875 L 9.804688 -6.914062 C 9.804688 -6.589844 9.707031 -6.324219 9.515625 -6.117188 C 9.308594 -5.898438 9.039062 -5.789062 8.707031 -5.789062 L 4.328125 -5.789062 L 4.328125 -6.515625 L 5.058594 -6.515625 L 5.058594 -3.074219 L 4.328125 -3.074219 L 4.328125 -3.800781 L 10.078125 -3.800781 C 10.402344 -3.800781 10.667969 -3.699219 10.871094 -3.492188 C 11.078125 -3.289062 11.179688 -3.023438 11.179688 -2.699219 L 11.179688 -0.371094 C 11.179688 -0.046875 11.078125 0.21875 10.871094 0.421875 C 10.667969 0.625 10.402344 0.726562 10.078125 0.726562 L 1.511719 0.726562 C 1.1875 0.726562 0.921875 0.621094 0.71875 0.40625 C 0.53125 0.203125 0.4375 -0.0546875 0.4375 -0.371094 L 0.4375 -15.921875 C 0.4375 -16.238281 0.53125 -16.496094 0.71875 -16.699219 C 0.921875 -16.914062 1.1875 -17.019531 1.511719 -17.019531 L 10.078125 -17.019531 C 10.402344 -17.019531 10.667969 -16.917969 10.871094 -16.714844 C 11.078125 -16.511719 11.179688 -16.246094 11.179688 -15.921875 Z M 9.722656 -15.921875 C 9.722656 -15.902344 9.726562 -15.882812 9.738281 -15.855469 C 9.757812 -15.792969 9.792969 -15.734375 9.84375 -15.6875 C 9.894531 -15.636719 9.949219 -15.601562 10.011719 -15.578125 C 10.039062 -15.570312 10.0625 -15.566406 10.078125 -15.566406 L 1.511719 -15.566406 C 1.605469 -15.566406 1.695312 -15.613281 1.78125 -15.703125 C 1.828125 -15.753906 1.863281 -15.808594 1.878906 -15.867188 C 1.886719 -15.890625 1.890625 -15.910156 1.890625 -15.921875 L 1.890625 -0.371094 C 1.890625 -0.382812 1.886719 -0.402344 1.878906 -0.425781 C 1.863281 -0.484375 1.828125 -0.539062 1.78125 -0.589844 C 1.695312 -0.683594 1.605469 -0.726562 1.511719 -0.726562 L 10.078125 -0.726562 C 10.0625 -0.726562 10.039062 -0.722656 10.011719 -0.714844 C 9.949219 -0.691406 9.894531 -0.65625 9.84375 -0.609375 C 9.792969 -0.558594 9.757812 -0.5 9.738281 -0.441406 C 9.726562 -0.410156 9.722656 -0.390625 9.722656 -0.371094 L 9.722656 -2.699219 C 9.722656 -2.683594 9.726562 -2.660156 9.738281 -2.632812 C 9.757812 -2.570312 9.792969 -2.515625 9.84375 -2.464844 C 9.894531 -2.414062 9.949219 -2.378906 10.011719 -2.359375 C 10.039062 -2.351562 10.0625 -2.34375 10.078125 -2.34375 L 3.601562 -2.34375 L 3.601562 -7.246094 L 8.707031 -7.246094 C 8.683594 -7.246094 8.65625 -7.238281 8.625 -7.226562 C 8.5625 -7.203125 8.503906 -7.167969 8.453125 -7.113281 C 8.410156 -7.066406 8.378906 -7.015625 8.359375 -6.957031 C 8.355469 -6.9375 8.351562 -6.921875 8.351562 -6.914062 L 8.351562 -9.21875 C 8.351562 -9.207031 8.355469 -9.195312 8.359375 -9.171875 C 8.378906 -9.117188 8.410156 -9.0625 8.453125 -9.015625 C 8.503906 -8.964844 8.5625 -8.925781 8.625 -8.902344 C 8.65625 -8.890625 8.683594 -8.886719 8.707031 -8.886719 L 3.601562 -8.886719 L 3.601562 -13.925781 L 10.078125 -13.925781 C 10.058594 -13.925781 10.03125 -13.917969 10 -13.90625 C 9.933594 -13.886719 9.878906 -13.847656 9.828125 -13.796875 C 9.78125 -13.746094 9.75 -13.695312 9.734375 -13.636719 C 9.726562 -13.617188 9.722656 -13.601562 9.722656 -13.59375 Z M 9.722656 -15.921875 "/></g></g><g style="fill:#b21a22;fill-opacity:1;"><g transform="translate(112.443765, 107.735407)"><path style="stroke:none" d="M 11.179688 -15.921875 L 11.179688 -13.59375 C 11.179688 -13.269531 11.082031 -13.003906 10.886719 -12.796875 C 10.683594 -12.578125 10.414062 -12.46875 10.078125 -12.46875 L 4.328125 -12.46875 L 4.328125 -13.199219 L 5.058594 -13.199219 L 5.058594 -9.613281 L 4.328125 -9.613281 L 4.328125 -10.339844 L 8.707031 -10.339844 C 9.039062 -10.339844 9.308594 -10.230469 9.515625 -10.011719 C 9.707031 -9.804688 9.804688 -9.542969 9.804688 -9.21875 L 9.804688 -6.914062 C 9.804688 -6.589844 9.707031 -6.324219 9.515625 -6.117188 C 9.308594 -5.898438 9.039062 -5.789062 8.707031 -5.789062 L 4.328125 -5.789062 L 4.328125 -6.515625 L 5.058594 -6.515625 L 5.058594 -3.074219 L 4.328125 -3.074219 L 4.328125 -3.800781 L 10.078125 -3.800781 C 10.402344 -3.800781 10.667969 -3.699219 10.871094 -3.492188 C 11.078125 -3.289062 11.179688 -3.023438 11.179688 -2.699219 L 11.179688 -0.371094 C 11.179688 -0.046875 11.078125 0.21875 10.871094 0.421875 C 10.667969 0.625 10.402344 0.726562 10.078125 0.726562 L 1.511719 0.726562 C 1.1875 0.726562 0.921875 0.621094 0.71875 0.40625 C 0.53125 0.203125 0.4375 -0.0546875 0.4375 -0.371094 L 0.4375 -15.921875 C 0.4375 -16.238281 0.53125 -16.496094 0.71875 -16.699219 C 0.921875 -16.914062 1.1875 -17.019531 1.511719 -17.019531 L 10.078125 -17.019531 C 10.402344 -17.019531 10.667969 -16.917969 10.871094 -16.714844 C 11.078125 -16.511719 11.179688 -16.246094 11.179688 -15.921875 Z M 9.722656 -15.921875 C 9.722656 -15.902344 9.726562 -15.882812 9.738281 -15.855469 C 9.757812 -15.792969 9.792969 -15.734375 9.84375 -15.6875 C 9.894531 -15.636719 9.949219 -15.601562 10.011719 -15.578125 C 10.039062 -15.570312 10.0625 -15.566406 10.078125 -15.566406 L 1.511719 -15.566406 C 1.605469 -15.566406 1.695312 -15.613281 1.78125 -15.703125 C 1.828125 -15.753906 1.863281 -15.808594 1.878906 -15.867188 C 1.886719 -15.890625 1.890625 -15.910156 1.890625 -15.921875 L 1.890625 -0.371094 C 1.890625 -0.382812 1.886719 -0.402344 1.878906 -0.425781 C 1.863281 -0.484375 1.828125 -0.539062 1.78125 -0.589844 C 1.695312 -0.683594 1.605469 -0.726562 1.511719 -0.726562 L 10.078125 -0.726562 C 10.0625 -0.726562 10.039062 -0.722656 10.011719 -0.714844 C 9.949219 -0.691406 9.894531 -0.65625 9.84375 -0.609375 C 9.792969 -0.558594 9.757812 -0.5 9.738281 -0.441406 C 9.726562 -0.410156 9.722656 -0.390625 9.722656 -0.371094 L 9.722656 -2.699219 C 9.722656 -2.683594 9.726562 -2.660156 9.738281 -2.632812 C 9.757812 -2.570312 9.792969 -2.515625 9.84375 -2.464844 C 9.894531 -2.414062 9.949219 -2.378906 10.011719 -2.359375 C 10.039062 -2.351562 10.0625 -2.34375 10.078125 -2.34375 L 3.601562 -2.34375 L 3.601562 -7.246094 L 8.707031 -7.246094 C 8.683594 -7.246094 8.65625 -7.238281 8.625 -7.226562 C 8.5625 -7.203125 8.503906 -7.167969 8.453125 -7.113281 C 8.410156 -7.066406 8.378906 -7.015625 8.359375 -6.957031 C 8.355469 -6.9375 8.351562 -6.921875 8.351562 -6.914062 L 8.351562 -9.21875 C 8.351562 -9.207031 8.355469 -9.195312 8.359375 -9.171875 C 8.378906 -9.117188 8.410156 -9.0625 8.453125 -9.015625 C 8.503906 -8.964844 8.5625 -8.925781 8.625 -8.902344 C 8.65625 -8.890625 8.683594 -8.886719 8.707031 -8.886719 L 3.601562 -8.886719 L 3.601562 -13.925781 L 10.078125 -13.925781 C 10.058594 -13.925781 10.03125 -13.917969 10 -13.90625 C 9.933594 -13.886719 9.878906 -13.847656 9.828125 -13.796875 C 9.78125 -13.746094 9.75 -13.695312 9.734375 -13.636719 C 9.726562 -13.617188 9.722656 -13.601562 9.722656 -13.59375 Z M 9.722656 -15.921875 "/></g></g><g style="fill:#060705;fill-opacity:1;"><g transform="translate(39.582472, 42.834041)"><path style="stroke:none" d="M 12.15625 0 L 9.890625 0 C 9.691406 0 9.566406 -0.109375 9.515625 -0.328125 L 8.78125 -3.265625 L 4.40625 -3.265625 L 3.671875 -0.328125 C 3.628906 -0.109375 3.507812 0 3.3125 0 L 1.03125 0 C 0.75 0 0.644531 -0.128906 0.71875 -0.390625 L 4.59375 -15.96875 C 4.632812 -16.1875 4.765625 -16.296875 4.984375 -16.296875 L 8.21875 -16.296875 C 8.4375 -16.296875 8.566406 -16.1875 8.609375 -15.96875 L 12.484375 -0.390625 C 12.554688 -0.128906 12.445312 0 12.15625 0 Z M 8.0625 -5.953125 L 6.59375 -12.296875 L 5.125 -5.953125 Z M 8.0625 -5.953125 "/></g></g><g style="fill:#060705;fill-opacity:1;"><g transform="translate(52.775789, 42.834041)"><path style="stroke:none" d="M 10.5 -12.9375 L 10.5 -10.4375 C 10.5 -10.1875 10.375 -10.0625 10.125 -10.0625 L 7.9375 -10.0625 C 7.6875 -10.0625 7.5625 -10.1875 7.5625 -10.4375 L 7.5625 -12.34375 C 7.5625 -12.957031 7.253906 -13.265625 6.640625 -13.265625 L 5.140625 -13.265625 C 4.523438 -13.265625 4.21875 -12.957031 4.21875 -12.34375 L 4.21875 -3.890625 C 4.21875 -3.265625 4.523438 -2.953125 5.140625 -2.953125 L 6.640625 -2.953125 C 7.253906 -2.953125 7.5625 -3.265625 7.5625 -3.890625 L 7.5625 -5.859375 C 7.5625 -6.109375 7.6875 -6.234375 7.9375 -6.234375 L 10.125 -6.234375 C 10.375 -6.234375 10.5 -6.109375 10.5 -5.859375 L 10.5 -3.359375 C 10.5 -2.265625 10.210938 -1.429688 9.640625 -0.859375 C 9.066406 -0.285156 8.234375 0 7.140625 0 L 4.546875 0 C 3.453125 0 2.613281 -0.285156 2.03125 -0.859375 C 1.457031 -1.429688 1.171875 -2.265625 1.171875 -3.359375 L 1.171875 -12.9375 C 1.171875 -14.039062 1.457031 -14.875 2.03125 -15.4375 C 2.613281 -16.007812 3.453125 -16.296875 4.546875 -16.296875 L 7.140625 -16.296875 C 8.234375 -16.296875 9.066406 -16.007812 9.640625 -15.4375 C 10.210938 -14.875 10.5 -14.039062 10.5 -12.9375 Z M 10.5 -12.9375 "/></g></g><g style="fill:#060705;fill-opacity:1;"><g transform="translate(64.433378, 42.834041)"><path style="stroke:none" d="M 9.640625 -16.296875 L 1.078125 -16.296875 C 0.828125 -16.296875 0.703125 -16.171875 0.703125 -15.921875 L 0.703125 -13.59375 C 0.703125 -13.34375 0.828125 -13.21875 1.078125 -13.21875 L 3.765625 -13.21875 L 3.765625 -0.375 C 3.765625 -0.125 3.890625 0 4.140625 0 L 6.5625 0 C 6.8125 0 6.9375 -0.125 6.9375 -0.375 L 6.9375 -13.21875 L 9.640625 -13.21875 C 9.890625 -13.21875 10.015625 -13.34375 10.015625 -13.59375 L 10.015625 -15.921875 C 10.015625 -16.171875 9.890625 -16.296875 9.640625 -16.296875 Z M 9.640625 -16.296875 "/></g></g><g style="fill:#060705;fill-opacity:1;"><g transform="translate(75.13695, 42.834041)"><path style="stroke:none" d="M 1.53125 0 L 3.953125 0 C 4.203125 0 4.328125 -0.125 4.328125 -0.375 L 4.328125 -15.921875 C 4.328125 -16.171875 4.203125 -16.296875 3.953125 -16.296875 L 1.53125 -16.296875 C 1.289062 -16.296875 1.171875 -16.171875 1.171875 -15.921875 L 1.171875 -0.375 C 1.171875 -0.125 1.289062 0 1.53125 0 Z M 1.53125 0 "/></g></g><g style="fill:#060705;fill-opacity:1;"><g transform="translate(80.628344, 42.834041)"><path style="stroke:none" d="M 8.921875 -16.296875 L 11.03125 -16.296875 C 11.394531 -16.296875 11.535156 -16.125 11.453125 -15.78125 L 7.75 -0.421875 C 7.6875 -0.140625 7.515625 0 7.234375 0 L 4.90625 0 C 4.644531 0 4.476562 -0.140625 4.40625 -0.421875 L 0.71875 -15.78125 C 0.644531 -16.125 0.785156 -16.296875 1.140625 -16.296875 L 3.265625 -16.296875 C 3.535156 -16.296875 3.703125 -16.15625 3.765625 -15.875 L 6.078125 -5.359375 L 8.40625 -15.875 C 8.476562 -16.15625 8.648438 -16.296875 8.921875 -16.296875 Z M 8.921875 -16.296875 "/></g></g><g style="fill:#060705;fill-opacity:1;"><g transform="translate(92.797836, 42.834041)"><path style="stroke:none" d="M 10.453125 -15.921875 L 10.453125 -13.59375 C 10.453125 -13.332031 10.328125 -13.203125 10.078125 -13.203125 L 4.328125 -13.203125 L 4.328125 -9.609375 L 8.703125 -9.609375 C 8.953125 -9.609375 9.078125 -9.476562 9.078125 -9.21875 L 9.078125 -6.921875 C 9.078125 -6.648438 8.953125 -6.515625 8.703125 -6.515625 L 4.328125 -6.515625 L 4.328125 -3.078125 L 10.078125 -3.078125 C 10.328125 -3.078125 10.453125 -2.953125 10.453125 -2.703125 L 10.453125 -0.375 C 10.453125 -0.125 10.328125 0 10.078125 0 L 1.515625 0 C 1.285156 0 1.171875 -0.125 1.171875 -0.375 L 1.171875 -15.921875 C 1.171875 -16.171875 1.285156 -16.296875 1.515625 -16.296875 L 10.078125 -16.296875 C 10.328125 -16.296875 10.453125 -16.171875 10.453125 -15.921875 Z M 10.453125 -15.921875 "/></g></g><g style="fill:#060705;fill-opacity:1;"><g transform="translate(33.617815, 75.284724)"><path style="stroke:none" d="M 10.484375 -12.9375 L 10.484375 -8.265625 C 10.484375 -6.910156 10.046875 -5.960938 9.171875 -5.421875 L 10.390625 -0.421875 C 10.460938 -0.140625 10.351562 0 10.0625 0 L 7.78125 0 C 7.5625 0 7.425781 -0.109375 7.375 -0.328125 L 6.265625 -4.90625 L 4.1875 -4.90625 L 4.1875 -0.375 C 4.1875 -0.125 4.0625 0 3.8125 0 L 1.53125 0 C 1.289062 0 1.171875 -0.125 1.171875 -0.375 L 1.171875 -15.921875 C 1.171875 -16.171875 1.289062 -16.296875 1.53125 -16.296875 L 7.125 -16.296875 C 8.226562 -16.296875 9.0625 -16.007812 9.625 -15.4375 C 10.195312 -14.875 10.484375 -14.039062 10.484375 -12.9375 Z M 4.1875 -7.921875 L 6.515625 -7.921875 C 7.140625 -7.921875 7.453125 -8.226562 7.453125 -8.84375 L 7.453125 -12.359375 C 7.453125 -12.984375 7.140625 -13.296875 6.515625 -13.296875 L 4.1875 -13.296875 Z M 4.1875 -7.921875 "/></g></g><g style="fill:#060705;fill-opacity:1;"><g transform="translate(45.252131, 75.284724)"><path style="stroke:none" d="M 10.453125 -15.921875 L 10.453125 -13.59375 C 10.453125 -13.332031 10.328125 -13.203125 10.078125 -13.203125 L 4.328125 -13.203125 L 4.328125 -9.609375 L 8.703125 -9.609375 C 8.953125 -9.609375 9.078125 -9.476562 9.078125 -9.21875 L 9.078125 -6.921875 C 9.078125 -6.648438 8.953125 -6.515625 8.703125 -6.515625 L 4.328125 -6.515625 L 4.328125 -3.078125 L 10.078125 -3.078125 C 10.328125 -3.078125 10.453125 -2.953125 10.453125 -2.703125 L 10.453125 -0.375 C 10.453125 -0.125 10.328125 0 10.078125 0 L 1.515625 0 C 1.285156 0 1.171875 -0.125 1.171875 -0.375 L 1.171875 -15.921875 C 1.171875 -16.171875 1.285156 -16.296875 1.515625 -16.296875 L 10.078125 -16.296875 C 10.328125 -16.296875 10.453125 -16.171875 10.453125 -15.921875 Z M 10.453125 -15.921875 "/></g></g><g style="fill:#060705;fill-opacity:1;"><g transform="translate(56.863175, 75.284724)"><path style="stroke:none" d="M 10.5 -12.9375 L 10.5 -10.4375 C 10.5 -10.1875 10.375 -10.0625 10.125 -10.0625 L 7.9375 -10.0625 C 7.6875 -10.0625 7.5625 -10.1875 7.5625 -10.4375 L 7.5625 -12.34375 C 7.5625 -12.957031 7.253906 -13.265625 6.640625 -13.265625 L 5.140625 -13.265625 C 4.523438 -13.265625 4.21875 -12.957031 4.21875 -12.34375 L 4.21875 -3.890625 C 4.21875 -3.265625 4.523438 -2.953125 5.140625 -2.953125 L 6.640625 -2.953125 C 7.253906 -2.953125 7.5625 -3.265625 7.5625 -3.890625 L 7.5625 -5.859375 C 7.5625 -6.109375 7.6875 -6.234375 7.9375 -6.234375 L 10.125 -6.234375 C 10.375 -6.234375 10.5 -6.109375 10.5 -5.859375 L 10.5 -3.359375 C 10.5 -2.265625 10.210938 -1.429688 9.640625 -0.859375 C 9.066406 -0.285156 8.234375 0 7.140625 0 L 4.546875 0 C 3.453125 0 2.613281 -0.285156 2.03125 -0.859375 C 1.457031 -1.429688 1.171875 -2.265625 1.171875 -3.359375 L 1.171875 -12.9375 C 1.171875 -14.039062 1.457031 -14.875 2.03125 -15.4375 C 2.613281 -16.007812 3.453125 -16.296875 4.546875 -16.296875 L 7.140625 -16.296875 C 8.234375 -16.296875 9.066406 -16.007812 9.640625 -15.4375 C 10.210938 -14.875 10.5 -14.039062 10.5 -12.9375 Z M 10.5 -12.9375 "/></g></g><g style="fill:#060705;fill-opacity:1;"><g transform="translate(68.520764, 75.284724)"><path style="stroke:none" d="M 1.171875 -3.359375 L 1.171875 -12.9375 C 1.171875 -14.039062 1.457031 -14.875 2.03125 -15.4375 C 2.601562 -16.007812 3.429688 -16.296875 4.515625 -16.296875 L 7.125 -16.296875 C 8.226562 -16.296875 9.0625 -16.007812 9.625 -15.4375 C 10.195312 -14.875 10.484375 -14.039062 10.484375 -12.9375 L 10.484375 -3.359375 C 10.484375 -2.265625 10.195312 -1.429688 9.625 -0.859375 C 9.0625 -0.285156 8.226562 0 7.125 0 L 4.515625 0 C 3.429688 0 2.601562 -0.285156 2.03125 -0.859375 C 1.457031 -1.429688 1.171875 -2.265625 1.171875 -3.359375 Z M 5.125 -3 L 6.609375 -3 C 7.234375 -3 7.546875 -3.3125 7.546875 -3.9375 L 7.546875 -12.359375 C 7.546875 -12.984375 7.234375 -13.296875 6.609375 -13.296875 L 5.125 -13.296875 C 4.5 -13.296875 4.1875 -12.984375 4.1875 -12.359375 L 4.1875 -3.9375 C 4.1875 -3.3125 4.5 -3 5.125 -3 Z M 5.125 -3 "/></g></g><g style="fill:#060705;fill-opacity:1;"><g transform="translate(80.15508, 75.284724)"><path style="stroke:none" d="M 10.484375 -12.9375 L 10.484375 -8.265625 C 10.484375 -6.910156 10.046875 -5.960938 9.171875 -5.421875 L 10.390625 -0.421875 C 10.460938 -0.140625 10.351562 0 10.0625 0 L 7.78125 0 C 7.5625 0 7.425781 -0.109375 7.375 -0.328125 L 6.265625 -4.90625 L 4.1875 -4.90625 L 4.1875 -0.375 C 4.1875 -0.125 4.0625 0 3.8125 0 L 1.53125 0 C 1.289062 0 1.171875 -0.125 1.171875 -0.375 L 1.171875 -15.921875 C 1.171875 -16.171875 1.289062 -16.296875 1.53125 -16.296875 L 7.125 -16.296875 C 8.226562 -16.296875 9.0625 -16.007812 9.625 -15.4375 C 10.195312 -14.875 10.484375 -14.039062 10.484375 -12.9375 Z M 4.1875 -7.921875 L 6.515625 -7.921875 C 7.140625 -7.921875 7.453125 -8.226562 7.453125 -8.84375 L 7.453125 -12.359375 C 7.453125 -12.984375 7.140625 -13.296875 6.515625 -13.296875 L 4.1875 -13.296875 Z M 4.1875 -7.921875 "/></g></g><g style="fill:#060705;fill-opacity:1;"><g transform="translate(91.789396, 75.284724)"><path style="stroke:none" d="M 1.171875 -0.375 L 1.171875 -15.921875 C 1.171875 -16.171875 1.289062 -16.296875 1.53125 -16.296875 L 7.125 -16.296875 C 8.226562 -16.296875 9.0625 -16.007812 9.625 -15.4375 C 10.195312 -14.863281 10.484375 -14.023438 10.484375 -12.921875 L 10.484375 -3.359375 C 10.484375 -2.265625 10.195312 -1.429688 9.625 -0.859375 C 9.0625 -0.285156 8.226562 0 7.125 0 L 1.53125 0 C 1.289062 0 1.171875 -0.125 1.171875 -0.375 Z M 4.328125 -3.078125 L 6.46875 -3.078125 C 7.09375 -3.078125 7.40625 -3.382812 7.40625 -4 L 7.40625 -12.265625 C 7.40625 -12.898438 7.09375 -13.21875 6.46875 -13.21875 L 4.328125 -13.21875 Z M 4.328125 -3.078125 "/></g></g><g style="fill:#060705;fill-opacity:1;"><g transform="translate(103.423712, 75.284724)"><path style="stroke:none" d="M 1.171875 -7.3125 L 1.171875 -9.453125 C 1.171875 -9.765625 1.320312 -9.921875 1.625 -9.921875 L 5.3125 -9.921875 C 5.625 -9.921875 5.78125 -9.765625 5.78125 -9.453125 L 5.78125 -7.3125 C 5.78125 -7 5.625 -6.84375 5.3125 -6.84375 L 1.625 -6.84375 C 1.320312 -6.84375 1.171875 -7 1.171875 -7.3125 Z M 1.171875 -7.3125 "/></g></g><g style="fill:#060705;fill-opacity:1;"><g transform="translate(19.927684, 107.735407)"><path style="stroke:none" d="M 9.640625 -16.296875 L 1.078125 -16.296875 C 0.828125 -16.296875 0.703125 -16.171875 0.703125 -15.921875 L 0.703125 -13.59375 C 0.703125 -13.34375 0.828125 -13.21875 1.078125 -13.21875 L 3.765625 -13.21875 L 3.765625 -0.375 C 3.765625 -0.125 3.890625 0 4.140625 0 L 6.5625 0 C 6.8125 0 6.9375 -0.125 6.9375 -0.375 L 6.9375 -13.21875 L 9.640625 -13.21875 C 9.890625 -13.21875 10.015625 -13.34375 10.015625 -13.59375 L 10.015625 -15.921875 C 10.015625 -16.171875 9.890625 -16.296875 9.640625 -16.296875 Z M 9.640625 -16.296875 "/></g></g><g style="fill:#060705;fill-opacity:1;"><g transform="translate(30.631256, 107.735407)"><path style="stroke:none" d="M 12.15625 0 L 9.890625 0 C 9.691406 0 9.566406 -0.109375 9.515625 -0.328125 L 8.78125 -3.265625 L 4.40625 -3.265625 L 3.671875 -0.328125 C 3.628906 -0.109375 3.507812 0 3.3125 0 L 1.03125 0 C 0.75 0 0.644531 -0.128906 0.71875 -0.390625 L 4.59375 -15.96875 C 4.632812 -16.1875 4.765625 -16.296875 4.984375 -16.296875 L 8.21875 -16.296875 C 8.4375 -16.296875 8.566406 -16.1875 8.609375 -15.96875 L 12.484375 -0.390625 C 12.554688 -0.128906 12.445312 0 12.15625 0 Z M 8.0625 -5.953125 L 6.59375 -12.296875 L 5.125 -5.953125 Z M 8.0625 -5.953125 "/></g></g><g style="fill:#060705;fill-opacity:1;"><g transform="translate(43.824573, 107.735407)"><path style="stroke:none" d="M 10.5 -12.9375 L 10.5 -9.796875 C 10.5 -9.367188 10.359375 -9.003906 10.078125 -8.703125 C 9.796875 -8.410156 9.445312 -8.226562 9.03125 -8.15625 L 9.03125 -8.109375 C 9.445312 -8.046875 9.796875 -7.859375 10.078125 -7.546875 C 10.359375 -7.242188 10.5 -6.878906 10.5 -6.453125 L 10.5 -3.359375 C 10.5 -2.265625 10.210938 -1.429688 9.640625 -0.859375 C 9.066406 -0.285156 8.226562 0 7.125 0 L 1.53125 0 C 1.289062 0 1.171875 -0.125 1.171875 -0.375 L 1.171875 -15.921875 C 1.171875 -16.171875 1.289062 -16.296875 1.53125 -16.296875 L 7.125 -16.296875 C 8.226562 -16.296875 9.066406 -16.007812 9.640625 -15.4375 C 10.210938 -14.875 10.5 -14.039062 10.5 -12.9375 Z M 7.546875 -10.5625 L 7.546875 -12.4375 C 7.546875 -13.050781 7.234375 -13.359375 6.609375 -13.359375 L 4.046875 -13.359375 L 4.046875 -9.65625 L 6.609375 -9.65625 C 7.234375 -9.65625 7.546875 -9.957031 7.546875 -10.5625 Z M 7.546875 -3.859375 L 7.546875 -5.65625 C 7.546875 -6.28125 7.234375 -6.59375 6.609375 -6.59375 L 4.046875 -6.59375 L 4.046875 -2.9375 L 6.609375 -2.9375 C 7.234375 -2.9375 7.546875 -3.242188 7.546875 -3.859375 Z M 7.546875 -3.859375 "/></g></g><g style="fill:#060705;fill-opacity:1;"><g transform="translate(55.482161, 107.735407)"><path style="stroke:none" d="M 4.328125 -3.078125 L 4.328125 -15.921875 C 4.328125 -16.171875 4.203125 -16.296875 3.953125 -16.296875 L 1.53125 -16.296875 C 1.289062 -16.296875 1.171875 -16.171875 1.171875 -15.921875 L 1.171875 -0.375 C 1.171875 -0.125 1.289062 0 1.53125 0 L 8.9375 0 C 9.1875 0 9.3125 -0.125 9.3125 -0.375 L 9.3125 -2.703125 C 9.3125 -2.953125 9.1875 -3.078125 8.9375 -3.078125 Z M 4.328125 -3.078125 "/></g></g><g style="fill:#060705;fill-opacity:1;"><g transform="translate(65.953045, 107.735407)"><path style="stroke:none" d="M 10.453125 -15.921875 L 10.453125 -13.59375 C 10.453125 -13.332031 10.328125 -13.203125 10.078125 -13.203125 L 4.328125 -13.203125 L 4.328125 -9.609375 L 8.703125 -9.609375 C 8.953125 -9.609375 9.078125 -9.476562 9.078125 -9.21875 L 9.078125 -6.921875 C 9.078125 -6.648438 8.953125 -6.515625 8.703125 -6.515625 L 4.328125 -6.515625 L 4.328125 -3.078125 L 10.078125 -3.078125 C 10.328125 -3.078125 10.453125 -2.953125 10.453125 -2.703125 L 10.453125 -0.375 C 10.453125 -0.125 10.328125 0 10.078125 0 L 1.515625 0 C 1.285156 0 1.171875 -0.125 1.171875 -0.375 L 1.171875 -15.921875 C 1.171875 -16.171875 1.285156 -16.296875 1.515625 -16.296875 L 10.078125 -16.296875 C 10.328125 -16.296875 10.453125 -16.171875 10.453125 -15.921875 Z M 10.453125 -15.921875 "/></g></g><g style="fill:#060705;fill-opacity:1;"><g transform="translate(77.564089, 107.735407)"><path style="stroke:none" d="M 10.484375 -15.921875 L 10.484375 -13.59375 C 10.484375 -13.34375 10.359375 -13.21875 10.109375 -13.21875 L 4.328125 -13.21875 L 4.328125 -9.25 L 8.703125 -9.25 C 8.953125 -9.25 9.078125 -9.125 9.078125 -8.875 L 9.078125 -6.546875 C 9.078125 -6.296875 8.953125 -6.171875 8.703125 -6.171875 L 4.328125 -6.171875 L 4.328125 -0.375 C 4.328125 -0.125 4.203125 0 3.953125 0 L 1.53125 0 C 1.289062 0 1.171875 -0.125 1.171875 -0.375 L 1.171875 -15.921875 C 1.171875 -16.171875 1.289062 -16.296875 1.53125 -16.296875 L 10.109375 -16.296875 C 10.359375 -16.296875 10.484375 -16.171875 10.484375 -15.921875 Z M 10.484375 -15.921875 "/></g></g><g style="fill:#060705;fill-opacity:1;"><g transform="translate(89.198405, 107.735407)"><path style="stroke:none" d="M 10.484375 -12.9375 L 10.484375 -8.265625 C 10.484375 -6.910156 10.046875 -5.960938 9.171875 -5.421875 L 10.390625 -0.421875 C 10.460938 -0.140625 10.351562 0 10.0625 0 L 7.78125 0 C 7.5625 0 7.425781 -0.109375 7.375 -0.328125 L 6.265625 -4.90625 L 4.1875 -4.90625 L 4.1875 -0.375 C 4.1875 -0.125 4.0625 0 3.8125 0 L 1.53125 0 C 1.289062 0 1.171875 -0.125 1.171875 -0.375 L 1.171875 -15.921875 C 1.171875 -16.171875 1.289062 -16.296875 1.53125 -16.296875 L 7.125 -16.296875 C 8.226562 -16.296875 9.0625 -16.007812 9.625 -15.4375 C 10.195312 -14.875 10.484375 -14.039062 10.484375 -12.9375 Z M 4.1875 -7.921875 L 6.515625 -7.921875 C 7.140625 -7.921875 7.453125 -8.226562 7.453125 -8.84375 L 7.453125 -12.359375 C 7.453125 -12.984375 7.140625 -13.296875 6.515625 -13.296875 L 4.1875 -13.296875 Z M 4.1875 -7.921875 "/></g></g><g style="fill:#060705;fill-opacity:1;"><g transform="translate(100.832721, 107.735407)"><path style="stroke:none" d="M 10.453125 -15.921875 L 10.453125 -13.59375 C 10.453125 -13.332031 10.328125 -13.203125 10.078125 -13.203125 L 4.328125 -13.203125 L 4.328125 -9.609375 L 8.703125 -9.609375 C 8.953125 -9.609375 9.078125 -9.476562 9.078125 -9.21875 L 9.078125 -6.921875 C 9.078125 -6.648438 8.953125 -6.515625 8.703125 -6.515625 L 4.328125 -6.515625 L 4.328125 -3.078125 L 10.078125 -3.078125 C 10.328125 -3.078125 10.453125 -2.953125 10.453125 -2.703125 L 10.453125 -0.375 C 10.453125 -0.125 10.328125 0 10.078125 0 L 1.515625 0 C 1.285156 0 1.171875 -0.125 1.171875 -0.375 L 1.171875 -15.921875 C 1.171875 -16.171875 1.285156 -16.296875 1.515625 -16.296875 L 10.078125 -16.296875 C 10.328125 -16.296875 10.453125 -16.171875 10.453125 -15.921875 Z M 10.453125 -15.921875 "/></g></g><g style="fill:#060705;fill-opacity:1;"><g transform="translate(112.443765, 107.735407)"><path style="stroke:none" d="M 10.453125 -15.921875 L 10.453125 -13.59375 C 10.453125 -13.332031 10.328125 -13.203125 10.078125 -13.203125 L 4.328125 -13.203125 L 4.328125 -9.609375 L 8.703125 -9.609375 C 8.953125 -9.609375 9.078125 -9.476562 9.078125 -9.21875 L 9.078125 -6.921875 C 9.078125 -6.648438 8.953125 -6.515625 8.703125 -6.515625 L 4.328125 -6.515625 L 4.328125 -3.078125 L 10.078125 -3.078125 C 10.328125 -3.078125 10.453125 -2.953125 10.453125 -2.703125 L 10.453125 -0.375 C 10.453125 -0.125 10.328125 0 10.078125 0 L 1.515625 0 C 1.285156 0 1.171875 -0.125 1.171875 -0.375 L 1.171875 -15.921875 C 1.171875 -16.171875 1.285156 -16.296875 1.515625 -16.296875 L 10.078125 -16.296875 C 10.328125 -16.296875 10.453125 -16.171875 10.453125 -15.921875 Z M 10.453125 -15.921875 "/></g></g></g></svg>