<svg xmlns="http://www.w3.org/2000/svg" xmlns:xlink="http://www.w3.org/1999/xlink" width="128" zoomAndPan="magnify" viewBox="0 0 96 95.999999" height="128" preserveAspectRatio="xMidYMid meet" version="1.2"><defs><clipPath id="7f3fe8708a"><path d="M 6 0 L 90 0 L 90 96 L 6 96 Z M 6 0 "/></clipPath><clipPath id="b99602aa11"><path d="M -14.304688 36.578125 L 68.691406 -11.898438 L 110.335938 59.402344 L 27.339844 107.878906 Z M -14.304688 36.578125 "/></clipPath><clipPath id="6a9cd8e8f8"><path d="M 89.484375 23.769531 L 89.5625 71.535156 L 48.082031 95.765625 L 6.515625 72.226562 L 6.4375 24.464844 L 47.921875 0.234375 Z M 89.484375 23.769531 "/></clipPath><clipPath id="7841715dbb"><path d="M 14.140625 9.121094 L 81.851562 9.121094 L 81.851562 86.839844 L 14.140625 86.839844 Z M 14.140625 9.121094 "/></clipPath></defs><g id="2b890ca8ac"><g clip-rule="nonzero" clip-path="url(#7f3fe8708a)"><g clip-rule="nonzero" clip-path="url(#b99602aa11)"><g clip-rule="nonzero" clip-path="url(#6a9cd8e8f8)"><path style=" stroke:none;fill-rule:nonzero;fill:#65b30e;fill-opacity:1;" d="M -14.304688 36.578125 L 68.691406 -11.898438 L 110.335938 59.402344 L 27.339844 107.878906 Z M -14.304688 36.578125 "/></g></g></g><path style=" stroke:none;fill-rule:nonzero;fill:#87ff00;fill-opacity:1;" d="M 34.453125 34.738281 L 34.410156 34.695312 L 24.839844 44.265625 L 48.074219 67.457031 L 57.644531 57.933594 L 71.308594 44.265625 L 61.738281 34.695312 L 61.738281 34.652344 L 34.410156 34.652344 Z M 34.453125 34.738281 "/><g clip-rule="nonzero" clip-path="url(#7841715dbb)"><path style=" stroke:none;fill-rule:nonzero;fill:#87ff00;fill-opacity:1;" d="M 47.988281 9.179688 L 14.148438 28.574219 L 14.148438 67.371094 L 47.988281 86.769531 L 81.828125 67.371094 L 81.828125 28.574219 Z M 75.359375 63.664062 L 47.988281 79.4375 L 20.613281 63.664062 L 20.617188 32.195312 L 47.988281 16.417969 L 75.363281 32.195312 L 75.363281 63.664062 Z M 75.359375 63.664062 "/></g><g style="fill:#b21a22;fill-opacity:1;"><g transform="translate(22.616027, 40.968031)"><path style="stroke:none" d="M 4.484375 -16.90625 L 7.074219 -16.90625 C 8.367188 -16.90625 9.367188 -16.554688 10.070312 -15.847656 C 10.773438 -15.144531 11.125 -14.148438 11.125 -12.851562 L 11.125 -11.328125 C 11.125 -11.003906 11.023438 -10.742188 10.820312 -10.539062 C 10.617188 -10.335938 10.355469 -10.234375 10.03125 -10.234375 L 7.699219 -10.234375 C 7.375 -10.234375 7.113281 -10.335938 6.910156 -10.539062 C 6.707031 -10.742188 6.605469 -11.003906 6.605469 -11.328125 L 6.605469 -12.296875 C 6.605469 -12.375 6.597656 -12.433594 6.585938 -12.476562 C 6.582031 -12.480469 6.582031 -12.488281 6.578125 -12.492188 C 6.582031 -12.488281 6.582031 -12.484375 6.585938 -12.480469 C 6.589844 -12.476562 6.59375 -12.476562 6.59375 -12.472656 C 6.59375 -12.476562 6.585938 -12.476562 6.578125 -12.480469 C 6.539062 -12.492188 6.480469 -12.5 6.402344 -12.5 L 5.132812 -12.5 C 5.054688 -12.5 4.996094 -12.492188 4.957031 -12.480469 C 4.949219 -12.476562 4.941406 -12.476562 4.941406 -12.472656 C 4.941406 -12.476562 4.945312 -12.476562 4.949219 -12.480469 C 4.953125 -12.484375 4.957031 -12.488281 4.957031 -12.492188 C 4.957031 -12.488281 4.953125 -12.480469 4.949219 -12.476562 C 4.9375 -12.433594 4.929688 -12.375 4.929688 -12.296875 L 4.929688 -10.332031 L 4.207031 -10.332031 L 4.429688 -11.019531 L 10.023438 -9.21875 C 10.378906 -9.09375 10.652344 -8.898438 10.84375 -8.628906 C 11.03125 -8.359375 11.125 -8.042969 11.125 -7.675781 L 11.125 -3.328125 C 11.125 -2.050781 10.773438 -1.058594 10.074219 -0.347656 C 9.371094 0.367188 8.371094 0.722656 7.074219 0.722656 L 4.484375 0.722656 C 3.207031 0.722656 2.210938 0.367188 1.5 -0.34375 C 0.789062 -1.054688 0.433594 -2.050781 0.433594 -3.328125 L 0.433594 -4.832031 C 0.433594 -5.15625 0.535156 -5.417969 0.738281 -5.621094 C 0.941406 -5.824219 1.203125 -5.925781 1.527344 -5.925781 L 3.859375 -5.925781 C 4.183594 -5.925781 4.445312 -5.824219 4.648438 -5.621094 C 4.851562 -5.417969 4.953125 -5.15625 4.953125 -4.832031 L 4.953125 -3.859375 C 4.953125 -3.785156 4.960938 -3.726562 4.972656 -3.683594 C 4.976562 -3.675781 4.976562 -3.671875 4.980469 -3.667969 C 4.976562 -3.671875 4.976562 -3.675781 4.972656 -3.679688 C 4.96875 -3.679688 4.964844 -3.683594 4.964844 -3.683594 C 4.964844 -3.683594 4.972656 -3.683594 4.980469 -3.679688 C 5.019531 -3.664062 5.078125 -3.660156 5.15625 -3.660156 L 6.402344 -3.660156 C 6.480469 -3.660156 6.539062 -3.664062 6.578125 -3.679688 C 6.585938 -3.683594 6.59375 -3.683594 6.59375 -3.683594 C 6.59375 -3.683594 6.589844 -3.679688 6.585938 -3.679688 C 6.582031 -3.675781 6.582031 -3.671875 6.578125 -3.667969 C 6.582031 -3.671875 6.582031 -3.675781 6.585938 -3.683594 C 6.597656 -3.726562 6.605469 -3.785156 6.605469 -3.859375 L 6.605469 -6.195312 L 7.328125 -6.195312 L 7.105469 -5.507812 L 1.558594 -7.3125 C 1.199219 -7.429688 0.921875 -7.625 0.726562 -7.890625 C 0.53125 -8.160156 0.433594 -8.480469 0.433594 -8.855469 L 0.433594 -12.851562 C 0.433594 -14.148438 0.789062 -15.148438 1.503906 -15.851562 C 2.214844 -16.554688 3.207031 -16.90625 4.484375 -16.90625 Z M 4.484375 -15.460938 C 3.605469 -15.460938 2.949219 -15.246094 2.519531 -14.824219 C 2.089844 -14.402344 1.878906 -13.746094 1.878906 -12.851562 L 1.878906 -8.855469 C 1.878906 -8.796875 1.882812 -8.757812 1.894531 -8.742188 C 1.910156 -8.722656 1.945312 -8.707031 2.003906 -8.6875 L 8.050781 -6.71875 L 8.050781 -3.859375 C 8.050781 -3.351562 7.902344 -2.953125 7.609375 -2.65625 C 7.3125 -2.359375 6.910156 -2.214844 6.402344 -2.214844 L 5.15625 -2.214844 C 4.648438 -2.214844 4.246094 -2.359375 3.949219 -2.65625 C 3.65625 -2.953125 3.507812 -3.351562 3.507812 -3.859375 L 3.507812 -4.832031 C 3.507812 -4.816406 3.511719 -4.792969 3.523438 -4.765625 C 3.542969 -4.703125 3.578125 -4.648438 3.628906 -4.597656 C 3.675781 -4.546875 3.730469 -4.511719 3.792969 -4.492188 C 3.820312 -4.484375 3.84375 -4.480469 3.859375 -4.480469 L 1.527344 -4.480469 C 1.542969 -4.480469 1.566406 -4.484375 1.59375 -4.492188 C 1.652344 -4.511719 1.710938 -4.546875 1.757812 -4.597656 C 1.808594 -4.648438 1.84375 -4.703125 1.863281 -4.765625 C 1.875 -4.792969 1.878906 -4.816406 1.878906 -4.832031 L 1.878906 -3.328125 C 1.878906 -2.449219 2.09375 -1.796875 2.523438 -1.367188 C 2.953125 -0.9375 3.605469 -0.722656 4.484375 -0.722656 L 7.074219 -0.722656 C 7.964844 -0.722656 8.625 -0.9375 9.042969 -1.363281 C 9.46875 -1.792969 9.679688 -2.449219 9.679688 -3.328125 L 9.679688 -7.675781 C 9.679688 -7.738281 9.675781 -7.777344 9.660156 -7.796875 C 9.652344 -7.8125 9.625 -7.828125 9.582031 -7.84375 L 3.484375 -9.808594 L 3.484375 -12.296875 C 3.484375 -12.804688 3.632812 -13.207031 3.925781 -13.503906 C 4.222656 -13.796875 4.625 -13.945312 5.132812 -13.945312 L 6.402344 -13.945312 C 6.910156 -13.945312 7.3125 -13.796875 7.609375 -13.503906 C 7.902344 -13.207031 8.050781 -12.804688 8.050781 -12.296875 L 8.050781 -11.328125 C 8.050781 -11.34375 8.046875 -11.367188 8.035156 -11.394531 C 8.015625 -11.457031 7.980469 -11.511719 7.929688 -11.5625 C 7.882812 -11.609375 7.828125 -11.644531 7.765625 -11.667969 C 7.738281 -11.675781 7.714844 -11.679688 7.699219 -11.679688 L 10.03125 -11.679688 C 10.015625 -11.679688 9.996094 -11.675781 9.964844 -11.667969 C 9.90625 -11.644531 9.847656 -11.609375 9.800781 -11.5625 C 9.75 -11.511719 9.714844 -11.457031 9.695312 -11.394531 C 9.683594 -11.367188 9.679688 -11.34375 9.679688 -11.328125 L 9.679688 -12.851562 C 9.679688 -13.75 9.46875 -14.40625 9.046875 -14.828125 C 8.625 -15.25 7.96875 -15.460938 7.074219 -15.460938 Z M 4.484375 -15.460938 "/></g></g><g style="fill:#b21a22;fill-opacity:1;"><g transform="translate(34.171169, 40.968031)"><path style="stroke:none" d="M 6.535156 -9.570312 L 6.535156 -15.8125 C 6.535156 -16.136719 6.636719 -16.398438 6.839844 -16.601562 C 7.042969 -16.804688 7.304688 -16.90625 7.628906 -16.90625 L 10.011719 -16.90625 C 10.332031 -16.90625 10.59375 -16.808594 10.800781 -16.617188 C 11.015625 -16.410156 11.125 -16.144531 11.125 -15.8125 L 11.125 -0.371094 C 11.125 -0.0390625 11.015625 0.230469 10.800781 0.433594 C 10.59375 0.625 10.332031 0.722656 10.011719 0.722656 L 7.628906 0.722656 C 7.304688 0.722656 7.042969 0.621094 6.839844 0.417969 C 6.636719 0.214844 6.535156 -0.046875 6.535156 -0.371094 L 6.535156 -6.519531 L 7.257812 -6.519531 L 7.257812 -5.796875 L 4.300781 -5.796875 L 4.300781 -6.519531 L 5.023438 -6.519531 L 5.023438 -0.371094 C 5.023438 -0.046875 4.921875 0.214844 4.71875 0.417969 C 4.515625 0.621094 4.253906 0.722656 3.929688 0.722656 L 1.550781 0.722656 C 1.226562 0.722656 0.964844 0.625 0.757812 0.433594 C 0.542969 0.230469 0.433594 -0.0390625 0.433594 -0.371094 L 0.433594 -15.8125 C 0.433594 -16.144531 0.542969 -16.410156 0.757812 -16.617188 C 0.964844 -16.808594 1.226562 -16.90625 1.550781 -16.90625 L 3.929688 -16.90625 C 4.253906 -16.90625 4.515625 -16.804688 4.71875 -16.601562 C 4.921875 -16.398438 5.023438 -16.136719 5.023438 -15.8125 L 5.023438 -9.570312 L 4.300781 -9.570312 L 4.300781 -10.292969 L 7.257812 -10.292969 L 7.257812 -9.570312 Z M 7.980469 -8.847656 L 3.578125 -8.847656 L 3.578125 -15.8125 C 3.578125 -15.796875 3.582031 -15.773438 3.589844 -15.746094 C 3.613281 -15.683594 3.648438 -15.628906 3.695312 -15.578125 C 3.746094 -15.53125 3.800781 -15.496094 3.863281 -15.472656 C 3.890625 -15.464844 3.914062 -15.460938 3.929688 -15.460938 L 1.550781 -15.460938 C 1.558594 -15.460938 1.570312 -15.464844 1.59375 -15.46875 C 1.648438 -15.488281 1.703125 -15.519531 1.75 -15.5625 C 1.800781 -15.613281 1.839844 -15.667969 1.863281 -15.734375 C 1.871094 -15.765625 1.878906 -15.792969 1.878906 -15.8125 L 1.878906 -0.371094 C 1.878906 -0.390625 1.871094 -0.417969 1.863281 -0.449219 C 1.839844 -0.511719 1.800781 -0.570312 1.75 -0.617188 C 1.703125 -0.664062 1.648438 -0.695312 1.59375 -0.710938 C 1.570312 -0.71875 1.558594 -0.722656 1.550781 -0.722656 L 3.929688 -0.722656 C 3.914062 -0.722656 3.890625 -0.71875 3.863281 -0.707031 C 3.800781 -0.6875 3.746094 -0.652344 3.695312 -0.601562 C 3.648438 -0.554688 3.613281 -0.5 3.589844 -0.4375 C 3.582031 -0.410156 3.578125 -0.386719 3.578125 -0.371094 L 3.578125 -7.242188 L 7.980469 -7.242188 L 7.980469 -0.371094 C 7.980469 -0.386719 7.976562 -0.410156 7.96875 -0.4375 C 7.945312 -0.5 7.910156 -0.554688 7.863281 -0.601562 C 7.8125 -0.652344 7.757812 -0.6875 7.695312 -0.707031 C 7.667969 -0.71875 7.644531 -0.722656 7.628906 -0.722656 L 10.011719 -0.722656 C 10 -0.722656 9.988281 -0.71875 9.964844 -0.710938 C 9.910156 -0.695312 9.855469 -0.664062 9.808594 -0.617188 C 9.757812 -0.570312 9.71875 -0.511719 9.699219 -0.449219 C 9.6875 -0.417969 9.679688 -0.390625 9.679688 -0.371094 L 9.679688 -15.8125 C 9.679688 -15.792969 9.6875 -15.765625 9.699219 -15.734375 C 9.71875 -15.667969 9.757812 -15.613281 9.808594 -15.5625 C 9.855469 -15.519531 9.910156 -15.488281 9.964844 -15.46875 C 9.988281 -15.464844 10 -15.460938 10.011719 -15.460938 L 7.628906 -15.460938 C 7.644531 -15.460938 7.667969 -15.464844 7.695312 -15.472656 C 7.757812 -15.496094 7.8125 -15.53125 7.863281 -15.578125 C 7.910156 -15.628906 7.945312 -15.683594 7.96875 -15.746094 C 7.976562 -15.773438 7.980469 -15.796875 7.980469 -15.8125 Z M 7.980469 -8.847656 "/></g></g><g style="fill:#b21a22;fill-opacity:1;"><g transform="translate(45.726311, 40.968031)"><path style="stroke:none" d="M 1.527344 -0.722656 L 3.929688 -0.722656 C 3.914062 -0.722656 3.890625 -0.71875 3.863281 -0.707031 C 3.800781 -0.6875 3.746094 -0.652344 3.695312 -0.601562 C 3.648438 -0.554688 3.613281 -0.5 3.589844 -0.4375 C 3.582031 -0.410156 3.578125 -0.386719 3.578125 -0.371094 L 3.578125 -15.8125 C 3.578125 -15.796875 3.582031 -15.773438 3.589844 -15.746094 C 3.613281 -15.683594 3.648438 -15.628906 3.695312 -15.578125 C 3.746094 -15.53125 3.800781 -15.496094 3.863281 -15.472656 C 3.890625 -15.464844 3.914062 -15.460938 3.929688 -15.460938 L 1.527344 -15.460938 C 1.542969 -15.460938 1.566406 -15.464844 1.59375 -15.472656 C 1.652344 -15.496094 1.710938 -15.53125 1.757812 -15.578125 C 1.808594 -15.628906 1.84375 -15.683594 1.863281 -15.746094 C 1.875 -15.773438 1.878906 -15.796875 1.878906 -15.8125 L 1.878906 -0.371094 C 1.878906 -0.386719 1.875 -0.410156 1.863281 -0.4375 C 1.84375 -0.5 1.808594 -0.554688 1.757812 -0.601562 C 1.710938 -0.652344 1.652344 -0.6875 1.59375 -0.707031 C 1.566406 -0.71875 1.542969 -0.722656 1.527344 -0.722656 Z M 1.527344 0.722656 C 1.203125 0.722656 0.941406 0.621094 0.738281 0.417969 C 0.535156 0.214844 0.433594 -0.046875 0.433594 -0.371094 L 0.433594 -15.8125 C 0.433594 -16.136719 0.535156 -16.398438 0.738281 -16.601562 C 0.941406 -16.804688 1.203125 -16.90625 1.527344 -16.90625 L 3.929688 -16.90625 C 4.253906 -16.90625 4.515625 -16.804688 4.71875 -16.601562 C 4.921875 -16.398438 5.023438 -16.136719 5.023438 -15.8125 L 5.023438 -0.371094 C 5.023438 -0.046875 4.921875 0.214844 4.71875 0.417969 C 4.515625 0.621094 4.253906 0.722656 3.929688 0.722656 Z M 1.527344 0.722656 "/></g></g><g style="fill:#b21a22;fill-opacity:1;"><g transform="translate(51.180335, 40.968031)"><path style="stroke:none" d="M 11.125 -15.8125 L 11.125 -13.5 C 11.125 -13.179688 11.023438 -12.914062 10.820312 -12.710938 C 10.617188 -12.507812 10.355469 -12.410156 10.03125 -12.410156 L 4.300781 -12.410156 L 4.300781 -13.128906 L 5.023438 -13.128906 L 5.023438 -9.175781 L 4.300781 -9.175781 L 4.300781 -9.898438 L 8.644531 -9.898438 C 8.96875 -9.898438 9.230469 -9.796875 9.433594 -9.597656 C 9.636719 -9.394531 9.738281 -9.128906 9.738281 -8.808594 L 9.738281 -6.496094 C 9.738281 -6.171875 9.636719 -5.910156 9.433594 -5.707031 C 9.230469 -5.503906 8.96875 -5.402344 8.644531 -5.402344 L 4.300781 -5.402344 L 4.300781 -6.125 L 5.023438 -6.125 L 5.023438 -0.371094 C 5.023438 -0.046875 4.921875 0.214844 4.71875 0.417969 C 4.515625 0.621094 4.253906 0.722656 3.929688 0.722656 L 1.527344 0.722656 C 1.203125 0.722656 0.941406 0.621094 0.738281 0.417969 C 0.535156 0.214844 0.433594 -0.046875 0.433594 -0.371094 L 0.433594 -15.8125 C 0.433594 -16.136719 0.535156 -16.398438 0.738281 -16.601562 C 0.941406 -16.804688 1.203125 -16.90625 1.527344 -16.90625 L 10.03125 -16.90625 C 10.355469 -16.90625 10.617188 -16.804688 10.820312 -16.601562 C 11.023438 -16.398438 11.125 -16.136719 11.125 -15.8125 Z M 9.679688 -15.8125 C 9.679688 -15.796875 9.683594 -15.773438 9.695312 -15.746094 C 9.714844 -15.683594 9.75 -15.628906 9.800781 -15.578125 C 9.847656 -15.53125 9.90625 -15.496094 9.964844 -15.472656 C 9.996094 -15.464844 10.015625 -15.460938 10.03125 -15.460938 L 1.527344 -15.460938 C 1.542969 -15.460938 1.566406 -15.464844 1.59375 -15.472656 C 1.652344 -15.496094 1.710938 -15.53125 1.757812 -15.578125 C 1.808594 -15.628906 1.84375 -15.683594 1.863281 -15.746094 C 1.875 -15.773438 1.878906 -15.796875 1.878906 -15.8125 L 1.878906 -0.371094 C 1.878906 -0.386719 1.875 -0.410156 1.863281 -0.4375 C 1.84375 -0.5 1.808594 -0.554688 1.757812 -0.601562 C 1.710938 -0.652344 1.652344 -0.6875 1.59375 -0.707031 C 1.566406 -0.71875 1.542969 -0.722656 1.527344 -0.722656 L 3.929688 -0.722656 C 3.914062 -0.722656 3.890625 -0.71875 3.863281 -0.707031 C 3.800781 -0.6875 3.746094 -0.652344 3.695312 -0.601562 C 3.648438 -0.554688 3.613281 -0.5 3.589844 -0.4375 C 3.582031 -0.410156 3.578125 -0.386719 3.578125 -0.371094 L 3.578125 -6.847656 L 8.644531 -6.847656 C 8.628906 -6.847656 8.605469 -6.84375 8.578125 -6.835938 C 8.519531 -6.8125 8.460938 -6.777344 8.414062 -6.730469 C 8.363281 -6.679688 8.328125 -6.625 8.308594 -6.5625 C 8.296875 -6.535156 8.292969 -6.511719 8.292969 -6.496094 L 8.292969 -8.808594 C 8.292969 -8.792969 8.296875 -8.769531 8.308594 -8.742188 C 8.328125 -8.679688 8.363281 -8.625 8.414062 -8.574219 C 8.460938 -8.523438 8.519531 -8.488281 8.578125 -8.46875 C 8.605469 -8.460938 8.628906 -8.457031 8.644531 -8.457031 L 3.578125 -8.457031 L 3.578125 -13.851562 L 10.03125 -13.851562 C 10.015625 -13.851562 9.996094 -13.847656 9.964844 -13.839844 C 9.90625 -13.820312 9.847656 -13.785156 9.800781 -13.734375 C 9.75 -13.683594 9.714844 -13.628906 9.695312 -13.566406 C 9.683594 -13.539062 9.679688 -13.515625 9.679688 -13.5 Z M 9.679688 -15.8125 "/></g></g><g style="fill:#b21a22;fill-opacity:1;"><g transform="translate(62.735477, 40.968031)"><path style="stroke:none" d="M 9.570312 -15.460938 L 1.0625 -15.460938 C 1.078125 -15.460938 1.101562 -15.464844 1.128906 -15.472656 C 1.191406 -15.496094 1.246094 -15.53125 1.296875 -15.578125 C 1.347656 -15.628906 1.382812 -15.683594 1.402344 -15.746094 C 1.410156 -15.773438 1.414062 -15.796875 1.414062 -15.8125 L 1.414062 -13.5 C 1.414062 -13.515625 1.410156 -13.539062 1.402344 -13.566406 C 1.382812 -13.628906 1.347656 -13.683594 1.296875 -13.734375 C 1.246094 -13.785156 1.191406 -13.820312 1.128906 -13.839844 C 1.101562 -13.847656 1.078125 -13.851562 1.0625 -13.851562 L 4.46875 -13.851562 L 4.46875 -0.371094 C 4.46875 -0.386719 4.460938 -0.410156 4.453125 -0.4375 C 4.433594 -0.5 4.398438 -0.554688 4.347656 -0.601562 C 4.296875 -0.652344 4.242188 -0.6875 4.179688 -0.707031 C 4.152344 -0.71875 4.132812 -0.722656 4.113281 -0.722656 L 6.519531 -0.722656 C 6.503906 -0.722656 6.480469 -0.71875 6.453125 -0.707031 C 6.390625 -0.6875 6.335938 -0.652344 6.285156 -0.601562 C 6.234375 -0.554688 6.199219 -0.5 6.179688 -0.4375 C 6.171875 -0.410156 6.167969 -0.386719 6.167969 -0.371094 L 6.167969 -13.851562 L 9.570312 -13.851562 C 9.554688 -13.851562 9.53125 -13.847656 9.503906 -13.839844 C 9.441406 -13.820312 9.386719 -13.785156 9.335938 -13.734375 C 9.289062 -13.683594 9.253906 -13.628906 9.230469 -13.566406 C 9.222656 -13.539062 9.21875 -13.515625 9.21875 -13.5 L 9.21875 -15.8125 C 9.21875 -15.796875 9.222656 -15.773438 9.230469 -15.746094 C 9.253906 -15.683594 9.289062 -15.628906 9.335938 -15.578125 C 9.386719 -15.53125 9.441406 -15.496094 9.503906 -15.472656 C 9.53125 -15.464844 9.554688 -15.460938 9.570312 -15.460938 Z M 9.570312 -16.90625 C 9.894531 -16.90625 10.15625 -16.804688 10.359375 -16.601562 C 10.5625 -16.398438 10.664062 -16.136719 10.664062 -15.8125 L 10.664062 -13.5 C 10.664062 -13.179688 10.5625 -12.914062 10.359375 -12.710938 C 10.15625 -12.507812 9.894531 -12.410156 9.570312 -12.410156 L 6.890625 -12.410156 L 6.890625 -13.128906 L 7.613281 -13.128906 L 7.613281 -0.371094 C 7.613281 -0.046875 7.511719 0.214844 7.308594 0.417969 C 7.105469 0.621094 6.84375 0.722656 6.519531 0.722656 L 4.113281 0.722656 C 3.792969 0.722656 3.53125 0.621094 3.328125 0.417969 C 3.125 0.214844 3.023438 -0.046875 3.023438 -0.371094 L 3.023438 -13.128906 L 3.746094 -13.128906 L 3.746094 -12.410156 L 1.0625 -12.410156 C 0.742188 -12.410156 0.476562 -12.507812 0.273438 -12.710938 C 0.0742188 -12.914062 -0.0273438 -13.179688 -0.0273438 -13.5 L -0.0273438 -15.8125 C -0.0273438 -16.136719 0.0742188 -16.398438 0.273438 -16.601562 C 0.476562 -16.804688 0.742188 -16.90625 1.0625 -16.90625 Z M 9.570312 -16.90625 "/></g></g><g style="fill:#b21a22;fill-opacity:1;"><g transform="translate(24.685329, 73.19788)"><path style="stroke:none" d="M 12.066406 0.722656 L 9.824219 0.722656 C 9.542969 0.722656 9.304688 0.636719 9.105469 0.460938 C 8.925781 0.304688 8.804688 0.09375 8.75 -0.171875 L 9.457031 -0.324219 L 8.753906 -0.144531 L 8.015625 -3.058594 L 8.714844 -3.238281 L 8.714844 -2.515625 L 4.371094 -2.515625 L 4.371094 -3.238281 L 5.070312 -3.0625 L 4.355469 -0.152344 L 3.652344 -0.324219 L 4.359375 -0.171875 C 4.300781 0.09375 4.183594 0.304688 4 0.460938 C 3.804688 0.636719 3.5625 0.722656 3.28125 0.722656 L 1.015625 0.722656 C 0.640625 0.722656 0.355469 0.59375 0.160156 0.339844 C -0.0390625 0.0820312 -0.0820312 -0.230469 0.0234375 -0.597656 L 0.714844 -0.394531 L 0.015625 -0.566406 L 3.851562 -16.03125 L 4.554688 -15.859375 L 3.847656 -16.011719 C 3.90625 -16.28125 4.03125 -16.5 4.226562 -16.660156 C 4.425781 -16.824219 4.667969 -16.90625 4.945312 -16.90625 L 8.160156 -16.90625 C 8.441406 -16.90625 8.679688 -16.824219 8.878906 -16.660156 C 9.074219 -16.5 9.203125 -16.28125 9.261719 -16.011719 L 8.554688 -15.859375 L 9.253906 -16.03125 L 13.09375 -0.566406 L 12.390625 -0.394531 L 13.085938 -0.597656 C 13.195312 -0.222656 13.140625 0.0976562 12.925781 0.359375 C 12.726562 0.601562 12.441406 0.722656 12.066406 0.722656 Z M 12.066406 -0.722656 C 12.070312 -0.722656 12.074219 -0.722656 12.078125 -0.722656 C 12.074219 -0.722656 12.074219 -0.722656 12.074219 -0.722656 C 12.058594 -0.71875 12.046875 -0.71875 12.027344 -0.710938 C 11.945312 -0.683594 11.871094 -0.632812 11.808594 -0.558594 C 11.742188 -0.472656 11.703125 -0.378906 11.695312 -0.277344 C 11.691406 -0.238281 11.691406 -0.207031 11.699219 -0.1875 L 11.695312 -0.203125 L 7.847656 -15.695312 L 7.847656 -15.707031 C 7.859375 -15.652344 7.898438 -15.597656 7.960938 -15.542969 C 8.027344 -15.488281 8.09375 -15.460938 8.160156 -15.460938 L 4.945312 -15.460938 C 5.011719 -15.460938 5.078125 -15.488281 5.144531 -15.542969 C 5.210938 -15.597656 5.25 -15.652344 5.261719 -15.707031 L 5.257812 -15.695312 L 1.414062 -0.203125 L 1.410156 -0.1875 C 1.414062 -0.203125 1.414062 -0.230469 1.414062 -0.261719 C 1.40625 -0.363281 1.371094 -0.453125 1.308594 -0.539062 C 1.246094 -0.621094 1.167969 -0.675781 1.078125 -0.707031 C 1.050781 -0.71875 1.027344 -0.722656 1.015625 -0.722656 L 3.28125 -0.722656 C 3.203125 -0.722656 3.125 -0.691406 3.050781 -0.625 C 2.992188 -0.574219 2.957031 -0.523438 2.945312 -0.476562 L 2.949219 -0.484375 L 3.804688 -3.957031 L 9.277344 -3.957031 L 10.160156 -0.488281 L 10.160156 -0.476562 C 10.152344 -0.523438 10.117188 -0.574219 10.058594 -0.625 C 9.984375 -0.691406 9.90625 -0.722656 9.824219 -0.722656 Z M 7.292969 -5.753906 L 5.839844 -12.042969 L 6.542969 -12.207031 L 7.246094 -12.042969 L 5.789062 -5.753906 L 5.085938 -5.917969 L 5.085938 -6.640625 L 8 -6.640625 L 8 -5.917969 Z M 8.90625 -5.195312 L 4.175781 -5.195312 L 5.839844 -12.367188 L 7.246094 -12.367188 L 8.703125 -6.082031 Z M 8.90625 -5.195312 "/></g></g><g style="fill:#b21a22;fill-opacity:1;"><g transform="translate(37.788863, 73.19788)"><path style="stroke:none" d="M 11.148438 -12.851562 L 11.148438 -9.734375 C 11.148438 -9.109375 10.945312 -8.582031 10.535156 -8.148438 C 10.148438 -7.742188 9.671875 -7.488281 9.101562 -7.378906 L 8.96875 -8.089844 L 9.691406 -8.089844 L 9.691406 -8.046875 L 8.96875 -8.046875 L 9.074219 -8.757812 C 9.660156 -8.671875 10.148438 -8.417969 10.539062 -7.992188 C 10.945312 -7.554688 11.148438 -7.023438 11.148438 -6.402344 L 11.148438 -3.328125 C 11.148438 -2.050781 10.792969 -1.054688 10.082031 -0.34375 C 9.371094 0.367188 8.367188 0.722656 7.074219 0.722656 L 1.527344 0.722656 C 1.203125 0.722656 0.941406 0.621094 0.738281 0.417969 C 0.535156 0.214844 0.433594 -0.046875 0.433594 -0.371094 L 0.433594 -15.8125 C 0.433594 -16.136719 0.535156 -16.398438 0.738281 -16.601562 C 0.941406 -16.804688 1.203125 -16.90625 1.527344 -16.90625 L 7.074219 -16.90625 C 8.367188 -16.90625 9.367188 -16.554688 10.078125 -15.851562 C 10.792969 -15.148438 11.148438 -14.148438 11.148438 -12.851562 Z M 9.703125 -12.851562 C 9.703125 -13.746094 9.488281 -14.402344 9.0625 -14.824219 C 8.632812 -15.246094 7.96875 -15.460938 7.074219 -15.460938 L 1.527344 -15.460938 C 1.542969 -15.460938 1.566406 -15.464844 1.59375 -15.472656 C 1.652344 -15.496094 1.710938 -15.53125 1.757812 -15.578125 C 1.808594 -15.628906 1.84375 -15.683594 1.863281 -15.746094 C 1.875 -15.773438 1.878906 -15.796875 1.878906 -15.8125 L 1.878906 -0.371094 C 1.878906 -0.386719 1.875 -0.410156 1.863281 -0.4375 C 1.84375 -0.5 1.808594 -0.554688 1.757812 -0.601562 C 1.710938 -0.652344 1.652344 -0.6875 1.59375 -0.707031 C 1.566406 -0.71875 1.542969 -0.722656 1.527344 -0.722656 L 7.074219 -0.722656 C 7.96875 -0.722656 8.628906 -0.9375 9.058594 -1.367188 C 9.488281 -1.796875 9.703125 -2.449219 9.703125 -3.328125 L 9.703125 -6.402344 C 9.703125 -6.648438 9.628906 -6.847656 9.480469 -7.011719 C 9.316406 -7.1875 9.113281 -7.292969 8.863281 -7.332031 L 8.246094 -7.421875 L 8.246094 -8.691406 L 8.839844 -8.800781 C 9.101562 -8.851562 9.316406 -8.964844 9.484375 -9.144531 C 9.628906 -9.296875 9.703125 -9.492188 9.703125 -9.734375 Z M 6.769531 -10.496094 L 6.769531 -12.34375 C 6.769531 -12.421875 6.761719 -12.480469 6.746094 -12.519531 C 6.746094 -12.527344 6.742188 -12.535156 6.742188 -12.535156 C 6.742188 -12.535156 6.746094 -12.53125 6.75 -12.527344 C 6.75 -12.523438 6.753906 -12.523438 6.757812 -12.519531 C 6.753906 -12.523438 6.75 -12.523438 6.742188 -12.527344 C 6.699219 -12.539062 6.640625 -12.546875 6.566406 -12.546875 L 4.023438 -12.546875 L 4.023438 -13.269531 L 4.746094 -13.269531 L 4.746094 -9.59375 L 4.023438 -9.59375 L 4.023438 -10.316406 L 6.566406 -10.316406 C 6.644531 -10.316406 6.703125 -10.324219 6.746094 -10.335938 C 6.753906 -10.339844 6.761719 -10.34375 6.765625 -10.34375 C 6.761719 -10.34375 6.757812 -10.339844 6.753906 -10.335938 C 6.75 -10.332031 6.746094 -10.328125 6.746094 -10.324219 C 6.746094 -10.324219 6.746094 -10.328125 6.75 -10.335938 C 6.761719 -10.371094 6.769531 -10.425781 6.769531 -10.496094 Z M 8.210938 -10.496094 C 8.210938 -9.992188 8.0625 -9.59375 7.761719 -9.300781 C 7.46875 -9.015625 7.070312 -8.871094 6.566406 -8.871094 L 3.300781 -8.871094 L 3.300781 -13.992188 L 6.566406 -13.992188 C 7.074219 -13.992188 7.472656 -13.84375 7.769531 -13.550781 C 8.066406 -13.253906 8.210938 -12.851562 8.210938 -12.34375 Z M 6.769531 -3.835938 L 6.769531 -5.617188 C 6.769531 -5.695312 6.761719 -5.753906 6.746094 -5.792969 C 6.746094 -5.800781 6.742188 -5.804688 6.742188 -5.808594 C 6.742188 -5.808594 6.746094 -5.804688 6.75 -5.800781 C 6.75 -5.796875 6.753906 -5.792969 6.757812 -5.792969 C 6.753906 -5.792969 6.75 -5.796875 6.742188 -5.800781 C 6.699219 -5.8125 6.640625 -5.820312 6.566406 -5.820312 L 4.023438 -5.820312 L 4.023438 -6.542969 L 4.746094 -6.542969 L 4.746094 -2.914062 L 4.023438 -2.914062 L 4.023438 -3.636719 L 6.566406 -3.636719 C 6.640625 -3.636719 6.699219 -3.640625 6.742188 -3.65625 C 6.75 -3.660156 6.753906 -3.660156 6.757812 -3.664062 C 6.753906 -3.660156 6.75 -3.660156 6.75 -3.65625 C 6.746094 -3.652344 6.742188 -3.648438 6.742188 -3.644531 C 6.742188 -3.648438 6.746094 -3.652344 6.746094 -3.660156 C 6.761719 -3.703125 6.769531 -3.761719 6.769531 -3.835938 Z M 8.210938 -3.835938 C 8.210938 -3.328125 8.066406 -2.929688 7.769531 -2.632812 C 7.472656 -2.339844 7.074219 -2.191406 6.566406 -2.191406 L 3.300781 -2.191406 L 3.300781 -7.265625 L 6.566406 -7.265625 C 7.074219 -7.265625 7.472656 -7.117188 7.769531 -6.820312 C 8.066406 -6.527344 8.210938 -6.125 8.210938 -5.617188 Z M 8.210938 -3.835938 "/></g></g><g style="fill:#b21a22;fill-opacity:1;"><g transform="translate(49.36712, 73.19788)"><path style="stroke:none" d="M 3.578125 -3.050781 L 3.578125 -15.8125 C 3.578125 -15.796875 3.582031 -15.773438 3.589844 -15.746094 C 3.613281 -15.683594 3.648438 -15.628906 3.695312 -15.578125 C 3.746094 -15.53125 3.800781 -15.496094 3.863281 -15.472656 C 3.890625 -15.464844 3.914062 -15.460938 3.929688 -15.460938 L 1.527344 -15.460938 C 1.542969 -15.460938 1.566406 -15.464844 1.59375 -15.472656 C 1.652344 -15.496094 1.710938 -15.53125 1.757812 -15.578125 C 1.808594 -15.628906 1.84375 -15.683594 1.863281 -15.746094 C 1.875 -15.773438 1.878906 -15.796875 1.878906 -15.8125 L 1.878906 -0.371094 C 1.878906 -0.386719 1.875 -0.410156 1.863281 -0.4375 C 1.84375 -0.5 1.808594 -0.554688 1.757812 -0.601562 C 1.710938 -0.652344 1.652344 -0.6875 1.59375 -0.707031 C 1.566406 -0.71875 1.542969 -0.722656 1.527344 -0.722656 L 8.878906 -0.722656 C 8.859375 -0.722656 8.839844 -0.71875 8.808594 -0.707031 C 8.75 -0.6875 8.691406 -0.652344 8.644531 -0.601562 C 8.59375 -0.554688 8.558594 -0.5 8.539062 -0.4375 C 8.527344 -0.410156 8.523438 -0.386719 8.523438 -0.371094 L 8.523438 -2.683594 C 8.523438 -2.664062 8.527344 -2.644531 8.539062 -2.613281 C 8.558594 -2.554688 8.59375 -2.496094 8.644531 -2.449219 C 8.691406 -2.398438 8.75 -2.363281 8.808594 -2.34375 C 8.839844 -2.332031 8.859375 -2.328125 8.878906 -2.328125 L 3.578125 -2.328125 Z M 5.023438 -3.050781 L 4.300781 -3.050781 L 4.300781 -3.773438 L 8.878906 -3.773438 C 9.199219 -3.773438 9.460938 -3.671875 9.664062 -3.46875 C 9.867188 -3.265625 9.96875 -3.003906 9.96875 -2.683594 L 9.96875 -0.371094 C 9.96875 -0.046875 9.867188 0.214844 9.664062 0.417969 C 9.460938 0.621094 9.199219 0.722656 8.878906 0.722656 L 1.527344 0.722656 C 1.203125 0.722656 0.941406 0.621094 0.738281 0.417969 C 0.535156 0.214844 0.433594 -0.046875 0.433594 -0.371094 L 0.433594 -15.8125 C 0.433594 -16.136719 0.535156 -16.398438 0.738281 -16.601562 C 0.941406 -16.804688 1.203125 -16.90625 1.527344 -16.90625 L 3.929688 -16.90625 C 4.253906 -16.90625 4.515625 -16.804688 4.71875 -16.601562 C 4.921875 -16.398438 5.023438 -16.136719 5.023438 -15.8125 Z M 5.023438 -3.050781 "/></g></g><g style="fill:#b21a22;fill-opacity:1;"><g transform="translate(59.766747, 73.19788)"><path style="stroke:none" d="M 11.101562 -15.8125 L 11.101562 -13.5 C 11.101562 -13.179688 11.007812 -12.914062 10.8125 -12.710938 C 10.609375 -12.492188 10.339844 -12.386719 10.011719 -12.386719 L 4.300781 -12.386719 L 4.300781 -13.109375 L 5.023438 -13.109375 L 5.023438 -9.546875 L 4.300781 -9.546875 L 4.300781 -10.269531 L 8.644531 -10.269531 C 8.976562 -10.269531 9.246094 -10.160156 9.449219 -9.945312 C 9.640625 -9.738281 9.738281 -9.476562 9.738281 -9.15625 L 9.738281 -6.867188 C 9.738281 -6.542969 9.640625 -6.28125 9.449219 -6.074219 C 9.246094 -5.859375 8.976562 -5.75 8.644531 -5.75 L 4.300781 -5.75 L 4.300781 -6.472656 L 5.023438 -6.472656 L 5.023438 -3.050781 L 4.300781 -3.050781 L 4.300781 -3.773438 L 10.011719 -3.773438 C 10.332031 -3.773438 10.59375 -3.671875 10.796875 -3.46875 C 11 -3.265625 11.101562 -3.003906 11.101562 -2.683594 L 11.101562 -0.371094 C 11.101562 -0.046875 11 0.214844 10.796875 0.417969 C 10.59375 0.621094 10.332031 0.722656 10.011719 0.722656 L 1.503906 0.722656 C 1.179688 0.722656 0.914062 0.617188 0.714844 0.402344 C 0.527344 0.199219 0.433594 -0.0546875 0.433594 -0.371094 L 0.433594 -15.8125 C 0.433594 -16.125 0.527344 -16.382812 0.714844 -16.582031 C 0.914062 -16.796875 1.179688 -16.90625 1.503906 -16.90625 L 10.011719 -16.90625 C 10.332031 -16.90625 10.59375 -16.804688 10.796875 -16.601562 C 11 -16.398438 11.101562 -16.136719 11.101562 -15.8125 Z M 9.65625 -15.8125 C 9.65625 -15.796875 9.660156 -15.773438 9.671875 -15.746094 C 9.691406 -15.683594 9.726562 -15.628906 9.777344 -15.578125 C 9.824219 -15.53125 9.882812 -15.496094 9.941406 -15.472656 C 9.972656 -15.464844 9.992188 -15.460938 10.011719 -15.460938 L 1.503906 -15.460938 C 1.597656 -15.460938 1.683594 -15.503906 1.769531 -15.597656 C 1.816406 -15.644531 1.847656 -15.699219 1.867188 -15.757812 C 1.875 -15.78125 1.878906 -15.800781 1.878906 -15.8125 L 1.878906 -0.371094 C 1.878906 -0.382812 1.875 -0.398438 1.867188 -0.421875 C 1.847656 -0.484375 1.816406 -0.535156 1.769531 -0.585938 C 1.683594 -0.675781 1.597656 -0.722656 1.503906 -0.722656 L 10.011719 -0.722656 C 9.992188 -0.722656 9.972656 -0.71875 9.941406 -0.707031 C 9.882812 -0.6875 9.824219 -0.652344 9.777344 -0.601562 C 9.726562 -0.554688 9.691406 -0.5 9.671875 -0.4375 C 9.660156 -0.410156 9.65625 -0.386719 9.65625 -0.371094 L 9.65625 -2.683594 C 9.65625 -2.664062 9.660156 -2.644531 9.671875 -2.613281 C 9.691406 -2.554688 9.726562 -2.496094 9.777344 -2.449219 C 9.824219 -2.398438 9.882812 -2.363281 9.941406 -2.34375 C 9.972656 -2.332031 9.992188 -2.328125 10.011719 -2.328125 L 3.578125 -2.328125 L 3.578125 -7.195312 L 8.644531 -7.195312 C 8.625 -7.195312 8.597656 -7.191406 8.566406 -7.179688 C 8.503906 -7.15625 8.445312 -7.117188 8.398438 -7.066406 C 8.351562 -7.019531 8.320312 -6.964844 8.304688 -6.910156 C 8.296875 -6.890625 8.292969 -6.875 8.292969 -6.867188 L 8.292969 -9.15625 C 8.292969 -9.144531 8.296875 -9.132812 8.304688 -9.109375 C 8.320312 -9.054688 8.351562 -9 8.398438 -8.953125 C 8.445312 -8.902344 8.503906 -8.863281 8.566406 -8.84375 C 8.597656 -8.832031 8.625 -8.824219 8.644531 -8.824219 L 3.578125 -8.824219 L 3.578125 -13.832031 L 10.011719 -13.832031 C 9.988281 -13.832031 9.960938 -13.824219 9.929688 -13.8125 C 9.867188 -13.789062 9.808594 -13.753906 9.761719 -13.699219 C 9.714844 -13.652344 9.683594 -13.601562 9.667969 -13.546875 C 9.660156 -13.523438 9.65625 -13.507812 9.65625 -13.5 Z M 9.65625 -15.8125 "/></g></g><g style="fill:#060705;fill-opacity:1;"><g transform="translate(22.616027, 40.968031)"><path style="stroke:none" d="M 4.484375 -16.1875 L 7.078125 -16.1875 C 8.171875 -16.1875 9 -15.90625 9.5625 -15.34375 C 10.125 -14.78125 10.40625 -13.953125 10.40625 -12.859375 L 10.40625 -11.328125 C 10.40625 -11.085938 10.28125 -10.96875 10.03125 -10.96875 L 7.703125 -10.96875 C 7.453125 -10.96875 7.328125 -11.085938 7.328125 -11.328125 L 7.328125 -12.296875 C 7.328125 -12.921875 7.019531 -13.234375 6.40625 -13.234375 L 5.140625 -13.234375 C 4.515625 -13.234375 4.203125 -12.921875 4.203125 -12.296875 L 4.203125 -10.34375 L 9.8125 -8.53125 C 10.207031 -8.394531 10.40625 -8.109375 10.40625 -7.671875 L 10.40625 -3.328125 C 10.40625 -2.253906 10.125 -1.429688 9.5625 -0.859375 C 9 -0.285156 8.171875 0 7.078125 0 L 4.484375 0 C 3.410156 0 2.585938 -0.285156 2.015625 -0.859375 C 1.441406 -1.429688 1.15625 -2.253906 1.15625 -3.328125 L 1.15625 -4.828125 C 1.15625 -5.078125 1.28125 -5.203125 1.53125 -5.203125 L 3.859375 -5.203125 C 4.109375 -5.203125 4.234375 -5.078125 4.234375 -4.828125 L 4.234375 -3.859375 C 4.234375 -3.242188 4.539062 -2.9375 5.15625 -2.9375 L 6.40625 -2.9375 C 7.019531 -2.9375 7.328125 -3.242188 7.328125 -3.859375 L 7.328125 -6.203125 L 1.78125 -8 C 1.363281 -8.132812 1.15625 -8.421875 1.15625 -8.859375 L 1.15625 -12.859375 C 1.15625 -13.953125 1.441406 -14.78125 2.015625 -15.34375 C 2.585938 -15.90625 3.410156 -16.1875 4.484375 -16.1875 Z M 4.484375 -16.1875 "/></g></g><g style="fill:#060705;fill-opacity:1;"><g transform="translate(34.171169, 40.968031)"><path style="stroke:none" d="M 7.265625 -9.578125 L 7.265625 -15.8125 C 7.265625 -16.0625 7.382812 -16.1875 7.625 -16.1875 L 10.015625 -16.1875 C 10.273438 -16.1875 10.40625 -16.0625 10.40625 -15.8125 L 10.40625 -0.375 C 10.40625 -0.125 10.273438 0 10.015625 0 L 7.625 0 C 7.382812 0 7.265625 -0.125 7.265625 -0.375 L 7.265625 -6.515625 L 4.296875 -6.515625 L 4.296875 -0.375 C 4.296875 -0.125 4.175781 0 3.9375 0 L 1.546875 0 C 1.285156 0 1.15625 -0.125 1.15625 -0.375 L 1.15625 -15.8125 C 1.15625 -16.0625 1.285156 -16.1875 1.546875 -16.1875 L 3.9375 -16.1875 C 4.175781 -16.1875 4.296875 -16.0625 4.296875 -15.8125 L 4.296875 -9.578125 Z M 7.265625 -9.578125 "/></g></g><g style="fill:#060705;fill-opacity:1;"><g transform="translate(45.726311, 40.968031)"><path style="stroke:none" d="M 1.53125 0 L 3.9375 0 C 4.175781 0 4.296875 -0.125 4.296875 -0.375 L 4.296875 -15.8125 C 4.296875 -16.0625 4.175781 -16.1875 3.9375 -16.1875 L 1.53125 -16.1875 C 1.28125 -16.1875 1.15625 -16.0625 1.15625 -15.8125 L 1.15625 -0.375 C 1.15625 -0.125 1.28125 0 1.53125 0 Z M 1.53125 0 "/></g></g><g style="fill:#060705;fill-opacity:1;"><g transform="translate(51.180335, 40.968031)"><path style="stroke:none" d="M 10.40625 -15.8125 L 10.40625 -13.5 C 10.40625 -13.257812 10.28125 -13.140625 10.03125 -13.140625 L 4.296875 -13.140625 L 4.296875 -9.1875 L 8.65625 -9.1875 C 8.894531 -9.1875 9.015625 -9.0625 9.015625 -8.8125 L 9.015625 -6.5 C 9.015625 -6.25 8.894531 -6.125 8.65625 -6.125 L 4.296875 -6.125 L 4.296875 -0.375 C 4.296875 -0.125 4.175781 0 3.9375 0 L 1.53125 0 C 1.28125 0 1.15625 -0.125 1.15625 -0.375 L 1.15625 -15.8125 C 1.15625 -16.0625 1.28125 -16.1875 1.53125 -16.1875 L 10.03125 -16.1875 C 10.28125 -16.1875 10.40625 -16.0625 10.40625 -15.8125 Z M 10.40625 -15.8125 "/></g></g><g style="fill:#060705;fill-opacity:1;"><g transform="translate(62.735477, 40.968031)"><path style="stroke:none" d="M 9.578125 -16.1875 L 1.0625 -16.1875 C 0.8125 -16.1875 0.6875 -16.0625 0.6875 -15.8125 L 0.6875 -13.5 C 0.6875 -13.257812 0.8125 -13.140625 1.0625 -13.140625 L 3.75 -13.140625 L 3.75 -0.375 C 3.75 -0.125 3.867188 0 4.109375 0 L 6.515625 0 C 6.765625 0 6.890625 -0.125 6.890625 -0.375 L 6.890625 -13.140625 L 9.578125 -13.140625 C 9.816406 -13.140625 9.9375 -13.257812 9.9375 -13.5 L 9.9375 -15.8125 C 9.9375 -16.0625 9.816406 -16.1875 9.578125 -16.1875 Z M 9.578125 -16.1875 "/></g></g><g style="fill:#060705;fill-opacity:1;"><g transform="translate(24.685329, 73.19788)"><path style="stroke:none" d="M 12.078125 0 L 9.828125 0 C 9.628906 0 9.503906 -0.109375 9.453125 -0.328125 L 8.71875 -3.234375 L 4.375 -3.234375 L 3.65625 -0.328125 C 3.601562 -0.109375 3.476562 0 3.28125 0 L 1.015625 0 C 0.734375 0 0.632812 -0.128906 0.71875 -0.390625 L 4.5625 -15.859375 C 4.601562 -16.078125 4.734375 -16.1875 4.953125 -16.1875 L 8.15625 -16.1875 C 8.375 -16.1875 8.507812 -16.078125 8.5625 -15.859375 L 12.390625 -0.390625 C 12.472656 -0.128906 12.367188 0 12.078125 0 Z M 8 -5.921875 L 6.546875 -12.203125 L 5.09375 -5.921875 Z M 8 -5.921875 "/></g></g><g style="fill:#060705;fill-opacity:1;"><g transform="translate(37.788863, 73.19788)"><path style="stroke:none" d="M 10.421875 -12.859375 L 10.421875 -9.734375 C 10.421875 -9.304688 10.28125 -8.941406 10 -8.640625 C 9.726562 -8.347656 9.382812 -8.164062 8.96875 -8.09375 L 8.96875 -8.046875 C 9.382812 -7.984375 9.726562 -7.800781 10 -7.5 C 10.28125 -7.195312 10.421875 -6.832031 10.421875 -6.40625 L 10.421875 -3.328125 C 10.421875 -2.253906 10.132812 -1.429688 9.5625 -0.859375 C 9 -0.285156 8.171875 0 7.078125 0 L 1.53125 0 C 1.28125 0 1.15625 -0.125 1.15625 -0.375 L 1.15625 -15.8125 C 1.15625 -16.0625 1.28125 -16.1875 1.53125 -16.1875 L 7.078125 -16.1875 C 8.171875 -16.1875 9 -15.90625 9.5625 -15.34375 C 10.132812 -14.78125 10.421875 -13.953125 10.421875 -12.859375 Z M 7.5 -10.5 L 7.5 -12.34375 C 7.5 -12.96875 7.1875 -13.28125 6.5625 -13.28125 L 4.03125 -13.28125 L 4.03125 -9.59375 L 6.5625 -9.59375 C 7.1875 -9.59375 7.5 -9.894531 7.5 -10.5 Z M 7.5 -3.84375 L 7.5 -5.625 C 7.5 -6.238281 7.1875 -6.546875 6.5625 -6.546875 L 4.03125 -6.546875 L 4.03125 -2.90625 L 6.5625 -2.90625 C 7.1875 -2.90625 7.5 -3.21875 7.5 -3.84375 Z M 7.5 -3.84375 "/></g></g><g style="fill:#060705;fill-opacity:1;"><g transform="translate(49.36712, 73.19788)"><path style="stroke:none" d="M 4.296875 -3.046875 L 4.296875 -15.8125 C 4.296875 -16.0625 4.175781 -16.1875 3.9375 -16.1875 L 1.53125 -16.1875 C 1.28125 -16.1875 1.15625 -16.0625 1.15625 -15.8125 L 1.15625 -0.375 C 1.15625 -0.125 1.28125 0 1.53125 0 L 8.875 0 C 9.125 0 9.25 -0.125 9.25 -0.375 L 9.25 -2.6875 C 9.25 -2.925781 9.125 -3.046875 8.875 -3.046875 Z M 4.296875 -3.046875 "/></g></g><g style="fill:#060705;fill-opacity:1;"><g transform="translate(59.766747, 73.19788)"><path style="stroke:none" d="M 10.390625 -15.8125 L 10.390625 -13.5 C 10.390625 -13.238281 10.265625 -13.109375 10.015625 -13.109375 L 4.296875 -13.109375 L 4.296875 -9.546875 L 8.65625 -9.546875 C 8.894531 -9.546875 9.015625 -9.414062 9.015625 -9.15625 L 9.015625 -6.875 C 9.015625 -6.601562 8.894531 -6.46875 8.65625 -6.46875 L 4.296875 -6.46875 L 4.296875 -3.046875 L 10.015625 -3.046875 C 10.265625 -3.046875 10.390625 -2.925781 10.390625 -2.6875 L 10.390625 -0.375 C 10.390625 -0.125 10.265625 0 10.015625 0 L 1.5 0 C 1.269531 0 1.15625 -0.125 1.15625 -0.375 L 1.15625 -15.8125 C 1.15625 -16.0625 1.269531 -16.1875 1.5 -16.1875 L 10.015625 -16.1875 C 10.265625 -16.1875 10.390625 -16.0625 10.390625 -15.8125 Z M 10.390625 -15.8125 "/></g></g></g></svg>