<svg xmlns="http://www.w3.org/2000/svg" xmlns:xlink="http://www.w3.org/1999/xlink" width="192" zoomAndPan="magnify" viewBox="0 0 144 143.999998" height="192" preserveAspectRatio="xMidYMid meet" version="1.2"><defs><clipPath id="813156cdc6"><path d="M 9 0 L 135 0 L 135 144 L 9 144 Z M 9 0 "/></clipPath><clipPath id="faf9500ccf"><path d="M -21.457031 54.867188 L 103.039062 -17.847656 L 165.503906 89.105469 L 41.007812 161.816406 Z M -21.457031 54.867188 "/></clipPath><clipPath id="a8cd35e3ff"><path d="M 134.226562 35.65625 L 134.347656 107.300781 L 72.121094 143.644531 L 9.773438 108.34375 L 9.65625 36.695312 L 71.878906 0.351562 Z M 134.226562 35.65625 "/></clipPath><clipPath id="4db8e2aa2d"><path d="M 21.210938 13.683594 L 122.773438 13.683594 L 122.773438 130.261719 L 21.210938 130.261719 Z M 21.210938 13.683594 "/></clipPath></defs><g id="ace7233012"><g clip-rule="nonzero" clip-path="url(#813156cdc6)"><g clip-rule="nonzero" clip-path="url(#faf9500ccf)"><g clip-rule="nonzero" clip-path="url(#a8cd35e3ff)"><path style=" stroke:none;fill-rule:nonzero;fill:#65b30e;fill-opacity:1;" d="M -21.457031 54.867188 L 103.039062 -17.847656 L 165.503906 89.105469 L 41.007812 161.816406 Z M -21.457031 54.867188 "/></g></g></g><path style=" stroke:none;fill-rule:nonzero;fill:#87ff00;fill-opacity:1;" d="M 51.679688 52.109375 L 51.613281 52.046875 L 37.261719 66.398438 L 72.113281 101.183594 L 86.46875 86.898438 L 106.960938 66.398438 L 92.609375 52.046875 L 92.609375 51.980469 L 51.617188 51.980469 Z M 51.679688 52.109375 "/><g clip-rule="nonzero" clip-path="url(#4db8e2aa2d)"><path style=" stroke:none;fill-rule:nonzero;fill:#87ff00;fill-opacity:1;" d="M 71.980469 13.765625 L 21.222656 42.863281 L 21.226562 101.058594 L 71.984375 130.15625 L 122.742188 101.058594 L 122.742188 42.863281 L 71.984375 13.769531 Z M 113.039062 95.496094 L 71.980469 119.160156 L 30.921875 95.496094 L 30.925781 48.292969 L 71.984375 24.628906 L 113.042969 48.292969 L 113.042969 95.492188 Z M 113.039062 95.496094 "/></g><g style="fill:#b21a22;fill-opacity:1;"><g transform="translate(33.924045, 61.45205)"><path style="stroke:none" d="M 6.726562 -25.355469 L 10.609375 -25.355469 C 12.550781 -25.355469 14.050781 -24.828125 15.105469 -23.773438 C 16.160156 -22.71875 16.6875 -21.21875 16.6875 -19.28125 L 16.6875 -16.992188 C 16.6875 -16.507812 16.535156 -16.113281 16.230469 -15.808594 C 15.929688 -15.503906 15.535156 -15.351562 15.050781 -15.351562 L 11.546875 -15.351562 C 11.0625 -15.351562 10.667969 -15.503906 10.363281 -15.808594 C 10.0625 -16.113281 9.910156 -16.507812 9.910156 -16.992188 L 9.910156 -18.449219 C 9.910156 -18.5625 9.898438 -18.648438 9.878906 -18.710938 C 9.875 -18.722656 9.871094 -18.730469 9.867188 -18.734375 C 9.871094 -18.730469 9.875 -18.726562 9.878906 -18.722656 C 9.882812 -18.714844 9.890625 -18.714844 9.894531 -18.710938 C 9.890625 -18.714844 9.882812 -18.714844 9.871094 -18.71875 C 9.808594 -18.742188 9.71875 -18.75 9.605469 -18.75 L 7.699219 -18.75 C 7.585938 -18.75 7.496094 -18.742188 7.433594 -18.71875 C 7.421875 -18.714844 7.414062 -18.714844 7.410156 -18.710938 C 7.414062 -18.714844 7.417969 -18.714844 7.425781 -18.722656 C 7.429688 -18.726562 7.433594 -18.730469 7.433594 -18.734375 C 7.433594 -18.730469 7.429688 -18.722656 7.425781 -18.710938 C 7.40625 -18.648438 7.394531 -18.5625 7.394531 -18.449219 L 7.394531 -15.5 L 6.3125 -15.5 L 6.644531 -16.53125 L 15.035156 -13.828125 C 15.570312 -13.640625 15.980469 -13.347656 16.265625 -12.941406 C 16.546875 -12.542969 16.6875 -12.066406 16.6875 -11.511719 L 16.6875 -4.992188 C 16.6875 -3.078125 16.164062 -1.589844 15.109375 -0.523438 C 14.054688 0.546875 12.554688 1.082031 10.609375 1.082031 L 6.726562 1.082031 C 4.808594 1.082031 3.316406 0.550781 2.25 -0.515625 C 1.183594 -1.582031 0.648438 -3.074219 0.648438 -4.992188 L 0.648438 -7.246094 C 0.648438 -7.730469 0.800781 -8.125 1.105469 -8.429688 C 1.410156 -8.734375 1.804688 -8.886719 2.289062 -8.886719 L 5.789062 -8.886719 C 6.273438 -8.886719 6.667969 -8.734375 6.972656 -8.429688 C 7.277344 -8.125 7.429688 -7.730469 7.429688 -7.246094 L 7.429688 -5.789062 C 7.429688 -5.675781 7.441406 -5.589844 7.460938 -5.527344 C 7.464844 -5.515625 7.46875 -5.507812 7.46875 -5.503906 C 7.46875 -5.507812 7.464844 -5.511719 7.457031 -5.515625 C 7.453125 -5.523438 7.449219 -5.527344 7.445312 -5.527344 C 7.449219 -5.527344 7.457031 -5.523438 7.46875 -5.519531 C 7.53125 -5.496094 7.617188 -5.488281 7.734375 -5.488281 L 9.605469 -5.488281 C 9.71875 -5.488281 9.808594 -5.496094 9.871094 -5.519531 C 9.882812 -5.523438 9.890625 -5.527344 9.894531 -5.527344 C 9.890625 -5.527344 9.882812 -5.523438 9.878906 -5.515625 C 9.875 -5.511719 9.871094 -5.507812 9.867188 -5.503906 C 9.871094 -5.507812 9.875 -5.515625 9.878906 -5.527344 C 9.898438 -5.589844 9.910156 -5.675781 9.910156 -5.789062 L 9.910156 -9.292969 L 10.992188 -9.292969 L 10.65625 -8.261719 L 2.335938 -10.96875 C 1.800781 -11.144531 1.382812 -11.4375 1.09375 -11.835938 C 0.796875 -12.238281 0.648438 -12.722656 0.648438 -13.28125 L 0.648438 -19.28125 C 0.648438 -21.222656 1.183594 -22.722656 2.253906 -23.777344 C 3.320312 -24.832031 4.8125 -25.355469 6.726562 -25.355469 Z M 6.726562 -23.191406 C 5.40625 -23.191406 4.421875 -22.871094 3.777344 -22.234375 C 3.136719 -21.605469 2.816406 -20.621094 2.816406 -19.28125 L 2.816406 -13.28125 C 2.816406 -13.191406 2.824219 -13.136719 2.84375 -13.113281 C 2.863281 -13.085938 2.917969 -13.058594 3.003906 -13.027344 L 12.074219 -10.082031 L 12.074219 -5.789062 C 12.074219 -5.03125 11.855469 -4.425781 11.410156 -3.984375 C 10.96875 -3.542969 10.367188 -3.320312 9.605469 -3.320312 L 7.734375 -3.320312 C 6.972656 -3.320312 6.367188 -3.542969 5.925781 -3.984375 C 5.484375 -4.425781 5.261719 -5.03125 5.261719 -5.789062 L 5.261719 -7.246094 C 5.261719 -7.222656 5.269531 -7.1875 5.28125 -7.148438 C 5.3125 -7.054688 5.367188 -6.972656 5.441406 -6.898438 C 5.515625 -6.824219 5.597656 -6.769531 5.691406 -6.738281 C 5.734375 -6.726562 5.765625 -6.71875 5.789062 -6.71875 L 2.289062 -6.71875 C 2.3125 -6.71875 2.347656 -6.726562 2.386719 -6.738281 C 2.480469 -6.769531 2.566406 -6.824219 2.640625 -6.898438 C 2.714844 -6.972656 2.765625 -7.054688 2.796875 -7.148438 C 2.8125 -7.1875 2.816406 -7.222656 2.816406 -7.246094 L 2.816406 -4.992188 C 2.816406 -3.675781 3.140625 -2.691406 3.78125 -2.050781 C 4.425781 -1.40625 5.410156 -1.082031 6.726562 -1.082031 L 10.609375 -1.082031 C 11.949219 -1.082031 12.9375 -1.402344 13.566406 -2.042969 C 14.203125 -2.6875 14.519531 -3.671875 14.519531 -4.992188 L 14.519531 -11.511719 C 14.519531 -11.609375 14.511719 -11.667969 14.492188 -11.695312 C 14.476562 -11.71875 14.4375 -11.742188 14.371094 -11.765625 L 5.226562 -14.710938 L 5.226562 -18.449219 C 5.226562 -19.210938 5.449219 -19.8125 5.890625 -20.253906 C 6.335938 -20.695312 6.9375 -20.917969 7.699219 -20.917969 L 9.605469 -20.917969 C 10.367188 -20.917969 10.96875 -20.695312 11.410156 -20.253906 C 11.855469 -19.8125 12.074219 -19.210938 12.074219 -18.449219 L 12.074219 -16.992188 C 12.074219 -17.015625 12.070312 -17.050781 12.054688 -17.089844 C 12.023438 -17.183594 11.972656 -17.265625 11.898438 -17.339844 C 11.824219 -17.414062 11.738281 -17.46875 11.648438 -17.5 C 11.605469 -17.511719 11.570312 -17.519531 11.546875 -17.519531 L 15.050781 -17.519531 C 15.023438 -17.519531 14.992188 -17.511719 14.949219 -17.5 C 14.855469 -17.46875 14.773438 -17.414062 14.699219 -17.339844 C 14.625 -17.265625 14.574219 -17.183594 14.542969 -17.089844 C 14.527344 -17.050781 14.519531 -17.015625 14.519531 -16.992188 L 14.519531 -19.28125 C 14.519531 -20.621094 14.203125 -21.609375 13.574219 -22.242188 C 12.941406 -22.875 11.953125 -23.191406 10.609375 -23.191406 Z M 6.726562 -23.191406 "/></g></g><g style="fill:#b21a22;fill-opacity:1;"><g transform="translate(51.25676, 61.45205)"><path style="stroke:none" d="M 9.804688 -14.355469 L 9.804688 -23.71875 C 9.804688 -24.203125 9.957031 -24.597656 10.261719 -24.902344 C 10.566406 -25.207031 10.960938 -25.355469 11.441406 -25.355469 L 15.015625 -25.355469 C 15.496094 -25.355469 15.894531 -25.210938 16.199219 -24.925781 C 16.523438 -24.617188 16.6875 -24.214844 16.6875 -23.71875 L 16.6875 -0.554688 C 16.6875 -0.0585938 16.523438 0.34375 16.199219 0.652344 C 15.894531 0.9375 15.496094 1.082031 15.015625 1.082031 L 11.441406 1.082031 C 10.960938 1.082031 10.566406 0.933594 10.261719 0.628906 C 9.957031 0.324219 9.804688 -0.0703125 9.804688 -0.554688 L 9.804688 -9.777344 L 10.886719 -9.777344 L 10.886719 -8.695312 L 6.449219 -8.695312 L 6.449219 -9.777344 L 7.535156 -9.777344 L 7.535156 -0.554688 C 7.535156 -0.0703125 7.382812 0.324219 7.078125 0.628906 C 6.773438 0.933594 6.378906 1.082031 5.894531 1.082031 L 2.324219 1.082031 C 1.839844 1.082031 1.445312 0.9375 1.136719 0.652344 C 0.8125 0.34375 0.648438 -0.0585938 0.648438 -0.554688 L 0.648438 -23.71875 C 0.648438 -24.214844 0.8125 -24.617188 1.136719 -24.925781 C 1.445312 -25.210938 1.839844 -25.355469 2.324219 -25.355469 L 5.894531 -25.355469 C 6.378906 -25.355469 6.773438 -25.207031 7.078125 -24.902344 C 7.382812 -24.597656 7.535156 -24.203125 7.535156 -23.71875 L 7.535156 -14.355469 L 6.449219 -14.355469 L 6.449219 -15.441406 L 10.886719 -15.441406 L 10.886719 -14.355469 Z M 11.972656 -13.273438 L 5.367188 -13.273438 L 5.367188 -23.71875 C 5.367188 -23.695312 5.375 -23.660156 5.386719 -23.617188 C 5.417969 -23.527344 5.46875 -23.441406 5.542969 -23.367188 C 5.621094 -23.292969 5.703125 -23.242188 5.796875 -23.210938 C 5.835938 -23.195312 5.871094 -23.191406 5.894531 -23.191406 L 2.324219 -23.191406 C 2.335938 -23.191406 2.359375 -23.195312 2.390625 -23.203125 C 2.472656 -23.230469 2.550781 -23.277344 2.625 -23.34375 C 2.703125 -23.417969 2.757812 -23.503906 2.792969 -23.597656 C 2.808594 -23.648438 2.816406 -23.6875 2.816406 -23.71875 L 2.816406 -0.554688 C 2.816406 -0.585938 2.808594 -0.625 2.792969 -0.675781 C 2.757812 -0.769531 2.703125 -0.855469 2.625 -0.929688 C 2.550781 -0.996094 2.472656 -1.042969 2.390625 -1.070312 C 2.359375 -1.078125 2.335938 -1.082031 2.324219 -1.082031 L 5.894531 -1.082031 C 5.871094 -1.082031 5.835938 -1.078125 5.796875 -1.0625 C 5.703125 -1.03125 5.621094 -0.980469 5.542969 -0.90625 C 5.46875 -0.832031 5.417969 -0.746094 5.386719 -0.65625 C 5.375 -0.613281 5.367188 -0.578125 5.367188 -0.554688 L 5.367188 -10.863281 L 11.972656 -10.863281 L 11.972656 -0.554688 C 11.972656 -0.578125 11.964844 -0.613281 11.949219 -0.65625 C 11.921875 -0.746094 11.867188 -0.832031 11.792969 -0.90625 C 11.71875 -0.980469 11.636719 -1.03125 11.542969 -1.0625 C 11.5 -1.078125 11.46875 -1.082031 11.441406 -1.082031 L 15.015625 -1.082031 C 15.003906 -1.082031 14.980469 -1.078125 14.949219 -1.070312 C 14.863281 -1.042969 14.785156 -0.996094 14.714844 -0.929688 C 14.636719 -0.855469 14.578125 -0.769531 14.546875 -0.675781 C 14.527344 -0.625 14.519531 -0.585938 14.519531 -0.554688 L 14.519531 -23.71875 C 14.519531 -23.6875 14.527344 -23.648438 14.546875 -23.597656 C 14.578125 -23.503906 14.636719 -23.417969 14.714844 -23.34375 C 14.785156 -23.277344 14.863281 -23.230469 14.949219 -23.203125 C 14.980469 -23.195312 15.003906 -23.191406 15.015625 -23.191406 L 11.441406 -23.191406 C 11.46875 -23.191406 11.5 -23.195312 11.542969 -23.210938 C 11.636719 -23.242188 11.71875 -23.292969 11.792969 -23.367188 C 11.867188 -23.441406 11.921875 -23.527344 11.949219 -23.617188 C 11.964844 -23.660156 11.972656 -23.695312 11.972656 -23.71875 Z M 11.972656 -13.273438 "/></g></g><g style="fill:#b21a22;fill-opacity:1;"><g transform="translate(68.589476, 61.45205)"><path style="stroke:none" d="M 2.289062 -1.082031 L 5.894531 -1.082031 C 5.871094 -1.082031 5.835938 -1.078125 5.796875 -1.0625 C 5.703125 -1.03125 5.621094 -0.980469 5.542969 -0.90625 C 5.46875 -0.832031 5.417969 -0.746094 5.386719 -0.65625 C 5.375 -0.613281 5.367188 -0.578125 5.367188 -0.554688 L 5.367188 -23.71875 C 5.367188 -23.695312 5.375 -23.660156 5.386719 -23.617188 C 5.417969 -23.527344 5.46875 -23.441406 5.542969 -23.367188 C 5.621094 -23.292969 5.703125 -23.242188 5.796875 -23.210938 C 5.835938 -23.195312 5.871094 -23.191406 5.894531 -23.191406 L 2.289062 -23.191406 C 2.3125 -23.191406 2.347656 -23.195312 2.386719 -23.210938 C 2.480469 -23.242188 2.566406 -23.292969 2.640625 -23.367188 C 2.714844 -23.441406 2.765625 -23.527344 2.796875 -23.617188 C 2.8125 -23.660156 2.816406 -23.695312 2.816406 -23.71875 L 2.816406 -0.554688 C 2.816406 -0.578125 2.8125 -0.613281 2.796875 -0.65625 C 2.765625 -0.746094 2.714844 -0.832031 2.640625 -0.90625 C 2.566406 -0.980469 2.480469 -1.03125 2.386719 -1.0625 C 2.347656 -1.078125 2.3125 -1.082031 2.289062 -1.082031 Z M 2.289062 1.082031 C 1.804688 1.082031 1.410156 0.933594 1.105469 0.628906 C 0.800781 0.324219 0.648438 -0.0703125 0.648438 -0.554688 L 0.648438 -23.71875 C 0.648438 -24.203125 0.800781 -24.597656 1.105469 -24.902344 C 1.410156 -25.207031 1.804688 -25.355469 2.289062 -25.355469 L 5.894531 -25.355469 C 6.378906 -25.355469 6.773438 -25.207031 7.078125 -24.902344 C 7.382812 -24.597656 7.535156 -24.203125 7.535156 -23.71875 L 7.535156 -0.554688 C 7.535156 -0.0703125 7.382812 0.324219 7.078125 0.628906 C 6.773438 0.933594 6.378906 1.082031 5.894531 1.082031 Z M 2.289062 1.082031 "/></g></g><g style="fill:#b21a22;fill-opacity:1;"><g transform="translate(76.770512, 61.45205)"><path style="stroke:none" d="M 16.6875 -23.71875 L 16.6875 -20.25 C 16.6875 -19.765625 16.535156 -19.371094 16.230469 -19.070312 C 15.929688 -18.765625 15.535156 -18.613281 15.050781 -18.613281 L 6.449219 -18.613281 L 6.449219 -19.695312 L 7.535156 -19.695312 L 7.535156 -13.765625 L 6.449219 -13.765625 L 6.449219 -14.851562 L 12.96875 -14.851562 C 13.453125 -14.851562 13.847656 -14.699219 14.152344 -14.394531 C 14.457031 -14.089844 14.609375 -13.695312 14.609375 -13.210938 L 14.609375 -9.742188 C 14.609375 -9.261719 14.457031 -8.867188 14.152344 -8.5625 C 13.847656 -8.257812 13.453125 -8.105469 12.96875 -8.105469 L 6.449219 -8.105469 L 6.449219 -9.1875 L 7.535156 -9.1875 L 7.535156 -0.554688 C 7.535156 -0.0703125 7.382812 0.324219 7.078125 0.628906 C 6.773438 0.933594 6.378906 1.082031 5.894531 1.082031 L 2.289062 1.082031 C 1.804688 1.082031 1.410156 0.933594 1.105469 0.628906 C 0.800781 0.324219 0.648438 -0.0703125 0.648438 -0.554688 L 0.648438 -23.71875 C 0.648438 -24.203125 0.800781 -24.597656 1.105469 -24.902344 C 1.410156 -25.207031 1.804688 -25.355469 2.289062 -25.355469 L 15.050781 -25.355469 C 15.535156 -25.355469 15.929688 -25.207031 16.230469 -24.902344 C 16.535156 -24.597656 16.6875 -24.203125 16.6875 -23.71875 Z M 14.519531 -23.71875 C 14.519531 -23.695312 14.527344 -23.660156 14.542969 -23.617188 C 14.574219 -23.527344 14.625 -23.441406 14.699219 -23.367188 C 14.773438 -23.292969 14.855469 -23.242188 14.949219 -23.210938 C 14.992188 -23.195312 15.023438 -23.191406 15.050781 -23.191406 L 2.289062 -23.191406 C 2.3125 -23.191406 2.347656 -23.195312 2.386719 -23.210938 C 2.480469 -23.242188 2.566406 -23.292969 2.640625 -23.367188 C 2.714844 -23.441406 2.765625 -23.527344 2.796875 -23.617188 C 2.8125 -23.660156 2.816406 -23.695312 2.816406 -23.71875 L 2.816406 -0.554688 C 2.816406 -0.578125 2.8125 -0.613281 2.796875 -0.65625 C 2.765625 -0.746094 2.714844 -0.832031 2.640625 -0.90625 C 2.566406 -0.980469 2.480469 -1.03125 2.386719 -1.0625 C 2.347656 -1.078125 2.3125 -1.082031 2.289062 -1.082031 L 5.894531 -1.082031 C 5.871094 -1.082031 5.835938 -1.078125 5.796875 -1.0625 C 5.703125 -1.03125 5.621094 -0.980469 5.542969 -0.90625 C 5.46875 -0.832031 5.417969 -0.746094 5.386719 -0.65625 C 5.375 -0.613281 5.367188 -0.578125 5.367188 -0.554688 L 5.367188 -10.273438 L 12.96875 -10.273438 C 12.945312 -10.273438 12.910156 -10.265625 12.867188 -10.253906 C 12.777344 -10.222656 12.691406 -10.167969 12.617188 -10.09375 C 12.542969 -10.019531 12.492188 -9.9375 12.460938 -9.84375 C 12.445312 -9.800781 12.441406 -9.769531 12.441406 -9.742188 L 12.441406 -13.210938 C 12.441406 -13.1875 12.445312 -13.152344 12.460938 -13.113281 C 12.492188 -13.019531 12.542969 -12.9375 12.617188 -12.863281 C 12.691406 -12.789062 12.777344 -12.734375 12.867188 -12.703125 C 12.910156 -12.691406 12.945312 -12.683594 12.96875 -12.683594 L 5.367188 -12.683594 L 5.367188 -20.78125 L 15.050781 -20.78125 C 15.023438 -20.78125 14.992188 -20.773438 14.949219 -20.757812 C 14.855469 -20.726562 14.773438 -20.675781 14.699219 -20.601562 C 14.625 -20.527344 14.574219 -20.445312 14.542969 -20.351562 C 14.527344 -20.308594 14.519531 -20.277344 14.519531 -20.25 Z M 14.519531 -23.71875 "/></g></g><g style="fill:#b21a22;fill-opacity:1;"><g transform="translate(94.103227, 61.45205)"><path style="stroke:none" d="M 14.355469 -23.191406 L 1.59375 -23.191406 C 1.621094 -23.191406 1.652344 -23.195312 1.695312 -23.210938 C 1.789062 -23.242188 1.871094 -23.292969 1.945312 -23.367188 C 2.019531 -23.441406 2.070312 -23.527344 2.101562 -23.617188 C 2.117188 -23.660156 2.125 -23.695312 2.125 -23.71875 L 2.125 -20.25 C 2.125 -20.277344 2.117188 -20.308594 2.101562 -20.351562 C 2.070312 -20.445312 2.019531 -20.527344 1.945312 -20.601562 C 1.871094 -20.675781 1.789062 -20.726562 1.695312 -20.757812 C 1.652344 -20.773438 1.621094 -20.78125 1.59375 -20.78125 L 6.703125 -20.78125 L 6.703125 -0.554688 C 6.703125 -0.578125 6.695312 -0.613281 6.679688 -0.65625 C 6.648438 -0.746094 6.597656 -0.832031 6.523438 -0.90625 C 6.449219 -0.980469 6.363281 -1.03125 6.273438 -1.0625 C 6.230469 -1.078125 6.195312 -1.082031 6.171875 -1.082031 L 9.777344 -1.082031 C 9.753906 -1.082031 9.71875 -1.078125 9.679688 -1.0625 C 9.585938 -1.03125 9.503906 -0.980469 9.429688 -0.90625 C 9.355469 -0.832031 9.300781 -0.746094 9.269531 -0.65625 C 9.257812 -0.613281 9.25 -0.578125 9.25 -0.554688 L 9.25 -20.78125 L 14.355469 -20.78125 C 14.332031 -20.78125 14.296875 -20.773438 14.257812 -20.757812 C 14.164062 -20.726562 14.082031 -20.675781 14.003906 -20.601562 C 13.929688 -20.527344 13.878906 -20.445312 13.847656 -20.351562 C 13.835938 -20.308594 13.828125 -20.277344 13.828125 -20.25 L 13.828125 -23.71875 C 13.828125 -23.695312 13.835938 -23.660156 13.847656 -23.617188 C 13.878906 -23.527344 13.929688 -23.441406 14.003906 -23.367188 C 14.082031 -23.292969 14.164062 -23.242188 14.257812 -23.210938 C 14.296875 -23.195312 14.332031 -23.191406 14.355469 -23.191406 Z M 14.355469 -25.355469 C 14.839844 -25.355469 15.234375 -25.207031 15.539062 -24.902344 C 15.84375 -24.597656 15.996094 -24.203125 15.996094 -23.71875 L 15.996094 -20.25 C 15.996094 -19.765625 15.84375 -19.371094 15.539062 -19.070312 C 15.234375 -18.765625 14.839844 -18.613281 14.355469 -18.613281 L 10.332031 -18.613281 L 10.332031 -19.695312 L 11.417969 -19.695312 L 11.417969 -0.554688 C 11.417969 -0.0703125 11.265625 0.324219 10.960938 0.628906 C 10.65625 0.933594 10.261719 1.082031 9.777344 1.082031 L 6.171875 1.082031 C 5.6875 1.082031 5.292969 0.933594 4.988281 0.628906 C 4.6875 0.324219 4.535156 -0.0703125 4.535156 -0.554688 L 4.535156 -19.695312 L 5.617188 -19.695312 L 5.617188 -18.613281 L 1.59375 -18.613281 C 1.109375 -18.613281 0.714844 -18.765625 0.414062 -19.070312 C 0.109375 -19.371094 -0.0429688 -19.765625 -0.0429688 -20.25 L -0.0429688 -23.71875 C -0.0429688 -24.203125 0.109375 -24.597656 0.414062 -24.902344 C 0.714844 -25.207031 1.109375 -25.355469 1.59375 -25.355469 Z M 14.355469 -25.355469 "/></g></g><g style="fill:#b21a22;fill-opacity:1;"><g transform="translate(37.028, 109.796829)"><path style="stroke:none" d="M 18.101562 1.082031 L 14.738281 1.082031 C 14.316406 1.082031 13.957031 0.953125 13.660156 0.695312 C 13.386719 0.457031 13.207031 0.136719 13.121094 -0.257812 L 14.183594 -0.484375 L 13.132812 -0.21875 L 12.023438 -4.589844 L 13.074219 -4.855469 L 13.074219 -3.769531 L 6.554688 -3.769531 L 6.554688 -4.855469 L 7.605469 -4.597656 L 6.53125 -0.226562 L 5.480469 -0.484375 L 6.539062 -0.257812 C 6.453125 0.136719 6.273438 0.457031 6 0.695312 C 5.703125 0.953125 5.347656 1.082031 4.925781 1.082031 L 1.527344 1.082031 C 0.960938 1.082031 0.53125 0.894531 0.238281 0.511719 C -0.0585938 0.121094 -0.125 -0.347656 0.0351562 -0.894531 L 1.074219 -0.589844 L 0.0234375 -0.851562 L 5.78125 -24.050781 L 6.832031 -23.789062 L 5.773438 -24.015625 C 5.859375 -24.421875 6.050781 -24.746094 6.339844 -24.988281 C 6.640625 -25.234375 7 -25.355469 7.421875 -25.355469 L 12.242188 -25.355469 C 12.660156 -25.355469 13.019531 -25.234375 13.320312 -24.988281 C 13.613281 -24.746094 13.800781 -24.421875 13.890625 -24.015625 L 12.832031 -23.789062 L 13.882812 -24.050781 L 19.636719 -0.851562 L 18.585938 -0.589844 L 19.625 -0.894531 C 19.792969 -0.332031 19.710938 0.148438 19.386719 0.542969 C 19.089844 0.902344 18.660156 1.082031 18.101562 1.082031 Z M 18.101562 -1.082031 C 18.105469 -1.082031 18.109375 -1.082031 18.113281 -1.085938 C 18.113281 -1.085938 18.113281 -1.082031 18.109375 -1.082031 C 18.089844 -1.082031 18.066406 -1.074219 18.042969 -1.066406 C 17.917969 -1.027344 17.808594 -0.949219 17.714844 -0.835938 C 17.609375 -0.710938 17.554688 -0.570312 17.539062 -0.417969 C 17.535156 -0.355469 17.539062 -0.3125 17.546875 -0.285156 L 17.539062 -0.304688 L 11.773438 -23.542969 L 11.769531 -23.5625 C 11.789062 -23.476562 11.847656 -23.394531 11.941406 -23.316406 C 12.042969 -23.230469 12.144531 -23.191406 12.242188 -23.191406 L 7.421875 -23.191406 C 7.519531 -23.191406 7.617188 -23.230469 7.71875 -23.316406 C 7.816406 -23.394531 7.871094 -23.476562 7.890625 -23.5625 L 7.886719 -23.542969 L 2.121094 -0.304688 L 2.113281 -0.285156 C 2.121094 -0.304688 2.121094 -0.34375 2.121094 -0.394531 C 2.109375 -0.542969 2.058594 -0.679688 1.960938 -0.804688 C 1.867188 -0.929688 1.753906 -1.015625 1.617188 -1.0625 C 1.574219 -1.074219 1.542969 -1.082031 1.527344 -1.082031 L 4.925781 -1.082031 C 4.804688 -1.082031 4.6875 -1.035156 4.574219 -0.9375 C 4.488281 -0.859375 4.433594 -0.785156 4.417969 -0.710938 L 4.421875 -0.726562 L 5.703125 -5.9375 L 13.914062 -5.9375 L 15.238281 -0.734375 L 15.242188 -0.710938 C 15.226562 -0.785156 15.175781 -0.859375 15.085938 -0.9375 C 14.976562 -1.035156 14.859375 -1.082031 14.738281 -1.082031 Z M 10.941406 -8.632812 L 8.757812 -18.066406 L 9.8125 -18.308594 L 10.871094 -18.066406 L 8.683594 -8.632812 L 7.628906 -8.878906 L 7.628906 -9.960938 L 11.996094 -9.960938 L 11.996094 -8.878906 Z M 13.363281 -7.792969 L 6.265625 -7.792969 L 8.757812 -18.554688 L 10.871094 -18.554688 L 13.054688 -9.121094 Z M 13.363281 -7.792969 "/></g></g><g style="fill:#b21a22;fill-opacity:1;"><g transform="translate(56.683303, 109.796829)"><path style="stroke:none" d="M 16.722656 -19.28125 L 16.722656 -14.597656 C 16.722656 -13.664062 16.414062 -12.871094 15.800781 -12.222656 C 15.222656 -11.613281 14.507812 -11.230469 13.652344 -11.070312 L 13.453125 -12.136719 L 14.539062 -12.136719 L 14.539062 -12.066406 L 13.453125 -12.066406 L 13.613281 -13.140625 C 14.488281 -13.007812 15.222656 -12.625 15.8125 -11.988281 C 16.417969 -11.328125 16.722656 -10.535156 16.722656 -9.605469 L 16.722656 -4.992188 C 16.722656 -3.074219 16.1875 -1.582031 15.121094 -0.515625 C 14.054688 0.550781 12.550781 1.082031 10.609375 1.082031 L 2.289062 1.082031 C 1.804688 1.082031 1.410156 0.933594 1.105469 0.628906 C 0.800781 0.324219 0.648438 -0.0703125 0.648438 -0.554688 L 0.648438 -23.71875 C 0.648438 -24.203125 0.800781 -24.597656 1.105469 -24.902344 C 1.410156 -25.207031 1.804688 -25.355469 2.289062 -25.355469 L 10.609375 -25.355469 C 12.546875 -25.355469 14.050781 -24.832031 15.117188 -23.777344 C 16.1875 -22.722656 16.722656 -21.222656 16.722656 -19.28125 Z M 14.554688 -19.28125 C 14.554688 -20.621094 14.234375 -21.605469 13.59375 -22.234375 C 12.949219 -22.871094 11.957031 -23.191406 10.609375 -23.191406 L 2.289062 -23.191406 C 2.3125 -23.191406 2.347656 -23.195312 2.386719 -23.210938 C 2.480469 -23.242188 2.566406 -23.292969 2.640625 -23.367188 C 2.714844 -23.441406 2.765625 -23.527344 2.796875 -23.617188 C 2.8125 -23.660156 2.816406 -23.695312 2.816406 -23.71875 L 2.816406 -0.554688 C 2.816406 -0.578125 2.8125 -0.613281 2.796875 -0.65625 C 2.765625 -0.746094 2.714844 -0.832031 2.640625 -0.90625 C 2.566406 -0.980469 2.480469 -1.03125 2.386719 -1.0625 C 2.347656 -1.078125 2.3125 -1.082031 2.289062 -1.082031 L 10.609375 -1.082031 C 11.953125 -1.082031 12.945312 -1.40625 13.589844 -2.050781 C 14.234375 -2.691406 14.554688 -3.675781 14.554688 -4.992188 L 14.554688 -9.605469 C 14.554688 -9.96875 14.441406 -10.273438 14.21875 -10.515625 C 13.976562 -10.78125 13.667969 -10.941406 13.296875 -10.996094 L 12.371094 -11.132812 L 12.371094 -13.039062 L 13.257812 -13.203125 C 13.648438 -13.273438 13.972656 -13.445312 14.226562 -13.714844 C 14.445312 -13.945312 14.554688 -14.238281 14.554688 -14.597656 Z M 10.152344 -15.742188 L 10.152344 -18.515625 C 10.152344 -18.632812 10.140625 -18.71875 10.121094 -18.78125 C 10.117188 -18.792969 10.113281 -18.800781 10.109375 -18.804688 C 10.113281 -18.800781 10.117188 -18.796875 10.121094 -18.792969 C 10.128906 -18.785156 10.132812 -18.78125 10.136719 -18.78125 C 10.132812 -18.78125 10.125 -18.785156 10.113281 -18.789062 C 10.050781 -18.808594 9.960938 -18.820312 9.847656 -18.820312 L 6.035156 -18.820312 L 6.035156 -19.902344 L 7.117188 -19.902344 L 7.117188 -14.390625 L 6.035156 -14.390625 L 6.035156 -15.472656 L 9.847656 -15.472656 C 9.964844 -15.472656 10.054688 -15.484375 10.121094 -15.507812 C 10.132812 -15.511719 10.140625 -15.511719 10.144531 -15.515625 C 10.140625 -15.515625 10.136719 -15.511719 10.132812 -15.503906 C 10.125 -15.5 10.121094 -15.492188 10.117188 -15.488281 C 10.117188 -15.488281 10.121094 -15.492188 10.121094 -15.503906 C 10.140625 -15.558594 10.152344 -15.636719 10.152344 -15.742188 Z M 12.320312 -15.742188 C 12.320312 -14.988281 12.09375 -14.390625 11.644531 -13.953125 C 11.203125 -13.523438 10.605469 -13.308594 9.847656 -13.308594 L 4.949219 -13.308594 L 4.949219 -20.988281 L 9.847656 -20.988281 C 10.609375 -20.988281 11.210938 -20.765625 11.65625 -20.324219 C 12.097656 -19.882812 12.320312 -19.277344 12.320312 -18.515625 Z M 10.152344 -5.757812 L 10.152344 -8.425781 C 10.152344 -8.539062 10.140625 -8.628906 10.121094 -8.691406 C 10.117188 -8.703125 10.113281 -8.710938 10.109375 -8.714844 C 10.113281 -8.710938 10.117188 -8.707031 10.121094 -8.699219 C 10.128906 -8.695312 10.132812 -8.691406 10.136719 -8.6875 C 10.132812 -8.691406 10.125 -8.695312 10.113281 -8.699219 C 10.050781 -8.71875 9.960938 -8.730469 9.847656 -8.730469 L 6.035156 -8.730469 L 6.035156 -9.8125 L 7.117188 -9.8125 L 7.117188 -4.371094 L 6.035156 -4.371094 L 6.035156 -5.453125 L 9.847656 -5.453125 C 9.960938 -5.453125 10.050781 -5.464844 10.113281 -5.484375 C 10.125 -5.488281 10.132812 -5.492188 10.136719 -5.492188 C 10.132812 -5.492188 10.128906 -5.488281 10.121094 -5.480469 C 10.117188 -5.476562 10.113281 -5.472656 10.109375 -5.46875 C 10.113281 -5.472656 10.117188 -5.480469 10.121094 -5.492188 C 10.140625 -5.554688 10.152344 -5.640625 10.152344 -5.757812 Z M 12.320312 -5.757812 C 12.320312 -4.996094 12.097656 -4.390625 11.65625 -3.949219 C 11.210938 -3.507812 10.609375 -3.285156 9.847656 -3.285156 L 4.949219 -3.285156 L 4.949219 -10.898438 L 9.847656 -10.898438 C 10.609375 -10.898438 11.210938 -10.675781 11.65625 -10.234375 C 12.097656 -9.789062 12.320312 -9.1875 12.320312 -8.425781 Z M 12.320312 -5.757812 "/></g></g><g style="fill:#b21a22;fill-opacity:1;"><g transform="translate(74.050689, 109.796829)"><path style="stroke:none" d="M 5.367188 -4.578125 L 5.367188 -23.71875 C 5.367188 -23.695312 5.375 -23.660156 5.386719 -23.617188 C 5.417969 -23.527344 5.46875 -23.441406 5.542969 -23.367188 C 5.621094 -23.292969 5.703125 -23.242188 5.796875 -23.210938 C 5.835938 -23.195312 5.871094 -23.191406 5.894531 -23.191406 L 2.289062 -23.191406 C 2.3125 -23.191406 2.347656 -23.195312 2.386719 -23.210938 C 2.480469 -23.242188 2.566406 -23.292969 2.640625 -23.367188 C 2.714844 -23.441406 2.765625 -23.527344 2.796875 -23.617188 C 2.8125 -23.660156 2.816406 -23.695312 2.816406 -23.71875 L 2.816406 -0.554688 C 2.816406 -0.578125 2.8125 -0.613281 2.796875 -0.65625 C 2.765625 -0.746094 2.714844 -0.832031 2.640625 -0.90625 C 2.566406 -0.980469 2.480469 -1.03125 2.386719 -1.0625 C 2.347656 -1.078125 2.3125 -1.082031 2.289062 -1.082031 L 13.316406 -1.082031 C 13.289062 -1.082031 13.257812 -1.078125 13.214844 -1.0625 C 13.125 -1.03125 13.039062 -0.980469 12.964844 -0.90625 C 12.890625 -0.832031 12.839844 -0.746094 12.808594 -0.65625 C 12.792969 -0.613281 12.785156 -0.578125 12.785156 -0.554688 L 12.785156 -4.023438 C 12.785156 -3.996094 12.792969 -3.964844 12.808594 -3.921875 C 12.839844 -3.828125 12.890625 -3.746094 12.964844 -3.671875 C 13.039062 -3.597656 13.125 -3.546875 13.214844 -3.515625 C 13.257812 -3.5 13.289062 -3.492188 13.316406 -3.492188 L 5.367188 -3.492188 Z M 7.535156 -4.578125 L 6.449219 -4.578125 L 6.449219 -5.660156 L 13.316406 -5.660156 C 13.800781 -5.660156 14.195312 -5.507812 14.5 -5.203125 C 14.800781 -4.902344 14.953125 -4.507812 14.953125 -4.023438 L 14.953125 -0.554688 C 14.953125 -0.0703125 14.800781 0.324219 14.5 0.628906 C 14.195312 0.933594 13.800781 1.082031 13.316406 1.082031 L 2.289062 1.082031 C 1.804688 1.082031 1.410156 0.933594 1.105469 0.628906 C 0.800781 0.324219 0.648438 -0.0703125 0.648438 -0.554688 L 0.648438 -23.71875 C 0.648438 -24.203125 0.800781 -24.597656 1.105469 -24.902344 C 1.410156 -25.207031 1.804688 -25.355469 2.289062 -25.355469 L 5.894531 -25.355469 C 6.378906 -25.355469 6.773438 -25.207031 7.078125 -24.902344 C 7.382812 -24.597656 7.535156 -24.203125 7.535156 -23.71875 Z M 7.535156 -4.578125 "/></g></g><g style="fill:#b21a22;fill-opacity:1;"><g transform="translate(89.650132, 109.796829)"><path style="stroke:none" d="M 16.652344 -23.71875 L 16.652344 -20.25 C 16.652344 -19.769531 16.507812 -19.371094 16.21875 -19.066406 C 15.914062 -18.742188 15.511719 -18.578125 15.015625 -18.578125 L 6.449219 -18.578125 L 6.449219 -19.660156 L 7.535156 -19.660156 L 7.535156 -14.320312 L 6.449219 -14.320312 L 6.449219 -15.40625 L 12.96875 -15.40625 C 13.464844 -15.40625 13.867188 -15.242188 14.175781 -14.917969 C 14.464844 -14.609375 14.609375 -14.214844 14.609375 -13.730469 L 14.609375 -10.300781 C 14.609375 -9.816406 14.464844 -9.421875 14.175781 -9.113281 C 13.867188 -8.789062 13.464844 -8.625 12.96875 -8.625 L 6.449219 -8.625 L 6.449219 -9.710938 L 7.535156 -9.710938 L 7.535156 -4.578125 L 6.449219 -4.578125 L 6.449219 -5.660156 L 15.015625 -5.660156 C 15.5 -5.660156 15.894531 -5.507812 16.199219 -5.203125 C 16.5 -4.902344 16.652344 -4.507812 16.652344 -4.023438 L 16.652344 -0.554688 C 16.652344 -0.0703125 16.5 0.324219 16.199219 0.628906 C 15.894531 0.933594 15.5 1.082031 15.015625 1.082031 L 2.253906 1.082031 C 1.769531 1.082031 1.375 0.921875 1.074219 0.601562 C 0.792969 0.300781 0.648438 -0.0859375 0.648438 -0.554688 L 0.648438 -23.71875 C 0.648438 -24.1875 0.792969 -24.574219 1.074219 -24.875 C 1.375 -25.195312 1.769531 -25.355469 2.253906 -25.355469 L 15.015625 -25.355469 C 15.5 -25.355469 15.894531 -25.207031 16.199219 -24.902344 C 16.5 -24.597656 16.652344 -24.203125 16.652344 -23.71875 Z M 14.484375 -23.71875 C 14.484375 -23.695312 14.492188 -23.660156 14.507812 -23.617188 C 14.539062 -23.527344 14.589844 -23.441406 14.664062 -23.367188 C 14.738281 -23.292969 14.824219 -23.242188 14.914062 -23.210938 C 14.957031 -23.195312 14.988281 -23.191406 15.015625 -23.191406 L 2.253906 -23.191406 C 2.394531 -23.191406 2.527344 -23.257812 2.65625 -23.394531 C 2.722656 -23.46875 2.773438 -23.550781 2.800781 -23.636719 C 2.8125 -23.675781 2.816406 -23.699219 2.816406 -23.71875 L 2.816406 -0.554688 C 2.816406 -0.574219 2.8125 -0.597656 2.800781 -0.636719 C 2.773438 -0.722656 2.722656 -0.804688 2.65625 -0.878906 C 2.527344 -1.015625 2.394531 -1.082031 2.253906 -1.082031 L 15.015625 -1.082031 C 14.988281 -1.082031 14.957031 -1.078125 14.914062 -1.0625 C 14.824219 -1.03125 14.738281 -0.980469 14.664062 -0.90625 C 14.589844 -0.832031 14.539062 -0.746094 14.507812 -0.65625 C 14.492188 -0.613281 14.484375 -0.578125 14.484375 -0.554688 L 14.484375 -4.023438 C 14.484375 -3.996094 14.492188 -3.964844 14.507812 -3.921875 C 14.539062 -3.828125 14.589844 -3.746094 14.664062 -3.671875 C 14.738281 -3.597656 14.824219 -3.546875 14.914062 -3.515625 C 14.957031 -3.5 14.988281 -3.492188 15.015625 -3.492188 L 5.367188 -3.492188 L 5.367188 -10.792969 L 12.96875 -10.792969 C 12.9375 -10.792969 12.898438 -10.785156 12.851562 -10.769531 C 12.753906 -10.734375 12.667969 -10.679688 12.597656 -10.597656 C 12.527344 -10.527344 12.480469 -10.449219 12.457031 -10.367188 C 12.445312 -10.332031 12.441406 -10.3125 12.441406 -10.300781 L 12.441406 -13.730469 C 12.441406 -13.71875 12.445312 -13.699219 12.457031 -13.664062 C 12.480469 -13.582031 12.527344 -13.503906 12.597656 -13.429688 C 12.667969 -13.351562 12.753906 -13.296875 12.851562 -13.261719 C 12.898438 -13.246094 12.9375 -13.238281 12.96875 -13.238281 L 5.367188 -13.238281 L 5.367188 -20.746094 L 15.015625 -20.746094 C 14.984375 -20.746094 14.945312 -20.738281 14.894531 -20.71875 C 14.800781 -20.6875 14.714844 -20.628906 14.640625 -20.550781 C 14.574219 -20.480469 14.527344 -20.402344 14.5 -20.316406 C 14.492188 -20.285156 14.484375 -20.261719 14.484375 -20.25 Z M 14.484375 -23.71875 "/></g></g><g style="fill:#060705;fill-opacity:1;"><g transform="translate(33.924045, 61.45205)"><path style="stroke:none" d="M 6.71875 -24.265625 L 10.609375 -24.265625 C 12.253906 -24.265625 13.5 -23.84375 14.34375 -23 C 15.1875 -22.15625 15.609375 -20.914062 15.609375 -19.28125 L 15.609375 -16.984375 C 15.609375 -16.617188 15.421875 -16.4375 15.046875 -16.4375 L 11.546875 -16.4375 C 11.171875 -16.4375 10.984375 -16.617188 10.984375 -16.984375 L 10.984375 -18.453125 C 10.984375 -19.367188 10.523438 -19.828125 9.609375 -19.828125 L 7.703125 -19.828125 C 6.773438 -19.828125 6.3125 -19.367188 6.3125 -18.453125 L 6.3125 -15.5 L 14.703125 -12.796875 C 15.304688 -12.585938 15.609375 -12.160156 15.609375 -11.515625 L 15.609375 -5 C 15.609375 -3.375 15.1875 -2.132812 14.34375 -1.28125 C 13.5 -0.425781 12.253906 0 10.609375 0 L 6.71875 0 C 5.101562 0 3.867188 -0.425781 3.015625 -1.28125 C 2.160156 -2.132812 1.734375 -3.375 1.734375 -5 L 1.734375 -7.25 C 1.734375 -7.613281 1.914062 -7.796875 2.28125 -7.796875 L 5.796875 -7.796875 C 6.160156 -7.796875 6.34375 -7.613281 6.34375 -7.25 L 6.34375 -5.796875 C 6.34375 -4.867188 6.804688 -4.40625 7.734375 -4.40625 L 9.609375 -4.40625 C 10.523438 -4.40625 10.984375 -4.867188 10.984375 -5.796875 L 10.984375 -9.296875 L 2.671875 -12 C 2.046875 -12.207031 1.734375 -12.632812 1.734375 -13.28125 L 1.734375 -19.28125 C 1.734375 -20.914062 2.160156 -22.15625 3.015625 -23 C 3.867188 -23.84375 5.101562 -24.265625 6.71875 -24.265625 Z M 6.71875 -24.265625 "/></g></g><g style="fill:#060705;fill-opacity:1;"><g transform="translate(51.25676, 61.45205)"><path style="stroke:none" d="M 10.890625 -14.359375 L 10.890625 -23.71875 C 10.890625 -24.082031 11.070312 -24.265625 11.4375 -24.265625 L 15.015625 -24.265625 C 15.410156 -24.265625 15.609375 -24.082031 15.609375 -23.71875 L 15.609375 -0.5625 C 15.609375 -0.1875 15.410156 0 15.015625 0 L 11.4375 0 C 11.070312 0 10.890625 -0.1875 10.890625 -0.5625 L 10.890625 -9.78125 L 6.453125 -9.78125 L 6.453125 -0.5625 C 6.453125 -0.1875 6.265625 0 5.890625 0 L 2.328125 0 C 1.929688 0 1.734375 -0.1875 1.734375 -0.5625 L 1.734375 -23.71875 C 1.734375 -24.082031 1.929688 -24.265625 2.328125 -24.265625 L 5.890625 -24.265625 C 6.265625 -24.265625 6.453125 -24.082031 6.453125 -23.71875 L 6.453125 -14.359375 Z M 10.890625 -14.359375 "/></g></g><g style="fill:#060705;fill-opacity:1;"><g transform="translate(68.589476, 61.45205)"><path style="stroke:none" d="M 2.28125 0 L 5.890625 0 C 6.265625 0 6.453125 -0.1875 6.453125 -0.5625 L 6.453125 -23.71875 C 6.453125 -24.082031 6.265625 -24.265625 5.890625 -24.265625 L 2.28125 -24.265625 C 1.914062 -24.265625 1.734375 -24.082031 1.734375 -23.71875 L 1.734375 -0.5625 C 1.734375 -0.1875 1.914062 0 2.28125 0 Z M 2.28125 0 "/></g></g><g style="fill:#060705;fill-opacity:1;"><g transform="translate(76.770512, 61.45205)"><path style="stroke:none" d="M 15.609375 -23.71875 L 15.609375 -20.25 C 15.609375 -19.875 15.421875 -19.6875 15.046875 -19.6875 L 6.453125 -19.6875 L 6.453125 -13.765625 L 12.96875 -13.765625 C 13.332031 -13.765625 13.515625 -13.578125 13.515625 -13.203125 L 13.515625 -9.75 C 13.515625 -9.375 13.332031 -9.1875 12.96875 -9.1875 L 6.453125 -9.1875 L 6.453125 -0.5625 C 6.453125 -0.1875 6.265625 0 5.890625 0 L 2.28125 0 C 1.914062 0 1.734375 -0.1875 1.734375 -0.5625 L 1.734375 -23.71875 C 1.734375 -24.082031 1.914062 -24.265625 2.28125 -24.265625 L 15.046875 -24.265625 C 15.421875 -24.265625 15.609375 -24.082031 15.609375 -23.71875 Z M 15.609375 -23.71875 "/></g></g><g style="fill:#060705;fill-opacity:1;"><g transform="translate(94.103227, 61.45205)"><path style="stroke:none" d="M 14.359375 -24.265625 L 1.59375 -24.265625 C 1.226562 -24.265625 1.046875 -24.082031 1.046875 -23.71875 L 1.046875 -20.25 C 1.046875 -19.875 1.226562 -19.6875 1.59375 -19.6875 L 5.609375 -19.6875 L 5.609375 -0.5625 C 5.609375 -0.1875 5.796875 0 6.171875 0 L 9.78125 0 C 10.144531 0 10.328125 -0.1875 10.328125 -0.5625 L 10.328125 -19.6875 L 14.359375 -19.6875 C 14.722656 -19.6875 14.90625 -19.875 14.90625 -20.25 L 14.90625 -23.71875 C 14.90625 -24.082031 14.722656 -24.265625 14.359375 -24.265625 Z M 14.359375 -24.265625 "/></g></g><g style="fill:#060705;fill-opacity:1;"><g transform="translate(37.028, 109.796829)"><path style="stroke:none" d="M 18.09375 0 L 14.734375 0 C 14.429688 0 14.25 -0.160156 14.1875 -0.484375 L 13.078125 -4.859375 L 6.546875 -4.859375 L 5.484375 -0.484375 C 5.410156 -0.160156 5.222656 0 4.921875 0 L 1.53125 0 C 1.113281 0 0.960938 -0.195312 1.078125 -0.59375 L 6.828125 -23.78125 C 6.898438 -24.101562 7.097656 -24.265625 7.421875 -24.265625 L 12.234375 -24.265625 C 12.554688 -24.265625 12.753906 -24.101562 12.828125 -23.78125 L 18.578125 -0.59375 C 18.691406 -0.195312 18.53125 0 18.09375 0 Z M 12 -8.875 L 9.8125 -18.3125 L 7.625 -8.875 Z M 12 -8.875 "/></g></g><g style="fill:#060705;fill-opacity:1;"><g transform="translate(56.683303, 109.796829)"><path style="stroke:none" d="M 15.640625 -19.28125 L 15.640625 -14.59375 C 15.640625 -13.945312 15.429688 -13.40625 15.015625 -12.96875 C 14.597656 -12.53125 14.078125 -12.253906 13.453125 -12.140625 L 13.453125 -12.0625 C 14.078125 -11.96875 14.597656 -11.695312 15.015625 -11.25 C 15.429688 -10.800781 15.640625 -10.253906 15.640625 -9.609375 L 15.640625 -5 C 15.640625 -3.375 15.210938 -2.132812 14.359375 -1.28125 C 13.503906 -0.425781 12.253906 0 10.609375 0 L 2.28125 0 C 1.914062 0 1.734375 -0.1875 1.734375 -0.5625 L 1.734375 -23.71875 C 1.734375 -24.082031 1.914062 -24.265625 2.28125 -24.265625 L 10.609375 -24.265625 C 12.253906 -24.265625 13.503906 -23.84375 14.359375 -23 C 15.210938 -22.15625 15.640625 -20.914062 15.640625 -19.28125 Z M 11.234375 -15.734375 L 11.234375 -18.515625 C 11.234375 -19.441406 10.769531 -19.90625 9.84375 -19.90625 L 6.03125 -19.90625 L 6.03125 -14.390625 L 9.84375 -14.390625 C 10.769531 -14.390625 11.234375 -14.835938 11.234375 -15.734375 Z M 11.234375 -5.75 L 11.234375 -8.421875 C 11.234375 -9.347656 10.769531 -9.8125 9.84375 -9.8125 L 6.03125 -9.8125 L 6.03125 -4.375 L 9.84375 -4.375 C 10.769531 -4.375 11.234375 -4.832031 11.234375 -5.75 Z M 11.234375 -5.75 "/></g></g><g style="fill:#060705;fill-opacity:1;"><g transform="translate(74.050689, 109.796829)"><path style="stroke:none" d="M 6.453125 -4.578125 L 6.453125 -23.71875 C 6.453125 -24.082031 6.265625 -24.265625 5.890625 -24.265625 L 2.28125 -24.265625 C 1.914062 -24.265625 1.734375 -24.082031 1.734375 -23.71875 L 1.734375 -0.5625 C 1.734375 -0.1875 1.914062 0 2.28125 0 L 13.3125 0 C 13.6875 0 13.875 -0.1875 13.875 -0.5625 L 13.875 -4.015625 C 13.875 -4.390625 13.6875 -4.578125 13.3125 -4.578125 Z M 6.453125 -4.578125 "/></g></g><g style="fill:#060705;fill-opacity:1;"><g transform="translate(89.650132, 109.796829)"><path style="stroke:none" d="M 15.5625 -23.71875 L 15.5625 -20.25 C 15.5625 -19.851562 15.378906 -19.65625 15.015625 -19.65625 L 6.453125 -19.65625 L 6.453125 -14.3125 L 12.96875 -14.3125 C 13.332031 -14.3125 13.515625 -14.117188 13.515625 -13.734375 L 13.515625 -10.296875 C 13.515625 -9.898438 13.332031 -9.703125 12.96875 -9.703125 L 6.453125 -9.703125 L 6.453125 -4.578125 L 15.015625 -4.578125 C 15.378906 -4.578125 15.5625 -4.390625 15.5625 -4.015625 L 15.5625 -0.5625 C 15.5625 -0.1875 15.378906 0 15.015625 0 L 2.25 0 C 1.90625 0 1.734375 -0.1875 1.734375 -0.5625 L 1.734375 -23.71875 C 1.734375 -24.082031 1.90625 -24.265625 2.25 -24.265625 L 15.015625 -24.265625 C 15.378906 -24.265625 15.5625 -24.082031 15.5625 -23.71875 Z M 15.5625 -23.71875 "/></g></g></g></svg>