<svg xmlns="http://www.w3.org/2000/svg" xmlns:xlink="http://www.w3.org/1999/xlink" width="500" zoomAndPan="magnify" viewBox="0 0 375 374.999991" height="500" preserveAspectRatio="xMidYMid meet" version="1.2"><defs><clipPath id="1e83225283"><path d="M 25 0 L 350 0 L 350 375 L 25 375 Z M 25 0 "/></clipPath><clipPath id="be8f3339b3"><path d="M -55.878906 142.882812 L 268.328125 -46.476562 L 431 232.042969 L 106.789062 421.402344 Z M -55.878906 142.882812 "/></clipPath><clipPath id="e99d951c30"><path d="M 349.546875 92.851562 L 349.859375 279.433594 L 187.8125 374.078125 L 25.453125 282.140625 L 25.140625 95.5625 L 187.1875 0.917969 Z M 349.546875 92.851562 "/></clipPath><clipPath id="07deac61b4"><path d="M 55.238281 35.632812 L 319.726562 35.632812 L 319.726562 339 L 55.238281 339 Z M 55.238281 35.632812 "/></clipPath></defs><g id="121b815eda"><g clip-rule="nonzero" clip-path="url(#1e83225283)"><g clip-rule="nonzero" clip-path="url(#be8f3339b3)"><g clip-rule="nonzero" clip-path="url(#e99d951c30)"><path style=" stroke:none;fill-rule:nonzero;fill:#65b30e;fill-opacity:1;" d="M -55.878906 142.882812 L 268.332031 -46.476562 L 431 232.042969 L 106.789062 421.402344 Z M -55.878906 142.882812 "/></g></g></g><path style=" stroke:none;fill-rule:nonzero;fill:#87ff00;fill-opacity:1;" d="M 134.582031 135.703125 L 134.414062 135.535156 L 97.035156 172.914062 L 187.792969 263.503906 L 225.175781 226.296875 L 278.546875 172.914062 L 241.167969 135.535156 L 241.167969 135.363281 L 134.417969 135.363281 Z M 134.582031 135.703125 "/><g clip-rule="nonzero" clip-path="url(#07deac61b4)"><path style=" stroke:none;fill-rule:nonzero;fill:#87ff00;fill-opacity:1;" d="M 187.453125 35.851562 L 55.269531 111.625 L 55.273438 263.175781 L 187.457031 338.949219 L 319.640625 263.175781 L 319.640625 111.625 L 187.457031 35.855469 Z M 294.375 248.683594 L 187.453125 310.308594 L 80.527344 248.683594 L 80.53125 125.765625 L 187.457031 64.136719 L 294.378906 125.765625 L 294.378906 248.683594 Z M 294.375 248.683594 "/></g><g style="fill:#b21a22;fill-opacity:1;"><g transform="translate(42.504601, 168.878395)"><path style="stroke:none" d="M 11.875 -44.765625 L 18.734375 -44.765625 C 22.160156 -44.765625 24.804688 -43.835938 26.667969 -41.972656 C 28.53125 -40.109375 29.460938 -37.464844 29.460938 -34.039062 L 29.460938 -29.996094 C 29.460938 -29.140625 29.191406 -28.445312 28.65625 -27.910156 C 28.121094 -27.371094 27.421875 -27.105469 26.570312 -27.105469 L 20.386719 -27.105469 C 19.53125 -27.105469 18.835938 -27.371094 18.296875 -27.910156 C 17.761719 -28.445312 17.492188 -29.140625 17.492188 -29.996094 L 17.492188 -32.566406 C 17.492188 -32.769531 17.476562 -32.925781 17.4375 -33.035156 C 17.429688 -33.054688 17.425781 -33.070312 17.421875 -33.074219 C 17.425781 -33.070312 17.433594 -33.0625 17.441406 -33.050781 C 17.449219 -33.042969 17.457031 -33.035156 17.464844 -33.03125 C 17.457031 -33.035156 17.445312 -33.042969 17.425781 -33.050781 C 17.3125 -33.085938 17.160156 -33.105469 16.957031 -33.105469 L 13.589844 -33.105469 C 13.390625 -33.105469 13.234375 -33.085938 13.125 -33.050781 C 13.105469 -33.042969 13.089844 -33.035156 13.082031 -33.03125 C 13.089844 -33.035156 13.097656 -33.042969 13.105469 -33.050781 C 13.117188 -33.0625 13.121094 -33.070312 13.125 -33.074219 C 13.121094 -33.070312 13.117188 -33.054688 13.109375 -33.035156 C 13.074219 -32.925781 13.054688 -32.769531 13.054688 -32.566406 L 13.054688 -27.363281 L 11.140625 -27.363281 L 11.730469 -29.1875 L 26.542969 -24.410156 C 27.488281 -24.082031 28.214844 -23.5625 28.714844 -22.847656 C 29.214844 -22.140625 29.460938 -21.300781 29.460938 -20.324219 L 29.460938 -8.816406 C 29.460938 -5.433594 28.53125 -2.804688 26.675781 -0.921875 C 24.8125 0.96875 22.164062 1.914062 18.734375 1.914062 L 11.875 1.914062 C 8.492188 1.914062 5.855469 0.972656 3.972656 -0.914062 C 2.089844 -2.796875 1.148438 -5.429688 1.148438 -8.816406 L 1.148438 -12.792969 C 1.148438 -13.648438 1.417969 -14.34375 1.953125 -14.882812 C 2.488281 -15.417969 3.1875 -15.6875 4.039062 -15.6875 L 10.222656 -15.6875 C 11.078125 -15.6875 11.773438 -15.417969 12.3125 -14.882812 C 12.847656 -14.34375 13.117188 -13.648438 13.117188 -12.792969 L 13.117188 -10.222656 C 13.117188 -10.023438 13.132812 -9.867188 13.171875 -9.757812 C 13.179688 -9.738281 13.183594 -9.722656 13.1875 -9.714844 C 13.183594 -9.722656 13.175781 -9.730469 13.167969 -9.738281 C 13.160156 -9.75 13.152344 -9.753906 13.144531 -9.757812 C 13.152344 -9.753906 13.164062 -9.75 13.183594 -9.742188 C 13.296875 -9.707031 13.449219 -9.6875 13.652344 -9.6875 L 16.957031 -9.6875 C 17.160156 -9.6875 17.3125 -9.707031 17.425781 -9.742188 C 17.445312 -9.75 17.457031 -9.753906 17.464844 -9.757812 C 17.457031 -9.753906 17.449219 -9.75 17.441406 -9.738281 C 17.433594 -9.730469 17.425781 -9.722656 17.421875 -9.714844 C 17.425781 -9.722656 17.429688 -9.738281 17.4375 -9.757812 C 17.476562 -9.867188 17.492188 -10.023438 17.492188 -10.222656 L 17.492188 -16.40625 L 19.40625 -16.40625 L 18.816406 -14.585938 L 4.121094 -19.363281 C 3.175781 -19.675781 2.445312 -20.1875 1.929688 -20.894531 C 1.40625 -21.609375 1.148438 -22.460938 1.148438 -23.445312 L 1.148438 -34.039062 C 1.148438 -37.46875 2.09375 -40.117188 3.980469 -41.980469 C 5.863281 -43.835938 8.496094 -44.765625 11.875 -44.765625 Z M 11.875 -40.941406 C 9.542969 -40.941406 7.808594 -40.378906 6.667969 -39.257812 C 5.539062 -38.140625 4.972656 -36.402344 4.972656 -34.039062 L 4.972656 -23.445312 C 4.972656 -23.292969 4.988281 -23.191406 5.019531 -23.152344 C 5.054688 -23.101562 5.148438 -23.054688 5.304688 -23 L 21.320312 -17.796875 L 21.320312 -10.222656 C 21.320312 -8.878906 20.929688 -7.816406 20.148438 -7.035156 C 19.363281 -6.253906 18.300781 -5.863281 16.957031 -5.863281 L 13.652344 -5.863281 C 12.308594 -5.863281 11.242188 -6.253906 10.460938 -7.035156 C 9.679688 -7.816406 9.289062 -8.878906 9.289062 -10.222656 L 9.289062 -12.792969 C 9.289062 -12.75 9.300781 -12.691406 9.328125 -12.617188 C 9.382812 -12.453125 9.472656 -12.308594 9.605469 -12.175781 C 9.738281 -12.046875 9.882812 -11.953125 10.046875 -11.898438 C 10.121094 -11.875 10.179688 -11.859375 10.222656 -11.859375 L 4.039062 -11.859375 C 4.085938 -11.859375 4.144531 -11.875 4.21875 -11.898438 C 4.378906 -11.953125 4.527344 -12.046875 4.660156 -12.175781 C 4.789062 -12.308594 4.882812 -12.453125 4.9375 -12.617188 C 4.960938 -12.691406 4.972656 -12.75 4.972656 -12.792969 L 4.972656 -8.816406 C 4.972656 -6.488281 5.542969 -4.753906 6.679688 -3.617188 C 7.816406 -2.480469 9.546875 -1.914062 11.875 -1.914062 L 18.734375 -1.914062 C 21.097656 -1.914062 22.835938 -2.476562 23.953125 -3.609375 C 25.074219 -4.746094 25.636719 -6.480469 25.636719 -8.816406 L 25.636719 -20.324219 C 25.636719 -20.492188 25.617188 -20.601562 25.585938 -20.648438 C 25.558594 -20.6875 25.484375 -20.726562 25.371094 -20.769531 L 9.230469 -25.972656 L 9.230469 -32.566406 C 9.230469 -33.914062 9.621094 -34.976562 10.402344 -35.757812 C 11.183594 -36.539062 12.246094 -36.929688 13.589844 -36.929688 L 16.957031 -36.929688 C 18.300781 -36.929688 19.363281 -36.539062 20.148438 -35.757812 C 20.929688 -34.976562 21.320312 -33.914062 21.320312 -32.566406 L 21.320312 -29.996094 C 21.320312 -30.039062 21.308594 -30.101562 21.28125 -30.171875 C 21.226562 -30.335938 21.136719 -30.484375 21.003906 -30.617188 C 20.871094 -30.746094 20.726562 -30.839844 20.5625 -30.894531 C 20.488281 -30.917969 20.429688 -30.929688 20.386719 -30.929688 L 26.570312 -30.929688 C 26.523438 -30.929688 26.464844 -30.917969 26.390625 -30.894531 C 26.230469 -30.839844 26.082031 -30.746094 25.949219 -30.617188 C 25.820312 -30.484375 25.726562 -30.335938 25.671875 -30.171875 C 25.648438 -30.101562 25.636719 -30.039062 25.636719 -29.996094 L 25.636719 -34.039062 C 25.636719 -36.40625 25.078125 -38.148438 23.960938 -39.265625 C 22.84375 -40.382812 21.101562 -40.941406 18.734375 -40.941406 Z M 11.875 -40.941406 "/></g></g><g style="fill:#b21a22;fill-opacity:1;"><g transform="translate(73.104173, 168.878395)"><path style="stroke:none" d="M 29.398438 -41.875 L 29.398438 -35.75 C 29.398438 -34.898438 29.144531 -34.203125 28.636719 -33.660156 C 28.09375 -33.085938 27.386719 -32.796875 26.507812 -32.796875 L 11.386719 -32.796875 L 11.386719 -34.710938 L 13.300781 -34.710938 L 13.300781 -25.285156 L 11.386719 -25.285156 L 11.386719 -27.195312 L 22.894531 -27.195312 C 23.773438 -27.195312 24.484375 -26.910156 25.023438 -26.335938 C 25.535156 -25.792969 25.789062 -25.09375 25.789062 -24.242188 L 25.789062 -18.183594 C 25.789062 -17.328125 25.535156 -16.632812 25.023438 -16.089844 C 24.484375 -15.515625 23.773438 -15.226562 22.894531 -15.226562 L 11.386719 -15.226562 L 11.386719 -17.140625 L 13.300781 -17.140625 L 13.300781 -8.082031 L 11.386719 -8.082031 L 11.386719 -9.992188 L 26.507812 -9.992188 C 27.363281 -9.992188 28.058594 -9.726562 28.59375 -9.1875 C 29.132812 -8.652344 29.398438 -7.957031 29.398438 -7.101562 L 29.398438 -0.980469 C 29.398438 -0.125 29.132812 0.570312 28.59375 1.109375 C 28.058594 1.644531 27.363281 1.914062 26.507812 1.914062 L 3.980469 1.914062 C 3.121094 1.914062 2.425781 1.628906 1.894531 1.0625 C 1.398438 0.53125 1.148438 -0.148438 1.148438 -0.980469 L 1.148438 -41.875 C 1.148438 -42.703125 1.398438 -43.386719 1.894531 -43.917969 C 2.425781 -44.484375 3.121094 -44.765625 3.980469 -44.765625 L 26.507812 -44.765625 C 27.363281 -44.765625 28.058594 -44.496094 28.59375 -43.960938 C 29.132812 -43.425781 29.398438 -42.726562 29.398438 -41.875 Z M 25.574219 -41.875 C 25.574219 -41.828125 25.585938 -41.769531 25.609375 -41.695312 C 25.664062 -41.535156 25.757812 -41.386719 25.890625 -41.253906 C 26.019531 -41.125 26.167969 -41.03125 26.332031 -40.976562 C 26.40625 -40.953125 26.464844 -40.941406 26.507812 -40.941406 L 3.980469 -40.941406 C 4.226562 -40.941406 4.460938 -41.058594 4.6875 -41.300781 C 4.808594 -41.429688 4.894531 -41.574219 4.945312 -41.730469 C 4.964844 -41.792969 4.972656 -41.84375 4.972656 -41.875 L 4.972656 -0.980469 C 4.972656 -1.011719 4.964844 -1.058594 4.945312 -1.121094 C 4.894531 -1.277344 4.808594 -1.421875 4.6875 -1.554688 C 4.460938 -1.792969 4.226562 -1.914062 3.980469 -1.914062 L 26.507812 -1.914062 C 26.464844 -1.914062 26.40625 -1.902344 26.332031 -1.875 C 26.167969 -1.820312 26.019531 -1.730469 25.890625 -1.597656 C 25.757812 -1.464844 25.664062 -1.320312 25.609375 -1.15625 C 25.585938 -1.082031 25.574219 -1.023438 25.574219 -0.980469 L 25.574219 -7.101562 C 25.574219 -7.058594 25.585938 -7 25.609375 -6.925781 C 25.664062 -6.761719 25.757812 -6.613281 25.890625 -6.484375 C 26.019531 -6.351562 26.167969 -6.257812 26.332031 -6.203125 C 26.40625 -6.179688 26.464844 -6.167969 26.507812 -6.167969 L 9.472656 -6.167969 L 9.472656 -19.054688 L 22.894531 -19.054688 C 22.839844 -19.054688 22.769531 -19.039062 22.683594 -19.007812 C 22.515625 -18.949219 22.367188 -18.851562 22.238281 -18.710938 C 22.117188 -18.585938 22.035156 -18.449219 21.988281 -18.300781 C 21.972656 -18.242188 21.960938 -18.203125 21.960938 -18.183594 L 21.960938 -24.242188 C 21.960938 -24.21875 21.972656 -24.179688 21.988281 -24.125 C 22.035156 -23.976562 22.117188 -23.839844 22.238281 -23.710938 C 22.367188 -23.574219 22.515625 -23.472656 22.683594 -23.414062 C 22.769531 -23.386719 22.839844 -23.371094 22.894531 -23.371094 L 9.472656 -23.371094 L 9.472656 -36.625 L 26.507812 -36.625 C 26.453125 -36.625 26.382812 -36.609375 26.296875 -36.578125 C 26.128906 -36.519531 25.980469 -36.421875 25.847656 -36.28125 C 25.730469 -36.15625 25.648438 -36.019531 25.601562 -35.867188 C 25.582031 -35.8125 25.574219 -35.773438 25.574219 -35.75 Z M 25.574219 -41.875 "/></g></g><g style="fill:#b21a22;fill-opacity:1;"><g transform="translate(103.642536, 168.878395)"><path style="stroke:none" d="M 29.460938 -34.039062 L 29.460938 -8.816406 C 29.460938 -6.570312 29.0625 -4.660156 28.257812 -3.082031 C 27.40625 -1.40625 26.132812 -0.136719 24.433594 0.726562 L 23.570312 -0.980469 L 25.304688 -1.785156 L 27.753906 3.476562 L 26.019531 4.285156 L 27.730469 3.429688 C 27.96875 3.910156 28.070312 4.390625 28.03125 4.875 C 27.984375 5.480469 27.746094 6 27.308594 6.433594 C 26.730469 7.011719 26.015625 7.300781 25.160156 7.300781 L 18.792969 7.300781 C 17.929688 7.300781 17.234375 7 16.710938 6.402344 C 16.460938 6.117188 16.238281 5.777344 16.042969 5.386719 L 16.027344 5.359375 L 13.933594 0.796875 L 15.671875 0 L 15.671875 1.914062 L 11.875 1.914062 C 8.492188 1.914062 5.855469 0.972656 3.972656 -0.914062 C 2.089844 -2.796875 1.148438 -5.429688 1.148438 -8.816406 L 1.148438 -34.039062 C 1.148438 -37.46875 2.09375 -40.117188 3.980469 -41.980469 C 5.863281 -43.835938 8.496094 -44.765625 11.875 -44.765625 L 18.734375 -44.765625 C 22.160156 -44.765625 24.804688 -43.835938 26.667969 -41.972656 C 28.53125 -40.109375 29.460938 -37.464844 29.460938 -34.039062 Z M 25.636719 -34.039062 C 25.636719 -36.40625 25.078125 -38.148438 23.960938 -39.265625 C 22.84375 -40.382812 21.101562 -40.941406 18.734375 -40.941406 L 11.875 -40.941406 C 9.542969 -40.941406 7.808594 -40.378906 6.667969 -39.257812 C 5.539062 -38.140625 4.972656 -36.402344 4.972656 -34.039062 L 4.972656 -8.816406 C 4.972656 -6.488281 5.542969 -4.753906 6.679688 -3.617188 C 7.816406 -2.480469 9.546875 -1.914062 11.875 -1.914062 L 16.898438 -1.914062 L 19.492188 3.730469 L 17.753906 4.53125 L 19.464844 3.675781 C 19.515625 3.773438 19.554688 3.84375 19.589844 3.882812 C 19.351562 3.609375 19.085938 3.472656 18.792969 3.472656 L 25.160156 3.472656 C 24.957031 3.472656 24.773438 3.558594 24.605469 3.726562 C 24.371094 3.960938 24.242188 4.246094 24.21875 4.582031 C 24.199219 4.800781 24.230469 4.988281 24.304688 5.140625 L 24.292969 5.117188 L 21.054688 -1.847656 L 22.703125 -2.683594 C 23.65625 -3.171875 24.371094 -3.878906 24.847656 -4.816406 C 25.371094 -5.847656 25.636719 -7.183594 25.636719 -8.816406 Z M 12.933594 -32.507812 L 12.933594 -10.347656 C 12.933594 -10.144531 12.949219 -9.988281 12.988281 -9.878906 C 12.996094 -9.859375 13 -9.84375 13.003906 -9.839844 C 13 -9.84375 12.992188 -9.851562 12.984375 -9.863281 C 12.976562 -9.871094 12.96875 -9.878906 12.960938 -9.882812 C 12.96875 -9.878906 12.980469 -9.871094 13 -9.867188 C 13.113281 -9.828125 13.265625 -9.808594 13.46875 -9.808594 L 17.386719 -9.808594 C 17.585938 -9.808594 17.742188 -9.828125 17.851562 -9.867188 C 17.871094 -9.871094 17.886719 -9.878906 17.894531 -9.882812 C 17.886719 -9.878906 17.878906 -9.871094 17.871094 -9.863281 C 17.859375 -9.851562 17.855469 -9.84375 17.851562 -9.839844 C 17.855469 -9.84375 17.859375 -9.859375 17.867188 -9.878906 C 17.902344 -9.988281 17.921875 -10.144531 17.921875 -10.347656 L 17.921875 -32.507812 C 17.921875 -32.707031 17.902344 -32.863281 17.867188 -32.972656 C 17.859375 -32.992188 17.855469 -33.007812 17.851562 -33.015625 C 17.855469 -33.007812 17.859375 -33 17.871094 -32.992188 C 17.878906 -32.980469 17.886719 -32.976562 17.894531 -32.972656 C 17.886719 -32.976562 17.871094 -32.980469 17.851562 -32.988281 C 17.742188 -33.023438 17.585938 -33.042969 17.386719 -33.042969 L 13.46875 -33.042969 C 13.265625 -33.042969 13.113281 -33.023438 13 -32.988281 C 12.980469 -32.980469 12.96875 -32.976562 12.960938 -32.972656 C 12.96875 -32.976562 12.976562 -32.980469 12.984375 -32.992188 C 12.992188 -33 13 -33.007812 13.003906 -33.015625 C 13 -33.007812 12.996094 -32.992188 12.988281 -32.972656 C 12.949219 -32.863281 12.933594 -32.707031 12.933594 -32.507812 Z M 9.105469 -32.507812 C 9.105469 -33.851562 9.496094 -34.914062 10.277344 -35.695312 C 11.058594 -36.476562 12.125 -36.867188 13.46875 -36.867188 L 17.386719 -36.867188 C 18.730469 -36.867188 19.792969 -36.476562 20.574219 -35.695312 C 21.355469 -34.914062 21.746094 -33.851562 21.746094 -32.507812 L 21.746094 -10.347656 C 21.746094 -9 21.355469 -7.9375 20.574219 -7.15625 C 19.792969 -6.375 18.730469 -5.984375 17.386719 -5.984375 L 13.46875 -5.984375 C 12.125 -5.984375 11.058594 -6.375 10.277344 -7.15625 C 9.496094 -7.9375 9.105469 -9 9.105469 -10.347656 Z M 9.105469 -32.507812 "/></g></g><g style="fill:#b21a22;fill-opacity:1;"><g transform="translate(134.242108, 168.878395)"><path style="stroke:none" d="M 20.691406 -44.765625 L 26.324219 -44.765625 C 27.179688 -44.765625 27.914062 -44.457031 28.535156 -43.839844 C 29.152344 -43.21875 29.460938 -42.484375 29.460938 -41.628906 L 29.460938 -8.816406 C 29.460938 -5.433594 28.53125 -2.804688 26.675781 -0.921875 C 24.8125 0.96875 22.164062 1.914062 18.734375 1.914062 L 11.875 1.914062 C 8.492188 1.914062 5.855469 0.972656 3.972656 -0.914062 C 2.089844 -2.796875 1.148438 -5.429688 1.148438 -8.816406 L 1.148438 -41.628906 C 1.148438 -42.484375 1.457031 -43.21875 2.074219 -43.839844 C 2.695312 -44.457031 3.429688 -44.765625 4.285156 -44.765625 L 10.164062 -44.765625 C 11.015625 -44.765625 11.753906 -44.457031 12.371094 -43.839844 C 12.992188 -43.21875 13.300781 -42.484375 13.300781 -41.628906 L 13.300781 -10.53125 C 13.300781 -10.328125 13.316406 -10.171875 13.355469 -10.0625 C 13.363281 -10.042969 13.367188 -10.027344 13.371094 -10.023438 C 13.367188 -10.027344 13.359375 -10.035156 13.351562 -10.046875 C 13.34375 -10.054688 13.335938 -10.0625 13.328125 -10.066406 C 13.335938 -10.0625 13.347656 -10.054688 13.367188 -10.050781 C 13.480469 -10.011719 13.632812 -9.992188 13.835938 -9.992188 L 17.019531 -9.992188 C 17.21875 -9.992188 17.375 -10.011719 17.484375 -10.050781 C 17.503906 -10.054688 17.519531 -10.0625 17.527344 -10.066406 C 17.519531 -10.0625 17.511719 -10.054688 17.503906 -10.046875 C 17.492188 -10.035156 17.488281 -10.027344 17.484375 -10.023438 C 17.488281 -10.027344 17.492188 -10.042969 17.5 -10.0625 C 17.535156 -10.171875 17.554688 -10.328125 17.554688 -10.53125 L 17.554688 -41.628906 C 17.554688 -42.484375 17.863281 -43.21875 18.480469 -43.839844 C 19.101562 -44.457031 19.835938 -44.765625 20.691406 -44.765625 Z M 20.691406 -40.941406 C 20.894531 -40.941406 21.058594 -41.003906 21.1875 -41.132812 C 21.316406 -41.261719 21.378906 -41.425781 21.378906 -41.628906 L 21.378906 -10.53125 C 21.378906 -9.183594 20.988281 -8.121094 20.207031 -7.339844 C 19.425781 -6.558594 18.363281 -6.167969 17.019531 -6.167969 L 13.835938 -6.167969 C 12.492188 -6.167969 11.425781 -6.558594 10.644531 -7.339844 C 9.863281 -8.121094 9.472656 -9.183594 9.472656 -10.53125 L 9.472656 -41.628906 C 9.472656 -41.425781 9.539062 -41.261719 9.667969 -41.132812 C 9.796875 -41.003906 9.960938 -40.941406 10.164062 -40.941406 L 4.285156 -40.941406 C 4.488281 -40.941406 4.652344 -41.003906 4.78125 -41.132812 C 4.910156 -41.261719 4.972656 -41.425781 4.972656 -41.628906 L 4.972656 -8.816406 C 4.972656 -6.488281 5.542969 -4.753906 6.679688 -3.617188 C 7.816406 -2.480469 9.546875 -1.914062 11.875 -1.914062 L 18.734375 -1.914062 C 21.097656 -1.914062 22.835938 -2.476562 23.953125 -3.609375 C 25.074219 -4.746094 25.636719 -6.480469 25.636719 -8.816406 L 25.636719 -41.628906 C 25.636719 -41.425781 25.699219 -41.261719 25.828125 -41.132812 C 25.957031 -41.003906 26.121094 -40.941406 26.324219 -40.941406 Z M 20.691406 -40.941406 "/></g></g><g style="fill:#b21a22;fill-opacity:1;"><g transform="translate(164.84168, 168.878395)"><path style="stroke:none" d="M 29.398438 -41.875 L 29.398438 -35.75 C 29.398438 -34.898438 29.144531 -34.203125 28.636719 -33.660156 C 28.09375 -33.085938 27.386719 -32.796875 26.507812 -32.796875 L 11.386719 -32.796875 L 11.386719 -34.710938 L 13.300781 -34.710938 L 13.300781 -25.285156 L 11.386719 -25.285156 L 11.386719 -27.195312 L 22.894531 -27.195312 C 23.773438 -27.195312 24.484375 -26.910156 25.023438 -26.335938 C 25.535156 -25.792969 25.789062 -25.09375 25.789062 -24.242188 L 25.789062 -18.183594 C 25.789062 -17.328125 25.535156 -16.632812 25.023438 -16.089844 C 24.484375 -15.515625 23.773438 -15.226562 22.894531 -15.226562 L 11.386719 -15.226562 L 11.386719 -17.140625 L 13.300781 -17.140625 L 13.300781 -8.082031 L 11.386719 -8.082031 L 11.386719 -9.992188 L 26.507812 -9.992188 C 27.363281 -9.992188 28.058594 -9.726562 28.59375 -9.1875 C 29.132812 -8.652344 29.398438 -7.957031 29.398438 -7.101562 L 29.398438 -0.980469 C 29.398438 -0.125 29.132812 0.570312 28.59375 1.109375 C 28.058594 1.644531 27.363281 1.914062 26.507812 1.914062 L 3.980469 1.914062 C 3.121094 1.914062 2.425781 1.628906 1.894531 1.0625 C 1.398438 0.53125 1.148438 -0.148438 1.148438 -0.980469 L 1.148438 -41.875 C 1.148438 -42.703125 1.398438 -43.386719 1.894531 -43.917969 C 2.425781 -44.484375 3.121094 -44.765625 3.980469 -44.765625 L 26.507812 -44.765625 C 27.363281 -44.765625 28.058594 -44.496094 28.59375 -43.960938 C 29.132812 -43.425781 29.398438 -42.726562 29.398438 -41.875 Z M 25.574219 -41.875 C 25.574219 -41.828125 25.585938 -41.769531 25.609375 -41.695312 C 25.664062 -41.535156 25.757812 -41.386719 25.890625 -41.253906 C 26.019531 -41.125 26.167969 -41.03125 26.332031 -40.976562 C 26.40625 -40.953125 26.464844 -40.941406 26.507812 -40.941406 L 3.980469 -40.941406 C 4.226562 -40.941406 4.460938 -41.058594 4.6875 -41.300781 C 4.808594 -41.429688 4.894531 -41.574219 4.945312 -41.730469 C 4.964844 -41.792969 4.972656 -41.84375 4.972656 -41.875 L 4.972656 -0.980469 C 4.972656 -1.011719 4.964844 -1.058594 4.945312 -1.121094 C 4.894531 -1.277344 4.808594 -1.421875 4.6875 -1.554688 C 4.460938 -1.792969 4.226562 -1.914062 3.980469 -1.914062 L 26.507812 -1.914062 C 26.464844 -1.914062 26.40625 -1.902344 26.332031 -1.875 C 26.167969 -1.820312 26.019531 -1.730469 25.890625 -1.597656 C 25.757812 -1.464844 25.664062 -1.320312 25.609375 -1.15625 C 25.585938 -1.082031 25.574219 -1.023438 25.574219 -0.980469 L 25.574219 -7.101562 C 25.574219 -7.058594 25.585938 -7 25.609375 -6.925781 C 25.664062 -6.761719 25.757812 -6.613281 25.890625 -6.484375 C 26.019531 -6.351562 26.167969 -6.257812 26.332031 -6.203125 C 26.40625 -6.179688 26.464844 -6.167969 26.507812 -6.167969 L 9.472656 -6.167969 L 9.472656 -19.054688 L 22.894531 -19.054688 C 22.839844 -19.054688 22.769531 -19.039062 22.683594 -19.007812 C 22.515625 -18.949219 22.367188 -18.851562 22.238281 -18.710938 C 22.117188 -18.585938 22.035156 -18.449219 21.988281 -18.300781 C 21.972656 -18.242188 21.960938 -18.203125 21.960938 -18.183594 L 21.960938 -24.242188 C 21.960938 -24.21875 21.972656 -24.179688 21.988281 -24.125 C 22.035156 -23.976562 22.117188 -23.839844 22.238281 -23.710938 C 22.367188 -23.574219 22.515625 -23.472656 22.683594 -23.414062 C 22.769531 -23.386719 22.839844 -23.371094 22.894531 -23.371094 L 9.472656 -23.371094 L 9.472656 -36.625 L 26.507812 -36.625 C 26.453125 -36.625 26.382812 -36.609375 26.296875 -36.578125 C 26.128906 -36.519531 25.980469 -36.421875 25.847656 -36.28125 C 25.730469 -36.15625 25.648438 -36.019531 25.601562 -35.867188 C 25.582031 -35.8125 25.574219 -35.773438 25.574219 -35.75 Z M 25.574219 -41.875 "/></g></g><g style="fill:#b21a22;fill-opacity:1;"><g transform="translate(195.380043, 168.878395)"><path style="stroke:none" d="M 22.46875 -44.765625 L 28.222656 -44.765625 C 29.078125 -44.765625 29.773438 -44.496094 30.308594 -43.960938 C 30.847656 -43.425781 31.113281 -42.726562 31.113281 -41.875 L 31.113281 -0.980469 C 31.113281 -0.125 30.847656 0.570312 30.308594 1.109375 C 29.773438 1.644531 29.078125 1.914062 28.222656 1.914062 L 23.386719 1.914062 C 22.726562 1.914062 22.140625 1.726562 21.621094 1.351562 C 21.167969 1.023438 20.808594 0.574219 20.546875 0.0078125 L 22.285156 -0.796875 L 20.566406 0.0507812 L 9.058594 -23.335938 L 10.773438 -24.179688 L 12.6875 -24.179688 L 12.6875 -0.980469 C 12.6875 -0.125 12.417969 0.570312 11.882812 1.109375 C 11.34375 1.644531 10.648438 1.914062 9.796875 1.914062 L 4.039062 1.914062 C 3.1875 1.914062 2.488281 1.644531 1.953125 1.109375 C 1.417969 0.570312 1.148438 -0.125 1.148438 -0.980469 L 1.148438 -41.875 C 1.148438 -42.726562 1.417969 -43.425781 1.953125 -43.960938 C 2.488281 -44.496094 3.1875 -44.765625 4.039062 -44.765625 L 8.875 -44.765625 C 9.535156 -44.765625 10.121094 -44.578125 10.640625 -44.203125 C 11.09375 -43.875 11.453125 -43.429688 11.714844 -42.859375 L 9.980469 -42.058594 L 11.695312 -42.902344 L 23.203125 -19.515625 L 21.488281 -18.671875 L 19.574219 -18.671875 L 19.574219 -41.875 C 19.574219 -42.726562 19.84375 -43.425781 20.378906 -43.960938 C 20.917969 -44.496094 21.613281 -44.765625 22.46875 -44.765625 Z M 22.46875 -40.941406 C 22.511719 -40.941406 22.570312 -40.953125 22.644531 -40.976562 C 22.808594 -41.03125 22.953125 -41.125 23.085938 -41.253906 C 23.214844 -41.386719 23.308594 -41.535156 23.363281 -41.695312 C 23.386719 -41.769531 23.402344 -41.828125 23.402344 -41.875 L 23.402344 -18.671875 L 19.769531 -17.828125 L 8.25 -41.234375 L 8.242188 -41.253906 C 8.257812 -41.21875 8.3125 -41.167969 8.398438 -41.101562 C 8.550781 -40.996094 8.710938 -40.941406 8.875 -40.941406 L 4.039062 -40.941406 C 4.085938 -40.941406 4.144531 -40.953125 4.21875 -40.976562 C 4.378906 -41.03125 4.527344 -41.125 4.660156 -41.253906 C 4.789062 -41.386719 4.882812 -41.535156 4.9375 -41.695312 C 4.960938 -41.769531 4.972656 -41.828125 4.972656 -41.875 L 4.972656 -0.980469 C 4.972656 -1.023438 4.960938 -1.082031 4.9375 -1.15625 C 4.882812 -1.320312 4.789062 -1.464844 4.660156 -1.597656 C 4.527344 -1.730469 4.378906 -1.820312 4.21875 -1.875 C 4.144531 -1.902344 4.085938 -1.914062 4.039062 -1.914062 L 9.796875 -1.914062 C 9.75 -1.914062 9.691406 -1.902344 9.617188 -1.875 C 9.457031 -1.820312 9.308594 -1.730469 9.175781 -1.597656 C 9.046875 -1.464844 8.953125 -1.320312 8.898438 -1.15625 C 8.875 -1.082031 8.859375 -1.023438 8.859375 -0.980469 L 8.859375 -24.179688 L 12.492188 -25.027344 L 24.011719 -1.621094 L 24.019531 -1.597656 C 24.003906 -1.636719 23.949219 -1.6875 23.863281 -1.75 C 23.710938 -1.859375 23.554688 -1.914062 23.386719 -1.914062 L 28.222656 -1.914062 C 28.179688 -1.914062 28.121094 -1.902344 28.046875 -1.875 C 27.882812 -1.820312 27.734375 -1.730469 27.601562 -1.597656 C 27.472656 -1.464844 27.378906 -1.320312 27.324219 -1.15625 C 27.300781 -1.082031 27.289062 -1.023438 27.289062 -0.980469 L 27.289062 -41.875 C 27.289062 -41.828125 27.300781 -41.769531 27.324219 -41.695312 C 27.378906 -41.535156 27.472656 -41.386719 27.601562 -41.253906 C 27.734375 -41.125 27.882812 -41.03125 28.046875 -40.976562 C 28.121094 -40.953125 28.179688 -40.941406 28.222656 -40.941406 Z M 22.46875 -40.941406 "/></g></g><g style="fill:#b21a22;fill-opacity:1;"><g transform="translate(227.632002, 168.878395)"><path style="stroke:none" d="M 25.34375 -40.941406 L 2.816406 -40.941406 C 2.859375 -40.941406 2.917969 -40.953125 2.992188 -40.976562 C 3.15625 -41.03125 3.304688 -41.125 3.433594 -41.253906 C 3.566406 -41.386719 3.660156 -41.535156 3.710938 -41.695312 C 3.738281 -41.769531 3.75 -41.828125 3.75 -41.875 L 3.75 -35.75 C 3.75 -35.796875 3.738281 -35.855469 3.710938 -35.929688 C 3.660156 -36.089844 3.566406 -36.238281 3.433594 -36.371094 C 3.304688 -36.5 3.15625 -36.59375 2.992188 -36.648438 C 2.917969 -36.671875 2.859375 -36.683594 2.816406 -36.683594 L 11.832031 -36.683594 L 11.832031 -0.980469 C 11.832031 -1.023438 11.816406 -1.082031 11.792969 -1.15625 C 11.738281 -1.320312 11.644531 -1.464844 11.515625 -1.597656 C 11.382812 -1.730469 11.238281 -1.820312 11.074219 -1.875 C 11 -1.902344 10.941406 -1.914062 10.898438 -1.914062 L 17.261719 -1.914062 C 17.21875 -1.914062 17.160156 -1.902344 17.085938 -1.875 C 16.925781 -1.820312 16.777344 -1.730469 16.644531 -1.597656 C 16.515625 -1.464844 16.421875 -1.320312 16.367188 -1.15625 C 16.34375 -1.082031 16.328125 -1.023438 16.328125 -0.980469 L 16.328125 -36.683594 L 25.34375 -36.683594 C 25.300781 -36.683594 25.242188 -36.671875 25.167969 -36.648438 C 25.003906 -36.59375 24.859375 -36.5 24.726562 -36.371094 C 24.59375 -36.238281 24.503906 -36.089844 24.449219 -35.929688 C 24.421875 -35.855469 24.410156 -35.796875 24.410156 -35.75 L 24.410156 -41.875 C 24.410156 -41.828125 24.421875 -41.769531 24.449219 -41.695312 C 24.503906 -41.535156 24.59375 -41.386719 24.726562 -41.253906 C 24.859375 -41.125 25.003906 -41.03125 25.167969 -40.976562 C 25.242188 -40.953125 25.300781 -40.941406 25.34375 -40.941406 Z M 25.34375 -44.765625 C 26.199219 -44.765625 26.894531 -44.496094 27.433594 -43.960938 C 27.96875 -43.425781 28.238281 -42.726562 28.238281 -41.875 L 28.238281 -35.75 C 28.238281 -34.898438 27.96875 -34.199219 27.433594 -33.664062 C 26.894531 -33.128906 26.199219 -32.859375 25.34375 -32.859375 L 18.242188 -32.859375 L 18.242188 -34.773438 L 20.15625 -34.773438 L 20.15625 -0.980469 C 20.15625 -0.125 19.886719 0.570312 19.351562 1.109375 C 18.8125 1.644531 18.117188 1.914062 17.261719 1.914062 L 10.898438 1.914062 C 10.042969 1.914062 9.347656 1.644531 8.808594 1.109375 C 8.273438 0.570312 8.003906 -0.125 8.003906 -0.980469 L 8.003906 -34.773438 L 9.917969 -34.773438 L 9.917969 -32.859375 L 2.816406 -32.859375 C 1.960938 -32.859375 1.265625 -33.128906 0.730469 -33.664062 C 0.191406 -34.199219 -0.078125 -34.898438 -0.078125 -35.75 L -0.078125 -41.875 C -0.078125 -42.726562 0.191406 -43.425781 0.730469 -43.960938 C 1.265625 -44.496094 1.960938 -44.765625 2.816406 -44.765625 Z M 25.34375 -44.765625 "/></g></g><g style="fill:#b21a22;fill-opacity:1;"><g transform="translate(255.783612, 168.878395)"><path style="stroke:none" d="M 4.039062 -1.914062 L 10.40625 -1.914062 C 10.363281 -1.914062 10.304688 -1.902344 10.230469 -1.875 C 10.066406 -1.820312 9.921875 -1.730469 9.789062 -1.597656 C 9.65625 -1.464844 9.566406 -1.320312 9.511719 -1.15625 C 9.484375 -1.082031 9.472656 -1.023438 9.472656 -0.980469 L 9.472656 -41.875 C 9.472656 -41.828125 9.484375 -41.769531 9.511719 -41.695312 C 9.566406 -41.535156 9.65625 -41.386719 9.789062 -41.253906 C 9.921875 -41.125 10.066406 -41.03125 10.230469 -40.976562 C 10.304688 -40.953125 10.363281 -40.941406 10.40625 -40.941406 L 4.039062 -40.941406 C 4.085938 -40.941406 4.144531 -40.953125 4.21875 -40.976562 C 4.378906 -41.03125 4.527344 -41.125 4.660156 -41.253906 C 4.789062 -41.386719 4.882812 -41.535156 4.9375 -41.695312 C 4.960938 -41.769531 4.972656 -41.828125 4.972656 -41.875 L 4.972656 -0.980469 C 4.972656 -1.023438 4.960938 -1.082031 4.9375 -1.15625 C 4.882812 -1.320312 4.789062 -1.464844 4.660156 -1.597656 C 4.527344 -1.730469 4.378906 -1.820312 4.21875 -1.875 C 4.144531 -1.902344 4.085938 -1.914062 4.039062 -1.914062 Z M 4.039062 1.914062 C 3.1875 1.914062 2.488281 1.644531 1.953125 1.109375 C 1.417969 0.570312 1.148438 -0.125 1.148438 -0.980469 L 1.148438 -41.875 C 1.148438 -42.726562 1.417969 -43.425781 1.953125 -43.960938 C 2.488281 -44.496094 3.1875 -44.765625 4.039062 -44.765625 L 10.40625 -44.765625 C 11.261719 -44.765625 11.957031 -44.496094 12.496094 -43.960938 C 13.03125 -43.425781 13.300781 -42.726562 13.300781 -41.875 L 13.300781 -0.980469 C 13.300781 -0.125 13.03125 0.570312 12.496094 1.109375 C 11.957031 1.644531 11.261719 1.914062 10.40625 1.914062 Z M 4.039062 1.914062 "/></g></g><g style="fill:#b21a22;fill-opacity:1;"><g transform="translate(270.226601, 168.878395)"><path style="stroke:none" d="M 31.957031 1.914062 L 26.019531 1.914062 C 25.273438 1.914062 24.640625 1.683594 24.113281 1.226562 C 23.632812 0.804688 23.316406 0.242188 23.167969 -0.457031 L 25.039062 -0.855469 L 23.183594 -0.386719 L 21.226562 -8.101562 L 23.078125 -8.570312 L 23.078125 -6.65625 L 11.570312 -6.65625 L 11.570312 -8.570312 L 13.429688 -8.113281 L 11.53125 -0.398438 L 9.671875 -0.855469 L 11.542969 -0.457031 C 11.394531 0.242188 11.078125 0.804688 10.59375 1.226562 C 10.070312 1.683594 9.4375 1.914062 8.691406 1.914062 L 2.695312 1.914062 C 1.695312 1.914062 0.9375 1.574219 0.425781 0.902344 C -0.101562 0.214844 -0.222656 -0.613281 0.0625 -1.582031 L 1.898438 -1.039062 L 0.0390625 -1.5 L 10.203125 -42.457031 L 12.058594 -41.996094 L 10.1875 -42.398438 C 10.34375 -43.117188 10.679688 -43.691406 11.195312 -44.117188 C 11.722656 -44.550781 12.359375 -44.765625 13.101562 -44.765625 L 21.609375 -44.765625 C 22.351562 -44.765625 22.988281 -44.550781 23.515625 -44.117188 C 24.03125 -43.691406 24.367188 -43.117188 24.523438 -42.398438 L 22.652344 -41.996094 L 24.507812 -42.457031 L 34.671875 -1.5 L 32.8125 -1.039062 L 34.648438 -1.582031 C 34.941406 -0.585938 34.800781 0.261719 34.230469 0.957031 C 33.703125 1.59375 32.945312 1.914062 31.957031 1.914062 Z M 31.957031 -1.914062 C 31.964844 -1.914062 31.972656 -1.914062 31.980469 -1.914062 C 31.980469 -1.914062 31.976562 -1.914062 31.972656 -1.914062 C 31.9375 -1.90625 31.898438 -1.898438 31.851562 -1.882812 C 31.632812 -1.8125 31.4375 -1.675781 31.273438 -1.476562 C 31.089844 -1.253906 30.988281 -1.003906 30.96875 -0.734375 C 30.957031 -0.628906 30.960938 -0.554688 30.976562 -0.5 L 30.964844 -0.539062 L 20.785156 -41.566406 L 20.78125 -41.59375 C 20.8125 -41.445312 20.914062 -41.300781 21.082031 -41.160156 C 21.261719 -41.015625 21.4375 -40.941406 21.609375 -40.941406 L 13.101562 -40.941406 C 13.273438 -40.941406 13.449219 -41.015625 13.628906 -41.160156 C 13.796875 -41.300781 13.898438 -41.445312 13.929688 -41.59375 L 13.925781 -41.566406 L 3.746094 -0.539062 L 3.734375 -0.5 C 3.746094 -0.539062 3.746094 -0.605469 3.742188 -0.699219 C 3.726562 -0.957031 3.632812 -1.199219 3.464844 -1.421875 C 3.296875 -1.640625 3.09375 -1.789062 2.859375 -1.871094 C 2.78125 -1.898438 2.726562 -1.914062 2.695312 -1.914062 L 8.691406 -1.914062 C 8.480469 -1.914062 8.273438 -1.828125 8.074219 -1.652344 C 7.921875 -1.519531 7.828125 -1.386719 7.800781 -1.257812 L 7.808594 -1.285156 L 10.070312 -10.484375 L 24.566406 -10.484375 L 26.902344 -1.292969 L 26.910156 -1.257812 C 26.882812 -1.386719 26.789062 -1.519531 26.636719 -1.652344 C 26.4375 -1.828125 26.230469 -1.914062 26.019531 -1.914062 Z M 19.316406 -15.238281 L 15.460938 -31.890625 L 17.324219 -32.324219 L 19.1875 -31.890625 L 15.332031 -15.238281 L 13.46875 -15.671875 L 13.46875 -17.585938 L 21.179688 -17.585938 L 21.179688 -15.671875 Z M 23.589844 -13.757812 L 11.0625 -13.757812 L 15.460938 -32.753906 L 19.1875 -32.753906 L 23.046875 -16.105469 Z M 23.589844 -13.757812 "/></g></g><g style="fill:#b21a22;fill-opacity:1;"><g transform="translate(304.926523, 168.878395)"><path style="stroke:none" d="M 9.472656 -8.082031 L 9.472656 -41.875 C 9.472656 -41.828125 9.484375 -41.769531 9.511719 -41.695312 C 9.566406 -41.535156 9.65625 -41.386719 9.789062 -41.253906 C 9.921875 -41.125 10.066406 -41.03125 10.230469 -40.976562 C 10.304688 -40.953125 10.363281 -40.941406 10.40625 -40.941406 L 4.039062 -40.941406 C 4.085938 -40.941406 4.144531 -40.953125 4.21875 -40.976562 C 4.378906 -41.03125 4.527344 -41.125 4.660156 -41.253906 C 4.789062 -41.386719 4.882812 -41.535156 4.9375 -41.695312 C 4.960938 -41.769531 4.972656 -41.828125 4.972656 -41.875 L 4.972656 -0.980469 C 4.972656 -1.023438 4.960938 -1.082031 4.9375 -1.15625 C 4.882812 -1.320312 4.789062 -1.464844 4.660156 -1.597656 C 4.527344 -1.730469 4.378906 -1.820312 4.21875 -1.875 C 4.144531 -1.902344 4.085938 -1.914062 4.039062 -1.914062 L 23.507812 -1.914062 C 23.464844 -1.914062 23.40625 -1.902344 23.332031 -1.875 C 23.167969 -1.820312 23.019531 -1.730469 22.890625 -1.597656 C 22.757812 -1.464844 22.664062 -1.320312 22.609375 -1.15625 C 22.585938 -1.082031 22.574219 -1.023438 22.574219 -0.980469 L 22.574219 -7.101562 C 22.574219 -7.058594 22.585938 -7 22.609375 -6.925781 C 22.664062 -6.761719 22.757812 -6.613281 22.890625 -6.484375 C 23.019531 -6.351562 23.167969 -6.257812 23.332031 -6.203125 C 23.40625 -6.179688 23.464844 -6.167969 23.507812 -6.167969 L 9.472656 -6.167969 Z M 13.300781 -8.082031 L 11.386719 -8.082031 L 11.386719 -9.992188 L 23.507812 -9.992188 C 24.363281 -9.992188 25.058594 -9.726562 25.59375 -9.1875 C 26.132812 -8.652344 26.402344 -7.957031 26.402344 -7.101562 L 26.402344 -0.980469 C 26.402344 -0.125 26.132812 0.570312 25.59375 1.109375 C 25.058594 1.644531 24.363281 1.914062 23.507812 1.914062 L 4.039062 1.914062 C 3.1875 1.914062 2.488281 1.644531 1.953125 1.109375 C 1.417969 0.570312 1.148438 -0.125 1.148438 -0.980469 L 1.148438 -41.875 C 1.148438 -42.726562 1.417969 -43.425781 1.953125 -43.960938 C 2.488281 -44.496094 3.1875 -44.765625 4.039062 -44.765625 L 10.40625 -44.765625 C 11.261719 -44.765625 11.957031 -44.496094 12.496094 -43.960938 C 13.03125 -43.425781 13.300781 -42.726562 13.300781 -41.875 Z M 13.300781 -8.082031 "/></g></g><g style="fill:#b21a22;fill-opacity:1;"><g transform="translate(116.23933, 254.227374)"><path style="stroke:none" d="M -1.914062 8.203125 L -1.914062 2.570312 C -1.914062 1.632812 -1.625 0.878906 -1.046875 0.300781 C -0.46875 -0.277344 0.289062 -0.566406 1.222656 -0.566406 L 38.140625 -0.566406 C 39.074219 -0.566406 39.832031 -0.277344 40.410156 0.300781 C 40.988281 0.878906 41.277344 1.632812 41.277344 2.570312 L 41.277344 8.203125 C 41.277344 9.140625 40.988281 9.898438 40.410156 10.472656 C 39.832031 11.050781 39.074219 11.339844 38.140625 11.339844 L 1.222656 11.339844 C 0.289062 11.339844 -0.46875 11.050781 -1.046875 10.472656 C -1.625 9.898438 -1.914062 9.140625 -1.914062 8.203125 Z M 1.914062 8.203125 C 1.914062 8.210938 1.914062 8.21875 1.914062 8.222656 C 1.914062 8.222656 1.914062 8.222656 1.914062 8.21875 C 1.910156 8.195312 1.902344 8.167969 1.890625 8.132812 C 1.847656 8 1.769531 7.878906 1.660156 7.769531 C 1.546875 7.65625 1.425781 7.582031 1.292969 7.535156 C 1.261719 7.523438 1.234375 7.519531 1.207031 7.515625 C 1.203125 7.515625 1.203125 7.515625 1.203125 7.515625 C 1.207031 7.515625 1.214844 7.515625 1.222656 7.515625 L 38.140625 7.515625 C 38.148438 7.515625 38.15625 7.515625 38.160156 7.515625 C 38.160156 7.515625 38.160156 7.515625 38.15625 7.515625 C 38.132812 7.519531 38.101562 7.523438 38.070312 7.535156 C 37.9375 7.582031 37.816406 7.65625 37.703125 7.769531 C 37.59375 7.878906 37.515625 8 37.472656 8.132812 C 37.460938 8.167969 37.453125 8.195312 37.449219 8.21875 C 37.449219 8.222656 37.449219 8.222656 37.449219 8.222656 C 37.449219 8.21875 37.449219 8.210938 37.449219 8.203125 L 37.449219 2.570312 C 37.449219 2.5625 37.449219 2.554688 37.449219 2.550781 C 37.449219 2.550781 37.449219 2.550781 37.449219 2.554688 C 37.453125 2.578125 37.460938 2.609375 37.472656 2.640625 C 37.515625 2.773438 37.59375 2.894531 37.703125 3.003906 C 37.816406 3.117188 37.9375 3.195312 38.070312 3.238281 C 38.101562 3.25 38.132812 3.257812 38.15625 3.261719 C 38.160156 3.261719 38.160156 3.261719 38.160156 3.261719 C 38.15625 3.261719 38.148438 3.261719 38.140625 3.261719 L 1.222656 3.261719 C 1.214844 3.261719 1.207031 3.261719 1.203125 3.261719 C 1.203125 3.261719 1.203125 3.261719 1.207031 3.261719 C 1.234375 3.257812 1.261719 3.25 1.292969 3.238281 C 1.425781 3.195312 1.546875 3.117188 1.660156 3.003906 C 1.769531 2.894531 1.847656 2.773438 1.890625 2.640625 C 1.902344 2.609375 1.910156 2.578125 1.914062 2.554688 C 1.914062 2.550781 1.914062 2.550781 1.914062 2.550781 C 1.914062 2.554688 1.914062 2.5625 1.914062 2.570312 Z M 1.914062 8.203125 "/></g></g><g style="fill:#b21a22;fill-opacity:1;"><g transform="translate(155.590388, 254.227374)"><path style="stroke:none" d="M 29.460938 -41.875 L 29.460938 -35.75 C 29.460938 -34.898438 29.191406 -34.199219 28.65625 -33.664062 C 28.121094 -33.128906 27.421875 -32.859375 26.570312 -32.859375 L 11.386719 -32.859375 L 11.386719 -34.773438 L 13.300781 -34.773438 L 13.300781 -24.304688 L 11.386719 -24.304688 L 11.386719 -26.21875 L 22.894531 -26.21875 C 23.75 -26.21875 24.445312 -25.949219 24.984375 -25.410156 C 25.519531 -24.875 25.789062 -24.179688 25.789062 -23.324219 L 25.789062 -17.203125 C 25.789062 -16.347656 25.519531 -15.652344 24.984375 -15.113281 C 24.445312 -14.578125 23.75 -14.308594 22.894531 -14.308594 L 11.386719 -14.308594 L 11.386719 -16.222656 L 13.300781 -16.222656 L 13.300781 -0.980469 C 13.300781 -0.125 13.03125 0.570312 12.496094 1.109375 C 11.957031 1.644531 11.261719 1.914062 10.40625 1.914062 L 4.039062 1.914062 C 3.1875 1.914062 2.488281 1.644531 1.953125 1.109375 C 1.417969 0.570312 1.148438 -0.125 1.148438 -0.980469 L 1.148438 -41.875 C 1.148438 -42.726562 1.417969 -43.425781 1.953125 -43.960938 C 2.488281 -44.496094 3.1875 -44.765625 4.039062 -44.765625 L 26.570312 -44.765625 C 27.421875 -44.765625 28.121094 -44.496094 28.65625 -43.960938 C 29.191406 -43.425781 29.460938 -42.726562 29.460938 -41.875 Z M 25.636719 -41.875 C 25.636719 -41.828125 25.648438 -41.769531 25.671875 -41.695312 C 25.726562 -41.535156 25.820312 -41.386719 25.949219 -41.253906 C 26.082031 -41.125 26.230469 -41.03125 26.390625 -40.976562 C 26.464844 -40.953125 26.523438 -40.941406 26.570312 -40.941406 L 4.039062 -40.941406 C 4.085938 -40.941406 4.144531 -40.953125 4.21875 -40.976562 C 4.378906 -41.03125 4.527344 -41.125 4.660156 -41.253906 C 4.789062 -41.386719 4.882812 -41.535156 4.9375 -41.695312 C 4.960938 -41.769531 4.972656 -41.828125 4.972656 -41.875 L 4.972656 -0.980469 C 4.972656 -1.023438 4.960938 -1.082031 4.9375 -1.15625 C 4.882812 -1.320312 4.789062 -1.464844 4.660156 -1.597656 C 4.527344 -1.730469 4.378906 -1.820312 4.21875 -1.875 C 4.144531 -1.902344 4.085938 -1.914062 4.039062 -1.914062 L 10.40625 -1.914062 C 10.363281 -1.914062 10.304688 -1.902344 10.230469 -1.875 C 10.066406 -1.820312 9.921875 -1.730469 9.789062 -1.597656 C 9.65625 -1.464844 9.566406 -1.320312 9.511719 -1.15625 C 9.484375 -1.082031 9.472656 -1.023438 9.472656 -0.980469 L 9.472656 -18.136719 L 22.894531 -18.136719 C 22.851562 -18.136719 22.792969 -18.125 22.71875 -18.097656 C 22.554688 -18.042969 22.410156 -17.953125 22.277344 -17.820312 C 22.144531 -17.6875 22.054688 -17.542969 22 -17.378906 C 21.972656 -17.304688 21.960938 -17.246094 21.960938 -17.203125 L 21.960938 -23.324219 C 21.960938 -23.28125 21.972656 -23.222656 22 -23.148438 C 22.054688 -22.984375 22.144531 -22.835938 22.277344 -22.707031 C 22.410156 -22.574219 22.554688 -22.480469 22.71875 -22.425781 C 22.792969 -22.402344 22.851562 -22.390625 22.894531 -22.390625 L 9.472656 -22.390625 L 9.472656 -36.683594 L 26.570312 -36.683594 C 26.523438 -36.683594 26.464844 -36.671875 26.390625 -36.648438 C 26.230469 -36.59375 26.082031 -36.5 25.949219 -36.371094 C 25.820312 -36.238281 25.726562 -36.089844 25.671875 -35.929688 C 25.648438 -35.855469 25.636719 -35.796875 25.636719 -35.75 Z M 25.636719 -41.875 "/></g></g><g style="fill:#b21a22;fill-opacity:1;"><g transform="translate(186.18996, 254.227374)"><path style="stroke:none" d="M 4.039062 -1.914062 L 10.40625 -1.914062 C 10.363281 -1.914062 10.304688 -1.902344 10.230469 -1.875 C 10.066406 -1.820312 9.921875 -1.730469 9.789062 -1.597656 C 9.65625 -1.464844 9.566406 -1.320312 9.511719 -1.15625 C 9.484375 -1.082031 9.472656 -1.023438 9.472656 -0.980469 L 9.472656 -41.875 C 9.472656 -41.828125 9.484375 -41.769531 9.511719 -41.695312 C 9.566406 -41.535156 9.65625 -41.386719 9.789062 -41.253906 C 9.921875 -41.125 10.066406 -41.03125 10.230469 -40.976562 C 10.304688 -40.953125 10.363281 -40.941406 10.40625 -40.941406 L 4.039062 -40.941406 C 4.085938 -40.941406 4.144531 -40.953125 4.21875 -40.976562 C 4.378906 -41.03125 4.527344 -41.125 4.660156 -41.253906 C 4.789062 -41.386719 4.882812 -41.535156 4.9375 -41.695312 C 4.960938 -41.769531 4.972656 -41.828125 4.972656 -41.875 L 4.972656 -0.980469 C 4.972656 -1.023438 4.960938 -1.082031 4.9375 -1.15625 C 4.882812 -1.320312 4.789062 -1.464844 4.660156 -1.597656 C 4.527344 -1.730469 4.378906 -1.820312 4.21875 -1.875 C 4.144531 -1.902344 4.085938 -1.914062 4.039062 -1.914062 Z M 4.039062 1.914062 C 3.1875 1.914062 2.488281 1.644531 1.953125 1.109375 C 1.417969 0.570312 1.148438 -0.125 1.148438 -0.980469 L 1.148438 -41.875 C 1.148438 -42.726562 1.417969 -43.425781 1.953125 -43.960938 C 2.488281 -44.496094 3.1875 -44.765625 4.039062 -44.765625 L 10.40625 -44.765625 C 11.261719 -44.765625 11.957031 -44.496094 12.496094 -43.960938 C 13.03125 -43.425781 13.300781 -42.726562 13.300781 -41.875 L 13.300781 -0.980469 C 13.300781 -0.125 13.03125 0.570312 12.496094 1.109375 C 11.957031 1.644531 11.261719 1.914062 10.40625 1.914062 Z M 4.039062 1.914062 "/></g></g><g style="fill:#b21a22;fill-opacity:1;"><g transform="translate(200.632948, 254.227374)"><path style="stroke:none" d="M 9.472656 -8.082031 L 9.472656 -41.875 C 9.472656 -41.828125 9.484375 -41.769531 9.511719 -41.695312 C 9.566406 -41.535156 9.65625 -41.386719 9.789062 -41.253906 C 9.921875 -41.125 10.066406 -41.03125 10.230469 -40.976562 C 10.304688 -40.953125 10.363281 -40.941406 10.40625 -40.941406 L 4.039062 -40.941406 C 4.085938 -40.941406 4.144531 -40.953125 4.21875 -40.976562 C 4.378906 -41.03125 4.527344 -41.125 4.660156 -41.253906 C 4.789062 -41.386719 4.882812 -41.535156 4.9375 -41.695312 C 4.960938 -41.769531 4.972656 -41.828125 4.972656 -41.875 L 4.972656 -0.980469 C 4.972656 -1.023438 4.960938 -1.082031 4.9375 -1.15625 C 4.882812 -1.320312 4.789062 -1.464844 4.660156 -1.597656 C 4.527344 -1.730469 4.378906 -1.820312 4.21875 -1.875 C 4.144531 -1.902344 4.085938 -1.914062 4.039062 -1.914062 L 23.507812 -1.914062 C 23.464844 -1.914062 23.40625 -1.902344 23.332031 -1.875 C 23.167969 -1.820312 23.019531 -1.730469 22.890625 -1.597656 C 22.757812 -1.464844 22.664062 -1.320312 22.609375 -1.15625 C 22.585938 -1.082031 22.574219 -1.023438 22.574219 -0.980469 L 22.574219 -7.101562 C 22.574219 -7.058594 22.585938 -7 22.609375 -6.925781 C 22.664062 -6.761719 22.757812 -6.613281 22.890625 -6.484375 C 23.019531 -6.351562 23.167969 -6.257812 23.332031 -6.203125 C 23.40625 -6.179688 23.464844 -6.167969 23.507812 -6.167969 L 9.472656 -6.167969 Z M 13.300781 -8.082031 L 11.386719 -8.082031 L 11.386719 -9.992188 L 23.507812 -9.992188 C 24.363281 -9.992188 25.058594 -9.726562 25.59375 -9.1875 C 26.132812 -8.652344 26.402344 -7.957031 26.402344 -7.101562 L 26.402344 -0.980469 C 26.402344 -0.125 26.132812 0.570312 25.59375 1.109375 C 25.058594 1.644531 24.363281 1.914062 23.507812 1.914062 L 4.039062 1.914062 C 3.1875 1.914062 2.488281 1.644531 1.953125 1.109375 C 1.417969 0.570312 1.148438 -0.125 1.148438 -0.980469 L 1.148438 -41.875 C 1.148438 -42.726562 1.417969 -43.425781 1.953125 -43.960938 C 2.488281 -44.496094 3.1875 -44.765625 4.039062 -44.765625 L 10.40625 -44.765625 C 11.261719 -44.765625 11.957031 -44.496094 12.496094 -43.960938 C 13.03125 -43.425781 13.300781 -42.726562 13.300781 -41.875 Z M 13.300781 -8.082031 "/></g></g><g style="fill:#b21a22;fill-opacity:1;"><g transform="translate(228.172561, 254.227374)"><path style="stroke:none" d="M 29.398438 -41.875 L 29.398438 -35.75 C 29.398438 -34.898438 29.144531 -34.203125 28.636719 -33.660156 C 28.09375 -33.085938 27.386719 -32.796875 26.507812 -32.796875 L 11.386719 -32.796875 L 11.386719 -34.710938 L 13.300781 -34.710938 L 13.300781 -25.285156 L 11.386719 -25.285156 L 11.386719 -27.195312 L 22.894531 -27.195312 C 23.773438 -27.195312 24.484375 -26.910156 25.023438 -26.335938 C 25.535156 -25.792969 25.789062 -25.09375 25.789062 -24.242188 L 25.789062 -18.183594 C 25.789062 -17.328125 25.535156 -16.632812 25.023438 -16.089844 C 24.484375 -15.515625 23.773438 -15.226562 22.894531 -15.226562 L 11.386719 -15.226562 L 11.386719 -17.140625 L 13.300781 -17.140625 L 13.300781 -8.082031 L 11.386719 -8.082031 L 11.386719 -9.992188 L 26.507812 -9.992188 C 27.363281 -9.992188 28.058594 -9.726562 28.59375 -9.1875 C 29.132812 -8.652344 29.398438 -7.957031 29.398438 -7.101562 L 29.398438 -0.980469 C 29.398438 -0.125 29.132812 0.570312 28.59375 1.109375 C 28.058594 1.644531 27.363281 1.914062 26.507812 1.914062 L 3.980469 1.914062 C 3.121094 1.914062 2.425781 1.628906 1.894531 1.0625 C 1.398438 0.53125 1.148438 -0.148438 1.148438 -0.980469 L 1.148438 -41.875 C 1.148438 -42.703125 1.398438 -43.386719 1.894531 -43.917969 C 2.425781 -44.484375 3.121094 -44.765625 3.980469 -44.765625 L 26.507812 -44.765625 C 27.363281 -44.765625 28.058594 -44.496094 28.59375 -43.960938 C 29.132812 -43.425781 29.398438 -42.726562 29.398438 -41.875 Z M 25.574219 -41.875 C 25.574219 -41.828125 25.585938 -41.769531 25.609375 -41.695312 C 25.664062 -41.535156 25.757812 -41.386719 25.890625 -41.253906 C 26.019531 -41.125 26.167969 -41.03125 26.332031 -40.976562 C 26.40625 -40.953125 26.464844 -40.941406 26.507812 -40.941406 L 3.980469 -40.941406 C 4.226562 -40.941406 4.460938 -41.058594 4.6875 -41.300781 C 4.808594 -41.429688 4.894531 -41.574219 4.945312 -41.730469 C 4.964844 -41.792969 4.972656 -41.84375 4.972656 -41.875 L 4.972656 -0.980469 C 4.972656 -1.011719 4.964844 -1.058594 4.945312 -1.121094 C 4.894531 -1.277344 4.808594 -1.421875 4.6875 -1.554688 C 4.460938 -1.792969 4.226562 -1.914062 3.980469 -1.914062 L 26.507812 -1.914062 C 26.464844 -1.914062 26.40625 -1.902344 26.332031 -1.875 C 26.167969 -1.820312 26.019531 -1.730469 25.890625 -1.597656 C 25.757812 -1.464844 25.664062 -1.320312 25.609375 -1.15625 C 25.585938 -1.082031 25.574219 -1.023438 25.574219 -0.980469 L 25.574219 -7.101562 C 25.574219 -7.058594 25.585938 -7 25.609375 -6.925781 C 25.664062 -6.761719 25.757812 -6.613281 25.890625 -6.484375 C 26.019531 -6.351562 26.167969 -6.257812 26.332031 -6.203125 C 26.40625 -6.179688 26.464844 -6.167969 26.507812 -6.167969 L 9.472656 -6.167969 L 9.472656 -19.054688 L 22.894531 -19.054688 C 22.839844 -19.054688 22.769531 -19.039062 22.683594 -19.007812 C 22.515625 -18.949219 22.367188 -18.851562 22.238281 -18.710938 C 22.117188 -18.585938 22.035156 -18.449219 21.988281 -18.300781 C 21.972656 -18.242188 21.960938 -18.203125 21.960938 -18.183594 L 21.960938 -24.242188 C 21.960938 -24.21875 21.972656 -24.179688 21.988281 -24.125 C 22.035156 -23.976562 22.117188 -23.839844 22.238281 -23.710938 C 22.367188 -23.574219 22.515625 -23.472656 22.683594 -23.414062 C 22.769531 -23.386719 22.839844 -23.371094 22.894531 -23.371094 L 9.472656 -23.371094 L 9.472656 -36.625 L 26.507812 -36.625 C 26.453125 -36.625 26.382812 -36.609375 26.296875 -36.578125 C 26.128906 -36.519531 25.980469 -36.421875 25.847656 -36.28125 C 25.730469 -36.15625 25.648438 -36.019531 25.601562 -35.867188 C 25.582031 -35.8125 25.574219 -35.773438 25.574219 -35.75 Z M 25.574219 -41.875 "/></g></g><g style="fill:#060705;fill-opacity:1;"><g transform="translate(42.504601, 168.878395)"><path style="stroke:none" d="M 11.875 -42.859375 L 18.734375 -42.859375 C 21.628906 -42.859375 23.820312 -42.113281 25.3125 -40.625 C 26.800781 -39.132812 27.546875 -36.9375 27.546875 -34.03125 L 27.546875 -30 C 27.546875 -29.34375 27.21875 -29.015625 26.5625 -29.015625 L 20.390625 -29.015625 C 19.734375 -29.015625 19.40625 -29.34375 19.40625 -30 L 19.40625 -32.5625 C 19.40625 -34.195312 18.585938 -35.015625 16.953125 -35.015625 L 13.59375 -35.015625 C 11.957031 -35.015625 11.140625 -34.195312 11.140625 -32.5625 L 11.140625 -27.359375 L 25.953125 -22.59375 C 27.015625 -22.21875 27.546875 -21.460938 27.546875 -20.328125 L 27.546875 -8.8125 C 27.546875 -5.957031 26.800781 -3.773438 25.3125 -2.265625 C 23.820312 -0.753906 21.628906 0 18.734375 0 L 11.875 0 C 9.019531 0 6.835938 -0.753906 5.328125 -2.265625 C 3.816406 -3.773438 3.0625 -5.957031 3.0625 -8.8125 L 3.0625 -12.796875 C 3.0625 -13.453125 3.390625 -13.78125 4.046875 -13.78125 L 10.21875 -13.78125 C 10.875 -13.78125 11.203125 -13.453125 11.203125 -12.796875 L 11.203125 -10.21875 C 11.203125 -8.59375 12.019531 -7.78125 13.65625 -7.78125 L 16.953125 -7.78125 C 18.585938 -7.78125 19.40625 -8.59375 19.40625 -10.21875 L 19.40625 -16.40625 L 4.71875 -21.1875 C 3.613281 -21.550781 3.0625 -22.304688 3.0625 -23.453125 L 3.0625 -34.03125 C 3.0625 -36.9375 3.816406 -39.132812 5.328125 -40.625 C 6.835938 -42.113281 9.019531 -42.859375 11.875 -42.859375 Z M 11.875 -42.859375 "/></g></g><g style="fill:#060705;fill-opacity:1;"><g transform="translate(73.104173, 168.878395)"><path style="stroke:none" d="M 27.484375 -41.875 L 27.484375 -35.75 C 27.484375 -35.0625 27.15625 -34.71875 26.5 -34.71875 L 11.390625 -34.71875 L 11.390625 -25.28125 L 22.890625 -25.28125 C 23.546875 -25.28125 23.875 -24.9375 23.875 -24.25 L 23.875 -18.1875 C 23.875 -17.488281 23.546875 -17.140625 22.890625 -17.140625 L 11.390625 -17.140625 L 11.390625 -8.078125 L 26.5 -8.078125 C 27.15625 -8.078125 27.484375 -7.75 27.484375 -7.09375 L 27.484375 -0.984375 C 27.484375 -0.328125 27.15625 0 26.5 0 L 3.984375 0 C 3.367188 0 3.0625 -0.328125 3.0625 -0.984375 L 3.0625 -41.875 C 3.0625 -42.53125 3.367188 -42.859375 3.984375 -42.859375 L 26.5 -42.859375 C 27.15625 -42.859375 27.484375 -42.53125 27.484375 -41.875 Z M 27.484375 -41.875 "/></g></g><g style="fill:#060705;fill-opacity:1;"><g transform="translate(103.642536, 168.878395)"><path style="stroke:none" d="M 27.546875 -34.03125 L 27.546875 -8.8125 C 27.546875 -4.9375 26.21875 -2.328125 23.5625 -0.984375 L 26.015625 4.28125 C 26.179688 4.613281 26.160156 4.878906 25.953125 5.078125 C 25.753906 5.285156 25.488281 5.390625 25.15625 5.390625 L 18.796875 5.390625 C 18.503906 5.390625 18.285156 5.304688 18.140625 5.140625 C 18.003906 4.972656 17.875 4.769531 17.75 4.53125 L 15.671875 0 L 11.875 0 C 9.019531 0 6.835938 -0.753906 5.328125 -2.265625 C 3.816406 -3.773438 3.0625 -5.957031 3.0625 -8.8125 L 3.0625 -34.03125 C 3.0625 -36.9375 3.816406 -39.132812 5.328125 -40.625 C 6.835938 -42.113281 9.019531 -42.859375 11.875 -42.859375 L 18.734375 -42.859375 C 21.628906 -42.859375 23.820312 -42.113281 25.3125 -40.625 C 26.800781 -39.132812 27.546875 -36.9375 27.546875 -34.03125 Z M 11.015625 -32.5 L 11.015625 -10.34375 C 11.015625 -8.707031 11.832031 -7.890625 13.46875 -7.890625 L 17.390625 -7.890625 C 19.015625 -7.890625 19.828125 -8.707031 19.828125 -10.34375 L 19.828125 -32.5 C 19.828125 -34.132812 19.015625 -34.953125 17.390625 -34.953125 L 13.46875 -34.953125 C 11.832031 -34.953125 11.015625 -34.132812 11.015625 -32.5 Z M 11.015625 -32.5 "/></g></g><g style="fill:#060705;fill-opacity:1;"><g transform="translate(134.242108, 168.878395)"><path style="stroke:none" d="M 20.6875 -42.859375 L 26.328125 -42.859375 C 26.648438 -42.859375 26.929688 -42.734375 27.171875 -42.484375 C 27.421875 -42.242188 27.546875 -41.957031 27.546875 -41.625 L 27.546875 -8.8125 C 27.546875 -5.957031 26.800781 -3.773438 25.3125 -2.265625 C 23.820312 -0.753906 21.628906 0 18.734375 0 L 11.875 0 C 9.019531 0 6.835938 -0.753906 5.328125 -2.265625 C 3.816406 -3.773438 3.0625 -5.957031 3.0625 -8.8125 L 3.0625 -41.625 C 3.0625 -41.957031 3.179688 -42.242188 3.421875 -42.484375 C 3.671875 -42.734375 3.957031 -42.859375 4.28125 -42.859375 L 10.15625 -42.859375 C 10.488281 -42.859375 10.773438 -42.734375 11.015625 -42.484375 C 11.265625 -42.242188 11.390625 -41.957031 11.390625 -41.625 L 11.390625 -10.53125 C 11.390625 -8.894531 12.203125 -8.078125 13.828125 -8.078125 L 17.015625 -8.078125 C 18.648438 -8.078125 19.46875 -8.894531 19.46875 -10.53125 L 19.46875 -41.625 C 19.46875 -41.957031 19.585938 -42.242188 19.828125 -42.484375 C 20.078125 -42.734375 20.363281 -42.859375 20.6875 -42.859375 Z M 20.6875 -42.859375 "/></g></g><g style="fill:#060705;fill-opacity:1;"><g transform="translate(164.84168, 168.878395)"><path style="stroke:none" d="M 27.484375 -41.875 L 27.484375 -35.75 C 27.484375 -35.0625 27.15625 -34.71875 26.5 -34.71875 L 11.390625 -34.71875 L 11.390625 -25.28125 L 22.890625 -25.28125 C 23.546875 -25.28125 23.875 -24.9375 23.875 -24.25 L 23.875 -18.1875 C 23.875 -17.488281 23.546875 -17.140625 22.890625 -17.140625 L 11.390625 -17.140625 L 11.390625 -8.078125 L 26.5 -8.078125 C 27.15625 -8.078125 27.484375 -7.75 27.484375 -7.09375 L 27.484375 -0.984375 C 27.484375 -0.328125 27.15625 0 26.5 0 L 3.984375 0 C 3.367188 0 3.0625 -0.328125 3.0625 -0.984375 L 3.0625 -41.875 C 3.0625 -42.53125 3.367188 -42.859375 3.984375 -42.859375 L 26.5 -42.859375 C 27.15625 -42.859375 27.484375 -42.53125 27.484375 -41.875 Z M 27.484375 -41.875 "/></g></g><g style="fill:#060705;fill-opacity:1;"><g transform="translate(195.380043, 168.878395)"><path style="stroke:none" d="M 22.46875 -42.859375 L 28.21875 -42.859375 C 28.875 -42.859375 29.203125 -42.53125 29.203125 -41.875 L 29.203125 -0.984375 C 29.203125 -0.328125 28.875 0 28.21875 0 L 23.390625 0 C 22.898438 0 22.53125 -0.265625 22.28125 -0.796875 L 10.78125 -24.1875 L 10.78125 -0.984375 C 10.78125 -0.328125 10.453125 0 9.796875 0 L 4.046875 0 C 3.390625 0 3.0625 -0.328125 3.0625 -0.984375 L 3.0625 -41.875 C 3.0625 -42.53125 3.390625 -42.859375 4.046875 -42.859375 L 8.875 -42.859375 C 9.363281 -42.859375 9.734375 -42.59375 9.984375 -42.0625 L 21.484375 -18.671875 L 21.484375 -41.875 C 21.484375 -42.53125 21.8125 -42.859375 22.46875 -42.859375 Z M 22.46875 -42.859375 "/></g></g><g style="fill:#060705;fill-opacity:1;"><g transform="translate(227.632002, 168.878395)"><path style="stroke:none" d="M 25.34375 -42.859375 L 2.8125 -42.859375 C 2.164062 -42.859375 1.84375 -42.53125 1.84375 -41.875 L 1.84375 -35.75 C 1.84375 -35.09375 2.164062 -34.765625 2.8125 -34.765625 L 9.921875 -34.765625 L 9.921875 -0.984375 C 9.921875 -0.328125 10.242188 0 10.890625 0 L 17.265625 0 C 17.921875 0 18.25 -0.328125 18.25 -0.984375 L 18.25 -34.765625 L 25.34375 -34.765625 C 26 -34.765625 26.328125 -35.09375 26.328125 -35.75 L 26.328125 -41.875 C 26.328125 -42.53125 26 -42.859375 25.34375 -42.859375 Z M 25.34375 -42.859375 "/></g></g><g style="fill:#060705;fill-opacity:1;"><g transform="translate(255.783612, 168.878395)"><path style="stroke:none" d="M 4.046875 0 L 10.40625 0 C 11.0625 0 11.390625 -0.328125 11.390625 -0.984375 L 11.390625 -41.875 C 11.390625 -42.53125 11.0625 -42.859375 10.40625 -42.859375 L 4.046875 -42.859375 C 3.390625 -42.859375 3.0625 -42.53125 3.0625 -41.875 L 3.0625 -0.984375 C 3.0625 -0.328125 3.390625 0 4.046875 0 Z M 4.046875 0 "/></g></g><g style="fill:#060705;fill-opacity:1;"><g transform="translate(270.226601, 168.878395)"><path style="stroke:none" d="M 31.953125 0 L 26.015625 0 C 25.484375 0 25.15625 -0.285156 25.03125 -0.859375 L 23.078125 -8.578125 L 11.578125 -8.578125 L 9.671875 -0.859375 C 9.546875 -0.285156 9.21875 0 8.6875 0 L 2.6875 0 C 1.957031 0 1.691406 -0.347656 1.890625 -1.046875 L 12.0625 -42 C 12.1875 -42.570312 12.53125 -42.859375 13.09375 -42.859375 L 21.609375 -42.859375 C 22.179688 -42.859375 22.53125 -42.570312 22.65625 -42 L 32.8125 -1.046875 C 33.019531 -0.347656 32.734375 0 31.953125 0 Z M 21.1875 -15.671875 L 17.328125 -32.328125 L 13.46875 -15.671875 Z M 21.1875 -15.671875 "/></g></g><g style="fill:#060705;fill-opacity:1;"><g transform="translate(304.926523, 168.878395)"><path style="stroke:none" d="M 11.390625 -8.078125 L 11.390625 -41.875 C 11.390625 -42.53125 11.0625 -42.859375 10.40625 -42.859375 L 4.046875 -42.859375 C 3.390625 -42.859375 3.0625 -42.53125 3.0625 -41.875 L 3.0625 -0.984375 C 3.0625 -0.328125 3.390625 0 4.046875 0 L 23.515625 0 C 24.160156 0 24.484375 -0.328125 24.484375 -0.984375 L 24.484375 -7.09375 C 24.484375 -7.75 24.160156 -8.078125 23.515625 -8.078125 Z M 11.390625 -8.078125 "/></g></g><g style="fill:#060705;fill-opacity:1;"><g transform="translate(116.23933, 254.227374)"><path style="stroke:none" d="M 0 8.203125 L 0 2.578125 C 0 1.753906 0.40625 1.34375 1.21875 1.34375 L 38.140625 1.34375 C 38.953125 1.34375 39.359375 1.753906 39.359375 2.578125 L 39.359375 8.203125 C 39.359375 9.015625 38.953125 9.421875 38.140625 9.421875 L 1.21875 9.421875 C 0.40625 9.421875 0 9.015625 0 8.203125 Z M 0 8.203125 "/></g></g><g style="fill:#060705;fill-opacity:1;"><g transform="translate(155.590388, 254.227374)"><path style="stroke:none" d="M 27.546875 -41.875 L 27.546875 -35.75 C 27.546875 -35.09375 27.21875 -34.765625 26.5625 -34.765625 L 11.390625 -34.765625 L 11.390625 -24.296875 L 22.890625 -24.296875 C 23.546875 -24.296875 23.875 -23.972656 23.875 -23.328125 L 23.875 -17.203125 C 23.875 -16.546875 23.546875 -16.21875 22.890625 -16.21875 L 11.390625 -16.21875 L 11.390625 -0.984375 C 11.390625 -0.328125 11.0625 0 10.40625 0 L 4.046875 0 C 3.390625 0 3.0625 -0.328125 3.0625 -0.984375 L 3.0625 -41.875 C 3.0625 -42.53125 3.390625 -42.859375 4.046875 -42.859375 L 26.5625 -42.859375 C 27.21875 -42.859375 27.546875 -42.53125 27.546875 -41.875 Z M 27.546875 -41.875 "/></g></g><g style="fill:#060705;fill-opacity:1;"><g transform="translate(186.18996, 254.227374)"><path style="stroke:none" d="M 4.046875 0 L 10.40625 0 C 11.0625 0 11.390625 -0.328125 11.390625 -0.984375 L 11.390625 -41.875 C 11.390625 -42.53125 11.0625 -42.859375 10.40625 -42.859375 L 4.046875 -42.859375 C 3.390625 -42.859375 3.0625 -42.53125 3.0625 -41.875 L 3.0625 -0.984375 C 3.0625 -0.328125 3.390625 0 4.046875 0 Z M 4.046875 0 "/></g></g><g style="fill:#060705;fill-opacity:1;"><g transform="translate(200.632948, 254.227374)"><path style="stroke:none" d="M 11.390625 -8.078125 L 11.390625 -41.875 C 11.390625 -42.53125 11.0625 -42.859375 10.40625 -42.859375 L 4.046875 -42.859375 C 3.390625 -42.859375 3.0625 -42.53125 3.0625 -41.875 L 3.0625 -0.984375 C 3.0625 -0.328125 3.390625 0 4.046875 0 L 23.515625 0 C 24.160156 0 24.484375 -0.328125 24.484375 -0.984375 L 24.484375 -7.09375 C 24.484375 -7.75 24.160156 -8.078125 23.515625 -8.078125 Z M 11.390625 -8.078125 "/></g></g><g style="fill:#060705;fill-opacity:1;"><g transform="translate(228.172561, 254.227374)"><path style="stroke:none" d="M 27.484375 -41.875 L 27.484375 -35.75 C 27.484375 -35.0625 27.15625 -34.71875 26.5 -34.71875 L 11.390625 -34.71875 L 11.390625 -25.28125 L 22.890625 -25.28125 C 23.546875 -25.28125 23.875 -24.9375 23.875 -24.25 L 23.875 -18.1875 C 23.875 -17.488281 23.546875 -17.140625 22.890625 -17.140625 L 11.390625 -17.140625 L 11.390625 -8.078125 L 26.5 -8.078125 C 27.15625 -8.078125 27.484375 -7.75 27.484375 -7.09375 L 27.484375 -0.984375 C 27.484375 -0.328125 27.15625 0 26.5 0 L 3.984375 0 C 3.367188 0 3.0625 -0.328125 3.0625 -0.984375 L 3.0625 -41.875 C 3.0625 -42.53125 3.367188 -42.859375 3.984375 -42.859375 L 26.5 -42.859375 C 27.15625 -42.859375 27.484375 -42.53125 27.484375 -41.875 Z M 27.484375 -41.875 "/></g></g></g></svg>