<svg xmlns="http://www.w3.org/2000/svg" xmlns:xlink="http://www.w3.org/1999/xlink" width="500" zoomAndPan="magnify" viewBox="0 0 375 374.999991" height="500" preserveAspectRatio="xMidYMid meet" version="1.2"><defs><clipPath id="d6f6a95e61"><path d="M 25 0 L 350 0 L 350 375 L 25 375 Z M 25 0 "/></clipPath><clipPath id="817e0b7381"><path d="M -55.878906 142.882812 L 268.328125 -46.476562 L 431 232.042969 L 106.789062 421.402344 Z M -55.878906 142.882812 "/></clipPath><clipPath id="2c08ef4bce"><path d="M 349.546875 92.851562 L 349.859375 279.433594 L 187.8125 374.078125 L 25.453125 282.140625 L 25.140625 95.5625 L 187.1875 0.917969 Z M 349.546875 92.851562 "/></clipPath><clipPath id="dc6d4137b6"><path d="M 55.238281 35.632812 L 319.726562 35.632812 L 319.726562 339 L 55.238281 339 Z M 55.238281 35.632812 "/></clipPath></defs><g id="91012cd847"><g clip-rule="nonzero" clip-path="url(#d6f6a95e61)"><g clip-rule="nonzero" clip-path="url(#817e0b7381)"><g clip-rule="nonzero" clip-path="url(#2c08ef4bce)"><path style=" stroke:none;fill-rule:nonzero;fill:#65b30e;fill-opacity:1;" d="M -55.878906 142.882812 L 268.332031 -46.476562 L 431 232.042969 L 106.789062 421.402344 Z M -55.878906 142.882812 "/></g></g></g><path style=" stroke:none;fill-rule:nonzero;fill:#87ff00;fill-opacity:1;" d="M 134.582031 135.703125 L 134.414062 135.535156 L 97.035156 172.914062 L 187.792969 263.503906 L 225.175781 226.296875 L 278.546875 172.914062 L 241.167969 135.535156 L 241.167969 135.363281 L 134.417969 135.363281 Z M 134.582031 135.703125 "/><g clip-rule="nonzero" clip-path="url(#dc6d4137b6)"><path style=" stroke:none;fill-rule:nonzero;fill:#87ff00;fill-opacity:1;" d="M 187.453125 35.851562 L 55.269531 111.625 L 55.273438 263.175781 L 187.457031 338.949219 L 319.640625 263.175781 L 319.640625 111.625 L 187.457031 35.855469 Z M 294.375 248.683594 L 187.453125 310.308594 L 80.527344 248.683594 L 80.53125 125.765625 L 187.457031 64.136719 L 294.378906 125.765625 L 294.378906 248.683594 Z M 294.375 248.683594 "/></g><g style="fill:#b21a22;fill-opacity:1;"><g transform="translate(99.105507, 123.95652)"><path style="stroke:none" d="M 33.128906 1.984375 L 26.972656 1.984375 C 26.199219 1.984375 25.542969 1.746094 25 1.269531 C 24.5 0.832031 24.171875 0.253906 24.015625 -0.472656 L 25.957031 -0.886719 L 24.035156 -0.398438 L 22.003906 -8.398438 L 23.925781 -8.886719 L 23.925781 -6.902344 L 11.996094 -6.902344 L 11.996094 -8.886719 L 13.921875 -8.410156 L 11.953125 -0.414062 L 10.027344 -0.886719 L 11.964844 -0.472656 C 11.8125 0.253906 11.484375 0.832031 10.984375 1.269531 C 10.441406 1.746094 9.785156 1.984375 9.011719 1.984375 L 2.792969 1.984375 C 1.757812 1.984375 0.972656 1.632812 0.441406 0.933594 C -0.105469 0.222656 -0.230469 -0.636719 0.0664062 -1.636719 L 1.96875 -1.078125 L 0.0429688 -1.554688 L 10.578125 -44.011719 L 12.503906 -43.535156 L 10.5625 -43.953125 C 10.722656 -44.699219 11.070312 -45.292969 11.605469 -45.734375 C 12.152344 -46.183594 12.8125 -46.40625 13.582031 -46.40625 L 22.402344 -46.40625 C 23.171875 -46.40625 23.832031 -46.183594 24.378906 -45.734375 C 24.914062 -45.292969 25.261719 -44.699219 25.421875 -43.953125 L 23.480469 -43.535156 L 25.40625 -44.011719 L 35.941406 -1.554688 L 34.015625 -1.078125 L 35.917969 -1.636719 C 36.222656 -0.605469 36.078125 0.269531 35.484375 0.992188 C 34.9375 1.652344 34.152344 1.984375 33.128906 1.984375 Z M 33.128906 -1.984375 C 33.136719 -1.984375 33.144531 -1.984375 33.152344 -1.984375 C 33.152344 -1.984375 33.148438 -1.984375 33.144531 -1.984375 C 33.109375 -1.976562 33.066406 -1.96875 33.019531 -1.953125 C 32.792969 -1.878906 32.59375 -1.738281 32.421875 -1.53125 C 32.230469 -1.296875 32.125 -1.042969 32.101562 -0.761719 C 32.09375 -0.652344 32.097656 -0.574219 32.113281 -0.519531 L 32.101562 -0.558594 L 21.546875 -43.089844 L 21.542969 -43.121094 C 21.574219 -42.964844 21.679688 -42.816406 21.855469 -42.671875 C 22.042969 -42.515625 22.222656 -42.441406 22.402344 -42.441406 L 13.582031 -42.441406 C 13.757812 -42.441406 13.941406 -42.515625 14.128906 -42.671875 C 14.304688 -42.816406 14.410156 -42.964844 14.441406 -43.121094 L 14.433594 -43.089844 L 3.882812 -0.558594 L 3.871094 -0.519531 C 3.882812 -0.558594 3.886719 -0.628906 3.878906 -0.722656 C 3.863281 -0.992188 3.765625 -1.242188 3.589844 -1.472656 C 3.417969 -1.699219 3.207031 -1.855469 2.960938 -1.941406 C 2.882812 -1.96875 2.824219 -1.984375 2.792969 -1.984375 L 9.011719 -1.984375 C 8.789062 -1.984375 8.578125 -1.894531 8.371094 -1.714844 C 8.210938 -1.574219 8.117188 -1.4375 8.085938 -1.304688 L 8.09375 -1.332031 L 10.441406 -10.867188 L 25.46875 -10.867188 L 27.886719 -1.339844 L 27.894531 -1.304688 C 27.867188 -1.4375 27.773438 -1.574219 27.613281 -1.714844 C 27.40625 -1.894531 27.195312 -1.984375 26.972656 -1.984375 Z M 20.027344 -15.800781 L 16.027344 -33.0625 L 17.960938 -33.507812 L 19.890625 -33.0625 L 15.894531 -15.800781 L 13.960938 -16.246094 L 13.960938 -18.230469 L 21.957031 -18.230469 L 21.957031 -16.246094 Z M 24.453125 -14.261719 L 11.464844 -14.261719 L 16.027344 -33.957031 L 19.890625 -33.957031 L 23.890625 -16.695312 Z M 24.453125 -14.261719 "/></g></g><g style="fill:#b21a22;fill-opacity:1;"><g transform="translate(135.077678, 123.95652)"><path style="stroke:none" d="M 30.605469 -35.285156 L 30.605469 -28.429688 C 30.605469 -27.546875 30.328125 -26.824219 29.769531 -26.265625 C 29.214844 -25.710938 28.492188 -25.433594 27.605469 -25.433594 L 21.640625 -25.433594 C 20.753906 -25.433594 20.035156 -25.710938 19.476562 -26.265625 C 18.921875 -26.824219 18.640625 -27.546875 18.640625 -28.429688 L 18.640625 -33.636719 C 18.640625 -33.84375 18.625 -34.003906 18.585938 -34.117188 C 18.578125 -34.140625 18.574219 -34.152344 18.566406 -34.160156 C 18.570312 -34.15625 18.578125 -34.144531 18.589844 -34.136719 C 18.597656 -34.128906 18.605469 -34.121094 18.613281 -34.117188 C 18.605469 -34.121094 18.589844 -34.125 18.570312 -34.132812 C 18.457031 -34.171875 18.296875 -34.191406 18.085938 -34.191406 L 14.023438 -34.191406 C 13.816406 -34.191406 13.65625 -34.171875 13.542969 -34.132812 C 13.519531 -34.125 13.507812 -34.121094 13.5 -34.117188 C 13.507812 -34.121094 13.515625 -34.128906 13.523438 -34.136719 C 13.535156 -34.144531 13.539062 -34.15625 13.542969 -34.160156 C 13.539062 -34.152344 13.535156 -34.140625 13.527344 -34.117188 C 13.488281 -34.003906 13.46875 -33.84375 13.46875 -33.636719 L 13.46875 -10.597656 C 13.46875 -10.390625 13.488281 -10.230469 13.527344 -10.113281 C 13.535156 -10.09375 13.539062 -10.078125 13.542969 -10.070312 C 13.539062 -10.078125 13.535156 -10.085938 13.523438 -10.097656 C 13.515625 -10.105469 13.507812 -10.113281 13.5 -10.117188 C 13.507812 -10.113281 13.519531 -10.105469 13.542969 -10.101562 C 13.65625 -10.0625 13.816406 -10.042969 14.023438 -10.042969 L 18.085938 -10.042969 C 18.296875 -10.042969 18.457031 -10.0625 18.570312 -10.101562 C 18.589844 -10.105469 18.605469 -10.113281 18.613281 -10.117188 C 18.605469 -10.113281 18.597656 -10.105469 18.589844 -10.097656 C 18.578125 -10.085938 18.570312 -10.078125 18.566406 -10.070312 C 18.574219 -10.078125 18.578125 -10.09375 18.585938 -10.113281 C 18.625 -10.230469 18.640625 -10.390625 18.640625 -10.597656 L 18.640625 -15.992188 C 18.640625 -16.878906 18.921875 -17.601562 19.476562 -18.15625 C 20.035156 -18.714844 20.753906 -18.992188 21.640625 -18.992188 L 27.605469 -18.992188 C 28.492188 -18.992188 29.214844 -18.714844 29.769531 -18.15625 C 30.328125 -17.601562 30.605469 -16.878906 30.605469 -15.992188 L 30.605469 -9.140625 C 30.605469 -5.628906 29.628906 -2.898438 27.675781 -0.945312 C 25.722656 1.007812 22.992188 1.984375 19.484375 1.984375 L 12.375 1.984375 C 8.871094 1.984375 6.132812 1.011719 4.160156 -0.9375 C 2.179688 -2.890625 1.191406 -5.625 1.191406 -9.140625 L 1.191406 -35.285156 C 1.191406 -38.847656 2.183594 -41.59375 4.167969 -43.527344 C 6.140625 -45.449219 8.875 -46.40625 12.375 -46.40625 L 19.484375 -46.40625 C 22.988281 -46.40625 25.714844 -45.445312 27.667969 -43.519531 C 29.625 -41.585938 30.605469 -38.84375 30.605469 -35.285156 Z M 26.636719 -35.285156 C 26.636719 -37.738281 26.050781 -39.539062 24.878906 -40.695312 C 23.703125 -41.859375 21.902344 -42.441406 19.484375 -42.441406 L 12.375 -42.441406 C 9.949219 -42.441406 8.136719 -41.855469 6.9375 -40.6875 C 5.75 -39.53125 5.15625 -37.730469 5.15625 -35.285156 L 5.15625 -9.140625 C 5.15625 -6.730469 5.753906 -4.9375 6.945312 -3.761719 C 8.144531 -2.574219 9.957031 -1.984375 12.375 -1.984375 L 19.484375 -1.984375 C 21.898438 -1.984375 23.691406 -2.574219 24.871094 -3.75 C 26.050781 -4.929688 26.636719 -6.726562 26.636719 -9.140625 L 26.636719 -15.992188 C 26.636719 -15.949219 26.652344 -15.886719 26.675781 -15.808594 C 26.734375 -15.640625 26.828125 -15.488281 26.964844 -15.351562 C 27.101562 -15.214844 27.253906 -15.121094 27.421875 -15.0625 C 27.5 -15.039062 27.5625 -15.023438 27.605469 -15.023438 L 21.640625 -15.023438 C 21.6875 -15.023438 21.746094 -15.039062 21.824219 -15.0625 C 21.992188 -15.121094 22.144531 -15.214844 22.28125 -15.351562 C 22.417969 -15.488281 22.515625 -15.640625 22.570312 -15.808594 C 22.597656 -15.886719 22.609375 -15.949219 22.609375 -15.992188 L 22.609375 -10.597656 C 22.609375 -9.203125 22.203125 -8.101562 21.394531 -7.292969 C 20.582031 -6.480469 19.480469 -6.078125 18.085938 -6.078125 L 14.023438 -6.078125 C 12.632812 -6.078125 11.53125 -6.480469 10.71875 -7.292969 C 9.910156 -8.101562 9.503906 -9.203125 9.503906 -10.597656 L 9.503906 -33.636719 C 9.503906 -35.027344 9.910156 -36.132812 10.71875 -36.941406 C 11.53125 -37.753906 12.632812 -38.15625 14.023438 -38.15625 L 18.085938 -38.15625 C 19.480469 -38.15625 20.582031 -37.753906 21.394531 -36.941406 C 22.203125 -36.132812 22.609375 -35.027344 22.609375 -33.636719 L 22.609375 -28.429688 C 22.609375 -28.476562 22.597656 -28.539062 22.570312 -28.613281 C 22.515625 -28.785156 22.417969 -28.9375 22.28125 -29.074219 C 22.144531 -29.207031 21.992188 -29.304688 21.824219 -29.359375 C 21.746094 -29.386719 21.6875 -29.398438 21.640625 -29.398438 L 27.605469 -29.398438 C 27.5625 -29.398438 27.5 -29.386719 27.421875 -29.359375 C 27.253906 -29.304688 27.101562 -29.207031 26.964844 -29.074219 C 26.828125 -28.9375 26.734375 -28.785156 26.675781 -28.613281 C 26.652344 -28.539062 26.636719 -28.476562 26.636719 -28.429688 Z M 26.636719 -35.285156 "/></g></g><g style="fill:#b21a22;fill-opacity:1;"><g transform="translate(166.862616, 123.95652)"><path style="stroke:none" d="M 26.273438 -42.441406 L 2.917969 -42.441406 C 2.964844 -42.441406 3.027344 -42.453125 3.101562 -42.480469 C 3.269531 -42.535156 3.425781 -42.632812 3.558594 -42.769531 C 3.695312 -42.902344 3.792969 -43.054688 3.847656 -43.226562 C 3.875 -43.300781 3.886719 -43.363281 3.886719 -43.410156 L 3.886719 -37.0625 C 3.886719 -37.109375 3.875 -37.167969 3.847656 -37.246094 C 3.792969 -37.414062 3.695312 -37.566406 3.558594 -37.703125 C 3.425781 -37.839844 3.269531 -37.9375 3.101562 -37.992188 C 3.027344 -38.019531 2.964844 -38.03125 2.917969 -38.03125 L 12.265625 -38.03125 L 12.265625 -1.015625 C 12.265625 -1.0625 12.25 -1.121094 12.226562 -1.199219 C 12.167969 -1.367188 12.074219 -1.519531 11.9375 -1.65625 C 11.800781 -1.792969 11.648438 -1.886719 11.480469 -1.945312 C 11.402344 -1.96875 11.339844 -1.984375 11.296875 -1.984375 L 17.898438 -1.984375 C 17.851562 -1.984375 17.789062 -1.96875 17.714844 -1.945312 C 17.542969 -1.886719 17.390625 -1.792969 17.253906 -1.65625 C 17.121094 -1.519531 17.023438 -1.367188 16.96875 -1.199219 C 16.941406 -1.121094 16.929688 -1.0625 16.929688 -1.015625 L 16.929688 -38.03125 L 26.273438 -38.03125 C 26.226562 -38.03125 26.167969 -38.019531 26.089844 -37.992188 C 25.921875 -37.9375 25.769531 -37.839844 25.632812 -37.703125 C 25.496094 -37.566406 25.402344 -37.414062 25.34375 -37.246094 C 25.320312 -37.167969 25.304688 -37.109375 25.304688 -37.0625 L 25.304688 -43.410156 C 25.304688 -43.363281 25.320312 -43.300781 25.34375 -43.226562 C 25.402344 -43.054688 25.496094 -42.902344 25.632812 -42.769531 C 25.769531 -42.632812 25.921875 -42.535156 26.089844 -42.480469 C 26.167969 -42.453125 26.226562 -42.441406 26.273438 -42.441406 Z M 26.273438 -46.40625 C 27.160156 -46.40625 27.882812 -46.128906 28.4375 -45.574219 C 28.996094 -45.015625 29.273438 -44.292969 29.273438 -43.410156 L 29.273438 -37.0625 C 29.273438 -36.175781 28.996094 -35.453125 28.4375 -34.898438 C 27.882812 -34.34375 27.160156 -34.0625 26.273438 -34.0625 L 18.910156 -34.0625 L 18.910156 -36.046875 L 20.894531 -36.046875 L 20.894531 -1.015625 C 20.894531 -0.128906 20.617188 0.59375 20.0625 1.148438 C 19.503906 1.707031 18.78125 1.984375 17.898438 1.984375 L 11.296875 1.984375 C 10.410156 1.984375 9.6875 1.707031 9.132812 1.148438 C 8.574219 0.59375 8.296875 -0.128906 8.296875 -1.015625 L 8.296875 -36.046875 L 10.28125 -36.046875 L 10.28125 -34.0625 L 2.917969 -34.0625 C 2.03125 -34.0625 1.3125 -34.34375 0.753906 -34.898438 C 0.199219 -35.453125 -0.078125 -36.175781 -0.078125 -37.0625 L -0.078125 -43.410156 C -0.078125 -44.292969 0.199219 -45.015625 0.753906 -45.574219 C 1.3125 -46.128906 2.03125 -46.40625 2.917969 -46.40625 Z M 26.273438 -46.40625 "/></g></g><g style="fill:#b21a22;fill-opacity:1;"><g transform="translate(196.046385, 123.95652)"><path style="stroke:none" d="M 4.1875 -1.984375 L 10.789062 -1.984375 C 10.742188 -1.984375 10.683594 -1.96875 10.605469 -1.945312 C 10.4375 -1.886719 10.285156 -1.792969 10.148438 -1.65625 C 10.011719 -1.519531 9.914062 -1.367188 9.859375 -1.199219 C 9.832031 -1.121094 9.820312 -1.0625 9.820312 -1.015625 L 9.820312 -43.410156 C 9.820312 -43.363281 9.832031 -43.300781 9.859375 -43.226562 C 9.914062 -43.054688 10.011719 -42.902344 10.148438 -42.769531 C 10.285156 -42.632812 10.4375 -42.535156 10.605469 -42.480469 C 10.683594 -42.453125 10.742188 -42.441406 10.789062 -42.441406 L 4.1875 -42.441406 C 4.234375 -42.441406 4.292969 -42.453125 4.371094 -42.480469 C 4.539062 -42.535156 4.691406 -42.632812 4.828125 -42.769531 C 4.964844 -42.902344 5.0625 -43.054688 5.117188 -43.226562 C 5.144531 -43.300781 5.15625 -43.363281 5.15625 -43.410156 L 5.15625 -1.015625 C 5.15625 -1.0625 5.144531 -1.121094 5.117188 -1.199219 C 5.0625 -1.367188 4.964844 -1.519531 4.828125 -1.65625 C 4.691406 -1.792969 4.539062 -1.886719 4.371094 -1.945312 C 4.292969 -1.96875 4.234375 -1.984375 4.1875 -1.984375 Z M 4.1875 1.984375 C 3.300781 1.984375 2.582031 1.707031 2.023438 1.148438 C 1.46875 0.59375 1.191406 -0.128906 1.191406 -1.015625 L 1.191406 -43.410156 C 1.191406 -44.292969 1.46875 -45.015625 2.023438 -45.574219 C 2.582031 -46.128906 3.300781 -46.40625 4.1875 -46.40625 L 10.789062 -46.40625 C 11.675781 -46.40625 12.394531 -46.128906 12.953125 -45.574219 C 13.507812 -45.015625 13.789062 -44.292969 13.789062 -43.410156 L 13.789062 -1.015625 C 13.789062 -0.128906 13.507812 0.59375 12.953125 1.148438 C 12.394531 1.707031 11.675781 1.984375 10.789062 1.984375 Z M 4.1875 1.984375 "/></g></g><g style="fill:#b21a22;fill-opacity:1;"><g transform="translate(211.018916, 123.95652)"><path style="stroke:none" d="M 24.304688 -46.40625 L 30.082031 -46.40625 C 31.195312 -46.40625 32.042969 -46.046875 32.632812 -45.332031 C 33.230469 -44.597656 33.40625 -43.683594 33.15625 -42.589844 L 23.0625 -0.679688 C 22.882812 0.125 22.5 0.769531 21.914062 1.25 C 21.316406 1.738281 20.589844 1.984375 19.738281 1.984375 L 13.390625 1.984375 C 12.558594 1.984375 11.84375 1.738281 11.246094 1.25 C 10.6875 0.792969 10.300781 0.171875 10.082031 -0.613281 L 10.074219 -0.644531 L 0.0390625 -42.566406 C -0.214844 -43.675781 -0.0390625 -44.597656 0.558594 -45.332031 C 1.144531 -46.046875 1.996094 -46.40625 3.109375 -46.40625 L 8.886719 -46.40625 C 9.738281 -46.40625 10.464844 -46.164062 11.0625 -45.671875 C 11.648438 -45.195312 12.035156 -44.539062 12.21875 -43.710938 L 18.5 -15.019531 L 16.5625 -14.597656 L 14.628906 -15.023438 L 20.984375 -43.761719 L 21 -43.8125 C 21.21875 -44.597656 21.605469 -45.21875 22.160156 -45.671875 C 22.761719 -46.164062 23.476562 -46.40625 24.304688 -46.40625 Z M 24.304688 -42.441406 C 24.417969 -42.441406 24.542969 -42.496094 24.671875 -42.601562 C 24.738281 -42.65625 24.789062 -42.710938 24.824219 -42.769531 C 24.828125 -42.78125 24.832031 -42.789062 24.835938 -42.792969 C 24.832031 -42.785156 24.828125 -42.769531 24.820312 -42.75 L 22.910156 -43.28125 L 24.847656 -42.851562 L 18.5 -14.167969 L 14.625 -14.171875 L 8.34375 -42.851562 C 8.34375 -42.863281 8.339844 -42.867188 8.339844 -42.871094 C 8.347656 -42.855469 8.355469 -42.839844 8.363281 -42.816406 C 8.410156 -42.738281 8.46875 -42.667969 8.550781 -42.601562 C 8.683594 -42.496094 8.792969 -42.441406 8.886719 -42.441406 L 3.109375 -42.441406 C 3.082031 -42.441406 3.0625 -42.441406 3.050781 -42.4375 C 3.070312 -42.441406 3.101562 -42.449219 3.136719 -42.460938 C 3.320312 -42.523438 3.488281 -42.644531 3.628906 -42.820312 C 3.777344 -43 3.863281 -43.195312 3.890625 -43.398438 C 3.894531 -43.445312 3.894531 -43.480469 3.894531 -43.507812 C 3.894531 -43.503906 3.894531 -43.496094 3.894531 -43.488281 L 13.921875 -1.605469 L 11.996094 -1.140625 L 13.90625 -1.671875 C 13.910156 -1.65625 13.914062 -1.640625 13.917969 -1.632812 C 13.917969 -1.636719 13.914062 -1.644531 13.90625 -1.652344 C 13.871094 -1.710938 13.824219 -1.769531 13.757812 -1.820312 C 13.625 -1.929688 13.503906 -1.984375 13.390625 -1.984375 L 19.738281 -1.984375 C 19.644531 -1.984375 19.535156 -1.929688 19.402344 -1.820312 C 19.320312 -1.753906 19.261719 -1.683594 19.21875 -1.605469 C 19.207031 -1.585938 19.199219 -1.570312 19.191406 -1.554688 C 19.191406 -1.554688 19.199219 -1.574219 19.203125 -1.605469 L 29.289062 -43.46875 C 29.292969 -43.488281 29.296875 -43.503906 29.296875 -43.507812 C 29.296875 -43.480469 29.296875 -43.445312 29.300781 -43.398438 C 29.328125 -43.195312 29.414062 -43 29.5625 -42.820312 C 29.703125 -42.644531 29.871094 -42.523438 30.054688 -42.460938 C 30.089844 -42.449219 30.121094 -42.441406 30.140625 -42.4375 C 30.128906 -42.441406 30.109375 -42.441406 30.082031 -42.441406 Z M 24.304688 -42.441406 "/></g></g><g style="fill:#b21a22;fill-opacity:1;"><g transform="translate(244.199582, 123.95652)"><path style="stroke:none" d="M 30.476562 -43.410156 L 30.476562 -37.0625 C 30.476562 -36.179688 30.214844 -35.457031 29.683594 -34.894531 C 29.125 -34.296875 28.390625 -34 27.480469 -34 L 11.804688 -34 L 11.804688 -35.984375 L 13.789062 -35.984375 L 13.789062 -26.210938 L 11.804688 -26.210938 L 11.804688 -28.195312 L 23.734375 -28.195312 C 24.644531 -28.195312 25.378906 -27.894531 25.941406 -27.300781 C 26.46875 -26.738281 26.734375 -26.015625 26.734375 -25.132812 L 26.734375 -18.847656 C 26.734375 -17.964844 26.46875 -17.242188 25.941406 -16.679688 C 25.378906 -16.085938 24.644531 -15.785156 23.734375 -15.785156 L 11.804688 -15.785156 L 11.804688 -17.769531 L 13.789062 -17.769531 L 13.789062 -8.378906 L 11.804688 -8.378906 L 11.804688 -10.359375 L 27.480469 -10.359375 C 28.367188 -10.359375 29.085938 -10.082031 29.644531 -9.527344 C 30.199219 -8.96875 30.476562 -8.246094 30.476562 -7.363281 L 30.476562 -1.015625 C 30.476562 -0.128906 30.199219 0.59375 29.644531 1.148438 C 29.085938 1.707031 28.367188 1.984375 27.480469 1.984375 L 4.125 1.984375 C 3.234375 1.984375 2.515625 1.691406 1.964844 1.101562 C 1.449219 0.550781 1.191406 -0.152344 1.191406 -1.015625 L 1.191406 -43.410156 C 1.191406 -44.269531 1.449219 -44.976562 1.964844 -45.527344 C 2.515625 -46.113281 3.234375 -46.40625 4.125 -46.40625 L 27.480469 -46.40625 C 28.367188 -46.40625 29.085938 -46.128906 29.644531 -45.574219 C 30.199219 -45.015625 30.476562 -44.292969 30.476562 -43.410156 Z M 26.511719 -43.410156 C 26.511719 -43.363281 26.523438 -43.300781 26.550781 -43.226562 C 26.605469 -43.054688 26.703125 -42.902344 26.839844 -42.769531 C 26.976562 -42.632812 27.128906 -42.535156 27.296875 -42.480469 C 27.375 -42.453125 27.433594 -42.441406 27.480469 -42.441406 L 4.125 -42.441406 C 4.378906 -42.441406 4.625 -42.566406 4.859375 -42.8125 C 4.984375 -42.949219 5.074219 -43.097656 5.125 -43.261719 C 5.144531 -43.328125 5.15625 -43.375 5.15625 -43.410156 L 5.15625 -1.015625 C 5.15625 -1.046875 5.144531 -1.097656 5.125 -1.164062 C 5.074219 -1.324219 4.984375 -1.472656 4.859375 -1.609375 C 4.625 -1.859375 4.378906 -1.984375 4.125 -1.984375 L 27.480469 -1.984375 C 27.433594 -1.984375 27.375 -1.96875 27.296875 -1.945312 C 27.128906 -1.886719 26.976562 -1.792969 26.839844 -1.65625 C 26.703125 -1.519531 26.605469 -1.367188 26.550781 -1.199219 C 26.523438 -1.121094 26.511719 -1.0625 26.511719 -1.015625 L 26.511719 -7.363281 C 26.511719 -7.316406 26.523438 -7.253906 26.550781 -7.179688 C 26.605469 -7.007812 26.703125 -6.855469 26.839844 -6.722656 C 26.976562 -6.585938 27.128906 -6.488281 27.296875 -6.433594 C 27.375 -6.40625 27.433594 -6.394531 27.480469 -6.394531 L 9.820312 -6.394531 L 9.820312 -19.753906 L 23.734375 -19.753906 C 23.675781 -19.753906 23.605469 -19.738281 23.515625 -19.707031 C 23.34375 -19.644531 23.1875 -19.542969 23.050781 -19.398438 C 22.929688 -19.269531 22.84375 -19.125 22.792969 -18.96875 C 22.777344 -18.910156 22.765625 -18.871094 22.765625 -18.847656 L 22.765625 -25.132812 C 22.765625 -25.109375 22.777344 -25.066406 22.792969 -25.007812 C 22.84375 -24.855469 22.929688 -24.710938 23.050781 -24.582031 C 23.1875 -24.4375 23.34375 -24.335938 23.515625 -24.273438 C 23.605469 -24.242188 23.675781 -24.226562 23.734375 -24.226562 L 9.820312 -24.226562 L 9.820312 -37.96875 L 27.480469 -37.96875 C 27.421875 -37.96875 27.347656 -37.953125 27.261719 -37.921875 C 27.085938 -37.859375 26.933594 -37.757812 26.796875 -37.613281 C 26.671875 -37.480469 26.585938 -37.339844 26.539062 -37.183594 C 26.519531 -37.125 26.511719 -37.085938 26.511719 -37.0625 Z M 26.511719 -43.410156 "/></g></g><g style="fill:#b21a22;fill-opacity:1;"><g transform="translate(68.263802, 212.434761)"><path style="stroke:none" d="M 12.3125 -46.40625 L 19.417969 -46.40625 C 22.972656 -46.40625 25.710938 -45.441406 27.644531 -43.511719 C 29.574219 -41.578125 30.542969 -38.835938 30.542969 -35.285156 L 30.542969 -31.097656 C 30.542969 -30.210938 30.261719 -29.488281 29.707031 -28.933594 C 29.152344 -28.375 28.429688 -28.097656 27.542969 -28.097656 L 21.132812 -28.097656 C 20.246094 -28.097656 19.527344 -28.375 18.96875 -28.933594 C 18.414062 -29.488281 18.132812 -30.210938 18.132812 -31.097656 L 18.132812 -33.761719 C 18.132812 -33.972656 18.117188 -34.132812 18.078125 -34.246094 C 18.070312 -34.265625 18.066406 -34.28125 18.058594 -34.289062 C 18.066406 -34.28125 18.070312 -34.273438 18.082031 -34.265625 C 18.089844 -34.253906 18.097656 -34.246094 18.105469 -34.242188 C 18.097656 -34.246094 18.082031 -34.253906 18.0625 -34.261719 C 17.949219 -34.296875 17.789062 -34.316406 17.578125 -34.316406 L 14.089844 -34.316406 C 13.878906 -34.316406 13.71875 -34.296875 13.605469 -34.261719 C 13.585938 -34.253906 13.570312 -34.246094 13.5625 -34.242188 C 13.570312 -34.246094 13.578125 -34.253906 13.585938 -34.265625 C 13.597656 -34.273438 13.605469 -34.28125 13.609375 -34.289062 C 13.601562 -34.28125 13.597656 -34.265625 13.589844 -34.246094 C 13.550781 -34.132812 13.535156 -33.972656 13.535156 -33.761719 L 13.535156 -28.367188 L 11.550781 -28.367188 L 12.160156 -30.253906 L 27.515625 -25.304688 C 28.496094 -24.964844 29.246094 -24.425781 29.769531 -23.6875 C 30.285156 -22.953125 30.542969 -22.082031 30.542969 -21.070312 L 30.542969 -9.140625 C 30.542969 -5.632812 29.578125 -2.90625 27.652344 -0.957031 C 25.722656 1.003906 22.976562 1.984375 19.417969 1.984375 L 12.3125 1.984375 C 8.800781 1.984375 6.070312 1.007812 4.117188 -0.945312 C 2.167969 -2.898438 1.191406 -5.628906 1.191406 -9.140625 L 1.191406 -13.265625 C 1.191406 -14.148438 1.46875 -14.871094 2.023438 -15.429688 C 2.582031 -15.984375 3.300781 -16.261719 4.1875 -16.261719 L 10.597656 -16.261719 C 11.484375 -16.261719 12.207031 -15.984375 12.761719 -15.429688 C 13.320312 -14.871094 13.597656 -14.148438 13.597656 -13.265625 L 13.597656 -10.597656 C 13.597656 -10.390625 13.617188 -10.230469 13.652344 -10.113281 C 13.660156 -10.09375 13.667969 -10.078125 13.671875 -10.070312 C 13.667969 -10.078125 13.660156 -10.085938 13.652344 -10.097656 C 13.640625 -10.105469 13.632812 -10.113281 13.625 -10.117188 C 13.632812 -10.113281 13.648438 -10.105469 13.667969 -10.101562 C 13.78125 -10.0625 13.945312 -10.042969 14.152344 -10.042969 L 17.578125 -10.042969 C 17.789062 -10.042969 17.949219 -10.0625 18.0625 -10.101562 C 18.082031 -10.105469 18.097656 -10.113281 18.105469 -10.117188 C 18.097656 -10.113281 18.089844 -10.105469 18.082031 -10.097656 C 18.070312 -10.085938 18.066406 -10.078125 18.058594 -10.070312 C 18.066406 -10.078125 18.070312 -10.09375 18.078125 -10.113281 C 18.117188 -10.230469 18.132812 -10.390625 18.132812 -10.597656 L 18.132812 -17.007812 L 20.117188 -17.007812 L 19.503906 -15.121094 L 4.273438 -20.070312 C 3.292969 -20.398438 2.535156 -20.929688 2 -21.660156 C 1.460938 -22.402344 1.191406 -23.28125 1.191406 -24.304688 L 1.191406 -35.285156 C 1.191406 -38.84375 2.167969 -41.585938 4.128906 -43.519531 C 6.078125 -45.445312 8.808594 -46.40625 12.3125 -46.40625 Z M 12.3125 -42.441406 C 9.894531 -42.441406 8.09375 -41.859375 6.914062 -40.695312 C 5.742188 -39.539062 5.15625 -37.738281 5.15625 -35.285156 L 5.15625 -24.304688 C 5.15625 -24.144531 5.171875 -24.042969 5.203125 -24 C 5.238281 -23.949219 5.339844 -23.898438 5.5 -23.84375 L 22.101562 -18.449219 L 22.101562 -10.597656 C 22.101562 -9.203125 21.695312 -8.101562 20.886719 -7.292969 C 20.074219 -6.480469 18.972656 -6.078125 17.578125 -6.078125 L 14.152344 -6.078125 C 12.757812 -6.078125 11.65625 -6.480469 10.847656 -7.292969 C 10.035156 -8.101562 9.628906 -9.203125 9.628906 -10.597656 L 9.628906 -13.265625 C 9.628906 -13.21875 9.644531 -13.15625 9.667969 -13.082031 C 9.726562 -12.910156 9.820312 -12.757812 9.957031 -12.621094 C 10.09375 -12.488281 10.246094 -12.390625 10.414062 -12.335938 C 10.492188 -12.308594 10.554688 -12.296875 10.597656 -12.296875 L 4.1875 -12.296875 C 4.234375 -12.296875 4.292969 -12.308594 4.371094 -12.335938 C 4.539062 -12.390625 4.691406 -12.488281 4.828125 -12.621094 C 4.964844 -12.757812 5.0625 -12.910156 5.117188 -13.082031 C 5.144531 -13.15625 5.15625 -13.21875 5.15625 -13.265625 L 5.15625 -9.140625 C 5.15625 -6.726562 5.746094 -4.929688 6.921875 -3.75 C 8.101562 -2.574219 9.898438 -1.984375 12.3125 -1.984375 L 19.417969 -1.984375 C 21.871094 -1.984375 23.675781 -2.570312 24.828125 -3.742188 C 25.992188 -4.921875 26.574219 -6.71875 26.574219 -9.140625 L 26.574219 -21.070312 C 26.574219 -21.242188 26.558594 -21.355469 26.523438 -21.40625 C 26.492188 -21.445312 26.417969 -21.488281 26.300781 -21.53125 L 9.566406 -26.921875 L 9.566406 -33.761719 C 9.566406 -35.15625 9.972656 -36.257812 10.78125 -37.070312 C 11.59375 -37.878906 12.695312 -38.285156 14.089844 -38.285156 L 17.578125 -38.285156 C 18.972656 -38.285156 20.074219 -37.878906 20.886719 -37.070312 C 21.695312 -36.257812 22.101562 -35.15625 22.101562 -33.761719 L 22.101562 -31.097656 C 22.101562 -31.140625 22.089844 -31.203125 22.0625 -31.28125 C 22.007812 -31.449219 21.910156 -31.601562 21.773438 -31.738281 C 21.636719 -31.875 21.484375 -31.96875 21.316406 -32.027344 C 21.238281 -32.050781 21.179688 -32.066406 21.132812 -32.066406 L 27.542969 -32.066406 C 27.496094 -32.066406 27.4375 -32.050781 27.359375 -32.027344 C 27.191406 -31.96875 27.039062 -31.875 26.902344 -31.738281 C 26.765625 -31.601562 26.667969 -31.449219 26.613281 -31.28125 C 26.585938 -31.203125 26.574219 -31.140625 26.574219 -31.097656 L 26.574219 -35.285156 C 26.574219 -37.742188 25.996094 -39.546875 24.839844 -40.707031 C 23.683594 -41.863281 21.875 -42.441406 19.417969 -42.441406 Z M 12.3125 -42.441406 "/></g></g><g style="fill:#b21a22;fill-opacity:1;"><g transform="translate(99.985287, 212.434761)"><path style="stroke:none" d="M 21.449219 -46.40625 L 27.289062 -46.40625 C 28.175781 -46.40625 28.9375 -46.085938 29.578125 -45.445312 C 30.222656 -44.804688 30.542969 -44.042969 30.542969 -43.15625 L 30.542969 -9.140625 C 30.542969 -5.632812 29.578125 -2.90625 27.652344 -0.957031 C 25.722656 1.003906 22.976562 1.984375 19.417969 1.984375 L 12.3125 1.984375 C 8.800781 1.984375 6.070312 1.007812 4.117188 -0.945312 C 2.167969 -2.898438 1.191406 -5.628906 1.191406 -9.140625 L 1.191406 -43.15625 C 1.191406 -44.042969 1.511719 -44.804688 2.152344 -45.445312 C 2.792969 -46.085938 3.554688 -46.40625 4.441406 -46.40625 L 10.535156 -46.40625 C 11.421875 -46.40625 12.183594 -46.085938 12.824219 -45.445312 C 13.46875 -44.804688 13.789062 -44.042969 13.789062 -43.15625 L 13.789062 -10.914062 C 13.789062 -10.707031 13.804688 -10.546875 13.84375 -10.433594 C 13.851562 -10.410156 13.855469 -10.398438 13.863281 -10.390625 C 13.855469 -10.398438 13.851562 -10.40625 13.839844 -10.414062 C 13.832031 -10.421875 13.824219 -10.429688 13.816406 -10.433594 C 13.824219 -10.429688 13.839844 -10.425781 13.859375 -10.417969 C 13.972656 -10.378906 14.132812 -10.359375 14.34375 -10.359375 L 17.644531 -10.359375 C 17.851562 -10.359375 18.011719 -10.378906 18.125 -10.417969 C 18.148438 -10.425781 18.160156 -10.429688 18.167969 -10.433594 C 18.160156 -10.429688 18.152344 -10.421875 18.144531 -10.414062 C 18.136719 -10.40625 18.128906 -10.398438 18.125 -10.390625 C 18.128906 -10.398438 18.132812 -10.410156 18.140625 -10.433594 C 18.179688 -10.546875 18.199219 -10.707031 18.199219 -10.914062 L 18.199219 -43.15625 C 18.199219 -44.042969 18.519531 -44.804688 19.160156 -45.445312 C 19.800781 -46.085938 20.5625 -46.40625 21.449219 -46.40625 Z M 21.449219 -42.441406 C 21.660156 -42.441406 21.832031 -42.507812 21.964844 -42.640625 C 22.097656 -42.773438 22.164062 -42.945312 22.164062 -43.15625 L 22.164062 -10.914062 C 22.164062 -9.523438 21.757812 -8.417969 20.949219 -7.609375 C 20.140625 -6.800781 19.035156 -6.394531 17.644531 -6.394531 L 14.34375 -6.394531 C 12.949219 -6.394531 11.847656 -6.800781 11.035156 -7.609375 C 10.226562 -8.417969 9.820312 -9.523438 9.820312 -10.914062 L 9.820312 -43.15625 C 9.820312 -42.945312 9.886719 -42.773438 10.019531 -42.640625 C 10.15625 -42.507812 10.324219 -42.441406 10.535156 -42.441406 L 4.441406 -42.441406 C 4.652344 -42.441406 4.824219 -42.507812 4.957031 -42.640625 C 5.089844 -42.773438 5.15625 -42.945312 5.15625 -43.15625 L 5.15625 -9.140625 C 5.15625 -6.726562 5.746094 -4.929688 6.921875 -3.75 C 8.101562 -2.574219 9.898438 -1.984375 12.3125 -1.984375 L 19.417969 -1.984375 C 21.871094 -1.984375 23.675781 -2.570312 24.828125 -3.742188 C 25.992188 -4.921875 26.574219 -6.71875 26.574219 -9.140625 L 26.574219 -43.15625 C 26.574219 -42.945312 26.640625 -42.773438 26.773438 -42.640625 C 26.910156 -42.507812 27.078125 -42.441406 27.289062 -42.441406 Z M 21.449219 -42.441406 "/></g></g><g style="fill:#b21a22;fill-opacity:1;"><g transform="translate(131.706771, 212.434761)"><path style="stroke:none" d="M 1.191406 -1.015625 L 1.191406 -43.410156 C 1.191406 -44.292969 1.46875 -45.015625 2.023438 -45.574219 C 2.582031 -46.128906 3.300781 -46.40625 4.1875 -46.40625 L 19.417969 -46.40625 C 22.972656 -46.40625 25.710938 -45.441406 27.644531 -43.511719 C 29.574219 -41.578125 30.542969 -38.835938 30.542969 -35.285156 L 30.542969 -22.847656 C 30.542969 -19.335938 29.574219 -16.617188 27.644531 -14.683594 C 25.71875 -12.761719 22.988281 -11.773438 19.449219 -11.726562 L 11.4375 -11.660156 L 11.421875 -13.644531 L 13.40625 -13.644531 L 13.40625 -0.953125 C 13.40625 -0.0664062 13.128906 0.65625 12.570312 1.210938 C 12.015625 1.769531 11.292969 2.046875 10.40625 2.046875 L 4.167969 1.984375 C 3.296875 1.984375 2.582031 1.707031 2.023438 1.148438 C 1.46875 0.59375 1.191406 -0.128906 1.191406 -1.015625 Z M 5.15625 -1.015625 C 5.15625 -1.0625 5.144531 -1.121094 5.117188 -1.199219 C 5.0625 -1.367188 4.964844 -1.519531 4.828125 -1.65625 C 4.691406 -1.792969 4.539062 -1.886719 4.371094 -1.945312 C 4.292969 -1.96875 4.242188 -1.984375 4.207031 -1.984375 L 10.40625 -1.917969 C 10.363281 -1.917969 10.300781 -1.90625 10.226562 -1.882812 C 10.054688 -1.824219 9.902344 -1.730469 9.765625 -1.59375 C 9.632812 -1.457031 9.535156 -1.304688 9.476562 -1.136719 C 9.453125 -1.058594 9.441406 -0.996094 9.441406 -0.953125 L 9.441406 -15.613281 L 19.390625 -15.691406 C 21.859375 -15.726562 23.675781 -16.324219 24.839844 -17.492188 C 25.996094 -18.648438 26.574219 -20.433594 26.574219 -22.847656 L 26.574219 -35.285156 C 26.574219 -37.742188 25.996094 -39.546875 24.839844 -40.707031 C 23.683594 -41.863281 21.875 -42.441406 19.417969 -42.441406 L 4.1875 -42.441406 C 4.234375 -42.441406 4.292969 -42.453125 4.371094 -42.480469 C 4.539062 -42.535156 4.691406 -42.632812 4.828125 -42.769531 C 4.964844 -42.902344 5.0625 -43.054688 5.117188 -43.226562 C 5.144531 -43.300781 5.15625 -43.363281 5.15625 -43.410156 Z M 11.402344 -23.816406 L 17.75 -23.878906 C 17.972656 -23.878906 18.140625 -23.898438 18.253906 -23.933594 C 18.273438 -23.941406 18.289062 -23.949219 18.296875 -23.953125 C 18.289062 -23.949219 18.28125 -23.941406 18.269531 -23.933594 C 18.261719 -23.921875 18.253906 -23.914062 18.25 -23.90625 C 18.253906 -23.914062 18.261719 -23.929688 18.269531 -23.949219 C 18.304688 -24.0625 18.324219 -24.226562 18.324219 -24.433594 L 18.324219 -33.699219 C 18.324219 -33.90625 18.304688 -34.070312 18.269531 -34.183594 C 18.261719 -34.203125 18.253906 -34.21875 18.25 -34.226562 C 18.253906 -34.21875 18.261719 -34.210938 18.269531 -34.199219 C 18.28125 -34.191406 18.289062 -34.183594 18.296875 -34.179688 C 18.289062 -34.183594 18.273438 -34.191406 18.253906 -34.195312 C 18.140625 -34.234375 17.976562 -34.253906 17.769531 -34.253906 L 11.441406 -34.191406 L 11.421875 -36.175781 L 13.40625 -36.175781 L 13.40625 -21.832031 L 11.421875 -21.832031 Z M 9.441406 -19.828125 L 9.441406 -38.136719 L 17.769531 -38.222656 C 19.164062 -38.222656 20.265625 -37.816406 21.074219 -37.003906 C 21.886719 -36.195312 22.292969 -35.09375 22.292969 -33.699219 L 22.292969 -24.433594 C 22.292969 -23.039062 21.886719 -21.9375 21.074219 -21.125 C 20.265625 -20.316406 19.171875 -19.910156 17.789062 -19.910156 L 11.441406 -19.847656 Z M 9.441406 -19.828125 "/></g></g><g style="fill:#b21a22;fill-opacity:1;"><g transform="translate(163.428256, 212.434761)"><path style="stroke:none" d="M 1.191406 -1.015625 L 1.191406 -43.410156 C 1.191406 -44.292969 1.46875 -45.015625 2.023438 -45.574219 C 2.582031 -46.128906 3.300781 -46.40625 4.1875 -46.40625 L 19.417969 -46.40625 C 22.972656 -46.40625 25.710938 -45.441406 27.644531 -43.511719 C 29.574219 -41.578125 30.542969 -38.835938 30.542969 -35.285156 L 30.542969 -22.847656 C 30.542969 -19.335938 29.574219 -16.617188 27.644531 -14.683594 C 25.71875 -12.761719 22.988281 -11.773438 19.449219 -11.726562 L 11.4375 -11.660156 L 11.421875 -13.644531 L 13.40625 -13.644531 L 13.40625 -0.953125 C 13.40625 -0.0664062 13.128906 0.65625 12.570312 1.210938 C 12.015625 1.769531 11.292969 2.046875 10.40625 2.046875 L 4.167969 1.984375 C 3.296875 1.984375 2.582031 1.707031 2.023438 1.148438 C 1.46875 0.59375 1.191406 -0.128906 1.191406 -1.015625 Z M 5.15625 -1.015625 C 5.15625 -1.0625 5.144531 -1.121094 5.117188 -1.199219 C 5.0625 -1.367188 4.964844 -1.519531 4.828125 -1.65625 C 4.691406 -1.792969 4.539062 -1.886719 4.371094 -1.945312 C 4.292969 -1.96875 4.242188 -1.984375 4.207031 -1.984375 L 10.40625 -1.917969 C 10.363281 -1.917969 10.300781 -1.90625 10.226562 -1.882812 C 10.054688 -1.824219 9.902344 -1.730469 9.765625 -1.59375 C 9.632812 -1.457031 9.535156 -1.304688 9.476562 -1.136719 C 9.453125 -1.058594 9.441406 -0.996094 9.441406 -0.953125 L 9.441406 -15.613281 L 19.390625 -15.691406 C 21.859375 -15.726562 23.675781 -16.324219 24.839844 -17.492188 C 25.996094 -18.648438 26.574219 -20.433594 26.574219 -22.847656 L 26.574219 -35.285156 C 26.574219 -37.742188 25.996094 -39.546875 24.839844 -40.707031 C 23.683594 -41.863281 21.875 -42.441406 19.417969 -42.441406 L 4.1875 -42.441406 C 4.234375 -42.441406 4.292969 -42.453125 4.371094 -42.480469 C 4.539062 -42.535156 4.691406 -42.632812 4.828125 -42.769531 C 4.964844 -42.902344 5.0625 -43.054688 5.117188 -43.226562 C 5.144531 -43.300781 5.15625 -43.363281 5.15625 -43.410156 Z M 11.402344 -23.816406 L 17.75 -23.878906 C 17.972656 -23.878906 18.140625 -23.898438 18.253906 -23.933594 C 18.273438 -23.941406 18.289062 -23.949219 18.296875 -23.953125 C 18.289062 -23.949219 18.28125 -23.941406 18.269531 -23.933594 C 18.261719 -23.921875 18.253906 -23.914062 18.25 -23.90625 C 18.253906 -23.914062 18.261719 -23.929688 18.269531 -23.949219 C 18.304688 -24.0625 18.324219 -24.226562 18.324219 -24.433594 L 18.324219 -33.699219 C 18.324219 -33.90625 18.304688 -34.070312 18.269531 -34.183594 C 18.261719 -34.203125 18.253906 -34.21875 18.25 -34.226562 C 18.253906 -34.21875 18.261719 -34.210938 18.269531 -34.199219 C 18.28125 -34.191406 18.289062 -34.183594 18.296875 -34.179688 C 18.289062 -34.183594 18.273438 -34.191406 18.253906 -34.195312 C 18.140625 -34.234375 17.976562 -34.253906 17.769531 -34.253906 L 11.441406 -34.191406 L 11.421875 -36.175781 L 13.40625 -36.175781 L 13.40625 -21.832031 L 11.421875 -21.832031 Z M 9.441406 -19.828125 L 9.441406 -38.136719 L 17.769531 -38.222656 C 19.164062 -38.222656 20.265625 -37.816406 21.074219 -37.003906 C 21.886719 -36.195312 22.292969 -35.09375 22.292969 -33.699219 L 22.292969 -24.433594 C 22.292969 -23.039062 21.886719 -21.9375 21.074219 -21.125 C 20.265625 -20.316406 19.171875 -19.910156 17.789062 -19.910156 L 11.441406 -19.847656 Z M 9.441406 -19.828125 "/></g></g><g style="fill:#b21a22;fill-opacity:1;"><g transform="translate(195.14974, 212.434761)"><path style="stroke:none" d="M 1.191406 -9.140625 L 1.191406 -35.285156 C 1.191406 -38.84375 2.167969 -41.585938 4.128906 -43.519531 C 6.078125 -45.445312 8.808594 -46.40625 12.3125 -46.40625 L 19.417969 -46.40625 C 22.972656 -46.40625 25.710938 -45.441406 27.644531 -43.511719 C 29.574219 -41.578125 30.542969 -38.835938 30.542969 -35.285156 L 30.542969 -9.140625 C 30.542969 -5.632812 29.578125 -2.90625 27.652344 -0.957031 C 25.722656 1.003906 22.976562 1.984375 19.417969 1.984375 L 12.3125 1.984375 C 8.800781 1.984375 6.070312 1.007812 4.117188 -0.945312 C 2.167969 -2.898438 1.191406 -5.628906 1.191406 -9.140625 Z M 5.15625 -9.140625 C 5.15625 -6.726562 5.746094 -4.929688 6.921875 -3.75 C 8.101562 -2.574219 9.898438 -1.984375 12.3125 -1.984375 L 19.417969 -1.984375 C 21.871094 -1.984375 23.675781 -2.570312 24.828125 -3.742188 C 25.992188 -4.921875 26.574219 -6.71875 26.574219 -9.140625 L 26.574219 -35.285156 C 26.574219 -37.742188 25.996094 -39.546875 24.839844 -40.707031 C 23.683594 -41.863281 21.875 -42.441406 19.417969 -42.441406 L 12.3125 -42.441406 C 9.894531 -42.441406 8.09375 -41.859375 6.914062 -40.695312 C 5.742188 -39.539062 5.15625 -37.738281 5.15625 -35.285156 Z M 13.960938 -10.171875 L 18.023438 -10.171875 C 18.230469 -10.171875 18.394531 -10.1875 18.507812 -10.226562 C 18.527344 -10.234375 18.542969 -10.238281 18.550781 -10.246094 C 18.542969 -10.238281 18.535156 -10.234375 18.523438 -10.222656 C 18.515625 -10.214844 18.507812 -10.207031 18.503906 -10.199219 C 18.507812 -10.207031 18.515625 -10.222656 18.523438 -10.242188 C 18.558594 -10.355469 18.578125 -10.515625 18.578125 -10.726562 L 18.578125 -33.699219 C 18.578125 -33.90625 18.558594 -34.070312 18.523438 -34.183594 C 18.515625 -34.203125 18.507812 -34.21875 18.503906 -34.226562 C 18.507812 -34.21875 18.515625 -34.210938 18.523438 -34.199219 C 18.535156 -34.191406 18.542969 -34.183594 18.550781 -34.179688 C 18.542969 -34.183594 18.527344 -34.191406 18.507812 -34.195312 C 18.394531 -34.234375 18.230469 -34.253906 18.023438 -34.253906 L 13.960938 -34.253906 C 13.753906 -34.253906 13.59375 -34.234375 13.476562 -34.195312 C 13.457031 -34.191406 13.441406 -34.183594 13.433594 -34.179688 C 13.441406 -34.183594 13.449219 -34.191406 13.460938 -34.199219 C 13.46875 -34.210938 13.476562 -34.21875 13.480469 -34.226562 C 13.476562 -34.21875 13.46875 -34.203125 13.464844 -34.183594 C 13.425781 -34.070312 13.40625 -33.90625 13.40625 -33.699219 L 13.40625 -10.726562 C 13.40625 -10.515625 13.425781 -10.355469 13.464844 -10.242188 C 13.46875 -10.222656 13.476562 -10.207031 13.480469 -10.199219 C 13.476562 -10.207031 13.46875 -10.214844 13.460938 -10.222656 C 13.449219 -10.234375 13.441406 -10.238281 13.433594 -10.246094 C 13.441406 -10.238281 13.457031 -10.234375 13.476562 -10.226562 C 13.59375 -10.1875 13.753906 -10.171875 13.960938 -10.171875 Z M 13.960938 -6.203125 C 12.566406 -6.203125 11.464844 -6.609375 10.65625 -7.417969 C 9.84375 -8.230469 9.441406 -9.332031 9.441406 -10.726562 L 9.441406 -33.699219 C 9.441406 -35.09375 9.84375 -36.195312 10.65625 -37.003906 C 11.464844 -37.816406 12.566406 -38.222656 13.960938 -38.222656 L 18.023438 -38.222656 C 19.417969 -38.222656 20.519531 -37.816406 21.328125 -37.003906 C 22.140625 -36.195312 22.546875 -35.09375 22.546875 -33.699219 L 22.546875 -10.726562 C 22.546875 -9.332031 22.140625 -8.230469 21.328125 -7.417969 C 20.519531 -6.609375 19.417969 -6.203125 18.023438 -6.203125 Z M 13.960938 -6.203125 "/></g></g><g style="fill:#b21a22;fill-opacity:1;"><g transform="translate(226.871225, 212.434761)"><path style="stroke:none" d="M 30.542969 -35.285156 L 30.542969 -22.53125 C 30.542969 -18.117188 29.046875 -14.972656 26.054688 -13.105469 L 25.003906 -14.785156 L 26.933594 -15.253906 L 30.230469 -1.609375 L 28.304688 -1.140625 L 30.214844 -1.671875 C 30.5 -0.652344 30.363281 0.214844 29.804688 0.933594 C 29.261719 1.632812 28.464844 1.984375 27.417969 1.984375 L 21.195312 1.984375 C 20.425781 1.984375 19.769531 1.757812 19.222656 1.308594 C 18.6875 0.867188 18.339844 0.273438 18.179688 -0.472656 L 20.117188 -0.886719 L 18.191406 -0.417969 L 15.144531 -12.921875 L 17.070312 -13.390625 L 17.070312 -11.40625 L 11.421875 -11.40625 L 11.421875 -13.390625 L 13.40625 -13.390625 L 13.40625 -1.015625 C 13.40625 -0.128906 13.128906 0.59375 12.570312 1.148438 C 12.015625 1.707031 11.292969 1.984375 10.40625 1.984375 L 4.1875 1.984375 C 3.300781 1.984375 2.582031 1.707031 2.023438 1.148438 C 1.46875 0.59375 1.191406 -0.128906 1.191406 -1.015625 L 1.191406 -43.410156 C 1.191406 -44.292969 1.46875 -45.015625 2.023438 -45.574219 C 2.582031 -46.128906 3.300781 -46.40625 4.1875 -46.40625 L 19.417969 -46.40625 C 22.972656 -46.40625 25.710938 -45.441406 27.644531 -43.511719 C 29.574219 -41.578125 30.542969 -38.835938 30.542969 -35.285156 Z M 26.574219 -35.285156 C 26.574219 -37.742188 25.996094 -39.546875 24.839844 -40.707031 C 23.683594 -41.863281 21.875 -42.441406 19.417969 -42.441406 L 4.1875 -42.441406 C 4.234375 -42.441406 4.292969 -42.453125 4.371094 -42.480469 C 4.539062 -42.535156 4.691406 -42.632812 4.828125 -42.769531 C 4.964844 -42.902344 5.0625 -43.054688 5.117188 -43.226562 C 5.144531 -43.300781 5.15625 -43.363281 5.15625 -43.410156 L 5.15625 -1.015625 C 5.15625 -1.0625 5.144531 -1.121094 5.117188 -1.199219 C 5.0625 -1.367188 4.964844 -1.519531 4.828125 -1.65625 C 4.691406 -1.792969 4.539062 -1.886719 4.371094 -1.945312 C 4.292969 -1.96875 4.234375 -1.984375 4.1875 -1.984375 L 10.40625 -1.984375 C 10.363281 -1.984375 10.300781 -1.96875 10.226562 -1.945312 C 10.054688 -1.886719 9.902344 -1.792969 9.765625 -1.65625 C 9.632812 -1.519531 9.535156 -1.367188 9.476562 -1.199219 C 9.453125 -1.121094 9.441406 -1.0625 9.441406 -1.015625 L 9.441406 -15.375 L 18.628906 -15.375 L 22.050781 -1.332031 L 22.058594 -1.304688 C 22.023438 -1.457031 21.917969 -1.609375 21.742188 -1.753906 C 21.558594 -1.90625 21.375 -1.984375 21.195312 -1.984375 L 27.417969 -1.984375 L 27.417969 -1.980469 C 27.375 -1.976562 27.328125 -1.964844 27.273438 -1.945312 C 27.042969 -1.863281 26.84375 -1.71875 26.675781 -1.503906 C 26.503906 -1.28125 26.410156 -1.042969 26.390625 -0.789062 C 26.382812 -0.703125 26.382812 -0.644531 26.394531 -0.613281 L 26.382812 -0.644531 L 22.742188 -15.710938 L 23.953125 -16.46875 C 25.699219 -17.5625 26.574219 -19.582031 26.574219 -22.53125 Z M 11.421875 -23.5625 L 17.769531 -23.5625 C 17.976562 -23.5625 18.140625 -23.578125 18.253906 -23.617188 C 18.273438 -23.625 18.289062 -23.628906 18.296875 -23.636719 C 18.289062 -23.628906 18.28125 -23.625 18.269531 -23.613281 C 18.261719 -23.605469 18.253906 -23.597656 18.25 -23.589844 C 18.253906 -23.597656 18.261719 -23.613281 18.269531 -23.632812 C 18.304688 -23.746094 18.324219 -23.90625 18.324219 -24.117188 L 18.324219 -33.699219 C 18.324219 -33.90625 18.304688 -34.070312 18.269531 -34.183594 C 18.261719 -34.203125 18.253906 -34.21875 18.25 -34.226562 C 18.253906 -34.21875 18.261719 -34.210938 18.269531 -34.199219 C 18.28125 -34.191406 18.289062 -34.183594 18.296875 -34.179688 C 18.289062 -34.183594 18.273438 -34.191406 18.253906 -34.195312 C 18.140625 -34.234375 17.976562 -34.253906 17.769531 -34.253906 L 11.421875 -34.253906 L 11.421875 -36.238281 L 13.40625 -36.238281 L 13.40625 -21.578125 L 11.421875 -21.578125 Z M 9.441406 -19.59375 L 9.441406 -38.222656 L 17.769531 -38.222656 C 19.164062 -38.222656 20.265625 -37.816406 21.074219 -37.003906 C 21.886719 -36.195312 22.292969 -35.09375 22.292969 -33.699219 L 22.292969 -24.117188 C 22.292969 -22.722656 21.886719 -21.621094 21.074219 -20.808594 C 20.265625 -20 19.164062 -19.59375 17.769531 -19.59375 Z M 9.441406 -19.59375 "/></g></g><g style="fill:#b21a22;fill-opacity:1;"><g transform="translate(258.592709, 212.434761)"><path style="stroke:none" d="M 26.273438 -42.441406 L 2.917969 -42.441406 C 2.964844 -42.441406 3.027344 -42.453125 3.101562 -42.480469 C 3.269531 -42.535156 3.425781 -42.632812 3.558594 -42.769531 C 3.695312 -42.902344 3.792969 -43.054688 3.847656 -43.226562 C 3.875 -43.300781 3.886719 -43.363281 3.886719 -43.410156 L 3.886719 -37.0625 C 3.886719 -37.109375 3.875 -37.167969 3.847656 -37.246094 C 3.792969 -37.414062 3.695312 -37.566406 3.558594 -37.703125 C 3.425781 -37.839844 3.269531 -37.9375 3.101562 -37.992188 C 3.027344 -38.019531 2.964844 -38.03125 2.917969 -38.03125 L 12.265625 -38.03125 L 12.265625 -1.015625 C 12.265625 -1.0625 12.25 -1.121094 12.226562 -1.199219 C 12.167969 -1.367188 12.074219 -1.519531 11.9375 -1.65625 C 11.800781 -1.792969 11.648438 -1.886719 11.480469 -1.945312 C 11.402344 -1.96875 11.339844 -1.984375 11.296875 -1.984375 L 17.898438 -1.984375 C 17.851562 -1.984375 17.789062 -1.96875 17.714844 -1.945312 C 17.542969 -1.886719 17.390625 -1.792969 17.253906 -1.65625 C 17.121094 -1.519531 17.023438 -1.367188 16.96875 -1.199219 C 16.941406 -1.121094 16.929688 -1.0625 16.929688 -1.015625 L 16.929688 -38.03125 L 26.273438 -38.03125 C 26.226562 -38.03125 26.167969 -38.019531 26.089844 -37.992188 C 25.921875 -37.9375 25.769531 -37.839844 25.632812 -37.703125 C 25.496094 -37.566406 25.402344 -37.414062 25.34375 -37.246094 C 25.320312 -37.167969 25.304688 -37.109375 25.304688 -37.0625 L 25.304688 -43.410156 C 25.304688 -43.363281 25.320312 -43.300781 25.34375 -43.226562 C 25.402344 -43.054688 25.496094 -42.902344 25.632812 -42.769531 C 25.769531 -42.632812 25.921875 -42.535156 26.089844 -42.480469 C 26.167969 -42.453125 26.226562 -42.441406 26.273438 -42.441406 Z M 26.273438 -46.40625 C 27.160156 -46.40625 27.882812 -46.128906 28.4375 -45.574219 C 28.996094 -45.015625 29.273438 -44.292969 29.273438 -43.410156 L 29.273438 -37.0625 C 29.273438 -36.175781 28.996094 -35.453125 28.4375 -34.898438 C 27.882812 -34.34375 27.160156 -34.0625 26.273438 -34.0625 L 18.910156 -34.0625 L 18.910156 -36.046875 L 20.894531 -36.046875 L 20.894531 -1.015625 C 20.894531 -0.128906 20.617188 0.59375 20.0625 1.148438 C 19.503906 1.707031 18.78125 1.984375 17.898438 1.984375 L 11.296875 1.984375 C 10.410156 1.984375 9.6875 1.707031 9.132812 1.148438 C 8.574219 0.59375 8.296875 -0.128906 8.296875 -1.015625 L 8.296875 -36.046875 L 10.28125 -36.046875 L 10.28125 -34.0625 L 2.917969 -34.0625 C 2.03125 -34.0625 1.3125 -34.34375 0.753906 -34.898438 C 0.199219 -35.453125 -0.078125 -36.175781 -0.078125 -37.0625 L -0.078125 -43.410156 C -0.078125 -44.292969 0.199219 -45.015625 0.753906 -45.574219 C 1.3125 -46.128906 2.03125 -46.40625 2.917969 -46.40625 Z M 26.273438 -46.40625 "/></g></g><g style="fill:#b21a22;fill-opacity:1;"><g transform="translate(287.776478, 212.434761)"><path style="stroke:none" d="M 1.191406 -19.925781 L 1.191406 -25.765625 C 1.191406 -26.738281 1.488281 -27.523438 2.089844 -28.121094 C 2.6875 -28.71875 3.472656 -29.019531 4.441406 -29.019531 L 14.46875 -29.019531 C 15.441406 -29.019531 16.226562 -28.71875 16.824219 -28.121094 C 17.421875 -27.523438 17.722656 -26.738281 17.722656 -25.765625 L 17.722656 -19.925781 C 17.722656 -18.957031 17.421875 -18.171875 16.824219 -17.574219 C 16.226562 -16.972656 15.441406 -16.675781 14.46875 -16.675781 L 4.441406 -16.675781 C 3.472656 -16.675781 2.6875 -16.972656 2.089844 -17.574219 C 1.488281 -18.171875 1.191406 -18.957031 1.191406 -19.925781 Z M 5.15625 -19.925781 C 5.15625 -19.917969 5.15625 -19.910156 5.15625 -19.90625 C 5.15625 -19.90625 5.15625 -19.90625 5.15625 -19.910156 C 5.152344 -19.9375 5.144531 -19.964844 5.132812 -20 C 5.089844 -20.136719 5.007812 -20.261719 4.894531 -20.378906 C 4.777344 -20.492188 4.652344 -20.574219 4.515625 -20.617188 C 4.480469 -20.628906 4.449219 -20.636719 4.425781 -20.640625 C 4.421875 -20.640625 4.421875 -20.640625 4.421875 -20.640625 C 4.425781 -20.640625 4.433594 -20.640625 4.441406 -20.640625 L 14.46875 -20.640625 C 14.476562 -20.640625 14.484375 -20.640625 14.492188 -20.640625 C 14.492188 -20.640625 14.488281 -20.640625 14.488281 -20.640625 C 14.460938 -20.636719 14.429688 -20.628906 14.398438 -20.617188 C 14.261719 -20.574219 14.132812 -20.492188 14.019531 -20.378906 C 13.902344 -20.261719 13.824219 -20.136719 13.777344 -20 C 13.765625 -19.964844 13.757812 -19.9375 13.753906 -19.910156 C 13.753906 -19.90625 13.753906 -19.90625 13.753906 -19.90625 C 13.753906 -19.910156 13.753906 -19.917969 13.753906 -19.925781 L 13.753906 -25.765625 C 13.753906 -25.773438 13.753906 -25.78125 13.753906 -25.789062 C 13.753906 -25.789062 13.753906 -25.785156 13.753906 -25.78125 C 13.757812 -25.757812 13.765625 -25.726562 13.777344 -25.695312 C 13.824219 -25.554688 13.902344 -25.429688 14.019531 -25.316406 C 14.132812 -25.199219 14.261719 -25.121094 14.398438 -25.074219 C 14.429688 -25.0625 14.460938 -25.054688 14.488281 -25.050781 C 14.488281 -25.050781 14.492188 -25.050781 14.492188 -25.050781 C 14.484375 -25.050781 14.476562 -25.050781 14.46875 -25.050781 L 4.441406 -25.050781 C 4.433594 -25.050781 4.425781 -25.050781 4.421875 -25.050781 C 4.421875 -25.050781 4.421875 -25.050781 4.425781 -25.050781 C 4.449219 -25.054688 4.480469 -25.0625 4.515625 -25.074219 C 4.652344 -25.121094 4.777344 -25.199219 4.894531 -25.316406 C 5.007812 -25.429688 5.089844 -25.554688 5.132812 -25.695312 C 5.144531 -25.726562 5.152344 -25.757812 5.15625 -25.78125 C 5.15625 -25.785156 5.15625 -25.789062 5.15625 -25.789062 C 5.15625 -25.78125 5.15625 -25.773438 5.15625 -25.765625 Z M 5.15625 -19.925781 "/></g></g><g style="fill:#b21a22;fill-opacity:1;"><g transform="translate(93.927519, 300.913002)"><path style="stroke:none" d="M 9.820312 -8.378906 L 9.820312 -43.410156 C 9.820312 -43.363281 9.832031 -43.300781 9.859375 -43.226562 C 9.914062 -43.054688 10.011719 -42.902344 10.148438 -42.769531 C 10.285156 -42.632812 10.4375 -42.535156 10.605469 -42.480469 C 10.683594 -42.453125 10.742188 -42.441406 10.789062 -42.441406 L 4.1875 -42.441406 C 4.234375 -42.441406 4.292969 -42.453125 4.371094 -42.480469 C 4.539062 -42.535156 4.691406 -42.632812 4.828125 -42.769531 C 4.964844 -42.902344 5.0625 -43.054688 5.117188 -43.226562 C 5.144531 -43.300781 5.15625 -43.363281 5.15625 -43.410156 L 5.15625 -1.015625 C 5.15625 -1.0625 5.144531 -1.121094 5.117188 -1.199219 C 5.0625 -1.367188 4.964844 -1.519531 4.828125 -1.65625 C 4.691406 -1.792969 4.539062 -1.886719 4.371094 -1.945312 C 4.292969 -1.96875 4.234375 -1.984375 4.1875 -1.984375 L 24.371094 -1.984375 C 24.324219 -1.984375 24.261719 -1.96875 24.1875 -1.945312 C 24.019531 -1.886719 23.863281 -1.792969 23.730469 -1.65625 C 23.59375 -1.519531 23.496094 -1.367188 23.441406 -1.199219 C 23.414062 -1.121094 23.402344 -1.0625 23.402344 -1.015625 L 23.402344 -7.363281 C 23.402344 -7.316406 23.414062 -7.253906 23.441406 -7.179688 C 23.496094 -7.007812 23.59375 -6.855469 23.730469 -6.722656 C 23.863281 -6.585938 24.019531 -6.488281 24.1875 -6.433594 C 24.261719 -6.40625 24.324219 -6.394531 24.371094 -6.394531 L 9.820312 -6.394531 Z M 13.789062 -8.378906 L 11.804688 -8.378906 L 11.804688 -10.359375 L 24.371094 -10.359375 C 25.257812 -10.359375 25.976562 -10.082031 26.535156 -9.527344 C 27.089844 -8.96875 27.367188 -8.246094 27.367188 -7.363281 L 27.367188 -1.015625 C 27.367188 -0.128906 27.089844 0.59375 26.535156 1.148438 C 25.976562 1.707031 25.257812 1.984375 24.371094 1.984375 L 4.1875 1.984375 C 3.300781 1.984375 2.582031 1.707031 2.023438 1.148438 C 1.46875 0.59375 1.191406 -0.128906 1.191406 -1.015625 L 1.191406 -43.410156 C 1.191406 -44.292969 1.46875 -45.015625 2.023438 -45.574219 C 2.582031 -46.128906 3.300781 -46.40625 4.1875 -46.40625 L 10.789062 -46.40625 C 11.675781 -46.40625 12.394531 -46.128906 12.953125 -45.574219 C 13.507812 -45.015625 13.789062 -44.292969 13.789062 -43.410156 Z M 13.789062 -8.378906 "/></g></g><g style="fill:#b21a22;fill-opacity:1;"><g transform="translate(122.476853, 300.913002)"><path style="stroke:none" d="M 1.191406 -9.140625 L 1.191406 -35.285156 C 1.191406 -38.84375 2.167969 -41.585938 4.128906 -43.519531 C 6.078125 -45.445312 8.808594 -46.40625 12.3125 -46.40625 L 19.417969 -46.40625 C 22.972656 -46.40625 25.710938 -45.441406 27.644531 -43.511719 C 29.574219 -41.578125 30.542969 -38.835938 30.542969 -35.285156 L 30.542969 -9.140625 C 30.542969 -5.632812 29.578125 -2.90625 27.652344 -0.957031 C 25.722656 1.003906 22.976562 1.984375 19.417969 1.984375 L 12.3125 1.984375 C 8.800781 1.984375 6.070312 1.007812 4.117188 -0.945312 C 2.167969 -2.898438 1.191406 -5.628906 1.191406 -9.140625 Z M 5.15625 -9.140625 C 5.15625 -6.726562 5.746094 -4.929688 6.921875 -3.75 C 8.101562 -2.574219 9.898438 -1.984375 12.3125 -1.984375 L 19.417969 -1.984375 C 21.871094 -1.984375 23.675781 -2.570312 24.828125 -3.742188 C 25.992188 -4.921875 26.574219 -6.71875 26.574219 -9.140625 L 26.574219 -35.285156 C 26.574219 -37.742188 25.996094 -39.546875 24.839844 -40.707031 C 23.683594 -41.863281 21.875 -42.441406 19.417969 -42.441406 L 12.3125 -42.441406 C 9.894531 -42.441406 8.09375 -41.859375 6.914062 -40.695312 C 5.742188 -39.539062 5.15625 -37.738281 5.15625 -35.285156 Z M 13.960938 -10.171875 L 18.023438 -10.171875 C 18.230469 -10.171875 18.394531 -10.1875 18.507812 -10.226562 C 18.527344 -10.234375 18.542969 -10.238281 18.550781 -10.246094 C 18.542969 -10.238281 18.535156 -10.234375 18.523438 -10.222656 C 18.515625 -10.214844 18.507812 -10.207031 18.503906 -10.199219 C 18.507812 -10.207031 18.515625 -10.222656 18.523438 -10.242188 C 18.558594 -10.355469 18.578125 -10.515625 18.578125 -10.726562 L 18.578125 -33.699219 C 18.578125 -33.90625 18.558594 -34.070312 18.523438 -34.183594 C 18.515625 -34.203125 18.507812 -34.21875 18.503906 -34.226562 C 18.507812 -34.21875 18.515625 -34.210938 18.523438 -34.199219 C 18.535156 -34.191406 18.542969 -34.183594 18.550781 -34.179688 C 18.542969 -34.183594 18.527344 -34.191406 18.507812 -34.195312 C 18.394531 -34.234375 18.230469 -34.253906 18.023438 -34.253906 L 13.960938 -34.253906 C 13.753906 -34.253906 13.59375 -34.234375 13.476562 -34.195312 C 13.457031 -34.191406 13.441406 -34.183594 13.433594 -34.179688 C 13.441406 -34.183594 13.449219 -34.191406 13.460938 -34.199219 C 13.46875 -34.210938 13.476562 -34.21875 13.480469 -34.226562 C 13.476562 -34.21875 13.46875 -34.203125 13.464844 -34.183594 C 13.425781 -34.070312 13.40625 -33.90625 13.40625 -33.699219 L 13.40625 -10.726562 C 13.40625 -10.515625 13.425781 -10.355469 13.464844 -10.242188 C 13.46875 -10.222656 13.476562 -10.207031 13.480469 -10.199219 C 13.476562 -10.207031 13.46875 -10.214844 13.460938 -10.222656 C 13.449219 -10.234375 13.441406 -10.238281 13.433594 -10.246094 C 13.441406 -10.238281 13.457031 -10.234375 13.476562 -10.226562 C 13.59375 -10.1875 13.753906 -10.171875 13.960938 -10.171875 Z M 13.960938 -6.203125 C 12.566406 -6.203125 11.464844 -6.609375 10.65625 -7.417969 C 9.84375 -8.230469 9.441406 -9.332031 9.441406 -10.726562 L 9.441406 -33.699219 C 9.441406 -35.09375 9.84375 -36.195312 10.65625 -37.003906 C 11.464844 -37.816406 12.566406 -38.222656 13.960938 -38.222656 L 18.023438 -38.222656 C 19.417969 -38.222656 20.519531 -37.816406 21.328125 -37.003906 C 22.140625 -36.195312 22.546875 -35.09375 22.546875 -33.699219 L 22.546875 -10.726562 C 22.546875 -9.332031 22.140625 -8.230469 21.328125 -7.417969 C 20.519531 -6.609375 19.417969 -6.203125 18.023438 -6.203125 Z M 13.960938 -6.203125 "/></g></g><g style="fill:#b21a22;fill-opacity:1;"><g transform="translate(154.198337, 300.913002)"><path style="stroke:none" d="M 1.191406 -9.140625 L 1.191406 -35.285156 C 1.191406 -38.84375 2.167969 -41.585938 4.128906 -43.519531 C 6.078125 -45.445312 8.808594 -46.40625 12.3125 -46.40625 L 19.417969 -46.40625 C 22.921875 -46.40625 25.652344 -45.445312 27.601562 -43.519531 C 29.5625 -41.585938 30.542969 -38.84375 30.542969 -35.285156 L 30.542969 -30.589844 C 30.542969 -29.703125 30.261719 -28.980469 29.707031 -28.425781 C 29.152344 -27.867188 28.429688 -27.589844 27.542969 -27.589844 L 21.578125 -27.589844 C 20.691406 -27.589844 19.96875 -27.867188 19.414062 -28.425781 C 18.855469 -28.980469 18.578125 -29.703125 18.578125 -30.589844 L 18.578125 -33.699219 C 18.578125 -33.90625 18.558594 -34.070312 18.523438 -34.183594 C 18.515625 -34.203125 18.507812 -34.21875 18.503906 -34.226562 C 18.507812 -34.21875 18.515625 -34.210938 18.523438 -34.199219 C 18.535156 -34.191406 18.542969 -34.183594 18.550781 -34.179688 C 18.542969 -34.183594 18.527344 -34.191406 18.507812 -34.195312 C 18.394531 -34.234375 18.230469 -34.253906 18.023438 -34.253906 L 13.960938 -34.253906 C 13.753906 -34.253906 13.59375 -34.234375 13.476562 -34.195312 C 13.457031 -34.191406 13.441406 -34.183594 13.433594 -34.179688 C 13.441406 -34.183594 13.449219 -34.191406 13.460938 -34.199219 C 13.46875 -34.210938 13.476562 -34.21875 13.480469 -34.226562 C 13.476562 -34.21875 13.46875 -34.203125 13.464844 -34.183594 C 13.425781 -34.070312 13.40625 -33.90625 13.40625 -33.699219 L 13.40625 -10.726562 C 13.40625 -10.515625 13.425781 -10.355469 13.464844 -10.242188 C 13.46875 -10.222656 13.476562 -10.207031 13.480469 -10.199219 C 13.476562 -10.207031 13.46875 -10.214844 13.460938 -10.222656 C 13.449219 -10.234375 13.441406 -10.238281 13.433594 -10.246094 C 13.441406 -10.238281 13.457031 -10.234375 13.476562 -10.226562 C 13.59375 -10.1875 13.753906 -10.171875 13.960938 -10.171875 L 18.023438 -10.171875 C 18.230469 -10.171875 18.394531 -10.1875 18.507812 -10.226562 C 18.527344 -10.234375 18.542969 -10.238281 18.550781 -10.246094 C 18.542969 -10.238281 18.535156 -10.234375 18.523438 -10.222656 C 18.515625 -10.214844 18.507812 -10.207031 18.503906 -10.199219 C 18.507812 -10.207031 18.515625 -10.222656 18.523438 -10.242188 C 18.558594 -10.355469 18.578125 -10.515625 18.578125 -10.726562 L 18.578125 -16.246094 L 20.5625 -16.246094 L 20.5625 -14.261719 L 17.261719 -14.261719 C 16.375 -14.261719 15.65625 -14.542969 15.097656 -15.097656 C 14.542969 -15.65625 14.261719 -16.375 14.261719 -17.261719 L 14.261719 -23.609375 C 14.261719 -24.496094 14.542969 -25.214844 15.097656 -25.773438 C 15.65625 -26.328125 16.375 -26.605469 17.261719 -26.605469 L 27.542969 -26.605469 C 28.429688 -26.605469 29.152344 -26.328125 29.707031 -25.773438 C 30.261719 -25.214844 30.542969 -24.496094 30.542969 -23.609375 L 30.542969 -9.140625 C 30.542969 -5.628906 29.566406 -2.898438 27.613281 -0.945312 C 25.660156 1.007812 22.929688 1.984375 19.417969 1.984375 L 12.3125 1.984375 C 8.800781 1.984375 6.070312 1.007812 4.117188 -0.945312 C 2.167969 -2.898438 1.191406 -5.628906 1.191406 -9.140625 Z M 5.15625 -9.140625 C 5.15625 -6.726562 5.746094 -4.929688 6.921875 -3.75 C 8.101562 -2.574219 9.898438 -1.984375 12.3125 -1.984375 L 19.417969 -1.984375 C 21.832031 -1.984375 23.628906 -2.574219 24.808594 -3.75 C 25.984375 -4.929688 26.574219 -6.726562 26.574219 -9.140625 L 26.574219 -23.609375 C 26.574219 -23.5625 26.585938 -23.5 26.613281 -23.425781 C 26.667969 -23.257812 26.765625 -23.101562 26.902344 -22.96875 C 27.039062 -22.832031 27.191406 -22.734375 27.359375 -22.679688 C 27.4375 -22.652344 27.496094 -22.640625 27.542969 -22.640625 L 17.261719 -22.640625 C 17.308594 -22.640625 17.367188 -22.652344 17.445312 -22.679688 C 17.613281 -22.734375 17.765625 -22.832031 17.902344 -22.96875 C 18.039062 -23.101562 18.136719 -23.257812 18.191406 -23.425781 C 18.21875 -23.5 18.230469 -23.5625 18.230469 -23.609375 L 18.230469 -17.261719 C 18.230469 -17.308594 18.21875 -17.367188 18.191406 -17.445312 C 18.136719 -17.613281 18.039062 -17.765625 17.902344 -17.902344 C 17.765625 -18.039062 17.613281 -18.136719 17.445312 -18.191406 C 17.367188 -18.21875 17.308594 -18.230469 17.261719 -18.230469 L 22.546875 -18.230469 L 22.546875 -10.726562 C 22.546875 -9.332031 22.140625 -8.230469 21.328125 -7.417969 C 20.519531 -6.609375 19.417969 -6.203125 18.023438 -6.203125 L 13.960938 -6.203125 C 12.566406 -6.203125 11.464844 -6.609375 10.65625 -7.417969 C 9.84375 -8.230469 9.441406 -9.332031 9.441406 -10.726562 L 9.441406 -33.699219 C 9.441406 -35.09375 9.84375 -36.195312 10.65625 -37.003906 C 11.464844 -37.816406 12.566406 -38.222656 13.960938 -38.222656 L 18.023438 -38.222656 C 19.417969 -38.222656 20.519531 -37.816406 21.328125 -37.003906 C 22.140625 -36.195312 22.546875 -35.09375 22.546875 -33.699219 L 22.546875 -30.589844 C 22.546875 -30.632812 22.53125 -30.695312 22.507812 -30.773438 C 22.449219 -30.941406 22.355469 -31.09375 22.21875 -31.230469 C 22.082031 -31.367188 21.929688 -31.460938 21.761719 -31.519531 C 21.683594 -31.542969 21.621094 -31.558594 21.578125 -31.558594 L 27.542969 -31.558594 C 27.496094 -31.558594 27.4375 -31.542969 27.359375 -31.519531 C 27.191406 -31.460938 27.039062 -31.367188 26.902344 -31.230469 C 26.765625 -31.09375 26.667969 -30.941406 26.613281 -30.773438 C 26.585938 -30.695312 26.574219 -30.632812 26.574219 -30.589844 L 26.574219 -35.285156 C 26.574219 -37.738281 25.988281 -39.539062 24.816406 -40.695312 C 23.636719 -41.859375 21.839844 -42.441406 19.417969 -42.441406 L 12.3125 -42.441406 C 9.894531 -42.441406 8.09375 -41.859375 6.914062 -40.695312 C 5.742188 -39.539062 5.15625 -37.738281 5.15625 -35.285156 Z M 5.15625 -9.140625 "/></g></g><g style="fill:#b21a22;fill-opacity:1;"><g transform="translate(185.919822, 300.913002)"><path style="stroke:none" d="M 1.191406 -9.140625 L 1.191406 -35.285156 C 1.191406 -38.84375 2.167969 -41.585938 4.128906 -43.519531 C 6.078125 -45.445312 8.808594 -46.40625 12.3125 -46.40625 L 19.417969 -46.40625 C 22.921875 -46.40625 25.652344 -45.445312 27.601562 -43.519531 C 29.5625 -41.585938 30.542969 -38.84375 30.542969 -35.285156 L 30.542969 -30.589844 C 30.542969 -29.703125 30.261719 -28.980469 29.707031 -28.425781 C 29.152344 -27.867188 28.429688 -27.589844 27.542969 -27.589844 L 21.578125 -27.589844 C 20.691406 -27.589844 19.96875 -27.867188 19.414062 -28.425781 C 18.855469 -28.980469 18.578125 -29.703125 18.578125 -30.589844 L 18.578125 -33.699219 C 18.578125 -33.90625 18.558594 -34.070312 18.523438 -34.183594 C 18.515625 -34.203125 18.507812 -34.21875 18.503906 -34.226562 C 18.507812 -34.21875 18.515625 -34.210938 18.523438 -34.199219 C 18.535156 -34.191406 18.542969 -34.183594 18.550781 -34.179688 C 18.542969 -34.183594 18.527344 -34.191406 18.507812 -34.195312 C 18.394531 -34.234375 18.230469 -34.253906 18.023438 -34.253906 L 13.960938 -34.253906 C 13.753906 -34.253906 13.59375 -34.234375 13.476562 -34.195312 C 13.457031 -34.191406 13.441406 -34.183594 13.433594 -34.179688 C 13.441406 -34.183594 13.449219 -34.191406 13.460938 -34.199219 C 13.46875 -34.210938 13.476562 -34.21875 13.480469 -34.226562 C 13.476562 -34.21875 13.46875 -34.203125 13.464844 -34.183594 C 13.425781 -34.070312 13.40625 -33.90625 13.40625 -33.699219 L 13.40625 -10.726562 C 13.40625 -10.515625 13.425781 -10.355469 13.464844 -10.242188 C 13.46875 -10.222656 13.476562 -10.207031 13.480469 -10.199219 C 13.476562 -10.207031 13.46875 -10.214844 13.460938 -10.222656 C 13.449219 -10.234375 13.441406 -10.238281 13.433594 -10.246094 C 13.441406 -10.238281 13.457031 -10.234375 13.476562 -10.226562 C 13.59375 -10.1875 13.753906 -10.171875 13.960938 -10.171875 L 18.023438 -10.171875 C 18.230469 -10.171875 18.394531 -10.1875 18.507812 -10.226562 C 18.527344 -10.234375 18.542969 -10.238281 18.550781 -10.246094 C 18.542969 -10.238281 18.535156 -10.234375 18.523438 -10.222656 C 18.515625 -10.214844 18.507812 -10.207031 18.503906 -10.199219 C 18.507812 -10.207031 18.515625 -10.222656 18.523438 -10.242188 C 18.558594 -10.355469 18.578125 -10.515625 18.578125 -10.726562 L 18.578125 -16.246094 L 20.5625 -16.246094 L 20.5625 -14.261719 L 17.261719 -14.261719 C 16.375 -14.261719 15.65625 -14.542969 15.097656 -15.097656 C 14.542969 -15.65625 14.261719 -16.375 14.261719 -17.261719 L 14.261719 -23.609375 C 14.261719 -24.496094 14.542969 -25.214844 15.097656 -25.773438 C 15.65625 -26.328125 16.375 -26.605469 17.261719 -26.605469 L 27.542969 -26.605469 C 28.429688 -26.605469 29.152344 -26.328125 29.707031 -25.773438 C 30.261719 -25.214844 30.542969 -24.496094 30.542969 -23.609375 L 30.542969 -9.140625 C 30.542969 -5.628906 29.566406 -2.898438 27.613281 -0.945312 C 25.660156 1.007812 22.929688 1.984375 19.417969 1.984375 L 12.3125 1.984375 C 8.800781 1.984375 6.070312 1.007812 4.117188 -0.945312 C 2.167969 -2.898438 1.191406 -5.628906 1.191406 -9.140625 Z M 5.15625 -9.140625 C 5.15625 -6.726562 5.746094 -4.929688 6.921875 -3.75 C 8.101562 -2.574219 9.898438 -1.984375 12.3125 -1.984375 L 19.417969 -1.984375 C 21.832031 -1.984375 23.628906 -2.574219 24.808594 -3.75 C 25.984375 -4.929688 26.574219 -6.726562 26.574219 -9.140625 L 26.574219 -23.609375 C 26.574219 -23.5625 26.585938 -23.5 26.613281 -23.425781 C 26.667969 -23.257812 26.765625 -23.101562 26.902344 -22.96875 C 27.039062 -22.832031 27.191406 -22.734375 27.359375 -22.679688 C 27.4375 -22.652344 27.496094 -22.640625 27.542969 -22.640625 L 17.261719 -22.640625 C 17.308594 -22.640625 17.367188 -22.652344 17.445312 -22.679688 C 17.613281 -22.734375 17.765625 -22.832031 17.902344 -22.96875 C 18.039062 -23.101562 18.136719 -23.257812 18.191406 -23.425781 C 18.21875 -23.5 18.230469 -23.5625 18.230469 -23.609375 L 18.230469 -17.261719 C 18.230469 -17.308594 18.21875 -17.367188 18.191406 -17.445312 C 18.136719 -17.613281 18.039062 -17.765625 17.902344 -17.902344 C 17.765625 -18.039062 17.613281 -18.136719 17.445312 -18.191406 C 17.367188 -18.21875 17.308594 -18.230469 17.261719 -18.230469 L 22.546875 -18.230469 L 22.546875 -10.726562 C 22.546875 -9.332031 22.140625 -8.230469 21.328125 -7.417969 C 20.519531 -6.609375 19.417969 -6.203125 18.023438 -6.203125 L 13.960938 -6.203125 C 12.566406 -6.203125 11.464844 -6.609375 10.65625 -7.417969 C 9.84375 -8.230469 9.441406 -9.332031 9.441406 -10.726562 L 9.441406 -33.699219 C 9.441406 -35.09375 9.84375 -36.195312 10.65625 -37.003906 C 11.464844 -37.816406 12.566406 -38.222656 13.960938 -38.222656 L 18.023438 -38.222656 C 19.417969 -38.222656 20.519531 -37.816406 21.328125 -37.003906 C 22.140625 -36.195312 22.546875 -35.09375 22.546875 -33.699219 L 22.546875 -30.589844 C 22.546875 -30.632812 22.53125 -30.695312 22.507812 -30.773438 C 22.449219 -30.941406 22.355469 -31.09375 22.21875 -31.230469 C 22.082031 -31.367188 21.929688 -31.460938 21.761719 -31.519531 C 21.683594 -31.542969 21.621094 -31.558594 21.578125 -31.558594 L 27.542969 -31.558594 C 27.496094 -31.558594 27.4375 -31.542969 27.359375 -31.519531 C 27.191406 -31.460938 27.039062 -31.367188 26.902344 -31.230469 C 26.765625 -31.09375 26.667969 -30.941406 26.613281 -30.773438 C 26.585938 -30.695312 26.574219 -30.632812 26.574219 -30.589844 L 26.574219 -35.285156 C 26.574219 -37.738281 25.988281 -39.539062 24.816406 -40.695312 C 23.636719 -41.859375 21.839844 -42.441406 19.417969 -42.441406 L 12.3125 -42.441406 C 9.894531 -42.441406 8.09375 -41.859375 6.914062 -40.695312 C 5.742188 -39.539062 5.15625 -37.738281 5.15625 -35.285156 Z M 5.15625 -9.140625 "/></g></g><g style="fill:#b21a22;fill-opacity:1;"><g transform="translate(217.641306, 300.913002)"><path style="stroke:none" d="M 30.476562 -43.410156 L 30.476562 -37.0625 C 30.476562 -36.179688 30.214844 -35.457031 29.683594 -34.894531 C 29.125 -34.296875 28.390625 -34 27.480469 -34 L 11.804688 -34 L 11.804688 -35.984375 L 13.789062 -35.984375 L 13.789062 -26.210938 L 11.804688 -26.210938 L 11.804688 -28.195312 L 23.734375 -28.195312 C 24.644531 -28.195312 25.378906 -27.894531 25.941406 -27.300781 C 26.46875 -26.738281 26.734375 -26.015625 26.734375 -25.132812 L 26.734375 -18.847656 C 26.734375 -17.964844 26.46875 -17.242188 25.941406 -16.679688 C 25.378906 -16.085938 24.644531 -15.785156 23.734375 -15.785156 L 11.804688 -15.785156 L 11.804688 -17.769531 L 13.789062 -17.769531 L 13.789062 -8.378906 L 11.804688 -8.378906 L 11.804688 -10.359375 L 27.480469 -10.359375 C 28.367188 -10.359375 29.085938 -10.082031 29.644531 -9.527344 C 30.199219 -8.96875 30.476562 -8.246094 30.476562 -7.363281 L 30.476562 -1.015625 C 30.476562 -0.128906 30.199219 0.59375 29.644531 1.148438 C 29.085938 1.707031 28.367188 1.984375 27.480469 1.984375 L 4.125 1.984375 C 3.234375 1.984375 2.515625 1.691406 1.964844 1.101562 C 1.449219 0.550781 1.191406 -0.152344 1.191406 -1.015625 L 1.191406 -43.410156 C 1.191406 -44.269531 1.449219 -44.976562 1.964844 -45.527344 C 2.515625 -46.113281 3.234375 -46.40625 4.125 -46.40625 L 27.480469 -46.40625 C 28.367188 -46.40625 29.085938 -46.128906 29.644531 -45.574219 C 30.199219 -45.015625 30.476562 -44.292969 30.476562 -43.410156 Z M 26.511719 -43.410156 C 26.511719 -43.363281 26.523438 -43.300781 26.550781 -43.226562 C 26.605469 -43.054688 26.703125 -42.902344 26.839844 -42.769531 C 26.976562 -42.632812 27.128906 -42.535156 27.296875 -42.480469 C 27.375 -42.453125 27.433594 -42.441406 27.480469 -42.441406 L 4.125 -42.441406 C 4.378906 -42.441406 4.625 -42.566406 4.859375 -42.8125 C 4.984375 -42.949219 5.074219 -43.097656 5.125 -43.261719 C 5.144531 -43.328125 5.15625 -43.375 5.15625 -43.410156 L 5.15625 -1.015625 C 5.15625 -1.046875 5.144531 -1.097656 5.125 -1.164062 C 5.074219 -1.324219 4.984375 -1.472656 4.859375 -1.609375 C 4.625 -1.859375 4.378906 -1.984375 4.125 -1.984375 L 27.480469 -1.984375 C 27.433594 -1.984375 27.375 -1.96875 27.296875 -1.945312 C 27.128906 -1.886719 26.976562 -1.792969 26.839844 -1.65625 C 26.703125 -1.519531 26.605469 -1.367188 26.550781 -1.199219 C 26.523438 -1.121094 26.511719 -1.0625 26.511719 -1.015625 L 26.511719 -7.363281 C 26.511719 -7.316406 26.523438 -7.253906 26.550781 -7.179688 C 26.605469 -7.007812 26.703125 -6.855469 26.839844 -6.722656 C 26.976562 -6.585938 27.128906 -6.488281 27.296875 -6.433594 C 27.375 -6.40625 27.433594 -6.394531 27.480469 -6.394531 L 9.820312 -6.394531 L 9.820312 -19.753906 L 23.734375 -19.753906 C 23.675781 -19.753906 23.605469 -19.738281 23.515625 -19.707031 C 23.34375 -19.644531 23.1875 -19.542969 23.050781 -19.398438 C 22.929688 -19.269531 22.84375 -19.125 22.792969 -18.96875 C 22.777344 -18.910156 22.765625 -18.871094 22.765625 -18.847656 L 22.765625 -25.132812 C 22.765625 -25.109375 22.777344 -25.066406 22.792969 -25.007812 C 22.84375 -24.855469 22.929688 -24.710938 23.050781 -24.582031 C 23.1875 -24.4375 23.34375 -24.335938 23.515625 -24.273438 C 23.605469 -24.242188 23.675781 -24.226562 23.734375 -24.226562 L 9.820312 -24.226562 L 9.820312 -37.96875 L 27.480469 -37.96875 C 27.421875 -37.96875 27.347656 -37.953125 27.261719 -37.921875 C 27.085938 -37.859375 26.933594 -37.757812 26.796875 -37.613281 C 26.671875 -37.480469 26.585938 -37.339844 26.539062 -37.183594 C 26.519531 -37.125 26.511719 -37.085938 26.511719 -37.0625 Z M 26.511719 -43.410156 "/></g></g><g style="fill:#b21a22;fill-opacity:1;"><g transform="translate(249.299337, 300.913002)"><path style="stroke:none" d="M 30.542969 -35.285156 L 30.542969 -22.53125 C 30.542969 -18.117188 29.046875 -14.972656 26.054688 -13.105469 L 25.003906 -14.785156 L 26.933594 -15.253906 L 30.230469 -1.609375 L 28.304688 -1.140625 L 30.214844 -1.671875 C 30.5 -0.652344 30.363281 0.214844 29.804688 0.933594 C 29.261719 1.632812 28.464844 1.984375 27.417969 1.984375 L 21.195312 1.984375 C 20.425781 1.984375 19.769531 1.757812 19.222656 1.308594 C 18.6875 0.867188 18.339844 0.273438 18.179688 -0.472656 L 20.117188 -0.886719 L 18.191406 -0.417969 L 15.144531 -12.921875 L 17.070312 -13.390625 L 17.070312 -11.40625 L 11.421875 -11.40625 L 11.421875 -13.390625 L 13.40625 -13.390625 L 13.40625 -1.015625 C 13.40625 -0.128906 13.128906 0.59375 12.570312 1.148438 C 12.015625 1.707031 11.292969 1.984375 10.40625 1.984375 L 4.1875 1.984375 C 3.300781 1.984375 2.582031 1.707031 2.023438 1.148438 C 1.46875 0.59375 1.191406 -0.128906 1.191406 -1.015625 L 1.191406 -43.410156 C 1.191406 -44.292969 1.46875 -45.015625 2.023438 -45.574219 C 2.582031 -46.128906 3.300781 -46.40625 4.1875 -46.40625 L 19.417969 -46.40625 C 22.972656 -46.40625 25.710938 -45.441406 27.644531 -43.511719 C 29.574219 -41.578125 30.542969 -38.835938 30.542969 -35.285156 Z M 26.574219 -35.285156 C 26.574219 -37.742188 25.996094 -39.546875 24.839844 -40.707031 C 23.683594 -41.863281 21.875 -42.441406 19.417969 -42.441406 L 4.1875 -42.441406 C 4.234375 -42.441406 4.292969 -42.453125 4.371094 -42.480469 C 4.539062 -42.535156 4.691406 -42.632812 4.828125 -42.769531 C 4.964844 -42.902344 5.0625 -43.054688 5.117188 -43.226562 C 5.144531 -43.300781 5.15625 -43.363281 5.15625 -43.410156 L 5.15625 -1.015625 C 5.15625 -1.0625 5.144531 -1.121094 5.117188 -1.199219 C 5.0625 -1.367188 4.964844 -1.519531 4.828125 -1.65625 C 4.691406 -1.792969 4.539062 -1.886719 4.371094 -1.945312 C 4.292969 -1.96875 4.234375 -1.984375 4.1875 -1.984375 L 10.40625 -1.984375 C 10.363281 -1.984375 10.300781 -1.96875 10.226562 -1.945312 C 10.054688 -1.886719 9.902344 -1.792969 9.765625 -1.65625 C 9.632812 -1.519531 9.535156 -1.367188 9.476562 -1.199219 C 9.453125 -1.121094 9.441406 -1.0625 9.441406 -1.015625 L 9.441406 -15.375 L 18.628906 -15.375 L 22.050781 -1.332031 L 22.058594 -1.304688 C 22.023438 -1.457031 21.917969 -1.609375 21.742188 -1.753906 C 21.558594 -1.90625 21.375 -1.984375 21.195312 -1.984375 L 27.417969 -1.984375 L 27.417969 -1.980469 C 27.375 -1.976562 27.328125 -1.964844 27.273438 -1.945312 C 27.042969 -1.863281 26.84375 -1.71875 26.675781 -1.503906 C 26.503906 -1.28125 26.410156 -1.042969 26.390625 -0.789062 C 26.382812 -0.703125 26.382812 -0.644531 26.394531 -0.613281 L 26.382812 -0.644531 L 22.742188 -15.710938 L 23.953125 -16.46875 C 25.699219 -17.5625 26.574219 -19.582031 26.574219 -22.53125 Z M 11.421875 -23.5625 L 17.769531 -23.5625 C 17.976562 -23.5625 18.140625 -23.578125 18.253906 -23.617188 C 18.273438 -23.625 18.289062 -23.628906 18.296875 -23.636719 C 18.289062 -23.628906 18.28125 -23.625 18.269531 -23.613281 C 18.261719 -23.605469 18.253906 -23.597656 18.25 -23.589844 C 18.253906 -23.597656 18.261719 -23.613281 18.269531 -23.632812 C 18.304688 -23.746094 18.324219 -23.90625 18.324219 -24.117188 L 18.324219 -33.699219 C 18.324219 -33.90625 18.304688 -34.070312 18.269531 -34.183594 C 18.261719 -34.203125 18.253906 -34.21875 18.25 -34.226562 C 18.253906 -34.21875 18.261719 -34.210938 18.269531 -34.199219 C 18.28125 -34.191406 18.289062 -34.183594 18.296875 -34.179688 C 18.289062 -34.183594 18.273438 -34.191406 18.253906 -34.195312 C 18.140625 -34.234375 17.976562 -34.253906 17.769531 -34.253906 L 11.421875 -34.253906 L 11.421875 -36.238281 L 13.40625 -36.238281 L 13.40625 -21.578125 L 11.421875 -21.578125 Z M 9.441406 -19.59375 L 9.441406 -38.222656 L 17.769531 -38.222656 C 19.164062 -38.222656 20.265625 -37.816406 21.074219 -37.003906 C 21.886719 -36.195312 22.292969 -35.09375 22.292969 -33.699219 L 22.292969 -24.117188 C 22.292969 -22.722656 21.886719 -21.621094 21.074219 -20.808594 C 20.265625 -20 19.164062 -19.59375 17.769531 -19.59375 Z M 9.441406 -19.59375 "/></g></g><g style="fill:#060705;fill-opacity:1;"><g transform="translate(99.105507, 123.95652)"><path style="stroke:none" d="M 33.125 0 L 26.96875 0 C 26.425781 0 26.085938 -0.296875 25.953125 -0.890625 L 23.921875 -8.890625 L 12 -8.890625 L 10.03125 -0.890625 C 9.90625 -0.296875 9.566406 0 9.015625 0 L 2.796875 0 C 2.035156 0 1.757812 -0.359375 1.96875 -1.078125 L 12.5 -43.546875 C 12.625 -44.128906 12.984375 -44.421875 13.578125 -44.421875 L 22.40625 -44.421875 C 23 -44.421875 23.359375 -44.128906 23.484375 -43.546875 L 34.015625 -1.078125 C 34.234375 -0.359375 33.9375 0 33.125 0 Z M 21.953125 -16.25 L 17.96875 -33.515625 L 13.96875 -16.25 Z M 21.953125 -16.25 "/></g></g><g style="fill:#060705;fill-opacity:1;"><g transform="translate(135.077678, 123.95652)"><path style="stroke:none" d="M 28.625 -35.28125 L 28.625 -28.4375 C 28.625 -27.757812 28.285156 -27.421875 27.609375 -27.421875 L 21.640625 -27.421875 C 20.960938 -27.421875 20.625 -27.757812 20.625 -28.4375 L 20.625 -33.640625 C 20.625 -35.328125 19.78125 -36.171875 18.09375 -36.171875 L 14.03125 -36.171875 C 12.332031 -36.171875 11.484375 -35.328125 11.484375 -33.640625 L 11.484375 -10.59375 C 11.484375 -8.90625 12.332031 -8.0625 14.03125 -8.0625 L 18.09375 -8.0625 C 19.78125 -8.0625 20.625 -8.90625 20.625 -10.59375 L 20.625 -16 C 20.625 -16.675781 20.960938 -17.015625 21.640625 -17.015625 L 27.609375 -17.015625 C 28.285156 -17.015625 28.625 -16.675781 28.625 -16 L 28.625 -9.140625 C 28.625 -6.179688 27.835938 -3.914062 26.265625 -2.34375 C 24.703125 -0.78125 22.441406 0 19.484375 0 L 12.375 0 C 9.414062 0 7.140625 -0.78125 5.546875 -2.34375 C 3.960938 -3.914062 3.171875 -6.179688 3.171875 -9.140625 L 3.171875 -35.28125 C 3.171875 -38.289062 3.960938 -40.566406 5.546875 -42.109375 C 7.140625 -43.648438 9.414062 -44.421875 12.375 -44.421875 L 19.484375 -44.421875 C 22.441406 -44.421875 24.703125 -43.648438 26.265625 -42.109375 C 27.835938 -40.566406 28.625 -38.289062 28.625 -35.28125 Z M 28.625 -35.28125 "/></g></g><g style="fill:#060705;fill-opacity:1;"><g transform="translate(166.862616, 123.95652)"><path style="stroke:none" d="M 26.28125 -44.421875 L 2.921875 -44.421875 C 2.242188 -44.421875 1.90625 -44.082031 1.90625 -43.40625 L 1.90625 -37.0625 C 1.90625 -36.382812 2.242188 -36.046875 2.921875 -36.046875 L 10.28125 -36.046875 L 10.28125 -1.015625 C 10.28125 -0.335938 10.617188 0 11.296875 0 L 17.890625 0 C 18.566406 0 18.90625 -0.335938 18.90625 -1.015625 L 18.90625 -36.046875 L 26.28125 -36.046875 C 26.957031 -36.046875 27.296875 -36.382812 27.296875 -37.0625 L 27.296875 -43.40625 C 27.296875 -44.082031 26.957031 -44.421875 26.28125 -44.421875 Z M 26.28125 -44.421875 "/></g></g><g style="fill:#060705;fill-opacity:1;"><g transform="translate(196.046385, 123.95652)"><path style="stroke:none" d="M 4.1875 0 L 10.796875 0 C 11.472656 0 11.8125 -0.335938 11.8125 -1.015625 L 11.8125 -43.40625 C 11.8125 -44.082031 11.472656 -44.421875 10.796875 -44.421875 L 4.1875 -44.421875 C 3.507812 -44.421875 3.171875 -44.082031 3.171875 -43.40625 L 3.171875 -1.015625 C 3.171875 -0.335938 3.507812 0 4.1875 0 Z M 4.1875 0 "/></g></g><g style="fill:#060705;fill-opacity:1;"><g transform="translate(211.018916, 123.95652)"><path style="stroke:none" d="M 24.3125 -44.421875 L 30.078125 -44.421875 C 31.054688 -44.421875 31.441406 -43.957031 31.234375 -43.03125 L 21.140625 -1.140625 C 20.960938 -0.378906 20.492188 0 19.734375 0 L 13.390625 0 C 12.671875 0 12.207031 -0.378906 12 -1.140625 L 1.96875 -43.03125 C 1.757812 -43.957031 2.140625 -44.421875 3.109375 -44.421875 L 8.890625 -44.421875 C 9.648438 -44.421875 10.113281 -44.039062 10.28125 -43.28125 L 16.5625 -14.59375 L 22.90625 -43.28125 C 23.125 -44.039062 23.59375 -44.421875 24.3125 -44.421875 Z M 24.3125 -44.421875 "/></g></g><g style="fill:#060705;fill-opacity:1;"><g transform="translate(244.199582, 123.95652)"><path style="stroke:none" d="M 28.5 -43.40625 L 28.5 -37.0625 C 28.5 -36.34375 28.160156 -35.984375 27.484375 -35.984375 L 11.8125 -35.984375 L 11.8125 -26.21875 L 23.734375 -26.21875 C 24.410156 -26.21875 24.75 -25.859375 24.75 -25.140625 L 24.75 -18.84375 C 24.75 -18.125 24.410156 -17.765625 23.734375 -17.765625 L 11.8125 -17.765625 L 11.8125 -8.375 L 27.484375 -8.375 C 28.160156 -8.375 28.5 -8.035156 28.5 -7.359375 L 28.5 -1.015625 C 28.5 -0.335938 28.160156 0 27.484375 0 L 4.125 0 C 3.488281 0 3.171875 -0.335938 3.171875 -1.015625 L 3.171875 -43.40625 C 3.171875 -44.082031 3.488281 -44.421875 4.125 -44.421875 L 27.484375 -44.421875 C 28.160156 -44.421875 28.5 -44.082031 28.5 -43.40625 Z M 28.5 -43.40625 "/></g></g><g style="fill:#060705;fill-opacity:1;"><g transform="translate(68.263802, 212.434761)"><path style="stroke:none" d="M 12.3125 -44.421875 L 19.421875 -44.421875 C 22.421875 -44.421875 24.691406 -43.648438 26.234375 -42.109375 C 27.785156 -40.566406 28.5625 -38.289062 28.5625 -35.28125 L 28.5625 -31.09375 C 28.5625 -30.414062 28.222656 -30.078125 27.546875 -30.078125 L 21.140625 -30.078125 C 20.460938 -30.078125 20.125 -30.414062 20.125 -31.09375 L 20.125 -33.765625 C 20.125 -35.453125 19.273438 -36.296875 17.578125 -36.296875 L 14.09375 -36.296875 C 12.394531 -36.296875 11.546875 -35.453125 11.546875 -33.765625 L 11.546875 -28.375 L 26.90625 -23.421875 C 28.007812 -23.035156 28.5625 -22.253906 28.5625 -21.078125 L 28.5625 -9.140625 C 28.5625 -6.179688 27.785156 -3.914062 26.234375 -2.34375 C 24.691406 -0.78125 22.421875 0 19.421875 0 L 12.3125 0 C 9.351562 0 7.085938 -0.78125 5.515625 -2.34375 C 3.953125 -3.914062 3.171875 -6.179688 3.171875 -9.140625 L 3.171875 -13.265625 C 3.171875 -13.941406 3.507812 -14.28125 4.1875 -14.28125 L 10.59375 -14.28125 C 11.269531 -14.28125 11.609375 -13.941406 11.609375 -13.265625 L 11.609375 -10.59375 C 11.609375 -8.90625 12.457031 -8.0625 14.15625 -8.0625 L 17.578125 -8.0625 C 19.273438 -8.0625 20.125 -8.90625 20.125 -10.59375 L 20.125 -17.015625 L 4.890625 -21.953125 C 3.742188 -22.335938 3.171875 -23.125 3.171875 -24.3125 L 3.171875 -35.28125 C 3.171875 -38.289062 3.953125 -40.566406 5.515625 -42.109375 C 7.085938 -43.648438 9.351562 -44.421875 12.3125 -44.421875 Z M 12.3125 -44.421875 "/></g></g><g style="fill:#060705;fill-opacity:1;"><g transform="translate(99.985287, 212.434761)"><path style="stroke:none" d="M 21.453125 -44.421875 L 27.296875 -44.421875 C 27.628906 -44.421875 27.921875 -44.296875 28.171875 -44.046875 C 28.429688 -43.796875 28.5625 -43.5 28.5625 -43.15625 L 28.5625 -9.140625 C 28.5625 -6.179688 27.785156 -3.914062 26.234375 -2.34375 C 24.691406 -0.78125 22.421875 0 19.421875 0 L 12.3125 0 C 9.351562 0 7.085938 -0.78125 5.515625 -2.34375 C 3.953125 -3.914062 3.171875 -6.179688 3.171875 -9.140625 L 3.171875 -43.15625 C 3.171875 -43.5 3.296875 -43.796875 3.546875 -44.046875 C 3.804688 -44.296875 4.101562 -44.421875 4.4375 -44.421875 L 10.53125 -44.421875 C 10.875 -44.421875 11.171875 -44.296875 11.421875 -44.046875 C 11.679688 -43.796875 11.8125 -43.5 11.8125 -43.15625 L 11.8125 -10.921875 C 11.8125 -9.222656 12.65625 -8.375 14.34375 -8.375 L 17.640625 -8.375 C 19.335938 -8.375 20.1875 -9.222656 20.1875 -10.921875 L 20.1875 -43.15625 C 20.1875 -43.5 20.3125 -43.796875 20.5625 -44.046875 C 20.8125 -44.296875 21.109375 -44.421875 21.453125 -44.421875 Z M 21.453125 -44.421875 "/></g></g><g style="fill:#060705;fill-opacity:1;"><g transform="translate(131.706771, 212.434761)"><path style="stroke:none" d="M 3.171875 -1.015625 L 3.171875 -43.40625 C 3.171875 -44.082031 3.507812 -44.421875 4.1875 -44.421875 L 19.421875 -44.421875 C 22.421875 -44.421875 24.691406 -43.648438 26.234375 -42.109375 C 27.785156 -40.566406 28.5625 -38.289062 28.5625 -35.28125 L 28.5625 -22.84375 C 28.5625 -19.882812 27.785156 -17.628906 26.234375 -16.078125 C 24.691406 -14.535156 22.421875 -13.742188 19.421875 -13.703125 L 11.421875 -13.640625 L 11.421875 -0.953125 C 11.421875 -0.273438 11.082031 0.0625 10.40625 0.0625 L 4.1875 0 C 3.507812 0 3.171875 -0.335938 3.171875 -1.015625 Z M 11.421875 -21.828125 L 17.765625 -21.890625 C 19.460938 -21.890625 20.3125 -22.738281 20.3125 -24.4375 L 20.3125 -33.703125 C 20.3125 -35.390625 19.460938 -36.234375 17.765625 -36.234375 L 11.421875 -36.171875 Z M 11.421875 -21.828125 "/></g></g><g style="fill:#060705;fill-opacity:1;"><g transform="translate(163.428256, 212.434761)"><path style="stroke:none" d="M 3.171875 -1.015625 L 3.171875 -43.40625 C 3.171875 -44.082031 3.507812 -44.421875 4.1875 -44.421875 L 19.421875 -44.421875 C 22.421875 -44.421875 24.691406 -43.648438 26.234375 -42.109375 C 27.785156 -40.566406 28.5625 -38.289062 28.5625 -35.28125 L 28.5625 -22.84375 C 28.5625 -19.882812 27.785156 -17.628906 26.234375 -16.078125 C 24.691406 -14.535156 22.421875 -13.742188 19.421875 -13.703125 L 11.421875 -13.640625 L 11.421875 -0.953125 C 11.421875 -0.273438 11.082031 0.0625 10.40625 0.0625 L 4.1875 0 C 3.507812 0 3.171875 -0.335938 3.171875 -1.015625 Z M 11.421875 -21.828125 L 17.765625 -21.890625 C 19.460938 -21.890625 20.3125 -22.738281 20.3125 -24.4375 L 20.3125 -33.703125 C 20.3125 -35.390625 19.460938 -36.234375 17.765625 -36.234375 L 11.421875 -36.171875 Z M 11.421875 -21.828125 "/></g></g><g style="fill:#060705;fill-opacity:1;"><g transform="translate(195.14974, 212.434761)"><path style="stroke:none" d="M 3.171875 -9.140625 L 3.171875 -35.28125 C 3.171875 -38.289062 3.953125 -40.566406 5.515625 -42.109375 C 7.085938 -43.648438 9.351562 -44.421875 12.3125 -44.421875 L 19.421875 -44.421875 C 22.421875 -44.421875 24.691406 -43.648438 26.234375 -42.109375 C 27.785156 -40.566406 28.5625 -38.289062 28.5625 -35.28125 L 28.5625 -9.140625 C 28.5625 -6.179688 27.785156 -3.914062 26.234375 -2.34375 C 24.691406 -0.78125 22.421875 0 19.421875 0 L 12.3125 0 C 9.351562 0 7.085938 -0.78125 5.515625 -2.34375 C 3.953125 -3.914062 3.171875 -6.179688 3.171875 -9.140625 Z M 13.96875 -8.1875 L 18.03125 -8.1875 C 19.71875 -8.1875 20.5625 -9.03125 20.5625 -10.71875 L 20.5625 -33.703125 C 20.5625 -35.390625 19.71875 -36.234375 18.03125 -36.234375 L 13.96875 -36.234375 C 12.269531 -36.234375 11.421875 -35.390625 11.421875 -33.703125 L 11.421875 -10.71875 C 11.421875 -9.03125 12.269531 -8.1875 13.96875 -8.1875 Z M 13.96875 -8.1875 "/></g></g><g style="fill:#060705;fill-opacity:1;"><g transform="translate(226.871225, 212.434761)"><path style="stroke:none" d="M 28.5625 -35.28125 L 28.5625 -22.53125 C 28.5625 -18.851562 27.375 -16.269531 25 -14.78125 L 28.3125 -1.140625 C 28.519531 -0.378906 28.222656 0 27.421875 0 L 21.203125 0 C 20.609375 0 20.25 -0.296875 20.125 -0.890625 L 17.078125 -13.390625 L 11.421875 -13.390625 L 11.421875 -1.015625 C 11.421875 -0.335938 11.082031 0 10.40625 0 L 4.1875 0 C 3.507812 0 3.171875 -0.335938 3.171875 -1.015625 L 3.171875 -43.40625 C 3.171875 -44.082031 3.507812 -44.421875 4.1875 -44.421875 L 19.421875 -44.421875 C 22.421875 -44.421875 24.691406 -43.648438 26.234375 -42.109375 C 27.785156 -40.566406 28.5625 -38.289062 28.5625 -35.28125 Z M 11.421875 -21.578125 L 17.765625 -21.578125 C 19.460938 -21.578125 20.3125 -22.425781 20.3125 -24.125 L 20.3125 -33.703125 C 20.3125 -35.390625 19.460938 -36.234375 17.765625 -36.234375 L 11.421875 -36.234375 Z M 11.421875 -21.578125 "/></g></g><g style="fill:#060705;fill-opacity:1;"><g transform="translate(258.592709, 212.434761)"><path style="stroke:none" d="M 26.28125 -44.421875 L 2.921875 -44.421875 C 2.242188 -44.421875 1.90625 -44.082031 1.90625 -43.40625 L 1.90625 -37.0625 C 1.90625 -36.382812 2.242188 -36.046875 2.921875 -36.046875 L 10.28125 -36.046875 L 10.28125 -1.015625 C 10.28125 -0.335938 10.617188 0 11.296875 0 L 17.890625 0 C 18.566406 0 18.90625 -0.335938 18.90625 -1.015625 L 18.90625 -36.046875 L 26.28125 -36.046875 C 26.957031 -36.046875 27.296875 -36.382812 27.296875 -37.0625 L 27.296875 -43.40625 C 27.296875 -44.082031 26.957031 -44.421875 26.28125 -44.421875 Z M 26.28125 -44.421875 "/></g></g><g style="fill:#060705;fill-opacity:1;"><g transform="translate(287.776478, 212.434761)"><path style="stroke:none" d="M 3.171875 -19.921875 L 3.171875 -25.765625 C 3.171875 -26.609375 3.59375 -27.03125 4.4375 -27.03125 L 14.46875 -27.03125 C 15.3125 -27.03125 15.734375 -26.609375 15.734375 -25.765625 L 15.734375 -19.921875 C 15.734375 -19.078125 15.3125 -18.65625 14.46875 -18.65625 L 4.4375 -18.65625 C 3.59375 -18.65625 3.171875 -19.078125 3.171875 -19.921875 Z M 3.171875 -19.921875 "/></g></g><g style="fill:#060705;fill-opacity:1;"><g transform="translate(93.927519, 300.913002)"><path style="stroke:none" d="M 11.8125 -8.375 L 11.8125 -43.40625 C 11.8125 -44.082031 11.472656 -44.421875 10.796875 -44.421875 L 4.1875 -44.421875 C 3.507812 -44.421875 3.171875 -44.082031 3.171875 -43.40625 L 3.171875 -1.015625 C 3.171875 -0.335938 3.507812 0 4.1875 0 L 24.375 0 C 25.050781 0 25.390625 -0.335938 25.390625 -1.015625 L 25.390625 -7.359375 C 25.390625 -8.035156 25.050781 -8.375 24.375 -8.375 Z M 11.8125 -8.375 "/></g></g><g style="fill:#060705;fill-opacity:1;"><g transform="translate(122.476853, 300.913002)"><path style="stroke:none" d="M 3.171875 -9.140625 L 3.171875 -35.28125 C 3.171875 -38.289062 3.953125 -40.566406 5.515625 -42.109375 C 7.085938 -43.648438 9.351562 -44.421875 12.3125 -44.421875 L 19.421875 -44.421875 C 22.421875 -44.421875 24.691406 -43.648438 26.234375 -42.109375 C 27.785156 -40.566406 28.5625 -38.289062 28.5625 -35.28125 L 28.5625 -9.140625 C 28.5625 -6.179688 27.785156 -3.914062 26.234375 -2.34375 C 24.691406 -0.78125 22.421875 0 19.421875 0 L 12.3125 0 C 9.351562 0 7.085938 -0.78125 5.515625 -2.34375 C 3.953125 -3.914062 3.171875 -6.179688 3.171875 -9.140625 Z M 13.96875 -8.1875 L 18.03125 -8.1875 C 19.71875 -8.1875 20.5625 -9.03125 20.5625 -10.71875 L 20.5625 -33.703125 C 20.5625 -35.390625 19.71875 -36.234375 18.03125 -36.234375 L 13.96875 -36.234375 C 12.269531 -36.234375 11.421875 -35.390625 11.421875 -33.703125 L 11.421875 -10.71875 C 11.421875 -9.03125 12.269531 -8.1875 13.96875 -8.1875 Z M 13.96875 -8.1875 "/></g></g><g style="fill:#060705;fill-opacity:1;"><g transform="translate(154.198337, 300.913002)"><path style="stroke:none" d="M 3.171875 -9.140625 L 3.171875 -35.28125 C 3.171875 -38.289062 3.953125 -40.566406 5.515625 -42.109375 C 7.085938 -43.648438 9.351562 -44.421875 12.3125 -44.421875 L 19.421875 -44.421875 C 22.378906 -44.421875 24.640625 -43.648438 26.203125 -42.109375 C 27.773438 -40.566406 28.5625 -38.289062 28.5625 -35.28125 L 28.5625 -30.59375 C 28.5625 -29.914062 28.222656 -29.578125 27.546875 -29.578125 L 21.578125 -29.578125 C 20.898438 -29.578125 20.5625 -29.914062 20.5625 -30.59375 L 20.5625 -33.703125 C 20.5625 -35.390625 19.71875 -36.234375 18.03125 -36.234375 L 13.96875 -36.234375 C 12.269531 -36.234375 11.421875 -35.390625 11.421875 -33.703125 L 11.421875 -10.71875 C 11.421875 -9.03125 12.269531 -8.1875 13.96875 -8.1875 L 18.03125 -8.1875 C 19.71875 -8.1875 20.5625 -9.03125 20.5625 -10.71875 L 20.5625 -16.25 L 17.265625 -16.25 C 16.585938 -16.25 16.25 -16.585938 16.25 -17.265625 L 16.25 -23.609375 C 16.25 -24.285156 16.585938 -24.625 17.265625 -24.625 L 27.546875 -24.625 C 28.222656 -24.625 28.5625 -24.285156 28.5625 -23.609375 L 28.5625 -9.140625 C 28.5625 -6.179688 27.773438 -3.914062 26.203125 -2.34375 C 24.640625 -0.78125 22.378906 0 19.421875 0 L 12.3125 0 C 9.351562 0 7.085938 -0.78125 5.515625 -2.34375 C 3.953125 -3.914062 3.171875 -6.179688 3.171875 -9.140625 Z M 3.171875 -9.140625 "/></g></g><g style="fill:#060705;fill-opacity:1;"><g transform="translate(185.919822, 300.913002)"><path style="stroke:none" d="M 3.171875 -9.140625 L 3.171875 -35.28125 C 3.171875 -38.289062 3.953125 -40.566406 5.515625 -42.109375 C 7.085938 -43.648438 9.351562 -44.421875 12.3125 -44.421875 L 19.421875 -44.421875 C 22.378906 -44.421875 24.640625 -43.648438 26.203125 -42.109375 C 27.773438 -40.566406 28.5625 -38.289062 28.5625 -35.28125 L 28.5625 -30.59375 C 28.5625 -29.914062 28.222656 -29.578125 27.546875 -29.578125 L 21.578125 -29.578125 C 20.898438 -29.578125 20.5625 -29.914062 20.5625 -30.59375 L 20.5625 -33.703125 C 20.5625 -35.390625 19.71875 -36.234375 18.03125 -36.234375 L 13.96875 -36.234375 C 12.269531 -36.234375 11.421875 -35.390625 11.421875 -33.703125 L 11.421875 -10.71875 C 11.421875 -9.03125 12.269531 -8.1875 13.96875 -8.1875 L 18.03125 -8.1875 C 19.71875 -8.1875 20.5625 -9.03125 20.5625 -10.71875 L 20.5625 -16.25 L 17.265625 -16.25 C 16.585938 -16.25 16.25 -16.585938 16.25 -17.265625 L 16.25 -23.609375 C 16.25 -24.285156 16.585938 -24.625 17.265625 -24.625 L 27.546875 -24.625 C 28.222656 -24.625 28.5625 -24.285156 28.5625 -23.609375 L 28.5625 -9.140625 C 28.5625 -6.179688 27.773438 -3.914062 26.203125 -2.34375 C 24.640625 -0.78125 22.378906 0 19.421875 0 L 12.3125 0 C 9.351562 0 7.085938 -0.78125 5.515625 -2.34375 C 3.953125 -3.914062 3.171875 -6.179688 3.171875 -9.140625 Z M 3.171875 -9.140625 "/></g></g><g style="fill:#060705;fill-opacity:1;"><g transform="translate(217.641306, 300.913002)"><path style="stroke:none" d="M 28.5 -43.40625 L 28.5 -37.0625 C 28.5 -36.34375 28.160156 -35.984375 27.484375 -35.984375 L 11.8125 -35.984375 L 11.8125 -26.21875 L 23.734375 -26.21875 C 24.410156 -26.21875 24.75 -25.859375 24.75 -25.140625 L 24.75 -18.84375 C 24.75 -18.125 24.410156 -17.765625 23.734375 -17.765625 L 11.8125 -17.765625 L 11.8125 -8.375 L 27.484375 -8.375 C 28.160156 -8.375 28.5 -8.035156 28.5 -7.359375 L 28.5 -1.015625 C 28.5 -0.335938 28.160156 0 27.484375 0 L 4.125 0 C 3.488281 0 3.171875 -0.335938 3.171875 -1.015625 L 3.171875 -43.40625 C 3.171875 -44.082031 3.488281 -44.421875 4.125 -44.421875 L 27.484375 -44.421875 C 28.160156 -44.421875 28.5 -44.082031 28.5 -43.40625 Z M 28.5 -43.40625 "/></g></g><g style="fill:#060705;fill-opacity:1;"><g transform="translate(249.299337, 300.913002)"><path style="stroke:none" d="M 28.5625 -35.28125 L 28.5625 -22.53125 C 28.5625 -18.851562 27.375 -16.269531 25 -14.78125 L 28.3125 -1.140625 C 28.519531 -0.378906 28.222656 0 27.421875 0 L 21.203125 0 C 20.609375 0 20.25 -0.296875 20.125 -0.890625 L 17.078125 -13.390625 L 11.421875 -13.390625 L 11.421875 -1.015625 C 11.421875 -0.335938 11.082031 0 10.40625 0 L 4.1875 0 C 3.507812 0 3.171875 -0.335938 3.171875 -1.015625 L 3.171875 -43.40625 C 3.171875 -44.082031 3.507812 -44.421875 4.1875 -44.421875 L 19.421875 -44.421875 C 22.421875 -44.421875 24.691406 -43.648438 26.234375 -42.109375 C 27.785156 -40.566406 28.5625 -38.289062 28.5625 -35.28125 Z M 11.421875 -21.578125 L 17.765625 -21.578125 C 19.460938 -21.578125 20.3125 -22.425781 20.3125 -24.125 L 20.3125 -33.703125 C 20.3125 -35.390625 19.460938 -36.234375 17.765625 -36.234375 L 11.421875 -36.234375 Z M 11.421875 -21.578125 "/></g></g></g></svg>