<svg xmlns="http://www.w3.org/2000/svg" xmlns:xlink="http://www.w3.org/1999/xlink" width="192" zoomAndPan="magnify" viewBox="0 0 144 143.999998" height="192" preserveAspectRatio="xMidYMid meet" version="1.2"><defs><clipPath id="e8bb7c692d"><path d="M 9 0 L 135 0 L 135 144 L 9 144 Z M 9 0 "/></clipPath><clipPath id="65566a6201"><path d="M -21.457031 54.867188 L 103.039062 -17.847656 L 165.503906 89.105469 L 41.007812 161.816406 Z M -21.457031 54.867188 "/></clipPath><clipPath id="39237918b8"><path d="M 134.226562 35.65625 L 134.347656 107.300781 L 72.121094 143.644531 L 9.773438 108.34375 L 9.65625 36.695312 L 71.878906 0.351562 Z M 134.226562 35.65625 "/></clipPath><clipPath id="ca018cb15f"><path d="M 21.210938 13.683594 L 122.773438 13.683594 L 122.773438 130.261719 L 21.210938 130.261719 Z M 21.210938 13.683594 "/></clipPath></defs><g id="4e6e2ad9c8"><g clip-rule="nonzero" clip-path="url(#e8bb7c692d)"><g clip-rule="nonzero" clip-path="url(#65566a6201)"><g clip-rule="nonzero" clip-path="url(#39237918b8)"><path style=" stroke:none;fill-rule:nonzero;fill:#65b30e;fill-opacity:1;" d="M -21.457031 54.867188 L 103.039062 -17.847656 L 165.503906 89.105469 L 41.007812 161.816406 Z M -21.457031 54.867188 "/></g></g></g><path style=" stroke:none;fill-rule:nonzero;fill:#87ff00;fill-opacity:1;" d="M 51.679688 52.109375 L 51.613281 52.046875 L 37.261719 66.398438 L 72.113281 101.183594 L 86.46875 86.898438 L 106.960938 66.398438 L 92.609375 52.046875 L 92.609375 51.980469 L 51.617188 51.980469 Z M 51.679688 52.109375 "/><g clip-rule="nonzero" clip-path="url(#ca018cb15f)"><path style=" stroke:none;fill-rule:nonzero;fill:#87ff00;fill-opacity:1;" d="M 71.980469 13.765625 L 21.222656 42.863281 L 21.226562 101.058594 L 71.984375 130.15625 L 122.742188 101.058594 L 122.742188 42.863281 L 71.984375 13.769531 Z M 113.039062 95.496094 L 71.980469 119.160156 L 30.921875 95.496094 L 30.925781 48.292969 L 71.984375 24.628906 L 113.042969 48.292969 L 113.042969 95.492188 Z M 113.039062 95.496094 "/></g><g style="fill:#b21a22;fill-opacity:1;"><g transform="translate(36.109295, 44.950115)"><path style="stroke:none" d="M 12.644531 -19.753906 L 16.210938 -19.753906 C 16.621094 -19.753906 16.957031 -19.628906 17.210938 -19.371094 C 17.464844 -19.117188 17.59375 -18.785156 17.59375 -18.371094 L 17.59375 -0.539062 C 17.59375 -0.128906 17.464844 0.207031 17.210938 0.460938 C 16.957031 0.71875 16.621094 0.84375 16.210938 0.84375 L 13.695312 0.84375 C 13.285156 0.84375 12.949219 0.71875 12.695312 0.460938 C 12.441406 0.207031 12.3125 -0.128906 12.3125 -0.539062 L 12.3125 -11.15625 L 13.15625 -11.15625 L 13.15625 -10.3125 L 12.96875 -10.3125 L 12.96875 -11.15625 L 13.789062 -10.960938 L 11.246094 -0.242188 L 11.238281 -0.222656 C 11.140625 0.105469 10.972656 0.363281 10.726562 0.554688 C 10.476562 0.746094 10.179688 0.84375 9.832031 0.84375 L 8.238281 0.84375 C 7.894531 0.84375 7.597656 0.746094 7.34375 0.554688 C 7.101562 0.363281 6.933594 0.105469 6.835938 -0.222656 L 6.828125 -0.242188 L 4.285156 -10.960938 L 5.105469 -11.15625 L 5.105469 -10.3125 L 4.917969 -10.3125 L 4.917969 -11.15625 L 5.761719 -11.15625 L 5.761719 -0.539062 C 5.761719 -0.128906 5.632812 0.207031 5.378906 0.460938 C 5.125 0.71875 4.789062 0.84375 4.375 0.84375 L 1.890625 0.84375 C 1.476562 0.84375 1.144531 0.71875 0.890625 0.460938 C 0.632812 0.207031 0.507812 -0.128906 0.507812 -0.539062 L 0.507812 -18.371094 C 0.507812 -18.785156 0.632812 -19.117188 0.890625 -19.371094 C 1.144531 -19.628906 1.476562 -19.753906 1.890625 -19.753906 L 5.457031 -19.753906 C 5.800781 -19.753906 6.101562 -19.660156 6.351562 -19.464844 C 6.59375 -19.277344 6.765625 -19.019531 6.863281 -18.691406 L 6.867188 -18.671875 L 9.871094 -6.605469 L 9.050781 -6.402344 L 8.230469 -6.605469 L 11.234375 -18.671875 L 11.238281 -18.691406 C 11.335938 -19.019531 11.503906 -19.277344 11.75 -19.464844 C 12 -19.660156 12.296875 -19.753906 12.644531 -19.753906 Z M 12.644531 -18.066406 C 12.683594 -18.066406 12.726562 -18.085938 12.78125 -18.128906 C 12.8125 -18.152344 12.835938 -18.175781 12.851562 -18.203125 C 12.855469 -18.210938 12.859375 -18.214844 12.863281 -18.222656 C 12.859375 -18.21875 12.859375 -18.21875 12.859375 -18.214844 L 12.050781 -18.453125 L 12.867188 -18.246094 L 9.871094 -6.199219 L 8.230469 -6.199219 L 5.230469 -18.246094 L 6.050781 -18.453125 L 5.242188 -18.214844 C 5.242188 -18.21875 5.238281 -18.21875 5.238281 -18.222656 C 5.242188 -18.214844 5.246094 -18.210938 5.25 -18.203125 C 5.265625 -18.175781 5.289062 -18.152344 5.320312 -18.128906 C 5.371094 -18.085938 5.417969 -18.066406 5.457031 -18.066406 L 1.890625 -18.066406 C 1.886719 -18.066406 1.882812 -18.066406 1.882812 -18.066406 C 1.894531 -18.066406 1.90625 -18.070312 1.921875 -18.078125 C 1.980469 -18.097656 2.035156 -18.128906 2.082031 -18.179688 C 2.132812 -18.226562 2.167969 -18.28125 2.183594 -18.339844 C 2.191406 -18.355469 2.195312 -18.367188 2.195312 -18.378906 C 2.195312 -18.378906 2.195312 -18.375 2.195312 -18.371094 L 2.195312 -0.539062 C 2.195312 -0.535156 2.195312 -0.535156 2.195312 -0.53125 C 2.195312 -0.542969 2.191406 -0.554688 2.183594 -0.570312 C 2.167969 -0.628906 2.132812 -0.683594 2.082031 -0.730469 C 2.035156 -0.78125 1.980469 -0.816406 1.921875 -0.835938 C 1.90625 -0.839844 1.894531 -0.84375 1.882812 -0.84375 C 1.882812 -0.84375 1.886719 -0.84375 1.890625 -0.84375 L 4.375 -0.84375 C 4.378906 -0.84375 4.382812 -0.84375 4.386719 -0.84375 C 4.386719 -0.84375 4.386719 -0.84375 4.382812 -0.84375 C 4.371094 -0.84375 4.359375 -0.839844 4.347656 -0.835938 C 4.289062 -0.816406 4.234375 -0.78125 4.183594 -0.730469 C 4.136719 -0.683594 4.101562 -0.628906 4.082031 -0.570312 C 4.078125 -0.554688 4.074219 -0.542969 4.074219 -0.53125 C 4.074219 -0.535156 4.074219 -0.535156 4.074219 -0.539062 L 4.074219 -12 L 5.773438 -12 L 8.46875 -0.652344 L 7.644531 -0.460938 L 8.457031 -0.699219 C 8.457031 -0.691406 8.457031 -0.691406 8.457031 -0.691406 C 8.457031 -0.695312 8.453125 -0.699219 8.449219 -0.707031 C 8.429688 -0.734375 8.40625 -0.761719 8.378906 -0.78125 C 8.324219 -0.824219 8.277344 -0.84375 8.238281 -0.84375 L 9.832031 -0.84375 C 9.792969 -0.84375 9.75 -0.824219 9.695312 -0.78125 C 9.664062 -0.761719 9.640625 -0.734375 9.625 -0.707031 C 9.621094 -0.699219 9.617188 -0.695312 9.617188 -0.691406 C 9.617188 -0.691406 9.617188 -0.691406 9.617188 -0.699219 L 10.429688 -0.460938 L 9.605469 -0.652344 L 12.300781 -12 L 14 -12 L 14 -0.539062 C 14 -0.535156 14 -0.535156 14 -0.53125 C 14 -0.542969 13.996094 -0.554688 13.992188 -0.570312 C 13.972656 -0.628906 13.9375 -0.683594 13.890625 -0.730469 C 13.839844 -0.78125 13.785156 -0.816406 13.726562 -0.835938 C 13.714844 -0.839844 13.699219 -0.84375 13.691406 -0.84375 C 13.6875 -0.84375 13.6875 -0.84375 13.6875 -0.84375 C 13.691406 -0.84375 13.691406 -0.84375 13.695312 -0.84375 L 16.210938 -0.84375 C 16.214844 -0.84375 16.214844 -0.84375 16.21875 -0.84375 C 16.21875 -0.84375 16.21875 -0.84375 16.214844 -0.84375 C 16.207031 -0.84375 16.191406 -0.839844 16.179688 -0.835938 C 16.121094 -0.816406 16.066406 -0.78125 16.019531 -0.730469 C 15.96875 -0.683594 15.933594 -0.628906 15.914062 -0.570312 C 15.910156 -0.554688 15.90625 -0.542969 15.90625 -0.53125 C 15.90625 -0.535156 15.90625 -0.535156 15.90625 -0.539062 L 15.90625 -18.371094 C 15.90625 -18.375 15.90625 -18.378906 15.90625 -18.378906 C 15.90625 -18.367188 15.910156 -18.355469 15.914062 -18.339844 C 15.933594 -18.28125 15.96875 -18.226562 16.019531 -18.179688 C 16.066406 -18.128906 16.121094 -18.097656 16.179688 -18.078125 C 16.191406 -18.070312 16.207031 -18.066406 16.214844 -18.066406 C 16.21875 -18.066406 16.21875 -18.066406 16.21875 -18.066406 C 16.214844 -18.066406 16.214844 -18.066406 16.210938 -18.066406 Z M 12.644531 -18.066406 "/></g></g><g style="fill:#b21a22;fill-opacity:1;"><g transform="translate(54.204051, 44.950115)"><path style="stroke:none" d="M 0.507812 -3.890625 L 0.507812 -15.019531 C 0.507812 -16.535156 0.921875 -17.703125 1.757812 -18.527344 C 2.589844 -19.34375 3.75 -19.753906 5.242188 -19.753906 L 8.265625 -19.753906 C 9.777344 -19.753906 10.945312 -19.34375 11.769531 -18.523438 C 12.589844 -17.699219 13 -16.53125 13 -15.019531 L 13 -3.890625 C 13 -2.398438 12.589844 -1.238281 11.773438 -0.40625 C 10.949219 0.425781 9.78125 0.84375 8.265625 0.84375 L 5.242188 0.84375 C 3.746094 0.84375 2.585938 0.429688 1.753906 -0.402344 C 0.921875 -1.234375 0.507812 -2.394531 0.507812 -3.890625 Z M 2.195312 -3.890625 C 2.195312 -2.863281 2.445312 -2.097656 2.949219 -1.597656 C 3.449219 -1.09375 4.214844 -0.84375 5.242188 -0.84375 L 8.265625 -0.84375 C 9.308594 -0.84375 10.078125 -1.09375 10.570312 -1.59375 C 11.066406 -2.09375 11.3125 -2.859375 11.3125 -3.890625 L 11.3125 -15.019531 C 11.3125 -16.066406 11.066406 -16.835938 10.574219 -17.328125 C 10.082031 -17.820312 9.3125 -18.066406 8.265625 -18.066406 L 5.242188 -18.066406 C 4.210938 -18.066406 3.445312 -17.820312 2.941406 -17.324219 C 2.445312 -16.832031 2.195312 -16.0625 2.195312 -15.019531 Z M 5.945312 -4.328125 L 7.671875 -4.328125 C 7.761719 -4.328125 7.828125 -4.335938 7.878906 -4.355469 C 7.886719 -4.355469 7.894531 -4.359375 7.898438 -4.359375 C 7.894531 -4.359375 7.890625 -4.355469 7.886719 -4.351562 C 7.882812 -4.347656 7.878906 -4.34375 7.878906 -4.339844 C 7.878906 -4.34375 7.882812 -4.351562 7.882812 -4.359375 C 7.902344 -4.410156 7.910156 -4.476562 7.910156 -4.566406 L 7.910156 -14.34375 C 7.910156 -14.433594 7.902344 -14.503906 7.882812 -14.550781 C 7.882812 -14.558594 7.878906 -14.566406 7.878906 -14.570312 C 7.878906 -14.566406 7.882812 -14.5625 7.886719 -14.558594 C 7.890625 -14.554688 7.894531 -14.550781 7.898438 -14.550781 C 7.894531 -14.550781 7.886719 -14.554688 7.878906 -14.558594 C 7.828125 -14.574219 7.761719 -14.582031 7.671875 -14.582031 L 5.945312 -14.582031 C 5.855469 -14.582031 5.785156 -14.574219 5.738281 -14.558594 C 5.730469 -14.554688 5.722656 -14.550781 5.71875 -14.550781 C 5.722656 -14.550781 5.726562 -14.554688 5.730469 -14.558594 C 5.734375 -14.5625 5.738281 -14.566406 5.738281 -14.570312 C 5.738281 -14.566406 5.734375 -14.558594 5.730469 -14.550781 C 5.714844 -14.503906 5.707031 -14.433594 5.707031 -14.34375 L 5.707031 -4.566406 C 5.707031 -4.476562 5.714844 -4.410156 5.730469 -4.359375 C 5.734375 -4.351562 5.738281 -4.34375 5.738281 -4.339844 C 5.738281 -4.34375 5.734375 -4.347656 5.730469 -4.351562 C 5.726562 -4.355469 5.722656 -4.359375 5.71875 -4.359375 C 5.722656 -4.359375 5.730469 -4.355469 5.738281 -4.355469 C 5.785156 -4.335938 5.855469 -4.328125 5.945312 -4.328125 Z M 5.945312 -2.640625 C 5.351562 -2.640625 4.882812 -2.8125 4.535156 -3.15625 C 4.191406 -3.503906 4.019531 -3.972656 4.019531 -4.566406 L 4.019531 -14.34375 C 4.019531 -14.9375 4.191406 -15.40625 4.535156 -15.753906 C 4.882812 -16.097656 5.351562 -16.269531 5.945312 -16.269531 L 7.671875 -16.269531 C 8.265625 -16.269531 8.734375 -16.097656 9.078125 -15.753906 C 9.425781 -15.40625 9.597656 -14.9375 9.597656 -14.34375 L 9.597656 -4.566406 C 9.597656 -3.972656 9.425781 -3.503906 9.078125 -3.15625 C 8.734375 -2.8125 8.265625 -2.640625 7.671875 -2.640625 Z M 5.945312 -2.640625 "/></g></g><g style="fill:#b21a22;fill-opacity:1;"><g transform="translate(67.707602, 44.950115)"><path style="stroke:none" d="M 9.914062 -19.753906 L 12.453125 -19.753906 C 12.832031 -19.753906 13.136719 -19.636719 13.375 -19.398438 C 13.613281 -19.164062 13.730469 -18.855469 13.730469 -18.480469 L 13.730469 -0.433594 C 13.730469 -0.0546875 13.613281 0.253906 13.375 0.488281 C 13.136719 0.726562 12.832031 0.84375 12.453125 0.84375 L 10.320312 0.84375 C 10.03125 0.84375 9.769531 0.761719 9.542969 0.597656 C 9.339844 0.453125 9.183594 0.253906 9.066406 0.00390625 L 9.832031 -0.351562 L 9.074219 0.0234375 L 3.996094 -10.296875 L 4.753906 -10.671875 L 5.597656 -10.671875 L 5.597656 -0.433594 C 5.597656 -0.0546875 5.480469 0.253906 5.242188 0.488281 C 5.007812 0.726562 4.699219 0.84375 4.324219 0.84375 L 1.78125 0.84375 C 1.40625 0.84375 1.097656 0.726562 0.863281 0.488281 C 0.625 0.253906 0.507812 -0.0546875 0.507812 -0.433594 L 0.507812 -18.480469 C 0.507812 -18.855469 0.625 -19.164062 0.863281 -19.398438 C 1.097656 -19.636719 1.40625 -19.753906 1.78125 -19.753906 L 3.917969 -19.753906 C 4.207031 -19.753906 4.464844 -19.671875 4.695312 -19.507812 C 4.894531 -19.363281 5.054688 -19.164062 5.171875 -18.914062 L 4.402344 -18.558594 L 5.160156 -18.933594 L 10.238281 -8.613281 L 9.484375 -8.238281 L 8.636719 -8.238281 L 8.636719 -18.480469 C 8.636719 -18.855469 8.757812 -19.164062 8.992188 -19.398438 C 9.230469 -19.636719 9.539062 -19.753906 9.914062 -19.753906 Z M 9.914062 -18.066406 C 9.933594 -18.066406 9.960938 -18.070312 9.992188 -18.082031 C 10.066406 -18.105469 10.128906 -18.148438 10.1875 -18.207031 C 10.246094 -18.265625 10.285156 -18.328125 10.308594 -18.402344 C 10.320312 -18.433594 10.328125 -18.460938 10.328125 -18.480469 L 10.328125 -8.238281 L 8.726562 -7.867188 L 3.640625 -18.195312 L 3.636719 -18.207031 C 3.644531 -18.1875 3.667969 -18.167969 3.707031 -18.140625 C 3.773438 -18.089844 3.84375 -18.066406 3.917969 -18.066406 L 1.78125 -18.066406 C 1.800781 -18.066406 1.828125 -18.070312 1.859375 -18.082031 C 1.933594 -18.105469 1.996094 -18.148438 2.054688 -18.207031 C 2.113281 -18.265625 2.15625 -18.328125 2.179688 -18.402344 C 2.191406 -18.433594 2.195312 -18.460938 2.195312 -18.480469 L 2.195312 -0.433594 C 2.195312 -0.453125 2.191406 -0.476562 2.179688 -0.511719 C 2.15625 -0.582031 2.113281 -0.648438 2.054688 -0.703125 C 1.996094 -0.761719 1.933594 -0.804688 1.859375 -0.828125 C 1.828125 -0.839844 1.800781 -0.84375 1.78125 -0.84375 L 4.324219 -0.84375 C 4.304688 -0.84375 4.277344 -0.839844 4.246094 -0.828125 C 4.171875 -0.804688 4.109375 -0.761719 4.050781 -0.703125 C 3.992188 -0.648438 3.949219 -0.582031 3.925781 -0.511719 C 3.914062 -0.476562 3.910156 -0.453125 3.910156 -0.433594 L 3.910156 -10.671875 L 5.511719 -11.042969 L 10.597656 -0.714844 L 10.601562 -0.703125 C 10.59375 -0.722656 10.570312 -0.746094 10.53125 -0.773438 C 10.464844 -0.820312 10.394531 -0.84375 10.320312 -0.84375 L 12.453125 -0.84375 C 12.433594 -0.84375 12.410156 -0.839844 12.375 -0.828125 C 12.304688 -0.804688 12.238281 -0.761719 12.179688 -0.703125 C 12.125 -0.648438 12.082031 -0.582031 12.058594 -0.511719 C 12.046875 -0.476562 12.042969 -0.453125 12.042969 -0.433594 L 12.042969 -18.480469 C 12.042969 -18.460938 12.046875 -18.433594 12.058594 -18.402344 C 12.082031 -18.328125 12.125 -18.265625 12.179688 -18.207031 C 12.238281 -18.148438 12.304688 -18.105469 12.375 -18.082031 C 12.410156 -18.070312 12.433594 -18.066406 12.453125 -18.066406 Z M 9.914062 -18.066406 "/></g></g><g style="fill:#b21a22;fill-opacity:1;"><g transform="translate(81.94035, 44.950115)"><path style="stroke:none" d="M 11.183594 -18.066406 L 1.242188 -18.066406 C 1.261719 -18.066406 1.289062 -18.070312 1.320312 -18.082031 C 1.394531 -18.105469 1.457031 -18.148438 1.515625 -18.207031 C 1.574219 -18.265625 1.613281 -18.328125 1.636719 -18.402344 C 1.648438 -18.433594 1.65625 -18.460938 1.65625 -18.480469 L 1.65625 -15.777344 C 1.65625 -15.796875 1.648438 -15.824219 1.636719 -15.855469 C 1.613281 -15.925781 1.574219 -15.992188 1.515625 -16.050781 C 1.457031 -16.109375 1.394531 -16.148438 1.320312 -16.171875 C 1.289062 -16.183594 1.261719 -16.1875 1.242188 -16.1875 L 5.222656 -16.1875 L 5.222656 -0.433594 C 5.222656 -0.453125 5.214844 -0.476562 5.203125 -0.511719 C 5.179688 -0.582031 5.140625 -0.648438 5.082031 -0.703125 C 5.023438 -0.761719 4.957031 -0.804688 4.886719 -0.828125 C 4.855469 -0.839844 4.828125 -0.84375 4.808594 -0.84375 L 7.617188 -0.84375 C 7.597656 -0.84375 7.574219 -0.839844 7.539062 -0.828125 C 7.46875 -0.804688 7.402344 -0.761719 7.34375 -0.703125 C 7.289062 -0.648438 7.246094 -0.582031 7.222656 -0.511719 C 7.210938 -0.476562 7.207031 -0.453125 7.207031 -0.433594 L 7.207031 -16.1875 L 11.183594 -16.1875 C 11.164062 -16.1875 11.140625 -16.183594 11.105469 -16.171875 C 11.035156 -16.148438 10.96875 -16.109375 10.910156 -16.050781 C 10.855469 -15.992188 10.8125 -15.925781 10.789062 -15.855469 C 10.777344 -15.824219 10.773438 -15.796875 10.773438 -15.777344 L 10.773438 -18.480469 C 10.773438 -18.460938 10.777344 -18.433594 10.789062 -18.402344 C 10.8125 -18.328125 10.855469 -18.265625 10.910156 -18.207031 C 10.96875 -18.148438 11.035156 -18.105469 11.105469 -18.082031 C 11.140625 -18.070312 11.164062 -18.066406 11.183594 -18.066406 Z M 11.183594 -19.753906 C 11.5625 -19.753906 11.867188 -19.636719 12.105469 -19.398438 C 12.34375 -19.164062 12.460938 -18.855469 12.460938 -18.480469 L 12.460938 -15.777344 C 12.460938 -15.398438 12.34375 -15.09375 12.105469 -14.855469 C 11.867188 -14.617188 11.5625 -14.5 11.183594 -14.5 L 8.050781 -14.5 L 8.050781 -15.34375 L 8.894531 -15.34375 L 8.894531 -0.433594 C 8.894531 -0.0546875 8.777344 0.253906 8.539062 0.488281 C 8.300781 0.726562 7.996094 0.84375 7.617188 0.84375 L 4.808594 0.84375 C 4.429688 0.84375 4.125 0.726562 3.886719 0.488281 C 3.652344 0.253906 3.53125 -0.0546875 3.53125 -0.433594 L 3.53125 -15.34375 L 4.375 -15.34375 L 4.375 -14.5 L 1.242188 -14.5 C 0.867188 -14.5 0.558594 -14.617188 0.320312 -14.855469 C 0.0859375 -15.09375 -0.0351562 -15.398438 -0.0351562 -15.777344 L -0.0351562 -18.480469 C -0.0351562 -18.855469 0.0859375 -19.164062 0.320312 -19.398438 C 0.558594 -19.636719 0.867188 -19.753906 1.242188 -19.753906 Z M 11.183594 -19.753906 "/></g></g><g style="fill:#b21a22;fill-opacity:1;"><g transform="translate(94.363619, 44.950115)"><path style="stroke:none" d="M 7.636719 -11.183594 L 7.636719 -18.480469 C 7.636719 -18.855469 7.757812 -19.164062 7.992188 -19.398438 C 8.230469 -19.636719 8.539062 -19.753906 8.914062 -19.753906 L 11.699219 -19.753906 C 12.074219 -19.753906 12.382812 -19.644531 12.621094 -19.417969 C 12.875 -19.179688 13 -18.867188 13 -18.480469 L 13 -0.433594 C 13 -0.046875 12.875 0.269531 12.621094 0.507812 C 12.382812 0.730469 12.074219 0.84375 11.699219 0.84375 L 8.914062 0.84375 C 8.539062 0.84375 8.230469 0.726562 7.992188 0.488281 C 7.757812 0.253906 7.636719 -0.0546875 7.636719 -0.433594 L 7.636719 -7.617188 L 8.484375 -7.617188 L 8.484375 -6.773438 L 5.023438 -6.773438 L 5.023438 -7.617188 L 5.871094 -7.617188 L 5.871094 -0.433594 C 5.871094 -0.0546875 5.75 0.253906 5.515625 0.488281 C 5.277344 0.726562 4.96875 0.84375 4.59375 0.84375 L 1.808594 0.84375 C 1.433594 0.84375 1.125 0.730469 0.886719 0.507812 C 0.632812 0.269531 0.507812 -0.046875 0.507812 -0.433594 L 0.507812 -18.480469 C 0.507812 -18.867188 0.632812 -19.179688 0.886719 -19.417969 C 1.125 -19.644531 1.433594 -19.753906 1.808594 -19.753906 L 4.59375 -19.753906 C 4.96875 -19.753906 5.277344 -19.636719 5.515625 -19.398438 C 5.75 -19.164062 5.871094 -18.855469 5.871094 -18.480469 L 5.871094 -11.183594 L 5.023438 -11.183594 L 5.023438 -12.027344 L 8.484375 -12.027344 L 8.484375 -11.183594 Z M 9.328125 -10.339844 L 4.179688 -10.339844 L 4.179688 -18.480469 C 4.179688 -18.460938 4.1875 -18.433594 4.195312 -18.402344 C 4.222656 -18.328125 4.261719 -18.265625 4.320312 -18.207031 C 4.378906 -18.148438 4.441406 -18.105469 4.515625 -18.082031 C 4.546875 -18.070312 4.574219 -18.066406 4.59375 -18.066406 L 1.808594 -18.066406 C 1.820312 -18.066406 1.835938 -18.070312 1.863281 -18.078125 C 1.925781 -18.097656 1.988281 -18.136719 2.042969 -18.1875 C 2.105469 -18.246094 2.148438 -18.3125 2.175781 -18.386719 C 2.1875 -18.421875 2.195312 -18.453125 2.195312 -18.480469 L 2.195312 -0.433594 C 2.195312 -0.457031 2.1875 -0.488281 2.175781 -0.523438 C 2.148438 -0.597656 2.105469 -0.664062 2.042969 -0.722656 C 1.988281 -0.773438 1.925781 -0.8125 1.863281 -0.832031 C 1.835938 -0.839844 1.820312 -0.84375 1.808594 -0.84375 L 4.59375 -0.84375 C 4.574219 -0.84375 4.546875 -0.839844 4.515625 -0.828125 C 4.441406 -0.804688 4.378906 -0.761719 4.320312 -0.703125 C 4.261719 -0.648438 4.222656 -0.582031 4.195312 -0.511719 C 4.1875 -0.476562 4.179688 -0.453125 4.179688 -0.433594 L 4.179688 -8.460938 L 9.328125 -8.460938 L 9.328125 -0.433594 C 9.328125 -0.453125 9.320312 -0.476562 9.3125 -0.511719 C 9.285156 -0.582031 9.246094 -0.648438 9.1875 -0.703125 C 9.128906 -0.761719 9.066406 -0.804688 8.992188 -0.828125 C 8.960938 -0.839844 8.933594 -0.84375 8.914062 -0.84375 L 11.699219 -0.84375 C 11.6875 -0.84375 11.671875 -0.839844 11.644531 -0.832031 C 11.582031 -0.8125 11.519531 -0.773438 11.464844 -0.722656 C 11.402344 -0.664062 11.359375 -0.597656 11.332031 -0.523438 C 11.320312 -0.488281 11.3125 -0.457031 11.3125 -0.433594 L 11.3125 -18.480469 C 11.3125 -18.453125 11.320312 -18.421875 11.332031 -18.386719 C 11.359375 -18.3125 11.402344 -18.246094 11.464844 -18.1875 C 11.519531 -18.136719 11.582031 -18.097656 11.644531 -18.078125 C 11.671875 -18.070312 11.6875 -18.066406 11.699219 -18.066406 L 8.914062 -18.066406 C 8.933594 -18.066406 8.960938 -18.070312 8.992188 -18.082031 C 9.066406 -18.105469 9.128906 -18.148438 9.1875 -18.207031 C 9.246094 -18.265625 9.285156 -18.328125 9.3125 -18.402344 C 9.320312 -18.433594 9.328125 -18.460938 9.328125 -18.480469 Z M 9.328125 -10.339844 "/></g></g><g style="fill:#b21a22;fill-opacity:1;"><g transform="translate(30.80204, 82.614508)"><path style="stroke:none" d="M 0.507812 -8.484375 L 0.507812 -10.96875 C 0.507812 -11.382812 0.632812 -11.714844 0.890625 -11.96875 C 1.144531 -12.226562 1.476562 -12.351562 1.890625 -12.351562 L 6.160156 -12.351562 C 6.574219 -12.351562 6.90625 -12.226562 7.160156 -11.96875 C 7.417969 -11.714844 7.542969 -11.382812 7.542969 -10.96875 L 7.542969 -8.484375 C 7.542969 -8.070312 7.417969 -7.734375 7.160156 -7.480469 C 6.90625 -7.226562 6.574219 -7.097656 6.160156 -7.097656 L 1.890625 -7.097656 C 1.476562 -7.097656 1.144531 -7.226562 0.890625 -7.480469 C 0.632812 -7.734375 0.507812 -8.070312 0.507812 -8.484375 Z M 2.195312 -8.484375 C 2.195312 -8.480469 2.195312 -8.476562 2.195312 -8.472656 C 2.195312 -8.472656 2.195312 -8.472656 2.195312 -8.476562 C 2.195312 -8.488281 2.191406 -8.5 2.183594 -8.511719 C 2.167969 -8.570312 2.132812 -8.625 2.082031 -8.675781 C 2.035156 -8.722656 1.980469 -8.757812 1.921875 -8.777344 C 1.90625 -8.78125 1.894531 -8.785156 1.882812 -8.785156 C 1.882812 -8.785156 1.882812 -8.789062 1.882812 -8.789062 C 1.882812 -8.785156 1.886719 -8.785156 1.890625 -8.785156 L 6.160156 -8.785156 C 6.164062 -8.785156 6.167969 -8.785156 6.167969 -8.789062 C 6.167969 -8.789062 6.167969 -8.785156 6.167969 -8.785156 C 6.15625 -8.785156 6.144531 -8.78125 6.128906 -8.777344 C 6.070312 -8.757812 6.015625 -8.722656 5.96875 -8.675781 C 5.917969 -8.625 5.882812 -8.570312 5.863281 -8.511719 C 5.859375 -8.5 5.855469 -8.488281 5.855469 -8.476562 C 5.855469 -8.472656 5.855469 -8.472656 5.855469 -8.472656 C 5.855469 -8.476562 5.855469 -8.480469 5.855469 -8.484375 L 5.855469 -10.96875 C 5.855469 -10.972656 5.855469 -10.976562 5.855469 -10.976562 C 5.855469 -10.964844 5.859375 -10.953125 5.863281 -10.9375 C 5.882812 -10.878906 5.917969 -10.824219 5.96875 -10.777344 C 6.015625 -10.726562 6.070312 -10.695312 6.128906 -10.675781 C 6.144531 -10.667969 6.15625 -10.664062 6.167969 -10.664062 C 6.167969 -10.664062 6.164062 -10.664062 6.160156 -10.664062 L 1.890625 -10.664062 C 1.886719 -10.664062 1.882812 -10.664062 1.882812 -10.664062 C 1.894531 -10.664062 1.90625 -10.667969 1.921875 -10.675781 C 1.980469 -10.695312 2.035156 -10.726562 2.082031 -10.777344 C 2.132812 -10.824219 2.167969 -10.878906 2.183594 -10.9375 C 2.191406 -10.953125 2.195312 -10.964844 2.195312 -10.976562 C 2.195312 -10.976562 2.195312 -10.972656 2.195312 -10.96875 Z M 2.195312 -8.484375 "/></g></g><g style="fill:#b21a22;fill-opacity:1;"><g transform="translate(38.850154, 82.614508)"><path style="stroke:none" d="M 5.242188 -19.753906 L 8.265625 -19.753906 C 9.777344 -19.753906 10.945312 -19.34375 11.769531 -18.523438 C 12.589844 -17.699219 13 -16.53125 13 -15.019531 L 13 -13.238281 C 13 -12.859375 12.882812 -12.554688 12.644531 -12.316406 C 12.410156 -12.078125 12.101562 -11.960938 11.726562 -11.960938 L 8.996094 -11.960938 C 8.617188 -11.960938 8.3125 -12.078125 8.074219 -12.316406 C 7.839844 -12.554688 7.71875 -12.859375 7.71875 -13.238281 L 7.71875 -14.371094 C 7.71875 -14.460938 7.710938 -14.53125 7.695312 -14.578125 C 7.691406 -14.585938 7.691406 -14.59375 7.6875 -14.597656 C 7.691406 -14.59375 7.691406 -14.589844 7.695312 -14.585938 C 7.699219 -14.582031 7.703125 -14.578125 7.707031 -14.578125 C 7.703125 -14.578125 7.699219 -14.582031 7.6875 -14.585938 C 7.640625 -14.601562 7.570312 -14.609375 7.484375 -14.609375 L 5.996094 -14.609375 C 5.910156 -14.609375 5.839844 -14.601562 5.792969 -14.585938 C 5.78125 -14.582031 5.777344 -14.578125 5.773438 -14.578125 C 5.777344 -14.578125 5.78125 -14.582031 5.785156 -14.585938 C 5.789062 -14.589844 5.789062 -14.59375 5.792969 -14.597656 C 5.789062 -14.59375 5.789062 -14.585938 5.785156 -14.578125 C 5.769531 -14.53125 5.761719 -14.460938 5.761719 -14.371094 L 5.761719 -12.074219 L 4.917969 -12.074219 L 5.175781 -12.878906 L 11.714844 -10.773438 C 12.132812 -10.628906 12.449219 -10.398438 12.671875 -10.082031 C 12.890625 -9.769531 13 -9.398438 13 -8.96875 L 13 -3.890625 C 13 -2.398438 12.589844 -1.238281 11.773438 -0.40625 C 10.949219 0.425781 9.78125 0.84375 8.265625 0.84375 L 5.242188 0.84375 C 3.746094 0.84375 2.585938 0.429688 1.753906 -0.402344 C 0.921875 -1.234375 0.507812 -2.394531 0.507812 -3.890625 L 0.507812 -5.644531 C 0.507812 -6.023438 0.625 -6.332031 0.863281 -6.566406 C 1.097656 -6.804688 1.40625 -6.921875 1.78125 -6.921875 L 4.511719 -6.921875 C 4.890625 -6.921875 5.195312 -6.804688 5.433594 -6.566406 C 5.667969 -6.332031 5.789062 -6.023438 5.789062 -5.644531 L 5.789062 -4.511719 C 5.789062 -4.421875 5.796875 -4.355469 5.8125 -4.304688 C 5.816406 -4.296875 5.816406 -4.289062 5.820312 -4.289062 C 5.816406 -4.289062 5.816406 -4.292969 5.8125 -4.296875 C 5.808594 -4.300781 5.804688 -4.304688 5.800781 -4.308594 C 5.804688 -4.304688 5.808594 -4.300781 5.820312 -4.300781 C 5.867188 -4.285156 5.9375 -4.273438 6.023438 -4.273438 L 7.484375 -4.273438 C 7.570312 -4.273438 7.640625 -4.285156 7.6875 -4.300781 C 7.699219 -4.300781 7.703125 -4.304688 7.707031 -4.308594 C 7.703125 -4.304688 7.699219 -4.300781 7.695312 -4.296875 C 7.691406 -4.292969 7.691406 -4.289062 7.6875 -4.289062 C 7.691406 -4.289062 7.691406 -4.296875 7.695312 -4.304688 C 7.710938 -4.355469 7.71875 -4.421875 7.71875 -4.511719 L 7.71875 -7.238281 L 8.5625 -7.238281 L 8.304688 -6.4375 L 1.820312 -8.542969 C 1.402344 -8.683594 1.078125 -8.910156 0.851562 -9.222656 C 0.621094 -9.535156 0.507812 -9.910156 0.507812 -10.347656 L 0.507812 -15.019531 C 0.507812 -16.535156 0.921875 -17.703125 1.757812 -18.527344 C 2.589844 -19.34375 3.75 -19.753906 5.242188 -19.753906 Z M 5.242188 -18.066406 C 4.210938 -18.066406 3.445312 -17.820312 2.941406 -17.324219 C 2.445312 -16.832031 2.195312 -16.0625 2.195312 -15.019531 L 2.195312 -10.347656 C 2.195312 -10.277344 2.203125 -10.234375 2.214844 -10.214844 C 2.230469 -10.195312 2.273438 -10.171875 2.339844 -10.148438 L 9.410156 -7.855469 L 9.410156 -4.511719 C 9.410156 -3.917969 9.234375 -3.449219 8.890625 -3.105469 C 8.546875 -2.757812 8.078125 -2.585938 7.484375 -2.585938 L 6.023438 -2.585938 C 5.429688 -2.585938 4.960938 -2.757812 4.617188 -3.105469 C 4.273438 -3.449219 4.097656 -3.917969 4.097656 -4.511719 L 4.097656 -5.644531 C 4.097656 -5.628906 4.105469 -5.601562 4.117188 -5.570312 C 4.140625 -5.496094 4.179688 -5.429688 4.238281 -5.375 C 4.296875 -5.316406 4.363281 -5.273438 4.433594 -5.25 C 4.464844 -5.238281 4.492188 -5.234375 4.511719 -5.234375 L 1.78125 -5.234375 C 1.800781 -5.234375 1.828125 -5.238281 1.859375 -5.25 C 1.933594 -5.273438 1.996094 -5.316406 2.054688 -5.375 C 2.113281 -5.429688 2.15625 -5.496094 2.179688 -5.570312 C 2.191406 -5.601562 2.195312 -5.628906 2.195312 -5.644531 L 2.195312 -3.890625 C 2.195312 -2.863281 2.445312 -2.097656 2.949219 -1.597656 C 3.449219 -1.09375 4.214844 -0.84375 5.242188 -0.84375 L 8.265625 -0.84375 C 9.308594 -0.84375 10.078125 -1.09375 10.570312 -1.59375 C 11.066406 -2.09375 11.3125 -2.859375 11.3125 -3.890625 L 11.3125 -8.96875 C 11.3125 -9.042969 11.304688 -9.089844 11.289062 -9.113281 C 11.277344 -9.128906 11.246094 -9.148438 11.195312 -9.164062 L 4.074219 -11.460938 L 4.074219 -14.371094 C 4.074219 -14.964844 4.246094 -15.433594 4.589844 -15.78125 C 4.933594 -16.125 5.402344 -16.296875 5.996094 -16.296875 L 7.484375 -16.296875 C 8.078125 -16.296875 8.546875 -16.125 8.890625 -15.78125 C 9.234375 -15.433594 9.410156 -14.964844 9.410156 -14.371094 L 9.410156 -13.238281 C 9.410156 -13.257812 9.402344 -13.28125 9.390625 -13.316406 C 9.367188 -13.386719 9.328125 -13.453125 9.269531 -13.511719 C 9.210938 -13.570312 9.144531 -13.609375 9.074219 -13.632812 C 9.042969 -13.644531 9.015625 -13.648438 8.996094 -13.648438 L 11.726562 -13.648438 C 11.707031 -13.648438 11.679688 -13.644531 11.648438 -13.632812 C 11.574219 -13.609375 11.511719 -13.570312 11.453125 -13.511719 C 11.394531 -13.453125 11.351562 -13.386719 11.328125 -13.316406 C 11.316406 -13.28125 11.3125 -13.257812 11.3125 -13.238281 L 11.3125 -15.019531 C 11.3125 -16.066406 11.066406 -16.835938 10.574219 -17.328125 C 10.082031 -17.820312 9.3125 -18.066406 8.265625 -18.066406 Z M 5.242188 -18.066406 "/></g></g><g style="fill:#b21a22;fill-opacity:1;"><g transform="translate(52.353705, 82.614508)"><path style="stroke:none" d="M 12.972656 -18.480469 L 12.972656 -15.777344 C 12.972656 -15.402344 12.863281 -15.09375 12.636719 -14.855469 C 12.398438 -14.601562 12.085938 -14.472656 11.699219 -14.472656 L 5.023438 -14.472656 L 5.023438 -15.316406 L 5.871094 -15.316406 L 5.871094 -11.15625 L 5.023438 -11.15625 L 5.023438 -12 L 10.105469 -12 C 10.492188 -12 10.804688 -11.875 11.042969 -11.621094 C 11.269531 -11.382812 11.378906 -11.074219 11.378906 -10.699219 L 11.378906 -8.023438 C 11.378906 -7.648438 11.269531 -7.339844 11.042969 -7.101562 C 10.804688 -6.847656 10.492188 -6.71875 10.105469 -6.71875 L 5.023438 -6.71875 L 5.023438 -7.5625 L 5.871094 -7.5625 L 5.871094 -3.566406 L 5.023438 -3.566406 L 5.023438 -4.410156 L 11.699219 -4.410156 C 12.074219 -4.410156 12.382812 -4.292969 12.617188 -4.054688 C 12.855469 -3.816406 12.972656 -3.511719 12.972656 -3.132812 L 12.972656 -0.433594 C 12.972656 -0.0546875 12.855469 0.253906 12.617188 0.488281 C 12.382812 0.726562 12.074219 0.84375 11.699219 0.84375 L 1.757812 0.84375 C 1.378906 0.84375 1.070312 0.71875 0.835938 0.46875 C 0.617188 0.234375 0.507812 -0.0664062 0.507812 -0.433594 L 0.507812 -18.480469 C 0.507812 -18.84375 0.617188 -19.144531 0.835938 -19.378906 C 1.070312 -19.628906 1.378906 -19.753906 1.757812 -19.753906 L 11.699219 -19.753906 C 12.074219 -19.753906 12.382812 -19.636719 12.617188 -19.398438 C 12.855469 -19.164062 12.972656 -18.855469 12.972656 -18.480469 Z M 11.285156 -18.480469 C 11.285156 -18.460938 11.292969 -18.433594 11.300781 -18.402344 C 11.324219 -18.328125 11.367188 -18.265625 11.425781 -18.207031 C 11.484375 -18.148438 11.546875 -18.105469 11.621094 -18.082031 C 11.652344 -18.070312 11.679688 -18.066406 11.699219 -18.066406 L 1.757812 -18.066406 C 1.863281 -18.066406 1.96875 -18.121094 2.066406 -18.226562 C 2.121094 -18.285156 2.160156 -18.347656 2.183594 -18.414062 C 2.191406 -18.445312 2.195312 -18.464844 2.195312 -18.480469 L 2.195312 -0.433594 C 2.195312 -0.445312 2.191406 -0.46875 2.183594 -0.496094 C 2.160156 -0.5625 2.121094 -0.628906 2.066406 -0.683594 C 1.96875 -0.792969 1.863281 -0.84375 1.757812 -0.84375 L 11.699219 -0.84375 C 11.679688 -0.84375 11.652344 -0.839844 11.621094 -0.828125 C 11.546875 -0.804688 11.484375 -0.761719 11.425781 -0.703125 C 11.367188 -0.648438 11.324219 -0.582031 11.300781 -0.511719 C 11.292969 -0.476562 11.285156 -0.453125 11.285156 -0.433594 L 11.285156 -3.132812 C 11.285156 -3.113281 11.292969 -3.089844 11.300781 -3.054688 C 11.324219 -2.984375 11.367188 -2.917969 11.425781 -2.859375 C 11.484375 -2.804688 11.546875 -2.761719 11.621094 -2.738281 C 11.652344 -2.726562 11.679688 -2.722656 11.699219 -2.722656 L 4.179688 -2.722656 L 4.179688 -8.410156 L 10.105469 -8.410156 C 10.078125 -8.410156 10.046875 -8.402344 10.011719 -8.390625 C 9.9375 -8.363281 9.871094 -8.320312 9.8125 -8.257812 C 9.761719 -8.203125 9.722656 -8.140625 9.703125 -8.074219 C 9.695312 -8.050781 9.691406 -8.035156 9.691406 -8.023438 L 9.691406 -10.699219 C 9.691406 -10.6875 9.695312 -10.671875 9.703125 -10.644531 C 9.722656 -10.582031 9.761719 -10.519531 9.8125 -10.464844 C 9.871094 -10.402344 9.9375 -10.359375 10.011719 -10.332031 C 10.046875 -10.320312 10.078125 -10.3125 10.105469 -10.3125 L 4.179688 -10.3125 L 4.179688 -16.164062 L 11.699219 -16.164062 C 11.671875 -16.164062 11.640625 -16.15625 11.605469 -16.140625 C 11.53125 -16.117188 11.464844 -16.074219 11.40625 -16.011719 C 11.355469 -15.957031 11.316406 -15.894531 11.296875 -15.828125 C 11.289062 -15.804688 11.285156 -15.785156 11.285156 -15.777344 Z M 11.285156 -18.480469 "/></g></g><g style="fill:#b21a22;fill-opacity:1;"><g transform="translate(65.830245, 82.614508)"><path style="stroke:none" d="M 13 -15.019531 L 13 -9.589844 C 13 -7.710938 12.363281 -6.375 11.089844 -5.578125 L 10.644531 -6.292969 L 11.464844 -6.492188 L 12.871094 -0.683594 L 12.050781 -0.484375 L 12.863281 -0.710938 C 12.984375 -0.277344 12.925781 0.09375 12.6875 0.398438 C 12.457031 0.695312 12.117188 0.84375 11.671875 0.84375 L 9.023438 0.84375 C 8.695312 0.84375 8.414062 0.75 8.183594 0.558594 C 7.953125 0.371094 7.804688 0.117188 7.738281 -0.203125 L 8.5625 -0.378906 L 7.742188 -0.179688 L 6.445312 -5.5 L 7.265625 -5.699219 L 7.265625 -4.855469 L 4.863281 -4.855469 L 4.863281 -5.699219 L 5.707031 -5.699219 L 5.707031 -0.433594 C 5.707031 -0.0546875 5.589844 0.253906 5.351562 0.488281 C 5.113281 0.726562 4.808594 0.84375 4.429688 0.84375 L 1.78125 0.84375 C 1.40625 0.84375 1.097656 0.726562 0.863281 0.488281 C 0.625 0.253906 0.507812 -0.0546875 0.507812 -0.433594 L 0.507812 -18.480469 C 0.507812 -18.855469 0.625 -19.164062 0.863281 -19.398438 C 1.097656 -19.636719 1.40625 -19.753906 1.78125 -19.753906 L 8.265625 -19.753906 C 9.777344 -19.753906 10.945312 -19.34375 11.769531 -18.523438 C 12.589844 -17.699219 13 -16.53125 13 -15.019531 Z M 11.3125 -15.019531 C 11.3125 -16.066406 11.066406 -16.835938 10.574219 -17.328125 C 10.082031 -17.820312 9.3125 -18.066406 8.265625 -18.066406 L 1.78125 -18.066406 C 1.800781 -18.066406 1.828125 -18.070312 1.859375 -18.082031 C 1.933594 -18.105469 1.996094 -18.148438 2.054688 -18.207031 C 2.113281 -18.265625 2.15625 -18.328125 2.179688 -18.402344 C 2.191406 -18.433594 2.195312 -18.460938 2.195312 -18.480469 L 2.195312 -0.433594 C 2.195312 -0.453125 2.191406 -0.476562 2.179688 -0.511719 C 2.15625 -0.582031 2.113281 -0.648438 2.054688 -0.703125 C 1.996094 -0.761719 1.933594 -0.804688 1.859375 -0.828125 C 1.828125 -0.839844 1.800781 -0.84375 1.78125 -0.84375 L 4.429688 -0.84375 C 4.410156 -0.84375 4.386719 -0.839844 4.351562 -0.828125 C 4.28125 -0.804688 4.214844 -0.761719 4.15625 -0.703125 C 4.101562 -0.648438 4.058594 -0.582031 4.035156 -0.511719 C 4.023438 -0.476562 4.019531 -0.453125 4.019531 -0.433594 L 4.019531 -6.542969 L 7.929688 -6.542969 L 9.386719 -0.566406 L 9.390625 -0.554688 C 9.375 -0.621094 9.332031 -0.683594 9.257812 -0.746094 C 9.175781 -0.8125 9.097656 -0.84375 9.023438 -0.84375 L 11.671875 -0.84375 C 11.652344 -0.839844 11.632812 -0.835938 11.609375 -0.828125 C 11.511719 -0.792969 11.425781 -0.730469 11.355469 -0.640625 C 11.28125 -0.546875 11.242188 -0.445312 11.234375 -0.335938 C 11.230469 -0.300781 11.230469 -0.273438 11.234375 -0.261719 L 11.230469 -0.273438 L 9.679688 -6.6875 L 10.195312 -7.011719 C 10.941406 -7.476562 11.3125 -8.335938 11.3125 -9.589844 Z M 4.863281 -10.03125 L 7.5625 -10.03125 C 7.652344 -10.03125 7.722656 -10.039062 7.769531 -10.054688 C 7.777344 -10.058594 7.785156 -10.058594 7.789062 -10.0625 C 7.785156 -10.058594 7.78125 -10.054688 7.777344 -10.050781 C 7.773438 -10.046875 7.769531 -10.046875 7.769531 -10.042969 C 7.769531 -10.046875 7.773438 -10.050781 7.777344 -10.058594 C 7.792969 -10.109375 7.800781 -10.175781 7.800781 -10.265625 L 7.800781 -14.34375 C 7.800781 -14.433594 7.792969 -14.503906 7.777344 -14.550781 C 7.773438 -14.558594 7.769531 -14.566406 7.769531 -14.570312 C 7.769531 -14.566406 7.773438 -14.5625 7.777344 -14.558594 C 7.78125 -14.554688 7.785156 -14.550781 7.789062 -14.550781 C 7.785156 -14.550781 7.777344 -14.554688 7.769531 -14.558594 C 7.722656 -14.574219 7.652344 -14.582031 7.5625 -14.582031 L 4.863281 -14.582031 L 4.863281 -15.425781 L 5.707031 -15.425781 L 5.707031 -9.183594 L 4.863281 -9.183594 Z M 4.019531 -8.339844 L 4.019531 -16.269531 L 7.5625 -16.269531 C 8.15625 -16.269531 8.625 -16.097656 8.972656 -15.753906 C 9.316406 -15.40625 9.488281 -14.9375 9.488281 -14.34375 L 9.488281 -10.265625 C 9.488281 -9.671875 9.316406 -9.203125 8.972656 -8.859375 C 8.625 -8.511719 8.15625 -8.339844 7.5625 -8.339844 Z M 4.019531 -8.339844 "/></g></g><g style="fill:#b21a22;fill-opacity:1;"><g transform="translate(79.333796, 82.614508)"><path style="stroke:none" d="M 1.78125 -0.84375 L 4.59375 -0.84375 C 4.574219 -0.84375 4.546875 -0.839844 4.515625 -0.828125 C 4.441406 -0.804688 4.378906 -0.761719 4.320312 -0.703125 C 4.261719 -0.648438 4.222656 -0.582031 4.195312 -0.511719 C 4.1875 -0.476562 4.179688 -0.453125 4.179688 -0.433594 L 4.179688 -18.480469 C 4.179688 -18.460938 4.1875 -18.433594 4.195312 -18.402344 C 4.222656 -18.328125 4.261719 -18.265625 4.320312 -18.207031 C 4.378906 -18.148438 4.441406 -18.105469 4.515625 -18.082031 C 4.546875 -18.070312 4.574219 -18.066406 4.59375 -18.066406 L 1.78125 -18.066406 C 1.800781 -18.066406 1.828125 -18.070312 1.859375 -18.082031 C 1.933594 -18.105469 1.996094 -18.148438 2.054688 -18.207031 C 2.113281 -18.265625 2.15625 -18.328125 2.179688 -18.402344 C 2.191406 -18.433594 2.195312 -18.460938 2.195312 -18.480469 L 2.195312 -0.433594 C 2.195312 -0.453125 2.191406 -0.476562 2.179688 -0.511719 C 2.15625 -0.582031 2.113281 -0.648438 2.054688 -0.703125 C 1.996094 -0.761719 1.933594 -0.804688 1.859375 -0.828125 C 1.828125 -0.839844 1.800781 -0.84375 1.78125 -0.84375 Z M 1.78125 0.84375 C 1.40625 0.84375 1.097656 0.726562 0.863281 0.488281 C 0.625 0.253906 0.507812 -0.0546875 0.507812 -0.433594 L 0.507812 -18.480469 C 0.507812 -18.855469 0.625 -19.164062 0.863281 -19.398438 C 1.097656 -19.636719 1.40625 -19.753906 1.78125 -19.753906 L 4.59375 -19.753906 C 4.96875 -19.753906 5.277344 -19.636719 5.515625 -19.398438 C 5.75 -19.164062 5.871094 -18.855469 5.871094 -18.480469 L 5.871094 -0.433594 C 5.871094 -0.0546875 5.75 0.253906 5.515625 0.488281 C 5.277344 0.726562 4.96875 0.84375 4.59375 0.84375 Z M 1.78125 0.84375 "/></g></g><g style="fill:#b21a22;fill-opacity:1;"><g transform="translate(85.707468, 82.614508)"><path style="stroke:none" d="M 14.101562 0.84375 L 11.480469 0.84375 C 11.152344 0.84375 10.875 0.742188 10.640625 0.539062 C 10.429688 0.355469 10.289062 0.105469 10.222656 -0.203125 L 11.050781 -0.378906 L 10.230469 -0.171875 L 9.367188 -3.574219 L 10.183594 -3.78125 L 10.183594 -2.9375 L 5.105469 -2.9375 L 5.105469 -3.78125 L 5.925781 -3.582031 L 5.089844 -0.175781 L 4.269531 -0.378906 L 5.09375 -0.203125 C 5.027344 0.105469 4.886719 0.355469 4.675781 0.539062 C 4.445312 0.742188 4.164062 0.84375 3.835938 0.84375 L 1.1875 0.84375 C 0.75 0.84375 0.414062 0.695312 0.1875 0.398438 C -0.0429688 0.09375 -0.0976562 -0.269531 0.0273438 -0.699219 L 0.835938 -0.460938 L 0.0195312 -0.664062 L 4.503906 -18.734375 L 5.320312 -18.53125 L 4.496094 -18.710938 C 4.566406 -19.027344 4.710938 -19.28125 4.941406 -19.46875 C 5.171875 -19.660156 5.453125 -19.753906 5.78125 -19.753906 L 9.535156 -19.753906 C 9.863281 -19.753906 10.144531 -19.660156 10.378906 -19.46875 C 10.605469 -19.28125 10.753906 -19.027344 10.820312 -18.710938 L 9.996094 -18.53125 L 10.816406 -18.734375 L 15.300781 -0.664062 L 14.480469 -0.460938 L 15.289062 -0.699219 C 15.417969 -0.257812 15.359375 0.113281 15.105469 0.421875 C 14.875 0.703125 14.539062 0.84375 14.101562 0.84375 Z M 14.101562 -0.84375 C 14.105469 -0.84375 14.109375 -0.84375 14.113281 -0.84375 C 14.113281 -0.84375 14.109375 -0.84375 14.109375 -0.84375 C 14.09375 -0.84375 14.074219 -0.835938 14.054688 -0.832031 C 13.957031 -0.800781 13.875 -0.738281 13.800781 -0.652344 C 13.71875 -0.554688 13.675781 -0.445312 13.664062 -0.324219 C 13.660156 -0.277344 13.664062 -0.242188 13.671875 -0.222656 L 13.664062 -0.238281 L 9.171875 -18.34375 L 9.171875 -18.355469 C 9.183594 -18.289062 9.230469 -18.226562 9.304688 -18.164062 C 9.382812 -18.097656 9.460938 -18.066406 9.535156 -18.066406 L 5.78125 -18.066406 C 5.855469 -18.066406 5.933594 -18.097656 6.015625 -18.164062 C 6.089844 -18.226562 6.132812 -18.289062 6.148438 -18.355469 L 6.144531 -18.34375 L 1.652344 -0.238281 L 1.648438 -0.222656 C 1.652344 -0.238281 1.652344 -0.265625 1.652344 -0.308594 C 1.644531 -0.421875 1.605469 -0.527344 1.527344 -0.628906 C 1.453125 -0.722656 1.367188 -0.789062 1.261719 -0.828125 C 1.226562 -0.839844 1.203125 -0.84375 1.1875 -0.84375 L 3.835938 -0.84375 C 3.742188 -0.84375 3.652344 -0.804688 3.5625 -0.730469 C 3.496094 -0.671875 3.453125 -0.613281 3.441406 -0.554688 L 3.445312 -0.566406 L 4.445312 -4.625 L 10.839844 -4.625 L 11.871094 -0.570312 L 11.875 -0.554688 C 11.863281 -0.613281 11.824219 -0.671875 11.753906 -0.730469 C 11.667969 -0.804688 11.574219 -0.84375 11.480469 -0.84375 Z M 8.523438 -6.726562 L 6.824219 -14.074219 L 7.644531 -14.265625 L 8.46875 -14.074219 L 6.765625 -6.726562 L 5.945312 -6.914062 L 5.945312 -7.761719 L 9.347656 -7.761719 L 9.347656 -6.914062 Z M 10.410156 -6.070312 L 4.882812 -6.070312 L 6.824219 -14.453125 L 8.46875 -14.453125 L 10.171875 -7.105469 Z M 10.410156 -6.070312 "/></g></g><g style="fill:#b21a22;fill-opacity:1;"><g transform="translate(101.020499, 82.614508)"><path style="stroke:none" d="M 4.179688 -3.566406 L 4.179688 -18.480469 C 4.179688 -18.460938 4.1875 -18.433594 4.195312 -18.402344 C 4.222656 -18.328125 4.261719 -18.265625 4.320312 -18.207031 C 4.378906 -18.148438 4.441406 -18.105469 4.515625 -18.082031 C 4.546875 -18.070312 4.574219 -18.066406 4.59375 -18.066406 L 1.78125 -18.066406 C 1.800781 -18.066406 1.828125 -18.070312 1.859375 -18.082031 C 1.933594 -18.105469 1.996094 -18.148438 2.054688 -18.207031 C 2.113281 -18.265625 2.15625 -18.328125 2.179688 -18.402344 C 2.191406 -18.433594 2.195312 -18.460938 2.195312 -18.480469 L 2.195312 -0.433594 C 2.195312 -0.453125 2.191406 -0.476562 2.179688 -0.511719 C 2.15625 -0.582031 2.113281 -0.648438 2.054688 -0.703125 C 1.996094 -0.761719 1.933594 -0.804688 1.859375 -0.828125 C 1.828125 -0.839844 1.800781 -0.84375 1.78125 -0.84375 L 10.375 -0.84375 C 10.355469 -0.84375 10.328125 -0.839844 10.296875 -0.828125 C 10.222656 -0.804688 10.160156 -0.761719 10.101562 -0.703125 C 10.042969 -0.648438 10.003906 -0.582031 9.976562 -0.511719 C 9.96875 -0.476562 9.960938 -0.453125 9.960938 -0.433594 L 9.960938 -3.132812 C 9.960938 -3.113281 9.96875 -3.089844 9.976562 -3.054688 C 10.003906 -2.984375 10.042969 -2.917969 10.101562 -2.859375 C 10.160156 -2.804688 10.222656 -2.761719 10.296875 -2.738281 C 10.328125 -2.726562 10.355469 -2.722656 10.375 -2.722656 L 4.179688 -2.722656 Z M 5.871094 -3.566406 L 5.023438 -3.566406 L 5.023438 -4.410156 L 10.375 -4.410156 C 10.75 -4.410156 11.058594 -4.292969 11.296875 -4.054688 C 11.53125 -3.816406 11.652344 -3.511719 11.652344 -3.132812 L 11.652344 -0.433594 C 11.652344 -0.0546875 11.53125 0.253906 11.296875 0.488281 C 11.058594 0.726562 10.75 0.84375 10.375 0.84375 L 1.78125 0.84375 C 1.40625 0.84375 1.097656 0.726562 0.863281 0.488281 C 0.625 0.253906 0.507812 -0.0546875 0.507812 -0.433594 L 0.507812 -18.480469 C 0.507812 -18.855469 0.625 -19.164062 0.863281 -19.398438 C 1.097656 -19.636719 1.40625 -19.753906 1.78125 -19.753906 L 4.59375 -19.753906 C 4.96875 -19.753906 5.277344 -19.636719 5.515625 -19.398438 C 5.75 -19.164062 5.871094 -18.855469 5.871094 -18.480469 Z M 5.871094 -3.566406 "/></g></g><g style="fill:#b21a22;fill-opacity:1;"><g transform="translate(48.457224, 120.278902)"><path style="stroke:none" d="M 1.78125 -0.84375 L 4.59375 -0.84375 C 4.574219 -0.84375 4.546875 -0.839844 4.515625 -0.828125 C 4.441406 -0.804688 4.378906 -0.761719 4.320312 -0.703125 C 4.261719 -0.648438 4.222656 -0.582031 4.195312 -0.511719 C 4.1875 -0.476562 4.179688 -0.453125 4.179688 -0.433594 L 4.179688 -18.480469 C 4.179688 -18.460938 4.1875 -18.433594 4.195312 -18.402344 C 4.222656 -18.328125 4.261719 -18.265625 4.320312 -18.207031 C 4.378906 -18.148438 4.441406 -18.105469 4.515625 -18.082031 C 4.546875 -18.070312 4.574219 -18.066406 4.59375 -18.066406 L 1.78125 -18.066406 C 1.800781 -18.066406 1.828125 -18.070312 1.859375 -18.082031 C 1.933594 -18.105469 1.996094 -18.148438 2.054688 -18.207031 C 2.113281 -18.265625 2.15625 -18.328125 2.179688 -18.402344 C 2.191406 -18.433594 2.195312 -18.460938 2.195312 -18.480469 L 2.195312 -0.433594 C 2.195312 -0.453125 2.191406 -0.476562 2.179688 -0.511719 C 2.15625 -0.582031 2.113281 -0.648438 2.054688 -0.703125 C 1.996094 -0.761719 1.933594 -0.804688 1.859375 -0.828125 C 1.828125 -0.839844 1.800781 -0.84375 1.78125 -0.84375 Z M 1.78125 0.84375 C 1.40625 0.84375 1.097656 0.726562 0.863281 0.488281 C 0.625 0.253906 0.507812 -0.0546875 0.507812 -0.433594 L 0.507812 -18.480469 C 0.507812 -18.855469 0.625 -19.164062 0.863281 -19.398438 C 1.097656 -19.636719 1.40625 -19.753906 1.78125 -19.753906 L 4.59375 -19.753906 C 4.96875 -19.753906 5.277344 -19.636719 5.515625 -19.398438 C 5.75 -19.164062 5.871094 -18.855469 5.871094 -18.480469 L 5.871094 -0.433594 C 5.871094 -0.0546875 5.75 0.253906 5.515625 0.488281 C 5.277344 0.726562 4.96875 0.84375 4.59375 0.84375 Z M 1.78125 0.84375 "/></g></g><g style="fill:#b21a22;fill-opacity:1;"><g transform="translate(54.830896, 120.278902)"><path style="stroke:none" d="M 2.214844 -19.753906 L 12.453125 -19.753906 C 12.984375 -19.753906 13.367188 -19.5625 13.605469 -19.179688 C 13.835938 -18.804688 13.84375 -18.382812 13.628906 -17.914062 L 6.738281 -2.96875 L 5.96875 -3.324219 L 5.96875 -4.167969 L 11.886719 -4.167969 C 12.265625 -4.167969 12.570312 -4.046875 12.808594 -3.8125 C 13.046875 -3.574219 13.164062 -3.269531 13.164062 -2.890625 L 13.164062 -0.460938 C 13.164062 -0.101562 13.050781 0.199219 12.824219 0.4375 C 12.613281 0.660156 12.335938 0.792969 11.992188 0.835938 L 11.9375 0.84375 L 1.296875 0.84375 C 1.070312 0.84375 0.867188 0.804688 0.6875 0.726562 C 0.445312 0.621094 0.261719 0.453125 0.132812 0.230469 C -0.0898438 -0.15625 -0.0898438 -0.578125 0.136719 -1.027344 L 0.890625 -0.648438 L 0.128906 -1.007812 L 7.015625 -15.703125 L 7.78125 -15.34375 L 7.78125 -14.5 L 2.214844 -14.5 C 1.839844 -14.5 1.53125 -14.617188 1.292969 -14.855469 C 1.058594 -15.09375 0.9375 -15.398438 0.9375 -15.777344 L 0.9375 -18.453125 C 0.9375 -18.808594 1.050781 -19.109375 1.277344 -19.347656 C 1.488281 -19.570312 1.765625 -19.707031 2.109375 -19.75 L 2.164062 -19.753906 Z M 2.214844 -18.066406 L 2.214844 -18.910156 L 2.320312 -18.074219 C 2.378906 -18.082031 2.4375 -18.121094 2.507812 -18.191406 C 2.585938 -18.277344 2.628906 -18.363281 2.628906 -18.453125 L 2.628906 -15.777344 C 2.628906 -15.796875 2.621094 -15.824219 2.609375 -15.855469 C 2.585938 -15.925781 2.546875 -15.992188 2.488281 -16.050781 C 2.429688 -16.109375 2.363281 -16.148438 2.292969 -16.171875 C 2.261719 -16.183594 2.234375 -16.1875 2.214844 -16.1875 L 9.109375 -16.1875 L 1.652344 -0.28125 L 1.648438 -0.269531 C 1.652344 -0.285156 1.65625 -0.308594 1.660156 -0.347656 C 1.664062 -0.4375 1.644531 -0.527344 1.597656 -0.609375 C 1.542969 -0.707031 1.464844 -0.777344 1.363281 -0.820312 C 1.339844 -0.832031 1.316406 -0.839844 1.292969 -0.84375 L 11.886719 -0.84375 L 11.886719 0 L 11.78125 -0.835938 C 11.726562 -0.832031 11.664062 -0.792969 11.597656 -0.71875 C 11.515625 -0.632812 11.476562 -0.546875 11.476562 -0.460938 L 11.476562 -2.890625 C 11.476562 -2.871094 11.480469 -2.84375 11.492188 -2.8125 C 11.515625 -2.742188 11.554688 -2.675781 11.613281 -2.617188 C 11.671875 -2.558594 11.738281 -2.519531 11.808594 -2.496094 C 11.839844 -2.484375 11.867188 -2.480469 11.886719 -2.480469 L 4.652344 -2.480469 L 12.089844 -18.613281 C 12.09375 -18.621094 12.097656 -18.628906 12.097656 -18.628906 C 12.09375 -18.617188 12.09375 -18.597656 12.089844 -18.578125 C 12.085938 -18.480469 12.109375 -18.386719 12.167969 -18.292969 C 12.226562 -18.195312 12.308594 -18.125 12.40625 -18.085938 C 12.429688 -18.074219 12.449219 -18.070312 12.46875 -18.066406 C 12.46875 -18.066406 12.460938 -18.066406 12.453125 -18.066406 Z M 2.214844 -18.066406 "/></g></g><g style="fill:#b21a22;fill-opacity:1;"><g transform="translate(68.550508, 120.278902)"><path style="stroke:none" d="M 12.972656 -18.480469 L 12.972656 -15.777344 C 12.972656 -15.402344 12.863281 -15.09375 12.636719 -14.855469 C 12.398438 -14.601562 12.085938 -14.472656 11.699219 -14.472656 L 5.023438 -14.472656 L 5.023438 -15.316406 L 5.871094 -15.316406 L 5.871094 -11.15625 L 5.023438 -11.15625 L 5.023438 -12 L 10.105469 -12 C 10.492188 -12 10.804688 -11.875 11.042969 -11.621094 C 11.269531 -11.382812 11.378906 -11.074219 11.378906 -10.699219 L 11.378906 -8.023438 C 11.378906 -7.648438 11.269531 -7.339844 11.042969 -7.101562 C 10.804688 -6.847656 10.492188 -6.71875 10.105469 -6.71875 L 5.023438 -6.71875 L 5.023438 -7.5625 L 5.871094 -7.5625 L 5.871094 -3.566406 L 5.023438 -3.566406 L 5.023438 -4.410156 L 11.699219 -4.410156 C 12.074219 -4.410156 12.382812 -4.292969 12.617188 -4.054688 C 12.855469 -3.816406 12.972656 -3.511719 12.972656 -3.132812 L 12.972656 -0.433594 C 12.972656 -0.0546875 12.855469 0.253906 12.617188 0.488281 C 12.382812 0.726562 12.074219 0.84375 11.699219 0.84375 L 1.757812 0.84375 C 1.378906 0.84375 1.070312 0.71875 0.835938 0.46875 C 0.617188 0.234375 0.507812 -0.0664062 0.507812 -0.433594 L 0.507812 -18.480469 C 0.507812 -18.84375 0.617188 -19.144531 0.835938 -19.378906 C 1.070312 -19.628906 1.378906 -19.753906 1.757812 -19.753906 L 11.699219 -19.753906 C 12.074219 -19.753906 12.382812 -19.636719 12.617188 -19.398438 C 12.855469 -19.164062 12.972656 -18.855469 12.972656 -18.480469 Z M 11.285156 -18.480469 C 11.285156 -18.460938 11.292969 -18.433594 11.300781 -18.402344 C 11.324219 -18.328125 11.367188 -18.265625 11.425781 -18.207031 C 11.484375 -18.148438 11.546875 -18.105469 11.621094 -18.082031 C 11.652344 -18.070312 11.679688 -18.066406 11.699219 -18.066406 L 1.757812 -18.066406 C 1.863281 -18.066406 1.96875 -18.121094 2.066406 -18.226562 C 2.121094 -18.285156 2.160156 -18.347656 2.183594 -18.414062 C 2.191406 -18.445312 2.195312 -18.464844 2.195312 -18.480469 L 2.195312 -0.433594 C 2.195312 -0.445312 2.191406 -0.46875 2.183594 -0.496094 C 2.160156 -0.5625 2.121094 -0.628906 2.066406 -0.683594 C 1.96875 -0.792969 1.863281 -0.84375 1.757812 -0.84375 L 11.699219 -0.84375 C 11.679688 -0.84375 11.652344 -0.839844 11.621094 -0.828125 C 11.546875 -0.804688 11.484375 -0.761719 11.425781 -0.703125 C 11.367188 -0.648438 11.324219 -0.582031 11.300781 -0.511719 C 11.292969 -0.476562 11.285156 -0.453125 11.285156 -0.433594 L 11.285156 -3.132812 C 11.285156 -3.113281 11.292969 -3.089844 11.300781 -3.054688 C 11.324219 -2.984375 11.367188 -2.917969 11.425781 -2.859375 C 11.484375 -2.804688 11.546875 -2.761719 11.621094 -2.738281 C 11.652344 -2.726562 11.679688 -2.722656 11.699219 -2.722656 L 4.179688 -2.722656 L 4.179688 -8.410156 L 10.105469 -8.410156 C 10.078125 -8.410156 10.046875 -8.402344 10.011719 -8.390625 C 9.9375 -8.363281 9.871094 -8.320312 9.8125 -8.257812 C 9.761719 -8.203125 9.722656 -8.140625 9.703125 -8.074219 C 9.695312 -8.050781 9.691406 -8.035156 9.691406 -8.023438 L 9.691406 -10.699219 C 9.691406 -10.6875 9.695312 -10.671875 9.703125 -10.644531 C 9.722656 -10.582031 9.761719 -10.519531 9.8125 -10.464844 C 9.871094 -10.402344 9.9375 -10.359375 10.011719 -10.332031 C 10.046875 -10.320312 10.078125 -10.3125 10.105469 -10.3125 L 4.179688 -10.3125 L 4.179688 -16.164062 L 11.699219 -16.164062 C 11.671875 -16.164062 11.640625 -16.15625 11.605469 -16.140625 C 11.53125 -16.117188 11.464844 -16.074219 11.40625 -16.011719 C 11.355469 -15.957031 11.316406 -15.894531 11.296875 -15.828125 C 11.289062 -15.804688 11.285156 -15.785156 11.285156 -15.777344 Z M 11.285156 -18.480469 "/></g></g><g style="fill:#b21a22;fill-opacity:1;"><g transform="translate(82.027048, 120.278902)"><path style="stroke:none" d="M 13 -15.019531 L 13 -9.589844 C 13 -7.710938 12.363281 -6.375 11.089844 -5.578125 L 10.644531 -6.292969 L 11.464844 -6.492188 L 12.871094 -0.683594 L 12.050781 -0.484375 L 12.863281 -0.710938 C 12.984375 -0.277344 12.925781 0.09375 12.6875 0.398438 C 12.457031 0.695312 12.117188 0.84375 11.671875 0.84375 L 9.023438 0.84375 C 8.695312 0.84375 8.414062 0.75 8.183594 0.558594 C 7.953125 0.371094 7.804688 0.117188 7.738281 -0.203125 L 8.5625 -0.378906 L 7.742188 -0.179688 L 6.445312 -5.5 L 7.265625 -5.699219 L 7.265625 -4.855469 L 4.863281 -4.855469 L 4.863281 -5.699219 L 5.707031 -5.699219 L 5.707031 -0.433594 C 5.707031 -0.0546875 5.589844 0.253906 5.351562 0.488281 C 5.113281 0.726562 4.808594 0.84375 4.429688 0.84375 L 1.78125 0.84375 C 1.40625 0.84375 1.097656 0.726562 0.863281 0.488281 C 0.625 0.253906 0.507812 -0.0546875 0.507812 -0.433594 L 0.507812 -18.480469 C 0.507812 -18.855469 0.625 -19.164062 0.863281 -19.398438 C 1.097656 -19.636719 1.40625 -19.753906 1.78125 -19.753906 L 8.265625 -19.753906 C 9.777344 -19.753906 10.945312 -19.34375 11.769531 -18.523438 C 12.589844 -17.699219 13 -16.53125 13 -15.019531 Z M 11.3125 -15.019531 C 11.3125 -16.066406 11.066406 -16.835938 10.574219 -17.328125 C 10.082031 -17.820312 9.3125 -18.066406 8.265625 -18.066406 L 1.78125 -18.066406 C 1.800781 -18.066406 1.828125 -18.070312 1.859375 -18.082031 C 1.933594 -18.105469 1.996094 -18.148438 2.054688 -18.207031 C 2.113281 -18.265625 2.15625 -18.328125 2.179688 -18.402344 C 2.191406 -18.433594 2.195312 -18.460938 2.195312 -18.480469 L 2.195312 -0.433594 C 2.195312 -0.453125 2.191406 -0.476562 2.179688 -0.511719 C 2.15625 -0.582031 2.113281 -0.648438 2.054688 -0.703125 C 1.996094 -0.761719 1.933594 -0.804688 1.859375 -0.828125 C 1.828125 -0.839844 1.800781 -0.84375 1.78125 -0.84375 L 4.429688 -0.84375 C 4.410156 -0.84375 4.386719 -0.839844 4.351562 -0.828125 C 4.28125 -0.804688 4.214844 -0.761719 4.15625 -0.703125 C 4.101562 -0.648438 4.058594 -0.582031 4.035156 -0.511719 C 4.023438 -0.476562 4.019531 -0.453125 4.019531 -0.433594 L 4.019531 -6.542969 L 7.929688 -6.542969 L 9.386719 -0.566406 L 9.390625 -0.554688 C 9.375 -0.621094 9.332031 -0.683594 9.257812 -0.746094 C 9.175781 -0.8125 9.097656 -0.84375 9.023438 -0.84375 L 11.671875 -0.84375 C 11.652344 -0.839844 11.632812 -0.835938 11.609375 -0.828125 C 11.511719 -0.792969 11.425781 -0.730469 11.355469 -0.640625 C 11.28125 -0.546875 11.242188 -0.445312 11.234375 -0.335938 C 11.230469 -0.300781 11.230469 -0.273438 11.234375 -0.261719 L 11.230469 -0.273438 L 9.679688 -6.6875 L 10.195312 -7.011719 C 10.941406 -7.476562 11.3125 -8.335938 11.3125 -9.589844 Z M 4.863281 -10.03125 L 7.5625 -10.03125 C 7.652344 -10.03125 7.722656 -10.039062 7.769531 -10.054688 C 7.777344 -10.058594 7.785156 -10.058594 7.789062 -10.0625 C 7.785156 -10.058594 7.78125 -10.054688 7.777344 -10.050781 C 7.773438 -10.046875 7.769531 -10.046875 7.769531 -10.042969 C 7.769531 -10.046875 7.773438 -10.050781 7.777344 -10.058594 C 7.792969 -10.109375 7.800781 -10.175781 7.800781 -10.265625 L 7.800781 -14.34375 C 7.800781 -14.433594 7.792969 -14.503906 7.777344 -14.550781 C 7.773438 -14.558594 7.769531 -14.566406 7.769531 -14.570312 C 7.769531 -14.566406 7.773438 -14.5625 7.777344 -14.558594 C 7.78125 -14.554688 7.785156 -14.550781 7.789062 -14.550781 C 7.785156 -14.550781 7.777344 -14.554688 7.769531 -14.558594 C 7.722656 -14.574219 7.652344 -14.582031 7.5625 -14.582031 L 4.863281 -14.582031 L 4.863281 -15.425781 L 5.707031 -15.425781 L 5.707031 -9.183594 L 4.863281 -9.183594 Z M 4.019531 -8.339844 L 4.019531 -16.269531 L 7.5625 -16.269531 C 8.15625 -16.269531 8.625 -16.097656 8.972656 -15.753906 C 9.316406 -15.40625 9.488281 -14.9375 9.488281 -14.34375 L 9.488281 -10.265625 C 9.488281 -9.671875 9.316406 -9.203125 8.972656 -8.859375 C 8.625 -8.511719 8.15625 -8.339844 7.5625 -8.339844 Z M 4.019531 -8.339844 "/></g></g><g style="fill:#060705;fill-opacity:1;"><g transform="translate(36.109295, 44.950115)"><path style="stroke:none" d="M 12.640625 -18.90625 L 16.203125 -18.90625 C 16.566406 -18.90625 16.75 -18.726562 16.75 -18.375 L 16.75 -0.546875 C 16.75 -0.179688 16.566406 0 16.203125 0 L 13.703125 0 C 13.335938 0 13.15625 -0.179688 13.15625 -0.546875 L 13.15625 -11.15625 L 12.96875 -11.15625 L 10.421875 -0.453125 C 10.335938 -0.148438 10.140625 0 9.828125 0 L 8.234375 0 C 7.929688 0 7.734375 -0.148438 7.640625 -0.453125 L 5.109375 -11.15625 L 4.921875 -11.15625 L 4.921875 -0.546875 C 4.921875 -0.179688 4.738281 0 4.375 0 L 1.890625 0 C 1.523438 0 1.34375 -0.179688 1.34375 -0.546875 L 1.34375 -18.375 C 1.34375 -18.726562 1.523438 -18.90625 1.890625 -18.90625 L 5.453125 -18.90625 C 5.765625 -18.90625 5.960938 -18.753906 6.046875 -18.453125 L 9.046875 -6.40625 L 12.046875 -18.453125 C 12.140625 -18.753906 12.335938 -18.90625 12.640625 -18.90625 Z M 12.640625 -18.90625 "/></g></g><g style="fill:#060705;fill-opacity:1;"><g transform="translate(54.204051, 44.950115)"><path style="stroke:none" d="M 1.34375 -3.890625 L 1.34375 -15.015625 C 1.34375 -16.296875 1.675781 -17.265625 2.34375 -17.921875 C 3.007812 -18.578125 3.972656 -18.90625 5.234375 -18.90625 L 8.265625 -18.90625 C 9.546875 -18.90625 10.515625 -18.578125 11.171875 -17.921875 C 11.828125 -17.265625 12.15625 -16.296875 12.15625 -15.015625 L 12.15625 -3.890625 C 12.15625 -2.628906 11.828125 -1.664062 11.171875 -1 C 10.515625 -0.332031 9.546875 0 8.265625 0 L 5.234375 0 C 3.972656 0 3.007812 -0.332031 2.34375 -1 C 1.675781 -1.664062 1.34375 -2.628906 1.34375 -3.890625 Z M 5.9375 -3.484375 L 7.671875 -3.484375 C 8.390625 -3.484375 8.75 -3.84375 8.75 -4.5625 L 8.75 -14.34375 C 8.75 -15.0625 8.390625 -15.421875 7.671875 -15.421875 L 5.9375 -15.421875 C 5.21875 -15.421875 4.859375 -15.0625 4.859375 -14.34375 L 4.859375 -4.5625 C 4.859375 -3.84375 5.21875 -3.484375 5.9375 -3.484375 Z M 5.9375 -3.484375 "/></g></g><g style="fill:#060705;fill-opacity:1;"><g transform="translate(67.707602, 44.950115)"><path style="stroke:none" d="M 9.921875 -18.90625 L 12.453125 -18.90625 C 12.742188 -18.90625 12.890625 -18.765625 12.890625 -18.484375 L 12.890625 -0.4375 C 12.890625 -0.144531 12.742188 0 12.453125 0 L 10.3125 0 C 10.101562 0 9.941406 -0.113281 9.828125 -0.34375 L 4.75 -10.671875 L 4.75 -0.4375 C 4.75 -0.144531 4.609375 0 4.328125 0 L 1.78125 0 C 1.488281 0 1.34375 -0.144531 1.34375 -0.4375 L 1.34375 -18.484375 C 1.34375 -18.765625 1.488281 -18.90625 1.78125 -18.90625 L 3.921875 -18.90625 C 4.128906 -18.90625 4.289062 -18.789062 4.40625 -18.5625 L 9.484375 -8.234375 L 9.484375 -18.484375 C 9.484375 -18.765625 9.628906 -18.90625 9.921875 -18.90625 Z M 9.921875 -18.90625 "/></g></g><g style="fill:#060705;fill-opacity:1;"><g transform="translate(81.94035, 44.950115)"><path style="stroke:none" d="M 11.1875 -18.90625 L 1.25 -18.90625 C 0.957031 -18.90625 0.8125 -18.765625 0.8125 -18.484375 L 0.8125 -15.78125 C 0.8125 -15.488281 0.957031 -15.34375 1.25 -15.34375 L 4.375 -15.34375 L 4.375 -0.4375 C 4.375 -0.144531 4.519531 0 4.8125 0 L 7.625 0 C 7.90625 0 8.046875 -0.144531 8.046875 -0.4375 L 8.046875 -15.34375 L 11.1875 -15.34375 C 11.46875 -15.34375 11.609375 -15.488281 11.609375 -15.78125 L 11.609375 -18.484375 C 11.609375 -18.765625 11.46875 -18.90625 11.1875 -18.90625 Z M 11.1875 -18.90625 "/></g></g><g style="fill:#060705;fill-opacity:1;"><g transform="translate(94.363619, 44.950115)"><path style="stroke:none" d="M 8.484375 -11.1875 L 8.484375 -18.484375 C 8.484375 -18.765625 8.628906 -18.90625 8.921875 -18.90625 L 11.703125 -18.90625 C 12.003906 -18.90625 12.15625 -18.765625 12.15625 -18.484375 L 12.15625 -0.4375 C 12.15625 -0.144531 12.003906 0 11.703125 0 L 8.921875 0 C 8.628906 0 8.484375 -0.144531 8.484375 -0.4375 L 8.484375 -7.625 L 5.03125 -7.625 L 5.03125 -0.4375 C 5.03125 -0.144531 4.882812 0 4.59375 0 L 1.8125 0 C 1.5 0 1.34375 -0.144531 1.34375 -0.4375 L 1.34375 -18.484375 C 1.34375 -18.765625 1.5 -18.90625 1.8125 -18.90625 L 4.59375 -18.90625 C 4.882812 -18.90625 5.03125 -18.765625 5.03125 -18.484375 L 5.03125 -11.1875 Z M 8.484375 -11.1875 "/></g></g><g style="fill:#060705;fill-opacity:1;"><g transform="translate(30.80204, 82.614508)"><path style="stroke:none" d="M 1.34375 -8.484375 L 1.34375 -10.96875 C 1.34375 -11.332031 1.523438 -11.515625 1.890625 -11.515625 L 6.15625 -11.515625 C 6.519531 -11.515625 6.703125 -11.332031 6.703125 -10.96875 L 6.703125 -8.484375 C 6.703125 -8.117188 6.519531 -7.9375 6.15625 -7.9375 L 1.890625 -7.9375 C 1.523438 -7.9375 1.34375 -8.117188 1.34375 -8.484375 Z M 1.34375 -8.484375 "/></g></g><g style="fill:#060705;fill-opacity:1;"><g transform="translate(38.850154, 82.614508)"><path style="stroke:none" d="M 5.234375 -18.90625 L 8.265625 -18.90625 C 9.546875 -18.90625 10.515625 -18.578125 11.171875 -17.921875 C 11.828125 -17.265625 12.15625 -16.296875 12.15625 -15.015625 L 12.15625 -13.234375 C 12.15625 -12.953125 12.007812 -12.8125 11.71875 -12.8125 L 9 -12.8125 C 8.707031 -12.8125 8.5625 -12.953125 8.5625 -13.234375 L 8.5625 -14.375 C 8.5625 -15.09375 8.203125 -15.453125 7.484375 -15.453125 L 6 -15.453125 C 5.28125 -15.453125 4.921875 -15.09375 4.921875 -14.375 L 4.921875 -12.078125 L 11.453125 -9.96875 C 11.921875 -9.800781 12.15625 -9.46875 12.15625 -8.96875 L 12.15625 -3.890625 C 12.15625 -2.628906 11.828125 -1.664062 11.171875 -1 C 10.515625 -0.332031 9.546875 0 8.265625 0 L 5.234375 0 C 3.972656 0 3.007812 -0.332031 2.34375 -1 C 1.675781 -1.664062 1.34375 -2.628906 1.34375 -3.890625 L 1.34375 -5.640625 C 1.34375 -5.929688 1.488281 -6.078125 1.78125 -6.078125 L 4.515625 -6.078125 C 4.796875 -6.078125 4.9375 -5.929688 4.9375 -5.640625 L 4.9375 -4.515625 C 4.9375 -3.796875 5.300781 -3.4375 6.03125 -3.4375 L 7.484375 -3.4375 C 8.203125 -3.4375 8.5625 -3.796875 8.5625 -4.515625 L 8.5625 -7.234375 L 2.078125 -9.34375 C 1.585938 -9.507812 1.34375 -9.84375 1.34375 -10.34375 L 1.34375 -15.015625 C 1.34375 -16.296875 1.675781 -17.265625 2.34375 -17.921875 C 3.007812 -18.578125 3.972656 -18.90625 5.234375 -18.90625 Z M 5.234375 -18.90625 "/></g></g><g style="fill:#060705;fill-opacity:1;"><g transform="translate(52.353705, 82.614508)"><path style="stroke:none" d="M 12.125 -18.484375 L 12.125 -15.78125 C 12.125 -15.46875 11.984375 -15.3125 11.703125 -15.3125 L 5.03125 -15.3125 L 5.03125 -11.15625 L 10.109375 -11.15625 C 10.390625 -11.15625 10.53125 -11.003906 10.53125 -10.703125 L 10.53125 -8.03125 C 10.53125 -7.71875 10.390625 -7.5625 10.109375 -7.5625 L 5.03125 -7.5625 L 5.03125 -3.5625 L 11.703125 -3.5625 C 11.984375 -3.5625 12.125 -3.421875 12.125 -3.140625 L 12.125 -0.4375 C 12.125 -0.144531 11.984375 0 11.703125 0 L 1.75 0 C 1.476562 0 1.34375 -0.144531 1.34375 -0.4375 L 1.34375 -18.484375 C 1.34375 -18.765625 1.476562 -18.90625 1.75 -18.90625 L 11.703125 -18.90625 C 11.984375 -18.90625 12.125 -18.765625 12.125 -18.484375 Z M 12.125 -18.484375 "/></g></g><g style="fill:#060705;fill-opacity:1;"><g transform="translate(65.830245, 82.614508)"><path style="stroke:none" d="M 12.15625 -15.015625 L 12.15625 -9.59375 C 12.15625 -8.019531 11.648438 -6.921875 10.640625 -6.296875 L 12.046875 -0.484375 C 12.140625 -0.160156 12.015625 0 11.671875 0 L 9.015625 0 C 8.765625 0 8.613281 -0.125 8.5625 -0.375 L 7.265625 -5.703125 L 4.859375 -5.703125 L 4.859375 -0.4375 C 4.859375 -0.144531 4.71875 0 4.4375 0 L 1.78125 0 C 1.488281 0 1.34375 -0.144531 1.34375 -0.4375 L 1.34375 -18.484375 C 1.34375 -18.765625 1.488281 -18.90625 1.78125 -18.90625 L 8.265625 -18.90625 C 9.546875 -18.90625 10.515625 -18.578125 11.171875 -17.921875 C 11.828125 -17.265625 12.15625 -16.296875 12.15625 -15.015625 Z M 4.859375 -9.1875 L 7.5625 -9.1875 C 8.28125 -9.1875 8.640625 -9.546875 8.640625 -10.265625 L 8.640625 -14.34375 C 8.640625 -15.0625 8.28125 -15.421875 7.5625 -15.421875 L 4.859375 -15.421875 Z M 4.859375 -9.1875 "/></g></g><g style="fill:#060705;fill-opacity:1;"><g transform="translate(79.333796, 82.614508)"><path style="stroke:none" d="M 1.78125 0 L 4.59375 0 C 4.882812 0 5.03125 -0.144531 5.03125 -0.4375 L 5.03125 -18.484375 C 5.03125 -18.765625 4.882812 -18.90625 4.59375 -18.90625 L 1.78125 -18.90625 C 1.488281 -18.90625 1.34375 -18.765625 1.34375 -18.484375 L 1.34375 -0.4375 C 1.34375 -0.144531 1.488281 0 1.78125 0 Z M 1.78125 0 "/></g></g><g style="fill:#060705;fill-opacity:1;"><g transform="translate(85.707468, 82.614508)"><path style="stroke:none" d="M 14.109375 0 L 11.484375 0 C 11.242188 0 11.097656 -0.125 11.046875 -0.375 L 10.1875 -3.78125 L 5.109375 -3.78125 L 4.265625 -0.375 C 4.210938 -0.125 4.070312 0 3.84375 0 L 1.1875 0 C 0.863281 0 0.75 -0.148438 0.84375 -0.453125 L 5.328125 -18.53125 C 5.378906 -18.78125 5.53125 -18.90625 5.78125 -18.90625 L 9.53125 -18.90625 C 9.789062 -18.90625 9.945312 -18.78125 10 -18.53125 L 14.484375 -0.453125 C 14.566406 -0.148438 14.441406 0 14.109375 0 Z M 9.34375 -6.921875 L 7.640625 -14.265625 L 5.9375 -6.921875 Z M 9.34375 -6.921875 "/></g></g><g style="fill:#060705;fill-opacity:1;"><g transform="translate(101.020499, 82.614508)"><path style="stroke:none" d="M 5.03125 -3.5625 L 5.03125 -18.484375 C 5.03125 -18.765625 4.882812 -18.90625 4.59375 -18.90625 L 1.78125 -18.90625 C 1.488281 -18.90625 1.34375 -18.765625 1.34375 -18.484375 L 1.34375 -0.4375 C 1.34375 -0.144531 1.488281 0 1.78125 0 L 10.375 0 C 10.664062 0 10.8125 -0.144531 10.8125 -0.4375 L 10.8125 -3.140625 C 10.8125 -3.421875 10.664062 -3.5625 10.375 -3.5625 Z M 5.03125 -3.5625 "/></g></g><g style="fill:#060705;fill-opacity:1;"><g transform="translate(48.457224, 120.278902)"><path style="stroke:none" d="M 1.78125 0 L 4.59375 0 C 4.882812 0 5.03125 -0.144531 5.03125 -0.4375 L 5.03125 -18.484375 C 5.03125 -18.765625 4.882812 -18.90625 4.59375 -18.90625 L 1.78125 -18.90625 C 1.488281 -18.90625 1.34375 -18.765625 1.34375 -18.484375 L 1.34375 -0.4375 C 1.34375 -0.144531 1.488281 0 1.78125 0 Z M 1.78125 0 "/></g></g><g style="fill:#060705;fill-opacity:1;"><g transform="translate(54.830896, 120.278902)"><path style="stroke:none" d="M 2.21875 -18.90625 L 12.453125 -18.90625 C 12.671875 -18.90625 12.816406 -18.847656 12.890625 -18.734375 C 12.960938 -18.617188 12.953125 -18.460938 12.859375 -18.265625 L 5.96875 -3.328125 L 11.890625 -3.328125 C 12.171875 -3.328125 12.3125 -3.179688 12.3125 -2.890625 L 12.3125 -0.453125 C 12.3125 -0.179688 12.171875 -0.03125 11.890625 0 L 1.296875 0 C 1.078125 0 0.929688 -0.0625 0.859375 -0.1875 C 0.785156 -0.3125 0.796875 -0.460938 0.890625 -0.640625 L 7.78125 -15.34375 L 2.21875 -15.34375 C 1.925781 -15.34375 1.78125 -15.488281 1.78125 -15.78125 L 1.78125 -18.453125 C 1.78125 -18.722656 1.925781 -18.875 2.21875 -18.90625 Z M 2.21875 -18.90625 "/></g></g><g style="fill:#060705;fill-opacity:1;"><g transform="translate(68.550508, 120.278902)"><path style="stroke:none" d="M 12.125 -18.484375 L 12.125 -15.78125 C 12.125 -15.46875 11.984375 -15.3125 11.703125 -15.3125 L 5.03125 -15.3125 L 5.03125 -11.15625 L 10.109375 -11.15625 C 10.390625 -11.15625 10.53125 -11.003906 10.53125 -10.703125 L 10.53125 -8.03125 C 10.53125 -7.71875 10.390625 -7.5625 10.109375 -7.5625 L 5.03125 -7.5625 L 5.03125 -3.5625 L 11.703125 -3.5625 C 11.984375 -3.5625 12.125 -3.421875 12.125 -3.140625 L 12.125 -0.4375 C 12.125 -0.144531 11.984375 0 11.703125 0 L 1.75 0 C 1.476562 0 1.34375 -0.144531 1.34375 -0.4375 L 1.34375 -18.484375 C 1.34375 -18.765625 1.476562 -18.90625 1.75 -18.90625 L 11.703125 -18.90625 C 11.984375 -18.90625 12.125 -18.765625 12.125 -18.484375 Z M 12.125 -18.484375 "/></g></g><g style="fill:#060705;fill-opacity:1;"><g transform="translate(82.027048, 120.278902)"><path style="stroke:none" d="M 12.15625 -15.015625 L 12.15625 -9.59375 C 12.15625 -8.019531 11.648438 -6.921875 10.640625 -6.296875 L 12.046875 -0.484375 C 12.140625 -0.160156 12.015625 0 11.671875 0 L 9.015625 0 C 8.765625 0 8.613281 -0.125 8.5625 -0.375 L 7.265625 -5.703125 L 4.859375 -5.703125 L 4.859375 -0.4375 C 4.859375 -0.144531 4.71875 0 4.4375 0 L 1.78125 0 C 1.488281 0 1.34375 -0.144531 1.34375 -0.4375 L 1.34375 -18.484375 C 1.34375 -18.765625 1.488281 -18.90625 1.78125 -18.90625 L 8.265625 -18.90625 C 9.546875 -18.90625 10.515625 -18.578125 11.171875 -17.921875 C 11.828125 -17.265625 12.15625 -16.296875 12.15625 -15.015625 Z M 4.859375 -9.1875 L 7.5625 -9.1875 C 8.28125 -9.1875 8.640625 -9.546875 8.640625 -10.265625 L 8.640625 -14.34375 C 8.640625 -15.0625 8.28125 -15.421875 7.5625 -15.421875 L 4.859375 -15.421875 Z M 4.859375 -9.1875 "/></g></g></g></svg>