<svg xmlns="http://www.w3.org/2000/svg" xmlns:xlink="http://www.w3.org/1999/xlink" width="128" zoomAndPan="magnify" viewBox="0 0 96 95.999999" height="128" preserveAspectRatio="xMidYMid meet" version="1.0"><defs><g/><clipPath id="b5f17bd6df"><path d="M 6 0 L 90 0 L 90 96 L 6 96 Z M 6 0 " clip-rule="nonzero"/></clipPath><clipPath id="b5f2060e02"><path d="M -14.304688 36.578125 L 68.691406 -11.898438 L 110.335938 59.402344 L 27.339844 107.878906 Z M -14.304688 36.578125 " clip-rule="nonzero"/></clipPath><clipPath id="4e48adb71b"><path d="M 89.484375 23.769531 L 89.5625 71.535156 L 48.082031 95.765625 L 6.515625 72.226562 L 6.4375 24.464844 L 47.921875 0.234375 Z M 89.484375 23.769531 " clip-rule="nonzero"/></clipPath><clipPath id="1fb1db91ae"><path d="M 0.238281 0 L 83.761719 0 L 83.761719 96 L 0.238281 96 Z M 0.238281 0 " clip-rule="nonzero"/></clipPath><clipPath id="1644820ca4"><path d="M -20.304688 36.578125 L 62.691406 -11.898438 L 104.335938 59.402344 L 21.339844 107.878906 Z M -20.304688 36.578125 " clip-rule="nonzero"/></clipPath><clipPath id="27f5a7e2ed"><path d="M 83.484375 23.769531 L 83.5625 71.535156 L 42.082031 95.765625 L 0.515625 72.226562 L 0.4375 24.464844 L 41.921875 0.234375 Z M 83.484375 23.769531 " clip-rule="nonzero"/></clipPath><clipPath id="0348f32e2b"><rect x="0" width="84" y="0" height="96"/></clipPath><clipPath id="c6ab520348"><path d="M 14.140625 9.121094 L 81.851562 9.121094 L 81.851562 86.839844 L 14.140625 86.839844 Z M 14.140625 9.121094 " clip-rule="nonzero"/></clipPath><clipPath id="c995394717"><rect x="0" width="96" y="0" height="96"/></clipPath><clipPath id="e265e6c6f6"><path d="M 56 14 L 63.960938 14 L 63.960938 20 L 56 20 Z M 56 14 " clip-rule="nonzero"/></clipPath><clipPath id="172d410b9a"><rect x="0" width="64" y="0" height="68"/></clipPath></defs><g transform="matrix(1, 0, 0, 1, 0, -0.000000000000008101)"><g clip-path="url(#c995394717)"><g clip-path="url(#b5f17bd6df)"><g clip-path="url(#b5f2060e02)"><g clip-path="url(#4e48adb71b)"><g transform="matrix(1, 0, 0, 1, 6, -0.000000000000008101)"><g clip-path="url(#0348f32e2b)"><g clip-path="url(#1fb1db91ae)"><g clip-path="url(#1644820ca4)"><g clip-path="url(#27f5a7e2ed)"><path fill="#65b30e" d="M -20.304688 36.578125 L 62.691406 -11.898438 L 104.335938 59.402344 L 21.339844 107.878906 Z M -20.304688 36.578125 " fill-opacity="1" fill-rule="nonzero"/></g></g></g></g></g></g></g></g><path fill="#87ff00" d="M 34.464844 34.753906 L 34.417969 34.707031 L 24.847656 44.28125 L 48.089844 67.484375 L 57.664062 57.957031 L 71.335938 44.28125 L 61.761719 34.707031 L 61.761719 34.664062 L 34.421875 34.664062 Z M 34.464844 34.753906 " fill-opacity="1" fill-rule="nonzero"/><g clip-path="url(#c6ab520348)"><path fill="#87ff00" d="M 48.003906 9.179688 L 14.148438 28.585938 L 14.148438 67.398438 L 48.003906 86.808594 L 81.859375 67.398438 L 81.859375 28.585938 Z M 75.390625 63.6875 L 48.003906 79.472656 L 20.617188 63.6875 L 20.621094 32.207031 L 48.003906 16.421875 L 75.390625 32.207031 Z M 75.390625 63.6875 " fill-opacity="1" fill-rule="nonzero"/></g></g></g><g transform="matrix(1, 0, 0, 1, 15, 14)"><g clip-path="url(#172d410b9a)"><g fill="#b21a22" fill-opacity="1"><g transform="translate(2.384974, 26.24968)"><g><path d="M 10.191406 -18.726562 L 12.753906 -18.726562 C 13.203125 -18.726562 13.550781 -18.566406 13.796875 -18.246094 C 13.949219 -18.046875 14.027344 -17.820312 14.027344 -17.570312 C 14.027344 -17.375 13.976562 -17.175781 13.878906 -16.980469 L 13.164062 -17.335938 L 13.894531 -17.011719 L 9.207031 -6.386719 L 8.476562 -6.710938 L 9.277344 -6.710938 L 9.277344 -0.511719 C 9.277344 -0.121094 9.15625 0.195312 8.914062 0.4375 C 8.671875 0.679688 8.355469 0.800781 7.964844 0.800781 L 5.503906 0.800781 C 5.113281 0.800781 4.796875 0.679688 4.554688 0.4375 C 4.3125 0.195312 4.191406 -0.121094 4.191406 -0.511719 L 4.191406 -6.710938 L 4.992188 -6.710938 L 4.261719 -6.386719 L -0.429688 -17.027344 L -0.4375 -17.039062 C -0.609375 -17.476562 -0.578125 -17.867188 -0.339844 -18.214844 C -0.101562 -18.554688 0.25 -18.726562 0.71875 -18.726562 L 3.277344 -18.726562 C 3.589844 -18.726562 3.863281 -18.644531 4.101562 -18.480469 C 4.335938 -18.316406 4.507812 -18.089844 4.617188 -17.796875 L 3.867188 -17.515625 L 4.601562 -17.835938 L 7.46875 -11.253906 L 6.734375 -10.933594 L 6 -11.253906 L 8.871094 -17.835938 L 9.601562 -17.515625 L 8.855469 -17.796875 C 8.964844 -18.089844 9.136719 -18.316406 9.371094 -18.480469 C 9.605469 -18.644531 9.878906 -18.726562 10.191406 -18.726562 Z M 10.191406 -17.125 C 10.214844 -17.125 10.246094 -17.140625 10.285156 -17.164062 C 10.324219 -17.191406 10.34375 -17.214844 10.351562 -17.234375 L 10.34375 -17.214844 L 6.734375 -8.929688 L 3.125 -17.214844 L 3.117188 -17.234375 C 3.125 -17.214844 3.148438 -17.191406 3.1875 -17.164062 C 3.226562 -17.140625 3.253906 -17.125 3.277344 -17.125 L 0.71875 -17.125 C 0.730469 -17.125 0.753906 -17.132812 0.785156 -17.144531 C 0.863281 -17.179688 0.929688 -17.230469 0.976562 -17.304688 C 1.03125 -17.378906 1.054688 -17.457031 1.058594 -17.546875 C 1.058594 -17.585938 1.058594 -17.617188 1.050781 -17.632812 L 0.308594 -17.335938 L 1.039062 -17.660156 L 5.792969 -6.878906 L 5.792969 -0.511719 C 5.792969 -0.507812 5.792969 -0.503906 5.792969 -0.503906 C 5.792969 -0.515625 5.789062 -0.527344 5.785156 -0.542969 C 5.765625 -0.597656 5.734375 -0.648438 5.6875 -0.695312 C 5.640625 -0.742188 5.589844 -0.773438 5.535156 -0.792969 C 5.519531 -0.796875 5.507812 -0.800781 5.5 -0.800781 C 5.496094 -0.800781 5.496094 -0.800781 5.496094 -0.800781 C 5.5 -0.800781 5.503906 -0.800781 5.503906 -0.800781 L 7.964844 -0.800781 C 7.96875 -0.800781 7.96875 -0.800781 7.972656 -0.800781 C 7.960938 -0.800781 7.949219 -0.796875 7.933594 -0.792969 C 7.878906 -0.773438 7.828125 -0.742188 7.78125 -0.695312 C 7.734375 -0.648438 7.703125 -0.597656 7.683594 -0.542969 C 7.679688 -0.527344 7.675781 -0.515625 7.675781 -0.503906 C 7.675781 -0.503906 7.675781 -0.507812 7.675781 -0.511719 L 7.675781 -6.878906 L 12.4375 -17.675781 L 12.445312 -17.695312 C 12.433594 -17.667969 12.425781 -17.625 12.425781 -17.570312 C 12.425781 -17.460938 12.460938 -17.359375 12.527344 -17.269531 C 12.574219 -17.210938 12.628906 -17.167969 12.695312 -17.140625 C 12.722656 -17.128906 12.742188 -17.125 12.753906 -17.125 Z M 10.191406 -17.125 "/></g></g></g><g fill="#b21a22" fill-opacity="1"><g transform="translate(15.854172, 26.24968)"><g><path d="M 13.367188 0.800781 L 10.882812 0.800781 C 10.570312 0.800781 10.304688 0.703125 10.085938 0.511719 C 9.886719 0.335938 9.753906 0.101562 9.691406 -0.191406 L 10.472656 -0.359375 L 9.699219 -0.160156 L 8.878906 -3.386719 L 9.652344 -3.585938 L 9.652344 -2.785156 L 4.839844 -2.785156 L 4.839844 -3.585938 L 5.617188 -3.394531 L 4.824219 -0.167969 L 4.046875 -0.359375 L 4.828125 -0.191406 C 4.765625 0.101562 4.632812 0.335938 4.433594 0.511719 C 4.214844 0.703125 3.949219 0.800781 3.636719 0.800781 L 1.125 0.800781 C 0.710938 0.800781 0.394531 0.660156 0.175781 0.378906 C -0.0429688 0.0898438 -0.09375 -0.257812 0.0273438 -0.660156 L 0.792969 -0.433594 L 0.015625 -0.628906 L 4.269531 -17.757812 L 5.042969 -17.566406 L 4.261719 -17.734375 C 4.328125 -18.035156 4.46875 -18.277344 4.683594 -18.453125 C 4.902344 -18.636719 5.167969 -18.726562 5.480469 -18.726562 L 9.039062 -18.726562 C 9.351562 -18.726562 9.617188 -18.636719 9.835938 -18.453125 C 10.050781 -18.277344 10.191406 -18.035156 10.257812 -17.734375 L 9.476562 -17.566406 L 10.25 -17.757812 L 14.503906 -0.628906 L 13.726562 -0.433594 L 14.492188 -0.660156 C 14.617188 -0.246094 14.558594 0.109375 14.316406 0.398438 C 14.097656 0.667969 13.78125 0.800781 13.367188 0.800781 Z M 13.367188 -0.800781 C 13.371094 -0.800781 13.375 -0.800781 13.378906 -0.800781 C 13.375 -0.800781 13.375 -0.800781 13.375 -0.800781 C 13.359375 -0.796875 13.34375 -0.792969 13.324219 -0.789062 C 13.230469 -0.757812 13.152344 -0.699219 13.082031 -0.617188 C 13.003906 -0.523438 12.960938 -0.421875 12.953125 -0.308594 C 12.949219 -0.265625 12.953125 -0.230469 12.957031 -0.210938 L 12.953125 -0.226562 L 8.695312 -17.386719 L 8.691406 -17.398438 C 8.707031 -17.335938 8.746094 -17.277344 8.820312 -17.21875 C 8.894531 -17.15625 8.96875 -17.125 9.039062 -17.125 L 5.480469 -17.125 C 5.550781 -17.125 5.625 -17.15625 5.699219 -17.21875 C 5.773438 -17.277344 5.8125 -17.335938 5.828125 -17.398438 L 5.824219 -17.386719 L 1.566406 -0.226562 L 1.5625 -0.210938 C 1.566406 -0.226562 1.566406 -0.253906 1.566406 -0.292969 C 1.558594 -0.402344 1.519531 -0.5 1.449219 -0.59375 C 1.378906 -0.6875 1.292969 -0.75 1.195312 -0.785156 C 1.164062 -0.792969 1.140625 -0.800781 1.125 -0.800781 L 3.636719 -0.800781 C 3.546875 -0.800781 3.460938 -0.765625 3.378906 -0.691406 C 3.3125 -0.636719 3.273438 -0.578125 3.261719 -0.527344 L 3.265625 -0.539062 L 4.210938 -4.386719 L 10.277344 -4.386719 L 11.253906 -0.539062 L 11.257812 -0.527344 C 11.246094 -0.578125 11.207031 -0.636719 11.140625 -0.691406 C 11.058594 -0.765625 10.972656 -0.800781 10.882812 -0.800781 Z M 8.082031 -6.375 L 6.46875 -13.339844 L 7.246094 -13.519531 L 8.027344 -13.339844 L 6.414062 -6.375 L 5.632812 -6.554688 L 5.632812 -7.355469 L 8.859375 -7.355469 L 8.859375 -6.554688 Z M 9.867188 -5.753906 L 4.625 -5.753906 L 6.46875 -13.703125 L 8.027344 -13.703125 L 9.640625 -6.734375 Z M 9.867188 -5.753906 "/></g></g></g><g fill="#b21a22" fill-opacity="1"><g transform="translate(30.37325, 26.24968)"><g><path d="M 12.324219 -14.238281 L 12.324219 -9.089844 C 12.324219 -7.308594 11.71875 -6.042969 10.511719 -5.289062 L 10.089844 -5.964844 L 10.867188 -6.15625 L 12.199219 -0.648438 L 11.421875 -0.460938 L 12.191406 -0.675781 C 12.308594 -0.261719 12.25 0.0859375 12.027344 0.375 C 11.808594 0.660156 11.484375 0.800781 11.0625 0.800781 L 8.554688 0.800781 C 8.242188 0.800781 7.976562 0.710938 7.757812 0.527344 C 7.539062 0.351562 7.398438 0.109375 7.335938 -0.191406 L 8.117188 -0.359375 L 7.339844 -0.167969 L 6.109375 -5.214844 L 6.886719 -5.402344 L 6.886719 -4.601562 L 4.609375 -4.601562 L 4.609375 -5.402344 L 5.410156 -5.402344 L 5.410156 -0.410156 C 5.410156 -0.0507812 5.296875 0.238281 5.074219 0.464844 C 4.847656 0.6875 4.558594 0.800781 4.199219 0.800781 L 1.691406 0.800781 C 1.332031 0.800781 1.042969 0.6875 0.816406 0.464844 C 0.59375 0.238281 0.480469 -0.0507812 0.480469 -0.410156 L 0.480469 -17.515625 C 0.480469 -17.875 0.59375 -18.164062 0.816406 -18.390625 C 1.042969 -18.613281 1.332031 -18.726562 1.691406 -18.726562 L 7.835938 -18.726562 C 9.269531 -18.726562 10.375 -18.335938 11.15625 -17.558594 C 11.933594 -16.777344 12.324219 -15.671875 12.324219 -14.238281 Z M 10.722656 -14.238281 C 10.722656 -15.230469 10.488281 -15.957031 10.023438 -16.425781 C 9.554688 -16.890625 8.828125 -17.125 7.835938 -17.125 L 1.691406 -17.125 C 1.707031 -17.125 1.734375 -17.128906 1.765625 -17.140625 C 1.832031 -17.164062 1.894531 -17.203125 1.949219 -17.257812 C 2.003906 -17.3125 2.042969 -17.375 2.066406 -17.441406 C 2.074219 -17.472656 2.082031 -17.496094 2.082031 -17.515625 L 2.082031 -0.410156 C 2.082031 -0.429688 2.074219 -0.453125 2.066406 -0.484375 C 2.042969 -0.550781 2.003906 -0.613281 1.949219 -0.667969 C 1.894531 -0.722656 1.832031 -0.761719 1.765625 -0.785156 C 1.734375 -0.796875 1.707031 -0.800781 1.691406 -0.800781 L 4.199219 -0.800781 C 4.179688 -0.800781 4.15625 -0.796875 4.125 -0.785156 C 4.058594 -0.761719 3.996094 -0.722656 3.941406 -0.667969 C 3.886719 -0.613281 3.847656 -0.550781 3.824219 -0.484375 C 3.8125 -0.453125 3.808594 -0.429688 3.808594 -0.410156 L 3.808594 -6.203125 L 7.515625 -6.203125 L 8.898438 -0.539062 L 8.898438 -0.527344 C 8.886719 -0.589844 8.84375 -0.648438 8.773438 -0.707031 C 8.699219 -0.769531 8.625 -0.800781 8.554688 -0.800781 L 11.0625 -0.800781 C 11.046875 -0.796875 11.027344 -0.792969 11.003906 -0.785156 C 10.910156 -0.753906 10.832031 -0.691406 10.765625 -0.605469 C 10.695312 -0.519531 10.65625 -0.421875 10.648438 -0.320312 C 10.644531 -0.285156 10.644531 -0.257812 10.648438 -0.246094 L 10.644531 -0.257812 L 9.175781 -6.339844 L 9.664062 -6.644531 C 10.371094 -7.085938 10.722656 -7.902344 10.722656 -9.089844 Z M 4.609375 -9.507812 L 7.171875 -9.507812 C 7.253906 -9.507812 7.320312 -9.515625 7.363281 -9.53125 C 7.375 -9.53125 7.378906 -9.535156 7.382812 -9.535156 C 7.378906 -9.535156 7.375 -9.53125 7.371094 -9.527344 C 7.367188 -9.523438 7.367188 -9.523438 7.363281 -9.519531 C 7.367188 -9.523438 7.367188 -9.527344 7.371094 -9.535156 C 7.386719 -9.582031 7.394531 -9.648438 7.394531 -9.730469 L 7.394531 -13.597656 C 7.394531 -13.683594 7.386719 -13.746094 7.371094 -13.792969 C 7.367188 -13.800781 7.367188 -13.808594 7.363281 -13.808594 C 7.367188 -13.808594 7.367188 -13.804688 7.371094 -13.800781 C 7.375 -13.796875 7.378906 -13.792969 7.382812 -13.792969 C 7.378906 -13.792969 7.375 -13.796875 7.363281 -13.796875 C 7.320312 -13.8125 7.253906 -13.820312 7.171875 -13.820312 L 4.609375 -13.820312 L 4.609375 -14.621094 L 5.410156 -14.621094 L 5.410156 -8.707031 L 4.609375 -8.707031 Z M 3.808594 -7.90625 L 3.808594 -15.421875 L 7.171875 -15.421875 C 7.734375 -15.421875 8.175781 -15.257812 8.503906 -14.933594 C 8.832031 -14.605469 8.996094 -14.160156 8.996094 -13.597656 L 8.996094 -9.730469 C 8.996094 -9.167969 8.832031 -8.722656 8.503906 -8.398438 C 8.175781 -8.070312 7.734375 -7.90625 7.171875 -7.90625 Z M 3.808594 -7.90625 "/></g></g></g><g fill="#b21a22" fill-opacity="1"><g transform="translate(43.176669, 26.24968)"><g><path d="M 0.480469 -0.410156 L 0.480469 -17.515625 C 0.480469 -17.875 0.59375 -18.164062 0.816406 -18.390625 C 1.042969 -18.613281 1.332031 -18.726562 1.691406 -18.726562 L 7.835938 -18.726562 C 9.269531 -18.726562 10.378906 -18.332031 11.160156 -17.539062 C 11.933594 -16.753906 12.324219 -15.644531 12.324219 -14.210938 L 12.324219 -3.6875 C 12.324219 -2.273438 11.933594 -1.171875 11.160156 -0.386719 C 10.378906 0.40625 9.269531 0.800781 7.835938 0.800781 L 1.691406 0.800781 C 1.332031 0.800781 1.042969 0.6875 0.816406 0.464844 C 0.59375 0.238281 0.480469 -0.0507812 0.480469 -0.410156 Z M 2.082031 -0.410156 C 2.082031 -0.429688 2.074219 -0.453125 2.066406 -0.484375 C 2.042969 -0.550781 2.003906 -0.613281 1.949219 -0.667969 C 1.894531 -0.722656 1.832031 -0.761719 1.765625 -0.785156 C 1.734375 -0.796875 1.707031 -0.800781 1.691406 -0.800781 L 7.835938 -0.800781 C 8.824219 -0.800781 9.550781 -1.035156 10.019531 -1.507812 C 10.488281 -1.984375 10.722656 -2.710938 10.722656 -3.6875 L 10.722656 -14.210938 C 10.722656 -15.207031 10.488281 -15.941406 10.019531 -16.414062 C 9.550781 -16.890625 8.824219 -17.125 7.835938 -17.125 L 1.691406 -17.125 C 1.707031 -17.125 1.734375 -17.128906 1.765625 -17.140625 C 1.832031 -17.164062 1.894531 -17.203125 1.949219 -17.257812 C 2.003906 -17.3125 2.042969 -17.375 2.066406 -17.441406 C 2.074219 -17.472656 2.082031 -17.496094 2.082031 -17.515625 Z M 4.761719 -4.179688 L 7.117188 -4.179688 C 7.203125 -4.179688 7.269531 -4.1875 7.3125 -4.203125 C 7.324219 -4.207031 7.328125 -4.207031 7.332031 -4.210938 C 7.328125 -4.207031 7.324219 -4.207031 7.320312 -4.203125 C 7.316406 -4.199219 7.316406 -4.195312 7.3125 -4.191406 C 7.316406 -4.195312 7.316406 -4.199219 7.320312 -4.210938 C 7.335938 -4.253906 7.34375 -4.320312 7.34375 -4.40625 L 7.34375 -13.496094 C 7.34375 -13.585938 7.335938 -13.65625 7.316406 -13.707031 C 7.316406 -13.71875 7.3125 -13.726562 7.308594 -13.730469 C 7.308594 -13.730469 7.3125 -13.726562 7.3125 -13.722656 L 7.308594 -13.722656 C 7.265625 -13.738281 7.199219 -13.746094 7.117188 -13.746094 L 4.761719 -13.746094 L 4.761719 -14.546875 L 5.5625 -14.546875 L 5.5625 -3.378906 L 4.761719 -3.378906 Z M 3.960938 -2.578125 L 3.960938 -15.34375 L 7.117188 -15.34375 C 7.683594 -15.34375 8.132812 -15.175781 8.460938 -14.839844 C 8.78125 -14.511719 8.945312 -14.0625 8.945312 -13.496094 L 8.945312 -4.40625 C 8.945312 -3.84375 8.78125 -3.398438 8.453125 -3.070312 C 8.125 -2.742188 7.679688 -2.578125 7.117188 -2.578125 Z M 3.960938 -2.578125 "/></g></g></g><g clip-path="url(#e265e6c6f6)"><g fill="#b21a22" fill-opacity="1"><g transform="translate(55.980088, 26.24968)"><g><path d="M 0.480469 -8.039062 L 0.480469 -10.398438 C 0.480469 -10.789062 0.601562 -11.105469 0.84375 -11.347656 C 1.085938 -11.589844 1.402344 -11.710938 1.792969 -11.710938 L 5.839844 -11.710938 C 6.230469 -11.710938 6.546875 -11.589844 6.789062 -11.347656 C 7.03125 -11.105469 7.152344 -10.789062 7.152344 -10.398438 L 7.152344 -8.039062 C 7.152344 -7.648438 7.03125 -7.332031 6.789062 -7.089844 C 6.546875 -6.847656 6.230469 -6.726562 5.839844 -6.726562 L 1.792969 -6.726562 C 1.402344 -6.726562 1.085938 -6.847656 0.84375 -7.089844 C 0.601562 -7.332031 0.480469 -7.648438 0.480469 -8.039062 Z M 2.082031 -8.039062 C 2.082031 -8.039062 2.082031 -8.035156 2.082031 -8.03125 C 2.082031 -8.03125 2.082031 -8.03125 2.082031 -8.035156 C 2.078125 -8.042969 2.078125 -8.054688 2.070312 -8.070312 C 2.054688 -8.125 2.019531 -8.175781 1.972656 -8.222656 C 1.929688 -8.269531 1.878906 -8.300781 1.820312 -8.320312 C 1.808594 -8.324219 1.796875 -8.328125 1.785156 -8.328125 C 1.785156 -8.328125 1.789062 -8.328125 1.792969 -8.328125 L 5.839844 -8.328125 C 5.84375 -8.328125 5.84375 -8.328125 5.847656 -8.328125 C 5.847656 -8.328125 5.847656 -8.328125 5.84375 -8.328125 C 5.835938 -8.328125 5.824219 -8.324219 5.808594 -8.320312 C 5.753906 -8.300781 5.703125 -8.269531 5.65625 -8.222656 C 5.609375 -8.175781 5.578125 -8.125 5.558594 -8.070312 C 5.554688 -8.054688 5.550781 -8.042969 5.550781 -8.035156 C 5.550781 -8.03125 5.550781 -8.03125 5.550781 -8.03125 C 5.550781 -8.035156 5.550781 -8.039062 5.550781 -8.039062 L 5.550781 -10.398438 C 5.550781 -10.398438 5.550781 -10.402344 5.550781 -10.40625 C 5.550781 -10.40625 5.550781 -10.40625 5.550781 -10.402344 C 5.550781 -10.394531 5.554688 -10.382812 5.558594 -10.367188 C 5.578125 -10.3125 5.609375 -10.261719 5.65625 -10.214844 C 5.703125 -10.167969 5.753906 -10.136719 5.808594 -10.117188 C 5.824219 -10.113281 5.835938 -10.109375 5.84375 -10.109375 C 5.847656 -10.109375 5.847656 -10.109375 5.847656 -10.109375 C 5.84375 -10.109375 5.84375 -10.109375 5.839844 -10.109375 L 1.792969 -10.109375 C 1.789062 -10.109375 1.785156 -10.109375 1.785156 -10.109375 C 1.796875 -10.109375 1.808594 -10.113281 1.820312 -10.117188 C 1.878906 -10.136719 1.929688 -10.167969 1.972656 -10.214844 C 2.019531 -10.261719 2.054688 -10.3125 2.070312 -10.367188 C 2.078125 -10.382812 2.078125 -10.394531 2.082031 -10.402344 C 2.082031 -10.40625 2.082031 -10.40625 2.082031 -10.40625 C 2.082031 -10.402344 2.082031 -10.398438 2.082031 -10.398438 Z M 2.082031 -8.039062 "/></g></g></g></g><g fill="#b21a22" fill-opacity="1"><g transform="translate(4.663832, 61.830694)"><g><path d="M 10.191406 -18.726562 L 12.753906 -18.726562 C 13.203125 -18.726562 13.550781 -18.566406 13.796875 -18.246094 C 13.949219 -18.046875 14.027344 -17.820312 14.027344 -17.570312 C 14.027344 -17.375 13.976562 -17.175781 13.878906 -16.980469 L 13.164062 -17.335938 L 13.894531 -17.011719 L 9.207031 -6.386719 L 8.476562 -6.710938 L 9.277344 -6.710938 L 9.277344 -0.511719 C 9.277344 -0.121094 9.15625 0.195312 8.914062 0.4375 C 8.671875 0.679688 8.355469 0.800781 7.964844 0.800781 L 5.503906 0.800781 C 5.113281 0.800781 4.796875 0.679688 4.554688 0.4375 C 4.3125 0.195312 4.191406 -0.121094 4.191406 -0.511719 L 4.191406 -6.710938 L 4.992188 -6.710938 L 4.261719 -6.386719 L -0.429688 -17.027344 L -0.4375 -17.039062 C -0.609375 -17.476562 -0.578125 -17.867188 -0.339844 -18.214844 C -0.101562 -18.554688 0.25 -18.726562 0.71875 -18.726562 L 3.277344 -18.726562 C 3.589844 -18.726562 3.863281 -18.644531 4.101562 -18.480469 C 4.335938 -18.316406 4.507812 -18.089844 4.617188 -17.796875 L 3.867188 -17.515625 L 4.601562 -17.835938 L 7.46875 -11.253906 L 6.734375 -10.933594 L 6 -11.253906 L 8.871094 -17.835938 L 9.601562 -17.515625 L 8.855469 -17.796875 C 8.964844 -18.089844 9.136719 -18.316406 9.371094 -18.480469 C 9.605469 -18.644531 9.878906 -18.726562 10.191406 -18.726562 Z M 10.191406 -17.125 C 10.214844 -17.125 10.246094 -17.140625 10.285156 -17.164062 C 10.324219 -17.191406 10.34375 -17.214844 10.351562 -17.234375 L 10.34375 -17.214844 L 6.734375 -8.929688 L 3.125 -17.214844 L 3.117188 -17.234375 C 3.125 -17.214844 3.148438 -17.191406 3.1875 -17.164062 C 3.226562 -17.140625 3.253906 -17.125 3.277344 -17.125 L 0.71875 -17.125 C 0.730469 -17.125 0.753906 -17.132812 0.785156 -17.144531 C 0.863281 -17.179688 0.929688 -17.230469 0.976562 -17.304688 C 1.03125 -17.378906 1.054688 -17.457031 1.058594 -17.546875 C 1.058594 -17.585938 1.058594 -17.617188 1.050781 -17.632812 L 0.308594 -17.335938 L 1.039062 -17.660156 L 5.792969 -6.878906 L 5.792969 -0.511719 C 5.792969 -0.507812 5.792969 -0.503906 5.792969 -0.503906 C 5.792969 -0.515625 5.789062 -0.527344 5.785156 -0.542969 C 5.765625 -0.597656 5.734375 -0.648438 5.6875 -0.695312 C 5.640625 -0.742188 5.589844 -0.773438 5.535156 -0.792969 C 5.519531 -0.796875 5.507812 -0.800781 5.5 -0.800781 C 5.496094 -0.800781 5.496094 -0.800781 5.496094 -0.800781 C 5.5 -0.800781 5.503906 -0.800781 5.503906 -0.800781 L 7.964844 -0.800781 C 7.96875 -0.800781 7.96875 -0.800781 7.972656 -0.800781 C 7.960938 -0.800781 7.949219 -0.796875 7.933594 -0.792969 C 7.878906 -0.773438 7.828125 -0.742188 7.78125 -0.695312 C 7.734375 -0.648438 7.703125 -0.597656 7.683594 -0.542969 C 7.679688 -0.527344 7.675781 -0.515625 7.675781 -0.503906 C 7.675781 -0.503906 7.675781 -0.507812 7.675781 -0.511719 L 7.675781 -6.878906 L 12.4375 -17.675781 L 12.445312 -17.695312 C 12.433594 -17.667969 12.425781 -17.625 12.425781 -17.570312 C 12.425781 -17.460938 12.460938 -17.359375 12.527344 -17.269531 C 12.574219 -17.210938 12.628906 -17.167969 12.695312 -17.140625 C 12.722656 -17.128906 12.742188 -17.125 12.753906 -17.125 Z M 10.191406 -17.125 "/></g></g></g><g fill="#b21a22" fill-opacity="1"><g transform="translate(18.133031, 61.830694)"><g><path d="M 13.367188 0.800781 L 10.882812 0.800781 C 10.570312 0.800781 10.304688 0.703125 10.085938 0.511719 C 9.886719 0.335938 9.753906 0.101562 9.691406 -0.191406 L 10.472656 -0.359375 L 9.699219 -0.160156 L 8.878906 -3.386719 L 9.652344 -3.585938 L 9.652344 -2.785156 L 4.839844 -2.785156 L 4.839844 -3.585938 L 5.617188 -3.394531 L 4.824219 -0.167969 L 4.046875 -0.359375 L 4.828125 -0.191406 C 4.765625 0.101562 4.632812 0.335938 4.433594 0.511719 C 4.214844 0.703125 3.949219 0.800781 3.636719 0.800781 L 1.125 0.800781 C 0.710938 0.800781 0.394531 0.660156 0.175781 0.378906 C -0.0429688 0.0898438 -0.09375 -0.257812 0.0273438 -0.660156 L 0.792969 -0.433594 L 0.015625 -0.628906 L 4.269531 -17.757812 L 5.042969 -17.566406 L 4.261719 -17.734375 C 4.328125 -18.035156 4.46875 -18.277344 4.683594 -18.453125 C 4.902344 -18.636719 5.167969 -18.726562 5.480469 -18.726562 L 9.039062 -18.726562 C 9.351562 -18.726562 9.617188 -18.636719 9.835938 -18.453125 C 10.050781 -18.277344 10.191406 -18.035156 10.257812 -17.734375 L 9.476562 -17.566406 L 10.25 -17.757812 L 14.503906 -0.628906 L 13.726562 -0.433594 L 14.492188 -0.660156 C 14.617188 -0.246094 14.558594 0.109375 14.316406 0.398438 C 14.097656 0.667969 13.78125 0.800781 13.367188 0.800781 Z M 13.367188 -0.800781 C 13.371094 -0.800781 13.375 -0.800781 13.378906 -0.800781 C 13.375 -0.800781 13.375 -0.800781 13.375 -0.800781 C 13.359375 -0.796875 13.34375 -0.792969 13.324219 -0.789062 C 13.230469 -0.757812 13.152344 -0.699219 13.082031 -0.617188 C 13.003906 -0.523438 12.960938 -0.421875 12.953125 -0.308594 C 12.949219 -0.265625 12.953125 -0.230469 12.957031 -0.210938 L 12.953125 -0.226562 L 8.695312 -17.386719 L 8.691406 -17.398438 C 8.707031 -17.335938 8.746094 -17.277344 8.820312 -17.21875 C 8.894531 -17.15625 8.96875 -17.125 9.039062 -17.125 L 5.480469 -17.125 C 5.550781 -17.125 5.625 -17.15625 5.699219 -17.21875 C 5.773438 -17.277344 5.8125 -17.335938 5.828125 -17.398438 L 5.824219 -17.386719 L 1.566406 -0.226562 L 1.5625 -0.210938 C 1.566406 -0.226562 1.566406 -0.253906 1.566406 -0.292969 C 1.558594 -0.402344 1.519531 -0.5 1.449219 -0.59375 C 1.378906 -0.6875 1.292969 -0.75 1.195312 -0.785156 C 1.164062 -0.792969 1.140625 -0.800781 1.125 -0.800781 L 3.636719 -0.800781 C 3.546875 -0.800781 3.460938 -0.765625 3.378906 -0.691406 C 3.3125 -0.636719 3.273438 -0.578125 3.261719 -0.527344 L 3.265625 -0.539062 L 4.210938 -4.386719 L 10.277344 -4.386719 L 11.253906 -0.539062 L 11.257812 -0.527344 C 11.246094 -0.578125 11.207031 -0.636719 11.140625 -0.691406 C 11.058594 -0.765625 10.972656 -0.800781 10.882812 -0.800781 Z M 8.082031 -6.375 L 6.46875 -13.339844 L 7.246094 -13.519531 L 8.027344 -13.339844 L 6.414062 -6.375 L 5.632812 -6.554688 L 5.632812 -7.355469 L 8.859375 -7.355469 L 8.859375 -6.554688 Z M 9.867188 -5.753906 L 4.625 -5.753906 L 6.46875 -13.703125 L 8.027344 -13.703125 L 9.640625 -6.734375 Z M 9.867188 -5.753906 "/></g></g></g><g fill="#b21a22" fill-opacity="1"><g transform="translate(32.652108, 61.830694)"><g><path d="M 11.984375 -18.726562 L 15.363281 -18.726562 C 15.757812 -18.726562 16.074219 -18.605469 16.316406 -18.363281 C 16.554688 -18.121094 16.675781 -17.804688 16.675781 -17.414062 L 16.675781 -0.511719 C 16.675781 -0.121094 16.554688 0.195312 16.316406 0.4375 C 16.074219 0.679688 15.757812 0.800781 15.363281 0.800781 L 12.984375 0.800781 C 12.589844 0.800781 12.273438 0.679688 12.03125 0.4375 C 11.792969 0.195312 11.671875 -0.121094 11.671875 -0.511719 L 11.671875 -10.574219 L 12.472656 -10.574219 L 12.472656 -9.777344 L 12.292969 -9.777344 L 12.292969 -10.574219 L 13.070312 -10.390625 L 10.660156 -0.230469 L 10.652344 -0.210938 C 10.5625 0.101562 10.398438 0.347656 10.167969 0.523438 C 9.929688 0.707031 9.648438 0.800781 9.320312 0.800781 L 7.808594 0.800781 C 7.484375 0.800781 7.199219 0.707031 6.960938 0.523438 C 6.730469 0.347656 6.570312 0.101562 6.480469 -0.210938 L 6.472656 -0.230469 L 4.0625 -10.390625 L 4.839844 -10.574219 L 4.839844 -9.777344 L 4.660156 -9.777344 L 4.660156 -10.574219 L 5.460938 -10.574219 L 5.460938 -0.511719 C 5.460938 -0.121094 5.339844 0.195312 5.097656 0.4375 C 4.855469 0.679688 4.539062 0.800781 4.148438 0.800781 L 1.792969 0.800781 C 1.402344 0.800781 1.085938 0.679688 0.84375 0.4375 C 0.601562 0.195312 0.480469 -0.121094 0.480469 -0.511719 L 0.480469 -17.414062 C 0.480469 -17.804688 0.601562 -18.121094 0.84375 -18.363281 C 1.085938 -18.605469 1.402344 -18.726562 1.792969 -18.726562 L 5.171875 -18.726562 C 5.5 -18.726562 5.78125 -18.632812 6.019531 -18.449219 C 6.25 -18.273438 6.414062 -18.027344 6.503906 -17.714844 L 6.507812 -17.699219 L 9.355469 -6.261719 L 8.578125 -6.070312 L 7.800781 -6.261719 L 10.648438 -17.699219 L 10.652344 -17.714844 C 10.746094 -18.027344 10.90625 -18.273438 11.136719 -18.449219 C 11.375 -18.632812 11.65625 -18.726562 11.984375 -18.726562 Z M 11.984375 -17.125 C 12.019531 -17.125 12.066406 -17.144531 12.117188 -17.183594 C 12.144531 -17.207031 12.164062 -17.230469 12.183594 -17.253906 C 12.1875 -17.261719 12.1875 -17.265625 12.191406 -17.273438 C 12.191406 -17.269531 12.191406 -17.269531 12.1875 -17.265625 L 11.421875 -17.488281 L 12.199219 -17.296875 L 9.355469 -5.875 L 7.800781 -5.875 L 4.960938 -17.296875 L 5.734375 -17.488281 L 4.96875 -17.265625 C 4.96875 -17.269531 4.964844 -17.269531 4.964844 -17.273438 C 4.96875 -17.265625 4.972656 -17.261719 4.976562 -17.253906 C 4.992188 -17.230469 5.011719 -17.207031 5.042969 -17.183594 C 5.09375 -17.144531 5.136719 -17.125 5.171875 -17.125 L 1.792969 -17.125 C 1.789062 -17.125 1.785156 -17.125 1.785156 -17.125 C 1.796875 -17.125 1.808594 -17.128906 1.820312 -17.132812 C 1.878906 -17.152344 1.929688 -17.183594 1.972656 -17.230469 C 2.019531 -17.277344 2.054688 -17.328125 2.070312 -17.382812 C 2.078125 -17.398438 2.078125 -17.410156 2.082031 -17.421875 C 2.082031 -17.417969 2.082031 -17.417969 2.082031 -17.414062 L 2.082031 -0.511719 C 2.082031 -0.507812 2.082031 -0.503906 2.082031 -0.503906 C 2.078125 -0.515625 2.078125 -0.527344 2.070312 -0.542969 C 2.054688 -0.597656 2.019531 -0.648438 1.972656 -0.695312 C 1.929688 -0.742188 1.878906 -0.773438 1.820312 -0.792969 C 1.808594 -0.796875 1.796875 -0.800781 1.785156 -0.800781 C 1.785156 -0.800781 1.789062 -0.800781 1.792969 -0.800781 L 4.148438 -0.800781 C 4.152344 -0.800781 4.15625 -0.800781 4.15625 -0.800781 C 4.144531 -0.800781 4.132812 -0.796875 4.121094 -0.792969 C 4.0625 -0.773438 4.011719 -0.742188 3.964844 -0.695312 C 3.921875 -0.648438 3.886719 -0.597656 3.871094 -0.542969 C 3.863281 -0.527344 3.863281 -0.515625 3.859375 -0.503906 C 3.859375 -0.503906 3.859375 -0.507812 3.859375 -0.511719 L 3.859375 -11.375 L 5.472656 -11.375 L 8.027344 -0.621094 L 7.246094 -0.433594 L 8.015625 -0.660156 C 8.015625 -0.65625 8.015625 -0.65625 8.015625 -0.652344 C 8.015625 -0.660156 8.011719 -0.664062 8.007812 -0.671875 C 7.992188 -0.695312 7.96875 -0.71875 7.941406 -0.742188 C 7.890625 -0.78125 7.847656 -0.800781 7.808594 -0.800781 L 9.320312 -0.800781 C 9.285156 -0.800781 9.242188 -0.78125 9.191406 -0.742188 C 9.160156 -0.71875 9.140625 -0.695312 9.125 -0.671875 C 9.121094 -0.664062 9.117188 -0.660156 9.113281 -0.652344 C 9.113281 -0.65625 9.117188 -0.65625 9.117188 -0.660156 L 9.882812 -0.433594 L 9.105469 -0.621094 L 11.660156 -11.375 L 13.269531 -11.375 L 13.269531 -0.511719 C 13.269531 -0.507812 13.269531 -0.503906 13.273438 -0.503906 C 13.273438 -0.503906 13.269531 -0.503906 13.269531 -0.503906 C 13.269531 -0.515625 13.265625 -0.527344 13.261719 -0.542969 C 13.242188 -0.597656 13.210938 -0.648438 13.164062 -0.695312 C 13.117188 -0.742188 13.066406 -0.773438 13.011719 -0.792969 C 13 -0.796875 12.988281 -0.800781 12.976562 -0.800781 C 12.976562 -0.800781 12.972656 -0.800781 12.972656 -0.800781 C 12.976562 -0.800781 12.980469 -0.800781 12.984375 -0.800781 L 15.363281 -0.800781 C 15.367188 -0.800781 15.371094 -0.800781 15.375 -0.800781 C 15.375 -0.800781 15.371094 -0.800781 15.371094 -0.800781 C 15.359375 -0.800781 15.347656 -0.796875 15.335938 -0.792969 C 15.28125 -0.773438 15.230469 -0.742188 15.183594 -0.695312 C 15.136719 -0.648438 15.105469 -0.597656 15.085938 -0.542969 C 15.082031 -0.527344 15.078125 -0.515625 15.078125 -0.503906 C 15.078125 -0.503906 15.078125 -0.507812 15.078125 -0.511719 L 15.078125 -17.414062 C 15.078125 -17.417969 15.078125 -17.417969 15.078125 -17.421875 C 15.078125 -17.410156 15.082031 -17.398438 15.085938 -17.382812 C 15.105469 -17.328125 15.136719 -17.277344 15.183594 -17.230469 C 15.230469 -17.183594 15.28125 -17.152344 15.335938 -17.132812 C 15.347656 -17.128906 15.359375 -17.125 15.371094 -17.125 C 15.371094 -17.125 15.375 -17.125 15.375 -17.125 C 15.371094 -17.125 15.367188 -17.125 15.363281 -17.125 Z M 11.984375 -17.125 "/></g></g></g><g fill="#b21a22" fill-opacity="1"><g transform="translate(49.80869, 61.830694)"><g><path d="M 3.960938 -3.378906 L 3.960938 -17.515625 C 3.960938 -17.496094 3.96875 -17.472656 3.976562 -17.441406 C 4 -17.375 4.039062 -17.3125 4.09375 -17.257812 C 4.148438 -17.203125 4.210938 -17.164062 4.28125 -17.140625 C 4.308594 -17.128906 4.335938 -17.125 4.351562 -17.125 L 1.691406 -17.125 C 1.707031 -17.125 1.734375 -17.128906 1.765625 -17.140625 C 1.832031 -17.164062 1.894531 -17.203125 1.949219 -17.257812 C 2.003906 -17.3125 2.042969 -17.375 2.066406 -17.441406 C 2.074219 -17.472656 2.082031 -17.496094 2.082031 -17.515625 L 2.082031 -0.410156 C 2.082031 -0.429688 2.074219 -0.453125 2.066406 -0.484375 C 2.042969 -0.550781 2.003906 -0.613281 1.949219 -0.667969 C 1.894531 -0.722656 1.832031 -0.761719 1.765625 -0.785156 C 1.734375 -0.796875 1.707031 -0.800781 1.691406 -0.800781 L 9.832031 -0.800781 C 9.816406 -0.800781 9.789062 -0.796875 9.757812 -0.785156 C 9.691406 -0.761719 9.628906 -0.722656 9.574219 -0.667969 C 9.519531 -0.613281 9.480469 -0.550781 9.457031 -0.484375 C 9.449219 -0.453125 9.441406 -0.429688 9.441406 -0.410156 L 9.441406 -2.96875 C 9.441406 -2.953125 9.449219 -2.925781 9.457031 -2.898438 C 9.480469 -2.828125 9.519531 -2.765625 9.574219 -2.710938 C 9.628906 -2.65625 9.691406 -2.617188 9.757812 -2.59375 C 9.789062 -2.585938 9.816406 -2.578125 9.832031 -2.578125 L 3.960938 -2.578125 Z M 5.5625 -3.378906 L 4.761719 -3.378906 L 4.761719 -4.179688 L 9.832031 -4.179688 C 10.191406 -4.179688 10.480469 -4.066406 10.707031 -3.84375 C 10.929688 -3.621094 11.042969 -3.328125 11.042969 -2.96875 L 11.042969 -0.410156 C 11.042969 -0.0507812 10.929688 0.238281 10.707031 0.464844 C 10.480469 0.6875 10.191406 0.800781 9.832031 0.800781 L 1.691406 0.800781 C 1.332031 0.800781 1.042969 0.6875 0.816406 0.464844 C 0.59375 0.238281 0.480469 -0.0507812 0.480469 -0.410156 L 0.480469 -17.515625 C 0.480469 -17.875 0.59375 -18.164062 0.816406 -18.390625 C 1.042969 -18.613281 1.332031 -18.726562 1.691406 -18.726562 L 4.351562 -18.726562 C 4.710938 -18.726562 5.003906 -18.613281 5.226562 -18.390625 C 5.449219 -18.164062 5.5625 -17.875 5.5625 -17.515625 Z M 5.5625 -3.378906 "/></g></g></g><g fill="#060705" fill-opacity="1"><g transform="translate(2.384974, 26.24968)"><g><path d="M 10.1875 -17.921875 L 12.75 -17.921875 C 12.9375 -17.921875 13.070312 -17.863281 13.15625 -17.75 C 13.25 -17.644531 13.25 -17.507812 13.15625 -17.34375 L 8.484375 -6.703125 L 8.484375 -0.515625 C 8.484375 -0.171875 8.3125 0 7.96875 0 L 5.5 0 C 5.164062 0 5 -0.171875 5 -0.515625 L 5 -6.703125 L 0.3125 -17.34375 C 0.238281 -17.507812 0.238281 -17.644531 0.3125 -17.75 C 0.394531 -17.863281 0.53125 -17.921875 0.71875 -17.921875 L 3.28125 -17.921875 C 3.570312 -17.921875 3.765625 -17.785156 3.859375 -17.515625 L 6.734375 -10.9375 L 9.609375 -17.515625 C 9.703125 -17.785156 9.894531 -17.921875 10.1875 -17.921875 Z M 10.1875 -17.921875 "/></g></g></g><g fill="#060705" fill-opacity="1"><g transform="translate(15.854172, 26.24968)"><g><path d="M 13.375 0 L 10.890625 0 C 10.660156 0 10.519531 -0.117188 10.46875 -0.359375 L 9.65625 -3.578125 L 4.84375 -3.578125 L 4.046875 -0.359375 C 3.992188 -0.117188 3.859375 0 3.640625 0 L 1.125 0 C 0.820312 0 0.710938 -0.144531 0.796875 -0.4375 L 5.046875 -17.5625 C 5.097656 -17.800781 5.242188 -17.921875 5.484375 -17.921875 L 9.046875 -17.921875 C 9.285156 -17.921875 9.425781 -17.800781 9.46875 -17.5625 L 13.734375 -0.4375 C 13.816406 -0.144531 13.695312 0 13.375 0 Z M 8.859375 -6.5625 L 7.25 -13.515625 L 5.640625 -6.5625 Z M 8.859375 -6.5625 "/></g></g></g><g fill="#060705" fill-opacity="1"><g transform="translate(30.37325, 26.24968)"><g><path d="M 11.53125 -14.234375 L 11.53125 -9.09375 C 11.53125 -7.601562 11.050781 -6.5625 10.09375 -5.96875 L 11.421875 -0.46875 C 11.503906 -0.15625 11.382812 0 11.0625 0 L 8.546875 0 C 8.304688 0 8.164062 -0.117188 8.125 -0.359375 L 6.890625 -5.40625 L 4.609375 -5.40625 L 4.609375 -0.40625 C 4.609375 -0.132812 4.472656 0 4.203125 0 L 1.6875 0 C 1.414062 0 1.28125 -0.132812 1.28125 -0.40625 L 1.28125 -17.515625 C 1.28125 -17.785156 1.414062 -17.921875 1.6875 -17.921875 L 7.84375 -17.921875 C 9.050781 -17.921875 9.96875 -17.609375 10.59375 -16.984375 C 11.21875 -16.367188 11.53125 -15.453125 11.53125 -14.234375 Z M 4.609375 -8.703125 L 7.171875 -8.703125 C 7.847656 -8.703125 8.1875 -9.046875 8.1875 -9.734375 L 8.1875 -13.59375 C 8.1875 -14.28125 7.847656 -14.625 7.171875 -14.625 L 4.609375 -14.625 Z M 4.609375 -8.703125 "/></g></g></g><g fill="#060705" fill-opacity="1"><g transform="translate(43.176669, 26.24968)"><g><path d="M 1.28125 -0.40625 L 1.28125 -17.515625 C 1.28125 -17.785156 1.414062 -17.921875 1.6875 -17.921875 L 7.84375 -17.921875 C 9.050781 -17.921875 9.96875 -17.601562 10.59375 -16.96875 C 11.21875 -16.34375 11.53125 -15.425781 11.53125 -14.21875 L 11.53125 -3.6875 C 11.53125 -2.488281 11.21875 -1.570312 10.59375 -0.9375 C 9.96875 -0.3125 9.050781 0 7.84375 0 L 1.6875 0 C 1.414062 0 1.28125 -0.132812 1.28125 -0.40625 Z M 4.765625 -3.375 L 7.125 -3.375 C 7.800781 -3.375 8.140625 -3.71875 8.140625 -4.40625 L 8.140625 -13.5 C 8.140625 -14.195312 7.800781 -14.546875 7.125 -14.546875 L 4.765625 -14.546875 Z M 4.765625 -3.375 "/></g></g></g><g fill="#060705" fill-opacity="1"><g transform="translate(55.980088, 26.24968)"><g><path d="M 1.28125 -8.046875 L 1.28125 -10.390625 C 1.28125 -10.734375 1.453125 -10.90625 1.796875 -10.90625 L 5.84375 -10.90625 C 6.175781 -10.90625 6.34375 -10.734375 6.34375 -10.390625 L 6.34375 -8.046875 C 6.34375 -7.703125 6.175781 -7.53125 5.84375 -7.53125 L 1.796875 -7.53125 C 1.453125 -7.53125 1.28125 -7.703125 1.28125 -8.046875 Z M 1.28125 -8.046875 "/></g></g></g><g fill="#060705" fill-opacity="1"><g transform="translate(4.663832, 61.830694)"><g><path d="M 10.1875 -17.921875 L 12.75 -17.921875 C 12.9375 -17.921875 13.070312 -17.863281 13.15625 -17.75 C 13.25 -17.644531 13.25 -17.507812 13.15625 -17.34375 L 8.484375 -6.703125 L 8.484375 -0.515625 C 8.484375 -0.171875 8.3125 0 7.96875 0 L 5.5 0 C 5.164062 0 5 -0.171875 5 -0.515625 L 5 -6.703125 L 0.3125 -17.34375 C 0.238281 -17.507812 0.238281 -17.644531 0.3125 -17.75 C 0.394531 -17.863281 0.53125 -17.921875 0.71875 -17.921875 L 3.28125 -17.921875 C 3.570312 -17.921875 3.765625 -17.785156 3.859375 -17.515625 L 6.734375 -10.9375 L 9.609375 -17.515625 C 9.703125 -17.785156 9.894531 -17.921875 10.1875 -17.921875 Z M 10.1875 -17.921875 "/></g></g></g><g fill="#060705" fill-opacity="1"><g transform="translate(18.133031, 61.830694)"><g><path d="M 13.375 0 L 10.890625 0 C 10.660156 0 10.519531 -0.117188 10.46875 -0.359375 L 9.65625 -3.578125 L 4.84375 -3.578125 L 4.046875 -0.359375 C 3.992188 -0.117188 3.859375 0 3.640625 0 L 1.125 0 C 0.820312 0 0.710938 -0.144531 0.796875 -0.4375 L 5.046875 -17.5625 C 5.097656 -17.800781 5.242188 -17.921875 5.484375 -17.921875 L 9.046875 -17.921875 C 9.285156 -17.921875 9.425781 -17.800781 9.46875 -17.5625 L 13.734375 -0.4375 C 13.816406 -0.144531 13.695312 0 13.375 0 Z M 8.859375 -6.5625 L 7.25 -13.515625 L 5.640625 -6.5625 Z M 8.859375 -6.5625 "/></g></g></g><g fill="#060705" fill-opacity="1"><g transform="translate(32.652108, 61.830694)"><g><path d="M 11.984375 -17.921875 L 15.359375 -17.921875 C 15.703125 -17.921875 15.875 -17.753906 15.875 -17.421875 L 15.875 -0.515625 C 15.875 -0.171875 15.703125 0 15.359375 0 L 12.984375 0 C 12.640625 0 12.46875 -0.171875 12.46875 -0.515625 L 12.46875 -10.578125 L 12.296875 -10.578125 L 9.890625 -0.4375 C 9.796875 -0.144531 9.609375 0 9.328125 0 L 7.8125 0 C 7.519531 0 7.332031 -0.144531 7.25 -0.4375 L 4.84375 -10.578125 L 4.65625 -10.578125 L 4.65625 -0.515625 C 4.65625 -0.171875 4.488281 0 4.15625 0 L 1.796875 0 C 1.453125 0 1.28125 -0.171875 1.28125 -0.515625 L 1.28125 -17.421875 C 1.28125 -17.753906 1.453125 -17.921875 1.796875 -17.921875 L 5.171875 -17.921875 C 5.460938 -17.921875 5.648438 -17.773438 5.734375 -17.484375 L 8.578125 -6.0625 L 11.421875 -17.484375 C 11.503906 -17.773438 11.691406 -17.921875 11.984375 -17.921875 Z M 11.984375 -17.921875 "/></g></g></g><g fill="#060705" fill-opacity="1"><g transform="translate(49.80869, 61.830694)"><g><path d="M 4.765625 -3.375 L 4.765625 -17.515625 C 4.765625 -17.785156 4.628906 -17.921875 4.359375 -17.921875 L 1.6875 -17.921875 C 1.414062 -17.921875 1.28125 -17.785156 1.28125 -17.515625 L 1.28125 -0.40625 C 1.28125 -0.132812 1.414062 0 1.6875 0 L 9.828125 0 C 10.109375 0 10.25 -0.132812 10.25 -0.40625 L 10.25 -2.96875 C 10.25 -3.238281 10.109375 -3.375 9.828125 -3.375 Z M 4.765625 -3.375 "/></g></g></g></g></g></svg>