<svg xmlns="http://www.w3.org/2000/svg" xmlns:xlink="http://www.w3.org/1999/xlink" width="128" zoomAndPan="magnify" viewBox="0 0 96 95.999999" height="128" preserveAspectRatio="xMidYMid meet" version="1.2"><defs><clipPath id="d2c33c0bb0"><path d="M 6 0 L 90 0 L 90 96 L 6 96 Z M 6 0 "/></clipPath><clipPath id="3be311d736"><path d="M -14.304688 36.578125 L 68.691406 -11.898438 L 110.335938 59.402344 L 27.339844 107.878906 Z M -14.304688 36.578125 "/></clipPath><clipPath id="d5b971cade"><path d="M 89.484375 23.769531 L 89.5625 71.535156 L 48.082031 95.765625 L 6.515625 72.226562 L 6.4375 24.464844 L 47.921875 0.234375 Z M 89.484375 23.769531 "/></clipPath><clipPath id="ce7393c484"><path d="M 14.140625 9.121094 L 81.851562 9.121094 L 81.851562 86.839844 L 14.140625 86.839844 Z M 14.140625 9.121094 "/></clipPath></defs><g id="bb75676e3d"><g clip-rule="nonzero" clip-path="url(#d2c33c0bb0)"><g clip-rule="nonzero" clip-path="url(#3be311d736)"><g clip-rule="nonzero" clip-path="url(#d5b971cade)"><path style=" stroke:none;fill-rule:nonzero;fill:#65b30e;fill-opacity:1;" d="M -14.304688 36.578125 L 68.691406 -11.898438 L 110.335938 59.402344 L 27.339844 107.878906 Z M -14.304688 36.578125 "/></g></g></g><path style=" stroke:none;fill-rule:nonzero;fill:#87ff00;fill-opacity:1;" d="M 34.453125 34.738281 L 34.410156 34.695312 L 24.839844 44.265625 L 48.074219 67.457031 L 57.644531 57.933594 L 71.308594 44.265625 L 61.738281 34.695312 L 61.738281 34.652344 L 34.410156 34.652344 Z M 34.453125 34.738281 "/><g clip-rule="nonzero" clip-path="url(#ce7393c484)"><path style=" stroke:none;fill-rule:nonzero;fill:#87ff00;fill-opacity:1;" d="M 47.988281 9.179688 L 14.148438 28.574219 L 14.148438 67.371094 L 47.988281 86.769531 L 81.828125 67.371094 L 81.828125 28.574219 Z M 75.359375 63.664062 L 47.988281 79.4375 L 20.613281 63.664062 L 20.617188 32.195312 L 47.988281 16.417969 L 75.363281 32.195312 L 75.363281 63.664062 Z M 75.359375 63.664062 "/></g><g style="fill:#b21a22;fill-opacity:1;"><g transform="translate(11.325214, 43.195258)"><path style="stroke:none" d="M 8.246094 0.492188 L 6.714844 0.492188 C 6.519531 0.492188 6.355469 0.433594 6.222656 0.316406 C 6.097656 0.207031 6.015625 0.0625 5.976562 -0.117188 L 6.460938 -0.222656 L 5.980469 -0.101562 L 5.476562 -2.089844 L 5.953125 -2.210938 L 5.953125 -1.71875 L 2.984375 -1.71875 L 2.984375 -2.210938 L 3.464844 -2.09375 L 2.976562 -0.101562 L 2.496094 -0.222656 L 2.976562 -0.117188 C 2.941406 0.0625 2.859375 0.207031 2.734375 0.316406 C 2.597656 0.433594 2.433594 0.492188 2.242188 0.492188 L 0.695312 0.492188 C 0.4375 0.492188 0.242188 0.40625 0.109375 0.234375 C -0.0273438 0.0546875 -0.0585938 -0.15625 0.015625 -0.40625 L 0.488281 -0.269531 L 0.0117188 -0.386719 L 2.632812 -10.953125 L 3.113281 -10.835938 L 2.628906 -10.9375 C 2.667969 -11.125 2.753906 -11.273438 2.890625 -11.382812 C 3.023438 -11.496094 3.1875 -11.550781 3.378906 -11.550781 L 5.574219 -11.550781 C 5.769531 -11.550781 5.929688 -11.496094 6.066406 -11.382812 C 6.199219 -11.273438 6.289062 -11.125 6.328125 -10.9375 L 5.84375 -10.835938 L 6.324219 -10.953125 L 8.945312 -0.386719 L 8.464844 -0.269531 L 8.941406 -0.40625 C 9.015625 -0.152344 8.980469 0.0664062 8.832031 0.246094 C 8.695312 0.410156 8.5 0.492188 8.246094 0.492188 Z M 8.246094 -0.492188 C 8.246094 -0.492188 8.25 -0.492188 8.25 -0.492188 C 8.242188 -0.492188 8.230469 -0.488281 8.21875 -0.484375 C 8.160156 -0.46875 8.113281 -0.433594 8.070312 -0.382812 C 8.023438 -0.324219 7.996094 -0.257812 7.988281 -0.191406 C 7.988281 -0.164062 7.988281 -0.144531 7.992188 -0.128906 L 7.988281 -0.140625 L 5.363281 -10.722656 L 5.363281 -10.730469 C 5.371094 -10.695312 5.394531 -10.65625 5.441406 -10.621094 C 5.484375 -10.582031 5.53125 -10.5625 5.574219 -10.5625 L 3.378906 -10.5625 C 3.425781 -10.5625 3.46875 -10.582031 3.515625 -10.621094 C 3.558594 -10.65625 3.585938 -10.695312 3.59375 -10.730469 L 3.59375 -10.722656 L 0.964844 -0.140625 L 0.964844 -0.128906 C 0.964844 -0.140625 0.96875 -0.15625 0.964844 -0.179688 C 0.960938 -0.246094 0.9375 -0.308594 0.894531 -0.367188 C 0.851562 -0.421875 0.796875 -0.460938 0.738281 -0.484375 C 0.71875 -0.488281 0.703125 -0.492188 0.695312 -0.492188 L 2.242188 -0.492188 C 2.1875 -0.492188 2.132812 -0.472656 2.082031 -0.425781 C 2.042969 -0.390625 2.019531 -0.359375 2.011719 -0.324219 L 2.015625 -0.332031 L 2.597656 -2.703125 L 6.339844 -2.703125 L 6.941406 -0.332031 L 6.941406 -0.324219 C 6.9375 -0.359375 6.914062 -0.390625 6.871094 -0.425781 C 6.820312 -0.472656 6.769531 -0.492188 6.714844 -0.492188 Z M 4.984375 -3.933594 L 3.988281 -8.230469 L 4.46875 -8.339844 L 4.949219 -8.230469 L 3.957031 -3.933594 L 3.476562 -4.042969 L 3.476562 -4.539062 L 5.464844 -4.539062 L 5.464844 -4.042969 Z M 6.085938 -3.550781 L 2.855469 -3.550781 L 3.988281 -8.453125 L 4.949219 -8.453125 L 5.945312 -4.15625 Z M 6.085938 -3.550781 "/></g></g><g style="fill:#b21a22;fill-opacity:1;"><g transform="translate(20.278487, 43.195258)"><path style="stroke:none" d="M 9.730469 -11.550781 L 11.214844 -11.550781 C 11.476562 -11.550781 11.683594 -11.46875 11.828125 -11.304688 C 11.984375 -11.136719 12.042969 -10.917969 12.003906 -10.65625 L 10.488281 -0.214844 C 10.449219 0.0117188 10.355469 0.183594 10.199219 0.3125 C 10.050781 0.433594 9.867188 0.492188 9.652344 0.492188 L 7.945312 0.492188 C 7.738281 0.492188 7.558594 0.433594 7.410156 0.3125 C 7.273438 0.199219 7.175781 0.0429688 7.121094 -0.152344 L 7.117188 -0.164062 L 5.664062 -6.652344 L 6.144531 -6.761719 L 6.625 -6.652344 L 5.15625 -0.175781 C 5.113281 0.03125 5.015625 0.191406 4.871094 0.3125 C 4.722656 0.433594 4.539062 0.492188 4.328125 0.492188 L 2.589844 0.492188 C 2.367188 0.492188 2.179688 0.429688 2.03125 0.296875 C 1.882812 0.167969 1.789062 -0.00390625 1.753906 -0.222656 L 0.300781 -10.65625 C 0.261719 -10.917969 0.320312 -11.136719 0.476562 -11.304688 C 0.625 -11.46875 0.828125 -11.550781 1.089844 -11.550781 L 2.574219 -11.550781 C 2.796875 -11.550781 2.980469 -11.484375 3.132812 -11.347656 C 3.273438 -11.21875 3.359375 -11.046875 3.394531 -10.832031 L 3.394531 -10.824219 L 4.171875 -4.210938 L 3.679688 -4.152344 L 3.679688 -4.648438 L 3.757812 -4.648438 L 3.757812 -4.152344 L 3.277344 -4.265625 L 4.828125 -10.914062 L 4.832031 -10.925781 C 4.890625 -11.121094 4.988281 -11.269531 5.132812 -11.378906 C 5.277344 -11.492188 5.453125 -11.550781 5.65625 -11.550781 L 6.617188 -11.550781 C 6.820312 -11.550781 6.996094 -11.492188 7.140625 -11.378906 C 7.285156 -11.269531 7.382812 -11.121094 7.4375 -10.925781 L 7.445312 -10.914062 L 8.996094 -4.265625 L 8.515625 -4.152344 L 8.515625 -4.648438 L 8.59375 -4.648438 L 8.59375 -4.152344 L 8.101562 -4.214844 L 8.910156 -10.824219 L 8.910156 -10.832031 C 8.945312 -11.046875 9.03125 -11.21875 9.171875 -11.347656 C 9.324219 -11.484375 9.507812 -11.550781 9.730469 -11.550781 Z M 9.730469 -10.5625 C 9.761719 -10.5625 9.796875 -10.582031 9.835938 -10.617188 C 9.855469 -10.636719 9.871094 -10.65625 9.882812 -10.675781 C 9.886719 -10.679688 9.886719 -10.683594 9.886719 -10.6875 C 9.886719 -10.6875 9.886719 -10.683594 9.886719 -10.679688 L 9.398438 -10.757812 L 9.886719 -10.695312 L 9.03125 -3.660156 L 8.121094 -3.660156 L 6.484375 -10.675781 L 6.964844 -10.789062 L 6.492188 -10.648438 C 6.492188 -10.652344 6.492188 -10.652344 6.492188 -10.652344 C 6.492188 -10.652344 6.492188 -10.648438 6.496094 -10.644531 C 6.507812 -10.628906 6.519531 -10.613281 6.539062 -10.597656 C 6.570312 -10.574219 6.59375 -10.5625 6.617188 -10.5625 L 5.65625 -10.5625 C 5.675781 -10.5625 5.703125 -10.574219 5.734375 -10.597656 C 5.753906 -10.613281 5.765625 -10.628906 5.777344 -10.644531 C 5.777344 -10.648438 5.78125 -10.652344 5.78125 -10.652344 C 5.78125 -10.652344 5.78125 -10.652344 5.78125 -10.648438 L 5.308594 -10.789062 L 5.789062 -10.675781 L 4.152344 -3.660156 L 3.242188 -3.660156 L 2.417969 -10.699219 L 2.90625 -10.757812 L 2.417969 -10.679688 C 2.417969 -10.683594 2.417969 -10.6875 2.417969 -10.6875 C 2.417969 -10.683594 2.417969 -10.679688 2.421875 -10.675781 C 2.433594 -10.65625 2.449219 -10.636719 2.46875 -10.617188 C 2.507812 -10.582031 2.542969 -10.5625 2.574219 -10.5625 L 1.089844 -10.5625 C 1.082031 -10.5625 1.078125 -10.5625 1.078125 -10.5625 C 1.082031 -10.5625 1.089844 -10.566406 1.097656 -10.566406 C 1.136719 -10.582031 1.175781 -10.605469 1.207031 -10.644531 C 1.242188 -10.679688 1.265625 -10.722656 1.273438 -10.769531 C 1.277344 -10.78125 1.277344 -10.792969 1.277344 -10.800781 C 1.277344 -10.800781 1.277344 -10.796875 1.277344 -10.792969 L 2.730469 -0.378906 C 2.730469 -0.375 2.730469 -0.371094 2.730469 -0.371094 C 2.730469 -0.375 2.726562 -0.382812 2.726562 -0.386719 C 2.714844 -0.410156 2.699219 -0.429688 2.675781 -0.449219 C 2.652344 -0.46875 2.628906 -0.480469 2.605469 -0.488281 C 2.597656 -0.492188 2.59375 -0.492188 2.585938 -0.492188 L 4.328125 -0.492188 C 4.304688 -0.492188 4.277344 -0.480469 4.246094 -0.453125 C 4.226562 -0.4375 4.210938 -0.417969 4.199219 -0.398438 C 4.195312 -0.394531 4.195312 -0.390625 4.191406 -0.386719 C 4.191406 -0.386719 4.191406 -0.390625 4.195312 -0.394531 L 5.664062 -6.871094 L 6.625 -6.867188 L 8.078125 -0.390625 L 7.597656 -0.285156 L 8.074219 -0.417969 C 8.074219 -0.410156 8.074219 -0.410156 8.078125 -0.40625 C 8.078125 -0.40625 8.074219 -0.410156 8.074219 -0.410156 C 8.066406 -0.425781 8.050781 -0.441406 8.035156 -0.453125 C 8.003906 -0.480469 7.972656 -0.492188 7.945312 -0.492188 L 9.652344 -0.492188 C 9.65625 -0.492188 9.65625 -0.492188 9.65625 -0.492188 C 9.652344 -0.492188 9.648438 -0.492188 9.644531 -0.492188 C 9.621094 -0.484375 9.597656 -0.472656 9.574219 -0.453125 C 9.539062 -0.421875 9.515625 -0.390625 9.511719 -0.355469 L 11.027344 -10.796875 C 11.027344 -10.796875 11.027344 -10.800781 11.027344 -10.800781 C 11.027344 -10.792969 11.027344 -10.78125 11.03125 -10.769531 C 11.039062 -10.722656 11.0625 -10.679688 11.097656 -10.644531 C 11.128906 -10.605469 11.167969 -10.582031 11.207031 -10.566406 C 11.214844 -10.566406 11.222656 -10.5625 11.226562 -10.5625 C 11.226562 -10.5625 11.222656 -10.5625 11.214844 -10.5625 Z M 9.730469 -10.5625 "/></g></g><g style="fill:#b21a22;fill-opacity:1;"><g transform="translate(32.389876, 43.195258)"><path style="stroke:none" d="M 7.585938 -10.804688 L 7.585938 -9.226562 C 7.585938 -9.003906 7.519531 -8.824219 7.386719 -8.683594 C 7.25 -8.535156 7.066406 -8.460938 6.839844 -8.460938 L 2.9375 -8.460938 L 2.9375 -8.957031 L 3.429688 -8.957031 L 3.429688 -6.523438 L 2.9375 -6.523438 L 2.9375 -7.015625 L 5.90625 -7.015625 C 6.132812 -7.015625 6.316406 -6.941406 6.457031 -6.792969 C 6.589844 -6.65625 6.652344 -6.476562 6.652344 -6.253906 L 6.652344 -4.691406 C 6.652344 -4.472656 6.589844 -4.292969 6.457031 -4.152344 C 6.316406 -4.003906 6.132812 -3.929688 5.90625 -3.929688 L 2.9375 -3.929688 L 2.9375 -4.421875 L 3.429688 -4.421875 L 3.429688 -2.085938 L 2.9375 -2.085938 L 2.9375 -2.578125 L 6.839844 -2.578125 C 7.058594 -2.578125 7.238281 -2.507812 7.378906 -2.371094 C 7.515625 -2.230469 7.585938 -2.054688 7.585938 -1.832031 L 7.585938 -0.253906 C 7.585938 -0.03125 7.515625 0.148438 7.378906 0.285156 C 7.238281 0.425781 7.058594 0.492188 6.839844 0.492188 L 1.027344 0.492188 C 0.804688 0.492188 0.625 0.421875 0.488281 0.273438 C 0.359375 0.136719 0.296875 -0.0390625 0.296875 -0.253906 L 0.296875 -10.804688 C 0.296875 -11.019531 0.359375 -11.195312 0.488281 -11.332031 C 0.625 -11.476562 0.804688 -11.550781 1.027344 -11.550781 L 6.839844 -11.550781 C 7.058594 -11.550781 7.238281 -11.480469 7.378906 -11.34375 C 7.515625 -11.203125 7.585938 -11.023438 7.585938 -10.804688 Z M 6.597656 -10.804688 C 6.597656 -10.792969 6.601562 -10.777344 6.609375 -10.757812 C 6.621094 -10.714844 6.644531 -10.679688 6.679688 -10.644531 C 6.714844 -10.609375 6.75 -10.585938 6.792969 -10.574219 C 6.8125 -10.566406 6.828125 -10.5625 6.839844 -10.5625 L 1.027344 -10.5625 C 1.089844 -10.5625 1.152344 -10.59375 1.210938 -10.65625 C 1.242188 -10.691406 1.261719 -10.726562 1.277344 -10.765625 C 1.28125 -10.785156 1.285156 -10.796875 1.285156 -10.804688 L 1.285156 -0.253906 C 1.285156 -0.261719 1.28125 -0.273438 1.277344 -0.289062 C 1.261719 -0.328125 1.242188 -0.367188 1.210938 -0.402344 C 1.152344 -0.460938 1.089844 -0.492188 1.027344 -0.492188 L 6.839844 -0.492188 C 6.828125 -0.492188 6.8125 -0.492188 6.792969 -0.484375 C 6.75 -0.46875 6.714844 -0.445312 6.679688 -0.414062 C 6.644531 -0.378906 6.621094 -0.339844 6.609375 -0.296875 C 6.601562 -0.277344 6.597656 -0.265625 6.597656 -0.253906 L 6.597656 -1.832031 C 6.597656 -1.820312 6.601562 -1.804688 6.609375 -1.785156 C 6.621094 -1.746094 6.644531 -1.707031 6.679688 -1.671875 C 6.714844 -1.640625 6.75 -1.613281 6.792969 -1.601562 C 6.8125 -1.59375 6.828125 -1.589844 6.839844 -1.589844 L 2.445312 -1.589844 L 2.445312 -4.917969 L 5.90625 -4.917969 C 5.894531 -4.917969 5.875 -4.914062 5.851562 -4.90625 C 5.808594 -4.890625 5.769531 -4.863281 5.738281 -4.828125 C 5.707031 -4.796875 5.6875 -4.761719 5.671875 -4.722656 C 5.667969 -4.707031 5.667969 -4.695312 5.667969 -4.691406 L 5.667969 -6.253906 C 5.667969 -6.25 5.667969 -6.238281 5.671875 -6.226562 C 5.6875 -6.1875 5.707031 -6.152344 5.738281 -6.117188 C 5.769531 -6.082031 5.808594 -6.058594 5.851562 -6.042969 C 5.875 -6.035156 5.894531 -6.03125 5.90625 -6.03125 L 2.445312 -6.03125 L 2.445312 -9.449219 L 6.839844 -9.449219 C 6.824219 -9.449219 6.808594 -9.445312 6.785156 -9.4375 C 6.742188 -9.421875 6.703125 -9.398438 6.667969 -9.363281 C 6.640625 -9.328125 6.617188 -9.292969 6.605469 -9.253906 C 6.601562 -9.242188 6.597656 -9.230469 6.597656 -9.226562 Z M 6.597656 -10.804688 "/></g></g><g style="fill:#b21a22;fill-opacity:1;"><g transform="translate(40.269383, 43.195258)"><path style="stroke:none" d="M 3.0625 -11.550781 L 4.832031 -11.550781 C 5.71875 -11.550781 6.398438 -11.308594 6.878906 -10.828125 C 7.359375 -10.347656 7.601562 -9.667969 7.601562 -8.78125 L 7.601562 -7.738281 C 7.601562 -7.519531 7.53125 -7.339844 7.394531 -7.203125 C 7.253906 -7.0625 7.074219 -6.992188 6.855469 -6.992188 L 5.261719 -6.992188 C 5.039062 -6.992188 4.859375 -7.0625 4.722656 -7.203125 C 4.582031 -7.339844 4.511719 -7.519531 4.511719 -7.738281 L 4.511719 -8.402344 C 4.511719 -8.457031 4.507812 -8.496094 4.5 -8.523438 C 4.496094 -8.527344 4.496094 -8.53125 4.496094 -8.535156 C 4.496094 -8.53125 4.496094 -8.53125 4.5 -8.527344 C 4.503906 -8.527344 4.503906 -8.523438 4.507812 -8.523438 C 4.503906 -8.523438 4.5 -8.527344 4.496094 -8.527344 C 4.46875 -8.535156 4.425781 -8.542969 4.375 -8.542969 L 3.507812 -8.542969 C 3.453125 -8.542969 3.414062 -8.535156 3.386719 -8.527344 C 3.382812 -8.527344 3.378906 -8.523438 3.375 -8.523438 C 3.378906 -8.523438 3.378906 -8.527344 3.382812 -8.527344 C 3.382812 -8.53125 3.386719 -8.53125 3.386719 -8.535156 C 3.386719 -8.53125 3.382812 -8.527344 3.382812 -8.523438 C 3.375 -8.496094 3.367188 -8.457031 3.367188 -8.402344 L 3.367188 -7.0625 L 2.875 -7.0625 L 3.027344 -7.53125 L 6.847656 -6.296875 C 7.09375 -6.214844 7.28125 -6.078125 7.410156 -5.894531 C 7.539062 -5.710938 7.601562 -5.496094 7.601562 -5.242188 L 7.601562 -2.273438 C 7.601562 -1.402344 7.363281 -0.722656 6.882812 -0.238281 C 6.402344 0.25 5.71875 0.492188 4.832031 0.492188 L 3.0625 0.492188 C 2.191406 0.492188 1.511719 0.25 1.023438 -0.234375 C 0.539062 -0.722656 0.296875 -1.402344 0.296875 -2.273438 L 0.296875 -3.300781 C 0.296875 -3.523438 0.367188 -3.703125 0.503906 -3.839844 C 0.640625 -3.976562 0.820312 -4.046875 1.042969 -4.046875 L 2.636719 -4.046875 C 2.859375 -4.046875 3.039062 -3.976562 3.175781 -3.839844 C 3.316406 -3.703125 3.382812 -3.523438 3.382812 -3.300781 L 3.382812 -2.636719 C 3.382812 -2.585938 3.390625 -2.546875 3.398438 -2.515625 C 3.398438 -2.511719 3.402344 -2.507812 3.402344 -2.507812 C 3.402344 -2.507812 3.398438 -2.511719 3.398438 -2.511719 C 3.394531 -2.515625 3.394531 -2.515625 3.390625 -2.519531 C 3.394531 -2.515625 3.398438 -2.515625 3.402344 -2.515625 C 3.429688 -2.503906 3.46875 -2.5 3.523438 -2.5 L 4.375 -2.5 C 4.425781 -2.5 4.46875 -2.503906 4.496094 -2.515625 C 4.5 -2.515625 4.503906 -2.515625 4.507812 -2.519531 C 4.503906 -2.515625 4.503906 -2.515625 4.5 -2.511719 C 4.496094 -2.511719 4.496094 -2.507812 4.496094 -2.507812 C 4.496094 -2.507812 4.496094 -2.511719 4.5 -2.515625 C 4.507812 -2.546875 4.511719 -2.585938 4.511719 -2.636719 L 4.511719 -4.234375 L 5.007812 -4.234375 L 4.855469 -3.765625 L 1.0625 -4.996094 C 0.820312 -5.078125 0.628906 -5.210938 0.496094 -5.390625 C 0.363281 -5.574219 0.296875 -5.796875 0.296875 -6.050781 L 0.296875 -8.78125 C 0.296875 -9.667969 0.539062 -10.351562 1.027344 -10.832031 C 1.511719 -11.3125 2.191406 -11.550781 3.0625 -11.550781 Z M 3.0625 -10.5625 C 2.460938 -10.5625 2.015625 -10.417969 1.722656 -10.128906 C 1.429688 -9.839844 1.285156 -9.390625 1.285156 -8.78125 L 1.285156 -6.050781 C 1.285156 -6.007812 1.289062 -5.984375 1.296875 -5.972656 C 1.304688 -5.960938 1.328125 -5.949219 1.367188 -5.933594 L 5.5 -4.59375 L 5.5 -2.636719 C 5.5 -2.289062 5.398438 -2.015625 5.199219 -1.816406 C 4.996094 -1.613281 4.722656 -1.511719 4.375 -1.511719 L 3.523438 -1.511719 C 3.175781 -1.511719 2.902344 -1.613281 2.699219 -1.816406 C 2.496094 -2.015625 2.398438 -2.289062 2.398438 -2.636719 L 2.398438 -3.300781 C 2.398438 -3.289062 2.398438 -3.273438 2.40625 -3.253906 C 2.421875 -3.214844 2.445312 -3.175781 2.476562 -3.140625 C 2.511719 -3.109375 2.550781 -3.082031 2.59375 -3.070312 C 2.613281 -3.0625 2.625 -3.058594 2.636719 -3.058594 L 1.042969 -3.058594 C 1.054688 -3.058594 1.070312 -3.0625 1.089844 -3.070312 C 1.128906 -3.082031 1.167969 -3.109375 1.203125 -3.140625 C 1.234375 -3.175781 1.261719 -3.214844 1.273438 -3.253906 C 1.28125 -3.273438 1.285156 -3.289062 1.285156 -3.300781 L 1.285156 -2.273438 C 1.285156 -1.671875 1.429688 -1.226562 1.722656 -0.933594 C 2.015625 -0.640625 2.464844 -0.492188 3.0625 -0.492188 L 4.832031 -0.492188 C 5.445312 -0.492188 5.890625 -0.640625 6.179688 -0.929688 C 6.46875 -1.226562 6.613281 -1.671875 6.613281 -2.273438 L 6.613281 -5.242188 C 6.613281 -5.289062 6.609375 -5.316406 6.601562 -5.328125 C 6.59375 -5.339844 6.574219 -5.347656 6.546875 -5.359375 L 2.382812 -6.699219 L 2.382812 -8.402344 C 2.382812 -8.75 2.480469 -9.023438 2.683594 -9.226562 C 2.886719 -9.429688 3.160156 -9.527344 3.507812 -9.527344 L 4.375 -9.527344 C 4.722656 -9.527344 4.996094 -9.429688 5.199219 -9.226562 C 5.398438 -9.023438 5.5 -8.75 5.5 -8.402344 L 5.5 -7.738281 C 5.5 -7.75 5.496094 -7.765625 5.492188 -7.785156 C 5.476562 -7.828125 5.453125 -7.867188 5.417969 -7.898438 C 5.386719 -7.933594 5.347656 -7.957031 5.304688 -7.972656 C 5.285156 -7.976562 5.269531 -7.980469 5.261719 -7.980469 L 6.855469 -7.980469 C 6.84375 -7.980469 6.828125 -7.976562 6.808594 -7.972656 C 6.769531 -7.957031 6.730469 -7.933594 6.695312 -7.898438 C 6.660156 -7.867188 6.636719 -7.828125 6.625 -7.785156 C 6.617188 -7.765625 6.613281 -7.75 6.613281 -7.738281 L 6.613281 -8.78125 C 6.613281 -9.394531 6.46875 -9.84375 6.183594 -10.132812 C 5.894531 -10.417969 5.445312 -10.5625 4.832031 -10.5625 Z M 3.0625 -10.5625 "/></g></g><g style="fill:#b21a22;fill-opacity:1;"><g transform="translate(48.164683, 43.195258)"><path style="stroke:none" d="M 0.296875 -2.273438 L 0.296875 -8.78125 C 0.296875 -9.667969 0.539062 -10.351562 1.027344 -10.832031 C 1.511719 -11.3125 2.191406 -11.550781 3.0625 -11.550781 L 4.832031 -11.550781 C 5.71875 -11.550781 6.398438 -11.308594 6.878906 -10.828125 C 7.359375 -10.347656 7.601562 -9.667969 7.601562 -8.78125 L 7.601562 -2.273438 C 7.601562 -1.402344 7.363281 -0.722656 6.882812 -0.238281 C 6.402344 0.25 5.71875 0.492188 4.832031 0.492188 L 3.0625 0.492188 C 2.191406 0.492188 1.511719 0.25 1.023438 -0.234375 C 0.539062 -0.722656 0.296875 -1.402344 0.296875 -2.273438 Z M 1.285156 -2.273438 C 1.285156 -1.671875 1.429688 -1.226562 1.722656 -0.933594 C 2.015625 -0.640625 2.464844 -0.492188 3.0625 -0.492188 L 4.832031 -0.492188 C 5.445312 -0.492188 5.890625 -0.640625 6.179688 -0.929688 C 6.46875 -1.226562 6.613281 -1.671875 6.613281 -2.273438 L 6.613281 -8.78125 C 6.613281 -9.394531 6.46875 -9.84375 6.183594 -10.132812 C 5.894531 -10.417969 5.445312 -10.5625 4.832031 -10.5625 L 3.0625 -10.5625 C 2.460938 -10.5625 2.015625 -10.417969 1.722656 -10.128906 C 1.429688 -9.839844 1.285156 -9.390625 1.285156 -8.78125 Z M 3.476562 -2.53125 L 4.484375 -2.53125 C 4.539062 -2.53125 4.578125 -2.535156 4.605469 -2.546875 C 4.613281 -2.546875 4.613281 -2.546875 4.617188 -2.550781 C 4.613281 -2.546875 4.613281 -2.546875 4.609375 -2.542969 C 4.609375 -2.542969 4.605469 -2.539062 4.605469 -2.539062 C 4.605469 -2.539062 4.609375 -2.542969 4.609375 -2.550781 C 4.621094 -2.578125 4.625 -2.617188 4.625 -2.667969 L 4.625 -8.386719 C 4.625 -8.4375 4.621094 -8.480469 4.609375 -8.507812 C 4.609375 -8.511719 4.605469 -8.515625 4.605469 -8.519531 C 4.605469 -8.515625 4.609375 -8.515625 4.609375 -8.511719 C 4.613281 -8.511719 4.613281 -8.507812 4.617188 -8.507812 C 4.613281 -8.507812 4.613281 -8.507812 4.605469 -8.511719 C 4.578125 -8.519531 4.539062 -8.527344 4.484375 -8.527344 L 3.476562 -8.527344 C 3.421875 -8.527344 3.382812 -8.519531 3.355469 -8.511719 C 3.347656 -8.507812 3.347656 -8.507812 3.34375 -8.507812 C 3.347656 -8.507812 3.347656 -8.511719 3.351562 -8.511719 C 3.351562 -8.515625 3.355469 -8.515625 3.355469 -8.519531 C 3.355469 -8.515625 3.351562 -8.511719 3.351562 -8.507812 C 3.339844 -8.480469 3.335938 -8.4375 3.335938 -8.386719 L 3.335938 -2.667969 C 3.335938 -2.617188 3.339844 -2.578125 3.351562 -2.550781 C 3.351562 -2.542969 3.355469 -2.539062 3.355469 -2.539062 C 3.355469 -2.539062 3.351562 -2.542969 3.351562 -2.542969 C 3.347656 -2.546875 3.347656 -2.546875 3.34375 -2.550781 C 3.347656 -2.546875 3.347656 -2.546875 3.355469 -2.546875 C 3.382812 -2.535156 3.421875 -2.53125 3.476562 -2.53125 Z M 3.476562 -1.542969 C 3.128906 -1.542969 2.855469 -1.644531 2.652344 -1.847656 C 2.449219 -2.046875 2.347656 -2.324219 2.347656 -2.667969 L 2.347656 -8.386719 C 2.347656 -8.734375 2.449219 -9.007812 2.652344 -9.210938 C 2.855469 -9.410156 3.128906 -9.511719 3.476562 -9.511719 L 4.484375 -9.511719 C 4.832031 -9.511719 5.105469 -9.410156 5.308594 -9.210938 C 5.511719 -9.007812 5.613281 -8.734375 5.613281 -8.386719 L 5.613281 -2.667969 C 5.613281 -2.324219 5.511719 -2.046875 5.308594 -1.847656 C 5.105469 -1.644531 4.832031 -1.542969 4.484375 -1.542969 Z M 3.476562 -1.542969 "/></g></g><g style="fill:#b21a22;fill-opacity:1;"><g transform="translate(56.059984, 43.195258)"><path style="stroke:none" d="M 7.390625 -11.550781 L 9.476562 -11.550781 C 9.71875 -11.550781 9.914062 -11.476562 10.0625 -11.328125 C 10.210938 -11.179688 10.285156 -10.984375 10.285156 -10.742188 L 10.285156 -0.316406 C 10.285156 -0.0742188 10.210938 0.121094 10.0625 0.269531 C 9.914062 0.417969 9.71875 0.492188 9.476562 0.492188 L 8.007812 0.492188 C 7.765625 0.492188 7.570312 0.417969 7.421875 0.269531 C 7.273438 0.121094 7.199219 -0.0742188 7.199219 -0.316406 L 7.199219 -6.523438 L 7.691406 -6.523438 L 7.691406 -6.03125 L 7.582031 -6.03125 L 7.582031 -6.523438 L 8.0625 -6.410156 L 6.574219 -0.140625 L 6.570312 -0.128906 C 6.515625 0.0625 6.414062 0.214844 6.273438 0.324219 C 6.125 0.4375 5.953125 0.492188 5.75 0.492188 L 4.816406 0.492188 C 4.617188 0.492188 4.441406 0.4375 4.292969 0.324219 C 4.152344 0.214844 4.054688 0.0625 3.996094 -0.128906 L 3.992188 -0.140625 L 2.503906 -6.410156 L 2.984375 -6.523438 L 2.984375 -6.03125 L 2.875 -6.03125 L 2.875 -6.523438 L 3.367188 -6.523438 L 3.367188 -0.316406 C 3.367188 -0.0742188 3.292969 0.121094 3.144531 0.269531 C 2.996094 0.417969 2.800781 0.492188 2.558594 0.492188 L 1.105469 0.492188 C 0.863281 0.492188 0.667969 0.417969 0.519531 0.269531 C 0.371094 0.121094 0.296875 -0.0742188 0.296875 -0.316406 L 0.296875 -10.742188 C 0.296875 -10.984375 0.371094 -11.179688 0.519531 -11.328125 C 0.667969 -11.476562 0.863281 -11.550781 1.105469 -11.550781 L 3.191406 -11.550781 C 3.390625 -11.550781 3.566406 -11.492188 3.714844 -11.378906 C 3.855469 -11.269531 3.957031 -11.121094 4.011719 -10.925781 L 4.015625 -10.917969 L 5.769531 -3.863281 L 5.292969 -3.742188 L 4.8125 -3.863281 L 6.566406 -10.917969 L 6.570312 -10.925781 C 6.628906 -11.121094 6.726562 -11.269531 6.871094 -11.378906 C 7.015625 -11.492188 7.191406 -11.550781 7.390625 -11.550781 Z M 7.390625 -10.5625 C 7.414062 -10.5625 7.441406 -10.574219 7.472656 -10.597656 C 7.492188 -10.613281 7.503906 -10.628906 7.515625 -10.644531 C 7.515625 -10.648438 7.519531 -10.652344 7.519531 -10.652344 C 7.519531 -10.652344 7.519531 -10.652344 7.519531 -10.648438 L 7.042969 -10.789062 L 7.523438 -10.667969 L 5.769531 -3.625 L 4.8125 -3.625 L 3.058594 -10.667969 L 3.539062 -10.789062 L 3.066406 -10.648438 C 3.0625 -10.652344 3.0625 -10.652344 3.0625 -10.652344 C 3.0625 -10.652344 3.066406 -10.648438 3.070312 -10.644531 C 3.078125 -10.628906 3.09375 -10.613281 3.109375 -10.597656 C 3.140625 -10.574219 3.167969 -10.5625 3.191406 -10.5625 L 1.105469 -10.5625 C 1.101562 -10.5625 1.101562 -10.5625 1.101562 -10.5625 C 1.109375 -10.5625 1.113281 -10.566406 1.125 -10.570312 C 1.15625 -10.582031 1.1875 -10.601562 1.21875 -10.628906 C 1.246094 -10.65625 1.265625 -10.6875 1.277344 -10.722656 C 1.28125 -10.730469 1.28125 -10.738281 1.285156 -10.746094 C 1.285156 -10.746094 1.285156 -10.742188 1.285156 -10.742188 L 1.285156 -0.316406 C 1.285156 -0.3125 1.285156 -0.3125 1.285156 -0.308594 C 1.285156 -0.308594 1.285156 -0.3125 1.285156 -0.3125 C 1.28125 -0.316406 1.28125 -0.324219 1.277344 -0.332031 C 1.265625 -0.367188 1.246094 -0.398438 1.21875 -0.429688 C 1.1875 -0.457031 1.15625 -0.476562 1.125 -0.488281 C 1.113281 -0.492188 1.109375 -0.492188 1.101562 -0.492188 C 1.101562 -0.492188 1.101562 -0.492188 1.105469 -0.492188 L 2.558594 -0.492188 C 2.5625 -0.492188 2.5625 -0.492188 2.5625 -0.492188 C 2.558594 -0.492188 2.550781 -0.492188 2.539062 -0.488281 C 2.507812 -0.476562 2.476562 -0.457031 2.445312 -0.429688 C 2.417969 -0.398438 2.398438 -0.367188 2.386719 -0.332031 C 2.382812 -0.324219 2.382812 -0.316406 2.382812 -0.3125 C 2.382812 -0.3125 2.382812 -0.308594 2.382812 -0.308594 C 2.382812 -0.3125 2.382812 -0.3125 2.382812 -0.316406 L 2.382812 -7.015625 L 3.375 -7.015625 L 4.949219 -0.382812 L 4.46875 -0.269531 L 4.945312 -0.40625 C 4.945312 -0.40625 4.945312 -0.402344 4.945312 -0.402344 C 4.945312 -0.40625 4.941406 -0.410156 4.941406 -0.414062 C 4.929688 -0.429688 4.914062 -0.445312 4.898438 -0.457031 C 4.867188 -0.480469 4.839844 -0.492188 4.816406 -0.492188 L 5.75 -0.492188 C 5.726562 -0.492188 5.699219 -0.480469 5.667969 -0.457031 C 5.652344 -0.445312 5.636719 -0.429688 5.628906 -0.414062 C 5.625 -0.410156 5.625 -0.40625 5.621094 -0.402344 C 5.621094 -0.402344 5.621094 -0.40625 5.625 -0.40625 L 6.097656 -0.269531 L 5.617188 -0.382812 L 7.191406 -7.015625 L 8.1875 -7.015625 L 8.1875 -0.316406 C 8.1875 -0.3125 8.1875 -0.3125 8.1875 -0.308594 C 8.1875 -0.308594 8.1875 -0.3125 8.1875 -0.3125 C 8.183594 -0.316406 8.183594 -0.324219 8.179688 -0.332031 C 8.167969 -0.367188 8.148438 -0.398438 8.121094 -0.429688 C 8.09375 -0.457031 8.058594 -0.476562 8.027344 -0.488281 C 8.019531 -0.492188 8.011719 -0.492188 8.003906 -0.492188 C 8.003906 -0.492188 8.007812 -0.492188 8.007812 -0.492188 L 9.476562 -0.492188 C 9.480469 -0.492188 9.480469 -0.492188 9.484375 -0.492188 C 9.484375 -0.492188 9.480469 -0.492188 9.480469 -0.492188 C 9.476562 -0.492188 9.46875 -0.492188 9.460938 -0.488281 C 9.425781 -0.476562 9.394531 -0.457031 9.363281 -0.429688 C 9.335938 -0.398438 9.316406 -0.367188 9.304688 -0.332031 C 9.300781 -0.324219 9.300781 -0.316406 9.300781 -0.3125 C 9.300781 -0.3125 9.300781 -0.308594 9.300781 -0.308594 C 9.300781 -0.3125 9.300781 -0.3125 9.300781 -0.316406 L 9.300781 -10.742188 C 9.300781 -10.742188 9.300781 -10.746094 9.300781 -10.746094 C 9.300781 -10.738281 9.300781 -10.730469 9.304688 -10.722656 C 9.316406 -10.6875 9.335938 -10.65625 9.363281 -10.628906 C 9.394531 -10.601562 9.425781 -10.582031 9.460938 -10.570312 C 9.46875 -10.566406 9.476562 -10.5625 9.480469 -10.5625 C 9.480469 -10.5625 9.484375 -10.5625 9.484375 -10.5625 C 9.480469 -10.5625 9.480469 -10.5625 9.476562 -10.5625 Z M 7.390625 -10.5625 "/></g></g><g style="fill:#b21a22;fill-opacity:1;"><g transform="translate(66.639684, 43.195258)"><path style="stroke:none" d="M 7.585938 -10.804688 L 7.585938 -9.226562 C 7.585938 -9.003906 7.519531 -8.824219 7.386719 -8.683594 C 7.25 -8.535156 7.066406 -8.460938 6.839844 -8.460938 L 2.9375 -8.460938 L 2.9375 -8.957031 L 3.429688 -8.957031 L 3.429688 -6.523438 L 2.9375 -6.523438 L 2.9375 -7.015625 L 5.90625 -7.015625 C 6.132812 -7.015625 6.316406 -6.941406 6.457031 -6.792969 C 6.589844 -6.65625 6.652344 -6.476562 6.652344 -6.253906 L 6.652344 -4.691406 C 6.652344 -4.472656 6.589844 -4.292969 6.457031 -4.152344 C 6.316406 -4.003906 6.132812 -3.929688 5.90625 -3.929688 L 2.9375 -3.929688 L 2.9375 -4.421875 L 3.429688 -4.421875 L 3.429688 -2.085938 L 2.9375 -2.085938 L 2.9375 -2.578125 L 6.839844 -2.578125 C 7.058594 -2.578125 7.238281 -2.507812 7.378906 -2.371094 C 7.515625 -2.230469 7.585938 -2.054688 7.585938 -1.832031 L 7.585938 -0.253906 C 7.585938 -0.03125 7.515625 0.148438 7.378906 0.285156 C 7.238281 0.425781 7.058594 0.492188 6.839844 0.492188 L 1.027344 0.492188 C 0.804688 0.492188 0.625 0.421875 0.488281 0.273438 C 0.359375 0.136719 0.296875 -0.0390625 0.296875 -0.253906 L 0.296875 -10.804688 C 0.296875 -11.019531 0.359375 -11.195312 0.488281 -11.332031 C 0.625 -11.476562 0.804688 -11.550781 1.027344 -11.550781 L 6.839844 -11.550781 C 7.058594 -11.550781 7.238281 -11.480469 7.378906 -11.34375 C 7.515625 -11.203125 7.585938 -11.023438 7.585938 -10.804688 Z M 6.597656 -10.804688 C 6.597656 -10.792969 6.601562 -10.777344 6.609375 -10.757812 C 6.621094 -10.714844 6.644531 -10.679688 6.679688 -10.644531 C 6.714844 -10.609375 6.75 -10.585938 6.792969 -10.574219 C 6.8125 -10.566406 6.828125 -10.5625 6.839844 -10.5625 L 1.027344 -10.5625 C 1.089844 -10.5625 1.152344 -10.59375 1.210938 -10.65625 C 1.242188 -10.691406 1.261719 -10.726562 1.277344 -10.765625 C 1.28125 -10.785156 1.285156 -10.796875 1.285156 -10.804688 L 1.285156 -0.253906 C 1.285156 -0.261719 1.28125 -0.273438 1.277344 -0.289062 C 1.261719 -0.328125 1.242188 -0.367188 1.210938 -0.402344 C 1.152344 -0.460938 1.089844 -0.492188 1.027344 -0.492188 L 6.839844 -0.492188 C 6.828125 -0.492188 6.8125 -0.492188 6.792969 -0.484375 C 6.75 -0.46875 6.714844 -0.445312 6.679688 -0.414062 C 6.644531 -0.378906 6.621094 -0.339844 6.609375 -0.296875 C 6.601562 -0.277344 6.597656 -0.265625 6.597656 -0.253906 L 6.597656 -1.832031 C 6.597656 -1.820312 6.601562 -1.804688 6.609375 -1.785156 C 6.621094 -1.746094 6.644531 -1.707031 6.679688 -1.671875 C 6.714844 -1.640625 6.75 -1.613281 6.792969 -1.601562 C 6.8125 -1.59375 6.828125 -1.589844 6.839844 -1.589844 L 2.445312 -1.589844 L 2.445312 -4.917969 L 5.90625 -4.917969 C 5.894531 -4.917969 5.875 -4.914062 5.851562 -4.90625 C 5.808594 -4.890625 5.769531 -4.863281 5.738281 -4.828125 C 5.707031 -4.796875 5.6875 -4.761719 5.671875 -4.722656 C 5.667969 -4.707031 5.667969 -4.695312 5.667969 -4.691406 L 5.667969 -6.253906 C 5.667969 -6.25 5.667969 -6.238281 5.671875 -6.226562 C 5.6875 -6.1875 5.707031 -6.152344 5.738281 -6.117188 C 5.769531 -6.082031 5.808594 -6.058594 5.851562 -6.042969 C 5.875 -6.035156 5.894531 -6.03125 5.90625 -6.03125 L 2.445312 -6.03125 L 2.445312 -9.449219 L 6.839844 -9.449219 C 6.824219 -9.449219 6.808594 -9.445312 6.785156 -9.4375 C 6.742188 -9.421875 6.703125 -9.398438 6.667969 -9.363281 C 6.640625 -9.328125 6.617188 -9.292969 6.605469 -9.253906 C 6.601562 -9.242188 6.597656 -9.230469 6.597656 -9.226562 Z M 6.597656 -10.804688 "/></g></g><g style="fill:#b21a22;fill-opacity:1;"><g transform="translate(74.519192, 43.195258)"><path style="stroke:none" d="M -0.492188 2.117188 L -0.492188 0.664062 C -0.492188 0.421875 -0.417969 0.226562 -0.269531 0.078125 C -0.121094 -0.0703125 0.0742188 -0.144531 0.316406 -0.144531 L 9.839844 -0.144531 C 10.082031 -0.144531 10.277344 -0.0703125 10.425781 0.078125 C 10.574219 0.226562 10.648438 0.421875 10.648438 0.664062 L 10.648438 2.117188 C 10.648438 2.359375 10.574219 2.554688 10.425781 2.703125 C 10.277344 2.851562 10.082031 2.925781 9.839844 2.925781 L 0.316406 2.925781 C 0.0742188 2.925781 -0.121094 2.851562 -0.269531 2.703125 C -0.417969 2.554688 -0.492188 2.359375 -0.492188 2.117188 Z M 0.492188 2.117188 C 0.492188 2.117188 0.492188 2.121094 0.492188 2.121094 C 0.492188 2.113281 0.492188 2.105469 0.488281 2.097656 C 0.476562 2.066406 0.457031 2.03125 0.429688 2.003906 C 0.398438 1.976562 0.367188 1.957031 0.332031 1.945312 C 0.324219 1.941406 0.316406 1.941406 0.3125 1.9375 C 0.3125 1.9375 0.308594 1.9375 0.308594 1.9375 C 0.3125 1.9375 0.3125 1.9375 0.316406 1.9375 L 9.839844 1.9375 C 9.84375 1.9375 9.84375 1.9375 9.847656 1.9375 C 9.847656 1.9375 9.84375 1.9375 9.84375 1.9375 C 9.839844 1.941406 9.832031 1.941406 9.824219 1.945312 C 9.789062 1.957031 9.757812 1.976562 9.730469 2.003906 C 9.699219 2.03125 9.679688 2.066406 9.667969 2.097656 C 9.664062 2.105469 9.664062 2.113281 9.664062 2.121094 C 9.664062 2.121094 9.664062 2.117188 9.664062 2.117188 L 9.664062 0.664062 C 9.664062 0.660156 9.664062 0.660156 9.664062 0.65625 C 9.664062 0.65625 9.664062 0.660156 9.664062 0.660156 C 9.664062 0.664062 9.664062 0.671875 9.667969 0.679688 C 9.679688 0.714844 9.699219 0.746094 9.730469 0.777344 C 9.757812 0.804688 9.789062 0.824219 9.824219 0.835938 C 9.832031 0.839844 9.839844 0.839844 9.84375 0.839844 C 9.84375 0.839844 9.847656 0.839844 9.847656 0.839844 C 9.84375 0.839844 9.84375 0.839844 9.839844 0.839844 L 0.316406 0.839844 C 0.3125 0.839844 0.3125 0.839844 0.308594 0.839844 C 0.308594 0.839844 0.3125 0.839844 0.3125 0.839844 C 0.316406 0.839844 0.324219 0.839844 0.332031 0.835938 C 0.367188 0.824219 0.398438 0.804688 0.429688 0.777344 C 0.457031 0.746094 0.476562 0.714844 0.488281 0.679688 C 0.492188 0.671875 0.492188 0.664062 0.492188 0.660156 C 0.492188 0.660156 0.492188 0.65625 0.492188 0.65625 C 0.492188 0.660156 0.492188 0.660156 0.492188 0.664062 Z M 0.492188 2.117188 "/></g></g><g style="fill:#b21a22;fill-opacity:1;"><g transform="translate(23.781261, 65.216998)"><path style="stroke:none" d="M 3.0625 -11.550781 L 4.832031 -11.550781 C 5.71875 -11.550781 6.398438 -11.308594 6.878906 -10.828125 C 7.359375 -10.347656 7.601562 -9.667969 7.601562 -8.78125 L 7.601562 -7.738281 C 7.601562 -7.519531 7.53125 -7.339844 7.394531 -7.203125 C 7.253906 -7.0625 7.074219 -6.992188 6.855469 -6.992188 L 5.261719 -6.992188 C 5.039062 -6.992188 4.859375 -7.0625 4.722656 -7.203125 C 4.582031 -7.339844 4.511719 -7.519531 4.511719 -7.738281 L 4.511719 -8.402344 C 4.511719 -8.457031 4.507812 -8.496094 4.5 -8.523438 C 4.496094 -8.527344 4.496094 -8.53125 4.496094 -8.535156 C 4.496094 -8.53125 4.496094 -8.53125 4.5 -8.527344 C 4.503906 -8.527344 4.503906 -8.523438 4.507812 -8.523438 C 4.503906 -8.523438 4.5 -8.527344 4.496094 -8.527344 C 4.46875 -8.535156 4.425781 -8.542969 4.375 -8.542969 L 3.507812 -8.542969 C 3.453125 -8.542969 3.414062 -8.535156 3.386719 -8.527344 C 3.382812 -8.527344 3.378906 -8.523438 3.375 -8.523438 C 3.378906 -8.523438 3.378906 -8.527344 3.382812 -8.527344 C 3.382812 -8.53125 3.386719 -8.53125 3.386719 -8.535156 C 3.386719 -8.53125 3.382812 -8.527344 3.382812 -8.523438 C 3.375 -8.496094 3.367188 -8.457031 3.367188 -8.402344 L 3.367188 -7.0625 L 2.875 -7.0625 L 3.027344 -7.53125 L 6.847656 -6.296875 C 7.09375 -6.214844 7.28125 -6.078125 7.410156 -5.894531 C 7.539062 -5.710938 7.601562 -5.496094 7.601562 -5.242188 L 7.601562 -2.273438 C 7.601562 -1.402344 7.363281 -0.722656 6.882812 -0.238281 C 6.402344 0.25 5.71875 0.492188 4.832031 0.492188 L 3.0625 0.492188 C 2.191406 0.492188 1.511719 0.25 1.023438 -0.234375 C 0.539062 -0.722656 0.296875 -1.402344 0.296875 -2.273438 L 0.296875 -3.300781 C 0.296875 -3.523438 0.367188 -3.703125 0.503906 -3.839844 C 0.640625 -3.976562 0.820312 -4.046875 1.042969 -4.046875 L 2.636719 -4.046875 C 2.859375 -4.046875 3.039062 -3.976562 3.175781 -3.839844 C 3.316406 -3.703125 3.382812 -3.523438 3.382812 -3.300781 L 3.382812 -2.636719 C 3.382812 -2.585938 3.390625 -2.546875 3.398438 -2.515625 C 3.398438 -2.511719 3.402344 -2.507812 3.402344 -2.507812 C 3.402344 -2.507812 3.398438 -2.511719 3.398438 -2.511719 C 3.394531 -2.515625 3.394531 -2.515625 3.390625 -2.519531 C 3.394531 -2.515625 3.398438 -2.515625 3.402344 -2.515625 C 3.429688 -2.503906 3.46875 -2.5 3.523438 -2.5 L 4.375 -2.5 C 4.425781 -2.5 4.46875 -2.503906 4.496094 -2.515625 C 4.5 -2.515625 4.503906 -2.515625 4.507812 -2.519531 C 4.503906 -2.515625 4.503906 -2.515625 4.5 -2.511719 C 4.496094 -2.511719 4.496094 -2.507812 4.496094 -2.507812 C 4.496094 -2.507812 4.496094 -2.511719 4.5 -2.515625 C 4.507812 -2.546875 4.511719 -2.585938 4.511719 -2.636719 L 4.511719 -4.234375 L 5.007812 -4.234375 L 4.855469 -3.765625 L 1.0625 -4.996094 C 0.820312 -5.078125 0.628906 -5.210938 0.496094 -5.390625 C 0.363281 -5.574219 0.296875 -5.796875 0.296875 -6.050781 L 0.296875 -8.78125 C 0.296875 -9.667969 0.539062 -10.351562 1.027344 -10.832031 C 1.511719 -11.3125 2.191406 -11.550781 3.0625 -11.550781 Z M 3.0625 -10.5625 C 2.460938 -10.5625 2.015625 -10.417969 1.722656 -10.128906 C 1.429688 -9.839844 1.285156 -9.390625 1.285156 -8.78125 L 1.285156 -6.050781 C 1.285156 -6.007812 1.289062 -5.984375 1.296875 -5.972656 C 1.304688 -5.960938 1.328125 -5.949219 1.367188 -5.933594 L 5.5 -4.59375 L 5.5 -2.636719 C 5.5 -2.289062 5.398438 -2.015625 5.199219 -1.816406 C 4.996094 -1.613281 4.722656 -1.511719 4.375 -1.511719 L 3.523438 -1.511719 C 3.175781 -1.511719 2.902344 -1.613281 2.699219 -1.816406 C 2.496094 -2.015625 2.398438 -2.289062 2.398438 -2.636719 L 2.398438 -3.300781 C 2.398438 -3.289062 2.398438 -3.273438 2.40625 -3.253906 C 2.421875 -3.214844 2.445312 -3.175781 2.476562 -3.140625 C 2.511719 -3.109375 2.550781 -3.082031 2.59375 -3.070312 C 2.613281 -3.0625 2.625 -3.058594 2.636719 -3.058594 L 1.042969 -3.058594 C 1.054688 -3.058594 1.070312 -3.0625 1.089844 -3.070312 C 1.128906 -3.082031 1.167969 -3.109375 1.203125 -3.140625 C 1.234375 -3.175781 1.261719 -3.214844 1.273438 -3.253906 C 1.28125 -3.273438 1.285156 -3.289062 1.285156 -3.300781 L 1.285156 -2.273438 C 1.285156 -1.671875 1.429688 -1.226562 1.722656 -0.933594 C 2.015625 -0.640625 2.464844 -0.492188 3.0625 -0.492188 L 4.832031 -0.492188 C 5.445312 -0.492188 5.890625 -0.640625 6.179688 -0.929688 C 6.46875 -1.226562 6.613281 -1.671875 6.613281 -2.273438 L 6.613281 -5.242188 C 6.613281 -5.289062 6.609375 -5.316406 6.601562 -5.328125 C 6.59375 -5.339844 6.574219 -5.347656 6.546875 -5.359375 L 2.382812 -6.699219 L 2.382812 -8.402344 C 2.382812 -8.75 2.480469 -9.023438 2.683594 -9.226562 C 2.886719 -9.429688 3.160156 -9.527344 3.507812 -9.527344 L 4.375 -9.527344 C 4.722656 -9.527344 4.996094 -9.429688 5.199219 -9.226562 C 5.398438 -9.023438 5.5 -8.75 5.5 -8.402344 L 5.5 -7.738281 C 5.5 -7.75 5.496094 -7.765625 5.492188 -7.785156 C 5.476562 -7.828125 5.453125 -7.867188 5.417969 -7.898438 C 5.386719 -7.933594 5.347656 -7.957031 5.304688 -7.972656 C 5.285156 -7.976562 5.269531 -7.980469 5.261719 -7.980469 L 6.855469 -7.980469 C 6.84375 -7.980469 6.828125 -7.976562 6.808594 -7.972656 C 6.769531 -7.957031 6.730469 -7.933594 6.695312 -7.898438 C 6.660156 -7.867188 6.636719 -7.828125 6.625 -7.785156 C 6.617188 -7.765625 6.613281 -7.75 6.613281 -7.738281 L 6.613281 -8.78125 C 6.613281 -9.394531 6.46875 -9.84375 6.183594 -10.132812 C 5.894531 -10.417969 5.445312 -10.5625 4.832031 -10.5625 Z M 3.0625 -10.5625 "/></g></g><g style="fill:#b21a22;fill-opacity:1;"><g transform="translate(31.676561, 65.216998)"><path style="stroke:none" d="M 7.585938 -10.804688 L 7.585938 -9.226562 C 7.585938 -9.003906 7.519531 -8.824219 7.386719 -8.683594 C 7.25 -8.535156 7.066406 -8.460938 6.839844 -8.460938 L 2.9375 -8.460938 L 2.9375 -8.957031 L 3.429688 -8.957031 L 3.429688 -6.523438 L 2.9375 -6.523438 L 2.9375 -7.015625 L 5.90625 -7.015625 C 6.132812 -7.015625 6.316406 -6.941406 6.457031 -6.792969 C 6.589844 -6.65625 6.652344 -6.476562 6.652344 -6.253906 L 6.652344 -4.691406 C 6.652344 -4.472656 6.589844 -4.292969 6.457031 -4.152344 C 6.316406 -4.003906 6.132812 -3.929688 5.90625 -3.929688 L 2.9375 -3.929688 L 2.9375 -4.421875 L 3.429688 -4.421875 L 3.429688 -2.085938 L 2.9375 -2.085938 L 2.9375 -2.578125 L 6.839844 -2.578125 C 7.058594 -2.578125 7.238281 -2.507812 7.378906 -2.371094 C 7.515625 -2.230469 7.585938 -2.054688 7.585938 -1.832031 L 7.585938 -0.253906 C 7.585938 -0.03125 7.515625 0.148438 7.378906 0.285156 C 7.238281 0.425781 7.058594 0.492188 6.839844 0.492188 L 1.027344 0.492188 C 0.804688 0.492188 0.625 0.421875 0.488281 0.273438 C 0.359375 0.136719 0.296875 -0.0390625 0.296875 -0.253906 L 0.296875 -10.804688 C 0.296875 -11.019531 0.359375 -11.195312 0.488281 -11.332031 C 0.625 -11.476562 0.804688 -11.550781 1.027344 -11.550781 L 6.839844 -11.550781 C 7.058594 -11.550781 7.238281 -11.480469 7.378906 -11.34375 C 7.515625 -11.203125 7.585938 -11.023438 7.585938 -10.804688 Z M 6.597656 -10.804688 C 6.597656 -10.792969 6.601562 -10.777344 6.609375 -10.757812 C 6.621094 -10.714844 6.644531 -10.679688 6.679688 -10.644531 C 6.714844 -10.609375 6.75 -10.585938 6.792969 -10.574219 C 6.8125 -10.566406 6.828125 -10.5625 6.839844 -10.5625 L 1.027344 -10.5625 C 1.089844 -10.5625 1.152344 -10.59375 1.210938 -10.65625 C 1.242188 -10.691406 1.261719 -10.726562 1.277344 -10.765625 C 1.28125 -10.785156 1.285156 -10.796875 1.285156 -10.804688 L 1.285156 -0.253906 C 1.285156 -0.261719 1.28125 -0.273438 1.277344 -0.289062 C 1.261719 -0.328125 1.242188 -0.367188 1.210938 -0.402344 C 1.152344 -0.460938 1.089844 -0.492188 1.027344 -0.492188 L 6.839844 -0.492188 C 6.828125 -0.492188 6.8125 -0.492188 6.792969 -0.484375 C 6.75 -0.46875 6.714844 -0.445312 6.679688 -0.414062 C 6.644531 -0.378906 6.621094 -0.339844 6.609375 -0.296875 C 6.601562 -0.277344 6.597656 -0.265625 6.597656 -0.253906 L 6.597656 -1.832031 C 6.597656 -1.820312 6.601562 -1.804688 6.609375 -1.785156 C 6.621094 -1.746094 6.644531 -1.707031 6.679688 -1.671875 C 6.714844 -1.640625 6.75 -1.613281 6.792969 -1.601562 C 6.8125 -1.59375 6.828125 -1.589844 6.839844 -1.589844 L 2.445312 -1.589844 L 2.445312 -4.917969 L 5.90625 -4.917969 C 5.894531 -4.917969 5.875 -4.914062 5.851562 -4.90625 C 5.808594 -4.890625 5.769531 -4.863281 5.738281 -4.828125 C 5.707031 -4.796875 5.6875 -4.761719 5.671875 -4.722656 C 5.667969 -4.707031 5.667969 -4.695312 5.667969 -4.691406 L 5.667969 -6.253906 C 5.667969 -6.25 5.667969 -6.238281 5.671875 -6.226562 C 5.6875 -6.1875 5.707031 -6.152344 5.738281 -6.117188 C 5.769531 -6.082031 5.808594 -6.058594 5.851562 -6.042969 C 5.875 -6.035156 5.894531 -6.03125 5.90625 -6.03125 L 2.445312 -6.03125 L 2.445312 -9.449219 L 6.839844 -9.449219 C 6.824219 -9.449219 6.808594 -9.445312 6.785156 -9.4375 C 6.742188 -9.421875 6.703125 -9.398438 6.667969 -9.363281 C 6.640625 -9.328125 6.617188 -9.292969 6.605469 -9.253906 C 6.601562 -9.242188 6.597656 -9.230469 6.597656 -9.226562 Z M 6.597656 -10.804688 "/></g></g><g style="fill:#b21a22;fill-opacity:1;"><g transform="translate(39.556069, 65.216998)"><path style="stroke:none" d="M 8.246094 0.492188 L 6.714844 0.492188 C 6.519531 0.492188 6.355469 0.433594 6.222656 0.316406 C 6.097656 0.207031 6.015625 0.0625 5.976562 -0.117188 L 6.460938 -0.222656 L 5.980469 -0.101562 L 5.476562 -2.089844 L 5.953125 -2.210938 L 5.953125 -1.71875 L 2.984375 -1.71875 L 2.984375 -2.210938 L 3.464844 -2.09375 L 2.976562 -0.101562 L 2.496094 -0.222656 L 2.976562 -0.117188 C 2.941406 0.0625 2.859375 0.207031 2.734375 0.316406 C 2.597656 0.433594 2.433594 0.492188 2.242188 0.492188 L 0.695312 0.492188 C 0.4375 0.492188 0.242188 0.40625 0.109375 0.234375 C -0.0273438 0.0546875 -0.0585938 -0.15625 0.015625 -0.40625 L 0.488281 -0.269531 L 0.0117188 -0.386719 L 2.632812 -10.953125 L 3.113281 -10.835938 L 2.628906 -10.9375 C 2.667969 -11.125 2.753906 -11.273438 2.890625 -11.382812 C 3.023438 -11.496094 3.1875 -11.550781 3.378906 -11.550781 L 5.574219 -11.550781 C 5.769531 -11.550781 5.929688 -11.496094 6.066406 -11.382812 C 6.199219 -11.273438 6.289062 -11.125 6.328125 -10.9375 L 5.84375 -10.835938 L 6.324219 -10.953125 L 8.945312 -0.386719 L 8.464844 -0.269531 L 8.941406 -0.40625 C 9.015625 -0.152344 8.980469 0.0664062 8.832031 0.246094 C 8.695312 0.410156 8.5 0.492188 8.246094 0.492188 Z M 8.246094 -0.492188 C 8.246094 -0.492188 8.25 -0.492188 8.25 -0.492188 C 8.242188 -0.492188 8.230469 -0.488281 8.21875 -0.484375 C 8.160156 -0.46875 8.113281 -0.433594 8.070312 -0.382812 C 8.023438 -0.324219 7.996094 -0.257812 7.988281 -0.191406 C 7.988281 -0.164062 7.988281 -0.144531 7.992188 -0.128906 L 7.988281 -0.140625 L 5.363281 -10.722656 L 5.363281 -10.730469 C 5.371094 -10.695312 5.394531 -10.65625 5.441406 -10.621094 C 5.484375 -10.582031 5.53125 -10.5625 5.574219 -10.5625 L 3.378906 -10.5625 C 3.425781 -10.5625 3.46875 -10.582031 3.515625 -10.621094 C 3.558594 -10.65625 3.585938 -10.695312 3.59375 -10.730469 L 3.59375 -10.722656 L 0.964844 -0.140625 L 0.964844 -0.128906 C 0.964844 -0.140625 0.96875 -0.15625 0.964844 -0.179688 C 0.960938 -0.246094 0.9375 -0.308594 0.894531 -0.367188 C 0.851562 -0.421875 0.796875 -0.460938 0.738281 -0.484375 C 0.71875 -0.488281 0.703125 -0.492188 0.695312 -0.492188 L 2.242188 -0.492188 C 2.1875 -0.492188 2.132812 -0.472656 2.082031 -0.425781 C 2.042969 -0.390625 2.019531 -0.359375 2.011719 -0.324219 L 2.015625 -0.332031 L 2.597656 -2.703125 L 6.339844 -2.703125 L 6.941406 -0.332031 L 6.941406 -0.324219 C 6.9375 -0.359375 6.914062 -0.390625 6.871094 -0.425781 C 6.820312 -0.472656 6.769531 -0.492188 6.714844 -0.492188 Z M 4.984375 -3.933594 L 3.988281 -8.230469 L 4.46875 -8.339844 L 4.949219 -8.230469 L 3.957031 -3.933594 L 3.476562 -4.042969 L 3.476562 -4.539062 L 5.464844 -4.539062 L 5.464844 -4.042969 Z M 6.085938 -3.550781 L 2.855469 -3.550781 L 3.988281 -8.453125 L 4.949219 -8.453125 L 5.945312 -4.15625 Z M 6.085938 -3.550781 "/></g></g><g style="fill:#b21a22;fill-opacity:1;"><g transform="translate(48.509341, 65.216998)"><path style="stroke:none" d="M 7.601562 -8.78125 L 7.601562 -5.609375 C 7.601562 -4.507812 7.230469 -3.726562 6.484375 -3.261719 L 6.222656 -3.679688 L 6.703125 -3.796875 L 7.523438 -0.398438 L 7.042969 -0.285156 L 7.519531 -0.417969 C 7.589844 -0.164062 7.558594 0.0546875 7.417969 0.230469 C 7.28125 0.40625 7.085938 0.492188 6.824219 0.492188 L 5.277344 0.492188 C 5.082031 0.492188 4.921875 0.4375 4.785156 0.324219 C 4.652344 0.214844 4.5625 0.0664062 4.523438 -0.117188 L 5.007812 -0.222656 L 4.527344 -0.105469 L 3.769531 -3.214844 L 4.25 -3.332031 L 4.25 -2.839844 L 2.84375 -2.839844 L 2.84375 -3.332031 L 3.335938 -3.332031 L 3.335938 -0.253906 C 3.335938 -0.03125 3.269531 0.148438 3.128906 0.285156 C 2.992188 0.425781 2.8125 0.492188 2.589844 0.492188 L 1.042969 0.492188 C 0.820312 0.492188 0.640625 0.425781 0.503906 0.285156 C 0.367188 0.148438 0.296875 -0.03125 0.296875 -0.253906 L 0.296875 -10.804688 C 0.296875 -11.023438 0.367188 -11.203125 0.503906 -11.34375 C 0.640625 -11.480469 0.820312 -11.550781 1.042969 -11.550781 L 4.832031 -11.550781 C 5.71875 -11.550781 6.398438 -11.308594 6.878906 -10.828125 C 7.359375 -10.347656 7.601562 -9.667969 7.601562 -8.78125 Z M 6.613281 -8.78125 C 6.613281 -9.394531 6.46875 -9.84375 6.183594 -10.132812 C 5.894531 -10.417969 5.445312 -10.5625 4.832031 -10.5625 L 1.042969 -10.5625 C 1.054688 -10.5625 1.070312 -10.566406 1.089844 -10.574219 C 1.128906 -10.585938 1.167969 -10.609375 1.203125 -10.644531 C 1.234375 -10.679688 1.261719 -10.714844 1.273438 -10.757812 C 1.28125 -10.777344 1.285156 -10.792969 1.285156 -10.804688 L 1.285156 -0.253906 C 1.285156 -0.265625 1.28125 -0.277344 1.273438 -0.296875 C 1.261719 -0.339844 1.234375 -0.378906 1.203125 -0.414062 C 1.167969 -0.445312 1.128906 -0.46875 1.089844 -0.484375 C 1.070312 -0.492188 1.054688 -0.492188 1.042969 -0.492188 L 2.589844 -0.492188 C 2.578125 -0.492188 2.5625 -0.492188 2.546875 -0.484375 C 2.503906 -0.46875 2.464844 -0.445312 2.429688 -0.414062 C 2.398438 -0.378906 2.375 -0.339844 2.359375 -0.296875 C 2.351562 -0.277344 2.347656 -0.265625 2.347656 -0.253906 L 2.347656 -3.828125 L 4.636719 -3.828125 L 5.488281 -0.332031 L 5.488281 -0.324219 C 5.480469 -0.363281 5.457031 -0.398438 5.410156 -0.4375 C 5.367188 -0.472656 5.320312 -0.492188 5.277344 -0.492188 L 6.824219 -0.492188 C 6.8125 -0.492188 6.800781 -0.488281 6.789062 -0.484375 C 6.730469 -0.464844 6.679688 -0.425781 6.640625 -0.375 C 6.597656 -0.320312 6.574219 -0.261719 6.566406 -0.195312 C 6.566406 -0.175781 6.566406 -0.160156 6.570312 -0.152344 L 6.566406 -0.160156 L 5.660156 -3.910156 L 5.960938 -4.097656 C 6.398438 -4.371094 6.613281 -4.875 6.613281 -5.609375 Z M 2.84375 -5.863281 L 4.421875 -5.863281 C 4.476562 -5.863281 4.515625 -5.867188 4.542969 -5.878906 C 4.546875 -5.878906 4.550781 -5.882812 4.554688 -5.882812 C 4.550781 -5.882812 4.550781 -5.878906 4.546875 -5.878906 C 4.546875 -5.875 4.542969 -5.875 4.542969 -5.871094 C 4.542969 -5.875 4.546875 -5.875 4.546875 -5.882812 C 4.554688 -5.910156 4.5625 -5.949219 4.5625 -6.003906 L 4.5625 -8.386719 C 4.5625 -8.4375 4.554688 -8.480469 4.546875 -8.507812 C 4.546875 -8.511719 4.542969 -8.515625 4.542969 -8.519531 C 4.542969 -8.515625 4.546875 -8.515625 4.546875 -8.511719 C 4.550781 -8.511719 4.550781 -8.507812 4.554688 -8.507812 C 4.550781 -8.507812 4.546875 -8.507812 4.542969 -8.511719 C 4.515625 -8.519531 4.476562 -8.527344 4.421875 -8.527344 L 2.84375 -8.527344 L 2.84375 -9.019531 L 3.335938 -9.019531 L 3.335938 -5.371094 L 2.84375 -5.371094 Z M 2.347656 -4.875 L 2.347656 -9.511719 L 4.421875 -9.511719 C 4.769531 -9.511719 5.042969 -9.410156 5.246094 -9.210938 C 5.449219 -9.007812 5.546875 -8.734375 5.546875 -8.386719 L 5.546875 -6.003906 C 5.546875 -5.65625 5.449219 -5.382812 5.246094 -5.179688 C 5.042969 -4.976562 4.769531 -4.875 4.421875 -4.875 Z M 2.347656 -4.875 "/></g></g><g style="fill:#b21a22;fill-opacity:1;"><g transform="translate(56.404641, 65.216998)"><path style="stroke:none" d="M 7.617188 -8.78125 L 7.617188 -7.078125 C 7.617188 -6.855469 7.546875 -6.675781 7.410156 -6.539062 C 7.269531 -6.398438 7.089844 -6.328125 6.871094 -6.328125 L 5.386719 -6.328125 C 5.164062 -6.328125 4.984375 -6.398438 4.847656 -6.539062 C 4.710938 -6.675781 4.640625 -6.855469 4.640625 -7.078125 L 4.640625 -8.371094 C 4.640625 -8.421875 4.636719 -8.464844 4.625 -8.492188 C 4.625 -8.496094 4.621094 -8.5 4.621094 -8.503906 C 4.621094 -8.5 4.625 -8.5 4.625 -8.496094 C 4.628906 -8.496094 4.632812 -8.492188 4.632812 -8.492188 C 4.628906 -8.492188 4.628906 -8.492188 4.621094 -8.496094 C 4.59375 -8.503906 4.554688 -8.511719 4.5 -8.511719 L 3.492188 -8.511719 C 3.4375 -8.511719 3.398438 -8.503906 3.371094 -8.496094 C 3.367188 -8.492188 3.363281 -8.492188 3.359375 -8.492188 C 3.363281 -8.492188 3.363281 -8.496094 3.367188 -8.496094 C 3.367188 -8.5 3.371094 -8.5 3.371094 -8.503906 C 3.371094 -8.5 3.367188 -8.496094 3.367188 -8.492188 C 3.355469 -8.464844 3.351562 -8.421875 3.351562 -8.371094 L 3.351562 -2.636719 C 3.351562 -2.585938 3.355469 -2.546875 3.367188 -2.515625 C 3.367188 -2.511719 3.371094 -2.507812 3.371094 -2.507812 C 3.371094 -2.507812 3.367188 -2.511719 3.367188 -2.511719 C 3.363281 -2.515625 3.363281 -2.515625 3.359375 -2.519531 C 3.363281 -2.515625 3.367188 -2.515625 3.371094 -2.515625 C 3.398438 -2.503906 3.4375 -2.5 3.492188 -2.5 L 4.5 -2.5 C 4.554688 -2.5 4.59375 -2.503906 4.621094 -2.515625 C 4.628906 -2.515625 4.628906 -2.515625 4.632812 -2.519531 C 4.632812 -2.515625 4.628906 -2.515625 4.625 -2.511719 C 4.625 -2.511719 4.621094 -2.507812 4.621094 -2.507812 C 4.621094 -2.507812 4.625 -2.511719 4.625 -2.515625 C 4.636719 -2.546875 4.640625 -2.585938 4.640625 -2.636719 L 4.640625 -3.980469 C 4.640625 -4.199219 4.710938 -4.378906 4.847656 -4.519531 C 4.984375 -4.65625 5.164062 -4.726562 5.386719 -4.726562 L 6.871094 -4.726562 C 7.089844 -4.726562 7.269531 -4.65625 7.410156 -4.519531 C 7.546875 -4.378906 7.617188 -4.199219 7.617188 -3.980469 L 7.617188 -2.273438 C 7.617188 -1.402344 7.375 -0.722656 6.886719 -0.234375 C 6.402344 0.25 5.722656 0.492188 4.847656 0.492188 L 3.082031 0.492188 C 2.207031 0.492188 1.527344 0.25 1.035156 -0.234375 C 0.542969 -0.71875 0.296875 -1.398438 0.296875 -2.273438 L 0.296875 -8.78125 C 0.296875 -9.667969 0.542969 -10.351562 1.039062 -10.835938 C 1.527344 -11.3125 2.210938 -11.550781 3.082031 -11.550781 L 4.847656 -11.550781 C 5.722656 -11.550781 6.398438 -11.3125 6.886719 -10.832031 C 7.375 -10.351562 7.617188 -9.667969 7.617188 -8.78125 Z M 6.628906 -8.78125 C 6.628906 -9.390625 6.484375 -9.839844 6.191406 -10.128906 C 5.898438 -10.417969 5.453125 -10.5625 4.847656 -10.5625 L 3.082031 -10.5625 C 2.476562 -10.5625 2.027344 -10.417969 1.726562 -10.125 C 1.429688 -9.839844 1.285156 -9.390625 1.285156 -8.78125 L 1.285156 -2.273438 C 1.285156 -1.675781 1.433594 -1.230469 1.730469 -0.9375 C 2.027344 -0.640625 2.476562 -0.492188 3.082031 -0.492188 L 4.847656 -0.492188 C 5.449219 -0.492188 5.898438 -0.640625 6.191406 -0.933594 C 6.484375 -1.226562 6.628906 -1.671875 6.628906 -2.273438 L 6.628906 -3.980469 C 6.628906 -3.96875 6.632812 -3.953125 6.640625 -3.933594 C 6.652344 -3.894531 6.675781 -3.855469 6.710938 -3.820312 C 6.746094 -3.785156 6.785156 -3.761719 6.824219 -3.75 C 6.84375 -3.742188 6.859375 -3.738281 6.871094 -3.738281 L 5.386719 -3.738281 C 5.398438 -3.738281 5.414062 -3.742188 5.433594 -3.75 C 5.472656 -3.761719 5.511719 -3.785156 5.546875 -3.820312 C 5.578125 -3.855469 5.605469 -3.894531 5.617188 -3.933594 C 5.625 -3.953125 5.628906 -3.96875 5.628906 -3.980469 L 5.628906 -2.636719 C 5.628906 -2.289062 5.527344 -2.015625 5.324219 -1.816406 C 5.121094 -1.613281 4.847656 -1.511719 4.5 -1.511719 L 3.492188 -1.511719 C 3.144531 -1.511719 2.871094 -1.613281 2.667969 -1.816406 C 2.464844 -2.015625 2.367188 -2.289062 2.367188 -2.636719 L 2.367188 -8.371094 C 2.367188 -8.71875 2.464844 -8.992188 2.667969 -9.195312 C 2.871094 -9.394531 3.144531 -9.496094 3.492188 -9.496094 L 4.5 -9.496094 C 4.847656 -9.496094 5.121094 -9.394531 5.324219 -9.195312 C 5.527344 -8.992188 5.628906 -8.71875 5.628906 -8.371094 L 5.628906 -7.078125 C 5.628906 -7.085938 5.625 -7.101562 5.617188 -7.121094 C 5.605469 -7.164062 5.578125 -7.203125 5.546875 -7.234375 C 5.511719 -7.269531 5.472656 -7.292969 5.433594 -7.308594 C 5.414062 -7.3125 5.398438 -7.316406 5.386719 -7.316406 L 6.871094 -7.316406 C 6.859375 -7.316406 6.84375 -7.3125 6.824219 -7.308594 C 6.785156 -7.292969 6.746094 -7.269531 6.710938 -7.234375 C 6.675781 -7.203125 6.652344 -7.164062 6.640625 -7.121094 C 6.632812 -7.101562 6.628906 -7.085938 6.628906 -7.078125 Z M 6.628906 -8.78125 "/></g></g><g style="fill:#b21a22;fill-opacity:1;"><g transform="translate(64.315735, 65.216998)"><path style="stroke:none" d="M 4.464844 -6.539062 L 4.464844 -10.804688 C 4.464844 -11.023438 4.535156 -11.203125 4.675781 -11.34375 C 4.8125 -11.480469 4.992188 -11.550781 5.210938 -11.550781 L 6.839844 -11.550781 C 7.058594 -11.550781 7.238281 -11.484375 7.378906 -11.351562 C 7.527344 -11.214844 7.601562 -11.03125 7.601562 -10.804688 L 7.601562 -0.253906 C 7.601562 -0.0273438 7.527344 0.15625 7.378906 0.296875 C 7.238281 0.429688 7.058594 0.492188 6.839844 0.492188 L 5.210938 0.492188 C 4.992188 0.492188 4.8125 0.425781 4.675781 0.285156 C 4.535156 0.148438 4.464844 -0.03125 4.464844 -0.253906 L 4.464844 -4.453125 L 4.960938 -4.453125 L 4.960938 -3.960938 L 2.9375 -3.960938 L 2.9375 -4.453125 L 3.429688 -4.453125 L 3.429688 -0.253906 C 3.429688 -0.03125 3.363281 0.148438 3.222656 0.285156 C 3.085938 0.425781 2.90625 0.492188 2.683594 0.492188 L 1.058594 0.492188 C 0.839844 0.492188 0.660156 0.429688 0.519531 0.296875 C 0.371094 0.15625 0.296875 -0.0273438 0.296875 -0.253906 L 0.296875 -10.804688 C 0.296875 -11.03125 0.371094 -11.214844 0.519531 -11.351562 C 0.660156 -11.484375 0.839844 -11.550781 1.058594 -11.550781 L 2.683594 -11.550781 C 2.90625 -11.550781 3.085938 -11.480469 3.222656 -11.34375 C 3.363281 -11.203125 3.429688 -11.023438 3.429688 -10.804688 L 3.429688 -6.539062 L 2.9375 -6.539062 L 2.9375 -7.03125 L 4.960938 -7.03125 L 4.960938 -6.539062 Z M 5.453125 -6.046875 L 2.445312 -6.046875 L 2.445312 -10.804688 C 2.445312 -10.792969 2.449219 -10.777344 2.453125 -10.757812 C 2.46875 -10.714844 2.492188 -10.679688 2.527344 -10.644531 C 2.558594 -10.609375 2.597656 -10.585938 2.640625 -10.574219 C 2.660156 -10.566406 2.675781 -10.5625 2.683594 -10.5625 L 1.058594 -10.5625 C 1.0625 -10.5625 1.074219 -10.566406 1.089844 -10.570312 C 1.128906 -10.582031 1.164062 -10.605469 1.195312 -10.632812 C 1.230469 -10.667969 1.257812 -10.707031 1.273438 -10.75 C 1.28125 -10.773438 1.285156 -10.789062 1.285156 -10.804688 L 1.285156 -0.253906 C 1.285156 -0.265625 1.28125 -0.285156 1.273438 -0.308594 C 1.257812 -0.351562 1.230469 -0.390625 1.195312 -0.421875 C 1.164062 -0.453125 1.128906 -0.476562 1.089844 -0.488281 C 1.074219 -0.492188 1.0625 -0.492188 1.058594 -0.492188 L 2.683594 -0.492188 C 2.675781 -0.492188 2.660156 -0.492188 2.640625 -0.484375 C 2.597656 -0.46875 2.558594 -0.445312 2.527344 -0.414062 C 2.492188 -0.378906 2.46875 -0.339844 2.453125 -0.296875 C 2.449219 -0.277344 2.445312 -0.265625 2.445312 -0.253906 L 2.445312 -4.949219 L 5.453125 -4.949219 L 5.453125 -0.253906 C 5.453125 -0.265625 5.449219 -0.277344 5.445312 -0.296875 C 5.429688 -0.339844 5.40625 -0.378906 5.371094 -0.414062 C 5.339844 -0.445312 5.300781 -0.46875 5.257812 -0.484375 C 5.238281 -0.492188 5.222656 -0.492188 5.210938 -0.492188 L 6.839844 -0.492188 C 6.832031 -0.492188 6.824219 -0.492188 6.808594 -0.488281 C 6.769531 -0.476562 6.734375 -0.453125 6.703125 -0.421875 C 6.667969 -0.390625 6.640625 -0.351562 6.625 -0.308594 C 6.617188 -0.285156 6.613281 -0.265625 6.613281 -0.253906 L 6.613281 -10.804688 C 6.613281 -10.789062 6.617188 -10.773438 6.625 -10.75 C 6.640625 -10.707031 6.667969 -10.667969 6.703125 -10.632812 C 6.734375 -10.605469 6.769531 -10.582031 6.808594 -10.570312 C 6.824219 -10.566406 6.832031 -10.5625 6.839844 -10.5625 L 5.210938 -10.5625 C 5.222656 -10.5625 5.238281 -10.566406 5.257812 -10.574219 C 5.300781 -10.585938 5.339844 -10.609375 5.371094 -10.644531 C 5.40625 -10.679688 5.429688 -10.714844 5.445312 -10.757812 C 5.449219 -10.777344 5.453125 -10.792969 5.453125 -10.804688 Z M 5.453125 -6.046875 "/></g></g><g style="fill:#060705;fill-opacity:1;"><g transform="translate(11.325214, 43.195258)"><path style="stroke:none" d="M 8.25 0 L 6.71875 0 C 6.582031 0 6.492188 -0.0703125 6.453125 -0.21875 L 5.953125 -2.21875 L 2.984375 -2.21875 L 2.5 -0.21875 C 2.46875 -0.0703125 2.382812 0 2.25 0 L 0.6875 0 C 0.5 0 0.429688 -0.0859375 0.484375 -0.265625 L 3.109375 -10.84375 C 3.140625 -10.988281 3.226562 -11.0625 3.375 -11.0625 L 5.578125 -11.0625 C 5.722656 -11.0625 5.8125 -10.988281 5.84375 -10.84375 L 8.46875 -0.265625 C 8.519531 -0.0859375 8.445312 0 8.25 0 Z M 5.46875 -4.046875 L 4.46875 -8.34375 L 3.46875 -4.046875 Z M 5.46875 -4.046875 "/></g></g><g style="fill:#060705;fill-opacity:1;"><g transform="translate(20.278487, 43.195258)"><path style="stroke:none" d="M 9.734375 -11.0625 L 11.21875 -11.0625 C 11.445312 -11.0625 11.546875 -10.945312 11.515625 -10.71875 L 10 -0.28125 C 9.96875 -0.09375 9.851562 0 9.65625 0 L 7.953125 0 C 7.765625 0 7.644531 -0.09375 7.59375 -0.28125 L 6.140625 -6.765625 L 4.671875 -0.28125 C 4.628906 -0.09375 4.515625 0 4.328125 0 L 2.59375 0 C 2.394531 0 2.28125 -0.0976562 2.25 -0.296875 L 0.796875 -10.71875 C 0.765625 -10.945312 0.863281 -11.0625 1.09375 -11.0625 L 2.578125 -11.0625 C 2.765625 -11.0625 2.875 -10.957031 2.90625 -10.75 L 3.6875 -4.15625 L 3.765625 -4.15625 L 5.3125 -10.796875 C 5.363281 -10.972656 5.476562 -11.0625 5.65625 -11.0625 L 6.625 -11.0625 C 6.800781 -11.0625 6.914062 -10.972656 6.96875 -10.796875 L 8.515625 -4.15625 L 8.59375 -4.15625 L 9.40625 -10.75 C 9.4375 -10.957031 9.546875 -11.0625 9.734375 -11.0625 Z M 9.734375 -11.0625 "/></g></g><g style="fill:#060705;fill-opacity:1;"><g transform="translate(32.389876, 43.195258)"><path style="stroke:none" d="M 7.09375 -10.8125 L 7.09375 -9.21875 C 7.09375 -9.039062 7.007812 -8.953125 6.84375 -8.953125 L 2.9375 -8.953125 L 2.9375 -6.53125 L 5.90625 -6.53125 C 6.070312 -6.53125 6.15625 -6.4375 6.15625 -6.25 L 6.15625 -4.6875 C 6.15625 -4.507812 6.070312 -4.421875 5.90625 -4.421875 L 2.9375 -4.421875 L 2.9375 -2.078125 L 6.84375 -2.078125 C 7.007812 -2.078125 7.09375 -1.992188 7.09375 -1.828125 L 7.09375 -0.25 C 7.09375 -0.0820312 7.007812 0 6.84375 0 L 1.03125 0 C 0.875 0 0.796875 -0.0820312 0.796875 -0.25 L 0.796875 -10.8125 C 0.796875 -10.976562 0.875 -11.0625 1.03125 -11.0625 L 6.84375 -11.0625 C 7.007812 -11.0625 7.09375 -10.976562 7.09375 -10.8125 Z M 7.09375 -10.8125 "/></g></g><g style="fill:#060705;fill-opacity:1;"><g transform="translate(40.269383, 43.195258)"><path style="stroke:none" d="M 3.0625 -11.0625 L 4.828125 -11.0625 C 5.578125 -11.0625 6.144531 -10.867188 6.53125 -10.484375 C 6.914062 -10.097656 7.109375 -9.53125 7.109375 -8.78125 L 7.109375 -7.734375 C 7.109375 -7.566406 7.023438 -7.484375 6.859375 -7.484375 L 5.265625 -7.484375 C 5.085938 -7.484375 5 -7.566406 5 -7.734375 L 5 -8.40625 C 5 -8.820312 4.789062 -9.03125 4.375 -9.03125 L 3.5 -9.03125 C 3.082031 -9.03125 2.875 -8.820312 2.875 -8.40625 L 2.875 -7.0625 L 6.703125 -5.828125 C 6.972656 -5.734375 7.109375 -5.539062 7.109375 -5.25 L 7.109375 -2.28125 C 7.109375 -1.539062 6.914062 -0.972656 6.53125 -0.578125 C 6.144531 -0.191406 5.578125 0 4.828125 0 L 3.0625 0 C 2.320312 0 1.757812 -0.191406 1.375 -0.578125 C 0.988281 -0.972656 0.796875 -1.539062 0.796875 -2.28125 L 0.796875 -3.296875 C 0.796875 -3.460938 0.878906 -3.546875 1.046875 -3.546875 L 2.640625 -3.546875 C 2.804688 -3.546875 2.890625 -3.460938 2.890625 -3.296875 L 2.890625 -2.640625 C 2.890625 -2.210938 3.097656 -2 3.515625 -2 L 4.375 -2 C 4.789062 -2 5 -2.210938 5 -2.640625 L 5 -4.234375 L 1.21875 -5.46875 C 0.9375 -5.5625 0.796875 -5.753906 0.796875 -6.046875 L 0.796875 -8.78125 C 0.796875 -9.53125 0.988281 -10.097656 1.375 -10.484375 C 1.757812 -10.867188 2.320312 -11.0625 3.0625 -11.0625 Z M 3.0625 -11.0625 "/></g></g><g style="fill:#060705;fill-opacity:1;"><g transform="translate(48.164683, 43.195258)"><path style="stroke:none" d="M 0.796875 -2.28125 L 0.796875 -8.78125 C 0.796875 -9.53125 0.988281 -10.097656 1.375 -10.484375 C 1.757812 -10.867188 2.320312 -11.0625 3.0625 -11.0625 L 4.828125 -11.0625 C 5.578125 -11.0625 6.144531 -10.867188 6.53125 -10.484375 C 6.914062 -10.097656 7.109375 -9.53125 7.109375 -8.78125 L 7.109375 -2.28125 C 7.109375 -1.539062 6.914062 -0.972656 6.53125 -0.578125 C 6.144531 -0.191406 5.578125 0 4.828125 0 L 3.0625 0 C 2.320312 0 1.757812 -0.191406 1.375 -0.578125 C 0.988281 -0.972656 0.796875 -1.539062 0.796875 -2.28125 Z M 3.46875 -2.03125 L 4.484375 -2.03125 C 4.910156 -2.03125 5.125 -2.242188 5.125 -2.671875 L 5.125 -8.390625 C 5.125 -8.804688 4.910156 -9.015625 4.484375 -9.015625 L 3.46875 -9.015625 C 3.050781 -9.015625 2.84375 -8.804688 2.84375 -8.390625 L 2.84375 -2.671875 C 2.84375 -2.242188 3.050781 -2.03125 3.46875 -2.03125 Z M 3.46875 -2.03125 "/></g></g><g style="fill:#060705;fill-opacity:1;"><g transform="translate(56.059984, 43.195258)"><path style="stroke:none" d="M 7.390625 -11.0625 L 9.484375 -11.0625 C 9.691406 -11.0625 9.796875 -10.953125 9.796875 -10.734375 L 9.796875 -0.3125 C 9.796875 -0.101562 9.691406 0 9.484375 0 L 8.015625 0 C 7.796875 0 7.6875 -0.101562 7.6875 -0.3125 L 7.6875 -6.53125 L 7.578125 -6.53125 L 6.09375 -0.265625 C 6.039062 -0.0859375 5.925781 0 5.75 0 L 4.8125 0 C 4.632812 0 4.519531 -0.0859375 4.46875 -0.265625 L 2.984375 -6.53125 L 2.875 -6.53125 L 2.875 -0.3125 C 2.875 -0.101562 2.769531 0 2.5625 0 L 1.109375 0 C 0.898438 0 0.796875 -0.101562 0.796875 -0.3125 L 0.796875 -10.734375 C 0.796875 -10.953125 0.898438 -11.0625 1.109375 -11.0625 L 3.1875 -11.0625 C 3.363281 -11.0625 3.476562 -10.972656 3.53125 -10.796875 L 5.296875 -3.75 L 7.046875 -10.796875 C 7.097656 -10.972656 7.210938 -11.0625 7.390625 -11.0625 Z M 7.390625 -11.0625 "/></g></g><g style="fill:#060705;fill-opacity:1;"><g transform="translate(66.639684, 43.195258)"><path style="stroke:none" d="M 7.09375 -10.8125 L 7.09375 -9.21875 C 7.09375 -9.039062 7.007812 -8.953125 6.84375 -8.953125 L 2.9375 -8.953125 L 2.9375 -6.53125 L 5.90625 -6.53125 C 6.070312 -6.53125 6.15625 -6.4375 6.15625 -6.25 L 6.15625 -4.6875 C 6.15625 -4.507812 6.070312 -4.421875 5.90625 -4.421875 L 2.9375 -4.421875 L 2.9375 -2.078125 L 6.84375 -2.078125 C 7.007812 -2.078125 7.09375 -1.992188 7.09375 -1.828125 L 7.09375 -0.25 C 7.09375 -0.0820312 7.007812 0 6.84375 0 L 1.03125 0 C 0.875 0 0.796875 -0.0820312 0.796875 -0.25 L 0.796875 -10.8125 C 0.796875 -10.976562 0.875 -11.0625 1.03125 -11.0625 L 6.84375 -11.0625 C 7.007812 -11.0625 7.09375 -10.976562 7.09375 -10.8125 Z M 7.09375 -10.8125 "/></g></g><g style="fill:#060705;fill-opacity:1;"><g transform="translate(74.519192, 43.195258)"><path style="stroke:none" d="M 0 2.109375 L 0 0.65625 C 0 0.445312 0.101562 0.34375 0.3125 0.34375 L 9.84375 0.34375 C 10.050781 0.34375 10.15625 0.445312 10.15625 0.65625 L 10.15625 2.109375 C 10.15625 2.328125 10.050781 2.4375 9.84375 2.4375 L 0.3125 2.4375 C 0.101562 2.4375 0 2.328125 0 2.109375 Z M 0 2.109375 "/></g></g><g style="fill:#060705;fill-opacity:1;"><g transform="translate(23.781261, 65.216998)"><path style="stroke:none" d="M 3.0625 -11.0625 L 4.828125 -11.0625 C 5.578125 -11.0625 6.144531 -10.867188 6.53125 -10.484375 C 6.914062 -10.097656 7.109375 -9.53125 7.109375 -8.78125 L 7.109375 -7.734375 C 7.109375 -7.566406 7.023438 -7.484375 6.859375 -7.484375 L 5.265625 -7.484375 C 5.085938 -7.484375 5 -7.566406 5 -7.734375 L 5 -8.40625 C 5 -8.820312 4.789062 -9.03125 4.375 -9.03125 L 3.5 -9.03125 C 3.082031 -9.03125 2.875 -8.820312 2.875 -8.40625 L 2.875 -7.0625 L 6.703125 -5.828125 C 6.972656 -5.734375 7.109375 -5.539062 7.109375 -5.25 L 7.109375 -2.28125 C 7.109375 -1.539062 6.914062 -0.972656 6.53125 -0.578125 C 6.144531 -0.191406 5.578125 0 4.828125 0 L 3.0625 0 C 2.320312 0 1.757812 -0.191406 1.375 -0.578125 C 0.988281 -0.972656 0.796875 -1.539062 0.796875 -2.28125 L 0.796875 -3.296875 C 0.796875 -3.460938 0.878906 -3.546875 1.046875 -3.546875 L 2.640625 -3.546875 C 2.804688 -3.546875 2.890625 -3.460938 2.890625 -3.296875 L 2.890625 -2.640625 C 2.890625 -2.210938 3.097656 -2 3.515625 -2 L 4.375 -2 C 4.789062 -2 5 -2.210938 5 -2.640625 L 5 -4.234375 L 1.21875 -5.46875 C 0.9375 -5.5625 0.796875 -5.753906 0.796875 -6.046875 L 0.796875 -8.78125 C 0.796875 -9.53125 0.988281 -10.097656 1.375 -10.484375 C 1.757812 -10.867188 2.320312 -11.0625 3.0625 -11.0625 Z M 3.0625 -11.0625 "/></g></g><g style="fill:#060705;fill-opacity:1;"><g transform="translate(31.676561, 65.216998)"><path style="stroke:none" d="M 7.09375 -10.8125 L 7.09375 -9.21875 C 7.09375 -9.039062 7.007812 -8.953125 6.84375 -8.953125 L 2.9375 -8.953125 L 2.9375 -6.53125 L 5.90625 -6.53125 C 6.070312 -6.53125 6.15625 -6.4375 6.15625 -6.25 L 6.15625 -4.6875 C 6.15625 -4.507812 6.070312 -4.421875 5.90625 -4.421875 L 2.9375 -4.421875 L 2.9375 -2.078125 L 6.84375 -2.078125 C 7.007812 -2.078125 7.09375 -1.992188 7.09375 -1.828125 L 7.09375 -0.25 C 7.09375 -0.0820312 7.007812 0 6.84375 0 L 1.03125 0 C 0.875 0 0.796875 -0.0820312 0.796875 -0.25 L 0.796875 -10.8125 C 0.796875 -10.976562 0.875 -11.0625 1.03125 -11.0625 L 6.84375 -11.0625 C 7.007812 -11.0625 7.09375 -10.976562 7.09375 -10.8125 Z M 7.09375 -10.8125 "/></g></g><g style="fill:#060705;fill-opacity:1;"><g transform="translate(39.556069, 65.216998)"><path style="stroke:none" d="M 8.25 0 L 6.71875 0 C 6.582031 0 6.492188 -0.0703125 6.453125 -0.21875 L 5.953125 -2.21875 L 2.984375 -2.21875 L 2.5 -0.21875 C 2.46875 -0.0703125 2.382812 0 2.25 0 L 0.6875 0 C 0.5 0 0.429688 -0.0859375 0.484375 -0.265625 L 3.109375 -10.84375 C 3.140625 -10.988281 3.226562 -11.0625 3.375 -11.0625 L 5.578125 -11.0625 C 5.722656 -11.0625 5.8125 -10.988281 5.84375 -10.84375 L 8.46875 -0.265625 C 8.519531 -0.0859375 8.445312 0 8.25 0 Z M 5.46875 -4.046875 L 4.46875 -8.34375 L 3.46875 -4.046875 Z M 5.46875 -4.046875 "/></g></g><g style="fill:#060705;fill-opacity:1;"><g transform="translate(48.509341, 65.216998)"><path style="stroke:none" d="M 7.109375 -8.78125 L 7.109375 -5.609375 C 7.109375 -4.691406 6.8125 -4.050781 6.21875 -3.6875 L 7.046875 -0.28125 C 7.097656 -0.09375 7.023438 0 6.828125 0 L 5.28125 0 C 5.132812 0 5.039062 -0.0703125 5 -0.21875 L 4.25 -3.328125 L 2.84375 -3.328125 L 2.84375 -0.25 C 2.84375 -0.0820312 2.757812 0 2.59375 0 L 1.046875 0 C 0.878906 0 0.796875 -0.0820312 0.796875 -0.25 L 0.796875 -10.8125 C 0.796875 -10.976562 0.878906 -11.0625 1.046875 -11.0625 L 4.828125 -11.0625 C 5.578125 -11.0625 6.144531 -10.867188 6.53125 -10.484375 C 6.914062 -10.097656 7.109375 -9.53125 7.109375 -8.78125 Z M 2.84375 -5.375 L 4.421875 -5.375 C 4.847656 -5.375 5.0625 -5.582031 5.0625 -6 L 5.0625 -8.390625 C 5.0625 -8.804688 4.847656 -9.015625 4.421875 -9.015625 L 2.84375 -9.015625 Z M 2.84375 -5.375 "/></g></g><g style="fill:#060705;fill-opacity:1;"><g transform="translate(56.404641, 65.216998)"><path style="stroke:none" d="M 7.125 -8.78125 L 7.125 -7.078125 C 7.125 -6.910156 7.039062 -6.828125 6.875 -6.828125 L 5.390625 -6.828125 C 5.222656 -6.828125 5.140625 -6.910156 5.140625 -7.078125 L 5.140625 -8.375 C 5.140625 -8.789062 4.925781 -9 4.5 -9 L 3.484375 -9 C 3.066406 -9 2.859375 -8.789062 2.859375 -8.375 L 2.859375 -2.640625 C 2.859375 -2.210938 3.066406 -2 3.484375 -2 L 4.5 -2 C 4.925781 -2 5.140625 -2.210938 5.140625 -2.640625 L 5.140625 -3.984375 C 5.140625 -4.148438 5.222656 -4.234375 5.390625 -4.234375 L 6.875 -4.234375 C 7.039062 -4.234375 7.125 -4.148438 7.125 -3.984375 L 7.125 -2.28125 C 7.125 -1.539062 6.925781 -0.972656 6.53125 -0.578125 C 6.144531 -0.191406 5.582031 0 4.84375 0 L 3.078125 0 C 2.335938 0 1.769531 -0.191406 1.375 -0.578125 C 0.988281 -0.972656 0.796875 -1.539062 0.796875 -2.28125 L 0.796875 -8.78125 C 0.796875 -9.53125 0.988281 -10.097656 1.375 -10.484375 C 1.769531 -10.867188 2.335938 -11.0625 3.078125 -11.0625 L 4.84375 -11.0625 C 5.582031 -11.0625 6.144531 -10.867188 6.53125 -10.484375 C 6.925781 -10.097656 7.125 -9.53125 7.125 -8.78125 Z M 7.125 -8.78125 "/></g></g><g style="fill:#060705;fill-opacity:1;"><g transform="translate(64.315735, 65.216998)"><path style="stroke:none" d="M 4.953125 -6.546875 L 4.953125 -10.8125 C 4.953125 -10.976562 5.039062 -11.0625 5.21875 -11.0625 L 6.84375 -11.0625 C 7.019531 -11.0625 7.109375 -10.976562 7.109375 -10.8125 L 7.109375 -0.25 C 7.109375 -0.0820312 7.019531 0 6.84375 0 L 5.21875 0 C 5.039062 0 4.953125 -0.0820312 4.953125 -0.25 L 4.953125 -4.453125 L 2.9375 -4.453125 L 2.9375 -0.25 C 2.9375 -0.0820312 2.851562 0 2.6875 0 L 1.0625 0 C 0.882812 0 0.796875 -0.0820312 0.796875 -0.25 L 0.796875 -10.8125 C 0.796875 -10.976562 0.882812 -11.0625 1.0625 -11.0625 L 2.6875 -11.0625 C 2.851562 -11.0625 2.9375 -10.976562 2.9375 -10.8125 L 2.9375 -6.546875 Z M 4.953125 -6.546875 "/></g></g></g></svg>