<svg xmlns="http://www.w3.org/2000/svg" xmlns:xlink="http://www.w3.org/1999/xlink" width="500" zoomAndPan="magnify" viewBox="0 0 375 374.999991" height="500" preserveAspectRatio="xMidYMid meet" version="1.2"><defs><clipPath id="bd96a47775"><path d="M 25 0 L 350 0 L 350 375 L 25 375 Z M 25 0 "/></clipPath><clipPath id="96f0a24a3f"><path d="M -55.878906 142.882812 L 268.328125 -46.476562 L 431 232.042969 L 106.789062 421.402344 Z M -55.878906 142.882812 "/></clipPath><clipPath id="2671fcb180"><path d="M 349.546875 92.851562 L 349.859375 279.433594 L 187.8125 374.078125 L 25.453125 282.140625 L 25.140625 95.5625 L 187.1875 0.917969 Z M 349.546875 92.851562 "/></clipPath><clipPath id="48dc0d5520"><path d="M 55.238281 35.632812 L 319.726562 35.632812 L 319.726562 339 L 55.238281 339 Z M 55.238281 35.632812 "/></clipPath></defs><g id="dde96c8059"><g clip-rule="nonzero" clip-path="url(#bd96a47775)"><g clip-rule="nonzero" clip-path="url(#96f0a24a3f)"><g clip-rule="nonzero" clip-path="url(#2671fcb180)"><path style=" stroke:none;fill-rule:nonzero;fill:#65b30e;fill-opacity:1;" d="M -55.878906 142.882812 L 268.332031 -46.476562 L 431 232.042969 L 106.789062 421.402344 Z M -55.878906 142.882812 "/></g></g></g><path style=" stroke:none;fill-rule:nonzero;fill:#87ff00;fill-opacity:1;" d="M 134.582031 135.703125 L 134.414062 135.535156 L 97.035156 172.914062 L 187.792969 263.503906 L 225.175781 226.296875 L 278.546875 172.914062 L 241.167969 135.535156 L 241.167969 135.367188 L 134.417969 135.367188 Z M 134.582031 135.703125 "/><g clip-rule="nonzero" clip-path="url(#48dc0d5520)"><path style=" stroke:none;fill-rule:nonzero;fill:#87ff00;fill-opacity:1;" d="M 187.453125 35.851562 L 55.269531 111.625 L 55.273438 263.175781 L 187.457031 338.949219 L 319.640625 263.175781 L 319.640625 111.625 L 187.457031 35.855469 Z M 294.375 248.683594 L 187.453125 310.308594 L 80.527344 248.683594 L 80.53125 125.765625 L 187.457031 64.136719 L 294.378906 125.765625 L 294.378906 248.683594 Z M 294.375 248.683594 "/></g><g style="fill:#b21a22;fill-opacity:1;"><g transform="translate(44.239105, 168.731459)"><path style="stroke:none" d="M 32.207031 1.929688 L 26.222656 1.929688 C 25.472656 1.929688 24.832031 1.699219 24.304688 1.234375 C 23.820312 0.808594 23.5 0.246094 23.351562 -0.460938 L 25.234375 -0.863281 L 23.367188 -0.390625 L 21.390625 -8.164062 L 23.261719 -8.636719 L 23.261719 -6.710938 L 11.660156 -6.710938 L 11.660156 -8.636719 L 13.535156 -8.175781 L 11.621094 -0.402344 L 9.75 -0.863281 L 11.632812 -0.460938 C 11.484375 0.246094 11.164062 0.808594 10.679688 1.234375 C 10.152344 1.699219 9.511719 1.929688 8.761719 1.929688 L 2.714844 1.929688 C 1.710938 1.929688 0.945312 1.589844 0.425781 0.910156 C -0.101562 0.214844 -0.222656 -0.617188 0.0625 -1.59375 L 1.914062 -1.050781 L 0.0429688 -1.511719 L 10.285156 -42.792969 L 12.15625 -42.328125 L 10.269531 -42.730469 C 10.425781 -43.457031 10.761719 -44.035156 11.285156 -44.464844 C 11.816406 -44.902344 12.453125 -45.121094 13.203125 -45.121094 L 21.78125 -45.121094 C 22.53125 -45.121094 23.167969 -44.902344 23.699219 -44.464844 C 24.222656 -44.035156 24.558594 -43.457031 24.714844 -42.730469 L 22.828125 -42.328125 L 24.699219 -42.792969 L 34.945312 -1.511719 L 33.070312 -1.050781 L 34.921875 -1.59375 C 35.21875 -0.589844 35.074219 0.261719 34.5 0.964844 C 33.96875 1.605469 33.207031 1.929688 32.207031 1.929688 Z M 32.207031 -1.929688 C 32.21875 -1.929688 32.226562 -1.929688 32.230469 -1.929688 C 32.230469 -1.929688 32.230469 -1.929688 32.222656 -1.929688 C 32.1875 -1.921875 32.148438 -1.914062 32.101562 -1.898438 C 31.882812 -1.824219 31.6875 -1.6875 31.523438 -1.488281 C 31.335938 -1.261719 31.234375 -1.011719 31.210938 -0.742188 C 31.203125 -0.636719 31.207031 -0.558594 31.222656 -0.503906 L 31.210938 -0.542969 L 20.949219 -41.894531 L 20.945312 -41.921875 C 20.976562 -41.773438 21.078125 -41.628906 21.25 -41.488281 C 21.429688 -41.335938 21.605469 -41.261719 21.78125 -41.261719 L 13.203125 -41.261719 C 13.378906 -41.261719 13.554688 -41.335938 13.734375 -41.488281 C 13.90625 -41.628906 14.007812 -41.773438 14.039062 -41.921875 L 14.035156 -41.894531 L 3.773438 -0.542969 L 3.761719 -0.503906 C 3.773438 -0.542969 3.777344 -0.609375 3.773438 -0.703125 C 3.757812 -0.964844 3.664062 -1.207031 3.492188 -1.433594 C 3.324219 -1.652344 3.121094 -1.804688 2.878906 -1.886719 C 2.800781 -1.914062 2.746094 -1.929688 2.714844 -1.929688 L 8.761719 -1.929688 C 8.546875 -1.929688 8.339844 -1.839844 8.140625 -1.667969 C 7.984375 -1.53125 7.890625 -1.398438 7.863281 -1.269531 L 7.871094 -1.296875 L 10.148438 -10.566406 L 24.761719 -10.566406 L 27.113281 -1.304688 L 27.121094 -1.269531 C 27.09375 -1.398438 27 -1.53125 26.84375 -1.667969 C 26.644531 -1.839844 26.4375 -1.929688 26.222656 -1.929688 Z M 19.46875 -15.359375 L 15.582031 -32.144531 L 17.460938 -32.578125 L 19.339844 -32.144531 L 15.453125 -15.359375 L 13.574219 -15.796875 L 13.574219 -17.722656 L 21.347656 -17.722656 L 21.347656 -15.796875 Z M 23.773438 -13.867188 L 11.148438 -13.867188 L 15.582031 -33.011719 L 19.339844 -33.011719 L 23.226562 -16.230469 Z M 23.773438 -13.867188 "/></g></g><g style="fill:#b21a22;fill-opacity:1;"><g transform="translate(79.212822, 168.731459)"><path style="stroke:none" d="M 38.007812 -45.121094 L 43.808594 -45.121094 C 44.832031 -45.121094 45.632812 -44.800781 46.210938 -44.160156 C 46.808594 -43.496094 47.035156 -42.652344 46.890625 -41.621094 L 40.964844 -0.832031 C 40.820312 0.0390625 40.445312 0.722656 39.847656 1.214844 C 39.265625 1.691406 38.550781 1.929688 37.699219 1.929688 L 31.035156 1.929688 C 30.226562 1.929688 29.53125 1.691406 28.949219 1.214844 C 28.410156 0.773438 28.03125 0.167969 27.820312 -0.59375 L 27.808594 -0.640625 L 22.121094 -25.984375 L 24 -26.410156 L 25.882812 -25.980469 L 20.144531 -0.683594 C 19.964844 0.113281 19.59375 0.746094 19.023438 1.214844 C 18.441406 1.691406 17.734375 1.929688 16.90625 1.929688 L 10.117188 1.929688 C 9.25 1.929688 8.519531 1.675781 7.933594 1.167969 C 7.351562 0.664062 6.992188 -0.015625 6.855469 -0.871094 L 1.175781 -41.628906 C 1.027344 -42.652344 1.253906 -43.496094 1.855469 -44.160156 C 2.433594 -44.800781 3.234375 -45.121094 4.257812 -45.121094 L 10.058594 -45.121094 C 10.921875 -45.121094 11.648438 -44.855469 12.230469 -44.328125 C 12.78125 -43.828125 13.125 -43.160156 13.257812 -42.320312 L 13.265625 -42.28125 L 16.292969 -16.453125 L 14.375 -16.226562 L 14.375 -18.15625 L 14.683594 -18.15625 L 14.683594 -16.226562 L 12.808594 -16.664062 L 18.867188 -42.632812 L 18.882812 -42.6875 C 19.101562 -43.4375 19.492188 -44.023438 20.046875 -44.453125 C 20.621094 -44.898438 21.300781 -45.121094 22.089844 -45.121094 L 25.851562 -45.121094 C 26.640625 -45.121094 27.324219 -44.898438 27.894531 -44.453125 C 28.453125 -44.023438 28.839844 -43.4375 29.058594 -42.6875 L 29.074219 -42.632812 L 35.136719 -16.664062 L 33.257812 -16.226562 L 33.257812 -18.15625 L 33.566406 -18.15625 L 33.566406 -16.226562 L 31.652344 -16.460938 L 34.800781 -42.285156 L 34.808594 -42.320312 C 34.941406 -43.160156 35.28125 -43.828125 35.835938 -44.328125 C 36.417969 -44.855469 37.144531 -45.121094 38.007812 -45.121094 Z M 38.007812 -41.261719 C 38.132812 -41.261719 38.269531 -41.332031 38.421875 -41.46875 C 38.503906 -41.542969 38.566406 -41.621094 38.605469 -41.707031 C 38.613281 -41.722656 38.621094 -41.738281 38.625 -41.75 C 38.621094 -41.746094 38.621094 -41.734375 38.617188 -41.71875 L 36.710938 -42.019531 L 38.625 -41.785156 L 35.273438 -14.300781 L 31.726562 -14.300781 L 25.332031 -41.703125 L 27.210938 -42.140625 L 25.359375 -41.597656 C 25.359375 -41.609375 25.355469 -41.613281 25.355469 -41.617188 C 25.359375 -41.605469 25.367188 -41.589844 25.375 -41.578125 C 25.414062 -41.511719 25.46875 -41.457031 25.539062 -41.402344 C 25.660156 -41.308594 25.765625 -41.261719 25.851562 -41.261719 L 22.089844 -41.261719 C 22.179688 -41.261719 22.285156 -41.308594 22.40625 -41.402344 C 22.472656 -41.457031 22.527344 -41.511719 22.566406 -41.578125 C 22.574219 -41.589844 22.582031 -41.605469 22.585938 -41.617188 C 22.585938 -41.613281 22.585938 -41.609375 22.582031 -41.597656 L 20.730469 -42.140625 L 22.609375 -41.703125 L 16.214844 -14.300781 L 12.660156 -14.300781 L 9.4375 -41.792969 L 11.351562 -42.019531 L 9.449219 -41.71875 C 9.445312 -41.734375 9.445312 -41.746094 9.441406 -41.75 C 9.445312 -41.738281 9.453125 -41.722656 9.460938 -41.707031 C 9.5 -41.621094 9.5625 -41.542969 9.644531 -41.46875 C 9.792969 -41.332031 9.933594 -41.261719 10.058594 -41.261719 L 4.257812 -41.261719 C 4.234375 -41.261719 4.214844 -41.261719 4.207031 -41.261719 C 4.226562 -41.265625 4.253906 -41.269531 4.285156 -41.28125 C 4.441406 -41.332031 4.585938 -41.429688 4.714844 -41.574219 C 4.851562 -41.726562 4.941406 -41.890625 4.976562 -42.074219 C 4.988281 -42.117188 4.992188 -42.152344 4.992188 -42.1875 C 4.992188 -42.191406 4.992188 -42.191406 4.992188 -42.191406 C 4.992188 -42.1875 4.992188 -42.175781 4.996094 -42.160156 L 10.667969 -1.472656 C 10.667969 -1.460938 10.667969 -1.453125 10.671875 -1.453125 C 10.664062 -1.46875 10.65625 -1.488281 10.648438 -1.507812 C 10.601562 -1.597656 10.539062 -1.679688 10.453125 -1.753906 C 10.367188 -1.828125 10.273438 -1.878906 10.175781 -1.910156 C 10.152344 -1.917969 10.128906 -1.925781 10.109375 -1.929688 L 16.90625 -1.929688 C 16.816406 -1.929688 16.707031 -1.875 16.578125 -1.769531 C 16.503906 -1.707031 16.441406 -1.636719 16.402344 -1.5625 C 16.390625 -1.542969 16.382812 -1.527344 16.378906 -1.511719 C 16.378906 -1.511719 16.378906 -1.523438 16.382812 -1.539062 L 22.121094 -26.835938 L 25.882812 -26.832031 L 31.558594 -1.53125 L 29.679688 -1.109375 L 31.535156 -1.625 C 31.542969 -1.609375 31.546875 -1.59375 31.550781 -1.585938 C 31.546875 -1.589844 31.542969 -1.597656 31.539062 -1.609375 C 31.503906 -1.664062 31.457031 -1.71875 31.394531 -1.769531 C 31.265625 -1.875 31.144531 -1.929688 31.035156 -1.929688 L 37.699219 -1.929688 C 37.710938 -1.929688 37.722656 -1.929688 37.722656 -1.929688 C 37.710938 -1.925781 37.691406 -1.921875 37.671875 -1.917969 C 37.578125 -1.890625 37.488281 -1.839844 37.402344 -1.769531 C 37.257812 -1.648438 37.171875 -1.519531 37.148438 -1.386719 L 43.070312 -42.167969 C 43.074219 -42.179688 43.074219 -42.1875 43.074219 -42.191406 C 43.074219 -42.191406 43.074219 -42.191406 43.074219 -42.1875 C 43.074219 -42.152344 43.078125 -42.117188 43.089844 -42.074219 C 43.125 -41.890625 43.210938 -41.726562 43.351562 -41.574219 C 43.480469 -41.429688 43.621094 -41.332031 43.78125 -41.28125 C 43.8125 -41.269531 43.835938 -41.265625 43.859375 -41.261719 C 43.847656 -41.261719 43.832031 -41.261719 43.808594 -41.261719 Z M 38.007812 -41.261719 "/></g></g><g style="fill:#b21a22;fill-opacity:1;"><g transform="translate(126.522931, 168.731459)"><path style="stroke:none" d="M 29.632812 -42.203125 L 29.632812 -36.035156 C 29.632812 -35.175781 29.375 -34.472656 28.863281 -33.925781 C 28.316406 -33.347656 27.601562 -33.054688 26.714844 -33.054688 L 11.476562 -33.054688 L 11.476562 -34.984375 L 13.40625 -34.984375 L 13.40625 -25.484375 L 11.476562 -25.484375 L 11.476562 -27.410156 L 23.078125 -27.410156 C 23.960938 -27.410156 24.675781 -27.121094 25.222656 -26.542969 C 25.734375 -25.996094 25.992188 -25.292969 25.992188 -24.433594 L 25.992188 -18.324219 C 25.992188 -17.464844 25.734375 -16.761719 25.222656 -16.21875 C 24.675781 -15.636719 23.960938 -15.347656 23.078125 -15.347656 L 11.476562 -15.347656 L 11.476562 -17.277344 L 13.40625 -17.277344 L 13.40625 -8.144531 L 11.476562 -8.144531 L 11.476562 -10.074219 L 26.714844 -10.074219 C 27.578125 -10.074219 28.28125 -9.800781 28.820312 -9.261719 C 29.363281 -8.71875 29.632812 -8.019531 29.632812 -7.15625 L 29.632812 -0.988281 C 29.632812 -0.125 29.363281 0.574219 28.820312 1.117188 C 28.28125 1.65625 27.578125 1.929688 26.714844 1.929688 L 4.011719 1.929688 C 3.144531 1.929688 2.445312 1.644531 1.910156 1.070312 C 1.40625 0.535156 1.15625 -0.148438 1.15625 -0.988281 L 1.15625 -42.203125 C 1.15625 -43.042969 1.40625 -43.726562 1.910156 -44.261719 C 2.445312 -44.832031 3.144531 -45.121094 4.011719 -45.121094 L 26.714844 -45.121094 C 27.578125 -45.121094 28.28125 -44.847656 28.820312 -44.308594 C 29.363281 -43.765625 29.632812 -43.066406 29.632812 -42.203125 Z M 25.777344 -42.203125 C 25.777344 -42.160156 25.789062 -42.101562 25.8125 -42.027344 C 25.867188 -41.863281 25.960938 -41.714844 26.09375 -41.582031 C 26.226562 -41.449219 26.375 -41.355469 26.539062 -41.300781 C 26.613281 -41.273438 26.671875 -41.261719 26.714844 -41.261719 L 4.011719 -41.261719 C 4.257812 -41.261719 4.496094 -41.382812 4.722656 -41.625 C 4.847656 -41.757812 4.933594 -41.902344 4.984375 -42.0625 C 5.003906 -42.125 5.011719 -42.171875 5.011719 -42.203125 L 5.011719 -0.988281 C 5.011719 -1.019531 5.003906 -1.066406 4.984375 -1.128906 C 4.933594 -1.289062 4.847656 -1.433594 4.722656 -1.566406 C 4.496094 -1.808594 4.257812 -1.929688 4.011719 -1.929688 L 26.714844 -1.929688 C 26.671875 -1.929688 26.613281 -1.914062 26.539062 -1.890625 C 26.375 -1.835938 26.226562 -1.742188 26.09375 -1.609375 C 25.960938 -1.476562 25.867188 -1.328125 25.8125 -1.164062 C 25.789062 -1.089844 25.777344 -1.03125 25.777344 -0.988281 L 25.777344 -7.15625 C 25.777344 -7.113281 25.789062 -7.054688 25.8125 -6.980469 C 25.867188 -6.816406 25.960938 -6.667969 26.09375 -6.535156 C 26.226562 -6.402344 26.375 -6.308594 26.539062 -6.253906 C 26.613281 -6.230469 26.671875 -6.214844 26.714844 -6.214844 L 9.546875 -6.214844 L 9.546875 -19.203125 L 23.078125 -19.203125 C 23.019531 -19.203125 22.949219 -19.191406 22.863281 -19.160156 C 22.695312 -19.097656 22.542969 -19 22.414062 -18.859375 C 22.292969 -18.734375 22.210938 -18.59375 22.160156 -18.445312 C 22.144531 -18.386719 22.136719 -18.347656 22.136719 -18.324219 L 22.136719 -24.433594 C 22.136719 -24.410156 22.144531 -24.371094 22.160156 -24.316406 C 22.210938 -24.164062 22.292969 -24.027344 22.414062 -23.898438 C 22.542969 -23.757812 22.695312 -23.660156 22.863281 -23.597656 C 22.949219 -23.570312 23.019531 -23.554688 23.078125 -23.554688 L 9.546875 -23.554688 L 9.546875 -36.914062 L 26.714844 -36.914062 C 26.660156 -36.914062 26.589844 -36.898438 26.503906 -36.867188 C 26.335938 -36.808594 26.183594 -36.707031 26.054688 -36.570312 C 25.933594 -36.441406 25.847656 -36.300781 25.800781 -36.152344 C 25.785156 -36.09375 25.777344 -36.054688 25.777344 -36.035156 Z M 25.777344 -42.203125 "/></g></g><g style="fill:#b21a22;fill-opacity:1;"><g transform="translate(157.302253, 168.731459)"><path style="stroke:none" d="M 11.96875 -45.121094 L 18.878906 -45.121094 C 22.332031 -45.121094 25 -44.179688 26.878906 -42.300781 C 28.753906 -40.425781 29.695312 -37.757812 29.695312 -34.304688 L 29.695312 -30.234375 C 29.695312 -29.371094 29.421875 -28.671875 28.882812 -28.128906 C 28.339844 -27.589844 27.640625 -27.316406 26.777344 -27.316406 L 20.546875 -27.316406 C 19.683594 -27.316406 18.984375 -27.589844 18.441406 -28.128906 C 17.902344 -28.671875 17.632812 -29.371094 17.632812 -30.234375 L 17.632812 -32.824219 C 17.632812 -33.027344 17.613281 -33.183594 17.574219 -33.296875 C 17.570312 -33.316406 17.5625 -33.328125 17.558594 -33.335938 C 17.5625 -33.328125 17.570312 -33.320312 17.578125 -33.3125 C 17.589844 -33.304688 17.597656 -33.296875 17.601562 -33.292969 C 17.59375 -33.296875 17.582031 -33.304688 17.5625 -33.308594 C 17.449219 -33.347656 17.292969 -33.363281 17.089844 -33.363281 L 13.699219 -33.363281 C 13.496094 -33.363281 13.339844 -33.347656 13.226562 -33.308594 C 13.207031 -33.304688 13.195312 -33.296875 13.1875 -33.292969 C 13.191406 -33.296875 13.199219 -33.304688 13.210938 -33.3125 C 13.21875 -33.320312 13.226562 -33.328125 13.230469 -33.335938 C 13.226562 -33.328125 13.21875 -33.316406 13.214844 -33.296875 C 13.175781 -33.183594 13.15625 -33.027344 13.15625 -32.824219 L 13.15625 -27.582031 L 11.230469 -27.582031 L 11.820312 -29.414062 L 26.753906 -24.601562 C 27.707031 -24.273438 28.4375 -23.75 28.941406 -23.027344 C 29.445312 -22.316406 29.695312 -21.46875 29.695312 -20.484375 L 29.695312 -8.886719 C 29.695312 -5.476562 28.757812 -2.824219 26.886719 -0.929688 C 25.007812 0.976562 22.339844 1.929688 18.878906 1.929688 L 11.96875 1.929688 C 8.558594 1.929688 5.902344 0.980469 4.003906 -0.917969 C 2.105469 -2.816406 1.15625 -5.472656 1.15625 -8.886719 L 1.15625 -12.894531 C 1.15625 -13.757812 1.425781 -14.457031 1.96875 -15 C 2.507812 -15.539062 3.210938 -15.8125 4.074219 -15.8125 L 10.304688 -15.8125 C 11.164062 -15.8125 11.867188 -15.539062 12.40625 -15 C 12.949219 -14.457031 13.21875 -13.757812 13.21875 -12.894531 L 13.21875 -10.304688 C 13.21875 -10.101562 13.238281 -9.945312 13.273438 -9.835938 C 13.28125 -9.8125 13.289062 -9.800781 13.292969 -9.792969 C 13.289062 -9.800781 13.28125 -9.808594 13.273438 -9.816406 C 13.261719 -9.824219 13.253906 -9.832031 13.246094 -9.835938 C 13.253906 -9.832031 13.269531 -9.828125 13.289062 -9.820312 C 13.398438 -9.78125 13.558594 -9.765625 13.757812 -9.765625 L 17.089844 -9.765625 C 17.292969 -9.765625 17.449219 -9.78125 17.5625 -9.820312 C 17.582031 -9.828125 17.59375 -9.832031 17.601562 -9.835938 C 17.597656 -9.832031 17.589844 -9.824219 17.578125 -9.816406 C 17.570312 -9.808594 17.5625 -9.800781 17.558594 -9.792969 C 17.5625 -9.800781 17.570312 -9.8125 17.574219 -9.835938 C 17.613281 -9.945312 17.632812 -10.101562 17.632812 -10.304688 L 17.632812 -16.535156 L 19.558594 -16.535156 L 18.964844 -14.703125 L 4.15625 -19.515625 C 3.199219 -19.832031 2.464844 -20.347656 1.945312 -21.058594 C 1.417969 -21.78125 1.15625 -22.636719 1.15625 -23.632812 L 1.15625 -34.304688 C 1.15625 -37.765625 2.109375 -40.433594 4.015625 -42.3125 C 5.910156 -44.183594 8.5625 -45.121094 11.96875 -45.121094 Z M 11.96875 -41.261719 C 9.617188 -41.261719 7.867188 -40.695312 6.722656 -39.566406 C 5.582031 -38.441406 5.011719 -36.6875 5.011719 -34.304688 L 5.011719 -23.632812 C 5.011719 -23.476562 5.027344 -23.375 5.058594 -23.332031 C 5.09375 -23.285156 5.191406 -23.234375 5.347656 -23.183594 L 21.488281 -17.9375 L 21.488281 -10.304688 C 21.488281 -8.949219 21.09375 -7.878906 20.304688 -7.089844 C 19.519531 -6.300781 18.445312 -5.90625 17.089844 -5.90625 L 13.757812 -5.90625 C 12.402344 -5.90625 11.332031 -6.300781 10.542969 -7.089844 C 9.757812 -7.878906 9.363281 -8.949219 9.363281 -10.304688 L 9.363281 -12.894531 C 9.363281 -12.851562 9.375 -12.792969 9.398438 -12.71875 C 9.457031 -12.554688 9.546875 -12.40625 9.679688 -12.273438 C 9.8125 -12.140625 9.960938 -12.046875 10.125 -11.992188 C 10.199219 -11.96875 10.261719 -11.953125 10.304688 -11.953125 L 4.074219 -11.953125 C 4.117188 -11.953125 4.175781 -11.96875 4.25 -11.992188 C 4.414062 -12.046875 4.5625 -12.140625 4.695312 -12.273438 C 4.828125 -12.40625 4.921875 -12.554688 4.976562 -12.71875 C 5 -12.792969 5.011719 -12.851562 5.011719 -12.894531 L 5.011719 -8.886719 C 5.011719 -6.539062 5.585938 -4.792969 6.730469 -3.644531 C 7.878906 -2.5 9.625 -1.929688 11.96875 -1.929688 L 18.878906 -1.929688 C 21.261719 -1.929688 23.015625 -2.496094 24.140625 -3.636719 C 25.273438 -4.785156 25.835938 -6.53125 25.835938 -8.886719 L 25.835938 -20.484375 C 25.835938 -20.652344 25.820312 -20.761719 25.785156 -20.8125 C 25.757812 -20.851562 25.6875 -20.890625 25.570312 -20.933594 L 9.300781 -26.175781 L 9.300781 -32.824219 C 9.300781 -34.179688 9.695312 -35.25 10.484375 -36.039062 C 11.269531 -36.828125 12.34375 -37.222656 13.699219 -37.222656 L 17.089844 -37.222656 C 18.445312 -37.222656 19.519531 -36.828125 20.304688 -36.039062 C 21.09375 -35.25 21.488281 -34.179688 21.488281 -32.824219 L 21.488281 -30.234375 C 21.488281 -30.277344 21.476562 -30.335938 21.449219 -30.410156 C 21.394531 -30.574219 21.300781 -30.722656 21.167969 -30.855469 C 21.039062 -30.988281 20.890625 -31.082031 20.722656 -31.136719 C 20.648438 -31.164062 20.589844 -31.175781 20.546875 -31.175781 L 26.777344 -31.175781 C 26.734375 -31.175781 26.675781 -31.164062 26.601562 -31.136719 C 26.4375 -31.082031 26.289062 -30.988281 26.15625 -30.855469 C 26.023438 -30.722656 25.929688 -30.574219 25.875 -30.410156 C 25.851562 -30.335938 25.835938 -30.277344 25.835938 -30.234375 L 25.835938 -34.304688 C 25.835938 -36.695312 25.273438 -38.449219 24.148438 -39.574219 C 23.023438 -40.699219 21.269531 -41.261719 18.878906 -41.261719 Z M 11.96875 -41.261719 "/></g></g><g style="fill:#b21a22;fill-opacity:1;"><g transform="translate(188.143267, 168.731459)"><path style="stroke:none" d="M 1.15625 -8.886719 L 1.15625 -34.304688 C 1.15625 -37.765625 2.109375 -40.433594 4.015625 -42.3125 C 5.910156 -44.183594 8.5625 -45.121094 11.96875 -45.121094 L 18.878906 -45.121094 C 22.332031 -45.121094 25 -44.179688 26.878906 -42.300781 C 28.753906 -40.425781 29.695312 -37.757812 29.695312 -34.304688 L 29.695312 -8.886719 C 29.695312 -5.476562 28.757812 -2.824219 26.886719 -0.929688 C 25.007812 0.976562 22.339844 1.929688 18.878906 1.929688 L 11.96875 1.929688 C 8.558594 1.929688 5.902344 0.980469 4.003906 -0.917969 C 2.105469 -2.816406 1.15625 -5.472656 1.15625 -8.886719 Z M 5.011719 -8.886719 C 5.011719 -6.539062 5.585938 -4.792969 6.730469 -3.644531 C 7.878906 -2.5 9.625 -1.929688 11.96875 -1.929688 L 18.878906 -1.929688 C 21.261719 -1.929688 23.015625 -2.496094 24.140625 -3.636719 C 25.273438 -4.785156 25.835938 -6.53125 25.835938 -8.886719 L 25.835938 -34.304688 C 25.835938 -36.695312 25.273438 -38.449219 24.148438 -39.574219 C 23.023438 -40.699219 21.269531 -41.261719 18.878906 -41.261719 L 11.96875 -41.261719 C 9.617188 -41.261719 7.867188 -40.695312 6.722656 -39.566406 C 5.582031 -38.441406 5.011719 -36.6875 5.011719 -34.304688 Z M 13.574219 -9.886719 L 17.523438 -9.886719 C 17.726562 -9.886719 17.882812 -9.90625 17.992188 -9.941406 C 18.011719 -9.949219 18.027344 -9.957031 18.035156 -9.960938 C 18.027344 -9.957031 18.019531 -9.949219 18.011719 -9.941406 C 18 -9.929688 17.996094 -9.921875 17.992188 -9.914062 C 17.996094 -9.921875 18 -9.9375 18.007812 -9.957031 C 18.042969 -10.066406 18.0625 -10.226562 18.0625 -10.425781 L 18.0625 -32.761719 C 18.0625 -32.964844 18.042969 -33.121094 18.007812 -33.234375 C 18 -33.253906 17.996094 -33.269531 17.992188 -33.273438 C 17.996094 -33.269531 18 -33.261719 18.011719 -33.25 C 18.019531 -33.242188 18.027344 -33.234375 18.035156 -33.230469 C 18.027344 -33.234375 18.011719 -33.242188 17.992188 -33.246094 C 17.882812 -33.285156 17.726562 -33.304688 17.523438 -33.304688 L 13.574219 -33.304688 C 13.371094 -33.304688 13.214844 -33.285156 13.105469 -33.246094 C 13.082031 -33.242188 13.070312 -33.234375 13.0625 -33.230469 C 13.070312 -33.234375 13.078125 -33.242188 13.085938 -33.25 C 13.097656 -33.261719 13.101562 -33.269531 13.105469 -33.273438 C 13.101562 -33.269531 13.097656 -33.253906 13.089844 -33.234375 C 13.054688 -33.121094 13.035156 -32.964844 13.035156 -32.761719 L 13.035156 -10.425781 C 13.035156 -10.226562 13.054688 -10.066406 13.089844 -9.957031 C 13.097656 -9.9375 13.101562 -9.921875 13.105469 -9.914062 C 13.101562 -9.921875 13.097656 -9.929688 13.085938 -9.941406 C 13.078125 -9.949219 13.070312 -9.957031 13.0625 -9.960938 C 13.070312 -9.957031 13.082031 -9.949219 13.105469 -9.941406 C 13.214844 -9.90625 13.371094 -9.886719 13.574219 -9.886719 Z M 13.574219 -6.03125 C 12.21875 -6.03125 11.148438 -6.425781 10.359375 -7.214844 C 9.570312 -8 9.179688 -9.074219 9.179688 -10.425781 L 9.179688 -32.761719 C 9.179688 -34.117188 9.570312 -35.191406 10.359375 -35.976562 C 11.148438 -36.765625 12.21875 -37.160156 13.574219 -37.160156 L 17.523438 -37.160156 C 18.878906 -37.160156 19.949219 -36.765625 20.738281 -35.976562 C 21.527344 -35.191406 21.917969 -34.117188 21.917969 -32.761719 L 21.917969 -10.425781 C 21.917969 -9.074219 21.527344 -8 20.738281 -7.214844 C 19.949219 -6.425781 18.878906 -6.03125 17.523438 -6.03125 Z M 13.574219 -6.03125 "/></g></g><g style="fill:#b21a22;fill-opacity:1;"><g transform="translate(218.984281, 168.731459)"><path style="stroke:none" d="M 28.875 -45.121094 L 37.019531 -45.121094 C 37.964844 -45.121094 38.726562 -44.828125 39.308594 -44.246094 C 39.890625 -43.664062 40.183594 -42.902344 40.183594 -41.957031 L 40.183594 -1.234375 C 40.183594 -0.289062 39.890625 0.472656 39.308594 1.054688 C 38.726562 1.636719 37.964844 1.929688 37.019531 1.929688 L 31.28125 1.929688 C 30.339844 1.929688 29.574219 1.636719 28.992188 1.054688 C 28.410156 0.472656 28.121094 -0.289062 28.121094 -1.234375 L 28.121094 -25.484375 L 30.046875 -25.484375 L 30.046875 -23.554688 L 29.617188 -23.554688 L 29.617188 -25.484375 L 31.492188 -25.039062 L 25.679688 -0.554688 L 25.667969 -0.503906 C 25.445312 0.246094 25.058594 0.835938 24.503906 1.261719 C 23.929688 1.707031 23.246094 1.929688 22.460938 1.929688 L 18.820312 1.929688 C 18.03125 1.929688 17.347656 1.707031 16.777344 1.261719 C 16.21875 0.835938 15.832031 0.246094 15.613281 -0.503906 L 15.597656 -0.554688 L 9.785156 -25.039062 L 11.660156 -25.484375 L 11.660156 -23.554688 L 11.230469 -23.554688 L 11.230469 -25.484375 L 13.15625 -25.484375 L 13.15625 -1.234375 C 13.15625 -0.289062 12.867188 0.472656 12.285156 1.054688 C 11.703125 1.636719 10.941406 1.929688 9.996094 1.929688 L 4.320312 1.929688 C 3.375 1.929688 2.613281 1.636719 2.03125 1.054688 C 1.449219 0.472656 1.15625 -0.289062 1.15625 -1.234375 L 1.15625 -41.957031 C 1.15625 -42.902344 1.449219 -43.664062 2.03125 -44.246094 C 2.613281 -44.828125 3.375 -45.121094 4.320312 -45.121094 L 12.464844 -45.121094 C 13.253906 -45.121094 13.933594 -44.898438 14.507812 -44.453125 C 15.0625 -44.023438 15.449219 -43.4375 15.671875 -42.6875 L 15.683594 -42.648438 L 22.542969 -15.089844 L 20.671875 -14.625 L 18.796875 -15.089844 L 25.65625 -42.648438 L 25.667969 -42.6875 C 25.890625 -43.4375 26.277344 -44.023438 26.832031 -44.453125 C 27.40625 -44.898438 28.085938 -45.121094 28.875 -45.121094 Z M 28.875 -41.261719 C 28.964844 -41.261719 29.070312 -41.308594 29.191406 -41.402344 C 29.257812 -41.457031 29.3125 -41.511719 29.351562 -41.578125 C 29.363281 -41.589844 29.371094 -41.605469 29.375 -41.617188 C 29.375 -41.613281 29.371094 -41.609375 29.367188 -41.597656 L 27.519531 -42.140625 L 29.390625 -41.675781 L 22.542969 -14.15625 L 18.796875 -14.15625 L 11.949219 -41.675781 L 13.820312 -42.140625 L 11.972656 -41.597656 C 11.96875 -41.609375 11.964844 -41.613281 11.964844 -41.617188 C 11.96875 -41.605469 11.976562 -41.589844 11.988281 -41.578125 C 12.027344 -41.511719 12.082031 -41.457031 12.148438 -41.402344 C 12.269531 -41.308594 12.375 -41.261719 12.464844 -41.261719 L 4.320312 -41.261719 C 4.308594 -41.261719 4.304688 -41.261719 4.296875 -41.261719 C 4.296875 -41.261719 4.300781 -41.261719 4.300781 -41.261719 C 4.328125 -41.265625 4.355469 -41.273438 4.390625 -41.285156 C 4.523438 -41.328125 4.644531 -41.40625 4.757812 -41.519531 C 4.867188 -41.628906 4.945312 -41.753906 4.992188 -41.886719 C 5.003906 -41.921875 5.007812 -41.949219 5.011719 -41.972656 C 5.015625 -41.976562 5.015625 -41.976562 5.015625 -41.976562 C 5.011719 -41.972656 5.011719 -41.964844 5.011719 -41.957031 L 5.011719 -1.234375 C 5.011719 -1.226562 5.011719 -1.21875 5.015625 -1.210938 C 5.015625 -1.214844 5.015625 -1.214844 5.011719 -1.21875 C 5.007812 -1.242188 5.003906 -1.269531 4.992188 -1.304688 C 4.945312 -1.4375 4.867188 -1.558594 4.757812 -1.671875 C 4.644531 -1.785156 4.523438 -1.863281 4.390625 -1.90625 C 4.355469 -1.917969 4.328125 -1.925781 4.300781 -1.929688 C 4.300781 -1.929688 4.296875 -1.929688 4.296875 -1.929688 C 4.304688 -1.929688 4.308594 -1.929688 4.320312 -1.929688 L 9.996094 -1.929688 C 10.003906 -1.929688 10.011719 -1.929688 10.015625 -1.929688 C 10.015625 -1.929688 10.015625 -1.929688 10.011719 -1.929688 C 9.988281 -1.925781 9.957031 -1.917969 9.925781 -1.90625 C 9.792969 -1.863281 9.667969 -1.785156 9.558594 -1.671875 C 9.445312 -1.558594 9.367188 -1.4375 9.324219 -1.304688 C 9.3125 -1.269531 9.304688 -1.242188 9.300781 -1.21875 C 9.300781 -1.214844 9.300781 -1.214844 9.300781 -1.210938 C 9.300781 -1.21875 9.300781 -1.226562 9.300781 -1.234375 L 9.300781 -27.410156 L 13.1875 -27.410156 L 19.335938 -1.496094 L 17.460938 -1.050781 L 19.3125 -1.59375 C 19.3125 -1.582031 19.316406 -1.578125 19.316406 -1.574219 C 19.3125 -1.585938 19.304688 -1.597656 19.296875 -1.613281 C 19.257812 -1.679688 19.203125 -1.734375 19.132812 -1.789062 C 19.011719 -1.882812 18.90625 -1.929688 18.820312 -1.929688 L 22.460938 -1.929688 C 22.371094 -1.929688 22.265625 -1.882812 22.144531 -1.789062 C 22.074219 -1.734375 22.023438 -1.679688 21.984375 -1.613281 C 21.972656 -1.597656 21.964844 -1.585938 21.960938 -1.574219 C 21.960938 -1.578125 21.964844 -1.582031 21.96875 -1.59375 L 23.816406 -1.050781 L 21.941406 -1.496094 L 28.09375 -27.410156 L 31.976562 -27.410156 L 31.976562 -1.234375 C 31.976562 -1.226562 31.976562 -1.21875 31.976562 -1.210938 C 31.976562 -1.214844 31.976562 -1.214844 31.976562 -1.21875 C 31.972656 -1.242188 31.964844 -1.269531 31.957031 -1.304688 C 31.910156 -1.4375 31.832031 -1.558594 31.71875 -1.671875 C 31.609375 -1.785156 31.484375 -1.863281 31.351562 -1.90625 C 31.320312 -1.917969 31.289062 -1.925781 31.265625 -1.929688 C 31.261719 -1.929688 31.261719 -1.929688 31.261719 -1.929688 C 31.265625 -1.929688 31.273438 -1.929688 31.28125 -1.929688 L 37.019531 -1.929688 C 37.03125 -1.929688 37.035156 -1.929688 37.042969 -1.929688 C 37.042969 -1.929688 37.039062 -1.929688 37.039062 -1.929688 C 37.011719 -1.925781 36.984375 -1.917969 36.949219 -1.90625 C 36.816406 -1.863281 36.695312 -1.785156 36.582031 -1.671875 C 36.472656 -1.558594 36.394531 -1.4375 36.347656 -1.304688 C 36.335938 -1.269531 36.332031 -1.242188 36.328125 -1.21875 C 36.328125 -1.214844 36.324219 -1.214844 36.324219 -1.210938 C 36.328125 -1.21875 36.328125 -1.226562 36.328125 -1.234375 L 36.328125 -41.957031 C 36.328125 -41.964844 36.328125 -41.972656 36.324219 -41.976562 C 36.324219 -41.976562 36.328125 -41.976562 36.328125 -41.972656 C 36.332031 -41.949219 36.335938 -41.921875 36.347656 -41.886719 C 36.394531 -41.753906 36.472656 -41.628906 36.582031 -41.519531 C 36.695312 -41.40625 36.816406 -41.328125 36.949219 -41.285156 C 36.984375 -41.273438 37.011719 -41.265625 37.039062 -41.261719 C 37.039062 -41.261719 37.042969 -41.261719 37.042969 -41.261719 C 37.035156 -41.261719 37.03125 -41.261719 37.019531 -41.261719 Z M 28.875 -41.261719 "/></g></g><g style="fill:#b21a22;fill-opacity:1;"><g transform="translate(260.311233, 168.731459)"><path style="stroke:none" d="M 29.632812 -42.203125 L 29.632812 -36.035156 C 29.632812 -35.175781 29.375 -34.472656 28.863281 -33.925781 C 28.316406 -33.347656 27.601562 -33.054688 26.714844 -33.054688 L 11.476562 -33.054688 L 11.476562 -34.984375 L 13.40625 -34.984375 L 13.40625 -25.484375 L 11.476562 -25.484375 L 11.476562 -27.410156 L 23.078125 -27.410156 C 23.960938 -27.410156 24.675781 -27.121094 25.222656 -26.542969 C 25.734375 -25.996094 25.992188 -25.292969 25.992188 -24.433594 L 25.992188 -18.324219 C 25.992188 -17.464844 25.734375 -16.761719 25.222656 -16.21875 C 24.675781 -15.636719 23.960938 -15.347656 23.078125 -15.347656 L 11.476562 -15.347656 L 11.476562 -17.277344 L 13.40625 -17.277344 L 13.40625 -8.144531 L 11.476562 -8.144531 L 11.476562 -10.074219 L 26.714844 -10.074219 C 27.578125 -10.074219 28.28125 -9.800781 28.820312 -9.261719 C 29.363281 -8.71875 29.632812 -8.019531 29.632812 -7.15625 L 29.632812 -0.988281 C 29.632812 -0.125 29.363281 0.574219 28.820312 1.117188 C 28.28125 1.65625 27.578125 1.929688 26.714844 1.929688 L 4.011719 1.929688 C 3.144531 1.929688 2.445312 1.644531 1.910156 1.070312 C 1.40625 0.535156 1.15625 -0.148438 1.15625 -0.988281 L 1.15625 -42.203125 C 1.15625 -43.042969 1.40625 -43.726562 1.910156 -44.261719 C 2.445312 -44.832031 3.144531 -45.121094 4.011719 -45.121094 L 26.714844 -45.121094 C 27.578125 -45.121094 28.28125 -44.847656 28.820312 -44.308594 C 29.363281 -43.765625 29.632812 -43.066406 29.632812 -42.203125 Z M 25.777344 -42.203125 C 25.777344 -42.160156 25.789062 -42.101562 25.8125 -42.027344 C 25.867188 -41.863281 25.960938 -41.714844 26.09375 -41.582031 C 26.226562 -41.449219 26.375 -41.355469 26.539062 -41.300781 C 26.613281 -41.273438 26.671875 -41.261719 26.714844 -41.261719 L 4.011719 -41.261719 C 4.257812 -41.261719 4.496094 -41.382812 4.722656 -41.625 C 4.847656 -41.757812 4.933594 -41.902344 4.984375 -42.0625 C 5.003906 -42.125 5.011719 -42.171875 5.011719 -42.203125 L 5.011719 -0.988281 C 5.011719 -1.019531 5.003906 -1.066406 4.984375 -1.128906 C 4.933594 -1.289062 4.847656 -1.433594 4.722656 -1.566406 C 4.496094 -1.808594 4.257812 -1.929688 4.011719 -1.929688 L 26.714844 -1.929688 C 26.671875 -1.929688 26.613281 -1.914062 26.539062 -1.890625 C 26.375 -1.835938 26.226562 -1.742188 26.09375 -1.609375 C 25.960938 -1.476562 25.867188 -1.328125 25.8125 -1.164062 C 25.789062 -1.089844 25.777344 -1.03125 25.777344 -0.988281 L 25.777344 -7.15625 C 25.777344 -7.113281 25.789062 -7.054688 25.8125 -6.980469 C 25.867188 -6.816406 25.960938 -6.667969 26.09375 -6.535156 C 26.226562 -6.402344 26.375 -6.308594 26.539062 -6.253906 C 26.613281 -6.230469 26.671875 -6.214844 26.714844 -6.214844 L 9.546875 -6.214844 L 9.546875 -19.203125 L 23.078125 -19.203125 C 23.019531 -19.203125 22.949219 -19.191406 22.863281 -19.160156 C 22.695312 -19.097656 22.542969 -19 22.414062 -18.859375 C 22.292969 -18.734375 22.210938 -18.59375 22.160156 -18.445312 C 22.144531 -18.386719 22.136719 -18.347656 22.136719 -18.324219 L 22.136719 -24.433594 C 22.136719 -24.410156 22.144531 -24.371094 22.160156 -24.316406 C 22.210938 -24.164062 22.292969 -24.027344 22.414062 -23.898438 C 22.542969 -23.757812 22.695312 -23.660156 22.863281 -23.597656 C 22.949219 -23.570312 23.019531 -23.554688 23.078125 -23.554688 L 9.546875 -23.554688 L 9.546875 -36.914062 L 26.714844 -36.914062 C 26.660156 -36.914062 26.589844 -36.898438 26.503906 -36.867188 C 26.335938 -36.808594 26.183594 -36.707031 26.054688 -36.570312 C 25.933594 -36.441406 25.847656 -36.300781 25.800781 -36.152344 C 25.785156 -36.09375 25.777344 -36.054688 25.777344 -36.035156 Z M 25.777344 -42.203125 "/></g></g><g style="fill:#b21a22;fill-opacity:1;"><g transform="translate(291.090555, 168.731459)"><path style="stroke:none" d="M -1.929688 8.269531 L -1.929688 2.589844 C -1.929688 1.648438 -1.636719 0.882812 -1.054688 0.300781 C -0.472656 -0.28125 0.289062 -0.570312 1.234375 -0.570312 L 38.441406 -0.570312 C 39.382812 -0.570312 40.148438 -0.28125 40.730469 0.300781 C 41.3125 0.882812 41.601562 1.648438 41.601562 2.589844 L 41.601562 8.269531 C 41.601562 9.210938 41.3125 9.976562 40.730469 10.558594 C 40.148438 11.140625 39.382812 11.429688 38.441406 11.429688 L 1.234375 11.429688 C 0.289062 11.429688 -0.472656 11.140625 -1.054688 10.558594 C -1.636719 9.976562 -1.929688 9.210938 -1.929688 8.269531 Z M 1.929688 8.269531 C 1.929688 8.277344 1.929688 8.285156 1.929688 8.289062 C 1.929688 8.289062 1.929688 8.289062 1.929688 8.285156 C 1.925781 8.257812 1.917969 8.230469 1.90625 8.199219 C 1.863281 8.066406 1.785156 7.941406 1.671875 7.828125 C 1.558594 7.71875 1.4375 7.640625 1.304688 7.59375 C 1.269531 7.585938 1.242188 7.578125 1.21875 7.574219 C 1.214844 7.574219 1.214844 7.574219 1.210938 7.574219 C 1.21875 7.574219 1.226562 7.574219 1.234375 7.574219 L 38.441406 7.574219 C 38.449219 7.574219 38.457031 7.574219 38.460938 7.574219 C 38.460938 7.574219 38.460938 7.574219 38.457031 7.574219 C 38.433594 7.578125 38.402344 7.585938 38.371094 7.59375 C 38.238281 7.640625 38.113281 7.71875 38.003906 7.828125 C 37.890625 7.941406 37.8125 8.066406 37.769531 8.199219 C 37.757812 8.230469 37.75 8.257812 37.746094 8.285156 C 37.746094 8.289062 37.746094 8.289062 37.746094 8.289062 C 37.746094 8.285156 37.746094 8.277344 37.746094 8.269531 L 37.746094 2.589844 C 37.746094 2.582031 37.746094 2.574219 37.746094 2.570312 C 37.746094 2.570312 37.746094 2.570312 37.746094 2.574219 C 37.75 2.601562 37.757812 2.628906 37.769531 2.660156 C 37.8125 2.796875 37.890625 2.917969 38.003906 3.03125 C 38.113281 3.140625 38.238281 3.21875 38.371094 3.265625 C 38.402344 3.273438 38.433594 3.28125 38.457031 3.285156 C 38.460938 3.285156 38.460938 3.285156 38.460938 3.285156 C 38.457031 3.285156 38.449219 3.285156 38.441406 3.285156 L 1.234375 3.285156 C 1.226562 3.285156 1.21875 3.285156 1.210938 3.285156 C 1.214844 3.285156 1.214844 3.285156 1.21875 3.285156 C 1.242188 3.28125 1.269531 3.273438 1.304688 3.265625 C 1.4375 3.21875 1.558594 3.140625 1.671875 3.03125 C 1.785156 2.917969 1.863281 2.796875 1.90625 2.660156 C 1.917969 2.628906 1.925781 2.601562 1.929688 2.574219 C 1.929688 2.570312 1.929688 2.570312 1.929688 2.570312 C 1.929688 2.574219 1.929688 2.582031 1.929688 2.589844 Z M 1.929688 8.269531 "/></g></g><g style="fill:#b21a22;fill-opacity:1;"><g transform="translate(92.895533, 254.753873)"><path style="stroke:none" d="M 11.96875 -45.121094 L 18.878906 -45.121094 C 22.332031 -45.121094 25 -44.179688 26.878906 -42.300781 C 28.753906 -40.425781 29.695312 -37.757812 29.695312 -34.304688 L 29.695312 -30.234375 C 29.695312 -29.371094 29.421875 -28.671875 28.882812 -28.128906 C 28.339844 -27.589844 27.640625 -27.316406 26.777344 -27.316406 L 20.546875 -27.316406 C 19.683594 -27.316406 18.984375 -27.589844 18.441406 -28.128906 C 17.902344 -28.671875 17.632812 -29.371094 17.632812 -30.234375 L 17.632812 -32.824219 C 17.632812 -33.027344 17.613281 -33.183594 17.574219 -33.296875 C 17.570312 -33.316406 17.5625 -33.328125 17.558594 -33.335938 C 17.5625 -33.328125 17.570312 -33.320312 17.578125 -33.3125 C 17.589844 -33.304688 17.597656 -33.296875 17.601562 -33.292969 C 17.59375 -33.296875 17.582031 -33.304688 17.5625 -33.308594 C 17.449219 -33.347656 17.292969 -33.363281 17.089844 -33.363281 L 13.699219 -33.363281 C 13.496094 -33.363281 13.339844 -33.347656 13.226562 -33.308594 C 13.207031 -33.304688 13.195312 -33.296875 13.1875 -33.292969 C 13.191406 -33.296875 13.199219 -33.304688 13.210938 -33.3125 C 13.21875 -33.320312 13.226562 -33.328125 13.230469 -33.335938 C 13.226562 -33.328125 13.21875 -33.316406 13.214844 -33.296875 C 13.175781 -33.183594 13.15625 -33.027344 13.15625 -32.824219 L 13.15625 -27.582031 L 11.230469 -27.582031 L 11.820312 -29.414062 L 26.753906 -24.601562 C 27.707031 -24.273438 28.4375 -23.75 28.941406 -23.027344 C 29.445312 -22.316406 29.695312 -21.46875 29.695312 -20.484375 L 29.695312 -8.886719 C 29.695312 -5.476562 28.757812 -2.824219 26.886719 -0.929688 C 25.007812 0.976562 22.339844 1.929688 18.878906 1.929688 L 11.96875 1.929688 C 8.558594 1.929688 5.902344 0.980469 4.003906 -0.917969 C 2.105469 -2.816406 1.15625 -5.472656 1.15625 -8.886719 L 1.15625 -12.894531 C 1.15625 -13.757812 1.425781 -14.457031 1.96875 -15 C 2.507812 -15.539062 3.210938 -15.8125 4.074219 -15.8125 L 10.304688 -15.8125 C 11.164062 -15.8125 11.867188 -15.539062 12.40625 -15 C 12.949219 -14.457031 13.21875 -13.757812 13.21875 -12.894531 L 13.21875 -10.304688 C 13.21875 -10.101562 13.238281 -9.945312 13.273438 -9.835938 C 13.28125 -9.8125 13.289062 -9.800781 13.292969 -9.792969 C 13.289062 -9.800781 13.28125 -9.808594 13.273438 -9.816406 C 13.261719 -9.824219 13.253906 -9.832031 13.246094 -9.835938 C 13.253906 -9.832031 13.269531 -9.828125 13.289062 -9.820312 C 13.398438 -9.78125 13.558594 -9.765625 13.757812 -9.765625 L 17.089844 -9.765625 C 17.292969 -9.765625 17.449219 -9.78125 17.5625 -9.820312 C 17.582031 -9.828125 17.59375 -9.832031 17.601562 -9.835938 C 17.597656 -9.832031 17.589844 -9.824219 17.578125 -9.816406 C 17.570312 -9.808594 17.5625 -9.800781 17.558594 -9.792969 C 17.5625 -9.800781 17.570312 -9.8125 17.574219 -9.835938 C 17.613281 -9.945312 17.632812 -10.101562 17.632812 -10.304688 L 17.632812 -16.535156 L 19.558594 -16.535156 L 18.964844 -14.703125 L 4.15625 -19.515625 C 3.199219 -19.832031 2.464844 -20.347656 1.945312 -21.058594 C 1.417969 -21.78125 1.15625 -22.636719 1.15625 -23.632812 L 1.15625 -34.304688 C 1.15625 -37.765625 2.109375 -40.433594 4.015625 -42.3125 C 5.910156 -44.183594 8.5625 -45.121094 11.96875 -45.121094 Z M 11.96875 -41.261719 C 9.617188 -41.261719 7.867188 -40.695312 6.722656 -39.566406 C 5.582031 -38.441406 5.011719 -36.6875 5.011719 -34.304688 L 5.011719 -23.632812 C 5.011719 -23.476562 5.027344 -23.375 5.058594 -23.332031 C 5.09375 -23.285156 5.191406 -23.234375 5.347656 -23.183594 L 21.488281 -17.9375 L 21.488281 -10.304688 C 21.488281 -8.949219 21.09375 -7.878906 20.304688 -7.089844 C 19.519531 -6.300781 18.445312 -5.90625 17.089844 -5.90625 L 13.757812 -5.90625 C 12.402344 -5.90625 11.332031 -6.300781 10.542969 -7.089844 C 9.757812 -7.878906 9.363281 -8.949219 9.363281 -10.304688 L 9.363281 -12.894531 C 9.363281 -12.851562 9.375 -12.792969 9.398438 -12.71875 C 9.457031 -12.554688 9.546875 -12.40625 9.679688 -12.273438 C 9.8125 -12.140625 9.960938 -12.046875 10.125 -11.992188 C 10.199219 -11.96875 10.261719 -11.953125 10.304688 -11.953125 L 4.074219 -11.953125 C 4.117188 -11.953125 4.175781 -11.96875 4.25 -11.992188 C 4.414062 -12.046875 4.5625 -12.140625 4.695312 -12.273438 C 4.828125 -12.40625 4.921875 -12.554688 4.976562 -12.71875 C 5 -12.792969 5.011719 -12.851562 5.011719 -12.894531 L 5.011719 -8.886719 C 5.011719 -6.539062 5.585938 -4.792969 6.730469 -3.644531 C 7.878906 -2.5 9.625 -1.929688 11.96875 -1.929688 L 18.878906 -1.929688 C 21.261719 -1.929688 23.015625 -2.496094 24.140625 -3.636719 C 25.273438 -4.785156 25.835938 -6.53125 25.835938 -8.886719 L 25.835938 -20.484375 C 25.835938 -20.652344 25.820312 -20.761719 25.785156 -20.8125 C 25.757812 -20.851562 25.6875 -20.890625 25.570312 -20.933594 L 9.300781 -26.175781 L 9.300781 -32.824219 C 9.300781 -34.179688 9.695312 -35.25 10.484375 -36.039062 C 11.269531 -36.828125 12.34375 -37.222656 13.699219 -37.222656 L 17.089844 -37.222656 C 18.445312 -37.222656 19.519531 -36.828125 20.304688 -36.039062 C 21.09375 -35.25 21.488281 -34.179688 21.488281 -32.824219 L 21.488281 -30.234375 C 21.488281 -30.277344 21.476562 -30.335938 21.449219 -30.410156 C 21.394531 -30.574219 21.300781 -30.722656 21.167969 -30.855469 C 21.039062 -30.988281 20.890625 -31.082031 20.722656 -31.136719 C 20.648438 -31.164062 20.589844 -31.175781 20.546875 -31.175781 L 26.777344 -31.175781 C 26.734375 -31.175781 26.675781 -31.164062 26.601562 -31.136719 C 26.4375 -31.082031 26.289062 -30.988281 26.15625 -30.855469 C 26.023438 -30.722656 25.929688 -30.574219 25.875 -30.410156 C 25.851562 -30.335938 25.835938 -30.277344 25.835938 -30.234375 L 25.835938 -34.304688 C 25.835938 -36.695312 25.273438 -38.449219 24.148438 -39.574219 C 23.023438 -40.699219 21.269531 -41.261719 18.878906 -41.261719 Z M 11.96875 -41.261719 "/></g></g><g style="fill:#b21a22;fill-opacity:1;"><g transform="translate(123.736547, 254.753873)"><path style="stroke:none" d="M 29.632812 -42.203125 L 29.632812 -36.035156 C 29.632812 -35.175781 29.375 -34.472656 28.863281 -33.925781 C 28.316406 -33.347656 27.601562 -33.054688 26.714844 -33.054688 L 11.476562 -33.054688 L 11.476562 -34.984375 L 13.40625 -34.984375 L 13.40625 -25.484375 L 11.476562 -25.484375 L 11.476562 -27.410156 L 23.078125 -27.410156 C 23.960938 -27.410156 24.675781 -27.121094 25.222656 -26.542969 C 25.734375 -25.996094 25.992188 -25.292969 25.992188 -24.433594 L 25.992188 -18.324219 C 25.992188 -17.464844 25.734375 -16.761719 25.222656 -16.21875 C 24.675781 -15.636719 23.960938 -15.347656 23.078125 -15.347656 L 11.476562 -15.347656 L 11.476562 -17.277344 L 13.40625 -17.277344 L 13.40625 -8.144531 L 11.476562 -8.144531 L 11.476562 -10.074219 L 26.714844 -10.074219 C 27.578125 -10.074219 28.28125 -9.800781 28.820312 -9.261719 C 29.363281 -8.71875 29.632812 -8.019531 29.632812 -7.15625 L 29.632812 -0.988281 C 29.632812 -0.125 29.363281 0.574219 28.820312 1.117188 C 28.28125 1.65625 27.578125 1.929688 26.714844 1.929688 L 4.011719 1.929688 C 3.144531 1.929688 2.445312 1.644531 1.910156 1.070312 C 1.40625 0.535156 1.15625 -0.148438 1.15625 -0.988281 L 1.15625 -42.203125 C 1.15625 -43.042969 1.40625 -43.726562 1.910156 -44.261719 C 2.445312 -44.832031 3.144531 -45.121094 4.011719 -45.121094 L 26.714844 -45.121094 C 27.578125 -45.121094 28.28125 -44.847656 28.820312 -44.308594 C 29.363281 -43.765625 29.632812 -43.066406 29.632812 -42.203125 Z M 25.777344 -42.203125 C 25.777344 -42.160156 25.789062 -42.101562 25.8125 -42.027344 C 25.867188 -41.863281 25.960938 -41.714844 26.09375 -41.582031 C 26.226562 -41.449219 26.375 -41.355469 26.539062 -41.300781 C 26.613281 -41.273438 26.671875 -41.261719 26.714844 -41.261719 L 4.011719 -41.261719 C 4.257812 -41.261719 4.496094 -41.382812 4.722656 -41.625 C 4.847656 -41.757812 4.933594 -41.902344 4.984375 -42.0625 C 5.003906 -42.125 5.011719 -42.171875 5.011719 -42.203125 L 5.011719 -0.988281 C 5.011719 -1.019531 5.003906 -1.066406 4.984375 -1.128906 C 4.933594 -1.289062 4.847656 -1.433594 4.722656 -1.566406 C 4.496094 -1.808594 4.257812 -1.929688 4.011719 -1.929688 L 26.714844 -1.929688 C 26.671875 -1.929688 26.613281 -1.914062 26.539062 -1.890625 C 26.375 -1.835938 26.226562 -1.742188 26.09375 -1.609375 C 25.960938 -1.476562 25.867188 -1.328125 25.8125 -1.164062 C 25.789062 -1.089844 25.777344 -1.03125 25.777344 -0.988281 L 25.777344 -7.15625 C 25.777344 -7.113281 25.789062 -7.054688 25.8125 -6.980469 C 25.867188 -6.816406 25.960938 -6.667969 26.09375 -6.535156 C 26.226562 -6.402344 26.375 -6.308594 26.539062 -6.253906 C 26.613281 -6.230469 26.671875 -6.214844 26.714844 -6.214844 L 9.546875 -6.214844 L 9.546875 -19.203125 L 23.078125 -19.203125 C 23.019531 -19.203125 22.949219 -19.191406 22.863281 -19.160156 C 22.695312 -19.097656 22.542969 -19 22.414062 -18.859375 C 22.292969 -18.734375 22.210938 -18.59375 22.160156 -18.445312 C 22.144531 -18.386719 22.136719 -18.347656 22.136719 -18.324219 L 22.136719 -24.433594 C 22.136719 -24.410156 22.144531 -24.371094 22.160156 -24.316406 C 22.210938 -24.164062 22.292969 -24.027344 22.414062 -23.898438 C 22.542969 -23.757812 22.695312 -23.660156 22.863281 -23.597656 C 22.949219 -23.570312 23.019531 -23.554688 23.078125 -23.554688 L 9.546875 -23.554688 L 9.546875 -36.914062 L 26.714844 -36.914062 C 26.660156 -36.914062 26.589844 -36.898438 26.503906 -36.867188 C 26.335938 -36.808594 26.183594 -36.707031 26.054688 -36.570312 C 25.933594 -36.441406 25.847656 -36.300781 25.800781 -36.152344 C 25.785156 -36.09375 25.777344 -36.054688 25.777344 -36.035156 Z M 25.777344 -42.203125 "/></g></g><g style="fill:#b21a22;fill-opacity:1;"><g transform="translate(154.515869, 254.753873)"><path style="stroke:none" d="M 32.207031 1.929688 L 26.222656 1.929688 C 25.472656 1.929688 24.832031 1.699219 24.304688 1.234375 C 23.820312 0.808594 23.5 0.246094 23.351562 -0.460938 L 25.234375 -0.863281 L 23.367188 -0.390625 L 21.390625 -8.164062 L 23.261719 -8.636719 L 23.261719 -6.710938 L 11.660156 -6.710938 L 11.660156 -8.636719 L 13.535156 -8.175781 L 11.621094 -0.402344 L 9.75 -0.863281 L 11.632812 -0.460938 C 11.484375 0.246094 11.164062 0.808594 10.679688 1.234375 C 10.152344 1.699219 9.511719 1.929688 8.761719 1.929688 L 2.714844 1.929688 C 1.710938 1.929688 0.945312 1.589844 0.425781 0.910156 C -0.101562 0.214844 -0.222656 -0.617188 0.0625 -1.59375 L 1.914062 -1.050781 L 0.0429688 -1.511719 L 10.285156 -42.792969 L 12.15625 -42.328125 L 10.269531 -42.730469 C 10.425781 -43.457031 10.761719 -44.035156 11.285156 -44.464844 C 11.816406 -44.902344 12.453125 -45.121094 13.203125 -45.121094 L 21.78125 -45.121094 C 22.53125 -45.121094 23.167969 -44.902344 23.699219 -44.464844 C 24.222656 -44.035156 24.558594 -43.457031 24.714844 -42.730469 L 22.828125 -42.328125 L 24.699219 -42.792969 L 34.945312 -1.511719 L 33.070312 -1.050781 L 34.921875 -1.59375 C 35.21875 -0.589844 35.074219 0.261719 34.5 0.964844 C 33.96875 1.605469 33.207031 1.929688 32.207031 1.929688 Z M 32.207031 -1.929688 C 32.21875 -1.929688 32.226562 -1.929688 32.230469 -1.929688 C 32.230469 -1.929688 32.230469 -1.929688 32.222656 -1.929688 C 32.1875 -1.921875 32.148438 -1.914062 32.101562 -1.898438 C 31.882812 -1.824219 31.6875 -1.6875 31.523438 -1.488281 C 31.335938 -1.261719 31.234375 -1.011719 31.210938 -0.742188 C 31.203125 -0.636719 31.207031 -0.558594 31.222656 -0.503906 L 31.210938 -0.542969 L 20.949219 -41.894531 L 20.945312 -41.921875 C 20.976562 -41.773438 21.078125 -41.628906 21.25 -41.488281 C 21.429688 -41.335938 21.605469 -41.261719 21.78125 -41.261719 L 13.203125 -41.261719 C 13.378906 -41.261719 13.554688 -41.335938 13.734375 -41.488281 C 13.90625 -41.628906 14.007812 -41.773438 14.039062 -41.921875 L 14.035156 -41.894531 L 3.773438 -0.542969 L 3.761719 -0.503906 C 3.773438 -0.542969 3.777344 -0.609375 3.773438 -0.703125 C 3.757812 -0.964844 3.664062 -1.207031 3.492188 -1.433594 C 3.324219 -1.652344 3.121094 -1.804688 2.878906 -1.886719 C 2.800781 -1.914062 2.746094 -1.929688 2.714844 -1.929688 L 8.761719 -1.929688 C 8.546875 -1.929688 8.339844 -1.839844 8.140625 -1.667969 C 7.984375 -1.53125 7.890625 -1.398438 7.863281 -1.269531 L 7.871094 -1.296875 L 10.148438 -10.566406 L 24.761719 -10.566406 L 27.113281 -1.304688 L 27.121094 -1.269531 C 27.09375 -1.398438 27 -1.53125 26.84375 -1.667969 C 26.644531 -1.839844 26.4375 -1.929688 26.222656 -1.929688 Z M 19.46875 -15.359375 L 15.582031 -32.144531 L 17.460938 -32.578125 L 19.339844 -32.144531 L 15.453125 -15.359375 L 13.574219 -15.796875 L 13.574219 -17.722656 L 21.347656 -17.722656 L 21.347656 -15.796875 Z M 23.773438 -13.867188 L 11.148438 -13.867188 L 15.582031 -33.011719 L 19.339844 -33.011719 L 23.226562 -16.230469 Z M 23.773438 -13.867188 "/></g></g><g style="fill:#b21a22;fill-opacity:1;"><g transform="translate(189.489586, 254.753873)"><path style="stroke:none" d="M 29.695312 -34.304688 L 29.695312 -21.902344 C 29.695312 -17.613281 28.238281 -14.558594 25.332031 -12.742188 L 24.308594 -14.375 L 26.183594 -14.828125 L 29.394531 -1.5625 L 27.519531 -1.109375 L 29.375 -1.625 C 29.652344 -0.632812 29.519531 0.210938 28.980469 0.90625 C 28.449219 1.585938 27.675781 1.929688 26.65625 1.929688 L 20.609375 1.929688 C 19.859375 1.929688 19.21875 1.710938 18.6875 1.273438 C 18.167969 0.84375 17.828125 0.265625 17.675781 -0.460938 L 19.558594 -0.863281 L 17.6875 -0.40625 L 14.722656 -12.5625 L 16.597656 -13.019531 L 16.597656 -11.089844 L 11.105469 -11.089844 L 11.105469 -13.019531 L 13.035156 -13.019531 L 13.035156 -0.988281 C 13.035156 -0.125 12.765625 0.574219 12.222656 1.117188 C 11.683594 1.65625 10.980469 1.929688 10.117188 1.929688 L 4.074219 1.929688 C 3.210938 1.929688 2.507812 1.65625 1.96875 1.117188 C 1.425781 0.574219 1.15625 -0.125 1.15625 -0.988281 L 1.15625 -42.203125 C 1.15625 -43.066406 1.425781 -43.765625 1.96875 -44.308594 C 2.507812 -44.847656 3.210938 -45.121094 4.074219 -45.121094 L 18.878906 -45.121094 C 22.332031 -45.121094 25 -44.179688 26.878906 -42.300781 C 28.753906 -40.425781 29.695312 -37.757812 29.695312 -34.304688 Z M 25.835938 -34.304688 C 25.835938 -36.695312 25.273438 -38.449219 24.148438 -39.574219 C 23.023438 -40.699219 21.269531 -41.261719 18.878906 -41.261719 L 4.074219 -41.261719 C 4.117188 -41.261719 4.175781 -41.273438 4.25 -41.300781 C 4.414062 -41.355469 4.5625 -41.449219 4.695312 -41.582031 C 4.828125 -41.714844 4.921875 -41.863281 4.976562 -42.027344 C 5 -42.101562 5.011719 -42.160156 5.011719 -42.203125 L 5.011719 -0.988281 C 5.011719 -1.03125 5 -1.089844 4.976562 -1.164062 C 4.921875 -1.328125 4.828125 -1.476562 4.695312 -1.609375 C 4.5625 -1.742188 4.414062 -1.835938 4.25 -1.890625 C 4.175781 -1.914062 4.117188 -1.929688 4.074219 -1.929688 L 10.117188 -1.929688 C 10.074219 -1.929688 10.015625 -1.914062 9.941406 -1.890625 C 9.777344 -1.835938 9.628906 -1.742188 9.496094 -1.609375 C 9.363281 -1.476562 9.269531 -1.328125 9.214844 -1.164062 C 9.191406 -1.089844 9.179688 -1.03125 9.179688 -0.988281 L 9.179688 -14.949219 L 18.113281 -14.949219 L 21.4375 -1.292969 L 21.445312 -1.269531 C 21.414062 -1.417969 21.3125 -1.5625 21.140625 -1.703125 C 20.957031 -1.855469 20.78125 -1.929688 20.609375 -1.929688 L 26.65625 -1.929688 L 26.65625 -1.925781 C 26.613281 -1.921875 26.570312 -1.910156 26.519531 -1.890625 C 26.292969 -1.8125 26.097656 -1.667969 25.933594 -1.460938 C 25.769531 -1.246094 25.675781 -1.015625 25.65625 -0.765625 C 25.652344 -0.683594 25.652344 -0.625 25.660156 -0.59375 L 25.652344 -0.625 L 22.109375 -15.273438 L 23.289062 -16.011719 C 24.988281 -17.074219 25.835938 -19.039062 25.835938 -21.902344 Z M 11.105469 -22.90625 L 17.277344 -22.90625 C 17.480469 -22.90625 17.636719 -22.925781 17.746094 -22.960938 C 17.765625 -22.96875 17.78125 -22.972656 17.789062 -22.980469 C 17.78125 -22.976562 17.773438 -22.96875 17.765625 -22.960938 C 17.753906 -22.949219 17.75 -22.941406 17.742188 -22.933594 C 17.75 -22.941406 17.753906 -22.957031 17.761719 -22.976562 C 17.796875 -23.085938 17.816406 -23.242188 17.816406 -23.445312 L 17.816406 -32.761719 C 17.816406 -32.964844 17.796875 -33.121094 17.761719 -33.234375 C 17.753906 -33.253906 17.75 -33.269531 17.742188 -33.273438 C 17.75 -33.269531 17.753906 -33.261719 17.765625 -33.25 C 17.773438 -33.242188 17.78125 -33.234375 17.789062 -33.230469 C 17.78125 -33.234375 17.765625 -33.242188 17.746094 -33.246094 C 17.636719 -33.285156 17.480469 -33.304688 17.277344 -33.304688 L 11.105469 -33.304688 L 11.105469 -35.230469 L 13.035156 -35.230469 L 13.035156 -20.980469 L 11.105469 -20.980469 Z M 9.179688 -19.050781 L 9.179688 -37.160156 L 17.277344 -37.160156 C 18.632812 -37.160156 19.703125 -36.765625 20.492188 -35.976562 C 21.277344 -35.191406 21.671875 -34.117188 21.671875 -32.761719 L 21.671875 -23.445312 C 21.671875 -22.089844 21.277344 -21.019531 20.492188 -20.230469 C 19.703125 -19.445312 18.632812 -19.050781 17.277344 -19.050781 Z M 9.179688 -19.050781 "/></g></g><g style="fill:#b21a22;fill-opacity:1;"><g transform="translate(220.3306, 254.753873)"><path style="stroke:none" d="M 29.753906 -34.304688 L 29.753906 -27.640625 C 29.753906 -26.78125 29.484375 -26.078125 28.945312 -25.539062 C 28.402344 -24.996094 27.703125 -24.726562 26.839844 -24.726562 L 21.039062 -24.726562 C 20.179688 -24.726562 19.476562 -24.996094 18.9375 -25.539062 C 18.394531 -26.078125 18.125 -26.78125 18.125 -27.640625 L 18.125 -32.703125 C 18.125 -32.90625 18.105469 -33.0625 18.070312 -33.171875 C 18.0625 -33.191406 18.058594 -33.207031 18.050781 -33.214844 C 18.058594 -33.207031 18.0625 -33.199219 18.074219 -33.1875 C 18.082031 -33.179688 18.089844 -33.171875 18.097656 -33.167969 C 18.089844 -33.171875 18.074219 -33.179688 18.054688 -33.1875 C 17.945312 -33.222656 17.789062 -33.242188 17.585938 -33.242188 L 13.636719 -33.242188 C 13.433594 -33.242188 13.277344 -33.222656 13.167969 -33.1875 C 13.144531 -33.179688 13.132812 -33.171875 13.125 -33.167969 C 13.132812 -33.171875 13.140625 -33.179688 13.148438 -33.1875 C 13.15625 -33.199219 13.164062 -33.207031 13.167969 -33.214844 C 13.164062 -33.207031 13.160156 -33.191406 13.152344 -33.171875 C 13.113281 -33.0625 13.097656 -32.90625 13.097656 -32.703125 L 13.097656 -10.304688 C 13.097656 -10.101562 13.113281 -9.945312 13.152344 -9.835938 C 13.160156 -9.8125 13.164062 -9.800781 13.167969 -9.792969 C 13.164062 -9.800781 13.15625 -9.808594 13.148438 -9.816406 C 13.140625 -9.824219 13.132812 -9.832031 13.125 -9.835938 C 13.132812 -9.832031 13.144531 -9.828125 13.167969 -9.820312 C 13.277344 -9.78125 13.433594 -9.765625 13.636719 -9.765625 L 17.585938 -9.765625 C 17.789062 -9.765625 17.945312 -9.78125 18.054688 -9.820312 C 18.074219 -9.828125 18.089844 -9.832031 18.097656 -9.835938 C 18.089844 -9.832031 18.082031 -9.824219 18.074219 -9.816406 C 18.0625 -9.808594 18.058594 -9.800781 18.050781 -9.792969 C 18.058594 -9.800781 18.0625 -9.8125 18.070312 -9.835938 C 18.105469 -9.945312 18.125 -10.101562 18.125 -10.304688 L 18.125 -15.546875 C 18.125 -16.410156 18.394531 -17.113281 18.9375 -17.652344 C 19.476562 -18.195312 20.179688 -18.464844 21.039062 -18.464844 L 26.839844 -18.464844 C 27.703125 -18.464844 28.402344 -18.195312 28.945312 -17.652344 C 29.484375 -17.113281 29.753906 -16.410156 29.753906 -15.546875 L 29.753906 -8.886719 C 29.753906 -5.472656 28.804688 -2.816406 26.90625 -0.917969 C 25.007812 0.980469 22.355469 1.929688 18.941406 1.929688 L 12.03125 1.929688 C 8.625 1.929688 5.960938 0.980469 4.042969 -0.910156 C 2.121094 -2.808594 1.15625 -5.46875 1.15625 -8.886719 L 1.15625 -34.304688 C 1.15625 -37.769531 2.121094 -40.441406 4.054688 -42.320312 C 5.972656 -44.1875 8.628906 -45.121094 12.03125 -45.121094 L 18.941406 -45.121094 C 22.347656 -45.121094 25 -44.183594 26.898438 -42.3125 C 28.804688 -40.433594 29.753906 -37.765625 29.753906 -34.304688 Z M 25.898438 -34.304688 C 25.898438 -36.6875 25.328125 -38.441406 24.191406 -39.566406 C 23.042969 -40.695312 21.292969 -41.261719 18.941406 -41.261719 L 12.03125 -41.261719 C 9.675781 -41.261719 7.910156 -40.695312 6.742188 -39.558594 C 5.589844 -38.433594 5.011719 -36.683594 5.011719 -34.304688 L 5.011719 -8.886719 C 5.011719 -6.542969 5.59375 -4.800781 6.753906 -3.65625 C 7.921875 -2.503906 9.679688 -1.929688 12.03125 -1.929688 L 18.941406 -1.929688 C 21.289062 -1.929688 23.035156 -2.5 24.179688 -3.644531 C 25.328125 -4.792969 25.898438 -6.539062 25.898438 -8.886719 L 25.898438 -15.546875 C 25.898438 -15.503906 25.910156 -15.445312 25.9375 -15.371094 C 25.992188 -15.207031 26.085938 -15.058594 26.21875 -14.925781 C 26.347656 -14.792969 26.496094 -14.699219 26.664062 -14.644531 C 26.738281 -14.621094 26.796875 -14.609375 26.839844 -14.609375 L 21.039062 -14.609375 C 21.085938 -14.609375 21.144531 -14.621094 21.21875 -14.644531 C 21.382812 -14.699219 21.53125 -14.792969 21.664062 -14.925781 C 21.796875 -15.058594 21.890625 -15.207031 21.945312 -15.371094 C 21.96875 -15.445312 21.980469 -15.503906 21.980469 -15.546875 L 21.980469 -10.304688 C 21.980469 -8.949219 21.585938 -7.878906 20.800781 -7.089844 C 20.011719 -6.300781 18.941406 -5.90625 17.585938 -5.90625 L 13.636719 -5.90625 C 12.28125 -5.90625 11.210938 -6.300781 10.421875 -7.089844 C 9.632812 -7.878906 9.238281 -8.949219 9.238281 -10.304688 L 9.238281 -32.703125 C 9.238281 -34.058594 9.632812 -35.128906 10.421875 -35.917969 C 11.210938 -36.703125 12.28125 -37.097656 13.636719 -37.097656 L 17.585938 -37.097656 C 18.941406 -37.097656 20.011719 -36.703125 20.800781 -35.917969 C 21.585938 -35.128906 21.980469 -34.058594 21.980469 -32.703125 L 21.980469 -27.640625 C 21.980469 -27.6875 21.96875 -27.746094 21.945312 -27.820312 C 21.890625 -27.984375 21.796875 -28.132812 21.664062 -28.265625 C 21.53125 -28.398438 21.382812 -28.492188 21.21875 -28.546875 C 21.144531 -28.570312 21.085938 -28.582031 21.039062 -28.582031 L 26.839844 -28.582031 C 26.796875 -28.582031 26.738281 -28.570312 26.664062 -28.546875 C 26.496094 -28.492188 26.347656 -28.398438 26.21875 -28.265625 C 26.085938 -28.132812 25.992188 -27.984375 25.9375 -27.820312 C 25.910156 -27.746094 25.898438 -27.6875 25.898438 -27.640625 Z M 25.898438 -34.304688 "/></g></g><g style="fill:#b21a22;fill-opacity:1;"><g transform="translate(251.233307, 254.753873)"><path style="stroke:none" d="M 17.445312 -25.542969 L 17.445312 -42.203125 C 17.445312 -43.066406 17.714844 -43.765625 18.257812 -44.308594 C 18.796875 -44.847656 19.5 -45.121094 20.363281 -45.121094 L 26.714844 -45.121094 C 27.578125 -45.121094 28.277344 -44.863281 28.824219 -44.347656 C 29.40625 -43.804688 29.695312 -43.089844 29.695312 -42.203125 L 29.695312 -0.988281 C 29.695312 -0.101562 29.40625 0.613281 28.824219 1.15625 C 28.277344 1.671875 27.578125 1.929688 26.714844 1.929688 L 20.363281 1.929688 C 19.5 1.929688 18.796875 1.65625 18.257812 1.117188 C 17.714844 0.574219 17.445312 -0.125 17.445312 -0.988281 L 17.445312 -17.398438 L 19.375 -17.398438 L 19.375 -15.472656 L 11.476562 -15.472656 L 11.476562 -17.398438 L 13.40625 -17.398438 L 13.40625 -0.988281 C 13.40625 -0.125 13.132812 0.574219 12.59375 1.117188 C 12.050781 1.65625 11.351562 1.929688 10.488281 1.929688 L 4.132812 1.929688 C 3.273438 1.929688 2.570312 1.671875 2.027344 1.15625 C 1.445312 0.613281 1.15625 -0.101562 1.15625 -0.988281 L 1.15625 -42.203125 C 1.15625 -43.089844 1.445312 -43.804688 2.027344 -44.347656 C 2.570312 -44.863281 3.273438 -45.121094 4.132812 -45.121094 L 10.488281 -45.121094 C 11.351562 -45.121094 12.050781 -44.847656 12.59375 -44.308594 C 13.132812 -43.765625 13.40625 -43.066406 13.40625 -42.203125 L 13.40625 -25.542969 L 11.476562 -25.542969 L 11.476562 -27.472656 L 19.375 -27.472656 L 19.375 -25.542969 Z M 21.300781 -23.617188 L 9.546875 -23.617188 L 9.546875 -42.203125 C 9.546875 -42.160156 9.5625 -42.101562 9.585938 -42.027344 C 9.640625 -41.863281 9.734375 -41.714844 9.867188 -41.582031 C 10 -41.449219 10.148438 -41.355469 10.3125 -41.300781 C 10.386719 -41.273438 10.445312 -41.261719 10.488281 -41.261719 L 4.132812 -41.261719 C 4.15625 -41.261719 4.195312 -41.273438 4.253906 -41.289062 C 4.402344 -41.335938 4.542969 -41.421875 4.667969 -41.539062 C 4.808594 -41.671875 4.90625 -41.820312 4.96875 -41.992188 C 5 -42.078125 5.011719 -42.148438 5.011719 -42.203125 L 5.011719 -0.988281 C 5.011719 -1.042969 5 -1.113281 4.96875 -1.199219 C 4.90625 -1.371094 4.808594 -1.519531 4.667969 -1.652344 C 4.542969 -1.769531 4.402344 -1.855469 4.253906 -1.902344 C 4.195312 -1.917969 4.15625 -1.929688 4.132812 -1.929688 L 10.488281 -1.929688 C 10.445312 -1.929688 10.386719 -1.914062 10.3125 -1.890625 C 10.148438 -1.835938 10 -1.742188 9.867188 -1.609375 C 9.734375 -1.476562 9.640625 -1.328125 9.585938 -1.164062 C 9.5625 -1.089844 9.546875 -1.03125 9.546875 -0.988281 L 9.546875 -19.328125 L 21.300781 -19.328125 L 21.300781 -0.988281 C 21.300781 -1.03125 21.289062 -1.089844 21.265625 -1.164062 C 21.210938 -1.328125 21.117188 -1.476562 20.984375 -1.609375 C 20.851562 -1.742188 20.703125 -1.835938 20.539062 -1.890625 C 20.464844 -1.914062 20.40625 -1.929688 20.363281 -1.929688 L 26.714844 -1.929688 C 26.695312 -1.929688 26.65625 -1.917969 26.597656 -1.902344 C 26.449219 -1.855469 26.308594 -1.769531 26.183594 -1.652344 C 26.042969 -1.519531 25.941406 -1.371094 25.882812 -1.199219 C 25.851562 -1.113281 25.835938 -1.042969 25.835938 -0.988281 L 25.835938 -42.203125 C 25.835938 -42.148438 25.851562 -42.078125 25.882812 -41.992188 C 25.941406 -41.820312 26.042969 -41.671875 26.183594 -41.539062 C 26.308594 -41.421875 26.449219 -41.335938 26.597656 -41.289062 C 26.65625 -41.273438 26.695312 -41.261719 26.714844 -41.261719 L 20.363281 -41.261719 C 20.40625 -41.261719 20.464844 -41.273438 20.539062 -41.300781 C 20.703125 -41.355469 20.851562 -41.449219 20.984375 -41.582031 C 21.117188 -41.714844 21.210938 -41.863281 21.265625 -42.027344 C 21.289062 -42.101562 21.300781 -42.160156 21.300781 -42.203125 Z M 21.300781 -23.617188 "/></g></g><g style="fill:#060705;fill-opacity:1;"><g transform="translate(44.239105, 168.731459)"><path style="stroke:none" d="M 32.203125 0 L 26.21875 0 C 25.6875 0 25.359375 -0.285156 25.234375 -0.859375 L 23.265625 -8.640625 L 11.65625 -8.640625 L 9.75 -0.859375 C 9.625 -0.285156 9.296875 0 8.765625 0 L 2.71875 0 C 1.976562 0 1.707031 -0.347656 1.90625 -1.046875 L 12.15625 -42.328125 C 12.28125 -42.898438 12.628906 -43.1875 13.203125 -43.1875 L 21.78125 -43.1875 C 22.351562 -43.1875 22.703125 -42.898438 22.828125 -42.328125 L 33.078125 -1.046875 C 33.273438 -0.347656 32.984375 0 32.203125 0 Z M 21.34375 -15.796875 L 17.46875 -32.578125 L 13.578125 -15.796875 Z M 21.34375 -15.796875 "/></g></g><g style="fill:#060705;fill-opacity:1;"><g transform="translate(79.212822, 168.731459)"><path style="stroke:none" d="M 38.015625 -43.1875 L 43.8125 -43.1875 C 44.71875 -43.1875 45.109375 -42.753906 44.984375 -41.890625 L 39.0625 -1.109375 C 38.9375 -0.367188 38.484375 0 37.703125 0 L 31.03125 0 C 30.332031 0 29.878906 -0.367188 29.671875 -1.109375 L 24 -26.40625 L 18.265625 -1.109375 C 18.097656 -0.367188 17.644531 0 16.90625 0 L 10.125 0 C 9.34375 0 8.890625 -0.390625 8.765625 -1.171875 L 3.078125 -41.890625 C 2.960938 -42.753906 3.351562 -43.1875 4.25 -43.1875 L 10.0625 -43.1875 C 10.800781 -43.1875 11.234375 -42.796875 11.359375 -42.015625 L 14.375 -16.234375 L 14.6875 -16.234375 L 20.734375 -42.140625 C 20.941406 -42.835938 21.394531 -43.1875 22.09375 -43.1875 L 25.859375 -43.1875 C 26.554688 -43.1875 27.007812 -42.835938 27.21875 -42.140625 L 33.265625 -16.234375 L 33.5625 -16.234375 L 36.71875 -42.015625 C 36.84375 -42.796875 37.273438 -43.1875 38.015625 -43.1875 Z M 38.015625 -43.1875 "/></g></g><g style="fill:#060705;fill-opacity:1;"><g transform="translate(126.522931, 168.731459)"><path style="stroke:none" d="M 27.703125 -42.203125 L 27.703125 -36.03125 C 27.703125 -35.332031 27.375 -34.984375 26.71875 -34.984375 L 11.484375 -34.984375 L 11.484375 -25.484375 L 23.078125 -25.484375 C 23.734375 -25.484375 24.0625 -25.132812 24.0625 -24.4375 L 24.0625 -18.328125 C 24.0625 -17.628906 23.734375 -17.28125 23.078125 -17.28125 L 11.484375 -17.28125 L 11.484375 -8.140625 L 26.71875 -8.140625 C 27.375 -8.140625 27.703125 -7.8125 27.703125 -7.15625 L 27.703125 -0.984375 C 27.703125 -0.328125 27.375 0 26.71875 0 L 4.015625 0 C 3.390625 0 3.078125 -0.328125 3.078125 -0.984375 L 3.078125 -42.203125 C 3.078125 -42.859375 3.390625 -43.1875 4.015625 -43.1875 L 26.71875 -43.1875 C 27.375 -43.1875 27.703125 -42.859375 27.703125 -42.203125 Z M 27.703125 -42.203125 "/></g></g><g style="fill:#060705;fill-opacity:1;"><g transform="translate(157.302253, 168.731459)"><path style="stroke:none" d="M 11.96875 -43.1875 L 18.875 -43.1875 C 21.800781 -43.1875 24.015625 -42.4375 25.515625 -40.9375 C 27.015625 -39.4375 27.765625 -37.226562 27.765625 -34.3125 L 27.765625 -30.234375 C 27.765625 -29.578125 27.4375 -29.25 26.78125 -29.25 L 20.546875 -29.25 C 19.890625 -29.25 19.5625 -29.578125 19.5625 -30.234375 L 19.5625 -32.828125 C 19.5625 -34.472656 18.738281 -35.296875 17.09375 -35.296875 L 13.703125 -35.296875 C 12.054688 -35.296875 11.234375 -34.472656 11.234375 -32.828125 L 11.234375 -27.578125 L 26.15625 -22.765625 C 27.226562 -22.398438 27.765625 -21.640625 27.765625 -20.484375 L 27.765625 -8.890625 C 27.765625 -6.003906 27.015625 -3.800781 25.515625 -2.28125 C 24.015625 -0.757812 21.800781 0 18.875 0 L 11.96875 0 C 9.09375 0 6.890625 -0.757812 5.359375 -2.28125 C 3.835938 -3.800781 3.078125 -6.003906 3.078125 -8.890625 L 3.078125 -12.890625 C 3.078125 -13.554688 3.410156 -13.890625 4.078125 -13.890625 L 10.296875 -13.890625 C 10.960938 -13.890625 11.296875 -13.554688 11.296875 -12.890625 L 11.296875 -10.296875 C 11.296875 -8.660156 12.117188 -7.84375 13.765625 -7.84375 L 17.09375 -7.84375 C 18.738281 -7.84375 19.5625 -8.660156 19.5625 -10.296875 L 19.5625 -16.53125 L 4.75 -21.34375 C 3.632812 -21.71875 3.078125 -22.476562 3.078125 -23.625 L 3.078125 -34.3125 C 3.078125 -37.226562 3.835938 -39.4375 5.359375 -40.9375 C 6.890625 -42.4375 9.09375 -43.1875 11.96875 -43.1875 Z M 11.96875 -43.1875 "/></g></g><g style="fill:#060705;fill-opacity:1;"><g transform="translate(188.143267, 168.731459)"><path style="stroke:none" d="M 3.078125 -8.890625 L 3.078125 -34.3125 C 3.078125 -37.226562 3.835938 -39.4375 5.359375 -40.9375 C 6.890625 -42.4375 9.09375 -43.1875 11.96875 -43.1875 L 18.875 -43.1875 C 21.800781 -43.1875 24.015625 -42.4375 25.515625 -40.9375 C 27.015625 -39.4375 27.765625 -37.226562 27.765625 -34.3125 L 27.765625 -8.890625 C 27.765625 -6.003906 27.015625 -3.800781 25.515625 -2.28125 C 24.015625 -0.757812 21.800781 0 18.875 0 L 11.96875 0 C 9.09375 0 6.890625 -0.757812 5.359375 -2.28125 C 3.835938 -3.800781 3.078125 -6.003906 3.078125 -8.890625 Z M 13.578125 -7.953125 L 17.53125 -7.953125 C 19.164062 -7.953125 19.984375 -8.773438 19.984375 -10.421875 L 19.984375 -32.765625 C 19.984375 -34.410156 19.164062 -35.234375 17.53125 -35.234375 L 13.578125 -35.234375 C 11.929688 -35.234375 11.109375 -34.410156 11.109375 -32.765625 L 11.109375 -10.421875 C 11.109375 -8.773438 11.929688 -7.953125 13.578125 -7.953125 Z M 13.578125 -7.953125 "/></g></g><g style="fill:#060705;fill-opacity:1;"><g transform="translate(218.984281, 168.731459)"><path style="stroke:none" d="M 28.875 -43.1875 L 37.015625 -43.1875 C 37.835938 -43.1875 38.25 -42.773438 38.25 -41.953125 L 38.25 -1.234375 C 38.25 -0.410156 37.835938 0 37.015625 0 L 31.28125 0 C 30.457031 0 30.046875 -0.410156 30.046875 -1.234375 L 30.046875 -25.484375 L 29.625 -25.484375 L 23.8125 -1.046875 C 23.613281 -0.347656 23.160156 0 22.453125 0 L 18.8125 0 C 18.113281 0 17.664062 -0.347656 17.46875 -1.046875 L 11.65625 -25.484375 L 11.234375 -25.484375 L 11.234375 -1.234375 C 11.234375 -0.410156 10.820312 0 10 0 L 4.3125 0 C 3.488281 0 3.078125 -0.410156 3.078125 -1.234375 L 3.078125 -41.953125 C 3.078125 -42.773438 3.488281 -43.1875 4.3125 -43.1875 L 12.46875 -43.1875 C 13.164062 -43.1875 13.617188 -42.835938 13.828125 -42.140625 L 20.671875 -14.625 L 27.515625 -42.140625 C 27.722656 -42.835938 28.175781 -43.1875 28.875 -43.1875 Z M 28.875 -43.1875 "/></g></g><g style="fill:#060705;fill-opacity:1;"><g transform="translate(260.311233, 168.731459)"><path style="stroke:none" d="M 27.703125 -42.203125 L 27.703125 -36.03125 C 27.703125 -35.332031 27.375 -34.984375 26.71875 -34.984375 L 11.484375 -34.984375 L 11.484375 -25.484375 L 23.078125 -25.484375 C 23.734375 -25.484375 24.0625 -25.132812 24.0625 -24.4375 L 24.0625 -18.328125 C 24.0625 -17.628906 23.734375 -17.28125 23.078125 -17.28125 L 11.484375 -17.28125 L 11.484375 -8.140625 L 26.71875 -8.140625 C 27.375 -8.140625 27.703125 -7.8125 27.703125 -7.15625 L 27.703125 -0.984375 C 27.703125 -0.328125 27.375 0 26.71875 0 L 4.015625 0 C 3.390625 0 3.078125 -0.328125 3.078125 -0.984375 L 3.078125 -42.203125 C 3.078125 -42.859375 3.390625 -43.1875 4.015625 -43.1875 L 26.71875 -43.1875 C 27.375 -43.1875 27.703125 -42.859375 27.703125 -42.203125 Z M 27.703125 -42.203125 "/></g></g><g style="fill:#060705;fill-opacity:1;"><g transform="translate(291.090555, 168.731459)"><path style="stroke:none" d="M 0 8.265625 L 0 2.59375 C 0 1.769531 0.410156 1.359375 1.234375 1.359375 L 38.4375 1.359375 C 39.257812 1.359375 39.671875 1.769531 39.671875 2.59375 L 39.671875 8.265625 C 39.671875 9.085938 39.257812 9.5 38.4375 9.5 L 1.234375 9.5 C 0.410156 9.5 0 9.085938 0 8.265625 Z M 0 8.265625 "/></g></g><g style="fill:#060705;fill-opacity:1;"><g transform="translate(92.895533, 254.753873)"><path style="stroke:none" d="M 11.96875 -43.1875 L 18.875 -43.1875 C 21.800781 -43.1875 24.015625 -42.4375 25.515625 -40.9375 C 27.015625 -39.4375 27.765625 -37.226562 27.765625 -34.3125 L 27.765625 -30.234375 C 27.765625 -29.578125 27.4375 -29.25 26.78125 -29.25 L 20.546875 -29.25 C 19.890625 -29.25 19.5625 -29.578125 19.5625 -30.234375 L 19.5625 -32.828125 C 19.5625 -34.472656 18.738281 -35.296875 17.09375 -35.296875 L 13.703125 -35.296875 C 12.054688 -35.296875 11.234375 -34.472656 11.234375 -32.828125 L 11.234375 -27.578125 L 26.15625 -22.765625 C 27.226562 -22.398438 27.765625 -21.640625 27.765625 -20.484375 L 27.765625 -8.890625 C 27.765625 -6.003906 27.015625 -3.800781 25.515625 -2.28125 C 24.015625 -0.757812 21.800781 0 18.875 0 L 11.96875 0 C 9.09375 0 6.890625 -0.757812 5.359375 -2.28125 C 3.835938 -3.800781 3.078125 -6.003906 3.078125 -8.890625 L 3.078125 -12.890625 C 3.078125 -13.554688 3.410156 -13.890625 4.078125 -13.890625 L 10.296875 -13.890625 C 10.960938 -13.890625 11.296875 -13.554688 11.296875 -12.890625 L 11.296875 -10.296875 C 11.296875 -8.660156 12.117188 -7.84375 13.765625 -7.84375 L 17.09375 -7.84375 C 18.738281 -7.84375 19.5625 -8.660156 19.5625 -10.296875 L 19.5625 -16.53125 L 4.75 -21.34375 C 3.632812 -21.71875 3.078125 -22.476562 3.078125 -23.625 L 3.078125 -34.3125 C 3.078125 -37.226562 3.835938 -39.4375 5.359375 -40.9375 C 6.890625 -42.4375 9.09375 -43.1875 11.96875 -43.1875 Z M 11.96875 -43.1875 "/></g></g><g style="fill:#060705;fill-opacity:1;"><g transform="translate(123.736547, 254.753873)"><path style="stroke:none" d="M 27.703125 -42.203125 L 27.703125 -36.03125 C 27.703125 -35.332031 27.375 -34.984375 26.71875 -34.984375 L 11.484375 -34.984375 L 11.484375 -25.484375 L 23.078125 -25.484375 C 23.734375 -25.484375 24.0625 -25.132812 24.0625 -24.4375 L 24.0625 -18.328125 C 24.0625 -17.628906 23.734375 -17.28125 23.078125 -17.28125 L 11.484375 -17.28125 L 11.484375 -8.140625 L 26.71875 -8.140625 C 27.375 -8.140625 27.703125 -7.8125 27.703125 -7.15625 L 27.703125 -0.984375 C 27.703125 -0.328125 27.375 0 26.71875 0 L 4.015625 0 C 3.390625 0 3.078125 -0.328125 3.078125 -0.984375 L 3.078125 -42.203125 C 3.078125 -42.859375 3.390625 -43.1875 4.015625 -43.1875 L 26.71875 -43.1875 C 27.375 -43.1875 27.703125 -42.859375 27.703125 -42.203125 Z M 27.703125 -42.203125 "/></g></g><g style="fill:#060705;fill-opacity:1;"><g transform="translate(154.515869, 254.753873)"><path style="stroke:none" d="M 32.203125 0 L 26.21875 0 C 25.6875 0 25.359375 -0.285156 25.234375 -0.859375 L 23.265625 -8.640625 L 11.65625 -8.640625 L 9.75 -0.859375 C 9.625 -0.285156 9.296875 0 8.765625 0 L 2.71875 0 C 1.976562 0 1.707031 -0.347656 1.90625 -1.046875 L 12.15625 -42.328125 C 12.28125 -42.898438 12.628906 -43.1875 13.203125 -43.1875 L 21.78125 -43.1875 C 22.351562 -43.1875 22.703125 -42.898438 22.828125 -42.328125 L 33.078125 -1.046875 C 33.273438 -0.347656 32.984375 0 32.203125 0 Z M 21.34375 -15.796875 L 17.46875 -32.578125 L 13.578125 -15.796875 Z M 21.34375 -15.796875 "/></g></g><g style="fill:#060705;fill-opacity:1;"><g transform="translate(189.489586, 254.753873)"><path style="stroke:none" d="M 27.765625 -34.3125 L 27.765625 -21.90625 C 27.765625 -18.320312 26.613281 -15.8125 24.3125 -14.375 L 27.515625 -1.109375 C 27.722656 -0.367188 27.4375 0 26.65625 0 L 20.609375 0 C 20.035156 0 19.6875 -0.285156 19.5625 -0.859375 L 16.59375 -13.015625 L 11.109375 -13.015625 L 11.109375 -0.984375 C 11.109375 -0.328125 10.78125 0 10.125 0 L 4.078125 0 C 3.410156 0 3.078125 -0.328125 3.078125 -0.984375 L 3.078125 -42.203125 C 3.078125 -42.859375 3.410156 -43.1875 4.078125 -43.1875 L 18.875 -43.1875 C 21.800781 -43.1875 24.015625 -42.4375 25.515625 -40.9375 C 27.015625 -39.4375 27.765625 -37.226562 27.765625 -34.3125 Z M 11.109375 -20.984375 L 17.28125 -20.984375 C 18.925781 -20.984375 19.75 -21.804688 19.75 -23.453125 L 19.75 -32.765625 C 19.75 -34.410156 18.925781 -35.234375 17.28125 -35.234375 L 11.109375 -35.234375 Z M 11.109375 -20.984375 "/></g></g><g style="fill:#060705;fill-opacity:1;"><g transform="translate(220.3306, 254.753873)"><path style="stroke:none" d="M 27.828125 -34.3125 L 27.828125 -27.640625 C 27.828125 -26.984375 27.5 -26.65625 26.84375 -26.65625 L 21.046875 -26.65625 C 20.378906 -26.65625 20.046875 -26.984375 20.046875 -27.640625 L 20.046875 -32.703125 C 20.046875 -34.347656 19.222656 -35.171875 17.578125 -35.171875 L 13.640625 -35.171875 C 11.992188 -35.171875 11.171875 -34.347656 11.171875 -32.703125 L 11.171875 -10.296875 C 11.171875 -8.660156 11.992188 -7.84375 13.640625 -7.84375 L 17.578125 -7.84375 C 19.222656 -7.84375 20.046875 -8.660156 20.046875 -10.296875 L 20.046875 -15.546875 C 20.046875 -16.203125 20.378906 -16.53125 21.046875 -16.53125 L 26.84375 -16.53125 C 27.5 -16.53125 27.828125 -16.203125 27.828125 -15.546875 L 27.828125 -8.890625 C 27.828125 -6.003906 27.066406 -3.800781 25.546875 -2.28125 C 24.023438 -0.757812 21.820312 0 18.9375 0 L 12.03125 0 C 9.15625 0 6.941406 -0.757812 5.390625 -2.28125 C 3.847656 -3.800781 3.078125 -6.003906 3.078125 -8.890625 L 3.078125 -34.3125 C 3.078125 -37.226562 3.847656 -39.4375 5.390625 -40.9375 C 6.941406 -42.4375 9.15625 -43.1875 12.03125 -43.1875 L 18.9375 -43.1875 C 21.820312 -43.1875 24.023438 -42.4375 25.546875 -40.9375 C 27.066406 -39.4375 27.828125 -37.226562 27.828125 -34.3125 Z M 27.828125 -34.3125 "/></g></g><g style="fill:#060705;fill-opacity:1;"><g transform="translate(251.233307, 254.753873)"><path style="stroke:none" d="M 19.375 -25.546875 L 19.375 -42.203125 C 19.375 -42.859375 19.703125 -43.1875 20.359375 -43.1875 L 26.71875 -43.1875 C 27.414062 -43.1875 27.765625 -42.859375 27.765625 -42.203125 L 27.765625 -0.984375 C 27.765625 -0.328125 27.414062 0 26.71875 0 L 20.359375 0 C 19.703125 0 19.375 -0.328125 19.375 -0.984375 L 19.375 -17.40625 L 11.484375 -17.40625 L 11.484375 -0.984375 C 11.484375 -0.328125 11.148438 0 10.484375 0 L 4.140625 0 C 3.429688 0 3.078125 -0.328125 3.078125 -0.984375 L 3.078125 -42.203125 C 3.078125 -42.859375 3.429688 -43.1875 4.140625 -43.1875 L 10.484375 -43.1875 C 11.148438 -43.1875 11.484375 -42.859375 11.484375 -42.203125 L 11.484375 -25.546875 Z M 19.375 -25.546875 "/></g></g></g></svg>