<svg xmlns="http://www.w3.org/2000/svg" xmlns:xlink="http://www.w3.org/1999/xlink" width="192" zoomAndPan="magnify" viewBox="0 0 144 143.999998" height="192" preserveAspectRatio="xMidYMid meet" version="1.0"><defs><g/><clipPath id="5f0f015459"><path d="M 9 0 L 135 0 L 135 144 L 9 144 Z M 9 0 " clip-rule="nonzero"/></clipPath><clipPath id="6f95be60d0"><path d="M -21.457031 54.867188 L 103.039062 -17.847656 L 165.503906 89.105469 L 41.007812 161.816406 Z M -21.457031 54.867188 " clip-rule="nonzero"/></clipPath><clipPath id="b136a4c473"><path d="M 134.226562 35.65625 L 134.347656 107.300781 L 72.121094 143.644531 L 9.773438 108.34375 L 9.65625 36.695312 L 71.878906 0.351562 Z M 134.226562 35.65625 " clip-rule="nonzero"/></clipPath><clipPath id="bfec1e3ee8"><path d="M 0.601562 0.238281 L 125.398438 0.238281 L 125.398438 143.761719 L 0.601562 143.761719 Z M 0.601562 0.238281 " clip-rule="nonzero"/></clipPath><clipPath id="dcbbaf0cb3"><path d="M -30.457031 54.867188 L 94.039062 -17.847656 L 156.503906 89.105469 L 32.007812 161.816406 Z M -30.457031 54.867188 " clip-rule="nonzero"/></clipPath><clipPath id="6228ed1da7"><path d="M 125.226562 35.65625 L 125.347656 107.300781 L 63.121094 143.644531 L 0.773438 108.34375 L 0.65625 36.695312 L 62.878906 0.351562 Z M 125.226562 35.65625 " clip-rule="nonzero"/></clipPath><clipPath id="9f22464cf2"><rect x="0" width="126" y="0" height="144"/></clipPath><clipPath id="19454fed8f"><path d="M 21.210938 13.683594 L 122.773438 13.683594 L 122.773438 130.261719 L 21.210938 130.261719 Z M 21.210938 13.683594 " clip-rule="nonzero"/></clipPath><clipPath id="abd27375cc"><rect x="0" width="144" y="0" height="144"/></clipPath><clipPath id="4d113fd03e"><rect x="0" width="99" y="0" height="101"/></clipPath></defs><g transform="matrix(1, 0, 0, 1, 0, -0.000000000000008916)"><g clip-path="url(#abd27375cc)"><g clip-path="url(#5f0f015459)"><g clip-path="url(#6f95be60d0)"><g clip-path="url(#b136a4c473)"><g transform="matrix(1, 0, 0, 1, 9, -0.00000000000000891)"><g clip-path="url(#9f22464cf2)"><g clip-path="url(#bfec1e3ee8)"><g clip-path="url(#dcbbaf0cb3)"><g clip-path="url(#6228ed1da7)"><path fill="#65b30e" d="M -30.457031 54.867188 L 94.039062 -17.847656 L 156.503906 89.105469 L 32.007812 161.816406 Z M -30.457031 54.867188 " fill-opacity="1" fill-rule="nonzero"/></g></g></g></g></g></g></g></g><path fill="#87ff00" d="M 51.695312 52.128906 L 51.628906 52.0625 L 37.269531 66.421875 L 72.136719 101.226562 L 86.496094 86.933594 L 107.003906 66.421875 L 92.640625 52.0625 L 92.640625 52 L 51.632812 52 Z M 51.695312 52.128906 " fill-opacity="1" fill-rule="nonzero"/><g clip-path="url(#19454fed8f)"><path fill="#87ff00" d="M 72.003906 13.765625 L 21.222656 42.878906 L 21.226562 101.101562 L 72.007812 130.210938 L 122.789062 101.101562 L 122.789062 42.878906 L 72.007812 13.769531 Z M 113.085938 95.535156 L 72.003906 119.207031 L 30.925781 95.535156 L 30.929688 48.3125 L 72.007812 24.632812 L 113.085938 48.308594 Z M 113.085938 95.535156 " fill-opacity="1" fill-rule="nonzero"/></g></g></g><g transform="matrix(1, 0, 0, 1, 22, 21)"><g clip-path="url(#4d113fd03e)"><g fill="#b21a22" fill-opacity="1"><g transform="translate(4.077456, 39.374516)"><g><path d="M 15.289062 -28.089844 L 19.128906 -28.089844 C 19.804688 -28.089844 20.328125 -27.847656 20.695312 -27.371094 C 20.925781 -27.070312 21.039062 -26.734375 21.039062 -26.355469 C 21.039062 -26.0625 20.964844 -25.765625 20.816406 -25.46875 L 19.742188 -26.003906 L 20.84375 -25.519531 L 13.8125 -9.578125 L 12.714844 -10.0625 L 13.914062 -10.0625 L 13.914062 -0.769531 C 13.914062 -0.179688 13.734375 0.292969 13.371094 0.65625 C 13.007812 1.019531 12.535156 1.199219 11.945312 1.199219 L 8.257812 1.199219 C 7.671875 1.199219 7.195312 1.019531 6.832031 0.65625 C 6.472656 0.292969 6.289062 -0.179688 6.289062 -0.769531 L 6.289062 -10.0625 L 7.492188 -10.0625 L 6.390625 -9.578125 L -0.644531 -25.539062 L -0.652344 -25.558594 C -0.914062 -26.214844 -0.867188 -26.800781 -0.507812 -27.320312 C -0.152344 -27.832031 0.375 -28.089844 1.074219 -28.089844 L 4.917969 -28.089844 C 5.386719 -28.089844 5.796875 -27.964844 6.148438 -27.71875 C 6.5 -27.476562 6.761719 -27.132812 6.925781 -26.695312 L 5.800781 -26.273438 L 6.902344 -26.753906 L 11.203125 -16.882812 L 10.101562 -16.402344 L 9 -16.882812 L 13.304688 -26.753906 L 14.40625 -26.273438 L 13.28125 -26.695312 C 13.445312 -27.132812 13.703125 -27.476562 14.054688 -27.71875 C 14.40625 -27.964844 14.820312 -28.089844 15.289062 -28.089844 Z M 15.289062 -25.6875 C 15.320312 -25.6875 15.367188 -25.707031 15.425781 -25.75 C 15.484375 -25.789062 15.519531 -25.824219 15.527344 -25.851562 L 15.515625 -25.824219 L 10.101562 -13.398438 L 4.6875 -25.824219 L 4.675781 -25.851562 C 4.6875 -25.824219 4.722656 -25.789062 4.777344 -25.75 C 4.835938 -25.707031 4.882812 -25.6875 4.917969 -25.6875 L 1.074219 -25.6875 C 1.097656 -25.6875 1.128906 -25.699219 1.179688 -25.71875 C 1.296875 -25.765625 1.390625 -25.847656 1.46875 -25.957031 C 1.542969 -26.066406 1.585938 -26.1875 1.589844 -26.320312 C 1.589844 -26.378906 1.585938 -26.421875 1.574219 -26.449219 L 0.460938 -26.003906 L 1.558594 -26.488281 L 8.691406 -10.316406 L 8.691406 -0.769531 C 8.691406 -0.761719 8.691406 -0.757812 8.691406 -0.753906 C 8.691406 -0.753906 8.691406 -0.757812 8.691406 -0.757812 C 8.6875 -0.773438 8.683594 -0.792969 8.675781 -0.8125 C 8.648438 -0.894531 8.601562 -0.972656 8.53125 -1.039062 C 8.460938 -1.109375 8.386719 -1.160156 8.300781 -1.1875 C 8.28125 -1.195312 8.261719 -1.199219 8.25 -1.199219 C 8.246094 -1.199219 8.246094 -1.199219 8.246094 -1.199219 C 8.25 -1.199219 8.253906 -1.199219 8.257812 -1.199219 L 11.945312 -1.199219 C 11.953125 -1.199219 11.957031 -1.199219 11.960938 -1.199219 C 11.960938 -1.199219 11.957031 -1.199219 11.957031 -1.199219 C 11.941406 -1.199219 11.921875 -1.195312 11.902344 -1.1875 C 11.820312 -1.160156 11.742188 -1.109375 11.671875 -1.039062 C 11.605469 -0.972656 11.554688 -0.894531 11.527344 -0.8125 C 11.519531 -0.792969 11.515625 -0.773438 11.515625 -0.757812 C 11.511719 -0.757812 11.511719 -0.753906 11.511719 -0.753906 C 11.511719 -0.757812 11.515625 -0.761719 11.515625 -0.769531 L 11.515625 -10.316406 L 18.65625 -26.515625 L 18.667969 -26.542969 C 18.648438 -26.5 18.640625 -26.4375 18.640625 -26.355469 C 18.640625 -26.1875 18.691406 -26.039062 18.792969 -25.90625 C 18.859375 -25.816406 18.945312 -25.753906 19.042969 -25.714844 C 19.085938 -25.695312 19.113281 -25.6875 19.128906 -25.6875 Z M 15.289062 -25.6875 "/></g></g></g><g fill="#b21a22" fill-opacity="1"><g transform="translate(24.281251, 39.374516)"><g><path d="M 20.050781 1.199219 L 16.324219 1.199219 C 15.859375 1.199219 15.460938 1.058594 15.132812 0.769531 C 14.828125 0.503906 14.628906 0.152344 14.535156 -0.285156 L 15.710938 -0.539062 L 14.546875 -0.242188 L 13.316406 -5.082031 L 14.480469 -5.378906 L 14.480469 -4.175781 L 7.261719 -4.175781 L 7.261719 -5.378906 L 8.425781 -5.089844 L 7.234375 -0.25 L 6.070312 -0.539062 L 7.242188 -0.285156 C 7.148438 0.152344 6.949219 0.503906 6.648438 0.769531 C 6.320312 1.058594 5.921875 1.199219 5.453125 1.199219 L 1.691406 1.199219 C 1.0625 1.199219 0.589844 0.988281 0.265625 0.566406 C -0.0625 0.132812 -0.140625 -0.382812 0.0390625 -0.992188 L 1.191406 -0.652344 L 0.0273438 -0.941406 L 6.402344 -26.640625 L 7.566406 -26.351562 L 6.394531 -26.601562 C 6.488281 -27.054688 6.699219 -27.414062 7.023438 -27.679688 C 7.355469 -27.953125 7.753906 -28.089844 8.21875 -28.089844 L 13.558594 -28.089844 C 14.027344 -28.089844 14.425781 -27.953125 14.753906 -27.679688 C 15.078125 -27.414062 15.289062 -27.054688 15.386719 -26.601562 L 14.210938 -26.351562 L 15.378906 -26.640625 L 21.753906 -0.941406 L 20.589844 -0.652344 L 21.742188 -0.992188 C 21.925781 -0.367188 21.835938 0.164062 21.476562 0.601562 C 21.148438 1 20.671875 1.199219 20.050781 1.199219 Z M 20.050781 -1.199219 C 20.058594 -1.199219 20.0625 -1.199219 20.066406 -1.199219 C 20.066406 -1.199219 20.0625 -1.199219 20.0625 -1.199219 C 20.039062 -1.199219 20.011719 -1.191406 19.984375 -1.183594 C 19.847656 -1.136719 19.726562 -1.050781 19.625 -0.925781 C 19.507812 -0.785156 19.445312 -0.632812 19.429688 -0.460938 C 19.425781 -0.394531 19.425781 -0.347656 19.4375 -0.3125 L 19.429688 -0.339844 L 13.042969 -26.078125 L 13.039062 -26.097656 C 13.058594 -26.003906 13.121094 -25.914062 13.226562 -25.828125 C 13.339844 -25.734375 13.453125 -25.6875 13.558594 -25.6875 L 8.21875 -25.6875 C 8.328125 -25.6875 8.4375 -25.734375 8.550781 -25.828125 C 8.65625 -25.914062 8.722656 -26.003906 8.742188 -26.097656 L 8.738281 -26.078125 L 2.351562 -0.339844 L 2.34375 -0.3125 C 2.351562 -0.339844 2.351562 -0.378906 2.347656 -0.4375 C 2.339844 -0.601562 2.28125 -0.753906 2.171875 -0.890625 C 2.070312 -1.027344 1.941406 -1.125 1.792969 -1.175781 C 1.742188 -1.191406 1.710938 -1.199219 1.691406 -1.199219 L 5.453125 -1.199219 C 5.320312 -1.199219 5.191406 -1.144531 5.066406 -1.039062 C 4.96875 -0.953125 4.914062 -0.871094 4.894531 -0.789062 L 4.898438 -0.808594 L 6.320312 -6.578125 L 15.414062 -6.578125 L 16.878906 -0.8125 L 16.882812 -0.789062 C 16.867188 -0.871094 16.808594 -0.953125 16.710938 -1.039062 C 16.589844 -1.144531 16.460938 -1.199219 16.324219 -1.199219 Z M 12.121094 -9.5625 L 9.699219 -20.011719 L 10.871094 -20.28125 L 12.039062 -20.011719 L 9.621094 -9.5625 L 8.449219 -9.832031 L 8.449219 -11.035156 L 13.289062 -11.035156 L 13.289062 -9.832031 Z M 14.800781 -8.632812 L 6.941406 -8.632812 L 9.699219 -20.550781 L 12.039062 -20.550781 L 14.460938 -10.105469 Z M 14.800781 -8.632812 "/></g></g></g><g fill="#b21a22" fill-opacity="1"><g transform="translate(46.059865, 39.374516)"><g><path d="M 18.484375 -21.355469 L 18.484375 -13.636719 C 18.484375 -10.964844 17.582031 -9.0625 15.769531 -7.933594 L 15.132812 -8.949219 L 16.300781 -9.230469 L 18.296875 -0.972656 L 17.132812 -0.691406 L 18.289062 -1.011719 C 18.460938 -0.394531 18.378906 0.132812 18.039062 0.5625 C 17.710938 0.988281 17.230469 1.199219 16.59375 1.199219 L 12.828125 1.199219 C 12.363281 1.199219 11.964844 1.0625 11.632812 0.792969 C 11.308594 0.523438 11.097656 0.164062 11.003906 -0.285156 L 12.175781 -0.539062 L 11.011719 -0.253906 L 9.167969 -7.820312 L 10.332031 -8.105469 L 10.332031 -6.90625 L 6.914062 -6.90625 L 6.914062 -8.105469 L 8.113281 -8.105469 L 8.113281 -0.613281 C 8.113281 -0.078125 7.945312 0.359375 7.609375 0.695312 C 7.273438 1.03125 6.835938 1.199219 6.300781 1.199219 L 2.535156 1.199219 C 2 1.199219 1.5625 1.03125 1.226562 0.695312 C 0.886719 0.359375 0.71875 -0.078125 0.71875 -0.613281 L 0.71875 -26.273438 C 0.71875 -26.808594 0.886719 -27.246094 1.226562 -27.582031 C 1.5625 -27.921875 2 -28.089844 2.535156 -28.089844 L 11.753906 -28.089844 C 13.902344 -28.089844 15.5625 -27.503906 16.730469 -26.335938 C 17.902344 -25.164062 18.484375 -23.507812 18.484375 -21.355469 Z M 16.085938 -21.355469 C 16.085938 -22.84375 15.734375 -23.9375 15.035156 -24.636719 C 14.335938 -25.335938 13.242188 -25.6875 11.753906 -25.6875 L 2.535156 -25.6875 C 2.5625 -25.6875 2.597656 -25.695312 2.644531 -25.710938 C 2.75 -25.746094 2.839844 -25.804688 2.921875 -25.886719 C 3.003906 -25.96875 3.0625 -26.058594 3.097656 -26.164062 C 3.113281 -26.210938 3.121094 -26.246094 3.121094 -26.273438 L 3.121094 -0.613281 C 3.121094 -0.640625 3.113281 -0.679688 3.097656 -0.726562 C 3.0625 -0.828125 3.003906 -0.921875 2.921875 -1.003906 C 2.839844 -1.085938 2.75 -1.144531 2.644531 -1.175781 C 2.597656 -1.191406 2.5625 -1.199219 2.535156 -1.199219 L 6.300781 -1.199219 C 6.273438 -1.199219 6.234375 -1.191406 6.1875 -1.175781 C 6.085938 -1.144531 5.992188 -1.085938 5.910156 -1.003906 C 5.828125 -0.921875 5.769531 -0.828125 5.738281 -0.726562 C 5.722656 -0.679688 5.714844 -0.640625 5.714844 -0.613281 L 5.714844 -9.304688 L 11.277344 -9.304688 L 13.347656 -0.804688 L 13.351562 -0.789062 C 13.332031 -0.882812 13.265625 -0.972656 13.160156 -1.0625 C 13.046875 -1.152344 12.9375 -1.199219 12.828125 -1.199219 L 16.59375 -1.199219 C 16.570312 -1.195312 16.539062 -1.1875 16.507812 -1.175781 C 16.367188 -1.128906 16.246094 -1.039062 16.144531 -0.910156 C 16.042969 -0.777344 15.984375 -0.632812 15.972656 -0.476562 C 15.96875 -0.425781 15.96875 -0.390625 15.976562 -0.371094 L 15.96875 -0.390625 L 13.765625 -9.507812 L 14.496094 -9.96875 C 15.554688 -10.628906 16.085938 -11.851562 16.085938 -13.636719 Z M 6.914062 -14.261719 L 10.753906 -14.261719 C 10.882812 -14.261719 10.980469 -14.273438 11.046875 -14.292969 C 11.058594 -14.300781 11.070312 -14.300781 11.074219 -14.304688 C 11.070312 -14.304688 11.0625 -14.296875 11.058594 -14.292969 C 11.054688 -14.289062 11.050781 -14.28125 11.046875 -14.277344 C 11.050781 -14.28125 11.050781 -14.292969 11.058594 -14.304688 C 11.078125 -14.371094 11.089844 -14.46875 11.089844 -14.597656 L 11.089844 -20.398438 C 11.089844 -20.523438 11.078125 -20.621094 11.058594 -20.6875 C 11.050781 -20.703125 11.050781 -20.710938 11.046875 -20.714844 C 11.050781 -20.710938 11.054688 -20.707031 11.058594 -20.699219 C 11.0625 -20.695312 11.070312 -20.691406 11.074219 -20.6875 C 11.070312 -20.691406 11.058594 -20.695312 11.046875 -20.699219 C 10.980469 -20.722656 10.882812 -20.734375 10.753906 -20.734375 L 6.914062 -20.734375 L 6.914062 -21.933594 L 8.113281 -21.933594 L 8.113281 -13.058594 L 6.914062 -13.058594 Z M 5.714844 -11.859375 L 5.714844 -23.132812 L 10.753906 -23.132812 C 11.597656 -23.132812 12.265625 -22.886719 12.757812 -22.398438 C 13.246094 -21.90625 13.492188 -21.242188 13.492188 -20.398438 L 13.492188 -14.597656 C 13.492188 -13.753906 13.246094 -13.085938 12.757812 -12.59375 C 12.265625 -12.105469 11.597656 -11.859375 10.753906 -11.859375 Z M 5.714844 -11.859375 "/></g></g></g><g fill="#b21a22" fill-opacity="1"><g transform="translate(65.264991, 39.374516)"><g><path d="M 0.71875 -0.613281 L 0.71875 -26.273438 C 0.71875 -26.808594 0.886719 -27.246094 1.226562 -27.582031 C 1.5625 -27.921875 2 -28.089844 2.535156 -28.089844 L 11.753906 -28.089844 C 13.90625 -28.089844 15.566406 -27.496094 16.738281 -26.308594 C 17.902344 -25.128906 18.484375 -23.464844 18.484375 -21.320312 L 18.484375 -5.53125 C 18.484375 -3.410156 17.902344 -1.757812 16.738281 -0.578125 C 15.566406 0.609375 13.90625 1.199219 11.753906 1.199219 L 2.535156 1.199219 C 2 1.199219 1.5625 1.03125 1.226562 0.695312 C 0.886719 0.359375 0.71875 -0.078125 0.71875 -0.613281 Z M 3.121094 -0.613281 C 3.121094 -0.640625 3.113281 -0.679688 3.097656 -0.726562 C 3.0625 -0.828125 3.003906 -0.921875 2.921875 -1.003906 C 2.839844 -1.085938 2.75 -1.144531 2.644531 -1.175781 C 2.597656 -1.191406 2.5625 -1.199219 2.535156 -1.199219 L 11.753906 -1.199219 C 13.238281 -1.199219 14.328125 -1.554688 15.027344 -2.265625 C 15.734375 -2.976562 16.085938 -4.066406 16.085938 -5.53125 L 16.085938 -21.320312 C 16.085938 -22.808594 15.734375 -23.910156 15.027344 -24.625 C 14.328125 -25.332031 13.238281 -25.6875 11.753906 -25.6875 L 2.535156 -25.6875 C 2.5625 -25.6875 2.597656 -25.695312 2.644531 -25.710938 C 2.75 -25.746094 2.839844 -25.804688 2.921875 -25.886719 C 3.003906 -25.96875 3.0625 -26.058594 3.097656 -26.164062 C 3.113281 -26.210938 3.121094 -26.246094 3.121094 -26.273438 Z M 7.144531 -6.269531 L 10.679688 -6.269531 C 10.804688 -6.269531 10.902344 -6.28125 10.972656 -6.304688 C 10.984375 -6.308594 10.992188 -6.3125 10.996094 -6.316406 C 10.992188 -6.3125 10.988281 -6.308594 10.980469 -6.304688 C 10.976562 -6.296875 10.972656 -6.292969 10.96875 -6.289062 C 10.972656 -6.292969 10.976562 -6.300781 10.980469 -6.3125 C 11.003906 -6.382812 11.015625 -6.480469 11.015625 -6.605469 L 11.015625 -20.242188 C 11.015625 -20.378906 11.003906 -20.484375 10.976562 -20.5625 C 10.972656 -20.578125 10.96875 -20.589844 10.960938 -20.597656 C 10.964844 -20.59375 10.96875 -20.589844 10.972656 -20.585938 L 10.960938 -20.582031 C 10.894531 -20.605469 10.800781 -20.617188 10.679688 -20.617188 L 7.144531 -20.617188 L 7.144531 -21.816406 L 8.34375 -21.816406 L 8.34375 -5.070312 L 7.144531 -5.070312 Z M 5.945312 -3.871094 L 5.945312 -23.019531 L 10.679688 -23.019531 C 11.527344 -23.019531 12.199219 -22.765625 12.691406 -22.261719 C 13.171875 -21.765625 13.414062 -21.09375 13.414062 -20.242188 L 13.414062 -6.605469 C 13.414062 -5.761719 13.171875 -5.097656 12.679688 -4.605469 C 12.1875 -4.113281 11.523438 -3.871094 10.679688 -3.871094 Z M 5.945312 -3.871094 "/></g></g></g><g fill="#b21a22" fill-opacity="1"><g transform="translate(84.470117, 39.374516)"><g><path d="M 0.71875 -12.0625 L 0.71875 -15.59375 C 0.71875 -16.183594 0.902344 -16.65625 1.265625 -17.019531 C 1.625 -17.382812 2.101562 -17.5625 2.6875 -17.5625 L 8.757812 -17.5625 C 9.34375 -17.5625 9.820312 -17.382812 10.183594 -17.019531 C 10.546875 -16.65625 10.726562 -16.183594 10.726562 -15.59375 L 10.726562 -12.0625 C 10.726562 -11.472656 10.546875 -11 10.183594 -10.636719 C 9.820312 -10.273438 9.34375 -10.09375 8.757812 -10.09375 L 2.6875 -10.09375 C 2.101562 -10.09375 1.625 -10.273438 1.265625 -10.636719 C 0.902344 -11 0.71875 -11.472656 0.71875 -12.0625 Z M 3.121094 -12.0625 C 3.121094 -12.054688 3.121094 -12.050781 3.121094 -12.046875 C 3.121094 -12.046875 3.121094 -12.050781 3.121094 -12.050781 C 3.117188 -12.066406 3.113281 -12.085938 3.109375 -12.105469 C 3.078125 -12.1875 3.03125 -12.265625 2.960938 -12.332031 C 2.890625 -12.402344 2.816406 -12.453125 2.730469 -12.480469 C 2.710938 -12.488281 2.695312 -12.492188 2.679688 -12.492188 C 2.675781 -12.492188 2.675781 -12.492188 2.675781 -12.492188 C 2.679688 -12.492188 2.683594 -12.492188 2.6875 -12.492188 L 8.757812 -12.492188 C 8.761719 -12.492188 8.769531 -12.492188 8.769531 -12.492188 C 8.753906 -12.492188 8.734375 -12.488281 8.714844 -12.480469 C 8.632812 -12.453125 8.554688 -12.402344 8.484375 -12.332031 C 8.414062 -12.265625 8.367188 -12.1875 8.339844 -12.105469 C 8.332031 -12.085938 8.328125 -12.066406 8.324219 -12.050781 C 8.324219 -12.050781 8.324219 -12.046875 8.324219 -12.046875 C 8.324219 -12.050781 8.324219 -12.054688 8.324219 -12.0625 L 8.324219 -15.59375 C 8.324219 -15.601562 8.324219 -15.605469 8.324219 -15.609375 C 8.324219 -15.609375 8.324219 -15.605469 8.324219 -15.605469 C 8.328125 -15.589844 8.332031 -15.570312 8.339844 -15.550781 C 8.367188 -15.46875 8.414062 -15.390625 8.484375 -15.324219 C 8.554688 -15.253906 8.632812 -15.203125 8.714844 -15.175781 C 8.734375 -15.167969 8.753906 -15.164062 8.769531 -15.164062 C 8.769531 -15.164062 8.761719 -15.164062 8.757812 -15.164062 L 2.6875 -15.164062 C 2.683594 -15.164062 2.679688 -15.164062 2.675781 -15.164062 C 2.675781 -15.164062 2.675781 -15.164062 2.679688 -15.164062 C 2.695312 -15.164062 2.710938 -15.167969 2.730469 -15.175781 C 2.816406 -15.203125 2.890625 -15.253906 2.960938 -15.324219 C 3.03125 -15.390625 3.078125 -15.46875 3.109375 -15.550781 C 3.113281 -15.570312 3.117188 -15.589844 3.121094 -15.605469 C 3.121094 -15.605469 3.121094 -15.609375 3.121094 -15.609375 C 3.121094 -15.605469 3.121094 -15.601562 3.121094 -15.59375 Z M 3.121094 -12.0625 "/></g></g></g><g fill="#b21a22" fill-opacity="1"><g transform="translate(1.484842, 92.746031)"><g><path d="M 18.484375 -26.273438 L 18.484375 -22.433594 C 18.484375 -21.894531 18.316406 -21.460938 17.980469 -21.121094 C 17.644531 -20.785156 17.207031 -20.617188 16.671875 -20.617188 L 7.144531 -20.617188 L 7.144531 -21.816406 L 8.34375 -21.816406 L 8.34375 -15.25 L 7.144531 -15.25 L 7.144531 -16.449219 L 14.367188 -16.449219 C 14.902344 -16.449219 15.339844 -16.28125 15.675781 -15.945312 C 16.011719 -15.609375 16.179688 -15.171875 16.179688 -14.636719 L 16.179688 -10.792969 C 16.179688 -10.257812 16.011719 -9.820312 15.675781 -9.484375 C 15.339844 -9.148438 14.902344 -8.980469 14.367188 -8.980469 L 7.144531 -8.980469 L 7.144531 -10.179688 L 8.34375 -10.179688 L 8.34375 -0.613281 C 8.34375 -0.078125 8.175781 0.359375 7.839844 0.695312 C 7.503906 1.03125 7.066406 1.199219 6.53125 1.199219 L 2.535156 1.199219 C 2 1.199219 1.5625 1.03125 1.226562 0.695312 C 0.886719 0.359375 0.71875 -0.078125 0.71875 -0.613281 L 0.71875 -26.273438 C 0.71875 -26.808594 0.886719 -27.246094 1.226562 -27.582031 C 1.5625 -27.921875 2 -28.089844 2.535156 -28.089844 L 16.671875 -28.089844 C 17.207031 -28.089844 17.644531 -27.921875 17.980469 -27.582031 C 18.316406 -27.246094 18.484375 -26.808594 18.484375 -26.273438 Z M 16.085938 -26.273438 C 16.085938 -26.246094 16.09375 -26.210938 16.109375 -26.164062 C 16.140625 -26.058594 16.199219 -25.96875 16.28125 -25.886719 C 16.363281 -25.804688 16.457031 -25.746094 16.558594 -25.710938 C 16.605469 -25.695312 16.644531 -25.6875 16.671875 -25.6875 L 2.535156 -25.6875 C 2.5625 -25.6875 2.597656 -25.695312 2.644531 -25.710938 C 2.75 -25.746094 2.839844 -25.804688 2.921875 -25.886719 C 3.003906 -25.96875 3.0625 -26.058594 3.097656 -26.164062 C 3.113281 -26.210938 3.121094 -26.246094 3.121094 -26.273438 L 3.121094 -0.613281 C 3.121094 -0.640625 3.113281 -0.679688 3.097656 -0.726562 C 3.0625 -0.828125 3.003906 -0.921875 2.921875 -1.003906 C 2.839844 -1.085938 2.75 -1.144531 2.644531 -1.175781 C 2.597656 -1.191406 2.5625 -1.199219 2.535156 -1.199219 L 6.53125 -1.199219 C 6.503906 -1.199219 6.464844 -1.191406 6.417969 -1.175781 C 6.316406 -1.144531 6.222656 -1.085938 6.140625 -1.003906 C 6.058594 -0.921875 6 -0.828125 5.96875 -0.726562 C 5.953125 -0.679688 5.945312 -0.640625 5.945312 -0.613281 L 5.945312 -11.378906 L 14.367188 -11.378906 C 14.339844 -11.378906 14.300781 -11.371094 14.253906 -11.355469 C 14.152344 -11.324219 14.058594 -11.265625 13.976562 -11.179688 C 13.894531 -11.097656 13.835938 -11.007812 13.804688 -10.90625 C 13.789062 -10.859375 13.78125 -10.820312 13.78125 -10.792969 L 13.78125 -14.636719 C 13.78125 -14.605469 13.789062 -14.570312 13.804688 -14.523438 C 13.835938 -14.421875 13.894531 -14.328125 13.976562 -14.246094 C 14.058594 -14.164062 14.152344 -14.105469 14.253906 -14.070312 C 14.300781 -14.054688 14.339844 -14.050781 14.367188 -14.050781 L 5.945312 -14.050781 L 5.945312 -23.019531 L 16.671875 -23.019531 C 16.644531 -23.019531 16.605469 -23.011719 16.558594 -22.996094 C 16.457031 -22.960938 16.363281 -22.902344 16.28125 -22.820312 C 16.199219 -22.738281 16.140625 -22.644531 16.109375 -22.542969 C 16.09375 -22.496094 16.085938 -22.460938 16.085938 -22.433594 Z M 16.085938 -26.273438 "/></g></g></g><g fill="#b21a22" fill-opacity="1"><g transform="translate(20.689968, 92.746031)"><g><path d="M 18.449219 -26.273438 L 18.449219 -22.433594 C 18.449219 -21.898438 18.289062 -21.460938 17.96875 -21.121094 C 17.628906 -20.757812 17.183594 -20.578125 16.632812 -20.578125 L 7.144531 -20.578125 L 7.144531 -21.78125 L 8.34375 -21.78125 L 8.34375 -15.863281 L 7.144531 -15.863281 L 7.144531 -17.066406 L 14.367188 -17.066406 C 14.917969 -17.066406 15.363281 -16.882812 15.699219 -16.523438 C 16.019531 -16.183594 16.179688 -15.746094 16.179688 -15.210938 L 16.179688 -11.410156 C 16.179688 -10.875 16.019531 -10.4375 15.699219 -10.097656 C 15.363281 -9.734375 14.917969 -9.554688 14.367188 -9.554688 L 7.144531 -9.554688 L 7.144531 -10.753906 L 8.34375 -10.753906 L 8.34375 -5.070312 L 7.144531 -5.070312 L 7.144531 -6.269531 L 16.632812 -6.269531 C 17.167969 -6.269531 17.605469 -6.101562 17.941406 -5.765625 C 18.277344 -5.429688 18.449219 -4.992188 18.449219 -4.457031 L 18.449219 -0.613281 C 18.449219 -0.078125 18.277344 0.359375 17.941406 0.695312 C 17.605469 1.03125 17.167969 1.199219 16.632812 1.199219 L 2.496094 1.199219 C 1.957031 1.199219 1.523438 1.023438 1.1875 0.667969 C 0.875 0.335938 0.71875 -0.09375 0.71875 -0.613281 L 0.71875 -26.273438 C 0.71875 -26.792969 0.875 -27.222656 1.1875 -27.554688 C 1.523438 -27.910156 1.957031 -28.089844 2.496094 -28.089844 L 16.632812 -28.089844 C 17.167969 -28.089844 17.605469 -27.921875 17.941406 -27.582031 C 18.277344 -27.246094 18.449219 -26.808594 18.449219 -26.273438 Z M 16.046875 -26.273438 C 16.046875 -26.246094 16.054688 -26.210938 16.070312 -26.164062 C 16.105469 -26.058594 16.160156 -25.96875 16.246094 -25.886719 C 16.328125 -25.804688 16.417969 -25.746094 16.519531 -25.710938 C 16.566406 -25.695312 16.605469 -25.6875 16.632812 -25.6875 L 2.496094 -25.6875 C 2.652344 -25.6875 2.800781 -25.761719 2.941406 -25.914062 C 3.019531 -25.996094 3.070312 -26.085938 3.101562 -26.183594 C 3.113281 -26.222656 3.121094 -26.253906 3.121094 -26.273438 L 3.121094 -0.613281 C 3.121094 -0.632812 3.113281 -0.664062 3.101562 -0.703125 C 3.070312 -0.800781 3.019531 -0.890625 2.941406 -0.976562 C 2.800781 -1.125 2.652344 -1.199219 2.496094 -1.199219 L 16.632812 -1.199219 C 16.605469 -1.199219 16.566406 -1.191406 16.519531 -1.175781 C 16.417969 -1.144531 16.328125 -1.085938 16.246094 -1.003906 C 16.160156 -0.921875 16.105469 -0.828125 16.070312 -0.726562 C 16.054688 -0.679688 16.046875 -0.640625 16.046875 -0.613281 L 16.046875 -4.457031 C 16.046875 -4.429688 16.054688 -4.390625 16.070312 -4.34375 C 16.105469 -4.242188 16.160156 -4.148438 16.246094 -4.066406 C 16.328125 -3.984375 16.417969 -3.925781 16.519531 -3.894531 C 16.566406 -3.878906 16.605469 -3.871094 16.632812 -3.871094 L 5.945312 -3.871094 L 5.945312 -11.957031 L 14.367188 -11.957031 C 14.332031 -11.957031 14.285156 -11.945312 14.234375 -11.925781 C 14.128906 -11.890625 14.035156 -11.828125 13.953125 -11.742188 C 13.878906 -11.660156 13.824219 -11.574219 13.796875 -11.480469 C 13.785156 -11.445312 13.78125 -11.421875 13.78125 -11.410156 L 13.78125 -15.210938 C 13.78125 -15.195312 13.785156 -15.171875 13.796875 -15.136719 C 13.824219 -15.042969 13.878906 -14.957031 13.953125 -14.878906 C 14.035156 -14.792969 14.128906 -14.730469 14.234375 -14.691406 C 14.285156 -14.671875 14.332031 -14.664062 14.367188 -14.664062 L 5.945312 -14.664062 L 5.945312 -22.980469 L 16.632812 -22.980469 C 16.597656 -22.980469 16.554688 -22.96875 16.5 -22.953125 C 16.394531 -22.914062 16.300781 -22.851562 16.21875 -22.765625 C 16.144531 -22.6875 16.09375 -22.601562 16.0625 -22.507812 C 16.050781 -22.472656 16.046875 -22.445312 16.046875 -22.433594 Z M 16.046875 -26.273438 "/></g></g></g><g fill="#b21a22" fill-opacity="1"><g transform="translate(39.856689, 92.746031)"><g><path d="M 14.097656 -28.089844 L 17.707031 -28.089844 C 18.246094 -28.089844 18.679688 -27.921875 19.019531 -27.582031 C 19.355469 -27.246094 19.523438 -26.808594 19.523438 -26.273438 L 19.523438 -0.613281 C 19.523438 -0.078125 19.355469 0.359375 19.019531 0.695312 C 18.679688 1.03125 18.246094 1.199219 17.707031 1.199219 L 14.671875 1.199219 C 14.261719 1.199219 13.890625 1.082031 13.566406 0.847656 C 13.28125 0.640625 13.054688 0.359375 12.890625 0.00390625 L 13.980469 -0.5 L 12.90625 0.03125 L 5.683594 -14.640625 L 6.761719 -15.171875 L 7.960938 -15.171875 L 7.960938 -0.613281 C 7.960938 -0.078125 7.792969 0.359375 7.457031 0.695312 C 7.117188 1.03125 6.683594 1.199219 6.144531 1.199219 L 2.535156 1.199219 C 2 1.199219 1.5625 1.03125 1.226562 0.695312 C 0.886719 0.359375 0.71875 -0.078125 0.71875 -0.613281 L 0.71875 -26.273438 C 0.71875 -26.808594 0.886719 -27.246094 1.226562 -27.582031 C 1.5625 -27.921875 2 -28.089844 2.535156 -28.089844 L 5.570312 -28.089844 C 5.980469 -28.089844 6.351562 -27.972656 6.675781 -27.738281 C 6.960938 -27.53125 7.1875 -27.25 7.351562 -26.890625 L 6.261719 -26.390625 L 7.339844 -26.917969 L 14.558594 -12.246094 L 13.484375 -11.714844 L 12.28125 -11.714844 L 12.28125 -26.273438 C 12.28125 -26.808594 12.449219 -27.246094 12.789062 -27.582031 C 13.125 -27.921875 13.5625 -28.089844 14.097656 -28.089844 Z M 14.097656 -25.6875 C 14.125 -25.6875 14.160156 -25.695312 14.207031 -25.710938 C 14.308594 -25.746094 14.402344 -25.804688 14.484375 -25.886719 C 14.566406 -25.96875 14.625 -26.058594 14.660156 -26.164062 C 14.675781 -26.210938 14.683594 -26.246094 14.683594 -26.273438 L 14.683594 -11.714844 L 12.40625 -11.183594 L 5.175781 -25.871094 L 5.171875 -25.886719 C 5.183594 -25.863281 5.214844 -25.828125 5.269531 -25.789062 C 5.363281 -25.722656 5.464844 -25.6875 5.570312 -25.6875 L 2.535156 -25.6875 C 2.5625 -25.6875 2.597656 -25.695312 2.644531 -25.710938 C 2.75 -25.746094 2.839844 -25.804688 2.921875 -25.886719 C 3.003906 -25.96875 3.0625 -26.058594 3.097656 -26.164062 C 3.113281 -26.210938 3.121094 -26.246094 3.121094 -26.273438 L 3.121094 -0.613281 C 3.121094 -0.640625 3.113281 -0.679688 3.097656 -0.726562 C 3.0625 -0.828125 3.003906 -0.921875 2.921875 -1.003906 C 2.839844 -1.085938 2.75 -1.144531 2.644531 -1.175781 C 2.597656 -1.191406 2.5625 -1.199219 2.535156 -1.199219 L 6.144531 -1.199219 C 6.117188 -1.199219 6.082031 -1.191406 6.035156 -1.175781 C 5.933594 -1.144531 5.839844 -1.085938 5.757812 -1.003906 C 5.675781 -0.921875 5.617188 -0.828125 5.582031 -0.726562 C 5.566406 -0.679688 5.558594 -0.640625 5.558594 -0.613281 L 5.558594 -15.171875 L 7.835938 -15.703125 L 15.066406 -1.015625 L 15.070312 -1.003906 C 15.0625 -1.027344 15.027344 -1.058594 14.972656 -1.097656 C 14.878906 -1.167969 14.777344 -1.199219 14.671875 -1.199219 L 17.707031 -1.199219 C 17.679688 -1.199219 17.644531 -1.191406 17.597656 -1.175781 C 17.496094 -1.144531 17.402344 -1.085938 17.320312 -1.003906 C 17.238281 -0.921875 17.179688 -0.828125 17.144531 -0.726562 C 17.128906 -0.679688 17.121094 -0.640625 17.121094 -0.613281 L 17.121094 -26.273438 C 17.121094 -26.246094 17.128906 -26.210938 17.144531 -26.164062 C 17.179688 -26.058594 17.238281 -25.96875 17.320312 -25.886719 C 17.402344 -25.804688 17.496094 -25.746094 17.597656 -25.710938 C 17.644531 -25.695312 17.679688 -25.6875 17.707031 -25.6875 Z M 14.097656 -25.6875 "/></g></g></g><g fill="#b21a22" fill-opacity="1"><g transform="translate(60.098897, 92.746031)"><g><path d="M 18.523438 -21.355469 L 18.523438 -17.207031 C 18.523438 -16.671875 18.355469 -16.234375 18.019531 -15.898438 C 17.683594 -15.5625 17.246094 -15.394531 16.710938 -15.394531 L 13.097656 -15.394531 C 12.5625 -15.394531 12.125 -15.5625 11.789062 -15.898438 C 11.453125 -16.234375 11.285156 -16.671875 11.285156 -17.207031 L 11.285156 -20.359375 C 11.285156 -20.484375 11.273438 -20.582031 11.25 -20.652344 C 11.246094 -20.664062 11.242188 -20.671875 11.238281 -20.675781 C 11.242188 -20.671875 11.246094 -20.667969 11.25 -20.660156 C 11.257812 -20.65625 11.261719 -20.652344 11.265625 -20.648438 C 11.261719 -20.652344 11.253906 -20.65625 11.238281 -20.660156 C 11.171875 -20.683594 11.074219 -20.695312 10.949219 -20.695312 L 8.488281 -20.695312 C 8.363281 -20.695312 8.265625 -20.683594 8.195312 -20.660156 C 8.183594 -20.65625 8.175781 -20.652344 8.171875 -20.648438 C 8.175781 -20.652344 8.179688 -20.65625 8.183594 -20.660156 C 8.191406 -20.667969 8.195312 -20.671875 8.199219 -20.675781 C 8.195312 -20.671875 8.191406 -20.664062 8.1875 -20.652344 C 8.164062 -20.582031 8.152344 -20.484375 8.152344 -20.359375 L 8.152344 -6.414062 C 8.152344 -6.289062 8.164062 -6.191406 8.1875 -6.121094 C 8.191406 -6.109375 8.195312 -6.101562 8.199219 -6.097656 C 8.195312 -6.101562 8.191406 -6.105469 8.183594 -6.109375 C 8.179688 -6.117188 8.175781 -6.121094 8.171875 -6.125 C 8.175781 -6.121094 8.183594 -6.117188 8.195312 -6.113281 C 8.265625 -6.089844 8.363281 -6.078125 8.488281 -6.078125 L 10.949219 -6.078125 C 11.074219 -6.078125 11.171875 -6.089844 11.238281 -6.113281 C 11.253906 -6.117188 11.261719 -6.121094 11.265625 -6.125 C 11.261719 -6.121094 11.257812 -6.117188 11.25 -6.109375 C 11.246094 -6.105469 11.242188 -6.101562 11.238281 -6.097656 C 11.242188 -6.101562 11.246094 -6.109375 11.25 -6.121094 C 11.273438 -6.191406 11.285156 -6.289062 11.285156 -6.414062 L 11.285156 -9.679688 C 11.285156 -10.214844 11.453125 -10.652344 11.789062 -10.988281 C 12.125 -11.328125 12.5625 -11.496094 13.097656 -11.496094 L 16.710938 -11.496094 C 17.246094 -11.496094 17.683594 -11.328125 18.019531 -10.988281 C 18.355469 -10.652344 18.523438 -10.214844 18.523438 -9.679688 L 18.523438 -5.53125 C 18.523438 -3.40625 17.933594 -1.753906 16.75 -0.574219 C 15.570312 0.609375 13.917969 1.199219 11.792969 1.199219 L 7.492188 1.199219 C 5.371094 1.199219 3.710938 0.613281 2.519531 -0.566406 C 1.320312 -1.75 0.71875 -3.402344 0.71875 -5.53125 L 0.71875 -21.355469 C 0.71875 -23.511719 1.320312 -25.175781 2.523438 -26.347656 C 3.71875 -27.507812 5.371094 -28.089844 7.492188 -28.089844 L 11.792969 -28.089844 C 13.914062 -28.089844 15.5625 -27.507812 16.746094 -26.339844 C 17.929688 -25.171875 18.523438 -23.507812 18.523438 -21.355469 Z M 16.125 -21.355469 C 16.125 -22.839844 15.769531 -23.933594 15.058594 -24.632812 C 14.34375 -25.335938 13.257812 -25.6875 11.792969 -25.6875 L 7.492188 -25.6875 C 6.023438 -25.6875 4.925781 -25.332031 4.199219 -24.625 C 3.480469 -23.925781 3.121094 -22.835938 3.121094 -21.355469 L 3.121094 -5.53125 C 3.121094 -4.074219 3.480469 -2.988281 4.203125 -2.277344 C 4.929688 -1.558594 6.027344 -1.199219 7.492188 -1.199219 L 11.792969 -1.199219 C 13.253906 -1.199219 14.339844 -1.558594 15.054688 -2.269531 C 15.765625 -2.984375 16.125 -4.070312 16.125 -5.53125 L 16.125 -9.679688 C 16.125 -9.652344 16.128906 -9.617188 16.144531 -9.570312 C 16.179688 -9.464844 16.238281 -9.375 16.320312 -9.292969 C 16.402344 -9.210938 16.496094 -9.152344 16.597656 -9.117188 C 16.644531 -9.101562 16.679688 -9.09375 16.710938 -9.09375 L 13.097656 -9.09375 C 13.125 -9.09375 13.164062 -9.101562 13.210938 -9.117188 C 13.3125 -9.152344 13.402344 -9.210938 13.488281 -9.292969 C 13.570312 -9.375 13.628906 -9.464844 13.660156 -9.570312 C 13.675781 -9.617188 13.683594 -9.652344 13.683594 -9.679688 L 13.683594 -6.414062 C 13.683594 -5.570312 13.4375 -4.902344 12.949219 -4.414062 C 12.457031 -3.921875 11.789062 -3.679688 10.949219 -3.679688 L 8.488281 -3.679688 C 7.644531 -3.679688 6.976562 -3.921875 6.488281 -4.414062 C 5.996094 -4.902344 5.753906 -5.570312 5.753906 -6.414062 L 5.753906 -20.359375 C 5.753906 -21.203125 5.996094 -21.867188 6.488281 -22.359375 C 6.976562 -22.851562 7.644531 -23.09375 8.488281 -23.09375 L 10.949219 -23.09375 C 11.789062 -23.09375 12.457031 -22.851562 12.949219 -22.359375 C 13.4375 -21.867188 13.683594 -21.203125 13.683594 -20.359375 L 13.683594 -17.207031 C 13.683594 -17.234375 13.675781 -17.273438 13.660156 -17.320312 C 13.628906 -17.421875 13.570312 -17.515625 13.488281 -17.597656 C 13.402344 -17.679688 13.3125 -17.738281 13.210938 -17.769531 C 13.164062 -17.785156 13.125 -17.792969 13.097656 -17.792969 L 16.710938 -17.792969 C 16.679688 -17.792969 16.644531 -17.785156 16.597656 -17.769531 C 16.496094 -17.738281 16.402344 -17.679688 16.320312 -17.597656 C 16.238281 -17.515625 16.179688 -17.421875 16.144531 -17.320312 C 16.128906 -17.273438 16.125 -17.234375 16.125 -17.207031 Z M 16.125 -21.355469 "/></g></g></g><g fill="#b21a22" fill-opacity="1"><g transform="translate(79.342437, 92.746031)"><g><path d="M 18.449219 -26.273438 L 18.449219 -22.433594 C 18.449219 -21.898438 18.289062 -21.460938 17.96875 -21.121094 C 17.628906 -20.757812 17.183594 -20.578125 16.632812 -20.578125 L 7.144531 -20.578125 L 7.144531 -21.78125 L 8.34375 -21.78125 L 8.34375 -15.863281 L 7.144531 -15.863281 L 7.144531 -17.066406 L 14.367188 -17.066406 C 14.917969 -17.066406 15.363281 -16.882812 15.699219 -16.523438 C 16.019531 -16.183594 16.179688 -15.746094 16.179688 -15.210938 L 16.179688 -11.410156 C 16.179688 -10.875 16.019531 -10.4375 15.699219 -10.097656 C 15.363281 -9.734375 14.917969 -9.554688 14.367188 -9.554688 L 7.144531 -9.554688 L 7.144531 -10.753906 L 8.34375 -10.753906 L 8.34375 -5.070312 L 7.144531 -5.070312 L 7.144531 -6.269531 L 16.632812 -6.269531 C 17.167969 -6.269531 17.605469 -6.101562 17.941406 -5.765625 C 18.277344 -5.429688 18.449219 -4.992188 18.449219 -4.457031 L 18.449219 -0.613281 C 18.449219 -0.078125 18.277344 0.359375 17.941406 0.695312 C 17.605469 1.03125 17.167969 1.199219 16.632812 1.199219 L 2.496094 1.199219 C 1.957031 1.199219 1.523438 1.023438 1.1875 0.667969 C 0.875 0.335938 0.71875 -0.09375 0.71875 -0.613281 L 0.71875 -26.273438 C 0.71875 -26.792969 0.875 -27.222656 1.1875 -27.554688 C 1.523438 -27.910156 1.957031 -28.089844 2.496094 -28.089844 L 16.632812 -28.089844 C 17.167969 -28.089844 17.605469 -27.921875 17.941406 -27.582031 C 18.277344 -27.246094 18.449219 -26.808594 18.449219 -26.273438 Z M 16.046875 -26.273438 C 16.046875 -26.246094 16.054688 -26.210938 16.070312 -26.164062 C 16.105469 -26.058594 16.160156 -25.96875 16.246094 -25.886719 C 16.328125 -25.804688 16.417969 -25.746094 16.519531 -25.710938 C 16.566406 -25.695312 16.605469 -25.6875 16.632812 -25.6875 L 2.496094 -25.6875 C 2.652344 -25.6875 2.800781 -25.761719 2.941406 -25.914062 C 3.019531 -25.996094 3.070312 -26.085938 3.101562 -26.183594 C 3.113281 -26.222656 3.121094 -26.253906 3.121094 -26.273438 L 3.121094 -0.613281 C 3.121094 -0.632812 3.113281 -0.664062 3.101562 -0.703125 C 3.070312 -0.800781 3.019531 -0.890625 2.941406 -0.976562 C 2.800781 -1.125 2.652344 -1.199219 2.496094 -1.199219 L 16.632812 -1.199219 C 16.605469 -1.199219 16.566406 -1.191406 16.519531 -1.175781 C 16.417969 -1.144531 16.328125 -1.085938 16.246094 -1.003906 C 16.160156 -0.921875 16.105469 -0.828125 16.070312 -0.726562 C 16.054688 -0.679688 16.046875 -0.640625 16.046875 -0.613281 L 16.046875 -4.457031 C 16.046875 -4.429688 16.054688 -4.390625 16.070312 -4.34375 C 16.105469 -4.242188 16.160156 -4.148438 16.246094 -4.066406 C 16.328125 -3.984375 16.417969 -3.925781 16.519531 -3.894531 C 16.566406 -3.878906 16.605469 -3.871094 16.632812 -3.871094 L 5.945312 -3.871094 L 5.945312 -11.957031 L 14.367188 -11.957031 C 14.332031 -11.957031 14.285156 -11.945312 14.234375 -11.925781 C 14.128906 -11.890625 14.035156 -11.828125 13.953125 -11.742188 C 13.878906 -11.660156 13.824219 -11.574219 13.796875 -11.480469 C 13.785156 -11.445312 13.78125 -11.421875 13.78125 -11.410156 L 13.78125 -15.210938 C 13.78125 -15.195312 13.785156 -15.171875 13.796875 -15.136719 C 13.824219 -15.042969 13.878906 -14.957031 13.953125 -14.878906 C 14.035156 -14.792969 14.128906 -14.730469 14.234375 -14.691406 C 14.285156 -14.671875 14.332031 -14.664062 14.367188 -14.664062 L 5.945312 -14.664062 L 5.945312 -22.980469 L 16.632812 -22.980469 C 16.597656 -22.980469 16.554688 -22.96875 16.5 -22.953125 C 16.394531 -22.914062 16.300781 -22.851562 16.21875 -22.765625 C 16.144531 -22.6875 16.09375 -22.601562 16.0625 -22.507812 C 16.050781 -22.472656 16.046875 -22.445312 16.046875 -22.433594 Z M 16.046875 -26.273438 "/></g></g></g><g fill="#060705" fill-opacity="1"><g transform="translate(4.077456, 39.374516)"><g><path d="M 15.28125 -26.890625 L 19.125 -26.890625 C 19.40625 -26.890625 19.609375 -26.804688 19.734375 -26.640625 C 19.867188 -26.472656 19.867188 -26.257812 19.734375 -26 L 12.71875 -10.0625 L 12.71875 -0.765625 C 12.71875 -0.253906 12.457031 0 11.9375 0 L 8.25 0 C 7.738281 0 7.484375 -0.253906 7.484375 -0.765625 L 7.484375 -10.0625 L 0.453125 -26 C 0.359375 -26.257812 0.367188 -26.472656 0.484375 -26.640625 C 0.597656 -26.804688 0.796875 -26.890625 1.078125 -26.890625 L 4.921875 -26.890625 C 5.347656 -26.890625 5.640625 -26.679688 5.796875 -26.265625 L 10.09375 -16.40625 L 14.40625 -26.265625 C 14.550781 -26.679688 14.84375 -26.890625 15.28125 -26.890625 Z M 15.28125 -26.890625 "/></g></g></g><g fill="#060705" fill-opacity="1"><g transform="translate(24.281251, 39.374516)"><g><path d="M 20.046875 0 L 16.328125 0 C 15.992188 0 15.785156 -0.175781 15.703125 -0.53125 L 14.484375 -5.375 L 7.265625 -5.375 L 6.0625 -0.53125 C 5.988281 -0.175781 5.785156 0 5.453125 0 L 1.6875 0 C 1.226562 0 1.0625 -0.21875 1.1875 -0.65625 L 7.5625 -26.34375 C 7.644531 -26.707031 7.863281 -26.890625 8.21875 -26.890625 L 13.5625 -26.890625 C 13.914062 -26.890625 14.128906 -26.707031 14.203125 -26.34375 L 20.578125 -0.65625 C 20.710938 -0.21875 20.535156 0 20.046875 0 Z M 13.28125 -9.828125 L 10.875 -20.28125 L 8.453125 -9.828125 Z M 13.28125 -9.828125 "/></g></g></g><g fill="#060705" fill-opacity="1"><g transform="translate(46.059865, 39.374516)"><g><path d="M 17.28125 -21.359375 L 17.28125 -13.640625 C 17.28125 -11.410156 16.5625 -9.847656 15.125 -8.953125 L 17.125 -0.6875 C 17.257812 -0.226562 17.082031 0 16.59375 0 L 12.828125 0 C 12.472656 0 12.253906 -0.175781 12.171875 -0.53125 L 10.328125 -8.109375 L 6.90625 -8.109375 L 6.90625 -0.609375 C 6.90625 -0.203125 6.703125 0 6.296875 0 L 2.53125 0 C 2.125 0 1.921875 -0.203125 1.921875 -0.609375 L 1.921875 -26.265625 C 1.921875 -26.679688 2.125 -26.890625 2.53125 -26.890625 L 11.75 -26.890625 C 13.570312 -26.890625 14.945312 -26.421875 15.875 -25.484375 C 16.8125 -24.546875 17.28125 -23.171875 17.28125 -21.359375 Z M 6.90625 -13.0625 L 10.75 -13.0625 C 11.78125 -13.0625 12.296875 -13.570312 12.296875 -14.59375 L 12.296875 -20.390625 C 12.296875 -21.421875 11.78125 -21.9375 10.75 -21.9375 L 6.90625 -21.9375 Z M 6.90625 -13.0625 "/></g></g></g><g fill="#060705" fill-opacity="1"><g transform="translate(65.264991, 39.374516)"><g><path d="M 1.921875 -0.609375 L 1.921875 -26.265625 C 1.921875 -26.679688 2.125 -26.890625 2.53125 -26.890625 L 11.75 -26.890625 C 13.570312 -26.890625 14.945312 -26.414062 15.875 -25.46875 C 16.8125 -24.519531 17.28125 -23.132812 17.28125 -21.3125 L 17.28125 -5.53125 C 17.28125 -3.738281 16.8125 -2.367188 15.875 -1.421875 C 14.945312 -0.472656 13.570312 0 11.75 0 L 2.53125 0 C 2.125 0 1.921875 -0.203125 1.921875 -0.609375 Z M 7.140625 -5.0625 L 10.671875 -5.0625 C 11.703125 -5.0625 12.21875 -5.578125 12.21875 -6.609375 L 12.21875 -20.234375 C 12.21875 -21.285156 11.703125 -21.8125 10.671875 -21.8125 L 7.140625 -21.8125 Z M 7.140625 -5.0625 "/></g></g></g><g fill="#060705" fill-opacity="1"><g transform="translate(84.470117, 39.374516)"><g><path d="M 1.921875 -12.0625 L 1.921875 -15.59375 C 1.921875 -16.101562 2.175781 -16.359375 2.6875 -16.359375 L 8.75 -16.359375 C 9.269531 -16.359375 9.53125 -16.101562 9.53125 -15.59375 L 9.53125 -12.0625 C 9.53125 -11.550781 9.269531 -11.296875 8.75 -11.296875 L 2.6875 -11.296875 C 2.175781 -11.296875 1.921875 -11.550781 1.921875 -12.0625 Z M 1.921875 -12.0625 "/></g></g></g><g fill="#060705" fill-opacity="1"><g transform="translate(1.484842, 92.746031)"><g><path d="M 17.28125 -26.265625 L 17.28125 -22.421875 C 17.28125 -22.015625 17.078125 -21.8125 16.671875 -21.8125 L 7.140625 -21.8125 L 7.140625 -15.25 L 14.359375 -15.25 C 14.773438 -15.25 14.984375 -15.039062 14.984375 -14.625 L 14.984375 -10.796875 C 14.984375 -10.378906 14.773438 -10.171875 14.359375 -10.171875 L 7.140625 -10.171875 L 7.140625 -0.609375 C 7.140625 -0.203125 6.9375 0 6.53125 0 L 2.53125 0 C 2.125 0 1.921875 -0.203125 1.921875 -0.609375 L 1.921875 -26.265625 C 1.921875 -26.679688 2.125 -26.890625 2.53125 -26.890625 L 16.671875 -26.890625 C 17.078125 -26.890625 17.28125 -26.679688 17.28125 -26.265625 Z M 17.28125 -26.265625 "/></g></g></g><g fill="#060705" fill-opacity="1"><g transform="translate(20.689968, 92.746031)"><g><path d="M 17.25 -26.265625 L 17.25 -22.421875 C 17.25 -21.992188 17.039062 -21.78125 16.625 -21.78125 L 7.140625 -21.78125 L 7.140625 -15.859375 L 14.359375 -15.859375 C 14.773438 -15.859375 14.984375 -15.640625 14.984375 -15.203125 L 14.984375 -11.40625 C 14.984375 -10.96875 14.773438 -10.75 14.359375 -10.75 L 7.140625 -10.75 L 7.140625 -5.0625 L 16.625 -5.0625 C 17.039062 -5.0625 17.25 -4.859375 17.25 -4.453125 L 17.25 -0.609375 C 17.25 -0.203125 17.039062 0 16.625 0 L 2.5 0 C 2.113281 0 1.921875 -0.203125 1.921875 -0.609375 L 1.921875 -26.265625 C 1.921875 -26.679688 2.113281 -26.890625 2.5 -26.890625 L 16.625 -26.890625 C 17.039062 -26.890625 17.25 -26.679688 17.25 -26.265625 Z M 17.25 -26.265625 "/></g></g></g><g fill="#060705" fill-opacity="1"><g transform="translate(39.856689, 92.746031)"><g><path d="M 14.09375 -26.890625 L 17.703125 -26.890625 C 18.109375 -26.890625 18.3125 -26.679688 18.3125 -26.265625 L 18.3125 -0.609375 C 18.3125 -0.203125 18.109375 0 17.703125 0 L 14.671875 0 C 14.359375 0 14.128906 -0.164062 13.984375 -0.5 L 6.765625 -15.171875 L 6.765625 -0.609375 C 6.765625 -0.203125 6.554688 0 6.140625 0 L 2.53125 0 C 2.125 0 1.921875 -0.203125 1.921875 -0.609375 L 1.921875 -26.265625 C 1.921875 -26.679688 2.125 -26.890625 2.53125 -26.890625 L 5.5625 -26.890625 C 5.875 -26.890625 6.109375 -26.722656 6.265625 -26.390625 L 13.484375 -11.71875 L 13.484375 -26.265625 C 13.484375 -26.679688 13.6875 -26.890625 14.09375 -26.890625 Z M 14.09375 -26.890625 "/></g></g></g><g fill="#060705" fill-opacity="1"><g transform="translate(60.098897, 92.746031)"><g><path d="M 17.328125 -21.359375 L 17.328125 -17.203125 C 17.328125 -16.796875 17.117188 -16.59375 16.703125 -16.59375 L 13.09375 -16.59375 C 12.6875 -16.59375 12.484375 -16.796875 12.484375 -17.203125 L 12.484375 -20.359375 C 12.484375 -21.378906 11.972656 -21.890625 10.953125 -21.890625 L 8.484375 -21.890625 C 7.460938 -21.890625 6.953125 -21.378906 6.953125 -20.359375 L 6.953125 -6.40625 C 6.953125 -5.382812 7.460938 -4.875 8.484375 -4.875 L 10.953125 -4.875 C 11.972656 -4.875 12.484375 -5.382812 12.484375 -6.40625 L 12.484375 -9.671875 C 12.484375 -10.085938 12.6875 -10.296875 13.09375 -10.296875 L 16.703125 -10.296875 C 17.117188 -10.296875 17.328125 -10.085938 17.328125 -9.671875 L 17.328125 -5.53125 C 17.328125 -3.738281 16.851562 -2.367188 15.90625 -1.421875 C 14.957031 -0.472656 13.585938 0 11.796875 0 L 7.484375 0 C 5.691406 0 4.316406 -0.472656 3.359375 -1.421875 C 2.398438 -2.367188 1.921875 -3.738281 1.921875 -5.53125 L 1.921875 -21.359375 C 1.921875 -23.171875 2.398438 -24.546875 3.359375 -25.484375 C 4.316406 -26.421875 5.691406 -26.890625 7.484375 -26.890625 L 11.796875 -26.890625 C 13.585938 -26.890625 14.957031 -26.421875 15.90625 -25.484375 C 16.851562 -24.546875 17.328125 -23.171875 17.328125 -21.359375 Z M 17.328125 -21.359375 "/></g></g></g><g fill="#060705" fill-opacity="1"><g transform="translate(79.342437, 92.746031)"><g><path d="M 17.25 -26.265625 L 17.25 -22.421875 C 17.25 -21.992188 17.039062 -21.78125 16.625 -21.78125 L 7.140625 -21.78125 L 7.140625 -15.859375 L 14.359375 -15.859375 C 14.773438 -15.859375 14.984375 -15.640625 14.984375 -15.203125 L 14.984375 -11.40625 C 14.984375 -10.96875 14.773438 -10.75 14.359375 -10.75 L 7.140625 -10.75 L 7.140625 -5.0625 L 16.625 -5.0625 C 17.039062 -5.0625 17.25 -4.859375 17.25 -4.453125 L 17.25 -0.609375 C 17.25 -0.203125 17.039062 0 16.625 0 L 2.5 0 C 2.113281 0 1.921875 -0.203125 1.921875 -0.609375 L 1.921875 -26.265625 C 1.921875 -26.679688 2.113281 -26.890625 2.5 -26.890625 L 16.625 -26.890625 C 17.039062 -26.890625 17.25 -26.679688 17.25 -26.265625 Z M 17.25 -26.265625 "/></g></g></g></g></g></svg>