<svg xmlns="http://www.w3.org/2000/svg" xmlns:xlink="http://www.w3.org/1999/xlink" width="500" zoomAndPan="magnify" viewBox="0 0 375 374.999991" height="500" preserveAspectRatio="xMidYMid meet" version="1.2"><defs><clipPath id="f32e7e87cb"><path d="M 25 0 L 350 0 L 350 375 L 25 375 Z M 25 0 "/></clipPath><clipPath id="8f383df0b8"><path d="M -55.878906 142.882812 L 268.328125 -46.476562 L 431 232.042969 L 106.789062 421.402344 Z M -55.878906 142.882812 "/></clipPath><clipPath id="88c8d7ec5a"><path d="M 349.546875 92.851562 L 349.859375 279.433594 L 187.8125 374.078125 L 25.453125 282.140625 L 25.140625 95.5625 L 187.1875 0.917969 Z M 349.546875 92.851562 "/></clipPath><clipPath id="bb050e5eca"><path d="M 55.238281 35.632812 L 319.726562 35.632812 L 319.726562 339 L 55.238281 339 Z M 55.238281 35.632812 "/></clipPath></defs><g id="5b736004ac"><g clip-rule="nonzero" clip-path="url(#f32e7e87cb)"><g clip-rule="nonzero" clip-path="url(#8f383df0b8)"><g clip-rule="nonzero" clip-path="url(#88c8d7ec5a)"><path style=" stroke:none;fill-rule:nonzero;fill:#65b30e;fill-opacity:1;" d="M -55.878906 142.882812 L 268.332031 -46.476562 L 431 232.042969 L 106.789062 421.402344 Z M -55.878906 142.882812 "/></g></g></g><path style=" stroke:none;fill-rule:nonzero;fill:#87ff00;fill-opacity:1;" d="M 134.582031 135.703125 L 134.414062 135.535156 L 97.035156 172.914062 L 187.792969 263.503906 L 225.175781 226.296875 L 278.546875 172.914062 L 241.167969 135.535156 L 241.167969 135.363281 L 134.417969 135.363281 Z M 134.582031 135.703125 "/><g clip-rule="nonzero" clip-path="url(#bb050e5eca)"><path style=" stroke:none;fill-rule:nonzero;fill:#87ff00;fill-opacity:1;" d="M 187.453125 35.851562 L 55.269531 111.625 L 55.273438 263.175781 L 187.457031 338.949219 L 319.640625 263.175781 L 319.640625 111.625 L 187.457031 35.855469 Z M 294.375 248.683594 L 187.453125 310.308594 L 80.527344 248.683594 L 80.53125 125.765625 L 187.457031 64.136719 L 294.378906 125.765625 L 294.378906 248.683594 Z M 294.375 248.683594 "/></g><g style="fill:#b21a22;fill-opacity:1;"><g transform="translate(41.173175, 165.727906)"><path style="stroke:none" d="M 29.230469 -33.703125 L 29.230469 -27.15625 C 29.230469 -26.308594 28.964844 -25.621094 28.433594 -25.089844 C 27.902344 -24.558594 27.214844 -24.292969 26.367188 -24.292969 L 20.667969 -24.292969 C 19.824219 -24.292969 19.132812 -24.558594 18.601562 -25.089844 C 18.070312 -25.621094 17.804688 -26.308594 17.804688 -27.15625 L 17.804688 -32.125 C 17.804688 -32.324219 17.789062 -32.480469 17.75 -32.585938 C 17.746094 -32.609375 17.738281 -32.621094 17.734375 -32.628906 C 17.738281 -32.621094 17.746094 -32.613281 17.753906 -32.605469 C 17.761719 -32.597656 17.769531 -32.589844 17.777344 -32.585938 C 17.769531 -32.589844 17.757812 -32.59375 17.738281 -32.601562 C 17.628906 -32.636719 17.472656 -32.65625 17.273438 -32.65625 L 13.394531 -32.65625 C 13.195312 -32.65625 13.042969 -32.636719 12.933594 -32.601562 C 12.914062 -32.59375 12.898438 -32.589844 12.894531 -32.585938 C 12.898438 -32.589844 12.90625 -32.597656 12.917969 -32.605469 C 12.925781 -32.613281 12.933594 -32.621094 12.9375 -32.628906 C 12.933594 -32.621094 12.925781 -32.609375 12.917969 -32.585938 C 12.882812 -32.480469 12.867188 -32.324219 12.867188 -32.125 L 12.867188 -10.121094 C 12.867188 -9.921875 12.882812 -9.769531 12.917969 -9.660156 C 12.925781 -9.640625 12.933594 -9.628906 12.9375 -9.621094 C 12.933594 -9.625 12.925781 -9.636719 12.917969 -9.644531 C 12.90625 -9.652344 12.898438 -9.660156 12.894531 -9.664062 C 12.898438 -9.660156 12.914062 -9.652344 12.933594 -9.648438 C 13.042969 -9.609375 13.195312 -9.59375 13.394531 -9.59375 L 17.273438 -9.59375 C 17.472656 -9.59375 17.628906 -9.609375 17.738281 -9.648438 C 17.757812 -9.652344 17.769531 -9.660156 17.777344 -9.664062 C 17.769531 -9.660156 17.761719 -9.652344 17.753906 -9.644531 C 17.746094 -9.636719 17.738281 -9.625 17.734375 -9.621094 C 17.738281 -9.628906 17.746094 -9.640625 17.75 -9.660156 C 17.789062 -9.769531 17.804688 -9.921875 17.804688 -10.121094 L 17.804688 -15.273438 C 17.804688 -16.121094 18.070312 -16.808594 18.601562 -17.339844 C 19.132812 -17.875 19.824219 -18.140625 20.667969 -18.140625 L 26.367188 -18.140625 C 27.214844 -18.140625 27.902344 -17.875 28.433594 -17.339844 C 28.964844 -16.808594 29.230469 -16.121094 29.230469 -15.273438 L 29.230469 -8.726562 C 29.230469 -5.375 28.300781 -2.769531 26.433594 -0.902344 C 24.570312 0.960938 21.960938 1.894531 18.609375 1.894531 L 11.820312 1.894531 C 8.472656 1.894531 5.859375 0.964844 3.972656 -0.894531 C 2.082031 -2.761719 1.136719 -5.371094 1.136719 -8.726562 L 1.136719 -33.703125 C 1.136719 -37.105469 2.085938 -39.726562 3.984375 -41.574219 C 5.867188 -43.40625 8.476562 -44.324219 11.820312 -44.324219 L 18.609375 -44.324219 C 21.957031 -44.324219 24.5625 -43.40625 26.425781 -41.566406 C 28.296875 -39.71875 29.230469 -37.097656 29.230469 -33.703125 Z M 25.441406 -33.703125 C 25.441406 -36.042969 24.882812 -37.765625 23.765625 -38.871094 C 22.636719 -39.980469 20.917969 -40.535156 18.609375 -40.535156 L 11.820312 -40.535156 C 9.503906 -40.535156 7.773438 -39.976562 6.625 -38.859375 C 5.492188 -37.757812 4.925781 -36.039062 4.925781 -33.703125 L 4.925781 -8.726562 C 4.925781 -6.429688 5.496094 -4.714844 6.632812 -3.589844 C 7.78125 -2.460938 9.507812 -1.894531 11.820312 -1.894531 L 18.609375 -1.894531 C 20.914062 -1.894531 22.628906 -2.457031 23.753906 -3.582031 C 24.878906 -4.707031 25.441406 -6.421875 25.441406 -8.726562 L 25.441406 -15.273438 C 25.441406 -15.230469 25.453125 -15.171875 25.480469 -15.101562 C 25.535156 -14.9375 25.625 -14.792969 25.753906 -14.664062 C 25.886719 -14.53125 26.03125 -14.441406 26.191406 -14.386719 C 26.265625 -14.363281 26.324219 -14.351562 26.367188 -14.351562 L 20.667969 -14.351562 C 20.710938 -14.351562 20.769531 -14.363281 20.84375 -14.386719 C 21.007812 -14.441406 21.152344 -14.53125 21.28125 -14.664062 C 21.410156 -14.792969 21.503906 -14.9375 21.558594 -15.101562 C 21.582031 -15.171875 21.59375 -15.230469 21.59375 -15.273438 L 21.59375 -10.121094 C 21.59375 -8.792969 21.207031 -7.738281 20.433594 -6.964844 C 19.660156 -6.191406 18.605469 -5.804688 17.273438 -5.804688 L 13.394531 -5.804688 C 12.066406 -5.804688 11.011719 -6.191406 10.238281 -6.964844 C 9.464844 -7.738281 9.078125 -8.792969 9.078125 -10.121094 L 9.078125 -32.125 C 9.078125 -33.457031 9.464844 -34.507812 10.238281 -35.285156 C 11.011719 -36.058594 12.066406 -36.445312 13.394531 -36.445312 L 17.273438 -36.445312 C 18.605469 -36.445312 19.660156 -36.058594 20.433594 -35.285156 C 21.207031 -34.507812 21.59375 -33.457031 21.59375 -32.125 L 21.59375 -27.15625 C 21.59375 -27.199219 21.582031 -27.257812 21.558594 -27.328125 C 21.503906 -27.492188 21.410156 -27.636719 21.28125 -27.765625 C 21.152344 -27.898438 21.007812 -27.988281 20.84375 -28.042969 C 20.769531 -28.066406 20.710938 -28.078125 20.667969 -28.078125 L 26.367188 -28.078125 C 26.324219 -28.078125 26.265625 -28.066406 26.191406 -28.042969 C 26.03125 -27.988281 25.886719 -27.898438 25.753906 -27.765625 C 25.625 -27.636719 25.535156 -27.492188 25.480469 -27.328125 C 25.453125 -27.257812 25.441406 -27.199219 25.441406 -27.15625 Z M 25.441406 -33.703125 "/></g></g><g style="fill:#b21a22;fill-opacity:1;"><g transform="translate(71.531478, 165.727906)"><path style="stroke:none" d="M 1.136719 -8.726562 L 1.136719 -33.703125 C 1.136719 -37.097656 2.070312 -39.71875 3.941406 -41.566406 C 5.808594 -43.40625 8.414062 -44.324219 11.757812 -44.324219 L 18.546875 -44.324219 C 21.941406 -44.324219 24.558594 -43.402344 26.402344 -41.558594 C 28.25 -39.710938 29.171875 -37.09375 29.171875 -33.703125 L 29.171875 -8.726562 C 29.171875 -5.382812 28.25 -2.777344 26.414062 -0.914062 C 24.566406 0.957031 21.945312 1.894531 18.546875 1.894531 L 11.757812 1.894531 C 8.40625 1.894531 5.800781 0.960938 3.933594 -0.902344 C 2.070312 -2.769531 1.136719 -5.375 1.136719 -8.726562 Z M 4.925781 -8.726562 C 4.925781 -6.421875 5.488281 -4.707031 6.613281 -3.582031 C 7.738281 -2.457031 9.453125 -1.894531 11.757812 -1.894531 L 18.546875 -1.894531 C 20.890625 -1.894531 22.613281 -2.453125 23.714844 -3.574219 C 24.828125 -4.699219 25.382812 -6.417969 25.382812 -8.726562 L 25.382812 -33.703125 C 25.382812 -36.046875 24.828125 -37.773438 23.726562 -38.878906 C 22.621094 -39.984375 20.894531 -40.535156 18.546875 -40.535156 L 11.757812 -40.535156 C 9.449219 -40.535156 7.730469 -39.980469 6.605469 -38.871094 C 5.484375 -37.765625 4.925781 -36.042969 4.925781 -33.703125 Z M 13.335938 -9.714844 L 17.214844 -9.714844 C 17.414062 -9.714844 17.566406 -9.730469 17.675781 -9.769531 C 17.695312 -9.773438 17.710938 -9.78125 17.71875 -9.785156 C 17.710938 -9.78125 17.703125 -9.773438 17.695312 -9.765625 C 17.683594 -9.757812 17.679688 -9.746094 17.671875 -9.742188 C 17.679688 -9.75 17.683594 -9.761719 17.691406 -9.78125 C 17.726562 -9.890625 17.746094 -10.042969 17.746094 -10.242188 L 17.746094 -32.1875 C 17.746094 -32.386719 17.726562 -32.539062 17.691406 -32.648438 C 17.683594 -32.667969 17.679688 -32.683594 17.671875 -32.6875 C 17.679688 -32.683594 17.683594 -32.675781 17.695312 -32.664062 C 17.703125 -32.65625 17.710938 -32.648438 17.71875 -32.644531 C 17.710938 -32.648438 17.695312 -32.65625 17.675781 -32.664062 C 17.566406 -32.699219 17.414062 -32.714844 17.214844 -32.714844 L 13.335938 -32.714844 C 13.136719 -32.714844 12.980469 -32.699219 12.875 -32.664062 C 12.851562 -32.65625 12.839844 -32.648438 12.832031 -32.644531 C 12.839844 -32.648438 12.847656 -32.65625 12.855469 -32.664062 C 12.863281 -32.675781 12.871094 -32.683594 12.875 -32.6875 C 12.871094 -32.683594 12.867188 -32.667969 12.859375 -32.648438 C 12.824219 -32.539062 12.804688 -32.386719 12.804688 -32.1875 L 12.804688 -10.242188 C 12.804688 -10.042969 12.824219 -9.890625 12.859375 -9.78125 C 12.867188 -9.761719 12.871094 -9.75 12.875 -9.742188 C 12.871094 -9.746094 12.863281 -9.757812 12.855469 -9.765625 C 12.847656 -9.773438 12.839844 -9.78125 12.832031 -9.785156 C 12.839844 -9.78125 12.851562 -9.773438 12.875 -9.769531 C 12.980469 -9.730469 13.136719 -9.714844 13.335938 -9.714844 Z M 13.335938 -5.925781 C 12.003906 -5.925781 10.953125 -6.3125 10.175781 -7.085938 C 9.402344 -7.859375 9.015625 -8.914062 9.015625 -10.242188 L 9.015625 -32.1875 C 9.015625 -33.519531 9.402344 -34.570312 10.175781 -35.34375 C 10.953125 -36.117188 12.003906 -36.503906 13.335938 -36.503906 L 17.214844 -36.503906 C 18.546875 -36.503906 19.597656 -36.117188 20.371094 -35.34375 C 21.144531 -34.570312 21.535156 -33.519531 21.535156 -32.1875 L 21.535156 -10.242188 C 21.535156 -8.914062 21.144531 -7.859375 20.371094 -7.085938 C 19.597656 -6.3125 18.546875 -5.925781 17.214844 -5.925781 Z M 13.335938 -5.925781 "/></g></g><g style="fill:#b21a22;fill-opacity:1;"><g transform="translate(101.829176, 165.727906)"><path style="stroke:none" d="M 22.246094 -44.324219 L 27.941406 -44.324219 C 28.789062 -44.324219 29.480469 -44.058594 30.011719 -43.527344 C 30.542969 -42.996094 30.808594 -42.308594 30.808594 -41.460938 L 30.808594 -0.96875 C 30.808594 -0.125 30.542969 0.566406 30.011719 1.097656 C 29.480469 1.628906 28.789062 1.894531 27.941406 1.894531 L 23.15625 1.894531 C 22.503906 1.894531 21.921875 1.710938 21.410156 1.339844 C 20.957031 1.011719 20.605469 0.570312 20.34375 0.00390625 L 22.0625 -0.789062 L 20.363281 0.046875 L 8.96875 -23.105469 L 10.667969 -23.941406 L 12.5625 -23.941406 L 12.5625 -0.96875 C 12.5625 -0.125 12.296875 0.566406 11.765625 1.097656 C 11.234375 1.628906 10.542969 1.894531 9.699219 1.894531 L 4 1.894531 C 3.152344 1.894531 2.464844 1.628906 1.933594 1.097656 C 1.402344 0.566406 1.136719 -0.125 1.136719 -0.96875 L 1.136719 -41.460938 C 1.136719 -42.308594 1.402344 -42.996094 1.933594 -43.527344 C 2.464844 -44.058594 3.152344 -44.324219 4 -44.324219 L 8.789062 -44.324219 C 9.441406 -44.324219 10.023438 -44.140625 10.535156 -43.769531 C 10.984375 -43.445312 11.339844 -43 11.601562 -42.4375 L 9.878906 -41.640625 L 11.578125 -42.480469 L 22.976562 -19.324219 L 21.277344 -18.488281 L 19.382812 -18.488281 L 19.382812 -41.460938 C 19.382812 -42.308594 19.648438 -42.996094 20.179688 -43.527344 C 20.710938 -44.058594 21.398438 -44.324219 22.246094 -44.324219 Z M 22.246094 -40.535156 C 22.289062 -40.535156 22.347656 -40.546875 22.421875 -40.574219 C 22.582031 -40.625 22.726562 -40.71875 22.859375 -40.847656 C 22.988281 -40.976562 23.078125 -41.125 23.132812 -41.285156 C 23.15625 -41.359375 23.171875 -41.417969 23.171875 -41.460938 L 23.171875 -18.488281 L 19.574219 -17.652344 L 8.171875 -40.828125 L 8.160156 -40.847656 C 8.179688 -40.808594 8.230469 -40.761719 8.316406 -40.699219 C 8.464844 -40.589844 8.625 -40.535156 8.789062 -40.535156 L 4 -40.535156 C 4.042969 -40.535156 4.101562 -40.546875 4.175781 -40.574219 C 4.335938 -40.625 4.484375 -40.71875 4.613281 -40.847656 C 4.742188 -40.976562 4.835938 -41.125 4.886719 -41.285156 C 4.914062 -41.359375 4.925781 -41.417969 4.925781 -41.460938 L 4.925781 -0.96875 C 4.925781 -1.011719 4.914062 -1.070312 4.886719 -1.144531 C 4.835938 -1.304688 4.742188 -1.453125 4.613281 -1.582031 C 4.484375 -1.710938 4.335938 -1.804688 4.175781 -1.859375 C 4.101562 -1.882812 4.042969 -1.894531 4 -1.894531 L 9.699219 -1.894531 C 9.65625 -1.894531 9.597656 -1.882812 9.523438 -1.859375 C 9.363281 -1.804688 9.214844 -1.710938 9.085938 -1.582031 C 8.957031 -1.453125 8.863281 -1.304688 8.808594 -1.144531 C 8.785156 -1.070312 8.773438 -1.011719 8.773438 -0.96875 L 8.773438 -23.941406 L 12.367188 -24.777344 L 23.773438 -1.601562 L 23.785156 -1.582031 C 23.765625 -1.621094 23.714844 -1.671875 23.628906 -1.734375 C 23.476562 -1.839844 23.320312 -1.894531 23.15625 -1.894531 L 27.941406 -1.894531 C 27.898438 -1.894531 27.839844 -1.882812 27.769531 -1.859375 C 27.605469 -1.804688 27.460938 -1.710938 27.332031 -1.582031 C 27.203125 -1.453125 27.109375 -1.304688 27.054688 -1.144531 C 27.03125 -1.070312 27.019531 -1.011719 27.019531 -0.96875 L 27.019531 -41.460938 C 27.019531 -41.417969 27.03125 -41.359375 27.054688 -41.285156 C 27.109375 -41.125 27.203125 -40.976562 27.332031 -40.847656 C 27.460938 -40.71875 27.605469 -40.625 27.769531 -40.574219 C 27.839844 -40.546875 27.898438 -40.535156 27.941406 -40.535156 Z M 22.246094 -40.535156 "/></g></g><g style="fill:#b21a22;fill-opacity:1;"><g transform="translate(133.762961, 165.727906)"><path style="stroke:none" d="M 25.09375 -40.535156 L 2.789062 -40.535156 C 2.832031 -40.535156 2.890625 -40.546875 2.964844 -40.574219 C 3.125 -40.625 3.269531 -40.71875 3.402344 -40.847656 C 3.53125 -40.976562 3.621094 -41.125 3.675781 -41.285156 C 3.699219 -41.359375 3.710938 -41.417969 3.710938 -41.460938 L 3.710938 -35.398438 C 3.710938 -35.441406 3.699219 -35.5 3.675781 -35.574219 C 3.621094 -35.734375 3.53125 -35.882812 3.402344 -36.011719 C 3.269531 -36.140625 3.125 -36.234375 2.964844 -36.285156 C 2.890625 -36.3125 2.832031 -36.324219 2.789062 -36.324219 L 11.714844 -36.324219 L 11.714844 -0.96875 C 11.714844 -1.011719 11.703125 -1.070312 11.675781 -1.144531 C 11.625 -1.304688 11.53125 -1.453125 11.402344 -1.582031 C 11.273438 -1.710938 11.125 -1.804688 10.964844 -1.859375 C 10.890625 -1.882812 10.832031 -1.894531 10.789062 -1.894531 L 17.09375 -1.894531 C 17.050781 -1.894531 16.992188 -1.882812 16.917969 -1.859375 C 16.757812 -1.804688 16.609375 -1.710938 16.480469 -1.582031 C 16.351562 -1.453125 16.257812 -1.304688 16.207031 -1.144531 C 16.179688 -1.070312 16.167969 -1.011719 16.167969 -0.96875 L 16.167969 -36.324219 L 25.09375 -36.324219 C 25.050781 -36.324219 24.992188 -36.3125 24.917969 -36.285156 C 24.757812 -36.234375 24.613281 -36.140625 24.480469 -36.011719 C 24.351562 -35.882812 24.261719 -35.734375 24.207031 -35.574219 C 24.183594 -35.5 24.167969 -35.441406 24.167969 -35.398438 L 24.167969 -41.460938 C 24.167969 -41.417969 24.183594 -41.359375 24.207031 -41.285156 C 24.261719 -41.125 24.351562 -40.976562 24.480469 -40.847656 C 24.613281 -40.71875 24.757812 -40.625 24.917969 -40.574219 C 24.992188 -40.546875 25.050781 -40.535156 25.09375 -40.535156 Z M 25.09375 -44.324219 C 25.941406 -44.324219 26.628906 -44.058594 27.160156 -43.527344 C 27.691406 -42.996094 27.957031 -42.308594 27.957031 -41.460938 L 27.957031 -35.398438 C 27.957031 -34.550781 27.691406 -33.863281 27.160156 -33.332031 C 26.628906 -32.800781 25.941406 -32.535156 25.09375 -32.535156 L 18.0625 -32.535156 L 18.0625 -34.429688 L 19.957031 -34.429688 L 19.957031 -0.96875 C 19.957031 -0.125 19.691406 0.566406 19.160156 1.097656 C 18.628906 1.628906 17.941406 1.894531 17.09375 1.894531 L 10.789062 1.894531 C 9.941406 1.894531 9.253906 1.628906 8.722656 1.097656 C 8.191406 0.566406 7.925781 -0.125 7.925781 -0.96875 L 7.925781 -34.429688 L 9.820312 -34.429688 L 9.820312 -32.535156 L 2.789062 -32.535156 C 1.941406 -32.535156 1.253906 -32.800781 0.722656 -33.332031 C 0.191406 -33.863281 -0.0742188 -34.550781 -0.0742188 -35.398438 L -0.0742188 -41.460938 C -0.0742188 -42.308594 0.191406 -42.996094 0.722656 -43.527344 C 1.253906 -44.058594 1.941406 -44.324219 2.789062 -44.324219 Z M 25.09375 -44.324219 "/></g></g><g style="fill:#b21a22;fill-opacity:1;"><g transform="translate(161.636846, 165.727906)"><path style="stroke:none" d="M 29.171875 -33.703125 L 29.171875 -21.519531 C 29.171875 -17.300781 27.742188 -14.300781 24.886719 -12.515625 L 23.882812 -14.125 L 25.722656 -14.570312 L 28.875 -1.535156 L 27.035156 -1.089844 L 28.859375 -1.597656 C 29.128906 -0.621094 29 0.207031 28.46875 0.890625 C 27.949219 1.558594 27.1875 1.894531 26.183594 1.894531 L 20.246094 1.894531 C 19.507812 1.894531 18.878906 1.679688 18.359375 1.25 C 17.847656 0.828125 17.515625 0.261719 17.363281 -0.453125 L 19.214844 -0.847656 L 17.375 -0.398438 L 14.464844 -12.339844 L 16.304688 -12.789062 L 16.304688 -10.894531 L 10.910156 -10.894531 L 10.910156 -12.789062 L 12.804688 -12.789062 L 12.804688 -0.96875 C 12.804688 -0.125 12.539062 0.566406 12.007812 1.097656 C 11.476562 1.628906 10.789062 1.894531 9.941406 1.894531 L 4 1.894531 C 3.152344 1.894531 2.464844 1.628906 1.933594 1.097656 C 1.402344 0.566406 1.136719 -0.125 1.136719 -0.96875 L 1.136719 -41.460938 C 1.136719 -42.308594 1.402344 -42.996094 1.933594 -43.527344 C 2.464844 -44.058594 3.152344 -44.324219 4 -44.324219 L 18.546875 -44.324219 C 21.941406 -44.324219 24.558594 -43.402344 26.402344 -41.558594 C 28.25 -39.710938 29.171875 -37.09375 29.171875 -33.703125 Z M 25.382812 -33.703125 C 25.382812 -36.046875 24.828125 -37.773438 23.726562 -38.878906 C 22.621094 -39.984375 20.894531 -40.535156 18.546875 -40.535156 L 4 -40.535156 C 4.042969 -40.535156 4.101562 -40.546875 4.175781 -40.574219 C 4.335938 -40.625 4.484375 -40.71875 4.613281 -40.847656 C 4.742188 -40.976562 4.835938 -41.125 4.886719 -41.285156 C 4.914062 -41.359375 4.925781 -41.417969 4.925781 -41.460938 L 4.925781 -0.96875 C 4.925781 -1.011719 4.914062 -1.070312 4.886719 -1.144531 C 4.835938 -1.304688 4.742188 -1.453125 4.613281 -1.582031 C 4.484375 -1.710938 4.335938 -1.804688 4.175781 -1.859375 C 4.101562 -1.882812 4.042969 -1.894531 4 -1.894531 L 9.941406 -1.894531 C 9.898438 -1.894531 9.839844 -1.882812 9.765625 -1.859375 C 9.605469 -1.804688 9.457031 -1.710938 9.328125 -1.582031 C 9.199219 -1.453125 9.105469 -1.304688 9.054688 -1.144531 C 9.027344 -1.070312 9.015625 -1.011719 9.015625 -0.96875 L 9.015625 -14.683594 L 17.792969 -14.683594 L 21.0625 -1.269531 L 21.066406 -1.246094 C 21.035156 -1.394531 20.9375 -1.535156 20.769531 -1.675781 C 20.589844 -1.820312 20.414062 -1.894531 20.246094 -1.894531 L 26.1875 -1.894531 C 26.144531 -1.886719 26.101562 -1.875 26.050781 -1.859375 C 25.828125 -1.78125 25.636719 -1.640625 25.476562 -1.4375 C 25.316406 -1.226562 25.222656 -0.996094 25.207031 -0.753906 C 25.199219 -0.671875 25.199219 -0.613281 25.207031 -0.585938 L 25.199219 -0.613281 L 21.71875 -15.003906 L 22.878906 -15.730469 C 24.546875 -16.773438 25.382812 -18.703125 25.382812 -21.519531 Z M 10.910156 -22.503906 L 16.972656 -22.503906 C 17.171875 -22.503906 17.324219 -22.519531 17.433594 -22.558594 C 17.453125 -22.5625 17.46875 -22.570312 17.476562 -22.574219 C 17.46875 -22.570312 17.460938 -22.5625 17.449219 -22.554688 C 17.441406 -22.546875 17.433594 -22.539062 17.429688 -22.53125 C 17.4375 -22.539062 17.441406 -22.550781 17.449219 -22.570312 C 17.484375 -22.679688 17.503906 -22.835938 17.503906 -23.035156 L 17.503906 -32.1875 C 17.503906 -32.386719 17.484375 -32.539062 17.449219 -32.648438 C 17.441406 -32.667969 17.4375 -32.683594 17.429688 -32.6875 C 17.433594 -32.683594 17.441406 -32.675781 17.449219 -32.664062 C 17.460938 -32.65625 17.46875 -32.648438 17.476562 -32.644531 C 17.46875 -32.648438 17.453125 -32.65625 17.433594 -32.664062 C 17.324219 -32.699219 17.171875 -32.714844 16.972656 -32.714844 L 10.910156 -32.714844 L 10.910156 -34.609375 L 12.804688 -34.609375 L 12.804688 -20.609375 L 10.910156 -20.609375 Z M 9.015625 -18.714844 L 9.015625 -36.503906 L 16.972656 -36.503906 C 18.304688 -36.503906 19.355469 -36.117188 20.128906 -35.34375 C 20.902344 -34.570312 21.289062 -33.519531 21.289062 -32.1875 L 21.289062 -23.035156 C 21.289062 -21.703125 20.902344 -20.648438 20.128906 -19.875 C 19.355469 -19.101562 18.304688 -18.714844 16.972656 -18.714844 Z M 9.015625 -18.714844 "/></g></g><g style="fill:#b21a22;fill-opacity:1;"><g transform="translate(191.934544, 165.727906)"><path style="stroke:none" d="M 1.136719 -8.726562 L 1.136719 -33.703125 C 1.136719 -37.097656 2.070312 -39.71875 3.941406 -41.566406 C 5.808594 -43.40625 8.414062 -44.324219 11.757812 -44.324219 L 18.546875 -44.324219 C 21.941406 -44.324219 24.558594 -43.402344 26.402344 -41.558594 C 28.25 -39.710938 29.171875 -37.09375 29.171875 -33.703125 L 29.171875 -8.726562 C 29.171875 -5.382812 28.25 -2.777344 26.414062 -0.914062 C 24.566406 0.957031 21.945312 1.894531 18.546875 1.894531 L 11.757812 1.894531 C 8.40625 1.894531 5.800781 0.960938 3.933594 -0.902344 C 2.070312 -2.769531 1.136719 -5.375 1.136719 -8.726562 Z M 4.925781 -8.726562 C 4.925781 -6.421875 5.488281 -4.707031 6.613281 -3.582031 C 7.738281 -2.457031 9.453125 -1.894531 11.757812 -1.894531 L 18.546875 -1.894531 C 20.890625 -1.894531 22.613281 -2.453125 23.714844 -3.574219 C 24.828125 -4.699219 25.382812 -6.417969 25.382812 -8.726562 L 25.382812 -33.703125 C 25.382812 -36.046875 24.828125 -37.773438 23.726562 -38.878906 C 22.621094 -39.984375 20.894531 -40.535156 18.546875 -40.535156 L 11.757812 -40.535156 C 9.449219 -40.535156 7.730469 -39.980469 6.605469 -38.871094 C 5.484375 -37.765625 4.925781 -36.042969 4.925781 -33.703125 Z M 13.335938 -9.714844 L 17.214844 -9.714844 C 17.414062 -9.714844 17.566406 -9.730469 17.675781 -9.769531 C 17.695312 -9.773438 17.710938 -9.78125 17.71875 -9.785156 C 17.710938 -9.78125 17.703125 -9.773438 17.695312 -9.765625 C 17.683594 -9.757812 17.679688 -9.746094 17.671875 -9.742188 C 17.679688 -9.75 17.683594 -9.761719 17.691406 -9.78125 C 17.726562 -9.890625 17.746094 -10.042969 17.746094 -10.242188 L 17.746094 -32.1875 C 17.746094 -32.386719 17.726562 -32.539062 17.691406 -32.648438 C 17.683594 -32.667969 17.679688 -32.683594 17.671875 -32.6875 C 17.679688 -32.683594 17.683594 -32.675781 17.695312 -32.664062 C 17.703125 -32.65625 17.710938 -32.648438 17.71875 -32.644531 C 17.710938 -32.648438 17.695312 -32.65625 17.675781 -32.664062 C 17.566406 -32.699219 17.414062 -32.714844 17.214844 -32.714844 L 13.335938 -32.714844 C 13.136719 -32.714844 12.980469 -32.699219 12.875 -32.664062 C 12.851562 -32.65625 12.839844 -32.648438 12.832031 -32.644531 C 12.839844 -32.648438 12.847656 -32.65625 12.855469 -32.664062 C 12.863281 -32.675781 12.871094 -32.683594 12.875 -32.6875 C 12.871094 -32.683594 12.867188 -32.667969 12.859375 -32.648438 C 12.824219 -32.539062 12.804688 -32.386719 12.804688 -32.1875 L 12.804688 -10.242188 C 12.804688 -10.042969 12.824219 -9.890625 12.859375 -9.78125 C 12.867188 -9.761719 12.871094 -9.75 12.875 -9.742188 C 12.871094 -9.746094 12.863281 -9.757812 12.855469 -9.765625 C 12.847656 -9.773438 12.839844 -9.78125 12.832031 -9.785156 C 12.839844 -9.78125 12.851562 -9.773438 12.875 -9.769531 C 12.980469 -9.730469 13.136719 -9.714844 13.335938 -9.714844 Z M 13.335938 -5.925781 C 12.003906 -5.925781 10.953125 -6.3125 10.175781 -7.085938 C 9.402344 -7.859375 9.015625 -8.914062 9.015625 -10.242188 L 9.015625 -32.1875 C 9.015625 -33.519531 9.402344 -34.570312 10.175781 -35.34375 C 10.953125 -36.117188 12.003906 -36.503906 13.335938 -36.503906 L 17.214844 -36.503906 C 18.546875 -36.503906 19.597656 -36.117188 20.371094 -35.34375 C 21.144531 -34.570312 21.535156 -33.519531 21.535156 -32.1875 L 21.535156 -10.242188 C 21.535156 -8.914062 21.144531 -7.859375 20.371094 -7.085938 C 19.597656 -6.3125 18.546875 -5.925781 17.214844 -5.925781 Z M 13.335938 -5.925781 "/></g></g><g style="fill:#b21a22;fill-opacity:1;"><g transform="translate(222.232242, 165.727906)"><path style="stroke:none" d="M 9.378906 -8 L 9.378906 -41.460938 C 9.378906 -41.417969 9.390625 -41.359375 9.417969 -41.285156 C 9.46875 -41.125 9.5625 -40.976562 9.691406 -40.847656 C 9.824219 -40.71875 9.96875 -40.625 10.128906 -40.574219 C 10.203125 -40.546875 10.261719 -40.535156 10.304688 -40.535156 L 4 -40.535156 C 4.042969 -40.535156 4.101562 -40.546875 4.175781 -40.574219 C 4.335938 -40.625 4.484375 -40.71875 4.613281 -40.847656 C 4.742188 -40.976562 4.835938 -41.125 4.886719 -41.285156 C 4.914062 -41.359375 4.925781 -41.417969 4.925781 -41.460938 L 4.925781 -0.96875 C 4.925781 -1.011719 4.914062 -1.070312 4.886719 -1.144531 C 4.835938 -1.304688 4.742188 -1.453125 4.613281 -1.582031 C 4.484375 -1.710938 4.335938 -1.804688 4.175781 -1.859375 C 4.101562 -1.882812 4.042969 -1.894531 4 -1.894531 L 23.277344 -1.894531 C 23.234375 -1.894531 23.175781 -1.882812 23.101562 -1.859375 C 22.941406 -1.804688 22.792969 -1.710938 22.664062 -1.582031 C 22.535156 -1.453125 22.441406 -1.304688 22.386719 -1.144531 C 22.363281 -1.070312 22.351562 -1.011719 22.351562 -0.96875 L 22.351562 -7.03125 C 22.351562 -6.988281 22.363281 -6.929688 22.386719 -6.855469 C 22.441406 -6.695312 22.535156 -6.550781 22.664062 -6.417969 C 22.792969 -6.289062 22.941406 -6.195312 23.101562 -6.144531 C 23.175781 -6.117188 23.234375 -6.105469 23.277344 -6.105469 L 9.378906 -6.105469 Z M 13.167969 -8 L 11.273438 -8 L 11.273438 -9.894531 L 23.277344 -9.894531 C 24.121094 -9.894531 24.8125 -9.628906 25.34375 -9.097656 C 25.875 -8.566406 26.140625 -7.878906 26.140625 -7.03125 L 26.140625 -0.96875 C 26.140625 -0.125 25.875 0.566406 25.34375 1.097656 C 24.8125 1.628906 24.121094 1.894531 23.277344 1.894531 L 4 1.894531 C 3.152344 1.894531 2.464844 1.628906 1.933594 1.097656 C 1.402344 0.566406 1.136719 -0.125 1.136719 -0.96875 L 1.136719 -41.460938 C 1.136719 -42.308594 1.402344 -42.996094 1.933594 -43.527344 C 2.464844 -44.058594 3.152344 -44.324219 4 -44.324219 L 10.304688 -44.324219 C 11.152344 -44.324219 11.839844 -44.058594 12.371094 -43.527344 C 12.902344 -42.996094 13.167969 -42.308594 13.167969 -41.460938 Z M 13.167969 -8 "/></g></g><g style="fill:#b21a22;fill-opacity:1;"><g transform="translate(249.500168, 165.727906)"><path style="stroke:none" d="M 9.378906 -8 L 9.378906 -41.460938 C 9.378906 -41.417969 9.390625 -41.359375 9.417969 -41.285156 C 9.46875 -41.125 9.5625 -40.976562 9.691406 -40.847656 C 9.824219 -40.71875 9.96875 -40.625 10.128906 -40.574219 C 10.203125 -40.546875 10.261719 -40.535156 10.304688 -40.535156 L 4 -40.535156 C 4.042969 -40.535156 4.101562 -40.546875 4.175781 -40.574219 C 4.335938 -40.625 4.484375 -40.71875 4.613281 -40.847656 C 4.742188 -40.976562 4.835938 -41.125 4.886719 -41.285156 C 4.914062 -41.359375 4.925781 -41.417969 4.925781 -41.460938 L 4.925781 -0.96875 C 4.925781 -1.011719 4.914062 -1.070312 4.886719 -1.144531 C 4.835938 -1.304688 4.742188 -1.453125 4.613281 -1.582031 C 4.484375 -1.710938 4.335938 -1.804688 4.175781 -1.859375 C 4.101562 -1.882812 4.042969 -1.894531 4 -1.894531 L 23.277344 -1.894531 C 23.234375 -1.894531 23.175781 -1.882812 23.101562 -1.859375 C 22.941406 -1.804688 22.792969 -1.710938 22.664062 -1.582031 C 22.535156 -1.453125 22.441406 -1.304688 22.386719 -1.144531 C 22.363281 -1.070312 22.351562 -1.011719 22.351562 -0.96875 L 22.351562 -7.03125 C 22.351562 -6.988281 22.363281 -6.929688 22.386719 -6.855469 C 22.441406 -6.695312 22.535156 -6.550781 22.664062 -6.417969 C 22.792969 -6.289062 22.941406 -6.195312 23.101562 -6.144531 C 23.175781 -6.117188 23.234375 -6.105469 23.277344 -6.105469 L 9.378906 -6.105469 Z M 13.167969 -8 L 11.273438 -8 L 11.273438 -9.894531 L 23.277344 -9.894531 C 24.121094 -9.894531 24.8125 -9.628906 25.34375 -9.097656 C 25.875 -8.566406 26.140625 -7.878906 26.140625 -7.03125 L 26.140625 -0.96875 C 26.140625 -0.125 25.875 0.566406 25.34375 1.097656 C 24.8125 1.628906 24.121094 1.894531 23.277344 1.894531 L 4 1.894531 C 3.152344 1.894531 2.464844 1.628906 1.933594 1.097656 C 1.402344 0.566406 1.136719 -0.125 1.136719 -0.96875 L 1.136719 -41.460938 C 1.136719 -42.308594 1.402344 -42.996094 1.933594 -43.527344 C 2.464844 -44.058594 3.152344 -44.324219 4 -44.324219 L 10.304688 -44.324219 C 11.152344 -44.324219 11.839844 -44.058594 12.371094 -43.527344 C 12.902344 -42.996094 13.167969 -42.308594 13.167969 -41.460938 Z M 13.167969 -8 "/></g></g><g style="fill:#b21a22;fill-opacity:1;"><g transform="translate(276.768094, 165.727906)"><path style="stroke:none" d="M 29.109375 -41.460938 L 29.109375 -35.398438 C 29.109375 -34.554688 28.859375 -33.863281 28.351562 -33.328125 C 27.816406 -32.757812 27.113281 -32.472656 26.246094 -32.472656 L 11.273438 -32.472656 L 11.273438 -34.367188 L 13.167969 -34.367188 L 13.167969 -25.035156 L 11.273438 -25.035156 L 11.273438 -26.929688 L 22.667969 -26.929688 C 23.539062 -26.929688 24.242188 -26.644531 24.777344 -26.074219 C 25.28125 -25.539062 25.535156 -24.847656 25.535156 -24.003906 L 25.535156 -18.003906 C 25.535156 -17.160156 25.28125 -16.46875 24.777344 -15.929688 C 24.242188 -15.363281 23.539062 -15.078125 22.667969 -15.078125 L 11.273438 -15.078125 L 11.273438 -16.972656 L 13.167969 -16.972656 L 13.167969 -8 L 11.273438 -8 L 11.273438 -9.894531 L 26.246094 -9.894531 C 27.09375 -9.894531 27.78125 -9.628906 28.3125 -9.097656 C 28.84375 -8.566406 29.109375 -7.878906 29.109375 -7.03125 L 29.109375 -0.96875 C 29.109375 -0.125 28.84375 0.566406 28.3125 1.097656 C 27.78125 1.628906 27.09375 1.894531 26.246094 1.894531 L 3.941406 1.894531 C 3.089844 1.894531 2.402344 1.613281 1.875 1.054688 C 1.382812 0.527344 1.136719 -0.148438 1.136719 -0.96875 L 1.136719 -41.460938 C 1.136719 -42.28125 1.382812 -42.957031 1.875 -43.484375 C 2.402344 -44.042969 3.089844 -44.324219 3.941406 -44.324219 L 26.246094 -44.324219 C 27.09375 -44.324219 27.78125 -44.058594 28.3125 -43.527344 C 28.84375 -42.996094 29.109375 -42.308594 29.109375 -41.460938 Z M 25.320312 -41.460938 C 25.320312 -41.417969 25.332031 -41.359375 25.359375 -41.285156 C 25.410156 -41.125 25.503906 -40.976562 25.632812 -40.847656 C 25.765625 -40.71875 25.910156 -40.625 26.070312 -40.574219 C 26.144531 -40.546875 26.203125 -40.535156 26.246094 -40.535156 L 3.941406 -40.535156 C 4.183594 -40.535156 4.417969 -40.65625 4.640625 -40.890625 C 4.761719 -41.023438 4.847656 -41.164062 4.894531 -41.320312 C 4.914062 -41.382812 4.925781 -41.429688 4.925781 -41.460938 L 4.925781 -0.96875 C 4.925781 -1 4.914062 -1.046875 4.894531 -1.109375 C 4.847656 -1.265625 4.761719 -1.40625 4.640625 -1.539062 C 4.417969 -1.777344 4.183594 -1.894531 3.941406 -1.894531 L 26.246094 -1.894531 C 26.203125 -1.894531 26.144531 -1.882812 26.070312 -1.859375 C 25.910156 -1.804688 25.765625 -1.710938 25.632812 -1.582031 C 25.503906 -1.453125 25.410156 -1.304688 25.359375 -1.144531 C 25.332031 -1.070312 25.320312 -1.011719 25.320312 -0.96875 L 25.320312 -7.03125 C 25.320312 -6.988281 25.332031 -6.929688 25.359375 -6.855469 C 25.410156 -6.695312 25.503906 -6.550781 25.632812 -6.417969 C 25.765625 -6.289062 25.910156 -6.195312 26.070312 -6.144531 C 26.144531 -6.117188 26.203125 -6.105469 26.246094 -6.105469 L 9.378906 -6.105469 L 9.378906 -18.867188 L 22.667969 -18.867188 C 22.613281 -18.867188 22.546875 -18.851562 22.460938 -18.820312 C 22.292969 -18.761719 22.148438 -18.664062 22.019531 -18.527344 C 21.898438 -18.402344 21.816406 -18.265625 21.773438 -18.117188 C 21.753906 -18.0625 21.746094 -18.023438 21.746094 -18.003906 L 21.746094 -24.003906 C 21.746094 -23.980469 21.753906 -23.941406 21.773438 -23.886719 C 21.816406 -23.738281 21.898438 -23.601562 22.019531 -23.476562 C 22.148438 -23.339844 22.292969 -23.242188 22.460938 -23.183594 C 22.546875 -23.152344 22.613281 -23.140625 22.667969 -23.140625 L 9.378906 -23.140625 L 9.378906 -36.261719 L 26.246094 -36.261719 C 26.191406 -36.261719 26.121094 -36.246094 26.039062 -36.21875 C 25.871094 -36.160156 25.722656 -36.0625 25.59375 -35.925781 C 25.476562 -35.800781 25.394531 -35.664062 25.347656 -35.515625 C 25.332031 -35.460938 25.320312 -35.421875 25.320312 -35.398438 Z M 25.320312 -41.460938 "/></g></g><g style="fill:#b21a22;fill-opacity:1;"><g transform="translate(307.005187, 165.727906)"><path style="stroke:none" d="M 29.171875 -33.703125 L 29.171875 -21.519531 C 29.171875 -17.300781 27.742188 -14.300781 24.886719 -12.515625 L 23.882812 -14.125 L 25.722656 -14.570312 L 28.875 -1.535156 L 27.035156 -1.089844 L 28.859375 -1.597656 C 29.128906 -0.621094 29 0.207031 28.46875 0.890625 C 27.949219 1.558594 27.1875 1.894531 26.183594 1.894531 L 20.246094 1.894531 C 19.507812 1.894531 18.878906 1.679688 18.359375 1.25 C 17.847656 0.828125 17.515625 0.261719 17.363281 -0.453125 L 19.214844 -0.847656 L 17.375 -0.398438 L 14.464844 -12.339844 L 16.304688 -12.789062 L 16.304688 -10.894531 L 10.910156 -10.894531 L 10.910156 -12.789062 L 12.804688 -12.789062 L 12.804688 -0.96875 C 12.804688 -0.125 12.539062 0.566406 12.007812 1.097656 C 11.476562 1.628906 10.789062 1.894531 9.941406 1.894531 L 4 1.894531 C 3.152344 1.894531 2.464844 1.628906 1.933594 1.097656 C 1.402344 0.566406 1.136719 -0.125 1.136719 -0.96875 L 1.136719 -41.460938 C 1.136719 -42.308594 1.402344 -42.996094 1.933594 -43.527344 C 2.464844 -44.058594 3.152344 -44.324219 4 -44.324219 L 18.546875 -44.324219 C 21.941406 -44.324219 24.558594 -43.402344 26.402344 -41.558594 C 28.25 -39.710938 29.171875 -37.09375 29.171875 -33.703125 Z M 25.382812 -33.703125 C 25.382812 -36.046875 24.828125 -37.773438 23.726562 -38.878906 C 22.621094 -39.984375 20.894531 -40.535156 18.546875 -40.535156 L 4 -40.535156 C 4.042969 -40.535156 4.101562 -40.546875 4.175781 -40.574219 C 4.335938 -40.625 4.484375 -40.71875 4.613281 -40.847656 C 4.742188 -40.976562 4.835938 -41.125 4.886719 -41.285156 C 4.914062 -41.359375 4.925781 -41.417969 4.925781 -41.460938 L 4.925781 -0.96875 C 4.925781 -1.011719 4.914062 -1.070312 4.886719 -1.144531 C 4.835938 -1.304688 4.742188 -1.453125 4.613281 -1.582031 C 4.484375 -1.710938 4.335938 -1.804688 4.175781 -1.859375 C 4.101562 -1.882812 4.042969 -1.894531 4 -1.894531 L 9.941406 -1.894531 C 9.898438 -1.894531 9.839844 -1.882812 9.765625 -1.859375 C 9.605469 -1.804688 9.457031 -1.710938 9.328125 -1.582031 C 9.199219 -1.453125 9.105469 -1.304688 9.054688 -1.144531 C 9.027344 -1.070312 9.015625 -1.011719 9.015625 -0.96875 L 9.015625 -14.683594 L 17.792969 -14.683594 L 21.0625 -1.269531 L 21.066406 -1.246094 C 21.035156 -1.394531 20.9375 -1.535156 20.769531 -1.675781 C 20.589844 -1.820312 20.414062 -1.894531 20.246094 -1.894531 L 26.1875 -1.894531 C 26.144531 -1.886719 26.101562 -1.875 26.050781 -1.859375 C 25.828125 -1.78125 25.636719 -1.640625 25.476562 -1.4375 C 25.316406 -1.226562 25.222656 -0.996094 25.207031 -0.753906 C 25.199219 -0.671875 25.199219 -0.613281 25.207031 -0.585938 L 25.199219 -0.613281 L 21.71875 -15.003906 L 22.878906 -15.730469 C 24.546875 -16.773438 25.382812 -18.703125 25.382812 -21.519531 Z M 10.910156 -22.503906 L 16.972656 -22.503906 C 17.171875 -22.503906 17.324219 -22.519531 17.433594 -22.558594 C 17.453125 -22.5625 17.46875 -22.570312 17.476562 -22.574219 C 17.46875 -22.570312 17.460938 -22.5625 17.449219 -22.554688 C 17.441406 -22.546875 17.433594 -22.539062 17.429688 -22.53125 C 17.4375 -22.539062 17.441406 -22.550781 17.449219 -22.570312 C 17.484375 -22.679688 17.503906 -22.835938 17.503906 -23.035156 L 17.503906 -32.1875 C 17.503906 -32.386719 17.484375 -32.539062 17.449219 -32.648438 C 17.441406 -32.667969 17.4375 -32.683594 17.429688 -32.6875 C 17.433594 -32.683594 17.441406 -32.675781 17.449219 -32.664062 C 17.460938 -32.65625 17.46875 -32.648438 17.476562 -32.644531 C 17.46875 -32.648438 17.453125 -32.65625 17.433594 -32.664062 C 17.324219 -32.699219 17.171875 -32.714844 16.972656 -32.714844 L 10.910156 -32.714844 L 10.910156 -34.609375 L 12.804688 -34.609375 L 12.804688 -20.609375 L 10.910156 -20.609375 Z M 9.015625 -18.714844 L 9.015625 -36.503906 L 16.972656 -36.503906 C 18.304688 -36.503906 19.355469 -36.117188 20.128906 -35.34375 C 20.902344 -34.570312 21.289062 -33.519531 21.289062 -32.1875 L 21.289062 -23.035156 C 21.289062 -21.703125 20.902344 -20.648438 20.128906 -19.875 C 19.355469 -19.101562 18.304688 -18.714844 16.972656 -18.714844 Z M 9.015625 -18.714844 "/></g></g><g style="fill:#b21a22;fill-opacity:1;"><g transform="translate(39.396608, 250.234892)"><path style="stroke:none" d="M -1.894531 8.121094 L -1.894531 2.546875 C -1.894531 1.617188 -1.609375 0.867188 -1.035156 0.296875 C -0.464844 -0.273438 0.285156 -0.5625 1.210938 -0.5625 L 37.761719 -0.5625 C 38.691406 -0.5625 39.441406 -0.273438 40.011719 0.296875 C 40.582031 0.867188 40.871094 1.617188 40.871094 2.546875 L 40.871094 8.121094 C 40.871094 9.050781 40.582031 9.800781 40.011719 10.371094 C 39.441406 10.941406 38.691406 11.230469 37.761719 11.230469 L 1.210938 11.230469 C 0.285156 11.230469 -0.464844 10.941406 -1.035156 10.371094 C -1.609375 9.800781 -1.894531 9.050781 -1.894531 8.121094 Z M 1.894531 8.121094 C 1.894531 8.128906 1.894531 8.136719 1.894531 8.144531 C 1.894531 8.144531 1.894531 8.140625 1.894531 8.136719 C 1.890625 8.113281 1.882812 8.085938 1.871094 8.054688 C 1.828125 7.921875 1.753906 7.800781 1.640625 7.691406 C 1.53125 7.582031 1.414062 7.503906 1.28125 7.460938 C 1.25 7.449219 1.21875 7.445312 1.195312 7.441406 C 1.191406 7.441406 1.191406 7.441406 1.191406 7.441406 C 1.195312 7.441406 1.203125 7.441406 1.210938 7.441406 L 37.761719 7.441406 C 37.769531 7.441406 37.777344 7.441406 37.785156 7.441406 C 37.785156 7.441406 37.78125 7.441406 37.777344 7.441406 C 37.753906 7.445312 37.726562 7.449219 37.695312 7.460938 C 37.5625 7.503906 37.441406 7.582031 37.332031 7.691406 C 37.222656 7.800781 37.144531 7.921875 37.101562 8.054688 C 37.089844 8.085938 37.085938 8.113281 37.082031 8.136719 C 37.082031 8.140625 37.082031 8.144531 37.082031 8.144531 C 37.082031 8.136719 37.082031 8.128906 37.082031 8.121094 L 37.082031 2.546875 C 37.082031 2.539062 37.082031 2.53125 37.082031 2.523438 C 37.082031 2.523438 37.082031 2.527344 37.082031 2.53125 C 37.085938 2.554688 37.089844 2.582031 37.101562 2.613281 C 37.144531 2.746094 37.222656 2.867188 37.332031 2.976562 C 37.441406 3.085938 37.5625 3.164062 37.695312 3.207031 C 37.726562 3.21875 37.753906 3.222656 37.777344 3.226562 C 37.78125 3.226562 37.785156 3.226562 37.785156 3.226562 C 37.777344 3.226562 37.769531 3.226562 37.761719 3.226562 L 1.210938 3.226562 C 1.203125 3.226562 1.195312 3.226562 1.191406 3.226562 C 1.191406 3.226562 1.191406 3.226562 1.195312 3.226562 C 1.21875 3.222656 1.25 3.21875 1.28125 3.207031 C 1.414062 3.164062 1.53125 3.085938 1.640625 2.976562 C 1.753906 2.867188 1.828125 2.746094 1.871094 2.613281 C 1.882812 2.582031 1.890625 2.554688 1.894531 2.53125 C 1.894531 2.527344 1.894531 2.523438 1.894531 2.523438 C 1.894531 2.53125 1.894531 2.539062 1.894531 2.546875 Z M 1.894531 8.121094 "/></g></g><g style="fill:#b21a22;fill-opacity:1;"><g transform="translate(78.359455, 250.234892)"><path style="stroke:none" d="M 23.214844 -44.324219 L 28.730469 -44.324219 C 29.792969 -44.324219 30.605469 -43.980469 31.167969 -43.296875 C 31.738281 -42.597656 31.90625 -41.722656 31.667969 -40.675781 L 22.027344 -0.648438 C 21.855469 0.121094 21.488281 0.734375 20.929688 1.195312 C 20.359375 1.660156 19.664062 1.894531 18.851562 1.894531 L 12.789062 1.894531 C 11.996094 1.894531 11.3125 1.660156 10.742188 1.195312 C 10.210938 0.757812 9.839844 0.164062 9.632812 -0.585938 L 9.621094 -0.617188 L 0.0351562 -40.65625 C -0.203125 -41.714844 -0.0390625 -42.597656 0.535156 -43.296875 C 1.09375 -43.980469 1.90625 -44.324219 2.96875 -44.324219 L 8.484375 -44.324219 C 9.300781 -44.324219 9.992188 -44.089844 10.566406 -43.625 C 11.125 -43.164062 11.492188 -42.539062 11.667969 -41.75 L 17.671875 -14.347656 L 15.820312 -13.941406 L 13.972656 -14.351562 L 20.042969 -41.796875 L 20.054688 -41.847656 C 20.265625 -42.59375 20.636719 -43.1875 21.167969 -43.625 C 21.738281 -44.089844 22.421875 -44.324219 23.214844 -44.324219 Z M 23.214844 -40.535156 C 23.324219 -40.535156 23.441406 -40.585938 23.566406 -40.691406 C 23.628906 -40.742188 23.675781 -40.796875 23.707031 -40.851562 C 23.714844 -40.859375 23.71875 -40.867188 23.71875 -40.871094 C 23.714844 -40.863281 23.710938 -40.851562 23.707031 -40.832031 L 21.882812 -41.339844 L 23.730469 -40.929688 L 17.671875 -13.53125 L 13.96875 -13.535156 L 7.96875 -40.929688 C 7.96875 -40.9375 7.964844 -40.945312 7.964844 -40.945312 C 7.972656 -40.929688 7.980469 -40.914062 7.988281 -40.898438 C 8.03125 -40.820312 8.089844 -40.753906 8.164062 -40.691406 C 8.292969 -40.585938 8.398438 -40.535156 8.484375 -40.535156 L 2.96875 -40.535156 C 2.941406 -40.535156 2.921875 -40.535156 2.914062 -40.535156 C 2.933594 -40.535156 2.960938 -40.542969 2.996094 -40.554688 C 3.171875 -40.617188 3.328125 -40.730469 3.464844 -40.898438 C 3.609375 -41.070312 3.691406 -41.253906 3.714844 -41.453125 C 3.71875 -41.492188 3.71875 -41.527344 3.71875 -41.554688 C 3.71875 -41.550781 3.71875 -41.542969 3.722656 -41.539062 L 13.296875 -1.53125 L 11.457031 -1.089844 L 13.28125 -1.597656 C 13.285156 -1.582031 13.289062 -1.566406 13.292969 -1.558594 C 13.292969 -1.5625 13.289062 -1.570312 13.28125 -1.578125 C 13.25 -1.636719 13.203125 -1.6875 13.140625 -1.738281 C 13.015625 -1.84375 12.898438 -1.894531 12.789062 -1.894531 L 18.851562 -1.894531 C 18.765625 -1.894531 18.65625 -1.84375 18.53125 -1.738281 C 18.453125 -1.675781 18.394531 -1.609375 18.355469 -1.535156 C 18.34375 -1.515625 18.335938 -1.5 18.332031 -1.484375 C 18.332031 -1.488281 18.335938 -1.503906 18.34375 -1.535156 L 27.976562 -41.515625 C 27.980469 -41.539062 27.984375 -41.550781 27.984375 -41.554688 C 27.980469 -41.527344 27.980469 -41.492188 27.988281 -41.453125 C 28.011719 -41.253906 28.09375 -41.070312 28.234375 -40.898438 C 28.371094 -40.730469 28.527344 -40.617188 28.707031 -40.554688 C 28.738281 -40.542969 28.765625 -40.535156 28.789062 -40.535156 C 28.777344 -40.535156 28.757812 -40.535156 28.730469 -40.535156 Z M 23.214844 -40.535156 "/></g></g><g style="fill:#b21a22;fill-opacity:1;"><g transform="translate(110.050841, 250.234892)"><path style="stroke:none" d="M 31.640625 1.894531 L 25.761719 1.894531 C 25.023438 1.894531 24.394531 1.667969 23.878906 1.214844 C 23.398438 0.796875 23.085938 0.242188 22.9375 -0.453125 L 24.792969 -0.847656 L 22.957031 -0.382812 L 21.015625 -8.019531 L 22.851562 -8.484375 L 22.851562 -6.589844 L 11.457031 -6.589844 L 11.457031 -8.484375 L 13.296875 -8.035156 L 11.417969 -0.394531 L 9.578125 -0.847656 L 11.429688 -0.453125 C 11.28125 0.242188 10.96875 0.796875 10.492188 1.214844 C 9.972656 1.667969 9.34375 1.894531 8.605469 1.894531 L 2.667969 1.894531 C 1.679688 1.894531 0.929688 1.5625 0.417969 0.894531 C -0.101562 0.210938 -0.21875 -0.605469 0.0625 -1.566406 L 1.878906 -1.03125 L 0.0390625 -1.488281 L 10.101562 -42.039062 L 11.941406 -41.582031 L 10.089844 -41.976562 C 10.242188 -42.691406 10.574219 -43.257812 11.085938 -43.679688 C 11.605469 -44.109375 12.234375 -44.324219 12.972656 -44.324219 L 21.398438 -44.324219 C 22.132812 -44.324219 22.761719 -44.109375 23.28125 -43.679688 C 23.792969 -43.257812 24.125 -42.691406 24.28125 -41.976562 L 22.425781 -41.582031 L 24.265625 -42.039062 L 34.328125 -1.488281 L 32.488281 -1.03125 L 34.308594 -1.566406 C 34.597656 -0.578125 34.457031 0.257812 33.890625 0.945312 C 33.371094 1.578125 32.621094 1.894531 31.640625 1.894531 Z M 31.640625 -1.894531 C 31.652344 -1.894531 31.660156 -1.894531 31.664062 -1.894531 C 31.664062 -1.894531 31.660156 -1.894531 31.65625 -1.894531 C 31.621094 -1.890625 31.582031 -1.878906 31.535156 -1.863281 C 31.320312 -1.792969 31.128906 -1.660156 30.964844 -1.460938 C 30.785156 -1.242188 30.683594 -0.996094 30.660156 -0.726562 C 30.652344 -0.625 30.65625 -0.546875 30.671875 -0.496094 L 30.660156 -0.535156 L 20.582031 -41.15625 L 20.574219 -41.183594 C 20.605469 -41.039062 20.707031 -40.894531 20.875 -40.753906 C 21.050781 -40.609375 21.226562 -40.535156 21.398438 -40.535156 L 12.972656 -40.535156 C 13.140625 -40.535156 13.316406 -40.609375 13.492188 -40.753906 C 13.660156 -40.894531 13.761719 -41.039062 13.792969 -41.183594 L 13.785156 -41.15625 L 3.707031 -0.535156 L 3.695312 -0.496094 C 3.707031 -0.535156 3.710938 -0.601562 3.707031 -0.691406 C 3.691406 -0.949219 3.597656 -1.1875 3.429688 -1.410156 C 3.265625 -1.625 3.0625 -1.773438 2.828125 -1.855469 C 2.753906 -1.882812 2.699219 -1.894531 2.667969 -1.894531 L 8.605469 -1.894531 C 8.394531 -1.894531 8.191406 -1.808594 7.996094 -1.636719 C 7.84375 -1.503906 7.753906 -1.371094 7.726562 -1.246094 L 7.730469 -1.273438 L 9.972656 -10.378906 L 24.324219 -10.378906 L 26.636719 -1.28125 L 26.644531 -1.246094 C 26.617188 -1.371094 26.527344 -1.503906 26.371094 -1.636719 C 26.175781 -1.808594 25.972656 -1.894531 25.761719 -1.894531 Z M 19.128906 -15.089844 L 15.308594 -31.578125 L 17.152344 -32.003906 L 19 -31.578125 L 15.179688 -15.089844 L 13.335938 -15.515625 L 13.335938 -17.410156 L 20.972656 -17.410156 L 20.972656 -15.515625 Z M 23.355469 -13.621094 L 10.953125 -13.621094 L 15.308594 -32.433594 L 19 -32.433594 L 22.816406 -15.945312 Z M 23.355469 -13.621094 "/></g></g><g style="fill:#b21a22;fill-opacity:1;"><g transform="translate(144.408438, 250.234892)"><path style="stroke:none" d="M 9.378906 -8 L 9.378906 -41.460938 C 9.378906 -41.417969 9.390625 -41.359375 9.417969 -41.285156 C 9.46875 -41.125 9.5625 -40.976562 9.691406 -40.847656 C 9.824219 -40.71875 9.96875 -40.625 10.128906 -40.574219 C 10.203125 -40.546875 10.261719 -40.535156 10.304688 -40.535156 L 4 -40.535156 C 4.042969 -40.535156 4.101562 -40.546875 4.175781 -40.574219 C 4.335938 -40.625 4.484375 -40.71875 4.613281 -40.847656 C 4.742188 -40.976562 4.835938 -41.125 4.886719 -41.285156 C 4.914062 -41.359375 4.925781 -41.417969 4.925781 -41.460938 L 4.925781 -0.96875 C 4.925781 -1.011719 4.914062 -1.070312 4.886719 -1.144531 C 4.835938 -1.304688 4.742188 -1.453125 4.613281 -1.582031 C 4.484375 -1.710938 4.335938 -1.804688 4.175781 -1.859375 C 4.101562 -1.882812 4.042969 -1.894531 4 -1.894531 L 23.277344 -1.894531 C 23.234375 -1.894531 23.175781 -1.882812 23.101562 -1.859375 C 22.941406 -1.804688 22.792969 -1.710938 22.664062 -1.582031 C 22.535156 -1.453125 22.441406 -1.304688 22.386719 -1.144531 C 22.363281 -1.070312 22.351562 -1.011719 22.351562 -0.96875 L 22.351562 -7.03125 C 22.351562 -6.988281 22.363281 -6.929688 22.386719 -6.855469 C 22.441406 -6.695312 22.535156 -6.550781 22.664062 -6.417969 C 22.792969 -6.289062 22.941406 -6.195312 23.101562 -6.144531 C 23.175781 -6.117188 23.234375 -6.105469 23.277344 -6.105469 L 9.378906 -6.105469 Z M 13.167969 -8 L 11.273438 -8 L 11.273438 -9.894531 L 23.277344 -9.894531 C 24.121094 -9.894531 24.8125 -9.628906 25.34375 -9.097656 C 25.875 -8.566406 26.140625 -7.878906 26.140625 -7.03125 L 26.140625 -0.96875 C 26.140625 -0.125 25.875 0.566406 25.34375 1.097656 C 24.8125 1.628906 24.121094 1.894531 23.277344 1.894531 L 4 1.894531 C 3.152344 1.894531 2.464844 1.628906 1.933594 1.097656 C 1.402344 0.566406 1.136719 -0.125 1.136719 -0.96875 L 1.136719 -41.460938 C 1.136719 -42.308594 1.402344 -42.996094 1.933594 -43.527344 C 2.464844 -44.058594 3.152344 -44.324219 4 -44.324219 L 10.304688 -44.324219 C 11.152344 -44.324219 11.839844 -44.058594 12.371094 -43.527344 C 12.902344 -42.996094 13.167969 -42.308594 13.167969 -41.460938 Z M 13.167969 -8 "/></g></g><g style="fill:#b21a22;fill-opacity:1;"><g transform="translate(171.676364, 250.234892)"><path style="stroke:none" d="M 4 -1.894531 L 10.304688 -1.894531 C 10.261719 -1.894531 10.203125 -1.882812 10.128906 -1.859375 C 9.96875 -1.804688 9.824219 -1.710938 9.691406 -1.582031 C 9.5625 -1.453125 9.46875 -1.304688 9.417969 -1.144531 C 9.390625 -1.070312 9.378906 -1.011719 9.378906 -0.96875 L 9.378906 -41.460938 C 9.378906 -41.417969 9.390625 -41.359375 9.417969 -41.285156 C 9.46875 -41.125 9.5625 -40.976562 9.691406 -40.847656 C 9.824219 -40.71875 9.96875 -40.625 10.128906 -40.574219 C 10.203125 -40.546875 10.261719 -40.535156 10.304688 -40.535156 L 4 -40.535156 C 4.042969 -40.535156 4.101562 -40.546875 4.175781 -40.574219 C 4.335938 -40.625 4.484375 -40.71875 4.613281 -40.847656 C 4.742188 -40.976562 4.835938 -41.125 4.886719 -41.285156 C 4.914062 -41.359375 4.925781 -41.417969 4.925781 -41.460938 L 4.925781 -0.96875 C 4.925781 -1.011719 4.914062 -1.070312 4.886719 -1.144531 C 4.835938 -1.304688 4.742188 -1.453125 4.613281 -1.582031 C 4.484375 -1.710938 4.335938 -1.804688 4.175781 -1.859375 C 4.101562 -1.882812 4.042969 -1.894531 4 -1.894531 Z M 4 1.894531 C 3.152344 1.894531 2.464844 1.628906 1.933594 1.097656 C 1.402344 0.566406 1.136719 -0.125 1.136719 -0.96875 L 1.136719 -41.460938 C 1.136719 -42.308594 1.402344 -42.996094 1.933594 -43.527344 C 2.464844 -44.058594 3.152344 -44.324219 4 -44.324219 L 10.304688 -44.324219 C 11.152344 -44.324219 11.839844 -44.058594 12.371094 -43.527344 C 12.902344 -42.996094 13.167969 -42.308594 13.167969 -41.460938 L 13.167969 -0.96875 C 13.167969 -0.125 12.902344 0.566406 12.371094 1.097656 C 11.839844 1.628906 11.152344 1.894531 10.304688 1.894531 Z M 4 1.894531 "/></g></g><g style="fill:#b21a22;fill-opacity:1;"><g transform="translate(185.976868, 250.234892)"><path style="stroke:none" d="M 1.136719 -0.96875 L 1.136719 -41.460938 C 1.136719 -42.308594 1.402344 -42.996094 1.933594 -43.527344 C 2.464844 -44.058594 3.152344 -44.324219 4 -44.324219 L 18.546875 -44.324219 C 21.945312 -44.324219 24.566406 -43.390625 26.414062 -41.519531 C 28.25 -39.652344 29.171875 -37.027344 29.171875 -33.640625 L 29.171875 -8.726562 C 29.171875 -5.382812 28.25 -2.777344 26.414062 -0.914062 C 24.566406 0.957031 21.945312 1.894531 18.546875 1.894531 L 4 1.894531 C 3.152344 1.894531 2.464844 1.628906 1.933594 1.097656 C 1.402344 0.566406 1.136719 -0.125 1.136719 -0.96875 Z M 4.925781 -0.96875 C 4.925781 -1.011719 4.914062 -1.070312 4.886719 -1.144531 C 4.835938 -1.304688 4.742188 -1.453125 4.613281 -1.582031 C 4.484375 -1.710938 4.335938 -1.804688 4.175781 -1.859375 C 4.101562 -1.882812 4.042969 -1.894531 4 -1.894531 L 18.546875 -1.894531 C 20.890625 -1.894531 22.613281 -2.453125 23.714844 -3.574219 C 24.828125 -4.699219 25.382812 -6.417969 25.382812 -8.726562 L 25.382812 -33.640625 C 25.382812 -35.992188 24.828125 -37.730469 23.714844 -38.855469 C 22.613281 -39.976562 20.890625 -40.535156 18.546875 -40.535156 L 4 -40.535156 C 4.042969 -40.535156 4.101562 -40.546875 4.175781 -40.574219 C 4.335938 -40.625 4.484375 -40.71875 4.613281 -40.847656 C 4.742188 -40.976562 4.835938 -41.125 4.886719 -41.285156 C 4.914062 -41.359375 4.925781 -41.417969 4.925781 -41.460938 Z M 11.273438 -9.894531 L 16.851562 -9.894531 C 17.050781 -9.894531 17.203125 -9.914062 17.3125 -9.949219 C 17.332031 -9.957031 17.347656 -9.960938 17.355469 -9.964844 C 17.347656 -9.960938 17.339844 -9.957031 17.328125 -9.945312 C 17.320312 -9.9375 17.3125 -9.929688 17.308594 -9.921875 C 17.316406 -9.929688 17.320312 -9.945312 17.328125 -9.964844 C 17.363281 -10.074219 17.382812 -10.226562 17.382812 -10.425781 L 17.382812 -31.945312 C 17.382812 -32.15625 17.363281 -32.324219 17.324219 -32.445312 C 17.3125 -32.472656 17.304688 -32.488281 17.300781 -32.5 C 17.300781 -32.496094 17.304688 -32.492188 17.3125 -32.484375 L 17.300781 -32.480469 C 17.195312 -32.515625 17.046875 -32.535156 16.851562 -32.535156 L 11.273438 -32.535156 L 11.273438 -34.429688 L 13.167969 -34.429688 L 13.167969 -8 L 11.273438 -8 Z M 9.378906 -6.105469 L 9.378906 -36.324219 L 16.851562 -36.324219 C 18.191406 -36.324219 19.25 -35.925781 20.023438 -35.128906 C 20.789062 -34.347656 21.167969 -33.285156 21.167969 -31.945312 L 21.167969 -10.425781 C 21.167969 -9.09375 20.78125 -8.042969 20.007812 -7.269531 C 19.234375 -6.492188 18.183594 -6.105469 16.851562 -6.105469 Z M 9.378906 -6.105469 "/></g></g><g style="fill:#b21a22;fill-opacity:1;"><g transform="translate(216.274566, 250.234892)"><path style="stroke:none" d="M 31.640625 1.894531 L 25.761719 1.894531 C 25.023438 1.894531 24.394531 1.667969 23.878906 1.214844 C 23.398438 0.796875 23.085938 0.242188 22.9375 -0.453125 L 24.792969 -0.847656 L 22.957031 -0.382812 L 21.015625 -8.019531 L 22.851562 -8.484375 L 22.851562 -6.589844 L 11.457031 -6.589844 L 11.457031 -8.484375 L 13.296875 -8.035156 L 11.417969 -0.394531 L 9.578125 -0.847656 L 11.429688 -0.453125 C 11.28125 0.242188 10.96875 0.796875 10.492188 1.214844 C 9.972656 1.667969 9.34375 1.894531 8.605469 1.894531 L 2.667969 1.894531 C 1.679688 1.894531 0.929688 1.5625 0.417969 0.894531 C -0.101562 0.210938 -0.21875 -0.605469 0.0625 -1.566406 L 1.878906 -1.03125 L 0.0390625 -1.488281 L 10.101562 -42.039062 L 11.941406 -41.582031 L 10.089844 -41.976562 C 10.242188 -42.691406 10.574219 -43.257812 11.085938 -43.679688 C 11.605469 -44.109375 12.234375 -44.324219 12.972656 -44.324219 L 21.398438 -44.324219 C 22.132812 -44.324219 22.761719 -44.109375 23.28125 -43.679688 C 23.792969 -43.257812 24.125 -42.691406 24.28125 -41.976562 L 22.425781 -41.582031 L 24.265625 -42.039062 L 34.328125 -1.488281 L 32.488281 -1.03125 L 34.308594 -1.566406 C 34.597656 -0.578125 34.457031 0.257812 33.890625 0.945312 C 33.371094 1.578125 32.621094 1.894531 31.640625 1.894531 Z M 31.640625 -1.894531 C 31.652344 -1.894531 31.660156 -1.894531 31.664062 -1.894531 C 31.664062 -1.894531 31.660156 -1.894531 31.65625 -1.894531 C 31.621094 -1.890625 31.582031 -1.878906 31.535156 -1.863281 C 31.320312 -1.792969 31.128906 -1.660156 30.964844 -1.460938 C 30.785156 -1.242188 30.683594 -0.996094 30.660156 -0.726562 C 30.652344 -0.625 30.65625 -0.546875 30.671875 -0.496094 L 30.660156 -0.535156 L 20.582031 -41.15625 L 20.574219 -41.183594 C 20.605469 -41.039062 20.707031 -40.894531 20.875 -40.753906 C 21.050781 -40.609375 21.226562 -40.535156 21.398438 -40.535156 L 12.972656 -40.535156 C 13.140625 -40.535156 13.316406 -40.609375 13.492188 -40.753906 C 13.660156 -40.894531 13.761719 -41.039062 13.792969 -41.183594 L 13.785156 -41.15625 L 3.707031 -0.535156 L 3.695312 -0.496094 C 3.707031 -0.535156 3.710938 -0.601562 3.707031 -0.691406 C 3.691406 -0.949219 3.597656 -1.1875 3.429688 -1.410156 C 3.265625 -1.625 3.0625 -1.773438 2.828125 -1.855469 C 2.753906 -1.882812 2.699219 -1.894531 2.667969 -1.894531 L 8.605469 -1.894531 C 8.394531 -1.894531 8.191406 -1.808594 7.996094 -1.636719 C 7.84375 -1.503906 7.753906 -1.371094 7.726562 -1.246094 L 7.730469 -1.273438 L 9.972656 -10.378906 L 24.324219 -10.378906 L 26.636719 -1.28125 L 26.644531 -1.246094 C 26.617188 -1.371094 26.527344 -1.503906 26.371094 -1.636719 C 26.175781 -1.808594 25.972656 -1.894531 25.761719 -1.894531 Z M 19.128906 -15.089844 L 15.308594 -31.578125 L 17.152344 -32.003906 L 19 -31.578125 L 15.179688 -15.089844 L 13.335938 -15.515625 L 13.335938 -17.410156 L 20.972656 -17.410156 L 20.972656 -15.515625 Z M 23.355469 -13.621094 L 10.953125 -13.621094 L 15.308594 -32.433594 L 19 -32.433594 L 22.816406 -15.945312 Z M 23.355469 -13.621094 "/></g></g><g style="fill:#b21a22;fill-opacity:1;"><g transform="translate(250.632162, 250.234892)"><path style="stroke:none" d="M 25.09375 -40.535156 L 2.789062 -40.535156 C 2.832031 -40.535156 2.890625 -40.546875 2.964844 -40.574219 C 3.125 -40.625 3.269531 -40.71875 3.402344 -40.847656 C 3.53125 -40.976562 3.621094 -41.125 3.675781 -41.285156 C 3.699219 -41.359375 3.710938 -41.417969 3.710938 -41.460938 L 3.710938 -35.398438 C 3.710938 -35.441406 3.699219 -35.5 3.675781 -35.574219 C 3.621094 -35.734375 3.53125 -35.882812 3.402344 -36.011719 C 3.269531 -36.140625 3.125 -36.234375 2.964844 -36.285156 C 2.890625 -36.3125 2.832031 -36.324219 2.789062 -36.324219 L 11.714844 -36.324219 L 11.714844 -0.96875 C 11.714844 -1.011719 11.703125 -1.070312 11.675781 -1.144531 C 11.625 -1.304688 11.53125 -1.453125 11.402344 -1.582031 C 11.273438 -1.710938 11.125 -1.804688 10.964844 -1.859375 C 10.890625 -1.882812 10.832031 -1.894531 10.789062 -1.894531 L 17.09375 -1.894531 C 17.050781 -1.894531 16.992188 -1.882812 16.917969 -1.859375 C 16.757812 -1.804688 16.609375 -1.710938 16.480469 -1.582031 C 16.351562 -1.453125 16.257812 -1.304688 16.207031 -1.144531 C 16.179688 -1.070312 16.167969 -1.011719 16.167969 -0.96875 L 16.167969 -36.324219 L 25.09375 -36.324219 C 25.050781 -36.324219 24.992188 -36.3125 24.917969 -36.285156 C 24.757812 -36.234375 24.613281 -36.140625 24.480469 -36.011719 C 24.351562 -35.882812 24.261719 -35.734375 24.207031 -35.574219 C 24.183594 -35.5 24.167969 -35.441406 24.167969 -35.398438 L 24.167969 -41.460938 C 24.167969 -41.417969 24.183594 -41.359375 24.207031 -41.285156 C 24.261719 -41.125 24.351562 -40.976562 24.480469 -40.847656 C 24.613281 -40.71875 24.757812 -40.625 24.917969 -40.574219 C 24.992188 -40.546875 25.050781 -40.535156 25.09375 -40.535156 Z M 25.09375 -44.324219 C 25.941406 -44.324219 26.628906 -44.058594 27.160156 -43.527344 C 27.691406 -42.996094 27.957031 -42.308594 27.957031 -41.460938 L 27.957031 -35.398438 C 27.957031 -34.550781 27.691406 -33.863281 27.160156 -33.332031 C 26.628906 -32.800781 25.941406 -32.535156 25.09375 -32.535156 L 18.0625 -32.535156 L 18.0625 -34.429688 L 19.957031 -34.429688 L 19.957031 -0.96875 C 19.957031 -0.125 19.691406 0.566406 19.160156 1.097656 C 18.628906 1.628906 17.941406 1.894531 17.09375 1.894531 L 10.789062 1.894531 C 9.941406 1.894531 9.253906 1.628906 8.722656 1.097656 C 8.191406 0.566406 7.925781 -0.125 7.925781 -0.96875 L 7.925781 -34.429688 L 9.820312 -34.429688 L 9.820312 -32.535156 L 2.789062 -32.535156 C 1.941406 -32.535156 1.253906 -32.800781 0.722656 -33.332031 C 0.191406 -33.863281 -0.0742188 -34.550781 -0.0742188 -35.398438 L -0.0742188 -41.460938 C -0.0742188 -42.308594 0.191406 -42.996094 0.722656 -43.527344 C 1.253906 -44.058594 1.941406 -44.324219 2.789062 -44.324219 Z M 25.09375 -44.324219 "/></g></g><g style="fill:#b21a22;fill-opacity:1;"><g transform="translate(278.506048, 250.234892)"><path style="stroke:none" d="M 1.136719 -8.726562 L 1.136719 -33.703125 C 1.136719 -37.097656 2.070312 -39.71875 3.941406 -41.566406 C 5.808594 -43.40625 8.414062 -44.324219 11.757812 -44.324219 L 18.546875 -44.324219 C 21.941406 -44.324219 24.558594 -43.402344 26.402344 -41.558594 C 28.25 -39.710938 29.171875 -37.09375 29.171875 -33.703125 L 29.171875 -8.726562 C 29.171875 -5.382812 28.25 -2.777344 26.414062 -0.914062 C 24.566406 0.957031 21.945312 1.894531 18.546875 1.894531 L 11.757812 1.894531 C 8.40625 1.894531 5.800781 0.960938 3.933594 -0.902344 C 2.070312 -2.769531 1.136719 -5.375 1.136719 -8.726562 Z M 4.925781 -8.726562 C 4.925781 -6.421875 5.488281 -4.707031 6.613281 -3.582031 C 7.738281 -2.457031 9.453125 -1.894531 11.757812 -1.894531 L 18.546875 -1.894531 C 20.890625 -1.894531 22.613281 -2.453125 23.714844 -3.574219 C 24.828125 -4.699219 25.382812 -6.417969 25.382812 -8.726562 L 25.382812 -33.703125 C 25.382812 -36.046875 24.828125 -37.773438 23.726562 -38.878906 C 22.621094 -39.984375 20.894531 -40.535156 18.546875 -40.535156 L 11.757812 -40.535156 C 9.449219 -40.535156 7.730469 -39.980469 6.605469 -38.871094 C 5.484375 -37.765625 4.925781 -36.042969 4.925781 -33.703125 Z M 13.335938 -9.714844 L 17.214844 -9.714844 C 17.414062 -9.714844 17.566406 -9.730469 17.675781 -9.769531 C 17.695312 -9.773438 17.710938 -9.78125 17.71875 -9.785156 C 17.710938 -9.78125 17.703125 -9.773438 17.695312 -9.765625 C 17.683594 -9.757812 17.679688 -9.746094 17.671875 -9.742188 C 17.679688 -9.75 17.683594 -9.761719 17.691406 -9.78125 C 17.726562 -9.890625 17.746094 -10.042969 17.746094 -10.242188 L 17.746094 -32.1875 C 17.746094 -32.386719 17.726562 -32.539062 17.691406 -32.648438 C 17.683594 -32.667969 17.679688 -32.683594 17.671875 -32.6875 C 17.679688 -32.683594 17.683594 -32.675781 17.695312 -32.664062 C 17.703125 -32.65625 17.710938 -32.648438 17.71875 -32.644531 C 17.710938 -32.648438 17.695312 -32.65625 17.675781 -32.664062 C 17.566406 -32.699219 17.414062 -32.714844 17.214844 -32.714844 L 13.335938 -32.714844 C 13.136719 -32.714844 12.980469 -32.699219 12.875 -32.664062 C 12.851562 -32.65625 12.839844 -32.648438 12.832031 -32.644531 C 12.839844 -32.648438 12.847656 -32.65625 12.855469 -32.664062 C 12.863281 -32.675781 12.871094 -32.683594 12.875 -32.6875 C 12.871094 -32.683594 12.867188 -32.667969 12.859375 -32.648438 C 12.824219 -32.539062 12.804688 -32.386719 12.804688 -32.1875 L 12.804688 -10.242188 C 12.804688 -10.042969 12.824219 -9.890625 12.859375 -9.78125 C 12.867188 -9.761719 12.871094 -9.75 12.875 -9.742188 C 12.871094 -9.746094 12.863281 -9.757812 12.855469 -9.765625 C 12.847656 -9.773438 12.839844 -9.78125 12.832031 -9.785156 C 12.839844 -9.78125 12.851562 -9.773438 12.875 -9.769531 C 12.980469 -9.730469 13.136719 -9.714844 13.335938 -9.714844 Z M 13.335938 -5.925781 C 12.003906 -5.925781 10.953125 -6.3125 10.175781 -7.085938 C 9.402344 -7.859375 9.015625 -8.914062 9.015625 -10.242188 L 9.015625 -32.1875 C 9.015625 -33.519531 9.402344 -34.570312 10.175781 -35.34375 C 10.953125 -36.117188 12.003906 -36.503906 13.335938 -36.503906 L 17.214844 -36.503906 C 18.546875 -36.503906 19.597656 -36.117188 20.371094 -35.34375 C 21.144531 -34.570312 21.535156 -33.519531 21.535156 -32.1875 L 21.535156 -10.242188 C 21.535156 -8.914062 21.144531 -7.859375 20.371094 -7.085938 C 19.597656 -6.3125 18.546875 -5.925781 17.214844 -5.925781 Z M 13.335938 -5.925781 "/></g></g><g style="fill:#b21a22;fill-opacity:1;"><g transform="translate(308.803746, 250.234892)"><path style="stroke:none" d="M 29.171875 -33.703125 L 29.171875 -21.519531 C 29.171875 -17.300781 27.742188 -14.300781 24.886719 -12.515625 L 23.882812 -14.125 L 25.722656 -14.570312 L 28.875 -1.535156 L 27.035156 -1.089844 L 28.859375 -1.597656 C 29.128906 -0.621094 29 0.207031 28.46875 0.890625 C 27.949219 1.558594 27.1875 1.894531 26.183594 1.894531 L 20.246094 1.894531 C 19.507812 1.894531 18.878906 1.679688 18.359375 1.25 C 17.847656 0.828125 17.515625 0.261719 17.363281 -0.453125 L 19.214844 -0.847656 L 17.375 -0.398438 L 14.464844 -12.339844 L 16.304688 -12.789062 L 16.304688 -10.894531 L 10.910156 -10.894531 L 10.910156 -12.789062 L 12.804688 -12.789062 L 12.804688 -0.96875 C 12.804688 -0.125 12.539062 0.566406 12.007812 1.097656 C 11.476562 1.628906 10.789062 1.894531 9.941406 1.894531 L 4 1.894531 C 3.152344 1.894531 2.464844 1.628906 1.933594 1.097656 C 1.402344 0.566406 1.136719 -0.125 1.136719 -0.96875 L 1.136719 -41.460938 C 1.136719 -42.308594 1.402344 -42.996094 1.933594 -43.527344 C 2.464844 -44.058594 3.152344 -44.324219 4 -44.324219 L 18.546875 -44.324219 C 21.941406 -44.324219 24.558594 -43.402344 26.402344 -41.558594 C 28.25 -39.710938 29.171875 -37.09375 29.171875 -33.703125 Z M 25.382812 -33.703125 C 25.382812 -36.046875 24.828125 -37.773438 23.726562 -38.878906 C 22.621094 -39.984375 20.894531 -40.535156 18.546875 -40.535156 L 4 -40.535156 C 4.042969 -40.535156 4.101562 -40.546875 4.175781 -40.574219 C 4.335938 -40.625 4.484375 -40.71875 4.613281 -40.847656 C 4.742188 -40.976562 4.835938 -41.125 4.886719 -41.285156 C 4.914062 -41.359375 4.925781 -41.417969 4.925781 -41.460938 L 4.925781 -0.96875 C 4.925781 -1.011719 4.914062 -1.070312 4.886719 -1.144531 C 4.835938 -1.304688 4.742188 -1.453125 4.613281 -1.582031 C 4.484375 -1.710938 4.335938 -1.804688 4.175781 -1.859375 C 4.101562 -1.882812 4.042969 -1.894531 4 -1.894531 L 9.941406 -1.894531 C 9.898438 -1.894531 9.839844 -1.882812 9.765625 -1.859375 C 9.605469 -1.804688 9.457031 -1.710938 9.328125 -1.582031 C 9.199219 -1.453125 9.105469 -1.304688 9.054688 -1.144531 C 9.027344 -1.070312 9.015625 -1.011719 9.015625 -0.96875 L 9.015625 -14.683594 L 17.792969 -14.683594 L 21.0625 -1.269531 L 21.066406 -1.246094 C 21.035156 -1.394531 20.9375 -1.535156 20.769531 -1.675781 C 20.589844 -1.820312 20.414062 -1.894531 20.246094 -1.894531 L 26.1875 -1.894531 C 26.144531 -1.886719 26.101562 -1.875 26.050781 -1.859375 C 25.828125 -1.78125 25.636719 -1.640625 25.476562 -1.4375 C 25.316406 -1.226562 25.222656 -0.996094 25.207031 -0.753906 C 25.199219 -0.671875 25.199219 -0.613281 25.207031 -0.585938 L 25.199219 -0.613281 L 21.71875 -15.003906 L 22.878906 -15.730469 C 24.546875 -16.773438 25.382812 -18.703125 25.382812 -21.519531 Z M 10.910156 -22.503906 L 16.972656 -22.503906 C 17.171875 -22.503906 17.324219 -22.519531 17.433594 -22.558594 C 17.453125 -22.5625 17.46875 -22.570312 17.476562 -22.574219 C 17.46875 -22.570312 17.460938 -22.5625 17.449219 -22.554688 C 17.441406 -22.546875 17.433594 -22.539062 17.429688 -22.53125 C 17.4375 -22.539062 17.441406 -22.550781 17.449219 -22.570312 C 17.484375 -22.679688 17.503906 -22.835938 17.503906 -23.035156 L 17.503906 -32.1875 C 17.503906 -32.386719 17.484375 -32.539062 17.449219 -32.648438 C 17.441406 -32.667969 17.4375 -32.683594 17.429688 -32.6875 C 17.433594 -32.683594 17.441406 -32.675781 17.449219 -32.664062 C 17.460938 -32.65625 17.46875 -32.648438 17.476562 -32.644531 C 17.46875 -32.648438 17.453125 -32.65625 17.433594 -32.664062 C 17.324219 -32.699219 17.171875 -32.714844 16.972656 -32.714844 L 10.910156 -32.714844 L 10.910156 -34.609375 L 12.804688 -34.609375 L 12.804688 -20.609375 L 10.910156 -20.609375 Z M 9.015625 -18.714844 L 9.015625 -36.503906 L 16.972656 -36.503906 C 18.304688 -36.503906 19.355469 -36.117188 20.128906 -35.34375 C 20.902344 -34.570312 21.289062 -33.519531 21.289062 -32.1875 L 21.289062 -23.035156 C 21.289062 -21.703125 20.902344 -20.648438 20.128906 -19.875 C 19.355469 -19.101562 18.304688 -18.714844 16.972656 -18.714844 Z M 9.015625 -18.714844 "/></g></g><g style="fill:#060705;fill-opacity:1;"><g transform="translate(41.173175, 165.727906)"><path style="stroke:none" d="M 27.328125 -33.703125 L 27.328125 -27.15625 C 27.328125 -26.507812 27.003906 -26.1875 26.359375 -26.1875 L 20.671875 -26.1875 C 20.023438 -26.1875 19.703125 -26.507812 19.703125 -27.15625 L 19.703125 -32.125 C 19.703125 -33.738281 18.894531 -34.546875 17.28125 -34.546875 L 13.390625 -34.546875 C 11.773438 -34.546875 10.96875 -33.738281 10.96875 -32.125 L 10.96875 -10.125 C 10.96875 -8.507812 11.773438 -7.703125 13.390625 -7.703125 L 17.28125 -7.703125 C 18.894531 -7.703125 19.703125 -8.507812 19.703125 -10.125 L 19.703125 -15.28125 C 19.703125 -15.925781 20.023438 -16.25 20.671875 -16.25 L 26.359375 -16.25 C 27.003906 -16.25 27.328125 -15.925781 27.328125 -15.28125 L 27.328125 -8.734375 C 27.328125 -5.898438 26.578125 -3.734375 25.078125 -2.234375 C 23.585938 -0.742188 21.429688 0 18.609375 0 L 11.8125 0 C 8.988281 0 6.816406 -0.742188 5.296875 -2.234375 C 3.785156 -3.734375 3.03125 -5.898438 3.03125 -8.734375 L 3.03125 -33.703125 C 3.03125 -36.566406 3.785156 -38.734375 5.296875 -40.203125 C 6.816406 -41.679688 8.988281 -42.421875 11.8125 -42.421875 L 18.609375 -42.421875 C 21.429688 -42.421875 23.585938 -41.679688 25.078125 -40.203125 C 26.578125 -38.734375 27.328125 -36.566406 27.328125 -33.703125 Z M 27.328125 -33.703125 "/></g></g><g style="fill:#060705;fill-opacity:1;"><g transform="translate(71.531478, 165.727906)"><path style="stroke:none" d="M 3.03125 -8.734375 L 3.03125 -33.703125 C 3.03125 -36.566406 3.773438 -38.734375 5.265625 -40.203125 C 6.765625 -41.679688 8.929688 -42.421875 11.765625 -42.421875 L 18.546875 -42.421875 C 21.410156 -42.421875 23.582031 -41.679688 25.0625 -40.203125 C 26.539062 -38.734375 27.28125 -36.566406 27.28125 -33.703125 L 27.28125 -8.734375 C 27.28125 -5.898438 26.539062 -3.734375 25.0625 -2.234375 C 23.582031 -0.742188 21.410156 0 18.546875 0 L 11.765625 0 C 8.929688 0 6.765625 -0.742188 5.265625 -2.234375 C 3.773438 -3.734375 3.03125 -5.898438 3.03125 -8.734375 Z M 13.328125 -7.8125 L 17.21875 -7.8125 C 18.832031 -7.8125 19.640625 -8.625 19.640625 -10.25 L 19.640625 -32.1875 C 19.640625 -33.800781 18.832031 -34.609375 17.21875 -34.609375 L 13.328125 -34.609375 C 11.710938 -34.609375 10.90625 -33.800781 10.90625 -32.1875 L 10.90625 -10.25 C 10.90625 -8.625 11.710938 -7.8125 13.328125 -7.8125 Z M 13.328125 -7.8125 "/></g></g><g style="fill:#060705;fill-opacity:1;"><g transform="translate(101.829176, 165.727906)"><path style="stroke:none" d="M 22.25 -42.421875 L 27.9375 -42.421875 C 28.582031 -42.421875 28.90625 -42.097656 28.90625 -41.453125 L 28.90625 -0.96875 C 28.90625 -0.320312 28.582031 0 27.9375 0 L 23.15625 0 C 22.664062 0 22.300781 -0.257812 22.0625 -0.78125 L 10.671875 -23.9375 L 10.671875 -0.96875 C 10.671875 -0.320312 10.347656 0 9.703125 0 L 4 0 C 3.351562 0 3.03125 -0.320312 3.03125 -0.96875 L 3.03125 -41.453125 C 3.03125 -42.097656 3.351562 -42.421875 4 -42.421875 L 8.78125 -42.421875 C 9.269531 -42.421875 9.632812 -42.160156 9.875 -41.640625 L 21.28125 -18.484375 L 21.28125 -41.453125 C 21.28125 -42.097656 21.601562 -42.421875 22.25 -42.421875 Z M 22.25 -42.421875 "/></g></g><g style="fill:#060705;fill-opacity:1;"><g transform="translate(133.762961, 165.727906)"><path style="stroke:none" d="M 25.09375 -42.421875 L 2.78125 -42.421875 C 2.132812 -42.421875 1.8125 -42.097656 1.8125 -41.453125 L 1.8125 -35.390625 C 1.8125 -34.742188 2.132812 -34.421875 2.78125 -34.421875 L 9.8125 -34.421875 L 9.8125 -0.96875 C 9.8125 -0.320312 10.132812 0 10.78125 0 L 17.09375 0 C 17.738281 0 18.0625 -0.320312 18.0625 -0.96875 L 18.0625 -34.421875 L 25.09375 -34.421875 C 25.738281 -34.421875 26.0625 -34.742188 26.0625 -35.390625 L 26.0625 -41.453125 C 26.0625 -42.097656 25.738281 -42.421875 25.09375 -42.421875 Z M 25.09375 -42.421875 "/></g></g><g style="fill:#060705;fill-opacity:1;"><g transform="translate(161.636846, 165.727906)"><path style="stroke:none" d="M 27.28125 -33.703125 L 27.28125 -21.515625 C 27.28125 -18.003906 26.144531 -15.539062 23.875 -14.125 L 27.03125 -1.09375 C 27.226562 -0.363281 26.945312 0 26.1875 0 L 20.25 0 C 19.675781 0 19.332031 -0.28125 19.21875 -0.84375 L 16.296875 -12.78125 L 10.90625 -12.78125 L 10.90625 -0.96875 C 10.90625 -0.320312 10.582031 0 9.9375 0 L 4 0 C 3.351562 0 3.03125 -0.320312 3.03125 -0.96875 L 3.03125 -41.453125 C 3.03125 -42.097656 3.351562 -42.421875 4 -42.421875 L 18.546875 -42.421875 C 21.410156 -42.421875 23.582031 -41.679688 25.0625 -40.203125 C 26.539062 -38.734375 27.28125 -36.566406 27.28125 -33.703125 Z M 10.90625 -20.609375 L 16.96875 -20.609375 C 18.582031 -20.609375 19.390625 -21.414062 19.390625 -23.03125 L 19.390625 -32.1875 C 19.390625 -33.800781 18.582031 -34.609375 16.96875 -34.609375 L 10.90625 -34.609375 Z M 10.90625 -20.609375 "/></g></g><g style="fill:#060705;fill-opacity:1;"><g transform="translate(191.934544, 165.727906)"><path style="stroke:none" d="M 3.03125 -8.734375 L 3.03125 -33.703125 C 3.03125 -36.566406 3.773438 -38.734375 5.265625 -40.203125 C 6.765625 -41.679688 8.929688 -42.421875 11.765625 -42.421875 L 18.546875 -42.421875 C 21.410156 -42.421875 23.582031 -41.679688 25.0625 -40.203125 C 26.539062 -38.734375 27.28125 -36.566406 27.28125 -33.703125 L 27.28125 -8.734375 C 27.28125 -5.898438 26.539062 -3.734375 25.0625 -2.234375 C 23.582031 -0.742188 21.410156 0 18.546875 0 L 11.765625 0 C 8.929688 0 6.765625 -0.742188 5.265625 -2.234375 C 3.773438 -3.734375 3.03125 -5.898438 3.03125 -8.734375 Z M 13.328125 -7.8125 L 17.21875 -7.8125 C 18.832031 -7.8125 19.640625 -8.625 19.640625 -10.25 L 19.640625 -32.1875 C 19.640625 -33.800781 18.832031 -34.609375 17.21875 -34.609375 L 13.328125 -34.609375 C 11.710938 -34.609375 10.90625 -33.800781 10.90625 -32.1875 L 10.90625 -10.25 C 10.90625 -8.625 11.710938 -7.8125 13.328125 -7.8125 Z M 13.328125 -7.8125 "/></g></g><g style="fill:#060705;fill-opacity:1;"><g transform="translate(222.232242, 165.727906)"><path style="stroke:none" d="M 11.265625 -8 L 11.265625 -41.453125 C 11.265625 -42.097656 10.941406 -42.421875 10.296875 -42.421875 L 4 -42.421875 C 3.351562 -42.421875 3.03125 -42.097656 3.03125 -41.453125 L 3.03125 -0.96875 C 3.03125 -0.320312 3.351562 0 4 0 L 23.28125 0 C 23.925781 0 24.25 -0.320312 24.25 -0.96875 L 24.25 -7.03125 C 24.25 -7.675781 23.925781 -8 23.28125 -8 Z M 11.265625 -8 "/></g></g><g style="fill:#060705;fill-opacity:1;"><g transform="translate(249.500168, 165.727906)"><path style="stroke:none" d="M 11.265625 -8 L 11.265625 -41.453125 C 11.265625 -42.097656 10.941406 -42.421875 10.296875 -42.421875 L 4 -42.421875 C 3.351562 -42.421875 3.03125 -42.097656 3.03125 -41.453125 L 3.03125 -0.96875 C 3.03125 -0.320312 3.351562 0 4 0 L 23.28125 0 C 23.925781 0 24.25 -0.320312 24.25 -0.96875 L 24.25 -7.03125 C 24.25 -7.675781 23.925781 -8 23.28125 -8 Z M 11.265625 -8 "/></g></g><g style="fill:#060705;fill-opacity:1;"><g transform="translate(276.768094, 165.727906)"><path style="stroke:none" d="M 27.21875 -41.453125 L 27.21875 -35.390625 C 27.21875 -34.703125 26.894531 -34.359375 26.25 -34.359375 L 11.265625 -34.359375 L 11.265625 -25.03125 L 22.671875 -25.03125 C 23.316406 -25.03125 23.640625 -24.6875 23.640625 -24 L 23.640625 -18 C 23.640625 -17.3125 23.316406 -16.96875 22.671875 -16.96875 L 11.265625 -16.96875 L 11.265625 -8 L 26.25 -8 C 26.894531 -8 27.21875 -7.675781 27.21875 -7.03125 L 27.21875 -0.96875 C 27.21875 -0.320312 26.894531 0 26.25 0 L 3.9375 0 C 3.332031 0 3.03125 -0.320312 3.03125 -0.96875 L 3.03125 -41.453125 C 3.03125 -42.097656 3.332031 -42.421875 3.9375 -42.421875 L 26.25 -42.421875 C 26.894531 -42.421875 27.21875 -42.097656 27.21875 -41.453125 Z M 27.21875 -41.453125 "/></g></g><g style="fill:#060705;fill-opacity:1;"><g transform="translate(307.005187, 165.727906)"><path style="stroke:none" d="M 27.28125 -33.703125 L 27.28125 -21.515625 C 27.28125 -18.003906 26.144531 -15.539062 23.875 -14.125 L 27.03125 -1.09375 C 27.226562 -0.363281 26.945312 0 26.1875 0 L 20.25 0 C 19.675781 0 19.332031 -0.28125 19.21875 -0.84375 L 16.296875 -12.78125 L 10.90625 -12.78125 L 10.90625 -0.96875 C 10.90625 -0.320312 10.582031 0 9.9375 0 L 4 0 C 3.351562 0 3.03125 -0.320312 3.03125 -0.96875 L 3.03125 -41.453125 C 3.03125 -42.097656 3.351562 -42.421875 4 -42.421875 L 18.546875 -42.421875 C 21.410156 -42.421875 23.582031 -41.679688 25.0625 -40.203125 C 26.539062 -38.734375 27.28125 -36.566406 27.28125 -33.703125 Z M 10.90625 -20.609375 L 16.96875 -20.609375 C 18.582031 -20.609375 19.390625 -21.414062 19.390625 -23.03125 L 19.390625 -32.1875 C 19.390625 -33.800781 18.582031 -34.609375 16.96875 -34.609375 L 10.90625 -34.609375 Z M 10.90625 -20.609375 "/></g></g><g style="fill:#060705;fill-opacity:1;"><g transform="translate(39.396608, 250.234892)"><path style="stroke:none" d="M 0 8.125 L 0 2.546875 C 0 1.734375 0.40625 1.328125 1.21875 1.328125 L 37.765625 1.328125 C 38.566406 1.328125 38.96875 1.734375 38.96875 2.546875 L 38.96875 8.125 C 38.96875 8.925781 38.566406 9.328125 37.765625 9.328125 L 1.21875 9.328125 C 0.40625 9.328125 0 8.925781 0 8.125 Z M 0 8.125 "/></g></g><g style="fill:#060705;fill-opacity:1;"><g transform="translate(78.359455, 250.234892)"><path style="stroke:none" d="M 23.21875 -42.421875 L 28.734375 -42.421875 C 29.660156 -42.421875 30.019531 -41.976562 29.8125 -41.09375 L 20.1875 -1.09375 C 20.019531 -0.363281 19.570312 0 18.84375 0 L 12.78125 0 C 12.101562 0 11.660156 -0.363281 11.453125 -1.09375 L 1.875 -41.09375 C 1.675781 -41.976562 2.039062 -42.421875 2.96875 -42.421875 L 8.484375 -42.421875 C 9.210938 -42.421875 9.65625 -42.054688 9.8125 -41.328125 L 15.8125 -13.9375 L 21.875 -41.328125 C 22.082031 -42.054688 22.53125 -42.421875 23.21875 -42.421875 Z M 23.21875 -42.421875 "/></g></g><g style="fill:#060705;fill-opacity:1;"><g transform="translate(110.050841, 250.234892)"><path style="stroke:none" d="M 31.640625 0 L 25.765625 0 C 25.234375 0 24.910156 -0.28125 24.796875 -0.84375 L 22.84375 -8.484375 L 11.453125 -8.484375 L 9.578125 -0.84375 C 9.453125 -0.28125 9.128906 0 8.609375 0 L 2.671875 0 C 1.941406 0 1.675781 -0.34375 1.875 -1.03125 L 11.9375 -41.578125 C 12.0625 -42.140625 12.40625 -42.421875 12.96875 -42.421875 L 21.390625 -42.421875 C 21.960938 -42.421875 22.304688 -42.140625 22.421875 -41.578125 L 32.484375 -1.03125 C 32.691406 -0.34375 32.410156 0 31.640625 0 Z M 20.96875 -15.515625 L 17.15625 -32 L 13.328125 -15.515625 Z M 20.96875 -15.515625 "/></g></g><g style="fill:#060705;fill-opacity:1;"><g transform="translate(144.408438, 250.234892)"><path style="stroke:none" d="M 11.265625 -8 L 11.265625 -41.453125 C 11.265625 -42.097656 10.941406 -42.421875 10.296875 -42.421875 L 4 -42.421875 C 3.351562 -42.421875 3.03125 -42.097656 3.03125 -41.453125 L 3.03125 -0.96875 C 3.03125 -0.320312 3.351562 0 4 0 L 23.28125 0 C 23.925781 0 24.25 -0.320312 24.25 -0.96875 L 24.25 -7.03125 C 24.25 -7.675781 23.925781 -8 23.28125 -8 Z M 11.265625 -8 "/></g></g><g style="fill:#060705;fill-opacity:1;"><g transform="translate(171.676364, 250.234892)"><path style="stroke:none" d="M 4 0 L 10.296875 0 C 10.941406 0 11.265625 -0.320312 11.265625 -0.96875 L 11.265625 -41.453125 C 11.265625 -42.097656 10.941406 -42.421875 10.296875 -42.421875 L 4 -42.421875 C 3.351562 -42.421875 3.03125 -42.097656 3.03125 -41.453125 L 3.03125 -0.96875 C 3.03125 -0.320312 3.351562 0 4 0 Z M 4 0 "/></g></g><g style="fill:#060705;fill-opacity:1;"><g transform="translate(185.976868, 250.234892)"><path style="stroke:none" d="M 3.03125 -0.96875 L 3.03125 -41.453125 C 3.03125 -42.097656 3.351562 -42.421875 4 -42.421875 L 18.546875 -42.421875 C 21.410156 -42.421875 23.582031 -41.671875 25.0625 -40.171875 C 26.539062 -38.679688 27.28125 -36.503906 27.28125 -33.640625 L 27.28125 -8.734375 C 27.28125 -5.898438 26.539062 -3.734375 25.0625 -2.234375 C 23.582031 -0.742188 21.410156 0 18.546875 0 L 4 0 C 3.351562 0 3.03125 -0.320312 3.03125 -0.96875 Z M 11.265625 -8 L 16.84375 -8 C 18.46875 -8 19.28125 -8.804688 19.28125 -10.421875 L 19.28125 -31.9375 C 19.28125 -33.59375 18.46875 -34.421875 16.84375 -34.421875 L 11.265625 -34.421875 Z M 11.265625 -8 "/></g></g><g style="fill:#060705;fill-opacity:1;"><g transform="translate(216.274566, 250.234892)"><path style="stroke:none" d="M 31.640625 0 L 25.765625 0 C 25.234375 0 24.910156 -0.28125 24.796875 -0.84375 L 22.84375 -8.484375 L 11.453125 -8.484375 L 9.578125 -0.84375 C 9.453125 -0.28125 9.128906 0 8.609375 0 L 2.671875 0 C 1.941406 0 1.675781 -0.34375 1.875 -1.03125 L 11.9375 -41.578125 C 12.0625 -42.140625 12.40625 -42.421875 12.96875 -42.421875 L 21.390625 -42.421875 C 21.960938 -42.421875 22.304688 -42.140625 22.421875 -41.578125 L 32.484375 -1.03125 C 32.691406 -0.34375 32.410156 0 31.640625 0 Z M 20.96875 -15.515625 L 17.15625 -32 L 13.328125 -15.515625 Z M 20.96875 -15.515625 "/></g></g><g style="fill:#060705;fill-opacity:1;"><g transform="translate(250.632162, 250.234892)"><path style="stroke:none" d="M 25.09375 -42.421875 L 2.78125 -42.421875 C 2.132812 -42.421875 1.8125 -42.097656 1.8125 -41.453125 L 1.8125 -35.390625 C 1.8125 -34.742188 2.132812 -34.421875 2.78125 -34.421875 L 9.8125 -34.421875 L 9.8125 -0.96875 C 9.8125 -0.320312 10.132812 0 10.78125 0 L 17.09375 0 C 17.738281 0 18.0625 -0.320312 18.0625 -0.96875 L 18.0625 -34.421875 L 25.09375 -34.421875 C 25.738281 -34.421875 26.0625 -34.742188 26.0625 -35.390625 L 26.0625 -41.453125 C 26.0625 -42.097656 25.738281 -42.421875 25.09375 -42.421875 Z M 25.09375 -42.421875 "/></g></g><g style="fill:#060705;fill-opacity:1;"><g transform="translate(278.506048, 250.234892)"><path style="stroke:none" d="M 3.03125 -8.734375 L 3.03125 -33.703125 C 3.03125 -36.566406 3.773438 -38.734375 5.265625 -40.203125 C 6.765625 -41.679688 8.929688 -42.421875 11.765625 -42.421875 L 18.546875 -42.421875 C 21.410156 -42.421875 23.582031 -41.679688 25.0625 -40.203125 C 26.539062 -38.734375 27.28125 -36.566406 27.28125 -33.703125 L 27.28125 -8.734375 C 27.28125 -5.898438 26.539062 -3.734375 25.0625 -2.234375 C 23.582031 -0.742188 21.410156 0 18.546875 0 L 11.765625 0 C 8.929688 0 6.765625 -0.742188 5.265625 -2.234375 C 3.773438 -3.734375 3.03125 -5.898438 3.03125 -8.734375 Z M 13.328125 -7.8125 L 17.21875 -7.8125 C 18.832031 -7.8125 19.640625 -8.625 19.640625 -10.25 L 19.640625 -32.1875 C 19.640625 -33.800781 18.832031 -34.609375 17.21875 -34.609375 L 13.328125 -34.609375 C 11.710938 -34.609375 10.90625 -33.800781 10.90625 -32.1875 L 10.90625 -10.25 C 10.90625 -8.625 11.710938 -7.8125 13.328125 -7.8125 Z M 13.328125 -7.8125 "/></g></g><g style="fill:#060705;fill-opacity:1;"><g transform="translate(308.803746, 250.234892)"><path style="stroke:none" d="M 27.28125 -33.703125 L 27.28125 -21.515625 C 27.28125 -18.003906 26.144531 -15.539062 23.875 -14.125 L 27.03125 -1.09375 C 27.226562 -0.363281 26.945312 0 26.1875 0 L 20.25 0 C 19.675781 0 19.332031 -0.28125 19.21875 -0.84375 L 16.296875 -12.78125 L 10.90625 -12.78125 L 10.90625 -0.96875 C 10.90625 -0.320312 10.582031 0 9.9375 0 L 4 0 C 3.351562 0 3.03125 -0.320312 3.03125 -0.96875 L 3.03125 -41.453125 C 3.03125 -42.097656 3.351562 -42.421875 4 -42.421875 L 18.546875 -42.421875 C 21.410156 -42.421875 23.582031 -41.679688 25.0625 -40.203125 C 26.539062 -38.734375 27.28125 -36.566406 27.28125 -33.703125 Z M 10.90625 -20.609375 L 16.96875 -20.609375 C 18.582031 -20.609375 19.390625 -21.414062 19.390625 -23.03125 L 19.390625 -32.1875 C 19.390625 -33.800781 18.582031 -34.609375 16.96875 -34.609375 L 10.90625 -34.609375 Z M 10.90625 -20.609375 "/></g></g></g></svg>