<svg xmlns="http://www.w3.org/2000/svg" xmlns:xlink="http://www.w3.org/1999/xlink" width="500" zoomAndPan="magnify" viewBox="0 0 375 374.999991" height="500" preserveAspectRatio="xMidYMid meet" version="1.2"><defs><clipPath id="742d537205"><path d="M 25 0 L 350 0 L 350 375 L 25 375 Z M 25 0 "/></clipPath><clipPath id="66208db211"><path d="M -55.878906 142.882812 L 268.328125 -46.476562 L 431 232.042969 L 106.789062 421.402344 Z M -55.878906 142.882812 "/></clipPath><clipPath id="73b8913761"><path d="M 349.546875 92.851562 L 349.859375 279.433594 L 187.8125 374.078125 L 25.453125 282.140625 L 25.140625 95.5625 L 187.1875 0.917969 Z M 349.546875 92.851562 "/></clipPath><clipPath id="c915cf7955"><path d="M 55.238281 35.632812 L 319.726562 35.632812 L 319.726562 339 L 55.238281 339 Z M 55.238281 35.632812 "/></clipPath></defs><g id="9e620a6583"><g clip-rule="nonzero" clip-path="url(#742d537205)"><g clip-rule="nonzero" clip-path="url(#66208db211)"><g clip-rule="nonzero" clip-path="url(#73b8913761)"><path style=" stroke:none;fill-rule:nonzero;fill:#65b30e;fill-opacity:1;" d="M -55.878906 142.882812 L 268.332031 -46.476562 L 431 232.042969 L 106.789062 421.402344 Z M -55.878906 142.882812 "/></g></g></g><path style=" stroke:none;fill-rule:nonzero;fill:#87ff00;fill-opacity:1;" d="M 134.582031 135.703125 L 134.414062 135.535156 L 97.035156 172.914062 L 187.792969 263.503906 L 225.175781 226.296875 L 278.546875 172.914062 L 241.167969 135.535156 L 241.167969 135.363281 L 134.417969 135.363281 Z M 134.582031 135.703125 "/><g clip-rule="nonzero" clip-path="url(#c915cf7955)"><path style=" stroke:none;fill-rule:nonzero;fill:#87ff00;fill-opacity:1;" d="M 187.453125 35.851562 L 55.269531 111.625 L 55.273438 263.175781 L 187.457031 338.949219 L 319.640625 263.175781 L 319.640625 111.625 L 187.457031 35.855469 Z M 294.375 248.683594 L 187.453125 310.308594 L 80.527344 248.683594 L 80.53125 125.765625 L 187.457031 64.136719 L 294.378906 125.765625 L 294.378906 248.683594 Z M 294.375 248.683594 "/></g><g style="fill:#b21a22;fill-opacity:1;"><g transform="translate(37.092232, 165.586797)"><path style="stroke:none" d="M 13.976562 -52.679688 L 22.042969 -52.679688 C 26.074219 -52.679688 29.1875 -51.582031 31.378906 -49.390625 C 33.574219 -47.199219 34.667969 -44.085938 34.667969 -40.054688 L 34.667969 -35.300781 C 34.667969 -34.292969 34.351562 -33.476562 33.722656 -32.84375 C 33.089844 -32.210938 32.269531 -31.894531 31.265625 -31.894531 L 23.988281 -31.894531 C 22.984375 -31.894531 22.164062 -32.210938 21.53125 -32.84375 C 20.902344 -33.476562 20.585938 -34.292969 20.585938 -35.300781 L 20.585938 -38.324219 C 20.585938 -38.5625 20.5625 -38.746094 20.519531 -38.875 C 20.511719 -38.898438 20.507812 -38.914062 20.5 -38.921875 C 20.503906 -38.914062 20.511719 -38.90625 20.523438 -38.894531 C 20.535156 -38.882812 20.542969 -38.875 20.550781 -38.871094 C 20.542969 -38.875 20.527344 -38.882812 20.503906 -38.890625 C 20.375 -38.933594 20.191406 -38.957031 19.953125 -38.957031 L 15.992188 -38.957031 C 15.757812 -38.957031 15.574219 -38.933594 15.445312 -38.890625 C 15.421875 -38.882812 15.402344 -38.875 15.394531 -38.871094 C 15.402344 -38.875 15.414062 -38.882812 15.421875 -38.894531 C 15.433594 -38.90625 15.441406 -38.914062 15.445312 -38.921875 C 15.441406 -38.914062 15.433594 -38.898438 15.425781 -38.875 C 15.382812 -38.746094 15.363281 -38.5625 15.363281 -38.324219 L 15.363281 -32.203125 L 13.109375 -32.203125 L 13.800781 -34.34375 L 31.234375 -28.726562 C 32.347656 -28.339844 33.199219 -27.726562 33.792969 -26.886719 C 34.375 -26.054688 34.667969 -25.0625 34.667969 -23.917969 L 34.667969 -10.375 C 34.667969 -6.394531 33.578125 -3.300781 31.390625 -1.085938 C 29.199219 1.140625 26.082031 2.25 22.042969 2.25 L 13.976562 2.25 C 9.992188 2.25 6.890625 1.144531 4.675781 -1.074219 C 2.457031 -3.289062 1.351562 -6.390625 1.351562 -10.375 L 1.351562 -15.054688 C 1.351562 -16.0625 1.667969 -16.882812 2.296875 -17.511719 C 2.929688 -18.144531 3.75 -18.460938 4.753906 -18.460938 L 12.03125 -18.460938 C 13.035156 -18.460938 13.855469 -18.144531 14.488281 -17.511719 C 15.117188 -16.882812 15.433594 -16.0625 15.433594 -15.054688 L 15.433594 -12.03125 C 15.433594 -11.792969 15.457031 -11.609375 15.5 -11.480469 C 15.507812 -11.457031 15.515625 -11.441406 15.519531 -11.433594 C 15.515625 -11.441406 15.507812 -11.449219 15.496094 -11.460938 C 15.484375 -11.472656 15.476562 -11.480469 15.46875 -11.484375 C 15.476562 -11.480469 15.492188 -11.472656 15.515625 -11.464844 C 15.644531 -11.421875 15.828125 -11.402344 16.066406 -11.402344 L 19.953125 -11.402344 C 20.191406 -11.402344 20.375 -11.421875 20.503906 -11.464844 C 20.527344 -11.472656 20.542969 -11.480469 20.550781 -11.484375 C 20.542969 -11.480469 20.535156 -11.472656 20.523438 -11.460938 C 20.511719 -11.449219 20.503906 -11.441406 20.5 -11.433594 C 20.507812 -11.441406 20.511719 -11.457031 20.519531 -11.480469 C 20.5625 -11.609375 20.585938 -11.792969 20.585938 -12.03125 L 20.585938 -19.304688 L 22.835938 -19.304688 L 22.140625 -17.164062 L 4.851562 -22.785156 C 3.738281 -23.15625 2.875 -23.757812 2.269531 -24.589844 C 1.65625 -25.429688 1.351562 -26.429688 1.351562 -27.589844 L 1.351562 -40.054688 C 1.351562 -44.089844 2.460938 -47.207031 4.6875 -49.402344 C 6.902344 -51.585938 10 -52.679688 13.976562 -52.679688 Z M 13.976562 -48.175781 C 11.230469 -48.175781 9.1875 -47.515625 7.847656 -46.195312 C 6.519531 -44.882812 5.851562 -42.835938 5.851562 -40.054688 L 5.851562 -27.589844 C 5.851562 -27.410156 5.871094 -27.292969 5.90625 -27.242188 C 5.949219 -27.1875 6.058594 -27.128906 6.242188 -27.066406 L 25.089844 -20.941406 L 25.089844 -12.03125 C 25.089844 -10.449219 24.628906 -9.199219 23.707031 -8.277344 C 22.789062 -7.359375 21.539062 -6.898438 19.953125 -6.898438 L 16.066406 -6.898438 C 14.484375 -6.898438 13.230469 -7.359375 12.3125 -8.277344 C 11.390625 -9.199219 10.933594 -10.449219 10.933594 -12.03125 L 10.933594 -15.054688 C 10.933594 -15.003906 10.945312 -14.9375 10.976562 -14.847656 C 11.039062 -14.65625 11.148438 -14.484375 11.304688 -14.328125 C 11.457031 -14.175781 11.632812 -14.066406 11.824219 -14 C 11.910156 -13.972656 11.980469 -13.957031 12.03125 -13.957031 L 4.753906 -13.957031 C 4.804688 -13.957031 4.875 -13.972656 4.960938 -14 C 5.15625 -14.066406 5.328125 -14.175781 5.480469 -14.328125 C 5.636719 -14.484375 5.746094 -14.65625 5.808594 -14.847656 C 5.839844 -14.9375 5.851562 -15.003906 5.851562 -15.054688 L 5.851562 -10.375 C 5.851562 -7.632812 6.523438 -5.59375 7.859375 -4.257812 C 9.195312 -2.921875 11.234375 -2.25 13.976562 -2.25 L 22.042969 -2.25 C 24.828125 -2.25 26.875 -2.917969 28.1875 -4.246094 C 29.507812 -5.585938 30.167969 -7.628906 30.167969 -10.375 L 30.167969 -23.917969 C 30.167969 -24.113281 30.148438 -24.242188 30.109375 -24.296875 C 30.074219 -24.34375 29.988281 -24.390625 29.855469 -24.441406 L 10.859375 -30.5625 L 10.859375 -38.324219 C 10.859375 -39.90625 11.320312 -41.160156 12.238281 -42.078125 C 13.160156 -43 14.410156 -43.457031 15.992188 -43.457031 L 19.953125 -43.457031 C 21.539062 -43.457031 22.789062 -43 23.707031 -42.078125 C 24.628906 -41.160156 25.089844 -39.90625 25.089844 -38.324219 L 25.089844 -35.300781 C 25.089844 -35.351562 25.074219 -35.421875 25.042969 -35.507812 C 24.980469 -35.699219 24.871094 -35.871094 24.714844 -36.027344 C 24.5625 -36.179688 24.390625 -36.289062 24.195312 -36.355469 C 24.109375 -36.382812 24.039062 -36.398438 23.988281 -36.398438 L 31.265625 -36.398438 C 31.214844 -36.398438 31.144531 -36.382812 31.058594 -36.355469 C 30.867188 -36.289062 30.691406 -36.179688 30.539062 -36.027344 C 30.382812 -35.871094 30.273438 -35.699219 30.210938 -35.507812 C 30.179688 -35.421875 30.167969 -35.351562 30.167969 -35.300781 L 30.167969 -40.054688 C 30.167969 -42.84375 29.507812 -44.894531 28.195312 -46.207031 C 26.882812 -47.519531 24.832031 -48.175781 22.042969 -48.175781 Z M 13.976562 -48.175781 "/></g></g><g style="fill:#b21a22;fill-opacity:1;"><g transform="translate(73.100655, 165.586797)"><path style="stroke:none" d="M 37.605469 2.25 L 30.617188 2.25 C 29.742188 2.25 28.996094 1.980469 28.378906 1.441406 C 27.8125 0.945312 27.4375 0.285156 27.261719 -0.535156 L 29.464844 -1.007812 L 27.28125 -0.453125 L 24.976562 -9.53125 L 27.160156 -10.085938 L 27.160156 -7.835938 L 13.617188 -7.835938 L 13.617188 -10.085938 L 15.800781 -9.546875 L 13.570312 -0.46875 L 11.382812 -1.007812 L 13.582031 -0.535156 C 13.40625 0.285156 13.035156 0.945312 12.46875 1.441406 C 11.851562 1.980469 11.105469 2.25 10.230469 2.25 L 3.167969 2.25 C 1.996094 2.25 1.105469 1.855469 0.5 1.0625 C -0.121094 0.253906 -0.261719 -0.722656 0.0742188 -1.859375 L 2.234375 -1.226562 L 0.046875 -1.765625 L 12.007812 -49.960938 L 14.191406 -49.417969 L 11.992188 -49.890625 C 12.171875 -50.738281 12.566406 -51.414062 13.175781 -51.914062 C 13.792969 -52.425781 14.542969 -52.679688 15.417969 -52.679688 L 25.429688 -52.679688 C 26.304688 -52.679688 27.050781 -52.425781 27.671875 -51.914062 C 28.28125 -51.414062 28.675781 -50.738281 28.855469 -49.890625 L 26.65625 -49.417969 L 28.839844 -49.960938 L 40.796875 -1.765625 L 38.613281 -1.226562 L 40.773438 -1.859375 C 41.117188 -0.6875 40.953125 0.308594 40.277344 1.125 C 39.660156 1.875 38.769531 2.25 37.605469 2.25 Z M 37.605469 -2.25 C 37.617188 -2.25 37.625 -2.25 37.632812 -2.253906 C 37.632812 -2.253906 37.628906 -2.25 37.625 -2.25 C 37.582031 -2.246094 37.535156 -2.234375 37.480469 -2.214844 C 37.222656 -2.132812 36.996094 -1.972656 36.804688 -1.738281 C 36.585938 -1.472656 36.464844 -1.183594 36.441406 -0.863281 C 36.429688 -0.742188 36.433594 -0.652344 36.453125 -0.589844 L 36.441406 -0.636719 L 24.460938 -48.910156 L 24.453125 -48.949219 C 24.492188 -48.773438 24.609375 -48.601562 24.808594 -48.4375 C 25.019531 -48.261719 25.226562 -48.175781 25.429688 -48.175781 L 15.417969 -48.175781 C 15.617188 -48.175781 15.824219 -48.261719 16.039062 -48.4375 C 16.238281 -48.601562 16.355469 -48.773438 16.394531 -48.949219 L 16.386719 -48.910156 L 4.40625 -0.636719 L 4.394531 -0.589844 C 4.40625 -0.636719 4.410156 -0.714844 4.402344 -0.820312 C 4.386719 -1.125 4.277344 -1.410156 4.074219 -1.671875 C 3.878906 -1.929688 3.640625 -2.105469 3.363281 -2.203125 C 3.269531 -2.234375 3.207031 -2.25 3.167969 -2.25 L 10.230469 -2.25 C 9.976562 -2.25 9.734375 -2.148438 9.503906 -1.945312 C 9.320312 -1.785156 9.214844 -1.632812 9.179688 -1.480469 L 9.1875 -1.511719 L 11.851562 -12.335938 L 28.910156 -12.335938 L 31.65625 -1.523438 L 31.664062 -1.480469 C 31.632812 -1.632812 31.527344 -1.785156 31.34375 -1.945312 C 31.109375 -2.148438 30.867188 -2.25 30.617188 -2.25 Z M 22.730469 -17.933594 L 18.195312 -37.527344 L 20.386719 -38.035156 L 22.582031 -37.527344 L 18.042969 -17.933594 L 15.847656 -18.441406 L 15.847656 -20.695312 L 24.925781 -20.695312 L 24.925781 -18.441406 Z M 27.757812 -16.191406 L 13.015625 -16.191406 L 18.195312 -38.546875 L 22.582031 -38.546875 L 27.117188 -18.949219 Z M 27.757812 -16.191406 "/></g></g><g style="fill:#b21a22;fill-opacity:1;"><g transform="translate(113.934214, 165.586797)"><path style="stroke:none" d="M 26.4375 -52.679688 L 33.210938 -52.679688 C 34.214844 -52.679688 35.035156 -52.363281 35.667969 -51.730469 C 36.296875 -51.101562 36.613281 -50.28125 36.613281 -49.273438 L 36.613281 -1.152344 C 36.613281 -0.148438 36.296875 0.671875 35.667969 1.304688 C 35.035156 1.933594 34.214844 2.25 33.210938 2.25 L 27.519531 2.25 C 26.746094 2.25 26.054688 2.03125 25.445312 1.589844 C 24.910156 1.203125 24.488281 0.675781 24.179688 0.0078125 L 26.222656 -0.9375 L 24.203125 0.0585938 L 10.660156 -27.460938 L 12.679688 -28.457031 L 14.929688 -28.457031 L 14.929688 -1.152344 C 14.929688 -0.148438 14.613281 0.671875 13.984375 1.304688 C 13.351562 1.933594 12.53125 2.25 11.527344 2.25 L 4.753906 2.25 C 3.75 2.25 2.929688 1.933594 2.296875 1.304688 C 1.667969 0.671875 1.351562 -0.148438 1.351562 -1.152344 L 1.351562 -49.273438 C 1.351562 -50.28125 1.667969 -51.101562 2.296875 -51.730469 C 2.929688 -52.363281 3.75 -52.679688 4.753906 -52.679688 L 10.445312 -52.679688 C 11.21875 -52.679688 11.910156 -52.460938 12.519531 -52.019531 C 13.054688 -51.632812 13.476562 -51.105469 13.785156 -50.433594 L 11.742188 -49.492188 L 13.761719 -50.484375 L 27.304688 -22.964844 L 25.285156 -21.972656 L 23.035156 -21.972656 L 23.035156 -49.273438 C 23.035156 -50.28125 23.351562 -51.101562 23.980469 -51.730469 C 24.613281 -52.363281 25.433594 -52.679688 26.4375 -52.679688 Z M 26.4375 -48.175781 C 26.488281 -48.175781 26.558594 -48.191406 26.644531 -48.21875 C 26.839844 -48.285156 27.011719 -48.394531 27.167969 -48.546875 C 27.320312 -48.703125 27.429688 -48.875 27.492188 -49.066406 C 27.523438 -49.15625 27.539062 -49.222656 27.539062 -49.273438 L 27.539062 -21.972656 L 23.265625 -20.976562 L 9.710938 -48.523438 L 9.699219 -48.546875 C 9.71875 -48.503906 9.78125 -48.441406 9.882812 -48.367188 C 10.0625 -48.242188 10.25 -48.175781 10.445312 -48.175781 L 4.753906 -48.175781 C 4.804688 -48.175781 4.875 -48.191406 4.960938 -48.21875 C 5.15625 -48.285156 5.328125 -48.394531 5.480469 -48.546875 C 5.636719 -48.703125 5.746094 -48.875 5.808594 -49.066406 C 5.839844 -49.15625 5.851562 -49.222656 5.851562 -49.273438 L 5.851562 -1.152344 C 5.851562 -1.203125 5.839844 -1.273438 5.808594 -1.359375 C 5.746094 -1.550781 5.636719 -1.726562 5.480469 -1.878906 C 5.328125 -2.035156 5.15625 -2.144531 4.960938 -2.207031 C 4.875 -2.238281 4.804688 -2.25 4.753906 -2.25 L 11.527344 -2.25 C 11.476562 -2.25 11.40625 -2.238281 11.320312 -2.207031 C 11.125 -2.144531 10.953125 -2.035156 10.800781 -1.878906 C 10.644531 -1.726562 10.535156 -1.550781 10.472656 -1.359375 C 10.441406 -1.273438 10.425781 -1.203125 10.425781 -1.152344 L 10.425781 -28.457031 L 14.699219 -29.449219 L 28.253906 -1.90625 L 28.265625 -1.878906 C 28.246094 -1.925781 28.183594 -1.984375 28.082031 -2.058594 C 27.902344 -2.1875 27.714844 -2.25 27.519531 -2.25 L 33.210938 -2.25 C 33.160156 -2.25 33.089844 -2.238281 33.003906 -2.207031 C 32.808594 -2.144531 32.636719 -2.035156 32.484375 -1.878906 C 32.328125 -1.726562 32.21875 -1.550781 32.15625 -1.359375 C 32.125 -1.273438 32.113281 -1.203125 32.113281 -1.152344 L 32.113281 -49.273438 C 32.113281 -49.222656 32.125 -49.15625 32.15625 -49.066406 C 32.21875 -48.875 32.328125 -48.703125 32.484375 -48.546875 C 32.636719 -48.394531 32.808594 -48.285156 33.003906 -48.21875 C 33.089844 -48.191406 33.160156 -48.175781 33.210938 -48.175781 Z M 26.4375 -48.175781 "/></g></g><g style="fill:#b21a22;fill-opacity:1;"><g transform="translate(151.887104, 165.586797)"><path style="stroke:none" d="M 4.753906 -2.25 L 12.246094 -2.25 C 12.195312 -2.25 12.125 -2.238281 12.039062 -2.207031 C 11.847656 -2.144531 11.671875 -2.035156 11.519531 -1.878906 C 11.363281 -1.726562 11.253906 -1.550781 11.191406 -1.359375 C 11.164062 -1.273438 11.148438 -1.203125 11.148438 -1.152344 L 11.148438 -49.273438 C 11.148438 -49.222656 11.164062 -49.15625 11.191406 -49.066406 C 11.253906 -48.875 11.363281 -48.703125 11.519531 -48.546875 C 11.671875 -48.394531 11.847656 -48.285156 12.039062 -48.21875 C 12.125 -48.191406 12.195312 -48.175781 12.246094 -48.175781 L 4.753906 -48.175781 C 4.804688 -48.175781 4.875 -48.191406 4.960938 -48.21875 C 5.15625 -48.285156 5.328125 -48.394531 5.480469 -48.546875 C 5.636719 -48.703125 5.746094 -48.875 5.808594 -49.066406 C 5.839844 -49.15625 5.851562 -49.222656 5.851562 -49.273438 L 5.851562 -1.152344 C 5.851562 -1.203125 5.839844 -1.273438 5.808594 -1.359375 C 5.746094 -1.550781 5.636719 -1.726562 5.480469 -1.878906 C 5.328125 -2.035156 5.15625 -2.144531 4.960938 -2.207031 C 4.875 -2.238281 4.804688 -2.25 4.753906 -2.25 Z M 4.753906 2.25 C 3.75 2.25 2.929688 1.933594 2.296875 1.304688 C 1.667969 0.671875 1.351562 -0.148438 1.351562 -1.152344 L 1.351562 -49.273438 C 1.351562 -50.28125 1.667969 -51.101562 2.296875 -51.730469 C 2.929688 -52.363281 3.75 -52.679688 4.753906 -52.679688 L 12.246094 -52.679688 C 13.253906 -52.679688 14.070312 -52.363281 14.703125 -51.730469 C 15.335938 -51.101562 15.652344 -50.28125 15.652344 -49.273438 L 15.652344 -1.152344 C 15.652344 -0.148438 15.335938 0.671875 14.703125 1.304688 C 14.070312 1.933594 13.253906 2.25 12.246094 2.25 Z M 4.753906 2.25 "/></g></g><g style="fill:#b21a22;fill-opacity:1;"><g transform="translate(168.883068, 165.586797)"><path style="stroke:none" d="M 29.824219 -48.175781 L 3.3125 -48.175781 C 3.367188 -48.175781 3.433594 -48.191406 3.523438 -48.21875 C 3.714844 -48.285156 3.886719 -48.394531 4.042969 -48.546875 C 4.195312 -48.703125 4.304688 -48.875 4.367188 -49.066406 C 4.398438 -49.15625 4.414062 -49.222656 4.414062 -49.273438 L 4.414062 -42.070312 C 4.414062 -42.121094 4.398438 -42.191406 4.367188 -42.277344 C 4.304688 -42.472656 4.195312 -42.644531 4.042969 -42.796875 C 3.886719 -42.953125 3.714844 -43.0625 3.523438 -43.125 C 3.433594 -43.15625 3.367188 -43.167969 3.3125 -43.167969 L 13.921875 -43.167969 L 13.921875 -1.152344 C 13.921875 -1.203125 13.90625 -1.273438 13.878906 -1.359375 C 13.8125 -1.550781 13.703125 -1.726562 13.550781 -1.878906 C 13.394531 -2.035156 13.222656 -2.144531 13.03125 -2.207031 C 12.945312 -2.238281 12.875 -2.25 12.824219 -2.25 L 20.316406 -2.25 C 20.265625 -2.25 20.195312 -2.238281 20.109375 -2.207031 C 19.914062 -2.144531 19.742188 -2.035156 19.585938 -1.878906 C 19.433594 -1.726562 19.324219 -1.550781 19.261719 -1.359375 C 19.230469 -1.273438 19.214844 -1.203125 19.214844 -1.152344 L 19.214844 -43.167969 L 29.824219 -43.167969 C 29.773438 -43.167969 29.703125 -43.15625 29.617188 -43.125 C 29.425781 -43.0625 29.25 -42.953125 29.097656 -42.796875 C 28.941406 -42.644531 28.832031 -42.472656 28.769531 -42.277344 C 28.738281 -42.191406 28.726562 -42.121094 28.726562 -42.070312 L 28.726562 -49.273438 C 28.726562 -49.222656 28.738281 -49.15625 28.769531 -49.066406 C 28.832031 -48.875 28.941406 -48.703125 29.097656 -48.546875 C 29.25 -48.394531 29.425781 -48.285156 29.617188 -48.21875 C 29.703125 -48.191406 29.773438 -48.175781 29.824219 -48.175781 Z M 29.824219 -52.679688 C 30.832031 -52.679688 31.648438 -52.363281 32.28125 -51.730469 C 32.914062 -51.101562 33.226562 -50.28125 33.226562 -49.273438 L 33.226562 -42.070312 C 33.226562 -41.066406 32.914062 -40.246094 32.28125 -39.613281 C 31.648438 -38.984375 30.832031 -38.667969 29.824219 -38.667969 L 21.46875 -38.667969 L 21.46875 -40.917969 L 23.71875 -40.917969 L 23.71875 -1.152344 C 23.71875 -0.148438 23.402344 0.671875 22.773438 1.304688 C 22.140625 1.933594 21.320312 2.25 20.316406 2.25 L 12.824219 2.25 C 11.816406 2.25 11 1.933594 10.367188 1.304688 C 9.734375 0.671875 9.417969 -0.148438 9.417969 -1.152344 L 9.417969 -40.917969 L 11.671875 -40.917969 L 11.671875 -38.667969 L 3.3125 -38.667969 C 2.308594 -38.667969 1.488281 -38.984375 0.855469 -39.613281 C 0.226562 -40.246094 -0.0898438 -41.066406 -0.0898438 -42.070312 L -0.0898438 -49.273438 C -0.0898438 -50.28125 0.226562 -51.101562 0.855469 -51.730469 C 1.488281 -52.363281 2.308594 -52.679688 3.3125 -52.679688 Z M 29.824219 -52.679688 "/></g></g><g style="fill:#b21a22;fill-opacity:1;"><g transform="translate(202.010821, 165.586797)"><path style="stroke:none" d="M 4.753906 -2.25 L 12.246094 -2.25 C 12.195312 -2.25 12.125 -2.238281 12.039062 -2.207031 C 11.847656 -2.144531 11.671875 -2.035156 11.519531 -1.878906 C 11.363281 -1.726562 11.253906 -1.550781 11.191406 -1.359375 C 11.164062 -1.273438 11.148438 -1.203125 11.148438 -1.152344 L 11.148438 -49.273438 C 11.148438 -49.222656 11.164062 -49.15625 11.191406 -49.066406 C 11.253906 -48.875 11.363281 -48.703125 11.519531 -48.546875 C 11.671875 -48.394531 11.847656 -48.285156 12.039062 -48.21875 C 12.125 -48.191406 12.195312 -48.175781 12.246094 -48.175781 L 4.753906 -48.175781 C 4.804688 -48.175781 4.875 -48.191406 4.960938 -48.21875 C 5.15625 -48.285156 5.328125 -48.394531 5.480469 -48.546875 C 5.636719 -48.703125 5.746094 -48.875 5.808594 -49.066406 C 5.839844 -49.15625 5.851562 -49.222656 5.851562 -49.273438 L 5.851562 -1.152344 C 5.851562 -1.203125 5.839844 -1.273438 5.808594 -1.359375 C 5.746094 -1.550781 5.636719 -1.726562 5.480469 -1.878906 C 5.328125 -2.035156 5.15625 -2.144531 4.960938 -2.207031 C 4.875 -2.238281 4.804688 -2.25 4.753906 -2.25 Z M 4.753906 2.25 C 3.75 2.25 2.929688 1.933594 2.296875 1.304688 C 1.667969 0.671875 1.351562 -0.148438 1.351562 -1.152344 L 1.351562 -49.273438 C 1.351562 -50.28125 1.667969 -51.101562 2.296875 -51.730469 C 2.929688 -52.363281 3.75 -52.679688 4.753906 -52.679688 L 12.246094 -52.679688 C 13.253906 -52.679688 14.070312 -52.363281 14.703125 -51.730469 C 15.335938 -51.101562 15.652344 -50.28125 15.652344 -49.273438 L 15.652344 -1.152344 C 15.652344 -0.148438 15.335938 0.671875 14.703125 1.304688 C 14.070312 1.933594 13.253906 2.25 12.246094 2.25 Z M 4.753906 2.25 "/></g></g><g style="fill:#b21a22;fill-opacity:1;"><g transform="translate(219.006785, 165.586797)"><path style="stroke:none" d="M 5.90625 -52.679688 L 33.210938 -52.679688 C 34.625 -52.679688 35.648438 -52.164062 36.28125 -51.140625 C 36.890625 -50.148438 36.910156 -49.023438 36.339844 -47.765625 L 17.964844 -7.917969 L 15.921875 -8.859375 L 15.921875 -11.113281 L 31.699219 -11.113281 C 32.703125 -11.113281 33.523438 -10.796875 34.152344 -10.164062 C 34.785156 -9.53125 35.101562 -8.714844 35.101562 -7.707031 L 35.101562 -1.226562 C 35.101562 -0.269531 34.800781 0.527344 34.203125 1.164062 C 33.640625 1.761719 32.898438 2.117188 31.976562 2.234375 L 31.835938 2.25 L 3.457031 2.25 C 2.855469 2.25 2.316406 2.144531 1.835938 1.9375 C 1.1875 1.652344 0.691406 1.210938 0.351562 0.613281 C -0.238281 -0.421875 -0.234375 -1.535156 0.363281 -2.734375 L 2.378906 -1.730469 L 0.339844 -2.683594 L 18.707031 -41.875 L 20.746094 -40.917969 L 20.746094 -38.667969 L 5.90625 -38.667969 C 4.902344 -38.667969 4.082031 -38.984375 3.449219 -39.613281 C 2.820312 -40.246094 2.503906 -41.066406 2.503906 -42.070312 L 2.503906 -49.203125 C 2.503906 -50.160156 2.804688 -50.953125 3.402344 -51.59375 C 3.964844 -52.191406 4.707031 -52.546875 5.628906 -52.660156 L 5.765625 -52.679688 Z M 5.90625 -48.175781 L 5.90625 -50.429688 L 6.1875 -48.195312 C 6.339844 -48.210938 6.503906 -48.316406 6.683594 -48.507812 C 6.898438 -48.734375 7.007812 -48.96875 7.007812 -49.203125 L 7.007812 -42.070312 C 7.007812 -42.121094 6.992188 -42.191406 6.960938 -42.277344 C 6.898438 -42.472656 6.789062 -42.644531 6.632812 -42.796875 C 6.480469 -42.953125 6.308594 -43.0625 6.113281 -43.125 C 6.027344 -43.15625 5.957031 -43.167969 5.90625 -43.167969 L 24.289062 -43.167969 L 4.402344 -0.746094 L 4.390625 -0.722656 C 4.410156 -0.757812 4.421875 -0.828125 4.425781 -0.929688 C 4.441406 -1.171875 4.386719 -1.402344 4.261719 -1.621094 C 4.109375 -1.882812 3.902344 -2.074219 3.640625 -2.1875 C 3.570312 -2.21875 3.507812 -2.238281 3.449219 -2.25 L 31.699219 -2.25 L 31.699219 0 L 31.417969 -2.234375 C 31.265625 -2.214844 31.101562 -2.109375 30.921875 -1.921875 C 30.707031 -1.691406 30.597656 -1.460938 30.597656 -1.226562 L 30.597656 -7.707031 C 30.597656 -7.65625 30.613281 -7.585938 30.640625 -7.5 C 30.707031 -7.308594 30.816406 -7.136719 30.96875 -6.980469 C 31.125 -6.828125 31.296875 -6.71875 31.488281 -6.652344 C 31.578125 -6.625 31.644531 -6.609375 31.699219 -6.609375 L 12.402344 -6.609375 L 32.242188 -49.628906 C 32.253906 -49.65625 32.261719 -49.671875 32.261719 -49.679688 C 32.25 -49.640625 32.246094 -49.59375 32.242188 -49.539062 C 32.226562 -49.277344 32.292969 -49.023438 32.445312 -48.78125 C 32.605469 -48.515625 32.820312 -48.332031 33.082031 -48.226562 C 33.144531 -48.199219 33.199219 -48.183594 33.246094 -48.175781 C 33.246094 -48.175781 33.234375 -48.175781 33.210938 -48.175781 Z M 5.90625 -48.175781 "/></g></g><g style="fill:#b21a22;fill-opacity:1;"><g transform="translate(255.591353, 165.586797)"><path style="stroke:none" d="M 34.597656 -49.273438 L 34.597656 -42.070312 C 34.597656 -41.066406 34.296875 -40.246094 33.695312 -39.609375 C 33.058594 -38.933594 32.226562 -38.59375 31.191406 -38.59375 L 13.398438 -38.59375 L 13.398438 -40.847656 L 15.652344 -40.847656 L 15.652344 -29.753906 L 13.398438 -29.753906 L 13.398438 -32.003906 L 26.941406 -32.003906 C 27.976562 -32.003906 28.808594 -31.664062 29.445312 -30.988281 C 30.046875 -30.351562 30.347656 -29.53125 30.347656 -28.527344 L 30.347656 -21.394531 C 30.347656 -20.390625 30.046875 -19.570312 29.445312 -18.933594 C 28.808594 -18.257812 27.976562 -17.917969 26.941406 -17.917969 L 13.398438 -17.917969 L 13.398438 -20.171875 L 15.652344 -20.171875 L 15.652344 -9.507812 L 13.398438 -9.507812 L 13.398438 -11.761719 L 31.191406 -11.761719 C 32.199219 -11.761719 33.019531 -11.445312 33.648438 -10.8125 C 34.28125 -10.179688 34.597656 -9.363281 34.597656 -8.355469 L 34.597656 -1.152344 C 34.597656 -0.148438 34.28125 0.671875 33.648438 1.304688 C 33.019531 1.933594 32.199219 2.25 31.191406 2.25 L 4.683594 2.25 C 3.671875 2.25 2.855469 1.917969 2.230469 1.25 C 1.644531 0.625 1.351562 -0.175781 1.351562 -1.152344 L 1.351562 -49.273438 C 1.351562 -50.253906 1.644531 -51.054688 2.230469 -51.679688 C 2.855469 -52.347656 3.671875 -52.679688 4.683594 -52.679688 L 31.191406 -52.679688 C 32.199219 -52.679688 33.019531 -52.363281 33.648438 -51.730469 C 34.28125 -51.101562 34.597656 -50.28125 34.597656 -49.273438 Z M 30.09375 -49.273438 C 30.09375 -49.222656 30.109375 -49.15625 30.136719 -49.066406 C 30.203125 -48.875 30.3125 -48.703125 30.464844 -48.546875 C 30.621094 -48.394531 30.792969 -48.285156 30.984375 -48.21875 C 31.074219 -48.191406 31.140625 -48.175781 31.191406 -48.175781 L 4.683594 -48.175781 C 4.972656 -48.175781 5.25 -48.316406 5.515625 -48.601562 C 5.660156 -48.753906 5.761719 -48.925781 5.820312 -49.109375 C 5.839844 -49.183594 5.851562 -49.238281 5.851562 -49.273438 L 5.851562 -1.152344 C 5.851562 -1.191406 5.839844 -1.246094 5.820312 -1.320312 C 5.761719 -1.503906 5.660156 -1.671875 5.515625 -1.828125 C 5.25 -2.109375 4.972656 -2.25 4.683594 -2.25 L 31.191406 -2.25 C 31.140625 -2.25 31.074219 -2.238281 30.984375 -2.207031 C 30.792969 -2.144531 30.621094 -2.035156 30.464844 -1.878906 C 30.3125 -1.726562 30.203125 -1.550781 30.136719 -1.359375 C 30.109375 -1.273438 30.09375 -1.203125 30.09375 -1.152344 L 30.09375 -8.355469 C 30.09375 -8.304688 30.109375 -8.234375 30.136719 -8.148438 C 30.203125 -7.957031 30.3125 -7.785156 30.464844 -7.628906 C 30.621094 -7.472656 30.792969 -7.367188 30.984375 -7.300781 C 31.074219 -7.273438 31.140625 -7.257812 31.191406 -7.257812 L 11.148438 -7.257812 L 11.148438 -22.421875 L 26.941406 -22.421875 C 26.878906 -22.421875 26.792969 -22.40625 26.695312 -22.371094 C 26.496094 -22.300781 26.320312 -22.183594 26.167969 -22.019531 C 26.027344 -21.871094 25.929688 -21.710938 25.875 -21.535156 C 25.855469 -21.46875 25.84375 -21.421875 25.84375 -21.394531 L 25.84375 -28.527344 C 25.84375 -28.5 25.855469 -28.457031 25.875 -28.390625 C 25.929688 -28.214844 26.027344 -28.050781 26.167969 -27.902344 C 26.320312 -27.742188 26.496094 -27.625 26.695312 -27.554688 C 26.792969 -27.519531 26.878906 -27.5 26.941406 -27.5 L 11.148438 -27.5 L 11.148438 -43.097656 L 31.191406 -43.097656 C 31.128906 -43.097656 31.042969 -43.082031 30.945312 -43.046875 C 30.746094 -42.976562 30.570312 -42.859375 30.417969 -42.695312 C 30.277344 -42.546875 30.179688 -42.386719 30.125 -42.210938 C 30.105469 -42.144531 30.09375 -42.097656 30.09375 -42.070312 Z M 30.09375 -49.273438 "/></g></g><g style="fill:#b21a22;fill-opacity:1;"><g transform="translate(291.527747, 165.586797)"><path style="stroke:none" d="M -2.25 9.652344 L -2.25 3.027344 C -2.25 1.921875 -1.910156 1.03125 -1.230469 0.351562 C -0.550781 -0.328125 0.339844 -0.667969 1.441406 -0.667969 L 44.878906 -0.667969 C 45.984375 -0.667969 46.875 -0.328125 47.554688 0.351562 C 48.234375 1.03125 48.574219 1.921875 48.574219 3.027344 L 48.574219 9.652344 C 48.574219 10.753906 48.234375 11.644531 47.554688 12.324219 C 46.875 13.003906 45.984375 13.34375 44.878906 13.34375 L 1.441406 13.34375 C 0.339844 13.34375 -0.550781 13.003906 -1.230469 12.324219 C -1.910156 11.644531 -2.25 10.753906 -2.25 9.652344 Z M 2.25 9.652344 C 2.25 9.664062 2.25 9.671875 2.253906 9.679688 C 2.253906 9.679688 2.25 9.675781 2.25 9.671875 C 2.246094 9.644531 2.238281 9.609375 2.226562 9.570312 C 2.175781 9.414062 2.082031 9.273438 1.953125 9.140625 C 1.820312 9.011719 1.679688 8.921875 1.523438 8.867188 C 1.484375 8.855469 1.449219 8.847656 1.421875 8.84375 C 1.417969 8.84375 1.417969 8.84375 1.417969 8.84375 C 1.421875 8.84375 1.429688 8.84375 1.441406 8.84375 L 44.878906 8.84375 C 44.890625 8.84375 44.898438 8.84375 44.90625 8.84375 C 44.90625 8.84375 44.902344 8.84375 44.898438 8.84375 C 44.871094 8.847656 44.835938 8.855469 44.800781 8.867188 C 44.644531 8.921875 44.5 9.011719 44.371094 9.140625 C 44.238281 9.273438 44.148438 9.414062 44.09375 9.570312 C 44.082031 9.609375 44.074219 9.644531 44.070312 9.671875 C 44.070312 9.675781 44.070312 9.679688 44.070312 9.679688 C 44.070312 9.671875 44.070312 9.664062 44.070312 9.652344 L 44.070312 3.027344 C 44.070312 3.015625 44.070312 3.007812 44.070312 3 C 44.070312 3 44.070312 3.003906 44.070312 3.007812 C 44.074219 3.035156 44.082031 3.070312 44.09375 3.105469 C 44.148438 3.261719 44.238281 3.40625 44.371094 3.535156 C 44.5 3.667969 44.644531 3.757812 44.800781 3.8125 C 44.835938 3.824219 44.871094 3.832031 44.898438 3.835938 C 44.902344 3.835938 44.90625 3.835938 44.90625 3.835938 C 44.898438 3.835938 44.890625 3.835938 44.878906 3.835938 L 1.441406 3.835938 C 1.429688 3.835938 1.421875 3.835938 1.417969 3.835938 C 1.417969 3.835938 1.417969 3.835938 1.421875 3.835938 C 1.449219 3.832031 1.484375 3.824219 1.523438 3.8125 C 1.679688 3.757812 1.820312 3.667969 1.953125 3.535156 C 2.082031 3.40625 2.175781 3.261719 2.226562 3.105469 C 2.238281 3.070312 2.246094 3.035156 2.25 3.007812 C 2.25 3.003906 2.253906 3 2.253906 3 C 2.25 3.007812 2.25 3.015625 2.25 3.027344 Z M 2.25 9.652344 "/></g></g><g style="fill:#b21a22;fill-opacity:1;"><g transform="translate(100.263854, 266.022257)"><path style="stroke:none" d="M 34.597656 -49.273438 L 34.597656 -42.070312 C 34.597656 -41.066406 34.296875 -40.246094 33.695312 -39.609375 C 33.058594 -38.933594 32.226562 -38.59375 31.191406 -38.59375 L 13.398438 -38.59375 L 13.398438 -40.847656 L 15.652344 -40.847656 L 15.652344 -29.753906 L 13.398438 -29.753906 L 13.398438 -32.003906 L 26.941406 -32.003906 C 27.976562 -32.003906 28.808594 -31.664062 29.445312 -30.988281 C 30.046875 -30.351562 30.347656 -29.53125 30.347656 -28.527344 L 30.347656 -21.394531 C 30.347656 -20.390625 30.046875 -19.570312 29.445312 -18.933594 C 28.808594 -18.257812 27.976562 -17.917969 26.941406 -17.917969 L 13.398438 -17.917969 L 13.398438 -20.171875 L 15.652344 -20.171875 L 15.652344 -9.507812 L 13.398438 -9.507812 L 13.398438 -11.761719 L 31.191406 -11.761719 C 32.199219 -11.761719 33.019531 -11.445312 33.648438 -10.8125 C 34.28125 -10.179688 34.597656 -9.363281 34.597656 -8.355469 L 34.597656 -1.152344 C 34.597656 -0.148438 34.28125 0.671875 33.648438 1.304688 C 33.019531 1.933594 32.199219 2.25 31.191406 2.25 L 4.683594 2.25 C 3.671875 2.25 2.855469 1.917969 2.230469 1.25 C 1.644531 0.625 1.351562 -0.175781 1.351562 -1.152344 L 1.351562 -49.273438 C 1.351562 -50.253906 1.644531 -51.054688 2.230469 -51.679688 C 2.855469 -52.347656 3.671875 -52.679688 4.683594 -52.679688 L 31.191406 -52.679688 C 32.199219 -52.679688 33.019531 -52.363281 33.648438 -51.730469 C 34.28125 -51.101562 34.597656 -50.28125 34.597656 -49.273438 Z M 30.09375 -49.273438 C 30.09375 -49.222656 30.109375 -49.15625 30.136719 -49.066406 C 30.203125 -48.875 30.3125 -48.703125 30.464844 -48.546875 C 30.621094 -48.394531 30.792969 -48.285156 30.984375 -48.21875 C 31.074219 -48.191406 31.140625 -48.175781 31.191406 -48.175781 L 4.683594 -48.175781 C 4.972656 -48.175781 5.25 -48.316406 5.515625 -48.601562 C 5.660156 -48.753906 5.761719 -48.925781 5.820312 -49.109375 C 5.839844 -49.183594 5.851562 -49.238281 5.851562 -49.273438 L 5.851562 -1.152344 C 5.851562 -1.191406 5.839844 -1.246094 5.820312 -1.320312 C 5.761719 -1.503906 5.660156 -1.671875 5.515625 -1.828125 C 5.25 -2.109375 4.972656 -2.25 4.683594 -2.25 L 31.191406 -2.25 C 31.140625 -2.25 31.074219 -2.238281 30.984375 -2.207031 C 30.792969 -2.144531 30.621094 -2.035156 30.464844 -1.878906 C 30.3125 -1.726562 30.203125 -1.550781 30.136719 -1.359375 C 30.109375 -1.273438 30.09375 -1.203125 30.09375 -1.152344 L 30.09375 -8.355469 C 30.09375 -8.304688 30.109375 -8.234375 30.136719 -8.148438 C 30.203125 -7.957031 30.3125 -7.785156 30.464844 -7.628906 C 30.621094 -7.472656 30.792969 -7.367188 30.984375 -7.300781 C 31.074219 -7.273438 31.140625 -7.257812 31.191406 -7.257812 L 11.148438 -7.257812 L 11.148438 -22.421875 L 26.941406 -22.421875 C 26.878906 -22.421875 26.792969 -22.40625 26.695312 -22.371094 C 26.496094 -22.300781 26.320312 -22.183594 26.167969 -22.019531 C 26.027344 -21.871094 25.929688 -21.710938 25.875 -21.535156 C 25.855469 -21.46875 25.84375 -21.421875 25.84375 -21.394531 L 25.84375 -28.527344 C 25.84375 -28.5 25.855469 -28.457031 25.875 -28.390625 C 25.929688 -28.214844 26.027344 -28.050781 26.167969 -27.902344 C 26.320312 -27.742188 26.496094 -27.625 26.695312 -27.554688 C 26.792969 -27.519531 26.878906 -27.5 26.941406 -27.5 L 11.148438 -27.5 L 11.148438 -43.097656 L 31.191406 -43.097656 C 31.128906 -43.097656 31.042969 -43.082031 30.945312 -43.046875 C 30.746094 -42.976562 30.570312 -42.859375 30.417969 -42.695312 C 30.277344 -42.546875 30.179688 -42.386719 30.125 -42.210938 C 30.105469 -42.144531 30.09375 -42.097656 30.09375 -42.070312 Z M 30.09375 -49.273438 "/></g></g><g style="fill:#b21a22;fill-opacity:1;"><g transform="translate(136.200248, 266.022257)"><path style="stroke:none" d="M 33.714844 -52.679688 L 43.222656 -52.679688 C 44.324219 -52.679688 45.214844 -52.339844 45.894531 -51.660156 C 46.574219 -50.980469 46.914062 -50.089844 46.914062 -48.988281 L 46.914062 -1.441406 C 46.914062 -0.339844 46.574219 0.550781 45.894531 1.230469 C 45.214844 1.910156 44.324219 2.25 43.222656 2.25 L 36.523438 2.25 C 35.421875 2.25 34.53125 1.910156 33.851562 1.230469 C 33.171875 0.550781 32.832031 -0.339844 32.832031 -1.441406 L 32.832031 -29.753906 L 35.082031 -29.753906 L 35.082031 -27.5 L 34.578125 -27.5 L 34.578125 -29.753906 L 36.769531 -29.230469 L 29.984375 -0.648438 L 29.96875 -0.589844 C 29.710938 0.285156 29.257812 0.972656 28.609375 1.476562 C 27.9375 1.992188 27.144531 2.25 26.222656 2.25 L 21.972656 2.25 C 21.050781 2.25 20.257812 1.992188 19.585938 1.476562 C 18.9375 0.972656 18.484375 0.285156 18.226562 -0.589844 L 18.210938 -0.648438 L 11.425781 -29.230469 L 13.617188 -29.753906 L 13.617188 -27.5 L 13.109375 -27.5 L 13.109375 -29.753906 L 15.363281 -29.753906 L 15.363281 -1.441406 C 15.363281 -0.339844 15.023438 0.550781 14.34375 1.230469 C 13.664062 1.910156 12.773438 2.25 11.671875 2.25 L 5.042969 2.25 C 3.941406 2.25 3.050781 1.910156 2.371094 1.230469 C 1.691406 0.550781 1.351562 -0.339844 1.351562 -1.441406 L 1.351562 -48.988281 C 1.351562 -50.089844 1.691406 -50.980469 2.371094 -51.660156 C 3.050781 -52.339844 3.941406 -52.679688 5.042969 -52.679688 L 14.550781 -52.679688 C 15.472656 -52.679688 16.269531 -52.421875 16.9375 -51.902344 C 17.585938 -51.402344 18.039062 -50.714844 18.296875 -49.839844 L 18.308594 -49.792969 L 26.316406 -17.617188 L 24.132812 -17.074219 L 21.949219 -17.617188 L 29.957031 -49.792969 L 29.96875 -49.839844 C 30.226562 -50.714844 30.679688 -51.402344 31.328125 -51.902344 C 32 -52.421875 32.792969 -52.679688 33.714844 -52.679688 Z M 33.714844 -48.175781 C 33.820312 -48.175781 33.941406 -48.230469 34.082031 -48.339844 C 34.160156 -48.402344 34.226562 -48.46875 34.269531 -48.542969 C 34.28125 -48.558594 34.289062 -48.574219 34.296875 -48.589844 C 34.296875 -48.585938 34.292969 -48.578125 34.289062 -48.566406 L 32.128906 -49.203125 L 34.3125 -48.660156 L 26.316406 -16.53125 L 21.949219 -16.53125 L 13.953125 -48.660156 L 16.136719 -49.203125 L 13.976562 -48.566406 C 13.972656 -48.578125 13.972656 -48.585938 13.96875 -48.589844 C 13.976562 -48.574219 13.984375 -48.558594 13.996094 -48.542969 C 14.042969 -48.46875 14.105469 -48.402344 14.183594 -48.339844 C 14.324219 -48.230469 14.449219 -48.175781 14.550781 -48.175781 L 5.042969 -48.175781 C 5.03125 -48.175781 5.023438 -48.175781 5.019531 -48.175781 C 5.019531 -48.175781 5.019531 -48.175781 5.023438 -48.175781 C 5.050781 -48.179688 5.085938 -48.1875 5.125 -48.203125 C 5.28125 -48.253906 5.421875 -48.34375 5.554688 -48.476562 C 5.683594 -48.605469 5.777344 -48.75 5.828125 -48.90625 C 5.839844 -48.945312 5.847656 -48.976562 5.851562 -49.007812 C 5.855469 -49.007812 5.855469 -49.011719 5.855469 -49.011719 C 5.855469 -49.003906 5.851562 -48.996094 5.851562 -48.988281 L 5.851562 -1.441406 C 5.851562 -1.429688 5.855469 -1.421875 5.855469 -1.417969 C 5.855469 -1.417969 5.855469 -1.417969 5.851562 -1.421875 C 5.847656 -1.449219 5.839844 -1.484375 5.828125 -1.523438 C 5.777344 -1.679688 5.683594 -1.820312 5.554688 -1.953125 C 5.421875 -2.082031 5.28125 -2.175781 5.125 -2.226562 C 5.085938 -2.238281 5.050781 -2.246094 5.023438 -2.25 C 5.019531 -2.25 5.019531 -2.253906 5.019531 -2.253906 C 5.023438 -2.25 5.03125 -2.25 5.042969 -2.25 L 11.671875 -2.25 C 11.679688 -2.25 11.6875 -2.25 11.695312 -2.253906 C 11.695312 -2.253906 11.691406 -2.25 11.691406 -2.25 C 11.660156 -2.246094 11.628906 -2.238281 11.589844 -2.226562 C 11.433594 -2.175781 11.289062 -2.082031 11.160156 -1.953125 C 11.027344 -1.820312 10.9375 -1.679688 10.886719 -1.523438 C 10.871094 -1.484375 10.863281 -1.449219 10.859375 -1.421875 C 10.859375 -1.417969 10.859375 -1.417969 10.859375 -1.417969 C 10.859375 -1.421875 10.859375 -1.429688 10.859375 -1.441406 L 10.859375 -32.003906 L 15.394531 -32.003906 L 22.578125 -1.746094 L 20.386719 -1.226562 L 22.546875 -1.859375 C 22.550781 -1.847656 22.550781 -1.839844 22.554688 -1.839844 C 22.546875 -1.851562 22.539062 -1.867188 22.527344 -1.886719 C 22.480469 -1.957031 22.417969 -2.027344 22.339844 -2.085938 C 22.199219 -2.195312 22.078125 -2.25 21.972656 -2.25 L 26.222656 -2.25 C 26.117188 -2.25 25.996094 -2.195312 25.855469 -2.085938 C 25.773438 -2.027344 25.710938 -1.957031 25.667969 -1.886719 C 25.65625 -1.867188 25.644531 -1.851562 25.640625 -1.839844 C 25.640625 -1.839844 25.644531 -1.847656 25.648438 -1.859375 L 27.808594 -1.226562 L 25.617188 -1.746094 L 32.800781 -32.003906 L 37.335938 -32.003906 L 37.335938 -1.441406 C 37.335938 -1.429688 37.335938 -1.421875 37.335938 -1.417969 C 37.335938 -1.417969 37.335938 -1.417969 37.335938 -1.421875 C 37.332031 -1.449219 37.320312 -1.484375 37.308594 -1.523438 C 37.257812 -1.679688 37.164062 -1.820312 37.035156 -1.953125 C 36.90625 -2.082031 36.761719 -2.175781 36.605469 -2.226562 C 36.566406 -2.238281 36.535156 -2.246094 36.503906 -2.25 C 36.5 -2.25 36.5 -2.253906 36.5 -2.253906 C 36.503906 -2.25 36.515625 -2.25 36.523438 -2.25 L 43.222656 -2.25 C 43.234375 -2.25 43.242188 -2.25 43.25 -2.253906 C 43.25 -2.253906 43.246094 -2.25 43.242188 -2.25 C 43.214844 -2.246094 43.179688 -2.238281 43.140625 -2.226562 C 42.984375 -2.175781 42.84375 -2.082031 42.710938 -1.953125 C 42.582031 -1.820312 42.492188 -1.679688 42.4375 -1.523438 C 42.425781 -1.484375 42.417969 -1.449219 42.414062 -1.421875 C 42.414062 -1.417969 42.414062 -1.417969 42.414062 -1.417969 C 42.414062 -1.421875 42.414062 -1.429688 42.414062 -1.441406 L 42.414062 -48.988281 C 42.414062 -48.996094 42.414062 -49.003906 42.414062 -49.011719 C 42.414062 -49.011719 42.414062 -49.007812 42.414062 -49.007812 C 42.417969 -48.976562 42.425781 -48.945312 42.4375 -48.90625 C 42.492188 -48.75 42.582031 -48.605469 42.710938 -48.476562 C 42.84375 -48.34375 42.984375 -48.253906 43.140625 -48.203125 C 43.179688 -48.1875 43.214844 -48.179688 43.242188 -48.175781 C 43.246094 -48.175781 43.25 -48.175781 43.25 -48.175781 C 43.242188 -48.175781 43.234375 -48.175781 43.222656 -48.175781 Z M 33.714844 -48.175781 "/></g></g><g style="fill:#b21a22;fill-opacity:1;"><g transform="translate(184.451527, 266.022257)"><path style="stroke:none" d="M 37.605469 2.25 L 30.617188 2.25 C 29.742188 2.25 28.996094 1.980469 28.378906 1.441406 C 27.8125 0.945312 27.4375 0.285156 27.261719 -0.535156 L 29.464844 -1.007812 L 27.28125 -0.453125 L 24.976562 -9.53125 L 27.160156 -10.085938 L 27.160156 -7.835938 L 13.617188 -7.835938 L 13.617188 -10.085938 L 15.800781 -9.546875 L 13.570312 -0.46875 L 11.382812 -1.007812 L 13.582031 -0.535156 C 13.40625 0.285156 13.035156 0.945312 12.46875 1.441406 C 11.851562 1.980469 11.105469 2.25 10.230469 2.25 L 3.167969 2.25 C 1.996094 2.25 1.105469 1.855469 0.5 1.0625 C -0.121094 0.253906 -0.261719 -0.722656 0.0742188 -1.859375 L 2.234375 -1.226562 L 0.046875 -1.765625 L 12.007812 -49.960938 L 14.191406 -49.417969 L 11.992188 -49.890625 C 12.171875 -50.738281 12.566406 -51.414062 13.175781 -51.914062 C 13.792969 -52.425781 14.542969 -52.679688 15.417969 -52.679688 L 25.429688 -52.679688 C 26.304688 -52.679688 27.050781 -52.425781 27.671875 -51.914062 C 28.28125 -51.414062 28.675781 -50.738281 28.855469 -49.890625 L 26.65625 -49.417969 L 28.839844 -49.960938 L 40.796875 -1.765625 L 38.613281 -1.226562 L 40.773438 -1.859375 C 41.117188 -0.6875 40.953125 0.308594 40.277344 1.125 C 39.660156 1.875 38.769531 2.25 37.605469 2.25 Z M 37.605469 -2.25 C 37.617188 -2.25 37.625 -2.25 37.632812 -2.253906 C 37.632812 -2.253906 37.628906 -2.25 37.625 -2.25 C 37.582031 -2.246094 37.535156 -2.234375 37.480469 -2.214844 C 37.222656 -2.132812 36.996094 -1.972656 36.804688 -1.738281 C 36.585938 -1.472656 36.464844 -1.183594 36.441406 -0.863281 C 36.429688 -0.742188 36.433594 -0.652344 36.453125 -0.589844 L 36.441406 -0.636719 L 24.460938 -48.910156 L 24.453125 -48.949219 C 24.492188 -48.773438 24.609375 -48.601562 24.808594 -48.4375 C 25.019531 -48.261719 25.226562 -48.175781 25.429688 -48.175781 L 15.417969 -48.175781 C 15.617188 -48.175781 15.824219 -48.261719 16.039062 -48.4375 C 16.238281 -48.601562 16.355469 -48.773438 16.394531 -48.949219 L 16.386719 -48.910156 L 4.40625 -0.636719 L 4.394531 -0.589844 C 4.40625 -0.636719 4.410156 -0.714844 4.402344 -0.820312 C 4.386719 -1.125 4.277344 -1.410156 4.074219 -1.671875 C 3.878906 -1.929688 3.640625 -2.105469 3.363281 -2.203125 C 3.269531 -2.234375 3.207031 -2.25 3.167969 -2.25 L 10.230469 -2.25 C 9.976562 -2.25 9.734375 -2.148438 9.503906 -1.945312 C 9.320312 -1.785156 9.214844 -1.632812 9.179688 -1.480469 L 9.1875 -1.511719 L 11.851562 -12.335938 L 28.910156 -12.335938 L 31.65625 -1.523438 L 31.664062 -1.480469 C 31.632812 -1.632812 31.527344 -1.785156 31.34375 -1.945312 C 31.109375 -2.148438 30.867188 -2.25 30.617188 -2.25 Z M 22.730469 -17.933594 L 18.195312 -37.527344 L 20.386719 -38.035156 L 22.582031 -37.527344 L 18.042969 -17.933594 L 15.847656 -18.441406 L 15.847656 -20.695312 L 24.925781 -20.695312 L 24.925781 -18.441406 Z M 27.757812 -16.191406 L 13.015625 -16.191406 L 18.195312 -38.546875 L 22.582031 -38.546875 L 27.117188 -18.949219 Z M 27.757812 -16.191406 "/></g></g><g style="fill:#b21a22;fill-opacity:1;"><g transform="translate(225.285086, 266.022257)"><path style="stroke:none" d="M 4.753906 -2.25 L 12.246094 -2.25 C 12.195312 -2.25 12.125 -2.238281 12.039062 -2.207031 C 11.847656 -2.144531 11.671875 -2.035156 11.519531 -1.878906 C 11.363281 -1.726562 11.253906 -1.550781 11.191406 -1.359375 C 11.164062 -1.273438 11.148438 -1.203125 11.148438 -1.152344 L 11.148438 -49.273438 C 11.148438 -49.222656 11.164062 -49.15625 11.191406 -49.066406 C 11.253906 -48.875 11.363281 -48.703125 11.519531 -48.546875 C 11.671875 -48.394531 11.847656 -48.285156 12.039062 -48.21875 C 12.125 -48.191406 12.195312 -48.175781 12.246094 -48.175781 L 4.753906 -48.175781 C 4.804688 -48.175781 4.875 -48.191406 4.960938 -48.21875 C 5.15625 -48.285156 5.328125 -48.394531 5.480469 -48.546875 C 5.636719 -48.703125 5.746094 -48.875 5.808594 -49.066406 C 5.839844 -49.15625 5.851562 -49.222656 5.851562 -49.273438 L 5.851562 -1.152344 C 5.851562 -1.203125 5.839844 -1.273438 5.808594 -1.359375 C 5.746094 -1.550781 5.636719 -1.726562 5.480469 -1.878906 C 5.328125 -2.035156 5.15625 -2.144531 4.960938 -2.207031 C 4.875 -2.238281 4.804688 -2.25 4.753906 -2.25 Z M 4.753906 2.25 C 3.75 2.25 2.929688 1.933594 2.296875 1.304688 C 1.667969 0.671875 1.351562 -0.148438 1.351562 -1.152344 L 1.351562 -49.273438 C 1.351562 -50.28125 1.667969 -51.101562 2.296875 -51.730469 C 2.929688 -52.363281 3.75 -52.679688 4.753906 -52.679688 L 12.246094 -52.679688 C 13.253906 -52.679688 14.070312 -52.363281 14.703125 -51.730469 C 15.335938 -51.101562 15.652344 -50.28125 15.652344 -49.273438 L 15.652344 -1.152344 C 15.652344 -0.148438 15.335938 0.671875 14.703125 1.304688 C 14.070312 1.933594 13.253906 2.25 12.246094 2.25 Z M 4.753906 2.25 "/></g></g><g style="fill:#b21a22;fill-opacity:1;"><g transform="translate(242.281051, 266.022257)"><path style="stroke:none" d="M 11.148438 -9.507812 L 11.148438 -49.273438 C 11.148438 -49.222656 11.164062 -49.15625 11.191406 -49.066406 C 11.253906 -48.875 11.363281 -48.703125 11.519531 -48.546875 C 11.671875 -48.394531 11.847656 -48.285156 12.039062 -48.21875 C 12.125 -48.191406 12.195312 -48.175781 12.246094 -48.175781 L 4.753906 -48.175781 C 4.804688 -48.175781 4.875 -48.191406 4.960938 -48.21875 C 5.15625 -48.285156 5.328125 -48.394531 5.480469 -48.546875 C 5.636719 -48.703125 5.746094 -48.875 5.808594 -49.066406 C 5.839844 -49.15625 5.851562 -49.222656 5.851562 -49.273438 L 5.851562 -1.152344 C 5.851562 -1.203125 5.839844 -1.273438 5.808594 -1.359375 C 5.746094 -1.550781 5.636719 -1.726562 5.480469 -1.878906 C 5.328125 -2.035156 5.15625 -2.144531 4.960938 -2.207031 C 4.875 -2.238281 4.804688 -2.25 4.753906 -2.25 L 27.664062 -2.25 C 27.613281 -2.25 27.542969 -2.238281 27.457031 -2.207031 C 27.261719 -2.144531 27.089844 -2.035156 26.9375 -1.878906 C 26.78125 -1.726562 26.671875 -1.550781 26.609375 -1.359375 C 26.578125 -1.273438 26.5625 -1.203125 26.5625 -1.152344 L 26.5625 -8.355469 C 26.5625 -8.304688 26.578125 -8.234375 26.609375 -8.148438 C 26.671875 -7.957031 26.78125 -7.785156 26.9375 -7.628906 C 27.089844 -7.472656 27.261719 -7.367188 27.457031 -7.300781 C 27.542969 -7.273438 27.613281 -7.257812 27.664062 -7.257812 L 11.148438 -7.257812 Z M 15.652344 -9.507812 L 13.398438 -9.507812 L 13.398438 -11.761719 L 27.664062 -11.761719 C 28.667969 -11.761719 29.488281 -11.445312 30.121094 -10.8125 C 30.75 -10.179688 31.066406 -9.363281 31.066406 -8.355469 L 31.066406 -1.152344 C 31.066406 -0.148438 30.75 0.671875 30.121094 1.304688 C 29.488281 1.933594 28.667969 2.25 27.664062 2.25 L 4.753906 2.25 C 3.75 2.25 2.929688 1.933594 2.296875 1.304688 C 1.667969 0.671875 1.351562 -0.148438 1.351562 -1.152344 L 1.351562 -49.273438 C 1.351562 -50.28125 1.667969 -51.101562 2.296875 -51.730469 C 2.929688 -52.363281 3.75 -52.679688 4.753906 -52.679688 L 12.246094 -52.679688 C 13.253906 -52.679688 14.070312 -52.363281 14.703125 -51.730469 C 15.335938 -51.101562 15.652344 -50.28125 15.652344 -49.273438 Z M 15.652344 -9.507812 "/></g></g><g style="fill:#060705;fill-opacity:1;"><g transform="translate(37.092232, 165.586797)"><path style="stroke:none" d="M 13.984375 -50.4375 L 22.046875 -50.4375 C 25.453125 -50.4375 28.03125 -49.554688 29.78125 -47.796875 C 31.539062 -46.046875 32.421875 -43.46875 32.421875 -40.0625 L 32.421875 -35.296875 C 32.421875 -34.535156 32.035156 -34.15625 31.265625 -34.15625 L 23.984375 -34.15625 C 23.222656 -34.15625 22.84375 -34.535156 22.84375 -35.296875 L 22.84375 -38.328125 C 22.84375 -40.242188 21.878906 -41.203125 19.953125 -41.203125 L 16 -41.203125 C 14.070312 -41.203125 13.109375 -40.242188 13.109375 -38.328125 L 13.109375 -32.203125 L 30.546875 -26.578125 C 31.796875 -26.148438 32.421875 -25.265625 32.421875 -23.921875 L 32.421875 -10.375 C 32.421875 -7.007812 31.539062 -4.4375 29.78125 -2.65625 C 28.03125 -0.882812 25.453125 0 22.046875 0 L 13.984375 0 C 10.617188 0 8.046875 -0.882812 6.265625 -2.65625 C 4.492188 -4.4375 3.609375 -7.007812 3.609375 -10.375 L 3.609375 -15.0625 C 3.609375 -15.820312 3.988281 -16.203125 4.75 -16.203125 L 12.03125 -16.203125 C 12.800781 -16.203125 13.1875 -15.820312 13.1875 -15.0625 L 13.1875 -12.03125 C 13.1875 -10.113281 14.144531 -9.15625 16.0625 -9.15625 L 19.953125 -9.15625 C 21.878906 -9.15625 22.84375 -10.113281 22.84375 -12.03125 L 22.84375 -19.3125 L 5.546875 -24.921875 C 4.253906 -25.359375 3.609375 -26.25 3.609375 -27.59375 L 3.609375 -40.0625 C 3.609375 -43.46875 4.492188 -46.046875 6.265625 -47.796875 C 8.046875 -49.554688 10.617188 -50.4375 13.984375 -50.4375 Z M 13.984375 -50.4375 "/></g></g><g style="fill:#060705;fill-opacity:1;"><g transform="translate(73.100655, 165.586797)"><path style="stroke:none" d="M 37.609375 0 L 30.625 0 C 30 0 29.613281 -0.335938 29.46875 -1.015625 L 27.15625 -10.09375 L 13.609375 -10.09375 L 11.390625 -1.015625 C 11.242188 -0.335938 10.859375 0 10.234375 0 L 3.171875 0 C 2.304688 0 1.992188 -0.40625 2.234375 -1.21875 L 14.1875 -49.421875 C 14.332031 -50.097656 14.742188 -50.4375 15.421875 -50.4375 L 25.4375 -50.4375 C 26.101562 -50.4375 26.507812 -50.097656 26.65625 -49.421875 L 38.609375 -1.21875 C 38.859375 -0.40625 38.523438 0 37.609375 0 Z M 24.921875 -18.4375 L 20.390625 -38.046875 L 15.84375 -18.4375 Z M 24.921875 -18.4375 "/></g></g><g style="fill:#060705;fill-opacity:1;"><g transform="translate(113.934214, 165.586797)"><path style="stroke:none" d="M 26.4375 -50.4375 L 33.21875 -50.4375 C 33.976562 -50.4375 34.359375 -50.050781 34.359375 -49.28125 L 34.359375 -1.15625 C 34.359375 -0.382812 33.976562 0 33.21875 0 L 27.515625 0 C 26.941406 0 26.507812 -0.3125 26.21875 -0.9375 L 12.6875 -28.453125 L 12.6875 -1.15625 C 12.6875 -0.382812 12.300781 0 11.53125 0 L 4.75 0 C 3.988281 0 3.609375 -0.382812 3.609375 -1.15625 L 3.609375 -49.28125 C 3.609375 -50.050781 3.988281 -50.4375 4.75 -50.4375 L 10.453125 -50.4375 C 11.023438 -50.4375 11.457031 -50.125 11.75 -49.5 L 25.28125 -21.96875 L 25.28125 -49.28125 C 25.28125 -50.050781 25.664062 -50.4375 26.4375 -50.4375 Z M 26.4375 -50.4375 "/></g></g><g style="fill:#060705;fill-opacity:1;"><g transform="translate(151.887104, 165.586797)"><path style="stroke:none" d="M 4.75 0 L 12.25 0 C 13.019531 0 13.40625 -0.382812 13.40625 -1.15625 L 13.40625 -49.28125 C 13.40625 -50.050781 13.019531 -50.4375 12.25 -50.4375 L 4.75 -50.4375 C 3.988281 -50.4375 3.609375 -50.050781 3.609375 -49.28125 L 3.609375 -1.15625 C 3.609375 -0.382812 3.988281 0 4.75 0 Z M 4.75 0 "/></g></g><g style="fill:#060705;fill-opacity:1;"><g transform="translate(168.883068, 165.586797)"><path style="stroke:none" d="M 29.828125 -50.4375 L 3.3125 -50.4375 C 2.539062 -50.4375 2.15625 -50.050781 2.15625 -49.28125 L 2.15625 -42.078125 C 2.15625 -41.304688 2.539062 -40.921875 3.3125 -40.921875 L 11.671875 -40.921875 L 11.671875 -1.15625 C 11.671875 -0.382812 12.054688 0 12.828125 0 L 20.3125 0 C 21.082031 0 21.46875 -0.382812 21.46875 -1.15625 L 21.46875 -40.921875 L 29.828125 -40.921875 C 30.597656 -40.921875 30.984375 -41.304688 30.984375 -42.078125 L 30.984375 -49.28125 C 30.984375 -50.050781 30.597656 -50.4375 29.828125 -50.4375 Z M 29.828125 -50.4375 "/></g></g><g style="fill:#060705;fill-opacity:1;"><g transform="translate(202.010821, 165.586797)"><path style="stroke:none" d="M 4.75 0 L 12.25 0 C 13.019531 0 13.40625 -0.382812 13.40625 -1.15625 L 13.40625 -49.28125 C 13.40625 -50.050781 13.019531 -50.4375 12.25 -50.4375 L 4.75 -50.4375 C 3.988281 -50.4375 3.609375 -50.050781 3.609375 -49.28125 L 3.609375 -1.15625 C 3.609375 -0.382812 3.988281 0 4.75 0 Z M 4.75 0 "/></g></g><g style="fill:#060705;fill-opacity:1;"><g transform="translate(219.006785, 165.586797)"><path style="stroke:none" d="M 5.90625 -50.4375 L 33.21875 -50.4375 C 33.789062 -50.4375 34.171875 -50.28125 34.359375 -49.96875 C 34.554688 -49.65625 34.535156 -49.234375 34.296875 -48.703125 L 15.921875 -8.859375 L 31.703125 -8.859375 C 32.472656 -8.859375 32.859375 -8.472656 32.859375 -7.703125 L 32.859375 -1.21875 C 32.859375 -0.5 32.472656 -0.09375 31.703125 0 L 3.453125 0 C 2.878906 0 2.492188 -0.164062 2.296875 -0.5 C 2.109375 -0.84375 2.132812 -1.253906 2.375 -1.734375 L 20.75 -40.921875 L 5.90625 -40.921875 C 5.132812 -40.921875 4.75 -41.304688 4.75 -42.078125 L 4.75 -49.203125 C 4.75 -49.921875 5.132812 -50.332031 5.90625 -50.4375 Z M 5.90625 -50.4375 "/></g></g><g style="fill:#060705;fill-opacity:1;"><g transform="translate(255.591353, 165.586797)"><path style="stroke:none" d="M 32.34375 -49.28125 L 32.34375 -42.078125 C 32.34375 -41.253906 31.960938 -40.84375 31.203125 -40.84375 L 13.40625 -40.84375 L 13.40625 -29.75 L 26.953125 -29.75 C 27.710938 -29.75 28.09375 -29.34375 28.09375 -28.53125 L 28.09375 -21.390625 C 28.09375 -20.578125 27.710938 -20.171875 26.953125 -20.171875 L 13.40625 -20.171875 L 13.40625 -9.515625 L 31.203125 -9.515625 C 31.960938 -9.515625 32.34375 -9.128906 32.34375 -8.359375 L 32.34375 -1.15625 C 32.34375 -0.382812 31.960938 0 31.203125 0 L 4.6875 0 C 3.96875 0 3.609375 -0.382812 3.609375 -1.15625 L 3.609375 -49.28125 C 3.609375 -50.050781 3.96875 -50.4375 4.6875 -50.4375 L 31.203125 -50.4375 C 31.960938 -50.4375 32.34375 -50.050781 32.34375 -49.28125 Z M 32.34375 -49.28125 "/></g></g><g style="fill:#060705;fill-opacity:1;"><g transform="translate(291.527747, 165.586797)"><path style="stroke:none" d="M 0 9.65625 L 0 3.03125 C 0 2.0625 0.476562 1.578125 1.4375 1.578125 L 44.890625 1.578125 C 45.847656 1.578125 46.328125 2.0625 46.328125 3.03125 L 46.328125 9.65625 C 46.328125 10.613281 45.847656 11.09375 44.890625 11.09375 L 1.4375 11.09375 C 0.476562 11.09375 0 10.613281 0 9.65625 Z M 0 9.65625 "/></g></g><g style="fill:#060705;fill-opacity:1;"><g transform="translate(100.263854, 266.022257)"><path style="stroke:none" d="M 32.34375 -49.28125 L 32.34375 -42.078125 C 32.34375 -41.253906 31.960938 -40.84375 31.203125 -40.84375 L 13.40625 -40.84375 L 13.40625 -29.75 L 26.953125 -29.75 C 27.710938 -29.75 28.09375 -29.34375 28.09375 -28.53125 L 28.09375 -21.390625 C 28.09375 -20.578125 27.710938 -20.171875 26.953125 -20.171875 L 13.40625 -20.171875 L 13.40625 -9.515625 L 31.203125 -9.515625 C 31.960938 -9.515625 32.34375 -9.128906 32.34375 -8.359375 L 32.34375 -1.15625 C 32.34375 -0.382812 31.960938 0 31.203125 0 L 4.6875 0 C 3.96875 0 3.609375 -0.382812 3.609375 -1.15625 L 3.609375 -49.28125 C 3.609375 -50.050781 3.96875 -50.4375 4.6875 -50.4375 L 31.203125 -50.4375 C 31.960938 -50.4375 32.34375 -50.050781 32.34375 -49.28125 Z M 32.34375 -49.28125 "/></g></g><g style="fill:#060705;fill-opacity:1;"><g transform="translate(136.200248, 266.022257)"><path style="stroke:none" d="M 33.71875 -50.4375 L 43.234375 -50.4375 C 44.191406 -50.4375 44.671875 -49.953125 44.671875 -48.984375 L 44.671875 -1.4375 C 44.671875 -0.476562 44.191406 0 43.234375 0 L 36.53125 0 C 35.570312 0 35.09375 -0.476562 35.09375 -1.4375 L 35.09375 -29.75 L 34.578125 -29.75 L 27.8125 -1.21875 C 27.570312 -0.40625 27.039062 0 26.21875 0 L 21.96875 0 C 21.15625 0 20.628906 -0.40625 20.390625 -1.21875 L 13.609375 -29.75 L 13.109375 -29.75 L 13.109375 -1.4375 C 13.109375 -0.476562 12.628906 0 11.671875 0 L 5.046875 0 C 4.085938 0 3.609375 -0.476562 3.609375 -1.4375 L 3.609375 -48.984375 C 3.609375 -49.953125 4.085938 -50.4375 5.046875 -50.4375 L 14.546875 -50.4375 C 15.367188 -50.4375 15.898438 -50.023438 16.140625 -49.203125 L 24.140625 -17.078125 L 32.140625 -49.203125 C 32.378906 -50.023438 32.90625 -50.4375 33.71875 -50.4375 Z M 33.71875 -50.4375 "/></g></g><g style="fill:#060705;fill-opacity:1;"><g transform="translate(184.451527, 266.022257)"><path style="stroke:none" d="M 37.609375 0 L 30.625 0 C 30 0 29.613281 -0.335938 29.46875 -1.015625 L 27.15625 -10.09375 L 13.609375 -10.09375 L 11.390625 -1.015625 C 11.242188 -0.335938 10.859375 0 10.234375 0 L 3.171875 0 C 2.304688 0 1.992188 -0.40625 2.234375 -1.21875 L 14.1875 -49.421875 C 14.332031 -50.097656 14.742188 -50.4375 15.421875 -50.4375 L 25.4375 -50.4375 C 26.101562 -50.4375 26.507812 -50.097656 26.65625 -49.421875 L 38.609375 -1.21875 C 38.859375 -0.40625 38.523438 0 37.609375 0 Z M 24.921875 -18.4375 L 20.390625 -38.046875 L 15.84375 -18.4375 Z M 24.921875 -18.4375 "/></g></g><g style="fill:#060705;fill-opacity:1;"><g transform="translate(225.285086, 266.022257)"><path style="stroke:none" d="M 4.75 0 L 12.25 0 C 13.019531 0 13.40625 -0.382812 13.40625 -1.15625 L 13.40625 -49.28125 C 13.40625 -50.050781 13.019531 -50.4375 12.25 -50.4375 L 4.75 -50.4375 C 3.988281 -50.4375 3.609375 -50.050781 3.609375 -49.28125 L 3.609375 -1.15625 C 3.609375 -0.382812 3.988281 0 4.75 0 Z M 4.75 0 "/></g></g><g style="fill:#060705;fill-opacity:1;"><g transform="translate(242.281051, 266.022257)"><path style="stroke:none" d="M 13.40625 -9.515625 L 13.40625 -49.28125 C 13.40625 -50.050781 13.019531 -50.4375 12.25 -50.4375 L 4.75 -50.4375 C 3.988281 -50.4375 3.609375 -50.050781 3.609375 -49.28125 L 3.609375 -1.15625 C 3.609375 -0.382812 3.988281 0 4.75 0 L 27.671875 0 C 28.429688 0 28.8125 -0.382812 28.8125 -1.15625 L 28.8125 -8.359375 C 28.8125 -9.128906 28.429688 -9.515625 27.671875 -9.515625 Z M 13.40625 -9.515625 "/></g></g></g></svg>