<svg xmlns="http://www.w3.org/2000/svg" xmlns:xlink="http://www.w3.org/1999/xlink" width="128" zoomAndPan="magnify" viewBox="0 0 96 95.999999" height="128" preserveAspectRatio="xMidYMid meet" version="1.0"><defs><g/><clipPath id="3cc6fe256f"><path d="M 6 0 L 90 0 L 90 96 L 6 96 Z M 6 0 " clip-rule="nonzero"/></clipPath><clipPath id="ffb686bf9e"><path d="M -14.304688 36.578125 L 68.691406 -11.898438 L 110.335938 59.402344 L 27.339844 107.878906 Z M -14.304688 36.578125 " clip-rule="nonzero"/></clipPath><clipPath id="3a6624d3ee"><path d="M 89.484375 23.769531 L 89.5625 71.535156 L 48.082031 95.765625 L 6.515625 72.226562 L 6.4375 24.464844 L 47.921875 0.234375 Z M 89.484375 23.769531 " clip-rule="nonzero"/></clipPath><clipPath id="89568c3b90"><path d="M 0.238281 0 L 83.761719 0 L 83.761719 96 L 0.238281 96 Z M 0.238281 0 " clip-rule="nonzero"/></clipPath><clipPath id="5ebb243501"><path d="M -20.304688 36.578125 L 62.691406 -11.898438 L 104.335938 59.402344 L 21.339844 107.878906 Z M -20.304688 36.578125 " clip-rule="nonzero"/></clipPath><clipPath id="a84c5744ed"><path d="M 83.484375 23.769531 L 83.5625 71.535156 L 42.082031 95.765625 L 0.515625 72.226562 L 0.4375 24.464844 L 41.921875 0.234375 Z M 83.484375 23.769531 " clip-rule="nonzero"/></clipPath><clipPath id="0728a2cc2d"><rect x="0" width="84" y="0" height="96"/></clipPath><clipPath id="c78f5a515c"><path d="M 14.140625 9.121094 L 81.851562 9.121094 L 81.851562 86.839844 L 14.140625 86.839844 Z M 14.140625 9.121094 " clip-rule="nonzero"/></clipPath><clipPath id="097ce504b6"><rect x="0" width="96" y="0" height="96"/></clipPath><clipPath id="e9c9042600"><rect x="0" width="82" y="0" height="47"/></clipPath></defs><g transform="matrix(1, 0, 0, 1, 0, -0.000000000000008101)"><g clip-path="url(#097ce504b6)"><g clip-path="url(#3cc6fe256f)"><g clip-path="url(#ffb686bf9e)"><g clip-path="url(#3a6624d3ee)"><g transform="matrix(1, 0, 0, 1, 6, -0.000000000000008101)"><g clip-path="url(#0728a2cc2d)"><g clip-path="url(#89568c3b90)"><g clip-path="url(#5ebb243501)"><g clip-path="url(#a84c5744ed)"><path fill="#65b30e" d="M -20.304688 36.578125 L 62.691406 -11.898438 L 104.335938 59.402344 L 21.339844 107.878906 Z M -20.304688 36.578125 " fill-opacity="1" fill-rule="nonzero"/></g></g></g></g></g></g></g></g><path fill="#87ff00" d="M 34.464844 34.753906 L 34.417969 34.707031 L 24.847656 44.28125 L 48.089844 67.484375 L 57.664062 57.957031 L 71.335938 44.28125 L 61.761719 34.707031 L 61.761719 34.664062 L 34.421875 34.664062 Z M 34.464844 34.753906 " fill-opacity="1" fill-rule="nonzero"/><g clip-path="url(#c78f5a515c)"><path fill="#87ff00" d="M 48.003906 9.179688 L 14.148438 28.585938 L 14.148438 67.398438 L 48.003906 86.808594 L 81.859375 67.398438 L 81.859375 28.585938 Z M 75.390625 63.6875 L 48.003906 79.472656 L 20.617188 63.6875 L 20.621094 32.207031 L 48.003906 16.421875 L 75.390625 32.207031 Z M 75.390625 63.6875 " fill-opacity="1" fill-rule="nonzero"/></g></g></g><g transform="matrix(1, 0, 0, 1, 7, 23)"><g clip-path="url(#e9c9042600)"><g fill="#b21a22" fill-opacity="1"><g transform="translate(18.813028, 18.36266)"><g><path d="M 7.03125 -12.921875 L 8.800781 -12.921875 C 9.109375 -12.921875 9.351562 -12.808594 9.519531 -12.589844 C 9.625 -12.453125 9.679688 -12.296875 9.679688 -12.121094 C 9.679688 -11.988281 9.644531 -11.851562 9.574219 -11.714844 L 9.082031 -11.960938 L 9.585938 -11.738281 L 6.355469 -4.40625 L 5.847656 -4.628906 L 6.402344 -4.628906 L 6.402344 -0.351562 C 6.402344 -0.0820312 6.316406 0.136719 6.152344 0.300781 C 5.984375 0.46875 5.765625 0.550781 5.496094 0.550781 L 3.796875 0.550781 C 3.527344 0.550781 3.308594 0.46875 3.144531 0.300781 C 2.976562 0.136719 2.894531 -0.0820312 2.894531 -0.351562 L 2.894531 -4.628906 L 3.445312 -4.628906 L 2.941406 -4.40625 L -0.296875 -11.746094 L -0.300781 -11.757812 C -0.421875 -12.058594 -0.398438 -12.328125 -0.234375 -12.566406 C -0.0703125 -12.800781 0.171875 -12.921875 0.496094 -12.921875 L 2.261719 -12.921875 C 2.476562 -12.921875 2.667969 -12.863281 2.828125 -12.75 C 2.992188 -12.636719 3.109375 -12.480469 3.183594 -12.277344 L 2.667969 -12.085938 L 3.175781 -12.304688 L 5.152344 -7.765625 L 4.648438 -7.542969 L 4.140625 -7.765625 L 6.121094 -12.304688 L 6.625 -12.085938 L 6.109375 -12.277344 C 6.183594 -12.480469 6.304688 -12.636719 6.464844 -12.75 C 6.628906 -12.863281 6.816406 -12.921875 7.03125 -12.921875 Z M 7.03125 -11.816406 C 7.046875 -11.816406 7.070312 -11.824219 7.097656 -11.84375 C 7.121094 -11.863281 7.136719 -11.878906 7.144531 -11.890625 L 7.136719 -11.878906 L 4.648438 -6.164062 L 2.15625 -11.878906 L 2.152344 -11.890625 C 2.15625 -11.878906 2.171875 -11.863281 2.199219 -11.84375 C 2.226562 -11.824219 2.246094 -11.816406 2.261719 -11.816406 L 0.496094 -11.816406 C 0.503906 -11.816406 0.519531 -11.820312 0.542969 -11.832031 C 0.597656 -11.851562 0.640625 -11.890625 0.675781 -11.9375 C 0.710938 -11.988281 0.730469 -12.046875 0.730469 -12.105469 C 0.730469 -12.132812 0.730469 -12.15625 0.726562 -12.167969 L 0.210938 -11.960938 L 0.71875 -12.183594 L 3.996094 -4.746094 L 3.996094 -0.351562 C 3.996094 -0.351562 3.996094 -0.347656 3.996094 -0.347656 C 3.996094 -0.355469 3.996094 -0.363281 3.992188 -0.375 C 3.980469 -0.410156 3.957031 -0.445312 3.925781 -0.480469 C 3.890625 -0.511719 3.855469 -0.535156 3.820312 -0.546875 C 3.808594 -0.550781 3.800781 -0.550781 3.792969 -0.550781 C 3.792969 -0.550781 3.796875 -0.550781 3.796875 -0.550781 L 5.496094 -0.550781 C 5.496094 -0.550781 5.5 -0.550781 5.5 -0.550781 C 5.492188 -0.550781 5.484375 -0.550781 5.476562 -0.546875 C 5.4375 -0.535156 5.402344 -0.511719 5.371094 -0.480469 C 5.335938 -0.445312 5.316406 -0.410156 5.300781 -0.375 C 5.300781 -0.363281 5.296875 -0.355469 5.296875 -0.347656 C 5.296875 -0.347656 5.296875 -0.351562 5.296875 -0.351562 L 5.296875 -4.746094 L 8.582031 -12.195312 L 8.585938 -12.207031 C 8.578125 -12.191406 8.574219 -12.160156 8.574219 -12.121094 C 8.574219 -12.046875 8.597656 -11.976562 8.644531 -11.917969 C 8.675781 -11.875 8.714844 -11.847656 8.757812 -11.828125 C 8.777344 -11.820312 8.792969 -11.816406 8.800781 -11.816406 Z M 7.03125 -11.816406 "/></g></g></g><g fill="#b21a22" fill-opacity="1"><g transform="translate(28.106413, 18.36266)"><g><path d="M 9.222656 0.550781 L 7.507812 0.550781 C 7.292969 0.550781 7.109375 0.484375 6.960938 0.355469 C 6.820312 0.230469 6.730469 0.0703125 6.6875 -0.132812 L 7.226562 -0.246094 L 6.691406 -0.113281 L 6.125 -2.335938 L 6.660156 -2.472656 L 6.660156 -1.921875 L 3.339844 -1.921875 L 3.339844 -2.472656 L 3.875 -2.339844 L 3.328125 -0.117188 L 2.792969 -0.246094 L 3.332031 -0.132812 C 3.289062 0.0703125 3.195312 0.230469 3.058594 0.355469 C 2.90625 0.484375 2.722656 0.550781 2.507812 0.550781 L 0.777344 0.550781 C 0.488281 0.550781 0.269531 0.453125 0.121094 0.261719 C -0.03125 0.0625 -0.0625 -0.175781 0.0195312 -0.457031 L 0.546875 -0.300781 L 0.0117188 -0.433594 L 2.945312 -12.253906 L 3.480469 -12.121094 L 2.941406 -12.238281 C 2.984375 -12.445312 3.082031 -12.609375 3.230469 -12.734375 C 3.382812 -12.859375 3.566406 -12.921875 3.78125 -12.921875 L 6.238281 -12.921875 C 6.453125 -12.921875 6.636719 -12.859375 6.785156 -12.734375 C 6.9375 -12.609375 7.03125 -12.445312 7.078125 -12.238281 L 6.539062 -12.121094 L 7.074219 -12.253906 L 10.007812 -0.433594 L 9.46875 -0.300781 L 10 -0.457031 C 10.085938 -0.167969 10.042969 0.0742188 9.878906 0.277344 C 9.726562 0.460938 9.507812 0.550781 9.222656 0.550781 Z M 9.222656 -0.550781 C 9.226562 -0.550781 9.226562 -0.550781 9.230469 -0.550781 C 9.230469 -0.550781 9.230469 -0.550781 9.226562 -0.550781 C 9.21875 -0.550781 9.207031 -0.546875 9.191406 -0.542969 C 9.128906 -0.523438 9.074219 -0.484375 9.027344 -0.425781 C 8.972656 -0.363281 8.945312 -0.289062 8.9375 -0.210938 C 8.933594 -0.183594 8.9375 -0.160156 8.941406 -0.144531 L 8.9375 -0.15625 L 6 -11.996094 L 5.996094 -12.003906 C 6.007812 -11.960938 6.035156 -11.921875 6.085938 -11.878906 C 6.136719 -11.835938 6.1875 -11.816406 6.238281 -11.816406 L 3.78125 -11.816406 C 3.832031 -11.816406 3.882812 -11.835938 3.933594 -11.878906 C 3.980469 -11.921875 4.011719 -11.960938 4.019531 -12.003906 L 4.019531 -11.996094 L 1.082031 -0.15625 L 1.078125 -0.144531 C 1.082031 -0.15625 1.082031 -0.175781 1.082031 -0.203125 C 1.074219 -0.277344 1.050781 -0.347656 1 -0.410156 C 0.953125 -0.472656 0.894531 -0.515625 0.824219 -0.539062 C 0.800781 -0.546875 0.785156 -0.550781 0.777344 -0.550781 L 2.507812 -0.550781 C 2.445312 -0.550781 2.386719 -0.527344 2.332031 -0.476562 C 2.285156 -0.4375 2.257812 -0.398438 2.25 -0.363281 L 2.253906 -0.371094 L 2.90625 -3.027344 L 7.089844 -3.027344 L 7.765625 -0.375 L 7.765625 -0.363281 C 7.757812 -0.398438 7.730469 -0.4375 7.6875 -0.476562 C 7.628906 -0.527344 7.570312 -0.550781 7.507812 -0.550781 Z M 5.574219 -4.398438 L 4.460938 -9.203125 L 5 -9.328125 L 5.539062 -9.203125 L 4.425781 -4.398438 L 3.886719 -4.523438 L 3.886719 -5.074219 L 6.113281 -5.074219 L 6.113281 -4.523438 Z M 6.808594 -3.972656 L 3.191406 -3.972656 L 4.460938 -9.453125 L 5.539062 -9.453125 L 6.652344 -4.648438 Z M 6.808594 -3.972656 "/></g></g></g><g fill="#b21a22" fill-opacity="1"><g transform="translate(38.124186, 18.36266)"><g><path d="M 8.269531 -12.921875 L 10.601562 -12.921875 C 10.871094 -12.921875 11.089844 -12.835938 11.257812 -12.671875 C 11.421875 -12.503906 11.507812 -12.285156 11.507812 -12.015625 L 11.507812 -0.351562 C 11.507812 -0.0820312 11.421875 0.136719 11.257812 0.300781 C 11.089844 0.46875 10.871094 0.550781 10.601562 0.550781 L 8.957031 0.550781 C 8.6875 0.550781 8.46875 0.46875 8.300781 0.300781 C 8.136719 0.136719 8.050781 -0.0820312 8.050781 -0.351562 L 8.050781 -7.296875 L 8.605469 -7.296875 L 8.605469 -6.746094 L 8.480469 -6.746094 L 8.480469 -7.296875 L 9.019531 -7.167969 L 7.355469 -0.160156 L 7.351562 -0.144531 C 7.285156 0.0703125 7.175781 0.238281 7.015625 0.363281 C 6.851562 0.488281 6.65625 0.550781 6.429688 0.550781 L 5.390625 0.550781 C 5.164062 0.550781 4.96875 0.488281 4.804688 0.363281 C 4.644531 0.238281 4.535156 0.0703125 4.46875 -0.144531 L 4.464844 -0.160156 L 2.800781 -7.167969 L 3.339844 -7.296875 L 3.339844 -6.746094 L 3.214844 -6.746094 L 3.214844 -7.296875 L 3.769531 -7.296875 L 3.769531 -0.351562 C 3.769531 -0.0820312 3.683594 0.136719 3.519531 0.300781 C 3.351562 0.46875 3.132812 0.550781 2.863281 0.550781 L 1.238281 0.550781 C 0.964844 0.550781 0.746094 0.46875 0.582031 0.300781 C 0.414062 0.136719 0.332031 -0.0820312 0.332031 -0.351562 L 0.332031 -12.015625 C 0.332031 -12.285156 0.414062 -12.503906 0.582031 -12.671875 C 0.746094 -12.835938 0.964844 -12.921875 1.238281 -12.921875 L 3.570312 -12.921875 C 3.792969 -12.921875 3.988281 -12.855469 4.152344 -12.730469 C 4.3125 -12.605469 4.425781 -12.4375 4.488281 -12.222656 L 4.492188 -12.210938 L 6.453125 -4.320312 L 5.917969 -4.1875 L 5.382812 -4.320312 L 7.347656 -12.210938 L 7.351562 -12.222656 C 7.414062 -12.4375 7.523438 -12.605469 7.683594 -12.730469 C 7.847656 -12.855469 8.042969 -12.921875 8.269531 -12.921875 Z M 8.269531 -11.816406 C 8.292969 -11.816406 8.324219 -11.828125 8.359375 -11.855469 C 8.378906 -11.871094 8.394531 -11.886719 8.40625 -11.90625 C 8.40625 -11.910156 8.410156 -11.914062 8.410156 -11.917969 C 8.410156 -11.917969 8.410156 -11.914062 8.410156 -11.910156 L 7.878906 -12.066406 L 8.417969 -11.933594 L 6.453125 -4.054688 L 5.382812 -4.054688 L 3.421875 -11.933594 L 3.957031 -12.066406 L 3.429688 -11.910156 C 3.425781 -11.914062 3.425781 -11.917969 3.425781 -11.917969 C 3.429688 -11.914062 3.429688 -11.910156 3.433594 -11.90625 C 3.445312 -11.886719 3.460938 -11.871094 3.480469 -11.855469 C 3.511719 -11.828125 3.542969 -11.816406 3.570312 -11.816406 L 1.238281 -11.816406 C 1.234375 -11.816406 1.230469 -11.816406 1.230469 -11.816406 C 1.238281 -11.816406 1.246094 -11.820312 1.257812 -11.820312 C 1.296875 -11.835938 1.332031 -11.855469 1.363281 -11.890625 C 1.394531 -11.921875 1.417969 -11.957031 1.429688 -11.996094 C 1.433594 -12.003906 1.433594 -12.011719 1.4375 -12.019531 C 1.4375 -12.019531 1.4375 -12.015625 1.4375 -12.015625 L 1.4375 -0.351562 C 1.4375 -0.351562 1.4375 -0.347656 1.4375 -0.347656 C 1.433594 -0.355469 1.433594 -0.363281 1.429688 -0.375 C 1.417969 -0.410156 1.394531 -0.445312 1.363281 -0.480469 C 1.332031 -0.511719 1.296875 -0.535156 1.257812 -0.546875 C 1.246094 -0.550781 1.238281 -0.550781 1.230469 -0.550781 C 1.230469 -0.550781 1.234375 -0.550781 1.238281 -0.550781 L 2.863281 -0.550781 C 2.863281 -0.550781 2.867188 -0.550781 2.867188 -0.550781 C 2.859375 -0.550781 2.851562 -0.550781 2.84375 -0.546875 C 2.804688 -0.535156 2.769531 -0.511719 2.738281 -0.480469 C 2.703125 -0.445312 2.683594 -0.410156 2.667969 -0.375 C 2.667969 -0.363281 2.664062 -0.355469 2.664062 -0.347656 C 2.664062 -0.347656 2.664062 -0.351562 2.664062 -0.351562 L 2.664062 -7.847656 L 3.777344 -7.847656 L 5.539062 -0.429688 L 5 -0.300781 L 5.53125 -0.457031 C 5.53125 -0.453125 5.53125 -0.453125 5.53125 -0.449219 C 5.53125 -0.453125 5.527344 -0.457031 5.527344 -0.460938 C 5.515625 -0.480469 5.5 -0.496094 5.480469 -0.511719 C 5.445312 -0.539062 5.414062 -0.550781 5.390625 -0.550781 L 6.429688 -0.550781 C 6.40625 -0.550781 6.375 -0.539062 6.339844 -0.511719 C 6.320312 -0.496094 6.304688 -0.480469 6.292969 -0.460938 C 6.292969 -0.457031 6.289062 -0.453125 6.289062 -0.449219 C 6.289062 -0.453125 6.289062 -0.453125 6.289062 -0.457031 L 6.820312 -0.300781 L 6.28125 -0.429688 L 8.042969 -7.847656 L 9.15625 -7.847656 L 9.15625 -0.351562 C 9.15625 -0.351562 9.15625 -0.347656 9.15625 -0.347656 C 9.15625 -0.355469 9.152344 -0.363281 9.152344 -0.375 C 9.136719 -0.410156 9.117188 -0.445312 9.082031 -0.480469 C 9.050781 -0.511719 9.015625 -0.535156 8.976562 -0.546875 C 8.96875 -0.550781 8.960938 -0.550781 8.953125 -0.550781 C 8.953125 -0.550781 8.957031 -0.550781 8.957031 -0.550781 L 10.601562 -0.550781 C 10.605469 -0.550781 10.605469 -0.550781 10.605469 -0.550781 C 10.597656 -0.550781 10.589844 -0.550781 10.582031 -0.546875 C 10.542969 -0.535156 10.507812 -0.511719 10.476562 -0.480469 C 10.445312 -0.445312 10.421875 -0.410156 10.410156 -0.375 C 10.40625 -0.363281 10.402344 -0.355469 10.402344 -0.347656 C 10.402344 -0.347656 10.402344 -0.351562 10.402344 -0.351562 L 10.402344 -12.015625 C 10.402344 -12.015625 10.402344 -12.019531 10.402344 -12.019531 C 10.402344 -12.011719 10.40625 -12.003906 10.410156 -11.996094 C 10.421875 -11.957031 10.445312 -11.921875 10.476562 -11.890625 C 10.507812 -11.855469 10.542969 -11.835938 10.582031 -11.820312 C 10.589844 -11.820312 10.597656 -11.816406 10.605469 -11.816406 C 10.605469 -11.816406 10.605469 -11.816406 10.601562 -11.816406 Z M 8.269531 -11.816406 "/></g></g></g><g fill="#b21a22" fill-opacity="1"><g transform="translate(49.961767, 18.36266)"><g><path d="M 2.734375 -2.332031 L 2.734375 -12.085938 C 2.734375 -12.074219 2.738281 -12.054688 2.746094 -12.035156 C 2.761719 -11.988281 2.789062 -11.945312 2.824219 -11.90625 C 2.863281 -11.867188 2.90625 -11.84375 2.953125 -11.828125 C 2.972656 -11.820312 2.992188 -11.816406 3.003906 -11.816406 L 1.167969 -11.816406 C 1.179688 -11.816406 1.195312 -11.820312 1.21875 -11.828125 C 1.265625 -11.84375 1.308594 -11.867188 1.34375 -11.90625 C 1.382812 -11.945312 1.410156 -11.988281 1.425781 -12.035156 C 1.433594 -12.054688 1.4375 -12.074219 1.4375 -12.085938 L 1.4375 -0.28125 C 1.4375 -0.296875 1.433594 -0.3125 1.425781 -0.332031 C 1.410156 -0.378906 1.382812 -0.421875 1.34375 -0.460938 C 1.308594 -0.5 1.265625 -0.527344 1.21875 -0.542969 C 1.195312 -0.546875 1.179688 -0.550781 1.167969 -0.550781 L 6.785156 -0.550781 C 6.773438 -0.550781 6.753906 -0.546875 6.734375 -0.542969 C 6.6875 -0.527344 6.644531 -0.5 6.605469 -0.460938 C 6.570312 -0.421875 6.542969 -0.378906 6.527344 -0.332031 C 6.519531 -0.3125 6.515625 -0.296875 6.515625 -0.28125 L 6.515625 -2.050781 C 6.515625 -2.035156 6.519531 -2.019531 6.527344 -2 C 6.542969 -1.953125 6.570312 -1.910156 6.605469 -1.871094 C 6.644531 -1.832031 6.6875 -1.804688 6.734375 -1.789062 C 6.753906 -1.785156 6.773438 -1.78125 6.785156 -1.78125 L 2.734375 -1.78125 Z M 3.839844 -2.332031 L 3.285156 -2.332031 L 3.285156 -2.882812 L 6.785156 -2.882812 C 7.03125 -2.882812 7.230469 -2.808594 7.386719 -2.652344 C 7.542969 -2.496094 7.621094 -2.296875 7.621094 -2.050781 L 7.621094 -0.28125 C 7.621094 -0.0351562 7.542969 0.164062 7.386719 0.320312 C 7.230469 0.476562 7.03125 0.550781 6.785156 0.550781 L 1.167969 0.550781 C 0.917969 0.550781 0.71875 0.476562 0.5625 0.320312 C 0.410156 0.164062 0.332031 -0.0351562 0.332031 -0.28125 L 0.332031 -12.085938 C 0.332031 -12.332031 0.410156 -12.53125 0.5625 -12.6875 C 0.71875 -12.84375 0.917969 -12.921875 1.167969 -12.921875 L 3.003906 -12.921875 C 3.25 -12.921875 3.453125 -12.84375 3.605469 -12.6875 C 3.761719 -12.53125 3.839844 -12.332031 3.839844 -12.085938 Z M 3.839844 -2.332031 "/></g></g></g><g fill="#b21a22" fill-opacity="1"><g transform="translate(57.912381, 18.36266)"><g><path d="M 0.332031 -5.546875 L 0.332031 -7.171875 C 0.332031 -7.445312 0.414062 -7.664062 0.582031 -7.828125 C 0.746094 -7.996094 0.964844 -8.078125 1.238281 -8.078125 L 4.027344 -8.078125 C 4.296875 -8.078125 4.515625 -7.996094 4.683594 -7.828125 C 4.851562 -7.664062 4.933594 -7.445312 4.933594 -7.171875 L 4.933594 -5.546875 C 4.933594 -5.277344 4.851562 -5.058594 4.683594 -4.890625 C 4.515625 -4.726562 4.296875 -4.640625 4.027344 -4.640625 L 1.238281 -4.640625 C 0.964844 -4.640625 0.746094 -4.726562 0.582031 -4.890625 C 0.414062 -5.058594 0.332031 -5.277344 0.332031 -5.546875 Z M 1.4375 -5.546875 C 1.4375 -5.546875 1.4375 -5.542969 1.4375 -5.542969 C 1.433594 -5.550781 1.433594 -5.558594 1.429688 -5.566406 C 1.417969 -5.605469 1.394531 -5.640625 1.363281 -5.671875 C 1.332031 -5.707031 1.296875 -5.726562 1.257812 -5.742188 C 1.246094 -5.742188 1.238281 -5.746094 1.230469 -5.746094 C 1.230469 -5.746094 1.234375 -5.746094 1.238281 -5.746094 L 4.027344 -5.746094 C 4.03125 -5.746094 4.03125 -5.746094 4.035156 -5.746094 C 4.035156 -5.746094 4.035156 -5.746094 4.03125 -5.746094 C 4.027344 -5.746094 4.019531 -5.742188 4.007812 -5.742188 C 3.96875 -5.726562 3.933594 -5.707031 3.902344 -5.671875 C 3.871094 -5.640625 3.847656 -5.605469 3.835938 -5.566406 C 3.832031 -5.558594 3.832031 -5.550781 3.828125 -5.542969 C 3.828125 -5.542969 3.828125 -5.546875 3.828125 -5.546875 L 3.828125 -7.171875 C 3.828125 -7.175781 3.828125 -7.179688 3.828125 -7.179688 C 3.832031 -7.171875 3.832031 -7.164062 3.835938 -7.152344 C 3.847656 -7.113281 3.871094 -7.078125 3.902344 -7.046875 C 3.933594 -7.015625 3.96875 -6.992188 4.007812 -6.980469 C 4.019531 -6.976562 4.027344 -6.976562 4.03125 -6.976562 C 4.035156 -6.972656 4.035156 -6.972656 4.035156 -6.972656 C 4.03125 -6.972656 4.03125 -6.976562 4.027344 -6.976562 L 1.238281 -6.976562 C 1.234375 -6.976562 1.230469 -6.972656 1.230469 -6.972656 C 1.230469 -6.972656 1.230469 -6.972656 1.230469 -6.976562 C 1.238281 -6.976562 1.246094 -6.976562 1.257812 -6.980469 C 1.296875 -6.992188 1.332031 -7.015625 1.363281 -7.046875 C 1.394531 -7.078125 1.417969 -7.113281 1.429688 -7.152344 C 1.433594 -7.164062 1.433594 -7.171875 1.4375 -7.179688 C 1.4375 -7.179688 1.4375 -7.175781 1.4375 -7.171875 Z M 1.4375 -5.546875 "/></g></g></g><g fill="#b21a22" fill-opacity="1"><g transform="translate(1.163958, 42.912603)"><g><path d="M 8.519531 -9.824219 L 8.519531 -7.914062 C 8.519531 -7.667969 8.441406 -7.46875 8.289062 -7.3125 C 8.132812 -7.15625 7.933594 -7.082031 7.6875 -7.082031 L 6.023438 -7.082031 C 5.777344 -7.082031 5.578125 -7.15625 5.421875 -7.3125 C 5.265625 -7.46875 5.191406 -7.667969 5.191406 -7.914062 L 5.191406 -9.363281 C 5.191406 -9.421875 5.183594 -9.46875 5.175781 -9.5 C 5.171875 -9.503906 5.171875 -9.507812 5.167969 -9.511719 C 5.171875 -9.507812 5.171875 -9.507812 5.175781 -9.503906 C 5.179688 -9.5 5.179688 -9.5 5.183594 -9.5 C 5.179688 -9.5 5.175781 -9.5 5.171875 -9.503906 C 5.136719 -9.511719 5.09375 -9.519531 5.035156 -9.519531 L 3.90625 -9.519531 C 3.847656 -9.519531 3.800781 -9.511719 3.769531 -9.503906 C 3.765625 -9.5 3.761719 -9.5 3.757812 -9.5 C 3.761719 -9.5 3.761719 -9.5 3.765625 -9.503906 C 3.769531 -9.507812 3.769531 -9.507812 3.769531 -9.511719 C 3.769531 -9.507812 3.769531 -9.503906 3.765625 -9.5 C 3.753906 -9.46875 3.75 -9.421875 3.75 -9.363281 L 3.75 -2.949219 C 3.75 -2.894531 3.753906 -2.847656 3.765625 -2.816406 C 3.769531 -2.808594 3.769531 -2.804688 3.769531 -2.804688 C 3.769531 -2.804688 3.769531 -2.808594 3.765625 -2.8125 C 3.761719 -2.8125 3.761719 -2.816406 3.757812 -2.816406 C 3.761719 -2.816406 3.765625 -2.8125 3.769531 -2.8125 C 3.800781 -2.800781 3.847656 -2.796875 3.90625 -2.796875 L 5.035156 -2.796875 C 5.09375 -2.796875 5.136719 -2.800781 5.171875 -2.8125 C 5.175781 -2.8125 5.179688 -2.816406 5.183594 -2.816406 C 5.179688 -2.816406 5.179688 -2.8125 5.175781 -2.8125 C 5.171875 -2.808594 5.171875 -2.804688 5.167969 -2.804688 C 5.171875 -2.804688 5.171875 -2.808594 5.175781 -2.816406 C 5.183594 -2.847656 5.191406 -2.894531 5.191406 -2.949219 L 5.191406 -4.453125 C 5.191406 -4.699219 5.265625 -4.898438 5.421875 -5.054688 C 5.578125 -5.210938 5.777344 -5.289062 6.023438 -5.289062 L 7.6875 -5.289062 C 7.933594 -5.289062 8.132812 -5.210938 8.289062 -5.054688 C 8.441406 -4.898438 8.519531 -4.699219 8.519531 -4.453125 L 8.519531 -2.542969 C 8.519531 -1.566406 8.25 -0.808594 7.707031 -0.261719 C 7.160156 0.28125 6.402344 0.550781 5.425781 0.550781 L 3.445312 0.550781 C 2.46875 0.550781 1.707031 0.28125 1.15625 -0.261719 C 0.605469 -0.804688 0.332031 -1.566406 0.332031 -2.542969 L 0.332031 -9.824219 C 0.332031 -10.816406 0.609375 -11.582031 1.160156 -12.117188 C 1.710938 -12.652344 2.472656 -12.921875 3.445312 -12.921875 L 5.425781 -12.921875 C 6.398438 -12.921875 7.160156 -12.652344 7.703125 -12.117188 C 8.25 -11.578125 8.519531 -10.8125 8.519531 -9.824219 Z M 7.417969 -9.824219 C 7.417969 -10.507812 7.253906 -11.007812 6.925781 -11.328125 C 6.597656 -11.652344 6.097656 -11.816406 5.425781 -11.816406 L 3.445312 -11.816406 C 2.769531 -11.816406 2.265625 -11.652344 1.929688 -11.328125 C 1.601562 -11.007812 1.4375 -10.503906 1.4375 -9.824219 L 1.4375 -2.542969 C 1.4375 -1.875 1.601562 -1.375 1.933594 -1.046875 C 2.269531 -0.71875 2.773438 -0.550781 3.445312 -0.550781 L 5.425781 -0.550781 C 6.097656 -0.550781 6.597656 -0.714844 6.925781 -1.042969 C 7.253906 -1.371094 7.417969 -1.871094 7.417969 -2.542969 L 7.417969 -4.453125 C 7.417969 -4.441406 7.417969 -4.421875 7.425781 -4.402344 C 7.441406 -4.355469 7.46875 -4.3125 7.507812 -4.273438 C 7.546875 -4.234375 7.585938 -4.210938 7.636719 -4.195312 C 7.65625 -4.1875 7.671875 -4.183594 7.6875 -4.183594 L 6.023438 -4.183594 C 6.039062 -4.183594 6.054688 -4.1875 6.074219 -4.195312 C 6.125 -4.210938 6.164062 -4.234375 6.203125 -4.273438 C 6.242188 -4.3125 6.269531 -4.355469 6.285156 -4.402344 C 6.289062 -4.421875 6.292969 -4.441406 6.292969 -4.453125 L 6.292969 -2.949219 C 6.292969 -2.5625 6.183594 -2.253906 5.957031 -2.03125 C 5.730469 -1.804688 5.421875 -1.691406 5.035156 -1.691406 L 3.90625 -1.691406 C 3.515625 -1.691406 3.210938 -1.804688 2.984375 -2.03125 C 2.757812 -2.253906 2.644531 -2.5625 2.644531 -2.949219 L 2.644531 -9.363281 C 2.644531 -9.753906 2.757812 -10.058594 2.984375 -10.285156 C 3.210938 -10.511719 3.515625 -10.625 3.90625 -10.625 L 5.035156 -10.625 C 5.421875 -10.625 5.730469 -10.511719 5.957031 -10.285156 C 6.183594 -10.058594 6.292969 -9.753906 6.292969 -9.363281 L 6.292969 -7.914062 C 6.292969 -7.929688 6.289062 -7.945312 6.285156 -7.964844 C 6.269531 -8.011719 6.242188 -8.054688 6.203125 -8.09375 C 6.164062 -8.132812 6.125 -8.160156 6.074219 -8.175781 C 6.054688 -8.179688 6.039062 -8.183594 6.023438 -8.183594 L 7.6875 -8.183594 C 7.671875 -8.183594 7.65625 -8.179688 7.636719 -8.175781 C 7.585938 -8.160156 7.546875 -8.132812 7.507812 -8.09375 C 7.46875 -8.054688 7.441406 -8.011719 7.425781 -7.964844 C 7.417969 -7.945312 7.417969 -7.929688 7.417969 -7.914062 Z M 7.417969 -9.824219 "/></g></g></g><g fill="#b21a22" fill-opacity="1"><g transform="translate(10.015642, 42.912603)"><g><path d="M 0.332031 -2.542969 L 0.332031 -9.824219 C 0.332031 -10.8125 0.605469 -11.578125 1.148438 -12.117188 C 1.691406 -12.652344 2.453125 -12.921875 3.425781 -12.921875 L 5.40625 -12.921875 C 6.394531 -12.921875 7.160156 -12.652344 7.695312 -12.113281 C 8.234375 -11.574219 8.503906 -10.8125 8.503906 -9.824219 L 8.503906 -2.542969 C 8.503906 -1.570312 8.234375 -0.808594 7.699219 -0.265625 C 7.160156 0.28125 6.398438 0.550781 5.40625 0.550781 L 3.425781 0.550781 C 2.449219 0.550781 1.691406 0.28125 1.148438 -0.261719 C 0.601562 -0.808594 0.332031 -1.566406 0.332031 -2.542969 Z M 1.4375 -2.542969 C 1.4375 -1.871094 1.601562 -1.371094 1.925781 -1.042969 C 2.253906 -0.714844 2.753906 -0.550781 3.425781 -0.550781 L 5.40625 -0.550781 C 6.089844 -0.550781 6.589844 -0.714844 6.914062 -1.042969 C 7.238281 -1.371094 7.398438 -1.871094 7.398438 -2.542969 L 7.398438 -9.824219 C 7.398438 -10.507812 7.238281 -11.011719 6.914062 -11.332031 C 6.59375 -11.65625 6.089844 -11.816406 5.40625 -11.816406 L 3.425781 -11.816406 C 2.753906 -11.816406 2.253906 -11.652344 1.925781 -11.328125 C 1.597656 -11.007812 1.4375 -10.507812 1.4375 -9.824219 Z M 3.886719 -2.832031 L 5.019531 -2.832031 C 5.074219 -2.832031 5.121094 -2.835938 5.152344 -2.847656 C 5.160156 -2.847656 5.164062 -2.851562 5.164062 -2.851562 C 5.164062 -2.851562 5.160156 -2.847656 5.15625 -2.847656 C 5.15625 -2.84375 5.152344 -2.839844 5.152344 -2.839844 C 5.152344 -2.839844 5.15625 -2.84375 5.15625 -2.851562 C 5.167969 -2.882812 5.171875 -2.929688 5.171875 -2.984375 L 5.171875 -9.382812 C 5.171875 -9.441406 5.167969 -9.484375 5.15625 -9.515625 C 5.15625 -9.523438 5.152344 -9.527344 5.152344 -9.527344 C 5.152344 -9.527344 5.15625 -9.523438 5.15625 -9.523438 C 5.160156 -9.519531 5.164062 -9.515625 5.164062 -9.515625 C 5.164062 -9.515625 5.160156 -9.519531 5.152344 -9.519531 C 5.121094 -9.53125 5.074219 -9.535156 5.019531 -9.535156 L 3.886719 -9.535156 C 3.828125 -9.535156 3.785156 -9.53125 3.753906 -9.519531 C 3.746094 -9.519531 3.742188 -9.515625 3.742188 -9.515625 C 3.742188 -9.515625 3.746094 -9.519531 3.746094 -9.523438 C 3.75 -9.523438 3.753906 -9.527344 3.753906 -9.527344 C 3.753906 -9.527344 3.75 -9.523438 3.75 -9.515625 C 3.738281 -9.484375 3.734375 -9.441406 3.734375 -9.382812 L 3.734375 -2.984375 C 3.734375 -2.929688 3.738281 -2.882812 3.75 -2.851562 C 3.75 -2.84375 3.753906 -2.839844 3.753906 -2.839844 C 3.753906 -2.839844 3.75 -2.84375 3.746094 -2.847656 C 3.746094 -2.847656 3.742188 -2.851562 3.742188 -2.851562 C 3.742188 -2.851562 3.746094 -2.847656 3.753906 -2.847656 C 3.785156 -2.835938 3.828125 -2.832031 3.886719 -2.832031 Z M 3.886719 -1.726562 C 3.5 -1.726562 3.191406 -1.839844 2.964844 -2.066406 C 2.742188 -2.292969 2.628906 -2.597656 2.628906 -2.984375 L 2.628906 -9.382812 C 2.628906 -9.769531 2.742188 -10.078125 2.964844 -10.300781 C 3.191406 -10.527344 3.5 -10.640625 3.886719 -10.640625 L 5.019531 -10.640625 C 5.40625 -10.640625 5.710938 -10.527344 5.9375 -10.300781 C 6.164062 -10.078125 6.277344 -9.769531 6.277344 -9.382812 L 6.277344 -2.984375 C 6.277344 -2.597656 6.164062 -2.292969 5.9375 -2.066406 C 5.710938 -1.839844 5.40625 -1.726562 5.019531 -1.726562 Z M 3.886719 -1.726562 "/></g></g></g><g fill="#b21a22" fill-opacity="1"><g transform="translate(18.849657, 42.912603)"><g><path d="M 6.484375 -12.921875 L 8.144531 -12.921875 C 8.390625 -12.921875 8.59375 -12.84375 8.746094 -12.6875 C 8.902344 -12.53125 8.980469 -12.332031 8.980469 -12.085938 L 8.980469 -0.28125 C 8.980469 -0.0351562 8.902344 0.164062 8.746094 0.320312 C 8.59375 0.476562 8.390625 0.550781 8.144531 0.550781 L 6.75 0.550781 C 6.558594 0.550781 6.390625 0.5 6.242188 0.390625 C 6.109375 0.296875 6.003906 0.164062 5.929688 0 L 6.429688 -0.230469 L 5.9375 0.015625 L 2.613281 -6.734375 L 3.109375 -6.980469 L 3.660156 -6.980469 L 3.660156 -0.28125 C 3.660156 -0.0351562 3.585938 0.164062 3.429688 0.320312 C 3.273438 0.476562 3.074219 0.550781 2.828125 0.550781 L 1.167969 0.550781 C 0.917969 0.550781 0.71875 0.476562 0.5625 0.320312 C 0.410156 0.164062 0.332031 -0.0351562 0.332031 -0.28125 L 0.332031 -12.085938 C 0.332031 -12.332031 0.410156 -12.53125 0.5625 -12.6875 C 0.71875 -12.84375 0.917969 -12.921875 1.167969 -12.921875 L 2.5625 -12.921875 C 2.75 -12.921875 2.921875 -12.867188 3.070312 -12.757812 C 3.203125 -12.664062 3.304688 -12.535156 3.382812 -12.371094 L 2.878906 -12.136719 L 3.375 -12.382812 L 6.695312 -5.632812 L 6.203125 -5.390625 L 5.648438 -5.390625 L 5.648438 -12.085938 C 5.648438 -12.332031 5.726562 -12.53125 5.882812 -12.6875 C 6.035156 -12.84375 6.238281 -12.921875 6.484375 -12.921875 Z M 6.484375 -11.816406 C 6.496094 -11.816406 6.515625 -11.820312 6.535156 -11.828125 C 6.582031 -11.84375 6.625 -11.867188 6.664062 -11.90625 C 6.699219 -11.945312 6.726562 -11.988281 6.742188 -12.035156 C 6.75 -12.054688 6.753906 -12.074219 6.753906 -12.085938 L 6.753906 -5.390625 L 5.707031 -5.144531 L 2.382812 -11.902344 L 2.378906 -11.90625 C 2.382812 -11.894531 2.398438 -11.882812 2.425781 -11.863281 C 2.46875 -11.832031 2.511719 -11.816406 2.5625 -11.816406 L 1.167969 -11.816406 C 1.179688 -11.816406 1.195312 -11.820312 1.21875 -11.828125 C 1.265625 -11.84375 1.308594 -11.867188 1.34375 -11.90625 C 1.382812 -11.945312 1.410156 -11.988281 1.425781 -12.035156 C 1.433594 -12.054688 1.4375 -12.074219 1.4375 -12.085938 L 1.4375 -0.28125 C 1.4375 -0.296875 1.433594 -0.3125 1.425781 -0.332031 C 1.410156 -0.378906 1.382812 -0.421875 1.34375 -0.460938 C 1.308594 -0.5 1.265625 -0.527344 1.21875 -0.542969 C 1.195312 -0.546875 1.179688 -0.550781 1.167969 -0.550781 L 2.828125 -0.550781 C 2.8125 -0.550781 2.796875 -0.546875 2.777344 -0.542969 C 2.730469 -0.527344 2.6875 -0.5 2.648438 -0.460938 C 2.609375 -0.421875 2.582031 -0.378906 2.566406 -0.332031 C 2.5625 -0.3125 2.558594 -0.296875 2.558594 -0.28125 L 2.558594 -6.980469 L 3.605469 -7.222656 L 6.929688 -0.46875 L 6.933594 -0.460938 C 6.925781 -0.472656 6.914062 -0.488281 6.886719 -0.503906 C 6.84375 -0.535156 6.796875 -0.550781 6.75 -0.550781 L 8.144531 -0.550781 C 8.132812 -0.550781 8.117188 -0.546875 8.09375 -0.542969 C 8.046875 -0.527344 8.003906 -0.5 7.96875 -0.460938 C 7.929688 -0.421875 7.902344 -0.378906 7.886719 -0.332031 C 7.878906 -0.3125 7.875 -0.296875 7.875 -0.28125 L 7.875 -12.085938 C 7.875 -12.074219 7.878906 -12.054688 7.886719 -12.035156 C 7.902344 -11.988281 7.929688 -11.945312 7.96875 -11.90625 C 8.003906 -11.867188 8.046875 -11.84375 8.09375 -11.828125 C 8.117188 -11.820312 8.132812 -11.816406 8.144531 -11.816406 Z M 6.484375 -11.816406 "/></g></g></g><g fill="#b21a22" fill-opacity="1"><g transform="translate(28.160712, 42.912603)"><g><path d="M 6.765625 -12.921875 L 8.375 -12.921875 C 8.683594 -12.921875 8.921875 -12.820312 9.085938 -12.621094 C 9.253906 -12.417969 9.300781 -12.160156 9.230469 -11.855469 L 6.421875 -0.1875 C 6.371094 0.0351562 6.265625 0.214844 6.101562 0.347656 C 5.933594 0.484375 5.730469 0.550781 5.496094 0.550781 L 3.726562 0.550781 C 3.496094 0.550781 3.296875 0.484375 3.132812 0.347656 C 2.976562 0.222656 2.867188 0.046875 2.808594 -0.171875 L 2.804688 -0.179688 L 0.0117188 -11.851562 C -0.0585938 -12.160156 -0.0117188 -12.417969 0.15625 -12.621094 C 0.320312 -12.820312 0.554688 -12.921875 0.867188 -12.921875 L 2.472656 -12.921875 C 2.710938 -12.921875 2.914062 -12.851562 3.078125 -12.714844 C 3.242188 -12.582031 3.351562 -12.398438 3.402344 -12.167969 L 5.152344 -4.183594 L 4.613281 -4.0625 L 4.074219 -4.183594 L 5.84375 -12.183594 L 5.847656 -12.199219 C 5.90625 -12.417969 6.015625 -12.589844 6.171875 -12.714844 C 6.335938 -12.851562 6.535156 -12.921875 6.765625 -12.921875 Z M 6.765625 -11.816406 C 6.796875 -11.816406 6.832031 -11.832031 6.871094 -11.859375 C 6.886719 -11.875 6.902344 -11.890625 6.910156 -11.90625 C 6.914062 -11.910156 6.914062 -11.914062 6.914062 -11.914062 C 6.914062 -11.910156 6.910156 -11.90625 6.910156 -11.902344 L 6.378906 -12.050781 L 6.917969 -11.929688 L 5.152344 -3.945312 L 4.070312 -3.945312 L 2.324219 -11.929688 C 2.324219 -11.933594 2.320312 -11.933594 2.320312 -11.933594 C 2.324219 -11.929688 2.324219 -11.925781 2.328125 -11.921875 C 2.339844 -11.898438 2.359375 -11.878906 2.378906 -11.859375 C 2.417969 -11.832031 2.449219 -11.816406 2.472656 -11.816406 L 0.867188 -11.816406 C 0.859375 -11.816406 0.851562 -11.816406 0.847656 -11.816406 C 0.855469 -11.816406 0.863281 -11.816406 0.871094 -11.820312 C 0.925781 -11.839844 0.96875 -11.871094 1.011719 -11.921875 C 1.050781 -11.972656 1.074219 -12.027344 1.082031 -12.082031 C 1.085938 -12.09375 1.085938 -12.105469 1.082031 -12.113281 C 1.085938 -12.113281 1.085938 -12.109375 1.085938 -12.109375 L 3.875 -0.445312 L 3.339844 -0.316406 L 3.871094 -0.464844 C 3.871094 -0.460938 3.875 -0.457031 3.875 -0.453125 C 3.875 -0.457031 3.875 -0.457031 3.871094 -0.460938 C 3.863281 -0.476562 3.847656 -0.492188 3.832031 -0.507812 C 3.792969 -0.539062 3.757812 -0.550781 3.726562 -0.550781 L 5.496094 -0.550781 C 5.46875 -0.550781 5.4375 -0.539062 5.402344 -0.507812 C 5.378906 -0.488281 5.363281 -0.46875 5.351562 -0.445312 C 5.347656 -0.441406 5.34375 -0.4375 5.34375 -0.433594 C 5.34375 -0.433594 5.34375 -0.4375 5.347656 -0.449219 L 8.15625 -12.101562 C 8.15625 -12.109375 8.15625 -12.113281 8.15625 -12.113281 C 8.15625 -12.105469 8.15625 -12.09375 8.15625 -12.082031 C 8.164062 -12.027344 8.1875 -11.972656 8.230469 -11.921875 C 8.269531 -11.871094 8.316406 -11.839844 8.367188 -11.820312 C 8.378906 -11.816406 8.386719 -11.816406 8.390625 -11.816406 C 8.386719 -11.816406 8.382812 -11.816406 8.375 -11.816406 Z M 6.765625 -11.816406 "/></g></g></g><g fill="#b21a22" fill-opacity="1"><g transform="translate(37.401092, 42.912603)"><g><path d="M 8.484375 -12.085938 L 8.484375 -10.320312 C 8.484375 -10.074219 8.410156 -9.871094 8.265625 -9.714844 C 8.109375 -9.550781 7.902344 -9.464844 7.652344 -9.464844 L 3.285156 -9.464844 L 3.285156 -10.019531 L 3.839844 -10.019531 L 3.839844 -7.296875 L 3.285156 -7.296875 L 3.285156 -7.847656 L 6.609375 -7.847656 C 6.863281 -7.847656 7.066406 -7.765625 7.222656 -7.601562 C 7.371094 -7.445312 7.441406 -7.242188 7.441406 -6.996094 L 7.441406 -5.246094 C 7.441406 -5 7.371094 -4.800781 7.222656 -4.644531 C 7.066406 -4.476562 6.863281 -4.394531 6.609375 -4.394531 L 3.285156 -4.394531 L 3.285156 -4.945312 L 3.839844 -4.945312 L 3.839844 -2.332031 L 3.285156 -2.332031 L 3.285156 -2.882812 L 7.652344 -2.882812 C 7.898438 -2.882812 8.097656 -2.808594 8.253906 -2.652344 C 8.40625 -2.496094 8.484375 -2.296875 8.484375 -2.050781 L 8.484375 -0.28125 C 8.484375 -0.0351562 8.40625 0.164062 8.253906 0.320312 C 8.097656 0.476562 7.898438 0.550781 7.652344 0.550781 L 1.148438 0.550781 C 0.902344 0.550781 0.699219 0.46875 0.546875 0.308594 C 0.402344 0.152344 0.332031 -0.0429688 0.332031 -0.28125 L 0.332031 -12.085938 C 0.332031 -12.324219 0.402344 -12.523438 0.546875 -12.675781 C 0.699219 -12.839844 0.902344 -12.921875 1.148438 -12.921875 L 7.652344 -12.921875 C 7.898438 -12.921875 8.097656 -12.84375 8.253906 -12.6875 C 8.40625 -12.53125 8.484375 -12.332031 8.484375 -12.085938 Z M 7.382812 -12.085938 C 7.382812 -12.074219 7.382812 -12.054688 7.390625 -12.035156 C 7.40625 -11.988281 7.433594 -11.945312 7.472656 -11.90625 C 7.511719 -11.867188 7.550781 -11.84375 7.597656 -11.828125 C 7.621094 -11.820312 7.636719 -11.816406 7.652344 -11.816406 L 1.148438 -11.816406 C 1.21875 -11.816406 1.289062 -11.851562 1.351562 -11.917969 C 1.386719 -11.957031 1.414062 -12 1.425781 -12.042969 C 1.433594 -12.0625 1.4375 -12.078125 1.4375 -12.085938 L 1.4375 -0.28125 C 1.4375 -0.292969 1.433594 -0.304688 1.425781 -0.324219 C 1.414062 -0.367188 1.386719 -0.410156 1.351562 -0.449219 C 1.289062 -0.519531 1.21875 -0.550781 1.148438 -0.550781 L 7.652344 -0.550781 C 7.636719 -0.550781 7.621094 -0.546875 7.597656 -0.542969 C 7.550781 -0.527344 7.511719 -0.5 7.472656 -0.460938 C 7.433594 -0.421875 7.40625 -0.378906 7.390625 -0.332031 C 7.382812 -0.3125 7.382812 -0.296875 7.382812 -0.28125 L 7.382812 -2.050781 C 7.382812 -2.035156 7.382812 -2.019531 7.390625 -2 C 7.40625 -1.953125 7.433594 -1.910156 7.472656 -1.871094 C 7.511719 -1.832031 7.550781 -1.804688 7.597656 -1.789062 C 7.621094 -1.785156 7.636719 -1.78125 7.652344 -1.78125 L 2.734375 -1.78125 L 2.734375 -5.5 L 6.609375 -5.5 C 6.59375 -5.5 6.570312 -5.496094 6.546875 -5.488281 C 6.5 -5.46875 6.457031 -5.441406 6.417969 -5.402344 C 6.382812 -5.363281 6.359375 -5.324219 6.347656 -5.28125 C 6.339844 -5.265625 6.339844 -5.253906 6.339844 -5.246094 L 6.339844 -6.996094 C 6.339844 -6.992188 6.339844 -6.980469 6.347656 -6.964844 C 6.359375 -6.917969 6.382812 -6.878906 6.417969 -6.84375 C 6.457031 -6.804688 6.5 -6.773438 6.546875 -6.757812 C 6.570312 -6.75 6.59375 -6.746094 6.609375 -6.746094 L 2.734375 -6.746094 L 2.734375 -10.570312 L 7.652344 -10.570312 C 7.632812 -10.570312 7.613281 -10.566406 7.589844 -10.558594 C 7.542969 -10.539062 7.496094 -10.511719 7.460938 -10.472656 C 7.425781 -10.433594 7.402344 -10.394531 7.386719 -10.351562 C 7.382812 -10.335938 7.382812 -10.324219 7.382812 -10.320312 Z M 7.382812 -12.085938 "/></g></g></g><g fill="#b21a22" fill-opacity="1"><g transform="translate(46.217442, 42.912603)"><g><path d="M 8.503906 -9.824219 L 8.503906 -6.273438 C 8.503906 -5.042969 8.085938 -4.167969 7.253906 -3.648438 L 6.960938 -4.117188 L 7.5 -4.246094 L 8.417969 -0.449219 L 7.878906 -0.316406 L 8.414062 -0.464844 C 8.492188 -0.179688 8.453125 0.0585938 8.296875 0.257812 C 8.148438 0.453125 7.925781 0.550781 7.632812 0.550781 L 5.902344 0.550781 C 5.6875 0.550781 5.503906 0.488281 5.351562 0.363281 C 5.203125 0.242188 5.105469 0.078125 5.0625 -0.132812 L 5.601562 -0.246094 L 5.0625 -0.117188 L 4.214844 -3.597656 L 4.753906 -3.726562 L 4.753906 -3.175781 L 3.179688 -3.175781 L 3.179688 -3.726562 L 3.734375 -3.726562 L 3.734375 -0.28125 C 3.734375 -0.0351562 3.65625 0.164062 3.5 0.320312 C 3.34375 0.476562 3.144531 0.550781 2.898438 0.550781 L 1.167969 0.550781 C 0.917969 0.550781 0.71875 0.476562 0.5625 0.320312 C 0.410156 0.164062 0.332031 -0.0351562 0.332031 -0.28125 L 0.332031 -12.085938 C 0.332031 -12.332031 0.410156 -12.53125 0.5625 -12.6875 C 0.71875 -12.84375 0.917969 -12.921875 1.167969 -12.921875 L 5.40625 -12.921875 C 6.394531 -12.921875 7.160156 -12.652344 7.695312 -12.113281 C 8.234375 -11.574219 8.503906 -10.8125 8.503906 -9.824219 Z M 7.398438 -9.824219 C 7.398438 -10.507812 7.238281 -11.011719 6.914062 -11.332031 C 6.59375 -11.65625 6.089844 -11.816406 5.40625 -11.816406 L 1.167969 -11.816406 C 1.179688 -11.816406 1.195312 -11.820312 1.21875 -11.828125 C 1.265625 -11.84375 1.308594 -11.867188 1.34375 -11.90625 C 1.382812 -11.945312 1.410156 -11.988281 1.425781 -12.035156 C 1.433594 -12.054688 1.4375 -12.074219 1.4375 -12.085938 L 1.4375 -0.28125 C 1.4375 -0.296875 1.433594 -0.3125 1.425781 -0.332031 C 1.410156 -0.378906 1.382812 -0.421875 1.34375 -0.460938 C 1.308594 -0.5 1.265625 -0.527344 1.21875 -0.542969 C 1.195312 -0.546875 1.179688 -0.550781 1.167969 -0.550781 L 2.898438 -0.550781 C 2.886719 -0.550781 2.867188 -0.546875 2.847656 -0.542969 C 2.800781 -0.527344 2.757812 -0.5 2.71875 -0.460938 C 2.679688 -0.421875 2.65625 -0.378906 2.640625 -0.332031 C 2.632812 -0.3125 2.628906 -0.296875 2.628906 -0.28125 L 2.628906 -4.28125 L 5.1875 -4.28125 L 6.140625 -0.371094 L 6.140625 -0.363281 C 6.132812 -0.40625 6.101562 -0.449219 6.054688 -0.488281 C 6 -0.53125 5.949219 -0.550781 5.902344 -0.550781 L 7.632812 -0.550781 C 7.621094 -0.550781 7.609375 -0.546875 7.59375 -0.542969 C 7.527344 -0.519531 7.472656 -0.476562 7.425781 -0.417969 C 7.378906 -0.355469 7.351562 -0.289062 7.347656 -0.21875 C 7.34375 -0.195312 7.347656 -0.179688 7.347656 -0.171875 L 7.34375 -0.179688 L 6.332031 -4.375 L 6.667969 -4.585938 C 7.15625 -4.890625 7.398438 -5.453125 7.398438 -6.273438 Z M 3.179688 -6.558594 L 4.945312 -6.558594 C 5.003906 -6.558594 5.050781 -6.566406 5.082031 -6.574219 C 5.085938 -6.578125 5.089844 -6.578125 5.09375 -6.582031 C 5.089844 -6.578125 5.089844 -6.578125 5.085938 -6.574219 C 5.085938 -6.570312 5.082031 -6.570312 5.082031 -6.566406 C 5.082031 -6.570312 5.082031 -6.574219 5.085938 -6.578125 C 5.097656 -6.609375 5.101562 -6.65625 5.101562 -6.714844 L 5.101562 -9.382812 C 5.101562 -9.441406 5.097656 -9.484375 5.085938 -9.515625 C 5.082031 -9.523438 5.082031 -9.527344 5.082031 -9.527344 C 5.082031 -9.527344 5.085938 -9.523438 5.085938 -9.523438 C 5.089844 -9.519531 5.089844 -9.515625 5.09375 -9.515625 C 5.089844 -9.515625 5.085938 -9.519531 5.082031 -9.519531 C 5.050781 -9.53125 5.003906 -9.535156 4.945312 -9.535156 L 3.179688 -9.535156 L 3.179688 -10.089844 L 3.734375 -10.089844 L 3.734375 -6.007812 L 3.179688 -6.007812 Z M 2.628906 -5.457031 L 2.628906 -10.640625 L 4.945312 -10.640625 C 5.335938 -10.640625 5.640625 -10.527344 5.867188 -10.300781 C 6.09375 -10.078125 6.207031 -9.769531 6.207031 -9.382812 L 6.207031 -6.714844 C 6.207031 -6.324219 6.09375 -6.019531 5.867188 -5.792969 C 5.640625 -5.566406 5.335938 -5.457031 4.945312 -5.457031 Z M 2.628906 -5.457031 "/></g></g></g><g fill="#b21a22" fill-opacity="1"><g transform="translate(55.051457, 42.912603)"><g><path d="M 7.316406 -11.816406 L 0.8125 -11.816406 C 0.824219 -11.816406 0.84375 -11.820312 0.863281 -11.828125 C 0.910156 -11.84375 0.953125 -11.867188 0.992188 -11.90625 C 1.027344 -11.945312 1.054688 -11.988281 1.070312 -12.035156 C 1.078125 -12.054688 1.082031 -12.074219 1.082031 -12.085938 L 1.082031 -10.320312 C 1.082031 -10.332031 1.078125 -10.347656 1.070312 -10.371094 C 1.054688 -10.417969 1.027344 -10.460938 0.992188 -10.496094 C 0.953125 -10.535156 0.910156 -10.5625 0.863281 -10.578125 C 0.84375 -10.585938 0.824219 -10.589844 0.8125 -10.589844 L 3.414062 -10.589844 L 3.414062 -0.28125 C 3.414062 -0.296875 3.410156 -0.3125 3.402344 -0.332031 C 3.386719 -0.378906 3.363281 -0.421875 3.324219 -0.460938 C 3.285156 -0.5 3.242188 -0.527344 3.195312 -0.542969 C 3.175781 -0.546875 3.15625 -0.550781 3.144531 -0.550781 L 4.984375 -0.550781 C 4.96875 -0.550781 4.953125 -0.546875 4.929688 -0.542969 C 4.882812 -0.527344 4.84375 -0.5 4.804688 -0.460938 C 4.765625 -0.421875 4.738281 -0.378906 4.722656 -0.332031 C 4.714844 -0.3125 4.714844 -0.296875 4.714844 -0.28125 L 4.714844 -10.589844 L 7.316406 -10.589844 C 7.300781 -10.589844 7.285156 -10.585938 7.265625 -10.578125 C 7.214844 -10.5625 7.175781 -10.535156 7.136719 -10.496094 C 7.097656 -10.460938 7.070312 -10.417969 7.054688 -10.371094 C 7.050781 -10.347656 7.046875 -10.332031 7.046875 -10.320312 L 7.046875 -12.085938 C 7.046875 -12.074219 7.050781 -12.054688 7.054688 -12.035156 C 7.070312 -11.988281 7.097656 -11.945312 7.136719 -11.90625 C 7.175781 -11.867188 7.214844 -11.84375 7.265625 -11.828125 C 7.285156 -11.820312 7.300781 -11.816406 7.316406 -11.816406 Z M 7.316406 -12.921875 C 7.5625 -12.921875 7.761719 -12.84375 7.917969 -12.6875 C 8.074219 -12.53125 8.148438 -12.332031 8.148438 -12.085938 L 8.148438 -10.320312 C 8.148438 -10.070312 8.074219 -9.871094 7.917969 -9.714844 C 7.761719 -9.5625 7.5625 -9.484375 7.316406 -9.484375 L 5.265625 -9.484375 L 5.265625 -10.035156 L 5.816406 -10.035156 L 5.816406 -0.28125 C 5.816406 -0.0351562 5.738281 0.164062 5.585938 0.320312 C 5.429688 0.476562 5.230469 0.550781 4.984375 0.550781 L 3.144531 0.550781 C 2.898438 0.550781 2.699219 0.476562 2.542969 0.320312 C 2.386719 0.164062 2.308594 -0.0351562 2.308594 -0.28125 L 2.308594 -10.035156 L 2.863281 -10.035156 L 2.863281 -9.484375 L 0.8125 -9.484375 C 0.566406 -9.484375 0.363281 -9.5625 0.210938 -9.714844 C 0.0546875 -9.871094 -0.0234375 -10.070312 -0.0234375 -10.320312 L -0.0234375 -12.085938 C -0.0234375 -12.332031 0.0546875 -12.53125 0.210938 -12.6875 C 0.363281 -12.84375 0.566406 -12.921875 0.8125 -12.921875 Z M 7.316406 -12.921875 "/></g></g></g><g fill="#b21a22" fill-opacity="1"><g transform="translate(63.178753, 42.912603)"><g><path d="M 8.484375 -12.085938 L 8.484375 -10.320312 C 8.484375 -10.074219 8.410156 -9.871094 8.265625 -9.714844 C 8.109375 -9.550781 7.902344 -9.464844 7.652344 -9.464844 L 3.285156 -9.464844 L 3.285156 -10.019531 L 3.839844 -10.019531 L 3.839844 -7.296875 L 3.285156 -7.296875 L 3.285156 -7.847656 L 6.609375 -7.847656 C 6.863281 -7.847656 7.066406 -7.765625 7.222656 -7.601562 C 7.371094 -7.445312 7.441406 -7.242188 7.441406 -6.996094 L 7.441406 -5.246094 C 7.441406 -5 7.371094 -4.800781 7.222656 -4.644531 C 7.066406 -4.476562 6.863281 -4.394531 6.609375 -4.394531 L 3.285156 -4.394531 L 3.285156 -4.945312 L 3.839844 -4.945312 L 3.839844 -2.332031 L 3.285156 -2.332031 L 3.285156 -2.882812 L 7.652344 -2.882812 C 7.898438 -2.882812 8.097656 -2.808594 8.253906 -2.652344 C 8.40625 -2.496094 8.484375 -2.296875 8.484375 -2.050781 L 8.484375 -0.28125 C 8.484375 -0.0351562 8.40625 0.164062 8.253906 0.320312 C 8.097656 0.476562 7.898438 0.550781 7.652344 0.550781 L 1.148438 0.550781 C 0.902344 0.550781 0.699219 0.46875 0.546875 0.308594 C 0.402344 0.152344 0.332031 -0.0429688 0.332031 -0.28125 L 0.332031 -12.085938 C 0.332031 -12.324219 0.402344 -12.523438 0.546875 -12.675781 C 0.699219 -12.839844 0.902344 -12.921875 1.148438 -12.921875 L 7.652344 -12.921875 C 7.898438 -12.921875 8.097656 -12.84375 8.253906 -12.6875 C 8.40625 -12.53125 8.484375 -12.332031 8.484375 -12.085938 Z M 7.382812 -12.085938 C 7.382812 -12.074219 7.382812 -12.054688 7.390625 -12.035156 C 7.40625 -11.988281 7.433594 -11.945312 7.472656 -11.90625 C 7.511719 -11.867188 7.550781 -11.84375 7.597656 -11.828125 C 7.621094 -11.820312 7.636719 -11.816406 7.652344 -11.816406 L 1.148438 -11.816406 C 1.21875 -11.816406 1.289062 -11.851562 1.351562 -11.917969 C 1.386719 -11.957031 1.414062 -12 1.425781 -12.042969 C 1.433594 -12.0625 1.4375 -12.078125 1.4375 -12.085938 L 1.4375 -0.28125 C 1.4375 -0.292969 1.433594 -0.304688 1.425781 -0.324219 C 1.414062 -0.367188 1.386719 -0.410156 1.351562 -0.449219 C 1.289062 -0.519531 1.21875 -0.550781 1.148438 -0.550781 L 7.652344 -0.550781 C 7.636719 -0.550781 7.621094 -0.546875 7.597656 -0.542969 C 7.550781 -0.527344 7.511719 -0.5 7.472656 -0.460938 C 7.433594 -0.421875 7.40625 -0.378906 7.390625 -0.332031 C 7.382812 -0.3125 7.382812 -0.296875 7.382812 -0.28125 L 7.382812 -2.050781 C 7.382812 -2.035156 7.382812 -2.019531 7.390625 -2 C 7.40625 -1.953125 7.433594 -1.910156 7.472656 -1.871094 C 7.511719 -1.832031 7.550781 -1.804688 7.597656 -1.789062 C 7.621094 -1.785156 7.636719 -1.78125 7.652344 -1.78125 L 2.734375 -1.78125 L 2.734375 -5.5 L 6.609375 -5.5 C 6.59375 -5.5 6.570312 -5.496094 6.546875 -5.488281 C 6.5 -5.46875 6.457031 -5.441406 6.417969 -5.402344 C 6.382812 -5.363281 6.359375 -5.324219 6.347656 -5.28125 C 6.339844 -5.265625 6.339844 -5.253906 6.339844 -5.246094 L 6.339844 -6.996094 C 6.339844 -6.992188 6.339844 -6.980469 6.347656 -6.964844 C 6.359375 -6.917969 6.382812 -6.878906 6.417969 -6.84375 C 6.457031 -6.804688 6.5 -6.773438 6.546875 -6.757812 C 6.570312 -6.75 6.59375 -6.746094 6.609375 -6.746094 L 2.734375 -6.746094 L 2.734375 -10.570312 L 7.652344 -10.570312 C 7.632812 -10.570312 7.613281 -10.566406 7.589844 -10.558594 C 7.542969 -10.539062 7.496094 -10.511719 7.460938 -10.472656 C 7.425781 -10.433594 7.402344 -10.394531 7.386719 -10.351562 C 7.382812 -10.335938 7.382812 -10.324219 7.382812 -10.320312 Z M 7.382812 -12.085938 "/></g></g></g><g fill="#b21a22" fill-opacity="1"><g transform="translate(71.995102, 42.912603)"><g><path d="M 8.503906 -9.824219 L 8.503906 -6.273438 C 8.503906 -5.042969 8.085938 -4.167969 7.253906 -3.648438 L 6.960938 -4.117188 L 7.5 -4.246094 L 8.417969 -0.449219 L 7.878906 -0.316406 L 8.414062 -0.464844 C 8.492188 -0.179688 8.453125 0.0585938 8.296875 0.257812 C 8.148438 0.453125 7.925781 0.550781 7.632812 0.550781 L 5.902344 0.550781 C 5.6875 0.550781 5.503906 0.488281 5.351562 0.363281 C 5.203125 0.242188 5.105469 0.078125 5.0625 -0.132812 L 5.601562 -0.246094 L 5.0625 -0.117188 L 4.214844 -3.597656 L 4.753906 -3.726562 L 4.753906 -3.175781 L 3.179688 -3.175781 L 3.179688 -3.726562 L 3.734375 -3.726562 L 3.734375 -0.28125 C 3.734375 -0.0351562 3.65625 0.164062 3.5 0.320312 C 3.34375 0.476562 3.144531 0.550781 2.898438 0.550781 L 1.167969 0.550781 C 0.917969 0.550781 0.71875 0.476562 0.5625 0.320312 C 0.410156 0.164062 0.332031 -0.0351562 0.332031 -0.28125 L 0.332031 -12.085938 C 0.332031 -12.332031 0.410156 -12.53125 0.5625 -12.6875 C 0.71875 -12.84375 0.917969 -12.921875 1.167969 -12.921875 L 5.40625 -12.921875 C 6.394531 -12.921875 7.160156 -12.652344 7.695312 -12.113281 C 8.234375 -11.574219 8.503906 -10.8125 8.503906 -9.824219 Z M 7.398438 -9.824219 C 7.398438 -10.507812 7.238281 -11.011719 6.914062 -11.332031 C 6.59375 -11.65625 6.089844 -11.816406 5.40625 -11.816406 L 1.167969 -11.816406 C 1.179688 -11.816406 1.195312 -11.820312 1.21875 -11.828125 C 1.265625 -11.84375 1.308594 -11.867188 1.34375 -11.90625 C 1.382812 -11.945312 1.410156 -11.988281 1.425781 -12.035156 C 1.433594 -12.054688 1.4375 -12.074219 1.4375 -12.085938 L 1.4375 -0.28125 C 1.4375 -0.296875 1.433594 -0.3125 1.425781 -0.332031 C 1.410156 -0.378906 1.382812 -0.421875 1.34375 -0.460938 C 1.308594 -0.5 1.265625 -0.527344 1.21875 -0.542969 C 1.195312 -0.546875 1.179688 -0.550781 1.167969 -0.550781 L 2.898438 -0.550781 C 2.886719 -0.550781 2.867188 -0.546875 2.847656 -0.542969 C 2.800781 -0.527344 2.757812 -0.5 2.71875 -0.460938 C 2.679688 -0.421875 2.65625 -0.378906 2.640625 -0.332031 C 2.632812 -0.3125 2.628906 -0.296875 2.628906 -0.28125 L 2.628906 -4.28125 L 5.1875 -4.28125 L 6.140625 -0.371094 L 6.140625 -0.363281 C 6.132812 -0.40625 6.101562 -0.449219 6.054688 -0.488281 C 6 -0.53125 5.949219 -0.550781 5.902344 -0.550781 L 7.632812 -0.550781 C 7.621094 -0.550781 7.609375 -0.546875 7.59375 -0.542969 C 7.527344 -0.519531 7.472656 -0.476562 7.425781 -0.417969 C 7.378906 -0.355469 7.351562 -0.289062 7.347656 -0.21875 C 7.34375 -0.195312 7.347656 -0.179688 7.347656 -0.171875 L 7.34375 -0.179688 L 6.332031 -4.375 L 6.667969 -4.585938 C 7.15625 -4.890625 7.398438 -5.453125 7.398438 -6.273438 Z M 3.179688 -6.558594 L 4.945312 -6.558594 C 5.003906 -6.558594 5.050781 -6.566406 5.082031 -6.574219 C 5.085938 -6.578125 5.089844 -6.578125 5.09375 -6.582031 C 5.089844 -6.578125 5.089844 -6.578125 5.085938 -6.574219 C 5.085938 -6.570312 5.082031 -6.570312 5.082031 -6.566406 C 5.082031 -6.570312 5.082031 -6.574219 5.085938 -6.578125 C 5.097656 -6.609375 5.101562 -6.65625 5.101562 -6.714844 L 5.101562 -9.382812 C 5.101562 -9.441406 5.097656 -9.484375 5.085938 -9.515625 C 5.082031 -9.523438 5.082031 -9.527344 5.082031 -9.527344 C 5.082031 -9.527344 5.085938 -9.523438 5.085938 -9.523438 C 5.089844 -9.519531 5.089844 -9.515625 5.09375 -9.515625 C 5.089844 -9.515625 5.085938 -9.519531 5.082031 -9.519531 C 5.050781 -9.53125 5.003906 -9.535156 4.945312 -9.535156 L 3.179688 -9.535156 L 3.179688 -10.089844 L 3.734375 -10.089844 L 3.734375 -6.007812 L 3.179688 -6.007812 Z M 2.628906 -5.457031 L 2.628906 -10.640625 L 4.945312 -10.640625 C 5.335938 -10.640625 5.640625 -10.527344 5.867188 -10.300781 C 6.09375 -10.078125 6.207031 -9.769531 6.207031 -9.382812 L 6.207031 -6.714844 C 6.207031 -6.324219 6.09375 -6.019531 5.867188 -5.792969 C 5.640625 -5.566406 5.335938 -5.457031 4.945312 -5.457031 Z M 2.628906 -5.457031 "/></g></g></g><g fill="#060705" fill-opacity="1"><g transform="translate(18.813028, 18.36266)"><g><path d="M 7.03125 -12.375 L 8.796875 -12.375 C 8.929688 -12.375 9.023438 -12.332031 9.078125 -12.25 C 9.140625 -12.175781 9.140625 -12.082031 9.078125 -11.96875 L 5.84375 -4.625 L 5.84375 -0.359375 C 5.84375 -0.117188 5.726562 0 5.5 0 L 3.796875 0 C 3.566406 0 3.453125 -0.117188 3.453125 -0.359375 L 3.453125 -4.625 L 0.21875 -11.96875 C 0.164062 -12.082031 0.164062 -12.175781 0.21875 -12.25 C 0.269531 -12.332031 0.363281 -12.375 0.5 -12.375 L 2.265625 -12.375 C 2.460938 -12.375 2.597656 -12.28125 2.671875 -12.09375 L 4.640625 -7.546875 L 6.625 -12.09375 C 6.695312 -12.28125 6.832031 -12.375 7.03125 -12.375 Z M 7.03125 -12.375 "/></g></g></g><g fill="#060705" fill-opacity="1"><g transform="translate(28.106413, 18.36266)"><g><path d="M 9.21875 0 L 7.515625 0 C 7.359375 0 7.265625 -0.0820312 7.234375 -0.25 L 6.65625 -2.46875 L 3.34375 -2.46875 L 2.796875 -0.25 C 2.753906 -0.0820312 2.660156 0 2.515625 0 L 0.78125 0 C 0.5625 0 0.484375 -0.0976562 0.546875 -0.296875 L 3.484375 -12.125 C 3.515625 -12.289062 3.613281 -12.375 3.78125 -12.375 L 6.234375 -12.375 C 6.398438 -12.375 6.5 -12.289062 6.53125 -12.125 L 9.46875 -0.296875 C 9.53125 -0.0976562 9.445312 0 9.21875 0 Z M 6.109375 -4.53125 L 5 -9.328125 L 3.890625 -4.53125 Z M 6.109375 -4.53125 "/></g></g></g><g fill="#060705" fill-opacity="1"><g transform="translate(38.124186, 18.36266)"><g><path d="M 8.265625 -12.375 L 10.609375 -12.375 C 10.835938 -12.375 10.953125 -12.253906 10.953125 -12.015625 L 10.953125 -0.359375 C 10.953125 -0.117188 10.835938 0 10.609375 0 L 8.953125 0 C 8.722656 0 8.609375 -0.117188 8.609375 -0.359375 L 8.609375 -7.296875 L 8.484375 -7.296875 L 6.828125 -0.296875 C 6.765625 -0.0976562 6.632812 0 6.4375 0 L 5.390625 0 C 5.191406 0 5.0625 -0.0976562 5 -0.296875 L 3.34375 -7.296875 L 3.21875 -7.296875 L 3.21875 -0.359375 C 3.21875 -0.117188 3.097656 0 2.859375 0 L 1.234375 0 C 1.003906 0 0.890625 -0.117188 0.890625 -0.359375 L 0.890625 -12.015625 C 0.890625 -12.253906 1.003906 -12.375 1.234375 -12.375 L 3.5625 -12.375 C 3.769531 -12.375 3.898438 -12.269531 3.953125 -12.0625 L 5.921875 -4.1875 L 7.875 -12.0625 C 7.9375 -12.269531 8.066406 -12.375 8.265625 -12.375 Z M 8.265625 -12.375 "/></g></g></g><g fill="#060705" fill-opacity="1"><g transform="translate(49.961767, 18.36266)"><g><path d="M 3.28125 -2.328125 L 3.28125 -12.09375 C 3.28125 -12.28125 3.1875 -12.375 3 -12.375 L 1.171875 -12.375 C 0.984375 -12.375 0.890625 -12.28125 0.890625 -12.09375 L 0.890625 -0.28125 C 0.890625 -0.09375 0.984375 0 1.171875 0 L 6.78125 0 C 6.96875 0 7.0625 -0.09375 7.0625 -0.28125 L 7.0625 -2.046875 C 7.0625 -2.234375 6.96875 -2.328125 6.78125 -2.328125 Z M 3.28125 -2.328125 "/></g></g></g><g fill="#060705" fill-opacity="1"><g transform="translate(57.912381, 18.36266)"><g><path d="M 0.890625 -5.546875 L 0.890625 -7.171875 C 0.890625 -7.410156 1.003906 -7.53125 1.234375 -7.53125 L 4.03125 -7.53125 C 4.257812 -7.53125 4.375 -7.410156 4.375 -7.171875 L 4.375 -5.546875 C 4.375 -5.316406 4.257812 -5.203125 4.03125 -5.203125 L 1.234375 -5.203125 C 1.003906 -5.203125 0.890625 -5.316406 0.890625 -5.546875 Z M 0.890625 -5.546875 "/></g></g></g><g fill="#060705" fill-opacity="1"><g transform="translate(1.163958, 42.912603)"><g><path d="M 7.96875 -9.828125 L 7.96875 -7.921875 C 7.96875 -7.734375 7.875 -7.640625 7.6875 -7.640625 L 6.03125 -7.640625 C 5.84375 -7.640625 5.75 -7.734375 5.75 -7.921875 L 5.75 -9.359375 C 5.75 -9.835938 5.507812 -10.078125 5.03125 -10.078125 L 3.90625 -10.078125 C 3.4375 -10.078125 3.203125 -9.835938 3.203125 -9.359375 L 3.203125 -2.953125 C 3.203125 -2.484375 3.4375 -2.25 3.90625 -2.25 L 5.03125 -2.25 C 5.507812 -2.25 5.75 -2.484375 5.75 -2.953125 L 5.75 -4.453125 C 5.75 -4.640625 5.84375 -4.734375 6.03125 -4.734375 L 7.6875 -4.734375 C 7.875 -4.734375 7.96875 -4.640625 7.96875 -4.453125 L 7.96875 -2.546875 C 7.96875 -1.722656 7.75 -1.09375 7.3125 -0.65625 C 6.875 -0.21875 6.242188 0 5.421875 0 L 3.453125 0 C 2.617188 0 1.984375 -0.21875 1.546875 -0.65625 C 1.109375 -1.09375 0.890625 -1.722656 0.890625 -2.546875 L 0.890625 -9.828125 C 0.890625 -10.660156 1.109375 -11.289062 1.546875 -11.71875 C 1.984375 -12.15625 2.617188 -12.375 3.453125 -12.375 L 5.421875 -12.375 C 6.242188 -12.375 6.875 -12.15625 7.3125 -11.71875 C 7.75 -11.289062 7.96875 -10.660156 7.96875 -9.828125 Z M 7.96875 -9.828125 "/></g></g></g><g fill="#060705" fill-opacity="1"><g transform="translate(10.015642, 42.912603)"><g><path d="M 0.890625 -2.546875 L 0.890625 -9.828125 C 0.890625 -10.660156 1.101562 -11.289062 1.53125 -11.71875 C 1.96875 -12.15625 2.597656 -12.375 3.421875 -12.375 L 5.40625 -12.375 C 6.238281 -12.375 6.867188 -12.15625 7.296875 -11.71875 C 7.734375 -11.289062 7.953125 -10.660156 7.953125 -9.828125 L 7.953125 -2.546875 C 7.953125 -1.722656 7.734375 -1.09375 7.296875 -0.65625 C 6.867188 -0.21875 6.238281 0 5.40625 0 L 3.421875 0 C 2.597656 0 1.96875 -0.21875 1.53125 -0.65625 C 1.101562 -1.09375 0.890625 -1.722656 0.890625 -2.546875 Z M 3.890625 -2.28125 L 5.015625 -2.28125 C 5.484375 -2.28125 5.71875 -2.515625 5.71875 -2.984375 L 5.71875 -9.390625 C 5.71875 -9.859375 5.484375 -10.09375 5.015625 -10.09375 L 3.890625 -10.09375 C 3.421875 -10.09375 3.1875 -9.859375 3.1875 -9.390625 L 3.1875 -2.984375 C 3.1875 -2.515625 3.421875 -2.28125 3.890625 -2.28125 Z M 3.890625 -2.28125 "/></g></g></g><g fill="#060705" fill-opacity="1"><g transform="translate(18.849657, 42.912603)"><g><path d="M 6.484375 -12.375 L 8.140625 -12.375 C 8.328125 -12.375 8.421875 -12.28125 8.421875 -12.09375 L 8.421875 -0.28125 C 8.421875 -0.09375 8.328125 0 8.140625 0 L 6.75 0 C 6.601562 0 6.5 -0.078125 6.4375 -0.234375 L 3.109375 -6.984375 L 3.109375 -0.28125 C 3.109375 -0.09375 3.015625 0 2.828125 0 L 1.171875 0 C 0.984375 0 0.890625 -0.09375 0.890625 -0.28125 L 0.890625 -12.09375 C 0.890625 -12.28125 0.984375 -12.375 1.171875 -12.375 L 2.5625 -12.375 C 2.707031 -12.375 2.8125 -12.296875 2.875 -12.140625 L 6.203125 -5.390625 L 6.203125 -12.09375 C 6.203125 -12.28125 6.296875 -12.375 6.484375 -12.375 Z M 6.484375 -12.375 "/></g></g></g><g fill="#060705" fill-opacity="1"><g transform="translate(28.160712, 42.912603)"><g><path d="M 6.765625 -12.375 L 8.375 -12.375 C 8.644531 -12.375 8.75 -12.242188 8.6875 -11.984375 L 5.890625 -0.3125 C 5.835938 -0.101562 5.707031 0 5.5 0 L 3.734375 0 C 3.523438 0 3.394531 -0.101562 3.34375 -0.3125 L 0.546875 -11.984375 C 0.484375 -12.242188 0.585938 -12.375 0.859375 -12.375 L 2.46875 -12.375 C 2.6875 -12.375 2.816406 -12.265625 2.859375 -12.046875 L 4.609375 -4.0625 L 6.375 -12.046875 C 6.4375 -12.265625 6.566406 -12.375 6.765625 -12.375 Z M 6.765625 -12.375 "/></g></g></g><g fill="#060705" fill-opacity="1"><g transform="translate(37.401092, 42.912603)"><g><path d="M 7.9375 -12.09375 L 7.9375 -10.328125 C 7.9375 -10.117188 7.84375 -10.015625 7.65625 -10.015625 L 3.28125 -10.015625 L 3.28125 -7.296875 L 6.609375 -7.296875 C 6.796875 -7.296875 6.890625 -7.195312 6.890625 -7 L 6.890625 -5.25 C 6.890625 -5.050781 6.796875 -4.953125 6.609375 -4.953125 L 3.28125 -4.953125 L 3.28125 -2.328125 L 7.65625 -2.328125 C 7.84375 -2.328125 7.9375 -2.234375 7.9375 -2.046875 L 7.9375 -0.28125 C 7.9375 -0.09375 7.84375 0 7.65625 0 L 1.15625 0 C 0.976562 0 0.890625 -0.09375 0.890625 -0.28125 L 0.890625 -12.09375 C 0.890625 -12.28125 0.976562 -12.375 1.15625 -12.375 L 7.65625 -12.375 C 7.84375 -12.375 7.9375 -12.28125 7.9375 -12.09375 Z M 7.9375 -12.09375 "/></g></g></g><g fill="#060705" fill-opacity="1"><g transform="translate(46.217442, 42.912603)"><g><path d="M 7.953125 -9.828125 L 7.953125 -6.28125 C 7.953125 -5.25 7.625 -4.53125 6.96875 -4.125 L 7.875 -0.3125 C 7.9375 -0.101562 7.859375 0 7.640625 0 L 5.90625 0 C 5.738281 0 5.640625 -0.0820312 5.609375 -0.25 L 4.75 -3.734375 L 3.1875 -3.734375 L 3.1875 -0.28125 C 3.1875 -0.09375 3.085938 0 2.890625 0 L 1.171875 0 C 0.984375 0 0.890625 -0.09375 0.890625 -0.28125 L 0.890625 -12.09375 C 0.890625 -12.28125 0.984375 -12.375 1.171875 -12.375 L 5.40625 -12.375 C 6.238281 -12.375 6.867188 -12.15625 7.296875 -11.71875 C 7.734375 -11.289062 7.953125 -10.660156 7.953125 -9.828125 Z M 3.1875 -6.015625 L 4.953125 -6.015625 C 5.421875 -6.015625 5.65625 -6.25 5.65625 -6.71875 L 5.65625 -9.390625 C 5.65625 -9.859375 5.421875 -10.09375 4.953125 -10.09375 L 3.1875 -10.09375 Z M 3.1875 -6.015625 "/></g></g></g><g fill="#060705" fill-opacity="1"><g transform="translate(55.051457, 42.912603)"><g><path d="M 7.3125 -12.375 L 0.8125 -12.375 C 0.625 -12.375 0.53125 -12.28125 0.53125 -12.09375 L 0.53125 -10.328125 C 0.53125 -10.128906 0.625 -10.03125 0.8125 -10.03125 L 2.859375 -10.03125 L 2.859375 -0.28125 C 2.859375 -0.09375 2.953125 0 3.140625 0 L 4.984375 0 C 5.171875 0 5.265625 -0.09375 5.265625 -0.28125 L 5.265625 -10.03125 L 7.3125 -10.03125 C 7.5 -10.03125 7.59375 -10.128906 7.59375 -10.328125 L 7.59375 -12.09375 C 7.59375 -12.28125 7.5 -12.375 7.3125 -12.375 Z M 7.3125 -12.375 "/></g></g></g><g fill="#060705" fill-opacity="1"><g transform="translate(63.178753, 42.912603)"><g><path d="M 7.9375 -12.09375 L 7.9375 -10.328125 C 7.9375 -10.117188 7.84375 -10.015625 7.65625 -10.015625 L 3.28125 -10.015625 L 3.28125 -7.296875 L 6.609375 -7.296875 C 6.796875 -7.296875 6.890625 -7.195312 6.890625 -7 L 6.890625 -5.25 C 6.890625 -5.050781 6.796875 -4.953125 6.609375 -4.953125 L 3.28125 -4.953125 L 3.28125 -2.328125 L 7.65625 -2.328125 C 7.84375 -2.328125 7.9375 -2.234375 7.9375 -2.046875 L 7.9375 -0.28125 C 7.9375 -0.09375 7.84375 0 7.65625 0 L 1.15625 0 C 0.976562 0 0.890625 -0.09375 0.890625 -0.28125 L 0.890625 -12.09375 C 0.890625 -12.28125 0.976562 -12.375 1.15625 -12.375 L 7.65625 -12.375 C 7.84375 -12.375 7.9375 -12.28125 7.9375 -12.09375 Z M 7.9375 -12.09375 "/></g></g></g><g fill="#060705" fill-opacity="1"><g transform="translate(71.995102, 42.912603)"><g><path d="M 7.953125 -9.828125 L 7.953125 -6.28125 C 7.953125 -5.25 7.625 -4.53125 6.96875 -4.125 L 7.875 -0.3125 C 7.9375 -0.101562 7.859375 0 7.640625 0 L 5.90625 0 C 5.738281 0 5.640625 -0.0820312 5.609375 -0.25 L 4.75 -3.734375 L 3.1875 -3.734375 L 3.1875 -0.28125 C 3.1875 -0.09375 3.085938 0 2.890625 0 L 1.171875 0 C 0.984375 0 0.890625 -0.09375 0.890625 -0.28125 L 0.890625 -12.09375 C 0.890625 -12.28125 0.984375 -12.375 1.171875 -12.375 L 5.40625 -12.375 C 6.238281 -12.375 6.867188 -12.15625 7.296875 -11.71875 C 7.734375 -11.289062 7.953125 -10.660156 7.953125 -9.828125 Z M 3.1875 -6.015625 L 4.953125 -6.015625 C 5.421875 -6.015625 5.65625 -6.25 5.65625 -6.71875 L 5.65625 -9.390625 C 5.65625 -9.859375 5.421875 -10.09375 4.953125 -10.09375 L 3.1875 -10.09375 Z M 3.1875 -6.015625 "/></g></g></g></g></g></svg>