<svg xmlns="http://www.w3.org/2000/svg" xmlns:xlink="http://www.w3.org/1999/xlink" width="500" zoomAndPan="magnify" viewBox="0 0 375 374.999991" height="500" preserveAspectRatio="xMidYMid meet" version="1.0"><defs><g/><clipPath id="6d6a1d8d09"><path d="M 25 0 L 350 0 L 350 375 L 25 375 Z M 25 0 " clip-rule="nonzero"/></clipPath><clipPath id="3c896b48ed"><path d="M -55.878906 142.882812 L 268.328125 -46.476562 L 431 232.042969 L 106.789062 421.402344 Z M -55.878906 142.882812 " clip-rule="nonzero"/></clipPath><clipPath id="2300df1742"><path d="M 349.546875 92.851562 L 349.859375 279.433594 L 187.8125 374.078125 L 25.453125 282.140625 L 25.140625 95.5625 L 187.1875 0.917969 Z M 349.546875 92.851562 " clip-rule="nonzero"/></clipPath><clipPath id="707d52fb82"><path d="M 0 0.71875 L 324.921875 0.71875 L 324.921875 374.160156 L 0 374.160156 Z M 0 0.71875 " clip-rule="nonzero"/></clipPath><clipPath id="3e3bbadb58"><path d="M -80.878906 142.882812 L 243.328125 -46.476562 L 406 232.042969 L 81.789062 421.402344 Z M -80.878906 142.882812 " clip-rule="nonzero"/></clipPath><clipPath id="a2042fd9c7"><path d="M 324.546875 92.851562 L 324.859375 279.433594 L 162.8125 374.078125 L 0.453125 282.140625 L 0.140625 95.5625 L 162.1875 0.917969 Z M 324.546875 92.851562 " clip-rule="nonzero"/></clipPath><clipPath id="6cc3220681"><rect x="0" width="325" y="0" height="375"/></clipPath><clipPath id="40131fb7f4"><path d="M 55.238281 35.632812 L 319.726562 35.632812 L 319.726562 339.21875 L 55.238281 339.21875 Z M 55.238281 35.632812 " clip-rule="nonzero"/></clipPath><clipPath id="94dcaaf245"><rect x="0" width="375" y="0" height="375"/></clipPath><clipPath id="61f22152ac"><rect x="0" width="314" y="0" height="180"/></clipPath></defs><g transform="matrix(1, 0, 0, 1, 0, 0)"><g clip-path="url(#94dcaaf245)"><g clip-path="url(#6d6a1d8d09)"><g clip-path="url(#3c896b48ed)"><g clip-path="url(#2300df1742)"><g transform="matrix(1, 0, 0, 1, 25, 0)"><g clip-path="url(#6cc3220681)"><g clip-path="url(#707d52fb82)"><g clip-path="url(#3e3bbadb58)"><g clip-path="url(#a2042fd9c7)"><path fill="#65b30e" d="M -80.878906 142.882812 L 243.332031 -46.476562 L 406 232.042969 L 81.789062 421.402344 Z M -80.878906 142.882812 " fill-opacity="1" fill-rule="nonzero"/></g></g></g></g></g></g></g></g><path fill="#87ff00" d="M 134.621094 135.75 L 134.453125 135.582031 L 97.054688 172.976562 L 187.855469 263.609375 L 225.253906 226.386719 L 278.65625 172.976562 L 241.257812 135.582031 L 241.257812 135.414062 L 134.457031 135.414062 Z M 134.621094 135.75 " fill-opacity="1" fill-rule="nonzero"/><g clip-path="url(#40131fb7f4)"><path fill="#87ff00" d="M 187.515625 35.851562 L 55.269531 111.660156 L 55.273438 263.28125 L 187.519531 339.09375 L 319.765625 263.28125 L 319.765625 111.660156 L 187.519531 35.855469 Z M 294.488281 248.785156 L 187.515625 310.441406 L 80.539062 248.785156 L 80.542969 125.808594 L 187.519531 64.148438 L 294.492188 125.804688 L 294.492188 248.78125 Z M 294.488281 248.785156 " fill-opacity="1" fill-rule="nonzero"/></g></g></g><g transform="matrix(1, 0, 0, 1, 30, 92)"><g clip-path="url(#61f22152ac)"><g fill="#b21a22" fill-opacity="1"><g transform="translate(70.832141, 69.572879)"><g><path d="M 27.46875 -50.46875 L 34.371094 -50.46875 C 35.585938 -50.46875 36.523438 -50.039062 37.183594 -49.179688 C 37.597656 -48.640625 37.804688 -48.035156 37.804688 -47.355469 C 37.804688 -46.824219 37.671875 -46.292969 37.40625 -45.761719 L 35.476562 -46.726562 L 37.449219 -45.855469 L 24.820312 -17.210938 L 22.84375 -18.082031 L 25.003906 -18.082031 L 25.003906 -1.378906 C 25.003906 -0.324219 24.675781 0.527344 24.023438 1.179688 C 23.375 1.832031 22.519531 2.15625 21.464844 2.15625 L 14.839844 2.15625 C 13.78125 2.15625 12.929688 1.832031 12.277344 1.179688 C 11.628906 0.527344 11.300781 -0.324219 11.300781 -1.378906 L 11.300781 -18.082031 L 13.457031 -18.082031 L 11.484375 -17.210938 L -1.160156 -45.890625 L -1.175781 -45.925781 C -1.644531 -47.101562 -1.558594 -48.15625 -0.910156 -49.09375 C -0.273438 -50.011719 0.671875 -50.46875 1.933594 -50.46875 L 8.835938 -50.46875 C 9.675781 -50.46875 10.414062 -50.25 11.050781 -49.808594 C 11.683594 -49.367188 12.144531 -48.753906 12.441406 -47.964844 L 10.421875 -47.207031 L 12.398438 -48.070312 L 20.128906 -30.332031 L 18.152344 -29.472656 L 16.175781 -30.332031 L 23.90625 -48.070312 L 25.882812 -47.207031 L 23.863281 -47.964844 C 24.15625 -48.753906 24.621094 -49.367188 25.253906 -49.808594 C 25.890625 -50.25 26.628906 -50.46875 27.46875 -50.46875 Z M 27.46875 -46.15625 C 27.527344 -46.15625 27.613281 -46.191406 27.71875 -46.265625 C 27.820312 -46.335938 27.882812 -46.398438 27.902344 -46.449219 L 27.882812 -46.398438 L 18.152344 -24.070312 L 8.421875 -46.398438 L 8.402344 -46.449219 C 8.421875 -46.398438 8.484375 -46.335938 8.585938 -46.265625 C 8.691406 -46.191406 8.773438 -46.15625 8.835938 -46.15625 L 1.933594 -46.15625 C 1.96875 -46.15625 2.03125 -46.175781 2.121094 -46.210938 C 2.328125 -46.300781 2.5 -46.441406 2.636719 -46.636719 C 2.773438 -46.835938 2.847656 -47.054688 2.855469 -47.289062 C 2.859375 -47.398438 2.851562 -47.476562 2.832031 -47.527344 L 0.828125 -46.726562 L 2.800781 -47.59375 L 15.617188 -18.539062 L 15.617188 -1.378906 C 15.617188 -1.371094 15.617188 -1.363281 15.617188 -1.355469 C 15.617188 -1.355469 15.617188 -1.359375 15.617188 -1.363281 C 15.613281 -1.390625 15.601562 -1.421875 15.589844 -1.457031 C 15.542969 -1.609375 15.453125 -1.746094 15.328125 -1.871094 C 15.203125 -1.996094 15.066406 -2.082031 14.917969 -2.132812 C 14.878906 -2.144531 14.847656 -2.152344 14.820312 -2.15625 C 14.816406 -2.15625 14.816406 -2.15625 14.816406 -2.15625 C 14.820312 -2.15625 14.828125 -2.15625 14.839844 -2.15625 L 21.464844 -2.15625 C 21.472656 -2.15625 21.480469 -2.15625 21.488281 -2.15625 C 21.488281 -2.15625 21.488281 -2.15625 21.484375 -2.15625 C 21.457031 -2.152344 21.421875 -2.144531 21.386719 -2.132812 C 21.238281 -2.082031 21.101562 -1.996094 20.976562 -1.871094 C 20.851562 -1.746094 20.761719 -1.609375 20.710938 -1.457031 C 20.699219 -1.421875 20.691406 -1.390625 20.6875 -1.363281 C 20.6875 -1.359375 20.6875 -1.355469 20.6875 -1.355469 C 20.6875 -1.363281 20.6875 -1.371094 20.6875 -1.378906 L 20.6875 -18.539062 L 33.523438 -47.644531 L 33.546875 -47.691406 C 33.507812 -47.617188 33.492188 -47.503906 33.492188 -47.355469 C 33.492188 -47.054688 33.582031 -46.785156 33.765625 -46.550781 C 33.886719 -46.390625 34.039062 -46.273438 34.214844 -46.203125 C 34.292969 -46.171875 34.34375 -46.15625 34.371094 -46.15625 Z M 27.46875 -46.15625 "/></g></g></g><g fill="#b21a22" fill-opacity="1"><g transform="translate(107.134426, 69.572879)"><g><path d="M 36.027344 2.15625 L 29.332031 2.15625 C 28.492188 2.15625 27.777344 1.898438 27.1875 1.382812 C 26.644531 0.90625 26.289062 0.273438 26.121094 -0.515625 L 28.226562 -0.964844 L 26.136719 -0.433594 L 23.929688 -9.132812 L 26.019531 -9.664062 L 26.019531 -7.503906 L 13.042969 -7.503906 L 13.042969 -9.664062 L 15.140625 -9.148438 L 13 -0.449219 L 10.90625 -0.964844 L 13.015625 -0.515625 C 12.84375 0.273438 12.488281 0.90625 11.945312 1.382812 C 11.355469 1.898438 10.640625 2.15625 9.800781 2.15625 L 3.035156 2.15625 C 1.910156 2.15625 1.058594 1.777344 0.476562 1.015625 C -0.113281 0.242188 -0.25 -0.691406 0.0703125 -1.78125 L 2.140625 -1.171875 L 0.046875 -1.691406 L 11.503906 -47.867188 L 13.597656 -47.347656 L 11.488281 -47.796875 C 11.660156 -48.609375 12.039062 -49.257812 12.621094 -49.738281 C 13.214844 -50.226562 13.933594 -50.46875 14.769531 -50.46875 L 24.363281 -50.46875 C 25.203125 -50.46875 25.917969 -50.226562 26.511719 -49.738281 C 27.09375 -49.257812 27.472656 -48.609375 27.644531 -47.796875 L 25.535156 -47.347656 L 27.628906 -47.867188 L 39.085938 -1.691406 L 36.992188 -1.171875 L 39.0625 -1.78125 C 39.394531 -0.660156 39.234375 0.292969 38.589844 1.078125 C 37.996094 1.796875 37.144531 2.15625 36.027344 2.15625 Z M 36.027344 -2.15625 C 36.039062 -2.15625 36.046875 -2.15625 36.054688 -2.15625 C 36.054688 -2.15625 36.050781 -2.15625 36.046875 -2.15625 C 36.007812 -2.152344 35.960938 -2.140625 35.910156 -2.125 C 35.660156 -2.042969 35.445312 -1.890625 35.257812 -1.664062 C 35.050781 -1.414062 34.9375 -1.132812 34.914062 -0.828125 C 34.902344 -0.710938 34.90625 -0.625 34.925781 -0.566406 L 34.910156 -0.609375 L 23.433594 -46.859375 L 23.425781 -46.894531 C 23.464844 -46.726562 23.578125 -46.5625 23.769531 -46.40625 C 23.972656 -46.238281 24.167969 -46.15625 24.363281 -46.15625 L 14.769531 -46.15625 C 14.964844 -46.15625 15.160156 -46.238281 15.363281 -46.40625 C 15.554688 -46.5625 15.667969 -46.726562 15.707031 -46.894531 L 15.699219 -46.859375 L 4.222656 -0.609375 L 4.210938 -0.566406 C 4.222656 -0.609375 4.226562 -0.683594 4.21875 -0.785156 C 4.203125 -1.078125 4.097656 -1.351562 3.90625 -1.605469 C 3.71875 -1.847656 3.488281 -2.019531 3.222656 -2.109375 C 3.132812 -2.140625 3.070312 -2.15625 3.035156 -2.15625 L 9.800781 -2.15625 C 9.558594 -2.15625 9.328125 -2.058594 9.105469 -1.863281 C 8.929688 -1.710938 8.828125 -1.5625 8.796875 -1.417969 L 8.800781 -1.449219 L 11.355469 -11.820312 L 27.699219 -11.820312 L 30.328125 -1.457031 L 30.335938 -1.417969 C 30.308594 -1.5625 30.203125 -1.710938 30.027344 -1.863281 C 29.804688 -2.058594 29.574219 -2.15625 29.332031 -2.15625 Z M 21.777344 -17.183594 L 17.429688 -35.953125 L 19.53125 -36.441406 L 21.632812 -35.953125 L 17.285156 -17.183594 L 15.183594 -17.667969 L 15.183594 -19.824219 L 23.878906 -19.824219 L 23.878906 -17.667969 Z M 26.59375 -15.511719 L 12.46875 -15.511719 L 17.429688 -36.929688 L 21.632812 -36.929688 L 25.980469 -18.15625 Z M 26.59375 -15.511719 "/></g></g></g><g fill="#b21a22" fill-opacity="1"><g transform="translate(146.266353, 69.572879)"><g><path d="M 32.300781 -50.46875 L 41.410156 -50.46875 C 42.464844 -50.46875 43.320312 -50.144531 43.972656 -49.492188 C 44.621094 -48.839844 44.949219 -47.988281 44.949219 -46.933594 L 44.949219 -1.378906 C 44.949219 -0.324219 44.621094 0.527344 43.972656 1.179688 C 43.320312 1.832031 42.464844 2.15625 41.410156 2.15625 L 34.992188 2.15625 C 33.9375 2.15625 33.082031 1.832031 32.433594 1.179688 C 31.78125 0.527344 31.453125 -0.324219 31.453125 -1.378906 L 31.453125 -28.503906 L 33.613281 -28.503906 L 33.613281 -26.347656 L 33.128906 -26.347656 L 33.128906 -28.503906 L 35.226562 -28.007812 L 28.726562 -0.621094 L 28.710938 -0.566406 C 28.464844 0.273438 28.03125 0.933594 27.40625 1.414062 C 26.765625 1.910156 26.003906 2.15625 25.121094 2.15625 L 21.050781 2.15625 C 20.167969 2.15625 19.40625 1.910156 18.765625 1.414062 C 18.144531 0.933594 17.710938 0.273438 17.460938 -0.566406 L 17.445312 -0.621094 L 10.945312 -28.007812 L 13.042969 -28.503906 L 13.042969 -26.347656 L 12.5625 -26.347656 L 12.5625 -28.503906 L 14.71875 -28.503906 L 14.71875 -1.378906 C 14.71875 -0.324219 14.394531 0.527344 13.742188 1.179688 C 13.089844 1.832031 12.238281 2.15625 11.179688 2.15625 L 4.832031 2.15625 C 3.777344 2.15625 2.921875 1.832031 2.269531 1.179688 C 1.621094 0.527344 1.292969 -0.324219 1.292969 -1.378906 L 1.292969 -46.933594 C 1.292969 -47.988281 1.621094 -48.839844 2.269531 -49.492188 C 2.921875 -50.144531 3.777344 -50.46875 4.832031 -50.46875 L 13.941406 -50.46875 C 14.824219 -50.46875 15.585938 -50.222656 16.226562 -49.726562 C 16.847656 -49.246094 17.28125 -48.585938 17.53125 -47.75 L 17.542969 -47.703125 L 25.214844 -16.878906 L 23.121094 -16.355469 L 21.027344 -16.878906 L 28.699219 -47.703125 L 28.710938 -47.75 C 28.960938 -48.585938 29.394531 -49.246094 30.015625 -49.726562 C 30.65625 -50.222656 31.417969 -50.46875 32.300781 -50.46875 Z M 32.300781 -46.15625 C 32.398438 -46.15625 32.519531 -46.207031 32.652344 -46.3125 C 32.730469 -46.371094 32.789062 -46.4375 32.832031 -46.507812 C 32.84375 -46.523438 32.851562 -46.539062 32.859375 -46.550781 C 32.855469 -46.546875 32.855469 -46.542969 32.851562 -46.53125 L 30.78125 -47.140625 L 32.875 -46.617188 L 25.214844 -15.835938 L 21.027344 -15.835938 L 13.367188 -46.617188 L 15.460938 -47.140625 L 13.390625 -46.53125 C 13.386719 -46.542969 13.386719 -46.546875 13.382812 -46.550781 C 13.390625 -46.539062 13.398438 -46.523438 13.410156 -46.507812 C 13.453125 -46.4375 13.511719 -46.371094 13.589844 -46.3125 C 13.722656 -46.207031 13.84375 -46.15625 13.941406 -46.15625 L 4.832031 -46.15625 C 4.820312 -46.15625 4.8125 -46.15625 4.808594 -46.15625 C 4.808594 -46.15625 4.808594 -46.15625 4.8125 -46.15625 C 4.839844 -46.160156 4.871094 -46.167969 4.910156 -46.179688 C 5.058594 -46.230469 5.195312 -46.316406 5.320312 -46.441406 C 5.445312 -46.566406 5.535156 -46.703125 5.582031 -46.855469 C 5.597656 -46.890625 5.605469 -46.921875 5.609375 -46.949219 C 5.609375 -46.953125 5.609375 -46.957031 5.609375 -46.957031 C 5.609375 -46.949219 5.609375 -46.941406 5.609375 -46.933594 L 5.609375 -1.378906 C 5.609375 -1.371094 5.609375 -1.363281 5.609375 -1.355469 C 5.609375 -1.355469 5.609375 -1.359375 5.609375 -1.363281 C 5.605469 -1.390625 5.597656 -1.421875 5.582031 -1.457031 C 5.535156 -1.609375 5.445312 -1.746094 5.320312 -1.871094 C 5.195312 -1.996094 5.058594 -2.082031 4.910156 -2.132812 C 4.871094 -2.144531 4.839844 -2.152344 4.8125 -2.15625 C 4.808594 -2.15625 4.808594 -2.15625 4.808594 -2.15625 C 4.8125 -2.15625 4.820312 -2.15625 4.832031 -2.15625 L 11.179688 -2.15625 C 11.191406 -2.15625 11.199219 -2.15625 11.203125 -2.15625 C 11.203125 -2.15625 11.203125 -2.15625 11.199219 -2.15625 C 11.171875 -2.152344 11.140625 -2.144531 11.101562 -2.132812 C 10.953125 -2.082031 10.816406 -1.996094 10.691406 -1.871094 C 10.566406 -1.746094 10.476562 -1.609375 10.429688 -1.457031 C 10.417969 -1.421875 10.410156 -1.390625 10.40625 -1.363281 C 10.402344 -1.359375 10.402344 -1.355469 10.402344 -1.355469 C 10.402344 -1.363281 10.402344 -1.371094 10.402344 -1.378906 L 10.402344 -30.660156 L 14.75 -30.660156 L 21.632812 -1.671875 L 19.53125 -1.171875 L 21.601562 -1.78125 C 21.605469 -1.769531 21.605469 -1.765625 21.609375 -1.761719 C 21.601562 -1.773438 21.59375 -1.789062 21.582031 -1.804688 C 21.539062 -1.875 21.480469 -1.941406 21.402344 -2 C 21.269531 -2.105469 21.148438 -2.15625 21.050781 -2.15625 L 25.121094 -2.15625 C 25.023438 -2.15625 24.90625 -2.105469 24.769531 -2 C 24.695312 -1.941406 24.632812 -1.875 24.589844 -1.804688 C 24.578125 -1.789062 24.570312 -1.773438 24.566406 -1.761719 C 24.566406 -1.765625 24.570312 -1.769531 24.570312 -1.78125 L 26.640625 -1.171875 L 24.542969 -1.671875 L 31.421875 -30.660156 L 35.769531 -30.660156 L 35.769531 -1.378906 C 35.769531 -1.371094 35.769531 -1.363281 35.769531 -1.355469 C 35.769531 -1.355469 35.769531 -1.359375 35.769531 -1.363281 C 35.765625 -1.390625 35.757812 -1.421875 35.746094 -1.457031 C 35.695312 -1.609375 35.605469 -1.746094 35.480469 -1.871094 C 35.355469 -1.996094 35.21875 -2.082031 35.070312 -2.132812 C 35.035156 -2.144531 35 -2.152344 34.972656 -2.15625 C 34.96875 -2.15625 34.96875 -2.15625 34.96875 -2.15625 C 34.976562 -2.15625 34.984375 -2.15625 34.992188 -2.15625 L 41.410156 -2.15625 C 41.421875 -2.15625 41.429688 -2.15625 41.433594 -2.15625 C 41.433594 -2.15625 41.433594 -2.15625 41.429688 -2.15625 C 41.402344 -2.152344 41.371094 -2.144531 41.332031 -2.132812 C 41.183594 -2.082031 41.046875 -1.996094 40.921875 -1.871094 C 40.796875 -1.746094 40.707031 -1.609375 40.660156 -1.457031 C 40.644531 -1.421875 40.636719 -1.390625 40.632812 -1.363281 C 40.632812 -1.359375 40.632812 -1.355469 40.632812 -1.355469 C 40.632812 -1.363281 40.632812 -1.371094 40.632812 -1.378906 L 40.632812 -46.933594 C 40.632812 -46.941406 40.632812 -46.949219 40.632812 -46.957031 C 40.632812 -46.957031 40.632812 -46.953125 40.632812 -46.949219 C 40.636719 -46.921875 40.644531 -46.890625 40.660156 -46.855469 C 40.707031 -46.703125 40.796875 -46.566406 40.921875 -46.441406 C 41.046875 -46.316406 41.183594 -46.230469 41.332031 -46.179688 C 41.371094 -46.167969 41.402344 -46.160156 41.429688 -46.15625 C 41.433594 -46.15625 41.433594 -46.15625 41.433594 -46.15625 C 41.429688 -46.15625 41.421875 -46.15625 41.410156 -46.15625 Z M 32.300781 -46.15625 "/></g></g></g><g fill="#b21a22" fill-opacity="1"><g transform="translate(192.506902, 69.572879)"><g><path d="M 10.679688 -9.109375 L 10.679688 -47.207031 C 10.679688 -47.160156 10.695312 -47.09375 10.722656 -47.007812 C 10.785156 -46.824219 10.886719 -46.660156 11.035156 -46.511719 C 11.183594 -46.363281 11.351562 -46.257812 11.535156 -46.199219 C 11.617188 -46.167969 11.683594 -46.15625 11.734375 -46.15625 L 4.554688 -46.15625 C 4.605469 -46.15625 4.671875 -46.167969 4.753906 -46.199219 C 4.9375 -46.257812 5.105469 -46.363281 5.253906 -46.511719 C 5.398438 -46.660156 5.503906 -46.824219 5.566406 -47.007812 C 5.59375 -47.09375 5.609375 -47.160156 5.609375 -47.207031 L 5.609375 -1.105469 C 5.609375 -1.152344 5.59375 -1.21875 5.566406 -1.304688 C 5.503906 -1.488281 5.398438 -1.652344 5.253906 -1.800781 C 5.105469 -1.949219 4.9375 -2.054688 4.753906 -2.117188 C 4.671875 -2.144531 4.605469 -2.15625 4.554688 -2.15625 L 26.503906 -2.15625 C 26.453125 -2.15625 26.386719 -2.144531 26.304688 -2.117188 C 26.121094 -2.054688 25.953125 -1.949219 25.804688 -1.800781 C 25.65625 -1.652344 25.554688 -1.488281 25.492188 -1.304688 C 25.464844 -1.21875 25.449219 -1.152344 25.449219 -1.105469 L 25.449219 -8.007812 C 25.449219 -7.957031 25.464844 -7.890625 25.492188 -7.808594 C 25.554688 -7.625 25.65625 -7.457031 25.804688 -7.308594 C 25.953125 -7.160156 26.121094 -7.054688 26.304688 -6.996094 C 26.386719 -6.96875 26.453125 -6.953125 26.503906 -6.953125 L 10.679688 -6.953125 Z M 14.996094 -9.109375 L 12.835938 -9.109375 L 12.835938 -11.265625 L 26.503906 -11.265625 C 27.464844 -11.265625 28.25 -10.964844 28.855469 -10.359375 C 29.460938 -9.753906 29.765625 -8.96875 29.765625 -8.007812 L 29.765625 -1.105469 C 29.765625 -0.140625 29.460938 0.644531 28.855469 1.25 C 28.25 1.855469 27.464844 2.15625 26.503906 2.15625 L 4.554688 2.15625 C 3.589844 2.15625 2.808594 1.855469 2.203125 1.25 C 1.597656 0.644531 1.292969 -0.140625 1.292969 -1.105469 L 1.292969 -47.207031 C 1.292969 -48.171875 1.597656 -48.957031 2.203125 -49.5625 C 2.808594 -50.167969 3.589844 -50.46875 4.554688 -50.46875 L 11.734375 -50.46875 C 12.695312 -50.46875 13.480469 -50.167969 14.085938 -49.5625 C 14.691406 -48.957031 14.996094 -48.171875 14.996094 -47.207031 Z M 14.996094 -9.109375 "/></g></g></g><g fill="#b21a22" fill-opacity="1"><g transform="translate(223.563986, 69.572879)"><g><path d="M 1.292969 -21.671875 L 1.292969 -28.019531 C 1.292969 -29.078125 1.621094 -29.929688 2.269531 -30.582031 C 2.921875 -31.234375 3.777344 -31.558594 4.832031 -31.558594 L 15.734375 -31.558594 C 16.792969 -31.558594 17.644531 -31.234375 18.296875 -30.582031 C 18.949219 -29.929688 19.273438 -29.078125 19.273438 -28.019531 L 19.273438 -21.671875 C 19.273438 -20.617188 18.949219 -19.761719 18.296875 -19.109375 C 17.644531 -18.460938 16.792969 -18.132812 15.734375 -18.132812 L 4.832031 -18.132812 C 3.777344 -18.132812 2.921875 -18.460938 2.269531 -19.109375 C 1.621094 -19.761719 1.292969 -20.617188 1.292969 -21.671875 Z M 5.609375 -21.671875 C 5.609375 -21.660156 5.609375 -21.652344 5.609375 -21.648438 C 5.609375 -21.648438 5.609375 -21.648438 5.609375 -21.652344 C 5.605469 -21.679688 5.597656 -21.714844 5.582031 -21.75 C 5.535156 -21.898438 5.445312 -22.035156 5.320312 -22.160156 C 5.195312 -22.285156 5.058594 -22.375 4.910156 -22.425781 C 4.871094 -22.4375 4.839844 -22.445312 4.8125 -22.449219 C 4.808594 -22.449219 4.808594 -22.449219 4.808594 -22.449219 C 4.8125 -22.449219 4.820312 -22.449219 4.832031 -22.449219 L 15.734375 -22.449219 C 15.746094 -22.449219 15.753906 -22.449219 15.761719 -22.449219 C 15.757812 -22.449219 15.757812 -22.449219 15.753906 -22.449219 C 15.726562 -22.445312 15.695312 -22.4375 15.65625 -22.425781 C 15.507812 -22.375 15.371094 -22.285156 15.246094 -22.160156 C 15.121094 -22.035156 15.035156 -21.898438 14.984375 -21.75 C 14.972656 -21.714844 14.964844 -21.679688 14.960938 -21.652344 C 14.960938 -21.648438 14.957031 -21.648438 14.957031 -21.648438 C 14.960938 -21.652344 14.960938 -21.660156 14.960938 -21.671875 L 14.960938 -28.019531 C 14.960938 -28.03125 14.960938 -28.039062 14.957031 -28.046875 C 14.957031 -28.046875 14.960938 -28.042969 14.960938 -28.039062 C 14.964844 -28.011719 14.972656 -27.980469 14.984375 -27.941406 C 15.035156 -27.792969 15.121094 -27.65625 15.246094 -27.53125 C 15.371094 -27.40625 15.507812 -27.320312 15.65625 -27.269531 C 15.695312 -27.257812 15.726562 -27.25 15.753906 -27.246094 C 15.757812 -27.246094 15.757812 -27.242188 15.761719 -27.242188 C 15.753906 -27.246094 15.746094 -27.246094 15.734375 -27.246094 L 4.832031 -27.246094 C 4.820312 -27.246094 4.8125 -27.246094 4.808594 -27.242188 C 4.808594 -27.242188 4.808594 -27.246094 4.8125 -27.246094 C 4.839844 -27.25 4.871094 -27.257812 4.910156 -27.269531 C 5.058594 -27.320312 5.195312 -27.40625 5.320312 -27.53125 C 5.445312 -27.65625 5.535156 -27.792969 5.582031 -27.941406 C 5.597656 -27.980469 5.605469 -28.011719 5.609375 -28.039062 C 5.609375 -28.042969 5.609375 -28.046875 5.609375 -28.046875 C 5.609375 -28.039062 5.609375 -28.03125 5.609375 -28.019531 Z M 5.609375 -21.671875 "/></g></g></g><g fill="#b21a22" fill-opacity="1"><g transform="translate(1.890462, 165.471095)"><g><path d="M 33.285156 -38.375 L 33.285156 -30.921875 C 33.285156 -29.957031 32.980469 -29.171875 32.375 -28.566406 C 31.769531 -27.960938 30.988281 -27.660156 30.023438 -27.660156 L 23.535156 -27.660156 C 22.570312 -27.660156 21.785156 -27.960938 21.183594 -28.566406 C 20.578125 -29.171875 20.273438 -29.957031 20.273438 -30.921875 L 20.273438 -36.578125 C 20.273438 -36.804688 20.253906 -36.980469 20.210938 -37.105469 C 20.203125 -37.128906 20.199219 -37.144531 20.191406 -37.152344 C 20.199219 -37.144531 20.207031 -37.136719 20.214844 -37.125 C 20.226562 -37.113281 20.234375 -37.105469 20.242188 -37.101562 C 20.234375 -37.109375 20.21875 -37.113281 20.195312 -37.121094 C 20.070312 -37.164062 19.898438 -37.183594 19.671875 -37.183594 L 15.253906 -37.183594 C 15.027344 -37.183594 14.851562 -37.164062 14.726562 -37.121094 C 14.703125 -37.113281 14.6875 -37.109375 14.679688 -37.101562 C 14.6875 -37.105469 14.699219 -37.113281 14.707031 -37.125 C 14.71875 -37.136719 14.726562 -37.144531 14.730469 -37.152344 C 14.726562 -37.144531 14.71875 -37.128906 14.710938 -37.105469 C 14.671875 -36.980469 14.648438 -36.804688 14.648438 -36.578125 L 14.648438 -11.527344 C 14.648438 -11.300781 14.671875 -11.125 14.710938 -11 C 14.71875 -10.976562 14.726562 -10.960938 14.730469 -10.953125 C 14.726562 -10.960938 14.71875 -10.96875 14.707031 -10.980469 C 14.699219 -10.992188 14.6875 -11 14.679688 -11.003906 C 14.6875 -11 14.703125 -10.992188 14.726562 -10.984375 C 14.851562 -10.941406 15.027344 -10.921875 15.253906 -10.921875 L 19.671875 -10.921875 C 19.898438 -10.921875 20.070312 -10.941406 20.195312 -10.984375 C 20.21875 -10.992188 20.234375 -11 20.242188 -11.003906 C 20.234375 -11 20.226562 -10.992188 20.214844 -10.980469 C 20.207031 -10.96875 20.199219 -10.960938 20.191406 -10.953125 C 20.199219 -10.960938 20.203125 -10.976562 20.210938 -11 C 20.253906 -11.125 20.273438 -11.300781 20.273438 -11.527344 L 20.273438 -17.394531 C 20.273438 -18.355469 20.578125 -19.140625 21.183594 -19.746094 C 21.785156 -20.351562 22.570312 -20.652344 23.535156 -20.652344 L 30.023438 -20.652344 C 30.988281 -20.652344 31.769531 -20.351562 32.375 -19.746094 C 32.980469 -19.140625 33.285156 -18.355469 33.285156 -17.394531 L 33.285156 -9.9375 C 33.285156 -6.121094 32.222656 -3.152344 30.097656 -1.027344 C 27.976562 1.09375 25.003906 2.15625 21.1875 2.15625 L 13.457031 2.15625 C 9.648438 2.15625 6.667969 1.097656 4.523438 -1.019531 C 2.371094 -3.144531 1.292969 -6.117188 1.292969 -9.9375 L 1.292969 -38.375 C 1.292969 -42.25 2.375 -45.238281 4.535156 -47.339844 C 6.679688 -49.425781 9.652344 -50.46875 13.457031 -50.46875 L 21.1875 -50.46875 C 25 -50.46875 27.964844 -49.421875 30.089844 -47.328125 C 32.21875 -45.226562 33.285156 -42.242188 33.285156 -38.375 Z M 28.96875 -38.375 C 28.96875 -41.039062 28.332031 -43 27.058594 -44.257812 C 25.777344 -45.523438 23.820312 -46.15625 21.1875 -46.15625 L 13.457031 -46.15625 C 10.820312 -46.15625 8.851562 -45.519531 7.542969 -44.246094 C 6.253906 -42.992188 5.609375 -41.035156 5.609375 -38.375 L 5.609375 -9.9375 C 5.609375 -7.320312 6.257812 -5.371094 7.554688 -4.089844 C 8.859375 -2.800781 10.828125 -2.15625 13.457031 -2.15625 L 21.1875 -2.15625 C 23.8125 -2.15625 25.765625 -2.796875 27.046875 -4.078125 C 28.328125 -5.359375 28.96875 -7.3125 28.96875 -9.9375 L 28.96875 -17.394531 C 28.96875 -17.34375 28.984375 -17.277344 29.011719 -17.195312 C 29.074219 -17.007812 29.179688 -16.84375 29.324219 -16.695312 C 29.472656 -16.546875 29.640625 -16.441406 29.824219 -16.382812 C 29.90625 -16.355469 29.972656 -16.339844 30.023438 -16.339844 L 23.535156 -16.339844 C 23.585938 -16.339844 23.652344 -16.355469 23.734375 -16.382812 C 23.917969 -16.441406 24.085938 -16.546875 24.230469 -16.695312 C 24.378906 -16.84375 24.484375 -17.007812 24.546875 -17.195312 C 24.574219 -17.277344 24.589844 -17.34375 24.589844 -17.394531 L 24.589844 -11.527344 C 24.589844 -10.011719 24.148438 -8.8125 23.265625 -7.929688 C 22.382812 -7.050781 21.1875 -6.609375 19.671875 -6.609375 L 15.253906 -6.609375 C 13.738281 -6.609375 12.539062 -7.050781 11.65625 -7.929688 C 10.777344 -8.8125 10.335938 -10.011719 10.335938 -11.527344 L 10.335938 -36.578125 C 10.335938 -38.09375 10.777344 -39.292969 11.65625 -40.175781 C 12.539062 -41.058594 13.738281 -41.496094 15.253906 -41.496094 L 19.671875 -41.496094 C 21.1875 -41.496094 22.382812 -41.058594 23.265625 -40.175781 C 24.148438 -39.292969 24.589844 -38.09375 24.589844 -36.578125 L 24.589844 -30.921875 C 24.589844 -30.96875 24.574219 -31.035156 24.546875 -31.121094 C 24.484375 -31.304688 24.378906 -31.46875 24.230469 -31.617188 C 24.085938 -31.765625 23.917969 -31.871094 23.734375 -31.929688 C 23.652344 -31.960938 23.585938 -31.972656 23.535156 -31.972656 L 30.023438 -31.972656 C 29.972656 -31.972656 29.90625 -31.960938 29.824219 -31.929688 C 29.640625 -31.871094 29.472656 -31.765625 29.324219 -31.617188 C 29.179688 -31.46875 29.074219 -31.304688 29.011719 -31.121094 C 28.984375 -31.035156 28.96875 -30.96875 28.96875 -30.921875 Z M 28.96875 -38.375 "/></g></g></g><g fill="#b21a22" fill-opacity="1"><g transform="translate(36.467354, 165.471095)"><g><path d="M 1.292969 -9.9375 L 1.292969 -38.375 C 1.292969 -42.242188 2.359375 -45.226562 4.488281 -47.328125 C 6.613281 -49.421875 9.578125 -50.46875 13.390625 -50.46875 L 21.121094 -50.46875 C 24.980469 -50.46875 27.964844 -49.417969 30.0625 -47.320312 C 32.164062 -45.21875 33.214844 -42.238281 33.214844 -38.375 L 33.214844 -9.9375 C 33.214844 -6.128906 32.167969 -3.160156 30.074219 -1.039062 C 27.972656 1.09375 24.988281 2.15625 21.121094 2.15625 L 13.390625 2.15625 C 9.574219 2.15625 6.601562 1.09375 4.480469 -1.027344 C 2.355469 -3.152344 1.292969 -6.121094 1.292969 -9.9375 Z M 5.609375 -9.9375 C 5.609375 -7.3125 6.25 -5.359375 7.53125 -4.078125 C 8.8125 -2.796875 10.765625 -2.15625 13.390625 -2.15625 L 21.121094 -2.15625 C 23.785156 -2.15625 25.746094 -2.792969 27.003906 -4.070312 C 28.269531 -5.351562 28.902344 -7.308594 28.902344 -9.9375 L 28.902344 -38.375 C 28.902344 -41.046875 28.273438 -43.011719 27.015625 -44.269531 C 25.753906 -45.527344 23.789062 -46.15625 21.121094 -46.15625 L 13.390625 -46.15625 C 10.757812 -46.15625 8.800781 -45.523438 7.519531 -44.257812 C 6.246094 -43 5.609375 -41.039062 5.609375 -38.375 Z M 15.183594 -11.058594 L 19.601562 -11.058594 C 19.828125 -11.058594 20.003906 -11.082031 20.125 -11.121094 C 20.148438 -11.128906 20.164062 -11.136719 20.171875 -11.140625 C 20.164062 -11.136719 20.15625 -11.128906 20.144531 -11.117188 C 20.136719 -11.109375 20.128906 -11.101562 20.125 -11.089844 C 20.128906 -11.101562 20.136719 -11.117188 20.144531 -11.136719 C 20.183594 -11.261719 20.203125 -11.4375 20.203125 -11.664062 L 20.203125 -36.648438 C 20.203125 -36.875 20.183594 -37.050781 20.144531 -37.175781 C 20.136719 -37.195312 20.128906 -37.210938 20.125 -37.222656 C 20.128906 -37.214844 20.136719 -37.203125 20.144531 -37.195312 C 20.15625 -37.183594 20.164062 -37.175781 20.171875 -37.171875 C 20.164062 -37.175781 20.148438 -37.183594 20.125 -37.191406 C 20.003906 -37.230469 19.828125 -37.253906 19.601562 -37.253906 L 15.183594 -37.253906 C 14.957031 -37.253906 14.78125 -37.230469 14.660156 -37.191406 C 14.636719 -37.183594 14.621094 -37.175781 14.613281 -37.171875 C 14.621094 -37.175781 14.628906 -37.183594 14.640625 -37.195312 C 14.648438 -37.203125 14.65625 -37.214844 14.660156 -37.222656 C 14.65625 -37.210938 14.648438 -37.195312 14.640625 -37.175781 C 14.601562 -37.050781 14.582031 -36.875 14.582031 -36.648438 L 14.582031 -11.664062 C 14.582031 -11.4375 14.601562 -11.261719 14.640625 -11.136719 C 14.648438 -11.117188 14.65625 -11.101562 14.660156 -11.089844 C 14.65625 -11.097656 14.648438 -11.109375 14.640625 -11.117188 C 14.628906 -11.128906 14.621094 -11.136719 14.613281 -11.140625 C 14.621094 -11.136719 14.636719 -11.128906 14.660156 -11.121094 C 14.78125 -11.082031 14.957031 -11.058594 15.183594 -11.058594 Z M 15.183594 -6.746094 C 13.667969 -6.746094 12.46875 -7.1875 11.589844 -8.066406 C 10.707031 -8.949219 10.265625 -10.148438 10.265625 -11.664062 L 10.265625 -36.648438 C 10.265625 -38.164062 10.707031 -39.363281 11.589844 -40.246094 C 12.46875 -41.125 13.667969 -41.566406 15.183594 -41.566406 L 19.601562 -41.566406 C 21.117188 -41.566406 22.316406 -41.125 23.195312 -40.246094 C 24.078125 -39.363281 24.519531 -38.164062 24.519531 -36.648438 L 24.519531 -11.664062 C 24.519531 -10.148438 24.078125 -8.949219 23.195312 -8.066406 C 22.316406 -7.1875 21.117188 -6.746094 19.601562 -6.746094 Z M 15.183594 -6.746094 "/></g></g></g><g fill="#b21a22" fill-opacity="1"><g transform="translate(70.975225, 165.471095)"><g><path d="M 25.328125 -50.46875 L 31.816406 -50.46875 C 32.78125 -50.46875 33.566406 -50.167969 34.171875 -49.5625 C 34.777344 -48.957031 35.078125 -48.171875 35.078125 -47.207031 L 35.078125 -1.105469 C 35.078125 -0.140625 34.777344 0.644531 34.171875 1.25 C 33.566406 1.855469 32.78125 2.15625 31.816406 2.15625 L 26.363281 2.15625 C 25.625 2.15625 24.960938 1.945312 24.378906 1.523438 C 23.863281 1.152344 23.460938 0.648438 23.164062 0.0078125 L 25.121094 -0.898438 L 23.1875 0.0546875 L 10.210938 -26.308594 L 12.148438 -27.261719 L 14.304688 -27.261719 L 14.304688 -1.105469 C 14.304688 -0.140625 14 0.644531 13.394531 1.25 C 12.792969 1.855469 12.007812 2.15625 11.042969 2.15625 L 4.554688 2.15625 C 3.589844 2.15625 2.808594 1.855469 2.203125 1.25 C 1.597656 0.644531 1.292969 -0.140625 1.292969 -1.105469 L 1.292969 -47.207031 C 1.292969 -48.171875 1.597656 -48.957031 2.203125 -49.5625 C 2.808594 -50.167969 3.589844 -50.46875 4.554688 -50.46875 L 10.007812 -50.46875 C 10.75 -50.46875 11.410156 -50.257812 11.996094 -49.835938 C 12.507812 -49.46875 12.914062 -48.960938 13.207031 -48.320312 L 11.25 -47.414062 L 13.183594 -48.367188 L 26.160156 -22.003906 L 24.226562 -21.050781 L 22.066406 -21.050781 L 22.066406 -47.207031 C 22.066406 -48.171875 22.371094 -48.957031 22.976562 -49.5625 C 23.582031 -50.167969 24.367188 -50.46875 25.328125 -50.46875 Z M 25.328125 -46.15625 C 25.378906 -46.15625 25.445312 -46.167969 25.527344 -46.199219 C 25.710938 -46.257812 25.878906 -46.363281 26.027344 -46.511719 C 26.175781 -46.660156 26.28125 -46.824219 26.339844 -47.007812 C 26.367188 -47.09375 26.382812 -47.160156 26.382812 -47.207031 L 26.382812 -21.050781 L 22.289062 -20.097656 L 9.300781 -46.488281 L 9.292969 -46.511719 C 9.3125 -46.46875 9.371094 -46.410156 9.46875 -46.339844 C 9.640625 -46.21875 9.820312 -46.15625 10.007812 -46.15625 L 4.554688 -46.15625 C 4.605469 -46.15625 4.671875 -46.167969 4.753906 -46.199219 C 4.9375 -46.257812 5.105469 -46.363281 5.253906 -46.511719 C 5.398438 -46.660156 5.503906 -46.824219 5.566406 -47.007812 C 5.59375 -47.09375 5.609375 -47.160156 5.609375 -47.207031 L 5.609375 -1.105469 C 5.609375 -1.152344 5.59375 -1.21875 5.566406 -1.304688 C 5.503906 -1.488281 5.398438 -1.652344 5.253906 -1.800781 C 5.105469 -1.949219 4.9375 -2.054688 4.753906 -2.117188 C 4.671875 -2.144531 4.605469 -2.15625 4.554688 -2.15625 L 11.042969 -2.15625 C 10.992188 -2.15625 10.925781 -2.144531 10.84375 -2.117188 C 10.660156 -2.054688 10.492188 -1.949219 10.347656 -1.800781 C 10.199219 -1.652344 10.09375 -1.488281 10.03125 -1.304688 C 10.003906 -1.21875 9.988281 -1.152344 9.988281 -1.105469 L 9.988281 -27.261719 L 14.082031 -28.214844 L 27.070312 -1.824219 L 27.082031 -1.800781 C 27.0625 -1.84375 27 -1.902344 26.902344 -1.972656 C 26.734375 -2.097656 26.554688 -2.15625 26.363281 -2.15625 L 31.816406 -2.15625 C 31.769531 -2.15625 31.703125 -2.144531 31.617188 -2.117188 C 31.433594 -2.054688 31.269531 -1.949219 31.121094 -1.800781 C 30.972656 -1.652344 30.867188 -1.488281 30.804688 -1.304688 C 30.777344 -1.21875 30.765625 -1.152344 30.765625 -1.105469 L 30.765625 -47.207031 C 30.765625 -47.160156 30.777344 -47.09375 30.804688 -47.007812 C 30.867188 -46.824219 30.972656 -46.660156 31.121094 -46.511719 C 31.269531 -46.363281 31.433594 -46.257812 31.617188 -46.199219 C 31.703125 -46.167969 31.769531 -46.15625 31.816406 -46.15625 Z M 25.328125 -46.15625 "/></g></g></g><g fill="#b21a22" fill-opacity="1"><g transform="translate(107.346531, 165.471095)"><g><path d="M 26.433594 -50.46875 L 32.714844 -50.46875 C 33.925781 -50.46875 34.851562 -50.078125 35.488281 -49.300781 C 36.140625 -48.503906 36.332031 -47.507812 36.058594 -46.316406 L 25.082031 -0.738281 C 24.886719 0.136719 24.46875 0.835938 23.832031 1.359375 C 23.179688 1.890625 22.390625 2.15625 21.464844 2.15625 L 14.5625 2.15625 C 13.660156 2.15625 12.882812 1.890625 12.230469 1.359375 C 11.625 0.863281 11.203125 0.1875 10.964844 -0.664062 L 10.957031 -0.703125 L 0.0429688 -46.292969 C -0.234375 -47.5 -0.0429688 -48.503906 0.609375 -49.300781 C 1.246094 -50.078125 2.171875 -50.46875 3.382812 -50.46875 L 9.664062 -50.46875 C 10.589844 -50.46875 11.378906 -50.203125 12.027344 -49.671875 C 12.667969 -49.148438 13.085938 -48.4375 13.285156 -47.539062 L 20.121094 -16.335938 L 18.015625 -15.875 L 15.90625 -16.339844 L 22.820312 -47.59375 L 22.835938 -47.648438 C 23.074219 -48.5 23.496094 -49.175781 24.101562 -49.671875 C 24.753906 -50.203125 25.53125 -50.46875 26.433594 -50.46875 Z M 26.433594 -46.15625 C 26.554688 -46.15625 26.691406 -46.214844 26.832031 -46.332031 C 26.902344 -46.390625 26.957031 -46.449219 26.996094 -46.515625 C 27.003906 -46.527344 27.007812 -46.535156 27.007812 -46.539062 C 27.003906 -46.527344 27 -46.511719 26.992188 -46.492188 L 24.914062 -47.070312 L 27.023438 -46.605469 L 20.121094 -15.410156 L 15.90625 -15.414062 L 9.074219 -46.601562 C 9.074219 -46.613281 9.070312 -46.621094 9.070312 -46.621094 C 9.078125 -46.605469 9.085938 -46.585938 9.097656 -46.566406 C 9.144531 -46.480469 9.210938 -46.402344 9.296875 -46.332031 C 9.441406 -46.214844 9.5625 -46.15625 9.664062 -46.15625 L 3.382812 -46.15625 C 3.351562 -46.15625 3.328125 -46.15625 3.316406 -46.152344 C 3.339844 -46.15625 3.371094 -46.164062 3.410156 -46.179688 C 3.613281 -46.246094 3.792969 -46.378906 3.945312 -46.566406 C 4.109375 -46.765625 4.203125 -46.972656 4.230469 -47.199219 C 4.234375 -47.246094 4.238281 -47.285156 4.234375 -47.316406 C 4.234375 -47.3125 4.234375 -47.304688 4.238281 -47.296875 L 15.140625 -1.746094 L 13.042969 -1.242188 L 15.121094 -1.820312 C 15.128906 -1.800781 15.132812 -1.785156 15.136719 -1.773438 C 15.136719 -1.777344 15.132812 -1.789062 15.125 -1.796875 C 15.085938 -1.863281 15.03125 -1.921875 14.960938 -1.980469 C 14.816406 -2.097656 14.683594 -2.15625 14.5625 -2.15625 L 21.464844 -2.15625 C 21.367188 -2.15625 21.242188 -2.097656 21.097656 -1.980469 C 21.011719 -1.910156 20.945312 -1.832031 20.898438 -1.746094 C 20.886719 -1.726562 20.878906 -1.707031 20.871094 -1.691406 C 20.875 -1.691406 20.878906 -1.710938 20.886719 -1.746094 L 31.851562 -47.273438 C 31.859375 -47.296875 31.863281 -47.3125 31.863281 -47.316406 C 31.859375 -47.285156 31.863281 -47.246094 31.867188 -47.199219 C 31.894531 -46.972656 31.988281 -46.765625 32.148438 -46.566406 C 32.304688 -46.378906 32.484375 -46.246094 32.6875 -46.179688 C 32.722656 -46.164062 32.753906 -46.15625 32.78125 -46.152344 C 32.769531 -46.15625 32.746094 -46.15625 32.714844 -46.15625 Z M 26.433594 -46.15625 "/></g></g></g><g fill="#b21a22" fill-opacity="1"><g transform="translate(143.441768, 165.471095)"><g><path d="M 33.144531 -47.207031 L 33.144531 -40.308594 C 33.144531 -39.34375 32.859375 -38.558594 32.285156 -37.949219 C 31.675781 -37.300781 30.875 -36.976562 29.886719 -36.976562 L 12.835938 -36.976562 L 12.835938 -39.132812 L 14.996094 -39.132812 L 14.996094 -28.503906 L 12.835938 -28.503906 L 12.835938 -30.660156 L 25.8125 -30.660156 C 26.800781 -30.660156 27.601562 -30.335938 28.210938 -29.691406 C 28.785156 -29.078125 29.074219 -28.292969 29.074219 -27.332031 L 29.074219 -20.5 C 29.074219 -19.535156 28.785156 -18.75 28.210938 -18.140625 C 27.601562 -17.492188 26.800781 -17.167969 25.8125 -17.167969 L 12.835938 -17.167969 L 12.835938 -19.324219 L 14.996094 -19.324219 L 14.996094 -9.109375 L 12.835938 -9.109375 L 12.835938 -11.265625 L 29.886719 -11.265625 C 30.847656 -11.265625 31.632812 -10.964844 32.238281 -10.359375 C 32.84375 -9.753906 33.144531 -8.96875 33.144531 -8.007812 L 33.144531 -1.105469 C 33.144531 -0.140625 32.84375 0.644531 32.238281 1.25 C 31.632812 1.855469 30.847656 2.15625 29.886719 2.15625 L 4.484375 2.15625 C 3.519531 2.15625 2.734375 1.835938 2.136719 1.199219 C 1.574219 0.601562 1.292969 -0.167969 1.292969 -1.105469 L 1.292969 -47.207031 C 1.292969 -48.144531 1.574219 -48.914062 2.136719 -49.511719 C 2.734375 -50.152344 3.519531 -50.46875 4.484375 -50.46875 L 29.886719 -50.46875 C 30.847656 -50.46875 31.632812 -50.167969 32.238281 -49.5625 C 32.84375 -48.957031 33.144531 -48.171875 33.144531 -47.207031 Z M 28.832031 -47.207031 C 28.832031 -47.160156 28.847656 -47.09375 28.875 -47.007812 C 28.933594 -46.824219 29.039062 -46.660156 29.1875 -46.511719 C 29.335938 -46.363281 29.5 -46.257812 29.6875 -46.199219 C 29.769531 -46.167969 29.835938 -46.15625 29.886719 -46.15625 L 4.484375 -46.15625 C 4.765625 -46.15625 5.03125 -46.289062 5.285156 -46.5625 C 5.421875 -46.710938 5.519531 -46.871094 5.574219 -47.046875 C 5.597656 -47.121094 5.609375 -47.171875 5.609375 -47.207031 L 5.609375 -1.105469 C 5.609375 -1.140625 5.597656 -1.191406 5.574219 -1.265625 C 5.519531 -1.441406 5.421875 -1.601562 5.285156 -1.75 C 5.03125 -2.023438 4.765625 -2.15625 4.484375 -2.15625 L 29.886719 -2.15625 C 29.835938 -2.15625 29.769531 -2.144531 29.6875 -2.117188 C 29.5 -2.054688 29.335938 -1.949219 29.1875 -1.800781 C 29.039062 -1.652344 28.933594 -1.488281 28.875 -1.304688 C 28.847656 -1.21875 28.832031 -1.152344 28.832031 -1.105469 L 28.832031 -8.007812 C 28.832031 -7.957031 28.847656 -7.890625 28.875 -7.808594 C 28.933594 -7.625 29.039062 -7.457031 29.1875 -7.308594 C 29.335938 -7.160156 29.5 -7.054688 29.6875 -6.996094 C 29.769531 -6.96875 29.835938 -6.953125 29.886719 -6.953125 L 10.679688 -6.953125 L 10.679688 -21.480469 L 25.8125 -21.480469 C 25.75 -21.480469 25.671875 -21.464844 25.574219 -21.433594 C 25.386719 -21.363281 25.21875 -21.253906 25.070312 -21.097656 C 24.9375 -20.953125 24.84375 -20.800781 24.789062 -20.628906 C 24.769531 -20.566406 24.761719 -20.523438 24.761719 -20.5 L 24.761719 -27.332031 C 24.761719 -27.304688 24.769531 -27.261719 24.789062 -27.199219 C 24.84375 -27.03125 24.9375 -26.875 25.070312 -26.734375 C 25.21875 -26.578125 25.386719 -26.464844 25.574219 -26.398438 C 25.671875 -26.363281 25.75 -26.347656 25.8125 -26.347656 L 10.679688 -26.347656 L 10.679688 -41.289062 L 29.886719 -41.289062 C 29.820312 -41.289062 29.742188 -41.273438 29.648438 -41.238281 C 29.457031 -41.171875 29.289062 -41.0625 29.140625 -40.90625 C 29.007812 -40.761719 28.914062 -40.605469 28.863281 -40.4375 C 28.84375 -40.375 28.832031 -40.332031 28.832031 -40.308594 Z M 28.832031 -47.207031 "/></g></g></g><g fill="#b21a22" fill-opacity="1"><g transform="translate(177.880632, 165.471095)"><g><path d="M 33.214844 -38.375 L 33.214844 -24.5 C 33.214844 -19.703125 31.589844 -16.285156 28.335938 -14.253906 L 27.191406 -16.082031 L 29.289062 -16.589844 L 32.878906 -1.75 L 30.78125 -1.242188 L 32.859375 -1.820312 C 33.167969 -0.707031 33.019531 0.234375 32.414062 1.015625 C 31.824219 1.777344 30.957031 2.15625 29.816406 2.15625 L 23.050781 2.15625 C 22.214844 2.15625 21.5 1.914062 20.90625 1.421875 C 20.320312 0.945312 19.945312 0.296875 19.769531 -0.515625 L 21.878906 -0.964844 L 19.78125 -0.457031 L 16.46875 -14.050781 L 18.566406 -14.5625 L 18.566406 -12.40625 L 12.421875 -12.40625 L 12.421875 -14.5625 L 14.582031 -14.5625 L 14.582031 -1.105469 C 14.582031 -0.140625 14.277344 0.644531 13.671875 1.25 C 13.066406 1.855469 12.28125 2.15625 11.320312 2.15625 L 4.554688 2.15625 C 3.589844 2.15625 2.808594 1.855469 2.203125 1.25 C 1.597656 0.644531 1.292969 -0.140625 1.292969 -1.105469 L 1.292969 -47.207031 C 1.292969 -48.171875 1.597656 -48.957031 2.203125 -49.5625 C 2.808594 -50.167969 3.589844 -50.46875 4.554688 -50.46875 L 21.121094 -50.46875 C 24.980469 -50.46875 27.964844 -49.417969 30.0625 -47.320312 C 32.164062 -45.21875 33.214844 -42.238281 33.214844 -38.375 Z M 28.902344 -38.375 C 28.902344 -41.046875 28.273438 -43.011719 27.015625 -44.269531 C 25.753906 -45.527344 23.789062 -46.15625 21.121094 -46.15625 L 4.554688 -46.15625 C 4.605469 -46.15625 4.671875 -46.167969 4.753906 -46.199219 C 4.9375 -46.257812 5.105469 -46.363281 5.253906 -46.511719 C 5.398438 -46.660156 5.503906 -46.824219 5.566406 -47.007812 C 5.59375 -47.09375 5.609375 -47.160156 5.609375 -47.207031 L 5.609375 -1.105469 C 5.609375 -1.152344 5.59375 -1.21875 5.566406 -1.304688 C 5.503906 -1.488281 5.398438 -1.652344 5.253906 -1.800781 C 5.105469 -1.949219 4.9375 -2.054688 4.753906 -2.117188 C 4.671875 -2.144531 4.605469 -2.15625 4.554688 -2.15625 L 11.320312 -2.15625 C 11.269531 -2.15625 11.203125 -2.144531 11.121094 -2.117188 C 10.9375 -2.054688 10.769531 -1.949219 10.621094 -1.800781 C 10.472656 -1.652344 10.371094 -1.488281 10.308594 -1.304688 C 10.28125 -1.21875 10.265625 -1.152344 10.265625 -1.105469 L 10.265625 -16.71875 L 20.261719 -16.71875 L 23.980469 -1.449219 L 23.988281 -1.417969 C 23.953125 -1.585938 23.839844 -1.75 23.648438 -1.90625 C 23.445312 -2.074219 23.246094 -2.15625 23.050781 -2.15625 L 29.816406 -2.15625 C 29.769531 -2.148438 29.71875 -2.136719 29.664062 -2.117188 C 29.410156 -2.027344 29.191406 -1.867188 29.011719 -1.636719 C 28.824219 -1.394531 28.71875 -1.136719 28.699219 -0.859375 C 28.691406 -0.761719 28.695312 -0.699219 28.703125 -0.664062 L 28.695312 -0.699219 L 24.730469 -17.085938 L 26.050781 -17.910156 C 27.949219 -19.097656 28.902344 -21.296875 28.902344 -24.5 Z M 12.421875 -25.625 L 19.324219 -25.625 C 19.550781 -25.625 19.726562 -25.644531 19.851562 -25.683594 C 19.875 -25.691406 19.890625 -25.699219 19.898438 -25.703125 C 19.890625 -25.699219 19.878906 -25.691406 19.871094 -25.683594 C 19.859375 -25.671875 19.851562 -25.664062 19.847656 -25.65625 C 19.851562 -25.664062 19.859375 -25.679688 19.867188 -25.703125 C 19.90625 -25.824219 19.929688 -26 19.929688 -26.226562 L 19.929688 -36.648438 C 19.929688 -36.875 19.90625 -37.050781 19.867188 -37.175781 C 19.859375 -37.195312 19.851562 -37.210938 19.847656 -37.222656 C 19.851562 -37.214844 19.859375 -37.203125 19.871094 -37.195312 C 19.878906 -37.183594 19.890625 -37.175781 19.898438 -37.171875 C 19.890625 -37.175781 19.875 -37.183594 19.851562 -37.191406 C 19.726562 -37.230469 19.550781 -37.253906 19.324219 -37.253906 L 12.421875 -37.253906 L 12.421875 -39.410156 L 14.582031 -39.410156 L 14.582031 -23.464844 L 12.421875 -23.464844 Z M 10.265625 -21.308594 L 10.265625 -41.566406 L 19.324219 -41.566406 C 20.839844 -41.566406 22.039062 -41.125 22.921875 -40.246094 C 23.800781 -39.363281 24.242188 -38.164062 24.242188 -36.648438 L 24.242188 -26.226562 C 24.242188 -24.710938 23.800781 -23.511719 22.921875 -22.632812 C 22.039062 -21.75 20.839844 -21.308594 19.324219 -21.308594 Z M 10.265625 -21.308594 "/></g></g></g><g fill="#b21a22" fill-opacity="1"><g transform="translate(212.388503, 165.471095)"><g><path d="M 28.574219 -46.15625 L 3.175781 -46.15625 C 3.222656 -46.15625 3.289062 -46.167969 3.375 -46.199219 C 3.558594 -46.257812 3.722656 -46.363281 3.871094 -46.511719 C 4.019531 -46.660156 4.125 -46.824219 4.1875 -47.007812 C 4.214844 -47.09375 4.226562 -47.160156 4.226562 -47.207031 L 4.226562 -40.308594 C 4.226562 -40.355469 4.214844 -40.421875 4.1875 -40.503906 C 4.125 -40.691406 4.019531 -40.855469 3.871094 -41.003906 C 3.722656 -41.152344 3.558594 -41.257812 3.375 -41.316406 C 3.289062 -41.34375 3.222656 -41.359375 3.175781 -41.359375 L 13.339844 -41.359375 L 13.339844 -1.105469 C 13.339844 -1.152344 13.324219 -1.21875 13.296875 -1.304688 C 13.234375 -1.488281 13.128906 -1.652344 12.980469 -1.800781 C 12.835938 -1.949219 12.667969 -2.054688 12.484375 -2.117188 C 12.402344 -2.144531 12.335938 -2.15625 12.285156 -2.15625 L 19.464844 -2.15625 C 19.414062 -2.15625 19.347656 -2.144531 19.265625 -2.117188 C 19.082031 -2.054688 18.914062 -1.949219 18.765625 -1.800781 C 18.617188 -1.652344 18.511719 -1.488281 18.453125 -1.304688 C 18.425781 -1.21875 18.410156 -1.152344 18.410156 -1.105469 L 18.410156 -41.359375 L 28.574219 -41.359375 C 28.523438 -41.359375 28.457031 -41.34375 28.375 -41.316406 C 28.191406 -41.257812 28.023438 -41.152344 27.875 -41.003906 C 27.726562 -40.855469 27.625 -40.691406 27.5625 -40.503906 C 27.535156 -40.421875 27.519531 -40.355469 27.519531 -40.308594 L 27.519531 -47.207031 C 27.519531 -47.160156 27.535156 -47.09375 27.5625 -47.007812 C 27.625 -46.824219 27.726562 -46.660156 27.875 -46.511719 C 28.023438 -46.363281 28.191406 -46.257812 28.375 -46.199219 C 28.457031 -46.167969 28.523438 -46.15625 28.574219 -46.15625 Z M 28.574219 -50.46875 C 29.539062 -50.46875 30.320312 -50.167969 30.925781 -49.5625 C 31.53125 -48.957031 31.835938 -48.171875 31.835938 -47.207031 L 31.835938 -40.308594 C 31.835938 -39.34375 31.53125 -38.558594 30.925781 -37.953125 C 30.320312 -37.347656 29.539062 -37.046875 28.574219 -37.046875 L 20.566406 -37.046875 L 20.566406 -39.203125 L 22.722656 -39.203125 L 22.722656 -1.105469 C 22.722656 -0.140625 22.421875 0.644531 21.816406 1.25 C 21.210938 1.855469 20.425781 2.15625 19.464844 2.15625 L 12.285156 2.15625 C 11.320312 2.15625 10.535156 1.855469 9.933594 1.25 C 9.328125 0.644531 9.023438 -0.140625 9.023438 -1.105469 L 9.023438 -39.203125 L 11.179688 -39.203125 L 11.179688 -37.046875 L 3.175781 -37.046875 C 2.210938 -37.046875 1.425781 -37.347656 0.820312 -37.953125 C 0.214844 -38.558594 -0.0859375 -39.34375 -0.0859375 -40.308594 L -0.0859375 -47.207031 C -0.0859375 -48.171875 0.214844 -48.957031 0.820312 -49.5625 C 1.425781 -50.167969 2.210938 -50.46875 3.175781 -50.46875 Z M 28.574219 -50.46875 "/></g></g></g><g fill="#b21a22" fill-opacity="1"><g transform="translate(244.135752, 165.471095)"><g><path d="M 33.144531 -47.207031 L 33.144531 -40.308594 C 33.144531 -39.34375 32.859375 -38.558594 32.285156 -37.949219 C 31.675781 -37.300781 30.875 -36.976562 29.886719 -36.976562 L 12.835938 -36.976562 L 12.835938 -39.132812 L 14.996094 -39.132812 L 14.996094 -28.503906 L 12.835938 -28.503906 L 12.835938 -30.660156 L 25.8125 -30.660156 C 26.800781 -30.660156 27.601562 -30.335938 28.210938 -29.691406 C 28.785156 -29.078125 29.074219 -28.292969 29.074219 -27.332031 L 29.074219 -20.5 C 29.074219 -19.535156 28.785156 -18.75 28.210938 -18.140625 C 27.601562 -17.492188 26.800781 -17.167969 25.8125 -17.167969 L 12.835938 -17.167969 L 12.835938 -19.324219 L 14.996094 -19.324219 L 14.996094 -9.109375 L 12.835938 -9.109375 L 12.835938 -11.265625 L 29.886719 -11.265625 C 30.847656 -11.265625 31.632812 -10.964844 32.238281 -10.359375 C 32.84375 -9.753906 33.144531 -8.96875 33.144531 -8.007812 L 33.144531 -1.105469 C 33.144531 -0.140625 32.84375 0.644531 32.238281 1.25 C 31.632812 1.855469 30.847656 2.15625 29.886719 2.15625 L 4.484375 2.15625 C 3.519531 2.15625 2.734375 1.835938 2.136719 1.199219 C 1.574219 0.601562 1.292969 -0.167969 1.292969 -1.105469 L 1.292969 -47.207031 C 1.292969 -48.144531 1.574219 -48.914062 2.136719 -49.511719 C 2.734375 -50.152344 3.519531 -50.46875 4.484375 -50.46875 L 29.886719 -50.46875 C 30.847656 -50.46875 31.632812 -50.167969 32.238281 -49.5625 C 32.84375 -48.957031 33.144531 -48.171875 33.144531 -47.207031 Z M 28.832031 -47.207031 C 28.832031 -47.160156 28.847656 -47.09375 28.875 -47.007812 C 28.933594 -46.824219 29.039062 -46.660156 29.1875 -46.511719 C 29.335938 -46.363281 29.5 -46.257812 29.6875 -46.199219 C 29.769531 -46.167969 29.835938 -46.15625 29.886719 -46.15625 L 4.484375 -46.15625 C 4.765625 -46.15625 5.03125 -46.289062 5.285156 -46.5625 C 5.421875 -46.710938 5.519531 -46.871094 5.574219 -47.046875 C 5.597656 -47.121094 5.609375 -47.171875 5.609375 -47.207031 L 5.609375 -1.105469 C 5.609375 -1.140625 5.597656 -1.191406 5.574219 -1.265625 C 5.519531 -1.441406 5.421875 -1.601562 5.285156 -1.75 C 5.03125 -2.023438 4.765625 -2.15625 4.484375 -2.15625 L 29.886719 -2.15625 C 29.835938 -2.15625 29.769531 -2.144531 29.6875 -2.117188 C 29.5 -2.054688 29.335938 -1.949219 29.1875 -1.800781 C 29.039062 -1.652344 28.933594 -1.488281 28.875 -1.304688 C 28.847656 -1.21875 28.832031 -1.152344 28.832031 -1.105469 L 28.832031 -8.007812 C 28.832031 -7.957031 28.847656 -7.890625 28.875 -7.808594 C 28.933594 -7.625 29.039062 -7.457031 29.1875 -7.308594 C 29.335938 -7.160156 29.5 -7.054688 29.6875 -6.996094 C 29.769531 -6.96875 29.835938 -6.953125 29.886719 -6.953125 L 10.679688 -6.953125 L 10.679688 -21.480469 L 25.8125 -21.480469 C 25.75 -21.480469 25.671875 -21.464844 25.574219 -21.433594 C 25.386719 -21.363281 25.21875 -21.253906 25.070312 -21.097656 C 24.9375 -20.953125 24.84375 -20.800781 24.789062 -20.628906 C 24.769531 -20.566406 24.761719 -20.523438 24.761719 -20.5 L 24.761719 -27.332031 C 24.761719 -27.304688 24.769531 -27.261719 24.789062 -27.199219 C 24.84375 -27.03125 24.9375 -26.875 25.070312 -26.734375 C 25.21875 -26.578125 25.386719 -26.464844 25.574219 -26.398438 C 25.671875 -26.363281 25.75 -26.347656 25.8125 -26.347656 L 10.679688 -26.347656 L 10.679688 -41.289062 L 29.886719 -41.289062 C 29.820312 -41.289062 29.742188 -41.273438 29.648438 -41.238281 C 29.457031 -41.171875 29.289062 -41.0625 29.140625 -40.90625 C 29.007812 -40.761719 28.914062 -40.605469 28.863281 -40.4375 C 28.84375 -40.375 28.832031 -40.332031 28.832031 -40.308594 Z M 28.832031 -47.207031 "/></g></g></g><g fill="#b21a22" fill-opacity="1"><g transform="translate(278.574616, 165.471095)"><g><path d="M 33.214844 -38.375 L 33.214844 -24.5 C 33.214844 -19.703125 31.589844 -16.285156 28.335938 -14.253906 L 27.191406 -16.082031 L 29.289062 -16.589844 L 32.878906 -1.75 L 30.78125 -1.242188 L 32.859375 -1.820312 C 33.167969 -0.707031 33.019531 0.234375 32.414062 1.015625 C 31.824219 1.777344 30.957031 2.15625 29.816406 2.15625 L 23.050781 2.15625 C 22.214844 2.15625 21.5 1.914062 20.90625 1.421875 C 20.320312 0.945312 19.945312 0.296875 19.769531 -0.515625 L 21.878906 -0.964844 L 19.78125 -0.457031 L 16.46875 -14.050781 L 18.566406 -14.5625 L 18.566406 -12.40625 L 12.421875 -12.40625 L 12.421875 -14.5625 L 14.582031 -14.5625 L 14.582031 -1.105469 C 14.582031 -0.140625 14.277344 0.644531 13.671875 1.25 C 13.066406 1.855469 12.28125 2.15625 11.320312 2.15625 L 4.554688 2.15625 C 3.589844 2.15625 2.808594 1.855469 2.203125 1.25 C 1.597656 0.644531 1.292969 -0.140625 1.292969 -1.105469 L 1.292969 -47.207031 C 1.292969 -48.171875 1.597656 -48.957031 2.203125 -49.5625 C 2.808594 -50.167969 3.589844 -50.46875 4.554688 -50.46875 L 21.121094 -50.46875 C 24.980469 -50.46875 27.964844 -49.417969 30.0625 -47.320312 C 32.164062 -45.21875 33.214844 -42.238281 33.214844 -38.375 Z M 28.902344 -38.375 C 28.902344 -41.046875 28.273438 -43.011719 27.015625 -44.269531 C 25.753906 -45.527344 23.789062 -46.15625 21.121094 -46.15625 L 4.554688 -46.15625 C 4.605469 -46.15625 4.671875 -46.167969 4.753906 -46.199219 C 4.9375 -46.257812 5.105469 -46.363281 5.253906 -46.511719 C 5.398438 -46.660156 5.503906 -46.824219 5.566406 -47.007812 C 5.59375 -47.09375 5.609375 -47.160156 5.609375 -47.207031 L 5.609375 -1.105469 C 5.609375 -1.152344 5.59375 -1.21875 5.566406 -1.304688 C 5.503906 -1.488281 5.398438 -1.652344 5.253906 -1.800781 C 5.105469 -1.949219 4.9375 -2.054688 4.753906 -2.117188 C 4.671875 -2.144531 4.605469 -2.15625 4.554688 -2.15625 L 11.320312 -2.15625 C 11.269531 -2.15625 11.203125 -2.144531 11.121094 -2.117188 C 10.9375 -2.054688 10.769531 -1.949219 10.621094 -1.800781 C 10.472656 -1.652344 10.371094 -1.488281 10.308594 -1.304688 C 10.28125 -1.21875 10.265625 -1.152344 10.265625 -1.105469 L 10.265625 -16.71875 L 20.261719 -16.71875 L 23.980469 -1.449219 L 23.988281 -1.417969 C 23.953125 -1.585938 23.839844 -1.75 23.648438 -1.90625 C 23.445312 -2.074219 23.246094 -2.15625 23.050781 -2.15625 L 29.816406 -2.15625 C 29.769531 -2.148438 29.71875 -2.136719 29.664062 -2.117188 C 29.410156 -2.027344 29.191406 -1.867188 29.011719 -1.636719 C 28.824219 -1.394531 28.71875 -1.136719 28.699219 -0.859375 C 28.691406 -0.761719 28.695312 -0.699219 28.703125 -0.664062 L 28.695312 -0.699219 L 24.730469 -17.085938 L 26.050781 -17.910156 C 27.949219 -19.097656 28.902344 -21.296875 28.902344 -24.5 Z M 12.421875 -25.625 L 19.324219 -25.625 C 19.550781 -25.625 19.726562 -25.644531 19.851562 -25.683594 C 19.875 -25.691406 19.890625 -25.699219 19.898438 -25.703125 C 19.890625 -25.699219 19.878906 -25.691406 19.871094 -25.683594 C 19.859375 -25.671875 19.851562 -25.664062 19.847656 -25.65625 C 19.851562 -25.664062 19.859375 -25.679688 19.867188 -25.703125 C 19.90625 -25.824219 19.929688 -26 19.929688 -26.226562 L 19.929688 -36.648438 C 19.929688 -36.875 19.90625 -37.050781 19.867188 -37.175781 C 19.859375 -37.195312 19.851562 -37.210938 19.847656 -37.222656 C 19.851562 -37.214844 19.859375 -37.203125 19.871094 -37.195312 C 19.878906 -37.183594 19.890625 -37.175781 19.898438 -37.171875 C 19.890625 -37.175781 19.875 -37.183594 19.851562 -37.191406 C 19.726562 -37.230469 19.550781 -37.253906 19.324219 -37.253906 L 12.421875 -37.253906 L 12.421875 -39.410156 L 14.582031 -39.410156 L 14.582031 -23.464844 L 12.421875 -23.464844 Z M 10.265625 -21.308594 L 10.265625 -41.566406 L 19.324219 -41.566406 C 20.839844 -41.566406 22.039062 -41.125 22.921875 -40.246094 C 23.800781 -39.363281 24.242188 -38.164062 24.242188 -36.648438 L 24.242188 -26.226562 C 24.242188 -24.710938 23.800781 -23.511719 22.921875 -22.632812 C 22.039062 -21.75 20.839844 -21.308594 19.324219 -21.308594 Z M 10.265625 -21.308594 "/></g></g></g><g fill="#060705" fill-opacity="1"><g transform="translate(70.832141, 69.572879)"><g><path d="M 27.46875 -48.3125 L 34.375 -48.3125 C 34.875 -48.3125 35.238281 -48.160156 35.46875 -47.859375 C 35.695312 -47.554688 35.695312 -47.175781 35.46875 -46.71875 L 22.84375 -18.078125 L 22.84375 -1.375 C 22.84375 -0.457031 22.382812 0 21.46875 0 L 14.84375 0 C 13.914062 0 13.453125 -0.457031 13.453125 -1.375 L 13.453125 -18.078125 L 0.828125 -46.71875 C 0.640625 -47.175781 0.648438 -47.554688 0.859375 -47.859375 C 1.066406 -48.160156 1.425781 -48.3125 1.9375 -48.3125 L 8.828125 -48.3125 C 9.609375 -48.3125 10.140625 -47.941406 10.421875 -47.203125 L 18.15625 -29.46875 L 25.875 -47.203125 C 26.15625 -47.941406 26.6875 -48.3125 27.46875 -48.3125 Z M 27.46875 -48.3125 "/></g></g></g><g fill="#060705" fill-opacity="1"><g transform="translate(107.134426, 69.572879)"><g><path d="M 36.03125 0 L 29.328125 0 C 28.734375 0 28.367188 -0.320312 28.234375 -0.96875 L 26.015625 -9.65625 L 13.046875 -9.65625 L 10.90625 -0.96875 C 10.769531 -0.320312 10.398438 0 9.796875 0 L 3.03125 0 C 2.207031 0 1.910156 -0.390625 2.140625 -1.171875 L 13.59375 -47.34375 C 13.726562 -47.988281 14.117188 -48.3125 14.765625 -48.3125 L 24.359375 -48.3125 C 25.003906 -48.3125 25.394531 -47.988281 25.53125 -47.34375 L 37 -1.171875 C 37.226562 -0.390625 36.90625 0 36.03125 0 Z M 23.875 -17.671875 L 19.53125 -36.4375 L 15.1875 -17.671875 Z M 23.875 -17.671875 "/></g></g></g><g fill="#060705" fill-opacity="1"><g transform="translate(146.266353, 69.572879)"><g><path d="M 32.296875 -48.3125 L 41.40625 -48.3125 C 42.332031 -48.3125 42.796875 -47.851562 42.796875 -46.9375 L 42.796875 -1.375 C 42.796875 -0.457031 42.332031 0 41.40625 0 L 34.984375 0 C 34.066406 0 33.609375 -0.457031 33.609375 -1.375 L 33.609375 -28.5 L 33.125 -28.5 L 26.640625 -1.171875 C 26.410156 -0.390625 25.90625 0 25.125 0 L 21.046875 0 C 20.265625 0 19.757812 -0.390625 19.53125 -1.171875 L 13.046875 -28.5 L 12.5625 -28.5 L 12.5625 -1.375 C 12.5625 -0.457031 12.101562 0 11.1875 0 L 4.828125 0 C 3.910156 0 3.453125 -0.457031 3.453125 -1.375 L 3.453125 -46.9375 C 3.453125 -47.851562 3.910156 -48.3125 4.828125 -48.3125 L 13.9375 -48.3125 C 14.71875 -48.3125 15.222656 -47.921875 15.453125 -47.140625 L 23.125 -16.359375 L 30.78125 -47.140625 C 31.007812 -47.921875 31.515625 -48.3125 32.296875 -48.3125 Z M 32.296875 -48.3125 "/></g></g></g><g fill="#060705" fill-opacity="1"><g transform="translate(192.506902, 69.572879)"><g><path d="M 12.84375 -9.109375 L 12.84375 -47.203125 C 12.84375 -47.941406 12.472656 -48.3125 11.734375 -48.3125 L 4.5625 -48.3125 C 3.820312 -48.3125 3.453125 -47.941406 3.453125 -47.203125 L 3.453125 -1.109375 C 3.453125 -0.367188 3.820312 0 4.5625 0 L 26.5 0 C 27.238281 0 27.609375 -0.367188 27.609375 -1.109375 L 27.609375 -8 C 27.609375 -8.738281 27.238281 -9.109375 26.5 -9.109375 Z M 12.84375 -9.109375 "/></g></g></g><g fill="#060705" fill-opacity="1"><g transform="translate(223.563986, 69.572879)"><g><path d="M 3.453125 -21.671875 L 3.453125 -28.015625 C 3.453125 -28.941406 3.910156 -29.40625 4.828125 -29.40625 L 15.734375 -29.40625 C 16.648438 -29.40625 17.109375 -28.941406 17.109375 -28.015625 L 17.109375 -21.671875 C 17.109375 -20.753906 16.648438 -20.296875 15.734375 -20.296875 L 4.828125 -20.296875 C 3.910156 -20.296875 3.453125 -20.753906 3.453125 -21.671875 Z M 3.453125 -21.671875 "/></g></g></g><g fill="#060705" fill-opacity="1"><g transform="translate(1.890462, 165.471095)"><g><path d="M 31.125 -38.375 L 31.125 -30.921875 C 31.125 -30.179688 30.753906 -29.8125 30.015625 -29.8125 L 23.53125 -29.8125 C 22.800781 -29.8125 22.4375 -30.179688 22.4375 -30.921875 L 22.4375 -36.578125 C 22.4375 -38.421875 21.515625 -39.34375 19.671875 -39.34375 L 15.25 -39.34375 C 13.40625 -39.34375 12.484375 -38.421875 12.484375 -36.578125 L 12.484375 -11.53125 C 12.484375 -9.6875 13.40625 -8.765625 15.25 -8.765625 L 19.671875 -8.765625 C 21.515625 -8.765625 22.4375 -9.6875 22.4375 -11.53125 L 22.4375 -17.390625 C 22.4375 -18.128906 22.800781 -18.5 23.53125 -18.5 L 30.015625 -18.5 C 30.753906 -18.5 31.125 -18.128906 31.125 -17.390625 L 31.125 -9.9375 C 31.125 -6.71875 30.269531 -4.253906 28.5625 -2.546875 C 26.863281 -0.847656 24.40625 0 21.1875 0 L 13.453125 0 C 10.234375 0 7.757812 -0.847656 6.03125 -2.546875 C 4.3125 -4.253906 3.453125 -6.71875 3.453125 -9.9375 L 3.453125 -38.375 C 3.453125 -41.632812 4.3125 -44.101562 6.03125 -45.78125 C 7.757812 -47.46875 10.234375 -48.3125 13.453125 -48.3125 L 21.1875 -48.3125 C 24.40625 -48.3125 26.863281 -47.46875 28.5625 -45.78125 C 30.269531 -44.101562 31.125 -41.632812 31.125 -38.375 Z M 31.125 -38.375 "/></g></g></g><g fill="#060705" fill-opacity="1"><g transform="translate(36.467354, 165.471095)"><g><path d="M 3.453125 -9.9375 L 3.453125 -38.375 C 3.453125 -41.632812 4.300781 -44.101562 6 -45.78125 C 7.707031 -47.46875 10.171875 -48.3125 13.390625 -48.3125 L 21.125 -48.3125 C 24.382812 -48.3125 26.851562 -47.46875 28.53125 -45.78125 C 30.21875 -44.101562 31.0625 -41.632812 31.0625 -38.375 L 31.0625 -9.9375 C 31.0625 -6.71875 30.21875 -4.253906 28.53125 -2.546875 C 26.851562 -0.847656 24.382812 0 21.125 0 L 13.390625 0 C 10.171875 0 7.707031 -0.847656 6 -2.546875 C 4.300781 -4.253906 3.453125 -6.71875 3.453125 -9.9375 Z M 15.1875 -8.90625 L 19.59375 -8.90625 C 21.4375 -8.90625 22.359375 -9.820312 22.359375 -11.65625 L 22.359375 -36.640625 C 22.359375 -38.484375 21.4375 -39.40625 19.59375 -39.40625 L 15.1875 -39.40625 C 13.34375 -39.40625 12.421875 -38.484375 12.421875 -36.640625 L 12.421875 -11.65625 C 12.421875 -9.820312 13.34375 -8.90625 15.1875 -8.90625 Z M 15.1875 -8.90625 "/></g></g></g><g fill="#060705" fill-opacity="1"><g transform="translate(70.975225, 165.471095)"><g><path d="M 25.328125 -48.3125 L 31.8125 -48.3125 C 32.550781 -48.3125 32.921875 -47.941406 32.921875 -47.203125 L 32.921875 -1.109375 C 32.921875 -0.367188 32.550781 0 31.8125 0 L 26.359375 0 C 25.804688 0 25.394531 -0.296875 25.125 -0.890625 L 12.140625 -27.265625 L 12.140625 -1.109375 C 12.140625 -0.367188 11.773438 0 11.046875 0 L 4.5625 0 C 3.820312 0 3.453125 -0.367188 3.453125 -1.109375 L 3.453125 -47.203125 C 3.453125 -47.941406 3.820312 -48.3125 4.5625 -48.3125 L 10 -48.3125 C 10.550781 -48.3125 10.96875 -48.007812 11.25 -47.40625 L 24.21875 -21.046875 L 24.21875 -47.203125 C 24.21875 -47.941406 24.585938 -48.3125 25.328125 -48.3125 Z M 25.328125 -48.3125 "/></g></g></g><g fill="#060705" fill-opacity="1"><g transform="translate(107.346531, 165.471095)"><g><path d="M 26.4375 -48.3125 L 32.71875 -48.3125 C 33.769531 -48.3125 34.179688 -47.804688 33.953125 -46.796875 L 22.984375 -1.25 C 22.796875 -0.414062 22.289062 0 21.46875 0 L 14.5625 0 C 13.78125 0 13.273438 -0.414062 13.046875 -1.25 L 2.140625 -46.796875 C 1.910156 -47.804688 2.320312 -48.3125 3.375 -48.3125 L 9.65625 -48.3125 C 10.488281 -48.3125 11 -47.894531 11.1875 -47.0625 L 18.015625 -15.875 L 24.921875 -47.0625 C 25.148438 -47.894531 25.65625 -48.3125 26.4375 -48.3125 Z M 26.4375 -48.3125 "/></g></g></g><g fill="#060705" fill-opacity="1"><g transform="translate(143.441768, 165.471095)"><g><path d="M 30.984375 -47.203125 L 30.984375 -40.3125 C 30.984375 -39.519531 30.617188 -39.125 29.890625 -39.125 L 12.84375 -39.125 L 12.84375 -28.5 L 25.8125 -28.5 C 26.550781 -28.5 26.921875 -28.109375 26.921875 -27.328125 L 26.921875 -20.5 C 26.921875 -19.71875 26.550781 -19.328125 25.8125 -19.328125 L 12.84375 -19.328125 L 12.84375 -9.109375 L 29.890625 -9.109375 C 30.617188 -9.109375 30.984375 -8.738281 30.984375 -8 L 30.984375 -1.109375 C 30.984375 -0.367188 30.617188 0 29.890625 0 L 4.484375 0 C 3.796875 0 3.453125 -0.367188 3.453125 -1.109375 L 3.453125 -47.203125 C 3.453125 -47.941406 3.796875 -48.3125 4.484375 -48.3125 L 29.890625 -48.3125 C 30.617188 -48.3125 30.984375 -47.941406 30.984375 -47.203125 Z M 30.984375 -47.203125 "/></g></g></g><g fill="#060705" fill-opacity="1"><g transform="translate(177.880632, 165.471095)"><g><path d="M 31.0625 -38.375 L 31.0625 -24.5 C 31.0625 -20.5 29.769531 -17.691406 27.1875 -16.078125 L 30.78125 -1.25 C 31.007812 -0.414062 30.6875 0 29.8125 0 L 23.046875 0 C 22.398438 0 22.007812 -0.320312 21.875 -0.96875 L 18.5625 -14.5625 L 12.421875 -14.5625 L 12.421875 -1.109375 C 12.421875 -0.367188 12.050781 0 11.3125 0 L 4.5625 0 C 3.820312 0 3.453125 -0.367188 3.453125 -1.109375 L 3.453125 -47.203125 C 3.453125 -47.941406 3.820312 -48.3125 4.5625 -48.3125 L 21.125 -48.3125 C 24.382812 -48.3125 26.851562 -47.46875 28.53125 -45.78125 C 30.21875 -44.101562 31.0625 -41.632812 31.0625 -38.375 Z M 12.421875 -23.46875 L 19.328125 -23.46875 C 21.160156 -23.46875 22.078125 -24.382812 22.078125 -26.21875 L 22.078125 -36.640625 C 22.078125 -38.484375 21.160156 -39.40625 19.328125 -39.40625 L 12.421875 -39.40625 Z M 12.421875 -23.46875 "/></g></g></g><g fill="#060705" fill-opacity="1"><g transform="translate(212.388503, 165.471095)"><g><path d="M 28.578125 -48.3125 L 3.171875 -48.3125 C 2.441406 -48.3125 2.078125 -47.941406 2.078125 -47.203125 L 2.078125 -40.3125 C 2.078125 -39.570312 2.441406 -39.203125 3.171875 -39.203125 L 11.1875 -39.203125 L 11.1875 -1.109375 C 11.1875 -0.367188 11.550781 0 12.28125 0 L 19.46875 0 C 20.195312 0 20.5625 -0.367188 20.5625 -1.109375 L 20.5625 -39.203125 L 28.578125 -39.203125 C 29.304688 -39.203125 29.671875 -39.570312 29.671875 -40.3125 L 29.671875 -47.203125 C 29.671875 -47.941406 29.304688 -48.3125 28.578125 -48.3125 Z M 28.578125 -48.3125 "/></g></g></g><g fill="#060705" fill-opacity="1"><g transform="translate(244.135752, 165.471095)"><g><path d="M 30.984375 -47.203125 L 30.984375 -40.3125 C 30.984375 -39.519531 30.617188 -39.125 29.890625 -39.125 L 12.84375 -39.125 L 12.84375 -28.5 L 25.8125 -28.5 C 26.550781 -28.5 26.921875 -28.109375 26.921875 -27.328125 L 26.921875 -20.5 C 26.921875 -19.71875 26.550781 -19.328125 25.8125 -19.328125 L 12.84375 -19.328125 L 12.84375 -9.109375 L 29.890625 -9.109375 C 30.617188 -9.109375 30.984375 -8.738281 30.984375 -8 L 30.984375 -1.109375 C 30.984375 -0.367188 30.617188 0 29.890625 0 L 4.484375 0 C 3.796875 0 3.453125 -0.367188 3.453125 -1.109375 L 3.453125 -47.203125 C 3.453125 -47.941406 3.796875 -48.3125 4.484375 -48.3125 L 29.890625 -48.3125 C 30.617188 -48.3125 30.984375 -47.941406 30.984375 -47.203125 Z M 30.984375 -47.203125 "/></g></g></g><g fill="#060705" fill-opacity="1"><g transform="translate(278.574616, 165.471095)"><g><path d="M 31.0625 -38.375 L 31.0625 -24.5 C 31.0625 -20.5 29.769531 -17.691406 27.1875 -16.078125 L 30.78125 -1.25 C 31.007812 -0.414062 30.6875 0 29.8125 0 L 23.046875 0 C 22.398438 0 22.007812 -0.320312 21.875 -0.96875 L 18.5625 -14.5625 L 12.421875 -14.5625 L 12.421875 -1.109375 C 12.421875 -0.367188 12.050781 0 11.3125 0 L 4.5625 0 C 3.820312 0 3.453125 -0.367188 3.453125 -1.109375 L 3.453125 -47.203125 C 3.453125 -47.941406 3.820312 -48.3125 4.5625 -48.3125 L 21.125 -48.3125 C 24.382812 -48.3125 26.851562 -47.46875 28.53125 -45.78125 C 30.21875 -44.101562 31.0625 -41.632812 31.0625 -38.375 Z M 12.421875 -23.46875 L 19.328125 -23.46875 C 21.160156 -23.46875 22.078125 -24.382812 22.078125 -26.21875 L 22.078125 -36.640625 C 22.078125 -38.484375 21.160156 -39.40625 19.328125 -39.40625 L 12.421875 -39.40625 Z M 12.421875 -23.46875 "/></g></g></g></g></g></svg>