<svg xmlns="http://www.w3.org/2000/svg" xmlns:xlink="http://www.w3.org/1999/xlink" width="128" zoomAndPan="magnify" viewBox="0 0 96 95.999999" height="128" preserveAspectRatio="xMidYMid meet" version="1.2"><defs><clipPath id="bc98d8fa46"><path d="M 6 0 L 90 0 L 90 96 L 6 96 Z M 6 0 "/></clipPath><clipPath id="5d96a9fb9d"><path d="M -14.304688 36.578125 L 68.691406 -11.898438 L 110.335938 59.402344 L 27.339844 107.878906 Z M -14.304688 36.578125 "/></clipPath><clipPath id="a6e07c2073"><path d="M 89.484375 23.769531 L 89.5625 71.535156 L 48.082031 95.765625 L 6.515625 72.226562 L 6.4375 24.464844 L 47.921875 0.234375 Z M 89.484375 23.769531 "/></clipPath><clipPath id="edd7c06fb1"><path d="M 14.140625 9.121094 L 81.851562 9.121094 L 81.851562 86.839844 L 14.140625 86.839844 Z M 14.140625 9.121094 "/></clipPath></defs><g id="f8cd99ff6e"><g clip-rule="nonzero" clip-path="url(#bc98d8fa46)"><g clip-rule="nonzero" clip-path="url(#5d96a9fb9d)"><g clip-rule="nonzero" clip-path="url(#a6e07c2073)"><path style=" stroke:none;fill-rule:nonzero;fill:#65b30e;fill-opacity:1;" d="M -14.304688 36.578125 L 68.691406 -11.898438 L 110.335938 59.402344 L 27.339844 107.878906 Z M -14.304688 36.578125 "/></g></g></g><path style=" stroke:none;fill-rule:nonzero;fill:#87ff00;fill-opacity:1;" d="M 34.453125 34.738281 L 34.410156 34.695312 L 24.839844 44.265625 L 48.074219 67.457031 L 57.644531 57.933594 L 71.308594 44.265625 L 61.738281 34.695312 L 61.738281 34.652344 L 34.410156 34.652344 Z M 34.453125 34.738281 "/><g clip-rule="nonzero" clip-path="url(#edd7c06fb1)"><path style=" stroke:none;fill-rule:nonzero;fill:#87ff00;fill-opacity:1;" d="M 47.988281 9.179688 L 14.148438 28.574219 L 14.148438 67.371094 L 47.988281 86.769531 L 81.828125 67.371094 L 81.828125 28.574219 Z M 75.359375 63.664062 L 47.988281 79.4375 L 20.613281 63.664062 L 20.617188 32.195312 L 47.988281 16.417969 L 75.363281 32.195312 L 75.363281 63.664062 Z M 75.359375 63.664062 "/></g><g style="fill:#b21a22;fill-opacity:1;"><g transform="translate(25.929925, 30.320424)"><path style="stroke:none" d="M 8.496094 -9.816406 L 8.496094 -6.269531 C 8.496094 -5.039062 8.082031 -4.167969 7.25 -3.644531 L 6.957031 -4.113281 L 7.492188 -4.242188 L 8.410156 -0.449219 L 7.875 -0.316406 L 8.40625 -0.464844 C 8.484375 -0.179688 8.449219 0.0585938 8.292969 0.257812 C 8.140625 0.453125 7.917969 0.550781 7.628906 0.550781 L 5.898438 0.550781 C 5.683594 0.550781 5.5 0.488281 5.347656 0.363281 C 5.199219 0.242188 5.101562 0.078125 5.058594 -0.132812 L 5.597656 -0.246094 L 5.0625 -0.117188 L 4.214844 -3.59375 L 4.75 -3.726562 L 4.75 -3.175781 L 3.179688 -3.175781 L 3.179688 -3.726562 L 3.730469 -3.726562 L 3.730469 -0.28125 C 3.730469 -0.0351562 3.652344 0.164062 3.496094 0.320312 C 3.34375 0.472656 3.140625 0.550781 2.894531 0.550781 L 1.164062 0.550781 C 0.917969 0.550781 0.71875 0.472656 0.5625 0.320312 C 0.410156 0.164062 0.332031 -0.0351562 0.332031 -0.28125 L 0.332031 -12.078125 C 0.332031 -12.324219 0.410156 -12.523438 0.5625 -12.679688 C 0.71875 -12.835938 0.917969 -12.910156 1.164062 -12.910156 L 5.402344 -12.910156 C 6.390625 -12.910156 7.152344 -12.644531 7.691406 -12.105469 C 8.230469 -11.566406 8.496094 -10.804688 8.496094 -9.816406 Z M 7.394531 -9.816406 C 7.394531 -10.5 7.234375 -11.003906 6.910156 -11.324219 C 6.589844 -11.648438 6.085938 -11.808594 5.402344 -11.808594 L 1.164062 -11.808594 C 1.179688 -11.808594 1.195312 -11.8125 1.214844 -11.820312 C 1.261719 -11.835938 1.304688 -11.863281 1.34375 -11.898438 C 1.382812 -11.9375 1.410156 -11.980469 1.425781 -12.027344 C 1.429688 -12.046875 1.433594 -12.066406 1.433594 -12.078125 L 1.433594 -0.28125 C 1.433594 -0.296875 1.429688 -0.3125 1.425781 -0.332031 C 1.410156 -0.378906 1.382812 -0.421875 1.34375 -0.460938 C 1.304688 -0.5 1.261719 -0.527344 1.214844 -0.542969 C 1.195312 -0.546875 1.179688 -0.550781 1.164062 -0.550781 L 2.894531 -0.550781 C 2.882812 -0.550781 2.867188 -0.546875 2.84375 -0.542969 C 2.796875 -0.527344 2.753906 -0.5 2.71875 -0.460938 C 2.679688 -0.421875 2.652344 -0.378906 2.636719 -0.332031 C 2.628906 -0.3125 2.625 -0.296875 2.625 -0.28125 L 2.625 -4.277344 L 5.183594 -4.277344 L 6.136719 -0.371094 L 6.136719 -0.363281 C 6.128906 -0.40625 6.097656 -0.449219 6.050781 -0.488281 C 5.996094 -0.53125 5.945312 -0.550781 5.898438 -0.550781 L 7.628906 -0.550781 C 7.617188 -0.550781 7.601562 -0.546875 7.589844 -0.542969 C 7.523438 -0.519531 7.46875 -0.476562 7.421875 -0.417969 C 7.375 -0.355469 7.347656 -0.289062 7.34375 -0.21875 C 7.339844 -0.195312 7.339844 -0.179688 7.34375 -0.171875 L 7.339844 -0.179688 L 6.328125 -4.371094 L 6.664062 -4.582031 C 7.152344 -4.886719 7.394531 -5.449219 7.394531 -6.269531 Z M 3.179688 -6.554688 L 4.945312 -6.554688 C 5.003906 -6.554688 5.046875 -6.5625 5.078125 -6.570312 C 5.085938 -6.574219 5.089844 -6.574219 5.089844 -6.574219 C 5.089844 -6.574219 5.085938 -6.574219 5.082031 -6.570312 C 5.082031 -6.566406 5.078125 -6.566406 5.078125 -6.5625 C 5.078125 -6.566406 5.082031 -6.570312 5.082031 -6.574219 C 5.09375 -6.605469 5.097656 -6.652344 5.097656 -6.710938 L 5.097656 -9.375 C 5.097656 -9.433594 5.09375 -9.480469 5.082031 -9.511719 C 5.082031 -9.515625 5.078125 -9.519531 5.078125 -9.523438 C 5.078125 -9.519531 5.082031 -9.519531 5.082031 -9.515625 C 5.085938 -9.511719 5.089844 -9.511719 5.089844 -9.507812 C 5.089844 -9.511719 5.085938 -9.511719 5.078125 -9.515625 C 5.046875 -9.523438 5.003906 -9.53125 4.945312 -9.53125 L 3.179688 -9.53125 L 3.179688 -10.082031 L 3.730469 -10.082031 L 3.730469 -6.003906 L 3.179688 -6.003906 Z M 2.625 -5.453125 L 2.625 -10.632812 L 4.945312 -10.632812 C 5.332031 -10.632812 5.636719 -10.519531 5.863281 -10.296875 C 6.089844 -10.070312 6.203125 -9.765625 6.203125 -9.375 L 6.203125 -6.710938 C 6.203125 -6.320312 6.089844 -6.015625 5.863281 -5.789062 C 5.636719 -5.5625 5.332031 -5.453125 4.945312 -5.453125 Z M 2.625 -5.453125 "/></g></g><g style="fill:#b21a22;fill-opacity:1;"><g transform="translate(34.755732, 30.320424)"><path style="stroke:none" d="M 3.425781 -12.910156 L 5.402344 -12.910156 C 6.390625 -12.910156 7.152344 -12.644531 7.691406 -12.105469 C 8.230469 -11.566406 8.496094 -10.804688 8.496094 -9.816406 L 8.496094 -8.652344 C 8.496094 -8.40625 8.421875 -8.203125 8.265625 -8.050781 C 8.109375 -7.894531 7.910156 -7.816406 7.664062 -7.816406 L 5.878906 -7.816406 C 5.632812 -7.816406 5.433594 -7.894531 5.277344 -8.050781 C 5.121094 -8.203125 5.046875 -8.40625 5.046875 -8.652344 L 5.046875 -9.394531 C 5.046875 -9.453125 5.039062 -9.496094 5.03125 -9.527344 C 5.027344 -9.535156 5.027344 -9.539062 5.023438 -9.539062 C 5.027344 -9.539062 5.027344 -9.535156 5.03125 -9.53125 C 5.03125 -9.53125 5.035156 -9.527344 5.039062 -9.527344 C 5.035156 -9.527344 5.03125 -9.53125 5.027344 -9.53125 C 4.992188 -9.542969 4.949219 -9.546875 4.890625 -9.546875 L 3.917969 -9.546875 C 3.863281 -9.546875 3.816406 -9.542969 3.785156 -9.53125 C 3.78125 -9.53125 3.777344 -9.527344 3.773438 -9.527344 C 3.777344 -9.527344 3.777344 -9.53125 3.78125 -9.53125 C 3.78125 -9.535156 3.785156 -9.539062 3.785156 -9.539062 C 3.785156 -9.539062 3.785156 -9.535156 3.78125 -9.527344 C 3.769531 -9.496094 3.765625 -9.453125 3.765625 -9.394531 L 3.765625 -7.894531 L 3.214844 -7.894531 L 3.382812 -8.417969 L 7.65625 -7.039062 C 7.929688 -6.945312 8.136719 -6.796875 8.28125 -6.589844 C 8.425781 -6.386719 8.496094 -6.144531 8.496094 -5.863281 L 8.496094 -2.542969 C 8.496094 -1.566406 8.230469 -0.808594 7.695312 -0.265625 C 7.15625 0.277344 6.394531 0.550781 5.402344 0.550781 L 3.425781 0.550781 C 2.449219 0.550781 1.6875 0.28125 1.144531 -0.261719 C 0.601562 -0.804688 0.332031 -1.566406 0.332031 -2.542969 L 0.332031 -3.691406 C 0.332031 -3.9375 0.410156 -4.136719 0.5625 -4.292969 C 0.71875 -4.449219 0.917969 -4.523438 1.164062 -4.523438 L 2.949219 -4.523438 C 3.195312 -4.523438 3.394531 -4.449219 3.550781 -4.292969 C 3.707031 -4.136719 3.78125 -3.9375 3.78125 -3.691406 L 3.78125 -2.949219 C 3.78125 -2.890625 3.789062 -2.847656 3.800781 -2.8125 C 3.800781 -2.808594 3.800781 -2.804688 3.804688 -2.800781 C 3.800781 -2.804688 3.800781 -2.808594 3.796875 -2.808594 C 3.796875 -2.8125 3.792969 -2.8125 3.792969 -2.816406 C 3.792969 -2.8125 3.796875 -2.8125 3.804688 -2.808594 C 3.835938 -2.800781 3.878906 -2.792969 3.9375 -2.792969 L 4.890625 -2.792969 C 4.949219 -2.792969 4.992188 -2.800781 5.027344 -2.808594 C 5.03125 -2.8125 5.035156 -2.8125 5.039062 -2.816406 C 5.035156 -2.8125 5.03125 -2.8125 5.03125 -2.808594 C 5.027344 -2.808594 5.027344 -2.804688 5.023438 -2.800781 C 5.027344 -2.804688 5.027344 -2.808594 5.03125 -2.8125 C 5.039062 -2.847656 5.046875 -2.890625 5.046875 -2.949219 L 5.046875 -4.730469 L 5.597656 -4.730469 L 5.425781 -4.207031 L 1.1875 -5.585938 C 0.914062 -5.675781 0.703125 -5.824219 0.554688 -6.027344 C 0.40625 -6.234375 0.332031 -6.476562 0.332031 -6.761719 L 0.332031 -9.816406 C 0.332031 -10.808594 0.605469 -11.570312 1.148438 -12.109375 C 1.691406 -12.644531 2.449219 -12.910156 3.425781 -12.910156 Z M 3.425781 -11.808594 C 2.753906 -11.808594 2.25 -11.644531 1.921875 -11.324219 C 1.597656 -11 1.433594 -10.5 1.433594 -9.816406 L 1.433594 -6.761719 C 1.433594 -6.71875 1.4375 -6.6875 1.449219 -6.675781 C 1.457031 -6.664062 1.484375 -6.648438 1.53125 -6.632812 L 6.148438 -5.132812 L 6.148438 -2.949219 C 6.148438 -2.5625 6.035156 -2.253906 5.8125 -2.027344 C 5.585938 -1.804688 5.277344 -1.691406 4.890625 -1.691406 L 3.9375 -1.691406 C 3.550781 -1.691406 3.242188 -1.804688 3.019531 -2.027344 C 2.792969 -2.253906 2.679688 -2.5625 2.679688 -2.949219 L 2.679688 -3.691406 C 2.679688 -3.679688 2.683594 -3.660156 2.691406 -3.640625 C 2.707031 -3.59375 2.734375 -3.550781 2.769531 -3.511719 C 2.808594 -3.472656 2.851562 -3.449219 2.898438 -3.433594 C 2.917969 -3.425781 2.9375 -3.421875 2.949219 -3.421875 L 1.164062 -3.421875 C 1.179688 -3.421875 1.195312 -3.425781 1.214844 -3.433594 C 1.261719 -3.449219 1.304688 -3.472656 1.34375 -3.511719 C 1.382812 -3.550781 1.410156 -3.59375 1.425781 -3.640625 C 1.429688 -3.660156 1.433594 -3.679688 1.433594 -3.691406 L 1.433594 -2.542969 C 1.433594 -1.871094 1.597656 -1.371094 1.925781 -1.042969 C 2.253906 -0.714844 2.753906 -0.550781 3.425781 -0.550781 L 5.402344 -0.550781 C 6.085938 -0.550781 6.585938 -0.714844 6.910156 -1.039062 C 7.230469 -1.367188 7.394531 -1.871094 7.394531 -2.542969 L 7.394531 -5.863281 C 7.394531 -5.910156 7.390625 -5.941406 7.378906 -5.957031 C 7.371094 -5.96875 7.351562 -5.980469 7.316406 -5.992188 L 2.660156 -7.492188 L 2.660156 -9.394531 C 2.660156 -9.78125 2.773438 -10.089844 3 -10.3125 C 3.226562 -10.539062 3.53125 -10.652344 3.917969 -10.652344 L 4.890625 -10.652344 C 5.277344 -10.652344 5.585938 -10.539062 5.8125 -10.3125 C 6.035156 -10.089844 6.148438 -9.78125 6.148438 -9.394531 L 6.148438 -8.652344 C 6.148438 -8.664062 6.144531 -8.679688 6.136719 -8.703125 C 6.121094 -8.75 6.097656 -8.792969 6.058594 -8.832031 C 6.019531 -8.867188 5.976562 -8.894531 5.929688 -8.910156 C 5.910156 -8.917969 5.890625 -8.921875 5.878906 -8.921875 L 7.664062 -8.921875 C 7.652344 -8.921875 7.632812 -8.917969 7.613281 -8.910156 C 7.566406 -8.894531 7.523438 -8.867188 7.484375 -8.832031 C 7.445312 -8.792969 7.421875 -8.75 7.40625 -8.703125 C 7.398438 -8.679688 7.394531 -8.664062 7.394531 -8.652344 L 7.394531 -9.816406 C 7.394531 -10.5 7.234375 -11.003906 6.910156 -11.324219 C 6.589844 -11.648438 6.085938 -11.808594 5.402344 -11.808594 Z M 3.425781 -11.808594 "/></g></g><g style="fill:#b21a22;fill-opacity:1;"><g transform="translate(43.58154, 30.320424)"><path style="stroke:none" d="M 0.332031 -0.28125 L 0.332031 -12.078125 C 0.332031 -12.324219 0.410156 -12.523438 0.5625 -12.679688 C 0.71875 -12.835938 0.917969 -12.910156 1.164062 -12.910156 L 5.402344 -12.910156 C 6.390625 -12.910156 7.152344 -12.644531 7.691406 -12.105469 C 8.230469 -11.566406 8.496094 -10.804688 8.496094 -9.816406 L 8.496094 -6.355469 C 8.496094 -5.378906 8.230469 -4.625 7.691406 -4.085938 C 7.15625 -3.550781 6.394531 -3.277344 5.410156 -3.261719 L 3.183594 -3.246094 L 3.179688 -3.796875 L 3.730469 -3.796875 L 3.730469 -0.265625 C 3.730469 -0.0195312 3.652344 0.183594 3.496094 0.335938 C 3.34375 0.492188 3.140625 0.570312 2.894531 0.570312 L 1.160156 0.550781 C 0.917969 0.550781 0.71875 0.472656 0.5625 0.320312 C 0.410156 0.164062 0.332031 -0.0351562 0.332031 -0.28125 Z M 1.433594 -0.28125 C 1.433594 -0.296875 1.429688 -0.3125 1.425781 -0.332031 C 1.410156 -0.378906 1.382812 -0.421875 1.34375 -0.460938 C 1.304688 -0.5 1.261719 -0.527344 1.214844 -0.542969 C 1.195312 -0.546875 1.179688 -0.550781 1.171875 -0.550781 L 2.894531 -0.535156 C 2.882812 -0.535156 2.867188 -0.53125 2.84375 -0.523438 C 2.796875 -0.507812 2.753906 -0.480469 2.71875 -0.441406 C 2.679688 -0.40625 2.652344 -0.363281 2.636719 -0.316406 C 2.628906 -0.292969 2.625 -0.277344 2.625 -0.265625 L 2.625 -4.34375 L 5.394531 -4.367188 C 6.082031 -4.375 6.585938 -4.542969 6.910156 -4.867188 C 7.234375 -5.1875 7.394531 -5.683594 7.394531 -6.355469 L 7.394531 -9.816406 C 7.394531 -10.5 7.234375 -11.003906 6.910156 -11.324219 C 6.589844 -11.648438 6.085938 -11.808594 5.402344 -11.808594 L 1.164062 -11.808594 C 1.179688 -11.808594 1.195312 -11.8125 1.214844 -11.820312 C 1.261719 -11.835938 1.304688 -11.863281 1.34375 -11.898438 C 1.382812 -11.9375 1.410156 -11.980469 1.425781 -12.027344 C 1.429688 -12.046875 1.433594 -12.066406 1.433594 -12.078125 Z M 3.171875 -6.625 L 4.9375 -6.644531 C 5 -6.644531 5.046875 -6.648438 5.078125 -6.660156 C 5.085938 -6.660156 5.089844 -6.664062 5.089844 -6.664062 C 5.089844 -6.664062 5.085938 -6.660156 5.082031 -6.660156 C 5.082031 -6.65625 5.078125 -6.652344 5.078125 -6.652344 C 5.078125 -6.652344 5.082031 -6.65625 5.082031 -6.664062 C 5.09375 -6.695312 5.097656 -6.738281 5.097656 -6.796875 L 5.097656 -9.375 C 5.097656 -9.433594 5.09375 -9.480469 5.082031 -9.511719 C 5.082031 -9.515625 5.078125 -9.519531 5.078125 -9.523438 C 5.078125 -9.519531 5.082031 -9.519531 5.082031 -9.515625 C 5.085938 -9.511719 5.089844 -9.511719 5.089844 -9.507812 C 5.089844 -9.511719 5.085938 -9.511719 5.078125 -9.515625 C 5.046875 -9.523438 5.003906 -9.53125 4.945312 -9.53125 L 3.183594 -9.511719 L 3.179688 -10.066406 L 3.730469 -10.066406 L 3.730469 -6.074219 L 3.179688 -6.074219 Z M 2.625 -5.515625 L 2.625 -10.609375 L 4.945312 -10.632812 C 5.332031 -10.632812 5.636719 -10.519531 5.863281 -10.296875 C 6.089844 -10.070312 6.203125 -9.765625 6.203125 -9.375 L 6.203125 -6.796875 C 6.203125 -6.410156 6.089844 -6.105469 5.863281 -5.878906 C 5.636719 -5.652344 5.332031 -5.539062 4.949219 -5.539062 L 3.183594 -5.523438 Z M 2.625 -5.515625 "/></g></g><g style="fill:#b21a22;fill-opacity:1;"><g transform="translate(52.407347, 30.320424)"><path style="stroke:none" d="M 8.480469 -12.078125 L 8.480469 -10.3125 C 8.480469 -10.066406 8.40625 -9.863281 8.257812 -9.707031 C 8.101562 -9.542969 7.898438 -9.460938 7.644531 -9.460938 L 3.285156 -9.460938 L 3.285156 -10.011719 L 3.835938 -10.011719 L 3.835938 -7.292969 L 3.285156 -7.292969 L 3.285156 -7.84375 L 6.605469 -7.84375 C 6.855469 -7.84375 7.0625 -7.761719 7.21875 -7.59375 C 7.363281 -7.4375 7.4375 -7.238281 7.4375 -6.992188 L 7.4375 -5.246094 C 7.4375 -5 7.363281 -4.796875 7.21875 -4.640625 C 7.0625 -4.476562 6.855469 -4.390625 6.605469 -4.390625 L 3.285156 -4.390625 L 3.285156 -4.945312 L 3.835938 -4.945312 L 3.835938 -2.332031 L 3.285156 -2.332031 L 3.285156 -2.882812 L 7.644531 -2.882812 C 7.890625 -2.882812 8.09375 -2.804688 8.246094 -2.648438 C 8.402344 -2.496094 8.480469 -2.292969 8.480469 -2.046875 L 8.480469 -0.28125 C 8.480469 -0.0351562 8.402344 0.164062 8.246094 0.320312 C 8.09375 0.472656 7.890625 0.550781 7.644531 0.550781 L 1.148438 0.550781 C 0.898438 0.550781 0.699219 0.46875 0.546875 0.308594 C 0.402344 0.152344 0.332031 -0.0429688 0.332031 -0.28125 L 0.332031 -12.078125 C 0.332031 -12.316406 0.402344 -12.511719 0.546875 -12.667969 C 0.699219 -12.832031 0.898438 -12.910156 1.148438 -12.910156 L 7.644531 -12.910156 C 7.890625 -12.910156 8.09375 -12.835938 8.246094 -12.679688 C 8.402344 -12.523438 8.480469 -12.324219 8.480469 -12.078125 Z M 7.375 -12.078125 C 7.375 -12.066406 7.378906 -12.046875 7.386719 -12.027344 C 7.402344 -11.980469 7.429688 -11.9375 7.46875 -11.898438 C 7.503906 -11.863281 7.546875 -11.835938 7.59375 -11.820312 C 7.617188 -11.8125 7.632812 -11.808594 7.644531 -11.808594 L 1.148438 -11.808594 C 1.21875 -11.808594 1.285156 -11.84375 1.351562 -11.910156 C 1.386719 -11.949219 1.410156 -11.992188 1.425781 -12.035156 C 1.433594 -12.054688 1.433594 -12.070312 1.433594 -12.078125 L 1.433594 -0.28125 C 1.433594 -0.292969 1.433594 -0.304688 1.425781 -0.324219 C 1.410156 -0.367188 1.386719 -0.410156 1.351562 -0.449219 C 1.285156 -0.515625 1.21875 -0.550781 1.148438 -0.550781 L 7.644531 -0.550781 C 7.632812 -0.550781 7.617188 -0.546875 7.59375 -0.542969 C 7.546875 -0.527344 7.503906 -0.5 7.46875 -0.460938 C 7.429688 -0.421875 7.402344 -0.378906 7.386719 -0.332031 C 7.378906 -0.3125 7.375 -0.296875 7.375 -0.28125 L 7.375 -2.046875 C 7.375 -2.035156 7.378906 -2.019531 7.386719 -1.996094 C 7.402344 -1.949219 7.429688 -1.90625 7.46875 -1.871094 C 7.503906 -1.832031 7.546875 -1.804688 7.59375 -1.789062 C 7.617188 -1.78125 7.632812 -1.777344 7.644531 -1.777344 L 2.730469 -1.777344 L 2.730469 -5.496094 L 6.605469 -5.496094 C 6.585938 -5.496094 6.566406 -5.492188 6.542969 -5.484375 C 6.496094 -5.464844 6.453125 -5.4375 6.414062 -5.398438 C 6.378906 -5.359375 6.355469 -5.320312 6.34375 -5.277344 C 6.335938 -5.261719 6.335938 -5.25 6.335938 -5.246094 L 6.335938 -6.992188 C 6.335938 -6.984375 6.335938 -6.976562 6.34375 -6.957031 C 6.355469 -6.914062 6.378906 -6.875 6.414062 -6.839844 C 6.453125 -6.800781 6.496094 -6.769531 6.542969 -6.753906 C 6.566406 -6.746094 6.585938 -6.742188 6.605469 -6.742188 L 2.730469 -6.742188 L 2.730469 -10.5625 L 7.644531 -10.5625 C 7.628906 -10.5625 7.609375 -10.558594 7.585938 -10.550781 C 7.535156 -10.535156 7.492188 -10.503906 7.457031 -10.464844 C 7.421875 -10.429688 7.398438 -10.390625 7.382812 -10.34375 C 7.378906 -10.328125 7.375 -10.316406 7.375 -10.3125 Z M 7.375 -12.078125 "/></g></g><g style="fill:#b21a22;fill-opacity:1;"><g transform="translate(61.2155, 30.320424)"><path style="stroke:none" d="M 8.515625 -9.816406 L 8.515625 -7.910156 C 8.515625 -7.664062 8.4375 -7.464844 8.28125 -7.308594 C 8.128906 -7.152344 7.925781 -7.074219 7.679688 -7.074219 L 6.019531 -7.074219 C 5.773438 -7.074219 5.574219 -7.152344 5.417969 -7.308594 C 5.265625 -7.464844 5.1875 -7.664062 5.1875 -7.910156 L 5.1875 -9.359375 C 5.1875 -9.417969 5.179688 -9.460938 5.171875 -9.492188 C 5.167969 -9.5 5.167969 -9.503906 5.167969 -9.503906 C 5.167969 -9.503906 5.167969 -9.5 5.171875 -9.496094 C 5.175781 -9.496094 5.175781 -9.492188 5.179688 -9.492188 C 5.175781 -9.492188 5.171875 -9.496094 5.167969 -9.496094 C 5.136719 -9.507812 5.089844 -9.511719 5.03125 -9.511719 L 3.902344 -9.511719 C 3.84375 -9.511719 3.800781 -9.507812 3.769531 -9.496094 C 3.761719 -9.496094 3.757812 -9.492188 3.753906 -9.492188 C 3.757812 -9.492188 3.761719 -9.496094 3.761719 -9.496094 C 3.765625 -9.5 3.765625 -9.503906 3.769531 -9.503906 C 3.765625 -9.503906 3.765625 -9.5 3.761719 -9.492188 C 3.753906 -9.460938 3.746094 -9.417969 3.746094 -9.359375 L 3.746094 -2.949219 C 3.746094 -2.890625 3.753906 -2.847656 3.761719 -2.8125 C 3.765625 -2.808594 3.765625 -2.804688 3.769531 -2.800781 C 3.765625 -2.804688 3.765625 -2.808594 3.761719 -2.808594 C 3.761719 -2.8125 3.757812 -2.8125 3.753906 -2.816406 C 3.757812 -2.8125 3.761719 -2.8125 3.769531 -2.808594 C 3.800781 -2.800781 3.84375 -2.792969 3.902344 -2.792969 L 5.03125 -2.792969 C 5.089844 -2.792969 5.136719 -2.800781 5.167969 -2.808594 C 5.171875 -2.8125 5.175781 -2.8125 5.179688 -2.816406 C 5.175781 -2.8125 5.175781 -2.8125 5.171875 -2.808594 C 5.167969 -2.808594 5.167969 -2.804688 5.167969 -2.800781 C 5.167969 -2.804688 5.167969 -2.808594 5.171875 -2.8125 C 5.179688 -2.847656 5.1875 -2.890625 5.1875 -2.949219 L 5.1875 -4.449219 C 5.1875 -4.695312 5.265625 -4.898438 5.417969 -5.050781 C 5.574219 -5.207031 5.773438 -5.285156 6.019531 -5.285156 L 7.679688 -5.285156 C 7.925781 -5.285156 8.128906 -5.207031 8.28125 -5.050781 C 8.4375 -4.898438 8.515625 -4.695312 8.515625 -4.449219 L 8.515625 -2.542969 C 8.515625 -1.566406 8.242188 -0.804688 7.699219 -0.261719 C 7.15625 0.28125 6.398438 0.550781 5.421875 0.550781 L 3.441406 0.550781 C 2.46875 0.550781 1.707031 0.28125 1.15625 -0.261719 C 0.605469 -0.804688 0.332031 -1.566406 0.332031 -2.542969 L 0.332031 -9.816406 C 0.332031 -10.808594 0.605469 -11.574219 1.160156 -12.109375 C 1.707031 -12.644531 2.46875 -12.910156 3.441406 -12.910156 L 5.421875 -12.910156 C 6.394531 -12.910156 7.15625 -12.644531 7.699219 -12.109375 C 8.242188 -11.570312 8.515625 -10.808594 8.515625 -9.816406 Z M 7.410156 -9.816406 C 7.410156 -10.5 7.25 -11 6.921875 -11.324219 C 6.59375 -11.644531 6.09375 -11.808594 5.421875 -11.808594 L 3.441406 -11.808594 C 2.769531 -11.808594 2.265625 -11.644531 1.929688 -11.320312 C 1.601562 -11 1.433594 -10.496094 1.433594 -9.816406 L 1.433594 -2.542969 C 1.433594 -1.871094 1.601562 -1.375 1.933594 -1.046875 C 2.265625 -0.714844 2.769531 -0.550781 3.441406 -0.550781 L 5.421875 -0.550781 C 6.09375 -0.550781 6.59375 -0.714844 6.917969 -1.042969 C 7.246094 -1.371094 7.410156 -1.871094 7.410156 -2.542969 L 7.410156 -4.449219 C 7.410156 -4.4375 7.414062 -4.421875 7.421875 -4.398438 C 7.4375 -4.351562 7.464844 -4.308594 7.503906 -4.269531 C 7.539062 -4.234375 7.582031 -4.207031 7.628906 -4.191406 C 7.652344 -4.183594 7.667969 -4.179688 7.679688 -4.179688 L 6.019531 -4.179688 C 6.035156 -4.179688 6.050781 -4.183594 6.070312 -4.191406 C 6.117188 -4.207031 6.160156 -4.234375 6.199219 -4.269531 C 6.238281 -4.308594 6.265625 -4.351562 6.28125 -4.398438 C 6.285156 -4.421875 6.289062 -4.4375 6.289062 -4.449219 L 6.289062 -2.949219 C 6.289062 -2.5625 6.175781 -2.253906 5.953125 -2.027344 C 5.726562 -1.804688 5.421875 -1.691406 5.03125 -1.691406 L 3.902344 -1.691406 C 3.515625 -1.691406 3.207031 -1.804688 2.980469 -2.027344 C 2.757812 -2.253906 2.644531 -2.5625 2.644531 -2.949219 L 2.644531 -9.359375 C 2.644531 -9.746094 2.757812 -10.054688 2.980469 -10.277344 C 3.207031 -10.503906 3.515625 -10.617188 3.902344 -10.617188 L 5.03125 -10.617188 C 5.421875 -10.617188 5.726562 -10.503906 5.953125 -10.277344 C 6.175781 -10.054688 6.289062 -9.746094 6.289062 -9.359375 L 6.289062 -7.910156 C 6.289062 -7.921875 6.285156 -7.941406 6.28125 -7.960938 C 6.265625 -8.007812 6.238281 -8.050781 6.199219 -8.089844 C 6.160156 -8.125 6.117188 -8.152344 6.070312 -8.167969 C 6.050781 -8.175781 6.035156 -8.179688 6.019531 -8.179688 L 7.679688 -8.179688 C 7.667969 -8.179688 7.652344 -8.175781 7.628906 -8.167969 C 7.582031 -8.152344 7.539062 -8.125 7.503906 -8.089844 C 7.464844 -8.050781 7.4375 -8.007812 7.421875 -7.960938 C 7.414062 -7.941406 7.410156 -7.921875 7.410156 -7.910156 Z M 7.410156 -9.816406 "/></g></g><g style="fill:#b21a22;fill-opacity:1;"><g transform="translate(16.334839, 54.937554)"><path style="stroke:none" d="M 0.332031 -5.542969 L 0.332031 -7.167969 C 0.332031 -7.4375 0.414062 -7.65625 0.582031 -7.824219 C 0.746094 -7.992188 0.964844 -8.074219 1.234375 -8.074219 L 4.027344 -8.074219 C 4.296875 -8.074219 4.515625 -7.992188 4.679688 -7.824219 C 4.847656 -7.65625 4.929688 -7.4375 4.929688 -7.167969 L 4.929688 -5.542969 C 4.929688 -5.273438 4.847656 -5.054688 4.679688 -4.890625 C 4.515625 -4.722656 4.296875 -4.640625 4.027344 -4.640625 L 1.234375 -4.640625 C 0.964844 -4.640625 0.746094 -4.722656 0.582031 -4.890625 C 0.414062 -5.054688 0.332031 -5.273438 0.332031 -5.542969 Z M 1.433594 -5.542969 C 1.433594 -5.542969 1.433594 -5.539062 1.433594 -5.539062 C 1.433594 -5.546875 1.429688 -5.554688 1.429688 -5.5625 C 1.414062 -5.601562 1.394531 -5.636719 1.363281 -5.667969 C 1.328125 -5.703125 1.292969 -5.722656 1.257812 -5.738281 C 1.246094 -5.738281 1.238281 -5.742188 1.230469 -5.742188 C 1.230469 -5.742188 1.234375 -5.742188 1.234375 -5.742188 L 4.027344 -5.742188 C 4.027344 -5.742188 4.03125 -5.742188 4.03125 -5.742188 C 4.023438 -5.742188 4.015625 -5.738281 4.003906 -5.738281 C 3.96875 -5.722656 3.933594 -5.703125 3.902344 -5.667969 C 3.867188 -5.636719 3.847656 -5.601562 3.832031 -5.5625 C 3.832031 -5.554688 3.828125 -5.546875 3.828125 -5.539062 C 3.828125 -5.539062 3.828125 -5.542969 3.828125 -5.542969 L 3.828125 -7.167969 C 3.828125 -7.171875 3.828125 -7.171875 3.828125 -7.175781 C 3.828125 -7.175781 3.828125 -7.175781 3.828125 -7.171875 C 3.828125 -7.167969 3.832031 -7.160156 3.832031 -7.148438 C 3.847656 -7.109375 3.867188 -7.074219 3.902344 -7.042969 C 3.933594 -7.011719 3.96875 -6.988281 4.003906 -6.976562 C 4.015625 -6.972656 4.023438 -6.972656 4.03125 -6.96875 C 4.03125 -6.96875 4.027344 -6.96875 4.027344 -6.96875 L 1.234375 -6.96875 C 1.234375 -6.96875 1.230469 -6.96875 1.230469 -6.96875 C 1.238281 -6.972656 1.246094 -6.972656 1.257812 -6.976562 C 1.292969 -6.988281 1.328125 -7.011719 1.363281 -7.042969 C 1.394531 -7.074219 1.414062 -7.109375 1.429688 -7.148438 C 1.429688 -7.160156 1.433594 -7.167969 1.433594 -7.171875 C 1.433594 -7.175781 1.433594 -7.175781 1.433594 -7.175781 C 1.433594 -7.171875 1.433594 -7.171875 1.433594 -7.167969 Z M 1.433594 -5.542969 "/></g></g><g style="fill:#b21a22;fill-opacity:1;"><g transform="translate(21.595018, 54.937554)"><path style="stroke:none" d="M 0.332031 -0.28125 L 0.332031 -12.078125 C 0.332031 -12.324219 0.410156 -12.523438 0.5625 -12.679688 C 0.71875 -12.835938 0.917969 -12.910156 1.164062 -12.910156 L 5.402344 -12.910156 C 6.390625 -12.910156 7.152344 -12.644531 7.691406 -12.105469 C 8.230469 -11.566406 8.496094 -10.804688 8.496094 -9.816406 L 8.496094 -6.355469 C 8.496094 -5.378906 8.230469 -4.625 7.691406 -4.085938 C 7.15625 -3.550781 6.394531 -3.277344 5.410156 -3.261719 L 3.183594 -3.246094 L 3.179688 -3.796875 L 3.730469 -3.796875 L 3.730469 -0.265625 C 3.730469 -0.0195312 3.652344 0.183594 3.496094 0.335938 C 3.34375 0.492188 3.140625 0.570312 2.894531 0.570312 L 1.160156 0.550781 C 0.917969 0.550781 0.71875 0.472656 0.5625 0.320312 C 0.410156 0.164062 0.332031 -0.0351562 0.332031 -0.28125 Z M 1.433594 -0.28125 C 1.433594 -0.296875 1.429688 -0.3125 1.425781 -0.332031 C 1.410156 -0.378906 1.382812 -0.421875 1.34375 -0.460938 C 1.304688 -0.5 1.261719 -0.527344 1.214844 -0.542969 C 1.195312 -0.546875 1.179688 -0.550781 1.171875 -0.550781 L 2.894531 -0.535156 C 2.882812 -0.535156 2.867188 -0.53125 2.84375 -0.523438 C 2.796875 -0.507812 2.753906 -0.480469 2.71875 -0.441406 C 2.679688 -0.40625 2.652344 -0.363281 2.636719 -0.316406 C 2.628906 -0.292969 2.625 -0.277344 2.625 -0.265625 L 2.625 -4.34375 L 5.394531 -4.367188 C 6.082031 -4.375 6.585938 -4.542969 6.910156 -4.867188 C 7.234375 -5.1875 7.394531 -5.683594 7.394531 -6.355469 L 7.394531 -9.816406 C 7.394531 -10.5 7.234375 -11.003906 6.910156 -11.324219 C 6.589844 -11.648438 6.085938 -11.808594 5.402344 -11.808594 L 1.164062 -11.808594 C 1.179688 -11.808594 1.195312 -11.8125 1.214844 -11.820312 C 1.261719 -11.835938 1.304688 -11.863281 1.34375 -11.898438 C 1.382812 -11.9375 1.410156 -11.980469 1.425781 -12.027344 C 1.429688 -12.046875 1.433594 -12.066406 1.433594 -12.078125 Z M 3.171875 -6.625 L 4.9375 -6.644531 C 5 -6.644531 5.046875 -6.648438 5.078125 -6.660156 C 5.085938 -6.660156 5.089844 -6.664062 5.089844 -6.664062 C 5.089844 -6.664062 5.085938 -6.660156 5.082031 -6.660156 C 5.082031 -6.65625 5.078125 -6.652344 5.078125 -6.652344 C 5.078125 -6.652344 5.082031 -6.65625 5.082031 -6.664062 C 5.09375 -6.695312 5.097656 -6.738281 5.097656 -6.796875 L 5.097656 -9.375 C 5.097656 -9.433594 5.09375 -9.480469 5.082031 -9.511719 C 5.082031 -9.515625 5.078125 -9.519531 5.078125 -9.523438 C 5.078125 -9.519531 5.082031 -9.519531 5.082031 -9.515625 C 5.085938 -9.511719 5.089844 -9.511719 5.089844 -9.507812 C 5.089844 -9.511719 5.085938 -9.511719 5.078125 -9.515625 C 5.046875 -9.523438 5.003906 -9.53125 4.945312 -9.53125 L 3.183594 -9.511719 L 3.179688 -10.066406 L 3.730469 -10.066406 L 3.730469 -6.074219 L 3.179688 -6.074219 Z M 2.625 -5.515625 L 2.625 -10.609375 L 4.945312 -10.632812 C 5.332031 -10.632812 5.636719 -10.519531 5.863281 -10.296875 C 6.089844 -10.070312 6.203125 -9.765625 6.203125 -9.375 L 6.203125 -6.796875 C 6.203125 -6.410156 6.089844 -6.105469 5.863281 -5.878906 C 5.636719 -5.652344 5.332031 -5.539062 4.949219 -5.539062 L 3.183594 -5.523438 Z M 2.625 -5.515625 "/></g></g><g style="fill:#b21a22;fill-opacity:1;"><g transform="translate(30.420826, 54.937554)"><path style="stroke:none" d="M 8.480469 -12.078125 L 8.480469 -10.3125 C 8.480469 -10.066406 8.40625 -9.863281 8.257812 -9.707031 C 8.101562 -9.542969 7.898438 -9.460938 7.644531 -9.460938 L 3.285156 -9.460938 L 3.285156 -10.011719 L 3.835938 -10.011719 L 3.835938 -7.292969 L 3.285156 -7.292969 L 3.285156 -7.84375 L 6.605469 -7.84375 C 6.855469 -7.84375 7.0625 -7.761719 7.21875 -7.59375 C 7.363281 -7.4375 7.4375 -7.238281 7.4375 -6.992188 L 7.4375 -5.246094 C 7.4375 -5 7.363281 -4.796875 7.21875 -4.640625 C 7.0625 -4.476562 6.855469 -4.390625 6.605469 -4.390625 L 3.285156 -4.390625 L 3.285156 -4.945312 L 3.835938 -4.945312 L 3.835938 -2.332031 L 3.285156 -2.332031 L 3.285156 -2.882812 L 7.644531 -2.882812 C 7.890625 -2.882812 8.09375 -2.804688 8.246094 -2.648438 C 8.402344 -2.496094 8.480469 -2.292969 8.480469 -2.046875 L 8.480469 -0.28125 C 8.480469 -0.0351562 8.402344 0.164062 8.246094 0.320312 C 8.09375 0.472656 7.890625 0.550781 7.644531 0.550781 L 1.148438 0.550781 C 0.898438 0.550781 0.699219 0.46875 0.546875 0.308594 C 0.402344 0.152344 0.332031 -0.0429688 0.332031 -0.28125 L 0.332031 -12.078125 C 0.332031 -12.316406 0.402344 -12.511719 0.546875 -12.667969 C 0.699219 -12.832031 0.898438 -12.910156 1.148438 -12.910156 L 7.644531 -12.910156 C 7.890625 -12.910156 8.09375 -12.835938 8.246094 -12.679688 C 8.402344 -12.523438 8.480469 -12.324219 8.480469 -12.078125 Z M 7.375 -12.078125 C 7.375 -12.066406 7.378906 -12.046875 7.386719 -12.027344 C 7.402344 -11.980469 7.429688 -11.9375 7.46875 -11.898438 C 7.503906 -11.863281 7.546875 -11.835938 7.59375 -11.820312 C 7.617188 -11.8125 7.632812 -11.808594 7.644531 -11.808594 L 1.148438 -11.808594 C 1.21875 -11.808594 1.285156 -11.84375 1.351562 -11.910156 C 1.386719 -11.949219 1.410156 -11.992188 1.425781 -12.035156 C 1.433594 -12.054688 1.433594 -12.070312 1.433594 -12.078125 L 1.433594 -0.28125 C 1.433594 -0.292969 1.433594 -0.304688 1.425781 -0.324219 C 1.410156 -0.367188 1.386719 -0.410156 1.351562 -0.449219 C 1.285156 -0.515625 1.21875 -0.550781 1.148438 -0.550781 L 7.644531 -0.550781 C 7.632812 -0.550781 7.617188 -0.546875 7.59375 -0.542969 C 7.546875 -0.527344 7.503906 -0.5 7.46875 -0.460938 C 7.429688 -0.421875 7.402344 -0.378906 7.386719 -0.332031 C 7.378906 -0.3125 7.375 -0.296875 7.375 -0.28125 L 7.375 -2.046875 C 7.375 -2.035156 7.378906 -2.019531 7.386719 -1.996094 C 7.402344 -1.949219 7.429688 -1.90625 7.46875 -1.871094 C 7.503906 -1.832031 7.546875 -1.804688 7.59375 -1.789062 C 7.617188 -1.78125 7.632812 -1.777344 7.644531 -1.777344 L 2.730469 -1.777344 L 2.730469 -5.496094 L 6.605469 -5.496094 C 6.585938 -5.496094 6.566406 -5.492188 6.542969 -5.484375 C 6.496094 -5.464844 6.453125 -5.4375 6.414062 -5.398438 C 6.378906 -5.359375 6.355469 -5.320312 6.34375 -5.277344 C 6.335938 -5.261719 6.335938 -5.25 6.335938 -5.246094 L 6.335938 -6.992188 C 6.335938 -6.984375 6.335938 -6.976562 6.34375 -6.957031 C 6.355469 -6.914062 6.378906 -6.875 6.414062 -6.839844 C 6.453125 -6.800781 6.496094 -6.769531 6.542969 -6.753906 C 6.566406 -6.746094 6.585938 -6.742188 6.605469 -6.742188 L 2.730469 -6.742188 L 2.730469 -10.5625 L 7.644531 -10.5625 C 7.628906 -10.5625 7.609375 -10.558594 7.585938 -10.550781 C 7.535156 -10.535156 7.492188 -10.503906 7.457031 -10.464844 C 7.421875 -10.429688 7.398438 -10.390625 7.382812 -10.34375 C 7.378906 -10.328125 7.375 -10.316406 7.375 -10.3125 Z M 7.375 -12.078125 "/></g></g><g style="fill:#b21a22;fill-opacity:1;"><g transform="translate(39.228979, 54.937554)"><path style="stroke:none" d="M 6.480469 -12.910156 L 8.140625 -12.910156 C 8.386719 -12.910156 8.585938 -12.835938 8.742188 -12.679688 C 8.898438 -12.523438 8.972656 -12.324219 8.972656 -12.078125 L 8.972656 -0.28125 C 8.972656 -0.0351562 8.898438 0.164062 8.742188 0.320312 C 8.585938 0.472656 8.386719 0.550781 8.140625 0.550781 L 6.746094 0.550781 C 6.554688 0.550781 6.386719 0.496094 6.238281 0.390625 C 6.105469 0.296875 6 0.164062 5.925781 0 L 6.425781 -0.230469 L 5.933594 0.015625 L 2.613281 -6.730469 L 3.109375 -6.972656 L 3.660156 -6.972656 L 3.660156 -0.28125 C 3.660156 -0.0351562 3.582031 0.164062 3.425781 0.320312 C 3.273438 0.472656 3.070312 0.550781 2.824219 0.550781 L 1.164062 0.550781 C 0.917969 0.550781 0.71875 0.472656 0.5625 0.320312 C 0.410156 0.164062 0.332031 -0.0351562 0.332031 -0.28125 L 0.332031 -12.078125 C 0.332031 -12.324219 0.410156 -12.523438 0.5625 -12.679688 C 0.71875 -12.835938 0.917969 -12.910156 1.164062 -12.910156 L 2.558594 -12.910156 C 2.75 -12.910156 2.917969 -12.859375 3.070312 -12.75 C 3.199219 -12.65625 3.304688 -12.527344 3.378906 -12.363281 L 2.878906 -12.128906 L 3.375 -12.375 L 6.691406 -5.628906 L 6.199219 -5.386719 L 5.644531 -5.386719 L 5.644531 -12.078125 C 5.644531 -12.324219 5.722656 -12.523438 5.878906 -12.679688 C 6.03125 -12.835938 6.234375 -12.910156 6.480469 -12.910156 Z M 6.480469 -11.808594 C 6.492188 -11.808594 6.511719 -11.8125 6.53125 -11.820312 C 6.578125 -11.835938 6.621094 -11.863281 6.660156 -11.898438 C 6.695312 -11.9375 6.722656 -11.980469 6.738281 -12.027344 C 6.746094 -12.046875 6.75 -12.066406 6.75 -12.078125 L 6.75 -5.386719 L 5.703125 -5.140625 L 2.378906 -11.894531 L 2.378906 -11.898438 C 2.382812 -11.886719 2.398438 -11.875 2.421875 -11.855469 C 2.464844 -11.824219 2.511719 -11.808594 2.558594 -11.808594 L 1.164062 -11.808594 C 1.179688 -11.808594 1.195312 -11.8125 1.214844 -11.820312 C 1.261719 -11.835938 1.304688 -11.863281 1.34375 -11.898438 C 1.382812 -11.9375 1.410156 -11.980469 1.425781 -12.027344 C 1.429688 -12.046875 1.433594 -12.066406 1.433594 -12.078125 L 1.433594 -0.28125 C 1.433594 -0.296875 1.429688 -0.3125 1.425781 -0.332031 C 1.410156 -0.378906 1.382812 -0.421875 1.34375 -0.460938 C 1.304688 -0.5 1.261719 -0.527344 1.214844 -0.542969 C 1.195312 -0.546875 1.179688 -0.550781 1.164062 -0.550781 L 2.824219 -0.550781 C 2.8125 -0.550781 2.796875 -0.546875 2.773438 -0.542969 C 2.726562 -0.527344 2.683594 -0.5 2.648438 -0.460938 C 2.609375 -0.421875 2.582031 -0.378906 2.566406 -0.332031 C 2.558594 -0.3125 2.554688 -0.296875 2.554688 -0.28125 L 2.554688 -6.972656 L 3.601562 -7.21875 L 6.925781 -0.46875 L 6.929688 -0.460938 C 6.921875 -0.472656 6.90625 -0.488281 6.882812 -0.503906 C 6.839844 -0.535156 6.792969 -0.550781 6.746094 -0.550781 L 8.140625 -0.550781 C 8.128906 -0.550781 8.109375 -0.546875 8.089844 -0.542969 C 8.042969 -0.527344 8 -0.5 7.960938 -0.460938 C 7.921875 -0.421875 7.898438 -0.378906 7.882812 -0.332031 C 7.875 -0.3125 7.871094 -0.296875 7.871094 -0.28125 L 7.871094 -12.078125 C 7.871094 -12.066406 7.875 -12.046875 7.882812 -12.027344 C 7.898438 -11.980469 7.921875 -11.9375 7.960938 -11.898438 C 8 -11.863281 8.042969 -11.835938 8.089844 -11.820312 C 8.109375 -11.8125 8.128906 -11.808594 8.140625 -11.808594 Z M 6.480469 -11.808594 "/></g></g><g style="fill:#b21a22;fill-opacity:1;"><g transform="translate(48.531383, 54.937554)"><path style="stroke:none" d="M 0.332031 -0.28125 L 0.332031 -12.078125 C 0.332031 -12.324219 0.410156 -12.523438 0.5625 -12.679688 C 0.71875 -12.835938 0.917969 -12.910156 1.164062 -12.910156 L 5.402344 -12.910156 C 6.394531 -12.910156 7.15625 -12.640625 7.695312 -12.09375 C 8.230469 -11.550781 8.496094 -10.785156 8.496094 -9.800781 L 8.496094 -2.542969 C 8.496094 -1.566406 8.230469 -0.808594 7.695312 -0.265625 C 7.15625 0.277344 6.394531 0.550781 5.402344 0.550781 L 1.164062 0.550781 C 0.917969 0.550781 0.71875 0.472656 0.5625 0.320312 C 0.410156 0.164062 0.332031 -0.0351562 0.332031 -0.28125 Z M 1.433594 -0.28125 C 1.433594 -0.296875 1.429688 -0.3125 1.425781 -0.332031 C 1.410156 -0.378906 1.382812 -0.421875 1.34375 -0.460938 C 1.304688 -0.5 1.261719 -0.527344 1.214844 -0.542969 C 1.195312 -0.546875 1.179688 -0.550781 1.164062 -0.550781 L 5.402344 -0.550781 C 6.085938 -0.550781 6.585938 -0.714844 6.910156 -1.039062 C 7.230469 -1.367188 7.394531 -1.871094 7.394531 -2.542969 L 7.394531 -9.800781 C 7.394531 -10.484375 7.230469 -10.992188 6.910156 -11.320312 C 6.585938 -11.644531 6.085938 -11.808594 5.402344 -11.808594 L 1.164062 -11.808594 C 1.179688 -11.808594 1.195312 -11.8125 1.214844 -11.820312 C 1.261719 -11.835938 1.304688 -11.863281 1.34375 -11.898438 C 1.382812 -11.9375 1.410156 -11.980469 1.425781 -12.027344 C 1.429688 -12.046875 1.433594 -12.066406 1.433594 -12.078125 Z M 3.285156 -2.882812 L 4.910156 -2.882812 C 4.964844 -2.882812 5.011719 -2.886719 5.042969 -2.898438 C 5.050781 -2.898438 5.054688 -2.902344 5.054688 -2.902344 C 5.054688 -2.902344 5.050781 -2.898438 5.046875 -2.898438 C 5.046875 -2.894531 5.042969 -2.894531 5.042969 -2.890625 C 5.042969 -2.894531 5.046875 -2.898438 5.046875 -2.902344 C 5.058594 -2.933594 5.0625 -2.980469 5.0625 -3.035156 L 5.0625 -9.304688 C 5.0625 -9.367188 5.058594 -9.417969 5.046875 -9.453125 C 5.042969 -9.457031 5.042969 -9.464844 5.039062 -9.46875 C 5.039062 -9.464844 5.042969 -9.464844 5.042969 -9.464844 L 5.039062 -9.460938 C 5.007812 -9.472656 4.964844 -9.476562 4.910156 -9.476562 L 3.285156 -9.476562 L 3.285156 -10.027344 L 3.835938 -10.027344 L 3.835938 -2.332031 L 3.285156 -2.332031 Z M 2.730469 -1.777344 L 2.730469 -10.582031 L 4.910156 -10.582031 C 5.300781 -10.582031 5.605469 -10.464844 5.832031 -10.234375 C 6.054688 -10.003906 6.167969 -9.695312 6.167969 -9.304688 L 6.167969 -3.035156 C 6.167969 -2.648438 6.054688 -2.34375 5.828125 -2.117188 C 5.601562 -1.890625 5.296875 -1.777344 4.910156 -1.777344 Z M 2.730469 -1.777344 "/></g></g><g style="fill:#b21a22;fill-opacity:1;"><g transform="translate(57.35719, 54.937554)"><path style="stroke:none" d="M 1.164062 -0.550781 L 3 -0.550781 C 2.988281 -0.550781 2.972656 -0.546875 2.949219 -0.542969 C 2.902344 -0.527344 2.859375 -0.5 2.824219 -0.460938 C 2.785156 -0.421875 2.757812 -0.378906 2.742188 -0.332031 C 2.734375 -0.3125 2.730469 -0.296875 2.730469 -0.28125 L 2.730469 -12.078125 C 2.730469 -12.066406 2.734375 -12.046875 2.742188 -12.027344 C 2.757812 -11.980469 2.785156 -11.9375 2.824219 -11.898438 C 2.859375 -11.863281 2.902344 -11.835938 2.949219 -11.820312 C 2.972656 -11.8125 2.988281 -11.808594 3 -11.808594 L 1.164062 -11.808594 C 1.179688 -11.808594 1.195312 -11.8125 1.214844 -11.820312 C 1.261719 -11.835938 1.304688 -11.863281 1.34375 -11.898438 C 1.382812 -11.9375 1.410156 -11.980469 1.425781 -12.027344 C 1.429688 -12.046875 1.433594 -12.066406 1.433594 -12.078125 L 1.433594 -0.28125 C 1.433594 -0.296875 1.429688 -0.3125 1.425781 -0.332031 C 1.410156 -0.378906 1.382812 -0.421875 1.34375 -0.460938 C 1.304688 -0.5 1.261719 -0.527344 1.214844 -0.542969 C 1.195312 -0.546875 1.179688 -0.550781 1.164062 -0.550781 Z M 1.164062 0.550781 C 0.917969 0.550781 0.71875 0.472656 0.5625 0.320312 C 0.410156 0.164062 0.332031 -0.0351562 0.332031 -0.28125 L 0.332031 -12.078125 C 0.332031 -12.324219 0.410156 -12.523438 0.5625 -12.679688 C 0.71875 -12.835938 0.917969 -12.910156 1.164062 -12.910156 L 3 -12.910156 C 3.25 -12.910156 3.449219 -12.835938 3.605469 -12.679688 C 3.757812 -12.523438 3.835938 -12.324219 3.835938 -12.078125 L 3.835938 -0.28125 C 3.835938 -0.0351562 3.757812 0.164062 3.605469 0.320312 C 3.449219 0.472656 3.25 0.550781 3 0.550781 Z M 1.164062 0.550781 "/></g></g><g style="fill:#b21a22;fill-opacity:1;"><g transform="translate(61.522968, 54.937554)"><path style="stroke:none" d="M 6.480469 -12.910156 L 8.140625 -12.910156 C 8.386719 -12.910156 8.585938 -12.835938 8.742188 -12.679688 C 8.898438 -12.523438 8.972656 -12.324219 8.972656 -12.078125 L 8.972656 -0.28125 C 8.972656 -0.0351562 8.898438 0.164062 8.742188 0.320312 C 8.585938 0.472656 8.386719 0.550781 8.140625 0.550781 L 6.746094 0.550781 C 6.554688 0.550781 6.386719 0.496094 6.238281 0.390625 C 6.105469 0.296875 6 0.164062 5.925781 0 L 6.425781 -0.230469 L 5.933594 0.015625 L 2.613281 -6.730469 L 3.109375 -6.972656 L 3.660156 -6.972656 L 3.660156 -0.28125 C 3.660156 -0.0351562 3.582031 0.164062 3.425781 0.320312 C 3.273438 0.472656 3.070312 0.550781 2.824219 0.550781 L 1.164062 0.550781 C 0.917969 0.550781 0.71875 0.472656 0.5625 0.320312 C 0.410156 0.164062 0.332031 -0.0351562 0.332031 -0.28125 L 0.332031 -12.078125 C 0.332031 -12.324219 0.410156 -12.523438 0.5625 -12.679688 C 0.71875 -12.835938 0.917969 -12.910156 1.164062 -12.910156 L 2.558594 -12.910156 C 2.75 -12.910156 2.917969 -12.859375 3.070312 -12.75 C 3.199219 -12.65625 3.304688 -12.527344 3.378906 -12.363281 L 2.878906 -12.128906 L 3.375 -12.375 L 6.691406 -5.628906 L 6.199219 -5.386719 L 5.644531 -5.386719 L 5.644531 -12.078125 C 5.644531 -12.324219 5.722656 -12.523438 5.878906 -12.679688 C 6.03125 -12.835938 6.234375 -12.910156 6.480469 -12.910156 Z M 6.480469 -11.808594 C 6.492188 -11.808594 6.511719 -11.8125 6.53125 -11.820312 C 6.578125 -11.835938 6.621094 -11.863281 6.660156 -11.898438 C 6.695312 -11.9375 6.722656 -11.980469 6.738281 -12.027344 C 6.746094 -12.046875 6.75 -12.066406 6.75 -12.078125 L 6.75 -5.386719 L 5.703125 -5.140625 L 2.378906 -11.894531 L 2.378906 -11.898438 C 2.382812 -11.886719 2.398438 -11.875 2.421875 -11.855469 C 2.464844 -11.824219 2.511719 -11.808594 2.558594 -11.808594 L 1.164062 -11.808594 C 1.179688 -11.808594 1.195312 -11.8125 1.214844 -11.820312 C 1.261719 -11.835938 1.304688 -11.863281 1.34375 -11.898438 C 1.382812 -11.9375 1.410156 -11.980469 1.425781 -12.027344 C 1.429688 -12.046875 1.433594 -12.066406 1.433594 -12.078125 L 1.433594 -0.28125 C 1.433594 -0.296875 1.429688 -0.3125 1.425781 -0.332031 C 1.410156 -0.378906 1.382812 -0.421875 1.34375 -0.460938 C 1.304688 -0.5 1.261719 -0.527344 1.214844 -0.542969 C 1.195312 -0.546875 1.179688 -0.550781 1.164062 -0.550781 L 2.824219 -0.550781 C 2.8125 -0.550781 2.796875 -0.546875 2.773438 -0.542969 C 2.726562 -0.527344 2.683594 -0.5 2.648438 -0.460938 C 2.609375 -0.421875 2.582031 -0.378906 2.566406 -0.332031 C 2.558594 -0.3125 2.554688 -0.296875 2.554688 -0.28125 L 2.554688 -6.972656 L 3.601562 -7.21875 L 6.925781 -0.46875 L 6.929688 -0.460938 C 6.921875 -0.472656 6.90625 -0.488281 6.882812 -0.503906 C 6.839844 -0.535156 6.792969 -0.550781 6.746094 -0.550781 L 8.140625 -0.550781 C 8.128906 -0.550781 8.109375 -0.546875 8.089844 -0.542969 C 8.042969 -0.527344 8 -0.5 7.960938 -0.460938 C 7.921875 -0.421875 7.898438 -0.378906 7.882812 -0.332031 C 7.875 -0.3125 7.871094 -0.296875 7.871094 -0.28125 L 7.871094 -12.078125 C 7.871094 -12.066406 7.875 -12.046875 7.882812 -12.027344 C 7.898438 -11.980469 7.921875 -11.9375 7.960938 -11.898438 C 8 -11.863281 8.042969 -11.835938 8.089844 -11.820312 C 8.109375 -11.8125 8.128906 -11.808594 8.140625 -11.808594 Z M 6.480469 -11.808594 "/></g></g><g style="fill:#b21a22;fill-opacity:1;"><g transform="translate(70.825372, 54.937554)"><path style="stroke:none" d="M 0.332031 -2.542969 L 0.332031 -9.816406 C 0.332031 -10.808594 0.605469 -11.570312 1.148438 -12.109375 C 1.691406 -12.644531 2.449219 -12.910156 3.425781 -12.910156 L 5.402344 -12.910156 C 6.378906 -12.910156 7.136719 -12.644531 7.679688 -12.109375 C 8.226562 -11.570312 8.496094 -10.808594 8.496094 -9.816406 L 8.496094 -8.511719 C 8.496094 -8.265625 8.421875 -8.0625 8.265625 -7.910156 C 8.109375 -7.753906 7.910156 -7.675781 7.664062 -7.675781 L 6.003906 -7.675781 C 5.757812 -7.675781 5.554688 -7.753906 5.402344 -7.910156 C 5.246094 -8.0625 5.167969 -8.265625 5.167969 -8.511719 L 5.167969 -9.375 C 5.167969 -9.433594 5.164062 -9.480469 5.152344 -9.511719 C 5.152344 -9.515625 5.148438 -9.519531 5.148438 -9.523438 C 5.148438 -9.519531 5.152344 -9.519531 5.152344 -9.515625 C 5.15625 -9.511719 5.160156 -9.511719 5.160156 -9.507812 C 5.160156 -9.511719 5.15625 -9.511719 5.148438 -9.515625 C 5.117188 -9.523438 5.074219 -9.53125 5.015625 -9.53125 L 3.882812 -9.53125 C 3.828125 -9.53125 3.78125 -9.523438 3.75 -9.515625 C 3.746094 -9.511719 3.742188 -9.511719 3.738281 -9.507812 C 3.738281 -9.511719 3.742188 -9.511719 3.746094 -9.515625 C 3.746094 -9.519531 3.75 -9.519531 3.75 -9.523438 C 3.75 -9.519531 3.746094 -9.515625 3.746094 -9.511719 C 3.734375 -9.480469 3.730469 -9.433594 3.730469 -9.375 L 3.730469 -2.984375 C 3.730469 -2.925781 3.734375 -2.882812 3.746094 -2.847656 C 3.746094 -2.84375 3.75 -2.839844 3.75 -2.835938 C 3.75 -2.839844 3.746094 -2.84375 3.746094 -2.84375 C 3.742188 -2.847656 3.738281 -2.847656 3.738281 -2.851562 C 3.742188 -2.847656 3.746094 -2.847656 3.75 -2.84375 C 3.78125 -2.835938 3.828125 -2.828125 3.882812 -2.828125 L 5.015625 -2.828125 C 5.074219 -2.828125 5.117188 -2.835938 5.148438 -2.84375 C 5.15625 -2.847656 5.160156 -2.847656 5.160156 -2.851562 C 5.160156 -2.847656 5.15625 -2.847656 5.152344 -2.84375 C 5.152344 -2.84375 5.148438 -2.839844 5.148438 -2.835938 C 5.148438 -2.839844 5.152344 -2.84375 5.152344 -2.847656 C 5.164062 -2.882812 5.167969 -2.925781 5.167969 -2.984375 L 5.167969 -4.519531 L 5.722656 -4.519531 L 5.722656 -3.96875 L 4.804688 -3.96875 C 4.554688 -3.96875 4.355469 -4.046875 4.199219 -4.199219 C 4.046875 -4.355469 3.96875 -4.554688 3.96875 -4.804688 L 3.96875 -6.570312 C 3.96875 -6.816406 4.046875 -7.015625 4.199219 -7.171875 C 4.355469 -7.324219 4.554688 -7.402344 4.804688 -7.402344 L 7.664062 -7.402344 C 7.910156 -7.402344 8.109375 -7.324219 8.265625 -7.171875 C 8.421875 -7.015625 8.496094 -6.816406 8.496094 -6.570312 L 8.496094 -2.542969 C 8.496094 -1.566406 8.226562 -0.804688 7.683594 -0.261719 C 7.140625 0.28125 6.378906 0.550781 5.402344 0.550781 L 3.425781 0.550781 C 2.449219 0.550781 1.6875 0.28125 1.144531 -0.261719 C 0.601562 -0.804688 0.332031 -1.566406 0.332031 -2.542969 Z M 1.433594 -2.542969 C 1.433594 -1.871094 1.597656 -1.371094 1.925781 -1.042969 C 2.253906 -0.714844 2.753906 -0.550781 3.425781 -0.550781 L 5.402344 -0.550781 C 6.074219 -0.550781 6.574219 -0.714844 6.902344 -1.042969 C 7.230469 -1.371094 7.394531 -1.871094 7.394531 -2.542969 L 7.394531 -6.570312 C 7.394531 -6.554688 7.398438 -6.539062 7.40625 -6.515625 C 7.421875 -6.46875 7.445312 -6.429688 7.484375 -6.390625 C 7.523438 -6.351562 7.566406 -6.324219 7.613281 -6.308594 C 7.632812 -6.300781 7.652344 -6.300781 7.664062 -6.300781 L 4.804688 -6.300781 C 4.816406 -6.300781 4.832031 -6.300781 4.855469 -6.308594 C 4.902344 -6.324219 4.941406 -6.351562 4.980469 -6.390625 C 5.019531 -6.429688 5.046875 -6.46875 5.0625 -6.515625 C 5.070312 -6.539062 5.070312 -6.554688 5.070312 -6.570312 L 5.070312 -4.804688 C 5.070312 -4.816406 5.070312 -4.832031 5.0625 -4.855469 C 5.046875 -4.902344 5.019531 -4.941406 4.980469 -4.980469 C 4.941406 -5.019531 4.902344 -5.046875 4.855469 -5.0625 C 4.832031 -5.070312 4.816406 -5.070312 4.804688 -5.070312 L 6.273438 -5.070312 L 6.273438 -2.984375 C 6.273438 -2.597656 6.160156 -2.289062 5.933594 -2.0625 C 5.710938 -1.839844 5.402344 -1.726562 5.015625 -1.726562 L 3.882812 -1.726562 C 3.496094 -1.726562 3.191406 -1.839844 2.964844 -2.0625 C 2.738281 -2.289062 2.625 -2.597656 2.625 -2.984375 L 2.625 -9.375 C 2.625 -9.765625 2.738281 -10.070312 2.964844 -10.296875 C 3.191406 -10.519531 3.496094 -10.632812 3.882812 -10.632812 L 5.015625 -10.632812 C 5.402344 -10.632812 5.710938 -10.519531 5.933594 -10.296875 C 6.160156 -10.070312 6.273438 -9.765625 6.273438 -9.375 L 6.273438 -8.511719 C 6.273438 -8.523438 6.269531 -8.539062 6.261719 -8.5625 C 6.246094 -8.609375 6.21875 -8.652344 6.183594 -8.6875 C 6.144531 -8.726562 6.101562 -8.753906 6.054688 -8.769531 C 6.03125 -8.777344 6.015625 -8.78125 6.003906 -8.78125 L 7.664062 -8.78125 C 7.652344 -8.78125 7.632812 -8.777344 7.613281 -8.769531 C 7.566406 -8.753906 7.523438 -8.726562 7.484375 -8.6875 C 7.445312 -8.652344 7.421875 -8.609375 7.40625 -8.5625 C 7.398438 -8.539062 7.394531 -8.523438 7.394531 -8.511719 L 7.394531 -9.816406 C 7.394531 -10.5 7.230469 -11 6.90625 -11.324219 C 6.578125 -11.644531 6.078125 -11.808594 5.402344 -11.808594 L 3.425781 -11.808594 C 2.753906 -11.808594 2.25 -11.644531 1.921875 -11.324219 C 1.597656 -11 1.433594 -10.5 1.433594 -9.816406 Z M 1.433594 -2.542969 "/></g></g><g style="fill:#b21a22;fill-opacity:1;"><g transform="translate(29.083995, 79.554685)"><path style="stroke:none" d="M -0.550781 2.367188 L -0.550781 0.742188 C -0.550781 0.472656 -0.46875 0.253906 -0.300781 0.0859375 C -0.136719 -0.078125 0.0820312 -0.164062 0.351562 -0.164062 L 11 -0.164062 C 11.269531 -0.164062 11.488281 -0.078125 11.65625 0.0859375 C 11.820312 0.253906 11.90625 0.472656 11.90625 0.742188 L 11.90625 2.367188 C 11.90625 2.636719 11.820312 2.855469 11.65625 3.019531 C 11.488281 3.1875 11.269531 3.269531 11 3.269531 L 0.351562 3.269531 C 0.0820312 3.269531 -0.136719 3.1875 -0.300781 3.019531 C -0.46875 2.855469 -0.550781 2.636719 -0.550781 2.367188 Z M 0.550781 2.367188 C 0.550781 2.367188 0.550781 2.371094 0.550781 2.371094 C 0.550781 2.363281 0.546875 2.355469 0.546875 2.347656 C 0.53125 2.308594 0.511719 2.273438 0.476562 2.242188 C 0.445312 2.207031 0.410156 2.1875 0.375 2.171875 C 0.363281 2.171875 0.355469 2.167969 0.347656 2.167969 C 0.347656 2.167969 0.351562 2.167969 0.351562 2.167969 L 11 2.167969 C 11.003906 2.167969 11.003906 2.167969 11.007812 2.167969 C 11.007812 2.167969 11.007812 2.167969 11.003906 2.167969 C 11 2.167969 10.988281 2.171875 10.980469 2.171875 C 10.941406 2.1875 10.90625 2.207031 10.875 2.242188 C 10.84375 2.273438 10.820312 2.308594 10.808594 2.347656 C 10.804688 2.355469 10.804688 2.363281 10.800781 2.371094 C 10.800781 2.371094 10.800781 2.367188 10.800781 2.367188 L 10.800781 0.742188 C 10.800781 0.738281 10.800781 0.738281 10.800781 0.734375 C 10.800781 0.734375 10.800781 0.734375 10.800781 0.738281 C 10.804688 0.742188 10.804688 0.753906 10.808594 0.761719 C 10.820312 0.800781 10.84375 0.835938 10.875 0.867188 C 10.90625 0.898438 10.941406 0.921875 10.980469 0.933594 C 10.988281 0.9375 11 0.9375 11.003906 0.941406 C 11.007812 0.941406 11.007812 0.941406 11.007812 0.941406 C 11.003906 0.941406 11.003906 0.941406 11 0.941406 L 0.351562 0.941406 C 0.351562 0.941406 0.347656 0.941406 0.347656 0.941406 C 0.355469 0.9375 0.363281 0.9375 0.375 0.933594 C 0.410156 0.921875 0.445312 0.898438 0.476562 0.867188 C 0.511719 0.835938 0.53125 0.800781 0.546875 0.761719 C 0.546875 0.753906 0.550781 0.742188 0.550781 0.738281 C 0.550781 0.734375 0.550781 0.734375 0.550781 0.734375 C 0.550781 0.738281 0.550781 0.738281 0.550781 0.742188 Z M 0.550781 2.367188 "/></g></g><g style="fill:#b21a22;fill-opacity:1;"><g transform="translate(40.433985, 79.554685)"><path style="stroke:none" d="M 8.496094 -12.078125 L 8.496094 -10.3125 C 8.496094 -10.066406 8.421875 -9.863281 8.265625 -9.710938 C 8.109375 -9.554688 7.910156 -9.476562 7.664062 -9.476562 L 3.285156 -9.476562 L 3.285156 -10.027344 L 3.835938 -10.027344 L 3.835938 -7.011719 L 3.285156 -7.011719 L 3.285156 -7.5625 L 6.605469 -7.5625 C 6.851562 -7.5625 7.050781 -7.484375 7.207031 -7.328125 C 7.359375 -7.175781 7.4375 -6.972656 7.4375 -6.726562 L 7.4375 -4.960938 C 7.4375 -4.714844 7.359375 -4.515625 7.207031 -4.359375 C 7.050781 -4.203125 6.851562 -4.128906 6.605469 -4.128906 L 3.285156 -4.128906 L 3.285156 -4.679688 L 3.835938 -4.679688 L 3.835938 -0.28125 C 3.835938 -0.0351562 3.757812 0.164062 3.605469 0.320312 C 3.449219 0.472656 3.25 0.550781 3 0.550781 L 1.164062 0.550781 C 0.917969 0.550781 0.71875 0.472656 0.5625 0.320312 C 0.410156 0.164062 0.332031 -0.0351562 0.332031 -0.28125 L 0.332031 -12.078125 C 0.332031 -12.324219 0.410156 -12.523438 0.5625 -12.679688 C 0.71875 -12.835938 0.917969 -12.910156 1.164062 -12.910156 L 7.664062 -12.910156 C 7.910156 -12.910156 8.109375 -12.835938 8.265625 -12.679688 C 8.421875 -12.523438 8.496094 -12.324219 8.496094 -12.078125 Z M 7.394531 -12.078125 C 7.394531 -12.066406 7.398438 -12.046875 7.40625 -12.027344 C 7.421875 -11.980469 7.445312 -11.9375 7.484375 -11.898438 C 7.523438 -11.863281 7.566406 -11.835938 7.613281 -11.820312 C 7.632812 -11.8125 7.652344 -11.808594 7.664062 -11.808594 L 1.164062 -11.808594 C 1.179688 -11.808594 1.195312 -11.8125 1.214844 -11.820312 C 1.261719 -11.835938 1.304688 -11.863281 1.34375 -11.898438 C 1.382812 -11.9375 1.410156 -11.980469 1.425781 -12.027344 C 1.429688 -12.046875 1.433594 -12.066406 1.433594 -12.078125 L 1.433594 -0.28125 C 1.433594 -0.296875 1.429688 -0.3125 1.425781 -0.332031 C 1.410156 -0.378906 1.382812 -0.421875 1.34375 -0.460938 C 1.304688 -0.5 1.261719 -0.527344 1.214844 -0.542969 C 1.195312 -0.546875 1.179688 -0.550781 1.164062 -0.550781 L 3 -0.550781 C 2.988281 -0.550781 2.972656 -0.546875 2.949219 -0.542969 C 2.902344 -0.527344 2.859375 -0.5 2.824219 -0.460938 C 2.785156 -0.421875 2.757812 -0.378906 2.742188 -0.332031 C 2.734375 -0.3125 2.730469 -0.296875 2.730469 -0.28125 L 2.730469 -5.230469 L 6.605469 -5.230469 C 6.589844 -5.230469 6.574219 -5.226562 6.554688 -5.21875 C 6.503906 -5.203125 6.464844 -5.179688 6.425781 -5.140625 C 6.386719 -5.101562 6.359375 -5.058594 6.34375 -5.011719 C 6.339844 -4.992188 6.335938 -4.972656 6.335938 -4.960938 L 6.335938 -6.726562 C 6.335938 -6.714844 6.339844 -6.699219 6.34375 -6.675781 C 6.359375 -6.628906 6.386719 -6.585938 6.425781 -6.550781 C 6.464844 -6.511719 6.503906 -6.484375 6.554688 -6.46875 C 6.574219 -6.460938 6.589844 -6.457031 6.605469 -6.457031 L 2.730469 -6.457031 L 2.730469 -10.582031 L 7.664062 -10.582031 C 7.652344 -10.582031 7.632812 -10.578125 7.613281 -10.570312 C 7.566406 -10.554688 7.523438 -10.527344 7.484375 -10.488281 C 7.445312 -10.453125 7.421875 -10.410156 7.40625 -10.363281 C 7.398438 -10.339844 7.394531 -10.324219 7.394531 -10.3125 Z M 7.394531 -12.078125 "/></g></g><g style="fill:#b21a22;fill-opacity:1;"><g transform="translate(49.259793, 79.554685)"><path style="stroke:none" d="M 0.332031 -2.542969 L 0.332031 -9.816406 C 0.332031 -10.808594 0.605469 -11.570312 1.148438 -12.109375 C 1.691406 -12.644531 2.449219 -12.910156 3.425781 -12.910156 L 5.402344 -12.910156 C 6.390625 -12.910156 7.152344 -12.644531 7.691406 -12.105469 C 8.230469 -11.566406 8.496094 -10.804688 8.496094 -9.816406 L 8.496094 -2.542969 C 8.496094 -1.566406 8.230469 -0.808594 7.695312 -0.265625 C 7.15625 0.277344 6.394531 0.550781 5.402344 0.550781 L 3.425781 0.550781 C 2.449219 0.550781 1.6875 0.28125 1.144531 -0.261719 C 0.601562 -0.804688 0.332031 -1.566406 0.332031 -2.542969 Z M 1.433594 -2.542969 C 1.433594 -1.871094 1.597656 -1.371094 1.925781 -1.042969 C 2.253906 -0.714844 2.753906 -0.550781 3.425781 -0.550781 L 5.402344 -0.550781 C 6.085938 -0.550781 6.585938 -0.714844 6.910156 -1.039062 C 7.230469 -1.367188 7.394531 -1.871094 7.394531 -2.542969 L 7.394531 -9.816406 C 7.394531 -10.5 7.234375 -11.003906 6.910156 -11.324219 C 6.589844 -11.648438 6.085938 -11.808594 5.402344 -11.808594 L 3.425781 -11.808594 C 2.753906 -11.808594 2.25 -11.644531 1.921875 -11.324219 C 1.597656 -11 1.433594 -10.5 1.433594 -9.816406 Z M 3.882812 -2.828125 L 5.015625 -2.828125 C 5.074219 -2.828125 5.117188 -2.835938 5.148438 -2.84375 C 5.15625 -2.847656 5.160156 -2.847656 5.160156 -2.851562 C 5.160156 -2.847656 5.15625 -2.847656 5.152344 -2.84375 C 5.152344 -2.84375 5.148438 -2.839844 5.148438 -2.835938 C 5.148438 -2.839844 5.152344 -2.84375 5.152344 -2.847656 C 5.164062 -2.882812 5.167969 -2.925781 5.167969 -2.984375 L 5.167969 -9.375 C 5.167969 -9.433594 5.164062 -9.480469 5.152344 -9.511719 C 5.152344 -9.515625 5.148438 -9.519531 5.148438 -9.523438 C 5.148438 -9.519531 5.152344 -9.519531 5.152344 -9.515625 C 5.15625 -9.511719 5.160156 -9.511719 5.160156 -9.507812 C 5.160156 -9.511719 5.15625 -9.511719 5.148438 -9.515625 C 5.117188 -9.523438 5.074219 -9.53125 5.015625 -9.53125 L 3.882812 -9.53125 C 3.828125 -9.53125 3.78125 -9.523438 3.75 -9.515625 C 3.746094 -9.511719 3.742188 -9.511719 3.738281 -9.507812 C 3.738281 -9.511719 3.742188 -9.511719 3.746094 -9.515625 C 3.746094 -9.519531 3.75 -9.519531 3.75 -9.523438 C 3.75 -9.519531 3.746094 -9.515625 3.746094 -9.511719 C 3.734375 -9.480469 3.730469 -9.433594 3.730469 -9.375 L 3.730469 -2.984375 C 3.730469 -2.925781 3.734375 -2.882812 3.746094 -2.847656 C 3.746094 -2.84375 3.75 -2.839844 3.75 -2.835938 C 3.75 -2.839844 3.746094 -2.84375 3.746094 -2.84375 C 3.742188 -2.847656 3.738281 -2.847656 3.738281 -2.851562 C 3.742188 -2.847656 3.746094 -2.847656 3.75 -2.84375 C 3.78125 -2.835938 3.828125 -2.828125 3.882812 -2.828125 Z M 3.882812 -1.726562 C 3.496094 -1.726562 3.191406 -1.839844 2.964844 -2.0625 C 2.738281 -2.289062 2.625 -2.597656 2.625 -2.984375 L 2.625 -9.375 C 2.625 -9.765625 2.738281 -10.070312 2.964844 -10.296875 C 3.191406 -10.519531 3.496094 -10.632812 3.882812 -10.632812 L 5.015625 -10.632812 C 5.402344 -10.632812 5.710938 -10.519531 5.933594 -10.296875 C 6.160156 -10.070312 6.273438 -9.765625 6.273438 -9.375 L 6.273438 -2.984375 C 6.273438 -2.597656 6.160156 -2.289062 5.933594 -2.0625 C 5.710938 -1.839844 5.402344 -1.726562 5.015625 -1.726562 Z M 3.882812 -1.726562 "/></g></g><g style="fill:#b21a22;fill-opacity:1;"><g transform="translate(58.0856, 79.554685)"><path style="stroke:none" d="M 8.496094 -9.816406 L 8.496094 -6.269531 C 8.496094 -5.039062 8.082031 -4.167969 7.25 -3.644531 L 6.957031 -4.113281 L 7.492188 -4.242188 L 8.410156 -0.449219 L 7.875 -0.316406 L 8.40625 -0.464844 C 8.484375 -0.179688 8.449219 0.0585938 8.292969 0.257812 C 8.140625 0.453125 7.917969 0.550781 7.628906 0.550781 L 5.898438 0.550781 C 5.683594 0.550781 5.5 0.488281 5.347656 0.363281 C 5.199219 0.242188 5.101562 0.078125 5.058594 -0.132812 L 5.597656 -0.246094 L 5.0625 -0.117188 L 4.214844 -3.59375 L 4.75 -3.726562 L 4.75 -3.175781 L 3.179688 -3.175781 L 3.179688 -3.726562 L 3.730469 -3.726562 L 3.730469 -0.28125 C 3.730469 -0.0351562 3.652344 0.164062 3.496094 0.320312 C 3.34375 0.472656 3.140625 0.550781 2.894531 0.550781 L 1.164062 0.550781 C 0.917969 0.550781 0.71875 0.472656 0.5625 0.320312 C 0.410156 0.164062 0.332031 -0.0351562 0.332031 -0.28125 L 0.332031 -12.078125 C 0.332031 -12.324219 0.410156 -12.523438 0.5625 -12.679688 C 0.71875 -12.835938 0.917969 -12.910156 1.164062 -12.910156 L 5.402344 -12.910156 C 6.390625 -12.910156 7.152344 -12.644531 7.691406 -12.105469 C 8.230469 -11.566406 8.496094 -10.804688 8.496094 -9.816406 Z M 7.394531 -9.816406 C 7.394531 -10.5 7.234375 -11.003906 6.910156 -11.324219 C 6.589844 -11.648438 6.085938 -11.808594 5.402344 -11.808594 L 1.164062 -11.808594 C 1.179688 -11.808594 1.195312 -11.8125 1.214844 -11.820312 C 1.261719 -11.835938 1.304688 -11.863281 1.34375 -11.898438 C 1.382812 -11.9375 1.410156 -11.980469 1.425781 -12.027344 C 1.429688 -12.046875 1.433594 -12.066406 1.433594 -12.078125 L 1.433594 -0.28125 C 1.433594 -0.296875 1.429688 -0.3125 1.425781 -0.332031 C 1.410156 -0.378906 1.382812 -0.421875 1.34375 -0.460938 C 1.304688 -0.5 1.261719 -0.527344 1.214844 -0.542969 C 1.195312 -0.546875 1.179688 -0.550781 1.164062 -0.550781 L 2.894531 -0.550781 C 2.882812 -0.550781 2.867188 -0.546875 2.84375 -0.542969 C 2.796875 -0.527344 2.753906 -0.5 2.71875 -0.460938 C 2.679688 -0.421875 2.652344 -0.378906 2.636719 -0.332031 C 2.628906 -0.3125 2.625 -0.296875 2.625 -0.28125 L 2.625 -4.277344 L 5.183594 -4.277344 L 6.136719 -0.371094 L 6.136719 -0.363281 C 6.128906 -0.40625 6.097656 -0.449219 6.050781 -0.488281 C 5.996094 -0.53125 5.945312 -0.550781 5.898438 -0.550781 L 7.628906 -0.550781 C 7.617188 -0.550781 7.601562 -0.546875 7.589844 -0.542969 C 7.523438 -0.519531 7.46875 -0.476562 7.421875 -0.417969 C 7.375 -0.355469 7.347656 -0.289062 7.34375 -0.21875 C 7.339844 -0.195312 7.339844 -0.179688 7.34375 -0.171875 L 7.339844 -0.179688 L 6.328125 -4.371094 L 6.664062 -4.582031 C 7.152344 -4.886719 7.394531 -5.449219 7.394531 -6.269531 Z M 3.179688 -6.554688 L 4.945312 -6.554688 C 5.003906 -6.554688 5.046875 -6.5625 5.078125 -6.570312 C 5.085938 -6.574219 5.089844 -6.574219 5.089844 -6.574219 C 5.089844 -6.574219 5.085938 -6.574219 5.082031 -6.570312 C 5.082031 -6.566406 5.078125 -6.566406 5.078125 -6.5625 C 5.078125 -6.566406 5.082031 -6.570312 5.082031 -6.574219 C 5.09375 -6.605469 5.097656 -6.652344 5.097656 -6.710938 L 5.097656 -9.375 C 5.097656 -9.433594 5.09375 -9.480469 5.082031 -9.511719 C 5.082031 -9.515625 5.078125 -9.519531 5.078125 -9.523438 C 5.078125 -9.519531 5.082031 -9.519531 5.082031 -9.515625 C 5.085938 -9.511719 5.089844 -9.511719 5.089844 -9.507812 C 5.089844 -9.511719 5.085938 -9.511719 5.078125 -9.515625 C 5.046875 -9.523438 5.003906 -9.53125 4.945312 -9.53125 L 3.179688 -9.53125 L 3.179688 -10.082031 L 3.730469 -10.082031 L 3.730469 -6.003906 L 3.179688 -6.003906 Z M 2.625 -5.453125 L 2.625 -10.632812 L 4.945312 -10.632812 C 5.332031 -10.632812 5.636719 -10.519531 5.863281 -10.296875 C 6.089844 -10.070312 6.203125 -9.765625 6.203125 -9.375 L 6.203125 -6.710938 C 6.203125 -6.320312 6.089844 -6.015625 5.863281 -5.789062 C 5.636719 -5.5625 5.332031 -5.453125 4.945312 -5.453125 Z M 2.625 -5.453125 "/></g></g><g style="fill:#060705;fill-opacity:1;"><g transform="translate(25.929925, 30.320424)"><path style="stroke:none" d="M 7.953125 -9.8125 L 7.953125 -6.265625 C 7.953125 -5.242188 7.617188 -4.523438 6.953125 -4.109375 L 7.875 -0.3125 C 7.9375 -0.101562 7.851562 0 7.625 0 L 5.890625 0 C 5.734375 0 5.632812 -0.0820312 5.59375 -0.25 L 4.75 -3.71875 L 3.171875 -3.71875 L 3.171875 -0.28125 C 3.171875 -0.09375 3.078125 0 2.890625 0 L 1.171875 0 C 0.984375 0 0.890625 -0.09375 0.890625 -0.28125 L 0.890625 -12.078125 C 0.890625 -12.265625 0.984375 -12.359375 1.171875 -12.359375 L 5.40625 -12.359375 C 6.238281 -12.359375 6.867188 -12.144531 7.296875 -11.71875 C 7.734375 -11.289062 7.953125 -10.65625 7.953125 -9.8125 Z M 3.171875 -6 L 4.9375 -6 C 5.414062 -6 5.65625 -6.234375 5.65625 -6.703125 L 5.65625 -9.375 C 5.65625 -9.84375 5.414062 -10.078125 4.9375 -10.078125 L 3.171875 -10.078125 Z M 3.171875 -6 "/></g></g><g style="fill:#060705;fill-opacity:1;"><g transform="translate(34.755732, 30.320424)"><path style="stroke:none" d="M 3.421875 -12.359375 L 5.40625 -12.359375 C 6.238281 -12.359375 6.867188 -12.144531 7.296875 -11.71875 C 7.734375 -11.289062 7.953125 -10.65625 7.953125 -9.8125 L 7.953125 -8.65625 C 7.953125 -8.46875 7.851562 -8.375 7.65625 -8.375 L 5.875 -8.375 C 5.6875 -8.375 5.59375 -8.46875 5.59375 -8.65625 L 5.59375 -9.390625 C 5.59375 -9.859375 5.359375 -10.09375 4.890625 -10.09375 L 3.921875 -10.09375 C 3.453125 -10.09375 3.21875 -9.859375 3.21875 -9.390625 L 3.21875 -7.890625 L 7.484375 -6.515625 C 7.796875 -6.410156 7.953125 -6.191406 7.953125 -5.859375 L 7.953125 -2.546875 C 7.953125 -1.722656 7.734375 -1.09375 7.296875 -0.65625 C 6.867188 -0.21875 6.238281 0 5.40625 0 L 3.421875 0 C 2.597656 0 1.96875 -0.21875 1.53125 -0.65625 C 1.101562 -1.09375 0.890625 -1.722656 0.890625 -2.546875 L 0.890625 -3.6875 C 0.890625 -3.875 0.984375 -3.96875 1.171875 -3.96875 L 2.953125 -3.96875 C 3.140625 -3.96875 3.234375 -3.875 3.234375 -3.6875 L 3.234375 -2.953125 C 3.234375 -2.484375 3.46875 -2.25 3.9375 -2.25 L 4.890625 -2.25 C 5.359375 -2.25 5.59375 -2.484375 5.59375 -2.953125 L 5.59375 -4.734375 L 1.359375 -6.109375 C 1.046875 -6.210938 0.890625 -6.429688 0.890625 -6.765625 L 0.890625 -9.8125 C 0.890625 -10.65625 1.101562 -11.289062 1.53125 -11.71875 C 1.96875 -12.144531 2.597656 -12.359375 3.421875 -12.359375 Z M 3.421875 -12.359375 "/></g></g><g style="fill:#060705;fill-opacity:1;"><g transform="translate(43.58154, 30.320424)"><path style="stroke:none" d="M 0.890625 -0.28125 L 0.890625 -12.078125 C 0.890625 -12.265625 0.984375 -12.359375 1.171875 -12.359375 L 5.40625 -12.359375 C 6.238281 -12.359375 6.867188 -12.144531 7.296875 -11.71875 C 7.734375 -11.289062 7.953125 -10.65625 7.953125 -9.8125 L 7.953125 -6.359375 C 7.953125 -5.535156 7.734375 -4.90625 7.296875 -4.46875 C 6.867188 -4.039062 6.238281 -3.820312 5.40625 -3.8125 L 3.171875 -3.796875 L 3.171875 -0.265625 C 3.171875 -0.078125 3.078125 0.015625 2.890625 0.015625 L 1.171875 0 C 0.984375 0 0.890625 -0.09375 0.890625 -0.28125 Z M 3.171875 -6.078125 L 4.9375 -6.09375 C 5.414062 -6.09375 5.65625 -6.328125 5.65625 -6.796875 L 5.65625 -9.375 C 5.65625 -9.84375 5.414062 -10.078125 4.9375 -10.078125 L 3.171875 -10.0625 Z M 3.171875 -6.078125 "/></g></g><g style="fill:#060705;fill-opacity:1;"><g transform="translate(52.407347, 30.320424)"><path style="stroke:none" d="M 7.921875 -12.078125 L 7.921875 -10.3125 C 7.921875 -10.113281 7.828125 -10.015625 7.640625 -10.015625 L 3.28125 -10.015625 L 3.28125 -7.296875 L 6.609375 -7.296875 C 6.796875 -7.296875 6.890625 -7.191406 6.890625 -6.984375 L 6.890625 -5.25 C 6.890625 -5.039062 6.796875 -4.9375 6.609375 -4.9375 L 3.28125 -4.9375 L 3.28125 -2.328125 L 7.640625 -2.328125 C 7.828125 -2.328125 7.921875 -2.234375 7.921875 -2.046875 L 7.921875 -0.28125 C 7.921875 -0.09375 7.828125 0 7.640625 0 L 1.140625 0 C 0.972656 0 0.890625 -0.09375 0.890625 -0.28125 L 0.890625 -12.078125 C 0.890625 -12.265625 0.972656 -12.359375 1.140625 -12.359375 L 7.640625 -12.359375 C 7.828125 -12.359375 7.921875 -12.265625 7.921875 -12.078125 Z M 7.921875 -12.078125 "/></g></g><g style="fill:#060705;fill-opacity:1;"><g transform="translate(61.2155, 30.320424)"><path style="stroke:none" d="M 7.96875 -9.8125 L 7.96875 -7.90625 C 7.96875 -7.71875 7.875 -7.625 7.6875 -7.625 L 6.015625 -7.625 C 5.828125 -7.625 5.734375 -7.71875 5.734375 -7.90625 L 5.734375 -9.359375 C 5.734375 -9.828125 5.5 -10.0625 5.03125 -10.0625 L 3.90625 -10.0625 C 3.4375 -10.0625 3.203125 -9.828125 3.203125 -9.359375 L 3.203125 -2.953125 C 3.203125 -2.484375 3.4375 -2.25 3.90625 -2.25 L 5.03125 -2.25 C 5.5 -2.25 5.734375 -2.484375 5.734375 -2.953125 L 5.734375 -4.453125 C 5.734375 -4.640625 5.828125 -4.734375 6.015625 -4.734375 L 7.6875 -4.734375 C 7.875 -4.734375 7.96875 -4.640625 7.96875 -4.453125 L 7.96875 -2.546875 C 7.96875 -1.722656 7.75 -1.09375 7.3125 -0.65625 C 6.875 -0.21875 6.242188 0 5.421875 0 L 3.4375 0 C 2.613281 0 1.984375 -0.21875 1.546875 -0.65625 C 1.109375 -1.09375 0.890625 -1.722656 0.890625 -2.546875 L 0.890625 -9.8125 C 0.890625 -10.65625 1.109375 -11.289062 1.546875 -11.71875 C 1.984375 -12.144531 2.613281 -12.359375 3.4375 -12.359375 L 5.421875 -12.359375 C 6.242188 -12.359375 6.875 -12.144531 7.3125 -11.71875 C 7.75 -11.289062 7.96875 -10.65625 7.96875 -9.8125 Z M 7.96875 -9.8125 "/></g></g><g style="fill:#060705;fill-opacity:1;"><g transform="translate(16.334839, 54.937554)"><path style="stroke:none" d="M 0.890625 -5.546875 L 0.890625 -7.171875 C 0.890625 -7.398438 1.003906 -7.515625 1.234375 -7.515625 L 4.03125 -7.515625 C 4.257812 -7.515625 4.375 -7.398438 4.375 -7.171875 L 4.375 -5.546875 C 4.375 -5.304688 4.257812 -5.1875 4.03125 -5.1875 L 1.234375 -5.1875 C 1.003906 -5.1875 0.890625 -5.304688 0.890625 -5.546875 Z M 0.890625 -5.546875 "/></g></g><g style="fill:#060705;fill-opacity:1;"><g transform="translate(21.595018, 54.937554)"><path style="stroke:none" d="M 0.890625 -0.28125 L 0.890625 -12.078125 C 0.890625 -12.265625 0.984375 -12.359375 1.171875 -12.359375 L 5.40625 -12.359375 C 6.238281 -12.359375 6.867188 -12.144531 7.296875 -11.71875 C 7.734375 -11.289062 7.953125 -10.65625 7.953125 -9.8125 L 7.953125 -6.359375 C 7.953125 -5.535156 7.734375 -4.90625 7.296875 -4.46875 C 6.867188 -4.039062 6.238281 -3.820312 5.40625 -3.8125 L 3.171875 -3.796875 L 3.171875 -0.265625 C 3.171875 -0.078125 3.078125 0.015625 2.890625 0.015625 L 1.171875 0 C 0.984375 0 0.890625 -0.09375 0.890625 -0.28125 Z M 3.171875 -6.078125 L 4.9375 -6.09375 C 5.414062 -6.09375 5.65625 -6.328125 5.65625 -6.796875 L 5.65625 -9.375 C 5.65625 -9.84375 5.414062 -10.078125 4.9375 -10.078125 L 3.171875 -10.0625 Z M 3.171875 -6.078125 "/></g></g><g style="fill:#060705;fill-opacity:1;"><g transform="translate(30.420826, 54.937554)"><path style="stroke:none" d="M 7.921875 -12.078125 L 7.921875 -10.3125 C 7.921875 -10.113281 7.828125 -10.015625 7.640625 -10.015625 L 3.28125 -10.015625 L 3.28125 -7.296875 L 6.609375 -7.296875 C 6.796875 -7.296875 6.890625 -7.191406 6.890625 -6.984375 L 6.890625 -5.25 C 6.890625 -5.039062 6.796875 -4.9375 6.609375 -4.9375 L 3.28125 -4.9375 L 3.28125 -2.328125 L 7.640625 -2.328125 C 7.828125 -2.328125 7.921875 -2.234375 7.921875 -2.046875 L 7.921875 -0.28125 C 7.921875 -0.09375 7.828125 0 7.640625 0 L 1.140625 0 C 0.972656 0 0.890625 -0.09375 0.890625 -0.28125 L 0.890625 -12.078125 C 0.890625 -12.265625 0.972656 -12.359375 1.140625 -12.359375 L 7.640625 -12.359375 C 7.828125 -12.359375 7.921875 -12.265625 7.921875 -12.078125 Z M 7.921875 -12.078125 "/></g></g><g style="fill:#060705;fill-opacity:1;"><g transform="translate(39.228979, 54.937554)"><path style="stroke:none" d="M 6.484375 -12.359375 L 8.140625 -12.359375 C 8.328125 -12.359375 8.421875 -12.265625 8.421875 -12.078125 L 8.421875 -0.28125 C 8.421875 -0.09375 8.328125 0 8.140625 0 L 6.75 0 C 6.601562 0 6.492188 -0.078125 6.421875 -0.234375 L 3.109375 -6.96875 L 3.109375 -0.28125 C 3.109375 -0.09375 3.015625 0 2.828125 0 L 1.171875 0 C 0.984375 0 0.890625 -0.09375 0.890625 -0.28125 L 0.890625 -12.078125 C 0.890625 -12.265625 0.984375 -12.359375 1.171875 -12.359375 L 2.5625 -12.359375 C 2.695312 -12.359375 2.800781 -12.28125 2.875 -12.125 L 6.203125 -5.390625 L 6.203125 -12.078125 C 6.203125 -12.265625 6.296875 -12.359375 6.484375 -12.359375 Z M 6.484375 -12.359375 "/></g></g><g style="fill:#060705;fill-opacity:1;"><g transform="translate(48.531383, 54.937554)"><path style="stroke:none" d="M 0.890625 -0.28125 L 0.890625 -12.078125 C 0.890625 -12.265625 0.984375 -12.359375 1.171875 -12.359375 L 5.40625 -12.359375 C 6.238281 -12.359375 6.867188 -12.140625 7.296875 -11.703125 C 7.734375 -11.265625 7.953125 -10.628906 7.953125 -9.796875 L 7.953125 -2.546875 C 7.953125 -1.722656 7.734375 -1.09375 7.296875 -0.65625 C 6.867188 -0.21875 6.238281 0 5.40625 0 L 1.171875 0 C 0.984375 0 0.890625 -0.09375 0.890625 -0.28125 Z M 3.28125 -2.328125 L 4.90625 -2.328125 C 5.375 -2.328125 5.609375 -2.5625 5.609375 -3.03125 L 5.609375 -9.3125 C 5.609375 -9.789062 5.375 -10.03125 4.90625 -10.03125 L 3.28125 -10.03125 Z M 3.28125 -2.328125 "/></g></g><g style="fill:#060705;fill-opacity:1;"><g transform="translate(57.35719, 54.937554)"><path style="stroke:none" d="M 1.171875 0 L 3 0 C 3.1875 0 3.28125 -0.09375 3.28125 -0.28125 L 3.28125 -12.078125 C 3.28125 -12.265625 3.1875 -12.359375 3 -12.359375 L 1.171875 -12.359375 C 0.984375 -12.359375 0.890625 -12.265625 0.890625 -12.078125 L 0.890625 -0.28125 C 0.890625 -0.09375 0.984375 0 1.171875 0 Z M 1.171875 0 "/></g></g><g style="fill:#060705;fill-opacity:1;"><g transform="translate(61.522968, 54.937554)"><path style="stroke:none" d="M 6.484375 -12.359375 L 8.140625 -12.359375 C 8.328125 -12.359375 8.421875 -12.265625 8.421875 -12.078125 L 8.421875 -0.28125 C 8.421875 -0.09375 8.328125 0 8.140625 0 L 6.75 0 C 6.601562 0 6.492188 -0.078125 6.421875 -0.234375 L 3.109375 -6.96875 L 3.109375 -0.28125 C 3.109375 -0.09375 3.015625 0 2.828125 0 L 1.171875 0 C 0.984375 0 0.890625 -0.09375 0.890625 -0.28125 L 0.890625 -12.078125 C 0.890625 -12.265625 0.984375 -12.359375 1.171875 -12.359375 L 2.5625 -12.359375 C 2.695312 -12.359375 2.800781 -12.28125 2.875 -12.125 L 6.203125 -5.390625 L 6.203125 -12.078125 C 6.203125 -12.265625 6.296875 -12.359375 6.484375 -12.359375 Z M 6.484375 -12.359375 "/></g></g><g style="fill:#060705;fill-opacity:1;"><g transform="translate(70.825372, 54.937554)"><path style="stroke:none" d="M 0.890625 -2.546875 L 0.890625 -9.8125 C 0.890625 -10.65625 1.101562 -11.289062 1.53125 -11.71875 C 1.96875 -12.144531 2.597656 -12.359375 3.421875 -12.359375 L 5.40625 -12.359375 C 6.226562 -12.359375 6.859375 -12.144531 7.296875 -11.71875 C 7.734375 -11.289062 7.953125 -10.65625 7.953125 -9.8125 L 7.953125 -8.515625 C 7.953125 -8.328125 7.851562 -8.234375 7.65625 -8.234375 L 6 -8.234375 C 5.8125 -8.234375 5.71875 -8.328125 5.71875 -8.515625 L 5.71875 -9.375 C 5.71875 -9.84375 5.484375 -10.078125 5.015625 -10.078125 L 3.890625 -10.078125 C 3.410156 -10.078125 3.171875 -9.84375 3.171875 -9.375 L 3.171875 -2.984375 C 3.171875 -2.515625 3.410156 -2.28125 3.890625 -2.28125 L 5.015625 -2.28125 C 5.484375 -2.28125 5.71875 -2.515625 5.71875 -2.984375 L 5.71875 -4.515625 L 4.796875 -4.515625 C 4.609375 -4.515625 4.515625 -4.609375 4.515625 -4.796875 L 4.515625 -6.5625 C 4.515625 -6.75 4.609375 -6.84375 4.796875 -6.84375 L 7.65625 -6.84375 C 7.851562 -6.84375 7.953125 -6.75 7.953125 -6.5625 L 7.953125 -2.546875 C 7.953125 -1.722656 7.734375 -1.09375 7.296875 -0.65625 C 6.859375 -0.21875 6.226562 0 5.40625 0 L 3.421875 0 C 2.597656 0 1.96875 -0.21875 1.53125 -0.65625 C 1.101562 -1.09375 0.890625 -1.722656 0.890625 -2.546875 Z M 0.890625 -2.546875 "/></g></g><g style="fill:#060705;fill-opacity:1;"><g transform="translate(29.083995, 79.554685)"><path style="stroke:none" d="M 0 2.359375 L 0 0.734375 C 0 0.503906 0.117188 0.390625 0.359375 0.390625 L 11 0.390625 C 11.238281 0.390625 11.359375 0.503906 11.359375 0.734375 L 11.359375 2.359375 C 11.359375 2.597656 11.238281 2.71875 11 2.71875 L 0.359375 2.71875 C 0.117188 2.71875 0 2.597656 0 2.359375 Z M 0 2.359375 "/></g></g><g style="fill:#060705;fill-opacity:1;"><g transform="translate(40.433985, 79.554685)"><path style="stroke:none" d="M 7.953125 -12.078125 L 7.953125 -10.3125 C 7.953125 -10.125 7.851562 -10.03125 7.65625 -10.03125 L 3.28125 -10.03125 L 3.28125 -7.015625 L 6.609375 -7.015625 C 6.796875 -7.015625 6.890625 -6.921875 6.890625 -6.734375 L 6.890625 -4.96875 C 6.890625 -4.769531 6.796875 -4.671875 6.609375 -4.671875 L 3.28125 -4.671875 L 3.28125 -0.28125 C 3.28125 -0.09375 3.1875 0 3 0 L 1.171875 0 C 0.984375 0 0.890625 -0.09375 0.890625 -0.28125 L 0.890625 -12.078125 C 0.890625 -12.265625 0.984375 -12.359375 1.171875 -12.359375 L 7.65625 -12.359375 C 7.851562 -12.359375 7.953125 -12.265625 7.953125 -12.078125 Z M 7.953125 -12.078125 "/></g></g><g style="fill:#060705;fill-opacity:1;"><g transform="translate(49.259793, 79.554685)"><path style="stroke:none" d="M 0.890625 -2.546875 L 0.890625 -9.8125 C 0.890625 -10.65625 1.101562 -11.289062 1.53125 -11.71875 C 1.96875 -12.144531 2.597656 -12.359375 3.421875 -12.359375 L 5.40625 -12.359375 C 6.238281 -12.359375 6.867188 -12.144531 7.296875 -11.71875 C 7.734375 -11.289062 7.953125 -10.65625 7.953125 -9.8125 L 7.953125 -2.546875 C 7.953125 -1.722656 7.734375 -1.09375 7.296875 -0.65625 C 6.867188 -0.21875 6.238281 0 5.40625 0 L 3.421875 0 C 2.597656 0 1.96875 -0.21875 1.53125 -0.65625 C 1.101562 -1.09375 0.890625 -1.722656 0.890625 -2.546875 Z M 3.890625 -2.28125 L 5.015625 -2.28125 C 5.484375 -2.28125 5.71875 -2.515625 5.71875 -2.984375 L 5.71875 -9.375 C 5.71875 -9.84375 5.484375 -10.078125 5.015625 -10.078125 L 3.890625 -10.078125 C 3.410156 -10.078125 3.171875 -9.84375 3.171875 -9.375 L 3.171875 -2.984375 C 3.171875 -2.515625 3.410156 -2.28125 3.890625 -2.28125 Z M 3.890625 -2.28125 "/></g></g><g style="fill:#060705;fill-opacity:1;"><g transform="translate(58.0856, 79.554685)"><path style="stroke:none" d="M 7.953125 -9.8125 L 7.953125 -6.265625 C 7.953125 -5.242188 7.617188 -4.523438 6.953125 -4.109375 L 7.875 -0.3125 C 7.9375 -0.101562 7.851562 0 7.625 0 L 5.890625 0 C 5.734375 0 5.632812 -0.0820312 5.59375 -0.25 L 4.75 -3.71875 L 3.171875 -3.71875 L 3.171875 -0.28125 C 3.171875 -0.09375 3.078125 0 2.890625 0 L 1.171875 0 C 0.984375 0 0.890625 -0.09375 0.890625 -0.28125 L 0.890625 -12.078125 C 0.890625 -12.265625 0.984375 -12.359375 1.171875 -12.359375 L 5.40625 -12.359375 C 6.238281 -12.359375 6.867188 -12.144531 7.296875 -11.71875 C 7.734375 -11.289062 7.953125 -10.65625 7.953125 -9.8125 Z M 3.171875 -6 L 4.9375 -6 C 5.414062 -6 5.65625 -6.234375 5.65625 -6.703125 L 5.65625 -9.375 C 5.65625 -9.84375 5.414062 -10.078125 4.9375 -10.078125 L 3.171875 -10.078125 Z M 3.171875 -6 "/></g></g></g></svg>