<svg xmlns="http://www.w3.org/2000/svg" xmlns:xlink="http://www.w3.org/1999/xlink" width="500" zoomAndPan="magnify" viewBox="0 0 375 374.999991" height="500" preserveAspectRatio="xMidYMid meet" version="1.2"><defs><clipPath id="46bf4bfbb6"><path d="M 25 0 L 350 0 L 350 375 L 25 375 Z M 25 0 "/></clipPath><clipPath id="45a51151fc"><path d="M -55.878906 142.882812 L 268.328125 -46.476562 L 431 232.042969 L 106.789062 421.402344 Z M -55.878906 142.882812 "/></clipPath><clipPath id="21a19c036d"><path d="M 349.546875 92.851562 L 349.859375 279.433594 L 187.8125 374.078125 L 25.453125 282.140625 L 25.140625 95.5625 L 187.1875 0.917969 Z M 349.546875 92.851562 "/></clipPath><clipPath id="9c6e36925b"><path d="M 55.238281 35.632812 L 319.726562 35.632812 L 319.726562 339 L 55.238281 339 Z M 55.238281 35.632812 "/></clipPath></defs><g id="b61f1c916b"><g clip-rule="nonzero" clip-path="url(#46bf4bfbb6)"><g clip-rule="nonzero" clip-path="url(#45a51151fc)"><g clip-rule="nonzero" clip-path="url(#21a19c036d)"><path style=" stroke:none;fill-rule:nonzero;fill:#65b30e;fill-opacity:1;" d="M -55.878906 142.882812 L 268.332031 -46.476562 L 431 232.042969 L 106.789062 421.402344 Z M -55.878906 142.882812 "/></g></g></g><path style=" stroke:none;fill-rule:nonzero;fill:#87ff00;fill-opacity:1;" d="M 134.582031 135.703125 L 134.414062 135.535156 L 97.035156 172.914062 L 187.792969 263.503906 L 225.175781 226.296875 L 278.546875 172.914062 L 241.167969 135.535156 L 241.167969 135.363281 L 134.417969 135.363281 Z M 134.582031 135.703125 "/><g clip-rule="nonzero" clip-path="url(#9c6e36925b)"><path style=" stroke:none;fill-rule:nonzero;fill:#87ff00;fill-opacity:1;" d="M 187.453125 35.851562 L 55.269531 111.625 L 55.273438 263.175781 L 187.457031 338.949219 L 319.640625 263.175781 L 319.640625 111.625 L 187.457031 35.855469 Z M 294.375 248.683594 L 187.453125 310.308594 L 80.527344 248.683594 L 80.53125 125.765625 L 187.457031 64.136719 L 294.378906 125.765625 L 294.378906 248.683594 Z M 294.375 248.683594 "/></g><g style="fill:#b21a22;fill-opacity:1;"><g transform="translate(101.288769, 118.439149)"><path style="stroke:none" d="M 33.195312 -38.347656 L 33.195312 -24.484375 C 33.195312 -19.6875 31.570312 -16.273438 28.316406 -14.242188 L 27.175781 -16.070312 L 29.269531 -16.578125 L 32.855469 -1.75 L 30.761719 -1.242188 L 32.839844 -1.820312 C 33.148438 -0.707031 33 0.234375 32.394531 1.011719 C 31.800781 1.773438 30.9375 2.15625 29.796875 2.15625 L 23.039062 2.15625 C 22.199219 2.15625 21.484375 1.910156 20.890625 1.421875 C 20.308594 0.941406 19.929688 0.296875 19.757812 -0.515625 L 21.863281 -0.964844 L 19.769531 -0.457031 L 16.460938 -14.042969 L 18.554688 -14.554688 L 18.554688 -12.398438 L 12.414062 -12.398438 L 12.414062 -14.554688 L 14.570312 -14.554688 L 14.570312 -1.105469 C 14.570312 -0.140625 14.269531 0.644531 13.664062 1.25 C 13.058594 1.851562 12.273438 2.15625 11.3125 2.15625 L 4.550781 2.15625 C 3.589844 2.15625 2.804688 1.851562 2.199219 1.25 C 1.59375 0.644531 1.292969 -0.140625 1.292969 -1.105469 L 1.292969 -47.179688 C 1.292969 -48.140625 1.59375 -48.925781 2.199219 -49.53125 C 2.804688 -50.132812 3.589844 -50.4375 4.550781 -50.4375 L 21.105469 -50.4375 C 24.964844 -50.4375 27.945312 -49.386719 30.042969 -47.289062 C 32.144531 -45.1875 33.195312 -42.210938 33.195312 -38.347656 Z M 28.882812 -38.347656 C 28.882812 -41.019531 28.253906 -42.980469 26.996094 -44.238281 C 25.738281 -45.496094 23.773438 -46.125 21.105469 -46.125 L 4.550781 -46.125 C 4.601562 -46.125 4.667969 -46.140625 4.75 -46.167969 C 4.933594 -46.230469 5.101562 -46.332031 5.25 -46.480469 C 5.398438 -46.628906 5.5 -46.796875 5.5625 -46.980469 C 5.589844 -47.0625 5.605469 -47.128906 5.605469 -47.179688 L 5.605469 -1.105469 C 5.605469 -1.152344 5.589844 -1.21875 5.5625 -1.300781 C 5.5 -1.484375 5.398438 -1.652344 5.25 -1.800781 C 5.101562 -1.949219 4.933594 -2.050781 4.75 -2.113281 C 4.667969 -2.140625 4.601562 -2.15625 4.550781 -2.15625 L 11.3125 -2.15625 C 11.261719 -2.15625 11.195312 -2.140625 11.113281 -2.113281 C 10.929688 -2.050781 10.761719 -1.949219 10.613281 -1.800781 C 10.46875 -1.652344 10.363281 -1.484375 10.300781 -1.300781 C 10.273438 -1.21875 10.257812 -1.152344 10.257812 -1.105469 L 10.257812 -16.707031 L 20.246094 -16.707031 L 23.964844 -1.445312 L 23.972656 -1.417969 C 23.9375 -1.585938 23.824219 -1.746094 23.632812 -1.90625 C 23.429688 -2.070312 23.230469 -2.15625 23.039062 -2.15625 L 29.796875 -2.15625 L 29.796875 -2.152344 C 29.75 -2.148438 29.699219 -2.132812 29.644531 -2.113281 C 29.390625 -2.027344 29.171875 -1.867188 28.992188 -1.632812 C 28.804688 -1.394531 28.703125 -1.136719 28.679688 -0.859375 C 28.675781 -0.761719 28.675781 -0.699219 28.683594 -0.664062 L 28.675781 -0.699219 L 24.714844 -17.074219 L 26.03125 -17.898438 C 27.933594 -19.085938 28.882812 -21.28125 28.882812 -24.484375 Z M 12.414062 -25.605469 L 19.3125 -25.605469 C 19.539062 -25.605469 19.714844 -25.628906 19.839844 -25.667969 C 19.859375 -25.675781 19.875 -25.683594 19.882812 -25.6875 C 19.875 -25.683594 19.867188 -25.675781 19.859375 -25.664062 C 19.847656 -25.65625 19.839844 -25.644531 19.835938 -25.636719 C 19.839844 -25.644531 19.847656 -25.660156 19.855469 -25.683594 C 19.894531 -25.808594 19.914062 -25.984375 19.914062 -26.210938 L 19.914062 -36.625 C 19.914062 -36.851562 19.894531 -37.027344 19.855469 -37.148438 C 19.847656 -37.171875 19.839844 -37.1875 19.835938 -37.195312 C 19.839844 -37.1875 19.847656 -37.179688 19.859375 -37.167969 C 19.867188 -37.160156 19.875 -37.152344 19.882812 -37.148438 C 19.875 -37.152344 19.859375 -37.160156 19.839844 -37.167969 C 19.714844 -37.207031 19.539062 -37.226562 19.3125 -37.226562 L 12.414062 -37.226562 L 12.414062 -39.382812 L 14.570312 -39.382812 L 14.570312 -23.449219 L 12.414062 -23.449219 Z M 10.257812 -21.296875 L 10.257812 -41.539062 L 19.3125 -41.539062 C 20.828125 -41.539062 22.023438 -41.097656 22.90625 -40.21875 C 23.785156 -39.335938 24.226562 -38.140625 24.226562 -36.625 L 24.226562 -26.210938 C 24.226562 -24.695312 23.785156 -23.496094 22.90625 -22.617188 C 22.023438 -21.734375 20.828125 -21.296875 19.3125 -21.296875 Z M 10.257812 -21.296875 "/></g></g><g style="fill:#b21a22;fill-opacity:1;"><g transform="translate(135.764578, 118.439149)"><path style="stroke:none" d="M 13.378906 -50.4375 L 21.105469 -50.4375 C 24.964844 -50.4375 27.945312 -49.386719 30.042969 -47.289062 C 32.144531 -45.1875 33.195312 -42.210938 33.195312 -38.347656 L 33.195312 -33.796875 C 33.195312 -32.832031 32.890625 -32.050781 32.285156 -31.445312 C 31.679688 -30.839844 30.898438 -30.539062 29.933594 -30.539062 L 22.96875 -30.539062 C 22.003906 -30.539062 21.222656 -30.839844 20.617188 -31.445312 C 20.011719 -32.050781 19.710938 -32.832031 19.710938 -33.796875 L 19.710938 -36.695312 C 19.710938 -36.921875 19.6875 -37.09375 19.648438 -37.21875 C 19.640625 -37.242188 19.632812 -37.257812 19.628906 -37.265625 C 19.632812 -37.257812 19.640625 -37.25 19.652344 -37.238281 C 19.660156 -37.230469 19.667969 -37.222656 19.679688 -37.214844 C 19.667969 -37.222656 19.652344 -37.226562 19.632812 -37.234375 C 19.507812 -37.277344 19.332031 -37.296875 19.105469 -37.296875 L 15.3125 -37.296875 C 15.085938 -37.296875 14.910156 -37.277344 14.785156 -37.234375 C 14.765625 -37.226562 14.75 -37.222656 14.738281 -37.214844 C 14.746094 -37.222656 14.757812 -37.230469 14.765625 -37.238281 C 14.777344 -37.25 14.785156 -37.257812 14.789062 -37.265625 C 14.785156 -37.257812 14.777344 -37.242188 14.769531 -37.21875 C 14.730469 -37.09375 14.707031 -36.921875 14.707031 -36.695312 L 14.707031 -30.832031 L 12.554688 -30.832031 L 13.214844 -32.882812 L 29.90625 -27.503906 C 30.972656 -27.132812 31.789062 -26.546875 32.351562 -25.742188 C 32.914062 -24.945312 33.195312 -23.996094 33.195312 -22.898438 L 33.195312 -9.933594 C 33.195312 -6.125 32.148438 -3.160156 30.054688 -1.039062 C 27.953125 1.089844 24.972656 2.15625 21.105469 2.15625 L 13.378906 2.15625 C 9.566406 2.15625 6.597656 1.09375 4.476562 -1.027344 C 2.355469 -3.148438 1.292969 -6.117188 1.292969 -9.933594 L 1.292969 -14.414062 C 1.292969 -15.378906 1.59375 -16.164062 2.199219 -16.765625 C 2.804688 -17.371094 3.589844 -17.675781 4.550781 -17.675781 L 11.519531 -17.675781 C 12.480469 -17.675781 13.265625 -17.371094 13.871094 -16.765625 C 14.476562 -16.164062 14.777344 -15.378906 14.777344 -14.414062 L 14.777344 -11.519531 C 14.777344 -11.292969 14.796875 -11.117188 14.839844 -10.992188 C 14.847656 -10.96875 14.851562 -10.953125 14.859375 -10.945312 C 14.855469 -10.953125 14.847656 -10.964844 14.835938 -10.972656 C 14.824219 -10.984375 14.816406 -10.992188 14.808594 -10.996094 C 14.816406 -10.992188 14.832031 -10.984375 14.855469 -10.976562 C 14.980469 -10.9375 15.15625 -10.914062 15.382812 -10.914062 L 19.105469 -10.914062 C 19.332031 -10.914062 19.507812 -10.9375 19.632812 -10.976562 C 19.652344 -10.984375 19.667969 -10.992188 19.679688 -10.996094 C 19.667969 -10.992188 19.660156 -10.984375 19.652344 -10.972656 C 19.640625 -10.964844 19.632812 -10.953125 19.628906 -10.945312 C 19.632812 -10.953125 19.640625 -10.96875 19.648438 -10.992188 C 19.6875 -11.117188 19.710938 -11.292969 19.710938 -11.519531 L 19.710938 -18.484375 L 21.863281 -18.484375 L 21.199219 -16.433594 L 4.644531 -21.816406 C 3.578125 -22.171875 2.753906 -22.746094 2.171875 -23.542969 C 1.585938 -24.347656 1.292969 -25.304688 1.292969 -26.417969 L 1.292969 -38.347656 C 1.292969 -42.214844 2.359375 -45.199219 4.488281 -47.296875 C 6.609375 -49.390625 9.574219 -50.4375 13.378906 -50.4375 Z M 13.378906 -46.125 C 10.75 -46.125 8.796875 -45.492188 7.515625 -44.230469 C 6.242188 -42.972656 5.605469 -41.011719 5.605469 -38.347656 L 5.605469 -26.417969 C 5.605469 -26.242188 5.621094 -26.128906 5.65625 -26.082031 C 5.695312 -26.03125 5.800781 -25.972656 5.976562 -25.914062 L 24.019531 -20.050781 L 24.019531 -11.519531 C 24.019531 -10.003906 23.578125 -8.804688 22.699219 -7.925781 C 21.816406 -7.042969 20.621094 -6.605469 19.105469 -6.605469 L 15.382812 -6.605469 C 13.867188 -6.605469 12.667969 -7.042969 11.789062 -7.925781 C 10.90625 -8.804688 10.464844 -10.003906 10.464844 -11.519531 L 10.464844 -14.414062 C 10.464844 -14.367188 10.480469 -14.300781 10.507812 -14.214844 C 10.570312 -14.03125 10.675781 -13.867188 10.820312 -13.71875 C 10.96875 -13.570312 11.136719 -13.464844 11.320312 -13.40625 C 11.402344 -13.378906 11.46875 -13.363281 11.519531 -13.363281 L 4.550781 -13.363281 C 4.601562 -13.363281 4.667969 -13.378906 4.75 -13.40625 C 4.933594 -13.464844 5.101562 -13.570312 5.25 -13.71875 C 5.398438 -13.867188 5.5 -14.03125 5.5625 -14.214844 C 5.589844 -14.300781 5.605469 -14.367188 5.605469 -14.414062 L 5.605469 -9.933594 C 5.605469 -7.308594 6.246094 -5.355469 7.523438 -4.078125 C 8.804688 -2.796875 10.757812 -2.15625 13.378906 -2.15625 L 21.105469 -2.15625 C 23.769531 -2.15625 25.730469 -2.792969 26.984375 -4.066406 C 28.25 -5.347656 28.882812 -7.304688 28.882812 -9.933594 L 28.882812 -22.898438 C 28.882812 -23.089844 28.863281 -23.210938 28.824219 -23.261719 C 28.792969 -23.308594 28.714844 -23.355469 28.582031 -23.398438 L 10.398438 -29.261719 L 10.398438 -36.695312 C 10.398438 -38.207031 10.839844 -39.40625 11.71875 -40.289062 C 12.597656 -41.167969 13.796875 -41.609375 15.3125 -41.609375 L 19.105469 -41.609375 C 20.621094 -41.609375 21.816406 -41.167969 22.699219 -40.289062 C 23.578125 -39.40625 24.019531 -38.207031 24.019531 -36.695312 L 24.019531 -33.796875 C 24.019531 -33.847656 24.007812 -33.914062 23.976562 -33.996094 C 23.917969 -34.179688 23.8125 -34.34375 23.664062 -34.492188 C 23.515625 -34.640625 23.351562 -34.746094 23.167969 -34.808594 C 23.082031 -34.835938 23.015625 -34.847656 22.96875 -34.847656 L 29.933594 -34.847656 C 29.886719 -34.847656 29.820312 -34.835938 29.734375 -34.808594 C 29.550781 -34.746094 29.386719 -34.640625 29.238281 -34.492188 C 29.089844 -34.34375 28.984375 -34.179688 28.925781 -33.996094 C 28.894531 -33.914062 28.882812 -33.847656 28.882812 -33.796875 L 28.882812 -38.347656 C 28.882812 -41.019531 28.253906 -42.980469 26.996094 -44.238281 C 25.738281 -45.496094 23.773438 -46.125 21.105469 -46.125 Z M 13.378906 -46.125 "/></g></g><g style="fill:#b21a22;fill-opacity:1;"><g transform="translate(170.240387, 118.439149)"><path style="stroke:none" d="M 1.292969 -1.105469 L 1.292969 -47.179688 C 1.292969 -48.140625 1.59375 -48.925781 2.199219 -49.53125 C 2.804688 -50.132812 3.589844 -50.4375 4.550781 -50.4375 L 21.105469 -50.4375 C 24.964844 -50.4375 27.945312 -49.386719 30.042969 -47.289062 C 32.144531 -45.1875 33.195312 -42.210938 33.195312 -38.347656 L 33.195312 -24.832031 C 33.195312 -21.015625 32.144531 -18.058594 30.042969 -15.960938 C 27.953125 -13.871094 24.984375 -12.796875 21.136719 -12.742188 L 12.433594 -12.671875 L 12.414062 -14.828125 L 14.570312 -14.828125 L 14.570312 -1.035156 C 14.570312 -0.0703125 14.269531 0.710938 13.664062 1.316406 C 13.058594 1.921875 12.273438 2.222656 11.3125 2.222656 L 4.53125 2.15625 C 3.582031 2.15625 2.804688 1.851562 2.199219 1.25 C 1.59375 0.644531 1.292969 -0.140625 1.292969 -1.105469 Z M 5.605469 -1.105469 C 5.605469 -1.152344 5.589844 -1.21875 5.5625 -1.300781 C 5.5 -1.484375 5.398438 -1.652344 5.25 -1.800781 C 5.101562 -1.949219 4.933594 -2.050781 4.75 -2.113281 C 4.667969 -2.140625 4.609375 -2.15625 4.574219 -2.15625 L 11.3125 -2.085938 C 11.261719 -2.085938 11.195312 -2.074219 11.113281 -2.046875 C 10.929688 -1.984375 10.761719 -1.878906 10.613281 -1.730469 C 10.46875 -1.582031 10.363281 -1.417969 10.300781 -1.234375 C 10.273438 -1.148438 10.257812 -1.082031 10.257812 -1.035156 L 10.257812 -16.96875 L 21.074219 -17.054688 C 23.757812 -17.089844 25.730469 -17.742188 26.996094 -19.007812 C 28.253906 -20.265625 28.882812 -22.207031 28.882812 -24.832031 L 28.882812 -38.347656 C 28.882812 -41.019531 28.253906 -42.980469 26.996094 -44.238281 C 25.738281 -45.496094 23.773438 -46.125 21.105469 -46.125 L 4.550781 -46.125 C 4.601562 -46.125 4.667969 -46.140625 4.75 -46.167969 C 4.933594 -46.230469 5.101562 -46.332031 5.25 -46.480469 C 5.398438 -46.628906 5.5 -46.796875 5.5625 -46.980469 C 5.589844 -47.0625 5.605469 -47.128906 5.605469 -47.179688 Z M 12.394531 -25.882812 L 19.289062 -25.953125 C 19.53125 -25.953125 19.714844 -25.972656 19.839844 -26.011719 C 19.859375 -26.019531 19.875 -26.027344 19.882812 -26.03125 C 19.875 -26.027344 19.867188 -26.019531 19.859375 -26.011719 C 19.847656 -26 19.839844 -25.992188 19.835938 -25.984375 C 19.839844 -25.992188 19.847656 -26.007812 19.855469 -26.03125 C 19.894531 -26.152344 19.914062 -26.328125 19.914062 -26.554688 L 19.914062 -36.625 C 19.914062 -36.851562 19.894531 -37.027344 19.855469 -37.148438 C 19.847656 -37.171875 19.839844 -37.1875 19.835938 -37.195312 C 19.839844 -37.1875 19.847656 -37.179688 19.859375 -37.167969 C 19.867188 -37.160156 19.875 -37.152344 19.882812 -37.148438 C 19.875 -37.152344 19.859375 -37.160156 19.839844 -37.167969 C 19.714844 -37.207031 19.539062 -37.226562 19.3125 -37.226562 L 12.4375 -37.160156 L 12.414062 -39.316406 L 14.570312 -39.316406 L 14.570312 -23.726562 L 12.414062 -23.726562 Z M 10.257812 -21.550781 L 10.257812 -41.449219 L 19.3125 -41.539062 C 20.828125 -41.539062 22.023438 -41.097656 22.90625 -40.21875 C 23.785156 -39.335938 24.226562 -38.140625 24.226562 -36.625 L 24.226562 -26.554688 C 24.226562 -25.039062 23.785156 -23.84375 22.90625 -22.960938 C 22.023438 -22.082031 20.835938 -21.640625 19.335938 -21.640625 L 12.4375 -21.570312 Z M 10.257812 -21.550781 "/></g></g><g style="fill:#b21a22;fill-opacity:1;"><g transform="translate(204.716197, 118.439149)"><path style="stroke:none" d="M 33.125 -47.179688 L 33.125 -40.28125 C 33.125 -39.320312 32.835938 -38.535156 32.261719 -37.921875 C 31.652344 -37.277344 30.855469 -36.953125 29.867188 -36.953125 L 12.828125 -36.953125 L 12.828125 -39.109375 L 14.984375 -39.109375 L 14.984375 -28.484375 L 12.828125 -28.484375 L 12.828125 -30.640625 L 25.796875 -30.640625 C 26.785156 -30.640625 27.582031 -30.316406 28.195312 -29.671875 C 28.769531 -29.058594 29.054688 -28.273438 29.054688 -27.3125 L 29.054688 -20.484375 C 29.054688 -19.523438 28.769531 -18.738281 28.195312 -18.128906 C 27.582031 -17.480469 26.785156 -17.15625 25.796875 -17.15625 L 12.828125 -17.15625 L 12.828125 -19.3125 L 14.984375 -19.3125 L 14.984375 -9.105469 L 12.828125 -9.105469 L 12.828125 -11.261719 L 29.867188 -11.261719 C 30.828125 -11.261719 31.613281 -10.957031 32.21875 -10.351562 C 32.820312 -9.746094 33.125 -8.964844 33.125 -8 L 33.125 -1.105469 C 33.125 -0.140625 32.820312 0.644531 32.21875 1.25 C 31.613281 1.851562 30.828125 2.15625 29.867188 2.15625 L 4.484375 2.15625 C 3.515625 2.15625 2.734375 1.835938 2.132812 1.199219 C 1.574219 0.601562 1.292969 -0.167969 1.292969 -1.105469 L 1.292969 -47.179688 C 1.292969 -48.113281 1.574219 -48.882812 2.132812 -49.480469 C 2.734375 -50.117188 3.515625 -50.4375 4.484375 -50.4375 L 29.867188 -50.4375 C 30.828125 -50.4375 31.613281 -50.132812 32.21875 -49.53125 C 32.820312 -48.925781 33.125 -48.140625 33.125 -47.179688 Z M 28.8125 -47.179688 C 28.8125 -47.128906 28.828125 -47.0625 28.855469 -46.980469 C 28.917969 -46.796875 29.019531 -46.628906 29.167969 -46.480469 C 29.316406 -46.332031 29.484375 -46.230469 29.667969 -46.167969 C 29.75 -46.140625 29.816406 -46.125 29.867188 -46.125 L 4.484375 -46.125 C 4.761719 -46.125 5.027344 -46.261719 5.28125 -46.53125 C 5.417969 -46.679688 5.515625 -46.839844 5.570312 -47.019531 C 5.59375 -47.089844 5.605469 -47.140625 5.605469 -47.179688 L 5.605469 -1.105469 C 5.605469 -1.140625 5.59375 -1.191406 5.570312 -1.265625 C 5.515625 -1.441406 5.417969 -1.601562 5.28125 -1.75 C 5.027344 -2.019531 4.761719 -2.15625 4.484375 -2.15625 L 29.867188 -2.15625 C 29.816406 -2.15625 29.75 -2.140625 29.667969 -2.113281 C 29.484375 -2.050781 29.316406 -1.949219 29.167969 -1.800781 C 29.019531 -1.652344 28.917969 -1.484375 28.855469 -1.300781 C 28.828125 -1.21875 28.8125 -1.152344 28.8125 -1.105469 L 28.8125 -8 C 28.8125 -7.953125 28.828125 -7.886719 28.855469 -7.800781 C 28.917969 -7.617188 29.019531 -7.453125 29.167969 -7.304688 C 29.316406 -7.15625 29.484375 -7.050781 29.667969 -6.992188 C 29.75 -6.960938 29.816406 -6.949219 29.867188 -6.949219 L 10.671875 -6.949219 L 10.671875 -21.46875 L 25.796875 -21.46875 C 25.734375 -21.46875 25.652344 -21.453125 25.558594 -21.417969 C 25.367188 -21.351562 25.199219 -21.238281 25.054688 -21.082031 C 24.921875 -20.941406 24.828125 -20.785156 24.773438 -20.617188 C 24.753906 -20.554688 24.742188 -20.511719 24.742188 -20.484375 L 24.742188 -27.3125 C 24.742188 -27.289062 24.753906 -27.246094 24.773438 -27.179688 C 24.828125 -27.011719 24.921875 -26.859375 25.054688 -26.714844 C 25.199219 -26.558594 25.367188 -26.449219 25.558594 -26.378906 C 25.652344 -26.347656 25.734375 -26.332031 25.796875 -26.332031 L 10.671875 -26.332031 L 10.671875 -41.261719 L 29.867188 -41.261719 C 29.800781 -41.261719 29.722656 -41.246094 29.628906 -41.214844 C 29.4375 -41.144531 29.269531 -41.035156 29.125 -40.878906 C 28.988281 -40.734375 28.894531 -40.582031 28.84375 -40.414062 C 28.824219 -40.347656 28.8125 -40.304688 28.8125 -40.28125 Z M 28.8125 -47.179688 "/></g></g><g style="fill:#b21a22;fill-opacity:1;"><g transform="translate(239.123043, 118.439149)"><path style="stroke:none" d="M 33.261719 -38.347656 L 33.261719 -30.898438 C 33.261719 -29.9375 32.960938 -29.152344 32.355469 -28.546875 C 31.75 -27.945312 30.964844 -27.640625 30.003906 -27.640625 L 23.519531 -27.640625 C 22.558594 -27.640625 21.773438 -27.945312 21.167969 -28.546875 C 20.5625 -29.152344 20.261719 -29.9375 20.261719 -30.898438 L 20.261719 -36.554688 C 20.261719 -36.78125 20.238281 -36.957031 20.199219 -37.082031 C 20.191406 -37.105469 20.183594 -37.121094 20.179688 -37.128906 C 20.183594 -37.121094 20.191406 -37.109375 20.203125 -37.101562 C 20.210938 -37.089844 20.222656 -37.082031 20.230469 -37.078125 C 20.222656 -37.082031 20.207031 -37.089844 20.183594 -37.097656 C 20.058594 -37.140625 19.882812 -37.160156 19.65625 -37.160156 L 15.242188 -37.160156 C 15.015625 -37.160156 14.839844 -37.140625 14.71875 -37.097656 C 14.695312 -37.089844 14.679688 -37.082031 14.671875 -37.078125 C 14.679688 -37.082031 14.6875 -37.089844 14.699219 -37.101562 C 14.707031 -37.109375 14.714844 -37.121094 14.71875 -37.128906 C 14.714844 -37.121094 14.710938 -37.105469 14.703125 -37.082031 C 14.660156 -36.957031 14.640625 -36.78125 14.640625 -36.554688 L 14.640625 -11.519531 C 14.640625 -11.292969 14.660156 -11.117188 14.703125 -10.992188 C 14.710938 -10.96875 14.714844 -10.953125 14.71875 -10.945312 C 14.714844 -10.953125 14.707031 -10.964844 14.699219 -10.972656 C 14.6875 -10.984375 14.679688 -10.992188 14.671875 -10.996094 C 14.679688 -10.992188 14.695312 -10.984375 14.71875 -10.976562 C 14.839844 -10.9375 15.015625 -10.914062 15.242188 -10.914062 L 19.65625 -10.914062 C 19.882812 -10.914062 20.058594 -10.9375 20.183594 -10.976562 C 20.207031 -10.984375 20.222656 -10.992188 20.230469 -10.996094 C 20.222656 -10.992188 20.210938 -10.984375 20.203125 -10.972656 C 20.191406 -10.964844 20.183594 -10.953125 20.179688 -10.945312 C 20.183594 -10.953125 20.191406 -10.96875 20.199219 -10.992188 C 20.238281 -11.117188 20.261719 -11.292969 20.261719 -11.519531 L 20.261719 -17.382812 C 20.261719 -18.34375 20.5625 -19.128906 21.167969 -19.734375 C 21.773438 -20.339844 22.558594 -20.640625 23.519531 -20.640625 L 30.003906 -20.640625 C 30.964844 -20.640625 31.75 -20.339844 32.355469 -19.734375 C 32.960938 -19.128906 33.261719 -18.34375 33.261719 -17.382812 L 33.261719 -9.933594 C 33.261719 -6.117188 32.203125 -3.148438 30.078125 -1.027344 C 27.957031 1.09375 24.988281 2.15625 21.175781 2.15625 L 13.449219 2.15625 C 9.640625 2.15625 6.664062 1.097656 4.519531 -1.019531 C 2.367188 -3.140625 1.292969 -6.113281 1.292969 -9.933594 L 1.292969 -38.347656 C 1.292969 -42.21875 2.371094 -45.207031 4.53125 -47.308594 C 6.675781 -49.394531 9.648438 -50.4375 13.449219 -50.4375 L 21.175781 -50.4375 C 24.984375 -50.4375 27.949219 -49.390625 30.070312 -47.296875 C 32.199219 -45.199219 33.261719 -42.214844 33.261719 -38.347656 Z M 28.953125 -38.347656 C 28.953125 -41.011719 28.316406 -42.972656 27.042969 -44.230469 C 25.757812 -45.492188 23.804688 -46.125 21.175781 -46.125 L 13.449219 -46.125 C 10.816406 -46.125 8.84375 -45.492188 7.539062 -44.21875 C 6.25 -42.964844 5.605469 -41.007812 5.605469 -38.347656 L 5.605469 -9.933594 C 5.605469 -7.3125 6.253906 -5.367188 7.550781 -4.085938 C 8.855469 -2.800781 10.820312 -2.15625 13.449219 -2.15625 L 21.175781 -2.15625 C 23.796875 -2.15625 25.75 -2.796875 27.03125 -4.078125 C 28.3125 -5.355469 28.953125 -7.308594 28.953125 -9.933594 L 28.953125 -17.382812 C 28.953125 -17.332031 28.964844 -17.265625 28.992188 -17.183594 C 29.054688 -17 29.160156 -16.832031 29.308594 -16.683594 C 29.453125 -16.535156 29.621094 -16.433594 29.804688 -16.371094 C 29.886719 -16.34375 29.953125 -16.328125 30.003906 -16.328125 L 23.519531 -16.328125 C 23.570312 -16.328125 23.636719 -16.34375 23.71875 -16.371094 C 23.902344 -16.433594 24.070312 -16.535156 24.214844 -16.683594 C 24.363281 -16.832031 24.46875 -17 24.53125 -17.183594 C 24.558594 -17.265625 24.570312 -17.332031 24.570312 -17.382812 L 24.570312 -11.519531 C 24.570312 -10.003906 24.132812 -8.804688 23.25 -7.925781 C 22.371094 -7.042969 21.171875 -6.605469 19.65625 -6.605469 L 15.242188 -6.605469 C 13.726562 -6.605469 12.53125 -7.042969 11.648438 -7.925781 C 10.769531 -8.804688 10.328125 -10.003906 10.328125 -11.519531 L 10.328125 -36.554688 C 10.328125 -38.070312 10.769531 -39.269531 11.648438 -40.148438 C 12.53125 -41.03125 13.726562 -41.46875 15.242188 -41.46875 L 19.65625 -41.46875 C 21.171875 -41.46875 22.371094 -41.03125 23.25 -40.148438 C 24.132812 -39.269531 24.570312 -38.070312 24.570312 -36.554688 L 24.570312 -30.898438 C 24.570312 -30.949219 24.558594 -31.015625 24.53125 -31.097656 C 24.46875 -31.28125 24.363281 -31.449219 24.214844 -31.597656 C 24.070312 -31.746094 23.902344 -31.847656 23.71875 -31.910156 C 23.636719 -31.9375 23.570312 -31.953125 23.519531 -31.953125 L 30.003906 -31.953125 C 29.953125 -31.953125 29.886719 -31.9375 29.804688 -31.910156 C 29.621094 -31.847656 29.453125 -31.746094 29.308594 -31.597656 C 29.160156 -31.449219 29.054688 -31.28125 28.992188 -31.097656 C 28.964844 -31.015625 28.953125 -30.949219 28.953125 -30.898438 Z M 28.953125 -38.347656 "/></g></g><g style="fill:#b21a22;fill-opacity:1;"><g transform="translate(63.807965, 214.599812)"><path style="stroke:none" d="M 1.292969 -21.65625 L 1.292969 -28.003906 C 1.292969 -29.058594 1.617188 -29.910156 2.269531 -30.5625 C 2.921875 -31.210938 3.773438 -31.539062 4.828125 -31.539062 L 15.726562 -31.539062 C 16.78125 -31.539062 17.632812 -31.210938 18.285156 -30.5625 C 18.9375 -29.910156 19.261719 -29.058594 19.261719 -28.003906 L 19.261719 -21.65625 C 19.261719 -20.601562 18.9375 -19.75 18.285156 -19.097656 C 17.632812 -18.449219 16.78125 -18.121094 15.726562 -18.121094 L 4.828125 -18.121094 C 3.773438 -18.121094 2.921875 -18.449219 2.269531 -19.097656 C 1.617188 -19.75 1.292969 -20.601562 1.292969 -21.65625 Z M 5.605469 -21.65625 C 5.605469 -21.648438 5.605469 -21.640625 5.605469 -21.632812 C 5.605469 -21.632812 5.605469 -21.636719 5.605469 -21.640625 C 5.601562 -21.667969 5.59375 -21.699219 5.578125 -21.734375 C 5.53125 -21.886719 5.441406 -22.023438 5.316406 -22.148438 C 5.191406 -22.273438 5.054688 -22.359375 4.90625 -22.410156 C 4.871094 -22.421875 4.835938 -22.429688 4.808594 -22.433594 C 4.804688 -22.433594 4.804688 -22.433594 4.804688 -22.433594 C 4.8125 -22.433594 4.820312 -22.433594 4.828125 -22.433594 L 15.726562 -22.433594 C 15.734375 -22.433594 15.742188 -22.433594 15.75 -22.433594 C 15.75 -22.433594 15.746094 -22.433594 15.746094 -22.433594 C 15.714844 -22.429688 15.683594 -22.421875 15.648438 -22.410156 C 15.5 -22.359375 15.359375 -22.273438 15.234375 -22.148438 C 15.113281 -22.023438 15.023438 -21.886719 14.972656 -21.734375 C 14.960938 -21.699219 14.953125 -21.667969 14.949219 -21.640625 C 14.949219 -21.636719 14.949219 -21.632812 14.949219 -21.632812 C 14.949219 -21.640625 14.949219 -21.648438 14.949219 -21.65625 L 14.949219 -28.003906 C 14.949219 -28.011719 14.949219 -28.019531 14.949219 -28.027344 C 14.949219 -28.027344 14.949219 -28.023438 14.949219 -28.023438 C 14.953125 -27.992188 14.960938 -27.960938 14.972656 -27.925781 C 15.023438 -27.777344 15.113281 -27.636719 15.234375 -27.511719 C 15.359375 -27.386719 15.5 -27.300781 15.648438 -27.25 C 15.683594 -27.238281 15.714844 -27.230469 15.746094 -27.226562 C 15.746094 -27.226562 15.75 -27.226562 15.75 -27.226562 C 15.742188 -27.226562 15.734375 -27.226562 15.726562 -27.226562 L 4.828125 -27.226562 C 4.820312 -27.226562 4.8125 -27.226562 4.804688 -27.226562 C 4.804688 -27.226562 4.804688 -27.226562 4.808594 -27.226562 C 4.835938 -27.230469 4.871094 -27.238281 4.90625 -27.25 C 5.054688 -27.300781 5.191406 -27.386719 5.316406 -27.511719 C 5.441406 -27.636719 5.53125 -27.777344 5.578125 -27.925781 C 5.59375 -27.960938 5.601562 -27.992188 5.605469 -28.023438 C 5.605469 -28.023438 5.605469 -28.027344 5.605469 -28.027344 C 5.605469 -28.019531 5.605469 -28.011719 5.605469 -28.003906 Z M 5.605469 -21.65625 "/></g></g><g style="fill:#b21a22;fill-opacity:1;"><g transform="translate(84.355541, 214.599812)"><path style="stroke:none" d="M 1.292969 -1.105469 L 1.292969 -47.179688 C 1.292969 -48.140625 1.59375 -48.925781 2.199219 -49.53125 C 2.804688 -50.132812 3.589844 -50.4375 4.550781 -50.4375 L 21.105469 -50.4375 C 24.964844 -50.4375 27.945312 -49.386719 30.042969 -47.289062 C 32.144531 -45.1875 33.195312 -42.210938 33.195312 -38.347656 L 33.195312 -24.832031 C 33.195312 -21.015625 32.144531 -18.058594 30.042969 -15.960938 C 27.953125 -13.871094 24.984375 -12.796875 21.136719 -12.742188 L 12.433594 -12.671875 L 12.414062 -14.828125 L 14.570312 -14.828125 L 14.570312 -1.035156 C 14.570312 -0.0703125 14.269531 0.710938 13.664062 1.316406 C 13.058594 1.921875 12.273438 2.222656 11.3125 2.222656 L 4.53125 2.15625 C 3.582031 2.15625 2.804688 1.851562 2.199219 1.25 C 1.59375 0.644531 1.292969 -0.140625 1.292969 -1.105469 Z M 5.605469 -1.105469 C 5.605469 -1.152344 5.589844 -1.21875 5.5625 -1.300781 C 5.5 -1.484375 5.398438 -1.652344 5.25 -1.800781 C 5.101562 -1.949219 4.933594 -2.050781 4.75 -2.113281 C 4.667969 -2.140625 4.609375 -2.15625 4.574219 -2.15625 L 11.3125 -2.085938 C 11.261719 -2.085938 11.195312 -2.074219 11.113281 -2.046875 C 10.929688 -1.984375 10.761719 -1.878906 10.613281 -1.730469 C 10.46875 -1.582031 10.363281 -1.417969 10.300781 -1.234375 C 10.273438 -1.148438 10.257812 -1.082031 10.257812 -1.035156 L 10.257812 -16.96875 L 21.074219 -17.054688 C 23.757812 -17.089844 25.730469 -17.742188 26.996094 -19.007812 C 28.253906 -20.265625 28.882812 -22.207031 28.882812 -24.832031 L 28.882812 -38.347656 C 28.882812 -41.019531 28.253906 -42.980469 26.996094 -44.238281 C 25.738281 -45.496094 23.773438 -46.125 21.105469 -46.125 L 4.550781 -46.125 C 4.601562 -46.125 4.667969 -46.140625 4.75 -46.167969 C 4.933594 -46.230469 5.101562 -46.332031 5.25 -46.480469 C 5.398438 -46.628906 5.5 -46.796875 5.5625 -46.980469 C 5.589844 -47.0625 5.605469 -47.128906 5.605469 -47.179688 Z M 12.394531 -25.882812 L 19.289062 -25.953125 C 19.53125 -25.953125 19.714844 -25.972656 19.839844 -26.011719 C 19.859375 -26.019531 19.875 -26.027344 19.882812 -26.03125 C 19.875 -26.027344 19.867188 -26.019531 19.859375 -26.011719 C 19.847656 -26 19.839844 -25.992188 19.835938 -25.984375 C 19.839844 -25.992188 19.847656 -26.007812 19.855469 -26.03125 C 19.894531 -26.152344 19.914062 -26.328125 19.914062 -26.554688 L 19.914062 -36.625 C 19.914062 -36.851562 19.894531 -37.027344 19.855469 -37.148438 C 19.847656 -37.171875 19.839844 -37.1875 19.835938 -37.195312 C 19.839844 -37.1875 19.847656 -37.179688 19.859375 -37.167969 C 19.867188 -37.160156 19.875 -37.152344 19.882812 -37.148438 C 19.875 -37.152344 19.859375 -37.160156 19.839844 -37.167969 C 19.714844 -37.207031 19.539062 -37.226562 19.3125 -37.226562 L 12.4375 -37.160156 L 12.414062 -39.316406 L 14.570312 -39.316406 L 14.570312 -23.726562 L 12.414062 -23.726562 Z M 10.257812 -21.550781 L 10.257812 -41.449219 L 19.3125 -41.539062 C 20.828125 -41.539062 22.023438 -41.097656 22.90625 -40.21875 C 23.785156 -39.335938 24.226562 -38.140625 24.226562 -36.625 L 24.226562 -26.554688 C 24.226562 -25.039062 23.785156 -23.84375 22.90625 -22.960938 C 22.023438 -22.082031 20.835938 -21.640625 19.335938 -21.640625 L 12.4375 -21.570312 Z M 10.257812 -21.550781 "/></g></g><g style="fill:#b21a22;fill-opacity:1;"><g transform="translate(118.83135, 214.599812)"><path style="stroke:none" d="M 33.125 -47.179688 L 33.125 -40.28125 C 33.125 -39.320312 32.835938 -38.535156 32.261719 -37.921875 C 31.652344 -37.277344 30.855469 -36.953125 29.867188 -36.953125 L 12.828125 -36.953125 L 12.828125 -39.109375 L 14.984375 -39.109375 L 14.984375 -28.484375 L 12.828125 -28.484375 L 12.828125 -30.640625 L 25.796875 -30.640625 C 26.785156 -30.640625 27.582031 -30.316406 28.195312 -29.671875 C 28.769531 -29.058594 29.054688 -28.273438 29.054688 -27.3125 L 29.054688 -20.484375 C 29.054688 -19.523438 28.769531 -18.738281 28.195312 -18.128906 C 27.582031 -17.480469 26.785156 -17.15625 25.796875 -17.15625 L 12.828125 -17.15625 L 12.828125 -19.3125 L 14.984375 -19.3125 L 14.984375 -9.105469 L 12.828125 -9.105469 L 12.828125 -11.261719 L 29.867188 -11.261719 C 30.828125 -11.261719 31.613281 -10.957031 32.21875 -10.351562 C 32.820312 -9.746094 33.125 -8.964844 33.125 -8 L 33.125 -1.105469 C 33.125 -0.140625 32.820312 0.644531 32.21875 1.25 C 31.613281 1.851562 30.828125 2.15625 29.867188 2.15625 L 4.484375 2.15625 C 3.515625 2.15625 2.734375 1.835938 2.132812 1.199219 C 1.574219 0.601562 1.292969 -0.167969 1.292969 -1.105469 L 1.292969 -47.179688 C 1.292969 -48.113281 1.574219 -48.882812 2.132812 -49.480469 C 2.734375 -50.117188 3.515625 -50.4375 4.484375 -50.4375 L 29.867188 -50.4375 C 30.828125 -50.4375 31.613281 -50.132812 32.21875 -49.53125 C 32.820312 -48.925781 33.125 -48.140625 33.125 -47.179688 Z M 28.8125 -47.179688 C 28.8125 -47.128906 28.828125 -47.0625 28.855469 -46.980469 C 28.917969 -46.796875 29.019531 -46.628906 29.167969 -46.480469 C 29.316406 -46.332031 29.484375 -46.230469 29.667969 -46.167969 C 29.75 -46.140625 29.816406 -46.125 29.867188 -46.125 L 4.484375 -46.125 C 4.761719 -46.125 5.027344 -46.261719 5.28125 -46.53125 C 5.417969 -46.679688 5.515625 -46.839844 5.570312 -47.019531 C 5.59375 -47.089844 5.605469 -47.140625 5.605469 -47.179688 L 5.605469 -1.105469 C 5.605469 -1.140625 5.59375 -1.191406 5.570312 -1.265625 C 5.515625 -1.441406 5.417969 -1.601562 5.28125 -1.75 C 5.027344 -2.019531 4.761719 -2.15625 4.484375 -2.15625 L 29.867188 -2.15625 C 29.816406 -2.15625 29.75 -2.140625 29.667969 -2.113281 C 29.484375 -2.050781 29.316406 -1.949219 29.167969 -1.800781 C 29.019531 -1.652344 28.917969 -1.484375 28.855469 -1.300781 C 28.828125 -1.21875 28.8125 -1.152344 28.8125 -1.105469 L 28.8125 -8 C 28.8125 -7.953125 28.828125 -7.886719 28.855469 -7.800781 C 28.917969 -7.617188 29.019531 -7.453125 29.167969 -7.304688 C 29.316406 -7.15625 29.484375 -7.050781 29.667969 -6.992188 C 29.75 -6.960938 29.816406 -6.949219 29.867188 -6.949219 L 10.671875 -6.949219 L 10.671875 -21.46875 L 25.796875 -21.46875 C 25.734375 -21.46875 25.652344 -21.453125 25.558594 -21.417969 C 25.367188 -21.351562 25.199219 -21.238281 25.054688 -21.082031 C 24.921875 -20.941406 24.828125 -20.785156 24.773438 -20.617188 C 24.753906 -20.554688 24.742188 -20.511719 24.742188 -20.484375 L 24.742188 -27.3125 C 24.742188 -27.289062 24.753906 -27.246094 24.773438 -27.179688 C 24.828125 -27.011719 24.921875 -26.859375 25.054688 -26.714844 C 25.199219 -26.558594 25.367188 -26.449219 25.558594 -26.378906 C 25.652344 -26.347656 25.734375 -26.332031 25.796875 -26.332031 L 10.671875 -26.332031 L 10.671875 -41.261719 L 29.867188 -41.261719 C 29.800781 -41.261719 29.722656 -41.246094 29.628906 -41.214844 C 29.4375 -41.144531 29.269531 -41.035156 29.125 -40.878906 C 28.988281 -40.734375 28.894531 -40.582031 28.84375 -40.414062 C 28.824219 -40.347656 28.8125 -40.304688 28.8125 -40.28125 Z M 28.8125 -47.179688 "/></g></g><g style="fill:#b21a22;fill-opacity:1;"><g transform="translate(153.238197, 214.599812)"><path style="stroke:none" d="M 25.3125 -50.4375 L 31.796875 -50.4375 C 32.761719 -50.4375 33.542969 -50.132812 34.148438 -49.53125 C 34.753906 -48.925781 35.054688 -48.140625 35.054688 -47.179688 L 35.054688 -1.105469 C 35.054688 -0.140625 34.753906 0.644531 34.148438 1.25 C 33.542969 1.851562 32.761719 2.15625 31.796875 2.15625 L 26.347656 2.15625 C 25.605469 2.15625 24.945312 1.945312 24.363281 1.523438 C 23.847656 1.152344 23.445312 0.648438 23.148438 0.0078125 L 25.105469 -0.898438 L 23.171875 0.0546875 L 10.207031 -26.292969 L 12.140625 -27.246094 L 14.292969 -27.246094 L 14.292969 -1.105469 C 14.292969 -0.140625 13.992188 0.644531 13.386719 1.25 C 12.78125 1.851562 12 2.15625 11.035156 2.15625 L 4.550781 2.15625 C 3.589844 2.15625 2.804688 1.851562 2.199219 1.25 C 1.59375 0.644531 1.292969 -0.140625 1.292969 -1.105469 L 1.292969 -47.179688 C 1.292969 -48.140625 1.59375 -48.925781 2.199219 -49.53125 C 2.804688 -50.132812 3.589844 -50.4375 4.550781 -50.4375 L 10 -50.4375 C 10.742188 -50.4375 11.402344 -50.226562 11.988281 -49.804688 C 12.5 -49.433594 12.902344 -48.929688 13.199219 -48.289062 L 11.242188 -47.382812 L 13.175781 -48.335938 L 26.144531 -21.988281 L 24.210938 -21.035156 L 22.054688 -21.035156 L 22.054688 -47.179688 C 22.054688 -48.140625 22.355469 -48.925781 22.960938 -49.53125 C 23.566406 -50.132812 24.351562 -50.4375 25.3125 -50.4375 Z M 25.3125 -46.125 C 25.363281 -46.125 25.429688 -46.140625 25.511719 -46.167969 C 25.695312 -46.230469 25.863281 -46.332031 26.011719 -46.480469 C 26.15625 -46.628906 26.261719 -46.796875 26.324219 -46.980469 C 26.351562 -47.0625 26.367188 -47.128906 26.367188 -47.179688 L 26.367188 -21.035156 L 22.277344 -20.085938 L 9.296875 -46.457031 L 9.285156 -46.480469 C 9.304688 -46.4375 9.363281 -46.382812 9.464844 -46.308594 C 9.632812 -46.1875 9.8125 -46.125 10 -46.125 L 4.550781 -46.125 C 4.601562 -46.125 4.667969 -46.140625 4.75 -46.167969 C 4.933594 -46.230469 5.101562 -46.332031 5.25 -46.480469 C 5.398438 -46.628906 5.5 -46.796875 5.5625 -46.980469 C 5.589844 -47.0625 5.605469 -47.128906 5.605469 -47.179688 L 5.605469 -1.105469 C 5.605469 -1.152344 5.589844 -1.21875 5.5625 -1.300781 C 5.5 -1.484375 5.398438 -1.652344 5.25 -1.800781 C 5.101562 -1.949219 4.933594 -2.050781 4.75 -2.113281 C 4.667969 -2.140625 4.601562 -2.15625 4.550781 -2.15625 L 11.035156 -2.15625 C 10.988281 -2.15625 10.921875 -2.140625 10.835938 -2.113281 C 10.652344 -2.050781 10.488281 -1.949219 10.339844 -1.800781 C 10.191406 -1.652344 10.085938 -1.484375 10.027344 -1.300781 C 9.996094 -1.21875 9.984375 -1.152344 9.984375 -1.105469 L 9.984375 -27.246094 L 14.074219 -28.195312 L 27.050781 -1.824219 L 27.0625 -1.800781 C 27.042969 -1.84375 26.984375 -1.902344 26.886719 -1.972656 C 26.714844 -2.09375 26.535156 -2.15625 26.347656 -2.15625 L 31.796875 -2.15625 C 31.746094 -2.15625 31.679688 -2.140625 31.597656 -2.113281 C 31.414062 -2.050781 31.25 -1.949219 31.101562 -1.800781 C 30.953125 -1.652344 30.847656 -1.484375 30.785156 -1.300781 C 30.757812 -1.21875 30.746094 -1.152344 30.746094 -1.105469 L 30.746094 -47.179688 C 30.746094 -47.128906 30.757812 -47.0625 30.785156 -46.980469 C 30.847656 -46.796875 30.953125 -46.628906 31.101562 -46.480469 C 31.25 -46.332031 31.414062 -46.230469 31.597656 -46.167969 C 31.679688 -46.140625 31.746094 -46.125 31.796875 -46.125 Z M 25.3125 -46.125 "/></g></g><g style="fill:#b21a22;fill-opacity:1;"><g transform="translate(189.575712, 214.599812)"><path style="stroke:none" d="M 1.292969 -1.105469 L 1.292969 -47.179688 C 1.292969 -48.140625 1.59375 -48.925781 2.199219 -49.53125 C 2.804688 -50.132812 3.589844 -50.4375 4.550781 -50.4375 L 21.105469 -50.4375 C 24.972656 -50.4375 27.953125 -49.371094 30.054688 -47.242188 C 32.148438 -45.121094 33.195312 -42.132812 33.195312 -38.28125 L 33.195312 -9.933594 C 33.195312 -6.125 32.148438 -3.160156 30.054688 -1.039062 C 27.953125 1.089844 24.972656 2.15625 21.105469 2.15625 L 4.550781 2.15625 C 3.589844 2.15625 2.804688 1.851562 2.199219 1.25 C 1.59375 0.644531 1.292969 -0.140625 1.292969 -1.105469 Z M 5.605469 -1.105469 C 5.605469 -1.152344 5.589844 -1.21875 5.5625 -1.300781 C 5.5 -1.484375 5.398438 -1.652344 5.25 -1.800781 C 5.101562 -1.949219 4.933594 -2.050781 4.75 -2.113281 C 4.667969 -2.140625 4.601562 -2.15625 4.550781 -2.15625 L 21.105469 -2.15625 C 23.769531 -2.15625 25.730469 -2.792969 26.984375 -4.066406 C 28.25 -5.347656 28.882812 -7.304688 28.882812 -9.933594 L 28.882812 -38.28125 C 28.882812 -40.957031 28.25 -42.933594 26.984375 -44.214844 C 25.730469 -45.488281 23.769531 -46.125 21.105469 -46.125 L 4.550781 -46.125 C 4.601562 -46.125 4.667969 -46.140625 4.75 -46.167969 C 4.933594 -46.230469 5.101562 -46.332031 5.25 -46.480469 C 5.398438 -46.628906 5.5 -46.796875 5.5625 -46.980469 C 5.589844 -47.0625 5.605469 -47.128906 5.605469 -47.179688 Z M 12.828125 -11.261719 L 19.175781 -11.261719 C 19.402344 -11.261719 19.578125 -11.28125 19.699219 -11.320312 C 19.722656 -11.328125 19.738281 -11.335938 19.746094 -11.339844 C 19.738281 -11.335938 19.730469 -11.328125 19.71875 -11.320312 C 19.710938 -11.308594 19.703125 -11.300781 19.695312 -11.292969 C 19.703125 -11.300781 19.707031 -11.316406 19.714844 -11.339844 C 19.757812 -11.460938 19.777344 -11.636719 19.777344 -11.863281 L 19.777344 -36.347656 C 19.777344 -36.59375 19.753906 -36.78125 19.710938 -36.917969 C 19.703125 -36.949219 19.691406 -36.96875 19.683594 -36.984375 C 19.6875 -36.980469 19.691406 -36.972656 19.699219 -36.964844 L 19.683594 -36.960938 C 19.566406 -37 19.394531 -37.019531 19.175781 -37.019531 L 12.828125 -37.019531 L 12.828125 -39.175781 L 14.984375 -39.175781 L 14.984375 -9.105469 L 12.828125 -9.105469 Z M 10.671875 -6.949219 L 10.671875 -41.332031 L 19.175781 -41.332031 C 20.699219 -41.332031 21.902344 -40.878906 22.785156 -39.976562 C 23.65625 -39.085938 24.089844 -37.875 24.089844 -36.347656 L 24.089844 -11.863281 C 24.089844 -10.347656 23.648438 -9.152344 22.769531 -8.269531 C 21.886719 -7.390625 20.691406 -6.949219 19.175781 -6.949219 Z M 10.671875 -6.949219 "/></g></g><g style="fill:#b21a22;fill-opacity:1;"><g transform="translate(224.051521, 214.599812)"><path style="stroke:none" d="M 4.550781 -2.15625 L 11.726562 -2.15625 C 11.675781 -2.15625 11.609375 -2.140625 11.527344 -2.113281 C 11.34375 -2.050781 11.175781 -1.949219 11.027344 -1.800781 C 10.882812 -1.652344 10.777344 -1.484375 10.714844 -1.300781 C 10.6875 -1.21875 10.671875 -1.152344 10.671875 -1.105469 L 10.671875 -47.179688 C 10.671875 -47.128906 10.6875 -47.0625 10.714844 -46.980469 C 10.777344 -46.796875 10.882812 -46.628906 11.027344 -46.480469 C 11.175781 -46.332031 11.34375 -46.230469 11.527344 -46.167969 C 11.609375 -46.140625 11.675781 -46.125 11.726562 -46.125 L 4.550781 -46.125 C 4.601562 -46.125 4.667969 -46.140625 4.75 -46.167969 C 4.933594 -46.230469 5.101562 -46.332031 5.25 -46.480469 C 5.398438 -46.628906 5.5 -46.796875 5.5625 -46.980469 C 5.589844 -47.0625 5.605469 -47.128906 5.605469 -47.179688 L 5.605469 -1.105469 C 5.605469 -1.152344 5.589844 -1.21875 5.5625 -1.300781 C 5.5 -1.484375 5.398438 -1.652344 5.25 -1.800781 C 5.101562 -1.949219 4.933594 -2.050781 4.75 -2.113281 C 4.667969 -2.140625 4.601562 -2.15625 4.550781 -2.15625 Z M 4.550781 2.15625 C 3.589844 2.15625 2.804688 1.851562 2.199219 1.25 C 1.59375 0.644531 1.292969 -0.140625 1.292969 -1.105469 L 1.292969 -47.179688 C 1.292969 -48.140625 1.59375 -48.925781 2.199219 -49.53125 C 2.804688 -50.132812 3.589844 -50.4375 4.550781 -50.4375 L 11.726562 -50.4375 C 12.6875 -50.4375 13.472656 -50.132812 14.078125 -49.53125 C 14.683594 -48.925781 14.984375 -48.140625 14.984375 -47.179688 L 14.984375 -1.105469 C 14.984375 -0.140625 14.683594 0.644531 14.078125 1.25 C 13.472656 1.851562 12.6875 2.15625 11.726562 2.15625 Z M 4.550781 2.15625 "/></g></g><g style="fill:#b21a22;fill-opacity:1;"><g transform="translate(240.324093, 214.599812)"><path style="stroke:none" d="M 25.3125 -50.4375 L 31.796875 -50.4375 C 32.761719 -50.4375 33.542969 -50.132812 34.148438 -49.53125 C 34.753906 -48.925781 35.054688 -48.140625 35.054688 -47.179688 L 35.054688 -1.105469 C 35.054688 -0.140625 34.753906 0.644531 34.148438 1.25 C 33.542969 1.851562 32.761719 2.15625 31.796875 2.15625 L 26.347656 2.15625 C 25.605469 2.15625 24.945312 1.945312 24.363281 1.523438 C 23.847656 1.152344 23.445312 0.648438 23.148438 0.0078125 L 25.105469 -0.898438 L 23.171875 0.0546875 L 10.207031 -26.292969 L 12.140625 -27.246094 L 14.292969 -27.246094 L 14.292969 -1.105469 C 14.292969 -0.140625 13.992188 0.644531 13.386719 1.25 C 12.78125 1.851562 12 2.15625 11.035156 2.15625 L 4.550781 2.15625 C 3.589844 2.15625 2.804688 1.851562 2.199219 1.25 C 1.59375 0.644531 1.292969 -0.140625 1.292969 -1.105469 L 1.292969 -47.179688 C 1.292969 -48.140625 1.59375 -48.925781 2.199219 -49.53125 C 2.804688 -50.132812 3.589844 -50.4375 4.550781 -50.4375 L 10 -50.4375 C 10.742188 -50.4375 11.402344 -50.226562 11.988281 -49.804688 C 12.5 -49.433594 12.902344 -48.929688 13.199219 -48.289062 L 11.242188 -47.382812 L 13.175781 -48.335938 L 26.144531 -21.988281 L 24.210938 -21.035156 L 22.054688 -21.035156 L 22.054688 -47.179688 C 22.054688 -48.140625 22.355469 -48.925781 22.960938 -49.53125 C 23.566406 -50.132812 24.351562 -50.4375 25.3125 -50.4375 Z M 25.3125 -46.125 C 25.363281 -46.125 25.429688 -46.140625 25.511719 -46.167969 C 25.695312 -46.230469 25.863281 -46.332031 26.011719 -46.480469 C 26.15625 -46.628906 26.261719 -46.796875 26.324219 -46.980469 C 26.351562 -47.0625 26.367188 -47.128906 26.367188 -47.179688 L 26.367188 -21.035156 L 22.277344 -20.085938 L 9.296875 -46.457031 L 9.285156 -46.480469 C 9.304688 -46.4375 9.363281 -46.382812 9.464844 -46.308594 C 9.632812 -46.1875 9.8125 -46.125 10 -46.125 L 4.550781 -46.125 C 4.601562 -46.125 4.667969 -46.140625 4.75 -46.167969 C 4.933594 -46.230469 5.101562 -46.332031 5.25 -46.480469 C 5.398438 -46.628906 5.5 -46.796875 5.5625 -46.980469 C 5.589844 -47.0625 5.605469 -47.128906 5.605469 -47.179688 L 5.605469 -1.105469 C 5.605469 -1.152344 5.589844 -1.21875 5.5625 -1.300781 C 5.5 -1.484375 5.398438 -1.652344 5.25 -1.800781 C 5.101562 -1.949219 4.933594 -2.050781 4.75 -2.113281 C 4.667969 -2.140625 4.601562 -2.15625 4.550781 -2.15625 L 11.035156 -2.15625 C 10.988281 -2.15625 10.921875 -2.140625 10.835938 -2.113281 C 10.652344 -2.050781 10.488281 -1.949219 10.339844 -1.800781 C 10.191406 -1.652344 10.085938 -1.484375 10.027344 -1.300781 C 9.996094 -1.21875 9.984375 -1.152344 9.984375 -1.105469 L 9.984375 -27.246094 L 14.074219 -28.195312 L 27.050781 -1.824219 L 27.0625 -1.800781 C 27.042969 -1.84375 26.984375 -1.902344 26.886719 -1.972656 C 26.714844 -2.09375 26.535156 -2.15625 26.347656 -2.15625 L 31.796875 -2.15625 C 31.746094 -2.15625 31.679688 -2.140625 31.597656 -2.113281 C 31.414062 -2.050781 31.25 -1.949219 31.101562 -1.800781 C 30.953125 -1.652344 30.847656 -1.484375 30.785156 -1.300781 C 30.757812 -1.21875 30.746094 -1.152344 30.746094 -1.105469 L 30.746094 -47.179688 C 30.746094 -47.128906 30.757812 -47.0625 30.785156 -46.980469 C 30.847656 -46.796875 30.953125 -46.628906 31.101562 -46.480469 C 31.25 -46.332031 31.414062 -46.230469 31.597656 -46.167969 C 31.679688 -46.140625 31.746094 -46.125 31.796875 -46.125 Z M 25.3125 -46.125 "/></g></g><g style="fill:#b21a22;fill-opacity:1;"><g transform="translate(276.661607, 214.599812)"><path style="stroke:none" d="M 1.292969 -9.933594 L 1.292969 -38.347656 C 1.292969 -42.214844 2.359375 -45.199219 4.488281 -47.296875 C 6.609375 -49.390625 9.574219 -50.4375 13.378906 -50.4375 L 21.105469 -50.4375 C 24.914062 -50.4375 27.878906 -49.390625 30 -47.296875 C 32.128906 -45.199219 33.195312 -42.214844 33.195312 -38.347656 L 33.195312 -33.246094 C 33.195312 -32.28125 32.890625 -31.5 32.285156 -30.894531 C 31.679688 -30.289062 30.898438 -29.984375 29.933594 -29.984375 L 23.449219 -29.984375 C 22.488281 -29.984375 21.703125 -30.289062 21.097656 -30.894531 C 20.496094 -31.5 20.191406 -32.28125 20.191406 -33.246094 L 20.191406 -36.625 C 20.191406 -36.851562 20.171875 -37.027344 20.128906 -37.148438 C 20.121094 -37.171875 20.117188 -37.1875 20.109375 -37.195312 C 20.117188 -37.1875 20.125 -37.179688 20.132812 -37.167969 C 20.144531 -37.160156 20.152344 -37.152344 20.160156 -37.148438 C 20.152344 -37.152344 20.136719 -37.160156 20.113281 -37.167969 C 19.988281 -37.207031 19.816406 -37.226562 19.589844 -37.226562 L 15.175781 -37.226562 C 14.949219 -37.226562 14.773438 -37.207031 14.648438 -37.167969 C 14.625 -37.160156 14.609375 -37.152344 14.601562 -37.148438 C 14.609375 -37.152344 14.617188 -37.160156 14.628906 -37.167969 C 14.640625 -37.179688 14.648438 -37.1875 14.652344 -37.195312 C 14.648438 -37.1875 14.640625 -37.171875 14.632812 -37.148438 C 14.589844 -37.027344 14.570312 -36.851562 14.570312 -36.625 L 14.570312 -11.65625 C 14.570312 -11.429688 14.589844 -11.253906 14.632812 -11.132812 C 14.640625 -11.109375 14.648438 -11.09375 14.652344 -11.085938 C 14.648438 -11.09375 14.640625 -11.101562 14.628906 -11.113281 C 14.617188 -11.121094 14.609375 -11.128906 14.601562 -11.132812 C 14.609375 -11.128906 14.625 -11.121094 14.648438 -11.113281 C 14.773438 -11.074219 14.949219 -11.054688 15.175781 -11.054688 L 19.589844 -11.054688 C 19.816406 -11.054688 19.988281 -11.074219 20.113281 -11.113281 C 20.136719 -11.121094 20.152344 -11.128906 20.160156 -11.132812 C 20.152344 -11.128906 20.144531 -11.121094 20.132812 -11.113281 C 20.125 -11.101562 20.117188 -11.09375 20.109375 -11.085938 C 20.117188 -11.09375 20.121094 -11.109375 20.128906 -11.132812 C 20.171875 -11.253906 20.191406 -11.429688 20.191406 -11.65625 L 20.191406 -17.65625 L 22.347656 -17.65625 L 22.347656 -15.5 L 18.761719 -15.5 C 17.796875 -15.5 17.015625 -15.804688 16.410156 -16.410156 C 15.804688 -17.015625 15.5 -17.796875 15.5 -18.761719 L 15.5 -25.65625 C 15.5 -26.621094 15.804688 -27.40625 16.410156 -28.011719 C 17.015625 -28.613281 17.796875 -28.917969 18.761719 -28.917969 L 29.933594 -28.917969 C 30.898438 -28.917969 31.679688 -28.613281 32.285156 -28.011719 C 32.890625 -27.40625 33.195312 -26.621094 33.195312 -25.65625 L 33.195312 -9.933594 C 33.195312 -6.117188 32.132812 -3.148438 30.011719 -1.027344 C 27.886719 1.09375 24.917969 2.15625 21.105469 2.15625 L 13.378906 2.15625 C 9.566406 2.15625 6.597656 1.09375 4.476562 -1.027344 C 2.355469 -3.148438 1.292969 -6.117188 1.292969 -9.933594 Z M 5.605469 -9.933594 C 5.605469 -7.308594 6.246094 -5.355469 7.523438 -4.078125 C 8.804688 -2.796875 10.757812 -2.15625 13.378906 -2.15625 L 21.105469 -2.15625 C 23.730469 -2.15625 25.679688 -2.796875 26.960938 -4.078125 C 28.242188 -5.355469 28.882812 -7.308594 28.882812 -9.933594 L 28.882812 -25.65625 C 28.882812 -25.609375 28.894531 -25.542969 28.925781 -25.460938 C 28.984375 -25.277344 29.089844 -25.109375 29.238281 -24.960938 C 29.386719 -24.8125 29.550781 -24.710938 29.734375 -24.648438 C 29.820312 -24.621094 29.886719 -24.605469 29.933594 -24.605469 L 18.761719 -24.605469 C 18.808594 -24.605469 18.875 -24.621094 18.960938 -24.648438 C 19.144531 -24.710938 19.308594 -24.8125 19.457031 -24.960938 C 19.605469 -25.109375 19.710938 -25.277344 19.769531 -25.460938 C 19.800781 -25.542969 19.8125 -25.609375 19.8125 -25.65625 L 19.8125 -18.761719 C 19.8125 -18.808594 19.800781 -18.875 19.769531 -18.960938 C 19.710938 -19.144531 19.605469 -19.308594 19.457031 -19.457031 C 19.308594 -19.605469 19.144531 -19.710938 18.960938 -19.769531 C 18.875 -19.800781 18.808594 -19.8125 18.761719 -19.8125 L 24.503906 -19.8125 L 24.503906 -11.65625 C 24.503906 -10.140625 24.0625 -8.945312 23.183594 -8.0625 C 22.300781 -7.183594 21.101562 -6.742188 19.589844 -6.742188 L 15.175781 -6.742188 C 13.660156 -6.742188 12.460938 -7.183594 11.582031 -8.0625 C 10.699219 -8.945312 10.257812 -10.140625 10.257812 -11.65625 L 10.257812 -36.625 C 10.257812 -38.140625 10.699219 -39.335938 11.582031 -40.21875 C 12.460938 -41.097656 13.660156 -41.539062 15.175781 -41.539062 L 19.589844 -41.539062 C 21.101562 -41.539062 22.300781 -41.097656 23.183594 -40.21875 C 24.0625 -39.335938 24.503906 -38.140625 24.503906 -36.625 L 24.503906 -33.246094 C 24.503906 -33.292969 24.488281 -33.359375 24.460938 -33.445312 C 24.398438 -33.628906 24.296875 -33.792969 24.148438 -33.941406 C 24 -34.089844 23.832031 -34.195312 23.648438 -34.253906 C 23.566406 -34.285156 23.5 -34.296875 23.449219 -34.296875 L 29.933594 -34.296875 C 29.886719 -34.296875 29.820312 -34.285156 29.734375 -34.253906 C 29.550781 -34.195312 29.386719 -34.089844 29.238281 -33.941406 C 29.089844 -33.792969 28.984375 -33.628906 28.925781 -33.445312 C 28.894531 -33.359375 28.882812 -33.292969 28.882812 -33.246094 L 28.882812 -38.347656 C 28.882812 -41.011719 28.246094 -42.972656 26.972656 -44.230469 C 25.691406 -45.492188 23.734375 -46.125 21.105469 -46.125 L 13.378906 -46.125 C 10.75 -46.125 8.796875 -45.492188 7.515625 -44.230469 C 6.242188 -42.972656 5.605469 -41.011719 5.605469 -38.347656 Z M 5.605469 -9.933594 "/></g></g><g style="fill:#b21a22;fill-opacity:1;"><g transform="translate(113.609354, 310.760475)"><path style="stroke:none" d="M -2.15625 9.242188 L -2.15625 2.898438 C -2.15625 1.84375 -1.832031 0.988281 -1.179688 0.339844 C -0.527344 -0.3125 0.324219 -0.636719 1.378906 -0.636719 L 42.96875 -0.636719 C 44.027344 -0.636719 44.878906 -0.3125 45.527344 0.339844 C 46.179688 0.988281 46.503906 1.84375 46.503906 2.898438 L 46.503906 9.242188 C 46.503906 10.296875 46.179688 11.152344 45.527344 11.800781 C 44.878906 12.453125 44.027344 12.777344 42.96875 12.777344 L 1.378906 12.777344 C 0.324219 12.777344 -0.527344 12.453125 -1.179688 11.800781 C -1.832031 11.152344 -2.15625 10.296875 -2.15625 9.242188 Z M 2.15625 9.242188 C 2.15625 9.253906 2.15625 9.261719 2.15625 9.265625 C 2.15625 9.265625 2.15625 9.265625 2.15625 9.261719 C 2.152344 9.234375 2.144531 9.199219 2.132812 9.164062 C 2.082031 9.015625 1.992188 8.878906 1.867188 8.753906 C 1.746094 8.628906 1.605469 8.539062 1.457031 8.492188 C 1.421875 8.476562 1.390625 8.46875 1.359375 8.464844 C 1.359375 8.464844 1.355469 8.464844 1.355469 8.464844 C 1.363281 8.464844 1.371094 8.464844 1.378906 8.464844 L 42.96875 8.464844 C 42.980469 8.464844 42.988281 8.464844 42.992188 8.464844 C 42.992188 8.464844 42.992188 8.464844 42.988281 8.464844 C 42.960938 8.46875 42.929688 8.476562 42.890625 8.492188 C 42.742188 8.539062 42.605469 8.628906 42.480469 8.753906 C 42.355469 8.878906 42.269531 9.015625 42.21875 9.164062 C 42.207031 9.199219 42.199219 9.234375 42.195312 9.261719 C 42.195312 9.265625 42.195312 9.265625 42.195312 9.265625 C 42.195312 9.261719 42.195312 9.253906 42.195312 9.242188 L 42.195312 2.898438 C 42.195312 2.886719 42.195312 2.878906 42.195312 2.875 C 42.195312 2.875 42.195312 2.875 42.195312 2.878906 C 42.199219 2.90625 42.207031 2.9375 42.21875 2.976562 C 42.269531 3.125 42.355469 3.261719 42.480469 3.386719 C 42.605469 3.511719 42.742188 3.597656 42.890625 3.648438 C 42.929688 3.660156 42.960938 3.667969 42.988281 3.671875 C 42.992188 3.671875 42.992188 3.671875 42.992188 3.671875 C 42.988281 3.671875 42.980469 3.671875 42.96875 3.671875 L 1.378906 3.671875 C 1.371094 3.671875 1.363281 3.671875 1.355469 3.671875 C 1.355469 3.671875 1.359375 3.671875 1.359375 3.671875 C 1.390625 3.667969 1.421875 3.660156 1.457031 3.648438 C 1.605469 3.597656 1.746094 3.511719 1.867188 3.386719 C 1.992188 3.261719 2.082031 3.125 2.132812 2.976562 C 2.144531 2.9375 2.152344 2.90625 2.15625 2.878906 C 2.15625 2.875 2.15625 2.875 2.15625 2.875 C 2.15625 2.878906 2.15625 2.886719 2.15625 2.898438 Z M 2.15625 9.242188 "/></g></g><g style="fill:#b21a22;fill-opacity:1;"><g transform="translate(157.945254, 310.760475)"><path style="stroke:none" d="M 33.195312 -47.179688 L 33.195312 -40.28125 C 33.195312 -39.316406 32.890625 -38.535156 32.285156 -37.929688 C 31.679688 -37.324219 30.898438 -37.019531 29.933594 -37.019531 L 12.828125 -37.019531 L 12.828125 -39.175781 L 14.984375 -39.175781 L 14.984375 -27.382812 L 12.828125 -27.382812 L 12.828125 -29.539062 L 25.796875 -29.539062 C 26.757812 -29.539062 27.542969 -29.234375 28.148438 -28.628906 C 28.753906 -28.027344 29.054688 -27.242188 29.054688 -26.277344 L 29.054688 -19.382812 C 29.054688 -18.417969 28.753906 -17.632812 28.148438 -17.03125 C 27.542969 -16.425781 26.757812 -16.121094 25.796875 -16.121094 L 12.828125 -16.121094 L 12.828125 -18.277344 L 14.984375 -18.277344 L 14.984375 -1.105469 C 14.984375 -0.140625 14.683594 0.644531 14.078125 1.25 C 13.472656 1.851562 12.6875 2.15625 11.726562 2.15625 L 4.550781 2.15625 C 3.589844 2.15625 2.804688 1.851562 2.199219 1.25 C 1.59375 0.644531 1.292969 -0.140625 1.292969 -1.105469 L 1.292969 -47.179688 C 1.292969 -48.140625 1.59375 -48.925781 2.199219 -49.53125 C 2.804688 -50.132812 3.589844 -50.4375 4.550781 -50.4375 L 29.933594 -50.4375 C 30.898438 -50.4375 31.679688 -50.132812 32.285156 -49.53125 C 32.890625 -48.925781 33.195312 -48.140625 33.195312 -47.179688 Z M 28.882812 -47.179688 C 28.882812 -47.128906 28.894531 -47.0625 28.925781 -46.980469 C 28.984375 -46.796875 29.089844 -46.628906 29.238281 -46.480469 C 29.386719 -46.332031 29.550781 -46.230469 29.734375 -46.167969 C 29.820312 -46.140625 29.886719 -46.125 29.933594 -46.125 L 4.550781 -46.125 C 4.601562 -46.125 4.667969 -46.140625 4.75 -46.167969 C 4.933594 -46.230469 5.101562 -46.332031 5.25 -46.480469 C 5.398438 -46.628906 5.5 -46.796875 5.5625 -46.980469 C 5.589844 -47.0625 5.605469 -47.128906 5.605469 -47.179688 L 5.605469 -1.105469 C 5.605469 -1.152344 5.589844 -1.21875 5.5625 -1.300781 C 5.5 -1.484375 5.398438 -1.652344 5.25 -1.800781 C 5.101562 -1.949219 4.933594 -2.050781 4.75 -2.113281 C 4.667969 -2.140625 4.601562 -2.15625 4.550781 -2.15625 L 11.726562 -2.15625 C 11.675781 -2.15625 11.609375 -2.140625 11.527344 -2.113281 C 11.34375 -2.050781 11.175781 -1.949219 11.027344 -1.800781 C 10.882812 -1.652344 10.777344 -1.484375 10.714844 -1.300781 C 10.6875 -1.21875 10.671875 -1.152344 10.671875 -1.105469 L 10.671875 -20.433594 L 25.796875 -20.433594 C 25.746094 -20.433594 25.679688 -20.417969 25.597656 -20.390625 C 25.414062 -20.332031 25.246094 -20.226562 25.097656 -20.078125 C 24.953125 -19.929688 24.847656 -19.765625 24.785156 -19.582031 C 24.757812 -19.496094 24.742188 -19.429688 24.742188 -19.382812 L 24.742188 -26.277344 C 24.742188 -26.230469 24.757812 -26.164062 24.785156 -26.078125 C 24.847656 -25.894531 24.953125 -25.730469 25.097656 -25.582031 C 25.246094 -25.433594 25.414062 -25.328125 25.597656 -25.269531 C 25.679688 -25.242188 25.746094 -25.226562 25.796875 -25.226562 L 10.671875 -25.226562 L 10.671875 -41.332031 L 29.933594 -41.332031 C 29.886719 -41.332031 29.820312 -41.320312 29.734375 -41.289062 C 29.550781 -41.230469 29.386719 -41.125 29.238281 -40.976562 C 29.089844 -40.828125 28.984375 -40.664062 28.925781 -40.480469 C 28.894531 -40.394531 28.882812 -40.328125 28.882812 -40.28125 Z M 28.882812 -47.179688 "/></g></g><g style="fill:#b21a22;fill-opacity:1;"><g transform="translate(192.421063, 310.760475)"><path style="stroke:none" d="M 1.292969 -9.933594 L 1.292969 -38.347656 C 1.292969 -42.214844 2.359375 -45.199219 4.488281 -47.296875 C 6.609375 -49.390625 9.574219 -50.4375 13.378906 -50.4375 L 21.105469 -50.4375 C 24.964844 -50.4375 27.945312 -49.386719 30.042969 -47.289062 C 32.144531 -45.1875 33.195312 -42.210938 33.195312 -38.347656 L 33.195312 -9.933594 C 33.195312 -6.125 32.148438 -3.160156 30.054688 -1.039062 C 27.953125 1.089844 24.972656 2.15625 21.105469 2.15625 L 13.378906 2.15625 C 9.566406 2.15625 6.597656 1.09375 4.476562 -1.027344 C 2.355469 -3.148438 1.292969 -6.117188 1.292969 -9.933594 Z M 5.605469 -9.933594 C 5.605469 -7.308594 6.246094 -5.355469 7.523438 -4.078125 C 8.804688 -2.796875 10.757812 -2.15625 13.378906 -2.15625 L 21.105469 -2.15625 C 23.769531 -2.15625 25.730469 -2.792969 26.984375 -4.066406 C 28.25 -5.347656 28.882812 -7.304688 28.882812 -9.933594 L 28.882812 -38.347656 C 28.882812 -41.019531 28.253906 -42.980469 26.996094 -44.238281 C 25.738281 -45.496094 23.773438 -46.125 21.105469 -46.125 L 13.378906 -46.125 C 10.75 -46.125 8.796875 -45.492188 7.515625 -44.230469 C 6.242188 -42.972656 5.605469 -41.011719 5.605469 -38.347656 Z M 15.175781 -11.054688 L 19.589844 -11.054688 C 19.816406 -11.054688 19.988281 -11.074219 20.113281 -11.113281 C 20.136719 -11.121094 20.152344 -11.128906 20.160156 -11.132812 C 20.152344 -11.128906 20.144531 -11.121094 20.132812 -11.113281 C 20.125 -11.101562 20.117188 -11.09375 20.109375 -11.085938 C 20.117188 -11.09375 20.121094 -11.109375 20.128906 -11.132812 C 20.171875 -11.253906 20.191406 -11.429688 20.191406 -11.65625 L 20.191406 -36.625 C 20.191406 -36.851562 20.171875 -37.027344 20.128906 -37.148438 C 20.121094 -37.171875 20.117188 -37.1875 20.109375 -37.195312 C 20.117188 -37.1875 20.125 -37.179688 20.132812 -37.167969 C 20.144531 -37.160156 20.152344 -37.152344 20.160156 -37.148438 C 20.152344 -37.152344 20.136719 -37.160156 20.113281 -37.167969 C 19.988281 -37.207031 19.816406 -37.226562 19.589844 -37.226562 L 15.175781 -37.226562 C 14.949219 -37.226562 14.773438 -37.207031 14.648438 -37.167969 C 14.625 -37.160156 14.609375 -37.152344 14.601562 -37.148438 C 14.609375 -37.152344 14.617188 -37.160156 14.628906 -37.167969 C 14.640625 -37.179688 14.648438 -37.1875 14.652344 -37.195312 C 14.648438 -37.1875 14.640625 -37.171875 14.632812 -37.148438 C 14.589844 -37.027344 14.570312 -36.851562 14.570312 -36.625 L 14.570312 -11.65625 C 14.570312 -11.429688 14.589844 -11.253906 14.632812 -11.132812 C 14.640625 -11.109375 14.648438 -11.09375 14.652344 -11.085938 C 14.648438 -11.09375 14.640625 -11.101562 14.628906 -11.113281 C 14.617188 -11.121094 14.609375 -11.128906 14.601562 -11.132812 C 14.609375 -11.128906 14.625 -11.121094 14.648438 -11.113281 C 14.773438 -11.074219 14.949219 -11.054688 15.175781 -11.054688 Z M 15.175781 -6.742188 C 13.660156 -6.742188 12.460938 -7.183594 11.582031 -8.0625 C 10.699219 -8.945312 10.257812 -10.140625 10.257812 -11.65625 L 10.257812 -36.625 C 10.257812 -38.140625 10.699219 -39.335938 11.582031 -40.21875 C 12.460938 -41.097656 13.660156 -41.539062 15.175781 -41.539062 L 19.589844 -41.539062 C 21.101562 -41.539062 22.300781 -41.097656 23.183594 -40.21875 C 24.0625 -39.335938 24.503906 -38.140625 24.503906 -36.625 L 24.503906 -11.65625 C 24.503906 -10.140625 24.0625 -8.945312 23.183594 -8.0625 C 22.300781 -7.183594 21.101562 -6.742188 19.589844 -6.742188 Z M 15.175781 -6.742188 "/></g></g><g style="fill:#b21a22;fill-opacity:1;"><g transform="translate(226.896872, 310.760475)"><path style="stroke:none" d="M 33.195312 -38.347656 L 33.195312 -24.484375 C 33.195312 -19.6875 31.570312 -16.273438 28.316406 -14.242188 L 27.175781 -16.070312 L 29.269531 -16.578125 L 32.855469 -1.75 L 30.761719 -1.242188 L 32.839844 -1.820312 C 33.148438 -0.707031 33 0.234375 32.394531 1.011719 C 31.800781 1.773438 30.9375 2.15625 29.796875 2.15625 L 23.039062 2.15625 C 22.199219 2.15625 21.484375 1.910156 20.890625 1.421875 C 20.308594 0.941406 19.929688 0.296875 19.757812 -0.515625 L 21.863281 -0.964844 L 19.769531 -0.457031 L 16.460938 -14.042969 L 18.554688 -14.554688 L 18.554688 -12.398438 L 12.414062 -12.398438 L 12.414062 -14.554688 L 14.570312 -14.554688 L 14.570312 -1.105469 C 14.570312 -0.140625 14.269531 0.644531 13.664062 1.25 C 13.058594 1.851562 12.273438 2.15625 11.3125 2.15625 L 4.550781 2.15625 C 3.589844 2.15625 2.804688 1.851562 2.199219 1.25 C 1.59375 0.644531 1.292969 -0.140625 1.292969 -1.105469 L 1.292969 -47.179688 C 1.292969 -48.140625 1.59375 -48.925781 2.199219 -49.53125 C 2.804688 -50.132812 3.589844 -50.4375 4.550781 -50.4375 L 21.105469 -50.4375 C 24.964844 -50.4375 27.945312 -49.386719 30.042969 -47.289062 C 32.144531 -45.1875 33.195312 -42.210938 33.195312 -38.347656 Z M 28.882812 -38.347656 C 28.882812 -41.019531 28.253906 -42.980469 26.996094 -44.238281 C 25.738281 -45.496094 23.773438 -46.125 21.105469 -46.125 L 4.550781 -46.125 C 4.601562 -46.125 4.667969 -46.140625 4.75 -46.167969 C 4.933594 -46.230469 5.101562 -46.332031 5.25 -46.480469 C 5.398438 -46.628906 5.5 -46.796875 5.5625 -46.980469 C 5.589844 -47.0625 5.605469 -47.128906 5.605469 -47.179688 L 5.605469 -1.105469 C 5.605469 -1.152344 5.589844 -1.21875 5.5625 -1.300781 C 5.5 -1.484375 5.398438 -1.652344 5.25 -1.800781 C 5.101562 -1.949219 4.933594 -2.050781 4.75 -2.113281 C 4.667969 -2.140625 4.601562 -2.15625 4.550781 -2.15625 L 11.3125 -2.15625 C 11.261719 -2.15625 11.195312 -2.140625 11.113281 -2.113281 C 10.929688 -2.050781 10.761719 -1.949219 10.613281 -1.800781 C 10.46875 -1.652344 10.363281 -1.484375 10.300781 -1.300781 C 10.273438 -1.21875 10.257812 -1.152344 10.257812 -1.105469 L 10.257812 -16.707031 L 20.246094 -16.707031 L 23.964844 -1.445312 L 23.972656 -1.417969 C 23.9375 -1.585938 23.824219 -1.746094 23.632812 -1.90625 C 23.429688 -2.070312 23.230469 -2.15625 23.039062 -2.15625 L 29.796875 -2.15625 L 29.796875 -2.152344 C 29.75 -2.148438 29.699219 -2.132812 29.644531 -2.113281 C 29.390625 -2.027344 29.171875 -1.867188 28.992188 -1.632812 C 28.804688 -1.394531 28.703125 -1.136719 28.679688 -0.859375 C 28.675781 -0.761719 28.675781 -0.699219 28.683594 -0.664062 L 28.675781 -0.699219 L 24.714844 -17.074219 L 26.03125 -17.898438 C 27.933594 -19.085938 28.882812 -21.28125 28.882812 -24.484375 Z M 12.414062 -25.605469 L 19.3125 -25.605469 C 19.539062 -25.605469 19.714844 -25.628906 19.839844 -25.667969 C 19.859375 -25.675781 19.875 -25.683594 19.882812 -25.6875 C 19.875 -25.683594 19.867188 -25.675781 19.859375 -25.664062 C 19.847656 -25.65625 19.839844 -25.644531 19.835938 -25.636719 C 19.839844 -25.644531 19.847656 -25.660156 19.855469 -25.683594 C 19.894531 -25.808594 19.914062 -25.984375 19.914062 -26.210938 L 19.914062 -36.625 C 19.914062 -36.851562 19.894531 -37.027344 19.855469 -37.148438 C 19.847656 -37.171875 19.839844 -37.1875 19.835938 -37.195312 C 19.839844 -37.1875 19.847656 -37.179688 19.859375 -37.167969 C 19.867188 -37.160156 19.875 -37.152344 19.882812 -37.148438 C 19.875 -37.152344 19.859375 -37.160156 19.839844 -37.167969 C 19.714844 -37.207031 19.539062 -37.226562 19.3125 -37.226562 L 12.414062 -37.226562 L 12.414062 -39.382812 L 14.570312 -39.382812 L 14.570312 -23.449219 L 12.414062 -23.449219 Z M 10.257812 -21.296875 L 10.257812 -41.539062 L 19.3125 -41.539062 C 20.828125 -41.539062 22.023438 -41.097656 22.90625 -40.21875 C 23.785156 -39.335938 24.226562 -38.140625 24.226562 -36.625 L 24.226562 -26.210938 C 24.226562 -24.695312 23.785156 -23.496094 22.90625 -22.617188 C 22.023438 -21.734375 20.828125 -21.296875 19.3125 -21.296875 Z M 10.257812 -21.296875 "/></g></g><g style="fill:#060705;fill-opacity:1;"><g transform="translate(101.288769, 118.439149)"><path style="stroke:none" d="M 31.03125 -38.34375 L 31.03125 -24.484375 C 31.03125 -20.484375 29.742188 -17.675781 27.171875 -16.0625 L 30.765625 -1.234375 C 30.992188 -0.410156 30.671875 0 29.796875 0 L 23.03125 0 C 22.382812 0 21.992188 -0.320312 21.859375 -0.96875 L 18.546875 -14.546875 L 12.421875 -14.546875 L 12.421875 -1.109375 C 12.421875 -0.367188 12.050781 0 11.3125 0 L 4.546875 0 C 3.816406 0 3.453125 -0.367188 3.453125 -1.109375 L 3.453125 -47.171875 C 3.453125 -47.910156 3.816406 -48.28125 4.546875 -48.28125 L 21.109375 -48.28125 C 24.367188 -48.28125 26.835938 -47.441406 28.515625 -45.765625 C 30.191406 -44.085938 31.03125 -41.613281 31.03125 -38.34375 Z M 12.421875 -23.453125 L 19.3125 -23.453125 C 21.144531 -23.453125 22.0625 -24.367188 22.0625 -26.203125 L 22.0625 -36.625 C 22.0625 -38.457031 21.144531 -39.375 19.3125 -39.375 L 12.421875 -39.375 Z M 12.421875 -23.453125 "/></g></g><g style="fill:#060705;fill-opacity:1;"><g transform="translate(135.764578, 118.439149)"><path style="stroke:none" d="M 13.375 -48.28125 L 21.109375 -48.28125 C 24.367188 -48.28125 26.835938 -47.441406 28.515625 -45.765625 C 30.191406 -44.085938 31.03125 -41.613281 31.03125 -38.34375 L 31.03125 -33.796875 C 31.03125 -33.054688 30.664062 -32.6875 29.9375 -32.6875 L 22.96875 -32.6875 C 22.226562 -32.6875 21.859375 -33.054688 21.859375 -33.796875 L 21.859375 -36.6875 C 21.859375 -38.53125 20.941406 -39.453125 19.109375 -39.453125 L 15.3125 -39.453125 C 13.46875 -39.453125 12.546875 -38.53125 12.546875 -36.6875 L 12.546875 -30.828125 L 29.25 -25.453125 C 30.4375 -25.035156 31.03125 -24.179688 31.03125 -22.890625 L 31.03125 -9.9375 C 31.03125 -6.71875 30.191406 -4.253906 28.515625 -2.546875 C 26.835938 -0.847656 24.367188 0 21.109375 0 L 13.375 0 C 10.15625 0 7.695312 -0.847656 6 -2.546875 C 4.300781 -4.253906 3.453125 -6.71875 3.453125 -9.9375 L 3.453125 -14.421875 C 3.453125 -15.148438 3.816406 -15.515625 4.546875 -15.515625 L 11.515625 -15.515625 C 12.253906 -15.515625 12.625 -15.148438 12.625 -14.421875 L 12.625 -11.515625 C 12.625 -9.679688 13.539062 -8.765625 15.375 -8.765625 L 19.109375 -8.765625 C 20.941406 -8.765625 21.859375 -9.679688 21.859375 -11.515625 L 21.859375 -18.484375 L 5.3125 -23.859375 C 4.070312 -24.273438 3.453125 -25.128906 3.453125 -26.421875 L 3.453125 -38.34375 C 3.453125 -41.613281 4.300781 -44.085938 6 -45.765625 C 7.695312 -47.441406 10.15625 -48.28125 13.375 -48.28125 Z M 13.375 -48.28125 "/></g></g><g style="fill:#060705;fill-opacity:1;"><g transform="translate(170.240387, 118.439149)"><path style="stroke:none" d="M 3.453125 -1.109375 L 3.453125 -47.171875 C 3.453125 -47.910156 3.816406 -48.28125 4.546875 -48.28125 L 21.109375 -48.28125 C 24.367188 -48.28125 26.835938 -47.441406 28.515625 -45.765625 C 30.191406 -44.085938 31.03125 -41.613281 31.03125 -38.34375 L 31.03125 -24.828125 C 31.03125 -21.609375 30.191406 -19.160156 28.515625 -17.484375 C 26.835938 -15.804688 24.367188 -14.941406 21.109375 -14.890625 L 12.421875 -14.828125 L 12.421875 -1.03125 C 12.421875 -0.300781 12.050781 0.0625 11.3125 0.0625 L 4.546875 0 C 3.816406 0 3.453125 -0.367188 3.453125 -1.109375 Z M 12.421875 -23.71875 L 19.3125 -23.796875 C 21.144531 -23.796875 22.0625 -24.710938 22.0625 -26.546875 L 22.0625 -36.625 C 22.0625 -38.457031 21.144531 -39.375 19.3125 -39.375 L 12.421875 -39.3125 Z M 12.421875 -23.71875 "/></g></g><g style="fill:#060705;fill-opacity:1;"><g transform="translate(204.716197, 118.439149)"><path style="stroke:none" d="M 30.96875 -47.171875 L 30.96875 -40.28125 C 30.96875 -39.5 30.597656 -39.109375 29.859375 -39.109375 L 12.828125 -39.109375 L 12.828125 -28.484375 L 25.796875 -28.484375 C 26.523438 -28.484375 26.890625 -28.09375 26.890625 -27.3125 L 26.890625 -20.484375 C 26.890625 -19.703125 26.523438 -19.3125 25.796875 -19.3125 L 12.828125 -19.3125 L 12.828125 -9.109375 L 29.859375 -9.109375 C 30.597656 -9.109375 30.96875 -8.738281 30.96875 -8 L 30.96875 -1.109375 C 30.96875 -0.367188 30.597656 0 29.859375 0 L 4.484375 0 C 3.796875 0 3.453125 -0.367188 3.453125 -1.109375 L 3.453125 -47.171875 C 3.453125 -47.910156 3.796875 -48.28125 4.484375 -48.28125 L 29.859375 -48.28125 C 30.597656 -48.28125 30.96875 -47.910156 30.96875 -47.171875 Z M 30.96875 -47.171875 "/></g></g><g style="fill:#060705;fill-opacity:1;"><g transform="translate(239.123043, 118.439149)"><path style="stroke:none" d="M 31.109375 -38.34375 L 31.109375 -30.890625 C 31.109375 -30.160156 30.738281 -29.796875 30 -29.796875 L 23.515625 -29.796875 C 22.785156 -29.796875 22.421875 -30.160156 22.421875 -30.890625 L 22.421875 -36.546875 C 22.421875 -38.390625 21.5 -39.3125 19.65625 -39.3125 L 15.234375 -39.3125 C 13.398438 -39.3125 12.484375 -38.390625 12.484375 -36.546875 L 12.484375 -11.515625 C 12.484375 -9.679688 13.398438 -8.765625 15.234375 -8.765625 L 19.65625 -8.765625 C 21.5 -8.765625 22.421875 -9.679688 22.421875 -11.515625 L 22.421875 -17.375 C 22.421875 -18.113281 22.785156 -18.484375 23.515625 -18.484375 L 30 -18.484375 C 30.738281 -18.484375 31.109375 -18.113281 31.109375 -17.375 L 31.109375 -9.9375 C 31.109375 -6.71875 30.253906 -4.253906 28.546875 -2.546875 C 26.847656 -0.847656 24.390625 0 21.171875 0 L 13.453125 0 C 10.234375 0 7.757812 -0.847656 6.03125 -2.546875 C 4.3125 -4.253906 3.453125 -6.71875 3.453125 -9.9375 L 3.453125 -38.34375 C 3.453125 -41.613281 4.3125 -44.085938 6.03125 -45.765625 C 7.757812 -47.441406 10.234375 -48.28125 13.453125 -48.28125 L 21.171875 -48.28125 C 24.390625 -48.28125 26.847656 -47.441406 28.546875 -45.765625 C 30.253906 -44.085938 31.109375 -41.613281 31.109375 -38.34375 Z M 31.109375 -38.34375 "/></g></g><g style="fill:#060705;fill-opacity:1;"><g transform="translate(63.807965, 214.599812)"><path style="stroke:none" d="M 3.453125 -21.65625 L 3.453125 -28 C 3.453125 -28.914062 3.910156 -29.375 4.828125 -29.375 L 15.71875 -29.375 C 16.644531 -29.375 17.109375 -28.914062 17.109375 -28 L 17.109375 -21.65625 C 17.109375 -20.738281 16.644531 -20.28125 15.71875 -20.28125 L 4.828125 -20.28125 C 3.910156 -20.28125 3.453125 -20.738281 3.453125 -21.65625 Z M 3.453125 -21.65625 "/></g></g><g style="fill:#060705;fill-opacity:1;"><g transform="translate(84.355541, 214.599812)"><path style="stroke:none" d="M 3.453125 -1.109375 L 3.453125 -47.171875 C 3.453125 -47.910156 3.816406 -48.28125 4.546875 -48.28125 L 21.109375 -48.28125 C 24.367188 -48.28125 26.835938 -47.441406 28.515625 -45.765625 C 30.191406 -44.085938 31.03125 -41.613281 31.03125 -38.34375 L 31.03125 -24.828125 C 31.03125 -21.609375 30.191406 -19.160156 28.515625 -17.484375 C 26.835938 -15.804688 24.367188 -14.941406 21.109375 -14.890625 L 12.421875 -14.828125 L 12.421875 -1.03125 C 12.421875 -0.300781 12.050781 0.0625 11.3125 0.0625 L 4.546875 0 C 3.816406 0 3.453125 -0.367188 3.453125 -1.109375 Z M 12.421875 -23.71875 L 19.3125 -23.796875 C 21.144531 -23.796875 22.0625 -24.710938 22.0625 -26.546875 L 22.0625 -36.625 C 22.0625 -38.457031 21.144531 -39.375 19.3125 -39.375 L 12.421875 -39.3125 Z M 12.421875 -23.71875 "/></g></g><g style="fill:#060705;fill-opacity:1;"><g transform="translate(118.83135, 214.599812)"><path style="stroke:none" d="M 30.96875 -47.171875 L 30.96875 -40.28125 C 30.96875 -39.5 30.597656 -39.109375 29.859375 -39.109375 L 12.828125 -39.109375 L 12.828125 -28.484375 L 25.796875 -28.484375 C 26.523438 -28.484375 26.890625 -28.09375 26.890625 -27.3125 L 26.890625 -20.484375 C 26.890625 -19.703125 26.523438 -19.3125 25.796875 -19.3125 L 12.828125 -19.3125 L 12.828125 -9.109375 L 29.859375 -9.109375 C 30.597656 -9.109375 30.96875 -8.738281 30.96875 -8 L 30.96875 -1.109375 C 30.96875 -0.367188 30.597656 0 29.859375 0 L 4.484375 0 C 3.796875 0 3.453125 -0.367188 3.453125 -1.109375 L 3.453125 -47.171875 C 3.453125 -47.910156 3.796875 -48.28125 4.484375 -48.28125 L 29.859375 -48.28125 C 30.597656 -48.28125 30.96875 -47.910156 30.96875 -47.171875 Z M 30.96875 -47.171875 "/></g></g><g style="fill:#060705;fill-opacity:1;"><g transform="translate(153.238197, 214.599812)"><path style="stroke:none" d="M 25.3125 -48.28125 L 31.796875 -48.28125 C 32.523438 -48.28125 32.890625 -47.910156 32.890625 -47.171875 L 32.890625 -1.109375 C 32.890625 -0.367188 32.523438 0 31.796875 0 L 26.34375 0 C 25.789062 0 25.378906 -0.296875 25.109375 -0.890625 L 12.140625 -27.25 L 12.140625 -1.109375 C 12.140625 -0.367188 11.769531 0 11.03125 0 L 4.546875 0 C 3.816406 0 3.453125 -0.367188 3.453125 -1.109375 L 3.453125 -47.171875 C 3.453125 -47.910156 3.816406 -48.28125 4.546875 -48.28125 L 10 -48.28125 C 10.550781 -48.28125 10.960938 -47.976562 11.234375 -47.375 L 24.203125 -21.03125 L 24.203125 -47.171875 C 24.203125 -47.910156 24.570312 -48.28125 25.3125 -48.28125 Z M 25.3125 -48.28125 "/></g></g><g style="fill:#060705;fill-opacity:1;"><g transform="translate(189.575712, 214.599812)"><path style="stroke:none" d="M 3.453125 -1.109375 L 3.453125 -47.171875 C 3.453125 -47.910156 3.816406 -48.28125 4.546875 -48.28125 L 21.109375 -48.28125 C 24.367188 -48.28125 26.835938 -47.425781 28.515625 -45.71875 C 30.191406 -44.019531 31.03125 -41.539062 31.03125 -38.28125 L 31.03125 -9.9375 C 31.03125 -6.71875 30.191406 -4.253906 28.515625 -2.546875 C 26.835938 -0.847656 24.367188 0 21.109375 0 L 4.546875 0 C 3.816406 0 3.453125 -0.367188 3.453125 -1.109375 Z M 12.828125 -9.109375 L 19.171875 -9.109375 C 21.015625 -9.109375 21.9375 -10.023438 21.9375 -11.859375 L 21.9375 -36.34375 C 21.9375 -38.226562 21.015625 -39.171875 19.171875 -39.171875 L 12.828125 -39.171875 Z M 12.828125 -9.109375 "/></g></g><g style="fill:#060705;fill-opacity:1;"><g transform="translate(224.051521, 214.599812)"><path style="stroke:none" d="M 4.546875 0 L 11.71875 0 C 12.457031 0 12.828125 -0.367188 12.828125 -1.109375 L 12.828125 -47.171875 C 12.828125 -47.910156 12.457031 -48.28125 11.71875 -48.28125 L 4.546875 -48.28125 C 3.816406 -48.28125 3.453125 -47.910156 3.453125 -47.171875 L 3.453125 -1.109375 C 3.453125 -0.367188 3.816406 0 4.546875 0 Z M 4.546875 0 "/></g></g><g style="fill:#060705;fill-opacity:1;"><g transform="translate(240.324093, 214.599812)"><path style="stroke:none" d="M 25.3125 -48.28125 L 31.796875 -48.28125 C 32.523438 -48.28125 32.890625 -47.910156 32.890625 -47.171875 L 32.890625 -1.109375 C 32.890625 -0.367188 32.523438 0 31.796875 0 L 26.34375 0 C 25.789062 0 25.378906 -0.296875 25.109375 -0.890625 L 12.140625 -27.25 L 12.140625 -1.109375 C 12.140625 -0.367188 11.769531 0 11.03125 0 L 4.546875 0 C 3.816406 0 3.453125 -0.367188 3.453125 -1.109375 L 3.453125 -47.171875 C 3.453125 -47.910156 3.816406 -48.28125 4.546875 -48.28125 L 10 -48.28125 C 10.550781 -48.28125 10.960938 -47.976562 11.234375 -47.375 L 24.203125 -21.03125 L 24.203125 -47.171875 C 24.203125 -47.910156 24.570312 -48.28125 25.3125 -48.28125 Z M 25.3125 -48.28125 "/></g></g><g style="fill:#060705;fill-opacity:1;"><g transform="translate(276.661607, 214.599812)"><path style="stroke:none" d="M 3.453125 -9.9375 L 3.453125 -38.34375 C 3.453125 -41.613281 4.300781 -44.085938 6 -45.765625 C 7.695312 -47.441406 10.15625 -48.28125 13.375 -48.28125 L 21.109375 -48.28125 C 24.328125 -48.28125 26.785156 -47.441406 28.484375 -45.765625 C 30.179688 -44.085938 31.03125 -41.613281 31.03125 -38.34375 L 31.03125 -33.25 C 31.03125 -32.507812 30.664062 -32.140625 29.9375 -32.140625 L 23.453125 -32.140625 C 22.710938 -32.140625 22.34375 -32.507812 22.34375 -33.25 L 22.34375 -36.625 C 22.34375 -38.457031 21.425781 -39.375 19.59375 -39.375 L 15.171875 -39.375 C 13.335938 -39.375 12.421875 -38.457031 12.421875 -36.625 L 12.421875 -11.65625 C 12.421875 -9.8125 13.335938 -8.890625 15.171875 -8.890625 L 19.59375 -8.890625 C 21.425781 -8.890625 22.34375 -9.8125 22.34375 -11.65625 L 22.34375 -17.65625 L 18.765625 -17.65625 C 18.023438 -17.65625 17.65625 -18.023438 17.65625 -18.765625 L 17.65625 -25.65625 C 17.65625 -26.394531 18.023438 -26.765625 18.765625 -26.765625 L 29.9375 -26.765625 C 30.664062 -26.765625 31.03125 -26.394531 31.03125 -25.65625 L 31.03125 -9.9375 C 31.03125 -6.71875 30.179688 -4.253906 28.484375 -2.546875 C 26.785156 -0.847656 24.328125 0 21.109375 0 L 13.375 0 C 10.15625 0 7.695312 -0.847656 6 -2.546875 C 4.300781 -4.253906 3.453125 -6.71875 3.453125 -9.9375 Z M 3.453125 -9.9375 "/></g></g><g style="fill:#060705;fill-opacity:1;"><g transform="translate(113.609354, 310.760475)"><path style="stroke:none" d="M 0 9.234375 L 0 2.890625 C 0 1.972656 0.457031 1.515625 1.375 1.515625 L 42.96875 1.515625 C 43.882812 1.515625 44.34375 1.972656 44.34375 2.890625 L 44.34375 9.234375 C 44.34375 10.160156 43.882812 10.625 42.96875 10.625 L 1.375 10.625 C 0.457031 10.625 0 10.160156 0 9.234375 Z M 0 9.234375 "/></g></g><g style="fill:#060705;fill-opacity:1;"><g transform="translate(157.945254, 310.760475)"><path style="stroke:none" d="M 31.03125 -47.171875 L 31.03125 -40.28125 C 31.03125 -39.539062 30.664062 -39.171875 29.9375 -39.171875 L 12.828125 -39.171875 L 12.828125 -27.375 L 25.796875 -27.375 C 26.523438 -27.375 26.890625 -27.007812 26.890625 -26.28125 L 26.890625 -19.375 C 26.890625 -18.644531 26.523438 -18.28125 25.796875 -18.28125 L 12.828125 -18.28125 L 12.828125 -1.109375 C 12.828125 -0.367188 12.457031 0 11.71875 0 L 4.546875 0 C 3.816406 0 3.453125 -0.367188 3.453125 -1.109375 L 3.453125 -47.171875 C 3.453125 -47.910156 3.816406 -48.28125 4.546875 -48.28125 L 29.9375 -48.28125 C 30.664062 -48.28125 31.03125 -47.910156 31.03125 -47.171875 Z M 31.03125 -47.171875 "/></g></g><g style="fill:#060705;fill-opacity:1;"><g transform="translate(192.421063, 310.760475)"><path style="stroke:none" d="M 3.453125 -9.9375 L 3.453125 -38.34375 C 3.453125 -41.613281 4.300781 -44.085938 6 -45.765625 C 7.695312 -47.441406 10.15625 -48.28125 13.375 -48.28125 L 21.109375 -48.28125 C 24.367188 -48.28125 26.835938 -47.441406 28.515625 -45.765625 C 30.191406 -44.085938 31.03125 -41.613281 31.03125 -38.34375 L 31.03125 -9.9375 C 31.03125 -6.71875 30.191406 -4.253906 28.515625 -2.546875 C 26.835938 -0.847656 24.367188 0 21.109375 0 L 13.375 0 C 10.15625 0 7.695312 -0.847656 6 -2.546875 C 4.300781 -4.253906 3.453125 -6.71875 3.453125 -9.9375 Z M 15.171875 -8.890625 L 19.59375 -8.890625 C 21.425781 -8.890625 22.34375 -9.8125 22.34375 -11.65625 L 22.34375 -36.625 C 22.34375 -38.457031 21.425781 -39.375 19.59375 -39.375 L 15.171875 -39.375 C 13.335938 -39.375 12.421875 -38.457031 12.421875 -36.625 L 12.421875 -11.65625 C 12.421875 -9.8125 13.335938 -8.890625 15.171875 -8.890625 Z M 15.171875 -8.890625 "/></g></g><g style="fill:#060705;fill-opacity:1;"><g transform="translate(226.896872, 310.760475)"><path style="stroke:none" d="M 31.03125 -38.34375 L 31.03125 -24.484375 C 31.03125 -20.484375 29.742188 -17.675781 27.171875 -16.0625 L 30.765625 -1.234375 C 30.992188 -0.410156 30.671875 0 29.796875 0 L 23.03125 0 C 22.382812 0 21.992188 -0.320312 21.859375 -0.96875 L 18.546875 -14.546875 L 12.421875 -14.546875 L 12.421875 -1.109375 C 12.421875 -0.367188 12.050781 0 11.3125 0 L 4.546875 0 C 3.816406 0 3.453125 -0.367188 3.453125 -1.109375 L 3.453125 -47.171875 C 3.453125 -47.910156 3.816406 -48.28125 4.546875 -48.28125 L 21.109375 -48.28125 C 24.367188 -48.28125 26.835938 -47.441406 28.515625 -45.765625 C 30.191406 -44.085938 31.03125 -41.613281 31.03125 -38.34375 Z M 12.421875 -23.453125 L 19.3125 -23.453125 C 21.144531 -23.453125 22.0625 -24.367188 22.0625 -26.203125 L 22.0625 -36.625 C 22.0625 -38.457031 21.144531 -39.375 19.3125 -39.375 L 12.421875 -39.375 Z M 12.421875 -23.453125 "/></g></g></g></svg>