<svg xmlns="http://www.w3.org/2000/svg" xmlns:xlink="http://www.w3.org/1999/xlink" width="128" zoomAndPan="magnify" viewBox="0 0 96 95.999999" height="128" preserveAspectRatio="xMidYMid meet" version="1.2"><defs><clipPath id="2d4382266e"><path d="M 6 0 L 90 0 L 90 96 L 6 96 Z M 6 0 "/></clipPath><clipPath id="92fc59a980"><path d="M -14.304688 36.578125 L 68.691406 -11.898438 L 110.335938 59.402344 L 27.339844 107.878906 Z M -14.304688 36.578125 "/></clipPath><clipPath id="865bffa9d9"><path d="M 89.484375 23.769531 L 89.5625 71.535156 L 48.082031 95.765625 L 6.515625 72.226562 L 6.4375 24.464844 L 47.921875 0.234375 Z M 89.484375 23.769531 "/></clipPath><clipPath id="99f02c7f8a"><path d="M 14.140625 9.121094 L 81.851562 9.121094 L 81.851562 86.839844 L 14.140625 86.839844 Z M 14.140625 9.121094 "/></clipPath></defs><g id="df66291187"><g clip-rule="nonzero" clip-path="url(#2d4382266e)"><g clip-rule="nonzero" clip-path="url(#92fc59a980)"><g clip-rule="nonzero" clip-path="url(#865bffa9d9)"><path style=" stroke:none;fill-rule:nonzero;fill:#65b30e;fill-opacity:1;" d="M -14.304688 36.578125 L 68.691406 -11.898438 L 110.335938 59.402344 L 27.339844 107.878906 Z M -14.304688 36.578125 "/></g></g></g><path style=" stroke:none;fill-rule:nonzero;fill:#87ff00;fill-opacity:1;" d="M 34.453125 34.738281 L 34.410156 34.695312 L 24.839844 44.265625 L 48.074219 67.457031 L 57.644531 57.933594 L 71.308594 44.265625 L 61.738281 34.695312 L 61.738281 34.652344 L 34.410156 34.652344 Z M 34.453125 34.738281 "/><g clip-rule="nonzero" clip-path="url(#99f02c7f8a)"><path style=" stroke:none;fill-rule:nonzero;fill:#87ff00;fill-opacity:1;" d="M 47.988281 9.179688 L 14.148438 28.574219 L 14.148438 67.371094 L 47.988281 86.769531 L 81.828125 67.371094 L 81.828125 28.574219 Z M 75.359375 63.664062 L 47.988281 79.4375 L 20.613281 63.664062 L 20.617188 32.195312 L 47.988281 16.417969 L 75.363281 32.195312 L 75.363281 63.664062 Z M 75.359375 63.664062 "/></g><g style="fill:#b21a22;fill-opacity:1;"><g transform="translate(15.955713, 59.788365)"><path style="stroke:none" d="M 14.4375 -16.683594 L 14.4375 -4.320312 C 14.4375 -3.222656 14.242188 -2.285156 13.851562 -1.511719 C 13.433594 -0.6875 12.808594 -0.0664062 11.976562 0.355469 L 11.550781 -0.480469 L 12.402344 -0.875 L 13.601562 1.703125 L 12.75 2.101562 L 13.589844 1.679688 C 13.707031 1.914062 13.757812 2.152344 13.738281 2.390625 C 13.714844 2.683594 13.597656 2.941406 13.382812 3.152344 C 13.101562 3.4375 12.75 3.578125 12.332031 3.578125 L 9.210938 3.578125 C 8.789062 3.578125 8.445312 3.429688 8.191406 3.136719 C 8.066406 2.996094 7.957031 2.832031 7.863281 2.640625 L 7.855469 2.625 L 6.828125 0.390625 L 7.679688 0 L 7.679688 0.9375 L 5.820312 0.9375 C 4.160156 0.9375 2.871094 0.476562 1.945312 -0.445312 C 1.023438 -1.371094 0.5625 -2.660156 0.5625 -4.320312 L 0.5625 -16.683594 C 0.5625 -18.363281 1.027344 -19.660156 1.953125 -20.574219 C 2.875 -21.484375 4.164062 -21.941406 5.820312 -21.941406 L 9.179688 -21.941406 C 10.859375 -21.941406 12.15625 -21.484375 13.070312 -20.570312 C 13.984375 -19.65625 14.4375 -18.359375 14.4375 -16.683594 Z M 12.5625 -16.683594 C 12.5625 -17.84375 12.289062 -18.695312 11.742188 -19.246094 C 11.195312 -19.792969 10.34375 -20.066406 9.179688 -20.066406 L 5.820312 -20.066406 C 4.675781 -20.066406 3.828125 -19.789062 3.269531 -19.238281 C 2.714844 -18.691406 2.4375 -17.839844 2.4375 -16.683594 L 2.4375 -4.320312 C 2.4375 -3.179688 2.714844 -2.332031 3.273438 -1.773438 C 3.832031 -1.214844 4.679688 -0.9375 5.820312 -0.9375 L 8.28125 -0.9375 L 9.554688 1.828125 L 8.699219 2.21875 L 9.539062 1.800781 C 9.5625 1.847656 9.585938 1.882812 9.601562 1.902344 C 9.484375 1.769531 9.355469 1.703125 9.210938 1.703125 L 12.332031 1.703125 C 12.234375 1.703125 12.140625 1.746094 12.058594 1.828125 C 11.945312 1.941406 11.882812 2.082031 11.867188 2.246094 C 11.859375 2.351562 11.875 2.445312 11.914062 2.519531 L 11.90625 2.507812 L 10.320312 -0.90625 L 11.125 -1.316406 C 11.59375 -1.554688 11.945312 -1.902344 12.179688 -2.359375 C 12.433594 -2.867188 12.5625 -3.519531 12.5625 -4.320312 Z M 6.339844 -15.933594 L 6.339844 -5.070312 C 6.339844 -4.972656 6.347656 -4.894531 6.363281 -4.84375 C 6.367188 -4.832031 6.371094 -4.824219 6.375 -4.820312 C 6.371094 -4.824219 6.367188 -4.828125 6.363281 -4.832031 C 6.359375 -4.839844 6.355469 -4.839844 6.351562 -4.84375 C 6.355469 -4.839844 6.363281 -4.839844 6.371094 -4.835938 C 6.425781 -4.816406 6.503906 -4.808594 6.601562 -4.808594 L 8.519531 -4.808594 C 8.621094 -4.808594 8.695312 -4.816406 8.75 -4.835938 C 8.757812 -4.839844 8.765625 -4.839844 8.769531 -4.84375 C 8.765625 -4.839844 8.761719 -4.839844 8.757812 -4.832031 C 8.753906 -4.828125 8.75 -4.824219 8.75 -4.820312 C 8.75 -4.824219 8.753906 -4.832031 8.757812 -4.84375 C 8.773438 -4.894531 8.785156 -4.972656 8.785156 -5.070312 L 8.785156 -15.933594 C 8.785156 -16.03125 8.773438 -16.105469 8.757812 -16.160156 C 8.753906 -16.171875 8.75 -16.175781 8.75 -16.179688 C 8.75 -16.175781 8.753906 -16.171875 8.757812 -16.167969 C 8.761719 -16.164062 8.765625 -16.160156 8.769531 -16.160156 C 8.765625 -16.160156 8.757812 -16.164062 8.75 -16.167969 C 8.695312 -16.183594 8.621094 -16.195312 8.519531 -16.195312 L 6.601562 -16.195312 C 6.503906 -16.195312 6.425781 -16.183594 6.371094 -16.167969 C 6.363281 -16.164062 6.355469 -16.160156 6.351562 -16.160156 C 6.355469 -16.160156 6.359375 -16.164062 6.363281 -16.167969 C 6.367188 -16.171875 6.371094 -16.175781 6.375 -16.179688 C 6.371094 -16.175781 6.367188 -16.171875 6.363281 -16.160156 C 6.347656 -16.105469 6.339844 -16.03125 6.339844 -15.933594 Z M 4.464844 -15.933594 C 4.464844 -16.589844 4.65625 -17.113281 5.039062 -17.496094 C 5.421875 -17.878906 5.941406 -18.070312 6.601562 -18.070312 L 8.519531 -18.070312 C 9.179688 -18.070312 9.699219 -17.878906 10.085938 -17.496094 C 10.46875 -17.113281 10.660156 -16.589844 10.660156 -15.933594 L 10.660156 -5.070312 C 10.660156 -4.410156 10.46875 -3.890625 10.085938 -3.507812 C 9.699219 -3.125 9.179688 -2.933594 8.519531 -2.933594 L 6.601562 -2.933594 C 5.941406 -2.933594 5.421875 -3.125 5.039062 -3.507812 C 4.65625 -3.890625 4.464844 -4.410156 4.464844 -5.070312 Z M 4.464844 -15.933594 "/></g></g><g style="fill:#b21a22;fill-opacity:1;"><g transform="translate(30.952619, 59.788365)"><path style="stroke:none" d="M 14.4375 -20.523438 L 14.4375 -17.523438 C 14.4375 -17.101562 14.308594 -16.761719 14.042969 -16.5 C 13.78125 -16.234375 13.441406 -16.105469 13.019531 -16.105469 L 5.582031 -16.105469 L 5.582031 -17.042969 L 6.519531 -17.042969 L 6.519531 -11.910156 L 5.582031 -11.910156 L 5.582031 -12.847656 L 11.222656 -12.847656 C 11.640625 -12.847656 11.980469 -12.71875 12.246094 -12.453125 C 12.507812 -12.191406 12.640625 -11.851562 12.640625 -11.429688 L 12.640625 -8.429688 C 12.640625 -8.011719 12.507812 -7.671875 12.246094 -7.40625 C 11.980469 -7.144531 11.640625 -7.011719 11.222656 -7.011719 L 5.582031 -7.011719 L 5.582031 -7.949219 L 6.519531 -7.949219 L 6.519531 -0.480469 C 6.519531 -0.0625 6.386719 0.28125 6.125 0.542969 C 5.859375 0.804688 5.519531 0.9375 5.101562 0.9375 L 1.980469 0.9375 C 1.5625 0.9375 1.21875 0.804688 0.957031 0.542969 C 0.695312 0.28125 0.5625 -0.0625 0.5625 -0.480469 L 0.5625 -20.523438 C 0.5625 -20.941406 0.695312 -21.28125 0.957031 -21.546875 C 1.21875 -21.808594 1.5625 -21.941406 1.980469 -21.941406 L 13.019531 -21.941406 C 13.441406 -21.941406 13.78125 -21.808594 14.042969 -21.546875 C 14.308594 -21.28125 14.4375 -20.941406 14.4375 -20.523438 Z M 12.5625 -20.523438 C 12.5625 -20.5 12.570312 -20.472656 12.582031 -20.4375 C 12.609375 -20.355469 12.652344 -20.285156 12.71875 -20.21875 C 12.78125 -20.15625 12.855469 -20.109375 12.933594 -20.082031 C 12.972656 -20.070312 13 -20.066406 13.019531 -20.066406 L 1.980469 -20.066406 C 2 -20.066406 2.03125 -20.070312 2.066406 -20.082031 C 2.148438 -20.109375 2.21875 -20.15625 2.285156 -20.21875 C 2.347656 -20.285156 2.394531 -20.355469 2.417969 -20.4375 C 2.433594 -20.472656 2.4375 -20.5 2.4375 -20.523438 L 2.4375 -0.480469 C 2.4375 -0.5 2.433594 -0.53125 2.417969 -0.566406 C 2.394531 -0.648438 2.347656 -0.71875 2.285156 -0.78125 C 2.21875 -0.847656 2.148438 -0.894531 2.066406 -0.917969 C 2.03125 -0.929688 2 -0.9375 1.980469 -0.9375 L 5.101562 -0.9375 C 5.078125 -0.9375 5.050781 -0.929688 5.015625 -0.917969 C 4.933594 -0.894531 4.863281 -0.847656 4.796875 -0.78125 C 4.734375 -0.71875 4.6875 -0.648438 4.660156 -0.566406 C 4.648438 -0.53125 4.644531 -0.5 4.644531 -0.480469 L 4.644531 -8.886719 L 11.222656 -8.886719 C 11.199219 -8.886719 11.171875 -8.882812 11.132812 -8.871094 C 11.054688 -8.84375 10.984375 -8.796875 10.917969 -8.734375 C 10.855469 -8.667969 10.808594 -8.597656 10.78125 -8.515625 C 10.769531 -8.480469 10.761719 -8.453125 10.761719 -8.429688 L 10.761719 -11.429688 C 10.761719 -11.410156 10.769531 -11.382812 10.78125 -11.34375 C 10.808594 -11.265625 10.855469 -11.191406 10.917969 -11.128906 C 10.984375 -11.0625 11.054688 -11.019531 11.132812 -10.992188 C 11.171875 -10.980469 11.199219 -10.972656 11.222656 -10.972656 L 4.644531 -10.972656 L 4.644531 -17.980469 L 13.019531 -17.980469 C 13 -17.980469 12.972656 -17.972656 12.933594 -17.960938 C 12.855469 -17.933594 12.78125 -17.890625 12.71875 -17.824219 C 12.652344 -17.761719 12.609375 -17.6875 12.582031 -17.609375 C 12.570312 -17.570312 12.5625 -17.542969 12.5625 -17.523438 Z M 12.5625 -20.523438 "/></g></g><g style="fill:#b21a22;fill-opacity:1;"><g transform="translate(45.949524, 59.788365)"><path style="stroke:none" d="M 1.980469 -0.9375 L 5.101562 -0.9375 C 5.078125 -0.9375 5.050781 -0.929688 5.015625 -0.917969 C 4.933594 -0.894531 4.863281 -0.847656 4.796875 -0.78125 C 4.734375 -0.71875 4.6875 -0.648438 4.660156 -0.566406 C 4.648438 -0.53125 4.644531 -0.5 4.644531 -0.480469 L 4.644531 -20.523438 C 4.644531 -20.5 4.648438 -20.472656 4.660156 -20.4375 C 4.6875 -20.355469 4.734375 -20.285156 4.796875 -20.21875 C 4.863281 -20.15625 4.933594 -20.109375 5.015625 -20.082031 C 5.050781 -20.070312 5.078125 -20.066406 5.101562 -20.066406 L 1.980469 -20.066406 C 2 -20.066406 2.03125 -20.070312 2.066406 -20.082031 C 2.148438 -20.109375 2.21875 -20.15625 2.285156 -20.21875 C 2.347656 -20.285156 2.394531 -20.355469 2.417969 -20.4375 C 2.433594 -20.472656 2.4375 -20.5 2.4375 -20.523438 L 2.4375 -0.480469 C 2.4375 -0.5 2.433594 -0.53125 2.417969 -0.566406 C 2.394531 -0.648438 2.347656 -0.71875 2.285156 -0.78125 C 2.21875 -0.847656 2.148438 -0.894531 2.066406 -0.917969 C 2.03125 -0.929688 2 -0.9375 1.980469 -0.9375 Z M 1.980469 0.9375 C 1.5625 0.9375 1.21875 0.804688 0.957031 0.542969 C 0.695312 0.28125 0.5625 -0.0625 0.5625 -0.480469 L 0.5625 -20.523438 C 0.5625 -20.941406 0.695312 -21.28125 0.957031 -21.546875 C 1.21875 -21.808594 1.5625 -21.941406 1.980469 -21.941406 L 5.101562 -21.941406 C 5.519531 -21.941406 5.859375 -21.808594 6.125 -21.546875 C 6.386719 -21.28125 6.519531 -20.941406 6.519531 -20.523438 L 6.519531 -0.480469 C 6.519531 -0.0625 6.386719 0.28125 6.125 0.542969 C 5.859375 0.804688 5.519531 0.9375 5.101562 0.9375 Z M 1.980469 0.9375 "/></g></g><g style="fill:#b21a22;fill-opacity:1;"><g transform="translate(53.028059, 59.788365)"><path style="stroke:none" d="M 4.644531 -3.960938 L 4.644531 -20.523438 C 4.644531 -20.5 4.648438 -20.472656 4.660156 -20.4375 C 4.6875 -20.355469 4.734375 -20.285156 4.796875 -20.21875 C 4.863281 -20.15625 4.933594 -20.109375 5.015625 -20.082031 C 5.050781 -20.070312 5.078125 -20.066406 5.101562 -20.066406 L 1.980469 -20.066406 C 2 -20.066406 2.03125 -20.070312 2.066406 -20.082031 C 2.148438 -20.109375 2.21875 -20.15625 2.285156 -20.21875 C 2.347656 -20.285156 2.394531 -20.355469 2.417969 -20.4375 C 2.433594 -20.472656 2.4375 -20.5 2.4375 -20.523438 L 2.4375 -0.480469 C 2.4375 -0.5 2.433594 -0.53125 2.417969 -0.566406 C 2.394531 -0.648438 2.347656 -0.71875 2.285156 -0.78125 C 2.21875 -0.847656 2.148438 -0.894531 2.066406 -0.917969 C 2.03125 -0.929688 2 -0.9375 1.980469 -0.9375 L 11.519531 -0.9375 C 11.5 -0.9375 11.472656 -0.929688 11.433594 -0.917969 C 11.355469 -0.894531 11.28125 -0.847656 11.21875 -0.78125 C 11.152344 -0.71875 11.109375 -0.648438 11.082031 -0.566406 C 11.070312 -0.53125 11.0625 -0.5 11.0625 -0.480469 L 11.0625 -3.480469 C 11.0625 -3.457031 11.070312 -3.429688 11.082031 -3.394531 C 11.109375 -3.3125 11.152344 -3.242188 11.21875 -3.175781 C 11.28125 -3.113281 11.355469 -3.066406 11.433594 -3.039062 C 11.472656 -3.027344 11.5 -3.023438 11.519531 -3.023438 L 4.644531 -3.023438 Z M 6.519531 -3.960938 L 5.582031 -3.960938 L 5.582031 -4.898438 L 11.519531 -4.898438 C 11.941406 -4.898438 12.28125 -4.765625 12.542969 -4.503906 C 12.808594 -4.242188 12.9375 -3.898438 12.9375 -3.480469 L 12.9375 -0.480469 C 12.9375 -0.0625 12.808594 0.28125 12.542969 0.542969 C 12.28125 0.804688 11.941406 0.9375 11.519531 0.9375 L 1.980469 0.9375 C 1.5625 0.9375 1.21875 0.804688 0.957031 0.542969 C 0.695312 0.28125 0.5625 -0.0625 0.5625 -0.480469 L 0.5625 -20.523438 C 0.5625 -20.941406 0.695312 -21.28125 0.957031 -21.546875 C 1.21875 -21.808594 1.5625 -21.941406 1.980469 -21.941406 L 5.101562 -21.941406 C 5.519531 -21.941406 5.859375 -21.808594 6.125 -21.546875 C 6.386719 -21.28125 6.519531 -20.941406 6.519531 -20.523438 Z M 6.519531 -3.960938 "/></g></g><g style="fill:#b21a22;fill-opacity:1;"><g transform="translate(66.525273, 59.788365)"><path style="stroke:none" d="M 4.644531 -3.960938 L 4.644531 -20.523438 C 4.644531 -20.5 4.648438 -20.472656 4.660156 -20.4375 C 4.6875 -20.355469 4.734375 -20.285156 4.796875 -20.21875 C 4.863281 -20.15625 4.933594 -20.109375 5.015625 -20.082031 C 5.050781 -20.070312 5.078125 -20.066406 5.101562 -20.066406 L 1.980469 -20.066406 C 2 -20.066406 2.03125 -20.070312 2.066406 -20.082031 C 2.148438 -20.109375 2.21875 -20.15625 2.285156 -20.21875 C 2.347656 -20.285156 2.394531 -20.355469 2.417969 -20.4375 C 2.433594 -20.472656 2.4375 -20.5 2.4375 -20.523438 L 2.4375 -0.480469 C 2.4375 -0.5 2.433594 -0.53125 2.417969 -0.566406 C 2.394531 -0.648438 2.347656 -0.71875 2.285156 -0.78125 C 2.21875 -0.847656 2.148438 -0.894531 2.066406 -0.917969 C 2.03125 -0.929688 2 -0.9375 1.980469 -0.9375 L 11.519531 -0.9375 C 11.5 -0.9375 11.472656 -0.929688 11.433594 -0.917969 C 11.355469 -0.894531 11.28125 -0.847656 11.21875 -0.78125 C 11.152344 -0.71875 11.109375 -0.648438 11.082031 -0.566406 C 11.070312 -0.53125 11.0625 -0.5 11.0625 -0.480469 L 11.0625 -3.480469 C 11.0625 -3.457031 11.070312 -3.429688 11.082031 -3.394531 C 11.109375 -3.3125 11.152344 -3.242188 11.21875 -3.175781 C 11.28125 -3.113281 11.355469 -3.066406 11.433594 -3.039062 C 11.472656 -3.027344 11.5 -3.023438 11.519531 -3.023438 L 4.644531 -3.023438 Z M 6.519531 -3.960938 L 5.582031 -3.960938 L 5.582031 -4.898438 L 11.519531 -4.898438 C 11.941406 -4.898438 12.28125 -4.765625 12.542969 -4.503906 C 12.808594 -4.242188 12.9375 -3.898438 12.9375 -3.480469 L 12.9375 -0.480469 C 12.9375 -0.0625 12.808594 0.28125 12.542969 0.542969 C 12.28125 0.804688 11.941406 0.9375 11.519531 0.9375 L 1.980469 0.9375 C 1.5625 0.9375 1.21875 0.804688 0.957031 0.542969 C 0.695312 0.28125 0.5625 -0.0625 0.5625 -0.480469 L 0.5625 -20.523438 C 0.5625 -20.941406 0.695312 -21.28125 0.957031 -21.546875 C 1.21875 -21.808594 1.5625 -21.941406 1.980469 -21.941406 L 5.101562 -21.941406 C 5.519531 -21.941406 5.859375 -21.808594 6.125 -21.546875 C 6.386719 -21.28125 6.519531 -20.941406 6.519531 -20.523438 Z M 6.519531 -3.960938 "/></g></g><g style="fill:#060705;fill-opacity:1;"><g transform="translate(15.955713, 59.788365)"><path style="stroke:none" d="M 13.5 -16.6875 L 13.5 -4.3125 C 13.5 -2.414062 12.847656 -1.140625 11.546875 -0.484375 L 12.75 2.09375 C 12.832031 2.257812 12.820312 2.390625 12.71875 2.484375 C 12.613281 2.585938 12.484375 2.640625 12.328125 2.640625 L 9.203125 2.640625 C 9.066406 2.640625 8.960938 2.597656 8.890625 2.515625 C 8.828125 2.441406 8.765625 2.34375 8.703125 2.21875 L 7.6875 0 L 5.8125 0 C 4.414062 0 3.347656 -0.367188 2.609375 -1.109375 C 1.867188 -1.847656 1.5 -2.914062 1.5 -4.3125 L 1.5 -16.6875 C 1.5 -18.101562 1.867188 -19.175781 2.609375 -19.90625 C 3.347656 -20.632812 4.414062 -21 5.8125 -21 L 9.1875 -21 C 10.601562 -21 11.675781 -20.632812 12.40625 -19.90625 C 13.132812 -19.175781 13.5 -18.101562 13.5 -16.6875 Z M 5.40625 -15.9375 L 5.40625 -5.0625 C 5.40625 -4.269531 5.800781 -3.875 6.59375 -3.875 L 8.515625 -3.875 C 9.316406 -3.875 9.71875 -4.269531 9.71875 -5.0625 L 9.71875 -15.9375 C 9.71875 -16.726562 9.316406 -17.125 8.515625 -17.125 L 6.59375 -17.125 C 5.800781 -17.125 5.40625 -16.726562 5.40625 -15.9375 Z M 5.40625 -15.9375 "/></g></g><g style="fill:#060705;fill-opacity:1;"><g transform="translate(30.952619, 59.788365)"><path style="stroke:none" d="M 13.5 -20.515625 L 13.5 -17.515625 C 13.5 -17.203125 13.335938 -17.046875 13.015625 -17.046875 L 5.578125 -17.046875 L 5.578125 -11.90625 L 11.21875 -11.90625 C 11.539062 -11.90625 11.703125 -11.75 11.703125 -11.4375 L 11.703125 -8.4375 C 11.703125 -8.113281 11.539062 -7.953125 11.21875 -7.953125 L 5.578125 -7.953125 L 5.578125 -0.484375 C 5.578125 -0.160156 5.414062 0 5.09375 0 L 1.984375 0 C 1.660156 0 1.5 -0.160156 1.5 -0.484375 L 1.5 -20.515625 C 1.5 -20.835938 1.660156 -21 1.984375 -21 L 13.015625 -21 C 13.335938 -21 13.5 -20.835938 13.5 -20.515625 Z M 13.5 -20.515625 "/></g></g><g style="fill:#060705;fill-opacity:1;"><g transform="translate(45.949524, 59.788365)"><path style="stroke:none" d="M 1.984375 0 L 5.09375 0 C 5.414062 0 5.578125 -0.160156 5.578125 -0.484375 L 5.578125 -20.515625 C 5.578125 -20.835938 5.414062 -21 5.09375 -21 L 1.984375 -21 C 1.660156 -21 1.5 -20.835938 1.5 -20.515625 L 1.5 -0.484375 C 1.5 -0.160156 1.660156 0 1.984375 0 Z M 1.984375 0 "/></g></g><g style="fill:#060705;fill-opacity:1;"><g transform="translate(53.028059, 59.788365)"><path style="stroke:none" d="M 5.578125 -3.953125 L 5.578125 -20.515625 C 5.578125 -20.835938 5.414062 -21 5.09375 -21 L 1.984375 -21 C 1.660156 -21 1.5 -20.835938 1.5 -20.515625 L 1.5 -0.484375 C 1.5 -0.160156 1.660156 0 1.984375 0 L 11.515625 0 C 11.835938 0 12 -0.160156 12 -0.484375 L 12 -3.484375 C 12 -3.796875 11.835938 -3.953125 11.515625 -3.953125 Z M 5.578125 -3.953125 "/></g></g><g style="fill:#060705;fill-opacity:1;"><g transform="translate(66.525273, 59.788365)"><path style="stroke:none" d="M 5.578125 -3.953125 L 5.578125 -20.515625 C 5.578125 -20.835938 5.414062 -21 5.09375 -21 L 1.984375 -21 C 1.660156 -21 1.5 -20.835938 1.5 -20.515625 L 1.5 -0.484375 C 1.5 -0.160156 1.660156 0 1.984375 0 L 11.515625 0 C 11.835938 0 12 -0.160156 12 -0.484375 L 12 -3.484375 C 12 -3.796875 11.835938 -3.953125 11.515625 -3.953125 Z M 5.578125 -3.953125 "/></g></g></g></svg>