<svg xmlns="http://www.w3.org/2000/svg" xmlns:xlink="http://www.w3.org/1999/xlink" width="128" zoomAndPan="magnify" viewBox="0 0 96 95.999999" height="128" preserveAspectRatio="xMidYMid meet" version="1.2"><defs><clipPath id="bd69a89ab5"><path d="M 12.820312 7.605469 L 83.320312 7.605469 L 83.320312 88.605469 L 12.820312 88.605469 Z M 12.820312 7.605469 "/></clipPath><clipPath id="b3ed737fc8"><path d="M 83.890625 83.6875 L 96 83.6875 L 96 96 L 83.890625 96 Z M 83.890625 83.6875 "/></clipPath><clipPath id="825fade157"><path d="M 83.921875 92.621094 C 84.058594 91.601562 84.152344 91.355469 84.269531 91.125 C 84.382812 90.894531 84.539062 90.664062 84.710938 90.46875 C 84.863281 90.277344 85.074219 90.105469 85.265625 89.953125 C 85.476562 89.796875 85.863281 89.605469 85.957031 89.566406 C 85.976562 89.566406 85.996094 89.585938 85.996094 89.566406 C 86.035156 89.472656 85.054688 88.433594 85.152344 87.820312 C 85.285156 86.917969 86.878906 85.535156 87.9375 84.921875 C 88.894531 84.363281 89.992188 84.25 91.085938 84.078125 C 92.257812 83.902344 93.753906 83.539062 94.789062 83.921875 C 95.769531 84.289062 96.519531 85.34375 97.210938 86.1875 C 97.921875 87.070312 98.457031 88.109375 98.9375 89.125 C 99.417969 90.105469 99.992188 91.085938 100.109375 92.199219 C 100.242188 93.484375 100.089844 95.328125 99.476562 96.441406 C 98.898438 97.460938 97.804688 98.246094 96.769531 98.746094 C 95.710938 99.246094 94.386719 99.457031 93.214844 99.457031 C 92.082031 99.4375 90.164062 99.128906 89.855469 98.726562 C 89.722656 98.554688 89.992188 98.226562 89.914062 98.113281 C 89.835938 98.015625 89.644531 98.035156 89.511719 98.015625 C 89.394531 97.976562 89.222656 97.996094 89.125 97.957031 C 89.050781 97.9375 88.992188 97.882812 88.933594 97.863281 C 88.875 97.84375 88.820312 97.84375 88.742188 97.824219 C 88.644531 97.765625 88.511719 97.671875 88.398438 97.59375 C 88.28125 97.535156 88.128906 97.476562 88.03125 97.421875 C 87.972656 97.363281 87.957031 97.304688 87.898438 97.265625 C 87.839844 97.230469 87.78125 97.210938 87.726562 97.171875 C 87.648438 97.09375 87.570312 96.941406 87.476562 96.84375 C 87.378906 96.75 87.265625 96.652344 87.1875 96.558594 C 87.148438 96.5 87.128906 96.441406 87.109375 96.382812 C 87.070312 96.328125 87.015625 96.289062 86.976562 96.230469 C 86.917969 96.132812 86.859375 95.921875 86.839844 95.847656 C 86.824219 95.808594 86.804688 95.769531 86.804688 95.769531 C 86.785156 95.769531 86.285156 95.691406 86.054688 95.597656 C 85.804688 95.519531 85.574219 95.386719 85.363281 95.25 C 85.132812 95.097656 84.941406 94.925781 84.769531 94.753906 C 84.59375 94.558594 84.441406 94.328125 84.308594 94.117188 C 84.191406 93.886719 84.097656 93.636719 84.039062 93.390625 C 83.960938 93.140625 83.921875 92.621094 83.921875 92.621094 M 90.527344 90.679688 C 90.527344 90.679688 90.546875 90.679688 90.546875 90.679688 C 90.546875 90.679688 90.527344 90.679688 90.527344 90.679688 "/></clipPath><clipPath id="1d810e4235"><path d="M 73.382812 73.738281 L 91.875 73.738281 L 91.875 91.5625 L 73.382812 91.5625 Z M 73.382812 73.738281 "/></clipPath><clipPath id="a208c55c4a"><path d="M 77.601562 76.707031 C 82.488281 79.785156 83.34375 80.34375 83.984375 81.117188 C 84.609375 81.824219 85.070312 82.648438 85.398438 83.503906 C 85.726562 84.359375 85.957031 85.3125 85.992188 86.21875 C 86.042969 87.125 85.828125 88.210938 85.644531 88.933594 C 85.515625 89.445312 85.398438 89.839844 85.152344 90.203125 C 84.890625 90.578125 84.429688 90.976562 84.082031 91.171875 C 83.851562 91.320312 83.6875 91.386719 83.425781 91.453125 C 83.03125 91.519531 82.355469 91.535156 81.976562 91.46875 C 81.695312 91.4375 81.5 91.335938 81.285156 91.222656 C 81.070312 91.125 80.890625 91.023438 80.691406 90.828125 C 80.398438 90.5625 80.019531 90.019531 79.855469 89.660156 C 79.722656 89.410156 79.6875 89.230469 79.65625 88.949219 C 79.625 88.574219 79.589844 88.011719 79.804688 87.519531 C 80.101562 86.84375 80.957031 86.085938 81.613281 85.414062 C 82.324219 84.707031 83.210938 84.082031 83.902344 83.371094 C 84.558594 82.699219 85.019531 81.859375 85.695312 81.28125 C 86.335938 80.738281 87.160156 80.164062 87.816406 79.949219 C 88.34375 79.785156 88.90625 79.820312 89.316406 79.867188 C 89.59375 79.902344 89.777344 79.964844 90.023438 80.097656 C 90.386719 80.296875 90.894531 80.640625 91.191406 81.035156 C 91.488281 81.414062 91.71875 81.925781 91.800781 82.402344 C 91.882812 82.863281 91.832031 83.421875 91.683594 83.882812 C 91.535156 84.34375 91.175781 84.855469 90.910156 85.148438 C 90.714844 85.363281 90.597656 85.429688 90.304688 85.609375 C 89.675781 85.972656 88.230469 86.8125 87.128906 86.992188 C 86.042969 87.15625 84.757812 87.042969 83.753906 86.664062 C 82.800781 86.316406 81.925781 85.5625 81.1875 84.855469 C 80.480469 84.179688 79.9375 83.324219 79.410156 82.515625 C 78.917969 81.726562 78.636719 80.839844 78.160156 80.082031 C 77.664062 79.308594 76.628906 78.75 76.53125 77.894531 C 76.398438 76.824219 77.285156 74.667969 78.191406 74.074219 C 78.964844 73.550781 80.378906 73.730469 81.285156 74.027344 C 82.140625 74.289062 82.78125 74.964844 83.523438 75.671875 C 84.460938 76.558594 85.597656 78.585938 86.355469 79.128906 C 86.730469 79.390625 87.042969 79.308594 87.339844 79.472656 C 87.652344 79.652344 87.933594 79.867188 88.179688 80.132812 C 88.410156 80.394531 88.609375 80.691406 88.738281 81.019531 C 88.886719 81.332031 88.988281 81.695312 89.003906 82.039062 C 89.035156 82.386719 89.019531 82.746094 88.9375 83.078125 C 88.855469 83.421875 88.707031 83.769531 88.527344 84.046875 C 88.34375 84.34375 88.097656 84.625 87.835938 84.835938 C 87.554688 85.066406 87.242188 85.25 86.914062 85.363281 C 86.601562 85.496094 86.238281 85.5625 85.894531 85.578125 C 85.53125 85.59375 85.167969 85.542969 84.839844 85.445312 C 84.511719 85.347656 84.183594 85.183594 83.902344 84.984375 C 83.605469 84.789062 83.34375 84.523438 83.144531 84.246094 C 82.949219 83.964844 82.765625 83.636719 82.667969 83.308594 C 82.570312 82.976562 82.503906 82.617188 82.519531 82.253906 C 82.519531 81.910156 82.585938 81.546875 82.699219 81.234375 C 82.832031 80.90625 82.996094 80.574219 83.210938 80.3125 C 83.441406 80.03125 83.703125 79.785156 84 79.605469 C 84.28125 79.40625 84.625 79.257812 84.957031 79.175781 C 85.300781 79.09375 85.664062 79.0625 86.007812 79.078125 C 86.355469 79.109375 86.714844 79.191406 87.027344 79.324219 C 87.359375 79.457031 87.671875 79.652344 87.917969 79.882812 C 88.179688 80.113281 88.410156 80.394531 88.589844 80.707031 C 88.757812 81.003906 88.886719 81.347656 88.953125 81.679688 C 89.019531 82.023438 89.035156 82.386719 89.003906 82.730469 C 88.953125 83.078125 88.855469 83.4375 88.691406 83.75 C 88.542969 84.0625 88.328125 84.359375 88.082031 84.605469 C 87.851562 84.855469 87.554688 85.066406 87.242188 85.230469 C 86.929688 85.378906 86.585938 85.496094 86.238281 85.542969 C 85.894531 85.59375 85.5625 85.609375 85.183594 85.527344 C 84.691406 85.414062 84.148438 85.132812 83.574219 84.789062 C 82.832031 84.34375 81.761719 83.703125 81.1875 82.910156 C 80.609375 82.121094 79.902344 80.855469 80.101562 80.097656 C 80.296875 79.375 81.910156 79.191406 82.257812 78.402344 C 82.636719 77.515625 81.613281 75.011719 81.925781 74.882812 C 82.207031 74.765625 83.210938 76.214844 83.738281 76.988281 C 84.265625 77.792969 84.363281 79.144531 85.070312 79.621094 C 85.746094 80.097656 87.042969 79.917969 87.816406 79.949219 C 88.394531 79.964844 88.90625 79.820312 89.316406 79.867188 C 89.59375 79.902344 89.777344 79.964844 90.023438 80.097656 C 90.386719 80.296875 90.894531 80.640625 91.191406 81.035156 C 91.488281 81.414062 91.71875 81.925781 91.800781 82.402344 C 91.882812 82.863281 91.785156 83.488281 91.683594 83.882812 C 91.621094 84.164062 91.503906 84.359375 91.371094 84.558594 C 91.242188 84.769531 91.125 84.96875 90.910156 85.148438 C 90.597656 85.414062 90.054688 85.527344 89.628906 85.90625 C 89.035156 86.433594 88.542969 87.570312 87.835938 88.175781 C 87.144531 88.769531 85.875 89.117188 85.480469 89.558594 C 85.269531 89.773438 85.316406 89.972656 85.152344 90.203125 C 84.921875 90.515625 84.496094 90.957031 84.082031 91.171875 C 83.6875 91.402344 83.160156 91.535156 82.699219 91.550781 C 82.238281 91.550781 81.648438 91.386719 81.285156 91.222656 C 81.039062 91.125 80.890625 91.023438 80.691406 90.828125 C 80.398438 90.5625 80.019531 90.085938 79.855469 89.660156 C 79.671875 89.230469 79.625 88.738281 79.640625 88.226562 C 79.671875 87.652344 80.183594 87.027344 80.085938 86.402344 C 79.953125 85.644531 79.34375 84.804688 78.621094 84.046875 C 77.617188 82.996094 75.066406 81.925781 74.257812 81.101562 C 73.863281 80.691406 73.699219 80.394531 73.566406 79.984375 C 73.421875 79.570312 73.421875 79.011719 73.453125 78.648438 C 73.484375 78.402344 73.535156 78.238281 73.652344 78.007812 C 73.816406 77.679688 74.195312 77.1875 74.457031 76.957031 C 74.636719 76.773438 74.785156 76.691406 75.015625 76.59375 C 75.363281 76.460938 75.90625 76.3125 76.332031 76.328125 C 76.761719 76.347656 77.601562 76.707031 77.601562 76.707031 "/></clipPath><clipPath id="71666f44e6"><path d="M 18.15625 68.160156 L 29.414062 68.160156 L 29.414062 78.726562 L 18.15625 78.726562 Z M 18.15625 68.160156 "/></clipPath><clipPath id="276fd07eb9"><path d="M 22.605469 68.777344 C 27.230469 72.363281 28.351562 73.449219 28.828125 74.09375 C 29.058594 74.421875 29.15625 74.636719 29.238281 74.929688 C 29.335938 75.226562 29.386719 75.554688 29.386719 75.871094 C 29.371094 76.164062 29.304688 76.496094 29.207031 76.789062 C 29.105469 77.070312 28.941406 77.367188 28.746094 77.613281 C 28.5625 77.84375 28.316406 78.074219 28.054688 78.238281 C 27.789062 78.402344 27.492188 78.535156 27.199219 78.617188 C 26.902344 78.683594 26.574219 78.714844 26.261719 78.699219 C 25.945312 78.667969 25.632812 78.601562 25.355469 78.46875 C 25.058594 78.355469 24.777344 78.171875 24.546875 77.976562 C 24.316406 77.761719 24.121094 77.515625 23.957031 77.25 C 23.808594 76.972656 23.691406 76.675781 23.628906 76.363281 C 23.578125 76.066406 23.5625 75.738281 23.59375 75.425781 C 23.644531 75.128906 23.742188 74.800781 23.875 74.535156 C 24.003906 74.257812 24.203125 73.976562 24.417969 73.761719 C 24.628906 73.550781 24.894531 73.351562 25.171875 73.21875 C 25.453125 73.070312 25.765625 72.972656 26.0625 72.921875 C 26.375 72.890625 26.703125 72.890625 27 72.957031 C 27.3125 73.007812 27.625 73.121094 27.890625 73.269531 C 28.167969 73.417969 28.414062 73.632812 28.628906 73.863281 C 28.828125 74.074219 29.007812 74.355469 29.140625 74.636719 C 29.253906 74.929688 29.335938 75.242188 29.371094 75.554688 C 29.402344 75.851562 29.371094 76.183594 29.304688 76.496094 C 29.222656 76.789062 29.089844 77.085938 28.925781 77.351562 C 28.761719 77.613281 28.546875 77.859375 28.316406 78.058594 C 28.070312 78.253906 27.789062 78.417969 27.492188 78.519531 C 27.199219 78.632812 26.886719 78.699219 26.574219 78.699219 C 26.261719 78.714844 25.929688 78.667969 25.652344 78.585938 C 25.355469 78.484375 25.109375 78.402344 24.796875 78.171875 C 24.253906 77.761719 23.628906 76.808594 22.804688 76.050781 C 21.71875 75.03125 19.464844 73.613281 18.757812 72.710938 C 18.410156 72.25 18.296875 71.921875 18.214844 71.507812 C 18.132812 71.082031 18.195312 70.539062 18.277344 70.175781 C 18.328125 69.929688 18.394531 69.78125 18.542969 69.566406 C 18.738281 69.269531 19.101562 68.84375 19.464844 68.628906 C 19.84375 68.398438 20.367188 68.265625 20.730469 68.21875 C 20.996094 68.183594 21.160156 68.183594 21.40625 68.25 C 21.75 68.332031 22.605469 68.777344 22.605469 68.777344 "/></clipPath><clipPath id="df4ae69ac1"><path d="M 20.386719 70.730469 L 72.378906 70.730469 L 72.378906 87.324219 L 20.386719 87.324219 Z M 20.386719 70.730469 "/></clipPath><clipPath id="dc8d2d6680"><path d="M 24.464844 71.0625 C 30.6875 74.535156 33.007812 75.605469 33.632812 77.121094 C 34.222656 78.550781 33.910156 81.382812 33.070312 82.222656 C 32.429688 82.878906 30.867188 82.796875 29.914062 82.597656 C 28.992188 82.417969 28.203125 81.679688 27.429688 81.183594 C 26.6875 80.707031 25.863281 80.195312 25.355469 79.671875 C 24.976562 79.292969 24.679688 78.847656 24.515625 78.484375 C 24.402344 78.222656 24.351562 78.058594 24.335938 77.777344 C 24.300781 77.367188 24.335938 76.757812 24.5 76.3125 C 24.664062 75.886719 24.960938 75.425781 25.320312 75.113281 C 25.667969 74.800781 26.144531 74.535156 26.605469 74.421875 C 27.066406 74.304688 27.59375 74.304688 28.054688 74.40625 C 28.515625 74.519531 29.386719 74.964844 29.351562 75.078125 C 29.320312 75.210938 26.65625 74.847656 26.65625 74.832031 C 26.65625 74.832031 28.382812 74.734375 29.402344 74.996094 C 30.867188 75.375 32.398438 76.660156 34.4375 77.433594 C 37.300781 78.535156 42.121094 80.015625 45.148438 80.527344 C 47.273438 80.871094 49.183594 80.820312 50.710938 80.789062 C 51.796875 80.757812 52.554688 80.65625 53.476562 80.507812 C 54.398438 80.363281 55.136719 80.214844 56.191406 79.902344 C 57.738281 79.441406 60.371094 78.585938 61.804688 77.859375 C 62.789062 77.351562 63.414062 76.871094 64.140625 76.28125 C 64.847656 75.703125 65.539062 74.832031 66.097656 74.355469 C 66.476562 74.042969 66.773438 73.84375 67.101562 73.632812 C 67.414062 73.449219 67.726562 73.269531 68.054688 73.171875 C 68.402344 73.054688 68.78125 73.007812 69.125 73.023438 C 69.472656 73.039062 69.847656 73.105469 70.179688 73.21875 C 70.507812 73.351562 70.820312 73.53125 71.101562 73.761719 C 71.378906 73.976562 71.625 74.257812 71.808594 74.554688 C 72.003906 74.847656 72.152344 75.195312 72.234375 75.539062 C 72.316406 75.886719 72.335938 76.246094 72.316406 76.609375 C 72.285156 76.957031 72.1875 77.316406 72.054688 77.644531 C 71.90625 77.960938 71.707031 78.273438 71.476562 78.535156 C 71.230469 78.796875 70.933594 79.027344 70.640625 79.210938 C 70.328125 79.375 69.980469 79.503906 69.636719 79.570312 C 69.289062 79.636719 68.910156 79.636719 68.566406 79.589844 C 68.21875 79.539062 67.859375 79.441406 67.546875 79.277344 C 67.234375 79.128906 66.921875 78.898438 66.671875 78.648438 C 66.425781 78.402344 66.210938 78.089844 66.046875 77.777344 C 65.898438 77.464844 65.785156 77.101562 65.753906 76.757812 C 65.703125 76.414062 65.71875 76.035156 65.785156 75.6875 C 65.851562 75.34375 65.980469 74.996094 66.148438 74.683594 C 66.328125 74.386719 66.558594 74.09375 66.820312 73.863281 C 67.085938 73.613281 67.398438 73.417969 67.726562 73.285156 C 68.054688 73.152344 68.417969 73.054688 68.761719 73.039062 C 69.109375 73.007812 69.488281 73.039062 69.832031 73.121094 C 70.179688 73.203125 70.523438 73.351562 70.804688 73.550781 C 71.101562 73.746094 71.378906 73.992188 71.609375 74.273438 C 71.824219 74.535156 72.003906 74.867188 72.121094 75.195312 C 72.25 75.523438 72.316406 75.902344 72.316406 76.246094 C 72.335938 76.59375 72.285156 76.972656 72.167969 77.300781 C 72.070312 77.644531 71.988281 77.875 71.691406 78.253906 C 71.082031 79.078125 69.191406 80.722656 68.121094 81.613281 C 67.296875 82.285156 66.804688 82.714844 65.867188 83.242188 C 64.519531 83.980469 62.082031 84.789062 60.632812 85.3125 C 59.628906 85.675781 58.921875 85.921875 58.035156 86.171875 C 57.144531 86.417969 56.257812 86.582031 55.335938 86.761719 C 54.363281 86.960938 53.507812 87.207031 52.375 87.289062 C 50.792969 87.386719 48.324219 87.140625 46.761719 87.042969 C 45.644531 86.976562 45.148438 87.058594 43.882812 86.828125 C 41.367188 86.367188 35.097656 84.457031 32.660156 83.519531 C 31.441406 83.042969 30.753906 82.847656 29.996094 82.238281 C 29.238281 81.628906 28.894531 80.296875 28.085938 79.882812 C 27.328125 79.488281 25.964844 80.015625 25.355469 79.671875 C 24.910156 79.421875 24.695312 78.929688 24.515625 78.484375 C 24.351562 78.042969 24.285156 77.5 24.335938 77.039062 C 24.382812 76.558594 24.566406 76.050781 24.828125 75.671875 C 25.089844 75.277344 25.503906 74.914062 25.914062 74.683594 C 26.324219 74.46875 26.851562 74.339844 27.328125 74.324219 C 27.804688 74.324219 28.367188 74.488281 28.746094 74.667969 C 29.058594 74.800781 29.238281 74.949219 29.535156 75.226562 C 30.011719 75.6875 31.277344 76.59375 31.261719 77.351562 C 31.210938 78.289062 29.304688 80.3125 28.398438 80.34375 C 27.625 80.378906 27.132812 79.0625 26.210938 78.402344 C 24.945312 77.5 22.226562 76.445312 21.355469 75.640625 C 20.929688 75.242188 20.746094 74.882812 20.582031 74.554688 C 20.484375 74.304688 20.453125 74.109375 20.417969 73.894531 C 20.402344 73.679688 20.367188 73.484375 20.417969 73.21875 C 20.484375 72.875 20.648438 72.332031 20.878906 71.96875 C 21.125 71.625 21.570312 71.277344 21.867188 71.082031 C 22.097656 70.949219 22.246094 70.898438 22.492188 70.851562 C 22.855469 70.785156 23.480469 70.769531 23.824219 70.832031 C 24.085938 70.882812 24.464844 71.0625 24.464844 71.0625 "/></clipPath><clipPath id="235f4f2aaa"><path d="M 66.21875 42.617188 L 87.433594 42.617188 L 87.433594 79.089844 L 66.21875 79.089844 Z M 66.21875 42.617188 "/></clipPath><clipPath id="1eda7b8aa4"><path d="M 67.792969 73.84375 C 69.667969 72.792969 70.507812 72.050781 71.183594 71.410156 C 71.855469 70.769531 72.382812 70.226562 73.042969 69.386719 C 73.996094 68.136719 75.246094 66.195312 76.199219 64.53125 C 77.140625 62.886719 78.078125 61.40625 78.734375 59.464844 C 79.523438 57.109375 79.886719 53.886719 80.296875 51.316406 C 80.644531 49.046875 80.726562 46.019531 81.089844 44.851562 C 81.234375 44.375 81.367188 44.191406 81.582031 43.929688 C 81.796875 43.648438 82.058594 43.402344 82.339844 43.207031 C 82.617188 43.007812 82.964844 42.859375 83.292969 42.761719 C 83.621094 42.679688 83.984375 42.628906 84.328125 42.664062 C 84.675781 42.679688 85.039062 42.761719 85.351562 42.875 C 85.679688 43.007812 85.992188 43.207031 86.253906 43.417969 C 86.5 43.648438 86.75 43.929688 86.929688 44.226562 C 87.09375 44.523438 87.242188 44.851562 87.308594 45.195312 C 87.390625 45.527344 87.40625 45.886719 87.375 46.234375 C 87.324219 46.578125 87.226562 46.941406 87.078125 47.253906 C 86.945312 47.550781 86.730469 47.863281 86.5 48.109375 C 86.253906 48.355469 85.976562 48.585938 85.664062 48.75 C 85.367188 48.898438 85.003906 49.015625 84.675781 49.082031 C 84.328125 49.128906 83.96875 49.128906 83.621094 49.082031 C 83.292969 49.015625 82.929688 48.898438 82.636719 48.734375 C 82.324219 48.570312 82.042969 48.355469 81.796875 48.109375 C 81.566406 47.863281 81.367188 47.550781 81.21875 47.238281 C 81.070312 46.925781 80.972656 46.578125 80.941406 46.234375 C 80.90625 45.886719 80.921875 45.527344 80.988281 45.179688 C 81.070312 44.851562 81.203125 44.503906 81.382812 44.210938 C 81.566406 43.914062 81.796875 43.632812 82.058594 43.417969 C 82.324219 43.1875 82.636719 43.007812 82.964844 42.875 C 83.277344 42.746094 83.640625 42.679688 83.984375 42.664062 C 84.328125 42.628906 84.691406 42.679688 85.019531 42.777344 C 85.351562 42.859375 85.679688 43.023438 85.976562 43.207031 C 86.253906 43.402344 86.519531 43.648438 86.730469 43.929688 C 86.929688 44.210938 87.109375 44.523438 87.210938 44.851562 C 87.324219 45.179688 87.375 45.394531 87.390625 45.886719 C 87.40625 47.054688 86.996094 49.707031 86.667969 51.84375 C 86.273438 54.394531 85.664062 58.195312 85.085938 60.1875 C 84.757812 61.339844 84.527344 61.832031 84.050781 62.851562 C 83.359375 64.335938 82.191406 66.40625 81.152344 68.070312 C 80.132812 69.664062 79.128906 71.230469 77.929688 72.628906 C 76.742188 74.042969 75.214844 75.523438 74.011719 76.511719 C 73.125 77.25 72.300781 77.761719 71.496094 78.207031 C 70.851562 78.566406 70.210938 78.914062 69.617188 79.027344 C 69.160156 79.109375 68.648438 79.0625 68.300781 78.996094 C 68.039062 78.945312 67.890625 78.878906 67.675781 78.75 C 67.382812 78.550781 66.9375 78.207031 66.707031 77.84375 C 66.476562 77.480469 66.3125 77.019531 66.261719 76.59375 C 66.230469 76.164062 66.34375 75.621094 66.460938 75.277344 C 66.542969 75.046875 66.625 74.898438 66.789062 74.699219 C 67.003906 74.421875 67.792969 73.84375 67.792969 73.84375 "/></clipPath><clipPath id="62d0a21401"><path d="M 55.902344 10.597656 L 86.957031 10.597656 L 86.957031 48.722656 L 55.902344 48.722656 Z M 55.902344 10.597656 "/></clipPath><clipPath id="e736e12fef"><path d="M 81.417969 46.382812 C 80.199219 40.34375 79.605469 38.664062 78.949219 36.707031 C 78.160156 34.289062 76.910156 30.570312 76.101562 28.625 C 75.640625 27.507812 75.34375 26.765625 74.835938 26.027344 C 74.375 25.351562 73.585938 24.890625 73.222656 24.316406 C 72.925781 23.855469 72.730469 23.394531 72.679688 22.898438 C 72.613281 22.421875 72.730469 21.796875 72.84375 21.402344 C 72.925781 21.125 73.042969 20.941406 73.191406 20.726562 C 73.335938 20.515625 73.46875 20.332031 73.683594 20.152344 C 74.011719 19.90625 74.554688 19.558594 75.015625 19.445312 C 75.492188 19.328125 76.136719 19.363281 76.53125 19.429688 C 76.828125 19.476562 76.992188 19.542969 77.238281 19.691406 C 77.601562 19.90625 78.058594 20.234375 78.390625 20.695312 C 78.832031 21.320312 79 22.457031 79.441406 23.296875 C 79.886719 24.132812 80.675781 24.957031 81.054688 25.714844 C 81.351562 26.304688 81.550781 26.867188 81.679688 27.425781 C 81.8125 27.953125 81.925781 28.460938 81.878906 28.957031 C 81.8125 29.449219 81.613281 29.976562 81.335938 30.386719 C 81.054688 30.796875 80.546875 31.195312 80.199219 31.425781 C 79.9375 31.570312 79.753906 31.636719 79.476562 31.703125 C 79.0625 31.769531 78.421875 31.820312 77.929688 31.703125 C 77.453125 31.589844 76.941406 31.324219 76.5625 30.996094 C 76.199219 30.667969 75.625 29.796875 75.691406 29.746094 C 75.773438 29.664062 78.042969 31.605469 78.011719 31.636719 C 77.996094 31.6875 76.429688 30.882812 75.691406 30.125 C 74.652344 29.054688 73.765625 26.585938 72.84375 25.386719 C 72.1875 24.53125 71.625 23.953125 70.902344 23.394531 C 70.179688 22.851562 69.257812 22.570312 68.46875 22.078125 C 67.660156 21.582031 67.050781 21.023438 66.113281 20.464844 C 64.78125 19.675781 62.640625 18.507812 61.175781 17.929688 C 60.089844 17.488281 58.90625 17.339844 58.199219 17.058594 C 57.789062 16.894531 57.539062 16.777344 57.261719 16.566406 C 56.980469 16.367188 56.71875 16.089844 56.519531 15.808594 C 56.324219 15.511719 56.160156 15.183594 56.058594 14.835938 C 55.960938 14.492188 55.910156 14.128906 55.929688 13.769531 C 55.945312 13.421875 56.027344 13.058594 56.140625 12.730469 C 56.273438 12.402344 56.472656 12.074219 56.683594 11.808594 C 56.914062 11.53125 57.195312 11.300781 57.507812 11.101562 C 57.804688 10.921875 58.148438 10.789062 58.496094 10.707031 C 58.824219 10.625 59.203125 10.59375 59.546875 10.640625 C 59.910156 10.675781 60.273438 10.773438 60.585938 10.90625 C 60.914062 11.050781 61.226562 11.265625 61.472656 11.496094 C 61.738281 11.742188 61.96875 12.039062 62.132812 12.351562 C 62.296875 12.648438 62.429688 13.011719 62.492188 13.355469 C 62.542969 13.703125 62.542969 14.082031 62.492188 14.425781 C 62.445312 14.773438 62.328125 15.132812 62.164062 15.445312 C 62 15.757812 61.785156 16.054688 61.523438 16.300781 C 61.277344 16.546875 60.964844 16.761719 60.652344 16.910156 C 60.320312 17.058594 59.976562 17.15625 59.613281 17.207031 C 59.269531 17.238281 58.890625 17.222656 58.542969 17.15625 C 58.214844 17.074219 57.855469 16.945312 57.558594 16.761719 C 57.246094 16.597656 56.964844 16.351562 56.734375 16.089844 C 56.503906 15.824219 56.308594 15.496094 56.175781 15.167969 C 56.042969 14.855469 55.960938 14.492188 55.929688 14.128906 C 55.910156 13.785156 55.945312 13.40625 56.042969 13.078125 C 56.125 12.730469 56.289062 12.386719 56.472656 12.089844 C 56.667969 11.808594 56.933594 11.53125 57.210938 11.316406 C 57.492188 11.101562 57.820312 10.921875 58.148438 10.804688 C 58.480469 10.691406 58.757812 10.609375 59.203125 10.625 C 60.007812 10.640625 61.507812 11.136719 62.542969 11.464844 C 63.480469 11.761719 64.1875 12.023438 65.191406 12.5 C 66.609375 13.160156 68.515625 14.292969 70.160156 15.28125 C 71.824219 16.269531 73.863281 17.421875 75.097656 18.425781 C 75.988281 19.132812 76.511719 19.742188 77.140625 20.464844 C 77.746094 21.171875 78.457031 21.878906 78.816406 22.734375 C 79.164062 23.574219 78.785156 24.742188 79.246094 25.515625 C 79.722656 26.324219 81.320312 26.882812 81.679688 27.425781 C 81.863281 27.707031 81.84375 27.886719 81.863281 28.183594 C 81.894531 28.59375 81.863281 29.234375 81.695312 29.710938 C 81.515625 30.171875 81.203125 30.652344 80.824219 30.980469 C 80.460938 31.308594 79.953125 31.570312 79.476562 31.703125 C 78.980469 31.820312 78.339844 31.785156 77.929688 31.703125 C 77.632812 31.65625 77.46875 31.589844 77.203125 31.441406 C 76.84375 31.226562 76.429688 30.914062 76.054688 30.421875 C 75.445312 29.648438 74.785156 28.117188 74.242188 26.964844 C 73.734375 25.863281 73.105469 24.546875 72.859375 23.640625 C 72.695312 23.066406 72.648438 22.554688 72.664062 22.144531 C 72.679688 21.847656 72.730469 21.667969 72.84375 21.402344 C 73.007812 21.023438 73.402344 20.449219 73.683594 20.152344 C 73.898438 19.953125 74.046875 19.839844 74.308594 19.722656 C 74.6875 19.542969 75.28125 19.347656 75.773438 19.347656 C 76.265625 19.347656 76.742188 19.429688 77.238281 19.691406 C 77.929688 20.054688 78.769531 20.875 79.375 21.601562 C 79.984375 22.339844 80.480469 23.214844 80.90625 24.085938 C 81.351562 24.941406 81.582031 25.617188 81.992188 26.785156 C 82.734375 28.808594 83.984375 32.722656 84.726562 35.242188 C 85.332031 37.265625 85.828125 38.992188 86.1875 40.753906 C 86.535156 42.351562 86.796875 44.539062 86.878906 45.378906 C 86.914062 45.707031 86.960938 45.789062 86.929688 46.050781 C 86.878906 46.414062 86.75 46.957031 86.535156 47.320312 C 86.304688 47.699219 85.894531 48.058594 85.597656 48.257812 C 85.382812 48.40625 85.234375 48.472656 84.972656 48.539062 C 84.625 48.621094 84.066406 48.703125 83.65625 48.621094 C 83.226562 48.539062 82.78125 48.339844 82.4375 48.078125 C 82.09375 47.8125 81.777344 47.351562 81.613281 47.023438 C 81.5 46.792969 81.417969 46.382812 81.417969 46.382812 "/></clipPath><clipPath id="0562ee96ee"><path d="M 43.421875 8.546875 L 62.136719 8.546875 L 62.136719 16.710938 L 43.421875 16.710938 Z M 43.421875 8.546875 "/></clipPath><clipPath id="40c85cb553"><path d="M 43.457031 13.601562 C 44.292969 9.191406 45.628906 8.878906 46.597656 8.667969 C 47.519531 8.453125 48.472656 8.601562 49.429688 8.617188 C 50.398438 8.632812 51.402344 8.667969 52.390625 8.765625 C 53.394531 8.878906 54.398438 9.09375 55.386719 9.242188 C 56.339844 9.390625 57.589844 9.441406 58.214844 9.652344 C 58.542969 9.769531 58.660156 9.964844 58.921875 10.066406 C 59.203125 10.148438 59.566406 10.082031 59.878906 10.179688 C 60.191406 10.277344 60.519531 10.425781 60.800781 10.625 C 61.0625 10.824219 61.390625 11.167969 61.523438 11.347656 C 61.589844 11.449219 61.605469 11.5625 61.65625 11.59375 C 61.671875 11.628906 61.6875 11.613281 61.703125 11.628906 C 61.753906 11.679688 61.785156 11.859375 61.820312 11.957031 C 61.867188 12.054688 61.949219 12.171875 61.984375 12.269531 C 62 12.320312 61.984375 12.386719 62 12.433594 C 62.015625 12.484375 62.050781 12.535156 62.066406 12.597656 C 62.082031 12.683594 62.066406 12.828125 62.082031 12.945312 C 62.082031 13.042969 62.132812 13.191406 62.132812 13.273438 C 62.132812 13.339844 62.097656 13.390625 62.097656 13.4375 C 62.097656 13.503906 62.117188 13.554688 62.097656 13.621094 C 62.082031 13.71875 62.015625 13.867188 62 13.949219 C 62 13.980469 61.984375 14 61.984375 14.046875 C 61.984375 14.113281 62 14.226562 61.96875 14.359375 C 61.949219 14.523438 61.886719 14.789062 61.785156 15 C 61.703125 15.199219 61.589844 15.398438 61.457031 15.578125 C 61.324219 15.757812 61.175781 15.921875 60.996094 16.070312 C 60.832031 16.203125 60.632812 16.335938 60.4375 16.417969 C 60.238281 16.515625 60.027344 16.597656 59.796875 16.648438 C 59.582031 16.679688 59.136719 16.695312 59.136719 16.695312 C 59.136719 16.695312 58.050781 16.679688 57.394531 16.648438 C 56.503906 16.613281 55.320312 16.515625 54.316406 16.417969 C 53.34375 16.316406 52.390625 16.21875 51.4375 16.089844 C 50.515625 15.957031 49.59375 15.773438 48.671875 15.628906 C 47.75 15.480469 46.78125 15.527344 45.90625 15.199219 C 45.035156 14.855469 43.457031 13.601562 43.457031 13.601562 "/></clipPath><clipPath id="6e627cb5c6"><path d="M 9.351562 8.609375 L 49.570312 8.609375 L 49.570312 44.746094 L 9.351562 44.746094 Z M 9.351562 8.609375 "/></clipPath><clipPath id="a380683ddd"><path d="M 46.945312 14.144531 C 44.691406 14.410156 42.617188 15.117188 41.613281 15.199219 C 41.035156 15.230469 40.59375 15.167969 40.230469 15.066406 C 39.96875 15 39.820312 14.917969 39.605469 14.773438 C 39.292969 14.542969 38.882812 14.144531 38.652344 13.769531 C 38.4375 13.371094 38.289062 12.878906 38.273438 12.433594 C 38.253906 11.992188 38.371094 11.480469 38.566406 11.085938 C 38.75 10.675781 39.078125 10.277344 39.441406 10.015625 C 39.800781 9.734375 40.214844 9.589844 40.722656 9.472656 C 41.398438 9.339844 42.617188 9.523438 43.175781 9.441406 C 43.472656 9.40625 43.621094 9.292969 43.851562 9.257812 C 44.097656 9.210938 44.292969 9.191406 44.574219 9.226562 C 44.953125 9.277344 45.578125 9.488281 45.90625 9.6875 C 46.152344 9.820312 46.285156 9.933594 46.449219 10.132812 C 46.714844 10.425781 47.027344 10.921875 47.15625 11.367188 C 47.289062 11.808594 47.304688 12.335938 47.207031 12.78125 C 47.109375 13.226562 46.878906 13.703125 46.597656 14.046875 C 46.300781 14.410156 46.023438 14.65625 45.464844 14.902344 C 44.292969 15.378906 41.496094 15.332031 39.605469 15.792969 C 37.730469 16.253906 35.589844 17.058594 34.125 17.667969 C 33.121094 18.078125 32.5625 18.308594 31.609375 18.851562 C 30.210938 19.660156 28.183594 20.941406 26.71875 22.210938 C 25.273438 23.460938 23.988281 24.925781 22.835938 26.421875 C 21.703125 27.917969 20.699219 29.566406 19.824219 31.226562 C 18.9375 32.886719 18.195312 34.582031 17.539062 36.425781 C 16.816406 38.382812 16.253906 41.578125 15.746094 42.695312 C 15.53125 43.15625 15.398438 43.335938 15.152344 43.601562 C 14.921875 43.847656 14.625 44.078125 14.3125 44.257812 C 14 44.421875 13.65625 44.539062 13.308594 44.605469 C 12.949219 44.671875 12.585938 44.671875 12.238281 44.621094 C 11.878906 44.570312 11.53125 44.457031 11.21875 44.292969 C 10.90625 44.128906 10.59375 43.914062 10.347656 43.648438 C 10.101562 43.402344 9.886719 43.089844 9.738281 42.777344 C 9.589844 42.464844 9.492188 42.101562 9.441406 41.757812 C 9.394531 41.394531 9.410156 41.035156 9.492188 40.6875 C 9.558594 40.34375 9.691406 39.980469 9.871094 39.683594 C 10.050781 39.371094 10.28125 39.09375 10.546875 38.863281 C 10.824219 38.632812 11.136719 38.433594 11.464844 38.300781 C 11.78125 38.152344 12.15625 38.070312 12.503906 38.054688 C 12.847656 38.023438 13.226562 38.070312 13.574219 38.152344 C 13.902344 38.238281 14.246094 38.402344 14.542969 38.597656 C 14.839844 38.78125 15.121094 39.042969 15.332031 39.324219 C 15.546875 39.585938 15.730469 39.929688 15.84375 40.261719 C 15.957031 40.589844 16.023438 40.953125 16.023438 41.3125 C 16.042969 41.660156 15.976562 42.039062 15.875 42.367188 C 15.761719 42.695312 15.597656 43.042969 15.382812 43.320312 C 15.167969 43.601562 14.90625 43.863281 14.609375 44.0625 C 14.328125 44.257812 13.984375 44.421875 13.65625 44.523438 C 13.308594 44.621094 12.929688 44.671875 12.585938 44.652344 C 12.238281 44.636719 11.863281 44.554688 11.53125 44.441406 C 11.21875 44.308594 10.890625 44.128906 10.609375 43.898438 C 10.347656 43.667969 10.101562 43.386719 9.921875 43.089844 C 9.722656 42.792969 9.589844 42.449219 9.507812 42.101562 C 9.425781 41.757812 9.410156 41.429688 9.425781 41.035156 C 9.476562 40.523438 9.605469 40.046875 9.804688 39.324219 C 10.132812 38.023438 10.777344 35.667969 11.433594 33.890625 C 12.09375 32.113281 12.867188 30.371094 13.703125 28.675781 C 14.558594 26.949219 15.269531 25.320312 16.519531 23.640625 C 18.03125 21.582031 20.484375 19.082031 22.425781 17.40625 C 24.003906 16.039062 25.488281 15.066406 27.117188 14.113281 C 28.726562 13.160156 30.226562 12.402344 32.132812 11.679688 C 34.488281 10.773438 38.207031 9.636719 40.246094 9.390625 C 41.449219 9.226562 42.371094 9.507812 43.175781 9.441406 C 43.71875 9.40625 44.179688 9.210938 44.574219 9.226562 C 44.835938 9.226562 45.019531 9.277344 45.265625 9.375 C 45.628906 9.523438 46.136719 9.800781 46.449219 10.132812 C 46.78125 10.460938 47.027344 10.921875 47.15625 11.367188 C 47.289062 11.808594 47.304688 12.335938 47.207031 12.78125 C 47.109375 13.226562 46.878906 13.703125 46.597656 14.046875 C 46.300781 14.410156 45.859375 14.6875 45.464844 14.902344 C 45.101562 15.085938 44.820312 15.167969 44.34375 15.230469 C 43.519531 15.363281 41.777344 15.363281 40.921875 15.214844 C 40.363281 15.117188 39.984375 15.019531 39.605469 14.773438 C 39.226562 14.523438 38.882812 14.144531 38.652344 13.769531 C 38.4375 13.371094 38.304688 12.8125 38.273438 12.433594 C 38.253906 12.171875 38.273438 11.992188 38.335938 11.742188 C 38.4375 11.382812 38.652344 10.839844 38.929688 10.492188 C 39.226562 10.148438 39.570312 9.882812 40.050781 9.671875 C 40.707031 9.359375 41.742188 9.210938 42.632812 9.046875 C 43.503906 8.878906 44.492188 8.75 45.332031 8.699219 C 46.023438 8.648438 46.714844 8.566406 47.273438 8.683594 C 47.734375 8.765625 48.179688 9.011719 48.472656 9.210938 C 48.6875 9.359375 48.804688 9.472656 48.953125 9.6875 C 49.148438 9.984375 49.414062 10.476562 49.496094 10.886719 C 49.558594 11.316406 49.542969 11.808594 49.414062 12.203125 C 49.28125 12.617188 48.96875 13.078125 48.738281 13.339844 C 48.554688 13.539062 48.441406 13.636719 48.210938 13.75 C 47.882812 13.914062 46.945312 14.144531 46.945312 14.144531 "/></clipPath><clipPath id="eaaf07b366"><path d="M 8.785156 38.550781 L 23.59375 38.550781 L 23.59375 73.304688 L 8.785156 73.304688 Z M 8.785156 38.550781 "/></clipPath><clipPath id="f33ae5427b"><path d="M 15.5 41.429688 C 14.824219 51.023438 14.640625 53.128906 14.890625 54.660156 C 15.070312 55.746094 15.433594 56.519531 15.828125 57.390625 C 16.222656 58.261719 16.714844 59.085938 17.226562 59.875 C 17.71875 60.664062 18.328125 61.339844 18.804688 62.128906 C 19.300781 62.953125 19.578125 63.972656 20.121094 64.777344 C 20.648438 65.566406 21.453125 66.09375 21.996094 66.902344 C 22.574219 67.757812 23.230469 69.832031 23.398438 69.796875 C 23.460938 69.78125 23.429688 69.253906 23.445312 69.253906 C 23.480469 69.253906 23.542969 69.765625 23.542969 70.027344 C 23.5625 70.273438 23.542969 70.503906 23.460938 70.785156 C 23.347656 71.195312 23.085938 71.789062 22.753906 72.148438 C 22.425781 72.527344 21.964844 72.859375 21.503906 73.039062 C 21.027344 73.21875 20.46875 73.285156 19.972656 73.238281 C 19.480469 73.171875 18.886719 72.90625 18.527344 72.695312 C 18.277344 72.546875 18.132812 72.414062 17.949219 72.183594 C 17.6875 71.855469 17.554688 71.3125 17.226562 70.832031 C 16.765625 70.191406 15.925781 69.5 15.316406 68.761719 C 14.707031 68.019531 14.164062 67.363281 13.574219 66.390625 C 12.78125 65.058594 11.714844 62.769531 11.152344 61.339844 C 10.742188 60.335938 10.5625 59.777344 10.316406 58.707031 C 9.953125 57.144531 9.558594 54.378906 9.410156 52.78125 C 9.3125 51.714844 9.261719 50.757812 9.292969 50.066406 C 9.328125 49.640625 9.359375 49.34375 9.476562 49.015625 C 9.589844 48.683594 9.753906 48.355469 9.96875 48.078125 C 10.183594 47.796875 10.445312 47.535156 10.742188 47.335938 C 11.039062 47.136719 11.367188 46.992188 11.714844 46.890625 C 12.042969 46.792969 12.421875 46.761719 12.765625 46.777344 C 13.113281 46.792969 13.472656 46.875 13.804688 47.007812 C 14.132812 47.136719 14.445312 47.320312 14.726562 47.550781 C 14.988281 47.78125 15.234375 48.058594 15.414062 48.355469 C 15.597656 48.667969 15.730469 49.015625 15.8125 49.34375 C 15.875 49.6875 15.894531 50.066406 15.859375 50.414062 C 15.828125 50.757812 15.730469 51.121094 15.582031 51.433594 C 15.433594 51.761719 15.21875 52.074219 14.988281 52.320312 C 14.742188 52.570312 14.445312 52.800781 14.132812 52.964844 C 13.820312 53.128906 13.472656 53.242188 13.128906 53.308594 C 12.78125 53.359375 12.40625 53.359375 12.058594 53.308594 C 11.714844 53.261719 11.367188 53.128906 11.054688 52.964844 C 10.742188 52.800781 10.445312 52.585938 10.199219 52.320312 C 9.96875 52.074219 9.753906 51.761719 9.605469 51.449219 C 9.460938 51.121094 9.359375 50.773438 9.328125 50.414062 C 9.277344 50.066406 9.292969 49.707031 9.375 49.359375 C 9.460938 49.015625 9.589844 48.667969 9.773438 48.371094 C 9.953125 48.058594 10.199219 47.78125 10.464844 47.550781 C 10.726562 47.335938 11.039062 47.136719 11.367188 47.007812 C 11.695312 46.875 12.058594 46.792969 12.40625 46.777344 C 12.765625 46.761719 13.128906 46.792969 13.472656 46.890625 C 13.804688 46.992188 14.148438 47.136719 14.429688 47.335938 C 14.726562 47.535156 14.988281 47.796875 15.203125 48.078125 C 15.414062 48.339844 15.5625 48.519531 15.710938 49.015625 C 16.089844 50.265625 16.171875 54.378906 16.535156 56.222656 C 16.75 57.40625 16.980469 58.148438 17.308594 59.070312 C 17.636719 60.023438 18.082031 60.992188 18.542969 61.882812 C 18.988281 62.722656 19.429688 63.496094 19.992188 64.269531 C 20.582031 65.089844 21.40625 65.832031 21.980469 66.671875 C 22.558594 67.492188 23.25 68.480469 23.445312 69.253906 C 23.609375 69.8125 23.527344 70.375 23.460938 70.785156 C 23.414062 71.082031 23.347656 71.261719 23.199219 71.523438 C 22.984375 71.871094 22.589844 72.398438 22.179688 72.675781 C 21.769531 72.957031 21.242188 73.171875 20.746094 73.238281 C 20.253906 73.285156 19.679688 73.21875 19.21875 73.054688 C 18.757812 72.875 18.277344 72.5625 17.949219 72.183594 C 17.621094 71.820312 17.539062 71.210938 17.226562 70.832031 C 16.914062 70.472656 16.453125 70.339844 16.074219 69.945312 C 15.546875 69.386719 14.957031 68.464844 14.476562 67.675781 C 14 66.851562 13.6875 65.898438 13.226562 65.074219 C 12.75 64.269531 12.140625 63.59375 11.664062 62.789062 C 11.152344 61.933594 10.644531 60.992188 10.25 60.074219 C 9.855469 59.167969 9.492188 58.261719 9.261719 57.339844 C 9.015625 56.417969 8.882812 55.480469 8.816406 54.558594 C 8.75 53.621094 8.816406 52.683594 8.867188 51.730469 C 8.898438 50.742188 8.949219 49.953125 9.0625 48.703125 C 9.261719 46.644531 9.738281 41.773438 10.050781 40.605469 C 10.132812 40.277344 10.167969 40.210938 10.316406 39.980469 C 10.496094 39.683594 10.859375 39.257812 11.21875 39.027344 C 11.582031 38.78125 12.109375 38.648438 12.46875 38.582031 C 12.734375 38.550781 12.914062 38.582031 13.144531 38.613281 C 13.359375 38.648438 13.554688 38.679688 13.785156 38.78125 C 14.117188 38.945312 14.609375 39.304688 14.855469 39.570312 C 15.039062 39.765625 15.121094 39.898438 15.21875 40.128906 C 15.351562 40.472656 15.5 41.429688 15.5 41.429688 "/></clipPath><clipPath id="84a8d57123"><path d="M 7 6.90625 L 96 6.90625 L 96 96 L 7 96 Z M 7 6.90625 "/></clipPath></defs><g id="c24bdd1c2c"><path style=" stroke:none;fill-rule:nonzero;fill:#87ff00;fill-opacity:1;" d="M 33.933594 34.234375 L 33.890625 34.191406 L 23.941406 44.136719 L 48.097656 68.246094 L 58.042969 58.34375 L 72.246094 44.136719 L 62.300781 34.191406 L 62.300781 34.144531 L 33.890625 34.144531 Z M 33.933594 34.234375 "/><g clip-rule="nonzero" clip-path="url(#bd69a89ab5)"><path style=" stroke:none;fill-rule:nonzero;fill:#87ff00;fill-opacity:1;" d="M 48.003906 7.660156 L 12.828125 27.828125 L 12.828125 68.15625 L 48.007812 88.324219 L 83.183594 68.15625 L 83.183594 27.828125 L 48.007812 7.664062 Z M 76.460938 64.300781 L 48.003906 80.703125 L 19.550781 64.300781 L 19.550781 31.589844 L 48.007812 15.1875 L 76.460938 31.589844 Z M 76.460938 64.300781 "/></g><g clip-rule="nonzero" clip-path="url(#b3ed737fc8)"><g clip-rule="nonzero" clip-path="url(#825fade157)"><path style=" stroke:none;fill-rule:nonzero;fill:#060705;fill-opacity:1;" d="M 83.15625 83.15625 L 100.84375 83.15625 L 100.84375 100.242188 L 83.15625 100.242188 Z M 83.15625 83.15625 "/></g></g><g clip-rule="nonzero" clip-path="url(#1d810e4235)"><g clip-rule="nonzero" clip-path="url(#a208c55c4a)"><path style=" stroke:none;fill-rule:nonzero;fill:#060705;fill-opacity:1;" d="M 72.792969 73.367188 L 92.460938 73.367188 L 92.460938 92.226562 L 72.792969 92.226562 Z M 72.792969 73.367188 "/></g></g><g clip-rule="nonzero" clip-path="url(#71666f44e6)"><g clip-rule="nonzero" clip-path="url(#276fd07eb9)"><path style=" stroke:none;fill-rule:nonzero;fill:#060705;fill-opacity:1;" d="M 17.554688 67.558594 L 30.0625 67.558594 L 30.0625 79.375 L 17.554688 79.375 Z M 17.554688 67.558594 "/></g></g><g clip-rule="nonzero" clip-path="url(#df4ae69ac1)"><g clip-rule="nonzero" clip-path="url(#dc8d2d6680)"><path style=" stroke:none;fill-rule:nonzero;fill:#060705;fill-opacity:1;" d="M 19.761719 70.175781 L 73.003906 70.175781 L 73.003906 87.945312 L 19.761719 87.945312 Z M 19.761719 70.175781 "/></g></g><g clip-rule="nonzero" clip-path="url(#235f4f2aaa)"><g clip-rule="nonzero" clip-path="url(#1eda7b8aa4)"><path style=" stroke:none;fill-rule:nonzero;fill:#060705;fill-opacity:1;" d="M 65.605469 42.003906 L 88.046875 42.003906 L 88.046875 79.703125 L 65.605469 79.703125 Z M 65.605469 42.003906 "/></g></g><g clip-rule="nonzero" clip-path="url(#62d0a21401)"><g clip-rule="nonzero" clip-path="url(#e736e12fef)"><path style=" stroke:none;fill-rule:nonzero;fill:#060705;fill-opacity:1;" d="M 55.269531 9.964844 L 87.585938 9.964844 L 87.585938 49.355469 L 55.269531 49.355469 Z M 55.269531 9.964844 "/></g></g><g clip-rule="nonzero" clip-path="url(#0562ee96ee)"><g clip-rule="nonzero" clip-path="url(#40c85cb553)"><path style=" stroke:none;fill-rule:nonzero;fill:#060705;fill-opacity:1;" d="M 42.796875 7.960938 L 62.796875 7.960938 L 62.796875 17.371094 L 42.796875 17.371094 Z M 42.796875 7.960938 "/></g></g><g clip-rule="nonzero" clip-path="url(#6e627cb5c6)"><g clip-rule="nonzero" clip-path="url(#a380683ddd)"><path style=" stroke:none;fill-rule:nonzero;fill:#060705;fill-opacity:1;" d="M 8.769531 8.023438 L 50.152344 8.023438 L 50.152344 45.328125 L 8.769531 45.328125 Z M 8.769531 8.023438 "/></g></g><g clip-rule="nonzero" clip-path="url(#eaaf07b366)"><g clip-rule="nonzero" clip-path="url(#f33ae5427b)"><path style=" stroke:none;fill-rule:nonzero;fill:#060705;fill-opacity:1;" d="M 8.160156 37.921875 L 24.21875 37.921875 L 24.21875 73.871094 L 8.160156 73.871094 Z M 8.160156 37.921875 "/></g></g><path style=" stroke:none;fill-rule:nonzero;fill:#73d800;fill-opacity:1;" d="M 71.617188 24.011719 C 65.304688 17.699219 56.898438 14.222656 47.949219 14.222656 C 39 14.222656 30.59375 17.699219 24.28125 24.011719 C 11.230469 37.0625 11.230469 58.300781 24.28125 71.351562 C 30.589844 77.664062 38.996094 81.144531 47.949219 81.144531 C 56.898438 81.144531 65.304688 77.667969 71.617188 71.351562 C 77.929688 65.039062 81.410156 56.632812 81.410156 47.683594 C 81.410156 38.730469 77.929688 30.324219 71.617188 24.011719 Z M 69.746094 69.480469 C 63.933594 75.292969 56.191406 78.496094 47.949219 78.496094 C 39.703125 78.496094 31.964844 75.292969 26.152344 69.480469 C 14.132812 57.460938 14.132812 37.902344 26.152344 25.882812 C 31.964844 20.070312 39.707031 16.871094 47.949219 16.871094 C 56.191406 16.871094 63.933594 20.070312 69.746094 25.882812 C 81.765625 37.902344 81.765625 57.460938 69.746094 69.480469 Z M 69.746094 69.480469 "/><g clip-rule="nonzero" clip-path="url(#84a8d57123)"><path style=" stroke:none;fill-rule:nonzero;fill:#73d800;fill-opacity:1;" d="M 116.378906 103.914062 L 94.097656 81.628906 L 89.488281 77.019531 C 88.992188 76.523438 88.113281 76.523438 87.617188 77.019531 L 86.914062 77.722656 C 86.847656 77.566406 86.757812 77.421875 86.632812 77.296875 L 80.957031 71.621094 C 85.988281 64.710938 88.707031 56.410156 88.707031 47.679688 C 88.707031 36.777344 84.472656 26.535156 76.78125 18.847656 C 69.09375 11.160156 58.851562 6.925781 47.949219 6.925781 C 37.046875 6.925781 26.804688 11.160156 19.117188 18.851562 C 3.21875 34.75 3.21875 60.617188 19.117188 76.519531 C 26.808594 84.207031 37.046875 88.441406 47.949219 88.441406 C 56.679688 88.441406 64.976562 85.71875 71.886719 80.691406 L 77.5625 86.367188 C 77.6875 86.496094 77.832031 86.585938 77.988281 86.652344 L 77.292969 87.347656 C 76.773438 87.863281 76.773438 88.703125 77.292969 89.21875 L 82.078125 94.007812 L 104.179688 116.113281 C 105.808594 117.742188 107.976562 118.640625 110.28125 118.640625 C 112.585938 118.640625 114.75 117.742188 116.378906 116.113281 C 119.742188 112.746094 119.742188 107.273438 116.378906 103.914062 Z M 20.984375 74.644531 C 6.121094 59.777344 6.121094 35.585938 20.984375 20.71875 C 28.175781 13.53125 37.75 9.570312 47.949219 9.570312 C 58.144531 9.570312 67.71875 13.527344 74.90625 20.71875 C 82.097656 27.90625 86.058594 37.480469 86.058594 47.679688 C 86.058594 57.875 82.097656 67.449219 74.90625 74.640625 C 67.71875 81.828125 58.144531 85.789062 47.945312 85.789062 C 37.753906 85.789062 28.175781 81.832031 20.984375 74.644531 Z M 79.433594 84.496094 L 73.992188 79.050781 C 74.953125 78.25 75.886719 77.410156 76.78125 76.515625 C 77.675781 75.617188 78.519531 74.6875 79.320312 73.726562 L 84.757812 79.167969 C 84.882812 79.292969 85.027344 79.386719 85.183594 79.449219 L 79.714844 84.917969 C 79.652344 84.765625 79.558594 84.621094 79.433594 84.496094 Z M 88.550781 79.828125 L 91.316406 82.59375 L 82.988281 91.171875 L 80.097656 88.28125 Z M 114.507812 114.242188 C 113.378906 115.371094 111.878906 115.992188 110.28125 115.992188 C 108.683594 115.992188 107.183594 115.371094 106.054688 114.242188 L 84.859375 93.042969 L 93.191406 84.464844 L 114.507812 105.785156 C 116.839844 108.113281 116.839844 111.90625 114.507812 114.242188 Z M 114.507812 114.242188 "/></g></g></svg>